<svg xmlns="http://www.w3.org/2000/svg" baseProfile="full" height="612922.617388" version="1.1" viewBox="-173656.339217,3448010.441396,389525.102754,612922.617388" width="389525.102754"><defs><style type="text/css">polyline,line,rect,path,polygon,.polygon{fill:none;stroke:#000;stroke-width:1px;stroke-linejoin:round;}</style></defs><g fill_rule="evenodd" transform="scale(1,-1)"><g class="hogares link mujeres nombre toponimo_i tot_pob varones viv_part viv_part_h" id="14"><polygon class="_14" id="None" points="55735.4155924,-4005070.89735 55730.9302659,-4005653.97577 55832.8633387,-4011376.00955 55892.9521446,-4014128.5099 55984.6780325,-4018023.00637 56039.142974,-4020307.10441 56110.8731798,-4022911.64226 56146.6523387,-4024578.6554 56246.2000944,-4029203.23605 56475.9279595,-4037151.57199 56476.7990991,-4037157.55029 56415.4986485,-4037226.75252 56163.9150465,-4037509.18821 56160.1917959,-4038148.84434 56116.3043299,-4044947.96578 56070.7554757,-4049377.2993 56110.3288954,-4053283.82465 56060.3120774,-4057545.61993 56059.9819013,-4057566.11632 56027.0021691,-4057566.29147 55996.7698903,-4057566.4104 51730.8750011,-4057578.6742 48475.7018431,-4057605.1592 46832.9129764,-4057676.65475 46658.9058632,-4057684.70129 45775.7671204,-4057695.21117 40419.0968796,-4057757.32216 37352.0565389,-4057779.70116 36836.3372564,-4057795.67811 36752.4114873,-4057785.38801 36413.8441476,-4057787.76797 36177.9839174,-4057790.06006 32278.4460072,-4057825.22781 26797.8146418,-4057844.80658 23606.5983931,-4057817.88972 22872.5887827,-4057830.22703 21327.1071493,-4057855.95413 15857.6295941,-4057947.82045 10280.769342,-4057952.14209 7969.92897214,-4057942.61588 6695.19882067,-4058014.7151 6065.23817796,-4058021.36878 612.911982575,-4058078.75921 -3292.75291697,-4058078.98665 -3318.90706293,-4058083.50917 -3467.81719322,-4058073.99129 -6106.75994135,-4058150.76172 -9674.19599933,-4058133.5371 -9972.92392138,-4058132.00102 -10094.404074,-4058131.926 -13303.1732172,-4058153.93386 -13303.6123375,-4058144.44415 -13418.0184271,-4058148.22435 -13623.3538606,-4058154.81661 -17955.3015107,-4058287.57791 -21347.4669674,-4058344.03308 -24149.9526584,-4058390.1959 -24310.1305301,-4058392.87553 -25105.514357,-4058406.66142 -29464.2486884,-4058346.09644 -29583.7691688,-4058344.46446 -31914.1885874,-4058312.11396 -35442.9696667,-4058421.90114 -38908.1922271,-4058499.34209 -41365.9989233,-4058488.83421 -43509.2409677,-4058496.08087 -43700.4564597,-4058497.34828 -43908.674499,-4058498.45036 -43988.6592591,-4058499.02604 -44120.2298727,-4058495.11807 -45728.9324514,-4058493.7975 -53276.3059195,-4058539.15585 -53916.385907,-4058547.21762 -54111.3369359,-4058549.54298 -59999.640583,-4058620.94688 -63647.2459986,-4058667.80256 -63719.2095426,-4058669.70932 -63860.8972841,-4058672.97895 -63861.3230478,-4058663.98716 -63947.2814589,-4058666.16735 -68294.1405713,-4058767.06015 -73748.734864,-4058822.38086 -73892.2152594,-4058823.67449 -76432.8179267,-4058849.61517 -82823.2652563,-4058985.76035 -83762.3520833,-4059022.9786 -84023.8350029,-4058986.04715 -86531.3999709,-4059017.15131 -93272.970258,-4059195.59282 -102362.418298,-4059359.40894 -102370.916026,-4059359.57255 -102405.156872,-4059360.23179 -102405.936121,-4059332.74396 -102424.26017,-4029184.86705 -102425.82857,-4027175.64667 -102629.841055,-4021153.97345 -102630.934999,-4021122.99976 -102820.131695,-4009034.68672 -102821.481214,-4008964.23028 -103010.740213,-3996870.35511 -103011.732934,-3996805.39535 -103243.829582,-3988875.6185 -103835.18445,-3968725.61458 -103865.866452,-3967693.20602 -104058.959072,-3952575.43611 -104104.403886,-3948507.66504 -104218.726545,-3938398.55983 -104275.440672,-3933389.89611 -104275.586519,-3933355.92137 -104612.119839,-3918208.33962 -104632.0366,-3917316.36755 -104805.456083,-3909486.99914 -104992.811956,-3901060.10278 -105236.603871,-3890051.16837 -105402.326604,-3882579.61276 -105710.542478,-3876206.96136 -105753.016938,-3875320.04229 -105782.525993,-3874709.63687 -106512.119166,-3858449.10291 -106516.831984,-3858318.31286 -106538.209133,-3857846.65297 -106430.418654,-3857456.48166 -106178.108982,-3857180.47886 -105893.392225,-3856861.40517 -105730.523922,-3856756.43079 -105521.929524,-3856559.67944 -105253.682833,-3856440.2309 -104832.395322,-3856198.01008 -104560.878055,-3855987.08538 -104341.209339,-3855781.63379 -104121.281774,-3855576.67701 -103783.870651,-3855416.46211 -103599.089433,-3855109.26469 -103449.037752,-3854841.18601 -103243.832657,-3854637.007 -103041.038179,-3854357.94421 -102833.866525,-3854258.13004 -102646.69686,-3853905.432 -102592.888205,-3853619.68694 -102480.282359,-3853286.37799 -102454.763845,-3853076.59522 -102323.27205,-3852950.23449 -101919.07333,-3852981.0803 -101641.534068,-3852732.08081 -101415.117421,-3852500.52941 -101322.981155,-3852406.38076 -101113.50826,-3852335.99592 -100858.323048,-3852332.18524 -100676.385464,-3852523.57048 -100424.016002,-3852701.63935 -100219.357329,-3852866.12115 -99941.8225362,-3853054.20513 -99625.7211582,-3853313.99271 -99211.3530698,-3853314.67217 -98704.3462822,-3853234.67976 -98293.6178262,-3853002.64936 -97892.0216019,-3852538.01417 -97660.5446853,-3852296.87634 -97557.3849028,-3852045.67029 -97232.1940212,-3851568.99065 -96849.3154332,-3851078.73628 -96814.5597271,-3850736.41036 -97085.8263486,-3850231.51685 -97479.4583895,-3849449.20012 -97730.4146974,-3848723.13702 -97852.9737866,-3848024.62544 -97514.6876961,-3847434.31646 -97168.3305918,-3847179.53026 -96876.0799857,-3846863.3248 -96640.9827828,-3846668.57954 -96821.5685179,-3845872.76227 -96821.671501,-3845270.8522 -96813.9455969,-3845256.72029 -96490.2481084,-3844621.23704 -96220.1357366,-3844018.23409 -96533.9982697,-3843319.83909 -96564.1856164,-3843043.18027 -96401.10127,-3842539.10106 -96229.4153007,-3842040.85478 -96155.6175052,-3841424.07208 -95845.0810601,-3840248.88012 -95844.6193491,-3840246.8734 -95485.9406069,-3839784.57004 -94946.2171052,-3839678.9997 -94717.4237632,-3839441.42256 -94524.1140764,-3839017.20061 -94646.5656421,-3838588.93601 -94633.8789432,-3838559.72598 -94514.2761375,-3838279.75068 -94489.632763,-3837957.10832 -94521.9425241,-3837567.6066 -94873.5149293,-3837120.68005 -95349.519501,-3836737.03473 -95332.0930541,-3836123.81973 -95415.1280316,-3835825.68294 -95516.7892147,-3835546.37831 -95709.451878,-3834704.85197 -95466.1561131,-3834016.95894 -95692.6582167,-3833699.54504 -95538.3312512,-3833327.01247 -95042.121198,-3833245.24703 -94823.0329666,-3832372.50015 -94746.421347,-3831639.29801 -94492.1822646,-3831055.10068 -93727.3488911,-3830078.68632 -93126.9597782,-3829786.67545 -92538.5481018,-3829083.80991 -92466.21041,-3827804.75559 -92321.9315012,-3826778.59064 -92285.2271126,-3826286.90435 -92434.7843209,-3825731.29107 -92774.1174936,-3825203.72166 -92784.2317217,-3824692.43792 -92711.9734023,-3824032.75703 -92789.6855916,-3823658.60532 -92490.4756858,-3823699.43155 -92269.3730893,-3823863.10102 -91746.0129414,-3823990.61794 -91529.0172504,-3823696.83673 -91540.6679344,-3823210.05939 -91400.8196099,-3822771.38117 -91349.6318939,-3822279.42745 -91465.5963651,-3821836.56909 -91661.9806338,-3821180.94494 -91860.0997957,-3820432.94944 -91996.8159038,-3819669.81466 -91922.7642063,-3818547.08985 -91877.0531287,-3817856.4498 -91599.5146517,-3816930.19654 -91428.8966785,-3816361.08274 -91309.0314652,-3815376.85927 -91188.4461869,-3814869.62367 -90929.2791052,-3814387.75633 -90869.9604637,-3813876.17868 -90128.6037968,-3812952.7125 -89957.8028768,-3812366.61988 -89578.7119407,-3811953.92917 -89498.4156036,-3811641.74989 -89194.4396264,-3811271.9271 -88654.3527071,-3810149.96507 -88760.2319799,-3808993.18481 -88988.6882484,-3807931.60778 -89019.0247614,-3807712.41123 -89101.6130303,-3807117.59665 -89140.8496469,-3806503.98789 -89041.260286,-3805902.25891 -88936.3819875,-3805223.01416 -88754.7934238,-3804519.35562 -88482.6570242,-3804156.13299 -88175.9394932,-3803453.12581 -87767.1599866,-3802839.10786 -87168.7878698,-3802653.56976 -86646.5998926,-3802334.10691 -86308.4441883,-3802215.38423 -86013.2134739,-3801925.15298 -85785.1680745,-3801621.19869 -85400.8511869,-3801180.95764 -85397.5354163,-3800625.49677 -85402.6241163,-3800300.94389 -85403.0894061,-3800249.50835 -85680.270507,-3800117.35596 -85710.7583154,-3800062.98728 -85901.9076116,-3799724.44278 -86346.5676972,-3799450.58737 -86856.8500177,-3798766.90629 -86670.9602488,-3797719.55086 -86648.3059596,-3796756.66936 -86464.1448948,-3796589.39476 -86369.9160989,-3796194.05559 -86601.6307526,-3795782.85015 -87091.8564244,-3795609.23703 -87251.4075471,-3795477.37371 -87739.7155839,-3795072.97375 -88175.1188631,-3794453.31342 -88158.6655059,-3793758.75743 -87821.1340491,-3793233.49605 -86936.2319795,-3792786.38416 -85867.6083329,-3792028.66661 -85707.2807584,-3791442.29993 -85682.3701156,-3790719.12306 -85449.9306998,-3790356.16124 -85024.4331379,-3789834.25395 -84747.0839671,-3789482.4391 -84690.0058014,-3789409.94838 -84481.4987464,-3789115.86157 -84611.6724573,-3788672.28917 -84919.9853473,-3788544.21006 -85377.4878419,-3788250.60902 -85405.3049916,-3787912.00174 -85577.005123,-3787491.18174 -86308.5242061,-3787354.04374 -87175.6678605,-3787015.66666 -87516.1497372,-3786329.79719 -87362.5309104,-3785624.68929 -87499.8783582,-3785211.21511 -87878.191504,-3784758.79812 -88574.257508,-3784034.13053 -88784.5163916,-3783047.14711 -88841.3186789,-3782346.97596 -88655.4861741,-3781654.75232 -88703.6261884,-3781083.77838 -88578.4955909,-3780617.44551 -88496.5845806,-3779976.61344 -88476.92223,-3779906.32228 -88376.5876904,-3779542.84193 -88274.8549183,-3778987.04652 -88147.5438558,-3778450.25192 -87970.8724447,-3778095.83361 -87995.550531,-3777577.36483 -87845.3134157,-3777425.21977 -88176.9022448,-3776679.74496 -88650.7603386,-3775964.89801 -88765.8607623,-3775284.79836 -88617.945621,-3774420.47978 -87964.0034587,-3773106.19062 -87729.8803025,-3771937.09879 -87612.7901455,-3770585.39911 -87865.1245003,-3769977.78796 -87805.1865546,-3769496.69772 -87572.0184068,-3769011.37345 -87452.6957944,-3768808.36657 -87287.8773116,-3768527.5951 -87194.006789,-3768098.31443 -87397.0715903,-3767333.95521 -87482.7007352,-3766466.01486 -87402.8871586,-3765939.10546 -87281.3658579,-3765158.19781 -87674.2060443,-3764260.53124 -87822.1497436,-3763746.36383 -87797.1820395,-3763197.50395 -87831.9165736,-3762500.42341 -87985.9220988,-3761928.93199 -88066.5428339,-3761355.57158 -88083.8219266,-3761232.5303 -88138.6396549,-3760703.63865 -88367.2044274,-3760311.84026 -88771.5549345,-3760028.20482 -89542.8386904,-3759458.73591 -89603.7431133,-3759513.81252 -90227.5795212,-3760074.84443 -90647.4881399,-3760028.23731 -90996.2338217,-3760168.59581 -91523.8552842,-3760211.40204 -91945.4928387,-3760447.01777 -92330.5248834,-3760623.51505 -92759.9086309,-3760403.77443 -93141.6879132,-3760232.59126 -93595.2798427,-3760000.31552 -93912.4029894,-3759894.85253 -94001.3624912,-3759865.04625 -94301.1157957,-3759874.13376 -94553.6447054,-3759991.72116 -94866.0464994,-3760072.46688 -95117.8935836,-3760106.13315 -95286.0736913,-3760140.2366 -95429.3640085,-3760102.95293 -95604.411089,-3760090.23554 -95788.1545794,-3760039.72161 -96195.4990806,-3760024.34485 -96518.0212699,-3759937.46172 -96782.4391217,-3760006.82397 -97203.1371483,-3760119.05809 -97215.3137496,-3760122.28198 -97455.8260531,-3760228.15845 -97809.7692072,-3760264.22878 -98198.15428,-3760368.36867 -98630.3924254,-3760277.03885 -98772.2933395,-3760059.9232 -99047.7635857,-3760045.58252 -99214.7114494,-3759971.77958 -99429.9114826,-3759921.8518 -99765.3861613,-3759930.60651 -100049.011724,-3759987.84081 -100212.839527,-3759947.44341 -100647.196164,-3759930.07257 -101116.600485,-3759948.31778 -101574.143697,-3760026.77683 -105584.524019,-3760004.18246 -107797.282371,-3760091.9044 -109176.04034,-3760147.08893 -109196.427724,-3760151.96443 -110433.859982,-3760206.01142 -110439.851566,-3760206.12317 -113858.270771,-3760365.77968 -113886.444688,-3760154.02802 -113884.110559,-3759904.24669 -113909.742995,-3759681.45915 -113892.745688,-3759347.49249 -113751.516213,-3759140.07376 -113749.181625,-3758890.29253 -113844.503485,-3758666.80669 -113996.476283,-3758525.7917 -114217.393492,-3758357.09268 -114256.310281,-3758078.11193 -114253.975191,-3757828.3305 -114293.607583,-3757591.31903 -114333.21783,-3757382.27775 -114428.992675,-3757228.22705 -114609.629362,-3757157.17314 -114669.990144,-3756933.53433 -114723.841288,-3756710.77306 -114749.687402,-3756543.43096 -114776.271422,-3756390.08793 -114760.408737,-3756209.4813 -114689.820783,-3756070.80939 -114590.777592,-3755891.14947 -114547.18485,-3755711.02492 -114462.379327,-3755544.6169 -114349.809299,-3755434.13212 -114348.652134,-3755295.25629 -114417.388957,-3755225.11263 -114458.190091,-3755099.50584 -114470.306539,-3754918.42199 -114426.71349,-3754738.29756 -114341.431933,-3754530.42438 -114214.893854,-3754392.20831 -114020.076274,-3754366.59998 -113825.029363,-3754326.50261 -113713.164408,-3754271.97256 -113753.965271,-3754146.36587 -113905.64507,-3754047.79964 -114100.475192,-3754045.93694 -114196.249046,-3753891.88574 -114097.214543,-3753711.72708 -113914.990396,-3753533.0148 -113787.509767,-3753311.36915 -113827.151073,-3753060.37248 -113964.886175,-3752892.61845 -114200.234532,-3752807.09912 -114337.510762,-3752610.36676 -114363.391473,-3752374.09762 -114360.83521,-3752095.84201 -114358.278806,-3751817.5864 -114382.715636,-3751511.3637 -114492.252257,-3751315.61247 -114671.965644,-3751146.64211 -114725.54308,-3750951.84587 -114667.535591,-3750674.05527 -114719.952904,-3750353.86887 -114842.784211,-3750087.93885 -114993.066259,-3749836.50549 -115102.850561,-3749654.24417 -115337.983303,-3749513.27735 -115531.881811,-3749413.9977 -115655.635783,-3749245.98174 -115834.373497,-3749035.53557 -115835.696175,-3749031.5644 -115895.677236,-3748868.35388 -116005.439824,-3748714.06239 -116100.748668,-3748491.07317 -116014.769501,-3748213.26046 -116068.594251,-3748031.95392 -116066.966803,-3747864.59868 -116176.958739,-3747724.79605 -116008.720248,-3747559.33193 -115826.220743,-3747422.07247 -115867.031013,-3747282.47957 -115879.611972,-3747143.35976 -115891.508501,-3746920.31501 -115890.110312,-3746767.44891 -115846.514488,-3746587.32454 -115858.401493,-3746364.77907 -115842.556992,-3746156.20192 -115797.789274,-3745864.67233 -115711.580588,-3745558.88508 -115556.389141,-3745296.26666 -115528.153207,-3745095.94996 -115519.098408,-3745032.34773 -115517.233909,-3744824.03105 -115514.454911,-3744517.30032 -115610.227878,-3744349.76105 -115607.894495,-3744112.96536 -115620.713625,-3743987.83527 -115829.05784,-3743944.26457 -115966.084649,-3743720.55282 -116101.928566,-3743399.42075 -116135.271027,-3743218.23166 -116132.699565,-3742953.95998 -116158.585639,-3742717.18995 -116254.606547,-3742563.14064 -116252.719869,-3742382.79393 -116153.690424,-3742202.13701 -116166.282128,-3742035.54578 -116038.796199,-3741813.90143 -116079.096541,-3741674.79789 -116259.036286,-3741533.79869 -116353.884328,-3741268.3436 -116448.494553,-3740975.41266 -116474.13019,-3740738.63762 -116555.217841,-3740487.91044 -116608.801212,-3740292.6128 -116704.811033,-3740152.54805 -116703.18255,-3739971.7064 -116618.828798,-3739861.24983 -116562.445445,-3739750.81446 -116686.403117,-3739652.22709 -116810.62104,-3739539.65911 -116753.540237,-3739372.76961 -116737.921644,-3739192.16698 -116903.839593,-3739093.36149 -117042.972003,-3739078.4694 -117097.012043,-3738939.12155 -117179.311878,-3738770.83038 -117163.226728,-3738534.77669 -117064.415073,-3738382.5943 -116814.111388,-3738412.89925 -116591.548439,-3738428.73613 -116395.794619,-3738305.71739 -116491.108963,-3738082.22632 -116657.058319,-3737941.46483 -116780.310206,-3737773.43623 -116777.974117,-3737536.63957 -116720.19879,-3737272.83825 -116773.55374,-3737036.07899 -116869.781022,-3736937.97381 -116979.322806,-3736741.71888 -117018.719222,-3736463.24285 -117059.049937,-3736282.18269 -117183.692068,-3736281.00569 -117224.489367,-3736155.39641 -117180.661293,-3735947.29668 -117276.432362,-3735779.75499 -117329.827566,-3735500.54015 -117362.699855,-3735277.38464 -117485.952479,-3735095.86914 -117693.122425,-3734954.37492 -117886.804186,-3734786.15717 -118106.760113,-3734561.48731 -118286.928086,-3734448.4603 -118481.054664,-3734377.1499 -118703.150726,-3734319.34637 -118826.402342,-3734151.31623 -119047.565006,-3733982.61022 -119242.179541,-3733938.78023 -119423.240756,-3733979.11058 -119574.00565,-3733755.15052 -119864.868785,-3733585.24354 -119974.359361,-3733445.42742 -120280.844151,-3733442.63824 -120376.395906,-3733246.62055 -120527.072745,-3733188.48682 -120832.679941,-3732964.40994 -121121.289735,-3732660.59864 -121323.070649,-3732513.50828 -121535.072492,-3732434.53787 -121747.705024,-3732442.48951 -121893.152288,-3732450.68972 -122085.568558,-3732390.83483 -122046.335301,-3732284.7136 -121929.050264,-3732199.11768 -121889.220051,-3732044.53534 -121907.474927,-3731909.01502 -121954.556438,-3731821.48203 -122061.254781,-3731791.49988 -122110.371066,-3731916.78539 -122121.511716,-3732042.86291 -122199.372002,-3732099.75423 -122314.95469,-3732088.91785 -122371.885479,-3731982.08813 -122380.790503,-3731865.8737 -122437.858321,-3731778.52642 -122504.809079,-3731710.34342 -122640.373649,-3731699.37922 -122746.112933,-3731640.40903 -122812.81407,-3731572.22135 -122812.329733,-3731504.28226 -122801.889263,-3731407.68727 -122897.99527,-3731329.55734 -123003.880944,-3731289.57027 -123119.987603,-3731317.70344 -123178.346994,-3731375.73051 -123207.99586,-3731433.22349 -123313.881595,-3731393.23643 -123419.758061,-3731353.74868 -123544.632734,-3731246.18469 -123562.814443,-3731101.17233 -123522.484649,-3730946.58023 -123628.302911,-3730829.67087 -123635.891982,-3730636.51067 -123653.202403,-3730404.07182 -123660.448812,-3730215.90006 -123711.95582,-3730172.40382 -124013.334376,-3730001.19137 -125199.653314,-3729327.97096 -125332.310768,-3729258.51215 -135446.171188,-3723948.21065 -139145.506186,-3721972.06893 -140776.600506,-3721100.80792 -151360.014365,-3715643.27189 -153110.951937,-3714722.28134 -157238.958307,-3714465.41781 -162247.559886,-3714145.03811 -162625.648518,-3714120.60647 -167348.42612,-3713873.85346 -169232.369545,-3714449.91048 -169238.604455,-3713887.07011 -169342.214747,-3704619.89814 -169376.035092,-3702118.9117 -169435.228201,-3697758.15019 -169473.880781,-3694916.55066 -169624.083269,-3686845.3936 -169638.577549,-3686079.87363 -169781.01146,-3678719.79999 -169846.274322,-3672512.64826 -169862.172156,-3672275.65779 -169863.042959,-3670899.4118 -170052.081978,-3657967.3594 -170052.41,-3657909.41585 -170130.301381,-3653088.52491 -170137.845126,-3652615.57023 -170267.625246,-3644464.87216 -170472.38606,-3631846.97896 -170626.644143,-3621957.08217 -165297.020151,-3607049.65162 -165041.201976,-3606295.44438 -164962.115929,-3606074.13492 -164485.910652,-3604837.17952 -161030.727951,-3595567.54025 -159556.760518,-3591625.87284 -159398.605035,-3591626.44248 -159345.639879,-3591626.46126 -159339.941829,-3591610.3664 -157964.445802,-3587730.94089 -156951.28421,-3584871.52782 -154102.586871,-3577370.0159 -153488.518934,-3575784.62608 -152869.194552,-3574185.64 -152727.114486,-3573802.2432 -152489.184099,-3573156.73056 -151799.419418,-3571285.09087 -150999.259675,-3569112.57568 -148795.622733,-3562265.75467 -147842.956895,-3559334.27164 -147257.266919,-3557530.93127 -146476.948894,-3554667.54086 -145250.348787,-3550160.21774 -145132.313971,-3549472.88248 -143242.33048,-3518624.80182 -143218.784441,-3518246.49288 -134859.405028,-3516957.63731 -123273.537693,-3515097.01933 -123143.462486,-3515076.15384 -120051.442883,-3514668.92438 -117689.170725,-3514358.00572 -95347.0726176,-3498651.19867 -88122.4048616,-3493573.6123 -90277.7403312,-3479986.1626 -92589.3973058,-3465412.26047 -93009.8664413,-3463320.47626 -94046.676634,-3457748.87061 -94082.8463529,-3457544.02569 -89945.087839,-3456686.97174 -82563.2075403,-3455158.19845 -82105.8560303,-3455109.04657 -81162.9854372,-3455006.24593 -81148.5085918,-3455004.98801 -80680.6973714,-3454953.6549 -80350.1129545,-3454917.26724 -74154.1563798,-3454247.0749 -71546.8691647,-3453963.7951 -66243.5104486,-3453090.84921 -63852.1688713,-3452698.06268 -58331.4684547,-3451918.60458 -57807.0736932,-3451844.86012 -57796.1047055,-3451843.16679 -56876.7301348,-3451713.96476 -56335.8873029,-3451637.43681 -53149.5283511,-3451252.34385 -53123.0836305,-3451249.37863 -50396.4575017,-3450919.94424 -48702.2443336,-3450716.6898 -46012.452873,-3450184.02674 -40824.1668574,-3449158.22879 -38971.4410752,-3448901.34418 -32894.6162709,-3448117.81425 -32322.4792748,-3448045.34694 -30253.3922724,-3448329.72377 -30059.2057664,-3448356.83481 -29993.5636658,-3448365.68932 -25405.2190251,-3448997.6825 -24969.2778648,-3449057.08771 -23384.3240578,-3449275.48431 -22132.008316,-3449453.6834 -20606.0940718,-3449670.63208 -17156.0795812,-3450123.66084 -15263.3861809,-3450538.24641 -8863.88403863,-3451741.64772 -8409.65524653,-3451820.77214 -8143.44419156,-3451866.65714 -6742.70608297,-3452108.38032 3138.81367559,-3453816.41481 3510.40920712,-3456284.56215 3506.0103907,-3457146.79307 3500.22992176,-3458378.39099 3500.20384432,-3458391.38609 3500.27268927,-3458395.38326 3490.90975241,-3460245.27088 3489.05469116,-3460616.14486 3488.87375958,-3460620.14627 3912.23893667,-3460622.8462 7925.03212744,-3460655.2124 8013.991547,-3460655.18137 8526.09606349,-3460340.51106 8910.1909444,-3459571.24945 9431.92830438,-3458566.22612 10163.895646,-3457157.26825 10701.741731,-3456492.32133 11602.8584881,-3455589.74591 14083.2760923,-3455750.63476 15219.032772,-3455824.63657 15548.1315035,-3456189.33148 15750.8921579,-3456414.25409 15651.1114072,-3457124.63506 13479.0844182,-3457895.52443 13299.913009,-3458434.35073 13641.1755829,-3458968.74561 15127.4623397,-3459274.10014 16695.5982578,-3459340.67784 17223.6689882,-3459797.4022 17544.4049809,-3459587.00853 18333.7349621,-3459541.50584 19315.3689015,-3460030.44559 19478.84365,-3460865.72059 19999.3067166,-3461039.71572 23808.1226624,-3462315.33686 25881.0761199,-3463095.94899 26672.4302242,-3463318.29377 26673.9374701,-3463318.76773 27063.8503112,-3463429.03992 27180.131952,-3463464.03242 27193.4387834,-3463467.80282 27545.6348348,-3463564.22819 27822.5559843,-3463627.45945 28033.2366919,-3463718.30689 28109.8682178,-3463874.90673 28141.4697836,-3464086.74367 28319.8371425,-3464099.68817 28474.112387,-3464223.47977 28572.7425837,-3464424.67666 28627.250185,-3464558.66659 28659.0998508,-3464726.52359 28691.306452,-3464871.38781 28801.8523111,-3464994.92567 28946.1166939,-3465073.91356 29089.2225046,-3465231.37456 29053.973183,-3465420.36443 29152.6112811,-3465622.05831 29274.0845351,-3465756.40187 29462.4062895,-3465869.61549 29697.3946017,-3465760.16574 29830.8971813,-3465750.39048 30009.6262762,-3465740.84251 30097.5476855,-3465841.77939 30219.9355143,-3465854.18093 30319.0965711,-3465954.92578 30429.9420887,-3466022.99076 30608.7239039,-3466001.9494 30731.4756603,-3465947.88548 30909.6419462,-3465949.34138 31053.4215098,-3466073.30991 31141.8231133,-3466129.26578 31342.4854754,-3466131.33743 31688.0665503,-3466089.9614 31767.1885566,-3465968.1853 31823.9300419,-3465823.30555 31847.4610394,-3465723.46512 32048.4797992,-3465658.57326 32226.2884162,-3465726.99593 32438.1808427,-3465684.40539 32639.0122952,-3465652.49742 32772.0224126,-3465687.20598 32815.6599608,-3465799.39179 32915.0052244,-3465911.12702 33037.7567823,-3465901.03845 33072.0371292,-3465801.51531 33217.4637774,-3465758.56046 33294.6950359,-3465848.18688 33405.020782,-3465915.26257 33572.6314204,-3465883.92233 33795.2797442,-3465886.12241 33929.4491922,-3465842.36096 34107.7372645,-3465821.83256 34274.7685095,-3465800.49692 34420.0156913,-3465791.02558 34519.3588725,-3465858.78863 34697.2176464,-3465915.71945 34820.093057,-3465883.64426 34921.1591662,-3465817.96233 35054.4706712,-3465841.17449 35243.389574,-3465887.42401 35332.2873696,-3465899.40072 35411.2860228,-3465799.6172 35524.1376339,-3465633.79854 35647.5585006,-3465545.75054 35782.3903595,-3465379.55778 35851.079292,-3465202.49929 35929.8916907,-3465091.72632 36140.6816177,-3465160.59077 36386.4782593,-3465084.45106 36631.9243552,-3465075.77497 36742.6845614,-3465109.86638 36763.4627325,-3465288.39847 36940.5230087,-3465401.30985 37207.8931394,-3465403.7537 37486.4481534,-3465417.50026 37706.4946139,-3465443.23598 37797.8633688,-3465453.6732 38099.5682822,-3465389.07728 38322.5712767,-3465324.32223 38539.6246805,-3465365.10041 38705.6377717,-3465489.6931 39028.4154184,-3465503.68933 39418.2174831,-3465507.05246 39697.4329818,-3465442.34321 39964.9789879,-3465411.31107 40154.3299923,-3465424.58064 40398.4717881,-3465515.86671 40598.4425559,-3465595.41208 40764.130612,-3465730.50374 40986.7764125,-3465777.18528 41264.4554922,-3465857.40854 41451.949148,-3466026.1065 41685.0981691,-3466117.57963 41852.630965,-3466096.74449 41998.0379295,-3466008.83108 42176.9443199,-3465966.31768 42387.8403933,-3466012.70057 42733.5184492,-3465992.83727 42922.6761985,-3466039.09037 43279.548828,-3465987.06003 43488.5203081,-3465876.08434 43711.2510556,-3465942.75393 43912.5759061,-3465925.84465 43996.8554065,-3465827.97976 44081.1897475,-3465718.62189 44187.8004291,-3465655.85377 44328.1598929,-3465667.96119 44437.6395595,-3465730.0589 44505.1261304,-3465790.87076 44622.8075395,-3465776.88149 44718.1620778,-3465713.30569 44836.0253666,-3465695.31633 45017.9871302,-3465685.73275 45094.0935787,-3465621.48469 45118.0932304,-3465504.65775 45130.4776357,-3465410.0127 45191.2859175,-3465357.01673 45350.5663618,-3465335.82705 45472.0069592,-3465337.26434 45616.0525625,-3465345.81307 45759.1511076,-3465445.81467 45894.6256253,-3465552.94063 46003.2579847,-3465683.00615 46242.5518655,-3465665.95618 46410.8184984,-3465688.58441 46538.7400355,-3465792.34074 46700.9408821,-3465884.52328 46893.5603915,-3465973.192 47120.8311126,-3466013.30693 47268.7854808,-3465957.83543 47281.7588252,-3465794.7303 47406.816888,-3465788.61279 47599.9768391,-3465820.81298 47791.8454795,-3465880.01612 48152.1685947,-3465958.34834 48521.7397042,-3466154.93977 50437.8509808,-3466183.93247 50443.3454132,-3466183.83942 51682.9156027,-3466152.85937 50190.9037009,-3472953.05633 52196.5864516,-3472952.49189 52179.3865592,-3474868.27224 52175.3891291,-3476427.59184 62219.4712203,-3476441.67248 62341.3642013,-3476441.60858 75166.3016733,-3477620.86685 96082.3973434,-3479546.09978 104111.257375,-3480195.19787 104122.757251,-3480196.00504 112917.822437,-3480646.94225 115164.543968,-3481281.7848 115236.289803,-3481302.06642 115220.093188,-3481379.23741 115289.423748,-3481434.51454 115366.866175,-3481497.14741 115428.568304,-3481529.08103 115505.269063,-3481607.20636 115520.283349,-3481669.37738 115488.376928,-3481762.78845 115432.513314,-3481902.03922 115321.895671,-3482142.07154 115266.259171,-3482249.85884 115123.824084,-3482513.39046 115044.512383,-3482698.97212 115104.205681,-3482955.65024 115203.324171,-3483150.75092 115147.228142,-3483320.96553 115130.56544,-3483430.1025 115215.512112,-3483508.58812 115237.929682,-3483625.56453 115393.011059,-3483642.4623 115478.184371,-3483674.5038 115477.598516,-3483744.42335 115406.956285,-3483805.51999 115313.084573,-3483851.02338 115250.688507,-3483897.5018 115188.167321,-3483951.4727 115039.145323,-3484073.79527 114964.724728,-3484162.91913 115002.127224,-3484295.12603 115035.96947,-3484408.41645 115073.278367,-3484595.05423 115110.697082,-3484743.23963 115101.64791,-3484874.72013 115193.873102,-3485000.52158 115200.425408,-3485109.27149 115197.692521,-3485215.17962 115229.263789,-3485327.00873 115154.134797,-3485493.54364 115043.369585,-3485694.12794 114888.515628,-3485630.78961 114717.4679,-3485644.62099 114615.392556,-3485737.20147 114552.521865,-3485845.10903 114451.397296,-3485859.77492 114374.187486,-3485781.1632 114303.78904,-3485811.79654 114226.143658,-3485842.05118 114125.619245,-3485802.77706 114039.837135,-3485809.19822 113961.575762,-3485847.45297 113899.4143,-3485877.94951 113814.473992,-3485814.94644 113711.394902,-3485772.21946 113611.359881,-3485777.38002 113551.910117,-3485835.79558 113533.545563,-3485917.49637 113532.611852,-3486011.39085 113455.581612,-3486063.60755 113379.267774,-3486068.87292 113337.44022,-3486150.96439 113278.698742,-3486161.92956 113166.973843,-3486154.80142 113120.139204,-3486131.11277 113078.36186,-3486201.21906 113089.160253,-3486294.91834 113176.521704,-3486413.30907 113222.489832,-3486519.90505 113209.358991,-3486630.98062 113149.950955,-3486736.83463 113072.196627,-3486865.46525 112936.417214,-3486958.11028 112823.809992,-3487032.89208 112740.265197,-3487173.60411 112656.820585,-3487290.34552 112538.522569,-3487383.19943 112485.01476,-3487423.54019 112467.167672,-3487476.26993 112513.395023,-3487553.39894 112482.426916,-3487717.70342 112463.748027,-3487840.35657 112472.742403,-3487945.57036 112551.493795,-3488056.61221 112636.726434,-3488107.12418 112675.498863,-3488171.39371 112642.858788,-3488235.35556 112574.641382,-3488276.9403 112473.550778,-3488323.56731 112388.152126,-3488367.93542 112336.267721,-3488460.6814 112352.733872,-3488519.82982 112275.797629,-3488637.46182 112165.155725,-3488695.23435 112112.416321,-3488931.30889 112151.708256,-3489236.25671 112192.803755,-3489379.88357 112274.802925,-3489625.69388 112493.574621,-3489703.93751 112661.883882,-3489765.54574 112753.739946,-3489883.85678 112873.1909,-3489800.47074 112969.82048,-3489770.89559 113109.233211,-3489836.48137 113244.42709,-3489873.67481 113375.527728,-3489949.88539 113473.84821,-3490126.51129 113334.462647,-3490182.2659 113254.408372,-3490292.45816 113306.527514,-3490438.39565 113323.086906,-3490592.91562 113243.633688,-3490783.99129 113453.568021,-3490946.26989 113621.377091,-3491082.78595 113638.836428,-3491291.2185 113663.326803,-3491517.01023 113556.402558,-3491707.54451 113518.269729,-3492264.94211 113630.188708,-3492523.22761 113699.433985,-3492752.76414 113891.064368,-3492955.28992 114018.171562,-3493091.48267 114210.662082,-3493151.18441 114368.50537,-3493109.60123 114523.693863,-3493043.59543 114720.613237,-3492919.96972 114878.713924,-3492863.90257 115164.75807,-3492859.62797 115315.894202,-3492775.21601 115416.180609,-3492740.58693 115565.314737,-3492820.48751 115635.901842,-3492921.17235 115685.249064,-3493050.67303 115807.290437,-3492973.23846 115907.560013,-3492952.5911 115951.312462,-3492881.45625 116023.011572,-3492839.3154 116122.458818,-3492904.06653 116222.570963,-3492933.85383 116351.842332,-3492870.77981 116452.942285,-3492750.25435 116583.152993,-3492608.77127 116720.335896,-3492466.17354 116935.525451,-3492390.1834 117135.116161,-3492441.78102 117299.497532,-3492507.94672 117670.123708,-3492575.66722 117911.669507,-3492777.85919 118251.885832,-3493103.23463 118424.612768,-3493715.01098 118512.769985,-3494061.06245 118822.292526,-3494312.54643 119032.070929,-3494511.26823 119397.563658,-3494645.9779 119743.26214,-3494671.66977 120150.398236,-3494638.91803 120418.408,-3494631.95378 120723.396932,-3494671.80729 120925.749065,-3494784.77172 121108.824845,-3494999.41495 121245.2954,-3495203.84978 121325.594257,-3495528.05299 121356.502016,-3495854.57656 121452.125875,-3496169.53502 121566.393124,-3496449.73036 121672.656445,-3496639.18721 121769.585663,-3496837.78651 121884.650281,-3497001.13256 122041.65016,-3497029.47008 122143.168947,-3497024.28201 122235.552994,-3496995.28049 122309.901446,-3497007.52145 122376.8872,-3496997.41724 122489.204159,-3497011.02228 122583.360465,-3497043.40381 122679.496728,-3497089.73234 122800.732163,-3497204.0445 122957.149711,-3497422.1203 123112.792805,-3497578.7965 123271.08114,-3497744.41528 123348.241731,-3497895.40952 123512.361035,-3498036.46554 123645.025102,-3498102.65458 123736.642656,-3498132.58139 123848.400898,-3498217.59228 123872.044265,-3498303.07388 123864.607701,-3498366.10694 123881.155781,-3498520.10779 123857.379866,-3499115.14287 124104.065164,-3499357.17005 124177.896475,-3499413.35483 124215.56497,-3499441.68427 124322.681903,-3499607.65294 124373.329591,-3499740.61289 124471.952307,-3499876.2671 124545.585323,-3500025.31903 124587.106525,-3500119.98682 124700.543298,-3500171.01663 124793.141957,-3500259.83926 124893.196473,-3500466.36458 124922.298605,-3500609.66797 124925.595477,-3500732.43262 125005.440861,-3500804.99156 125027.862604,-3500921.94489 124993.609289,-3501068.30215 125006.22368,-3501195.90352 125114.202582,-3501249.02031 125221.692033,-3501362.55617 125272.339911,-3501495.51336 125365.969592,-3501586.31407 125450.563803,-3501629.33633 125573.041248,-3501668.73065 125740.463747,-3501678.91692 125795.412833,-3501845.25198 125851.142838,-3501968.6374 125874.145197,-3502015.68307 125826.239579,-3502076.89314 125697.992725,-3502155.42081 125613.452739,-3502250.19379 125592.990588,-3502310.44658 125586.249672,-3502489.7932 125584.492373,-3502683.53492 125573.259418,-3502847.97846 125586.814291,-3502957.08953 125632.701933,-3503014.23697 125727.195163,-3503067.07777 125822.001929,-3503049.01888 125925.395696,-3503096.71846 126014.124787,-3503178.11302 126078.98845,-3503280.3755 126116.507548,-3503344.65196 126189.154828,-3503374.89165 126330.530803,-3503424.95213 126441.401778,-3503457.0497 126561.048276,-3503476.51942 126668.580626,-3503428.29324 126810.72674,-3503389.9735 126939.589787,-3503408.2911 127050.418006,-3503422.91588 127089.376847,-3503528.60568 127161.124689,-3503549.87394 127284.655816,-3503592.74381 127459.985363,-3503613.28117 127556.048459,-3503655.61117 127683.37943,-3503656.9801 127773.757197,-3503568.10306 127907.253445,-3503624.7857 128034.053205,-3503684.07631 128164.778204,-3503709.35268 128250.201818,-3503772.32937 128322.761861,-3503707.71415 128365.28328,-3503608.154 128424.077086,-3503571.22713 128492.762727,-3503588.55285 128578.11137,-3503662.01503 128677.391846,-3503672.83922 128808.547923,-3503664.16027 128910.597639,-3503646.48154 128933.474657,-3503715.9937 128941.487531,-3503822.19852 128977.275966,-3503947.41011 129036.338296,-3504031.29537 129086.948499,-3504087.36414 129079.207271,-3504221.78896 129087.138635,-3504382.91103 129125.188036,-3504434.19681 129165.992352,-3504545.84446 129230.003231,-3504597.19599 129313.294851,-3504607.28811 129474.438178,-3504645.53578 129557.431183,-3504697.56885 129618.871658,-3504759.44711 129560.47125,-3504849.78524 129468.18782,-3504839.34406 129347.82274,-3504866.31525 129332.496152,-3505009.85212 129276.192421,-3505106.14638 129275.313611,-3505203.01294 129255.69421,-3505313.67176 129217.401456,-3505457.09271 129118.818785,-3505622.48846 129066.642445,-3505741.67878 129079.390451,-3505862.28083 129064.728276,-3505940.90567 128915.876655,-3506040.74314 128799.416344,-3506137.04432 128718.20851,-3506221.7735 128580.709332,-3506269.00223 128547.457263,-3506370.40355 128583.529638,-3506467.65094 128518.375274,-3506527.15034 128430.592018,-3506517.13499 128442.198545,-3506748.58631 128399.995191,-3506822.18007 128214.484618,-3506894.17558 128051.278682,-3507031.19848 128018.174577,-3507081.67555 127882.522689,-3507284.13736 127811.798764,-3507398.64659 127718.757572,-3507522.01616 127680.754632,-3507578.06694 127652.344866,-3507670.4015 127619.292149,-3507738.85042 127604.738516,-3507794.00977 127627.167172,-3507836.56884 127669.167252,-3507855.33644 127728.719129,-3507878.80279 127802.868129,-3507879.55942 127834.870442,-3507912.47281 127843.342901,-3507986.21774 127846.701991,-3508097.4907 127869.407063,-3508171.49667 127905.762076,-3508240.78113 127946.740635,-3508288.02194 127997.070228,-3508357.0725 128051.908327,-3508427.04603 128102.020773,-3508483.12007 128143.31559,-3508534.34927 128226.190757,-3508549.43738 128253.743807,-3508599.89796 128309.077036,-3508609.95531 128354.903413,-3508633.65092 128395.758402,-3508703.35884 128464.214565,-3508796.56793 128542.375002,-3508843.18626 128592.455666,-3508927.21724 128577.71232,-3509000.85046 128572.824557,-3509051.85351 128535.380151,-3509111.38895 128566.977966,-3509194.73051 128603.35689,-3509250.53449 128667.467558,-3509292.89448 128764.225616,-3509317.23522 128838.313951,-3509299.52107 128855.813929,-3509405.56341 128887.760407,-3509479.91271 128942.257603,-3509559.37607 129029.734129,-3509610.83011 129061.696266,-3509671.20066 129092.969247,-3509750.05398 129180.429911,-3509815.48637 129226.12516,-3509876.12615 129276.046908,-3509950.67339 129326.39988,-3510006.24289 129418.665334,-3510030.6584 129506.355447,-3510050.15828 129552.727276,-3510031.90954 129612.732975,-3510022.9179 129663.68003,-3510009.58487 129742.623753,-3509968.82549 129789.43521,-3509932.09836 129804.071693,-3509881.9314 129827.738901,-3509789.67879 129832.801069,-3509734.18057 129829.236004,-3509655.36326 129862.295057,-3509572.4387 129881.514383,-3509512.70984 129890.794756,-3509470.61999 129905.347999,-3509415.46218 129914.902104,-3509359.88876 129957.626754,-3509272.80877 130013.810888,-3509199.48192 130092.84607,-3509149.2364 130176.191076,-3509117.8893 130268.669757,-3509095.37553 130361.390415,-3509087.3352 130453.737924,-3509101.76609 130518.196069,-3509135.13448 130559.330917,-3509176.88035 130600.374765,-3509228.11289 130622.944302,-3509279.15509 130645.846837,-3509335.18388 130663.650924,-3509399.78461 130713.860935,-3509446.86997 130764.129336,-3509497.44884 130833.427776,-3509521.75012 130883.863017,-3509582.31048 130976.293343,-3509601.73196 131013.622349,-3509565.16414 131059.950639,-3509514.4678 131142.930153,-3509506.0913 131217.754346,-3509427.96093 131264.66523,-3509382.24716 131288.301546,-3509317.9523 131280.170663,-3509234.71906 131294.232836,-3509165.09285 131350.326018,-3509101.25386 131401.844133,-3509032.49922 131476.387306,-3508982.33003 131564.623151,-3508959.88818 131643.598956,-3508891.17406 131740.907209,-3508814.16622 131882.037427,-3508805.31802 131921.584472,-3508886.52848 131970.946226,-3508957.59055 132071.478491,-3508998.84302 132161.769965,-3509009.81455 132323.121669,-3509031.08062 132432.978772,-3509092.64499 132492.986198,-3509143.56039 132562.735115,-3509224.76487 132581.905208,-3509356.23634 132641.507184,-3509457.57857 132711.57862,-3509498.34128 132802.109258,-3509478.8569 132862.364648,-3509499.81525 132912.299281,-3509560.38359 132951.679028,-3509631.61164 133011.36347,-3509722.96786 133030.930575,-3509803.5126 133111.156841,-3509824.63626 133121.79308,-3509774.03854 133202.424661,-3509744.73552 133263.32636,-3509714.76384 133384.407419,-3509686.28272 133465.362901,-3509646.49117 133536.087502,-3509606.87064 133516.937105,-3509536.30322 133436.544306,-3509505.19786 133447.669135,-3509394.18796 133508.164185,-3509384.69082 133578.981238,-3509365.53636 133639.476245,-3509356.03929 133720.514693,-3509306.26257 133771.193949,-3509276.96129 133832.427042,-3509207.04803 133913.298853,-3509147.29019 133994.088862,-3509127.4703 134125.151218,-3509098.82365 134216.595585,-3509059.357 134326.856316,-3509070.49516 134427.220359,-3509131.71906 134577.848133,-3509183.61716 134668.147725,-3509254.99306 134697.702209,-3509305.91747 134787.586407,-3509397.26825 134867.562852,-3509448.34901 134947.704952,-3509479.45891 135028.494202,-3509459.6395 135119.696611,-3509420.67666 135210.069264,-3509451.61582 135179.287566,-3509521.5186 135158.171409,-3509602.24239 135096.69854,-3509702.60967 135065.917047,-3509772.51249 135105.286953,-3509843.24059 135155.393985,-3509884.33657 135225.629073,-3509905.12843 135215.1508,-3509965.20728 135224.319241,-3510035.94037 135264.436688,-3510076.70385 135334.348634,-3510137.93603 135374.540531,-3510168.21505 135394.105355,-3510218.80644 135392.96971,-3510330.14638 135422.590211,-3510370.08661 135462.550271,-3510431.31957 135512.234669,-3510521.84262 135551.528936,-3510573.10266 135541.133749,-3510623.19585 135490.46396,-3510652.99557 135469.59811,-3510733.71461 135519.605472,-3510783.79718 135579.784518,-3510815.23958 135659.842932,-3510856.33378 135749.882363,-3510897.26123 135830.522471,-3510928.36179 135839.857838,-3511009.07517 135879.393183,-3511059.83163 135960.430465,-3511040.0078 136021.578951,-3510980.08166 136112.032072,-3510971.08292 136213.537726,-3510921.46509 136323.6382,-3510953.07207 136413.612906,-3511064.88573 136484.908005,-3510984.82287 136818.726652,-3510826.99535 137062.165506,-3510607.78018 137346.710243,-3510398.862 137660.39304,-3510260.84265 137939.269528,-3510250.69792 138284.810587,-3510286.86403 138555.768528,-3510340.74797 138774.451224,-3510417.96739 138951.679506,-3510493.8816 139127.893151,-3510598.76515 139247.682655,-3510777.4701 139292.815838,-3510969.40046 139235.387613,-3511132.59188 139139.932716,-3511290.42776 139049.975891,-3511448.67121 138959.810396,-3511564.48807 138874.909589,-3511666.73937 138840.653933,-3511797.59689 138839.625399,-3511900.44486 138838.671936,-3512007.78412 138819.071269,-3512119.42808 138762.059029,-3512217.71971 138756.273362,-3512319.64858 138736.606385,-3512427.30017 138688.552692,-3512538.92004 138655.170232,-3512632.32452 138570.64374,-3512697.1318 138555.210708,-3512804.2135 138572.591483,-3512963.16058 138520.063219,-3513060.87833 138500.472118,-3513173.02113 138462.373249,-3513238.0514 138387.09555,-3513288.72759 138362.985855,-3513339.54724 138374.06086,-3513449.68013 138353.796726,-3513566.32673 138278.479598,-3513659.43373 138212.227941,-3513742.4058 138197.311804,-3513850.47706 138257.422748,-3513892.90063 138341.4366,-3513916.95436 138364.376955,-3513945.52308 138368.447855,-3514024.82379 138354.078091,-3514075.97977 138311.952067,-3514094.15501 138216.633947,-3514215.05106 138193.206592,-3514261.86592 138192.536941,-3514341.24584 138214.565847,-3514434.72228 138256.414318,-3514519.38133 138283.34264,-3514622.25998 138352.198937,-3514739.91182 138463.861907,-3514820.40819 138513.837517,-3514928.39196 138536.183658,-3515040.83098 138576.796238,-3515185.90966 138632.26128,-3515293.8012 138574.753602,-3515392.10105 138485.805378,-3515460.97662 138405.226546,-3515567.64925 138338.522367,-3515698.05004 138286.072261,-3515800.25894 138308.775426,-3515889.23049 138335.530262,-3515996.60343 138345.29506,-3516132.71315 138307.292229,-3516233.18273 138292.171678,-3516358.72701 138286.640355,-3516475.6249 138243.68102,-3516578.17407 138214.619416,-3516675.99817 138171.252099,-3516769.07002 138105.549619,-3516810.10317 138067.877333,-3516870.63389 138034.075303,-3516968.53741 138000.423756,-3517075.42344 137980.53623,-3517169.59985 137978.951415,-3517328.3615 137997.1561,-3517416.90835 137972.935232,-3517505.66637 137934.748884,-3517580.18242 137878.658546,-3517584.1167 137854.559617,-3517635.43525 137826.044696,-3517691.32026 137783.723009,-3517742.44486 137735.857239,-3517835.09315 137665.051826,-3517914.14906 137608.294461,-3517997.46224 137579.227336,-3518109.76242 137564.405083,-3518193.37148 137577.644093,-3518268.52375 137586.323718,-3518324.78407 137553.150797,-3518370.76392 137506.028947,-3518403.50003 137482.504784,-3518459.30158 137444.235655,-3518528.82767 137387.396636,-3518622.12575 137302.663983,-3518644.51062 137228.820761,-3518601.82146 137167.361015,-3518642.78473 137159.584222,-3518729.77001 137158.759007,-3518799.66711 137195.536398,-3518879.41643 137157.525496,-3518949.43755 137115.030362,-3519005.05806 137062.614747,-3519079.31402 137043.196336,-3519186.46098 137023.649619,-3519256.17266 136971.507364,-3519316.94666 136924.709232,-3519339.19536 136854.420458,-3519329.89133 136793.92121,-3519323.91734 136718.301174,-3519398.56267 136680.471775,-3519449.61277 136647.193741,-3519519.05572 136665.189889,-3519580.15137 136706.943734,-3519599.41784 136763.177656,-3519618.94065 136800.416654,-3519651.76027 136808.83926,-3519707.52553 136752.477646,-3519739.91809 136687.08027,-3519739.5173 136641.10672,-3519691.86922 136561.947931,-3519644.77762 136486.961681,-3519653.0235 136420.823423,-3519727.51018 136382.820039,-3519783.05589 136321.497976,-3519861.95442 136283.593524,-3519908.51353 136268.962394,-3519973.65061 136301.136054,-3520002.06256 136291.17038,-3520062.62885 136244.554948,-3520080.88165 136216.041661,-3520136.76744 136219.792561,-3520211.57943 136261.176401,-3520268.28922 136317.206113,-3520320.26077 136306.877202,-3520403.79466 136310.711943,-3520483.59672 136258.463425,-3520552.85898 136174.23881,-3520575.73632 136108.916796,-3520579.82742 136056.857535,-3520630.61755 136009.508987,-3520709.28195 135948.497386,-3520732.26914 135850.480776,-3520736.40994 135727.875118,-3520851.77844 135638.266971,-3520925.66164 135636.991824,-3521042.98713 135561.455295,-3521107.64927 135493.717089,-3521146.22392 135399.716663,-3521211.19622 135361.163979,-3521323.15765 135378.987356,-3521388.74835 135406.47285,-3521435.20846 135433.491927,-3521543.07375 135426.978815,-3521734.86262 135397.80304,-3521870.12714 135345.375135,-3521958.36151 135288.804256,-3522037.68056 135161.850351,-3522087.23369 135123.223271,-3522194.70389 135141.071852,-3522321.19193 135120.894143,-3522442.32874 135139.112177,-3522531.37306 135212.851899,-3522597.52126 135296.655848,-3522668.49192 135375.356159,-3522762.50972 135453.806899,-3522856.53159 135504.289309,-3522964.50061 135592.259191,-3523030.9084 135638.544076,-3523097.01822 135712.97118,-3523144.68533 135777.122108,-3523219.4797 135832.317705,-3523370.29665 135934.454829,-3523403.52145 135937.419159,-3523609.62399 135913.294349,-3523688.89638 135847.143157,-3523762.38606 135776.991429,-3523776.04409 135780.390333,-3523874.32109 135793.694151,-3523967.93912 135868.391505,-3523987.14898 135924.864106,-3523931.79163 136023.769877,-3523876.71945 136111.844069,-3523919.66412 136223.231416,-3524028.1055 136287.514234,-3524155.30799 136286.474471,-3524271.62856 136365.746397,-3524295.75298 136496.515053,-3524250.62775 136631.997032,-3524307.74992 136719.422757,-3524416.09416 139336.879413,-3526595.28557 141540.609572,-3528321.66031 143579.595343,-3531932.88505 144024.471638,-3535928.16055 154141.600583,-3535925.51907 178003.34894,-3535921.11726 179368.312781,-3543376.79386 180568.053223,-3549096.13681 178908.50507,-3557750.95025 188278.209497,-3568077.99785 189358.949135,-3569318.21487 192449.510722,-3572863.70675 192467.310091,-3572883.8554 193128.864491,-3573643.26613 193157.088948,-3573675.20858 193204.15225,-3573729.77567 206120.215004,-3588551.16429 205635.237222,-3590115.36509 204784.172162,-3592944.5322 204490.820438,-3593943.44511 204409.563925,-3594222.10873 204096.53208,-3595235.82376 204067.003458,-3595331.57967 203876.634657,-3595950.72537 201897.222469,-3602510.08068 201887.301912,-3602542.16751 201496.221741,-3603840.00659 199294.427777,-3611176.31572 199290.895651,-3611188.34533 198610.054144,-3613457.19149 196278.034403,-3621147.54263 194330.968865,-3627616.0486 194328.366242,-3627624.07305 193275.463311,-3631122.32325 191870.455491,-3635791.22622 191162.190722,-3638126.55376 189979.406116,-3642242.09497 188656.041757,-3646605.02811 188633.415182,-3646679.23375 187709.796435,-3649723.60464 186893.933283,-3652455.41476 186320.34072,-3654348.64179 185352.870763,-3657564.42897 185340.412599,-3657607.03922 185112.270128,-3658365.11765 184686.953907,-3659771.01732 184461.017571,-3660526.07041 184456.814705,-3660542.10341 184443.360705,-3660584.73185 184144.732194,-3661542.05542 183842.58672,-3662511.41396 183532.035426,-3663554.23425 183530.63759,-3663559.74482 183272.766975,-3664424.09389 183020.81497,-3665270.3871 182957.293883,-3665483.46642 182927.888263,-3665582.23432 182922.226163,-3665600.28844 182043.14591,-3668552.31641 181519.624892,-3670287.17361 181105.667472,-3671664.00945 180956.924497,-3672157.89176 180885.629143,-3672395.55223 180881.614852,-3672408.09162 180776.417318,-3672757.56969 180555.324986,-3673457.71644 180240.014457,-3674521.11251 179801.681054,-3675967.72838 179635.542858,-3676533.24575 179588.262191,-3676719.11288 179503.125335,-3676963.01064 179324.496079,-3677554.68713 179199.693577,-3677977.83386 179015.372544,-3678571.60988 178870.976423,-3679041.98867 178768.293318,-3679391.43084 177362.91738,-3684084.60674 177259.18158,-3684430.08531 176129.060696,-3684164.70243 175525.037306,-3684713.20702 175523.079069,-3684715.23719 168025.038806,-3691522.2307 167496.541896,-3692013.58839 167328.30127,-3692169.75058 166607.771628,-3692839.15581 166434.229098,-3692977.96037 166803.803251,-3693858.53249 167333.303134,-3694963.12559 168547.93241,-3697556.96988 168542.531383,-3699030.33415 168488.570415,-3701054.68398 168457.377805,-3701985.39161 168482.029724,-3702805.36057 168347.476667,-3703632.717 167987.738975,-3705977.83872 167747.788222,-3707491.88626 167646.710729,-3708143.08422 167639.468464,-3708333.73324 167643.666294,-3708522.67718 167634.759448,-3709304.85606 167687.477566,-3710197.62496 167725.202179,-3712070.17885 167766.924673,-3713396.54363 167806.947936,-3713525.98028 167850.807162,-3713592.50637 168579.920888,-3714530.73588 170735.672172,-3717389.81665 170989.658376,-3717723.78876 171247.862496,-3718804.259 171281.667438,-3718988.66213 171363.006507,-3719358.21346 171486.732961,-3719836.20455 171679.74686,-3720624.61795 171820.846762,-3721206.51772 171938.513329,-3721693.5925 172028.429252,-3722054.5035 172095.638847,-3722387.40465 172230.341144,-3722824.29258 172367.499153,-3723272.60452 172496.824802,-3723688.14456 172635.402257,-3724105.00952 172786.422851,-3724547.57722 172837.662614,-3724689.76342 172855.812366,-3724849.51434 172331.852688,-3727392.09637 171347.453302,-3731978.43735 171405.881997,-3732738.89139 171422.886789,-3733159.98861 171423.338683,-3733170.95192 171391.917813,-3733251.82498 171339.378107,-3733444.79974 171266.572456,-3733674.55515 170981.480041,-3734736.09836 170564.061602,-3736286.84042 170367.570695,-3736960.75015 169986.020722,-3738373.19802 169903.134083,-3738717.85104 169884.338571,-3738955.09021 169898.16079,-3739122.40333 170034.130255,-3739556.76044 170304.577714,-3740412.0338 170634.908136,-3741470.66534 170871.646231,-3742161.48083 171205.057706,-3743250.96482 171267.024858,-3743459.27338 171331.235126,-3743654.07485 171410.91688,-3743809.19063 171497.236481,-3743959.19581 171611.539168,-3744112.17206 171834.438656,-3744406.26057 172084.010922,-3744713.31754 172330.027232,-3744990.01808 172474.631557,-3745163.37478 172761.966744,-3745516.60483 172850.925764,-3745634.14204 173168.859057,-3746023.70498 173457.284875,-3746381.89738 173721.511861,-3746712.61066 173786.511089,-3746788.70062 173976.837744,-3747020.54773 174095.240409,-3747165.96073 174216.440666,-3747314.31358 174442.074731,-3747594.37449 174615.847443,-3747807.57637 174774.459338,-3747996.62355 174863.961857,-3748089.71047 175133.006302,-3748384.41989 175380.122717,-3748653.10525 175400.988881,-3748675.6568 175421.864324,-3748698.70685 175708.857023,-3749006.5439 175940.434729,-3749257.56291 176130.603658,-3749467.4619 176223.207437,-3749553.00841 176588.933832,-3749817.48499 176987.250164,-3750104.7911 177359.067468,-3750361.67028 177742.232117,-3750638.78233 178422.754376,-3751137.75009 178821.131002,-3751415.07191 179502.911696,-3751888.07535 179891.399975,-3752170.06411 180281.336639,-3752449.53048 180546.80928,-3752619.61376 180717.024532,-3752735.62169 180818.594658,-3752780.60243 180965.099693,-3752868.6279 181090.502256,-3752961.53473 181276.624152,-3753088.21553 181453.782305,-3753215.56176 181589.811038,-3753316.74687 181676.474172,-3753377.96208 181862.595568,-3753504.64149 181938.52058,-3753551.59546 182268.03958,-3753800.26451 182351.599903,-3753855.5529 182698.537523,-3754102.39902 182821.07656,-3754188.87379 183216.796494,-3754471.20934 183303.708248,-3754532.41806 183578.043949,-3754736.73334 183688.283919,-3754805.48465 183773.930674,-3754865.71914 183931.210756,-3754983.45752 184062.712486,-3755069.2643 184131.659992,-3755129.81017 184200.458567,-3755182.38027 184287.16209,-3755272.51367 184370.681353,-3755365.69831 184428.941548,-3755441.40299 184525.157667,-3755560.28021 184596.174863,-3755691.59552 184637.009182,-3755782.08625 184726.599949,-3755973.39125 184753.090337,-3756070.13354 184818.583315,-3756399.51615 184889.581692,-3756689.90072 184957.016669,-3757083.07366 185025.007353,-3757425.87204 185117.324821,-3757882.90484 185159.611152,-3758184.29635 186774.321796,-3764857.86758 186872.043536,-3765096.38059 186959.682215,-3765209.42418 187070.621974,-3765368.40414 187248.715045,-3765704.63746 187314.010707,-3765836.05071 187380.621585,-3765984.39295 187581.508337,-3766432.39068 187633.046634,-3766548.10495 187678.234884,-3766631.02807 187769.63193,-3766851.20675 187932.549208,-3767242.07247 188009.239764,-3767382.74414 188241.575264,-3767911.92276 188308.617757,-3768043.30076 188432.971975,-3768265.84953 188663.680543,-3768641.97343 188806.934085,-3768875.13552 188900.75578,-3769038.42014 188949.397246,-3769119.28186 189019.024742,-3769215.70523 189093.76862,-3769385.33164 189148.992349,-3769564.30036 189167.84531,-3769705.05948 189191.380661,-3769789.88338 189213.205914,-3769929.58924 189236.282928,-3770056.30701 189302.39483,-3770217.61818 189411.181347,-3770381.11807 189546.343358,-3770555.09129 189685.197028,-3770726.50144 189919.682317,-3771024.75842 190152.468567,-3771259.22135 190315.31002,-3771420.20548 190425.738865,-3771578.18681 190501.158322,-3771743.80779 190579.207877,-3771876.96814 190654.608943,-3772041.59179 190832.933169,-3772415.69525 190937.210969,-3772617.66996 191019.818245,-3772741.26941 191095.580322,-3772819.12394 191437.319902,-3773119.83943 191601.696065,-3773256.35731 191605.749393,-3773259.77131 191695.806145,-3773355.30616 191707.505252,-3773367.55131 191758.279249,-3773442.38541 191818.108685,-3773574.39055 191856.057998,-3773722.76388 191877.776404,-3773803.63022 192016.888382,-3773882.78243 192098.847652,-3773998.41395 192295.356304,-3774054.04576 192350.027767,-3774190.13613 192361.359199,-3774262.22265 192381.662681,-3774334.14001 192399.195849,-3774457.46761 192434.212965,-3774529.60611 192565.139089,-3774531.62505 192625.572283,-3774589.82141 192676.426822,-3774655.67763 192709.003338,-3774743.81776 192791.635821,-3774829.01938 192830.856829,-3774912.54648 192877.554114,-3775048.78619 192915.105935,-3775136.33359 192975.139339,-3775239.4127 193042.776434,-3775335.86621 193112.567515,-3775361.47514 193139.483018,-3775440.24776 193199.060527,-3775532.36549 193270.70883,-3775616.77612 193353.242897,-3775709.95638 193434.521489,-3775829.08828 193482.127317,-3775973.78624 193450.020688,-3776148.40952 193520.790004,-3776225.85552 193562.287883,-3776324.29713 193616.002547,-3776462.39744 193684.378503,-3776531.91042 193734.561458,-3776601.76673 193791.788438,-3776674.98031 193841.355277,-3776725.40209 193930.402994,-3776859.84315 193885.196546,-3776947.9543 193867.531132,-3777029.06355 193950.672254,-3777088.32495 193971.052748,-3777164.2283 193979.376678,-3777235.37313 194046.981967,-3777316.86671 194135.614951,-3777350.09612 194113.421816,-3777442.26031 194085.605645,-3777579.90469 194246.512542,-3777888.99849 194373.394092,-3778165.32706 194455.791734,-3778383.16046 194527.898696,-3778676.47862 194622.144022,-3778953.92106 194961.294163,-3780079.85883 195048.373424,-3780386.85282 195279.312864,-3780892.06538 195498.464129,-3781274.84091 195651.76003,-3781615.98084 195731.690931,-3781992.91255 195646.153017,-3782215.41573 195553.516366,-3782234.1221 195422.445398,-3782276.99079 195381.977458,-3782338.58742 195350.806029,-3782403.997 195301.398061,-3782520.11164 195274.055881,-3782537.5821 195236.867712,-3782561.72094 195168.119525,-3782604.40737 195084.235131,-3782650.87073 195032.912874,-3782758.04701 195058.264423,-3782925.10091 195080.459642,-3783004.45866 195127.550153,-3783108.27555 195193.21496,-3783218.72115 195230.709012,-3783395.0184 195237.443689,-3783474.1702 195280.783457,-3783656.33994 195342.397253,-3783789.79799 195380.703488,-3783877.32658 195435.660562,-3784027.86332 195470.980044,-3784102.48445 195512.224093,-3784174.00161 195546.703719,-3784270.07886 195551.487483,-3784404.11465 195544.556034,-3784511.94607 195528.969614,-3784584.04152 195610.740413,-3784689.19454 195664.372341,-3784782.91411 195651.393975,-3784887.36982 195695.685808,-3784961.8205 195777.841941,-3785060.98246 195777.277414,-3785162.70973 195726.912254,-3785215.02149 195645.274648,-3785287.87066 195548.245817,-3785351.03952 195491.614852,-3785427.90228 195383.528361,-3785512.72136 195299.118431,-3785557.70122 195237.387208,-3785602.25112 195144.959974,-3785697.74313 195059.120767,-3785746.24063 194982.02996,-3785769.64157 194891.859413,-3785813.23518 194799.152815,-3785841.41986 194714.108284,-3785892.39562 194638.204072,-3785886.35584 194511.987598,-3785948.58347 194433.349508,-3786021.87572 194310.761131,-3786065.08731 194225.939727,-3786140.99015 194157.103571,-3786192.15759 194077.26573,-3786307.35704 194039.750754,-3786445.68759 194038.108109,-3786569.37641 194072.735548,-3786659.9669 194094.510994,-3786743.32186 194075.944574,-3786815.97394 194051.204436,-3786891.7349 194042.221961,-3786970.18863 194089.266791,-3787045.08619 194124.020905,-3787129.19207 194136.745837,-3787221.69383 194167.682827,-3787314.84721 194208.03641,-3787431.25694 194313.704921,-3787508.0333 194389.552811,-3787511.08133 194499.243322,-3787602.73966 194534.007257,-3787687.3435 194569.184539,-3787767.45187 194620.488635,-3787830.30107 194733.977658,-3787872.52368 194825.787942,-3787862.80297 194892.149326,-3787891.46021 194959.292983,-3787935.06104 195062.623741,-3787967.50389 195183.412306,-3787987.14987 195389.508866,-3787969.77462 195544.900359,-3787986.7691 195684.048526,-3787949.22449 195831.149314,-3787923.49567 195990.499318,-3787899.5288 196085.655576,-3787882.26537 196154.855392,-3787902.89051 196383.71056,-3787902.53462 196401.549711,-3788014.88164 196364.230474,-3788150.21475 196352.621498,-3788234.70019 196374.155304,-3788449.69066 196424.131053,-3788534.50244 196438.424907,-3788604.53491 196444.415897,-3788683.70004 196497.527475,-3788762.96741 196497.335554,-3788844.74298 196477.966406,-3788875.02744 196470.947457,-3788886.13017 196453.754976,-3788912.88303 196463.484745,-3789031.36729 196517.514315,-3789080.20189 196547.206444,-3789173.37639 196545.863464,-3789260.15992 196582.076675,-3789381.63119 196582.443484,-3789453.42395 196568.570728,-3789549.91914 196566.483387,-3789623.75299 196578.513729,-3789745.1851 196468.708865,-3789818.07429 196380.301487,-3789875.59868 196334.61115,-3789950.75996 196265.16304,-3790008.92143 196167.512014,-3790039.19813 196045.246784,-3790151.71507 195970.881312,-3790252.85097 195837.503148,-3790252.89299 195699.011511,-3790272.47813 195623.761113,-3790300.83356 195549.883594,-3790362.07151 195487.504253,-3790398.65884 195390.82759,-3790440.8843 195330.298602,-3790561.70262 195231.568374,-3790613.93964 195220.806393,-3790690.43253 195162.090327,-3790762.35231 195096.401839,-3790808.47664 195030.45179,-3790867.07143 194961.425811,-3790921.23722 194861.210522,-3791013.39243 194726.795283,-3791103.20637 194624.361479,-3791170.47316 194563.830577,-3791212.51093 194473.452917,-3791245.14387 194396.918875,-3791310.92121 194341.599764,-3791364.82694 194343.163701,-3791447.06966 194400.378494,-3791492.85199 194503.333264,-3791544.74509 194513.679684,-3791616.84827 194462.011016,-3791679.16125 194462.379243,-3791750.95561 194516.388032,-3791864.11247 194546.574752,-3791943.81618 194605.922963,-3792010.001 194750.404112,-3792095.50831 194812.606294,-3792219.97708 194769.565973,-3792277.13989 194696.04084,-3792304.46693 194693.930965,-3792403.23381 194816.219722,-3792501.62827 195024.458494,-3792465.75452 195116.737438,-3792506.87988 195209.275028,-3792548.49887 195353.859642,-3792547.74219 195434.036243,-3792568.65433 195525.796518,-3792661.14675 195636.524126,-3792715.38325 195785.579404,-3792739.97056 195862.189125,-3792717.57084 195937.15601,-3792713.65113 196037.827504,-3792724.20068 196138.513581,-3792709.32063 196246.700214,-3792669.36722 196334.528599,-3792673.18057 196405.527582,-3792617.97934 196516.121706,-3792521.13858 196624.837487,-3792469.70734 196702.085692,-3792415.3847 196865.796624,-3792384.84604 196942.77123,-3792355.45923 197055.560979,-3792347.82838 197162.227211,-3792332.83493 197214.897728,-3792283.96635 197280.693846,-3792217.39682 197381.141643,-3792190.05664 197511.722514,-3792174.10973 197570.16214,-3792271.22324 197654.144835,-3792374.33248 197658.586535,-3792450.53467 197598.771922,-3792516.99033 197607.924619,-3792618.03323 197649.27155,-3792681.56655 197672.309571,-3792752.42876 197654.756224,-3792864.94924 197642.521179,-3793034.20967 197676.719014,-3793141.25767 197660.45763,-3793216.85679 197612.963753,-3793314.98923 197631.420583,-3793485.65995 197668.692047,-3793662.45428 197639.300816,-3793781.68235 197649.570361,-3793862.75972 197702.407937,-3793940.53339 197684.945963,-3794083.96609 197675.029487,-3794165.42788 197665.860711,-3794246.87546 197713.082989,-3794317.77542 197735.604735,-3794387.65 197726.300861,-3794475.08343 197655.284693,-3794529.28858 197637.62643,-3794649.29074 197667.019608,-3794726.51353 197623.630999,-3794869.94192 197523.841141,-3794866.35848 197395.270238,-3794791.52371 197287.742718,-3794800.5528 197198.517047,-3794841.14424 197113.376263,-3794926.03421 197084.978153,-3795018.81817 197070.203739,-3795093.89124 197023.866847,-3795161.08937 196927.029345,-3795207.80958 196760.79858,-3795289.25918 196663.038179,-3795405.30433 196543.519013,-3795413.0667 196508.788462,-3795487.52332 196443.378084,-3795548.10488 196342.179974,-3795588.42677 196220.247042,-3795639.61481 196171.753179,-3795763.69695 196142.356352,-3795869.46507 196075.120986,-3795952.02096 196046.229301,-3796018.88758 195928.774762,-3796056.52823 195817.274266,-3796027.24077 195715.315573,-3796027.6884 195613.737557,-3796100.42837 195551.728234,-3796169.42249 195464.085209,-3796253.8639 195500.40331,-3796315.00027 195542.945451,-3796414.91019 195477.816885,-3796451.05518 195380.001661,-3796433.47389 195274.660108,-3796426.50705 195193.096685,-3796437.53581 195094.436045,-3796545.62296 195051.496137,-3796647.16307 195047.337462,-3796755.94176 194989.479345,-3796820.36989 194918.010176,-3796824.7244 194844.164915,-3796822.14351 194826.457628,-3796900.26621 194781.827156,-3796965.43956 194670.39601,-3797031.38821 194595.241158,-3797064.73329 194527.090018,-3797177.72466 194461.256718,-3797242.30543 194357.022199,-3797319.58567 194311.411807,-3797398.73967 194270.230398,-3797474.81753 194204.304038,-3797521.4499 194053.629116,-3797529.80872 193950.790541,-3797628.00521 193808.302992,-3797686.56937 193735.289526,-3797753.78098 193693.841843,-3797815.90288 193615.560631,-3797855.29194 193573.116052,-3797917.43296 193463.249462,-3798026.23555 193389.82543,-3798019.65823 193246.169591,-3798003.9495 193152.742425,-3798046.61956 193117.782005,-3798122.08118 193062.940683,-3798200.91395 193049.385155,-3798274.47141 192977.851665,-3798314.72952 192844.94014,-3798365.6328 192766.485272,-3798409.01489 192710.995242,-3798466.91785 192615.355147,-3798498.16214 192570.781536,-3798566.32824 192539.548181,-3798654.18521 192429.587831,-3798745.0405 192292.684311,-3798756.62849 192229.568951,-3798846.09146 192278.016102,-3798967.83125 192367.627503,-3798999.52957 192437.753476,-3799016.14203 192472.306758,-3799102.24501 192475.271215,-3799218.37035 192510.994676,-3799300.46184 192557.360648,-3799365.39654 192533.987158,-3799460.0847 192534.408088,-3799534.37325 192554.887304,-3799640.69013 192565.878773,-3799733.22636 192527.215343,-3799836.68337 192488.460348,-3799909.22682 192477.508817,-3800014.64801 192472.141601,-3800151.37663 192489.324388,-3800254.76469 192493.807941,-3800345.92938 192458.327197,-3800524.62 192454.364141,-3800630.40652 192457.303376,-3800732.07212 192399.356351,-3800896.23313 192371.883858,-3800972.05207 192351.859662,-3801046.23286 192363.519009,-3801173.66112 192348.547668,-3801316.55733 192335.673523,-3801477.86311 192307.433098,-3801565.66429 192245.388167,-3801619.70554 192248.41544,-3801634.60682 192262.843808,-3801698.15671 192263.150192,-3801701.14268 192234.890863,-3801787.94708 192268.057866,-3801944.88275 192336.732338,-3802002.90803 192411.368765,-3801981.53595 192476.162938,-3801940.90518 192551.423099,-3801913.03897 192622.324026,-3801865.8093 192716.979212,-3801809.15024 192811.540915,-3801812.82792 192893.097026,-3801879.58214 192943.644275,-3801941.44398 192986.589392,-3802009.93332 192987.701164,-3802094.18131 193096.362251,-3802105.06868 193161.562098,-3802033.51498 193223.865005,-3801979.96754 193270.678299,-3802003.00711 193317.482052,-3802025.5482 193356.217377,-3802108.57808 193318.477919,-3802286.31426 193321.736224,-3802378.49911 193385.902365,-3802461.54131 193462.548871,-3802545.34205 193537.332204,-3802662.08804 193547.155091,-3802771.59934 193567.935854,-3802867.43801 193595.904724,-3802974.1091 193657.333875,-3803018.30982 193680.322469,-3803086.18275 193751.286202,-3803159.62028 193901.989436,-3803165.71319 194002.08641,-3803211.16856 194086.873119,-3803277.36053 194166.790836,-3803245.41543 194240.521577,-3803254.97496 194311.859618,-3803321.9226 194440.435819,-3803357.35886 194479.470174,-3803429.91056 194572.19196,-3803415.67107 194681.679632,-3803391.63695 194773.221872,-3803380.91045 194857.3229,-3803398.24941 194976.592768,-3803416.41141 195064.547696,-3803426.6958 195191.154048,-3803502.55787 195278.783309,-3803508.85936 195457.897541,-3803592.69176 195575.454116,-3803677.70167 195706.652252,-3803745.9958 195801.178033,-3803800.0328 195814.539302,-3803807.75509 195851.34509,-3803828.99018 195935.83185,-3803814.40929 196036.888564,-3803831.92174 196142.152078,-3803860.82191 196289.891308,-3803855.5016 196281.683978,-3803778.37251 196358.47732,-3803622.33083 196483.696985,-3803651.84645 196586.569394,-3803620.9581 196715.707446,-3803568.62526 196832.256734,-3803548.94353 197000.304273,-3803562.681 197073.502777,-3803505.43533 197169.395287,-3803487.64478 197214.95425,-3803484.27997 197260.25444,-3803480.42149 197359.24103,-3803481.02052 197488.401736,-3803482.0394 197627.877988,-3803461.91908 197715.216622,-3803479.1952 197792.17647,-3803475.22951 197866.002618,-3803463.8446 198106.709294,-3803522.56231 198347.664702,-3803581.27492 198474.756458,-3803656.62592 198574.649318,-3803691.6113 198675.740475,-3803724.08062 198763.616109,-3803730.37655 198844.446938,-3803733.31702 198917.107364,-3803778.29691 199004.868331,-3803778.61164 199117.924852,-3803771.96033 199206.050519,-3803765.28758 199330.78644,-3803808.77191 199498.72283,-3803842.95294 199574.951661,-3803852.96177 199726.883283,-3803858.5299 199793.386684,-3803829.33514 199865.025732,-3803820.98344 199972.528433,-3803849.8391 200067.35111,-3803867.46954 200141.175611,-3803856.08437 200220.397958,-3803827.14482 200297.240328,-3803830.16134 200367.777241,-3803816.34612 200450.400164,-3803808.78136 200455.87322,-3803808.178 200567.863385,-3803811.02031 200593.336947,-3804178.0009 200735.65994,-3804450.00441 200849.110261,-3804646.27451 200876.384639,-3804820.76052 200938.686698,-3805066.87246 201085.815541,-3805316.34514 201168.517452,-3805534.14409 201288.681545,-3805833.49361 201426.026064,-3806079.66193 201548.152811,-3806286.23357 201811.679167,-3806755.34743 201897.819923,-3807061.3297 201942.614497,-3807330.21123 201987.18991,-3807587.62913 202093.842729,-3807936.09634 202190.449288,-3808124.70655 202298.649026,-3808202.90447 202388.899869,-3808424.04474 202481.949815,-3808648.12255 202590.355294,-3808866.91935 202703.625073,-3808962.46968 202798.998127,-3809112.71003 202800.86694,-3809119.15587 202841.779141,-3809276.42462 202907.373654,-3809394.8277 202991.694961,-3809579.68255 202944.064002,-3809721.69901 202965.63384,-3809923.21511 202987.743369,-3810023.00777 203043.194878,-3810275.22816 203076.816039,-3810377.29257 203149.705236,-3810524.97175 203291.91125,-3810699.24021 203528.354381,-3810899.61863 203893.991341,-3811012.25453 204142.714332,-3811034.39875 204570.650599,-3811081.01957 204703.733579,-3811078.96057 204792.045679,-3811147.06535 204912.235061,-3811330.2291 205099.219361,-3811590.38623 205275.296944,-3811827.81731 205383.707878,-3811968.8264 205608.542882,-3812136.01564 205732.615211,-3812287.69158 205889.227309,-3812459.18316 206095.411052,-3812680.57593 206091.856251,-3812858.63764 206010.512788,-3812945.45988 205946.555901,-3813054.88253 205913.633843,-3813157.72521 205918.073352,-3813336.63074 205947.346736,-3813510.57117 206000.369379,-3813571.37497 206072.090971,-3813593.42806 206136.662691,-3813632.57047 206172.42451,-3813755.03177 206114.976044,-3813839.89915 206083.731827,-3813926.25658 206079.622972,-3814088.37479 206143.31454,-3814198.33247 206211.252177,-3814308.70687 206267.045788,-3814396.87879 206327.890897,-3814501.40653 206351.921952,-3814610.13309 206363.217232,-3814795.38779 206392.251415,-3814892.052 206479.732053,-3814981.60759 206587.827814,-3815028.38664 206758.642565,-3815005.15361 206940.633999,-3815031.56322 206977.028269,-3815096.17604 206994.915614,-3815183.58133 206958.49732,-3815273.02982 206931.224268,-3815410.16581 206932.492061,-3815488.91688 206921.724359,-3815641.68956 206924.571611,-3815660.08214 206935.337896,-3815740.14598 206946.065834,-3815818.21623 206982.520241,-3815937.67142 207046.088221,-3816028.18506 207061.6573,-3816124.60937 207027.866248,-3816220.98778 207024.57283,-3816308.80122 207005.957172,-3816688.08055 206994.661896,-3816994.42643 207014.429187,-3817075.81247 207052.396913,-3817144.38306 207082.227657,-3817217.59772 207120.301184,-3817291.65057 207200.470541,-3817376.85752 207247.476812,-3817448.74366 207260.544982,-3817531.7544 207278.196324,-3817645.58867 207349.377814,-3817768.86062 207361.172927,-3817876.32622 207353.423516,-3817952.75833 207409.238604,-3818028.96145 207459.024156,-3818089.82485 207483.748212,-3818182.58215 207502.049325,-3818252.52871 207528.556372,-3818347.24587 207557.642021,-3818446.40046 207553.872278,-3818548.18329 207544.746187,-3818669.51409 207564.143214,-3818783.31439 207664.177841,-3818941.92626 207679.060785,-3819054.31782 207638.794437,-3819163.78523 207590.427879,-3819253.9645 207549.641221,-3819323.55578 207550.35694,-3819412.28915 207512.115248,-3819549.13972 207472.275631,-3819719.42617 207455.222684,-3819817.4772 207438.926027,-3819903.04916 207421.79932,-3820036.00239 207370.794644,-3820208.99784 207280.877879,-3820393.71385 207222.385913,-3820540.42957 207214.486912,-3820750.984 207201.520542,-3820879.86883 207171.989397,-3820977.16443 207116.558618,-3821050.03129 207071.737479,-3821117.20884 207077.642052,-3821229.27612 207082.453653,-3821336.37869 207065.451424,-3821449.88579 206991.93168,-3821592.90443 206896.681073,-3821707.92391 206854.233505,-3821936.5978 206773.782201,-3822056.31763 206763.858429,-3822213.56411 206661.878445,-3822315.75135 206543.47307,-3822445.18005 206504.703323,-3822541.65842 206563.306389,-3822658.69074 206519.8186,-3822730.33103 206451.873294,-3822826.37653 206449.082432,-3822901.21877 206416.823936,-3823024.99395 206371.315157,-3823108.14117 206358.794785,-3823259.95443 206305.379165,-3823346.74488 206265.057023,-3823440.26246 206199.122563,-3823601.58522 206187.63528,-3823729.4466 206187.185081,-3823731.94826 206182.015561,-3823786.89324 206201.309406,-3823869.28607 206212.014743,-3823945.86194 206211.473497,-3824072.51448 206212.778329,-3824165.72574 206243.765707,-3824246.89509 206317.381365,-3824289.34667 206348.272389,-3824365.53188 206349.672396,-3824450.76377 206427.524321,-3824570.41468 206463.457463,-3824649.49372 206485.945015,-3824742.29487 206504.561187,-3824841.15402 206539.553992,-3824910.27934 206605.545953,-3824996.75382 206685.196075,-3825157.75224 206742.406986,-3825305.72297 206828.437471,-3825512.96629 206918.518315,-3825543.13179 207028.611338,-3825641.21634 207161.928289,-3825741.34388 207235.103697,-3825786.79405 207328.571351,-3825773.01786 207448.64364,-3825742.77169 207474.99214,-3825816.05223 207475.009831,-3825945.68441 207466.433674,-3826030.61026 207498.7722,-3826168.59101 207520.359077,-3826253.43121 207592.278395,-3826362.72425 207650.339618,-3826412.95386 207727.668301,-3826479.76206 207775.145073,-3826575.56792 207865.126904,-3826652.10246 207942.646899,-3826715.91512 207994.698423,-3826764.76505 208053.088062,-3826831.93975 208014.744114,-3826924.42241 207953.066287,-3827047.77107 207972.795544,-3827139.62704 207932.923836,-3827269.0349 207908.266834,-3827360.25545 207976.708445,-3827534.43108 207964.871536,-3827721.13173 207957.61718,-3827912.72951 207974.778555,-3828064.96422 207965.843221,-3828169.84066 207944.53082,-3828253.51792 207927.989841,-3828326.13378 207928.33525,-3828446.78515 207911.47422,-3828554.3084 207863.17329,-3828647.48387 207811.316985,-3828801.55615 207751.419781,-3828900.93986 207718.419119,-3829011.76809 207702.310563,-3829145.20381 207654.593204,-3829229.89251 207626.397545,-3829357.08125 207627.122005,-3829445.81615 207590.964064,-3829586.62147 207535.02782,-3829697.39672 207449.623292,-3829779.82568 207366.557698,-3829918.55023 207339.853333,-3830019.78398 207328.783371,-3830130.18761 207290.482769,-3830237.62968 207222.379724,-3830325.20804 207195.150583,-3830437.91994 207172.949011,-3830578.45555 207097.599877,-3830665.17777 207049.123587,-3830736.42059 207027.974951,-3830815.60902 206989.256342,-3830888.65691 206891.658007,-3830959.35789 206868.140839,-3831032.11078 206876.311284,-3831106.24281 206873.756387,-3831231.43982 206800.701105,-3831333.57477 206770.634774,-3831441.35677 206746.774344,-3831522.09413 206671.179249,-3831724.49673 206622.011958,-3831888.49297 206585.149785,-3831992.91727 206562.979018,-3832134.94969 206533.503498,-3832221.77976 206464.866653,-3832320.33988 206465.421752,-3832413.06843 206412.367475,-3832595.09064 206402.052757,-3832731.40864 206366.836216,-3832817.85208 206322.872893,-3832877.54119 206270.361717,-3832946.37127 206181.078119,-3833085.72018 206150.321047,-3833183.54513 206188.262168,-3833250.11881 206247.56292,-3833338.21571 206273.755381,-3833415.98688 206334.732882,-3833500.56083 206395.025215,-3833562.711 206564.526292,-3833664.12172 206589.591988,-3833760.8613 206538.291503,-3833840.63748 206470.794021,-3833972.08451 206460.260924,-3834020.15496 206459.361015,-3834025.15847 206443.829998,-3834098.25615 206494.136835,-3834300.70689 206493.266351,-3834396.95375 206491.946015,-3834495.70238 206488.424544,-3834609.45188 206471.132959,-3834694.5504 206434.187174,-3834756.09841 206375.175492,-3834811.09529 206298.285896,-3834856.96656 206156.689666,-3834908.58405 206091.839432,-3834958.21009 206060.023189,-3835027.13769 206115.509076,-3835149.7119 206244.367793,-3835314.73549 206241.318575,-3835478.33663 206220.84609,-3835566.48918 206224.905662,-3835672.61271 206246.354655,-3835788.36991 206254.401782,-3835894.41585 206233.628264,-3836005.5102 206167.181939,-3836114.00339 206130.980745,-3836200.96661 206086.257472,-3836323.99535 206037.725699,-3836392.2518 206007.41169,-3836487.07835 206024.097562,-3836601.43277 206143.337789,-3836694.84342 206257.083353,-3836698.1134 206365.604773,-3836740.37617 206384.66345,-3836835.73705 206312.492805,-3836931.87721 206273.017207,-3836991.48128 206234.952419,-3837097.9268 206217.076559,-3837255.33559 206223.791683,-3837395.31293 206247.016369,-3837474.13884 206288.54325,-3837647.84186 206307.18531,-3837760.16355 206333.141871,-3837838.43755 206324.75978,-3838009.62259 206331.919099,-3838082.77815 206332.553473,-3838089.74627 206332.307551,-3838102.71481 206331.149244,-3838184.01014 206371.055876,-3838351.26272 206351.252378,-3838422.45069 206258.097222,-3838465.15179 206131.41838,-3838489.06058 206015.549173,-3838504.781 205938.641173,-3838588.05151 205941.703997,-3838719.62443 205904.468988,-3838804.61499 205815.307559,-3838873.16641 205761.530539,-3838928.06439 205711.288076,-3839010.81569 205750.162858,-3839112.27296 205778.3246,-3839188.5099 205782.457012,-3839374.90945 205641.801161,-3839321.3086 205570.7601,-3839334.66018 205504.163606,-3839409.75294 205435.420788,-3839451.48066 205289.484112,-3839510.66897 205177.89332,-3839579.65867 205099.149833,-3839645.51502 205026.565777,-3839733.1904 205019.0054,-3839741.81425 204991.217146,-3839774.26736 204956.863265,-3839879.14763 204878.825001,-3839930.03215 204828.922074,-3839991.83628 204739.20886,-3840006.54964 204609.034243,-3840119.78082 204549.301493,-3840163.32805 204483.189852,-3840224.94995 204360.837867,-3840343.01529 204332.461783,-3840434.81582 204283.704965,-3840517.04153 204203.427821,-3840619.32825 204089.979462,-3840733.73041 204047.103072,-3840797.89146 203973.247183,-3840897.06168 203887.564055,-3840965.04963 203851.947687,-3841043.52932 203791.914314,-3841110.01986 203684.800673,-3841255.21403 203576.12006,-3841383.98454 203231.814734,-3841792.59363 203162.631977,-3841875.71822 203100.090562,-3841954.22568 203016.618491,-3842046.10601 202901.422869,-3842185.97519 202797.411497,-3842285.73617 202646.54081,-3842398.87767 202548.127403,-3842466.11892 202427.700195,-3842580.66119 202340.164755,-3842643.20272 202273.581735,-3842667.93804 202157.231629,-3842761.45871 201885.808246,-3842957.2347 201728.94543,-3843069.99635 201639.645476,-3843131.57581 201529.644307,-3843205.52677 201479.35541,-3843260.36119 201373.61843,-3843297.33005 201271.01799,-3843341.71727 201198.404259,-3843364.07771 201118.761419,-3843409.51272 201044.025145,-3843450.86289 200986.94861,-3843502.83836 200902.235253,-3843582.27997 200774.070916,-3843696.4776 200697.578045,-3843762.79437 200566.362395,-3843899.49085 200515.058648,-3843991.74397 200460.92198,-3844066.60008 200404.16065,-3844147.49123 200281.155732,-3844398.21741 200162.555263,-3844568.07801 200065.6393,-3844648.25815 199968.146922,-3844724.46054 199521.099763,-3845081.24849 199434.329601,-3845144.77596 199352.659027,-3845239.61872 199297.618777,-3845306.51566 199100.865859,-3845572.64947 198999.288392,-3845707.77393 198708.763042,-3846023.61258 198609.728177,-3846135.75031 198288.154592,-3846636.20192 198103.275896,-3846923.0526 198095.378221,-3847016.45574 198005.185049,-3847376.75359 197913.019411,-3847623.39689 197942.980811,-3847727.52912 197924.738463,-3847814.65243 197885.814021,-3847915.14544 197821.31297,-3847982.72869 197739.941968,-3848054.63127 197737.73786,-3848056.66903 197735.304018,-3848059.70859 197686.700901,-3848111.52259 197671.25338,-3848214.05004 197545.063363,-3848301.7895 197500.538914,-3848396.40877 197439.431656,-3848522.76824 197370.736886,-3848605.39408 197332.976599,-3848688.91077 197273.514385,-3848746.42305 197180.755346,-3848847.97057 197092.15298,-3848881.61869 197098.008093,-3848989.71414 197045.904875,-3849066.53062 196988.549176,-3849117.02075 196915.779783,-3849169.80722 196822.379774,-3849162.16033 196748.925061,-3849116.22451 196665.253929,-3849134.31777 196586.405025,-3849182.23666 196490.982934,-3849262.39461 196585.573363,-3849330.85556 196547.840521,-3849466.7327 196526.021857,-3849549.43979 196470.414162,-3849638.29361 196465.278615,-3849758.07437 196362.466492,-3849868.29778 196284.300547,-3849951.11084 196185.772221,-3849974.48229 196126.146649,-3850087.35147 196014.806143,-3850207.71593 195892.431488,-3850299.37374 195821.225326,-3850355.62162 195666.052066,-3850491.30638 195598.154238,-3850550.98044 195514.112826,-3850664.82739 195428.400979,-3850744.29873 195346.550065,-3850817.21183 195231.731525,-3850861.84743 195061.043529,-3850905.58237 194977.493265,-3850917.19188 194885.419184,-3850951.90743 194796.613111,-3851038.92014 194764.712558,-3851128.80808 194181.099383,-3851006.09117 193518.140727,-3850867.97015 193040.169966,-3851505.67104 192547.825611,-3852160.61509 192408.59846,-3852372.29322 192237.867322,-3852630.46873 192098.102798,-3852840.16399 191958.856389,-3853050.84711 191819.140865,-3853263.03612 191668.33106,-3853494.39358 191250.856702,-3854139.91018 190821.291895,-3854804.62017 190616.76105,-3855119.32182 190499.161652,-3855302.15837 190252.780811,-3855682.51461 190006.170562,-3856063.87474 189493.748575,-3856851.91325 188974.016299,-3857648.58191 188585.724047,-3858230.72401 188191.606636,-3858820.96474 187679.516171,-3859613.01644 187167.426875,-3860405.07668 186365.67013,-3861633.24383 185752.309773,-3862575.94056 185685.271408,-3862679.49978 185354.124918,-3863085.99989 185121.809951,-3863369.86337 185120.343731,-3863371.38844 185022.220551,-3863492.0188 184096.313986,-3865114.69745 183308.7728,-3866253.88597 182918.372767,-3866905.96475 182581.11179,-3867419.8437 181666.477492,-3868803.97295 181434.629947,-3869162.16731 181219.942928,-3869416.78033 181056.46627,-3869751.68388 180770.011731,-3870337.90014 179662.136037,-3871900.46906 179652.918748,-3871913.61917 179537.413992,-3872076.00634 179133.66404,-3872670.54026 178771.559439,-3873214.37854 177646.12906,-3874961.41267 177315.687681,-3875542.55076 177065.508529,-3875843.77854 176498.025855,-3876709.43497 176317.407709,-3876984.35288 176187.102561,-3877243.31303 175849.629728,-3877620.09746 175240.685274,-3878659.18302 175013.670324,-3879009.34876 173582.641852,-3881168.10951 173553.573292,-3881211.58356 173003.013593,-3882050.03158 172237.790369,-3883219.97362 171208.454258,-3884806.2102 171187.625485,-3884837.55098 170137.482358,-3886456.1609 166272.859531,-3892338.10019 166264.131101,-3892350.74544 166144.774893,-3892532.71154 163464.810677,-3896648.90772 161436.767437,-3899730.57715 160885.067279,-3900561.7742 160405.068412,-3901310.72751 160396.848617,-3901323.8631 160107.001938,-3901775.67036 159264.039137,-3903050.25181 159171.766519,-3903189.29555 159163.297366,-3903202.43644 158625.432594,-3904014.43718 158105.023927,-3904813.62531 157248.024142,-3906122.46681 156696.231794,-3906986.66742 156272.714595,-3907628.2817 156215.315928,-3907714.74736 156120.140265,-3907858.3483 154716.474587,-3910000.93979 153130.28568,-3912435.645 153119.891232,-3912452.31877 152996.684145,-3912641.39652 149311.434153,-3918238.8809 148506.488777,-3919494.01968 147687.02511,-3920697.0742 147042.982675,-3921689.54104 147011.769132,-3921738.07203 146861.217765,-3921969.63852 145442.678395,-3924143.37151 144264.516624,-3925936.56927 143459.891893,-3927183.34532 142633.725177,-3928426.08293 142102.140795,-3929241.22525 141868.653603,-3929530.37442 141329.906842,-3930374.11889 141269.911902,-3930455.67238 141266.759548,-3930460.22722 141253.192514,-3930480.46208 141184.629093,-3930582.6492 140291.258746,-3931921.11684 139363.272238,-3933337.6603 138412.069344,-3934791.12985 137183.575442,-3936676.42686 136356.23712,-3937948.79088 135567.729949,-3939142.03545 134799.012641,-3940376.32598 134471.24118,-3940866.56321 134458.641465,-3940885.28404 134346.740713,-3941053.74155 130748.203907,-3946557.74137 125220.483408,-3955011.28778 123720.912014,-3957331.86653 123472.022473,-3957774.19236 122340.36501,-3959453.92001 122337.691171,-3959457.46852 119354.852709,-3963883.96367 118661.045686,-3965011.79222 117817.773502,-3966290.43876 117318.235322,-3967064.3962 115303.69901,-3970128.6822 114148.814059,-3971885.03914 112594.454605,-3974291.61164 112591.790688,-3974295.65993 112480.944775,-3974467.66414 110214.505049,-3977965.75295 107676.322224,-3981669.24494 105747.817955,-3984699.4004 105739.107509,-3984713.05949 105236.106118,-3985503.2483 103181.295112,-3988819.25398 102987.361797,-3989080.36746 102589.48468,-3989613.78667 102527.849159,-3989615.53966 102204.422343,-3989611.13162 101856.893123,-3989600.22195 100617.127609,-3989559.01218 99902.0740969,-3989536.5924 99892.0705158,-3989535.79696 98486.8220072,-3989522.90164 96555.744229,-3989573.10568 95171.9175189,-3989559.24753 92204.1874705,-3989530.05884 91998.6383202,-3989527.73441 91992.1386961,-3989527.36679 91971.152366,-3989526.7935 91922.440595,-3989525.78355 86918.5941602,-3989424.90023 86419.0905124,-3989420.52855 85575.1450004,-3989411.63924 81169.3568276,-3989332.4298 80947.2778966,-3989328.42734 77190.3113309,-3989319.40073 75820.4686888,-3989314.08233 75564.5844386,-3989318.24625 73123.3129607,-3989358.49276 70626.8848598,-3989340.37884 70377.8710277,-3989338.90228 67375.1156328,-3989317.45149 64988.2570669,-3989263.08016 62618.8649257,-3989259.26949 61297.1910308,-3989270.84234 60450.8172815,-3989284.34743 56974.1025864,-3989312.68286 56906.6762004,-3989313.03671 56744.9740315,-3990128.98236 56422.9452436,-3994067.6451 56350.3681024,-3994880.83108 56241.2750079,-3996113.86115 56249.5540767,-3996115.69285 56231.3324033,-3996252.9305 56140.060352,-3997638.97176 56101.4140042,-3998201.22783 55825.0108877,-4002202.64277 55749.4713107,-4004628.00433 55738.3061603,-4004966.43103 55735.4155924,-4005070.89735" style="stroke-linejoin:round;stroke:#000;stroke-width:1px;fill:none" /></g></g></svg>