<svg xmlns="http://www.w3.org/2000/svg" baseProfile="full" height="481618.224287" version="1.1" viewBox="-162168.974730,3211076.724533,409984.526504,481618.224287" width="409984.526504"><defs><style type="text/css">polyline,line,rect,path,polygon,.polygon{fill:none;stroke:#000;stroke-width:1px;stroke-linejoin:round;}</style></defs><g fill_rule="evenodd" transform="scale(1,-1)"><g class="id" id="46"><polygon class="_46" id="None" points="210238.692162,-3616743.56886 210143.476966,-3621567.32917 210141.724337,-3621625.28631 209866.386656,-3634565.08505 209817.833937,-3635941.52935 209825.22295,-3636179.12079 209667.578081,-3642389.53518 209545.704878,-3649756.14445 209532.708264,-3650522.35331 209393.059998,-3658600.91619 209329.659505,-3661444.7149 209232.237742,-3665808.95108 209176.234744,-3668311.98271 208946.995038,-3677586.31535 208933.013772,-3678149.60693 207930.274452,-3678666.31496 207933.282726,-3679099.89517 207432.855895,-3679296.26076 206720.201282,-3679475.95578 205644.792028,-3679639.87494 203986.299512,-3679892.7076 203809.561726,-3679920.15183 203695.491417,-3679938.1795 197703.602264,-3674729.08153 189581.34315,-3679999.41394 188857.513138,-3680575.87761 187037.933281,-3684437.59655 180673.087755,-3681478.97045 179830.220539,-3682714.38903 178085.743612,-3682789.46837 176973.125961,-3682833.05671 176905.772016,-3682537.85296 167875.706064,-3685063.75881 166999.318664,-3685308.94015 164530.205753,-3688566.56385 162467.197006,-3691317.25908 162118.991831,-3691212.13591 159464.678375,-3690411.43959 157587.826418,-3689876.40324 157234.719257,-3689837.19382 153641.093061,-3689206.93002 149338.40353,-3687981.53571 145610.183446,-3687148.22378 142123.625096,-3686380.61344 139905.618963,-3685463.34743 137944.292136,-3684934.63292 135896.737687,-3684701.89812 135551.053266,-3684272.74726 135073.110053,-3684083.77495 134630.462429,-3684118.44346 134299.510139,-3684029.57861 133878.338695,-3683938.61588 133544.429864,-3683889.70044 133215.218283,-3683490.84223 132880.153709,-3683464.90701 132544.357273,-3683437.95812 132208.614219,-3683408.00934 131874.209684,-3683373.0833 131715.817373,-3683352.27589 131542.19659,-3683330.19847 131211.860591,-3683277.34209 130882.96952,-3683213.51 130553.453054,-3683142.66581 130224.043325,-3683065.82258 129895.543347,-3682979.99437 129569.720451,-3682884.21247 129250.109251,-3682776.53948 128937.01291,-3682653.98066 128634.180523,-3682516.60257 128343.218123,-3682358.43346 128064.125752,-3682179.47345 127793.61882,-3681981.66453 127530.573477,-3681771.98728 127271.419708,-3681554.37864 127013.587232,-3681332.79327 126754.202624,-3681114.18058 126491.962995,-3680901.51755 126223.798185,-3680698.74986 125950.279014,-3680501.88739 125672.708371,-3680307.95309 125395.656011,-3680113.02788 125122.406532,-3679915.16997 124791.917635,-3679660.29378 124596.74109,-3679500.82314 124349.680129,-3679278.42919 124127.253476,-3679034.47195 123942.955807,-3678755.19077 123778.990209,-3678457.27042 123615.524926,-3678159.35944 123435.566278,-3677875.15647 123253.376541,-3677589.91427 123065.350239,-3677309.56897 122860.29535,-3677044.922 122628.554963,-3676804.8019 122384.373543,-3676575.46122 122133.570422,-3676353.00316 121358.117712,-3675871.22226 121338.827873,-3675859.37944 121192.018346,-3675693.76952 120835.857185,-3675266.43809 120675.607287,-3675111.58984 120109.316512,-3674565.02521 119632.505625,-3674076.05158 119199.966331,-3673557.86573 118857.485598,-3672994.28217 118643.352158,-3672368.98246 118506.163936,-3671704.55337 118365.539367,-3671036.56591 118165.267698,-3670391.02041 117950.04521,-3669728.71212 117683.166161,-3669103.4871 117099.838424,-3668377.64283 116291.416375,-3668332.7717 115683.92333,-3668277.47103 115097.454416,-3668150.54537 114373.049051,-3667809.67354 113814.52974,-3667418.75437 113559.376132,-3667189.22536 113205.591367,-3666840.94738 112956.575469,-3666252.54739 112831.562187,-3665579.36111 112677.454127,-3664644.67637 112518.000676,-3664277.363 112355.042706,-3663671.5046 112146.103992,-3663078.82921 111888.364962,-3662643.77541 111714.580337,-3662140.72205 111468.747592,-3661542.39593 111178.605388,-3660975.78066 111034.00318,-3660406.2575 110563.416614,-3659795.43883 110225.816673,-3659240.98339 109789.119548,-3659029.73151 109120.481642,-3658914.8404 108288.277828,-3658411.57519 107948.264929,-3657965.06826 107914.562699,-3657920.47294 107538.252084,-3657252.34552 107545.44645,-3656413.06993 107483.396033,-3655630.05822 107350.337629,-3654791.79253 107314.069008,-3654006.74703 107085.012922,-3653562.22733 107001.544063,-3652971.3205 106824.775334,-3652327.76197 106690.356456,-3651734.45255 106453.393727,-3651102.32534 106046.983632,-3650932.1151 99167.5458207,-3650820.03495 98039.3293692,-3650226.00514 97576.8513313,-3649276.41507 96617.8046287,-3648503.9376 96527.1741551,-3648091.89451 96267.3209743,-3647399.88424 95936.298195,-3647236.50725 95692.8350586,-3646788.74656 95155.655274,-3646216.26898 94434.3611445,-3645834.46884 93984.1600768,-3645234.55162 93419.3691418,-3644585.10079 92945.0513564,-3643908.27317 92504.4050535,-3643137.56946 91824.4265618,-3642542.55735 91335.2513104,-3642152.40826 90851.1284529,-3641563.39471 90397.3129805,-3641054.90581 89937.2619282,-3640517.81353 89626.5849273,-3639551.99259 89444.2833956,-3638745.43094 89280.471704,-3638051.17538 89167.4876088,-3637239.85944 89042.5284812,-3636581.2943 88964.6847549,-3635915.57458 88919.4286529,-3635244.44034 88881.4531845,-3634571.4388 88831.1983406,-3633900.21981 88776.4096854,-3633230.92161 88725.3591367,-3632562.1922 88675.066274,-3631892.97865 88621.7833274,-3631223.21409 88601.7643558,-3630986.42323 88596.7841752,-3630929.3504 88564.9927937,-3630553.88902 88509.441837,-3629885.08812 88479.6241824,-3629202.75242 88446.7717466,-3628522.3642 88376.4684425,-3627853.80663 88297.9534326,-3627463.52184 88115.9711828,-3626904.94282 87441.9429549,-3625474.35599 87439.5336178,-3625469.31457 87445.3067475,-3625467.91797 84204.2391938,-3620078.35505 85050.0357036,-3612317.18804 88133.7615352,-3588848.68346 88618.8037323,-3585155.47697 84332.5888158,-3578290.76682 84327.975472,-3578283.18878 84325.5483284,-3578279.14775 84452.1533606,-3577578.74101 86899.7451464,-3564047.57212 86855.3774164,-3564027.29821 86917.8235613,-3562063.45644 86242.3242848,-3560104.57691 85688.7258085,-3558656.58578 85311.1423091,-3557668.95853 84522.4598142,-3555511.72672 83661.3836416,-3553845.95482 82464.0290397,-3552178.75507 81042.1575695,-3550633.53119 79155.0981482,-3549695.24061 77098.889942,-3548673.01392 75009.7607457,-3546743.263 73517.1120246,-3543960.10446 70956.0681444,-3540544.51247 70260.3604318,-3538260.19062 69622.6766688,-3535717.08205 69596.5454358,-3535612.18924 69537.2571821,-3535375.79712 69531.6889674,-3535365.70542 66960.0605975,-3531588.31677 64945.5523224,-3528945.55631 64196.7805204,-3528309.78032 64170.6855612,-3528287.83498 62338.6447113,-3526732.08716 60476.0110766,-3525353.69119 58299.807481,-3524148.65386 55063.6864493,-3522189.97513 53795.1497473,-3521124.87523 51472.773182,-3519429.16352 48909.9816518,-3517626.81485 47257.2096062,-3516324.15748 45067.0836937,-3514597.86634 44030.6539389,-3513746.25453 41786.4260961,-3511902.13893 41027.4745035,-3511181.83211 40865.8472119,-3509834.5563 41097.8240897,-3507980.62371 40422.4857613,-3503813.58317 39730.4347149,-3500722.41609 38667.6679858,-3499166.49834 36681.0273279,-3497547.40485 34731.1921617,-3495340.97498 32861.7009767,-3493410.25669 32127.7819367,-3492886.30897 31441.4371579,-3492284.76627 29267.5235028,-3490607.52895 27792.0738294,-3489282.7737 20133.8381414,-3482407.03335 15235.0761723,-3478502.76536 9046.00625286,-3472963.64632 7546.03258796,-3470945.86083 6557.90408488,-3469779.71769 5711.02553124,-3468905.76673 4538.32527915,-3467854.30187 3106.22708906,-3467098.01815 3064.69826501,-3467044.84539 2253.65028433,-3466007.21001 1519.29015679,-3465226.16359 980.478356983,-3464631.35043 73.4887304799,-3463080.5813 -980.720575385,-3460977.8212 -1902.69788728,-3459426.32333 -3112.90515212,-3457947.73727 -4477.13174902,-3456020.45119 -5038.22049327,-3455255.96899 -6078.41895152,-3454626.99997 -7186.22998098,-3453951.40841 -8138.22230041,-3452286.58827 -8692.12006679,-3450735.09325 -9310.85285679,-3450326.75855 -12185.8757233,-3450218.33398 -13515.5801045,-3450183.72749 -14468.8622668,-3450159.16201 -14775.8459928,-3449847.16055 -16444.1194105,-3449091.95966 -17045.2219672,-3448144.54932 -16848.2559446,-3446480.81623 -17033.4226258,-3444675.59587 -17348.426788,-3443141.82298 -17591.2088134,-3442612.19407 -18098.0642125,-3441369.275 -18629.7960234,-3441114.32855 -19720.9739463,-3441122.87759 -21207.6096705,-3440982.23051 -22448.4994844,-3439428.95562 -22989.4339615,-3438682.42071 -23282.9976139,-3438200.87772 -23669.9138658,-3436866.19174 -23860.2930401,-3436251.59382 -24100.0834011,-3435476.32465 -24551.8298761,-3435116.4094 -24745.6457286,-3434728.99584 -25090.4779509,-3434078.26976 -25322.4697659,-3433934.41708 -26362.228102,-3433484.42933 -28015.9525162,-3433305.00167 -28805.0502463,-3433219.43833 -30309.4109249,-3432995.65469 -31177.9977693,-3431918.88963 -32226.2128892,-3431165.14367 -32604.7792309,-3429995.48476 -32573.8084417,-3429185.48338 -32770.0785968,-3428621.76032 -54099.9876525,-3426224.74552 -54554.194726,-3426213.41839 -55493.2881517,-3426189.23693 -56377.9732398,-3426166.49351 -56940.2910243,-3426126.83843 -57544.9945145,-3426156.3597 -57817.0500922,-3426441.28217 -58383.4509739,-3426537.37437 -59004.3038039,-3426765.34856 -59840.3853438,-3426502.26728 -60695.3372869,-3426175.44961 -62009.2485788,-3425795.78614 -62571.4685272,-3425925.40545 -63227.4878212,-3425877.14874 -63903.9353656,-3425898.94372 -64541.1429301,-3426135.61961 -65200.2761331,-3426616.07796 -65533.8441511,-3426704.69666 -65647.3533382,-3426106.06696 -65939.9385912,-3426004.15842 -66235.4246696,-3425766.38906 -66612.632442,-3425779.86065 -66951.1380188,-3425735.08137 -67268.3843321,-3425036.0827 -67612.2024841,-3424734.57266 -68421.9179937,-3424464.98332 -68863.8310784,-3424379.9807 -69745.7811588,-3424478.13089 -70515.9072237,-3424229.70015 -71285.2959011,-3423721.1547 -72173.8252921,-3423419.26577 -72943.019482,-3423218.79244 -73900.2988144,-3423590.25662 -74060.5759563,-3423779.22134 -74198.9719015,-3424205.22133 -74533.264913,-3424424.14083 -75274.6153883,-3424202.17769 -75760.9106017,-3424274.68709 -76334.3317762,-3424158.96769 -77149.0425556,-3424399.56857 -77635.4549497,-3424348.75538 -77998.9892039,-3424613.59841 -78933.7821592,-3424768.25031 -79386.2361697,-3424905.74454 -79919.0965339,-3425102.76315 -81390.5303167,-3425312.57252 -82409.3739915,-3425536.66399 -83225.9482255,-3425162.64073 -83915.0289906,-3424995.50852 -84367.7654164,-3424541.3869 -84704.494241,-3423873.59099 -84788.3654015,-3423177.1986 -84910.3243075,-3422314.90162 -85171.0660842,-3421756.75534 -85554.9946834,-3422468.56341 -86016.4839367,-3423147.08165 -86807.1543207,-3423705.60494 -87366.9874115,-3423919.6288 -88094.8812995,-3423601.07203 -89385.3272685,-3422755.63902 -89574.7640349,-3423160.74949 -89502.9375229,-3424817.92593 -89570.5468496,-3426395.81982 -89825.066241,-3427260.09008 -90515.3408838,-3427338.05595 -91345.5549056,-3428019.16516 -91900.0084052,-3427733.54023 -93083.8636373,-3427354.70149 -94534.5897221,-3425920.93373 -96116.443401,-3425594.17225 -97134.0001151,-3425546.70144 -97528.2857156,-3424932.88659 -97386.0531221,-3424224.47324 -97770.8095758,-3423636.78523 -97696.3691017,-3422922.21357 -97821.353966,-3422584.60235 -97945.8662755,-3422248.49741 -97925.5506468,-3421444.13775 -98162.4612106,-3420720.2221 -98628.1042926,-3420248.96743 -98865.3531745,-3419689.7861 -98869.5310989,-3418784.67135 -98894.9913923,-3418333.95909 -98920.4103466,-3417880.75161 -98993.6376695,-3417013.38926 -98832.3227995,-3416456.05707 -98305.6629242,-3414271.60624 -98057.6555576,-3412776.25562 -97747.5600581,-3412216.9675 -97501.2264099,-3411780.8871 -96977.0911383,-3410805.42499 -96699.6668472,-3410025.41827 -96403.8250724,-3409175.33455 -96128.1871666,-3408820.61676 -95322.2612565,-3408984.15961 -94745.1325341,-3408514.78178 -94241.0208521,-3407819.50451 -94130.7718858,-3406903.82706 -93369.6042237,-3405699.23275 -93295.8740969,-3404056.05605 -93937.5452837,-3402222.45321 -95134.5708583,-3401499.14573 -95743.4993627,-3401433.8529 -96065.9183514,-3400301.63245 -95579.9659056,-3399219.12445 -95187.2683027,-3397939.82628 -95080.1454566,-3396397.06568 -94700.6038874,-3395464.48652 -94949.3858436,-3394079.41153 -95108.0755912,-3393355.83993 -95310.3027961,-3392491.24894 -95644.9564161,-3391648.87353 -95916.1116863,-3390682.77391 -95925.5796844,-3389681.17756 -95737.0540121,-3389058.85058 -95384.738926,-3388198.17312 -94376.4072378,-3388057.01033 -93941.7127945,-3387711.42408 -94010.7447831,-3386482.1506 -94554.6386058,-3386039.10845 -94382.7887064,-3385457.42218 -94742.4920571,-3384189.78257 -94752.3633988,-3382515.70063 -95106.2176065,-3381121.8606 -94601.6866312,-3379626.20216 -95025.0864621,-3379156.26388 -95434.2090058,-3378550.2796 -96077.8422562,-3377640.8039 -96431.8076337,-3377049.73668 -96085.1804986,-3376374.13596 -95608.8749697,-3375572.41517 -95002.3359259,-3374789.35801 -94787.9669642,-3374348.15226 -94658.1987535,-3373787.20032 -94001.619158,-3373560.126 -93263.6628439,-3372473.7271 -93059.9015756,-3371639.42746 -92508.4911337,-3370186.41719 -92238.3609732,-3369204.94605 -91540.4343717,-3367796.31268 -91651.6907504,-3366885.80155 -91316.9286376,-3366721.68077 -90136.6315426,-3367639.18378 -89622.8368101,-3367517.01659 -88839.1686436,-3366146.23506 -88539.7028923,-3364665.9518 -88346.0657862,-3362693.10052 -88743.5552902,-3360852.11667 -89111.5282275,-3359631.72434 -89342.8267308,-3358522.46576 -89772.3254266,-3358291.59908 -89988.7767643,-3357606.97208 -89530.4472576,-3356667.52992 -90270.2023727,-3355419.45747 -90950.1035885,-3354278.74073 -94744.8796013,-3351581.2395 -94863.4686151,-3351507.36716 -95663.3935955,-3350930.85802 -98557.5968576,-3348687.39776 -100905.495932,-3346525.51868 -103665.567109,-3344215.58387 -113079.32143,-3337255.65244 -112903.77648,-3336783.30926 -112703.518858,-3336507.06319 -112416.182455,-3336036.56491 -112490.326329,-3335448.26633 -112175.505595,-3335006.17394 -111888.86731,-3334441.80497 -111508.87245,-3333741.19073 -111163.159836,-3332758.44514 -111093.877558,-3332190.47671 -111108.998036,-3331291.62717 -111743.09986,-3329783.50163 -111965.925814,-3329279.10869 -112862.706006,-3327395.74881 -113306.378924,-3326492.84292 -115338.323206,-3324147.54699 -115892.160654,-3323035.68011 -116270.592274,-3322246.69626 -116281.05668,-3321591.55273 -116658.550033,-3320866.48764 -116716.312434,-3320233.53194 -116930.014319,-3319154.7142 -117019.228701,-3318460.33743 -117423.353265,-3317531.16248 -117589.528783,-3316749.66077 -117558.444232,-3315460.18488 -117454.152246,-3314287.7199 -117600.848351,-3313412.67896 -117569.687535,-3312804.13407 -117478.534576,-3312358.31695 -117108.346262,-3311945.01262 -116718.058471,-3311661.33474 -129607.189528,-3297926.03546 -133224.570632,-3294879.87733 -135820.796128,-3295634.67775 -138441.770171,-3295622.3438 -139103.144264,-3295218.3333 -139309.72457,-3294919.49536 -139870.906919,-3294431.25044 -140106.585325,-3294187.85334 -140573.483495,-3294090.48234 -141057.499059,-3293723.2892 -141197.5679,-3293122.03802 -141486.868798,-3292488.43581 -141785.61728,-3292178.1413 -142493.336681,-3291753.45224 -142913.485493,-3291806.59523 -143333.151269,-3291829.79682 -143761.045682,-3291619.761 -144529.850249,-3291750.66026 -145183.123666,-3292069.59931 -145923.026684,-3292716.5792 -146362.087037,-3293170.72869 -146711.596208,-3293332.82056 -147234.615717,-3293312.43252 -147845.486401,-3293075.00696 -148314.429768,-3292438.56127 -149146.139756,-3291873.16151 -149974.256101,-3291363.73136 -150396.494709,-3291020.04343 -151314.827864,-3290922.95504 -152084.45224,-3291030.40026 -152972.627432,-3291418.94451 -154087.018688,-3291986.53183 -155506.771621,-3292362.54893 -157579.61251,-3292242.972 -161031.978504,-3291786.40003 -159932.243679,-3290819.81095 -159045.66379,-3290215.1294 -157763.793802,-3289688.6364 -156820.837395,-3288930.61802 -156354.850125,-3287927.88113 -155584.741587,-3286992.88409 -155186.554364,-3286000.51944 -154954.657665,-3285263.0341 -154456.183122,-3284819.29335 -153840.334992,-3284183.26371 -152789.534782,-3284409.18621 -151348.59498,-3284006.95026 -150221.168293,-3284280.53153 -148609.06429,-3283852.08554 -147706.98412,-3282252.74377 -147365.662132,-3281306.30236 -146827.519181,-3280084.46155 -146235.403003,-3278263.96276 -145811.522315,-3277445.09272 -145648.346821,-3276759.83119 -145205.068012,-3276383.52981 -145032.201908,-3275920.05148 -144579.643555,-3275400.12791 -144004.981275,-3274077.95415 -144121.695816,-3273727.16241 -144009.59951,-3273223.76736 -143475.464356,-3272800.46973 -143611.853852,-3271787.92996 -143782.952476,-3271246.57655 -143434.295782,-3269364.65141 -143050.21657,-3268237.06369 -140816.236123,-3267607.60341 -139293.261512,-3267914.86372 -138618.209134,-3268316.48798 -136720.319178,-3269189.8779 -134909.804937,-3270142.79091 -134813.445773,-3268888.74726 -134334.242401,-3268265.83851 -134370.569496,-3267443.00933 -134462.232778,-3266834.47145 -134251.655927,-3265993.59824 -134165.679537,-3264903.6105 -133916.029481,-3264666.44108 -133153.445032,-3264165.33005 -132233.016861,-3264319.25376 -131847.513124,-3264628.43339 -131221.10374,-3264622.919 -130789.187851,-3264242.86024 -130486.51471,-3263827.2928 -130003.829316,-3263692.67793 -129487.557858,-3263220.09143 -129110.931499,-3262785.22265 -128894.172483,-3262262.43325 -128640.311663,-3261965.40499 -128577.69768,-3261497.07877 -127618.440447,-3260200.20765 -127103.548059,-3259186.34435 -126719.732078,-3257779.94049 -126269.510961,-3256955.25759 -126032.544606,-3255582.94519 -126048.355362,-3254596.07127 -125764.076055,-3252426.09086 -124807.991194,-3251770.15202 -124031.441435,-3250722.39206 -123102.911236,-3249868.26421 -123126.869594,-3249062.96852 -123222.278884,-3248528.67506 -122943.734798,-3247981.31925 -123005.601296,-3247409.60393 -121970.809992,-3246546.12996 -121897.628858,-3245628.00038 -121948.435987,-3244639.99694 -121279.683514,-3244046.8474 -121051.46217,-3243001.8156 -120580.836689,-3242654.70272 -120260.950702,-3242683.22122 -119625.036996,-3242541.95411 -118795.914699,-3242451.17735 -117186.671733,-3242132.52859 -116494.124061,-3242184.9166 -115495.891935,-3241980.46579 -114223.732187,-3242044.0194 -113703.286629,-3241706.67514 -113627.399217,-3240760.0428 -113394.011636,-3240243.36945 -112636.083661,-3239652.08103 -112652.317484,-3238782.88008 -112767.4593,-3238294.65137 -112668.793626,-3237928.65366 -111927.294369,-3237460.93645 -111650.118751,-3236985.88612 -111282.562135,-3236242.58036 -110751.11458,-3235082.34925 -110113.741343,-3234568.01969 -110025.855064,-3233745.36946 -110040.700327,-3232786.25224 -110050.161296,-3231516.57466 -109913.34578,-3230439.97246 -109721.806866,-3229693.8465 -109099.84443,-3229175.23791 -108595.896784,-3228602.82646 -108375.342929,-3227917.07363 -107921.296524,-3226310.02035 -107464.595947,-3225264.36655 -106868.997917,-3223595.56606 -106934.884625,-3222066.19165 -106663.966919,-3221002.59508 -107373.363738,-3219452.12158 -107409.811758,-3217953.15017 -107424.758548,-3216993.93364 -107422.428931,-3215249.30838 -82621.168146,-3218063.93385 -78752.2689311,-3216341.63911 -74559.2902242,-3216359.03455 -71138.156366,-3216444.22421 -65726.263922,-3216091.45792 -64614.6061108,-3214990.95783 -57620.6638593,-3211222.87249 -52301.78383,-3213533.07533 -52580.3968787,-3214429.03563 -53621.9784458,-3216044.32165 -53902.8179487,-3217690.20649 -53433.3822052,-3218956.82775 -54094.0624157,-3220904.89399 -54058.7895033,-3223073.90332 -54643.9692858,-3224673.36934 -54600.1742847,-3228490.72744 -53461.7776299,-3229752.53947 -52008.8402423,-3230451.34361 -50456.7081407,-3230977.89127 -49274.9064948,-3231060.33062 -48107.8779036,-3231999.91436 -47075.6882731,-3233043.76626 -46370.9350405,-3233803.06293 -45114.2026924,-3234088.60903 -44323.2210637,-3234751.88254 -44413.4710282,-3235530.86087 -44032.9569926,-3236767.59778 -43788.1316557,-3237603.43703 -43577.6473174,-3238322.30709 -43873.2511569,-3241018.51997 -44199.7216021,-3242469.64089 -44271.8459894,-3242604.37145 -44361.0520116,-3242806.77376 -44430.1580301,-3243017.4945 -44507.2074636,-3243225.08875 -44629.5470589,-3243591.82733 -44764.0509463,-3243938.38355 -44889.7319814,-3244249.10926 -44977.9258076,-3244512.4776 -44924.9694239,-3244806.10645 -44852.6221164,-3245090.05652 -44710.6126765,-3245345.15683 -44533.349336,-3245582.84178 -44521.1371182,-3245600.02614 -44363.4260111,-3245826.40367 -44207.8677875,-3246077.72718 -44173.9147304,-3246140.72801 -43962.0292981,-3246399.95822 -43450.9053435,-3246753.4644 -42750.6668572,-3247029.09939 -42268.9082541,-3247036.40366 -41835.1533956,-3246568.29638 -41119.178154,-3246443.50011 -40967.863427,-3246416.97388 -39625.9107259,-3246233.87607 -38042.1562322,-3246329.99984 -36502.9958961,-3246988.99842 -34905.7297066,-3248423.39301 -34317.7031115,-3248010.75476 -34038.5556688,-3248173.674 -33763.9781777,-3248617.81445 -33859.6187436,-3249091.91195 -33726.488854,-3249569.72673 -33231.1907211,-3249436.88213 -32707.8233275,-3249744.1738 -31919.6390935,-3248929.59151 -31173.2866242,-3248537.01954 -30254.2445468,-3248340.61786 -30215.1627374,-3248349.24791 -29425.402878,-3248283.65131 -29394.9914798,-3248303.13274 -28884.8775508,-3248627.21135 -28758.4521508,-3249071.45796 -28611.3275275,-3249548.51843 -28696.1103469,-3250244.64441 -28766.3320507,-3250859.5627 -28892.5730797,-3251524.03 -29063.4213686,-3252166.28302 -29018.6604322,-3252516.26046 -28799.4075073,-3252797.633 -28538.1556563,-3253215.0929 -28498.3170901,-3253315.1705 -28413.1320676,-3253529.90502 -28436.1066019,-3253651.94185 -28385.12511,-3254064.47473 -28032.0199823,-3254364.02033 -27794.6529801,-3254514.78565 -27532.8013108,-3254573.51785 -27119.5159972,-3255134.86001 -26871.8946135,-3254994.00568 -26349.5897153,-3254340.0051 -26383.8776868,-3253991.69419 -26343.5329944,-3253356.30559 -26168.7449621,-3253101.33984 -25983.5310901,-3253064.88912 -25576.9525215,-3252950.60728 -25298.8963993,-3253195.47461 -25096.1694512,-3253218.76854 -24837.4082538,-3253329.41644 -24733.3510806,-3253474.51398 -24501.9940069,-3254054.885 -24302.9363312,-3254379.40874 -23881.1336074,-3254694.57976 -23679.2667293,-3255061.12127 -23326.5920858,-3255218.77572 -22789.630136,-3255274.51605 -22325.6237339,-3255040.26708 -21811.5444488,-3254891.27746 -21523.2512087,-3254983.42866 -21021.5118307,-3254534.94424 -20560.4600209,-3254619.42772 -20270.0109896,-3254809.04951 -20001.4075751,-3254867.90403 -19790.3436873,-3255023.25162 -19466.0930884,-3255162.46309 -19157.239815,-3255021.11418 -18788.3036561,-3254979.18127 -18507.3931829,-3254850.86619 -18271.2496767,-3254771.28538 -18051.0789745,-3254675.45403 -17675.152661,-3254695.09523 -17591.70706,-3254801.88992 -17358.2812729,-3254980.09274 -17217.1685361,-3255242.2281 -17177.4631321,-3255273.85718 -17143.6769254,-3255361.85158 -17017.2640785,-3255636.73786 -16880.4969998,-3255904.79845 -16668.8436737,-3256085.14502 -16459.0312396,-3256149.03994 -16377.7423073,-3256173.8553 -16146.2704339,-3256196.63311 -15785.8336971,-3256170.55735 -15688.1918,-3256142.67617 -15500.9412433,-3256089.28061 -15234.4500046,-3255941.74626 -14954.9031169,-3255912.34768 -14658.6775022,-3255978.15998 -14387.8783313,-3256101.51811 -14194.2978767,-3256317.54971 -14015.597376,-3256557.32206 -13770.9792846,-3256723.22452 -13700.1595828,-3256761.86061 -13686.6224577,-3257002.92386 -13677.6469984,-3257247.90945 -13674.1789941,-3257447.83424 -13499.7479303,-3257825.9459 -13335.9835803,-3258077.46657 -12885.4667016,-3258378.1614 -12739.7888637,-3258589.91259 -12599.9934924,-3258657.66266 -12474.4744736,-3258925.54619 -12618.8255008,-3259333.40567 -12362.5198167,-3259806.80001 -12178.1427843,-3260004.6967 -12204.2570262,-3260347.53947 -12211.3277116,-3260671.70695 -12228.5832469,-3260885.7803 -12204.4567281,-3261287.90727 -12025.2519012,-3261420.26332 -12021.2209589,-3261631.18803 -11806.6077095,-3261904.53181 -11592.1478885,-3262095.92858 -11516.9469266,-3262293.53215 -11225.0548277,-3262546.66133 -10870.8171012,-3262821.80192 -10807.4983325,-3263453.41889 -10497.0714047,-3263581.93911 -10478.4622517,-3263589.74002 -10192.3397385,-3263707.36848 -9892.82023143,-3263830.7142 -9369.30616104,-3263413.60757 -9059.73791316,-3263077.92462 -8892.72453418,-3262979.23823 -8775.63666042,-3262817.27196 -8534.61917544,-3262745.78518 -8397.72336301,-3262701.06739 -8242.5204957,-3262576.20348 -8014.0610058,-3262675.8979 -7950.7696825,-3262260.71117 -7666.07200447,-3262237.41155 -7409.95280943,-3262113.70714 -6921.85869785,-3262088.75676 -6705.52050481,-3261877.45418 -6513.1894656,-3261606.79418 -6337.13608369,-3261368.84461 -6242.55929922,-3261163.03299 -6045.02177982,-3260940.42624 -5870.64219067,-3260773.9022 -5476.42352034,-3260745.40861 -5318.18608006,-3260314.78537 -5310.86542953,-3260097.54285 -5297.54915875,-3259698.01336 -5075.6861337,-3259606.72146 -4717.0964139,-3259587.63446 -4426.45364803,-3259719.83534 -4309.14594922,-3259818.2048 -4255.40289247,-3259816.59043 -3957.88261299,-3259834.47678 -3661.01264846,-3259846.35661 -3363.03445932,-3259821.278 -3074.4581942,-3259745.07647 -2846.7640867,-3259572.93164 -2660.21352945,-3259335.14933 -2501.42426563,-3259083.91763 -2368.08269815,-3258815.27699 -2235.50684606,-3258547.62254 -2076.6646267,-3258308.38269 -1806.13419286,-3258159.92619 -1541.76706355,-3258234.2339 -1283.95745873,-3258403.37702 -1007.21310731,-3258499.87628 -712.798933691,-3258524.71014 -416.819923405,-3258545.57262 -123.812344501,-3258610.36037 163.281193516,-3258579.1085 450.980890833,-3258495.89778 721.505859123,-3258378.42449 974.073814385,-3258228.67434 1214.5479229,-3258054.73898 1451.34157881,-3257876.74508 1676.15946803,-3257682.56301 1863.73267591,-3257519.74862 1975.10619185,-3257447.62571 2212.64266452,-3257103.23943 2628.23819821,-3256976.66035 8554.65982173,-3257264.2372 8697.81245238,-3257386.53304 8799.84949341,-3257562.62074 8466.3681914,-3257920.91781 8247.21413187,-3258407.03011 8161.63332202,-3258596.51163 7862.55928183,-3258807.95562 7678.86585229,-3259128.74276 7594.01878302,-3259576.58949 7669.27288646,-3259785.71409 7613.71505055,-3259912.22504 7480.18666034,-3260175.87038 7444.60379814,-3260303.21037 7402.10580745,-3260455.92159 7354.92318672,-3260680.51426 7300.1407807,-3260971.94285 7344.0446942,-3261233.51829 7203.09189453,-3261462.55829 7226.94408717,-3261606.86934 7252.39618591,-3261760.20156 7131.71174507,-3261896.62898 7310.93193123,-3262209.90932 7386.6482927,-3262194.16957 7507.03998089,-3262211.64892 7565.11677167,-3262220.10377 7679.75664606,-3262192.51415 7802.29519776,-3262367.43851 7860.70524478,-3262658.23623 7885.81050835,-3262953.48063 7864.7377238,-3263245.96292 7811.20885099,-3263536.90908 7745.22344949,-3263825.65005 7668.54659724,-3264111.21558 7585.15840943,-3264394.67082 7603.70678184,-3264496.91758 7581.27201554,-3264765.88864 7562.39588127,-3265061.40255 7519.57314282,-3265354.52136 7469.3061625,-3265644.51839 7432.99376561,-3265936.74444 7420.89350656,-3266230.36975 7422.99745055,-3266526.22832 7418.85642092,-3266821.98324 7392.48439333,-3267117.37012 7389.39130042,-3267410.14336 7547.05476864,-3267953.42622 7996.39059327,-3267856.42242 7996.46681456,-3267866.91739 8271.07907521,-3267955.91022 8610.43577515,-3267982.51284 8750.58681522,-3268179.71569 9473.17875895,-3268223.65591 9562.33823924,-3268256.11332 9722.03097478,-3268314.22383 9714.64364103,-3268443.52472 9740.29889332,-3268765.25843 9629.50459795,-3268998.28414 9137.08781742,-3269931.56623 9182.02233713,-3270627.88997 9532.21880833,-3271417.71524 10212.1178673,-3272107.5692 10342.2446772,-3272562.4508 10396.9133444,-3273032.5711 10288.4533221,-3273245.14201 10234.6179427,-3273629.01372 10135.4353173,-3273869.72032 9975.03988377,-3274396.7341 9952.98747299,-3274430.84709 9689.38275749,-3274838.72019 9401.60890037,-3275453.56151 9449.51877632,-3275698.20362 9731.36449745,-3275696.8824 10128.2970704,-3276333.57377 10524.9285705,-3276295.6829 10743.3020023,-3276340.28117 11076.1362195,-3276458.23495 11360.1585671,-3276491.43137 11577.5337461,-3276791.85554 11874.6552188,-3277255.004 12076.5766023,-3277432.74857 12094.3033184,-3277448.53332 12156.0304676,-3277853.80717 12392.9444034,-3278030.63448 12613.4160461,-3278234.67206 13083.9869712,-3278423.37729 13404.2537599,-3278500.65399 14059.2169729,-3278658.9469 14157.8235598,-3278724.04658 14185.9916282,-3278757.9941 14321.9754207,-3278874.18405 14532.5952353,-3279054.57602 14820.4432526,-3279173.29107 15052.8757444,-3279334.05891 15185.0837805,-3279572.1121 15240.0128005,-3279874.83965 14991.4079225,-3280265.96118 14937.1049448,-3280451.44261 14870.095516,-3280845.08299 14935.5925731,-3281023.06237 14937.0003159,-3281043.57303 14961.9888938,-3281388.77389 14957.0108749,-3281688.00421 14893.0835352,-3281911.30031 14900.4035365,-3281966.88737 14956.193101,-3282202.66845 14969.4992765,-3282258.85476 15071.7139039,-3282527.38821 15252.4061987,-3282764.24845 15441.9066463,-3282997.2581 15629.9579046,-3283227.24584 15816.7432322,-3283458.2122 15974.8043929,-3283703.69121 16077.6988312,-3283976.23421 16146.807,-3284267.20262 16224.0072307,-3284552.30945 16300.7074039,-3284837.40785 16382.419165,-3285121.59026 16479.2166321,-3285400.0277 16583.5067541,-3285678.58996 16705.7133035,-3285946.45772 17019.8089017,-3285508.97125 17275.7405735,-3284963.58121 17695.6416345,-3284488.8783 17768.923182,-3284139.31762 18047.6881919,-3283993.05537 18450.4424877,-3283812.88089 18854.7484582,-3284049.47544 19202.5538367,-3283898.36766 19538.0035128,-3283439.24226 20362.9461958,-3283847.24985 21170.14881,-3283685.81171 21931.3354878,-3283781.95223 22563.2039519,-3282928.0057 25950.2856111,-3281965.09349 26214.5618388,-3281834.58024 26479.604601,-3281703.08028 26744.61453,-3281573.57853 27011.3067953,-3281448.1025 27279.1984932,-3281325.64472 27550.2212446,-3281210.23515 27825.1244181,-3281101.88636 28102.6757442,-3280999.57838 28378.9452827,-3280899.24791 28656.7307402,-3280797.94334 28932.1021795,-3280691.6013 29204.077112,-3280579.20594 29470.5241503,-3280453.72554 29731.9261963,-3280316.16752 29990.3979486,-3280174.5627 30251.10165,-3280033.99447 30516.101976,-3279905.49127 30787.1808403,-3279787.08398 31059.9587284,-3279671.7034 31335.3680939,-3279563.36293 31615.3071983,-3279468.09103 31898.4603253,-3279389.86365 32185.0438723,-3279330.6834 32477.5724404,-3279289.59291 32577.1829964,-3279279.76249 32773.148562,-3279260.5471 33067.8255304,-3279240.48173 33363.4186407,-3279225.4293 33658.1292311,-3279218.35817 34484.310612,-3279390.57541 36546.7685416,-3279821.33503 36844.0765596,-3279883.27567 54193.3610066,-3284388.00302 56279.5815102,-3285282.17068 57092.8330221,-3285630.69226 58921.128407,-3286260.17754 59231.9283545,-3286367.36174 61709.9023905,-3287220.71553 64729.4062283,-3287331.5756 70137.8854068,-3287131.94258 72797.0885103,-3287170.84662 78088.6089672,-3287009.88255 80724.1471289,-3286930.0166 83078.6521482,-3286859.91282 86238.2373031,-3281499.94488 89678.4123411,-3276399.9706 90464.9392648,-3275423.61085 90534.8863564,-3275336.82361 91825.327276,-3275905.99827 92275.3070522,-3275898.62491 92605.4813145,-3275690.28658 92714.8676645,-3275621.1623 92914.066749,-3275369.61807 93204.9896471,-3275014.66052 93522.5937226,-3274855.09308 93789.1296281,-3275054.54759 93965.9733076,-3275237.48742 94208.8773467,-3275061.6599 94439.0770817,-3274750.65906 94883.7248749,-3274173.37492 95512.8425668,-3274214.02749 96219.9661162,-3274076.05896 97317.1690083,-3274295.10016 98252.1241156,-3274575.87617 100022.480367,-3275392.67592 100416.577722,-3275468.34381 100423.55665,-3275469.46196 103861.59054,-3276128.66491 104296.546148,-3276212.03255 104359.572584,-3276224.10023 104390.711022,-3276230.12771 104414.379291,-3276234.5287 104421.608095,-3276235.65123 128940.916113,-3279285.91365 134516.020439,-3280293.09764 137971.505843,-3281119.11569 143825.919408,-3294646.97464 144560.427935,-3298021.59695 144562.228262,-3298367.52247 144528.259793,-3298773.31402 144558.238446,-3299064.73999 144527.473403,-3299444.09373 144314.932221,-3299493.92281 144307.829647,-3299601.76721 144410.788586,-3299689.51075 144387.49151,-3299852.55937 144346.954519,-3300189.757 144295.695048,-3300423.80211 144268.810994,-3300708.2504 144143.148594,-3300938.01662 143990.296675,-3301179.31133 143788.385328,-3301526.72826 143898.343183,-3301701.56384 143826.445952,-3302031.22193 143758.707524,-3302307.96811 143566.584234,-3302478.60868 143576.707837,-3302674.7196 143423.917983,-3303115.9488 143352.109057,-3303484.09394 143382.362893,-3303977.45313 143368.494525,-3304217.13594 143478.614796,-3304396.97111 143337.624762,-3304573.48763 143277.697845,-3304788.38578 143360.280898,-3304912.76526 143194.468748,-3305050.36729 143193.241908,-3305165.30803 143028.086296,-3305337.40975 143468.087437,-3305386.96255 147902.763433,-3305887.12657 147789.602533,-3311327.3388 147683.546499,-3316425.69558 149145.736554,-3317500.50496 150970.142372,-3318902.44768 152682.30692,-3320218.4962 155212.79618,-3322163.44494 155492.492762,-3322363.19897 155958.070088,-3322696.11283 156144.69188,-3322829.78512 156183.699553,-3322857.44831 158331.842684,-3324394.47198 158597.538716,-3324522.01409 158864.750833,-3324648.583 159104.455952,-3324761.68196 159396.90885,-3324902.68202 161252.53416,-3325809.40963 161751.605086,-3326141.41121 162114.538556,-3326383.09408 162470.803861,-3326620.1638 162598.260015,-3328571.61863 162358.765697,-3328836.87431 161919.50063,-3328977.72378 161341.278067,-3329162.65387 160754.848972,-3329287.46628 160190.562925,-3329794.01262 159829.47827,-3329966.20296 159267.704507,-3330399.82128 159034.418511,-3330624.20016 158932.135662,-3330874.33301 158861.21747,-3330929.08548 158746.394821,-3331095.03487 158726.361691,-3331444.54932 158710.878726,-3331747.66062 158535.061792,-3331987.02586 158471.124295,-3332447.73574 158410.087428,-3332740.56281 158199.751291,-3332764.91743 158301.406344,-3332941.60317 158068.038683,-3333098.50612 157816.957631,-3333065.67977 157675.347403,-3333147.69908 157754.454335,-3333428.95228 157919.435574,-3333599.73447 157929.558308,-3333823.81836 157711.946827,-3334240.38733 157635.978375,-3334616.42056 157772.97871,-3334786.71883 157671.905756,-3334966.89791 157473.3858,-3335117.40475 157357.839583,-3335325.32208 157439.604536,-3335452.68291 157414.367394,-3335828.59163 157304.750614,-3335968.13924 157179.12752,-3336122.90382 156988.268383,-3336466.46243 156804.222895,-3336589.23031 156901.186103,-3336646.88228 156807.493193,-3336920.64888 156559.141893,-3337004.82124 156335.785524,-3336972.97414 156338.927492,-3336791.1043 156113.215119,-3336881.1658 155955.397568,-3337120.33842 155909.077448,-3337371.4328 155756.154561,-3337312.81452 155574.768388,-3337281.6929 155509.851515,-3337480.98747 155764.827672,-3337620.83524 155761.202495,-3337830.68443 155662.306196,-3337884.95245 155685.452485,-3338165.23448 155567.95022,-3338182.69638 155409.278986,-3337950.55203 154995.34512,-3337913.41446 154862.221853,-3338025.06696 154929.475084,-3338298.11385 154874.531974,-3338296.16522 154946.080299,-3338407.35462 155186.151889,-3338831.32394 154980.846694,-3338723.82148 154878.87387,-3338826.01595 154927.840496,-3339029.27591 155091.513333,-3339347.96906 155134.789541,-3339432.18116 155188.323596,-3339573.5462 155223.059257,-3339761.56643 155242.971724,-3339881.85929 155156.023153,-3339967.81986 155245.546184,-3340166.78213 155270.508756,-3340472.08299 155588.542034,-3340794.94174 155781.248586,-3340980.69312 155772.208185,-3341315.8929 155791.289471,-3341990.43216 155312.829701,-3342188.07586 155350.18791,-3342253.19345 155259.128204,-3342403.55427 155335.048052,-3343057.08289 155513.864712,-3343294.57077 155813.809864,-3343695.08174 156031.359323,-3344062.68253 156534.835375,-3344441.72225 156779.066022,-3344523.40973 157008.462736,-3344407.92705 157676.341897,-3344426.96877 158182.66809,-3344250.80248 158882.360624,-3344279.89212 159530.703261,-3344648.44725 161326.381867,-3345069.83314 161592.433414,-3345132.40999 162025.65247,-3345397.79202 162383.191241,-3345559.9096 162849.83667,-3345482.02034 163138.053904,-3345808.86725 163964.005454,-3346541.84659 164214.242839,-3346695.11217 165359.462148,-3346826.88436 166225.37569,-3346867.86223 166450.175925,-3346873.75303 167013.582016,-3347110.40849 176658.68738,-3351461.70333 181431.83073,-3353622.5867 186907.582103,-3356102.08753 194756.122004,-3364292.30452 199547.434108,-3369303.31953 201080.152623,-3369679.81939 202517.361666,-3371523.95941 203581.951509,-3372810.37697 207004.100242,-3376280.78908 211885.692834,-3381230.88755 212237.055507,-3381587.332 212109.399066,-3384584.09837 211904.029856,-3389403.56141 217044.553818,-3389494.09826 219780.342852,-3395419.19572 220622.589209,-3397243.91332 220730.856014,-3402589.44715 220848.953219,-3403957.26919 220859.543068,-3404080.88709 221041.645578,-3406192.4191 220830.040887,-3407754.38367 224143.017347,-3421124.22951 232298.308291,-3450175.13109 232357.949542,-3450380.54969 232358.887851,-3450384.06398 236438.683903,-3464417.85304 241928.174729,-3483301.21325 238938.462367,-3514057.98704 238795.962722,-3514740.64669 237409.189372,-3519201.21708 236527.077238,-3522034.92967 235877.319286,-3523816.23636 234820.474354,-3526711.92025 232373.351178,-3533476.0828 231495.942152,-3535618.81611 230739.607474,-3537464.80392 230478.713527,-3538101.47254 230322.993833,-3538479.59026 229646.789651,-3540055.61059 228976.312059,-3541618.243 225860.496048,-3549014.291 224745.405683,-3551836.18583 223231.556574,-3555664.74846 223225.28437,-3555680.63279 223172.34115,-3555678.71704 223014.269568,-3555672.4831 221399.676172,-3559559.81707 217613.460879,-3568702.41003 217093.053059,-3569921.90436 217006.055789,-3570140.30987 216723.270737,-3570885.11402 210860.128262,-3585597.52989 210659.303014,-3595491.24804 210411.015009,-3608115.23847 210248.130911,-3616270.34447 210238.692162,-3616743.56886" style="stroke-linejoin:round;stroke:#000;stroke-width:1px;fill:none" /></g></g></svg>