<svg xmlns="http://www.w3.org/2000/svg" baseProfile="full" height="469989.357647" version="1.1" viewBox="-149277.129581,3299990.463196,372953.727017,469989.357647" width="372953.727017"><defs><style type="text/css">polyline,line,rect,path,polygon,.polygon{fill:none;stroke:#000;stroke-width:1px;stroke-linejoin:round;}</style></defs><g fill_rule="evenodd" transform="scale(1,-1)"><g class="hogares link mujeres nombre toponimo_i tot_pob varones viv_part viv_part_h" id="70"><polygon class="_70" id="None" points="64493.6893,-3713074.46328 64140.3538728,-3713636.43464 63554.8138461,-3714608.29286 62733.353193,-3715418.21201 61743.7133828,-3715178.49797 60957.8428482,-3714816.97219 59942.1961517,-3714840.903 49688.5042741,-3714802.8904 49158.8727911,-3725221.57431 45939.7696672,-3726844.39694 45011.5160005,-3727312.37526 45011.1831667,-3727315.36444 44469.2143945,-3727621.65007 31374.6823926,-3735023.15128 30375.6121119,-3735019.2899 7360.39333953,-3734925.49521 7257.15988992,-3718538.65302 7196.42490212,-3708889.48235 3255.47915133,-3708866.74075 2897.94800547,-3709291.90402 2556.33899419,-3709835.90443 2107.89491239,-3710314.48271 1613.77542,-3710603.4523 1202.85166122,-3710712.39857 612.698643373,-3710826.34101 117.568174795,-3710954.41849 -412.509670102,-3710848.72877 -776.945732356,-3710894.02297 -1548.22672333,-3710498.86545 -1597.09224711,-3710074.38772 -2189.52657189,-3709481.90444 -2417.28075069,-3708844.13811 -2781.73529379,-3708388.39519 -3191.75117815,-3708115.7143 -3601.75518814,-3707887.49335 -4148.5147279,-3707386.21576 -4689.11483236,-3707049.45803 -5065.16542176,-3706750.25492 -5562.73031196,-3706321.28846 -5853.80585535,-3705921.55432 -6035.73980759,-3705557.83059 -6253.88869374,-3705194.09859 -6363.16562224,-3704938.79845 -6508.45474154,-3704756.92393 -6726.92160063,-3704575.00985 -6945.40451992,-3704429.56034 -7236.31580608,-3704284.09202 -7491.27804785,-3704175.09055 -7709.24365019,-3703993.19208 -7964.1360036,-3703702.37173 -8255.21149367,-3703374.58034 -8546.30272907,-3703083.25385 -8728.28557241,-3702864.89749 -8910.21423993,-3702465.22372 -9201.28534624,-3702101.47373 -9455.8975535,-3701809.66944 -9674.29135279,-3701445.94802 -9928.89605695,-3701046.25531 -10110.8291605,-3700718.51669 -10329.2568481,-3700463.68834 -10620.3414291,-3700136.41008 -10911.3616766,-3699663.28418 -11202.4134061,-3699263.08513 -11529.9247799,-3698826.90944 -11857.6259046,-3698316.80742 -11989.7141494,-3697912.0477 -11930.1831071,-3697298.34364 -12002.9021817,-3696716.42499 -11711.7283916,-3696097.6781 -11638.9624518,-3695807.00748 -11784.3317475,-3695152.14669 -11789.7379993,-3695131.01838 -11875.0997097,-3695255.01232 -11971.312787,-3695239.35067 -12508.9223504,-3695021.1157 -12632.8886599,-3694970.71816 -15497.4126209,-3695018.41162 -16423.6380593,-3695268.84412 -16897.1402085,-3695404.00756 -16957.0346067,-3696039.65 -16796.0103689,-3697162.92467 -17372.4093714,-3698096.35273 -19209.8898117,-3698498.67837 -20785.0049437,-3699424.72472 -22088.9389841,-3698918.39481 -23578.5197633,-3699732.91027 -24756.3373372,-3700946.16252 -25756.9673414,-3702878.54149 -27051.1397563,-3705582.33186 -28144.2181532,-3705959.32211 -29858.9867744,-3706582.6169 -33732.8400472,-3705352.5419 -35879.7170604,-3704608.27981 -36217.6353519,-3705208.60034 -36656.0564976,-3705946.9384 -37481.977998,-3706282.3883 -38334.0282914,-3705830.04211 -38695.3385298,-3705196.67509 -39296.4388296,-3704958.61271 -40165.3008363,-3705856.16316 -41350.6792312,-3706420.2283 -43173.5436532,-3706512.96788 -44291.6472286,-3707367.52661 -45330.2322797,-3709009.82286 -46063.1767918,-3710152.31063 -46330.8912002,-3710963.28012 -46499.9941252,-3712050.1812 -46815.6718179,-3712825.84495 -47393.9008982,-3713232.57483 -48060.4591788,-3713743.68487 -48863.7386539,-3714162.05477 -49529.420031,-3714091.40172 -50730.7631243,-3713642.14083 -51861.0342604,-3713489.50671 -52492.2952918,-3713021.32664 -53126.4942841,-3712684.39906 -53781.5553375,-3712725.39804 -54291.6807111,-3712930.76428 -54771.5133671,-3713230.85835 -55161.4171468,-3713440.60066 -55586.7848583,-3713526.5028 -55942.7020105,-3713770.65451 -56361.3088824,-3713980.0827 -56440.589253,-3714206.5523 -56511.4926079,-3714490.18343 -56472.7937186,-3714960.16219 -56444.7957421,-3715464.29621 -56305.0894196,-3716079.93795 -56177.8024893,-3716480.51022 -56451.9193383,-3716949.17215 -56572.0659684,-3717278.85666 -56782.0296333,-3717818.73518 -57075.0310185,-3718186.4912 -57292.3176307,-3718658.24895 -57297.7196982,-3719212.88183 -57322.4397508,-3719558.23959 -57262.4256019,-3719917.97236 -57405.8984041,-3720286.44756 -57472.7318441,-3720637.60961 -57172.8034682,-3720847.81312 -56898.1783277,-3721238.07329 -56933.0026388,-3721507.7462 -57233.0471649,-3721717.50165 -57593.024131,-3721927.56178 -57831.9940909,-3722061.13785 -57952.8745685,-3722256.97135 -57983.0324385,-3722467.35039 -58013.1056727,-3722886.96523 -58103.34817,-3723606.99745 -58418.5963908,-3724337.15452 -58823.4020636,-3724746.18426 -59144.2766261,-3725224.49795 -59333.6079252,-3725765.95224 -59423.6187701,-3726335.68165 -59275.0360694,-3727262.21595 -59604.0493659,-3727745.2902 -60503.8440607,-3727804.73191 -61297.0773544,-3728219.23463 -61304.3311063,-3728228.5173 -62539.1632279,-3729786.53469 -63053.2837434,-3730378.20171 -63713.5154521,-3731729.24946 -64173.4372974,-3732337.42231 -64840.6823789,-3732578.67481 -66582.9052307,-3732542.25726 -67812.9243622,-3733021.70006 -68375.1560569,-3733935.53515 -68557.4202069,-3734859.15315 -68751.5571683,-3735558.72563 -68858.5143484,-3736115.96197 -68604.6014407,-3736740.37669 -68514.8233457,-3737280.23541 -68545.0169768,-3737639.91436 -68515.1024176,-3738089.68869 -68455.2824097,-3738479.89155 -68635.5003219,-3738899.72613 -68742.5117482,-3739300.16887 -68575.7557912,-3739889.66508 -68695.9451595,-3740279.24794 -68786.0250452,-3740909.38314 -68606.2892982,-3741209.12263 -68336.3300364,-3741479.47022 -68013.9149697,-3741801.7479 -67766.6778179,-3742019.51685 -67406.858851,-3742229.50309 -67166.9948472,-3742469.53602 -67003.3394112,-3742755.34229 -67137.1125432,-3743069.14188 -67347.3415921,-3743279.39136 -67557.2038694,-3743459.18837 -67797.3976628,-3744029.13554 -68157.8507774,-3744358.95185 -68315.7610418,-3744652.08606 -68217.7642386,-3744928.53684 -68067.8961943,-3745198.47549 -67678.1053911,-3745618.57109 -67398.0055886,-3746172.87719 -67048.3884063,-3746188.82725 -66718.8240102,-3746339.04122 -66448.6836371,-3746848.62457 -65925.0296016,-3747092.76171 -65519.2566372,-3747898.8632 -65301.2926085,-3748530.82359 -65249.7351108,-3749218.97408 -65300.3557824,-3750005.09599 -65640.4474343,-3750898.33118 -65967.9233994,-3751795.42095 -66180.6736734,-3752338.20452 -66270.7364029,-3752877.99598 -66619.5757778,-3753096.77235 -67177.3654461,-3753208.70246 -67320.7707001,-3753237.5704 -68276.5604173,-3753313.66411 -69097.6437305,-3753805.6046 -69734.9758629,-3754499.54908 -70920.7393334,-3754645.95372 -71674.6019333,-3755109.82238 -72698.4658035,-3756370.98602 -73152.179763,-3757523.5969 -73892.0740661,-3758693.98172 -74508.2378293,-3758804.18611 -75309.8550816,-3758554.50842 -75785.7357106,-3758370.09012 -76312.7234994,-3758610.18465 -77107.0219651,-3758506.53302 -77521.7305557,-3758932.61067 -77726.5500068,-3759423.12786 -77727.3923225,-3760236.60019 -77705.2321738,-3760630.75148 -78020.4961233,-3761019.22437 -78902.6260317,-3761331.51177 -79796.2320189,-3761234.46883 -80507.5244461,-3760727.17286 -81091.9165153,-3760400.79834 -82287.0551292,-3760771.49718 -82741.8128242,-3760670.05939 -83249.5949123,-3760806.79334 -84061.5709811,-3760459.4026 -84592.9015105,-3760094.60222 -85115.5149933,-3759704.58769 -86190.5056266,-3759048.54906 -86940.4131563,-3758488.23497 -87420.0652675,-3758298.20131 -88260.1112024,-3758747.45503 -88645.7180619,-3759160.31647 -89040.2045768,-3759317.26182 -89490.0574176,-3759107.10515 -89879.7842148,-3758776.84047 -90702.9104953,-3758785.1532 -91799.5579739,-3758685.73904 -92309.2210965,-3758385.48616 -93026.11611,-3758033.84327 -93960.0328373,-3758119.34976 -94083.4151163,-3758234.1392 -94438.9284672,-3758564.44668 -94799.2452955,-3759044.4053 -95002.4920679,-3759679.16976 -95189.8160943,-3760393.78201 -95471.3889655,-3761182.0768 -95880.8887498,-3762043.08258 -96504.1132598,-3762783.08925 -96931.118832,-3763332.51282 -97124.5957869,-3763800.2838 -97171.7048296,-3764352.16184 -97202.0877742,-3764981.91681 -97188.5042497,-3765350.80149 -97322.5520426,-3765791.82591 -97560.7373482,-3766311.73498 -98072.8654338,-3766721.38175 -98763.3389034,-3767410.9858 -99603.6021377,-3768100.25154 -100460.366371,-3768288.72117 -101013.376554,-3768099.49357 -101719.675938,-3767460.96307 -102302.277251,-3766688.70583 -102751.439379,-3765548.83936 -103291.10668,-3764828.77147 -103861.513228,-3764023.44721 -104039.809299,-3762848.49895 -105118.974863,-3761948.14311 -106297.590625,-3761345.98803 -105960.630642,-3757597.31754 -107660.462464,-3756198.90361 -107659.099635,-3754183.53686 -108075.885217,-3752333.39115 -108581.284023,-3751159.66573 -109420.509257,-3750319.31805 -112442.933453,-3749477.60263 -114284.209895,-3748150.71778 -117216.857936,-3747274.67391 -117944.733702,-3750078.5057 -121680.443456,-3749472.22844 -123611.342593,-3748630.93596 -123441.986023,-3746615.81844 -123019.726752,-3742921.44981 -124144.145188,-3741555.47508 -125846.031188,-3739764.67182 -127566.148875,-3737584.61943 -135488.795048,-3735223.95985 -133761.025013,-3732753.94362 -133059.176147,-3730373.20662 -135736.837211,-3729568.31334 -135775.286588,-3727315.6381 -135192.990415,-3723998.91362 -133922.077192,-3721838.63511 -134822.251206,-3720327.85377 -135390.650378,-3719526.18107 -136965.465991,-3718766.61376 -137435.526046,-3717745.73093 -137108.735097,-3716271.0961 -137233.886204,-3715131.84863 -138734.295834,-3713882.01339 -139889.545816,-3712715.90713 -139500.243377,-3710857.42488 -138688.030113,-3710282.82908 -138721.560301,-3709437.1416 -139230.096889,-3708766.53101 -140547.423826,-3708455.08013 -141325.170565,-3708048.73817 -141088.307711,-3707913.28864 -141088.042535,-3707439.80402 -140884.414721,-3706526.56101 -140343.104704,-3706019.58374 -137738.585025,-3706088.71429 -137299.023905,-3706562.75331 -133908.244199,-3708752.41573 -132103.981347,-3706780.88036 -131990.735769,-3705526.66822 -132183.337354,-3704235.82959 -131728.387194,-3703537.21243 -130707.027978,-3704329.65869 -126777.063601,-3706767.1144 -125512.985278,-3707475.69673 -124363.525458,-3708197.00381 -123803.505193,-3708632.09833 -123195.255136,-3709547.63916 -121909.214673,-3708431.40788 -121976.575767,-3707991.83978 -122009.719055,-3706909.49143 -121104.916243,-3706652.72156 -121150.860758,-3705915.34 -120824.687281,-3704778.8108 -120142.326901,-3703558.06005 -120444.516293,-3702379.26545 -121271.750154,-3700903.16405 -122467.74353,-3699549.88878 -123264.093278,-3697917.04037 -122968.398761,-3697034.18513 -121616.802951,-3695771.5043 -121356.55993,-3693590.71475 -120566.630243,-3692645.4548 -120744.078113,-3691392.43323 -120846.16107,-3689873.08763 -119925.911311,-3689109.1274 -119848.818428,-3688144.73563 -120888.646501,-3686096.99204 -122199.999375,-3685752.16769 -123898.179226,-3685784.14818 -125671.182315,-3685639.36756 -127937.90471,-3684442.83463 -130062.373155,-3684131.4775 -132371.749856,-3683124.88401 -134684.323306,-3682897.53275 -137683.962283,-3681587.14094 -140537.874734,-3679827.42787 -143601.173534,-3677473.24547 -142337.456505,-3674466.298 -142827.983756,-3673718.18123 -142792.497631,-3672571.81886 -142826.948724,-3671384.08599 -143325.476291,-3669180.14768 -142668.796132,-3668791.03466 -141893.318881,-3667892.93403 -141250.158161,-3666527.67757 -141134.168983,-3664792.94995 -142492.649162,-3664584.263 -142965.830436,-3664105.08565 -142489.695948,-3663295.35317 -142752.563399,-3661798.97316 -143387.037906,-3661005.02884 -143122.816586,-3660529.5625 -142787.947086,-3660265.579 -142717.138656,-3659455.46997 -141484.0306,-3658804.57591 -140743.624315,-3657800.67775 -139951.285605,-3658347.10781 -139087.75264,-3657783.61433 -138648.150459,-3656056.43522 -140512.072063,-3653985.10261 -141189.650879,-3652999.4657 -140069.869175,-3651768.68039 -140293.454094,-3651209.24715 -140180.994888,-3649921.92526 -139769.962364,-3649608.64649 -139849.559403,-3648267.08841 -141851.903882,-3647303.47428 -141802.037066,-3645333.07325 -141875.489996,-3644226.1749 -142421.409027,-3643454.30714 -143535.581192,-3642534.46866 -144094.589471,-3641470.96893 -143570.506011,-3640390.19166 -143502.583452,-3638438.32477 -142693.443919,-3637131.51086 -143391.128592,-3635931.53056 -144124.471634,-3634182.42594 -145410.64099,-3632808.57725 -144515.755345,-3629652.71064 -142449.402185,-3626443.89164 -141499.558928,-3623818.6338 -142353.559579,-3622783.05682 -143111.493948,-3621338.66875 -145094.185211,-3619145.33756 -145393.273095,-3616749.5914 -144237.723922,-3613987.40959 -145039.219806,-3611293.60286 -145631.284241,-3608907.8399 -144500.579198,-3607833.17137 -144324.728617,-3606358.73499 -143618.026174,-3605176.64467 -143303.366771,-3603603.75858 -143393.603883,-3602427.75251 -143640.240788,-3600888.38175 -140637.178623,-3600099.72347 -140367.834534,-3598803.85124 -139787.772475,-3597690.0296 -139291.204368,-3596656.21072 -137272.086595,-3598805.6659 -136213.77919,-3602055.67124 -135681.669306,-3602924.63855 -132493.714302,-3603573.52253 -129186.045483,-3604581.85743 -127496.484454,-3601233.1201 -127246.425968,-3598817.68548 -126774.656043,-3597497.22213 -126648.002101,-3597142.52626 -126502.013735,-3595740.83577 -127079.011588,-3594784.82928 -126564.089754,-3592986.16864 -126175.840428,-3592348.28455 -126343.563288,-3592068.86767 -126279.29749,-3589305.18588 -127143.46807,-3587012.09212 -127797.215247,-3585913.41008 -128692.448386,-3585074.04267 -128860.128498,-3584682.42032 -129390.685065,-3584382.6965 -128815.885936,-3583861.60558 -128636.113143,-3582724.24373 -128020.494879,-3581829.15106 -127516.612816,-3580934.00966 -126789.313013,-3580150.66457 -126733.096863,-3579199.47488 -126173.555089,-3578808.11607 -126237.864735,-3578217.78346 -125984.36354,-3577099.84641 -125333.918723,-3576234.07482 -125277.99112,-3575282.86684 -124942.084304,-3574611.5835 -125053.84339,-3573884.29107 -124941.287721,-3573494.27545 -124829.923637,-3572373.47402 -124270.404059,-3571982.07072 -124438.049798,-3571254.76543 -124270.26722,-3570583.41338 -123860.048359,-3570409.93606 -123262.970168,-3569855.92179 -123151.1249,-3569408.51374 -122703.234876,-3568624.99744 -122647.262,-3568177.57458 -122871.06631,-3567506.11629 -122646.015144,-3567077.72144 -122647.125973,-3566554.93407 -123206.669856,-3566051.00593 -123766.45528,-3565435.84276 -123878.001733,-3564596.33581 -123638.543059,-3564012.20216 -123374.311051,-3563869.18151 -123150.432839,-3563085.59876 -122311.114479,-3562694.19389 -122143.13247,-3561966.95823 -122366.986628,-3561351.38165 -122478.854149,-3560679.96262 -122031.021433,-3559784.67416 -121540.826264,-3558844.12785 -120519.253698,-3558167.26875 -119848.878545,-3557658.53599 -119960.554262,-3557155.21538 -120434.934452,-3556654.12139 -120744.284268,-3555868.15196 -120967.611367,-3554637.06051 -120855.804784,-3553909.79608 -120569.792396,-3552629.52854 -120371.747344,-3551606.28089 -119400.778196,-3551280.15459 -119120.891477,-3550497.02569 -120072.12586,-3550440.59734 -120184.104127,-3550161.25045 -120016.214151,-3549489.8524 -120296.033385,-3549209.99965 -120239.885836,-3548706.20301 -119848.299684,-3548202.91126 -119892.571944,-3546959.66921 -119232.685878,-3546076.4667 -119288.550131,-3545181.58496 -118936.723914,-3544523.07632 -117777.85486,-3543670.65183 -117442.161939,-3542103.82994 -117515.449423,-3541122.17455 -116155.257199,-3539921.90152 -116267.048676,-3538746.65947 -114924.296504,-3537124.35594 -114140.916987,-3536452.85748 -113637.247395,-3534662.46579 -113715.050695,-3533369.88319 -114562.045192,-3532338.17099 -114980.02169,-3531193.18544 -113833.757265,-3530305.32284 -112316.094898,-3529379.92679 -111063.490691,-3528395.57453 -109720.68919,-3527612.14199 -109049.0467,-3527164.5513 -108769.348674,-3526269.53383 -108321.711231,-3525709.72145 -108321.851833,-3524982.36705 -107762.24918,-3524310.77859 -107818.259874,-3523639.30796 -108321.864586,-3522520.45038 -108435.111355,-3521975.17685 -109329.087836,-3521345.34746 -109161.296749,-3521009.57128 -109545.028356,-3520016.13996 -108623.389531,-3519160.06675 -107490.497784,-3518483.67982 -106806.470659,-3517727.54398 -106382.740636,-3516872.71353 -106350.399157,-3516517.86995 -106463.243168,-3515767.56519 -106167.693837,-3515316.41784 -105861.96782,-3514499.35921 -106006.365219,-3513847.49576 -105389.597383,-3513407.82694 -105231.520484,-3512164.7988 -104649.616079,-3512345.80715 -103435.759713,-3513249.45271 -102768.618787,-3513405.28483 -101605.306713,-3513117.24575 -99868.9881626,-3513338.76655 -98394.4958766,-3514170.5304 -97017.1211686,-3515100.0317 -94441.0952121,-3515192.13811 -93051.5624899,-3515645.02157 -92372.8928679,-3515980.31055 -91460.028408,-3516525.37412 -91215.4517391,-3517106.13997 -90591.0306805,-3517436.51477 -89473.7701425,-3517046.47776 -88625.7760311,-3516141.36068 -87607.9264162,-3515784.59754 -86949.0255797,-3515435.29365 -86877.057288,-3514827.45681 -87077.7676675,-3514370.08049 -87189.6644963,-3513950.48169 -87269.9359831,-3513297.20503 -87133.9204504,-3512691.56078 -87432.826792,-3512107.35093 -87413.696996,-3511544.0232 -87366.9230499,-3511105.16967 -87134.0128871,-3510844.87446 -86779.4971058,-3510769.41605 -86751.4703427,-3510265.69712 -86518.3871636,-3509838.24761 -86326.2493938,-3509459.11326 -85959.0394872,-3509054.16285 -85595.6425631,-3508736.92882 -85050.1156555,-3508126.6104 -85060.2092728,-3507308.51782 -85080.7640951,-3506442.24731 -84928.642985,-3505830.0207 -84739.6906857,-3505438.8139 -84740.6485037,-3505437.2917 -84692.6953969,-3505094.75861 -84507.4070421,-3504719.42043 -84258.9086794,-3504577.27528 -83983.1670985,-3504404.91068 -84049.0972838,-3504227.53031 -84117.1923252,-3504037.6185 -83895.3160434,-3503835.8894 -83726.260533,-3503745.03906 -83501.9861606,-3503291.3837 -83279.7902802,-3502954.43474 -83016.0782602,-3502679.95381 -82424.2652518,-3502206.03587 -81850.6004713,-3501796.00508 -81194.0566219,-3501564.2988 -81014.9438669,-3501337.98015 -80828.0100214,-3501098.89274 -80586.7871721,-3500768.91901 -80196.9380123,-3500366.01057 -80096.177821,-3499798.80245 -80096.096762,-3499245.90965 -79964.6478507,-3498953.46009 -79922.2757411,-3498642.19886 -80006.5500164,-3498421.91701 -80135.7299783,-3498220.41422 -80328.4092076,-3498128.01988 -80470.5002305,-3498104.32183 -80580.1544637,-3497862.41582 -80583.8445862,-3497642.25941 -80454.3547378,-3497414.62766 -80333.0790919,-3497233.68554 -80384.4046112,-3497050.69906 -80456.583986,-3496778.3421 -80586.9619383,-3496527.40935 -80217.2892129,-3496416.86932 -79901.5904493,-3496233.55198 -79662.6092793,-3495931.44954 -79434.3122905,-3495561.20006 -79228.4692284,-3495181.37674 -79034.016196,-3494836.18324 -78676.0073345,-3494353.06801 -78482.1058794,-3494028.81519 -78320.8406016,-3493721.66834 -78400.0443224,-3493051.411 -78281.6325502,-3492656.30883 -78481.2754437,-3492125.60714 -78651.9106602,-3491725.41155 -78608.4762889,-3491496.50748 -78641.5198118,-3491301.02576 -78761.9848507,-3491147.16276 -79167.8138886,-3490867.0471 -79662.9278599,-3490604.5511 -80057.2188799,-3490512.36851 -80378.4373413,-3490478.49128 -80762.7436424,-3490671.50195 -80939.4925408,-3490827.54261 -81329.113091,-3491004.44372 -81894.6636523,-3491021.03988 -82148.7787151,-3490683.53771 -82385.7547755,-3490367.94348 -82701.3210913,-3490052.28504 -82999.1421752,-3489783.00111 -83411.7571523,-3489657.41115 -83687.5142525,-3489441.10257 -84155.8316516,-3489165.85511 -84774.780507,-3488717.00616 -85470.8546014,-3488574.01204 -85970.9117033,-3488662.69462 -86548.6024199,-3488553.24378 -87133.2730749,-3488681.62156 -87709.2923618,-3488689.47412 -88290.9595056,-3488741.58688 -88869.5348837,-3488713.94594 -89454.1719623,-3488660.69954 -90027.4864467,-3488565.83812 -90570.9414949,-3488397.91488 -91063.7070381,-3488104.5874 -91529.2523592,-3487743.61945 -91995.7007297,-3487398.09854 -92459.3930774,-3487052.15397 -92919.6741296,-3486699.81554 -93371.8072749,-3486341.20733 -94149.7600722,-3485792.45666 -93903.870151,-3485614.78466 -93379.8288568,-3485227.85132 -93394.1231078,-3484544.4213 -92854.1111838,-3484176.35965 -92592.1614935,-3483642.35322 -92074.4603207,-3483402.43021 -91772.7864813,-3482913.86365 -91412.5936191,-3481942.83778 -91754.6851857,-3480857.1498 -90922.3271976,-3480500.19629 -90216.4509257,-3479188.41162 -89622.9545298,-3478348.68931 -90234.1254005,-3477677.59008 -89951.4546977,-3476645.12833 -89170.4835351,-3476077.7269 -89224.165674,-3475601.30799 -89249.595136,-3475026.83053 -88879.8804495,-3474893.76919 -88930.5940131,-3474341.58289 -88302.6215498,-3473738.23492 -87499.0176338,-3472733.29044 -87574.2736858,-3472155.50824 -87549.3596311,-3471678.13626 -88026.8627535,-3471150.75083 -88101.9303174,-3470622.87421 -87702.0232578,-3470288.49611 -87699.9693854,-3469788.07399 -87835.0326902,-3469417.80812 -87861.0381314,-3468279.45989 -87997.2521081,-3467675.14498 -88146.6348107,-3467231.65862 -88736.5715086,-3466805.65538 -88583.6097693,-3466123.54098 -88257.0706835,-3465990.82121 -87469.0153173,-3466061.21121 -87125.3135355,-3465124.57441 -87048.9735456,-3464539.25388 -86938.5050075,-3463955.8169 -87087.3107825,-3463287.80067 -86790.201442,-3462770.58488 -86825.0817414,-3462346.03872 -86739.5183969,-3461722.03093 -86697.5680514,-3461086.41072 -86393.1306748,-3460353.81186 -86515.5314688,-3459792.26506 -86406.588803,-3459122.45162 -86554.0512135,-3458757.35685 -86667.5567349,-3458179.57548 -86777.7724774,-3457599.88422 -86893.0167746,-3457021.56031 -87024.2987974,-3456445.81551 -87162.8791024,-3455872.37752 -87290.6768784,-3455296.72492 -87391.1590519,-3454716.29178 -87459.3004062,-3454129.71079 -87516.435897,-3453541.91797 -87585.1083221,-3452956.32162 -87697.386523,-3452378.07999 -87847.9828827,-3451805.33463 -87962.5501616,-3451228.5324 -88018.1932302,-3450640.28091 -88037.5451503,-3450047.47887 -88011.3762978,-3449459.84505 -87899.4238878,-3448883.40916 -87735.2308305,-3448312.81228 -87559.7384443,-3447748.99199 -86864.1892496,-3447045.9084 -86760.8471516,-3446512.65231 -86379.6667853,-3446099.34261 -86339.4694225,-3445866.34862 -86026.5422508,-3445371.43223 -85967.5863863,-3444711.27422 -87063.9587607,-3444259.32924 -87133.5079534,-3443676.69879 -87277.3184776,-3443100.13726 -87533.7279238,-3443039.13349 -87835.7319671,-3442840.22897 -88246.3122911,-3442517.27005 -88703.8427932,-3441954.08513 -89061.0181995,-3441504.76658 -89413.9990283,-3440834.50555 -89744.8246753,-3440321.00326 -90562.6176625,-3439447.16826 -90669.8186356,-3438862.58819 -90867.3919687,-3438696.82806 -91108.6021166,-3437977.56729 -91618.6429625,-3437389.11256 -91376.7455682,-3436811.52218 -91120.6383889,-3436234.29407 -91095.8969601,-3435718.47703 -91063.7907231,-3434974.31126 -91000.428834,-3434256.39574 -91173.510849,-3433078.82054 -90779.2687328,-3431406.34061 -90805.0040288,-3430348.309 -90711.7085779,-3429279.35722 -90726.0725562,-3428302.45005 -91097.5110382,-3428299.91081 -91864.1155699,-3428383.54458 -91876.4678369,-3427794.91497 -91928.5057189,-3427206.76454 -92009.0476567,-3426620.87748 -92115.7280928,-3426042.30482 -92253.7063014,-3425467.92091 -92393.9446042,-3424893.97893 -92615.2098897,-3424239.62128 -93173.2962152,-3422590.63571 -93975.1374752,-3420745.3144 -95523.1093049,-3416461.3649 -94936.5696465,-3415445.41581 -94494.9244188,-3414651.80354 -94239.7763063,-3413784.56617 -93856.1293795,-3412956.02752 -94040.1472625,-3412041.15892 -94109.6699901,-3411087.79088 -94828.5371448,-3411041.03695 -95507.3810169,-3410647.50404 -96031.7502174,-3410154.61807 -96328.2748938,-3410071.22209 -96767.0392169,-3409753.67209 -97291.3687831,-3409504.30498 -97578.4926468,-3409031.94114 -97953.1238271,-3408704.05575 -98474.4259854,-3408404.37727 -98842.5816916,-3408381.04187 -98972.2801764,-3407820.37924 -98844.8795582,-3407254.77674 -98652.9636571,-3406683.32709 -98540.646341,-3406102.3669 -98502.692418,-3405512.03036 -98458.5210138,-3404922.34938 -98340.6550023,-3404348.51028 -98155.7875848,-3403788.8451 -97953.7813103,-3403232.10723 -97792.140473,-3402663.36397 -97654.2738821,-3402087.52783 -97401.4324611,-3401562.51037 -97056.5751092,-3401078.7462 -96810.9754946,-3400544.05744 -96602.3233074,-3399990.46433 -96212.2061542,-3398282.27184 -95769.4721468,-3397795.4791 -94159.9908751,-3396174.52927 -92846.0668404,-3395199.77596 -92283.8206838,-3394989.45118 -91587.0577899,-3393782.95941 -91284.5924618,-3393022.09491 -91564.6990779,-3392732.04979 -91604.6523984,-3391885.1651 -92098.8745699,-3391457.96078 -92366.626919,-3391458.67416 -92442.1885483,-3391003.13739 -92724.5656561,-3390654.65526 -92552.3193311,-3390167.9561 -92310.7921142,-3389190.95091 -92097.0328093,-3388710.28479 -92086.8214068,-3388049.30925 -92211.6115361,-3387694.82969 -92569.1670547,-3387417.81286 -92754.8014241,-3387101.22329 -92338.7695974,-3386683.04841 -91915.6938691,-3386272.53374 -91491.6068031,-3385861.54227 -91073.1406136,-3385445.91416 -90664.1720496,-3385021.06005 -90267.1446947,-3384584.92196 -89870.103868,-3384148.28176 -89465.4951589,-3383718.31693 -89058.8904442,-3383288.39909 -88651.9849978,-3382856.48918 -88235.1685328,-3382437.30265 -87796.8605413,-3382046.60298 -87329.2060989,-3381689.57936 -86838.3740342,-3381353.59963 -86328.5049023,-3381044.54864 -85803.8399576,-3380772.30157 -85265.3911234,-3380547.3144 -84693.6473223,-3380387.54812 -84099.968926,-3380298.2075 -83511.3528632,-3380281.10853 -82930.3816139,-3380339.68096 -82350.6049609,-3380455.62181 -81772.3770362,-3380593.48655 -81192.3609583,-3380719.91945 -77801.3026282,-3381883.60276 -77412.7202361,-3381141.73559 -76960.0711237,-3380926.56082 -76883.6475169,-3380291.60345 -76998.358547,-3379912.36549 -76961.6187869,-3379158.60957 -77392.5239024,-3378294.22801 -77265.765745,-3378196.10175 -76897.3930707,-3377700.77038 -76596.1338085,-3377135.36158 -76778.2038168,-3376546.7836 -77057.973438,-3375843.93809 -77336.8850135,-3375255.41824 -77705.3592819,-3374843.83362 -77452.0224633,-3374387.01765 -77366.3458037,-3374027.3017 -77468.9050704,-3373551.03839 -77332.911632,-3373046.34 -77473.9466891,-3372492.24004 -77757.960484,-3371937.03845 -77763.5119023,-3371403.8184 -77127.7525703,-3371141.79104 -77372.6690441,-3370520.1873 -77101.5080799,-3369870.13319 -76761.2504519,-3369757.39694 -76982.6709894,-3369153.85165 -76946.6718914,-3368456.44895 -76888.0104964,-3367899.87457 -76922.9517868,-3367085.38161 -75836.2703964,-3366200.2246 -75355.2487635,-3365690.18564 -75200.3820003,-3365367.12424 -75044.6273237,-3364790.00966 -74878.9759475,-3364246.08566 -74840.6915888,-3363655.53469 -74458.4978524,-3362787.08856 -74461.3329325,-3362134.102 -74674.9988528,-3361746.87631 -73962.3807495,-3361336.95848 -73711.3092669,-3360949.40535 -73836.6295321,-3360532.44485 -73945.8311703,-3359830.85823 -73762.6295545,-3359173.53857 -73648.7927272,-3358634.77994 -73947.2677111,-3358214.97753 -74631.8397223,-3357724.60658 -74924.4318625,-3357308.95083 -74910.9906375,-3356742.21987 -74925.7201878,-3355984.59445 -74936.6108633,-3355093.28207 -75020.6261672,-3354720.28713 -74523.7484447,-3353834.68189 -73775.5043276,-3353566.86198 -73217.5292494,-3353402.10725 -72539.3317473,-3353220.89051 -72343.7379453,-3352785.48984 -72294.6424374,-3352189.67452 -72282.3928899,-3351599.92491 -72284.8512306,-3351009.30694 -72261.8691863,-3350419.32333 -72224.69659,-3349830.69102 -72172.8219403,-3349242.92337 -72097.0528659,-3348657.74735 -72002.3531746,-3348074.04026 -71881.8376765,-3347495.96742 -71721.9231594,-3346929.35891 -71525.06618,-3346372.65537 -71324.0073042,-3345817.55122 -70353.4021824,-3343140.96403 -69687.3135781,-3341654.38313 -69608.0829745,-3341199.55767 -69518.6244488,-3340614.68464 -69541.7390819,-3340029.50132 -69710.7670778,-3339459.65413 -70062.9203314,-3338986.09434 -70513.9906778,-3338605.42929 -70996.7021372,-3338262.42133 -71522.2749369,-3337996.73016 -72067.2382104,-3337768.00246 -72557.6942402,-3337435.29624 -72954.5294637,-3337001.58113 -73256.2216993,-3336485.86459 -73417.2656431,-3335925.22057 -73493.4635479,-3335335.23369 -73530.724106,-3334745.21498 -73511.8093242,-3334154.59345 -73482.681966,-3333564.72301 -73450.0898506,-3332975.9352 -73414.7441702,-3332386.7146 -73375.9212713,-3331798.07759 -73334.8436861,-3331208.99531 -73292.0350883,-3330620.45321 -73247.4954521,-3330032.45125 -73204.4307358,-3329443.41219 -71541.4868158,-3327734.26752 -70285.7307558,-3326017.47619 -70491.5083461,-3324932.46301 -70815.8289894,-3323785.10059 -70943.485921,-3323335.09419 -69164.047593,-3322174.38802 -67061.820246,-3320753.02272 -64948.9208241,-3318811.60146 -64916.7125061,-3318417.94493 -64914.1476808,-3317829.82194 -65097.3560534,-3317273.05372 -65303.7840265,-3316716.21124 -65429.5822506,-3316139.39268 -65542.0000003,-3315556.41344 -65625.3924794,-3314970.65565 -65662.3434651,-3314384.54622 -65644.3570544,-3313797.79488 -65586.1413311,-3313209.53831 -65512.9331594,-3312620.65086 -65447.2497735,-3312033.07319 -65391.7865905,-3311444.74161 -65333.8679203,-3310857.96628 -65276.9253338,-3310270.1659 -65527.1495797,-3309705.74682 -65501.2017175,-3309048.2718 -65475.0255819,-3308482.67681 -65312.1234456,-3307870.01679 -65345.5822778,-3307211.56961 -65371.9286581,-3306669.64112 -65504.9679389,-3306100.61624 -65680.4655764,-3305532.04376 -65579.0085297,-3304919.85588 -65142.859347,-3304383.31397 -65267.2556904,-3303807.50565 -65414.6975069,-3303234.62539 -65061.9660737,-3302232.12522 -64021.0567139,-3300942.4288 -63619.541469,-3300829.46027 -63572.0655905,-3300838.11815 -59670.0101491,-3301386.05416 -57597.4741119,-3301523.48106 -56173.9944922,-3301159.5347 -55054.3344386,-3300601.32903 -54162.5072574,-3300220.28558 -53391.6889551,-3300119.42137 -52473.8688575,-3300224.44276 -52054.4389609,-3300571.88341 -51230.4161797,-3301088.61644 -50403.2816866,-3301661.37021 -49939.6528272,-3302302.07285 -49330.6139843,-3302544.83859 -48807.5888313,-3302569.73596 -48456.5631236,-3302410.59685 -48013.4403308,-3301960.06994 -47267.7088745,-3301319.23607 -46611.4609002,-3301005.81179 -45841.2604307,-3300881.48876 -45415.0259793,-3301095.28393 -44995.0139079,-3301075.6897 -44574.2606225,-3301026.14811 -43869.9540048,-3301457.08351 -43573.7756179,-3301770.0605 -43289.8348437,-3302406.37587 -43154.8994788,-3303009.04225 -42673.8817724,-3303380.53388 -42207.6620202,-3303481.96308 -41974.0006846,-3303727.47568 -41416.8347639,-3304220.7265 -41212.7601706,-3304521.44805 -40554.6433371,-3304931.29967 -37932.8796105,-3304966.24532 -35329.2509265,-3304233.59248 -31736.944609,-3307312.02592 -18962.4350235,-3321163.28273 -19355.3016717,-3321443.66897 -19729.1847444,-3321853.89623 -19824.2267681,-3322299.06265 -19860.667081,-3322907.52642 -19721.5033615,-3323784.10792 -19835.980684,-3324956.02967 -19878.2411138,-3326245.62939 -19718.78285,-3327028.80688 -19322.5833302,-3327961.7617 -19239.355922,-3328657.1194 -19034.9337651,-3329738.10987 -18982.636294,-3330371.75374 -18611.3114504,-3331100.30281 -18606.5186595,-3331755.72984 -18234.8103651,-3332548.22295 -17690.4435033,-3333665.21164 -15678.2357582,-3336028.79069 -15242.2619798,-3336935.79965 -14361.5539106,-3338827.46586 -14143.0381871,-3339333.93214 -13521.8351408,-3340847.976 -13514.5040872,-3341747.20537 -13588.7300601,-3342314.72951 -13943.0579945,-3343294.74702 -14329.2304016,-3343992.25784 -14620.8389423,-3344554.29517 -14939.5770569,-3344993.77819 -14870.5126251,-3345582.87808 -15162.0044652,-3346051.01218 -15364.7101121,-3346325.59657 -15544.3958462,-3346796.54457 -6188.56727191,-3353839.95611 -3447.86412068,-3356174.4471 -1118.17024989,-3358357.26667 1757.23239552,-3360626.4396 2552.33590031,-3361210.04593 2670.31085777,-3361284.96767 6442.51622976,-3364016.13602 7112.64549906,-3365163.0402 7841.70490354,-3366417.84464 7375.08905031,-3367353.51247 7585.62850219,-3368040.18124 8013.21487878,-3368274.84084 8234.90561456,-3369386.36585 8592.33262092,-3370610.23777 8973.87564367,-3372455.09321 8763.01243025,-3374426.68997 8450.58935273,-3375904.68464 7654.81639013,-3377268.93406 7139.84893114,-3377386.65335 5967.28833023,-3376458.67952 5631.02614187,-3376619.92139 5734.38077312,-3377531.59448 5024.04682903,-3378934.44976 4745.3187586,-3379913.7745 4181.1503631,-3381362.28596 3970.08792121,-3382194.98294 3222.52995241,-3383275.1812 2563.84279725,-3383496.58948 2429.16908844,-3384056.52517 2210.91960615,-3384495.95442 1597.44946001,-3385273.89178 1114.07783704,-3386071.62854 761.507953227,-3386744.34746 1110.40254396,-3387338.6078 1746.25098869,-3388253.85684 2150.18157604,-3388863.51587 2569.57469595,-3389337.22678 2051.9387839,-3390828.77995 2393.73555074,-3392225.95809 2389.04718967,-3393900.43395 2737.7892209,-3395171.43234 2560.8485599,-3395751.72829 3100.98562219,-3396199.58096 3159.33581186,-3397429.67291 2721.55861642,-3397771.53848 1711.82219134,-3397903.95575 1351.96063358,-3398761.71954 1157.99048712,-3399382.51491 1158.75033059,-3400384.36568 1421.55039214,-3401352.98759 1748.93454345,-3402198.41524 1943.67607138,-3403064.9093 2096.09889168,-3403789.98081 2332.87454247,-3405177.44618 1945.16051162,-3406106.87485 1824.60306944,-3407648.94951 1420.71836203,-3408925.03308 925.277514009,-3410003.48275 1237.90039205,-3411138.67969 1846.35338385,-3411209.2779 3037.26817909,-3411943.10624 3663.0830022,-3413782.56372 3575.04637609,-3415425.33787 2803.29085704,-3416623.48265 2685.06134761,-3417538.33017 2174.8318713,-3418229.31975 1593.54107514,-3418693.74335 788.925860152,-3418523.16982 510.165726187,-3418875.54001 206.892645394,-3419723.16812 -77.3503427331,-3420500.86875 -610.035426737,-3421471.90534 -860.192259586,-3421905.90246 -1175.18978798,-3422462.56909 -1436.2256721,-3423955.95869 -1981.93597177,-3426136.10952 -2148.11394357,-3426692.1092 -2082.41464648,-3427560.21456 -2060.93081891,-3428013.69814 -2039.38399948,-3428464.68619 -2043.0707562,-3429369.94567 -1810.6529955,-3429931.25492 -1349.05062691,-3430406.61167 -1118.40411626,-3431132.67064 -1145.71301234,-3431936.94629 -1024.10771514,-3432274.17175 -902.043049121,-3432612.90759 -982.702680429,-3433326.91263 -603.011503647,-3433918.01032 -751.41734503,-3434625.26541 -362.424229877,-3435242.57439 654.830047165,-3435298.89651 2234.01304991,-3435639.44886 3672.42169234,-3437085.98832 4853.104606,-3437475.16732 5405.13015946,-3437765.64708 6241.35901758,-3437091.69271 6932.38486965,-3437019.72755 7194.45549901,-3436157.58162 7275.80970534,-3434580.10583 7218.40312558,-3432922.12015 7411.38834045,-3432518.6133 8694.6175226,-3433375.37824 9419.81795449,-3433700.31013 9981.57761209,-3433491.13902 10777.2022934,-3432939.44152 11244.6556815,-3432264.86761 11634.8307395,-3431556.32375 11890.7383908,-3432116.80607 12005.1963589,-3432980.26339 12083.0078663,-3433677.46448 12413.9538362,-3434348.26882 12862.7816773,-3434806.38618 13550.4805482,-3434979.54331 14363.8823753,-3435360.72627 15384.7903354,-3435145.49487 16858.2138116,-3434948.49694 17392.8509831,-3434756.10558 17846.5540065,-3434622.54398 18782.7987401,-3434476.03234 19148.6842729,-3434214.33294 19634.7066332,-3434269.39719 20451.6073739,-3434035.88168 21024.08143,-3434156.62011 21511.06331,-3434088.34881 22250.5569944,-3434316.81028 22586.7987101,-3434100.78628 22728.9306361,-3433675.94796 22890.8760508,-3433488.36216 23851.5070246,-3433125.21865 24619.0356213,-3433332.4347 25505.0258269,-3433642.12146 26270.0549071,-3434157.44739 27038.0939272,-3434412.63721 27920.9987691,-3434322.18685 28362.2170378,-3434411.06281 29169.6634713,-3434687.76254 29510.882003,-3434992.3124 29822.0486784,-3435694.16126 30160.1988354,-3435741.90631 30537.5648592,-3435731.73301 30831.0024246,-3435972.11282 31122.7272745,-3436076.59203 31231.0109091,-3436676.27828 31565.3895009,-3436590.56885 32228.7968532,-3436115.82736 32868.1436839,-3435884.70292 33544.8542656,-3435868.82651 34200.5211719,-3435922.83126 34763.9360398,-3435798.12046 36074.6627176,-3436189.33021 36926.8426865,-3436523.67089 37760.7076517,-3436794.10427 38383.6233148,-3436571.54578 38950.926047,-3436480.40665 39225.5073653,-3436197.83815 39830.533818,-3436173.61355 40392.5637265,-3436218.20174 41277.1433132,-3436248.70328 42216.1243039,-3436281.12154 42670.2801922,-3436296.43305 63981.3311867,-3438881.16634 64172.6556115,-3439446.67498 64134.5468263,-3440256.48411 64502.8468327,-3441429.59198 65544.5219396,-3442192.64509 66403.7024357,-3443277.16544 67906.2307068,-3443514.2292 68694.6473113,-3443606.75712 70346.9424704,-3443800.78418 71382.8272166,-3444259.98455 71613.5711997,-3444405.89693 71952.6938294,-3445059.72418 72143.1090363,-3445448.88246 72591.7200981,-3445812.81563 72824.6906798,-3446590.2689 73009.6630019,-3447206.60009 73384.8338644,-3448544.81393 73674.1721997,-3449028.98784 74208.562177,-3449780.35847 75435.8396478,-3451344.712 76921.3502772,-3451498.49728 78012.6893068,-3451499.5853 78542.2105381,-3451759.24895 79038.1239513,-3453006.7415 79276.2447332,-3453538.55535 79577.7196904,-3455075.22416 79746.9478314,-3456882.20777 79535.2672942,-3458544.31229 80128.0369249,-3459497.09585 81789.7410394,-3460267.08992 82093.9856774,-3460581.82471 83047.1097943,-3460614.82024 84376.5905398,-3460661.18829 87250.8318364,-3460795.05611 87865.9885716,-3461208.89198 88406.1860988,-3462765.38226 89343.4937906,-3464438.7246 90445.3829944,-3465124.16239 91480.0663218,-3465762.37766 92034.4123895,-3466531.86984 93381.6312171,-3468471.33833 94578.7913524,-3469960.71817 95487.0564987,-3471520.45636 96522.6658513,-3473632.64791 97415.9376988,-3475191.51738 97949.4931836,-3475791.13009 98676.9504064,-3476578.71675 99478.8193862,-3477623.58071 99519.8777574,-3477677.12358 100945.308907,-3478446.13799 102108.710539,-3479508.04182 102947.853556,-3480389.53472 103925.652665,-3481564.48115 105407.739182,-3483595.63374 111547.671986,-3489189.8491 116411.726857,-3493137.73451 124008.681056,-3500081.68619 125472.301689,-3501419.58538 127631.224301,-3503116.19424 128312.190777,-3503723.85247 129041.421795,-3504254.34182 130893.642692,-3506201.71387 132823.729859,-3508425.50805 134795.854333,-3510062.30897 135844.685659,-3511627.68016 136509.083763,-3514724.93188 137147.143591,-3518897.84587 136898.602873,-3520749.62158 137048.17787,-3522098.2781 137800.651752,-3522825.33486 140028.27033,-3524689.426 141057.024865,-3525550.26391 143231.577425,-3527296.05741 144872.58875,-3528613.43433 147419.077698,-3530438.62473 149726.106875,-3532155.03636 150985.009475,-3533231.43538 154203.335449,-3535218.99827 156368.565713,-3536443.47452 158218.684089,-3537838.48645 160036.609841,-3539410.5641 160062.505599,-3539432.74207 160805.506044,-3540075.1927 162796.100228,-3542735.83267 165333.542455,-3546536.00031 165339.019411,-3546546.14114 165396.176584,-3546783.04434 165421.362205,-3546888.16231 166036.116347,-3549436.7613 166711.210183,-3551727.11098 169241.255717,-3555165.38316 170708.689801,-3557961.66659 172780.203674,-3559910.0041 174826.961773,-3560950.63068 176705.34035,-3561905.81258 178113.109964,-3563463.66413 179295.283208,-3565141.4509 180141.227223,-3566814.77462 180910.348893,-3568978.83616 181278.97273,-3569969.73668 181819.432715,-3571422.52419 182477.163659,-3573387.22471 182397.006651,-3575350.22163 182441.185011,-3575370.89293 179871.916375,-3588877.85245 179739.016327,-3589576.99808 179741.406612,-3589581.0603 179745.950825,-3589588.67865 183969.470709,-3596490.84303 183451.185397,-3600178.98134 180156.369679,-3623614.69514 179240.779944,-3631366.3698 182432.410902,-3636783.8109 182426.626654,-3636785.15504 182428.989878,-3636790.2169 183089.933493,-3638226.51674 183266.827017,-3638786.59281 183341.798982,-3639177.48431 183406.049661,-3639846.50116 183432.752405,-3640527.0067 183456.403514,-3641209.43096 183505.903158,-3641878.55546 183534.297143,-3642254.20361 183538.760852,-3642311.30614 183556.637181,-3642548.21435 183603.860455,-3643218.28015 183648.099297,-3643887.76728 183693.099866,-3644556.77643 183741.832265,-3645226.38713 183786.014622,-3645897.87636 183817.904768,-3646571.03599 183857.090298,-3647242.39372 183928.903175,-3647908.63179 184047.882717,-3648568.14177 184153.511355,-3649380.25091 184311.009707,-3650075.7903 184485.978368,-3650883.7701 184787.84758,-3651852.12175 185242.918075,-3652393.2146 185692.012165,-3652905.65582 186170.676859,-3653498.87212 186656.187571,-3653893.3268 187330.595093,-3654494.3089 187764.151302,-3655268.76954 188232.216061,-3655949.68501 188790.973621,-3656604.04879 189235.621343,-3657207.85783 189953.252358,-3657596.06401 190485.098958,-3658173.22762 190724.442465,-3658623.05622 191053.889981,-3658789.37702 191307.409755,-3659483.53024 191394.288007,-3659896.26949 192346.062514,-3660677.18647 192799.814015,-3661630.67223 193922.31594,-3662234.72599 200798.649914,-3662409.0426 201203.394649,-3662582.88251 201434.558766,-3663216.96375 201563.561571,-3663811.30946 201734.44567,-3664456.2719 201812.535303,-3665047.7529 202037.493208,-3665494.21049 202066.637792,-3666279.3411 202192.059615,-3667118.55113 202246.995976,-3667901.87986 202232.199417,-3668740.82621 202602.337159,-3669412.15228 202635.624618,-3669457.03887 202971.48354,-3669906.48534 203798.861698,-3670417.13268 204466.245209,-3670538.04789 204900.88804,-3670753.19119 205233.353421,-3671310.53013 205698.250988,-3671925.41964 205837.642648,-3672496.07073 206122.553321,-3673065.13406 206362.880735,-3673665.49568 206532.046939,-3674169.96163 206785.756542,-3674607.21116 206989.251806,-3675201.58792 207146.661396,-3675808.72575 207302.730904,-3676177.36466 207448.310248,-3677113.13895 207567.175924,-3677787.23615 207810.771707,-3678377.69934 208161.279159,-3678729.07058 208414.265292,-3678960.83774 208969.051108,-3679356.69351 209690.120688,-3679704.02435 210275.24097,-3679836.22973 210882.028179,-3679897.02561 211689.771476,-3679949.22018 212266.31312,-3680680.11617 212527.425234,-3681307.55322 212736.560979,-3681971.5913 212930.902692,-3682618.73582 213065.413425,-3683287.77229 213196.520959,-3683953.21961 213404.902235,-3684580.24904 213742.146494,-3685146.74864 214169.829762,-3685668.68389 214642.033786,-3686161.81907 215203.16249,-3686713.33808 215361.94977,-3686869.58828 215714.104163,-3687300.00656 215859.35767,-3687466.89253 215878.533161,-3687478.90647 214162.203001,-3687376.30806 213505.432728,-3687416.65744 212912.946433,-3687706.7081 212333.51372,-3688069.10098 211693.292526,-3688256.37549 211032.445345,-3688392.5987 210367.144852,-3688499.2032 209701.570659,-3688578.80113 209031.146099,-3688634.26918 208518.095246,-3688665.96983 208360.598597,-3688675.73348 207691.523573,-3688718.23546 207391.112732,-3688734.65413 207020.612021,-3688754.68683 206349.612553,-3688785.13464 205678.801896,-3688808.58645 205007.376973,-3688827.02047 204337.336171,-3688840.49047 203665.289986,-3688844.90571 202995.012264,-3688839.36787 202319.084348,-3688830.17662 201636.778125,-3688825.81138 200960.269793,-3688801.10275 200301.681937,-3688732.87989 199735.688289,-3688428.67633 199188.834101,-3688109.98963 198843.274129,-3688160.17859 198483.157395,-3688193.97701 198170.911869,-3688223.06467 197925.392703,-3688243.45004 197501.749463,-3688278.53593 196832.668417,-3688331.00788 196162.189375,-3688370.44193 195491.372983,-3688403.86579 194821.218445,-3688431.30642 194149.72752,-3688452.70998 193960.646628,-3688456.61427 193478.42591,-3688467.11774 192808.009182,-3688476.54821 192136.256238,-3688479.94168 191465.219279,-3688475.35376 190793.689848,-3688461.2521 190123.024691,-3688433.67386 189453.548384,-3688399.12698 188782.432541,-3688360.5348 188113.005216,-3688314.98751 187443.437146,-3688265.43539 186773.964676,-3688212.38476 186105.552785,-3688147.86284 185437.627405,-3688065.35519 184771.451948,-3687982.89328 184103.732522,-3687911.38658 183435.063791,-3687865.84877 182765.939539,-3687874.28866 182095.622788,-3687917.68911 181423.220704,-3687955.03233 181079.479462,-3687975.24943 180717.843005,-3688019.47906 180031.454628,-3688037.9438 179396.421466,-3687394.90193 179262.355572,-3687046.33982 178279.466976,-3686261.43242 177941.76308,-3686187.82573 177595.554314,-3686132.98578 176915.107231,-3686033.6263 176250.748686,-3685940.19889 175582.881773,-3685865.67194 174912.532461,-3685809.07319 174242.225348,-3685769.47092 173572.62866,-3685749.88252 172900.123989,-3685754.70929 172228.369931,-3685778.05107 171558.183149,-3685817.43031 170889.759283,-3685874.85187 170222.348879,-3685950.2954 169555.654802,-3686036.25428 169206.106809,-3686086.79343 168558.679551,-3686199.76491 167836.424626,-3686242.22481 167227.497926,-3686271.75028 166570.374977,-3686234.98399 166035.800299,-3686232.52422 165294.47793,-3686056.00606 164667.770556,-3685994.56351 164087.925731,-3685937.88667 163390.632987,-3685852.53666 163325.006152,-3685839.2636 159929.371858,-3686665.67057 156319.547645,-3687279.76426 156258.786084,-3689375.14872 156455.867563,-3691381.55741 156681.113253,-3694635.49875 156889.837988,-3696764.74836 156886.03549,-3699200.20021 156619.062577,-3701007.14297 156243.898541,-3702535.70626 155869.583841,-3704152.28464 155479.410322,-3705330.50732 155235.072606,-3707489.54689 155027.909867,-3709319.15913 154616.505615,-3711047.74805 154301.193481,-3713047.9231 153968.914867,-3714853.17372 153617.89037,-3717301.35612 154702.960951,-3719905.60716 155156.859194,-3723235.17886 155627.179912,-3727834.69173 157648.671277,-3731727.06324 158807.721248,-3733782.07195 160699.501506,-3737841.07003 159330.965039,-3737795.81596 159340.90228,-3737871.58738 157108.336579,-3737873.29275 157077.590655,-3737735.45464 157065.994135,-3737720.63873 156970.333103,-3737598.03276 156909.015477,-3737490.36233 156710.251923,-3737444.94849 156580.249935,-3737362.40739 156495.667747,-3737246.10345 156357.825559,-3737139.34888 156097.741204,-3737261.7643 155868.243933,-3737124.01286 155975.409116,-3736833.43283 155699.404771,-3736512.41597 155500.416065,-3736328.49665 155347.161685,-3735869.82593 155073.449327,-3735574.87324 154857.407208,-3735548.98837 154673.564281,-3735396.48226 154627.421444,-3735089.72995 154421.40743,-3734870.12154 154106.984733,-3734922.55487 153751.212707,-3735171.35733 152850.103448,-3735322.80039 151954.906602,-3735605.89686 151766.932371,-3735614.27303 151326.424623,-3735633.26488 150355.565999,-3735647.2965 149661.689065,-3735175.89055 148988.542825,-3735182.0344 148350.329863,-3735273.12574 148109.462988,-3735158.56017 147734.406343,-3734867.84098 147369.269592,-3734818.38307 146959.251609,-3734572.20845 146749.240169,-3734462.98409 146505.813487,-3734497.34177 146379.632477,-3734320.90725 146216.975152,-3734244.47318 145959.592139,-3734258.95042 145777.451483,-3734099.48856 145569.827759,-3733847.83616 145346.189684,-3733624.2458 145485.993103,-3733512.06604 145386.551817,-3733271.86568 145149.90502,-3733204.41275 144993.453571,-3733129.6482 144749.603096,-3733142.99391 144699.278539,-3732852.63739 144547.810664,-3732723.51209 144363.198513,-3732837.96793 144170.520067,-3732945.70381 143971.367647,-3732869.27377 143774.107725,-3732604.40695 143531.175684,-3732364.29266 143332.794376,-3732131.39406 143179.094628,-3731946.71193 143117.084599,-3731736.53402 143007.639673,-3731579.05822 142937.673127,-3731330.66642 142937.328144,-3730995.18127 142965.222607,-3730714.96313 143139.936432,-3730514.24544 143047.868103,-3730361.24484 142955.813789,-3730180.24695 142751.886876,-3730095.68919 142649.718742,-3729891.41754 142632.666111,-3729755.96309 142683.408526,-3729517.86687 142853.1875,-3729415.50748 142938.09591,-3729262.83651 142819.022776,-3729110.10046 142700.144411,-3729041.8628 142447.004695,-3728974.46191 142422.53611,-3728744.31399 142665.39115,-3728446.46544 142691.29385,-3728184.19502 142605.394184,-3727878.37887 142451.373489,-3727714.69202 142165.676321,-3727640.40484 141983.503994,-3727234.97302 141815.14764,-3726817.92037 141611.342984,-3726637.37826 141479.464162,-3726486.79554 141538.088369,-3726280.41565 141575.789095,-3726080.46444 141310.874268,-3725629.28462 141352.857369,-3725418.95208 141308.645217,-3725307.7579 141212.386261,-3725290.13403 141048.552758,-3725367.1566 140877.674025,-3725674.96208 140642.932281,-3725758.04903 140408.408348,-3725860.63947 140282.506885,-3725811.70959 140265.795133,-3725663.76962 140380.303789,-3725433.91884 140421.207103,-3725144.06663 140343.605946,-3725028.96232 140149.549322,-3725022.66875 139954.51669,-3724978.85261 139853.263572,-3724851.10456 139723.381471,-3724609.0887 139519.626475,-3724408.55289 139324.526971,-3724339.7379 139116.462465,-3724178.08017 139230.333877,-3723980.71073 139341.474562,-3723929.24919 139619.139827,-3723830.33632 139684.68407,-3723645.14663 139617.874516,-3723436.84926 139416.70377,-3723324.87496 139208.961281,-3723307.20972 139021.296494,-3723369.0822 138875.086338,-3723469.08075 138635.442313,-3723704.51303 138479.476933,-3723777.24835 138389.540168,-3723885.2809 138445.78356,-3724169.2808 138367.631621,-3724285.13405 138169.108603,-3724250.22076 137929.953319,-3724183.70236 137667.330252,-3724253.52637 137501.330399,-3724437.47295 137234.137151,-3725242.5813 137049.848243,-3725373.03478 136760.469108,-3725470.62296 136613.362344,-3725383.6174 136329.585666,-3725211.89099 136188.666522,-3725237.04044 136056.741614,-3725353.92393 135944.374809,-3725541.83253 135797.911862,-3725669.31752 135635.098632,-3725672.37127 135490.04738,-3725528.4283 135490.923715,-3725386.47006 135368.985604,-3725201.66375 135169.863432,-3725069.74322 134894.149973,-3724923.23312 134677.098691,-3724935.30418 134371.17075,-3724952.44705 134119.459107,-3724970.57007 133776.635594,-3725020.69987 133504.634376,-3725122.75656 133295.020195,-3725311.00542 133115.077253,-3725447.07152 132890.416923,-3725627.9097 132697.846424,-3725704.63821 132606.663423,-3725794.13492 132551.114452,-3725942.59731 132425.217225,-3726012.648 132212.936896,-3725987.35094 132059.211614,-3725831.67141 132026.185762,-3725558.3063 131847.828226,-3725398.45481 131805.763064,-3725446.79868 131736.574311,-3725444.90835 131685.279487,-3725337.02171 131663.532228,-3725208.94538 131736.277195,-3724915.97433 131667.033247,-3724641.62138 131389.071158,-3724449.5542 131129.472186,-3724509.45213 130815.501055,-3724619.85644 130641.155357,-3724642.58868 130636.648687,-3725109.3976 130475.606766,-3725340.46297 130220.286529,-3725536.45632 129988.137258,-3725479.1191 129730.033983,-3725347.08319 129469.529032,-3725211.48215 129147.139476,-3725145.17904 128905.881569,-3725165.08061 128547.46418,-3725273.7653 128201.482447,-3725293.30271 127787.056744,-3725265.47521 127455.363664,-3725210.41358 127123.690589,-3725072.36514 126820.024133,-3724879.09128 126322.386456,-3724658.51712 126004.962947,-3724511.35966 125777.017167,-3724309.65851 125749.172069,-3724029.94355 125466.773092,-3723753.76651 125091.334389,-3723826.98535 124937.314476,-3723673.29889 124825.553781,-3723729.23229 124685.494404,-3723869.37701 124764.85439,-3723974.5298 124909.675327,-3724162.95915 124949.71944,-3724353.02237 124796.348806,-3724550.29358 124523.940926,-3724694.81689 124164.17833,-3724925.93494 123888.722742,-3725017.38254 123692.460068,-3724982.51812 123391.542188,-3724807.81378 123261.266179,-3724654.27542 123244.670283,-3724520.84449 123095.616017,-3724423.28281 122750.692453,-3724431.84242 122447.025905,-3724549.51118 122207.420577,-3724691.92824 122048.01355,-3724689.56568 121894.276333,-3724808.83651 121816.00378,-3724947.16944 121824.777218,-3725704.27663 121691.988415,-3725816.12199 121489.12829,-3725830.56578 121241.958113,-3725765.31017 120992.541528,-3725599.51072 120754.120527,-3725515.99774 120250.421424,-3725362.23368 119900.36513,-3725229.67245 119880.38526,-3725128.64391 120096.240681,-3725068.56553 120292.275594,-3725166.41531 120411.118591,-3725089.18336 120410.895684,-3724914.70912 120242.778297,-3724746.63704 120083.628246,-3724862.75806 119927.221727,-3724796.48774 119816.006334,-3724585.98173 120011.780678,-3724382.88005 119927.581613,-3724208.10757 119759.607095,-3724117.02575 119752.476918,-3724121.82962 119747.372214,-3724125.68912 119724.192299,-3724141.55146 119626.894788,-3724207.87487 119542.349423,-3724137.07341 119479.376754,-3723780.41739 119465.546298,-3723445.60335 119332.949822,-3723340.49349 119143.255847,-3723339.79998 118997.680092,-3723288.82413 118846.151182,-3723236.18558 118687.883214,-3723228.85349 118214.324105,-3723508.33061 117956.041751,-3723712.21689 117741.808996,-3723868.31858 117507.780589,-3723825.41732 117382.181987,-3723656.51106 117309.732208,-3723536.55086 117158.777468,-3723599.90344 116913.671013,-3723824.64425 116402.702633,-3723818.14829 115691.107927,-3723626.19276 115630.803978,-3723911.48145 115806.371086,-3724564.65837 115689.431282,-3724608.94511 115503.365628,-3724621.84392 114632.648332,-3723952.12194 114334.541598,-3723748.49552 114177.596841,-3723784.18682 114042.326775,-3723712.99481 113912.144676,-3723556.46059 113660.262916,-3723070.66288 113295.312795,-3722880.20292 113148.780072,-3723001.16018 113071.655737,-3723134.01703 112283.83224,-3723580.82298 112060.970674,-3723550.2201 111801.796929,-3723403.64745 111656.624732,-3723566.13091 111501.497091,-3723672.35385 111294.644774,-3723632.19122 111014.841151,-3723527.04283 110839.776869,-3723485.25197 110623.138679,-3723355.34118 110177.387239,-3723550.57251 109964.908541,-3723177.83173 109859.955047,-3722940.00907 109754.89062,-3722779.16565 109754.782011,-3722555.21556 109712.790962,-3722464.08567 109581.606861,-3722399.00375 109488.234642,-3722340.45719 109384.909533,-3722307.63155 109279.999846,-3722305.25513 109084.945083,-3722381.88747 108993.4182,-3722438.36374 108929.551733,-3722516.09345 108902.04589,-3722616.81487 108893.579155,-3722725.05671 108890.730191,-3722828.95372 108878.959063,-3723048.57849 108815.229176,-3723121.31314 108593.975748,-3723114.24586 108509.855125,-3722927.983 108523.953671,-3722814.89689 108556.191353,-3722714.80524 108597.283063,-3722619.95519 108674.844264,-3722425.62945 108696.424526,-3722322.24635 108613.58204,-3722025.54642 108530.101497,-3721961.77247 108434.22209,-3721912.6549 108238.545617,-3721838.80632 108137.626269,-3721818.54339 108033.172595,-3721808.68091 107952.98087,-3721861.96822 107731.122757,-3721904.37235 107648.665077,-3721867.1198 107518.883354,-3721760.08657 107426.602663,-3721488.62338 107380.665254,-3721377.39137 107363.798708,-3721235.96447 107305.451932,-3721148.88616 107256.507926,-3721010.57885 107189.798555,-3720973.25863 107129.662541,-3720887.63106 107033.407184,-3720870.49529 106947.361862,-3720809.1509 106826.223145,-3720696.85709 106604.807101,-3720531.82651 106467.831515,-3720441.09292 106384.865776,-3720376.83395 106215.875416,-3720268.72685 106179.670021,-3720094.27961 106285.62431,-3719803.26264 106437.544938,-3719513.00625 106344.143121,-3719364.48409 106190.732441,-3719289.79657 106138.352746,-3719203.88299 106065.969302,-3719127.4183 105790.127685,-3718969.39552 105525.074045,-3718791.67412 105454.042868,-3718693.25278 105380.054306,-3718511.27333 105300.418343,-3718444.10762 105100.669636,-3718373.14861 104993.194712,-3718364.20327 104887.153029,-3718366.79399 104782.804805,-3718371.43055 104577.718574,-3718349.31126 104494.745146,-3718376.52768 104360.362699,-3718391.83717 104061.258933,-3718316.65325 103961.835282,-3718278.43656 103742.343971,-3718243.92494 103643.557009,-3718200.72707 103501.670305,-3718061.37412 103459.791801,-3717966.25233 103364.048336,-3717976.12288 103311.318302,-3717875.70498 103227.015589,-3717632.46206 103195.96768,-3717561.63071 103178.519509,-3717459.68147 102845.625851,-3717477.54374 102771.770343,-3717509.50824 102697.69564,-3717549.46437 102574.771031,-3717593.57897 102304.189464,-3717617.64797 102206.334039,-3717576.97489 102082.839607,-3716940.27389 102145.945555,-3716799.04708 102094.413191,-3716709.65981 102024.356993,-3716694.24239 101958.66875,-3716474.00589 101946.017502,-3716361.19255 101936.428382,-3716236.96671 101955.223869,-3716107.5212 101929.216301,-3716007.83773 101885.217149,-3715917.15805 101825.056793,-3715832.53326 101791.212469,-3715699.64506 101694.29762,-3715570.02585 101580.659131,-3715503.42879 101497.177626,-3715421.66368 101459.558987,-3715326.16094 101347.466612,-3715276.10136 101358.324073,-3715180.92845 101388.303385,-3715017.30119 101366.42852,-3714912.73339 101452.250594,-3714827.11396 101510.103984,-3714667.75009 101419.982853,-3714563.81035 101281.851704,-3714287.60751 100972.229198,-3714140.66093 100854.269745,-3713976.47707 100612.880415,-3713674.45161 100578.644578,-3713455.58226 100670.920725,-3713380.63709 100759.934857,-3713224.12841 100757.176297,-3713115.0876 100759.92549,-3713005.698 100583.815685,-3712865.91299 100432.993876,-3712906.7634 100349.740332,-3712762.02677 100509.827,-3712483.50728 100991.544623,-3712114.33657 101121.194562,-3711997.92921 101069.118717,-3711864.54453 100828.592263,-3711686.00757 100671.060811,-3711625.20799 100512.475855,-3711566.37886 100410.154882,-3711561.07491 99791.6785064,-3710993.30378 99668.0101372,-3710845.96194 99602.3145434,-3710835.66395 99555.5035808,-3710756.40694 99369.6723554,-3710697.83089 99255.3385587,-3710656.70951 99172.1473404,-3710719.40703 98924.0013679,-3711019.50054 98593.2639619,-3711433.28987 98395.3311913,-3711478.84538 98219.2882801,-3711555.49057 98172.3778545,-3711662.16771 98096.2802975,-3711621.09412 98017.8316116,-3711483.48877 97675.7397296,-3711336.15469 97677.8193187,-3711214.75324 97744.383091,-3711093.12081 98458.8553362,-3710620.3792 98219.3986635,-3710585.32383 98104.4577841,-3710320.26248 98190.3604718,-3710122.18665 98227.3798943,-3710020.73689 98274.2257779,-3709816.09228 98277.4635458,-3709716.21564 98447.1441851,-3708905.15048 97913.7010799,-3708353.71845 97720.6032232,-3708332.43153 97667.9748627,-3708465.44128 97186.0644774,-3708377.25837 97017.5157228,-3708335.65134 96897.1094107,-3708260.87634 96562.5965941,-3708110.75714 96191.0998408,-3708079.08068 95986.8706623,-3708153.9524 95906.3768119,-3708227.71791 95623.8020662,-3708680.80274 95442.6572824,-3708715.82111 95356.4221296,-3708679.96863 95304.1403633,-3708581.57033 95145.2755661,-3708341.8002 95082.0513108,-3708214.11279 95002.1223695,-3708121.45438 94935.7838722,-3708052.66004 94820.9265308,-3707894.06806 94746.6671221,-3707904.52723 94545.767866,-3707821.54717 94497.0381592,-3707684.76136 94107.8753047,-3707313.22534 94035.8937381,-3707213.28844 93946.0234827,-3707173.33828 93756.25482,-3707176.63142 93657.0201325,-3707213.89511 93457.9070568,-3707311.89571 93360.4372738,-3707357.70435 93048.8944573,-3707646.0476 92925.7321745,-3707653.66545 92651.5761607,-3707781.59435 92541.4615316,-3707769.07759 92429.5112304,-3707823.4849 92233.2145816,-3707882.5757 91775.60069,-3708330.34597 91654.8900262,-3708285.05022 91547.4921533,-3708264.61034 91439.3040953,-3708245.64817 91343.4616356,-3708141.05775 91256.9640358,-3708142.18318 91193.4022657,-3708154.43383 91110.1890767,-3708145.15337 90930.0024797,-3708008.76025 90903.7181454,-3707819.11232 90870.2193659,-3707628.26704 90834.9218315,-3707329.9146 89578.7095423,-3707956.68564 89708.8744701,-3707038.12216 89613.69888,-3706891.06814 89470.4446724,-3706838.65678 89228.956394,-3706741.56675 89096.758425,-3706686.95975 89063.5696913,-3706548.60432 88271.9464936,-3706865.24429 88010.8432893,-3707309.89544 88039.307054,-3707511.09588 88076.8511445,-3707609.08738 88174.6025317,-3707917.14803 88182.3926799,-3708024.81888 88175.6994816,-3708132.09221 88115.7371778,-3708331.8658 87794.7442482,-3708745.88488 87731.9691301,-3708829.62731 87667.5008148,-3708911.32402 87515.3761582,-3709054.58837 87305.7043592,-3709145.79242 87091.8795182,-3709133.42341 87025.4636516,-3709067.62521 86996.2845554,-3708965.36461 86997.1913661,-3708850.43564 87021.1841247,-3708741.13863 87103.5118886,-3708545.9786 87152.6041175,-3707932.07487 87120.0382782,-3707825.72355 86851.9097848,-3707661.42615 86736.1216866,-3707682.73724 86662.9495955,-3707744.70218 86501.4463346,-3708184.08691 86425.2585971,-3708273.95747 86092.8518838,-3708348.29555 85990.5834897,-3708350.4851 85925.9242739,-3708266.24319 85791.6738172,-3708250.06157 85472.4997033,-3708315.76561 85390.8234977,-3708377.99595 85321.237738,-3708464.04863 85252.6871865,-3708667.08165 85291.8372021,-3708761.11882 85559.9229072,-3709108.84322 85529.492585,-3709397.88952 85396.4578231,-3709501.19175 84781.1150732,-3709113.43969 84675.3016029,-3709090.04134 84458.1812982,-3709043.09366 84253.1296186,-3709038.95984 84204.3871414,-3709012.13131 84019.416626,-3709032.03924 83926.2672773,-3709093.45353 83830.3023912,-3709202.77047 83465.3708966,-3709524.10579 83355.1701702,-3709533.07264 83241.7068919,-3709533.4533 83196.1342667,-3709482.2218 83120.9013971,-3709428.17611 82961.8875317,-3709403.81479 82550.2241234,-3709788.83573 82512.4977857,-3709906.74912 82476.8054954,-3709959.74557 82378.4040374,-3709994.02551 82272.327695,-3710016.59924 82086.5825603,-3709946.52101 81667.449446,-3709930.50194 81572.5482388,-3709882.91223 81347.5686887,-3709894.72011 81268.5425833,-3709960.51888 81279.3331899,-3710049.77785 81399.941111,-3710198.53202 81442.3611092,-3710337.14027 81349.6806754,-3710390.56873 81245.643371,-3710411.69838 80665.177544,-3710601.15192 80555.3271018,-3710570.14328 80261.1199919,-3710763.96751 80237.8038604,-3710875.77858 80226.1526266,-3710981.41323 80205.6630118,-3711081.30719 80087.4759743,-3711253.48258 79999.4159934,-3711311.5351 79901.0832065,-3711343.31603 79796.0584185,-3711354.92131 79687.3817953,-3711353.93139 79468.6629683,-3711328.92362 79178.0213699,-3711220.4722 79101.0954272,-3711155.38323 79031.4771905,-3711079.00025 78965.0202809,-3710996.70686 78817.4452093,-3710838.21419 78731.3217155,-3710771.37313 78639.1529153,-3710715.36107 78542.1186469,-3710672.70935 78441.8981448,-3710645.96305 78340.4478076,-3710636.6753 77762.6341228,-3711338.46775 77666.9156632,-3711338.83292 77054.3905333,-3711086.08275 76881.9737668,-3710876.92863 76763.5275835,-3710749.72432 76688.0579091,-3710677.17897 76587.1950979,-3710682.89997 76484.3370883,-3710697.56204 76042.9738971,-3710826.85419 75994.5025838,-3710871.99963 75997.831561,-3710978.0441 75883.2267701,-3711165.30553 75728.8506368,-3711299.49534 75539.7340268,-3711415.73629 75437.4786202,-3711399.42784 75312.2074264,-3711374.98921 75199.980223,-3711366.90242 75092.4858958,-3711368.44162 75004.9010713,-3711382.02363 74970.339253,-3711466.53402 74743.7886654,-3711553.75586 74710.8836911,-3711496.37538 74613.9116875,-3711415.2412 74350.8823704,-3711130.12589 74258.6964255,-3710993.14911 74154.5953195,-3711025.76737 74053.0116735,-3711084.94282 73957.6726729,-3711153.28602 73775.9863132,-3711244.74036 73682.6798699,-3711230.177 73585.4954284,-3711184.0212 73486.4119488,-3711143.31061 73386.4508072,-3711143.55714 73193.0999724,-3711241.1866 73103.8637195,-3711305.69895 72947.9484649,-3711441.34181 72884.0595345,-3711520.04575 72828.9395874,-3711606.98745 72758.4572481,-3711553.07038 72353.0210254,-3711312.51125 72250.2079891,-3711625.03459 72272.4079607,-3711762.58298 72257.2518817,-3711904.60014 72289.2797426,-3712011.9334 72413.0497722,-3712090.80764 72266.1712296,-3712315.65762 72064.7169747,-3712408.064 71539.3407505,-3712203.67967 71440.7643579,-3712371.38565 70813.1591468,-3712857.36297 70631.8302994,-3712999.29887 70317.9548052,-3713199.5533 69687.7260698,-3713436.06726 69455.9314918,-3713387.19851 69303.7858052,-3713259.06301 68579.4608988,-3713401.02201 68547.172748,-3713557.05812 68624.2286108,-3713680.62527 68752.4549311,-3713924.04779 68091.4626942,-3713708.41787 68034.2560817,-3713843.7761 67732.9044223,-3714305.74556 67636.3542425,-3714291.08889 67597.2874156,-3714339.4883 67346.2981974,-3714298.0834 66846.8364233,-3714377.76523 66757.1727452,-3714321.81782 66618.1396751,-3714334.47554 66539.0014066,-3714331.79316 66227.6878835,-3714158.28589 66130.0335842,-3714238.05297 66065.0431503,-3714157.29833 66007.2693711,-3714023.26852 65999.5628037,-3713913.10889 66033.0802285,-3713721.62602 65937.558304,-3713570.06356 65799.518439,-3712994.03446 65676.1502695,-3713018.61875 65356.2159813,-3713076.26319 65345.4500679,-3713067.97019 65298.400358,-3713079.66626 65089.6290077,-3713120.38566 64672.7786751,-3713122.38182 64568.9604838,-3713099.52812 64495.9089326,-3713075.52401 64493.6893,-3713074.46328" style="stroke-linejoin:round;stroke:#000;stroke-width:1px;fill:none" /></g></g></svg>