<svg xmlns="http://www.w3.org/2000/svg" baseProfile="full" height="460608.203868" version="1.1" viewBox="-34926.284033,3741994.961847,233555.837956,460608.203868" width="233555.837956"><defs><style type="text/css">polyline,line,rect,path,polygon,.polygon{fill:none;stroke:#000;stroke-width:1px;stroke-linejoin:round;}</style></defs><g fill_rule="evenodd" transform="scale(1,-1)"><g class="id" id="74"><polygon class="_74" id="None" points="172183.064599,-4054483.3267 172213.819324,-4060506.50998 172157.626284,-4062514.28485 171309.343136,-4092638.06687 171309.331638,-4092665.55272 171343.561059,-4092665.87822 171352.055952,-4092665.959 171167.345173,-4101429.84312 171166.503949,-4101465.81772 170968.724787,-4111308.33757 170534.18691,-4132853.84146 170201.013251,-4149529.5753 170142.564455,-4152425.66941 170060.507764,-4156480.76233 169808.903376,-4169139.84554 169787.390307,-4170129.93725 169771.806654,-4170940.62556 169748.793885,-4172064.68564 169725.484281,-4173220.74312 169703.47596,-4174344.82541 169681.703589,-4175443.92078 169613.074335,-4178883.1897 169602.951101,-4179699.46402 169584.00375,-4181220.05195 169534.422046,-4184979.55929 169488.495724,-4189664.07487 169471.258923,-4191245.75295 169434.075144,-4194191.64239 169374.869282,-4199775.72183 169340.671949,-4202217.29717 166273.574637,-4202158.26574 165476.779438,-4202138.84489 161198.083833,-4202037.43321 159459.973686,-4201972.69045 150513.374225,-4201541.30739 144457.194642,-4201428.26127 144455.444792,-4201428.24476 144317.329299,-4201413.94129 142934.277576,-4201312.88269 140467.716741,-4201132.566 135364.053106,-4200933.20997 134576.864993,-4200899.23816 132976.172959,-4200838.03387 131940.330842,-4200819.68735 128127.34866,-4200757.88926 125610.586982,-4200753.38613 121738.490698,-4200753.3868 117012.357544,-4200753.11162 109969.345956,-4200781.90719 103776.91115,-4200751.14463 94048.9003574,-4200685.81937 88305.4805242,-4200678.37817 88306.6366384,-4200559.88445 82394.4894648,-4200524.10254 78553.1655784,-4200515.45361 77612.3990249,-4200513.22032 75004.2707646,-4200490.09541 65836.5002913,-4200431.2154 59465.4189965,-4200392.12451 56861.9501644,-4200380.77672 53562.4977565,-4200391.46423 47422.6905855,-4200431.7397 42529.6213924,-4200428.7921 32846.73205,-4200381.52598 32872.3646793,-4199896.78212 32747.1361167,-4199770.52049 32820.4590382,-4199490.25867 32957.6270317,-4199324.64011 33041.3842884,-4199100.48377 33184.6585352,-4198899.42685 33365.6885064,-4198772.24985 33452.0637274,-4198635.61986 33594.4445132,-4198399.05411 33744.1982703,-4198175.06261 33830.0692239,-4197939.42836 33869.7839254,-4197719.32971 33831.1159675,-4197437.94313 33780.344312,-4197315.93344 33940.7502014,-4197176.04911 34118.2081786,-4197130.33517 34300.3496586,-4197016.66893 34346.3191209,-4196771.13439 34298.8917627,-4196565.16009 34357.0678332,-4196348.74848 34324.3348703,-4196123.42282 34249.9388229,-4195864.67899 34157.7125042,-4195564.25702 34055.838765,-4195328.23715 34033.287953,-4195134.51456 34168.3130387,-4194932.87737 34280.3277728,-4194782.00757 34402.592417,-4194606.24149 34522.5627249,-4194509.45035 34566.1381283,-4194402.39127 34547.8959432,-4194302.21047 34469.7368625,-4194193.92746 34320.9333522,-4194149.93232 34141.975773,-4194071.63479 34035.4457183,-4193876.06905 33907.6672208,-4193705.28903 33754.5323325,-4193619.7514 33672.9448754,-4193504.43438 33623.9436761,-4193380.4455 33601.2149693,-4193154.72443 33607.1705268,-4192960.29108 33580.6527183,-4192813.02959 33491.002823,-4192679.13271 33458.4867464,-4192432.31492 33558.140971,-4191944.33658 33515.3132057,-4191131.9409 33564.1700211,-4190971.93955 33559.4231885,-4190747.90231 33682.9130649,-4190599.15117 33838.1127937,-4190454.21866 33920.5216384,-4190338.55284 34132.0378523,-4190186.68668 34287.2808467,-4190062.25334 34396.5444477,-4189960.85664 34416.4973108,-4189741.5684 34425.4655985,-4189545.66879 34450.8295689,-4189384.93225 34304.3044013,-4189238.96764 34205.579789,-4189137.48103 33934.4515468,-4188952.76629 33759.8309354,-4188916.01309 33671.208351,-4188754.63151 33735.4936338,-4188551.78964 33788.9664104,-4188330.34037 33718.3661505,-4188166.64068 33696.7818356,-4188025.9324 33749.5270665,-4187851.97344 33862.5775462,-4187672.12107 34136.0344948,-4187425.88497 34266.3503423,-4187269.20458 34264.4964326,-4186931.20838 34279.8179846,-4186625.38313 34250.5531593,-4186403.10456 34207.3309249,-4186176.68635 34182.1480559,-4185896.45357 34198.0438511,-4185707.62713 34255.9321854,-4185519.22266 34312.4522734,-4185292.80748 34295.8467523,-4185029.66086 34258.3482174,-4184805.80168 34118.1673922,-4184600.90986 34065.8675853,-4184357.40414 34058.4574165,-4184049.85496 34055.4906876,-4183872.33997 34078.4549029,-4183676.58714 34150.3395887,-4183488.32518 34265.7309953,-4183299.00036 34538.9619202,-4183124.25921 34708.0143571,-4183017.96581 34835.9887747,-4182795.27018 34950.0439445,-4182614.43119 35057.1394394,-4182454.52051 35130.0677358,-4182112.28358 35255.8298327,-4181786.07589 35501.4407791,-4181374.07925 35828.0946903,-4180956.89641 35892.3178868,-4180759.55984 35901.5769417,-4180559.17244 35882.5464671,-4180363.00107 35884.3011852,-4180188.03624 36005.6584129,-4179951.77735 36161.9480171,-4179721.86824 36288.2734161,-4179488.65908 36473.6740763,-4179347.03273 36559.0599585,-4179207.90335 36590.283826,-4178985.73985 36623.0399995,-4178860.0816 36753.913256,-4178621.91903 36847.6997769,-4178342.88935 36807.5321206,-4178160.50679 36816.9441964,-4177969.62226 36909.3686235,-4177776.57008 37051.0919435,-4177603.00981 37105.3341887,-4177403.57593 37083.5034108,-4177162.38478 37058.5945176,-4176854.17091 37030.6470802,-4176499.93254 37133.9075993,-4176322.98814 37275.6994801,-4176142.43023 37354.785391,-4175933.24766 37489.5082025,-4175759.61818 37582.6448895,-4175595.0711 37565.1605672,-4175468.91148 37649.0804437,-4175201.28505 37833.1416911,-4174993.1542 37913.4607138,-4174810.48138 37929.2358053,-4174483.18085 37868.501878,-4174282.59848 37841.6559317,-4174017.86396 37830.6353272,-4173845.27616 37726.6404707,-4173746.24795 37692.7695738,-4173633.92364 37700.1046026,-4173475.5181 37691.695122,-4173141.97856 37757.1631903,-4172794.68107 37833.953251,-4172439.99846 37867.4617796,-4172263.85828 37785.9334097,-4172018.0765 37718.8220447,-4171730.44528 37665.3275577,-4171430.95251 37821.9810652,-4171213.55176 37989.1511674,-4171069.2457 38035.648869,-4170344.31723 38032.4266544,-4169941.84508 38063.6056292,-4169523.72032 38064.691065,-4169340.25921 37984.0028046,-4169010.50271 37975.0468287,-4168506.49184 38006.7496819,-4168135.86769 37961.3822349,-4167823.46383 38080.4670095,-4167213.25407 38179.5359771,-4166954.78743 38286.2626094,-4166730.39194 38466.9543276,-4166558.22753 38674.0185943,-4166348.33303 38900.622616,-4166234.11774 39090.9710129,-4166096.04377 39239.6101891,-4165929.55756 39269.8406073,-4165705.89752 39321.7347355,-4165440.46136 39498.8148612,-4165204.27152 39666.4370921,-4164963.9879 39631.5538709,-4164677.68899 39698.402373,-4164366.41133 39755.4494352,-4164160.51753 39916.3086572,-4164046.64468 39905.2481932,-4163752.58639 39838.2731937,-4163450.97132 39849.1874526,-4163234.11944 39765.3486614,-4163044.31635 39739.2436758,-4162855.09006 39845.4720316,-4162730.17403 40023.5846689,-4162590.47868 40121.0502277,-4162466.97481 40067.0925734,-4162263.47351 39942.5260721,-4162122.25563 39850.3912271,-4162037.35123 39861.0657929,-4161869.48921 40009.1209074,-4161710.99758 40199.8635798,-4161557.93117 40304.8803055,-4161379.01355 40350.4244617,-4161223.49775 40439.7761409,-4161086.41591 40559.3793527,-4160973.63146 40728.3668086,-4160796.35228 40916.1289615,-4160641.25619 40894.7912164,-4160450.07998 40941.5261629,-4160150.10446 40895.4694855,-4159906.19229 40753.6967106,-4159685.82049 40591.8203983,-4159476.2461 40459.0694561,-4159453.92544 40277.1191095,-4159477.60445 40117.1494653,-4159352.53227 40076.7685461,-4159191.16129 39952.6922682,-4159000.96063 39864.0964118,-4158862.10401 39689.8001814,-4158644.90767 39687.7274226,-4158451.92617 39672.9738077,-4158277.31448 39555.6865592,-4158108.17808 39421.2632472,-4157852.88849 39455.3990383,-4157638.27378 39519.287777,-4157547.93044 39486.3242697,-4157344.6437 39529.7781585,-4157198.1082 39593.9964395,-4157099.76995 39582.1156174,-4156862.70125 39499.3989482,-4156735.90228 39251.6390574,-4156616.95396 39229.2082584,-4156460.26338 39285.2737231,-4156352.34618 39484.0198909,-4156273.3472 39519.4010561,-4156134.23019 39461.3070774,-4156019.67488 39269.0168676,-4155977.76428 39077.6969721,-4155963.85718 39018.4933801,-4155835.29387 39083.7055201,-4155712.47157 39130.2478867,-4155556.97002 39183.8428122,-4155396.04015 39123.6566211,-4155115.50074 39106.4472177,-4154861.38491 39223.3613369,-4154692.08943 39344.7774561,-4154697.80012 39449.3426343,-4154638.85685 39375.0728807,-4154467.15366 39180.6025125,-4154318.24574 39056.8779761,-4154093.06114 38969.5230639,-4153930.22576 38955.0547018,-4153777.11587 39047.3663629,-4153618.57319 39250.8443831,-4153591.11033 39400.0080402,-4153471.1262 39484.4221732,-4153327.50123 39495.6738225,-4153126.65926 39577.8665703,-4152905.03012 39713.2354461,-4152839.89575 40048.7598386,-4152829.74554 40190.4748981,-4152704.6879 40333.5361798,-4152645.12859 40548.4042738,-4152603.28129 40796.5213812,-4152560.7655 40933.9110532,-4152393.17402 40991.3229819,-4152099.81411 41273.7787651,-4151922.17136 41430.0219178,-4151919.22964 41632.2124393,-4151845.26225 41747.4281375,-4151670.45119 41850.6344728,-4151547.00851 41835.3049408,-4151279.41815 41864.4984991,-4150958.28442 42019.1020721,-4150567.91721 42202.9908694,-4150198.33727 42304.2336521,-4149870.42429 42342.8868195,-4149653.36148 42433.5361961,-4149535.79282 42570.0107378,-4149560.14642 42629.0257568,-4149682.7048 42795.6705038,-4149714.35707 42903.1148828,-4149616.95057 42991.342945,-4149340.89568 43161.1590458,-4149204.61968 43124.5868515,-4148986.80824 43111.7869962,-4148891.70387 42965.1856351,-4148855.25286 42883.5101214,-4148774.45917 42890.2324276,-4148651.55611 42957.5583078,-4148516.75954 43039.9275637,-4148352.12013 43154.0804988,-4148183.29828 43144.3989623,-4148076.22826 42945.5229878,-4147968.27468 42864.2064888,-4147751.0188 42900.9607184,-4147573.92883 43133.1654275,-4147371.79124 43217.4088747,-4147219.66798 43192.596983,-4147100.95071 43099.0158856,-4146910.5669 43126.1038361,-4146750.37696 43180.2369342,-4146584.95768 43215.6167736,-4146319.87713 43221.5466961,-4146050.50479 43302.5405312,-4145898.34991 43389.815624,-4145617.29069 43397.825221,-4145465.4095 43251.2818086,-4145347.98125 43170.3892495,-4145113.23689 43200.2791092,-4144822.11012 43251.7367801,-4144347.74642 43245.415133,-4143777.33408 43275.1254434,-4143604.67559 43411.8523313,-4143352.10341 43457.3172776,-4143002.64929 43631.9847477,-4142754.95367 43588.9663642,-4142305.64707 43636.460377,-4141877.73593 43612.2788458,-4141595.07269 43638.2666445,-4141369.39316 43552.9402672,-4141128.11089 43673.6352101,-4140954.35947 43626.2249374,-4140720.45275 43438.5776767,-4140665.10162 43276.692074,-4140633.00017 43148.0543566,-4140424.27871 43261.1000096,-4140215.46174 43355.8860546,-4139982.96987 43399.4073354,-4139677.9887 43446.137401,-4139377.03866 43268.4824716,-4139146.33725 43055.8035616,-4139044.75075 42840.3135364,-4138899.14879 42744.6825493,-4138663.76497 42778.6967863,-4138435.16914 42998.4691098,-4138124.9448 43179.7274187,-4137842.32947 43250.6213034,-4137524.12708 43219.8617198,-4137324.87937 43344.2769341,-4137053.19614 43426.407233,-4136761.09866 43303.6537464,-4136061.08534 43310.7823257,-4135670.77265 43344.8315292,-4135388.19584 43540.155186,-4135173.70209 43673.0466293,-4134929.09679 43517.4427137,-4134667.62911 43505.1038025,-4134526.04939 43718.2320948,-4134355.71957 43939.3915438,-4134257.44749 44135.2366446,-4133939.99046 44388.9021187,-4133613.61077 44592.660573,-4133556.15275 44723.0691716,-4133360.00843 44461.8666983,-4133086.49767 44328.589429,-4132841.74917 44320.5873085,-4132615.73971 44181.2385629,-4132529.38209 44184.2172342,-4132380.45802 44313.7546853,-4132171.31016 44402.3238717,-4132035.73237 44427.1882821,-4131671.09362 44650.9570146,-4131334.92202 44868.6220135,-4131059.67063 44797.9153647,-4130629.60473 44937.7430007,-4130164.14157 45087.2587351,-4130006.67651 45119.8294394,-4129595.63172 45008.1412088,-4129190.15354 44919.3324939,-4128972.34231 44918.5225636,-4128701.42224 44944.6850126,-4128482.75319 45143.3930655,-4128253.80058 45406.1806661,-4127989.49554 45401.2179107,-4127734.03007 45624.9508881,-4127526.8187 45672.9739764,-4127069.44618 45712.5004442,-4126737.94827 45630.8666749,-4126376.25857 45546.6964258,-4126043.53455 45545.9167284,-4125794.61029 45624.2990879,-4125627.44422 45697.1866356,-4125434.73231 45606.0148804,-4125354.35482 45402.3378662,-4125404.31698 45286.0025695,-4125265.70941 45362.7180023,-4125190.99592 45590.0321361,-4125050.79885 45757.9472601,-4124852.03217 45804.0228844,-4124439.62948 45823.1546768,-4124022.46174 45928.0279423,-4123779.58526 45847.6804668,-4123565.36188 45731.7165131,-4123263.3157 45568.6844337,-4122969.80004 45280.2491712,-4122922.95496 45042.4245631,-4122913.59872 44912.2474745,-4122910.8081 44681.3323217,-4122683.59595 44591.9999773,-4122468.28469 44594.0086264,-4122215.39312 44515.6187494,-4121904.72437 44312.4858174,-4121723.77246 44221.2471064,-4121599.91079 44084.1581651,-4121462.59894 43905.5593919,-4121277.39217 43907.6496554,-4121041.49669 44103.7737518,-4120895.99466 44201.3462089,-4120734.02052 44316.6901934,-4120569.22375 44313.0870487,-4120327.77428 44144.5018021,-4120115.67762 43852.9832271,-4120027.31679 43696.734169,-4119831.33685 44102.645378,-4119497.98466 44244.4090257,-4119063.04844 44520.6437847,-4118852.86486 44665.3842921,-4118470.43955 44981.6611101,-4117876.2931 45086.5656768,-4117629.92363 45399.9858705,-4117475.08802 45471.0871845,-4116857.02047 45648.0232638,-4116680.33973 46235.8725391,-4116623.18735 46509.8820028,-4116334.50945 46985.2888547,-4116124.2977 46835.8471708,-4115896.90144 46666.0917618,-4115424.39543 46473.2396128,-4114659.77116 46675.9907793,-4114273.42534 46595.5497698,-4113715.33957 46888.4546077,-4113461.33736 47148.0655808,-4113313.96463 47179.4437442,-4112996.89609 47138.4433162,-4112796.56649 47132.581795,-4112505.11992 47078.7957572,-4112485.59475 46379.5978385,-4112431.69031 46201.5479429,-4112115.54822 46203.8862284,-4111753.21123 46090.8298833,-4111485.69491 45851.7360864,-4111176.44658 45761.9314548,-4110680.75024 46042.6135344,-4110323.17036 46297.6291082,-4109882.36895 46227.5295709,-4109693.24913 46090.0051035,-4109322.53341 46128.7033236,-4109048.52503 45995.7539145,-4108897.26838 45872.1163857,-4108461.71711 45915.0199751,-4108065.79993 45928.8147614,-4107934.48903 46060.5077709,-4107530.95472 46112.9907569,-4106747.78962 46366.4794547,-4106662.83347 46854.4353562,-4106344.29227 47101.2926938,-4105893.91783 47488.5271561,-4105525.89913 47605.2012293,-4105099.22725 47504.0764193,-4104635.91607 47319.6090275,-4104488.65132 47022.538893,-4103926.94299 46614.5636438,-4103890.92087 46602.331168,-4104041.2378 46494.8859954,-4104040.17494 46462.606195,-4103842.43712 46658.7145023,-4103646.45879 46700.7351621,-4103162.57508 46833.9047725,-4102962.97563 46583.4934341,-4102686.613 46512.2116126,-4102288.57387 46311.4676549,-4101942.73244 46041.7558848,-4101697.66657 45993.4943205,-4101498.77273 45779.1257821,-4101267.24909 45876.5642272,-4101168.25511 46090.733619,-4101040.9281 46119.1578059,-4100668.36702 46315.8816247,-4100232.99808 46680.2526542,-4100205.11441 46718.3401702,-4099916.61381 46365.1643729,-4099772.68159 46304.2425027,-4099514.68906 46066.6596317,-4099533.33079 45903.7942353,-4099703.64673 45634.8316278,-4099711.48223 45381.0537274,-4099927.37885 44937.6649162,-4099303.75815 45066.342123,-4099305.53079 45073.3122913,-4099156.66371 45282.2647986,-4099000.79837 45244.1147843,-4098588.09865 44465.5047515,-4098557.40694 44333.6806323,-4098191.76061 44201.3532453,-4097978.04371 44314.8351825,-4097444.39908 44538.2391742,-4097292.67601 44213.2648463,-4097077.05432 43696.834606,-4096587.65789 43723.9303986,-4096172.60868 43916.0201921,-4095927.61766 44199.5690865,-4095808.97581 44346.4292373,-4095260.67123 44261.829839,-4095122.89526 43926.7682609,-4095320.99222 43406.3934313,-4095255.87155 43192.4758523,-4094802.45609 43422.4798161,-4094564.3384 43796.8377802,-4094081.75809 43602.0054882,-4093820.94709 43408.707798,-4093379.73253 43365.3865205,-4092428.73283 43569.2197686,-4092031.92909 43623.5403508,-4091592.66589 43107.9514389,-4091372.66563 42916.1353101,-4091034.42238 42075.9753826,-4091241.01482 41943.0810057,-4090933.34063 42193.1530452,-4090535.49782 42714.9478641,-4090051.88276 42372.1046322,-4089243.36438 42515.006366,-4088816.97569 42410.1221879,-4087420.08956 42141.7146788,-4087069.59918 41797.8194905,-4086620.40901 41543.5758795,-4086101.13939 41482.8908353,-4085794.1845 41810.9280624,-4085446.09413 42276.689806,-4085220.30731 42791.9564901,-4084814.5947 43349.3160664,-4084144.42332 43380.4808423,-4083670.95729 43370.6468624,-4083098.13428 43126.4026465,-4082805.8607 42934.7001866,-4082405.65863 42780.5609123,-4081921.36897 42472.8178702,-4081531.01641 42303.2530456,-4081292.95601 42392.1746125,-4080992.98065 42252.7184565,-4080970.11349 42131.8344363,-4080559.61874 42299.9385339,-4080540.78931 42257.819804,-4080226.02672 41637.5036702,-4080136.93947 41654.7273513,-4079961.69555 41457.5170058,-4079866.29307 41349.0187456,-4079972.66845 41469.6576587,-4080180.2592 41365.6735276,-4080386.13057 41167.0895032,-4080379.17088 40971.1827822,-4080151.84554 41027.5575759,-4079883.5345 40942.9857349,-4079743.26736 40679.1046466,-4079516.77012 40663.2848329,-4079271.73446 40796.3336572,-4079209.58037 40917.1389532,-4079349.7055 41103.7876205,-4079300.07494 41121.4655093,-4079078.85868 41000.9563583,-4078908.75145 40783.9002866,-4078495.31035 40789.1841345,-4077808.70307 40763.0617762,-4077291.20236 40925.27699,-4077185.35824 41249.0545074,-4076989.15558 41362.2455743,-4076736.40008 41565.0910806,-4076589.97736 41630.56698,-4076310.7637 41420.0050551,-4075568.55519 41031.9845139,-4075058.97796 41068.8120209,-4074619.06362 40957.5876981,-4074369.09111 40737.7355096,-4073732.74152 40591.456758,-4072882.72884 40368.6246763,-4072624.15958 40147.2585603,-4072141.21983 40237.9781856,-4071709.33738 40032.3638822,-4071276.02904 40080.4185939,-4070761.76858 39831.8049834,-4070204.10113 39201.4321383,-4069642.16617 38800.7387863,-4069277.89768 38321.1067632,-4068886.36392 37583.7446191,-4068481.29124 37056.3384586,-4067917.87634 37124.2284901,-4067697.66311 37301.1723271,-4067693.91327 37264.8440445,-4067526.6425 36432.2448652,-4067479.94061 36411.1930921,-4067157.40313 36820.2785353,-4066696.68894 37083.5522422,-4066098.10717 36924.1122501,-4065898.13839 36542.8153979,-4065366.65472 36195.360399,-4064697.57984 35857.026121,-4064193.00809 35629.9865299,-4064082.82442 35221.8925269,-4064013.33012 34920.3618318,-4063552.0996 34666.1615787,-4063611.55599 34147.7329499,-4063733.86729 33865.9134665,-4063452.73439 33460.59913,-4063380.26814 32769.803903,-4063270.9999 32560.9816549,-4063011.57686 32332.6120831,-4062833.91626 32011.9785997,-4062460.45059 31844.9559134,-4062042.02838 31908.4268756,-4061358.53031 32156.0287954,-4061132.10166 32461.6440856,-4060673.37367 32772.5471787,-4060589.99148 32957.9372039,-4060312.47562 32952.3943293,-4059785.71068 33145.5437414,-4059430.81425 33030.8000539,-4059208.80328 33144.3162916,-4058897.09666 33011.7203334,-4058256.14161 32667.3742984,-4057627.08974 31765.6468331,-4057169.43817 31481.6911973,-4056877.2965 31019.5047675,-4056517.43242 30220.2928991,-4055572.06884 29974.249686,-4055641.09925 29505.2975509,-4055536.52516 29565.8377728,-4055301.25625 29565.117744,-4055019.90827 29361.5934587,-4054983.41823 28646.6600633,-4055270.69152 28337.3705323,-4055064.75203 28235.7545672,-4054551.03985 28391.4742539,-4054140.31228 28342.7114245,-4053461.21777 28215.8550672,-4052897.28692 27909.4367595,-4052274.11713 27973.2104752,-4052090.85234 28013.0579449,-4051850.88382 27793.6155427,-4051225.0765 27821.2226541,-4050959.5023 27672.8525381,-4050879.0833 27473.877997,-4050964.06896 27345.6671588,-4050866.35901 27446.6313615,-4050459.09167 27396.0988138,-4050136.27942 27207.0019598,-4049904.04645 27077.5423302,-4049730.36865 26972.115814,-4049551.93106 27035.5402925,-4049302.70226 27303.8846061,-4049201.41108 27286.1829409,-4048944.38571 27151.953466,-4048747.67473 26883.2201088,-4048660.57182 26600.4323613,-4048579.82636 26485.0177346,-4048400.79111 26456.9532182,-4048105.18668 26624.304595,-4047958.42497 26792.6305893,-4047890.12695 27034.9193432,-4047846.54465 27214.2509324,-4047726.38538 27286.2853098,-4047490.73421 27234.4449258,-4047148.42261 26948.8732025,-4047020.67825 26379.2986708,-4046910.11991 26063.1925083,-4046661.1452 25553.5600475,-4046527.69183 25338.2687103,-4046342.17536 25026.6474152,-4045993.30431 24740.454656,-4045574.22629 24592.4808064,-4045074.06166 24905.3036414,-4044693.37597 24912.0169184,-4044342.15077 24934.016387,-4043783.69994 24797.8487855,-4043251.67279 24241.5438011,-4043164.23398 24182.3871544,-4042626.47154 23882.0945817,-4042648.99405 23598.1168409,-4042309.39452 23097.0682209,-4041762.27754 22867.3490335,-4041798.48822 22516.7302305,-4041578.65963 22508.4276754,-4041331.22692 22238.9172557,-4041222.13243 22395.965672,-4040954.34441 22344.0695575,-4040567.06634 22186.1116372,-4040243.2034 21897.7610722,-4040068.46338 21569.8318123,-4039549.54198 21770.8451179,-4039333.15739 21842.2406775,-4038832.66646 21619.1713268,-4038346.76142 21623.9754358,-4038112.95149 21859.2521018,-4037994.34527 22462.5073313,-4037728.45892 22541.9865894,-4037168.08476 22351.357617,-4036787.43698 22234.7271983,-4036554.42912 22294.8879583,-4035951.39174 22332.1418259,-4035745.8851 22466.8010293,-4035366.4457 22056.7664487,-4034837.72718 22040.5795187,-4034299.89856 21725.9054105,-4034032.96046 21683.1408508,-4033656.77098 21813.5170672,-4033179.35123 22195.7047737,-4032451.5685 22252.5686687,-4031751.56219 22187.4996046,-4030823.99622 22308.2487258,-4030080.64783 22589.4619545,-4029762.11633 22722.3348624,-4029335.19077 22723.0485199,-4028881.97993 22435.1685915,-4028481.89388 22471.9256613,-4028123.4796 22575.4531847,-4027758.72696 22300.8558089,-4026745.15706 22119.1592373,-4026598.95962 21722.9108565,-4026624.04209 21254.3829216,-4026225.1791 21119.8686099,-4025803.61992 20891.6471506,-4025536.04139 20368.8644128,-4025572.87043 19997.8666455,-4025266.41086 19577.4539617,-4025233.79154 19256.3054841,-4024990.28332 18844.9400188,-4024190.74036 18904.593426,-4023892.01778 19766.5144623,-4023945.96965 20022.1285588,-4024171.84292 20230.9446953,-4024227.86322 20558.6632196,-4024032.21341 20850.8536849,-4023689.30678 20903.3057789,-4023233.61171 20765.9438469,-4022974.42408 20591.7795787,-4022113.25685 20679.8294646,-4021899.25936 21174.3256129,-4021893.12911 21620.5845402,-4021660.1678 21725.9983088,-4020569.39753 21408.0883471,-4020224.98945 21089.845528,-4020066.95968 20749.7372303,-4020252.49575 20180.3501821,-4020303.36179 19988.1128828,-4020517.83348 19636.2658102,-4020448.91573 19404.9105977,-4020144.33431 19317.4284128,-4019538.36184 19180.8101392,-4019305.16739 19189.6432825,-4018889.52107 19149.6697304,-4018635.29115 18799.9580029,-4017866.34602 18400.1425474,-4017822.94152 18008.5454329,-4017451.82936 17943.0409026,-4017227.82981 17779.1432349,-4017024.84908 17533.1469041,-4016938.98521 17301.2158772,-4016769.314 17325.1693123,-4016543.69581 17714.5040712,-4016255.21159 17737.6378339,-4016087.5477 17846.603278,-4015982.18746 18237.881472,-4015953.55342 18322.4661136,-4015710.54238 18458.9273716,-4015756.35444 18412.9670183,-4015272.21597 18176.0192956,-4014875.64354 18198.3025794,-4014591.04719 18302.8921812,-4014040.93229 18112.2363282,-4013458.93648 18060.3809209,-4013015.21546 18046.0895721,-4012613.33661 18253.4100644,-4012312.56967 18594.6664962,-4011882.20287 18968.5895268,-4011788.93723 19528.7633635,-4011886.87686 19946.1213636,-4012077.35341 20353.3418486,-4011773.55062 20664.5407059,-4011452.81515 20541.07352,-4011050.36325 20478.7323741,-4010631.02295 20413.1465079,-4010389.53558 20372.1540828,-4010238.73093 20179.00333,-4009808.61367 19853.9423697,-4009250.78475 19840.1832529,-4009227.16503 19837.8428321,-4008498.11713 19315.3364808,-4007896.87991 18692.326248,-4007506.51916 18432.3076782,-4007245.63754 18315.2885857,-4007128.0659 18354.7945927,-4006895.60621 18526.7052253,-4006765.87879 18865.6166273,-4006854.14759 19333.6580523,-4006691.34818 19623.4660206,-4006462.34239 19621.5963836,-4006041.59938 19739.249187,-4005712.46939 19788.8404956,-4005164.81463 19754.2347264,-4004591.85058 19854.2380263,-4004228.07017 20111.9266433,-4004140.65539 20729.5559704,-4004137.21628 21214.2606906,-4003905.62212 21584.9483026,-4003785.33648 22201.3400513,-4003882.8183 22539.0788993,-4004345.82917 22970.6690584,-4004639.37135 23363.258542,-4004604.24472 23548.1150825,-4004326.23821 23529.8388507,-4004126.18888 23293.9405855,-4003927.50455 23117.0662657,-4003544.01941 23206.0570499,-4003182.12753 23537.1913452,-4003018.98055 24091.3082582,-4003174.31271 24614.9860027,-4003045.03103 24894.1121522,-4003141.20529 25380.6814186,-4003102.00098 25638.8979337,-4002629.33824 25220.7231817,-4002572.77555 25244.101406,-4002379.62987 25638.2880522,-4002309.03958 25858.6477032,-4002181.28225 25938.9382188,-4001865.77342 25757.7473806,-4001642.14234 24970.5145802,-4001615.94341 24941.319498,-4001484.74241 25147.5217423,-4001271.90159 25215.6536035,-4000896.81279 25410.6933335,-4000777.80143 25346.3770224,-4000635.76333 25118.2119472,-4000463.63917 25253.2760674,-4000295.07222 25454.5379255,-4000306.0373 25654.7841712,-4000165.59066 25667.3746046,-3999900.38616 25935.2991625,-3999635.1834 25854.6147989,-3999302.1091 25285.4390017,-3999128.1458 24827.9678511,-3998823.8619 24894.4374767,-3998439.76328 25221.0802588,-3998071.7028 25497.2964509,-3997495.28366 25944.6238641,-3997176.87204 25863.5595919,-3996754.85279 26046.2365771,-3996188.51035 25720.1404581,-3995837.04623 25774.6657928,-3995703.16737 26233.9004433,-3995674.18271 26375.8584473,-3995439.22555 26579.848529,-3995452.21426 26580.5185084,-3995153.91493 26613.3284094,-3994966.85787 26540.403617,-3994785.26219 26265.7740365,-3994714.61973 26107.8066928,-3994849.4854 25307.08728,-3994848.64691 25179.5715644,-3994680.00867 24905.1987426,-3994200.13634 24636.3971672,-3994044.60672 24552.7686545,-3993807.94303 24631.0549727,-3993671.29885 24988.9923946,-3993679.29731 25283.2612171,-3993427.84215 25566.6175923,-3993219.25191 25713.9048285,-3992822.45275 25732.9919708,-3992352.44676 25321.9491488,-3992026.63753 25428.7417079,-3991836.30713 25474.1757042,-3991354.56704 25729.876553,-3991189.17713 25914.2726524,-3991008.59937 26068.2306758,-3990644.84352 26114.036352,-3990354.98123 26267.7839429,-3990012.70909 26376.0434713,-3989927.82357 26560.0192243,-3989790.2131 26569.2758916,-3989584.43816 26423.1038785,-3989509.55742 26380.766074,-3989444.68575 26478.4935536,-3989338.21124 26436.9956709,-3989187.40402 26319.6742074,-3989100.31355 26396.8650494,-3988896.70173 26537.5601966,-3988790.64709 26719.9864924,-3988453.65155 26757.4113365,-3988203.18134 26634.2031923,-3987695.80854 26670.7189502,-3987666.18498 26580.113315,-3987452.93865 26432.2695899,-3987191.16455 26226.9443005,-3986777.92789 26124.8534076,-3986461.63719 26201.7730682,-3986234.53808 26461.5330922,-3985934.77388 26511.6561134,-3985765.37486 26406.8792486,-3985417.07905 26263.6060181,-3984917.5064 26305.2428291,-3984823.97471 26491.4028828,-3984718.36338 26536.9909452,-3984450.4846 26614.2464583,-3984316.82724 26845.3219767,-3984165.68447 26873.4414911,-3984125.98528 26960.3323007,-3984003.41471 27099.7950126,-3984100.2141 27316.9533549,-3984043.87304 27482.9557487,-3983904.58634 27681.0073513,-3983758.11742 27729.2012701,-3983376.83778 27524.3028527,-3983175.46762 27332.1235803,-3983053.17007 27394.4023647,-3982738.98433 27560.2284773,-3982489.76758 27536.3286259,-3982225.20735 27380.2814718,-3982163.72324 27377.5065886,-3981987.31172 27195.4155657,-3981932.06918 27189.5122654,-3981794.60164 27087.5693045,-3981795.60517 27089.999759,-3981469.84255 26953.8905038,-3981336.60049 26971.6980272,-3981047.96381 27231.8056467,-3980917.09011 27661.854102,-3980780.87953 27769.3838087,-3980617.03702 27817.3129327,-3980493.08629 27891.1362433,-3980301.43275 27967.6758888,-3980061.83709 28144.2257081,-3979865.68953 28265.6534804,-3979634.52653 28428.2713828,-3979841.97871 28550.5006616,-3979784.70971 28623.9788197,-3979654.01266 28705.0745744,-3979433.94838 28737.0008514,-3979311.34027 28847.3296673,-3978886.19539 29000.5016569,-3978730.29271 29269.6404805,-3978672.45807 29462.9763622,-3978471.47676 29416.3014978,-3978287.64112 29529.6447399,-3978219.29221 29809.6804721,-3978222.52382 30130.67104,-3978125.22075 30249.2664904,-3977979.47344 30388.0551981,-3977684.52038 30523.5072262,-3977373.04541 30755.1083385,-3977167.9395 30980.428973,-3977043.21983 31144.8074157,-3976967.87318 30794.1809259,-3976466.27764 30690.2158041,-3976110.9944 30405.3054004,-3975813.40799 30305.5571102,-3975358.73103 30387.286435,-3974919.81461 30477.923823,-3974540.94587 30794.5976711,-3974245.7277 30832.7641724,-3974046.72964 30715.2104155,-3973701.30787 30406.7720513,-3973484.94011 30043.0178896,-3973279.02615 29788.6464968,-3973052.19302 29662.4925442,-3972820.11408 29712.9967919,-3972611.24308 29918.9241675,-3972579.27244 29929.980266,-3972418.98489 29932.6230302,-3972378.53707 29996.2241021,-3972235.75056 29966.4076792,-3972142.02094 29902.8728045,-3972072.9464 29626.5872887,-3972120.72071 29358.4050041,-3972362.44723 29125.810172,-3972285.22923 29026.4078958,-3971922.99672 28848.8506864,-3971684.42125 28580.154445,-3971671.30953 28248.0950595,-3971674.06949 28139.5412758,-3971456.15374 27887.659167,-3971409.72793 27688.9271936,-3971677.61419 27423.82958,-3971628.56118 27490.9747401,-3971122.04854 27237.0557499,-3971002.651 26876.5759167,-3971229.98651 26814.0060687,-3971574.6497 26565.6604284,-3971601.2104 26344.9623865,-3971405.68692 26083.7735355,-3971263.23379 25643.8186474,-3971467.80871 25484.0040556,-3971151.95867 25509.0805106,-3970860.39557 25446.1967772,-3970698.88899 25199.2404391,-3970685.48992 24953.7446645,-3970522.20413 24977.2599547,-3970339.55408 25170.8898051,-3970287.47632 25398.3533286,-3970096.32019 25356.7438696,-3969956.5068 25260.2761801,-3969934.08113 25121.0502698,-3969889.75308 25110.415472,-3969878.65673 24912.6711031,-3969532.45767 24828.9389693,-3969510.65583 24543.2178965,-3969732.22396 24381.8983875,-3969724.6563 24376.237484,-3969510.74266 24556.6647562,-3969198.20823 24501.7504025,-3968885.37985 24333.4216535,-3968725.34499 23923.9150967,-3968676.88561 23379.3761723,-3969128.2786 23108.0365529,-3969104.64935 23035.6387066,-3968919.56652 22818.613599,-3968629.14403 22733.8986736,-3968400.47026 22580.4988554,-3968221.09439 22480.4107754,-3968031.74481 22247.7011887,-3967966.52027 21901.9362531,-3967760.78755 21536.9673246,-3967808.19925 21414.8701492,-3967672.59977 21230.2039127,-3967625.33171 21245.8392911,-3967405.13094 21323.9039701,-3967059.62203 21646.5154633,-3967051.77078 21541.9188773,-3966760.94539 21405.575973,-3966677.17278 21124.9910057,-3966679.43744 20987.2543423,-3966482.22704 20998.2484925,-3966302.45411 21085.0078728,-3966115.92381 20972.915223,-3965876.49153 20892.6290596,-3965885.70325 20594.8794255,-3966008.72045 20376.7708099,-3966214.45813 20093.4061223,-3966245.6766 19892.3152818,-3966037.85657 19610.6148887,-3965410.53234 19275.9208238,-3965350.81217 19072.5767521,-3965143.4705 18978.4052162,-3964885.22645 18945.2276177,-3964649.06171 19002.1488229,-3964499.21658 18984.7242163,-3964338.65455 18700.8696799,-3964086.55933 18636.6436954,-3963806.1221 18492.6616787,-3963480.43869 18163.6704726,-3963168.44489 17915.8480951,-3963064.60178 17591.6414679,-3963133.89858 17485.7543215,-3963360.71494 17378.5304912,-3963262.73691 17174.399767,-3963084.86921 17008.7823705,-3962825.93125 16728.9839689,-3962773.24277 16450.4184762,-3962439.75589 15975.3135272,-3962432.13598 15785.7252659,-3962248.91428 15465.0620344,-3962262.2838 15329.9687129,-3961921.69933 14987.3168357,-3961858.40698 14911.6134864,-3961704.77425 14706.0495006,-3961674.29414 14539.4777829,-3961616.2123 14367.6621461,-3961583.5622 14219.936895,-3961565.6366 13926.1103332,-3961311.44961 13486.366283,-3961290.18445 13247.3434928,-3960949.59016 13121.4188287,-3960668.05647 12992.3321638,-3960660.30565 12817.4537299,-3960788.51659 12543.7172493,-3960626.46344 12458.0396727,-3960393.78849 12265.1353203,-3960448.87394 12149.3913333,-3960379.29525 12192.5344086,-3960078.92009 11890.7801018,-3960151.93435 11657.6629143,-3959974.78739 11553.2649391,-3959688.96716 11570.0668495,-3959348.36349 11439.7797909,-3959155.72785 11471.2087375,-3958775.29369 11168.760094,-3958739.87617 11052.9340441,-3958627.32665 11141.4579459,-3958335.88707 11091.2686393,-3958358.88322 10930.4144143,-3958252.39173 10934.7521873,-3958114.5283 11057.0713918,-3957918.85176 11021.6816629,-3957627.20718 10982.6130527,-3957277.06687 10891.7635052,-3957010.86569 10711.6048246,-3956731.30545 10712.7150848,-3956437.01769 10810.5969578,-3956133.67681 10916.4550865,-3955909.35928 10915.2655576,-3955646.02779 10792.8421003,-3955492.44289 10760.7051658,-3955328.7425 10892.5815542,-3955100.68017 10930.1932999,-3955035.09055 10927.6468937,-3954988.59758 10918.9915209,-3954825.1252 10886.8587772,-3954815.31962 10890.0068593,-3954799.86078 10893.1549411,-3954784.40194 10759.955824,-3954531.28055 10634.8620356,-3954215.28102 10619.5540329,-3953836.39135 10623.6990523,-3953383.74104 10705.3976324,-3953254.62299 10847.2023996,-3953136.0816 10801.4683921,-3952931.77684 10688.8251998,-3952774.29015 10501.0924426,-3952708.51146 10151.2068962,-3952695.62155 10030.4318771,-3952629.49363 10027.6403696,-3952633.96346 9748.79414908,-3952483.35804 9478.6492864,-3952105.49308 9081.1522526,-3951772.86073 8528.52096445,-3951336.29391 8168.08418019,-3950917.58191 7774.79369327,-3950769.36544 7605.76143783,-3950501.40885 7482.32855497,-3950451.74477 7248.7681138,-3950371.5327 7062.50882339,-3950385.71481 6878.03267108,-3950164.57657 6675.78869846,-3950204.08614 6412.22609898,-3950203.52817 6248.24629173,-3950007.07223 6189.62064814,-3949818.13377 6047.50662156,-3949582.4174 5756.02438602,-3949343.75362 5528.56200541,-3949304.57333 5327.63585789,-3949156.72587 5241.85395453,-3948960.0297 5148.9984895,-3948848.70581 5030.55438394,-3948774.10823 4884.20837675,-3948768.692 4683.60667523,-3948767.74625 4596.07735891,-3948673.96205 4427.95850169,-3948389.02868 4271.9602058,-3948219.63285 4069.7455201,-3948024.30681 3875.84614897,-3947770.10252 3604.5876042,-3947352.26189 3512.91072403,-3946964.64227 3479.78223418,-3946593.57898 3376.00085081,-3946372.22649 3148.59109077,-3946018.26761 3042.86908341,-3945790.90073 2913.77789019,-3945603.27972 2751.40507839,-3945550.24248 2564.65813715,-3945485.97683 2464.01159111,-3945353.59336 2407.23076185,-3944999.78943 2353.41401783,-3944572.06572 2282.26258247,-3944309.0593 2384.54246261,-3944169.6476 2371.86165827,-3944008.63678 2189.72345034,-3943984.3886 2153.79510946,-3943773.18752 1996.00650356,-3943840.11189 1841.23316626,-3943931.0487 1643.14603555,-3943980.09496 1486.08730564,-3943842.66893 1297.33096095,-3943727.92003 1135.72814865,-3943440.55492 984.12455296,-3943333.16111 682.103776486,-3943047.43483 636.564861342,-3942796.66902 278.339898508,-3942561.86327 148.31292916,-3942264.31209 253.080091191,-3941971.03198 81.830533666,-3941751.02741 -382.439585405,-3941735.04259 -524.942567284,-3941590.76376 -390.456130794,-3941324.25277 -214.12851046,-3941226.0289 -62.6638386112,-3940857.25348 90.555860731,-3940539.45908 -26.7116373654,-3940291.49709 -159.681479885,-3940013.9039 -404.215598636,-3939880.13039 -420.393995354,-3939693.1046 -348.130411649,-3939376.52535 -393.294766444,-3939086.79074 -528.62766249,-3938872.63073 -559.372920998,-3938616.01257 -541.426253388,-3938361.8638 -368.514728849,-3938177.66549 -223.714223455,-3938058.64957 -43.7584796194,-3938024.41462 80.0724979675,-3938007.12481 125.326128815,-3937900.13721 61.05647791,-3937777.60076 -129.918965069,-3937711.29929 -352.242518025,-3937605.72203 -489.050977601,-3937389.04969 -577.56030904,-3937060.42278 -607.334236785,-3936858.2758 -625.455766383,-3936691.21704 -789.434287196,-3936545.73256 -853.149087201,-3936365.74193 -903.57007803,-3936154.40176 -1087.9867894,-3936055.68727 -1279.25931195,-3936071.82637 -1456.01798938,-3936163.05337 -1603.20683285,-3936115.66318 -1673.28757947,-3935948.10269 -1587.96496264,-3935727.58185 -1643.58874448,-3935511.69491 -1709.73687003,-3935376.64974 -1762.88322498,-3935292.19495 -1967.02951074,-3935192.79084 -2169.3135029,-3935236.80449 -2256.19160447,-3935127.04145 -2376.67347996,-3935030.44439 -2473.16016366,-3934829.15264 -2683.39897021,-3934869.09249 -2729.00810859,-3935219.90572 -2893.88790152,-3935245.29407 -3043.80274055,-3935143.91604 -3328.81294154,-3935062.21845 -3538.83105215,-3934898.30366 -3576.94742524,-3934732.05209 -3473.38536882,-3934614.63548 -3367.30115926,-3934494.74493 -3368.62452335,-3934321.35385 -3519.28740998,-3934297.41465 -3683.95841623,-3934275.3388 -3815.05255587,-3934191.13113 -3791.17620306,-3934046.96316 -3708.91229063,-3933987.79964 -3600.00539749,-3933911.9053 -3604.91896392,-3933773.95466 -3766.72163182,-3933739.41549 -3865.0985079,-3933578.57792 -4091.74279709,-3933273.60246 -4138.70211456,-3932936.38571 -4320.33353902,-3932600.86692 -4618.82585838,-3932311.18747 -4722.01430776,-3932079.35388 -4722.25893266,-3931794.05206 -4780.7407883,-3931641.09481 -4889.83286565,-3931529.1201 -5063.67995973,-3931525.94368 -4989.98518106,-3931707.52757 -4899.52580021,-3931912.25711 -4962.07492471,-3932129.00059 -5225.65914092,-3932156.93541 -5353.95186406,-3932041.27796 -5436.2150611,-3931815.64255 -5471.12453034,-3931524.0109 -5537.22558614,-3931228.58076 -5629.37944817,-3931121.76629 -5890.64225466,-3931271.63834 -6074.87524087,-3931127.96106 -6120.25529641,-3930911.67554 -6150.73419001,-3930704.52742 -6440.9760764,-3930465.89424 -6391.37783151,-3930193.06542 -6286.25950659,-3930017.70358 -6363.72333325,-3929734.6555 -6294.29509707,-3929633.39684 -6185.68065103,-3929665.42242 -6082.63924777,-3929886.76095 -5935.9264717,-3929957.62698 -5769.15278032,-3929865.3015 -5804.39841802,-3929686.08741 -5875.25488726,-3929495.03799 -6007.17247692,-3929444.30068 -6133.25648686,-3929332.66258 -6200.32005736,-3929214.59856 -6225.44394564,-3929021.9917 -6094.94255031,-3928856.86699 -6103.34571197,-3928717.88364 -6185.45735951,-3928683.61554 -6267.65437752,-3928606.37685 -6476.74484928,-3928501.43354 -6532.17274116,-3928342.51068 -6659.41397695,-3928195.38682 -6780.87438477,-3928174.23011 -6895.95316812,-3928268.55362 -7034.8568203,-3928268.71365 -7083.5558746,-3928163.3182 -7052.84241357,-3928061.18644 -7070.32547625,-3927931.10948 -7154.15681229,-3927893.82721 -7314.69372684,-3927961.23133 -7475.40215103,-3927968.67608 -7572.69432703,-3927954.24792 -7722.01121937,-3927894.35014 -7843.97835713,-3927770.26153 -7848.35753669,-3927680.28286 -7829.63846031,-3927526.57193 -7896.27041249,-3927415.50783 -8013.36366145,-3927381.90246 -8185.91572116,-3927503.65254 -8299.28488114,-3927653.95304 -8475.38319664,-3927599.29362 -8583.18980932,-3927535.29939 -8710.55095438,-3927374.68508 -8738.36516931,-3927124.09435 -8904.36319805,-3926928.63238 -8966.99527479,-3926635.736 -8942.1521285,-3926494.57541 -8816.46241935,-3926387.86249 -8640.39662068,-3926394.05528 -8520.87088586,-3926330.75219 -8566.1393902,-3926154.44041 -8699.89588799,-3926035.2354 -8785.74369593,-3925921.988 -8805.59494244,-3925726.43488 -8844.87896461,-3925603.1434 -8981.30840034,-3925605.8267 -9140.113953,-3925597.30231 -9152.61168593,-3925468.27314 -9093.2487905,-3925348.42993 -9069.6454727,-3925206.25787 -9166.02401012,-3925122.8881 -9203.87646291,-3924980.62393 -9112.10118288,-3924789.64315 -8898.82798853,-3924693.76572 -8820.77279685,-3924526.63569 -8807.72260215,-3924286.93045 -8859.1929946,-3924028.11706 -8944.88710579,-3923846.91929 -8983.17154645,-3923619.71066 -9080.26584907,-3923480.8733 -9182.78082072,-3923541.84293 -9326.75182737,-3923471.50587 -9273.64361982,-3923300.63787 -9404.39820684,-3923103.01797 -9589.08660205,-3923006.30761 -9786.06865748,-3922992.92017 -9784.18413527,-3922797.07657 -9656.93858937,-3922658.39967 -9627.61490734,-3922518.78048 -9766.96491289,-3922461.47916 -9962.8085824,-3922459.59488 -10030.8685273,-3922263.07832 -10028.5807006,-3922025.26816 -10149.4214746,-3921965.64693 -10405.0782416,-3922052.62442 -10531.9093208,-3921992.44603 -10739.5886332,-3921766.6066 -10793.5256722,-3921556.23618 -10833.2049557,-3921318.02266 -10789.3550477,-3921122.58276 -10677.0408505,-3921081.69251 -10693.3305027,-3920905.16038 -10873.9218132,-3920849.96151 -10988.9260401,-3920728.94036 -11142.2218264,-3920589.06415 -11220.5583395,-3920447.91018 -11347.3563326,-3920202.36378 -11529.4415918,-3920172.63305 -11705.5412999,-3920091.996 -11784.8485623,-3919895.87185 -12105.6498487,-3919794.85758 -12245.0197484,-3919609.64825 -12454.4681695,-3919437.75564 -12582.9141364,-3919285.6282 -12552.0982665,-3919146.52312 -12376.4318613,-3919038.28904 -12221.7053685,-3918925.35684 -12231.0120282,-3918671.94657 -12300.145197,-3918534.87876 -12369.8934255,-3918383.81495 -12319.0077762,-3918183.94547 -12348.1257656,-3917964.32072 -12292.7194221,-3917813.95957 -12249.7222855,-3917577.04015 -12357.9352152,-3917451.08886 -12472.8741605,-3917271.11112 -12711.8639196,-3917027.48619 -13054.8664403,-3916818.83732 -13331.6331662,-3916632.80935 -13486.9051601,-3916490.41816 -13531.0021029,-3916321.61391 -13421.6354036,-3916145.28935 -13344.1184626,-3915955.66807 -13302.0400795,-3915736.22729 -13333.067067,-3915507.091 -13357.6770024,-3915234.0473 -13360.5252466,-3914984.19618 -13512.2544814,-3914758.89787 -13677.5700192,-3914491.49894 -13730.8408114,-3914211.18511 -13840.340462,-3913958.81171 -14016.6941809,-3913774.24875 -14128.0829789,-3913484.38386 -14218.600741,-3913336.61917 -14140.9157079,-3913207.45591 -14126.1924405,-3913183.11439 -14106.8902173,-3912993.93295 -14217.7181451,-3912879.94955 -14275.0187775,-3912681.03975 -14142.0745013,-3912572.89176 -14112.7613568,-3912381.80755 -14045.5448785,-3912224.06353 -13981.1816354,-3912077.28435 -13998.287937,-3911907.23969 -13949.1832386,-3911710.34915 -13851.5924044,-3911537.40691 -13773.9296969,-3911306.31412 -13716.2759127,-3911051.5458 -13728.0609292,-3910847.57562 -13822.0294136,-3910694.78123 -13952.654273,-3910613.08548 -14011.5731834,-3910478.61455 -14010.4007952,-3910330.22973 -13911.0226889,-3910179.28854 -13887.74016,-3909965.66131 -13919.5004403,-3909760.50021 -14088.398431,-3909527.5435 -14258.8728982,-3909276.58443 -14429.0127858,-3909121.06199 -14572.4200367,-3908939.31432 -14599.5487611,-3908772.1712 -14580.7110442,-3908553.00506 -14553.2442416,-3908371.89495 -14593.2433403,-3908192.13717 -14617.9212691,-3908055.99576 -14589.097438,-3907941.85173 -14478.4924416,-3907818.49786 -14494.9960076,-3907637.466 -14426.6545385,-3907544.68564 -14433.3297994,-3907354.75408 -14464.2450111,-3907061.16241 -14494.9765744,-3906800.54947 -14417.5674386,-3906543.47003 -14392.031425,-3906276.90005 -14382.3023886,-3905965.20985 -14440.3088779,-3905761.29586 -14476.8501972,-3905481.1404 -14399.7453558,-3905203.57143 -14294.155822,-3904977.73918 -14255.9144231,-3904401.50433 -14187.788714,-3904122.34965 -14123.9048137,-3903947.0824 -14157.3431276,-3903786.37326 -14215.8336818,-3903632.91928 -14342.9167447,-3903441.8347 -14491.7172992,-3903275.02558 -14680.9079936,-3903230.2457 -14806.4359412,-3903111.62626 -14856.1803128,-3902931.77449 -14839.4317217,-3902695.59793 -14808.7965502,-3902522.51059 -14845.8577763,-3902453.20379 -14944.3443164,-3902432.7755 -15097.993266,-3902433.30495 -15227.3799208,-3902300.15896 -15231.9039921,-3902146.22203 -15189.7992039,-3902027.7067 -15261.7009114,-3901918.0945 -15276.1203717,-3901780.05185 -15297.432272,-3901578.98674 -15427.4732985,-3901435.84162 -15575.675844,-3901415.43815 -15747.0021287,-3901435.78541 -15798.6985596,-3901329.36449 -15812.6632345,-3901169.84113 -15890.8842191,-3900545.02439 -15953.3082239,-3900358.55613 -16060.3503749,-3900187.65056 -16145.6023952,-3899932.51147 -16287.4061755,-3899608.37937 -16328.1363888,-3899269.22375 -16266.4341626,-3898903.56517 -16254.7334899,-3898803.246 -16420.9120185,-3898650.76285 -16458.1325077,-3898441.05143 -16478.9839643,-3898191.52375 -16404.7349569,-3898107.7907 -16278.5640223,-3898106.99675 -16119.7049104,-3898136.49437 -16041.0160797,-3898137.24574 -15995.4438685,-3898021.76039 -16006.9082683,-3897704.86806 -16041.3139826,-3897357.27743 -16046.3179098,-3897174.8545 -16274.3145565,-3896824.41652 -16264.5675415,-3896483.74263 -16292.3852863,-3896178.68546 -16432.3636347,-3895976.98661 -16493.6110888,-3895824.00631 -16782.5639288,-3895708.82621 -16784.4874024,-3895491.45641 -16831.6529812,-3895171.72455 -16703.2829101,-3894835.67918 -16734.2211482,-3894517.10104 -16685.7264499,-3894252.24423 -16573.4547671,-3893980.00087 -16570.5371794,-3893516.84341 -16631.043958,-3893390.85164 -16674.5670246,-3893108.1283 -16618.911354,-3892773.38625 -16665.1447289,-3892486.63951 -16679.7116658,-3892127.74355 -16530.2910485,-3891863.34743 -16556.683652,-3891644.24375 -16649.4350455,-3891415.01406 -16596.8077509,-3891240.6336 -16599.3233971,-3890927.82059 -16924.4470942,-3890517.99728 -17016.9374275,-3890051.43008 -17010.844277,-3889805.15398 -16961.8530782,-3889540.29906 -16808.6437969,-3889376.3693 -16653.1861641,-3889159.99601 -16668.3537017,-3888732.63799 -16454.1075262,-3888481.84728 -16432.0318728,-3888288.68678 -16522.382971,-3888069.4725 -16532.9667719,-3887711.6107 -16484.7950686,-3887427.75896 -16316.6709002,-3887245.48184 -16143.1844918,-3886972.31608 -15917.8963743,-3886742.61449 -15637.4173697,-3886331.55842 -15619.1048836,-3885982.46391 -15640.3075812,-3885716.43793 -15714.6297399,-3885492.878 -16121.9254149,-3885289.63457 -16156.2702749,-3884908.0599 -16057.8436254,-3884541.23899 -16208.743856,-3884226.0107 -16275.1378009,-3883983.03905 -16368.6175,-3883829.75054 -16433.8787473,-3883625.2643 -16526.1333668,-3883474.48587 -16623.6188236,-3883243.21073 -16624.7118561,-3883042.83224 -16667.8761787,-3882826.56393 -16761.0165741,-3882663.78504 -16869.7129869,-3882455.38825 -16999.1638761,-3882327.74104 -17110.4964213,-3882133.80981 -17153.8675039,-3881965.50802 -17166.5519196,-3881696.5641 -17146.1324147,-3881545.85718 -17188.2007749,-3881345.58863 -17185.7905025,-3881249.67445 -17178.2750473,-3880931.95414 -17105.9885628,-3880633.83642 -17156.6071925,-3880570.89646 -16934.4767248,-3879936.9218 -16750.5151187,-3879507.44985 -16855.7876514,-3879227.63153 -16845.1336767,-3878973.89772 -16860.8337486,-3878653.95635 -16910.6655474,-3878587.02638 -17098.6010447,-3878329.90796 -17234.4236467,-3877978.34597 -17024.6048885,-3877535.62552 -17069.0998325,-3877274.87163 -16919.4929235,-3876937.51021 -16603.1664577,-3876644.70267 -16300.2786273,-3876451.70292 -16197.7321689,-3876387.2181 -16172.758793,-3876283.02213 -16251.8990246,-3876197.82535 -16355.6953335,-3876104.39979 -16470.2935305,-3875806.50296 -16471.7688813,-3875540.65943 -16551.2714266,-3875256.58678 -16450.4282565,-3874950.24001 -16601.0786447,-3874686.47889 -16801.5150239,-3874350.79142 -16916.4687438,-3874248.2662 -16952.3625761,-3874055.0491 -17291.8347494,-3873600.61892 -17550.1665828,-3873521.21932 -18020.7194691,-3873189.46886 -18149.0600393,-3872970.39202 -18331.2642296,-3872793.27775 -18450.055336,-3872568.29544 -18384.7008531,-3872421.00913 -18254.7697029,-3872366.77548 -18111.965802,-3872430.58855 -17951.6189026,-3872515.05487 -17713.7197787,-3872483.33067 -17684.4145335,-3872343.69747 -17568.896761,-3872281.33241 -17423.8078307,-3872262.22022 -17276.853153,-3872151.68383 -17087.2597962,-3872050.04602 -17120.2471555,-3871866.34975 -17133.0440397,-3871740.30832 -17134.9083206,-3871567.89988 -17089.931256,-3871329.97687 -17013.1725948,-3870901.975 -17017.7801791,-3870597.1237 -17090.8841161,-3870243.65367 -17129.1868498,-3869987.95173 -17087.3068897,-3869865.92537 -17001.9761433,-3869719.8258 -17037.4421749,-3869613.05684 -17167.5373157,-3869473.41194 -17227.2029581,-3869362.91607 -17249.2914818,-3869241.78289 -17180.8985125,-3869142.99284 -17122.2222297,-3868962.16213 -17083.440052,-3868718.68207 -16997.3355387,-3868543.60727 -16905.5852995,-3868405.56267 -16776.2916895,-3868286.86152 -16735.3213902,-3868155.33168 -16783.5800652,-3868027.45435 -16922.5313272,-3867978.66874 -17020.5835727,-3867964.24909 -17195.0055481,-3867941.11167 -17311.8810288,-3867830.07422 -17523.3160022,-3867705.15014 -17618.1261977,-3867559.34354 -17694.9918909,-3867418.20396 -17880.8311728,-3867255.04653 -17893.4260563,-3867081.03598 -17800.8366039,-3866907.02101 -17823.6324693,-3866754.90008 -17938.6194276,-3866681.85725 -18018.4814234,-3866646.12365 -18063.3387127,-3866554.75608 -18020.3762192,-3866450.22783 -17962.5784427,-3866282.87905 -17947.3166234,-3866122.12351 -17910.8199608,-3865961.56872 -17892.9513473,-3865789.34481 -18027.0894751,-3865680.64308 -18198.8291505,-3865611.56107 -18445.4744822,-3865378.87226 -18610.3973273,-3865011.54043 -18794.5443381,-3864721.97858 -18868.8453348,-3864441.45002 -18908.3613715,-3863943.38503 -19020.3345521,-3863657.00364 -18964.5836704,-3863468.14747 -18836.2191554,-3863288.97159 -18800.3948676,-3862882.06113 -18960.8155301,-3862540.25541 -19146.5966156,-3862238.18567 -19356.5551402,-3862009.34262 -19597.6572251,-3861797.69502 -19638.2453655,-3861624.4182 -19608.5047295,-3861279.41115 -19545.3351654,-3860966.19997 -19510.6646501,-3860654.71821 -19597.1315312,-3860445.02997 -19742.1892581,-3860063.39363 -19846.7053953,-3859860.03113 -19984.5851756,-3859617.8774 -19926.7341485,-3859418.04544 -19814.1477916,-3859216.23118 -19788.1710647,-3858819.71764 -19843.7283378,-3858193.57349 -19863.230199,-3857877.08125 -19985.9152017,-3857613.08357 -20299.6372779,-3857418.24204 -20551.5387147,-3857291.44286 -20772.8671972,-3857154.9382 -20906.031128,-3856968.79525 -21092.4021405,-3856914.07105 -21321.3389563,-3856763.00412 -21494.9563491,-3856574.4817 -21576.7605918,-3856373.33254 -21581.4121263,-3856097.95553 -21591.4463268,-3855863.50284 -21547.6553827,-3855591.0802 -21670.3209009,-3855271.61713 -21675.4034032,-3854935.77174 -21593.4304101,-3854747.65733 -21504.6184608,-3854523.12906 -21458.2678606,-3854297.20138 -21275.9674628,-3854121.02438 -21206.0379118,-3853938.29255 -21213.2808893,-3853566.44661 -21260.8067246,-3853253.68566 -21424.2264703,-3853096.24054 -21600.9860318,-3852949.16378 -21668.9814726,-3852767.13211 -21635.9380062,-3852574.55799 -21518.5268892,-3852417.25706 -21349.3398741,-3852253.94703 -21030.6598075,-3852108.53377 -20812.1445175,-3852066.61609 -20487.9508567,-3852025.69306 -20077.4541374,-3851894.13645 -19682.0190405,-3851902.85565 -19560.7972902,-3851765.57811 -19531.6309391,-3851639.9266 -19406.5346236,-3851489.19324 -19400.744266,-3851351.82827 -19520.2900476,-3851178.30405 -19560.2866858,-3850968.05047 -19530.6926428,-3850796.92921 -19409.3902563,-3850677.6411 -19158.1314983,-3850608.04768 -18953.8239416,-3850456.55984 -18882.0227331,-3850260.84978 -18794.2651446,-3850068.78768 -18627.7553403,-3850004.39296 -18449.3650946,-3850005.07246 -18127.3488104,-3850010.10218 -17828.1625193,-3849733.07994 -17584.1713681,-3849400.56934 -17252.1973473,-3848772.55598 -17208.8789502,-3848470.6365 -16992.7003675,-3848279.28136 -16791.5669929,-3847934.37167 -16647.9885535,-3847651.88402 -16635.9725601,-3847463.60389 -16546.9841346,-3847247.06434 -16550.1330847,-3847050.64574 -16565.2253043,-3846928.57262 -16497.6578505,-3846864.24503 -16568.4207745,-3846763.63564 -16659.4245602,-3846689.82062 -16676.1120858,-3846498.27158 -16699.1935281,-3846242.69832 -16708.1309372,-3846077.20735 -16607.9067723,-3845967.71217 -16524.8884417,-3845854.55706 -16569.5707974,-3845717.21362 -16684.7560191,-3845531.234 -16758.2600099,-3845376.62903 -16772.0215698,-3845166.11749 -16699.3360138,-3845062.35945 -16660.8508865,-3844928.79623 -16646.2993967,-3844763.02574 -16730.6955877,-3844677.27963 -16765.3983124,-3844568.01416 -16706.9723784,-3844466.12063 -16657.4364142,-3844379.63483 -16582.0726761,-3844150.47135 -16772.6990271,-3843749.90107 -17052.0782632,-3843407.96371 -17059.6237814,-3842562.36123 -17385.7471064,-3842381.89545 -17353.4955579,-3842113.84669 -17078.6314874,-3841819.59225 -16972.4802462,-3841637.68996 -16782.3233022,-3841636.47787 -16604.7589762,-3841592.67089 -16528.7170922,-3841610.37595 -15851.4428417,-3841541.78039 -15653.4041901,-3841393.22339 -15621.9306654,-3840968.75039 -15889.7717103,-3840940.7478 -15892.6284461,-3840819.28704 -15643.509674,-3840526.28783 -15813.0615293,-3840328.8013 -15887.1398264,-3840155.19919 -16473.3125082,-3839089.76821 -16598.7670314,-3838879.20355 -16638.7689495,-3838509.02747 -16794.636749,-3838344.1526 -16949.6473236,-3837794.9926 -17087.3925102,-3837589.30998 -17073.997295,-3837280.10158 -16939.3368568,-3837175.42159 -17037.1760277,-3836924.1377 -16871.1416382,-3836591.37359 -16871.4199542,-3836328.01126 -17101.2642371,-3836137.95565 -17418.299702,-3835626.7532 -17581.8265317,-3835532.26952 -17700.2081668,-3835259.80396 -17964.4828527,-3834957.48618 -18002.247541,-3834801.21498 -17833.5875198,-3834427.99393 -17611.8151358,-3834333.12337 -17632.9747781,-3834138.02787 -18011.611047,-3834040.52964 -18275.7757017,-3833512.8319 -18526.4857396,-3833495.9913 -18967.202048,-3833330.44921 -19113.2141778,-3833153.17491 -19406.8564707,-3833051.478 -19677.7740725,-3832924.50769 -19948.6115752,-3833242.80262 -20128.3573006,-3833199.14247 -20324.3589128,-3832943.44284 -20577.9768364,-3832863.61067 -20818.3024836,-3832644.97698 -21051.4467415,-3832513.36462 -21154.8580303,-3832349.48382 -21233.116293,-3832114.37623 -21163.025005,-3831913.63851 -21362.7301187,-3831252.11978 -21538.5765369,-3830951.63342 -21434.8358861,-3830706.23301 -21557.5850409,-3830552.66577 -21550.3928597,-3830264.38454 -21527.0402605,-3830145.16548 -21646.1566104,-3830030.61174 -21875.023752,-3829842.07078 -22067.4789746,-3829607.39468 -22060.4305427,-3829307.61758 -22192.1755259,-3829153.96661 -22242.9777828,-3828868.14122 -22069.028564,-3828703.35276 -22081.4051487,-3828182.50809 -22250.7375158,-3827826.11103 -22214.4744996,-3827314.21478 -22536.8360989,-3827076.32694 -22964.052498,-3827042.8549 -23272.223627,-3826864.07031 -23640.4547637,-3826802.16501 -23835.0373421,-3826553.97768 -23827.846885,-3826345.65279 -24106.0119635,-3826137.66488 -24117.8779399,-3825829.21382 -24101.2218003,-3825623.97525 -23953.1257449,-3825551.89407 -23862.7639736,-3825347.34245 -23698.5613061,-3825128.98654 -23651.0531335,-3824777.11012 -23251.5613166,-3824648.90241 -22990.8496972,-3824558.38089 -22956.5721742,-3824392.78497 -23059.8731243,-3824055.49267 -22907.3787256,-3823887.00063 -22957.9078184,-3823651.64845 -23127.0652532,-3823329.2338 -23097.479247,-3823077.13696 -23284.8957007,-3822837.01043 -23264.3608798,-3822671.28536 -23182.865102,-3822479.64153 -23305.2492479,-3822205.63816 -23414.2814643,-3821866.29196 -23797.6125187,-3821627.3392 -24266.1340757,-3821198.68874 -24789.4003954,-3820530.64958 -25099.3149173,-3820108.4751 -25153.6140538,-3819848.09956 -25179.9565312,-3819456.54932 -25134.4889447,-3819162.11868 -25067.8824806,-3819012.81254 -24942.1522163,-3818847.0646 -24807.489756,-3818741.86974 -24720.9911718,-3818576.25636 -24630.5564126,-3818444.16297 -24633.0435249,-3818281.71968 -24719.0312296,-3818177.47074 -24857.9094184,-3818064.23416 -24964.2692913,-3817947.30204 -25076.0878759,-3817799.33443 -25148.3571048,-3817697.71203 -25174.9100392,-3817543.54064 -25145.8855363,-3817431.86531 -25213.565662,-3817347.27723 -25321.0602417,-3817244.82765 -25462.9495461,-3817079.08926 -25597.8105667,-3816909.91801 -25683.6999513,-3816741.20192 -25830.9009644,-3816555.42421 -26099.88361,-3816352.52306 -26331.0152982,-3816217.44097 -26454.8117568,-3816121.33753 -26665.0678616,-3816025.43074 -26798.1862888,-3816045.18427 -26943.2342066,-3816111.80407 -27068.7389898,-3816226.58179 -27255.1977345,-3816285.82048 -27368.3672275,-3816417.70427 -27370.0919012,-3816549.62325 -27445.7723225,-3816626.88207 -27572.3846033,-3816645.69656 -27698.9304975,-3816603.54185 -27782.2322564,-3816532.80303 -27865.2881864,-3816435.57962 -27887.4305714,-3816344.41899 -27849.3340631,-3816224.33207 -27743.8752905,-3816169.33862 -27693.7810344,-3816048.86319 -27657.456032,-3815904.27164 -27705.8432972,-3815840.85343 -27789.4051964,-3815798.09844 -27871.2082476,-3815727.37356 -27837.2081301,-3815671.71662 -27696.8343249,-3815624.04352 -27605.4322048,-3815575.91589 -27561.4377646,-3815520.35165 -27569.1536641,-3815436.32113 -27665.2085645,-3815393.45017 -27786.9244555,-3815342.34502 -27840.5032746,-3815272.88157 -27832.7282395,-3815188.99481 -27738.5168298,-3815107.40939 -27571.3391,-3815079.47522 -27547.9807218,-3815012.72466 -27612.1463766,-3814953.15796 -27677.2053786,-3814909.07543 -27668.3799341,-3814819.70094 -27630.575216,-3814704.1082 -27589.1339285,-3814600.5433 -27484.2119824,-3814576.52903 -27358.3489054,-3814584.69358 -27225.6845616,-3814613.91113 -26940.0506302,-3814584.57757 -26810.9071709,-3814400.86563 -26744.157928,-3814182.09102 -26728.158324,-3813992.83075 -26637.678368,-3813828.74974 -26620.2173601,-3813670.48784 -26667.7510628,-3813461.1469 -26778.4282168,-3813162.76234 -26824.473511,-3813008.40874 -26866.2346994,-3812877.08387 -26891.318944,-3812671.94894 -26912.248871,-3812503.83481 -26981.3011027,-3812405.24098 -27139.2211838,-3812377.78875 -27224.2514021,-3812331.52186 -27301.6928005,-3812248.343 -27433.6449726,-3812142.16945 -27522.7967978,-3812001.40949 -27564.2351414,-3811889.07859 -27457.9968418,-3811750.13003 -27441.7265973,-3811612.34633 -27479.6896483,-3811448.57187 -27505.7927835,-3811191.4515 -27653.0336367,-3811090.13404 -27721.5912591,-3810938.07025 -27749.4907969,-3810739.90515 -27773.2451046,-3810606.74773 -27712.6985817,-3810382.91442 -27722.0944111,-3810102.45908 -27771.9779853,-3809957.56468 -27882.1987639,-3809852.09256 -27957.4252419,-3809772.43273 -28042.0493903,-3809709.17815 -28115.6144587,-3809477.10517 -28204.6991573,-3809355.83649 -28311.1955962,-3809198.92322 -28284.2196914,-3809038.24819 -28236.1027163,-3808888.26389 -28167.9273519,-3808811.931 -28087.9528975,-3808756.69756 -27965.1825355,-3808748.3388 -27911.429602,-3808583.41334 -27851.5180113,-3808401.05287 -27850.9627581,-3808368.07328 -27847.6127974,-3808168.19674 -27842.578679,-3807975.33241 -27918.4772006,-3807833.19497 -27956.5633325,-3807628.43655 -27912.8054197,-3807409.44246 -27933.9102676,-3807232.82808 -27984.7627113,-3807111.41287 -27992.269725,-3806734.51581 -28012.52388,-3806519.92624 -27994.7706426,-3806356.66497 -27952.9605118,-3806267.09276 -27812.6476826,-3806226.41012 -27677.947395,-3806198.16992 -27525.4139518,-3806187.0871 -27377.0678921,-3806196.45633 -27292.8453195,-3806060.29772 -27229.7500363,-3805965.92454 -27256.7729355,-3805888.70919 -27343.7032684,-3805858.41804 -27374.3495231,-3805740.68743 -27396.3294883,-3805577.55747 -27504.8183502,-3805473.60005 -27616.2405412,-3805416.59441 -27647.4790797,-3805335.84165 -27649.8124594,-3805182.88885 -27675.0000778,-3804961.2553 -27740.4253889,-3804767.23688 -27875.7803323,-3804650.03701 -27966.1254514,-3804664.69456 -28040.5847378,-3804744.96966 -28106.5035843,-3804712.37444 -28147.7048103,-3804628.03114 -28234.5527546,-3804561.75747 -28336.4744502,-3804612.29197 -28440.9590666,-3804696.78748 -28574.7999198,-3804659.06647 -28671.3884062,-3804565.21537 -28733.6360933,-3804351.73571 -28888.7364431,-3804180.87823 -29056.838352,-3804064.87606 -29208.6067045,-3803939.02948 -29189.7071441,-3803813.76043 -29147.5002243,-3803708.19794 -29148.6321316,-3803560.25373 -29081.1343224,-3803394.95155 -29017.2068864,-3803318.57655 -29018.8668779,-3803146.63786 -29028.2261227,-3802996.61813 -28977.8947693,-3802850.14841 -28941.8145379,-3802731.53451 -29012.3673275,-3802632.42643 -29142.4453801,-3802484.78982 -29300.9176524,-3802462.33548 -29386.2174928,-3802363.59115 -29396.0388235,-3802263.54475 -29357.3594314,-3802106.97139 -29351.9100052,-3801868.62701 -29466.9353606,-3801768.60861 -29505.4971508,-3801641.80834 -29479.5183507,-3801534.59552 -29391.1660884,-3801383.97779 -29383.2262316,-3801200.6316 -29451.3558975,-3801082.55418 -29527.6052328,-3801004.88408 -29685.0743389,-3800981.94008 -29828.2539268,-3800981.11842 -29899.1261404,-3800916.49245 -29889.735914,-3800819.62165 -29846.2083849,-3800652.09689 -29809.6772221,-3800484.50743 -29909.1048477,-3800400.12646 -29982.5847685,-3800266.00677 -30023.4010287,-3800139.68516 -30120.8981637,-3800089.80709 -30197.0835734,-3800005.14092 -30188.5420196,-3799864.78092 -30110.9330546,-3799768.0392 -30039.7432511,-3799635.75361 -29946.6506449,-3799431.70112 -29937.9221292,-3799216.87457 -29950.1081679,-3799020.84675 -30040.2869509,-3798936.05131 -30053.4199944,-3798788.49374 -30100.4158085,-3798627.62943 -30084.1006947,-3798375.88805 -30058.0938706,-3798184.21007 -30081.1980581,-3798061.04967 -30287.4492412,-3797935.20138 -30386.6540544,-3797799.34468 -30470.0951641,-3797742.59957 -30581.9088237,-3797727.57507 -30719.2786282,-3797611.35832 -30845.7014553,-3797473.25197 -30920.9295442,-3797311.62762 -31023.6877165,-3797100.27076 -31099.3560933,-3796932.1451 -31089.5735111,-3796656.85236 -31002.9249807,-3796338.28582 -31022.3034843,-3796163.18132 -31161.0433446,-3795978.4812 -31249.5143088,-3795762.25747 -31445.6336271,-3795567.03346 -31156.2937389,-3795571.19654 -31144.4332299,-3795585.79964 -31111.2114022,-3795723.04791 -28879.2566898,-3795681.13508 -28890.5551921,-3795605.56217 -27521.5587236,-3795626.18043 -29485.9306356,-3791602.20191 -30681.7480743,-3789568.50504 -32773.0337061,-3785713.29443 -33326.2609741,-3781122.93568 -33840.1935823,-3777801.91676 -34972.1919779,-3775217.46676 -34665.3964385,-3772763.0872 -34365.7245882,-3770951.90561 -34086.5274685,-3768946.0784 -33706.3252045,-3767210.06807 -33532.1796573,-3765376.6912 -33326.7961914,-3763213.17152 -32957.8632284,-3762027.85164 -32612.6894069,-3760404.42091 -32265.0682169,-3758868.97394 -32030.6590224,-3757057.05016 -32070.7780506,-3754621.25759 -32317.9338262,-3752495.48944 -32601.9126385,-3749245.09731 -32835.2290271,-3747241.8784 -32812.2621049,-3745144.97555 -29212.7330623,-3744465.67841 -25831.2139703,-3743577.98695 -25765.3336358,-3743590.08318 -25066.3489497,-3743662.91911 -24485.3547544,-3743709.18987 -23857.4023655,-3743759.38887 -23112.7438483,-3743922.63522 -22578.0052744,-3743915.4997 -21920.0753653,-3743940.48224 -21311.5418228,-3743900.02663 -20589.8860283,-3743844.60513 -19944.3378598,-3743720.0021 -19595.6164272,-3743663.18694 -18930.310911,-3743565.26328 -18264.0993919,-3743477.84856 -17596.5504794,-3743408.44588 -16926.9145156,-3743357.06221 -16255.4233834,-3743321.69581 -15582.8499277,-3743304.83947 -14912.7484588,-3743312.46011 -14241.5788464,-3743340.09072 -13570.063747,-3743384.72515 -12900.7120188,-3743447.34042 -12234.5328429,-3743528.92723 -11552.1566075,-3743616.16444 -11204.8902474,-3743664.83923 -10865.7962296,-3743732.43785 -9868.68914882,-3744499.99197 -9728.37941261,-3744846.24014 -9081.74771752,-3745478.10033 -8395.5430084,-3745447.40097 -8034.61771229,-3745396.71973 -7691.16345944,-3745370.37602 -7019.28304121,-3745321.05198 -6349.59558808,-3745265.71072 -5680.47823479,-3745245.36286 -5010.8562948,-3745279.01655 -4341.72260739,-3745338.6657 -3673.93926809,-3745409.30397 -3004.40570043,-3745479.96101 -2334.70581514,-3745532.62397 -1664.14943465,-3745573.79854 -993.560035284,-3745611.47634 -323.18292968,-3745645.15512 348.759285552,-3745671.85154 1018.98957027,-3745694.53507 1690.28517551,-3745710.23159 2362.20629613,-3745712.43757 3033.46633163,-3745705.14072 3705.3013009,-3745689.8523 4375.69312715,-3745668.55345 4857.83027837,-3745649.51502 5046.88223925,-3745642.26477 5718.1373195,-3745608.97963 6387.94942228,-3745569.68396 7058.3182773,-3745524.39622 7728.24410357,-3745473.10714 8396.54203259,-3745408.80618 8819.65696289,-3745366.23223 9064.8691941,-3745341.50795 9376.66872029,-3745306.90229 9736.26689362,-3745266.74094 10081.0162212,-3745210.44351 10633.6104899,-3745519.55177 11205.0897082,-3745813.8383 11865.0197129,-3745870.46452 12542.1065251,-3745883.25557 13224.6339581,-3745875.60106 13900.8668143,-3745872.89022 14571.3840126,-3745866.62891 15243.4950021,-3745850.38547 15913.4411223,-3745825.12483 16584.6846964,-3745794.87894 17255.2260603,-3745759.62916 17925.8337966,-3745717.38274 18296.0618601,-3745690.83639 18596.2486836,-3745669.13718 19264.7210175,-3745614.87612 19422.0801284,-3745602.3451 19934.6850444,-3745561.63124 20604.281065,-3745494.38589 21268.6032788,-3745403.09462 21932.1793473,-3745284.79969 22590.7834511,-3745136.96156 23227.8643142,-3744938.42603 23801.0780019,-3744565.80091 24388.6190249,-3744265.30776 25044.8331983,-3744213.45046 26763.3515933,-3744286.04196 27542.8740727,-3744761.33382 27795.5503192,-3744981.6961 28041.6611151,-3745208.99687 28275.4196205,-3745447.18166 28482.6961966,-3745710.11736 28673.0740813,-3745988.89397 28857.6551126,-3746272.61596 29039.9951594,-3746555.31688 29205.9552215,-3746851.86341 29372.4145817,-3747148.41447 29559.049099,-3747426.15559 29783.5161359,-3747668.25348 30032.4360061,-3747888.58215 30228.9446951,-3748046.4214 30561.5611623,-3748298.53562 30836.4608296,-3748494.11044 31115.1376665,-3748686.72127 31394.3233176,-3748878.33734 31669.4807847,-3749072.91577 31939.3320156,-3749273.4444 32203.3394322,-3749483.91791 32464.5402155,-3749700.36504 32724.2123976,-3749919.79793 32985.1714658,-3750135.24342 33249.9547423,-3750342.72562 33522.0994299,-3750538.27807 33802.671355,-3750714.91125 34094.9389834,-3750870.65612 34398.9024146,-3751005.51277 34713.0054326,-3751125.46629 35033.4986474,-3751230.48141 35360.1038983,-3751323.55539 35689.3028926,-3751406.65497 36019.336505,-3751480.76352 36349.4265967,-3751548.87355 36678.8327404,-3751609.97813 37009.5924333,-3751660.09667 37183.388551,-3751680.73584 37341.9462634,-3751700.23141 37676.6253025,-3751732.38913 38012.6014133,-3751759.55998 38348.6059133,-3751783.73189 38683.8700339,-3751806.89747 39016.360478,-3752203.01831 39350.6568434,-3752249.17492 39772.557998,-3752336.65812 40104.2264702,-3752422.78924 40546.5659727,-3752384.47403 41026.0412706,-3752569.49974 41375.2398008,-3752995.78129 43424.5882521,-3753211.67349 45390.1275141,-3753724.27892 47615.4767405,-3754623.353 51108.0120341,-3755362.51849 54842.6613656,-3756165.55694 59154.8065023,-3757356.17113 62753.1010317,-3757957.57752 63106.4828686,-3757993.96152 64987.3922139,-3758513.96623 67647.7563828,-3759293.46131 67996.7525893,-3759395.80857 70037.7472418,-3756629.07 72480.9501511,-3753352.19054 73355.3578873,-3753100.11762 82365.3185553,-3750503.65568 82434.9656837,-3750798.32868 83547.2163777,-3750746.09967 85291.0686421,-3750657.50043 86124.36332,-3749415.58144 92511.8180599,-3752325.14494 94301.8165233,-3748449.57876 95021.24797,-3747867.58348 103103.831683,-3742535.40193 109135.095079,-3747699.71639 109249.032207,-3747680.8357 109425.567385,-3747652.07012 111082.199397,-3747386.85452 112156.407845,-3747214.92179 112867.740662,-3747029.92166 113366.719693,-3746829.83225 113360.490057,-3746396.26277 114359.425639,-3745872.09367 116261.12529,-3745349.33351 120980.21146,-3745730.96263 121357.870454,-3745766.19959 126360.863383,-3746229.77709 130484.437982,-3746604.74102 132210.281495,-3747576.41674 142644.827063,-3753340.44171 144252.066749,-3754258.98932 147897.247069,-3756342.4073 157865.355816,-3761946.15147 157996.103762,-3762019.46116 159163.848126,-3762727.15407 159460.501442,-3762907.12484 159510.792214,-3762952.12688 159512.641694,-3763140.62462 159523.290788,-3763373.70586 159525.339933,-3763567.20463 159627.868344,-3763687.22452 159583.07577,-3763840.75536 159597.106181,-3763986.37998 159718.97089,-3764097.59552 159823.77968,-3764140.14714 159928.583371,-3764183.19869 159959.90112,-3764126.52108 160019.96261,-3764070.13323 160136.94916,-3764045.31569 160241.752776,-3764088.36742 160335.675572,-3764169.30499 160322.455502,-3764265.6603 160320.020429,-3764333.62768 160384.8054,-3764403.77261 160488.917327,-3764465.81508 160624.251227,-3764480.67809 160689.28597,-3764550.82554 160743.881391,-3764639.8654 160749.455357,-3764756.40749 160803.354233,-3764864.93785 160918.697299,-3764879.09942 160998.239189,-3764824.40838 161013.006631,-3764698.57268 161065.750527,-3764574.61974 161171.654157,-3764607.68402 161216.251546,-3764696.62308 161230.626577,-3764832.75144 161186.333276,-3764986.28575 161066.518123,-3765068.56705 161024.213707,-3765173.62735 161215.030152,-3765239.04386 161360.802601,-3765235.01481 161573.794638,-3765233.16373 161783.659624,-3765318.27041 161981.341089,-3765471.24566 162261.403975,-3765783.53175 162560.763753,-3766016.52261 162709.863449,-3766079.01926 162799.844213,-3766277.90124 163106.436505,-3766289.49448 163211.978363,-3766432.54084 163498.139126,-3766610.90587 163642.563165,-3766839.33301 163824.893209,-3766804.17884 164018.367379,-3766853.62581 164234.818564,-3767028.78761 164353.318255,-3767200.46054 164573.888768,-3767264.67939 164766.084653,-3767341.60999 164943.114843,-3767459.88163 165156.749388,-3767691.00696 165345.715366,-3767864.89114 165548.945201,-3768012.4232 165667.056888,-3768197.58962 165693.537157,-3768421.82416 165738.941881,-3768702.7412 165829.956496,-3768873.13531 165780.12278,-3769080.10055 165817.335378,-3769206.9573 165942.01832,-3769211.71641 165977.170619,-3769394.04375 166008.588854,-3769673.81813 166112.556712,-3769873.33766 166206.022278,-3769974.26632 166252.605689,-3770212.69955 166187.215757,-3770474.99729 166178.073993,-3770711.86713 166296.570493,-3770883.53676 166458.573032,-3771029.15007 166547.521335,-3771255.51196 166348.117121,-3771372.97803 166125.878152,-3771350.73649 165876.297779,-3771313.22148 165773.055264,-3771462.65434 165750.178176,-3771698.38466 165827.690838,-3771869.13936 165877.758662,-3772010.12166 166016.544707,-3772029.02026 166179.72074,-3772132.65116 166158.903465,-3772312.91066 166096.993839,-3772478.2575 166218.049681,-3772594.46053 166339.246731,-3772696.66733 166279.657139,-3772805.54687 166192.080319,-3772913.64386 166185.254469,-3773094.54389 166277.295323,-3773237.44882 166325.297873,-3773434.39948 166399.227733,-3773687.60193 166418.074316,-3773925.25047 166504.321497,-3774221.06905 166591.595951,-3774489.40247 166767.587212,-3774635.65356 166803.913227,-3774775.99506 166669.984844,-3774994.10285 166677.796466,-3775161.15125 166573.518988,-3775339.06563 166566.448747,-3775519.46103 166658.097546,-3775676.35743 166677.194368,-3775914.00605 166667.027158,-3776178.35389 166695.181741,-3776360.60383 166821.874115,-3776685.82129 166952.549323,-3776913.59712 167159.758841,-3776963.17986 167168.989099,-3777088.74885 167159.849172,-3777325.61068 167250.861014,-3777495.99647 167239.265269,-3777802.81926 167231.41289,-3778011.19888 167220.525163,-3778074.57642 167186.516575,-3778274.19346 167023.691407,-3778532.49822 166928.647116,-3778835.97798 166875.476726,-3779126.38272 166853.629498,-3779334.61997 166859.127708,-3779557.62997 166810.331567,-3779736.60087 166804.539683,-3779889.51098 166810.0331,-3780113.02025 166818.623068,-3780252.57799 166855.444212,-3780393.42023 166668.900323,-3780525.51043 166495.814993,-3780686.23058 166601.849691,-3780829.27033 166595.412221,-3780996.67014 166644.05625,-3781179.62221 166550.047072,-3781455.11534 166638.999828,-3781680.96441 166744.388113,-3781838.4937 166799.711487,-3782003.51622 166800.920761,-3782007.52755 166973.707395,-3782223.22388 167092.699688,-3782394.88692 167283.849509,-3782499.79244 167515.057477,-3782647.59277 167619.662528,-3782833.10729 167762.798772,-3783088.99478 167878.052604,-3783358.5975 167921.29516,-3783680.46143 167855.272585,-3783956.73274 167903.27972,-3784153.17243 168078.231894,-3784327.39781 168182.200106,-3784526.40115 168197.848069,-3784833.48813 168187.292392,-3785111.817 168176.736877,-3785390.14551 168195.840082,-3785627.28257 168327.533486,-3785828.06378 168560.546807,-3785920.39276 168693.531806,-3786092.19366 168725.978802,-3786344.46077 168592.060574,-3786562.55737 168404.604743,-3786736.12461 168300.340416,-3786913.53014 168391.735903,-3787070.41407 168586.613369,-3787077.87799 168735.538376,-3787180.85529 168772.749706,-3787307.69976 168659.259473,-3787359.04239 168462.959247,-3787393.55392 168267.304997,-3787413.57569 168136.72888,-3787548.22599 168045.428592,-3787753.75506 167996.635955,-3787932.71918 168003.553903,-3788114.24429 168040.765753,-3788241.0882 168107.521701,-3788313.24347 168102.372303,-3788452.15712 167986.569131,-3788559.46289 167896.937434,-3788723.51844 167848.145422,-3788902.48193 167743.88818,-3789079.38672 167669.27881,-3789216.1004 167648.217356,-3789396.34283 167670.407709,-3789550.52764 167691.457406,-3789718.69729 167738.933457,-3789943.11886 167792.897103,-3790168.60528 167971.582581,-3790244.88674 168062.977885,-3790401.76771 168096.599704,-3790612.05247 168129.439677,-3790850.32189 168119.924084,-3791100.16114 168150.841686,-3791380.39965 168367.019973,-3791555.53252 168515.015016,-3791700.9859 168603.960224,-3791927.32264 168594.444627,-3792177.16047 168447.183265,-3792380.62219 168420.578109,-3792714.26494 168439.8194,-3792937.89882 168430.304469,-3793187.73562 168452.405637,-3793400.4008 171877.087601,-3793338.95116 171883.085331,-3793339.01167 173122.677563,-3793320.52948 173143.215166,-3793316.23804 174524.235352,-3793300.6909 176740.600779,-3793276.60117 180752.291354,-3793414.66728 181212.317812,-3793349.34741 181682.477085,-3793344.61339 182116.545634,-3793374.50424 182279.289781,-3793419.64062 182564.702657,-3793370.54879 182900.593466,-3793371.45433 183114.460214,-3793427.60636 183279.363268,-3793506.2552 183554.554746,-3793528.53962 183690.269166,-3793749.84961 184120.086087,-3793853.6783 184511.661,-3793760.67931 184866.815916,-3793734.79113 185110.496597,-3793635.79434 185122.772043,-3793632.91981 185546.9098,-3793532.75561 185813.455811,-3793470.98053 186133.631081,-3793567.20216 186540.730936,-3793594.32806 186723.107844,-3793650.16322 186897.873593,-3793667.93289 187040.15889,-3793709.36544 187209.404044,-3793680.09375 187462.344375,-3793653.67166 187777.226351,-3793581.89334 188033.26869,-3793471.52949 188333.430275,-3793471.08039 188421.573739,-3793503.46628 188735.810462,-3793618.12493 189182.925078,-3793863.59382 189559.953111,-3794045.87009 189983.207597,-3794278.10081 190373.516787,-3794112.62318 190802.155135,-3793889.05481 191331.267811,-3793861.44768 191684.232192,-3793731.08163 192103.000468,-3793789.82577 192743.328143,-3793246.51952 192805.851521,-3793193.17332 193561.078881,-3793785.17598 193957.44047,-3794080.61808 194174.808645,-3794479.20244 194214.388777,-3795009.93104 194228.12514,-3795133.53011 194292.236926,-3795709.49185 194429.821933,-3796285.70019 194444.454185,-3796984.11318 194403.633913,-3797532.51071 194536.807218,-3798051.18868 194903.921015,-3798960.61093 194759.804286,-3799738.37112 194664.746216,-3800263.21827 194725.363463,-3801134.02492 194906.45824,-3801904.59006 194800.155259,-3802331.35386 194627.159375,-3802607.49374 194501.924434,-3802807.14727 194254.645805,-3803285.95772 194180.79703,-3803765.53084 194415.70637,-3804380.69161 194259.554366,-3805729.60023 193991.591123,-3806892.43747 193299.444785,-3808188.41275 193126.527419,-3809048.82538 193222.051282,-3809732.5289 193675.476868,-3810461.34444 193985.688324,-3811216.69315 193830.999409,-3811364.56451 193840.725484,-3811883.95564 193653.755113,-3812233.4186 193510.902715,-3812766.7549 193393.091163,-3813319.83642 193282.228302,-3813680.56582 193260.529884,-3813750.31744 193160.09527,-3814389.03866 193021.459801,-3814851.94366 193053.143501,-3815424.52902 192847.265796,-3816111.65831 192883.887486,-3816813.7369 193065.747819,-3817807.1618 193741.164401,-3818552.1872 194106.562678,-3819015.69034 194232.028491,-3819433.28162 194058.004254,-3820134.21594 194378.816635,-3820830.16199 195236.508558,-3821193.68942 195964.333518,-3821351.99283 196123.947379,-3821777.92099 196141.999547,-3822117.45267 196591.189339,-3822424.36623 196895.914215,-3822561.39218 197013.327348,-3823008.88023 196796.255956,-3823297.05091 196737.064816,-3823367.91926 196449.461299,-3823711.85055 196008.748462,-3824221.65666 195765.750735,-3824578.03474 195719.956117,-3825300.74192 195542.647847,-3825882.68113 194451.792147,-3826609.81205 193553.689548,-3827031.53763 193200.888645,-3827547.23499 193164.388787,-3828241.5465 193582.05461,-3828873.97409 194058.851988,-3829292.59719 194214.649527,-3829429.1078 194700.023564,-3829616.92519 194919.944864,-3830034.95102 194814.275541,-3830427.6974 194625.227848,-3830589.71033 194574.776857,-3831552.24328 194358.602172,-3832594.56118 194849.31039,-3833293.18032 195286.202419,-3833579.95375 195467.638159,-3833924.11881 195496.565898,-3833979.38404 195770.016483,-3834119.57747 195768.997177,-3834171.04202 195764.718881,-3834495.83986 195745.368239,-3835051.37174 195348.229325,-3835480.65068 195111.343183,-3835778.11284 194807.648659,-3836059.90869 194465.967075,-3836168.90686 193934.4067,-3836473.39366 193330.505863,-3836641.71923 192903.89089,-3837244.12064 192576.801976,-3837938.48047 192294.10878,-3838293.95534 192092.168656,-3838992.57405 191967.66566,-3839668.98309 191850.68995,-3840268.00558 191872.235957,-3840882.91431 191937.687333,-3841480.27269 191961.708564,-3841700.40343 192159.600467,-3842768.85391 192232.135029,-3843928.99096 191659.543214,-3845035.65984 191344.822433,-3845396.80759 191255.501045,-3845706.74915 190864.411771,-3846108.60836 190676.664063,-3846689.91965 189908.49317,-3847592.2301 189834.407057,-3848102.22032 189561.282135,-3848576.72886 189426.041275,-3849080.6071 189277.7669,-3850061.6035 189090.699158,-3850625.92811 188786.390121,-3851544.38827 188720.755414,-3852233.864 188614.316121,-3853354.69889 188729.058121,-3854121.93899 188905.651671,-3854875.80451 189083.172208,-3855537.22725 189186.390654,-3855983.52016 189121.007085,-3856474.09762 188968.48165,-3856908.8314 188966.098864,-3857396.04132 188740.589717,-3857683.62358 188220.803301,-3857540.99216 188004.375727,-3857370.91599 187706.283649,-3857321.45576 187773.224918,-3857697.92149 187681.934989,-3858355.64766 187677.311788,-3858867.32111 188001.500049,-3859404.7731 188135.066959,-3859964.80202 188084.180451,-3860455.5209 187910.291568,-3861477.71229 187801.067526,-3862754.90623 187192.293344,-3863440.93009 186583.385552,-3863715.68458 185790.283447,-3864670.2182 185519.167122,-3865247.18397 185421.413974,-3865978.29572 185177.14154,-3866844.8657 184678.498806,-3866912.34533 184513.414118,-3867280.4883 184730.804689,-3867604.47678 184467.651801,-3868285.46239 184636.095308,-3869132.66288 184729.723179,-3869414.93684 184804.179321,-3869715.5086 184769.080965,-3870328.30732 185234.096173,-3870725.72175 185572.837102,-3871182.8403 185593.926503,-3871573.32524 185559.981961,-3871895.30007 185432.295288,-3872171.86532 185418.765185,-3872200.71355 185528.891033,-3872632.56217 185323.331855,-3873051.26738 185087.663686,-3873282.28141 184544.830809,-3873372.31309 184172.787643,-3873824.33926 184172.268059,-3873826.33291 183827.83625,-3874992.71914 183736.260598,-3875607.44727 183550.201176,-3876100.80397 183372.57711,-3876600.24107 183394.797834,-3876877.79977 183688.5743,-3877585.31151 183401.062202,-3878180.59576 183059.025529,-3878806.81869 183050.891766,-3878820.72945 183033.65607,-3879422.7018 183191.334388,-3880223.79695 182950.605436,-3880411.78808 182649.219679,-3880719.60435 182295.492443,-3880964.43739 181940.174345,-3881545.05556 182042.626,-3882247.157 182272.691033,-3882980.5081 182643.820948,-3883774.22461 182900.56493,-3884286.97029 182855.945905,-3884628.32045 182458.918303,-3885107.58179 182119.975095,-3885574.92859 182009.57317,-3885823.18072 181771.135746,-3886057.66814 181356.132024,-3886510.76836 180938.695333,-3886730.98588 180429.352861,-3886796.38414 180014.977976,-3886783.77379 179706.335886,-3886514.86855 179434.197878,-3886318.78208 179234.260899,-3886148.3975 178987.000739,-3885963.05153 178810.560183,-3885766.41588 178555.247829,-3885762.88109 178343.734624,-3885827.24109 178248.882116,-3885918.74407 178015.785431,-3886143.79399 177731.061072,-3886384.82177 177327.723561,-3886342.34086 177192.586571,-3886464.92562 177161.029073,-3886673.98758 177038.823907,-3887004.07706 176976.788689,-3887288.29136 176779.457875,-3887635.62453 176569.401539,-3887729.48296 176358.56491,-3888002.72663 176147.47277,-3888201.01273 175989.698926,-3888464.78906 175796.068467,-3888766.68681 175454.029308,-3888917.20253 175228.193242,-3889115.84289 175002.602213,-3889314.98557 174725.002931,-3889518.11013 174296.726107,-3889748.22426 174025.030032,-3889859.96267 173810.765985,-3890050.72375 173644.870357,-3890151.01866 173350.962789,-3890461.91861 173090.703345,-3890730.67765 172971.68676,-3891117.76651 172979.500115,-3891590.06152 172980.451669,-3891720.99256 173242.399233,-3908002.57677 173254.35204,-3908613.80978 173271.317112,-3909501.91673 173396.237869,-3915883.08426 173347.064592,-3923358.76041 173274.21653,-3934373.28772 173219.195223,-3942804.11014 173167.42246,-3950636.81467 173161.683743,-3951529.15349 173062.530028,-3966682.35515 173061.698843,-3966716.3238 172974.366321,-3971725.04328 172797.962111,-3981833.90442 172726.424689,-3985901.42818 172484.755918,-4001018.30476 172485.739979,-4002051.11681 172497.450382,-4022207.79222 172501.425685,-4030139.66053 172500.550182,-4030204.6101 172341.992972,-4042296.37379 172341.31604,-4042366.82304 172182.861861,-4054452.34352 172183.064599,-4054483.3267" style="stroke-linejoin:round;stroke:#000;stroke-width:1px;fill:none" /></g></g></svg>