<svg xmlns="http://www.w3.org/2000/svg" baseProfile="full" height="528326.620805" version="1.1" viewBox="-118865.397166,2958266.173813,348791.947490,528326.620805" width="348791.94749"><defs><style type="text/css">polyline,line,rect,path,polygon,.polygon{fill:none;stroke:#000;stroke-width:1px;stroke-linejoin:round;}</style></defs><g fill_rule="evenodd" transform="scale(1,-1)"><g class="id" id="86"><polygon class="_86" id="None" points="124185.744047,-3436319.53626 124111.827866,-3436263.45436 123864.781878,-3436021.76779 123887.70621,-3435426.66894 123870.936673,-3435272.68479 123878.283237,-3435209.63828 123854.516352,-3435124.18684 123742.631612,-3435039.33239 123650.967399,-3435009.53543 123518.203224,-3434943.53332 123353.875915,-3434802.70599 123276.49696,-3434651.81601 123117.966796,-3434486.41674 122962.095288,-3434329.95661 122805.362647,-3434112.09603 122683.961178,-3433997.95249 122587.756325,-3433951.75894 122493.551351,-3433919.50993 122381.211849,-3433906.06356 122314.23844,-3433916.26286 122239.870508,-3433904.1267 122147.524748,-3433933.25964 122046.010296,-3433938.59125 121888.965828,-3433910.4744 121773.667765,-3433747.28588 121676.456384,-3433548.81785 121569.923995,-3433359.50595 121455.260512,-3433079.46524 121359.192683,-3432764.63543 121327.826237,-3432438.15063 121247.071777,-3432114.05668 121110.313717,-3431909.81161 120926.936626,-3431695.42353 120724.426023,-3431582.74151 120419.380837,-3431543.31316 120151.380199,-3431550.65024 119744.288566,-3431583.96681 119398.553703,-3431558.75291 119032.87467,-3431424.54691 118822.823023,-3431226.11368 118512.956259,-3430975.05517 118424.325527,-3430629.12664 118250.763502,-3430017.59386 117910.108777,-3429692.68851 117668.292484,-3429490.82959 117297.58236,-3429423.614 117133.115004,-3429357.67255 116933.459082,-3429306.3462 116718.377101,-3429382.62527 116581.38949,-3429525.40494 116451.371987,-3429667.06062 116350.436111,-3429787.71993 116221.251793,-3429850.96666 116121.101352,-3429821.31435 116021.568962,-3429756.69782 115949.927643,-3429798.93409 115906.271295,-3429870.12636 115806.031042,-3429890.9077 115684.095255,-3429968.50437 115634.575652,-3429839.07178 115563.855212,-3429738.48307 115414.61717,-3429658.78313 115314.378849,-3429693.54532 115163.35794,-3429778.15713 114877.324524,-3429782.81207 114719.300987,-3429839.08811 114522.548646,-3429962.9728 114367.449838,-3430029.18297 114209.663779,-3430070.97414 114017.097277,-3430011.52725 113889.812618,-3429875.50411 113697.919125,-3429673.23402 113628.373577,-3429443.79309 113516.117991,-3429185.66045 113553.518105,-3428628.22816 113660.188688,-3428437.55951 113635.40249,-3428211.8077 113617.669997,-3428003.40576 113449.688257,-3427867.11525 113239.549788,-3427705.11829 113318.74941,-3427513.9467 113301.988355,-3427359.45529 113249.680526,-3427213.5928 113329.586673,-3427103.30096 113468.892363,-3427047.36635 113370.345234,-3426870.8782 113239.151531,-3426794.84325 113103.916045,-3426757.82861 112964.424968,-3426692.42844 112867.839101,-3426722.12814 112748.50312,-3426805.66559 112656.497741,-3426687.48042 112488.117307,-3426626.09449 112269.255834,-3426548.13928 112186.94239,-3426302.44913 112145.663077,-3426158.88392 112105.978324,-3425854.0056 112158.408392,-3425617.87781 112268.968094,-3425559.96559 112345.746512,-3425442.24158 112329.204681,-3425383.11855 112380.965087,-3425290.31156 112466.300157,-3425245.83557 112567.32305,-3425199.08036 112635.481526,-3425157.40978 112668.036004,-3425093.40999 112629.182688,-3425029.19555 112543.890506,-3424978.79815 112465.000519,-3424867.86685 112455.870068,-3424762.67261 112474.388118,-3424640.0045 112505.140221,-3424475.67253 112458.816265,-3424398.60971 112476.593393,-3424345.86099 112530.044453,-3424305.4539 112648.212055,-3424212.45361 112731.497762,-3424095.61314 112814.852171,-3423954.80403 112927.352265,-3423879.88172 113062.999013,-3423787.06737 113140.578426,-3423658.34638 113199.842756,-3423552.42407 113212.82711,-3423441.34133 113166.723755,-3423334.8152 113079.215635,-3423216.54963 113068.295828,-3423122.87324 113109.977602,-3423052.71901 113156.838758,-3423076.34418 113268.562385,-3423083.32549 113327.283933,-3423072.28446 113368.999977,-3422990.14604 113445.299593,-3422984.78117 113522.253944,-3422932.46849 113523.064399,-3422838.5819 113541.319973,-3422756.86504 113600.687195,-3422698.37725 113700.705501,-3422693.08584 113803.83053,-3422735.6731 113888.845346,-3422798.55822 113950.960551,-3422767.98286 114029.163807,-3422729.6288 114114.928957,-3422723.09521 114215.495239,-3422762.23284 114293.093006,-3422731.87868 114363.444002,-3422701.15539 114440.750089,-3422779.65727 114541.845288,-3422764.85905 114604.566883,-3422656.87896 114706.509323,-3422564.17256 114877.521413,-3422550.11571 115032.443885,-3422613.24196 115142.931106,-3422412.53076 115217.830674,-3422245.91314 115186.113882,-3422134.13785 115188.705528,-3422028.23737 115182.0092,-3421919.50792 115089.626735,-3421793.84289 115098.500068,-3421662.36491 115060.888535,-3421514.24591 115023.335838,-3421327.67904 114989.346991,-3421214.44672 114951.773282,-3421082.30502 115026.06665,-3420993.09287 115174.908123,-3420870.58682 115237.349916,-3420816.53923 115299.676507,-3420769.98337 115393.476124,-3420724.36044 115464.028215,-3420663.1771 115464.520734,-3420593.26541 115379.315263,-3420561.34145 115224.230657,-3420544.65235 115201.6602,-3420427.72041 115116.619836,-3420349.3577 115133.135273,-3420240.21246 115188.997632,-3420069.94516 115089.632633,-3419875.00187 115029.60616,-3419618.43737 115108.660392,-3419432.77557 115250.725105,-3419169.09102 115306.210241,-3419061.24482 115416.492235,-3418821.09941 115472.162062,-3418681.79437 115503.939209,-3418588.35442 115488.8442,-3418526.21259 115412.050632,-3418448.20112 115350.315129,-3418416.35448 115272.800851,-3418353.8341 115203.407119,-3418298.65754 115219.498604,-3418221.47663 115147.736646,-3418201.29352 112900.52724,-3417569.50806 104106.308297,-3417129.66413 104094.809319,-3417128.87092 96066.5297052,-3416489.15977 75152.2734834,-3414584.94741 62328.9037373,-3413416.09759 62207.0353616,-3413416.24911 52164.9647565,-3413408.80233 52168.0223254,-3411849.80766 52184.0645617,-3409934.45753 50178.8654369,-3409936.20655 51666.4642465,-3403137.03819 50427.3079694,-3403168.73814 50421.8153438,-3403168.83436 48506.2989405,-3403140.94401 48136.7366521,-3402944.62151 47776.486195,-3402866.5138 47584.6469074,-3402807.43527 47391.5317458,-3402775.35128 47266.5174556,-3402781.53507 47253.6371933,-3402944.5947 47105.7605127,-3403000.12889 46878.5409987,-3402960.15001 46685.9356153,-3402871.61374 46523.7375695,-3402779.54813 46395.8018668,-3402675.89395 46227.5777636,-3402653.36294 45988.3706233,-3402670.53462 45879.7046942,-3402540.56895 45744.2178246,-3402433.54954 45601.1135125,-3402333.6561 45457.1107256,-3402325.1858 45335.7092633,-3402323.81256 45176.4921748,-3402345.07842 45115.7314239,-3402398.08867 45103.4003057,-3402492.70921 45079.4692263,-3402609.51057 45003.4208691,-3402673.7773 44821.5230878,-3402683.45201 44703.7072944,-3402701.49639 44608.4163648,-3402765.10072 44490.7801834,-3402779.14593 44423.2842661,-3402718.38834 44313.8083197,-3402656.36678 44173.488244,-3402644.33492 44066.9440786,-3402707.13692 43982.6925309,-3402816.50225 43898.489775,-3402914.37833 43697.2381862,-3402931.38386 43474.5455887,-3402864.84769 43265.6967978,-3402975.89223 42908.9644108,-3403028.08323 42719.8444433,-3402981.93836 42374.2869644,-3403001.96491 42163.4359256,-3402955.69971 41984.6075518,-3402998.28628 41839.2896138,-3403086.24185 41671.8203567,-3403107.15102 41438.7020493,-3403015.81887 41251.1881862,-3402847.26452 40973.5606705,-3402767.1988 40750.9648742,-3402720.63728 40585.2672134,-3402585.66716 40385.3244291,-3402506.24106 40141.2199918,-3402415.09817 39951.9248204,-3402401.92039 39684.480583,-3402433.06525 39405.3857734,-3402497.8807 39015.7093339,-3402494.69493 38693.0307263,-3402480.8479 38527.0164524,-3402356.36989 38310.0161739,-3402315.70124 38087.1148162,-3402380.53331 37785.5368476,-3402445.24009 37694.1934064,-3402434.84605 37474.2077391,-3402409.21412 37195.7379451,-3402395.59199 36928.4542706,-3402393.26322 36751.4040852,-3402280.46409 36730.5571173,-3402101.99965 36619.8191339,-3402067.96636 36374.4579214,-3402076.74288 36128.7743357,-3402152.96019 35918.0254463,-3402084.20606 35839.2849013,-3402194.97507 35770.6916429,-3402372.00376 35635.9722378,-3402538.19778 35512.6276109,-3402626.2678 35399.8803203,-3402792.07895 35320.9478002,-3402891.86255 35232.0737148,-3402879.92586 35043.1968742,-3402833.76778 34909.9189651,-3402810.61688 34808.9118053,-3402876.31828 34686.0887445,-3402908.43241 34508.2644481,-3402851.59087 34408.9263534,-3402783.88913 34263.7297805,-3402793.41494 34096.7608012,-3402814.80954 33918.5382207,-3402835.40125 33784.4290333,-3402879.201 33561.8514483,-3402877.0881 33394.3067767,-3402908.48298 33283.9907182,-3402841.47127 33206.7500008,-3402751.90337 33061.386702,-3402794.89992 33027.1553187,-3402894.40409 32904.4470342,-3402904.5361 32805.0914081,-3402792.87447 32761.4255456,-3402680.74141 32628.4454353,-3402646.09425 32427.6910227,-3402678.06722 32215.8830333,-3402720.72297 32038.1066224,-3402652.38833 31837.1768379,-3402717.33322 31813.6900807,-3402817.15007 31757.0199396,-3402962.00406 31677.9677838,-3403083.77015 31332.5119364,-3403125.25855 31131.9127645,-3403123.25985 31043.5192946,-3403067.35352 30899.7414571,-3402943.47602 30721.6317927,-3402942.08389 30598.9384829,-3402996.1739 30420.2212742,-3403017.27144 30309.3874154,-3402949.26707 30210.2230497,-3402848.58919 30087.870298,-3402836.2342 29999.9422685,-3402735.36033 29821.2741987,-3402744.96687 29687.8180808,-3402754.78478 29452.942808,-3402864.27941 29264.6434001,-3402751.16603 29143.1642118,-3402616.90686 29044.4905532,-3402415.31174 29079.6649784,-3402226.37201 28936.553691,-3402069.01082 28792.310792,-3401990.0971 28681.7607314,-3401866.63694 28649.5169961,-3401721.83173 28617.6225965,-3401554.0416 28563.0892121,-3401420.11484 28464.4263317,-3401219.01866 28310.1632071,-3401095.3198 28131.8526373,-3401082.43778 28100.1932418,-3400870.6838 28023.5375138,-3400714.16284 27812.9006324,-3400623.41473 27536.0555951,-3400560.29383 27183.9519078,-3400464.01318 27170.6485415,-3400460.24827 27054.3965921,-3400425.30435 26664.5861647,-3400315.19154 26663.0793019,-3400314.7182 25871.9365298,-3400092.6914 23799.5014204,-3399312.95221 19991.771391,-3398038.76403 19471.4654522,-3397864.95304 19307.8667486,-3397030.03511 18326.5109371,-3396541.49963 17537.5012755,-3396587.14753 17216.9332834,-3396797.52288 16688.9812741,-3396341.08157 15121.4554095,-3396274.81776 13635.7109703,-3395969.83136 13294.5032502,-3395435.7052 13473.518101,-3394897.07215 15644.5089465,-3394126.1402 15744.1187174,-3393416.04384 15541.4049997,-3393191.25482 15212.3847529,-3392826.77679 14077.1122917,-3392752.99899 11597.758941,-3392592.54759 10697.1495217,-3393494.84671 10159.6120992,-3394159.57545 9428.1063547,-3395568.03351 8906.68359666,-3396572.71049 8522.81549053,-3397341.71127 8010.93708722,-3397656.30987 7922.01157888,-3397656.34905 3910.74640442,-3397624.26886 3487.54263628,-3397621.58802 3487.72333796,-3397617.58813 3489.5627732,-3397246.85639 3498.84749619,-3395397.70189 3498.77851809,-3395393.70635 3498.80406092,-3395380.71655 3504.53243492,-3394149.62884 3508.89453459,-3393287.7655 3137.37012645,-3390820.73243 -6739.47244778,-3389113.29529 -8139.5161008,-3388871.56835 -8405.59429574,-3388825.68013 -8859.59565642,-3388746.5488 -15255.7897727,-3387542.84947 -17147.4591172,-3387128.11814 -20595.6320718,-3386674.56854 -22120.7160291,-3386457.35504 -23372.3445758,-3386278.91909 -24956.423278,-3386060.19369 -25392.122525,-3386000.69274 -29977.8821381,-3385367.56528 -30043.4868318,-3385358.69271 -30237.5622797,-3385331.52848 -32305.4600019,-3385046.55607 -32877.3229189,-3385118.77054 -38951.3008947,-3385899.37881 -40803.1886441,-3386155.28018 -45989.3475139,-3387177.96358 -48678.0843152,-3387708.89411 -50371.5731833,-3387911.08148 -53097.0513325,-3388238.72892 -53123.4848775,-3388241.67651 -56308.5281743,-3388624.57322 -56849.1577362,-3388700.71151 -57768.171321,-3388829.244 -57779.136119,-3388830.92921 -58303.3262314,-3388904.28741 -63821.927239,-3389679.48893 -66212.4315368,-3390070.29874 -71514.0104297,-3390938.63081 -74120.3362739,-3391219.59325 -80314.0711955,-3391883.96909 -80644.540245,-3391920.03383 -80564.0211004,-3388711.86061 -80552.7486928,-3387469.83521 -80595.9753693,-3386359.165 -80667.4270623,-3385485.84631 -80393.2155761,-3384351.84079 -80308.8629059,-3383797.72357 -80272.0145896,-3382634.24911 -80185.4248401,-3381842.23222 -80022.1030119,-3381288.78902 -79803.9830045,-3380577.01304 -79638.0770382,-3379732.19652 -79394.2651712,-3379047.47746 -79177.1073864,-3378441.66478 -78891.3404734,-3377488.89919 -78346.7093127,-3376566.7554 -77853.6143931,-3375937.31208 -77311.2894934,-3375308.54051 -76694.0725095,-3374868.89484 -76280.7726272,-3374634.56541 -75969.1170095,-3374180.58303 -75654.8690894,-3373435.73486 -75380.4174897,-3372746.02714 -75344.0171829,-3372474.57947 -75156.7634367,-3372185.09946 -75179.379727,-3371762.2409 -75279.6381414,-3371179.79052 -75586.0893141,-3370756.21851 -76164.9468523,-3370506.12997 -76753.0669593,-3370373.62314 -77198.786136,-3369973.38034 -77142.4340086,-3369551.19173 -77218.1372529,-3369180.19683 -77478.3371058,-3368728.3602 -78187.0450484,-3368140.66107 -78531.2401592,-3367849.13792 -79099.7197438,-3367532.4056 -79676.5674695,-3367044.91828 -80019.5078669,-3366114.76845 -80188.8702443,-3365225.17395 -80367.2653587,-3364318.24426 -80464.9829485,-3363454.43244 -80378.78479,-3362696.46285 -80348.2867595,-3361433.75452 -79781.4830371,-3360090.58816 -78644.6849503,-3360048.00198 -77692.1850368,-3359951.04671 -76857.4797756,-3359668.69174 -76488.266707,-3359324.20735 -76384.4783072,-3359167.06491 -76353.3861719,-3359025.1354 -76409.1680008,-3358902.15474 -76557.2849961,-3358800.21325 -76768.84007,-3358714.32798 -77237.9804037,-3358553.8234 -78102.532055,-3358219.58008 -78881.6675988,-3357853.91781 -79601.3052664,-3357445.7803 -80289.1284201,-3356983.14112 -80964.22766,-3356459.82532 -81621.6806995,-3355886.24356 -82251.5617142,-3355273.22231 -82846.9087421,-3354633.63665 -83412.5576817,-3353977.06188 -83964.1096222,-3353311.75472 -84285.6589662,-3352551.15039 -84368.5442636,-3351466.75757 -84344.1728088,-3350699.85804 -84423.4561911,-3350158.04852 -84404.0748825,-3349510.65595 -84274.083497,-3349023.30288 -84315.044361,-3348457.36982 -84150.2735969,-3347719.60484 -84052.1593738,-3347029.42721 -84141.6374254,-3346564.7423 -84175.2365714,-3346080.1349 -84304.3136677,-3345652.58925 -84274.1677801,-3345229.87252 -84150.5624024,-3344689.17123 -84065.1225752,-3344002.71078 -84107.9226705,-3342998.11988 -84068.1777985,-3341954.6763 -84041.1537127,-3341240.71981 -84128.1059123,-3340568.1446 -84202.1126616,-3339997.28253 -84246.6148258,-3339278.53095 -84365.5514879,-3338545.5367 -84423.7991247,-3338184.76553 -84493.1391874,-3337758.22663 -84549.1371777,-3337412.40783 -84516.8890548,-3337055.12064 -84517.0735214,-3336730.35357 -84474.5946433,-3336193.02375 -84512.9535051,-3335781.45793 -84522.3577141,-3335682.18586 -84412.7092962,-3335172.71423 -84301.8967626,-3334628.24915 -84385.7318605,-3334081.54269 -84382.7338624,-3333752.72819 -84520.5025681,-3333446.75192 -84667.9416056,-3332831.15983 -84675.6609734,-3332399.09982 -84677.0959005,-3332328.1749 -84619.4589968,-3331800.59168 -84668.0479293,-3331284.77682 -84954.3050594,-3330793.41789 -85399.4193336,-3330273.73432 -85777.7583043,-3329728.45238 -85864.1848839,-3329040.89545 -85895.9538498,-3328155.57037 -85837.4485511,-3327455.10414 -85790.7734697,-3326689.38486 -85746.9265784,-3325963.68515 -85766.668968,-3325394.43367 -85907.477835,-3324890.6563 -85941.5465497,-3324256.19352 -85936.8354348,-3323715.01517 -85933.1540875,-3323291.76732 -86048.4504817,-3322894.48673 -86217.6734052,-3322589.03817 -86438.8773052,-3322177.53586 -86619.3978238,-3321673.92296 -86709.4173889,-3321279.21891 -86783.9690807,-3320853.28024 -87187.2099341,-3320056.60218 -87549.9977668,-3319273.73857 -87836.3035914,-3318702.94052 -87949.8685679,-3318094.2901 -87891.5090618,-3317473.78249 -87769.1910783,-3317078.54012 -87566.0143653,-3316633.48778 -87510.385383,-3316208.88071 -87625.6210625,-3315784.62229 -87686.5189445,-3315203.07733 -87641.2578046,-3314515.84381 -87622.2183505,-3313829.04823 -87747.3510541,-3313035.23772 -88006.0040358,-3312399.03235 -88239.2995581,-3311815.36437 -88353.2270607,-3311259.18708 -88440.9395229,-3310717.06277 -88529.001667,-3310213.91481 -88643.1758976,-3309657.74269 -88665.9485312,-3309234.94655 -88888.1492253,-3308942.37103 -89191.4787476,-3308833.5048 -89811.0692106,-3308709.41476 -90594.8462194,-3308311.2661 -91020.3731264,-3307959.61735 -91665.6238097,-3307689.56161 -92182.7710404,-3307536.78332 -92324.3553757,-3307495.17081 -92418.5068953,-3307481.74756 -92614.5519411,-3307455.02968 -93155.1454122,-3307379.58092 -93815.6726462,-3307287.63891 -94210.5047875,-3307099.34946 -94657.9739815,-3306735.06835 -95457.438651,-3306084.35677 -96010.2446717,-3305514.48023 -96615.4454483,-3305098.85627 -97281.0133369,-3304628.27565 -97805.5066001,-3304108.38599 -98197.2336002,-3303550.31788 -98461.5474374,-3303218.46086 -98536.4954586,-3303097.79747 -98658.7358706,-3302972.42333 -98799.3430184,-3302884.32603 -98863.1314165,-3302698.52644 -98927.2566179,-3302447.28205 -99215.0695735,-3302114.31532 -99582.9788278,-3301847.12872 -99869.0427789,-3301514.13208 -99973.0566386,-3301117.16028 -100195.247016,-3300824.57184 -100480.060886,-3300491.55365 -109998.424824,-3298442.52457 -110689.484176,-3295467.19301 -110842.258189,-3294810.21514 -111326.938575,-3292182.21296 -111233.572646,-3291348.29285 -111039.141195,-3290930.38683 -111089.117363,-3290808.8062 -111233.281552,-3290701.77465 -111417.828474,-3290660.36245 -111568.690587,-3290737.30319 -111695.382763,-3290644.47135 -111759.688064,-3290472.16602 -111879.217278,-3290419.68508 -111943.889084,-3290391.2775 -112076.262098,-3290468.41172 -112274.458889,-3290402.24376 -112458.694843,-3290334.34579 -112590.832396,-3290320.04473 -112776.098239,-3290371.07436 -112909.257461,-3290476.20053 -113014.361337,-3290434.97192 -113039.466553,-3290276.50653 -113025.103871,-3290117.88774 -113156.176651,-3289971.66786 -113367.320716,-3289923.20034 -113538.534188,-3289902.5507 -113721.305715,-3289908.07274 -113855.245857,-3289860.32616 -113761.396168,-3289689.40047 -113720.328832,-3289544.32936 -113771.673237,-3289385.29876 -113863.062969,-3289251.91188 -114098.645117,-3289175.86905 -113670.117329,-3286720.12402 -110261.110035,-3287193.83173 -110236.819001,-3287197.4268 -110087.873971,-3286249.68317 -109885.099194,-3284961.81079 -109351.377208,-3281571.08472 -109050.544427,-3279656.08929 -108388.461802,-3275444.92072 -108300.773856,-3274885.90879 -108160.400651,-3273992.78877 -108110.931494,-3273675.72005 -108066.587283,-3273396.20673 -107987.654901,-3272503.60454 -108074.772189,-3270541.09285 -108088.52702,-3270343.47632 -108101.076644,-3270158.33006 -108157.664997,-3269348.4058 -108287.967756,-3267462.55301 -108297.834039,-3267318.83004 -108431.883043,-3265387.07899 -108497.130709,-3264294.0266 -108593.727607,-3262678.40971 -108759.771247,-3259895.87475 -108906.688954,-3257545.18327 -109036.085273,-3255756.75432 -109098.806511,-3254679.1555 -109165.300524,-3253842.4256 -109207.957936,-3253209.1391 -109232.428058,-3252845.83533 -109245.642575,-3252650.21088 -109457.528035,-3249264.43652 -109464.6063,-3249153.14312 -109619.071676,-3247023.41104 -109725.385272,-3245557.34966 -109729.222408,-3245475.9788 -109732.403894,-3245404.08945 -109780.903161,-3244384.71453 -109845.78886,-3243006.9007 -109850.590249,-3241879.89473 -109852.538037,-3241381.83137 -109900.01984,-3240697.16931 -109930.997475,-3240256.53733 -109943.182884,-3239986.45744 -110319.164635,-3238115.6659 -112112.329085,-3229990.75937 -112790.003601,-3226919.38939 -113215.049697,-3224993.43439 -115414.93116,-3215024.11074 -115476.737497,-3214743.35108 -115674.277724,-3213847.31376 -115675.890726,-3213840.34584 -116421.709474,-3210461.29623 -114705.603957,-3208859.44906 -113937.863284,-3205571.51805 -112418.546821,-3206077.7117 -112503.404955,-3206448.30204 -109996.988425,-3207086.20745 -108025.794697,-3207333.69998 -107909.588764,-3207306.31801 -106909.039752,-3207069.61544 -105903.366676,-3206810.34888 -104433.29622,-3206431.07368 -102987.818432,-3205907.82428 -101600.503049,-3202563.38375 -101407.51764,-3201534.08132 -100792.918541,-3199082.06371 -100221.597161,-3196548.8262 -100107.245986,-3195995.41668 -100230.599776,-3195447.89065 -100252.027482,-3195374.80202 -101284.959576,-3191871.60293 -101673.702321,-3190552.54909 -101696.983534,-3190472.99538 -101784.872165,-3190154.19529 -102098.945932,-3189017.26642 -95737.0271612,-3186887.59183 -97775.9970607,-3179358.14247 -99565.3384529,-3172747.74787 -99319.2856108,-3172211.17399 -98355.3597839,-3170107.17836 -98340.8916852,-3170105.94363 -97165.584405,-3170014.86851 -96282.3960769,-3170055.44657 -95240.9855438,-3170209.85433 -94847.7561769,-3170121.02168 -94452.4191321,-3169517.07942 -94164.7269233,-3168484.24431 -94295.7690838,-3167001.09702 -95209.3821019,-3166211.11823 -96052.7641097,-3165792.19051 -96239.8738103,-3165699.31234 -96923.9117594,-3165294.27786 -97328.1324625,-3164815.24698 -97592.3859413,-3163895.79265 -97497.8929723,-3163577.51181 -97271.2697722,-3162812.94104 -96871.8285417,-3160862.51487 -99426.1955712,-3160375.965 -99074.2905654,-3158758.53049 -99008.5189204,-3158455.70199 -98990.0481237,-3158377.96349 -98366.7858336,-3155780.39466 -96303.6335242,-3147180.1706 -92649.5866737,-3147961.74396 -92453.9755566,-3146576.1715 -92393.9200244,-3146551.71654 -88809.8616442,-3145097.74513 -86223.6965404,-3144048.66576 -84580.9889939,-3143480.00662 -84499.6152381,-3143229.39125 -84205.3696501,-3141731.33663 -82421.8159632,-3132661.24584 -82000.5051189,-3132902.24302 -81842.2562333,-3132059.35576 -80695.4104715,-3125946.16104 -80470.1770689,-3124747.96495 -79203.6713793,-3124995.83171 -79163.269134,-3124805.82932 -77300.1591038,-3116047.62054 -76615.0422125,-3112826.56561 -75668.5495152,-3108379.22471 -75571.2315465,-3107921.50617 -74238.1561898,-3101654.28466 -73007.8522035,-3095869.80355 -72405.0237366,-3093530.84154 -71507.20324,-3090047.47076 -70942.371887,-3087031.07981 -67338.5130316,-3087667.99559 -67154.6713535,-3084318.45818 -61334.9504238,-3085472.701 -60947.5581842,-3083509.45812 -60254.1040634,-3079994.45112 -60191.4551732,-3079677.18124 -60132.7845831,-3079627.78187 -59296.188168,-3075464.43107 -58561.7133858,-3070214.42463 -57141.2113783,-3070481.16159 -49777.7707967,-3071863.23408 -50079.1493369,-3067239.35001 -50131.0298581,-3066661.08372 -50452.4003111,-3063073.69693 -50626.1649198,-3061139.28603 -50686.1197381,-3058865.28766 -50684.0446579,-3058569.95495 -50682.8574654,-3058408.04574 -51006.0817221,-3057242.44486 -51585.4336701,-3056863.86385 -52162.6646872,-3056319.35841 -51934.0743641,-3055433.82794 -51658.3905344,-3054366.17105 -51602.4771527,-3053983.53805 -51704.7393609,-3053519.95814 -51596.1742563,-3052832.69011 -51969.7914079,-3052746.65171 -51587.7882549,-3052066.55504 -51585.0970293,-3051683.2605 -51529.9678725,-3051393.07678 -51659.993926,-3051101.31923 -51762.9967194,-3050717.19346 -51761.2190751,-3050465.82653 -51944.4215959,-3050239.86532 -52179.5176794,-3049907.79114 -52340.10103,-3049532.06675 -52400.5472372,-3049390.61132 -52582.0619919,-3048939.26404 -52632.0873787,-3048555.79592 -52537.1426559,-3048239.49533 -52347.9224172,-3047659.37138 -52316.3428315,-3046984.79469 -52391.3520526,-3046442.81637 -52412.1488156,-3046375.68637 -52444.8162706,-3046268.76842 -52461.3060723,-3046189.57784 -52555.2387264,-3045730.84449 -52640.1874289,-3045477.34174 -52687.3866708,-3044750.03386 -53047.5213693,-3043412.53195 -53387.2886133,-3042907.19793 -53283.8628699,-3042114.04331 -53154.0823366,-3041772.20122 -53046.1757617,-3041469.18076 -53072.0330566,-3041033.34866 -53276.7383255,-3040489.39972 -53162.5945106,-3039392.74793 -52904.2955252,-3038390.26521 -52204.4079099,-3036742.69961 -52055.5504033,-3036294.61518 -51946.7840584,-3036125.00072 -51894.8358464,-3036044.22952 -51642.2779452,-3035834.87439 -51296.8630771,-3035730.99705 -50971.1031845,-3035410.0556 -50538.8080134,-3034983.99944 -50218.8257461,-3034629.17034 -50043.853089,-3034220.65392 -49199.8117573,-3032759.72218 -48223.9900556,-3031352.19256 -49511.3386763,-3026715.49672 -49784.9403566,-3026158.09439 -49845.2374622,-3025404.44719 -49786.1375978,-3024584.45879 -49839.3145769,-3023344.45107 -49860.2925719,-3022867.03145 -49144.0523944,-3021248.14637 -49057.0944069,-3021088.86608 -44612.3019922,-3012992.42905 -42962.0405798,-3009986.6472 -42857.3221074,-3009795.60678 -41894.8308947,-3009536.7212 -40145.7971326,-3001967.57252 -41090.1013378,-3001486.48133 -40488.8978934,-2999877.35321 -39778.0425144,-2997974.14648 -35022.0865297,-2985241.20632 -33981.7517022,-2982456.69823 -31299.175188,-2975665.79906 -28955.3504915,-2969445.34433 -26168.7245973,-2961582.51182 -22529.6347322,-2962181.68216 -18864.0676784,-2962785.50739 -18989.1329222,-2965087.15224 -15904.8567573,-2965584.89437 -15770.1109359,-2965653.31406 -1431.15084589,-2968063.62468 596.442657036,-2959613.4544 3605.85910306,-2960433.61892 7974.94313259,-2961624.62256 18369.3096771,-2961780.02235 27998.0138919,-2961803.10786 32689.236639,-2961814.45471 34071.0276885,-2961821.81472 43481.564815,-2964554.78454 52464.028678,-2964637.73959 52847.1638014,-2964615.07327 57872.983287,-2958394.72424 71595.7829659,-2958485.18895 72485.3936963,-2958491.13162 76528.9219769,-2958518.34378 88732.4969428,-2958600.02117 96581.2080988,-2958687.283 108611.177101,-2958821.91214 111575.95743,-2958841.08886 120762.83269,-2958901.73446 132204.739275,-2959106.45021 141569.343709,-2959274.5685 153253.976679,-2959505.71354 181016.843137,-2960057.6486 189726.499581,-2960284.97839 194996.319403,-2960422.76723 199477.564483,-2960557.67626 208577.471055,-2960669.24131 229740.494442,-2960930.09111 229561.619103,-2970371.96492 228813.712758,-3010465.46759 228535.80959,-3026107.73064 228457.019288,-3030575.96439 227990.545294,-3057319.81553 227744.800683,-3071595.52533 227420.528234,-3083665.36883 227304.505418,-3088674.79022 227182.0404,-3093966.46064 227065.305984,-3102230.15787 226843.494643,-3114124.03976 226815.200542,-3115646.16267 226777.147325,-3116448.97156 226308.969982,-3143115.92719 226282.371375,-3144477.41545 226243.489817,-3147617.45489 226242.729197,-3147696.23907 226230.745283,-3149079.42708 226142.553452,-3153545.38229 226024.840668,-3163199.70263 226024.610355,-3163216.65694 225911.351073,-3169594.37955 225709.583379,-3180515.21924 225657.729357,-3187213.95697 225603.756548,-3189096.8155 225499.38379,-3196056.12132 225462.186822,-3197963.63602 225436.560621,-3199275.20923 225026.273482,-3215121.9921 224924.000117,-3220409.70104 224854.66151,-3220756.32922 224076.431872,-3224652.28844 223766.199593,-3226565.83981 222498.796761,-3234390.63109 221691.333835,-3239376.66536 221590.531751,-3239971.13243 221551.710872,-3240200.12002 221462.11387,-3240733.57792 221220.202116,-3242090.70948 220598.28699,-3245953.51418 220403.946755,-3247065.08306 220311.461155,-3247318.9051 220201.527536,-3247960.90976 219960.09405,-3249326.05439 219673.132804,-3250993.60918 219487.731696,-3252159.39946 219293.736702,-3253317.36227 218997.085037,-3255042.44668 218977.223746,-3255210.80272 218959.798124,-3255316.29636 218654.156854,-3257097.8878 218646.515954,-3257177.29147 218251.202038,-3259509.85249 218211.735715,-3259742.361 218135.585645,-3260194.86717 218082.053025,-3260509.88082 218009.779799,-3260925.92608 217856.961218,-3261977.04116 217017.573342,-3266883.44253 216392.579354,-3270554.26823 216171.53278,-3271839.9345 215754.572845,-3274317.62458 215264.772807,-3277288.22053 214495.066821,-3281882.6636 214229.75858,-3283444.90023 213830.407692,-3285843.15241 213449.538038,-3288108.97942 213206.117853,-3289517.31119 213023.622414,-3290653.34855 212469.668024,-3293941.93645 212081.100557,-3296257.85907 211343.412232,-3300667.20855 211238.494363,-3301321.26584 210807.100701,-3304209.49448 210702.779689,-3304853.58054 210660.610561,-3305111.62216 210650.676346,-3305171.63409 210424.106319,-3306546.89428 210272.967554,-3307438.64197 210211.37868,-3307842.13765 209683.544976,-3311025.86233 209300.439866,-3313391.77963 208839.664185,-3316077.74276 208695.622543,-3316957.44781 208648.242429,-3317244.02354 207251.527241,-3325750.8245 206826.721004,-3328309.68397 206781.34284,-3328580.78391 204601.746744,-3341738.28853 203911.412697,-3345891.14063 202897.844656,-3351977.59257 202737.544065,-3352923.62266 202137.874968,-3356612.79506 201814.371481,-3358631.66603 201429.61905,-3361032.73785 201072.74153,-3363175.96787 198816.682991,-3376585.81629 198813.096217,-3376608.32863 198769.469584,-3376901.43429 198445.611788,-3379076.23983 197754.36639,-3383107.46205 197172.452057,-3386596.55361 196972.265492,-3387916.19754 196844.692612,-3388656.341 196736.313905,-3389298.86014 196714.209529,-3389428.46963 196503.610242,-3390680.97974 196242.443052,-3392267.67465 196094.869022,-3393169.34697 195781.769005,-3395151.14216 195573.14539,-3396316.86201 195319.666194,-3397814.68026 194878.844849,-3400397.06339 194788.283196,-3400946.01948 194546.44342,-3402408.75595 194295.951015,-3403861.18911 194263.098279,-3404084.8071 194257.471682,-3404118.33759 194209.108725,-3404408.09675 193653.814992,-3407765.55531 193653.601966,-3407767.55495 193421.730977,-3409170.81415 193055.535177,-3411346.42025 192725.94885,-3413352.74785 192245.582861,-3416265.99249 191976.386953,-3417928.49921 191873.079645,-3418567.5812 191845.297213,-3418739.73769 191607.413203,-3420135.24805 191552.484466,-3420459.59479 191455.162597,-3420961.85883 190762.112792,-3423778.39488 190552.753234,-3425216.35648 190503.270535,-3425524.15046 190348.325723,-3426501.04991 190177.408061,-3427775.65929 190327.308944,-3427772.90114 190094.769457,-3429060.63243 189888.968466,-3430336.40821 189690.440731,-3431613.56065 189434.419105,-3432884.30175 189345.294109,-3433747.26547 189300.92155,-3434060.47603 189129.905939,-3435136.54905 189079.624069,-3435453.86461 189036.110567,-3435853.89582 189018.356329,-3436013.9151 188636.569542,-3438078.51056 188230.780431,-3440475.95687 188213.494375,-3440566.60529 187800.553876,-3443100.97933 187581.989708,-3443977.39354 186970.146709,-3448281.27496 186908.680479,-3448612.80878 186592.015409,-3450573.11455 186353.832518,-3451962.02652 186353.380016,-3451964.53041 186237.230306,-3452642.468 184795.967617,-3461296.03204 184731.239488,-3461985.54462 183661.109424,-3468293.81238 183439.41156,-3469607.76724 183419.646206,-3469724.94227 182365.946233,-3475973.45861 182489.037264,-3475975.63601 182485.538104,-3476081.52987 182481.916558,-3476273.7859 182318.857239,-3476269.86475 182310.933889,-3476445.72894 182175.375517,-3477279.93481 181783.181348,-3479489.78568 181528.008005,-3481127.99974 181161.713491,-3483397.85029 180682.891042,-3485919.49106 179470.474412,-3480199.28949 178089.329591,-3472742.62336 154216.319927,-3472793.05832 144094.382474,-3472813.22152 143642.632038,-3468816.87701 141596.83465,-3465207.54753 139389.455497,-3463484.11027 136767.574906,-3461308.3334 136679.947331,-3461200.09054 136544.328407,-3461143.16344 136413.586355,-3461188.51112 136334.249092,-3461164.50381 136335.105292,-3461048.1418 136270.5995,-3460920.99759 136159.003051,-3460812.69537 136070.831259,-3460769.87519 135971.978878,-3460825.12203 135915.574396,-3460880.5872 135840.821416,-3460861.48853 135827.365616,-3460767.85973 135823.810761,-3460669.5549 135893.964612,-3460655.78175 135960.02222,-3460582.16306 135984.030126,-3460502.82603 135980.739794,-3460296.65933 135878.51633,-3460263.58448 135823.064841,-3460112.80449 135758.774953,-3460038.08644 135684.248303,-3459990.52076 135637.844196,-3459924.46201 135549.741034,-3459858.17075 135499.072433,-3459750.24575 135420.448436,-3459656.31647 135341.574963,-3459562.39167 135257.632523,-3459491.5295 135183.765253,-3459425.47555 135165.401778,-3459336.43108 135185.396095,-3459215.22376 135167.343551,-3459088.72327 135205.814463,-3458981.15831 135332.730931,-3458931.39034 135389.195226,-3458851.9574 135441.501137,-3458763.61286 135470.473638,-3458628.26001 135476.68753,-3458436.401 135449.490646,-3458328.54464 135421.923683,-3458282.1133 135403.991818,-3458216.53031 135442.380586,-3458104.47385 135536.30781,-3458039.33395 135604.006141,-3458000.641 135679.46408,-3457935.8403 135680.555056,-3457818.47705 135770.074151,-3457744.43042 135892.53522,-3457628.83394 135990.574885,-3457624.53741 136051.568639,-3457601.44707 136098.807341,-3457522.6843 136150.802079,-3457471.79676 136216.137227,-3457467.6013 136300.350951,-3457444.58405 136352.505636,-3457375.21849 136348.543604,-3457295.39868 136358.74354,-3457211.82362 136302.615067,-3457159.92521 136261.129381,-3457103.26402 136257.259197,-3457028.43586 136285.692594,-3456972.48857 136332.29289,-3456954.15674 136342.165764,-3456893.55692 136309.937772,-3456865.18749 136324.470248,-3456800.00823 136362.312174,-3456753.37562 136423.527341,-3456674.35716 136461.453903,-3456618.73522 136527.493455,-3456544.12231 136602.48833,-3456535.75534 136681.744614,-3456582.73517 136727.806999,-3456630.32421 136793.223984,-3456630.62143 136849.550562,-3456598.13009 136841.037055,-3456542.36205 136803.735244,-3456509.59201 136747.454137,-3456490.15273 136705.657714,-3456470.94688 136687.559571,-3456409.86216 136720.737116,-3456340.34653 136758.496433,-3456289.22184 136834.019708,-3456214.43527 136894.545696,-3456220.31498 136964.869298,-3456229.5101 137011.645452,-3456207.18073 137063.706017,-3456146.30659 137083.14752,-3456076.54405 137102.401155,-3455969.33591 137154.713517,-3455894.97569 137197.13216,-3455839.27197 137235.042351,-3455769.17075 137198.127834,-3455689.45763 137198.84212,-3455619.53974 137206.482737,-3455532.51792 137267.894351,-3455491.44553 137341.825975,-3455534.029 137426.546469,-3455511.50299 137483.252556,-3455418.08855 137521.42142,-3455348.48231 137544.863093,-3455292.62793 137591.94567,-3455259.8077 137625.054337,-3455213.76235 137616.282598,-3455157.5005 137602.920113,-3455082.34887 137617.613035,-3454998.69346 137646.508877,-3454886.31654 137703.148583,-3454802.89036 137773.846787,-3454723.7002 137821.577384,-3454630.95069 137863.828673,-3454579.74486 137892.261869,-3454523.79942 137916.285167,-3454472.42874 137972.384073,-3454468.40375 138010.461345,-3454393.80691 138034.546613,-3454304.98676 138016.195504,-3454216.44579 138017.526782,-3454057.64017 138037.26882,-3453963.4075 138070.758049,-3453856.44002 138104.412096,-3453758.45721 138141.997143,-3453697.85068 138207.650715,-3453656.70183 138250.87999,-3453563.53678 138279.792221,-3453465.64129 138322.598049,-3453362.99736 138327.943374,-3453246.06122 138342.866443,-3453120.46133 138380.71763,-3453019.90583 138370.732161,-3452883.77812 138343.798596,-3452776.42168 138320.947255,-3452687.46475 138373.246279,-3452585.14687 138439.757477,-3452454.6075 138520.184543,-3452347.77989 138609.04351,-3452278.74498 138666.407007,-3452180.32927 138610.755462,-3452072.50119 138569.900312,-3451927.45346 138547.368407,-3451815.02394 138497.207812,-3451707.09517 138385.389773,-3451626.75922 138316.328956,-3451509.19055 138289.229583,-3451406.33139 138247.235906,-3451321.72002 138225.052264,-3451228.25756 138225.594938,-3451148.85856 138248.952609,-3451101.99559 138344.098474,-3450980.9196 138386.20481,-3450962.67274 138400.495766,-3450911.48227 138396.296801,-3450832.17039 138373.305537,-3450803.6321 138289.234464,-3450779.70767 138229.042228,-3450737.37098 138243.788578,-3450629.25195 138309.921878,-3450546.1555 138385.106254,-3450452.9074 138405.18777,-3450336.20292 138393.933783,-3450226.06397 138417.967183,-3450175.19471 138493.179763,-3450124.38689 138531.182437,-3450059.28157 138550.597723,-3449947.08343 138602.98024,-3449849.26065 138585.340607,-3449690.30804 138600.604938,-3449583.1792 138685.044907,-3449518.2227 138718.284193,-3449424.74526 138766.168372,-3449313.0252 138785.666309,-3449205.31999 138791.289277,-3449103.3611 138848.154975,-3449004.95794 138867.579998,-3448893.26003 138868.360985,-3448785.89782 138869.224282,-3448683.0278 138903.276164,-3448552.08939 138988.029009,-3448449.68146 139078.025509,-3448333.69688 139167.744666,-3448175.27797 139262.963271,-3448017.25805 139320.139063,-3447853.94313 139274.68778,-3447662.04971 139154.587992,-3447483.50489 138978.173133,-3447378.88594 138800.790448,-3447303.243 138581.944063,-3447226.36085 138310.850785,-3447172.90166 137965.189621,-3447137.28185 137686.279118,-3447147.87357 137372.759405,-3447286.41754 137088.494652,-3447495.82621 136845.358394,-3447715.46825 136511.726921,-3447873.85387 136440.544894,-3447954.04457 136350.376537,-3447842.35192 136240.205446,-3447810.9128 136138.758946,-3447860.70009 136048.302944,-3447869.84311 135987.237305,-3447929.87692 135906.215877,-3447949.83212 135866.593158,-3447899.12827 135857.129017,-3447818.41435 135776.424825,-3447787.4348 135686.30416,-3447746.64123 135606.166201,-3447705.66512 135545.926545,-3447674.31134 135495.831257,-3447624.29794 135516.574291,-3447543.53118 135567.206665,-3447513.6464 135577.525111,-3447463.52765 135538.143141,-3447412.31988 135488.307573,-3447321.85825 135448.244161,-3447260.67683 135418.555634,-3447220.77582 135419.516858,-3447109.41398 135399.869177,-3447058.84419 135359.6226,-3447028.62275 135289.602189,-3446967.4892 135249.413733,-3446926.78131 135240.132872,-3446856.05002 135250.518893,-3446795.94414 135180.238864,-3446775.2586 135130.058688,-3446734.23382 135090.571208,-3446663.55492 135121.248696,-3446593.59174 135182.575135,-3446493.11083 135203.568546,-3446412.34005 135234.24606,-3446342.37708 135143.809516,-3446311.57412 135052.652465,-3446350.68631 134971.880356,-3446370.63544 134891.675909,-3446339.64544 134811.606023,-3446288.68085 134721.563966,-3446197.45482 134691.925037,-3446146.56789 134601.498926,-3446075.32076 134450.765013,-3446023.64862 134350.288894,-3445962.57068 134239.992444,-3445951.60214 134148.594135,-3445991.21749 134017.554315,-3446020.07245 133936.781506,-3446040.02101 133855.988752,-3446099.9143 133794.853662,-3446169.93427 133744.211206,-3446199.31903 133663.236052,-3446249.2297 133602.745436,-3446258.822 133531.945932,-3446278.08928 133471.455236,-3446287.68156 133460.500084,-3446398.72769 133540.954823,-3446429.71412 133560.217673,-3446500.26411 133489.54207,-3446540.00088 133408.634003,-3446579.92447 133287.575816,-3446608.59754 133226.709731,-3446638.66845 133146.109233,-3446668.10097 133135.549145,-3446718.72398 133055.276221,-3446697.72027 133035.581583,-3446617.19157 132975.746024,-3446525.91137 132936.249781,-3446454.73162 132886.213306,-3446394.22969 132825.915305,-3446373.36045 132735.399058,-3446392.9874 132665.252933,-3446352.32537 132605.485094,-3446251.05735 132586.109864,-3446119.593 132516.224543,-3446038.48189 132456.128932,-3445987.65003 132346.159074,-3445926.24381 132184.747904,-3445905.22133 132094.424607,-3445894.38614 131993.812552,-3445853.28055 131944.334024,-3445782.28214 131904.656397,-3445701.11872 131763.5165,-3445710.18384 131666.309669,-3445787.35279 131587.425519,-3445856.19868 131499.209194,-3445878.77867 131424.729974,-3445929.06971 131373.30786,-3445997.91424 131317.302349,-3446061.84929 131303.343679,-3446131.50864 131311.602511,-3446214.74365 131288.059925,-3446279.08542 131241.210499,-3446324.87834 131166.492151,-3446403.13584 131083.51104,-3446411.63979 131037.251688,-3446462.41522 130999.971696,-3446499.04602 130907.495878,-3446479.76135 130856.960114,-3446419.26695 130787.612897,-3446395.06647 130737.259248,-3446344.55502 130686.969345,-3446297.53759 130669.064451,-3446232.95276 130646.073238,-3446176.94908 130623.422652,-3446125.93237 130582.294379,-3446074.75325 130541.08948,-3446033.06253 130476.570067,-3445999.78595 130384.185262,-3445985.49213 130291.46118,-3445993.67376 130199.00092,-3446016.3308 130115.689136,-3446047.8088 130036.716299,-3446098.18186 129980.63304,-3446171.60573 129938.032165,-3446258.76487 129928.560047,-3446314.36219 129914.087292,-3446369.55138 129904.868642,-3446411.66245 129885.735841,-3446471.43056 129852.795759,-3446554.41927 129856.479979,-3446633.245 129851.500384,-3446688.76058 129827.967721,-3446781.06506 129813.404069,-3446831.26293 129766.639494,-3446868.06696 129687.742933,-3446908.95221 129636.8068,-3446922.36413 129576.803871,-3446931.44745 129530.451125,-3446949.76903 129442.716078,-3446930.39717 129350.397546,-3446906.11556 129299.952367,-3446850.61158 129249.910146,-3446776.12585 129204.116066,-3446715.54374 129116.542132,-3446650.23066 129085.145775,-3446571.41029 129053.087824,-3446511.07699 128965.519223,-3446459.7447 128910.893941,-3446380.34897 128878.830982,-3446306.03457 128861.169749,-3446200.0002 128787.095204,-3446217.82791 128690.284355,-3446193.62727 128626.099663,-3446151.35559 128589.631456,-3446095.59633 128557.904214,-3446012.28774 128595.266263,-3445952.68655 128600.078889,-3445901.66769 128614.715027,-3445828.00024 128564.500932,-3445744.02991 128486.258217,-3445697.52022 128417.652168,-3445604.39766 128376.686865,-3445534.73911 128330.817813,-3445511.10775 128275.460649,-3445501.13098 128247.828183,-3445450.70315 128164.917207,-3445435.73563 128123.539706,-3445384.55944 128073.336023,-3445328.55072 128018.385393,-3445258.6473 127967.945441,-3445189.66033 127926.890392,-3445142.47274 127890.427017,-3445073.23119 127867.608791,-3444999.24721 127864.084425,-3444887.96186 127855.501471,-3444814.21805 127823.445497,-3444781.34694 127749.283944,-3444780.69992 127689.688189,-3444757.31802 127647.653905,-3444738.60962 127625.158907,-3444696.07717 127639.633248,-3444640.88787 127672.589818,-3444572.37969 127700.867367,-3444479.98916 127738.793131,-3444423.87374 127831.665681,-3444300.34809 127902.230535,-3444185.71721 128037.602254,-3443983.02483 128070.636307,-3443932.49138 128233.662355,-3443795.20665 128419.092352,-3443722.92527 128461.192235,-3443649.25834 128449.239865,-3443417.79196 128537.050166,-3443427.67811 128602.124958,-3443368.0735 128565.902865,-3443270.86648 128599.008504,-3443169.40187 128736.455908,-3443121.96193 128817.548329,-3443037.1003 128933.880479,-3442940.61252 129082.602656,-3442840.53955 129097.14925,-3442761.88249 129084.219351,-3442641.28382 129136.224247,-3442522.00019 129234.572071,-3442356.43603 129272.655015,-3442212.93984 129292.111228,-3442102.23798 129292.845164,-3442005.35825 129349.011569,-3441908.96802 129364.125059,-3441765.391 129484.46404,-3441738.23627 129576.774086,-3441748.54032 129635.04587,-3441658.10388 129573.505347,-3441596.31054 129490.424632,-3441544.39583 129329.205275,-3441506.38511 129245.888889,-3441496.41646 129181.7938,-3441445.15474 129140.817878,-3441333.55528 129102.687495,-3441282.32054 129094.514467,-3441121.19219 129102.05568,-3440986.7409 129051.356152,-3440930.74159 128992.162113,-3440846.9354 128956.182899,-3440721.76373 128948.010655,-3440615.55958 128925.027487,-3440546.07424 128822.993415,-3440563.90704 128691.836465,-3440572.78237 128592.529418,-3440562.10487 128507.062526,-3440488.76197 128438.343958,-3440471.53658 128379.598895,-3440508.5547 128337.220917,-3440608.18849 128264.749125,-3440672.91833 128179.222974,-3440610.06173 128048.446674,-3440584.97653 127921.545739,-3440525.86752 127787.951647,-3440469.37651 127697.695818,-3440558.39648 127570.349414,-3440557.21551 127474.213744,-3440515.02286 127298.835552,-3440494.74186 127175.228395,-3440452.04944 127103.44179,-3440430.88455 127064.323464,-3440325.24113 126953.462372,-3440310.77777 126824.559218,-3440292.64754 126682.454738,-3440331.17976 126574.981982,-3440379.56851 126455.294614,-3440360.27198 126344.365259,-3440328.33331 126202.901619,-3440278.47432 126130.202761,-3440248.33763 126092.586032,-3440184.1094 126027.566638,-3440081.93127 125938.71003,-3440000.65798 125835.236544,-3439953.10433 125740.446713,-3439971.30302 125645.867305,-3439918.59449 125599.892083,-3439861.50816 125586.177295,-3439752.40622 125597.172297,-3439587.93068 125598.648139,-3439394.16834 125605.12897,-3439214.79558 125625.505365,-3439154.50764 125709.915027,-3439059.60329 125838.058838,-3438980.88206 125885.879466,-3438919.59689 125862.806589,-3438872.58067 125806.89215,-3438749.26587 125751.696353,-3438582.99687 125584.245197,-3438573.05324 125461.700433,-3438533.83358 125377.036846,-3438490.93057 125283.267871,-3438400.25827 125232.423225,-3438267.36387 125124.760872,-3438153.97481 125016.69672,-3438101.01017 125003.896778,-3437973.41729 125037.940927,-3437826.9995 125015.348338,-3437710.07003 124935.39225,-3437637.62131 124931.91767,-3437514.85268 124902.606377,-3437371.58137 124802.246736,-3437165.18663 124709.513754,-3437076.49181 124595.995988,-3437025.62228 124554.33566,-3436931.00825 124480.48327,-3436782.05302 124381.659207,-3436646.53249 124330.817189,-3436513.63747 124223.455397,-3436347.81319 124185.744047,-3436319.53626" style="stroke-linejoin:round;stroke:#000;stroke-width:1px;fill:none" /></g></g></svg>