<!-- Generado por: Francisco Tomás López -->
<svg xmlns="http://www.w3.org/2000/svg" xmlns:xlink="http://www.w3.org/1999/xlink" version="1.1" id="Capa_1" x="0px" y="0px" viewBox="0 0 804.3 402.3" style="enable-background:new 0 0 804.3 402.3;" xml:space="preserve">
	<style type="text/css">
		path {
			fill:							#F2F2F2;
			stroke:						white;
			stroke-width:			3;
			stroke-linecap: 	round;
			stroke-linejoin: 	round;
		}
	</style>
	<desc>Tierra del Fuego</desc>
	<g>
		<g id="94007">
			<path d="M2.3,316.5l0.2-31.7l-0.8-15l0.1-22.5l0-0.1l0-9.9l0-10l0-10.4l0-3.3l0-0.9l0-6.2l0-15 l0-4.5l0-4.7l0-2.8l0-18.3l0-1.5l0-10.1l0-5.3l0-17.8l0-4.4l0-6.1l0-3.3l0-6.7l0-4.2l0-10.8l0,0l0-9.2l0-5.4l0-0.4l0-14.2l0-0.8 l0-7.2l0-10.2l0-8.2l0-13.2l0-6.4l0-14.7l0.6,0.5l0.5,0.7l0.6,0.6l0.6,0.6l0.5,0.6l0.8,0.6L6,5.4l0.4,0.6L7,6.9l0.6,0.6l0.6,0.6 l0.7,0.8l0.8,0.7l0.8,0.9l0.9,1.1l1,0.8l0.8,0.7l0.8,0.7l0.8,0.7l0.7,0.7l0.6,0.6l0.8,0.7l0.8,0.7l0.9,0.8l0.9,0.9l1.2,0.9 l1.2,1.1l0.8,0.8l1.1,0.8l0.9,0.8l0.8,0.7l0.7,0.7l0.6,0.6l0.7,0.7l0.8,0.7l0.6,0.6l0.7,0.6l0.9,0.7l0.8,0.8l1.2,1l0.6,0.6 l0.9,0.9l0.9,0.8l0.8,0.5l1,1.1l0.9,0.9l0.9,0.6l1.1,0.8l0.9,0.7l1.1,0.8l0.7,0.7l1.3,0.8l0.9,0.7l0.7,0.6l0.8,0.6l1,0.9l0.8,0.7 l1,1l0.8,0.7l1.2,1l0.9,0.9l0.6,0.6l0.9,0.6l0.7,0.7l1,0.9l0.7,0.8l0.3,0.7l0.6,0.9l0.3,0.7l0.5,1.2l0.4,0.9l0.6,1.2l0.5,1.3 l0.4,1.1l0.2,0.9l0.7,1.4l0.4,1.1l0.3,0.9l0.3,0.8l0.1,1.1l0.2,1l0.2,0.7l0.4,1l0.3,0.7l0.4,1l0.4,1l0.2,0.6l1.5,2.7l0.1,0.2 l0.7,1.2l0.2,0.1l0.5,0.8l0.1,0.3l0.5,0.7l0.4,0.6l0.4,0.6l0.2,0.7l0.4,0.7l0.7,0.8l0.1,0.4l0.1,0.4l0.1,0.5l0.2,0.1l0,0.2 l-0.6,0.6l-0.6,0.6l-0.7,0.5l-0.3,0l-0.1-0.2l0-0.4l0.3-1.1l0.1-0.7l0.1-0.7l0.2-1.1l-0.2-0.7L67.5,78l-0.3-0.6l-0.3-0.5l-0.5-0.9 l-0.5-0.6l-0.3-0.5L65,73.9l-0.4-0.7L63.3,71L63,70.5l-0.6-0.6l-0.8-0.9L61,68.4L60.6,68l-0.6-0.7l-0.4-0.7l-0.9-1.1l-0.3-0.5 l-0.2-0.6L58,63.7l0.1-0.6l0.3-0.8l0-0.5l0.6-0.5l0.1-0.4l-0.3-0.4l-0.9-0.7l-1.6-0.4l-1.7-0.2l-1.7-0.1l-2,0l-0.5,0.1l0,0.1 l-0.2,0l-0.6,0l-1.1,0.2l-1.7,0.2L45.8,60l-0.3,0.3l-1.1,0.3L43,60.9l-0.5,0.2l-1.1,0.8l-1.1,1l-0.7,0.6l-1,0.5l-1.2,0.5l-0.8,0.4 L36,65.2l-0.5,0.5L35,65.9l-0.9,0.6l-1,0.6L33,67.5l-0.5,0.6l-0.3,0.5l-0.6,0.1l0.1,0.2l-0.9,0.5l-0.4,0.2l-0.4,0.6L28.9,71 l-0.5,0.5l0.1,0.3l0,0.1L27.7,72l-0.8,0.4l-0.3,0.3L26.3,73L26,73.1l-0.1,0.1l0.1,0.2l0,0.2l-0.5,0.3l-0.4,0.6l-0.8,0.2l-0.8,0.2 l-0.7,0l-1.3,0L21,75l-0.2,0.1l0,0.2L20,75.7L19.4,76l-0.1,0.4l0.3,0.1l0.4,0l0.6,0.1l0.3,0.1l0.1,0.1L21,76.9l-0.3,0l-0.4-0.1 l-0.3,0l0,0l0.1,0.1l0.3,0.1l0,0.2l-0.2,0.2l-0.1,0l-0.1,0l-0.2,0.2l-0.2,0.1l-0.4,0.2l0,0.1l0.1,0.1l-0.2,0.1l-0.5,0l-0.3,0.1 l-0.2,0.1l-0.7,0.5L17,79.2l-0.6,0.5l-1,0.8l-0.7,0.4L14,81.5l-0.2,0.2l-0.2,0.1l-0.3,0L13,82l0,0.5l0.4,0.7l0.2,0.3l-0.3,0.4 l-0.6,0.5L12.4,85l-0.8,1.4l-0.2,0.4L11,87.2l0,0.4l-0.3,0.1l0,0.1l0.1,0.1l0,0.2l-0.2,0.1l0,0.1l0.1,0.1l0,0.2l-0.3,0.6l-0.2,1.1 l-0.1,0.4l0.1,0.2l0,0.2l-0.1,0.2l0.1,0.1l-0.2,0.2l0.1,0.3l-0.2,0.1l0.1,0.2l-0.1,0.2l0.1,0.3l0.1,0.1l-0.1,0.2L10.1,93l0,0.4 l0.1,0.2l0.2,0.1l0.1,1.2l0,0.3l0,0.5l0.2,0.5l0.1,0.5l0.1,0.1l0.2,0.4l0,0.7l0.4,0.7l0.7,0.6l1.2,0.7l1.2,0.5l1,0.7l2.3,1.5 l1.5,0.9l1.8,1l1.7,1l1.4,0.7l1.9,1l1.5,0.5l1.3,0.4l0.7,0.1l0.9-0.1l0.9-0.2l0.6-0.1l0.9,0.3l0.9,0.4l1.3,0.3l1.2,0.5l0.7,0.2 l1,0.3l0.9,0.3l0.7,0l0.7-0.2l0.7-0.2l0.5,0l0.4,0.1l1.2,0.4l1.3,0.3l1.9,0.5l1.6,0.4l3.2,0.2l1-0.1l0.2-0.1l0.5-0.1l0.6-0.1 l0.4-0.1l0.2,0l0.5,0l0.6-0.1l1.3-0.1l0.2,0l0.8-0.1l0.2,0l0.2-0.1l0.2-0.1l0.5-0.1l0.4-0.1l1.2-0.1l0.4-0.1l0.5-0.1l0.2,0 l0.5-0.1l0.3-0.1l0.5-0.1l0.2,0l0.3-0.1l0.4,0l0.3,0l0.3-0.1l0.1-0.1l0.2-0.1l0.1,0l0.4,0l1.7-0.4l0-0.1l0.1-0.1l0.2-0.1l0.2,0 l0.1,0l0.1,0.2l0.2,0.1l0.1,0l0.2,0l0.3-0.1L68,109l0-0.1l0.1-0.1l0.2,0.1l0.2,0.1l0.5,0.1l0.1,0.1l0.3,0.2l0.9,0.3l0.3,0.1l0.2,0 l0.3,0l0.2,0l0.2,0.1L72,110l0.6,0.2l0.2,0.1l0.4,0.2l0.1,0l0.5,0l0.2,0.1l0.2,0l0.4,0.2l0.6,0.2l0.4,0.2l0.5,0.1l0.3,0.1l0.5,0.2 l0.3,0.1l0.1,0l0,0.1l0.4,0.1l0.2,0.1l0.3,0.1l0.1,0l0.2,0.1l0.2,0.1l0.4,0.2l0.9,0.3l0.2,0.1l0.2,0.1l0.1,0.2l0.3,0.2l0.2,0.2 l0.1,0.1l0.1,0.1l0.5,0.3l0.2,0.2l0.2,0.2l0.3,0.2l0.3,0.3l0.2,0.2l0.2,0.1l0.4,0.3l0.2,0.2l0.4,0.4l0.1,0.1l0.1,0.1l0,0.1l0,0.1 l0,0l0.1,0l0.2,0.1l0.2,0l0.2,0.2l0.2,0.2l0.1,0.1l0.1,0l0.1,0.1l0.1,0.2l0.1,0.1l0.1,0.1l0.3,0.2L86,118l0.1,0.2l0.1,0.1l0.1,0.1 l0.1,0.4l0.1,0.1l0.2,0.3l0,0.1l0,0.1l0,0.1l0,0.1l0.1,0.1l0.1,0.2l0.1,0.1l0.1,0.2l0,0.2l0.1,0.1l0.3,0.3l0.1,0.1l0.3,0.3 l0.1,0.2l0.1,0.1l0.1,0.2l0.2,0.3l0.1,0.2l0.3,0.3l0.1,0.1l0.1,0.2l0.1,0.1l0,0.1l0.1,0.2l0.1,0.1l0.1,0.1l0.1,0.1l0,0.1l0.1,0.3 l0.1,0.2l0.1,0.5l0.1,0.3l0,0.3l0.1,0.2l0,0.2l0.2,0.4l0,0.1l0,0.2l0.1,0.2l0,0.1l0.1,0.5l0.1,0.7l0,0.4l0,0.2l0,0.2l0.1,0.2 l0.1,0.3l0,0.4l0,0.3l0,0.2l0,0.2l0,0.4l0.1,0.1l0.1,0.1l0,0.2l0,0.1l0,0.1l0.1,0.2l0.1,0.2l0.1,0.3l0,0.1l0.1,0.2l0.1,0.1 l0.1,0.2l0.1,0.2L92,133l0,0.1l0,0.5l0,0.2l0.1,0.2l0,0.2l0.1,0.1l0,0.1l0,0.1l0,0.2l0.1,0.4l0.2,0.3l0.1,0.4l0.2,0.4l0.1,0.2 l0.2,0.4l0.2,0.6l0,0.2l0,0.1l0.1,0.3l0.3,0.7l0.1,0.1l0.1,0.1l0.1,0.2l0.1,0.3l0.1,0.1l0.2,0.4l0,0.2l0.1,0.2l0.3,0.3l0.2,0.4 l0.1,0.2l0.2,0.5l0.2,0.4l0.1,0.1l0.2,0.2l0.1,0.2l0.1,0.3l0.1,0.2l0.1,0.2l0.3,0.5l0.1,0.2l0.1,0.2l0.2,0.4l0.2,0.2l0.3,0.6 l0.1,0.1l0.1,0.1l0.1,0.1l0.2,0.3l0.1,0.2l0.1,0.1l0,0.2L98,147l0.2,0.3l0.2,0.4l0.1,0.1l0.2,0.2l0.1,0.1l0.2,0.2l0.1,0.2l0.3,0.5 l0.1,0.1l0.1,0.1l0.1,0.3l0.4,0.5l0.1,0.1l0.1,0.2l0.2,0.2l0.1,0.1l0.1,0.2l0,0.1l0.2,0.3l0.2,0.1l0.1,0.1l0.2,0.2l0.2,0.2 l0.2,0.3l0.1,0.1l0,0l0,0.2l0.4,0.5l0.1,0.1l0.3,0.3l0.2,0.2l0.1,0.1l0.2,0.3l0.1,0.1l0.2,0.3l0.1,0.1l0.1,0.1l0.3,0.2l0.1,0.1 l0.2,0.2l0.1,0.1l0.5,0.5l0.2,0.3l0.2,0.2l0.2,0.3l0.3,0.2l0.2,0.2l0.1,0.1l0.5,0.2l0.2,0.1l0.4,0.3l0.2,0.2l0.1,0.1l0.4,0.3 l0.1,0.1l0.1,0.1l0.1,0.1l0.1,0.1l0.8,1l0.1,0.2l0.4,0.5l0.3,0.3l0.1,0.1l0.1,0l0.1,0.2l0.1,0.1l0.1,0.1l0.8,0.6l0.1,0.1l0.7,0.5 l0.1,0.2l0.1,0.2l0.2,0.1l0.7,0.5l0.4,0.3l0.2,0.1l0.2,0.2l0.2,0.2l0.2,0.1l0.7,0.6l0.4,0.3l0.1,0.1l0.2,0.1l0.2,0.1l0.3,0.2 l0.1,0.1l0.4,0.2l0.3,0.1l0.7,0.5l0.2,0.1l0.3,0.2l0.1,0.1l0.2,0.1l0.2,0.1l0.2,0.1l0.5,0.4l0.1,0.1l0.4,0.2l0.2,0l0.2,0l0.2,0.1 l0.4,0.2l0.5,0.3l0.5,0.3l0.3,0.1l0.1,0.1l0.1,0.1l0.1,0.1l0.2,0l0.1,0l0.1,0.1l0.1,0.1l0.4,0.2l0.1,0.1l0.2,0.1l0.2,0.1l0.2,0.1 l0.6,0.3l0.2,0.1l0.2,0.1l0.1,0.1l0.3,0.1l0.4,0.2l0.1,0.1l0.1,0l0.2,0.1l0.3,0.1l0.3,0.1l0,0.1l-0.1,0l-0.2,0l-0.1,0l-0.2,0 l-0.1-0.1l-0.1-0.1l0,0l-0.2-0.1l-0.2,0l-0.1,0l-0.1,0l-0.1,0l-0.1-0.1l-0.1-0.1l-0.1-0.1l-0.1-0.1l-0.1,0l-0.2-0.1l-0.1-0.1 l-0.1-0.1l-0.1-0.1l-0.1-0.1l-0.1-0.1l-0.1-0.1l-0.1-0.1l-0.1-0.1l-0.2-0.1l-0.1,0l-0.1,0l-0.1-0.1l-0.1,0l-0.1-0.1l-0.1-0.1 l-0.1-0.1l-0.1-0.1l-0.2-0.1l-0.1-0.1l-0.2-0.1l-0.2,0h-0.2l-0.2,0.1l-0.1,0.1l0,0.1l0,0.1l0.1,0.1l0.1,0.1l0.1,0.1l0.1,0.1 l0.1,0.1l0.1,0.1l0,0.1l0,0.1l-0.1,0.1l-0.1,0l-0.1,0l-0.2,0l-0.1,0l-0.2,0h-0.1l-0.1,0l-0.1,0l-0.1,0l-0.1,0.1l-0.1,0l-0.1,0 l-0.1,0l-0.1,0l-0.1,0l-0.1,0.1l-0.2,0l-0.2,0l-0.1,0l-0.1,0l-0.1,0l-0.3,0l-0.2,0l-0.1,0l-0.1,0l-0.1,0l-0.1,0l-0.1,0l-0.1,0 l-0.1,0.1l0,0.1l0,0.1l0.1,0.1l0.1,0l0,0l0,0l0-0.1l0,0l0,0l0,0l0.1,0l0.1,0l0.1,0l0.1,0l0.1,0l0.1,0l0.1,0l0.1,0l0.1,0l0.1,0 l0.1,0l0.1,0l0.1,0l0.1,0l0.1,0l0.1,0l0.1,0l0.1,0l0.1,0l0.1,0l0.1,0l0.1,0l0.1,0l0.1,0l0.1-0.1l0.1,0l0.1,0l0.1,0l0.1,0l0.1,0 l0.1,0l0.1,0l0.1,0l0.1,0h0.1l0.1,0l0.1,0l0,0l0,0l0.1,0l0.1,0l0.1,0h0.1l0.1,0l0.1,0l0.1,0l0.1,0l0.1,0l0.1,0l0.1-0.1l0.1,0 l0.1,0l0,0l0.1,0l0.1,0l0.1,0l0,0l0,0l0,0l0,0l0-0.1l0,0l0,0l0,0l0,0l-0.1,0l-0.1,0l-0.1,0l-0.1,0l-0.1,0l0,0l-0.1-0.1l0-0.1l0,0 l0.1,0l0.1,0l0.1,0h0.1h0.1l0.1,0l0.1,0l0.3,0.1l0.1,0l0.1,0l0.1,0l0.1,0l0.1,0l0.1,0l0.1,0l0.1,0l0.1,0l0.1,0l0.1,0l0.1,0l0.1,0 l0.1,0l0.1,0l0.1,0l0,0l0.1,0l0,0l0.1,0l0.1,0.1l0.1,0l0.1,0l0,0l0.1,0.1l0.1,0l0,0l0,0l0,0l0.1,0l0.1,0l0.1,0l0,0l0.1,0l0.1,0.1 l0.1,0l0,0l0.1,0l0.1,0l0.1,0l0.1,0l0.1,0l0.7,0.3l0.4,0.2l0.4,0.1l0.4,0.1l0.6,0.1l0.4,0.1l0.5,0.2l0.4,0.1l0.3,0.1l0.3,0.2 l0.2,0.1l0.2,0.2l0.1,0.3l0.1,0.3l0.1,0.3l0.2,0.2l0.3,0.3l0.5,0.3l0.4,0.3l0.5,0.3l0.5,0.2l0.3,0.1l0.2,0.1l0.1,0l0.1,0l0.1,0 l0.1,0l0.1,0l0.1,0l0.1,0l0.1,0l0.1,0l0.1,0l0.1,0l0.1,0l0.1,0l0.1,0l0.1,0l0.1,0l0.1,0l0.1,0l0.1,0l0.1,0l0.1,0l0.1,0l0.1,0 l0.1,0l0.1,0l0.1,0l0.1,0l0.1,0l0.1,0l0.1,0l0.1,0.1l0.1,0l0.1,0l0.1,0l0.1,0l0.1,0l0.1,0l0.1,0l0.1,0l0.1,0l0.1,0l0.1,0l0.1,0 l0.1,0l0.1,0l0.1,0.1l0,0l0.1,0.1l0,0l0,0l0.1,0l0.1,0.1l0,0l0.1,0l0.1,0.1l0.1,0.1l0.1,0.1l0.1,0l0,0l0,0l0,0l0,0.1l0,0.1l0,0 l0,0l0,0l0,0l0,0l0,0l0,0l0,0l0,0l0,0l0.1,0.1l0,0l0,0l0,0l0,0l0,0l0,0l0,0l0,0l0,0l0,0l0,0l0,0l0,0l0,0l0,0l0,0l0,0l0,0l0,0l0,0 l0,0l0,0l0,0l0,0l0,0l0,0l0,0l0,0l0.1,0l0,0l0,0l0.1,0l0,0l0.1,0l0.1,0l0.1,0l0,0l0.1,0l0,0l0.1,0l0,0l0,0l0,0l0,0l0,0l0,0l0,0 l0,0l0.1,0l0,0l0.1,0l0,0l0,0l0.1,0l0,0l0.1,0l0.1,0l0,0l0.1,0l0,0l0.1,0l0.1,0l0.1,0l0.1,0l0,0l0.1,0l0,0l0.1,0l0.1,0l0.1,0 l0.1,0l0.1,0l0.1,0l0.1,0l0.1,0l0.1,0l0.1,0l0.1,0l0.1,0l0.1,0l0.1,0l0,0l0.1,0l0,0l0.1,0l0.1,0l0.1,0l0.1,0l0,0l0.1,0l0,0l0.1,0 l0,0l0.1,0l0.1,0l0.1,0l0.1,0l0,0l0.1,0l0.1,0l0.1,0l0.1,0l0.1,0l0.1,0l0.1,0l0.1,0l0.1,0l0.1,0l0.1,0l0.1,0l0.1,0l0.1,0l0.1,0 l0,0l0.1,0l0.1,0l0.1,0l0.1,0l0.1,0l0.1,0l0.1,0l0.1,0l0.1,0l0.1,0l0.1,0l0.1,0l0.1,0l0.1,0l0.1,0l0.1,0l0.1,0l0.1,0l0.1,0l0.1,0 l0.1,0l0.1,0l0.1,0l0.1,0l0.1,0l0.1,0l0.1,0l0.1,0l0.1,0l0.1,0l0.1,0l0.1,0l0.1,0l0.1,0l0.1,0l0.1,0l0,0l0.1,0.1l0.1,0.1l0.1,0 l0.1,0l0.1,0l0.1,0l0.1,0l0.1,0l0.1,0.1l0,0l0,0l0.1,0l0,0l0,0l0,0l0,0l0,0l0,0l0,0l0,0l0,0l0.1,0l0,0l0.1,0.1l0.1,0l0,0l0,0l0,0 l0,0l0,0l0,0l0,0l0,0l0,0l0,0l0.4,0.2l0,0l0,0l0,0l0,0l0,0l0.1,0l0,0l0,0l0,0l0,0l0,0l0,0l0,0l0,0l0,0l0,0l0,0l0,0l0,0l0,0l0,0 l0,0l0,0l0,0l0,0l0,0l0,0l0,0l0,0l0,0l0,0l0,0l0,0l0,0l0,0l0,0l0,0l0,0l0,0l0,0l0,0l0,0l0,0l0,0l0,0l0,0l0,0l0,0l0,0l0,0l0,0 l0.1,0l0,0l0.1,0l0.1,0l0.1,0l0.1,0l0.1,0l0,0l0,0l0.1,0l0.1,0l0.1,0l0,0l0,0l0,0l0,0l0,0l0,0l0,0l0,0l0.1,0l0.1,0l0.1,0l0.1,0 l0,0l0.1,0l0,0l0.1,0l0,0l0,0l0.1,0l0,0l0,0l0.1,0l0,0l0,0l0,0l0,0l0,0l0,0l0,0l0,0l0,0l0,0l0,0l0,0l0,0l0,0l0,0l0,0l0,0l0,0l0,0 l0,0l0,0l0,0l0,0l0,0l0,0l0,0l0,0l0,0l0,0l0,0l0,0l0,0l0,0l0,0l0,0l0,0l0,0l0,0l0,0l0,0l0,0l0,0l0,0l0,0l0,0l0,0l0,0l0,0l0,0l0,0 l0,0l0,0l0,0l0,0l0,0l0,0l0,0l0,0l0,0l0,0l0,0l0,0l0,0l0,0l0,0l0,0l0,0l0,0l0,0l0,0l0,0l0,0l0,0l0.2,0.1l0,0l0.1,0l0.1,0l0.1,0 l0.1,0l0.1,0l0,0l0,0l0,0l0,0l0,0l0,0l0,0l0,0l0,0l0,0l0,0l0,0l0,0l0,0l0,0l0,0l0,0l0,0l0,0l0,0l0,0l0,0l0,0l0,0l0,0l0,0l0,0l0,0 l0,0l0,0l0,0l0,0l0,0l0,0l0,0l0,0l0,0l0,0l0,0l0,0l0,0l0.1,0l0.1,0l0,0l0.1,0l0,0l0,0l0,0l0,0l0.1,0l0.1,0l0.1,0l0.1,0.1l0,0l0,0 l0,0l0,0l0,0l0,0l0,0l0,0l0,0l0,0l0,0l0,0l0,0l0,0l0,0l0,0l0,0l0,0l0,0l0,0l0,0l0,0l0,0l0,0l0,0l0,0l-0.1,0l-0.1,0l0,0l-0.1,0 l-0.1,0l-0.1,0l-0.1,0l-0.1,0l-0.1,0l-0.1,0l-0.1,0l-0.1,0l-0.1,0l-0.1,0l-0.1,0l-0.1,0l-0.1,0l-0.1,0l-0.1,0l-0.1,0l-0.1,0 l-0.1,0l-0.1,0l-0.1,0l-0.1,0l-0.1,0l-0.1,0l-0.1,0l-0.1,0l-0.1,0l-0.1,0l-0.1,0l-0.1,0h-0.1l-0.4,0l-0.1,0l-0.1,0l-0.1,0l-0.1,0 l-0.1,0l-0.1,0l0,0l-0.1,0l-0.1,0l0,0l-0.1,0l-0.1,0l0,0l-0.1-0.1l-0.1,0l-0.1,0l-0.1,0l-0.1,0l-0.1,0l-0.1,0l-0.1,0l0,0l-0.1,0 l-0.1,0l-0.1,0l-0.1,0l-0.1,0l-0.1,0l-0.1,0l-0.1,0l-0.1,0l-0.1,0l-0.1,0l-0.1,0h-0.1l-0.1,0l-0.1,0l-0.1,0l-0.1,0l-0.1,0l-0.1,0 l-0.1,0l-0.1,0l-0.1,0l0,0l-0.1,0l-0.1,0l-0.1,0l-0.1,0l0,0l-0.1,0l0,0l-0.1,0l0,0l0,0l0,0l-0.1,0l0,0l-0.1,0l0,0l0,0l-0.1,0 l-0.1,0l0,0l0,0l-0.1,0l-0.1,0l-0.1,0l-0.1,0l0,0l-0.1,0l-0.1,0l-0.1,0.1l-0.1,0l-0.1,0l-0.1,0l-0.1,0l-0.1,0l-0.2,0l-0.1,0 l-0.1,0h-0.1l-0.1,0l-0.1,0l-0.1,0l-0.1,0l-0.1,0l-0.1,0l-0.1,0l-0.1,0l-0.1,0l-0.1,0l-0.1,0l-0.1,0l-0.1,0l-0.1,0l-0.1,0l-0.1,0 l-0.1,0l-0.1,0l-0.1,0l0,0l-0.1,0l-0.1,0l-0.1,0l-0.1,0l0,0l0,0l0,0l0,0l0,0l0,0l-0.1,0.1l0,0l0,0l0,0l0,0l0,0l0,0l0,0l0,0l0,0 l0,0l0,0l0,0l0,0l0,0l0,0l0,0l0,0l0,0l0,0l0,0l0,0l0,0l0,0l0,0l0,0l0,0l0,0l0,0l0,0l0,0l0,0l0,0l0,0l0,0l0,0l0,0l0,0l0,0l0,0l0,0 l0,0l0,0l0,0l-0.1,0l0,0l0,0l-0.1,0l-0.1,0l-0.1,0l-0.1,0l-0.1,0l-0.1,0l-0.1,0l-0.1,0l-0.1,0l-0.1,0l-0.1,0l-0.1,0l-0.1,0l-0.1,0 l-0.1,0l-0.1,0l-0.1,0l-0.1,0l-0.1,0l-0.1,0l-0.1,0l-0.1,0l-0.1,0l-0.1,0l-0.1,0l-0.1,0l-0.1,0l-0.1,0l0,0l0,0l-0.1,0l-0.1,0l0,0 l0,0l-0.1,0l0,0l0,0l-0.1,0l0,0l0,0l0,0l0,0l0,0l0,0l0,0l0,0l0,0.1l0,0l0,0l0,0l0,0l0,0l0,0l0,0l0,0l0,0l0,0l0,0l0,0l0,0.1l0,0.1 l-0.1,0.1l0,0.1l-0.1,0.1l0,0.1l-0.1,0.1l0,0l0,0l0,0.1l0,0l0,0l0,0l-0.1,0l-0.1,0l-0.1,0l-0.1,0l-0.1,0l-0.1,0l-0.1,0l-0.1,0 l-0.1,0l-0.1,0l-0.1,0l-0.1,0H141l-0.1,0l-0.1,0l0,0l0,0l0,0l0,0l0,0l0,0l0,0l0,0l0,0l0,0l0-0.1l0-0.1l0-0.1l0,0l0-0.1l0,0l0-0.1 l0.7-0.3l0,0l0,0l0,0l0,0l0,0l0,0l0,0l0,0l0,0l0,0l0,0l0,0l0,0l0,0l0,0l0,0l0,0l0,0l0,0l0,0l0,0l0,0l-0.1-0.1l-0.1-0.1l-0.1-0.1 l-0.1,0l-0.2,0l-0.1,0l-0.1,0l-0.1,0l-0.1,0l-0.1,0l-0.1,0l-0.1,0l-0.1,0l-0.1,0l-0.2,0l-0.1,0l-0.1,0l-0.1,0l-0.1,0l-0.1,0 l-0.1,0l0,0l-0.1,0l-0.1,0.1l-0.1,0l-0.1,0l-0.1,0l0,0.1l0,0l0,0l0,0.1l0,0l0,0l0,0l0,0l0,0l0,0l0,0l-0.1,0l0,0l0,0l0,0l0,0l0,0 l0,0l0,0l0,0l0,0l0,0l-0.1,0l0,0l0,0.1l0,0.1l0,0l0,0l0,0.1l0,0l0,0l0,0.1l0,0l0,0.1l0,0l0,0l0,0l0,0l0,0l0,0l-0.1,0.1l0,0l0,0 l0,0l0,0l-0.1,0l-0.1,0l-0.1,0l-0.1,0l-0.2,0l-0.1,0l0,0l-0.1,0l0,0l0,0l0,0l0,0l0,0l0-0.1l0,0l-0.1,0l0,0l0,0l-0.1,0l-0.1,0 l-0.1,0l-0.1,0l0,0l-0.1,0l-0.5-0.1l0.1,0l0.1,0l0.1,0l0.1,0l0.1,0l0.1,0l0,0l0,0l0,0l0,0l0,0l0,0l0,0l0,0l0,0l0,0l0.1,0.1l0.1,0 l0,0l0.1,0l0.1,0l0.1,0.1l0,0l0,0l0,0l0.1,0l0.1,0l0.1,0l0.1,0l0.1,0l0.1,0l0.1,0h0.1l0.1,0l0.1,0l0.1,0l0.1,0l0.1,0l0.1,0 l0.1-0.1l0,0l0,0l0,0l0,0l0-0.1l0,0l0,0l0,0l0,0l0,0l0,0l0-0.1l0,0l0-0.3l0-0.1l0,0l0,0l0.1,0l0.1,0l0,0l0,0l0.1,0l0-0.1l0,0 l0-0.1l0-0.1l0,0l0.1-0.1l0,0l0.1,0l0.1,0l0.1,0l0.1,0l0.1,0l0.1-0.1l0,0l0,0l0-0.1l0,0l0,0l0.1,0l0.1,0l0,0l0-0.1l0,0l0,0l0.1,0 l0.1,0l0.1,0l0.1,0l0.1,0l0.1,0l0.1,0l0.1,0l0,0l0,0l0,0.1l0,0l0,0.1l0,0l0,0.1l0,0l0,0l0,0l0,0.1l0,0l0,0.1l0,0l0,0l0,0.1l0,0 l0,0l0,0l0,0.1l0,0l0,0l0,0l0,0.1l0,0.1l0,0l0,0l0,0l0,0l0,0.2l0,0.1l0,0l0.1,0l0,0l0,0l0.1,0.1l0,0.1l0.1,0.1l0.1,0l0.1,0l0.1,0 l0.1,0l0.1,0l0.1,0l0.1,0l0.2,0l0.1,0l0.1,0l0.1,0l0.1,0l0.1,0l0.1,0l0.1,0l0.1,0l0.1,0l0.1,0l0.1,0l0.1,0l0.1,0l0.1,0l0.1,0 l0.1,0l0.1,0l0,0l0-0.1l0.1-0.1l0.1,0l0.1,0l0.1,0l0.1-0.1l0.1,0l0,0l0.1,0l0,0l0,0l0,0l0,0l0,0l0-0.1l0,0l0,0l0-0.1l0-0.1l0,0 l0,0l0-0.1l0-0.1l0-0.1l0-0.1l0,0l0-0.1l0,0l0.1,0l0-0.1l0.1,0l0.1,0l0.1,0l0.1,0l0.1,0l0.1,0l0.1,0l0.1,0l0.2,0l0.1,0l0.1,0h0.1 l0.1,0l0.1,0l0.1,0l0.1,0l0.1,0l0.1,0l0.1,0l0.1,0l0.1,0l0.1,0l0.1,0l0.1,0l0.1,0l0.1,0l0.1,0l0.1,0l0.1,0l0.1,0l0.1,0l0.1,0l0,0 l0.1,0l0.1,0l0.1,0l0.1,0l0.1,0l0,0l0.1,0l0.1,0l0.1,0l0.1,0l0.1-0.1l0-0.1l0,0l0-0.1l0-0.1l0.1-0.1l0-0.1l0-0.1l0-0.1l0-0.1l0,0 l0,0l0-0.1l0.1,0l0.1-0.1l0.1-0.1l0.1-0.1l0,0l0,0l0,0l0.1-0.1l0.1,0l0.1,0l0.1,0l0.1,0l0.1,0l0.1,0l0.1,0l0.1,0l0.1,0l0.1,0 l0.1,0l0.1,0l0.1,0l0.1,0l0.1,0l0.2,0l0.1,0l0.1,0l0.1,0l0.1,0l0.1,0l0.1,0l0.1,0l0.1,0l0.1,0l0.1,0l0.1,0l0.1,0l0.1,0l0.1,0 l0.1,0l0.1,0l0.1,0l0.1,0l0.1,0l0.1,0l0.1,0l0.2,0l0.1,0l0.1,0l0.1,0h0.1l0.1,0l0.1,0l0.1,0l0.1,0l0.1,0l0.1,0l0.1,0l0.1,0l0.1,0 l0.1,0l0.1,0l0.1,0l0.1,0l0.1,0l0.1,0l0.1,0l0.1,0l0.1,0l0.1,0l0.1,0l0.1,0l0.1,0l0.3,0l0.1,0l0.1,0l0.1,0l0.8,0l0.1,0l0.2,0 l0.1,0l0.1,0l0.1,0l0.1,0l0.1,0l0.1,0l0.1,0h0.1l0.1,0l0.1,0l0.1,0l0.1,0l0.1,0l0.1,0l0.1,0l0.1,0l0.1,0l0.1,0l0.1,0l0.1,0l0.1,0 l0.1,0l0.1,0l0.1,0l0.1,0l0.1,0l0.1,0l0.1,0l0,0l0,0l0,0l0.1,0l0,0l0,0l0,0l0.1,0l0,0l0,0l0,0l0,0l0.1,0l0,0l0,0l0,0l0,0l0,0l0,0 l0,0l0,0l0,0l0,0l0,0l0,0l0,0l0,0l0,0l0,0l0,0l0,0l0,0l0,0l0,0l0-0.1l0,0l0-0.1l0,0l0,0l0,0l0,0l0,0l0,0l0-0.4l0-0.1l0-0.2l0-0.2 l-0.1-0.2l-0.3-0.3l-0.1,0l-0.2-0.1l-0.1-0.1l0,0l-0.1,0l0,0l0,0l0,0l0-0.1l0.1-0.1l0.1-0.1l0.1,0l0.4,0l-0.1,0.1l0.2,0.4l0.1,0.1 l0.1,0.1l0.8,0.6l0.1,0.1l0.3,0.1l0.2,0.1l0.1,0l0.8,0.5l0.2,0.1l0.1,0.1l0.1,0l0.1,0.1l0.1,0.1l0.5,0.2l0.1,0.1l0.5,0.4l0.1,0 l1.9,0.9l0.3,0.1l0.3,0.1l0.3,0.1l0.8,0.3l0.4,0.1l1.1,0.4l0.1,0l0.1,0.1l1.2,0.5l0.2,0.1l1,0.5l0.3,0.1l0.2,0.1l0.1,0.1l0.1,0 l0.3,0.1l0.2,0.1l0.4,0.2l0.3,0.1l0.5,0.1l0.2,0.1l0.2,0.1l0.3,0.1l1.5,0.3l0.8,0l0.5,0.1l0.3,0.1l1.3,0.3l0.3,0l0.4,0.1l0.1,0.1 l0.1,0.1l0.2,0.1l0.6,0.3l0.2,0.1l0.4,0.3l0.2,0.2l0,0l-0.1,0l-0.1,0.1l-0.1,0.4l0,0l-0.2,0l-0.4-0.1l-0.1-0.1l-0.2-0.1l-0.2-0.2 l-0.2,0l-0.3,0l-0.8,0.2l-0.7-0.1l-0.2-0.1l-0.3,0l-0.4,0.2l-1.1,1.1l-0.3,0.5l-0.1,0.3l-0.4,1.4l0,0.4l0,0.5l0,0.6l0.1,0.2 l0.6,1.2l0.1,0.3l0.5,0.8l0.3,0.7l0.1,0.2l0.1,0.1l0.7,0.9l0.2,0.3l0.1,0.1l0.3,0.2l0.2,0.2l0.4,0.4l0.1,0.1l0.1,0.2l0.9,0.7 l0.1,0.1l0.2,0.1l0.6,0.5l0.1,0.1l0.2,0.1l0.1,0.1l0.8,0.6l0.3,0.2l0.1,0l0.2,0.1l0.1,0l0.3,0.1l0.1,0l0.3,0.2l1,0.5l0.3,0.1 l0.8,0.4l0.1,0.1l0.2,0.1l0.4,0.2l0.7,0.1l0.5,0.1l0.1,0.1l0.2,0.1l0.1,0l1.1,0l0.3,0l0.3,0l0.3,0.1l0.8,0.4l0.2,0.3l0.7,0.6 l0.7,0.4l0.3,0.2l1.1,0.9l0.1,0.1l0.1,0.1l0.1,0.2l0,0.1l0.2,0.2l0.1,0.1l0.4,0.4l0.1,0.1l0.2,0.2l0.1,0.1l1.5,1.2l0.4,0.4 l0.2,0.1l0.2,0.1l0.3,0.1l0.1,0.1l0.1,0.2l0.1,0.1l0.3,0.4l0.4,0.1l0.1,0l0.3,0.2l0.1,0l0.4,0.1l0.3,0.1l0.2,0l0.3,0l0.1,0l0.1,0 l0.3,0.2l0.5,0.1l0.1,0l0.1,0l0,0l2.4,0.4l0.6,0.1l0.2,0l0.6,0.2l0.2,0l0.5,0l0.3,0.1l0.2,0l0.1,0l0.2,0l0.2,0.1l0.6,0.2l1.5,0.3 l0.2,0.1l0.1,0l0.5,0.1l0.7,0.2l0.4,0.2l0.8,0.4l0.5,0.3l0.1,0.1l0.9,0.5l0.6,0.3l0.1,0.1l1,0.2l0.2,0l0.5,0.1l0.1,0.1l0.1,0.1 l0,0l0,0.1l0,0l-0.1,0l-0.1,0l-0.1,0h-0.1l-0.1,0l-0.1-0.1l-0.3-0.1l-0.2,0l-0.1,0l-0.2,0.2l-0.3,0.5l0,0.7l0,0l0.4,0.6l-0.1,0.1 l0,0.1l0.1,0.2l0.2,0.2l0.3,0.3l0.1,0.1l0.7,0.8l0.3,0.2l0.1,0.1l0.9,0.4l0.7,0.3l1.2,0.6l0.1,0l0.1,0.1l1.3,0.5l0.4,0.1l0.2,0.1 l0.2,0l0.8,0.2l0.4,0.1l0.3,0l0.1,0l0.1,0l0,0.1l0.4,0.1l0.3,0l0.2,0.1l0.1,0l0.2,0.1l-0.1,0.1l0.1,0.4l0,0l0,0.3l0.2,0.1l0.4,0.1 l1,0.4l0.1,0l0.3,0.3l0.4,0.3l0.4,0.1l0.1,0.1l0.1,0.1l0.5,0.2l1.1,0.6l0.4,0.2l0.7,0.4l0.7,0.3l0.5,0.2l0.2,0.1l0.2,0l0.9,0.2 l0.3,0.1l1.6,0.7l0.2,0l0.2,0.1l0.5,0.2l0.3,0.1l0.2,0.1l0.2,0.1l0.2,0.1l0.1,0.1l1.4,0.5l0.4,0.2l0.3,0.1l0.6,0.3l1.2,0.5 l0.1,0.1l0.4,0.1l0.5,0.2l0.3,0.1l0.3,0.1l2,0.8l1.3,0l0.1,0l0.1,0.2l-0.3,0.4l-0.1,0l-0.7,0.2l0.2,0.6l0.1,0l0.1,0.4l-0.1,0 l0.2,0.1h0.2l0.1,0l0.1,0l0.1-0.1l0.1-0.2l0,0l0-0.1l-0.1-0.1l-0.1,0l-0.2,0l-0.1,0l-0.2,0l-0.1-0.1l0-0.1l0,0l0.1,0l0.1,0l0.1,0 l0.1,0l-0.1,0l-0.1,0l-0.1,0l0,0l-0.1,0l0,0l0-0.1l0.1-0.1l0.2,0l0.1,0l0.1,0l0.1,0l0.1,0l0.1,0.1l0.2,0.1l0.4,0.2l0.1,0.1 l0.5,0.3l1,0.6l0.2,0.2l0.2,0l0.4,0l0.2,0l0.3,0l0.5,0.3l0.2,0.1l0.4,0.2l0.2,0.1l0.5,0.1l0.8,0l0.2,0l0.4,0l1.9,0l0.1,0l0.2,0.1 l0.7,0.1l0.7,0l0.6,0l0.1-0.2l0-0.3l0.2,0l0.1,0.1l0,0.1l0.1,0l0.3,0l0.4,0.1l0.2,0.1l0,0.1l-0.1,0.1v0.1l0.1,0.1l0.4,0.2l0.4,0.1 l0.3,0l0.1,0l0.1,0.1l0,0.2l0,0.1l0.1,0.1l0.1,0l0.4,0.1l0.5,0.2l0.6,0.1l0.7,0.2l0.5,0.2l0.7,0.2l0.6,0.2l0.5,0.2l0.7,0.3 l0.5,0.3l0.4,0.1l0.6,0.1l0.4,0.1l0.4,0.1l0.2,0.2l0.1,0.1l0.3,0.1l0.4,0l0.4,0.1l0.6,0.2l0.8,0.1l0.4,0.4l0.5,0.2l0.5,0l0.2-0.1 l0.1,0l0.2,0.2l0.1,0.2l0,0.1l0.2,0.2l0.4,0.1l0.5,0.2l0.8,0.2l0.4,0.2l0.9,0.4l1,0.4l1.2,0.3l0.5,0.1l0.4,0.2l0.4,0.1l0.3,0.2 l0.3,0.1l0.6,0.4l0.3,0.1l0.1,0l0,0.1l0,0.2l0.3,0.3l0.1,0l0.1,0.2l0,0.1l-0.1,0.1l-0.2,0.1l0,0.1l0,0.1l0.2,0.2l0.4,0.4l0.6,0.4 l0.4,0.2l0.4,0.1l0.4,0.1l0.3,0.1l0.3,0l0.1,0l0.2,0.1l0.5,0.2l0.4,0.2l0.8,0.4l0.5,0.4l0.5,0.3l0.2,0.1l0.1,0l0.2,0.1l0.2,0 l0.4,0.1l0.3,0.1l0.2,0.2l0.4,0.2l0.6,0.3l0.4,0.2l0.6,0.2l0.7,0.2l0.6,0.1l0.9,0.1l0.6,0.1l0.6,0.1l0.8,0.1l0.5,0h0.5l0.6,0.3 l0.4,0.2l0.6,0.1l0.7,0.1l0.4,0.1l0.6,0.1l0.6,0.3l0.7,0.1l0.6,0.2l0.6,0.2l0.8,0.2l0.7,0.2l0.4,0.1l0.2,0.1l1.6,0.4l1.4,0.4 l1.4,0.4l0.8,0.2l0.4,0l0.2,0l0.3,0l0.2,0l0.1,0.2l0.3,0.2l0.1,0.2l0.1,0l0.2,0l0.1,0l0.2-0.1l0.2,0l0.3,0l0,0.1l0.3,0.2l0.3,0.2 h0.2l0.3,0.1l0.6,0.2l0.2,0l0.1-0.1l0.1-0.1l0.2,0l0.2,0.1l0.2,0.2l0.6,0.3l0.3,0.2l0,0.1l-0.2,0.2v0.2l0.2,0.2l0.2,0.1l0.3,0 l0.1-0.1l0.1-0.1l0.1,0l0.3,0l0.3,0l0.3,0.1l0.2,0.1l0.1,0.1l-0.2,0.1l-0.8,0l-0.5,0.2l-0.1,0.4l0,0.3l0.2,0.2l0.4,0.4l0.3,0.4 l0.7,0.6l0.4,0.3l0.2,0l0.2,0.1l0.4,0.1l0.3,0l0.4,0l0.4,0l0.2,0l0.1,0.1l0.2,0.1l0.6,0.1l0.5,0.1l1,0.3l0.1,0l0.3,0l0.1-0.1 l0.4-0.1l0.4,0l0.8,0l0,0.2l-0.1,0.2l-0.3,0.2l-0.3,0.1l-0.2,0.1l-0.4,0.1l-0.4,0l-0.3,0.1l-0.1,0.4l0.1,0.9l0.1,0.1l0.1,0.1 l0.2,0.1l0.1,0.1l0,0.1l0,0.1l0.2,0.8l0.2,0.3l0.2,0.2l0.5,0.4l0.4,0.3l0.3,0.4l0.4,0.4l0.3,0.3l0.1,0.1l0.2,0.4l0.2,0.2l0.4,0.4 l0.4,0.5l0.4,0.5l0.5,0.5l0.6,0.5l0.4,0.3l0.1,0.1l0.1,0.1l0,0.1l0.2,0.2l0.3,0.2l0.4,0.3l0.6,0.5l0.3,0.2l0.3,0.2l0.2,0.1 l0.6,0.2l0.2,0.1l0.3,0.2l0.2,0.1l0.7,0.3l0.4,0.1l0.1,0.1l0,0.2l0,0.1l0.1,0.2l0.2,0.1l0.5,0.3l0.1,0.1l0.4,0.2l0.1,0.1l0,0.1 l0.1,0.1l0.3,0.2l0.3,0.2l0.6,0.4l0.3,0.1l0.7,0.4l0.2,0.1l0.7,0.3l0.7,0.4l0.6,0.3l0.6,0.5l0.2,0.1l0.5,0.3l0.5,0.1l0.9,0.4 l0.4,0.2l0.5,0.1l1,0.2l0.6,0.4l0.4,0.2l0.5,0.3l0.7,0.4l0.4,0.2l0.5,0.2l0.4,0.1l0.3,0.1l0.6,0l0.1,0l0.1,0.1l-0.1,0.1l-0.2,0 l-0.3,0l-0.6,0l-0.5,0l-0.3,0l-0.3,0.2l0,0.3l0,0.3l-0.1,0.2l-0.1,0.2l0,0.1l0,0.1l0.3,0.5l0.5,0.5l0.4,0.4l0.4,0.3l0.4,0.3 l0.5,0.4l1.4,0.8l0.9,0.7l0.8,0.3l1,0.3l1,0.3l0.8,0.3l0.6,0.3l0.7,0.3l0.5,0.2l0.7,0.3l0.7,0.1l0.5,0.1l0.5,0.1l0.4,0h0.1 l0.2,0.1l-0.3,0.1l-0.3,0.1l-0.2,0.1l-0.3,0.1l0,0.1l-0.1,0l-0.2,0.1l-0.4,0.2l-0.2,0.2l-0.1,0.4l0.1,0.3l0,0.1l0.4,0.5l0.4,0.4 l0.5,0.5l0.6,0.2l0.2,0.1l0.3,0h0.1l0.1,0.1l-0.1,0.1l0.2,0.1l0.4,0l0,0.1l0,0.2l0.1,0.1l0.2,0.1l0.5,0.3l0.5,0.1l0.3,0l0.4,0.1 l0.8,0.1l0.5,0l0.6,0l0.3,0l0.3,0l0.2,0l0.5-0.1l0.3,0l0.6,0l0.5,0l0.1,0l0.3,0.1l0.2,0l0.1,0l0.1-0.1l0.1,0l0.1,0l0.1,0l0.1,0.1 l0,0.1l0.3,0.2l0.1,0.1l0,0.1l0,0l0.1,0l0.2,0.1l0.4,0.2l0.7,0.2l0.9,0.1l0.7,0l0.3,0l0.1-0.1l0-0.1l0,0l0.1,0l0.1,0l0.2,0 l0.4,0.1l0.5,0l0.4,0.1l0.5,0l0.2,0l0.5,0.1l0.2,0.2l-0.1,0.2l-0.2,0.2l0.1,0.1l0.1,0.2l0.4,0.2l0.3,0.2l0.2,0.2l0.4,0.1l0.3,0.1 l0.5,0.2l0.6,0.2l0.3,0.1l0.4,0.1l0.3,0l0.3,0.1l0.3,0.1l0.5,0l0.3,0l0.9,0.1l0.4,0.1l0.3,0l0.5,0l0.2,0l1,0.2l0.2,0l0.6,0.1 l0.5,0.1l1.1,0.2l0.6,0.1l0.7,0l0.3,0l0.5,0.1l0.7,0.2l0.8,0.2l0.7,0.2l1.6,0.6l-0.6-0.1l-0.3,0.1l-0.8,0l-0.2,0l-1.1-0.1 l-0.5-0.2l-1.1,0.2l-0.7-0.2l-0.5,0l-0.2,0l-0.1-0.1l0-0.1l-0.2-0.1l-0.3,0.1l-0.3,0.2l-0.3,0.1l-0.5,0.1l-0.3-0.2l-0.3-0.1 l-0.2,0.1l0.2,0.3l-0.8,0.2l-0.2,0.1l-0.3-0.2l0.1-0.3l-0.3-0.2l-0.3,0l-0.4,0.4l0,0l-0.3,0.2l-0.4,0l-0.1,0L378,311l-0.2-0.1 l-0.6-0.2l-0.4-0.1l-0.5,0l-0.3-0.1l-0.1,0.2l0.2,0.5l-0.4,0.4l-0.4,0.1l-0.3,0.2l-0.5,0l-0.4-0.3l0-0.3l-0.3,0l-0.3,0l-0.3,0.2 l-0.1,0.3l-0.4,0l-0.5-0.2l-0.2-0.1l-0.2-0.1l-0.3-0.1l-0.4,0l-0.5,0.2l0,0.5l-0.2,0.2l-0.2,0.3l-0.5,0.2l-0.3,0l-0.8,0l-0.5,0.2 l-0.2,0.4l-0.2,0.3l-0.3,0.1l-0.3,0.1l-0.5,0l-0.4,0l-0.7,0.2l0.1,0.4l-0.6,0l-0.4,0.2l0,0.3l-0.4,0.2l-0.1,0.3l-0.4,0.1l-0.3,0.2 l-0.3,0.1l-0.1,0l-0.1,0l-0.1,0l-0.2,0l-0.5,0l-0.1,0l-0.4,0l-0.1,0l-0.1,0l-0.4,0l-0.2,0l-0.2,0l-0.2,0l-0.1,0l-0.1,0l-7.6,0 l-5.3,0l-20.3,0.1l-84.7,0.2l-15.5,0l-40.1-0.1l-0.6,0l-82.8,0.2l-14.1,0l-47.3-0.1h-0.5L2.3,316.5"/>
		</g>
		<g id="94014">
			<path d="M207.2,376.5l-0.2-0.1l-0.1,0l-0.1-0.1l-0.3,0l-0.2,0l-0.1,0l-0.4,0l-0.1,0l-0.1,0 l-0.1,0l-0.1,0l-0.1,0l-0.1,0l-0.1,0l-0.1,0l-0.1,0h-0.1l-0.2,0l-0.1,0l-0.1,0l-0.1,0l-0.1,0l-0.1-0.1l0-0.1l-0.1-0.1l-0.1,0 l-0.1,0l-0.1,0l-0.1,0l-0.2,0l-0.1,0l-0.1,0l-0.1,0l-0.1,0l-0.1,0l0,0l0.1,0l0.1,0l0.1,0l0.2,0h0.1l0.1,0h0.2l0.1,0.1l0.1,0.1l0,0 l0.1,0.1l0,0l0.1,0.1l0.1,0l0.1,0l0.1,0l0.2,0l0.1,0l0.7,0l0.2,0l0.1,0l0.1,0l0.1,0l0.1,0l0.2,0h0.2l0.1,0l0.1,0l0.1,0l0.1,0 l0.1-0.1l0.1,0l0.1,0l0.1-0.1l0,0.1l0,0.1l0,0.1l0,0.3l0,0.1l0,0.1l-0.1,0.1l-0.1,0l-0.1,0L207.2,376.5"/>
			<path d="M667.1,375.5l-0.3-0.3l0-0.2l0.3,0l0.6,0l0.1,0.3l-0.4,0.1L667.1,375.5"/>
			<path d="M668.1,374.8l-0.2-0.1l0.4-0.3l0.1,0.1L668.1,374.8"/>
			<path d="M203.6,374.4L203.6,374.4l-0.1-0.1l-0.1,0l-0.1,0l-0.1-0.1l-0.1,0l-0.1-0.1l0-0.1l0,0 l0.1-0.1l0.1,0l0.1,0l0.1,0l0.1,0l0.1,0.1l0.1,0l0.1,0.1l0,0.1l0,0.1l0,0l-0.1,0.1L203.6,374.4L203.6,374.4"/>
			<path d="M63,371.5l-0.1,0l-0.1,0l-0.1,0l-0.1,0l-0.1,0l-0.1,0l-0.2,0l-0.1,0l0.1,0l0.1,0l0.3,0 l0.2-0.1l0.2,0.1l0.1,0l0.1,0l0.2,0l0.1,0.1l-0.1,0L63,371.5L63,371.5"/>
			<path d="M205.6,373.8L205.6,373.8l-0.2,0l-0.8,0l-0.1,0l-0.1-0.1l0.1,0l0.1,0l0.1,0l0.1,0l0.1,0 l0.3,0l0.1,0l0.2,0l0.1,0l0.1,0l0,0l0.1,0l0.1-0.1l0-0.1l0-0.1l0,0l0.1-0.1l0,0.1l0.1,0.1l0,0.1l0,0.1l-0.1,0.1l0,0.1l-0.1,0.1 l-0.1,0l-0.1,0l0,0l-0.1,0L205.6,373.8"/>
			<path d="M62,371.1l-0.1,0l-0.1,0l-0.1,0l-0.1,0l0.1,0l0.1,0l0.2,0l0-0.1l-0.1,0l-0.1,0l-0.2,0 l-0.1,0l-0.1,0l0-0.1l-0.1,0l-0.1,0l0,0l0.1,0l0.5,0l0.1,0h0.1l0.1,0l0.1,0l0.1,0l0.1,0l0.1,0l0.1,0l0.2,0l0.1,0l0.1,0l0.1,0 l0.2,0l0.2,0l0,0.1l-0.1,0l-0.1,0l-0.1,0l-0.2,0l-0.1,0l-0.1,0l-0.1,0l-0.2,0l-0.1,0l-0.1,0L62,371.1"/>
			<path d="M198.1,373l-0.1,0l0-0.1l0,0l0-0.1l0.1-0.1l0-0.1l0.1,0l0.2,0l0.1,0l0.1,0l0.1,0 l-0.1,0.1l-0.1,0l-0.1,0l-0.1,0.1l-0.1,0L198.1,373"/>
			<path d="M60,370.6l-0.2,0l-0.1,0l-0.1-0.1l0,0l0.1,0l0.1,0l0.1,0h0.1l0.1,0.1l0,0.1L60,370.6"/>
			<path d="M198.3,372.6l-0.1,0l-0.1,0l-0.2,0l-0.1,0l-0.1,0l0-0.1l0.1,0l0.1,0l0.1,0l0.1,0l0.1,0 l0.1,0h0.1l0.1,0.1L198.3,372.6L198.3,372.6"/>
			<path d="M70.5,370.4L70.5,370.4l0-0.1l0.1,0l0.1,0l0,0.1L70.5,370.4"/>
			<path d="M70.1,370.4L70.1,370.4l-0.2,0l-0.1-0.1l0-0.1l0,0l0.1,0l0.1,0l0.1,0l0,0.1l0,0 L70.1,370.4"/>
			<path d="M199.3,372.4l-0.1,0l-0.3,0l-0.1,0l-0.1-0.1l0.1-0.1l0.1,0l0.2,0l0.1,0l0.1,0l0.1,0h0.1 l0.2,0l0.1,0l0,0.1l0,0.1l0,0l-0.1,0l-0.1,0L199.3,372.4"/>
			<path d="M198.2,372.1L198.2,372.1L198,372l0-0.1h0.1l0.1,0l0.1,0l0.1,0l0,0.1l-0.1,0 L198.2,372.1"/>
			<path d="M73.5,370.4L73.5,370.4l-0.2,0l-0.1,0l-0.1,0l-0.1,0l-0.1,0l-0.1,0l0-0.1l0.1,0l0.1,0 l0.1,0l0.3,0l0.1,0l0.6,0l0.5,0l0.1,0l0,0l-0.1,0l-0.1,0.1l-0.1,0l-0.1,0h-0.2l-0.1,0h-0.1l-0.1,0l-0.1,0l-0.1,0l-0.1,0 L73.5,370.4"/>
			<path d="M210.5,372.2L210.5,372.2l-0.3,0l0-0.1l0.1-0.1l0.1,0l0.1,0l0.1,0l0,0.1l0,0.1 L210.5,372.2"/>
			<path d="M192.3,371.9l-0.1,0l-0.1,0l-0.1,0l-0.1,0l-0.1,0l0.1,0l0.1,0l0.4,0l0.1,0l0.1,0 l-0.1,0.1L192.3,371.9L192.3,371.9"/>
			<path d="M197.3,371.9L197.3,371.9l0.1-0.1h0.1l0.1,0l-0.1,0l0.2,0l0.1,0l0,0l-0.1,0l-0.1,0 l-0.1,0l-0.3,0l-0.1,0l-0.1,0l-0.1,0l-0.1,0l0.1,0L197.3,371.9"/>
			<path d="M59.3,369.6l-0.2-0.1h-0.3l-0.2-0.1l0.1-0.1l0.1,0l0.1,0l0.1,0l0.1,0l0.1,0l0.1,0 l0.1,0.1L59.3,369.6L59.3,369.6"/>
			<path d="M26.7,369.2L26.7,369.2l-0.2,0l0,0l0.1-0.1l0-0.1l0,0l0.1-0.1l0.2-0.1H27l0.1,0l0.1-0.1 l0-0.1l0.1,0h0.1l0.3,0l0.1,0l0.1,0l0,0.1h-0.1l-0.1,0l-0.1,0l-0.1,0l-0.1,0.1l0.1,0l0.1,0l0.1,0.1l-0.1,0l-0.1,0l-0.1,0l-0.1,0 l-0.1,0l-0.2,0l-0.1,0l-0.1,0l-0.1,0L26.7,369.2L26.7,369.2"/>
			<path d="M58.9,369.9H59l0.1,0l0.2,0l0.1,0l0.1,0l0.1,0l0.1,0l0.1,0l0.2,0l0.1,0l0.1,0l0.1,0 l0.1,0l0-0.1l0-0.1l-0.1,0l-0.1,0l-0.1,0l0.1,0l0.1,0l0.1,0l0.1,0l0.1-0.1l0.1-0.1l0.3,0l0.1,0l0,0.1l0,0.2l0,0.1l0.1,0l0.1,0 l0,0.1l0.1,0.1l0.1,0h0.4l0.1,0l0.1,0l0.2,0l0.2,0l0.1,0l0.1,0l0.1,0h0.1l0.2,0l0.1,0l0.1,0l0.1,0l0.1,0l0.1,0.1l-0.1,0l-0.1,0 l0,0.1l-0.1,0.1l-0.1,0l-0.1,0l0,0l-0.1,0.1l-0.1,0.1l-0.1,0l-0.1,0l-0.1,0l-0.1,0l-0.1,0l-0.1,0l-0.2,0l-0.1,0l-0.2,0l-0.2,0 l-0.1,0l-0.2,0l-0.1,0l-0.1,0l-0.1,0l-0.1,0l-0.1,0l-0.1,0l-0.1,0l-0.2,0l-0.2,0l-0.2,0l-0.1,0l-0.1,0l-0.2,0l-0.1,0l-0.1,0 l-0.2,0l-0.4,0l-0.1,0l-0.2,0l-0.1,0L58.9,369.9"/>
			<path d="M200.7,376.6l0.1,0.1l0,0.1l-0.4,0l-0.2-0.1l-0.9-0.1l-0.2,0l-0.1,0l-0.2,0l-0.2,0 l-0.1,0l-0.4-0.2l-0.1,0l-0.3-0.1l-0.2-0.1l-0.4-0.1l-0.1,0l-0.1,0l-0.1,0l-0.1,0l-0.2,0l-0.1,0l-0.2-0.1l-0.1,0l-0.1-0.1 l-0.2-0.1l-0.2-0.1l-0.1-0.1l-0.1,0h-0.2l-0.1,0l-0.3-0.1l-0.1,0l-0.2,0l-0.1,0l-0.1,0l-0.1-0.1l-0.1,0l-0.1,0l-0.3-0.1l-0.9,0 l-0.3,0.2l-0.1,0.1l0,0.2l0,0l0,0.2l0,0.1l-0.1,0.2l-0.3,0l-0.1,0l-0.3,0l-0.1-0.1l0,0l0-0.1l0.1,0l0.1,0l0.1,0.1l0.1,0l0.1,0 l0.1,0l0,0l0-0.2l0-0.1l0-0.1l0-0.1l-0.1,0l-0.1,0l-0.1,0l-0.2,0.1l0.1,0l0.1,0l0,0.1l-0.1,0l-0.1,0l-0.1,0l-0.2,0l-0.1,0 l-0.2,0.1l-0.1,0l-0.1,0h-0.2l-0.1,0l-0.1,0l-0.1,0l-0.2,0.1l-0.1,0l-0.3,0l-0.3,0l0.1,0.1l0.1,0l0.1,0.1l0.1,0.1l0,0.1l0,0.2l0,0 l0,0l-0.1,0.1l-0.1,0l-0.2,0.5l-0.1,0.2l-0.1,0l-0.1,0l-0.1,0.1l-0.1,0l-0.1,0l-0.2,0l-0.1,0l-0.3-0.1l-0.1,0l-0.1,0l-0.1,0 l-0.1-0.1l-0.1-0.1l-0.1-0.3l-0.1-0.1l-0.1-0.1l0,0l-0.7-0.2l-0.5-0.1l-0.6-0.1l-0.2-0.1l-0.1-0.1l-0.1,0l-0.3,0.1l-0.2,0.1 l-0.1,0l-0.1,0l-0.2,0l-0.2,0l-0.2,0l-0.2-0.1l-0.4-0.3l-0.1,0l-0.1,0l-0.1-0.1l-0.2-0.1l-0.1,0l-0.1,0l-0.2-0.1l-0.2-0.1l-0.3,0 l-0.2,0l-0.2-0.1l-0.1,0l-0.4,0l-0.2-0.3l-0.2-0.1l-0.2,0l-0.2-0.1l-0.1-0.1l0-0.1l0,0l0.1-0.5l0-0.3l-0.1-0.3l0,0l0-0.4l-0.1-0.1 l-0.1-0.1l-0.1-0.9l0-0.1l-0.1-0.3l-0.1-0.2l-0.1-0.2l0-0.1l0,0l0.1,0l0.1,0l0.3,0l0.1,0l0.1,0l0.2,0l0.1,0l0.1,0l0.1,0l0.2,0 l0.1,0l0.2,0.1l0.2,0l0.2,0.1l0,0l0,0.1l0.1,0.1l0.3,0l0.1,0.1h0.1l0.2-0.1l0,0l0.1-0.1l0.1,0l1.4-0.3l0.2,0l0.1,0l0.1,0l0,0.1 l0.1,0.2l0.1,0l0,0.2l0.1,0.2l0.1-0.1l0-0.1l0-0.1l0,0l0-0.1l0-0.1l0-0.1l0-0.1l0,0l-0.1-0.3l0-0.2l0.2-0.1l0.1,0l0.5,0.2l0.6-0.1 l0.3,0.1l0.1,0l0.1,0l0.2,0.1l0.2,0l0.1,0l0.1,0l0.1,0l0.1,0l0.2,0.1l0.1,0l0.2,0l0.4,0l0.1,0l0.1,0l0.3,0l0.2,0.1l0.6,0.2 l0.6,0.3l0.1,0l0.1,0l0.1,0.1l0,0.1l0.1,0l0.2,0l0.2,0l0.1,0l0.1,0l0.1,0l0.5-0.1l0.1,0l-0.1-0.1l0.2-0.1l0.1,0l0.5-0.1l0.1-0.1 l0.5-0.1l0.1,0l0.4,0l0.3,0l0.1,0l0.1-0.1l0.1,0l0.1,0l0.2-0.1l0-0.1l0.1-0.1l0.1,0l0.1,0l0.1,0l0.1,0l0.1,0l0,0.2l0.1,0.1 l0.2,0.2l0,0.1l0.1,0l0.3,0l0.1,0.1l0.1,0h0.3l0.4,0l0.1,0l0.3,0l0.1,0.1l-0.2,0.1h-0.1l-0.1,0l-0.1,0.1l0,0l0.1,0l0.1,0l0.1,0 l0,0.1l0.1,0.1l0,0.1l0.1,0.1l0.6,0l0.1,0.2l0,0.3l-0.1,0.2l0,0.1l-0.2,0.1l-0.2,0.1l0,0.2l0.4,0l0.2,0l0.1-0.1l0.5-0.2l0.4-0.1 l0.1,0l0.1-0.1l0.3,0l0.1,0l0.2,0l0.1,0l0.1,0.1l0,0l0,0.3l0.1,0l0.1,0.1l0.1,0l0.2,0l0.1,0.1l0.1,0l0.1,0.2l0.1,0.1l0,0l0.1,0.1 l0.1,0.1l0.1,0l0.1,0l0.1,0l0.1,0.1l0,0.1l-0.2,0.2l-0.2,0l-0.2,0l-0.1,0l-0.9,0l-0.1,0l-0.1,0l-0.1-0.1l0,0l-0.1-0.1l-0.1,0 l-0.4,0.1l-0.1,0.1l-0.1,0.1l0.1,0l0.3,0.1l0.1,0.1l0.1,0l0.1,0l0,0l0.1,0.1l0.1,0l0.1,0.1l0,0.2l-0.1,0l-0.3,0.1l-0.1,0l-0.1,0 l-0.1,0l-0.4-0.1l-0.1-0.1l0-0.1l0-0.1l-0.1-0.1l-0.1,0l-0.2-0.1l-0.1-0.1l-0.1,0l0.1-0.2l0-0.1l-0.1,0l-0.1-0.2l0,0l0,0l-0.1-0.1 l-0.1,0l-0.4,0l-0.3,0l-0.1,0l-0.1,0.1L197,375l0,0.2l0.3,0.1l0,0l0,0.1l0,0.1h0.2l0.1,0l0.1,0l0.2,0.1l-0.2,0.1l-0.1,0l0,0.2 l0.1,0l0.1,0l0.1,0l0.1,0l0,0l0.2,0.1l0,0l0.1,0l0.1,0.1l0.1,0.1l0.1,0l0.2,0l0.1,0l0.1-0.1l0.1,0l0.2,0l0.1,0l0.1,0l0.2-0.1 l0.1,0l0.1-0.1l0.1,0l0.1,0l0.3,0.5L200.7,376.6"/>
			<path d="M22.3,369.4L22.3,369.4l-0.2,0l-0.1,0l-0.1,0l-0.1,0l0,0l0,0l0-0.1l0,0l-0.1,0l0,0l0,0 l0-0.1l0-0.1l0-0.1l0.1,0l0-0.1l0-0.1l-0.1,0l0-0.1l0.1,0l0.1,0H22l0.1-0.1l0,0l0-0.1l0.1,0l0.1,0l0,0l0.1,0.1h0.3l0.2,0l0.1,0 l0.1,0l0.1,0.1l-0.1,0l-0.1,0l-0.1,0l-0.1,0.1l0,0.1l0.1,0.1l0.1,0l0.1,0l0.1,0l0.2,0l0.1,0l0.1,0l0.1,0l0.1,0l0.1,0l0,0.1l-0.1,0 l0,0.1l0.1,0l0,0.1l-0.1,0.1l-0.1,0l-0.1,0l-0.1,0l-0.1,0l-0.1,0.1l0,0.1l-0.1,0l-0.1,0l-0.1-0.1l-0.1,0l-0.1,0l0,0.1l-0.1,0 L22.3,369.4L22.3,369.4"/>
			<path d="M61.2,368.8l-0.1,0l-0.1-0.1l0-0.1l0,0l-0.1,0l0-0.1l0.1-0.1l0.2,0l0.1,0l0.1,0l0.1,0 l0.1,0l0-0.1l0.1,0l0.1,0l0.1,0.1l0.1,0l-0.1,0.1l-0.1,0.1l-0.1,0.1l-0.1,0.1l-0.1,0l-0.2,0L61.2,368.8"/>
			<path d="M740.5,369.7l-0.2-0.1l0.1-0.2l0.2,0.1L740.5,369.7"/>
			<path d="M63.8,368.5h-0.3l-0.2,0l-0.1,0l-0.3,0l-0.1,0l-0.1-0.1l0,0l-0.1-0.1l0-0.1l0.1,0l0.1,0 l0.1,0l0.1,0l0.1,0l0.2,0l0.1,0l0.1,0l0.2,0l0.2,0l0.1,0l0.1,0l0.2,0l0.1,0l0,0.1l0,0.1l0.1,0.1l0,0l-0.1,0.1l-0.1,0l-0.2,0 L63.8,368.5"/>
			<path d="M658.2,370.6l-0.4,0l-0.2-0.1l0.2-0.1l0.4-0.2l0.2,0.1l0.6-0.1l-0.1,0.4L658.2,370.6"/>
			<path d="M192.7,371.7L192.7,371.7l-0.2,0l-0.4,0l-0.1,0l-0.1,0l-0.1,0l-0.1,0l0-0.1l0-0.1l0-0.1 l0-0.1h-0.1l-0.1,0l-0.1,0l-0.1,0l-0.2,0l-0.1,0l-0.1,0l-0.1,0l-0.1,0l-0.1,0l-0.1-0.1l-0.1-0.1l-0.1,0l0-0.1l0-0.1l0-0.1l0-0.1 l0-0.2l0,0l0-0.1l0-0.1l0-0.1l0-0.1l0.1,0l0.1,0l0.1-0.1l0.1-0.1l0.1,0l0-0.1l0.2,0l0.1,0l0.1,0l0.1,0l0.1,0l0.2,0l0.1,0l0.1,0.1 l0.1,0l0.1,0l0.1,0l0.2,0l0.1,0l0.1,0l0.1,0l0.2,0l0.1,0l0.2,0l0.1,0l0.1,0l0.1,0l0.2,0l0.1-0.1l0.2,0l0.2,0l0.1,0l0.1,0l0.1,0 l0.1,0l0.1,0l0.1,0l0.1,0l0.1,0l0.1,0l0.2,0l0.1,0.1l-0.1,0l-0.1,0.1l0.1,0.1l0.2,0l0.1,0l0.2,0.1l0.1,0l0,0.1l-0.1,0l-0.1,0 l-0.1,0l-0.1,0l0.1,0l0.1,0l0.1,0.1l0,0.1l-0.1,0l-0.1,0l-0.1,0l-0.1-0.1h-0.3l-0.1,0l-0.1,0l-0.2,0.1l-0.1,0l-0.1,0l-0.1,0 l-0.1,0l-0.1,0l-0.1,0l0,0l0,0.1l-0.1,0l-0.1,0l-0.1,0l-0.2,0l-0.1,0L192.7,371.7L192.7,371.7"/>
			<path d="M212.4,370.9L212.4,370.9l-0.2-0.1l-0.1,0l-0.4,0l-0.2,0l-0.1,0l-0.1,0l-0.1,0l-0.1,0 l-0.1,0l-0.2,0l-0.1,0l-0.1,0l-0.1-0.1l-0.1-0.1l0,0l-0.1,0l-0.1-0.1l0-0.1l0.1-0.1l0.3,0l0.1,0l0.1,0l0.1,0l0.1,0l0.1,0l0.1,0 l0.1,0l0.1,0l0.1,0l0.1,0l0.1,0l0.1,0l0.1,0l0.1,0l0.1,0l0.2,0.1l0.1,0l0.1,0l0.1,0l0.1,0l0.1,0l0.1,0l0.1,0l-0.1,0.1L212.4,370.9 "/>
			<path d="M192.1,369.9l-0.1,0l-0.1-0.1l0-0.1l0,0l0.1,0l0.1,0L192.1,369.9L192.1,369.9"/>
			<path d="M74.8,368.3l-0.1,0l-0.2,0l-0.3,0l-0.1-0.1l0.1-0.1l0.1,0l0.1,0l0.1,0l-0.1,0l0-0.1 l0.2,0l0.1,0l0.1,0l0.2,0l0,0.1l-0.1,0l-0.1,0l-0.1,0l-0.1,0l0,0.1L74.8,368.3"/>
			<path d="M741.9,369.5l-0.3,0l-0.2-0.3l0.3-0.2l0.3-0.1l0.2,0l0,0.2l-0.2,0.3L741.9,369.5"/>
			<path d="M185.6,370.7L185.6,370.7l-0.2,0l-0.1,0l-0.1,0l-0.1,0l-0.1-0.1l-0.1,0l-0.1,0l-0.1-0.1 l0-0.1l0-0.1l0.1,0l0.1-0.1l0.1,0l0.1,0l0.1-0.1l0,0l0-0.1l0-0.1l0.1-0.1l0.1,0l0.1,0l0.1-0.1l0.1-0.1l0.1,0l0.1,0l0.1,0.1l0.1,0 l0.1,0l0.1,0l0.1,0l0.1,0h0.1l0.1,0l0.2,0l0.1,0l0.1,0l0.1,0.1l0.1,0l0.1,0.1l0,0.1l-0.3,0l-0.4,0l-0.1,0l-0.1,0l0,0.1l0,0.1 l0.1,0l0.1,0l0.1,0l0,0.1l0,0l0,0.1l-0.1,0l-0.1,0l-0.1,0l-0.1,0l-0.1,0l-0.1,0h-0.1l-0.2,0l-0.1,0l-0.1,0l-0.1,0l-0.1,0.1l-0.1,0 L185.6,370.7L185.6,370.7"/>
			<path d="M72.4,367.5l-0.1,0l0,0l-0.1-0.1l-0.1,0l0.1,0l0.1-0.1l0.1,0l0.1,0l0.1,0.1L72.4,367.5"/>
			<path d="M689.1,369.2L689,369l0.6-0.1l0,0.2L689.1,369.2"/>
			<path d="M743,368.4l-0.2,0l-0.6-0.1l0.1-0.3l0.6,0l0.3-0.3l0.2,0.1l-0.2,0.3L743,368.4"/>
			<path d="M682.7,369.2l-0.2-0.3l0.2-0.3l0.6,0l-0.1,0.2l-0.4,0.2L682.7,369.2"/>
			<path d="M743.7,365.5l-0.4-0.1l-0.2-0.3l0.3-0.3l0-0.3l0-0.3l0.3-0.1l0.5,0l0.5-0.1l0.3-0.2 l0.1,0.1l-0.1,0.4l-0.2,0.3l0.2,0.3l-0.3,0.1l-0.4,0.1l-0.3,0.3L743.7,365.5"/>
			<path d="M705.7,365l-0.6-0.2l-0.4-0.3l0.3-0.2l0.5-0.1l0.5,0.2l-0.2,0.3L705.7,365"/>
			<path d="M714.7,364.3l-0.6-0.1l0-0.4l0.1,0.1l0.5,0.1L714.7,364.3"/>
			<path d="M710.9,363.8l-0.3-0.3l0-0.2l0.4,0.1l0.2,0.2L710.9,363.8"/>
			<path d="M716.3,363.2l-0.3-0.1l-0.4-0.2l0.5,0L716.3,363.2"/>
			<path d="M715.7,363.5l-0.1,0l-0.5-0.1l-0.4-0.1l-0.1-0.2l0.1-0.2l0.5,0.1l0.5,0.1l0.4,0.3 L715.7,363.5"/>
			<path d="M639.5,362.4l0-0.3l0.4-0.3l0.1-0.3l0.2-0.2h0.3l0.1,0.3l0.1,0.2l0,0.3l-0.5,0.1 l-0.5,0.1L639.5,362.4"/>
			<path d="M764.9,357.6l-0.2-0.1l-0.4-0.2l0-0.1l-0.3,0l0.2-0.3l0.3,0l0.5-0.1l0.1,0.3l0.1,0.3 L764.9,357.6"/>
			<path d="M793.3,355.7l-0.5-0.1l-0.1-0.1l0.1,0L793.3,355.7L793.3,355.7"/>
			<path d="M672.9,357.9l-0.5-0.1l-0.2-0.3l0.3-0.3l0.5-0.1l0.2,0.3l-0.1,0.3L672.9,357.9"/>
			<path d="M796.5,355.1l0-0.3l0.3-0.2l0.6,0.1l-0.2,0.3L796.5,355.1"/>
			<path d="M796,354.6l-0.3-0.2l0.2-0.3l0.4-0.2l0.3,0.2l-0.2,0.3L796,354.6"/>
			<path d="M801.2,343l-0.3-0.2l0-0.2l0.4-0.1l0.4,0.1l-0.1,0.3L801.2,343"/>
			<path d="M733.1,346.7l0.2-0.3l0.1-0.3l0-0.2l0-0.3l-0.1-0.2l-0.1-0.2l0.5-0.1l0.4-0.1l0.5,0.1 l0.6,0.1l0.5,0.1l0.5,0.2l0.2,0.3l0.4,0.3l0.4,0.1l0.3,0l0.6,0l0.5,0.1l0.6,0l0.5,0l0.4,0.2l0,0.2l0.3,0.2l0.2,0.2l0.3,0.3 l0.4,0.2l0.5,0.2l0.5,0.2l0.4,0.3l0.2,0.2l0.3-0.1l0.5,0.2l0,0.2l-0.1,0.2l-0.3,0.2l-0.5,0.2l0.2,0.2l0.2,0.3l0.4,0.1l0.4-0.1 l0.4,0l0.5,0.1l0.4,0.3l0.4,0.2l0.4,0l0.3,0.1l0.4,0l0.3-0.1l0.3-0.1l0.3-0.2l0-0.2l-0.1-0.3l-0.1-0.3l-0.1-0.4l-0.2-0.2l-0.1-0.2 l-0.2-0.3l-0.2-0.3l-0.1-0.2l-0.2-0.3l-0.1-0.2l-0.1-0.3l-0.5-0.2l-0.4-0.1l-0.4-0.4l-0.3-0.1l-0.6,0l-0.4,0l-0.4-0.1l-0.1-0.2 l0.6-0.1l0.4-0.1l0.6,0l0.6,0.2l0.3-0.2l0.3-0.2l-0.2-0.2l-0.1-0.3l0-0.3l0.6-0.1l0.4,0.1l0.5,0.1l0.5-0.1l0.3-0.3l0.4-0.2l0.3,0 l0.6,0l0.6,0l0.3,0.2l-0.2,0.2l-0.4,0.3l0,0.3l0,0.1l0.6,0.1l0.3,0l0.5,0.1l0.5,0.1l0.4,0.1l0.2,0.1l0.3,0.1l0.2,0.3l0,0.2l0,0.3 l0.2,0.3l0.1,0.2l0.2,0.3l-0.5,0.2l-0.6,0.1l-0.4,0.1L751,348l0,0.1l0,0.3l-0.2,0.2l-0.5,0.1l-0.4,0.2l0.5,0.2l0.5,0l0.4-0.1 l0.6,0l0.5,0.1l-0.1,0.2l-0.1,0.3l0.4,0.2l0.2-0.2l-0.1-0.3l0.1-0.3l0.4-0.1l0.3-0.1l0.4-0.1l0.5-0.1l0.3,0l0.5,0l0.4,0l0.3-0.2 l0.4-0.3l0.4-0.1l0.3-0.1l0.1-0.2l0-0.2l0-0.3l0-0.3l0.1-0.4l0.1-0.2l0.2-0.3l0.1-0.2l0.1-0.3l0-0.3l0-0.4l0.2-0.1l0.4-0.2l0.6,0 l0.2,0l0.5,0.2l0.4,0.1l0.3,0l0.4,0l0.4,0l0.5,0l0.3,0l0.3,0l0.1,0.5l-0.4,0.5l0,0.2l0.3,0.1l0,0.3l-0.2,0.3l0.6,0l0.2-0.1 l0.5-0.1l0.2,0l0.5,0.1l0.3,0l0.3,0.2l-0.1,0.2l0,0.1l0.1,0.6l0.2,0.2l0.3,0.5l-0.2,0.2l-0.1,0.2l-0.1,0.5l0,0.3l0,0.2l-0.1,0.3 l-0.3,0.3l-0.2,0.3l-1,0.5l-0.3,0.2l0,0.2l0,0.2l1.2-0.1l0.3-0.2l0.9-0.2l0.3-0.3l0.2-0.2l0.2-0.3l0.2-0.3l0-0.3l-0.1-0.4l0.3-0.3 l0.1-0.3l0-0.4l0.2-0.4l0.3-0.3l0.2-0.1l0.4-0.1l0.3-0.4l0.4-0.3l0.5-0.1l0.3-0.1l0.6-0.1l0.5,0.1l0.4,0.1l0.9-0.1l0-0.6l1.4-0.5 l0.5-0.1l0.4-0.2l1.1,0.1l0.7,0.1l0.6,0l0.1,0.1l0.1,0.3l0.8,0.3l0.4-0.1l0-0.2l0.4-0.9l1.1-0.5l0.3-0.1l0.5-0.2l1-0.3l0.2-0.1 l0.6-0.4l0.3-0.1l0.4,0l0.4,0l0.5,0.1l0.2,0.3l0.6-0.1l0.4-0.3l0.6-0.1l0.4-0.1l0.4-0.1l0.6-0.2l0.3-0.1l0.3-0.1l0.4-0.1l0.3,0 l0.3-0.1l0.6-0.1l0.4,0l0.4,0.1l0.3,0l0.6,0l0.4,0.2l0.2,0.3l0,0.2l0.3,0.2l0.1,0.2l0,0.3l-0.4,0.3l1.3,0.4l0.4-0.1l0.4-0.1 l0.9-0.1l0.1,0.6l-0.4,0.2l-0.5,0.3l-0.6,0.2l-0.2,0.3l0.1,0.6l0,0.2l-0.8,0.4l-0.8,0.3l-0.5,0.3l-0.8,0.2l-0.9,0.2l0.1,0.4 l0.7,0.1l0.7,0l1.1,0l0.5-0.1l0.5-0.2l0.5-0.3l0.3-0.2l1.3-0.4l0.4-0.4l0.1-0.3l0.2-0.2l1.3-1.4l-0.2-0.4l0.2-0.2l0.6-0.1l1,0.1 l0.6-0.4l0.2-0.2l0.2-0.4l0.2-0.2l0.8-0.2l0.6-0.2l0.5,0.1l0.6,0.4l0.4,0.6l1.1-0.1l0.4-0.2l0.4,0.2l0,0.4l0,0.4l-0.5,0.2l-0.6,0 l-0.3,0.2l-0.2,0.4l0,0.4l-0.3,0.5l0.3,0.2l0.5,0.1l0.3,0.5l0,0.6l-0.2,0.5l-0.6,0.1l-0.2,0.1l-1.2,0.6l-1.1,0.3l-0.3,0.3 l-0.2,0.6l-0.4,0.6l-0.4,0.2l-0.4,0l-0.7,0.4l-0.4,0.4l-0.8,0.5l-0.3,0.7l-0.5,1.3l-1.7,0.1l-1.3,0.4l-1.3,0.1l-1.1,0l0.2-1.1 l0.4-0.2l-0.1-0.2l-0.4-0.1l-0.6,0.1l-0.3,0.3l-0.4,0.3l-0.5,0.4l-0.5,0.2l-0.5,0l-0.8,0.1l-0.6,0l-1.1,0.2l-0.1,0.2l0.5,0.3 l-0.1,0.4l-0.4,0.3l-0.5,0.3l-1.5,0.3l-0.6,0.4l-2.8,0.8l-0.2,0.3l-0.4,0.3l-0.3,0l-0.4-0.3l0-0.2l0.3-0.5l0-0.6l0.1-0.7l0.3-0.3 l0.3-0.3l-0.6-0.5l-0.5,0.1l-0.5,0.2l-0.9,0.1l-0.4-0.2l-0.2-0.3l0.4-0.7l0.9-0.4l0.1-0.5l-0.2-0.3l-0.6-0.8l0.2-0.3l0.6-0.4 l0.2-0.6l-0.4-0.1l-0.5,0.1l-0.5,0.2l-1,0.3l-1.1,0.3l-0.7,0.5l-0.5,0.4l-0.2,0.4l-0.5,0.5l-0.4,0.3l-1.1,0.4l-1.4,0l-0.8-0.5 l-0.7,0.4l-0.3,0.3l-0.7,0.7l-0.8,0.3l-0.2,0.4l-0.6,0.1l-0.6-0.1l-1.2,0.1l-0.8-0.3l-0.5-0.4l-0.4-0.2l0-0.3l0-0.3l-0.4-0.5 l0.2-0.3l0.2-0.5l0.3-0.3l-0.2-0.2l-0.7,0.1l-0.3,0.3l-0.4,0.4l-0.3,0.2l-1,0.3l-1.1,0.1l-0.3,0.2l0.1,0.2l1.1,0l0.4,0.1l0.2,0.3 l0,0.2l0,0.3l-0.3,0.2l0,1.1l-0.1,0.3l-1.5,0.4l-0.4,0l-0.5,0.2l-1.3,0.6l-0.4,0.5l-0.1,0.3l0,0.2l-0.1,0.2l-0.2,0.2l-1.3,1.1 l-0.1,0.2l-0.6,0.1l-0.5,0l0.2-1l-0.2-0.5l-0.3-0.6l-0.9-0.5l-1.5,1.2l-1.2,0.2l-0.6,0.4l-1,0.1l-0.4-0.1l-0.6-0.4l-0.6-0.1 l-1.5-0.1l-0.4-0.2l-1,0.5l-0.2,0.6l-0.1,0.3l0.3,0.4l-0.1,0.4l-0.6,0.3l-0.4,0l-1.5-0.2l-0.2-0.3l-0.1-0.4l-0.7-0.6l-0.4-0.3 l-0.4,0.1l0,0.3l0.2,0.2l0,0.4l-0.5,0.4l0,0.3l0.2,0.4l-0.1,0.4l-0.4,0l-0.3,0.3l-0.3,0.6l-0.3,0.2l-0.4,0.1l-0.1,0.2l0.2,0.6 l-0.6,0.4l-1,0.1l-0.1-0.7l-0.3-0.6l-0.2-0.2l-0.4-0.7l0.5-0.1l0.4-0.2l-0.1-0.3l-1.2,0l-1.1,0l0.5-0.3l0.3-0.7l-0.2-0.3l-0.3-0.6 l0.2-0.3l0.4-0.5l0.6-0.1l0.2-0.3l-0.1-0.5l-0.2-0.3l-0.3-1l0.3-0.5l0-0.6l-0.5-0.7l0-0.3l0.2-0.6l-0.2-0.6l0.2-0.6l-0.4-0.7 l-0.9,0.5l-0.5,0.1l-0.5,0.7l-0.3,0.2l-0.6,0.2l-0.4,0.1l-0.2,0.3l-1.5,1.4l-0.2,0.2l-0.5,0.2l-0.5-0.1l-0.2-0.3l0-0.4l0.2-0.2 l-0.3-0.5l-0.4-0.3l-1,0.6l-0.4,0.1l-1.1-0.4l-0.3-0.3l-0.4-0.1l-1.3,0l-0.5-0.2l-0.4-0.1l-0.6,0.1l-0.5,0.4l0.1,0.2l0.5,0.1 l0.2,0.6l0,0.2l0.6,0.8l-0.1,0.2l-0.3,0.2l-0.7,0.4l-0.8,0.3l-0.2,0.5l-0.6,0.2l0,0.4l-0.8,0.4l-0.6,0.4l0.1,0.3l-0.4,0.1 l-0.6-0.1l-0.5,0.2l-0.3,0.3l-0.4,0.3l-0.5,0.1l-0.3,0.2l-0.4,0.1l-0.5,0l-0.4,0.1l-0.2,0.3l-0.6,0l-0.4-0.4l-0.8-0.4l-0.5,0 l-0.2,0.3l-0.2,0.4l-1.6-0.1l-0.7-0.2l-0.5,0.1l-0.5-0.2l-0.2-0.3l-0.3-0.2l-0.3,0.2l0,0.4l-0.5,1l0.2,0.3l0.1,0.5l-2.1,0.1 l-0.4,0.2l-0.6,0.1l0.2,0.3l0.6,0.1l0.5,0.1l0.6,0.2l0,0.3l-0.2,0.4l-1.2,0.9l-1.5,1l-0.5,0.3l-1.4,0l-1,0.2l-0.5,0.4l-0.6,0.5 l-0.7,0.1l-0.4-0.3l0.1-0.4l0.1-0.5l-0.2-0.2l-0.3,0.1l-0.3,0.3l-1.7-0.1l-0.9,0.2l-0.4,0.3l-0.8,0.4l-0.5,0.4l-0.6,0l-1.2-0.7 l-0.3-0.6l0.2-0.3l-0.4-0.6l-0.2-0.2l0.2-0.6l0.5-0.2l1.2,0l0.5-0.2l0-0.3l-0.5-0.1l-0.3-0.1l0.2-0.2l0.6-0.1l0.6,0l0-0.6l3.7,0 l0.6,0l0.3-0.2l0.7-0.3l0.4-0.3l-1.1-0.3l-0.6,0l-0.4-0.1l-0.2-0.2l-0.9,0l-1.2-0.2l0.1-0.3l0.3-0.3l0.5-0.2l0.5-0.1l0.2-0.3 l-0.1-0.3l-0.6,0l-0.6,0.1l-0.5,0.2l-0.7,0.8l-0.3,0.7l-0.2,0.4l-1.8,0.1l-0.4,0.1l-0.3,0.3l-2.4,1.3l-0.4,0.2l-1.5,0.6l-0.4,0.1 l-0.4,0.3l-0.1,0.3l-0.2,0.6l-0.2,0.2l-0.5,0.1l-0.2,0.2l0.4,0.5l-0.4,0.5l0,0.4l0.1,0.5l-1.7,0.8l-0.4,0.2l-0.1,0.3l0,0.3 l-1.2,0.1l-1.1-0.2l-1.1,0.2l-0.4,0l0-0.1l-0.4-0.2l-0.9,0.2l-0.7,1l0.1,0.3l-0.1,0.3l-0.4-0.1l-0.7-0.3l-1,0.8l0,0.3l-0.1,0.3 l-0.3,0.2l-0.6,0.1l-0.5,0l-0.6,0l-0.4,0l-1.3,0.5l-0.6-0.2l-0.5-0.2l-0.6,0l-0.5-0.2l-0.2-0.2l-0.3,0.1l-0.6,0.1l-0.6,0l-0.4,0.1 l-0.4,0.2l-0.6,0.1l-1.1,0.7l-1,0.3l-1.5-0.2l-0.9,0l-0.6-0.1l-0.3-0.2l-1.3,0.1l-1.1,0l-0.4,0l-1,0.1l-0.7,0.1l-0.9-0.2l0-0.2 l0.4-0.9l0.6-0.1l0.2-0.1l0.3,0.1l0.5-0.1l0.9-0.2l0.9-0.2l0.3-0.1l1.5-0.3l0.1-0.2l1.9-0.1l0.3-0.2l0.5-0.2l0.1-0.4l0.4-0.4 l0.7,0l0.1-0.6l-0.8-0.3l-0.1-0.3l-0.5-0.4l-0.3,0.1l-0.6,0l0-0.5l0.1-0.5l-0.6-0.1l-0.4,0.1l-1.3-0.3l-0.4-0.7l0.4-0.3l-0.4-0.6 l-0.8-0.2l-0.4-0.3l-0.2-0.4l0.2-0.3l0.2-0.4l0.4-0.2l0.9-0.5l0.8-0.4l0.5-0.2l0.6,0l0.5-0.2l0-0.3l-0.2,0.1l-0.6,0l-1,0.3 l-0.6,0.1l-0.4,0l0.2-0.2l0-0.3l-1.5-0.2l-1.4,0.4l-0.3,0.2l-1.5,0.3l-0.5,0.2l-1.8,0.5l-1.5,0.2l-0.8,0.2l-0.4,0.2l-0.5,0.1 l-0.4-0.2l-1.4,0l-0.2-0.3l0.4-0.3l0.4-0.2l0.2-0.6l0.3-0.5l0-0.6l-0.6-0.1l-0.6-0.5l-1.1,0l0.4-0.6l0.7-0.4l1.3-0.5l0-0.1l0-0.4 l0-0.2l0.2-0.2l0.2-0.2l0.1-0.2l0.2-0.2l0.4-0.2l0.2-0.3l0-0.2l0.1-0.2l0-0.2l0.1-0.2l0.2-0.2l0-0.3l-0.2-0.4l0-0.2l0.3-0.3 l0.5-0.2l0.3-0.1l0.3-0.1l0.3-0.2l0.2-0.2l0.5-0.2l0.3-0.1l0.3-0.2l0.3-0.2l0.3-0.2l0.2-0.1l0.3-0.2l0.4-0.1l0.2,0.2l0,0.3 l0.2,0.3l0.2,0.3l0,0.2l0.3,0.3l0.4,0.2l0.4,0.2l0.5-0.1l0.4-0.1l0.6-0.1l0.4,0.1l0.5-0.2l0.3-0.2l0.2-0.1l0.5-0.2l0.4-0.2l0-0.3 l-0.1-0.3l-0.1-0.3l-0.5-0.2l-0.3-0.1l-0.5-0.3l-0.5-0.1l-0.2-0.1l-0.2-0.3l-0.2-0.2l-0.3-0.2l-0.4,0l-0.3-0.1l-0.3-0.1l0.2-0.2 l0.5,0l0.5-0.2l0.3,0l0.5-0.1l0.4,0.2l0.4,0.1l0.3,0l0.5,0l0.5,0.1l0.4,0l0.6-0.1l0.2,0l0.5,0.1l0.3,0l0.4,0l0.4-0.1l0.2-0.3 l0.2-0.3l0.6-0.1l0.2,0l0.6,0l0.4,0.2l0.3,0.1l0,0.3l-0.1,0.3l0.4,0.1l0,0.3l0,0.2l0,0.2l0.1,0.2l0,0.2l-0.1,0.3l0.1,0.3l0.2,0.2 l0.5,0.2l0.5,0.1l0.5,0.1l0.3,0.1l0.2,0.2l0.1,0.3l0.4,0.2l0.6,0l0.6,0l0.6,0l0.4,0.1l0,0.2l0.3,0.2l0.5,0.2l0.2,0.2l0.2,0 l0.2,0.2l0.2,0.2l0.3,0.2l0.4,0.3l0.1,0.2l0.1,0.2l0.3,0.2l0.3,0.1l0.6,0.1l0.4-0.1l0.4,0l0.3-0.2l0.3-0.1l0.4-0.2l0.4-0.2 l0.4-0.2l0.2-0.1l0.3-0.2l0.2-0.2l0.2-0.2l0.3-0.2l0.2-0.2l0.1-0.2l0.1-0.2l0.1-0.3l0.2-0.2l0.3-0.3l0.2-0.1l0.4-0.2l0.3-0.2 l0.3-0.1l0.5-0.1l0.4,0l0.6,0l0.3,0l0.4,0l0.3,0.1l0.4,0.3l0.2,0.2l0,0.3l0.3,0.3l0.4-0.2l0.2-0.2l0.6-0.2l0.3-0.1l0.5-0.1 l0.6-0.1l0.1-0.2l-0.6,0l-0.5,0l0-0.3l0.5-0.1l0.3-0.2l0-0.2l-0.2-0.3l-0.6-0.1l-0.6,0l-0.2-0.1l0.2-0.2l0.3-0.2l0.3-0.3l0-0.3 l0-0.2l0-0.2l0-0.2l0-0.2l0-0.2l-0.2-0.2l0-0.2l-0.4-0.3l-0.6,0l-0.5-0.1l-0.5,0l-0.6,0l-0.5,0l-0.3,0l-0.1-0.2l-0.1-0.4l0.1-0.3 l0-0.3l0-0.2l0-0.4l-0.1-0.6l0.1-0.4l0-0.2l0-0.2l0-0.2l0-0.3l-0.1-0.2L679,347l0-0.5l0-0.3l-0.2-0.4l-0.2-0.1l-0.2-0.3l-0.3-0.3 l-0.1-0.3l0-0.3l0.1-0.2l0.1-0.2l0.1-0.3l0-0.3l1.1,0.1l0.6,0l0.4,0.1l0.6,0.3l0.4,0.3l0.2,0.2l0.1,0.2l0.4,0.3l0,0.3l0.1,0.2 l0.2,0.2l0.3,0.3l0.4,0.2l0.4,0.3l0.2,0.2l0.2,0.3l0.4,0l0.2,0.1l0.2,0.2l0.5,0.3l0.5,0.1l0.5,0.1l0.4,0.2l0.6,0.2l0.2,0.3 l0.3,0.3l0.3,0.2l0.2,0.2l0.3,0.1l0.6,0.3l0.5,0.1l0.3,0.1l0.6,0.1l0.5,0.1l0.4,0l0.4,0l0.6,0l0.5,0l0.7-0.1l0.5,0l0.3-0.1 l0.5-0.1l0.8,0l0.4,0l0.4,0l0.4-0.1l0.5-0.1l0.6-0.1l0.3,0.1l-0.2,0.2l-0.2,0.3l0.2,0.2l0.4,0.2l0.5,0l0.6,0.1l0.2,0.2l0.2,0.2 l0.3,0.2l0.6,0.2l0.4,0.2l0.3,0.1l0,0.2l0.2,0.2l0,0.3l-0.2,0.2l0.3,0.2l0.4,0.1l0.2-0.2l0.2-0.2l0-0.4l-0.1-0.3l0-0.2l-0.3-0.2 l-0.1-0.2l0.1-0.2l0.2-0.2l0.3-0.3l0.1-0.2l0-0.3l-0.3-0.1l-0.3-0.2l-0.4-0.3l-0.3-0.2l-0.3-0.3l-0.3-0.3l-0.5,0l-0.4-0.2l0-0.2 l0.3-0.1l0.3-0.1l0.3-0.1l0.3-0.1l0.4-0.1l0.4-0.1l0.5-0.1l0.5,0l0.3-0.1l0.6,0l0.3-0.1l0.6-0.1l0.3,0.1l0.2,0.2l0.3,0.2l0.1,0.2 l-0.2,0.3l-0.4,0.2L705,349l0,0.3l0.2,0.2l0.4,0.1l0.3,0.3l-0.2,0.3l0.1,0.2l-0.1,0.2l0.1,0.3l0,0.3l-0.1,0.2l-0.3,0.3l-0.2,0.2 l-0.3,0.3l-0.3,0.2l0,0.3l0.1,0.2l0.5,0.1l0.6-0.1l0.3-0.1l0.5-0.2l0.6,0l0.6,0.1l0.3,0.2l0.1,0.2l0.3,0.1l0.3,0.3l0.2,0.3 l0.1,0.3l0.1,0.3l-0.1,0.3l0,0.2l-0.2,0.2l-0.3,0.2l-0.2,0.3l0.1,0.3l0.1,0.3l-0.1,0.3l-0.1,0.3l-0.2,0.3l-0.1,0.2l0.6,0l0.2,0 l0.3-0.2l0.4-0.1l0.4,0l0.2-0.3l0-0.2l0-0.2l0.1-0.4l-0.1-0.3l0-0.2l0.1-0.3l0.3-0.3l0-0.3l0-0.3l0.1-0.3l0.1-0.3l-0.4-0.2 l-0.3-0.3l-0.1-0.3l0.1-0.3l0.1-0.3l0.1-0.2l-0.3-0.3l-0.3-0.3l-0.1-0.2l-0.3-0.3l-0.3-0.2l-0.3-0.3l-0.2-0.3l0-0.2l0-0.3 l-0.3-0.3l-0.3-0.3l0-0.3l0.2-0.3l0.2-0.3l0.6-0.1l0.5-0.2l0.4-0.1l0.3-0.1l0.5-0.1l0.6-0.1l0.8-0.5l0.4-0.3l0.2-0.3l0.2-0.2 l0.2-0.3l0-0.2l-0.2-0.3l0-0.3l0-0.2l0.1-0.3l0-0.3l0-0.2l-0.1-0.2l0.1-0.3l0.1-0.2l-0.2-0.3l0.1-0.2l0.2-0.3l0.6-0.1l0.6,0.1 l-0.1,0.3l0,0.4l-0.1,0.2l0.1,0.3l0.1,0.3l0.1,0.3l0.1,0.2l0.2,0.2l0.4,0.3l0.4,0.2l0.4,0.2l0.6,0.1l0.6,0.1l0.6,0.1l0.5,0l0.3,0 l0.4,0l0.5,0l0.4,0l0.5,0l0.5-0.1l0.5,0l0.6,0l0.5-0.1l0.5-0.2l0.3-0.3l0.4-0.2l0.4-0.2l0.5,0l0,0.3l0.1,0.3l0.4,0.3l0.5,0.1 l0.3,0.1l0.5,0l0.5-0.1l0.6,0l0,0.3l-0.1,0.3l0.2,0.3l0.2,0.1l0.4,0.1l0.5,0.1l0.5,0.2l0.4,0.2l0.4,0.3l0.5-0.1l0.5-0.2l0.4-0.1 l0.4-0.1l0.5,0l0.4,0l0.5,0L733.1,346.7"/>
			<path d="M713.7,341.4l-0.3-0.2l0-0.3l0-0.3l0.3-0.1l0.3,0.2l0,0.2l0,0.3L713.7,341.4"/>
			<path d="M730.9,340.4l-0.2,0l-0.4-0.1l-0.5-0.1l-0.3-0.2l0.3-0.3l0-0.4l0.4-0.2l0.3-0.2l0.4-0.3 l0.3,0.1l0,0.3l0.2,0.2l0.3,0.2l-0.1,0.4l-0.3,0.2L730.9,340.4"/>
			<path d="M727.9,339.4l-0.5-0.1l-0.1-0.3l-0.1-0.3l0.1-0.2l0.2-0.1l0.4-0.2l0.6,0l0.4,0.1 l0.2,0.3l-0.3,0.2l-0.2,0.3l-0.1,0.2L727.9,339.4"/>
			<path d="M727.5,337.7l-0.4,0l-0.2-0.2l-0.1-0.2l-0.4-0.1l-0.5-0.2l-0.1-0.2l-0.2-0.2l-0.2-0.2 l0.2-0.3l0.2-0.2l0.2-0.3l0-0.2l0.2-0.1l0.6-0.1l0.5-0.1l0.2,0l0.6,0.1l0.5,0.1l0.4,0.2l0.3,0.3l-0.2,0.3l-0.3,0.2l-0.4,0.2 l-0.1,0.2l-0.1,0.3l-0.1,0.4L727.5,337.7"/>
			<path d="M747.7,334l-0.5-0.1l-0.6-0.1l-0.4-0.1l-0.4-0.2l-0.2-0.3l-0.3-0.2l-0.3-0.2l0-0.2 l-0.2-0.2l-0.2-0.3l0-0.3l-0.2,0l-0.3-0.2l0.4-0.2l0.2-0.1l0.5,0l0.6,0l0.6-0.2l0.3-0.1l0.3-0.2l0.2,0l0.5-0.1l0.4,0l0.5,0 l0.5,0.1l0.5,0.2l0.5,0.1l0,0.3l0.4,0.1l0.5,0.1l0.3,0.3l-0.3,0.3l-0.3,0.1l-0.6,0l-0.4,0.3l0.1,0.3l-0.1,0.3l-0.3,0.3l-0.2,0.2 l-0.5,0.2l-0.3,0.1L747.7,334"/>
			<path d="M2.3,316.5l38.8,0.2h0.5l47.3,0.1l14.1,0l82.8-0.2l0.6,0l40.1,0.1l15.5,0l84.7-0.2 l20.3-0.1l5.3,0l7.6,0l0.1,0l0.1,0l0.2,0l0.2,0l0.2,0l0.4,0l0.1,0l0.1,0l0.4,0l0.1,0l0.5,0l0.2,0l0.1,0l0.1,0l0.1,0l0.3-0.1 l0.3-0.2l0.4-0.1l0.1-0.3l0.4-0.2l0-0.3l0.4-0.2l0.6,0l-0.1-0.4l0.7-0.2l0.4,0l0.5,0l0.3-0.1l0.3-0.1l0.2-0.3l0.2-0.4l0.5-0.2 l0.8,0l0.3,0l0.5-0.2l0.2-0.3l0.2-0.2l0-0.5l0.5-0.2l0.4,0l0.3,0.1l0.2,0.1l0.2,0.1l0.5,0.2l0.4,0l0.1-0.3l0.3-0.2l0.3,0l0.3,0 l0,0.3l0.4,0.3l0.5,0l0.3-0.2l0.4-0.1l0.4-0.4l-0.2-0.5l0.1-0.2l0.3,0.1l0.5,0l0.4,0.1l0.6,0.2l0.2,0.1l0.2,0.1l0.1,0l0.4,0 l0.3-0.2l0,0l0.4-0.4l0.3,0l0.3,0.2l-0.1,0.3l0.3,0.2l0.2-0.1l0.8-0.2l-0.2-0.3l0.2-0.1l0.3,0.1l0.3,0.2l0.5-0.1l0.3-0.1l0.3-0.2 l0.3-0.1l0.2,0.1l0,0.1l0.1,0.1l0.2,0l0.5,0l0.7,0.2l1.1-0.2l0.5,0.2l1.1,0.1l0.2,0l0.8,0l0.3-0.1l0.6,0.1l1.3,0.7l1.5,0.5 l1.4,0.4l1.2,0.5l1.3,0.5l1.5,0.4l1.5,0.4l1.5,0.4l1.7,0.3l1.3,0.5l1.3,0.4l1.4,0.4l1,0.2l1,0.2l0.7-0.2l0.5,0.2l1.1,0.5l0.9,0.6 l1.4,0.3l1.3,0.2l1.8,0.2l1.6,0.3l1.4,0.3l2.2,0.6l1.7,0.4l1,0.2l1.2,0.2l1.2,0.4l0.9,0.3l1-0.2l1.3,0.3l1.4,0.6l0.7,0.6l2.1,0.4 l1.6,0.4l1.2,0.1l2.2,0.5l2,0.6l1.2,0.4l2.1,0.6l1.9,0.7l2.2,0.2l1.8,0.2l0.8,0.2l1.2,0.3l0.5,0.1l0.4,0.2l0.1,0.1l-0.4,0.1 l-0.2,0.3l0,0.4l0.2,0.2l1,0.4l1.5,0.4l1,0.4l0.8,0.4l1,0.3l1,0.4l0.9,0.4l1.3,0.2l1.3-0.2l0.8,0.3l0.8,0.3l1.6,0.1l0.7,0.7 l1.2,0.4l2.1,0.4l1.6-0.1l0.8,0l1.1-0.2l1.1-0.2h1.9l1.5,0.1l0.5,0.4l0.2,0.6l1,0.2l1.6-0.2l1,0.1l1,0.3l1,0.4l1.2,0.2l1-0.2 l0.3-0.4l1.3,0.1l0.7,0.5l1.3,0.1l1.6-0.3l2,0.1l1.7-0.1l1.5-0.4l0.5-0.2l0.8,0.2l1.7,0l1.2-0.1l1.3,0l1,0l2-0.2l1.6-0.2l1.1-0.4 l1.1-0.3l1.7,0.3l0.7,0.3l1,0.5l0.6,0.2l0.3,0.4l1.1,0.5l0.7-0.1l0.7,0.3l0.1,0.7l0.4,0.7l0.3,0.3l0.3-0.1l-0.1-0.3l0.1-0.3 l0.4-0.1l0.5,0.1l0.3-0.5l-0.1-0.8l-0.2-0.8l1-0.4l0.8,0.2l1.5,0l0.8,0l1-0.1l0.7,0l1.2-0.3l0.5-0.6l0.4-0.3l1.7-0.5l1.5-0.4 l0.4,0l0.2,0.1l0.5,0l0.8-0.1l0.6-0.1l0.1-0.1l0.8,0l-0.3,0.5l-0.7,0.4l-0.3,0.4l-0.8,0.1l-0.9,0.3l0,0.3l0.5,0.5l0.4,0.4l0.7,0.4 l1.9,0.2l0.5-0.3l0-0.6l0.4-0.2l0.2-0.3l0-0.3l-0.2-0.2l0.1-0.6l0-0.4l0.4-0.3l0.5-0.2l0.8,0.1l0.7-0.1l0.3-0.2l1.1-0.2l0.8,0.4 l1.3,0l1.2-0.3l1.1,0.1l0.5,0.2l0.1,0.3l0.4,0.4l-0.3,0.4l-0.4,0.5l-0.3,0.4l-0.5,0.1l0.3,0.2l0.1,0.2l-0.1,0.3l0.2,0.2l0.5,0.5 l-0.2-0.6l0-0.4l0.7-0.4l1-0.3l0.4-0.3l-0.1-0.1l-0.8,0l-0.2-0.3v-0.6l-0.3-0.3l0.3-0.2l0.8-0.2l0.9-0.1l0.6-0.1l1.2-0.1l0.4-0.1 l1.6-0.4l0.8,0.1l0.8-0.1l0.9-0.3l0.7-0.3l0.6,0.1l0.8-0.3l1.1-0.3l0.7-0.3l1.1,0l0.7,0.3l0.5,0.2l1.1-0.5l0.9-0.2l1.4-0.3l0.4,0 l0.2-0.1l0.6-0.1l0.2-0.1l0.4-0.1l0.3-0.1l0.2-0.1l0.4,0l0.3-0.1l0.3,0l0.5-0.1l0.1-0.1l0.1,0l-0.2,0.2l-0.1,0.1l-0.1,0.2 l-0.2,0.3l-0.5,0.4l-0.4,0.2l-0.2,0.6l0.6,0.5l0.8,0.2l0.2,0.1l0,0.1l-0.1,0.1l-0.6,0.2l-0.4,0.2l-1.3,0.1l-1.2,0l-0.3,0l-0.1,0.1 l-0.1,0l-0.4-0.1l-0.4,0.2l-0.3,0.2l-0.1,0.1l0,0.1l0.4,0l0.2-0.2l0.3-0.1l0.2-0.1l0.3,0l0.4,0.1l0.3,0.1l0.3,0l0.1,0l0-0.2 l0.1-0.1l0.1-0.1l0.1,0l0,0.3l0.4,0.5l0.6,0.1l0.1,0l0,0.1l-0.7,0.2l-0.5,0.1l-0.7,0.3l-0.8,0l-0.8-0.1l-0.2,0.1l0.1,0.1l0,0.4 l0.3-0.1l0.3-0.2l0.1,0.2l0,0.3l-0.6,0.2l-0.1,0.5l-0.2,0.3l-0.2,0.3l0,0.1l0,0.2l-0.2,0.1l-0.1,0l0.1,0l0.3,0l0.2,0l0-0.2 l0.3-0.1l0.2-0.2l0.1-0.2l0.2-0.1l0.1-0.1l0.1-0.1l0-0.2l0.1-0.1l0.1-0.1l0.2-0.1l0.1,0l-0.1,0.1l-0.1,0.1l0,0.1l0.1,0.1l0.2,0.3 l0.3,0.2l0.1,0.1l0,0.1l0.2-0.1l0.1-0.1v-0.1l-0.1-0.1l0.4-0.1l0.1-0.1l0.1,0l0.4,0.1l0.5-0.1l0.1-0.1l0.1-0.1l0,0l0.1,0l0.2,0.1 l0.2,0.1l0.2-0.1l0.1-0.2l0.1-0.3l0-0.2l-0.2-0.2l-0.3-0.2l-0.5-0.2l-0.3-0.2l-0.1-0.1l0.2-0.2l0.1-0.1l0.5,0l0.3,0l0.1-0.2l0-0.1 l0-0.5l0.2-0.2l0.1-0.1l0.2,0l0.2,0.1l0.7,0.3l0.3,0l0.1,0l0.2-0.1l0.4-0.2l0.5-0.1l0.6,0l0.3,0.2l0.4,0.2l0.4,0.2l0.2,0.1l0,0.2 l-0.1,0.2l-0.2,0.3l0.1,0.3l0.2,0.2l0.3,0.1l0.3,0.2l0-0.2l0-0.2l-0.2-0.2l-0.1-0.2l0.2-0.2l0.2-0.2l0.5,0l0.4,0l0.2,0.1l0.3,0.1 l0.7,0l0.7,0l0.9,0l0.8,0l0.2,0l0.1,0.2l0.5-0.1l0.2,0l0.2,0.1l0.5,0l0.8-0.1l0.6,0.1l0.6,0.1l0.3,0.1l0.2,0l0.3-0.1l0.4,0.1 l0.8,0l0.7,0.1l0.5,0.1l0.9,0l0.4,0l0.3,0l0.2,0.1l0.3,0l0.3,0l0.1,0.1l0,0.2l0.2,0l0.1,0.1l0.3,0l0.2,0.1l0,0.1l-0.6,0.5 l-0.1,0.3l-0.3,0.2l-0.5,0.2l-0.3,0l-0.8,0l-0.4,0l0,0.2l0.1,0.3l0,0.2l-0.2,0.1l-0.5,0.1l-0.5,0.2l-0.3,0.2l-0.3,0.1l-0.5,0.2 l-0.5,0l-0.5,0.2l-0.5,0.1l-0.6,0.3l-0.9,0.4l-1.6,0.3l-0.3,0.6l-0.9,0.4l-0.5,0.7l-1.2,0.7l-0.1,0.6l-0.8,0.8l0.8,0.7l0,0.8 l-0.2,0.3l0.8,0.5l0.5,0.2l0,0.2l-0.6,0.2l-0.6-0.1l-0.2,0.8l-0.5,0.4l0,0.5l-0.2,0.6l-0.1,0.4l-1.3,0.5l0-0.4l-0.1-0.3l-0.3-0.3 l-0.3,0l-1.2,0l-0.2,0.2l0.2,0.2l-0.3,0.6l0.7,0.4l-0.1,0.5l1.4,1.4l0.4,0.1l0.7,0.3l-0.8,0.1l-0.3,0.1l-0.1,0l0.2,0.3l0.3,0.1 l0.5-0.2l0.8,0.5l-0.7,0.5l-0.8,0.1l-0.3,0.2l0.1,0.7l-0.4,0.6l0.6,0.5l0.6,0l0.2,0.2l-0.3,0.4l-1.4,0.5l-1.3,0.3l-1,0.4l-1.5,0.3 l-0.8,0.3l-0.5,0.3l-0.8,0.1l-1.9-0.1l-0.5,0.3l-0.4,0.9l0.2,0.7l1.1,0l0.8,0.1l0.2,0.6l0.4,0.3l0.7,0.1l0.7-0.1l0.5,0.2l0.3,0.4 l1.3,0.1l0.5-0.2l0.3,0.3l0.1,0.3l-0.9,0.4l-0.5,0.6l-0.2,0.8l-0.8,0.5l-1,0.3l-1.5,0.2l-0.6,0.6l-0.7,0.5l-0.6,0l-0.5,0.4 l-0.3,0.6l-0.3,0.3l-0.7,0.2l-0.3,0.1l-0.6,0.4l0.2,0.5l-0.3,0.2l0,0.3l0.3,0.5l-1.2,0.6l-1.6,0.3l-1.4,0.4l-1.3,0.5l-0.4,0.3 l0.2,0.8l-0.6,0.7l0.1,0.6l0.2,0.9l-0.5,0.5l0.4,0.7l0.5,0.6l-0.6,0.5l-0.9,0.7l-0.1,0.5l-1.1,0.9l-1.1,0.3l-0.6,0.2l-0.9,0.2 l-0.4,0.3l0.4,0.2l-0.2,0.2l-0.4,0l-0.6,0l-0.8,0.2l-1.4,0.6l-1.4,0.5l-0.6,0.2l-0.6,0.4l-0.6,0.2l-0.2-0.4l-0.4-0.1l-0.4,0.4 l-0.7,0.2l-0.4-0.3l-0.4-0.1l-0.6,0l-0.3,0.2l-1.9-0.5l0-0.5l0.8-0.2l0-0.2l-0.2-0.4l-0.7-0.3l-0.9-0.2l-0.3-0.5l-0.1-0.6l0.3-0.6 l-0.3-0.8l-0.5-0.5l0.2-0.6l-0.3-0.9l-0.2-0.4l0.1-0.8l0.7-0.6l0.6-0.6l0.1-0.2l-0.3,0l-0.6,0.1l-0.5-0.3l0.7-0.5l-0.2-0.3l-1-0.7 l0,0l-0.9,0.8l-1,0.4l-1.4,0.6l-2.9,0.1l-1.6,0.2l-0.9,0.5l-0.4,0.6l-0.5,0.5l-1.5,0.4l-0.6,0.5l0.1,0.5l0,0.6l0.7,0.5l0.1,1.7 l0.1,0.5l-1.1,0.8l-1.5,0.4l-1.8,0.3l-0.5,0.6l-0.8,0.3l-0.7-0.2l-1.1-0.3l-0.7,0.1l0.1,0.4l-0.2,0.3l-1.2,0.7l-1,0.4l-0.4-0.6 l0.3-0.4l-0.2-0.5l-0.4-0.3l-1.1-0.1l-1,0.2l-1.7,0.5l-1.9,0.4l-1.6-0.1l-1.6,1.1l-0.1,0.3l-1,0l-0.8,0.2l-0.4,0.7l-0.6,0.2l0,0.6 l0.5,0.6l0,0.4l-0.4,0.4l-0.8,0l-1,0.1l0.3-0.5l0.3-0.6l-0.2-0.1l-0.5,0.2l-0.4,0.3l-0.5,0.5l-0.7,0.5l-0.3-0.3l-1.2,0.1l-0.2-0.2 l-0.8,0.1l-0.7,0.4l-0.8-0.4l-0.7-0.2l-1.1,0.1l-1.4,0.4l-0.2-0.6l-0.5-0.2l-0.6,0.1l-0.3,0.2l-0.8-0.2l-0.9-0.1l-0.7-0.3l0-0.7 l-0.3-0.2l0.2-0.4l1.7-0.2l0.2-0.7l-0.1-0.6l-0.4-1l-0.3-0.5l0.3-0.6l-0.5-0.4l-1-0.2l-0.7-0.7l-0.4-0.6l0-0.7l-0.7-1.2l-0.4-0.7 l0.1-0.3l-0.1-0.1l-0.4-0.2l-0.5,0l-2.1,0L477,376h-0.1l-0.1,0l-0.6,0.4L475,376l0-0.5l-0.8-0.3l-0.6,0.3l-0.7,0.4l-0.2-0.3 l-1.2,0.1l-0.5,0.5l-0.6,0.3l-0.5,0.4l0.1,0.4l-0.6,0.1l-0.6,0.4l-1.1-0.1l-0.6,0.1l-1.7-0.4l-1-0.7l-0.8-0.4l-0.2-0.5l-1.1-0.6 l-1.4,0l-1.4-0.3l-0.9,0l-0.5,0l-1.2,0l-0.8-0.4l-0.4-0.1l-0.3,0.2l-0.7,0.5l-1.1,0.4l-0.4,0.2l0.2,0.6l-0.2,0.3l-0.8,0.3l-0.7,0 l-0.6-0.2l-0.4-0.2l-0.3-0.1l-0.8,0.2l-0.8-0.7l-0.5-0.1l-0.5-0.2l-1,0l-1,0l-0.9,0.2l-0.9,0.4l-0.4,0l-0.7-0.3l-0.3-0.2l-0.4-0.2 l-0.9,0l-1.2,0l-1,0l-0.5,0.2l-0.3,0.3l-0.8,0.5l-1,0.2l0.5,0.2l-0.3,0.6l0.1,0.6l0.5,0.5l1.1,0.2l0.8,0.2l0.9,0.3l0.4,0.4 l0.6,0.5l0.7-0.1l1.1,0.5l-0.5,0.2l-0.1,0.3l0.4,0.4l0.7,0.3l0.6,0.2l-0.1,0.5l-0.7,0.5l-1.2,0.9l-0.6,1.2l0.5,0.5l0.6,0.2 l-0.1,0.3l-1.8,0.2l-2.1,0l-1.6,0.4l-1,0.2l-1.9,0.2l0,0.4L433,388l-1.6,0.2l-0.6,0.5l-0.4,0.2l-0.9,0l-0.5-0.1l-0.7,0l-0.4,0.6 l-1.7,0.3l-1.3-0.2l-1.3,0.3l-3.1,0.5l-1.4,0.4l-3.2,0l-0.9-0.3l-1.9,0.2l-1.8-0.1l-1.7-0.4l-3.5,0.2l-0.5,0.2l-0.4,0.5l-0.8,0.3 l-2.9-0.1l-2.6-0.2l-2,0.1l-2-0.1l-1.6-0.2l-1.3-0.3l-2.2,0.2l-2.3-0.2l-1.8,0.1l-1.6,0.1l-1.1-0.3l-0.6-0.1l-0.5,0.3l0,0.5 l-1.7-0.1l-0.4-0.2l-0.4,0l-0.5,0l-0.2,0.1l0.1,0.1l-0.1,0.1l-0.3,0.1l-0.1,0.1l0.2,0l0.4-0.1l0.2-0.1l0.3-0.1l0.3-0.1l0.1,0 l0,0.2l-0.1,0.1l-0.3,0l-0.1,0l0,0.1l-0.3,0.1l-0.4,0l-0.3,0l-0.1,0.1l0,0.1l0,0.2l-2.6,1.1l-0.4,0.3l0.1,0.6l0.3,0.4l0.1,0.1 l0,0.5l0,0.1l0.1,0.1l0.7,0.6l0.1,0.3l0,0.3l0,0.6l-0.1,0.1l-0.1,0.3l-0.5,0.2l-0.3,0.1l-0.1,0.1l-3,0.6l-0.7,0.2l-0.7,0.4l-1.5,0 l-1.8,0.3l-1.5,0.5l-1,0.4l-0.1,0l-0.8-0.1l-0.5-0.1l-0.4,0.3l0.1,0.6l-2.5,0.1l-0.1,0l-1.5,0l-0.1-0.5l-0.8-0.3l-0.9,0.1 l-2.3,0.3l-1.3,0l-1.4,0.1l-1.5,0l-0.4,0.3l-1,0.1l-1.1-0.2l-0.4-0.1l-0.8-0.3l-0.1-0.2l-0.2-0.1l-0.1-0.1l-0.2,0l-0.1,0l0,0.1 l0.1,0.1l0.1,0.1l0,0.1l-0.2,0.1l-0.3,0l-0.6-0.2l-1-0.2l-0.1-0.1l-0.2-0.2l-0.2-0.1l-0.6-0.1l-2.6-0.6l-1.3-0.6l-1.7-0.2l-0.2,0 l-0.6-0.3l-4.6-1.4l-0.3,0.1l-0.3,0l-0.2-0.1l0-0.2l-0.2-0.3l-0.4,0.2l0.1,0.2l0.1,0.1l0.2,0.2l0.1,0.1l0,0.1l-0.1,0.1l-0.4,0.1 l-0.4-0.1l-0.5,0l-0.4-0.2l-0.3-0.2l-0.1,0l-0.4,0l-0.3,0l-0.3-0.3l-1.1-1l-0.5-0.3l-2.7-0.9l-2.3-0.7l-1.1-0.4l-1.6-0.3l-1.7-0.1 l-0.6-0.1l-0.3-0.2l0.1-0.2l0.3-0.1l0.1-0.1l0.1-0.1l0-0.1l-2.5-2l-0.7-0.8l-0.3-0.2l-0.1-0.1l0.1-0.1l-0.2-0.4l-0.4-0.1l-0.1-0.1 l-0.5-0.2l-0.1-0.3l-0.3-0.3l-0.3-0.2l-0.3-0.2l-0.2-0.3l-0.2-0.1l-0.2-0.2l-0.3-0.2l-0.9-0.6l-1.3-0.4l-0.6,0l-0.3-0.1l-0.2-0.1 l-0.2-0.1l-1-0.1l-0.8,0.1l-0.2,0l-0.2-0.1l-0.4-0.2l-2.2,0.1h-0.4l-0.1-0.1l-1.6-0.5l-0.6-0.1l-2-0.6l-0.5,0l-0.7,0l-0.3,0.1 l-1.8-0.6l-2.3-0.4l-0.5-0.1l-0.8,0.1l-1.3,0l-1.2,0l-1.6,0.1l-1.2-0.3l-2,0l-1.4-0.1l-1.2-0.2l-1.9-0.3l-0.3-0.3l-1.1-0.4 l-0.6,0.2l-1.2-0.3l-0.9-0.3l-0.3,0l-2.6-0.6l-0.6,0l-0.3-0.1l-0.2-0.1l-0.1-0.1l-3.5-0.2l-0.9-0.1l-1.7-0.3l-0.7-0.1l-1.1-0.4 l-0.5-0.1l-0.8-0.1l-1.9-0.4l-0.8-0.1l-0.9-0.1l-1-0.1l-0.8-0.3l-2-0.2l-0.9-0.2l-0.2-0.3l0.1-0.2l-0.2-0.1l-0.8,0l-0.4,0l-1-0.1 l-0.9-0.1l-0.5-0.2l-0.3-0.4l-1.5-0.1l-0.3-0.1l-0.1-0.3l-0.1-0.2l-0.9-0.1l-0.1-0.1l-0.6-0.1l-0.6-0.2l-1.8-0.2l-1.1,0.1 l-2.7,0.2l-0.2-0.2l-1.9-0.2l-0.5-0.1l-1.8,0l-0.7,0l-0.2,0l-0.8,0l-2.4-0.8l-0.6,0l-0.4-0.1l-0.9,0l-1.5-0.4l-0.8,0.3l-0.7-0.1 L225,372l-0.6-0.3l-0.6-0.1l-0.7-0.1l-0.4,0.1l0.1,0.2l0.4,0.2l0,0.2l0.6,0.2l0.1,0.3l0.4,0.1l0,0.1l-0.4,0.1l-0.4-0.2l-1.5-0.2 l-0.3-0.3l0-0.5l0.3-0.3l-0.1-0.2l-0.5-0.3l0.1-0.2l0.6-0.1l0.5,0l0.5,0.1l0.3,0.3l0.6,0.3l0.5,0.1l0.1-0.1l-0.3-0.3l-0.4-0.8 l0.2-0.1l-0.3-0.4l-0.7,0l-0.1,0.2l-0.1,0.1l-0.2,0l-0.1,0l-0.5-0.2l-0.5,0l-0.5,0l-0.3,0.1l-0.2,0.1l-0.1,0.1l-0.2,0l0.1,0.2 l0.2,0.1l0,0l0,0.1l-0.2,0l0.5,0.5l0.1,0.1l0.4,0.2l-0.3,0.2l-0.5,0.2l-0.8,0.2l-0.2,0l0.4,0.3l0.1,0.5l-0.2,0.1l-1-0.1l-0.3-0.2 l-0.2-0.3l-0.5-0.3l-0.9-0.3l-0.2,0l-0.2,0l-0.7-0.7l-0.4-0.4l-0.3,0l-1.1-0.2l-0.2,0l0.1,0.2l0.4,0.1l0.1,0.1l0.1,0.2l1.2,1.2 l0.3,0l0.8,0.2l0,0.1l-0.1,0.1l-0.5,0l-0.6-0.1l-0.2,0l-0.1-0.1l-0.1-0.1l-0.2-0.2l-0.1-0.1l-0.5,0l-0.2,0l-0.8-0.5l-0.1,0 l0.1-0.3l-1.1-1.2l-0.2-0.1l-0.3,0l-0.1-0.2l-0.4-0.1l-0.5-0.2l0-0.1l-0.4-0.1l-0.3,0l-0.2,0.1l0.5,0.1l0.1,0.1l-0.1,0.1l0.3,0.4 l-0.5,0.1l-0.1,0l-0.3-0.2l-0.4-0.2l-0.1-0.1l-0.2,0l-0.2,0l-0.2-0.1l-0.2,0l-0.1,0l0.1,0.2l0.2,0.1l0.2,0l0.4,0.1l-0.1,0.1 l-0.2,0l-0.2,0l-0.4,0l-0.2-0.1l0-0.1l-0.5-0.1l-0.1,0l-0.1,0l-0.1,0.1l-0.1,0l-0.2,0l-0.2,0l-0.1,0l-0.4,0.1l-0.1,0l0-0.1 l-0.4,0.1l0.1,0.1l0.4,0.1l0.6,0.1l0.2,0.1l0.6,0.2l0.9,0.3l0.3,0.2l0.3,0.2l0.8,0.3l1-0.1l0.1,0l0.1,0l0,0.1l0.3,0.2l0.3,0l0.2,0 l0.3,0.2l0.1,0.1l-0.2,0.2l-0.4-0.1l-0.1-0.1l-0.1-0.1l-2.4-0.3l-1.1,0.3l-0.3,0.1l-1.6,0.5l-0.2-0.1l-0.4,0.1l-0.1,0.1l-0.1,0 l-0.7,0l-0.1,0l0-0.1l0.1-0.3l-0.3,0l-0.5,0l-0.1,0.1l-0.1,0l0,0.2l0.3,0.2l-0.1,0.2l-0.2,0h-0.3l-0.2,0l-0.1-0.1l-0.4-0.2l-1,0 l-0.2,0l-0.3,0.1l-0.6-0.4l0-0.2l-0.3-0.3l-0.8-0.6l-0.2-0.1l-0.1,0l-1.8,0.3l-0.5-0.1l-0.6,0l-0.4,0.1l-0.1,0.1l-1-0.7l0-0.2 l1.2-0.4l0-0.1l-0.1,0l-0.1-0.1l0-0.3l-0.2-0.2l-0.2,0l-0.3,0l-0.2-0.1l-0.7-0.2l-0.1,0l-0.2-0.1l0.1-0.5l0-0.1l-0.2,0.1l-0.4,0.1 h-0.9l0.1,0.1l0.4,0.2l0.1,0.1l0,0.1l-0.2,0l-0.2,0l-1-0.1l-0.3-0.1l-0.2,0l-0.4,0.1l-0.2-0.1l-0.3-0.2l-0.1,0l-0.4,0l-2.1,0.2 l-1-0.4l-0.2-0.2l-0.2-0.3l0.2-0.5l-0.2-0.3l-1.3-0.5l-0.2,0l-0.4,0.1l-0.7,0.6l-0.6,0.3l-0.2,0l-1,0.4l-0.3,0.3l-2.5,0.5l-0.2,0 l-0.3,0l-0.4,0.2l-0.3,0l-0.4,0l-0.3,0l-0.2,0l-0.8,0.1l-0.7,0.1l-0.3,0.3l-0.3,0.1l-0.8-0.1l-0.8,0l-0.8,0.2l-2.4,0.8l-0.7,0.2 l-2.4,0.4l-2.1,0.3l-0.5,0.1l-2.2-0.1l-1.6,0l-1.9,0.1l-1.4,0.2l-1.3,0.1l-1.4,0.2l-2.6-0.3l-1.2-0.5l-0.4-0.2l-0.6-0.2l-0.8-0.1 l-0.9,0l-0.7,0.1l-1,0.1l-0.8,0l-0.7-0.3l-0.8-0.1l-0.3,0.2l-0.2,0.1l-0.3,0.1l-0.3,0l-0.1-0.1l-0.2,0l-0.1,0l-0.2,0l-0.2-0.1 l-0.4-0.1l-0.3-0.1l-0.1-0.1l-0.8-0.3l-0.3-0.1l-0.1-0.1l-0.1-0.1l-0.1,0l-0.3-0.1l-0.1,0l-0.3,0l-0.4-0.1l-0.2,0l-0.1,0l-0.1,0 l-0.1,0l-0.2-0.1l-0.2,0l-0.6-0.2l-0.4-0.1l-0.2,0l-0.1,0l-0.3,0l-0.2,0l-0.2-0.1l-0.2,0l-0.2,0l-0.3,0l-0.1,0l-0.1,0l-0.2,0 l-0.2,0l-0.2-0.1l-0.2-0.1l-0.2-0.1l-0.7-0.2l-0.3-0.1l-0.2-0.1l-0.2-0.1l-0.5-0.4l-0.1,0l-0.1,0l-0.3,0l-0.7-0.2l-0.1,0l-1,0.1 l-0.1,0l-0.3,0l-0.4,0l-0.1,0l-0.3,0.1l-0.3-0.1l-0.1,0l-0.1,0l-0.1,0l-0.3-0.1l-0.7-0.1l-0.1,0l-0.2,0.1l-0.2,0.1l-0.4,0l-0.5,0 l-0.3,0.1l-0.2,0.1l-0.5,0.2l-0.3,0.1l-0.2,0l-0.6-0.2l-0.2-0.2l-0.1-0.1l-0.1-0.1l-0.1,0l-0.1,0l-0.1,0l-0.2,0l-0.1,0l-0.1,0 l-0.2,0.1l-0.1,0l-0.2,0l-0.2,0l-0.1,0l-0.1,0l-0.3,0.1l-0.4,0l-0.1,0l-0.1,0l-0.1,0l-0.1,0l-0.3,0.1l-0.1,0l-0.1,0l-0.2,0l-0.2,0 l-0.1,0l-0.1,0l-0.4-0.1l-0.1,0l-0.7,0l-0.3,0l-0.4-0.1l-0.3-0.1l-0.5-0.2l-0.2,0l-0.1,0l-0.1,0l-0.2,0l-0.1,0l-0.1,0l-0.2,0 l-0.2,0l-0.2,0h-0.2l-0.2,0l-0.4,0l-0.1,0l-0.5,0l-0.1,0l-0.3,0l-0.3,0l-0.1,0l-0.4-0.2l-0.1-0.1l-0.1,0l-0.3,0.1l-0.7,0l-0.1,0.1 l-0.2,0l-0.2,0l-0.2,0l-0.2,0l-0.1-0.1l-0.2-0.1l-0.2-0.1l-0.2,0l-0.2-0.1l-0.2,0l-0.5,0l-0.4,0.1l-0.2,0l-0.2,0l-0.1,0l-0.2,0 l-0.1,0l-0.1,0l-0.1,0l-0.1,0.1l-0.2,0.2l-0.1,0l-0.1,0l-0.1,0l-0.1,0.1l-0.1,0l-0.1,0l-0.2,0H107l-0.1,0l-0.1,0.1l0,0.1l-0.2,0.1 l-0.1,0l-0.1,0l-0.3-0.1l-0.2-0.1l-0.2,0l-0.2,0.1l-0.2,0.1l-0.2,0l-0.1,0l-0.2,0l-0.1,0l-0.1-0.1l-0.1-0.1l-0.2-0.1l-0.1-0.1 l-0.1-0.1l-0.1-0.1l-0.3-0.1l-0.1-0.1l-0.3,0l-0.2-0.1l-0.2-0.1l-0.1-0.1l-0.1,0l-0.2,0l-0.2,0l-0.2,0l-0.1,0l-0.1,0l-0.2,0 l-0.5-0.1l-0.2-0.1l-0.2,0l-0.2,0l-0.2,0l-0.2,0l-0.4,0.1l-0.1,0l-0.1,0.1l-0.2,0l-0.3,0l-0.3,0l-0.1,0l-0.1,0l-0.2,0l-0.3,0.1 l-0.1,0l-0.1,0l-0.1-0.1l-0.2-0.2l-0.1-0.1l-0.1-0.2l-0.1-0.1l-0.1,0l-0.2,0l-0.1,0l-0.1,0l-0.1-0.1l0-0.1l0-0.1l-0.1-0.1l-0.1,0 l-0.2-0.1l-0.2,0l-0.5-0.2l-0.5-0.3l-0.4-0.3l-0.5-0.3l-0.4-0.2l-0.3-0.1l-0.3,0l-0.2-0.1l-0.2,0l-0.2,0l-0.2,0l-0.5-0.1l-0.3-0.1 l-0.3-0.1l-0.4-0.1l-0.2,0l-0.4-0.1l-0.2,0l-0.3-0.1l-0.3-0.1l-0.3-0.1l-0.3-0.1h-0.4l-0.2,0l-0.4-0.1l-0.1,0l-0.4-0.1l-0.5-0.1 l-0.3-0.1l-0.5-0.1l-0.1,0l-0.3-0.1l-0.2,0l-0.2,0l-0.3,0l0-0.1l-0.1,0l-0.7-0.1l-0.1,0l-0.1,0l-0.2,0l-1.4-0.1l-0.4-0.1l-0.2,0 l-0.5,0l-0.4,0l-0.2,0l-0.1-0.1l-0.5-0.2l-0.2,0l-0.2,0l-0.3-0.1l-0.2,0l-0.3,0H78l-0.2,0l-0.4,0l-0.1,0l-0.1,0H77l-0.2,0l-0.1,0 l-0.1,0.1l-0.2-0.1l-0.2-0.1l-0.6-0.1h-0.2l-0.4-0.1l-0.2,0l-0.2-0.1l-0.1,0l-0.2,0h-0.6l-0.2,0l-0.1,0l-0.7,0l-0.1,0l-0.2,0.1 l-0.2-0.1l-0.3,0l-0.3,0l-0.2,0l-0.2,0l-0.2,0l-0.2-0.1l-0.3-0.1l-0.1,0l-0.4,0l-0.1,0l-0.1-0.1l-0.1-0.1h-0.3l-0.1,0l-0.6-0.4 l-0.2-0.1l-0.2-0.2l-0.1-0.1l-0.3-0.2l-0.1-0.1l0-0.1l-0.1-0.1l-0.5-0.2l-0.1-0.1l-0.2,0h-0.2l-0.2,0l-0.1-0.1l-0.2-0.2l-0.1-0.1 l-0.2-0.1l-0.2-0.1l-0.3-0.2l-0.1-0.1l-0.3-0.1l-0.4-0.2l0-0.1l0.2-0.1l0.1,0l-0.1,0l-0.1,0l-0.1,0l-0.1,0l-0.1,0l-0.1,0l-0.1,0 l-0.3,0l0-0.1l0,0l-0.1,0l-0.1,0l-0.1-0.1l-0.1,0l-0.1,0l-0.1,0l-0.1-0.1l-0.2,0l-0.1,0l-0.1,0l-0.1,0l-0.1,0l-0.1,0l-0.1,0 l-0.1,0l0,0l-0.1,0l-0.1,0l-0.1,0l-0.1,0l-0.1,0l-0.1,0l-0.1,0l-0.1,0l-0.1,0l-0.1,0l-0.1,0l-0.1,0l-0.1,0l-0.1,0l0,0l0,0l0,0.1 l-0.1,0l-0.1,0l-0.1,0l-0.1,0l-0.1,0l-0.1,0l-0.1,0l-0.1,0l-0.1,0l-0.1,0l0,0l-0.1,0l-0.1,0l-0.1,0l-0.1,0l-0.1,0l-0.1,0l-0.1,0 h-0.1l-0.1-0.1l-0.1,0l-0.1,0l-0.1,0l-0.1,0l-0.1,0l-0.1,0h-0.1l-0.1,0l-0.1,0l-0.1,0l-0.1,0.1l0,0l0,0l0,0l0,0l0,0l-0.1,0l-0.1,0 l-0.1,0l-0.1,0l-0.1,0l-0.1,0l-0.1,0l-0.1,0l-0.1,0l-0.1,0l-0.1,0l-0.1,0l-0.1,0l-0.1,0l-0.1,0l-0.1,0l-0.1,0l-0.1,0l-0.1,0 l-0.1,0l-0.1,0l-0.1,0l0,0l0.1,0l-0.1,0.1l-0.1,0l0,0l-0.1,0l-0.1,0l-0.1,0l-0.1,0l-0.1,0l-0.1,0l-0.1,0l-0.1,0l-0.1,0l-0.1,0 l-0.1,0l0,0l0,0l0,0.1l-0.1,0l-0.1,0l-0.1,0l-0.1,0l-0.1,0l-0.1,0l-0.1,0l-0.1,0l-0.1,0l-0.1,0l-0.1,0l-0.1,0l-0.1,0l-0.1,0 l-0.1,0l-0.1,0l-0.1,0l-0.1,0l-0.1,0l-0.1,0l-0.1,0l-0.1,0l0,0l-0.1,0l0-0.1l-0.2,0l-0.1,0l-0.1,0l-0.1,0l-0.1,0l-0.1,0l-0.1,0 l-0.1,0l-0.1,0l-0.1,0l-0.1,0l-0.1,0l-0.1,0l-0.1,0l-0.1,0l-0.1,0l-0.1,0l0,0l0,0l0,0.1l0.1,0.2l-0.3-0.1l-0.1-0.1l-0.2,0l-0.1,0 l-0.1,0l-0.1,0l-0.1,0l-0.1,0l-0.1,0l-0.1,0h-0.1l-0.1,0l-0.1,0l-0.1,0l-0.1,0l-0.1,0l-0.1,0l-0.1,0l-0.1,0.1l-0.1,0l-0.1,0 l-0.1,0l0,0.1l0.1,0.1l0.1,0.1l0.1,0.1l0.1,0l0.2,0l0.1,0l0.2,0l0.2,0l0.2,0l0.1,0l0.2,0l0.2,0l0.2,0l0.2,0l0.2,0h0.2l0.2,0l0.2,0 l0.2,0l0.1,0l0,0l-0.1,0.1l-0.1,0.1l-0.2,0l-0.1,0.1l-0.1,0.1l0,0.1l0,0.1l0,0.1l0,0.1l-0.1,0.1l0,0.1l0,0.1l0,0.1l0,0.1l0,0.1 l0,0.1l0,0.1l0,0.1l0,0.1l0,0.1l0.1,0.1l0,0l0.1,0.1l0.1,0.1l0.1,0l0,0.1l-0.1,0l0,0.1l-0.1,0.1l-0.1-0.1l0-0.1l0,0l-0.2,0 l-0.2,0.1l0,0.1l0,0l0.1,0l0.1,0l0-0.1l0.1,0l0.1,0l0,0.1l0.1,0.1l0.2,0.1l0.1,0.1l0.2,0.1l0.1,0l0.1,0l0,0l0.1,0l0.1,0l0.2,0 l0.2,0l0.2,0l0.1,0l0.1,0l0.2,0l0.2,0l0.2,0l0.2,0l0.2,0h0.2l0.2,0l0.2,0l0.2,0.1l0.1,0.1l0.1,0.1l0.2,0l0.3,0l0.2,0l0.2,0l0.2,0 l0.2,0l0.2,0l0.1,0l0.2,0l0.1,0l0.1,0l0.2,0l0.1,0l0.1,0l0.2,0.1l0.1,0.1l0,0.1l0,0.1l0,0.1l0,0.1l0.1,0.1l0.1,0h0.1l0.2,0l0.1,0 l0.1,0l0.1,0l0.1,0l0.1,0l0.1,0l-0.1,0.1l-0.1,0.1l-0.2,0l-0.2,0l-0.1,0l0,0l-0.1,0l-0.1,0l-0.2,0l-0.1,0l0-0.1l0,0l0-0.1l0,0 l0-0.1l-0.1,0l-0.1,0h-0.1l-0.1,0.1l-0.1,0.1l-0.1,0l-0.1,0.1L58,365l-0.1,0.1l-0.1,0.1l0,0l0,0.1l0,0l-0.1,0.1l-0.1,0.1l-0.1,0 l-0.1,0.1l-0.2,0l-0.2,0l-0.1,0l-0.1,0l-0.2,0l-0.2-0.1l-0.2-0.1l-0.2-0.1l-0.2,0l-0.2,0l-0.1,0l-0.2,0l-0.2,0l-0.1,0l-0.2,0 l-0.2,0l-0.2,0l-0.2,0l-0.2,0l-0.2,0l-0.2,0l-0.2,0l-0.2,0l-0.1,0l0,0.1l-0.1,0.1l-0.2,0.1l-0.2,0.1l-0.2,0.1l-0.1,0.1l-0.2,0.1 l-0.2,0l-0.2,0l-0.2,0l-0.2,0l-0.1,0l-0.2-0.1l-0.2-0.1l-0.1-0.1l-0.2-0.1l-0.2-0.1l-0.2-0.1l-0.2-0.1l-0.2,0l-0.2,0l-0.2,0.1 l-0.2,0l-0.2,0l-0.1,0l-0.1,0l0-0.1l0.1-0.1l0.1-0.1l0.1-0.1l-0.1-0.1l-0.1-0.1l-0.1-0.1l-0.1-0.1l-0.1-0.1l-0.1,0h-0.1l-0.1,0 l0.1-0.1l0.2-0.1l0.1-0.1l0-0.1l0.1-0.1l0.2-0.1l0.2,0l0.1,0l0.1-0.1l0.2,0l0.1,0l0.1,0l0.1-0.1l0.1-0.1l0.1,0l0.1-0.1l0.1-0.1 l0.1-0.1l0.2-0.1L51,364l-0.1-0.1l-0.1-0.1l-0.1-0.1l-0.1,0l-0.2,0l-0.2,0l-0.3,0h-0.3l-0.3-0.1l-0.1,0l-0.5-0.2l-0.1,0l-0.1-0.1 l-0.2,0l-0.2,0l-0.1,0l-0.1,0l-0.1,0l-0.1,0.1l-0.1,0.1l-0.1,0.1l0,0.1l-0.1,0.1l-0.1,0.1l-0.1,0.1l-0.1,0.1l-0.2,0l-0.2,0.1 l-0.2,0l0,0l-0.2,0l-0.2,0l-0.3,0l-0.2,0l-0.2,0l-0.1,0l-0.1,0.1l-0.1,0.1l-0.1,0.1l-0.2,0.1l-0.1,0.1l-0.1,0.1l-0.1,0.1l0.1,0.1 l-0.1,0.1l-0.2,0.1l-0.2,0.1l-0.2,0.1l0,0l0-0.1l0-0.1l0.1,0l0.1-0.1l0.1-0.1l0-0.1l-0.1,0l-0.2,0.1l-0.2,0.1l0,0.1l0,0.1l0,0.1 l0,0.1l-0.1,0l-0.1-0.1l-0.1-0.1l-0.2-0.1l-0.2,0h-0.1l-0.1,0l-0.1,0.1l-0.1,0l-0.1,0l-0.1,0l-0.1,0l-0.1,0.1l0,0.1l0,0.1 l-0.1,0.1l0,0l0.1,0l0.1,0l-0.1,0l-0.1,0l-0.1,0l-0.1,0l-0.1,0l-0.1,0l-0.1,0l-0.1,0l-0.1,0l-0.1,0h-0.1h-0.1l-0.1,0l-0.1,0 l-0.1,0l-0.1,0l-0.1,0l-0.1,0l-0.1,0l-0.1,0.1l0,0.1l-0.1,0l-0.1,0.1l0,0.1l0,0.1l0,0.1l0,0.1l0.1,0l0,0.1l0,0.1l0,0.1l-0.1,0 l-0.1,0l-0.1,0.1l0,0.1l0,0.1l-0.1,0.1l-0.1,0l-0.1,0l-0.1,0l-0.1,0l-0.1,0l-0.1,0l-0.1,0l-0.1,0l-0.1,0l-0.1,0l-0.1,0l-0.1,0 l-0.1,0l-0.1,0l-0.1,0l-0.1,0l-0.1,0l-0.1,0l-0.1,0l-0.1,0l-0.1,0l-0.1,0l-0.1,0h-0.1l-0.1,0l-0.1,0l-0.1,0l-0.1,0l-0.1,0l-0.1,0 l-0.1,0l-0.1,0l-0.1,0l-0.1,0l-0.1,0l-0.1,0l-0.1,0l-0.1,0l-0.1,0l-0.1,0l-0.1,0H36l-0.1,0l-0.1,0l-0.1,0l-0.1,0l-0.1,0l-0.1,0 l-0.1,0l-0.1,0l-0.1,0l-0.1,0l-0.1,0l-0.1,0l-0.1,0l-0.1,0l0,0.1l-0.1,0l-0.1,0l-0.1,0l-0.1,0l-0.1,0l-0.1,0l-0.1,0l-0.1,0l-0.1,0 l-0.1,0l-0.1,0l-0.1,0l-0.1,0l-0.1,0l-0.1,0l-0.1,0l0,0.1l0.1,0l-0.1,0.1l-0.1,0l-0.1,0l-0.1,0l-0.1,0l-0.1,0l-0.1,0l0-0.1l-0.1,0 l-0.1,0l-0.1,0l-0.1,0l-0.1,0l-0.1,0l-0.1,0l-0.1,0l-0.1,0l-0.1,0l-0.1,0l-0.1,0l-0.1,0l-0.1,0l-0.1,0l-0.1,0l-0.1,0l-0.1-0.1 l-0.1-0.1l-0.1-0.1l-0.1,0l-0.1,0l-0.1,0l-0.1,0l-0.1,0l-0.1,0l-0.1,0.1l-0.1,0l-0.1,0l-0.1,0l-0.1,0l-0.1,0l-0.1,0h-0.1l-0.1,0 l-0.1,0l-0.1,0l-0.1,0.1l0,0.1l0,0.1l-0.1,0l-0.1,0l-0.1,0h-0.1l-0.1,0l-0.1,0l-0.1,0l-0.1,0l-0.1,0l-0.1,0l-0.1,0l-0.1,0.1 l-0.1,0l-0.1,0h-0.1h-0.1l-0.1,0l-0.1-0.1l-0.1,0l0,0l-0.1,0l-0.1,0l0-0.1l0-0.1l-0.1,0l0,0.1l0,0.1l0,0.1l-0.1,0l0.1,0.3l0,0.1 l-0.2,0h-0.4l-0.1-0.1l0.1-0.1l0.1,0l-0.1-0.2l-0.1-0.1l-0.1,0l-0.1-0.1l-0.1-0.1l0-0.1l-0.1-0.1l-0.2,0l0-0.1l-0.1-0.1l-0.1,0 l0-0.2l-0.2-0.1l-0.1,0l-0.1,0l-0.1,0l-0.1,0l-0.1,0l0,0.2l0,0.1l-0.2,0l-0.1,0l-0.1-0.1l0-0.1l-0.1,0l-0.1,0l-0.1-0.1l0-0.1 l-0.1-0.1l-0.1,0l-0.1-0.1l0-0.1l-0.1-0.1l-0.1-0.1l0,0l0-0.1l0,0l0-0.1l-0.1,0l0-0.1L23,366l-0.3,0l-0.2,0l-0.4,0.1l-0.3,0 l-0.2,0l-0.1,0l-0.1,0l-0.1,0l-0.3,0.1l0,0.1l-0.1,0.1l-0.1,0l-0.1,0l-0.1,0.1l-0.2,0.1l-0.1,0.1l-0.5,0.2l-0.6,0.3l-0.1,0 l0.2,0.1l0.2,0l0.1,0.1l0,0.1l0,0l0,0.1l0,0.1l-0.3,0.1l-0.1,0l-0.2-0.1l-0.1,0l-0.1,0.1l-0.3,0l-0.3,0l-0.1,0l-0.1,0.1l-0.2,0 l-0.3,0l-0.3-0.1l-0.1,0l0-0.1l-0.4,0l-0.2,0l-0.1,0l-0.1,0l-0.1,0l-0.1-0.1l-0.1,0l-0.1,0l-0.2,0.1l-0.3-0.1l0-0.1l-0.3,0l-0.1,0 l-0.4-0.2l0-0.1l0-0.1l0,0l-0.2,0l-0.2,0l-0.2-0.1l-0.1,0l-0.2,0l-0.2,0l-0.1-0.2l-0.3,0l-0.1,0l0-0.1l-0.3-0.2l-0.1,0.1l-0.1,0 l-0.1,0.1l-0.3,0l-0.2,0l-0.2,0l-0.2,0l-0.1-0.1l-0.1,0l-0.1,0.1l-0.1,0l-0.1,0l-0.2,0l-0.1-0.1l-0.1,0l-0.4,0.2l-0.2,0.1 l-0.1,0.1l-0.1,0L9.8,367l0-0.1l-0.1,0l-0.1,0l-0.1,0l-0.1,0l-0.1-0.1l0,0l-0.1,0l-0.1,0l-0.1,0l-0.1,0l-0.2,0.3l-0.1,0.1l-0.2,0 l-0.2,0l-0.1,0l-0.1-0.1l-0.1,0l-0.1,0l-0.3,0L7.2,367L7,367.1l-0.2,0.1l0,0.1l0.1,0.1l0.1,0l0.1,0l0.1,0l0.1,0.1l0.1,0l0.2,0.1 l0,0.1l-0.1,0l0.1,0.1l0.2,0l0.7,0.2l0.4,0.2l0.1,0.1l0.1,0.1l0.3,0.1l0.3,0.2l0.2,0l0.3,0.1l1.1,0.1l0.2,0.1l0.5,0.2l0.5,0.2 l0.2,0l0.2,0l0.1,0.1l0.1,0.1l0.7,0.1l0.2,0l0.1,0l0.3,0.1l0.4,0.2l0.1,0l0.3-0.2l0.1-0.1l0.4-0.1l0.2,0l0.3,0l0.3,0l0-0.1 l0.1-0.1l0.1,0l0.1,0l0.2,0l0.2,0.1l0.1,0l0.4,0.1l0.3,0l0.5,0l0.1,0l0.4-0.1l0.1,0l-0.1,0.1l0,0.1l-0.1,0.1l-0.1,0l-0.1,0h-0.1 l-0.2,0.1l-0.1,0.1l0,0.1l0,0.1l0,0.2l-0.1,0.1l-0.1,0l-0.1,0l-0.1-0.1l-0.3,0l-0.1,0l0-0.1l-0.1,0l-0.3,0l-0.3,0l-0.3,0.1 l-0.3,0.1l-0.3,0.2l-0.5,0l0,0.1l-0.2,0l-0.1,0l-0.1,0l-0.4,0.2l-0.1,0l0-0.1l-0.1,0l-0.3,0.2l0,0.1L14,371l0.2,0.1l0.4,0.1 l0.3,0.2l0,0.1l-0.1,0l-0.3,0l-0.1,0l-0.1,0l-0.3,0.1l-0.2,0.2l-0.4,0l0-0.1l-0.1,0l-0.1,0l-0.1,0l-0.1,0l-0.1-0.1l-0.1,0l-0.1,0 l-0.3,0.1l-0.7,0l-0.3,0l-0.1,0l-0.3,0.1l-0.3,0l-0.3,0l-0.4,0.1l-0.3,0.1L9.5,372l-0.3,0.1l-0.2,0.1l0.2,0.1l0.3,0.1l0.4,0 l0.2,0.1l0.2,0.1l0.1,0.1l-0.1,0.1l-0.3,0.1l-0.1,0.1l-0.1,0.1l-0.2,0.1l-0.4,0.1H9.1l-0.2,0l-0.4,0l-0.4,0l-0.3,0l-0.2,0l-0.3,0 l-0.3,0.1l-0.2,0.1l-0.2,0l-0.2,0l-0.3,0l-0.1,0H5.8l-0.1,0l-0.3-0.1l-0.3,0l-0.3,0l-0.3,0.1l-0.4,0.1l-0.2,0l-0.3,0l-0.3,0 l-0.2,0.1L2.9,374l-0.3,0l-0.3,0L2,373.9l-0.4,0l-0.3,0l0.1-0.2l2-2.9l0.2-0.4l-0.1-4.5l0-3.4l0-2.9l-0.2-9.5l-0.3-13.7l-0.6-18.9 L2.3,316.5"/>
		</g>
	</g>
</svg>
