<svg xmlns="http://www.w3.org/2000/svg" baseProfile="full" height="3601.54102338" version="1.1" viewBox="53606.751148,4060661.425045,2175.315426,3601.541023" width="2175.31542592"><defs><style type="text/css">polyline,line,rect,path,polygon,.polygon{fill:none;stroke:#000;stroke-width:1px;stroke-linejoin:round;}</style></defs><g fill_rule="evenodd" transform="scale(1,-1)"><g class="id" id="02003"><polygon class="_02003" id="None" points="55619.2470735,-4060853.82276 55634.332438,-4060984.29932 55635.8318051,-4060998.64298 55648.9569008,-4061115.30625 55650.4909071,-4061130.1457 55667.47886,-4061245.04466 55675.8894744,-4061386.94785 55682.0395159,-4061503.59973 55683.2854812,-4061521.4486 55689.48165,-4061631.62044 55689.6322173,-4061648.05113 55695.3562079,-4061765.72921 55696.4291917,-4061781.09906 55702.0964144,-4061912.23301 55703.0309824,-4061925.61966 55709.1821096,-4062042.27151 55714.9292672,-4062145.99789 55715.6684481,-4062170.85721 55716.4880496,-4062189.73228 55718.1183087,-4062277.30491 55718.7190784,-4062300.18101 55719.4348708,-4062317.56868 55721.7353791,-4062429.00902 55722.6477725,-4062456.34735 55723.9891378,-4062525.50609 55724.1980609,-4062549.90422 55724.7878063,-4062579.75617 55725.8276215,-4062616.05354 55725.2984427,-4062637.01568 55725.8412366,-4062651.92434 55723.4613394,-4062767.67733 55720.4376306,-4062909.88093 55722.7849778,-4063014.84128 55725.4566242,-4063138.71134 55726.9233419,-4063173.9825 55731.3125768,-4063286.77181 55736.9485817,-4063417.40997 55738.775872,-4063493.50998 55741.1903456,-4063556.61526 55743.5104087,-4063589.83396 55749.2949681,-4063694.05612 55756.8568196,-4063816.5883 55758.6812308,-4063849.84162 55761.4060546,-4063895.98576 55762.5032644,-4063918.82725 55672.347606,-4063919.1458 55576.1053694,-4063939.32011 55475.9311775,-4063960.26733 55379.1928158,-4063980.47639 55245.0847617,-4064007.77975 55239.7347939,-4064009.64811 55081.1131294,-4064042.64963 54960.6555611,-4064058.53692 54874.2700337,-4064070.05141 54851.0362785,-4064072.67074 54733.0572834,-4064088.38496 54627.404059,-4064102.2418 54451.6570106,-4064125.4788 54433.877025,-4064127.71719 54354.3628358,-4064137.75535 54332.6163129,-4064140.27082 54184.5647391,-4064160.57691 54086.8562926,-4064188.32774 54046.3616152,-4064200.62278 54030.7725692,-4064205.69757 53957.9695636,-4064226.22823 53889.1330088,-4064246.48188 53870.5690185,-4064251.76449 53865.6348707,-4064124.06234 53863.6117717,-4064059.43291 53859.0480016,-4063944.16083 53853.6769733,-4063824.46103 53848.0732218,-4063672.89037 53845.7657021,-4063654.11856 53842.2934116,-4063632.93692 53834.7114469,-4063545.77689 53824.787536,-4063439.34921 53851.7458685,-4063432.98239 53823.2220242,-4063309.91719 53816.3498256,-4063311.39358 53806.7587161,-4063174.05203 53799.0140571,-4063056.01272 53799.0819574,-4063035.58032 53796.4107351,-4062911.70616 53795.2446965,-4062887.87227 53790.1157191,-4062728.79504 53785.3691655,-4062596.59585 53781.6022568,-4062449.87945 53759.2055833,-4062371.72554 53741.3874805,-4062309.19545 53730.5934369,-4062283.04435 53718.6693002,-4062254.9792 53678.4804048,-4062164.61497 53636.7695573,-4062073.85865 53627.2384461,-4061923.06032 53623.6152695,-4061864.02319 53621.0062783,-4061790.96465 53672.1552606,-4061759.99107 53687.7653561,-4061698.11667 53690.4746314,-4061686.96637 53715.1109362,-4061561.68435 53737.2804404,-4061451.02347 53755.3804894,-4061360.57611 53759.0927568,-4061342.38057 53779.0145039,-4061242.3397 53794.8666962,-4061162.51232 53815.2153366,-4061061.44536 53842.4238852,-4060923.03047 53844.5682694,-4060910.92322 53846.5396314,-4060896.33688 53859.1518875,-4060805.77475 53879.0735364,-4060662.8864 54027.7844143,-4060673.43363 54107.4955599,-4060673.35112 54172.2283452,-4060672.81925 54224.9577061,-4060671.63041 54364.3738103,-4060670.37042 54459.5584889,-4060670.70263 54538.2428171,-4060670.19348 54558.6749012,-4060670.2622 54630.6955736,-4060717.05133 54689.202267,-4060755.81545 54738.7957083,-4060788.22642 54744.5264493,-4060791.81226 54787.3283015,-4060819.71492 54860.8583903,-4060831.0244 54873.4266335,-4060832.63834 54978.6769873,-4060848.70901 55087.9282197,-4060864.99858 55229.2216924,-4060862.11217 55355.1102734,-4060859.80268 55456.6349905,-4060858.1972 55484.9996146,-4060857.71215 55619.2470735,-4060853.82276" style="stroke-linejoin:round;stroke:#000;stroke-width:1px;fill:none" /></g></g></svg>