<svg xmlns="http://www.w3.org/2000/svg" baseProfile="full" height="3445.93179494" version="1.1" viewBox="53503.368545,4056844.309004,4302.522791,3445.931795" width="4302.52279119"><defs><style type="text/css">polyline,line,rect,path,polygon,.polygon{fill:none;stroke:#000;stroke-width:1px;stroke-linejoin:round;}</style></defs><g fill_rule="evenodd" transform="scale(1,-1)"><g class="id" id="02002"><polygon class="_02002" id="None" points="54979.5469255,-4056899.44247 55051.3681634,-4056957.70738 55084.1600357,-4056977.84025 55100.8211608,-4056988.13729 55141.6379549,-4057016.18014 55429.1538026,-4057216.8375 55464.5054226,-4057230.81295 55498.2892168,-4057229.45307 55509.7272719,-4057229.15351 55522.0877693,-4057227.79319 55546.843337,-4057225.56835 55612.7504994,-4057220.47332 55615.2295108,-4057220.30041 55878.5682218,-4057245.776 56011.5558635,-4057338.13544 56195.8289777,-4057465.77756 56305.3642252,-4057543.33095 56360.2932564,-4057580.85075 56423.6737525,-4057625.25406 56598.1934483,-4057613.08046 56680.9810786,-4057485.74348 55867.4369563,-4056936.16639 55917.3186384,-4056858.45405 56115.1848983,-4056988.13901 56938.0303038,-4056949.68261 57130.9467994,-4057094.15759 57142.3024015,-4057164.11012 56429.9760418,-4057201.33811 56526.81605,-4057268.31831 56653.0111853,-4057356.1682 57440.6136323,-4057319.66589 57443.7612594,-4057321.93733 57791.6139246,-4057580.64956 57800.9753097,-4057657.71512 57130.556979,-4057688.5391 57343.7214093,-4057837.57724 57383.9253631,-4057978.25419 57373.2024381,-4057995.94105 57265.2239436,-4058154.92703 57185.0793425,-4058098.74129 57171.4278926,-4058088.73323 56834.1520908,-4058110.27006 56559.5531251,-4057916.19449 56540.344073,-4057905.07934 56524.7439243,-4057895.70525 56507.0106643,-4057891.46203 56494.3736925,-4057888.85613 56478.934881,-4057888.93672 56459.2876005,-4057885.82344 56438.7178959,-4057883.77091 56386.4864436,-4057884.9235 56324.1199163,-4057890.76878 56305.2796579,-4057892.08306 56294.6604149,-4057889.8346 56274.7939673,-4057890.72226 56263.8172679,-4057890.49157 56258.7901277,-4057889.84584 56253.232604,-4057888.7389 56242.6479382,-4057886.98623 56232.0286843,-4057884.73776 56222.33185,-4057881.42852 56212.5658417,-4057877.12769 56202.304035,-4057872.86145 56197.1385449,-4057870.23253 56001.8978448,-4057885.34693 55976.0125341,-4057885.65802 55950.3693167,-4057889.43971 55923.1003433,-4057891.34196 55916.6203613,-4057891.29579 55910.6015919,-4057890.71923 55888.0481412,-4057931.65133 55818.5084579,-4058056.07359 55809.6646716,-4058072.13517 55789.6364566,-4058106.41448 55753.2351708,-4058170.23426 55749.2572047,-4058177.48677 55751.7707992,-4058177.80963 55760.4415395,-4058180.69223 55767.094486,-4058183.21738 55773.251631,-4058185.77711 55778.3825847,-4058187.91023 55782.0607246,-4058190.64291 55793.9829781,-4058197.28438 55800.2784773,-4058201.82731 55804.982807,-4058204.98662 55816.4438465,-4058212.15847 55827.4436735,-4058219.8607 55835.2265724,-4058224.29987 55838.9393001,-4058227.52834 55844.6698183,-4058231.11426 55850.3657468,-4058234.20438 55861.365571,-4058241.90661 55883.192269,-4058254.83205 55897.8356374,-4058264.77114 55906.67931,-4058270.13272 55921.7838855,-4058279.54141 55936.3926595,-4058288.98468 55945.8013082,-4058295.30326 55959.3493006,-4058303.82411 55976.6100161,-4058315.57342 55986.549051,-4058322.3532 55998.0100723,-4058329.525 56011.0622599,-4058338.08042 56025.7402036,-4058348.51527 56042.9317294,-4058359.27295 56047.1748418,-4058362.96262 56052.4095511,-4058366.5831 56075.181688,-4058385.91924 56094.7714896,-4058402.48812 56100.0753793,-4058407.10019 56136.8451721,-4058441.40246 56178.0310336,-4058481.87332 56198.6700962,-4058506.3403 56206.8334814,-4058516.23317 56227.1497129,-4058543.21371 56267.8167888,-4058597.67052 56301.4850532,-4058644.64422 56327.3012788,-4058686.18722 56351.0767782,-4058741.32423 56374.4603104,-4058797.98318 56401.7987865,-4058861.34106 56467.3942004,-4058916.05092 56473.689692,-4058920.59373 56460.0958705,-4058939.976 56461.6870418,-4058941.3596 56446.9632511,-4058958.8279 56359.1509178,-4059064.09905 56267.6836232,-4059174.10947 56177.1733648,-4059283.55526 56088.2885669,-4059373.45766 56081.7625813,-4059379.89163 56085.4753636,-4059383.12002 56116.3210207,-4059511.00094 56138.6014214,-4059701.75611 56140.354261,-4059712.59446 56142.1071027,-4059723.4328 56149.857553,-4059813.06839 56151.7374704,-4059832.86569 56154.320812,-4059855.60318 56159.5584599,-4059966.33907 56159.9969779,-4059979.76022 56158.9135017,-4059992.78937 56167.230014,-4060104.80502 56168.4871317,-4060115.67797 56169.9864907,-4060130.02149 56176.3426912,-4060228.224 56076.5488837,-4060233.19672 56058.7001405,-4060234.44255 55936.1685683,-4060241.99877 55919.8071808,-4060243.14079 55875.6809915,-4060246.22078 55762.1426642,-4060254.1457 55746.2770286,-4060255.25312 55619.2479672,-4060262.62504 55485.000525,-4060266.51503 55456.6359028,-4060267.00021 55355.1111923,-4060268.60615 55229.2226207,-4060270.91621 55087.9291598,-4060273.80326 54978.6778535,-4060257.51418 54873.4274271,-4060241.44398 54860.8591766,-4060239.8301 54787.3290369,-4060228.52094 54744.5270599,-4060200.61847 54738.7963028,-4060197.03266 54689.2027169,-4060164.62191 54630.6958508,-4060125.85805 54558.6749706,-4060079.06924 54538.2428862,-4060079.00062 54459.5585609,-4060079.51011 54364.3738815,-4060079.17832 54224.9577839,-4060080.43893 54172.2284286,-4060081.62801 54107.4956462,-4060082.16016 54027.7845015,-4060082.24302 53879.0735783,-4060071.69644 53863.5302188,-4060070.29011 53781.5240242,-4060066.04899 53757.0213072,-4060064.76973 53631.0022294,-4060058.1198 53535.5047552,-4060053.32549 53504.5908764,-4060052.99189 53549.5921768,-4059926.78704 53593.7750761,-4059803.1307 53632.4467884,-4059693.31151 53654.6076173,-4059632.47514 53734.7439382,-4059524.24673 53794.6559262,-4059440.34863 53833.3058871,-4059387.33009 53839.5899479,-4059377.42516 53846.0124058,-4059369.50351 53950.8585651,-4059222.68252 54053.5025623,-4059080.00157 54107.4072963,-4058988.55192 54150.5887911,-4058914.79042 54216.4968867,-4058802.57446 54233.9309641,-4058773.95551 54242.844022,-4058758.88503 54280.6294108,-4058693.47202 54330.0260612,-4058608.81461 54394.6546058,-4058499.67802 54415.3634398,-4058460.86627 54490.1157786,-4058461.13151 54612.6388403,-4058460.55503 54794.4397118,-4058459.82865 54803.4334612,-4058460.19763 54858.6066379,-4058501.18833 54870.2062632,-4058510.34349 54878.1622689,-4058517.26174 54931.1446776,-4058576.83938 54987.4937055,-4058484.72281 55048.7086491,-4058383.79719 55040.6373719,-4058382.36741 55157.1525843,-4058160.00427 55170.9660864,-4058136.62074 55267.372468,-4057975.94582 55291.4135751,-4057934.90951 55298.9084184,-4057920.9348 55300.614945,-4057916.83001 55247.2874929,-4057873.71756 55241.5223567,-4057869.63576 55213.480767,-4057846.18274 55163.3702331,-4057806.33328 55157.5013372,-4057800.76405 55129.5980813,-4057779.29419 55125.3203606,-4057775.10861 55116.3382836,-4057767.76366 55099.6424241,-4057756.97103 55079.3029884,-4057743.94146 55053.7633832,-4057727.78708 55029.8841187,-4057714.00796 55006.5006559,-4057700.19425 54992.9871342,-4057692.16892 54975.1267177,-4057678.96638 54953.657306,-4057664.02268 54931.5537454,-4057647.13033 54908.8506213,-4057628.78512 54881.4431303,-4057607.2805 54879.7827847,-4057604.90521 54873.3834901,-4057598.8747 54835.806423,-4057560.14344 54818.1076096,-4057534.97223 54795.324023,-4057501.18769 54774.8003494,-4057471.23127 54754.2075202,-4057440.28321 54748.1311283,-4057431.73904 54745.4445848,-4057428.93709 54757.8631387,-4057414.1207 54791.8556309,-4057372.88848 54802.4638599,-4057360.68948 54826.0789523,-4057320.67935 54938.653529,-4057170.33661 54940.8905076,-4057166.69306 54955.234838,-4057143.77094 54963.3986207,-4057132.24073 54997.5411834,-4057086.01617 55015.8982646,-4057056.33739 55021.7910132,-4057026.53148 55020.915367,-4056999.68873 55011.2998004,-4056968.97154 54979.5469255,-4056899.44247" style="stroke-linejoin:round;stroke:#000;stroke-width:1px;fill:none" /></g></g></svg>