<svg xmlns="http://www.w3.org/2000/svg" baseProfile="full" height="4854.63607359" version="1.1" viewBox="43117.835797,4058513.771779,6500.588456,4854.636074" width="6500.58845616"><defs><style type="text/css">polyline,line,rect,path,polygon,.polygon{fill:none;stroke:#000;stroke-width:1px;stroke-linejoin:round;}</style></defs><g fill_rule="evenodd" transform="scale(1,-1)"><g class="hogares departamen mujeres departam_1 toponimo_i tot_pob varones viv_part viv_part_h" id="02011"><polygon class="_02011" id="None" points="45483.1104272,-4059943.87752 45518.6244039,-4059992.22646 45476.0414524,-4059999.68236 45509.2026626,-4060014.31086 45537.0186328,-4060027.3191 45548.026229,-4060031.53407 45636.3234033,-4060072.21353 45735.1667658,-4060117.6383 45788.8899361,-4060141.29623 45834.1887482,-4060162.05383 45841.6905016,-4060166.01508 45948.2140967,-4060214.39168 46059.0909719,-4060264.4575 46063.1329721,-4060261.68396 46094.685055,-4060263.96698 46284.2048178,-4060280.64026 46403.7527967,-4060290.73519 46450.3887292,-4060294.95537 46488.9521349,-4060297.74566 46604.99395,-4060307.58683 46700.0356431,-4060316.40186 46760.6943359,-4060321.63662 46850.1773278,-4060329.34459 46918.6257627,-4060335.5306 46959.7374533,-4060339.13955 46978.7883588,-4060340.7999 47021.208903,-4060345.31409 47038.7375599,-4060346.58236 47071.8459607,-4060349.7532 47158.8491171,-4060357.63407 47188.982207,-4060361.01251 47355.5499646,-4060377.29318 47366.5747227,-4060392.46904 47438.5114809,-4060430.80005 47561.6502815,-4060495.9533 47603.2980967,-4060517.96119 47656.0569626,-4060545.67137 47740.1308965,-4060590.13094 47766.538994,-4060597.25713 47840.9140508,-4060616.98092 47883.3226188,-4060628.47157 47915.5369575,-4060636.68736 47963.5384433,-4060649.78078 47958.0782044,-4060653.64981 47932.8699882,-4060670.85581 47861.7138065,-4060718.67405 47909.7054076,-4060803.02262 47963.1113553,-4060889.98288 48021.9316487,-4060979.55481 48024.9703925,-4060983.82726 48095.0232593,-4061091.54975 48178.3268375,-4061217.78011 48268.6359882,-4061151.68305 48273.5656925,-4061147.35273 48304.1645888,-4061125.28581 48382.3136246,-4061067.01366 48390.5759364,-4061060.45763 48400.0779074,-4061053.81508 48508.6061484,-4060956.05193 48530.5160314,-4060941.56753 48613.7846818,-4060870.97985 48648.2982082,-4060837.17961 48661.7846149,-4060841.22114 48778.6301938,-4060876.91455 48793.1429032,-4060881.38271 48907.6876728,-4060916.23996 48934.1645211,-4060924.35754 48981.2773771,-4060939.00724 49011.8594986,-4060948.83137 49065.5568912,-4060965.01455 49183.4973164,-4061002.12577 49198.5404052,-4061007.05511 49271.6339395,-4061029.85675 49319.242419,-4061044.47165 49330.2148037,-4061048.19027 49415.0243514,-4061074.65848 49453.2517596,-4061086.93845 49462.66734,-4061089.76916 49562.5197329,-4061121.16651 49604.5351808,-4061134.17855 49576.3760016,-4061159.0644 49508.9298596,-4061213.59906 49495.9514565,-4061223.97208 49416.7318876,-4061288.29756 49321.9450872,-4061365.17007 49265.8109646,-4061410.44495 49232.8316011,-4061437.66063 49214.92357,-4061452.36403 49261.0252366,-4061566.73835 49311.3249965,-4061691.28318 49362.5418536,-4061818.25517 49409.5956401,-4061935.55217 49415.8752321,-4061950.56021 49456.194005,-4062049.89117 49500.780131,-4062160.38433 49509.3603563,-4062176.22825 49422.9217868,-4062215.64727 49397.5471404,-4062226.88601 49287.6133086,-4062275.9179 49180.0893455,-4062323.78514 49164.6373473,-4062330.84327 49079.0861965,-4062368.70589 49056.6173308,-4062378.74532 49048.1129103,-4062381.83047 49041.5919226,-4062384.77713 48949.7217574,-4062432.05006 48936.7490043,-4062438.93513 48847.2887649,-4062485.0434 48837.2219127,-4062490.72904 48726.8147834,-4062547.26899 48664.5395493,-4062579.52075 48650.2176482,-4062588.49319 48622.9921804,-4062605.34251 48600.0217305,-4062618.90506 48503.7698203,-4062681.93128 48410.2852484,-4062741.77478 48390.007368,-4062754.65114 48282.6273259,-4062822.44106 48269.2624662,-4062830.8485 48153.90823,-4062902.1852 48124.059211,-4062920.71282 48033.3070476,-4062976.87824 48010.4403083,-4062991.92866 47984.9155433,-4063008.16128 47919.0134712,-4063049.13796 47821.1000635,-4063109.7901 47802.7362647,-4063121.53647 47792.6692798,-4063127.22231 47729.7076464,-4063167.49563 47676.5705776,-4063198.61206 47641.728057,-4063216.99038 47551.0266175,-4063263.18732 47460.1463841,-4063310.39344 47454.5823691,-4063312.77515 47442.8144141,-4063319.07813 47367.2132897,-4063356.74648 47309.9995031,-4063300.94694 47304.9078005,-4063295.8213 47249.0029589,-4063240.92683 47163.7127993,-4063157.68839 47151.124829,-4063145.11351 47053.033404,-4063049.81306 46954.6248052,-4062953.53786 46868.8388099,-4062870.33321 46856.2854713,-4062858.25408 46758.4420285,-4062762.93537 46659.8201601,-4062667.17239 46648.8237062,-4062655.98106 46562.4380045,-4062571.32253 46464.0641063,-4062475.5416 46366.1861039,-4062379.72573 46355.4722184,-4062369.01287 46268.1294156,-4062284.91862 46196.4883379,-4062215.17523 46116.8018206,-4062105.13274 46106.2376529,-4062089.42632 46029.6996604,-4061981.65522 46017.5786279,-4061965.06085 45960.7562408,-4061886.30953 45948.000876,-4061867.76619 45935.032188,-4061849.73604 45852.2725532,-4061734.92412 45775.8387867,-4061628.63977 45670.8861454,-4061702.73828 45658.5815275,-4061712.06834 45590.006506,-4061761.20414 45575.2570546,-4061771.20318 45507.6045216,-4061819.27811 45493.8468344,-4061829.20795 45479.3799281,-4061839.6856 45450.6594378,-4061860.12773 45437.6109606,-4061869.50978 45412.4365474,-4061887.21287 45398.8921759,-4061896.62954 45376.1279679,-4061913.1678 45363.788699,-4061922.00205 45310.1762974,-4061960.62599 45294.6829677,-4061970.67705 45280.8560178,-4061979.61518 45143.8148809,-4062075.88724 45100.6273312,-4062106.80738 45091.1249078,-4062113.45044 45068.7526678,-4062128.46656 45055.490812,-4062138.36193 45028.6152948,-4062156.6823 45013.6524282,-4062167.19473 44990.3576209,-4062183.27192 44978.9408523,-4062191.04526 44959.7226526,-4062204.84464 44946.1435987,-4062213.76556 44911.4666168,-4062238.11203 44896.5037321,-4062248.62451 44871.1504699,-4062267.33701 44859.9470147,-4062274.59718 44841.0459775,-4062289.37109 44832.9273529,-4062294.42267 44820.1959801,-4062304.77938 44808.3179165,-4062313.08328 44795.2693546,-4062322.46552 44780.341072,-4062333.47393 44757.5074835,-4062349.02073 44718.3963929,-4062377.66341 44676.1312081,-4062407.52295 44635.9936742,-4062435.73905 44592.310007,-4062466.69433 44536.927953,-4062526.37194 44474.1308736,-4062594.04207 44417.7224024,-4062653.29327 44410.768652,-4062660.75517 44347.9369484,-4062727.92969 44282.0896438,-4062798.3048 44271.6936416,-4062809.9936 44232.7387887,-4062851.58213 44160.0280644,-4062784.40286 44117.661036,-4062745.00391 44087.2827163,-4062716.72751 44075.2940077,-4062705.60492 44054.4997303,-4062686.12738 44014.2547954,-4062648.57341 44001.4529907,-4062636.51092 43943.0663962,-4062581.78567 43872.904424,-4062515.42442 43861.7634325,-4062505.73752 43775.6511385,-4062425.04172 43669.0963817,-4062326.33829 43577.7883312,-4062239.02818 43564.138815,-4062225.52972 43492.3909094,-4062154.29512 43487.4608481,-4062158.62585 43458.6338548,-4062134.72545 43440.9824744,-4062121.00798 43431.8943359,-4062112.17427 43419.9402437,-4062101.54733 43356.738684,-4062045.66216 43320.0286918,-4062012.34546 43283.1053618,-4061979.54193 43245.8648432,-4061945.76386 43208.9068936,-4061912.46434 43173.2925604,-4061880.56596 43137.8456588,-4061854.63576 43124.7958975,-4061842.59022 43125.4359136,-4061841.05057 43169.1068445,-4061731.36085 43404.7560682,-4061134.36745 43446.5828402,-4061026.8009 43495.9460574,-4060902.264 43514.5820062,-4060855.11799 43520.3077252,-4060840.76545 43560.6761027,-4060737.28771 43669.4367814,-4060460.60587 43736.7625932,-4060289.96806 43754.3667817,-4060245.88439 43764.1462599,-4060221.7811 43783.5668335,-4060171.59093 43874.7598083,-4059939.49068 43877.7467305,-4059932.30585 43992.2363345,-4059641.2749 44111.8476064,-4059337.92842 44115.6880085,-4059328.69087 44118.1790885,-4059321.5407 44285.8321401,-4058881.79532 44424.816526,-4058516.80558 44530.5493787,-4058657.42881 44540.2306427,-4058671.20451 44589.7383746,-4058738.01287 44663.1697316,-4058837.03736 44673.3469152,-4058850.77841 44723.1372973,-4058918.06508 44782.8223856,-4058998.61404 44792.99959,-4059012.35504 44843.072613,-4059080.12004 44906.9267328,-4059166.85585 44977.0371916,-4059261.12793 45047.747409,-4059356.85287 45115.6668959,-4059448.28754 45186.163932,-4059544.52524 45246.0974384,-4059625.05566 45305.2179749,-4059704.64604 45317.8689587,-4059721.70233 45364.6211135,-4059784.71485 45424.3068555,-4059865.26209 45483.1104272,-4059943.87752" style="stroke-linejoin:round;stroke:#000;stroke-width:1px;fill:none" /></g></g></svg>