<svg xmlns="http://www.w3.org/2000/svg" baseProfile="full" height="59223.0466298" version="1.1" viewBox="46633.069174,4087165.331301,42526.251998,59223.046630" width="42526.2519979"><defs><style type="text/css">polyline,line,rect,path,polygon,.polygon{fill:none;stroke:#000;stroke-width:1px;stroke-linejoin:round;}</style></defs><g fill_rule="evenodd" transform="scale(1,-1)"><g class="id" id="06021"><polygon class="_06021" id="None" points="49279.2749254,-4098272.77602 50433.8860056,-4097107.16514 52515.745126,-4094994.50101 52628.2693371,-4094879.59172 52635.3876586,-4094872.24968 54693.3273685,-4092820.27897 55665.1264315,-4091851.0806 56648.3494966,-4090870.85681 56802.6127389,-4090717.44905 57435.0989991,-4090063.13464 57445.3268505,-4090073.10279 57506.3949941,-4090136.91845 57521.2015567,-4090153.64381 57548.9483336,-4090184.69276 58017.0664457,-4090625.87713 58345.8262274,-4090939.2898 58352.1719024,-4090946.45768 59006.9681808,-4090279.56334 60535.7078392,-4088707.84157 61877.2447255,-4087254.29212 61882.2715738,-4087255.03928 62074.6109285,-4087279.87269 62078.0447206,-4087283.69305 69482.9946053,-4094418.92585 68425.9730679,-4095515.48925 67274.0449442,-4096709.62879 66053.2141087,-4097977.60034 63605.7511717,-4100407.67703 69409.9573258,-4105957.96862 69687.9136313,-4106217.94002 70334.83539,-4106821.62155 70363.1555567,-4106844.14936 71111.761525,-4107535.5178 71130.6004928,-4107553.03261 70373.0430724,-4108414.22693 70368.7887926,-4108418.93053 70337.4908919,-4108451.43296 70757.2473946,-4108778.11819 72968.8864617,-4110816.41757 73028.7889195,-4110871.78181 74330.7657583,-4112081.59033 74656.1608707,-4112387.03429 74816.3572239,-4112537.13702 74851.4226863,-4112569.79929 76493.9199772,-4114083.22151 80018.9887027,-4117330.76318 80347.4168813,-4117632.01826 77437.3303349,-4120875.35605 77763.2775466,-4121196.18959 77983.8837409,-4121381.64125 78067.5571973,-4121453.25792 78114.140406,-4121546.19731 78183.703966,-4121684.3747 78352.1234674,-4121908.36955 78511.3341736,-4122122.8497 78598.6680411,-4122490.10909 78704.5768419,-4122750.67271 78913.0789898,-4122968.15573 79164.2875803,-4123077.72774 79521.241425,-4122988.91424 79767.5886856,-4123006.93961 79994.3818528,-4123171.6162 80178.0629666,-4123351.93211 80355.1015112,-4123464.73718 80315.6530806,-4123701.68554 80365.5645537,-4123910.18811 80505.9051573,-4124022.34587 80697.6955483,-4124061.57303 80869.5069246,-4123966.61699 81111.3650566,-4123831.21812 81413.9442357,-4123668.31807 81651.7656204,-4123655.84094 81830.5930217,-4123769.55037 82139.2533,-4123846.28998 82457.538219,-4123916.05907 82706.5563443,-4123982.33275 82711.9043926,-4123979.56916 82992.818036,-4123847.19402 83147.6834296,-4123757.58388 83194.4714384,-4123730.78413 83324.7371307,-4123657.87743 83350.9294963,-4123643.08957 83655.8523188,-4123586.32791 83666.4749452,-4123584.29637 83880.746221,-4123619.39674 84059.9095104,-4123645.78971 84137.2351434,-4123650.87389 84141.8887019,-4123654.13132 84147.4120892,-4123654.85078 84235.6774601,-4123708.7682 84244.1630307,-4123713.82793 84477.4022991,-4123848.23681 84577.2600104,-4123899.57449 84663.5524638,-4123934.13635 84669.3997916,-4123936.33594 84702.4665673,-4123944.14801 84811.984785,-4123949.60543 84853.3578589,-4123949.01781 84898.9119373,-4123952.2102 84942.2501558,-4123951.02476 85013.355379,-4123956.42181 85061.7230114,-4123965.95718 85126.0395537,-4123980.17621 85210.1926624,-4124016.84072 85214.2483544,-4124018.13289 85243.702919,-4124013.65618 85335.7750537,-4124004.52867 85367.8891015,-4123993.43329 85499.9515484,-4123946.37606 85537.6621534,-4123932.50469 85712.142169,-4123885.80504 85937.5370164,-4123943.78715 86141.913128,-4123945.96233 86284.8447066,-4124094.89221 86551.0042371,-4124194.71527 86766.4715,-4124189.3474 86934.3950428,-4124443.26372 87051.6967057,-4124578.51795 87153.2213713,-4124831.28886 87314.2963715,-4125063.10116 87444.7981327,-4125361.29865 87612.6993837,-4125614.71265 87615.6866433,-4125619.55019 87932.9892766,-4125586.10043 87937.7159475,-4125585.86222 88290.6284202,-4125581.04507 88295.5305951,-4125584.28965 88416.5592701,-4125645.02986 88573.8369969,-4125712.42256 88575.9525378,-4125714.80995 88666.9168248,-4125807.49197 88730.3038496,-4125867.64513 88784.2587066,-4125918.79635 86089.6276861,-4128865.97338 84028.6460766,-4131118.92151 84023.4443609,-4131114.69449 84016.9736055,-4131110.03267 83343.2139605,-4131839.92246 83357.6758996,-4131854.65661 83058.9009621,-4132171.5396 81946.4835464,-4133352.61066 80928.0723367,-4134454.1391 80919.8168654,-4134463.5356 80849.5938258,-4134539.91643 80801.9985643,-4134590.21131 80779.4436443,-4134612.80168 76962.2838494,-4138408.58941 76966.2424184,-4138412.8793 76706.6208144,-4138670.46262 76428.7211991,-4138946.43321 76151.5678207,-4139222.36806 75874.1402681,-4139497.81988 75596.4888656,-4139773.7839 75319.2845553,-4140048.7295 75041.8815634,-4140324.68494 74764.6768433,-4140599.63453 74486.8009818,-4140876.11678 74209.5958477,-4141151.07035 73932.2172151,-4141427.53142 73655.0368438,-4141702.98662 73377.6578033,-4141979.45168 73100.0045537,-4142255.43369 72822.5747336,-4142530.90745 72545.4187108,-4142806.86826 72268.2372922,-4143082.3334 71990.8320229,-4143358.31077 71713.650178,-4143633.77989 71436.244482,-4143909.76123 71159.0622069,-4144185.23431 70881.6560802,-4144461.21963 70604.0009056,-4144737.21953 70326.5943441,-4145013.20881 70049.4111967,-4145288.68981 69772.253031,-4145564.67045 69494.8206074,-4145840.168 69157.0318316,-4146175.10569 69153.0032632,-4146179.30132 69112.6167515,-4146219.267 67331.8193421,-4144499.23303 67328.2095809,-4144496.92098 67231.1495027,-4144403.04047 66532.9057987,-4143728.86036 62913.2310834,-4140303.89692 61498.3268843,-4139074.56831 61491.4288406,-4139066.43413 61315.4930469,-4138907.66569 58152.4361766,-4135862.89033 58126.2169193,-4135837.76695 59214.5206689,-4134577.21609 60111.3534616,-4133541.93037 60109.7597898,-4133540.01483 60111.899071,-4133537.91087 58813.8022158,-4132342.45148 57710.9292346,-4131327.22723 57712.5708984,-4131325.14839 57721.5509383,-4131315.21424 59624.4672886,-4129251.68382 59673.9202822,-4129198.293 60936.3524405,-4127866.71934 60974.7361478,-4127826.36283 61374.5192923,-4127407.52579 61372.9759707,-4127406.60561 61351.1919011,-4127385.24927 61296.1221235,-4127332.1386 61094.0678183,-4127139.73405 59170.9908762,-4125303.03888 58361.6520881,-4124525.94452 57662.3363559,-4125269.74612 55581.1850399,-4123277.20187 55555.4921164,-4123252.54644 55464.8886805,-4123147.82286 55055.1185202,-4122670.42951 55001.3026379,-4122572.83541 54758.1727402,-4122129.46703 54717.2570811,-4122055.17604 54712.0023301,-4122044.96105 54710.0848268,-4122041.56441 54708.1422744,-4122037.67001 54705.9758916,-4122034.28589 54698.7785911,-4122020.1765 54622.5006432,-4121803.44798 54359.2934568,-4121055.18534 54232.5492882,-4120693.28352 54230.2076681,-4120686.41501 54228.5390957,-4120683.00579 54209.5572752,-4120628.0702 53950.152462,-4119741.87918 53673.9436777,-4119503.76332 53185.2900547,-4119372.64159 52901.1244928,-4118991.20165 52685.4592416,-4118537.94777 52381.9303546,-4118510.79096 52105.0532754,-4118199.84064 51806.8262043,-4117905.93059 51382.252785,-4117674.76056 51091.7501606,-4117321.07186 51188.3717103,-4116647.0045 51338.4682034,-4116103.4954 51356.546203,-4116036.2151 51415.8291046,-4115612.04946 51322.678995,-4115237.96036 50988.8376732,-4115024.67432 50642.4351519,-4114849.44544 50192.8476795,-4114820.62708 50102.6638964,-4114783.73636 49793.8527014,-4114656.52067 49721.1707728,-4114640.20947 49689.1110129,-4114632.83692 49350.4672083,-4114557.52214 49036.9245249,-4114206.96717 48817.2462456,-4113872.157 48593.9444727,-4113698.72108 48143.9563939,-4113592.56098 47786.4851532,-4113256.67901 47645.1057762,-4112885.99038 47346.8945853,-4112398.40856 46954.6386001,-4111727.39728 46953.5577362,-4111134.06717 46815.5107438,-4110556.09376 46958.993383,-4109601.17783 47172.0662048,-4109351.93906 47379.9379812,-4109108.45213 47525.0343232,-4108852.14512 47787.2341737,-4108388.34802 48013.9582864,-4107505.63115 48084.3978995,-4106949.64842 48496.2709535,-4106683.96753 48944.6848706,-4106246.28276 49620.0901992,-4105782.25548 49749.1580441,-4105693.94423 50078.3007999,-4105271.23113 50218.6455877,-4104735.71705 50288.5725247,-4103845.42416 50196.7002189,-4103226.72844 50257.3240291,-4102519.05209 50341.4039553,-4101871.08526 50296.9438982,-4101371.78008 50134.2232126,-4101072.02043 50135.1366433,-4100940.72804 50137.5569014,-4100590.28317 50139.4847298,-4100319.7089 50116.5713594,-4099996.48195 50120.3713261,-4099808.15507 50119.4943454,-4099665.9736 50038.2205535,-4099423.01739 50037.3244196,-4099420.06801 50032.0721579,-4099404.86068 49967.8159843,-4098928.50129 49792.383819,-4098573.97873 49791.2886235,-4098572.03737 49788.8244338,-4098567.6693 49740.1641307,-4098527.68536 49526.9795979,-4098351.21034 49441.2338121,-4098323.06207 49281.365711,-4098274.66759 49279.2749254,-4098272.77602" style="stroke-linejoin:round;stroke:#000;stroke-width:1px;fill:none" /></g></g></svg>