<svg xmlns="http://www.w3.org/2000/svg" baseProfile="full" height="91497.6136127" version="1.1" viewBox="-44244.053166,4410653.135491,112854.173570,91497.613613" width="112854.17357"><defs><style type="text/css">polyline,line,rect,path,polygon,.polygon{fill:none;stroke:#000;stroke-width:1px;stroke-linejoin:round;}</style></defs><g fill_rule="evenodd" transform="scale(1,-1)"><g class="id" id="06084"><polygon class="_06084" id="None" points="-41465.0255368,-4430158.43171 -40725.6297845,-4430786.63589 -38826.0797754,-4432629.07008 -38738.7472202,-4432713.90991 -35553.7879449,-4429426.857 -35407.3055605,-4429276.16184 -32382.0625426,-4426324.20873 -32319.5153726,-4426263.28363 -31594.1704279,-4425528.30249 -27250.2954751,-4421127.20497 -26897.7402834,-4420761.65146 -26878.3005918,-4420741.4356 -24782.8892342,-4418498.01033 -25153.5198574,-4418132.04253 -18227.2674059,-4411000.76569 -18195.704947,-4410978.78555 -17907.0597712,-4410672.30979 -16495.5952825,-4412016.32654 -16422.2237648,-4412082.57429 -15569.2177135,-4412846.32442 -14655.0402998,-4413665.09357 -14225.5825571,-4414050.26106 -14126.0440133,-4414139.3098 -13731.068123,-4414488.71367 -9540.19968097,-4418554.92125 -9432.51498723,-4418618.97377 -9359.04496474,-4418663.23284 -9117.98347761,-4418806.67927 -8912.72376759,-4418928.93478 -8772.59744141,-4419012.39269 -8805.70113103,-4419233.69983 -6533.54996451,-4421458.3191 -6209.51714487,-4421775.71887 -6136.20589936,-4421844.94825 -4182.57450337,-4423685.77576 -4164.24674371,-4423703.08221 -4055.70866845,-4423808.0103 -3992.13560206,-4423869.36813 -3969.25956841,-4423895.37201 963.849363692,-4428753.49238 -3544.98290013,-4433287.42677 -3505.67308217,-4433328.3565 -3163.96162326,-4433683.51289 -3149.51997788,-4433698.56845 -2472.52904552,-4434480.1805 3042.81360032,-4439669.81533 3412.67770107,-4440020.11849 3887.67895936,-4440523.45781 4657.15108213,-4439834.25117 12317.156075,-4432236.31874 11435.7484915,-4431335.10792 12581.9872095,-4429896.71971 13483.5030785,-4428765.49769 13491.1355754,-4428756.02587 13519.1530984,-4428721.79306 13746.4882694,-4428443.23523 13779.6533618,-4428250.93544 13965.4513304,-4427528.26854 13978.9736146,-4427481.9819 14130.1865785,-4426956.69944 14207.5782992,-4426361.74743 14227.0354056,-4426212.75313 14312.4806966,-4425540.4179 14603.0145396,-4424576.98323 15785.4675233,-4423161.41783 15890.1716034,-4422991.02626 15897.5957953,-4422750.95797 15871.01119,-4422498.08057 15867.6790931,-4422465.34836 15882.4813307,-4422368.56765 15889.4859655,-4422353.14694 15920.1708401,-4422286.30275 15993.6899565,-4422178.79545 16032.6569969,-4422046.03468 16032.5847897,-4421903.77982 16017.6380092,-4421716.05045 16040.0103224,-4421581.35155 16069.6297375,-4421344.86282 16160.1766583,-4421101.00185 16197.5964011,-4421026.24247 16250.21061,-4420951.01514 16287.065895,-4420898.75379 16302.6753634,-4420853.83468 16287.6649817,-4420770.93229 16302.0766624,-4420711.11484 16328.7178745,-4420639.53763 16416.5245584,-4420497.68008 16582.6160874,-4420229.04741 16598.6271758,-4420017.88567 16610.1335735,-4419998.68479 16670.0112371,-4419916.0083 16667.6654039,-4419820.32064 16649.6191806,-4419717.14653 16640.0786468,-4419661.34961 16662.490569,-4419586.04909 16688.02992,-4419555.97231 16750.0004858,-4419482.64696 16842.6397804,-4419436.32088 16895.2098923,-4419376.07268 16932.6536432,-4419293.82625 17022.5913557,-4419083.45267 17090.0353318,-4418986.31987 17195.1168723,-4418896.27633 17345.2199584,-4418858.77375 17616.5565963,-4418698.75475 17869.5624665,-4418513.44858 18095.162126,-4418356.34163 18230.1977131,-4418238.93846 18240.6601368,-4418230.78578 18365.2004773,-4418175.94392 18477.5965484,-4418153.81961 18560.1643607,-4418161.04544 18683.6095024,-4418155.68809 18762.5041852,-4418101.2547 18822.5169858,-4418056.00875 18897.0867474,-4417996.3602 18980.0164808,-4417966.12804 19033.0144289,-4417955.76881 19055.195193,-4417951.36302 19167.6725416,-4417891.29992 19250.1504582,-4417846.12274 19347.6051668,-4417800.99123 19382.6307742,-4417751.34573 19400.0034934,-4417726.28234 19430.0190086,-4417613.56593 19437.6923322,-4417471.3246 19439.2021146,-4417459.74855 19457.6596214,-4417432.1206 19469.1214435,-4417400.44545 27006.3322411,-4424683.77023 27054.3882294,-4424729.1198 27461.7394194,-4425122.39606 27987.8476064,-4425628.87756 28005.9194453,-4425646.19187 35464.0473515,-4432827.05472 35568.0630134,-4432928.20644 35932.5487385,-4433279.21351 38637.8503984,-4435950.3889 39488.1790806,-4436759.35734 39495.3326826,-4436765.88643 39731.7562058,-4436990.80405 40794.6201488,-4438002.23289 44605.034976,-4441233.08972 45413.2764261,-4441961.29039 45804.3508272,-4442314.49322 48732.2900743,-4444951.74124 49278.155382,-4445486.0974 49320.738414,-4445527.77747 51254.5508666,-4447420.66317 53145.9748364,-4449095.63889 53164.4795868,-4449111.9155 53214.4901562,-4449156.60762 53338.4366414,-4449272.89704 56422.0899121,-4452175.47163 56492.6943927,-4452241.7883 56561.7127568,-4452306.70985 56831.6901722,-4452560.79885 58783.6134498,-4454397.2452 68251.3155704,-4463626.60124 68052.4352348,-4463838.41667 68014.8087399,-4463877.74854 65735.5175301,-4466241.63041 65731.0692719,-4466374.1095 65736.204164,-4466380.26413 65775.5271191,-4466437.09677 65755.5626741,-4466506.72227 65819.0974889,-4466575.46604 65861.1282029,-4466635.61621 65718.5408338,-4466741.56407 65712.2420075,-4466965.45053 65693.5979502,-4466958.6685 65625.2230821,-4466977.53375 65624.6483904,-4467053.89369 65625.1670577,-4467065.83255 65712.6177931,-4467103.10683 65713.1948544,-4467146.96783 65599.753931,-4467229.09272 65438.1162617,-4467225.02561 65258.7400077,-4467437.60111 65127.6386622,-4467473.97164 65074.1482309,-4467600.12972 65009.2763695,-4467700.58141 64870.6189219,-4467782.33514 64794.6735808,-4467788.21953 64759.0936429,-4467808.96637 64732.2903724,-4467907.96684 64745.3240197,-4468021.36489 64719.6377187,-4468102.83386 64689.335531,-4468139.70335 64540.3464813,-4468142.30684 64468.2837125,-4468216.28457 64440.7970919,-4468331.79181 64398.7415122,-4468360.43855 64265.1426207,-4468373.5257 64223.3819028,-4468461.0184 64207.7867183,-4468575.26206 63949.380543,-4468838.82612 63807.8429086,-4469092.87475 63629.7697235,-4469170.68437 62975.8990787,-4469455.71691 62495.5601379,-4469910.17423 62461.8374883,-4469994.65845 62348.5386785,-4470187.53161 62187.0343378,-4470259.28994 62143.0654049,-4470327.97162 61870.8740545,-4470594.43301 61823.4880929,-4470629.41178 61343.1269078,-4471056.44792 61210.5604343,-4471159.27185 61155.9533857,-4471202.19948 61074.0645606,-4471220.44321 61034.5993041,-4471223.48327 60804.1380175,-4471239.32052 60694.0745697,-4471319.74337 60649.1590678,-4471331.11656 60565.1619041,-4471351.49179 60510.1762616,-4471342.0614 60442.0811776,-4471330.48181 60224.0854348,-4471419.8507 60005.1274029,-4471509.78091 59897.2477926,-4471546.66098 59723.2858498,-4471618.72766 59710.2610883,-4471710.86339 59725.2246376,-4471823.14801 59358.639235,-4472084.22849 59110.7217821,-4472216.43721 58943.3358857,-4472301.55288 58798.8757358,-4472390.18139 58587.2285753,-4472423.26947 58465.8876729,-4472502.92607 58301.7577009,-4472553.4091 58148.2859026,-4472672.55338 58063.397728,-4472830.18649 57961.3806761,-4473027.8379 57782.8559885,-4473249.87557 57392.2831001,-4473556.91828 57327.470821,-4473704.77955 57213.340445,-4473966.07777 56878.0208409,-4474371.84447 56402.9763537,-4474552.626 56147.5555616,-4474824.03137 56147.3840996,-4474863.95601 56057.5915275,-4474941.58651 56019.9482891,-4474972.94957 55904.0729502,-4475021.32794 55843.9192597,-4475152.42936 55749.1128126,-4475190.96872 55681.0252271,-4475218.30683 55595.5483237,-4475343.5569 55380.0526917,-4475382.88925 55264.6369506,-4475380.34845 55234.6209884,-4475324.90616 55183.9971987,-4475325.1749 55075.204782,-4475375.09351 55046.0973122,-4475387.94569 54914.1872517,-4475400.43776 54799.5503319,-4475367.41192 54437.5387887,-4475432.65099 54298.1787887,-4475608.2756 54216.5256168,-4475816.10521 54125.0330426,-4475882.87182 54102.1306623,-4476100.38706 54097.2026204,-4476217.45571 54021.5625748,-4476274.71932 53956.1326361,-4476327.83238 53883.2604771,-4476466.74362 53739.1640348,-4476808.824 53566.1138132,-4476844.92606 53437.3102922,-4476859.21623 53267.1436647,-4476909.10297 53194.1732558,-4477092.9275 53054.785341,-4477206.1925 53011.3708768,-4477240.92374 52856.3224567,-4477366.67468 52907.6727953,-4477640.77825 52874.2582721,-4477911.8648 52731.7314013,-4478181.5052 52484.2903179,-4478232.38657 52312.2631088,-4478268.92537 52286.7905313,-4478361.37701 52278.2531278,-4478426.29228 52210.2341313,-4478741.02665 51807.9730198,-4479002.47416 47960.0767602,-4482903.19345 47900.5922231,-4482963.41822 47602.5997593,-4483244.12175 46885.8325488,-4483921.11565 43678.5226678,-4487086.84762 43517.07451,-4487260.45679 43371.9281856,-4487416.04684 43343.5318657,-4487443.83047 36982.09909,-4493674.44478 28507.0531538,-4501920.28337 28489.8683951,-4501905.42372 28428.5079832,-4501825.04209 28422.5444604,-4501798.47436 28409.4855248,-4501739.42244 28451.4089437,-4501454.1898 28499.4382106,-4501216.97949 28543.8898904,-4501101.79291 28584.3225286,-4501009.3283 28588.3036056,-4500928.20894 28638.9659657,-4500631.43104 28634.8405638,-4500509.9069 28602.8173593,-4500362.23709 28554.9315564,-4500123.75169 28585.8335775,-4500034.40067 28632.2767855,-4499961.51358 28585.8380244,-4499841.73082 28558.948701,-4499808.03247 28526.8867854,-4499767.68096 28446.4540006,-4499785.86604 28245.2819314,-4499554.30867 28016.4732528,-4499609.05298 27857.484469,-4499581.90946 27742.8350005,-4499499.48472 27627.8637082,-4499412.08904 27529.5052782,-4499292.1712 27398.246201,-4499145.93115 27299.375532,-4498991.10518 27014.2860062,-4499028.52628 26828.8724848,-4498897.76955 26603.275485,-4498805.55216 26228.4620331,-4498736.96817 25846.4150945,-4498390.81888 25533.406172,-4497873.47837 25148.3930203,-4497477.59704 24675.4597664,-4497215.68557 24569.2758023,-4496955.50118 24328.4457349,-4496747.45424 24089.3180089,-4496507.84812 23972.8988497,-4496255.31144 23725.9107362,-4495843.99706 23387.2558334,-4495674.71731 23114.2996076,-4495467.74219 22869.8840093,-4495138.6184 22869.3365123,-4494798.21608 22644.8823811,-4494430.36056 22453.7220603,-4494314.93096 22259.7909106,-4494284.04104 22210.8329111,-4494275.72527 22116.6881349,-4494163.00738 22058.7894298,-4493970.07385 22056.187084,-4493813.9989 21949.7359302,-4493642.17425 21865.7917849,-4493474.88442 21775.1873271,-4493389.89042 21664.3527669,-4493231.32669 21558.8543662,-4493039.47161 21522.7033857,-4492711.84913 21462.7509871,-4492618.38349 21322.8423274,-4492508.12116 21078.3095131,-4492485.98694 20717.6773112,-4492181.32827 20077.2876832,-4491788.41649 19823.4009572,-4491752.90583 19723.2687767,-4491644.06253 19720.2776692,-4491640.26226 19513.7268948,-4491417.98902 19478.8250331,-4491341.37149 19370.7854107,-4491299.43085 19228.198684,-4491290.67217 19053.6842427,-4491289.96654 18833.7092317,-4491141.93948 18812.2831819,-4490941.64796 18601.3819086,-4490852.93706 18284.715908,-4490904.34452 18266.809696,-4490886.03246 18176.3081656,-4490791.04028 18085.8934067,-4490678.07101 17886.2720615,-4490485.79372 17634.8172331,-4490352.77432 17611.6643988,-4490083.20187 17366.3995852,-4489833.4659 17336.7217837,-4489802.93429 17330.3698533,-4489781.87869 17268.3505491,-4489575.21928 17102.8741362,-4489409.18682 16958.2399179,-4489283.74115 16682.8968727,-4488989.51633 16424.218209,-4488729.15812 16269.7224957,-4488462.57074 16023.7698696,-4488376.11211 15468.2462043,-4488064.52422 15434.8827437,-4487903.4345 15312.6733213,-4487908.8278 15157.4208655,-4487742.62647 14901.1813658,-4487520.04172 14757.3956337,-4487353.59776 14327.8618193,-4486940.50989 13890.8255893,-4486658.69827 13402.3722021,-4486353.74213 13133.814693,-4486079.52298 12944.8760829,-4485898.0136 12835.3955182,-4485775.77717 12617.325517,-4485695.99222 12549.3664629,-4485667.92699 12516.3692253,-4485655.57829 12486.9162718,-4485643.99936 12392.8480161,-4485613.62473 12389.7286894,-4485607.8352 12353.1948956,-4485536.80508 12340.3727995,-4485512.17145 12335.8819791,-4485365.18738 12090.2830742,-4485056.03098 11760.8150295,-4484890.07214 11435.9018953,-4484608.99303 11080.3016923,-4484243.02302 10689.9166703,-4483840.8514 10357.248117,-4483613.68297 10104.7516286,-4483429.76914 9860.23344618,-4483257.32147 9289.28034511,-4482946.66108 9220.32209359,-4482790.84806 9189.91641702,-4482721.91496 9179.41204616,-4482706.11698 8977.76874908,-4482401.09485 8709.37714707,-4482226.18618 8439.28186274,-4482117.7869 8000.35466,-4481764.15155 7228.46588695,-4481178.84798 6327.95888936,-4480185.93163 6172.78090199,-4480024.68247 6108.84777941,-4479958.40538 5434.85288644,-4479257.42075 5336.42946957,-4479357.1256 5311.27034412,-4479381.21378 5071.80420836,-4479624.31078 4305.4610546,-4480392.1493 1545.4295382,-4483266.71758 -1719.93592142,-4486571.05368 -2226.91762223,-4486046.00885 -5422.49217607,-4482897.01479 -7954.89210012,-4485469.67139 -7960.77925814,-4485463.55929 -7977.4391471,-4485480.11394 -11989.3202124,-4481580.91792 -12585.1816958,-4482164.64306 -13088.1548483,-4481702.15498 -15385.6160408,-4479589.86964 -16389.5634301,-4478668.68809 -16302.1709015,-4478571.66921 -17123.097504,-4477751.05066 -22780.4858701,-4472218.27911 -22949.9937309,-4472059.86671 -23014.303044,-4471999.57325 -23182.9157274,-4471820.12568 -23195.4997647,-4471806.95028 -23203.9411125,-4471815.48412 -26525.3472435,-4475154.69009 -28185.87807,-4476838.86926 -28507.2932574,-4477153.24787 -28626.8772039,-4477270.33034 -28628.3054536,-4477271.42122 -28826.7523485,-4477078.90363 -30115.2220884,-4475820.681 -36521.4444135,-4469534.64602 -36898.9284424,-4469167.77006 -36959.3546057,-4469109.71083 -37458.3988943,-4468576.8038 -33505.5425007,-4464632.05628 -37497.7135498,-4460637.37424 -40145.1662488,-4457938.84057 -40147.8131636,-4457936.51257 -40108.817583,-4457898.04621 -40014.3390969,-4457805.57018 -40020.2579644,-4457798.95612 -41309.7006161,-4456413.45955 -40805.5933494,-4455919.58018 -40645.1031938,-4455761.93253 -40616.6624742,-4455734.13419 -40592.2273073,-4455710.08928 -40473.8276231,-4455601.09672 -38480.6965844,-4453745.53354 -37099.8489085,-4452309.39516 -36393.9675586,-4451573.37099 -35805.376053,-4450959.75457 -35384.0484205,-4450526.68501 -32701.1056656,-4447871.99251 -32134.1097233,-4447311.25838 -31397.6264949,-4446581.35578 -30898.6550631,-4446089.42252 -30897.2263943,-4446088.33219 -30888.7816586,-4446079.80047 -30898.1231646,-4446070.40859 -37418.5734552,-4439575.29901 -38139.0395092,-4438857.0733 -40368.5253105,-4436617.75318 -41713.8755925,-4435266.00023 -44175.4732958,-4432806.01137 -43466.8916799,-4432104.90903 -41488.174585,-4430147.91924 -41471.6098861,-4430164.84589 -41465.0255368,-4430158.43171" style="stroke-linejoin:round;stroke:#000;stroke-width:1px;fill:none" /></g></g></svg>