<svg xmlns="http://www.w3.org/2000/svg" baseProfile="full" height="101201.637715" version="1.1" viewBox="24213.477220,4233086.409458,108220.134256,101201.637715" width="108220.134256"><defs><style type="text/css">polyline,line,rect,path,polygon,.polygon{fill:none;stroke:#000;stroke-width:1px;stroke-linejoin:round;}</style></defs><g fill_rule="evenodd" transform="scale(1,-1)"><g class="id" id="06105"><polygon class="_06105" id="None" points="86958.8918392,-4237407.45 87018.2114859,-4237466.42135 87068.5902212,-4237514.27743 92894.4022274,-4243092.91663 93093.7582972,-4242884.58972 97403.358194,-4238414.06117 101911.845176,-4233912.3816 102132.949919,-4233692.72679 102175.833715,-4233649.05025 109582.142341,-4241068.19456 109733.326536,-4240921.27158 110002.583078,-4240659.7239 110009.594542,-4240666.42347 111796.815676,-4242394.27151 111828.512108,-4242424.91144 116749.672453,-4247119.09723 117606.71325,-4247946.22117 117631.138611,-4247921.26692 122894.514272,-4242895.74851 127959.429196,-4247728.08656 127979.901152,-4247746.70551 132165.729833,-4251741.45816 132052.104925,-4251817.46966 131996.954145,-4251974.89801 131599.470774,-4252264.13223 131393.211156,-4252823.9123 131147.097227,-4253117.91008 130593.842814,-4253440.99411 130252.666529,-4253576.75119 130063.63797,-4253772.61492 129808.442014,-4253942.75964 129500.365996,-4254040.23867 129023.183321,-4254369.18943 128623.720179,-4254774.28052 128653.834903,-4254808.96619 128520.552619,-4255074.39208 128632.641837,-4255525.31493 128661.909322,-4255970.16241 128422.263328,-4256245.45256 128285.592396,-4256452.64491 128197.621797,-4256830.96759 127880.82795,-4256965.24061 127702.570544,-4257362.24814 127586.4922,-4257445.35759 127527.747596,-4257624.40086 127488.049385,-4257775.21878 127432.015126,-4257971.61411 127359.649479,-4258165.18908 127312.815964,-4258269.89914 127203.665456,-4258321.2915 127133.997028,-4258477.33523 126954.725215,-4258637.3907 126822.933429,-4258847.88259 126693.371599,-4258918.5772 126616.887512,-4259133.28021 126484.820856,-4259355.26096 126288.066085,-4259490.59261 126119.28027,-4259723.5665 125942.784612,-4259769.25157 125645.671902,-4259842.35526 125264.613575,-4259985.27688 125053.882803,-4260217.48673 124897.467563,-4260405.54858 124646.155077,-4260567.08187 124493.979793,-4260785.40752 124374.253495,-4261113.16789 124309.089031,-4261317.93244 124203.916526,-4261465.96612 124009.669214,-4261432.05323 123807.1717,-4261549.16839 123651.12932,-4261740.21401 123520.072575,-4261938.21467 123505.583828,-4262161.85119 123528.08094,-4262429.37038 123477.970987,-4262624.03743 123303.385177,-4263018.93137 123021.688435,-4263314.95351 122650.436349,-4263514.37429 122373.517439,-4263708.41207 122200.266893,-4263863.24989 122026.720767,-4264029.07807 121843.886827,-4264217.7439 121565.771375,-4264346.46846 121262.944501,-4264408.35065 120880.329049,-4264338.297 120631.379243,-4264357.54066 120349.150473,-4264392.6269 120185.935477,-4264470.21149 119998.754953,-4264577.72581 119883.280769,-4264742.1636 119872.319081,-4264984.62684 119898.45147,-4265315.87836 119903.81485,-4265488.30858 119933.690409,-4265662.22297 119886.346036,-4265760.48085 119766.403374,-4265846.76289 119563.275006,-4265827.69491 119313.155806,-4265758.17004 119077.775,-4265731.44974 118854.582869,-4265788.55742 118618.494806,-4265908.07319 118201.219573,-4266141.34942 117713.776271,-4266252.27156 117138.788906,-4266539.46264 117135.155433,-4266542.10755 116999.486478,-4266604.09154 116837.80317,-4266731.02213 116688.750689,-4266831.48357 116372.595287,-4266812.58811 116148.457093,-4266883.21258 115979.667483,-4267025.40854 115545.702609,-4267187.02787 115397.042232,-4267339.37339 115186.041816,-4267407.96086 115003.707965,-4267421.4716 114646.783831,-4267442.68445 114292.393636,-4267507.20812 114001.707813,-4267464.80715 113772.472008,-4267551.11523 113597.70439,-4267633.18031 113440.124921,-4267762.94253 113409.649817,-4267925.387 113322.311151,-4268215.43499 113272.668241,-4268245.92837 113165.118818,-4268312.24658 113009.536212,-4268484.34616 112769.201845,-4268549.65741 112629.863009,-4268692.14372 112402.362681,-4268687.55993 112245.674443,-4268766.38718 112084.605714,-4268793.49545 111872.721803,-4268768.30568 111770.808566,-4268856.35074 111640.753889,-4268981.98756 111564.21577,-4269152.82481 111359.315296,-4269314.98778 111120.363554,-4269498.51896 110923.99814,-4269758.6433 110636.451275,-4269998.08006 110287.090879,-4270281.49177 110044.161913,-4270495.63421 109867.651168,-4270674.59674 109681.142483,-4270889.40568 109566.377611,-4271095.26396 109634.021797,-4271397.89139 109711.958058,-4271599.28444 109733.852382,-4271845.41163 109635.236807,-4272001.19769 109609.694921,-4272143.98427 109395.05914,-4272366.44694 109317.895147,-4272618.66393 109196.21887,-4272771.9111 108918.772399,-4272983.99629 108762.820652,-4273147.14504 108565.84895,-4273313.98574 108271.056841,-4273498.84349 108038.096635,-4273766.98607 107867.209389,-4273774.04874 107796.403256,-4274017.02563 107618.382487,-4274249.96173 107433.879441,-4274374.37 107222.48226,-4274469.94639 106943.052464,-4274772.95454 106915.189868,-4274913.84625 106862.231895,-4275178.04808 106644.762184,-4275567.33281 106446.6793,-4275900.42062 106468.092189,-4276200.97576 106683.532226,-4276323.821 107319.745991,-4276538.55857 107639.94913,-4276744.90426 107866.265245,-4277004.04061 107773.439387,-4277329.77864 107571.581378,-4277613.61522 107454.620199,-4277778.15638 107364.132383,-4278504.05407 107355.302688,-4279050.40196 107071.813101,-4279532.26124 106738.109855,-4279855.99994 106292.401893,-4280295.17344 105798.669835,-4280846.13758 105547.41279,-4281124.04971 105406.791525,-4281530.63627 105181.79621,-4282062.99478 105090.830087,-4282577.82539 104923.359618,-4283131.26239 104475.983198,-4283632.4184 104247.333533,-4284118.52489 104047.362669,-4284471.68516 103590.523024,-4285069.57078 103188.603046,-4285523.44207 102970.673358,-4286003.12751 102642.514825,-4286352.13088 102496.943931,-4286903.6856 102299.710091,-4287310.64943 101770.30628,-4287536.74464 101510.748829,-4287957.27948 101214.601127,-4288205.64513 100828.428324,-4288377.391 100429.320392,-4288670.46058 100043.462677,-4288928.0447 99972.4331906,-4288972.41908 99797.90155,-4289078.48744 99683.7478035,-4289148.11034 99316.061667,-4289356.52962 99023.5763307,-4289398.61624 98771.3784847,-4289365.16063 98515.0451435,-4289352.34052 98239.9464226,-4289446.61308 97908.5269951,-4289639.05644 97666.3791232,-4289835.78175 98314.6731485,-4290459.23418 100140.492467,-4292022.53386 101261.912242,-4293017.60148 95983.0691085,-4298424.51058 99003.6928204,-4301508.73683 98602.7662547,-4301883.30963 95589.1880474,-4304698.7285 91202.9189245,-4308796.56152 90696.5520574,-4309270.44214 90557.9025341,-4309399.02543 84608.9435588,-4315091.17611 84529.4632976,-4315154.40294 84199.4222978,-4315469.72121 83890.8288981,-4315766.67274 82033.6998699,-4317570.62246 71783.5128849,-4327521.59341 70821.1678911,-4328440.68492 68743.2859945,-4330478.08131 68397.6764844,-4330815.62915 68376.3733242,-4330837.49369 66606.1434235,-4332549.50886 56497.3244753,-4322158.84221 56483.4307266,-4322172.90625 50072.9051629,-4328401.38159 44853.0695697,-4333413.03696 44673.6406261,-4333219.28121 44651.635208,-4333194.7318 44621.3393068,-4333163.03817 43243.1111207,-4331732.43557 42112.4915909,-4330561.13062 39904.3422821,-4328305.12593 33240.0601932,-4321495.24298 32751.8557337,-4320976.18943 32660.7020379,-4320880.5985 32656.8380422,-4320883.75683 30051.9816607,-4318192.35442 30064.1972428,-4318179.85655 30174.802596,-4318071.34409 34020.727055,-4314291.08844 31787.2997075,-4311979.20462 31058.1143316,-4312454.14482 31055.01866,-4312451.77642 31020.9038004,-4312418.2342 27902.0412651,-4309391.37605 27266.9139239,-4309972.78257 26669.1522546,-4309406.76488 26635.3903837,-4309375.70305 26627.5784133,-4309368.03629 27066.3909095,-4308942.16133 24301.119642,-4305961.3107 24290.1705996,-4305950.27746 24768.8378653,-4305485.28857 24928.9752589,-4305330.26899 25287.8557392,-4304981.66097 28175.4879801,-4302207.67602 31880.197822,-4298567.25501 32218.0875069,-4298236.54723 32544.0288441,-4297924.81852 32823.2640135,-4297637.00893 32862.2014948,-4297600.42824 32879.4886279,-4297583.72696 37103.8440568,-4293522.5034 39343.863002,-4291308.41292 39398.5911137,-4291255.19984 39665.5421706,-4290990.41164 44224.1961519,-4286688.63943 44570.9476011,-4286361.139 44552.4638703,-4286342.92746 46538.8676767,-4284384.86661 47520.7857726,-4283416.81978 47918.3395738,-4283025.81254 48290.3998059,-4282658.33649 48845.279596,-4282111.00587 53465.3277803,-4277793.00773 49748.7364233,-4274119.98182 51212.7238679,-4272731.66231 51807.9008652,-4272167.76061 52872.0461563,-4271158.04444 55355.7609165,-4268972.70629 55155.9540227,-4268698.81969 58445.7409422,-4265693.90156 58771.7645458,-4266031.98634 59154.9248059,-4265642.6877 59216.0350674,-4265580.74781 60715.532684,-4264061.40253 60989.7285955,-4263784.46321 61095.9078284,-4263677.2275 63899.7470873,-4260846.46104 64683.9814055,-4260005.79833 65767.1443206,-4258979.58895 65697.9986457,-4258913.03359 65675.6420418,-4258891.48569 65673.9590262,-4258893.05285 65671.5928988,-4258890.15449 65673.0472083,-4258889.09604 65715.7236381,-4258852.3888 72905.5963098,-4251594.33907 73376.3422792,-4251119.18182 75213.5726169,-4249265.41108 75263.1926558,-4249215.44655 78842.1856124,-4245602.40406 81650.6003963,-4242767.53267 86958.8918392,-4237407.45" style="stroke-linejoin:round;stroke:#000;stroke-width:1px;fill:none" /></g></g></svg>