<svg xmlns="http://www.w3.org/2000/svg" baseProfile="full" height="49022.6831924" version="1.1" viewBox="50250.107947,4113674.164955,51006.671798,49022.683192" width="51006.6717977"><defs><style type="text/css">polyline,line,rect,path,polygon,.polygon{fill:none;stroke:#000;stroke-width:1px;stroke-linejoin:round;}</style></defs><g fill_rule="evenodd" transform="scale(1,-1)"><g class="id" id="06119"><polygon class="_06119" id="None" points="50631.151227,-4140688.06306 50693.023847,-4140622.38259 50560.5091531,-4140471.80871 50459.5317166,-4140354.87938 50372.6001642,-4140263.86447 50922.4774006,-4139683.20851 51357.5840382,-4139205.87546 51772.8824011,-4138747.89246 52573.9072933,-4137952.63974 52856.6290106,-4137645.58567 53343.1243186,-4137105.84385 53721.6308847,-4137458.24906 54528.2721649,-4136608.82493 55210.3893626,-4135890.3215 56801.8574847,-4134189.63917 57117.3513357,-4133852.90095 57407.4011938,-4133543.87684 57422.1437356,-4133526.88901 57507.9750997,-4133430.13055 57875.5847258,-4133055.33283 58075.9373983,-4132851.81706 58184.2637313,-4132742.00917 59039.8202281,-4131819.998 59725.1982221,-4132479.03126 60297.3858925,-4133010.03734 61692.1515095,-4131625.41388 62358.8041181,-4130949.49968 63132.8206584,-4130164.3729 64244.2075824,-4129028.0946 64652.3739457,-4128607.15573 64846.091639,-4128408.63067 65646.7603901,-4127584.82189 65744.4502848,-4127486.74937 65759.3323591,-4127471.74836 65761.1751034,-4127469.62538 66115.9659507,-4127118.24082 66135.4548757,-4127097.93261 66152.3898423,-4127083.78313 66371.1350488,-4126844.64154 66508.4842779,-4126694.44922 66666.6694969,-4126521.86189 66806.8529394,-4126369.47817 66828.1145744,-4126346.05613 66954.4424138,-4126209.0993 67083.7849734,-4126065.45378 67287.8179814,-4125850.77353 67756.6008034,-4125335.92707 68231.9736291,-4124815.64202 68598.0585172,-4124419.65301 68658.1930795,-4124354.13258 68725.3779873,-4124282.63466 68794.761338,-4124206.99638 68866.2674554,-4124133.20105 68933.5223679,-4124062.69503 69263.7144304,-4123701.63003 69745.893335,-4123129.58222 68735.9211724,-4122202.06745 69767.0592151,-4121093.14113 69923.5480572,-4120924.68477 69938.8213815,-4120908.16458 70033.5813789,-4120803.84197 70955.4524731,-4119791.34186 71059.0011019,-4119677.43663 71740.6149411,-4118959.37393 72490.3029475,-4118168.28565 72916.2828081,-4117717.3398 73278.0620557,-4117323.72664 73508.5035106,-4117080.84032 74053.2995207,-4116506.47334 74410.9129645,-4116138.57273 74772.0507707,-4115750.00625 74949.9427635,-4115560.14735 75272.3808082,-4115216.15502 75461.5744706,-4115017.03562 76228.8547093,-4114192.93458 76430.7459701,-4113969.01951 76533.3739639,-4113856.19695 76664.0472129,-4114056.68588 76666.6998865,-4114058.98945 77219.5387823,-4114588.85383 77235.4198931,-4114602.17931 78319.987639,-4115637.96243 78363.8056793,-4115680.199 78368.2245681,-4115686.36252 78525.8494432,-4115838.12324 78680.5006869,-4115990.09268 78834.5166309,-4116140.11381 78987.0108483,-4116289.7433 79144.6706845,-4116441.99627 79296.5994663,-4116590.66786 79451.6765242,-4116741.60703 79610.5371899,-4116896.76121 79763.4921452,-4117045.85606 79821.9490051,-4117104.9886 79979.0434261,-4117256.2808 80233.1424282,-4117504.82676 80242.7618813,-4117514.10966 80018.7236342,-4117755.52469 79768.0439732,-4118021.73088 76404.504183,-4121643.42852 74916.8449165,-4123212.35227 75829.7313716,-4124099.27419 76025.4811876,-4124289.6717 76301.7520174,-4124541.12623 76303.8745276,-4124542.96872 76306.4226566,-4124543.78495 77572.4217178,-4125740.43399 77609.3500706,-4125776.67589 77901.6282104,-4126064.34146 77904.9870493,-4126069.58308 77909.1674139,-4126065.30305 78694.9310028,-4126823.6462 78702.8203461,-4126829.56371 79292.9846906,-4127385.54674 79337.0616278,-4127424.26966 79338.8636709,-4127428.62495 79670.9494655,-4127736.86878 79862.4947969,-4127917.07852 80262.3201882,-4128288.76292 80820.1263226,-4128802.67562 80828.0856845,-4128809.58378 81112.8855723,-4129061.88576 81828.1447664,-4128231.36003 82038.5415506,-4128424.67121 82213.2823278,-4128585.63843 82363.3697648,-4128721.9512 82390.0404021,-4128746.96006 82666.1275199,-4128995.88604 83245.668044,-4129535.62293 83641.9479431,-4129899.5541 83964.968731,-4130199.435 85001.0977061,-4131160.05164 85010.1530919,-4131168.37546 85361.2210685,-4131498.62877 85407.3838876,-4131538.69057 86249.9766175,-4132340.14294 86317.4688642,-4132400.10858 86544.5288106,-4132603.66347 86718.0019577,-4132753.73803 87384.7276886,-4133329.05751 88265.0401569,-4134086.44928 88405.6294976,-4134299.59912 88658.8056346,-4134682.06294 88785.82388,-4134865.29519 89025.1531894,-4135206.90316 89198.8225835,-4135444.09828 89199.4935837,-4135446.54073 89371.961937,-4135680.83155 89239.9033029,-4135820.16305 88853.2595217,-4136218.0642 88261.8865945,-4136833.16473 88120.4050611,-4136987.11362 87048.0471698,-4138158.73805 84686.3674331,-4140560.83875 83957.1365865,-4141296.87402 83954.7994058,-4141299.032 84032.4865489,-4141383.17039 84038.3946218,-4141389.22595 84050.2107678,-4141401.33707 84099.9882836,-4141450.1013 84101.650706,-4141452.47362 84102.7472704,-4141453.88998 84315.3359679,-4141663.42933 84318.9454529,-4141665.16547 84408.7187281,-4141716.07244 84416.1134596,-4141722.02247 84417.7758857,-4141724.39477 85514.2225103,-4142731.8364 85732.4798163,-4142930.00656 86057.7253181,-4143225.16964 86084.3660724,-4143249.67476 86607.8037659,-4142653.24143 86617.3660597,-4142640.61024 86842.9828409,-4142381.06633 86848.9325014,-4142373.67183 87840.0101449,-4141222.6567 88955.0015805,-4139929.92871 88967.4668064,-4139916.09667 90177.8405087,-4138627.1178 90208.3657176,-4138594.07842 90395.0908421,-4138397.0835 90881.4771045,-4137868.10679 90931.3731793,-4137813.27797 91312.5756143,-4137416.26055 91520.4037729,-4137200.84677 91539.4547174,-4137181.56952 91599.7599454,-4137119.03264 92218.9251108,-4136475.10074 93837.9909943,-4134797.80104 93841.3147248,-4134802.54517 95682.9931937,-4136647.92416 95838.7515767,-4136808.17746 95880.1313733,-4136851.05535 96594.738328,-4137575.69381 97547.4704246,-4138491.56451 98343.0244603,-4139255.23261 98628.3810937,-4139529.7636 99557.153953,-4140528.92346 100356.06066,-4141318.68546 100637.170954,-4141596.48452 100946.647221,-4141902.14171 100942.009588,-4141906.95191 100530.861336,-4142315.53109 93629.6542159,-4149188.79874 93591.9865844,-4149226.33464 93271.8831451,-4149542.89694 88687.9405531,-4154082.04729 87560.5190379,-4155168.31538 87523.2925037,-4155135.10665 87406.3987534,-4155081.17281 87312.4049518,-4155027.10278 87273.4414333,-4155004.47626 87213.7852869,-4154929.03629 87220.2531659,-4154823.98761 87211.4551487,-4154763.35497 87180.818643,-4154703.77865 87118.8615402,-4154630.99226 87041.0457299,-4154566.30699 86953.9929316,-4154497.79658 86840.6733128,-4154445.10054 86749.0900616,-4154375.91601 86711.4566526,-4154274.00526 86700.3542271,-4154229.9715 86663.1369181,-4154161.89794 86524.6264005,-4154070.15394 86506.7221396,-4154049.5141 86309.8272186,-4154432.08019 86107.4530306,-4154793.62313 86087.4145835,-4154812.97916 86061.1810177,-4154836.26249 81368.6537277,-4159037.45728 81367.3788219,-4159040.5367 78004.0636627,-4162268.92101 77811.7054505,-4162470.43124 77786.2198504,-4162448.33787 77044.4833775,-4161798.34597 76635.8597381,-4162208.55357 76630.3734966,-4162201.47254 76625.5595454,-4162196.83429 74122.4520515,-4159793.79647 74120.8944917,-4159792.91111 74118.0984613,-4159788.62686 73921.8235088,-4159606.832 73912.2662818,-4159598.54592 73166.9800138,-4160255.42137 72639.1727829,-4160720.46171 71687.2307978,-4161560.47974 71413.2313874,-4161812.16305 70892.8507133,-4162290.65116 70890.9740115,-4162292.27952 70428.04735,-4161857.47055 69663.9388558,-4161132.24343 69327.9224063,-4160814.41908 68655.0765346,-4160174.33325 68430.1809102,-4159961.67597 68231.9416192,-4159773.5235 67845.0566562,-4159405.99743 67113.3060835,-4158715.26916 67175.4609355,-4158643.58336 67575.16436,-4158183.66538 67720.8646406,-4158018.84469 67990.0440115,-4157629.00971 67991.4252343,-4157627.41674 67997.4105332,-4157620.51388 68023.5532054,-4157266.91608 68024.9024893,-4157250.8773 68034.698782,-4157150.53792 68030.4509037,-4157146.85463 67944.1490743,-4157068.3023 67518.8723791,-4156672.10417 67395.6186036,-4156543.36973 67387.5832694,-4156535.472 67258.5981523,-4156389.20914 67116.6153912,-4156256.32608 65566.02956,-4154798.25463 63389.2170226,-4152752.36601 62754.4241145,-4152149.27966 62596.5500642,-4151996.08073 62467.4878318,-4151876.7069 62443.4877834,-4151854.49693 62122.6366163,-4151560.41578 61160.2945639,-4150681.12721 60679.9741523,-4150239.41843 60442.9809509,-4150024.56458 60442.8400555,-4150022.58153 59404.1951234,-4149212.44062 59467.616217,-4149123.22934 59463.4035427,-4149120.04067 59462.8021245,-4149118.58858 59245.8455307,-4148919.24372 56097.9727927,-4146031.95654 55790.5403005,-4145744.33302 55787.1416587,-4145742.08272 55789.0193038,-4145740.45457 55192.0289195,-4145185.35704 54964.4190584,-4144972.78619 54795.0387343,-4144815.3806 54595.1810145,-4144628.7431 54593.5880492,-4144627.3612 54589.1592581,-4144631.66187 54528.557882,-4144574.66962 54022.9277796,-4144109.73967 53887.8121181,-4143985.77692 53881.3347372,-4143978.76172 53596.8174066,-4143687.49779 53247.7377418,-4143329.05257 51513.9168283,-4141555.87567 51485.493255,-4141527.49258 50884.6262423,-4140942.18789 50846.8576962,-4140904.99823 50785.7978716,-4140845.041 50631.151227,-4140688.06306" style="stroke-linejoin:round;stroke:#000;stroke-width:1px;fill:none" /></g></g></svg>