<svg xmlns="http://www.w3.org/2000/svg" baseProfile="full" height="63718.1070713" version="1.1" viewBox="-8539.162362,4215057.843121,82107.495632,63718.107071" width="82107.4956319"><defs><style type="text/css">polyline,line,rect,path,polygon,.polygon{fill:none;stroke:#000;stroke-width:1px;stroke-linejoin:round;}</style></defs><g fill_rule="evenodd" transform="scale(1,-1)"><g class="id" id="06168"><polygon class="_06168" id="None" points="57591.6187133,-4216889.21156 57581.1837031,-4216931.89476 57698.5221414,-4217529.72359 57546.9914782,-4217812.55035 57523.7222256,-4218195.87586 57500.2051998,-4218291.41932 57337.9596827,-4218613.47121 57256.8236631,-4219116.57852 57244.5807786,-4219524.894 57153.6188455,-4219902.3373 57027.4161105,-4220323.51075 57021.3069107,-4220558.04319 56915.8999134,-4220620.48828 56787.1284698,-4221058.80727 56839.4936952,-4221301.97637 56799.5873199,-4221543.27371 56741.7776487,-4221609.27528 56783.1953492,-4221725.37423 56840.6473286,-4221685.29484 56873.624592,-4221716.94015 56833.4020644,-4222063.32929 56620.6960253,-4222225.72794 56430.6391319,-4222560.54519 56276.5952925,-4223060.70803 56170.5213505,-4223726.2295 56039.3672721,-4223899.35421 56083.4275949,-4224216.90593 56092.403711,-4224507.46807 56009.9360284,-4224872.78083 55940.740926,-4225320.65854 55922.1169134,-4225687.19153 55879.794854,-4225765.86697 55565.0126029,-4226678.14826 55516.3089521,-4227175.13846 55509.3093212,-4227253.39663 55227.3320895,-4227801.97088 55302.4430063,-4227825.16375 55305.6216196,-4227906.06979 55236.3956178,-4228238.43602 55232.5032555,-4228257.67929 55095.6914324,-4228893.89618 55101.017838,-4229593.0998 55048.4352879,-4229764.74985 55056.7503909,-4230681.32154 55110.1581227,-4231009.06423 55185.5777044,-4231011.81067 55195.5241891,-4231180.79778 55256.8659322,-4231302.72276 55335.7405521,-4231359.46229 55337.982137,-4231573.90127 55374.1069761,-4232018.09748 55236.8189108,-4232400.40401 55231.3136881,-4232665.77773 55221.9196315,-4233530.03303 55323.6221247,-4234135.14412 55241.2139293,-4234258.96554 55262.9202507,-4234473.7926 55379.3032868,-4234580.71632 55412.5485787,-4234748.27956 55440.2478711,-4234794.2974 55451.6858534,-4235120.02257 55511.9397899,-4235222.61257 55515.9066325,-4235463.80108 55600.0241769,-4235771.07914 55686.6988355,-4236181.72326 55768.9271118,-4236381.5942 55768.9598958,-4236653.48316 55763.436896,-4236864.08259 55914.4041669,-4237021.9264 55793.6456255,-4237236.06289 55846.8843861,-4237301.88171 56014.4409903,-4237220.32545 56083.804185,-4237433.20739 56139.6282465,-4237620.81438 56250.4297925,-4237973.6888 56316.9966383,-4238291.37327 56325.1030465,-4238582.51292 56348.3376413,-4238761.3565 56385.2785432,-4238798.64118 56500.52863,-4238831.45054 56497.1854612,-4238893.47449 56575.8124307,-4238904.90779 56557.9450799,-4238990.04171 56460.6967675,-4239024.46549 56363.8335973,-4239039.43682 56339.3820628,-4239111.17181 56315.8305387,-4239248.06648 56286.7250186,-4239371.97488 56176.7583978,-4239439.3201 56180.858224,-4239525.13037 56271.3942567,-4239596.33154 56331.7964779,-4239676.49513 56380.0592256,-4239844.80589 56419.5556192,-4239882.87474 56435.4265935,-4239707.27471 56626.6013723,-4239501.75816 56821.4615312,-4239497.6143 56909.9485171,-4239664.59277 56788.6402032,-4239745.32405 56835.0125627,-4239963.08794 56940.407371,-4240003.18207 56899.0511128,-4240087.26869 56740.7634529,-4240299.03331 56566.441517,-4240340.82288 56530.7072997,-4240517.06811 56043.8590604,-4240675.80789 55849.6114728,-4240741.65411 55843.8670059,-4240997.59032 56105.1707985,-4241520.28546 56285.3571781,-4241880.86713 56375.7169143,-4242094.49929 56452.7351754,-4242231.0519 56487.066877,-4242290.95883 56673.3595048,-4242586.79294 56756.9439917,-4242766.62278 56628.219654,-4242787.72066 56755.8263017,-4242897.68132 56791.2321279,-4243079.00347 56949.2558381,-4243249.69061 56995.3137996,-4243529.72516 57081.7692941,-4243545.48389 57219.9948932,-4243741.70812 57150.6284268,-4243812.1792 57118.2341964,-4244004.58357 57059.217195,-4244067.72581 57068.744894,-4244249.19474 57172.8344799,-4244273.45347 57447.7964453,-4244683.9472 57715.6095984,-4245128.3918 57812.5714859,-4245481.89411 57925.0768811,-4245625.96091 57932.1590162,-4245771.77635 58000.0255342,-4245857.78756 58041.1307734,-4246035.64569 58068.4494388,-4246113.05977 58121.4970054,-4246170.4186 58084.7023351,-4246225.25071 57994.3367064,-4246270.57189 57982.8473935,-4246324.30658 58277.2867724,-4246645.03439 58298.3379846,-4246869.36724 58422.9359063,-4246918.81295 58425.0594445,-4247022.71105 58532.2749619,-4247126.87632 58514.5133739,-4247267.27698 58602.324645,-4247431.80663 58831.7272978,-4247839.07466 58833.8797675,-4247895.16581 58853.5330289,-4247903.99636 59022.3171419,-4248234.61333 59116.7007848,-4248442.41629 59220.0560734,-4248674.37375 59249.250166,-4248870.64147 59396.0945254,-4249086.54855 59402.6746943,-4249111.89745 59413.2255175,-4249263.39819 59488.3094812,-4249424.49464 59526.074994,-4249549.84011 59820.1500155,-4249962.1956 59991.2237056,-4249875.32905 60072.0196333,-4249912.95638 60187.4574734,-4250140.42131 60189.229086,-4250300.11632 60196.6482593,-4250377.67998 60250.8805261,-4250461.32577 60286.4285333,-4250656.06756 60376.5469765,-4250920.48384 60456.4381315,-4251283.84238 60717.0457912,-4251640.69495 60783.8396254,-4251743.71404 60875.4019519,-4251761.02617 60932.4042335,-4251829.99983 61038.765592,-4252007.91751 61237.3936484,-4252367.90636 61397.0125432,-4252960.17849 61679.115096,-4253372.00131 61870.3516964,-4253690.76753 62077.0198817,-4253877.29499 62109.8116209,-4254182.80024 62229.3747608,-4254531.90191 62476.0850789,-4254949.13501 62642.3479293,-4255386.97701 62610.955807,-4255662.94625 62933.2194057,-4255856.31007 63263.2312482,-4256251.18827 63476.8750564,-4256317.61995 63624.516557,-4256981.06269 63960.9124336,-4257620.87701 64163.0381753,-4257968.5889 64264.0723423,-4258340.12214 64430.2661328,-4258458.77952 64705.4761714,-4259117.09856 65358.4217512,-4260115.00572 65544.5172297,-4260113.49911 65839.0477977,-4260314.60361 66421.2311902,-4261107.73627 66745.7433133,-4261651.88869 67096.8770204,-4262204.77781 67420.4959781,-4262576.22 67645.2118139,-4262823.93034 67964.577048,-4263240.03121 68050.0396594,-4263399.72652 68325.6282423,-4263894.14272 68759.8837178,-4264296.70178 69093.3172321,-4264666.30847 69507.6227368,-4265104.36948 69882.659819,-4265549.17305 70218.9719876,-4265965.3255 70437.6482976,-4266158.24614 70862.5744377,-4266676.05702 70991.2614148,-4266870.48091 71211.0508348,-4267064.79593 71594.0659715,-4267653.29052 71800.5931904,-4267819.82673 72475.5653197,-4268506.49677 72807.2815418,-4268867.23243 73101.4336422,-4269135.50018 73171.7182132,-4269190.39087 73159.0282072,-4269187.46389 67458.8883968,-4267525.20039 67293.5741076,-4267477.20707 66524.5602485,-4267252.86302 53398.9804991,-4263425.11471 52467.4872119,-4263153.34815 51650.3529593,-4262915.4035 42081.4713202,-4260100.96008 42243.909833,-4259633.18481 42198.1529626,-4259622.03671 41736.1707692,-4259511.41856 40730.4080861,-4259271.05594 40045.0621732,-4259110.21151 31853.2249743,-4257126.14475 31436.3512903,-4257025.68023 31429.7412778,-4257054.12895 31353.1118139,-4257373.86736 28939.2941627,-4267480.88472 28924.5322734,-4267477.12843 28907.6676273,-4267472.05202 26343.9305076,-4266745.26265 26142.3700106,-4266688.25682 21943.3922417,-4265497.66993 21625.4832817,-4265407.9539 19328.6455912,-4264639.8198 18815.8435607,-4266560.69676 16531.1750724,-4275756.79366 16436.5983906,-4275734.26062 11060.8731343,-4274478.84508 11007.4213583,-4274675.19139 10577.9284746,-4276265.0775 9982.8684239,-4278476.39839 2946.64271229,-4274832.63142 2282.34947689,-4274205.89639 2280.24559386,-4274204.57576 3490.83838752,-4272797.83008 1666.60770968,-4271194.16973 1634.30992493,-4271165.44658 -1693.7331694,-4268238.30615 -6949.66566932,-4263478.93497 -8341.93510968,-4262237.73226 -8492.16304725,-4262103.60151 -8499.71152029,-4262096.74845 -7198.41265236,-4260659.14639 -4856.39279899,-4258062.98139 -4376.10747794,-4258480.36385 -3847.12653059,-4258967.98774 -1593.92987168,-4256763.2524 1198.74232433,-4253837.56895 2155.53445888,-4252918.41855 2340.13863441,-4252727.67391 2876.33242371,-4252159.39785 2879.09810195,-4252156.6766 2890.07887671,-4252144.80143 2495.76970014,-4251843.44886 2133.41839592,-4251566.8643 1620.50878636,-4251175.61807 576.515782367,-4250420.52836 -430.99786098,-4249642.45226 -441.101166092,-4249634.81327 -474.251423583,-4249601.66259 -536.676649898,-4249540.02568 -412.3457101,-4249440.01321 -185.842522817,-4249050.39797 -90.0939011701,-4248936.3002 -46.5342222593,-4248884.34396 -13.8746931764,-4248845.25306 -9.8280738021,-4248839.93347 38.1428472072,-4248793.09611 86.9811671478,-4248744.69161 121.989591934,-4248709.89314 173.180639986,-4248659.79876 209.674386816,-4248624.87758 229.449457933,-4248604.79817 233.205655445,-4248601.99512 263.095346048,-4248571.60801 326.176742395,-4248508.5669 405.440738288,-4248430.23012 471.447937244,-4248372.43084 562.076022922,-4248329.04631 618.76963491,-4248255.06861 656.684367267,-4248128.80661 668.409210085,-4248053.56212 672.508529828,-4248030.79113 704.012534044,-4247929.48549 740.72515756,-4247812.7947 786.439654285,-4247684.39316 838.816497804,-4247588.34137 903.54603016,-4247466.84275 958.550374023,-4247390.5137 959.376875533,-4247388.45143 995.502452647,-4247349.07565 1029.02574295,-4247314.4014 1058.8337599,-4247283.02523 1083.97722437,-4247255.52406 1126.12988317,-4247210.6654 1154.4935151,-4247179.90721 1203.16835533,-4247129.5247 1217.82481027,-4247113.85717 1263.6518084,-4247065.20562 1294.28632612,-4247031.76746 1336.89315524,-4246986.37311 1371.76285957,-4246974.01974 1420.55640361,-4246931.10503 1504.07260945,-4246910.24449 1594.76560603,-4246891.78168 1672.37324235,-4246883.87159 1735.23047384,-4246908.58492 1807.51931384,-4246956.94408 1844.21092965,-4247057.09641 1859.61269477,-4247098.69251 1866.63077755,-4247153.44355 1831.63161507,-4247236.59174 1830.22817665,-4247237.70471 1754.12304428,-4247281.88014 1713.75866546,-4247306.15292 1597.30489687,-4247350.67298 1496.82084646,-4247389.38673 1430.62926997,-4247414.79768 1403.55849916,-4247425.01119 1360.10449867,-4247442.06234 1295.68456958,-4247470.81633 1230.31530009,-4247500.14735 1161.06700166,-4247530.79605 1113.03015846,-4247552.71254 1094.90543225,-4247634.96563 1064.07727806,-4247774.59797 1129.97171056,-4247950.59954 1181.45234602,-4248024.60581 1279.30295375,-4248165.06472 1323.98294061,-4248229.16469 1404.25553319,-4248247.45211 1573.74923399,-4248289.76717 1738.9780075,-4248419.17035 1819.468685,-4248482.30256 1821.65375287,-4248484.61429 1878.01522047,-4248539.27333 1838.21440793,-4248522.12652 1933.01806697,-4248589.55828 1979.19107804,-4248641.57019 2050.00752962,-4248672.10361 2066.58743549,-4248679.70529 2070.71194234,-4248681.35816 2074.05478764,-4248679.58631 2154.26767008,-4248660.99022 2204.64821076,-4248649.34721 2329.6584738,-4248575.70388 2351.04853215,-4248545.02357 2401.34462182,-4248472.0751 2442.68045318,-4248411.33256 2454.15713996,-4248399.41717 2530.77882928,-4248319.30758 2597.38367502,-4248226.5676 2650.50044354,-4248193.7629 2694.17942318,-4248209.59198 2723.93778978,-4248316.29714 2758.63180951,-4248446.52081 2806.69988977,-4248629.97204 2809.29047298,-4248643.2166 2813.68233367,-4248678.24501 2822.32801999,-4248770.74452 2842.92641192,-4248881.19761 2858.95400623,-4248978.56986 2922.22731024,-4249062.56407 2998.74518265,-4249143.96741 3191.19811314,-4249277.09466 3408.10705406,-4249422.65397 3410.21021803,-4249423.97544 3589.40339809,-4249517.32299 3712.05665681,-4249577.96115 3735.13184755,-4249555.61558 3748.7037224,-4249556.98543 3898.05754178,-4249470.36178 3931.64842036,-4249454.62359 4047.3476648,-4249419.13468 4224.12749264,-4249278.40357 4236.18142762,-4249134.84683 4238.87281984,-4249119.17197 4251.978786,-4248813.52873 4252.15014865,-4248803.54536 4257.5913637,-4248616.17287 4258.94347553,-4248373.31116 4270.22812278,-4248274.68004 4308.57442944,-4248177.79915 4363.35181269,-4248062.61231 4423.59664146,-4247977.37959 4427.10697667,-4247971.60633 4555.28017986,-4247785.55258 4610.05413241,-4247676.34846 4619.85072721,-4247583.82277 4612.13109378,-4247466.32709 4612.79381792,-4247462.28466 4626.14997783,-4247352.51735 4652.84948452,-4247277.5358 4683.82513482,-4247224.13284 4677.22032539,-4247168.35351 4574.72345475,-4247140.43914 4555.67312771,-4247127.06026 4553.74063928,-4247055.44248 4582.75224205,-4246978.27611 4584.03284246,-4246975.67798 4649.13495294,-4246846.68001 4661.11454578,-4246822.76092 4712.42870463,-4246707.86278 4748.93244962,-4246655.00025 4884.71126964,-4246512.6847 4928.01922355,-4246463.74614 4977.96765982,-4246416.75107 5126.36861186,-4246276.38417 5128.63936303,-4246273.70425 5156.29347576,-4246252.47762 5378.3484984,-4246086.58494 5382.02261093,-4246082.79217 5511.41028685,-4245935.52488 5638.52313276,-4245796.91982 5640.13517003,-4245792.3006 5664.74136785,-4245704.03644 5700.23905131,-4245614.87233 5736.78030214,-4245508.17663 5737.60678555,-4245506.11456 5797.92299451,-4245439.82194 5830.03737582,-4245351.93472 5939.72518438,-4245237.69997 5956.79095155,-4245196.91305 6001.30207577,-4245138.40672 6064.45345703,-4245088.32905 6096.30501257,-4245081.70968 6112.859024,-4245064.89025 6297.18903144,-4245280.93398 6314.21301187,-4245299.96314 6389.47402174,-4245275.80039 6525.42630534,-4245238.14921 6660.2161996,-4245210.56289 6753.9656706,-4245174.90394 6891.46737977,-4245162.04666 6975.63777475,-4245197.45815 6984.17635478,-4245198.24788 6997.06708773,-4245287.89707 7025.80786144,-4245364.27413 7082.75877826,-4245389.9722 7141.91095772,-4245394.05584 7157.91616075,-4245394.72695 7168.39400468,-4245394.85796 7224.6659052,-4245388.21415 7238.42939342,-4245349.69464 7247.6022987,-4245328.00263 7219.05789275,-4245266.06408 7153.40987049,-4245171.30455 7151.59746831,-4245167.46688 7091.9961634,-4245097.62741 7097.34822528,-4245053.82179 7147.58617621,-4245004.31359 7183.29895585,-4245020.30297 7191.5878846,-4245024.10392 7211.89652693,-4245064.79225 7239.83127734,-4245113.32368 7323.90341999,-4245111.36097 7373.69448513,-4245110.73566 7380.85470643,-4245076.74939 7405.3099502,-4244968.56374 7408.90001598,-4244849.14316 7444.04102033,-4244797.89224 7448.95478378,-4244791.0067 7529.87588527,-4244811.23551 7544.88559887,-4244878.27957 7524.93913227,-4244968.64744 7495.08353461,-4245071.79641 7615.84204391,-4245049.35742 7733.86293938,-4245048.07849 7735.47078812,-4245049.4409 7796.77773456,-4245097.70636 7807.03353727,-4245179.59718 7811.15335136,-4245187.23152 7811.85292981,-4245189.66583 7790.46556191,-4245455.59773 7864.6810901,-4245448.96627 7938.92916996,-4245454.79268 8008.78709723,-4245485.90297 8013.94205868,-4245487.96908 8031.59613837,-4245430.18849 8133.9579405,-4245106.72769 8163.04836519,-4244976.22993 8147.7764737,-4244930.14194 8136.73550362,-4244850.80862 8149.47338014,-4244745.58638 8199.06997895,-4244609.90576 8212.59672906,-4244556.45415 8212.92816292,-4244554.43309 8282.65115904,-4244366.74979 8387.83602231,-4244083.43183 8426.53453269,-4243960.61489 8429.64437136,-4243823.29359 8419.29457201,-4243474.75916 8419.22146407,-4243461.8064 8424.78379628,-4243130.89768 8425.07876526,-4243122.40027 8478.67496919,-4242769.58188 8588.03472522,-4242373.78157 8598.66852632,-4242164.56713 8627.07543266,-4242074.00242 8690.76204497,-4242024.38472 8720.19147976,-4242000.52285 8842.3194613,-4241964.52059 8969.9608096,-4241947.0027 9099.67765199,-4241966.69399 9399.5781582,-4242224.52462 9418.37586758,-4242240.91484 9428.64882871,-4242238.57126 9549.03581189,-4242211.6837 9953.55741739,-4242118.96792 10442.0739143,-4241896.71153 10999.2399457,-4241763.4839 11454.0645982,-4241519.59467 11644.189034,-4241450.07025 11674.1075076,-4241432.14996 11872.9687801,-4241317.54865 12104.2773705,-4241167.37597 12273.5144984,-4241062.19953 12474.1449948,-4241005.26606 12623.5854678,-4240950.06744 12816.535767,-4240848.41676 12919.5595465,-4240756.18453 13022.6419953,-4240694.84676 13144.4789275,-4240703.72603 13264.1129122,-4240734.21693 13469.0172045,-4240747.20196 13600.4490092,-4240721.39989 14020.0881934,-4240510.33438 14058.8744936,-4240491.18475 14077.3755383,-4240461.74917 14337.8713033,-4240055.51124 14365.9277194,-4239990.90053 14427.3481416,-4239720.70469 14483.0562279,-4239477.89233 14538.1554082,-4239275.99595 14589.1347593,-4239120.78703 14615.9796743,-4238715.40341 14637.6435268,-4238651.81982 14681.7305725,-4238606.31996 14756.7058648,-4238566.74317 14812.8429219,-4238564.60235 15227.2048152,-4238603.66516 15253.3208403,-4238594.03475 15750.5082782,-4238416.95736 16036.3347315,-4238365.96189 16319.7665646,-4238316.161 16831.1693011,-4238094.06189 17164.4800732,-4238020.71185 17332.3312666,-4237983.44005 17878.5168142,-4237935.38139 18314.6511711,-4237797.73664 18750.7548055,-4237744.31128 19198.8335787,-4237769.62783 19700.23449,-4237795.0283 19985.2859038,-4237759.04967 20164.8288695,-4237736.76019 20393.6776426,-4237635.65738 20522.8699274,-4237353.42476 20553.3845933,-4237107.23951 20563.8161961,-4237010.20749 20712.0782636,-4236711.45559 21026.7537562,-4236406.45224 21460.1767115,-4236278.51535 21818.7886851,-4236246.44224 22329.0581887,-4236337.3913 22678.6163109,-4236473.48544 23196.3698482,-4236631.07922 23714.6881832,-4236698.93446 23974.6052416,-4236612.21847 23998.3652679,-4236604.27911 24069.4251232,-4236547.59375 24405.1271388,-4236274.25618 24620.7487456,-4236043.21395 24709.0779388,-4235948.23432 24881.0773588,-4235659.50729 24913.5349723,-4235509.34641 24934.3758019,-4235345.19623 24890.4938317,-4235157.48536 24823.1943434,-4235012.06422 24665.2536705,-4234867.14214 24496.0017513,-4234736.10669 24258.1400458,-4234449.79005 24170.6631193,-4234319.48333 24115.0889502,-4234207.47267 23984.4082553,-4233873.45052 23967.4925458,-4233601.79771 24009.999706,-4233380.05492 24081.8824103,-4233097.59462 24148.1250527,-4232897.8129 24219.9376672,-4232741.41937 24226.7137954,-4232726.9096 24295.4788383,-4232612.12312 24473.2206578,-4232332.40079 24477.7209108,-4232326.54907 24591.9567051,-4232183.10338 24624.8507305,-4232152.98838 24693.2002437,-4232087.56485 24804.330635,-4232003.16989 24852.2239222,-4231895.08826 24875.9963143,-4231693.82874 24928.1357495,-4231498.20392 25027.9987328,-4231379.86164 25171.1208672,-4231260.44643 25307.596311,-4231193.39712 25460.827096,-4231112.01312 25592.5977788,-4231048.34157 25746.4192562,-4230907.61887 25820.7150247,-4230745.04957 25834.9914162,-4230603.86767 25806.8306842,-4230467.6769 25775.975126,-4230347.1535 25742.0915821,-4230201.96742 25755.4691483,-4230140.57821 25831.8592931,-4229815.90988 25901.5692276,-4229192.35174 25902.3812612,-4228609.34669 25884.3914517,-4228366.69189 25859.0375086,-4228149.55533 25769.7025087,-4227706.00644 25769.9936582,-4227703.49128 25771.8354453,-4227592.73095 25775.7741759,-4227446.92142 25796.4300669,-4227243.93317 25879.3028527,-4227009.91501 25980.5611121,-4226823.70941 26143.2634176,-4226554.72243 26270.4825272,-4226387.30756 26389.4603514,-4226295.30632 26493.4659158,-4226287.74204 26569.9254896,-4226320.80866 26614.2345846,-4226380.93471 26645.4022862,-4226469.04668 26663.1633132,-4226521.39329 26726.4512669,-4226612.3416 26838.7558669,-4226675.33988 27004.3736304,-4226702.06278 27139.1354026,-4226698.94097 27222.6808942,-4226697.04584 27402.6139588,-4226716.11303 27536.8044208,-4226706.06301 27687.2028898,-4226693.18412 27795.4982107,-4226640.92442 27842.4061618,-4226617.63257 27956.1990617,-4226511.11328 28085.1652733,-4226364.98293 28196.1397379,-4226272.6466 28286.3160861,-4226236.3277 28419.6489893,-4226215.88689 28554.8717045,-4226242.62053 28683.3229858,-4226277.88272 28769.9540618,-4226361.92399 28953.4090323,-4226563.04475 29096.4399331,-4226696.74675 29241.3220184,-4226834.77948 29523.1647567,-4227032.77894 29704.2926941,-4227169.32012 30000.4339303,-4227292.9036 30122.1229604,-4227367.0799 30290.7329695,-4227527.06779 30293.1197729,-4227531.85323 30416.816822,-4227618.31808 30467.228571,-4227970.37624 30555.7983373,-4228053.75418 30685.0611724,-4228141.25369 30816.0295505,-4228255.51466 30952.7030147,-4228312.01331 31072.8895009,-4228277.20614 31150.2640225,-4228212.54608 31166.0695878,-4228198.78976 31209.9061747,-4228107.99687 31245.1330854,-4227967.09799 31254.5660459,-4227724.70039 31265.7455419,-4227551.90536 31277.4611603,-4227379.56453 31320.2108409,-4227263.45467 31348.336443,-4227175.45107 31398.7643457,-4227092.08782 31519.8437695,-4226947.1115 31686.4859712,-4226883.57399 31806.2342678,-4226873.71548 31979.6907152,-4226880.85708 32151.2487864,-4226889.15119 32352.2104835,-4226891.53721 32579.2518574,-4226871.84907 32712.4348466,-4226825.51418 32861.4408654,-4226747.4884 33023.6148991,-4226653.93204 33118.9405865,-4226613.70349 33300.7878044,-4226595.74423 33510.3091174,-4226569.03063 33622.7593965,-4226555.28992 33688.1450727,-4226520.51557 33770.1398424,-4226451.49529 33923.4216271,-4226383.08297 34090.7070826,-4226369.81021 34307.8904198,-4226387.79905 34359.2565264,-4226394.53002 34565.2967436,-4226422.40262 34721.7700368,-4226416.99384 34888.167564,-4226423.22184 35043.2189697,-4226436.85973 35200.9261627,-4226391.99542 35371.2078006,-4226306.24439 35490.3262702,-4226258.57945 35572.8691779,-4226256.76604 35671.4234872,-4226322.37851 35764.2151624,-4226378.50223 35890.6764387,-4226407.94313 36002.6042028,-4226375.81445 36056.5361064,-4226371.37467 36177.7422897,-4226336.9879 36240.1214453,-4226295.98673 36405.6996055,-4226292.31898 36578.5587736,-4226304.49029 36744.7875828,-4226308.73898 36899.6900209,-4226260.12161 37018.4264407,-4226219.9611 37116.3865668,-4226217.87458 37218.8041578,-4226251.78461 37294.9671402,-4226360.08457 37475.4810835,-4226465.27294 37573.1589687,-4226538.42631 37671.7508371,-4226604.53039 37769.9462131,-4226696.07125 37884.8127473,-4226772.29172 37930.9061339,-4226854.17414 37946.1083326,-4226948.06421 37935.5708159,-4227056.02856 37922.7804832,-4227191.07721 37927.4939579,-4227302.76718 37971.5221397,-4227347.45991 38048.2979362,-4227420.83782 38113.5483765,-4227517.58014 38157.6693243,-4227635.98712 38174.7587752,-4227740.68005 38142.505501,-4227881.31632 38141.0328372,-4227911.82314 38135.1713918,-4228003.96062 38159.4909536,-4228093.61254 38187.378689,-4228160.05685 38216.5820207,-4228230.37773 38225.0351503,-4228399.54162 38265.8519081,-4228526.19001 38316.1108834,-4228694.8991 38369.3210541,-4228838.95683 38457.5025746,-4228972.16365 38638.54253,-4229089.75081 38781.4948123,-4229113.83956 38857.0596951,-4229118.07527 39101.3148127,-4229132.32436 39115.2903304,-4229132.66745 39222.0234778,-4229091.99568 39316.2188037,-4229056.34179 39399.4639779,-4228960.32207 39457.5761017,-4228891.77669 39506.0604981,-4228803.1038 39507.713489,-4228798.98274 39508.9002889,-4228765.01336 39512.926274,-4228650.6141 39528.8673767,-4228535.73159 39584.133593,-4228468.91563 39648.7306397,-4228430.71979 39753.8088784,-4228267.15308 39831.4901534,-4228170.0994 39867.9323008,-4228044.06539 39898.5599276,-4227920.00476 39967.2603887,-4227816.71802 40034.5173959,-4227756.38753 40130.2835709,-4227715.62603 40273.1961816,-4227690.90625 40378.3271676,-4227685.23719 40527.2982331,-4227703.85149 40634.6986995,-4227780.182 40703.9456208,-4227877.08782 40748.7988134,-4227962.05561 40834.6866199,-4228031.19125 40839.3430374,-4228033.29825 40967.6387419,-4228073.03986 41067.3785185,-4228056.35771 41153.1489391,-4228033.35467 41260.0240165,-4227970.26024 41381.2581004,-4227936.36718 41514.0396412,-4227897.5385 41728.8244542,-4227765.78691 41870.0855062,-4227696.87324 41996.4111538,-4227640.14779 42130.5532707,-4227599.7138 42280.86401,-4227549.97911 42405.029532,-4227467.03379 42579.6923865,-4227301.73168 42780.4008449,-4227144.24754 42859.9998369,-4227064.4755 42882.6123321,-4227000.35374 42888.2182987,-4226917.21117 42918.1545746,-4226742.41133 42926.6027475,-4226578.84443 42953.528119,-4226282.76222 42955.4924128,-4226173.52173 42984.1360334,-4226097.94643 43053.3804895,-4226067.84025 43146.9524487,-4226073.087 43231.5078607,-4226107.96428 43327.319545,-4226140.42054 43502.222572,-4226147.43867 43635.2788757,-4226118.05614 43761.9694492,-4226023.45269 43812.4102915,-4225916.2001 43832.2844752,-4225788.55285 43870.7062495,-4225704.70308 43948.7580865,-4225606.13573 44081.4425295,-4225535.94396 44184.1044722,-4225518.52823 44434.2471907,-4225513.87588 44655.0953504,-4225534.54554 44773.1417438,-4225589.0781 44945.9103308,-4225745.69006 45092.8334134,-4225860.59971 45199.9323235,-4225897.10615 45319.2249439,-4225900.23507 45483.4775473,-4225874.76008 45631.5387768,-4225840.15901 45847.5059314,-4225831.8431 45976.3725073,-4225781.88876 46031.9078776,-4225730.50059 46032.7825043,-4225680.62388 46033.657178,-4225630.74718 45990.959529,-4225541.62519 45915.076669,-4225454.73666 45838.1654306,-4225325.10037 45805.2849791,-4225270.53124 45807.3287591,-4225246.95473 45881.5532257,-4224375.73704 45922.5108017,-4224231.91741 45980.3485409,-4224147.96859 46066.4122581,-4224074.14841 46202.2806369,-4224030.59515 46321.6796441,-4223968.47561 46446.9553795,-4223923.30418 46460.0802378,-4223907.28296 46558.1003174,-4223791.14266 46615.2427577,-4223662.42903 46658.837829,-4223520.38727 46919.9749618,-4223122.88431 46934.1770035,-4223101.79448 47137.4825544,-4222860.95339 47159.0995743,-4222766.54093 47149.3036777,-4222714.05728 47140.0775523,-4222668.49921 47081.1858115,-4222618.56016 46961.3967141,-4222621.44178 46846.0379253,-4222605.53162 46778.4984382,-4222547.33891 46764.5378177,-4222535.04034 46725.5402742,-4222460.5546 46703.3064271,-4222359.788 46721.9564173,-4222265.61917 46757.6851753,-4222197.43761 46838.2528568,-4222099.1722 46911.8692428,-4222025.38447 46932.0766806,-4221901.70411 46929.8071302,-4221789.33516 46956.0152226,-4221720.44317 47039.1807812,-4221659.81574 47121.4743286,-4221643.08698 47233.7271508,-4221633.35689 47290.5095566,-4221536.55137 47289.7931938,-4221437.00431 47280.1792088,-4221332.21264 47269.031058,-4221160.31311 47269.0803116,-4221039.7859 47317.6378581,-4220964.07674 47376.7072128,-4220925.3535 47467.6671765,-4220898.94882 47556.3714345,-4220899.62314 47656.7169224,-4220884.39941 47711.6579066,-4220813.6443 47785.0713418,-4220737.38622 47854.9418964,-4220696.77934 47941.3545139,-4220681.70561 48002.1132097,-4220718.04552 48053.4191959,-4220766.61711 48080.9020534,-4220888.86266 48083.9782642,-4221053.4549 48121.6302617,-4221263.01389 48176.8485788,-4221353.09694 48197.2800138,-4221365.36127 48271.7335935,-4221392.60564 48358.4154441,-4221356.59181 48587.546522,-4221248.10515 48659.915023,-4221183.3878 48845.4951617,-4220945.01584 48844.2299779,-4220820.61626 48781.9382894,-4220717.17122 48731.3208566,-4220567.94467 48730.6634899,-4220566.00666 48792.0541811,-4220476.79439 48850.3142349,-4220385.8477 48983.0812457,-4220347.04276 49118.2333234,-4220313.02199 49230.9766394,-4220303.25424 49339.7776666,-4220354.56775 49429.051413,-4220471.23166 49538.2363235,-4220660.46112 49590.3740118,-4220700.99464 49687.5797033,-4220726.36806 49707.7453605,-4220717.23978 49778.0200487,-4220681.58089 49850.6972794,-4220560.06775 49856.8144424,-4220507.27429 49863.3515616,-4220447.47427 49889.5476388,-4220426.89419 49922.3028949,-4220401.29279 50034.3189731,-4220376.64449 50161.7582238,-4220382.10223 50163.8929449,-4220389.89473 50175.3514037,-4220389.9486 50283.3042289,-4220461.25051 50344.5559836,-4220533.90213 50391.5034563,-4220608.22778 50394.8165128,-4220781.75721 50398.3872658,-4220946.30151 50429.9196532,-4221020.89844 50484.183507,-4221038.84603 50492.8773698,-4221041.61708 50564.7372106,-4221025.24971 50661.7152428,-4220993.37086 50749.2410031,-4220973.72331 50847.8312259,-4220937.23009 50934.3347463,-4220947.54642 51000.0252939,-4221031.7834 51038.6241312,-4221089.36447 51069.2809625,-4221135.14875 51138.4536864,-4221201.17117 51161.7363083,-4221205.73034 51239.6611824,-4221220.73555 51339.2672943,-4221196.60829 51403.5955339,-4221131.06114 51421.0496629,-4221113.19207 51434.6589283,-4221030.40248 51440.4991442,-4220853.13576 51429.736093,-4220782.80826 51450.5425217,-4220714.8647 51532.8293179,-4220698.1385 51595.0534439,-4220709.95344 51631.463019,-4220771.19993 51640.9600189,-4220868.52261 51633.9402617,-4221031.44401 51669.1054947,-4221138.10953 51679.8867769,-4221154.15449 51726.4679406,-4221224.02589 51779.2531182,-4221236.11842 51890.3374889,-4221230.46874 51946.8450868,-4221154.60961 51999.7340432,-4221071.08049 52016.755343,-4220920.78331 51985.4178656,-4220781.93266 51901.1004351,-4220658.89204 51713.6326383,-4220522.91932 51634.0806077,-4220451.77453 51591.8279725,-4220307.34635 51630.6037425,-4220203.56468 51724.2529289,-4220161.50378 51816.3992004,-4220173.84699 51987.5317092,-4220171.72814 52103.3312359,-4220150.75351 52146.2143739,-4220096.93147 52179.1508517,-4220055.38089 52206.9566185,-4219957.4823 52238.4349875,-4219855.79602 52271.6355299,-4219799.28455 52337.8888008,-4219745.03563 52494.6803775,-4219665.41638 52535.8424389,-4219602.77304 52558.8796636,-4219568.01263 52586.0689395,-4219432.3195 52599.7403611,-4219259.39355 52601.85966,-4219097.37687 52601.8052623,-4219072.48251 52620.3702203,-4218946.96035 52687.2200694,-4218875.73272 52762.2756301,-4218874.04526 52873.6900754,-4218902.7335 52974.1006481,-4218967.18418 53027.2775615,-4219068.88133 53039.4958253,-4219235.69376 53048.9563406,-4219362.89507 53080.4109258,-4219466.87547 53149.5649505,-4219508.49784 53165.2984016,-4219518.1598 53180.2185963,-4219517.92918 53245.6315593,-4219514.0456 53351.7119337,-4219483.9122 53355.9602679,-4219481.0731 53415.8162511,-4219433.82507 53460.3244087,-4219327.08662 53461.1103577,-4219324.53217 53471.2048738,-4219217.13705 53434.587988,-4219123.04313 53355.6026765,-4219028.44799 53338.5883176,-4218948.67751 53332.9711002,-4218922.74685 53336.873631,-4218861.17582 53367.8520201,-4218801.86105 53404.0748421,-4218733.64982 53414.1706076,-4218698.95816 53422.0778405,-4218667.93217 53420.8989013,-4218580.8846 53415.5393686,-4218545.96935 53391.3570723,-4218463.80022 53416.0819304,-4218395.04039 53478.7303009,-4218357.52362 53568.2982647,-4218350.66033 53613.8038011,-4218346.9204 53725.6975163,-4218314.81789 53862.8235912,-4218274.6662 53948.4884719,-4218220.31935 53981.6697392,-4218109.03656 53876.7516745,-4217880.62843 53849.4941124,-4217821.61889 53594.3454418,-4217667.80015 53557.1541257,-4217645.46002 53547.1135203,-4217595.99052 53496.7079705,-4217346.16965 53472.1816909,-4217277.97166 53426.1218591,-4217226.48189 53348.6983164,-4217138.72754 53254.0591347,-4217005.08043 53311.3805397,-4216836.04168 53362.5020572,-4216682.45171 53430.9148798,-4216545.36835 53508.8111007,-4216475.22956 53643.280702,-4216487.58717 53749.96826,-4216537.58234 53870.8568084,-4216602.84337 53987.2782389,-4216716.77325 54098.2823489,-4216740.51903 54195.9454692,-4216753.40972 54297.031404,-4216729.17026 54373.747632,-4216644.68835 54424.7437385,-4216562.31967 54411.5012747,-4216467.79994 54326.263434,-4216333.38249 54242.6494017,-4216255.10045 54185.1532135,-4216221.97873 54125.1113779,-4216145.74365 54113.463024,-4216028.18632 54154.0662316,-4215952.64716 54268.7723068,-4215912.35181 54366.3200358,-4215917.78407 54517.6553501,-4215990.00569 54615.5470738,-4216017.81739 54673.5673421,-4215990.64358 54680.6529318,-4215888.97707 54673.0911349,-4215766.60379 54547.8598685,-4215508.99069 54542.8823658,-4215466.57547 54535.9407062,-4215412.37066 54564.5923732,-4215336.81832 54645.3079085,-4215252.50862 54739.8822902,-4215227.81111 54824.8725302,-4215256.18563 54955.6326442,-4215368.93816 55062.2714373,-4215491.14048 55095.2600792,-4215510.83874 55165.3160901,-4215551.39401 55272.6680236,-4215524.65072 55480.3127627,-4215445.85103 55688.1983014,-4215406.3696 55830.1551243,-4215425.08495 55939.5681979,-4215465.89272 56002.3045216,-4215526.46811 56028.8556401,-4215552.66993 56036.3894432,-4215559.52024 56063.1660573,-4215673.34088 56041.9683649,-4215754.75237 56029.9599174,-4215802.54509 55888.3139402,-4215939.16312 55751.0575556,-4216092.84931 55669.4691133,-4216221.04969 55589.9460383,-4216380.45137 55539.9862908,-4216493.60564 55523.9598704,-4216559.15725 55505.948099,-4216630.84737 55543.3254884,-4216703.96235 55660.8546987,-4216819.29074 55843.3547521,-4216882.97183 56100.9269491,-4216890.69031 56508.2277868,-4216823.86464 56802.6150341,-4216782.74825 57027.9863007,-4216798.58933 57368.6565638,-4216823.87849 57572.4586493,-4216886.30444 57591.6187133,-4216889.21156" style="stroke-linejoin:round;stroke:#000;stroke-width:1px;fill:none" /></g></g></svg>