<svg xmlns="http://www.w3.org/2000/svg" baseProfile="full" height="68703.9258048" version="1.1" viewBox="635.108108,4265637.899858,58076.425609,68703.925805" width="58076.425609"><defs><style type="text/css">polyline,line,rect,path,polygon,.polygon{fill:none;stroke:#000;stroke-width:1px;stroke-linejoin:round;}</style></defs><g fill_rule="evenodd" transform="scale(1,-1)"><g class="id" id="06238"><polygon class="_06238" id="None" points="47339.7073236,-4317191.80495 47321.3716629,-4317210.77793 44620.9497043,-4319173.37669 37660.4531606,-4326922.17912 36519.5418999,-4328192.96571 36139.0730486,-4328616.58719 36033.7991032,-4328733.56191 32580.7199813,-4332126.28924 32541.0361502,-4332164.0107 30471.1699123,-4334198.89008 30142.7316206,-4333825.34812 30026.4555791,-4333693.09903 24930.4112356,-4328858.7188 24397.4927135,-4328352.76859 23089.4861215,-4327109.98273 19921.4742156,-4324045.03925 21152.3705545,-4322925.98788 18469.585595,-4320337.41479 18421.1233896,-4320181.48216 13484.0308529,-4315351.50642 19500.5204472,-4308685.87393 19853.0976902,-4308295.04914 19861.7564415,-4308285.35391 16955.6984131,-4305508.94626 20064.0000465,-4302260.85167 17836.7319602,-4300255.88372 17589.427198,-4300033.80518 11929.5371621,-4294940.04807 5840.84156815,-4289461.21997 5690.51816051,-4289326.18227 638.744793366,-4284781.38781 2280.22788776,-4282873.12916 2282.33175115,-4282874.44978 2946.61780373,-4283501.18164 9982.744183,-4287144.9604 10577.8224728,-4284933.67105 11007.3302352,-4283343.80455 11060.783949,-4283147.46049 16436.4432956,-4284402.94607 16531.0186777,-4284425.4806 18815.8551335,-4275229.46847 19328.6981338,-4273308.59899 21625.5239256,-4274076.78636 21943.4313341,-4274166.51014 26142.382616,-4275357.20893 26343.9415716,-4275414.22058 28907.6568477,-4276141.08754 28924.5213272,-4276146.16448 28939.2830925,-4276149.92124 31353.4467081,-4266042.93108 31430.0879849,-4265723.19182 31436.6990487,-4265694.74301 31853.5738615,-4265795.22306 40045.4143626,-4267779.63165 40730.7591826,-4267940.50777 41736.5196318,-4268180.91782 42198.5006137,-4268291.55811 42244.2573492,-4268302.70841 42081.7959521,-4268770.47995 51650.5932942,-4271585.43175 49704.1267519,-4279608.57302 49651.0734751,-4279827.15829 47703.5242767,-4287854.14885 47662.7885654,-4288022.91443 47661.7165534,-4288027.98483 47603.7886901,-4288265.42786 47339.1055515,-4289357.42603 46802.9991141,-4291567.43083 46769.3226497,-4291707.22225 58516.0489837,-4294767.43298 53094.1099902,-4300223.97152 51520.0840416,-4304919.51599 50592.9608035,-4305876.70361 50554.4301549,-4305916.28827 50301.7351314,-4306176.51743 50279.7294234,-4306199.27881 49417.7141667,-4307089.29704 53400.7431454,-4311066.55905 47339.7073236,-4317191.80495" style="stroke-linejoin:round;stroke:#000;stroke-width:1px;fill:none" /></g></g></svg>