<svg xmlns="http://www.w3.org/2000/svg" baseProfile="full" height="25276.2968791" version="1.1" viewBox="8892.146544,4014120.206507,23415.140931,25276.296879" width="23415.1409308"><defs><style type="text/css">polyline,line,rect,path,polygon,.polygon{fill:none;stroke:#000;stroke-width:1px;stroke-linejoin:round;}</style></defs><g fill_rule="evenodd" transform="scale(1,-1)"><g class="hogares departamen mujeres departam_1 toponimo_i tot_pob varones viv_part viv_part_h" id="06252"><polygon class="_06252" id="None" points="32301.7288205,-4018301.44579 32245.603692,-4018387.06078 32079.7604278,-4018604.85853 31854.3613336,-4018858.67346 30862.5422561,-4022318.29627 30155.4229225,-4024784.46427 29580.5449441,-4026787.98988 29469.6784386,-4027101.19514 29381.4347279,-4027269.79147 29286.5829302,-4027396.98035 29108.3802984,-4027572.81057 28989.1736356,-4027657.82897 28898.4620721,-4027787.22434 28869.0310935,-4027732.94438 28853.3126024,-4027711.10722 28836.6708363,-4027690.33087 28815.7513953,-4027665.36536 28800.5289433,-4027643.49377 28799.6817477,-4027642.05727 28781.9103997,-4027619.36555 28749.9898724,-4027586.68963 28717.6318853,-4027526.13303 28689.9298438,-4027475.22184 28686.5410728,-4027469.47582 28665.1476335,-4027434.07641 28649.4709201,-4027409.24574 28615.0703121,-4027376.74156 28591.346688,-4027354.46229 28589.1906614,-4027352.11969 28551.0354615,-4027319.37729 28532.2230657,-4027303.23689 28486.4628577,-4027265.04063 28471.8717333,-4027263.06155 28310.4371046,-4027364.46426 28140.1350522,-4027470.96787 28138.4677104,-4027472.08028 27951.7054998,-4027589.1954 27852.3129422,-4027650.91122 27752.9546556,-4027713.12328 27751.5353239,-4027714.21851 27655.5116235,-4027774.20592 27628.2691981,-4027791.04702 27492.2632654,-4027878.229 27228.2363819,-4028045.56097 27216.3168509,-4028053.36524 26797.4523732,-4028316.66444 26771.6634143,-4028332.90679 26767.8670284,-4028335.66214 26561.3017663,-4028451.16462 26464.36798,-4028505.23615 26397.901202,-4028542.24251 26394.3184299,-4028544.48464 26382.3299981,-4028551.29701 26361.0469896,-4028564.23656 26348.5968997,-4028571.57938 26026.5540203,-4028764.87082 25973.914732,-4028796.43301 25951.8875454,-4028809.42432 25904.284757,-4028838.14518 25894.4940824,-4028844.30683 25846.1127903,-4028872.58329 25844.6934304,-4028873.67857 25795.1461539,-4028917.48743 25769.4998632,-4028950.16877 25700.4091474,-4029039.19533 25646.8337069,-4029197.42588 25795.8249356,-4029290.2705 25815.8860633,-4029302.83555 25855.0506071,-4029328.53049 26195.3994449,-4029550.15756 26211.2857198,-4029560.02137 26237.5745565,-4029576.1418 26759.7056926,-4029896.30803 26765.6510142,-4029899.38468 26864.1508369,-4029961.33611 26873.7748742,-4029967.14817 27121.401776,-4030123.92392 26909.8362568,-4030537.34106 26604.900899,-4031135.17899 26554.9594554,-4031234.3428 26548.5583563,-4031246.25084 26439.5120805,-4031456.18036 26269.7217067,-4031781.97499 26257.6292982,-4031805.24365 26255.6724445,-4031809.36692 26236.9583327,-4031848.54657 26213.2017449,-4031876.11368 26190.0859684,-4031902.14103 26165.7027307,-4031924.26887 26161.6928481,-4031927.53773 26150.4416925,-4031937.78874 26105.2517651,-4031965.34789 26101.138617,-4031967.12861 26074.7164766,-4031981.42299 26073.2627519,-4031982.0223 26051.9873473,-4031991.47362 26004.5934399,-4032005.22952 25977.7237837,-4032013.07529 25946.2246355,-4032015.26106 25906.1205133,-4032015.55174 25848.0897055,-4032016.08949 25823.1839101,-4032016.32242 25815.2126766,-4032016.37711 25786.6897496,-4032018.35635 25769.8240125,-4032019.52668 25734.838246,-4032028.93254 25866.0390233,-4032109.54737 26134.6680967,-4032274.33126 26127.7163633,-4032278.30274 26122.2527742,-4032282.17095 26115.8315119,-4032286.60406 26069.642542,-4032317.72189 26066.5214973,-4032319.43379 26034.2774657,-4032339.61518 25986.1042567,-4032370.87079 25971.3119392,-4032380.37079 25930.4487974,-4032405.63633 25872.9468005,-4032442.52383 25840.4890965,-4032463.21861 25774.5815501,-4032504.67707 25741.6621836,-4032525.90239 25677.6354917,-4032565.73512 25643.2623582,-4032587.55983 25579.7660719,-4032627.85432 25548.4795377,-4032647.47111 25500.698835,-4032677.20461 25482.2893144,-4032688.45112 25449.1218106,-4032709.69384 25384.8813003,-4032750.04022 25353.1674958,-4032770.68367 25286.5499223,-4032812.69047 25268.1747835,-4032824.43311 25190.168229,-4032874.70715 25152.4602233,-4032898.75743 25094.4616574,-4032935.68027 25055.086269,-4032960.84323 24997.3700967,-4032998.24503 24966.5794096,-4033017.82776 24900.9536567,-4033059.76622 24898.1150264,-4033061.95703 24867.8547933,-4033082.00145 24803.6482835,-4033122.84464 24773.8496473,-4033142.35862 24707.2660617,-4033184.86227 24682.4350073,-4033200.54237 24609.3955521,-4033246.98338 24584.1028403,-4033263.19402 24558.7756894,-4033278.90862 24527.9848478,-4033298.49162 24509.6095499,-4033310.23454 24464.9838104,-4033338.7531 24435.1161953,-4033357.27517 24403.2573166,-4033379.42464 24462.8023784,-4033472.48967 24464.2491337,-4033475.37996 24489.1818734,-4033515.02081 24522.7333064,-4033567.52156 24585.1376584,-4033665.87073 24652.0615789,-4033771.88119 24671.3451291,-4033801.94495 24711.9583998,-4033866.41644 24726.7569509,-4033889.31475 24748.5483069,-4033923.19195 24753.2813711,-4033930.34013 24787.2602385,-4033981.81388 24823.7124673,-4034036.60502 24843.4232901,-4034065.64207 24896.6928582,-4034143.68959 24908.3843288,-4034161.32054 24942.508037,-4034211.28864 24972.4980591,-4034255.5623 24980.0213979,-4034267.00275 25021.1310654,-4034331.43918 25076.4745279,-4034417.81591 25186.1351539,-4034590.14174 25287.6044442,-4034748.5808 25303.0026107,-4034772.93241 25308.4453811,-4034779.53274 25310.1057677,-4034781.90968 25315.121372,-4034789.53657 25320.6674764,-4034797.62506 25337.3402383,-4034822.38659 25369.4870029,-4034869.00217 25400.255873,-4034913.7196 25430.1773459,-4034957.00048 25495.2495571,-4035050.6757 25523.5795913,-4035092.57164 25539.687484,-4035116.37535 25546.0121434,-4035124.90817 25583.036903,-4035177.16604 25584.4492729,-4035179.56019 25606.2755662,-4035213.93254 25624.4297063,-4035242.08009 25657.9477156,-4035294.08292 25799.6813599,-4035515.51804 25857.0033138,-4035605.24444 25951.4469393,-4035752.20563 26222.308904,-4036175.012 26242.4062569,-4036206.01469 26245.1276876,-4036209.31475 26269.9651303,-4036243.97569 26342.3555147,-4036346.11199 26415.9588555,-4036462.12012 26471.3456772,-4036545.49956 26473.2885908,-4036548.35523 26481.9766097,-4036562.20644 26525.2376341,-4036632.47177 26526.615586,-4036634.36981 26535.2691592,-4036647.72495 26545.0871241,-4036663.4914 26571.9642317,-4036705.98533 26609.5067933,-4036765.68209 26671.983661,-4036865.01693 26819.1851238,-4037100.52003 26910.2691384,-4037245.71659 26927.962357,-4037274.39348 26958.0505146,-4037323.64192 26962.5358303,-4037330.80683 26964.5477002,-4037334.65453 26971.1138183,-4037346.65923 26983.4607712,-4037373.71379 26997.8540742,-4037405.11208 27049.0322083,-4037485.29336 27030.6584209,-4037497.0372 27008.2061443,-4037511.05818 26987.9171154,-4037523.93198 26983.3770541,-4037526.73963 26969.0817401,-4037536.20635 26956.2056155,-4037544.57759 26942.0893837,-4037553.035 26939.2510001,-4037555.22597 26920.3811471,-4037567.00432 26881.6838106,-4037591.126 26848.7321647,-4037611.85785 26832.4526567,-4037621.46248 26825.4878141,-4037632.41364 26820.4517012,-4037635.25577 26657.098947,-4037744.79903 26608.074481,-4037778.112 26574.7300958,-4037800.36664 26554.9714814,-4037813.7022 26530.9208005,-4037829.82822 26524.003896,-4037834.2964 26477.8177557,-4037865.41851 26430.1434531,-4037896.64408 26393.4645563,-4037921.12433 26384.4188414,-4037927.23577 26329.8965101,-4037963.92173 26306.0937931,-4037980.03063 26284.6334247,-4037993.983 26281.7950224,-4037996.17402 26225.4330482,-4038031.4926 26223.5177981,-4038032.62258 26216.6008695,-4038037.09079 26176.3394072,-4038063.81393 26138.1722602,-4038088.39778 26099.3299663,-4038114.02547 26059.9916061,-4038139.68767 26021.3973029,-4038165.29818 25982.5204857,-4038190.42992 25944.4221993,-4038216.00602 25905.0837702,-4038241.66834 25866.027822,-4038267.80951 25826.6548849,-4038292.97584 25803.3136131,-4038308.55447 25690.155188,-4038383.70898 25671.2850634,-4038395.4878 25599.0978177,-4038443.37119 25520.2760322,-4038496.20183 25458.1265828,-4038537.90488 25367.8130583,-4038597.51582 25353.3039345,-4038607.49633 25252.8834114,-4038672.29598 25252.0636801,-4038674.84521 25208.3983415,-4038702.80261 25120.3579889,-4038759.2653 25020.5778533,-4038822.52555 24948.0386178,-4038868.93898 24932.5028311,-4038878.49251 24882.8434588,-4038909.85753 24810.8001669,-4038956.23669 24746.3489934,-4038997.10369 24684.7706993,-4039036.27572 24680.2649955,-4039039.57964 24633.9399887,-4039068.7193 24631.5631203,-4039070.37988 24616.4888573,-4039079.40297 24609.0757401,-4039083.90589 24575.8751996,-4039104.6565 24567.5044347,-4039109.72445 24561.0489573,-4039113.66236 24537.6039134,-4039127.75342 24433.1104988,-4039191.34239 24377.6359957,-4039225.10591 24287.224576,-4039279.74098 24256.3663046,-4039298.33513 24193.2304952,-4039336.61907 24136.5846302,-4039371.46119 24135.1309156,-4039372.0607 24041.1371788,-4039224.56919 23948.556259,-4039079.47139 23919.2372193,-4039034.15518 23906.944585,-4039015.07102 23828.3516901,-4038891.92979 23821.6748425,-4038881.9261 23774.6266463,-4038807.43557 23752.5496046,-4038773.08048 23705.3224211,-4038699.59917 23688.5786447,-4038673.84573 23594.3725423,-4038526.86546 23569.8564501,-4038489.68889 23563.7101923,-4038480.14671 23390.1061729,-4038205.59277 23374.7406088,-4038181.73717 23242.2800497,-4037975.60369 23234.1563037,-4037962.70955 23193.0070602,-4037897.77718 23177.3590746,-4037873.4426 23174.2859795,-4037868.67145 23145.4636436,-4037823.31965 23069.1324862,-4037704.00618 23004.7768412,-4037602.80222 22921.9828705,-4037472.97092 22920.8873222,-4037471.55163 22892.9816361,-4037428.62815 22880.4068514,-4037409.06453 22869.5270897,-4037392.37397 22834.5933361,-4037337.97541 22813.3299189,-4037304.55976 22733.5749874,-4037179.00283 22698.8894058,-4037124.5868 22670.6324628,-4037080.19202 22630.3658481,-4037017.19112 22587.873736,-4036950.85544 22548.7372159,-4036889.76976 22535.0670128,-4036868.78662 22507.1271611,-4036825.36654 22471.9457223,-4036770.98459 22455.1680538,-4036744.73406 22433.3743263,-4036710.85639 22245.63738,-4036419.32971 22172.3811563,-4036304.78415 22098.8081315,-4036189.2634 22025.2352603,-4036073.74238 21994.8222532,-4036027.00406 21975.0062694,-4035996.47789 21950.4567891,-4035958.80331 21841.9169815,-4035788.38541 21733.763353,-4035619.93404 21694.6277628,-4035558.84672 21605.7598142,-4035420.45948 21532.2224085,-4035305.43275 21510.7117284,-4035272.03296 21497.0419099,-4035251.04912 21448.8668804,-4035174.63772 21410.2276881,-4035113.51541 21373.2834776,-4035055.2662 21369.0805771,-4035048.57932 21347.2530597,-4035014.2044 21274.2811671,-4034900.13447 21245.1778916,-4034854.3011 21196.0110342,-4034777.95798 21146.7409134,-4034700.12648 21110.609999,-4034642.81731 21090.72561,-4034611.2981 21040.7115035,-4034533.518 21031.5272066,-4034519.69967 20974.9815557,-4034430.40932 20966.8583378,-4034417.51426 20913.1720887,-4034333.50853 20860.8639065,-4034251.40093 20849.0684086,-4034232.28049 20838.4717332,-4034216.06772 20773.5551745,-4034113.89891 20750.5980884,-4034077.60785 20713.4409613,-4034019.87075 20691.3313653,-4033985.01624 20661.6636035,-4033938.22428 20611.58122,-4033859.45094 20560.1209304,-4033778.77919 20543.9091249,-4033753.48483 20484.5050052,-4033658.90824 20483.4509526,-4033654.49504 20452.4111932,-4033638.2056 20342.3353193,-4033582.03987 20249.2503051,-4033533.66736 20229.1105678,-4033523.60004 20170.9926328,-4033494.23529 20092.9485099,-4033454.2898 20009.7367421,-4033411.71194 19909.2513665,-4033360.86154 19791.1409804,-4033300.26744 19722.6875795,-4033265.63766 19615.7251748,-4033211.24833 19415.2151311,-4033109.01544 19404.6318533,-4033103.76801 19389.3684649,-4033135.23537 19406.9504496,-4033183.86445 19390.3983402,-4033221.90169 19388.4413215,-4033226.02546 19384.8512333,-4033231.75804 19362.8005405,-4033273.16789 19311.9084215,-4033279.69094 19281.7479012,-4033319.17124 19250.0309238,-4033339.81682 19235.6986917,-4033348.78745 19190.0830223,-4033391.83298 19170.7117642,-4033457.48331 19170.1742029,-4033460.5116 19160.5465977,-4033508.53686 19150.5613132,-4033540.63512 19149.9204554,-4033542.17509 19147.5017764,-4033546.82942 19128.076469,-4033586.56185 19114.8799224,-4033629.84995 19096.7778119,-4033663.50863 19086.5783624,-4033714.06619 19062.5574472,-4033748.63425 19056.2656327,-4033776.48827 19056.430216,-4033800.40468 19043.3995494,-4033831.71746 19021.0811849,-4033847.72303 19018.4559065,-4033849.40075 18988.8611143,-4033871.89338 18978.3874329,-4033882.59033 18963.5450977,-4033898.5755 18958.6803372,-4033903.89815 18943.762131,-4033922.38109 18942.3426825,-4033923.47661 18920.4375407,-4033945.43553 18901.8119804,-4033975.14279 18886.2868363,-4034013.60782 18878.7967977,-4034020.60821 18848.5127208,-4034051.1248 18796.2002372,-4034076.69005 18759.2251613,-4034122.12764 18756.2070835,-4034125.32815 18710.4118682,-4034187.33006 18708.3860092,-4034190.46169 18702.4876096,-4034198.84714 18672.5269672,-4034244.79496 18658.7182772,-4034257.71754 18624.8511254,-4034290.47709 18568.0874885,-4034309.3726 18565.1452662,-4034310.07535 18558.1997211,-4034310.55751 18530.6311484,-4034311.9728 18502.1047812,-4034313.95308 18471.8075721,-4034315.55779 18448.7658639,-4034321.14535 18382.4451599,-4034335.22084 18357.4259474,-4034337.45616 18335.0664621,-4034338.50985 18318.942813,-4034339.62914 18259.1882676,-4034365.71143 18206.5239928,-4034389.80605 18141.75328,-4034408.26057 18081.3991433,-4034432.8891 18009.6068432,-4034454.32366 17952.8836582,-4034488.17181 17908.1984123,-4034508.72166 17865.6419379,-4034545.57449 17823.2924907,-4034567.45776 17815.2443363,-4034570.01052 17773.515199,-4034582.87762 17710.5698667,-4034609.68034 17667.0349908,-4034639.62214 17665.58108,-4034640.22158 17652.4958815,-4034645.61658 17601.1817412,-4034667.62384 17547.3803717,-4034675.34702 17499.1399592,-4034666.23331 17485.751706,-4034663.6732 17418.6242603,-4034655.37216 17360.9988764,-4034643.91886 17358.449391,-4034643.09883 17350.6217586,-4034641.64821 17306.4534926,-4034633.74725 17254.9532891,-4034642.30767 17213.3476136,-4034664.13954 17179.4318013,-4034685.43757 17177.4817573,-4034686.07146 17135.1113383,-4034700.47878 17105.5154998,-4034740.91897 17075.8577418,-4034776.87687 17051.892168,-4034783.52582 17029.4493972,-4034790.56757 16974.2005584,-4034795.40026 16922.1281159,-4034806.49312 16869.917517,-4034833.54808 16852.091155,-4034853.23077 16824.2263986,-4034807.30778 16632.1640753,-4034496.60559 16559.0575235,-4034377.05126 16380.5982826,-4034086.34015 16321.6447926,-4033994.71665 16267.3217272,-4033908.75381 16085.7010676,-4033622.74628 15955.1515966,-4033418.93848 15793.2039834,-4033164.96401 15767.7378234,-4033124.85541 15590.460408,-4032847.51564 15141.0042265,-4032142.87885 15073.440349,-4032034.89938 15062.2784285,-4032017.72681 15002.8380604,-4031922.64374 14953.2160731,-4031843.33077 14933.2970329,-4031811.3113 14886.148706,-4031735.31624 14870.4326118,-4031709.98454 14779.9462078,-4031566.2047 14562.4749337,-4031711.9055 14481.5380604,-4031766.87479 14409.2407517,-4031651.74414 14360.9967404,-4031574.3287 14208.6723618,-4031329.64652 14180.5956641,-4031284.23344 14151.1409681,-4031236.92177 14044.4842415,-4031064.84768 13886.194701,-4030809.60914 13875.494687,-4030791.90546 13655.4997554,-4030441.23776 13613.7883225,-4030375.33243 13518.7494481,-4030223.38848 13490.4596581,-4030178.48778 13407.0028279,-4030046.18019 13131.8442346,-4029608.09976 13094.5842656,-4029548.8643 12895.6423854,-4029232.12521 12809.6446912,-4029095.50453 12617.8006677,-4028791.2328 12537.0674565,-4028662.22274 12419.6401271,-4028474.93357 12353.56149,-4028370.33273 12238.92509,-4028187.33599 12140.3210434,-4028030.64744 12121.6019283,-4028001.53356 12052.4780958,-4027896.14574 11965.7922234,-4027767.54605 11860.2769882,-4027611.83374 11823.1141057,-4027557.57478 11748.1203469,-4027446.61022 11611.168398,-4027243.719 11594.7780119,-4027219.42878 11488.2099803,-4027059.30073 11478.7437213,-4027045.00018 11440.5888193,-4026990.80932 11423.4886248,-4026967.06671 11420.7671273,-4026963.76543 11392.3683985,-4026920.86368 11251.8561134,-4026709.74159 11166.198537,-4026581.56608 11089.4423805,-4026466.73299 10970.7148937,-4026292.98686 10961.2831234,-4026279.18225 10826.2077163,-4026078.1504 10803.954733,-4026044.79322 10654.7150692,-4025822.80517 10628.2940543,-4025783.25532 10534.335857,-4025643.18848 10283.1544541,-4025270.21689 10205.6555918,-4025155.43218 10185.9793775,-4025126.88148 10017.5543031,-4024879.79436 9983.43118362,-4024829.80885 9749.10440407,-4024480.59193 9280.62638299,-4023784.6313 9082.47158388,-4023489.73913 8917.52393317,-4023242.40295 8944.17680737,-4023256.51194 8982.48253038,-4023240.89742 9002.18509049,-4023208.62241 8989.84562516,-4023131.20188 8946.73869829,-4023073.85957 8907.70434854,-4023017.73095 8921.40707371,-4022974.40431 8965.529732,-4022956.39304 9013.15977134,-4022971.04428 9037.52608907,-4023009.7413 9068.56032651,-4023061.93652 9096.167035,-4023125.83595 9107.88442816,-4023179.86688 9150.38846252,-4023188.89 9171.35440118,-4023146.05779 9154.80118904,-4023083.38753 9159.6183898,-4023019.73645 9216.98934245,-4022955.43883 9266.60813244,-4022919.59748 9304.69656273,-4022857.63196 9349.84998604,-4022789.69329 9396.37693636,-4022774.00862 9433.10222251,-4022767.97655 9464.37313669,-4022776.78031 9505.22392577,-4022812.34177 9562.47970943,-4022800.40149 9635.55592653,-4022797.33731 9674.0447032,-4022762.76527 9722.94561513,-4022730.96246 9772.38434979,-4022728.53742 9804.39936049,-4022737.28962 9844.44094579,-4022753.96169 9879.15856953,-4022726.13207 9917.99067778,-4022696.522 9939.6399059,-4022649.15619 9936.62564118,-4022569.59569 9926.00835625,-4022499.03693 9959.37535082,-4022440.88902 9996.6313391,-4022402.91281 10045.9934771,-4022402.9861 10087.7560592,-4022426.51895 10134.8274491,-4022469.12796 10181.39092,-4022533.20994 10237.6804174,-4022525.32529 10244.4904262,-4022458.04761 10240.9725317,-4022382.01227 10231.2483953,-4022324.35446 10246.7719366,-4022274.92024 10232.2655326,-4022216.59631 10192.7821305,-4022171.96636 10141.8067285,-4022116.1664 10112.1214581,-4022047.42611 10116.9893421,-4021977.2915 10157.207885,-4021913.68437 10215.8683687,-4021875.2244 10266.2990539,-4021872.73137 10340.9196663,-4021891.99621 10413.5890935,-4021944.30051 10472.1209915,-4022012.04114 10506.7944635,-4022084.42421 10562.0107822,-4022097.05486 10594.7856019,-4022066.36907 10603.1189055,-4021999.48501 10606.4295681,-4021928.46163 10626.334021,-4021917.11307 10650.1391841,-4021904.49745 10674.5485318,-4021842.98208 10734.0901586,-4021806.45566 10797.5359099,-4021783.11994 10874.9388403,-4021777.76321 10946.2579811,-4021767.34347 11030.0250321,-4021688.25984 11076.4865377,-4021653.63603 11087.6658302,-4021645.88272 11154.0470995,-4021592.92988 11154.9020935,-4021590.87653 11185.3762941,-4021526.94792 11220.7247045,-4021454.2068 11188.9340948,-4021376.63941 11098.5523601,-4021338.52316 11007.307772,-4021305.95051 10993.894437,-4021234.58935 10991.8300018,-4021222.76707 11011.6148443,-4021137.64212 11067.6334663,-4021107.84146 11135.5545354,-4021127.5704 11205.263109,-4021108.28906 11211.9449076,-4021035.53765 11175.6803259,-4020994.17494 11126.6260856,-4020951.70295 11083.2189309,-4020951.21659 11039.1349305,-4020984.17967 10986.7766143,-4021009.24003 10930.3082744,-4021018.13275 10902.6080401,-4020981.66126 10898.305592,-4020908.67245 10878.7203498,-4020856.18443 10859.3599104,-4020814.15034 10844.6645878,-4020745.86895 10846.8360109,-4020661.96268 10822.8431009,-4020599.80856 10794.834126,-4020558.87127 10758.4401324,-4020512.03294 10820.1043836,-4020477.35527 10881.1119276,-4020530.46743 10912.3119985,-4020649.95434 10935.5062195,-4020736.59242 10990.7671402,-4020760.68758 11041.9258848,-4020765.12468 11073.1438808,-4020733.5505 11092.7439755,-4020699.78891 11114.3099979,-4020658.41313 11127.4567123,-4020610.64026 11124.8555352,-4020569.44096 11127.4188881,-4020516.4178 11070.1657196,-4020495.95015 11023.694122,-4020487.20019 11013.6395153,-4020435.54847 11057.2510234,-4020392.14903 11146.3323752,-4020393.46424 11191.4027436,-4020410.78644 11241.1429388,-4020383.91363 11257.4946621,-4020360.84642 11282.6401284,-4020335.17666 11324.8160438,-4020299.85348 11332.6315107,-4020243.47592 11322.0935006,-4020170.42052 11270.2454752,-4020141.60203 11209.8235833,-4020143.78782 11152.640717,-4020171.17532 11118.5328321,-4020211.42433 11055.4848261,-4020215.28749 11017.4311069,-4020166.0713 11014.3840055,-4020118.42169 11044.5290996,-4020028.09372 11093.2837422,-4019950.93631 11152.6669668,-4019890.49286 11177.3291331,-4019843.41931 11206.9825158,-4019814.44667 11261.320912,-4019807.19804 11298.9364675,-4019767.20527 11303.2762576,-4019696.61049 11285.7533311,-4019641.48721 11189.5826788,-4019609.75161 11161.1813275,-4019570.337 11141.9640532,-4019512.3395 11164.9556254,-4019451.921 11227.9799717,-4019458.52966 11265.2857968,-4019493.34001 11304.2958692,-4019495.1286 11308.2995409,-4019495.35021 11366.9259343,-4019456.3971 11378.0358887,-4019400.789 11346.9744651,-4019362.55551 11333.7242949,-4019282.70811 11393.1500695,-4019219.27139 11469.0816409,-4019174.63483 11505.8423805,-4019136.6959 11553.7225186,-4019133.38434 11593.8355358,-4019133.10268 11624.4026822,-4019138.96518 11669.9577496,-4019145.28667 11711.2589152,-4019183.80888 11753.139865,-4019169.44581 11816.8677786,-4019146.59219 11818.144004,-4019067.73486 11864.0543588,-4019010.71748 11929.4450978,-4019004.69932 11957.9172176,-4019059.56337 11989.6223054,-4019110.71401 12015.0646109,-4019157.81093 12065.2621826,-4019195.21904 12085.9938655,-4019257.09924 12120.565229,-4019310.04558 12180.0133626,-4019362.26826 12227.9968333,-4019407.30728 12278.8994139,-4019462.11501 12338.0935666,-4019485.43997 12406.3872072,-4019496.17065 12476.4251765,-4019503.2909 12512.850732,-4019503.76253 12565.2563102,-4019504.6244 12580.0547926,-4019415.85904 12596.8243649,-4019301.53226 12596.0205902,-4019217.83444 12631.2863743,-4019151.08463 12679.1284528,-4019132.81969 12751.2958067,-4019138.29741 12840.9522329,-4019119.13456 12870.3484538,-4019046.80867 12851.5303679,-4018969.34246 12790.9879434,-4018915.70018 12718.4241068,-4018850.42593 12633.3978866,-4018749.12208 12632.3519166,-4018647.49402 12655.2747528,-4018539.22309 12642.8438954,-4018442.37066 12642.2527062,-4018437.42623 12563.8594543,-4018395.9854 12527.2411053,-4018324.23641 12520.4504398,-4018240.4541 12567.6990111,-4018155.92625 12626.6813058,-4018053.63713 12709.7853051,-4017986.57153 12717.6526199,-4017970.57311 12751.0801637,-4017902.45582 12822.3265531,-4017829.72957 12906.3511118,-4017840.86977 12959.9098526,-4017786.31668 13025.2524422,-4017707.51813 13150.645268,-4017664.44994 13307.0784899,-4017698.99974 13391.7459266,-4017769.91841 13488.38959,-4017841.00585 13546.5735715,-4017918.24203 13555.3696569,-4017930.0969 13645.5396446,-4017965.23938 13735.6356907,-4017970.47555 13819.9809678,-4018011.50434 13862.7499728,-4018089.30735 13881.7593871,-4018191.18667 13924.5787125,-4018262.50525 13983.9294086,-4018356.60951 14074.8277364,-4018445.54081 14171.5504707,-4018528.58536 14292.2806051,-4018587.53603 14352.7369318,-4018647.16527 14436.5667498,-4018633.88999 14526.5824726,-4018627.16615 14549.3257697,-4018613.62888 14615.9985743,-4018572.1278 14663.7599561,-4018541.90494 14729.7680934,-4018559.27465 14784.7270139,-4018636.73162 14827.2982348,-4018708.06599 14881.6919553,-4018737.70453 14989.8745953,-4018766.61399 15062.4408487,-4018813.939 15140.9899988,-4018879.29501 15231.4013908,-4018932.36467 15321.8970596,-4018979.44621 15418.7030466,-4019056.50022 15497.7382798,-4019157.71453 15594.3010959,-4019216.83855 15702.5621906,-4019257.70546 15828.5191805,-4019244.50651 15989.9326684,-4019188.9747 16085.254597,-4019122.06242 16187.8947692,-4019078.0738 16194.8827527,-4019074.59944 16198.7488413,-4019072.83653 16288.727646,-4019065.61596 16402.8958852,-4019094.60838 16475.7833502,-4019171.81957 16536.3176728,-4019243.40454 16638.9511481,-4019296.62383 16711.1541499,-4019331.5094 16777.4879019,-4019360.81888 16861.8644791,-4019402.33966 16994.854398,-4019490.84575 17133.5044083,-4019567.49448 17236.1324538,-4019638.65882 17368.7991304,-4019697.27651 17453.4637075,-4019768.18755 17508.3330227,-4019869.57378 17563.1275691,-4019941.05543 17635.2846735,-4019964.47748 17737.1572136,-4019945.46584 17820.5344472,-4019878.88169 17910.5108355,-4019871.65998 18000.5962867,-4019894.83858 18090.4476089,-4019864.19653 18103.0954056,-4019848.86537 18155.5337696,-4019785.41904 18251.3382583,-4019754.36536 18347.0879445,-4019747.74138 18425.3611918,-4019776.72194 18540.0173378,-4019823.62328 18630.5839292,-4019900.60458 18727.5500022,-4019983.6232 18818.4739153,-4020090.98676 18915.5992426,-4020197.92095 19024.6998292,-4020305.02319 19044.3523658,-4020326.09509 19091.1864712,-4020376.19208 19133.358704,-4020387.73007 19169.1404492,-4020357.33938 19186.3428776,-4020285.36495 19173.8056247,-4020219.43606 19161.0249788,-4020135.57871 19184.3447603,-4020069.16289 19208.0219523,-4020033.12966 19256.0177763,-4020038.78166 19321.907634,-4020043.69412 19388.0001898,-4020037.12752 19495.9323082,-4020048.1038 19598.4775392,-4020107.30646 19743.3239574,-4020183.52117 19857.8938491,-4020236.40812 19972.7369043,-4020325.66453 20105.3143665,-4020390.26529 20213.7324426,-4020437.09701 20310.045869,-4020478.28599 20378.1294717,-4020468.09183 20394.1495884,-4020465.48792 20447.3714676,-4020398.99807 20463.5942548,-4020384.91535 20542.6052796,-4020320.13054 20608.0954495,-4020265.25384 20636.755619,-4020139.15224 20659.7516554,-4020042.85227 20706.9113,-4019946.37602 20753.4204548,-4019808.07372 20722.439622,-4019688.09267 20727.3445617,-4019586.0661 20689.9992247,-4019460.54361 20653.0611464,-4019358.91925 20622.2744177,-4019263.34935 20615.4484045,-4019179.08209 20584.7365098,-4019113.41494 20560.0915429,-4019059.78978 20493.4442886,-4018982.65106 20456.8245039,-4018928.85712 20414.3359361,-4018869.48742 20342.261928,-4018858.02313 20270.2672215,-4018858.51659 20197.820555,-4018823.64992 20155.0545469,-4018745.85566 20160.2885499,-4018655.76896 20141.4383556,-4018577.81589 20134.6475893,-4018494.04404 20115.8026818,-4018398.14561 20048.7492555,-4018297.10715 19975.6741331,-4018195.48797 19884.3038987,-4018052.76361 19816.9789322,-4017915.35471 19737.1144897,-4017729.96228 19645.1515565,-4017520.98078 19571.7898789,-4017389.96996 19570.959377,-4017287.84023 19569.8019466,-4017173.76976 19568.9663242,-4017089.58548 19556.2978788,-4017036.12771 19525.9939526,-4016994.35712 19453.6768467,-4016964.9621 19369.2553572,-4016929.92366 19272.8642134,-4016876.77054 19176.2249203,-4016823.6344 19079.5967033,-4016734.60694 19000.1696447,-4016591.55145 18938.7558762,-4016442.26563 18865.0403269,-4016280.86946 18822.0402798,-4016167.19773 18802.7084605,-4016053.38536 18735.4658492,-4015927.93006 18650.5713782,-4015821.14132 18565.9577298,-4015761.68853 18505.1873957,-4015672.17426 18468.0065764,-4015570.56139 18400.9623158,-4015451.57151 18339.8655647,-4015350.11571 18260.6043273,-4015213.02731 18163.3742727,-4015093.63022 18132.7505188,-4015021.97091 18131.9522301,-4014938.28089 18167.495206,-4014889.96442 18274.8436785,-4014816.747 18382.298698,-4014773.9298 18435.933538,-4014731.34223 18459.0960949,-4014658.95755 18488.0170054,-4014532.83771 18510.7809852,-4014418.60844 18600.0375557,-4014339.66355 18707.6212719,-4014302.32175 18797.2321502,-4014253.75989 18839.4501198,-4014229.90702 19011.9397612,-4014132.75045 20353.8742232,-4014811.66167 20754.1129382,-4014984.38651 21763.9298568,-4015178.28627 22789.1847215,-4015476.7812 23977.3640545,-4015756.52632 25427.0621001,-4016012.69761 26468.5100242,-4016254.21136 26516.6288177,-4016265.33896 28776.5878239,-4017017.68702 30413.6387866,-4017541.42951 32259.4741295,-4018173.29705 32214.477358,-4018272.0966 32301.7288205,-4018301.44579" style="stroke-linejoin:round;stroke:#000;stroke-width:1px;fill:none" /></g></g></svg>