<svg xmlns="http://www.w3.org/2000/svg" baseProfile="full" height="23005.4148239" version="1.1" viewBox="43418.225446,4078352.358796,10337.915002,23005.414824" width="10337.9150024"><defs><style type="text/css">polyline,line,rect,path,polygon,.polygon{fill:none;stroke:#000;stroke-width:1px;stroke-linejoin:round;}</style></defs><g fill_rule="evenodd" transform="scale(1,-1)"><g class="id" id="06260"><polygon class="_06260" id="None" points="45592.9516983,-4078431.69291 45605.8097347,-4078455.21059 45621.0280827,-4078487.53279 45647.0021505,-4078527.57361 45702.2727289,-4078612.40578 45945.4076796,-4078985.56979 46072.3833341,-4079179.99434 46117.0525214,-4079248.62478 46119.5616936,-4079252.43565 46170.3005674,-4079336.58714 46177.9322332,-4079349.50738 46192.6649747,-4079374.88669 46215.7385121,-4079412.63825 46267.0081435,-4079497.25064 46318.2778598,-4079581.8629 46371.2435981,-4079669.34615 46381.419222,-4079686.57303 46422.5482032,-4079754.45399 46423.4308891,-4079756.38545 46439.7555485,-4079783.14804 46448.0567463,-4079798.51286 46456.6406042,-4079814.3562 46480.8796841,-4079854.51741 46500.8442045,-4079887.00486 46504.2708109,-4079893.24301 46641.573231,-4080124.81258 46666.6257184,-4080165.91322 46706.093853,-4080231.41831 46746.9406175,-4080298.82003 46792.0273394,-4080373.39942 46793.1579804,-4080375.31349 46808.3521958,-4080400.16169 46854.5349291,-4080476.15913 46894.2165225,-4080541.15057 46933.8634428,-4080605.64606 46971.9186109,-4080668.758 46973.9319682,-4080672.60348 47060.3620762,-4080814.54862 47140.2564353,-4080944.99169 47147.2882986,-4080956.45863 47154.8854907,-4080968.88258 47193.154143,-4081031.48083 47196.0155101,-4081036.76182 47261.6332201,-4081144.78377 47284.4248854,-4081182.05549 47285.5208171,-4081183.47366 47290.574058,-4081191.59097 47333.9308516,-4081262.8021 47336.47484,-4081267.10869 47375.4132324,-4081332.1512 47399.3356445,-4081371.33681 47499.4738639,-4081538.23178 47592.0893932,-4081690.20571 47633.6464028,-4081757.0575 47675.9424681,-4081827.34555 47734.8118688,-4081924.3776 47791.7721634,-4082019.05168 47850.1111819,-4082115.62222 47907.250156,-4082209.28683 47963.5711842,-4082305.50009 48021.5536205,-4082404.08829 48079.8930881,-4082500.65809 48106.5337989,-4082546.6286 48240.500526,-4082762.47471 48280.2928546,-4082825.46235 48832.417586,-4083718.0933 49206.4423046,-4084323.21967 49268.4542283,-4084429.49436 49309.3252123,-4084507.85139 49311.9041259,-4084512.65356 49432.337105,-4084709.50838 49500.930072,-4084820.80221 49502.9088741,-4084824.15154 49764.9482233,-4085249.75912 49820.3250452,-4085339.55531 49909.2377453,-4085484.80168 49947.4750047,-4085546.8984 50024.7629686,-4085672.03114 50169.1534282,-4085912.04757 50224.4916481,-4086004.83503 50289.1588594,-4086113.41163 50348.5200351,-4086217.37722 50432.4153109,-4086355.00044 50466.9781836,-4086410.87608 50469.0265946,-4086415.217 50479.6647032,-4086431.91097 50646.6891724,-4086642.93099 50962.2676904,-4087163.92629 50970.9618217,-4087177.76666 50981.1737894,-4087195.48682 51199.9102425,-4087568.30484 51222.381293,-4087664.88978 51224.5296827,-4087674.2064 51226.4649364,-4087684.03625 51231.1184323,-4087700.65134 51234.2977309,-4087706.90596 51239.2775973,-4087717.51879 51244.9708814,-4087724.09533 51256.6401536,-4087737.72686 51260.1761624,-4087741.96333 51266.6872115,-4087745.9911 51274.0160238,-4087747.4701 51278.0175264,-4087747.68767 51284.7461479,-4087747.71394 51291.6879053,-4087747.22698 51304.0883361,-4087742.86913 51307.4200811,-4087740.64228 51352.8657314,-4087816.68069 51353.7834094,-4087819.10771 51368.0273692,-4087841.02932 51438.137945,-4087959.68407 51485.8802249,-4088040.04555 51535.2492438,-4088122.28589 51572.8142811,-4088185.42314 51589.7766241,-4088214.12976 51621.1569858,-4088267.23698 51644.5172397,-4088305.46024 51717.8514363,-4088423.88779 51757.0433737,-4088488.90363 51796.5180708,-4088554.39783 51835.57095,-4088617.43017 51837.2324085,-4088619.80497 51883.3530519,-4088694.7982 51927.6339673,-4088768.42558 51969.3705639,-4088837.74692 52011.6030534,-4088907.03336 52053.6224783,-4088976.83295 52098.3994819,-4089050.42512 52078.4835049,-4089061.28992 51992.5433252,-4089111.16889 51971.8444221,-4089125.07831 51950.2973779,-4089137.55244 51857.3022859,-4089193.40774 51850.3910427,-4089197.87896 51823.1027169,-4089213.74569 51735.6008162,-4089266.22605 51700.9401555,-4089287.09472 51627.2606478,-4089330.63279 51584.697001,-4089356.04238 51502.2271543,-4089405.67859 51494.0762866,-4089410.23685 51404.1296332,-4089463.38761 51387.4016333,-4089473.53063 51331.6546527,-4089506.34327 51272.1497044,-4089542.40941 51258.5054436,-4089550.34292 51181.0675969,-4089597.13507 51154.2748828,-4089612.96736 51102.6379939,-4089643.99694 51087.5757784,-4089653.02658 51073.7183648,-4089661.47339 51003.1611783,-4089699.81034 50996.7457066,-4089704.24688 50920.7255364,-4089749.94334 50908.7122649,-4089756.26762 50812.7757094,-4089812.82947 50807.2475088,-4089815.7089 50737.1816075,-4089857.49971 50688.1671928,-4089886.85076 50658.2905258,-4089904.89289 50576.2111713,-4089953.00826 50572.8794581,-4089955.23526 50544.9513308,-4089972.64241 50505.2753588,-4090010.80569 50563.9431465,-4090108.33882 50602.0416084,-4090171.93707 50619.8533915,-4090202.07901 50646.7124511,-4090247.53112 50658.8349135,-4090267.60832 50692.4446653,-4090324.04714 50737.1504574,-4090400.13682 50766.7673001,-4090449.38147 50767.6502912,-4090451.31264 50813.3826995,-4090527.82836 50815.0442652,-4090530.20316 50853.9607104,-4090591.25205 50859.5804859,-4090600.32501 50868.9453579,-4090616.60936 50900.819903,-4090673.16962 50901.4201703,-4090674.62234 50944.6820978,-4090744.33516 50945.17368,-4090747.78866 50962.8116352,-4090775.45105 50965.3562074,-4090779.757 50991.4022122,-4090824.26912 51005.5735514,-4090848.68684 51029.8883996,-4090889.83245 51068.5877516,-4090954.88244 51119.5142445,-4091041.49677 51170.3363961,-4091126.62343 51193.272537,-4091165.87248 51197.7962585,-4091173.52743 51225.2561489,-4091220.43139 51246.7090447,-4091256.29652 51293.9255153,-4091336.19488 51357.5406475,-4091443.84218 51409.2462471,-4091530.89931 51449.0770619,-4091597.86221 51489.2254849,-4091665.7993 51566.0600333,-4091794.94039 51657.3492066,-4091948.97678 51971.5807267,-4092478.50597 52070.2225003,-4092644.97926 52073.8633147,-4092650.70289 52524.9134461,-4093411.28178 53017.5352556,-4094242.17516 53111.5870199,-4094399.99663 53197.4741025,-4094544.43975 53287.0332337,-4094698.58988 53377.6928514,-4094850.66915 53523.2771194,-4095096.54892 53528.2970416,-4095104.16844 53614.541844,-4095246.59146 53623.0245615,-4095260.94336 53644.4792768,-4095296.80567 53649.6037601,-4095305.91262 53652.5707265,-4095312.67986 53657.1645442,-4095321.32583 53587.3786632,-4095434.35513 53564.5660835,-4095471.33568 53502.3729164,-4095571.8732 53471.2589414,-4095621.89413 53414.6712144,-4095713.56736 53378.199911,-4095772.43564 53284.2539942,-4095924.53483 53258.3193445,-4095966.71798 53190.3819242,-4096074.13798 53096.8973817,-4096225.70749 53056.5952467,-4096290.32679 52999.4773801,-4096381.5404 52967.4418236,-4096432.62359 52899.5745506,-4096541.03635 52798.6802867,-4096700.60259 52823.0336408,-4096742.24059 52504.0989421,-4096933.08261 52500.4848025,-4096934.83156 52255.1915523,-4097078.14355 51710.9169065,-4097394.95518 51661.1280103,-4097423.86886 51427.9878727,-4097559.3539 51349.4595603,-4097604.73921 51219.9372542,-4097679.62172 51163.2372865,-4097713.00817 51149.8070116,-4097720.43041 51066.6725212,-4097767.6349 50897.1764472,-4097865.75925 50864.3618377,-4097884.51063 50074.7113371,-4098340.17856 50071.5929274,-4098341.89278 49989.650588,-4098398.98109 50079.3253646,-4098558.11091 50073.3364817,-4098561.52195 49823.4611209,-4098710.64929 49816.5153888,-4098714.62597 49810.5264856,-4098718.03704 49803.1197757,-4098722.54444 49800.4972133,-4098724.22382 49788.0235509,-4098731.08084 49630.436858,-4098817.90762 49032.406248,-4099146.50136 48461.9520429,-4099548.40723 48196.5090959,-4099777.372 47571.0030671,-4100321.19884 47550.5839873,-4100339.08032 46999.0510783,-4100825.88678 46500.4359629,-4101306.98465 46488.0628603,-4101318.81883 46485.7303569,-4101313.99961 46326.531341,-4101041.6487 45724.7808786,-4100011.06238 45674.8358154,-4099917.39937 45641.7522319,-4099854.44394 45201.18856,-4099099.54618 45194.0830601,-4099087.08898 45164.6344181,-4099036.834 45155.3360896,-4099021.54094 45111.3854564,-4098920.97628 44955.9011993,-4098563.13533 44879.749467,-4098050.7085 44879.0520664,-4098040.79061 44877.7114348,-4098004.00724 44871.9075093,-4097871.85522 44880.980767,-4097834.33962 45073.0655144,-4097093.25106 45075.5915773,-4097083.10661 45297.1972772,-4096208.88563 45297.7668404,-4096206.35389 45335.0653433,-4095985.45932 45336.4564093,-4095976.88977 45339.6647302,-4095958.72404 45340.6604888,-4095955.16568 45342.5942377,-4095936.59119 45343.4933996,-4095924.56784 45354.7036827,-4095846.5373 45373.3425698,-4095714.66242 45391.6212463,-4095588.29471 45428.4004991,-4095328.06896 45432.5471579,-4095294.88724 45441.8711751,-4095225.46136 45468.6065639,-4095045.67606 45473.8537198,-4095010.42372 45493.881568,-4094873.46867 45495.3465155,-4094862.40231 45497.1679812,-4094849.31756 45497.5633832,-4094844.30641 45490.4954985,-4094495.46876 45490.5913096,-4094443.635 45489.8103338,-4094414.78634 45484.0733568,-4094201.90132 45484.0425998,-4094197.91679 45483.572891,-4094084.82741 45482.9376551,-4094082.87869 45480.2922021,-4094073.59615 45475.6465788,-4093897.51145 45473.9806717,-4093838.32647 45473.5626562,-4093832.3758 45467.9093192,-4093730.61403 45467.4629946,-4093628.4865 45459.6463104,-4093499.46823 45457.2498603,-4093369.57092 45457.3236515,-4093367.07405 45454.4864574,-4093280.56293 45453.3412075,-4093260.70994 45415.1583187,-4093054.09076 45388.6706516,-4092960.76894 45378.0199013,-4092922.64676 45368.108851,-4092887.96098 45366.4860334,-4092882.59326 45362.957628,-4092871.37933 45361.3348117,-4092866.01161 45360.4168445,-4092863.5844 45359.8164752,-4092862.13155 45358.7940289,-4092858.21667 45343.2052564,-4092802.99951 45315.8000089,-4092707.25027 45292.3801604,-4092625.67284 45271.8187563,-4092552.86467 45258.2402811,-4092504.98126 45235.8779418,-4092427.81447 45201.1729157,-4092306.16573 45187.8773995,-4092258.76069 45173.9119236,-4092208.911 45163.4009219,-4092172.77215 45154.791257,-4092145.96819 45137.9454019,-4092076.38723 45136.9230059,-4092072.47233 45134.282072,-4092059.70101 45131.1008688,-4092025.0408 45119.9346485,-4091915.69241 45113.1767727,-4091851.38313 45104.4301585,-4091762.29663 45103.3771925,-4091754.39718 45100.131757,-4091743.66163 45095.6160038,-4091729.02859 45093.3054108,-4091706.76566 45092.887611,-4091700.81496 45092.1131858,-4091696.88263 45085.4609501,-4091662.46611 45075.227868,-4091601.88915 45073.1262167,-4091582.60157 45066.8603558,-4091521.74606 45060.6327622,-4091429.49265 45051.8333744,-4091297.05453 45043.678673,-4091187.99297 45034.9018365,-4091066.51667 45029.7760798,-4091000.59775 45022.8317205,-4090915.8697 45008.5690469,-4090733.98145 45007.5638906,-4090716.1119 44998.8099499,-4090605.59738 44987.8939203,-4090467.82613 44973.6326305,-4090285.93776 44973.2149742,-4090279.98704 44959.7158292,-4090140.90206 44933.0317343,-4089867.19503 44932.4009747,-4089861.7576 44928.0770522,-4089835.64924 44905.8660154,-4089696.67723 44844.993935,-4089319.22347 44812.4491844,-4089118.18599 44809.2869668,-4089097.97609 44801.3096705,-4089048.20389 44797.1296706,-4089020.59036 44771.4712653,-4088864.41811 44747.5836945,-4088708.61988 44730.359681,-4088605.17771 44722.9482731,-4088556.3624 44719.1164015,-4088533.70777 44662.8879772,-4088186.82374 44660.7785628,-4088174.51331 44636.6011714,-4088025.21346 44595.0713825,-4087763.51004 44582.3155795,-4087684.67097 44581.1891239,-4087679.26828 44576.8055362,-4087645.19055 44575.7531203,-4087637.29099 44564.6198261,-4087563.81977 44556.6482935,-4087510.55857 44555.97849,-4087508.11387 44552.3298842,-4087480.96128 44543.2364779,-4087418.8087 44539.9357168,-4087396.61508 44524.1354592,-4087316.99276 44512.0320626,-4087254.55292 44498.3804782,-4087184.24825 44497.8890794,-4087180.79436 44490.9915134,-4087146.39456 44480.0011852,-4087099.82337 44458.0206362,-4087006.68095 44440.7634651,-4086931.14735 44430.8603942,-4086892.97159 44403.8606748,-4086792.20764 44386.7640661,-4086729.61945 44384.263378,-4086718.8314 44370.8936797,-4086677.41031 44352.2354118,-4086617.42326 44349.6954368,-4086609.62798 44326.3700427,-4086543.48977 44299.1606937,-4086468.15546 44292.632399,-4086449.67642 44254.1143051,-4086355.20149 44239.7091722,-4086320.33125 44233.1763681,-4086305.34085 44176.4902829,-4086182.7377 44136.6843505,-4086098.31952 44133.4701263,-4086091.56815 44080.9328072,-4085992.594 44067.2579935,-4085968.1375 44057.0453485,-4085950.41499 44054.183393,-4085945.13392 44041.3567498,-4085922.11295 43989.9761308,-4085832.52588 43959.3035317,-4085778.86231 43945.2024159,-4085755.43228 43882.7218988,-4085649.67956 43872.5093245,-4085631.95695 43795.640608,-4085505.78402 43790.6953765,-4085495.66555 43724.3149828,-4085366.26535 43714.7026656,-4085349.99559 43687.2793079,-4085303.57891 43672.9303774,-4085280.16606 43619.7406719,-4085193.19648 43603.9782015,-4085167.39095 43600.2681568,-4085160.67423 43578.8259042,-4085117.82487 43577.3428127,-4085114.44043 43572.2238285,-4085101.84237 43557.6895237,-4085058.01041 43545.9777506,-4085022.45239 43540.6548524,-4085003.39017 43496.3084553,-4084818.62362 43501.4369609,-4084717.59908 43526.7385561,-4084257.35159 43528.5116273,-4084229.32023 43529.7794512,-4084208.30105 43545.9631518,-4083920.12259 43556.5267011,-4083729.51463 43599.0554127,-4082978.0285 43637.0237958,-4082278.69128 43654.3630411,-4082006.87928 43693.2522273,-4081647.84431 43696.5885239,-4081617.21209 43700.2374205,-4081591.04302 43714.5561489,-4081507.3163 43740.9825698,-4081350.98127 43759.7688298,-4081238.53669 43767.4093833,-4081194.6464 43787.0238177,-4081072.67559 43816.3469264,-4080897.20151 43888.0670957,-4080569.25867 43888.6373348,-4080566.72707 43893.1699059,-4080567.40637 43920.2166531,-4080576.47591 43962.2842388,-4080582.99867 43991.28962,-4080584.45604 44021.1728437,-4080591.33361 44076.3122977,-4080595.94438 44114.3083996,-4080601.25719 44143.4873239,-4080605.19405 44166.259139,-4080606.58954 44201.3986146,-4080603.13239 44205.3310925,-4080602.3587 44215.7498816,-4080598.14085 44234.2121251,-4080591.36647 44249.5947956,-4080583.31273 44265.0121859,-4080575.7549 44289.9406658,-4080554.5745 44311.7450742,-4080538.59617 44328.3523211,-4080516.00513 44337.1640766,-4080495.95325 44348.0934279,-4080481.23475 44363.5205922,-4080466.69964 44364.9735665,-4080466.09958 44382.9051546,-4080458.86408 44407.8536558,-4080448.64562 44425.8747116,-4080453.36377 44451.0119462,-4080460.0753 44468.9537576,-4080470.77894 44493.0595655,-4080480.55264 44519.0496818,-4080485.21112 44542.213078,-4080485.08423 44564.1763375,-4080482.05139 44586.3924306,-4080475.51256 44592.9828724,-4080473.55612 44614.8468407,-4080465.54697 44637.786722,-4080447.99426 44646.6629956,-4080432.42293 44651.5623081,-4080424.10665 44653.4813465,-4080419.48733 44658.2813923,-4080406.19473 44656.0939415,-4080374.95326 44653.732902,-4080341.2323 44649.3633819,-4080300.17706 44652.8142607,-4080264.05588 44657.4750899,-4080223.86336 44662.7658107,-4080189.10835 44663.0533887,-4080186.09826 44667.0402013,-4080171.86596 44676.328263,-4080165.73407 44682.7798248,-4080161.79409 44683.8459677,-4080159.22781 44686.7964488,-4080151.54633 44691.264426,-4080147.74522 44697.6465485,-4080142.81344 44712.4985341,-4080134.29871 44723.5667736,-4080121.56394 44736.2068829,-4080099.25093 44752.1348402,-4080081.19268 44769.4066929,-4080064.53532 44770.7902232,-4080062.94348 44799.6560125,-4080037.50121 44829.4094325,-4080010.50184 44851.0103819,-4079988.05986 44862.038984,-4079978.31788 44874.9470102,-4079966.94935 44900.7283422,-4079943.71641 44923.4003613,-4079915.21961 44940.0820123,-4079890.13215 44950.8873035,-4079862.96448 44952.5781422,-4079844.4081 44954.5120032,-4079829.32299 44954.2092191,-4079792.96651 44952.1065092,-4079777.16733 44938.6775423,-4079756.18118 44936.8774156,-4079751.82229 44927.48504,-4079731.55019 44921.6531115,-4079698.07239 44922.9522551,-4079681.03841 44923.8497758,-4079672.50407 44930.8864247,-4079655.56676 44944.6573037,-4079635.16808 44949.1600064,-4079631.86292 44968.4849227,-4079616.05868 44973.8356099,-4079614.18914 44991.3406347,-4079607.98046 45014.0971382,-4079594.92596 45027.0349688,-4079587.54205 45043.4489946,-4079576.42653 45052.984998,-4079570.27742 45078.5878767,-4079548.05387 45102.4947889,-4079522.95913 45124.2147971,-4079491.5393 45135.7640676,-4079464.31973 45142.6023705,-4079437.42994 45149.3067863,-4079405.06799 45155.0243906,-4079369.28688 45159.9833015,-4079319.10754 45160.3105918,-4079313.10476 45161.9569761,-4079276.11368 45159.6461745,-4079232.4231 45156.2295526,-4079194.29146 45155.703916,-4079190.34168 45150.794675,-4079155.80277 45143.445674,-4079118.4447 45141.6259078,-4079078.20799 45150.7553685,-4079059.13106 45156.6763413,-4079054.73004 45158.3425441,-4079053.61677 45163.3411523,-4079050.27696 45171.5680351,-4079043.22294 45195.9510953,-4079032.04813 45207.5401123,-4079026.75207 45217.8199783,-4079020.551 45227.425425,-4079015.39377 45252.1952507,-4079006.1852 45268.2225278,-4078993.10368 45282.0579812,-4078977.18565 45289.8138649,-4078952.7234 45303.6790509,-4078940.78987 45317.9359995,-4078927.33397 45329.2523112,-4078914.58221 45334.2014278,-4078896.29628 45344.8632639,-4078870.63402 45349.3709601,-4078863.84036 45359.7351922,-4078848.16535 45363.4495875,-4078826.47761 45363.9504661,-4078822.95432 45367.3375304,-4078807.26933 45374.1264164,-4078790.34962 45376.9084838,-4078776.70027 45377.8358403,-4078772.15048 45380.3996822,-4078762.50296 45387.4912039,-4078732.10745 45392.9312663,-4078717.27543 45396.273659,-4078708.07175 45405.9984755,-4078669.02052 45410.6402977,-4078642.78304 45413.3579832,-4078624.65334 45414.1418228,-4078596.6926 45416.6065747,-4078582.06884 45417.1074672,-4078578.54555 45417.3604148,-4078575.03962 45420.7922536,-4078552.87339 45421.590812,-4078539.36289 45422.4290846,-4078522.85969 45421.5517746,-4078492.52363 45427.1307134,-4078479.6752 45429.8881619,-4078458.55283 45434.5497471,-4078443.27702 45437.8081099,-4078418.63136 45443.1441302,-4078402.31171 45445.2071251,-4078396.18751 45459.9056782,-4078371.23955 45471.7873735,-4078359.44501 45492.7932752,-4078356.97831 45518.7727079,-4078368.61476 45548.1685979,-4078393.46668 45569.4567396,-4078416.39441 45592.9516983,-4078431.69291" style="stroke-linejoin:round;stroke:#000;stroke-width:1px;fill:none" /></g></g></svg>