<svg xmlns="http://www.w3.org/2000/svg" baseProfile="full" height="26455.707459" version="1.1" viewBox="60893.030800,4085013.793930,14204.218741,26455.707459" width="14204.2187406"><defs><style type="text/css">polyline,line,rect,path,polygon,.polygon{fill:none;stroke:#000;stroke-width:1px;stroke-linejoin:round;}</style></defs><g fill_rule="evenodd" transform="scale(1,-1)"><g class="id" id="06274"><polygon class="_06274" id="None" points="62842.1994061,-4096775.00674 62661.061227,-4096458.93216 62606.6061446,-4096364.61561 62419.4242072,-4096040.49412 62425.1641131,-4096037.1016 62961.4844147,-4095693.52445 63126.9221594,-4095587.74204 63409.6083214,-4095406.46682 63983.1266336,-4095039.3636 64697.3079845,-4094582.67768 64700.143032,-4094580.48583 64561.2533849,-4094362.08002 64417.8761537,-4094136.51586 64413.2138991,-4094126.87988 64405.1245999,-4094111.00838 64392.2685912,-4094084.0137 64388.2761779,-4094076.82154 64176.865058,-4093747.93068 64033.6635552,-4093524.84223 63762.2832847,-4093101.02161 63760.6220209,-4093098.64739 63744.6095574,-4093076.35749 63360.885698,-4092535.37796 63358.1285507,-4092531.5861 63293.4442696,-4092440.47709 63185.6373217,-4092288.62829 63228.7570949,-4092264.17903 62940.6856422,-4091886.35562 62865.599957,-4091789.00092 62827.1913805,-4091724.44235 62783.390764,-4091668.23317 62759.307559,-4091644.51636 62735.7548972,-4091621.26047 62677.4379856,-4091535.68082 62658.8775665,-4091512.5726 62448.5988994,-4091249.34487 62447.5030192,-4091247.92723 62052.1273887,-4091491.89391 61878.9666006,-4091189.68974 61726.0286479,-4090912.967 61719.105403,-4090899.50351 61944.6098064,-4090762.11802 61989.0443988,-4090735.08636 61907.4016984,-4090615.27204 61928.8406283,-4090601.31269 61969.909433,-4090576.01193 61876.5081864,-4090430.61844 61719.8513872,-4090186.03942 61597.8975197,-4089995.81813 61595.5666492,-4089990.99975 61593.8358897,-4089987.63385 61462.9852137,-4089777.11187 61387.7191368,-4089655.8515 61380.4743201,-4089644.90134 61342.2412524,-4089582.81854 61311.9574803,-4089534.62559 61304.0430132,-4089521.23142 61256.303973,-4089444.37134 61207.9996858,-4089366.55441 61205.7384171,-4089362.72749 61163.6179046,-4089294.93872 61120.3668156,-4089225.23639 61099.0239503,-4089190.86355 61081.0382086,-4089161.73533 61041.3182284,-4089099.75625 61129.5553637,-4089043.7466 61195.396117,-4089002.26131 61300.7847243,-4088935.08488 61428.1432404,-4088854.41087 61443.9119104,-4088844.83544 61467.2648688,-4088829.74606 61479.6675874,-4088821.90133 61741.5071939,-4088655.57126 61841.1547787,-4088591.78785 61943.5681037,-4088524.82152 62048.8862554,-4088456.65528 62095.5918436,-4088426.47715 62152.7865837,-4088389.5851 62256.1910425,-4088322.54992 62352.4025926,-4088259.50677 62370.0149889,-4088247.80958 62372.4241747,-4088246.64423 62415.2679424,-4088218.23183 62509.6354249,-4088157.31107 62512.4708102,-4088155.11947 62604.0723457,-4088097.382 62669.877206,-4088055.40304 62741.9180541,-4088009.99773 62791.0672152,-4087979.15072 62880.2592831,-4087922.57911 62940.3236517,-4087883.99221 63020.4441796,-4087833.03887 63157.2977444,-4087745.72537 63156.2019667,-4087744.30768 63158.0806223,-4087742.6814 63195.9191131,-4087806.28527 63217.4690258,-4087843.63171 63240.7147776,-4087883.84824 63282.5450711,-4087954.64462 63326.1407916,-4088029.30248 63369.0669967,-4088101.51633 63411.5323001,-4088174.26057 63455.1282265,-4088248.91811 63459.0156319,-4088254.62355 63483.7835714,-4088295.23119 63500.2114305,-4088323.47123 63518.3699099,-4088355.0771 63524.6227563,-4088366.09653 63542.7812529,-4088397.70237 63585.2468271,-4088470.44619 63654.3850419,-4088589.6418 63657.5333182,-4088591.91183 63739.2357106,-4088520.92005 63778.5823051,-4088485.28069 63783.7571888,-4088480.93232 63802.9347495,-4088463.14743 63846.9952531,-4088423.6903 63892.4038556,-4088382.14597 63896.6220431,-4088378.3629 63917.9920914,-4088335.01756 63926.481101,-4088313.99711 63933.6220056,-4088295.06391 63935.4837184,-4088278.99185 63949.4953388,-4088258.5804 63963.5417334,-4088238.66469 63965.8554796,-4088229.03716 63962.5770945,-4088217.80918 63945.8712448,-4088185.60349 63936.5666211,-4088152.38049 63933.0100901,-4088137.18664 63931.5149863,-4088115.87016 63933.3677919,-4088106.77314 63940.7173794,-4088090.81436 63954.3118305,-4088064.45417 63957.8694171,-4088051.25222 63958.8440397,-4088036.73692 63956.8095055,-4088021.9345 63953.0006603,-4088010.24554 63950.7922892,-4087992.96446 63943.9137239,-4087973.0219 63943.5750125,-4087961.08957 63947.6631236,-4087948.34858 63955.0654766,-4087918.93553 63958.2843985,-4087893.80125 63960.4770997,-4087868.24078 63963.8878578,-4087831.63514 63964.2097532,-4087829.12172 63966.3857034,-4087789.11549 63975.6925294,-4087765.54696 63994.3679841,-4087697.98062 64011.4082394,-4087635.5107 64011.486784,-4087629.52716 64012.5838396,-4087602.54906 64000.5395116,-4087579.97975 63987.7998928,-4087547.49579 63980.0433456,-4087522.13492 63974.0959142,-4087494.15632 63973.9401556,-4087477.72764 63973.9324926,-4087456.30688 63975.3772694,-4087434.28609 63977.7259115,-4087425.15434 63987.2324219,-4087411.53527 63994.9207837,-4087407.50893 64002.113413,-4087403.51735 64026.6656855,-4087391.33405 64049.9483802,-4087375.25444 64078.2850473,-4087338.89367 64108.7436952,-4087304.37682 64118.9635703,-4087286.72243 64120.0336115,-4087280.66938 64123.4266085,-4087258.01388 64124.8185719,-4087249.44741 64128.0725324,-4087224.80899 64130.4302632,-4087208.70228 64131.1269981,-4087190.2212 64131.8494325,-4087179.21084 64134.7724293,-4087164.06084 64137.5563843,-4087146.92791 64138.6959623,-4087141.86632 64139.8446137,-4087129.82974 64141.4104013,-4087123.74193 64148.2297331,-4087107.32238 64160.3373764,-4087081.06683 64172.2621435,-4087059.30762 64175.6718159,-4087051.09785 64179.4381775,-4087040.87041 64182.0226911,-4087013.78814 64182.7633367,-4086988.82783 64182.329641,-4086968.43338 64180.0264063,-4086942.69017 64176.7573838,-4086924.48719 64181.9761984,-4086913.65974 64185.534028,-4086900.45793 64182.8244921,-4086833.39533 64183.5230395,-4086786.51863 64184.2803078,-4086776.00402 64184.18515,-4086767.54185 64184.6734772,-4086746.08642 64193.9037793,-4086700.10604 64188.0610404,-4086673.61468 64185.2695746,-4086669.32689 64194.306117,-4086663.21347 64225.2425495,-4086642.61226 64228.0779002,-4086640.4208 64275.6697163,-4086608.68853 64339.8821347,-4086565.32953 64429.8211531,-4086505.22197 64515.0808528,-4086449.42796 64603.6367832,-4086390.9122 64683.1213791,-4086338.0142 64754.4913618,-4086290.16869 64758.7791197,-4086287.37728 64765.4759955,-4086283.42065 64843.0470593,-4086231.65341 64847.795784,-4086228.33152 64914.5559294,-4086185.79105 64987.4476532,-4086138.33738 64989.8567644,-4086137.17217 65003.6419446,-4086127.73705 65059.3826242,-4086091.44905 65063.1746447,-4086088.69242 65130.821815,-4086044.59558 65199.9908495,-4086000.89032 65214.3064706,-4085991.91624 65217.1417936,-4085989.72485 65298.7129847,-4085938.1761 65398.2874459,-4085873.40972 65410.2286863,-4085866.09661 65548.0010358,-4085777.73033 65686.3383824,-4085690.32115 65757.3508464,-4085644.49486 65920.8836062,-4085539.87752 65927.5803892,-4085535.92105 66028.1803141,-4085471.58226 66033.9806377,-4085476.15719 66042.6510065,-4085479.03649 66052.1738157,-4085479.86345 66057.1309568,-4085479.51598 66061.9838575,-4085477.68138 66064.3929343,-4085476.51621 66065.8105831,-4085475.42055 66070.0287828,-4085471.63783 66071.7684127,-4085468.02884 66072.9080892,-4085462.96747 66072.9868453,-4085456.98415 66068.1524732,-4085444.86927 66079.1021918,-4085437.62583 66084.8422806,-4085434.23459 66207.5939261,-4085351.90457 66301.8882572,-4085290.00093 66345.7217556,-4085261.5231 66438.1025866,-4085200.75015 66485.7974699,-4085170.50737 66665.8448594,-4085052.77963 66670.8621255,-4085060.39829 66685.3487325,-4085082.29757 66733.3487444,-4085141.69943 66776.9569004,-4085202.40529 66817.9128314,-4085260.80626 66857.9816183,-4085320.76375 66907.2418652,-4085391.03603 66974.0488312,-4085498.43518 67023.4737053,-4085578.16032 67035.9450837,-4085571.30843 67043.8578877,-4085584.70172 67250.2794282,-4085921.42062 67270.5920402,-4085955.36456 67349.7483499,-4086068.3725 67413.3222595,-4086158.0638 67480.1832378,-4086252.00769 67548.4966532,-4086345.35141 67578.8185661,-4086387.06161 67673.1409145,-4086517.43612 67675.4017577,-4086521.2627 67706.2194413,-4086562.93796 67776.2287708,-4086659.15088 67810.6554276,-4086702.56549 67856.1778202,-4086762.13865 67872.5781024,-4086782.90664 67935.3093559,-4086867.67414 67948.492162,-4086885.18074 67996.2407529,-4086948.08446 68071.9811678,-4087047.87964 68154.2957151,-4087156.17996 68214.1664047,-4087235.66781 68272.5500676,-4087315.25978 68334.473175,-4087395.59963 68336.6645291,-4087398.43474 68398.3005828,-4087481.78335 68462.058531,-4087566.97549 68646.2326143,-4087700.01075 68742.9764778,-4087765.45424 68749.2028922,-4087769.00257 68786.3090446,-4087793.79713 68812.5189677,-4087812.38209 68829.8501948,-4087825.11411 68833.5633893,-4087828.34057 68876.2522147,-4087861.70979 68912.1494021,-4087890.57404 68944.7506003,-4087922.16007 68990.4393637,-4087962.79064 68993.0568764,-4087964.59955 69069.7902325,-4088035.92887 69200.8734778,-4088157.74138 69254.5538329,-4088205.781 69313.1125964,-4088259.45583 69369.5147628,-4088310.7912 69426.0560104,-4088364.1092 69454.9787902,-4088392.96397 69481.4668031,-4088415.51391 69483.6233975,-4088417.85324 69530.5816707,-4088462.37895 69539.103733,-4088470.24922 69556.2174022,-4088486.9811 69598.3320303,-4088526.36714 69650.9773639,-4088580.95427 69691.8578645,-4088588.54697 69764.4783864,-4088636.75141 69782.7661236,-4088648.91773 69873.2134066,-4088709.81875 69975.0524218,-4088776.89404 70087.2050975,-4088834.7775 70225.2195525,-4088906.28792 70314.6231684,-4088952.31774 70348.2331948,-4088969.88433 70505.3870755,-4089051.50785 70511.5438375,-4089054.06458 70551.3453225,-4089074.68344 70581.8421,-4089090.47585 70646.9401229,-4089123.76509 70713.6294489,-4089158.43694 70791.7104149,-4089199.28299 70888.296287,-4089248.29465 70902.7663304,-4089255.74726 70924.4887803,-4089267.174 71013.3527091,-4089291.32358 71123.451991,-4089319.96038 71210.7938558,-4089343.71845 71233.6554201,-4089350.08406 71341.7716486,-4089378.85973 71429.5393206,-4089401.59148 71456.4356997,-4089408.67014 71566.6385521,-4089438.79344 71673.1976578,-4089466.68175 71708.7289134,-4089476.14305 71885.3240048,-4089522.52759 71897.9938238,-4089525.62336 71931.5423035,-4089535.22371 71941.2033579,-4089538.0325 72063.9185072,-4089611.60825 72209.0251501,-4089699.05348 72311.5744722,-4089762.08924 72592.1777859,-4089835.54199 72598.1952329,-4089836.1159 72606.7953132,-4089838.00286 72658.3609861,-4089848.82894 72820.5969162,-4089882.27224 72834.7187335,-4089884.76786 72914.8148599,-4089925.96777 73055.8328973,-4089997.75863 73136.7202286,-4090057.33211 73220.7205689,-4090118.67931 73221.8162297,-4090120.09669 73229.8685061,-4090135.47051 73295.982511,-4090261.33051 73301.7391278,-4090272.3826 73304.1043927,-4090277.6956 73389.1060687,-4090445.56356 73400.1237117,-4090467.70245 73505.3959777,-4090675.98667 73523.4052144,-4090712.57743 73611.2688852,-4090885.72231 73625.0090814,-4090939.54768 73628.0006809,-4090953.78228 73678.0573612,-4091155.9794 73682.2490801,-4091173.11827 73703.7729886,-4091259.7691 73725.8622656,-4091347.37637 73748.8300946,-4091440.40089 73770.6327863,-4091531.0167 73798.6016045,-4091645.60592 73809.0290693,-4091687.70947 73826.0138389,-4091752.2647 73847.8518147,-4091843.37595 73889.3536074,-4092008.81594 73906.1911177,-4092078.36226 73915.9564043,-4092082.65745 73924.9404442,-4092118.38708 73934.7681907,-4092159.03833 73970.0698017,-4092300.00892 74016.3302377,-4092483.54348 74020.3483095,-4092498.20396 74066.2446341,-4092690.72943 74106.7575282,-4092856.23792 74112.219513,-4092877.2721 74138.0774323,-4092983.04298 74149.3496167,-4093030.06771 74152.6367782,-4093034.31962 74156.5936413,-4093041.01494 74157.0461945,-4093047.45829 74157.6379959,-4093055.88422 74153.9944377,-4093053.64969 74151.0205813,-4093053.85856 74146.9510037,-4093052.65013 74139.0903425,-4093054.1984 74133.7078948,-4093055.57262 74128.8210894,-4093056.91202 74123.5778884,-4093060.26881 74117.7694201,-4093062.66913 74113.5871284,-4093066.94758 74108.0571555,-4093073.31304 74104.9705864,-4093079.0088 74101.2060407,-4093089.23497 74100.1633984,-4093102.75659 74105.5641205,-4093115.82564 74128.4781461,-4093137.12828 74131.591254,-4093138.90198 74134.4872201,-4093144.67563 74139.7917755,-4093149.28393 74146.6528847,-4093154.77908 74157.896889,-4093165.94344 74164.2971681,-4093171.96904 74171.2627157,-4093178.95111 74180.2456463,-4093186.28957 74184.0980871,-4093191.49794 74187.8460887,-4093195.21939 74190.0640921,-4093205.52344 74193.3778219,-4093217.24479 74211.4682459,-4093276.24273 74275.8983242,-4093484.40035 74390.7413015,-4093871.3159 74536.7599255,-4094361.63411 74847.4801498,-4095359.87878 74873.7924216,-4095443.70011 75009.2081807,-4095868.01386 74993.8973182,-4095884.03252 74988.7936973,-4095889.37208 74981.8468822,-4095896.83353 74871.9060474,-4096012.1473 74820.4438726,-4096066.56925 74768.025261,-4096121.55661 74717.980318,-4096174.88297 74660.3884015,-4096234.21887 74612.6474476,-4096284.89303 74605.7006318,-4096292.35458 74506.8886099,-4096395.92963 74489.3085913,-4096415.09662 74485.022041,-4096417.88839 74459.5387677,-4096445.0823 74451.1747149,-4096453.63969 74400.1733254,-4096507.53197 74340.7730381,-4096569.48612 74289.2411605,-4096622.9178 74237.7092797,-4096676.34958 74185.2557994,-4096730.84243 74132.802316,-4096785.33538 74030.2690216,-4096892.66043 73926.3533239,-4097001.57734 73823.2198237,-4097107.45108 73775.9047934,-4097157.10059 73711.7919422,-4097222.87411 73613.4754852,-4097326.41758 73610.7106973,-4097329.60056 73505.3428639,-4097439.11927 73502.0475776,-4097441.84147 73393.9846451,-4097555.5349 73269.1587196,-4097685.84862 73203.1677816,-4097753.24969 73046.8333083,-4097917.16046 72865.3368895,-4098105.75444 72492.2412471,-4098495.11303 72214.8367083,-4098786.09362 72203.2819097,-4098798.86101 71634.0559645,-4099388.32062 71490.0930329,-4099536.92465 71130.1781062,-4099915.41227 71105.1555741,-4099942.07882 70704.5234328,-4100357.80716 70399.6945855,-4100669.6646 70300.7426201,-4100771.27224 69902.336904,-4101190.34251 69704.8238444,-4101392.0398 69528.6817916,-4101571.81069 69260.8134904,-4101849.69663 69085.341434,-4102031.91388 68820.6564553,-4102312.56892 69149.8051442,-4102622.15876 69397.3560986,-4102855.29653 69721.729655,-4103160.73307 69827.9087214,-4103260.85495 70315.687441,-4103722.1536 70823.0560013,-4104206.9712 71339.270168,-4104697.13464 71856.1548403,-4105189.73257 72068.5831945,-4105390.95218 71951.2124691,-4105513.78924 69939.3010247,-4107642.12244 69901.7364481,-4107681.63288 69868.3534763,-4107716.86345 68688.9607828,-4108963.68649 68714.9905919,-4109071.44531 68794.0566312,-4109373.23186 68798.1842638,-4109389.37991 66730.9456624,-4110514.56345 66625.6658466,-4110575.7921 66440.9859152,-4110620.20346 65647.4879376,-4111398.53983 65279.4603577,-4110376.31653 65273.2445048,-4110358.8202 64797.2772705,-4109416.43453 64576.3197019,-4108974.67493 64562.7446548,-4108951.71884 64548.219541,-4108922.35324 64105.7174963,-4108108.1147 64067.4368925,-4108038.57485 63812.4136522,-4107572.80217 64361.5421846,-4107235.18668 65049.221752,-4106813.58438 64823.1913639,-4106440.92702 64801.2035751,-4106404.61416 64404.281471,-4105763.01529 64221.4487539,-4105466.0214 64078.1019916,-4105234.4966 64058.4119355,-4105202.50476 63848.4132749,-4104845.14697 63812.7829337,-4104784.88423 63810.4857776,-4104780.56228 63756.9321445,-4104692.16842 63703.4135225,-4104604.27014 63500.1623617,-4104264.86638 63156.3703096,-4103691.24019 62860.0529642,-4103197.46466 62562.6076468,-4102701.7711 62541.1173224,-4102665.42062 62531.4683401,-4102648.66281 62455.2259827,-4102521.00991 62428.7157388,-4102477.04142 62449.6212641,-4102462.61674 62859.8963241,-4102183.14591 63306.3104401,-4101879.21494 63323.4591997,-4101868.04421 63629.6649305,-4101660.1714 63980.549702,-4101421.75631 64280.5877849,-4101218.3074 64507.8483041,-4101063.82133 64541.899143,-4101073.38169 64745.5336687,-4101128.29984 64863.7930953,-4101159.33444 64922.6923072,-4101175.11699 65094.2928736,-4101220.83036 65386.2041036,-4101298.42929 65392.8228702,-4101300.4544 65505.6630984,-4101332.36765 65704.4420904,-4101389.11971 65717.0443046,-4101391.2219 65721.0798034,-4101391.93425 66044.9322349,-4101427.92792 66173.5587245,-4101429.33757 66119.278045,-4101365.90485 66103.4170181,-4101331.65112 66095.8913455,-4101316.73751 66080.9097773,-4101287.90171 66048.1541606,-4101225.94307 66040.0630308,-4101210.07289 65995.6839691,-4101124.52183 65877.424159,-4100895.21678 65841.1016369,-4100825.03984 65835.4120129,-4100814.97862 65794.1747037,-4100738.67118 65611.9134251,-4100399.78651 65435.7639633,-4100239.81186 65162.2020358,-4099991.03961 65160.6102556,-4099989.65706 65022.9499657,-4099859.85196 64930.1385042,-4099772.72366 64835.7352648,-4099684.21252 64830.3944594,-4099679.10825 64659.550868,-4099523.73776 64445.4850879,-4099327.56659 64162.2328763,-4099068.50718 64028.2969262,-4098835.81008 63943.73042,-4098688.81504 63889.2377478,-4098594.00679 63790.3262855,-4098420.1215 63760.7485851,-4098367.89926 63737.4257202,-4098326.69539 63728.4133907,-4098311.88539 63667.6664017,-4098206.05801 63629.7117109,-4098140.97358 63434.7106742,-4097804.95769 63425.6287359,-4097789.15606 63309.965001,-4097589.54387 63302.5794271,-4097576.61204 63160.9139677,-4097326.01902 63135.3299188,-4097280.98783 63099.1071621,-4097219.26787 63061.0836057,-4097153.19072 63030.4455971,-4097100.04544 62970.9705283,-4096998.11183 62916.4102502,-4096902.30904 62842.1994061,-4096775.00674" style="stroke-linejoin:round;stroke:#000;stroke-width:1px;fill:none" /></g></g></svg>