<svg xmlns="http://www.w3.org/2000/svg" baseProfile="full" height="29600.3804112" version="1.1" viewBox="31893.414621,4081499.876637,14682.560716,29600.380411" width="14682.5607155"><defs><style type="text/css">polyline,line,rect,path,polygon,.polygon{fill:none;stroke:#000;stroke-width:1px;stroke-linejoin:round;}</style></defs><g fill_rule="evenodd" transform="scale(1,-1)"><g class="id" id="06270"><polygon class="_06270" id="None" points="43888.6615476,-4081558.26758 43888.0912931,-4081560.79918 43816.3691394,-4081888.74177 43787.0449761,-4082064.21576 43767.4298097,-4082186.18652 43759.7889927,-4082230.07678 43741.0020584,-4082342.5213 43714.5747007,-4082498.85624 43700.2554711,-4082582.58291 43696.6064182,-4082608.75198 43693.2699391,-4082639.38419 43654.3786159,-4082998.41907 43637.0377593,-4083270.23106 43599.0652376,-4083969.56825 43556.5320863,-4084721.05427 43545.9674122,-4084911.66219 43529.7820121,-4085199.84058 43528.5140643,-4085220.85976 43526.7408277,-4085248.89111 43501.4365211,-4085709.13847 43496.3074208,-4085810.16297 43540.6527282,-4085994.92978 43545.9755138,-4086013.99203 43557.6870768,-4086049.55011 43572.2211225,-4086093.38216 43577.3400321,-4086105.98025 43578.8231035,-4086109.36469 43600.265102,-4086152.21418 43603.9751069,-4086158.93092 43619.737424,-4086184.73654 43672.9266119,-4086271.70643 43687.2754028,-4086295.11937 43714.6984836,-4086341.53621 43724.3107037,-4086357.80602 43790.6903245,-4086487.2066 43795.6354955,-4086497.3251 43872.5034543,-4086623.49847 43882.7159222,-4086641.22114 43945.1958022,-4086746.97422 43959.2967766,-4086770.40432 43989.9690517,-4086824.06807 44041.3491289,-4086913.65544 44054.1756326,-4086936.67648 44057.0375562,-4086941.95756 44067.2500937,-4086959.68013 44080.9247592,-4086984.1367 44133.4614778,-4087083.11115 44136.6756611,-4087089.86254 44176.4810812,-4087174.28094 44233.1664209,-4087296.88441 44239.6991339,-4087311.87484 44254.1040548,-4087346.74516 44292.6215736,-4087441.22029 44299.1497559,-4087459.69938 44326.3586464,-4087535.03383 44349.6836377,-4087601.17216 44352.2235652,-4087608.96745 44370.881468,-4087668.9546 44384.2509138,-4087710.37576 44386.7515363,-4087721.16382 44403.8477641,-4087783.7521 44430.8468699,-4087884.51618 44440.7497081,-4087922.69199 44458.0064194,-4087998.22567 44479.9864007,-4088091.36819 44490.9764448,-4088137.93943 44497.8738013,-4088172.33926 44498.3651792,-4088175.79316 44512.0163353,-4088246.09788 44524.1193513,-4088308.53778 44539.9191232,-4088388.16016 44543.2197493,-4088410.3538 44552.3127773,-4088472.50641 44555.9612179,-4088499.65901 44556.6310064,-4088502.10372 44564.6022146,-4088555.36494 44575.7350612,-4088628.83619 44576.7874289,-4088636.73576 44581.1708092,-4088670.8135 44582.2972317,-4088676.2162 44595.0525536,-4088755.05532 44636.5807436,-4089016.75887 44660.7572213,-4089166.0588 44662.8665603,-4089178.36924 44719.0928577,-4089525.25344 44722.9245902,-4089547.90808 44730.3356985,-4089596.72341 44747.5590762,-4089700.16563 44771.4456894,-4089855.96392 44797.103133,-4090012.13623 44801.2829629,-4090039.74977 44809.2599525,-4090089.52199 44812.4220456,-4090109.7319 44844.9655559,-4090310.76946 44905.835303,-4090688.22334 44928.0454792,-4090827.19539 44932.3692399,-4090853.30375 44932.9999659,-4090858.74118 44959.6823756,-4091132.44818 44973.1806636,-4091271.53314 44973.5982832,-4091277.48386 44987.8584541,-4091459.37218 44998.7736355,-4091597.14339 45007.5268956,-4091707.65787 45008.5319421,-4091725.52741 45022.7934949,-4091907.4156 45029.7373316,-4091992.14362 45034.8626819,-4092058.06251 45043.6387697,-4092179.53876 45051.7927984,-4092288.60028 45060.5913701,-4092421.03833 45066.8183948,-4092513.29169 45073.0838783,-4092574.14718 45075.18541,-4092593.43476 45085.4181126,-4092654.01173 45092.0701319,-4092688.42826 45092.8445322,-4092692.36058 45093.2622953,-4092698.31128 45095.5727502,-4092720.5742 45100.0884096,-4092735.20726 45103.3337765,-4092745.94281 45104.3866932,-4092753.84227 45113.1327546,-4092842.92873 45119.8902309,-4092907.23799 45131.0557718,-4093016.58635 45134.2367599,-4093051.24654 45136.8776131,-4093064.01786 45137.8999842,-4093067.93277 45154.7453969,-4093137.51376 45163.3548891,-4093164.31775 45173.8656591,-4093200.45662 45187.8308156,-4093250.30635 45201.126028,-4093297.71142 45235.830273,-4093419.36025 45258.1921158,-4093496.52709 45271.770283,-4093544.41054 45292.3312186,-4093617.21875 45315.7505412,-4093698.79624 45343.155171,-4093794.54554 45358.7435871,-4093849.76274 45359.7660082,-4093853.67763 45360.3663679,-4093855.13047 45361.2843192,-4093857.55768 45362.9071006,-4093862.92541 45366.4354333,-4093874.13935 45368.0582161,-4093879.50707 45377.9690422,-4093914.19288 45388.6195463,-4093952.31508 45415.1066097,-4094045.63696 45453.2881829,-4094252.25614 45454.4333092,-4094272.10911 45457.2699673,-4094358.62015 45457.1961608,-4094361.11701 45459.5918081,-4094491.01418 45467.4076882,-4094620.03235 45467.8533832,-4094722.15975 45473.5060863,-4094823.92144 45473.9240646,-4094829.8721 45475.589605,-4094889.05702 45480.2341374,-4095065.14152 45482.8795299,-4095074.42407 45483.514753,-4095076.3728 45483.9837642,-4095189.46203 45484.0144967,-4095193.44655 45489.7501541,-4095406.33133 45490.530951,-4095435.17996 45490.4348205,-4095487.01365 45497.5005453,-4095835.85087 45497.105113,-4095840.86202 45495.2835691,-4095853.94674 45493.8185555,-4095865.01307 45473.7898908,-4096001.96781 45468.5425251,-4096037.22007 45441.8060666,-4096217.00495 45432.4816352,-4096286.43068 45428.3347781,-4096319.61233 45391.5539774,-4096579.83747 45373.2745508,-4096706.20488 45354.6348809,-4096838.07945 45343.4241352,-4096916.1098 45342.5249008,-4096928.13313 45340.5910407,-4096946.70757 45339.5952618,-4096950.26592 45336.3868342,-4096968.43161 45334.9957176,-4096977.00113 45297.6959156,-4097197.89513 45297.1263377,-4097200.42686 45075.5156419,-4098074.64507 45072.9895213,-4098084.7895 44880.9005876,-4098825.87561 44871.8271179,-4098863.39108 44877.6302291,-4098995.5429 44878.9706345,-4099032.32621 44879.6679736,-4099042.24409 44955.8164456,-4099554.67044 45111.2982228,-4099912.51166 45155.2481558,-4100013.0764 45164.5463727,-4100028.36948 45193.9946497,-4100078.62454 45201.1000594,-4100091.08176 45641.6582021,-4100845.98073 45674.741328,-4100908.93623 45724.6857077,-4101002.59936 46326.4284505,-4102033.18723 46485.6253978,-4102305.53853 46025.5560535,-4102806.85117 45956.9462966,-4102879.95243 45520.5377157,-4103345.72121 45400.9403138,-4103473.24391 45304.4270748,-4103574.72321 44827.567092,-4104078.23455 43947.0661581,-4105006.86703 43169.8145274,-4105827.08696 42905.624744,-4106105.84169 42811.3591936,-4106012.80636 42696.2862442,-4105900.30446 42586.060703,-4105792.94286 42518.3091198,-4105857.02056 42462.2918173,-4105910.80291 42410.4583388,-4105960.30372 42366.2486503,-4106001.2937 42311.8273148,-4106052.97042 42242.4447198,-4106118.6587 42213.7270887,-4106146.09842 42158.3488093,-4106198.34117 42101.8355035,-4106252.15909 41991.8926092,-4106357.58454 41940.7679758,-4106406.53781 41888.9693103,-4106456.5354 41855.1108819,-4106488.82294 41840.4674268,-4106503.80897 41828.9810462,-4106514.08722 41824.5841711,-4106518.88233 41800.7592855,-4106541.49239 41792.3566658,-4106549.55993 41634.4145197,-4106695.24759 41549.7525964,-4106773.97477 41542.237017,-4106780.48475 41507.4216214,-4106813.33845 41318.9141067,-4106992.0804 40874.1465178,-4107413.64889 40724.6727935,-4107555.75407 41158.9629573,-4108000.62011 41013.4890878,-4108701.63764 40872.296175,-4109378.43529 40856.6752635,-4109453.79669 40816.9002282,-4109639.01182 40666.9806799,-4110340.35368 40624.4676423,-4110539.71851 40574.8052311,-4110771.98355 40510.4879016,-4111072.06761 40498.8081197,-4111061.92639 40490.3137328,-4111054.55096 39510.753637,-4110182.1307 39203.9350117,-4109909.20055 39137.9635899,-4109850.05457 38470.0694011,-4109255.6751 38448.7984346,-4109236.73928 38055.0167047,-4108889.68279 37750.8488642,-4108622.53343 37495.4888665,-4108397.2985 37410.7926736,-4108323.51902 36802.5995767,-4107787.70058 36785.0099473,-4107771.4949 36296.1261813,-4107340.90265 36149.4575039,-4107211.67399 36112.0114447,-4107178.92316 35892.7872583,-4106985.52231 35438.1985888,-4106585.39844 35395.373612,-4106547.04443 35362.1747375,-4106517.98113 35075.7352691,-4106268.998 34851.69424,-4106074.43428 34649.9161407,-4105898.73748 35052.0114442,-4105556.90894 35056.4787754,-4105553.10536 35260.4174966,-4105412.64287 35442.5585628,-4105213.90412 35505.6846575,-4105144.16543 35711.4093886,-4104919.34506 35787.549788,-4104836.23012 35852.9811693,-4104763.83782 35979.0901388,-4104625.86787 36237.0189198,-4104342.5498 36289.9319902,-4104283.50031 36554.6021075,-4103989.7423 36598.9682038,-4103940.26657 36543.1620299,-4103851.98655 36408.1015581,-4103639.69469 36373.089709,-4103584.84024 36332.9859349,-4103521.37249 36295.4281845,-4103462.21129 36253.6969917,-4103396.86423 36218.1195264,-4103341.05248 36183.6387364,-4103286.65877 36140.8110386,-4103219.89337 36099.2582116,-4103153.5366 36056.7135011,-4103087.24954 35862.4901537,-4102781.42617 35744.7964832,-4102596.31821 35694.9670879,-4102518.58074 35690.4409946,-4102510.92437 35642.7002451,-4102434.5351 35636.5117724,-4102424.50354 35586.8258359,-4102345.26044 35557.4375098,-4102299.47908 35555.775126,-4102297.1039 35500.9276983,-4102208.25518 35481.0177553,-4102176.75969 35465.8469773,-4102152.40719 35458.8099021,-4102140.94 35456.7948591,-4102137.09434 35452.6214643,-4102130.90839 35449.5446919,-4102126.14057 35472.2149081,-4102094.14164 35575.840995,-4101951.77796 35566.355252,-4101944.47044 35549.5421054,-4101932.1957 35537.9678016,-4101923.53983 35530.605507,-4101918.07663 35510.3280587,-4101899.06761 35482.9164341,-4101860.12494 35459.9347599,-4101852.27151 35388.2156766,-4101838.87488 35368.9999372,-4101820.78795 35344.3869882,-4101814.54452 35307.878178,-4101802.15991 35271.9935988,-4101802.19209 35231.1793451,-4101774.65902 35200.4053147,-4101765.85838 35190.985556,-4101763.032 35158.6661134,-4101774.77566 35156.5737824,-4101776.91657 35150.7927644,-4101783.30438 35133.4497106,-4101802.46785 35116.2376515,-4101798.69434 35103.799612,-4101802.55987 35092.4544291,-4101811.33283 35077.8966845,-4101809.86475 35062.3620309,-4101794.50934 35058.3282065,-4101790.30723 35049.163938,-4101780.48485 35045.6260899,-4101776.24785 35017.3544342,-4101746.33705 35005.8187182,-4101734.68775 34979.554561,-4101715.60118 34938.3686682,-4101704.04384 34919.4319479,-4101689.92454 34896.5660655,-4101673.09104 34874.0254874,-4101650.25345 34874.5865291,-4101622.80025 34898.7460962,-4101622.59611 34907.0843648,-4101610.04723 34897.7023166,-4101572.32797 34865.9550861,-4101546.1505 34842.0812809,-4101511.44429 34812.4848367,-4101494.58569 34792.6024092,-4101470.56417 34783.0119547,-4101461.76855 34770.4843,-4101450.18893 34769.3527972,-4101448.27479 34765.9234024,-4101442.03639 34716.6273421,-4101428.5571 34709.1216722,-4101424.59914 34695.1060741,-4101413.12416 34693.0174996,-4101411.77576 34646.615333,-4101375.66338 34597.3070494,-4101340.75222 34572.3412096,-4101333.038 34555.8654207,-4101336.19059 34507.2472144,-4101318.17756 34472.8076526,-4101324.58739 34439.7748688,-4101340.36853 34411.9301514,-4101341.33016 34398.3331326,-4101335.80687 34348.5832976,-4101315.87963 34333.773612,-4101317.91816 34299.1011311,-4101310.38817 34275.9211774,-4101289.09049 34192.8008638,-4101269.51652 34171.2711667,-4101229.16212 34160.0956542,-4101212.00441 34153.4461634,-4101202.50336 34144.5222616,-4101199.64195 34134.6063916,-4101196.85031 34132.5526884,-4101195.99788 34125.4344956,-4101194.00634 34117.4289877,-4101193.57253 33980.2580205,-4101362.22216 33974.2599405,-4101372.61282 33805.74296,-4101113.3144 33753.8604581,-4101034.72078 33654.908365,-4100882.17908 33637.5444945,-4100854.98912 33622.3738717,-4100830.63554 33579.1948055,-4100762.39511 33425.7880711,-4100519.47643 33166.2238345,-4100106.5753 33015.2950295,-4099866.96844 32903.0540313,-4099688.44149 32877.7353454,-4099647.35525 32874.1277985,-4099642.12598 32660.8920255,-4099303.2203 32624.1852196,-4099245.48869 32559.1182199,-4099142.39816 32273.6417674,-4098686.94545 32214.1978195,-4098592.92912 32083.6780534,-4098384.77858 31938.3415053,-4098153.74285 31942.4529414,-4098151.95855 31984.0364065,-4098126.60575 32009.8792776,-4098111.33134 32015.9049959,-4098108.4156 32053.5861462,-4098087.82316 32056.2792911,-4098087.13544 32073.0427245,-4098080.97281 32098.5598669,-4098071.70274 32141.3672822,-4098060.22062 32152.387846,-4098057.45231 32177.4049654,-4098051.70654 32210.2654668,-4098033.44676 32242.9556582,-4098009.21759 32245.2962217,-4098007.05931 32247.8847848,-4098004.88359 32265.6870098,-4097988.67902 32284.3806537,-4097967.42733 32298.1223071,-4097939.54539 32310.845114,-4097904.25835 32316.5770988,-4097879.43156 32312.8851222,-4097855.26707 32303.1285957,-4097837.01168 32301.078892,-4097832.66969 32289.9201085,-4097801.5532 32287.3796213,-4097761.85587 32294.1813944,-4097730.97255 32295.1076902,-4097726.42142 32306.6871655,-4097699.6884 32322.4249659,-4097661.19886 32332.2644539,-4097638.07727 32352.9461998,-4097613.19689 32366.7148123,-4097592.7899 32378.3291832,-4097566.55293 32387.1069917,-4097542.50909 32390.8242897,-4097513.83639 32389.5199627,-4097477.54141 32389.1808526,-4097433.70191 32384.7222935,-4097398.62547 32371.6736507,-4097347.70388 32366.9242236,-4097319.12769 32359.4937778,-4097280.77093 32360.9403216,-4097255.24849 32367.963564,-4097216.87303 32380.4160386,-4097170.6394 32393.995899,-4097129.80949 32403.7512486,-4097087.75299 32412.2933837,-4097053.25844 32413.9693704,-4097013.26498 32418.4900782,-4096964.09962 32431.9695735,-4096918.29239 32432.9307757,-4096914.23729 32446.7774055,-4096887.84369 32454.4118999,-4096872.35391 32474.0914181,-4096826.11114 32486.7677776,-4096800.79668 32491.004068,-4096783.05346 32491.4588203,-4096757.6008 32490.6265444,-4096742.20747 32490.0033567,-4096729.79012 32492.0692405,-4096720.17452 32494.3174977,-4096706.06009 32510.4351015,-4096676.51635 32518.2909322,-4096653.5344 32521.9819354,-4096617.38705 32520.5428369,-4096575.61879 32519.062998,-4096568.74452 32515.3593274,-4096555.04827 32513.3138023,-4096547.21686 32501.0551204,-4096518.17138 32493.7667861,-4096510.20985 32480.7129551,-4096494.67824 32478.0750661,-4096478.41487 32475.2978007,-4096460.16751 32491.0896699,-4096436.62807 32512.9728846,-4096414.65448 32527.7686804,-4096394.67415 32536.3419385,-4096364.1652 32547.0775066,-4096332.50746 32554.2755169,-4096296.61225 32557.3047025,-4096251.04102 32563.898137,-4096217.18208 32569.1470698,-4096181.92227 32577.3023149,-4096145.46142 32597.0622407,-4096121.64336 32617.9063796,-4096109.7118 32639.476077,-4096083.27443 32656.5039232,-4096063.13744 32669.1374943,-4096044.30602 32677.9117359,-4096023.75195 32687.6985159,-4095985.68126 32696.8110064,-4095948.65483 32697.9137989,-4095914.68327 32693.5033273,-4095869.6348 32686.9920341,-4095833.70586 32678.7754981,-4095801.88423 32665.9863787,-4095772.37756 32661.2335967,-4095747.29082 32655.5195487,-4095726.25914 32654.2694688,-4095704.91391 32662.7261499,-4095683.38532 32685.2572864,-4095652.89306 32732.8527023,-4095606.68397 32752.5348336,-4095588.85294 32755.5846101,-4095586.14652 32781.296616,-4095561.91067 32811.0893559,-4095531.90538 32814.1391317,-4095529.19896 32853.6120264,-4095491.53561 32895.2472133,-4095452.72356 32930.9304725,-4095414.32961 32957.6120405,-4095379.06013 32971.785138,-4095346.66297 32976.9217219,-4095316.89427 32974.5529024,-4095283.16674 32970.3577062,-4095266.016 32958.5957302,-4095236.9357 32942.7223285,-4095209.63946 32928.0540849,-4095181.76014 32918.2371272,-4095155.53384 32914.1241056,-4095128.90695 32912.1692395,-4095104.62068 32929.4926214,-4095074.49454 32955.0737292,-4095041.29629 32991.7408525,-4095009.81169 33044.5932236,-4094981.67641 33071.2889743,-4094964.35001 33099.2636972,-4094943.94317 33122.0611631,-4094927.88744 33152.7721651,-4094900.31035 33170.5442132,-4094880.12163 33193.3193505,-4094853.10189 33213.401371,-4094826.76974 33228.2490103,-4094793.32864 33234.308153,-4094762.49848 33240.2112711,-4094743.64177 33244.1903432,-4094704.48427 33246.9475631,-4094679.86724 33247.4519187,-4094672.85371 33248.1206976,-4094646.88804 33248.8981633,-4094618.92099 33251.6860602,-4094598.28932 33258.4377014,-4094580.86836 33268.2697787,-4094564.7264 33281.2909671,-4094547.86207 33303.9226918,-4094522.34789 33331.5881687,-4094493.98809 33372.3361053,-4094456.73468 33401.0548213,-4094436.27594 33434.7682499,-4094415.96492 33451.7489563,-4094405.80072 33472.6711386,-4094387.88323 33488.3896355,-4094366.84211 33500.0051157,-4094340.60634 33532.5121659,-4094292.46782 33559.2373039,-4094250.71654 33598.5837383,-4094200.60258 33621.2238932,-4094168.11003 33646.0611731,-4094134.96479 33660.7877298,-4094113.99345 33667.1437289,-4094101.58478 33667.1605867,-4094087.62749 33670.3665395,-4094072.94784 33676.3352508,-4094058.57264 33691.0533899,-4094044.57998 33705.8105713,-4094027.59399 33715.8432216,-4094021.40681 33722.7912563,-4094017.42994 33750.6878635,-4094003.01043 33773.5855515,-4093991.9325 33795.4954805,-4093977.43492 33806.2066712,-4093966.71423 33819.2236696,-4093953.3395 33824.0568994,-4093940.53937 33827.941431,-4093921.32624 33829.5592075,-4093901.77385 33834.3354774,-4093877.51381 33840.2736187,-4093859.15337 33842.0739893,-4093835.10229 33841.9125598,-4093822.15442 33837.6481837,-4093804.01188 33827.4362133,-4093782.79791 33821.1963707,-4093757.81603 33814.0911533,-4093745.35567 33801.8825509,-4093734.74891 33796.4045853,-4093724.16803 33796.7739888,-4093711.68132 33801.6811524,-4093696.38387 33805.5309406,-4093676.67477 33817.046416,-4093645.46201 33833.6652922,-4093612.39568 33854.1994004,-4093564.10159 33873.8112086,-4093516.86914 33893.3058356,-4093478.61669 33898.2784384,-4093467.80056 33913.9096647,-4093431.31466 33937.393483,-4093375.33718 33942.2225657,-4093366.02644 33948.1565903,-4093351.1554 33956.3964459,-4093333.63034 33964.8842975,-4093316.08788 33968.5473217,-4093304.36686 33968.4556429,-4093292.41099 33965.3923179,-4093277.17474 33961.158672,-4093263.0175 33957.9908987,-4093246.29329 33956.3416398,-4093233.44991 33964.6902465,-4093213.92352 33979.7261218,-4093200.90571 33995.5450565,-4093184.84235 34019.3040085,-4093164.73261 34046.0388621,-4093144.41399 34050.9070557,-4093132.10997 34072.821335,-4093114.12348 34091.4768988,-4093095.86733 34116.2974398,-4093076.67999 34144.1549651,-4093065.25432 34178.2079952,-4093056.88274 34203.0505071,-4093048.65929 34218.0081718,-4093041.62818 34233.8185314,-4093032.5435 34246.7269006,-4093021.1704 34263.6379447,-4093010.01476 34274.4927489,-4092997.78898 34286.3828871,-4092979.01098 34301.1359171,-4092965.51472 34314.1572874,-4092948.65103 34322.3318469,-4092926.6449 34330.7153074,-4092907.61466 34333.3296326,-4092884.50356 34334.0993007,-4092863.51566 34331.797209,-4092834.27014 34326.988981,-4092797.72415 34323.9038453,-4092771.52414 34321.6976617,-4092750.74513 34320.9446168,-4092729.36568 34324.7164609,-4092715.64343 34331.5338269,-4092702.70427 34337.602929,-4092693.30661 34351.3292279,-4092679.38407 34364.2462214,-4092661.03252 34372.094666,-4092645.03045 34376.9367081,-4092625.252 34384.5891751,-4092595.80622 34393.2770312,-4092559.80825 34399.8941477,-4092536.91468 34403.8486971,-4092518.69382 34407.4942447,-4092492.51986 34414.2201265,-4092467.62498 34428.9470314,-4092446.65434 34445.6969828,-4092422.55118 34463.6868903,-4092398.361 34474.3024036,-4092379.17424 34479.1010867,-4092365.87841 34482.9817457,-4092350.1549 34486.0140046,-4092332.99567 34489.5900034,-4092305.8298 34498.3085048,-4092273.81719 34510.9514174,-4092248.00867 34527.6361194,-4092219.42437 34552.5741199,-4092191.25769 34567.1923283,-4092172.2885 34577.103054,-4092150.16075 34588.8498179,-4092132.88837 34602.6935815,-4092109.98618 34620.2963321,-4092083.82965 34638.0469805,-4092052.67853 34651.8777708,-4092040.24416 34668.7975209,-4092022.11035 34681.7102997,-4092007.24831 34694.4098977,-4091992.89965 34700.3441665,-4091978.02895 34701.2533687,-4091959.02512 34701.844972,-4091939.04674 34704.5074598,-4091905.96406 34708.4621717,-4091887.74335 34714.118007,-4091868.90484 34723.0760038,-4091843.85353 34730.6896427,-4091817.40131 34736.3541844,-4091791.58431 34742.2667255,-4091765.74991 34747.9269409,-4091743.42217 34753.7611934,-4091723.57432 34761.6446278,-4091708.06846 34765.4253657,-4091687.36789 34768.1880508,-4091659.26246 34772.0688681,-4091643.53908 34778.4600322,-4091631.62691 34788.8538277,-4091619.93227 34796.4936483,-4091600.95459 34800.4745373,-4091590.20841 34802.1974345,-4091572.14437 34797.4117293,-4091546.56234 34793.6832402,-4091525.39191 34794.6665503,-4091503.89083 34793.2439471,-4091480.06648 34796.2068227,-4091461.91544 34797.9993656,-4091444.84336 34803.9337546,-4091429.97275 34809.7593711,-4091417.10346 34821.4366802,-4091398.83934 34834.3756386,-4091391.45195 34858.334878,-4091381.29757 34887.1799084,-4091373.29246 34907.2452858,-4091360.91924 34923.9171634,-4091342.80312 34936.8648446,-4091328.43727 34952.7144108,-4091316.35989 34964.6657667,-4091305.55289 34974.4200298,-4091295.39848 34980.250028,-4091279.04 34989.0602623,-4091258.98348 34998.701571,-4091225.90976 35001.4992545,-4091198.30045 35001.6695871,-4091119.03999 35002.522598,-4091088.57663 35009.2445838,-4091067.17141 35018.9164059,-4091038.08296 35030.6025563,-4091012.84052 35036.3934346,-4090999.47535 35038.4209165,-4090992.85366 35033.213487,-4090964.80922 35033.9621764,-4090932.85795 35043.5948642,-4090906.76279 35049.6905273,-4090876.43005 35065.7929112,-4090832.43637 35075.5256309,-4090811.3184 35080.5073882,-4090793.52427 35083.6228467,-4090766.88957 35089.9141508,-4090750.00041 35101.8831885,-4090725.23664 35110.1976067,-4090705.21504 35114.2486803,-4090667.05114 35121.3756108,-4090633.65562 35124.7303022,-4090613.98201 35127.9021934,-4090598.80698 35126.9670998,-4090581.92642 35126.1016036,-4090566.03781 35117.1221099,-4090551.71529 35107.0070679,-4090538.96768 35082.7567211,-4090527.21175 35058.6935974,-4090507.46801 35048.2526931,-4090472.31447 35047.0392723,-4090451.46608 35047.7401724,-4090429.48656 35055.5371939,-4090398.53612 35075.0813801,-4090350.31383 35091.671251,-4090313.26399 35102.296142,-4090287.09939 35113.2601184,-4090272.87299 35128.1874674,-4090261.85748 35136.1363671,-4090250.8331 35141.000603,-4090242.01879 35145.7389651,-4090220.75292 35150.5380518,-4090207.45744 35156.3638844,-4090194.58835 35161.2977127,-4090186.766 35166.3447928,-4090173.45313 35166.1537816,-4090156.52039 35168.0162609,-4090140.44043 35170.8314629,-4090127.28414 35182.5438639,-4090109.51638 35197.2757906,-4090085.05741 35212.2209182,-4090060.08508 35222.8066563,-4090036.91382 35231.7778783,-4090029.80511 35241.6018814,-4090020.64291 35257.6603548,-4090011.5418 35281.4715619,-4090006.38258 35310.4556938,-4090000.36208 35337.5299466,-4089991.98349 35359.2528545,-4089985.47554 35375.3113002,-4089976.37445 35388.1548119,-4089960.52109 35401.9162399,-4089947.09542 35412.8106518,-4089931.87722 35420.6204048,-4089918.86905 35426.5506402,-4089907.48797 35431.4630437,-4089888.70209 35442.144268,-4089873.99727 35460.0652488,-4089848.81636 35482.7372179,-4089820.31172 35501.5716582,-4089801.04772 35517.1822792,-4089782.00987 35527.2935022,-4089769.83713 35542.9130444,-4089743.8209 35561.7171595,-4089720.57177 35578.3893094,-4089702.45632 35591.341673,-4089684.6018 35600.2522253,-4089669.52285 35608.1663723,-4089658.00267 35628.9802394,-4089642.0888 35649.8288912,-4089626.67091 35658.5913607,-4089616.58648 35669.3163287,-4089595.39936 35679.3231958,-4089581.73878 35691.0008553,-4089563.47531 35696.0087604,-4089553.15584 35697.7714833,-4089532.09895 35700.7607228,-4089521.42265 35708.5312598,-4089511.40782 35728.4878616,-4089501.03667 35742.5231284,-4089495.06814 35769.4188288,-4089487.69916 35792.9078289,-4089485.05482 35826.17259,-4089483.22004 35838.3283185,-4089478.87858 35854.2778641,-4089471.77896 35867.9955443,-4089464.8359 35883.0967682,-4089456.30057 35895.3310118,-4089445.97269 35903.7411266,-4089434.41782 35911.550913,-4089421.40982 35913.4831257,-4089406.32203 35917.2600717,-4089389.11123 35918.0915156,-4089376.09428 35929.1251092,-4089362.86019 35944.8053149,-4089344.81452 35951.692749,-4089332.86806 35959.6809623,-4089318.85076 35968.5915428,-4089303.77196 35970.175926,-4089283.72451 35976.0759176,-4089268.35846 35986.0042567,-4089260.68441 36004.999164,-4089254.36809 36039.0122448,-4089248.9921 36085.7207257,-4089232.75755 36128.4962212,-4089217.29728 36159.3381892,-4089198.68674 36184.0894073,-4089178.50977 36203.8158785,-4089154.19957 36225.7214458,-4089143.19351 36247.7964358,-4089138.15645 36273.7605917,-4089138.82749 36301.8084604,-4089144.33644 36306.8724704,-4089145.4765 36329.033817,-4089155.88394 36347.18367,-4089173.05198 36358.2508712,-4089188.72314 36372.3589474,-4089208.66666 36394.7458317,-4089236.50241 36417.063151,-4089263.34621 36427.1687378,-4089283.07202 36446.4104056,-4089305.14746 36462.680771,-4089323.94246 36487.6046853,-4089334.65445 36508.7437697,-4089341.14625 36541.7949361,-4089339.82491 36566.5975951,-4089334.59647 36587.6805194,-4089329.62893 36604.55223,-4089321.46794 36616.3599489,-4089312.16692 36625.231156,-4089300.08145 36633.2495806,-4089290.0494 36641.0592926,-4089277.04158 36645.3669649,-4089260.29217 36645.8157794,-4089241.8198 36646.6562073,-4089221.82475 36654.7879698,-4089206.30234 36666.0828992,-4089182.58365 36673.5492726,-4089161.1271 36684.6960964,-4089142.40284 36696.417438,-4089117.65746 36703.7402006,-4089097.70621 36705.8721725,-4089092.57266 36710.0665498,-4089081.31365 36717.8852845,-4089061.32763 36725.7040245,-4089041.3416 36734.5842608,-4089022.27794 36747.284068,-4089007.93042 36756.4335782,-4088999.81272 36763.1818433,-4088985.88261 36771.2002981,-4088975.85063 36776.8522947,-4088960.50221 36779.2109778,-4088944.38796 36778.5938946,-4088928.4824 36777.5806978,-4088917.58863 36770.3029199,-4088902.64859 36764.1169106,-4088892.616 36763.0734437,-4088877.73714 36763.8354112,-4088863.72847 36774.7903672,-4088856.48098 36784.8577443,-4088850.79094 36792.9064917,-4088844.74407 36806.6195066,-4088841.29037 36827.5632484,-4088834.33918 36842.5251757,-4088823.82029 36853.4846302,-4088813.08369 36859.7369642,-4088799.18841 36862.1864982,-4088795.02943 36866.2417919,-4088781.78662 36866.4472797,-4088759.8426 36866.7223375,-4088738.89051 36866.0447761,-4088715.01481 36863.2004446,-4088695.77667 36853.9479225,-4088673.99752 36844.7952296,-4088657.19537 36832.7015527,-4088641.09785 36823.748507,-4088634.24969 36820.6426581,-4088625.49629 36816.9017289,-4088614.79382 36817.9465169,-4088601.26374 36827.2442307,-4088588.15172 36834.0530933,-4088582.19183 36851.0246376,-4088579.00809 36869.1967773,-4088578.73055 36888.1431098,-4088582.38592 36902.160087,-4088590.37417 36918.3695837,-4088601.19905 36940.486783,-4088618.08883 36949.7090118,-4088635.88289 36952.8013016,-4088655.10361 36959.0084811,-4088676.09949 36968.1611639,-4088692.90161 36977.1837575,-4088700.74166 36994.4940334,-4088709.49571 37011.3476411,-4088715.29138 37024.5208419,-4088718.35476 37041.5225934,-4088719.15605 37056.6100641,-4088721.08838 37072.4807646,-4088719.97539 37084.4971577,-4088713.65032 37098.2629503,-4088696.7362 37104.0843678,-4088687.35679 37106.9300319,-4088678.18607 37112.8255288,-4088666.30947 37122.8671177,-4088653.14533 37127.6013176,-4088635.36941 37131.4479445,-4088619.15092 37130.7916457,-4088606.2386 37127.5557373,-4088588.5232 37119.9257629,-4088572.11274 37104.8261506,-4088552.23889 37090.6746317,-4088538.77773 37072.5161339,-4088528.58794 37040.5751028,-4088520.85985 37012.4187873,-4088517.35192 36992.450326,-4088509.78103 36984.2805653,-4088499.88755 36978.0643947,-4088485.86989 36974.9812189,-4088459.67095 36987.7158779,-4088445.81957 37018.4880468,-4088426.21776 37045.4921343,-4088416.84817 37065.4529768,-4088402.9885 37099.2356498,-4088383.67402 37110.0605511,-4088367.46462 37115.552381,-4088339.16925 37123.2805764,-4088307.22828 37129.0461112,-4088286.3897 37133.90291,-4088256.14528 37137.5107418,-4088232.96602 37149.3714551,-4088210.20486 37169.2672966,-4088191.86427 37187.0613387,-4088182.6422 37218.0073604,-4088165.52039 37243.8199103,-4088146.26655 37263.4677582,-4088127.9434 37277.34254,-4088109.02825 37289.1382672,-4088081.78617 37294.8297578,-4088063.44484 37296.7017989,-4088040.38737 37297.333955,-4088017.41684 37293.1849737,-4087993.78475 37290.8761769,-4087971.51882 37289.9327073,-4087961.61705 37312.690876,-4087948.55825 37329.5323257,-4087936.4127 37346.5128695,-4087926.25098 37366.5295811,-4087923.85071 37382.439535,-4087919.74481 37392.4418978,-4087909.57399 37423.3787583,-4087899.43053 37453.1104873,-4087889.86998 37483.977771,-4087878.73463 37512.8612173,-4087867.73838 37527.8231217,-4087857.21985 37542.6898303,-4087838.23531 37551.3223248,-4087819.1895 37557.2407674,-4087789.86771 37556.8115545,-4087765.97492 37551.6662056,-4087745.90154 37536.5065762,-4087718.0576 37525.1919975,-4087702.4039 37510.1623256,-4087683.52191 37493.9531633,-4087672.6969 37471.9270402,-4087667.76206 37459.7898367,-4087658.14673 37449.6895311,-4087634.93196 37446.4237303,-4087613.23158 37452.1894651,-4087592.39318 37468.8058593,-4087562.81976 37494.6276373,-4087536.58812 37528.3197469,-4087505.31918 37545.1310293,-4087489.18877 37546.5493547,-4087488.09255 37558.5008089,-4087477.28679 37559.6363861,-4087475.712 37568.9991668,-4087467.08131 37604.5451803,-4087426.71141 37625.333276,-4087403.32475 37631.8246362,-4087396.39056 37644.0981943,-4087383.07029 37663.8806101,-4087370.2204 37679.6697999,-4087350.17458 37693.6490205,-4087332.74762 37696.4554929,-4087326.57017 37700.4670822,-4087319.80984 37716.2470894,-4087306.74218 37717.8438527,-4087304.63667 37731.0096078,-4087286.26998 37745.9459724,-4087268.27756 37755.7489579,-4087248.15307 37756.7454629,-4087244.59447 37762.6155928,-4087225.24409 37762.2955067,-4087199.35019 37758.9741451,-4087166.19082 37746.6816578,-4087140.13944 37728.5374292,-4087119.48218 37709.7791292,-4087107.839 37700.3652107,-4087101.52145 37697.2504159,-4087099.74624 37679.1665079,-4087087.05899 37671.8591372,-4087068.13397 37671.5068589,-4087066.66349 37671.0155126,-4087063.20919 37668.0858792,-4087028.52714 37671.2815524,-4086995.90766 37672.9244616,-4086958.91152 37676.6370446,-4086937.22043 37681.3855439,-4086908.97764 37680.0041565,-4086882.16134 37673.7373874,-4086853.19553 37675.6006289,-4086837.11639 37677.4244873,-4086824.03037 37681.7418397,-4086746.97547 37687.3780439,-4086717.17531 37690.759319,-4086704.97691 37698.1221216,-4086682.03321 37702.5045744,-4086662.78717 37705.6772782,-4086647.61305 37716.0923007,-4086593.55519 37724.6927276,-4086545.60524 37732.3522446,-4086512.67297 37743.196075,-4086482.50787 37767.808409,-4086460.34875 37805.607559,-4086430.78631 37842.2363376,-4086402.30271 37871.9611743,-4086371.31271 37887.8502591,-4086356.24415 37889.8734802,-4086353.11201 37900.2028023,-4086336.93797 37901.5516167,-4086334.84988 37911.3502281,-4086318.21466 37922.3192022,-4086300.50064 37934.8942774,-4086273.70305 37963.7917149,-4086252.24054 37991.6578254,-4086233.84065 38003.6047422,-4086226.52428 38005.5190296,-4086225.39333 38009.56082,-4086222.61811 38020.4208652,-4086206.90532 38032.9912997,-4086183.59685 38045.9186538,-4086158.26982 38047.6337052,-4086147.18509 38049.2351589,-4086141.59058 38051.4855854,-4086127.47801 38049.2262493,-4086095.24116 38044.5032717,-4086077.63022 38044.116261,-4086075.6638 38035.8868695,-4086057.80021 38022.4733266,-4086022.85638 38016.1976665,-4086000.86875 38008.0471512,-4085977.01897 38001.7320775,-4085958.02442 37995.6857255,-4085949.97558 37985.7018431,-4085946.18978 37974.6912975,-4085941.97755 37968.1048894,-4085940.44559 37949.5507841,-4085935.26687 37927.5203329,-4085933.82048 37908.5698623,-4085933.65341 37887.501218,-4085928.15251 37867.4291473,-4085919.09304 37853.3572926,-4085899.64528 37849.0561235,-4085884.49665 37848.8362097,-4085863.57973 37853.8144537,-4085849.27596 37855.2327993,-4085848.17978 37865.2307319,-4085841.49845 37873.5275849,-4085835.43472 37889.4816296,-4085824.84727 37892.6358096,-4085823.62945 37903.4471805,-4085817.88789 37923.2645709,-4085805.53454 37944.5744955,-4085789.58788 37953.119318,-4085783.50679 37967.4765414,-4085775.02482 37972.0143059,-4085772.21487 38004.7150947,-4085741.01673 38039.3996865,-4085709.6796 38043.2677184,-4085704.42466 38063.0690765,-4085677.61927 38077.9363034,-4085658.63547 38087.7651305,-4085645.98541 38115.3326309,-4085612.65519 38124.3433327,-4085602.5544 38142.0472523,-4085581.37831 38147.5769128,-4085578.49888 38166.7893565,-4085568.18159 38168.5251834,-4085568.05995 38200.780737,-4085551.84479 38221.6848481,-4085547.88798 38254.5358938,-4085536.61497 38287.3963153,-4085518.36392 38299.7001841,-4085509.02918 38304.6643755,-4085505.19261 38312.013447,-4085492.71639 38322.1249948,-4085480.54497 38328.9734207,-4085471.59253 38347.669218,-4085450.34705 38352.6334087,-4085446.51049 38357.1016502,-4085442.70869 38359.690356,-4085440.53375 38374.6383296,-4085440.48305 38389.6858593,-4085445.40921 38393.7530089,-4085450.10804 38402.9139594,-4085459.93215 38405.3890029,-4085463.2474 38424.0978946,-4085484.86203 38453.5805158,-4085528.64732 38479.7145567,-4085560.20763 38505.1441289,-4085588.82699 38522.175431,-4085593.61408 38535.239149,-4085598.67921 38551.3086131,-4085607.52076 38566.4256248,-4085613.43876 38587.2554041,-4085611.97905 38595.225311,-4085611.91892 38627.1744376,-4085612.6703 38651.371557,-4085609.47947 38675.2418043,-4085612.29214 38684.6995382,-4085612.12774 38698.1595944,-4085612.18126 38701.383244,-4085611.95535 38718.2153437,-4085606.78874 38746.1273292,-4085606.82626 38761.2884264,-4085606.26219 38764.1945904,-4085605.06177 38768.7322997,-4085602.25187 38781.0313627,-4085596.40617 38790.9248968,-4085588.23715 38799.3305944,-4085580.17238 38810.8509807,-4085573.88288 38819.7225599,-4085561.79843 38824.7261498,-4085554.96885 38840.476145,-4085537.91696 38869.1347884,-4085509.49451 38894.8872704,-4085482.2725 38922.732488,-4085452.91035 38951.4606343,-4085425.47987 38955.7503645,-4085422.68737 38979.2569944,-4085406.08878 39004.0776854,-4085386.90622 39020.3095123,-4085380.28662 39034.8750392,-4085374.78054 39058.8634834,-4085368.61417 39066.694315,-4085366.5703 39095.5820767,-4085352.08657 39121.4152584,-4085343.79743 39127.4755309,-4085341.37925 39145.3041168,-4085332.65427 39161.7885858,-4085322.52835 39167.2186089,-4085314.67219 39172.117938,-4085306.35484 39179.0752471,-4085295.4014 39180.7002799,-4085272.36217 39182.5827114,-4085242.32763 39183.3943484,-4085218.34865 39183.0056035,-4085191.46352 39181.8382064,-4085164.13458 39178.612836,-4085139.44172 39173.3294888,-4085117.38496 39170.1847997,-4085111.62478 39167.1838307,-4085104.3594 39164.2128949,-4085101.07893 39148.9712439,-4085082.71019 39135.8871163,-4085066.68215 39131.8200456,-4085061.98335 39109.5657013,-4085043.1092 39092.4445339,-4085026.36726 39055.4319991,-4085024.47526 39048.4192941,-4085023.96987 39028.4078108,-4085022.88014 39017.2838322,-4085024.15796 39008.3915979,-4085025.2794 38992.6114826,-4085038.34617 38987.0818792,-4085041.22551 38975.5614775,-4085047.5149 38958.7641619,-4085053.17727 38946.7872828,-4085056.50837 38919.7235724,-4085057.9063 38914.7293786,-4085057.75786 38904.7757401,-4085057.95692 38895.6243758,-4085041.15486 38895.4948212,-4085032.19311 38895.3652679,-4085023.23136 38903.8152197,-4085008.68467 38907.0830572,-4085001.97677 38915.1365913,-4084992.44165 38916.9466209,-4084989.82293 38934.0361266,-4084977.66117 38941.3015423,-4084974.66021 38960.7570625,-4084967.81485 38982.5975022,-4084952.32995 38995.4856584,-4084929.99664 39003.0368761,-4084899.06647 39010.806064,-4084864.13401 39020.4595349,-4084824.08576 39025.1693975,-4084798.83686 39024.85034,-4084772.94356 39022.271117,-4084768.14049 39019.6571466,-4084762.84147 39015.6295797,-4084755.14961 38993.4447922,-4084737.2672 38959.2625869,-4084711.75292 38937.1077979,-4084697.8554 38926.403959,-4084676.67668 38924.8861227,-4084672.79599 38924.4296691,-4084669.8377 38921.5914555,-4084647.11112 38919.2634356,-4084613.88285 38921.7953893,-4084575.33029 38921.7496473,-4084556.89349 38934.394741,-4084531.08864 38952.1730118,-4084507.41607 38963.1722878,-4084493.68763 38970.9131835,-4084479.6891 38974.7607758,-4084463.47144 38977.6859744,-4084448.31516 38976.5094033,-4084427.96409 38975.7892794,-4084410.5713 38977.2818703,-4084406.97809 38982.0818649,-4084393.68398 38984.1398896,-4084391.04791 38991.0926242,-4084383.58353 39004.8543547,-4084370.15997 39013.3596474,-4084367.07223 39023.7792246,-4084362.85362 39029.83478,-4084363.92452 39046.7268401,-4084366.72813 39096.8770663,-4084371.18879 39148.936772,-4084378.00754 39195.8980348,-4084383.18995 39240.9497429,-4084386.01425 39273.8903563,-4084386.69676 39300.0015264,-4084382.3756 39313.7931664,-4084372.93701 39334.6069885,-4084357.02597 39344.4706025,-4084344.87233 39352.48943,-4084334.84143 39353.2918984,-4084317.84047 39355.0767254,-4084307.74793 39357.8724944,-4084283.63008 39364.7604743,-4084271.68492 39376.6773491,-4084260.38421 39393.7273451,-4084251.21577 39395.6763638,-4084250.58085 39405.6694261,-4084247.38891 39416.5058602,-4084249.12163 39429.7777168,-4084257.1626 39445.7377328,-4084268.00549 39448.8523469,-4084269.78079 39451.897474,-4084270.56421 39470.9468869,-4084275.70855 39493.0366548,-4084285.12525 39507.9795655,-4084288.56377 39515.0616931,-4084290.06112 39539.010522,-4084286.88823 39555.9514712,-4084279.72093 39570.7001994,-4084269.71698 39586.6587952,-4084255.64129 39588.6868264,-4084249.02037 39591.3892801,-4084241.35546 39591.3088877,-4084222.42292 39588.0491801,-4084197.23427 39571.6409871,-4084151.53669 39562.2011667,-4084112.82652 39554.9739914,-4084087.91579 39542.6736537,-4084068.84254 39532.2385184,-4084058.60934 39528.7369789,-4084054.86765 39518.014354,-4084047.64482 39509.5929394,-4084041.25753 39505.8781715,-4084038.02915 39482.3892357,-4084015.75267 39463.9387457,-4083987.14273 39462.8426425,-4083985.7244 39458.7457233,-4083977.04066 39450.7998582,-4083959.65583 39441.3601489,-4083920.94556 39435.4962662,-4083883.47992 39434.8266248,-4083881.03496 39430.6841868,-4083853.91457 39430.4649605,-4083832.99823 39431.2627772,-4083819.48626 39431.4065281,-4083817.98107 39447.1963584,-4083797.93682 39462.0242557,-4083781.94696 39474.764176,-4083764.60824 39494.6604855,-4083746.26987 39510.4107849,-4083729.21867 39524.0779083,-4083707.32968 39527.8657861,-4083683.14246 39519.666117,-4083644.34536 39518.1221147,-4083608.0723 39519.8065481,-4083568.08449 39524.5313111,-4083532.36909 39528.1407637,-4083509.19113 39544.5655533,-4083491.09603 39548.0072027,-4083486.86799 39561.8731995,-4083474.93259 39569.2128886,-4083469.43477 39582.7218912,-4083459.51787 39593.716461,-4083449.27872 39602.4493827,-4083435.21101 39622.1122197,-4083406.42334 39635.9627442,-4083380.03628 39653.8657193,-4083368.81491 39680.6907614,-4083360.45724 39721.3817756,-4083340.16423 39747.0315978,-4083336.37423 39752.4869121,-4083335.99213 39769.0612656,-4083337.82148 39783.4038964,-4083339.80714 39815.5307911,-4083339.55044 39859.41639,-4083339.96526 39907.6515399,-4083345.55749 39945.0204319,-4083345.432 39961.4905255,-4083345.77352 39974.0674179,-4083343.89589 39979.9491757,-4083342.48719 40013.4643822,-4083337.14956 40068.4485396,-4083328.81312 40116.4751064,-4083331.42973 40156.4528445,-4083340.09211 40185.3212314,-4083339.56524 40213.4804392,-4083339.58642 40235.3111574,-4083331.08025 40261.0543215,-4083310.83763 40280.8906583,-4083284.52998 40291.6217065,-4083259.85681 40292.7225997,-4083257.78624 40311.3982323,-4083225.57953 40313.2430257,-4083223.45686 40326.0128168,-4083210.10333 40344.1240138,-4083201.85773 40362.1464358,-4083206.57585 40365.1567655,-4083206.86338 40366.0048678,-4083208.29907 40381.9104066,-4083232.60169 40384.4547146,-4083236.90878 40396.0850108,-4083253.53698 40403.5789988,-4083264.4745 40426.8145072,-4083290.25716 40437.4326698,-4083295.9922 40444.9362991,-4083299.95193 40448.0855664,-4083302.22317 40476.1906391,-4083315.70398 40510.221778,-4083321.29425 40552.2225295,-4083326.82467 40584.2100674,-4083324.58423 40603.0351483,-4083312.30171 40605.0584239,-4083309.16982 40607.0469642,-4083305.542 40616.920198,-4083286.41103 40633.5126008,-4083249.36675 40646.7280663,-4083221.03118 40649.108337,-4083215.88084 40650.7051546,-4083213.77555 40660.4298224,-4083199.63864 40666.9608559,-4083189.71232 40671.3595825,-4083184.91898 40681.7538539,-4083173.227 40688.7065244,-4083165.76297 40713.4972393,-4083142.59709 40719.7011871,-4083138.67404 40739.230591,-4083129.33245 40765.0430598,-4083110.08194 40787.8751183,-4083094.52871 40788.7627759,-4083092.97146 40799.3056384,-4083076.2855 40801.7901144,-4083072.62296 40819.3348808,-4083038.50233 40831.4842406,-4083012.73338 40836.0663022,-4083003.44197 40866.4502838,-4082956.95989 40873.2187598,-4082929.07601 40881.8069851,-4082891.59585 40888.8573626,-4082839.27259 40889.3581358,-4082835.74899 40889.9324093,-4082804.81042 40897.6629266,-4082772.87233 40901.5851369,-4082754.15831 40904.436334,-4082741.49963 40909.2316642,-4082731.69496 40916.0155595,-4082718.26251 40919.144605,-4082709.57126 40925.9382106,-4082689.16109 40938.7524162,-4082669.32603 40951.5318955,-4082648.99505 40964.2370625,-4082631.16108 40976.0795793,-4082622.358 40982.0008373,-4082617.95646 40987.9568243,-4082614.05085 41004.9023872,-4082603.39534 41025.8452344,-4082596.44678 41049.0100281,-4082596.31965 41060.480946,-4082600.00158 41069.8986965,-4082602.83058 41091.4916613,-4082612.28233 41095.0673352,-4082613.527 41112.1226399,-4082625.78831 41113.2339859,-4082641.65796 41117.4896883,-4082663.2877 41116.617339,-4082679.29626 41109.9723806,-4082694.71237 41106.0598725,-4082706.44861 41096.0573277,-4082716.61792 41090.2402792,-4082722.50724 41087.7905258,-4082726.66567 41079.444563,-4082742.69927 41073.925543,-4082763.51849 41073.5338083,-4082765.041 41073.5984211,-4082769.52171 41073.6533384,-4082780.98012 41075.8260413,-4082797.77216 41080.9096924,-4082809.87511 41091.0220734,-4082822.6226 41104.2537837,-4082833.65656 41122.405181,-4082847.33612 41142.4853475,-4082849.41835 41155.8753504,-4082848.4806 41165.2979433,-4082847.82071 41184.1875433,-4082840.01915 41190.1830714,-4082833.12061 41197.1357198,-4082825.65668 41205.7102244,-4082823.56111 41215.5245416,-4082821.37871 41219.2092515,-4082820.6223 41237.2313759,-4082825.34045 41257.1677336,-4082828.92782 41268.33656,-4082846.0865 41269.5772058,-4082870.91749 41268.7792208,-4082884.42902 41268.7049165,-4082886.92601 41278.8076049,-4082906.65113 41283.6134082,-4082914.78663 41291.0676578,-4082928.71694 41293.2597492,-4082931.55356 41306.3032652,-4082950.57435 41332.324796,-4082959.21742 41357.6226563,-4082978.87502 41374.8863643,-4082994.11171 41380.931983,-4083002.16036 41385.3856322,-4083008.82544 41391.9966415,-4083017.8312 41405.1144635,-4083034.35495 41401.3506382,-4083041.09719 41392.4046832,-4083055.67772 41389.6182174,-4083072.817 41400.8517318,-4083094.45628 41413.964747,-4083114.46884 41417.5008534,-4083118.70639 41427.1173261,-4083131.48849 41437.3985677,-4083150.20431 41444.386843,-4083168.15404 41462.6868053,-4083176.83945 41487.6769038,-4083188.54477 41501.8309793,-4083198.51726 41502.7832693,-4083201.44069 41507.8669723,-4083213.54353 41514.1113755,-4083231.54533 41518.2080575,-4083240.2288 41524.2836131,-4083252.26216 41545.3757912,-4083265.23716 41563.6361869,-4083276.91543 41563.82533,-4083293.84627 41562.9136123,-4083312.84763 41558.2333055,-4083342.08006 41555.4170088,-4083355.23457 41564.6369864,-4083373.02793 41567.1117873,-4083376.34308 41576.5845413,-4083390.63024 41586.9005793,-4083409.84189 41583.1271905,-4083423.56178 41571.1710854,-4083437.85483 41558.2231359,-4083452.21735 41553.32377,-4083460.53421 41547.3930172,-4083471.91345 41535.5459304,-4083484.20545 41535.1841494,-4083489.71271 41534.6786176,-4083496.7251 41534.6738133,-4083500.21393 41541.3244249,-4083506.22671 41547.9750363,-4083512.23949 41563.9044247,-4083519.09741 41583.9198072,-4083516.69872 41604.9366338,-4083507.25292 41621.5991706,-4083496.11869 41640.6670358,-4083487.30776 41647.5500773,-4083478.85196 41652.4446269,-4083474.02393 41666.2897965,-4083451.12655 41675.0918608,-4083438.05115 41691.0153151,-4083423.48025 41710.7971217,-4083410.63251 41733.6682773,-4083392.0865 41750.2025394,-4083396.90864 41763.6918009,-4083400.94734 41781.8132167,-4083410.64184 41790.8739232,-4083415.48909 41805.0327778,-4083421.97266 41818.9436697,-4083428.47359 41843.1203245,-4083439.239 41893.2082369,-4083435.73064 41945.5325508,-4083428.57718 41961.8129068,-4083411.98792 41975.6387858,-4083403.04587 41996.6950314,-4083390.60728 42005.5916437,-4083385.99732 42021.4359261,-4083377.41226 42044.3320811,-4083366.33987 42064.3270012,-4083352.97894 42081.1679198,-4083340.83563 42089.6728103,-4083337.74817 42096.0155392,-4083335.80886 42115.7673015,-4083318.97652 42133.7438007,-4083305.25864 42142.2139501,-4083301.67527 42153.5206641,-4083295.89983 42157.0962917,-4083297.14443 42179.685642,-4083303.03749 42187.2286066,-4083304.00422 42213.7158129,-4083308.62755 42245.9012383,-4083316.34021 42290.2857734,-4083313.23142 42298.7163517,-4083312.64092 42336.5043315,-4083290.06022 42362.3652121,-4083260.83969 42384.9331744,-4083230.85314 42406.7428128,-4083211.38504 42432.4348486,-4083176.19623 42452.131534,-4083147.9059 42467.860906,-4083119.89345 42481.596977,-4083098.99748 42480.6099721,-4083095.57818 42474.3010574,-4083073.09606 42453.2690562,-4083068.09058 42432.2418753,-4083059.59633 42413.0941516,-4083049.4754 42410.1929526,-4083047.18685 42393.9908139,-4083032.87282 42379.8562928,-4083008.94535 42364.2282933,-4082963.69349 42365.2944223,-4082961.12708 42367.8184003,-4082954.47178 42370.024957,-4082946.84202 42378.4401308,-4082931.80056 42384.9015404,-4082920.88271 42394.6057489,-4082895.78402 42397.5214537,-4082887.60625 42401.4338286,-4082875.87024 42404.3446973,-4082871.18125 42409.3135294,-4082863.85639 42410.0864389,-4082842.87165 42401.397389,-4082825.53965 42390.6899498,-4082807.85066 42378.6086456,-4082784.77606 42360.3582856,-4082766.12026 42343.3081405,-4082750.37049 42329.0202644,-4082734.92561 42324.9883212,-4082730.72284 42304.9279482,-4082714.68552 42289.7128512,-4082703.79069 42268.6509424,-4082694.80037 42244.4447275,-4082680.05005 42233.0184593,-4082669.88657 42227.3945748,-4082664.30023 42229.1892717,-4082647.23067 42228.9704292,-4082626.31533 42228.8210523,-4082606.39183 42232.4306445,-4082583.21499 42239.2386917,-4082552.33893 42244.0186393,-4082528.08345 42244.6228913,-4082501.13029 42247.4539196,-4082477.50965 42248.0630581,-4082447.06771 42238.9921012,-4082424.28053 42237.8613568,-4082422.36632 42222.7352208,-4082398.50811 42222.1003941,-4082396.55917 42215.4097263,-4082368.6218 42208.0147924,-4082337.74365 42200.5796576,-4082284.94095 42199.667023,-4082279.02467 42199.3892118,-4082275.05733 42199.2296056,-4082237.19398 42198.9365788,-4082218.77558 42199.8638392,-4082214.22551 42205.1447238,-4082186.44654 42205.6455204,-4082182.92303 42206.9943699,-4082180.83518 42227.366018,-4082151.50117 42261.1773495,-4082136.17656 42263.0915664,-4082135.04583 42293.3918571,-4082122.95717 42300.9049381,-4082119.93935 42320.7611281,-4082104.59524 42323.8456845,-4082102.38586 42327.212924,-4082100.65504 42344.6888186,-4082090.46109 42366.5981138,-4082075.96993 42413.0747758,-4082045.80484 42467.2288359,-4082046.99639 42544.0560198,-4082044.60696 42555.248819,-4082044.32157 42585.1425724,-4082044.22177 42606.0404113,-4082043.75517 42659.5643708,-4082039.50903 42662.0439383,-4082039.3354 42733.0935365,-4082039.84223 42744.1077922,-4082040.56604 42808.190094,-4082059.00274 42825.3289044,-4082061.7894 42851.2503426,-4082065.45612 42888.4041149,-4082065.84462 42912.1433019,-4082059.69728 42930.0850978,-4082045.48405 42946.667763,-4082015.41905 42954.5177181,-4081999.42077 42965.4223677,-4081977.2285 42985.0499677,-4081947.94701 42993.5992945,-4081938.37824 43011.7641088,-4081916.67433 43013.8568134,-4081914.53443 43043.591396,-4081901.48893 43052.731013,-4081900.35064 43079.0885897,-4081896.0134 43082.5599597,-4081895.77034 43086.4925165,-4081894.99665 43122.5452532,-4081897.45569 43179.6296029,-4081904.92053 43214.7550199,-4081911.92954 43252.6622064,-4081905.28859 43286.4133383,-4081881.99511 43344.9099909,-4081842.01883 43379.3355082,-4081817.68151 43382.633249,-4081814.95892 43412.3574333,-4081783.97407 43439.493016,-4081755.16385 43446.9414229,-4081747.66561 43496.645661,-4081713.78689 43545.313531,-4081686.45917 43557.4681349,-4081682.11979 43567.425881,-4081678.43257 43579.23327,-4081669.13415 43600.0462152,-4081653.22515 43629.7952703,-4081629.7138 43657.5905096,-4081610.32596 43678.6019453,-4081604.36983 43681.5079344,-4081603.1697 43691.3018805,-4081590.02558 43717.2225546,-4081568.77568 43747.036108,-4081549.74491 43774.9901763,-4081543.30273 43794.9999424,-4081544.39346 43802.012039,-4081544.89918 43835.0888945,-4081547.5667 43843.9060892,-4081548.94272 43857.0426231,-4081551.51132 43888.6615476,-4081558.26758" style="stroke-linejoin:round;stroke:#000;stroke-width:1px;fill:none" /></g></g></svg>