<svg xmlns="http://www.w3.org/2000/svg" baseProfile="full" height="54713.4551141" version="1.1" viewBox="57541.440939,4511939.684627,49960.140286,54713.455114" width="49960.1402861"><defs><style type="text/css">polyline,line,rect,path,polygon,.polygon{fill:none;stroke:#000;stroke-width:1px;stroke-linejoin:round;}</style></defs><g fill_rule="evenodd" transform="scale(1,-1)"><g class="id" id="06280"><polygon class="_06280" id="None" points="83850.597506,-4512165.40754 85435.9881987,-4513760.09729 85664.5183497,-4513981.05546 86387.8675058,-4514714.8271 87195.0090648,-4515469.15551 89470.1099166,-4517668.83009 89720.6826212,-4517911.01429 90453.7305791,-4518601.58993 90638.7846688,-4518781.44634 90650.3850897,-4518770.10243 90653.1706911,-4518767.39971 92564.7368707,-4516882.45167 92646.0975195,-4516798.55266 93889.3620064,-4515519.43044 94606.9361235,-4516237.06064 95788.443775,-4516822.89056 96212.1039971,-4517449.60688 96391.2886173,-4517736.53031 96596.1756976,-4518073.33129 97088.1475823,-4518944.01472 97122.4179562,-4518935.93864 97327.2817259,-4518884.05154 97331.1251365,-4518888.74365 97615.4875889,-4519182.64304 97904.909737,-4519484.12928 98051.9442946,-4519635.94107 98133.901177,-4519777.23283 99920.4078281,-4521449.73946 99923.7558478,-4521454.46872 99930.1516145,-4521459.96367 100041.093993,-4521352.39937 100343.93144,-4521061.37961 100811.198737,-4521493.87025 101026.016036,-4521257.85418 101128.466589,-4521143.46122 101160.782647,-4521109.62159 101468.574448,-4521403.70739 101525.519274,-4521458.18989 101596.088529,-4521528.08318 101819.934494,-4521753.28538 102103.870413,-4522015.28937 102391.221902,-4522289.48864 102665.797702,-4522572.62555 102667.509229,-4522575.48546 102699.089661,-4522617.43804 102487.335134,-4522683.31198 102338.37242,-4522788.77381 102129.07827,-4522834.53131 101933.588513,-4522904.65486 101624.150033,-4523016.30089 101553.049778,-4523077.49648 101465.872475,-4523202.69378 101380.956763,-4523384.02564 101264.145924,-4523565.28424 101248.037698,-4523589.42611 101240.315628,-4523645.3206 101225.531765,-4523746.09742 101220.340447,-4523822.22968 101216.041868,-4523883.84414 101204.202203,-4524010.30858 101248.307767,-4524099.14723 101373.203431,-4524116.58651 101500.143704,-4524042.68558 101611.133249,-4523988.43038 101730.628767,-4523960.93582 101824.335987,-4524027.07903 101898.88046,-4524123.07639 101904.247874,-4524128.15053 101953.293076,-4524229.56864 102008.981078,-4524458.04143 102080.414898,-4524749.59753 102073.697183,-4524759.57408 102077.998662,-4524763.73242 102084.530568,-4524784.16473 102108.383143,-4524855.60263 102136.312933,-4525171.38425 102108.819988,-4525327.93425 102031.427758,-4525430.96665 101965.82057,-4525630.26963 101927.677656,-4525698.93477 101886.312007,-4526106.17515 101877.81193,-4526250.32398 101861.554495,-4526522.12237 102002.60955,-4526680.33953 102075.874486,-4526693.71673 102129.899764,-4526703.07222 102319.915241,-4526580.53325 102467.221101,-4526486.14823 102653.446491,-4526379.34452 102813.243059,-4526291.98545 103210.588414,-4526314.66444 103398.308544,-4526411.53949 103564.814434,-4526498.06464 103629.374633,-4526560.9315 103642.985632,-4526661.54481 103647.364311,-4526916.32361 103641.142387,-4526998.51087 103634.606244,-4527089.69074 103635.330632,-4527197.7591 103710.438759,-4527268.29545 103770.537465,-4527298.61448 103817.116491,-4527321.48866 103913.568017,-4527351.54091 103998.659365,-4527422.3158 104005.202486,-4527469.1542 103963.260779,-4527566.50773 103947.873637,-4527705.19545 103847.594278,-4527874.24116 103793.968591,-4527994.90375 103717.981093,-4528109.78945 103721.277161,-4528238.58987 103742.80023,-4528318.67203 103771.953414,-4528427.07447 103792.107065,-4528653.25193 103695.899585,-4528829.96334 103660.050778,-4528895.96378 103621.680735,-4528968.13485 103597.666588,-4529012.80834 103472.429632,-4529220.62393 103420.531351,-4529331.19244 103395.593354,-4529422.77367 103409.287826,-4529596.62661 103421.06333,-4529784.57675 103377.097735,-4529927.42965 103382.576577,-4530163.6919 103394.454835,-4530556.42353 103536.78654,-4530934.76562 103557.103398,-4531005.47203 103584.142516,-4531099.08662 103649.502317,-4531323.32737 103732.608824,-4531715.63137 103813.222107,-4532088.19322 103875.462217,-4532192.58676 104034.370276,-4532342.95227 104117.787574,-4532417.83367 104186.594005,-4532549.63045 104222.590454,-4532643.06145 104242.432456,-4532694.37037 104243.456328,-4532819.35728 104124.281391,-4533119.89648 104043.475424,-4533223.69578 103967.142313,-4533392.92705 103948.689028,-4533484.51573 103969.556449,-4533621.44911 104041.30682,-4533746.04576 104121.327472,-4533828.65746 104223.634091,-4533876.68993 104279.48531,-4533929.74687 104316.907055,-4534009.1174 104334.479593,-4534043.65733 104422.24461,-4534116.71093 104497.09184,-4534354.17695 104535.005229,-4534479.35 104539.165795,-4534678.33997 104589.029057,-4534862.39646 104765.142306,-4535206.26697 104761.343774,-4535234.95674 104699.153123,-4535616.37211 104689.183354,-4535727.7449 104695.904172,-4535796.49292 104693.096356,-4535910.31093 104677.906689,-4535979.22982 104686.47032,-4536118.09328 104778.60087,-4536255.08789 104820.817949,-4536430.25724 104871.468187,-4536506.627 104896.108004,-4536522.69115 104985.096612,-4536723.20315 105002.627302,-4536763.7244 105103.094079,-4536912.04181 105227.117785,-4537094.94062 105462.099451,-4537413.39829 105510.175804,-4537822.80044 105537.984864,-4537919.83935 105547.905474,-4538037.17268 105616.803728,-4538209.31313 105622.839324,-4538236.25839 105692.262078,-4538598.69404 105706.766681,-4538704.21843 105745.285094,-4538981.31066 105801.40266,-4539175.34905 105885.08521,-4539351.84387 106151.131198,-4539580.73126 106155.928941,-4539584.85053 106323.295156,-4539662.79879 106444.078726,-4539809.5625 106523.535236,-4539937.04887 106609.819588,-4540056.04327 106648.03578,-4540198.12715 106577.655714,-4540386.34258 106571.595725,-4540575.14429 106569.051235,-4540941.05768 106513.298414,-4541138.12645 106480.813849,-4541352.85659 106495.22907,-4541529.13894 106514.369073,-4541754.3891 106520.986651,-4542011.48458 106523.577799,-4542156.77865 106559.158043,-4542558.65535 106600.154565,-4542809.14725 106650.586631,-4542980.69392 106653.558944,-4542980.46758 106668.851085,-4543063.50872 106705.596782,-4543245.06596 106733.145909,-4543345.11087 106775.723934,-4543524.7289 106790.347598,-4543585.89741 106866.308751,-4543660.82992 106901.52209,-4543704.48594 106926.365229,-4543755.90732 106930.399597,-4543913.54748 106879.52603,-4544122.20614 106935.992741,-4544229.01651 106937.285378,-4544232.90411 107078.261802,-4544500.69107 106831.017608,-4544584.29877 106678.197607,-4544664.70005 106659.136939,-4544676.11727 106336.246583,-4544872.11716 105940.621486,-4545159.8606 105463.009092,-4545476.77499 104933.334223,-4545751.32151 104562.986502,-4545958.9211 104315.577955,-4546151.67389 103966.270218,-4546347.70885 103567.056679,-4546575.4534 103339.03185,-4546728.3661 103071.935974,-4546950.53086 102813.133377,-4547137.68302 102665.000931,-4547260.09379 102665.996313,-4547253.54004 102663.632488,-4547255.2151 102659.400259,-4547258.52747 102498.326244,-4547413.81651 102273.066276,-4547642.26639 102010.126902,-4547912.45814 101918.052586,-4548031.59583 101861.17325,-4548847.6751 101826.520821,-4548922.57194 101660.398118,-4549050.84617 101466.869787,-4549244.49647 101146.039657,-4549467.78803 100800.407272,-4549679.51871 100311.639836,-4550059.63759 99697.7111337,-4550392.99748 97748.3114458,-4551086.86698 97021.2740042,-4551433.86082 95635.267562,-4551968.68257 95217.0306112,-4552137.14334 95142.0068047,-4552166.29052 94893.9830093,-4552266.44778 93440.759734,-4552822.37878 93052.2246134,-4552949.21058 92537.9151036,-4553191.30059 92140.1349126,-4553406.06122 92137.770781,-4553407.73682 91787.7029137,-4553568.52039 91649.5355241,-4553632.39332 91083.3509505,-4553919.82036 90747.135617,-4554170.76127 90663.3267,-4554222.01474 90396.2277198,-4554385.94357 90256.7106857,-4554471.35447 89925.8148454,-4554681.02524 89535.1583356,-4554878.31336 89224.7617958,-4555095.39546 88933.9967049,-4555308.48897 88663.2717132,-4555470.70986 88633.6790979,-4555494.40152 88515.0437458,-4555585.69957 88402.3319565,-4555650.12873 88342.5450004,-4555683.10377 88100.7638756,-4555819.69147 87855.769849,-4555907.67841 87622.6495552,-4556027.15811 87351.5340023,-4556197.39016 86989.976832,-4556410.41727 86752.4022047,-4556582.57765 86738.3299919,-4556594.11958 86571.4528469,-4556719.51157 86398.9859713,-4556752.1203 86234.4134301,-4556777.14798 86231.4400388,-4556777.37502 86244.1246037,-4556793.35391 85878.8172035,-4557022.62491 85745.572079,-4557125.0146 85391.1901829,-4557308.09485 85082.210188,-4557485.21746 84864.8871508,-4557628.9231 84599.6402028,-4557784.76374 84357.4918714,-4557942.82929 84085.6975914,-4558078.23655 83771.1136225,-4558175.53943 83483.403387,-4558272.28594 83123.1524708,-4558430.90242 82827.1237201,-4558608.04392 82349.6772042,-4558850.88773 81884.624335,-4559079.82733 81345.816037,-4559390.67487 80814.7852411,-4559656.56636 80544.3845078,-4559797.36449 80250.2793707,-4559957.42264 79988.2061812,-4560135.47384 79796.464668,-4560248.82949 79687.5488073,-4560281.57852 79561.8027973,-4560348.51565 79430.067884,-4560421.89285 79238.568663,-4560505.81909 79100.3727066,-4560576.20098 78914.5475898,-4560633.27278 78635.9706243,-4560719.3672 78632.5802474,-4560714.14249 78459.1939312,-4560823.10825 78429.0468034,-4560842.86032 78357.8280028,-4560886.19047 78152.8939476,-4560918.30172 78062.1070513,-4560943.68471 77924.5113089,-4561028.48015 77650.8070589,-4561233.85288 77457.302765,-4561314.44688 76987.8912183,-4561578.15172 76664.6845698,-4561693.58695 76385.3965354,-4561809.65498 76132.6548316,-4561901.26039 76084.4153986,-4561922.39637 75816.1807722,-4562039.61559 75594.5969684,-4562108.40041 75294.4662285,-4562150.78288 75281.086594,-4562145.32426 75031.7056761,-4562294.00925 74433.7496477,-4562601.45737 73897.5785451,-4562898.70373 73374.6722959,-4563115.16913 73061.9302901,-4563194.91629 72737.2420425,-4563336.90235 72490.7944854,-4563471.91126 72381.0424895,-4563552.59577 72279.8029137,-4563571.80272 72099.8021743,-4563565.12147 71816.9383196,-4563621.64675 71614.0924606,-4563665.07484 71335.7040439,-4563767.12883 71042.2714561,-4563871.33088 70745.9406065,-4564055.03204 70473.6477651,-4564200.9979 70269.4637042,-4564324.8051 70078.9698448,-4564402.69212 69869.3004761,-4564471.07639 69677.0534653,-4564503.22651 69538.0711228,-4564540.7777 69406.8941711,-4564602.16399 69245.4432462,-4564701.26655 69070.5141418,-4564839.29461 68819.7869304,-4565006.55419 68608.8097603,-4565132.88067 68360.7434763,-4565273.0137 68064.7925885,-4565393.37437 67772.7770095,-4565535.87309 67477.7773344,-4565740.43077 67252.8720321,-4565837.90952 67018.1940932,-4565915.1938 66763.6483857,-4566035.88308 66565.9591349,-4566107.84638 66429.1456892,-4566183.63102 66353.6658648,-4566220.31919 66352.5227348,-4566218.41207 66216.547375,-4566164.98609 65904.972871,-4566195.29758 65799.7357164,-4566175.42224 65894.6575155,-4566066.93888 65816.2009851,-4565807.16404 65575.2296896,-4565746.8065 65500.0021747,-4565643.35667 65599.9248071,-4565274.20102 65473.3572466,-4565118.82854 65285.2280172,-4565162.633 65118.190122,-4565280.12026 64812.7670223,-4565188.785 64737.9457339,-4565031.94687 64847.5319989,-4564844.55413 64720.6846385,-4564392.00676 64926.6401004,-4563994.30044 64510.1383009,-4563428.26046 64273.0375272,-4562863.9613 63766.355303,-4562377.10375 63698.4101745,-4562098.06428 63642.9871578,-4562015.53362 63610.0118463,-4561737.31231 63705.5958767,-4561151.07687 63437.8284782,-4560814.99606 63068.3138866,-4560210.92831 62603.4462465,-4560026.52444 62490.5346636,-4559605.80339 62377.5451793,-4559464.83421 62670.0668738,-4558933.37015 62726.4583645,-4558881.69238 62862.4983058,-4558753.12475 63050.1611764,-4558575.73781 63023.8273015,-4557985.84976 63356.7024255,-4557584.4589 63352.7048113,-4557476.55764 63326.0866774,-4556869.74176 63388.9890574,-4556772.69166 63780.9449015,-4556171.83356 63736.5152924,-4555775.81203 63525.6473736,-4555332.153 63411.5172368,-4555084.55785 63393.7055831,-4554638.63416 63380.3547323,-4554140.01316 63096.8310438,-4553936.75004 62808.622586,-4553694.94782 62627.5301298,-4553023.61807 62415.0693883,-4552339.71769 62516.5794258,-4552062.21085 62589.5385379,-4551881.12555 62344.2842095,-4551627.06252 62233.9856637,-4551511.30732 62133.1701912,-4551385.85319 61961.9811432,-4551174.50994 61939.2784667,-4550974.78608 61663.3774019,-4550704.60249 61447.190482,-4550386.9816 61088.9115183,-4550315.05281 61045.0252029,-4550092.50633 60637.1199176,-4550089.18213 60477.0191377,-4549944.80288 59930.2775006,-4549785.00362 59632.5433509,-4549251.17832 59053.1025048,-4548874.94463 59042.124326,-4548868.30089 58805.5291232,-4548714.78131 58642.3859822,-4548609.02339 58630.2352908,-4548308.75064 58622.6716123,-4548274.91835 58620.9497774,-4548105.00221 58581.7451035,-4547203.89591 58428.6777597,-4546745.80271 58238.9561281,-4546493.95699 57907.8848979,-4546288.2772 57890.2655615,-4545997.8934 57858.3685342,-4545464.24574 58007.156025,-4544565.78048 57974.1549693,-4544371.31634 57940.0325012,-4544080.19496 57903.0128443,-4543904.98594 58011.9586269,-4543708.19793 58118.3826899,-4543517.58661 58237.1428364,-4543305.592 58538.9402091,-4542431.90563 58637.263183,-4542174.09657 58771.720138,-4541938.97185 59057.302881,-4541687.86579 59179.7876126,-4541583.80445 59159.2280771,-4541257.74921 59023.8956849,-4541048.63125 58924.9103623,-4540530.5712 58659.5292204,-4540158.80265 58598.6207046,-4539800.40798 58713.7710258,-4539416.16219 58719.6368726,-4539296.53653 58730.4397246,-4539094.2568 58715.4568614,-4538962.75229 58713.7550811,-4538946.92454 58578.9408003,-4538826.52316 58338.7849189,-4538655.286 58298.4434747,-4538439.43948 58296.8330742,-4538428.09264 58295.8097185,-4538421.18915 58288.6731716,-4537762.99918 58199.0624477,-4537384.34325 57986.6277265,-4536691.88522 57774.3271534,-4536427.76544 57927.0310776,-4536258.58707 57755.8372813,-4536020.26567 57796.7305319,-4535629.69802 58049.3777988,-4535414.03538 58112.9501008,-4534044.87521 57801.3190657,-4533684.07024 57825.1846685,-4533404.00589 57977.4848906,-4533150.59383 58156.6717973,-4532896.63809 58163.5907735,-4532238.88395 58217.6025268,-4531965.01191 58216.4246311,-4531811.51557 58215.4199801,-4531193.75882 58374.9862759,-4531075.43729 58397.2486856,-4530734.66436 58432.4001376,-4530688.61449 58316.5061488,-4530524.87418 58274.889182,-4530462.70824 58350.0328385,-4530391.68353 58362.7949299,-4529896.0527 58320.7393306,-4529420.53764 58537.9422349,-4529309.31846 58724.0571378,-4529008.47872 58737.7038939,-4528978.02345 58405.423473,-4528666.63738 58119.885278,-4528277.90266 58205.8250941,-4527662.03437 58361.4564891,-4527225.38491 58302.6354085,-4526946.11343 58462.1582721,-4526718.6039 58561.1764477,-4526271.79022 58625.5943975,-4525753.30287 58694.2048815,-4525612.47145 58748.2413172,-4525443.82363 58690.3855267,-4525262.71297 58829.8627162,-4524994.34454 58870.4512754,-4525033.15461 58882.3437964,-4525071.64607 61511.2910532,-4527635.77919 61622.4649002,-4527744.0267 61687.0702914,-4527806.94024 63713.5728185,-4529797.27531 63973.2498937,-4530052.30608 65217.0388889,-4531228.85947 65237.7050818,-4531248.23212 65239.2896838,-4531246.11747 68340.0514112,-4527997.4463 68686.1285017,-4527607.24807 71344.3288774,-4524748.94837 71356.6381927,-4524737.04762 71661.6593292,-4524426.77425 72520.8008117,-4523554.05129 72607.7918689,-4523465.20321 72982.9130176,-4523083.32843 74466.0247292,-4521576.63531 74551.8515087,-4521488.87826 74649.2815555,-4521389.77404 74863.8559139,-4521172.12745 79193.2437445,-4516773.79286 79220.0401347,-4516745.84537 79725.335451,-4516203.67378 79746.0262066,-4516180.67482 81867.2241118,-4513904.33559 83850.597506,-4512165.40754" style="stroke-linejoin:round;stroke:#000;stroke-width:1px;fill:none" /></g></g></svg>