<svg xmlns="http://www.w3.org/2000/svg" baseProfile="full" height="79233.6147086" version="1.1" viewBox="59257.756478,4294787.919500,57557.603407,79233.614709" width="57557.6034067"><defs><style type="text/css">polyline,line,rect,path,polygon,.polygon{fill:none;stroke:#000;stroke-width:1px;stroke-linejoin:round;}</style></defs><g fill_rule="evenodd" transform="scale(1,-1)"><g class="id" id="06336"><polygon class="_06336" id="None" points="104661.794079,-4373878.3732 98403.1802335,-4371178.93592 97742.8185153,-4370887.53464 97697.402823,-4370897.85898 97422.5955142,-4370956.01935 97055.7263702,-4370820.89365 96966.3945148,-4370771.22978 96577.8283439,-4370644.41272 96245.0580895,-4370535.75718 95964.9799848,-4370572.95821 95637.4763504,-4370573.36483 95233.5063672,-4370370.69113 95115.872841,-4370292.56227 94985.5811483,-4370206.04887 94700.2661028,-4370105.30654 94312.8240109,-4369968.42414 94001.2891459,-4369910.7215 93704.6962342,-4370070.28355 93538.0179478,-4369836.51743 93446.8262625,-4369729.75804 93284.0472524,-4369541.95455 93211.6703775,-4369287.24496 93214.4550531,-4369050.05568 93269.1626715,-4368826.38463 93498.3453599,-4368535.15387 93798.5114177,-4368364.84479 93795.7049735,-4368361.10039 93778.7480221,-4368313.75437 93652.3274629,-4367996.92448 93602.5488967,-4367638.75062 93663.5222961,-4367124.83777 93533.6578545,-4366784.90136 93495.5835962,-4366688.072 93528.4960638,-4366571.28812 93695.76696,-4366448.09563 93695.8423371,-4366443.11134 93747.4441449,-4366229.66653 93727.1560807,-4365978.50889 93668.7940427,-4365953.58709 93635.7386745,-4365939.46332 93560.3127351,-4365907.02715 92776.9672554,-4365967.93011 92736.7655177,-4365969.34549 92620.1141178,-4365973.25658 92505.9176476,-4365906.27188 92450.9050652,-4365891.51913 91975.6629995,-4365593.7785 91373.6103576,-4365344.6088 90753.5468119,-4365182.58218 90676.6510079,-4365162.21439 90500.802595,-4365078.5434 90357.8300892,-4364906.95958 90246.8648533,-4364613.68457 90182.1637472,-4363955.57075 90101.8902324,-4363536.7332 90098.1328444,-4363345.39097 90188.3790724,-4362935.51235 90204.7517363,-4362576.19579 90433.300466,-4362235.75619 90507.033166,-4362107.05229 90658.5033492,-4361350.00325 90695.5843125,-4360941.15058 90704.3161888,-4360844.3346 90837.7108073,-4360402.94077 90827.2999955,-4360185.78281 90551.0087862,-4359856.21585 90406.1009365,-4359767.42123 90101.2767768,-4359677.2215 89750.6799592,-4359681.49516 89610.5477709,-4359755.0802 89343.5017201,-4360029.07258 89005.9821978,-4360505.67135 88449.0278716,-4360765.87129 88394.2565202,-4360748.10383 88379.9450264,-4360767.2368 88090.8595994,-4360722.0033 87686.9926882,-4360573.47272 87558.0872164,-4360473.86028 87475.0260941,-4360368.87479 87472.1938512,-4360247.144 87592.4988926,-4360192.15961 87905.6170845,-4360150.73179 88080.9885696,-4360217.04037 88200.8933936,-4360074.96985 88355.0559463,-4359984.76282 88572.3223271,-4360052.0068 88702.4424993,-4359942.42793 88973.695536,-4359571.00203 89154.5991655,-4359355.5737 89673.5677445,-4358928.85119 89803.4836564,-4358622.65874 89757.8003248,-4358223.79246 89744.1060094,-4358108.96043 89715.1203244,-4357819.19617 89560.7156961,-4357676.93603 89414.0360141,-4357349.33282 89199.575647,-4357109.10064 89024.2967666,-4357043.77224 88776.5087664,-4356939.27228 88761.5894066,-4356933.5642 88583.3540477,-4356774.39621 88544.8137743,-4356583.50439 88593.1720836,-4356407.66825 88750.0507864,-4356208.22225 88725.7926607,-4356074.36852 88547.6084124,-4355886.32008 88352.5143549,-4355716.12768 88258.2630873,-4355578.73006 88167.8046271,-4355197.57648 87433.3593113,-4354759.82558 83820.7340736,-4352670.37984 81169.9678664,-4351542.98339 80719.3358449,-4352279.56403 78915.6415502,-4352340.74602 73331.2684436,-4346969.25071 73318.3180815,-4346957.39596 73079.3025821,-4346727.07944 67782.0295991,-4341634.4703 66971.3684019,-4340854.63622 59588.0963561,-4334069.49088 59531.470176,-4334017.96929 59566.0645252,-4333979.20168 63056.7233322,-4330065.21983 63200.0504954,-4329915.73147 63627.5591682,-4329467.47896 65078.8655638,-4327950.23567 69350.7621904,-4323151.44073 73408.5402549,-4318216.03705 73538.1336448,-4318033.40694 73496.4306584,-4318022.95843 73987.859456,-4317392.789 74073.2717704,-4317283.07019 73679.4196485,-4316908.272 73323.2367296,-4316555.20934 73472.6041803,-4316347.02934 73574.4622873,-4316243.40329 74631.8405047,-4315165.08292 76627.1719958,-4313080.7991 78043.0876426,-4311503.64699 78472.2095619,-4311015.21976 80587.7205528,-4308606.09099 81145.6629986,-4309111.03969 81743.207162,-4309660.95421 82008.3408849,-4309932.49626 82153.3484581,-4310065.23489 82203.2300993,-4310036.67202 82363.9555289,-4309946.57273 82405.6192449,-4309688.71184 82312.453922,-4309294.77238 82304.2474556,-4309262.1055 82261.4973815,-4308982.92623 82432.6297124,-4308654.01141 82619.8189683,-4308451.69162 82733.1396685,-4308407.87286 82741.8313216,-4308404.65748 82918.8766281,-4308337.09481 83308.757188,-4308344.33518 83596.4327261,-4308194.85037 83656.8132746,-4308143.01219 83706.0292249,-4308088.62262 83824.642137,-4307959.24142 83895.7759179,-4307732.27992 83620.4644439,-4307350.58299 83554.0527985,-4307139.59367 83777.8984988,-4307090.02886 84216.0497231,-4307275.93096 84358.2341724,-4306987.7827 84507.2512648,-4306864.82584 84674.5305062,-4307192.82391 85066.9344037,-4307123.20293 85304.6365098,-4306983.37997 85695.5126969,-4306919.36392 85732.3299606,-4306674.87093 85804.8545921,-4306387.07653 85650.2079318,-4305942.04943 85406.9445989,-4305431.2492 85249.2270919,-4305050.68535 84942.2360337,-4304742.31664 84705.5513483,-4304852.6754 84450.8481462,-4304872.45097 84509.1360298,-4304610.73104 84756.022412,-4304401.95773 84632.9071394,-4304239.01174 84852.4358096,-4303994.69423 84854.3654591,-4303952.22251 84865.4453828,-4303667.56762 84617.1362554,-4303459.81857 84536.563122,-4303484.46443 84303.1641159,-4303556.71228 83715.3560259,-4303867.61546 83642.7176446,-4303510.29764 83266.4631066,-4303397.84581 83482.3199765,-4303037.84939 83628.6942757,-4302775.74504 83610.2028214,-4302488.57453 83616.5131694,-4302206.30323 83446.2205665,-4301925.32876 83369.2042556,-4301724.17954 83529.8574976,-4301639.09384 83844.8832808,-4301691.95513 84033.4253135,-4301618.97866 84026.9812572,-4301028.65531 84208.6574889,-4301100.11126 84309.6904154,-4301338.57798 84365.5639375,-4301471.30172 84571.7273678,-4301317.21292 84580.4324901,-4301027.77934 84586.0131153,-4300790.37487 84532.2798738,-4300104.44947 84716.3821149,-4299584.3566 84856.135825,-4299290.46769 85236.0019214,-4298831.70932 85290.3760888,-4298797.30964 85594.829225,-4298598.20542 86025.291298,-4298394.0725 86500.9789536,-4298159.29368 86976.2934133,-4297955.90781 87437.022015,-4297750.75483 87824.3049175,-4297637.83587 88233.0478276,-4297597.29127 88270.4035069,-4297418.47836 87982.1838043,-4297304.63213 87720.9809153,-4296995.41115 87614.0428351,-4296709.66472 87573.425174,-4296413.41282 87635.7066069,-4296157.36383 87787.4167271,-4295869.47473 87936.450478,-4295585.29463 88005.6133058,-4295411.7966 88340.4159275,-4295493.40123 88587.5200905,-4295645.5229 88849.6584397,-4295763.0428 89182.8910019,-4295825.86064 89501.169258,-4295924.26595 89777.2671598,-4295970.44086 90056.6999733,-4296038.73418 90397.0920867,-4296157.68981 90636.1973183,-4296213.91278 91283.3209167,-4296388.42759 91862.2281491,-4296485.00991 92229.1754133,-4296582.33372 92449.8202634,-4296632.12724 93249.3539187,-4296629.19207 94261.3566063,-4296661.79734 94857.8564811,-4296677.27402 95498.1701647,-4296669.19126 95846.5562138,-4296657.57131 96174.6758727,-4296581.95049 96446.3716323,-4296581.69925 96620.2118802,-4296595.57575 96865.7550694,-4296705.49274 97165.2078148,-4296841.27109 97424.9590423,-4297020.16818 97664.2794197,-4297085.31474 97794.5852264,-4297120.23494 98165.3148926,-4297000.75226 98603.7035149,-4296791.53227 99223.169578,-4296665.25395 99556.495714,-4296521.02795 100213.424904,-4296348.83707 100741.203009,-4296251.10717 101453.835774,-4296216.09507 102157.274859,-4296154.4815 102615.852603,-4296211.79823 102930.422986,-4296296.54113 103374.951792,-4296352.53788 103854.274049,-4296491.7134 104197.909046,-4296579.00455 104642.835169,-4296466.78546 104924.943047,-4296436.8027 105171.144247,-4296489.42273 105415.118839,-4296449.68181 105704.426566,-4296327.05121 105918.464229,-4296352.00061 106078.891949,-4296521.72778 106375.817966,-4296621.86232 106662.610243,-4296606.41442 106908.303444,-4296414.28167 107086.058925,-4296380.06103 107415.547256,-4296423.2477 107943.12545,-4296389.72026 108243.866033,-4296332.81054 108695.176725,-4296082.74944 109161.140629,-4295608.58248 109465.744305,-4295371.25529 109738.684344,-4295279.35577 109920.506245,-4295317.93538 109931.952444,-4295341.85711 109952.168572,-4295363.55545 109981.155146,-4295556.16424 110025.170154,-4295678.36635 110045.429513,-4295897.57275 110053.623028,-4295900.37244 110064.452645,-4295982.55416 110090.392481,-4296031.13824 110227.046991,-4296076.96193 110230.134995,-4296078.19708 110419.616059,-4296232.55159 110745.381284,-4296493.9509 111048.789059,-4296749.74793 111474.352254,-4296949.09045 111664.247858,-4297221.80697 111684.880832,-4297361.87311 111687.516429,-4297375.58326 111706.955193,-4297501.32152 111754.76202,-4297633.15175 111941.770365,-4297751.88196 112182.092694,-4297817.90878 112314.790868,-4297864.05496 112482.203454,-4298040.13559 112983.451326,-4298532.63399 113052.705321,-4298599.49073 113086.393525,-4298746.92108 113204.394276,-4298819.66118 113346.432835,-4298816.7687 113446.365019,-4298965.13984 114126.243917,-4300632.67714 113499.379367,-4300578.52562 113498.725054,-4300618.37878 113455.989408,-4302776.54722 113445.247024,-4302796.84603 113457.580284,-4302944.56443 113434.485031,-4302953.95502 113387.141415,-4302970.84254 113004.110546,-4303114.26107 113049.334698,-4303226.89765 113057.818917,-4303245.09385 113426.284502,-4303886.43168 113444.858164,-4303918.21216 113933.038466,-4304902.75417 114600.363476,-4306066.32652 114810.419701,-4306639.27881 115002.481437,-4307502.76439 115117.80809,-4307864.73817 115180.732852,-4308242.53352 115207.759099,-4308464.63524 115222.984319,-4308587.23357 115212.834046,-4308947.75705 115185.24115,-4310033.56886 115172.016873,-4311665.41073 115039.584817,-4312056.56799 115025.853553,-4312112.4401 115036.517807,-4312233.92828 115056.023788,-4312443.22834 115078.411649,-4312764.22072 115087.515102,-4312777.88577 115102.780818,-4313643.7209 115139.661972,-4313733.66274 115306.365107,-4314072.91891 115317.384778,-4314353.07377 115263.998281,-4314689.86267 115080.982006,-4316419.02954 115070.403245,-4316423.39817 115081.359692,-4316435.415 115075.845748,-4316535.87203 115065.077395,-4316763.62888 115023.985498,-4317122.27892 114915.314921,-4317968.66201 114902.654224,-4318185.63467 114884.023333,-4318485.6918 114906.010095,-4318831.09913 114933.703724,-4318971.55832 114928.878078,-4319121.70836 114906.685566,-4319118.09629 114719.26171,-4319084.05819 113894.602499,-4318979.55855 112627.374131,-4318877.82133 112842.682574,-4319256.29321 112878.478362,-4319291.60112 112901.585883,-4319312.05218 113093.079053,-4319649.73087 113411.819547,-4319956.34032 113630.435363,-4320350.44513 113824.520824,-4320754.56401 114044.490198,-4321052.03305 114267.408653,-4321242.28894 114589.275004,-4321764.0368 114750.228729,-4322022.17039 114803.979235,-4322063.9288 114879.285895,-4322149.15115 114882.087556,-4322152.8961 114900.649003,-4322729.93027 115117.867203,-4327800.14787 115123.692111,-4327952.39269 115170.502477,-4328497.70621 115161.553062,-4329012.87987 115182.518441,-4329321.56243 115241.737717,-4329694.69094 115288.529433,-4330014.63531 115329.205905,-4330244.0496 115334.541313,-4330277.92912 115414.660629,-4330958.74905 115450.756907,-4331056.70829 115480.441845,-4331113.91337 115535.564594,-4331219.22782 115562.709827,-4331293.56149 115613.962294,-4331838.00192 115687.68757,-4334666.10932 115705.66145,-4334897.43202 115705.13332,-4335257.67491 115733.816008,-4335639.83769 115765.889735,-4335938.13296 115776.801502,-4336038.20948 115778.538062,-4336047.01853 115823.927368,-4336314.34195 115847.057176,-4336547.71823 115855.52648,-4336630.58735 115944.508869,-4337126.08083 115974.636429,-4337448.41989 116006.61328,-4337952.1956 116042.224908,-4338091.48527 116056.718789,-4338511.65872 115992.199009,-4338873.81155 115863.254502,-4339150.34759 115859.001842,-4339182.54695 115808.443757,-4339545.01921 115798.306284,-4339849.85731 115785.009585,-4339851.47518 115798.478259,-4339857.80313 115785.987137,-4340063.83361 115783.169963,-4340089.44449 115786.585078,-4340442.89343 115818.774206,-4341226.26352 115817.964028,-4341240.2624 115798.714057,-4341389.64886 115768.900468,-4342328.50016 115766.361822,-4343018.28319 115780.243895,-4343359.90757 115761.130751,-4343805.81031 115732.016367,-4344251.06513 115740.471562,-4344510.55906 115750.564723,-4344759.9644 115755.822725,-4344869.47465 115743.238469,-4345245.17572 115729.686014,-4345597.57527 115719.411348,-4345853.17788 115750.915559,-4345860.96767 115720.876548,-4345876.43819 115694.522108,-4346029.91153 115492.204149,-4347199.27414 115282.579542,-4348175.72527 114819.316739,-4350808.54916 114774.528584,-4351067.57606 114807.623676,-4351312.06242 115983.404373,-4354497.48826 116011.120339,-4354672.27051 115982.165487,-4354865.27888 114858.622778,-4357446.59794 114563.132427,-4358129.38337 114529.782721,-4358193.90406 113107.586118,-4359491.54714 112625.03092,-4360004.11243 112575.42805,-4360076.48189 111896.696986,-4361803.88895 111556.075675,-4362670.20849 111520.225939,-4362711.06363 111007.259746,-4363258.10403 110360.415312,-4363945.8816 110130.393952,-4364355.51006 110045.982906,-4364504.48668 109839.202656,-4364924.09415 109427.597642,-4365310.80707 109269.222221,-4365655.65637 108679.091746,-4367481.76946 108308.815318,-4368244.21822 107707.689585,-4368895.87849 107487.613957,-4369111.62162 107078.797365,-4369513.58103 106899.079339,-4369812.00168 105796.643861,-4371781.30087 105788.187554,-4371798.93991 105132.495087,-4373079.91416 104661.794079,-4373878.3732" style="stroke-linejoin:round;stroke:#000;stroke-width:1px;fill:none" /></g></g></svg>