<svg xmlns="http://www.w3.org/2000/svg" baseProfile="full" height="67003.0728731" version="1.1" viewBox="59510.966773,4038543.369002,62471.708868,67003.072873" width="62471.7088679"><defs><style type="text/css">polyline,line,rect,path,polygon,.polygon{fill:none;stroke:#000;stroke-width:1px;stroke-linejoin:round;}</style></defs><g fill_rule="evenodd" transform="scale(1,-1)"><g class="id" id="06351"><polygon class="_06351" id="None" points="67170.749826,-4038550.75095 72283.7968673,-4038638.85458 72290.1625276,-4038609.19766 73373.7454328,-4038634.10662 73751.4377438,-4038628.93585 79245.8553575,-4038669.30997 83674.4858143,-4038709.22478 85654.9069589,-4038734.0979 88339.2352197,-4038768.63247 92251.2984685,-4038788.36033 92272.8315974,-4038824.17891 95257.1509915,-4038842.85842 99909.6690447,-4038885.1534 106149.104511,-4038987.41989 108549.623746,-4039006.87382 108538.94335,-4039017.17549 104527.780166,-4042786.75393 104105.345228,-4043183.23272 103887.731459,-4043388.9028 103861.499843,-4043413.64667 103431.523895,-4043816.84487 103352.330144,-4043891.09193 99797.0754222,-4047231.57305 99521.8629486,-4047490.39891 99072.755751,-4047913.67124 98749.3187402,-4048213.37842 98280.1402883,-4048650.23484 93161.9032574,-4053415.18479 93158.9984907,-4053418.26728 93171.6223354,-4053431.37575 95117.5400535,-4055537.37947 95401.442486,-4055874.00981 95416.9438419,-4055891.52656 95474.1773313,-4055952.2473 96666.5399042,-4057217.16511 96806.269613,-4057365.31784 97909.9131701,-4058534.96861 100531.081809,-4061358.23392 101109.78112,-4061986.16411 101332.14183,-4062226.22075 101337.044707,-4062231.56757 101481.796891,-4062389.04545 105688.413859,-4066948.96617 109494.755509,-4063306.43402 112741.405715,-4060202.06453 112761.5588,-4060182.99148 117822.339576,-4065495.3998 116800.35509,-4066584.79887 114766.736256,-4068842.73824 113287.228673,-4070319.32009 112452.654384,-4071238.95325 113164.645236,-4072000.08337 113623.438827,-4072491.66156 121432.742424,-4080848.03495 121321.678666,-4080948.71485 116738.918715,-4085113.09856 116379.189939,-4085454.40629 115736.766639,-4086050.33985 114733.404964,-4086980.64535 115094.463608,-4087349.2686 115123.560813,-4087378.85183 115117.973895,-4087384.01231 114414.949118,-4088015.23628 114410.314951,-4088018.87037 113584.092778,-4088829.05225 111259.859308,-4090998.89214 111223.933095,-4091032.92535 110408.419,-4091800.89168 108901.442185,-4093219.78608 105596.32167,-4096405.00154 104389.991764,-4097552.32315 103847.263032,-4098068.49779 102219.820475,-4099617.03034 100071.778089,-4101720.60284 96966.6763799,-4098444.36464 92974.1454961,-4094476.99608 92816.3918025,-4094320.93354 92803.263953,-4094307.84453 89792.8782179,-4097139.55233 89393.1632997,-4097515.14356 89041.3195028,-4097846.8475 87812.4756099,-4099007.49934 86132.3777868,-4100665.20235 86023.7174295,-4100771.85457 85346.1653989,-4101441.01009 83812.7924014,-4102954.52316 83496.8132451,-4103266.70063 83502.7469903,-4103273.01456 82684.2014691,-4104094.7823 82594.9134536,-4104181.37903 81639.7763403,-4105111.16153 75648.867293,-4098901.97578 74389.1043015,-4097628.249 74380.3508377,-4097619.52166 74661.6816433,-4097341.34757 72599.582955,-4094640.21703 71054.97603,-4094408.90228 70970.7387058,-4089922.05725 65498.8345367,-4090107.67918 65666.0697058,-4085730.48894 63986.7115048,-4085663.41635 63928.450944,-4085661.16563 69263.475823,-4080401.05587 69256.544685,-4080394.76989 66240.5569487,-4077812.67298 73092.3366895,-4071093.26716 73085.804705,-4071091.96366 73008.8732669,-4071074.77991 72691.3862553,-4071005.33695 71526.0325476,-4070751.41193 70319.1848301,-4070488.23003 60855.0636491,-4068424.82864 60678.8430009,-4068386.62418 59748.9385112,-4068184.0672 61835.657335,-4058913.81069 61848.2633787,-4058858.98885 61848.4535568,-4058856.98514 62669.04354,-4058878.54057 62678.0564627,-4058879.2716 64202.6307294,-4051979.24995 67170.749826,-4038550.75095" style="stroke-linejoin:round;stroke:#000;stroke-width:1px;fill:none" /></g></g></svg>