<svg xmlns="http://www.w3.org/2000/svg" baseProfile="full" height="64111.8550288" version="1.1" viewBox="52586.714660,4078318.140867,64236.344728,64111.855029" width="64236.3447275"><defs><style type="text/css">polyline,line,rect,path,polygon,.polygon{fill:none;stroke:#000;stroke-width:1px;stroke-linejoin:round;}</style></defs><g fill_rule="evenodd" transform="scale(1,-1)"><g class="id" id="06385"><polygon class="_06385" id="None" points="103076.524515,-4129136.24872 103024.535953,-4129189.74943 102916.942621,-4129299.89133 98756.462395,-4133360.62577 98297.1552893,-4133875.77168 97385.9425629,-4134897.79528 96679.0924917,-4135690.97808 94476.7804063,-4137955.62151 93695.1505626,-4138677.01311 93439.4352317,-4138913.45787 92173.4954221,-4140081.21494 92163.1259232,-4140071.65205 92138.6971058,-4140047.68432 91955.7704945,-4139868.9125 91950.235771,-4139861.64956 91881.7164436,-4139796.54089 88591.0677286,-4136640.82819 85297.6837091,-4133490.98352 76900.323938,-4142015.11302 74847.0195829,-4140083.35102 71895.6969506,-4137153.38941 66000.4871893,-4131253.16961 65808.7648839,-4131061.19929 65803.020523,-4131054.94062 65782.1422099,-4131075.75334 65767.8315708,-4131061.35277 63613.6852216,-4133188.28599 57169.7727883,-4126580.39331 53172.3770789,-4122726.36455 52705.6806264,-4122265.29432 52699.9562238,-4122259.53275 60074.8235961,-4114972.79508 60076.9666399,-4114970.21259 60088.4896428,-4114958.76554 60129.3186299,-4114918.68084 60655.6890399,-4114399.75701 67491.2760717,-4107661.54907 67630.0893472,-4107525.18293 69779.4790955,-4105406.15662 69951.8838102,-4105236.0015 70031.3977608,-4105158.43094 74707.0293093,-4100583.1293 74750.269863,-4100540.96378 74774.7708483,-4100517.02016 74814.5629073,-4100500.95103 74858.5115766,-4100482.71879 74873.8326633,-4100497.58083 74957.274773,-4100493.24333 75371.0594099,-4100080.32362 75717.9100063,-4099734.9807 76426.6325473,-4099026.72934 77133.2317623,-4098321.56894 78379.0787901,-4097139.1072 79673.6515841,-4095752.06676 79700.2358134,-4095724.04909 78457.9901281,-4094517.26713 77899.9796786,-4093963.0079 77183.1428281,-4093250.35478 75418.1311157,-4091496.79497 74673.0508505,-4090714.34457 76936.2977044,-4088503.98194 77256.9882824,-4088177.7042 77273.7560961,-4088160.06325 77546.6245378,-4087892.60163 77819.4134673,-4087623.14806 78092.2620114,-4087355.19125 78365.0906732,-4087086.73766 79183.825809,-4086281.37659 79456.6743114,-4086013.42781 83767.5119504,-4081774.5669 84644.7935866,-4080916.55836 84918.4094928,-4080649.11051 85191.7563969,-4080381.17587 85464.3161292,-4080112.2759 85737.1647129,-4079844.36435 86010.4918279,-4079575.93625 86283.3206154,-4079307.52961 86561.2774036,-4079061.38147 86945.3743374,-4078704.19954 87069.4180098,-4078578.97595 87166.591415,-4078675.43539 87236.9138829,-4078730.53692 88658.149521,-4080160.38088 89662.4331185,-4081171.55065 90108.0614618,-4081620.98076 90399.3009878,-4081915.83999 90401.10462,-4081917.26551 92136.9743338,-4083665.3796 92720.8686226,-4084253.01641 93077.1945689,-4084308.69469 93080.2042389,-4084309.07388 93154.4102659,-4084499.2669 93155.4862799,-4084501.22041 92904.3007597,-4084453.83165 93211.5920952,-4084769.49372 93646.6565826,-4085216.81322 95666.8943656,-4087293.83369 95668.9471177,-4087295.24908 97320.6068929,-4088965.1636 97504.8483634,-4089154.94672 97598.493751,-4089250.52576 100207.880277,-4091927.66126 100223.227842,-4091912.07688 102616.565084,-4089452.57192 103575.352154,-4088467.65222 105354.092375,-4086639.14705 105379.558377,-4086664.58018 105468.161359,-4086752.86853 105559.354803,-4086843.54855 106696.50793,-4087973.40014 108320.005429,-4089586.32146 108324.101112,-4089582.66501 108331.025775,-4089587.37881 110761.352575,-4092017.81981 110898.047867,-4092154.57521 111181.302056,-4092437.67065 111843.726279,-4093100.32181 115586.582111,-4096641.19522 115616.401992,-4096669.44203 115620.31752,-4096673.77619 115651.153657,-4096702.48131 115658.137873,-4096708.68863 116584.745604,-4097589.23089 111360.118461,-4102941.79131 111285.582571,-4103018.12886 109431.271774,-4104916.76577 109383.846234,-4104966.07196 109319.851562,-4105031.51145 109284.192798,-4105069.36804 105158.346237,-4109394.65042 107908.965516,-4112042.34322 107924.781288,-4112057.17762 113379.821807,-4117307.50232 113429.940373,-4117356.38314 113573.278647,-4117489.83486 114187.081691,-4118098.85332 114193.071301,-4118105.09913 113987.28183,-4118316.96488 113982.151176,-4118319.66624 112962.476832,-4119367.65949 111972.20728,-4120346.63031 111792.723162,-4120524.01498 106292.688923,-4125958.34916 106218.336705,-4126032.70911 103120.445046,-4129093.05475 103090.928975,-4129122.19294 103076.524515,-4129136.24872" style="stroke-linejoin:round;stroke:#000;stroke-width:1px;fill:none" /></g></g></svg>