<svg xmlns="http://www.w3.org/2000/svg" baseProfile="full" height="99562.124724" version="1.1" viewBox="2333.410795,4315147.911749,100494.311387,99562.124724" width="100494.311387"><defs><style type="text/css">polyline,line,rect,path,polygon,.polygon{fill:none;stroke:#000;stroke-width:1px;stroke-linejoin:round;}</style></defs><g fill_rule="evenodd" transform="scale(1,-1)"><g class="hogares departamen mujeres departam_1 toponimo_i tot_pob varones viv_part viv_part_h" id="06399"><polygon class="_06399" id="None" points="47185.1000712,-4315277.74983 52559.7795782,-4320955.97889 55043.0384555,-4318733.4061 55488.6638783,-4319206.64035 59476.6737548,-4323437.32482 59891.0159921,-4323860.54347 61294.2170532,-4325292.54507 65022.7471075,-4329204.22145 67447.6961035,-4331818.59711 69290.5686913,-4333805.15527 69558.5815632,-4334093.50595 68946.5894888,-4334635.13256 67087.7483007,-4336279.74267 71279.9468277,-4340620.95828 73686.5654299,-4338335.31835 73952.8315356,-4338615.71065 75453.3204009,-4340227.64853 75665.2231889,-4340454.78766 75609.631406,-4340505.9778 75843.3514622,-4340751.91417 76031.3013338,-4340548.73012 76045.3356189,-4340534.30497 80038.9138835,-4344710.94045 82495.0967243,-4347277.23757 84976.3275949,-4349869.61142 85338.0499172,-4350247.34834 88974.7479826,-4354095.89557 89300.4924289,-4354425.29061 89482.9250134,-4354334.15643 89579.3253925,-4354286.6786 89782.899259,-4354081.50716 90034.9471436,-4353964.7142 90169.6192651,-4353974.96943 90232.2072885,-4354083.38094 90252.636516,-4354105.7138 90331.9671504,-4354190.6251 90217.4943833,-4354330.56744 89918.1903573,-4354469.32225 89640.9027706,-4354712.76923 89561.8638782,-4355002.93201 89563.46617,-4355077.79848 89758.646897,-4355631.04591 89861.9549147,-4355779.63161 89772.8127635,-4355962.73151 89529.5920712,-4356082.24857 89467.1185444,-4356112.67978 89449.1575629,-4356121.23521 89114.1528025,-4356109.28534 88651.3688619,-4355829.64942 88161.9782362,-4355617.27403 87857.0289234,-4355489.00464 87708.9669475,-4355426.22943 87406.3190414,-4355554.10703 87224.5189462,-4355713.15083 87163.6343622,-4356024.72619 87338.3198724,-4356306.92428 87663.3240017,-4356977.96789 87951.4721034,-4357572.75106 88225.4784246,-4358241.89475 88806.4646268,-4358786.01032 89586.8874159,-4359382.78338 90089.0047954,-4359840.96554 90467.026612,-4360315.53315 90489.7286267,-4360465.65061 90495.1311435,-4360502.4394 90312.7216521,-4360673.49311 90222.7024714,-4360947.52281 90178.7040716,-4360961.89257 89918.0961201,-4361044.50884 89657.0473833,-4360962.32213 89403.5100994,-4360714.08226 89392.3117116,-4360699.45113 89149.4590509,-4360393.93691 88949.9696226,-4360395.21752 88860.9547903,-4360407.50709 88787.2744935,-4360605.60907 93802.2078305,-4366056.93214 93877.7088342,-4366138.95679 93505.3519676,-4366407.39617 95450.2890618,-4368528.0865 96060.6528984,-4369195.5443 96795.6483328,-4369998.40106 101397.848828,-4375026.48645 101403.557381,-4375033.29769 101449.957255,-4374992.37944 102106.721482,-4375729.21417 102085.103825,-4375748.37486 98918.0356527,-4378565.23792 99391.4595169,-4379062.16158 99403.5941465,-4379074.76244 100282.517147,-4379997.33317 99925.8054791,-4380308.76149 99752.1781203,-4380456.08656 99718.6058179,-4380484.11679 96444.3039398,-4383257.13037 96136.1620434,-4382902.30614 95935.3100072,-4382670.93794 95577.3924807,-4382258.25421 94565.298985,-4381114.1274 94484.5134432,-4381023.28982 94451.9883193,-4380981.86722 92872.4854,-4378991.13705 92623.8479539,-4378677.86004 91544.2239963,-4377316.55112 89601.4444121,-4379064.60346 85174.1865808,-4383121.4553 84186.5458953,-4384046.78232 83969.9447379,-4384249.43578 83929.9322397,-4384287.16465 83605.647367,-4384575.14353 82580.3034595,-4385477.21452 82548.7385887,-4385505.68595 82524.500465,-4385528.93048 82054.1225555,-4385974.88646 82030.8507694,-4385997.1016 81815.2937281,-4386201.22776 80705.0703092,-4387254.36578 78324.4894939,-4389454.19023 75045.044048,-4392426.89971 74702.2344532,-4392737.48892 74227.597233,-4393167.65298 73218.8567755,-4394058.85116 73167.4960044,-4394108.93561 72977.938705,-4394298.2795 72191.743095,-4395079.52739 70872.8966463,-4396241.86224 70811.6498465,-4396295.25974 69962.2574237,-4395581.90333 69676.056446,-4395842.76009 69501.5141558,-4396001.66222 66745.7888875,-4398701.34432 66620.7896107,-4398823.71113 66269.8448797,-4399169.5668 62708.1945247,-4402683.84624 59300.0816629,-4406039.56627 59149.4380438,-4406188.24318 59120.1005966,-4406216.15488 56444.9173862,-4408827.79208 52854.348201,-4412371.02124 50865.8024709,-4414252.04441 50859.197481,-4414240.76331 50852.937504,-4414232.46902 50776.7449713,-4414138.46771 48967.4832922,-4412278.00297 48595.59391,-4411896.63037 48464.3939245,-4411761.90844 48165.6286748,-4411456.64825 42463.0051221,-4405612.30044 42451.3932317,-4405600.67777 41738.1434372,-4404870.36195 41735.5683111,-4404867.94549 40930.3442448,-4404042.11076 43620.8856344,-4401411.86407 43041.6525768,-4397410.04562 42233.2443209,-4395922.7413 41803.8529349,-4395278.81371 41600.3349874,-4394974.48163 41566.8695037,-4394927.57583 41001.4946517,-4394155.04455 40431.6581838,-4393549.03527 40141.8638153,-4393241.93614 39904.5064123,-4392989.13583 39164.5788123,-4392203.1314 38625.5487707,-4391078.97553 38202.8174392,-4389840.20249 38117.7132695,-4389590.56605 38078.2907123,-4389394.9458 37925.5699816,-4388627.29672 37412.4899756,-4388227.31704 36989.460432,-4387972.88572 36781.5160867,-4387725.63545 36633.1433433,-4387355.57857 36313.4236814,-4387286.74944 36231.1763717,-4386914.09859 36137.1996327,-4386502.34445 35989.5296359,-4385885.92396 35759.3286604,-4385519.45147 35369.9869314,-4385121.53558 35134.594469,-4384883.14129 34942.3486256,-4384681.85656 34731.5596702,-4384534.12344 34728.5172435,-4384532.72063 34463.552322,-4384346.7262 34167.1794574,-4384186.70817 33887.6113164,-4383870.75767 33743.8720195,-4383520.53028 33559.9274546,-4382854.77614 29864.3602605,-4386547.9191 29347.777428,-4387064.46013 27729.2093852,-4385444.16736 23716.7100666,-4381426.42872 20311.6191028,-4378016.94191 18315.8573334,-4376019.05226 16055.391103,-4373756.59802 14027.3799878,-4371726.12325 13416.4700477,-4371116.69889 13415.4243364,-4371115.23261 11012.0646465,-4368774.16696 9708.97909085,-4367505.84746 8151.6906327,-4365989.12976 6337.92115485,-4364223.07043 4746.37863636,-4362673.87623 2348.2498979,-4360339.86761 3643.07119334,-4359056.70557 4880.21933275,-4357830.85305 5227.75340292,-4357487.08262 5716.29448344,-4357002.4456 7002.39451177,-4355728.11146 7004.53145822,-4355724.54596 7442.65359235,-4355289.48161 12444.0174911,-4350332.31778 12463.1428507,-4350312.72731 13015.7715248,-4349792.14485 16812.3767949,-4346209.39835 16801.8137094,-4346199.23508 16796.3682332,-4346192.90926 16789.6590039,-4346186.12331 16433.991589,-4345823.97119 16821.6613208,-4345389.54675 17169.15819,-4344956.88331 17321.0358405,-4344764.22531 17334.3581979,-4344750.81485 17417.1000592,-4344664.26745 18271.0387544,-4343767.9845 18789.7204718,-4343224.52502 19687.0265625,-4342252.9424 19873.8198942,-4342050.20232 19917.4838944,-4342000.36199 20122.5597411,-4341767.06684 20510.3260585,-4341327.66459 20874.0999405,-4340912.00292 21509.562604,-4340188.00899 22373.1620522,-4339241.00586 22388.1380492,-4339224.54639 22444.6724603,-4339162.81167 23251.3010216,-4338239.59088 23537.640145,-4337936.30375 24206.212426,-4337224.29383 26342.7121994,-4335083.7169 26344.3814033,-4335081.16622 26537.2460061,-4334888.74929 26935.7674322,-4334489.52566 28527.2028053,-4332895.73533 30224.9720687,-4331194.72647 33851.9005896,-4327649.70524 34588.9582888,-4327082.56589 34705.3193281,-4326992.4927 35105.445623,-4326684.70564 35173.0251167,-4326632.63065 35195.3589639,-4326715.87811 35863.3448429,-4326072.95649 36013.9650386,-4325927.85273 36015.8994788,-4325925.79373 36024.1364185,-4325917.54219 36376.4673082,-4325583.27093 42602.606446,-4319673.72659 42762.7279604,-4319520.8472 45264.4719934,-4317147.1497 47185.1000712,-4315277.74983" style="stroke-linejoin:round;stroke:#000;stroke-width:1px;fill:none" /></g></g></svg>