<svg xmlns="http://www.w3.org/2000/svg" baseProfile="full" height="11699.5767895" version="1.1" viewBox="16151.960469,4042034.800231,9476.577225,11699.576790" width="9476.57722526"><defs><style type="text/css">polyline,line,rect,path,polygon,.polygon{fill:none;stroke:#000;stroke-width:1px;stroke-linejoin:round;}</style></defs><g fill_rule="evenodd" transform="scale(1,-1)"><g class="hogares departamen mujeres departam_1 toponimo_i tot_pob varones viv_part viv_part_h" id="06412"><polygon class="_06412" id="None" points="19762.0916234,-4044730.82198 19772.9926748,-4044737.04301 19789.7992679,-4044749.33392 19898.4876554,-4044832.00495 19900.6100377,-4044833.85137 20030.945943,-4044973.34109 20088.5820951,-4045035.13501 20096.1484224,-4045043.58182 20143.207176,-4045096.63969 20225.1275863,-4045188.64847 20311.4308044,-4045286.33418 20376.3097891,-4045359.08925 20438.0052257,-4045429.07459 20504.1673373,-4045516.69497 20568.0691239,-4045600.48441 20631.7574254,-4045684.78702 20697.3546312,-4045771.44917 20747.3295911,-4045837.76247 20790.413348,-4045894.58511 20821.975048,-4045936.2573 20823.3878011,-4045938.6515 20844.2125866,-4045962.12772 20866.8361944,-4045989.96523 20933.0807549,-4046071.5968 20963.0227232,-4046107.89806 20965.6412037,-4046109.7099 21001.7973304,-4046138.60001 21008.3780361,-4046143.62569 21038.5250575,-4046164.95788 21219.3380455,-4046291.95835 21273.0858099,-4046330.09285 21349.3041204,-4046383.11436 21389.9594738,-4046412.18964 21436.2723471,-4046447.35168 21515.9502222,-4046507.11106 21588.5512923,-4046561.87921 21640.3836074,-4046601.14344 21701.3805464,-4046646.74888 21793.4755329,-4046716.6106 21872.622658,-4046775.9077 21943.13572,-4046829.32499 21957.571783,-4046839.78585 21964.683049,-4046845.27294 22013.985195,-4046873.24756 22056.2795927,-4046897.22331 22179.8000988,-4046967.39034 22267.9993575,-4047017.08425 22303.0379016,-4047037.07825 22349.7559419,-4047063.73688 22445.3552883,-4047115.90653 22619.6718421,-4047210.45333 22791.1906293,-4047304.19725 22819.4348417,-4047319.67884 22860.9695543,-4047332.74026 22882.171562,-4047343.72701 22898.1711966,-4047351.58639 22968.605834,-4047389.55471 23059.4637589,-4047438.06532 23141.8602451,-4047483.17673 23178.104145,-4047502.58778 23188.1227475,-4047506.87543 23225.8548487,-4047526.1829 23302.2421141,-4047563.73659 23358.523117,-4047591.72279 23363.4429075,-4047594.3713 23430.3075531,-4047627.60268 23584.1428431,-4047703.63251 23698.0136683,-4047760.51015 23731.8179235,-4047777.09977 23747.8519258,-4047785.45498 23872.3061714,-4047847.57745 23943.8421612,-4047883.47396 24009.9622716,-4047916.75645 24023.6603641,-4047923.77872 24081.4291103,-4047951.66066 24125.5342643,-4047973.01636 24255.8308123,-4048036.72528 24292.997359,-4048055.07445 24308.4316331,-4048061.97583 24485.2914254,-4048139.39171 24521.8237201,-4048155.791 24652.3868098,-4048209.01274 24704.180613,-4048229.83292 24713.1723866,-4048233.69331 24812.6469373,-4048277.11518 24851.2323706,-4048294.36832 24856.8616456,-4048296.46886 24917.2590915,-4048397.9394 24962.0752836,-4048476.06958 25006.3264416,-4048553.24205 25067.386551,-4048660.64754 25103.4782901,-4048724.43078 25125.9037988,-4048763.74368 25128.9428618,-4048768.0183 25165.9986058,-4048827.74664 25196.5210559,-4048875.96662 25224.321548,-4048920.8868 25235.4857166,-4048938.05427 25275.0500659,-4049001.59548 25287.4135395,-4049021.67019 25344.2893684,-4049111.91999 25347.824503,-4049116.16004 25378.1243372,-4049150.4384 25412.5244316,-4049189.91434 25434.7273643,-4049215.28554 25479.6292957,-4049265.99337 25495.0445198,-4049283.36323 25549.9867748,-4049345.83346 25608.2507012,-4049413.05692 25519.4347322,-4049490.51938 25469.4240953,-4049541.85297 25426.1101984,-4049592.72044 25383.5058564,-4049643.04012 25379.1041414,-4049647.8327 25301.8574968,-4049733.96108 25295.8577272,-4049740.85877 25317.115925,-4049759.81565 25267.2026524,-4049816.12748 25263.2624614,-4049820.38948 25261.1683518,-4049822.52912 25211.3241569,-4049879.83316 25157.4707036,-4049940.40721 25153.9920333,-4049944.13864 25105.0018157,-4049999.38957 25051.1829098,-4050060.45989 25045.8581593,-4050066.31372 24998.74857,-4050119.93852 24943.2625468,-4050182.12206 24887.1360576,-4050245.8457 24905.245505,-4050262.52949 24847.2384377,-4050327.87959 24795.3064574,-4050383.83443 24742.4168969,-4050440.3545 24672.2251475,-4050523.99972 24664.8062941,-4050531.99331 24622.9524287,-4050578.77278 24618.3372344,-4050584.07882 24569.0645188,-4050638.85198 24567.9279917,-4050640.42652 24550.5692009,-4050659.58012 24517.0164614,-4050700.29858 24488.9328713,-4050733.65767 24481.5831066,-4050742.64344 24476.0448756,-4050749.01072 24471.1816516,-4050754.33405 24465.1819014,-4050761.23194 24447.7885704,-4050779.88954 24440.3351747,-4050787.38713 24390.104891,-4050842.72577 24335.5074497,-4050903.35332 24280.0968241,-4050963.04067 24262.3110655,-4050983.22113 24217.4055309,-4051032.7061 24200.081293,-4051052.35599 24181.407045,-4051074.09378 24137.6725854,-4051122.50039 24128.4422056,-4051133.11264 24088.4344474,-4051177.7705 24057.1955508,-4051212.34674 23989.4621153,-4051288.34552 23925.6343221,-4051359.5862 23920.805649,-4051365.4057 23914.309837,-4051372.33826 23863.2601888,-4051430.22731 23840.6112212,-4051455.73149 23797.1593633,-4051504.61744 23775.3988854,-4051528.56437 23636.9149308,-4051683.76452 23619.1291912,-4051703.9454 23567.2947391,-4051764.88054 23558.2778531,-4051774.97964 23485.7849088,-4051857.79141 23456.9572874,-4051891.20344 23454.436213,-4051894.36991 23438.8136959,-4051913.40329 23415.5304605,-4051936.9581 23345.3512864,-4052013.62734 23292.675253,-4052069.63685 23270.4532683,-4052094.11481 23217.0615277,-4052154.16216 23106.3378775,-4052278.51949 23097.0729596,-4052288.63602 22976.4094129,-4052424.1544 22933.38457,-4052472.01504 22881.377409,-4052530.47115 22870.941419,-4052541.66631 22809.2423876,-4052611.26588 22787.4819317,-4052635.21361 22753.3357375,-4052670.99086 22637.9624162,-4052800.1604 22587.2346041,-4052755.3413 22536.1849723,-4052813.23279 22480.2721216,-4052876.44805 22415.5558661,-4052949.24954 22351.7972154,-4053021.48598 22277.1555251,-4052955.40237 22193.5274627,-4052881.96884 22038.1589306,-4052744.74131 21948.2668018,-4052667.25715 21879.2486586,-4052606.76282 21817.9410129,-4052674.84071 21792.2745098,-4052703.54734 21708.7790898,-4052796.60033 21622.6934467,-4052891.82801 21540.5419445,-4052986.28338 21455.0215316,-4053082.4692 21452.9334928,-4053081.11919 21362.8327239,-4053000.65815 21271.9186902,-4052919.25654 21208.0550216,-4052990.00594 21189.3458588,-4053011.24929 21136.3453822,-4053069.77658 21085.0120996,-4053127.19082 21031.5846634,-4053186.74505 21001.516229,-4053220.24544 20978.1226664,-4053245.8033 20924.2337083,-4053305.88841 20868.9256055,-4053367.0695 20818.5153936,-4053423.42293 20766.4725551,-4053481.38571 20761.5746665,-4053486.21349 20757.6343988,-4053490.47605 20741.2328858,-4053509.06641 20712.5836093,-4053541.47123 20656.3524622,-4053603.71407 20643.3605576,-4053617.5804 20604.3502763,-4053658.68331 20553.4033402,-4053718.06565 20549.4285052,-4053721.83214 20358.0906616,-4053483.41933 20305.9433639,-4053418.25896 20289.8221944,-4053397.94645 20176.8704095,-4053254.2703 19997.7325542,-4053029.95998 19912.1030547,-4052924.25975 19841.2507826,-4052837.47015 19589.2142168,-4052522.02314 19575.394772,-4052502.54686 19564.9320833,-4052488.32036 19533.0763317,-4052449.66151 19467.7728797,-4052370.95904 19445.4628929,-4052344.09793 19381.7514816,-4052266.77988 19319.983813,-4052192.31736 19271.3382997,-4052130.89906 19236.3394156,-4052086.47662 19143.7146236,-4051969.79528 19071.27719,-4051878.12883 19016.2701062,-4051807.68135 18960.0227937,-4051737.32012 18931.7029247,-4051702.9009 18902.7833032,-4051667.02787 18869.3765634,-4051623.98958 18853.7863433,-4051604.1377 18842.5796011,-4051589.96272 18823.7017813,-4051565.85314 18819.6009124,-4051560.65506 18813.6600117,-4051554.08958 18797.5391437,-4051533.77611 18711.5529536,-4051430.09079 18687.0859708,-4051400.88666 18630.9770727,-4051332.50914 18593.5732334,-4051285.7607 18542.8055274,-4051222.49473 18537.8568636,-4051215.86009 18523.6797214,-4051198.40219 18467.4327413,-4051128.03986 18442.614128,-4051097.36444 18442.2624332,-4051095.89337 18425.3974692,-4051075.63148 18363.7748832,-4050999.66102 18361.6177047,-4050997.31864 18354.5464205,-4050988.8377 18326.1576536,-4050953.42558 18314.1031789,-4050937.81383 18255.802798,-4050866.59698 18240.2126965,-4050846.74471 18192.7673277,-4050788.2319 18136.9068011,-4050719.83601 18132.488823,-4050713.66287 18020.5543652,-4050577.38409 18004.5027348,-4050558.06234 17972.5439154,-4050517.91318 17940.0889925,-4050477.79852 17913.8575346,-4050444.72835 17909.7912521,-4050440.02624 17866.1642846,-4050386.2322 17805.389889,-4050311.69692 17752.823449,-4050244.06791 17746.8135255,-4050236.50996 17685.3358652,-4050159.03223 17669.7458747,-4050139.17961 17645.4236111,-4050108.46886 17593.4161821,-4050045.28731 17571.6373142,-4050018.88614 17545.1579154,-4049985.83285 17512.3169483,-4049943.75043 17433.8710766,-4049844.52121 17421.2860853,-4049828.44744 17383.8827908,-4049781.6972 17332.5506282,-4049717.47107 17301.157264,-4049678.27876 17277.3657677,-4049648.02924 17228.8596214,-4049588.59144 17220.3754504,-4049577.7159 17168.0856777,-4049514.05463 17118.1320858,-4049451.72621 17091.1567092,-4049418.70697 17067.9995269,-4049390.40721 17019.9550857,-4049330.43836 16987.5005266,-4049290.32247 16940.3384421,-4049232.28616 16857.8614131,-4049128.84899 16735.2936582,-4048975.85623 16728.1879706,-4048966.87871 16686.7532818,-4048915.92127 16540.4980784,-4048734.16583 16501.5032134,-4048686.02947 16474.7415632,-4048652.49618 16458.5866278,-4048631.68507 16378.4117093,-4048529.08321 16238.7256393,-4048359.33219 16207.3953302,-4048324.62095 16186.2855449,-4048300.66472 16161.4266626,-4048272.9811 16226.1463667,-4048185.72121 16265.6093694,-4048133.12203 16277.011472,-4048117.87122 16314.8070844,-4048066.38522 16330.9095923,-4048057.7868 16336.151021,-4048039.9735 16340.0638419,-4048031.72474 16346.4982463,-4048020.30935 16350.8790935,-4048008.03978 16372.3153315,-4047950.71276 16403.8082535,-4047916.117 16404.9450139,-4047914.54231 16417.703867,-4047893.71334 16434.9752478,-4047866.08951 16455.2884126,-4047860.68791 16466.5091258,-4047828.4998 16467.1152393,-4047826.4635 16492.0052013,-4047779.3655 16541.0755224,-4047685.71753 16566.640709,-4047637.57562 16574.9970675,-4047621.53983 16575.885768,-4047619.98241 16599.5635922,-4047576.95715 16611.3647732,-4047556.69349 16612.2944335,-4047552.14205 16626.6816508,-4047493.81032 16627.2532563,-4047491.27791 16645.5401542,-4047374.34713 16646.1117643,-4047371.81473 16645.7708035,-4047345.41647 16645.5892674,-4047271.14844 16618.1337711,-4047191.79842 16612.3958615,-4047152.31536 16601.8067151,-4047111.17566 16594.5955839,-4047082.76268 16581.65527,-4047029.32332 16581.0210901,-4047027.37333 16562.8003229,-4046955.35721 16647.314571,-4046894.64004 16755.5651876,-4046816.81755 16756.984542,-4046815.72177 16852.8599471,-4046742.74858 16852.6248578,-4046735.78557 16860.6233167,-4046721.76901 16878.0567083,-4046721.55338 16896.620387,-4046723.25323 16906.0252189,-4046715.12115 16911.2259687,-4046700.30216 16911.3209454,-4046687.3339 16904.0690388,-4046661.91503 16900.4085792,-4046648.70948 16907.0351914,-4046629.30458 16918.8430999,-4046605.55109 16924.2984312,-4046587.22473 16930.2109195,-4046589.80461 16944.2749484,-4046591.31896 16976.9866699,-4046606.49194 16984.2839966,-4046607.47992 16985.9169011,-4046605.87077 17008.2339398,-4046589.86122 17015.1646465,-4046578.4116 17030.9350426,-4046557.8722 17033.3036096,-4046541.75468 17039.9907409,-4046508.88549 17040.4933634,-4046505.36086 17042.3183115,-4046495.76197 17052.5838594,-4046482.08632 17070.9104105,-4046458.87654 17085.8266163,-4046440.39071 17103.9396183,-4046417.69434 17127.1844098,-4046379.18682 17128.0236349,-4046366.16685 17127.8361096,-4046352.71978 17124.2577595,-4046333.52627 17122.0512427,-4046319.7211 17164.2893939,-4046242.5034 17175.4977483,-4046217.29623 17179.8508851,-4046201.04074 17191.4648912,-4046167.33049 17195.8590643,-4046148.08102 17227.4698864,-4046050.66477 17244.4359163,-4045997.14001 17253.306431,-4045952.65318 17256.4650441,-4045912.05327 17260.977708,-4045905.25864 17266.3100954,-4045895.9144 17286.9644789,-4045859.58146 17291.8977248,-4045855.2502 17305.8236274,-4045854.78022 17312.7609638,-4045839.84065 17319.7411648,-4045839.85372 17327.7266794,-4045832.81758 17337.2695637,-4045826.67018 17345.0004799,-4045823.1414 17350.7058714,-4045822.74461 17342.5049824,-4045812.3475 17345.0331657,-4045805.69091 17342.2896107,-4045794.91426 17337.693047,-4045789.7502 17337.6026153,-4045781.28164 17338.5323906,-4045776.73029 17329.5873266,-4045766.38493 17309.4301518,-4045745.35333 17298.6992858,-4045723.66617 17292.4138889,-4045712.13878 17314.0898056,-4045622.39318 17308.1774001,-4045619.81322 17300.9622359,-4045612.83718 17297.5024841,-4045606.09849 17286.9459271,-4045604.83854 17279.9032704,-4045600.34309 17275.2722181,-4045594.6829 17249.7892045,-4045579.50533 17233.7718167,-4045542.73161 17228.1336828,-4045526.17397 17228.3520696,-4045504.22385 17228.6525788,-4045476.28577 17228.7626374,-4045474.28403 17228.3879779,-4045447.38994 17231.8180665,-4045432.19578 17228.1824395,-4045387.08318 17227.6583797,-4045383.13146 17226.6299493,-4045364.75769 17248.6038747,-4045361.73409 17257.8625745,-4045337.16126 17265.5359856,-4045307.71346 17266.216072,-4045285.23274 17263.8767157,-4045248.00636 17260.1870108,-4045212.86797 17258.8760723,-4045194.01534 17258.6263794,-4045176.08596 17262.5937263,-4045157.86335 17262.4196154,-4045137.43612 17258.2502308,-4045131.24527 17253.1641753,-4045122.62556 17251.4195602,-4045108.28977 17248.8404308,-4045085.53716 17241.2179365,-4045069.11749 17234.5531927,-4045052.13269 17235.9512294,-4045043.56063 17234.7783308,-4045026.69248 17234.1918832,-4045018.25841 17234.0868128,-4044998.82341 17240.1898575,-4044975.46711 17239.9747251,-4044958.03385 17244.7963961,-4044937.75777 17248.6882334,-4044922.03303 17248.494434,-4044912.0761 17239.5840078,-4044902.22672 17227.854604,-4044884.0985 17221.1209202,-4044866.12144 17216.9302502,-4044852.45424 17219.9120445,-4044830.81053 17211.6357315,-4044822.91114 17206.576097,-4044800.33098 17201.1304299,-4044775.78359 17201.0122416,-4044763.32879 17200.4867181,-4044741.43042 17209.7324686,-4044723.83788 17201.3365052,-4044685.53704 17189.5726675,-4044666.91265 17179.4351764,-4044650.16926 17171.8061899,-4044637.23962 17167.8357424,-4044619.56892 17168.963041,-4044585.59114 17169.6008454,-4044548.15775 17162.8459861,-4044522.70431 17156.0925688,-4044515.19751 17155.2449065,-4044513.76088 17154.1491829,-4044512.3415 17150.0833357,-4044507.63897 17133.5931532,-4044496.32242 17121.8440153,-4044488.66441 17122.7100971,-4044461.68407 17122.7512044,-4044458.69009 17123.0058809,-4044455.18274 17123.1570808,-4044450.18701 17124.7248494,-4044408.20227 17110.4937097,-4044382.77005 17093.5882559,-4044347.55332 17092.1939786,-4044316.74195 17091.8145757,-4044311.2846 17087.822978,-4044286.13753 17081.0682223,-4044260.68403 17064.1123971,-4044196.05802 17026.8049592,-4044175.71963 17017.7434043,-4044170.86585 17011.5816515,-4044150.3563 17009.8717516,-4044136.51657 17008.3754271,-4044122.16347 17007.7824692,-4044117.21948 17005.9757442,-4044098.40126 17012.8856807,-4044079.47561 17018.8657149,-4044065.1013 17021.7522658,-4044056.42577 17032.0104016,-4044028.29399 17031.9202152,-4044019.8254 17027.5493615,-4043989.22093 17031.0541688,-4043953.58229 17035.7993053,-4043917.85744 17037.5955602,-4043886.32575 17041.3019436,-4043875.10064 17076.5459472,-4043751.01167 17077.5103626,-4043746.95647 17088.3536939,-4043709.31221 17092.4939145,-4043693.57029 17094.1335458,-4043688.47112 17052.4622993,-4043634.03786 17056.5202452,-4043624.28391 17063.0576422,-4043596.41087 17067.5215907,-4043578.15384 17069.2713532,-4043571.05293 17069.3325022,-4043557.58863 17064.7083004,-4043548.43817 17059.4845215,-4043537.83382 17066.9185592,-4043522.86 17066.9318963,-4043515.87979 17069.7083972,-4043509.20603 17078.886678,-4043508.56807 17084.7367029,-4043506.66588 17092.1362599,-4043491.19595 17092.5289296,-4043489.6731 17099.7071137,-4043460.25999 17103.0275707,-4043447.06768 17105.0254084,-4043439.94954 17105.6661407,-4043438.40944 17106.340241,-4043419.41883 17103.3835258,-4043409.15542 17099.137564,-4043387.51567 17082.1915341,-4043355.29268 17067.9330332,-4043325.874 17053.1094547,-4043295.49754 17049.5465048,-4043287.27034 17034.2679847,-4043253.93436 17024.0140542,-4043242.68256 17023.6280624,-4043240.71531 17020.9884012,-4043231.42689 17008.4329511,-4043219.33801 17002.2447748,-4043212.78882 16997.2001487,-4043201.17494 16994.0298867,-4043191.42488 16988.0063928,-4043172.89974 16982.279862,-4043165.81994 16972.1360755,-4043152.56638 16958.6161753,-4043144.53267 16954.5982896,-4043133.34594 16945.3366188,-4043122.02515 16936.7779618,-4043113.64661 16923.3059268,-4043099.12879 16920.666284,-4043089.84035 16917.502731,-4043076.60015 16916.2058412,-4043050.76719 16912.1534898,-4043039.08432 16910.1546006,-4043028.25578 16909.4860722,-4043025.80964 16908.5416983,-4043019.3945 16899.9600013,-4042967.64621 16887.9629674,-4042960.00514 16877.1372842,-4042951.28561 16868.2549186,-4042945.42215 16849.6770377,-4042932.75469 16841.3798651,-4042917.37864 16838.7680234,-4042912.07642 16833.3307581,-4042901.98535 16828.6099076,-4042887.85631 16819.5963295,-4042876.51822 16810.3413963,-4042861.70724 16788.6344915,-4042836.29563 16763.9239977,-4042825.05136 16741.3426266,-4042812.16355 16726.8649535,-4042804.69482 16719.3330454,-4042796.74338 16699.2945431,-4042788.16553 16689.1785656,-4042778.8981 16663.4135471,-4042763.24036 16661.4769454,-4042756.89415 16654.7237049,-4042749.38711 16645.7723726,-4042742.53134 16637.5374666,-4042731.6376 16629.5851033,-4042721.22274 16622.8385802,-4042710.22556 16615.7127995,-4042693.77098 16615.6774316,-4042675.32808 16613.3750196,-4042656.54421 16603.3280054,-4042648.269 16599.2967525,-4042644.06244 16593.2120356,-4042639.00153 16591.6546986,-4042638.11271 16590.2764701,-4042636.2144 16580.9803672,-4042624.39733 16570.0100527,-4042617.18332 16558.7428858,-4042598.5239 16548.7993032,-4042591.73705 16537.0570423,-4042580.58849 16529.8900871,-4042567.12787 16524.0189573,-4042561.55359 16514.5025478,-4042553.74 16501.2096767,-4042538.21246 16491.6243135,-4042529.40661 16482.5006017,-4042520.07015 16469.8350395,-4042509.98277 16453.889147,-4042492.14695 16449.8234199,-4042487.44424 16442.7531756,-4042478.96212 16433.9532125,-4042467.11053 16426.9241768,-4042455.6344 16421.8384493,-4042447.01437 16417.3522794,-4042439.84825 16406.2095808,-4042430.15354 16401.0683708,-4042413.56097 16389.1806792,-4042385.97114 16388.0774626,-4042370.09501 16387.8496079,-4042359.64183 16387.9110322,-4042346.1774 16385.5322488,-4042311.9445 16389.272664,-4042283.26869 16384.9169035,-4042263.63038 16382.3650452,-4042208.97001 16387.6073896,-4042173.21051 16389.8737094,-4042155.60468 16388.8949489,-4042148.69335 16387.7850441,-4042136.30736 16387.6194262,-4042130.33658 16387.9357159,-4042113.36477 16387.9282476,-4042098.90809 16380.2510421,-4042074.51532 16371.9540352,-4042059.13905 16365.7997043,-4042035.13898 16432.0897472,-4042074.40302 16497.9330446,-4042143.1109 16673.1500198,-4042325.85805 16693.3061468,-4042346.89092 16711.5879315,-4042366.05994 16779.0920512,-4042437.1444 16806.9936252,-4042465.6153 16894.9616487,-4042508.35735 16927.4586605,-4042524.04581 16975.7080312,-4042547.61294 16988.3457477,-4042553.714 17062.0580758,-4042620.87685 17094.8451785,-4042651.50062 17104.9610725,-4042660.768 17119.6043125,-4042674.20743 17156.3536817,-4042708.04541 17179.0248899,-4042729.40173 17214.9611175,-4042762.29912 17231.9748206,-4042777.56783 17285.9859502,-4042826.65713 17323.3003953,-4042861.4527 17354.4602521,-4042872.2486 17370.1646866,-4042886.61121 17415.403647,-4042927.83517 17442.6433701,-4042950.36935 17487.0414019,-4042986.66651 17489.6944037,-4042988.9747 17491.5342647,-4042990.34238 17494.1872664,-4042992.65058 17496.0960883,-4042995.0105 17498.7146096,-4042996.82257 17501.0850709,-4042998.65189 17503.7035921,-4043000.46397 17505.8259934,-4043002.31053 17507.6658543,-4043003.6782 17509.7882556,-4043005.52476 17538.4061915,-4043029.95715 17574.3835667,-4043059.86021 17575.6928267,-4043060.76625 17577.3191084,-4043062.64728 17604.6900504,-4043090.65589 17757.2080593,-4043248.05494 17778.425389,-4043270.01041 17893.3531733,-4043388.64476 17898.9762017,-4043394.23608 17925.6296807,-4043408.3359 17959.2221074,-4043425.44298 17979.3982479,-4043436.00489 18047.3272224,-4043470.16725 18108.3528463,-4043519.76472 18134.0007133,-4043540.91349 18148.0098736,-4043552.40251 18285.7654692,-4043665.95922 18312.4400327,-4043687.53501 18414.7488696,-4043771.65054 18440.3622219,-4043792.30298 18517.0231818,-4043855.26967 18544.7589196,-4043877.76854 18571.4679444,-4043899.84025 18675.3339936,-4043984.84382 18679.3307282,-4043988.55404 18701.0162974,-4044006.4883 18774.1765616,-4044065.70976 18784.2234449,-4044073.98443 18801.9122724,-4044088.20843 18831.5568092,-4044113.06692 18836.0496514,-4044116.74263 18877.5119351,-4044150.25113 18886.5321078,-4044158.09865 18931.4605176,-4044194.85567 18956.5777112,-4044215.54225 18969.2775793,-4044226.12497 19038.7925638,-4044283.10679 19050.3967412,-4044292.27013 19062.3179535,-4044302.40845 19077.9188611,-4044315.28196 19149.6251935,-4044375.10225 19187.3174804,-4044397.40691 19210.9595499,-4044411.21682 19308.1117773,-4044467.77219 19331.2232222,-4044481.12043 19641.8284482,-4044660.91939 19680.5472577,-4044683.6508 19722.3461463,-4044707.66352 19762.0916234,-4044730.82198" style="stroke-linejoin:round;stroke:#000;stroke-width:1px;fill:none" /></g></g></svg>