<svg xmlns="http://www.w3.org/2000/svg" baseProfile="full" height="83022.7649974" version="1.1" viewBox="15684.905971,4291229.660788,14467.714430,83022.764997" width="14467.7144298"><defs><style type="text/css">polyline,line,rect,path,polygon,.polygon{fill:none;stroke:#000;stroke-width:1px;stroke-linejoin:round;}</style></defs><g fill_rule="evenodd" transform="scale(1,-1)"><g class="id" id="06420"><polygon class="_06420" id="None" points="15687.0577144,-4373043.48415 16149.4088988,-4372240.16254 16791.7111641,-4370952.42406 16799.9831194,-4370934.69784 17881.8279094,-4368954.01555 18058.424982,-4368653.738 18463.0285058,-4368247.53914 18680.8428196,-4368029.51378 19275.1416958,-4367371.62318 19637.4491562,-4366605.35682 20208.5099255,-4364773.19346 20363.281538,-4364426.71235 20770.8322057,-4364035.73009 20973.2266009,-4363613.99037 21056.0798884,-4363464.14209 21281.8181214,-4363052.13853 21921.4565173,-4362357.65609 22428.6912833,-4361805.29862 22464.1131108,-4361764.07203 22795.6841613,-4360894.24991 23456.3693465,-4359159.86364 23505.2150036,-4359086.98111 23982.3998109,-4358569.41389 25390.989125,-4357257.01708 25423.6643438,-4357192.15233 25712.0201887,-4356506.32462 26808.5899385,-4353913.43715 26835.5310659,-4353720.13774 26805.9945566,-4353545.65421 25597.071899,-4350372.66431 25561.4299129,-4350128.53669 25603.5152217,-4349869.05739 26039.3050393,-4347231.5518 26238.7384376,-4346252.97018 26428.8544993,-4345081.56414 26453.6075074,-4344927.82468 26483.4835507,-4344912.04187 26451.8999031,-4344904.58095 26459.5093499,-4344648.88559 26469.3872997,-4344296.36457 26478.0541879,-4343920.55345 26471.6548442,-4343811.10416 26458.9622162,-4343561.81807 26447.802289,-4343302.42689 26472.273282,-4342856.8936 26486.7368428,-4342410.81669 26469.2941385,-4342069.35626 26464.6416972,-4341379.58559 26484.6661428,-4340440.47636 26502.3576849,-4340290.89763 26503.0218794,-4340276.89109 26462.6679819,-4339493.9007 26455.5683777,-4339140.50728 26458.1184006,-4339114.86847 26468.4609639,-4338908.71939 26454.9270806,-4338902.5322 26468.2061646,-4338900.77581 26475.1651484,-4338595.84921 26521.9416334,-4338232.87032 26525.858377,-4338200.62843 26651.9127429,-4337922.76375 26712.6534633,-4337559.95872 26693.7801164,-4337139.96007 26656.7184108,-4337001.04951 26619.4915328,-4336497.63557 26586.0053084,-4336175.62877 26491.8624522,-4335681.09089 26482.5297217,-4335598.31474 26456.9682861,-4335365.19276 26408.7947141,-4335098.35761 26406.9664188,-4335089.56717 26395.0119762,-4334989.61005 26359.8303523,-4334691.66599 26327.165263,-4334309.8238 26323.937857,-4333949.59576 26303.5534684,-4333718.47349 26200.3495444,-4330891.29452 26143.4242248,-4330347.41919 26115.5056048,-4330273.37271 26059.2880789,-4330168.63887 26029.0084623,-4330111.74649 25991.8930085,-4330014.16909 25904.6807332,-4329334.22292 25898.9924364,-4329300.40094 25855.9266412,-4329071.42368 25805.8021804,-4328751.98522 25742.6964233,-4328379.49519 25718.5142429,-4328071.04867 25722.0925105,-4327555.81089 25669.5999493,-4327011.01626 25662.1882331,-4326858.84078 25392.1258021,-4321791.17522 25367.5498845,-4321214.36732 25364.7093417,-4321210.65178 25288.5185237,-4321126.21934 25234.3357427,-4321085.02364 25070.7001435,-4320828.58264 24743.412912,-4320310.21984 24518.523726,-4320122.29866 24295.4657728,-4319827.13967 24097.1784531,-4319425.06708 23874.4665722,-4319033.26371 23552.547837,-4318729.99452 23357.5453021,-4318394.33131 23334.2258962,-4318374.12231 23298.064063,-4318339.18957 23078.8223523,-4317962.98377 24347.0392513,-4318051.50453 25172.7409631,-4318147.40124 25360.5090049,-4318179.48354 25382.737911,-4318182.86404 25385.9979827,-4318032.67224 25356.8416558,-4317892.50974 25331.2553065,-4317547.35126 25346.757072,-4317247.11697 25357.1551301,-4317030.02468 25456.9960632,-4316182.55686 25494.3467284,-4315823.49886 25502.7401254,-4315595.64271 25507.2065005,-4315495.13392 25496.1254031,-4315483.232 25506.6580195,-4315478.75333 25671.6374692,-4313747.77702 25721.5099315,-4313410.45075 25707.5702991,-4313130.42674 25537.339951,-4312792.92777 25499.5232643,-4312703.37553 25475.2321717,-4311837.74891 25465.9867807,-4311824.17954 25440.2538825,-4311503.43885 25418.5670819,-4311294.35408 25406.6369338,-4311172.984 25419.7849532,-4311116.97193 25548.1316791,-4310724.45639 25544.3434073,-4309092.56979 25560.6152452,-4308006.53232 25567.0065162,-4307645.92362 25550.5040895,-4307523.49101 25521.163998,-4307301.68373 25454.3043527,-4306924.56595 25335.2107492,-4306563.81512 25134.1582454,-4305702.38112 24918.1410657,-4305131.6514 24238.7241249,-4303975.10239 23740.3080413,-4302995.70593 23721.4041361,-4302964.12089 23346.2737906,-4302326.66097 23337.6003648,-4302308.55426 23291.2045833,-4302196.39559 23672.7184043,-4302048.99223 23719.8832597,-4302031.61212 23742.8792947,-4302021.98131 23729.0067983,-4301874.39994 23739.5369552,-4301853.9903 23759.7715556,-4299695.49998 23760.010368,-4299655.64229 24387.4035116,-4299703.25573 23690.1797459,-4298042.90168 23588.7065465,-4297895.58083 23446.7062884,-4297899.95387 23327.9540005,-4297828.44809 23292.7307908,-4297681.37738 23222.7837972,-4297615.24645 22716.430467,-4297128.00172 22547.191876,-4296953.67644 22414.0202514,-4296908.91627 22173.0233948,-4296845.39855 21984.7880405,-4296728.62468 21935.6096521,-4296597.30039 21914.8612057,-4296471.772 21912.0828347,-4296458.09012 21889.9908812,-4296318.2471 21697.2631601,-4296047.52586 21269.646289,-4295852.6312 20963.5893017,-4295600.01182 20635.1177496,-4295342.02354 20444.0384545,-4295189.6532 20440.9377515,-4295188.45031 20303.8133873,-4295144.05384 20277.3685628,-4295095.74297 20265.6828423,-4295013.67886 20257.4606114,-4295010.96475 20234.9172404,-4294791.98215 20189.6308313,-4294670.24589 20158.6380206,-4294477.95035 20138.196853,-4294456.464 20126.5019335,-4294432.66297 19996.6686923,-4294147.55799 19986.6245537,-4293934.37314 20012.4124735,-4293678.48677 20002.221228,-4293538.01955 19974.280861,-4293250.82258 19944.5567205,-4293029.52482 19963.8405188,-4292789.18857 19990.7969116,-4292641.25307 20072.2384295,-4292506.1339 20133.8182155,-4292504.34143 20193.0530154,-4292498.78517 20191.0612452,-4292461.62453 20127.7772576,-4292307.21527 20061.2740047,-4292251.20713 19968.2341282,-4292098.09421 19910.6274475,-4291935.18394 19814.5200412,-4291823.68917 19748.3700736,-4291718.34792 19614.8104825,-4291664.14557 19466.6736467,-4291629.73493 19347.7830148,-4291556.72721 19263.8026698,-4291526.75687 19211.2593994,-4291454.99624 19184.2917394,-4291347.97074 19221.8981238,-4291249.82905 19295.603504,-4291233.95389 19342.1753137,-4291257.97115 19498.4273929,-4291336.43944 19822.5016982,-4291553.0415 20089.5417033,-4291650.00002 20367.6253478,-4291747.91343 20814.4967226,-4291898.71375 21092.8103273,-4292046.89585 21294.1508033,-4292213.25084 21441.6971905,-4292262.6517 21646.56843,-4292408.25733 21942.8540925,-4292641.88877 22270.8754252,-4292985.57387 22632.7317528,-4293435.12949 22907.5535181,-4293774.33541 23264.2019444,-4294253.24883 23582.8547038,-4294661.52915 23797.8027196,-4294861.44302 23907.8676155,-4294957.17267 23986.5495508,-4295111.11778 24098.7100418,-4295462.58622 24323.1350575,-4295832.39469 24465.1486198,-4296199.48043 24510.0958185,-4296434.26619 24601.1026978,-4296565.63951 24673.5906918,-4296627.04967 24723.1492223,-4296735.92383 24759.6570972,-4296939.13542 24919.1474657,-4297264.2426 25063.0419491,-4297566.41424 25201.6340706,-4297881.03246 25205.1354137,-4297881.20155 25201.8821719,-4297888.97593 25398.6272998,-4298303.19218 25540.224463,-4298750.46937 25741.5344244,-4299366.90475 25886.4630656,-4299844.23711 25952.6074889,-4300166.64879 26031.8683606,-4300506.74825 26088.4692318,-4300759.35114 26108.7710222,-4300911.798 26168.4021229,-4301186.02394 26230.421966,-4301316.12655 26306.2202257,-4301592.81535 26468.1207469,-4302372.27264 26498.0497681,-4302515.84662 26562.6970321,-4302827.4398 26593.8000999,-4302972.8947 26700.9831659,-4303482.64157 26844.9050077,-4304128.84633 26964.0580164,-4304903.35113 27015.7397974,-4305283.37884 27146.7480798,-4306665.21976 27445.3810382,-4310625.43664 27485.0271132,-4311416.38448 27490.0555167,-4311416.90665 27538.7557637,-4311844.01697 27594.2097629,-4312358.62293 27603.515916,-4312732.18369 27667.0389301,-4313200.22019 27735.9597644,-4313751.89646 27799.3345,-4314334.46831 27808.5902256,-4314849.94274 27831.151755,-4315316.36262 27841.4101079,-4315726.18356 27842.6345477,-4315823.66148 27845.6423086,-4315823.8758 27876.3087652,-4316201.8972 27895.1920988,-4316491.90106 27884.1938403,-4316824.05939 27894.4204555,-4317127.82619 27909.5643612,-4317531.21283 27915.4570964,-4317693.97732 27930.2146223,-4318193.5011 27946.7726521,-4318495.67558 27952.7882097,-4318496.10389 28012.0470699,-4319013.33832 28042.3387321,-4319418.78216 28059.0227852,-4319912.15019 28063.6324689,-4320156.19909 28059.7022768,-4320357.23625 28067.6705193,-4320494.41113 28067.3167371,-4320495.93832 28072.8387829,-4320496.41296 28080.1456238,-4321117.14222 28126.0929979,-4322173.40177 28140.0111528,-4323138.08064 28173.3180302,-4324402.68076 28241.0881654,-4325984.20344 28265.2750364,-4326824.93047 28266.8955775,-4326826.27112 28277.5997896,-4327208.17615 28319.1157883,-4327894.897 28321.6767628,-4327895.65076 28398.0749438,-4328619.40723 28442.7197377,-4329012.54418 28470.5307796,-4329601.47118 28478.0737521,-4329602.25161 28477.9069619,-4329605.753 28496.6567604,-4329935.61051 28520.3505882,-4330365.08747 28598.077297,-4330902.48662 28638.6731699,-4331336.83794 28712.4326636,-4331769.04711 28760.1778498,-4332168.3633 28792.5894944,-4332474.02271 28826.2554311,-4332608.76773 28822.3811933,-4332762.50191 28836.4245097,-4332979.27346 28858.1234475,-4333166.43951 28867.8623096,-4333721.72508 28874.2280273,-4333767.92959 28877.0371445,-4333787.08364 28933.9864303,-4334062.53507 28951.537146,-4334363.62601 28995.5711585,-4334713.00032 29016.6705532,-4334977.90307 29027.9420418,-4335254.69141 29039.4059934,-4335570.3018 29079.9595986,-4335851.28856 29080.1264259,-4336026.55126 29079.1795474,-4336084.90116 29092.9276871,-4336219.53953 29116.308176,-4336681.91324 29131.6408983,-4337127.62144 29150.3534782,-4337398.72651 29189.4882328,-4337575.27758 29222.9509297,-4337770.79013 29233.3340552,-4338022.26834 29240.9752514,-4338260.56177 29212.0466024,-4338559.58557 29213.9013172,-4338563.39345 29278.6601174,-4338679.25522 29315.7771161,-4338808.19337 29320.2237055,-4338949.68878 29346.4504877,-4339152.85811 29338.4312725,-4339320.43283 29331.748153,-4339496.84427 29342.6453012,-4339669.59766 29335.3275563,-4339902.33853 29344.8568535,-4340197.221 29361.9779098,-4340493.3758 29363.1162869,-4340578.91642 29318.3696398,-4340695.19912 29318.2972322,-4340699.6876 29318.1072417,-4340871.00304 29357.3097053,-4341084.89362 29378.0053756,-4341502.70996 29346.6848149,-4341897.07592 29319.1811912,-4342095.38253 29276.0687645,-4342307.61892 29249.2972958,-4342440.12597 29240.1544155,-4342443.48294 29261.1209967,-4342675.03847 29284.685752,-4342813.22863 29280.2645646,-4342945.11005 29254.2027459,-4343132.32641 29251.1967092,-4343315.86206 29260.2555924,-4343668.557 29231.251183,-4344008.43085 29239.8461739,-4344025.54212 29236.9913537,-4344189.64357 29191.8704618,-4344391.1193 29225.9270391,-4344854.9804 29204.8439176,-4345073.59692 29193.7606114,-4345187.68743 29190.6537895,-4345343.84632 29196.2698954,-4345345.3052 29177.4399929,-4345870.95571 29118.3220172,-4346365.57422 29085.228224,-4346845.77295 29082.4894504,-4347126.39172 29087.0304869,-4347431.21834 29076.3239724,-4347727.53364 29088.4868482,-4348018.19192 29097.3366002,-4348578.07204 29091.08277,-4349041.78434 29067.7134267,-4349456.3297 29032.4663496,-4349730.08042 29056.0026326,-4350177.02213 29041.2356237,-4350629.59555 29045.4658595,-4351171.99367 29156.5829321,-4351717.68034 29243.6956551,-4351979.30753 29290.3320866,-4352417.58113 29427.3401964,-4352947.35835 29565.9945776,-4353504.86427 29668.2234253,-4353946.31619 29798.3872261,-4354466.7797 29891.8081279,-4355119.2155 29914.0993333,-4355589.18303 29943.1511584,-4356172.04838 29953.3189035,-4356477.83957 29923.6244972,-4356610.63878 29875.9299596,-4356732.20316 29717.0017174,-4357171.11201 29425.7128143,-4357694.82878 29159.1769374,-4358169.88312 28865.9679671,-4358673.37805 28560.4506704,-4359099.86456 28286.9406464,-4359600.99912 27956.8177891,-4360098.56572 27612.5939763,-4360678.16111 27316.0618048,-4361052.52108 27051.0937992,-4361418.40157 26709.1325096,-4361885.74658 26370.9800811,-4362372.15904 26051.5130908,-4362808.98704 25755.4596397,-4363366.10905 25406.0081026,-4363864.57635 25061.9440105,-4364435.2535 24914.4704862,-4364649.02559 24797.0784728,-4364802.15794 24466.6210881,-4365269.94899 24138.9106693,-4365677.71722 23864.2196795,-4366004.23296 23701.3837075,-4366307.63834 23396.0064951,-4366740.68551 23076.4093702,-4367165.63064 22722.9018159,-4367647.60778 22333.3156384,-4368132.53449 22026.2136248,-4368458.68114 21721.5969913,-4368920.575 21480.0169225,-4369333.12802 21246.2270962,-4369801.22809 20853.3340542,-4370449.88306 20502.8056532,-4371114.43193 20202.9686569,-4371558.46946 19962.7695524,-4372006.28597 19735.5382621,-4372522.10913 19474.5379054,-4372955.48316 19177.7934709,-4373426.64532 18830.9625621,-4373921.0262 18606.9838908,-4374220.3699 18506.9984518,-4374180.1014 16033.1765726,-4373183.31391 15687.0577144,-4373043.48415" style="stroke-linejoin:round;stroke:#000;stroke-width:1px;fill:none" /></g></g></svg>