<svg xmlns="http://www.w3.org/2000/svg" baseProfile="full" height="78398.7657112" version="1.1" viewBox="26795.393723,4209346.900325,92030.051314,78398.765711" width="92030.0513141"><defs><style type="text/css">polyline,line,rect,path,polygon,.polygon{fill:none;stroke:#000;stroke-width:1px;stroke-linejoin:round;}</style></defs><g fill_rule="evenodd" transform="scale(1,-1)"><g class="id" id="06455"><polygon class="_06455" id="None" points="73900.4810414,-4218013.53887 73896.4801947,-4217980.87719 73913.4977972,-4217917.00847 73948.0057997,-4217870.01486 73990.8665634,-4217821.01242 74116.3209339,-4217696.13584 74182.4171275,-4217574.90582 74249.8864385,-4217476.02848 74303.0082059,-4217411.43843 74324.4357135,-4217346.30223 74307.4580312,-4217228.18098 74307.4038647,-4217105.53011 74313.0070212,-4217091.22534 74319.3943717,-4217069.39349 74378.8478782,-4217034.82921 74421.3859789,-4216939.97689 74426.4354163,-4216892.30042 74434.373399,-4216814.53097 74440.5343374,-4216801.18918 74471.3825333,-4216723.00999 74471.3734164,-4216674.14846 74400.0541654,-4216572.32791 74390.0232976,-4216461.7576 74368.084449,-4216368.37208 74307.9548377,-4216253.89771 74261.4764921,-4216146.56241 74204.4758484,-4215953.11764 74187.5617842,-4215807.56939 74132.0035573,-4215714.75176 74127.4992814,-4215576.41895 74153.4425663,-4215527.95828 74252.9836971,-4215456.03269 74288.1034838,-4215390.55522 74275.5729749,-4215324.51295 74252.1367161,-4215239.19642 74172.6231136,-4215166.29702 74163.5689752,-4215156.88096 74139.1429547,-4215124.476 74150.1330573,-4214816.16867 74139.1677189,-4214544.11072 74169.1256699,-4214459.50535 74215.0829197,-4214391.86745 74313.4882476,-4214309.54299 74349.9944253,-4214254.45162 74346.0554044,-4214113.09313 74344.0676627,-4214003.52481 74434.2543539,-4213831.959 74526.0572173,-4213796.40979 74630.6777003,-4213790.98668 74701.6790849,-4213757.71132 74753.6492504,-4213698.6801 74739.5998913,-4213632.23272 74701.6595551,-4213582.70763 74682.5144185,-4213575.40643 74628.2162156,-4213551.81454 74584.686671,-4213476.20701 74636.1085497,-4213408.23496 74700.1877399,-4213347.46378 74841.0902421,-4213238.60169 74950.0802172,-4213239.39299 74980.2165063,-4213190.17808 74996.6075229,-4213107.90269 75045.2092901,-4213063.03936 75204.1215349,-4213003.92916 75247.5368122,-4212988.30218 75255.1945235,-4212942.46112 75263.6110033,-4212884.60748 75291.7164043,-4212846.98503 75323.0139876,-4212841.07615 75351.0524384,-4212834.86865 75515.0366074,-4212846.24683 75652.6277128,-4212890.65487 75898.6261774,-4212873.56765 76012.6378773,-4212879.03711 76059.4931676,-4212895.10837 76087.1733015,-4212903.38166 76115.4433364,-4212965.96378 76142.9365385,-4213056.5139 76160.4347394,-4213146.68006 76159.0659687,-4213258.44554 76190.627097,-4213293.40374 76263.5130151,-4213376.18251 76306.9353542,-4213380.99672 76358.5104657,-4213368.35905 76449.4801386,-4213298.95932 76599.6017289,-4213214.46307 76695.0214726,-4213107.89628 76781.8890336,-4212987.89447 76787.4147225,-4212878.86648 76801.9561087,-4212839.58419 76893.074989,-4212748.23933 76919.1075942,-4212676.84209 76978.4101745,-4212611.38097 77112.9736587,-4212586.17416 77355.9896334,-4212512.43425 77464.0811742,-4212453.952 77630.0712847,-4212416.84639 77826.528512,-4212392.82886 77967.4559541,-4212365.73663 78070.8493109,-4212316.01889 78106.3800328,-4212245.03758 78141.9108121,-4212174.05635 78258.0295307,-4212071.70803 78338.4086615,-4212032.87532 78414.9194125,-4211983.81022 78540.9967491,-4211966.60401 78596.0259529,-4211945.28042 78606.8986361,-4211911.21005 78513.9999745,-4211851.59706 78495.36856,-4211803.88102 78534.8592578,-4211744.62301 78540.4234987,-4211737.80045 78584.9817825,-4211671.75043 78565.9332841,-4211609.10322 78539.4371325,-4211571.34217 78518.8615466,-4211540.69635 78540.380214,-4211481.04512 78546.445813,-4211470.20336 78568.473114,-4211426.97343 78531.9658028,-4211376.36521 78483.6014162,-4211351.91066 78469.4245479,-4211344.30461 78446.4662755,-4211307.32355 78408.112684,-4211242.86871 78401.4342807,-4211060.80532 78399.1097708,-4210978.18691 78408.1227325,-4210942.23644 78440.9417884,-4210908.31603 78459.0592788,-4210890.75254 78494.987291,-4210826.22942 78525.0276748,-4210726.66973 78529.4253084,-4210656.10327 78508.0020567,-4210607.56104 78473.0719804,-4210615.18706 78466.9851609,-4210617.55454 78398.9453092,-4210695.01497 78339.0493534,-4210710.15469 78302.0926225,-4210672.53605 78295.1178431,-4210664.48821 78245.4579837,-4210606.7089 78208.4379393,-4210596.5149 78182.0007308,-4210588.16476 78139.676411,-4210548.38228 78080.9801777,-4210440.80205 78038.5930662,-4210322.74897 78025.604294,-4210281.66612 78006.0907255,-4210219.54512 78013.7054336,-4210185.17598 78038.140556,-4210075.48978 78109.0750418,-4209809.39586 78097.211287,-4209762.26126 78031.5902191,-4209684.02146 78037.504794,-4209617.84867 79085.5602417,-4210570.65031 82193.9727928,-4213740.15424 81792.1026066,-4214157.66201 84333.5939357,-4216833.25906 86190.341002,-4218809.95208 86267.2264763,-4218892.9644 86834.2268906,-4219504.67754 87438.0592119,-4220155.98966 87833.9897886,-4220583.78551 87970.8969581,-4220730.89861 88244.5852902,-4221027.12467 88089.893425,-4221186.68122 90664.0065457,-4223751.0702 90564.4871253,-4223932.1574 91440.889442,-4224865.19959 92858.4104195,-4223587.64887 98225.8907641,-4228608.41943 98783.748505,-4229091.90391 99353.8395911,-4228548.40249 99746.1939629,-4228133.48223 99759.0927581,-4228144.64941 99791.2156138,-4228172.57498 101279.425793,-4229478.89709 101617.986008,-4229772.51989 101934.281717,-4230048.57286 103630.452933,-4231522.89512 110171.819246,-4237914.79307 114484.982243,-4242265.136 112644.319234,-4244018.9076 113987.450106,-4245479.57084 115249.847339,-4246867.43548 115825.765344,-4247400.83135 116429.662954,-4247939.46054 118270.282766,-4249579.90059 118292.762434,-4249600.93023 118243.073082,-4249643.37268 112247.941022,-4254605.90753 112075.312258,-4254747.17878 110649.077691,-4255928.02212 110530.204078,-4256305.17035 109885.8974,-4256474.72542 109805.297541,-4256529.06416 109372.531115,-4256827.02669 109214.365908,-4257382.04511 108737.617931,-4257938.90416 108441.717055,-4258073.39285 108143.663393,-4257639.38085 107433.142243,-4257465.20055 107033.887129,-4257729.2029 106643.905985,-4257849.59826 106373.939568,-4258269.54655 106235.405554,-4258779.51921 106180.995922,-4259051.0274 106000.121354,-4259541.20639 105962.178977,-4259684.60571 105679.482693,-4260308.70066 105262.262891,-4260648.60318 104825.74481,-4260814.27376 104821.865503,-4260816.00994 104783.193457,-4260759.10327 104166.444643,-4260863.70395 104065.963629,-4260882.90452 104007.924521,-4260919.40459 103983.467353,-4260934.8792 103972.444654,-4260954.00485 103922.29905,-4261041.35014 103831.49733,-4261148.16711 103688.868406,-4261275.15008 103575.400066,-4261338.02114 103192.069588,-4261553.72462 103055.14634,-4261604.09842 102962.979205,-4261624.77735 102567.029509,-4261549.19768 102476.176293,-4261538.89324 102357.103335,-4261563.73592 101946.250928,-4261753.74095 101209.742805,-4262069.15084 100772.957039,-4262303.13966 100341.401814,-4262569.20445 99989.5622223,-4262754.55618 99881.5709635,-4262845.50327 99848.6983728,-4262873.9634 99751.5576162,-4262995.13966 99604.0776313,-4263132.40442 99538.1478257,-4263274.56989 99477.7422671,-4263325.17775 99394.0755188,-4263338.35314 99325.1116234,-4263279.33757 99203.1596393,-4263177.75858 99082.2964243,-4263157.85618 98979.6040881,-4263177.69672 98870.198821,-4263225.86743 98771.1614974,-4263264.42186 98670.3340899,-4263274.17776 98574.2968875,-4263340.95737 98477.2171418,-4263370.91681 98411.8041002,-4263361.02598 98330.3730661,-4263366.08729 98242.2908706,-4263400.47208 98186.2698665,-4263421.39983 97939.3057751,-4263529.9605 97629.8176435,-4263614.99325 97478.8835417,-4263676.71282 97356.033071,-4263741.17311 96838.3983884,-4264022.08101 96757.6296605,-4264081.93267 96500.2027234,-4264282.86555 96049.1977133,-4264641.38734 95460.7140689,-4265085.72532 95014.7608915,-4265453.41506 94845.8563089,-4265602.99361 94623.8059427,-4265799.74422 94220.3702913,-4266057.62502 94051.5658977,-4266180.78092 93891.48446,-4266295.91761 93843.9612119,-4266325.29313 93686.4300913,-4266421.32931 93571.956597,-4266476.30413 93350.0990193,-4266539.95211 93188.6062957,-4266596.35638 93063.2097857,-4266644.03532 93006.1656508,-4266648.58038 92913.0331865,-4266633.93479 92707.7018833,-4266638.7301 92585.7936439,-4266642.32457 92534.5952713,-4266608.62015 92448.8005259,-4266547.65604 92372.3087164,-4266512.03511 92265.1428018,-4266512.21986 92067.8577352,-4266586.30429 91814.236082,-4266680.34368 91687.8709623,-4266740.54626 91615.762857,-4266779.42812 91565.7694553,-4266761.1019 91494.4300693,-4266720.17503 91454.3005236,-4266720.17846 91443.7390785,-4266750.74575 91444.3185708,-4266888.29755 91428.2329831,-4266918.21148 91381.4541171,-4266943.55398 91225.9571587,-4266964.19322 91113.7509219,-4266999.5876 91048.8725113,-4267042.50691 91022.8671083,-4267137.34592 90988.2881329,-4267471.00651 90915.8349326,-4267628.55679 90824.9554863,-4267754.352 90748.5572295,-4267816.43397 90434.9480991,-4267984.0039 90193.6081248,-4268091.24484 89993.05012,-4268196.94611 89742.0592583,-4268293.32285 89617.1455643,-4268368.894 89547.0762884,-4268436.5662 89495.6030467,-4268486.63017 89450.2424121,-4268542.79468 89389.2167132,-4268567.52992 89363.6958251,-4268598.03236 89355.6686783,-4268669.32238 89353.6160977,-4268684.40585 89321.6361439,-4268727.27488 89244.629639,-4268739.54455 89170.7637086,-4268730.18218 89027.3156393,-4268708.19961 88911.7633284,-4268709.90604 88719.3272728,-4268725.86858 88637.6949692,-4268739.92169 88620.2177144,-4268751.47835 88566.7927138,-4268786.21019 88497.2533594,-4268842.38462 88389.236496,-4268865.05915 88378.9003986,-4268867.19793 88292.8149827,-4268933.87434 88236.8308848,-4269019.61618 88180.9269199,-4269038.54958 88104.7290142,-4269039.80155 88089.7368664,-4269043.22717 88059.7525604,-4269050.07841 88044.3159156,-4269090.42332 88039.2686787,-4269161.52947 88013.7357156,-4269235.90464 87976.8275787,-4269251.66198 87937.4672617,-4269268.07047 87873.307144,-4269286.52087 87854.7694022,-4269317.08821 87850.7325562,-4269324.31896 87810.8393535,-4269360.20365 87748.4257527,-4269346.63902 87648.4046443,-4269293.53751 87586.7795446,-4269232.56246 87528.9919824,-4269213.22582 87379.0104366,-4269234.52424 87370.4432478,-4269237.05155 87379.4399213,-4269369.6021 87364.4061056,-4269412.41515 87298.3751843,-4269460.8947 87251.8532137,-4269562.5013 87232.4489274,-4269583.15209 87193.9908166,-4269590.03245 87112.53114,-4269530.79009 87079.3545453,-4269518.39707 87024.0474263,-4269506.88278 86971.9289517,-4269526.5783 86962.8833715,-4269577.49424 86941.5564251,-4269591.28514 86931.9639863,-4269597.36613 86915.9207218,-4269583.90679 86881.3819911,-4269557.63926 86800.8737633,-4269537.72241 86683.9616687,-4269501.62484 86612.9477111,-4269494.07918 86547.0523348,-4269496.68445 86516.4674108,-4269541.96151 86511.5471718,-4269603.09056 86510.4742562,-4269669.96276 86511.5434936,-4269735.20601 86476.9898764,-4269764.77669 86462.4630815,-4269767.675 86445.0183514,-4269771.75201 86420.0933314,-4269775.79603 86394.4594853,-4269760.44075 86329.0473611,-4269694.71491 86269.6193659,-4269653.04545 86216.4174685,-4269659.3478 86155.9772281,-4269689.53253 86115.5958768,-4269689.55295 86029.6279607,-4269654.022 85974.0972606,-4269662.96204 85776.1810267,-4269711.17527 85623.5875824,-4269734.63157 85537.5178769,-4269729.51852 85491.1435426,-4269737.39022 85435.5966606,-4269806.1581 85349.0977324,-4269898.29044 85293.1233222,-4269940.16311 85197.2142163,-4269933.16984 85145.0821449,-4269880.57587 85152.72077,-4269750.9738 85133.1142133,-4269712.30934 85131.2214509,-4269709.93434 85069.5499622,-4269580.15864 85034.0863174,-4269527.02558 84984.6412023,-4269525.6156 84937.7091665,-4269644.70072 84892.8116159,-4269700.34225 84814.1950866,-4269794.97588 84761.7762613,-4269769.82019 84676.8328657,-4269726.74613 84627.222373,-4269762.73873 84520.8299009,-4269839.65747 84461.2063936,-4269826.91559 84419.283816,-4269782.16107 84366.1355912,-4269697.22283 84286.24453,-4269679.26073 84079.3324799,-4269803.31785 83848.3211427,-4269972.74957 83707.4179251,-4270023.89738 83563.423405,-4270025.38067 83493.2992128,-4270044.20358 83446.3586913,-4270075.04506 83371.7757221,-4270170.42714 83199.4085899,-4270416.98064 83162.8646979,-4270454.65402 83141.3120434,-4270496.87866 83138.2951259,-4270520.49945 83065.803468,-4270693.53014 83009.3257274,-4270755.37909 82984.4123063,-4270831.71633 82996.0557773,-4270942.67262 82981.8426273,-4271054.73997 82797.9375271,-4271272.10124 82668.4644306,-4271414.77805 82571.4537254,-4271582.35769 82603.4370657,-4271663.6293 82618.9428465,-4271724.48783 82640.4890893,-4271838.31832 82620.1149969,-4271887.45061 82593.9638204,-4271951.90006 82562.9444852,-4271994.21654 82517.9943696,-4272008.98136 82463.0501804,-4272019.38268 82421.6158786,-4271998.52928 82385.9858863,-4271978.81019 82354.9644485,-4271896.97991 82320.0298125,-4271824.36769 82319.0992862,-4271821.43413 82256.4727543,-4271764.50632 82180.639647,-4271767.7321 82171.0775568,-4271774.31046 82126.6818564,-4271805.9925 82117.1618542,-4271897.32755 82096.6320448,-4271947.96568 82046.6231586,-4271957.56106 81919.0537346,-4271922.62576 81863.0238691,-4271927.61016 81761.1389951,-4271964.86631 81665.2204666,-4271973.83014 81560.7357633,-4271977.34428 81482.5993779,-4272003.64872 81402.5755664,-4272003.64546 81381.1262257,-4272003.48523 81293.5773748,-4272058.79546 81223.6056733,-4272080.10436 81187.7764329,-4272113.24795 81151.5779387,-4272132.454 81084.1725059,-4272331.10213 80984.7570724,-4272424.04788 80989.1943275,-4272431.25047 80980.2797682,-4272456.23666 80999.6106861,-4272490.43305 81067.2056853,-4272547.05216 81086.6858656,-4272607.6646 81087.3156251,-4272705.8482 81107.1733592,-4272744.49899 81148.7616084,-4272775.81337 81178.1797526,-4272815.86309 81208.7671093,-4272902.70765 81233.649941,-4272957.99751 81255.8094107,-4273117.66272 81289.738015,-4273258.14694 81345.3002376,-4273409.7484 81390.8257727,-4273612.33259 81420.6921817,-4273887.68929 81410.7321548,-4274172.00873 81341.2259887,-4274508.90046 81261.7925165,-4274662.43042 81198.3662052,-4274708.76275 81168.2730567,-4274781.93681 81134.4347353,-4274799.00302 81122.3584585,-4274805.24001 80976.2498841,-4274788.91516 80909.3814498,-4274816.01697 80873.9253716,-4274851.13355 80845.7917291,-4274903.74343 80849.9046164,-4274985.75578 80838.3385624,-4275084.20164 80825.3505123,-4275151.82308 80761.94978,-4275226.5747 80720.4312956,-4275312.42788 80696.5210966,-4275356.79736 80681.7713123,-4275384.14227 80649.819359,-4275439.48353 80599.9909032,-4275475.99486 80527.4458736,-4275480.017 80478.0528349,-4275511.51527 80416.4869295,-4275567.70503 80314.5069008,-4275611.45537 80284.3587804,-4275647.73773 80245.4526492,-4275707.50167 80244.4499929,-4275759.4189 80254.431856,-4275835.58173 80261.4077504,-4275883.5115 80252.4331292,-4275903.51635 80130.3904402,-4276001.36974 80071.5977063,-4275998.05345 80004.8848511,-4276019.66243 79980.8833211,-4276054.56487 79977.9025645,-4276058.73949 79922.0744393,-4276142.99314 79858.6517732,-4276165.39444 79789.5200198,-4276172.19617 79706.5121506,-4276180.36134 79578.9591974,-4276185.81813 79485.5792252,-4276215.57136 79346.0311529,-4276292.57849 79187.6343958,-4276403.17049 78902.7410623,-4276504.19598 78789.0889555,-4276536.70922 78775.7706395,-4276543.02412 78762.699988,-4276553.3125 78663.6918265,-4276632.78027 78624.1991892,-4276671.14228 78574.5817079,-4276739.05524 78478.1537276,-4276795.92486 78454.1552417,-4276810.88345 78422.7057599,-4276830.29544 78409.2912039,-4276855.06531 78387.1819673,-4276896.33297 78306.6768693,-4276964.67588 78254.8308002,-4276992.83872 78249.1188661,-4276993.19478 78159.6526927,-4276997.77448 78117.6177884,-4277015.35339 78115.2265668,-4277020.98728 78097.8371742,-4277053.98301 78083.6117701,-4277101.74018 78041.8529157,-4277139.74545 77981.3158629,-4277160.47234 77910.200492,-4277135.48678 77849.2085867,-4277088.92792 77810.2246804,-4277051.46817 77762.6672582,-4277048.44922 77660.8778997,-4277043.32598 77529.2860125,-4277044.04945 77422.7770269,-4277043.20933 77410.8253544,-4277043.45571 77348.1770442,-4277062.3197 77295.8973945,-4277079.54014 77245.3548411,-4277104.63035 77189.3453227,-4277150.00651 77184.8743901,-4277154.27423 76993.8162304,-4277260.92375 76483.4058207,-4277407.92589 76469.9322575,-4277411.75762 76035.4926404,-4277493.69027 75728.4644696,-4277515.82212 75725.0184692,-4277516.53558 75717.0711201,-4277517.03101 75324.3833035,-4277780.85948 75273.9619849,-4277815.91606 75215.0958947,-4277855.48833 75143.9376491,-4277885.85411 75044.4276271,-4277969.348 75041.6021784,-4277972.01738 75022.1263731,-4278043.54062 74971.5185028,-4278079.60647 74941.0026972,-4278074.02934 74870.0033205,-4278078.95456 74819.6212601,-4278058.6593 74758.5597606,-4278039.02982 74754.9898382,-4278037.75645 74753.5306559,-4278038.34607 74697.6171822,-4278053.30094 74685.0419606,-4278067.54846 74662.0028721,-4278093.91727 74616.6078354,-4278145.61507 74570.5952292,-4278175.41088 74499.1880061,-4278205.79273 74433.1863081,-4278210.9051 74335.5468982,-4278236.44009 74293.1022639,-4278279.47719 74282.1278928,-4278383.38229 74470.5194897,-4278509.76212 74513.5073096,-4278571.40757 74535.0427709,-4278636.88386 74526.005451,-4278659.88663 74509.7318663,-4278702.78799 74506.1303669,-4278705.00716 74464.5614014,-4278706.10326 74375.5895213,-4278690.70779 74372.5472555,-4278689.90019 74317.1933536,-4278697.83965 74261.5858727,-4278741.69788 74196.0950772,-4278862.965 74111.0796214,-4278966.99975 74091.698513,-4279032.03601 74042.5782763,-4279083.96726 73925.5955682,-4279123.17628 73923.1739029,-4279124.32461 73749.2529656,-4279174.06568 73735.7479129,-4279177.40115 73642.2059185,-4279200.68757 73573.216381,-4279253.85834 73547.7865814,-4279281.87309 73460.7892806,-4279346.14022 73426.6683634,-4279362.72924 73336.3509068,-4279413.73982 73211.2329614,-4279454.45432 73197.7897603,-4279458.78333 73108.870355,-4279500.23241 73086.8881833,-4279515.56587 73041.1863362,-4279538.36258 72916.2095301,-4279681.29461 72835.389305,-4279748.66819 72733.9194974,-4279848.74572 72667.8147731,-4279916.19919 72594.8802008,-4279982.08412 72530.8233321,-4280058.38614 72406.8104304,-4280188.79344 72403.4882005,-4280191.494 72297.36766,-4280240.99872 72251.3880626,-4280247.35739 72200.9107976,-4280221.58307 72193.9259951,-4280217.53072 72073.9099544,-4280160.18949 71916.8212094,-4280132.0886 71733.3048342,-4280159.9912 71593.0304169,-4280225.58934 71582.9401655,-4280227.71473 71500.4754924,-4280276.74172 71433.0339794,-4280350.76288 71378.9145341,-4280398.52074 71350.4373698,-4280461.63419 71327.3585711,-4280555.32891 71299.0621634,-4280665.30685 71262.0170713,-4280722.97087 71222.3681115,-4280746.88733 71170.5789266,-4280780.03865 71150.081841,-4280835.17452 71125.0549069,-4280865.6591 71063.9556746,-4280865.48118 70982.9222192,-4280885.49661 70952.5605783,-4280870.43554 70957.5656118,-4280814.76987 70935.990483,-4280796.66725 70855.6128006,-4280783.23011 70764.5234843,-4280773.95189 70710.6239322,-4280797.26142 70693.1128378,-4280804.33795 70602.480069,-4280870.33224 70569.9063646,-4280919.73908 70556.5537664,-4280941.51672 70506.0027284,-4281002.51747 70444.4348346,-4281022.81484 70384.080087,-4281022.59051 70327.9523195,-4280982.20772 70311.1261483,-4280972.28632 70267.135915,-4280946.6055 70190.4515742,-4280936.42866 70181.5100313,-4280936.98645 70176.0448154,-4280945.30635 70102.5475212,-4281026.19024 70048.64146,-4281101.36394 70029.0424272,-4281174.89621 69992.9917776,-4281220.53103 69927.042901,-4281266.53507 69870.0975511,-4281312.97488 69851.090627,-4281368.01902 69820.5556992,-4281510.0556 69758.1404381,-4281608.70068 69702.0289608,-4281696.48016 69688.6763911,-4281718.25825 69640.1382051,-4281827.50779 69627.0319466,-4281869.21819 69574.6781582,-4281949.28327 69511.24486,-4281987.65099 69429.7724108,-4282032.62998 69347.0837029,-4282130.04776 69328.2970189,-4282160.64293 69255.1131542,-4282214.58022 69235.1791624,-4282230.78492 69184.1344577,-4282259.90221 69064.6559426,-4282343.1594 68931.7914284,-4282471.63619 68922.1347866,-4282480.71664 68865.2194514,-4282535.63415 68778.3406303,-4282617.85521 68744.3690277,-4282676.82682 68742.6856298,-4282749.74187 68735.2530416,-4282882.36089 68647.2565048,-4282966.64716 68638.3453821,-4282971.69159 68564.3833135,-4283045.12818 68483.8998543,-4283133.93298 68406.399069,-4283198.61415 68332.2178404,-4283292.51172 68227.3586919,-4283418.24647 68137.7483295,-4283492.66072 68121.7887185,-4283504.62836 67975.982258,-4283569.58412 67889.4462897,-4283633.33409 67805.8614824,-4283676.45302 67718.8902845,-4283745.21751 67689.4237709,-4283768.50123 67619.7800471,-4283803.26959 67618.3207374,-4283803.85939 67583.9487951,-4283824.45712 67554.5135634,-4283844.24801 67452.3595348,-4283913.46197 67275.936273,-4284003.27095 67256.5291761,-4284027.92183 67207.4398729,-4284052.43073 67136.5203575,-4284118.69809 67100.996028,-4284184.7509 67100.0328906,-4284193.28914 66999.0595053,-4284245.47406 66872.469714,-4284314.71842 66859.08741,-4284320.04226 66783.5743826,-4284360.66379 66759.4179771,-4284369.15382 66746.0046399,-4284373.9809 66644.098401,-4284439.19117 66584.9467938,-4284494.25173 66537.0342144,-4284557.58766 66461.4907318,-4284585.74355 66431.0920458,-4284614.07341 66300.4961261,-4284683.0703 66288.5420427,-4284687.30764 66222.4687549,-4284707.39171 66157.0774616,-4284742.39484 66146.45836,-4284748.04501 66085.5369901,-4284798.72822 66025.1123771,-4284849.3805 65952.9538882,-4284859.87024 65931.0338129,-4284852.26177 65893.0927806,-4284839.66886 65841.675927,-4284834.89939 65806.6171844,-4284900.42604 65788.4805175,-4284961.40519 65766.0581426,-4285037.61368 65725.1936803,-4285098.01706 65663.9644596,-4285103.83488 65603.604943,-4285103.6137 65595.1597929,-4285100.15118 65557.7130147,-4285123.43567 65522.561798,-4285179.49276 65517.0936382,-4285235.69147 65532.5834815,-4285296.0676 65526.1521424,-4285364.79462 65523.1396715,-4285376.45341 65443.0348874,-4285339.56212 65307.6617241,-4285312.10633 65102.5801248,-4285322.41768 65000.1765984,-4285363.72268 64990.0219044,-4285388.7945 64969.1250859,-4285397.58023 64951.581979,-4285400.1718 64943.7874176,-4285419.11151 64928.6645571,-4285448.48341 64955.7064121,-4285486.19462 64961.6984817,-4285494.29888 64974.143981,-4285585.78689 64936.1650656,-4285680.42355 64928.1226278,-4285691.3991 64897.7849484,-4285732.69325 64887.8108476,-4285864.48241 64870.6064242,-4285920.41723 64837.1641897,-4285955.92063 64821.5749196,-4286001.78002 64817.6607605,-4286038.93063 64812.2556312,-4286088.14393 64759.6870285,-4286120.85203 64715.096373,-4286189.46947 64690.1307303,-4286224.94245 64663.7967078,-4286306.38442 64635.1662441,-4286363.03319 64600.6678831,-4286409.57506 64563.2201403,-4286448.82017 64552.8490967,-4286458.44511 64502.143499,-4286489.04232 64416.1648682,-4286529.82233 64369.867609,-4286575.10641 64314.8160553,-4286580.0409 64248.7102339,-4286595.64054 64182.6653569,-4286636.17327 64095.8482449,-4286671.51984 64049.8317892,-4286681.37621 64025.239975,-4286686.90205 63964.1939486,-4286727.6215 63909.2024241,-4286773.449 63872.9347105,-4286803.64365 63802.355597,-4286859.42219 63741.3411134,-4286884.67896 63674.9244452,-4286895.31093 63552.8974671,-4286889.96532 63451.8291861,-4286884.80683 63365.4166985,-4286874.74296 63279.3445996,-4286890.09377 63259.9374498,-4286906.767 63223.3279067,-4286935.48707 63157.9020743,-4287001.9167 63126.8807247,-4287052.23265 63076.3290293,-4287093.29485 63015.4074712,-4287108.07251 62954.3001344,-4287107.89936 62848.8829624,-4287124.95752 62789.4207502,-4287135.15532 62773.3675062,-4287137.65427 62693.4109268,-4287171.07716 62680.8041532,-4287176.85209 62624.2941065,-4287122.52681 52465.3192688,-4277450.44469 52434.8292884,-4277421.41793 46574.3897328,-4271720.99376 46675.4499289,-4271613.44149 46678.9272158,-4271617.21595 49915.1055323,-4268292.2935 56149.7460465,-4261884.58188 56209.0816225,-4261824.03928 56241.6696699,-4261790.59416 56239.0620491,-4261788.76097 51293.8002174,-4257156.13326 47005.6122218,-4253116.64562 39844.7264604,-4246370.44001 39832.3102105,-4246359.23492 43544.0363432,-4242525.60815 43528.1456427,-4242510.62707 38142.4029914,-4237317.82685 29188.6136765,-4228649.02761 29179.276348,-4228635.13358 27185.3996835,-4226679.80696 27014.1842398,-4226536.66988 26980.8159731,-4226509.28579 27040.8876277,-4226484.13419 27083.7380494,-4226471.01922 27143.7139172,-4226415.93699 27306.8411717,-4226374.96337 27424.3150637,-4226289.40008 27432.3175389,-4226172.15546 27587.2696289,-4226038.88283 27700.6865908,-4226004.96077 27839.8621852,-4226093.68924 27873.3219312,-4226317.15003 28086.2141305,-4226274.11221 28198.3154329,-4226413.40153 28288.268354,-4226683.2777 28416.6391392,-4226831.54334 28573.2401012,-4226757.54238 28753.1310795,-4226855.23767 28888.1670823,-4226787.55354 28956.7125262,-4226636.64915 29173.1653023,-4226667.732 29248.2131553,-4226833.24764 29211.6407097,-4227041.55622 29278.3405368,-4227298.39029 29184.2424653,-4227702.82707 29286.6405966,-4227822.25336 29428.3065233,-4227837.97945 29631.6315493,-4227821.96963 29638.2660099,-4228002.67146 29837.2254727,-4228171.03328 29923.1752097,-4228408.21888 30118.1456406,-4228422.6572 30252.810973,-4228482.71799 30321.7544232,-4228601.70668 30336.7952054,-4228797.35581 30484.1717517,-4228918.00025 30546.5994563,-4229097.25991 30898.2315945,-4229233.26408 31138.2436545,-4229278.3533 31320.1242422,-4229303.07422 31558.0716174,-4229533.387 31696.718124,-4229722.91649 31798.2124496,-4229742.60881 31918.0664975,-4229622.97178 32038.2025433,-4229637.52473 32128.1744131,-4229757.7087 32353.1914392,-4229652.54933 32488.144243,-4229563.41457 32608.0425091,-4229428.3101 32773.0835277,-4229487.49355 32967.710164,-4229427.61212 33336.1403418,-4229216.8358 33523.1165707,-4229097.55864 33778.0249693,-4229113.29126 34145.1695202,-4229047.7764 34318.0512518,-4228918.39316 34384.0709899,-4228767.15404 34513.0679546,-4228767.69179 34588.0090138,-4228947.66712 34722.9907309,-4228992.73617 35017.6559881,-4228937.1735 35202.6665732,-4228992.63133 35308.1228826,-4229157.75431 35518.0166017,-4229277.03287 35773.072084,-4229157.55715 36013.0464016,-4229157.74492 35998.0245339,-4228873.3094 36267.6305049,-4228872.6711 36498.0675156,-4228940.79561 36732.9913672,-4228992.67925 36970.031445,-4229107.29043 37122.8770315,-4229142.77624 37242.9195241,-4228977.73944 37633.0210621,-4228888.36397 37917.5636836,-4228952.15701 38082.3355105,-4228918.06432 38248.052066,-4228903.36937 38382.9120468,-4228768.35268 38517.8654181,-4228768.52294 38622.8340457,-4228917.70436 38787.8555391,-4228948.44868 39042.9447026,-4228813.51193 39222.9228459,-4228722.61125 39385.5078642,-4228665.20781 39567.8858812,-4228665.94972 39702.9261689,-4228602.75995 39702.8636226,-4228468.0728 39612.8481613,-4228407.76661 39548.9888431,-4228241.5887 39717.9111478,-4228048.1078 39957.8251611,-4227897.64813 40160.9723491,-4227940.01444 40317.9472466,-4227868.49219 40395.9470059,-4227689.09236 40467.9880551,-4227538.49423 40662.2648285,-4227432.7505 40767.8973482,-4227463.16228 40875.8622941,-4227357.24527 41352.7929749,-4227357.8157 41427.8060455,-4227117.74421 41577.8616123,-4226937.90348 41692.8564073,-4226853.0059 41879.850028,-4226859.95278 42154.9500795,-4226640.99037 42177.864352,-4226352.74894 42222.8375349,-4226187.85926 42147.261554,-4226037.8712 42264.3706016,-4226015.69899 42339.8162975,-4226139.25655 42447.8585024,-4226277.76807 42567.857949,-4226383.61786 42753.8013609,-4226349.22726 42897.8400855,-4226322.90304 43032.8999055,-4226397.89524 43077.8154723,-4226292.87064 43152.4412678,-4226232.90764 43134.4280665,-4226102.32528 43287.7741622,-4226052.98157 43602.8946645,-4226038.57646 43760.7998983,-4225897.16879 43730.8761543,-4225816.20536 43977.2335549,-4225543.65192 44142.8870013,-4225483.57615 44202.8679494,-4225408.55377 44217.7961162,-4225257.98882 44352.7464269,-4225152.91401 44517.7117898,-4225033.02352 44586.7836334,-4224903.07142 44742.7532177,-4224868.03548 44862.1884768,-4224972.92077 45222.8014862,-4224988.64297 45428.7182275,-4225007.39851 45552.8194093,-4225167.86223 45852.758213,-4225137.93418 46092.811544,-4225212.94899 46274.7746489,-4225142.39458 46512.6476774,-4225222.53099 46807.6663109,-4225234.30612 46947.6153981,-4225093.01358 46917.652378,-4224958.68439 46790.7861598,-4224834.3076 46707.683535,-4224703.74621 46572.7832272,-4224537.96334 46602.7705349,-4224328.11742 46782.7552214,-4224342.98269 46992.3250906,-4224177.95598 47202.6812083,-4224224.37264 47238.7696315,-4224381.26938 47367.673617,-4224388.80197 47487.714721,-4224313.08186 47562.6633022,-4224396.25928 47712.6211214,-4224373.06759 47757.6842724,-4224148.83033 47982.6664022,-4224193.84782 48222.7797245,-4224103.75918 48387.6787063,-4224043.73621 48432.6077811,-4224178.13964 48537.0516945,-4224298.90583 48462.7736634,-4224388.76843 48462.6263626,-4224507.9883 48777.5655958,-4224559.93927 48852.5074155,-4224298.45323 49227.6168384,-4224298.81973 49362.6146981,-4224073.04524 49479.5865832,-4223862.3464 49587.0631609,-4223833.78882 49743.5978375,-4223844.60997 50052.0337001,-4223713.91097 50290.5993881,-4223643.37364 50562.1871597,-4223623.17688 50695.536995,-4223524.6966 50892.649801,-4223668.18934 51093.4519334,-4223628.40553 51432.6506706,-4223503.29896 51822.5114399,-4223488.2971 51987.5217318,-4223653.21374 52077.5403056,-4223563.88442 52257.5695248,-4223518.89514 52418.9169625,-4223429.66792 52482.4941445,-4223324.01038 52631.9061321,-4223308.3368 52812.450422,-4223369.0534 53007.5624502,-4223488.22562 53111.8498394,-4223728.19636 53337.387848,-4223758.21342 53637.0445824,-4223728.30948 53773.4916515,-4223631.63741 53922.4707621,-4223548.15987 54149.8663873,-4223612.4763 54252.4024146,-4223548.31455 54335.017355,-4223500.83945 54416.8281236,-4223638.94748 54537.3514519,-4223818.56345 54732.407621,-4223863.92035 54867.4212144,-4223833.17161 54964.4402898,-4223788.80041 55061.779797,-4223923.95657 55167.3275524,-4223953.37308 55302.437611,-4224013.38901 55302.4765988,-4224164.00607 55287.3650498,-4224343.98344 55413.2882792,-4224335.73767 55495.4094498,-4224219.46671 55602.3479946,-4224478.21641 55706.6931366,-4224658.32442 55706.9122928,-4224913.16575 55962.2993478,-4224958.29743 56112.2120431,-4224898.20221 56337.2251252,-4224883.35963 56412.2508976,-4224749.0729 56591.6726908,-4224613.35069 56814.273567,-4224522.85061 56997.2643494,-4224388.40636 57108.2844651,-4224279.83579 57192.2648935,-4224388.37876 57386.7219363,-4224403.84503 57554.1219555,-4224526.70522 57615.1811113,-4224449.1375 57678.2621164,-4224367.95448 57986.3123144,-4224276.18915 58100.1690201,-4223869.21156 58257.2569141,-4223739.35714 58496.607039,-4223694.21211 58639.7947271,-4223553.24467 58954.1052033,-4223470.07585 59301.2459495,-4223563.92527 59347.1069081,-4223721.68888 59476.5961631,-4223868.822 59676.6903663,-4223923.3398 59615.048238,-4223646.85794 59752.0616864,-4223498.79192 60086.0312179,-4223500.19222 60400.6385137,-4223361.15199 60677.5209864,-4223472.28716 60724.1457075,-4223610.05255 60721.0762234,-4223795.25898 60817.6802198,-4223817.24349 60843.4764222,-4223823.1371 60946.6174621,-4223923.01501 61090.9104308,-4224010.88573 61111.5549975,-4224014.10398 61343.1200596,-4224045.23965 61451.4122171,-4224147.7917 61676.0497864,-4224054.18092 61694.5015205,-4223823.14843 61925.5064822,-4223537.15137 61962.0413614,-4223389.28642 62219.0802523,-4223340.0639 62276.5591915,-4223269.20553 62329.9553714,-4223119.80578 62460.9500762,-4223056.39463 62710.4135352,-4222879.97627 62693.5453166,-4222670.5688 62912.3797306,-4222571.83588 63339.9831446,-4222595.90588 63635.3863197,-4222521.88721 63857.529452,-4222651.34597 64106.8999042,-4222688.37064 64281.8023895,-4222771.36463 64457.3228147,-4222669.8117 64466.7975401,-4222540.07313 64332.8826654,-4222422.14454 64318.8252985,-4222290.86086 64549.8408321,-4222207.83826 64679.9145605,-4222068.68959 64818.2738176,-4221995.35488 65011.808686,-4222040.80116 65187.8382816,-4222142.17678 65224.9398527,-4222327.8922 65511.3234732,-4222354.66213 65781.2140367,-4222263.26593 66102.1850189,-4222410.57889 66213.3840674,-4222576.77496 66546.2360966,-4222576.74983 66823.208552,-4222539.77016 66915.6258638,-4222392.46919 67115.1203184,-4222340.3089 67026.8259547,-4222060.01104 67137.7918274,-4221930.51944 67322.1766622,-4222115.15104 67618.2712681,-4222170.24471 67876.6751857,-4222317.9104 68352.0993557,-4222455.22049 68547.7458436,-4222210.82213 68841.0846499,-4222160.37205 68985.6586725,-4221949.03499 69188.0256524,-4221874.76058 69225.6472238,-4221541.85212 69391.4806371,-4221246.43748 69496.7088247,-4221047.99443 69752.1545474,-4220981.43012 69822.154145,-4220806.09666 70001.585584,-4220784.59524 70334.0399625,-4220729.75311 70500.6039152,-4220600.34269 70648.6085485,-4220525.92508 70906.4606577,-4220470.18539 70961.9503588,-4220156.13344 71313.4432737,-4220119.07227 71534.9221374,-4219990.77761 71793.9552343,-4219990.81279 72145.5186341,-4219731.86589 72366.3727601,-4219694.85807 72635.9513397,-4219521.7276 73062.3808974,-4219568.31802 73186.976292,-4219372.68725 73501.4087423,-4219260.1262 73592.3527908,-4219153.82026 73756.3973088,-4219024.076 73796.3817565,-4218875.52952 73943.8543321,-4218593.73504 73884.9825848,-4218020.97274 73903.8063354,-4218039.26167 73900.4810414,-4218013.53887" style="stroke-linejoin:round;stroke:#000;stroke-width:1px;fill:none" /></g></g></svg>