<svg xmlns="http://www.w3.org/2000/svg" baseProfile="full" height="110548.122873" version="1.1" viewBox="-24872.041839,4069244.735243,104818.078684,110548.122873" width="104818.078684"><defs><style type="text/css">polyline,line,rect,path,polygon,.polygon{fill:none;stroke:#000;stroke-width:1px;stroke-linejoin:round;}</style></defs><g fill_rule="evenodd" transform="scale(1,-1)"><g class="id" id="06469"><polygon class="_06469" id="None" points="-9661.97852645,-4112790.09754 -8716.16639048,-4111850.89754 -8627.74679886,-4111763.42042 -7817.43902583,-4110933.58404 -7823.43504311,-4110927.32962 -7510.58531232,-4110612.03702 -5992.38156283,-4109083.40683 -5321.53450538,-4108407.57152 -5213.94276988,-4108299.848 -3550.45062905,-4106625.58124 -2333.23369553,-4105452.81046 -1984.71225032,-4105117.63659 -1588.75904849,-4104738.10323 1393.27676972,-4101876.70664 1406.53364323,-4101889.66433 1565.82559279,-4102044.14888 5597.44462209,-4105971.57985 8734.81435259,-4109216.74269 10861.8150607,-4107092.02676 12473.7707412,-4105527.47163 13011.338429,-4105005.9537 14206.1988996,-4103846.75557 17479.4969301,-4100629.00407 18972.3030858,-4099195.27258 19780.1493948,-4098419.27712 19815.7358482,-4098384.8902 22118.3107957,-4096192.16612 22936.4516243,-4095373.852 22941.0494839,-4095370.17224 23637.7751577,-4094732.02485 23643.3105933,-4094726.80936 23613.9222162,-4094697.51629 23249.2351588,-4094332.49366 24243.3170511,-4093392.30819 24879.7970268,-4092790.04886 25236.1227877,-4092445.19946 29777.3723536,-4088235.68692 29887.4330455,-4088133.91334 21995.7831882,-4079855.32439 21532.1409216,-4079368.31583 20812.6417668,-4078614.2771 21638.0644487,-4077686.41692 23102.8753564,-4076195.24316 25114.0394112,-4073917.25628 26125.1919768,-4072817.78012 26129.2523066,-4072813.12392 26446.0851749,-4073151.14738 28809.1252992,-4075671.29923 32401.4501497,-4079359.01552 32406.9859618,-4079353.80128 32518.6201215,-4079247.48256 34651.7078308,-4077222.49836 35457.825294,-4076414.40109 36764.7546778,-4077797.20234 38336.6957092,-4076286.51897 38820.8359322,-4075821.33864 38818.782148,-4075819.92211 39795.4121233,-4074879.75532 39798.0238712,-4074882.64781 42281.2288104,-4072495.95381 42403.1644356,-4072378.75793 43898.1510887,-4070942.20745 44112.4924675,-4070724.97447 44209.9430612,-4070626.23163 44212.3052851,-4070629.13401 44487.4514646,-4070899.85069 46173.6478288,-4072571.15305 47898.979382,-4074429.59089 50026.8476149,-4076598.02686 51488.5017197,-4078097.30966 54026.9840963,-4075703.64521 55248.9301526,-4074551.17807 55371.2675333,-4074431.9829 58167.3349815,-4071722.73456 58980.3460502,-4070934.58047 60518.1597407,-4069444.18881 60519.7144773,-4069445.62497 60565.7076662,-4069491.23176 61267.4850802,-4070185.34181 62563.4640968,-4071466.96361 65306.1969219,-4074244.28174 65550.6201828,-4074490.68913 66583.5541924,-4075528.52882 66635.5561047,-4075580.88037 68652.6062126,-4077609.00501 71837.5757257,-4080805.68306 72696.7776485,-4081667.58475 70748.7298011,-4083646.54392 70668.1028702,-4083709.15802 70705.3067057,-4083747.1152 70820.0078903,-4083863.35965 73329.2091038,-4086408.25193 74786.6386371,-4087863.25666 75019.0107572,-4088095.10726 77255.7142081,-4090328.16431 76935.0213099,-4090654.4292 74671.7619646,-4092864.7027 75416.8115728,-4093647.15645 77181.7515889,-4095400.72596 77898.5587754,-4096113.38301 78456.5459312,-4096667.64532 79698.7397419,-4097874.43464 79672.1553344,-4097902.45116 78377.5738732,-4099289.4344 77131.7230863,-4100471.84399 76425.1213374,-4101176.97415 75716.3965357,-4101885.19515 75369.5449726,-4102230.52325 74955.7592563,-4102643.42524 74872.3187302,-4102647.76077 74856.9982891,-4102632.89867 74813.0500927,-4102651.12956 74773.2584721,-4102667.19746 74748.7574392,-4102691.14004 74705.5168043,-4102733.30374 70029.8826497,-4107308.40739 69950.3687718,-4107385.97459 69777.9641862,-4107556.12238 67628.577586,-4109675.05739 67489.7646187,-4109811.41764 60654.2065254,-4116549.33538 60127.8395006,-4117068.23687 60087.010786,-4117108.31983 60075.4878578,-4117119.7664 60073.3448196,-4117122.34879 52698.5422796,-4124408.77316 52704.2664366,-4124414.53466 53170.9429429,-4124875.6 57168.1641098,-4128729.58963 63611.7678539,-4135337.40819 63602.3899447,-4135346.27392 63628.9368825,-4135373.16152 58784.7354926,-4140258.87908 58446.996425,-4140599.55492 58312.6580436,-4140734.79676 55619.57799,-4143450.45315 55242.8444024,-4143814.69717 53457.1365463,-4145539.62391 53341.7016413,-4145654.64162 51543.8333279,-4147449.53415 51011.573289,-4147980.88659 48918.005718,-4150069.96374 48435.5433657,-4150573.3623 43827.0649413,-4155143.9279 42454.2049868,-4156552.89011 42451.5639482,-4156555.49409 42427.5857419,-4156579.93714 41218.8640639,-4157788.02002 37428.5468254,-4161582.9107 36658.5253649,-4162353.7949 34322.3100122,-4164693.05012 31600.4500695,-4167418.16884 29898.2641613,-4169088.08151 26850.1160159,-4172173.33499 24947.6788903,-4174078.31341 24957.5591617,-4174087.90108 24921.3712945,-4174125.33624 24443.0168442,-4174607.82237 20402.7864503,-4178735.80362 19623.4320551,-4179468.85802 19606.4326144,-4179450.06934 19274.8699654,-4179084.94081 18087.8835143,-4177903.96078 8810.19419576,-4168670.12474 8808.03092463,-4168672.2108 8556.26154074,-4168420.16953 8470.88487656,-4168335.21543 7918.21173586,-4167783.66754 4562.90978322,-4164423.40227 3087.68573851,-4162945.55552 83.1400467946,-4159936.48302 -1378.45225029,-4158473.95272 -2434.71590543,-4157416.13005 -2680.18153588,-4157146.79649 -2736.92434397,-4157084.14675 -3655.14635439,-4156073.16828 -3679.18059291,-4156047.1629 -5527.56713168,-4154235.97376 -8191.25138521,-4151505.93307 -8610.91672624,-4151073.74728 -8841.03939113,-4150837.73941 -13670.806456,-4145869.75243 -14511.6419876,-4145004.85735 -14622.9341849,-4144890.43666 -20876.2618011,-4138370.45408 -19285.0343061,-4136785.36182 -23639.7041393,-4132428.33292 -24426.2689726,-4131650.52935 -24703.1109042,-4131376.85881 -24696.6372503,-4131370.10248 -23371.7658391,-4130016.63952 -22962.1282624,-4129598.4244 -22937.649954,-4129573.45552 -22759.3694424,-4129390.89979 -22634.8133456,-4129263.97021 -22615.6016891,-4129244.70967 -21987.9389157,-4128625.85869 -21513.1124116,-4128157.56337 -16596.2250798,-4123307.15777 -16012.389443,-4122710.61597 -15264.8671513,-4121947.62223 -15252.1492723,-4121934.62055 -17050.6116524,-4120117.74098 -17046.5318266,-4120113.58005 -16528.5413278,-4119600.13839 -13350.7857862,-4116447.83541 -12709.8027947,-4115812.08153 -10458.15396,-4113579.92483 -9661.97852645,-4112790.09754" style="stroke-linejoin:round;stroke:#000;stroke-width:1px;fill:none" /></g></g></svg>