<svg xmlns="http://www.w3.org/2000/svg" baseProfile="full" height="109429.163057" version="1.1" viewBox="-15073.000093,4466553.343733,82217.535349,109429.163057" width="82217.535349"><defs><style type="text/css">polyline,line,rect,path,polygon,.polygon{fill:none;stroke:#000;stroke-width:1px;stroke-linejoin:round;}</style></defs><g fill_rule="evenodd" transform="scale(1,-1)"><g class="id" id="06476"><polygon class="_06476" id="None" points="-9835.10934108,-4494080.18488 -9823.73432471,-4494068.84643 -5692.75173179,-4489845.29963 -4379.29685529,-4488526.19394 -3853.67171665,-4487976.58813 -3392.99581213,-4487495.75829 -3385.51434403,-4487495.69471 -2733.03304912,-4486791.33427 1965.22662214,-4481929.22043 2252.16729437,-4481630.20013 2674.8133954,-4481191.24042 3408.42642201,-4480411.05086 4716.65807214,-4479069.25384 5092.37908417,-4478683.2524 5389.35732058,-4478394.98442 7913.35984422,-4475789.40051 9506.71409406,-4474104.5629 9537.01849616,-4474072.85037 9547.26468674,-4474063.1003 11331.3790642,-4472287.20541 13386.140779,-4470164.81476 13393.6575087,-4470165.24933 15314.2359753,-4468119.90263 16169.8107295,-4467239.57705 16705.1604016,-4466680.10949 16742.3498083,-4466640.40469 16810.4515191,-4466570.44576 17559.2867871,-4467306.13954 18595.5461322,-4468325.61404 18606.6828649,-4468337.75122 19073.6348397,-4468813.64324 19086.3342619,-4468826.66097 22920.6720824,-4472735.89403 22924.194194,-4472739.62091 23187.1004792,-4472985.80491 24918.7515513,-4474603.4496 24974.8324017,-4474656.11248 25020.7065811,-4474699.06492 27617.357977,-4477091.24866 30543.9219949,-4479858.01187 30602.4951296,-4479913.96985 31018.037637,-4480306.25509 31766.799145,-4480897.96993 31864.1129913,-4480974.95853 31893.5042576,-4480997.6911 32422.7953643,-4481416.83089 34308.5185675,-4483202.98609 34383.4116254,-4483273.67226 34499.9119241,-4483383.62818 34520.6847395,-4483404.51241 35793.8655133,-4484606.14593 36507.9834489,-4485347.5049 36520.149566,-4485360.05701 36666.239935,-4485498.7042 42666.7816598,-4491240.70855 42702.3122661,-4491275.43817 42723.5063678,-4491295.28781 43390.6596644,-4491892.90037 41786.8578844,-4493563.23239 40962.8354222,-4494445.7326 40396.0903027,-4495052.51369 38293.5609971,-4497279.31721 37712.818358,-4497885.7095 35841.5433116,-4499842.37708 35851.6400224,-4499850.5938 35912.5943427,-4499904.85374 35925.3953299,-4499915.85921 36015.6007419,-4500000.83287 41334.5233878,-4504882.41218 41125.7833109,-4505083.70925 41624.0335134,-4505549.3245 41692.4316003,-4505612.98659 41732.298845,-4505648.87826 43864.95656,-4507567.5364 43873.8508128,-4507576.34035 47417.7143691,-4510792.55727 47544.8427504,-4510904.13116 47691.7805906,-4511033.65629 49824.5685829,-4512911.03567 49949.1420913,-4513021.79655 49722.4384678,-4513327.68872 49726.1720343,-4513330.89711 51884.2380838,-4515252.0996 52833.1853972,-4516147.69664 52858.020415,-4516172.74476 54150.7175428,-4517574.35599 55012.8011168,-4518205.1946 56311.8227117,-4519354.41822 56410.4269666,-4519448.17296 56695.7828848,-4519719.75612 57265.3906199,-4520261.50249 57322.4152748,-4520316.51941 57440.198123,-4520429.76048 58828.09704,-4521758.14069 58688.6296343,-4522026.50398 58746.4874678,-4522207.60801 58692.4561616,-4522376.25192 58623.8506559,-4522517.08057 58559.4454038,-4523035.55386 58460.4394334,-4523482.3564 58300.925977,-4523709.86254 58359.7511166,-4523989.12462 58204.1333007,-4524425.76456 58118.2086962,-4525041.61675 58403.7467021,-4525430.33436 58736.0240618,-4525741.70458 58722.3783318,-4525772.15927 58536.2750127,-4526072.99428 58319.0806089,-4526184.21479 58361.1448661,-4526659.71548 58348.3934075,-4527155.33258 58273.2533361,-4527226.35685 58314.8704202,-4527288.52018 58430.7645508,-4527452.25348 58395.6150397,-4527498.3028 58373.3603197,-4527839.06665 58213.800923,-4527957.3882 58214.8183213,-4528575.12778 58215.9993588,-4528728.61986 58161.9947545,-4529002.48547 58155.0895586,-4529660.22175 57975.912767,-4529914.17428 57823.6218886,-4530167.58259 57799.7626838,-4530447.63987 58111.3927628,-4530808.42871 58047.8504116,-4532177.55377 57795.2142347,-4532393.21593 57754.3300761,-4532783.77418 57925.5243033,-4533022.08584 57772.8278328,-4533191.26295 57985.1283298,-4533455.37151 58197.5718729,-4534147.8073 58287.1881434,-4534526.45168 58294.3381491,-4535184.62477 58295.361622,-4535191.52807 58296.972217,-4535202.87458 58337.317118,-4535418.71482 58577.4705115,-4535589.94268 58712.2839152,-4535710.33822 58713.9859832,-4535726.16554 58728.9712164,-4535857.66644 58718.1728584,-4536059.94133 58712.3096555,-4536179.56413 58597.1702125,-4536563.80276 58658.0846933,-4536922.18729 58923.4670768,-4537293.94115 59022.4608443,-4537811.98646 59157.7943396,-4538021.09648 59178.3602385,-4538347.1434 59055.8806532,-4538451.20479 58770.3100512,-4538702.31079 58635.8612329,-4538937.43267 58537.5459829,-4539195.23762 58235.7739127,-4540068.90954 58117.0209468,-4540280.90162 58010.6033164,-4540471.51067 57901.6641383,-4540668.29632 57938.6865427,-4540843.5005 57972.8142212,-4541134.61442 58005.8185256,-4541329.07338 57857.0529695,-4542227.52109 57888.9602633,-4542761.15598 57906.5851856,-4543051.53286 58237.6532315,-4543257.20119 58427.3758462,-4543509.03734 58580.4493226,-4543967.11717 58619.6719292,-4544868.20281 58621.3972721,-4545038.11521 58628.9614919,-4545071.94661 58641.1181869,-4545372.21258 58804.2600065,-4545477.9648 59040.8533178,-4545631.47609 59051.8313994,-4545638.11946 59631.2677301,-4546014.33282 59929.006885,-4546548.14039 60475.7403418,-4546707.92453 60635.8408447,-4546852.29728 61043.7375757,-4546855.61257 61087.6278034,-4547078.1534 61445.9007922,-4547150.07286 61662.0901362,-4547467.68234 61937.9913848,-4547737.85422 61960.6979949,-4547937.57342 62131.8881641,-4548148.90851 62232.704331,-4548274.35782 62343.0031695,-4548390.10818 62588.2581071,-4548644.16053 62515.3045234,-4548825.24375 62413.8027303,-4549102.74719 62626.2744023,-4549786.629 62807.3782356,-4550457.94129 63095.5864013,-4550699.73225 63379.1090694,-4550902.98496 63392.4709172,-4551401.59588 63410.2922966,-4551847.51049 63524.4258254,-4552095.09827 63735.2997515,-4552538.744 63779.7375103,-4552934.75698 63387.8026808,-4553535.61261 63324.9036717,-4553632.6623 63351.5350063,-4554239.46628 63355.5349826,-4554347.36546 63022.6750272,-4554748.75642 63049.0216746,-4555338.63312 62861.366181,-4555516.02107 62725.3315721,-4555644.58941 62668.9422519,-4555696.26752 62376.4376402,-4556227.72858 62489.4282519,-4556368.69274 62602.347218,-4556789.40383 63067.210816,-4556973.79404 63436.7325843,-4557577.84292 63704.5029743,-4557913.91186 63608.933885,-4558500.13943 63641.9149493,-4558778.35528 63697.3389035,-4558860.88329 63765.2892298,-4559139.91652 64271.9741109,-4559626.75437 64509.0839291,-4560191.03877 64925.5920023,-4560757.05991 64719.6490583,-4561154.76458 64846.5048486,-4561607.30178 64736.9246534,-4561794.69408 64811.748383,-4561951.52801 65117.1687849,-4562042.85475 65284.2013137,-4561925.36546 65472.3265496,-4561881.5573 65598.8957453,-4562036.92437 65498.9833121,-4562406.07657 65574.212072,-4562509.52302 65815.1810298,-4562569.87397 65893.6424459,-4562829.64294 65798.7246617,-4562938.12686 65903.9606597,-4562957.99942 66215.5296423,-4562927.68105 66351.5041679,-4562981.10299 66352.6473255,-4562983.01005 66444.8383247,-4563148.48241 66199.5347367,-4563246.53235 65832.0630667,-4563465.12538 65499.6493125,-4563737.88296 65198.1382247,-4563922.51261 64919.5874303,-4564045.54983 64634.385142,-4564254.36528 64254.9095977,-4564433.49681 63907.685827,-4564630.10813 63475.2971803,-4564903.05085 63071.2576684,-4565129.44664 62541.1410457,-4565363.4998 62186.3856206,-4565439.02199 61912.8758908,-4565559.68936 61594.2525584,-4565677.32778 61316.4928044,-4565735.98779 60953.6010554,-4565877.96048 60658.845423,-4565945.90118 60405.3829584,-4566080.99594 60096.3186344,-4566212.86736 60046.6597013,-4566228.63693 59908.9920128,-4566270.59192 59640.6313119,-4566465.1763 59355.5639155,-4566614.16402 59184.9823913,-4566760.37326 59108.7398784,-4566780.67186 59010.700265,-4566806.12996 58701.6305284,-4566986.87971 58349.4536825,-4567093.13364 58108.0834505,-4567197.38868 57801.138458,-4567239.83786 57511.295968,-4567336.33455 57214.5820368,-4567447.32186 56980.2827527,-4567549.54186 56666.3647996,-4567663.84267 56438.0558882,-4567753.13742 56154.8401083,-4567858.10702 55885.1534274,-4567934.61171 55674.6872497,-4567980.15028 55369.7858528,-4568085.28567 55060.8813999,-4568128.38697 54815.6319081,-4568273.34348 54572.0991661,-4568414.6784 54234.3715179,-4568524.32514 53933.9924074,-4568656.04998 53600.1520549,-4568764.40333 53352.1390223,-4568889.6266 53079.6345523,-4569027.1998 52787.4203998,-4569135.36074 52528.0647048,-4569239.51001 52285.8437296,-4569313.42003 52045.6320209,-4569420.09453 51776.3764969,-4569577.37351 51573.4076344,-4569629.82506 51543.0824126,-4569637.63374 51152.5608234,-4569715.91992 51139.0565574,-4569721.94173 50982.213867,-4569787.32076 50702.6833849,-4569862.59443 50494.0625036,-4569981.31763 50248.8963725,-4570055.95567 50026.4854341,-4570118.37714 49573.3104776,-4570349.10291 49133.1965616,-4570522.46871 48677.2724781,-4570743.4344 48274.3485343,-4571073.56867 47914.9762034,-4571308.09412 47619.8149308,-4571433.4549 47268.8122406,-4571607.98603 46995.5059586,-4571670.32218 46765.3191286,-4571738.83283 46468.1799199,-4571770.07403 46170.7782761,-4571902.09464 45819.502215,-4572011.30745 45499.4923128,-4572095.67926 45241.590407,-4572274.55829 44962.4776076,-4572456.56008 44767.1928837,-4572567.29435 44467.0140855,-4572773.85835 44237.7598928,-4572880.71207 43933.325547,-4573025.25141 43464.2621264,-4573185.89718 42961.6081989,-4573341.13689 42426.706942,-4573524.78877 41945.4419188,-4573692.3608 41437.206426,-4573846.53684 40901.6100763,-4574014.78349 40468.5250193,-4574085.38256 40027.3432139,-4574112.20362 39524.5988186,-4574221.06562 39185.4118263,-4574283.47284 39115.0600209,-4574296.34653 38972.0644617,-4574331.24921 38806.0244856,-4574371.40986 38343.5989712,-4574466.2091 38049.6542704,-4574520.16186 37999.8077562,-4574530.46678 37694.3021072,-4574583.3101 37645.6733449,-4574603.00049 37277.9126932,-4574754.90352 36857.0160431,-4575001.17836 36381.3478217,-4575060.07869 36052.6312942,-4575135.65636 35719.3723432,-4575278.93369 35272.7362067,-4575313.15985 34864.8810556,-4575274.06844 34389.0730356,-4575432.26259 33905.5945608,-4575649.9178 33492.4054587,-4575684.5749 33125.9153751,-4575778.51696 31294.4058668,-4574046.87648 31258.0749152,-4574012.23969 31216.6138375,-4573972.50758 29078.3810046,-4571874.07362 28922.2464705,-4571721.37574 28913.2596676,-4571724.55847 27414.10521,-4570270.11682 25857.6210113,-4568741.15695 25405.1476876,-4568298.76141 22925.9499287,-4570766.77627 22715.5552488,-4570632.18227 22710.32866,-4570629.08931 22707.9444266,-4570627.2758 22516.8843156,-4570474.73456 22522.6350286,-4570455.33284 22534.5945938,-4570415.99537 22611.4853747,-4570178.58017 22889.5674261,-4570043.53273 22959.846932,-4570019.69268 23026.7605063,-4569968.16698 23087.774046,-4569927.57152 23125.0824091,-4569860.84673 23131.2745252,-4569788.51906 23105.3979755,-4569753.57404 23058.7495856,-4569704.74971 23024.4599807,-4569667.45439 23018.9677847,-4569660.8888 22884.2904199,-4569602.83184 22785.7120392,-4569589.41653 22686.2413465,-4569518.68577 22634.2931608,-4569459.28866 22610.9308598,-4569388.72268 22630.2874328,-4569227.56558 22682.3885239,-4569148.73155 22725.355501,-4569058.12176 22723.6464961,-4568993.38419 22619.6468256,-4568896.05371 22612.5322422,-4568891.10909 22611.388276,-4568889.20065 22579.1361534,-4568862.22758 22517.0892276,-4568817.57414 22492.7106554,-4568805.46734 22459.4746276,-4568759.10888 22422.009834,-4568696.60722 22407.1197823,-4568625.89184 22423.6646185,-4568574.72742 22443.4396134,-4568510.34227 22438.4946512,-4568429.38544 22415.4638094,-4568389.23205 22298.6207185,-4568388.1895 22263.5707043,-4568389.87246 22158.4325169,-4568411.38709 22033.1420303,-4568309.69541 21711.3624057,-4568046.38821 21719.9467968,-4567962.89884 21749.5041888,-4567869.82163 21736.8267211,-4567759.51589 21655.8351202,-4567711.81871 21652.2107227,-4567710.09992 21568.5779849,-4567637.65491 21510.3334283,-4567538.31849 21562.7146294,-4567394.59462 21645.9908756,-4567367.76766 21726.5764532,-4567341.6455 21919.263593,-4567339.38521 22153.0670492,-4567336.4755 22195.7625663,-4567261.8552 22225.3206027,-4567168.77912 22227.1357012,-4567163.15146 22366.9444959,-4567092.58197 22545.9382181,-4566904.74883 22547.9050601,-4566901.10554 22549.8719021,-4566897.46226 22599.5797308,-4566842.76491 22629.5467275,-4566732.19399 22496.7285728,-4566620.09854 22411.1808077,-4566568.25841 22283.2935322,-4566520.65336 22155.5987117,-4566469.04147 22063.7508247,-4566383.75134 22052.1746411,-4566372.66072 22031.2606904,-4566337.33465 21989.4707656,-4566267.17854 21978.3594842,-4566200.16571 21942.9460231,-4566122.03716 21897.385558,-4566077.61752 21828.4505072,-4566037.47976 21707.3371154,-4566068.69453 21651.7802825,-4566102.38233 21599.9357657,-4566112.8328 21550.6596813,-4566098.13738 21494.3541267,-4566060.02776 21383.3716281,-4565969.21303 21296.1902984,-4565860.11169 21228.5975641,-4565804.90082 21190.2179575,-4565785.87909 21126.208547,-4565738.37801 21075.2391989,-4565632.99471 21070.204795,-4565547.55265 21087.0303649,-4565473.91244 21224.5991057,-4565308.70906 21250.577219,-4565207.92299 21273.5583779,-4565110.36005 21294.0023138,-4564973.07187 21262.7675388,-4564858.19636 21204.1103665,-4564753.40052 21029.4289891,-4564648.49011 20825.4681033,-4564565.27752 20823.655938,-4564564.41803 20812.8857552,-4564544.28341 20787.0881604,-4564431.98539 20796.9112561,-4564361.37557 20803.784006,-4564353.36543 20891.4930615,-4564240.87603 20898.2379825,-4564221.39886 20976.7315673,-4563994.84598 21060.8598886,-4563682.03686 20879.4156822,-4563485.32696 20828.138373,-4563281.16547 20752.5138484,-4563228.56153 20748.5863287,-4563222.87371 20687.0002253,-4563141.75246 20689.5488176,-4563083.67464 20728.2055064,-4563008.36736 20663.8626743,-4562835.64202 20575.1161848,-4562810.48656 20479.320993,-4562800.83931 20326.1399853,-4562778.11129 20204.4609927,-4562752.97647 20082.0203945,-4562724.4067 20068.7836778,-4562642.58454 20055.0197008,-4562475.4743 20117.2009775,-4562224.71948 20036.2406047,-4562053.26138 20016.4591787,-4561938.00742 20004.8563736,-4561871.03029 19942.0756353,-4561849.37881 19849.0979129,-4561850.4926 19801.6064487,-4561852.62306 19647.8329414,-4561724.14997 19710.7345333,-4561453.38013 19735.2044478,-4561296.82229 19732.9110484,-4561234.12388 19794.2969476,-4561224.44581 19899.1674655,-4561212.44476 20079.0040315,-4561198.7104 20102.531532,-4561160.48705 20132.6670194,-4561110.78122 20139.0569559,-4560975.56511 20037.3280931,-4560862.0785 20033.8003594,-4560858.35595 20019.5550299,-4560844.973 19979.3897191,-4560779.67809 19947.8557381,-4560667.31757 19940.5634035,-4560503.20649 19881.5061353,-4560409.4143 19865.2899567,-4560406.1616 19675.4968299,-4559907.18797 19678.7315104,-4559423.4156 19643.4512031,-4559392.67639 19623.2999769,-4559331.34152 19598.0424079,-4559356.72244 19474.3908992,-4559246.90234 19472.254994,-4559245.06941 19266.5872504,-4559217.85626 19257.0097564,-4559216.59141 19135.9899661,-4559108.56546 19010.5184334,-4559076.22767 18883.535626,-4559082.92702 18880.0628668,-4559083.19212 18853.8108196,-4559013.83916 18892.1495334,-4558937.55972 18928.2558162,-4558861.45079 18927.1766764,-4558814.62729 18927.5973543,-4558748.22838 18929.2341272,-4558625.84884 19028.2904317,-4558446.13392 19090.3121558,-4558363.05756 19053.2888204,-4558280.05592 18980.8989242,-4558279.593 18723.4335933,-4558178.48581 18713.2881065,-4558169.77915 18651.582195,-4558106.62467 18542.3775019,-4557993.2031 18509.6315118,-4557747.2001 18541.3437462,-4557620.03009 18614.7333884,-4557483.19286 18612.2650401,-4557244.85988 18696.7310895,-4557155.08195 18697.6137251,-4557147.03064 18676.6293631,-4556862.20728 18745.4586844,-4556727.71541 19004.0112954,-4556578.24959 19007.2778766,-4556572.01243 19066.2156566,-4556481.18974 18982.8211145,-4556382.26458 18801.8996194,-4556296.76766 18789.9036847,-4556015.25153 18789.6469538,-4555998.80427 18756.7926112,-4555875.56386 18735.9507592,-4555795.31858 18779.5700394,-4555762.05143 18997.6703036,-4555589.22913 18977.823414,-4555237.45628 18978.7231104,-4555232.89673 18673.4441849,-4554962.77335 18508.9294774,-4554912.44762 18512.0028803,-4554880.7765 18549.5195796,-4554522.13184 18421.7808732,-4554401.1369 18246.9669601,-4554228.84181 18184.9627682,-4554132.27383 18175.6385273,-4554065.62032 18168.0086081,-4554004.82556 18179.2261906,-4553978.52134 18238.7702419,-4553843.2439 18284.0228461,-4553765.94194 18270.8361398,-4553655.17249 18044.4293823,-4553627.52623 18012.9282388,-4553541.60567 18000.8032816,-4553526.56226 17968.5922987,-4553418.24086 17804.358762,-4553234.15759 17664.110472,-4553076.68774 17584.3480283,-4552639.15846 17443.6271885,-4552449.28803 17319.1228275,-4552262.67173 17267.4625955,-4552193.75549 17265.7986669,-4552171.92629 17254.8351493,-4552051.00584 17228.9656807,-4551963.65657 17215.9092256,-4551916.74769 17132.1817735,-4551702.07197 17050.1020684,-4551505.73329 16919.7027918,-4551294.11461 16881.6775378,-4551237.13228 16735.0174224,-4551139.52647 16508.9377505,-4551076.91469 16339.9723866,-4551112.24616 16291.8362898,-4551105.93431 16279.5716274,-4551046.48918 16277.8822562,-4551034.14276 16317.1198079,-4550943.32759 16342.6881473,-4550863.03529 16368.9914471,-4550795.66121 16403.8278277,-4550696.19965 16363.325797,-4550475.73165 16339.0835903,-4550357.31862 16337.4865086,-4550349.45623 16339.4544552,-4550345.81325 16358.2171189,-4550258.05583 16411.1108761,-4550176.18105 16431.6291302,-4550167.13266 16435.4516339,-4550158.35835 16657.742964,-4550050.10418 16662.3049235,-4550047.76059 16670.3090836,-4549956.33242 16682.8753323,-4549862.56072 16653.9302531,-4549836.32288 16587.7336674,-4549766.51589 16310.8760451,-4549685.8117 16205.4615868,-4549651.4272 16117.2216983,-4549433.09821 16103.6282998,-4549392.21732 16045.3862768,-4549325.29635 16004.3974018,-4549278.51822 15941.3034833,-4549167.55511 15954.44483,-4549097.69124 16005.7172637,-4549017.43776 16072.5682953,-4548925.51866 16075.7388511,-4548921.28512 16077.2068989,-4548871.77183 16079.3873138,-4548762.82277 15989.1506971,-4548691.85124 15928.5951637,-4548682.9905 15648.1754281,-4548643.96954 15636.5968437,-4548639.36236 15522.9599632,-4548628.05736 15437.6298871,-4548552.71914 15340.7008722,-4548272.67224 15287.2106989,-4548055.18582 15171.568943,-4547745.62432 15151.1504585,-4547723.22675 15031.8644835,-4547588.59545 14899.9527254,-4547520.79462 14713.2419135,-4547500.08134 14598.1769261,-4547433.99115 14560.8519593,-4547412.38162 14475.0766673,-4547370.50861 14390.7178916,-4547298.0877 14355.4416362,-4547267.33973 14255.7680968,-4547111.75094 13864.8771134,-4546663.95276 13859.8615787,-4546660.34246 13742.181856,-4546497.6392 13720.6844204,-4546464.34447 13700.8642825,-4546433.41713 13633.5686759,-4546355.70302 13610.8318464,-4546345.45745 13396.9742681,-4546289.37977 13312.3212199,-4546275.36418 13235.7197317,-4546262.23267 13226.1581697,-4546264.45762 13134.3391216,-4546287.41612 13098.9726995,-4546298.09279 13047.7406768,-4546319.95772 12978.7708406,-4546331.69543 12950.5066472,-4546337.34024 12915.910947,-4546338.4768 12837.4274027,-4546339.96021 12746.4747382,-4546328.42008 12721.2894891,-4546325.34706 12680.9450111,-4546332.90954 12601.6311262,-4546346.43276 12440.9342894,-4546287.30481 12429.0360705,-4546252.2805 12409.5401665,-4546245.28112 12364.5105385,-4546145.40995 12354.3119515,-4546132.71251 12331.5421443,-4546115.48268 12259.4212676,-4546105.50272 12186.0547534,-4546102.10492 12149.7738802,-4546038.49562 12098.3381035,-4545956.07861 12020.3958106,-4545876.17812 11867.152273,-4545849.41711 11815.4053391,-4545821.91685 11796.4002723,-4545821.36731 11646.15991,-4545784.89576 11556.7667263,-4545659.45583 11552.5760871,-4545650.29314 11504.8553113,-4545528.16861 11474.3351295,-4545491.06779 11463.5538619,-4545467.43566 11362.7809847,-4545303.93636 11325.0713689,-4545237.93944 11287.5607578,-4545138.49193 11344.9770823,-4544906.06334 11343.4009518,-4544803.38214 11341.7218889,-4544640.32563 11258.3870844,-4544505.93931 11125.048243,-4544429.25346 11042.2643664,-4544413.59516 11036.1593865,-4544412.06356 10961.5567568,-4544402.27014 10703.25353,-4544227.799 10437.1946503,-4543994.03165 10446.5735444,-4543891.01482 10467.0842818,-4543734.25291 10494.1264956,-4543571.50482 10492.1634222,-4543568.65993 10502.5833211,-4543521.9556 10474.6100744,-4543429.76533 10371.5544911,-4543285.3983 10311.6703003,-4543200.12671 10249.3108308,-4543108.55576 10113.1213014,-4542905.82523 10058.9599837,-4542800.65508 10055.2980804,-4542798.43842 9706.94335243,-4542338.86778 9643.15914609,-4542307.28891 9551.76871107,-4542224.41187 9339.73290807,-4542126.75609 9292.41689992,-4542006.59124 9290.31898828,-4542005.25365 9189.97731554,-4541880.13846 9165.41343913,-4541819.6257 9062.96665263,-4541745.57295 9060.82624792,-4541727.27097 9029.79417432,-4541578.41947 8983.67512143,-4541487.10755 8888.83714698,-4541440.92125 8866.2883689,-4541433.15402 8737.97313042,-4541415.96285 8756.70751347,-4541334.1913 8736.78124404,-4541295.28353 8685.57713837,-4541192.87956 8655.97431487,-4541177.6638 8539.79575522,-4541116.63081 8413.92665532,-4541029.88469 8354.16090703,-4540877.22776 8333.65293963,-4540827.38473 8281.08805079,-4540667.69234 8268.88935943,-4540651.65205 8218.74098354,-4540586.09657 8171.98781521,-4540565.1976 8099.08328955,-4540531.8143 8056.41271541,-4540512.102 8063.09355522,-4540445.71904 8071.77077878,-4540366.20895 8084.2913266,-4540235.50333 8106.85469481,-4540184.38178 8121.99560889,-4540153.78664 8214.36148141,-4540062.42505 8222.47889432,-4540054.32218 8242.25662652,-4540045.33289 8254.20857592,-4540038.43567 8258.71194908,-4540038.59238 8399.21733815,-4540038.89014 8507.70276017,-4540038.1287 8558.18136343,-4539989.87591 8587.93780864,-4539961.16423 8604.6150685,-4539940.93259 8638.2931199,-4539901.44282 8601.98520951,-4539830.84282 8592.82337508,-4539812.0764 8531.35956922,-4539768.34102 8470.02907191,-4539746.05453 8385.50865688,-4539707.565 8258.21992381,-4539588.98496 8215.60680582,-4539527.34754 8225.77609662,-4539487.14954 8229.64417023,-4539472.38305 8303.68032435,-4539435.31526 8401.76054865,-4539314.07682 8488.8635014,-4539219.12457 8537.01173983,-4539048.28388 8524.64052513,-4538970.87367 8517.01301129,-4538923.04577 8422.73847536,-4538930.21102 8363.54555986,-4538824.42014 8311.37288537,-4538804.43103 8214.71838723,-4538826.2494 8125.34758673,-4538750.19939 8098.84552065,-4538559.08104 8109.01149453,-4538502.41483 8108.06280838,-4538496.49832 8128.728608,-4538331.73847 8164.88700859,-4538252.63607 8203.3253993,-4538246.22167 8271.30852316,-4538234.56779 8305.65272178,-4538177.5616 8282.81296887,-4538113.42286 8251.54037298,-4538026.96867 8208.66562349,-4537899.47597 8161.82226774,-4537874.09066 8137.67670994,-4537819.03382 8119.93553168,-4537792.43516 8107.42386102,-4537785.40108 7991.09365735,-4537705.90869 7912.49671627,-4537659.97958 7830.75967087,-4537625.26807 7812.40792617,-4537557.79343 7773.61164953,-4537477.39967 7807.06051083,-4537379.04042 7857.57915353,-4537331.28561 7869.37090475,-4537312.42387 7892.11644712,-4537293.22895 7926.79843731,-4537263.64519 7936.94617083,-4537187.01863 7858.30120668,-4537091.18755 7820.14736847,-4537058.65371 7649.7745011,-4537000.23328 7362.21554611,-4536939.73615 7376.49906213,-4536828.85924 7362.96345348,-4536814.91594 7374.66004933,-4536735.67597 7394.06071647,-4536682.3006 7440.05348214,-4536558.53494 7400.14270517,-4536427.3216 7317.02983065,-4536354.78477 7205.40703121,-4536202.56855 7157.41694402,-4536119.37846 7160.38457661,-4536109.17196 7234.03974156,-4535994.78356 7361.70483247,-4535954.14525 7513.6671971,-4535908.16816 7558.36436201,-4535803.46584 7532.05312632,-4535621.31458 7498.94024337,-4535527.0137 7410.71596323,-4535452.86804 7322.72398128,-4535454.06137 7234.89203755,-4535467.21979 7191.57584721,-4535524.40734 7162.47960634,-4535558.5566 7075.38858539,-4535555.19011 6967.48876211,-4535520.96545 6852.214964,-4535534.21192 6809.7027376,-4535352.29098 6809.69334504,-4535342.31058 6824.97213024,-4535231.358 6921.35088144,-4535044.87794 6948.23361781,-4534991.43383 7000.52328706,-4534871.68243 7047.19157469,-4534763.33729 6922.06210686,-4534610.64681 6801.99377381,-4534550.89468 6649.76715787,-4534475.11912 6238.02652467,-4534093.66224 5905.93333295,-4534159.79985 5598.90874206,-4533980.99068 5485.23408217,-4533765.54165 5247.03502757,-4533747.19399 5188.26159229,-4533495.63536 5145.28153635,-4533366.6458 5061.3903769,-4533310.13193 4977.624844,-4533337.4516 4846.80756569,-4533451.68752 4807.23690694,-4533443.21294 4512.32088373,-4533404.2156 4414.55284075,-4533464.03997 4324.73316703,-4533533.24254 4178.62313512,-4533557.80945 4085.08683305,-4533564.91027 4083.55930932,-4533508.63088 4119.62744193,-4533375.63462 4188.3519716,-4533314.52143 4220.21106249,-4533287.14934 4218.8384778,-4533209.8973 4183.62041247,-4533199.5948 4104.90580582,-4533175.12653 4066.57196241,-4533094.19208 4009.61293626,-4533050.60463 3999.40866033,-4532988.49591 4046.05039639,-4532968.48609 4140.77648428,-4532973.77263 4157.70374529,-4532841.73076 4258.68311407,-4532834.066 4301.46922202,-4532720.52361 4388.33030569,-4532671.50965 4336.25979521,-4532475.33454 4268.1208772,-4532373.20593 4257.91035797,-4532205.79397 4332.70099605,-4532129.2498 4365.70350958,-4532103.78791 4382.70097461,-4532091.01931 4348.33834927,-4532009.78344 4268.80926082,-4532017.31625 4206.66523523,-4532043.49252 4120.20934313,-4531864.39922 4154.30251407,-4531725.06644 4232.8492738,-4531559.90234 4058.77673781,-4531275.16619 4045.5699486,-4531239.23705 3974.27097514,-4531039.52876 3930.91014403,-4530895.59267 3917.57070284,-4530548.75196 3625.56930477,-4530495.54565 3630.53616007,-4530399.84582 3631.766336,-4530373.30161 3629.63088393,-4530371.46733 3618.50187447,-4530356.34129 3563.2931927,-4530283.17331 3549.95171442,-4530248.75122 3548.37236603,-4530244.37937 3545.25131486,-4530236.13189 3543.30408842,-4530236.77869 3357.42577126,-4530256.86896 3280.86759251,-4530142.39971 3200.12404081,-4530124.07032 3126.71078292,-4530103.68756 3055.77705261,-4529994.28092 2982.32604855,-4529973.40173 2907.27337797,-4529951.14675 2810.59762842,-4529857.66649 2597.50376728,-4529841.39086 2594.01481322,-4529838.16195 2556.09811733,-4529835.0492 2549.80098061,-4529636.89283 2545.10452326,-4529423.6427 2466.96976913,-4529410.10504 2335.95757616,-4529410.0606 2303.35266419,-4529365.12087 2050.89310804,-4529218.07466 2022.57448035,-4529180.29581 1961.59106437,-4529100.0768 1893.66327534,-4529053.32391 1909.55660974,-4528950.30529 1918.65612454,-4528882.73788 1922.33750436,-4528849.02004 1926.95141512,-4528817.72691 1902.40900111,-4528800.12391 1850.86532535,-4528762.10984 1808.42270789,-4528672.99794 1814.16753448,-4528584.22429 1827.38942528,-4528340.66659 1812.83391149,-4528247.44345 1763.5235666,-4528209.25959 1660.4755588,-4528150.1963 1548.03551465,-4528075.87425 1472.54355538,-4528018.21465 1416.68223705,-4527949.58376 1383.95912725,-4527926.11249 1332.27441684,-4527912.56344 1213.93991448,-4527957.9696 1208.90230745,-4527957.3534 1137.43887753,-4527880.4225 1111.5610452,-4527792.54865 1079.35830173,-4527677.20534 1066.25781807,-4527632.78152 974.800800638,-4527532.41155 1029.66085452,-4527331.11195 981.487001812,-4527041.29988 978.494356261,-4527038.03313 890.88806204,-4526942.36131 890.414225603,-4526939.4027 806.561695383,-4526728.65537 598.234257135,-4526643.63144 297.44544764,-4526520.69735 291.264844722,-4526518.1713 33.5374793453,-4526439.88497 -142.48897168,-4526395.83183 -254.736351876,-4526268.0866 -390.796851604,-4526119.18738 -393.428540854,-4526117.39046 -424.356284267,-4525837.74416 -496.888459116,-4525694.01102 -807.493996845,-4525507.43011 -939.243487235,-4525428.57479 -1275.03410589,-4525117.12744 -1370.4319723,-4524908.74364 -1462.82053262,-4524773.00055 -1564.84710255,-4524720.83885 -1568.35849704,-4524720.60582 -1662.07548639,-4524745.17573 -1716.26570467,-4524718.33729 -1728.8230271,-4524684.35134 -1770.41248337,-4524570.2126 -1840.19781197,-4524495.64313 -2064.4939824,-4524285.54344 -2277.21790959,-4524135.9561 -2356.37222342,-4524010.18794 -2356.98127731,-4524008.73675 -2439.40631451,-4523773.91086 -2471.65585732,-4523753.3949 -2621.15126566,-4523654.4165 -2620.80538042,-4523652.39385 -2604.12002662,-4523533.3395 -2603.63878721,-4523529.80926 -2627.58703378,-4523477.22025 -2645.08390306,-4523440.61319 -2699.52976783,-4523387.33968 -2701.09374643,-4523386.45993 -2852.22857195,-4523335.02031 -2790.65200683,-4523100.26496 -2792.71224826,-4523099.42279 -2854.90263272,-4523042.74262 -2959.37402276,-4523040.67363 -3126.29248985,-4523037.84442 -3193.71733766,-4523050.43828 -3355.07945365,-4523028.72081 -3371.70340111,-4522947.62574 -3356.67949206,-4522912.04874 -3341.54280224,-4522877.96056 -3317.32975586,-4522802.25741 -3292.80802451,-4522707.56456 -3296.69419706,-4522636.48534 -3325.8001847,-4522588.2791 -3356.53065443,-4522558.16404 -3382.70455556,-4522532.19588 -3390.42566124,-4522476.38053 -3353.67109997,-4522447.64283 -3334.45162675,-4522431.21375 -3322.69006401,-4522362.44325 -3310.1610136,-4522274.14916 -3334.36260985,-4522162.1837 -3346.83682212,-4522155.64167 -3387.50016787,-4522132.76715 -3437.96848688,-4522105.64399 -3533.24877023,-4521981.09283 -3560.12016284,-4521899.77526 -3597.84248901,-4521843.23696 -3679.84723318,-4521837.96721 -3923.8393879,-4521822.5038 -3932.13240383,-4521798.67495 -3990.03297487,-4521633.8579 -4071.34336573,-4521542.18741 -4096.43804909,-4521220.65772 -3989.93241536,-4520659.56969 -4089.65262717,-4520499.41529 -4414.71148105,-4520207.5812 -4500.1447481,-4519804.26972 -4465.06647521,-4519446.73945 -4750.05342601,-4519288.62581 -4726.43081317,-4519122.6266 -4682.75753574,-4518809.36653 -4670.71997478,-4518536.43435 -4702.5542733,-4518504.90317 -4706.10334151,-4518504.1735 -4865.31667015,-4518487.77201 -4896.93375247,-4518465.7076 -4910.0918904,-4518456.72087 -4910.38959624,-4518419.8083 -4952.99687718,-4518272.29735 -5141.72050232,-4518212.20879 -5183.06308828,-4518137.47374 -5281.31181231,-4518056.06382 -5392.57445531,-4518033.537 -5493.22089506,-4518022.68496 -5541.69559034,-4517988.91836 -5571.21199321,-4517935.2495 -5592.17579883,-4517849.48844 -5622.2572974,-4517728.97915 -5665.95523253,-4517675.88401 -5686.2328811,-4517651.96273 -5792.72245965,-4517643.04949 -5881.83078678,-4517593.38991 -5960.79796803,-4517493.04994 -5971.70322632,-4517362.10476 -6002.34233425,-4517260.6038 -6141.6360003,-4517141.36807 -6391.32227595,-4517080.39641 -6495.22801389,-4516808.74253 -6728.60242372,-4516587.31131 -6759.46143538,-4516314.62248 -6894.82473831,-4516092.26431 -6922.15890273,-4516034.43554 -6973.60949559,-4515925.02325 -6934.24405371,-4515679.96533 -7117.57142919,-4515562.55759 -7165.42663141,-4515566.67594 -7253.02327981,-4515573.30073 -7380.31573205,-4515635.83631 -7457.38602075,-4515590.25377 -7477.5070067,-4515578.29874 -7486.92835838,-4515572.52245 -7517.97379743,-4515432.6157 -7624.99311439,-4515093.30791 -7649.96222903,-4515066.74513 -7700.47181293,-4515012.66444 -7719.60789505,-4514947.72587 -7777.69139553,-4514905.69799 -7791.74411791,-4514894.78125 -7815.31620564,-4514880.09208 -7927.22799423,-4514855.61122 -8083.82423676,-4514847.48684 -8111.17308818,-4514845.56173 -8130.60635319,-4514862.50464 -8254.26072259,-4514973.18123 -8329.36766342,-4514973.3701 -8336.82681959,-4514970.44014 -8367.90421825,-4514958.8141 -8401.74196349,-4514897.48227 -8419.17389769,-4514798.97139 -8426.86717838,-4514697.22837 -8431.79272493,-4514698.09996 -8464.82626069,-4514693.60973 -8521.31341331,-4514685.90145 -8607.10953978,-4514656.94943 -8623.65609622,-4514626.25519 -8660.93634988,-4514555.6995 -8705.88152125,-4514449.7847 -8763.39413405,-4514408.71084 -8766.94335514,-4514407.9809 -8876.50446533,-4514394.80138 -8996.21713488,-4514379.39445 -8998.73621881,-4514379.08577 -9134.95451403,-4514359.93521 -9257.26780638,-4514333.24426 -9261.06520899,-4514332.53307 -9450.35327232,-4514274.9668 -9455.3309388,-4514271.84908 -9588.17852145,-4514185.05754 -9736.08473771,-4514024.53101 -9866.56848661,-4513823.75256 -9869.75444376,-4513808.02047 -9918.04365365,-4513690.87557 -9953.76216191,-4513637.67041 -9997.76534032,-4513570.61597 -9995.55021175,-4513497.57182 -9930.89101242,-4513431.78704 -9922.6218287,-4513356.28873 -9969.31965142,-4513306.40915 -10038.9864936,-4513276.23534 -10221.8578342,-4513244.13638 -10226.3997565,-4513243.4814 -10488.2154088,-4513253.28902 -10717.1397526,-4513173.25723 -10718.5681474,-4513170.8694 -10819.3087465,-4513010.267 -10944.5044054,-4512938.86588 -11075.1829861,-4512827.94588 -11121.6272296,-4512616.31707 -11129.4645435,-4512581.96802 -11080.1485751,-4512372.58583 -11167.8790134,-4512176.05695 -11071.485671,-4511962.11912 -11073.0640589,-4511957.74594 -11189.8433774,-4511604.67822 -11152.6202226,-4511222.0033 -11152.5220677,-4511219.99923 -11187.5258184,-4510908.67136 -11277.6880538,-4510455.25617 -11402.9136061,-4510393.33643 -11415.7919931,-4510305.45839 -11520.620092,-4510193.07931 -11538.4919778,-4510072.13439 -11715.4735367,-4509781.01358 -12077.3342129,-4509652.60754 -12119.8646645,-4509502.57578 -12120.9840642,-4509497.66866 -12281.4231111,-4509418.93847 -12311.5227546,-4509403.74105 -12479.0778225,-4509432.37014 -12581.3736977,-4509462.55939 -12643.9197942,-4509500.2289 -12712.6986985,-4509531.38086 -12801.3466516,-4509464.6984 -12834.7440209,-4509432.2789 -12907.9964556,-4509357.94411 -12992.5447799,-4509253.01441 -13060.9371997,-4509170.32542 -13165.0676966,-4509063.87917 -13184.1450087,-4508959.99419 -13160.1683017,-4508821.40966 -13231.9752633,-4508710.02582 -13304.7161082,-4508447.4623 -13466.9509676,-4508232.58866 -13685.9554205,-4508045.96117 -13708.796326,-4507660.82358 -13796.1343492,-4507532.14085 -13825.9934524,-4507252.35993 -13913.8879708,-4507126.21444 -13967.7486483,-4507040.92778 -14205.2828451,-4506946.0457 -14359.2561698,-4506896.76955 -14481.1960119,-4506858.5528 -14641.2215036,-4506715.88666 -14643.8906232,-4506713.59223 -14736.6926371,-4506575.33538 -14739.064282,-4506418.27162 -14758.2450876,-4506349.33461 -14831.0978784,-4506276.96112 -14904.9149409,-4506238.10562 -14949.4236182,-4506194.04268 -14963.275556,-4506109.72764 -14917.3453471,-4505881.62789 -14916.3761624,-4505858.09308 -14908.467986,-4505575.95643 -14913.436246,-4505539.89098 -14945.6380488,-4505275.25788 -14892.1851689,-4505100.5032 -14874.4129968,-4504889.50513 -14953.2153973,-4504774.64932 -15003.2845954,-4504617.19121 -15023.2361317,-4504541.32323 -15005.4635425,-4504409.69526 -14956.1499866,-4504352.06254 -14893.6175481,-4504300.92023 -14844.3079677,-4504206.84768 -14826.0909839,-4504124.10652 -14833.4234216,-4504099.70066 -14821.3542927,-4504004.94386 -14863.8429657,-4503951.24283 -14927.4267903,-4503899.13331 -14942.0502787,-4503887.25787 -14942.7103933,-4503881.81667 -14952.7706999,-4503778.24653 -14921.4400874,-4503631.11993 -14946.5918973,-4503522.69817 -14962.1011783,-4503386.59309 -14891.9015141,-4503301.42817 -14836.2415947,-4503225.34718 -14832.3951738,-4503167.15201 -14830.6430717,-4503144.0575 -14798.2623123,-4503126.6394 -14751.008176,-4503068.16489 -14739.4220453,-4503029.85237 -14729.1486466,-4502911.27088 -14728.2725551,-4502899.72365 -14727.467132,-4502781.35723 -14859.8059816,-4502767.37898 -14913.0733912,-4502722.97639 -14932.2900962,-4502706.45537 -15021.2907033,-4502558.92141 -14944.040123,-4502418.31565 -14839.5267241,-4502364.50809 -14726.2258345,-4502344.48129 -14693.6493269,-4502349.51192 -14676.3185317,-4502337.72199 -14630.5642138,-4502222.95412 -14647.006775,-4501985.08763 -14718.6968324,-4501891.65695 -14764.9464967,-4501801.29926 -14770.9189385,-4501672.46222 -14740.5976574,-4501564.84879 -14685.2134134,-4501508.25836 -14714.616552,-4501373.20156 -14754.5349338,-4501287.35796 -14814.8338378,-4501159.62252 -14817.2805116,-4501123.86612 -14842.4803144,-4500885.66111 -14821.5004277,-4500594.55543 -14776.7514659,-4500377.03393 -14548.787851,-4500232.5566 -14612.9840489,-4500033.23323 -14525.4330419,-4499850.42363 -14390.9861234,-4499670.56857 -14218.5407224,-4499657.06964 -14216.0963759,-4499656.3862 -14178.6767314,-4499639.58848 -13971.8407797,-4499542.63129 -13928.2434371,-4499455.48402 -14052.3316579,-4499365.50279 -13982.0306561,-4499341.23495 -13886.4058854,-4499308.56903 -13860.0371141,-4499241.19002 -13840.1545025,-4499183.78421 -13587.3044206,-4498992.01267 -13584.7241542,-4498989.82151 -13416.5858411,-4499045.03478 -13342.3115148,-4498795.3439 -13343.926985,-4498654.70077 -13298.4166203,-4498503.51756 -13061.2839255,-4498427.74232 -12811.5792509,-4498392.94964 -12809.6686953,-4498391.80732 -12562.3815773,-4498228.91285 -12411.4294803,-4498052.81401 -12355.8020302,-4498049.12098 -12274.4024042,-4498042.98656 -12256.1032742,-4498169.89103 -12254.0431076,-4498170.73409 -12253.5705026,-4498173.69341 -12139.7111702,-4498197.55775 -11953.8653704,-4498093.70365 -11952.4511715,-4498092.59877 -11832.645682,-4497986.73393 -11701.0962516,-4497791.63429 -11538.49933,-4497773.39143 -11526.3539068,-4497696.10592 -11571.2938236,-4497603.15607 -11583.2648244,-4497507.22262 -11560.5129476,-4497385.21253 -11484.1562247,-4497332.0395 -11477.2322375,-4497225.19854 -11477.2084631,-4497222.20185 -11471.4129422,-4497116.94342 -11432.9609504,-4497074.11406 -11395.3146342,-4497033.84121 -11413.5500102,-4496977.31373 -11427.47468,-4496934.9368 -11421.535824,-4496884.57428 -11395.7061513,-4496869.65023 -11333.9978064,-4496834.05355 -11347.5756196,-4496789.65392 -11465.3696798,-4496647.28628 -11516.3285549,-4496510.86417 -11400.9987047,-4496411.82915 -11394.4715921,-4496412.33571 -11270.3715597,-4496416.4633 -11263.8444597,-4496416.96986 -11260.0845781,-4496417.18575 -11166.9035306,-4496431.62905 -11086.9498288,-4496373.19497 -11006.547474,-4496320.717 -10931.1053571,-4496315.03343 -10902.1784729,-4496248.46432 -10900.3562955,-4496242.83644 -10816.3268838,-4496202.065 -10814.2667875,-4496202.90809 -10706.1694292,-4496223.21582 -10696.5624899,-4496231.47668 -10635.9293193,-4496284.31043 -10596.138344,-4496312.25964 -10554.1511022,-4496303.10673 -10503.6989636,-4496263.86667 -10487.9818888,-4496101.45941 -10420.3481857,-4496012.00925 -10354.4897499,-4495995.06857 -10296.9230105,-4496007.20361 -10215.1423271,-4496072.42002 -10130.8933237,-4496097.5191 -10066.7819052,-4496014.32439 -9989.04946709,-4495995.99012 -9948.75783112,-4495888.13571 -9948.0428392,-4495798.23687 -9937.65269811,-4495697.62647 -9879.79650447,-4495647.34758 -9877.81121713,-4495647.19804 -9832.00332568,-4495635.76125 -9767.98112913,-4495620.95591 -9767.1380323,-4495618.89585 -9686.55759792,-4495429.64288 -9766.39478637,-4495307.37833 -9780.47639996,-4495196.63229 -9792.60359637,-4495105.20537 -9770.03501067,-4494980.71788 -9704.75656235,-4494896.43864 -9608.62733112,-4494784.38013 -9587.27203799,-4494666.97242 -9574.97546884,-4494425.96243 -9595.06099981,-4494275.23891 -9595.54689091,-4494268.78675 -9602.67182478,-4494260.33887 -9601.37886529,-4494227.79774 -9665.48066015,-4494185.20714 -9759.02099153,-4494122.87133 -9781.23591,-4494109.57013 -9835.10934108,-4494080.18488" style="stroke-linejoin:round;stroke:#000;stroke-width:1px;fill:none" /></g></g></svg>