<svg xmlns="http://www.w3.org/2000/svg" baseProfile="full" height="42828.4368637" version="1.1" viewBox="25798.598350,4052243.808641,50325.482815,42828.436864" width="50325.4828152"><defs><style type="text/css">polyline,line,rect,path,polygon,.polygon{fill:none;stroke:#000;stroke-width:1px;stroke-linejoin:round;}</style></defs><g fill_rule="evenodd" transform="scale(1,-1)"><g class="hogares departamen mujeres departam_1 toponimo_i tot_pob varones viv_part viv_part_h" id="06532"><polygon class="_06532" id="None" points="29916.0032078,-4060490.7419 30100.5532575,-4060670.27396 30206.0199452,-4060774.21663 31709.4273701,-4062249.22496 32447.4280138,-4062972.31031 33120.0542869,-4063615.48797 33625.8676716,-4064100.5261 33644.9180191,-4064118.8409 33646.3199988,-4064117.2608 34131.4102852,-4063624.91479 34134.3923513,-4063624.73668 36104.4416315,-4061622.22679 39014.8936697,-4058587.67242 39064.9162448,-4058535.81132 39530.9493474,-4058050.16594 43763.6169589,-4062132.00385 44855.6232664,-4060880.3819 45036.2791253,-4060673.60794 45069.6445122,-4060635.2111 45498.1504698,-4060378.23774 45689.5401487,-4060263.5842 47425.718302,-4059222.93518 47569.1067475,-4059248.28981 47884.5713131,-4059796.46677 47956.560158,-4059803.64031 48264.9770184,-4059832.60914 48353.5117139,-4059841.28851 50195.1313378,-4058692.66666 50309.0413786,-4058621.04434 50458.4353673,-4058529.8521 50474.110071,-4058520.93836 52079.572786,-4057531.0786 52125.046192,-4057503.43386 52162.5581419,-4057480.2532 52433.4243785,-4057331.45736 52602.382595,-4057238.10642 52971.5167872,-4057035.58208 54618.8028481,-4056129.06136 54830.9568916,-4055999.2339 55594.9953631,-4055533.34044 55645.7547988,-4055502.39148 55926.2679634,-4055331.59472 56003.495155,-4055284.60825 56761.7517436,-4054818.07776 56907.2500613,-4054728.62991 60097.2185622,-4052765.51519 60490.1570825,-4052523.72526 60677.7306053,-4052408.34708 60680.6227238,-4052406.67905 62657.0446707,-4056468.93155 62869.5621987,-4056909.95469 63158.4960062,-4057499.47688 63647.4299726,-4058503.83222 63703.915961,-4058619.11984 63706.3886793,-4058622.9608 63940.336771,-4059009.34613 64698.8935892,-4060262.31974 64787.3947294,-4060408.59776 65834.8479816,-4062136.85586 65986.1153191,-4062386.56827 67430.0407448,-4064767.09511 67387.6693626,-4064800.53689 67381.6487986,-4064799.89963 67367.0050839,-4064796.78649 67294.5316138,-4064781.17626 67220.2056549,-4064784.62126 67171.0604542,-4064808.99569 67144.2024219,-4064822.56587 67141.5295807,-4064823.7227 67124.6583123,-4064829.21789 67114.155949,-4064832.83682 67043.5772812,-4064828.08122 67019.6730318,-4064828.51279 66983.1011782,-4064829.70143 66972.1614025,-4064834.34359 66931.5719026,-4064851.72574 66920.6321196,-4064856.36791 66883.5873166,-4064883.01056 66867.7580394,-4064893.42895 66848.1030545,-4064906.56871 66808.0319892,-4064915.94324 66799.6759725,-4064917.93828 66780.7581611,-4064922.55874 66609.1145239,-4065016.07447 66602.0597945,-4065018.98884 66523.1918639,-4065025.69681 66450.7572899,-4065052.4607 66236.7393001,-4065100.15062 66210.0613442,-4065150.10439 66195.2117817,-4065176.9165 66051.6102071,-4065289.19804 66021.1932966,-4065309.96103 66017.1488625,-4065313.19408 65931.7924552,-4065319.79166 65862.3031075,-4065324.94228 65808.6719537,-4065411.9047 65816.7363542,-4065425.88068 66433.5325709,-4066436.46179 66759.6582167,-4066971.34619 66762.2311841,-4066972.68797 67023.5723792,-4067403.75621 67487.1638478,-4068169.70936 67549.6275387,-4068272.16231 69116.4192414,-4070853.05651 69375.8837369,-4071260.77719 68060.0150505,-4072072.90568 68061.6540524,-4072075.30025 70125.3346817,-4075424.96914 70177.2979548,-4075510.09443 71686.7706852,-4077970.54436 72435.8540561,-4079193.34176 73048.7805245,-4080190.48223 75858.583355,-4084752.56009 75854.7589552,-4084755.28233 73664.3219044,-4086144.62784 72626.2529792,-4084457.71029 70404.4461752,-4085791.65163 70506.0733801,-4085935.60423 68140.2423923,-4087333.62943 67892.2935179,-4087480.15279 65847.4982083,-4088687.96489 65836.4307532,-4088694.61324 64952.8536473,-4087278.92369 63306.9920177,-4088157.64634 62067.0211845,-4088946.18734 62086.2520202,-4088979.93324 62452.2456318,-4089614.58351 62114.6911281,-4089954.48788 59560.823587,-4092524.41377 59336.2955177,-4092749.84186 59239.4711088,-4092851.90403 58835.4927264,-4093277.11586 58311.4420515,-4093828.23583 57257.0808935,-4094938.35831 57248.0843579,-4094921.44741 55546.4574043,-4092075.84559 55334.6574939,-4091721.57772 54840.9768247,-4090896.57572 54687.9748458,-4090640.99005 54322.9916869,-4090032.13392 53997.0149721,-4089487.24874 52708.5478621,-4090268.34469 51793.7309786,-4090824.03185 51027.7610476,-4091288.49653 50635.1496486,-4091526.54776 49526.8655172,-4092199.1301 49522.2944251,-4092201.89858 48633.2508332,-4092850.83718 48631.7693843,-4092846.93666 47540.9258115,-4091754.05744 47455.3929644,-4091666.94018 47011.8950783,-4091216.84268 46893.7005216,-4091100.76788 46422.8505158,-4090635.35129 45138.3262211,-4089348.56859 43674.7603656,-4087874.99658 44562.8868497,-4087047.10337 44575.6889575,-4086928.13538 44577.3983801,-4086927.53395 46461.0991,-4085088.81771 46462.7488063,-4085087.2225 46450.2952988,-4085075.00377 43412.7902149,-4082021.11567 42934.8396412,-4081469.76327 42833.3341189,-4081353.1637 42822.8386998,-4081340.32744 42825.1743785,-4081337.69364 43262.7024661,-4080803.73577 40777.8554033,-4078585.21954 40732.2762191,-4078544.56077 40563.8737764,-4078393.55983 40523.7212414,-4078356.06677 40522.1707671,-4078355.16221 40381.1893396,-4078228.95046 39805.8755338,-4077683.88291 37663.8274943,-4075680.02545 37648.7405216,-4075665.46738 37628.9722864,-4075647.69834 37469.3134988,-4075730.0827 37401.2433749,-4075763.5878 37363.7391072,-4075782.79266 35928.4679558,-4074345.49608 33949.8635448,-4072426.40911 33948.0242349,-4072429.01316 33845.4956404,-4072536.90354 33390.3712082,-4072087.29549 33389.0394337,-4072085.87881 33243.4154803,-4071952.93566 31620.9009409,-4070453.85018 31767.4661362,-4070269.00377 30696.3910484,-4069232.6932 30576.9973541,-4069117.12527 29960.9359965,-4068524.45919 28313.5942228,-4066939.41287 28056.1001816,-4066699.90118 28053.9931379,-4066698.03179 28042.0964568,-4066686.7709 27777.6247695,-4066443.18486 27457.4757375,-4066148.55132 26123.9945491,-4064919.77341 26111.1037188,-4064908.57129 26098.6505679,-4064896.34533 25883.0078627,-4064697.71791 26280.5575615,-4064283.87678 26315.043381,-4064247.39697 26318.5932436,-4064244.1919 26945.9482994,-4063589.66103 26947.5989628,-4063588.06595 29916.0032078,-4060490.7419" style="stroke-linejoin:round;stroke:#000;stroke-width:1px;fill:none" /></g></g></svg>