<svg xmlns="http://www.w3.org/2000/svg" baseProfile="full" height="56443.7990332" version="1.1" viewBox="-11944.398408,4150667.441394,60106.301444,56443.799033" width="60106.3014441"><defs><style type="text/css">polyline,line,rect,path,polygon,.polygon{fill:none;stroke:#000;stroke-width:1px;stroke-linejoin:round;}</style></defs><g fill_rule="evenodd" transform="scale(1,-1)"><g class="hogares departamen mujeres departam_1 toponimo_i tot_pob varones viv_part viv_part_h" id="06547"><polygon class="_06547" id="None" points="-11916.6557775,-4171529.57543 -9220.06126406,-4168793.02489 -7476.39130162,-4167022.345 -5207.02175387,-4164746.00782 -4648.94542731,-4165257.01266 -4089.2542506,-4164640.11325 -3281.82729094,-4163750.73488 -3187.42841118,-4163647.26067 -2835.22237203,-4163258.61411 -2703.58985651,-4163117.58047 -2381.95007417,-4162758.54475 -2364.60408473,-4162725.39016 -2086.19856308,-4162431.77762 -1611.5403467,-4162850.44129 -1128.20047967,-4163275.4645 -710.593708051,-4163642.30815 -642.025881393,-4163701.77604 -629.438042752,-4163689.40969 -479.758290727,-4163518.16819 729.80123742,-4162157.37939 1079.90783406,-4161753.45107 1392.10761078,-4161391.62142 1753.84703261,-4160972.41162 1755.76150957,-4160971.27813 2160.16514191,-4160759.51305 2868.71151214,-4160381.51404 2973.45811757,-4160448.38645 3004.74772892,-4160467.60982 3012.26033392,-4160471.56487 3121.76325516,-4160521.14209 3538.68650744,-4160713.96472 3542.05299134,-4160715.72053 4323.22480936,-4160739.03312 4398.77452198,-4160689.7788 4563.84126676,-4160584.29371 4564.16125947,-4160581.77735 4591.2401673,-4160492.57706 4673.57713652,-4160222.90368 5014.13344606,-4160179.76503 5026.1850729,-4160177.41293 5811.31632162,-4160091.72832 5826.16744861,-4160090.17486 6419.32288013,-4160117.36893 6653.98208769,-4160128.13189 7607.78952173,-4160950.07365 7893.17573323,-4160653.52134 9320.14038258,-4159174.78729 9866.87268929,-4158608.3586 9962.81661628,-4158509.29052 10004.6178257,-4158469.42031 10128.3567555,-4158347.43476 10153.1379627,-4158327.72292 10159.9450557,-4158321.75417 11441.714053,-4157077.33348 11761.0918107,-4156767.93242 13973.6290312,-4154592.88196 17881.7858325,-4150685.2477 18124.044914,-4150905.91378 18293.5553042,-4151060.43389 18377.4237504,-4151139.2523 18543.5297295,-4151298.49992 18958.9010725,-4151696.35838 19361.1328521,-4152081.18227 19769.527058,-4152472.04596 20222.0156706,-4152904.65105 20633.8806529,-4153298.74781 20823.7867705,-4153480.72671 21005.6243733,-4153288.83678 21245.7089947,-4153039.46849 21542.0210728,-4152732.26785 21962.523684,-4152295.60779 22264.4740775,-4151980.03731 22722.5937886,-4151500.83488 22921.518603,-4151293.28687 23349.0428944,-4151704.71108 23769.6609656,-4152110.1379 24315.8230435,-4152637.27978 25109.9226364,-4153402.08849 25859.0810836,-4154123.70027 26463.8187609,-4154706.97446 26543.2184803,-4154782.60406 26714.2348122,-4154947.95216 26908.9573567,-4155106.63185 27357.5472385,-4155474.13197 27527.1168566,-4155626.11805 28199.05505,-4156229.01999 28947.6666636,-4156900.7465 29148.0827292,-4157079.94788 28816.6580319,-4157446.46273 28103.6174789,-4158234.41746 27380.4753906,-4159034.57461 27463.8393455,-4159130.85511 26732.2904302,-4160054.77016 26563.9464147,-4160267.64399 26699.135366,-4160398.63103 26988.6382034,-4160680.68211 27463.0554259,-4161144.52255 27762.9751651,-4161425.82637 28414.0292108,-4162035.63665 29179.1288845,-4162752.48811 29447.2078414,-4163003.13661 29581.3001957,-4163129.20406 29653.5183164,-4163089.67184 29795.7222774,-4163010.76633 30196.0037667,-4162789.38359 30621.4425548,-4162553.75239 30786.0217285,-4162719.5264 30850.7271695,-4162784.71938 31152.225641,-4163088.31945 31631.1952099,-4163570.72778 32823.5210489,-4164771.59451 33798.8886412,-4165753.55529 34179.1193271,-4166137.26579 34741.7801769,-4166706.39053 35281.3501406,-4167252.22365 36292.9168357,-4168276.88988 37382.5445103,-4169379.20877 37927.0050738,-4169930.62775 38114.2914488,-4170107.20653 38117.7623451,-4170110.44861 40117.9614195,-4172134.77173 40120.4410856,-4172134.59506 42199.7714796,-4174240.86802 43930.6430765,-4175993.04666 44383.2051689,-4176447.22952 45024.4730232,-4177073.35524 46134.3857797,-4178155.46718 48005.353312,-4179981.14716 47967.3844789,-4179972.89301 47951.4106591,-4179969.04941 47948.3291155,-4179971.26297 46004.5212173,-4181921.75622 40768.8236674,-4187176.10555 40573.7977483,-4187407.87912 40455.2095209,-4187547.95369 39973.1355026,-4188118.77919 39447.9201784,-4188741.55031 39438.0733323,-4188753.71955 39064.5643778,-4189194.17266 39077.4248286,-4189206.7117 42920.2379861,-4192760.92469 44759.2908763,-4194710.23744 43987.8561492,-4195481.2674 44637.281104,-4196273.61978 46495.7184723,-4201730.3632 46499.9001519,-4201736.54282 46411.6063311,-4201770.29223 46341.3190041,-4201843.12312 46305.6940725,-4201978.76235 46299.3429065,-4202268.81083 46191.5866303,-4202677.28927 46155.7486863,-4202806.46521 46128.6043051,-4202876.20135 45933.2400823,-4203345.30141 45868.0345777,-4203961.07454 45750.4819087,-4204576.62108 45740.3396663,-4205393.30766 45546.7350573,-4206060.18073 45299.8961646,-4206371.00006 45012.6818197,-4206695.6884 44817.0754353,-4206772.54525 44647.1229884,-4206783.25838 44476.5902304,-4206761.61323 44328.8530987,-4206699.94883 44199.0066627,-4206644.4759 44062.313916,-4206476.34322 44039.8210689,-4206388.73385 44033.0219791,-4206304.4834 44019.8364985,-4206193.77463 43999.9607789,-4206003.7922 44002.7643056,-4205834.61184 44000.4191383,-4205815.83867 43989.1927162,-4205638.69364 43961.962405,-4205571.86126 43918.6797968,-4205489.73231 43865.5583335,-4205430.24217 43750.7624126,-4205362.22066 43699.8435224,-4205319.51989 43654.3889512,-4205207.14002 43644.4553987,-4205072.27085 43647.9836412,-4205034.63265 43665.9534047,-4204871.83987 43775.5199293,-4204592.8089 43651.9266671,-4204193.9391 43625.2458896,-4203975.03518 43561.7374935,-4203888.87376 43437.2053731,-4203730.32908 43349.1742812,-4203615.02256 43344.957829,-4203611.83596 43267.7778188,-4203529.64592 43196.2785117,-4203484.93135 43140.9711027,-4203450.51921 43034.2311622,-4203421.79245 42909.4481965,-4203356.97548 42820.2228763,-4203374.34586 42719.4676121,-4203547.06953 42685.0920568,-4203606.36254 42542.9348387,-4203598.12281 42524.9038563,-4203596.92467 42504.4952291,-4203583.43539 42391.5382404,-4203506.30426 42247.9034521,-4203529.57405 42145.792352,-4203471.60295 42072.803324,-4203527.68619 41938.9727797,-4203632.00249 41930.707505,-4203700.88707 41915.7619788,-4203812.12326 41894.0357718,-4203981.66968 41948.2784042,-4204206.0786 41883.2862618,-4204335.36369 41824.5440323,-4204506.57112 41729.8146637,-4204686.84286 41698.1595047,-4204822.20978 41732.1347666,-4205024.6459 41749.4842744,-4205193.38206 41705.3213902,-4205317.68397 41652.7913409,-4205422.64765 41580.3294245,-4205558.95176 41550.6624169,-4205701.1558 41523.7589218,-4205843.66007 41444.3648897,-4205914.66303 41343.9040552,-4205921.37905 41281.9077435,-4205911.87366 41246.4105967,-4205906.94555 41199.6629034,-4205939.71336 41193.7843273,-4205944.6219 41179.4634778,-4206012.44754 41134.4595965,-4206066.02668 41015.6105092,-4206066.58615 40915.6079133,-4206069.28152 40812.20889,-4206083.68605 40701.3653195,-4206084.66749 40617.7461789,-4206041.32201 40549.1225417,-4206026.31053 40422.1424091,-4206073.31497 40325.8307745,-4206096.18337 40228.1192487,-4206071.79537 40138.1591593,-4206030.40027 40047.5815383,-4205949.16971 39947.4689347,-4205853.17023 39843.3703855,-4205802.3214 39657.3596831,-4205822.15916 39446.5868609,-4205844.27359 39240.4470453,-4205941.32919 39054.3185531,-4206028.97223 39020.5282741,-4206044.35988 38711.0121026,-4206135.3807 38453.9798234,-4206276.97062 38392.2035722,-4206294.86682 38357.3484755,-4206305.8446 38222.7039741,-4206332.96197 38145.1517381,-4206322.08049 37841.8016617,-4206151.93746 37823.6939323,-4206139.2794 37628.2746387,-4206028.1852 37507.2224481,-4206029.40007 37410.5367405,-4206106.13539 37329.5741921,-4206259.51072 37226.3118203,-4206369.6212 37182.2820767,-4206384.74762 36947.9155047,-4206338.76465 36867.0706546,-4206337.59102 36797.4205319,-4206336.11198 36758.4859169,-4206335.4183 36737.4786105,-4206337.92393 36565.2411217,-4206362.25729 36452.1894629,-4206353.42592 36310.6034281,-4206304.76732 36211.1574004,-4206207.71637 36029.4212286,-4206037.30806 35918.2908297,-4205958.0452 35713.3597855,-4205815.22433 35598.175989,-4205696.86764 35559.5784582,-4205555.06466 35497.4097204,-4205477.27037 35451.515402,-4205435.19892 35409.0636604,-4205409.83036 35087.4030422,-4205477.79198 34727.9843004,-4205766.32631 34502.1367696,-4206168.91128 34082.2672728,-4206434.87188 33657.5500398,-4206536.16423 33261.0817056,-4206395.62538 33222.9904132,-4206382.40692 33018.1993049,-4206165.2848 33009.9007397,-4206143.44576 33008.1174755,-4206111.66638 32999.2790614,-4205971.21038 32995.0930674,-4205763.61426 32943.1012318,-4205619.27672 32860.138877,-4205557.42953 32739.9230449,-4205546.11789 32612.8137289,-4205577.6783 32456.412087,-4205631.7826 32313.8028765,-4205617.59153 32163.5191738,-4205642.34037 32015.202475,-4205718.79839 31887.6121391,-4205795.76294 31633.6669911,-4205841.91432 31376.6010053,-4205882.80572 31138.2514032,-4205854.54824 30897.9883388,-4205730.20374 30690.9795761,-4205565.57942 30571.894402,-4205358.24657 30528.8685008,-4205220.73779 30546.4968778,-4205073.88938 30596.6243297,-4204952.62841 30678.9561332,-4204825.0676 30729.1955226,-4204719.25479 30796.2163703,-4204576.34075 30794.0494692,-4204455.84258 30747.3318419,-4204291.17771 30702.2497486,-4204142.34951 30693.4482763,-4203991.9147 30653.9367625,-4203865.12214 30615.1339338,-4203737.78004 30578.8057605,-4203592.81032 30396.559953,-4203620.34603 30204.2034777,-4203934.28944 29957.9103018,-4204000.32533 29764.9815137,-4204191.66342 29666.0601829,-4204091.56823 29645.3258955,-4204070.1216 29558.2781969,-4203982.63558 29506.4643237,-4203941.48169 29412.2277215,-4203864.98131 29374.9087666,-4203834.753 29355.8439572,-4203826.14945 29242.6720124,-4203812.33282 29162.7279998,-4203778.68144 29053.9261138,-4203693.7524 28964.4048825,-4203627.38291 28881.2465947,-4203625.37246 28834.5310996,-4203683.07005 28818.8485489,-4203725.0792 28808.6129006,-4203846.47096 28771.9856877,-4203982.22125 28699.6524785,-4204037.2703 28548.4398007,-4204066.56894 28345.8746278,-4204061.16143 28211.4309782,-4204014.96702 28104.6745361,-4203906.45623 27983.8810934,-4203779.50726 27877.5331445,-4203728.80295 27689.7313208,-4203692.91759 27529.1534633,-4203695.96328 27373.9882044,-4203673.69077 27261.7902768,-4203614.43061 27156.3577679,-4203548.70164 27013.335898,-4203497.63572 26862.3436524,-4203453.62314 26690.7218503,-4203386.16035 26606.1068816,-4203381.26184 26546.0483873,-4203381.58193 26457.1621138,-4203428.34585 26367.2715163,-4203436.78951 26270.8488598,-4203406.31211 26095.6431381,-4203327.13885 25937.6685483,-4203283.12715 25766.276504,-4203277.97191 25675.380828,-4203248.09452 25576.6785906,-4203182.3786 25471.6148967,-4203170.47007 25367.9238777,-4203243.72544 25301.519185,-4203350.20608 25209.7548608,-4203377.73117 25138.2696876,-4203441.1974 25116.3269885,-4203524.54421 25078.7273129,-4203622.47699 24985.3609442,-4203738.87087 24824.1764786,-4203862.1255 24685.0764605,-4203904.01738 24549.3339896,-4203919.74033 24430.1059876,-4203943.25353 24355.2179352,-4204004.47221 24206.5792198,-4204028.10135 24063.7138776,-4204045.33283 23943.2758748,-4204055.47027 23823.8810718,-4204114.89668 23727.6511752,-4204146.23401 23616.8638227,-4204197.06511 23510.9703499,-4204260.50951 23414.2423284,-4204396.09616 23302.2072804,-4204533.77891 23200.3660377,-4204744.02933 23143.3834211,-4204947.07224 23114.9210825,-4205134.10711 23070.303633,-4205224.5698 23011.9100293,-4205338.45983 22969.0292805,-4205533.01258 22955.3072531,-4205713.50558 22912.798595,-4205854.17975 22875.3985191,-4205909.71955 22854.4549588,-4206006.96079 22824.9222924,-4206165.15355 22766.6502187,-4206218.20286 22698.7856883,-4206300.86178 22632.8235682,-4206451.69765 22530.1428819,-4206580.73664 22382.7117248,-4206721.9643 22239.4693299,-4206786.10114 22059.7732156,-4206877.28885 21862.8967695,-4206986.16574 21633.6709142,-4207009.1054 21398.2926975,-4206974.14494 21242.8163754,-4206923.47467 21122.4404023,-4206826.90161 21052.9321199,-4206678.30731 21061.5444706,-4206582.94548 21064.3624185,-4206535.37143 21152.5157215,-4206099.70636 21225.3136946,-4205828.70159 21266.6583616,-4205491.14179 21254.5034339,-4205280.08921 21225.3203713,-4205116.63282 21163.3968135,-4204959.01635 21053.0598189,-4204776.45079 20913.5052473,-4204426.44071 20857.704466,-4204350.66074 20519.4983988,-4203893.72901 19995.6109536,-4203215.24636 19952.9065384,-4203085.66761 19769.9818493,-4202843.47704 19643.7884496,-4202589.23787 19529.3362948,-4202248.38694 19390.2517344,-4201887.36052 19323.6579753,-4201730.57093 19250.8708647,-4201602.14997 19185.5620916,-4201477.18179 19184.5790354,-4201380.01404 19236.1507011,-4201289.0514 19280.4661477,-4201229.02721 19279.9205041,-4201176.20874 19241.2056449,-4201109.17251 19205.3451406,-4200981.09542 19216.1637412,-4200749.44182 19161.5878994,-4200600.26671 19018.5167467,-4200552.18006 18869.1550966,-4200572.86034 18722.1242385,-4200563.45396 18701.5196196,-4200502.09983 18671.6588075,-4200412.48689 18135.6557741,-4200072.42287 17409.0480565,-4199803.85886 17059.0997194,-4199360.18838 16587.066455,-4199063.89282 16095.1530472,-4198618.91471 16075.8716607,-4198443.76414 16059.7823248,-4198278.3584 16011.6337036,-4197832.49904 15499.4495988,-4197181.00996 14956.4501589,-4196788.54006 14475.9349237,-4196234.50177 13681.8866658,-4195675.47577 13476.5780587,-4195639.30868 13440.7083649,-4195611.95516 13259.9452841,-4195493.74011 13079.2232048,-4195410.92893 12852.9987472,-4195347.33318 12613.5577306,-4195304.63107 12219.4146853,-4195239.5904 11934.1679557,-4195107.40683 11610.1020657,-4194906.68541 11391.9014765,-4194732.29628 11127.1735102,-4194604.62411 10894.504744,-4194377.90568 10729.9524033,-4194137.83237 10586.7759446,-4193928.1459 10524.718515,-4193667.27039 10393.6645685,-4193459.70721 10390.4260317,-4193355.20856 10376.766233,-4193237.49157 10382.4869988,-4193070.01241 10384.5608273,-4192928.22878 10374.9781533,-4192815.20727 10343.9181332,-4192701.72751 10284.2265138,-4192630.69208 10208.7511086,-4192450.56943 10052.0586665,-4192076.27097 10173.4756666,-4191678.58701 10184.7426326,-4191644.36715 10205.6888766,-4191647.85605 10207.7445651,-4191648.70644 10488.055259,-4191697.97726 10576.2559056,-4191571.47858 10674.3787541,-4191430.30667 10646.8357623,-4191376.42102 10519.932992,-4191129.15963 10607.9111725,-4190880.99236 10898.2164066,-4190961.96716 11346.2715966,-4191087.01497 11851.3271386,-4190991.04841 12422.2510993,-4189912.42856 12491.2169912,-4189408.80249 12578.5908998,-4188465.01252 12594.352972,-4188294.82914 12534.3842286,-4188205.86011 12251.6960322,-4187791.70289 11795.3622948,-4187655.25852 11413.6058653,-4187861.0765 11134.2722883,-4188087.00493 11126.4401308,-4188092.55176 10945.8404451,-4188238.11535 10403.53402,-4188486.33491 9894.38862768,-4188577.5864 9876.91614785,-4188580.83018 9745.67741658,-4188604.17506 9071.57920228,-4188676.29784 8772.24511423,-4188852.79699 8769.87058186,-4188854.46289 8639.66023482,-4188930.59964 8189.56676856,-4189349.2879 8264.64377749,-4189509.99702 8296.72352343,-4189578.5229 8421.80002069,-4189584.04387 8437.75177636,-4189625.79391 8455.48742538,-4189842.46943 8478.46134989,-4189947.55434 8539.92412815,-4190029.43944 8585.5431189,-4190095.50057 8585.79736505,-4190179.26837 8564.3226836,-4190224.19307 8489.36333719,-4190239.52748 8376.97514909,-4190233.59928 8249.34595443,-4190220.28243 8099.24642246,-4190213.55948 8091.69734567,-4190216.09418 8060.86317786,-4190227.77479 7909.44688143,-4190617.63764 7591.7800918,-4190701.69802 7530.39438996,-4190718.55609 7379.92052235,-4190922.82621 7095.87787242,-4191309.71215 6763.06773738,-4191715.55081 6630.56329958,-4191906.07206 6573.89322526,-4191947.03261 6270.16380055,-4192166.76025 6164.62022618,-4192242.63834 6005.36965204,-4192226.5987 5499.89790851,-4192174.4767 4774.23964094,-4192105.1848 4590.48790877,-4192032.54152 4111.70877075,-4191747.07966 3449.17851406,-4191019.37949 2880.20088109,-4190424.63166 2297.17107641,-4189532.11195 2134.55545254,-4189026.00751 1746.37539314,-4188762.46662 1542.73903873,-4188795.47554 1345.51776447,-4188827.52729 1015.73363104,-4189025.17292 824.192900982,-4189283.26795 421.5343858,-4189591.86967 117.912852005,-4189890.40253 -440.697001338,-4189918.86321 -721.2743371,-4189712.96501 -735.1694948,-4189717.44985 -1043.35361543,-4189655.68114 -1350.12939071,-4189428.70726 -1528.30272417,-4189155.12921 -1615.6495034,-4189081.06464 -1783.04064358,-4188937.40102 -2069.92476929,-4188863.13087 -2206.40043194,-4188858.91778 -1984.89761955,-4188503.40039 -1749.99807553,-4188014.24648 -1678.79258116,-4187600.63881 -1640.9073982,-4187027.80109 -2009.81709794,-4186458.08446 -2486.23986851,-4186321.02417 -2498.75309641,-4186316.92987 -2701.69456604,-4186258.59921 -3216.7972909,-4186491.42435 -3553.7731807,-4186505.01894 -3670.22275506,-4186491.38881 -3745.05546591,-4186512.1973 -3826.62356753,-4186515.52948 -4042.29565764,-4186589.79529 -4197.84657855,-4186625.8472 -4205.99989664,-4186626.92841 -4540.74771266,-4186581.00394 -4882.44519342,-4186472.72302 -5416.88236134,-4186026.53185 -5754.39269746,-4185449.54378 -5879.59370464,-4185068.89619 -5951.1947103,-4184775.20804 -5951.76146122,-4184760.28354 -5965.61509948,-4184531.31097 -5939.51866289,-4184383.29009 -5819.33081214,-4184064.93575 -5592.42474069,-4183477.08016 -5469.68772927,-4183285.24985 -5463.94450572,-4183278.35518 -5359.61004646,-4183167.65126 -5225.64257546,-4183108.7058 -5160.83913063,-4183080.13699 -4700.95275401,-4183069.26165 -4120.32872908,-4183030.81346 -3890.892978,-4182848.83147 -3750.00673655,-4182635.26059 -3703.62936531,-4182467.34263 -3660.83253451,-4182308.65911 -3892.39139379,-4181901.69121 -3731.61849246,-4181729.10287 -3367.17997345,-4181383.8613 -2545.76253012,-4180840.4189 -2088.55215519,-4180411.2568 -1569.51729115,-4179932.79949 -1231.05396091,-4179475.209 -786.746702358,-4178728.7602 -617.539752595,-4178002.93439 -550.072180813,-4177130.24262 -266.73486405,-4176567.37286 -230.359877187,-4176066.50038 -196.251875172,-4175579.25755 -181.861130383,-4175371.73825 -64.5064013598,-4174810.23326 21.3391008379,-4174450.4855 51.953433133,-4174320.11943 53.3721412802,-4174315.52939 58.6580843966,-4174291.71043 -684.386825121,-4173992.50732 -1835.51436254,-4173909.40979 -2941.20257235,-4173928.81478 -3494.35107769,-4173827.55497 -3519.90828855,-4173822.39219 -3837.83338287,-4173763.73305 -3862.46815554,-4173754.01526 -3868.06870159,-4173752.41897 -3940.52512185,-4173750.59668 -4032.36591563,-4173718.23157 -4416.46688076,-4173612.90738 -4519.51368164,-4173598.2994 -4825.90279092,-4173617.62813 -4935.64951049,-4173600.0055 -5432.65899647,-4173481.76988 -5585.6475328,-4173427.81998 -5701.58407285,-4173337.31129 -5938.53223823,-4173014.98967 -6564.95307792,-4172956.84264 -7210.41944992,-4172911.52301 -7592.06988399,-4172546.61958 -7600.11694604,-4172545.69609 -7632.58870237,-4172541.52347 -8189.43766815,-4172024.47385 -9076.32892942,-4171324.39025 -9399.60617834,-4171162.83077 -9712.01435469,-4171055.86779 -9872.42525482,-4171023.88631 -10144.3635095,-4170973.90295 -10324.2497681,-4170987.20602 -10332.2273403,-4170990.76697 -10417.9238212,-4171027.29675 -10455.2938628,-4171041.9292 -10603.2713178,-4171188.15031 -10933.8616927,-4171474.0807 -11449.3175717,-4171675.39804 -11916.6557775,-4171529.57543" style="stroke-linejoin:round;stroke:#000;stroke-width:1px;fill:none" /></g></g></svg>