<svg xmlns="http://www.w3.org/2000/svg" baseProfile="full" height="19788.2503493" version="1.1" viewBox="9993.411300,4050093.848391,16341.626606,19788.250349" width="16341.6266056"><defs><style type="text/css">polyline,line,rect,path,polygon,.polygon{fill:none;stroke:#000;stroke-width:1px;stroke-linejoin:round;}</style></defs><g fill_rule="evenodd" transform="scale(1,-1)"><g class="id" id="06560"><polygon class="_06560" id="None" points="16161.4333817,-4050100.62207 16186.292161,-4050128.30581 16207.4018567,-4050152.26213 16238.7320358,-4050186.97352 16378.4174572,-4050356.72517 16458.5919766,-4050459.32741 16474.7468305,-4050480.1386 16501.5083492,-4050513.67201 16540.5030248,-4050561.80854 16686.7575045,-4050743.56464 16728.191988,-4050794.52228 16735.2976394,-4050803.49983 16857.8647707,-4050956.49314 16940.3413727,-4051059.93068 16987.5032159,-4051117.96721 17019.9576074,-4051158.08324 17068.0017966,-4051218.05231 17091.1588596,-4051246.35218 17118.1340966,-4051279.37154 17168.0874236,-4051341.70017 17220.3769241,-4051405.36169 17228.8610484,-4051416.23725 17277.3669389,-4051475.67527 17301.1583043,-4051505.9249 17332.5514985,-4051545.11735 17383.8833812,-4051609.34371 17421.2864708,-4051656.09412 17433.8713915,-4051672.16794 17512.3168248,-4051771.39751 17545.1576047,-4051813.48007 17571.6368561,-4051846.53348 17593.4156059,-4051872.93475 17645.4227511,-4051936.11653 17669.7448762,-4051966.82738 17685.3347769,-4051986.68008 17746.8120854,-4052064.15808 17752.8219744,-4052071.71606 17805.3881053,-4052139.3453 17866.1621578,-4052213.88083 17909.7888763,-4052267.67507 17913.8551369,-4052272.3772 17940.0864412,-4052305.44748 17972.541177,-4052345.56228 18004.4998086,-4052385.71158 18020.5513482,-4052405.03341 18132.4851619,-4052541.31267 18136.9031107,-4052547.48583 18192.7633111,-4052615.88196 18240.2083993,-4052674.39498 18255.7984053,-4052694.24731 18314.0984421,-4052765.46442 18326.1528413,-4052781.07622 18354.5414363,-4052816.48846 18361.6126791,-4052824.96943 18363.7698461,-4052827.31183 18425.392061,-4052903.28254 18442.2569254,-4052923.54451 18442.6086132,-4052925.01558 18467.4270757,-4052955.69111 18523.6737087,-4053026.05368 18537.8507644,-4053043.51164 18542.7993954,-4053050.1463 18593.5667868,-4053113.41249 18630.9703928,-4053160.16109 18687.0789473,-4053228.53885 18711.5457826,-4053257.74308 18797.5314464,-4053361.42877 18813.6522111,-4053381.74232 18819.5930781,-4053388.30782 18823.6939205,-4053393.50591 18842.5716174,-4053417.61557 18853.7782873,-4053431.7906 18869.3684058,-4053451.64255 18902.7749253,-4053494.68098 18931.6943621,-4053530.55413 18960.0140531,-4053564.97348 19016.261001,-4053635.33494 19071.2677183,-4053705.78265 19143.7046718,-4053797.44941 19236.3288476,-4053914.13114 19271.3274956,-4053958.55372 19319.9726813,-4054019.97222 19381.7399491,-4054094.435 19445.4509418,-4054171.75331 19467.7607826,-4054198.61452 19533.0638049,-4054277.31726 19564.9193446,-4054315.97625 19575.381956,-4054330.20279 19589.2012951,-4054349.67912 19841.2361103,-4054665.12717 19912.0878926,-4054751.91707 19997.7167918,-4054857.61764 20176.8533601,-4055081.9287 20289.8043117,-4055225.6053 20305.9253626,-4055245.91788 20358.0722781,-4055311.07846 20549.4087087,-4055549.49204 20553.3835595,-4055545.72557 20670.901354,-4055651.19611 20865.255008,-4055825.58911 20891.8225576,-4055849.16144 20808.8924896,-4055943.17474 20885.9420452,-4056011.58398 20962.5646387,-4056081.01979 21041.8059605,-4056152.26694 21120.0205236,-4056223.08696 21172.3770361,-4056269.78683 21191.6191069,-4056288.38586 21237.6768297,-4056330.53959 21354.2311937,-4056440.06258 21372.4119448,-4056457.73847 21403.1090451,-4056490.49399 21466.1479065,-4056547.41588 21482.8810014,-4056562.20161 21523.8455846,-4056599.22642 21581.7913017,-4056651.01958 21696.1598908,-4056754.21324 21797.1582312,-4056844.38053 21804.0913906,-4056850.87623 21810.2458474,-4056856.92771 21811.3417437,-4056858.34682 21984.5715677,-4057037.19602 22010.354459,-4057063.81304 22019.4794169,-4057073.14688 22026.4125786,-4057079.64254 22022.5070727,-4057084.40119 22027.0695524,-4057089.06811 22031.0667942,-4057092.77744 22044.0852625,-4057104.33235 22050.7012283,-4057109.85312 22056.8556893,-4057115.90455 22067.7860936,-4057126.10952 22077.0553609,-4057133.93781 22124.3532865,-4057176.00383 22134.4358322,-4057184.7724 22162.3127862,-4057209.24937 22189.9762767,-4057234.23968 22193.9389391,-4057237.45291 22205.6480431,-4057248.10204 22229.8103723,-4057269.34844 22245.9782186,-4057283.1762 22252.0981003,-4057288.73152 22256.5568429,-4057291.91016 22258.4314431,-4057293.77345 22266.1087258,-4057300.21719 22275.1991071,-4057309.05487 22289.8095509,-4057321.9942 22326.2462184,-4057354.84721 22388.1545675,-4057409.85217 22398.2371083,-4057418.62066 22413.9088693,-4057432.48293 22469.4147095,-4057481.45367 22519.3313248,-4057525.33056 22526.2644849,-4057531.82611 22530.826966,-4057536.49296 22582.9007976,-4057582.71182 22631.7215023,-4057625.16947 22638.8681186,-4057631.15163 22640.2120591,-4057632.55341 22694.6911413,-4057681.09687 22750.2315386,-4057730.56324 22805.2412719,-4057779.56802 22863.3657911,-4057830.34951 22942.9241893,-4057902.56701 23000.9389965,-4057955.34986 23002.5655596,-4057957.2304 23093.6946996,-4058038.1121 23180.6131386,-4058115.79773 23182.1705305,-4058116.68612 23229.6067242,-4058160.7349 23248.7450442,-4058177.84448 23323.8792769,-4058247.37862 23345.9881016,-4058267.77043 23347.5800792,-4058269.15488 23422.6105463,-4058337.20058 23468.6682057,-4058379.3512 23474.2574203,-4058384.44481 23478.2546576,-4058388.15396 23537.3653452,-4058442.35492 23606.9103543,-4058506.79481 23662.9062636,-4058559.2188 23740.7283699,-4058631.55545 23742.5683811,-4058632.92259 23865.8482961,-4058745.9555 23989.8723028,-4058858.93607 24024.2554562,-4058890.93347 24070.664912,-4058934.55415 24195.1157819,-4059046.50722 24204.6676367,-4059054.81371 24298.0230738,-4059139.02622 24299.580455,-4059139.91456 24373.1226779,-4059208.0619 24412.9912516,-4059243.66415 24442.7773136,-4059270.49847 24490.819195,-4059312.50929 24492.6937971,-4059314.37246 24517.1040809,-4059335.59992 24542.114214,-4059358.28096 24576.0763448,-4059387.81477 24598.6466192,-4059407.67508 24677.0051981,-4059476.98126 24679.9065195,-4059479.27128 24722.6763967,-4059517.1632 24747.0520727,-4059537.89444 24762.7237853,-4059551.75562 24788.2299708,-4059574.40188 24808.4295749,-4059592.4335 24831.7785285,-4059612.73782 24913.8170844,-4059684.77763 24968.4748494,-4059732.308 25053.1666742,-4059806.65478 25137.3278288,-4059880.53989 25222.0196287,-4059954.88625 25307.2074721,-4060029.1978 25433.8211839,-4060139.9985 25559.9388127,-4060250.83334 25595.2448232,-4060281.7678 25619.937687,-4060303.47323 25691.0803554,-4060365.80344 25817.1979287,-4060476.63734 25889.7191238,-4060540.86483 25952.3712489,-4060595.81137 26309.9935099,-4060909.81661 26307.8305129,-4060910.96444 26283.4722763,-4060922.63315 26282.0533505,-4060923.72907 26280.5998156,-4060924.32895 26278.6156238,-4060924.46738 26277.1620889,-4060925.06726 26273.476338,-4060925.82287 26261.4846422,-4060914.69642 26246.9896571,-4060917.70158 26235.9958544,-4060924.45016 26222.6660053,-4060929.86635 26207.7153328,-4060929.91252 26166.7855532,-4060936.25741 26123.3928277,-4060953.74035 26111.8625869,-4060963.51717 26085.8488983,-4060990.75382 26079.2906672,-4060993.20524 26062.8922406,-4061011.79562 26056.0052498,-4061020.25156 26053.6922934,-4061026.39452 26032.592905,-4061038.3344 26017.9075528,-4061049.32831 26003.233708,-4061053.34291 25987.4985389,-4061056.43463 25969.5427318,-4061074.13679 25961.7386105,-4061080.16441 25955.8437174,-4061088.55115 25944.2096315,-4061096.83987 25932.258298,-4061104.15379 25924.483033,-4061114.16713 25918.4150874,-4061120.07363 25913.5122969,-4061128.39116 25904.6988198,-4061144.95701 25898.4925472,-4061170.31334 25900.1826181,-4061176.67547 25902.1149674,-4061186.50997 25898.7349486,-4061195.21972 25884.4014473,-4061207.68454 25871.7061746,-4061236.48445 25864.6290501,-4061274.36323 25865.6962775,-4061293.23049 25872.9295401,-4061311.16904 25884.6561413,-4061332.7818 25890.291685,-4061352.82569 25889.5592699,-4061367.33232 25890.1073353,-4061378.7588 25883.2838608,-4061391.69658 25860.3155775,-4061398.28389 25834.7689248,-4061400.06646 25802.7389743,-4061401.80294 25786.9230671,-4061410.88199 25780.2034251,-4061425.30795 25775.2257018,-4061436.1231 25764.2607406,-4061446.85755 25767.4967616,-4061461.0873 25760.563716,-4061476.02663 25756.6530624,-4061484.27499 25756.7511721,-4061489.25282 25752.8116367,-4061493.51545 25754.4153276,-4061509.35451 25753.7638736,-4061539.30803 25752.2931477,-4061550.37694 25731.3384446,-4061603.6798 25704.30413,-4061648.43451 25700.4398405,-4061671.6337 25691.5858417,-4061669.7592 25689.2046124,-4061739.21246 25692.4985057,-4061761.41368 25693.9002866,-4061770.78676 25708.6726359,-4061793.18392 25706.982831,-4061808.25589 25705.9100679,-4061814.31237 25696.5314508,-4061829.92089 25692.7303993,-4061836.16777 25671.9832523,-4061871.01298 25659.7610842,-4061892.30312 25658.6248022,-4061893.87782 25656.7733498,-4061899.49018 25645.1225624,-4061939.68227 25644.1247506,-4061943.24119 25643.7325494,-4061944.76397 25625.4657099,-4061979.43616 25613.739621,-4062000.69172 25611.9631141,-4062003.80651 25609.2983538,-4062008.4787 25597.1397533,-4062034.25068 25594.6827033,-4062041.89919 25584.9294465,-4062069.99567 25564.5693328,-4062128.24211 25540.488395,-4062165.31406 25523.7614971,-4062189.90952 25476.3432595,-4062242.5674 25464.0870492,-4062284.79585 25460.6379139,-4062292.51363 25454.9105419,-4062306.87054 25452.9898784,-4062311.49082 25445.168745,-4062327.98774 25441.6503727,-4062334.71342 25432.2661548,-4062353.81179 25424.2832895,-4062360.84906 25422.4375525,-4062362.97176 25411.4380536,-4062373.2104 25393.1015885,-4062385.45652 25375.7226095,-4062397.13735 25373.6634654,-4062399.77342 25370.8256171,-4062401.96537 25365.9172651,-4062413.77279 25352.6168215,-4062444.60938 25332.8046652,-4062492.84852 25322.5611783,-4062517.49012 25321.9209606,-4062519.03022 25321.5174242,-4062527.53242 25321.1831333,-4062537.02672 25321.2353608,-4062548.48794 25321.8528912,-4062560.90665 25323.0011025,-4062573.78679 25324.1203638,-4062582.68117 25324.894008,-4062608.04927 25324.530775,-4062613.55781 25323.4177909,-4062622.608 25322.2242281,-4062637.64548 25319.6633693,-4062643.80589 25309.9808598,-4062715.76327 25304.6810339,-4062750.52781 25302.84729,-4062767.1054 25297.8824219,-4062813.80991 25289.1688993,-4062878.22265 25286.8744738,-4062916.76522 25285.1043749,-4062937.82465 25285.1277013,-4062945.30011 25286.0399995,-4062972.65245 25286.5424451,-4062990.56242 25293.2625359,-4062997.57043 25296.7985343,-4063001.80987 25300.7267108,-4063004.52651 25307.3429236,-4063010.04636 25317.0683313,-4063020.83237 25321.0778092,-4063038.996 25320.9054441,-4063057.95 25320.7612955,-4063059.45548 25320.8998014,-4063061.43971 25317.0649949,-4063088.62493 25316.1654818,-4063097.16176 25315.6637855,-4063100.68609 25311.0849119,-4063127.92326 25303.4032843,-4063167.83886 25302.5674009,-4063180.85751 25302.1349642,-4063185.37396 25301.7605129,-4063197.86193 25301.1839324,-4063203.88386 25300.9536297,-4063214.86635 25294.5403572,-4063237.24686 25293.1681724,-4063253.29379 25289.2126736,-4063289.46 25279.9680933,-4063331.97712 25271.0754558,-4063375.96511 25270.0084604,-4063378.53197 25266.5884516,-4063390.23561 25263.3762206,-4063404.91559 25261.807547,-4063411.00679 25260.5916897,-4063440.00315 25261.2786619,-4063453.41399 25260.2004295,-4063462.96026 25258.9434301,-4063473.51597 25259.0417008,-4063478.49384 25257.4402566,-4063526.95762 25257.4346406,-4063530.44733 25256.0391311,-4063539.01881 25250.0649401,-4063574.82754 25247.5622056,-4063588.95954 25233.9852598,-4063615.82804 25225.6683784,-4063632.35984 25224.1053359,-4063634.96133 25199.3034701,-4063658.12723 25197.3885052,-4063659.25787 25194.6948234,-4063659.9444 25176.3294964,-4063668.20519 25174.4145309,-4063669.33583 25172.0381397,-4063670.99716 25160.5137139,-4063677.28495 25144.2018708,-4063686.39934 25124.6310189,-4063695.24278 25117.6113429,-4063698.22523 25087.3237907,-4063717.78637 25073.5212489,-4063730.7134 25059.1131474,-4063745.67662 25032.4711475,-4063767.47566 25028.0993135,-4063776.25497 25016.7602553,-4063799.47804 25014.3089943,-4063803.63699 25014.6161178,-4063833.02565 25015.1300112,-4063843.95625 25016.9599626,-4063873.73708 25017.5029,-4063888.65346 25017.209045,-4063895.15417 25016.6671615,-4063901.6722 25012.1991761,-4063948.34245 25007.6965916,-4063994.51666 25007.1603086,-4063997.54496 25003.8264356,-4063999.77163 24997.689382,-4064004.68641 24981.2792226,-4064008.823 24961.1497183,-4064034.6538 24945.3406227,-4064061.67839 24934.4340266,-4064080.38507 24926.6534985,-4064093.88872 24900.9925014,-4064122.59816 24883.1231944,-4064130.8245 24869.2458304,-4064146.24928 24860.7267989,-4064156.31517 24832.792162,-4064166.73973 24828.5063813,-4064166.04201 24825.3512624,-4064167.25926 24809.5063946,-4064172.3534 24806.1322994,-4064177.57377 24802.54481,-4064183.30751 24797.5730473,-4064190.63335 24783.2633085,-4064210.57467 24762.2053863,-4064240.95675 24761.1384157,-4064243.52364 24760.2502031,-4064245.0811 24756.8068384,-4064249.30935 24750.4340776,-4064268.69652 24746.6220481,-4064281.92314 24742.5966274,-4064295.66314 24733.0464667,-4064330.22655 24730.0645297,-4064333.92412 24728.6054121,-4064338.01383 24724.2392037,-4064343.30349 24722.1454778,-4064345.4436 24719.0942671,-4064348.14905 24716.3257238,-4064351.33324 24713.3091501,-4064354.53474 24688.4961734,-4064384.68063 24675.8243368,-4064399.52287 24667.7321013,-4064408.56207 24662.8698325,-4064413.88637 24656.871323,-4064420.78546 24650.0192414,-4064429.73807 24645.1569728,-4064435.06238 24611.5076759,-4064474.29951 24606.6052052,-4064482.61751 24601.7373733,-4064491.43158 24599.6034459,-4064496.56539 24598.7498751,-4064498.61892 24595.6584626,-4064504.31807 24594.6954142,-4064508.37316 24593.8418436,-4064510.42668 24589.5628678,-4064527.67381 24589.0266057,-4064530.70214 24585.0705039,-4064545.43432 24579.4017076,-4064567.76331 24577.0834731,-4064577.39632 24570.6996757,-4064603.7631 24564.9560639,-4064628.58973 24564.5639197,-4064630.11256 24564.200859,-4064635.6212 24565.0835097,-4064637.55349 24567.0968423,-4064641.40075 24572.7156128,-4064650.47953 24573.2407597,-4064654.43071 24573.835186,-4064659.37401 24574.3949731,-4064663.82125 24575.3469038,-4064666.74566 24576.0798897,-4064673.67321 24577.5860564,-4064684.53462 24577.4765844,-4064686.53619 24578.0017337,-4064690.48736 24578.7056346,-4064693.4291 24579.1615047,-4064696.38815 24579.3000641,-4064698.3724 24579.6866546,-4064700.33933 24580.7078668,-4064704.25586 24581.1983773,-4064707.71098 24582.779381,-4064716.07475 24584.4698565,-4064722.43696 24585.4453297,-4064732.83694 24586.0799523,-4064734.78655 24586.6051048,-4064738.73772 24588.2955826,-4064745.09993 24590.3033727,-4064752.43694 24591.8151017,-4064759.80859 24594.4921576,-4064769.59126 24596.4999506,-4064776.92827 24597.4518866,-4064779.85268 24599.6273372,-4064793.15975 24603.8563197,-4064807.32038 24608.0160236,-4064820.48889 24609.4238379,-4064826.37235 24610.6238071,-4064829.27943 24611.4316375,-4064833.70935 24614.2126281,-4064844.98021 24617.310934,-4064857.22587 24621.3667245,-4064868.90618 24621.3265413,-4064871.89987 24622.4918712,-4064874.3109 24622.6193537,-4064883.27465 24622.0831095,-4064886.30298 24622.1814929,-4064891.28092 24622.1648717,-4064901.75018 24616.2647946,-4064913.62726 24611.9970102,-4064923.89491 24608.0174383,-4064931.15155 24605.9528307,-4064937.2775 24604.1653587,-4064947.37195 24603.2716233,-4064952.41917 24597.5974395,-4064978.23796 24596.4556756,-4064983.30251 24594.5296416,-4064991.41271 24594.7374953,-4064994.38908 24593.7051942,-4064997.45206 24591.8484468,-4065006.55438 24590.8854311,-4065010.60949 24589.8129545,-4065016.66616 24586.9003339,-4065021.35589 24586.04678,-4065023.40943 24583.953071,-4065025.54956 24581.9286472,-4065028.68183 24581.0750934,-4065030.73536 24578.0239029,-4065033.44085 24575.007355,-4065036.6424 24571.0333255,-4065040.4093 24568.6223001,-4065041.57463 24564.0482801,-4065043.88799 24561.1065496,-4065044.59191 24557.2766225,-4065046.8533 24555.5750473,-4065047.47061 24552.6679591,-4065048.67059 24551.2490576,-4065049.76664 24549.2994511,-4065050.40128 24547.1018134,-4065051.05323 24543.1679573,-4065051.82644 24540.2955113,-4065053.52248 24532.1797668,-4065055.08621 24524.3466953,-4065057.12868 24518.3939447,-4065057.5444 24515.2041807,-4065058.26564 24502.1970917,-4065061.16792 24484.367943,-4065066.40089 24467.4616295,-4065070.57245 24461.3647706,-4065072.49367 24456.0812915,-4065075.35506 24454.3797136,-4065075.97237 24448.530885,-4065077.87628 24442.5033103,-4065080.78963 24435.5528945,-4065084.7644 24431.5843884,-4065085.04154 24429.4906757,-4065087.18169 24428.0717718,-4065088.27774 24426.6182249,-4065088.87774 24419.6331646,-4065092.35644 24416.7607135,-4065094.05249 24400.6858184,-4065110.12958 24391.889718,-4065116.22718 24367.1919363,-4065140.88221 24360.1029409,-4065142.87273 24347.6611718,-4065146.73253 24335.2540439,-4065151.08839 24328.6264655,-4065152.5482 24318.3476921,-4065155.25997 24254.4427251,-4065171.68652 24225.5961494,-4065176.1935 24218.4378505,-4065177.1919 24215.5307477,-4065178.39189 24213.5811312,-4065179.02653 24210.4952833,-4065181.23598 24208.5803104,-4065182.36669 24205.4598185,-4065184.08007 24203.0487804,-4065185.24541 24200.6377421,-4065186.41076 24195.6022767,-4065189.25485 24179.6769675,-4065200.33673 24177.6525371,-4065203.46902 24174.8147208,-4065205.66114 24172.7210024,-4065207.8013 24172.8595785,-4065209.78556 24170.7312162,-4065211.42966 24167.9626879,-4065214.61392 24166.5091355,-4065215.21391 24163.9539958,-4065217.88478 24158.9878167,-4065221.721 24157.4940963,-4065225.31472 24157.1019633,-4065226.83756 24155.5043105,-4065228.94308 24153.941302,-4065231.54466 24151.9861607,-4065235.66908 24149.1774654,-4065241.84706 24138.3569088,-4065251.07699 24134.3135721,-4065253.8518 24125.269411,-4065259.96677 24081.7155345,-4065289.42824 24046.8081565,-4065317.7874 24040.4923532,-4065323.71184 24037.9025672,-4065325.88665 24034.1419047,-4065329.14021 24010.4196293,-4065364.19555 23997.4415692,-4065371.08377 23994.3557159,-4065373.29324 23992.440739,-4065374.42395 23990.5257621,-4065375.55467 23985.5249315,-4065378.89484 23976.5154037,-4065385.50591 23974.6697174,-4065387.62876 23953.6687414,-4065404.54857 23945.7261511,-4065408.59269 23943.8111732,-4065409.72341 23926.0110112,-4065418.94238 23917.8896757,-4065423.99596 23906.1864156,-4065431.29366 23896.1500992,-4065437.47797 23892.0374613,-4065439.26066 23886.2578777,-4065442.15675 23884.6255782,-4065443.76622 23878.2404761,-4065448.69855 23872.4207336,-4065454.58837 23869.3348763,-4065456.79784 23867.2758009,-4065459.43409 23864.3285277,-4065463.62783 23862.4828402,-4065465.75069 23861.3812547,-4065467.82157 23857.4071996,-4065471.58854 23856.6229406,-4065474.63424 23854.5292191,-4065476.77442 23852.5740826,-4065480.89887 23850.5150074,-4065483.53512 23847.7063201,-4065489.71314 23844.6149528,-4065495.41241 23843.7267556,-4065496.96991 23842.163749,-4065499.57151 23840.8834229,-4065502.65186 23837.8959957,-4065509.83934 23836.4369288,-4065513.92915 23833.0227276,-4065522.14341 23830.0006556,-4065528.83483 23827.9762282,-4065531.96715 23825.7675528,-4065539.59873 23824.2738408,-4065543.19247 23820.3580677,-4065554.93118 23814.4525175,-4065570.29829 23809.6430484,-4065587.08431 23807.7572116,-4065592.20091 23806.7249233,-4065595.26394 23804.2682204,-4065602.91285 23802.7398642,-4065606.01052 23797.9359062,-4065619.30675 23796.0792166,-4065628.40922 23791.6035955,-4065635.70065 23786.7303475,-4065648.00474 23786.3382217,-4065649.5276 23779.4059056,-4065664.46795 23772.156262,-4065678.43349 23768.6727821,-4065685.65564 23766.5444164,-4065687.29976 23765.7601663,-4065690.34547 23763.5971526,-4065691.49352 23757.5986815,-4065698.39284 23755.683702,-4065699.52357 23753.8380186,-4065701.64644 23750.6828669,-4065702.86379 23748.7332392,-4065703.49845 23745.7568256,-4065703.70634 23742.9190041,-4065705.8985 23740.7559898,-4065707.04656 23739.337079,-4065708.14264 23735.7551537,-4065710.38678 23730.0102137,-4065713.77897 23682.4860107,-4065722.08321 23672.1031992,-4065723.30689 23665.5047073,-4065728.75266 23661.0345836,-4065732.5543 23642.1911004,-4065751.81607 23631.5091119,-4065763.03045 23605.1552794,-4065781.81983 23594.6921692,-4065789.03101 23588.7629878,-4065796.9225 23567.9242328,-4065823.30254 23563.9155283,-4065826.57348 23546.2830585,-4065841.7628 23521.3937526,-4065852.97257 23519.2307325,-4065854.12064 23513.4511288,-4065857.01678 23501.3320409,-4065858.36176 23497.3288238,-4065858.14288 23467.5189271,-4065866.70542 23462.414127,-4065868.55745 23456.5652195,-4065870.46146 23450.5029252,-4065872.87886 23446.5690035,-4065873.65213 23435.6499418,-4065877.90424 23433.0254969,-4065879.58302 23426.5364278,-4065883.02722 23417.5323505,-4065886.14859 23400.8336708,-4065893.29686 23398.6359974,-4065893.94886 23386.8633826,-4065900.25456 23371.8316483,-4065906.28942 23363.9583066,-4065911.32579 23359.8802926,-4065913.6046 23344.9470143,-4065924.61751 23329.0562391,-4065936.1958 23310.2291628,-4065944.98824 23302.2172155,-4065948.04032 23291.794204,-4065952.25781 23287.3769072,-4065967.52114 23286.5580126,-4065970.0708 23285.4162964,-4065975.13548 23285.0588246,-4065977.15442 23284.522617,-4065980.18284 23283.5596374,-4065984.23804 23283.2368162,-4065986.75306 23282.6659587,-4065989.2854 23281.95825,-4066011.26852 23280.9259713,-4066014.33159 23280.8858382,-4066017.32535 23280.1015961,-4066020.37109 23278.1464734,-4066024.4956 23277.1141953,-4066027.55866 23275.9433145,-4066028.63743 23275.1244222,-4066031.1871 23273.0306973,-4066033.32732 23272.1771544,-4066035.38091 23270.7582373,-4066036.47701 23265.2959543,-4066040.348 23251.3146866,-4066054.28542 23248.2288154,-4066056.49495 23245.8870537,-4066058.65249 23243.2972555,-4066060.82737 23234.5703651,-4066067.91736 23208.7763317,-4066091.15432 23202.6392383,-4066096.06944 23187.8445538,-4066109.06672 23186.4602871,-4066110.6589 23184.7933323,-4066111.77232 23177.9467787,-4066117.2355 23172.6230972,-4066123.09081 23170.4600685,-4066124.23888 23169.0411503,-4066125.33499 23167.1261584,-4066126.46574 23165.4592033,-4066127.57917 23164.0402851,-4066128.67527 23160.1756495,-4066130.4407 23156.5243991,-4066131.69274 23154.0786815,-4066132.36207 23151.1022385,-4066132.56998 23148.1950984,-4066133.77003 23140.2232645,-4066133.82838 23130.1577027,-4066136.02696 23127.21591,-4066136.73094 23123.1378867,-4066139.00978 23120.1960938,-4066139.71376 23119.1638179,-4066142.77684 23116.1873732,-4066142.98474 23109.9061914,-4066149.40543 23103.4462758,-4066156.83559 23099.3281246,-4066162.1082 23089.5689479,-4066172.2613 23078.7774964,-4066185.47748 23074.6246938,-4066190.25402 23069.301009,-4066196.10933 23067.8820895,-4066197.20544 23064.8655171,-4066200.40713 23063.763939,-4066202.47805 23061.8489448,-4066203.60881 23059.7552175,-4066205.74904 23055.8905769,-4066207.51448 23052.8740044,-4066210.71617 23050.0015129,-4066212.41231 23046.9849403,-4066215.61399 23043.8990634,-4066217.82353 23040.9919194,-4066219.0236 23039.3942665,-4066221.12918 23035.62811,-4066227.87269 23033.5635635,-4066233.99885 23031.2564511,-4066236.65249 23025.3108525,-4066255.01364 23024.4573127,-4066257.06725 23023.2809608,-4066261.63588 23022.4274212,-4066263.68948 23020.4321828,-4066270.8078 23017.6928328,-4066277.97809 23017.1219838,-4066280.51044 23012.0755236,-4066290.33437 23010.8298682,-4066293.91086 23009.1975641,-4066295.52037 23007.8479503,-4066297.60862 23006.7117212,-4066299.18348 23000.8919646,-4066305.07347 22998.8675441,-4066308.20586 22995.4643242,-4066309.44058 22993.4399037,-4066312.57297 22990.0713365,-4066314.30376 22986.4547315,-4066316.05189 22980.4270561,-4066318.96542 22974.5434588,-4066320.37341 22973.0898859,-4066320.97344 22968.9078987,-4066321.76407 22966.9582503,-4066322.39876 22963.0589533,-4066323.66813 22952.572063,-4066323.4037 22947.1152325,-4066323.78488 22943.9253946,-4066324.5062 22940.9489412,-4066324.71412 22938.0417938,-4066325.91419 22932.971612,-4066328.26235 22930.0644643,-4066329.46242 22925.1730136,-4066330.8011 22918.7185631,-4066334.74145 22915.7767616,-4066335.44544 22913.0829978,-4066336.13211 22911.1333477,-4066336.7668 22908.2608522,-4066338.46295 22905.6017413,-4066339.64569 22903.1906683,-4066340.81111 22901.2756711,-4066341.94187 22898.368522,-4066343.14194 22887.2360004,-4066347.90757 22881.7390455,-4066351.28254 22880.3894303,-4066353.37081 22878.7571239,-4066354.98032 22876.34605,-4066356.14574 22864.9600224,-4066364.41856 22855.6567951,-4066377.53086 22846.6417237,-4066387.63206 22845.3267625,-4066390.2164 22843.7637631,-4066392.81807 22836.7968431,-4066407.26267 22835.9086514,-4066408.8202 22827.165351,-4066426.37988 22820.1400497,-4066432.85261 22790.4649254,-4066468.32493 22783.1514723,-4066477.80879 22773.7096365,-4066488.93681 22772.1466391,-4066491.53849 22769.7301055,-4066496.19378 22768.2017627,-4066499.29153 22766.246652,-4066503.4161 22762.8033104,-4066507.64462 22761.4883519,-4066510.22897 22759.0371646,-4066514.38819 22758.4316673,-4066516.42448 22755.911171,-4066519.59154 22755.0576353,-4066521.64516 22754.4867929,-4066524.17752 22754.0946798,-4066525.70041 22748.2056078,-4066530.59829 22747.7040751,-4066534.12281 22741.105542,-4066539.56875 22738.1582784,-4066543.76262 22732.7999382,-4066549.12193 22730.2447874,-4066551.79292 22728.4337526,-4066554.41192 22727.297524,-4066555.98679 22713.4949602,-4066568.91497 22707.1736666,-4066578.32954 22703.1995935,-4066582.09665 22701.5672875,-4066583.70617 22695.7128695,-4066589.10014 22693.6537962,-4066591.73648 22685.8442706,-4066601.25501 22675.9756723,-4066613.40989 22673.9165993,-4066616.04623 22667.952764,-4066623.44184 22666.6031524,-4066625.53012 22661.1700507,-4066633.38715 22659.110978,-4066636.02349 22655.2408716,-4066641.27884 22654.1392992,-4066643.34979 22652.7896879,-4066645.43807 22650.765271,-4066648.57049 22644.4786375,-4066658.48115 22636.882498,-4066667.4863 22635.532887,-4066669.57458 22632.4816586,-4066672.28023 22630.6013136,-4066673.90709 22627.4807733,-4066675.62059 22624.6775837,-4066678.30891 22617.5829698,-4066683.78954 22601.7668813,-4066692.87044 22596.7659944,-4066696.2108 22588.4311823,-4066701.77806 22565.9818929,-4066715.80887 22560.4502691,-4066718.68781 22550.5871155,-4066727.35285 22549.1681917,-4066728.44897 22519.4455451,-4066748.96992 22510.2626378,-4066753.10095 22507.355476,-4066754.30104 22506.4672872,-4066755.85859 22495.577314,-4066764.09688 22489.440193,-4066769.01213 22484.5779267,-4066774.33682 22477.51796,-4066780.31355 22475.6722693,-4066782.43649 22474.5706978,-4066784.50745 22471.767505,-4066787.19579 22470.59662,-4066788.27459 22469.3163224,-4066791.35504 22468.1800942,-4066792.92992 22466.7958263,-4066794.52213 22466.4037174,-4066796.04502 22465.7635687,-4066797.58524 22461.9281187,-4066803.3367 22459.8343885,-4066805.47698 22455.9989388,-4066811.22844 22446.9838697,-4066821.32976 22441.0200332,-4066828.72542 22436.6191902,-4066833.51938 22420.33621,-4066846.62097 22403.3784225,-4066860.76671 22365.6328294,-4066891.3198 22363.7871386,-4066893.44275 22359.7437438,-4066896.21775 22357.4019726,-4066898.37536 22352.9664704,-4066902.67325 22334.9471978,-4066915.89617 22333.066849,-4066917.52305 22330.9384598,-4066919.16725 22326.9643796,-4066922.93441 22325.5107955,-4066923.53446 22314.5514923,-4066930.78064 22312.2097204,-4066932.93825 22310.756136,-4066933.53831 22308.5584305,-4066934.19035 22307.104846,-4066934.79041 22305.6859196,-4066935.88654 22302.8134086,-4066937.58273 22299.1274602,-4066938.33875 22289.2350657,-4066943.01788 22279.3080117,-4066947.20094 22270.3384605,-4066950.8186 22260.4114038,-4066955.00166 22253.3915169,-4066957.98461 22248.5346787,-4066959.81944 22240.5226279,-4066962.8717 22235.8791713,-4066964.19312 22230.5609087,-4066966.55869 22227.4750122,-4066968.76829 22225.6293194,-4066970.89125 22222.5087645,-4066972.60477 22218.6787456,-4066974.86636 22215.5581904,-4066976.57989 22213.6431808,-4066977.71069 22211.549447,-4066979.85097 22207.7194276,-4066982.11257 22205.5910353,-4066983.75677 22202.6838621,-4066984.95689 22198.6404598,-4066987.73189 22195.698628,-4066988.43593 22192.7221376,-4066988.64388 22189.745647,-4066988.85183 22186.8038148,-4066989.55586 22183.8273239,-4066989.76381 22177.8743418,-4066990.17971 22166.3203922,-4066992.48243 22159.767351,-4066991.44474 22154.7025554,-4066990.30308 22151.726063,-4066990.51103 22146.6959252,-4066989.86545 22140.2815157,-4066990.81209 22137.8357632,-4066991.48147 22132.6962168,-4066992.83754 22128.6929004,-4066992.61873 22126.7085713,-4066992.75736 22120.8249005,-4066994.16543 22115.7200111,-4066996.01759 22112.7435168,-4066996.22554 22101.89902,-4066997.98019 22098.9571835,-4066998.68423 22092.2947277,-4066999.6482 22083.965299,-4067001.72564 22069.8616009,-4067003.20949 22039.8431555,-4067008.79624 22023.0109899,-4067010.47072 22018.084817,-4067011.31339 22015.8871012,-4067011.96543 22011.0649035,-4067014.29635 22007.9443382,-4067016.00988 22004.0796479,-4067017.7754 21945.2557358,-4067046.31186 21879.8515625,-4067091.26029 21876.7309921,-4067092.97382 21874.3892073,-4067095.13146 21870.8072116,-4067097.37574 21867.9000237,-4067098.57586 21861.8376055,-4067100.99344 21857.4421638,-4067102.29754 21855.03106,-4067103.46301 21852.8333389,-4067104.11506 21849.9261503,-4067105.31519 21846.522877,-4067106.54997 21843.8637305,-4067107.73277 21841.879392,-4067107.8714 21824.6149793,-4067114.06266 21770.0402046,-4067121.36512 21755.2269656,-4067123.39707 21728.0809044,-4067127.28769 21725.0697316,-4067126.99956 21721.631792,-4067127.73826 21718.6552783,-4067127.94622 21715.1480193,-4067127.69275 21712.1715053,-4067127.90071 21704.2341339,-4067128.45526 21700.7615336,-4067128.69788 21676.1998567,-4067133.90345 21657.1698629,-4067136.23002 21626.4709825,-4067146.35095 21616.4051899,-4067148.54974 21599.8155253,-4067153.69686 21578.2282245,-4067137.25878 21561.7880397,-4067137.41037 21532.7247651,-4067120.99608 21523.5818117,-4067122.13337 21497.0411399,-4067123.98765 21490.0027928,-4067116.00474 21482.0307331,-4067116.0632 21479.0542077,-4067116.27116 21473.0664971,-4067116.19098 21459.1413826,-4067116.66536 21457.1516035,-4067120.29394 21445.2400682,-4067124.61571 21441.2367058,-4067124.3969 21436.2758267,-4067124.74349 21433.2646397,-4067124.45536 21379.8094726,-4067140.65278 21336.1503527,-4067168.62857 21275.8352384,-4067289.99261 21218.5022368,-4067407.65897 21148.2481731,-4067472.38907 21103.7440874,-4067474.00307 21045.7761853,-4067475.56077 21027.5702789,-4067471.8477 21020.272968,-4067470.86203 21005.6090193,-4067467.8985 20926.5495061,-4067452.98336 20891.4471775,-4067446.46271 20830.841539,-4067435.24328 20797.4884945,-4067443.05731 20764.418141,-4067451.35012 20746.1612551,-4067457.61088 20730.6328796,-4067463.68101 20707.7670791,-4067471.75935 20665.3109623,-4067477.71687 20659.8539254,-4067478.09815 20654.1835031,-4067478.99286 20600.7439405,-4067484.72077 20597.8366964,-4067485.92093 20593.8332756,-4067485.70213 20575.7951364,-4067487.9595 20514.0551211,-4067499.75105 20382.3091672,-4067529.89398 20349.3956795,-4067551.13738 20344.9600622,-4067555.43545 20322.2912849,-4067573.47047 20311.6598605,-4067574.71182 20277.6695748,-4067559.14008 20257.1616721,-4067554.59075 20246.5356452,-4067552.34208 20243.4897335,-4067551.55787 20240.4091589,-4067550.27755 20238.424768,-4067550.4162 20215.5002799,-4067550.5224 20203.559266,-4067550.85821 20159.0382618,-4067562.94229 20130.2244775,-4067567.94666 20125.7595899,-4067568.25863 20096.7215867,-4067580.75648 20090.7629917,-4067584.66246 20088.8479221,-4067585.79331 20072.9218675,-4067596.87651 20052.2027277,-4067614.27687 20025.9116898,-4067637.55029 20024.4927183,-4067638.64648 20015.6745579,-4067658.70496 20007.8301478,-4067667.72794 20001.8314814,-4067674.62786 19994.9099433,-4067682.58931 19990.9704065,-4067686.85276 19989.8688126,-4067688.92381 19987.9537414,-4067690.05467 19983.9795406,-4067693.82201 19979.9706758,-4067697.09325 19977.0980686,-4067698.78954 19975.9271469,-4067699.8684 19967.6267026,-4067705.93212 19966.2077308,-4067707.02831 19963.0524091,-4067708.24583 19960.1798013,-4067709.94211 19957.2032012,-4067710.15009 19953.1250071,-4067712.42914 19950.252399,-4067714.12542 19946.1742045,-4067716.40447 19943.3015961,-4067718.10075 19940.6423736,-4067719.28361 19939.2234013,-4067720.3798 19925.2524647,-4067727.33826 19911.3161896,-4067734.79283 19890.4237048,-4067749.71278 19859.6384657,-4067769.31216 19855.3815454,-4067772.60074 19852.8263135,-4067775.2719 19849.2788797,-4067778.01239 19829.5519077,-4067795.34354 19826.9620108,-4067797.5186 19823.1665258,-4067800.27643 19820.0805275,-4067802.48615 19815.114119,-4067806.32284 19813.6604802,-4067806.92294 19810.0437156,-4067808.67123 19804.0851039,-4067812.57725 19797.31301,-4067815.54306 19784.3689166,-4067822.92833 19782.9152772,-4067823.52843 19779.2638461,-4067824.78062 19770.397953,-4067829.88684 19767.3119529,-4067832.09657 19763.3778051,-4067832.86999 19760.2918047,-4067835.07972 19756.8884232,-4067836.31458 19751.5352999,-4067838.1842 19748.449299,-4067840.39393 19743.9843832,-4067840.70591 19742.5307429,-4067841.30601 19741.1117678,-4067842.40221 19739.4447417,-4067843.51574 19736.5027959,-4067844.21983 19731.963154,-4067847.02966 19725.4737694,-4067850.47425 19719.6938719,-4067853.37075 19713.7005883,-4067856.78067 19709.1262798,-4067859.0944 19701.7140196,-4067863.60053 19693.7309321,-4067870.63917 19684.9343601,-4067876.7376 19673.9746576,-4067883.98424 19669.9311148,-4067886.75941 19666.8451111,-4067888.96914 19663.0842848,-4067892.22308 19660.0329465,-4067894.92892 19656.0240687,-4067898.20019 19653.0767271,-4067902.39434 19649.0331836,-4067905.16951 19645.0936369,-4067909.43299 19640.1272192,-4067913.26969 19638.7429084,-4067914.862 19636.6491093,-4067917.00241 19634.3072589,-4067919.16014 19633.2749967,-4067922.22342 19629.33545,-4067926.48691 19628.4819078,-4067928.54065 19626.8495457,-4067930.15029 19625.9613377,-4067931.70793 19625.3211811,-4067933.24823 19623.5447652,-4067936.36351 19622.4431719,-4067938.43459 19620.4187048,-4067941.5672 19606.6849861,-4067955.48852 19604.521855,-4067956.63673 19595.6158899,-4067964.73693 19584.9042312,-4067971.96625 19575.0060585,-4067980.13579 19565.0038862,-4067986.81702 19534.6745915,-4068009.37591 19532.0846881,-4068011.55099 19522.1518445,-4068019.22443 19518.3910149,-4068022.47839 19515.3050075,-4068024.68814 19511.2614593,-4068027.46332 19507.4312961,-4068029.72507 19498.3866578,-4068035.84088 19495.4447017,-4068036.54498 19492.5374121,-4068037.74519 19486.0826767,-4068041.68591 19482.5005643,-4068043.93033 19466.6144674,-4068052.01979 19461.7227603,-4068053.35867 19456.190897,-4068056.23786 19451.5819081,-4068058.0555 19441.5851059,-4068061.24669 19429.7425524,-4068066.56097 19394.895086,-4068077.96954 19384.9329421,-4068081.65684 19372.5249398,-4068086.01359 19368.8388206,-4068086.7697 19359.0900581,-4068089.94356 19351.9658704,-4068091.43844 19340.9421755,-4068094.20287 19333.1431623,-4068096.74197 19314.1070632,-4068102.55894 19305.1024505,-4068105.68081 19303.1873634,-4068106.81169 19300.06668,-4068108.52534 19297.1593819,-4068109.72555 19289.2163125,-4068113.7703 19285.316803,-4068115.03985 19282.1961188,-4068116.75351 19278.3659435,-4068119.01527 19272.2686252,-4068120.93693 19267.4115707,-4068122.77192 19259.3644958,-4068125.32835 19252.344299,-4068128.31156 19249.3329967,-4068128.02345 19247.4179082,-4068129.15434 19244.441273,-4068129.36234 19239.5148815,-4068130.20512 19236.290193,-4068130.43046 19231.9692902,-4068129.23681 19229.4887603,-4068129.41015 19226.4427895,-4068128.62594 19222.369939,-4068127.41496 19219.3933027,-4068127.62297 19215.251117,-4068125.41978 19201.2961914,-4068121.90817 19199.2770991,-4068121.55074 19194.4254204,-4068119.89565 19187.3759301,-4068118.89268 19182.3108647,-4068117.75103 19171.788628,-4068116.99072 19167.2890025,-4068116.80662 19164.381698,-4068118.00684 19158.3537028,-4068120.92071 19155.446398,-4068122.12093 19153.8140269,-4068123.73059 19152.4297092,-4068125.32291 19147.4632612,-4068129.15966 19143.5236937,-4068133.42319 19141.4645508,-4068136.05973 19138.3785269,-4068138.26949 19136.5327699,-4068140.39259 19134.5082945,-4068143.52523 19133.6200835,-4068145.08289 19129.571133,-4068151.34818 19128.7175897,-4068153.40194 19126.6931146,-4068156.53459 19125.6608533,-4068159.5979 19124.7726426,-4068161.15555 19123.6017108,-4068162.23443 19122.7481677,-4068164.2882 19121.6465713,-4068166.35929 19121.2544675,-4068167.88228 19120.8623638,-4068169.40527 19117.9496787,-4068174.09557 19116.8134147,-4068175.67056 19113.9007298,-4068180.36087 19111.8069198,-4068182.5013 19110.030499,-4068185.61661 19106.0562647,-4068189.38404 19102.0473624,-4068192.65536 19098.0731279,-4068196.42278 19094.0295575,-4068199.198 19086.1904696,-4068204.73109 19084.5580985,-4068206.34075 19083.1737811,-4068207.93307 19080.2664739,-4068209.1333 19078.5994347,-4068210.24685 19077.2151172,-4068211.83918 19071.1871168,-4068214.75306 19065.193784,-4068218.16306 19048.3847152,-4068227.31416 19034.8750547,-4068233.74205 19031.5063062,-4068235.47306 19025.5422628,-4068242.86925 19023.4831199,-4068245.5058 19013.7928937,-4068256.65209 19012.6219611,-4068257.73098 19007.7248453,-4068262.55997 19005.809751,-4068263.69086 19001.8355138,-4068267.4583 18998.7494867,-4068269.66807 18995.7327966,-4068272.87007 18989.9528443,-4068275.76663 18986.8668168,-4068277.97641 18981.8310258,-4068280.82097 18978.000836,-4068283.08275 18972.9650444,-4068285.92731 18968.9214688,-4068288.70253 18965.0912784,-4068290.96431 18957.0387951,-4068297.01087 18952.1763461,-4068302.33598 18949.0556487,-4068304.04965 18929.2884603,-4068324.37519 18924.3220042,-4068328.21198 18916.3388565,-4068335.25076 18913.5355504,-4068337.93932 18910.4841899,-4068340.64521 18901.5088242,-4068347.75334 18893.7737297,-4068354.77479 18892.1066875,-4068355.88835 18889.2687118,-4068358.0808 18881.6776633,-4068363.5966 18870.7178598,-4068370.84341 18860.9983276,-4068378.00355 18856.9894172,-4068381.27489 18851.4921795,-4068384.65024 18846.9178208,-4068386.96404 18844.9680537,-4068387.59883 18843.5490652,-4068388.69505 18840.9244732,-4068390.37406 18837.0596081,-4068392.13975 18833.9735762,-4068394.34953 18831.0315903,-4068395.05366 18821.1733756,-4068400.22937 18817.0257852,-4068401.51628 18814.1531377,-4068403.21263 18798.2722675,-4068407.81215 18785.3333815,-4068411.70756 18779.2360198,-4068413.62926 18775.3364816,-4068414.89883 18742.7958832,-4068423.6538 18722.5193437,-4068429.55758 18700.5757513,-4068436.57494 18678.5628116,-4068442.60008 18656.6538742,-4068450.11355 18653.6425401,-4068449.82546 18651.6580972,-4068449.96414 18627.8286817,-4068462.09863 18625.6655227,-4068463.24687 18622.7581971,-4068464.44711 18620.8430934,-4068465.57801 18617.7223822,-4068467.2917 18615.8072784,-4068468.4226 18591.8338064,-4068482.06278 18588.9611497,-4068483.75913 18577.931963,-4068490.01377 18564.1687985,-4068499.94922 18558.1807907,-4068499.86915 18540.251434,-4068500.12506 18436.5103903,-4068542.27239 18427.5750036,-4068546.38659 18392.8256715,-4068562.77404 18377.8329116,-4068565.81595 18370.743286,-4068567.80702 18363.8323743,-4068568.78852 18183.4839647,-4068634.73569 18137.7213238,-4068646.90754 18071.9299642,-4068664.96597 18030.4721757,-4068688.80193 18028.0956122,-4068690.46364 18012.070507,-4068696.56897 18006.1517873,-4068697.48115 18001.2946429,-4068699.31622 17997.1470004,-4068700.60316 17992.2205115,-4068701.44599 17988.3209264,-4068702.7156 17983.1463788,-4068703.57577 17978.2545607,-4068704.91472 17974.3203028,-4068705.68822 17969.180426,-4068707.0445 17963.2617022,-4068707.95668 17958.3352106,-4068708.79952 17956.1720309,-4068709.94778 17953.1953324,-4068710.15581 17949.261073,-4068710.9293 17946.3537182,-4068712.12957 17944.4385963,-4068713.26049 17941.248511,-4068713.98197 17937.3489228,-4068715.25158 17935.4338007,-4068716.3825 17932.243715,-4068717.10399 17929.3710315,-4068718.80037 17923.377606,-4068722.21047 17919.3686467,-4068725.48188 17917.418852,-4068726.11669 17916.5653071,-4068728.1705 17912.4870034,-4068730.44968 17911.6334585,-4068732.50349 17909.4702774,-4068733.65175 17907.5898268,-4068735.27879 17904.5731007,-4068738.48086 17901.5563747,-4068741.68293 17900.7028299,-4068743.73674 17898.7530348,-4068744.37155 17896.797887,-4068748.49651 17894.6347056,-4068749.64477 17893.781161,-4068751.69858 17890.7991074,-4068755.39677 17888.6705982,-4068757.04114 17886.7901475,-4068758.66818 17885.6885446,-4068760.73933 17884.8350002,-4068762.79314 17877.8439867,-4068769.76275 17876.459653,-4068771.35512 17875.3233778,-4068772.93015 17871.5278037,-4068775.68812 17869.0071947,-4068778.85552 17866.982703,-4068781.98825 17864.1100178,-4068783.68464 17862.0161809,-4068785.82513 17853.0753707,-4068793.42955 17851.1949197,-4068795.05659 17842.1500907,-4068801.17266 17839.2774048,-4068802.86905 17832.3210627,-4068810.33479 17830.3712658,-4068810.9696 17828.9175863,-4068811.56973 17827.215848,-4068812.1872 17824.3431617,-4068813.88359 17820.7262989,-4068815.63199 17817.322822,-4068816.86694 17812.4309922,-4068818.2059 17808.3526841,-4068820.48509 17804.418416,-4068821.25859 17801.4417101,-4068821.46663 17797.5421144,-4068822.73625 17795.3442577,-4068823.38839 17791.4446616,-4068824.65801 17789.4948635,-4068825.29282 17784.5336858,-4068825.63955 17772.5521631,-4068828.96962 17769.6101286,-4068829.67378 17764.0087911,-4068831.56087 17757.6286031,-4068833.00386 17751.6004925,-4068835.91786 17747.7008938,-4068837.18748 17744.4761261,-4068837.41285 17738.5173603,-4068841.31909 17732.7373071,-4068844.21576 17725.6476116,-4068846.20688 17720.7904479,-4068848.04196 17679.8099577,-4068860.87687 17634.0762912,-4068877.03525 17618.9739862,-4068882.07907 17611.001406,-4068882.13773 17609.478375,-4068881.74563 17605.970867,-4068881.49222 17603.4902707,-4068881.66559 17601.9325662,-4068880.77737 17597.1154129,-4068879.61841 17594.1040236,-4068879.33033 17591.5194068,-4068878.01534 17589.0041367,-4068877.69258 17586.3848465,-4068875.88147 17584.5097354,-4068874.01835 17581.428999,-4068872.73803 17579.3405014,-4068871.38837 17577.8921634,-4068868.49833 17576.3344585,-4068867.61012 17573.8938815,-4068864.78943 17571.840057,-4068863.93588 17570.4263923,-4068861.54197 17565.7879506,-4068859.37343 17559.2743974,-4068855.34177 17551.7339314,-4068850.88333 17549.7147795,-4068850.5259 17547.6956276,-4068850.16847 17545.1110098,-4068848.85348 17539.7630601,-4068847.23307 17530.590192,-4068844.38434 17526.7652739,-4068843.15603 17520.63847,-4068841.09151 17514.6850304,-4068841.50758 17510.6120514,-4068840.29661 17497.6782566,-4068840.70199 17493.7439684,-4068841.47549 17490.5885333,-4068842.69311 17487.115692,-4068842.93582 17482.6159369,-4068842.75175 17477.6894072,-4068843.5946 17472.7975502,-4068844.93357 17470.5650087,-4068845.0896 17466.6307188,-4068845.86311 17462.6964287,-4068846.63661 17459.7197062,-4068846.84465 17455.8200887,-4068848.11428 17453.6222196,-4068848.76642 17448.7303607,-4068850.1054 17445.7883106,-4068850.80956 17443.8385014,-4068851.44437 17441.6406319,-4068852.09652 17439.7254957,-4068853.22745 17436.7834452,-4068853.93161 17434.8683088,-4068855.06254 17431.7128708,-4068856.28016 17429.2669406,-4068856.94965 17426.8556834,-4068858.11525 17424.9405468,-4068859.24619 17422.8466961,-4068861.3867 17418.9817496,-4068863.15245 17417.810794,-4068864.23137 17414.972762,-4068866.42389 17413.8018064,-4068867.50282 17409.8274918,-4068871.27039 17408.9739431,-4068873.32422 17407.0588062,-4068874.45515 17405.1383217,-4068879.07627 17404.0020393,-4068880.65131 17404.2100792,-4068883.62804 17403.073797,-4068885.20309 17403.0337767,-4068888.19715 17403.7032644,-4068890.64308 17404.228712,-4068894.59471 17404.3220398,-4068903.06344 17405.701036,-4068904.96124 17405.2689163,-4068909.47834 17406.290486,-4068913.39529 17406.2851406,-4068916.88548 17408.5763417,-4068924.70205 17411.6410545,-4068936.45292 17412.166505,-4068940.40455 17412.6919559,-4068944.35618 17415.7966893,-4068953.11299 17417.8051605,-4068960.45078 17418.8267334,-4068964.36773 17421.8914535,-4068976.1186 17424.0092912,-4068981.45456 17425.1695621,-4068987.356 17425.5909933,-4068989.81927 17426.0470989,-4068992.77866 17427.1033481,-4068997.19173 17427.3460679,-4069000.66458 17428.332969,-4069004.08541 17428.2929545,-4069007.07947 17429.2451816,-4069010.00418 17429.2745162,-4069013.99049 17429.4132138,-4069015.97497 17430.4001158,-4069019.3958 17430.6801548,-4069044.80198 17430.1786963,-4069048.32684 17429.8212743,-4069050.346 17429.7119127,-4069052.34782 17428.6796592,-4069055.41123 17428.8877076,-4069058.38795 17423.9398282,-4069073.19155 17423.0862862,-4069075.24538 17420.9871063,-4069080.87609 17420.0188683,-4069088.42192 17419.1306517,-4069089.97963 17419.2933566,-4069099.4406 17420.7016994,-4069105.3247 17419.7387986,-4069109.38036 17420.3389448,-4069110.83405 17421.8566483,-4069114.71632 17422.4567947,-4069116.17001 17422.5208113,-4069120.65244 17425.4468605,-4069130.41881 17427.6287301,-4069140.2372 17432.7713304,-4069160.31808 17436.0147973,-4069171.05936 17438.6234425,-4069179.85083 17443.1712364,-4069194.98784 17445.2144123,-4069202.82174 17445.2437595,-4069206.80804 17445.4118109,-4069212.77883 17443.3819962,-4069219.40178 17441.5308903,-4069225.01514 17439.5757563,-4069229.14015 17437.5512703,-4069232.27292 17436.4149971,-4069233.84797 17433.0408539,-4069239.06925 17428.6744694,-4069244.35988 17427.5381963,-4069245.93493 17425.761771,-4069249.05036 17423.2064883,-4069251.72169 17416.6769131,-4069258.1606 17414.7617825,-4069259.29155 17412.9160046,-4069261.41474 17410.7528135,-4069262.56303 17408.8723591,-4069264.19009 17404.7940371,-4069266.46933 17401.8519879,-4069267.17351 17398.0217259,-4069269.4354 17392.7777789,-4069269.30338 17387.8859214,-4069270.64239 17379.9133074,-4069270.70109 17377.9981758,-4069271.83204 17374.9867724,-4069271.54398 17370.9084482,-4069273.82321 17367.0435079,-4069275.58899 17364.3841941,-4069276.77195 17362.0422938,-4069278.92982 17360.1271617,-4069280.06077 17357.9986455,-4069281.70518 17356.0835134,-4069282.83613 17353.9896736,-4069284.97666 17352.0745414,-4069286.10761 17350.1940857,-4069287.73468 17349.0924887,-4069289.80585 17347.1773563,-4069290.9368 17346.0757593,-4069293.00798 17344.691425,-4069294.60037 17339.3621481,-4069303.94668 17335.4225295,-4069308.2104 17333.4327201,-4069311.8393 17326.5057266,-4069323.29147 17324.6199485,-4069328.40873 17323.0222307,-4069330.51458 17318.581169,-4069338.30318 17316.6953919,-4069343.42044 17306.3195854,-4069362.59185 17304.3644553,-4069366.71688 17303.7936588,-4069369.2495 17302.9054471,-4069370.80722 17299.9927511,-4069375.49772 17297.9335895,-4069378.13438 17296.0878116,-4069380.25757 17294.1326822,-4069384.3826 17293.0310871,-4069386.45378 17290.5798361,-4069390.61348 17287.101664,-4069394.34641 17286.2134526,-4069395.90413 17285.1118577,-4069397.97531 17283.3007575,-4069400.59463 17281.8470692,-4069401.19479 17279.7532305,-4069403.33532 17275.1787819,-4069405.64925 17256.3555026,-4069410.95331 17240.3702411,-4069414.06482 17223.4620859,-4069418.23793 17205.561681,-4069422.4804 17195.4605231,-4069424.18354 17193.4760325,-4069424.32225 17191.5262195,-4069424.95708 17185.3940411,-4069426.3828 17177.4907547,-4069427.43377 17174.5486957,-4069428.13796 17171.6066364,-4069428.84215 17164.6262386,-4069428.83151 17156.5442435,-4069430.89206 17152.0097813,-4069430.21192 17149.4944885,-4069429.88918 17147.5099964,-4069430.02789 17144.9947035,-4069429.70516 17118.4174368,-4069431.06429 17114.6271567,-4069430.33213 17110.6234925,-4069430.11343 17106.5851503,-4069429.3986 17104.035178,-4069428.57974 17098.4737874,-4069427.47283 17094.4007668,-4069426.26188 17092.5949793,-4069425.391 17086.468109,-4069423.32652 17079.4930198,-4069419.82568 17078.3967398,-4069418.40666 17076.3428901,-4069417.55313 17071.4216501,-4069414.90582 17069.2637676,-4069412.56391 17052.2328112,-4069404.28192 17045.2577197,-4069400.78108 17043.2038693,-4069399.92754 17040.6885724,-4069399.6048 17038.138598,-4069398.78594 17035.3405615,-4069397.98442 17032.7905868,-4069397.16556 17030.2752896,-4069396.84282 17025.2446947,-4069396.19735 17017.2720325,-4069396.25607 17013.6551341,-4069398.00452 17011.1745135,-4069398.17791 17008.301801,-4069399.87434 17004.6849021,-4069401.6228 17002.7697603,-4069402.75375 16996.81095,-4069406.66009 16994.2209767,-4069408.83532 16991.7750328,-4069409.50483 16990.3906925,-4069411.09723 16984.3225296,-4069417.00541 16982.0499735,-4069420.15554 16980.417571,-4069421.76529 16979.5640328,-4069423.81914 16977.435506,-4069425.46356 16976.5819679,-4069427.51742 16974.5574741,-4069430.65021 16973.5252294,-4069433.71365 16971.6794425,-4069435.83686 16970.5778424,-4069437.90806 16969.7589823,-4069440.45803 16968.7960936,-4069444.51372 16966.7716003,-4069447.64652 16965.3819432,-4069452.72914 16963.9229306,-4069456.81951 16962.9600428,-4069460.8752 16959.436544,-4069471.09245 16958.8657473,-4069473.62509 16958.0415728,-4069479.66528 16956.2251497,-4069485.77483 16955.0835577,-4069490.84011 16953.1977791,-4069495.95741 16952.3042501,-4069501.00535 16950.8452402,-4069505.09572 16950.2050882,-4069506.63611 16947.4657748,-4069513.80727 16945.4012923,-4069519.93415 16944.5130782,-4069521.49189 16942.5926232,-4069526.11306 16941.9524716,-4069527.65345 16941.5603823,-4069529.1765 16940.4241061,-4069530.75158 16938.6076873,-4069536.86113 16935.7990194,-4069543.04003 16933.3477622,-4069547.19976 16929.898944,-4069554.91907 16927.9438121,-4069559.04412 16925.8499654,-4069561.18467 16923.8948337,-4069565.30973 16919.9205239,-4069569.07737 16918.005382,-4069570.20833 16916.9037851,-4069572.27953 16914.9886431,-4069573.4105 16912.8601174,-4069575.05493 16909.9527254,-4069576.25525 16907.0453333,-4069577.45557 16903.641816,-4069578.69057 16901.4786111,-4069579.83888 16899.0326648,-4069580.5084 16897.0828434,-4069581.14324 16890.6332171,-4069581.59407 16882.6605355,-4069581.6528 16880.1452306,-4069581.33007 16874.0130229,-4069582.75581 16870.9322345,-4069581.47551 16864.9787307,-4069581.89166 16861.9672997,-4069581.6036 16855.1655702,-4069580.58339 16850.134958,-4069579.93793 16847.1235263,-4069579.64988 16844.6428989,-4069579.82327 16842.1622713,-4069579.99667 16839.1161603,-4069579.21249 16837.166337,-4069579.84733 16833.9415207,-4069580.07274 16828.1614079,-4069582.96952 16825.0753069,-4069585.17943 16822.2372687,-4069587.37201 16817.2360226,-4069590.71289 16811.2772037,-4069594.61926 16794.3130202,-4069612.2572 16789.5198481,-4069618.57484 16760.8407916,-4069650.49253 16758.7469416,-4069652.63309 16756.9011547,-4069654.75631 16755.7301981,-4069655.83526 16751.4678326,-4069662.61436 16744.8982341,-4069672.04749 16741.0626364,-4069677.79966 16733.1086988,-4069688.8252 16725.1200821,-4069699.35463 16722.3167225,-4069702.04334 16712.3382965,-4069716.20172 16702.6079351,-4069730.34276 16701.0102121,-4069732.44864 16693.6964275,-4069741.93381 16690.714365,-4069745.63212 16689.8261521,-4069747.18986 16687.6629421,-4069748.33817 16686.8094095,-4069750.39204 16682.8004132,-4069753.66358 16678.6873758,-4069755.44675 16677.3723968,-4069758.03142 16675.9186964,-4069758.63159 16671.840339,-4069760.91088 16669.9598724,-4069762.53798 16667.7966618,-4069763.6863 16664.8892608,-4069764.88663 16662.0165399,-4069766.5831 16656.9459278,-4069768.93175 16654.0038458,-4069769.63596 16650.9177415,-4069771.84589 16646.983405,-4069772.61946 16635.924585,-4069774.88815 16631.9555671,-4069775.1656 16627.0289749,-4069776.00853 16591.1984578,-4069780.50737 16589.4620113,-4069780.62875 16587.938948,-4069780.23667 16585.1009043,-4069782.42926 16582.1241385,-4069782.63734 16578.5818838,-4069781.88785 16564.0901378,-4069781.4052 16557.0749872,-4069780.89848 16553.0366033,-4069780.18366 16543.9675787,-4069778.8234 16541.9830669,-4069778.96212 16531.4950175,-4069778.69816 16520.9722859,-4069777.93806 16514.1705142,-4069776.91786 16512.1166404,-4069776.06433 16474.3574274,-4069767.23707 16471.0285508,-4069765.9741 16469.0093563,-4069765.6167 16467.4862902,-4069765.22461 16465.9632241,-4069764.83252 16449.9883681,-4069760.96367 16436.326054,-4069750.95052 16407.3555486,-4069718.07688 16400.2175774,-4069705.11489 16395.1628582,-4069696.99282 16382.7355608,-4069690.38319 16378.5584483,-4069687.68385 16374.5600409,-4069683.97492 16368.4730772,-4069678.91631 16359.9507611,-4069667.54674 16345.8323037,-4069654.57412 16343.7090677,-4069652.72832 16340.806958,-4069650.43841 16337.7261422,-4069649.1581 16330.6469188,-4069644.16884 16328.7717476,-4069642.3057 16326.6831908,-4069640.95603 16317.5500894,-4069635.11323 16313.6210403,-4069632.39655 16301.5564592,-4069620.27745 16288.4302603,-4069607.23545 16287.3339632,-4069605.81642 16286.237666,-4069604.39739 16284.3624948,-4069602.53424 16282.4179657,-4069599.67884 16279.6598835,-4069595.88319 16278.3155215,-4069594.4815 16274.1783986,-4069588.78803 16272.2685487,-4069586.42876 16270.0759549,-4069583.59069 16269.1236866,-4069580.66593 16267.179158,-4069577.81052 16265.9788249,-4069574.9031 16263.9996178,-4069571.55157 16263.0820287,-4069569.12293 16262.4125049,-4069566.67696 16260.8947497,-4069562.79461 16254.8184161,-4069550.75548 16254.7890526,-4069546.7691 16254.2982377,-4069543.31353 16254.1248451,-4069540.83288 16254.1301607,-4069537.34263 16253.5112651,-4069524.92203 16253.4125466,-4069519.94339 16252.3909246,-4069516.02636 16252.43092,-4069513.03224 16251.3746201,-4069508.61909 16249.2220253,-4069502.7869 16248.3391171,-4069500.85439 16247.7389522,-4069499.40068 16246.186523,-4069495.0222 16244.2073199,-4069491.67067 16243.324412,-4069489.73816 16241.5932743,-4069486.36928 16240.1795581,-4069483.97533 16238.0563243,-4069482.12952 16237.2080947,-4069480.69314 16236.0771218,-4069478.77798 16235.1942142,-4069476.84547 16232.5401721,-4069474.53821 16230.5956477,-4069471.6828 16228.9685446,-4069469.80231 16228.0856372,-4069467.86981 16225.500951,-4069466.55481 16223.9085258,-4069465.17045 16221.8546479,-4069464.3169 16220.4756101,-4069462.41907 16217.0080165,-4069459.17156 16210.8117045,-4069456.11478 16207.7655651,-4069455.33059 16203.8711962,-4069453.11002 16200.8250565,-4069452.32582 16198.7711781,-4069451.47227 16191.7906699,-4069451.46163 16189.7367912,-4069450.60808 16185.7330671,-4069450.38937 16177.8696501,-4069448.44622 16173.8312474,-4069447.73138 16161.3639391,-4069444.11581 16156.8294044,-4069443.43565 16113.2204996,-4069436.51264 16079.8650093,-4069444.32817 16077.8804826,-4069444.46688 16060.8626483,-4069450.64192 16029.0595611,-4069462.83596 16015.0825428,-4069473.28547 16012.4578495,-4069474.96459 16006.1068438,-4069480.39407 15994.0556359,-4069482.73207 15991.1135196,-4069483.43627 15989.163668,-4069484.07112 15986.2215514,-4069484.77532 15984.2716997,-4069485.41016 15980.8334504,-4069486.14904 15978.1740778,-4069487.33204 15973.1380766,-4069490.17682 15964.1676923,-4069493.79516 15950.4627698,-4069511.70401 15945.4214487,-4069518.03907 15938.9957643,-4069525.96656 15908.8278314,-4069557.98864 15898.998573,-4069567.15115 15895.0588707,-4069571.41498 15882.068788,-4069585.28545 15856.3713681,-4069613.50521 15851.4047195,-4069617.34227 15846.6514584,-4069620.66586 15842.6423976,-4069623.93744 15837.6410693,-4069627.27837 15833.5973289,-4069630.05381 15826.219369,-4069635.05654 15813.8747583,-4069643.89634 15811.7115145,-4069645.04467 15793.80539,-4069652.77754 15790.8632652,-4069653.48176 15786.8595134,-4069653.26306 15782.8904407,-4069653.54049 15765.5257447,-4069654.75427 15757.3395292,-4069655.32648 15753.8319095,-4069655.0731 15749.8281553,-4069654.8544 15741.7859668,-4069653.92087 15725.4535194,-4069652.07114 15707.8407398,-4069653.30226 15705.8562009,-4069653.44097 15704.3331174,-4069653.04888 15701.887123,-4069653.71841 15698.9103144,-4069653.92648 15694.9065567,-4069653.70778 15689.9798877,-4069654.55071 15687.7819602,-4069655.20291 15685.8667794,-4069656.33389 15680.8654392,-4069659.67484 15674.8718288,-4069663.08514 15660.2146008,-4069678.06932 15630.3852568,-4069697.1054 15614.388956,-4069707.19761 15612.5431332,-4069709.32087 15594.5569781,-4069723.04209 15592.7111552,-4069725.16535 15590.5479046,-4069726.31368 15587.7098103,-4069728.50631 15583.5966966,-4069730.28949 15580.6892421,-4069731.48984 15578.7740591,-4069732.62083 15577.3203318,-4069733.22101 15575.5838565,-4069733.34239 15571.7534901,-4069735.60437 15567.7497234,-4069735.38568 15562.3615888,-4069736.75943 15557.6829776,-4069737.58503 15555.7677939,-4069738.71602 15547.7949382,-4069738.77476 15537.6588291,-4069739.98184 15530.1821072,-4069740.0059 15524.7592893,-4069740.88352 15517.8480621,-4069741.86518 15484.8496846,-4069747.6617 15474.9616334,-4069748.85143 15469.7868789,-4069749.71171 15422.8619604,-4069755.98315 15415.4892649,-4069757.49562 15387.9483432,-4069762.91067 15385.9984741,-4069763.54553 15381.0717809,-4069764.38847 15370.1220777,-4069764.6553 15365.9395895,-4069765.44622 15360.1646477,-4069764.85276 15354.9552034,-4069765.21691 15352.0824185,-4069766.9134 15350.1325483,-4069767.54826 15347.5078321,-4069769.22741 15344.635047,-4069770.92391 15308.2170524,-4069788.42641 15304.3519898,-4069790.19226 15302.2234101,-4069791.83674 15299.3159428,-4069793.0371 15296.4084755,-4069794.23746 15292.8261618,-4069796.48211 15289.2785284,-4069799.22291 15285.4481453,-4069801.4849 15282.3272889,-4069803.19874 15273.4261763,-4069807.80944 15270.5533885,-4069809.50593 15265.4479782,-4069811.3585 15261.617594,-4069813.62049 15257.4697792,-4069814.90755 15253.604714,-4069816.67341 15215.738243,-4069831.28583 15195.6686947,-4069840.16717 15174.0360584,-4069851.65058 15170.9551814,-4069850.37025 15165.0015123,-4069850.78642 15154.4438664,-4069849.53016 15149.9439325,-4069849.34615 15145.9054567,-4069848.63132 15140.4826053,-4069849.50895 15119.9275011,-4069851.44435 15112.8775053,-4069850.44146 15087.9717845,-4069847.19677 15061.7910234,-4069843.54263 15056.2294413,-4069842.4357 15015.764642,-4069841.27572 15011.7608385,-4069841.05703 15001.8033498,-4069841.2545 14996.2417624,-4069840.14757 14992.7340982,-4069839.8942 14972.8937796,-4069837.7911 14964.8861668,-4069837.35371 14962.9016039,-4069837.49244 14951.7037552,-4069837.77661 14938.7347305,-4069837.68603 14928.2464083,-4069837.42204 14891.7853373,-4069836.48075 14884.8046776,-4069836.47014 14861.843447,-4069836.08089 14798.2732382,-4069836.0374 14766.381414,-4069836.2724 14750.683567,-4069836.37256 14742.7799678,-4069837.42359 14740.7953977,-4069837.56231 14721.2724319,-4069836.43415 14718.2955756,-4069836.64223 14706.8149305,-4069836.4476 14681.4075994,-4069836.72789 14660.7589129,-4069830.19417 14635.1487867,-4069824.00725 14632.5640279,-4069822.69222 14628.5655076,-4069818.98318 14613.7211909,-4069817.02939 14585.5262871,-4069809.52743 14556.5524755,-4069801.58134 14526.2689307,-4069792.72965 14515.3590657,-4069790.00226 14513.8359523,-4069789.61016 14498.3914246,-4069786.20261 14479.9006651,-4069782.01085 14471.2581242,-4069779.62355 14460.2788902,-4069775.90387 14445.117103,-4069772.97511 14438.2457454,-4069770.96257 14431.195675,-4069769.95966 14425.1032138,-4069768.39124 14423.1186334,-4069768.52996 14418.0184618,-4069766.89218 14414.7588382,-4069766.62146 14412.2434322,-4069766.29871 14398.1432848,-4069764.29288 14391.1625702,-4069764.28226 14376.6009528,-4069762.80725 14356.5470503,-4069761.21758 14338.0162589,-4069760.02002 14312.6834514,-4069757.80219 14303.6141029,-4069756.44185 14286.0755883,-4069755.17492 14272.0794531,-4069754.65752 14253.5139568,-4069752.9638 14248.0216655,-4069752.84913 14217.3752414,-4069749.507 14210.8559734,-4069748.96554 14207.8790925,-4069749.17362 14206.0732187,-4069748.30271 14202.9922977,-4069747.02235 14200.8689906,-4069745.17648 14197.8227494,-4069744.39226 14195.5207284,-4069743.55603 14193.8588882,-4069741.17934 14190.8126467,-4069740.39512 14187.3102525,-4069736.65136 14184.9041919,-4069734.32669 14182.711525,-4069731.48853 14180.7669316,-4069728.63302 14178.6783041,-4069727.2833 14177.726005,-4069724.35844 14176.594992,-4069722.44321 14176.7043467,-4069720.44128 14176.0694808,-4069718.49137 14174.725074,-4069717.08963 14173.6287408,-4069715.67055 14172.5324076,-4069714.25147 14151.4727342,-4069698.2735 14132.7844398,-4069684.12405 14129.8075551,-4069684.33213 14090.795927,-4069682.57179 14074.7804788,-4069681.69694 14040.3809571,-4069699.55711 14037.0119584,-4069701.28831 14032.5466244,-4069701.60043 14028.5427588,-4069701.38172 13972.4832961,-4069701.81012 13954.5525804,-4069702.06629 13949.0602631,-4069701.95162 13936.58718,-4069701.82631 13929.1102648,-4069701.85035 13911.4276111,-4069702.08917 13897.4660725,-4069702.0679 13893.4275187,-4069701.35304 13886.4467477,-4069701.3424 13883.6485668,-4069700.54084 13879.396617,-4069700.33947 13870.609962,-4069699.45791 13865.5444279,-4069698.31626 13856.9711665,-4069696.92121 13855.448038,-4069696.5291 13830.3977934,-4069694.79002 13816.4362366,-4069694.76875 13803.3629385,-4069693.18966 13777.5284492,-4069694.49685 13759.5629977,-4069694.25685 13751.5552313,-4069693.81942 13744.0782938,-4069693.84347 13742.0936916,-4069693.98218 13735.4303378,-4069694.94651 13728.4495491,-4069694.93587 13721.5381185,-4069695.91753 13714.3786117,-4069696.91653 13711.6151028,-4069696.61112 13698.5364634,-4069698.52243 13692.4386149,-4069700.44437 13679.608047,-4069702.33834 13671.6002702,-4069701.90091 13663.5924923,-4069701.46348 13628.6538206,-4069700.91414 13621.9557751,-4069701.38231 13618.5173936,-4069702.12122 13613.4518392,-4069700.97956 13610.44025,-4069700.69148 13607.4286606,-4069700.40341 13604.9479022,-4069700.57681 13600.9786886,-4069700.85424 13595.6303774,-4069699.23377 13589.5378382,-4069697.66532 13588.0147033,-4069697.2732 13583.4452984,-4069696.09686 13579.4067246,-4069695.38199 13576.1123784,-4069694.61511 13570.0198374,-4069693.04665 13567.3656805,-4069690.73929 13558.4055851,-4069687.37696 13554.2976511,-4069685.66979 13551.4994559,-4069684.86822 13548.3491465,-4069682.59554 13544.3105706,-4069681.88067 13542.2219239,-4069680.53093 13539.4237282,-4069679.72936 13537.865913,-4069678.84109 13534.2541302,-4069677.09924 13532.2348419,-4069676.7418 13528.4443412,-4069676.00959 13524.1923673,-4069675.80821 13521.3941709,-4069675.00665 13516.3979679,-4069674.85729 13513.3516949,-4069674.07306 13494.9246941,-4069674.36388 13488.7227867,-4069674.79737 13482.2728023,-4069675.2482 13474.8305118,-4069675.76839 13460.263363,-4069677.78374 13455.3018343,-4069678.13053 13451.193894,-4069676.42335 13446.7285176,-4069676.73547 13442.2284615,-4069676.55143 13437.2669314,-4069676.89822 13431.2090569,-4069675.82591 13429.2244446,-4069675.96463 13426.743679,-4069676.13802 13424.4069522,-4069674.80562 13417.1780521,-4069674.81232 13384.4025753,-4069673.11458 13349.8158625,-4069674.03633 13340.3542615,-4069674.19908 13339.223237,-4069672.28382 13306.3436818,-4069669.09761 13267.1234633,-4069664.36028 13263.1195488,-4069664.14155 13246.2556191,-4069661.83022 13238.2824664,-4069661.88893 13230.2399544,-4069660.95534 13193.1030226,-4069661.05816 13183.1452427,-4069661.25558 13096.1740023,-4069668.83024 13089.227821,-4069669.31574 13003.4274808,-4069675.8114 12995.4889758,-4069676.36627 12986.4487951,-4069678.99246 12981.3085083,-4069680.3489 12940.3995986,-4069690.68698 12930.6151744,-4069693.36519 12912.4654345,-4069697.62527 12908.0346983,-4069698.43354 12884.7446573,-4069704.05007 12837.2762723,-4069716.84098 12820.9324176,-4069721.972 12812.8845283,-4069724.52885 12810.9345756,-4069725.16372 12805.759595,-4069726.02402 12801.3982105,-4069727.82461 12795.8311098,-4069730.20806 12793.9851954,-4069732.33141 12792.0005625,-4069732.47013 12789.8718893,-4069734.11466 12788.0259749,-4069736.23801 12786.1107011,-4069737.36905 12785.0090241,-4069739.44038 12783.0590705,-4069740.07526 12781.9573935,-4069742.14659 12773.1199404,-4069751.2402 12765.066725,-4069757.2875 12763.2208105,-4069759.41085 12760.1344997,-4069761.6209 12758.2885852,-4069763.74425 12756.338631,-4069764.37913 12755.2369542,-4069766.45047 12749.2430516,-4069769.86092 12746.30078,-4069770.56516 12742.4008709,-4069771.83491 12739.2105195,-4069772.55649 12725.2833954,-4069773.03137 12722.4504822,-4069771.73363 12716.2484969,-4069772.16713 12713.3062237,-4069772.87137 12710.3292704,-4069773.07945 12707.3869968,-4069773.78369 12704.4100432,-4069773.99177 12702.9562463,-4069774.59197 12701.2543699,-4069775.20951 12700.4007718,-4069777.2635 12698.4508159,-4069777.89838 12697.3491383,-4069779.96972 12696.455541,-4069785.01801 12696.5542621,-4069789.99694 12697.4372209,-4069791.92955 12699.0644183,-4069793.81015 12700.6916157,-4069795.69074 12702.7402934,-4069800.0348 12704.5462101,-4069800.90573 12706.7042467,-4069803.24781 12707.5872059,-4069805.18042 12709.641202,-4069806.03402 12714.7361939,-4069811.1623 12715.8672327,-4069813.07758 12717.2116706,-4069814.47936 12718.3080292,-4069815.89847 12718.6948298,-4069817.86577 12719.8258687,-4069819.78104 12720.8128693,-4069823.20213 12652.6231404,-4069853.39619 12242.926591,-4069516.56922 10817.4993591,-4068354.24589 10814.3489738,-4068351.97304 10778.1260523,-4068333.06432 10669.6359592,-4068275.32837 10661.6234678,-4068232.01163 10621.630793,-4068016.42016 10614.1092258,-4067976.55926 10547.3598851,-4067898.95405 10570.3110761,-4067838.51607 10571.3088667,-4067834.95618 10575.9457428,-4067815.68553 10605.0422144,-4067700.47122 10600.5925151,-4067622.50232 10605.5414134,-4067607.69728 10605.4775405,-4067603.21437 10603.7444317,-4067578.40559 10608.4561607,-4067556.63677 10641.7088927,-4067525.89378 10645.134622,-4067510.69657 10631.4769691,-4067497.19136 10634.6709949,-4067471.5398 10642.6698614,-4067432.58909 10669.3391749,-4067396.82153 10672.9035752,-4067383.60903 10689.4597063,-4067356.5255 10709.2008526,-4067332.21107 10717.5190499,-4067315.67494 10715.5507546,-4067305.34192 10712.347493,-4067291.605 10700.0908606,-4067266.03559 10715.0873648,-4067216.62425 10712.4277686,-4067149.99821 10723.3748532,-4067039.04394 10730.1115949,-4067014.1422 10730.0003893,-4066994.70475 10722.7584872,-4066980.25274 10725.9472286,-4066958.09181 10752.8192107,-4066928.79211 10759.3408501,-4066882.96445 10747.3396808,-4066875.32658 10714.6251204,-4066856.6706 10715.1470764,-4066817.74372 10715.9644668,-4066793.75406 10708.6934539,-4066775.31529 10711.9279225,-4066746.66945 10704.9726726,-4066707.76623 10693.7432928,-4066682.62359 10701.0110077,-4066658.18341 10708.4031068,-4066599.8301 10709.3718176,-4066592.28351 10716.9845093,-4066551.36564 10721.4374696,-4066536.59538 10714.5808006,-4066502.67122 10719.9568147,-4066486.83931 10717.7807398,-4066473.52923 10697.3832611,-4066442.04655 10698.8938531,-4066427.98039 10720.7279734,-4066380.08619 10726.6805384,-4066358.2309 10729.4190213,-4066329.61976 10729.8860665,-4066325.59839 10731.2440206,-4066273.64973 10736.3885836,-4066247.36354 10745.1033256,-4066204.37441 10769.4781642,-4066185.71996 10775.2464726,-4066168.36493 10796.935176,-4066100.53731 10807.5446844,-4066091.8189 10806.7698786,-4066066.44474 10814.8735285,-4066028.98291 10814.4965145,-4065998.59504 10814.2997006,-4065988.63691 10807.2631676,-4065934.28302 10819.2628149,-4065920.48163 10835.7460365,-4065917.3362 10862.860961,-4065891.51025 10869.2641057,-4065876.10532 10873.7907,-4065837.39758 10870.506034,-4065808.20998 10859.7787817,-4065779.54209 10864.589491,-4065762.7526 10869.9185985,-4065731.96631 10855.5740232,-4065705.04679 10853.8998517,-4065688.21154 10845.2446099,-4065671.36517 10852.565303,-4065658.38916 10860.2658289,-4065629.43167 10876.7199633,-4065622.29961 10882.1654708,-4065607.46019 10878.4664237,-4065593.75789 10866.4128549,-4065574.65585 10866.0304953,-4065547.75856 10865.943257,-4065535.79843 10840.1923483,-4065506.18517 10839.8793097,-4065480.28021 10851.2653622,-4065429.12734 10847.6523647,-4065405.94577 10839.8800401,-4065391.0321 10837.4314414,-4065348.8227 10821.095591,-4065304.0928 10812.5041603,-4065291.72927 10783.1583125,-4065249.90208 10773.354375,-4065220.17244 10761.8831275,-4065191.55639 10728.8764201,-4065090.15356 10726.9721917,-4065084.30339 10706.990084,-4065037.33497 10706.2391599,-4065019.43805 10706.2905914,-4065009.46259 10711.2288894,-4065001.63892 10728.3112123,-4064978.5082 10763.0301212,-4064940.18557 10764.8416129,-4064937.56614 10778.7278503,-4064918.64733 10784.6620639,-4064864.38505 10791.700199,-4064850.93029 10810.8130988,-4064821.17618 10811.0489754,-4064806.70054 10790.7038802,-4064765.24199 10793.0779316,-4064699.26209 10806.8078824,-4064667.39087 10825.6156675,-4064651.12012 10826.0360106,-4064632.14429 10814.6221666,-4064590.06221 10822.333527,-4064532.68443 10826.4977065,-4064499.48668 10829.8661259,-4064476.31633 10833.2345536,-4064453.14598 10835.9570112,-4064435.00664 10837.3931446,-4064423.43878 10837.7161342,-4064420.92328 10853.8375587,-4064312.60077 10870.5415316,-4064194.76446 10887.3149864,-4064077.92058 10889.2932892,-4064059.83323 10906.528527,-4063942.45863 10906.6727147,-4063940.9528 10909.8625123,-4063918.79218 10918.756956,-4063853.35464 10888.3725758,-4063775.2024 10856.1188248,-4063691.69608 10839.7092703,-4063649.46403 10848.8356483,-4063615.92009 10874.3573446,-4063524.39259 10858.6751258,-4063492.58016 10840.1311342,-4063455.48295 10813.1759888,-4063447.89099 10732.3451199,-4063425.61124 10656.3663338,-4063404.98715 10585.6665646,-4063384.99176 10610.1906871,-4063297.0238 10698.353296,-4063256.4682 10720.5886537,-4063246.44038 10792.2967475,-4063213.01632 10809.2126748,-4063205.35411 10877.8686903,-4063174.63608 10897.2882617,-4063152.83867 10902.0185884,-4063120.59883 10902.1623863,-4063097.65369 11209.7051052,-4062910.66057 11287.8512073,-4062862.32885 11366.2453242,-4062813.97992 11378.5974562,-4062801.6505 11414.6040112,-4062778.19732 11546.0413382,-4062689.75056 11560.1706687,-4062695.74477 11611.3563203,-4062664.75093 11637.1799068,-4062648.98863 11733.5221213,-4062589.91474 11744.0223111,-4062583.19906 11855.2262065,-4062515.60961 11914.0733486,-4062480.09279 11954.7240052,-4062455.31876 11994.8784786,-4062430.57937 12052.0235729,-4062395.68004 12067.5949595,-4062386.61626 12155.1038846,-4062333.14525 12233.0702954,-4062285.82457 12307.6673628,-4062240.23481 12450.1573897,-4062153.01341 12418.6451186,-4062094.38584 12407.8333429,-4062075.19716 12398.3312093,-4062056.91424 12392.6080094,-4062046.34488 12345.6916704,-4061959.87452 12271.8557448,-4061823.43018 12269.2768571,-4061818.62434 12252.4996724,-4061785.39302 12195.066191,-4061673.23144 12153.279179,-4061592.38568 12120.959643,-4061529.32671 12103.357537,-4061502.13574 12091.2304807,-4061485.53152 12083.3554283,-4061469.12925 12083.4132024,-4061455.66361 12074.8053604,-4061453.77122 12056.5456357,-4061417.1531 12052.8706079,-4061410.92795 12032.989759,-4061368.93854 12011.6088464,-4061334.03385 11997.7742436,-4061300.09844 11982.9011145,-4061272.71699 11977.4953254,-4061263.12252 11933.6548624,-4061181.42233 11891.2625574,-4061102.6125 11855.2338125,-4061032.83169 11801.0494682,-4060927.92091 11792.39568,-4060911.07424 11782.8246045,-4060891.79865 11757.7805642,-4060843.68753 11734.2192231,-4060798.96302 11712.3194434,-4060756.61548 11703.7349072,-4060740.7611 11700.2734079,-4060734.02241 11695.5022789,-4060726.37791 11685.9946298,-4060711.58507 11682.885037,-4060706.31758 11634.1814662,-4060629.94168 11627.5007303,-4060619.93745 11576.8530123,-4060540.70554 11546.7032386,-4060494.44599 11524.8957339,-4060460.56768 11523.5168945,-4060458.66953 11494.9940843,-4060414.29076 11483.8595633,-4060397.61696 11417.4102527,-4060295.55482 11416.3141044,-4060294.13552 11374.2223647,-4060226.77097 11328.0287778,-4060154.20798 11310.109813,-4060126.04126 11261.9375002,-4060050.12605 11214.2614214,-4059974.17613 11172.5218096,-4059908.28237 11112.4768936,-4059812.25425 11077.0661589,-4059754.89347 11050.1706026,-4059712.39497 11030.803754,-4059681.33747 11013.4157074,-4059653.63206 10987.6163377,-4059612.55279 10946.9385313,-4059547.58172 10941.319452,-4059538.50042 10916.0509051,-4059497.88263 10893.6092107,-4059462.05356 10850.9527327,-4059393.73017 10847.3470464,-4059388.49714 10814.8672006,-4059337.41317 10792.6736571,-4059301.56669 10747.2250754,-4059228.95049 10742.1713927,-4059220.82689 10688.8769795,-4059135.79436 10616.2506221,-4059020.19997 10612.2930888,-4059013.49567 10527.9040376,-4058875.78607 10479.0982372,-4058797.91889 10416.0142265,-4058697.61335 10336.886829,-4058571.00368 10301.2633971,-4058514.155 10298.1885266,-4058509.38347 10290.6253959,-4058497.44598 10235.8491049,-4058409.02549 10155.5568207,-4058280.00339 10051.9409541,-4058113.21812 10006.1760764,-4058039.62518 10061.8593213,-4058012.31011 10130.9287499,-4057969.60293 10193.5358122,-4057934.32652 10252.6635829,-4057902.78281 10316.4072426,-4057865.93154 10385.897474,-4057825.68828 10515.6067721,-4057737.37222 10537.0355236,-4057722.91541 10547.7498976,-4057715.68701 10629.3511074,-4057659.64236 10670.5411095,-4057631.84224 10728.22663,-4057593.91794 10802.586561,-4057544.85988 10985.8955101,-4057424.3901 10993.7365439,-4057418.8578 11164.6288018,-4057306.2342 11196.5927857,-4057285.55906 11346.0215321,-4057186.89644 11421.5522451,-4057136.76054 11457.3125982,-4057113.3281 11500.4523412,-4057084.89421 11595.8477504,-4057022.90408 11667.3337337,-4056975.54331 11740.9486811,-4056926.53855 11742.4026028,-4056925.93866 11802.8751552,-4056874.35983 11846.6327928,-4056836.90885 11852.9852646,-4056831.48042 11875.8045446,-4056811.94156 11912.0730079,-4056781.494 11947.1356266,-4056751.62909 11976.3419352,-4056727.15804 12032.0602096,-4056678.90233 12048.2789187,-4056664.80926 12114.1806402,-4056608.86403 12117.7635672,-4056606.62007 12270.4360733,-4056475.82582 12346.2039303,-4056411.21639 12474.2452477,-4056302.58066 12578.7230452,-4056213.53565 12609.5275104,-4056186.95946 12665.1012039,-4056140.21048 12723.0173891,-4056091.30411 12746.7597232,-4056070.70432 12753.3602387,-4056065.25877 12759.7126748,-4056059.8305 12917.6775868,-4055901.24906 13078.0195259,-4055741.00713 13198.3191526,-4055621.44643 13309.372943,-4055480.09503 13390.0595242,-4055378.75027 13391.4442906,-4055377.15811 13420.998235,-4055336.21155 13495.062092,-4055232.83571 13592.1425067,-4055098.44182 13615.9193569,-4055078.33886 13621.3831626,-4055074.46835 13647.3174188,-4055056.70791 13750.9161329,-4054983.68172 13759.5012237,-4054978.09812 13885.6646587,-4054889.04226 13821.4844419,-4054772.86212 13888.3434936,-4054716.35523 13977.4909076,-4054639.84947 14010.9635914,-4054587.16395 14065.3300627,-4054501.61429 14034.2629004,-4054456.41545 14128.8410864,-4054314.72002 14238.0928989,-4054151.06389 14349.6874311,-4053985.251 14409.7495236,-4053845.46225 14413.200407,-4053837.74366 14510.5917556,-4053629.04856 14560.9581403,-4053521.84292 14581.8516786,-4053449.59401 14648.8910654,-4053213.10075 14669.0025461,-4053083.07496 14706.2118385,-4052844.17257 14812.6875043,-4052787.40316 14943.7344561,-4052682.55849 14963.53609,-4052666.2235 14968.8523039,-4052645.91157 15024.1970203,-4052549.32909 15067.9201976,-4052472.002 15067.800895,-4052459.5467 15067.826139,-4052406.20071 15136.7708835,-4052333.10049 15143.5158869,-4052326.14986 15166.5771606,-4052270.70175 15200.7420818,-4052188.55648 15235.4122697,-4052160.21873 15251.2604561,-4052155.12715 15276.5448519,-4052124.45156 15290.2327826,-4052099.07014 15311.1522542,-4052091.63138 15313.5200217,-4052075.51321 15326.2784531,-4052054.6834 15354.8129993,-4052009.82249 15356.3767959,-4052007.22092 15368.7144885,-4051983.92772 15382.4180477,-4051969.51319 15393.713347,-4051934.82613 15403.0771918,-4051929.68744 15414.3472401,-4051908.9613 15449.2402183,-4051894.56743 15449.1147106,-4051885.60244 15453.5298226,-4051873.82868 15443.984043,-4051862.02964 15462.445153,-4051822.85551 15476.1394812,-4051793.98401 15531.6629473,-4051775.16295 15527.0031639,-4051765.51651 15561.4258017,-4051697.81177 15575.2611863,-4051688.8721 15586.5094043,-4051660.6695 15581.7932373,-4051643.05036 15581.0179579,-4051621.1686 15566.8970934,-4051611.68216 15567.1831632,-4051590.7236 15557.5246656,-4051562.97913 15559.8798837,-4051553.84149 15578.2087038,-4051548.57742 15608.5737139,-4051530.01211 15603.4431937,-4051506.43934 15617.2630804,-4051486.53296 15616.9839916,-4051464.61668 15616.6985682,-4051446.19061 15626.1378215,-4051438.55408 15658.2273464,-4051387.46381 15676.5188161,-4051363.75648 15688.92853,-4051359.40299 15692.897607,-4051359.12673 15697.3973497,-4051359.31208 15695.6763704,-4051370.3997 15686.1144885,-4051387.01844 15702.5059671,-4051375.40827 15706.1233811,-4051373.66088 15711.621738,-4051370.28696 15721.0955163,-4051363.14658 15723.5198189,-4051355.00124 15725.2598439,-4051333.44301 15736.4827915,-4051319.20137 15738.9896596,-4051265.68337 15726.878839,-4051242.09793 15729.2059197,-4051228.97399 15730.9614533,-4051218.38252 15731.6020638,-4051216.84232 15735.4239082,-4051200.12459 15730.5388493,-4051158.58743 15744.3024726,-4051130.70849 15753.653603,-4051132.55036 15769.1282582,-4051118.5114 15783.5506723,-4051118.00618 15786.1503802,-4051130.28867 15793.1307836,-4051130.30139 15792.5437807,-4051121.86712 15790.4938211,-4051099.57562 15795.2670686,-4051085.78292 15811.2251312,-4051078.68985 15813.4332166,-4051053.1108 15819.4849977,-4051018.29059 15814.7536042,-4050989.70475 15824.4727869,-4050964.60005 15865.0860666,-4050864.06049 15887.9899964,-4050856.4841 15890.3580533,-4050840.36615 15911.0421305,-4050825.96476 15931.811754,-4050784.13797 15941.6717331,-4050778.96498 15945.0538399,-4050770.25451 15931.442091,-4050753.75303 15950.1825498,-4050736.49572 15961.5628376,-4050713.76821 15963.3721266,-4050693.20236 15976.1117079,-4050682.84364 15981.8236144,-4050678.9564 15988.7413255,-4050674.48671 16000.7123566,-4050638.75621 16022.5881124,-4050573.42146 16034.5771109,-4050566.60475 16038.7353975,-4050540.39159 16043.1225806,-4050524.63173 16063.9920829,-4050505.73077 16063.1405369,-4050429.01577 16072.4456139,-4050397.95769 16076.83283,-4050382.19785 16069.6300036,-4050368.24158 16067.5329927,-4050352.43441 16066.8297213,-4050349.49214 16066.9051708,-4050346.99422 16066.7019312,-4050322.5802 16075.5479463,-4050309.99984 16064.4387229,-4050300.80219 16067.771062,-4050280.62896 16070.9998398,-4050258.96733 16074.8909594,-4050243.24202 16079.7807558,-4050223.95749 16083.1629306,-4050215.24708 16091.3185234,-4050192.74411 16102.6235206,-4050172.51467 16118.5815935,-4050165.42188 16124.0173425,-4050157.56565 16161.4333817,-4050100.62207" style="stroke-linejoin:round;stroke:#000;stroke-width:1px;fill:none" /></g></g></svg>