<svg xmlns="http://www.w3.org/2000/svg" baseProfile="full" height="124976.174519" version="1.1" viewBox="28219.319544,4473432.154401,93430.533177,124976.174519" width="93430.5331769"><defs><style type="text/css">polyline,line,rect,path,polygon,.polygon{fill:none;stroke:#000;stroke-width:1px;stroke-linejoin:round;}</style></defs><g fill_rule="evenodd" transform="scale(1,-1)"><g class="id" id="06581"><polygon class="_06581" id="None" points="68252.6158491,-4477449.59894 71899.8907219,-4473662.09086 71902.247096,-4473659.94458 72113.6644529,-4473829.94594 72202.8140387,-4473890.07062 72223.1821482,-4473947.12372 72501.2419275,-4474180.18707 72743.776698,-4474392.08347 72767.5958288,-4474413.5004 72923.645144,-4474408.48084 73006.1641547,-4474458.55464 73050.065969,-4474571.45852 73100.0888074,-4474705.91646 73236.0132322,-4474717.64937 73340.5781227,-4474710.94315 73446.4731824,-4474682.205 73509.0322862,-4474716.59943 73534.4864151,-4474884.05565 73581.1062405,-4474949.89813 73685.9412399,-4475032.95566 73731.160665,-4475115.84641 73751.6010411,-4475216.78633 73843.3810978,-4475310.15752 73925.9967865,-4475400.62482 74002.5446214,-4475520.90935 74244.4293999,-4476018.14098 74262.9043992,-4476263.35387 74255.9345431,-4476442.3649 74297.8474906,-4476590.30778 74300.2858294,-4476787.66879 74278.3168296,-4477020.51314 74244.8094775,-4477260.08348 74247.6575442,-4477459.91231 74234.1472523,-4477680.74227 74219.2127721,-4477922.11383 74240.2051718,-4478183.12597 74255.7344893,-4478370.66888 74258.679787,-4478552.53533 74248.2169203,-4478700.34775 74218.1418737,-4478872.86202 74195.6514619,-4479105.24227 74172.4669948,-4479330.68429 74067.0614198,-4479809.80002 74024.0413979,-4480091.3828 74023.5514743,-4480095.40453 74017.594983,-4480134.69221 73897.4636309,-4480442.67525 73784.8845842,-4480681.84066 73743.9051027,-4480956.31123 73741.0178865,-4481190.92645 73589.8414486,-4481427.08638 73577.2754489,-4481611.94636 73508.4790774,-4481725.10157 73539.9044773,-4481888.18182 73428.3251554,-4482003.08832 73306.8984498,-4482240.33268 73283.3675026,-4482421.40905 73275.2244459,-4482523.68552 73293.75464,-4482680.11275 73231.172013,-4482812.32318 73134.8930205,-4482940.2148 73149.8801647,-4483076.41949 73147.8363526,-4483079.54357 73224.7584448,-4483139.44349 73231.251037,-4483158.97792 73275.1880942,-4483283.84497 73308.7288798,-4483429.33161 73332.1436397,-4483572.47613 73294.2503931,-4483724.04985 73287.1764116,-4483885.61396 73325.725348,-4484334.04324 73323.6886648,-4484341.15722 73350.0781755,-4484584.86598 73355.0987268,-4484597.01302 73380.6486692,-4484629.78718 73401.0396507,-4484659.9002 73444.5501084,-4484735.41328 73502.6754444,-4484735.66709 73551.579172,-4484736.0149 73558.0295162,-4484836.35568 73514.1783192,-4484918.48221 73450.0531944,-4484983.95577 73438.0570084,-4484995.20157 73442.6093074,-4485023.33996 73437.1027378,-4485069.58266 73437.6564718,-4485136.38496 73457.6540043,-4485206.92511 73470.0300915,-4485252.01813 73495.6726589,-4485301.74489 73551.9357904,-4485389.4061 73551.9013262,-4485509.1178 73558.4490236,-4485645.86394 73589.4672644,-4485697.7388 73533.0438482,-4485867.46371 73495.9499671,-4485977.08874 73432.4145503,-4486024.56899 73407.061335,-4486118.97436 73406.8803023,-4486294.56039 73432.5252137,-4486414.11739 73436.9799097,-4486491.14348 73452.3502786,-4486629.31761 73476.5291653,-4486830.77037 73489.9668852,-4486981.53843 73501.0178564,-4487048.66317 73505.0031443,-4487071.84999 73519.5012778,-4487087.87637 73539.450202,-4487130.48682 73570.4292174,-4487142.95918 73643.4709137,-4487150.23213 73696.4834232,-4487156.29938 73832.8084374,-4487251.77773 73855.7769554,-4487298.6828 73864.8531875,-4487304.08445 73902.3765048,-4487364.01934 73906.8556353,-4487402.63666 73956.2525256,-4487503.70583 73971.4040762,-4487622.93891 73974.7795058,-4487652.15023 73976.348128,-4487661.02749 73978.8434003,-4487684.30998 73972.8324933,-4487997.93504 73965.9073753,-4488014.34175 73968.3590772,-4488013.68524 74083.2658774,-4488128.99451 74186.1838031,-4488174.24711 74348.7622794,-4488142.83874 74381.2907122,-4488136.75578 74475.1706559,-4488095.80125 74532.2971429,-4488076.66383 74659.7917178,-4488046.51529 74777.6100319,-4488005.51738 74809.7548081,-4487993.47382 74852.7316582,-4487979.23708 74867.6726423,-4487982.76493 74898.267733,-4487989.27596 74948.5865704,-4488000.00471 75040.713094,-4488036.47428 75137.5919855,-4488108.05131 75223.7430634,-4488136.92461 75255.0399421,-4488204.74006 75248.1431371,-4488287.48213 75256.0165807,-4488433.11752 75258.0546091,-4488460.91796 75336.1029307,-4488507.27051 75337.5045275,-4488509.67422 75364.5657973,-4488519.40499 75439.9998887,-4488579.39256 75507.1934159,-4488666.34534 75507.1807323,-4488693.28007 75531.6664499,-4488771.50877 75543.5466167,-4488917.38451 75558.5582265,-4488976.27169 75649.0245105,-4489021.82437 75746.958749,-4489059.41476 75889.0121283,-4489096.65992 75971.928838,-4489156.66364 76043.4654796,-4489190.96458 76167.5700915,-4489243.82865 76247.8556367,-4489274.57376 76285.9541551,-4489494.57382 76291.3440334,-4489655.82868 76368.9250618,-4489869.29721 76400.992999,-4489983.94552 76481.8913406,-4490093.95456 76581.9033977,-4490214.20477 76624.4268187,-4490274.3126 76624.4296048,-4490309.22622 76623.8124241,-4490311.26102 76610.829919,-4490392.39841 76589.8972649,-4490439.13375 76567.3020632,-4490460.04015 76537.3915091,-4490487.40268 76435.7365022,-4490585.71978 76404.4101524,-4490653.07518 76399.3694176,-4490663.87384 76410.4138863,-4490742.46737 76422.7782092,-4490779.57798 76435.8245527,-4490866.02292 76466.4306979,-4490961.81158 76467.9282866,-4490965.70533 76530.8207785,-4491059.4154 76601.7289009,-4491122.68312 76606.2387355,-4491126.8817 76617.6854656,-4491138.11523 76650.3191477,-4491172.42444 76618.6512951,-4491222.84378 76579.675669,-4491283.70902 76587.7746167,-4491347.52884 76593.6969646,-4491393.03432 76672.7295991,-4491450.79086 76687.3410242,-4491460.82304 76685.8396028,-4491669.90376 76544.624306,-4491847.08152 76569.8169263,-4491936.23546 76588.1142753,-4491941.54129 76624.3401836,-4491954.17176 76774.6831649,-4491941.99724 76871.8121791,-4491947.71348 76916.634369,-4491958.29406 76991.6182927,-4491976.40905 77074.0903131,-4492013.99247 77134.1934622,-4492126.33469 77150.2197354,-4492162.21135 77245.0942365,-4492191.01556 77266.2192526,-4492197.63546 77328.619711,-4492260.45162 77339.0017159,-4492332.60263 77340.1945755,-4492339.50851 77364.5707616,-4492357.88932 77448.698286,-4492417.31102 77510.543836,-4492498.61677 77514.0384,-4492622.58368 77515.5476218,-4492665.38009 77612.1625625,-4492744.44631 77632.1021793,-4492748.14977 77725.0871508,-4492763.10929 77800.5763866,-4492769.71908 77822.9581577,-4492784.23798 77824.5122371,-4492785.13541 77825.5743672,-4492886.81418 77825.4849953,-4492970.61174 77829.520882,-4492986.81091 77881.4362925,-4493184.96643 77944.8875068,-4493391.85508 77969.8529505,-4493523.91465 77956.9354122,-4493718.26562 77838.0538478,-4493912.959 77774.9717609,-4494013.78249 77769.0666715,-4494107.93009 77841.9693565,-4494190.51669 77925.8418942,-4494245.96207 78014.01284,-4494341.03117 78063.7780743,-4494436.08062 78152.4011607,-4494491.7182 78240.2561322,-4494535.4349 78276.8116803,-4494622.85612 78281.4636596,-4494652.48187 78296.7318112,-4494761.72365 78323.4075075,-4494877.71172 78328.3245729,-4494899.839 78340.3107432,-4494981.36171 78290.3700845,-4495069.36857 78271.3425998,-4495184.31157 78277.2689533,-4495423.33372 78277.8053763,-4495427.78798 78301.7162495,-4495462.1577 78359.7511762,-4495546.19914 78359.8561043,-4495648.43776 78309.3324097,-4495723.51501 78294.334452,-4495738.44682 78281.3795599,-4495750.25442 78238.8934357,-4495791.39698 78113.7811907,-4495811.92923 78064.3381526,-4495899.905 77982.1714397,-4495956.07423 78000.735332,-4496050.63986 78032.8799486,-4496119.89084 78053.8703323,-4496232.75411 78139.2179048,-4496295.58317 78202.6216259,-4496377.78183 78261.2963326,-4496502.67969 78271.1921195,-4496609.77378 78202.202597,-4496703.99761 78143.6757737,-4496798.04593 78129.0856498,-4496830.90711 78192.2401176,-4496944.0445 78197.1508444,-4496946.72049 78250.7041469,-4496976.68504 78272.7742881,-4496990.22505 78365.6367491,-4497053.56602 78429.2753794,-4497096.84546 78427.6315267,-4497129.37072 78434.6649234,-4497137.89493 78435.0811963,-4497144.35195 78453.5399153,-4497295.28315 78438.6446811,-4497536.14617 78416.0243673,-4497653.31657 78318.6922663,-4497764.3316 78252.5087247,-4497847.90178 78228.598841,-4497972.13843 78239.7392407,-4498063.69069 78252.6255764,-4498174.58199 78331.1393259,-4498297.70031 78248.5225418,-4498486.07288 78247.6572769,-4498488.12372 78183.4792281,-4498502.23768 78137.5507266,-4498513.17973 78135.563945,-4498513.30785 78077.1689376,-4498562.95974 78065.6943026,-4498663.45206 78064.0097658,-4498753.3378 78022.5572993,-4498860.7512 77944.6317777,-4498878.246 77879.6269234,-4498960.74426 77795.6536693,-4498934.73804 77714.5812604,-4498868.64351 77657.1488487,-4498855.88833 77591.11165,-4498872.1177 77522.5172644,-4498960.83306 77505.0495437,-4499123.06107 77454.1772217,-4499161.75464 77412.0937837,-4499170.45417 77372.6066315,-4499142.07748 77312.5469157,-4499088.59296 77303.0296467,-4499080.22899 77195.1577916,-4499058.75664 77193.1069116,-4499057.89138 77108.6428171,-4499097.75411 77106.760052,-4499103.362 77077.1169527,-4499169.61514 77001.6180649,-4499174.48472 76920.6545598,-4499226.09241 76840.075447,-4499283.66068 76747.0557634,-4499268.21329 76743.2984358,-4499267.95687 76736.7771908,-4499267.37995 76612.7291234,-4499261.91419 76606.2078658,-4499261.33727 76489.816859,-4499359.12252 76539.3013781,-4499496.08602 76655.5529373,-4499639.7155 76668.6510877,-4499684.25889 76606.5625478,-4499719.18792 76580.5734747,-4499733.8325 76574.0918219,-4499784.12794 76587.5586232,-4499826.65249 76605.1832586,-4499883.37324 76567.1048707,-4499923.23765 76528.1932852,-4499965.64973 76521.2629146,-4500070.83931 76521.2068226,-4500073.83557 76513.1309869,-4500180.59541 76436.2054045,-4500232.94175 76412.1390405,-4500354.69909 76423.0746916,-4500450.75587 76467.0094446,-4500544.18477 76454.0312421,-4500621.33463 76291.2473987,-4500637.8228 76157.601813,-4500831.49191 76036.6618454,-4500936.05827 76035.2358161,-4500937.14784 75848.281229,-4501038.99136 75734.686158,-4501013.90054 75734.245497,-4501010.93629 75732.194547,-4501010.07107 75715.2651436,-4500882.97692 75633.8042845,-4500888.23311 75578.1403718,-4500891.326 75425.2982593,-4501065.78622 75176.2693813,-4501226.00396 75174.3466222,-4501227.1256 74924.2818596,-4501259.22325 74686.3463499,-4501332.43657 74639.2083353,-4501483.11981 74639.3069661,-4501623.77182 74562.3444065,-4501872.64654 74394.811747,-4501815.62337 74392.2080074,-4501817.78658 74137.3051909,-4502006.81967 74116.8047143,-4502064.00757 74089.7109208,-4502131.09811 73993.7396956,-4502162.73081 73923.1812654,-4502186.23904 74046.2915613,-4502277.55298 74001.7570652,-4502364.22478 73793.8881204,-4502458.94552 73756.289609,-4502475.33868 73753.8380412,-4502475.99572 73581.257579,-4502487.63417 73444.879303,-4502666.02838 73355.3622273,-4502847.88268 73417.4050076,-4503047.88616 73187.8972964,-4503189.89631 73140.8053435,-4503406.92193 73116.6874913,-4503697.78353 73139.3169725,-4503936.24568 73141.377903,-4503972.02627 73200.2956181,-4504100.40413 73239.2858174,-4504186.67293 73267.2307066,-4504322.0385 73211.2396021,-4504378.02819 73179.7596932,-4504485.30803 73184.3424013,-4504614.20154 73229.6148081,-4504705.05242 73300.2928988,-4504799.25043 73314.1693086,-4505037.27958 73267.1801653,-4505151.54695 73249.7232983,-4505163.14926 73217.2030518,-4505157.76764 73103.6931899,-4505176.57138 72998.605991,-4505229.24856 72919.8439133,-4505369.01258 73007.2480363,-4505517.49718 73026.2853928,-4505534.22441 73079.0706762,-4505579.19868 73211.2505998,-4505594.60319 73209.1687737,-4505712.9536 73208.1682122,-4505724.49067 73196.6166778,-4505842.95403 73184.6181062,-4505881.13923 73136.7363144,-4505939.10054 73104.1697266,-4505956.16837 73102.1686848,-4505979.24255 73097.6949327,-4506037.39264 73041.2180167,-4506112.86869 72970.1043008,-4506197.27129 72984.1448837,-4506333.53518 73008.1259284,-4506442.22144 72975.2106718,-4506589.00104 72984.1534691,-4506692.67322 72984.7548654,-4506698.12121 72999.2493816,-4506710.15361 73062.2673103,-4506762.94557 73104.1742352,-4506817.10144 73091.0840117,-4506911.7222 73098.1528032,-4506936.20561 73079.0446834,-4507018.74517 73028.7237089,-4507112.28011 72965.6436558,-4507162.74489 72915.7116718,-4507219.84223 72896.5207384,-4507351.27034 72915.6528834,-4507427.34874 72964.0209549,-4507585.33696 73041.5798462,-4507701.03539 73021.533412,-4507911.82862 72966.1993486,-4508085.99594 72995.5453734,-4508350.95973 73000.1243978,-4508387.0765 72989.1741993,-4508669.11017 72987.9512798,-4508692.63305 72939.5641645,-4508920.22318 72952.5059928,-4509004.68229 72996.5367048,-4509049.22244 73069.9301144,-4509088.87153 73141.997857,-4509162.0261 73160.4340469,-4509231.16562 73161.1117836,-4509388.24507 73252.4170038,-4509527.49399 73255.0612123,-4509529.81705 73413.5381151,-4509674.19991 73535.05814,-4509713.72925 73688.4903595,-4509764.66274 73924.9863555,-4509862.10042 73977.9238921,-4509947.96254 74064.4524896,-4510075.04793 74091.2925038,-4510355.13317 74177.2372648,-4510484.74963 74195.9233265,-4510870.10915 74412.9012577,-4511059.08659 74572.8085614,-4511275.69618 74642.7132168,-4511539.02747 74713.314411,-4511651.17862 74687.8446872,-4511789.49576 74705.8004538,-4511893.57986 74808.7763629,-4512001.14231 74876.2726744,-4512084.5636 74959.6840038,-4512190.39842 75032.1301081,-4512265.51845 75065.1757205,-4512298.29605 75153.0988823,-4512365.93027 75222.2093546,-4512335.52205 75285.1577067,-4512298.52947 75387.7726318,-4512269.44536 75555.6257627,-4512242.62511 75585.5595881,-4512258.14617 75745.1393228,-4512338.6016 75746.2057296,-4512343.52048 75787.1154262,-4512494.00135 76147.5681641,-4512626.30174 76321.3987308,-4512919.31265 76337.9651045,-4513040.44257 76441.5745012,-4513153.94501 76453.5043119,-4513241.95631 76578.0540425,-4513305.22261 76663.3204569,-4513759.58111 76694.9643137,-4514071.26648 76694.8445515,-4514073.26936 76653.496678,-4514455.5182 76766.4606584,-4514809.82261 76767.99178,-4514814.21252 76669.2973585,-4515027.09694 76754.9025783,-4515224.55929 76703.3316285,-4515433.39606 76710.7979833,-4515467.82742 76754.9568178,-4515679.94341 76884.4306628,-4515792.26559 77008.8481446,-4515865.01232 77107.8501085,-4516026.69079 77109.2526578,-4516029.09387 77337.2989952,-4516111.58943 77599.2034285,-4516104.60616 77603.7379919,-4516105.31009 77786.2512667,-4516139.37927 77855.5881538,-4516170.30249 77901.7449797,-4516220.68248 77892.6620638,-4516296.0867 77827.2975603,-4516361.16985 77824.2947767,-4516434.18536 77867.5718952,-4516501.71002 77902.7142488,-4516555.29695 77949.7368771,-4516672.95504 77952.7529518,-4516688.72048 78081.0627488,-4516890.89315 78227.2279935,-4517053.00444 78359.1308344,-4517141.22314 78364.0745504,-4517144.39434 78552.7293907,-4517203.99841 78556.5188751,-4517204.7505 78678.5363134,-4517232.75893 78814.5391727,-4517253.37741 78817.0547629,-4517253.71325 78936.593449,-4517270.41034 79046.005261,-4517284.77068 79049.5463777,-4517285.53885 79106.6122304,-4517327.23034 79150.4121105,-4517433.62298 79186.9289414,-4517504.57616 79203.1433599,-4517535.44686 79288.6216145,-4517565.32235 79345.0219372,-4517573.63938 79378.0048843,-4517578.48561 79382.9395096,-4517577.66721 79389.5349181,-4517679.48655 79405.9032036,-4517778.179 79439.0772283,-4517839.87179 79470.0271988,-4517851.83226 79477.4542652,-4517854.84248 79552.5583295,-4517855.4637 79677.3983426,-4517746.12806 79697.0130795,-4517729.39586 79724.3393788,-4517731.61583 79880.8377537,-4517741.42869 79992.4781769,-4517767.11501 80015.8902874,-4517782.05748 80029.8243441,-4517793.12507 80087.4507371,-4517835.77668 80105.885146,-4517900.9174 80155.8081147,-4517955.53935 80180.4890908,-4517982.3697 80283.8416424,-4518322.80957 80313.3760165,-4518463.042 80322.7344473,-4518468.91953 80342.7251666,-4518481.0908 80419.298746,-4518527.50163 80547.2573564,-4518466.34313 80634.9197139,-4518460.66359 80682.8161976,-4518457.06168 80864.8651723,-4518576.43911 80822.8590912,-4518821.05633 80873.1261684,-4518931.01638 80899.8347869,-4518989.13619 81032.790795,-4519212.93977 81060.7065036,-4519485.9435 81291.6771219,-4519709.87735 81392.645871,-4519982.63405 81641.6579952,-4520046.29488 81779.6563361,-4520167.0252 81809.1985888,-4520268.84994 81818.6906984,-4520399.90409 81896.5703451,-4520501.08919 81985.1371233,-4520551.70665 82091.523509,-4520561.76794 82111.5417884,-4520585.90636 82154.6641191,-4520639.46934 82183.4437507,-4520760.29511 82203.4811041,-4520846.27661 82232.4166498,-4520900.2603 82280.5239061,-4520934.54753 82381.0466148,-4520946.48448 82492.0588909,-4520970.20995 82589.4229597,-4521052.67424 82629.9566625,-4521127.85028 82818.0196042,-4521189.97055 82859.032899,-4521337.93129 82858.93242,-4521374.84462 82871.9927464,-4521383.97269 82903.3697253,-4521406.37667 83062.3955542,-4521424.49447 83065.9365158,-4521425.26237 83097.4285788,-4521457.13484 83082.4477609,-4521729.91903 83035.3983294,-4522042.68714 83009.9866988,-4522208.42047 83293.2490987,-4522369.59767 83254.3165517,-4522726.72567 83335.39365,-4523130.93173 83657.2827425,-4523426.25264 83755.2686886,-4523587.47197 83642.7177805,-4524147.37344 83664.3424547,-4524469.15219 83744.6585234,-4524561.69359 83800.7773154,-4524727.1241 83808.8127307,-4524751.04081 84052.6216288,-4524769.13512 84134.563998,-4524775.28911 84171.6738967,-4524832.23051 84197.6662965,-4524913.83246 84291.5966021,-4525039.40301 84341.7689327,-4525067.06875 84382.1827821,-4525090.38036 84394.5855821,-4525097.05651 84417.5777548,-4525209.27547 84404.0971089,-4525297.42844 84391.5945033,-4525366.06742 84372.1991066,-4525382.28807 84335.1370329,-4525410.62735 84342.2555286,-4525466.52222 84368.1475372,-4525492.77095 84398.5510724,-4525523.21548 84427.1350824,-4525571.73243 84430.254249,-4525642.84875 84404.7127109,-4525737.27068 84379.6846831,-4525812.70751 84364.1813046,-4525846.6301 84348.7746392,-4525882.04263 84364.5226762,-4525963.31152 84525.6395845,-4525986.76816 84593.1957143,-4525974.90248 84760.0723476,-4525979.53208 84864.5143371,-4525982.7279 84926.0890795,-4526040.07509 84928.1400965,-4526040.93943 84864.0353327,-4526275.01461 85014.6050043,-4526328.08107 85016.1593865,-4526328.97763 85070.0268752,-4526382.83485 85087.1276631,-4526419.62817 85110.5069866,-4526472.47195 85109.987698,-4526475.99675 85092.0191961,-4526594.86303 85091.6515153,-4526596.88181 85240.0690438,-4526697.46614 85272.0950798,-4526718.32859 85351.981344,-4526954.02767 85352.5747018,-4526955.48533 85430.3669095,-4527082.0988 85641.4626732,-4527233.9707 85863.4770906,-4527446.47567 85932.4532334,-4527521.79287 85972.8085675,-4527636.37247 85984.9984054,-4527670.49157 86038.8954006,-4527697.91275 86132.8710422,-4527674.3555 86136.379683,-4527674.6264 86237.8365826,-4527727.88517 86328.7544756,-4527864.61564 86421.8978324,-4528074.01433 86754.3056409,-4528389.0628 86885.1954267,-4528469.33402 87193.7668562,-4528659.25292 87264.7434666,-4528803.75868 87292.6522652,-4529083.71943 87295.2643885,-4529085.54462 87429.7092124,-4529235.90143 87540.5707534,-4529364.8488 87716.1098485,-4529410.7979 87972.9749183,-4529491.85925 87979.1278444,-4529494.45181 88278.5697094,-4529620.62242 88485.9655381,-4529707.88799 88567.5386741,-4529919.52543 88567.9805592,-4529922.48895 88654.5486695,-4530019.09931 88657.5058657,-4530022.39811 88702.5497861,-4530312.70991 88645.5218218,-4530513.40375 88735.8896862,-4530614.75346 88748.5100015,-4530659.31554 88779.4661452,-4530774.99829 88804.3941661,-4530863.14524 88875.0226846,-4530940.8418 88880.0532951,-4530941.5123 88998.8694692,-4530897.38593 89050.4044282,-4530911.49164 89082.8720527,-4530935.31432 89137.9890773,-4531004.54312 89212.8537453,-4531063.01318 89324.4841714,-4531138.54315 89426.8878283,-4531198.71408 89475.7828042,-4531237.42729 89489.3315586,-4531330.80101 89473.4829309,-4531574.19915 89466.7807572,-4531662.90467 89508.2590312,-4531752.46828 89559.3890059,-4531791.03579 89583.739802,-4531808.90235 89578.7886008,-4531840.14353 89574.7437066,-4531873.8193 89564.9158627,-4531941.28384 89547.9122012,-4532044.12383 89615.3308643,-4532091.60632 89675.4445801,-4532172.47768 89703.3536526,-4532210.55942 89954.2091901,-4532360.31912 89986.3269867,-4532405.60748 90117.3295744,-4532407.06539 90195.3128305,-4532421.44508 90197.708239,-4532634.73102 90201.8670589,-4532832.94151 90239.7475259,-4532836.46312 90243.2014004,-4532839.72944 90456.104795,-4532858.30298 90551.7652445,-4532952.81975 90626.5725672,-4532975.88291 90699.7931775,-4532997.5531 90769.5415657,-4533107.71741 90842.7297847,-4533128.8908 90923.2699385,-4533148.09006 90998.5877508,-4533263.3773 91184.6698307,-4533245.29389 91186.6238994,-4533244.66815 91189.6557493,-4533252.94872 91191.1878188,-4533257.3373 91204.15698,-4533291.90093 91258.5723816,-4533365.65946 91269.5374157,-4533380.90451 91271.652928,-4533382.7617 91270.1364486,-4533409.29078 91264.1374209,-4533504.93032 91555.5443305,-4533561.28337 91565.1406908,-4533908.24371 91606.94552,-4534052.63754 91676.084786,-4534253.10108 91688.9029988,-4534289.17019 91859.8912035,-4534575.76445 91779.5679593,-4534740.06948 91743.9738844,-4534879.02462 91828.491398,-4535059.03811 91890.9134714,-4535033.53417 91970.5182336,-4535026.85996 92004.0019556,-4535108.46086 91986.8679229,-4535121.04517 91953.5930169,-4535146.14919 91877.9817877,-4535221.88103 91886.3853241,-4535389.39135 91953.4175352,-4535492.24793 92003.3677667,-4535688.97099 91915.983988,-4535737.04432 91871.9758557,-4535850.11706 91770.9209245,-4535856.69177 91752.570221,-4535988.54168 91657.907868,-4535982.23348 91611.0535384,-4536001.73866 91620.586986,-4536063.95309 91677.0717072,-4536108.152 91714.5296144,-4536189.49432 91792.9746558,-4536214.81014 91828.0790722,-4536225.49188 91828.6180631,-4536302.75326 91796.4659016,-4536329.77968 91727.0868697,-4536390.14705 91689.586358,-4536522.74475 91690.5065597,-4536579.03662 91784.1128457,-4536572.9455 91930.4775839,-4536549.95676 92021.0375451,-4536481.72818 92119.4441311,-4536422.96291 92413.9185055,-4536465.13947 92453.3949247,-4536474.0404 92585.4354885,-4536361.22403 92669.4898575,-4536334.81008 92752.7653164,-4536392.2251 92794.3505833,-4536521.66926 92850.4056338,-4536773.8442 93088.3898283,-4536794.76064 93199.7317912,-4537011.42089 93504.8052686,-4537193.53009 93837.5884836,-4537130.98041 94245.1839429,-4537516.85284 94396.5821059,-4537594.26554 94515.9971629,-4537655.30896 94639.4701727,-4537809.33873 94591.636152,-4537917.1726 94538.0580786,-4538036.35125 94510.6005917,-4538089.50149 94412.2165806,-4538274.9283 94395.7417003,-4538385.70811 94395.643403,-4538395.6879 94436.1896534,-4538578.05455 94551.5981458,-4538566.05284 94659.120971,-4538601.43931 94746.1694434,-4538605.74529 94775.6320816,-4538571.91242 94819.5622413,-4538515.19635 94907.5298931,-4538502.98659 94995.5284661,-4538502.7428 95082.9463931,-4538577.83512 95115.0393779,-4538672.48656 95139.3832696,-4538854.9087 95093.5595359,-4538959.12124 94941.1119431,-4539003.45532 94813.0174949,-4539042.71319 94738.1333331,-4539156.29865 94735.0557833,-4539166.4724 94782.1447975,-4539250.17435 94892.1171547,-4539403.58409 94974.4413814,-4539477.01253 95012.9334723,-4539608.6471 94965.6085467,-4539731.90761 94945.6333401,-4539785.0698 94933.0825674,-4539864.17787 94946.4667524,-4539878.26623 94930.9878761,-4539988.98105 95217.8733838,-4540052.57666 95387.6036275,-4540112.83127 95425.4036704,-4540145.77447 95503.008925,-4540242.44727 95492.0350915,-4540318.95881 95457.0363771,-4540348.16621 95434.0853514,-4540367.11432 95422.0909239,-4540385.84746 95371.0606264,-4540433.05372 95336.5528435,-4540531.04497 95374.4788492,-4540611.85156 95392.1011965,-4540679.51936 95473.4578013,-4540715.11034 95551.5534841,-4540761.88423 95667.0175442,-4540842.62615 95679.4524119,-4540849.79472 95696.9052994,-4540876.5829 95720.4550278,-4540931.8963 95767.0210851,-4540957.78525 95808.5170344,-4541085.73139 95838.8544903,-4541172.51678 95861.0005055,-4541236.89734 95826.0436633,-4541293.52882 95757.9396999,-4541304.44829 95719.4348719,-4541310.44746 95682.425534,-4541389.15398 95659.9833978,-4541553.67893 95660.8681736,-4541559.60524 95650.0914821,-4541616.15766 95674.5293806,-4541807.54815 95763.0730965,-4541884.557 95859.9560263,-4541863.78316 95911.9092304,-4541884.3338 95969.9563205,-4541990.75573 96064.3013436,-4541984.60828 96071.4122154,-4542032.51502 96082.9472345,-4542110.0531 96032.9590222,-4542280.36186 95944.8378033,-4542374.36733 95845.4564735,-4542494.53864 95771.0257152,-4542530.80486 95766.9985851,-4542545.52854 95756.3962777,-4542585.61389 95798.3412042,-4542647.70665 95924.3411522,-4542767.65158 96008.4401024,-4542807.05033 96069.5256584,-4542829.99699 96130.5130667,-4542874.39242 96139.4717346,-4542893.25634 96175.0151899,-4542964.24299 96140.9134707,-4543003.36647 96124.019113,-4543023.41669 96093.9550174,-4543051.80519 96042.9594127,-4543099.50978 95934.4736687,-4543099.10055 95793.9817171,-4543097.28668 95789.4803625,-4543097.0814 95777.4548587,-4543103.84914 95757.5815671,-4543112.62437 95749.3773113,-4543120.63906 95656.0323296,-4543210.99733 95640.5623831,-4543241.42687 95617.4490347,-4543292.30123 95603.5190305,-4543422.86223 95593.9844924,-4543502.27289 95586.58784,-4543568.57892 95629.0425992,-4543588.75021 95701.5815886,-4543622.91775 95748.1058381,-4543644.31969 95797.5431821,-4543710.41151 95809.5679012,-4543726.58226 95860.4057959,-4543886.83019 95880.3744351,-4543936.89088 95938.4885728,-4544090.18156 96063.4124386,-4544178.27954 96178.9239258,-4544240.5617 96208.3603982,-4544256.09578 96258.4557594,-4544359.04478 96277.9607328,-4544398.16473 96258.3453554,-4544479.72814 96386.465701,-4544498.30265 96408.9290155,-4544506.31263 96503.2616683,-4544553.51892 96548.3920267,-4544645.32181 96577.8156161,-4544794.49726 96579.7583728,-4544812.821 96681.3985698,-4544887.9738 96705.3076686,-4544948.74718 96804.2918965,-4545074.93596 96806.3752207,-4545076.29609 96852.3910858,-4545196.9627 97063.3575413,-4545296.89936 97153.8469521,-4545380.75649 97217.2857105,-4545413.02133 97560.6556324,-4545876.31726 97564.2933463,-4545878.57328 97617.3157873,-4545984.32014 97751.3076178,-4546188.50536 97812.6743455,-4546280.74249 97871.6339507,-4546366.654 97973.1240562,-4546512.12247 98000.1004036,-4546604.6078 97989.1772818,-4546651.19625 97991.1095108,-4546654.06211 97962.313061,-4546816.50637 97940.1122049,-4546973.03537 97929.6223393,-4547075.94337 98193.1389258,-4547312.56451 98449.5402777,-4547489.81014 98524.0316998,-4547500.40789 98530.1196997,-4547502.00526 98612.7284727,-4547518.55574 98745.2298968,-4547596.67481 98827.108317,-4547731.95047 98827.0276542,-4547895.01301 98827.4955982,-4547997.7036 98767.5753174,-4548229.49534 98804.0099698,-4548329.34025 98841.0045874,-4548395.7392 98940.0055909,-4548560.31383 98950.5310331,-4548584.06055 98980.6485754,-4548621.48796 99027.047905,-4548744.11839 99031.1393539,-4548753.32562 99119.1722074,-4548879.72089 99269.0078014,-4548917.81104 99288.0055227,-4548918.56563 99339.4518341,-4548946.62227 99492.3951664,-4548975.03502 99569.4694019,-4549055.77068 99620.0119358,-4549138.73662 99655.6036589,-4549202.7327 99728.9280361,-4549206.92199 99800.9358361,-4549217.67952 99823.5180075,-4549235.15378 99833.5788078,-4549247.96034 99877.5273021,-4549348.31 99896.9462169,-4549355.51925 99908.4655774,-4549390.66935 100068.512333,-4549451.52708 100147.966239,-4549438.86081 100188.389319,-4549431.73428 100213.539526,-4549435.07886 100304.360865,-4549447.59966 100382.854562,-4549446.96335 100417.459946,-4549446.20022 100445.782949,-4549440.86086 100514.87431,-4549429.86833 100566.338474,-4549408.55792 100601.817478,-4549398.26372 100693.877442,-4549376.29783 100703.462303,-4549374.17624 100779.916362,-4549388.13345 100864.41184,-4549403.06156 101077.648272,-4549461.443 101100.272834,-4549471.93319 101166.724725,-4549550.36775 101186.209614,-4549581.50669 101207.346126,-4549615.03093 101323.261155,-4549778.99205 101328.237352,-4549782.65621 101714.266401,-4550234.63945 101812.25333,-4550391.29228 101847.195104,-4550422.41866 101930.765975,-4550495.74457 102016.082935,-4550538.54015 102053.171888,-4550560.55089 102167.514985,-4550627.87794 102353.988255,-4550650.60471 102485.158389,-4550719.82411 102602.982416,-4550855.73269 102623.157643,-4550878.34895 102735.449779,-4551189.13527 102786.588709,-4551407.18264 102880.488017,-4551688.25459 102964.998578,-4551764.50806 103078.504892,-4551777.03864 103090.032881,-4551781.77044 103370.010361,-4551823.81493 103430.465702,-4551833.32857 103519.929547,-4551905.26864 103516.573438,-4552014.18597 103514.571118,-4552063.67968 103511.355109,-4552067.87868 103443.517061,-4552159.06935 103391.382343,-4552238.7634 103377.487968,-4552308.48017 103439.379534,-4552420.11586 103479.860452,-4552467.33284 103537.375818,-4552534.87735 103550.526973,-4552575.90187 103636.403823,-4552795.16671 103741.439208,-4552830.68632 104017.404869,-4552914.37249 104082.843029,-4552984.88865 104111.502736,-4553011.43691 104097.925369,-4553105.06589 104088.93504,-4553196.40075 104084.348132,-4553198.69492 103860.905263,-4553304.54174 103856.988349,-4553313.27412 103836.373991,-4553322.10038 103782.600582,-4553403.39809 103762.892192,-4553490.94635 103760.885076,-4553494.56782 103762.39718,-4553502.44685 103785.35954,-4553621.11254 103823.479028,-4553842.00095 103787.571822,-4553941.07897 103760.543364,-4554008.16405 103734.110388,-4554088.1743 103693.895669,-4554178.55908 103695.45166,-4554190.9228 103707.073811,-4554250.49578 103755.138127,-4554257.32668 103924.471973,-4554223.8215 104149.858697,-4554288.86857 104295.454207,-4554388.04985 104332.86156,-4554445.43826 104460.966915,-4554658.44823 104540.921282,-4554855.65784 104622.325348,-4555071.22087 104634.874517,-4555118.26709 104659.799246,-4555205.88891 104669.456825,-4555326.91847 104670.885023,-4555348.76395 104721.797492,-4555418.2325 104844.278175,-4555606.17834 104982.93896,-4555797.55307 105057.972971,-4556235.90976 105196.510912,-4556394.88127 105358.745001,-4556580.72304 105389.78437,-4556689.38379 105401.74603,-4556704.55691 105432.31739,-4556790.81088 105658.408373,-4556820.89871 105670.398493,-4556931.80198 105624.315017,-4557008.60957 105563.315446,-4557143.23394 105551.814816,-4557169.41506 105558.787971,-4557230.2875 105567.392081,-4557297.03653 105628.349213,-4557394.26631 105801.290027,-4557568.43497 105927.712949,-4557690.79933 105886.328135,-4558049.01142 105882.913129,-4558080.64692 106046.871958,-4558132.74445 106349.211738,-4558406.14201 106348.262897,-4558410.6915 106364.311371,-4558762.65138 106144.362616,-4558933.10624 106100.387643,-4558965.90001 106120.361755,-4559046.36404 106151.883358,-4559169.94952 106151.962546,-4559186.39827 106160.919006,-4559468.02206 106340.903656,-4559555.46514 106423.223973,-4559655.28274 106363.310466,-4559745.46224 106359.976817,-4559751.66366 106099.831018,-4559898.32718 106029.555408,-4560032.06569 106047.463907,-4560317.0934 106046.494438,-4560325.13456 105961.065946,-4560413.99382 105960.961668,-4560652.33488 105886.100799,-4560788.36934 105853.018437,-4560915.18715 105883.106659,-4561161.5244 105991.07862,-4561276.11581 106052.098058,-4561339.93138 106062.148777,-4561348.74687 106318.502697,-4561452.62512 106390.881942,-4561453.86934 106427.0065,-4561537.26411 106364.092932,-4561619.66454 106263.104611,-4561798.29625 106260.147058,-4561920.64854 106259.009734,-4561987.03771 106259.583398,-4562033.86919 106222.658459,-4562109.58245 106183.499424,-4562185.4421 106209.000852,-4562255.07299 106212.476201,-4562254.84539 106339.521368,-4562249.51716 106464.634029,-4562283.20671 106584.478344,-4562392.53043 106594.041435,-4562393.89856 106799.399325,-4562423.32948 106801.515279,-4562425.18532 106923.971724,-4562536.33147 106949.501267,-4562511.22516 106968.98888,-4562572.77273 107003.934628,-4562603.89033 106995.478483,-4563087.5898 107179.870868,-4563588.57276 107196.05066,-4563592.00024 107254.090902,-4563686.4225 107259.611275,-4563850.59935 107289.929969,-4563963.29139 107329.387329,-4564029.01469 107343.487082,-4564042.55035 107346.974357,-4564046.31068 107447.470234,-4564160.88639 107439.621295,-4564296.02285 107408.951668,-4564345.39948 107385.013448,-4564383.36586 107205.042838,-4564395.158 107100.051066,-4564406.02615 107038.565552,-4564415.04088 107040.182019,-4564477.75908 107014.02419,-4564634.04043 106948.204951,-4564904.10992 107100.57958,-4565034.23263 107148.090281,-4565032.61495 107241.072665,-4565032.50483 107303.61473,-4565054.83225 107314.493676,-4565121.92931 107333.029501,-4565237.38766 107412.132763,-4565409.70604 107347.249804,-4565659.7698 107359.208924,-4565827.01534 107371.561413,-4565908.97389 107493.683908,-4565938.86299 107615.081932,-4565965.30921 107768.005446,-4565989.68885 107863.688895,-4566000.36935 107952.156805,-4566026.48074 108014.630118,-4566199.88687 107975.163633,-4566274.7709 107971.988349,-4566332.8166 108032.693926,-4566414.59615 108036.559739,-4566420.32592 108111.610435,-4566473.74196 108160.679925,-4566678.44069 108339.986365,-4566877.09345 108252.488249,-4567188.96953 108171.555493,-4567414.65706 108164.600872,-4567434.05987 108075.684603,-4567545.59354 108068.725941,-4567553.52885 108058.141463,-4567624.02701 108082.724843,-4567736.59451 108093.27683,-4567756.84377 108095.079573,-4567757.72275 108298.125942,-4567843.13026 108471.660925,-4567949.91782 108529.182216,-4568055.33843 108559.1745,-4568170.5419 108537.250285,-4568307.5984 108513.217853,-4568404.90546 108486.153918,-4568505.40304 108346.812977,-4568669.10823 108329.193874,-4568742.56092 108333.3056,-4568828.05046 108383.133332,-4568933.97547 108446.624867,-4568982.16366 108484.796067,-4569001.59814 108551.787414,-4569057.53419 108637.784074,-4569167.56781 108747.777374,-4569259.57322 108803.667036,-4569298.28755 108852.780531,-4569313.51369 108904.733685,-4569303.62369 108960.649687,-4569270.5383 109082.090285,-4569240.63337 109150.586532,-4569281.51201 109195.66385,-4569326.41989 109230.231112,-4569404.92442 109240.618135,-4569472.05179 109281.647403,-4569542.65335 109302.178346,-4569578.20233 109313.63388,-4569589.41702 109404.553713,-4569675.69173 109531.681127,-4569728.67787 109659.044229,-4569777.65956 109744.025512,-4569830.41897 109875.622941,-4569943.9391 109844.464792,-4570054.17762 109794.170536,-4570108.33398 109792.164525,-4570111.95575 109790.158514,-4570115.57751 109609.151659,-4570301.46334 109468.592386,-4570370.51797 109466.716686,-4570376.12558 109436.156329,-4570468.87508 109392.658774,-4570543.02848 109158.842794,-4570543.41418 108966.14682,-4570543.59435 108885.285781,-4570568.84454 108801.726684,-4570594.77042 108747.798321,-4570737.91726 108804.965904,-4570837.87436 108887.809885,-4570911.21626 108891.415436,-4570912.97404 108971.885627,-4570961.54161 108983.371392,-4571071.97527 108952.811686,-4571164.72589 108943.326778,-4571248.11584 109262.238096,-4571514.87511 109386.42072,-4571617.911 109491.782622,-4571597.53302 109526.847961,-4571596.22854 109643.670324,-4571598.53228 109666.265861,-4571638.93101 109670.336531,-4571719.93465 109649.868132,-4571784.10112 109632.772342,-4571835.0828 109646.897846,-4571905.95317 109683.684922,-4571968.85417 109716.417832,-4572015.56763 109740.663737,-4572027.93661 109802.223609,-4572073.25619 109834.181949,-4572100.57522 109835.305222,-4572102.49585 109842.365852,-4572107.51686 109945.306429,-4572205.96207 109946.316478,-4572270.71283 109902.374896,-4572360.85145 109849.427059,-4572439.11665 109828.332436,-4572600.0517 109850.931105,-4572670.86412 109902.233894,-4572730.81715 110000.932975,-4572802.6159 110099.358515,-4572817.09424 110233.398204,-4572876.60027 110238.819079,-4572883.22461 110272.703298,-4572920.88705 110318.820842,-4572970.21095 110344.318061,-4573005.43246 110337.345692,-4573077.68739 110299.320094,-4573144.004 110237.873313,-4573183.93753 110170.408991,-4573234.73671 110099.877872,-4573257.81617 109820.360722,-4573389.85081 109740.913422,-4573626.41662 109728.530203,-4573665.62178 109722.570527,-4573684.95984 109911.968406,-4573839.55103 109914.332869,-4573841.39012 109919.525643,-4573844.53925 110128.450227,-4573981.39338 112634.08845,-4571540.34251 113081.749197,-4571987.58682 114621.60038,-4573533.22564 116104.929667,-4575003.73342 116113.950094,-4575000.64798 116268.423215,-4575155.01902 118383.823466,-4577276.36605 118424.852122,-4577316.54253 118460.806089,-4577351.56873 120273.466375,-4579102.84097 119774.162013,-4579265.30189 119186.94877,-4579353.28388 118737.536229,-4579459.62116 118369.431005,-4579502.2817 117979.174369,-4579689.48094 117347.8168,-4579815.26838 116879.44284,-4579944.29458 116644.036695,-4579935.35184 116646.44684,-4579941.67447 116419.544052,-4579933.16923 115855.127788,-4579970.29893 115438.611361,-4580084.44875 115019.642649,-4580237.15042 114735.371303,-4580243.38736 114411.809073,-4580391.31005 113980.429641,-4580518.40701 113957.894514,-4580535.84394 113780.61145,-4580633.76079 113539.125446,-4580790.24711 113513.123644,-4581160.40737 113501.112367,-4581273.37797 113493.150729,-4581353.17595 113655.14471,-4581447.21802 113837.674609,-4581519.96514 113800.613446,-4581593.20188 113633.759941,-4581512.44323 113464.756878,-4581410.38661 113310.672756,-4581315.32503 113224.599841,-4581234.73404 113135.790084,-4581161.80163 112973.175149,-4581115.16413 112618.759423,-4581112.55668 112313.359085,-4581199.46126 111875.413877,-4581306.55497 111347.588508,-4581309.37372 110867.255911,-4581496.04176 110847.23456,-4581494.86611 110309.342448,-4581704.76926 110105.973406,-4581857.26191 109851.839951,-4581927.83387 109614.578966,-4582023.7223 109419.014123,-4582162.24121 109085.659533,-4582256.47653 108802.243988,-4582351.91375 108345.652121,-4582543.51333 107965.809492,-4582791.39495 107676.999717,-4582880.70816 107378.401225,-4582900.85809 106957.081311,-4583033.79715 106811.162172,-4583085.78433 106803.623256,-4583077.30508 106691.209649,-4583115.6187 106360.214217,-4583280.01284 105912.353462,-4583479.52537 105636.822914,-4583588.91175 105179.894969,-4583741.65311 104783.485838,-4583931.30191 104355.207871,-4584151.97229 104027.252168,-4584309.693 103701.137762,-4584480.25896 103197.731538,-4584745.27565 102993.478805,-4584842.99626 102985.292544,-4584836.05519 102838.855916,-4584903.04207 102825.522412,-4584916.38652 102580.50103,-4585140.96059 102291.065343,-4585198.41346 102122.57829,-4585411.46849 101863.163312,-4585648.46385 101421.779311,-4585806.68319 100996.409002,-4585908.9946 100516.837161,-4586047.78896 99988.4452429,-4586319.95754 99464.1396873,-4586487.63344 98897.1136665,-4586654.13479 98430.3702419,-4586772.14313 97955.9619452,-4586929.05768 97462.8905851,-4587094.18482 96932.5503379,-4587208.40553 96536.5751996,-4587356.1696 96206.1240349,-4587484.15938 96197.5903074,-4587475.7444 96142.6227384,-4587496.81967 95755.1173664,-4587644.52725 95390.8940379,-4587755.79183 94838.2682636,-4587857.52128 94355.8534067,-4587976.57172 93851.6708095,-4588196.80482 93418.0702726,-4588386.95576 92609.6631819,-4588694.56335 92021.4252211,-4589005.62909 91926.0233276,-4589143.58487 91743.8985874,-4589433.88869 91426.4201306,-4589475.25225 91130.6675174,-4589524.66115 90732.6688341,-4589634.67253 90276.1058904,-4589741.56007 89676.71677,-4589936.66389 89176.7767158,-4590043.91747 88350.5330596,-4590361.70817 87230.6286665,-4590685.38531 86299.8691677,-4591135.77261 86099.9305971,-4591284.62084 86066.7152319,-4591488.326 85864.8553601,-4591638.30003 85592.8664565,-4591643.75284 85230.5222966,-4591693.56778 84931.5787063,-4591744.19314 84562.4996215,-4591915.16541 84537.9477435,-4591917.28213 84542.431171,-4591920.9772 84303.1009283,-4591945.22828 84183.0958968,-4591990.04881 83829.7190471,-4592123.076 83508.0938187,-4592189.16471 83397.6066711,-4592211.90924 83103.1766826,-4592259.2461 82643.8219843,-4592419.2128 82341.2469542,-4592418.70038 82079.860504,-4592460.36846 81755.4237708,-4592533.12882 81578.3456642,-4592559.76337 81590.339276,-4592571.44395 81394.9489249,-4592600.28302 81075.3816609,-4592709.13866 80567.422067,-4592869.81921 80205.9644223,-4592914.59156 79935.0283811,-4592962.87659 79704.0069305,-4593098.32485 79380.1961681,-4593203.47271 79024.6796748,-4593308.21651 78766.6709559,-4593397.55523 78320.8420233,-4593562.62862 78015.2504015,-4593758.86896 77755.9475983,-4593824.84842 77449.9302192,-4593923.83937 77025.5429404,-4594032.12939 76635.024569,-4594056.37199 76571.4693066,-4594049.58562 76506.576241,-4594060.34812 76420.4573504,-4594093.46253 76404.5080799,-4594078.54963 76060.6398426,-4594216.45546 75693.5352922,-4594251.62707 75435.7169352,-4594291.0699 75023.0789958,-4594324.25369 74602.7019397,-4594429.289 74317.6322272,-4594483.0007 73960.7464189,-4594567.3887 73545.3559291,-4594615.72126 73026.3125134,-4594775.65555 72424.4691528,-4594924.58501 71915.84524,-4595000.51717 71380.484124,-4595132.59384 70948.5973333,-4595165.55101 70353.6072108,-4595225.72292 69732.1259097,-4595232.25962 69214.7585235,-4595281.82633 68730.2739428,-4595395.08519 68108.8466104,-4595485.9376 67450.7832958,-4595535.79675 67135.2816876,-4595544.61645 66505.8637727,-4595628.01236 66004.8421292,-4595751.84382 65649.3096333,-4595827.16828 65147.9022521,-4595949.03088 64544.4081937,-4596062.65396 64010.5597885,-4596218.59076 63281.0492482,-4596468.25977 62085.295022,-4596768.12489 61435.7502364,-4596929.19959 60971.8948054,-4596996.69995 60533.3782436,-4597036.08342 60225.4155177,-4597106.78142 59932.3263182,-4597194.96244 59516.8863353,-4597281.72761 59210.4989936,-4597387.75239 59051.8993783,-4597449.60451 58860.9402266,-4597576.96418 58589.504727,-4597668.21135 58460.508055,-4597694.67907 58289.9062816,-4597725.88543 58135.1035428,-4597690.18033 57929.4877783,-4597481.67144 57922.4564035,-4597185.71907 57918.8892402,-4597040.74046 57989.9952476,-4597006.61211 58209.4048843,-4596951.23221 58265.4141317,-4596907.61972 58260.3599371,-4596846.07517 58134.3428354,-4596807.97209 58054.4591294,-4596689.98019 57925.3254459,-4596612.16082 57848.9511394,-4596539.84655 57834.867597,-4596526.80222 57802.8930015,-4596477.01169 57764.3684008,-4596373.25999 57765.3486121,-4596369.20327 57778.4322957,-4596325.42572 58073.2926697,-4595885.32691 57979.3852673,-4595679.43386 57605.4153544,-4595642.19603 57471.180232,-4595396.04283 57365.8698542,-4595308.66675 57278.3165634,-4595301.46043 57258.2532992,-4595311.26552 57212.2305534,-4595267.88887 56707.2461196,-4595287.18474 56597.2726092,-4595189.63505 56584.9064951,-4595077.67067 56628.2104535,-4594977.50872 56690.2290119,-4594919.02994 56744.2918029,-4594868.56064 56709.8796194,-4594740.08404 56599.6421562,-4594600.63328 56522.3125481,-4594502.42944 56464.3208949,-4594307.63852 56414.2728598,-4594017.51009 56403.2783522,-4593952.86237 56384.820185,-4593922.63965 56269.8213545,-4593733.5986 56097.2747166,-4593602.74024 55989.1948792,-4593541.49146 55953.2227822,-4593521.90327 55909.683793,-4593459.39825 55925.2190584,-4593377.03431 55940.6041317,-4593296.17739 55897.2328418,-4593190.74516 55860.0891095,-4593145.7837 55803.6023333,-4593140.52074 55706.1258474,-4593175.8827 55647.1168464,-4593196.73513 55529.7814188,-4593173.02267 55496.6473785,-4593166.22195 55488.0890954,-4593161.29619 55409.7957462,-4593109.06338 55403.6450556,-4593015.65128 55434.7773751,-4592878.36517 55433.7499235,-4592858.97078 55428.6966521,-4592740.53519 55405.7731836,-4592703.1204 55378.7306228,-4592659.98847 55386.6972558,-4592599.08175 55391.245979,-4592565.84653 55428.6315972,-4592478.05169 55409.7469459,-4592403.44303 55350.6907257,-4592400.84367 55322.6368606,-4592399.19741 55278.6875379,-4592353.18618 55216.1807554,-4592078.34515 55215.506334,-4592052.93918 55216.2229167,-4591988.01854 55328.5097158,-4591809.96001 55328.7170975,-4591760.04381 55260.1452878,-4591669.74268 55240.530706,-4591637.10003 55191.1477535,-4591554.01908 55191.1038962,-4591409.30442 55187.4668372,-4591342.67435 55184.6268199,-4591254.03469 55158.5256488,-4591175.9085 55149.5877419,-4591150.0484 55102.0572176,-4591129.22345 54970.6388502,-4591073.49844 54928.5992694,-4591022.37035 54885.0223136,-4590928.92607 54855.5754311,-4590909.9049 54823.5460648,-4590889.55659 54785.0676224,-4590740.88353 54740.4176499,-4590585.63012 54744.5352509,-4590515.49528 54748.4304561,-4590434.39649 54697.4657081,-4590285.54682 54590.9565532,-4590210.21582 54559.9325172,-4590042.08863 54523.4895057,-4589935.69839 54513.3750795,-4589891.95039 54491.0868047,-4589792.11416 54502.8540985,-4589629.65485 54569.8862966,-4589506.97509 54578.3462347,-4589491.44768 54621.8619362,-4589348.85723 54585.8058133,-4589217.98923 54541.2962168,-4589189.97775 54469.3930606,-4589143.80728 54273.9306668,-4589127.22337 54076.0093231,-4589156.71177 53872.4124612,-4589198.55034 53703.9692511,-4589304.44777 53584.8676912,-4589329.74929 53525.6079535,-4589274.76179 53522.5750765,-4589107.28588 53432.3911117,-4589037.36529 53298.0035755,-4589023.74907 53223.0722221,-4588992.2486 53166.408401,-4588904.65242 53170.4967966,-4588701.27589 53113.8237607,-4588382.12749 52967.4043128,-4588117.28784 52884.3491445,-4587966.05274 52883.3956513,-4587921.20217 52959.7999042,-4587861.28344 52983.4034359,-4587802.84109 52891.4195988,-4587599.29517 52873.8516726,-4587392.85153 52833.4780282,-4587241.80337 52691.3754499,-4587042.55013 52658.3154554,-4586972.3636 52615.3055715,-4586879.87554 52606.9063002,-4586828.02894 52623.3704851,-4586790.01772 52653.7931396,-4586755.5801 52640.3105023,-4586630.21039 52522.8408158,-4586517.1667 52511.3152092,-4586497.46394 52506.4254009,-4586483.81238 52494.331561,-4586451.67105 52486.3824014,-4586289.00861 52479.3353679,-4586136.26765 52554.2961045,-4585955.67916 52558.7404629,-4585860.07121 52441.7544973,-4585655.67095 52354.2608159,-4585581.07723 52297.7786761,-4585587.28505 52135.2166026,-4585718.23862 52021.3796787,-4585778.12052 51879.4386474,-4585782.46035 51579.2845663,-4585532.20855 51329.271537,-4585274.16768 51316.4249829,-4585162.22824 51216.2707345,-4585024.08799 51205.2551239,-4585008.3435 51135.7966593,-4584881.65976 51123.2375623,-4584781.67824 51198.3499421,-4584743.80521 51234.8419892,-4584702.98076 51254.3728435,-4584681.23651 51298.7385236,-4584528.60825 51373.3013704,-4584493.76593 51435.744181,-4584437.7623 51417.7709271,-4584354.10636 51367.1715458,-4584286.56744 51354.2537432,-4584268.4527 51354.3149122,-4584239.00524 51354.7255232,-4584173.10479 51441.2869044,-4584043.65485 51554.2546533,-4583924.94619 51572.3164212,-4583880.84203 51485.7437205,-4583831.63592 51473.1844916,-4583750.61857 51548.237611,-4583567.53034 51654.1713313,-4583444.29449 51654.1383211,-4583375.4294 51660.6371178,-4583162.91137 51666.7230286,-4583035.25698 51654.1221619,-4582657.31552 51841.6998024,-4582508.25815 51754.2186739,-4582407.21077 51716.6153559,-4582313.36677 51729.0350933,-4582213.74191 51659.9899214,-4582127.45234 51636.1284923,-4582106.06391 51473.0662836,-4581963.56941 51410.4777659,-4581846.41397 51407.1700605,-4581841.64084 51330.1569819,-4581740.40367 51229.4688006,-4581647.20861 51154.1586923,-4581632.69192 50979.7044013,-4581738.46735 50937.1487691,-4581846.55971 50924.4955207,-4581980.63464 50912.1236015,-4582115.19024 50901.7392938,-4582131.84159 50885.6333014,-4582156.35437 50481.7603158,-4582108.5228 50419.6582051,-4582135.55759 50397.7871748,-4582144.47971 50257.6331066,-4582468.5829 50213.6598204,-4582570.28244 50053.2527583,-4582756.98257 49951.7420187,-4582875.4374 49896.6669431,-4582914.48767 49854.7344927,-4582944.68988 49503.3574862,-4583016.17928 49354.6788138,-4582944.60005 49317.2844013,-4582838.76176 49302.6728327,-4582825.24898 49192.7223924,-4582731.66216 49165.8605846,-4582694.99936 49318.302862,-4582542.75626 49321.7326831,-4582507.59728 49315.2399587,-4582389.74818 49217.7119315,-4582363.71528 49146.6442831,-4582277.05605 48980.2843765,-4582281.99346 48761.2260457,-4582282.40699 48697.677108,-4582196.25137 48704.861909,-4582032.08891 48680.8082697,-4581969.78933 48666.748574,-4581934.28152 48692.313686,-4581875.21112 48767.7391618,-4581876.24654 48792.7902591,-4581851.14579 48781.3273151,-4581752.58649 48779.8440116,-4581745.19806 48782.1728517,-4581735.06401 48797.75688,-4581653.19365 48761.2235066,-4581632.63616 48655.1726285,-4581632.61347 48592.834622,-4581595.28533 48548.6619404,-4581595.19166 48536.2064524,-4581595.51051 48530.2383476,-4581584.4241 48492.6779665,-4581514.02818 48449.2525566,-4581445.5145 48318.2626855,-4581457.11019 48311.8354093,-4581458.03129 48307.1221817,-4581450.85491 48254.6316201,-4581354.4899 48176.622519,-4581203.90573 53899.1887729,-4579027.68801 54790.7273708,-4578530.53698 54945.7617378,-4578444.512 54970.7835298,-4578430.39451 55020.1470145,-4578403.20221 55504.6131691,-4578139.86686 55548.1220885,-4578008.26857 56623.4443266,-4577437.70207 56747.5631185,-4577488.93713 57304.5405937,-4577174.94738 57526.7891911,-4576660.87693 57621.3945775,-4575193.64114 57631.3069117,-4575185.00721 57696.8611171,-4575130.80893 57824.2083168,-4572453.90758 57848.5570433,-4572106.02045 57867.0813765,-4571844.3398 57883.1419729,-4571609.76571 57888.6464061,-4571530.06758 56816.7408772,-4571593.3355 51999.7829329,-4566978.75548 51685.1766917,-4566677.98614 51733.3308649,-4566628.42563 54867.9409823,-4563355.44171 57296.564511,-4560923.26041 57661.5459066,-4560560.59814 58301.9807745,-4559915.98152 58316.0088601,-4559901.59255 59644.8771552,-4558564.35275 59643.7211479,-4558561.93357 59621.7879011,-4558504.99018 59620.7179542,-4558500.07064 59539.4483338,-4558142.14793 59538.7891666,-4558139.69627 59501.8155323,-4558035.83661 59431.413474,-4557928.17396 59358.9086283,-4557845.59596 59288.268198,-4557730.46427 59254.3126532,-4557573.51827 59195.9593409,-4557333.34494 59188.3517229,-4557300.91135 59116.354575,-4557122.99994 59092.2615453,-4557059.71061 58979.8053189,-4556785.64992 58873.8750394,-4556523.63595 58872.2547225,-4556521.746 58858.8066484,-4556411.35852 58842.8621614,-4556285.66663 58810.4121378,-4556033.32154 58771.2675623,-4556006.93931 58720.8894131,-4555972.80864 58697.8605453,-4555956.35062 58697.3177518,-4555928.94376 58695.390583,-4555773.39689 58694.7191806,-4555755.4785 58691.8131621,-4555749.18195 58640.4358871,-4555657.73693 58541.3328704,-4555481.09441 58411.4112242,-4555256.56893 58356.2828501,-4555122.95725 58353.7550821,-4555118.63176 58311.3276739,-4554973.21351 58291.9442763,-4554894.1479 58244.2646425,-4554836.38922 58175.3924239,-4554629.82937 58155.696101,-4554549.78609 58116.8654447,-4554390.66067 57937.2309879,-4554023.68339 57905.3731108,-4553936.94947 57870.794607,-4553865.86071 57696.9226239,-4553548.89947 57677.3056145,-4553508.26784 57539.8146035,-4553228.84668 57587.2499824,-4553007.70653 57575.8534566,-4552783.42144 57598.4363633,-4552751.01219 57575.2104296,-4552674.19217 57590.8341205,-4552573.38137 57651.7159432,-4552520.01121 57697.7904587,-4552480.58037 57737.8462641,-4552387.15642 57794.3104027,-4552331.08113 57800.3257668,-4552316.21889 57831.7419917,-4552243.31718 57837.1637861,-4552238.47275 57844.234555,-4552155.68405 57917.7403282,-4552051.09642 57958.3806428,-4551978.09196 58008.1424736,-4551777.25974 57976.3042373,-4551560.79672 57963.2130399,-4551543.68873 57894.2573532,-4551450.39381 57875.2881015,-4551362.31923 57719.2633958,-4551150.46605 57716.2929445,-4551143.17558 57687.657897,-4551075.19056 57652.7383325,-4551060.0056 57594.7571583,-4550981.96032 57581.1798064,-4550957.39955 57600.2289914,-4550824.932 57583.2380844,-4550778.63999 57510.374933,-4550755.45235 57451.2600576,-4550682.96916 57409.6966737,-4550611.83556 57392.2518451,-4550547.11168 57318.696337,-4550475.07133 57294.2630081,-4550387.35239 57228.2036885,-4550330.78932 57134.3975384,-4550315.45371 57091.3229037,-4550282.33885 57050.6672721,-4550225.11624 56950.3257433,-4550170.78914 56814.2954868,-4549944.15468 56794.3885382,-4549876.09806 56740.912386,-4549821.20813 56740.3263978,-4549456.50813 56775.7528736,-4549269.08436 56877.2707772,-4549092.81822 56902.3181612,-4549052.26612 56906.8005538,-4549044.48946 56884.2163772,-4548812.94983 56887.6837581,-4548751.35213 56894.3596463,-4548601.23006 56954.8787,-4548423.64722 57038.3167224,-4548325.89985 57119.2064878,-4548169.94131 57188.1186023,-4547994.80602 57256.630009,-4547901.52543 57273.7612459,-4547839.03735 57300.1289413,-4547688.63053 57306.6861914,-4547632.32042 57450.7072421,-4547507.17418 57563.1367077,-4547345.16994 57569.110027,-4547325.82044 57706.6626371,-4547151.20215 57856.6293812,-4546845.55015 57911.6953033,-4546729.69767 58224.1960571,-4546054.71319 58274.1423012,-4545963.64396 58714.1672104,-4545159.115 58961.9642683,-4544275.81576 59513.320692,-4542028.13272 60071.9574516,-4539615.37619 60239.7844743,-4538901.4721 60320.933635,-4538779.94279 60336.8469881,-4538748.47309 60427.2639378,-4538619.85512 61042.808124,-4537993.07706 61758.5895483,-4537350.31008 62781.4676499,-4536374.27127 63327.3956523,-4535850.84303 63394.4735833,-4535789.10771 65508.7739099,-4533771.33254 65906.6504097,-4533391.76578 65954.1947464,-4533217.56122 65935.7302432,-4533060.11902 65944.2029177,-4533033.12797 65938.6763519,-4533021.01528 65885.8722968,-4532903.22049 65859.2335897,-4532792.70481 65851.3200325,-4532782.24385 65853.2777,-4532532.18004 65774.3830103,-4532461.9769 65706.8192674,-4532427.9541 65340.269198,-4532368.46162 65065.2635527,-4532358.89411 64612.4595784,-4532369.36131 64429.4859266,-4532355.80838 64328.341121,-4532292.537 64160.9519892,-4532227.08451 64050.0512662,-4532224.81206 63888.4246949,-4532267.24357 63824.0202029,-4532293.3798 63643.4217515,-4532274.18411 63472.6010194,-4532190.49469 63298.0475175,-4532179.88581 63066.5008713,-4532178.96692 62895.4687992,-4532161.14445 62715.0824647,-4532103.02006 62544.0786483,-4532008.86387 62490.1040466,-4531995.90726 62262.552821,-4531941.34543 62184.7314372,-4531929.93814 62128.0662683,-4531921.6463 61991.6187814,-4531837.21714 61585.5887473,-4531857.61137 61481.2617415,-4531852.91499 61410.1941335,-4531822.60899 61402.2802597,-4531812.14723 61385.5781852,-4531789.28487 61330.7972068,-4531714.01677 61280.3331667,-4531651.43967 61251.3152384,-4531469.72697 61173.2264811,-4531400.46288 61158.7774284,-4531308.60468 61097.6996516,-4531236.23959 60966.3677925,-4531034.7306 60842.8482438,-4530903.55862 60840.3866761,-4530900.22615 60759.2887645,-4530857.59876 60609.7594043,-4530821.41202 60482.341053,-4530772.31384 60393.6899796,-4530701.73861 60372.8461816,-4530699.60014 60238.8405427,-4530687.35013 60235.8498773,-4530683.55308 60213.7317169,-4530680.99845 60142.3407171,-4530645.72247 60123.7250657,-4530589.55643 60060.8249962,-4530546.74398 59997.2825431,-4530482.51979 59938.3862247,-4530451.4211 59909.9432984,-4530351.4896 59736.4799838,-4530231.04185 59639.3216272,-4530186.96138 59546.9413375,-4530166.51855 59381.3399989,-4530086.47046 59225.4264723,-4530005.79278 59016.4553334,-4529907.10679 58781.4818629,-4529945.81604 58652.4003346,-4530005.58827 58583.592235,-4529960.1644 58526.0141885,-4529884.07559 58401.4481781,-4529859.73494 58308.4948945,-4529757.50428 58184.9350923,-4529725.61402 58034.0266659,-4529698.99212 57804.4854947,-4529610.12072 57598.4789154,-4529441.88704 57508.5192124,-4529331.97622 57294.9884042,-4529339.85427 57140.4941543,-4529231.13954 57039.6392917,-4529110.95854 56917.4939795,-4529073.98512 56810.5954243,-4529087.41213 56779.5074289,-4529061.98909 56697.5716679,-4528879.70841 56608.6218275,-4528750.7702 56578.1145037,-4528734.29014 56362.1615933,-4528704.90286 56192.2179253,-4528681.01028 55918.6390215,-4528659.3553 55667.1299194,-4528658.71973 55495.7614225,-4528662.8601 55390.7122692,-4528697.12219 55066.780347,-4528660.77349 55043.9153812,-4528658.26633 54679.736966,-4528586.11062 54365.442544,-4528529.17682 54092.8283137,-4528472.53029 53858.961619,-4528436.31987 53739.2791077,-4528418.14353 53456.841938,-4528513.81746 53196.9699724,-4528565.11634 53057.9009536,-4528609.57096 53031.4152027,-4528612.78729 52811.4861379,-4528587.64671 52734.9871623,-4528600.5964 52578.3824416,-4528586.31365 52515.0922248,-4528602.89656 52347.9580662,-4528653.16525 51979.9598446,-4528703.00203 51574.0010529,-4528686.94407 51390.1530429,-4528633.5136 51183.5118608,-4528620.98164 51106.6665423,-4528594.03575 50996.0524458,-4528396.63558 50903.7041692,-4528342.25395 50773.6823328,-4528314.76767 50771.0915471,-4528309.44707 50559.0911531,-4528083.69793 50389.2179862,-4527926.56751 50246.6619229,-4527840.51478 50156.6256713,-4527817.91665 50014.7549707,-4527784.71123 49928.3495466,-4527721.95847 49903.2421686,-4527665.70578 49840.7508319,-4527640.82054 49751.2301422,-4527626.17229 49709.7121591,-4527578.4693 49624.2381854,-4527541.60287 49622.1861115,-4527540.73808 49584.7627223,-4527490.77326 49534.6208407,-4527421.67433 49532.1817857,-4527414.8468 49410.8403951,-4527394.2795 49293.3009484,-4527340.03308 49169.8521329,-4527321.59826 49155.1694188,-4527195.3087 49116.6782421,-4527140.42277 48979.2779508,-4527106.92519 48931.1823275,-4527023.22185 48792.9169289,-4526991.77604 48671.2986885,-4526855.45923 48594.2220137,-4526836.50913 48574.207481,-4526831.81997 48522.9282044,-4526872.07308 48438.316781,-4526936.944 48288.2314719,-4526977.12211 48050.2909638,-4526789.96973 47777.3770534,-4526590.61441 47489.0148337,-4526556.9302 47234.0279534,-4526530.06205 47118.5132054,-4526453.22567 46840.8400871,-4526265.15304 46573.5553538,-4526214.13088 46408.3990835,-4526214.36715 46261.9498619,-4526060.69277 46061.9540375,-4526000.81258 45968.0768657,-4525919.07708 45876.4524059,-4525883.60332 45798.5072641,-4525774.38621 45722.0600201,-4525707.48778 45490.5367163,-4525661.6276 45250.0476966,-4525581.41753 45003.0088572,-4525384.86159 44774.2354174,-4525346.80559 44545.1026879,-4525314.76082 44246.7291708,-4525176.92309 43910.1706548,-4524877.38167 43809.2248635,-4524802.08882 43389.3017762,-4524771.43724 43268.1443346,-4524753.84479 43258.6608923,-4524749.9686 43143.7273377,-4524697.53932 43043.3671791,-4524673.60749 42995.190929,-4524661.7611 42899.3320214,-4524557.19311 42842.709825,-4524361.25254 42842.3002159,-4524358.78394 42690.764353,-4524222.89373 42680.7558999,-4524207.07469 42508.2796261,-4523936.80454 42504.2073977,-4523935.5715 42416.7901236,-4523907.30579 42312.3597067,-4523816.76575 42142.416903,-4523793.35201 41880.3570254,-4523711.53535 41705.7495466,-4523593.10707 41572.831903,-4523528.86565 41505.4057249,-4523454.88816 41392.3493914,-4523262.10302 41127.3858026,-4523027.76447 40892.0142804,-4522814.96083 40765.8398766,-4522604.55884 40612.848887,-4522430.8277 40585.966554,-4522358.71148 40573.9012775,-4522326.55653 40460.8474102,-4522268.50976 40295.0468741,-4522251.31045 40205.4143595,-4522219.69185 39924.9946625,-4522247.3507 39865.4152209,-4522382.96215 39786.8919488,-4522561.22316 39784.9040951,-4522561.35202 39780.9561165,-4522573.58519 39663.5118435,-4522605.65209 39550.4383769,-4522593.51904 39473.0997987,-4522532.15834 39466.5333592,-4522527.09441 39409.5753332,-4522506.83206 39328.0771222,-4522473.68785 39201.5249067,-4522423.00281 39190.0209903,-4522418.75796 39015.9212617,-4522454.49733 38929.4763473,-4522472.07832 38837.6424076,-4522429.62263 38815.0023753,-4522392.16365 38619.0938456,-4522280.09788 38512.5021979,-4522210.15187 38450.6333806,-4522121.83592 38382.1843883,-4522062.89187 38363.9988622,-4522071.05746 38356.9905983,-4522063.02767 37917.683181,-4522099.48732 37871.0318047,-4522103.50926 37622.2392224,-4522095.68014 37328.1928612,-4522024.90704 37156.168356,-4521884.83889 37132.7642155,-4521866.39301 37048.2313526,-4521798.0095 36955.245199,-4521714.7025 36858.7292221,-4521703.9894 36734.5797851,-4521713.53288 36570.6804685,-4521729.6452 36521.1752283,-4521708.89816 36476.7597234,-4521631.92493 36438.2896004,-4521573.53112 36308.2959286,-4521473.6566 36251.2069376,-4521451.40448 36152.3299321,-4521373.46857 36137.2686344,-4521348.99175 35878.7575771,-4521183.58136 35766.1341528,-4521166.92396 35703.7301411,-4521116.56832 35607.7096119,-4521105.82197 35596.8632399,-4521104.02944 35501.7267494,-4521045.31404 35368.8914387,-4521047.93296 35170.8620216,-4521057.27192 35138.2443908,-4521058.38742 35006.3983933,-4521018.52008 34857.8570402,-4520959.77104 34682.7495009,-4520872.29896 34645.8989259,-4520815.79466 34615.8261305,-4520802.27163 34487.4352824,-4520765.67319 34422.383483,-4520766.89381 34418.2786603,-4520765.16344 34158.3424372,-4520766.53469 33868.329827,-4520889.13754 33708.4421738,-4520855.57783 33602.9163334,-4520832.96915 33452.9178133,-4520790.28375 33270.9345042,-4520808.56389 33139.3419556,-4520826.57349 33069.5173699,-4520792.66744 32950.41671,-4520676.10944 32801.9815253,-4520638.31289 32755.5388147,-4520626.34914 32733.9655117,-4520593.80822 32547.4093614,-4520460.65768 32520.9898729,-4520441.90632 32469.4900246,-4520405.81411 32449.0213663,-4520367.21223 32401.0663852,-4520277.98554 32341.5058598,-4520167.55018 32313.3787283,-4519999.17885 32356.4721281,-4519836.17559 32309.0501758,-4519789.83668 32281.0381671,-4519781.17023 32208.5722145,-4519733.45901 32132.9862685,-4519679.96057 32082.9472967,-4519589.3708 32062.9135652,-4519495.83903 32114.6094645,-4519330.78111 32164.4973813,-4519272.64837 32238.9367094,-4519108.11412 32177.1107205,-4519066.7005 32078.9922657,-4519050.59623 31893.4883739,-4518983.75327 31825.037265,-4518897.84907 31732.4034663,-4518793.0477 31580.0783309,-4518753.00294 31466.0287204,-4518698.99956 31433.5743003,-4518621.74359 31415.5824394,-4518578.98746 31307.1273655,-4518553.56957 31140.1392986,-4518514.47363 30938.0490198,-4518422.74874 30893.4686897,-4518424.13855 30832.4864804,-4518426.59058 30780.6902095,-4518424.45482 30733.4779038,-4518416.03285 30658.09739,-4518384.97864 30572.9746033,-4518346.07036 30515.059538,-4518303.40355 30469.1015665,-4518244.98894 30443.2178838,-4518188.26894 30422.5245854,-4518146.18618 30389.1069267,-4518096.44247 30350.2061891,-4518081.49263 30310.0987655,-4518082.59255 30230.2140712,-4518024.37816 30147.0786057,-4517915.96356 30084.1304149,-4517845.67161 30024.1106788,-4517751.23237 29951.0573601,-4517663.62632 29887.1706091,-4517590.40005 29857.7312387,-4517582.82306 29788.0590264,-4517589.82995 29737.0809247,-4517592.6317 29734.0665403,-4517592.32776 29730.6194886,-4517593.05008 29662.7100086,-4517596.44902 29632.6644078,-4517567.94829 29586.2345597,-4517548.4943 29538.1454823,-4517495.70677 29545.2273047,-4517439.34694 29535.2079557,-4517377.10672 29475.0399831,-4517299.64605 29439.2697752,-4517198.14525 29475.1158465,-4517069.54732 29546.0511411,-4516974.1152 29559.2002891,-4516838.00288 29460.2661945,-4516736.09911 29341.5574282,-4516683.3907 29172.6108546,-4516575.53724 29054.5994905,-4516487.34557 28950.082537,-4516445.69665 28887.1314609,-4516359.92972 28844.2195812,-4516259.88828 28796.3029815,-4516186.6242 28780.7883016,-4516139.71268 28756.6420802,-4516067.40545 28746.1333234,-4516036.14179 28745.2590713,-4516034.20189 28700.3160283,-4515956.75212 28628.3132186,-4515866.08004 28555.6147596,-4515783.93792 28552.0944465,-4515779.67365 28505.8365519,-4515739.74299 36981.0129302,-4507494.6481 43342.6944447,-4501264.59624 43371.0921591,-4501236.81512 43516.2466019,-4501081.23818 43677.7039135,-4500907.64361 46885.1929734,-4497742.1962 47602.0023597,-4497065.26556 47900.0127595,-4496784.58834 47959.5012326,-4496724.36887 51807.6769948,-4492823.99224 52209.9578274,-4492562.57977 52278.0029328,-4492247.85264 52286.5457545,-4492182.93839 52312.0259936,-4492090.4893 52484.0555367,-4492053.96514 52731.4998711,-4492003.10492 52874.0490648,-4491733.4777 52907.4865218,-4491462.39496 52856.1596481,-4491188.28788 53011.2183357,-4491062.55049 53054.6356453,-4491027.82304 53194.0328783,-4490914.57023 53267.0188496,-4490730.75237 53437.1893951,-4490680.88034 53565.9938789,-4490666.60127 53739.0468638,-4490630.51421 53883.1726503,-4490288.44688 53956.0567527,-4490149.54215 54021.491224,-4490096.43482 54097.1361635,-4490039.17786 54102.0743816,-4489922.10974 54124.995667,-4489704.59664 54216.4940138,-4489637.83803 54298.1652927,-4489430.01559 54437.5406518,-4489254.40314 54799.558023,-4489189.19583 54914.1920659,-4489222.23179 55046.1032687,-4489209.75138 55075.211885,-4489196.90177 55184.0087647,-4489146.99278 55234.6325987,-4489146.72853 55264.6436482,-4489202.17351 55380.0591996,-4489204.72457 55595.5584142,-4489165.41143 55681.0465596,-4489040.16894 55749.1366344,-4489012.83691 55843.9466001,-4488974.30603 55904.1121119,-4488843.2099 56019.9919111,-4488794.84192 56057.6380123,-4488763.48222 56147.4376825,-4488685.85973 56147.6127476,-4488645.93506 56403.0584548,-4488374.5524 56878.1202568,-4488193.81378 57213.4778264,-4487788.0769 57327.6325732,-4487526.78845 57392.458686,-4487378.93268 57783.0613627,-4487071.92503 57961.6074033,-4486849.90309 58063.6433171,-4486652.26034 58148.5465975,-4486494.63444 58302.0302786,-4486375.50394 58466.1657961,-4486325.03606 58587.5148009,-4486245.39048 58799.1661681,-4486212.32218 58943.6354574,-4486123.70688 59111.0303256,-4486038.60662 59358.9617373,-4485906.42076 59725.574268,-4485645.37382 59710.6213995,-4485533.08707 59723.6550833,-4485440.95201 59897.6250765,-4485368.90158 60005.5089464,-4485332.03166 60224.4771223,-4485242.12199 60442.4830118,-4485152.77363 60510.5774388,-4485164.35991 60565.5625411,-4485173.79571 60649.5622654,-4485153.42852 60694.4791854,-4485142.05963 60804.551249,-4485061.64696 61035.0157094,-4485045.83216 61074.4815428,-4485042.79595 61156.372739,-4485024.56013 61210.9843965,-4484981.63756 61343.5619532,-4484878.82593 61823.9690738,-4484451.83404 61871.3588922,-4484416.85969 62143.5790423,-4484150.42321 62187.5552104,-4484081.74533 62349.0681307,-4484010.00253 62462.3872824,-4483817.13901 62496.1187184,-4483732.6574 62976.5080439,-4483278.24415 63630.4143099,-4482993.2752 63808.4973194,-4482915.48299 63950.0625354,-4482661.44616 64208.4987134,-4482397.90575 64224.1058585,-4482283.66239 64265.8760883,-4482196.17299 64399.4778933,-4482183.09949 64441.5369297,-4482154.45676 64469.0358322,-4482038.951 64541.1071285,-4481964.97985 64690.0982443,-4481962.39178 64720.4046294,-4481925.52499 64746.0997126,-4481844.05771 64733.0776939,-4481730.6569 64759.8915932,-4481631.65798 64795.4741378,-4481610.91458 64871.4210505,-4481605.03802 65010.0887848,-4481523.29772 65074.9719716,-4481422.85151 65128.4762885,-4481296.69737 65259.5831671,-4481260.34009 65438.984125,-4481047.78058 65600.6235539,-4481051.86475 65714.0746782,-4480969.7507 65713.5022371,-4480925.88903 65626.0542285,-4480888.60503 65625.5368121,-4480876.66595 65626.1195583,-4480800.30501 65694.4973692,-4480781.4467 65713.1409713,-4480788.23079 65719.463511,-4480564.34183 65862.0641255,-4480458.40751 65820.0391594,-4480398.25202 65756.510676,-4480329.50054 65776.4827676,-4480259.87611 65737.1652289,-4480203.03848 65732.0309098,-4480196.88321 65736.4932168,-4480064.4026 68016.0770251,-4477700.72518 68053.708529,-4477661.39667 68252.6158491,-4477449.59894" style="stroke-linejoin:round;stroke:#000;stroke-width:1px;fill:none" /></g></g></svg>