<svg xmlns="http://www.w3.org/2000/svg" baseProfile="full" height="80862.0855249" version="1.1" viewBox="54832.839474,4237193.533241,40782.281164,80862.085525" width="40782.2811636"><defs><style type="text/css">polyline,line,rect,path,polygon,.polygon{fill:none;stroke:#000;stroke-width:1px;stroke-linejoin:round;}</style></defs><g fill_rule="evenodd" transform="scale(1,-1)"><g class="hogares departamen mujeres departam_1 toponimo_i tot_pob varones viv_part viv_part_h" id="06616"><polygon class="_06616" id="None" points="55358.0899995,-4237167.23111 64602.0599284,-4246623.30429 70208.2396695,-4252358.67986 71627.717413,-4253811.2079 71642.5204157,-4253826.39518 79231.9380143,-4261592.20644 81229.5977438,-4263642.78178 82068.549115,-4264504.94845 85528.6731471,-4268057.30091 85579.5000159,-4268111.2167 86225.0087915,-4268799.94133 86228.7855149,-4268801.3625 86871.1592462,-4269459.16715 92527.3640706,-4275245.83997 94558.3297219,-4277323.84789 94681.1453413,-4277440.22288 95171.7247788,-4277945.20579 95173.2436693,-4277946.17366 91599.0619059,-4281448.577 93351.5392153,-4283258.98157 89763.7958072,-4286814.80357 89649.4721349,-4286674.77227 86024.5439321,-4290125.10529 86877.012671,-4290982.32828 86887.479287,-4290993.10364 83323.6011947,-4294410.85701 85189.0126329,-4296389.7709 85217.3654196,-4296419.66138 85224.0140009,-4296427.01822 77984.3293308,-4303449.7412 77953.517515,-4303481.86353 77930.5101195,-4303504.82887 73488.143486,-4308072.72467 71117.6030153,-4310509.79917 71090.9533168,-4310537.83968 65807.1994269,-4315786.34819 63819.2548926,-4317772.87754 60654.4123217,-4314498.16086 54893.9668316,-4308568.71105 54894.6016173,-4308539.21163 54912.0042988,-4307371.39642 54917.2574204,-4304947.42777 54969.5846948,-4297308.96912 54991.0991508,-4294096.56289 54991.2368476,-4294067.07421 55017.5881447,-4289650.65705 55139.2558854,-4279641.00443 55130.2346562,-4279192.4101 55118.105734,-4272989.69514 55125.2444041,-4272233.41825 55189.8145663,-4265568.85444 55190.142238,-4265548.35774 55196.826761,-4264865.55496 55203.1368295,-4262585.54312 55209.3255147,-4259617.37042 55217.7284751,-4256864.04558 55268.995562,-4250240.72753 55271.1457384,-4249943.32832 55318.0943275,-4247222.19013 55352.144512,-4239542.7103 55354.4316706,-4238664.08652 55356.6433014,-4237573.56555 55358.0899995,-4237167.23111" style="stroke-linejoin:round;stroke:#000;stroke-width:1px;fill:none" /></g></g></svg>