<svg xmlns="http://www.w3.org/2000/svg" baseProfile="full" height="70598.1975031" version="1.1" viewBox="5018.809950,3928664.040046,74930.604147,70598.197503" width="74930.6041471"><defs><style type="text/css">polyline,line,rect,path,polygon,.polygon{fill:none;stroke:#000;stroke-width:1px;stroke-linejoin:round;}</style></defs><g fill_rule="evenodd" transform="scale(1,-1)"><g class="id" id="06623"><polygon class="_06623" id="None" points="8226.74958242,-3933041.32519 8250.07695527,-3933012.73989 8290.69092198,-3932949.37198 8327.50549863,-3932910.64911 8376.44165864,-3932859.35873 8440.68011595,-3932721.96372 8493.40779042,-3932651.02103 8496.02650527,-3932648.39828 8553.10803765,-3932579.74103 8631.42054881,-3932547.49688 8681.03150204,-3932479.20129 8759.60099559,-3932333.62558 8859.87527208,-3932285.8422 8924.4193417,-3932237.29172 8956.88826273,-3932175.81639 9006.83659043,-3932145.44433 9044.35804222,-3932131.64804 9091.98478108,-3932120.35804 9110.70132356,-3932109.96763 9120.05168441,-3932071.07669 9135.86041868,-3932041.85732 9158.67381101,-3932007.80625 9206.38092464,-3931977.5428 9246.15153474,-3931958.64578 9256.98799524,-3931924.67503 9292.62974196,-3931902.98261 9306.77563624,-3931885.82459 9313.57158499,-3931856.04297 9336.89100271,-3931832.45074 9355.94496481,-3931813.55769 9366.66895263,-3931787.57966 9401.3225764,-3931776.41832 9427.76657964,-3931776.13737 9477.40974797,-3931718.82369 9566.34980529,-3931612.18507 9652.3337253,-3931516.67204 9689.93587511,-3931452.95239 9704.56365064,-3931445.75518 9732.58202815,-3931441.90378 9769.13113463,-3931444.12927 9772.47280455,-3931440.97243 9837.57908855,-3931383.41036 9905.36865518,-3931298.76193 9995.7133562,-3931277.91811 10072.2985997,-3931204.82516 10108.9128526,-3931136.16179 10187.2982697,-3931012.56326 10313.5252178,-3930975.00834 10419.7905244,-3930947.90375 10511.7747877,-3930852.6013 10551.4176598,-3930774.30728 10634.9990173,-3930716.85104 10692.7073314,-3930645.67052 10767.372669,-3930574.16916 10794.7570188,-3930531.4118 10853.7019481,-3930480.63858 10896.6051778,-3930449.11133 10927.3949579,-3930425.15863 10955.5660228,-3930403.82855 10982.6606222,-3930386.04488 11011.9722457,-3930367.65481 11049.2040966,-3930347.88333 11068.7964423,-3930319.48034 11092.6701772,-3930291.86869 11129.8538409,-3930271.10121 11167.0456546,-3930245.34146 11206.639003,-3930227.95181 11240.4973004,-3930200.35656 11260.0810794,-3930192.42083 11288.2761808,-3930171.58893 11355.6065561,-3930139.37988 11367.2219392,-3930131.82953 11383.166858,-3930126.06655 11412.9200893,-3930111.6488 11490.2026769,-3930083.95044 11492.1225159,-3930082.36004 11527.0176614,-3930029.75543 11528.6403219,-3930027.18102 11535.8779983,-3930016.84727 11549.2282721,-3930014.20492 11564.9564133,-3930003.95978 11592.1072515,-3929982.18015 11619.1776591,-3929963.89872 11638.5287215,-3929945.9906 11675.559559,-3929927.22754 11707.2966302,-3929917.70583 11727.0325502,-3929923.24088 11750.8171636,-3929919.59478 11812.5322672,-3929895.14543 11832.2127433,-3929873.72713 11863.8457187,-3929851.73087 11890.0322557,-3929840.98006 11915.7612208,-3929820.76687 11948.2452463,-3929811.20911 11981.2672575,-3929807.61556 11997.356579,-3929804.84081 12060.5993419,-3929729.40095 12066.2712055,-3929702.17075 12097.8718647,-3929684.66882 12127.2719031,-3929657.78883 12159.3864523,-3929645.7531 12191.9201176,-3929590.76735 12221.6332043,-3929570.36167 12261.9967946,-3929568.90914 12302.2886505,-3929550.48788 12338.3790916,-3929543.2518 12379.2488489,-3929536.78299 12424.1196727,-3929504.66245 12471.3995835,-3929491.39436 12496.4213881,-3929477.20578 12508.6156898,-3929450.65873 12537.2522187,-3929433.79949 12567.4709001,-3929423.8523 12604.5249837,-3929421.06232 12620.8790791,-3929423.76584 12684.5852167,-3929414.69541 12700.3860223,-3929390.46995 12734.4043567,-3929371.35383 12760.1408353,-3929361.62339 12772.9124725,-3929362.50342 12776.077336,-3929360.85285 12830.0074795,-3929361.24038 12864.5637274,-3929348.08844 12903.1516723,-3929351.2145 12968.1584505,-3929353.56236 13062.8698182,-3929340.49701 13121.1615071,-3929338.17777 13153.8136867,-3929332.10643 13192.9881836,-3929326.7181 13239.9059421,-3929321.45457 13287.3939244,-3929317.661 13332.5445095,-3929311.98374 13395.1337118,-3929300.47157 13446.1957862,-3929303.49367 13496.5589702,-3929307.54791 13533.644952,-3929300.26389 13566.1765838,-3929291.70254 13599.8410592,-3929275.59881 13626.0594433,-3929260.35427 13659.5706214,-3929261.72909 13661.907982,-3929263.61278 13854.9103051,-3929270.25485 13917.9407606,-3929262.71482 13931.5238367,-3929254.5705 13947.2604547,-3929223.85927 13959.0529413,-3929199.32883 13986.380012,-3929176.04401 14023.4980987,-3929164.26598 14043.8119013,-3929166.27888 14053.8607546,-3929157.30711 14146.5524245,-3929205.73789 14183.9734382,-3929251.84911 14198.3187496,-3929264.63316 14213.7158674,-3929288.8473 14258.9616931,-3929300.63648 14296.6170036,-3929310.2968 14357.6233863,-3929291.87289 14362.0895861,-3929286.16608 14395.7613848,-3929280.54471 14419.8430329,-3929262.4086 14445.8274311,-3929268.14066 14459.3534566,-3929279.46677 14470.0036176,-3929298.41947 14489.4011772,-3929312.4567 14567.0436138,-3929261.28165 14598.6598972,-3929233.79625 14630.2673538,-3929226.77722 14663.8832691,-3929209.67771 14702.5514512,-3929193.83146 14732.7459269,-3929167.91237 14765.5425766,-3929149.35501 14799.8332296,-3929130.72544 14840.3806091,-3929122.77507 14869.3129668,-3929122.37461 14896.3736868,-3929124.56047 14919.8197599,-3929129.41693 14931.0242149,-3929144.3494 14946.4857733,-3929159.57522 14948.0279366,-3929160.499 15030.9453869,-3929156.49014 15050.1273234,-3929135.09692 15079.3656132,-3929115.21418 15125.551809,-3929100.00291 15176.1395335,-3929088.073 15225.610218,-3929089.17542 15336.9609747,-3929100.26443 15398.4640371,-3929097.29096 15458.9628215,-3929099.35768 15520.015949,-3929097.40429 15540.1855569,-3929080.95509 15560.3070106,-3929063.5099 15597.9300324,-3929062.19013 15639.3520228,-3929067.17582 15664.8709776,-3929052.96384 15680.2538201,-3929025.26536 15685.9421756,-3928988.05231 15691.7344415,-3928963.31332 15696.530717,-3928938.62248 15705.6961961,-3928921.70701 15721.3838092,-3928905.47457 15745.4486775,-3928897.32289 15763.2638242,-3928904.44823 15786.7330616,-3928925.27675 15804.3790182,-3928944.39015 15817.6468896,-3928976.19423 15835.3802728,-3929017.76566 15838.9853632,-3929051.03521 15847.6990604,-3929081.56196 15936.3248822,-3929118.20844 16055.1934255,-3929114.45818 16159.2201189,-3929067.00025 16163.3808551,-3929065.30161 16244.6777215,-3928986.49733 16247.9710841,-3928982.34484 16263.3139407,-3928948.65858 16287.1062363,-3928924.54703 16318.6167925,-3928915.53629 16367.5020886,-3928878.73102 16411.8730989,-3928846.63646 16458.106773,-3928832.42157 16495.514777,-3928780.19821 16555.6138437,-3928722.38555 16590.2010223,-3928704.7405 16624.3383449,-3928688.11554 16653.5115397,-3928677.22128 16697.6238059,-3928681.07872 16730.0332225,-3928685.50188 16755.823579,-3928702.72392 16756.7308259,-3928711.16571 16782.135997,-3928720.41986 16795.1788331,-3928933.42813 16737.5700439,-3928991.1204 16757.5422843,-3929079.00466 16788.1200228,-3929092.00188 16825.3883322,-3929109.16802 16858.2393232,-3929117.5629 16878.6569812,-3929116.57578 16986.0634313,-3929087.42362 16988.0313193,-3929086.82933 16999.0916597,-3929083.29967 17022.6980724,-3929081.16009 17046.0231708,-3929083.52649 17059.9504347,-3929092.83625 17069.4604062,-3929093.37479 17104.9273664,-3929161.04254 17243.7735688,-3929271.13166 17275.7405921,-3929287.05648 17290.928665,-3929301.79591 17291.8118876,-3929309.73965 17311.2569448,-3929324.77241 17326.0228678,-3929459.8281 17390.3192052,-3929468.19986 17411.9576211,-3929466.65447 17439.9171953,-3929466.80007 17457.7396773,-3929484.40698 17471.1847926,-3929499.23061 17491.1103032,-3929555.17053 17505.8244731,-3929570.43194 17557.2677058,-3929627.84276 17556.5503624,-3929700.75359 17570.7660413,-3929731.51276 17581.1914949,-3929735.50102 17604.6844959,-3929756.82686 17610.6834016,-3929787.98332 17612.995576,-3929820.31636 17614.06379,-3929821.76216 17628.2795025,-3929852.52129 17700.4933126,-3929921.40626 17705.1668776,-3929956.12082 17742.5221468,-3930011.21763 17754.8345661,-3930033.58316 17757.9428883,-3930035.92861 17782.1828922,-3930057.21819 17801.9297455,-3930192.03216 17769.4320868,-3930196.09947 17755.2072345,-3930201.27973 17718.8301687,-3930202.53974 17640.935719,-3930196.82278 17571.6506137,-3930224.63179 17564.0358883,-3930237.47882 17539.3851023,-3930254.14463 17509.6662749,-3930264.06742 17479.1204596,-3930262.05055 17488.4034203,-3930340.46767 17555.8627829,-3930409.08313 17590.5043382,-3930433.86284 17670.6227079,-3930480.40242 17782.1448988,-3930582.82542 17875.5639019,-3930641.20022 17926.9994785,-3930703.60203 17992.98858,-3930788.26072 18011.9357453,-3930803.31709 18035.7101005,-3930820.13658 18056.6570164,-3930845.57834 18060.4316236,-3930866.85918 18076.2063272,-3930873.08428 18084.4071052,-3930867.197 18092.4955855,-3930853.82792 18109.4673819,-3930843.52322 18126.5996432,-3930841.69629 18141.9404739,-3930854.43132 18153.3374771,-3930873.34686 18168.6298302,-3930900.55952 18199.7694316,-3930920.01759 18202.6603891,-3930948.82835 18214.5214823,-3931065.05528 18244.5281966,-3931107.52888 18256.6405408,-3931099.95494 18271.0016561,-3931102.75433 18281.9651233,-3931112.70612 18286.1655067,-3931132.46885 18293.1207703,-3931157.58895 18302.7426804,-3931181.08261 18312.5735234,-3931198.5764 18329.6091342,-3931210.23105 18340.2511067,-3931234.1745 18378.4104034,-3931269.76471 18392.4903158,-3931277.06999 18426.2405005,-3931283.42378 18464.8097413,-3931296.53251 18498.0535823,-3931323.37578 18505.5151937,-3931328.00631 18541.6023812,-3931351.71713 18551.0316049,-3931371.22686 18575.2235289,-3931391.51989 18569.2704175,-3931500.62168 18635.4848746,-3931569.29555 18720.0532002,-3931558.21651 18728.2457753,-3931557.32104 18750.8074879,-3931554.23304 18767.818785,-3931580.86308 18791.0627415,-3931617.67364 18785.1099344,-3931726.77515 18850.1677405,-3931802.49265 18852.8021821,-3931805.36006 18903.3711098,-3931803.41278 18941.3057579,-3931808.56559 19022.4031186,-3931895.98549 19099.5648552,-3931984.5939 19228.9501357,-3932033.23986 19271.4547419,-3932045.15943 19321.8145435,-3932049.21183 19344.3518889,-3932061.09913 19367.5879176,-3932087.42772 19378.6154878,-3932119.33837 19396.3335879,-3932155.41758 19461.9697325,-3932196.66549 19479.663818,-3932216.77331 19485.0049067,-3932239.47537 19491.7916824,-3932276.58255 19516.9552613,-3932342.749 19532.2799313,-3932380.94048 19552.0301848,-3932407.43758 19564.3269074,-3932424.31251 19580.1737209,-3932432.03114 19612.4295602,-3932453.93 19648.1551348,-3932485.64376 19690.2338773,-3932530.02771 19708.9962255,-3932551.58113 19819.361534,-3932614.62292 19878.138389,-3932648.21595 19915.9120278,-3932675.83731 19981.2589109,-3932742.05544 20011.4585187,-3932757.56479 20052.7500478,-3932780.5236 20068.4763563,-3932801.22551 20087.5037081,-3932812.78321 20092.0497206,-3932819.05201 20100.2823688,-3932839.61739 20101.4149269,-3932863.02203 20098.7163201,-3932884.61551 20136.7874562,-3932990.58679 20148.2648808,-3932990.53051 20168.9466778,-3932979.54695 20191.5801668,-3932962.4793 20226.0846375,-3932948.33116 20278.363421,-3932935.31946 20316.2332256,-3932933.98603 20369.2268648,-3932940.90517 20415.9798374,-3932958.10901 20477.2542558,-3932986.58934 20591.3615443,-3933028.98436 20639.8171055,-3933040.1161 20675.6868693,-3933043.87074 20700.4165575,-3933039.18008 20725.4273255,-3933029.98361 20755.5141491,-3933022.53804 20782.47666,-3933022.73066 20799.2630273,-3933034.39666 20809.1019566,-3933046.89798 20815.0535448,-3933061.58396 20817.8406459,-3933077.92046 20813.7365129,-3933091.09653 20819.6238152,-3933099.29688 20975.4392294,-3933121.70441 21027.3401402,-3933126.67972 21063.3302324,-3933132.92414 21080.3976379,-3933140.08429 21089.1121285,-3933155.13563 21130.8049071,-3933191.55105 21203.4597596,-3933217.98281 21231.0405836,-3933220.64109 21262.5730173,-3933227.60031 21286.3308093,-3933238.92881 21319.6544152,-3933262.27262 21324.5778614,-3933266.02738 21353.8052474,-3933282.08246 21368.7924743,-3933297.82843 21472.6260127,-3933318.75807 21493.6769177,-3933310.25236 21513.3142183,-3933298.32117 21545.7700501,-3933288.26527 21567.2226325,-3933293.21661 21588.6913187,-3933303.65757 21601.9196629,-3933329.47118 21602.6748667,-3933355.3893 21616.8349791,-3933390.1421 21618.8991252,-3933391.53959 21672.0448521,-3933427.40036 21681.43382,-3933425.44858 21704.9905845,-3933422.31199 21737.9203386,-3933427.20695 21764.4570239,-3933444.39037 21801.7239595,-3933461.55358 21806.6714857,-3933465.80628 21808.7356283,-3933467.20376 21856.2431444,-3933510.32505 21884.0488092,-3933527.94613 21897.8472619,-3933539.75647 21980.4850214,-3933581.67654 21998.9336241,-3933581.28278 22031.5178884,-3933584.19787 22059.3876563,-3933592.83152 22071.9330354,-3933594.22084 22176.3525364,-3933653.05503 22201.9330557,-3933645.32832 22232.0674931,-3933638.87859 22256.3309893,-3933645.19111 22292.8908468,-3933652.905 22324.1982297,-3933675.84681 22376.5327598,-3933736.20341 22413.2694568,-3933757.88413 22443.0427111,-3933774.91064 22522.8528355,-3933809.97933 22552.6742646,-3933828.00172 22573.9740471,-3933834.95673 22584.961364,-3933845.40562 22590.2383336,-3933861.62125 22581.9904717,-3933897.45815 22607.3392324,-3933972.59693 22661.3189528,-3933953.5131 22697.645339,-3933935.7829 22726.799571,-3933919.3981 22757.367399,-3933906.43874 22784.4897847,-3933899.63561 22803.7976955,-3933906.687 22846.2284232,-3933917.11127 22886.4826913,-3933934.12944 22926.5920839,-3933932.68715 22962.6937263,-3933930.93973 23005.148235,-3933926.38921 23080.7086417,-3933925.22748 23134.8088182,-3933924.10624 23189.5756274,-3933926.44657 23249.6759938,-3933971.95204 23268.943799,-3933988.48856 23356.2065881,-3934033.17829 23363.7240613,-3934033.81265 23389.2480274,-3934030.0816 23393.1593269,-3934028.39493 23437.7818234,-3934006.76945 23547.2822007,-3933969.52576 23619.7411293,-3933914.60955 23640.3575973,-3933897.14083 23657.0709631,-3933891.83982 23687.3897138,-3933894.36525 23708.9863887,-3933902.304 23717.3633072,-3933910.38351 23856.348105,-3933961.55363 23890.7867842,-3933956.39289 23912.9775228,-3933950.82676 23988.930448,-3933937.16814 24100.2775465,-3933912.31322 24163.3721532,-3933906.26461 24261.5475666,-3933882.54643 24330.9548204,-3933883.17987 24433.3543904,-3933848.77596 24495.4446792,-3933832.29469 24561.4466146,-3933845.07165 24679.1225271,-3933878.80564 24762.2146749,-3933868.2954 24853.0491744,-3933873.38191 24925.1384533,-3933877.8784 25015.7804265,-3933909.92603 25083.6773157,-3933920.61468 25178.9040127,-3933887.55639 25224.2324854,-3933875.38027 25281.9534948,-3933882.06949 25335.0404454,-3933890.97942 25386.4086774,-3933900.47163 25432.1951906,-3933913.22863 25469.2516097,-3933920.91801 25474.5763701,-3933922.6567 25502.733994,-3933921.79291 25586.2116492,-3933965.66643 25626.0710135,-3933979.70846 25665.4244724,-3933998.766 25688.6190608,-3934019.10477 25729.9080941,-3934042.06142 25760.0173785,-3934050.58608 25766.9884931,-3934050.24865 25833.8799403,-3934004.088 25835.7993805,-3934002.49778 25855.0337867,-3933977.11073 25869.7788174,-3933956.93203 25885.045888,-3933937.22716 25907.1476463,-3933924.67802 25911.5567659,-3933922.9673 25920.832694,-3933913.53448 25931.2090867,-3933916.52596 25953.6643968,-3933916.43728 25975.6379106,-3933921.86204 26045.5177986,-3933937.44556 26083.5136575,-3933949.08221 26123.8545654,-3933957.61073 26171.3511518,-3933959.30457 26319.3257301,-3933943.65751 26413.3389318,-3933952.58273 26478.6968131,-3933962.39582 26520.0977447,-3933977.36126 26550.6003085,-3933988.86141 26582.7012637,-3934012.76165 26593.1178295,-3934021.74032 26718.9662668,-3934033.61635 26731.4622434,-3934003.06565 26733.3488788,-3933959.55285 26768.5809919,-3933924.40801 26824.7584716,-3933899.22953 26914.8999724,-3933900.35658 27038.6672901,-3933874.40219 27101.8799463,-3933855.37155 27195.6505985,-3933812.90174 27274.9814679,-3933786.60283 27384.3002338,-3933750.86705 27550.3420507,-3933690.92502 27666.077539,-3933674.3435 27680.9430035,-3933672.12675 27841.4277445,-3933693.30672 27976.0518513,-3933680.30286 28114.6589428,-3933651.63449 28195.2582424,-3933656.71719 28241.2437412,-3933652.99429 28246.1747633,-3933651.75746 28347.5337142,-3933626.88832 28399.269149,-3933607.91453 28481.3617603,-3933597.45328 28571.1883405,-3933607.57936 28633.4525848,-3933620.53664 28676.3943255,-3933636.42542 28723.3273732,-3933647.13016 28761.4020484,-3933639.79746 28807.7807823,-3933639.05006 28837.6640397,-3933648.08454 28850.3850557,-3933647.96794 28864.2626219,-3933656.27981 28867.6195829,-3933658.61276 28935.256521,-3933689.77603 29171.4225141,-3933738.23577 29242.4811226,-3933824.63138 29310.1741881,-3933867.27053 29407.7903138,-3933909.45944 29565.5893701,-3933926.77574 29663.1729313,-3933957.98626 29743.971957,-3933993.0036 29821.4862868,-3934027.18169 29872.948385,-3934054.13641 29930.0561925,-3934084.31136 30001.9484944,-3934100.29554 30063.3199953,-3934094.82953 30086.3364446,-3934101.20161 30134.0074012,-3934101.38954 30241.7506532,-3934208.46651 30345.3968872,-3934246.37001 30419.8674521,-3934300.15887 30510.4077217,-3934361.15494 30601.4934167,-3934392.18002 30698.0474362,-3934396.9885 30710.8325394,-3934403.35664 30718.3493451,-3934403.99091 30812.6632865,-3934439.85032 30919.7701355,-3934477.08664 30935.3016142,-3934478.33108 31026.3076637,-3934559.26687 31142.1056558,-3934688.41031 31192.956993,-3934723.37885 31271.2257718,-3934783.47073 31361.3489647,-3934887.40579 31393.2417347,-3934994.6589 31410.7660282,-3935042.22019 31422.3391841,-3935075.09752 31452.4570693,-3935171.45689 31474.0847362,-3935205.84365 31479.8194212,-3935231.51758 31480.7915885,-3935246.44258 31505.1104863,-3935310.64313 31615.4059404,-3935377.66769 31637.4902039,-3935375.10118 31657.9926948,-3935381.09541 31673.2436173,-3935402.31596 31678.3111866,-3935409.05754 31687.2655271,-3935413.61465 31720.4460842,-3935588.67798 31729.8186847,-3935612.17939 31741.7615208,-3935647.53395 31741.5534866,-3935669.00392 31741.0477341,-3935674.01909 31740.6944927,-3935677.0306 31753.0012747,-3935781.7379 31755.0893161,-3935783.63306 31824.1230729,-3935843.67166 31899.8706133,-3935908.37571 31954.9306237,-3935958.11135 32005.3727042,-3936000.08549 32060.0873017,-3936047.84147 32072.3991573,-3936070.20225 32075.5403049,-3936098.99594 32081.644737,-3936127.14705 32097.7547164,-3936140.3407 32113.6717942,-3936149.55116 32158.563371,-3936159.35468 32204.626685,-3936152.13325 32216.584037,-3936146.56352 32258.2301226,-3936130.57285 32280.9561212,-3936115.49846 32297.9080823,-3936099.70558 32323.6859629,-3936090.97125 32352.9738524,-3936098.03698 32375.3556984,-3936111.92499 32441.2558333,-3936138.1783 32507.7111596,-3936191.35408 32588.791162,-3936268.27556 32674.8918778,-3936381.88432 32716.4538792,-3936467.20721 32784.4028731,-3936520.3102 32858.7925404,-3936577.5927 32916.4304348,-3936634.18928 32923.7073715,-3936660.7861 32933.34541,-3936689.76385 32931.9574775,-3936717.77846 32930.0382549,-3936719.3686 32941.7744091,-3936791.66298 33013.497293,-3936835.10061 33037.2039414,-3936845.43071 33056.6543888,-3936855.4679 33084.633558,-3936871.57975 33101.7478004,-3936895.2047 33161.3159194,-3937007.10296 33170.7042992,-3937020.62185 33175.9088432,-3937035.34151 33205.8174302,-3937091.28453 33291.1296445,-3937167.99946 33322.8576569,-3937158.47758 33339.9056727,-3937144.67625 33359.0176004,-3937132.27212 33385.1482156,-3937120.52612 33413.1980279,-3937107.18999 33436.719415,-3937108.54589 33454.6761316,-3937118.65532 33525.8310026,-3937207.03503 33630.9758451,-3937239.86993 33700.0090714,-3937299.90593 33734.6303397,-3937334.65986 33754.3546116,-3937360.65335 33792.4000054,-3937450.6365 33817.7844918,-3937454.39731 33844.9598136,-3937459.06948 33872.8819562,-3937463.70546 33900.9083128,-3937465.34206 33937.7682662,-3937469.04598 33970.1636076,-3937478.4558 33991.6054521,-3937488.39624 34011.7957354,-3937518.85853 34013.9975236,-3937543.70457 34022.507567,-3937642.105 34159.2578,-3937776.21289 34201.5586363,-3937851.01764 34288.2811643,-3937884.74397 34340.4683181,-3937973.04301 34424.0432918,-3938013.90838 34473.6097428,-3938058.41764 34506.0629039,-3938094.77312 34560.3263857,-3938128.07558 34600.5449593,-3938165.05283 34616.4299503,-3938178.75561 34676.9410335,-3938212.25431 34754.8856117,-3938239.91772 34809.8772992,-3938236.75409 34851.6674285,-3938239.22063 34889.4657645,-3938231.40055 34932.3876271,-3938226.32652 34978.36142,-3938227.59224 34999.9632281,-3938230.53793 35022.9303501,-3938235.9127 35040.606096,-3938250.52673 35057.5032033,-3938269.6699 35065.2542336,-3938295.74387 35069.4323636,-3938330.47477 35069.6187295,-3938354.91908 35185.6230583,-3938560.39497 35297.3275532,-3938486.6126 35300.6493387,-3938447.02697 35296.6882991,-3938416.77707 35291.466139,-3938381.09877 35279.2583299,-3938355.73989 35272.4142477,-3938322.6354 35270.2517669,-3938288.30597 35281.147046,-3938260.82953 35294.8289077,-3938234.21617 35312.1406624,-3938210.42121 35348.3794557,-3938180.71872 35376.4284177,-3938167.38255 35406.3734057,-3938167.42875 35446.8384631,-3938173.45281 35481.8751085,-3938180.73798 35510.6323401,-3938192.31977 35551.137897,-3938204.33038 35578.1042941,-3938215.00083 35717.9509203,-3938325.50002 35737.4557949,-3938316.07116 35764.5735327,-3938309.26769 35794.1005686,-3938305.84078 35820.9704,-3938314.51967 35857.9260187,-3938320.21462 35919.2784875,-3938340.19774 35973.0114388,-3938378.01651 35974.5291837,-3938378.44201 35995.5000663,-3938435.31474 36006.4795525,-3938466.22236 36118.7004471,-3938557.59852 36250.7078491,-3938650.51078 36291.0771312,-3938670.01325 36335.9513637,-3938689.79644 36361.8099797,-3938708.50493 36390.5911012,-3938720.58428 36451.5648996,-3938727.61027 36464.4853986,-3938726.4851 36476.9880724,-3938721.8869 36481.8373461,-3938708.67688 36491.9054671,-3938684.73414 36514.5420928,-3938678.14775 36534.2309601,-3938662.22246 36556.208492,-3938647.18436 36591.3718902,-3938636.49767 36616.5778894,-3938626.29352 36690.7789982,-3938545.84597 36700.7341927,-3938514.42321 36710.8429143,-3938496.46705 36723.6570294,-3938467.40096 36747.3683277,-3938441.79914 36770.0279554,-3938420.24059 36807.1586388,-3938408.95967 36852.1838862,-3938411.26924 36886.4742151,-3938434.06046 36914.2999414,-3938452.17455 36940.0859424,-3938469.38938 36959.7056137,-3938498.38085 36971.2936311,-3938505.8039 37021.4071072,-3938582.2232 37099.1258586,-3938625.86544 37234.4456658,-3938684.18249 37297.2589829,-3938708.58546 37339.9569898,-3938734.96125 37507.213283,-3938808.69737 37537.0039175,-3938795.2769 37553.5934998,-3938787.48649 37578.6708833,-3938779.78379 37608.5668041,-3938778.83404 37631.3248833,-3938790.20697 37658.7084852,-3938804.34993 37669.638484,-3938818.79121 37697.8577213,-3938839.8801 37735.8082451,-3938845.52643 37767.3512676,-3938857.97068 37796.7021558,-3938871.51922 37936.3581241,-3938942.10092 37945.0059621,-3938935.19443 37971.2225322,-3938914.96076 37997.3108059,-3938897.22846 38038.101274,-3938868.80309 38063.9241375,-3938845.59436 38090.0924374,-3938824.36503 38126.4427371,-3938802.14324 38153.4313385,-3938797.84117 38178.2366202,-3938805.12257 38214.5102753,-3938832.8074 38235.8240202,-3938860.71815 38223.0379048,-3938936.69111 38149.7654874,-3939062.00519 38178.4402413,-3939159.42321 38193.3366182,-3939168.1828 38216.6801108,-3939171.04367 38247.3708378,-3939171.05331 38266.3453778,-3939166.14147 38286.9176456,-3939158.15802 38305.9327956,-3939159.23256 38325.9118902,-3939164.75162 38346.2046584,-3939176.74285 38361.5188395,-3939188.97536 38366.8999827,-3939202.1883 38366.8770741,-3939217.16025 38371.882237,-3939248.35642 38382.2978639,-3939257.33313 38396.7522478,-3939262.12188 38414.8275494,-3939259.24972 38441.8642892,-3939255.94322 38463.3763262,-3939251.90644 38471.2125406,-3939238.55194 38468.3765811,-3939221.22344 38476.0274028,-3939198.89544 38490.6329607,-3939186.21091 38515.7417827,-3939174.0154 38544.7699212,-3939170.61242 38575.3563691,-3939173.62127 38595.6490758,-3939185.61245 38682.9719131,-3939247.25169 38697.9888539,-3939258.50048 38701.2185192,-3939278.80401 38698.5691966,-3939285.91877 38725.892736,-3939355.45612 38734.0197168,-3939363.54565 38748.3533932,-3939365.84508 38805.5738,-3939352.09316 38811.6280845,-3939348.30655 38828.0331861,-3939347.0124 38850.1636208,-3939345.44076 38898.8429014,-3939366.53553 38974.1852882,-3939433.24623 39076.3089101,-3939517.12258 39111.1129761,-3939545.37703 39176.8728552,-3939579.11732 39304.1605904,-3939548.99452 39387.8175633,-3939565.89854 39454.7633236,-3939474.82592 39495.4741075,-3939465.36738 39531.2635118,-3939467.62485 39556.3414864,-3939475.39171 39584.7037451,-3939483.99741 39631.1651463,-3939490.22879 39659.1019221,-3939500.35216 39683.755682,-3939525.10622 39694.6296582,-3939543.5419 39708.8450898,-3939574.29111 39699.5015733,-3939613.16851 39734.9979076,-3939758.65871 39825.4442431,-3939828.1293 39883.6063219,-3939849.26286 39908.4125131,-3939872.01328 40080.989821,-3939962.95217 40127.0854944,-3940013.11445 40160.2688687,-3940059.41147 40195.93871,-3940074.64888 40226.2618694,-3940103.1199 40282.2103569,-3940155.79847 40353.5527782,-3940217.21199 40421.3440066,-3940256.84088 40468.421659,-3940332.40495 40611.648175,-3940409.79472 40703.5183911,-3940426.29932 40787.5181056,-3940429.7121 40798.0210807,-3940430.20092 40922.5478072,-3940528.45728 41130.6138717,-3940522.8608 41261.6997631,-3940529.9787 41296.7552887,-3940506.82168 41341.9531319,-3940492.15514 41401.6214498,-3940487.76526 41457.8304556,-3940499.51139 41497.8596709,-3940512.04194 41528.6713043,-3940530.00945 41604.4497604,-3940554.27996 41772.3733397,-3940544.1425 41788.4082177,-3940540.37105 41819.1051374,-3940535.38972 41843.5639834,-3940540.69098 41917.2467037,-3940568.05702 42015.4878081,-3940551.31785 42100.8107048,-3940551.17318 42168.9189845,-3940561.34422 42192.3896086,-3940561.7033 42287.0851301,-3940585.05639 42335.4337826,-3940609.65848 42349.3172938,-3940612.97738 42384.1987938,-3940622.26427 42420.202684,-3940613.53262 42440.3317357,-3940601.57862 42466.4589119,-3940589.83282 42522.5691526,-3940584.11839 42582.0932542,-3940592.2105 42624.4662613,-3940601.63315 42690.9041038,-3940613.38205 42735.0360533,-3940628.20841 42738.569143,-3940629.03511 42806.0266928,-3940641.23352 42829.4262188,-3940655.56803 42910.6841408,-3940725.97931 42973.401613,-3940712.45945 42980.8207788,-3940711.10173 43003.3830038,-3940703.02181 43037.8855769,-3940699.35296 43065.0172519,-3940698.03748 43083.7914311,-3940709.6022 43101.7630489,-3940725.19781 43134.4372013,-3940745.56953 43374.4715855,-3940745.90731 43406.9902301,-3940737.34467 43445.6200627,-3940736.46968 43489.116509,-3940743.34268 43522.3682852,-3940760.19332 43634.8180969,-3940810.12963 43722.097364,-3940798.91185 43782.5543342,-3940749.07503 43812.7194579,-3940733.14162 43828.7448632,-3940718.89178 43859.7939911,-3940710.89943 43892.9716821,-3940710.78779 43913.6962306,-3940716.26988 43930.6071462,-3940725.42983 43954.4166914,-3940748.22711 44018.0701995,-3940790.05022 44090.2544809,-3940786.55029 44114.2826595,-3940664.62906 44115.7082644,-3940627.1355 44115.7399479,-3940622.64303 44114.0579579,-3940582.80518 44118.6848034,-3940518.70982 44136.3952661,-3940492.90155 44161.3000179,-3940466.24551 44185.9483013,-3940444.59184 44232.2201318,-3940426.38077 44265.3072336,-3940403.81901 44294.7481984,-3940372.95119 44318.2725862,-3940353.84703 44347.8597962,-3940341.43482 44381.5351052,-3940341.2992 44414.8815214,-3940344.67246 44430.9475784,-3940336.40871 44440.0275796,-3940322.99476 44458.2689884,-3940308.13869 44486.9887522,-3940293.27362 44538.7785893,-3940296.25175 44572.8641001,-3940304.57908 44602.7588352,-3940319.09744 44626.9452109,-3940339.38142 44659.9867815,-3940346.76135 44676.3107037,-3940348.96389 44730.5081037,-3940339.84952 44756.5063313,-3940330.6053 44803.5018855,-3940327.32897 44853.0272042,-3940329.91785 44892.6595418,-3940324.00456 44938.6759501,-3940326.26456 44965.5987798,-3940330.94718 44998.0382904,-3940341.35019 45028.3658504,-3940349.36064 45056.3793801,-3940340.51773 45083.5345092,-3940339.70023 45111.4212246,-3940348.82698 45146.029892,-3940373.0964 45179.9552202,-3940388.41719 45387.0881903,-3940482.16396 45403.3380952,-3940467.40456 45435.880077,-3940459.34007 45467.2755154,-3940468.7956 45503.2946099,-3940465.55237 45545.5695131,-3940472.98349 45612.0124633,-3940479.74185 45653.692957,-3940485.20584 45708.6047044,-3940480.54766 45764.7443654,-3940470.34115 45826.7536317,-3940462.84398 45872.7453698,-3940464.60606 45898.3268246,-3940467.35767 45916.617606,-3940468.9658 45930.7976646,-3940473.26813 45970.0688979,-3940475.35603 46041.4535126,-3940439.9604 46066.2521328,-3940400.83562 46165.4794503,-3940337.64435 46247.1036089,-3940328.19841 46261.4918025,-3940326.5029 46441.2413407,-3940323.77633 46590.3047956,-3940254.17759 46685.6276857,-3940172.21507 46722.7928181,-3940151.45228 46760.7860239,-3940142.62478 46816.9174074,-3940137.40876 46869.9985014,-3940141.32218 46902.4689201,-3940147.2327 46914.8340703,-3940150.12609 46939.3471712,-3940151.43261 46961.2112942,-3940159.8532 46983.1553852,-3940164.77708 47067.8497491,-3940198.09428 47101.8135025,-3940203.93237 47130.758513,-3940204.02607 47160.2254492,-3940204.59344 47164.408512,-3940203.39271 47250.8730236,-3940103.39825 47269.0097193,-3940091.54163 47294.919589,-3940090.78456 47330.9378702,-3940087.54158 47362.8213455,-3940086.49492 47411.337712,-3940047.71805 47439.0594734,-3940017.43384 47466.8067426,-3940003.1155 47498.7535984,-3939993.08432 47533.8968462,-3939992.37866 47579.7669278,-3939991.65196 47640.739917,-3939993.68593 47717.5280163,-3939972.00063 47773.8007882,-3939938.83563 47822.8464967,-3939895.54266 47840.066128,-3939864.7698 47873.2573483,-3939854.6784 47963.7954949,-3939792.40932 48032.0202718,-3939722.73952 48078.6837031,-3939707.50447 48117.7112417,-3939689.14679 48165.1682727,-3939659.40326 48234.8255048,-3939629.58162 48287.4700019,-3939609.06709 48372.8953288,-3939569.99883 48398.6029112,-3939554.78173 48434.6130991,-3939556.52905 48472.6385804,-3939558.67765 48504.8441773,-3939574.58039 48642.4565571,-3939618.80451 48685.4674893,-3939615.72178 48731.4892891,-3939612.99208 48757.0532732,-3939610.25607 48777.8627857,-3939591.7837 48820.1078552,-3939552.31384 48859.3268054,-3939522.47098 48896.5723673,-3939513.68021 48926.5605621,-3939514.72149 48957.9138665,-3939518.1914 48979.456085,-3939525.13064 49003.5926709,-3939544.41815 49035.131359,-3939556.86037 49061.8610192,-3939573.02841 49083.8857834,-3939589.92344 49104.80954,-3939594.39782 49166.7756306,-3939580.91608 49215.6339772,-3939513.18409 49215.6885702,-3939493.722 49207.9626475,-3939468.15054 49200.3091148,-3939444.07246 49200.4754775,-3939416.62158 49203.2831903,-3939387.04684 49208.0503246,-3939361.86778 49231.3004756,-3939342.27937 49303.2553133,-3939339.29083 49389.2282034,-3939332.13015 49492.3976063,-3939309.16726 49548.7582673,-3939282.98457 49603.0083443,-3939269.87711 49661.5454681,-3939252.57023 49689.9486816,-3939215.76767 49711.7447615,-3939186.76971 49726.0816713,-3939153.14371 49733.2501305,-3939136.33071 49765.2167032,-3939080.39518 49790.5367372,-3939041.74632 49819.430142,-3939009.9097 49840.0706433,-3938987.95323 49864.2845,-3938972.80898 49894.4158919,-3938961.3696 49999.6206414,-3938892.90377 50018.9113584,-3938858.53892 50041.7819339,-3938810.52883 50081.0136161,-3938739.7719 50112.4189631,-3938692.84516 50116.3419828,-3938650.24394 50133.7381246,-3938617.96683 50150.9972192,-3938577.71312 50160.9035799,-3938560.76759 50181.8467566,-3938503.86991 50192.5787727,-3938467.92416 50198.6136531,-3938427.71544 50198.8198597,-3938390.78288 50197.8802178,-3938386.83678 50168.0417649,-3938337.38935 50134.532531,-3938263.67099 50125.0561209,-3938227.70652 50121.3283772,-3938191.96246 50123.8229666,-3938155.9169 50134.8774085,-3938136.91998 50158.7121356,-3938093.35406 50181.5841312,-3938060.81179 50076.4981964,-3937858.83738 50108.5768065,-3937650.71626 50133.8920337,-3937519.26289 50156.6651767,-3937438.32708 50148.1735177,-3937345.43412 50122.3007813,-3937274.83813 50114.5886905,-3937192.88434 50113.4966668,-3937190.94142 50109.6823471,-3937179.1513 50120.1015112,-3937136.73448 50135.7887123,-3937115.5175 50093.9838641,-3936983.82288 50093.1718429,-3936961.90824 50079.1840564,-3936930.65273 50052.9281851,-3936898.49457 50051.5942899,-3936876.10624 50058.8588888,-3936845.81713 50062.8155567,-3936814.19138 50062.9742977,-3936776.26319 50043.7598231,-3936745.26079 50027.8128705,-3936709.60953 49993.2386338,-3936665.38031 49967.62457,-3936620.71708 49939.0720195,-3936577.19406 49925.3970758,-3936536.94208 49921.0269593,-3936482.76767 49916.3519592,-3936432.59965 49912.8895374,-3936386.86349 49929.1151703,-3936371.60799 49931.0978399,-3936361.03392 49951.4178334,-3936337.59687 49981.3567149,-3936322.17621 49989.5219821,-3936320.78286 50020.1195738,-3936313.81254 50051.6404045,-3936305.30065 50061.154379,-3936300.84826 50104.8267219,-3936192.95509 50083.8624071,-3936167.02685 50071.1845115,-3936157.66173 50058.3776335,-3936135.33006 50059.0025497,-3936101.86989 50067.4239277,-3936080.00706 50081.1763248,-3936054.89235 50094.1663774,-3936039.79364 50182.0226375,-3935958.2014 50189.4731579,-3935952.35213 50229.895174,-3935870.06331 50245.0765004,-3935838.39312 50259.1013865,-3935798.29674 50261.1003781,-3935793.21042 50265.98857,-3935755.05334 50278.7370727,-3935719.50936 50279.2495044,-3935678.57046 50285.9523084,-3935641.82239 50299.8248068,-3935603.72925 50302.5940783,-3935583.63708 50293.4878123,-3935534.68174 50290.5330712,-3935530.33424 50281.7972291,-3935514.79075 50274.0244945,-3935488.22368 50283.6890336,-3935419.89823 50273.1455916,-3935367.02083 50261.1732499,-3935320.69899 50250.0199146,-3935275.83433 50228.4214339,-3935241.95337 50201.7890149,-3935212.30774 50175.1241766,-3935171.68669 50163.9634446,-3935147.27939 50153.3482853,-3935108.37604 50154.5516181,-3935071.39527 50175.0157297,-3935020.01029 50192.3090484,-3934990.73277 50215.3024253,-3934945.21282 50227.1920371,-3934902.22626 50224.0106893,-3934821.05103 50229.0583849,-3934714.03086 50232.0589631,-3934611.10143 50245.0974622,-3934596.99855 50281.6194115,-3934542.3417 50291.8798333,-3934522.3859 52887.7111784,-3936878.43905 53221.5849709,-3936529.97741 53606.1018082,-3936882.06059 56296.9237072,-3939340.59716 56298.7381918,-3939342.00596 56527.8208652,-3939122.35691 57012.9658671,-3939574.30602 57027.3775309,-3939588.57478 57268.7861838,-3939818.84428 57274.5508484,-3939824.55175 57654.662906,-3940173.32138 60337.5583898,-3942633.49585 61030.3985263,-3943309.80043 61090.436952,-3943364.75813 61109.7458917,-3943382.28002 61257.4331617,-3943516.29851 61833.2681077,-3944007.19402 62347.9160942,-3944445.17753 62348.6120672,-3944428.68078 62349.3540876,-3944397.71433 62349.3860589,-3944341.83844 62353.1098571,-3944279.79686 62320.2405706,-3944193.58954 62289.4924844,-3944120.25004 62288.6156325,-3944107.32176 62286.2727327,-3944059.04427 62277.4414544,-3943938.7443 62274.2240093,-3943893.00364 62269.4703482,-3943825.88576 62268.1995062,-3943691.74918 62265.1428251,-3943587.63195 62288.6662735,-3943548.0769 62309.9742073,-3943509.12826 62378.2157596,-3943383.59205 62580.7960897,-3943178.70217 62641.8196734,-3942852.96894 62846.6286948,-3942421.48426 63044.3120031,-3941997.33182 63396.5045535,-3941302.78384 63574.0199075,-3941038.75461 63681.8930703,-3940886.85659 63979.2344845,-3941026.08977 64322.532831,-3941099.73755 64666.3515431,-3941173.85823 65010.1446561,-3941247.48054 65353.4386162,-3941321.12632 65697.2287985,-3941394.7473 66041.017513,-3941468.3676 66384.0823748,-3941542.52112 66728.1169941,-3941616.12802 67069.7899162,-3941687.35448 67412.2078916,-3941758.54408 67753.8778958,-3941829.76924 68095.7952761,-3941900.98169 68437.7111948,-3941972.19348 68779.8744834,-3942043.39256 69076.1902104,-3942074.41392 69121.7874755,-3942114.60305 70235.7363352,-3942234.16268 70285.0932755,-3942238.7521 70322.4582032,-3942242.92555 70279.5008435,-3941984.6224 70191.921407,-3941634.20508 70240.8384084,-3941285.14898 70155.1993116,-3940722.63582 75167.9061057,-3941862.74587 75563.0780745,-3941952.81429 76613.6123039,-3942191.15446 76629.729013,-3942194.36296 76601.6399458,-3942345.3606 76597.9264494,-3942366.48965 76391.0789695,-3943546.67424 77906.6431393,-3945453.27274 78557.4754068,-3945580.28403 79451.1059706,-3945659.09396 79723.2490644,-3947236.93972 79793.3265896,-3947642.52271 79732.4228828,-3947785.13569 79022.7642577,-3949444.60635 78800.803711,-3949962.64604 78364.9801109,-3950959.93579 78258.8152338,-3951202.51565 77981.0493735,-3951839.49608 77707.9074686,-3952463.78709 77683.4749167,-3952520.3403 77413.0284658,-3953123.0578 77000.4016516,-3954007.03107 76811.605575,-3954411.75749 76350.8649693,-3955511.07206 76057.2554031,-3956185.76911 74824.1745282,-3959021.15095 74818.985362,-3959032.3775 74585.7823031,-3959569.48247 74546.5330668,-3959659.68402 74281.1632864,-3960396.38794 71335.22054,-3964815.95879 71042.3736845,-3965254.75743 71036.1537192,-3965275.51316 71012.129367,-3965350.51304 70759.9249335,-3972098.61426 70705.7961404,-3973551.88766 70703.6977404,-3973605.86509 70703.7661522,-3973704.13333 70702.4898407,-3973734.12621 70697.2332747,-3973856.1005 70692.1473369,-3973981.55837 70675.7927323,-3974360.97895 70659.6888298,-3974740.38764 70643.6355146,-3975120.79193 70627.2865455,-3975500.21338 70611.1639179,-3975879.12531 70595.5651749,-3976258.51081 70579.2218321,-3976637.93316 70563.1048228,-3977016.84598 70546.7652287,-3977396.26892 70530.6763354,-3977775.67999 70524.8838058,-3977917.13682 70515.7511719,-3978138.07371 70515.0869688,-3978155.06698 70507.7717964,-3978326.52928 70502.7520352,-3978443.00619 70498.7773776,-3978534.98849 70482.6941118,-3978914.40047 70466.3638945,-3979293.82495 70450.2843773,-3979673.23754 70452.9174697,-3980052.73121 70455.4800437,-3980354.40833 70456.254842,-3980451.64564 70448.9678633,-3980878.01886 70447.0016465,-3980878.61409 70271.637229,-3980979.99571 70267.5047476,-3980982.19367 69827.4771285,-3980625.13384 69346.1979656,-3980642.73601 69298.2275006,-3980641.09628 69240.6745866,-3980642.42048 67690.8436441,-3980568.71999 67554.7247325,-3980682.14851 67547.9086054,-3980680.48711 66211.9421002,-3980349.85592 66109.673504,-3980074.99829 65994.2264375,-3980065.68901 65935.160091,-3979985.2709 65756.0537572,-3979735.62839 65750.9743945,-3979738.87052 65532.9329078,-3979855.31607 64561.3863176,-3979591.11587 64429.1381536,-3979559.67977 64397.1833498,-3979564.23863 64183.809619,-3979587.66341 63637.3350508,-3979644.8689 63406.3145316,-3979893.66018 61034.0071662,-3982448.06139 59608.9980724,-3983982.25426 58873.3863602,-3984776.69901 57356.7044882,-3986410.27423 56115.5521869,-3987726.02953 55250.0447382,-3988644.17692 54640.1658979,-3989291.33091 54551.7784688,-3989391.4712 54321.8546885,-3989637.27312 54318.9703428,-3989634.42102 54149.997353,-3989820.84832 54131.7381058,-3989840.20663 54029.237836,-3989942.53822 54488.3842314,-3990442.39753 53907.3465759,-3991072.18922 51792.440786,-3993366.60262 51415.5000574,-3993768.34882 51400.8561541,-3993780.04631 51380.1368356,-3993795.03635 51068.9654483,-3994118.70556 50698.1856048,-3994503.68954 46452.9641802,-3999043.86783 46448.3924873,-3999001.67631 46239.2046565,-3997945.06989 45848.9727302,-3996839.47967 45710.2767759,-3996698.0931 45542.7040644,-3996654.43749 45516.1107861,-3996514.5225 45307.1533393,-3996400.54358 45094.5026037,-3996175.96242 44835.8567858,-3995919.20929 44768.783083,-3995610.61706 44559.3605403,-3995456.73542 43943.9054064,-3995240.47711 43616.91034,-3994984.08334 43137.2238219,-3994951.2756 42550.6492897,-3994804.95077 42182.160259,-3994663.8719 42062.4233673,-3994618.85575 42015.5133533,-3994578.24419 41729.3482285,-3994335.30411 41451.8302941,-3994080.45925 41395.0947582,-3994149.62068 41312.6619128,-3993995.47508 41103.6368324,-3993895.45916 40823.8493732,-3993878.7679 40768.9725487,-3993752.21148 40657.2977067,-3993708.79294 40310.3557974,-3993396.96874 40213.8112935,-3993270.46253 40074.2075528,-3993227.4172 39310.2411843,-3992589.23435 39122.6140386,-3992467.69927 38850.9903675,-3992302.3803 38467.1305123,-3992305.76615 38083.9047091,-3992322.09623 38078.452689,-3992322.86311 38075.5720756,-3992315.01961 38070.3646208,-3992320.76511 38066.3773634,-3992325.95161 37984.956856,-3992324.46156 37982.9409509,-3992324.06152 37681.7250667,-3992348.83949 37423.5655935,-3992295.14517 37235.3688022,-3992223.0417 37206.0278706,-3992215.00066 37130.6473489,-3992194.24905 37011.7635494,-3992192.10357 37007.7316939,-3992191.30348 36995.7094926,-3992190.39681 36809.0186365,-3992103.24649 36572.0068351,-3992002.59708 36163.8207977,-3992029.13403 35647.4669243,-3992063.47919 35299.1933894,-3991892.4323 34878.8806481,-3991916.07014 34515.2463089,-3991884.52034 34208.9510065,-3991699.42999 33902.6173501,-3991528.81358 33855.5072638,-3991235.16803 33699.3192633,-3990854.5468 33466.8494642,-3990292.5073 33256.5362459,-3990115.67322 32841.5148621,-3990003.28793 32495.7974059,-3989970.84814 31788.4789086,-3989902.75396 31490.5469982,-3989496.63638 30923.5526769,-3988723.40358 30657.497249,-3988361.63149 30643.325553,-3988342.36266 30593.5513031,-3988273.93198 30202.4194545,-3987656.76152 30249.1970495,-3987180.81527 30049.6619451,-3986821.76269 29762.295219,-3986442.55962 29628.4991208,-3986223.02488 29339.7652689,-3985688.66185 29076.7319335,-3985378.13459 28839.2698709,-3985319.40184 28647.3311602,-3984911.55297 28465.7669897,-3984868.04644 28250.0559859,-3984738.8683 27776.074836,-3985078.54335 27401.3680096,-3984709.59452 27226.3091556,-3984503.55314 26914.4144354,-3984183.92882 27767.584834,-3983337.03758 27590.6312564,-3983138.0753 27126.4778125,-3982578.34417 27118.7700136,-3982568.73937 25987.3480401,-3981205.1513 25792.1340517,-3981433.32945 25752.7748337,-3980971.06842 25728.4261155,-3980947.80354 25486.8280303,-3980718.05623 25298.032802,-3980537.13251 25293.5809142,-3980532.85833 25220.5835524,-3980464.05874 24955.1104202,-3980210.52098 24699.5613756,-3979965.97928 24689.5885925,-3979955.98573 24423.5932655,-3979701.97116 24157.6223714,-3979448.45291 24104.2241472,-3979397.65923 23892.10073,-3979193.91278 23723.7736239,-3979033.44325 23626.6035229,-3978939.86896 23360.6327974,-3978686.34585 23094.6621239,-3978432.82111 22828.9161098,-3978178.78462 22563.4434918,-3977925.23228 22297.4242456,-3977670.70679 22031.4537783,-3977417.17558 21761.6667917,-3977611.06644 21885.6241018,-3977242.12129 21612.7852452,-3976985.92859 21337.1589216,-3976728.87226 21217.8758318,-3976616.90737 21216.3332386,-3976615.98452 21062.2795495,-3976471.77769 20787.1755657,-3976215.19158 20511.7739029,-3975957.62002 20236.6942903,-3975701.52849 19961.8149654,-3975444.42717 19686.4133347,-3975186.85053 19411.3093931,-3974930.25598 19136.4300967,-3974673.14959 18860.8038489,-3974416.07803 18603.209715,-3974175.5941 18585.9489086,-3974159.46625 18365.4077589,-3974360.42913 18382.3577388,-3974365.09136 17970.8394826,-3974779.55155 15653.8521777,-3972638.52142 15633.337013,-3972484.27852 13038.2437545,-3970076.15985 12864.8864119,-3969914.89835 11571.590623,-3968716.06256 9063.0122269,-3966438.78072 8561.27321282,-3966975.4559 5037.58749121,-3963461.50355 6415.01214703,-3962130.81013 6437.20380763,-3962166.17232 6809.31481691,-3961796.08393 6843.08044398,-3961756.49742 7313.91604093,-3961214.86187 7316.73442158,-3961211.22999 8921.39775794,-3958990.9253 9112.57789911,-3959164.82574 11037.9864277,-3956944.47026 11478.2034344,-3956476.26243 12756.437361,-3955138.62614 11432.1287169,-3953851.7375 9075.53370706,-3951549.69211 12409.3546603,-3948204.3148 12643.065793,-3947969.82697 14222.8178479,-3946383.59138 14299.4902336,-3946307.48844 16935.1208597,-3943659.77366 17329.9583135,-3943263.75342 17335.4435365,-3943258.49574 16952.494682,-3942906.69881 16229.1929176,-3942221.99416 16218.6867997,-3942221.50541 16216.10023,-3942219.63421 14603.8823673,-3940744.40826 13567.8507658,-3939472.81817 13556.4753594,-3939454.40079 12565.0784196,-3937805.73055 12563.9057716,-3937807.28491 12560.9418179,-3937807.9277 12401.624842,-3937543.59151 11814.2968116,-3936574.17109 11597.8631997,-3936326.07476 10232.7764086,-3934778.78913 8226.74958242,-3933041.32519" style="stroke-linejoin:round;stroke:#000;stroke-width:1px;fill:none" /></g></g></svg>