<svg xmlns="http://www.w3.org/2000/svg" baseProfile="full" height="103154.148978" version="1.1" viewBox="-32425.678780,4272538.570545,83044.109332,103154.148978" width="83044.1093321"><defs><style type="text/css">polyline,line,rect,path,polygon,.polygon{fill:none;stroke:#000;stroke-width:1px;stroke-linejoin:round;}</style></defs><g fill_rule="evenodd" transform="scale(1,-1)"><g class="id" id="06672"><polygon class="_06672" id="None" points="14823.3015876,-4272605.89566 16301.3327969,-4274282.84832 16566.4039051,-4274575.35596 17062.3579685,-4275101.49702 16746.3831638,-4275390.21484 16178.164265,-4275907.68093 16437.5088713,-4276138.25581 17728.0601069,-4277322.96857 18632.1778781,-4278109.74418 18639.5513469,-4278111.7032 21624.708131,-4281163.24639 21617.2746095,-4281170.76746 19800.2469257,-4282985.25169 22576.2669536,-4285444.30084 24993.770539,-4287708.26497 25003.9164466,-4287717.50132 25021.3718248,-4287734.68407 25200.3137479,-4287901.70418 25418.6711773,-4288106.75048 31173.461218,-4293296.67738 31759.2919883,-4293857.89463 32160.216985,-4294242.08235 34670.0372568,-4296650.70067 35523.7871649,-4297364.8603 35840.3841399,-4297669.38395 36112.6688775,-4297930.26377 36113.5211814,-4297931.69748 36114.2171661,-4297948.10039 37819.8743976,-4296301.22179 39361.6845454,-4297701.12932 42078.0488181,-4300168.04025 44501.6549043,-4302445.19544 44642.9780158,-4302574.97843 46972.6024442,-4304711.73455 48483.3271279,-4306112.48425 50412.2329054,-4307918.81258 49504.3442661,-4308889.85788 41150.509753,-4318075.23057 40665.697585,-4318573.38082 39354.5266408,-4319923.77084 39347.0998888,-4319931.29467 35833.0199159,-4323660.89245 35825.6294625,-4323668.91314 32797.0287388,-4326879.16166 32478.1678587,-4327219.67746 32470.7410428,-4327227.20302 31236.1248562,-4328537.43902 31228.6980268,-4328544.9649 24858.865255,-4335229.57582 29616.0753304,-4340046.21782 29627.1186699,-4340057.3747 29346.8061806,-4340012.65072 29056.7939941,-4340161.63534 28748.3530337,-4340053.15012 28612.391058,-4339814.7908 28315.4354741,-4339777.77069 28039.4317431,-4339625.50509 27810.3845674,-4339871.24655 27542.0913045,-4339884.98213 27315.8632568,-4339951.9802 27148.8489672,-4340139.30459 27140.3651093,-4340149.40376 26965.4966443,-4340240.0571 26959.0189434,-4340243.52555 26876.3962189,-4340422.1546 26775.6022544,-4340638.52636 26771.7213663,-4340646.79113 26488.1854391,-4340626.24096 26302.1166904,-4340818.96013 26292.1082167,-4340828.67289 26208.6986356,-4340969.45971 26195.4219758,-4340992.37956 26189.6663268,-4341002.27842 25901.079834,-4340957.16425 25673.8690393,-4341014.26483 25464.756517,-4341015.67378 25232.7951926,-4341072.62522 25054.6847613,-4341037.84119 24834.5331089,-4341031.58296 24831.0242758,-4341031.34218 24694.0592229,-4341356.11277 24691.0244935,-4341362.3207 24555.3320886,-4341344.86648 24346.7979498,-4341523.78396 24342.7638301,-4341526.57425 24172.9944833,-4341839.29729 24168.6174926,-4341847.59895 24002.839125,-4341899.18884 23790.0440634,-4342057.47578 23669.7131243,-4342218.4407 23664.2710614,-4342225.82329 23638.3821606,-4342436.70091 23636.5366309,-4342452.29771 23706.1403868,-4342656.15308 23746.745643,-4342753.91327 23751.3051732,-4342765.04907 23573.9483531,-4342771.10982 23259.5828512,-4342826.64746 23037.1130464,-4342934.77838 22960.712078,-4342987.7785 22831.8816187,-4343084.03606 22472.5597233,-4343148.86673 22372.1710578,-4343170.71384 22234.8106455,-4343222.213 22232.4106038,-4343226.87832 22227.80736,-4343228.71315 22123.6273247,-4343385.50385 22103.6198676,-4343544.0842 21863.055925,-4343711.4062 21851.1283617,-4343718.76741 21541.4688988,-4343841.79552 21286.2065743,-4343863.56409 21136.2905359,-4343978.33466 20934.3560595,-4344013.13911 20779.9967783,-4344138.71158 20683.2325153,-4344199.69667 20621.2592634,-4344238.67061 20410.9927978,-4344306.01026 20401.5015414,-4344309.20231 20162.5460828,-4344518.80844 20070.4197978,-4344544.53911 19739.2218288,-4344625.76421 19379.4335217,-4344779.42131 19276.3926239,-4344822.91405 19269.5276821,-4344827.90812 19123.583521,-4344928.92471 19016.495082,-4345019.10255 18948.1813976,-4345076.99963 18795.5259744,-4345205.44548 18791.9661064,-4345214.68555 18674.8419538,-4345534.54632 18561.5362093,-4345882.55855 18552.1691991,-4345894.22117 18444.6531373,-4346032.81567 18428.92477,-4346052.92709 18324.5384458,-4346311.99946 18292.6122911,-4346545.78854 18197.0005226,-4346961.33684 18078.4467516,-4347190.52973 18075.4486956,-4347197.23473 17875.7726511,-4347313.68608 17707.0462375,-4347352.54145 17625.9297014,-4347422.8571 17587.7241637,-4347456.09602 17586.243393,-4347459.69661 17477.5088449,-4347673.20593 17474.0512084,-4347680.44366 17318.5955361,-4347726.80285 17205.5967794,-4347624.88534 17023.3163186,-4347706.63889 16974.5039287,-4347849.89724 17003.9074937,-4348039.27376 16996.0137474,-4348043.84529 16743.0786245,-4348199.13815 16738.7459269,-4348211.42848 16640.8048925,-4348449.58671 16631.845834,-4348453.23913 16435.5634834,-4348534.53009 16431.1501533,-4348542.33715 16275.1955691,-4348815.69477 16116.469152,-4348712.65419 15959.8886514,-4348699.74036 15667.6539262,-4349005.58099 15256.9017134,-4349314.16527 15253.4075734,-4349320.90722 15015.5918745,-4349745.95599 15013.3958128,-4349746.61653 14720.5437817,-4349884.90671 14714.4670626,-4349893.83423 14532.9502909,-4350131.67325 14455.6222733,-4350233.14288 14449.7936383,-4350242.05221 14193.8461673,-4350336.22479 13896.5445163,-4350258.35341 13617.3307899,-4349863.8859 13290.7689353,-4349988.19922 12760.2051156,-4350234.7871 12283.362365,-4350428.53531 11926.1726781,-4350441.87013 11673.1729318,-4350687.97751 11667.1613524,-4350694.40644 11579.4723168,-4351241.12041 11578.1012067,-4351246.20992 11363.4458367,-4351376.25793 11334.064813,-4351393.88652 11138.4481821,-4351430.24478 11106.4176314,-4351994.31597 11099.0715935,-4352006.33083 10996.6634449,-4352163.53214 11301.6175925,-4352771.61996 11278.0412265,-4353054.21326 11273.0795971,-4353054.57885 10967.4895088,-4353050.65625 10443.3461223,-4353320.25031 9819.1135434,-4353707.47368 9411.13711983,-4353810.37317 9404.27948141,-4353818.86048 9235.16305679,-4354055.81623 9171.27965327,-4354146.82945 9164.17393556,-4354155.33511 8842.80187862,-4354482.33667 8489.860982,-4354502.86115 8041.78413592,-4354589.76425 7867.12599035,-4354900.47151 8021.46977224,-4355214.36838 8014.64870485,-4355223.35222 7793.28616652,-4355539.9992 7734.74364659,-4355859.1131 7899.26818634,-4356003.1359 7942.10171183,-4356844.59478 7791.83994806,-4357154.50947 7786.36131382,-4357161.39904 7784.98250783,-4357162.99738 7457.62737748,-4357567.79212 7450.76994493,-4357576.28013 7435.2775208,-4358296.32869 7435.24901418,-4358299.32416 7204.4427344,-4358497.94629 6988.11673538,-4358520.88726 6786.22787142,-4358624.58291 6369.80594643,-4358532.06991 6102.71559431,-4358800.22522 6216.71539135,-4359422.43217 6210.31762271,-4359430.38774 5986.38367536,-4359718.81272 5735.66902436,-4360181.83868 5658.38181392,-4360632.0713 5747.94713931,-4360956.73928 5827.72084401,-4361172.36882 5758.80647736,-4361367.54015 5753.28317734,-4361370.44235 5555.73878058,-4361512.74359 5227.29072038,-4361270.56322 4744.54188377,-4361290.22459 4440.76550808,-4361409.43397 3984.45633579,-4361669.12326 3425.24303959,-4361589.15503 3422.18053364,-4361598.3618 3298.13822908,-4361928.82823 3294.20502414,-4361929.61746 2968.34601697,-4361993.08368 2912.9961006,-4362003.65502 2909.11601871,-4362011.92436 2906.63485992,-4362012.10748 2851.74429897,-4362126.92245 2817.62473822,-4362195.3003 2244.21266976,-4362112.38935 1811.51246824,-4362242.61743 1393.50888196,-4362457.08188 820.507949696,-4362508.35633 425.753271374,-4362632.29453 311.256601142,-4362294.47059 -120.520119223,-4362221.05787 -519.485293327,-4362396.19964 -522.482955729,-4362402.90738 -640.182933323,-4362809.2677 -644.217990401,-4362812.06035 -1015.81296745,-4363003.14924 -1022.67080781,-4363011.63891 -1052.65674428,-4363044.78822 -1371.55595149,-4363405.63085 -1378.45042307,-4363413.62434 -1480.93160947,-4363539.44547 -1958.94642738,-4364124.10424 -2184.20998995,-4365002.96871 -2227.1160477,-4365810.49179 -2298.15925265,-4366429.48542 -2313.87692282,-4366980.02579 -2320.77112605,-4366988.01982 -2729.52861621,-4367439.35995 -3073.19251708,-4367701.27018 -3073.18399528,-4367704.76248 -3082.98383112,-4368061.76534 -3089.35360474,-4368066.72689 -3261.56868481,-4368207.69224 -3259.93315862,-4368209.56736 -3141.04572841,-4368400.37932 -3118.52406461,-4368678.15029 -3125.88636732,-4368683.18526 -3341.04611663,-4368820.34019 -3342.83929817,-4368826.46062 -3421.94227957,-4369157.15153 -3327.6985546,-4369561.3579 -3448.86997253,-4369825.79945 -3437.71707314,-4370263.59282 -3406.07424646,-4370627.51737 -3412.90349439,-4370633.01219 -3692.68677618,-4370888.22508 -3692.25518233,-4370890.68817 -3642.32122412,-4371464.83829 -3648.22253923,-4371472.75963 -4002.79737918,-4371877.22067 -4008.69868917,-4371885.14209 -4287.71152691,-4372235.1173 -4294.53201448,-4372244.10477 -4852.77801347,-4372262.93052 -5508.21458918,-4372833.36899 -5514.26277548,-4372839.30546 -5530.77894936,-4373405.41445 -6078.46901,-4373523.27163 -6399.88412796,-4373806.03848 -7048.15726742,-4373832.53097 -7049.02213199,-4373841.07845 -7124.14642879,-4374350.15727 -7130.16679973,-4374353.09777 -7692.53883908,-4374657.19132 -7693.90879498,-4374662.28302 -7814.10529984,-4375111.82486 -7884.66341032,-4375405.98836 -7890.46349228,-4375411.90693 -8021.28253236,-4375545.84695 -8025.20749443,-4375550.12967 -8029.26042343,-4375545.93819 -9053.24294087,-4374494.35486 -9126.93970438,-4374418.9608 -9151.64331054,-4374395.33675 -9181.46590522,-4374366.60183 -17487.4594989,-4366391.40264 -18354.0615968,-4365618.39188 -18957.3628783,-4365078.97376 -18967.7754223,-4365069.76021 -19033.4524985,-4365025.19635 -19595.2124885,-4364551.57846 -19549.2190071,-4364505.26104 -19468.1760347,-4364463.84373 -19438.0929346,-4364377.77389 -19424.0411507,-4364290.89075 -19424.6690676,-4364235.03726 -19379.73783,-4364174.32452 -19369.9412138,-4364117.70184 -19346.1114096,-4364041.57679 -19280.6729026,-4363984.84119 -19199.145659,-4363953.371 -19123.5632922,-4363912.35748 -19102.8369733,-4363888.86758 -19068.2076422,-4363850.87605 -18998.6569765,-4363717.97396 -18897.5878247,-4363657.1126 -18899.7565537,-4363654.77712 -19285.5982595,-4363275.47938 -21793.8858653,-4360998.37911 -22255.0196803,-4360555.72281 -25741.4153807,-4357315.77908 -25792.0604031,-4357268.59809 -32130.5081671,-4351331.55938 -32122.1342372,-4351316.46707 -32087.8207031,-4351257.03603 -32036.5930834,-4351128.9716 -32022.7085883,-4351070.04546 -32018.1894951,-4351060.2286 -31963.962476,-4350891.51051 -32004.9920059,-4350812.16492 -31943.936698,-4350668.40282 -31942.6437106,-4350492.59768 -31916.7346108,-4350400.34083 -31858.0217847,-4350272.22617 -31769.3220913,-4350151.39021 -31725.1447639,-4350059.78667 -31724.0940779,-4350036.74739 -31719.4386935,-4349940.56358 -31714.517744,-4349936.20821 -31687.9996057,-4349930.26419 -31599.2311347,-4349908.75935 -31496.5833813,-4349875.75099 -31404.7118861,-4349862.50388 -31315.9507025,-4349854.47729 -31247.9994573,-4349801.05944 -31243.5385013,-4349797.23711 -31203.1042112,-4349797.2579 -31189.9340008,-4349752.36221 -31159.4320912,-4349651.28307 -31160.6393137,-4349550.04053 -31251.0234221,-4349461.3472 -31352.8045207,-4349383.97447 -31389.0227898,-4349179.98182 -31394.3021591,-4349148.92238 -31404.3352162,-4349083.76981 -31388.2297385,-4349017.69321 -31376.5192793,-4348969.90999 -31324.8273556,-4348909.203 -31228.1382257,-4348825.71929 -31157.5650558,-4348787.58404 -31146.6279621,-4348776.79634 -31087.9704334,-4348739.53747 -31052.5965963,-4348694.5068 -30993.8759779,-4348383.20102 -30953.6030885,-4348306.36292 -30956.9107615,-4348268.17038 -30942.7470015,-4348155.31574 -30928.5391507,-4348080.3945 -30925.0710963,-4348076.64533 -30883.9801227,-4348034.68893 -30809.1357789,-4348003.7281 -30749.6093908,-4347957.92042 -30623.3431479,-4347889.7347 -30496.1571549,-4347820.48325 -30376.9149855,-4347751.81612 -30330.1512496,-4347725.91542 -30321.8425569,-4347713.32465 -30288.257319,-4347660.93917 -30258.8262324,-4347555.44908 -30237.1854011,-4347472.99406 -30188.4647317,-4347399.03044 -30183.2298011,-4347392.15648 -30182.098121,-4347390.5758 -30066.5066285,-4347306.20506 -29962.867126,-4347222.21415 -29911.2770983,-4347146.54259 -29889.7972911,-4347139.97182 -29786.7998485,-4347003.11807 -29733.4721004,-4346927.31913 -29644.1417642,-4346767.51138 -29637.3151674,-4346758.5239 -29483.4133928,-4346540.06129 -29437.4308447,-4346496.74882 -29370.4358365,-4346443.90532 -29198.7889737,-4346419.30776 -29194.3280008,-4346415.48577 -29175.8054777,-4346419.61482 -29041.6785085,-4346380.30519 -28967.054049,-4346312.4259 -28908.4180696,-4346213.77656 -28822.6657516,-4346090.17338 -28793.0527246,-4346072.02391 -28714.9462272,-4346024.35426 -28610.3816699,-4345993.70744 -28550.4042752,-4345977.81842 -28431.2151548,-4345901.67287 -28422.2712047,-4345887.53856 -28350.580798,-4345772.95654 -28269.5660571,-4345622.2503 -28217.2902719,-4345569.49204 -28213.7199775,-4345563.73906 -28157.764944,-4345523.68815 -28001.311907,-4345424.83933 -27889.7448794,-4345333.28302 -27726.6105133,-4345189.52059 -27638.5727066,-4345056.26931 -27608.4610655,-4344970.20126 -27565.3626482,-4344921.61242 -27557.5431564,-4344912.55243 -27549.00113,-4344909.92812 -27496.6179551,-4344909.57236 -27428.9548275,-4344923.56686 -27330.9070504,-4344967.27293 -27279.1221538,-4344951.98702 -27234.0674626,-4344906.24943 -27178.1761673,-4344800.81771 -27171.8460683,-4344791.86724 -26980.8255325,-4344514.78648 -26975.4153571,-4344506.90193 -26789.5918654,-4344376.44992 -26783.1816489,-4344371.98582 -26738.1682776,-4344271.34771 -26754.1894823,-4344189.17031 -26772.4794363,-4344072.71964 -26751.1430174,-4343996.28239 -26726.2325073,-4343985.46766 -26636.5442977,-4344000.33999 -26560.6632251,-4344044.67712 -26463.0630456,-4344095.90336 -26359.5832668,-4344091.29432 -26290.4448027,-4344064.25238 -26276.1690952,-4344003.80738 -26251.1014971,-4343913.62014 -26249.0863617,-4343910.47732 -26245.5525359,-4343904.22815 -26187.8733602,-4343823.12467 -26136.043837,-4343777.88901 -26084.1573969,-4343760.6002 -26079.2730271,-4343755.7492 -26016.290491,-4343753.61707 -25964.2635559,-4343700.8802 -25924.6875976,-4343577.18455 -25838.6391561,-4343511.96577 -25726.7838801,-4343458.32733 -25630.7005585,-4343322.49472 -25624.7635956,-4343172.32243 -25645.9311359,-4343104.99897 -25647.967543,-4343097.66178 -25641.7719872,-4343022.33857 -25621.5556619,-4343005.38063 -25596.630236,-4342984.5829 -25499.6399291,-4342946.01291 -25417.7677333,-4342885.09511 -25381.0927258,-4342817.01632 -25333.3631651,-4342726.16435 -25358.0900187,-4342617.17674 -25366.0307133,-4342583.82007 -25392.1760972,-4342509.87483 -25392.5347951,-4342420.06001 -25355.9099271,-4342344.49851 -25283.4851022,-4342294.25791 -25278.9583204,-4342287.93599 -25215.0139862,-4342200.38563 -25185.5367989,-4342132.83623 -25201.656256,-4342035.69447 -25223.5263251,-4342006.35571 -25248.7031888,-4341972.76777 -25308.6604807,-4341856.38558 -25309.8177471,-4341721.70923 -25293.689149,-4341700.06087 -25229.028891,-4341615.45329 -25219.7564502,-4341605.78819 -25161.9383202,-4341540.15056 -25147.812169,-4341457.25827 -25164.1324577,-4341330.18446 -25142.7248162,-4341217.30977 -25098.7167005,-4341126.73289 -25096.8682748,-4341111.12462 -25091.3849904,-4341104.23345 -25032.4612022,-4341006.07289 -24981.1211425,-4340892.99694 -24948.8851216,-4340767.84805 -24968.9986182,-4340623.08519 -24925.1913481,-4340502.57709 -24828.4458405,-4340430.08953 -24777.7091214,-4340298.59171 -24801.3625869,-4340156.58474 -24869.8095471,-4340067.27854 -24983.1039823,-4339985.75698 -25037.2183684,-4339880.92383 -24984.1966884,-4339828.11804 -24877.6574457,-4339793.84307 -24782.8265568,-4339810.83788 -24707.378821,-4339764.37155 -24686.1410047,-4339689.94238 -24729.0504208,-4339601.75576 -24801.3352055,-4339436.36726 -24784.9421601,-4339278.94261 -24751.5302851,-4339173.17427 -24707.6299864,-4339026.70745 -24664.4032574,-4338898.25819 -24605.397146,-4338804.58656 -24606.1835596,-4338729.27912 -24615.0658667,-4338594.67312 -24566.9628602,-4338474.85044 -24493.2844261,-4338339.67489 -24446.5177996,-4338225.44091 -24375.6400171,-4338072.50373 -24373.558655,-4338066.86082 -24372.7388643,-4338050.82931 -24328.8639887,-4337999.19603 -24246.9872371,-4337975.71816 -24119.6554604,-4337928.94013 -24045.3778182,-4337846.12788 -24022.7286319,-4337767.10486 -24018.691163,-4337764.31304 -23897.6646204,-4337594.22134 -23861.9619892,-4337461.83517 -23780.6724802,-4337355.55065 -23751.8261995,-4337235.14732 -23785.1768337,-4337154.74425 -23809.037752,-4337030.22313 -23807.9788261,-4337027.64993 -23621.4068042,-4336842.76879 -23615.565762,-4336837.34922 -23540.058983,-4336693.05982 -23511.5733058,-4336550.72359 -23505.7151986,-4336297.25206 -23498.2012485,-4336147.97022 -23547.1929687,-4336010.81956 -23555.1257841,-4335906.09233 -23545.642183,-4335858.48159 -23527.1713116,-4335763.29656 -23537.270518,-4335693.665 -23540.825034,-4335689.4339 -23556.8400354,-4335549.36476 -23484.2681763,-4335463.68674 -23473.5126346,-4335450.42037 -23480.8409921,-4335401.54759 -23484.1146322,-4335377.3321 -23493.4754916,-4335304.15277 -23512.108501,-4335278.06938 -23617.6446558,-4335132.08955 -23639.9984722,-4335051.8776 -23599.0847952,-4334953.05031 -23598.7042836,-4334948.03145 -23485.9177588,-4334879.86733 -23479.93094,-4334876.43364 -23432.2820889,-4334794.58097 -23426.1413373,-4334667.36084 -23458.1363571,-4334459.09011 -23293.6706303,-4334078.19892 -23269.3529977,-4333885.76265 -23216.5630949,-4333577.94515 -23236.5648159,-4333427.68835 -23252.2207878,-4333268.62833 -23322.3464086,-4332809.11694 -23328.6046188,-4332611.43696 -23337.8448449,-4332298.18679 -23300.3280939,-4331574.25267 -23260.2563782,-4331191.50934 -23215.3482398,-4331140.30544 -23141.4852276,-4331078.99404 -23104.3662499,-4330996.41965 -23085.4182624,-4330887.22827 -23082.6774374,-4330873.55207 -23022.7423472,-4330778.82494 -23021.9338007,-4330755.80774 -23020.3530652,-4330709.27693 -23019.9787047,-4330700.76504 -23015.936736,-4330469.89135 -22983.3853147,-4330410.11109 -22923.6206483,-4330357.32019 -22902.1977158,-4330339.77957 -22825.0500541,-4330251.77726 -22843.8031895,-4330101.43006 -22846.730522,-4329955.91218 -22821.2904411,-4329615.17063 -22821.938078,-4329493.94096 -22850.8577231,-4329368.29467 -22835.8358302,-4329263.38487 -22754.6709487,-4329199.54476 -22658.8707791,-4329168.57008 -22479.2721729,-4329079.05268 -22351.1337874,-4328968.35185 -22236.6567762,-4328950.48257 -22158.4117159,-4328938.76127 -22109.2705547,-4328894.23681 -22068.9647908,-4328885.79413 -22031.52117,-4328824.65906 -22025.6696271,-4328727.40962 -22024.5448045,-4328643.98154 -22027.7883043,-4328517.95297 -22020.1371402,-4328435.045 -22014.7780953,-4328378.75596 -21941.6560721,-4328201.71777 -21860.1247062,-4328105.41311 -21778.0969101,-4328009.07233 -21682.0858265,-4327899.23074 -21607.8328732,-4327778.50636 -21601.4708885,-4327688.20746 -21609.9360817,-4327576.03729 -21606.519362,-4327523.8836 -21603.5248752,-4327493.22093 -21596.6667596,-4327481.23999 -21559.6158537,-4327418.13876 -21548.8934135,-4327346.48538 -21523.7638531,-4327260.30199 -21484.3814734,-4327113.18643 -21435.6647345,-4327049.23122 -21361.9257674,-4327016.88126 -21204.3156184,-4326926.98519 -21129.8247325,-4326918.53562 -21062.3362259,-4326940.54286 -20986.8037973,-4326939.50298 -20912.3094142,-4326893.6232 -20857.3113985,-4326792.77691 -20832.5837298,-4326660.21107 -20795.4610329,-4326577.64229 -20796.8367031,-4326442.99564 -20767.6800746,-4326367.49821 -20765.2406535,-4326363.32707 -20711.2950395,-4326268.54735 -20650.3321796,-4326071.94422 -20586.9588961,-4326013.90432 -20540.7219216,-4325991.05545 -20487.2933914,-4325964.18661 -20394.2318316,-4325929.92438 -20374.7288109,-4325889.56967 -20360.9238303,-4325815.69607 -20355.6382857,-4325697.0318 -20292.6319444,-4325552.183 -20191.0855316,-4325463.40189 -20122.5365946,-4325244.28736 -20063.6693464,-4325124.69549 -20056.2844478,-4325109.6822 -20074.2124929,-4325018.16997 -20312.5370148,-4324884.90078 -20407.1966936,-4324737.12169 -20401.3747432,-4324680.3018 -20399.4562554,-4324662.19523 -20381.3276824,-4324586.00934 -20349.5234635,-4324522.79613 -20227.102408,-4324446.46237 -20158.7765653,-4324381.07521 -20106.6747306,-4324305.39739 -20072.3228122,-4324198.5802 -19996.175823,-4324124.13706 -19936.6577014,-4324071.37243 -19869.5965073,-4324033.02746 -19773.848113,-4323953.65672 -19690.9693293,-4323896.18835 -19623.400743,-4323803.40979 -19565.6998471,-4323684.90384 -19557.6264585,-4323536.09454 -19610.1066546,-4323395.21009 -19644.9341707,-4323270.50047 -19674.2828922,-4323155.86993 -19661.691695,-4323116.52151 -19598.5170123,-4323025.06356 -19552.1107537,-4322915.86887 -19559.5871656,-4322837.56586 -19536.5715916,-4322776.99372 -19370.9944785,-4322598.19548 -19183.3276537,-4322335.93803 -19178.7632571,-4322330.11455 -17887.1564208,-4323446.28083 -17880.2192898,-4323438.78659 -13382.1426107,-4318716.87491 -12882.6286688,-4318201.81392 -12381.8625048,-4317693.65505 -14948.3628871,-4315284.92355 -14950.2089423,-4315283.5614 -14964.9524808,-4315266.17529 -15018.9232753,-4315220.71665 -15185.083129,-4315067.18525 -18191.8137306,-4312281.19107 -18636.4043875,-4311881.98931 -18116.0513886,-4311210.23189 -18109.9299843,-4311201.80057 -23447.6347806,-4306226.99252 -21632.4929048,-4304304.54095 -21625.0569188,-4304297.01224 -26448.9450169,-4299725.69601 -26539.0384322,-4299715.28805 -26765.8060659,-4299503.72088 -26896.4114827,-4299382.47149 -26898.5780381,-4299380.13383 -26940.1739527,-4299357.21035 -26880.8215057,-4299346.40043 -26775.5884019,-4299328.257 -26714.4840561,-4299327.80028 -26653.7195765,-4299312.39584 -26603.5950669,-4299270.81579 -26573.094753,-4299220.18403 -26508.3587161,-4299153.08522 -26472.0480416,-4299123.99005 -26452.8142526,-4299107.1181 -26366.9070686,-4299090.88135 -26280.3975766,-4299100.05379 -26179.2839916,-4299104.17021 -26057.2114128,-4299108.25774 -25990.9094875,-4299096.94209 -25930.1600497,-4299071.05846 -25860.1612787,-4299014.55686 -25824.2075668,-4298983.99078 -25769.6926033,-4298937.60009 -25709.0709563,-4298896.25467 -25684.5379951,-4298890.47582 -25638.6266804,-4298880.14598 -25552.1805574,-4298843.90744 -25486.5584992,-4298802.69721 -25420.6185486,-4298786.41754 -25365.622101,-4298780.9161 -25319.7950808,-4298735.15842 -25234.2433286,-4298693.49554 -25183.8569461,-4298662.37816 -25173.5858867,-4298652.64709 -25136.5454475,-4298613.01911 -25102.5293507,-4298566.12532 -25074.4848447,-4298509.18587 -25048.9920869,-4298427.47879 -25024.3938993,-4298391.75126 -24980.5137423,-4298322.67959 -24928.2862076,-4298289.43229 -24923.388614,-4298240.16706 -24919.8575753,-4298202.97895 -24904.7420562,-4298156.96242 -24871.6682179,-4298121.11712 -24855.0414851,-4298065.00928 -24846.4261599,-4297933.12737 -24816.5162966,-4297891.52374 -24808.5875656,-4297880.46615 -24771.5867002,-4297785.44531 -24784.9739832,-4297694.09247 -24791.0491094,-4297686.05056 -24818.4775132,-4297648.62086 -24803.6584543,-4297619.09534 -24796.0596432,-4297600.07674 -24778.5445639,-4297597.30459 -24757.7398524,-4297588.30419 -24747.8442719,-4297563.12963 -24645.8740762,-4297520.77256 -24440.914165,-4297508.34882 -24305.268298,-4297534.40769 -24224.7894378,-4297570.47085 -24221.8973202,-4297558.78189 -24216.1745931,-4297489.99378 -24232.2853566,-4297429.78179 -24227.396651,-4297373.53096 -24192.825654,-4297317.1159 -24155.6215925,-4297293.44732 -24147.1413996,-4297296.82257 -24086.7841275,-4297296.42183 -24025.6194373,-4297289.97359 -23985.3803803,-4297229.15369 -23963.7448661,-4297152.71989 -23946.2378261,-4297091.55843 -23911.8568213,-4297025.67544 -23860.3946594,-4297029.91482 -23822.3267114,-4297042.11589 -23800.3298812,-4297049.49794 -23728.2848445,-4297038.26556 -23668.3865866,-4296986.99451 -23607.9919178,-4296935.68743 -23597.4318169,-4296929.92827 -23532.4060029,-4296894.25405 -23466.5445369,-4296873.49077 -23454.6349957,-4296869.13059 -23324.7595866,-4296798.79339 -23294.6550101,-4296770.15247 -23219.4071858,-4296741.22041 -23172.1506323,-4296677.39558 -23113.5706208,-4296621.72972 -23012.3436801,-4296555.47446 -22998.9810589,-4296550.50956 -22974.9138957,-4296541.7713 -22899.8248967,-4296500.37487 -22886.4984219,-4296494.91357 -22760.6312572,-4296424.37027 -22660.2028592,-4296371.14904 -22659.3277454,-4296362.6015 -22624.4864355,-4296296.18761 -22554.2547354,-4296229.19457 -22505.4214897,-4296204.18179 -22486.269737,-4296179.33281 -22310.7844625,-4296087.71312 -22209.350822,-4296017.45198 -22180.1215888,-4295997.35935 -22145.9643135,-4295976.40908 -22144.5111851,-4295975.80429 -22075.230654,-4295940.32112 -22046.0061101,-4295916.73558 -21959.7495115,-4295847.08028 -21876.6148941,-4295803.10357 -21790.7418118,-4295738.46692 -21645.6149283,-4295672.01412 -21629.7797324,-4295659.88297 -21540.9422686,-4295584.55117 -21437.3856551,-4295457.74551 -21364.1768244,-4295363.0907 -21287.3477559,-4295297.616 -21207.7846558,-4295207.98869 -21134.5841856,-4295133.79564 -21125.7256512,-4295128.65979 -21038.6034318,-4295043.4733 -21032.5371541,-4294910.78719 -21031.6047934,-4294837.85999 -20998.2429222,-4294778.54271 -20912.2170063,-4294695.43276 -20855.8712567,-4294639.93301 -20846.3088106,-4294630.75376 -20714.7767514,-4294500.91778 -20596.1640318,-4294416.43608 -20545.4227632,-4294386.79519 -20525.6570453,-4294370.38635 -20453.0337526,-4294315.69923 -20434.5634447,-4294284.91274 -20352.8836964,-4294186.65031 -20271.8801164,-4294140.83551 -20208.8463373,-4294101.81728 -20157.3206514,-4294021.2187 -20144.6448053,-4293979.37624 -20097.2349529,-4293869.63451 -20084.1075616,-4293847.72044 -20028.903846,-4293759.36927 -19967.5086493,-4293660.08834 -19938.4383607,-4293517.74716 -19919.9995261,-4293462.5111 -19863.5362764,-4293415.48814 -19798.0656236,-4293368.80821 -19762.4873335,-4293322.80533 -19743.6467736,-4293249.0763 -19690.5184295,-4293173.3527 -19617.8589721,-4293091.71759 -19612.4797939,-4293083.34199 -19603.5446048,-4293082.69217 -19526.7607179,-4293092.07875 -19482.5090764,-4293117.30488 -19465.5819035,-4293127.05236 -19409.0421911,-4293166.8545 -19348.6892631,-4293166.4574 -19287.3345595,-4293145.52753 -19237.415026,-4293084.01048 -19224.287556,-4293062.09686 -19192.2247512,-4293012.35802 -19102.277607,-4292945.43511 -19084.840561,-4292938.17877 -19031.1846583,-4292914.31591 -18940.0060157,-4292922.6557 -18859.4954641,-4292935.26442 -18837.7354348,-4292953.14369 -18842.1670428,-4293008.85709 -18811.6524166,-4293023.60456 -18730.8305443,-4293002.75625 -18669.7336443,-4293002.30515 -18645.0222488,-4292971.565 -18625.0941708,-4292916.22187 -18573.6497913,-4292882.53964 -18534.2497374,-4292858.21664 -18497.8007886,-4292800.17516 -18470.6384727,-4292689.91338 -18448.5257766,-4292595.98741 -18420.7002541,-4292532.58506 -18367.0760947,-4292484.27329 -18300.4011173,-4292409.56284 -18218.4466786,-4292359.69023 -18208.3789837,-4292357.46112 -18068.7892454,-4292290.42339 -17885.5723898,-4292260.63358 -17728.2049129,-4292287.11559 -17607.6066908,-4292343.21762 -17600.5806454,-4292347.1978 -17549.8414702,-4292372.45082 -17503.9304102,-4292365.61931 -17398.32654,-4292315.02562 -17395.0323295,-4292312.29104 -17272.3699828,-4292180.61603 -17209.1027402,-4292103.6598 -17136.8511525,-4292037.02858 -17071.4450875,-4291968.89923 -16971.0120473,-4291867.78398 -16890.8905991,-4291799.58306 -16767.3931125,-4291655.37422 -16721.9289021,-4291632.10866 -16700.1059894,-4291616.54998 -16611.6190281,-4291574.1885 -16598.2212653,-4291569.72142 -16473.5305733,-4291527.72194 -16383.7440254,-4291475.78522 -16349.7960726,-4291458.84615 -16263.4658676,-4291393.68793 -16238.3260378,-4291365.41333 -16169.8882013,-4291311.53606 -16076.5919673,-4291287.28854 -16063.122123,-4291283.8143 -15889.7244259,-4291232.28673 -15887.3147357,-4291231.11356 -15770.7431454,-4291190.70329 -15722.1605012,-4291138.26997 -15703.4498947,-4291073.0385 -15619.5105006,-4290968.1357 -15555.2717961,-4290846.20254 -15500.1192126,-4290801.77495 -15444.8505858,-4290793.26641 -15441.8002067,-4290794.04266 -15352.6756642,-4290808.52164 -15311.1206655,-4290806.99788 -15307.5422335,-4290804.74179 -15291.7111386,-4290761.67575 -15282.9110914,-4290738.58148 -15305.1188879,-4290673.33101 -15348.7382489,-4290612.13186 -15538.4181651,-4290487.69866 -15528.5136782,-4290383.6873 -15486.5146084,-4290340.2162 -15389.1441905,-4290313.67815 -15323.1993145,-4290307.88697 -15252.1092686,-4290276.7723 -15206.4061829,-4290246.50495 -15161.5459811,-4290194.34336 -15138.7796786,-4290167.73917 -15126.3518552,-4290153.36317 -15070.5958146,-4290137.83393 -15069.1427919,-4290137.22934 -15065.5599947,-4290138.4659 -15004.3004093,-4290157.46585 -14953.7127362,-4290177.24144 -14882.7685561,-4290171.58602 -14852.197311,-4290176.84882 -14801.9637388,-4290140.26456 -14783.2250612,-4290068.54548 -14780.4272567,-4290065.8472 -14681.782593,-4289981.33479 -14610.9412762,-4289950.23881 -14552.4860505,-4289910.0634 -14502.4285965,-4289874.49028 -14112.4797996,-4289606.63843 -14104.5380463,-4289606.06127 -14101.0996022,-4289605.3124 -13794.3183797,-4289580.02338 -13360.7488197,-4289493.62683 -13347.3155152,-4289489.65674 -12838.4490751,-4289337.41361 -12648.499766,-4289228.80558 -12644.073007,-4289224.49213 -12588.5336812,-4289178.54271 -12538.2523262,-4289152.93421 -12486.1530362,-4289135.17714 -12423.7026298,-4289115.66996 -12411.7542322,-4289115.30067 -12305.2432077,-4289115.04529 -12173.6669174,-4289112.96847 -12071.831177,-4289117.04452 -12024.2456541,-4289119.57418 -11984.8789117,-4289156.63067 -11923.4119631,-4289202.55938 -11852.0440522,-4289226.81202 -11791.72392,-4289205.46384 -11750.3585084,-4289167.03148 -11736.6251243,-4289119.13098 -11719.5761384,-4289085.95845 -11717.243004,-4289080.30032 -11675.3914832,-4289062.29022 -11585.9779436,-4289056.79074 -11580.2700246,-4289056.37596 -11528.7167827,-4289027.68169 -11448.9194741,-4288958.51511 -11427.235981,-4288917.02264 -11414.0769744,-4288892.11635 -11382.8290538,-4288872.38214 -11358.9858721,-4288857.17768 -11263.1486366,-4288799.31995 -11214.2325706,-4288730.90094 -11175.1368403,-4288692.13516 -11076.9519175,-4288611.65415 -11063.9878612,-4288601.23199 -11050.7352956,-4288594.78053 -10937.4244661,-4288561.1006 -10653.5873185,-4288457.15184 -10496.3373325,-4288344.93789 -10357.5895178,-4288266.5006 -10264.5211224,-4288235.78906 -10137.0320002,-4288229.02115 -10054.113108,-4288220.00302 -9985.05547135,-4288212.49094 -9921.86695743,-4288189.43892 -9866.90843341,-4288104.61639 -9863.97077657,-4288100.41137 -9840.32953091,-4288065.26427 -9773.84286049,-4288042.97072 -9715.01957553,-4288045.68237 -9593.99024506,-4287946.58017 -9585.2218273,-4287926.48426 -9592.69005486,-4287878.62908 -9603.45432856,-4287802.57343 -9602.98547948,-4287750.64901 -9564.69608877,-4287690.48866 -9534.92277409,-4287653.89852 -9433.39860308,-4287609.10238 -9372.41401803,-4287552.28303 -9323.34772953,-4287520.27887 -9250.84836078,-4287515.51118 -9201.39820696,-4287478.48978 -9170.01706243,-4287422.82333 -9155.54925922,-4287395.32842 -9132.09659524,-4287350.71576 -9091.4631332,-4287264.44085 -9028.83457911,-4287189.04188 -9016.54243077,-4287121.29091 -9005.98906153,-4287022.73194 -9010.94477953,-4286940.76668 -8983.35360168,-4286887.87066 -8948.26058459,-4286852.39165 -8881.67465117,-4286824.60405 -8735.40679259,-4286839.42601 -8723.39533304,-4286833.06525 -8689.73441547,-4286815.6522 -8660.39519849,-4286742.17307 -8597.44883787,-4286695.19146 -8519.59812692,-4286540.8539 -8453.55887933,-4286203.26714 -8446.52192817,-4285918.86157 -8479.21702886,-4285643.82749 -8526.82237103,-4285441.72266 -8583.9398095,-4285290.70083 -8619.31058517,-4285150.57321 -8643.11006157,-4284991.14467 -8668.55985444,-4284936.11365 -8700.03822335,-4284849.58832 -8729.86642951,-4284809.84321 -8771.77427845,-4284778.95806 -8792.02822854,-4284740.51352 -8793.66723266,-4284642.3418 -8813.76941106,-4284581.93293 -8881.94272776,-4284526.01177 -8901.62411515,-4284492.01598 -8892.96689331,-4284466.93951 -8897.4779462,-4284459.78293 -8799.02338382,-4284365.8203 -8733.66361281,-4284166.49008 -8697.66450635,-4284146.91297 -8662.17789986,-4284113.40287 -8592.42902276,-4284091.37587 -8505.45344348,-4284035.16869 -8484.00361359,-4284035.10844 -8403.98408843,-4284034.28913 -8326.1222985,-4284007.18296 -8221.67935118,-4284002.59504 -8125.85812974,-4283992.64579 -8024.36167889,-4283954.34444 -7968.38606135,-4283948.78441 -7840.46443916,-4283982.40666 -7790.55686896,-4283972.2978 -7770.5486202,-4283921.4514 -7761.96786353,-4283830.02341 -7717.90016802,-4283797.88677 -7708.40620163,-4283791.21049 -7632.61031172,-4283787.20549 -7569.40205348,-4283843.48659 -7568.44142725,-4283846.41043 -7532.76239049,-4283918.6597 -7500.90161027,-4284000.16676 -7465.07087712,-4284019.51859 -7423.42449211,-4284039.94503 -7368.59016576,-4284028.9796 -7323.79421691,-4284013.75361 -7293.21144852,-4283971.12061 -7267.72403639,-4283906.40587 -7247.85597702,-4283857.06684 -7270.57091519,-4283743.46388 -7286.7013197,-4283682.76796 -7319.51819795,-4283601.82938 -7224.2348903,-4283433.26166 -7096.23493044,-4283289.26181 -6914.57327257,-4283070.02203 -6901.51253671,-4282957.81449 -6914.2956523,-4282846.98364 -6890.16801367,-4282770.39434 -6834.32879802,-4282707.96821 -6763.61902774,-4282534.20153 -6760.84500195,-4282510.55095 -6739.72737323,-4282468.10701 -6703.57250553,-4282430.06003 -6533.74782711,-4282181.7479 -6460.14880242,-4282085.60427 -6413.52759209,-4282054.282 -6343.60038497,-4282034.73947 -6199.62842429,-4282031.77662 -6059.2579244,-4281979.18358 -5829.9992031,-4281807.38676 -5624.37223025,-4281681.20992 -5544.30063312,-4281698.35027 -5490.28239215,-4281782.73817 -5447.90210577,-4281827.0597 -5388.1506955,-4281839.18835 -5282.55386447,-4281761.18039 -5233.31565862,-4281724.67991 -5147.93400073,-4281766.8791 -5095.2593728,-4281791.49498 -5017.61904047,-4281696.05843 -4973.29538476,-4281639.95843 -4927.58912661,-4281520.39712 -4878.13199834,-4281521.29905 -4842.12427045,-4281574.06513 -4779.12264813,-4281703.20074 -4777.20558182,-4281705.55618 -4757.20280162,-4281744.01727 -4763.5096071,-4281873.69128 -4710.83986414,-4281925.74702 -4614.86377171,-4281931.75466 -4559.32235089,-4281889.30908 -4473.77425382,-4281796.2928 -4418.9366053,-4281726.95776 -4372.6454674,-4281718.61007 -4286.52756722,-4281722.8387 -4134.18274811,-4281697.81608 -3936.77170597,-4281647.57226 -3881.33562344,-4281638.06226 -3795.00705521,-4281672.70838 -3754.62794151,-4281672.27317 -3694.50078109,-4281641.46915 -3641.36628731,-4281634.62064 -3581.51326878,-4281675.6776 -3515.4293395,-4281740.72827 -3489.63906522,-4281755.81947 -3464.75683702,-4281751.51965 -3447.35486081,-4281747.26366 -3432.85856607,-4281744.21629 -3398.61041182,-4281714.2922 -3400.34971688,-4281649.06321 -3399.96370767,-4281582.18334 -3395.67157871,-4281521.00681 -3365.55322722,-4281475.41787 -3299.68789785,-4281472.13592 -3228.59998324,-4281478.95182 -3111.32297678,-4281513.84681 -3030.61421408,-4281532.9358 -2995.80742931,-4281558.84729 -2979.62673381,-4281572.14118 -2970.09722951,-4281565.96198 -2948.91298873,-4281551.95273 -2940.39078822,-4281500.94644 -2888.47719578,-4281480.71662 -2833.05458223,-4281491.66232 -2799.75236504,-4281503.71398 -2717.68833391,-4281562.11678 -2679.30280839,-4281554.8418 -2660.11157561,-4281533.99276 -2614.63541966,-4281431.91345 -2549.10566332,-4281382.75819 -2534.51227585,-4281339.79288 -2544.86976895,-4281207.34129 -2536.32895887,-4281204.72613 -2386.57355711,-4281181.88849 -2328.59027451,-4281200.63073 -2266.34204792,-4281260.96991 -2165.78058556,-4281313.04164 -2103.23078577,-4281325.96466 -2063.70806515,-4281289.67209 -2059.74567204,-4281282.40024 -2041.52274567,-4281251.64405 -1977.55527132,-4281232.53571 -1938.36539902,-4281215.72384 -1901.62089685,-4281199.58828 -1876.85293639,-4281124.95459 -1872.53611933,-4281053.80012 -1857.514525,-4281013.29867 -1827.60204615,-4281006.13987 -1812.64581162,-4281002.56047 -1736.46450604,-4281000.52612 -1680.75770459,-4280981.0196 -1625.65678394,-4280894.70709 -1540.260232,-4280827.15 -1529.94660104,-4280824.90519 -1422.16783803,-4280801.12263 -1353.20867395,-4280744.23692 -1300.14289814,-4280708.95821 -1282.78515585,-4280697.22265 -1201.30111705,-4280682.33204 -1009.03831293,-4280664.39443 -893.509137831,-4280661.50167 -749.84234371,-4280682.01038 -675.883882357,-4280690.61392 -599.007092421,-4280677.55423 -567.468817125,-4280634.35895 -565.57119379,-4280619.25514 -558.27634956,-4280547.88616 -533.069855046,-4280517.12319 -472.301053266,-4280491.76262 -427.519223266,-4280435.13512 -376.562441728,-4280384.54511 -307.191283303,-4280316.15681 -183.059412592,-4280239.3069 66.9300450725,-4280140.35812 266.393403676,-4280032.60304 506.621060547,-4279922.88979 818.495291338,-4279752.10864 894.252709831,-4279689.24541 983.836680903,-4279562.52329 1054.66936062,-4279404.23669 1085.82198323,-4279070.23663 1110.85274978,-4278975.13506 1175.28765654,-4278931.55181 1287.12546597,-4278895.00737 1442.40347062,-4278872.7731 1488.92009263,-4278846.95164 1504.69792332,-4278816.87398 1502.70669386,-4278679.3344 1512.95393174,-4278648.6601 1553.08161998,-4278648.2448 1624.83781226,-4278688.43763 1675.01702721,-4278706.24992 1746.7228026,-4278666.62977 1872.46432664,-4278605.13303 2125.10940054,-4278508.49504 2321.62528317,-4278432.38935 2428.78447345,-4278431.10485 2505.63837688,-4278465.93921 2592.05485456,-4278526.02016 2643.59677866,-4278559.19767 2765.46261716,-4278554.35238 2970.73542627,-4278547.45031 3064.01395806,-4278561.13959 3121.00887528,-4278556.0094 3245.91048964,-4278507.04594 3406.81718286,-4278448.98719 3628.01172307,-4278383.06574 3741.91602876,-4278326.91887 3898.45477249,-4278229.27074 3945.67451179,-4278199.40896 4104.56756066,-4278082.63504 4272.10096638,-4277957.75278 4672.8732682,-4277695.74455 4892.89558231,-4277496.72466 5060.25843724,-4277345.41997 5502.42080585,-4276973.17162 6086.32201733,-4276522.81648 6533.63119836,-4276159.68413 6788.98684521,-4275956.1195 6869.13846381,-4275895.442 7383.87138712,-4275609.23733 7506.0558879,-4275543.51991 7656.35101487,-4275480.25514 7964.95477876,-4275392.05243 8210.79585897,-4275280.96391 8266.60004843,-4275259.46262 8354.32617835,-4275224.1761 8435.70206785,-4275218.2801 8501.21390453,-4275227.49988 8597.9826141,-4275196.54632 8693.33133857,-4275128.78476 8794.05471548,-4275117.99554 8892.69283986,-4275078.4273 9001.59992425,-4275029.13688 9104.08479226,-4275008.24435 9225.14725185,-4275026.90692 9348.13572268,-4275127.2317 9417.7018558,-4275185.53795 9501.2302072,-4275171.50541 9561.11457929,-4275120.28034 9625.58444301,-4274977.44467 9771.65154461,-4274838.67354 9867.54636459,-4274716.50628 9900.12593996,-4274687.7103 10007.1807451,-4274595.65981 10357.1068338,-4274406.7089 10785.9184726,-4274136.23115 11220.2895455,-4273897.77471 11953.5377355,-4273574.82905 12362.4279091,-4273380.6211 12481.2419135,-4273354.55925 12572.1973549,-4273363.93239 12968.9067848,-4273435.45237 13060.858637,-4273413.82989 13197.2607192,-4273362.05512 13578.3672116,-4273142.43234 13691.1873127,-4273078.40113 13832.5101748,-4272949.96162 13922.2143445,-4272842.21832 13971.4633609,-4272754.36249 13982.2897385,-4272735.12461 14006.5875039,-4272719.40001 14064.2506203,-4272682.30669 14164.5313428,-4272662.07749 14780.1866506,-4272551.16298 14819.4402026,-4272607.67151 14823.3015876,-4272605.89566" style="stroke-linejoin:round;stroke:#000;stroke-width:1px;fill:none" /></g></g></svg>