<svg xmlns="http://www.w3.org/2000/svg" baseProfile="full" height="69679.9449454" version="1.1" viewBox="-10950.726134,3972904.454192,59914.109383,69679.944945" width="59914.1093826"><defs><style type="text/css">polyline,line,rect,path,polygon,.polygon{fill:none;stroke:#000;stroke-width:1px;stroke-linejoin:round;}</style></defs><g fill_rule="evenodd" transform="scale(1,-1)"><g class="hogares departamen mujeres departam_1 toponimo_i tot_pob varones viv_part viv_part_h" id="06686"><polygon class="_06686" id="None" points="-10926.6713808,-3993625.79858 -10446.8635412,-3993278.21099 -10390.7920685,-3993169.1039 -10235.1360954,-3993049.1246 -9877.09126855,-3992748.95422 -9198.68934791,-3992327.23045 -8905.8454676,-3992347.33526 -8681.81356749,-3992389.7861 -8422.81385492,-3992356.12352 -8199.25968176,-3992078.03023 -7921.53256531,-3991845.7187 -7746.11483269,-3991538.02982 -7564.7752451,-3991162.64363 -7263.06458092,-3990930.65978 -7017.2199723,-3990898.64475 -6879.77596357,-3990733.1292 -6671.36569096,-3990482.25035 -6324.71025983,-3990525.68884 -6006.04936485,-3990593.96578 -5703.27948237,-3990516.22298 -5597.60281363,-3989997.75574 -5220.85916392,-3989717.66788 -5084.96366578,-3989362.49645 -3304.41647032,-3987190.7457 -3059.86285905,-3986816.28849 -2847.7624244,-3986492.85153 -1585.49472662,-3984565.2508 -1054.21204119,-3983815.80361 532.758683753,-3982325.25137 743.52856367,-3982040.8471 748.988684055,-3982035.08819 1036.91841252,-3981740.92255 2807.90564805,-3979929.41431 2852.83188807,-3979883.28442 3584.11510578,-3979134.61864 3790.6958112,-3978922.82861 4892.18298968,-3977796.14137 4625.19281594,-3977343.38002 4645.35749688,-3977326.91869 4866.00254279,-3977142.40678 5271.57621112,-3976737.18685 5372.47157982,-3976635.90677 5871.78595155,-3976136.25208 6141.91136632,-3975865.95745 8561.39846136,-3973445.43193 9063.14929439,-3972908.75283 11571.7413793,-3975186.09057 12865.0398228,-3976384.95587 13038.3972974,-3976546.22134 15633.4864632,-3978954.39999 15653.9996002,-3979108.64465 17970.9733035,-3981249.72874 18382.5016476,-3980835.27227 18365.5516137,-3980830.60971 18586.0979343,-3980629.64899 18603.3586029,-3980645.77727 18860.9506227,-3980886.26754 19136.5744864,-3981143.3459 19411.451262,-3981400.45908 19686.5525636,-3981657.06044 19961.9514081,-3981914.6439 20236.8278216,-3982171.75204 20511.9044129,-3982427.8504 20787.3028982,-3982685.42881 21062.4035912,-3982942.02177 21216.4553704,-3983086.23244 21217.9979545,-3983087.15532 21337.2795311,-3983199.12319 21612.9022972,-3983456.1864 21885.7374686,-3983712.38594 21761.7721154,-3984081.33045 22031.5643486,-3983887.44408 22297.5309451,-3984140.98196 22563.5461759,-3984395.51415 22829.0146718,-3984649.07317 23094.7564305,-3984903.11635 23360.7227361,-3985156.64779 23626.6889694,-3985410.17762 23723.8573774,-3985503.75436 23892.1815469,-3985664.22814 24104.3011588,-3985867.97995 24157.6984236,-3985918.77499 24423.6644526,-3986172.29997 24689.654779,-3986426.32127 24699.6273615,-3986436.31508 24955.1714683,-3986680.86326 25220.6393607,-3986934.40775 25293.6352813,-3987003.20919 25298.0870792,-3987007.48349 25486.8784655,-3987188.41201 25728.4715846,-3987418.16545 25752.8197939,-3987441.43095 25792.1680896,-3987903.69363 25987.3878067,-3987675.51981 27118.7774433,-3989039.13685 27126.4850043,-3989048.74184 27590.6243424,-3989608.48469 27767.5727856,-3989807.45143 26914.3817172,-3990654.32048 27226.2680402,-3990973.95216 27401.3214272,-3991179.99763 27776.0181743,-3991548.95531 28250.0072195,-3991209.29313 28465.7144651,-3991338.47668 28647.2771559,-3991381.98792 28839.2046616,-3991789.84104 29076.6646186,-3991848.58001 29339.6889489,-3992159.1136 29628.4074543,-3992693.48297 29762.1971153,-3992913.02068 30049.5523913,-3993292.23037 30249.0767549,-3993651.28714 30202.2860835,-3994127.2301 30593.3987969,-3994744.40865 30643.1708655,-3994812.8404 30657.3419453,-3994832.10953 30923.3857118,-3995193.8873 31490.3545226,-3995967.13199 31788.272709,-3996373.25573 32495.5846001,-3996441.37045 32841.2988211,-3996473.82045 33256.3140405,-3996586.21766 33466.6204,-3996763.05702 33699.0711376,-3997325.09975 33855.2461016,-3997705.723 33902.3466383,-3997999.36772 34208.6724733,-3998169.99239 34514.9593973,-3998355.09094 34878.5897123,-3998386.65212 35298.8997344,-3998363.02809 35647.1647585,-3998534.08496 36163.515423,-3998499.75719 36571.6989268,-3998473.23417 36808.7053235,-3998573.89076 36995.3916229,-3998661.04669 37007.4136905,-3998661.95377 37011.4454841,-3998662.75399 37130.3281938,-3998664.90352 37205.7073582,-3998685.65754 37235.047762,-3998693.69952 37423.2404486,-3998765.80885 37681.3958231,-3998819.51166 37982.609958,-3998794.74442 37984.6258316,-3998795.14452 38066.0455809,-3998796.63742 38070.032986,-3998791.4511 38075.2405976,-3998785.70584 38078.1209103,-3998793.54937 38083.5729102,-3998792.78269 38466.7959725,-3998776.46628 38850.6526294,-3998773.09417 39122.2679828,-3998938.42146 39309.8890683,-3999059.96226 40073.8250259,-3999698.16723 40213.4258435,-3999741.21732 40309.9647197,-3999867.72591 40656.8915782,-4000179.56003 40768.5636765,-4000222.98233 40823.4351842,-4000349.53954 41103.2191866,-4000366.24121 41312.2383402,-4000466.26408 41394.6644543,-4000620.41124 41451.4020502,-4000551.25269 41728.9073154,-4000806.10556 42015.0600094,-4001049.05412 42061.9679429,-4001089.66706 42181.7017919,-4001134.68738 42550.1812968,-4001275.77913 43136.7435849,-4001422.12555 43616.4234708,-4001454.95214 43943.4045049,-4001711.35625 44558.8437654,-4001927.63723 44768.2575321,-4002081.52573 44835.3176767,-4002390.11708 45093.9497107,-4002646.87785 45306.5884575,-4002871.46513 45515.5385225,-4002985.45138 45542.1255841,-4003125.36573 45709.6943357,-4003169.02786 45848.3825461,-4003310.41848 46238.5622658,-4004416.01057 46447.7018774,-4005472.61083 46452.2716923,-4005514.80192 46470.4491575,-4005686.56534 46473.6072922,-4005720.34269 46475.1986342,-4005722.26046 46510.3835833,-4005793.3855 46574.951333,-4005908.97427 46815.8479281,-4006007.90649 46981.5396299,-4006246.76573 47027.4213116,-4006570.85934 47060.4659503,-4006765.84247 47312.6267516,-4006753.93723 47309.5407018,-4006970.15825 47528.6923809,-4007058.17995 47764.1729405,-4007143.40178 47999.8773276,-4007228.11303 48209.065401,-4007417.92027 48418.1554541,-4007605.73533 48601.7727,-4007808.27574 48605.1268687,-4007815.59565 48668.7993024,-4007963.65876 48694.0129712,-4008024.79269 48780.6104932,-4008233.10394 48743.9699092,-4008238.89904 48684.3289736,-4008248.82002 48678.4044655,-4008250.10956 48661.8832694,-4008243.93663 48637.572802,-4008236.65002 48630.6527058,-4008237.98856 48567.3478059,-4008254.57683 48547.8809738,-4008259.5268 48415.9422551,-4008295.95965 48328.9498376,-4008399.04263 48326.3344602,-4008401.66634 48266.0546336,-4008591.25895 48264.5818442,-4008596.82044 48259.3044312,-4008885.00336 48168.8704651,-4009029.67374 48065.8911911,-4009112.08774 47895.6177774,-4009251.70668 47874.2952229,-4009371.01999 47853.7968984,-4009486.79978 47628.7542869,-4009644.08623 47621.2834681,-4009649.44406 47526.5896481,-4009864.68602 47518.2871304,-4009883.55797 47516.891762,-4009885.62269 47487.0536902,-4009913.03996 47452.258304,-4009946.19038 47371.6630861,-4010017.02513 47356.0727768,-4010029.76885 47232.970015,-4010129.14398 47200.1424746,-4010258.00722 47150.2017612,-4010307.87187 47147.1621308,-4010312.0136 47122.0476609,-4010313.74915 47111.0960236,-4010314.28837 47020.0472753,-4010319.7693 46956.5774572,-4010322.89432 46911.6578049,-4010413.92974 46984.2910338,-4010601.97308 46940.3898595,-4010794.75652 46938.9945028,-4010796.82127 46828.361656,-4010961.95248 46890.3520486,-4011171.97724 46890.2257235,-4011174.47851 46873.008384,-4011498.68532 46867.374863,-4011576.80847 46866.7017115,-4011578.33865 46843.9074141,-4011672.77638 46831.1851891,-4011677.89409 46829.7408154,-4011678.96325 46648.2221126,-4011747.28611 46631.0931736,-4011754.11793 46541.0662582,-4011790.48895 46474.4398374,-4011820.71733 46445.1844698,-4011834.63363 46444.2624161,-4011836.17609 46337.2700587,-4011994.14439 46145.4607331,-4012076.4486 46143.2696396,-4012077.55456 46007.6190082,-4012215.97679 45978.6013734,-4012244.8521 45976.7327476,-4012247.43924 45861.0214726,-4012415.81889 45671.1829218,-4012457.10788 45538.0025564,-4012519.05983 45492.0076827,-4012517.3335 45431.1801793,-4012513.34375 45328.9828043,-4012581.25492 45221.5842892,-4012715.79239 45141.191466,-4012816.06427 45138.9758278,-4012816.67245 45044.0320872,-4012869.75521 44996.0144806,-4012978.91189 44994.8925753,-4012981.46228 44936.1285246,-4013014.29891 44933.6885008,-4013015.41717 44737.7034185,-4013018.08673 44735.1898085,-4013017.71155 44612.5613809,-4013182.4435 44568.9624102,-4013239.48452 44087.5823334,-4013384.96579 44085.3911979,-4013386.07181 43963.3245144,-4013496.38365 43905.5165354,-4013548.6361 43700.1293854,-4013573.22836 43675.9062971,-4013648.77772 43658.470961,-4013700.03911 43657.8223492,-4013702.0672 43625.9877665,-4013805.4385 43301.8303356,-4013819.91505 43264.0619746,-4014040.85245 43262.961024,-4014048.89126 43302.3050626,-4014163.72649 43334.9428866,-4014258.93075 43332.4782934,-4014259.55125 43251.3991621,-4014275.02487 43149.0851494,-4014295.03828 42948.4893277,-4014265.00132 42714.0344662,-4014454.21358 42699.2464197,-4014493.36839 42610.3467042,-4014724.81272 42608.9022884,-4014725.88199 42405.0748243,-4014863.18364 42317.4135571,-4015033.6852 42275.5112332,-4015120.08869 42274.8381037,-4015121.61899 42272.818715,-4015126.20991 42269.9366696,-4015224.66321 42265.0388743,-4015322.71685 42262.8547157,-4015384.70573 42292.4267421,-4015488.54577 42362.1871567,-4015749.59879 42362.7586187,-4015751.06774 42318.1678755,-4015803.17028 42253.0504649,-4015879.24084 42270.7763053,-4015909.80658 42289.3681558,-4015947.81525 42292.7233184,-4015955.13546 42362.4378089,-4016356.92036 42370.5017523,-4016393.9509 42408.8618033,-4016569.71832 42428.8640765,-4016656.56336 42428.4644414,-4016658.57923 42339.8686107,-4017073.16107 42341.2850519,-4017076.58451 42538.2433817,-4017483.07183 42234.5170314,-4017866.34665 42235.1130901,-4017868.31342 42320.9908393,-4018420.51099 42351.4391977,-4018597.66651 42362.191285,-4018673.98878 42381.2643485,-4019728.02689 42407.4302409,-4020414.91803 42408.0017898,-4020416.38696 42588.1863149,-4021200.4742 42805.235086,-4021356.43917 42769.7229086,-4021703.5305 42978.7674208,-4021803.49727 42866.8712587,-4022144.87838 42985.92622,-4022504.29866 42828.6536615,-4022851.4155 42443.8245047,-4023496.72562 42441.7563993,-4023500.32111 42413.5809384,-4024586.64248 41979.6827626,-4025480.922 41969.9142358,-4025500.36873 41962.8895682,-4025509.69883 41256.9069606,-4026588.61547 40612.8538475,-4027098.05497 40612.4298429,-4027099.57311 40350.4254371,-4027584.14112 39884.1354602,-4027888.67034 39526.7556725,-4028266.17082 39196.423812,-4028615.38708 39161.5797601,-4028652.54443 39124.3503288,-4028681.83464 38832.5461381,-4028901.88487 38828.5852271,-4028907.57059 38526.7930111,-4029324.25321 38770.6101562,-4029561.73009 38811.2900493,-4029597.14832 38854.3061626,-4029639.43798 39411.0113311,-4030123.446 40503.565598,-4031083.49078 39345.0039538,-4032309.15634 37142.5359829,-4034647.1104 37134.5454375,-4034647.00707 37127.9205079,-4034654.32245 29992.7181086,-4042138.36096 29642.0504492,-4042505.15693 29539.9932381,-4042404.90127 29263.7554011,-4042144.07681 28987.766634,-4041883.23826 28711.2800556,-4041622.42266 28434.8182798,-4041362.10323 28220.324047,-4041158.60671 28159.0294099,-4041100.25125 27942.4941761,-4040895.85629 27882.5184591,-4040838.93249 27678.8245149,-4040646.87733 27606.0323065,-4040578.1099 27330.293151,-4040317.24855 27053.8072054,-4040056.42248 26777.2966745,-4039795.09674 26501.5331483,-4039533.73224 26225.0721911,-4039273.39889 26182.3677119,-4039232.58804 25948.5866477,-4039012.56587 25672.574461,-4038751.20849 25396.3134069,-4038489.86172 25119.8528343,-4038229.52143 24843.8409475,-4037968.15885 24567.3312158,-4037706.81921 24291.0952245,-4037445.96345 24015.1083006,-4037185.09362 23738.623521,-4036924.24674 23462.3631408,-4036662.88784 23186.3764954,-4036402.01283 22909.9413126,-4036142.15667 22633.3829045,-4035879.80901 22357.6701669,-4035619.41446 22210.9127024,-4035437.99225 22075.5303241,-4035314.90943 22081.2345988,-4035309.13599 22561.8056727,-4034787.16077 22594.0912144,-4034748.6232 22598.1019487,-4034743.93204 22593.1494794,-4034739.68465 20956.7764055,-4033220.81323 18116.8709635,-4030637.72398 17981.9637739,-4030514.10494 16611.6026997,-4029190.58577 15861.6073078,-4028469.86229 15846.7252582,-4028456.62 15677.2465382,-4028310.2416 15148.0158021,-4027834.19028 14422.4011079,-4027192.61178 13669.9666944,-4026513.40799 12301.5692302,-4025285.01305 12083.545701,-4025080.6128 11917.6786362,-4024931.5466 10006.3084761,-4023140.8027 8779.31745632,-4021995.68682 8468.05554159,-4022264.16522 8366.86626837,-4022328.07018 8028.34865035,-4022539.98301 7837.93070954,-4022692.66584 7658.94611956,-4022839.29324 7336.19412939,-4023082.38378 6567.8605291,-4023199.18972 6040.0503777,-4023192.29003 5621.00587489,-4023189.00825 5464.59285065,-4023196.22907 5273.80422399,-4023220.12457 5041.46066808,-4023155.70355 4964.74837675,-4023139.01974 4769.66855476,-4023096.22471 4550.83662115,-4023007.17095 4345.88667934,-4022976.84498 4343.37180248,-4022976.46982 2993.65373451,-4024318.24518 2983.7295825,-4024299.26315 2974.62629907,-4024281.73843 2887.6241761,-4024112.28349 2856.96281212,-4024082.84163 2733.04760769,-4023964.63737 -3856.01198705,-4017423.77636 -3903.54528681,-4017376.18746 -3881.23900036,-4017352.61898 -4285.42796236,-4016957.60597 -5470.86498989,-4015796.17506 -3904.6191226,-4014222.57414 -3746.63191731,-4014064.50088 -1320.66877818,-4011627.29472 -885.222099198,-4012064.71382 -780.70866245,-4012169.41386 -456.344498661,-4012495.46193 -148.801655905,-4012804.36132 -83.6552102959,-4012870.05601 1159.95454975,-4014119.94694 1415.93558456,-4014380.44774 3677.842903,-4016679.52204 3737.82515496,-4016620.14842 5680.74449642,-4014675.14389 6220.53743341,-4014134.82014 7317.26674846,-4013037.37259 7313.85781347,-4013034.04572 7306.46833011,-4013025.92236 7037.86256791,-4012726.61838 6151.58383308,-4011740.79356 4083.80704907,-4009633.83034 3834.11805273,-4009318.09717 3677.04613782,-4009119.12801 3466.68913749,-4008851.88329 1213.78679453,-4006609.59788 -140.942216281,-4005260.22416 -1615.24891423,-4003931.16357 -2090.66413838,-4003507.65113 -2851.45329775,-4002829.5285 -2779.42786891,-4002740.6104 -3037.78873534,-4002664.92417 -3075.8337099,-4002627.34799 -3122.83568028,-4002580.22567 -3227.29091248,-4002476.50816 -3766.56255247,-4001942.27445 -5179.24002496,-4000287.02278 -7160.36013937,-3997960.56136 -7194.01940822,-3997920.76899 -7206.93216009,-3997906.92216 -7231.01422968,-3997879.14295 -7687.0683674,-3997366.74039 -9991.38076809,-3994721.44081 -10926.6713808,-3993625.79858" style="stroke-linejoin:round;stroke:#000;stroke-width:1px;fill:none" /></g></g></svg>