<svg xmlns="http://www.w3.org/2000/svg" baseProfile="full" height="52110.2744811" version="1.1" viewBox="16534.239555,4155375.473490,74488.885858,52110.274481" width="74488.8858584"><defs><style type="text/css">polyline,line,rect,path,polygon,.polygon{fill:none;stroke:#000;stroke-width:1px;stroke-linejoin:round;}</style></defs><g fill_rule="evenodd" transform="scale(1,-1)"><g class="id" id="06693"><polygon class="_06693" id="None" points="46284.9824591,-4155700.99535 46345.096226,-4155758.69184 46532.0007725,-4155801.70448 46800.6250555,-4155482.14385 47007.0085571,-4155484.57204 47010.5172003,-4155484.8577 47142.0297809,-4155486.34676 47247.1372027,-4155545.79874 47405.0822255,-4155933.21374 47402.5942202,-4156664.03927 47845.915991,-4156810.67215 48224.5259948,-4156774.70274 48418.6001364,-4156603.31315 48946.4921136,-4156775.22911 49432.3435036,-4156977.62576 49594.0166616,-4157007.7021 50001.4356957,-4157060.25246 50246.7872902,-4157166.53763 50341.9567937,-4157296.41052 50442.4163096,-4157455.88556 50515.4460352,-4157693.33294 50551.4186375,-4157739.52395 50683.9347545,-4157749.42548 50824.7621793,-4157711.44256 50938.3179109,-4157659.65641 51126.3494142,-4157475.17185 51234.3475788,-4157368.86408 51414.7910637,-4157190.82686 51802.8980097,-4157110.391 51827.7795062,-4157105.38816 51889.3168139,-4157092.17349 52335.2277757,-4157269.55487 52666.7056298,-4157180.59086 52761.4287801,-4157171.84312 53010.8002523,-4157192.59853 53121.7173269,-4157138.48141 53504.8678653,-4156652.39866 53603.7828778,-4156589.53647 53919.3532129,-4156538.44768 53976.9276392,-4156517.49524 54184.3570612,-4156299.42748 54820.8339327,-4156071.75573 54856.6895674,-4156058.6063 55191.6714854,-4156019.30747 55486.8236788,-4156063.2168 55645.1872976,-4156166.3017 55597.2774549,-4156165.7212 55563.6488335,-4156166.26794 55343.3535367,-4156303.82535 55193.6632057,-4156212.18209 55061.79012,-4156372.79451 55345.7739893,-4156643.29012 55546.2268874,-4156880.95781 55527.6977079,-4157162.84873 55661.7278082,-4157620.48506 55982.0548626,-4157902.22924 56165.0926921,-4158374.33688 56232.0468583,-4158495.43873 56177.5523019,-4158677.78102 56010.6354578,-4159127.27487 56010.1748705,-4159160.71527 56005.5290713,-4159318.08586 56010.7530413,-4159514.75187 56011.1691709,-4159525.69781 56014.1831428,-4159579.37339 56014.146168,-4159582.86649 56024.6004494,-4159570.26227 56071.1150756,-4159716.04462 56075.1805472,-4159717.29352 56071.5749637,-4159719.50751 56101.1271429,-4159779.04989 56126.2211694,-4159830.88421 56163.5987357,-4159908.4023 56237.0782556,-4160083.46345 56319.6858453,-4160461.93382 56355.1910008,-4160656.25892 56351.5552466,-4160657.97609 56359.1793439,-4160684.94044 56414.1027599,-4160891.05036 56434.0373076,-4160890.83538 56663.6970713,-4160882.8524 57150.5840155,-4161053.71285 57251.9513479,-4161096.91748 57587.9515281,-4161238.55347 57702.6037708,-4161787.11121 57808.0253484,-4161950.24984 57856.4502043,-4162069.97943 58011.444066,-4162297.92186 58272.8983966,-4162587.20619 58596.4104202,-4162957.98579 59020.3693635,-4163213.43985 59565.3824639,-4163167.80754 59778.857885,-4163082.51028 59864.3580361,-4163049.38216 59962.9070657,-4163029.92139 60116.2633707,-4163062.97606 60397.8567444,-4163167.0158 60479.364951,-4163219.90059 60699.6986532,-4163362.07454 60704.38168,-4163365.28017 60720.7571551,-4163376.25148 61263.2914245,-4163527.73784 61460.1893161,-4163608.50473 61634.3626471,-4163725.55992 61868.6516778,-4163933.20087 61964.2938133,-4164095.42519 61997.8500368,-4164175.66019 61977.7723799,-4164226.74746 61947.6224756,-4164304.87641 61807.6903489,-4164439.05474 61530.724243,-4164623.96122 61422.7045311,-4164741.73726 61342.6364445,-4164892.71801 61308.7758098,-4165135.13218 61323.230943,-4165413.50017 61368.1564075,-4165549.39145 61461.7047843,-4165664.8689 61609.2457265,-4165663.86349 61637.8462021,-4165621.73091 61690.1634139,-4165543.24843 61740.3447622,-4165364.16797 61827.7727305,-4165211.24335 61964.1156148,-4165087.75352 62563.1920773,-4164943.57239 63023.7944667,-4164625.81837 63585.0358465,-4164335.35138 63687.0370332,-4164155.61603 64382.2183259,-4164279.84454 64541.1716604,-4164589.29371 64627.1784297,-4164757.0833 64655.5565575,-4164813.69562 64689.0191086,-4164855.53803 64837.9583656,-4164984.09265 64881.1147528,-4165021.35563 64901.500495,-4165028.5912 65097.1303868,-4165100.94894 65182.1139421,-4165133.1719 65279.4529021,-4165204.53272 65389.1014622,-4165285.61499 65550.1030803,-4165403.46024 65658.4792525,-4165484.12069 65943.0736394,-4165699.14995 66035.9092371,-4165790.72821 66052.9605127,-4165825.09205 66131.0392609,-4165981.39223 66160.3375082,-4166298.72595 66439.9501278,-4166640.70305 66802.7922002,-4166867.41305 66939.5007925,-4166877.03606 67427.4603224,-4166804.43272 67509.8193239,-4166826.34118 67540.3882469,-4166832.95557 67992.414897,-4167120.04387 68013.2601595,-4167130.74065 68606.1632182,-4167123.54208 69457.1604089,-4167019.34935 69465.1689979,-4167019.8587 69618.8058154,-4167000.52786 70155.556821,-4167295.40665 70225.6755072,-4167321.05052 70341.6816701,-4167363.34386 70642.7275148,-4167472.14389 71233.0357413,-4167402.27663 71391.1906816,-4167211.65568 71602.5628013,-4167133.46475 71718.1411319,-4167091.02463 72137.4373669,-4167230.01247 72257.6132945,-4167283.51764 72263.040824,-4167286.67702 72341.0777683,-4167368.67514 72538.0549516,-4167618.92505 72542.9492289,-4167625.6069 72621.4340206,-4167719.0442 72788.5395375,-4167875.88472 73167.3372649,-4168123.52799 73518.4422488,-4168272.64368 73678.4040614,-4168291.81291 73994.7649032,-4168324.88386 74053.3467859,-4168341.25653 74243.3160907,-4168366.07511 74302.7405912,-4168359.46246 74393.7810083,-4168303.06128 74434.4217241,-4168278.64802 74485.8737728,-4168288.47521 74665.8586304,-4168325.36895 75032.8874727,-4168470.01908 75141.7918037,-4168543.15123 75392.3447065,-4168752.23121 75729.2147946,-4169228.25785 75814.2074951,-4169448.921 75853.2736611,-4169680.8587 75645.6090161,-4170126.26206 75639.2235024,-4170262.75642 75666.2082531,-4170460.03393 75726.7697539,-4170623.35658 75754.7124821,-4170680.98056 75798.1621999,-4170768.07064 75879.7673936,-4170830.89766 76099.2749389,-4170984.5269 76584.5227593,-4171077.08019 76981.5130609,-4171214.39901 77072.5480851,-4171239.75695 77202.9428704,-4171244.26835 77250.6498393,-4171245.8458 77578.5214243,-4171169.51549 78134.4093214,-4171239.31031 78177.585054,-4171260.60687 78277.5420041,-4171399.58429 78323.032216,-4171471.09146 78366.38623,-4171662.87543 78393.3426043,-4171777.88814 78494.4879081,-4171932.24644 78653.9476183,-4172176.2726 78683.9791064,-4172186.40542 78766.8472548,-4172212.75785 78880.4614462,-4172248.70083 79346.2979061,-4172399.255 79863.7696386,-4172203.17432 80197.2429926,-4171920.61024 80346.6958116,-4171775.89685 80384.2123787,-4171761.64406 80470.2750351,-4171725.98504 80478.288321,-4171722.50516 80658.3005805,-4171711.02679 80929.7185608,-4171763.76514 81089.7972382,-4171797.37161 81401.1053615,-4171907.49713 81722.7284051,-4172072.32667 82602.4768934,-4172781.36879 83154.0553561,-4173304.03932 83186.4831939,-4173308.541 83194.5204932,-4173309.54604 83572.4518577,-4173678.3014 84217.426712,-4173730.16391 84843.2269017,-4173794.66009 85076.8949183,-4174119.36845 85191.9079353,-4174211.04827 85344.3418259,-4174266.54684 85840.1277422,-4174389.8164 85949.6903243,-4174408.55101 86256.2602465,-4174392.33011 86359.1538111,-4174407.98228 86742.1677197,-4174517.19616 86833.6757689,-4174550.49096 86906.110119,-4174553.04788 86911.6942005,-4174554.70089 86936.2292107,-4174564.66799 87253.5437221,-4174626.5481 87279.0473138,-4174631.96977 87831.1415866,-4174738.83368 88936.9717508,-4174730.64175 90087.1995681,-4174825.4081 90827.173565,-4175132.1312 90821.6463479,-4175155.89538 90820.1811648,-4175160.47081 90788.246374,-4175290.51997 90698.7571103,-4175649.37936 90575.7142701,-4176209.66644 90559.219893,-4176417.02951 90520.172706,-4176903.90226 90478.7204373,-4177404.38099 90189.6894417,-4177964.34959 90113.3757246,-4178836.31378 89936.8169926,-4179560.3876 89484.962552,-4180302.29374 89141.8759359,-4180756.42925 88618.0152133,-4181229.59946 88156.4757895,-4181654.10386 87329.5886646,-4182189.18967 86961.6674903,-4182530.71846 86799.1525232,-4182701.66789 87026.5730291,-4183110.96353 86982.1692372,-4183269.20515 86934.0914446,-4183436.64442 86791.0465747,-4183648.776 86559.7769486,-4183828.42234 85978.7920942,-4183860.98092 85518.8184453,-4183867.19235 85453.7285479,-4183895.1026 85319.1700584,-4183952.68666 85213.7182563,-4184062.32706 85207.9054066,-4184069.16315 85083.2293351,-4184259.73928 84850.3736413,-4184845.26457 84726.9636316,-4185162.38423 84699.3675408,-4185310.13307 84710.8986572,-4185539.23465 84711.3140422,-4185554.16415 84779.9334021,-4185848.56363 84901.2682871,-4186230.46171 85232.91091,-4186810.84326 85762.7967736,-4187262.43137 86103.3791061,-4187374.17175 86437.6444311,-4187423.48835 86445.8083036,-4187422.48987 86601.7169928,-4187388.0171 86818.1313343,-4187315.942 86899.7291309,-4187313.43712 86974.7690901,-4187293.38849 87091.0746055,-4187308.19878 87428.1714345,-4187298.02192 87945.6092346,-4187070.43178 88147.9490255,-4187130.81741 88160.4201077,-4187135.03839 88635.4291231,-4187276.92291 88998.5431452,-4187850.35183 88954.8510561,-4188422.7766 88879.4549904,-4188835.64144 88639.6070417,-4189322.38877 88414.5102871,-4189675.64216 88200.683351,-4189667.80989 88199.5331247,-4189669.3758 88192.1974158,-4189704.22012 88079.6141438,-4189717.59963 87972.1455293,-4189761.57129 87891.6073364,-4189838.28764 87825.183976,-4189946.04177 87757.1697125,-4190137.63809 87727.1773093,-4190250.13867 87706.5921233,-4190463.25415 87704.1566811,-4190708.15703 87720.0447783,-4190865.69976 87681.620686,-4190970.7421 87682.1828712,-4191097.82016 87618.05974,-4191178.01871 87527.0842115,-4191263.35301 87479.789895,-4191337.53538 87456.6843438,-4191428.18029 87419.1655108,-4191503.25901 87389.7212107,-4191600.27453 87351.7054547,-4191728.2232 87314.782117,-4191772.35972 87232.3273085,-4191764.95317 87164.2460337,-4191780.5926 87089.7764201,-4191818.05863 87007.1618102,-4191840.57106 86858.2790841,-4191814.8055 86690.8666336,-4191763.25747 86678.3949027,-4191759.03725 86564.8956372,-4191757.52181 86490.9266328,-4191790.96945 86369.3279874,-4191893.13834 86279.2724968,-4191908.13135 86229.3337307,-4191882.28073 86192.8342897,-4191856.10454 86126.4274832,-4191793.37804 86067.8470241,-4191752.60379 86038.8090419,-4191689.57994 86049.3469849,-4191597.21101 86034.2661357,-4191542.3043 85989.3382913,-4191504.68071 85929.9236403,-4191486.88801 85903.9677187,-4191494.46123 85863.2347244,-4191504.93437 85749.2678824,-4191503.94543 85618.4303913,-4191439.18615 85514.9378814,-4191373.2487 85498.7839773,-4191333.3622 85470.374129,-4191264.31715 85480.9975301,-4191152.99943 85460.5035351,-4191082.97057 85416.4261965,-4191034.82572 85355.8000552,-4191017.60513 85334.9414963,-4191018.88374 85267.4889692,-4191000.08756 85190.4690236,-4190987.85979 85173.3399381,-4190984.92178 85109.3505834,-4190925.03619 85056.9234478,-4190903.3248 84998.9180636,-4190900.39984 84984.9113947,-4190907.73892 84941.82766,-4190936.8004 84808.535795,-4191002.79713 84763.5054175,-4191024.50052 84705.9039051,-4191072.89671 84618.4204802,-4191089.22646 84467.960641,-4191184.19246 84400.5450548,-4191263.59948 84342.046174,-4191309.55861 84233.6215464,-4191317.70082 84182.020344,-4191305.41035 84159.5544569,-4191300.80547 84087.9752618,-4191279.76948 84024.9940479,-4191232.28392 83887.6285536,-4191199.32821 83816.6238959,-4191138.87445 83764.9871957,-4191130.07548 83737.0419659,-4191113.34358 83648.6743493,-4191115.27081 83557.0515856,-4191165.75326 83456.5994838,-4191202.3202 83354.5014125,-4191187.64119 83265.1685999,-4191165.69892 83181.5507567,-4191192.26075 83138.2146095,-4191249.75395 83129.5867969,-4191352.97709 83167.6213471,-4191420.43769 83206.1335909,-4191503.82143 83205.1670939,-4191585.63722 83216.6311497,-4191654.72658 83304.9905502,-4191790.88782 83287.6481398,-4191967.42842 83249.0308817,-4192024.63281 83158.2183314,-4192124.91884 83107.6253323,-4192177.87257 83027.7393791,-4192224.6462 82890.1928135,-4192237.56653 82767.2105534,-4192244.11015 82732.1660963,-4192245.76038 82597.1351321,-4192230.60931 82591.1143829,-4192229.98143 82501.744581,-4192264.37535 82498.8084825,-4192411.61929 82451.3005233,-4192453.91561 82395.159711,-4192473.31076 82380.7567053,-4192474.19393 82214.6557055,-4192484.87744 82177.1885674,-4192487.67338 82172.7795623,-4192488.94078 82102.8187672,-4192514.66721 81996.2107785,-4192479.32807 81821.8881475,-4192486.0289 81743.2920007,-4192411.58233 81609.3153879,-4192421.79139 81500.8553127,-4192535.12708 81359.2806719,-4192539.32137 81279.7886006,-4192592.55318 81282.4006486,-4192667.67125 81296.3399998,-4192744.58739 81237.8250413,-4192802.51555 81138.3936992,-4192786.67741 81044.812097,-4192784.93796 80965.7695945,-4192825.18086 80845.3559853,-4192808.63515 80759.8120119,-4192755.05363 80654.8792195,-4192665.76919 80620.798895,-4192638.44531 80619.4658577,-4192637.03144 80470.4931632,-4192622.2364 80353.3377322,-4192553.14376 80320.8666806,-4192556.13185 80278.3052086,-4192561.23428 80227.8975331,-4192613.18198 80179.3663979,-4192679.47234 79896.9466251,-4192695.79281 79857.4797683,-4192682.2595 79668.0309161,-4192665.95771 79644.0428725,-4192660.94753 79611.00918,-4192666.96143 79490.4666344,-4192652.41682 79475.0111642,-4192623.95035 79441.4341377,-4192564.18955 79409.0988494,-4192504.35257 79387.0412451,-4192494.23848 79361.9426565,-4192483.31374 79225.0067709,-4192498.19101 79121.96861,-4192590.25896 79058.9835336,-4192672.89158 78995.9354754,-4192677.25605 78980.5219963,-4192665.73743 78933.9418471,-4192629.70673 78889.4328599,-4192574.6041 78828.5283473,-4192577.34138 78825.1429309,-4192579.04461 78681.6338802,-4192665.61789 78551.677973,-4192761.83008 78468.6659392,-4192769.91152 78443.1076923,-4192779.95409 78390.1567063,-4192802.64453 78388.2027034,-4192827.69203 78376.1251152,-4192988.46839 78355.1190915,-4193060.55118 78321.4710108,-4193113.46711 78171.0427656,-4193144.12969 78128.1401711,-4193147.75773 77929.6098218,-4193141.98417 77649.056892,-4193172.64958 77540.1734893,-4193165.36694 77499.7492646,-4193172.83147 77439.5699018,-4193244.32617 77438.2284537,-4193462.27978 77399.2696701,-4193623.71027 77364.7649542,-4193772.40377 77282.7043584,-4193922.02001 77263.169715,-4193957.12046 77255.8179982,-4193979.50817 77240.1516589,-4194024.84123 77227.7535786,-4194062.49539 77213.7979926,-4194131.65464 77204.1567266,-4194254.89278 77046.32187,-4194246.1273 76946.6805897,-4194271.68325 76960.2465438,-4194297.77369 76985.6705053,-4194350.55789 77053.2705448,-4194465.06987 77031.1548951,-4194531.24005 77009.7613836,-4194617.30861 77097.2068261,-4194750.54553 77190.7331418,-4194913.82152 77243.2853816,-4195022.77454 77365.1615155,-4195042.71834 77464.1501697,-4195152.81046 77481.3305594,-4195221.55523 77475.7136227,-4195329.09095 77393.6118577,-4195408.91298 77318.6725937,-4195495.7742 77251.7530079,-4195518.32718 77227.2600285,-4195574.17366 77246.2279376,-4195627.35343 77334.1528975,-4195695.24736 77403.2339293,-4195764.79597 77404.2464666,-4195830.04577 77391.6542463,-4195957.95245 77404.3313336,-4196002.04532 77478.728379,-4196064.78601 77489.6421349,-4196076.0818 77550.1362604,-4196135.68702 77601.3428019,-4196283.60925 77635.1707717,-4196400.19125 77606.8343503,-4196507.12725 77585.2688751,-4196610.6564 77558.2064864,-4196661.17666 77465.3768507,-4196675.84839 77418.3723339,-4196738.5612 77395.2835144,-4196788.83776 77420.866317,-4196840.11546 77475.8722633,-4196867.15172 77459.1789574,-4196944.45682 77459.8040009,-4197052.10856 77522.3895457,-4197157.95121 77590.3695139,-4197242.02424 77602.6938872,-4197325.02655 77612.2592175,-4197488.96569 77584.7217345,-4197604.82758 77587.2922709,-4197610.15399 77589.3705208,-4197611.5221 77617.2239482,-4197659.17006 77715.6995121,-4197675.55985 77724.8229277,-4197677.99112 77803.7705099,-4197697.07539 77851.2432261,-4197743.51867 77892.3740558,-4198222.60551 77890.3174299,-4198485.4748 77900.3253433,-4198502.30999 77961.6756187,-4198604.23818 77983.2035042,-4198674.70932 78004.2223157,-4198842.43152 78037.1788853,-4198936.63032 78031.2714846,-4199002.80345 78096.9007214,-4199081.03582 78108.7695215,-4199128.16893 78037.8640811,-4199394.26945 78013.4408986,-4199503.95787 78005.8299302,-4199538.3277 78025.350137,-4199600.44637 78038.3433009,-4199641.52767 78080.7430235,-4199759.57577 78139.4506968,-4199867.1493 78181.7791865,-4199906.92707 78208.2172156,-4199915.27432 78245.2382477,-4199925.46428 78294.9042142,-4199983.23803 78301.8798448,-4199991.28509 78338.840543,-4200028.89961 78398.7346764,-4200013.75343 78466.7659087,-4199936.28585 78472.8524521,-4199933.91772 78507.7815904,-4199926.28793 78529.2100522,-4199974.82768 78524.8201034,-4200045.39441 78494.7906278,-4200144.95707 78458.8697258,-4200209.48391 78440.7541924,-4200227.04932 78407.9389078,-4200260.97321 78398.9298722,-4200296.92456 78401.2633436,-4200379.5425 78407.9614936,-4200561.60474 78446.321999,-4200626.05527 78469.2842393,-4200663.03376 78483.4619041,-4200670.63825 78531.8288478,-4200695.08749 78568.3415885,-4200745.69164 78546.3190328,-4200788.92388 78540.2546244,-4200799.76628 78518.7424832,-4200859.41973 78539.3213637,-4200890.06326 78565.821575,-4200927.82137 78584.8768564,-4200990.4664 78540.3258292,-4201056.52116 78534.7623389,-4201063.34431 78495.278143,-4201122.60653 78513.9147171,-4201170.32047 78606.8197355,-4201229.92327 78595.9507744,-4201263.99478 78540.9239601,-4201285.32434 78414.8486496,-4201302.54422 78338.3433145,-4201351.61756 78257.9684846,-4201390.45894 78141.8609679,-4201492.81973 78106.3378993,-4201563.80474 78070.8148812,-4201634.78983 77967.4269708,-4201684.5187 77826.5025458,-4201711.62612 77630.0480286,-4201735.66478 77464.0620007,-4201772.78818 77355.9767851,-4201831.282 77112.9688013,-4201905.04787 76978.4080547,-4201930.26902 76919.1124669,-4201995.73644 76893.0874702,-4202067.13644 76801.9783182,-4202158.49098 76787.4411092,-4202197.77482 76781.9270124,-4202306.80341 76695.0721802,-4202426.81448 76599.663707,-4202533.39144 76449.5509872,-4202617.90366 76358.5885967,-4202687.31305 76307.0147837,-4202699.95618 76263.5919044,-4202695.14656 76190.6971994,-4202612.37542 76159.1323648,-4202577.42054 76160.4893489,-4202465.65485 76142.9816336,-4202375.49051 76115.4788795,-4202284.94327 76087.2022463,-4202222.36412 76059.5212391,-4202214.09374 76012.6642541,-4202198.02742 75898.6519747,-4202192.56995 75652.6552913,-4202209.68298 75515.0595337,-4202165.28934 75351.0741771,-4202153.92829 75323.0363741,-4202160.13872 75291.7394069,-4202166.05086 75263.6379268,-4202203.67624 75255.2274754,-4202261.53076 75247.5745397,-4202307.37263 75204.160881,-4202323.00413 75045.2547433,-4202382.13089 74996.6576204,-4202426.99928 74980.2751405,-4202509.27641 74950.1439448,-4202558.49447 74841.1538274,-4202557.71447 74700.2625085,-4202666.59122 74636.1895542,-4202727.36907 74584.7746555,-4202795.34649 74628.3120525,-4202870.94959 74682.6127491,-4202894.5359 74701.7586605,-4202901.83512 74739.7041619,-4202951.35633 74753.7604153,-4203017.80234 74701.7962948,-4203076.83901 74630.798259,-4203110.12176 74526.1781975,-4203115.55568 74434.3788766,-4203151.11441 74344.2097254,-4203322.68976 74346.2087519,-4203432.25807 74350.1623355,-4203573.61641 74313.6617562,-4203628.71165 74215.2646891,-4203711.04641 74169.3142881,-4203778.68918 74139.3649572,-4203863.29782 74150.3582619,-4204135.35534 74139.3997887,-4204443.66471 74163.8292154,-4204476.06726 74172.8843504,-4204485.48243 74252.4057072,-4204558.37389 74275.8508215,-4204643.6883 74288.3881693,-4204709.72951 74253.2749927,-4204775.21083 74153.7408882,-4204847.14691 74127.8024824,-4204895.61043 74132.3209802,-4205033.94332 74187.8889673,-4205126.75562 74204.8180619,-4205272.30274 74261.8388516,-4205465.74252 74308.328459,-4205573.07353 74368.4701483,-4205687.54225 74390.4187279,-4205780.92598 74400.4610424,-4205891.49582 74471.791167,-4205993.30955 74471.805325,-4206042.17134 74440.9650254,-4206120.35414 74434.805429,-4206133.69664 74426.8754212,-4206211.46733 74421.830871,-4206259.14459 74379.3023024,-4206354.00185 74319.852009,-4206388.57246 74313.4668687,-4206410.40509 74307.8651518,-4206424.71052 74307.9319451,-4206547.36212 74324.921894,-4206665.48235 74303.5009579,-4206730.62117 74250.3854982,-4206795.21709 74182.9259158,-4206894.10201 74116.841737,-4207015.33963 73991.3993233,-4207140.22994 73948.5432841,-4207189.23711 73914.0398534,-4207236.23458 73897.0286703,-4207300.1055 73901.0328899,-4207332.767 73890.9838265,-4207323.41327 61673.2489639,-4195644.34904 60932.3180019,-4194934.78546 60569.2442301,-4195243.30017 57181.9955329,-4192203.92611 57046.8718334,-4192350.84906 53587.69965,-4189126.55024 53582.9539771,-4189122.35222 58725.2151589,-4183581.15545 58652.1949798,-4183598.08844 58402.7432693,-4183690.14304 58015.1803701,-4183782.66583 57664.428574,-4183930.78722 57451.9002631,-4184133.2922 57284.7733786,-4184401.34371 57089.8369151,-4184520.48897 56814.4134296,-4184595.68507 56462.9523702,-4184548.86077 56457.2742757,-4184545.71713 56329.8679532,-4184456.26196 56185.2752604,-4184354.89117 56159.4456788,-4184328.04452 55991.3532657,-4184152.30624 55916.3790471,-4183839.71059 55880.9384545,-4183570.07965 55695.3843478,-4183288.18329 55499.8277176,-4183009.88937 54990.3306459,-4182833.57576 54608.9789108,-4182612.02033 54287.9951745,-4182386.77166 54002.9870613,-4182170.7922 53769.6219147,-4182065.36372 53372.6100775,-4181893.63219 53010.0809702,-4181596.60395 52768.5553232,-4181349.53141 52489.987468,-4181100.23231 52311.6679856,-4180887.69627 52257.941418,-4180824.64757 52073.1736902,-4180649.41075 51791.6105257,-4180432.70732 51587.063028,-4180345.95644 51582.4696112,-4180344.24214 51308.9974684,-4180292.62408 50916.0803339,-4180228.8525 50540.4952598,-4180093.69742 50233.2589025,-4179979.30239 49898.6177159,-4179853.11412 49435.2212365,-4179664.46566 48954.2529373,-4179404.56763 48750.7906579,-4179160.13455 48595.2739786,-4179026.98801 48458.2628098,-4178939.59425 48390.1326802,-4178893.87925 48271.6227208,-4178811.34012 48090.6572305,-4178710.66952 47988.8199328,-4178586.71139 47894.8272139,-4178493.19733 47831.14069,-4178467.16078 47725.7209679,-4178460.13218 47688.8146166,-4178447.92183 47649.302287,-4178433.87554 47549.6631124,-4178358.16251 47396.3246775,-4178330.11908 47272.6814821,-4178318.71656 47270.3182792,-4178320.85596 47152.2376912,-4178306.61982 47048.3020255,-4178303.49034 46873.8794385,-4178273.2426 46816.6899649,-4178263.76691 46687.8432978,-4178220.26145 46685.8556109,-4178220.38283 46638.8225497,-4178209.78806 46608.6905176,-4178194.17099 46551.3112268,-4178165.25451 46458.1762431,-4178122.56056 46405.8286089,-4178114.78409 46300.2776342,-4178154.64766 46201.7480206,-4178170.63999 46072.2552908,-4178165.57929 45988.1969177,-4178181.68551 45913.6804869,-4178235.61517 45911.6927776,-4178235.73655 45828.8233991,-4178267.23248 45813.2726002,-4178261.69796 45770.2807587,-4178247.86354 45645.8630129,-4178146.22796 45622.7539827,-4178127.18903 45568.3290683,-4178073.15244 45542.4459511,-4177931.08348 45513.8500741,-4177883.45008 45431.7660463,-4177821.6252 45349.4014813,-4177738.86837 45316.7219933,-4177701.95857 45311.3967008,-4177647.41745 45311.8386855,-4177642.40262 45273.7487377,-4177545.47017 45277.2354949,-4177496.37641 45245.9198015,-4177461.37833 45207.2568012,-4177395.90414 45174.250528,-4177284.19631 45163.8302981,-4177166.62045 45177.3728511,-4177057.55737 45185.8929211,-4177050.05425 45212.7619058,-4177024.47228 45223.7333611,-4176975.42041 45161.8666677,-4176913.85641 45125.8419331,-4176871.16495 45015.3741244,-4176744.73277 45002.8164694,-4176731.03455 44961.7113123,-4176658.22707 44936.3765341,-4176610.89253 44923.9272881,-4176586.71315 44906.8112327,-4176461.56502 44883.3933301,-4176441.54663 44700.7843632,-4176399.82147 44557.873824,-4176330.23472 44453.8314672,-4176227.35035 44404.9306262,-4176112.62071 44341.777369,-4176017.71481 44186.3974975,-4176001.26095 44104.4151861,-4176018.73432 43961.305525,-4175978.587 43836.2722139,-4175915.88814 43761.7555713,-4175818.68199 43743.9815215,-4175719.50913 43758.28081,-4175541.06588 43795.4448415,-4175336.78661 43902.3615299,-4175090.34314 43955.7961243,-4174972.85928 43969.3028277,-4174932.63059 44011.9742354,-4174806.32666 44066.759493,-4174657.83581 44098.9373362,-4174424.93257 44100.4129281,-4174330.57117 44038.2717887,-4174162.2795 43970.9629956,-4174044.18191 43847.4718995,-4173781.86898 43641.3873453,-4173592.42892 43552.9897678,-4173496.5658 43452.4657078,-4173410.42038 43312.289906,-4173381.56065 43186.9197098,-4173378.73272 42963.9370682,-4173480.62043 42806.3454824,-4173591.4889 42621.3653859,-4173637.68804 42363.3221429,-4173757.67757 42150.9453231,-4173951.69806 42061.9389097,-4174074.84547 41998.0461148,-4174164.03881 41708.5473214,-4174279.46568 41499.4686552,-4174343.59797 41370.3901527,-4174472.1846 41274.4400663,-4174649.13044 41051.5674174,-4174736.55229 40931.4739357,-4174795.756 40797.9075154,-4174850.79378 40679.4176247,-4174854.53151 40608.9150698,-4174855.8402 40523.0663678,-4174838.63136 40471.877303,-4174800.85157 40445.3953601,-4174710.18617 40338.5386205,-4174638.89005 40256.8710255,-4174608.45648 40075.9538157,-4174549.65939 39882.4135171,-4174541.51413 39645.4600841,-4174529.03378 39464.0463385,-4174531.62142 39291.0332351,-4174565.62131 38990.945199,-4174609.86809 38731.1237469,-4174664.12922 38581.0926205,-4174739.62688 38473.5531361,-4174812.53239 38402.1527115,-4174852.30564 38288.0531729,-4174866.7495 38180.9896099,-4174869.78979 38133.6356893,-4174841.75124 38084.5119847,-4174813.3218 38021.4239028,-4174776.76527 37927.552353,-4174722.13336 37731.0214552,-4174632.36096 37539.9998348,-4174555.22169 37387.5200506,-4174521.12499 37267.157668,-4174526.9713 37056.0823447,-4174546.33308 36864.9914618,-4174639.80094 36677.6513329,-4174717.07743 36472.196213,-4174840.85439 36316.1415922,-4174911.73339 36068.0356371,-4174892.45 35913.5209201,-4174825.05419 35745.1558397,-4174735.05707 35576.2185014,-4174570.26666 35396.053305,-4174519.89881 35221.0385206,-4174431.30356 35086.5234241,-4174344.22812 34989.2414164,-4174262.36393 34888.7293214,-4174201.14964 34800.0461316,-4174039.44229 34680.5307628,-4173891.58774 34523.5875745,-4173702.61485 34394.1638253,-4173637.67524 34311.6846942,-4173667.64872 34232.6675996,-4173770.74359 34153.5603861,-4173913.25422 34098.7284086,-4174065.25944 34006.0437634,-4174169.18881 33896.6182216,-4174272.64305 33816.6621346,-4174380.78518 33779.6995826,-4174547.66512 33731.0569304,-4174694.80439 33691.5796634,-4174861.33934 33573.0580658,-4175003.76282 33428.0749141,-4175019.09353 33271.6342449,-4174989.72629 33174.0530797,-4174939.80637 33137.7251817,-4174847.23757 33048.7277231,-4174831.71456 32977.7876595,-4174850.50966 32848.5833704,-4174948.68776 32731.1492516,-4175027.19098 32638.6253726,-4175064.26483 32509.1574723,-4175088.62653 32382.7150931,-4175146.22831 32292.1663315,-4175170.71007 32199.7698882,-4175226.23491 32143.6215813,-4175323.94829 32125.708969,-4175443.27496 32088.6459021,-4175489.93643 32028.6454936,-4175504.07384 31935.80253,-4175462.34534 31848.2987798,-4175401.83244 31591.1444733,-4175357.15807 31174.1504184,-4175309.26458 30868.6252995,-4175309.94563 30646.7652925,-4175320.48854 30518.1791184,-4175355.27385 30428.2100905,-4175385.20867 30297.6495475,-4175473.49581 30102.2528216,-4175652.04743 29976.316118,-4175722.09319 29860.3242458,-4175746.632 29741.8208129,-4175725.92479 29653.715213,-4175692.38703 29473.6849238,-4175624.04756 29385.2774076,-4175626.44845 29205.7291077,-4175651.87178 29122.6800935,-4175664.42258 29025.2907108,-4175711.77351 28956.8757963,-4175763.8423 28716.3353019,-4175946.64913 28457.652951,-4176151.01926 28251.7537208,-4176329.2201 28064.3752331,-4176438.93937 27819.1547761,-4176528.74048 27436.7325306,-4176614.44259 27145.2928727,-4176658.17216 26905.2995995,-4176612.94896 26600.3599846,-4176455.94025 26464.8448934,-4176381.38988 26441.3242542,-4176363.86635 26351.7798878,-4176249.59041 26310.8259722,-4176109.89785 26277.378971,-4176019.63892 26244.8192786,-4175980.71437 26124.7991544,-4175931.16104 25990.3941863,-4175882.98416 25891.3618621,-4175883.03977 25886.3608301,-4175882.84599 25685.8103963,-4175883.10884 25343.8344462,-4176002.2633 25196.4164915,-4176035.20692 24983.2501793,-4176057.69365 24788.7304279,-4176095.5073 24687.7587762,-4176145.57429 24539.2326404,-4176233.96728 24222.4031386,-4176360.57106 23966.2117693,-4176381.19384 23708.3424376,-4176317.09986 23458.8512242,-4176279.93567 23312.9021215,-4176304.30871 23181.4317914,-4176390.16582 23107.9710964,-4176510.90172 22892.4129812,-4176592.41098 22645.848489,-4176464.26059 22414.9877179,-4176409.49387 22323.3365604,-4176330.26575 22285.4147076,-4176260.7315 22253.3998285,-4176104.02007 22175.8200117,-4176046.88438 22100.4787425,-4176030.52565 22017.4087875,-4176030.60479 21932.4733329,-4176073.70732 21813.8389614,-4176280.02684 21760.8820818,-4176336.14693 21670.382426,-4176402.54122 21546.4126124,-4176456.00954 21334.7716706,-4176532.29129 21065.8272455,-4176556.68629 20822.3574811,-4176622.43709 20530.3846974,-4176608.81992 20252.3709318,-4176566.40889 20094.7823547,-4176473.73819 20046.9256983,-4176462.18855 21095.3158892,-4173780.70446 20632.9568383,-4173308.94747 19905.3249117,-4172549.49153 19258.3875488,-4171963.73067 16616.46291,-4169394.84971 16604.0533764,-4169383.63017 17361.879933,-4168603.47141 17356.5452702,-4168597.80865 19620.4463837,-4166128.78401 20588.3690525,-4165066.47171 22887.3199358,-4162562.60936 24075.8611475,-4163650.81153 24925.3480027,-4164426.8326 26044.8360603,-4165454.31688 28257.7456761,-4163093.54534 28462.7251035,-4162871.04074 28954.3032784,-4162340.74944 28961.3357603,-4162333.33722 30489.229236,-4160681.40599 31065.9210173,-4160057.67012 31178.7061765,-4159947.54669 32396.2160846,-4158655.30543 32398.3250224,-4158657.17271 33043.2589209,-4159263.00071 33902.8502316,-4160051.81705 34441.1811235,-4160586.28056 34979.209897,-4161078.85114 37034.696564,-4162973.62635 37641.6259438,-4163532.80133 37645.0680551,-4163536.08368 37646.6260713,-4163532.99591 38152.5993974,-4163006.87543 39497.7445054,-4161540.32716 40125.5337379,-4160880.62862 40502.7352475,-4160488.57408 41405.1967791,-4159497.95228 43549.7127929,-4157289.65627 43689.6205803,-4157145.9858 44392.2085688,-4156424.46434 44988.7064511,-4155812.14806 44998.5848408,-4155810.55052 45367.5024603,-4155750.23671 45737.0352444,-4155745.24902 46115.1275666,-4155745.72649 46284.9824591,-4155700.99535" style="stroke-linejoin:round;stroke:#000;stroke-width:1px;fill:none" /></g></g></svg>