<svg xmlns="http://www.w3.org/2000/svg" baseProfile="full" height="55677.2378366" version="1.1" viewBox="38478.145339,3986920.215026,56377.185854,55677.237837" width="56377.1858545"><defs><style type="text/css">polyline,line,rect,path,polygon,.polygon{fill:none;stroke:#000;stroke-width:1px;stroke-linejoin:round;}</style></defs><g fill_rule="evenodd" transform="scale(1,-1)"><g class="hogares departamen mujeres departam_1 toponimo_i tot_pob varones viv_part viv_part_h" id="06714"><polygon class="_06714" id="None" points="70268.2485813,-3988484.21247 70421.2059373,-3988735.13168 70458.3561564,-3988780.70426 70577.0664032,-3988923.05258 70578.432347,-3988925.47998 70600.4040209,-3989328.47374 70813.6338872,-3989811.89659 71061.9286841,-3989905.99481 71191.3603002,-3989859.74993 71443.0289684,-3989890.32887 71958.8072573,-3990261.65567 72420.5328091,-3990593.72183 72559.0682968,-3990692.69151 72721.7767406,-3990826.89215 73056.2142107,-3990984.10842 73205.0470975,-3991110.00809 73443.4641455,-3991369.19746 73735.2325834,-3991719.55212 73745.524514,-3992097.66087 73991.9377218,-3992871.24606 74229.0229549,-3993047.1883 74393.6948211,-3993084.0134 74587.5236024,-3993323.92826 74938.1777584,-3993257.36041 75313.5417008,-3993511.82085 75719.2020959,-3993646.57371 76126.5873373,-3993821.64459 76259.1833819,-3993860.53783 76344.2616236,-3993871.33227 76752.4543526,-3993930.63631 76766.1193221,-3993924.47959 76956.4529361,-3993843.82051 76771.6362803,-3994133.71025 76590.3328578,-3994418.93992 76554.250807,-3994476.57584 76369.8499929,-3994724.0491 76406.7972008,-3994928.24827 76400.8033583,-3995131.55982 76259.6903611,-3995229.2632 76399.2845423,-3995390.5193 76285.8885996,-3995565.17816 76141.3222474,-3995684.00217 76088.526563,-3995970.41823 76036.2295437,-3996256.8103 75961.5610545,-3996575.22688 75886.396203,-3996893.66853 75701.9586297,-3997292.79352 75694.1141486,-3997539.59575 75592.7626862,-3997822.41184 75454.7509067,-3998145.93582 75311.0594447,-3998155.48096 75311.9782345,-3998372.4241 75312.3511787,-3998588.39643 75225.3441573,-3998833.09972 75139.0354061,-3999076.77171 75076.1191688,-3999370.17626 75013.1795785,-3999663.0837 75028.4951608,-3999949.65567 74901.423672,-4000262.17399 74844.010135,-4000555.80939 74975.6628287,-4000849.63871 75107.3164588,-4001143.46703 75077.2535249,-4001404.83202 75046.4939213,-4001667.22916 75088.0630136,-4002269.76541 74993.2743567,-4002406.61121 74805.500499,-4002437.78443 74798.4429977,-4002456.58782 74691.9035295,-4002745.15708 74518.8277712,-4002811.5249 74268.7139223,-4003030.82906 74154.8359923,-4003464.4236 74118.5402288,-4003603.88536 74025.5677562,-4003742.14192 73968.9162409,-4003827.73263 73914.6364502,-4004108.75042 73897.6012039,-4004157.97474 73836.737763,-4004340.54717 73835.2937806,-4004341.61582 73731.6492127,-4004420.03918 73811.5523868,-4004731.37634 73736.6004209,-4004774.4689 73489.615502,-4004915.31052 73380.729427,-4005221.9624 73337.5106204,-4005342.31225 73271.0734828,-4005528.15425 73162.140574,-4005833.81269 73143.1142538,-4006096.14123 73141.9680434,-4006098.19296 73032.4420318,-4006249.73974 73103.832358,-4006514.60602 73082.6016979,-4006797.99493 72938.3573055,-4007085.43951 72935.0320153,-4007413.34336 72937.9487972,-4007437.14438 72973.9420381,-4007727.69612 72984.3609895,-4007797.5205 72983.7846629,-4007958.17653 72998.3952628,-4008138.53795 73009.8072919,-4008274.1608 73027.0490293,-4008431.94473 73074.756828,-4008575.25952 73103.3775158,-4008660.15106 73132.7683443,-4008715.07406 73190.9300074,-4008822.45622 73215.226024,-4008870.14718 73287.7135367,-4008984.80558 73290.4025619,-4009014.10494 73292.2060236,-4009030.47798 73315.3407488,-4009226.88096 73335.4166797,-4009421.93789 73341.4780532,-4009626.1649 73354.8498316,-4009837.01587 73354.7969804,-4009841.00921 73414.5146957,-4009868.499 73774.3054582,-4010043.34048 75346.4894511,-4010744.61916 76878.8544285,-4011427.87455 77366.2535414,-4011651.78345 84921.2700589,-4015124.69687 84983.6684125,-4015151.04786 84681.0847835,-4015513.60925 84716.748201,-4015528.809 87528.0153111,-4016701.91128 87403.5703617,-4016833.23669 88341.0176378,-4017147.58974 88937.6824995,-4017348.07598 88992.9444675,-4017366.29685 89287.4627292,-4017457.49988 89636.9649168,-4017571.42497 89986.9386603,-4017684.82682 90336.6867623,-4017798.73731 90686.6576498,-4017912.13684 91036.6516577,-4018026.03273 91385.8979622,-4018139.96428 91735.8645627,-4018253.36032 92085.854284,-4018367.25271 92435.071757,-4018480.68325 92785.0831725,-4018595.0708 93135.0440468,-4018708.46217 93484.7547353,-4018821.86465 93834.2152411,-4018935.27825 94184.1963703,-4019049.16361 94526.9901123,-4019158.91416 94534.1515059,-4019162.5503 91828.2771706,-4022124.89974 91825.8879167,-4022127.01269 90767.5421706,-4023282.001 91169.9805976,-4024048.11726 89704.2884139,-4025744.97291 89283.4476657,-4026231.11507 89133.880241,-4026393.62304 85943.2176973,-4029844.31844 85929.2541061,-4029859.47409 85927.6875537,-4029858.05532 84163.8279645,-4028156.22794 81459.4926116,-4030879.81453 81446.375659,-4030891.93646 81289.5759748,-4031074.78043 81241.9313443,-4031130.01288 81109.8656605,-4031303.65223 80891.0928028,-4031126.43423 78740.0729931,-4033752.49542 78590.1919157,-4033601.79368 77703.2928689,-4032705.93614 76522.6841071,-4033942.17119 75189.0172548,-4035326.2073 73882.1813712,-4036683.02118 72726.1898125,-4037882.74016 69465.4553893,-4034796.68889 69463.5633667,-4034798.77818 69343.6418745,-4034935.9275 68140.1142094,-4036270.7401 67814.9846888,-4036631.09566 65937.6615145,-4038679.88967 65908.5205887,-4038746.19359 65895.6854446,-4038733.85843 65890.7599339,-4038730.11142 65881.5239875,-4038740.04883 64575.0322686,-4040121.50084 62467.1624517,-4042330.59384 62115.1746818,-4042019.26409 57515.418447,-4037605.16606 56051.6310355,-4039073.36136 55994.6550208,-4039157.02087 54716.4355486,-4040407.99086 46910.2323066,-4033092.14003 46860.5502193,-4033046.19367 44400.7509369,-4035781.45242 44398.6340208,-4035784.0525 43202.8175578,-4034653.54287 40503.6700308,-4032113.19134 39411.1183228,-4031153.13779 38854.4143149,-4030669.12534 38811.3983151,-4030626.83533 38770.7185036,-4030591.41678 38526.9019772,-4030353.93788 38828.6973512,-4029937.25573 38832.6583052,-4029931.57002 39124.464566,-4029711.52076 39161.6942695,-4029682.23067 39196.5386307,-4029645.07341 39526.8734255,-4029295.85797 39884.2564228,-4028918.35837 40350.5495659,-4028613.83088 40612.5575797,-4028129.26287 40612.9815944,-4028127.74472 41257.0397288,-4027618.30734 41963.0310546,-4026539.39132 41970.0558016,-4026530.06123 41979.8244776,-4026510.6145 42413.7295168,-4025616.3345 42441.9116335,-4024530.00939 42443.9797682,-4024526.4139 42828.8142665,-4023881.10372 42986.089538,-4023533.98652 42867.036314,-4023174.56414 42978.9349941,-4022833.18239 42769.8902728,-4022733.21395 42805.4047019,-4022386.12147 42588.3560131,-4022230.15456 42408.1754957,-4021446.06305 42407.6039533,-4021444.59412 42381.4420918,-4020757.69997 42362.375295,-4019703.65723 42351.6236203,-4019627.33456 42321.1761947,-4019450.17809 42235.3013833,-4018897.97756 42234.7053337,-4018896.01077 42538.435358,-4018512.73605 42341.4785834,-4018106.2457 42340.0621564,-4018102.82223 42428.6608925,-4017688.23902 42429.0605417,-4017686.22314 42409.058699,-4017599.37758 42370.6995278,-4017423.6091 42362.6357696,-4017386.57835 42292.9233673,-4016984.79114 42289.5682328,-4016977.47087 42270.9765225,-4016939.46191 42253.2507815,-4016908.89592 42318.3689588,-4016832.82539 42362.9602278,-4016780.72286 42362.388772,-4016779.2539 42292.6295935,-4016518.19922 42263.0580486,-4016414.35849 42265.2425899,-4016352.36934 42270.1409978,-4016254.31525 42273.0236484,-4016155.86149 42275.0430745,-4016151.27056 42275.7162165,-4016149.74025 42317.6192635,-4016063.3366 42405.2819848,-4015892.83473 42609.1112777,-4015755.53364 42610.5557071,-4015754.46437 42699.4572634,-4015523.01943 42714.2456207,-4015483.86453 42948.7027979,-4015294.65276 43149.2994344,-4015324.69109 43251.6140792,-4015304.6782 43332.6937094,-4015289.205 43335.1583186,-4015288.58452 43302.5209178,-4015193.37959 43263.1773885,-4015078.54354 43264.278394,-4015070.50469 43302.0483034,-4014849.56641 43626.2074588,-4014835.0918 43658.0428433,-4014731.72017 43658.6914709,-4014729.69207 43676.1272133,-4014678.43053 43700.3508934,-4014602.88094 43905.7392399,-4014578.28983 43963.547839,-4014526.03748 44085.6158345,-4014415.72584 44087.8069881,-4014414.61983 44569.1904437,-4014269.14084 44612.7899995,-4014212.0998 44735.4201035,-4014047.36779 44737.9337241,-4014047.74299 44933.9198343,-4014045.07466 44936.3598779,-4014043.95641 44995.1244415,-4014011.11999 44996.246369,-4014008.56959 45044.2649219,-4013899.41265 45139.2094946,-4013846.33022 45141.4251482,-4013845.72206 45221.8190325,-4013745.45017 45329.2189725,-4013610.91269 45431.4173192,-4013543.00183 45492.245115,-4013546.99199 45538.2402181,-4013548.71862 45671.4216818,-4013486.76722 45861.261496,-4013445.47924 45976.9744774,-4013277.09946 45978.84313,-4013274.51232 46007.8611064,-4013245.63704 46143.5133602,-4013107.21498 46145.7044725,-4013106.10902 46337.515355,-4013023.80564 46444.5093221,-4012865.8372 46445.4313908,-4012864.29474 46474.6870061,-4012850.37855 46541.3139818,-4012820.15046 46631.3416183,-4012783.77983 46648.470694,-4012776.94809 46829.9908205,-4012708.62608 46831.4352091,-4012707.55692 46844.1575362,-4012702.43927 46866.9525841,-4012608.00118 46867.6257494,-4012606.47099 46873.2598207,-4012528.34747 46890.4794118,-4012204.13902 46890.6057542,-4012201.63774 46828.6164224,-4011991.61143 46939.2509731,-4011826.48004 46940.6463512,-4011824.41529 46984.5490522,-4011631.63109 46911.9166763,-4011443.58623 46956.8371841,-4011352.5506 47020.3073748,-4011349.42599 47111.3566645,-4011343.94564 47122.308366,-4011343.40649 47147.4229868,-4011341.67109 47150.4626618,-4011337.52937 47200.4039863,-4011287.66477 47233.2325733,-4011158.80104 47356.336689,-4011059.42618 47371.9271712,-4011046.68249 47452.5233166,-4010975.84789 47487.319121,-4010942.69752 47517.1575449,-4010915.28029 47518.5529351,-4010913.21557 47526.8556267,-4010894.34357 47621.5514332,-4010679.10104 47629.0223304,-4010673.74323 47854.0672797,-4010516.45742 47874.5665073,-4010400.67711 47895.8899943,-4010281.36327 48066.1653306,-4010141.7447 48169.1457568,-4010059.33092 48259.5812322,-4009914.66034 48264.8606504,-4009626.47579 48266.3334864,-4009620.91428 48326.6149628,-4009431.32098 48329.2303735,-4009428.69728 48416.2240055,-4009325.61428 48548.1637447,-4009289.18214 48567.6307246,-4009284.23227 48630.9361085,-4009267.64434 48637.8562544,-4009266.30584 48662.1668134,-4009273.59266 48678.6880633,-4009279.76574 48684.6126149,-4009278.47623 48744.2539673,-4009268.55561 48780.8948054,-4009262.76072 48694.2982178,-4009054.44766 48669.0848234,-4008993.31319 48605.4130371,-4008845.24878 48602.0588992,-4008837.92879 48418.441962,-4008635.38592 48209.3519547,-4008447.56831 48000.1639288,-4008257.75851 47764.458706,-4008173.04515 47528.97731,-4008087.82122 47309.8249057,-4007999.79751 47312.9124262,-4007783.57522 47060.7500201,-4007795.47883 47027.7064832,-4007600.4943 46981.8266841,-4007276.39841 46816.1355554,-4007037.5366 46575.2381317,-4006938.60217 46510.6707468,-4006823.01227 46475.4860493,-4006751.88656 46473.89471,-4006749.96875 46470.7367786,-4006716.19118 46452.5603331,-4006544.42657 50697.9904547,-4002004.49605 51068.7898465,-4001619.53352 51379.9779055,-4001295.88232 51400.6979826,-4001280.89345 51415.3424828,-4001269.1968 51792.3042527,-4000867.47242 53907.3363936,-3998573.18104 54488.4105381,-3997943.42272 54029.2926228,-3997443.53646 54131.7989046,-3997341.21065 54150.0592902,-3997321.85336 54319.0432719,-3997135.43557 54321.9274568,-3997138.28784 54551.8658445,-3996892.49886 54640.2592495,-3996792.36353 55250.1772603,-3996145.2438 56115.741724,-3995227.14495 57356.9786828,-3993911.45907 58873.7703345,-3992277.96821 59609.4373247,-3991483.5642 61034.5567269,-3989949.45001 63407.0580634,-3987395.17895 63638.0981629,-3987146.40029 64184.5832715,-3987089.23124 64397.961211,-3987065.82076 64429.9167181,-3987061.26403 64562.1643422,-3987092.70959 65533.7043814,-3987356.98018 65751.7566119,-3987240.54846 65756.8362625,-3987237.30664 65935.9272519,-3987486.96467 65994.9886512,-3987567.38787 66110.4364152,-3987576.70537 66212.686854,-3987851.57337 67548.6448572,-3988182.3033 67555.4609404,-3988183.96521 67691.5895242,-3988070.54522 69241.4323884,-3988144.35938 69298.9860401,-3988143.03941 69346.9569178,-3988144.68269 69828.2427415,-3988127.11595 70268.2485813,-3988484.21247" style="stroke-linejoin:round;stroke:#000;stroke-width:1px;fill:none" /></g></g></svg>