<svg xmlns="http://www.w3.org/2000/svg" baseProfile="full" height="46535.7892402" version="1.1" viewBox="20004.378075,3986156.952613,47935.916347,46535.789240" width="47935.9163465"><defs><style type="text/css">polyline,line,rect,path,polygon,.polygon{fill:none;stroke:#000;stroke-width:1px;stroke-linejoin:round;}</style></defs><g fill_rule="evenodd" transform="scale(1,-1)"><g class="hogares departamen mujeres departam_1 toponimo_i tot_pob varones viv_part viv_part_h" id="06735"><polygon class="_06735" id="None" points="65244.0262666,-3994362.65538 65240.17506,-3994424.19829 65241.1259892,-3994436.10636 65246.5629968,-3994452.23662 65248.0683986,-3994456.63445 65261.0741876,-3994474.31273 65275.0434033,-3994482.96116 65278.6672199,-3994485.24014 65293.0453934,-3994492.36896 65301.6955424,-3994495.34877 65327.967124,-3994501.27826 65355.4513684,-3994506.63777 65384.4844822,-3994512.90302 65412.5240283,-3994519.22681 65416.5567972,-3994519.98618 65438.4451565,-3994527.66944 65462.496259,-3994538.21626 65484.6773389,-3994550.86727 65494.5552074,-3994557.76274 65496.0748124,-3994558.17169 65504.9883993,-3994565.62248 65542.4985575,-3994597.31025 65547.4814008,-3994601.50314 65616.9227255,-3994688.6369 65640.0112954,-3994716.68789 65644.6144619,-3994722.89714 65657.1376637,-3994736.61569 65663.1291447,-3994745.23563 65681.6438304,-3994767.57412 65687.0507126,-3994774.733 65701.4590082,-3994790.83295 65720.660312,-3994812.13394 65736.5589359,-3994828.14604 65741.6003312,-3994833.33245 65761.4296983,-3994852.6024 65782.6615632,-3994870.29419 65803.9076071,-3994883.99713 65827.0236421,-3994895.59586 65835.5131822,-3994900.08055 65846.6178774,-3994902.41713 65849.1603017,-3994903.2643 65872.0855714,-3994907.39676 65895.4925105,-3994907.01433 65905.0917769,-3994904.95313 65918.6359576,-3994902.16094 65942.5972888,-3994894.26836 65966.1052946,-3994882.91301 65991.5418357,-3994870.44702 65993.0028801,-3994869.86242 66014.0997384,-3994855.65818 66039.5069899,-3994842.69544 66062.9564177,-3994830.34657 66087.6043115,-3994821.41658 66091.0231695,-3994820.21811 66095.9616203,-3994819.42858 66111.9018008,-3994814.99973 66136.4920337,-3994813.5506 66160.4400161,-3994818.12129 66181.0276878,-3994824.884 66183.6286488,-3994826.72471 66207.4896988,-3994838.27947 66229.0718132,-3994853.458 66250.0844212,-3994871.66107 66260.9415754,-3994882.48666 66270.0014788,-3994892.42117 66287.4932337,-3994914.32117 66303.4946787,-3994936.309 66317.5383204,-3994958.91069 66324.903909,-3994973.92999 66328.3822337,-3994982.19944 66350.6254047,-3995029.74118 66356.5148644,-3995040.85949 66359.9204729,-3995052.12419 66385.4115954,-3995137.85865 66402.0137683,-3995174.26736 66412.0540352,-3995196.60643 66421.9630365,-3995220.9472 66433.5521836,-3995244.19195 66437.4687506,-3995251.43855 66444.8636736,-3995266.95457 66459.3748946,-3995289.03009 66475.0987652,-3995310.53564 66482.5805615,-3995319.06759 66493.0288231,-3995331.41265 66512.6097381,-3995350.69687 66531.459649,-3995366.0362 66533.8707866,-3995368.88506 66537.9913368,-3995371.13467 66557.9953295,-3995384.91048 66575.865846,-3995396.31956 66581.4767011,-3995398.48133 66606.4625199,-3995407.97553 66622.520645,-3995414.00798 66631.0535479,-3995415.00053 66665.8717413,-3995417.93327 66679.5470104,-3995413.1393 66703.0112368,-3995405.27589 66706.3714933,-3995403.08386 66725.525347,-3995393.97903 66748.4483802,-3995381.1626 66771.3714077,-3995368.34618 66795.5363472,-3995355.45656 66812.4112995,-3995349.97553 66821.9811395,-3995347.41751 66824.406416,-3995346.27758 66848.5137593,-3995340.86877 66851.4650808,-3995340.19633 66864.4830029,-3995336.9366 66874.3749058,-3995339.84302 66900.0906251,-3995344.80775 66909.9239646,-3995346.72064 66917.5369843,-3995353.25082 66921.9351726,-3995355.98254 66941.4281332,-3995373.77632 66946.8784116,-3995377.44302 66954.0097965,-3995388.488 66958.3938371,-3995395.20849 66974.4245719,-3995417.69274 66987.5474205,-3995437.35742 66990.4845908,-3995440.67374 67008.0490535,-3995459.57812 67028.3891487,-3995474.82946 67049.8388944,-3995483.535 67074.9840935,-3995483.04988 67084.8315528,-3995480.97398 67101.8235407,-3995477.47999 67130.4894936,-3995473.29792 67156.8614342,-3995468.25409 67161.4928558,-3995466.48564 67165.5255307,-3995467.24492 67180.9545035,-3995466.83401 67184.9871772,-3995467.5933 67194.3529944,-3995470.0322 67201.454092,-3995472.1061 67213.4652665,-3995481.36794 67228.3853235,-3995501.92358 67240.9396917,-3995533.08693 67259.9974365,-3995577.32616 67269.8620364,-3995596.68429 67275.8686417,-3995609.78945 67293.9904454,-3995646.60647 67302.4223123,-3995658.57169 67320.4835228,-3995677.44665 67341.9776391,-3995691.13435 67343.4972097,-3995691.54327 67366.5250187,-3995701.65113 67373.9330511,-3995704.70389 67418.3075112,-3995717.54136 67442.7963033,-3995727.0646 67454.8508794,-3995732.83438 67466.3208458,-3995737.14315 67485.4916537,-3995749.47229 67502.9975165,-3995767.38292 67517.3622767,-3995786.97417 67529.418928,-3995809.69239 67539.8247686,-3995834.00337 67544.3996812,-3995848.18983 67547.834659,-3995859.95105 67557.3934092,-3995886.80439 67567.3317971,-3995911.6414 67577.5185737,-3995936.46376 67590.8757377,-3995960.10225 67604.8901976,-3995982.20651 67619.8396158,-3996003.25868 67636.9658922,-3996023.18554 67650.8046585,-3996042.30921 67652.3827932,-3996043.71164 67669.4212207,-3996062.1482 67684.838127,-3996082.67428 67699.7875611,-3996103.7264 67714.985379,-3996124.76387 67720.9475842,-3996132.88666 67729.4380606,-3996145.84526 67742.429752,-3996167.51125 67755.4800192,-3996190.17075 67768.3111978,-3996213.34165 67780.3679574,-3996236.0597 67789.9994978,-3996259.9177 67796.3565237,-3996270.50962 67800.9315165,-3996284.696 67826.3781789,-3996356.97169 67846.0068726,-3996406.66001 67851.7945024,-3996420.27639 67853.9290985,-3996431.11722 67865.317956,-3996484.7807 67891.2391587,-3996607.37531 67894.3403143,-3996634.60917 67896.8275666,-3996659.88528 67897.8831314,-3996686.24277 67898.880128,-3996711.60675 67898.8836174,-3996737.0293 67898.3903581,-3996762.48115 67897.4003503,-3996787.96228 67895.4168352,-3996813.502 67894.4561375,-3996839.4799 67892.4726424,-3996865.01962 67891.2635858,-3996891.01216 67889.2801107,-3996916.55189 67887.8226952,-3996942.55908 67886.3945814,-3996969.06303 67884.9371866,-3996995.07023 67884.2542319,-3997021.53025 67884.3164258,-3997047.94633 67884.3786304,-3997074.36241 67883.9733794,-3997101.30455 67884.3132775,-3997128.20274 67883.878756,-3997154.64812 67882.450728,-3997181.15208 67880.4673656,-3997206.69182 67878.9642829,-3997219.24261 67878.3515787,-3997225.75906 67876.9058571,-3997230.82917 67871.9712555,-3997257.04144 67868.803378,-3997275.17374 67865.8966776,-3997280.8285 67859.8806955,-3997305.60909 67850.2702339,-3997328.6077 67838.9211225,-3997351.70885 67825.248718,-3997373.45156 67811.8539917,-3997395.67639 67796.9104026,-3997416.99559 67780.944003,-3997437.87664 67767.8269633,-3997460.58361 67739.314169,-3997509.62137 67720.4423657,-3997544.63145 67715.7537127,-3997553.88073 67707.2680294,-3997574.81916 67699.8204534,-3997600.68124 67694.3013338,-3997625.43263 67689.8636327,-3997651.61571 67685.9227017,-3997677.76949 67681.9524838,-3997703.42652 67678.2599529,-3997729.56566 67673.8222919,-3997755.74876 67668.9018802,-3997777.97242 67667.8064677,-3997780.52947 67661.2645942,-3997804.84272 67651.9319516,-3997828.32359 67640.8020582,-3997850.9135 67626.3846309,-3997872.70033 67623.3021794,-3997875.37457 67609.8629711,-3997892.61732 67591.7924334,-3997911.6287 67571.8367391,-3997928.25883 67550.3028628,-3997943.48658 67526.9424214,-3997957.32661 67502.7782339,-3997970.21707 67477.9707823,-3997980.65303 67452.827044,-3997989.61336 67427.3177188,-3997996.60131 67400.7855605,-3998003.15109 67375.276216,-3998010.13904 67350.4241075,-3998015.59276 67329.4581932,-3998019.3218 67324.8561453,-3998021.5872 67275.9123415,-3998036.93623 67232.2877353,-3998057.95344 67225.9763092,-3998060.81815 67210.9435543,-3998072.17313 67191.4259422,-3998087.78058 67175.2837935,-3998105.6814 67174.3781662,-3998107.23029 67168.3304382,-3998114.56589 67157.9150561,-3998128.14101 67148.4639028,-3998141.16077 67142.4747769,-3998149.4899 67128.3936137,-3998172.7526 67125.9251166,-3998177.38464 67115.8320492,-3998196.42418 67105.8422155,-3998221.43956 67096.8752197,-3998246.8931 67088.9310627,-3998272.78481 67082.0097455,-3998299.1147 67078.4778846,-3998323.74918 67075.2823211,-3998349.8593 67073.3286792,-3998375.89618 67072.3392744,-3998401.37768 67071.3791821,-3998427.35596 67070.886562,-3998452.80816 67069.92649,-3998478.78644 67068.9664284,-3998504.76471 67067.9770736,-3998530.24623 67066.76865,-3998556.23916 67065.3411582,-3998582.7435 67063.3876084,-3998608.78039 67060.9373041,-3998634.84659 67059.4805395,-3998660.85418 67057.7754028,-3998686.87642 67057.8089527,-3998712.7961 67057.3457483,-3998738.74508 67057.9346938,-3998765.62898 67059.8967229,-3998790.43791 67062.4141372,-3998816.21106 67066.8893143,-3998841.37022 67072.3580301,-3998866.47077 67079.3463548,-3998891.98016 67087.2696052,-3998916.4374 67096.4640815,-3998941.31813 67105.9362551,-3998966.68097 67114.8823664,-3998991.57635 67122.3381938,-3999016.55964 67124.3406324,-3999020.92794 67128.800502,-3999041.60154 67134.4883657,-3999066.19063 67136.9304204,-3999078.01039 67135.8870836,-3999127.92125 67133.9615878,-3999145.98061 67103.917674,-3999536.57811 67083.8973482,-3999598.57564 67014.3596263,-3999814.04038 66986.3119576,-4000077.90375 66892.7721126,-4000304.75589 66758.9875794,-4000571.86973 66839.3927626,-4000945.98172 66959.2959412,-4001119.35993 66906.4199698,-4001266.5466 66892.4559477,-4001426.88986 66785.9459654,-4001653.51343 66706.4260337,-4001893.99779 66556.7735137,-4002065.3442 66609.8594044,-4002217.24323 66439.4772084,-4002269.67599 66358.5060555,-4002481.33515 66131.4526113,-4002494.24385 66037.7826087,-4002760.99118 65838.3731864,-4002841.06216 65611.0675505,-4002908.82276 65504.4663335,-4003108.53941 65263.9969362,-4003122.24245 65157.4854334,-4003268.61448 64924.0270763,-4003401.04865 64849.5620268,-4003562.47859 64690.9882679,-4003700.96007 64688.8701198,-4003703.07924 64442.0617608,-4003799.41409 64438.9206953,-4003801.09518 64174.5028734,-4003890.49452 63970.1147746,-4003945.44024 63816.9068897,-4003984.89997 63701.634892,-4004160.20989 63586.507745,-4004329.5296 63552.6213384,-4004380.38684 63541.1700596,-4004397.51464 63355.6068407,-4004593.92867 63315.1290439,-4004638.6948 62915.0521263,-4004845.29146 62911.0484096,-4004845.02948 62595.5351218,-4004850.21031 62437.6096827,-4004852.06286 62435.6518377,-4004852.67706 62250.6928436,-4004907.47585 62047.1484072,-4004968.35834 62045.219904,-4004969.46936 61856.5941103,-4005143.6359 61792.6958537,-4005201.25355 61396.0570203,-4005563.19942 61148.0913116,-4005686.53471 60913.6682966,-4005963.12117 60596.1434082,-4006128.45929 60250.8579842,-4006570.63984 59988.8092208,-4006818.45442 59806.3003067,-4007129.87114 59404.6670185,-4007609.79432 59252.7841786,-4007907.93852 58595.3224192,-4008281.34853 58319.234911,-4008308.64226 58109.7379962,-4008808.63058 58097.9103036,-4009068.08763 57904.3922604,-4009302.8926 57738.8933148,-4009868.09121 57748.4192138,-4009906.91498 57756.3503656,-4009939.8502 57794.4276856,-4010103.12389 57711.3804153,-4010448.06397 57587.7399704,-4010751.53232 57490.8711981,-4011220.93936 57286.3206595,-4011441.94754 57429.3142067,-4011903.64367 57604.8906065,-4012305.07612 57550.3635527,-4012647.33585 57579.7883853,-4012866.46358 57516.3261236,-4012990.37767 57445.9831562,-4013158.07568 57362.3308667,-4013256.76101 57292.3773853,-4013409.97788 57278.3185311,-4013521.99355 57097.4921308,-4013516.24686 56942.3962305,-4013578.77815 56844.0347547,-4013732.18269 56773.5555769,-4013922.82624 56662.4009989,-4014095.93553 56452.4324059,-4014124.32394 56396.5091098,-4014278.70743 56326.0767169,-4014474.33608 56235.9079208,-4014648.19901 56228.4999636,-4014796.71862 56158.0394153,-4014991.85156 56032.3974557,-4015076.07624 55808.5107973,-4015202.0191 55626.5061817,-4015327.97486 55501.5693364,-4015529.32881 55332.6237944,-4015677.94643 55136.4900999,-4015775.82266 54800.5285847,-4015832.12299 54525.0409206,-4015861.40679 54338.1758125,-4015972.69628 54170.6913069,-4015986.10873 54072.4729445,-4016095.63751 53802.5739523,-4016181.43257 53825.0189033,-4016211.01652 54469.9760866,-4017065.30633 53326.7424206,-4017647.12316 53409.0913709,-4017808.28065 53830.0468415,-4018580.10982 52624.7404866,-4019338.6596 52956.6409252,-4019856.98958 52555.2554389,-4020126.1131 52267.7510992,-4020318.67844 51719.8249482,-4019453.64405 51253.3719707,-4019735.60243 51249.7337321,-4019737.31405 50909.8345218,-4019941.96285 49158.3933678,-4020997.73662 48973.8829694,-4020707.4965 48019.4924519,-4021309.12951 47857.9951325,-4021074.86539 47847.9770898,-4021061.49717 47458.9531901,-4021291.51458 46849.9830002,-4021651.26859 46990.500429,-4021922.68384 46885.9418155,-4021984.23839 46455.5190111,-4022235.17079 46400.083132,-4022267.38244 46278.3843303,-4022338.43225 45853.0583808,-4022587.07168 45851.6265753,-4022588.15397 45848.9819428,-4022589.8069 45844.4675471,-4022593.56546 45646.5959491,-4022733.96361 45625.9062861,-4022746.66072 45623.977552,-4022747.77251 45339.6110778,-4022922.22701 44297.1171429,-4023544.10771 43805.6662583,-4023892.93211 43793.714655,-4023901.62046 42188.250319,-4025054.15001 42130.6097161,-4025095.47318 39719.8825182,-4027506.76939 37909.8079188,-4029447.13977 37874.3824146,-4029484.65527 37806.3951779,-4029557.52125 37446.7964291,-4029943.47026 36050.0184643,-4031323.23645 35067.0392761,-4030334.27422 34232.5569173,-4031067.67663 34214.5272468,-4031083.21256 32594.5097732,-4032505.26185 30701.4419425,-4030752.83527 30280.5372757,-4030313.47254 29906.0784304,-4030559.18532 29905.9307419,-4030556.70011 29878.6149003,-4030399.20716 29772.1183663,-4029769.56906 29534.979872,-4028439.39824 29264.0055629,-4026891.76029 29106.4898447,-4025990.30715 28317.417781,-4021480.10126 27756.4221134,-4018272.15612 27943.2585156,-4018163.32205 28106.8664835,-4018129.6866 28114.8193169,-4018129.21543 28133.3115246,-4018125.62585 28291.3185326,-4018123.74648 28295.8214381,-4018123.9785 28273.8071235,-4018026.02244 28240.8235986,-4017881.82941 28116.8680971,-4017784.92441 27680.2583812,-4017441.17934 27387.3026031,-4017173.21854 25270.3015823,-4015239.0037 23700.9073065,-4013804.51321 20584.475947,-4010954.96838 20351.9651768,-4010743.24028 20051.3592051,-4010468.19292 23655.4214068,-4008341.61308 24076.8701201,-4008091.73845 27062.4099073,-4006330.62736 27639.7673202,-4005988.76638 28065.8621515,-4005737.64622 28686.3489736,-4005370.30308 29153.8053509,-4005093.3046 29156.2905719,-4005093.15783 29158.2200381,-4005092.04632 29358.211148,-4004973.49678 29412.261476,-4004925.91361 29675.339082,-4004705.87961 29739.3594781,-4004658.20687 29743.277094,-4004656.97797 31592.2291665,-4004171.72563 33292.7177445,-4003766.08179 33338.2981994,-4003769.37552 33876.242727,-4003812.42483 35008.6443186,-4004657.25066 35017.7371151,-4004659.20734 35382.1935574,-4004737.42995 35796.1914311,-4004831.1786 36011.7444355,-4004769.57247 36068.6032966,-4004752.74873 36237.0055841,-4004657.02191 36382.1277015,-4004711.78936 36450.5151043,-4004738.17266 36731.127775,-4004857.75113 36897.5128183,-4005014.99603 37266.1912044,-4005000.20236 37518.6560281,-4005031.67142 37652.6860632,-4004924.01158 37799.4887347,-4004804.62604 38119.9790094,-4004831.08016 38346.6413134,-4004923.91846 38600.5550194,-4004857.55417 39001.0300207,-4004777.54691 39281.1204265,-4004711.13361 39682.0210169,-4004777.72076 39960.0212913,-4004967.26428 40215.9938832,-4004978.07731 40456.0471314,-4004803.81673 40603.3923169,-4004469.96479 40763.4092578,-4004190.22239 41106.6030207,-4003913.12922 41257.5753572,-4003708.22909 41302.5328678,-4003629.27498 41457.9357401,-4003562.74974 41644.5360138,-4003589.63183 41791.0454626,-4003562.52952 41884.5405333,-4003401.91799 41935.0825492,-4003261.2969 41951.5451562,-4003214.94466 42085.4257921,-4003121.76532 42205.3771382,-4002961.58795 42204.9801556,-4002950.64038 42187.5801336,-4002432.04109 42151.8927231,-4002173.83579 42285.5085809,-4002067.70881 42326.0779201,-4001893.26948 42432.5221658,-4001787.25098 42579.5514387,-4001278.89766 42752.9479818,-4001145.49177 42825.0164301,-4000807.62469 43170.4507902,-4000378.32977 43262.4244569,-4000263.69404 43385.9583839,-4000172.62887 43475.9963313,-4000105.48168 43478.933267,-4000100.32171 43553.8191889,-3999890.4517 43740.5366173,-3999703.90528 43927.8765762,-3999570.18184 44007.9326211,-3999329.59032 44120.8138283,-3999070.6074 44208.3324925,-3998969.20316 44234.512219,-3998702.86848 44408.3334939,-3998475.20022 44501.9546172,-3998422.3062 44568.878188,-3998208.42319 44674.8883801,-3998120.39153 44728.4625463,-3997967.63442 44713.4721086,-3997797.9767 44889.4724989,-3997674.9023 44875.5402092,-3997434.37313 45023.3245354,-3997361.33325 45093.3144115,-3997326.29013 45125.8818693,-3997354.28944 45822.4565069,-3997953.98849 45938.2694999,-3998053.37203 48213.3308902,-4000010.49114 49474.1779281,-4001304.33494 50115.1494803,-4000611.31597 50317.8283591,-4000391.43141 50597.6426284,-4000088.71396 50842.3304968,-3999824.47037 51272.5871984,-3999358.81132 51511.6350754,-3999100.39048 55219.6470854,-3995086.96437 55738.0153894,-3994525.9327 54702.6819023,-3992984.98875 54733.6322184,-3992968.70699 54890.0491744,-3992881.71589 55089.7222092,-3992801.15206 55330.5607794,-3992721.15575 55410.4824367,-3992520.50819 55503.979767,-3992533.44941 55637.2171273,-3992641.27239 55878.0464824,-3992666.97524 56080.524598,-3992617.15926 56264.6675995,-3992641.21459 56665.1533445,-3992601.1762 57039.5341524,-3992507.33477 57386.4897801,-3992493.88207 57781.0580058,-3992345.00871 57973.8937018,-3992186.57839 58267.9696536,-3992079.52134 58521.0574763,-3992000.30487 58962.0980875,-3991772.92054 59335.8707618,-3991465.74379 59690.8540545,-3991220.49895 60043.8969836,-3991065.10826 60337.3382194,-3990985.51586 60524.3805431,-3990771.10156 60791.445489,-3990705.02838 61018.2783551,-3990544.10989 61151.8846111,-3990357.77087 61217.9092857,-3990145.49842 61458.472848,-3989836.70853 61725.9581698,-3989756.65631 62059.8625989,-3989449.85527 62326.8011121,-3989169.92979 62473.4683913,-3988781.92479 62511.3234527,-3988378.88683 62513.8788678,-3987994.3772 62340.3929009,-3987727.4045 62340.2920853,-3987433.2828 62166.4850247,-3987313.39109 61946.0507426,-3987227.1495 61886.0126491,-3987032.76626 61966.4094042,-3986899.41898 61886.3555986,-3986618.97086 61853.9965686,-3986327.24282 61858.8765913,-3986342.41013 61866.4012163,-3986364.40128 61867.4824659,-3986365.83327 61879.5514857,-3986384.56606 61895.5365349,-3986402.07152 61906.9920975,-3986410.37136 61914.078744,-3986416.43548 61934.8565784,-3986430.66796 61955.400708,-3986440.92599 61958.9951998,-3986442.70873 61983.3530048,-3986454.23807 62001.544647,-3986462.64033 62009.4496222,-3986465.66516 62036.0430366,-3986477.06303 62063.3524371,-3986487.92027 62082.5084586,-3986495.76727 62090.4426389,-3986499.2889 62116.8460511,-3986511.69496 62123.4213639,-3986513.30241 62143.9070221,-3986522.56677 62169.3460225,-3986535.52804 62192.9438669,-3986551.09017 62213.8092855,-3986566.81297 62233.8271623,-3986585.0782 62252.4130553,-3986604.42466 62254.517125,-3986606.29502 62269.0117352,-3986623.88798 62274.8855691,-3986630.52187 62286.9400675,-3986644.76866 62302.8811892,-3986665.76618 62317.0250742,-3986685.87234 62332.5278283,-3986707.89266 62334.4127117,-3986710.27443 62347.9721569,-3986728.91937 62348.8050054,-3986730.36596 62363.8840766,-3986749.42005 62379.9567552,-3986768.41571 62384.5009427,-3986773.63221 62397.0230404,-3986787.35293 62398.8494945,-3986788.74108 62415.9888902,-3986804.68287 62433.9319195,-3986821.57442 62455.5572092,-3986833.26423 62478.4244986,-3986844.88098 62500.8241963,-3986857.02375 62509.0359634,-3986861.02751 62524.9334781,-3986868.56745 62548.4875204,-3986879.14676 62572.3191726,-3986890.20825 62578.4268651,-3986892.34166 62594.9964639,-3986902.83317 62623.9859521,-3986921.06911 62639.0067102,-3986930.65465 62646.8385294,-3986936.67481 62659.404499,-3986946.90323 62678.867118,-3986964.20384 62684.9893515,-3986970.82305 62696.4594019,-3986983.6085 62706.3221861,-3986994.4944 62712.8389038,-3987003.583 62728.283242,-3987024.60951 62739.373364,-3987039.41136 62743.3184349,-3987047.15564 62756.9947643,-3987067.7876 62768.3186302,-3987086.56383 62770.0135504,-3987089.95377 62782.374795,-3987113.65416 62805.9576156,-3987158.62936 62817.4568078,-3987180.38636 62829.2920596,-3987203.61913 62841.8140794,-3987225.81447 62853.8685242,-3987248.53583 62865.426176,-3987271.28639 62878.3134872,-3987295.45429 62888.3077454,-3987312.8131 62891.4784234,-3987320.10438 62906.820521,-3987343.62937 62922.4110228,-3987367.13973 62937.5047313,-3987390.67931 62942.9694469,-3987398.83268 62952.3208263,-3987413.73669 62964.9305554,-3987437.42235 62976.8243141,-3987461.64862 62985.3427925,-3987483.58083 62985.4596738,-3987485.56802 62992.8238263,-3987509.06367 62995.4684084,-3987532.83691 62994.9568878,-3987553.80469 62990.9677897,-3987574.97701 62990.4271401,-3987578.49843 62982.3029319,-3987601.40953 62979.4828432,-3987608.55464 62966.8143926,-3987634.72414 62960.9258226,-3987649.02897 62950.7705961,-3987675.54917 62941.3021317,-3987701.03196 62933.9669791,-3987728.88185 62928.4875205,-3987758.61666 62926.8363617,-3987777.15892 62925.9596413,-3987787.67935 62924.4838168,-3987817.67719 62927.2746281,-3987843.93443 62929.2910331,-3987861.26392 62931.3951149,-3987871.60901 62936.8598902,-3987896.71193 62938.3648964,-3987901.11005 62947.4241592,-3987919.5208 62953.3419054,-3987931.1371 62958.2806662,-3987938.82286 62967.4422167,-3987954.73499 62971.3143196,-3987956.9998 62988.7460895,-3987969.43434 62993.9478578,-3987973.11648 63006.8061574,-3987979.83784 63020.7895524,-3987984.49895 63024.8516039,-3987985.75555 63027.4524871,-3987987.59662 63042.8093736,-3987990.18287 63050.8165773,-3987990.70888 63074.8966307,-3987993.2805 63101.3145388,-3987993.22201 63108.7957145,-3987993.28044 63127.9516105,-3987992.65211 63147.2682268,-3987990.51878 63155.903716,-3987989.01376 63184.9078502,-3987986.31056 63207.2344499,-3987984.49868 63214.4379915,-3987984.07494 63243.9242777,-3987976.85674 63255.847374,-3987976.15537 63274.3895359,-3987973.56908 63287.744565,-3987971.78644 63303.8319656,-3987969.84308 63333.4205015,-3987968.60105 63354.7534613,-3987966.84763 63361.7378132,-3987966.93529 63390.3619577,-3987966.24851 63416.9550818,-3987969.17079 63432.9401728,-3987969.72601 63443.7381447,-3987971.08488 63469.8929013,-3987975.02997 63495.3609049,-3987980.01248 63519.2946891,-3987988.57483 63527.4187308,-3987991.08801 63543.4184146,-3987996.12898 63566.8846146,-3988005.21733 63589.2549457,-3988016.8627 63595.4210319,-3988019.98956 63610.9093063,-3988029.0487 63632.4029389,-3988042.73967 63652.9322069,-3988056.98588 63673.3299738,-3988073.23386 63692.7926035,-3988090.53387 63711.2616479,-3988107.89231 63729.8183669,-3988126.74112 63746.943161,-3988146.67118 63753.8690573,-3988154.23993 63761.8177626,-3988162.24701 63765.3099362,-3988166.52817 63780.3160731,-3988188.57689 63796.7541375,-3988209.54434 63812.2570735,-3988231.56381 63827.2632223,-3988253.6125 63841.8018103,-3988276.1872 63855.3468211,-3988298.82034 63868.4242726,-3988321.97948 63881.8378051,-3988346.61438 63893.3956698,-3988369.3644 63905.3480707,-3988394.58375 63916.1899897,-3988417.87438 63926.403639,-3988443.19601 63936.3689015,-3988468.53224 63945.2821365,-3988492.93335 63952.2666744,-3988518.44493 63960.7123641,-3988543.37204 63967.2293585,-3988569.40963 63973.2203442,-3988594.97966 63979.7665867,-3988621.51404 63983.7704321,-3988647.20097 63986.3131466,-3988673.47238 63988.8266424,-3988699.247 63990.1858619,-3988726.58506 63991.7057988,-3988752.41813 63991.7646061,-3988778.83568 63990.8298444,-3988805.31169 63990.1727185,-3988832.26988 63956.6857359,-3988991.76936 63955.6776127,-3988995.81676 63948.2992077,-3989018.68387 63938.889877,-3989045.16006 63930.1965087,-3989071.09561 63924.3668044,-3989086.39396 63920.7729798,-3989118.51009 63919.7940962,-3989123.05428 63919.7945867,-3989148.47829 63920.1891452,-3989150.94762 63926.6773223,-3989184.96306 63929.8043993,-3989195.74628 63945.7314362,-3989220.7316 63962.8127539,-3989244.15347 63981.3844452,-3989267.48762 63999.3716491,-3989289.36062 64013.852095,-3989310.94145 64022.8386269,-3989332.34707 64023.8180653,-3989353.22684 64022.7514969,-3989356.28066 63981.373158,-3989415.54578 63955.350968,-3989451.97284 63951.2891481,-3989459.19101 63946.2341634,-3989483.41699 63947.3011456,-3989497.31249 63948.2219538,-3989508.72405 63954.2133093,-3989534.29401 63965.7278347,-3989560.53595 63979.8577685,-3989584.62992 63988.3473815,-3989597.59009 63995.2589187,-3989609.14759 64013.2754716,-3989631.51728 64030.2107395,-3989652.45507 64046.3131163,-3989671.94634 64056.8483686,-3989685.78311 64061.7872586,-3989693.4686 64102.6573195,-3989756.86658 64121.2736373,-3989802.13234 64126.6221165,-3989825.2475 64127.2358561,-3989827.20542 64132.2629831,-3989853.33054 64134.3386273,-3989880.12789 64134.2079726,-3989907.55359 64134.2082371,-3989916.02823 64133.3321466,-3989935.02315 64130.1623062,-3989961.63071 64124.756928,-3989988.36984 64116.8383778,-3990014.75839 64107.122598,-3990040.25571 64096.135615,-3990065.32934 64088.6111116,-3990077.23794 64081.3057641,-3990088.63513 64051.74827,-3990132.74817 64036.1440081,-3990155.60105 64026.8370393,-3990171.10416 64023.6519187,-3990176.27673 64014.2575317,-3990198.76413 64007.3470979,-3990221.10534 64002.8184282,-3990245.79891 63999.8675492,-3990263.42047 64007.1602805,-3990306.86014 64012.2602347,-3990321.51527 64021.7001869,-3990346.38366 64033.1565461,-3990371.63186 64046.3224328,-3990396.28092 64059.7952055,-3990421.90892 64076.65778,-3990445.84185 64089.7211695,-3990464.51479 64093.739511,-3990469.26336 64208.765949,-3990594.09894 64227.1918453,-3990614.94869 64245.2523741,-3990633.82591 64264.2772344,-3990652.14783 64282.6154021,-3990671.50719 64300.1791458,-3990690.41362 64317.2168592,-3990708.85249 64332.3259155,-3990728.40191 64347.2158258,-3990748.46272 64356.2609037,-3990762.387 64358.145881,-3990764.76857 64359.0957748,-3990768.20221 64372.246939,-3990788.36537 64382.6950269,-3990809.18615 64391.2437107,-3990831.61427 64397.1622423,-3990851.70468 64396.7824379,-3990853.72107 64402.6280567,-3990876.80681 64405.8290967,-3990901.54376 64407.2621482,-3990925.88629 64407.5842526,-3990939.82555 64407.7308826,-3990950.78409 64406.2709745,-3990976.79245 64405.3078629,-3991002.77156 64404.6224014,-3991029.23284 64403.6885575,-3991055.70875 64400.7968267,-3991082.79843 64399.6438586,-3991109.78574 64398.7100471,-3991136.26165 64397.8054941,-3991163.23434 64399.13649,-3991190.07542 64399.6341396,-3991206.9954 64400.1898556,-3991216.43434 64404.1654519,-3991241.62419 64408.1703064,-3991267.31083 64413.1979917,-3991293.43575 64419.6575473,-3991318.47935 64425.5910767,-3991343.05541 64433.8186503,-3991368.49341 64441.7393408,-3991392.95246 64449.6892895,-3991417.90829 64457.1132112,-3991442.39658 64464.7562841,-3991466.37345 64467.1529288,-3991473.21145 64472.2094729,-3991491.35851 64480.1302055,-3991515.81753 64486.5898408,-3991540.86109 64492.5819506,-3991566.43067 64497.7996409,-3991591.54735 64502.7689478,-3991616.67864 64507.2707303,-3991642.33597 64510.7789521,-3991668.0518 64515.7482878,-3991693.18308 64520.205972,-3991713.85792 64520.7468848,-3991718.81115 64527.7033798,-3991743.82542 64531.2255091,-3991757.07772 64547.2431979,-3991817.45097 64553.6444375,-3991841.5009 64558.1750405,-3991859.18038 64559.6366601,-3991867.07043 64566.0671704,-3991891.61714 64571.5626269,-3991917.21592 64576.7804471,-3991942.33254 64581.5599997,-3991968.47198 64586.2518002,-3991993.12106 64590.7537261,-3992018.77833 64594.7881318,-3992044.96164 64597.7412147,-3992069.7131 64598.5741555,-3992071.15958 64602.7399545,-3992095.34111 64606.2483508,-3992121.05688 64610.2242862,-3992146.24661 64613.2944287,-3992172.9852 64616.7443439,-3992197.7074 64620.2820358,-3992223.91995 64624.2580102,-3992249.10966 64627.7664662,-3992274.82542 64632.0493649,-3992300.99407 64637.2088156,-3992325.11708 64642.2076534,-3992350.74505 64647.7032849,-3992376.34377 64651.6793169,-3992401.53347 64652.7624265,-3992428.38907 64651.6100191,-3992455.37632 64648.2358268,-3992470.03175 64646.147185,-3992481.12191 64638.244628,-3992511.99627 64628.0468288,-3992525.05955 64624.7741464,-3992528.74185 64609.6234376,-3992546.58341 64607.6948169,-3992547.69401 64588.175149,-3992563.30035 64577.0416895,-3992568.94114 64564.1109653,-3992573.69076 64538.527161,-3992583.67218 64522.7034962,-3992590.08772 64459.1012794,-3992606.29635 64434.6716258,-3992614.71429 64418.2197954,-3992623.16088 64414.2311878,-3992627.38387 64396.1140595,-3992641.41214 64382.23455,-3992659.67742 64375.2222697,-3992676.04272 64373.5569782,-3992681.62441 64365.2741033,-3992706.0407 64360.6150382,-3992732.73611 64356.2921566,-3992760.90726 64352.6559456,-3992788.04094 64347.5879076,-3992816.25599 64341.6869199,-3992843.02457 64332.7759636,-3992869.47193 64326.5388197,-3992894.76479 64318.5336711,-3992919.66329 64312.2672836,-3992944.45938 64307.7103959,-3992968.65627 64306.542575,-3992982.68334 64306.6602843,-3992993.14511 64307.6265898,-3993018.0137 64312.625721,-3993043.64177 64318.5891724,-3993068.71451 64326.1015171,-3993094.69304 64334.5781813,-3993120.11626 64339.0805646,-3993145.77357 64344.1382702,-3993172.39518 64346.7263422,-3993195.17419 64346.5950022,-3993197.17596 64346.5970762,-3993222.59985 64341.1345119,-3993248.34564 64333.1002342,-3993272.74739 64328.1480536,-3993286.00037 64325.1244924,-3993298.14272 64316.0966581,-3993322.60301 64310.6341298,-3993348.34882 64310.1237759,-3993360.84164 64309.1459026,-3993373.86051 64313.0930711,-3993398.55351 64318.690488,-3993413.17909 64324.0830525,-3993424.32715 64338.1265617,-3993446.92985 64347.7125476,-3993457.33237 64357.5469268,-3993467.72026 64376.5868421,-3993482.05243 64379.5532881,-3993485.86576 64386.5818175,-3993490.93532 64406.1763175,-3993497.75717 64433.7486459,-3993504.60755 64463.7313607,-3993505.83233 64494.1080523,-3993501.05178 64503.5177012,-3993499.99895 64523.1699688,-3993499.33975 64549.6308875,-3993495.7869 64560.121894,-3993496.1659 64571.6649988,-3993497.47993 64588.2059405,-3993507.47268 64594.5920692,-3993518.56217 64599.5313785,-3993526.24732 64604.559957,-3993552.37202 64606.1681107,-3993562.74596 64608.7413081,-3993581.03917 64614.0333052,-3993611.63492 64620.5522691,-3993637.67181 64630.5479799,-3993655.02924 64632.082607,-3993659.92391 64634.6400691,-3993665.25683 64650.6692288,-3993670.79312 64652.6856307,-3993671.17284 64678.6504589,-3993676.12378 64706.7337348,-3993678.95589 64728.0226255,-3993680.69274 64734.5686074,-3993681.80262 64756.5156177,-3993690.47981 64772.005202,-3993708.01203 64778.0274081,-3993734.07812 64777.5313868,-3993742.58196 64777.0218787,-3993763.54927 64773.5016459,-3993775.72084 64768.5646199,-3993793.45945 64764.5476092,-3993805.66028 64754.2330099,-3993816.73662 64753.1081241,-3993818.79692 64743.5386996,-3993829.82935 64739.126188,-3993831.08633 64699.5456653,-3993848.87196 64689.5664824,-3993852.94944 64680.5951113,-3993852.97949 64651.5040004,-3993854.1949 64637.1265383,-3993855.54046 64624.5463535,-3993857.77715 64600.1018847,-3993861.70985 64579.6031905,-3993873.38622 64575.1764236,-3993878.63211 64568.0030983,-3993888.02789 64558.7128827,-3993916.49173 64557.5152166,-3993921.54738 64554.623101,-3993931.68795 64556.5967839,-3993944.03439 64561.0852398,-3993973.68048 64562.5906232,-3993978.07836 64569.6500293,-3994000.59385 64574.707272,-3994018.74071 64590.225459,-3994028.29509 64616.0305599,-3994043.22549 64643.0333084,-3994053.10022 64648.7028178,-3994056.25574 64659.5885554,-3994059.10393 64704.6645392,-3994058.44215 64733.6678166,-3994055.7363 64762.700351,-3994053.52724 64791.5722903,-3994052.82316 64818.7054784,-3994052.22153 64845.1812909,-3994053.15415 64871.0289985,-3994056.1178 64884.1502183,-3994058.83426 64895.6932809,-3994060.14818 64920.6644848,-3994065.15749 64945.1974378,-3994071.18963 64970.0665825,-3994078.69748 64994.6873283,-3994086.21995 65020.6378281,-3994095.15958 65047.6111505,-3994104.53745 65063.6695213,-3994110.57037 65074.5844635,-3994113.91531 65078.6757877,-3994115.66827 65100.0531975,-3994127.36985 65126.1500136,-3994138.79335 65150.157664,-3994152.83246 65172.1781901,-3994166.98864 65182.4800753,-3994176.85024 65192.1680984,-3994184.75398 65210.2001588,-3994203.13318 65224.0681374,-3994222.75473 65241.5331497,-3994269.58204 65241.1534556,-3994271.59843 65244.5606516,-3994299.81239 65243.0000681,-3994328.31907 65244.0262666,-3994362.65538" style="stroke-linejoin:round;stroke:#000;stroke-width:1px;fill:none" /></g></g></svg>