<svg xmlns="http://www.w3.org/2000/svg" baseProfile="full" height="46475.3259303" version="1.1" viewBox="50058.966413,3890880.430647,28145.816567,46475.325930" width="28145.8165673"><defs><style type="text/css">polyline,line,rect,path,polygon,.polygon{fill:none;stroke:#000;stroke-width:1px;stroke-linejoin:round;}</style></defs><g fill_rule="evenodd" transform="scale(1,-1)"><g class="id" id="06763"><polygon class="_06763" id="None" points="69502.5031472,-3890984.38038 70138.3082036,-3891380.83987 70666.9791957,-3891525.05436 71129.8420034,-3891955.74344 71677.8833668,-3892467.13237 72503.9691072,-3893034.99138 73155.2615177,-3893468.58088 73596.1134229,-3893690.31335 74197.4859574,-3894076.41083 74507.8896345,-3894401.66503 74910.8224009,-3894929.4621 75334.6647189,-3895876.7136 75852.4711231,-3896791.50643 76262.2874318,-3897628.18617 76522.4055507,-3898458.09214 76704.6323121,-3899000.96056 76822.4157959,-3899510.51741 76995.2750326,-3900024.40533 77173.8791264,-3900341.5024 77437.2292049,-3900626.58873 77659.5172149,-3900732.10123 77631.6672781,-3900764.86346 77444.6888272,-3900988.82848 77443.0430062,-3900990.90274 77390.1797495,-3901042.82454 77377.2943005,-3901122.24899 77314.0050639,-3901563.70675 77496.5694814,-3901626.2407 77457.2647134,-3901866.54052 77280.7425874,-3902007.21108 77019.4962408,-3902397.85225 77151.6488064,-3902749.60082 77081.8839482,-3902942.49069 77080.3340299,-3902946.55545 77022.5213935,-3903133.88244 77007.8621127,-3903259.27956 76925.8783949,-3903400.38857 77025.0649987,-3903497.35917 77031.3479051,-3903503.54048 77164.8479366,-3903624.29495 77159.5060224,-3903756.72464 77098.6660312,-3903886.34141 76990.9839673,-3904068.59021 76894.7090361,-3904202.90725 77029.2375238,-3904401.91735 76951.3450606,-3904798.69736 76843.7969701,-3904962.98594 76676.0292023,-3905093.76685 76580.7418642,-3905233.02599 76387.4789371,-3905264.28513 76291.2173745,-3905336.75673 76272.1969718,-3905454.38564 76364.5974245,-3905550.18539 76218.811457,-3905645.49383 76175.072596,-3905757.33151 76169.9885953,-3905776.03108 76165.3302636,-3905793.21383 76151.4781336,-3905831.78809 76149.4547178,-3905836.37456 76056.3804207,-3905990.49217 75887.2680428,-3906274.46504 75596.4120936,-3906454.07872 75491.4878494,-3906765.8841 75336.2421583,-3906933.9748 75271.4685483,-3907137.10765 75270.8180866,-3907139.13412 75268.2523219,-3907406.60294 75268.3962881,-3907409.58867 75268.3652398,-3907595.1357 75294.5608166,-3907848.74823 75422.422819,-3907857.54554 75521.6008084,-3907907.62821 75543.5026299,-3908015.30533 75500.0915433,-3908154.5626 75539.7919848,-3908284.8238 75546.7074459,-3908510.93502 75648.1074409,-3908782.86513 75651.0275973,-3908791.70225 75688.3240686,-3908903.1254 75681.0050351,-3909061.59059 75646.4068229,-3909212.89265 75652.3692319,-3909331.31388 75642.6503623,-3909553.7385 75439.4030123,-3909988.00508 75289.791114,-3909910.9305 75175.8400044,-3909885.50444 75018.3871487,-3910038.74589 74886.1715663,-3910229.1764 74868.1242955,-3910449.51164 75010.1299947,-3910580.82121 75029.3171092,-3910735.51514 74975.3049036,-3910835.88321 74897.5671591,-3910873.55234 74809.4253912,-3910928.18355 74835.024518,-3911029.69736 74999.88995,-3911092.06822 74989.3703402,-3911204.80199 75028.3267453,-3911293.69996 74944.8802136,-3911352.59401 74864.5305909,-3911491.14402 74873.0585437,-3911595.47686 75020.4818371,-3911745.97542 75052.7348781,-3911928.46904 75223.5072458,-3912071.85394 75406.8364734,-3912175.72705 75505.8259062,-3912294.14621 75500.3185333,-3912386.68636 75447.6831296,-3912469.03265 75545.1515079,-3912633.41256 75672.3962203,-3912639.73763 75821.1490222,-3912580.18296 76237.0714946,-3912522.19221 76447.8188204,-3912594.81225 76579.8958719,-3912742.55526 76558.6578364,-3912839.84402 76450.2034276,-3912917.9024 76611.4988601,-3913118.10127 76499.3933928,-3913280.6291 76596.8183367,-3913397.62435 76621.415325,-3913519.63325 76789.7139438,-3913493.04977 76789.1019436,-3913516.52161 76786.4748383,-3913833.86746 76914.1646566,-3913870.09497 77082.9597978,-3913946.73217 77296.2136924,-3913978.32717 77540.1155839,-3913937.1177 77725.7427008,-3913975.03465 77745.3835608,-3914159.62674 77992.7106342,-3914122.24142 78016.3520787,-3914368.98509 77932.1897581,-3914872.31493 77824.3034127,-3915163.32083 77745.0563348,-3915288.3506 77645.4667566,-3915498.15666 77583.1582487,-3915700.17629 77550.6635316,-3915806.98687 77511.8194945,-3915932.06011 77484.0050308,-3916022.18533 77485.1697411,-3916159.78925 77486.5496912,-3916332.79539 77402.6971247,-3916460.5436 77322.6757421,-3916528.25447 77348.9072984,-3916642.70107 77442.2615852,-3916711.50718 77485.3759286,-3916922.39739 77404.0504927,-3917102.39505 77256.4336946,-3917216.26921 77133.5916746,-3917362.8624 77115.7191918,-3917565.72936 76919.8950803,-3917796.65399 76761.6970448,-3918021.77002 76856.1208139,-3918092.01976 76928.9781066,-3918190.74491 76853.9245808,-3918309.59167 76723.107134,-3918404.70068 76530.0498828,-3918404.06255 76400.3735032,-3918409.33691 76286.9402851,-3918477.17051 76259.3527411,-3918582.2508 76143.8448107,-3918885.60913 75990.6958,-3919173.83088 75870.0639574,-3919170.18968 75730.9474816,-3919196.87083 75625.6517333,-3919324.66533 75547.2915234,-3919473.10357 75481.7163335,-3919793.00431 75375.1930695,-3920003.65794 75261.3261369,-3920078.00007 75094.2937361,-3920043.18658 75008.2210748,-3920145.6126 74957.6965416,-3920297.19516 74841.2848156,-3920344.72662 74625.7335966,-3920497.81143 74565.5546398,-3920743.63506 74378.1748183,-3920829.5175 74256.5225837,-3920995.51782 74214.9325673,-3921161.63397 74197.15538,-3921232.3256 74186.5370357,-3921260.27324 74178.67434,-3921448.20055 74177.3185912,-3921487.17215 74113.5470979,-3921756.61563 73928.3604192,-3921934.17349 73944.4341811,-3922137.40314 74046.3325436,-3922300.06534 73907.1221447,-3922494.85183 73809.3018119,-3922632.76715 73712.0363357,-3922797.59111 73735.8570948,-3922980.49433 73778.618388,-3923111.60281 73882.4993003,-3923217.30534 73925.5586225,-3923364.85936 73837.5431194,-3923391.06907 73706.1592556,-3923371.49445 73586.3153331,-3923497.50927 73583.2494273,-3923501.14935 73441.4678035,-3923591.31581 73424.2838368,-3923602.1241 73407.8222167,-3923612.3986 73370.6173874,-3923729.9225 73299.0781932,-3924055.11488 73217.9742662,-3924260.06103 73209.732257,-3924280.41241 73113.011001,-3924513.05108 73112.1121598,-3924515.08984 73056.4350476,-3924688.87699 72854.3248252,-3924743.56109 72851.0475883,-3924835.50014 72846.8812809,-3924955.41543 72800.2625602,-3925063.91986 72734.4946056,-3925199.29025 72684.9282354,-3925509.45606 72684.5511676,-3925511.96837 72708.5639816,-3925703.84326 72597.8847172,-3925890.27418 72461.3296044,-3926093.42284 72288.6935468,-3926169.62786 72156.3347939,-3926150.60333 72031.6198042,-3926062.87097 71842.9362917,-3926121.89668 71657.0296519,-3926284.54154 71639.8544642,-3926305.82538 71592.1894819,-3926366.99576 71589.1959781,-3926372.129 71508.4349273,-3926501.74494 71344.6430773,-3926683.2722 71226.7211831,-3926838.63349 71120.9063152,-3927115.12022 71110.7631075,-3927142.54817 71047.5342662,-3927458.87212 71046.5314097,-3927463.90894 70991.700508,-3927706.49979 70924.12576,-3927886.85756 70960.4955715,-3928055.69081 70934.5811171,-3928246.49942 70873.4322745,-3928307.32795 70872.03585,-3928309.39096 70771.7746953,-3928386.58213 70637.0664242,-3928571.19454 70418.7926146,-3928832.68887 70253.4635802,-3929095.6074 70141.2969758,-3929364.42852 70029.1069552,-3929632.75284 69874.5478194,-3929865.72128 69620.5823456,-3929951.86871 69332.3085541,-3929968.3479 69328.054285,-3929968.05546 69017.549629,-3929958.17718 69015.0613092,-3929958.2979 68706.0725239,-3929948.84468 68396.2374993,-3929921.97291 68324.2555926,-3929888.05188 68237.4791062,-3929847.36586 68088.1430859,-3929895.01632 67867.3098043,-3930067.85298 67738.901478,-3930130.45175 67539.9686818,-3930266.31045 67345.977692,-3930257.26461 67284.2536944,-3930352.54578 67214.982794,-3930436.22094 67100.2999495,-3930437.29536 67091.8709739,-3930433.21467 66989.9525561,-3930383.78491 66813.7262906,-3930391.337 66642.9706868,-3930434.54093 66416.9345829,-3930623.59774 66191.1953258,-3930813.63894 65965.4074858,-3931002.68587 65746.4337888,-3931244.781 65721.8099721,-3931271.91649 65589.444886,-3931417.52125 65529.7926689,-3931576.06011 65234.5908856,-3931809.88522 64990.4957728,-3932079.14517 64746.8983784,-3932348.3827 64503.2526936,-3932616.62656 64259.6553517,-3932885.86753 64150.5908965,-3933162.04825 64041.2783642,-3933438.2419 63862.1420803,-3933560.68221 63682.3314737,-3933684.65242 63574.4677503,-3933836.5587 63396.9687937,-3934100.60166 63044.8198154,-3934795.17831 62847.1630094,-3935219.34731 62642.3807355,-3935650.84922 62581.3780781,-3935976.5894 62378.8093511,-3936181.4945 62310.5753961,-3936307.03638 62289.2698144,-3936345.98679 62265.7487349,-3936385.54376 62268.8122722,-3936489.66179 62270.0919221,-3936623.79959 62274.8500314,-3936690.91783 62278.070508,-3936736.65874 62286.9097648,-3936856.95933 62289.255855,-3936905.23715 62290.1335638,-3936918.16551 62320.8867752,-3936991.50373 62353.7620584,-3937077.70978 62350.0422954,-3937139.75225 62350.0139925,-3937195.62872 62349.2739976,-3937226.59554 62348.5791005,-3937243.09251 61833.8971952,-3936805.13816 61258.0248057,-3936314.27517 61110.327506,-3936180.26493 61091.0172581,-3936162.74412 61030.9747386,-3936107.78977 60338.0851881,-3935431.5234 57655.0172942,-3932971.49759 57274.88192,-3932622.74891 57269.1168788,-3932617.04175 57027.693039,-3932386.78551 57013.2804409,-3932372.51753 56528.10593,-3931920.59507 56299.035144,-3932140.25884 56297.2205664,-3932138.85014 53606.2460739,-3929680.45966 53221.708525,-3929328.39725 52887.8533844,-3929676.87837 50291.8906415,-3927320.96293 50292.0671662,-3927319.45751 50306.9852483,-3927215.45129 50263.6966709,-3927140.71018 50229.5633854,-3927100.45209 50207.2014843,-3927076.588 50193.0289152,-3927051.82812 50185.9053892,-3927023.23398 50164.0972159,-3926995.3514 50145.2362584,-3926976.80611 50118.4107366,-3926958.64674 50112.1786384,-3926933.0031 50116.9691499,-3926892.85465 50118.5800134,-3926848.86865 50134.7801078,-3926817.64751 50143.4739116,-3926796.27021 50159.6663174,-3926770.039 50169.1617451,-3926729.16368 50188.6041872,-3926677.32841 50192.7697212,-3926655.17263 50199.8958885,-3926601.43936 50192.0760254,-3926476.08201 50213.8001096,-3926445.59127 50232.8819094,-3926401.75683 50236.9801052,-3926326.71535 50242.4984692,-3926234.6407 50252.3895467,-3926227.67513 50344.1470213,-3926164.85248 50362.4745173,-3926126.04425 50401.749417,-3926092.20869 50432.0409744,-3926073.77689 50470.5864253,-3926060.93267 50508.7064193,-3926049.60592 50556.6993469,-3925994.89115 50568.8545365,-3925988.31491 50573.9916843,-3925965.61328 50595.7322003,-3925940.6105 50640.5076136,-3925922.47507 50688.9931023,-3925919.12842 50733.7856751,-3925921.94806 50775.3822672,-3925915.44248 50836.0305796,-3925900.52977 50852.1119936,-3925897.75495 50915.9553475,-3925876.70011 50992.8778474,-3925862.99488 51044.5720494,-3925812.59177 51055.7859398,-3925771.13488 51056.3474685,-3925762.12663 51061.2435128,-3925734.44736 51071.5342193,-3925694.53206 51085.8235193,-3925659.91149 51107.4667259,-3925617.45053 51143.7469866,-3925588.75004 51176.7916796,-3925560.2063 51264.8136192,-3925466.6314 51288.5002133,-3925342.7435 51292.3518683,-3925298.64975 51302.8668036,-3925242.75753 51317.3725107,-3925197.14989 51330.986921,-3925148.59177 51355.2879631,-3925109.49499 51377.4865622,-3925093.95046 51415.6055176,-3925067.15704 51499.1022472,-3925034.67332 51534.6579164,-3924960.10553 51534.6976466,-3924950.62367 51548.9396186,-3924930.47513 51574.5822218,-3924908.77657 51595.7051037,-3924896.77683 51620.0472303,-3924879.13282 51635.2847536,-3924858.9361 51654.0940137,-3924814.61716 51659.2398668,-3924802.39332 51680.9543898,-3924730.49187 51723.1259511,-3924658.59768 51739.2306968,-3924640.85374 51741.3742601,-3924638.75417 51770.4928507,-3924606.40965 51801.241563,-3924581.96928 51838.4293923,-3924561.70758 51884.8820693,-3924537.00571 51940.9370493,-3924514.83252 51985.2943261,-3924493.22582 52024.9468446,-3924472.34591 52066.7188013,-3924448.86869 52095.8216501,-3924426.50393 52121.1906297,-3924388.85286 52140.4103432,-3924368.46353 52161.5090354,-3924355.96625 52195.6624629,-3924350.32091 52234.4567001,-3924352.9328 52303.2051929,-3924345.61223 52340.7224351,-3924337.30932 52377.7497364,-3924324.04075 52428.5301685,-3924316.59241 52494.3804394,-3924316.39734 52553.0045893,-3924306.0745 52556.986745,-3924305.88167 52645.0436815,-3924300.61978 52660.5311319,-3924311.34536 52680.931803,-3924315.34684 52726.6794327,-3924343.06771 52874.5972289,-3924347.87937 53008.6411787,-3924344.38199 53057.6633286,-3924346.99747 53182.9865097,-3924302.51095 53244.2749717,-3924275.09545 53289.097357,-3924257.95703 53308.1805812,-3924245.05859 53374.8306019,-3924178.96582 53385.3632674,-3924159.49641 53393.029865,-3924142.66045 53394.2339246,-3924136.61497 53398.9055517,-3924109.44648 53399.4834801,-3924105.92598 53400.9034074,-3924073.4267 53420.5079746,-3924045.53515 53440.8754315,-3924023.09492 53472.5709427,-3923997.61154 53510.5770321,-3923978.80764 53541.3493051,-3923954.86579 53567.4813629,-3923938.13365 53573.5346896,-3923934.34804 53635.4549989,-3923837.55115 53674.1742828,-3923776.80278 53721.1150036,-3923726.13393 53767.4541355,-3923693.95462 53802.6742523,-3923674.28796 53825.2496446,-3923656.23138 53849.1575052,-3923629.62853 53854.8164656,-3923591.93496 53851.9087907,-3923542.18295 53847.1538664,-3923464.58041 53846.6386859,-3923412.71686 53849.2464005,-3923353.21821 53864.4905884,-3923281.63249 53875.119413,-3923248.68764 53883.9661672,-3923225.3087 53888.7344534,-3923200.1315 53888.4129248,-3923183.18353 53837.7115106,-3923094.33424 53843.9572842,-3923079.06406 53836.4502635,-3923057.97358 53837.7184329,-3923042.94436 53841.394876,-3923015.8243 53857.0258374,-3922998.60303 53879.7782675,-3922994.50807 53983.816896,-3922922.61564 53988.5453132,-3922906.92002 53994.2768879,-3922870.71987 53995.6652697,-3922842.71279 53985.7250859,-3922786.81526 53960.6114639,-3922742.12964 53950.5993294,-3922700.20551 53928.825766,-3922667.83135 53913.6917516,-3922638.62828 53913.9321903,-3922612.67245 53916.1154942,-3922585.62473 53927.8446755,-3922565.09994 53946.9759425,-3922537.73084 53982.3728342,-3922516.55944 54097.8603992,-3922459.58031 54160.5129079,-3922388.19512 54204.138296,-3922325.71375 54214.5504578,-3922272.82272 54221.7677789,-3922257.00675 54220.5232065,-3922241.60033 54238.6510127,-3922219.26922 54247.4177726,-3922199.38687 54291.1072382,-3922112.45531 54291.7173164,-3922104.443 54146.2665012,-3922006.20918 54141.3289752,-3921996.96856 54129.7118913,-3921994.0383 54112.9645679,-3921977.88534 54106.8627855,-3921949.7419 54083.1225292,-3921902.49506 54055.66519,-3921860.91625 54030.383609,-3921828.21277 54009.1082871,-3921811.28103 53983.3771295,-3921779.59713 53976.6251224,-3921753.48081 53957.8221081,-3921622.67431 53926.2624097,-3921594.26593 53924.6727823,-3921592.34715 53889.8937087,-3921569.58272 53855.9254489,-3921522.33164 53828.3237333,-3921477.76602 53822.6395857,-3921437.62801 53824.5423013,-3921399.61753 53831.2620755,-3921368.35894 53813.993035,-3921289.86523 53717.73262,-3921182.26429 53703.2253206,-3921166.00269 53648.784792,-3921113.25581 53605.4396773,-3921032.03209 53601.3533443,-3921004.28985 53598.1581603,-3920979.49806 53606.467742,-3920950.15823 53612.095864,-3920916.95672 53626.5716952,-3920829.443 53618.6397597,-3920809.86965 53618.9370421,-3920779.91963 53619.5074276,-3920734.98858 53619.8208844,-3920695.05923 53579.5991826,-3920621.66702 53521.0886224,-3920562.13162 53465.4122654,-3920488.98796 53409.4708786,-3920425.83559 53385.8438903,-3920370.5996 53366.3675955,-3920318.65531 53367.9016051,-3920278.16789 53381.6146427,-3920247.06992 53402.2320167,-3920224.61869 53450.4671557,-3920205.82084 53496.9281553,-3920176.13242 53565.6521015,-3920137.38432 53633.5008632,-3920101.17324 53643.5686361,-3920092.70343 53675.040964,-3920036.79812 53681.1845908,-3919931.72641 53659.7689045,-3919726.20671 53647.0607019,-3919690.39973 53629.2141694,-3919661.82622 53625.7138992,-3919656.50731 53625.3687215,-3919654.5283 53598.9805808,-3919598.92692 53575.5461016,-3919578.60645 53557.0577612,-3919531.60364 53556.3681585,-3919496.71211 53561.033213,-3919474.53372 53573.7909906,-3919449.46931 53599.0809696,-3919430.78381 53614.1668191,-3919412.5918 53629.2041301,-3919408.87101 53685.0909374,-3919367.75094 53704.8014761,-3919336.86217 53716.7322511,-3919315.3303 53725.2350053,-3919289.97283 53731.7630491,-3919254.73234 53728.7459539,-3919197.5018 53729.2046169,-3919160.55914 53727.9697232,-3919109.22953 53716.3454471,-3919080.35504 53679.3372086,-3918990.84126 53634.9328908,-3918965.04863 53632.5966824,-3918963.1659 53581.7132527,-3918942.6758 53548.9100433,-3918914.32643 53530.7826449,-3918890.25666 53521.9923982,-3918863.24074 53513.3870272,-3918829.72984 53519.1445864,-3918794.02765 53532.04804,-3918741.01644 53560.5987782,-3918691.739 53569.0142253,-3918643.9341 53569.5699779,-3918593.51569 53578.9804453,-3918561.12941 53595.5521329,-3918532.38831 53608.5755041,-3918497.33274 53608.5837176,-3918492.34308 53557.0940711,-3918371.59785 53549.228552,-3918312.107 53552.4101158,-3918254.07776 53556.7550701,-3918214.95147 53576.1532404,-3918177.59205 53599.235868,-3918154.52338 53616.8589395,-3918137.20684 53636.5933803,-3918122.28286 53637.4003318,-3918025.45233 53634.4253776,-3917943.27347 53641.7213799,-3917805.2174 53643.0724363,-3917755.7585 53633.2652018,-3917681.89274 53644.748273,-3917630.4473 53680.1389786,-3917598.80107 53745.0667837,-3917553.75291 53807.8260495,-3917525.77306 53836.039032,-3917500.46097 53858.0307789,-3917459.98299 53886.8708852,-3917416.67939 53898.7473197,-3917368.20869 53864.7277239,-3917278.55007 53829.1004632,-3917227.88512 53827.2139485,-3917224.98276 53821.3295832,-3917216.78547 53822.8071013,-3917211.2259 53821.5469356,-3917205.79865 53820.1274869,-3917176.43076 53825.9894566,-3917153.19695 53843.5886251,-3917135.38293 53906.5495518,-3917090.92925 53961.9959362,-3917045.84099 54019.2723841,-3917007.64925 54049.6291325,-3916980.23812 54077.9633481,-3916941.94849 54093.3641502,-3916899.29474 54009.4822353,-3916789.59448 53994.7437118,-3916763.36497 53983.9789486,-3916741.93263 53986.662029,-3916714.86116 53995.5837699,-3916677.50976 53994.0692363,-3916630.68427 53978.4416914,-3916570.57098 53968.2635765,-3916540.62858 53966.3235276,-3916495.32041 53967.5458099,-3916463.82925 53974.780986,-3916438.03458 53992.5736823,-3916408.73622 54014.3077144,-3916388.72692 54037.4461688,-3916377.13144 54069.8275515,-3916329.6659 54071.5466541,-3916313.61734 54069.2522859,-3916286.78645 54064.2212635,-3916244.62124 54062.0806106,-3916200.32067 54041.2300566,-3916094.06006 54039.4858458,-3916006.33416 54043.0738649,-3915899.89054 54075.2255987,-3915811.52479 54107.0720493,-3915727.16523 54138.756367,-3915665.26502 54156.8642043,-3915611.50459 54180.3031279,-3915554.4931 54215.6859682,-3915527.83767 54265.8164007,-3915506.95572 54328.0300301,-3915478.00625 54335.729627,-3915472.14615 54371.2590467,-3915417.54426 54380.4386343,-3915375.1916 54369.5648861,-3915212.07152 54365.254776,-3915097.02948 54379.3977424,-3915033.48253 54420.6626061,-3914942.68171 54463.9257335,-3914862.26176 54518.3052656,-3914815.73026 54551.0746422,-3914745.29679 54566.552596,-3914657.73756 54582.490119,-3914548.70275 54586.4081628,-3914454.21819 54560.6278699,-3914380.12686 54533.9991595,-3914278.13711 54511.7513947,-3914204.87291 54504.0107468,-3914132.40482 54500.7371716,-3914111.10948 54495.4980526,-3914074.94153 54510.9286895,-3913986.3869 54536.0146513,-3913927.30106 54572.9972383,-3913882.10934 54601.5264924,-3913832.33672 54626.6095474,-3913804.18396 54662.1855396,-3913693.70228 54662.7839903,-3913649.26986 54664.5136688,-3913612.76547 54676.8319141,-3913583.73244 54703.5129607,-3913552.50913 54753.4729656,-3913471.26808 54798.5671097,-3913397.74581 54849.3823035,-3913354.8801 55047.1025148,-3913192.66574 55110.47469,-3913141.2114 55252.7796314,-3913019.59087 55355.4842863,-3912945.78247 55503.9421952,-3912791.43645 55559.3176368,-3912744.85898 55624.7767741,-3912695.30022 55685.2875718,-3912600.08081 55748.0537397,-3912510.24068 55790.2491756,-3912443.84457 55835.5616294,-3912359.3374 55877.9802082,-3912307.89791 55917.4499778,-3912278.05382 55969.0578813,-3912251.6151 56007.5561567,-3912222.31687 56058.6336357,-3912200.39397 56122.5980575,-3912094.03288 56231.2210317,-3911936.12479 56233.2686867,-3911932.03472 56323.6817355,-3911727.6101 56362.9987019,-3911699.76947 56399.6501333,-3911673.55423 56492.1795259,-3911626.68162 56550.5500028,-3911574.97199 56580.4309326,-3911506.67692 56593.2579444,-3911457.16543 56617.299565,-3911412.60066 56641.4680126,-3911381.00125 56689.7750162,-3911363.70288 56728.326021,-3911361.34349 56762.7336259,-3911366.16869 56873.0912559,-3911270.04291 56880.1009834,-3911260.22552 56915.4992833,-3911239.06012 56968.1330182,-3911223.54869 57003.7147792,-3911211.35467 57013.7109433,-3911201.39318 57067.133904,-3911104.02424 57069.5218662,-3911075.97066 57087.2917371,-3911046.177 57114.5820459,-3911022.40963 57142.0711596,-3911013.10073 57277.6978369,-3910939.20474 57281.3588213,-3910937.53139 57288.4733095,-3910924.71564 57316.5255191,-3910906.39947 57358.689161,-3910901.37149 57436.4103668,-3910883.65198 57472.5724871,-3910852.47211 57492.0036783,-3910826.09076 57501.4188352,-3910778.24131 57511.1615627,-3910742.34958 57533.4264015,-3910717.82713 57568.5189316,-3910700.66807 57621.0868767,-3910694.14039 57725.1530562,-3910695.1057 57766.7139816,-3910693.1003 57803.362965,-3910682.35181 57875.4861646,-3910621.00005 57943.5641256,-3910553.35798 58004.951164,-3910512.48017 58074.3826684,-3910467.72204 58102.6027938,-3910452.89035 58156.6635878,-3910446.29082 58190.0684364,-3910440.68793 58210.8072344,-3910420.72943 58226.0490955,-3910385.07164 58248.4927955,-3910343.57858 58259.3424275,-3910315.11721 58271.6044983,-3910290.07995 58304.1513609,-3910277.03516 58418.5378786,-3910181.71616 58423.7007474,-3910174.9815 58441.32436,-3910157.66787 58463.3948056,-3910144.62972 58516.180515,-3910070.243 58580.6607066,-3910010.75775 58587.2119784,-3910006.94947 58612.0854295,-3909984.79616 58724.7493173,-3909920.99099 58795.8635254,-3909895.6092 58846.8634194,-3909846.25347 58886.2714916,-3909794.46369 58921.6387143,-3909762.32546 58926.0507558,-3909729.685 58939.692521,-3909712.56367 58961.3131838,-3909700.54519 58988.9218245,-3909693.72561 59092.0912312,-3909665.8 59228.8878918,-3909590.35493 59255.990363,-3909531.67587 59297.9045953,-3909469.78795 59360.5769425,-3909419.37089 59428.4683985,-3909415.09827 59519.3903891,-3909417.69686 59683.5027199,-3909303.51892 59741.6713345,-3909252.82058 59778.5075276,-3909220.1132 59782.3212576,-3909216.43708 59804.1513878,-3909198.42219 59863.611618,-3909205.53179 59871.4943598,-3909208.64373 59959.9758879,-3909155.48572 59962.4732875,-3909150.37647 60000.898603,-3909119.5881 60026.5160277,-3909112.86483 60069.7656972,-3909083.83932 60160.7941139,-3909067.97459 60193.2971251,-3909023.00452 60228.5920176,-3908989.37402 60276.2946785,-3908975.10019 60314.8767266,-3908968.25056 60377.374106,-3908903.87442 60465.1831025,-3908836.78098 60554.2922327,-3908822.50578 60639.0716746,-3908723.6307 60697.9081129,-3908660.92821 60789.1717021,-3908525.82189 60806.0041981,-3908435.21289 60850.6406717,-3908367.70793 60900.3288692,-3908285.991 60958.7259503,-3908162.44781 61047.0872286,-3908008.52541 61088.9437091,-3907909.2272 61110.8749782,-3907862.27357 61125.7876484,-3907830.12564 61153.2667812,-3907825.80745 61177.9516076,-3907825.61497 61200.8046845,-3907833.99161 61234.1488585,-3907847.84884 61262.6536276,-3907854.45635 61329.9549839,-3907817.28812 61358.4640055,-3907751.55933 61369.0047785,-3907701.16415 61378.565269,-3907656.30381 61395.3986255,-3907565.69573 61412.5661657,-3907538.92683 61431.8027548,-3907524.03104 61453.8878431,-3907516.48096 61489.9897368,-3907504.76301 61527.8069189,-3907507.92842 61538.8285575,-3907508.89364 61595.9453608,-3907503.64553 61666.8834238,-3907464.30696 61673.8834691,-3907418.07367 61673.696924,-3907383.16195 61640.8547402,-3907255.53863 61675.9392368,-3907186.50015 61728.76447,-3907118.10309 61787.4093594,-3907051.42104 61823.4832478,-3906971.85891 61846.3109829,-3906896.92631 61858.2493937,-3906844.46877 61802.5765638,-3906724.43137 61814.7213311,-3906598.63059 61782.4894988,-3906519.86675 61775.2305032,-3906488.28919 61771.3866923,-3906480.99147 61762.3406497,-3906433.03746 61765.3295777,-3906376.02265 61777.4782046,-3906317.56864 61796.1839227,-3906224.37688 61771.0163604,-3906147.26789 61764.5490924,-3906132.11473 61754.2680558,-3906120.63744 61738.4761899,-3906087.97449 61728.8757178,-3906044.03809 61742.0110293,-3905990.52523 61751.9892118,-3905949.13734 61772.1344805,-3905927.21411 61780.8414209,-3905900.85348 61787.4765732,-3905878.08476 61778.1520285,-3905860.57496 61770.3206168,-3905842.99319 61760.0906208,-3905817.0463 61745.3662619,-3905785.82845 61740.2093235,-3905761.63253 61741.8914034,-3905739.60137 61750.1786184,-3905725.23376 61756.6428858,-3905714.44607 61762.1597027,-3905704.70176 61779.8614035,-3905699.35893 61804.1592114,-3905706.66875 61836.4503149,-3905724.56841 61856.4995599,-3905742.06025 61875.3854923,-3905756.1161 61910.2790765,-3905765.90846 61945.6793617,-3905770.68775 62010.0697975,-3905719.69378 62040.9700222,-3905625.91486 62098.50653,-3905567.26953 62175.2171427,-3905445.84133 62181.4359526,-3905378.19517 62164.9941879,-3905306.15341 62133.9688014,-3905262.75067 62112.7985172,-3905232.34234 62109.9864275,-3905205.04035 62114.2531179,-3905184.88024 62122.6154902,-3905156.54098 62147.336169,-3905136.39308 62167.2385857,-3905124.95801 62185.404907,-3905124.08272 62274.7858644,-3905068.89221 62265.7375747,-3905036.40326 62247.2690903,-3904984.41369 62251.5779257,-3904954.77321 62254.1026979,-3904934.69708 62275.8280873,-3904919.68221 62316.3762637,-3904912.24114 62345.0364874,-3904901.38194 62366.7799832,-3904876.389 62391.8732159,-3904801.84742 62414.3522611,-3904714.46145 62429.8628224,-3904668.81671 62454.2783386,-3904611.26919 62506.3496027,-3904547.89966 62550.2963517,-3904450.50026 62590.6418538,-3904376.72086 62634.1951836,-3904317.7528 62657.7204836,-3904257.25529 62677.5154593,-3904222.87818 62579.163621,-3904148.796 62577.7515392,-3904145.372 62572.3007589,-3904146.13342 62553.4666103,-3904117.60792 62547.8787176,-3904084.45347 62550.714024,-3904003.50159 62554.8554039,-3903970.37737 62569.4840289,-3903958.19897 62630.5646023,-3903812.58315 62659.0764777,-3903746.85705 62693.7138159,-3903678.84055 62709.6232869,-3903646.6462 62731.2141044,-3903623.65654 62759.5147789,-3903605.33232 62797.6165496,-3903588.5315 62801.7271773,-3903585.83924 62870.598897,-3903493.22672 62880.1742634,-3903427.91409 62898.6237585,-3903381.13068 62908.2802859,-3903312.32219 62940.6803217,-3903270.35443 62956.0865747,-3903227.70852 62980.5565362,-3903181.633 62945.4327431,-3903094.52793 62905.1555297,-3903076.51324 62864.8247606,-3903047.02738 62835.8764343,-3902984.56763 62814.7827519,-3902940.18734 62806.7012832,-3902896.67702 62789.1486966,-3902848.13532 62774.0239033,-3902818.93214 62739.9089024,-3902778.67078 62708.7138011,-3902747.24824 62578.9747733,-3902611.81938 62525.5340697,-3902553.53169 62508.2802685,-3902531.91376 62501.5022526,-3902510.29029 62497.7196948,-3902483.53401 62494.1325509,-3902445.29454 62494.6155147,-3902439.78383 62492.7389878,-3902431.89243 62495.6533328,-3902430.25554 62497.3658215,-3902419.19818 62511.0416947,-3902397.58763 62533.6725576,-3902391.01058 62559.6970137,-3902392.75075 62574.1065028,-3902391.55812 62654.3274767,-3902311.86928 62654.9062978,-3902308.34941 62659.6586583,-3902241.27359 62658.5971129,-3902182.95828 62666.9273167,-3902159.11089 62687.7001401,-3902134.66449 62709.2434829,-3902110.67985 62713.5071733,-3902105.98487 62705.2904146,-3901961.2128 62703.0196787,-3901924.40663 62714.1151006,-3901885.46044 62667.7371451,-3901802.88721 62654.5224103,-3901777.08388 62650.8452156,-3901747.32941 62661.5203272,-3901720.37605 62690.3523949,-3901697.53725 62726.9189808,-3901690.28959 62756.1436328,-3901670.42506 62779.9089942,-3901588.96505 62716.3249935,-3901553.11485 62642.1152121,-3901571.15388 62614.5219476,-3901583.45699 62559.7411389,-3901590.58365 62518.8759661,-3901581.07699 62504.2400374,-3901556.83855 62498.4669898,-3901530.17806 62501.6526558,-3901503.08633 62515.3141086,-3901475.98922 62542.8673133,-3901431.76111 62584.5107771,-3901410.80002 62601.2181435,-3901338.16024 62607.8956698,-3901279.97129 62638.1677303,-3901245.5896 62662.3954708,-3901210.00229 62694.7355723,-3901187.49371 62730.3400475,-3901175.80289 62754.6610414,-3901183.61173 62790.5636489,-3901198.84484 62862.3274078,-3901171.44566 62877.4966691,-3901149.76358 62891.464242,-3901118.66109 62931.1207542,-3901082.33135 62962.5079463,-3901050.3905 62981.2276729,-3901019.55819 62986.1740838,-3900982.40481 62974.0455807,-3900948.06864 62967.8416195,-3900912.44962 62957.1823012,-3900877.54387 62918.5505103,-3900831.51293 62867.5999367,-3900773.10453 62832.9457532,-3900742.34662 62798.2249975,-3900720.5713 62780.9145443,-3900702.94666 62777.2617235,-3900673.6899 62787.1041654,-3900639.79284 62801.6415177,-3900610.15956 62828.9713994,-3900592.38209 62851.1752669,-3900561.3822 62896.9149066,-3900532.24286 62955.2980558,-3900501.49741 62997.7733837,-3900461.54041 63037.4862571,-3900395.27707 63046.0231598,-3900380.89833 63092.0823326,-3900327.29992 63138.8360356,-3900288.13492 63142.3772069,-3900283.97369 63200.5748247,-3900166.43688 63242.6045439,-3900112.03489 63244.5235049,-3900110.44599 63342.8403018,-3900028.39309 63501.5382655,-3899858.63037 63525.5832441,-3899788.13312 63554.7668362,-3899684.46449 63609.9164162,-3899560.59039 63681.1549962,-3899428.95857 63743.872007,-3899343.13227 63798.8653192,-3899262.66618 63873.7099866,-3899211.17619 63979.5351597,-3899119.28582 64046.3535343,-3899035.75708 64057.8710239,-3898984.81943 64065.3213116,-3898953.03365 64137.7347678,-3898897.67031 64274.6942299,-3898789.31774 64345.4708851,-3898731.04035 64424.8519417,-3898675.34228 64428.3452613,-3898670.18581 64480.5585764,-3898599.33269 64512.419888,-3898566.87187 64554.828502,-3898535.89917 64595.4283578,-3898513.99269 64650.1635752,-3898438.52895 64729.5151548,-3898345.91843 64767.5352903,-3898306.67667 64805.9095038,-3898264.42486 64815.1836442,-3898254.99967 64857.3384149,-3898213.56379 64939.0736396,-3898149.77193 65001.2511151,-3898125.33153 65044.9471574,-3898110.7591 65078.560213,-3898099.16579 65117.6812739,-3898082.81804 65173.2594932,-3898061.18931 65222.1378884,-3898029.90601 65271.0736383,-3897994.62928 65289.3156505,-3897979.78452 65367.6146491,-3897917.15618 65420.3741373,-3897899.15505 65477.7849162,-3897868.95816 65548.2739357,-3897804.71029 65633.9614144,-3897729.75496 65730.6936742,-3897656.26405 65814.4481542,-3897629.29023 65884.8080659,-3897593.48268 65952.0380539,-3897528.89327 66014.9418494,-3897436.57727 66056.61766,-3897359.24946 66092.8810624,-3897236.7881 66141.6968398,-3897147.1452 66208.682875,-3897041.16502 66235.8304791,-3897014.41936 66264.624262,-3896985.59925 66293.5568249,-3896949.29001 66360.0260789,-3896905.1902 66437.6500832,-3896844.09277 66484.8726823,-3896716.11716 66531.1141816,-3896645.55439 66575.9343143,-3896602.49569 66615.7345246,-3896569.15614 66637.0535316,-3896545.68396 66603.8247452,-3896409.60422 66587.3634788,-3896352.53122 66568.3946194,-3896305.55533 66507.9857459,-3896122.89411 66498.9563355,-3896069.95325 66511.4468369,-3896018.47219 66575.1077714,-3895947.07267 66599.3466743,-3895880.56097 66602.2521204,-3895832.03484 66598.8887573,-3895782.81234 66597.6067842,-3895750.94885 66604.7564279,-3895733.64502 66627.9992668,-3895719.05956 66645.9253985,-3895713.20974 66664.598046,-3895707.32403 66679.5284373,-3895706.60648 66712.5859455,-3895699.03178 66721.7212593,-3895697.09625 66742.6766757,-3895681.6231 66747.4487698,-3895620.03782 66753.8804239,-3895613.74278 66751.5695848,-3895586.41826 66764.2893919,-3895570.8421 66795.4808225,-3895550.38762 66832.2810463,-3895511.70579 66860.9179276,-3895448.47491 66890.7608885,-3895379.20019 66899.4861707,-3895306.45088 66903.5598697,-3895245.89699 66914.5003033,-3895198.48148 66903.1118332,-3895169.09908 66887.0193427,-3895140.44155 66880.8998169,-3895101.32822 66877.7088571,-3895066.06479 66876.2410573,-3895014.75608 66882.9797944,-3894978.51669 66896.8437368,-3894950.41501 66923.1160255,-3894926.20656 66950.1057107,-3894916.92848 66994.2413597,-3894906.32772 67024.0070797,-3894876.96319 67058.8840677,-3894829.39536 67117.3476757,-3894795.16022 67146.0223865,-3894763.85291 67165.4296131,-3894674.6283 67168.5546751,-3894666.99577 67173.0398179,-3894625.37776 67207.2384802,-3894542.92495 67236.6472959,-3894454.21762 67272.5215667,-3894354.72443 67281.9555716,-3894161.72488 67275.830773,-3894023.84469 67319.6488594,-3893933.94667 67389.2255595,-3893866.25615 67398.356479,-3893853.84577 67490.0221181,-3893789.08494 67609.0445518,-3893743.46191 67726.7791671,-3893707.37849 67793.5326598,-3893632.84064 67806.5265737,-3893591.812 67822.9999021,-3893540.14102 67880.1009732,-3893477.5399 67932.1634262,-3893408.69622 67990.7575367,-3893346.02358 68067.053957,-3893252.07286 68136.9707449,-3893175.88737 68221.0753992,-3893109.49582 68297.1216993,-3893041.49615 68354.887789,-3892982.35558 68365.6087082,-3892945.92588 68365.8687528,-3892914.98674 68253.0593715,-3892851.06858 68144.9214976,-3892853.26875 68102.8514414,-3892813.3883 68098.3246034,-3892812.60805 68071.21279,-3892782.98324 68057.2597315,-3892767.69109 68053.4948859,-3892746.42266 67991.7332581,-3892623.68605 67988.1638188,-3892616.87398 68002.9463996,-3892602.696 68008.274715,-3892563.03342 68004.1374261,-3892528.81356 68015.0414542,-3892475.41513 68033.5581335,-3892435.11929 68063.2090614,-3892413.74278 68113.3206076,-3892413.33185 68155.9951151,-3892424.25203 68179.0355093,-3892436.61379 68293.1002122,-3892469.54565 68311.3664488,-3892455.20048 68314.9654575,-3892447.04659 68298.7974198,-3892344.06894 68293.3329247,-3892339.34315 68265.053024,-3892321.74598 68231.8161668,-3892294.41044 68215.7489374,-3892266.25049 68214.9224716,-3892243.84337 68223.0062896,-3892220.01079 68241.8040382,-3892201.1508 68258.362271,-3892182.39834 68262.1005564,-3892166.75551 68229.4660893,-3892074.04587 68230.7119376,-3892048.04754 68217.2345202,-3892006.29512 68248.8021035,-3891946.91668 68273.3907092,-3891918.80003 68310.5818884,-3891846.68126 68271.7188236,-3891733.32028 68156.6964942,-3891644.06686 68061.8978015,-3891607.2159 67983.9603222,-3891599.48455 67933.5046977,-3891660.26861 67921.3897116,-3891709.2357 67898.7100143,-3891740.7525 67874.1847621,-3891749.41221 67849.5359742,-3891745.10853 67826.6727543,-3891731.24155 67807.9919687,-3891716.17612 67794.6242027,-3891681.90046 67783.4382775,-3891651.5106 67768.7046815,-3891578.39248 67778.7195558,-3891522.04382 67798.5166792,-3891451.25862 67850.7342896,-3891380.41363 67896.4066729,-3891360.26371 67945.4094636,-3891341.94921 67964.438379,-3891307.11607 67949.633482,-3891232.50504 67947.2028443,-3891228.63116 67817.2883752,-3891270.78227 67766.4998521,-3891298.66006 67709.8884883,-3891314.34687 67707.30456,-3891312.47562 67646.1502842,-3891285.4819 67600.9175645,-3891247.24863 67575.3429994,-3891208.07169 67563.9342631,-3891152.25247 67564.4120356,-3891099.85327 67580.2022996,-3891054.70023 67640.7932718,-3891002.40863 67709.9321907,-3890993.10423 67723.3016907,-3891001.44129 67737.7581232,-3891001.24623 67815.2717211,-3891046.90889 67903.7420255,-3891112.99595 68028.0207867,-3891176.86521 68130.409863,-3891262.73535 68183.3563429,-3891362.95026 68184.1984082,-3891364.90511 68296.7503074,-3891532.59175 68345.0007573,-3891592.12875 68435.3840648,-3891672.08972 68437.9440856,-3891673.46327 68503.1409756,-3891706.74689 68592.7095872,-3891733.37345 68738.7242614,-3891839.5944 68912.9344241,-3891930.49448 69000.2317487,-3891998.13229 69119.2567812,-3892113.62898 69249.2798138,-3892203.65669 69466.4306474,-3892233.13512 69485.0114139,-3892235.73464 69469.1792863,-3892202.07695 69456.9403962,-3892175.72888 69398.1849095,-3892068.81177 69229.8082626,-3891772.12244 69177.2243934,-3891689.849 69125.0287089,-3891600.07464 69230.2918214,-3891428.91734 69222.8467277,-3891419.29852 69499.9570995,-3890988.49306 69502.5031472,-3890984.38038" style="stroke-linejoin:round;stroke:#000;stroke-width:1px;fill:none" /></g></g></svg>