<svg xmlns="http://www.w3.org/2000/svg" baseProfile="full" height="11308.1606017" version="1.1" viewBox="20541.535237,4048795.124373,15582.296304,11308.160602" width="15582.2963035"><defs><style type="text/css">polyline,line,rect,path,polygon,.polygon{fill:none;stroke:#000;stroke-width:1px;stroke-linejoin:round;}</style></defs><g fill_rule="evenodd" transform="scale(1,-1)"><g class="hogares departamen mujeres departam_1 toponimo_i tot_pob varones viv_part viv_part_h" id="06760"><polygon class="_06760" id="None" points="25608.2557899,-4050401.31828 25612.2869725,-4050405.52378 25654.6394639,-4050455.41202 25703.7451444,-4050512.8054 25738.0196688,-4050543.31757 25885.4123515,-4050673.62145 26029.1254391,-4050801.19012 26066.8660128,-4050834.94984 26196.0743265,-4050951.06625 26242.5868024,-4050992.68877 26336.4248901,-4051076.8739 26402.8515355,-4051136.05089 26430.014943,-4051161.07604 26454.2428683,-4051183.31484 26518.299144,-4051240.66283 26530.5025793,-4051251.27752 26564.2464782,-4051281.32735 26610.2283474,-4051322.48785 26705.9061653,-4051408.0392 26751.3574418,-4051448.73801 26807.4894733,-4051499.65891 26809.3292469,-4051501.02616 26811.9821663,-4051503.33368 26866.4596008,-4051548.38831 26912.4069083,-4051589.05236 26968.7178651,-4051638.96364 27005.6452427,-4051671.78204 27025.2768378,-4051688.85757 27090.8557258,-4051746.59689 27243.1331866,-4051879.04693 27322.3282815,-4051949.79408 27334.0356583,-4051960.44303 27357.6638874,-4051981.2276 27394.8392608,-4052014.0283 27401.4542793,-4052019.54897 27412.6310717,-4052029.7364 27476.3864178,-4051957.50806 27748.8003055,-4051649.9397 27838.8609157,-4051547.46934 27895.6938937,-4051483.20065 27950.4328806,-4051421.07165 28041.331653,-4051305.58422 28044.3141041,-4051301.88749 28064.4472124,-4051276.06215 28075.4540278,-4051262.33637 28083.2241241,-4051255.81409 28089.7133473,-4051252.37163 28096.767679,-4051249.8867 28105.8752186,-4051248.25568 28113.3157165,-4051247.73761 28117.7800149,-4051247.42677 28119.3026521,-4051247.81919 28124.3665967,-4051248.96191 28125.8892337,-4051249.35433 28128.1904582,-4051250.19098 28134.3846197,-4051253.24875 28170.8025729,-4051293.08022 28205.5942821,-4051331.03113 28281.5258492,-4051422.93921 28312.3618109,-4051454.18731 28517.2505528,-4051662.22255 28539.0606008,-4051689.11459 28547.5780567,-4051700.48391 28581.0323585,-4051733.54314 28619.2826052,-4051699.47816 28629.5514012,-4051682.31475 28635.8332941,-4051675.89609 28646.3031154,-4051665.19833 28651.6620332,-4051659.84082 28696.3040134,-4051617.3559 28745.3473873,-4051570.07864 28825.2288632,-4051493.24032 28855.3166933,-4051467.22047 28879.5495773,-4051446.59266 28940.0077641,-4051395.03184 28969.8820986,-4051369.52538 29079.8608412,-4051281.12176 29106.7527502,-4051259.31209 29195.4809468,-4051187.83979 29284.4225588,-4051115.85441 29357.6107514,-4051057.42676 29363.782759,-4051053.00961 29593.7415176,-4050869.52748 29774.3522523,-4050725.36884 29840.4797468,-4050672.91634 29896.2881371,-4050626.16659 29903.8791058,-4050620.65388 29991.0778945,-4050552.2804 29997.7113536,-4050547.3328 30081.4724889,-4050479.69727 30169.7040098,-4050408.26176 30244.9511208,-4050347.20035 30251.584566,-4050342.25278 30322.4647873,-4050286.47971 30399.7303981,-4050225.7765 30479.124436,-4050163.43001 30541.7386391,-4050114.21376 30553.586513,-4050105.41434 30623.5090654,-4050050.20689 30692.1570219,-4049994.58987 30758.9244788,-4049940.59912 30830.4793781,-4049883.78317 30898.769322,-4049830.18509 30974.794555,-4049769.56934 31063.5560094,-4049698.59739 31119.0059943,-4049653.86802 31317.9576899,-4049493.98596 31448.9019971,-4049388.18067 31649.3475647,-4049224.7075 31907.0539123,-4049013.88909 31908.7208805,-4049012.77627 31966.5878557,-4048963.39428 32074.090468,-4048871.68265 32080.2278126,-4048866.76991 32722.6013,-4048830.0398 32788.4757009,-4048895.72937 33158.0096767,-4049267.7305 33326.0342759,-4049436.95253 33338.73206,-4049447.53176 33346.1937616,-4049454.48829 33351.3544628,-4049460.60819 33361.923861,-4049472.83073 33386.2112137,-4049499.54861 33465.5965246,-4049576.75609 36110.6917822,-4052216.91313 36082.5290322,-4052238.31132 36047.768193,-4052265.15284 35993.8742936,-4052274.88726 35966.83788,-4052280.25907 35940.1667365,-4052319.49492 35922.0898816,-4052346.17117 35901.9477533,-4052378.9718 35883.293541,-4052411.66881 35881.730387,-4052414.26957 35880.167233,-4052416.87033 35841.3548373,-4052471.40492 35817.4031025,-4052535.37031 35787.408428,-4052591.28431 35784.5301142,-4052596.46857 35771.3784734,-4052622.30352 35732.5984518,-4052698.76468 35722.682918,-4052717.39697 35697.3025541,-4052768.00595 35690.4096718,-4052779.9488 35660.7444919,-4052829.85958 35639.3559792,-4052927.0381 35609.5566282,-4052992.90645 35575.2874723,-4053062.57493 35514.6930898,-4053176.43974 35513.4124965,-4053179.51923 35478.0236154,-4053200.92315 35462.2439502,-4053210.49495 35393.1329258,-4053252.19 35378.2415273,-4053260.2048 35332.5062587,-4053283.3264 35300.1398317,-4053358.8434 35289.8727623,-4053376.0053 35284.295088,-4053385.36477 35259.9049637,-4053396.53332 35227.7520224,-4053410.73465 35210.8421467,-4053418.39176 35178.5611303,-4053445.06158 35175.475519,-4053447.2701 35168.0989154,-4053452.26949 35129.8031704,-4053474.87297 35132.8705009,-4053483.13176 35134.951976,-4053487.97056 35133.071745,-4053489.59671 35099.268231,-4053515.8743 35098.4084147,-4053521.41642 35094.4447132,-4053539.63438 35088.1902139,-4053571.46829 35083.5801472,-4053594.71512 35049.6160318,-4053611.5347 35009.0110051,-4053597.41882 34977.3680864,-4053583.17687 34943.855121,-4053585.0135 34941.9464176,-4053582.65457 34924.2660221,-4053564.94783 34890.8769578,-4053536.37435 34856.1625597,-4053495.93193 34843.5395158,-4053482.85664 34824.7289454,-4053463.23505 34782.1622623,-4053456.73146 34751.2103851,-4053452.40894 34696.3864822,-4053466.69476 34693.9004926,-4053470.35667 34691.3108346,-4053472.53065 34678.0332512,-4053489.4041 34651.9151382,-4053536.57701 34633.6045622,-4053534.86245 34625.0692462,-4053533.96198 34604.9190644,-4053530.88043 34581.2583761,-4053509.60314 34573.5828816,-4053503.1605 34558.0875711,-4053491.78042 34516.1630227,-4053462.30622 34502.9382412,-4053469.20827 34473.5127883,-4053483.21973 34455.6046437,-4053494.4352 34432.2346113,-4053509.51994 34416.757613,-4053548.47581 34412.6678168,-4053557.73175 34395.7313668,-4053600.77644 34395.0910668,-4053602.31622 34258.8098442,-4053566.95645 34094.6882374,-4053550.48151 34051.9218625,-4053576.88559 34020.1484181,-4053596.54308 33921.2524454,-4053654.26963 33811.1518975,-4053697.82522 33791.2657239,-4053705.68992 33722.4582216,-4053816.14378 33710.0220747,-4053837.94288 33695.3824731,-4053863.88268 33688.0972343,-4053877.34858 33667.0831155,-4053922.67159 33628.32557,-4054006.61067 33605.7642043,-4054004.69398 33577.2164149,-4054002.69603 33574.4132902,-4054005.38333 33573.2424415,-4054006.46171 33506.9715499,-4054063.90954 33440.6994699,-4054203.59316 33331.1021746,-4054222.19504 33329.9313245,-4054223.27343 33283.881918,-4054263.36383 33045.0809948,-4054473.38407 33021.1333982,-4054494.49057 33027.322206,-4054561.84185 33027.8752499,-4054569.77773 33030.1626045,-4054599.02401 33033.0677715,-4054619.256 33033.4885962,-4054621.71868 33006.4476797,-4054669.95451 32996.7456566,-4054688.07471 32987.9604582,-4054708.62303 32985.4021026,-4054754.1559 32981.5330784,-4054820.21459 32912.758156,-4054891.79369 32911.1258828,-4054893.40266 32892.1684035,-4054896.7175 32872.7840606,-4054901.0589 32850.3140232,-4054907.60897 32820.0809115,-4054917.1921 32787.8472992,-4054915.94979 32733.9056423,-4054910.73795 32724.8740287,-4054909.8722 32660.1105243,-4054935.31885 32630.9714724,-4054967.7524 32618.0169421,-4054982.11221 32608.8455032,-4055000.69401 32602.9160885,-4055008.58334 32594.9275368,-4055019.10822 32576.7064246,-4055047.29206 32558.577004,-4055083.94243 32547.4727085,-4055114.12231 32541.1735661,-4055131.00875 32519.9299215,-4055165.8826 32513.4985146,-4055177.2958 32484.9637683,-4055229.12528 32418.82071,-4055356.34359 32439.6106347,-4055379.31645 32431.0343959,-4055381.40945 32426.1721428,-4055386.73243 32417.3013431,-4055395.32526 32408.4936942,-4055408.39936 32397.3849121,-4055420.63704 32384.6784276,-4055434.97972 32359.7102839,-4055452.17071 32336.3803997,-4055464.26345 32333.5081283,-4055465.95888 32319.5856028,-4055466.43091 32315.8656149,-4055466.69021 32285.9674125,-4055466.78058 32259.5411874,-4055466.62894 32257.061193,-4055466.8018 32223.2747257,-4055482.61387 32192.45825,-4055501.7078 32153.6937926,-4055528.33349 32118.378719,-4055547.24262 32113.9147184,-4055547.55378 32085.8847211,-4055552.99646 32045.7838157,-4055553.29962 31996.8871726,-4055559.6984 31957.4085307,-4055568.92958 31954.9630973,-4055569.59845 31923.6910594,-4055585.73378 31917.2370526,-4055589.67254 31899.2247396,-4055599.40108 31870.4626094,-4055597.91706 31842.306174,-4055594.39717 31825.3037974,-4055593.58867 31814.1557112,-4055587.38797 31800.1758882,-4055579.88941 31785.1169519,-4055581.93591 31777.2154802,-4055582.98509 31758.2636472,-4055582.81088 31737.2121028,-4055588.26558 31720.4743158,-4055598.40372 31716.5003038,-4055602.16962 31703.5862607,-4055613.53647 31691.5831086,-4055630.8208 31678.9396756,-4055649.645 31677.7688148,-4055650.72345 31664.9525127,-4055667.06764 31663.5682244,-4055668.65938 31652.7764942,-4055681.87197 31648.2659236,-4055688.66577 31643.8996315,-4055693.95427 31640.9522023,-4055698.14703 31635.876479,-4055703.9834 31628.5973332,-4055713.96067 31625.1193256,-4055717.69201 31620.0090278,-4055723.03238 31607.8675873,-4055738.33273 31596.3843605,-4055741.62527 31580.9616937,-4055749.17972 31566.5310327,-4055756.66504 31560.0424207,-4055760.10783 31543.0685576,-4055763.28469 31507.0736228,-4055765.29538 31468.0394602,-4055763.03219 31426.0066172,-4055753.50179 31397.7867894,-4055745.50058 31366.3083342,-4055737.2281 31334.771374,-4055742.41694 31315.807441,-4055749.22143 31303.0602303,-4055766.55776 31291.4313845,-4055792.78764 31284.6648646,-4055813.69442 31280.660965,-4055834.90705 31276.9396519,-4055856.59839 31268.050819,-4055875.65946 31252.3967408,-4055894.1953 31237.43543,-4055901.21925 31179.4085124,-4055901.77534 31145.3628141,-4055903.1518 31114.1023556,-4055912.3088 31098.6855484,-4055916.374 31071.7901494,-4055941.67456 31056.140779,-4055978.15323 31052.4361808,-4056010.80874 31052.8665962,-4056049.15702 31048.2797114,-4056079.88036 31029.4647681,-4056103.12245 31004.4675851,-4056116.32871 30963.5122275,-4056118.68539 30936.6931241,-4056120.0566 30910.68718,-4056122.36796 30879.6173874,-4056123.53707 30853.749731,-4056127.83248 30829.7850343,-4056137.97628 30811.0511078,-4056155.23176 30805.2826223,-4056172.58022 30802.3745612,-4056195.21192 30801.6926045,-4056221.17739 30799.0552428,-4056251.26655 30798.1944634,-4056278.24133 30789.4034678,-4056302.28001 30776.7540772,-4056324.59401 30756.9589999,-4056340.9267 30727.1053688,-4056355.96696 30704.1958907,-4056370.52311 30686.344323,-4056389.71087 30667.5293689,-4056412.9532 30652.8613593,-4056434.90958 30645.0456637,-4056447.91505 30634.115572,-4056459.14395 30623.2546421,-4056471.36489 30611.2287819,-4056481.17493 30606.7587301,-4056484.97554 30591.2953608,-4056495.52367 30579.5926041,-4056502.81907 30575.5494013,-4056505.59308 30563.5581175,-4056515.89915 30542.6385974,-4056526.82769 30530.8666711,-4056533.13108 30520.9404701,-4056537.31209 30478.017498,-4056550.77155 30416.8121702,-4056545.07023 30368.7749166,-4056524.49491 30335.3819512,-4056495.92062 30293.6377701,-4056461.94742 30234.7977963,-4056440.13141 30207.0495513,-4056446.05334 30168.4154476,-4056499.58636 30166.7356241,-4056529.11068 30162.2180441,-4056560.82656 30160.2507532,-4056571.92911 30158.923743,-4056581.49175 30159.0323986,-4056600.92284 30158.9573007,-4056603.42021 30159.1993752,-4056606.89233 30159.04918,-4056611.88707 30159.8159205,-4056619.31002 30153.7016661,-4056631.69857 30152.2422674,-4056635.78774 30144.9166256,-4056652.24816 30139.6847309,-4056666.5689 30135.0348166,-4056692.81133 30113.619153,-4056703.77459 30109.9336109,-4056704.52997 30102.066509,-4056706.07533 30075.1314105,-4056712.93756 30068.0429128,-4056714.92707 30059.2183544,-4056717.03761 30054.2522556,-4056720.87285 30025.419036,-4056739.82972 30019.9223349,-4056743.20353 29992.5484995,-4056758.07123 29983.1063875,-4056769.19657 29960.9921243,-4056795.16145 29959.6078215,-4056796.75325 29942.6098432,-4056813.88814 29935.6191612,-4056820.85513 29915.1599547,-4056852.68581 29903.6527646,-4056869.93631 29893.6613769,-4056912.50106 29857.4738563,-4056943.93316 29857.3573697,-4056970.85652 29851.9289416,-4056996.65496 29841.8575152,-4057023.77401 29819.5071081,-4057042.7775 29816.3867408,-4057044.49036 29783.9261551,-4057050.74117 29757.4869594,-4057057.569 29720.8042642,-4057067.60323 29688.9029114,-4057078.30095 29662.3945035,-4057084.13676 29659.3087148,-4057086.34565 29643.9489426,-4057098.38215 29641.538012,-4057099.54712 29639.1616675,-4057101.20811 29630.5445717,-4057106.29485 29617.2093711,-4057115.19959 29615.2598743,-4057115.83396 29611.7472359,-4057119.06948 29603.4068282,-4057128.12439 29599.4673416,-4057132.38654 29593.4627877,-4057142.77388 29589.0559622,-4057151.05608 29578.6099997,-4057169.2296 29561.3412123,-4057178.90709 29544.3204319,-4057188.56728 29515.8152545,-4057222.95307 29502.3012062,-4057232.8672 29479.0683431,-4057249.93865 29477.4706159,-4057252.0438 29453.0027906,-4057287.145 29451.1393621,-4057299.73579 29450.2392885,-4057308.27193 29447.8739468,-4057324.38675 29425.0848369,-4057351.396 29418.1979128,-4057359.85118 29416.5655991,-4057361.46031 29384.4676104,-4057383.63593 29353.5404912,-4057404.73305 29300.5815586,-4057402.94319 29290.6551985,-4057407.12443 29286.5427647,-4057408.9065 29271.6907551,-4057413.92964 29266.5862728,-4057415.7809 29263.7138968,-4057417.4765 29259.670639,-4057420.25062 29254.8487565,-4057422.58061 29249.2136603,-4057423.97042 29240.7061868,-4057427.05585 29225.5480076,-4057445.55812 29218.7471732,-4057465.9698 29214.4036501,-4057478.73359 29201.5291086,-4057508.54068 29198.823794,-4057516.20587 29197.1914778,-4057517.81501 29174.0792706,-4057547.33915 29153.2742402,-4057574.21024 29117.2536333,-4057611.61272 29113.7409884,-4057614.8483 29110.1245723,-4057616.5958 29096.7951974,-4057622.01126 29081.2911292,-4057635.55338 29071.5318197,-4057645.70426 29052.1920315,-4057664.99669 29048.713976,-4057668.7283 29024.2403128,-4057707.3194 29023.8937452,-4057723.79202 29023.8819976,-4057730.77097 29024.0490809,-4057736.74057 29024.3604034,-4057741.20481 29028.6680108,-4057770.81069 29018.3193983,-4057815.39493 29017.2868861,-4057818.45756 29013.2952072,-4057832.6922 29014.7246171,-4057867.48319 29013.2986733,-4057914.93428 29018.9677953,-4057935.47332 29030.8712718,-4057977.50885 29005.7458167,-4058024.61903 28997.4341825,-4058037.65966 28987.1325905,-4058054.32815 28980.2914756,-4058077.73345 28969.2799272,-4058116.38278 28951.8483077,-4058180.90028 28895.1161225,-4058210.77589 28844.3883527,-4058230.26397 28837.8303668,-4058232.71512 28808.0282829,-4058237.78431 28795.3854256,-4058235.177 28780.9372779,-4058231.69873 28778.4225437,-4058231.37568 28762.3479271,-4058226.01707 28719.7533428,-4058212.04083 28714.6892744,-4058210.89869 28690.83947,-4058215.55274 28664.8496199,-4058228.82954 28632.0824878,-4058248.56034 28625.59367,-4058252.00356 28608.5498579,-4058254.18916 28585.5882848,-4058257.28595 28544.1927262,-4058267.64973 28539.2670249,-4058268.49171 28527.8583401,-4058269.28742 28510.745309,-4058270.48097 28500.1844511,-4058272.71287 28494.3704734,-4058275.11214 28487.7432583,-4058276.57124 28470.4455478,-4058282.26367 28463.4202434,-4058288.73497 28457.1043885,-4058294.65835 28454.970196,-4058299.79163 28449.7268202,-4058321.09196 28449.9343972,-4058324.06814 28449.4554381,-4058335.0673 28449.0110774,-4058346.56249 28450.7642595,-4058357.40597 28452.3444608,-4058365.76929 28452.8634092,-4058373.20975 28453.9992609,-4058393.06827 28454.5586471,-4058397.51524 28445.7276279,-4058424.54869 28443.5184158,-4058432.17943 28438.6960859,-4058455.94263 28437.7673851,-4058460.4934 28429.7846303,-4058467.52995 28413.3576861,-4058482.13369 28406.3669917,-4058489.10105 28379.1657539,-4058506.45008 28369.1642734,-4058513.129 28363.0735085,-4058511.56005 28340.6195416,-4058507.64331 28292.8337536,-4058483.56185 28290.0017864,-4058482.26404 28262.7375332,-4058473.69833 28250.3021342,-4058474.06723 28239.3202318,-4058473.83631 28230.4608462,-4058475.45113 28206.8242792,-4058479.59197 28158.6049136,-4058502.89303 28139.3113259,-4058515.703 28128.8137715,-4058522.41655 28122.4287044,-4058527.34791 28118.8814448,-4058530.08756 28114.3767165,-4058533.39244 28094.1198203,-4058550.25719 28082.91243,-4058578.95191 28080.0341951,-4058584.13714 28071.6879348,-4058596.68201 28077.8592174,-4058613.6972 28080.3681569,-4058617.50978 28109.2065847,-4058659.36158 28112.5859872,-4058693.51868 28106.3390003,-4058721.86743 28105.7333481,-4058723.90347 28103.9568116,-4058727.01807 28090.7019904,-4058751.36962 28087.6449528,-4058757.56422 28079.3621098,-4058774.59072 28077.7702095,-4058773.20642 28075.9590746,-4058775.82499 28069.0375694,-4058783.78449 28064.8500664,-4058788.06416 28063.4311654,-4058789.16003 28037.319894,-4058811.41772 28023.2809114,-4058817.38147 28010.4069957,-4058825.75618 27995.4451401,-4058832.7812 27976.5842072,-4058841.0751 27961.4839426,-4058846.11599 27938.712297,-4058862.65785 27921.8238634,-4058877.79245 27910.9282603,-4058889.51834 27899.1039779,-4058905.79504 27890.2963191,-4058918.87064 27884.5340748,-4058932.7307 27875.7494034,-4058953.28144 27869.7795565,-4058964.1653 27861.7851609,-4058978.18108 27855.0020603,-4058988.12477 27848.149757,-4058997.0764 27830.1308487,-4059010.29612 27818.179781,-4059017.60963 27807.4400038,-4059020.85105 27783.514866,-4059028.00294 27773.3403229,-4059032.20183 27759.5897191,-4059035.15483 27748.4923038,-4059040.41501 27717.6860336,-4059052.53297 27699.6787006,-4059058.77361 27691.2806785,-4059059.85789 27683.6267105,-4059060.89026 27661.7606814,-4059065.40628 27646.7007555,-4059067.45372 27633.8325885,-4059072.33898 27618.8418604,-4059075.3785 27598.850349,-4059081.75757 27578.1031715,-4059095.16768 27561.1858817,-4059106.31683 27547.3140218,-4059118.25044 27533.3037495,-4059128.1999 27520.5681736,-4059138.5589 27499.7229689,-4059146.99136 27482.5692421,-4059151.17869 27454.8198852,-4059157.10207 27423.7020522,-4059164.75579 27391.9439541,-4059173.94954 27360.9991056,-4059184.08347 27336.0817223,-4059191.30467 27323.1096855,-4059194.70186 27310.1780461,-4059195.1055 27283.1438653,-4059196.99138 27257.1247631,-4059206.28326 27244.2853271,-4059215.1542 27232.5417812,-4059225.44406 27219.4831306,-4059238.31793 27214.0150939,-4059245.67775 27210.5370146,-4059249.40956 27206.7935337,-4059263.62744 27203.8633249,-4059278.78549 27200.1544544,-4059293.49941 27193.2847391,-4059312.91993 27185.359528,-4059327.928 27167.6577054,-4059342.12273 27141.7077787,-4059352.40677 27105.8024062,-4059362.88688 27092.8649306,-4059366.78015 27070.8544923,-4059372.80174 27064.5443665,-4059375.23577 27049.8707353,-4059379.25016 27032.1112457,-4059385.47366 27013.250065,-4059393.76784 26987.1904759,-4059406.0534 26957.3355605,-4059421.09603 26943.54439,-4059427.0427 26924.5735849,-4059437.33838 26911.7687101,-4059446.70546 26891.8288492,-4059464.54562 26872.9848901,-4059483.80471 26860.2376585,-4059501.14311 26848.4190848,-4059513.9306 26837.529167,-4059522.1672 26814.6592014,-4059533.73186 26781.7875738,-4059551.97579 26745.8992808,-4059573.42095 26727.9551285,-4059584.14354 26712.173961,-4059593.71832 26695.366094,-4059602.86626 26684.164698,-4059606.63849 26659.3970456,-4059608.86486 26629.4497359,-4059615.44028 26612.543803,-4059619.61049 26602.1152921,-4059627.31648 26590.4812724,-4059635.60503 26572.8081633,-4059653.78566 26565.9154124,-4059665.73112 26561.993167,-4059680.95858 26563.308245,-4059699.80833 26566.4633128,-4059720.02509 26572.6350401,-4059737.04063 26576.7591406,-4059749.71287 26580.8947828,-4059776.83966 26579.2336152,-4059795.89706 26572.3005186,-4059810.83612 26559.5533052,-4059828.17468 26542.7050524,-4059840.3163 26530.5519178,-4059841.16421 26516.7260722,-4059846.61497 26502.6694897,-4059841.61415 26485.6654691,-4059840.80665 26479.7475166,-4059841.718 26473.5815402,-4059842.64665 26460.6093407,-4059846.04402 26449.8578242,-4059856.26491 26447.8159776,-4059869.86583 26445.0935201,-4059888.00039 26441.2001681,-4059907.21358 26435.3283922,-4059923.07557 26422.5408098,-4059943.40777 26410.8837637,-4059965.65496 26393.0895937,-4059992.81651 26377.2219079,-4060011.86826 26358.4875201,-4060029.12619 26343.6522934,-4060045.11515 26322.8644901,-4060061.51944 26310.0249566,-4060070.39069 25952.4013201,-4059756.38617 25889.748957,-4059701.43976 25817.2274854,-4059637.21241 25691.1094364,-4059526.37877 25619.9665017,-4059464.0487 25595.2735455,-4059442.34332 25559.9674034,-4059411.40893 25433.8493056,-4059300.57434 25307.2351276,-4059189.77389 25222.0469731,-4059115.46251 25137.354864,-4059041.11632 25053.1934035,-4058967.23138 24968.5012724,-4058892.88477 24913.8433119,-4058845.35451 24831.8044614,-4058773.31486 24808.4554249,-4058753.01059 24788.2557478,-4058734.979 24762.7494705,-4058712.3328 24747.0777017,-4058698.47164 24722.7019409,-4058677.74045 24679.9319106,-4058639.84862 24677.0305797,-4058637.55861 24598.6717219,-4058568.25258 24576.1013677,-4058548.39231 24542.139118,-4058518.85857 24517.1288948,-4058496.17758 24492.7185258,-4058474.95016 24490.8439165,-4058473.087 24442.8018672,-4058431.07628 24413.0156991,-4058404.24201 24373.1469845,-4058368.63983 24299.6044956,-4058300.49264 24298.0471104,-4058299.6043 24204.6913438,-4058215.39197 24195.1394563,-4058207.08551 24070.6881511,-4058095.13267 24024.2785286,-4058051.51208 23989.8952529,-4058019.51475 23865.8708139,-4057906.53442 23742.5904704,-4057793.50174 23740.7504537,-4057792.13461 23662.9280759,-4057719.7981 23606.931971,-4057667.37422 23537.3867218,-4057602.93446 23478.2758325,-4057548.73362 23474.2785814,-4057545.02447 23468.6893479,-4057539.93087 23422.6315322,-4057497.78034 23347.6008131,-4057429.73479 23346.0088303,-4057428.35034 23323.8999307,-4057407.95857 23248.7654433,-4057338.42458 23229.6270603,-4057321.31503 23182.1907063,-4057277.26634 23180.6333106,-4057276.37795 23093.7145874,-4057198.69249 23002.5851525,-4057117.81097 23000.958583,-4057115.93043 22942.9435855,-4057063.14769 22863.384928,-4056990.93034 22805.2602254,-4056940.14896 22750.2503167,-4056891.14428 22694.709743,-4056841.67803 22640.2304883,-4056793.13467 22638.886543,-4056791.73289 22631.7399052,-4056785.75075 22582.9190493,-4056743.29319 22530.8450544,-4056697.07442 22526.2825574,-4056692.40759 22519.3493748,-4056685.91205 22469.4326048,-4056642.03526 22413.9265927,-4056593.06462 22398.2547832,-4056579.20238 22388.1722116,-4056570.43391 22326.2636709,-4056515.42907 22289.8268897,-4056482.57613 22275.2164011,-4056469.63683 22266.1259898,-4056460.79916 22258.4486844,-4056454.35544 22256.574078,-4056452.49215 22252.1153237,-4056449.31352 22245.9954229,-4056443.75822 22229.8275284,-4056429.93048 22205.6651256,-4056408.68413 22193.9559851,-4056398.03502 22189.9933114,-4056394.8218 22162.3297352,-4056369.83154 22134.4526969,-4056345.35463 22124.3701209,-4056336.58608 22077.0720514,-4056294.52014 22067.802757,-4056286.69187 22056.8723182,-4056276.48692 22050.7178371,-4056270.43551 22044.1018521,-4056264.91475 22031.0833444,-4056253.35986 22027.0860901,-4056249.65054 22022.523595,-4056244.98363 22026.4290916,-4056240.22496 22019.4959081,-4056233.72932 22010.3709194,-4056224.3955 21984.5879408,-4056197.77852 21811.357534,-4056018.92963 21810.2616333,-4056017.51052 21804.1071567,-4056011.45906 21797.1739758,-4056004.96337 21696.175335,-4055914.79627 21581.8064055,-4055811.60282 21523.8605181,-4055759.80977 21482.895814,-4055722.78504 21466.1626706,-4055707.99934 21403.1236241,-4055651.07757 21372.4264215,-4055618.3221 21354.2456142,-4055600.64625 21237.690901,-4055491.12347 21191.6330437,-4055448.96983 21172.3909145,-4055430.37084 21120.034253,-4055383.67107 21041.8194657,-4055312.85119 20962.5779193,-4055241.60419 20885.9551086,-4055172.16851 20808.9053393,-4055103.75942 20891.8352297,-4055009.74586 20865.2676067,-4054986.17358 20670.9134162,-4054811.78096 20553.395301,-4054706.31064 20604.3423848,-4054646.92846 20643.3527675,-4054605.82567 20656.3447063,-4054591.95939 20712.5760089,-4054529.71673 20741.225367,-4054497.31201 20757.626927,-4054478.7217 20761.5672053,-4054474.45915 20766.465106,-4054469.63139 20818.5080911,-4054411.66877 20868.9184464,-4054355.31551 20924.2267057,-4054294.1346 20978.1158184,-4054234.04967 21001.5094469,-4054208.49188 21031.5779681,-4054174.99159 21085.0055593,-4054115.43752 21136.3389922,-4054058.02345 21189.3396227,-4053999.49633 21208.0488417,-4053978.25304 21271.9126979,-4053907.50385 21362.8264681,-4053988.90571 21452.9269746,-4054069.36698 21455.0150088,-4054070.717 21540.5356795,-4053974.53145 21622.6874376,-4053880.07636 21708.7733399,-4053784.84896 21792.2690157,-4053691.79624 21817.9355981,-4053663.08969 21879.2434326,-4053595.012 21948.2613777,-4053655.50653 22038.1532507,-4053732.99094 22193.5213263,-4053870.2189 22277.1491418,-4053943.65267 22351.7906087,-4054009.73648 22415.5494623,-4053937.50026 22480.2659236,-4053864.69899 22536.1789541,-4053801.48392 22587.2287513,-4053743.59261 22637.9564115,-4053788.41185 22753.3301049,-4053659.2427 22787.4764023,-4053623.46556 22809.2369278,-4053599.51791 22870.9361625,-4053529.91855 22881.3721851,-4053518.72342 22933.3795179,-4053460.26749 22976.404502,-4053412.407 23097.0684517,-4053276.88902 23106.3333998,-4053266.77252 23217.0574241,-4053142.41556 23270.4493467,-4053082.3684 23292.6714058,-4053057.89051 23345.3476096,-4053001.88118 23415.5270186,-4052925.21217 23438.8103262,-4052901.65744 23454.4329022,-4052882.62412 23456.9539864,-4052879.45766 23485.7817113,-4052846.04572 23558.274913,-4052763.2342 23567.2918305,-4052753.13513 23619.1264733,-4052692.20016 23636.9122762,-4052672.01934 23775.3967207,-4052516.81966 23797.1572746,-4052492.8728 23840.6092884,-4052443.98699 23863.2583376,-4052418.48289 23914.3081715,-4052360.59401 23920.8040057,-4052353.66147 23925.6326976,-4052347.84198 23989.4607205,-4052276.60152 24057.1944025,-4052200.60297 24088.4334118,-4052166.02683 24128.4413158,-4052121.36911 24137.6717304,-4052110.75689 24181.4063487,-4052062.35043 24200.0806683,-4052040.61269 24217.4049709,-4052020.96286 24262.3106689,-4051971.47804 24280.0964943,-4051951.29764 24335.5073182,-4051891.61048 24390.1049617,-4051830.98311 24440.3354309,-4051775.64464 24447.7888517,-4051768.14708 24465.1822455,-4051749.48953 24471.1820189,-4051742.59166 24476.0452608,-4051737.26834 24481.5835133,-4051730.90108 24488.9333082,-4051721.91534 24517.0170108,-4051688.55634 24550.569888,-4051647.838 24567.9287437,-4051628.68446 24569.0652762,-4051627.10992 24618.338178,-4051572.33692 24622.9533903,-4051567.03089 24664.8074154,-4051520.25156 24672.2262962,-4051512.258 24742.4183323,-4051428.61301 24795.3080879,-4051372.09311 24847.2402621,-4051316.13845 24905.2475565,-4051250.78854 24887.1381644,-4051234.10469 24943.2648761,-4051170.38123 24998.7511173,-4051108.19788 25045.8608954,-4051054.57323 25051.1856666,-4051048.71942 25105.0047884,-4050987.64928 25153.9952021,-4050932.3985 25157.4738858,-4050928.66709 25211.327555,-4050868.09322 25261.1719549,-4050810.78934 25263.2660722,-4050808.64971 25267.2062786,-4050804.38772 25317.1197536,-4050748.07606 25295.8616181,-4050729.1191 25301.8614125,-4050722.22143 25379.1083685,-4050636.0933 25383.5101009,-4050631.30074 25426.1146252,-4050580.9812 25469.4287071,-4050530.11387 25519.4395325,-4050478.78044 25608.2557899,-4050401.31828" style="stroke-linejoin:round;stroke:#000;stroke-width:1px;fill:none" /></g></g></svg>