<svg xmlns="http://www.w3.org/2000/svg" baseProfile="full" height="109890.832719" version="1.1" viewBox="19316.726924,4367875.942327,104366.174367,109890.832719" width="104366.174367"><defs><style type="text/css">polyline,line,rect,path,polygon,.polygon{fill:none;stroke:#000;stroke-width:1px;stroke-linejoin:round;}</style></defs><g fill_rule="evenodd" transform="scale(1,-1)"><g class="hogares departamen mujeres departam_1 toponimo_i tot_pob varones viv_part viv_part_h" id="06791"><polygon class="_06791" id="None" points="80910.7651331,-4392513.5767 81332.2593171,-4392960.09706 88485.0750456,-4399679.29752 89359.9610215,-4400493.32711 89680.0509552,-4400783.63333 89705.9296136,-4400806.42164 89745.9569412,-4400761.49858 90297.452434,-4400185.00019 90637.2506189,-4400510.94798 94917.0464479,-4404611.122 95269.6010691,-4404937.70813 95528.5200678,-4405179.50489 96101.7475279,-4405710.92252 102996.105115,-4412387.79563 103067.590749,-4412453.53278 103451.984453,-4412806.42115 105037.621115,-4414264.22057 105151.613824,-4414375.10051 105531.621228,-4414745.19391 110721.050828,-4419791.81674 111010.398842,-4420072.92441 111177.890047,-4420233.20541 111626.82887,-4420660.13842 112489.312227,-4421451.44793 113018.524644,-4421972.42788 113332.120742,-4422356.14072 113406.004023,-4422428.18244 113524.597554,-4422544.72049 113530.934918,-4422550.29705 122760.303436,-4431602.86803 120574.867178,-4433750.79194 119438.676272,-4434994.31128 119380.624681,-4435052.8549 119270.719859,-4435165.55811 116637.936741,-4438068.11434 116593.860177,-4438115.30045 115694.001056,-4439103.57598 114513.276557,-4440398.99572 112215.824876,-4442775.51989 111181.725457,-4443800.46383 110704.864745,-4444288.68401 110591.859082,-4444403.61198 108391.358533,-4446652.56528 108377.822285,-4446666.89444 108230.462908,-4446817.43758 108059.963844,-4446991.90079 105100.709261,-4449943.37846 105083.608844,-4449960.43084 105134.533722,-4450011.99626 105065.699497,-4450081.23077 105028.094226,-4450120.53986 104486.885041,-4450674.31204 103622.088933,-4451545.53668 101680.068804,-4453570.4487 101672.557235,-4453569.9348 99595.5339427,-4455670.46871 97792.7833348,-4457427.39069 97782.4348228,-4457437.03182 97751.7974066,-4457468.42197 96140.7439955,-4459136.3087 93589.3522507,-4461715.04582 93289.3432437,-4462000.15609 92909.5620971,-4462382.1613 91587.2124181,-4463710.04393 90845.3857353,-4464482.42931 90418.1178841,-4464916.89351 90128.0283876,-4465212.86171 85378.5213735,-4470025.00453 84718.6072329,-4470722.42409 84711.1254034,-4470722.40841 84245.3750384,-4471198.33848 83713.9484802,-4471742.35369 82386.5668304,-4473047.49155 78210.9441228,-4477227.10526 78199.4491802,-4477238.32274 78194.5378303,-4477235.64756 78131.3611969,-4477122.51829 78145.9458264,-4477089.65354 78204.4573864,-4476995.59202 78273.4318819,-4476901.35313 78263.516526,-4476794.25783 78204.8177075,-4476669.36708 78141.3974595,-4476587.17757 78056.0362688,-4476524.36214 78035.0250442,-4476411.4996 78002.8671303,-4476342.25253 77984.2857686,-4476247.68772 78066.4445693,-4476191.50224 78115.8730962,-4476103.51527 78240.9849213,-4476082.95997 78283.4647438,-4476041.80869 78296.4178457,-4476029.99845 78311.4135025,-4476015.06355 78361.9249703,-4475939.97524 78361.8016015,-4475837.73401 78303.7500454,-4475753.70089 78279.8323735,-4475719.33461 78279.2951345,-4475714.88034 78273.3255755,-4475475.85327 78292.3328215,-4475360.90402 78342.2588365,-4475272.886 78330.2576803,-4475191.36348 78325.3365082,-4475169.23656 78298.6392718,-4475053.25052 78283.3510782,-4474944.00891 78278.6936529,-4474914.3833 78242.1215076,-4474826.96663 78154.2566309,-4474783.26471 78065.6214976,-4474727.64179 78015.8380539,-4474632.59909 77927.6480493,-4474537.54365 77843.7636849,-4474482.11206 77770.8445827,-4474399.53666 77776.7329548,-4474305.38591 77839.7983756,-4474204.54892 77958.647612,-4474009.83002 77971.5305598,-4473815.47262 77946.5409099,-4473683.41478 77883.0513141,-4473476.53329 77831.0993741,-4473278.38312 77827.0605074,-4473262.18435 77827.1348768,-4473178.38514 77826.0545205,-4473076.70459 77824.5002505,-4473075.80742 77802.1154501,-4473061.29225 77726.6235827,-4473054.69584 77633.634155,-4473039.75265 77613.6934948,-4473036.05268 77517.0626037,-4472957.0022 77515.5457214,-4472914.20524 77512.0289856,-4472790.23663 77450.1677994,-4472708.94041 77366.028151,-4472649.5326 77341.6482493,-4472631.15578 77340.4541392,-4472624.24999 77330.0591099,-4472552.09953 77267.64636,-4472489.29333 77246.5197894,-4472482.67707 77151.6384792,-4472453.88919 77135.6055543,-4472418.01474 77075.4814201,-4472305.6812 76993.0013014,-4472268.11174 76918.0128679,-4472250.00971 76873.188029,-4472239.43687 76776.0563217,-4472233.7377 76625.7128819,-4472245.93896 76589.4841196,-4472233.31465 76571.1855191,-4472228.01195 76545.9767641,-4472138.86092 76687.1632215,-4471961.65527 76688.627785,-4471752.57085 76674.0143536,-4471742.54109 76594.9702632,-4471684.79754 76589.0398035,-4471639.29238 76580.9294845,-4471575.47298 76619.895,-4471514.5999 76651.5544593,-4471464.1742 76618.9142231,-4471429.87021 76607.4653364,-4471418.63852 76602.9546924,-4471414.44067 76532.0343378,-4471351.18447 76469.1244012,-4471257.48404 76467.6261051,-4471253.5905 76437.0026577,-4471157.80579 76423.9409251,-4471071.36186 76411.5698988,-4471034.25288 76400.5114584,-4470955.66015 76405.550368,-4470944.86045 76436.8653264,-4470877.49859 76538.5044702,-4470779.16222 76568.4106238,-4470751.79404 76591.0024571,-4470730.88337 76611.9271666,-4470684.14369 76624.8955514,-4470603.00291 76625.5123818,-4470600.96797 76625.5034428,-4470566.05388 76582.9688612,-4470505.95274 76482.9343164,-4470385.71854 76402.0155868,-4470275.7223 76369.9271018,-4470161.07816 76292.3076447,-4469947.62062 76286.889411,-4469786.3648 76248.7518705,-4469566.3689 76168.4600409,-4469535.63751 76044.3448031,-4469482.79458 75972.8013812,-4469448.50577 75889.8732933,-4469388.51587 75747.8118923,-4469351.29508 75649.8700652,-4469313.72133 75559.3949045,-4469268.1839 75544.3729069,-4469209.29871 75532.4672798,-4469063.42355 75507.9677332,-4468985.19832 75507.9757403,-4468958.26332 75440.7664696,-4468871.32135 75365.321257,-4468811.34629 75338.2580449,-4468801.62012 75336.8560185,-4468799.21663 75258.7989375,-4468752.87716 75256.7560794,-4468725.07681 75248.8573641,-4468579.44145 75255.7399132,-4468496.69746 75224.4310306,-4468428.88683 75138.274223,-4468400.02818 75041.382154,-4468328.46727 74949.2485737,-4468292.01328 74898.9274713,-4468281.29311 74868.3310066,-4468274.78729 74853.3892919,-4468271.26199 74810.4145361,-4468285.50624 74778.2715643,-4468297.55543 74660.4593087,-4468338.57392 74532.9688281,-4468368.74458 74475.8451338,-4468387.89195 74381.9713939,-4468428.8629 74349.4437205,-4468434.95148 74186.8691973,-4468466.38788 74083.9426664,-4468421.15243 73969.0152652,-4468305.86174 73966.5636544,-4468306.51867 73973.4860398,-4468290.11065 73979.4436504,-4467976.48207 73976.9443991,-4467953.19984 73975.3742552,-4467944.32277 73971.9938321,-4467915.11181 73956.8218945,-4467795.88043 73907.4074758,-4467694.81894 73902.9217527,-4467656.20212 73865.3879998,-4467596.2732 73856.3107895,-4467590.87305 73833.3341554,-4467543.97157 73696.9920641,-4467448.51572 73643.978189,-4467442.45741 73570.9347972,-4467435.19678 73539.9534762,-4467422.72957 73519.9972235,-4467380.12223 73505.4962915,-4467364.0982 73501.5070608,-4467340.91191 73490.4446807,-4467273.78863 73476.9814124,-4467123.02196 73452.7683716,-4466921.57219 73437.3745962,-4466783.39997 73432.9068757,-4466706.37427 73407.241669,-4466586.82105 73407.3930729,-4466411.23425 73432.7304538,-4466316.82423 73496.2580896,-4466269.33307 73533.3335771,-4466159.70139 73589.7284762,-4465989.96639 73558.7013701,-4465938.09662 73552.1305345,-4465801.35121 73552.1447599,-4465681.63921 73495.8666888,-4465593.98732 73470.2156694,-4465544.26478 73457.8319437,-4465499.17376 73437.8224662,-4465428.63686 73437.2574554,-4465361.83455 73442.7562278,-4465315.59084 73438.1991726,-4465287.45318 73450.1934771,-4465276.20534 73514.3076284,-4465210.72087 73558.1449951,-4465128.58683 73551.6776816,-4465028.24705 73502.773855,-4465027.9075 73444.6484283,-4465027.6635 73401.1251956,-4464952.15771 73380.7291221,-4464922.04811 73355.1736393,-4464889.27824 73350.1510377,-4464877.13205 73323.7204449,-4464633.42768 73325.755929,-4464626.31335 73287.1314686,-4464177.89085 73294.1782287,-4464016.32576 73332.0458752,-4463864.7459 73308.6070438,-4463721.60562 73275.0418336,-4463576.12497 73231.083874,-4463451.26565 73224.588013,-4463431.73236 73147.6560708,-4463371.84556 73149.6993517,-4463368.72114 73134.6893624,-4463232.51939 73230.9465169,-4463104.61202 73293.506653,-4462972.39156 73274.9501937,-4462815.96809 73283.075994,-4462713.69069 73306.576336,-4462532.61121 73427.9624201,-4462295.34761 73539.5217183,-4462180.42291 73508.068956,-4462017.34893 73576.8457801,-4461904.1828 73589.3804459,-4461719.32191 73740.5158504,-4461483.13807 73743.3632985,-4461248.52414 73784.2959345,-4460974.04887 73896.8334251,-4460734.86646 74016.9113252,-4460426.86591 74022.861078,-4460387.5776 74023.350313,-4460383.55582 74066.3220046,-4460101.9686 74171.6448474,-4459622.84022 74194.7906275,-4459397.39692 74217.2411555,-4459165.01573 74247.2864037,-4458992.49855 74257.7239254,-4458844.6863 74254.7476529,-4458662.82282 74239.1865751,-4458475.28519 74218.1499874,-4458214.28043 74233.0430994,-4457972.90998 74246.5155328,-4457752.08117 74243.6334437,-4457552.25605 74277.0993871,-4457312.68398 74299.0282914,-4457079.83988 74296.5563269,-4456882.48277 74254.6189068,-4456734.54972 74261.5581135,-4456555.54081 74243.0416604,-4456310.33571 74001.0770525,-4455813.15507 73924.5103618,-4455692.88601 73841.8810412,-4455602.4346 73750.087088,-4455509.08091 73729.6300571,-4455408.14659 73684.3975729,-4455325.26526 73579.5507945,-4455242.22724 73532.9208643,-4455176.39406 73507.4390336,-4455008.94582 73444.8755192,-4454974.56271 73338.9876554,-4455003.31806 73234.4262133,-4455010.04173 73098.5028345,-4454998.3319 73048.4585604,-4454863.88536 73004.5388138,-4454750.99139 72922.0133003,-4454700.93256 72765.9683943,-4454705.9781 72742.146232,-4454684.56564 72499.5817561,-4454472.71458 72221.4898464,-4454239.70293 72201.1127691,-4454182.65457 72111.9553764,-4454122.5461 71900.5150787,-4453952.58383 71898.1591167,-4453954.73045 68251.5672112,-4457742.74881 58783.4563156,-4448513.80464 56831.4663711,-4446677.44244 56561.4801209,-4446423.36505 56492.4595149,-4446358.44648 56421.8527509,-4446292.13284 53338.1058309,-4443389.69041 53214.1558536,-4443273.40628 53164.1439626,-4443228.71628 53145.6387335,-4443212.44045 51254.1676266,-4441537.54455 49320.3053599,-4439644.74146 49277.7212879,-4439603.0632 48731.8428628,-4439068.73034 45803.8473532,-4436431.60453 45412.7662132,-4436078.41794 44604.5114933,-4435350.25076 40794.0507161,-4432119.54775 39731.1739626,-4431108.16292 39494.7477929,-4430883.25507 39487.5941196,-4430876.72627 38637.256532,-4430067.79297 35931.9304309,-4427396.73068 35567.4423915,-4427045.73868 35463.4260774,-4426944.59128 28005.2905563,-4419764.0351 27987.2187902,-4419746.72153 27461.1128634,-4419240.26155 27053.7636544,-4418847.00196 27005.7079337,-4418801.65433 19468.573942,-4411518.63672 19493.0101777,-4411447.70485 19504.0374347,-4411417.05631 19609.6787918,-4411304.52306 19767.058229,-4411252.08645 19984.5805283,-4411274.18491 20017.9945255,-4411285.53531 20019.5174538,-4411285.93754 20172.099198,-4411334.62707 20309.9386234,-4411426.1796 20356.4984559,-4411440.18734 20525.4892891,-4411436.92311 20590.021593,-4411435.31323 20889.9117424,-4411375.30794 21041.8835602,-4411324.21403 21315.0470803,-4411232.46962 21474.8980444,-4411030.64487 21625.0500981,-4410880.34639 21819.8880217,-4410820.53793 22002.4372648,-4410802.93668 22101.5158484,-4410799.12974 22121.9236382,-4410794.3379 22577.4130801,-4410740.4093 22899.9178675,-4410655.51177 23154.9632731,-4410565.42306 23464.3871335,-4410510.30594 23629.3176787,-4410494.32519 23878.2616626,-4410508.43578 23919.9843709,-4410505.28282 24103.2511929,-4410495.12294 24191.8663679,-4410472.0184 24364.2573734,-4410404.6567 24560.8420159,-4410329.26836 24618.8236158,-4410307.11441 24709.336897,-4410258.93544 24896.8918153,-4410194.60276 25065.312682,-4410162.92928 25272.9316603,-4409923.64225 25763.6928306,-4409639.89874 26284.2696662,-4409377.719 26489.673022,-4409244.88044 26717.3036626,-4409010.31688 27026.3261555,-4408654.79667 27383.126939,-4408179.46156 27469.3367902,-4407973.35834 27506.2116856,-4407854.73308 27545.7853942,-4407790.33388 27613.1233964,-4407628.84948 27851.1132656,-4407376.66832 27852.2611006,-4407375.09819 28135.1098771,-4407208.40008 28284.7561552,-4407085.60267 28495.3240344,-4406990.87287 28659.6558419,-4406800.76925 28701.5701032,-4406569.04089 28894.2390982,-4405847.14776 28961.2856791,-4405790.9862 29041.6177019,-4405723.99956 29141.6293582,-4405640.79116 29231.6162956,-4405537.26001 29239.1345965,-4405447.453 29280.6851544,-4405370.95406 29374.1901698,-4405334.57105 29441.6911932,-4405297.34515 29509.0520454,-4405214.7152 29514.2668172,-4405210.39151 29637.6020358,-4405089.77134 29786.5497189,-4404952.05402 29904.5876904,-4404846.24348 30116.704868,-4404779.86897 30259.0212077,-4404749.86778 30454.1968957,-4404734.97286 30549.5718914,-4404735.90011 30626.499269,-4404682.10728 30679.048758,-4404637.34882 30790.6242938,-4404531.95055 30847.1418062,-4404478.95567 30979.0894375,-4404427.15743 31115.5275114,-4404422.48219 31181.4782582,-4404419.78964 31305.9780882,-4404376.44932 31492.6762479,-4404428.46491 31659.6903417,-4404370.94625 31719.6802651,-4404250.86169 31733.6641841,-4404133.20076 31830.5856705,-4404068.15875 32019.5019516,-4403950.86384 32128.1144675,-4403865.61772 32201.5697086,-4403820.03184 32223.6587123,-4403790.68339 32240.6593477,-4403767.64645 32268.953003,-4403729.91954 32319.9703395,-4403645.33815 32372.1007085,-4403586.13638 32403.9682345,-4403549.67969 32492.0934661,-4403511.1469 32519.5435898,-4403499.42296 32583.5230733,-4403422.50213 32666.4711914,-4403302.45891 32696.0177381,-4403182.31439 32732.565773,-4403042.76255 32768.4743438,-4402853.84848 32811.6303823,-4402735.83424 32848.9293874,-4402663.10385 32871.5548661,-4402610.76709 32954.0188906,-4402502.73257 33026.5471651,-4402462.19765 33086.452502,-4402380.04786 33107.6223957,-4402300.85686 33108.5177756,-4402295.31081 33146.0617628,-4402250.01136 33168.5258339,-4402222.63606 33273.5451058,-4402147.60242 33368.0876781,-4402096.18892 33461.5613412,-4402094.74491 33522.0981474,-4402116.84985 33544.0692069,-4402124.93605 33633.9018217,-4402117.236 33678.5220861,-4402065.49949 33769.0918601,-4401892.5795 33803.8982732,-4401780.58684 33813.3887887,-4401765.01391 33882.0235022,-4401651.37266 34014.5867844,-4401566.10865 34351.9988832,-4401520.23556 34432.4667115,-4401435.78461 34488.8694467,-4401329.9073 34555.4840907,-4401278.77163 34616.4186323,-4401232.4877 34732.9744642,-4401138.76035 34782.8564981,-4401099.16634 34905.0568394,-4400996.09902 34953.8501762,-4400955.07731 34978.0614389,-4400935.57624 35081.4227752,-4400850.17244 35162.4773996,-4400826.06512 35231.4181255,-4400835.16193 35280.4827298,-4400849.51244 35404.0693705,-4400862.62535 35478.8757159,-4400834.42372 35538.989477,-4400775.21883 35644.0542269,-4400685.21676 35802.917274,-4400558.36725 35883.8627673,-4400422.49204 35906.4070705,-4400317.76875 35897.0285826,-4400256.48842 35905.8290161,-4400233.97399 36009.509808,-4400126.09718 36072.0171228,-4400100.67311 36203.5202107,-4400045.92033 36209.9180275,-4400044.51629 36318.9647133,-4400025.12051 36379.3661284,-4399974.38162 36419.9501644,-4399957.33509 36521.3447575,-4399927.44729 36577.8562646,-4399901.90509 36607.9441742,-4399888.51873 36661.3875826,-4399838.22174 36693.88199,-4399807.717 36731.3041332,-4399732.98838 36746.4602854,-4399665.16179 36766.8320202,-4399561.57594 36791.325368,-4399349.94676 36752.4532686,-4399142.33865 36740.4356568,-4399015.85874 36731.8088982,-4398927.0869 36690.9764722,-4398747.54632 36692.914022,-4398726.96478 36720.8916896,-4398452.24209 36770.3668313,-4398343.31734 36923.5062198,-4397874.53235 37056.8688911,-4397648.51378 37421.0002697,-4397386.90087 37449.3729482,-4397366.13977 37532.3584459,-4397282.03657 37633.4060358,-4397179.82251 37957.4015006,-4396883.33606 38109.9432647,-4396534.85446 38258.8984229,-4396271.42814 38364.2726723,-4396076.13249 38454.4198488,-4396010.53888 38478.872461,-4395983.04155 38522.3714134,-4395960.82317 38532.338856,-4395956.6983 38613.7790231,-4395915.10893 38801.4542027,-4395908.19817 39048.7487356,-4395912.97507 39140.416078,-4395914.647 39168.9011116,-4395915.33561 39268.3855189,-4395871.10551 39278.3492446,-4395862.98916 39423.9238346,-4395742.98713 39498.3532998,-4395712.8203 39618.9172029,-4395690.20661 39665.894326,-4395667.76818 39790.8352219,-4395607.95353 39808.2777397,-4395591.87857 39896.421233,-4395510.44693 40001.2913455,-4395480.34631 40196.4416826,-4395465.47812 40421.8081943,-4395443.20556 40464.7010711,-4395438.9891 40683.7170824,-4395367.72221 40878.8604192,-4395278.01094 41014.365254,-4395223.51558 41476.8579702,-4394963.17722 41996.6171517,-4394693.22435 42426.1982329,-4394452.9411 42519.8305835,-4394363.6816 42612.8223232,-4394252.50932 42644.7770529,-4394174.14508 42613.6752698,-4394092.79252 42591.2876277,-4393995.42024 42640.3347892,-4393856.09927 42740.7533902,-4393747.94979 42861.158442,-4393620.57192 42965.255142,-4393527.15831 43002.1902954,-4393495.87878 43038.7824856,-4393463.12418 43046.2927061,-4393455.66301 43086.1536644,-4393395.75842 43120.13904,-4393294.31513 43183.794234,-4393200.47158 43220.2778329,-4393185.68599 43226.2657341,-4393177.8224 43282.2177165,-4393155.31685 43325.7636769,-4393118.13037 43348.7570267,-4393020.37778 43386.1976851,-4392855.35077 43446.1787806,-4392750.76415 43474.6167661,-4392734.99184 43519.8214249,-4392712.16985 43600.7956405,-4392675.10682 43604.6452282,-4392672.86713 43691.1000351,-4392615.99834 43781.2606552,-4392570.37042 43920.3137526,-4392528.62974 43997.7070793,-4392517.73863 44006.123574,-4392516.7064 44088.7496444,-4392450.60093 44171.3127047,-4392383.50175 44253.1803425,-4392266.05451 44313.7358938,-4392142.97277 44358.7571974,-4392014.88826 44438.7251326,-4391891.07603 44539.7635928,-4391780.89716 44642.7131523,-4391543.37032 44714.0729141,-4391413.61838 44763.7889992,-4391363.56965 44816.130339,-4391295.89217 44868.7696962,-4391213.22807 44950.6807443,-4391183.09306 45024.2798156,-4391167.45459 45078.6289889,-4391123.59883 45091.7045967,-4391085.84999 45116.123293,-4391018.44493 45153.2433639,-4390911.31916 45198.2000687,-4390778.25192 45168.6800963,-4390650.89982 45094.8124571,-4390567.76727 45093.2272374,-4390566.37089 45058.6091152,-4390508.19331 45082.7848805,-4390409.37147 45157.3099649,-4390349.27079 45221.1144805,-4390320.78256 45333.2406017,-4390283.24701 45416.3009792,-4390290.95872 45506.1692654,-4390268.30384 45516.6263618,-4390256.16634 45573.7801401,-4390185.69107 45733.7507298,-4390013.41059 45840.7520126,-4389863.44418 45883.0931939,-4389720.56625 45884.0837768,-4389716.51216 45911.1724616,-4389608.52681 45941.1831965,-4389503.35004 45985.6917938,-4389465.60737 46061.0923184,-4389450.85466 46154.6446716,-4389376.08024 46218.7894561,-4389270.23945 46301.2780727,-4389225.60207 46360.5662074,-4389220.35142 46421.6314796,-4389223.46983 46545.7865302,-4389198.64568 46678.5953852,-4389121.38657 46743.7889066,-4389083.33271 46826.1955734,-4389053.16952 46920.2168718,-4389021.27321 46963.5852055,-4388918.24603 46990.1495315,-4388813.78828 46993.6780097,-4388798.59753 47013.1976709,-4388701.07173 47045.6816843,-4388619.18934 47059.746318,-4388612.81092 47113.7815286,-4388603.40315 47203.7277733,-4388641.11411 47278.5737384,-4388633.38231 47290.5562743,-4388625.63898 47343.6379182,-4388589.35048 47399.5836472,-4388484.03126 47403.5525826,-4388475.79746 47408.6411842,-4388469.48841 47493.7446689,-4388355.83779 47666.1450019,-4388230.17557 47868.7123707,-4388116.07483 48093.7287366,-4388033.48138 48195.0893541,-4388015.09165 48342.7130844,-4388018.21978 48426.2226914,-4388048.85461 48492.0382003,-4388052.17204 48513.034234,-4388052.8386 48579.6954186,-4388026.16846 48618.7056656,-4387988.27724 48636.0469847,-4387962.73345 48660.2128766,-4387926.77971 48678.5351218,-4387845.79601 48716.2117635,-4387771.07081 48766.5219936,-4387726.47779 48783.4985871,-4387710.93519 48807.7212717,-4387707.40643 48963.7060943,-4387681.06982 49076.2269024,-4387598.61451 49175.1833761,-4387526.497 49469.5616086,-4387302.32102 49543.5376538,-4387178.40371 49565.622587,-4386983.43558 49543.7224599,-4386818.69016 49565.6569157,-4386668.63207 49675.5145586,-4386555.91524 50025.161399,-4386231.46343 50055.5450893,-4386203.09983 50184.6721178,-4386067.71315 50317.0573869,-4385928.62861 50324.0707198,-4385921.20047 50360.6217167,-4385753.75646 50398.5166978,-4385678.52158 50450.6676154,-4385603.88156 50466.543175,-4385488.13349 50428.592662,-4385408.71705 50383.7394526,-4385318.76169 50378.0759102,-4385304.15338 50373.594768,-4385292.46359 50353.6796063,-4385241.83924 50390.6622994,-4385191.60668 50458.6248691,-4385161.86431 50523.56855,-4385123.83192 50545.6473486,-4385078.5334 50561.0434876,-4385026.17436 50587.2186497,-4384935.21828 50591.0590982,-4384921.00659 50607.1588075,-4384895.54287 50668.1991772,-4384870.72869 50691.0503908,-4384861.30113 50798.1013886,-4384814.61913 50817.5341709,-4384802.41453 50891.1988139,-4384756.34781 50996.2351259,-4384673.87405 51096.1826955,-4384597.70898 51168.1828252,-4384568.70985 51185.6369137,-4384568.60365 51283.7102153,-4384561.40282 51291.1860825,-4384549.45576 51322.7029731,-4384499.56995 51328.1543624,-4384396.45608 51353.6938247,-4384326.99327 51433.5408847,-4384284.02854 51523.5053552,-4384231.44423 51673.7179608,-4384133.64299 51770.6190514,-4384096.0855 51838.5296934,-4384081.31429 51845.6402937,-4384079.36797 51898.7070935,-4384066.53329 51921.2201853,-4384020.2108 51926.6996897,-4383996.41717 51951.1533063,-4383886.11609 51980.6790267,-4383788.96396 52026.0088532,-4383728.72691 52072.5407176,-4383655.9421 52078.6831026,-4383646.57396 52078.5457177,-4383628.62321 52077.728045,-4383572.30224 52056.2122013,-4383496.33742 52056.0224045,-4383406.55222 52071.0249973,-4383324.28724 52067.2223591,-4383177.3601 52101.0779813,-4383053.99333 52153.1733892,-4382986.34493 52213.7158818,-4382918.16256 52242.6032813,-4382838.51214 52288.7331001,-4382723.84843 52318.5286997,-4382611.21529 52341.1196381,-4382499.03773 52410.1123935,-4382347.5093 52498.7578075,-4382274.05912 52558.152598,-4382250.84851 52611.1506859,-4382229.04005 52714.1140126,-4382200.58099 52822.6084102,-4382220.16249 52861.7706623,-4382220.18117 52933.6213024,-4382244.07451 53017.5398289,-4382249.7446 53057.2018232,-4382210.32128 53068.7157658,-4382199.11725 53216.6121231,-4382076.52578 53257.5276317,-4382052.98709 53261.2001518,-4382020.32877 53274.1283748,-4381901.2808 53323.5568409,-4381838.79164 53365.0980953,-4381777.79883 53391.0531365,-4381501.78363 53353.6279531,-4381276.6675 53339.6768323,-4381044.0813 53376.1049973,-4380953.48039 53418.6056351,-4380931.33885 53480.0901107,-4380921.4669 53526.1223788,-4380931.52823 53608.2178937,-4380951.782 53616.6195494,-4380930.79774 53638.5662165,-4380871.54293 53653.643615,-4380758.8453 53651.2886546,-4380721.57957 53682.6855222,-4380630.29948 53748.6550134,-4380549.3063 53806.6537779,-4380211.90434 53816.3040779,-4379926.44596 53823.7106234,-4379581.76525 53848.7356578,-4379480.41249 53965.7708289,-4379319.37052 54080.1788357,-4379223.34648 54251.2893545,-4379025.96513 54325.8405434,-4378958.40008 54358.3383791,-4378931.90338 54583.2472265,-4378749.08412 54628.1377564,-4378677.90579 54665.778974,-4378539.3415 54691.864503,-4378490.30293 54756.1750283,-4378434.36043 54812.2741629,-4378406.37349 54838.3414493,-4378376.79143 54852.1360668,-4378338.50634 54921.2087892,-4378156.55301 55011.2136478,-4377879.49438 55088.3138302,-4377623.2054 55131.2254559,-4377564.12569 55206.2266874,-4377519.48172 55280.7335687,-4377478.85983 55288.6808633,-4377474.36721 55320.8496882,-4377418.95921 55351.7763784,-4377363.6297 55386.3631651,-4377204.309 55453.7459734,-4377046.90851 55513.8450696,-4376813.64483 55536.7044253,-4376768.80201 55547.7144081,-4376745.65884 55566.3868619,-4376709.56078 55618.8283079,-4376544.62416 55637.914964,-4376376.80505 55700.8789904,-4376252.10985 55806.2408837,-4376139.20493 55901.4369932,-4376058.86799 55974.8024963,-4375980.40815 56001.4299927,-4375951.78986 56010.2018236,-4375924.79753 56046.282967,-4375816.76557 56057.8513724,-4375691.82385 56068.9373134,-4375539.47636 56083.9597892,-4375374.40946 56121.3460179,-4375164.53206 56105.8971185,-4375089.68327 56076.393925,-4375037.17157 56105.9088816,-4375006.87495 56133.8272109,-4375006.60956 56136.8397377,-4375006.91828 56166.4920954,-4374947.18144 56165.2980649,-4374872.92959 56136.3618706,-4374781.97136 56166.4847474,-4374729.68754 56196.3592208,-4374677.41945 56211.313478,-4374602.14861 56240.9082464,-4374549.39943 56293.8481027,-4374534.58546 56346.3128352,-4374504.33748 56386.4888867,-4374437.4521 56415.888436,-4374369.75029 56428.4476095,-4374339.52635 56481.293697,-4374271.84168 56541.4958338,-4374249.58601 56586.3342347,-4374189.39051 56645.9506436,-4374122.27661 56705.9438451,-4374009.74496 56773.4834279,-4373949.61396 56849.9303642,-4373880.44089 56958.8226406,-4373799.74308 56960.9283989,-4373789.63354 56986.4554218,-4373684.26553 56968.4856875,-4373597.10561 56938.948961,-4373484.73601 56886.450096,-4373296.99438 56865.9071431,-4373216.48144 56863.5111527,-4373154.77708 56901.4210397,-4373087.53716 56960.9755916,-4373019.43079 57013.8728976,-4372877.41829 57036.4201704,-4372772.23871 57028.8627248,-4372644.51525 57054.4632873,-4372556.10353 57075.9956281,-4372521.82243 57101.4955018,-4372419.94869 57119.6027144,-4372260.17788 57133.5075828,-4372191.95854 57146.6381526,-4372127.27988 57168.548608,-4371992.21103 57214.0197146,-4371894.56535 57266.4558545,-4371812.44316 57304.9286109,-4371750.15724 57321.4345317,-4371723.17714 57318.5565667,-4371630.07725 57251.4523915,-4371527.0601 57206.4853009,-4371415.16438 57191.1439715,-4371302.39812 57221.5982737,-4371227.64842 57206.1495212,-4371144.81882 57136.1785329,-4371079.39422 57064.0728987,-4370972.20214 56999.5943176,-4370898.94843 56983.7008039,-4370797.19089 56981.1786539,-4370784.87908 56984.9947121,-4370778.15365 57029.1628856,-4370679.59307 57058.241833,-4370586.97223 57063.1466228,-4370526.30428 57050.186256,-4370391.93775 57006.5925907,-4370289.9311 56981.7337786,-4370204.20244 56999.1158476,-4370072.4125 57022.6006509,-4369970.1679 56999.1558673,-4369914.77883 56931.2104176,-4369802.33481 56856.2235479,-4369704.80058 56772.7630062,-4369615.28276 56751.706408,-4369494.89437 56758.7665361,-4369397.17668 56733.6978962,-4369323.93152 56676.2874179,-4369224.29108 56666.6529041,-4369209.93325 56663.3377394,-4369165.24704 56654.2189172,-4369127.41145 56608.2302482,-4369015.07886 56601.2971952,-4369000.0519 56601.8173113,-4368925.19382 56602.867749,-4368854.79183 56564.2174751,-4368759.95462 56538.2599244,-4368708.215 56526.3228795,-4368685.02312 56511.843522,-4368609.61367 56550.7667642,-4368510.8856 56606.7250151,-4368445.00501 56696.3617037,-4368347.57112 56705.8565489,-4368332.00779 56741.7566155,-4368272.37973 56745.3578449,-4368270.15747 56831.7539805,-4368212.33604 56929.212287,-4368167.78505 57026.693705,-4368107.76893 57028.7376913,-4368096.66584 57058.245282,-4368046.41993 63333.950661,-4374049.96233 63384.0964578,-4374097.67474 66836.1866238,-4377374.20279 67292.630706,-4377821.69746 69776.772884,-4380125.12325 70158.5922572,-4380508.46907 70160.7362292,-4380510.82729 70059.0309059,-4380570.61916 69988.082463,-4380702.78008 69953.0544151,-4380740.40419 69932.0815358,-4380763.67414 69856.0709437,-4380803.88813 69774.216481,-4380834.49666 69708.1833723,-4380890.53883 69683.5520835,-4380966.40816 69673.1588591,-4381022.92424 69627.5899206,-4381083.15958 69627.6287435,-4381139.01644 69612.6614691,-4381225.74632 69581.6723996,-4381311.49386 69500.1973758,-4381352.05404 69453.7181215,-4381397.88369 70010.4497558,-4381877.39825 70075.6528803,-4381922.65216 70085.9676229,-4381931.97499 70683.542717,-4382477.72417 71541.9365121,-4383259.82943 79763.1367891,-4391322.16502 79792.6533959,-4391351.21282 79817.1054209,-4391375.09604 79889.9996756,-4391451.26292 80902.7869251,-4392513.58362 80906.7952247,-4392517.8176 80910.7651331,-4392513.5767" style="stroke-linejoin:round;stroke:#000;stroke-width:1px;fill:none" /></g></g></svg>