<svg xmlns="http://www.w3.org/2000/svg" baseProfile="full" height="29844.0013022" version="1.1" viewBox="24364.934965,4019400.445302,27514.958342,29844.001302" width="27514.958342"><defs><style type="text/css">polyline,line,rect,path,polygon,.polygon{fill:none;stroke:#000;stroke-width:1px;stroke-linejoin:round;}</style></defs><g fill_rule="evenodd" transform="scale(1,-1)"><g class="id" id="06805"><g fill_rule="evenodd" id="None"><polygon class="_06805" points="44491.0374621,-4023313.85315 44502.0273856,-4023325.05074 44484.8591131,-4023695.95809 44504.1654298,-4023938.77504 44556.9995668,-4024039.75351 44651.7285624,-4024108.93059 44715.2255808,-4024094.06942 44857.0230971,-4024195.36365 44997.318628,-4024336.1247 45103.8518206,-4024482.21311 45207.2081848,-4024524.8813 45402.5677251,-4024701.68805 45624.5195296,-4024913.5232 45789.2178591,-4025086.4722 45986.3113994,-4025313.47968 46071.9780013,-4025330.96329 46202.9624609,-4025470.37074 46328.7046713,-4025659.96674 46352.092263,-4025753.01571 46432.6360547,-4025847.58535 46528.2233967,-4025929.1542 46617.1814599,-4026080.43995 46686.2690708,-4026333.25189 46899.2354539,-4026541.21479 47041.3951407,-4026755.57802 47202.3640727,-4027018.46205 47336.1296787,-4027284.22675 47598.4616075,-4027780.2392 47783.2342847,-4028228.31196 48001.7497824,-4028800.09967 48379.5945361,-4029646.82813 50156.7508853,-4032977.83025 50292.0888979,-4033212.07282 50259.6728723,-4033218.80715 50146.4875211,-4033045.30624 50104.7309662,-4033118.45601 50032.9922923,-4033097.02918 49992.6103218,-4033032.07202 49946.4298925,-4032962.53489 49910.9096621,-4032910.19428 49860.5216173,-4032837.46135 49784.1556911,-4032792.43978 49778.195385,-4032692.2093 49759.9296078,-4032565.42977 49725.6873775,-4032423.81537 49687.9534035,-4032292.90619 49638.0829774,-4032209.6736 49587.1299372,-4032013.91391 49462.0325559,-4031848.21097 49398.2330791,-4031718.61142 49339.398575,-4031725.18515 49272.584726,-4031684.97961 49257.518811,-4031640.18679 49230.145618,-4031604.71803 49198.4645612,-4031632.82489 49138.4590258,-4031640.47627 49079.2963795,-4031599.24133 49005.4300476,-4031561.51777 48912.9579836,-4031478.2501 48836.1163902,-4031440.7327 48783.8306766,-4031448.34648 48741.9639761,-4031469.68647 48756.7525286,-4031546.3867 48842.1210364,-4031692.42808 48916.0879671,-4031785.4498 48983.1351231,-4031850.55155 49008.8920054,-4031984.78487 48978.6412004,-4032058.63129 48992.2199309,-4032103.52748 49038.0911177,-4032150.66685 49072.7542251,-4032118.86496 49097.4552022,-4032022.48454 49146.4963555,-4032025.5585 49168.6661234,-4032147.58427 49207.6570286,-4032199.68512 49233.8213561,-4032325.41946 49171.1888169,-4032406.49562 49091.8263701,-4032530.08732 49071.7406207,-4032621.16531 49087.8257601,-4032687.81014 49072.176212,-4032756.65756 48983.0393831,-4032757.36361 48925.1841987,-4032717.03531 48867.0319161,-4032701.1416 48811.3848985,-4032724.93371 48775.2062902,-4032770.79223 48715.7172958,-4032767.94573 48690.8589246,-4032678.98999 48711.2600811,-4032624.75981 48713.1790554,-4032516.00871 48622.8934866,-4032471.45348 48481.7531932,-4032462.31541 48478.6865796,-4032507.86892 48401.6130904,-4032549.59024 48290.8223568,-4032557.7777 48270.0957423,-4032650.39614 48272.062344,-4032728.98334 48212.5567624,-4032786.92457 48099.8313448,-4032770.83235 47959.7804384,-4032694.85311 47839.3049449,-4032552.74175 47818.0483059,-4032469.01544 47774.325243,-4032409.76797 47767.538902,-4032315.57047 47704.5364096,-4032315.95669 47645.4075694,-4032397.28982 47604.241882,-4032439.50896 47614.8795887,-4032503.04579 47650.3248295,-4032557.88532 47637.9721777,-4032659.88868 47574.6934794,-4032674.24562 47536.5305294,-4032720.24268 47379.4642183,-4032722.17519 47259.9882028,-4032698.57876 47191.5825018,-4032779.06199 47171.6219379,-4032825.29082 47191.8040073,-4032933.00912 47466.6432083,-4033238.79756 47505.2764043,-4033346.72926 47530.3437036,-4033402.78715 47616.9480903,-4033412.22136 47702.7731634,-4033457.08586 47736.9582372,-4033540.41296 47734.6222358,-4033592.89208 47718.0429989,-4033684.22753 47660.9002272,-4033729.54985 47624.2872327,-4033797.86166 47557.4614553,-4033832.89471 47483.7978172,-4033816.08532 47435.2787937,-4033799.02504 47368.8047537,-4033799.65381 47327.364032,-4033855.84463 47278.2512389,-4033905.59251 47297.9470163,-4033973.98166 47279.9500476,-4034030.5381 47223.8401853,-4034072.79979 47182.1600969,-4034035.83258 47122.4422514,-4034022.53942 46991.1452331,-4034083.47436 46954.0365734,-4034133.88407 46889.6343002,-4034178.71485 46888.2077985,-4034237.11086 46855.2450293,-4034304.17392 46818.5080341,-4034381.46443 46857.3718521,-4034410.15672 46978.8538741,-4034423.14722 46983.7502874,-4034454.19788 46988.6811478,-4034485.74442 46999.9756779,-4034522.82826 47030.2102755,-4034509.76712 47121.2442749,-4034500.4566 47166.6024104,-4034540.15776 47167.4973246,-4034588.92537 47148.7710331,-4034620.61969 47072.4824531,-4034623.42562 47051.7041913,-4034600.45347 47023.7287096,-4034599.40641 46988.2878979,-4034559.01656 46911.7511745,-4034561.83962 46898.1147939,-4034544.84893 46859.6087458,-4034550.01394 46852.9693079,-4034576.38475 46828.8984851,-4034606.45727 46776.0329092,-4034584.21823 46719.8132979,-4034556.73109 46672.8433177,-4034508.17271 46651.2246057,-4034498.21365 46633.8756734,-4034513.86801 46625.6177531,-4034534.87036 46632.4215087,-4034622.09298 46677.9800379,-4034632.38277 46697.8492415,-4034667.3766 46725.0187509,-4034717.80802 46736.4855362,-4034775.30898 46710.7824924,-4034806.98979 46683.0133549,-4034826.85568 46643.0333529,-4034825.14748 46576.2623408,-4034796.40009 46521.9292626,-4034817.61234 46523.1550658,-4034842.44064 46553.3277352,-4034860.77445 46562.7492648,-4034895.99553 46606.9028884,-4034918.34112 46622.5366156,-4034982.03031 46598.2937102,-4035009.62374 46574.1540963,-4035056.64248 46549.2500444,-4035060.36498 46528.2716902,-4035048.86681 46485.0132717,-4035039.4141 46450.3086907,-4035056.27391 46445.4256457,-4035107.93476 46469.627306,-4035190.95988 46438.6211655,-4035200.0889 46438.5592374,-4035231.48419 46458.4907915,-4035235.08271 46458.9936869,-4035285.37301 46439.4134969,-4035319.12034 46399.2267994,-4035350.31263 46344.3013952,-4035366.58388 46236.5164989,-4035375.06595 46122.8978216,-4035360.53436 46096.1821221,-4035330.99854 46023.9831355,-4035324.55231 45941.3498498,-4035311.35659 45875.8795357,-4035304.94128 45835.2928313,-4035287.33064 45799.7889711,-4035296.27385 45763.2450837,-4035293.82895 45729.1186876,-4035322.60754 45690.8254559,-4035345.19794 45637.8277365,-4035335.42503 45572.1298222,-4035336.49964 45516.8731767,-4035394.64932 45539.0505962,-4035462.86799 45569.0999468,-4035472.24146 45583.3775015,-4035505.63102 45618.7163514,-4035526.59575 45667.2515345,-4035590.49229 45692.3630014,-4035643.55866 45687.3840546,-4035708.18214 45655.9716362,-4035761.68637 45623.1267769,-4035823.26259 45639.822564,-4035905.81354 45687.690566,-4036003.1407 45747.0670842,-4036083.2252 45764.5545452,-4036123.36746 45762.8471683,-4036163.34818 45730.3329424,-4036200.98432 45679.8836898,-4036209.96969 45649.1593129,-4036201.64005 45640.0133812,-4036224.19956 45677.5907899,-4036241.52043 45689.079678,-4036288.55699 45672.143889,-4036292.2248 45672.1930263,-4036339.55775 45719.3440412,-4036369.16871 45779.760119,-4036406.82714 45811.3464302,-4036463.42959 45825.8796766,-4036511.2511 45857.7552642,-4036564.8437 45864.5203515,-4036637.12207 45824.0660073,-4036696.73595 45774.6993667,-4036749.9932 45708.6987459,-4036761.05599 45626.7744159,-4036765.25258 45563.6795566,-4036757.17891 45515.0405466,-4036727.67151 45475.0804634,-4036733.43725 45432.1246487,-4036749.87499 45377.9691468,-4036734.2043 45306.001971,-4036680.90505 45286.8753876,-4036663.79737 45268.7546264,-4036657.58199 45249.8696258,-4036661.88361 45235.5718117,-4036674.83563 45190.9495499,-4036710.32385 45173.0427096,-4036721.53348 45152.0503853,-4036734.95061 45113.4268024,-4036763.54451 45085.7127787,-4036791.38055 45078.6956072,-4036830.23583 45091.355372,-4036858.25675 45161.1614278,-4036948.57908 45220.1681437,-4037037.65838 45276.3177111,-4037157.33121 45271.0063685,-4037321.13671 45282.2651353,-4037450.90434 45302.109492,-4037499.85197 45302.0150044,-4037548.69018 45325.8737586,-4037572.94302 45347.7894359,-4037576.40302 45350.319024,-4037623.56402 45331.365183,-4037626.87417 45334.6933216,-4037664.01406 45374.5793201,-4037696.6205 45373.7815873,-4037724.57971 45344.4275946,-4037721.63663 45319.6803798,-4037698.94044 45294.142157,-4037700.71502 45258.5618057,-4037694.21831 45228.3395745,-4037682.36645 45179.2173751,-4037645.91714 45220.5387507,-4037742.20417 45252.6435405,-4037806.24489 45256.5643291,-4037848.32647 45253.874681,-4037920.76439 45205.7129734,-4037955.50305 45196.4642313,-4037976.57538 45210.6122046,-4038004.49265 45253.3283922,-4038020.45895 45248.8469775,-4038067.11071 45281.5352988,-4038085.76697 45290.8622745,-4038116.01233 45291.0430876,-4038150.87957 45326.7201647,-4038162.35211 45361.9501299,-4038185.31619 45401.8757602,-4038179.05356 45438.9715147,-4038189.43089 45465.206547,-4038212.02346 45498.7850618,-4038264.9991 45508.5955426,-4038320.1248 45497.7990336,-4038372.6964 45484.5700058,-4038401.02129 45458.1578474,-4038415.31397 45427.8177778,-4038391.01365 45392.6596229,-4038422.85577 45407.6549991,-4038452.20881 45469.5307561,-4038449.90156 45483.1964043,-4038470.87619 45528.1018759,-4038471.74148 45535.8256117,-4038525.51733 45528.3214799,-4038578.85671 45510.9731922,-4038594.51262 45470.7318302,-4038617.73907 45458.7092183,-4038663.42007 45430.8161224,-4038674.32783 45412.4693738,-4038693.54117 45342.508122,-4038701.39348 45320.7668266,-4038736.28958 45289.7593995,-4038727.48252 45273.5308147,-4038694.72719 45237.9302554,-4038698.69643 45239.4080613,-4038648.26703 45253.6421845,-4038612.89613 45287.8018715,-4038584.6112 45276.6567344,-4038560.47163 45234.8452244,-4038589.78666 45189.1277918,-4038605.91952 45134.0774162,-4038613.23366 45074.6118171,-4038614.37696 45095.5302557,-4038639.33219 45128.9415979,-4038650.46369 45176.8237401,-4038669.06024 45178.1345194,-4038705.84219 45177.8609325,-4038737.75142 45203.6215282,-4038767.85113 45202.3350799,-4038792.35648 45178.7403155,-4038814.92441 45149.588475,-4038854.32201 45105.6822506,-4038867.83778 45044.3164402,-4038881.07228 44994.493922,-4038895.49759 44936.0054892,-4038885.61093 44924.8435168,-4038925.75144 44887.708406,-4038954.24355 44826.9083488,-4038986.37376 44753.1527608,-4039014.91997 44697.158005,-4039015.82237 44619.7752103,-4038977.84997 44557.7873296,-4038964.22019 44511.2421906,-4038968.45203 44502.2082902,-4039006.95004 44456.5815951,-4039049.48647 44308.3671711,-4039214.75766 44286.2931256,-4039219.78012 44145.2158446,-4039208.16002 44018.2102569,-4039209.01565 43998.3053602,-4039209.40268 43935.3116536,-4039202.81895 43885.266909,-4039203.30784 43748.0101714,-4039174.97811 43570.3069659,-4039109.59575 43456.8784741,-4039047.71813 43355.2970712,-4038994.9828 43297.1850579,-4038972.61205 43271.0666597,-4038962.46822 43209.6478158,-4038928.368 43168.3964988,-4038904.82521 43094.7779218,-4038842.17296 43020.1608319,-4038783.07808 42972.8541333,-4038740.52214 42852.748301,-4038632.76489 42706.4329709,-4038488.45921 42654.7243689,-4038432.75448 42627.4129928,-4038398.27621 42515.7485039,-4038229.13764 42411.3725287,-4038082.41411 42317.446954,-4037971.34039 42272.7712496,-4037923.6174 42215.3463737,-4037875.28531 42185.6597037,-4037860.40563 42149.0025067,-4037842.02382 42063.5860989,-4037799.623 41940.2597342,-4037763.84267 41825.2198504,-4037746.92053 41778.9535582,-4037715.75176 41691.470639,-4037679.47377 41636.3054482,-4037652.90968 41539.7641016,-4037593.84013 41475.3202932,-4037548.48631 41456.2821166,-4037539.84279 41398.0169733,-4037504.52416 41279.358312,-4037435.52951 41174.8615627,-4037387.47656 41160.7757719,-4037381.97708 40864.1591884,-4037211.7288 40805.7558959,-4037174.42576 40757.4157034,-4037134.92859 40706.9884386,-4037094.08138 40629.2430051,-4037022.24273 40597.6890636,-4037002.01034 40585.9450134,-4036994.35474 40566.8032998,-4036984.22311 40515.4621289,-4037285.2878 40512.0600725,-4037304.46039 40502.8118952,-4037379.35289 40441.3004733,-4037519.66854 40413.1721698,-4037577.43502 40403.3920328,-4037598.04746 40301.0269653,-4037691.86811 40289.9583878,-4037701.10868 40295.5034697,-4037709.19491 40284.2146261,-4037722.43738 40271.3346181,-4037734.29544 40253.6939751,-4037717.08313 40244.6780297,-4037727.17773 40102.6464637,-4037856.14617 39944.9726649,-4037996.667 39895.0159792,-4038041.49948 39847.9659611,-4038085.13341 39824.051767,-4038106.72828 39820.1120158,-4038110.98867 39815.1459353,-4038114.82205 39750.8902855,-4038172.60824 39674.4640003,-4038241.7052 39669.5668389,-4038246.53048 39666.9770432,-4038248.70376 39609.0373866,-4038300.56969 39605.0287076,-4038303.83824 39601.550427,-4038307.56826 39604.6159735,-4038315.82686 39611.4010401,-4038323.82699 39617.4766663,-4038332.37474 39629.593458,-4038348.9743 39638.1554907,-4038353.86096 39543.4762671,-4038429.21005 39527.407093,-4038441.78836 39514.6371539,-4038451.64574 39500.2692907,-4038463.6075 39489.8067127,-4038470.81289 39482.9258043,-4038475.77605 39477.8907868,-4038478.61761 39456.0082145,-4038493.59326 39432.7067539,-4038509.6642 39428.6980726,-4038512.93277 39423.2015788,-4038516.30473 39403.481784,-4038530.13345 39373.644042,-4038556.12697 39356.7552919,-4038571.25397 39326.5249984,-4038598.76981 39114.031033,-4038789.44941 39008.0146923,-4038884.52451 38949.0829738,-4038936.46057 38944.6128056,-4038940.2596 38926.0571552,-4038956.49934 38869.2882099,-4039007.28855 38856.3736403,-4039018.65122 38825.6473217,-4039046.20198 38809.1855239,-4039060.3029 38724.9205196,-4039134.93028 38683.2978392,-4039174.20196 38637.85216,-4039212.2444 38632.2110631,-4039217.12154 38559.9098221,-4039277.4626 38555.4741134,-4039281.75763 38547.0296987,-4039289.32134 38462.2653073,-4039310.16317 38365.0954652,-4039335.3557 38362.4022314,-4039336.04124 38257.9309078,-4039363.7347 38155.0918097,-4039389.81975 38096.336382,-4039404.86722 38050.7646912,-4039416.00829 37950.1570184,-4039441.93837 37854.4397423,-4039466.5319 37734.2349907,-4039497.31269 37661.5168836,-4039515.82258 37589.5770922,-4039534.77676 37515.9013791,-4039553.85163 37167.6488579,-4039644.83742 37180.8340039,-4039658.8715 37195.5281737,-4039680.27598 37223.4697915,-4039720.19534 37227.2396344,-4039749.33608 37229.8373476,-4039761.61431 37233.7305954,-4039781.77613 37274.1268079,-4039828.80331 37274.4782117,-4039830.27394 37293.6862651,-4039880.76733 37296.8979241,-4039905.46167 37311.4393891,-4040007.11131 37312.4869738,-4040015.01212 37328.8400579,-4040114.04404 37314.6734877,-4040150.41187 37296.2714267,-4040197.53956 37284.4666409,-4040221.28443 37271.1116635,-4040240.65191 37270.1131259,-4040244.20979 37243.5995417,-4040328.77959 37239.0404956,-4040342.05372 37230.7551626,-4040359.07538 37225.9892428,-4040369.37377 37224.425796,-4040371.97423 37222.9313091,-4040375.5666 37219.0472453,-4040387.79711 37215.7002373,-4040397.00016 37217.2650774,-4040412.34032 37219.8907942,-4040428.60342 37220.0221,-4040434.07618 37220.1600216,-4040436.06001 37219.1071695,-4040449.58874 37219.341919,-4040456.54937 37217.7718618,-4040462.63876 37217.4483089,-4040465.15302 37215.3756833,-4040474.76583 37214.907595,-4040478.7852 37214.5429494,-4040484.29244 37207.5797271,-4040495.24197 37206.298744,-4040498.32115 37199.9217007,-4040517.70194 37197.8623031,-4040520.33689 37190.0861881,-4040530.34624 37184.1625836,-4040534.7449 37178.2044974,-4040538.64761 37166.7578458,-4040560.3743 37167.7115621,-4040599.17959 37167.7951907,-4040611.13427 37181.5535676,-4040640.57729 37185.3157925,-4040655.26633 37188.312808,-4040662.53326 37197.6208024,-4040685.30873 37202.7674587,-4040698.40645 37208.6991339,-4040708.45946 37210.3594158,-4040710.83579 37208.1371941,-4040743.38329 37205.391146,-4040771.98038 37202.7551557,-4040798.57641 37204.7090591,-4040851.76442 37209.8557526,-4040864.86212 37230.4080685,-4040916.75696 37230.6936399,-4040953.11693 37211.1196712,-4040983.38247 37209.9832357,-4040984.95655 37205.0105078,-4040992.27927 37149.7850715,-4041050.93823 37134.7142029,-4041059.95984 37116.27509,-4041070.71072 37095.653404,-4041093.07553 37077.2701022,-4041111.79623 37064.5016123,-4041139.59527 37063.2419951,-4041150.14832 37063.0974755,-4041151.65343 37057.7535946,-4041167.97239 37048.7048067,-4041195.51281 37022.2416769,-4041216.29046 36974.0943339,-4041240.56939 36966.0768899,-4041247.10717 36924.9977453,-4041279.86507 36882.1055318,-4041297.30002 36850.490629,-4041326.40973 36839.0507436,-4041344.64775 36838.3298383,-4041370.11411 36837.8143942,-4041455.86747 36837.4236063,-4041475.33059 36836.1308364,-4041711.14376 36826.950827,-4041733.21158 36821.1866382,-4041747.06812 36803.9202407,-4041774.68189 36793.6168996,-4041791.34591 36790.6215279,-4041802.01975 36784.3828096,-4041823.38469 36774.1074346,-4041844.03365 36769.69971,-4041852.31393 36762.7301336,-4041866.75268 36743.2813383,-4041905.98057 36739.7620616,-4041912.70399 36736.3117709,-4041920.41933 36735.9752136,-4041929.91156 36733.8915874,-4041964.44326 36732.1659676,-4041996.95662 36741.6731144,-4042008.25603 36748.2389949,-4042020.25836 36799.2184955,-4042072.52896 36809.4350932,-4042083.28064 36820.4580992,-4042098.46147 36857.4882876,-4042147.21691 36866.2515081,-4042158.56801 36866.6719615,-4042161.03056 36868.2157969,-4042168.89692 36871.5514504,-4042184.61238 36871.5104408,-4042187.60538 36871.9523623,-4042197.54181 36872.2218096,-4042204.99845 36872.7737326,-4042212.93379 36871.2103518,-4042215.53432 36846.58223,-4042259.1094 36825.0594053,-4042290.00955 36818.4544221,-4042298.94105 36781.5933134,-4042349.34738 36773.6039426,-4042359.87026 36766.7509829,-4042368.81903 36755.8828387,-4042384.52575 36749.0643769,-4042393.97048 36734.8215021,-4042414.89554 36727.720565,-4042423.86157 36703.1120182,-4042456.96992 36655.7342994,-4042524.55385 36654.4879012,-4042528.12907 36640.0875705,-4042557.53728 36641.6444499,-4042558.42571 36628.8139951,-4042581.74441 36627.4791264,-4042594.79464 36626.2542471,-4042605.84378 36622.7845634,-4042624.02612 36621.8551481,-4042628.57602 36616.60213,-4042653.36111 36615.748203,-4042655.41395 36614.6807942,-4042657.98 36613.6478844,-4042661.04202 36611.3340847,-4042667.1833 36602.7387954,-4042679.74185 36601.8503698,-4042681.29874 36600.4659829,-4042682.89012 36594.9974334,-4042690.24757 36571.7863212,-4042714.78677 36568.3426037,-4042719.01321 36560.5127919,-4042738.99395 36555.6027228,-4042750.79782 36551.3826519,-4042772.52093 36550.4532462,-4042777.07084 36547.0935883,-4042793.25212 36544.2018761,-4042805.41395 36543.5614336,-4042806.95359 36541.5991267,-4042814.56552 36532.6415269,-4042850.57233 36531.062977,-4042899.52161 36527.7529325,-4042927.16179 36527.3195,-4042931.6772 36517.1069725,-4042956.80737 36497.9477232,-4042993.02555 36468.826104,-4043014.98591 36446.7643963,-4043030.97317 36438.0031089,-4043037.56301 36424.9161631,-4043046.44722 36420.6250071,-4043049.23756 36416.5473303,-4043051.51468 36406.5116303,-4043057.69482 36346.0839254,-4043095.28891 36334.5667896,-4043098.08358 36329.4971807,-4043100.42971 36327.6168334,-4043102.05561 36301.0482634,-4043103.40554 36295.5926592,-4043103.78507 36267.0531459,-4043098.295 36226.2050845,-4043102.13339 36216.1758194,-4043104.82455 36193.6029573,-4043109.88343 36189.2427811,-4043111.68185 36187.0799442,-4043112.82904 36175.694325,-4043121.09658 36174.2754353,-4043122.19202 36154.4454812,-4043138.02412 36132.7934548,-4043181.39311 36139.3576057,-4043232.76649 36146.6548355,-4043251.69509 36204.3746971,-4043318.44744 36230.9887708,-4043349.98636 36271.9190758,-4043397.47365 36283.0524854,-4043410.65329 36302.3499687,-4043433.7306 36305.3883191,-4043438.00449 36321.5029907,-4043458.31303 36335.1442888,-4043475.30509 36355.8325974,-4043493.30194 36373.055601,-4043508.05133 36380.1587398,-4043517.02606 36412.2822686,-4043538.2142 36428.3817549,-4043547.55973 36467.1253189,-4043570.77907 36481.4479866,-4043583.23838 36502.8650227,-4043590.22046 36512.350886,-4043594.04575 36536.8881462,-4043599.31564 36543.4391731,-4043600.35494 36556.0797699,-4043602.96401 36602.1030325,-4043616.20787 36619.1318248,-4043621.00343 36625.6828434,-4043622.04272 36651.7015133,-4043630.69805 36686.9042363,-4043653.16686 36723.3901544,-4043690.49722 36733.3590982,-4043701.26592 36756.6651861,-4043721.07387 36769.1484396,-4043732.16598 36781.914181,-4043743.73679 36789.4097498,-4043751.18904 36801.7292805,-4043774.25319 36815.8817825,-4043802.17341 36815.407491,-4043809.68182 36813.8682587,-4043837.69713 36813.0232121,-4043854.20184 36811.7103031,-4043874.72599 36806.6560233,-4043888.03505 36802.4708945,-4043910.25415 36801.0737153,-4043918.8235 36799.0770488,-4043925.93949 36790.8424102,-4043954.42069 36789.9885293,-4043956.47355 36788.9211783,-4043959.03963 36783.1229742,-4043972.40047 36776.3264425,-4043989.31932 36774.7912331,-4043995.90484 36768.154442,-4044022.28144 36766.2958278,-4044031.38128 36753.1514349,-4044071.66648 36748.6966845,-4044086.42895 36741.8873734,-4044110.32577 36738.7134455,-4044122.00895 36733.8943896,-4044142.27876 36725.2891279,-4044179.75635 36717.8241254,-4044194.22994 36711.0340425,-4044207.65985 36701.8012023,-4044239.69916 36700.8028854,-4044243.25716 36700.0116421,-4044249.79093 36696.9067627,-4044262.46605 36691.7490174,-4044274.2873 36689.7932931,-4044278.41029 36681.7569298,-4044295.41549 36677.4683991,-4044316.14678 36664.0276651,-4044402.30214 36657.7579164,-4044441.11239 36640.6820519,-4044539.48152 36652.4857416,-4044612.41784 36668.5296407,-4044710.47557 36720.5944943,-4044771.14096 36726.5332943,-4044777.70473 36765.0601049,-4044822.86624 36810.6212061,-4044876.01028 36840.5805644,-4044977.08614 36851.9114328,-4045018.15994 36879.9217052,-4045119.86972 36863.6888809,-4045183.79319 36854.4784281,-4045223.30652 36848.765058,-4045248.62231 36837.8976444,-4045264.3296 36816.7341572,-4045293.21261 36779.3386087,-4045346.64854 36767.9240669,-4045429.673 36763.4662233,-4045465.86546 36761.5796256,-4045470.98041 36760.0508988,-4045474.07701 36753.98316,-4045479.98136 36750.0718761,-4045488.22743 36745.7745222,-4045494.50693 36737.3179061,-4045509.04975 36736.4640758,-4045511.10264 36733.3375791,-4045516.30391 36711.3140164,-4045550.72895 36683.6024847,-4045596.51396 36643.3850101,-4045663.10414 36612.2990554,-4045714.10781 36609.4142396,-4045722.78084 36603.7319438,-4045809.39356 36600.8750888,-4045861.42242 36597.4814925,-4045916.47885 36596.5271343,-4045934.98481 36596.1566846,-4045943.98118 36596.0813356,-4045946.47825 36595.7799405,-4045956.46654 36594.838184,-4045967.99451 36594.5493816,-4045971.0048 36593.9435452,-4045973.04044 36587.4142268,-4046018.84625 36560.7355924,-4046100.94043 36560.1642875,-4046103.47203 36544.4659804,-4046185.79859 36540.1561149,-4046199.05616 36538.6619461,-4046202.64875 36530.1050015,-4046233.64482 36514.0301618,-4046289.0859 36499.8450188,-4046317.98202 36499.4526445,-4046319.50444 36489.5774077,-4046374.51395 36487.6438021,-4046386.11101 36488.0927889,-4046431.92951 36488.1210511,-4046435.91448 36495.4099635,-4046479.76166 36500.2849426,-4046506.83243 36501.9487011,-4046527.14964 36502.40387,-4046530.10815 36504.5070597,-4046542.42089 36509.5201937,-4046571.47551 36502.5454172,-4046589.40398 36495.3917273,-4046608.34164 36493.8630489,-4046611.43828 36484.044376,-4046635.04681 36453.6057133,-4046681.02249 36440.1774824,-4046742.25996 36446.7884562,-4046769.20988 36452.1374955,-4046788.77214 36472.0204642,-4046841.70978 36474.7357723,-4046848.49786 36486.9126428,-4046912.43777 36494.2834557,-4046950.29884 36520.9220256,-4047028.68111 36575.0815475,-4047187.3775 36575.7349481,-4047218.23078 36576.7212983,-4047261.02168 36573.5576249,-4047287.15709 36572.6630954,-4047292.20306 36565.7921502,-4047311.6195 36551.1557506,-4047355.49837 36550.5410051,-4047382.45304 36550.6038695,-4047386.93397 36568.2279894,-4047475.41281 36577.2535399,-4047519.13899 36596.4560817,-4047576.60907 36599.9092148,-4047586.8343 36591.6028091,-4047696.55532 36560.18283,-4047757.05261 36546.3561748,-4047783.93073 36492.2132111,-4047854.48298 36462.9240826,-4047891.90709 36446.5954626,-4047911.484 36441.3063964,-4047917.8328 36362.4341745,-4048091.27682 36349.6686265,-4048119.07795 36284.7615146,-4048267.62803 36281.8585542,-4048286.76834 36265.087376,-4048396.58148 36260.5091474,-4048441.75382 36255.8618569,-4048485.93423 36253.5240239,-4048506.03195 36238.8338605,-4048681.4854 36209.9545635,-4048828.52351 36173.0789422,-4049011.005 36168.2898821,-4049035.26054 36157.9840478,-4049094.78656 36149.9284516,-4049143.68999 36137.124766,-4049153.05434 36116.269735,-4049168.46174 36110.7043336,-4049170.84297 33465.5709125,-4046530.72537 33386.1845759,-4046453.51907 33361.8968669,-4046426.80155 33351.3273054,-4046414.57917 33346.1665223,-4046408.45935 33338.7047291,-4046401.50293 33326.0068069,-4046390.92389 33157.9799812,-4046221.70436 32788.4411953,-4045849.70874 32722.5659578,-4045784.02015 32683.1758098,-4045744.39817 32580.2805287,-4045640.91585 32538.4858032,-4045598.96906 32511.1186517,-4045570.96998 32504.4008633,-4045563.96157 32450.5549965,-4045506.40628 32324.1162095,-4045376.15298 32289.9622581,-4045340.15324 32254.5337971,-4045303.74377 32230.1363084,-4045279.02655 32167.65778,-4045215.59233 32148.4274039,-4045193.50584 32133.6828127,-4045178.58316 32107.0251854,-4045150.03591 32043.3475772,-4045083.69448 31984.7616871,-4045022.48098 31964.4294052,-4045002.46465 31905.065016,-4044940.80677 31897.8167273,-4044933.33674 31896.9346569,-4044931.40451 31893.9305138,-4044927.62635 31815.9289767,-4044848.82435 31767.4920196,-4044797.37063 31760.5262523,-4044790.37931 31685.7078606,-4044714.34588 31676.5855075,-4044705.01259 31608.9118734,-4044634.96105 31532.1504244,-4044556.07201 31455.3544847,-4044476.68677 31378.6275946,-4044398.29334 31301.8662138,-4044319.4037 31206.8946927,-4044222.343 31194.8027412,-4044209.72732 31091.7009392,-4044103.26378 31085.7962233,-4044097.19529 31074.1657755,-4044084.04905 31044.3251763,-4044052.73184 31022.0843775,-4044030.35561 30976.5417489,-4043984.68012 30912.8644415,-4043918.3362 30851.447255,-4043855.8222 30791.8696394,-4043794.67531 30783.5603472,-4043786.282 30719.1390743,-4043719.98943 30666.4927231,-4043665.33785 30644.2519526,-4043642.96134 30613.949902,-4043612.1742 30561.3725841,-4043558.51446 30555.4678801,-4043552.44587 30530.5400246,-4043527.26573 30507.9822471,-4043503.91435 30470.6109589,-4043464.64741 30441.2319433,-4043432.79906 30427.0179607,-4043418.33704 30381.5444316,-4043373.65265 30378.5748296,-4043370.37033 30325.5705506,-4043317.73669 30321.0093971,-4043313.06984 30316.4137401,-4043307.90697 30268.5421281,-4043257.40826 30207.9036082,-4043195.33717 30151.3992413,-4043138.95938 30134.2501762,-4043121.71088 30104.4441947,-4043090.88872 30078.5998458,-4043063.27988 29987.7283851,-4042971.41266 29936.2122193,-4042918.67483 29864.4394198,-4042843.42181 29859.9472735,-4042839.74692 29852.485533,-4042832.78965 29830.1758233,-4042809.4205 29825.6146781,-4042804.75357 29753.8074131,-4042729.00426 29696.283114,-4042668.7092 29598.7005969,-4042566.34234 29568.3986602,-4042535.55413 29526.7535917,-4042470.66542 29521.2069475,-4042462.57804 29442.4995118,-4042344.94214 29352.3064447,-4042212.65366 29325.4208584,-4042173.65285 29324.0083332,-4042171.25898 29308.0155862,-4042141.96747 29293.3663867,-4042114.07778 29291.3543603,-4042110.23033 29289.693826,-4042107.8537 29275.4585595,-4042085.91627 29224.6981447,-4042008.20347 29154.5961588,-4041892.4602 29078.9477538,-4041768.62917 29012.2903686,-4041648.6585 28998.943801,-4041625.16381 28988.9051092,-4041613.40125 28966.10618,-4041586.57639 28927.5282567,-4041529.94641 28914.5266072,-4041511.41191 28872.5227263,-4041430.5973 28828.920792,-4041351.88738 28825.7788025,-4041346.12475 28762.128981,-4041265.81802 28731.7026499,-4041226.06579 28715.5113735,-4041208.25136 28709.2897741,-4041201.20754 28658.5367579,-4041120.0039 28616.9338478,-4041052.11989 28616.9470889,-4041045.14102 28604.3593526,-4041032.55866 28588.4850893,-4041015.71896 28577.5299989,-4041001.52781 28574.9530298,-4040996.72271 28567.2566083,-4040982.80344 28557.0588161,-4040961.58167 28546.8955141,-4040940.85593 28516.2332271,-4040876.19853 28485.5855783,-4040822.50542 28475.6292121,-4040804.7558 28415.3008211,-4040729.20147 28412.2968035,-4040725.42289 28409.7543332,-4040721.11379 28356.4871455,-4040639.58575 28312.8248897,-4040574.33641 28284.3962642,-4040527.46673 28210.2524437,-4040414.4933 28127.8952874,-4040280.15968 28109.4019299,-4040243.56458 28075.770714,-4040175.6238 28068.3502549,-4040165.67257 28014.1059666,-4040095.177 28011.9149756,-4040092.33871 28009.4759684,-4040089.51766 28001.9520869,-4040078.07831 27937.5237002,-4039979.38152 27934.4507594,-4039974.6108 27865.3235509,-4039869.26236 27793.2336576,-4039757.14158 27723.7552686,-4039650.32179 27672.9137213,-4039560.64854 27665.6791098,-4039546.19839 27656.4326001,-4039527.9006 27314.0254769,-4039018.87077 27308.444673,-4039010.28676 27300.6729101,-4038998.86439 27292.6186618,-4038986.96321 27289.1943524,-4038980.72152 27268.8553105,-4038946.24758 27112.9102623,-4038706.86923 27048.9794333,-4038608.13516 26997.8017398,-4038527.95381 26983.408598,-4038496.55552 26971.0617838,-4038469.50095 26964.4957293,-4038457.49626 26962.4838797,-4038453.64855 26957.998603,-4038446.48364 26927.9107121,-4038397.23516 26910.2176488,-4038368.55825 26819.1344214,-4038223.36158 26671.9342254,-4037987.8583 26609.4578895,-4037888.52339 26571.9156466,-4037828.82658 26545.0387656,-4037786.33261 26535.2208845,-4037770.56615 26526.5673828,-4037757.21099 26525.1894413,-4037755.31296 26481.9287883,-4037685.04757 26473.2408429,-4037671.19635 26471.2979447,-4037668.34067 26415.9115695,-4037584.96116 26342.3088413,-4037468.95293 26269.9190074,-4037366.8165 26245.0817514,-4037332.15552 26242.3603392,-4037328.85546 26222.2631493,-4037297.85274 25951.403384,-4036875.04598 25856.9605149,-4036728.08465 25799.6390202,-4036638.35816 25657.9065025,-4036416.92283 25624.3887567,-4036364.91995 25606.234759,-4036336.77237 25584.4086389,-4036302.39998 25582.9962809,-4036300.00583 25545.9717901,-4036247.74789 25539.647175,-4036239.21506 25523.5394033,-4036215.41132 25495.2095818,-4036173.51534 25430.1378475,-4036079.84001 25400.2165941,-4036036.55906 25369.44795,-4035991.84158 25337.3014207,-4035945.22595 25320.628783,-4035920.46439 25315.0827193,-4035912.37589 25310.067153,-4035904.74899 25308.4067785,-4035902.37205 25302.9640426,-4035895.7717 25287.5659965,-4035871.42007 25186.0974883,-4035712.98084 25076.4377063,-4035540.65483 25021.0946651,-4035454.27802 24979.9853107,-4035389.84151 24972.4620277,-4035378.40105 24942.4722226,-4035334.12734 24908.3487593,-4035284.15917 24896.6573744,-4035266.52821 24843.3881873,-4035188.48058 24823.6775057,-4035159.4435 24787.2255419,-4035104.6523 24753.2469226,-4035053.17849 24748.5138928,-4035046.0303 24726.7226989,-4035012.15305 24711.9242573,-4034989.25472 24671.311293,-4034924.78317 24652.0278859,-4034894.71937 24585.1044669,-4034788.70879 24522.7005786,-4034690.35951 24489.1493927,-4034637.8587 24464.2168386,-4034598.21781 24462.7700963,-4034595.32752 24403.2254704,-4034502.26239 24435.0843929,-4034480.11307 24464.9520405,-4034461.59113 24509.5778322,-4034433.07278 24527.9531517,-4034421.32994 24558.7440294,-4034401.74709 24584.0712085,-4034386.03261 24609.3639507,-4034369.82209 24682.4034927,-4034323.38142 24707.2345765,-4034307.70143 24773.8182432,-4034265.19811 24803.616918,-4034245.68426 24867.8235067,-4034204.84137 24898.0837804,-4034184.7971 24900.9224157,-4034182.6063 24966.5482514,-4034140.66815 24997.3389772,-4034121.08556 25055.0552253,-4034083.68404 25094.4306645,-4034058.52126 25152.4293051,-4034021.5987 25190.13736,-4033997.5486 25268.1440191,-4033947.27494 25286.5191824,-4033935.53238 25353.1368427,-4033893.52589 25384.8506915,-4033872.88259 25449.0912862,-4033832.53653 25482.2588355,-4033811.29396 25500.6683793,-4033800.04754 25548.4491447,-4033770.31427 25579.7357207,-4033750.69762 25643.2320946,-4033710.40344 25677.6052759,-4033688.57889 25741.6320541,-4033648.74646 25774.5514683,-4033627.52131 25840.4591067,-4033586.06316 25872.9168574,-4033565.36854 25930.4189385,-4033528.48132 25971.2821366,-4033503.21597 25986.0744761,-4033493.71604 26034.2477581,-4033462.46066 26066.4918359,-4033442.27943 26069.6128841,-4033440.56755 26115.8019296,-4033409.44994 26122.2232028,-4033405.01686 26127.6868017,-4033401.14868 26134.6385435,-4033397.17723 25866.0104438,-4033232.39243 25734.8101375,-4033151.77715 25769.7959041,-4033142.37144 25786.6616276,-4033141.20118 25815.1845316,-4033139.22206 25823.1557567,-4033139.1674 25848.061526,-4033138.93458 25906.0922729,-4033138.39706 25946.1963528,-4033138.10654 25977.6954757,-4033135.92091 26004.5651348,-4033128.07526 26051.9590472,-4033114.31956 26073.2344675,-4033104.86834 26074.6881931,-4033104.26904 26101.1103636,-4033089.97478 26105.2235147,-4033088.19408 26150.4135068,-4033060.63515 26161.6646925,-4033050.38419 26165.6745843,-4033047.11535 26190.057887,-4033024.98764 26213.1737462,-4032998.96041 26236.9304225,-4032971.39343 26255.6446765,-4032932.2139 26257.6015451,-4032928.09064 26269.6940371,-4032904.82206 26439.4855884,-4032579.02846 26548.5326325,-4032369.09961 26554.9337753,-4032357.1916 26604.8755859,-4032258.02809 26909.8131866,-4031660.19199 27121.3802897,-4031246.77609 26873.7542461,-4031089.99941 26864.1302407,-4031084.18731 26765.630754,-4031022.23551 26759.6854499,-4031019.15884 26237.5560286,-4030698.99066 26211.2672768,-4030682.87013 26195.3810537,-4030673.00627 25855.0333552,-4030451.37795 25815.8689417,-4030425.68288 25795.8078783,-4030413.11775 25646.8171222,-4030320.27259 25700.3931682,-4030162.04235 25769.4842022,-4030073.01612 25795.1306101,-4030040.33491 25844.6780351,-4029996.52628 25846.0973986,-4029995.431 25894.4787773,-4029967.15476 25904.2694712,-4029960.99315 25951.872349,-4029932.2725 25973.8995758,-4029919.28129 26026.5389629,-4029887.71934 26348.5824585,-4029694.42933 26361.032572,-4029687.08656 26382.3156227,-4029674.14711 26394.3040764,-4029667.33479 26397.8868558,-4029665.09267 26464.353752,-4029628.08661 26561.2877125,-4029574.01552 26767.8533527,-4029458.51396 26771.6497483,-4029455.75864 26797.4387625,-4029439.5164 27216.3041567,-4029176.21911 27228.2237156,-4029168.41489 27492.2512011,-4029001.08413 27628.2574536,-4028913.90278 27655.4999409,-4028897.0618 27751.523863,-4028837.07483 27752.9431989,-4028835.97961 27852.3017175,-4028773.76802 27951.6945069,-4028712.05265 28138.4571633,-4028594.9384 28140.1245094,-4028593.826 28310.4269731,-4028487.32318 28471.8619989,-4028385.92123 28486.4531095,-4028387.90038 28532.2131306,-4028426.09683 28551.0254475,-4028442.2373 28589.1804869,-4028474.97986 28591.3365022,-4028477.32248 28615.0600177,-4028499.60185 28649.4604669,-4028532.10617 28665.1370628,-4028556.9369 28686.5303346,-4028592.33639 28689.9190784,-4028598.08242 28717.6208795,-4028648.99372 28749.9785805,-4028709.55045 28781.8989475,-4028742.22649 28799.6701857,-4028764.91829 28800.5173744,-4028766.35479 28815.7397212,-4028788.22644 28836.6590406,-4028813.19203 28853.3007056,-4028833.96845 28869.0190912,-4028855.80568 28898.4498109,-4028910.08574 28989.1619264,-4028780.69084 29108.368931,-4028695.67302 29286.5723041,-4028519.84368 29381.4246557,-4028392.65528 29469.6691183,-4028224.05942 29580.5370467,-4027910.85476 30155.4243773,-4025907.33207 30862.5557176,-4023441.16685 31854.3925574,-4019981.54646 32079.7931535,-4019727.7324 32245.6376917,-4019509.93526 32301.7633143,-4019424.32047 32306.3645184,-4019425.99571 32644.4306938,-4019540.16307 32696.4630498,-4019557.4956 33308.0701586,-4019714.03923 33814.3206559,-4019810.09009 33918.0639151,-4019829.32689 34446.8001829,-4019926.31153 34956.4321697,-4020042.55607 35547.4008524,-4020200.01571 36097.4548409,-4020356.81382 36626.8582276,-4020575.33589 36909.4208447,-4020679.87117 37820.1288926,-4021018.51079 37850.633234,-4021030.85147 38463.2082973,-4021288.45298 39035.724015,-4021608.12062 39689.5225583,-4022007.86545 39758.8992378,-4022059.87107 40179.9120456,-4022368.5833 40589.0482539,-4022649.70978 41078.7632737,-4022928.74175 41283.3928641,-4023048.61754 41521.0579223,-4023156.23927 41589.7354038,-4023187.36173 41814.0362636,-4023267.50471 42078.6998224,-4023304.49056 42383.3474858,-4023260.47586 42667.0510374,-4023237.84306 42910.4929262,-4023195.07678 43396.7978328,-4023130.01455 43843.4879334,-4023104.56826 44129.3896767,-4023142.57334 44455.1609916,-4023281.45816 44491.0374621,-4023313.85315" style="stroke-linejoin:round;stroke:#000;stroke-width:1px;fill:none" /><polygon class="_06805" points="45644.9364518,-4038435.71769 45652.845851,-4038484.99601 45674.8267945,-4038546.74988 45715.4091031,-4038585.78483 45705.0342143,-4038658.75651 45677.5847726,-4038715.4752 45631.8688089,-4038749.5461 45565.3779326,-4038739.21914 45536.4687751,-4038688.90893 45614.8953845,-4038698.90463 45625.649372,-4038631.38756 45574.4198467,-4038604.05477 45574.5890587,-4038552.72006 45591.0124538,-4038502.2488 45644.9364518,-4038435.71769" style="stroke-linejoin:round;stroke:#000;stroke-width:1px;fill:none" /><polygon class="_06805" points="45670.8777799,-4037123.93863 45752.3394437,-4037084.39596 45889.8369676,-4037076.8361 45949.0678492,-4037086.67262 46008.629661,-4037108.44474 46028.609514,-4037105.56175 46062.1436534,-4037107.71634 46079.8237198,-4037121.93449 46100.8580564,-4037141.4006 46104.1028179,-4037166.58717 46107.0104477,-4037201.26439 46117.3698381,-4037228.44801 46131.2010563,-4037273.32829 46142.6765408,-4037309.40329 46165.4052939,-4037331.74123 46177.7279959,-4037369.25216 46174.506151,-4037405.35179 46197.5922912,-4037407.73388 46205.961496,-4037438.54364 46212.14046,-4037466.51593 46214.4976927,-4037511.19683 46218.1291165,-4037556.28746 46206.9808022,-4037607.38784 46185.9141527,-4037641.23955 46149.0055106,-4037644.30251 46109.8511386,-4037636.55946 46070.6892444,-4037614.36693 46032.3123561,-4037589.13016 46030.8194768,-4037628.5977 45999.4972923,-4037654.69145 46038.6659859,-4037673.39559 46067.4968045,-4037690.32668 46070.1290803,-4037721.03686 46037.8975741,-4037741.21453 45979.0254632,-4037747.29859 45930.455927,-4037736.72188 45884.4750953,-4037706.03417 45841.978142,-4037650.19043 45828.1465782,-4037605.31 45796.4138318,-4037532.27502 45764.1440743,-4037462.26696 45735.4482652,-4037375.56733 45706.4560099,-4037277.42782 45670.8777799,-4037123.93863" style="stroke-linejoin:round;stroke:#000;stroke-width:1px;fill:none" /><polygon class="_06805" points="45811.6264079,-4036901.39538 45901.8280615,-4036865.73039 45962.9103482,-4036834.08161 46048.4761083,-4036778.30958 46123.4769036,-4036728.25442 46168.5050061,-4036702.20564 46199.3175375,-4036665.18591 46213.6622301,-4036609.87759 46242.9599474,-4036586.91482 46272.4924392,-4036588.84939 46281.8253073,-4036615.60604 46283.1280309,-4036655.87563 46280.1469074,-4036695.44628 46273.0614689,-4036751.2468 46269.3778273,-4036787.87664 46292.106322,-4036810.21472 46318.4714399,-4036838.2794 46340.1810462,-4036874.63986 46366.7669937,-4036916.64078 46378.5658396,-4036950.20184 46387.5690404,-4037000.89837 46396.4153583,-4037095.95203 46383.2616461,-4037121.77955 46346.3605085,-4037139.29158 46314.6857679,-4037128.03893 46305.6824496,-4037077.34235 46277.3195532,-4037038.45454 46246.1265512,-4037016.20634 46207.6404973,-4037010.90785 46215.3667299,-4036971.5057 46209.3461503,-4036935.05174 46180.722351,-4036921.09562 46141.7477148,-4036930.28095 46090.9752614,-4036941.78077 46042.7364162,-4036925.20118 45995.3656018,-4036917.53021 45941.2387587,-4036923.78204 45886.1342074,-4036941.06388 45834.4866806,-4036947.14348 45807.9631546,-4036927.56029 45811.6264079,-4036901.39538" style="stroke-linejoin:round;stroke:#000;stroke-width:1px;fill:none" /><polygon class="_06805" points="50017.6939343,-4028114.75444 49999.6100941,-4027990.45389 49998.1937182,-4027855.03321 49996.3988364,-4027663.83694 50050.4984628,-4027517.0946 50126.7790717,-4027381.27082 50217.2239194,-4027313.22119 50310.4530036,-4027335.65622 50328.7154638,-4027290.04809 50283.0822952,-4027199.54428 50317.1379673,-4027087.07548 50415.8109358,-4027029.91545 50530.950066,-4027073.75058 50643.1729878,-4027140.20777 50655.8740016,-4027230.00433 50713.0886873,-4027386.96503 50771.2362515,-4027521.44072 50783.0053817,-4027633.72176 50737.8896533,-4027701.61843 50637.257799,-4027680.1956 50604.985753,-4027803.99985 50595.4591612,-4027939.67953 50505.9479234,-4027985.24492 50379.5702145,-4027930.23312 50268.2206846,-4027919.51805 50268.09033,-4028032.62505 50326.7950734,-4028189.48302 50249.5131001,-4028246.15862 50125.707615,-4028213.8873 50017.6939343,-4028114.75444" style="stroke-linejoin:round;stroke:#000;stroke-width:1px;fill:none" /><polygon class="_06805" points="50622.4498077,-4026790.89389 50685.2941922,-4026763.12184 50743.0524073,-4026812.92699 50747.755634,-4026916.72976 50735.5021161,-4026984.34103 50669.1425848,-4026932.64104 50634.1929627,-4026881.25511 50622.4498077,-4026790.89389" style="stroke-linejoin:round;stroke:#000;stroke-width:1px;fill:none" /><polygon class="_06805" points="50940.3190405,-4026568.08014 50996.8692563,-4026586.08278 51008.4500979,-4026652.54004 51060.1988908,-4026730.66182 50964.0895632,-4026681.02372 50918.9633664,-4026619.38234 50940.3190405,-4026568.08014" style="stroke-linejoin:round;stroke:#000;stroke-width:1px;fill:none" /><polygon class="_06805" points="51396.5058002,-4026378.53009 51501.1618907,-4026321.45574 51646.5297874,-4026319.85152 51782.8884803,-4026375.1698 51841.20961,-4026476.25124 51830.7623819,-4026577.11628 51739.965964,-4026611.30886 51626.645952,-4026579.30518 51535.7563877,-4026489.9466 51396.5058002,-4026378.53009" style="stroke-linejoin:round;stroke:#000;stroke-width:1px;fill:none" /><polygon class="_06805" points="51233.743154,-4026467.03351 51299.5910332,-4026525.7439 51334.7656151,-4026637.89643 51280.6898045,-4026705.91436 51188.8174925,-4026695.84038 51097.2547748,-4026539.26811 50996.7078337,-4026461.53869 51004.6567156,-4026353.3721 51108.1888267,-4026359.15112 51197.8270027,-4026437.63651 51233.743154,-4026467.03351" style="stroke-linejoin:round;stroke:#000;stroke-width:1px;fill:none" /><polygon class="_06805" points="49853.6972973,-4027962.70384 49851.664928,-4027969.32176 49900.5967251,-4028193.62161 49989.4963621,-4028203.89985 50058.6464785,-4028259.88985 50070.6180854,-4028360.69896 50093.5672657,-4028461.74339 50227.5596307,-4028482.8451 50419.2285272,-4028559.73502 50507.8738248,-4028623.83873 50527.5549971,-4028763.9707 50444.1393073,-4028739.36284 50342.1258362,-4028683.65957 50206.9410116,-4028674.10036 50107.2177938,-4028708.91595 50154.0713685,-4028809.7974 50231.8521966,-4028853.72882 50209.7435424,-4028944.44511 50121.6945789,-4028967.98879 49953.4701092,-4028992.10986 50053.9410982,-4029126.14248 50122.7413221,-4029248.91873 50314.9419506,-4029326.26782 50474.0691976,-4029436.8002 50554.4836249,-4029525.88666 50600.0308194,-4029694.11821 50714.4344033,-4029906.89823 50921.7184585,-4030208.89429 51148.610513,-4030499.06539 51206.3146062,-4030576.77112 51273.1678357,-4030700.17677 51264.1700644,-4030857.74142 51142.5075313,-4031129.24477 50966.740681,-4031468.27652 50778.3443977,-4031819.14793 50615.5140914,-4031856.35522 50440.942808,-4031867.97111 50311.4929353,-4031876.45587 50183.4289155,-4031847.47691 50836.9353184,-4033022.29134 50791.8417657,-4033011.47101 50013.0409851,-4031646.55413 49817.5150378,-4031356.19713 49646.6164953,-4031076.08739 49520.3988865,-4030818.78483 49463.4561297,-4030662.30229 49337.0585542,-4030528.0759 49189.7550764,-4030451.60033 48995.7921234,-4030126.25035 48880.8760592,-4029902.53818 48787.6801438,-4029622.01382 48604.9680802,-4029286.41245 48626.2824155,-4029151.90315 48556.9976441,-4029040.11844 48398.716877,-4028895.14314 48260.89231,-4028603.26062 48065.7766951,-4028189.29215 47880.6511651,-4027707.36511 47731.2618226,-4027359.97723 47570.8473593,-4027069.156 47239.4306131,-4026622.27297 47258.7171246,-4026228.31327 47395.7250633,-4026199.38772 47426.8658547,-4026260.50777 47753.6972467,-4026245.83226 48169.063481,-4026196.62178 48530.0411216,-4026193.03269 48810.7313613,-4026224.40294 49083.0393577,-4026300.19845 49306.769952,-4026354.44765 49487.4610955,-4026431.11004 49657.9496536,-4026576.23856 49761.8861523,-4026760.35658 49818.8695233,-4026892.42454 49921.8443523,-4027012.33646 49969.1667422,-4027191.90715 49937.9889028,-4027417.77388 49884.2097835,-4027698.5185 49853.6972973,-4027962.70384" style="stroke-linejoin:round;stroke:#000;stroke-width:1px;fill:none" /></g></g></g></svg>