<svg xmlns="http://www.w3.org/2000/svg" baseProfile="full" height="74959.3126382" version="1.1" viewBox="8611.288884,4509364.153241,105907.307558,74959.312638" width="105907.307558"><defs><style type="text/css">polyline,line,rect,path,polygon,.polygon{fill:none;stroke:#000;stroke-width:1px;stroke-linejoin:round;}</style></defs><g fill_rule="evenodd" transform="scale(1,-1)"><g class="hogares departamen mujeres departam_1 toponimo_i tot_pob varones viv_part viv_part_h" id="06819"><polygon class="_06819" id="None" points="23018.4423626,-4511913.07979 23034.9177268,-4511897.05676 23065.3856674,-4511927.55956 25987.5410764,-4514855.35679 26593.8297488,-4515470.98082 26971.5371309,-4515855.59515 27979.5829267,-4516881.02995 28201.7786664,-4517107.73928 32651.4839454,-4521635.58936 36846.6314852,-4525878.54642 37062.5780243,-4526097.43323 37127.1365055,-4526162.3069 40657.5133708,-4522698.34715 44245.2092531,-4519160.26927 44418.0935704,-4518989.801 44695.3091176,-4518715.53431 44759.4496755,-4518790.91451 44781.2511889,-4518816.19419 45738.6185757,-4519931.55117 46000.5834207,-4520237.88907 48003.7784719,-4522569.61833 48201.4933878,-4523748.92188 48332.7292707,-4524532.64246 48727.578917,-4524118.66757 48779.7607688,-4524063.51942 56641.5170793,-4532524.10788 56831.9061916,-4532741.27933 57099.069383,-4533045.89779 57107.1898891,-4533026.64935 57342.8059794,-4532464.4447 57374.8818008,-4532428.93297 58130.3441749,-4531611.59503 57839.6007583,-4531404.16546 57923.9282748,-4531084.17946 58238.800666,-4530778.7207 58203.7473372,-4530243.2646 58564.4629319,-4529694.51182 58915.3663602,-4529576.2481 59518.2069194,-4529021.67125 59857.0506282,-4528916.79004 60094.4498677,-4528579.37259 60526.2080687,-4528172.72365 61038.2051738,-4528138.68896 61542.5223264,-4528129.883 61980.1037702,-4528096.75509 62045.4027904,-4528092.14657 62318.0128573,-4528071.34524 62978.5040902,-4527793.7038 63292.5098424,-4527469.30885 63429.8840345,-4526865.85263 63645.1111579,-4526476.20785 63934.0456192,-4526349.96796 64170.2748139,-4525775.297 64565.9690538,-4525427.78855 64983.0251376,-4524821.30398 65214.3360581,-4524581.52484 65191.4710273,-4524190.58463 65190.9773784,-4523819.4052 65225.2677564,-4523798.31453 65264.9673315,-4523774.55128 65442.874778,-4523667.89058 65813.7579022,-4523457.08118 66081.3789108,-4523111.72055 66170.7101709,-4522605.75383 66270.1690083,-4522591.5529 66443.4651357,-4522566.47595 66597.2539805,-4522331.70365 66933.886721,-4522181.95552 67307.2236811,-4522008.54259 67562.0140931,-4521544.20358 67911.5397459,-4521298.62322 68409.8566332,-4521042.74865 68668.9550929,-4520704.16999 69134.8721536,-4520891.96719 69526.9678475,-4520285.82604 69683.0515263,-4520067.97395 70006.5258275,-4520052.54518 69982.0617243,-4519355.93358 70251.4929527,-4519353.24001 70380.6872838,-4518975.39621 70705.1025845,-4518903.98854 71220.724456,-4518836.4076 71290.517497,-4518429.00979 71910.0618322,-4518230.19288 72258.1097541,-4517977.68467 72487.873839,-4517829.4022 72801.2193526,-4517368.20001 72895.7502087,-4516751.69503 72807.544971,-4516401.84856 73237.6293741,-4516168.18528 73531.4209951,-4516301.59259 73677.5863004,-4515612.99128 74003.444919,-4515524.56339 74153.7651022,-4515050.14042 73944.8256065,-4514813.58717 74089.9604919,-4514426.25419 74340.3530706,-4514321.2771 74375.7139074,-4513999.92485 75017.9952366,-4514119.61662 75282.1980475,-4513877.31983 74896.8159605,-4513753.85112 75333.2454399,-4513585.4381 76133.013243,-4513437.7991 76430.3322785,-4513254.38535 76245.2231675,-4513044.04154 76468.0141749,-4512927.46925 76508.7748135,-4512905.67581 76887.2855467,-4513025.37065 77223.0079893,-4512669.38027 77609.4595653,-4512345.22833 78323.0597068,-4512004.05617 78500.3962367,-4511693.63211 78811.6826184,-4511641.65425 79036.0095709,-4511603.96417 79230.0806428,-4511278.01814 79335.8520552,-4511033.34063 79303.876094,-4510738.14641 79344.0010635,-4510347.22001 79359.2525042,-4510091.46818 79456.3285628,-4509902.51966 79494.8156704,-4509747.92538 79900.2012156,-4509818.30893 80216.3890015,-4509996.46206 80574.6054544,-4510176.75908 80846.8003666,-4510423.76144 81121.52181,-4510586.26163 81397.1224578,-4510721.75849 81445.6597452,-4510848.5747 81616.3692461,-4511302.64411 81644.3917486,-4511925.147 81862.7943749,-4512347.70771 82091.5982591,-4512635.56095 82116.5102475,-4512943.96243 82072.5305113,-4513222.61208 82082.901314,-4513769.75291 83260.2001919,-4515063.05944 83867.3239235,-4515728.83861 84059.4267812,-4515939.43906 86367.6570385,-4518466.49356 86684.2264144,-4518261.48442 86887.2767054,-4518075.61953 87294.6873185,-4518023.52813 87651.3547184,-4517939.10673 88218.7304357,-4517960.781 88923.9379343,-4518066.92245 90099.1868759,-4518111.96103 91145.3957313,-4518368.94179 92396.7701444,-4518676.74481 93110.169784,-4519084.2957 93636.765569,-4519096.78937 94203.4600937,-4519485.5879 94768.0025914,-4519513.33865 95179.8434291,-4519429.13766 95568.0100026,-4519609.91569 95993.3123525,-4519912.3623 96238.7693371,-4520291.02932 96508.7131383,-4520910.14296 96653.5392707,-4521412.92032 97022.7117795,-4521624.26918 97629.9795211,-4521668.61077 97707.1535676,-4522125.61729 97968.666914,-4522251.03349 98278.1966424,-4522030.2798 98923.1829325,-4522020.96003 99007.7534982,-4522606.57954 99343.2985396,-4522751.08061 99359.8042964,-4522867.91754 99427.3387568,-4523118.95672 99503.685831,-4523403.17395 99555.2613976,-4523492.40829 99576.6754466,-4523529.17549 99995.6875269,-4524255.82566 100090.632402,-4524474.01348 100430.332283,-4524762.71156 101035.867814,-4524792.60705 101293.633252,-4525173.34612 101300.715178,-4525191.5966 101434.387173,-4525541.87986 101930.566083,-4525549.33148 102037.526739,-4525551.87088 101893.419664,-4525976.54763 102179.37554,-4526147.60793 102502.500348,-4526332.94925 102603.530177,-4525912.16261 102724.517159,-4525714.97625 102998.809502,-4525857.44572 102913.275803,-4526216.80003 102929.365891,-4526722.70114 103338.328606,-4526975.68595 103358.935829,-4526956.54149 103371.151319,-4526963.6383 103421.395386,-4527297.62993 103604.294682,-4527501.97947 103748.692201,-4527905.84409 103383.088,-4528005.55635 103222.892808,-4528612.04336 103311.124235,-4528962.28692 103727.84264,-4529261.95794 104219.981428,-4529770.44462 104401.753569,-4529808.51746 104409.26934,-4529809.27333 104709.765385,-4529873.97253 104726.747392,-4529920.36908 104807.432029,-4530137.50563 104978.082907,-4530287.30781 105023.915314,-4530368.72958 105097.271328,-4530498.20441 105193.413753,-4530907.61563 105494.364151,-4531233.492 105442.348405,-4531686.6479 105243.018351,-4532001.23663 105292.413905,-4532316.27011 105428.857361,-4532520.11331 105508.064416,-4532637.41096 105705.487837,-4532858.25815 105678.414423,-4532978.49476 105671.481392,-4533011.18119 105671.79541,-4533013.1687 105697.692991,-4533126.69717 105752.680698,-4533251.76966 105749.972818,-4533368.72077 105747.647745,-4533451.19975 105746.545814,-4533455.73016 105737.48092,-4533491.98151 105735.027613,-4533501.0504 105715.008039,-4533584.60145 105718.187109,-4533667.40175 105718.397005,-4533673.88737 105720.910881,-4533705.26927 105775.639241,-4533806.87729 105776.685468,-4533808.34167 105912.731285,-4533961.25463 105919.475252,-4533969.02701 105968.45421,-4534031.86638 105973.008837,-4534033.71663 105974.803405,-4534035.15679 106120.834816,-4534110.83607 106174.436815,-4534139.06601 106177.462463,-4534139.96691 106221.117205,-4534154.03576 106226.073828,-4534152.8765 106247.163694,-4534148.69797 106351.326216,-4534134.33938 106402.365674,-4534129.69088 106466.562816,-4534138.10066 106482.125316,-4534140.59343 106522.085008,-4534140.79827 106531.081185,-4534141.0065 106538.081799,-4534141.27932 106630.331437,-4534167.75878 106678.411419,-4534179.68667 106679.69094,-4534180.64408 106690.594698,-4534185.78469 106853.426004,-4534255.92535 106855.968894,-4534257.34127 107000.526346,-4534256.65745 107001.974566,-4534255.11234 107146.688625,-4534143.55434 107150.317248,-4534139.94102 107148.910244,-4534150.47418 107133.076299,-4534239.88174 107132.424856,-4534242.89929 107050.529564,-4534343.43463 107018.315215,-4534381.9332 107016.18326,-4534385.49809 106979.433942,-4534453.60875 106962.024773,-4534486.63402 106890.143168,-4534618.80788 106841.833337,-4534707.76883 106781.79984,-4535074.78252 106783.02838,-4535390.37122 106786.699496,-4535604.00077 106787.344267,-4535677.89289 106625.516528,-4535793.00397 106517.080936,-4535929.85879 106470.063787,-4535989.31337 106576.098425,-4536210.11605 106782.743425,-4536391.70202 107108.439742,-4536340.20168 107208.224262,-4536576.1875 107353.754272,-4536813.68757 107309.776745,-4537090.28701 107302.701701,-4537133.96488 107360.713335,-4537336.84364 107470.713914,-4537479.60694 107661.645853,-4537499.88979 107783.111511,-4537634.29054 107812.464444,-4537684.77853 107861.044995,-4537766.1062 107878.004844,-4537750.07506 107974.138154,-4537927.24628 108041.320501,-4538050.91996 108305.048677,-4538183.20674 108492.480055,-4538265.02839 108453.98528,-4538695.26479 108327.545907,-4539139.33906 108361.859866,-4539419.89163 108531.221971,-4539768.47975 108453.27744,-4540029.19921 108106.896779,-4540066.39852 107869.329714,-4539762.96963 107579.530913,-4539951.15313 107555.630915,-4540138.20772 107532.839667,-4540313.24063 107774.898542,-4540470.19699 107941.955061,-4540578.14571 108018.735562,-4540628.09379 108449.753402,-4540613.61788 108909.314991,-4540863.39967 108988.894084,-4540907.26349 109227.87907,-4541169.68987 109212.929666,-4541632.62118 109511.161129,-4541935.57271 109821.635119,-4541861.57811 109999.476591,-4541994.14268 110032.560717,-4542375.10943 110208.213055,-4542632.59344 110483.800568,-4542799.43951 110260.540943,-4543444.9141 110632.152182,-4543639.10486 110512.009689,-4544153.3877 110845.972705,-4544387.75059 111117.621955,-4544648.60528 111203.410535,-4545029.85418 111335.925042,-4545258.26908 111169.424598,-4545644.21379 111431.535055,-4545765.045 111456.017953,-4546088.35606 111628.495967,-4546586.14196 111883.234484,-4546948.91529 112170.836975,-4547147.31863 112267.453218,-4547239.06386 112511.975729,-4547471.82504 112553.139952,-4547539.90259 112749.777545,-4547866.60516 112566.29098,-4548336.49951 112723.459898,-4548677.96704 113082.453933,-4548829.59842 113513.025096,-4549109.24149 113484.410215,-4549388.82836 113752.668064,-4549737.16694 113926.31224,-4550086.08331 113952.109683,-4550403.35144 113406.193894,-4550707.75104 113137.816362,-4550378.89344 112770.133894,-4550520.69067 112417.36351,-4550767.87457 112278.06424,-4551183.40348 112199.676963,-4551867.12301 112046.674707,-4552268.11852 111715.560278,-4552551.56041 111974.709933,-4552934.15306 111858.332401,-4553033.32427 111699.988039,-4553170.3172 111576.102598,-4553069.47586 111531.896951,-4553015.48155 111440.585215,-4552979.50012 111348.02314,-4552989.50374 111318.512928,-4553087.84627 111327.614844,-4553206.40635 111324.344087,-4553305.39322 111321.07342,-4553404.38011 111425.350069,-4553447.43023 111473.794913,-4553524.25867 111478.988766,-4553538.07271 111551.943076,-4553616.10094 111540.959607,-4553754.29153 111530.362873,-4553866.00161 111519.993587,-4553984.69586 111450.40085,-4554094.33124 111357.376987,-4554120.83093 111322.56146,-4554178.89543 111265.819832,-4554292.10797 111207.073256,-4554481.79367 111182.876626,-4554612.92408 111200.457545,-4554692.75467 111196.422418,-4554814.23959 111121.539912,-4554884.0963 111059.198753,-4554971.02369 111004.313965,-4555049.21864 110930.028898,-4555099.08024 110862.223332,-4555156.2219 110807.632038,-4555220.42435 110778.759302,-4555292.27921 110796.287328,-4555355.13218 110814.081069,-4555418.47588 110805.157523,-4555497.17216 110763.895441,-4555548.95518 110695.802311,-4555612.59879 110692.766881,-4555711.07943 110697.210795,-4555770.86271 110674.823705,-4555842.50659 110633.19762,-4555913.77828 110585.70549,-4555958.27345 110519.420557,-4555962.42983 110494.928968,-4555915.78438 110463.398713,-4555875.36095 110417.215768,-4555860.38476 110396.228743,-4555906.01438 110334.311281,-4555982.94114 110252.655857,-4556059.51203 110136.473162,-4556187.64725 110073.057376,-4556310.56824 110024.370705,-4556395.05497 110007.811886,-4556499.96964 110017.78043,-4556599.02622 110079.32164,-4556732.85926 110180.930461,-4556854.89945 110204.228297,-4556941.53597 110174.954417,-4557039.37379 110169.863331,-4557197.35099 110178.986025,-4557316.41109 110195.109331,-4557435.7425 110231.030772,-4557541.94373 110220.128281,-4557667.1497 110241.0787,-4557758.35719 110221.208463,-4557845.90078 110155.81634,-4557923.44151 110050.713966,-4558046.72331 109950.40017,-4558148.3749 109877.464127,-4558285.59103 109571.015285,-4558819.95457 109287.815836,-4559240.19776 108976.656135,-4560012.93913 108820.852954,-4560664.25626 108800.683592,-4561286.18119 108873.927326,-4561878.09124 109113.595429,-4562542.47891 109326.133634,-4563247.70218 109390.070401,-4563607.68749 109488.311012,-4563947.57525 109513.156054,-4564234.424 109451.22113,-4564586.03253 109311.680969,-4564985.12233 109157.260099,-4565333.75924 108905.559915,-4565830.90314 108708.887695,-4566177.92625 108557.219596,-4566442.57548 108468.761943,-4566578.30922 108366.860671,-4566600.61553 108305.583311,-4566674.0336 108327.632173,-4566775.69366 108275.534038,-4566824.34061 108091.73642,-4566793.38771 107914.296262,-4566804.17811 107813.309474,-4566800.98447 107752.713721,-4566849.40981 107741.0228,-4566950.17487 107755.727683,-4567018.11488 107703.629352,-4567066.76219 107486.074291,-4567034.41508 106726.658337,-4567094.1828 106458.824649,-4567296.2096 106293.392314,-4567728.12361 106352.879817,-4567974.39448 106448.607905,-4568137.57516 106258.573157,-4568534.83562 106230.31154,-4568930.80566 106064.815842,-4569650.89566 105827.624455,-4569995.76407 103518.719067,-4572324.22262 103497.046879,-4572302.95616 103118.776853,-4571938.25088 98848.4258329,-4567819.0227 98468.3461795,-4567452.34831 98336.3344292,-4567325.30208 96561.3753835,-4565578.19745 93695.6871231,-4568470.34286 93595.2998835,-4567996.61672 93459.9904751,-4567569.98297 93356.2482059,-4566947.5192 92983.2053271,-4566192.49339 92917.5653644,-4565750.09555 93044.6938968,-4565054.16108 92783.3465216,-4564698.56715 92807.1153342,-4564409.08974 92603.3039679,-4563926.24579 92584.1976779,-4563945.35013 92527.8929928,-4564003.12958 90921.0549519,-4565648.9392 88160.0302869,-4568515.81415 88131.8745793,-4568487.26299 87833.3838074,-4568180.32542 86369.6199725,-4566675.1477 87319.6224845,-4565586.67265 85453.8343175,-4563799.86109 85630.6722971,-4563562.81702 83217.9415936,-4561255.7934 83026.3375798,-4561407.90066 79965.1206583,-4558385.09215 70212.085806,-4567886.01745 68135.8630149,-4566058.3553 68912.4063781,-4565214.19767 67181.8337652,-4563567.54555 68999.5434707,-4561965.06056 67150.6277659,-4560142.37266 67755.3702474,-4559505.68012 66327.3995534,-4558105.37691 66325.3382979,-4558103.44566 66322.9404897,-4558106.52129 57380.1066945,-4566918.89914 57321.2898631,-4566976.77696 57289.5758561,-4567007.78964 56896.0274007,-4566629.91703 56737.4242968,-4566477.70675 56502.7123441,-4566251.53482 53314.4815944,-4563278.21558 38067.4880502,-4578795.36536 37821.6545614,-4579048.26351 37614.4656708,-4579260.42137 33387.9181157,-4583593.87597 33354.0386959,-4583513.02882 33366.0524155,-4583154.82761 33204.725966,-4582752.82572 33167.7126082,-4582354.75108 32822.3636217,-4581910.79465 32819.3938311,-4581491.61609 32547.949656,-4580824.35716 32506.1992125,-4580586.85036 32439.2619986,-4580075.81379 32302.5320296,-4579577.55371 32003.1656919,-4578873.72294 31617.7572649,-4578457.55118 31495.3914106,-4578039.27527 31149.4476697,-4577607.31762 30940.4218933,-4577167.38504 30657.2834883,-4576753.36086 30378.1877093,-4575736.51915 30415.0354532,-4575174.11023 30361.7700047,-4575226.32372 22769.6206017,-4582697.44399 8662.72890779,-4568476.32806 8627.40523287,-4568442.99288 9322.04555533,-4567834.57349 9535.78648584,-4567622.18596 14110.0973197,-4563079.42915 14528.6325554,-4562663.96952 16564.1978982,-4560644.04136 16885.1723337,-4560325.2297 17208.0461288,-4560003.35896 18343.0065428,-4558873.91432 19333.0180219,-4557897.6344 19334.4670094,-4557896.08795 19338.8567365,-4557900.44303 19340.4194291,-4557902.39126 20314.4412772,-4557233.50008 20316.8887326,-4557231.92117 21959.3419959,-4555533.78328 22151.2855521,-4555335.13445 22766.4401707,-4554572.99341 22859.1874094,-4554459.03223 22883.852603,-4554433.7423 23945.8536054,-4553366.22796 24041.4478728,-4553270.66673 25145.7992115,-4552160.81428 29987.6093136,-4547295.02398 22841.6872401,-4540157.68124 26093.3579661,-4536944.40421 27528.3634224,-4535525.15384 30341.6263597,-4532847.9888 29797.7848203,-4532295.40152 29010.0815153,-4531495.83827 27790.5626921,-4530254.47743 26131.0793533,-4528566.56204 25304.3129247,-4527725.7415 23310.3035956,-4525699.25205 22824.3267382,-4525205.20958 22216.4025916,-4524587.16662 21699.9548521,-4524062.61626 21111.8959444,-4523463.9122 20036.8771059,-4522371.67289 19471.5902972,-4521797.20781 17608.8159795,-4519903.75357 16283.4174808,-4518556.15911 16273.3759751,-4518546.9874 23018.4423626,-4511913.07979" style="stroke-linejoin:round;stroke:#000;stroke-width:1px;fill:none" /></g></g></svg>