<svg xmlns="http://www.w3.org/2000/svg" baseProfile="full" height="57056.5728768" version="1.1" viewBox="46571.900992,4271583.934757,41900.804384,57056.572877" width="41900.8043841"><defs><style type="text/css">polyline,line,rect,path,polygon,.polygon{fill:none;stroke:#000;stroke-width:1px;stroke-linejoin:round;}</style></defs><g fill_rule="evenodd" transform="scale(1,-1)"><g class="hogares departamen mujeres departam_1 toponimo_i tot_pob varones viv_part viv_part_h" id="06812"><polygon class="_06812" id="None" points="47339.9235927,-4317194.13914 53400.986398,-4311068.86463 49417.9388533,-4307091.58497 50279.9579327,-4306201.56259 50301.9637383,-4306178.80111 50554.6598819,-4305918.57075 50593.1907012,-4305878.9859 51520.3180459,-4304921.79383 53094.3506069,-4300226.22787 58516.313484,-4294769.66399 46769.533748,-4291709.44077 46803.2103503,-4291569.64872 47339.3189824,-4289359.63389 47604.0032026,-4288267.63077 47661.9313027,-4288030.18667 47663.003319,-4288025.11625 47703.7391966,-4287856.3499 49651.2963132,-4279829.32305 49704.3498048,-4279610.73678 51650.8241928,-4271587.55937 52467.9523556,-4271825.55266 53399.4381571,-4272097.37548 66524.8543393,-4275926.00913 67293.8552422,-4276150.41041 67459.1667148,-4276198.41612 73159.1983365,-4277861.12334 73171.8881408,-4277864.05135 73476.3651391,-4278113.05885 73737.4350449,-4278468.72734 73971.6503595,-4278782.81442 74075.6775676,-4278824.44786 74664.5894102,-4279422.67927 74908.5349069,-4279710.05957 75041.3569246,-4279774.68538 75387.311733,-4280091.41335 76133.8346363,-4280848.7539 76724.3511474,-4281484.14164 77115.7281744,-4281975.78684 77321.5486113,-4282080.12882 77514.9347936,-4282471.7514 77717.6395848,-4282813.80948 78061.4047341,-4282811.08484 78304.9173796,-4282943.64632 78237.1997133,-4283230.54783 78692.8959525,-4283705.36185 78985.6471765,-4283753.67107 79416.8091939,-4283957.71902 80187.4418155,-4284657.68024 81093.8959012,-4285422.4703 81272.8940181,-4285437.92763 81578.4358563,-4285687.756 81818.7286433,-4285787.70774 82645.545186,-4286463.01512 83024.082581,-4286704.7576 83235.5787379,-4286656.27551 83672.6068976,-4287062.3808 83948.1562987,-4287095.66929 83970.8933679,-4287332.70185 84111.0769508,-4287437.9953 84289.4884878,-4287571.95935 84367.5923868,-4287631.15533 84674.0341813,-4287784.314 85255.6489253,-4288157.44138 85365.4279723,-4288047.24818 85489.996644,-4288090.62344 85501.0379193,-4288223.10051 87003.7654511,-4289190.8849 88020.7259267,-4289753.15028 88004.9102528,-4289790.30548 87935.7586679,-4289963.80636 87786.7435782,-4290247.99336 87635.0523082,-4290535.88953 87572.7870453,-4290791.9404 87613.4225666,-4291088.18761 87720.37741,-4291373.92543 87981.5974879,-4291683.12819 88269.8222421,-4291796.95587 88232.4778593,-4291975.76988 87823.740168,-4292016.3394 87436.4667474,-4292129.28137 86975.7536561,-4292334.46113 86500.4545578,-4292537.87457 86024.7840194,-4292772.68067 85594.3368017,-4292976.83821 85289.8973649,-4293175.95947 85235.5255659,-4293210.36219 84855.6889187,-4293669.1406 84715.9534018,-4293963.03623 84531.882908,-4294483.13737 84585.6565093,-4295169.0564 84580.0899684,-4295406.46017 84571.4020228,-4295695.89307 84365.2485285,-4295849.99345 84309.3673906,-4295717.27354 84208.3208097,-4295478.81375 84026.6411353,-4295407.36881 84033.1199003,-4295997.68939 83844.5828736,-4296070.67667 83529.5551872,-4296017.83404 83368.9075244,-4296102.92881 83445.9353007,-4296304.07279 83616.2437415,-4296585.03632 83609.9499429,-4296867.30705 83628.4581567,-4297154.47558 83482.0996231,-4297416.58773 83266.2643582,-4297776.59578 83642.5245142,-4297889.02533 83715.1836655,-4298246.33805 84302.9720736,-4297935.40102 84536.3662248,-4297863.13955 84616.9376941,-4297838.48897 84865.2585388,-4298046.22277 84854.1955599,-4298330.87767 84852.268439,-4298373.34941 84632.7547282,-4298617.67944 84755.8794289,-4298780.61781 84509.0058702,-4298989.40538 84450.7335706,-4299251.12832 84705.4352039,-4299231.3377 84942.1129515,-4299120.96505 85249.1219195,-4299429.31499 85406.8619701,-4299809.86891 85650.1556695,-4300320.65406 85804.828958,-4300765.67159 85732.3216501,-4301053.47023 85695.5190777,-4301297.96538 85304.6467657,-4301362.00483 85066.9530123,-4301501.84198 84674.5532368,-4301571.4863 84507.2545612,-4301243.49815 84358.2447598,-4301366.46382 84216.0773239,-4301654.62049 83777.9151272,-4301468.74417 83554.0723269,-4301518.3221 83620.4963379,-4301729.30755 83895.8303035,-4302110.98845 83824.709822,-4302337.95425 83706.1044262,-4302467.34249 83656.8916297,-4302521.735 83596.514073,-4302573.57675 83308.8470369,-4302723.07851 82918.9657093,-4302715.86084 82741.9241633,-4302783.43385 82733.2326886,-4302786.64974 82619.9144192,-4302830.4751 82432.7366699,-4303032.80593 82261.6231112,-4303361.73103 82304.389347,-4303640.90824 82312.5977106,-4303673.5747 82405.785932,-4304067.50945 82364.1370259,-4304325.37324 82203.4164633,-4304415.48199 82153.536363,-4304444.04779 82008.5208546,-4304311.31723 81743.3710402,-4304039.78988 81145.794511,-4303489.90857 80587.8227412,-4302984.99085 78472.4419377,-4305394.24222 78043.3455419,-4305882.69445 76627.5101787,-4307459.92916 74632.2792762,-4309544.3292 73574.9506476,-4310622.71112 73473.0972202,-4310726.3431 73323.7394968,-4310934.53217 73679.9430534,-4311287.57888 74073.8173902,-4311662.35931 73988.4101545,-4311772.08335 73497.0102656,-4312402.28294 73538.7141138,-4312412.72938 73409.1291262,-4312595.3676 69351.5592757,-4317531.02203 65079.8333663,-4322330.08126 63628.5733677,-4323847.41336 63201.077831,-4324295.69208 63057.7549764,-4324445.18922 59567.2032514,-4328359.3905 59532.6098665,-4328398.16029 59227.6006209,-4328117.49209 55084.8937822,-4324311.0798 54888.938289,-4324130.78754 47343.1405645,-4317196.85839 47339.9235927,-4317194.13914" style="stroke-linejoin:round;stroke:#000;stroke-width:1px;fill:none" /></g></g></svg>