<svg xmlns="http://www.w3.org/2000/svg" baseProfile="full" height="53980.832228" version="1.1" viewBox="-11690.936535,4282820.516845,46937.838469,53980.832228" width="46937.8384691"><defs><style type="text/css">polyline,line,rect,path,polygon,.polygon{fill:none;stroke:#000;stroke-width:1px;stroke-linejoin:round;}</style></defs><g fill_rule="evenodd" transform="scale(1,-1)"><g class="id" id="06847"><polygon class="_06847" id="None" points="35105.592324,-4317605.65613 34705.4764081,-4317913.46025 34589.1183571,-4318003.53839 33852.0789072,-4318570.70892 30225.2521412,-4322115.88665 28527.5218902,-4323816.96904 26936.1171551,-4325410.82832 26537.6025094,-4325810.06921 26344.7410358,-4326002.4945 26343.071885,-4326005.04526 24206.601415,-4328145.71482 23538.0373045,-4328857.75444 23251.7013087,-4329161.05429 22445.0822478,-4330084.31222 22388.5483646,-4330146.0495 22373.5725087,-4330162.50965 21509.9802099,-4331109.55201 20874.5222687,-4331833.57547 20510.7506508,-4332249.25413 20122.986288,-4332688.67446 19917.9113402,-4332921.97921 19874.2475212,-4332971.8216 19687.4546765,-4333174.57023 18790.1496854,-4334146.19397 18271.4673321,-4334689.67687 17417.5262347,-4335585.99848 17334.784043,-4335672.54963 17321.4616206,-4335685.96067 17169.5839719,-4335878.62638 16822.0867036,-4336311.30732 16434.4152312,-4336745.75012 10259.448844,-4330438.93648 6894.73131756,-4327061.35938 6873.08958538,-4327040.54619 6768.85959814,-4326935.85592 6739.68141754,-4326905.78276 6621.51771167,-4326787.03474 2571.94450807,-4322716.50471 2395.98713413,-4322539.58187 2344.68376365,-4322481.21078 -1449.4146961,-4318652.37129 -4566.25161332,-4315616.39803 -4570.35526472,-4315613.02743 -4592.58963474,-4315589.23066 -4625.88665224,-4315555.28312 -4664.61353452,-4315515.5073 -6604.23152725,-4313509.79927 -10801.9769278,-4309365.70917 -11656.2453154,-4308521.62851 -11625.7668064,-4308489.18958 -4458.94235836,-4301392.05216 -4465.66658023,-4301384.76429 -4494.32663051,-4301355.16786 -6380.08364268,-4299395.6009 -2851.64137219,-4295941.20497 -2862.21877073,-4295930.53809 -3723.50035929,-4295082.15028 -134.330303106,-4291594.54225 -18.5659716309,-4291733.38822 3532.3489012,-4288140.67983 1761.25471105,-4286348.42344 5296.81719034,-4282821.8306 9681.01942627,-4287190.79921 9778.30590921,-4287298.2282 12742.2779854,-4290211.77789 12761.105513,-4290230.6837 16859.3120086,-4294337.73107 16863.6797111,-4294341.59325 16893.2551263,-4294368.65955 17210.89277,-4294668.12624 17557.8982554,-4295020.15032 20987.301294,-4298510.57729 21023.9720748,-4298556.91031 22372.0940253,-4299919.18758 23785.5105971,-4301356.36211 23883.1881677,-4301460.26058 23890.1296333,-4301466.54081 23894.2487809,-4301462.41498 23966.470218,-4301535.12405 23916.3382616,-4301586.155 24000.1806471,-4301670.99511 26759.053337,-4304352.4791 27584.9987905,-4305185.23952 28727.4408985,-4306328.9336 30635.39689,-4308290.22517 30964.745616,-4308628.74022 33456.5160515,-4311172.8714 33471.6127646,-4311232.36157 35089.5102427,-4317538.70291 35105.592324,-4317605.65613" style="stroke-linejoin:round;stroke:#000;stroke-width:1px;fill:none" /></g></g></svg>