<svg xmlns="http://www.w3.org/2000/svg" baseProfile="full" height="40230.634582" version="1.1" viewBox="70106.491674,4407610.898248,26298.776919,40230.634582" width="26298.7769189"><defs><style type="text/css">polyline,line,rect,path,polygon,.polygon{fill:none;stroke:#000;stroke-width:1px;stroke-linejoin:round;}</style></defs><g fill_rule="evenodd" transform="scale(1,-1)"><g class="hogares departamen mujeres departam_1 toponimo_i tot_pob varones viv_part viv_part_h" id="06868"><polygon class="_06868" id="None" points="92626.5291599,-4407804.51198 94535.656603,-4408114.02465 95887.6184682,-4408317.59015 96398.5524638,-4408430.92235 96356.7107579,-4408506.66436 96061.2970832,-4409100.79627 95654.6759489,-4409721.82512 95430.8038177,-4410051.01954 95184.3660984,-4410384.12935 94938.7072509,-4410714.68712 94701.64019,-4411035.05806 94488.570559,-4411344.9257 94190.6453341,-4411792.45343 93811.3979521,-4412348.96872 93320.5353807,-4413184.82958 93173.0317846,-4413393.54443 93170.4762979,-4413392.76645 92627.3956613,-4414188.29242 92398.7053067,-4414577.68127 91994.8011591,-4415136.83871 91679.3649595,-4415618.26685 91419.8782609,-4416014.27834 91338.3500693,-4416144.20015 91134.5902837,-4416446.34853 91137.7666092,-4416448.56709 91116.9795386,-4416479.21541 90804.1016247,-4416938.03897 90575.5835972,-4417282.63277 90085.7785054,-4417961.18188 89576.1862251,-4418652.88365 89213.2957725,-4419214.08616 88992.0862979,-4419626.78789 88764.1468629,-4420135.6637 88623.0798478,-4420384.6981 88557.7494266,-4420494.33288 88553.9519276,-4420490.67371 87723.3372388,-4421918.84024 86761.3762334,-4423680.42588 86462.6153456,-4424257.63504 85918.4997951,-4425290.99813 85227.9837686,-4426825.37258 84837.1782183,-4427665.43546 84408.4029932,-4428568.01459 84311.9702015,-4428791.37283 84296.9628432,-4428825.52056 84195.3387358,-4429087.16824 84060.3089993,-4429429.85216 83745.7947607,-4430037.85992 83282.3197605,-4431151.60112 82982.0103543,-4431861.49621 82644.9079974,-4432438.1034 82194.9599564,-4433075.16786 81863.1357868,-4433631.92016 81415.2981286,-4434601.98107 80852.6718545,-4435790.05121 80568.4607598,-4436257.10602 79849.8974153,-4437339.54888 79564.6403817,-4437707.1095 79272.3756978,-4438109.13975 78405.8232594,-4439463.79024 77873.2461662,-4440257.9655 77118.9365106,-4441405.34954 76224.1656061,-4442540.90512 75056.7752092,-4443807.96018 73765.2478082,-4445056.33389 72659.8978112,-4446315.19394 71973.3617274,-4447137.68964 71622.2796728,-4447597.18572 70938.8458512,-4447022.23824 70117.0173454,-4446332.12857 71238.4772636,-4444824.77523 72479.776977,-4442478.39149 73522.5777383,-4441098.97343 75243.1166517,-4438264.4964 75503.745625,-4437533.44437 76021.3669277,-4437128.03387 77521.5484339,-4434644.8896 77994.3932455,-4433169.12212 79232.2884325,-4430669.29509 79659.2137098,-4429645.75373 79809.3886833,-4428862.5141 79930.3440122,-4428442.32586 80581.9590257,-4427104.81651 80792.3988555,-4426810.95346 81819.625042,-4425375.67914 82368.6149731,-4424182.97327 83415.8714782,-4422877.05348 84100.2587598,-4421607.63255 85756.5572615,-4419368.52797 86181.2319332,-4418188.58569 87394.6339895,-4416932.96244 87978.4718534,-4415826.65146 88486.2982163,-4415131.13218 88858.6869166,-4414622.42309 88905.3564057,-4414463.10619 89212.9202159,-4413427.19635 84683.0035093,-4412684.77894 84686.5684675,-4412674.01894 84688.4928683,-4412667.38204 84832.1915122,-4412115.39683 84835.9983495,-4412101.62879 89427.7231176,-4412751.69915 89478.6148882,-4412758.81583 90716.2014416,-4410377.67554 92147.6976634,-4408548.70391 92478.4220562,-4408082.46173 92626.5291599,-4407804.51198" style="stroke-linejoin:round;stroke:#000;stroke-width:1px;fill:none" /></g></g></svg>