<svg xmlns="http://www.w3.org/2000/svg" baseProfile="full" height="8829.7779178" version="1.1" viewBox="40936.035330,4046836.867880,8577.576868,8829.777918" width="8577.5768678"><defs><style type="text/css">polyline,line,rect,path,polygon,.polygon{fill:none;stroke:#000;stroke-width:1px;stroke-linejoin:round;}</style></defs><g fill_rule="evenodd" transform="scale(1,-1)"><g class="id" id="06861"><polygon class="_06861" id="None" points="48132.2619603,-4048708.80841 48179.6548152,-4048684.5817 48186.5624078,-4048683.60254 48182.7084375,-4048699.81544 48180.2855886,-4048707.95642 48178.8544713,-4048716.02835 48176.8584465,-4048723.14307 48175.4336124,-4048727.72668 48174.9314659,-4048731.24952 48174.1405844,-4048737.78208 48174.0589799,-4048743.76698 48174.7902178,-4048750.69184 48175.6658234,-4048756.11183 48177.746571,-4048760.94966 48180.8880934,-4048766.71017 48182.7962317,-4048769.06867 48186.0130772,-4048772.3326 48189.9737206,-4048775.54474 48195.5600477,-4048780.63677 48199.6242573,-4048785.33651 48201.6014402,-4048788.68674 48203.0827581,-4048792.07149 48203.5378238,-4048795.02942 48202.1475181,-4048800.1089 48198.6356632,-4048803.343 48193.7460562,-4048804.67996 48189.6065232,-4048802.47681 48185.5768337,-4048798.27294 48180.0658258,-4048790.68432 48175.6155934,-4048784.01838 48171.4070159,-4048780.8235 48166.062341,-4048779.20252 48161.1036866,-4048779.54774 48158.4109486,-4048780.23348 48156.1042316,-4048782.88542 48154.5758349,-4048785.98144 48154.535035,-4048788.97389 48156.5467416,-4048792.81999 48160.7490436,-4048799.50319 48167.7476506,-4048806.98824 48177.2255844,-4048814.30069 48184.3340345,-4048819.78502 48189.4245011,-4048824.91157 48192.9583271,-4048829.14996 48194.9355128,-4048832.50019 48196.5957209,-4048834.87595 48198.0425191,-4048837.76483 48199.0624974,-4048841.67997 48200.082476,-4048845.59511 48199.5803368,-4048849.11795 48199.6431084,-4048853.598 48196.6271212,-4048856.79758 48192.3369483,-4048859.58762 48185.821655,-4048859.04468 48182.2470299,-4048857.79874 48178.7132011,-4048853.56035 48176.7234661,-4048857.18676 48176.7517154,-4048861.17095 48176.9180562,-4048867.13859 48177.9254917,-4048878.03037 48178.6222225,-4048884.45936 48178.50611,-4048889.9484 48178.6034076,-4048894.92431 48174.5956907,-4048898.19295 48171.6895448,-4048899.39182 48168.6453063,-4048898.60723 48166.0969331,-4048897.78811 48161.5713695,-4048893.61877 48156.659781,-4048887.48322 48152.4292178,-4048876.81584 48150.2919601,-4048864.00965 48148.6850934,-4048851.66479 48146.6576837,-4048836.85787 48142.3580843,-4048825.19875 48138.761487,-4048816.48031 48134.876159,-4048810.77157 48132.7546069,-4048808.9262 48128.7531589,-4048808.70651 48120.3579631,-4048809.78926 48115.2204166,-4048811.14348 48111.9219673,-4048813.86446 48108.8714509,-4048816.56819 48105.3250685,-4048819.30643 48102.3781193,-4048823.49776 48100.8497232,-4048826.59378 48100.0651261,-4048829.63802 48099.5284622,-4048832.665 48098.9917984,-4048835.69198 48098.6685452,-4048838.20583 48096.9957845,-4048842.80672 48096.1766656,-4048845.35509 48095.1441364,-4048848.4166 48094.8208837,-4048850.93045 48082.8196836,-4048868.20888 48136.5680479,-4048992.52206 48140.1426791,-4048993.76798 48142.0853522,-4048996.62234 48144.7718237,-4048999.42492 48147.6371802,-4049001.2185 48150.7504694,-4049002.99482 48153.298845,-4049003.81393 48157.2249802,-4049006.53019 48161.6752402,-4049013.19612 48163.3009328,-4049015.07601 48164.7477409,-4049017.96489 48167.3651643,-4049019.77573 48168.8872846,-4049020.16802 48174.445376,-4049021.27585 48177.8819091,-4049020.53832 48181.4220145,-4049021.28838 48185.3889366,-4049021.01219 48189.8517236,-4049020.70147 48194.3145104,-4049020.39075 48197.2897013,-4049020.18361 48200.4783006,-4049019.46334 48206.5259904,-4049024.02496 48210.5839568,-4049032.213 48213.9514393,-4049030.48373 48236.0395986,-4049075.78311 48240.8884125,-4049077.43858 48243.0444946,-4049079.77981 48245.552083,-4049083.59137 48249.4374321,-4049089.30007 48251.5182057,-4049094.13788 48253.5989797,-4049098.97569 48255.1493645,-4049103.35216 48256.2384098,-4049108.25902 48257.2238809,-4049111.67829 48258.7397417,-4049115.55889 48260.7514673,-4049119.40497 48263.4379401,-4049122.20753 48266.3723451,-4049124.99283 48269.8026147,-4049127.74361 48272.8813769,-4049129.02405 48275.4642745,-4049130.33902 48279.0389009,-4049131.58494 48282.3310698,-4049132.35225 48287.358764,-4049132.99873 48291.8905934,-4049133.67973 48295.0791864,-4049132.95946 48297.4894578,-4049131.7951 48299.3693398,-4049130.16941 48302.9847467,-4049128.42288 48305.8563571,-4049126.72814 48310.394442,-4049123.92083 48313.2660521,-4049122.22609 48315.924255,-4049121.04447 48318.3690507,-4049120.37598 48321.7710495,-4049119.14258 48326.9085723,-4049117.78834 48331.3022987,-4049116.48589 48337.6794806,-4049115.04533 48345.7576606,-4049112.98808 48352.6652296,-4049112.00887 48359.3593909,-4049111.54278 48367.2932107,-4049110.99038 48373.3126246,-4049111.56781 48377.8099222,-4049111.75295 48381.8458807,-4049112.46848 48387.1560227,-4049113.59356 48390.3038284,-4049115.86573 48392.1774503,-4049117.72834 48395.8556443,-4049120.46185 48398.4385365,-4049121.77682 48403.2528139,-4049122.93642 48405.3743674,-4049124.78177 48406.3598375,-4049128.20103 48407.3453078,-4049131.62029 48409.5704367,-4049134.95323 48412.0089722,-4049137.77305 48413.8825943,-4049139.63566 48417.0649248,-4049142.40369 48419.4344101,-4049144.23178 48422.4786399,-4049145.01636 48427.0795096,-4049146.68908 48431.1845157,-4049148.39633 48437.0595678,-4049150.47861 48444.6356148,-4049151.94418 48455.0079577,-4049154.21159 48458.5480488,-4049154.96164 48462.5494773,-4049155.1813 48466.089568,-4049155.93135 48472.1089726,-4049156.50877 48478.1974271,-4049158.07792 48485.7044186,-4049158.55177 48489.6022694,-4049157.28384 48493.2521888,-4049156.03318 48494.711506,-4049151.94544 48495.49608,-4049148.90121 48496.4250099,-4049144.35213 48497.8843279,-4049140.2644 48499.943084,-4049137.62972 48502.7864148,-4049131.95082 48505.3755586,-4049129.77748 48509.3769837,-4049129.99714 48512.9170712,-4049130.74719 48515.4654335,-4049131.56629 48517.5054222,-4049139.39652 48530.231724,-4049171.89426 48554.3533536,-4049189.14886 48557.5356795,-4049191.91688 48561.0349875,-4049195.65936 48560.9942101,-4049198.65179 48561.6564489,-4049204.58487 48558.2294623,-4049219.77147 48556.7701515,-4049223.8592 48553.2583408,-4049227.09332 48549.3604954,-4049228.36125 48581.9117882,-4049245.02887 48583.5092008,-4049242.92459 48585.4235962,-4049241.79476 48589.004456,-4049239.55237 48591.3801872,-4049237.89215 48595.3816074,-4049238.11181 48598.3567779,-4049237.90465 48600.9051385,-4049238.72374 48601.8906128,-4049242.14299 48605.5688007,-4049244.87647 48622.0986153,-4049249.70472 48618.6653973,-4049268.37959 48632.3875653,-4049397.47144 48633.125118,-4049400.90795 48464.6606584,-4049657.78576 48463.5936489,-4049660.3514 48462.2441784,-4049662.43844 48460.0818545,-4049663.58555 48457.7061287,-4049665.24578 48456.3221286,-4049666.83696 48454.7592563,-4049669.43713 48454.1881101,-4049671.96824 48454.8566213,-4049674.41302 48455.7385343,-4049676.34468 48457.3642419,-4049678.22454 48458.2461551,-4049680.1562 48459.3414701,-4049681.57473 48459.9409221,-4049683.02779 48462.8408168,-4049685.31719 48464.9623873,-4049687.16252 48466.3401635,-4049689.05965 48467.8905889,-4049693.43609 48468.9106218,-4049697.3512 48469.6481937,-4049700.78771 48470.5991673,-4049703.71109 48470.5584155,-4049706.70353 48470.7310652,-4049709.18285 48470.6903136,-4049712.17529 48470.1536993,-4049715.20226 48470.112948,-4049718.1947 48470.2103171,-4049723.1706 48470.2731565,-4049727.65063 48470.3014662,-4049731.63479 48470.4741169,-4049734.11411 48470.3988364,-4049736.61069 48470.4962071,-4049741.58658 48470.5245176,-4049745.57075 48470.5182982,-4049749.05905 48471.5383349,-4049752.97416 48472.5583718,-4049756.88927 48474.1433326,-4049761.76157 48474.563916,-4049764.22362 48476.1143469,-4049768.60006 48478.1261104,-4049772.4461 48479.39408,-4049776.34394 48479.8837251,-4049779.79772 48479.9465689,-4049784.27775 48480.3264057,-4049789.73224 48480.9949216,-4049792.17702 48480.9541743,-4049795.16946 48481.4092898,-4049798.12737 48481.9617817,-4049806.06118 48482.7338908,-4049809.99355 48483.2580688,-4049813.94318 48484.2435788,-4049817.36243 48484.6986955,-4049820.32034 48485.1883432,-4049823.77411 48485.8568606,-4049826.21889 48486.8769023,-4049830.134 48487.8278823,-4049833.05738 48488.2829997,-4049836.01529 48489.5164424,-4049839.41727 48490.4674228,-4049842.34064 48491.3838722,-4049844.76816 48492.5482531,-4049847.17841 48493.9950965,-4049850.06726 48495.6553401,-4049852.44298 48496.5717899,-4049854.8705 48498.1975024,-4049856.75035 48499.1139524,-4049859.17787 48500.526265,-4049861.57085 48501.7251777,-4049864.47697 48504.0946842,-4049866.30503 48505.720397,-4049868.18488 48507.8074409,-4049869.53434 48509.7156163,-4049871.8928 48513.2902475,-4049873.13867 48516.1556164,-4049874.93219 48518.3462543,-4049877.76924 48520.8946291,-4049878.58831 48523.7599977,-4049880.38184 48525.9161042,-4049882.72302 48527.7897481,-4049884.58561 48529.9458547,-4049886.9268 48530.8623055,-4049889.35431 48532.4880183,-4049891.23417 48535.5260445,-4049895.507 48536.9383579,-4049897.89999 48538.9501283,-4049901.74602 48540.9964306,-4049906.08792 48542.9736698,-4049909.4381 48544.599383,-4049911.31795 48545.5158347,-4049913.74546 48546.2534188,-4049917.18197 48547.2044024,-4049920.10534 48547.6249923,-4049922.56739 48548.6795716,-4049926.97835 48549.9130186,-4049930.38032 48551.4634605,-4049934.75675 48552.3046416,-4049939.68084 48554.3164144,-4049943.52688 48555.5843942,-4049947.42471 48557.0312414,-4049950.31355 48560.0347389,-4049954.09052 48561.9429163,-4049956.44897 48568.0597143,-4049962.00219 48572.1992706,-4049964.20525 48573.6115861,-4049966.59823 48576.0501577,-4049969.418 48577.6758721,-4049971.29786 48580.1144438,-4049974.11763 48582.3396168,-4049977.45054 48583.7174004,-4049979.34765 48585.1987808,-4049982.73236 48586.8590278,-4049985.10807 48588.3404085,-4049988.49277 48589.2913952,-4049991.41614 48591.4475042,-4049993.75732 48592.8943529,-4049996.64616 48595.0849944,-4049999.4832 48596.5318434,-4050002.37204 48598.0132249,-4050005.75674 48598.5374157,-4050009.70637 48598.5312125,-4050013.19467 48599.5512655,-4050017.10976 48600.1099896,-4050021.55525 48600.813047,-4050024.49589 48600.8068447,-4050027.98419 48601.3310369,-4050031.93382 48602.3510912,-4050035.84891 48602.8062184,-4050038.80681 48603.7917403,-4050042.22605 48605.3076569,-4050046.10661 48606.967906,-4050048.48232 48608.9451517,-4050051.83248 48612.0584529,-4050053.60873 48615.0336225,-4050053.40154 48618.5046535,-4050053.15981 48622.437013,-4050052.38768 48624.5931234,-4050054.72886 48626.0054416,-4050057.12183 48627.4522929,-4050060.01067 48629.112542,-4050062.38638 48630.028999,-4050064.81389 48632.075311,-4050069.15577 48634.7963493,-4050072.45414 48636.8081287,-4050076.30016 48638.8199082,-4050080.14619 48640.2667604,-4050083.03503 48641.9270101,-4050085.41073 48643.3738625,-4050088.29957 48644.7861817,-4050090.69254 48647.2938233,-4050094.50403 48649.5190012,-4050097.83693 48651.9230433,-4050100.16084 48653.8657574,-4050103.01514 48656.1600022,-4050107.33976 48658.6331112,-4050110.65538 48660.5412923,-4050113.01382 48662.2015428,-4050115.38953 48664.674652,-4050118.70516 48666.6173667,-4050121.55946 48668.808012,-4050124.39649 48670.8197939,-4050128.24251 48672.7625089,-4050131.09681 48674.705224,-4050133.95111 48676.8958697,-4050136.78814 48678.4117911,-4050140.6687 48679.8586455,-4050143.55753 48681.0230358,-4050145.96777 48682.4353567,-4050148.36074 48684.3780724,-4050151.21504 48686.0728577,-4050154.0866 48687.5197126,-4050156.97543 48688.9320338,-4050159.3684 48690.5922856,-4050161.74411 48692.004607,-4050164.13708 48693.6993927,-4050167.00864 48695.180782,-4050170.39333 48696.1317766,-4050173.3167 48697.5786322,-4050176.20553 48698.7430236,-4050178.61576 48700.1898795,-4050181.50459 48700.6795478,-4050184.95835 48701.8784735,-4050187.86445 48702.8985371,-4050191.77954 48704.3799276,-4050195.16423 48705.3309234,-4050198.08759 48706.3164534,-4050201.50681 48707.5153799,-4050204.41291 48708.5009103,-4050207.83214 48709.9823017,-4050211.21683 48710.9678324,-4050214.63605 48712.2012938,-4050218.03801 48713.6826857,-4050221.4227 48714.1032876,-4050223.88473 48715.3367494,-4050227.28669 48716.2877467,-4050230.21005 48717.7346048,-4050233.09888 48718.7546712,-4050237.01396 48719.705669,-4050239.93733 48720.3051331,-4050241.39037 48722.881851,-4050246.19358 48724.9281741,-4050250.53545 48726.9399629,-4050254.38147 48728.9517519,-4050258.22748 48730.9980757,-4050262.56935 48732.9753304,-4050265.91951 48734.1742597,-4050268.8256 48735.5865847,-4050271.21857 48737.7019789,-4050276.55216 48738.6184436,-4050278.97966 48739.7828386,-4050281.38989 48740.2379778,-4050284.34779 48741.2235126,-4050287.76701 48742.2090475,-4050291.18623 48743.4425128,-4050294.58819 48743.9321876,-4050298.04194 48744.4218627,-4050301.4957 48745.3728633,-4050304.41906 48746.9578648,-4050309.29133 48748.1567961,-4050312.19742 48749.0732622,-4050314.62492 48750.0242635,-4050317.54828 48750.6927995,-4050319.99305 48751.1824758,-4050323.4468 48752.0989423,-4050325.8743 48753.7591996,-4050328.25 48755.805528,-4050332.59187 48757.2523905,-4050335.48069 48758.7337884,-4050338.86538 48760.9244417,-4050341.7024 48763.4666313,-4050346.00973 48764.9134943,-4050348.89855 48766.3603575,-4050351.78738 48768.0896863,-4050355.15479 48770.4937348,-4050357.47868 48770.9834132,-4050360.93244 48768.4979302,-4050364.59341 48766.6526312,-4050366.71499 48765.0207267,-4050368.32344 48763.1408921,-4050369.94917 48763.0656398,-4050372.44574 48763.2728534,-4050375.4209 48765.5732961,-4050376.25721 48769.1541058,-4050374.01475 48771.4952648,-4050371.85863 48773.5884936,-4050369.71978 48776.1775826,-4050367.54639 48781.1016491,-4050366.70518 48783.0098374,-4050369.06361 48783.7474465,-4050372.50009 48784.2025902,-4050375.45798 48785.2226654,-4050379.37306 48785.6778094,-4050382.33096 48785.7752362,-4050387.30682 48786.2303806,-4050390.26472 48787.2849926,-4050394.67565 48787.8437448,-4050399.12113 48788.5468198,-4050402.06175 48788.8576425,-4050406.52449 48789.4163956,-4050410.96997 48790.6498673,-4050414.37192 48791.6699451,-4050418.28699 48792.125091,-4050421.24489 48793.1451693,-4050425.15996 48794.1307117,-4050428.57918 48795.2198626,-4050433.48597 48796.2744777,-4050437.89691 48796.1992285,-4050440.39348 48796.7579841,-4050444.83895 48797.3167401,-4050449.28442 48797.8754964,-4050453.7299 48798.4342531,-4050458.17537 48798.9584737,-4050462.12498 48799.517231,-4050466.57045 48799.9723794,-4050469.52834 48800.6409215,-4050471.97311 48801.5919301,-4050474.89646 48802.5774754,-4050478.31568 48804.0934174,-4050482.19622 48805.8572896,-4050486.05949 48807.373232,-4050489.94003 48809.9499677,-4050494.74321 48811.9617705,-4050498.58921 48813.443177,-4050501.97389 48814.9245836,-4050505.35857 48816.3714537,-4050508.24738 48817.5703939,-4050511.15347 48819.0172642,-4050514.04229 48819.4724149,-4050517.00018 48819.9621026,-4050520.45393 48821.1610434,-4050523.36001 48821.7543422,-4050528.30134 48822.8089643,-4050532.71228 48823.3331899,-4050536.66189 48824.3187385,-4050540.0811 48824.2780308,-4050543.07353 48824.9465758,-4050545.51829 48825.8630508,-4050547.94578 48826.2836661,-4050550.40781 48826.9867486,-4050553.34843 48827.4764384,-4050556.80218 48828.427451,-4050559.72554 48828.882604,-4050562.68343 48830.6119438,-4050566.05083 48831.0670971,-4050569.00872 48832.0181104,-4050571.93208 48833.7129133,-4050574.80362 48835.2633985,-4050579.18002 48836.2834869,-4050583.09509 48837.3726504,-4050588.00188 48838.9231365,-4050592.37827 48839.8396133,-4050594.80577 48840.7560903,-4050597.23326 48842.4163568,-4050599.60894 48843.8286935,-4050602.0019 48845.5234977,-4050604.87344 48846.4054374,-4050606.80508 48848.0657041,-4050609.18076 48848.9476439,-4050611.11239 48850.6079108,-4050613.48808 48852.0547856,-4050616.37689 48854.4588419,-4050618.70077 48874.1587795,-4050633.27311 48886.3295412,-4050639.89936 48887.8861947,-4050640.78746 48891.241267,-4050646.03469 48893.7834748,-4050650.342 48896.4699986,-4050653.14447 48899.9632236,-4050660.37513 48902.9605903,-4050667.64032 48907.1223668,-4050677.31574 48910.1888118,-4050685.57265 48911.698604,-4050692.94146 48913.3181733,-4050698.30956 48914.3728072,-4050702.72049 48914.3321081,-4050705.71291 48914.0718578,-4050712.70675 48912.9642041,-4050718.26481 48911.5395443,-4050722.84843 48909.6190256,-4050727.46658 48907.0990323,-4050730.6317 48903.7254754,-4050735.84933 48901.632264,-4050737.98819 48900.2137639,-4050739.08353 48898.8298026,-4050740.67472 48898.7200279,-4050742.67543 48899.3478837,-4050748.11261 48899.8659658,-4050755.5505 48900.4247451,-4050759.99596 48902.1417807,-4050770.33992 48902.6191703,-4050780.77023 48902.2898505,-4050786.77235 48901.4239777,-4050795.80143 48899.3653074,-4050798.43616 48897.8370356,-4050801.5322 48895.9572165,-4050803.15793 48890.323914,-4050804.54685 48884.3736027,-4050804.96132 48877.3624937,-4050804.45316 48870.2823053,-4050802.95327 48864.903085,-4050800.83663 48861.4320687,-4050801.07841 48858.4223725,-4050800.78978 48856.4734736,-4050801.4238 48855.8678412,-4050803.45905 48856.5018578,-4050805.40795 48857.914203,-4050807.80089 48862.0476209,-4050813.49216 48863.4599663,-4050815.88511 48865.5063288,-4050820.22696 48868.0140115,-4050824.03841 48871.1902511,-4050830.29461 48872.6371365,-4050833.18342 48874.1185616,-4050836.56809 48874.8155055,-4050842.99699 48874.7748133,-4050845.98942 48874.8032006,-4050849.97356 48875.4717583,-4050852.41832 48877.8067444,-4050853.75047 48881.0236782,-4050857.01425 48884.8807819,-4050858.73864 48888.380185,-4050862.481 48892.0238985,-4050864.71852 48896.5840996,-4050869.38352 48898.5613855,-4050872.73365 48900.1180427,-4050873.62175 48901.0345307,-4050876.04923 48902.7293474,-4050878.92077 48903.7494553,-4050882.83583 48903.6396855,-4050884.83654 48903.1722164,-4050888.85522 48902.353198,-4050891.4036 48901.2517101,-4050893.47338 48900.3981519,-4050895.5259 48899.3312042,-4050898.09155 48898.7601157,-4050900.62265 48899.4632154,-4050903.56327 48902.5358419,-4050908.33189 48903.8729617,-4050913.2214 48904.893072,-4050917.13646 48907.0492095,-4050919.4776 48911.5687264,-4050927.13502 48913.6496363,-4050931.97272 48921.2540763,-4050937.42219 48924.7189424,-4050940.66869 48926.2003727,-4050944.05335 48927.8545056,-4050949.91731 48928.7709965,-4050952.34479 48930.2524275,-4050955.72945 48931.981788,-4050959.09685 48934.3167747,-4050960.42899 48936.4790585,-4050959.28184 48938.289791,-4050956.66438 48941.4437923,-4050955.44815 48938.9361035,-4050951.63671 48934.3352118,-4050949.96414 48932.2136144,-4050948.11887 48932.2197606,-4050944.63059 48933.2867056,-4050942.06494 48933.0794632,-4050939.08979 48932.0938922,-4050935.67059 48931.6387206,-4050932.7127 48930.6876902,-4050929.78936 48930.0191298,-4050927.34461 48930.1634384,-4050925.83976 48930.0252773,-4050923.85632 48931.6571626,-4050922.24786 48933.6405982,-4050922.10969 48937.0018418,-4050923.86862 48939.6192971,-4050925.67935 48942.5192221,-4050927.96867 48947.6098241,-4050933.09499 48952.342729,-4050940.23928 48952.7917546,-4050946.68544 48951.3264272,-4050954.26148 48947.0302557,-4050960.53992 48945.467453,-4050963.14011 48944.8963679,-4050965.67121 48945.9917073,-4050967.08971 48951.6472528,-4050973.1732 48959.1073852,-4050980.12751 48960.6578987,-4050984.50388 48968.1525724,-4050991.95405 48976.3158093,-4051001.84896 48983.3898493,-4051006.8371 48991.9860052,-4051012.21748 48995.3411068,-4051017.46467 48999.0193616,-4051020.19804 49007.0098938,-4051027.61365 49021.5786066,-4051040.05194 49033.3855583,-4051052.18434 49050.323797,-4051066.45061 49068.605304,-4051082.1181 49084.3323022,-4051100.45484 49098.9700973,-4051113.8848 49113.9371748,-4051121.31266 49131.5562457,-4051131.0471 49156.5156762,-4051135.28755 49180.0911527,-4051141.1192 49200.2931179,-4051152.16847 49214.7988617,-4051160.1267 49229.8127236,-4051161.07386 49246.5030095,-4051175.35732 49288.1972429,-4051208.82595 49315.9913519,-4051232.3011 49340.3144709,-4051256.01802 49374.1725163,-4051295.01506 49390.9358191,-4051328.2273 49489.734633,-4051351.73838 49239.2025164,-4051703.5263 49131.9755039,-4051780.75392 49025.9331179,-4051828.50162 48991.6599791,-4051844.3427 48914.637317,-4051883.09296 48813.6162044,-4051934.97553 48802.0610543,-4051940.7633 48654.5366205,-4052015.31866 48126.1445568,-4052283.83183 48123.7343316,-4052284.99632 48108.3503508,-4052293.0441 48026.6099417,-4052335.61206 47675.5795458,-4052518.02594 47403.5268063,-4052657.56716 47380.6639874,-4052669.12597 47377.0831669,-4052671.36862 47133.5662548,-4052794.97061 46589.1446551,-4053069.59622 46571.3500724,-4053078.80895 46490.2480784,-4053119.83951 46417.0861035,-4053156.8288 46238.505537,-4053247.00783 46229.1123212,-4053251.6488 45837.5654398,-4053449.85206 45832.8139578,-4053453.17299 45829.7229397,-4053458.86965 45827.8370733,-4053463.98403 45820.8646299,-4053481.91029 45814.1055715,-4053499.32338 45812.2197079,-4053504.43777 45598.1123154,-4054050.04626 45501.0714584,-4054298.48506 45315.3196623,-4054771.86293 44973.9846702,-4055643.7728 44966.9906709,-4055632.79952 44946.2161598,-4055602.85502 44880.185271,-4055506.30367 44878.2075916,-4055502.95344 44828.7530427,-4055447.60195 44749.8113403,-4055362.41492 44662.5263353,-4055268.34159 44564.1733976,-4055101.29029 44493.2195824,-4054984.15215 44420.8819646,-4054868.60516 44349.8593363,-4054750.47468 44276.1440108,-4054633.02997 44120.2728395,-4054384.27716 44079.6937957,-4054316.84426 44061.8259731,-4054285.69967 44015.8851388,-4054205.68433 44010.8343789,-4054197.56513 43993.6699102,-4054169.36131 43981.873291,-4054150.25119 43972.3368185,-4054134.97001 43941.7497951,-4054085.77611 43900.2483295,-4054019.40375 43881.4233858,-4053988.82401 43847.1982974,-4053933.90382 43824.5909817,-4053899.10287 43788.3823416,-4053844.32083 43762.4659989,-4053797.79097 43752.7913332,-4053780.52607 43725.8200993,-4053729.58487 43717.7714136,-4053714.19987 43715.5458548,-4053710.8668 43714.6637452,-4053708.93504 43662.721554,-4053617.87595 43631.6855268,-4053562.2348 43626.6002681,-4053553.61959 43623.4926105,-4053548.35474 43618.9438353,-4053536.71226 43577.0388165,-4053396.61702 43575.9839104,-4053392.20573 43559.0122209,-4053334.5876 43540.904504,-4053278.54355 43524.3821955,-4053227.37212 43473.8478876,-4053059.97234 43439.1958789,-4052945.28344 43371.1377602,-4052855.34642 43361.2093142,-4052841.58716 43333.7877295,-4052805.62611 43310.892364,-4052773.83445 43291.2488933,-4052745.80269 43221.7438437,-4052652.97617 43257.9754119,-4052633.01054 43363.9019021,-4052576.29654 43327.74292,-4052493.60437 43298.0064909,-4052424.41741 43268.7314873,-4052354.69992 43238.7126958,-4052285.0342 43209.8239954,-4052217.28293 43196.5645643,-4052184.32135 43181.1894169,-4052146.0257 43156.5668623,-4052089.43835 43060.9886129,-4052162.37331 42989.8155161,-4052213.67547 42978.4665133,-4052222.43925 42968.997493,-4052229.57709 42932.3611779,-4052258.04212 42905.1247743,-4052278.3775 42897.0398225,-4052283.92397 42852.5664839,-4052317.91828 42849.4812746,-4052320.12651 42827.2445981,-4052337.12368 42816.7837436,-4052344.33066 42813.3062793,-4052348.06118 42801.4146178,-4052363.34095 42722.9654497,-4052463.98578 42708.51905,-4052481.9352 42657.2961386,-4052547.79418 42646.9674136,-4052560.47353 42605.9004756,-4052611.17371 42507.1110569,-4052738.15258 42505.265626,-4052740.27446 42478.0048995,-4052774.56489 42452.8375653,-4052806.7162 42422.7395907,-4052843.19769 42363.0625903,-4052780.58091 42329.4416924,-4052745.05114 42299.5340918,-4052712.75084 42274.7869064,-4052686.56913 42207.0146735,-4052615.04797 42150.5551055,-4052555.69483 42068.5699603,-4052469.7156 42009.0719056,-4052406.08897 41975.2376557,-4052371.07196 41964.4554912,-4052359.36507 41888.8706052,-4052279.41762 41726.6078084,-4052103.35186 41683.2312528,-4052056.54113 41638.5458073,-4052008.82487 41637.6982784,-4052007.38893 41581.5559175,-4051949.00922 41548.2522004,-4051914.45307 41506.7841502,-4051870.00076 41463.7937949,-4051825.1561 41451.7027588,-4051812.54353 41352.2530484,-4051708.34406 41294.1677419,-4051647.10915 41240.1818837,-4051591.07019 41135.5373462,-4051480.25521 41044.9614218,-4051385.40316 40955.163964,-4051290.99493 41016.5155733,-4051227.42005 41075.9118526,-4051167.96814 41135.8793019,-4051105.98492 41194.745101,-4051046.07187 41256.0966891,-4050982.4975 41262.4869699,-4050974.07915 41288.1048199,-4050948.37508 41375.818132,-4050859.04512 41378.3730085,-4050856.37554 41472.897247,-4050761.08989 41475.2041622,-4050758.43758 41532.1553185,-4050699.65522 41558.8057287,-4050670.88952 41599.4012454,-4050627.69785 41676.6815889,-4050549.56023 41678.7405443,-4050546.92522 41761.8054335,-4050462.40507 41842.9902421,-4050379.51107 41921.1587818,-4050299.81728 41925.097806,-4050295.55638 42001.7440483,-4050215.4705 42081.5792111,-4050134.66444 42165.6013433,-4050049.58047 42220.1764639,-4049992.45988 42281.3836069,-4049930.39272 42348.2717053,-4049860.45532 42360.3621285,-4049873.06806 42428.9843661,-4049942.53921 42491.0686035,-4050003.99407 42551.622698,-4049950.44401 42617.1075983,-4049892.56417 42679.8932521,-4049838.85895 42695.9255046,-4049825.78301 42727.1770751,-4049798.69113 42734.9107125,-4049791.67452 42786.629429,-4049747.21145 42819.2996535,-4049719.02424 42845.9719254,-4049697.73279 42897.6498266,-4049656.26261 42954.1549351,-4049608.97494 42961.9921492,-4049603.44611 43015.7164445,-4049566.31842 43097.0702135,-4049507.33455 43033.050352,-4049400.16995 43036.1356495,-4049397.96189 43043.442434,-4049391.97172 43068.7933537,-4049376.75224 43076.734153,-4049372.71118 43084.1790431,-4049368.70465 43098.1460588,-4049361.75246 43116.4726637,-4049353.00181 43199.1855519,-4049306.3815 43242.7594159,-4049280.92376 43245.3833253,-4049279.24614 43289.4875971,-4049254.24982 43357.6966342,-4049217.60912 43364.1842107,-4049214.16759 43490.3952363,-4049144.58689 43529.1417162,-4049124.94685 43541.6554595,-4049118.59425 43554.63058,-4049111.71122 43564.0245157,-4049107.07075 43590.0437964,-4049094.29651 43597.9845401,-4049090.25553 43603.4112381,-4049085.89126 43610.8215518,-4049081.38889 43615.8213947,-4049078.05096 43637.2331459,-4049067.09244 43675.8759753,-4049045.96479 43689.8083549,-4049038.51684 43706.8605295,-4049029.35677 43746.9565078,-4049007.62969 43847.4647164,-4048951.79851 43949.4542088,-4048899.3525 44045.9196114,-4048846.29463 44072.8269538,-4048831.96385 44136.9582267,-4048797.60112 44144.8643897,-4048793.0643 44247.4247123,-4048738.08754 44345.3774307,-4048684.9266 44428.2616027,-4048640.7876 44457.5102089,-4048624.30081 44477.4685486,-4048613.94206 44561.4887536,-4048568.22926 44583.3616079,-4048556.74066 44672.0926983,-4048510.70008 44687.374499,-4048501.16523 44784.3411717,-4048444.58557 44885.7989701,-4048391.67983 44947.4846079,-4048357.98649 44979.1779605,-4048340.83149 45004.5627749,-4048326.10881 45058.1978563,-4048298.45722 45072.1299806,-4048291.0096 45114.0362124,-4048266.66595 45162.1818983,-4048238.89826 45200.6105254,-4048218.2848 45251.2701259,-4048190.84049 45278.4595006,-4048176.98891 45288.1011613,-4048172.33145 45321.8187736,-4048152.04598 45331.1434504,-4048146.41401 45334.2631813,-4048144.70198 45340.2546982,-4048141.29519 45353.7253983,-4048134.37805 45420.7273684,-4048098.32198 45422.1460017,-4048097.22666 45490.7799714,-4048059.56221 45513.3273556,-4048047.03042 45600.748597,-4048000.08577 45682.3916751,-4047956.03488 45689.836309,-4047952.02869 45693.6653398,-4047949.76902 45780.2735142,-4047901.88465 45795.6586477,-4047893.83778 45872.1982677,-4047851.63722 45959.6944672,-4047802.19645 46035.3111842,-4047761.05691 46127.9104292,-4047709.76637 46132.6966909,-4047706.94182 46192.0054484,-4047674.91006 46204.2708025,-4047668.57528 46278.3996321,-4047627.53961 46294.4594612,-4047618.44934 46367.8443829,-4047577.46556 46398.8278352,-4047560.85901 46426.23022,-4047546.49483 46455.085723,-4047531.53125 46525.0274852,-4047494.77354 46544.4203726,-4047483.45825 46594.7276052,-4047454.54477 46619.6505256,-4047440.35324 46622.0263861,-4047438.69305 46630.3591528,-4047433.13033 46701.6848559,-4047394.78167 46736.4971514,-4047375.91571 46738.4116413,-4047374.78591 46862.0623194,-4047307.88199 47000.9468969,-4047237.92506 47080.6330996,-4047197.99847 47108.3176794,-4047184.11323 47139.3698426,-4047168.49882 47200.4133654,-4047136.34733 47265.4992203,-4047101.42322 47306.3780151,-4047076.65439 47347.0088535,-4047051.90286 47438.6773895,-4047005.16359 47440.626369,-4047004.52969 47519.7817168,-4046964.14232 47632.1104397,-4046909.98636 47652.8807474,-4046900.56867 47687.4037662,-4046884.713 47729.6536402,-4046865.33005 47728.6900141,-4046869.38326 47728.2976625,-4046870.90538 47727.286745,-4046881.4394 47728.4101149,-4046886.8422 47729.4644731,-4046891.25327 47731.51057,-4046895.59532 47734.4039893,-4046901.37322 47736.9114497,-4046905.18489 47742.0707869,-4046911.30338 47748.1528499,-4046916.36112 47758.1328517,-4046920.15107 47764.1740177,-4046928.20127 47762.3093995,-4046940.78778 47758.8881639,-4046952.48607 47753.655988,-4046966.80173 47746.757287,-4046982.22991 47743.3296725,-4046997.41655 47743.4485444,-4047009.86503 47746.5490175,-4047018.61814 47748.8085509,-4047022.44706 47748.7612756,-4047028.92787 47748.2590228,-4047032.45071 47745.773294,-4047036.11159 47743.3565801,-4047040.7642 47745.4026879,-4047045.10624 47748.8328809,-4047047.85716 47753.4273489,-4047053.01841 47752.953223,-4047060.52546 47751.1767921,-4047063.6387 47749.1524268,-4047066.7692 47746.6321926,-4047069.9342 47744.6078275,-4047073.0647 47745.6558188,-4047080.9641 47748.8189381,-4047094.19728 47757.6999247,-4047117.99449 47764.1897242,-4047132.49097 47769.3835923,-4047139.10531 47772.8828051,-4047142.84796 47777.0785596,-4047153.01964 47780.7593206,-4047173.69084 47783.2821824,-4047188.46338 47785.9494562,-4047201.73106 47787.6313683,-4047211.57941 47788.2180182,-4047220.00918 47788.2679199,-4047231.46592 47787.9382245,-4047237.46811 47783.3936459,-4047243.76362 47778.5321149,-4047249.08466 47774.8757468,-4047253.82355 47773.5606862,-4047256.40642 47773.9811664,-4047258.86851 47778.0797835,-4047264.06425 47784.7612721,-4047270.57504 47788.2950023,-4047274.81355 47790.8024859,-4047278.62521 47791.8223638,-4047282.54039 47791.8159953,-4047286.02873 47791.8096269,-4047289.51707 47788.3666877,-4047293.74284 47781.8041304,-4047299.68052 47777.4729824,-4047305.46292 47776.4058584,-4047308.02854 47776.6065492,-4047314.49209 47776.1388234,-4047318.5108 47775.2097388,-4047323.0599 47770.7686972,-4047330.84303 47767.394779,-4047336.06054 47763.242548,-4047340.83395 47754.8690661,-4047349.38903 47748.5544446,-4047355.30947 47745.042487,-4047358.54351 47741.9855243,-4047364.73551 47740.4915532,-4047368.32738 47740.2372551,-4047371.83297 47740.2654018,-4047375.81718 47740.7549076,-4047379.27101 47741.6712623,-4047381.69859 47744.2477755,-4047386.50198 47746.4383133,-4047389.33916 47748.4154269,-4047392.68945 47750.2890097,-4047394.55214 47754.3186202,-4047398.75614 47757.8523618,-4047402.99464 47760.924745,-4047407.76352 47763.6456627,-4047411.06205 47765.1614188,-4047414.94273 47766.2158168,-4047419.35378 47766.1685853,-4047425.83458 47765.7290177,-4047433.83751 47765.2612999,-4047437.85622 47762.8101068,-4047442.01298 47758.3345685,-4047449.30026 47756.3102232,-4047452.43077 47754.5683233,-4047456.0399 47751.1253931,-4047460.26568 47745.1340959,-4047463.67228 47740.2035584,-4047468.0016 47739.5977986,-4047470.03684 47741.1480702,-4047474.41338 47742.7673643,-4047479.78167 47742.3341604,-4047484.29625 47741.7629123,-4047486.82737 47739.2426992,-4047489.99239 47734.980588,-4047496.76655 47734.8298311,-4047501.75975 47735.4637452,-4047503.70871 47738.3635816,-4047505.99825 47741.3733073,-4047506.28705 47745.5191716,-4047505.00196 47755.449263,-4047497.33506 47756.8333362,-4047495.74392 47762.3287616,-4047492.37183 47767.8241866,-4047488.99974 47774.3113488,-4047485.55863 47778.7396566,-4047484.75216 47784.7936145,-4047485.82563 47790.3108356,-4047489.92608 47794.3404508,-4047494.13006 47795.8217006,-4047497.51487 47795.8153448,-4047501.0032 47793.8255149,-4047504.62958 47790.3825904,-4047508.85537 47785.561949,-4047511.18396 47777.0222917,-4047513.77138 47772.1671379,-4047515.6041 47768.0557871,-4047517.38505 47762.0299833,-4047520.29579 47759.1237927,-4047521.49459 47756.1830906,-4047522.19753 47752.6429851,-4047521.44737 47748.1111414,-4047520.76624 47745.9451413,-4047543.33918 47749.3126896,-4047541.60999 47752.2188803,-4047540.41119 47755.3730054,-4047539.19512 47759.2709337,-4047537.92729 47763.1688617,-4047536.65946 47767.2802124,-4047534.87851 47771.6394973,-4047533.0803 47776.3157392,-4047532.25657 47781.660407,-4047533.87767 47784.7391538,-4047535.15821 47787.852412,-4047536.93462 47790.1873556,-4047538.26692 47789.7196452,-4047542.28564 47787.7988406,-4047546.90376 47784.2868954,-4047550.13781 47777.4827799,-4047552.60444 47771.3534435,-4047554.02758 47767.8823618,-4047554.26916 47765.3621533,-4047557.43419 47766.3820504,-4047561.34937 47768.9585779,-4047566.15276 47770.543368,-4047571.02516 47769.5797907,-4047575.07839 47771.6604504,-4047579.91629 47776.8135083,-4047589.52306 47785.4939732,-4047606.85665 47783.083654,-4047608.02095 47787.05972,-4047622.19407 47787.7563141,-4047628.62311 47787.3512868,-4047637.1219 47787.7590886,-4047646.56066 47789.4065635,-4047655.91314 47792.438108,-4047663.67447 47798.651941,-4047674.20394 47805.7539741,-4047683.17678 47814.3091003,-4047691.55021 47824.8068434,-4047702.77805 47827.4650934,-4047701.59649 47829.8408962,-4047699.93632 47841.9297821,-4047712.54822 47847.9710541,-4047720.59834 47852.6282618,-4047730.23959 47855.6253004,-4047737.50505 47857.913051,-4047745.31814 47859.9465282,-4047756.63682 47862.1870886,-4047770.93071 47864.3177731,-4047787.22533 47865.7800252,-4047801.07512 47867.0697112,-4047812.44557 47869.1722292,-4047824.75599 47870.7443678,-4047836.60505 47870.9387823,-4047846.55692 47870.9197787,-4047857.02192 47871.5410359,-4047865.94754 47871.0670154,-4047873.45459 47870.1943386,-4047885.97209 47873.3294545,-4047895.22101 47876.4300571,-4047903.97406 47879.998345,-4047908.70839 47889.1183927,-4047918.03899 47890.5369666,-4047916.94372 47893.4431437,-4047915.74489 47896.0668721,-4047914.06746 47898.9040195,-4047911.8769 47904.4339244,-4047909.00064 47906.8097186,-4047907.34046 47914.8689975,-4047915.74836 47918.6161885,-4047919.4737 47921.089196,-4047922.78945 47923.6312332,-4047927.09694 47924.0517412,-4047929.55902 47923.762963,-4047932.56874 47923.3297959,-4047937.08332 47918.7162702,-4047942.38715 47913.2490695,-4047949.74347 47910.79159,-4047957.38858 47908.5820451,-4047965.01643 47908.4313293,-4047970.00962 47909.5893135,-4047975.90826 47912.2349011,-4047981.70335 47915.8031937,-4047986.43768 47918.1318176,-4047991.25829 47920.8464373,-4047998.04512 47921.4740412,-4048003.4824 47920.9718485,-4048007.00525 47919.0165689,-4048011.12751 47916.9577428,-4048013.76216 47913.9762128,-4048017.45759 47911.0291985,-4048021.64888 47908.4745049,-4048024.31806 47905.2105255,-4048027.53487 47902.2289957,-4048031.2303 47899.2129501,-4048034.42986 47892.2644784,-4048038.40141 47886.7690937,-4048041.77355 47884.3587863,-4048042.93786 47877.8371494,-4048045.88316 47868.2649497,-4048051.53216 47865.8891575,-4048053.19235 47858.9751988,-4048057.65977 47851.3519534,-4048062.67484 47845.925598,-4048067.03872 47839.9688581,-4048070.94125 47835.6786245,-4048073.73123 47831.6708409,-4048076.99983 47827.7320895,-4048081.26016 47831.6800736,-4048091.44904 47833.6290304,-4048090.81511 47836.2527571,-4048089.13766 47840.1161542,-4048087.37393 47844.192969,-4048085.09707 47848.0563656,-4048083.33333 47851.6373119,-4048081.09099 47855.7141261,-4048078.81413 47859.0816541,-4048077.08491 47862.4491819,-4048075.3557 47867.0218635,-4048073.04432 47870.141457,-4048071.33236 47872.5172485,-4048069.67218 47875.4234239,-4048068.47335 47880.4919726,-4048066.12746 47883.8594994,-4048064.39824 47886.9790923,-4048062.68628 47892.0476401,-4048060.3404 47895.3806504,-4048058.11531 47898.2523089,-4048056.42061 47900.9105494,-4048055.23904 47905.2352947,-4048052.94493 47904.6548479,-4048041.02685 47908.235792,-4048038.78451 47913.269823,-4048035.94275 47916.6718644,-4048034.70941 47920.0739057,-4048033.47606 47929.2693233,-4048040.31005 47932.636848,-4048038.58083 47936.7481736,-4048036.79985 47934.5012254,-4048025.99431 47932.9854315,-4048022.11366 47932.0000209,-4048018.69436 47931.510478,-4048015.24055 47932.4049909,-4048010.19559 47934.429301,-4048007.06506 47936.9494786,-4048003.90002 47938.2363134,-4047997.33294 47940.7283018,-4047990.18371 47943.220291,-4047983.03447 47947.1245255,-4047978.27829 47950.1405713,-4047975.07873 47954.4998309,-4047973.28049 47956.979167,-4047973.10792 47959.9888854,-4047973.39669 47962.6062823,-4047975.20759 47967.9854636,-4047977.32451 47973.7161239,-4047980.91178 47978.6339528,-4047983.55909 47985.2464745,-4047989.07805 47990.3023644,-4047993.70882 47997.7904229,-4048004.6478 47996.3373378,-4048005.24722 48000.8783884,-4048020.37748 48002.6639828,-4048031.71339 48006.1160814,-4048041.93675 48008.1904512,-4048050.26294 48010.0105672,-4048062.09471 48012.0095868,-4048072.91749 48014.2502217,-4048087.21133 48016.2084103,-4048101.02657 48019.9585324,-4048122.68938 48022.330929,-4048142.45501 48023.7242304,-4048155.31303 48025.365468,-4048168.15379 48028.1428239,-4048179.42065 48029.6868293,-4048187.28548 48031.6921853,-4048194.61993 48033.7665764,-4048202.94611 48034.9590999,-4048209.3406 48035.5176885,-4048213.78614 48034.9809924,-4048216.81312 48033.9139126,-4048219.37874 48030.8633665,-4048222.08244 48028.522103,-4048224.23849 48025.4370395,-4048226.44632 48023.5226077,-4048227.57612 48019.4803281,-4048230.34885 48010.0180317,-4048233.99715 48012.6573309,-4048243.28054 48024.1376104,-4048239.99005 48029.736524,-4048238.1055 48032.2158569,-4048237.93291 48037.2090399,-4048238.0836 48040.5702421,-4048239.8427 48043.2911971,-4048243.14118 48045.2338349,-4048245.99557 48047.2109904,-4048249.34582 48053.9552926,-4048260.33654 48058.0758847,-4048273.0047 48062.617002,-4048288.13493 48066.2072155,-4048300.34174 48070.8236819,-4048312.97538 48073.9933761,-4048322.72011 48077.059517,-4048330.97725 48079.5952745,-4048338.77303 48082.6959359,-4048347.52603 48084.8393847,-4048356.84393 48086.8384576,-4048367.66669 48089.5122944,-4048377.44594 48093.6737308,-4048387.12163 48099.1846913,-4048394.7103 48106.6791162,-4048402.16089 48110.2129146,-4048406.39931 48113.884789,-4048412.62119 48115.8619523,-4048415.97144 48116.8473841,-4048419.39072 48118.3632009,-4048423.27135 48119.0661811,-4048426.21202 48120.0861325,-4048430.12717 48128.9424382,-4048467.87735 48183.0421608,-4048436.2082 48210.5937105,-4048495.5772 48248.0593829,-4048575.68149 48189.6821823,-4048603.16412 48119.3703171,-4048473.52639 48107.1558286,-4048451.95459 48094.4361598,-4048415.96815 48018.1450637,-4048400.84999 48050.0400268,-4048486.82337 48081.9351046,-4048572.79666 48132.2619603,-4048708.80841" style="stroke-linejoin:round;stroke:#000;stroke-width:1px;fill:none" /></g></g></svg>