<svg xmlns="http://www.w3.org/2000/svg" baseProfile="full" height="177212.478747" version="1.1" viewBox="-40350.583572,3276701.278608,87029.508959,177212.478747" width="87029.5089588"><defs><style type="text/css">polyline,line,rect,path,polygon,.polygon{fill:none;stroke:#000;stroke-width:1px;stroke-linejoin:round;}</style></defs><g fill_rule="evenodd" transform="scale(1,-1)"><g class="hogares departamen mujeres departam_1 toponimo_i tot_pob varones viv_part viv_part_h" id="10042"><polygon class="_10042" id="None" points="19813.3908833,-3299573.76049 20191.1045588,-3300083.2458 20230.0925079,-3300391.23059 19846.0955482,-3300947.18829 19848.0793793,-3301460.16022 19849.8143241,-3301941.6335 19938.2760642,-3303022.07479 19427.0371833,-3303640.02356 18909.3154117,-3303707.50457 18695.0701036,-3303982.48241 18662.5624575,-3304322.4615 18726.8049705,-3304453.95552 18958.5277865,-3304928.93367 18799.7704642,-3305535.39253 18903.5050318,-3305863.87529 18677.0095667,-3306207.84787 18674.5091646,-3306228.34653 18605.9975744,-3306816.30805 18218.0133669,-3307141.27736 18315.237792,-3307887.73244 18041.9912692,-3308440.18985 18041.2357732,-3308660.17555 18223.4558822,-3309374.13328 18247.7018814,-3309469.62756 18396.9271843,-3310058.09203 18916.1262988,-3310682.06289 19141.6022176,-3311020.54545 19274.8338833,-3311377.5242 19043.092234,-3311682.99709 19043.5921615,-3311684.497 19127.5785328,-3311993.47752 19339.06013,-3312134.47295 19423.2940322,-3312535.94672 19191.5523134,-3312863.41764 19141.5481252,-3313177.89394 18986.5465753,-3313699.35266 18857.0536235,-3313795.34261 18585.32401,-3313762.8385 18380.3330329,-3314009.81587 18478.8180343,-3314348.29359 18495.0613535,-3314585.77663 18086.8385609,-3314700.75892 17999.5889387,-3314968.73734 18041.8317551,-3315151.72483 18094.8213154,-3315445.20435 18022.0741215,-3315561.69411 17758.5932473,-3315579.18704 17680.3394784,-3316022.65241 17325.8632362,-3316147.63558 16611.6655649,-3316186.11805 16270.6862949,-3316418.59401 16176.6836382,-3316916.55498 15854.1983456,-3317419.01107 15617.2029772,-3318142.95182 15490.9448269,-3319140.87297 15092.2173143,-3319626.82842 14611.4737021,-3321547.66943 14589.9740707,-3321633.16228 19822.5437921,-3321997.72919 26024.0229052,-3322002.38045 26126.0167449,-3321909.39127 26436.4921629,-3321835.90631 26819.2112828,-3321764.92334 27336.1553187,-3322154.90456 27670.8689009,-3322404.39259 27775.8540187,-3322599.37861 27985.8369355,-3322554.38871 28138.8207441,-3322647.88502 28285.8048037,-3322749.38044 28375.0374703,-3323068.85486 28597.5093267,-3323353.33619 28825.7391259,-3323349.34332 29287.9452318,-3323436.34941 29658.1519819,-3323766.33098 29847.8800349,-3323924.82243 30639.0402614,-3324504.79385 31043.9926265,-3324841.77537 31450.4435935,-3325209.25394 31544.1811599,-3325328.74573 31600.418922,-3325554.22645 31868.8742355,-3326186.67539 31915.3621118,-3326439.15298 31928.0787892,-3327504.05217 31930.3231596,-3327686.53479 31708.8450526,-3327662.0306 31473.1159065,-3327718.01835 31266.6315326,-3327857.99901 31043.6444661,-3328148.96487 31015.3836186,-3328628.91817 30887.1410429,-3328803.39786 30619.9072262,-3329146.85753 30460.4154427,-3329408.82804 30385.16611,-3329653.80245 30358.9163591,-3329739.29352 30400.4044146,-3330038.76572 30610.3749754,-3330383.73784 31150.3164336,-3330608.73023 32007.224443,-3330902.22447 31974.7270099,-3330925.72127 31645.2530918,-3331163.68896 31461.516523,-3331340.1667 31378.0193665,-3331545.64424 31281.5244812,-3331715.125 31203.2734642,-3332055.08939 31241.0115251,-3332377.05844 31405.2296514,-3332993.5012 31549.2015763,-3333542.94976 31675.1707714,-3334283.37824 31817.6374093,-3335072.30162 32531.8089176,-3335304.29498 32649.2868564,-3335721.75491 33054.4774354,-3336463.18786 33785.633996,-3337194.12874 33968.0837515,-3338546.99026 34105.0639298,-3338783.46823 34291.2869759,-3339104.4382 34435.0148769,-3339410.40871 34030.795976,-3339970.84003 33796.0666681,-3340179.31279 33848.2954559,-3340935.73282 33287.8474852,-3341339.67827 33399.0743751,-3341913.11886 34049.4870589,-3342804.03495 34591.1658808,-3343449.47474 34655.3967939,-3344104.40411 35237.8124826,-3345229.79024 35254.3096588,-3345286.7842 35502.7672642,-3346149.19247 35896.4638096,-3346714.63574 35896.2127117,-3346783.12805 35894.7027196,-3347413.05722 35747.9647643,-3347697.52291 35754.2037373,-3348374.94668 35810.6941961,-3348587.92347 35678.4522154,-3349063.86777 35706.6961916,-3349262.84567 35730.4411335,-3349431.32693 35656.1950076,-3349758.78882 35885.4146988,-3350075.75597 36005.3972209,-3350362.225 36267.6091538,-3350987.65709 37820.9031958,-3353205.91994 37843.3986283,-3353379.39999 38038.1101588,-3354880.72667 38072.0908327,-3356584.02713 38074.5902931,-3356614.02363 38160.822323,-3357627.90496 38167.0710602,-3357700.89641 38493.2749122,-3358844.26354 38615.0079487,-3359271.21369 39265.9248601,-3360343.5896 39905.3431228,-3361563.94626 39812.1039999,-3361649.43565 39294.164427,-3362122.87721 39140.6810271,-3362741.80284 38974.4497704,-3363226.24464 39061.9379307,-3364099.1406 39290.909965,-3364811.05569 39094.933266,-3365416.98321 38870.9603366,-3366177.39255 38672.2346766,-3366783.32058 38747.7266983,-3367384.24891 38535.7532643,-3367986.17778 38442.2666883,-3368785.58311 38436.0176084,-3368839.57672 38410.2747242,-3369899.45109 38305.0389789,-3370295.40465 38459.023637,-3370876.33508 38401.2862264,-3371879.21669 38292.0619328,-3373694.00319 37838.6198637,-3374263.43993 37728.3839476,-3374401.92462 37569.9066513,-3374882.36976 37923.3739378,-3375805.75847 37873.8880577,-3376624.16332 37997.8869043,-3377818.52265 38275.1222272,-3379233.85444 38305.8696137,-3379306.84554 38373.6138778,-3379467.82592 38836.8253896,-3380567.19152 38728.1054777,-3381720.55928 38503.9105492,-3383493.85845 38632.6612771,-3384368.25587 39353.5998576,-3385492.11342 40078.2986534,-3387044.42052 41211.2210444,-3389317.63409 42221.6484879,-3391002.41534 42402.6569356,-3392065.78889 43231.6123003,-3393770.07065 42989.6580903,-3394370.01003 43356.6525969,-3395506.87019 43308.4287409,-3396141.80044 43489.4532094,-3397465.64652 43536.7391975,-3398637.51502 43559.2559166,-3399168.95568 43521.283374,-3399802.88758 43610.3141701,-3400877.26719 43382.6644215,-3402808.0685 42509.5640583,-3404229.95402 41828.9478998,-3405769.32337 41661.4924862,-3406424.7638 41694.755073,-3406799.7245 41836.3105445,-3408395.55857 42263.3188948,-3409511.42877 44400.4416473,-3415964.70045 43957.0057642,-3416378.18669 43607.8238501,-3417026.64664 44007.0769483,-3417725.06065 45304.2705719,-3418772.88982 46102.4691434,-3419121.80972 43580.8659595,-3453904.36473 39253.6156256,-3439934.27724 39252.6154228,-3439930.77749 39189.3538608,-3439726.2925 30522.7043839,-3410803.28274 26974.9121131,-3397485.10672 27159.3612569,-3395918.75556 26940.3412521,-3393809.46842 26927.5901855,-3393685.98096 26785.5792917,-3392319.62027 26584.0141147,-3386973.66915 25709.5805324,-3385162.86871 22869.3169881,-3379283.01109 17725.0983404,-3379282.04721 17846.5613687,-3374457.04279 17922.043408,-3371456.85403 17564.3297055,-3371106.39143 12594.5865211,-3366239.40053 9110.69261897,-3362827.24811 8023.30368152,-3361558.876 6553.45361162,-3359739.05857 5013.6087989,-3359389.09252 133.348236108,-3354459.58224 -7860.38053379,-3346402.88467 -13381.1075191,-3344017.64534 -18193.406293,-3341938.89005 -27917.2524416,-3337753.44695 -28484.9495048,-3337526.48078 -28709.9267902,-3337524.48539 -29576.8393025,-3337498.50535 -30724.7243016,-3337386.54057 -30977.7015087,-3337237.56125 -31816.6311262,-3336518.65361 -32110.6082425,-3336196.69343 -32576.0582863,-3336282.69535 -32936.5246979,-3336126.71995 -33374.4855386,-3335868.75715 -33641.7092392,-3335810.76967 -35445.2808078,-3335420.35606 -36100.221393,-3335062.91104 -36800.6478511,-3335045.93188 -37304.0892552,-3335230.92609 -37972.5180313,-3335223.44555 -38199.9902482,-3335342.93914 -38445.7160141,-3335265.45445 -38955.9217237,-3334895.00909 -39179.9082988,-3334531.05494 -39486.8870878,-3334135.6068 -39669.874523,-3333901.13767 -39757.1354099,-3333248.71058 -39668.6496838,-3333096.7241 -39707.1475936,-3333032.23223 -39231.9548504,-3332826.23927 -39262.7229998,-3332151.81192 -39259.484164,-3331816.34734 -39455.4693864,-3331633.87303 -39779.1956314,-3331316.41731 -39809.4526495,-3331011.45057 -39902.4495082,-3330813.97456 -39816.9614907,-3330726.48088 -39838.9632551,-3330606.49427 -39876.9656671,-3330419.0153 -39932.9646126,-3330278.53199 -39977.7127955,-3330195.04231 -40146.9560324,-3329879.08139 -40199.4576509,-3329676.60448 -40099.2218206,-3329572.61183 -39891.9898323,-3329676.59366 -40139.4788302,-3329256.64628 -40212.9750924,-3329146.66039 -40157.9807944,-3329147.65832 -40229.9830715,-3328875.68926 -40098.7508403,-3328761.69638 -39684.0427732,-3328791.67837 -39521.3014697,-3329021.14882 -39404.0642928,-3329001.6467 -39432.0713139,-3328721.67663 -39334.083411,-3328665.67892 -39334.0908918,-3328455.70055 -39591.5692524,-3328320.22374 -39530.0828292,-3328119.74215 -39348.1005045,-3328147.7327 -39194.1142849,-3328203.72142 -39152.1276418,-3327951.74571 -38998.402065,-3327709.76486 -38774.1782643,-3327615.76633 -38774.1717251,-3327797.74783 -38550.1934906,-3327825.73698 -38303.221677,-3327737.23718 -38214.2404655,-3327461.76186 -38312.2325767,-3327405.77101 -38130.2554243,-3327279.77721 -37945.2864209,-3326932.80542 -37822.3043573,-3326775.81671 -37715.0701397,-3326634.32698 -37696.3355987,-3326257.86375 -37780.3318456,-3326131.87931 -37668.3506085,-3325921.89603 -37472.3755881,-3325767.90408 -37374.3918867,-3325585.91842 -37514.3842959,-3325417.94007 -37444.9050827,-3325040.47453 -37234.441272,-3324620.00771 -37248.4482982,-3324396.02999 -37416.4383368,-3324228.05262 -37500.4408496,-3323948.08296 -37360.2076353,-3323863.58577 -37108.4808389,-3323892.07345 -36877.7591224,-3323731.08022 -36982.5057051,-3323556.10098 -36772.5268861,-3323528.0957 -36716.5433937,-3323234.12166 -36660.5663836,-3322772.16345 -36488.841952,-3322529.67979 -36478.6046284,-3322226.208 -36464.6195453,-3321876.24032 -36352.6365787,-3321708.25167 -36282.6452982,-3321652.25417 -36184.6642696,-3321400.2738 -35955.1944802,-3321171.78601 -35400.7627727,-3320728.3052 -35042.5523777,-3320549.8076 -34486.8725632,-3320033.33291 -33902.4301011,-3319898.32269 -33327.2386174,-3319703.31837 -32207.8286435,-3319943.25608 -31606.8928735,-3319618.763 -30882.7194439,-3319227.27135 -29844.075593,-3318725.77823 -28805.6644476,-3318689.74632 -27169.3164128,-3318197.73438 -26441.9198885,-3316791.82568 -25833.2498633,-3315788.38615 -24866.0996326,-3315000.91729 -23570.6921103,-3315233.36066 -23469.4493339,-3315251.35635 -22122.5731191,-3314476.8768 -20955.9582561,-3312668.47741 -20416.5323956,-3311345.05655 -20274.8016917,-3310997.07693 -19025.1827075,-3309263.66118 -18419.764155,-3307658.74981 -17202.3949486,-3305509.85177 -16568.4694597,-3304033.42289 -15606.2997778,-3302981.45905 -14892.1074387,-3302200.48521 -13983.9432371,-3300534.0526 -13692.7542845,-3298454.14927 -13442.0401281,-3297383.69389 -12927.8429901,-3296042.74253 -12385.1296451,-3295426.75725 -12121.3970455,-3295127.76426 -10698.2145663,-3294674.75479 -10555.7225742,-3294553.25707 -9502.02986249,-3293655.27396 -7030.88234548,-3293010.2621 -5363.46005893,-3291300.30371 -5086.47197102,-3291016.31052 -4367.00527707,-3289819.84235 -3494.03863315,-3288806.36604 -3039.05682979,-3287910.88817 -2985.05888827,-3287804.89071 -2880.56746753,-3286758.41709 -3255.56356081,-3285907.9397 -4126.55136366,-3284924.46786 -4208.56016039,-3283666.99374 -3949.0758204,-3282316.51512 -3911.07800655,-3282119.01794 -3884.58098698,-3281796.52266 -3136.84478017,-3281386.52321 -2497.85610877,-3280926.52572 -1965.86567406,-3280282.03122 -1318.62391913,-3280027.0319 -369.634808683,-3279561.53516 24.3612464793,-3278845.04173 207.859769209,-3278621.54365 812.355095455,-3278487.04538 1707.84865767,-3278325.54904 2840.34363302,-3277747.55858 3343.3429794,-3277394.56405 4075.59496928,-3276701.57335 3947.09139937,-3277180.56997 4140.58635513,-3277631.56908 4026.08501112,-3277868.56654 4150.08006516,-3278331.06429 4059.81929166,-3279662.55134 4420.8100473,-3280249.04799 4477.30569184,-3280644.04369 4217.80098696,-3281557.52896 4251.53903463,-3282877.50832 4296.78434073,-3283328.50074 4635.02305981,-3283881.99343 5030.00675444,-3284749.97974 5075.24936527,-3285392.96625 5131.99646285,-3285555.46316 5232.99121726,-3285844.45756 5311.9865814,-3286114.95202 5481.23051513,-3286306.94919 7207.19116885,-3286126.47484 7376.43095847,-3286554.96674 7963.144753,-3287965.43821 8527.11761159,-3288675.92678 8583.35669567,-3289251.41056 8797.84408908,-3289623.40263 8842.83325707,-3290198.88519 8881.07452258,-3290657.87087 8888.0729465,-3290740.36826 11843.4195875,-3293291.33212 15037.223321,-3296040.29289 16030.6559282,-3296895.28036 16302.3869739,-3297129.27689 16308.1237181,-3297605.75464 16671.6060135,-3297621.76386 16807.0951455,-3297779.76008 16987.5801392,-3298005.25429 17040.8253081,-3298085.25191 17168.0637171,-3298276.2462 17371.049266,-3298434.24422 17630.5286485,-3298704.73828 17777.0134736,-3298975.72896 18035.9980382,-3299057.23241 18995.4400181,-3299359.2459 19274.9233201,-3299432.75078 19813.3908833,-3299573.76049" style="stroke-linejoin:round;stroke:#000;stroke-width:1px;fill:none" /></g></g></svg>