<svg xmlns="http://www.w3.org/2000/svg" baseProfile="full" height="57359.1412703" version="1.1" viewBox="35879.533837,3245575.989382,52134.441743,57359.141270" width="52134.4417425"><defs><style type="text/css">polyline,line,rect,path,polygon,.polygon{fill:none;stroke:#000;stroke-width:1px;stroke-linejoin:round;}</style></defs><g fill_rule="evenodd" transform="scale(1,-1)"><g class="hogares departamen mujeres departam_1 toponimo_i tot_pob varones viv_part viv_part_h" id="10056"><polygon class="_10056" id="None" points="86854.3825542,-3261023.38757 86886.6118192,-3261657.8218 86939.334648,-3262496.2348 86984.3042667,-3263575.6217 87084.2565886,-3265367.4333 87192.4567504,-3267722.18317 87312.6638815,-3270509.38449 87382.6466007,-3272127.71004 87429.8881092,-3273222.59165 87532.1273761,-3275157.88174 87539.6269116,-3275301.86609 87638.8748725,-3277191.16038 87682.1262988,-3278002.57184 87691.6268671,-3278188.05159 87702.127517,-3278386.02997 87756.8939594,-3280351.31577 87663.16704,-3281243.22041 87614.1767301,-3281522.191 87559.437824,-3281838.65771 87404.2202768,-3282730.06447 87307.2413883,-3283288.00649 86575.1705797,-3287491.07969 86242.5135516,-3289402.39169 85652.4455712,-3292786.56884 85428.2704198,-3294071.94972 85263.5774558,-3295017.86332 85239.3296654,-3295013.86478 81835.880262,-3294483.56017 81366.5294769,-3296933.85883 81277.2877647,-3296940.8623 81210.0456374,-3296981.86174 81158.5532971,-3297048.85814 81132.8091557,-3297126.35244 81070.8225481,-3297296.84019 81029.581226,-3297404.83256 80921.3444015,-3297482.33077 80833.6043025,-3297528.83078 80740.8634096,-3297549.33331 80627.3733566,-3297549.33862 80524.129983,-3297497.84794 80439.8840387,-3297426.85805 80313.141151,-3297341.87132 80143.9039194,-3297299.88276 79932.1727164,-3297310.39156 79794.6850422,-3297320.89696 79784.1917744,-3297447.88652 79836.9440776,-3297595.87137 79889.9493736,-3297807.35072 79762.9667114,-3297944.84488 79466.7449558,-3298008.35338 79244.5152892,-3298040.3611 79085.7781889,-3298029.86941 78959.038846,-3298029.87534 78895.5421923,-3297987.38186 78895.5382642,-3297902.88895 78948.2677487,-3297553.91587 78853.0209278,-3297447.92913 78747.2774039,-3297394.93839 78662.7773349,-3297236.4555 78620.2733055,-3297066.97162 78525.0242442,-3296908.48914 78451.0266853,-3296823.49952 78345.2850594,-3296813.00505 78218.3003073,-3296919.00181 78154.8107309,-3297035.49494 78154.816372,-3297162.48441 78292.3158553,-3297405.45808 78229.0754138,-3297500.95302 78133.8299578,-3297426.96344 77996.089894,-3297394.97228 77784.610609,-3297468.97569 77657.6191262,-3297426.98483 77583.6180861,-3297268.00113 77498.8698499,-3297151.5144 77160.3978583,-3297162.52842 76991.1541269,-3296993.04954 76980.6467123,-3296802.56539 77065.1357751,-3296707.56944 77297.8604651,-3296559.07152 77192.1029176,-3296178.60706 76969.8595262,-3295903.63876 76716.1226882,-3295723.66383 76631.3700493,-3295490.68614 76705.3525582,-3295205.2063 76673.6025989,-3295141.71272 76620.8539336,-3295067.72083 76589.1048222,-3295025.22553 76335.1241058,-3294993.73812 76187.1364254,-3295004.2431 76091.8948919,-3295025.24516 76038.9020506,-3295099.24133 76028.4133932,-3295363.72061 75859.182817,-3295512.21556 75636.9512638,-3295533.22281 75425.4632874,-3295416.74044 75160.9815176,-3295353.2559 74494.2828379,-3295342.78291 73844.8360226,-3295434.80124 73679.8477954,-3295416.80902 73457.6157583,-3295448.81523 73267.1349436,-3295575.81313 73245.1412644,-3295695.80503 73055.6597512,-3295808.30409 72896.9227461,-3295840.30795 72671.6887783,-3295826.31779 72336.2052426,-3295617.84605 72188.2115524,-3295501.36021 72050.4651339,-3295332.37772 71870.7269407,-3295300.38683 71711.9943882,-3295459.38136 71489.5125136,-3295516.88566 71365.7700222,-3295481.89284 71184.5292488,-3295384.40659 70968.5421933,-3295321.41912 70801.0537426,-3295314.42585 70564.0719253,-3295356.4317 70348.0908622,-3295460.93243 70069.1130201,-3295537.4375 69859.879231,-3295586.4419 69657.8935677,-3295600.44843 69469.4051059,-3295565.45778 69295.1656285,-3295530.46657 69169.6718159,-3295467.97539 69044.1757026,-3295342.48842 68988.4266666,-3295265.49562 68911.6785656,-3295175.00447 68876.9269063,-3295063.5132 68890.9214963,-3294938.02114 68946.66404,-3294833.5262 69009.4071047,-3294757.02915 69051.1513255,-3294673.03336 69072.1425959,-3294464.04679 69065.1377509,-3294310.55745 69072.1327158,-3294178.06621 69058.1293764,-3294052.57522 69009.378902,-3293941.08446 68932.6331662,-3293913.08895 68814.1400141,-3293878.09532 68639.9031892,-3293920.09835 68514.4135106,-3293976.09881 68351.1811798,-3294175.59098 68214.442749,-3294248.09079 68026.2071143,-3294303.59351 67775.2250803,-3294345.59927 67545.2403776,-3294352.60661 67217.5112138,-3294338.61858 66987.5248886,-3294303.62856 66743.5377687,-3294220.14206 66555.2951858,-3294080.6572 66360.0530472,-3293941.17247 66248.3069731,-3293843.68229 66146.0608988,-3293764.6906 65956.8217997,-3293732.19872 65827.5855614,-3293907.69185 65795.8396013,-3293971.1889 65808.5925021,-3294085.18135 65751.3481648,-3294149.17921 65649.6024279,-3294085.18652 65528.8564484,-3293977.19715 65395.3643297,-3293964.70222 65268.3725847,-3293977.20552 65166.6302855,-3294021.70605 65115.6348523,-3294066.20495 65001.3945325,-3294149.20354 64861.4043113,-3294187.20573 64645.4180555,-3294206.21153 64461.1794062,-3294212.71705 64314.9377955,-3294199.72252 64181.4456128,-3294193.72715 64066.9546774,-3294263.22665 63984.4624425,-3294352.22398 63838.2207274,-3294339.72941 63711.2280349,-3294333.23385 63641.2329794,-3294358.73458 63634.9865939,-3294460.22879 63679.4878653,-3294581.22023 63711.2394908,-3294689.21284 63691.9968346,-3294879.70226 63495.0123437,-3295000.70163 63393.2728831,-3295140.69682 63279.030359,-3295166.1991 63177.2883443,-3295229.69879 63164.5409659,-3295286.69592 63177.2935996,-3295388.18963 63196.2967603,-3295515.68164 63183.5513394,-3295630.17547 63088.3097977,-3295718.67359 62942.0739882,-3295890.66869 62808.5850383,-3295992.16745 62656.1008451,-3296202.16076 62120.8912754,-3296507.16208 62077.9010253,-3296720.15177 62033.4112475,-3296942.64104 62021.1908943,-3297754.59692 62154.1852939,-3297800.58957 62249.4316953,-3297845.08365 62262.184955,-3297953.07725 62211.4419513,-3298067.57285 61969.7046549,-3298054.58246 61721.7162402,-3298004.09428 61499.4798055,-3298048.10001 61327.9889812,-3298048.10625 61222.7484263,-3298153.60446 61073.7579299,-3298197.60756 60819.5224922,-3298229.61512 60609.7838143,-3298239.12223 60476.2915617,-3298261.12591 60355.5464552,-3298223.13224 60203.0520591,-3298159.64101 60050.3103732,-3298172.14583 59948.8191058,-3298270.64442 59891.5739698,-3298324.64371 59866.0777871,-3298394.64105 59936.0774282,-3298483.63399 60018.5764426,-3298572.62645 60101.3261491,-3298680.61791 60082.3305078,-3298773.11387 59847.0932849,-3298795.12137 59700.8497551,-3298769.628 59510.1047599,-3298642.64133 59332.1093585,-3298522.15379 59116.1205955,-3298534.6609 59065.3756243,-3298604.65923 59008.1323391,-3298712.65593 59014.3895926,-3298922.14534 59008.1496319,-3299189.13239 59058.9050863,-3299405.11989 59128.9051837,-3299500.6126 59217.9038738,-3299583.10521 59262.4040737,-3299647.10039 59275.1560528,-3299716.59649 59160.6645607,-3299793.09703 59013.1733984,-3299836.10047 58467.9626108,-3300177.60449 58143.7277981,-3300171.117 57985.7403648,-3300307.11651 57668.2610258,-3300461.62123 57369.0413292,-3300897.61243 56764.5732356,-3301016.62996 56843.8396358,-3301538.60357 56564.6194076,-3301987.09455 55884.6608922,-3302295.10773 55431.4474592,-3302739.60667 55186.1952452,-3302420.12958 54928.4500943,-3302267.64585 53686.7438629,-3302088.70001 52990.7651956,-3301921.23227 52778.7666665,-3301733.74729 52728.7521057,-3301272.26713 52701.4969195,-3301095.27505 52678.7426522,-3300948.28163 52678.4858245,-3300752.28937 52675.9316542,-3299142.35391 52142.9527754,-3299133.37158 52055.2129233,-3299338.86626 51729.730915,-3299498.37058 51034.990185,-3298944.91427 51003.74142,-3298945.91521 50820.2486662,-3298952.42071 50632.9973028,-3298677.93702 50346.2647275,-3298889.93782 50146.5134512,-3298602.95477 49934.5168859,-3298453.4668 49522.2814934,-3298428.98007 49273.538784,-3298365.98978 49298.5301461,-3298103.99869 49186.5323285,-3298037.50442 48961.5367265,-3297904.51583 48624.795423,-3297780.03003 48687.2839519,-3297455.54007 48300.5417474,-3297231.05904 47866.8002309,-3296970.58031 47801.5515109,-3296931.58347 47585.064552,-3297128.58232 47527.0680283,-3297181.08204 47497.0686391,-3297164.58344 47302.5725673,-3297056.59249 46940.8318662,-3296931.60653 46550.346183,-3296963.11577 46317.1046365,-3296981.62128 46249.1072616,-3296993.62265 46105.1128031,-3297019.12556 45939.6199929,-3297081.12781 45905.6214721,-3297094.12826 45681.1250703,-3296944.13911 45369.1386277,-3297069.14303 45107.1436886,-3296931.65426 44870.1533084,-3297006.65786 44483.6582263,-3296707.17726 44283.9174162,-3296819.67864 43621.4384986,-3296829.19473 43435.6903702,-3296669.70423 42999.1999164,-3296507.71973 43011.693904,-3296270.72671 42849.4450819,-3296108.7355 42924.4375496,-3295884.24067 43011.6790918,-3295634.7464 42612.4369111,-3295435.26166 42467.4411849,-3295427.26516 41938.9565796,-3295397.77784 41764.2148543,-3295534.7776 40935.7376072,-3295459.79798 40444.251815,-3295462.30849 40042.7631445,-3295459.81712 39584.7708713,-3295216.83352 39045.0376651,-3295310.34208 38879.7874297,-3295077.85178 38708.2889952,-3294923.85942 38196.8028772,-3294930.3694 38153.5491331,-3294680.37692 37872.3031321,-3294499.38718 37321.3152253,-3294371.90098 36870.5700711,-3293999.91898 36176.089402,-3294087.92928 35906.5909797,-3293794.44145 36141.3242717,-3293173.45315 36448.5557585,-3292548.46417 36463.3025986,-3292381.4683 36484.2981107,-3292141.97427 36380.046584,-3291877.48295 36196.2968104,-3291585.99357 36294.0367811,-3291106.50479 36301.7860006,-3291069.00567 36373.7745555,-3290435.52163 36284.0230254,-3290164.53027 36373.2681405,-3289993.53363 36449.5139671,-3289847.03654 36339.263383,-3289592.04507 36436.2534428,-3289063.05828 36265.5054962,-3288865.06603 36432.2469393,-3288566.07211 36588.7378422,-3288201.08029 36757.9800861,-3287966.58475 36888.4732632,-3287718.59016 37175.208778,-3287210.10125 37123.2073591,-3286966.10894 37107.956961,-3286895.11118 37309.4471543,-3286557.61866 37514.190246,-3286480.11858 37877.1768296,-3286250.12124 37905.1757923,-3286232.62144 38071.6674813,-3285940.12835 38142.913929,-3285814.63135 38074.6628605,-3285528.64076 38074.6596896,-3285231.64977 37942.1543735,-3284304.67933 37909.65497,-3284263.68089 37790.1571765,-3284113.18661 37791.1522338,-3283577.20294 37731.6537727,-3283546.20441 37430.4115401,-3283389.21182 37502.907613,-3283187.21732 37514.1570089,-3283156.21817 37657.6511083,-3282973.72253 37722.6458297,-3282569.73437 37761.8929797,-3282360.74049 38087.6319987,-3282243.74158 38348.3716651,-3281956.74857 38270.1217253,-3281630.75938 38622.1076784,-3281213.77009 38809.6010574,-3281119.77181 38830.850306,-3281109.272 38758.3511064,-3280881.77977 38791.5971839,-3280431.79398 38974.0898902,-3280196.80045 39026.3366848,-3279936.30857 39390.8247219,-3279919.80703 39534.8190081,-3279745.31194 39770.5576137,-3279061.83332 39945.0508295,-3278862.33912 40134.2934724,-3278645.8455 40420.0324418,-3278336.35469 40606.5247409,-3278011.365 40587.0236949,-3277556.88061 40814.7655152,-3277452.3834 40832.0148935,-3277444.38362 40786.2652849,-3277081.39628 40942.5087271,-3276677.40978 41138.0019754,-3276690.40881 41258.4974767,-3276578.91238 41463.9889843,-3276025.43132 41572.7342739,-3275538.4483 41401.7400563,-3275373.45437 41487.2366628,-3275057.96537 41105.9999036,-3274935.47005 41191.2474587,-3272654.04974 41760.7323988,-3270621.62265 42066.7253198,-3269677.15742 42582.2092939,-3269166.17823 42644.4585337,-3268883.18878 42146.9849991,-3267465.23648 41956.7476587,-3266641.26415 42109.9939232,-3266429.27279 42300.7393189,-3266165.78362 42388.4940744,-3265261.3163 42664.737427,-3264928.83065 42837.4826977,-3264783.33749 42912.2306525,-3264720.34047 42937.4825827,-3264437.35081 42708.9957368,-3263950.36571 42700.7462135,-3263932.86624 42511.7593483,-3263336.88509 42455.0163459,-3262897.39975 42500.2684936,-3262582.9112 42344.7776575,-3262270.42011 42168.0368635,-3262016.42664 41763.8101143,-3261269.44676 41258.3312367,-3260941.45097 41246.3318577,-3260924.45137 40913.5990294,-3260456.96214 40844.8547286,-3260204.96934 40759.1119059,-3259890.47825 40717.6245995,-3259111.0025 40763.1415402,-3257931.04042 40881.414769,-3256348.0916 40971.4178517,-3256023.10322 40882.6877763,-3255098.62975 40956.2132519,-3253700.67304 40971.7188815,-3253406.18206 40279.7554593,-3252618.69029 39892.5405246,-3251500.21308 39598.3178253,-3250639.22972 39441.3325484,-3250179.23826 42559.9982626,-3250091.31599 43194.4813897,-3250016.33428 43566.7204175,-3250007.34411 44038.9583295,-3249917.85911 46182.1397178,-3249924.41635 46435.8676085,-3250424.90652 46442.8511948,-3251031.38614 46661.3376033,-3251263.8839 46964.569351,-3251559.88154 47190.2957878,-3252166.36594 47225.5191168,-3253188.83013 47712.0031246,-3253118.34458 47937.5018395,-3252836.36055 48733.9844492,-3252358.89863 50016.4706265,-3251077.48209 50757.7255999,-3249931.54787 50898.7417749,-3249226.57932 50992.007718,-3248608.10592 51058.5347384,-3247700.64243 51530.0351565,-3247159.6787 52422.2796106,-3246345.24095 53204.5254216,-3245631.29714 53212.5253894,-3245623.79773 53803.7168847,-3246575.28175 54283.1799059,-3247054.77954 54283.1547695,-3247760.25019 54339.3876483,-3248183.23439 55199.8404379,-3248481.75146 55912.0663389,-3248277.28548 56454.5587521,-3247816.32556 56953.5372358,-3247788.8451 57129.3082168,-3247015.88676 57412.3080805,-3246685.4126 57667.3051455,-3246462.93266 57977.5464994,-3246321.95134 58140.7887607,-3246327.45756 58362.5281648,-3246335.46602 58412.5257577,-3246337.46792 58285.2523046,-3247085.42793 58123.2425179,-3247538.90042 58005.7286089,-3248056.37165 57949.2049512,-3248775.33553 57933.6940538,-3249099.81952 60106.0860474,-3249126.39701 60219.3302215,-3249127.90112 60489.5673595,-3249101.41251 61010.5388472,-3249141.92985 61020.7882181,-3249144.43011 61135.7812249,-3249170.43305 61463.5026264,-3249472.92933 61149.9977542,-3250058.88672 61319.211097,-3250834.35137 61335.9604255,-3250827.8523 62277.6720033,-3250470.40531 62433.1655842,-3250411.41421 62575.425627,-3249925.44624 62729.1780042,-3249635.96796 63011.1769524,-3249254.99977 63448.4269664,-3248634.55133 64077.8927312,-3248607.07804 63997.1075409,-3249617.51737 63575.8813457,-3249620.50102 63480.602886,-3250521.94636 64052.3010967,-3251039.93751 64890.9940558,-3251252.95552 65502.458779,-3251214.98023 65524.4574856,-3251213.9811 65760.9436174,-3251200.99064 66366.1583193,-3251152.0162 66862.6746933,-3249932.61085 67513.3801224,-3250030.63067 67557.8770547,-3250037.13204 67368.3741651,-3250411.6009 67181.3539332,-3251243.04119 67283.5894759,-3251455.0316 67533.5698886,-3251552.53475 68107.2893243,-3251383.56731 68945.210553,-3252011.05773 68750.2117069,-3252329.02932 69088.4225989,-3252780.5115 68721.4367975,-3253069.97891 68333.9362076,-3253828.41485 68637.1577918,-3254068.40911 69337.6286457,-3253539.96898 70267.0756883,-3253231.52329 70445.2988126,-3253635.00151 70949.7495827,-3254021.49203 71034.226937,-3254500.96076 70752.2393724,-3254726.4351 70188.2716906,-3254951.90032 70336.2517554,-3255241.38479 70402.7190814,-3256117.82477 70417.7119088,-3256314.81121 70791.4318236,-3256422.81499 71399.1323379,-3256598.82093 71735.1173307,-3256289.35407 72892.001854,-3257227.81959 72905.7504758,-3257238.81917 73459.4445879,-3257687.80135 73634.423974,-3257927.28797 74531.0685958,-3259154.21683 74446.5535485,-3259971.64932 75123.2283115,-3260789.60042 75735.1819474,-3260637.12814 76094.9044259,-3260547.14467 76787.0909689,-3260761.64421 77238.2948652,-3261071.62913 77576.7461032,-3261889.56697 77661.2259317,-3262453.52008 78638.8749214,-3263153.4799 79438.0244594,-3264596.86622 79497.2690067,-3264600.86695 80848.8926095,-3264697.38329 82201.512422,-3264794.3995 82399.0089224,-3264004.97949 82934.7116602,-3263779.01255 82793.7344804,-3263356.05069 82878.4857099,-3262933.09368 82624.5129068,-3262820.09882 82822.0077751,-3262228.16076 82652.7924249,-3261494.72738 83301.472318,-3261776.71656 83216.718013,-3262284.66483 84373.1002338,-3262425.67894 84767.8030928,-3262735.65725 85529.2242129,-3262792.16962 85754.9845481,-3261466.81144 86403.4190224,-3261410.33472 86431.6761393,-3261043.87363 86854.3825542,-3261023.38757" style="stroke-linejoin:round;stroke:#000;stroke-width:1px;fill:none" /></g></g></svg>