<svg xmlns="http://www.w3.org/2000/svg" baseProfile="full" height="168531.1804" version="1.1" viewBox="41417.411223,3307715.090906,78411.831627,168531.180400" width="78411.8316272"><defs><style type="text/css">polyline,line,rect,path,polygon,.polygon{fill:none;stroke:#000;stroke-width:1px;stroke-linejoin:round;}</style></defs><g fill_rule="evenodd" transform="scale(1,-1)"><g class="id" id="10070"><polygon class="_10070" id="None" points="71489.7250697,-3308415.04178 71712.2183176,-3308357.57835 71870.9808825,-3308198.61261 72050.7138346,-3308230.63697 72188.4293317,-3308399.64567 72336.4018004,-3308516.15946 72671.8473154,-3308724.69449 72897.07923,-3308738.72695 73055.8226635,-3308706.75288 73245.3259143,-3308594.28925 73267.342322,-3308474.30113 73457.8477986,-3308347.33883 73680.0867025,-3308315.37465 73845.0721031,-3308333.39831 74494.5389203,-3308241.50382 75161.2381282,-3308252.10545 75425.7085629,-3308315.64157 75637.1745996,-3308432.16553 75859.4110076,-3308411.2016 76028.6712672,-3308262.73925 76039.2118087,-3307998.26093 76092.2194025,-3307924.27482 76187.4655062,-3307903.29135 76335.455954,-3307892.81541 76589.431663,-3307924.35304 76621.1725294,-3307966.8548 76673.9068108,-3308040.85745 76705.644354,-3308104.35757 76631.6051355,-3308389.82389 76716.3119922,-3308622.81907 76970.0138496,-3308802.84475 77192.2030588,-3309077.85779 77297.8849661,-3309458.34377 77065.1305989,-3309606.79547 76980.6226518,-3309701.77466 76991.0922553,-3309892.26087 77160.3022049,-3310061.77328 77498.7761214,-3310050.82676 77583.5009893,-3310167.33032 77657.4701158,-3310326.32862 77784.4529875,-3310368.34487 77995.9468175,-3310294.38404 78133.6802431,-3310326.40288 78228.9106337,-3310400.41154 78292.170247,-3310304.92952 78154.7199222,-3310061.92838 78154.7398707,-3309934.93899 78218.2529103,-3309818.4587 78345.2590516,-3309712.48758 78450.9985658,-3309723.00342 78524.9789234,-3309808.00801 78620.1958458,-3309966.50973 78662.6654772,-3310136.0021 78747.1332847,-3310294.50195 78852.8658878,-3310347.5141 78948.0909885,-3310453.52003 78895.2906072,-3310802.48161 78895.2773466,-3310886.97428 78958.7651636,-3310929.48055 79085.5041246,-3310929.50045 79244.2386014,-3310940.0245 79466.47415,-3310908.06236 79762.7080913,-3310844.61485 79889.7187223,-3310707.14719 79836.7570899,-3310495.65737 79784.0353296,-3310347.66193 79794.5547087,-3310220.67469 79932.0443857,-3310210.19762 80143.7775164,-3310199.73252 80313.0058634,-3310241.75604 80439.7309689,-3310326.76893 80523.9620524,-3310397.77619 80627.1945536,-3310449.28823 80740.6844084,-3310449.30654 80833.4294118,-3310428.82335 80921.1790639,-3310382.34172 81029.431909,-3310304.86622 81070.6957482,-3310196.88261 81132.717952,-3310026.40797 81158.4782925,-3309948.9191 81209.9846373,-3309881.9335 81277.2353373,-3309840.94816 81366.478503,-3309833.9634 81600.9443187,-3309913.99468 81690.1640954,-3310048.99713 81738.8834319,-3310208.99059 81695.3637425,-3310353.47031 81598.5949062,-3310522.93904 81731.824557,-3310572.95619 81914.808148,-3310570.4863 82085.7885234,-3310594.01212 82296.2604775,-3310646.04181 82424.9741008,-3310794.54908 82407.9497168,-3310953.03144 82430.4215927,-3311112.02017 82534.9047032,-3311155.0332 82669.9088132,-3311052.06505 82856.1490597,-3311004.10019 82988.1338042,-3311020.62035 83171.3546179,-3311091.64378 83368.574223,-3311161.16968 83502.3237538,-3311086.19902 83566.5626721,-3311115.70682 83685.2921567,-3311170.22123 83746.7574366,-3311343.71457 83871.9794848,-3311438.72604 84024.2269415,-3311364.25859 84208.2014793,-3311408.7848 84350.6691994,-3311518.29771 84398.6440666,-3311640.79355 84197.095373,-3312055.71889 84089.7194932,-3312888.61767 84530.7494177,-3315526.41408 84672.629885,-3316186.36535 85314.3451329,-3319175.13005 94804.2842914,-3321384.85095 95083.6894911,-3321722.84918 95301.1100754,-3322019.3427 95398.5310355,-3322418.30157 95679.1856395,-3322756.29856 96042.8383632,-3323029.81791 96325.2421078,-3323367.81422 96385.1923848,-3323620.2867 96445.9032015,-3323807.26883 96585.1179336,-3323897.77786 96705.3294638,-3324025.27826 96778.2989022,-3324147.2718 97037.2058851,-3324483.76293 97419.8072574,-3325048.7386 97935.8934354,-3325577.7398 98593.963956,-3326059.76965 99192.5513644,-3326485.79774 99736.1219769,-3327065.29134 100525.137936,-3327729.80828 100966.756009,-3328101.81674 101358.659765,-3328296.84628 102018.032411,-3328399.93365 102557.677202,-3328484.50537 102753.388937,-3328514.53154 102847.370427,-3328529.54402 102988.339167,-3328573.55905 103503.224314,-3328735.11378 104144.317227,-3329016.16783 104564.185431,-3329375.17204 105341.730466,-3329786.72358 105959.597114,-3329921.29882 106261.273756,-3330035.32678 106478.686099,-3330331.80758 106494.365202,-3330755.2322 106599.256784,-3331313.64568 106678.912108,-3331818.56441 106757.562058,-3332362.4751 106862.205495,-3332920.88643 107085.822442,-3333508.8097 107333.927019,-3334149.72544 107445.78492,-3334946.0893 107415.188122,-3335632.9519 107358.347734,-3336319.81011 107409.502659,-3336902.70386 107517.669729,-3337329.13595 107454.87117,-3337753.04358 107244.099751,-3338194.9266 107115.069681,-3338588.33092 107046.246753,-3339208.19899 107149.641981,-3339819.09217 107426.508064,-3340395.01513 107776.33094,-3341184.40365 108166.394312,-3341988.29246 108233.823998,-3342415.71396 108317.254849,-3342812.14356 108489.403372,-3343319.06149 108703.805282,-3343734.50312 108867.981493,-3344042.96002 108976.657796,-3344442.39045 108965.856442,-3344865.80037 108952.041495,-3345407.18493 108975.457931,-3346042.55393 109107.867976,-3346548.96298 109118.046887,-3347118.84317 109061.97238,-3347844.18196 109002.39547,-3348609.51143 108932.07999,-3349309.35335 108948.976255,-3350195.66463 109023.88364,-3350885.02402 109393.243002,-3351436.94454 109829.840281,-3351964.37642 110107.975702,-3352460.7969 110147.911998,-3352977.68676 110081.371576,-3353504.56296 110081.614148,-3353575.54723 110082.069423,-3354007.95121 110219.225882,-3354626.32737 110351.915144,-3354934.77174 110343.384195,-3355263.69718 110418.063275,-3355812.08138 110298.037494,-3356354.94755 110179.765515,-3356862.82187 110187.504337,-3356962.30019 110218.95841,-3357374.71013 110167.420196,-3357911.58404 110162.141603,-3358236.51005 110123.867887,-3358593.42575 110174.075355,-3358940.35158 110236.273234,-3359368.25987 110288.479587,-3359730.18204 110395.141752,-3360465.52332 110427.573564,-3361185.36113 110492.011433,-3361757.73496 110567.689347,-3362432.08572 110528.641852,-3363145.91776 110471.325055,-3364189.17189 110497.244667,-3365194.94034 110400.218148,-3365880.27398 110267.461377,-3366419.13932 110230.191107,-3366841.53846 110352.133707,-3367271.44645 110377.595629,-3367756.83474 110459.296224,-3368223.23088 110349.528305,-3368912.0625 110172.274742,-3369647.37929 110203.73362,-3370214.24821 110065.487873,-3370699.62628 110035.20841,-3371346.9726 110105.412082,-3371890.34871 110068.130127,-3372657.16616 110132.809888,-3373743.41312 110441.699796,-3374509.74646 110982.289632,-3375184.61069 111537.126548,-3375850.97552 112121.956955,-3376500.84355 112741.779787,-3377124.71724 113389.846913,-3377709.59952 114056.410856,-3378244.49286 114736.722902,-3378718.89994 115449.777723,-3379139.32012 116223.067486,-3379518.25143 117082.334623,-3379867.19192 117548.958066,-3380035.66441 117759.150399,-3380125.14835 117905.60872,-3380229.62612 117959.34054,-3380353.59562 117925.844563,-3380495.05762 117819.367202,-3380650.51361 117444.203875,-3380988.91361 116604.412443,-3381257.31824 115649.904097,-3381338.26865 114511.941041,-3381361.72878 113922.301804,-3382695.87822 113870.534485,-3383958.5614 113771.543247,-3384715.37017 113854.756138,-3385581.15524 114017.950365,-3386491.42985 114172.399224,-3387384.2078 114499.806179,-3388320.47565 115068.6575,-3388817.85499 115632.011245,-3389144.2764 115971.422112,-3389441.70269 116670.488314,-3390041.55236 116923.170748,-3390497.93527 116992.651444,-3390870.33883 116929.166971,-3391291.72929 117368.302293,-3391699.62363 117954.398906,-3391842.08652 118529.247608,-3392102.01789 118828.668938,-3392530.90401 118919.146577,-3393115.24879 118934.644273,-3393538.63638 118742.446737,-3393825.06148 118701.459246,-3394095.99001 118415.290002,-3394781.31108 118088.383151,-3395521.11944 117768.971989,-3395970.00531 117351.583782,-3396197.45101 116726.751647,-3396626.84772 116173.653316,-3397246.69594 115669.792574,-3397868.0449 115109.452084,-3398781.32263 114807.548456,-3399729.58878 114580.119796,-3400331.942 114324.701013,-3401012.77708 114144.518954,-3401855.07069 113914.347153,-3402563.40028 113741.657211,-3403114.26827 113641.707947,-3403905.07482 113585.263184,-3405068.28805 113491.557312,-3405621.15461 113198.175079,-3406750.8874 113254.948612,-3407625.66954 113279.493355,-3408737.39494 113247.312086,-3409979.59156 113112.77188,-3413187.31548 112644.13813,-3413230.33295 112629.641696,-3413231.33357 111685.124011,-3413317.36894 111226.985742,-3413358.38626 103819.254229,-3414755.50531 99666.9304776,-3415538.58273 99699.4358193,-3415744.03837 100636.612549,-3421333.32513 101019.693914,-3423432.36575 103071.218017,-3438046.73146 104984.465186,-3451673.38378 97668.2316035,-3456622.68539 75039.2742105,-3471931.36172 72670.7499011,-3472199.68847 69570.5264643,-3472551.10296 69440.0381626,-3472569.61981 57817.1822507,-3474220.51792 49431.9029436,-3475357.3959 49401.4427628,-3475735.38611 43579.3557828,-3456937.79757 46101.7994122,-3422156.16191 45303.6215398,-3421807.22596 44006.4730925,-3420759.37799 43607.2430508,-3420060.9633 43956.4367883,-3419412.52068 44399.8775488,-3418999.05103 42262.9393462,-3412545.79565 41835.9617621,-3411429.92472 41694.4458649,-3409834.09976 41661.1925379,-3409459.14099 41828.6625705,-3408803.70917 42509.3118616,-3407264.36615 43382.4426574,-3405842.51007 43610.1398177,-3403911.7232 43521.1363414,-3402837.34528 43559.1246812,-3402203.41635 43536.6213713,-3401671.97663 48523.8214436,-3403755.17344 48591.060604,-3403553.19635 48805.2763298,-3402911.26943 48957.4989249,-3402200.35196 48708.0200657,-3401501.93813 48558.5355105,-3401302.46358 48096.8388144,-3401177.48365 48171.8259469,-3400816.02561 48719.0074493,-3400490.05849 49642.3894752,-3399771.63512 49955.3467636,-3399256.69427 48907.6885858,-3392347.03381 50167.2924274,-3388430.51006 50142.2984773,-3387757.09191 50092.5568409,-3387308.14625 49893.0830226,-3386959.1875 49893.083729,-3386839.70199 49893.0872371,-3386285.26919 50136.8103774,-3385895.31819 50142.3097744,-3385886.31932 50342.0396526,-3385337.38753 50990.4712845,-3384115.04219 51190.205171,-3383292.1448 51040.4777947,-3382892.69196 50142.3498635,-3381770.31763 50167.355405,-3381096.89913 50391.8364497,-3380497.97436 50666.3047057,-3380398.49023 51219.2447619,-3379912.05721 51758.4363698,-3379438.12314 52284.3776453,-3379088.17434 52587.1067894,-3378128.29717 52595.1060374,-3378115.2989 53136.0557752,-3377230.41752 53011.3331643,-3376606.99171 53064.3306099,-3376408.51711 53109.3284942,-3376239.53874 53111.0784214,-3376232.53964 53734.777178,-3375035.19992 54172.2507665,-3373842.35674 54108.7731896,-3373239.4293 54233.5209961,-3372715.4967 54385.5064226,-3372556.02015 54495.4958812,-3372441.0371 55406.1341128,-3372416.06398 56154.2935866,-3372316.09634 56628.4841352,-3372316.10912 57127.1788112,-3372042.1573 57601.1202064,-3371992.17684 57611.8690243,-3371985.67796 58100.0652302,-3371692.72907 58299.8109342,-3370969.32712 58823.5302848,-3369796.99271 59060.5048083,-3369647.51937 59735.9474913,-3368762.65496 60192.4085533,-3368189.24431 60426.9010278,-3367550.83475 60844.1289823,-3366690.46081 61402.3680311,-3365125.68383 61621.6149372,-3364510.7718 62286.5865209,-3357944.63408 62482.6657023,-3356007.38453 62374.5261343,-3354279.58981 62266.6407219,-3352552.29172 62225.9350284,-3351900.86697 62205.7070978,-3351579.90386 61967.4797554,-3347770.83223 62322.986112,-3347078.43539 62435.9883851,-3346857.96831 62619.9922844,-3346499.52192 62818.7468438,-3346112.07996 63913.5281118,-3343978.9016 63784.3590199,-3343102.49031 63701.6612448,-3342542.04638 63481.3021961,-3341048.69323 62340.8223544,-3333316.89183 62034.7900947,-3331242.56077 62418.0917334,-3330308.68311 63083.4366177,-3328687.39548 63870.807628,-3326768.64673 64839.2197255,-3324408.45553 65082.0126618,-3323817.03287 65510.0906813,-3322774.16916 66595.8020335,-3320128.51439 67892.1619319,-3320398.14512 67892.1636591,-3320383.64635 67878.6030979,-3312898.72824 70708.0477275,-3313617.05343 71489.7250697,-3308415.04178" style="stroke-linejoin:round;stroke:#000;stroke-width:1px;fill:none" /></g></g></svg>