<svg xmlns="http://www.w3.org/2000/svg" baseProfile="full" height="75275.1892955" version="1.1" viewBox="17507.637583,3195224.713456,25662.805373,75275.189295" width="25662.8053729"><defs><style type="text/css">polyline,line,rect,path,polygon,.polygon{fill:none;stroke:#000;stroke-width:1px;stroke-linejoin:round;}</style></defs><g fill_rule="evenodd" transform="scale(1,-1)"><g class="hogares departamen mujeres departam_1 toponimo_i tot_pob varones viv_part viv_part_h" id="10077"><polygon class="_10077" id="None" points="17876.401508,-3202842.61026 17964.6497618,-3202878.6109 18066.8973731,-3202947.11127 18161.6454944,-3202984.61198 18237.3951981,-3202924.11388 18225.8965877,-3202833.11505 18169.1483233,-3202765.11527 18010.4014565,-3202701.61406 17820.905684,-3202586.61318 17752.9069492,-3202563.6126 17686.1572911,-3202609.11108 17645.4077936,-3202614.61047 17607.409515,-3202524.11124 17627.9108274,-3202402.61321 17661.6625439,-3202237.61595 17711.1632409,-3202134.11804 17765.1627653,-3202114.11904 17811.6614789,-3202162.119 17860.9102116,-3202205.61906 17915.4090631,-3202234.61939 18021.9074143,-3202246.62066 18244.1539586,-3202271.12335 18444.6516905,-3202230.1267 18578.1507335,-3202163.12951 18688.8992878,-3202154.13119 18764.8971241,-3202230.63117 18841.1460315,-3202230.63225 18864.3963657,-3202183.63326 18876.1477011,-3202078.13493 18852.6501228,-3201932.13667 18823.4022989,-3201809.13799 18829.404072,-3201680.13988 18930.4034038,-3201629.14205 19057.6514738,-3201639.64376 19075.1501179,-3201715.64295 19078.1488582,-3201799.14181 19135.147388,-3201844.642 19282.6457896,-3201810.64464 19407.645356,-3201719.64779 19509.8955967,-3201606.15093 19578.1475384,-3201413.15469 19600.8994652,-3201265.15711 19703.1506499,-3201094.66105 19794.1527256,-3200879.16544 19794.155565,-3200697.16794 19839.656728,-3200583.67019 19919.1563688,-3200538.17207 20055.4034199,-3200607.17329 20100.9015481,-3200685.67293 20203.1497716,-3200708.67424 20259.899715,-3200663.17578 20248.6513305,-3200572.17686 20225.9040156,-3200424.67851 20248.657017,-3200220.18165 20259.9090885,-3200083.68367 20237.161622,-3199947.18511 20191.9135203,-3199867.68542 20146.4148618,-3199822.18528 20009.9164568,-3199833.6829 19930.4189652,-3199742.68279 19862.1711323,-3199663.18271 19805.4246211,-3199492.68396 19759.9277788,-3199333.68523 19794.1799498,-3199174.68777 19862.1815456,-3199026.69072 19839.6846419,-3198856.19243 19806.4382656,-3198662.19422 19841.1918912,-3198420.69767 19844.6922701,-3198395.69803 20016.1928381,-3198243.20272 20180.4416984,-3198197.20607 20373.6909908,-3198106.71048 20453.1920483,-3197992.71321 20430.4439012,-3197902.21387 20301.9467529,-3197824.21252 20111.4519106,-3197652.71115 19975.9560029,-3197504.21046 19810.4601196,-3197371.20905 19816.9630553,-3197197.71104 19901.7138578,-3197099.71356 19958.9665972,-3196909.21659 19863.7199362,-3196776.2163 19718.4738539,-3196638.21517 20830.4694112,-3196253.73931 22685.4624519,-3195612.78274 24013.9559483,-3195235.81544 24013.9305725,-3196396.30179 24220.1702331,-3196757.30171 24426.662024,-3197015.30283 24813.4063605,-3197041.31087 25690.3720107,-3198047.31596 27521.5428123,-3200290.81975 28760.0200779,-3200298.34751 29533.255345,-3200302.36547 29488.5007954,-3200532.35998 29452.7499558,-3200597.85787 29300.7464285,-3200877.34891 29112.2434282,-3201169.83887 28994.2411654,-3201372.83222 28959.737186,-3201581.32733 29263.2213687,-3202018.82528 29157.7198201,-3202186.31954 28956.2216837,-3202288.81304 28955.2137029,-3202658.80543 29146.204645,-3202895.80461 29234.7005442,-3203000.30431 29267.6977257,-3203099.30293 29285.1951634,-3203201.80112 29223.694438,-3203297.29778 29156.1933251,-3203417.79378 29190.6900282,-3203539.29191 29289.6844305,-3203704.29044 29385.4300454,-3203814.29006 29394.9284658,-3203879.78883 29399.677661,-3203913.28819 29408.1697324,-3204285.78017 29509.6649507,-3204408.27955 29618.1592767,-3204565.77826 29619.4061777,-3204715.27491 29619.6554759,-3204749.27415 29630.6514122,-3204936.27013 29619.6487631,-3205079.26665 29520.649027,-3205178.26239 29487.6477972,-3205277.25947 29531.6448126,-3205376.25808 29657.1379241,-3205576.75595 29703.3858165,-3205628.75566 29674.6226375,-3206335.23849 29649.1221702,-3206390.73668 29654.1204917,-3206471.73486 29619.6191171,-3206586.23147 29622.3684114,-3206619.73072 29632.1158533,-3206741.72799 29553.6113324,-3207081.21835 29504.3579611,-3207326.21151 29377.6066395,-3207565.20338 29344.6054381,-3207675.20011 29529.3484104,-3207813.70008 29554.0951193,-3207961.69688 29652.5882395,-3208208.19255 29528.0864827,-3208480.68354 29613.080687,-3208688.67983 29677.0694179,-3209243.1669 29677.0593696,-3209834.15172 29849.5470813,-3210302.1424 30100.5251975,-3211237.62161 30120.5234614,-3211312.61991 30539.5003568,-3212051.60631 30556.9989058,-3212113.60487 30687.2382463,-3212569.09417 31007.4750683,-3212840.0914 31401.7070341,-3213283.58465 31653.9445741,-3213624.07852 31747.4386405,-3213838.07362 31921.1795557,-3214105.06828 31976.4263849,-3214209.06599 32027.9234365,-3214305.56386 32068.1681656,-3214586.05603 31987.9171471,-3214826.54764 31961.1656914,-3214987.04242 32054.6615567,-3215080.54091 32134.9057746,-3215321.03472 32174.9017949,-3215521.52915 32081.4035589,-3215601.52543 32054.6525625,-3215735.52097 32121.6481831,-3215909.01655 32255.142649,-3216016.01504 32308.640112,-3216082.5137 32321.8863477,-3216336.50601 32371.1325149,-3216513.00116 32388.8811324,-3216576.9994 32495.6259009,-3216723.99618 32589.1214209,-3216844.4936 32522.3703029,-3217097.98477 32535.8672034,-3217311.97819 32656.1117454,-3217445.47545 32682.85827,-3217659.46898 32642.6076067,-3217819.96338 32489.8605661,-3217978.95649 32482.3607096,-3217986.95615 37070.4552922,-3218045.0123 37059.4544765,-3218135.00893 37014.4553304,-3218191.50631 36972.2062415,-3218236.50414 36927.2067116,-3218322.50047 36911.9559897,-3218418.99682 36906.204996,-3218510.99346 36878.2046385,-3218615.98934 36863.9542422,-3218686.48663 36842.7040312,-3218762.48364 36835.9533642,-3218833.98099 36833.7024401,-3218913.47812 36854.701272,-3218946.4772 36884.9498034,-3218976.97648 36890.9487609,-3219042.97419 36890.9479314,-3219109.4718 36902.9467177,-3219172.46968 36930.195248,-3219211.96859 36969.1937315,-3219220.96875 37002.4426065,-3219214.96938 37038.6914841,-3219199.97037 37060.69105,-3219170.97169 37074.6910866,-3219127.47344 37102.6905881,-3219086.47527 37135.1897337,-3219060.9766 37179.9383229,-3219044.47776 37258.6858307,-3219015.97979 37313.4340159,-3219002.48097 37390.681483,-3218980.98273 37475.6784021,-3218979.98385 37545.1757526,-3218988.98441 37580.1742126,-3219009.48411 37623.4222801,-3219036.98366 37653.6707902,-3219066.98294 37671.6696661,-3219103.48183 37701.9180232,-3219145.48068 37710.9170028,-3219199.97879 37704.9163537,-3219268.97618 37686.6663408,-3219323.47394 37665.6666627,-3219359.47236 37629.4172417,-3219419.96968 37594.1677999,-3219479.46706 37560.1685,-3219523.96501 37539.1687922,-3219562.96332 37529.9184659,-3219617.46121 37537.9174546,-3219676.45914 37548.1661884,-3219749.95656 37572.1645046,-3219816.4544 37596.4128202,-3219882.45226 37623.4107453,-3219972.94924 37650.6588438,-3220048.44678 37677.6567785,-3220138.94375 37707.9044405,-3220242.94025 37747.1517757,-3220346.93684 37789.1492218,-3220432.93413 37837.3965239,-3220511.43176 37867.6442261,-3220613.92828 37885.642427,-3220713.42477 37903.8909346,-3220785.42228 37924.8893039,-3220860.91969 37939.8879022,-3220936.41702 37982.1352506,-3221032.91387 38012.3832903,-3221107.91138 38045.631509,-3221156.40992 38093.629406,-3221183.40942 38175.1263629,-3221180.41042 38259.6232001,-3221177.41146 38313.8711779,-3221174.41217 38394.6180258,-3221182.41275 38470.6148281,-3221210.41252 38533.8620505,-3221243.91194 38579.1100934,-3221264.91164 38627.3577568,-3221309.91044 38660.6061841,-3221337.40975 38696.6043798,-3221376.40865 38729.8525447,-3221427.90704 38750.8510566,-3221490.90484 38760.1000979,-3221546.90279 38752.5996311,-3221617.4 38756.8489669,-3221664.39824 38784.0973451,-3221718.39645 38820.3456892,-3221742.89588 38859.3442804,-3221733.89664 38898.5929298,-3221718.39766 38952.8407324,-3221727.89787 38980.0893278,-3221760.89688 39046.3354257,-3221887.39267 39094.5831064,-3221929.89153 39145.8307105,-3221968.39057 39203.0782559,-3221989.89033 39248.3264909,-3221989.8908 39317.5738488,-3221983.89176 39384.5710177,-3222003.89168 39426.3189578,-3222044.39053 39453.317398,-3222092.38892 39468.3164037,-3222131.38755 39507.5645761,-3222158.88687 39552.8128579,-3222152.88758 39592.0614679,-3222137.88858 39637.3098404,-3222122.88964 39697.5576243,-3222107.39088 39757.80518,-3222113.39127 39818.052507,-3222140.89081 39872.2999484,-3222179.88983 39929.5477688,-3222170.89079 39980.7960454,-3222140.89252 39980.7965559,-3222092.39445 39983.7968805,-3222050.39615 40019.795836,-3222013.89799 40056.2943511,-3222016.89826 40119.5417024,-3222028.89845 40182.7891401,-3222032.39899 40225.0374885,-3222028.89958 40382.5311235,-3222033.90106 40469.775447,-3222237.89378 40469.7729325,-3222479.38403 40630.7641632,-3222700.37673 40831.754365,-3222861.3722 40992.7463754,-3223002.36803 41122.7400526,-3223101.86522 41246.4844295,-3223154.86425 41361.2291634,-3223207.86318 41423.2254733,-3223322.85901 41476.2224226,-3223410.85586 41511.4697725,-3223534.85103 41555.7170124,-3223631.8474 41661.7119221,-3223702.34544 41794.2062828,-3223711.3463 41865.4533303,-3223706.84716 41773.9554885,-3223888.83866 41492.7156273,-3224070.32851 41564.7104231,-3224319.31872 41413.7118289,-3224906.79284 41728.1974845,-3225047.28945 41761.4448878,-3225198.28334 41520.9546979,-3225240.27969 41571.9499057,-3225590.26534 41503.7002901,-3225936.25026 41549.4468914,-3226148.74161 41415.7025087,-3226151.74058 41400.9507993,-3226504.72561 41303.954305,-3226595.22118 41267.9543757,-3226828.21116 41025.7118941,-3227282.19069 41133.2063045,-3227479.683 41104.9562965,-3227706.17334 41086.9558813,-3227938.66348 40878.4627965,-3228326.14624 40770.9659675,-3228630.63304 40814.9606492,-3229566.59403 40904.4556408,-3229978.57701 40750.7115748,-3230166.5687 40621.2166641,-3230293.06308 40546.7192043,-3230531.55294 40565.9679151,-3230758.04353 40541.4687233,-3230866.03898 40628.2146728,-3231103.02924 40554.217059,-3231590.50875 40531.217882,-3231710.50372 40675.2115087,-3232112.48703 40748.4583947,-3232179.98425 41362.6822453,-3232746.4605 41786.9145359,-3233724.41843 41945.1584016,-3234272.39462 42005.9067348,-3234801.37166 42028.6569415,-3235308.34969 42210.8998232,-3235586.83713 42056.9071798,-3235815.82768 41661.9242902,-3235858.3271 41112.1972991,-3235743.33368 40819.9616684,-3236373.30814 40859.4623665,-3236974.28281 40533.9776874,-3237373.26761 40500.479437,-3237451.26453 40340.487858,-3237824.74985 39987.5048968,-3238312.73166 39798.5149842,-3238736.71546 39651.2736674,-3239186.69813 39627.5250821,-3239259.19535 39698.5281156,-3240131.15971 39852.5278478,-3240912.62706 39885.2809051,-3241442.60546 39869.7846304,-3241799.59126 39859.2871934,-3242038.0818 39857.037767,-3242091.07969 39730.296777,-3242514.06399 39589.3064847,-3242937.04857 39631.5599768,-3243444.52808 39686.3146184,-3244077.50254 39687.8147364,-3244093.5019 39662.8175815,-3244260.49561 39440.8438331,-3245737.4407 39597.8436853,-3246197.42092 39892.094015,-3247058.38366 40279.345482,-3248176.83478 40971.3311127,-3248964.29327 40955.8365768,-3249258.78206 40882.3636539,-3250656.72947 40971.1274039,-3251581.19267 40881.1370238,-3251906.18213 40762.9231832,-3253489.12564 40717.4501112,-3254669.08367 40758.9660868,-3255448.55478 40844.7202635,-3255763.0416 40913.4736974,-3256015.03104 41246.2230024,-3256482.5065 41258.2229862,-3256499.50561 41763.7129551,-3256827.48151 42167.9673523,-3257574.44447 42344.7176152,-3257828.43076 42500.220286,-3258140.91544 42454.9803187,-3258455.40541 42511.7402405,-3258894.88825 42700.7501284,-3259490.86195 42709.000331,-3259508.36111 42937.506185,-3259995.33746 42912.2652738,-3260278.32828 42837.5197138,-3260341.32826 42664.7799411,-3260486.82826 42388.5491297,-3260819.32495 42300.8290237,-3261723.79714 42110.0933132,-3261987.29421 41956.8547753,-3262199.29193 42147.124147,-3263023.25937 42644.6542481,-3264441.19803 42582.4156765,-3264724.19122 42066.9487627,-3265235.19281 41760.9900771,-3266179.67507 41191.577746,-3268212.13796 41106.4147705,-3270493.58201 36521.2480837,-3269897.26018 32664.0429678,-3268900.90061 32016.5500509,-3268733.92233 31886.2816804,-3267994.43965 31884.5314635,-3267985.43987 31876.0304035,-3267941.44093 31622.2498227,-3266631.47302 31615.7489992,-3266595.4739 31544.2402137,-3266206.4835 31493.484039,-3265928.99039 31484.482945,-3265879.49162 31444.228873,-3265688.99652 31333.967966,-3265169.00998 30930.9618426,-3264582.5321 30856.452941,-3264148.54299 30765.4423513,-3263619.55641 30684.9401221,-3263450.06193 30601.9378576,-3263275.06762 30357.6871132,-3263012.07888 29966.6908979,-3262806.09209 29991.1749601,-3262105.10678 29992.1743952,-3262080.10731 30429.9032497,-3261555.60956 30432.6528305,-3261539.10987 30441.1516003,-3261491.11078 30518.1403749,-3261050.11925 29941.1530539,-3261024.63201 29466.665307,-3261100.64014 29214.6619199,-3260657.65519 29224.661052,-3260625.65571 29294.1550144,-3260402.65935 29510.8862587,-3259707.17104 29282.6344737,-3259341.18402 28985.3838539,-3258942.199 28646.8808903,-3258349.71915 28463.1267618,-3257875.73364 28464.1133353,-3257104.25211 28464.1129764,-3257083.25261 28464.6057745,-3256658.76294 28354.6041512,-3256399.77112 28095.6006087,-3255789.79035 27908.5914466,-3254904.81529 27877.5915684,-3254861.81684 27547.0929646,-3254401.33334 27088.8405292,-3253421.36456 26785.5915987,-3252934.881 26775.3294828,-3251983.90544 26559.8275821,-3251383.92365 26193.3350042,-3251214.43245 26108.583858,-3250932.44073 26098.0834341,-3250872.94239 26022.3304098,-3250439.4545 26010.0725808,-3249705.97383 26161.0635465,-3249236.98461 25817.316956,-3248685.50285 25135.5757516,-3247727.03493 25110.0696376,-3246975.5552 25057.3180296,-3246627.565 24391.5795731,-3245863.09096 24368.5799787,-3245836.59185 24206.8258053,-3244700.12358 24663.3081353,-3243945.64093 24057.8193336,-3243114.66761 24013.8201644,-3243054.16953 23909.8214596,-3242797.17718 23824.0725585,-3242584.68348 24300.0559933,-3241969.19774 24303.5538889,-3241597.70804 24783.5381256,-3241151.21805 24672.2897798,-3240856.22693 24628.2905505,-3240760.22985 24394.5447436,-3240249.74532 24341.5459452,-3240185.24738 24148.5503376,-3239950.25482 23703.811684,-3239692.26388 23457.5664069,-3239143.78009 23654.8094982,-3238749.29037 23669.0581859,-3238481.29783 24033.0472467,-3238266.30267 23739.5538765,-3237733.81859 23753.3024707,-3237369.82881 23510.5589461,-3237237.83316 23443.5601541,-3236970.34084 23344.8120148,-3236577.35209 23175.565459,-3235928.8706 22987.8198154,-3235386.88606 22932.8202511,-3234489.41121 23090.3154986,-3234086.42235 23200.8121659,-3233728.43234 22930.3195483,-3233230.44642 22878.320957,-3232998.9529 22766.3240889,-3232498.96686 22447.0830921,-3232022.98 22192.0906303,-3231231.5017 21692.1052144,-3230383.52439 21487.3612462,-3230036.03355 21235.1189619,-3229466.04854 20736.3827571,-3229213.55442 20471.3899234,-3229142.05583 20236.3962482,-3229078.55708 19959.6550765,-3228305.57682 19837.1601923,-3227501.09752 20134.9048852,-3226636.12086 20455.1473205,-3226386.12839 20959.6354131,-3225992.64041 21854.1123787,-3225798.14883 22462.0969285,-3225563.6575 22467.5968838,-3225537.65822 22567.5961846,-3225055.17169 22382.1040298,-3224414.68811 22482.104966,-3223667.70858 22354.1109299,-3223172.72109 22297.863581,-3222955.22655 22252.8710593,-3221850.25534 22248.6216154,-3221776.25725 22225.6247237,-3221367.76774 22200.128287,-3220912.27938 21991.3864768,-3220482.78905 21669.1491582,-3219820.30369 21671.6584135,-3218537.83577 21468.9221396,-3217424.86148 21370.9289414,-3216886.87366 20970.7032182,-3215186.41023 20007.9899886,-3213557.43792 19993.7417932,-3213400.44121 19918.5014557,-3212574.4583 19905.5031455,-3212432.4612 19877.2568795,-3212120.46752 19805.2606774,-3211895.47152 19467.7785364,-3210841.98972 18748.5548495,-3209698.00469 18476.5646535,-3209265.51004 18416.5789394,-3208063.53164 18409.3307352,-3207915.53423 18178.5973597,-3206819.55095 18148.0995792,-3206674.05309 18006.3567131,-3206270.55829 18107.108233,-3206000.06402 18164.8591325,-3205845.06729 18406.6166257,-3204918.08545 18274.6357424,-3203594.60441 18077.1436003,-3203221.10739 17876.401508,-3202842.61026" style="stroke-linejoin:round;stroke:#000;stroke-width:1px;fill:none" /></g></g></svg>