<svg xmlns="http://www.w3.org/2000/svg" baseProfile="full" height="63380.4106943" version="1.1" viewBox="52272.639283,3586867.750029,60173.627783,63380.410694" width="60173.627783"><defs><style type="text/css">polyline,line,rect,path,polygon,.polygon{fill:none;stroke:#000;stroke-width:1px;stroke-linejoin:round;}</style></defs><g fill_rule="evenodd" transform="scale(1,-1)"><g class="hogares departamen mujeres departam_1 toponimo_i tot_pob varones viv_part viv_part_h" id="14021"><polygon class="_14021" id="None" points="54302.4449472,-3639858.51762 54077.6715157,-3639987.03592 54054.7019987,-3640346.15821 54126.5561671,-3640688.41983 54147.8966712,-3640918.16944 54119.0702163,-3640936.42797 53990.5497882,-3640985.58844 53947.455155,-3641001.47771 53857.620333,-3640989.80002 53681.2966883,-3640867.43792 53751.7616168,-3640755.82209 53803.7561196,-3640674.3675 53812.1060552,-3640438.84823 53820.7372944,-3640179.33225 53738.2744746,-3639687.70304 53725.7446659,-3639601.83804 53682.7300789,-3639352.29052 53603.2644192,-3638915.12057 53615.2821337,-3638862.52375 53612.5779944,-3638840.05383 53696.7261315,-3638529.36216 53733.2443294,-3638203.10851 53731.6714537,-3638167.63145 53728.847983,-3638077.17912 53661.1995195,-3637949.32649 53659.1774062,-3637946.84552 53652.5474898,-3637932.40942 53618.3612991,-3637554.31256 53482.0831688,-3636971.19522 53522.3473827,-3636973.82789 53520.2433606,-3636962.34983 53511.1821921,-3636927.9407 53471.8520749,-3636780.83454 53454.5159481,-3636716.00812 53447.5168096,-3636606.09851 53432.1979351,-3636515.7599 53453.6762871,-3636431.58474 53482.6700987,-3636321.84738 53483.4062052,-3636320.34105 53455.3485713,-3636038.66487 53716.2541233,-3634964.05186 53774.2834435,-3634694.08981 53773.9104499,-3634625.60996 53772.8054809,-3634476.65646 53707.9348513,-3634269.29736 53867.249944,-3634033.40585 53812.8942143,-3633745.47088 53686.1216539,-3633492.18593 53778.5774926,-3633242.40635 53834.7499432,-3633097.93101 53844.0650692,-3633077.85124 53891.8539542,-3632973.44235 53889.4005209,-3632676.03778 53908.1721192,-3632431.42731 54101.0088295,-3632363.691 54104.5173384,-3632172.20639 53952.1545507,-3631990.63607 53944.5397898,-3631785.2559 53976.7025288,-3631666.49289 54068.9686364,-3631478.2009 53955.6899903,-3631141.81329 53983.3369648,-3630938.61226 53985.8322685,-3630855.6101 54018.6271196,-3630723.84473 54090.4788152,-3630434.26367 54110.4798717,-3630132.15682 54088.0734349,-3629756.45339 54176.1284672,-3629572.19949 54258.9372216,-3629250.52752 54460.8466686,-3628998.25727 54465.6542205,-3628426.35634 54469.3258739,-3628417.82514 54485.1804384,-3628374.69202 54539.3059849,-3628224.73825 54561.9768498,-3628161.54831 54539.8249654,-3627923.80878 54530.6305463,-3627791.92519 54473.1886167,-3627658.97963 54525.5169608,-3627421.06435 54565.3451211,-3627182.76267 54605.6733143,-3626944.45654 54575.4999161,-3626621.31119 54591.9686782,-3626370.22476 54512.8056212,-3626129.50294 54447.8418601,-3625745.68807 54466.3127251,-3625108.68017 54460.6443447,-3624151.97134 54490.7759098,-3623725.80526 54472.4307954,-3623245.59195 54462.2988392,-3623092.72207 54444.9635664,-3622613.49933 54428.9273831,-3622167.25652 54422.9541507,-3622004.35149 54423.8101884,-3621960.85466 54437.0898974,-3621577.83062 54337.1298012,-3621109.85271 54255.4382885,-3620616.7155 54261.099055,-3620247.75676 54196.5155847,-3619877.43372 54192.5164182,-3619794.49066 54189.813873,-3619772.02073 54178.1676613,-3619589.67172 54215.149074,-3619173.94145 54221.6102363,-3619003.92564 54222.006156,-3618992.42494 54208.9410481,-3618929.55882 54199.0059735,-3618881.16077 54193.5047222,-3618853.21751 54104.0035871,-3618159.20033 54052.0393078,-3617746.77314 54076.8692552,-3617396.63636 53949.010505,-3616799.94063 53877.1750497,-3616428.68216 53832.8720418,-3616200.13928 53720.7380406,-3615600.80116 53620.5652656,-3614997.35559 53613.4377666,-3614899.94413 53587.2683265,-3614575.76088 53572.5995084,-3614390.4393 53578.7757029,-3613856.01631 53579.5763921,-3613778.52833 53585.2280786,-3613601.52131 53595.2646757,-3613301.00542 53598.0643829,-3613168.0132 53608.736497,-3612882.48788 53621.3021781,-3612557.45531 53622.466362,-3611605.18138 53622.6414845,-3611402.73008 53517.1373799,-3610705.85381 53492.4856464,-3610605.1009 53408.6511001,-3610260.44158 53407.115577,-3610256.4564 53318.0101428,-3610075.8038 53165.0701959,-3609800.74936 52971.7109171,-3609589.04308 52786.8103192,-3609039.843 52776.7890098,-3609009.44069 52718.4274264,-3608690.04437 52695.5172273,-3608532.7891 52680.4485812,-3608441.4471 52692.3376899,-3608318.37016 52696.1200576,-3608099.88953 52697.1357504,-3608073.88675 52701.0153122,-3607838.4094 52553.9946417,-3607165.39676 52548.9932599,-3607053.96893 52532.5131785,-3606666.71156 52490.8754275,-3606400.15103 52488.2458821,-3606385.6782 52496.8716806,-3606372.10392 52542.1915175,-3606297.71438 52569.6691128,-3606295.96765 52697.8479898,-3606041.37686 52601.0300397,-3605447.39234 52729.6557962,-3604964.35363 52591.5706073,-3604728.65237 52570.5676705,-3604560.88197 52662.1921983,-3604132.16281 52704.0402519,-3603810.3651 52709.210468,-3603523.38851 52796.0266145,-3603366.14683 52788.3375186,-3603289.23465 52814.5058533,-3603086.04908 52818.8264124,-3603010.52867 52843.680905,-3602855.84312 52914.1892589,-3602413.31774 53354.2446861,-3601902.4912 53355.4808189,-3601900.98047 53416.6361606,-3601641.49509 53497.7455153,-3601293.85233 53590.4118839,-3600897.11809 53665.6015677,-3600586.01983 53673.2369339,-3600573.4544 53700.2143968,-3600460.24018 53715.6038486,-3600392.61873 53764.0843382,-3600196.73196 53914.2112537,-3599574.03858 53913.5321267,-3599554.0496 53904.59739,-3598836.30653 53898.2602659,-3598714.89324 53809.805839,-3597044.09639 53836.4604904,-3596671.44887 53883.8300578,-3595876.71915 53891.195028,-3595750.18416 53478.6380532,-3593721.87116 53476.1388584,-3593721.89352 53476.5895093,-3593716.39082 53478.2584562,-3593707.37807 53733.9203685,-3592446.89633 53716.6453526,-3592136.12611 53706.4858075,-3591950.26195 53693.9740617,-3591724.92834 53654.6598899,-3591632.8021 53493.8375281,-3591256.83053 53176.2485917,-3590874.7611 53019.9619834,-3590642.71341 52886.2041778,-3590442.45654 52873.7033566,-3590386.08168 52779.891255,-3589845.04852 52725.2468714,-3589547.60724 52690.5831119,-3589276.48109 52660.1056872,-3588718.38524 52605.8238538,-3588489.42401 52725.782611,-3587955.97875 53482.6824439,-3586900.47314 53480.8928671,-3586895.99017 53530.8907948,-3586841.05711 53538.2009187,-3586847.99023 53769.9736581,-3587080.86647 53816.7888328,-3587117.43996 53866.8126406,-3587177.47917 53950.9413595,-3587278.20425 54041.5860095,-3587352.87737 54389.8074893,-3587639.2005 54529.6725288,-3587767.92096 54643.5772704,-3587872.37892 54743.9195621,-3587941.46645 54862.2425022,-3588036.88702 55070.5263335,-3588410.43637 55306.1540752,-3588851.22439 55341.1156083,-3589127.8441 55487.1884647,-3589447.96058 55660.5516484,-3589717.34547 55823.4448178,-3589821.8645 56004.6310053,-3589931.71868 56336.6650824,-3590224.67929 56636.7719583,-3590496.92965 57234.4792593,-3590509.08644 57661.7603364,-3590524.76506 58049.1567977,-3590524.30422 58312.6660646,-3590532.94788 58850.8240821,-3590930.03679 59446.380096,-3591065.68004 59448.8881687,-3591066.65737 59936.8338532,-3591466.69164 60494.5276695,-3591952.5781 60879.9033814,-3592090.09674 61175.3819428,-3592292.40106 61563.5816531,-3592438.39141 62317.602078,-3592575.61363 62696.3791489,-3592702.19273 62728.2027049,-3592711.40569 62964.4487911,-3592718.29189 63067.6433307,-3592631.39356 63260.2386061,-3592508.20631 63706.0242138,-3592414.24813 63959.085018,-3592456.97434 64184.397654,-3592638.9092 64398.5261425,-3592743.96551 64917.3825014,-3592828.30365 65201.0452435,-3592631.82439 65206.54323,-3592631.77526 66208.1512787,-3592480.3674 67085.6072721,-3592671.96987 67377.0750842,-3592845.81379 67644.7122304,-3593009.87322 67804.1620878,-3593149.40664 68045.2423375,-3593362.18836 68102.3914277,-3593492.63857 68243.1626353,-3593835.27765 68345.8485341,-3593999.31039 68411.3159015,-3594109.6919 68678.8685036,-3594711.61814 68679.3817202,-3594713.11309 68929.5294533,-3594877.82591 68973.5398198,-3594908.42299 69426.198169,-3595025.33846 69504.2307411,-3595031.63853 69695.8268194,-3595048.91941 70317.2297988,-3595087.34917 70521.6417826,-3595112.51295 70829.0838051,-3595060.77899 70859.7726442,-3595055.00629 71171.0160737,-3594981.24539 71235.3656822,-3594966.67439 71841.0553172,-3594897.27904 72581.0745725,-3594869.66968 72648.9141433,-3594910.05017 72772.155975,-3594969.42912 73146.4009931,-3595094.04234 73236.3746151,-3595150.21966 73410.8727907,-3595240.13013 73421.6810431,-3595247.03124 73565.5074194,-3595260.74045 73778.6407512,-3595283.32691 74058.5646924,-3595368.7956 74236.1713645,-3595359.21017 74476.9716918,-3595401.54265 74640.3751273,-3595480.55536 74727.5196299,-3595583.74219 74891.8327597,-3595624.75901 75111.4924074,-3595566.81322 75113.4469012,-3595561.79739 75210.4691267,-3595511.94597 75206.3270556,-3595440.00667 75385.0926433,-3595392.42349 75588.3305276,-3595370.61301 75740.5362437,-3595399.24229 75826.5160193,-3595539.9267 75856.7684133,-3595653.11859 75906.2707525,-3595683.16584 76244.2099649,-3595884.57599 76389.1913989,-3595971.74997 76576.8176906,-3596188.49895 76865.8785569,-3596345.85999 77080.1389619,-3596438.91164 77308.9852375,-3596430.36699 77512.7429943,-3596383.05998 77727.658169,-3596437.61863 77877.4994333,-3596593.22501 78040.0982611,-3596722.2261 78138.0378933,-3596914.7839 78287.2149181,-3597107.88279 78413.670879,-3597135.7415 78579.1628971,-3597113.26813 78707.4598691,-3597039.6453 78837.2100382,-3596877.04025 78866.3818397,-3596673.84931 78845.7526028,-3596407.12586 78910.9423901,-3596319.07303 79026.8617998,-3596314.53759 79137.8336479,-3596399.51545 79201.6394448,-3596575.88356 79434.8078031,-3596575.79747 79531.0832955,-3596554.44354 79607.0950686,-3596530.77173 79704.6833694,-3596572.38415 79749.218787,-3596633.96423 79853.8312868,-3596706.50295 79945.9889163,-3596755.66121 80039.2927225,-3596765.32301 80115.7589577,-3596708.6587 80184.2465092,-3596654.06508 80269.2403588,-3596600.82335 80392.6915931,-3596600.2191 80514.2139201,-3596523.65886 80599.0114334,-3596476.41691 80615.3206675,-3596427.78815 80904.4425094,-3596201.28189 80917.4107831,-3596254.1472 81182.3807837,-3596596.65559 81306.832307,-3596680.01261 81545.2519389,-3596764.34955 81728.5807657,-3596640.75355 81817.0286527,-3596638.46312 81900.8801496,-3596625.21773 81983.5183143,-3596643.97174 82027.0077909,-3596616.5925 82089.8196567,-3596626.02722 82137.7851852,-3596624.09882 82226.6563309,-3596585.31774 82259.7889308,-3596573.5256 82295.804011,-3596548.71235 82384.6080796,-3596502.43464 82406.4055021,-3596424.76764 82447.5606634,-3596359.92288 82532.4331664,-3596293.18782 82595.5793338,-3596284.1263 82696.0353599,-3596311.21803 82744.7023334,-3596387.75507 82839.9776488,-3596422.39034 82998.6041746,-3596442.96404 83119.2787118,-3596467.37579 83242.3939819,-3596485.26806 83383.8624357,-3596487.50187 83574.9383615,-3596503.78683 83723.9300744,-3596508.95228 83913.2561392,-3596497.26314 84045.8921558,-3596406.1103 84221.8165369,-3596293.07847 84427.2566445,-3596378.70955 84564.3978659,-3596539.9234 84948.5174905,-3596373.54957 85324.032695,-3596139.27863 85614.3410364,-3595934.25941 86013.41393,-3595931.19245 86267.5216297,-3595981.9014 86392.3173393,-3595992.28168 86521.5756937,-3596054.60241 86745.5681151,-3596203.04335 86849.6688857,-3596330.56407 86954.786183,-3596376.10675 87036.7663066,-3596377.37317 87138.4870079,-3596350.4738 87164.126292,-3596283.27016 87213.5892482,-3596197.36064 87258.5900413,-3596115.48952 87310.2531241,-3596052.05182 87337.2049275,-3596047.81246 87388.3776616,-3596041.35741 87428.0291438,-3596059.99577 87571.8203685,-3596126.68462 87648.1871931,-3596170.98484 87701.4895182,-3596290.96221 87862.2992446,-3596332.50833 88009.5383756,-3596281.71131 88095.689421,-3596190.47617 88167.0033102,-3596060.88854 88229.8741712,-3595853.40653 88284.7229093,-3595754.95423 88311.1435792,-3595747.22105 88403.9885902,-3595733.89626 88498.8006502,-3595605.09861 88629.9491735,-3595599.42858 88790.758131,-3595640.97512 88913.5488842,-3595650.87374 88966.5199294,-3595705.87886 89073.3361349,-3595745.90849 89211.6283735,-3595756.66816 89328.1178882,-3595704.64725 89360.7849971,-3595612.89113 89477.2075058,-3595553.37387 89545.5371209,-3595593.24755 89678.5407637,-3595487.60027 89818.5010308,-3595405.38175 89951.2592093,-3595300.23671 89991.6058049,-3595200.91527 90031.5910547,-3595117.09099 90187.7711848,-3595004.24 90443.5022182,-3594901.4958 90637.490113,-3594796.80421 90830.7818681,-3594754.09442 91006.5417778,-3594818.9985 91120.3401803,-3594913.44424 91274.0077176,-3594939.06119 91405.0877056,-3594925.89541 91497.7217631,-3594889.08259 91635.7180027,-3594922.83627 91759.6627996,-3594894.24049 91907.1764523,-3594762.47571 92086.5898834,-3594676.90757 92279.4029639,-3594664.69027 92617.0162867,-3594524.73147 93034.3849825,-3594417.04776 93341.4944336,-3594275.36305 93570.7893378,-3594038.9124 93851.3220485,-3593915.45841 94082.1550264,-3593935.3894 94244.7449891,-3593868.96526 94499.8886769,-3593588.80346 94733.2743711,-3593446.77921 94905.4268848,-3593303.80215 95167.0427476,-3593300.9686 95482.7564851,-3593283.65839 95699.7605862,-3593210.25264 96043.8146851,-3592924.30283 96347.4504314,-3592729.67597 96325.9635311,-3592197.59204 96320.6619226,-3591658.86633 96349.179338,-3590904.92959 96532.9341937,-3590970.26438 97644.9547368,-3591390.17459 98119.0449728,-3591591.3623 99081.7555517,-3591970.11601 99456.1001135,-3592139.20473 99685.4001186,-3592212.12833 100132.419861,-3592404.5579 100422.802797,-3592517.9185 100942.010606,-3592735.19206 102027.156789,-3593170.31917 103694.019309,-3593800.1634 106179.87674,-3594810.01091 105860.383532,-3597676.51572 105615.307421,-3599723.24533 105379.93038,-3602097.23772 108004.693394,-3602098.71422 110516.237838,-3602129.19301 112271.862346,-3602129.46154 112223.915167,-3608232.3085 110684.047077,-3607827.35612 110717.53408,-3607938.99947 110896.162387,-3608686.02078 111003.922662,-3609137.82584 111005.453245,-3609141.31032 111666.696141,-3610954.94897 111566.722399,-3611368.64129 111293.446029,-3612488.04154 108194.92309,-3612454.48639 108252.732161,-3613711.85407 108271.395745,-3614118.98776 108279.322859,-3615828.58484 108308.197523,-3618389.07866 108308.537718,-3618399.07072 108291.903597,-3618991.43314 108372.037882,-3620115.66126 108138.323563,-3623225.26851 108059.851674,-3624436.89333 108008.369625,-3625234.97438 108011.775898,-3627014.08337 107965.292623,-3627728.66071 108219.394273,-3627725.85226 108189.804182,-3628374.30755 108188.97264,-3629025.00047 108161.712347,-3630341.1127 106717.637242,-3630311.77201 105787.01392,-3630332.23325 105032.943923,-3630368.08015 99765.6134801,-3630343.52991 99609.2447603,-3636083.42979 99605.246845,-3636083.46626 99570.328348,-3638444.75218 99539.411529,-3638725.912 99525.0999991,-3639292.79555 99503.4451101,-3640149.62027 99481.6029554,-3641559.20712 99473.4622887,-3646725.547 99465.1532291,-3647263.3918 99442.7313851,-3648713.4749 99319.825658,-3648854.04397 99155.1801059,-3649020.9855 98998.7082008,-3649098.39036 98823.977887,-3649038.02175 98725.2933953,-3648958.96219 98634.3595447,-3648880.33115 98527.1753092,-3648855.32659 98280.2711888,-3648881.58402 98170.7910714,-3648987.54514 97961.833156,-3649036.94428 97845.0718571,-3649111.98554 97804.0366521,-3649242.30778 97826.4183409,-3649312.07276 97863.542606,-3649381.70231 97869.3939816,-3649474.60944 97836.7510576,-3649566.37086 97796.8959009,-3649634.70844 97688.7765845,-3649671.18686 97694.3395478,-3649787.0871 97614.1643845,-3649954.75377 97527.5009406,-3650069.00259 97449.8707865,-3650105.70089 97304.0883364,-3650095.54532 97205.6526182,-3650016.4832 97021.3452808,-3649974.69481 96844.7452739,-3649955.82596 96654.0568999,-3649845.12462 96518.0655878,-3649703.93299 96497.4413642,-3649580.67357 96515.7722315,-3649427.06875 96495.0747334,-3649295.81331 96350.084182,-3649208.68159 96187.977123,-3649244.15635 96024.2157216,-3649371.60844 95959.75145,-3649508.64435 95889.4109297,-3649577.26248 95798.6481875,-3649544.60993 95652.7998645,-3649472.97951 95457.5309946,-3649407.80041 95327.528288,-3649374.50849 94833.6432115,-3649419.52781 94763.7239608,-3649479.64578 94634.405698,-3649384.87236 94613.5317918,-3649261.61411 94530.7734226,-3649175.40931 94448.5532121,-3649011.73087 94405.0437056,-3648872.68681 94401.390543,-3648665.30434 94364.2569442,-3648594.67396 94312.1007478,-3648493.6938 94136.4385075,-3648413.83912 93959.4789455,-3648410.46537 93679.8908676,-3648551.9757 93433.4508415,-3648547.74033 93134.2331727,-3648511.00248 92852.783552,-3648313.66525 92721.0783022,-3648149.43969 92590.9640632,-3647940.71701 92598.9051219,-3647662.25477 92602.6374286,-3647469.79703 92557.7669436,-3647400.23644 92449.972523,-3647390.72937 92340.8413727,-3647480.69511 92161.0444971,-3647631.28544 92051.8834774,-3647690.76372 91867.1370323,-3647710.45142 91680.8177513,-3647776.63527 91565.0174651,-3647820.68072 91417.6151871,-3647879.51044 91315.8081078,-3647977.90627 91236.63247,-3648091.58851 91036.2115405,-3648118.91739 90906.245577,-3648062.63218 90771.4378934,-3647859.94825 90812.054133,-3647738.12291 90815.7179074,-3647538.16713 90772.1998926,-3647398.12094 90636.5742289,-3647242.4258 90322.6104838,-3647151.34137 90171.0173873,-3647025.78055 89935.3770274,-3646837.01482 89764.2447689,-3646733.62419 89687.2696041,-3646705.84082 89669.1226601,-3646634.53469 89670.7373083,-3646538.05701 89634.3010965,-3646434.43101 89563.5775974,-3646407.09002 89499.1536031,-3646412.6786 89546.1878264,-3645436.62292 89547.1445848,-3644340.5368 89555.6722126,-3642405.2071 89604.2415365,-3641075.77851 89619.0546359,-3640563.84203 89619.4271103,-3640467.87595 89620.5135583,-3640094.51127 89622.3634317,-3639503.72439 89712.0882457,-3634546.84429 87706.2866338,-3634510.641 84849.0952534,-3634453.70152 84184.9680131,-3634440.25836 81207.9709096,-3634377.40593 79540.743523,-3634315.61626 78416.3015162,-3634279.37159 78191.8423346,-3634275.4175 77723.9268069,-3634267.18239 77558.691974,-3634262.68895 74231.2213532,-3634172.02386 72202.0401066,-3634135.51318 69462.4103982,-3634164.94784 69315.2715333,-3634117.30195 69306.4976319,-3634114.38272 68626.6097295,-3634488.45929 68546.9434478,-3634357.7241 68484.4817202,-3634414.77559 68140.3716359,-3634308.94037 68113.9236052,-3634396.155 67913.449619,-3634337.49776 67916.5747005,-3634241.49804 67801.3277514,-3634238.04825 67797.1626864,-3634384.54241 67364.7544763,-3634380.48037 67365.599146,-3634335.98589 66972.6206805,-3634325.56659 66917.2863956,-3634259.58981 66914.6607988,-3634328.09349 66562.7253295,-3634323.79864 66564.8741404,-3634285.29039 66492.3923279,-3634284.95032 66481.8821019,-3634228.56255 66433.7864417,-3634216.5039 66382.765736,-3634322.4373 66285.1067608,-3634301.83236 66174.3530893,-3634325.33372 66068.3109326,-3634317.3014 65963.1634794,-3634270.27228 65812.0404153,-3634499.08143 65642.781922,-3634602.59231 65720.9487501,-3634650.86665 65663.579976,-3634718.36938 65837.6885636,-3634790.76313 65779.111591,-3634890.26758 65840.5252688,-3634910.20259 65733.7173663,-3635092.6222 65737.5713236,-3635159.06783 65776.5483957,-3635212.69732 65802.0525347,-3635213.96469 65735.7835775,-3635347.02959 65911.0781701,-3635412.41413 65909.1024464,-3635469.91542 65862.0715148,-3635574.8133 65788.2952182,-3635624.47086 65738.4152146,-3635718.39796 65677.3338105,-3637244.01315 65565.5988866,-3640010.73599 63911.7281454,-3638932.13032 63651.4913404,-3639117.45191 63462.7498455,-3640729.22449 61405.8766355,-3641448.3025 59356.4056415,-3640487.76168 58705.8348824,-3640050.31086 58677.1714567,-3640031.57719 58388.8942613,-3640239.65281 57049.9822774,-3639279.60987 56750.3274838,-3639418.80676 56520.0779993,-3639439.90085 56376.7555024,-3639345.73136 56186.4473762,-3639197.00384 56155.912659,-3639219.7765 55884.3157721,-3639174.26399 55725.2235357,-3639187.21114 55713.3908845,-3639177.82135 55475.750417,-3639128.50005 55213.6367084,-3639108.89437 54744.5478375,-3639196.14906 54651.2333618,-3639405.94823 54671.7143614,-3639651.20134 54525.7512881,-3639761.0053 54302.4449472,-3639858.51762" style="stroke-linejoin:round;stroke:#000;stroke-width:1px;fill:none" /></g></g></svg>