<svg xmlns="http://www.w3.org/2000/svg" baseProfile="full" height="55636.378104" version="1.1" viewBox="19841.975563,3634397.384738,84650.375959,55636.378104" width="84650.3759587"><defs><style type="text/css">polyline,line,rect,path,polygon,.polygon{fill:none;stroke:#000;stroke-width:1px;stroke-linejoin:round;}</style></defs><g fill_rule="evenodd" transform="scale(1,-1)"><g class="id" id="14077"><polygon class="_14077" id="None" points="104409.939775,-3636474.24771 104408.4089,-3636951.18128 104391.592744,-3642496.39938 104389.041775,-3643544.74982 104384.203471,-3645518.96685 104383.192309,-3645786.9283 103648.702851,-3648242.54811 102911.479502,-3650682.67733 102852.981804,-3650892.14599 101745.900593,-3650417.18074 100667.556662,-3650143.68664 99697.4405283,-3650035.17263 97435.2380791,-3649971.61479 97389.9938953,-3649970.61361 94942.7958049,-3650108.02687 93684.1913034,-3650340.46429 92593.5622517,-3650634.40071 91430.1867987,-3651024.32612 90610.2761898,-3651170.78942 89769.8732233,-3651035.28416 89054.7032423,-3650973.77356 88897.7186165,-3651044.76205 88499.5074407,-3651225.23304 87796.321011,-3651740.66171 86596.4319867,-3652461.06032 85791.7555467,-3652943.99453 85570.7763923,-3653035.98092 85225.558884,-3653175.46027 84804.5989503,-3653306.93927 84196.6513563,-3653779.88131 83627.6974259,-3654399.81075 83121.2371284,-3655058.23877 82731.7655314,-3655754.66595 82193.0535805,-3656957.04408 82098.5499926,-3658403.90471 82114.0443885,-3659024.84534 82127.2863831,-3660525.20154 81848.8112563,-3661354.12165 81499.0943913,-3662544.50847 80978.3967156,-3663888.3832 80466.6992386,-3664909.29062 79949.5038288,-3665941.1992 78994.1045564,-3667489.56804 78376.6703092,-3668435.49127 77637.4983836,-3669449.41269 76939.0721237,-3670367.84452 75942.4262047,-3671575.76008 75233.2488738,-3672353.20949 74901.031665,-3672655.69147 73998.1203606,-3673478.6443 71455.3464891,-3674951.08792 69006.7820128,-3675406.6114 68908.7892211,-3675425.11236 68875.5455145,-3675598.60114 68628.5938132,-3676892.51834 68515.8666232,-3677480.48127 65586.5574099,-3677459.05786 65550.5596611,-3677458.55879 63188.7036112,-3677456.61709 57315.2726558,-3677364.75719 57455.4545419,-3674261.91287 53814.3822479,-3674190.97779 51121.0019291,-3674107.52414 50837.2643141,-3674119.028 50758.8535461,-3678831.8314 50641.6825823,-3682040.70479 49370.9802681,-3681981.23859 48854.3071946,-3684232.16847 47794.4836072,-3688996.53721 47374.9962932,-3688977.05117 47353.2676055,-3689621.53171 41481.4272005,-3689508.71289 41460.9220067,-3689306.21847 39388.9704758,-3689280.7757 39137.2170179,-3688932.79024 38780.9668263,-3688613.30668 38340.4679113,-3688264.32566 37945.7154011,-3687803.84566 37310.7193087,-3687378.37024 36387.4850849,-3687197.39547 35521.7483025,-3686977.91942 34597.2646422,-3686867.94166 33020.5463558,-3686936.97323 31269.3331863,-3687226.00309 30261.0972321,-3687085.02477 29618.604645,-3686927.53923 28339.8723494,-3686811.06388 28407.6709583,-3689506.02427 19873.4886846,-3687733.68042 19887.704445,-3684888.70963 19887.6292597,-3676807.31624 19887.3737979,-3676040.82781 19881.8360612,-3668671.44783 19932.0739853,-3662457.55642 19920.5741366,-3662220.06063 19945.3239435,-3660842.58502 19996.8710373,-3647895.80344 19997.6214266,-3647837.80433 20009.4104303,-3643011.3738 20010.664876,-3642537.88008 20032.5089388,-3634377.96937 22870.9816884,-3634462.50978 30049.142771,-3634531.63709 30179.1408462,-3634532.13972 30914.3795086,-3634545.15466 37795.7520444,-3634646.81178 39785.7076893,-3634656.36339 42463.3911537,-3634692.43637 45905.7938314,-3634756.03646 46501.7766018,-3634735.5555 53025.0495045,-3634846.7686 53306.2813321,-3635053.77053 57878.837871,-3635096.43689 59060.2831373,-3635106.48208 59267.7732859,-3635108.99008 61038.1868406,-3635125.05966 63804.0422248,-3635150.67232 64014.7807142,-3635152.6811 73114.7134931,-3635236.58718 74013.8955346,-3635328.62415 74046.8930051,-3635332.1255 74908.326407,-3635419.6612 76129.4839258,-3635454.71887 77420.883028,-3635491.78075 81309.3098313,-3635596.47315 82145.9858636,-3635627.5149 82669.1888149,-3635648.04108 83736.3407191,-3635696.5943 92019.9949484,-3636075.52488 95364.3587305,-3636236.20642 96452.2279464,-3636278.76764 98806.4351073,-3636370.40202 100126.016106,-3636403.98071 102226.488166,-3636456.60793 102236.4868,-3636457.1085 104409.939775,-3636474.24771" style="stroke-linejoin:round;stroke:#000;stroke-width:1px;fill:none" /></g></g></svg>