<svg xmlns="http://www.w3.org/2000/svg" baseProfile="full" height="81989.2730383" version="1.1" viewBox="-21989.467023,3965109.701193,156746.856707,81989.273038" width="156746.856707"><defs><style type="text/css">polyline,line,rect,path,polygon,.polygon{fill:none;stroke:#000;stroke-width:1px;stroke-linejoin:round;}</style></defs><g fill_rule="evenodd" transform="scale(1,-1)"><g class="hogares departamen mujeres departam_1 toponimo_i tot_pob varones viv_part viv_part_h" id="14084"><polygon class="_14084" id="None" points="71658.1314182,-3965379.513 72310.3480585,-3965553.75951 72791.5454163,-3965682.84906 75607.9496584,-3966493.72164 77831.5423093,-3967141.67547 78771.0322266,-3967405.77866 79325.4096524,-3967586.40491 79512.1226171,-3966843.28936 82399.1800762,-3967503.35356 82922.9335712,-3967625.61143 83735.7866949,-3967815.21466 84156.4035453,-3967913.98765 84660.9819176,-3968052.60344 84605.4710958,-3968410.92393 84694.8077634,-3968418.68561 84594.2794135,-3968838.83513 90000.2921311,-3970036.07501 90494.9766883,-3970167.87699 93684.2990452,-3970864.45318 94673.1167012,-3971088.08827 94712.0154572,-3971097.32609 94774.4159899,-3971107.60696 95753.2669742,-3971332.93141 95894.5112067,-3971364.16527 96900.1410058,-3971592.46468 103137.712052,-3972993.72164 106496.01278,-3973788.3282 106811.440954,-3973863.13733 107015.954121,-3973911.62324 107514.180474,-3974035.83841 107588.465695,-3974053.87985 107467.438307,-3974021.25899 109778.502218,-3974580.37673 109929.499212,-3974612.91462 110354.762564,-3974697.57815 118148.137785,-3976516.96882 122855.649593,-3977602.40812 124911.36114,-3978091.9508 125753.132448,-3978265.40779 127791.314367,-3978754.7725 129503.526771,-3979114.09942 131131.433067,-3979518.5101 133916.410049,-3980145.66061 134554.348396,-3980293.58842 134442.24849,-3980462.08708 130837.352779,-3985967.42382 125300.269391,-3994422.84008 123798.224705,-3996743.905 123548.890967,-3997186.34562 122415.442245,-3998866.38222 122412.764469,-3998869.93119 119425.300935,-4003297.2 118730.376488,-4004425.25782 117885.814514,-4005704.12388 117385.507403,-4006478.21851 115367.946023,-4009543.00673 114211.356322,-4011299.63839 112654.710714,-4013706.58861 112652.042958,-4013710.63749 112541.035292,-4013882.66814 110271.343143,-4017381.26735 107729.738733,-4021085.1789 105798.580001,-4024115.73108 105789.85772,-4024129.39188 105286.174248,-4024919.67921 103228.572294,-4028236.107 103034.407521,-4028497.23466 102636.058453,-4029030.6814 102574.393889,-4029032.40175 102250.822056,-4029027.81655 101903.140328,-4029016.71432 100662.831705,-4028974.82181 99947.4640233,-4028952.01254 99937.4563006,-4028951.21146 98531.5737119,-4028937.5729 96599.5897404,-4028986.80358 95215.1394787,-4028972.23733 92246.0715399,-4028941.56447 92040.4298542,-4028939.13883 92033.9274473,-4028938.76788 92012.9318326,-4028938.18412 91964.1983548,-4028937.15001 86958.1186104,-4028833.85367 86458.3891882,-4028829.25097 85614.0628676,-4028819.97367 81206.2999894,-4028738.78495 80984.1214492,-4028734.68543 77225.4446817,-4028724.08326 75854.9793391,-4028718.20803 75598.9767074,-4028722.27139 73156.576298,-4028761.57613 70659.0172077,-4028742.50474 70409.8904248,-4028740.93464 67405.7741684,-4028718.37998 65017.8464333,-4028663.14821 62647.3751581,-4028658.53608 61325.0949047,-4028669.68101 60478.3310203,-4028682.91969 57000.0234133,-4028710.18819 56932.5662075,-4028710.52188 56770.5454373,-4029526.78883 56447.1954174,-4033467.09115 56374.3445134,-4034280.60366 56264.8378706,-4035514.1225 56273.119867,-4035515.95744 56254.8496988,-4035653.24718 56163.1274884,-4037039.83662 56124.298235,-4037602.31169 55846.5992883,-4041605.23666 55770.3141993,-4044031.49952 55759.0449311,-4044370.04933 55756.122438,-4044474.55369 54867.8916766,-4044389.74155 45367.8958011,-4043504.79816 45702.8056874,-4045396.78849 41468.8690927,-4045544.79486 37709.4111347,-4045681.37261 35677.553192,-4045722.68754 35299.9930246,-4045724.68067 25614.1720973,-4045968.28495 24826.3321528,-4045987.9068 24792.357124,-4045988.58053 15568.9105454,-4046158.4432 15568.9821096,-4046149.44444 15563.4858919,-4046149.55338 15551.5075571,-4044763.20115 15530.7600933,-4042580.26267 15514.9078148,-4041792.31268 15506.746468,-4038109.08604 15359.5756204,-4034950.9599 15178.1074385,-4027723.27575 15172.719968,-4026956.12097 15192.1068183,-4026013.03277 -265.468116598,-4026401.7987 -957.646428648,-4026422.44254 -2281.36609806,-4026459.03509 -2509.45531486,-4026464.53119 -3765.11389413,-4026492.78273 -4900.66251336,-4026553.65828 -10245.8796685,-4026626.02173 -10559.1870769,-4026632.69658 -11003.9284049,-4026641.46186 -11473.4062653,-4026650.71455 -11849.9288354,-4026658.63506 -12153.5038531,-4026664.61794 -12672.9553482,-4026674.85522 -13102.449549,-4026683.81944 -13655.1342089,-4026694.71139 -14248.0473491,-4026706.39597 -14904.1762969,-4026719.32614 -14906.9322824,-4026642.89389 -14912.3026404,-4026484.52758 -14923.2695113,-4026156.30147 -14938.5743679,-4025696.68405 -14941.2536595,-4025598.75411 -14941.6315083,-4025592.2627 -14945.1537047,-4025438.85916 -14954.0485315,-4025038.10517 -14975.3650989,-4024108.18963 -14990.4434135,-4023444.10439 -15004.2860696,-4022829.98612 -15016.2775272,-4022309.81482 -15027.9806341,-4021766.14213 -15039.3913687,-4021249.9589 -15190.8652692,-4016739.74869 -15253.5387123,-4014530.87977 -15358.6265458,-4014525.44669 -15482.7220992,-4014544.8828 -15532.0461581,-4014667.83039 -15587.1568622,-4014674.41267 -15628.2091927,-4014633.22712 -15633.9596083,-4014556.85386 -15647.2831261,-4014502.12559 -15695.1731163,-4014494.56841 -15729.9949749,-4014528.74686 -15789.6105731,-4014585.90863 -15910.7104774,-4014554.29499 -16051.9956066,-4014513.07983 -16142.2026879,-4014450.86421 -16141.1883975,-4014349.86217 -16119.5591132,-4014229.45833 -16149.1006253,-4014138.05524 -16199.3977379,-4014097.0512 -16290.0388944,-4014076.3366 -16390.9875761,-4014065.32287 -16420.0827716,-4013983.90914 -16515.429998,-4013901.79776 -16651.628616,-4013890.47688 -16691.9750172,-4013859.7753 -16700.6079113,-4013738.46623 -16760.5961377,-4013687.65421 -16872.1558284,-4013696.34541 -16973.5051216,-4013715.83405 -17088.0938986,-4013583.10934 -17227.9741743,-4013409.8886 -17266.4416155,-4013207.6796 -17315.9814897,-4013116.16902 -17496.3663182,-4012993.2352 -17749.0157495,-4012970.70412 -17849.9747711,-4012959.19011 -17951.01135,-4012969.17396 -18042.1266506,-4012987.96134 -18163.635642,-4013037.34085 -18294.5802686,-4012975.42462 -18434.5578951,-4012822.70111 -18504.1500669,-4012741.08239 -18665.2048229,-4012698.7543 -18706.7171168,-4012799.55317 -18697.6306805,-4012880.3611 -18819.7981558,-4013010.7401 -19011.9606193,-4013039.01171 -19203.2948235,-4012956.78532 -19375.4587783,-4012985.1639 -19527.5248082,-4013044.14253 -19630.0506329,-4013194.63274 -19792.6722114,-4013314.30912 -19913.7738578,-4013282.6942 -20024.2208632,-4013220.87474 -20093.7601047,-4013129.25613 -20244.7581261,-4013077.23186 -20385.8490288,-4013046.0095 -20526.6921803,-4012963.79037 -20677.6904184,-4012911.7659 -20850.9141108,-4013051.64768 -20932.4878736,-4013161.73329 -21135.0568761,-4013220.20487 -21351.9510127,-4013172.97459 -21353.9499283,-4013173.01386 -21617.5946835,-4012972.72597 -21738.082609,-4012870.60944 -21897.5534075,-4012667.27443 -21884.6924808,-4012673.02084 -21883.9723393,-4012671.50692 -21818.848875,-4012589.24002 -21817.369321,-4012588.21111 -21698.7006714,-4012521.38977 -21688.5740263,-4012515.19176 -21536.2139245,-4012420.21288 -21491.7782522,-4012391.84422 -21320.2724084,-4012278.99213 -21135.1909967,-4012157.37483 -21086.2578172,-4012128.91791 -21083.2987147,-4012126.8601 -20910.6454314,-4012046.98058 -20904.4479158,-4012044.35924 -20826.8928568,-4012022.33901 -20585.7226387,-4011956.61124 -20169.6207047,-4011837.95531 -20167.1417053,-4011836.90678 -19748.8594711,-4011600.22765 -19414.1184136,-4011411.68251 -19293.6730419,-4011320.83138 -19224.1541479,-4011271.47388 -19078.664567,-4011157.63473 -19075.9553441,-4011155.58186 -19055.3497141,-4011135.68039 -18965.0690212,-4011048.92138 -18760.8554227,-4010832.44616 -18758.405877,-4010829.89847 -18697.5892429,-4010744.71816 -18469.3089787,-4010417.28947 -18452.6082815,-4010389.46615 -18238.5268229,-4010026.32306 -18106.8258502,-4010012.2389 -17989.8471169,-4009999.44366 -17883.3429681,-4009987.85395 -17744.6559006,-4009973.13272 -17503.8106835,-4009941.90802 -17357.1871782,-4009924.03151 -17355.1882961,-4009923.99226 -17264.0958114,-4009967.69565 -17243.6608854,-4009977.29264 -16820.7349707,-4010180.95068 -16488.2307678,-4010336.89244 -16451.8879213,-4010354.67546 -16285.1026745,-4010408.88991 -15904.2253517,-4010533.38644 -15338.7061495,-4010717.74474 -14981.1903945,-4010658.23284 -14486.1256766,-4010297.07511 -14480.0755135,-4010286.95815 -14247.8275603,-4009894.46957 -14242.1691622,-4009889.8593 -14060.7426605,-4009747.82265 -13826.6416791,-4009564.25957 -13822.9527021,-4009561.1877 -13640.9751107,-4009141.69323 -13510.5278568,-4009051.1488 -13201.9900957,-4008839.63051 -12985.4656887,-4008728.4002 -12441.9138579,-4008456.28011 -12439.2537389,-4008451.72877 -12125.2658794,-4007932.16552 -11780.230662,-4007720.93333 -11669.0908798,-4007652.76497 -11663.8929802,-4007650.16344 -11176.5745852,-4006830.76069 -10574.8323185,-4006645.48726 -9718.13666206,-4006626.17658 -9707.58403581,-4006628.96888 -9654.20393162,-4006623.42232 -9648.217287,-4006622.80494 -9414.87044864,-4006604.72871 -9372.32229091,-4006594.89565 -9176.49307654,-4006550.06141 -9090.16720629,-4006529.37141 -9024.089137,-4006508.57885 -8799.7873501,-4006437.1915 -8798.85658354,-4006433.67397 -8604.30797855,-4005915.96506 -8587.45094559,-4005870.64384 -8531.92199943,-4005732.58336 -8458.7709362,-4005613.67309 -8412.24547614,-4005551.77325 -8367.4104151,-4005467.41139 -8307.84420612,-4005356.76609 -8230.25931049,-4005247.26705 -8214.02907155,-4005220.9542 -8189.15209005,-4005189.47279 -8066.79537038,-4005030.60596 -8053.04880897,-4005017.83897 -7878.72800114,-4004870.45033 -7815.2324556,-4004781.72362 -7810.62252947,-4004774.6347 -7776.14821447,-4004760.96127 -7656.0931682,-4004714.11594 -7640.96014103,-4004708.32029 -7516.29042128,-4004641.88871 -7401.08545962,-4004602.637 -7305.652883,-4004574.77077 -7295.56587362,-4004566.57465 -7209.43192369,-4004497.89976 -7127.94711327,-4004434.31501 -6995.50799108,-4004330.73943 -6969.17596041,-4004309.72745 -6874.44931801,-4004220.38871 -6867.34090313,-4004213.25083 -6772.7463847,-4004155.40784 -6751.02428798,-4004141.48477 -6705.30701793,-4004102.0966 -6593.77193533,-4004015.92762 -6531.9615095,-4003968.72554 -6265.38831985,-4003822.52879 -6164.54774725,-4003764.56362 -6090.1469799,-4003722.11367 -6076.05262344,-4003714.33894 -5959.21681862,-4003694.55159 -5954.73915187,-4003693.464 -5823.07432697,-4003626.89627 -5685.13390411,-4003587.19949 -5657.12648666,-4003575.15284 -5645.96173102,-4003570.9348 -5597.45213694,-4003546.48879 -5545.72392852,-4003520.48002 -5461.81438776,-4003491.34075 -5353.94404198,-4003447.73479 -5313.71373372,-4003434.44871 -5248.9935168,-4003408.18523 -5124.05525841,-4003368.24375 -4666.32116616,-4003219.79981 -4629.0695303,-4003207.57199 -4584.09714061,-4003206.69013 -4495.14197571,-4003205.44572 -4468.96688623,-4003201.93315 -4453.00610853,-4003200.12053 -4329.84655547,-4003184.20864 -4172.51691646,-4003190.12154 -4080.27963178,-4003177.81532 -4067.80692735,-4003176.57098 -3957.87470875,-4003174.41537 -3898.30361389,-4003178.74598 -3804.10684862,-4003189.89589 -3698.00571779,-4003196.3134 -3529.58040145,-4003245.49851 -3343.47498107,-4003291.33755 -3326.64716646,-4003295.50652 -3275.40934431,-4003270.00755 -3215.17710864,-4003244.33222 -3198.07497735,-4003236.99852 -2917.04851863,-4003178.00057 -2876.9379644,-3995504.03468 -2933.38980869,-3989819.98504 -3191.70359891,-3984120.37124 -3240.18152452,-3982430.7114 -3291.28761122,-3977875.76273 -3276.36306619,-3967089.42153 -1469.67681839,-3967107.27591 -938.040551062,-3967094.93848 -860.059138799,-3967094.92177 1542.31034854,-3967040.71203 3639.62721599,-3967045.42482 4699.05648823,-3967055.82091 12383.9341159,-3967082.4015 20136.5593975,-3966996.24606 22887.5577038,-3967031.77578 26377.3246979,-3967006.97868 32658.2779569,-3966961.48162 33229.9294067,-3966955.38065 35573.4821479,-3966930.3738 41898.0028935,-3966892.57505 48879.69731,-3966981.98927 49348.2436565,-3966983.39331 49493.7623921,-3966988.06626 49950.0871591,-3966990.7071 50784.1007147,-3967000.01354 52371.6267804,-3967004.19753 54912.1872661,-3967010.88549 56268.5385814,-3967014.5606 56961.5047835,-3967019.11015 57995.0791163,-3967026.04899 61025.5677513,-3967034.73921 65004.5736557,-3967050.0297 65217.4845816,-3967051.89801 65615.0635416,-3967055.1829 66928.9284064,-3967075.68193 71261.5159795,-3967114.1148 71658.1314182,-3965379.513" style="stroke-linejoin:round;stroke:#000;stroke-width:1px;fill:none" /></g></g></svg>