<svg xmlns="http://www.w3.org/2000/svg" baseProfile="full" height="113290.454998" version="1.1" viewBox="17325.479152,3565507.583650,37795.270251,113290.454998" width="37795.2702509"><defs><style type="text/css">polyline,line,rect,path,polygon,.polygon{fill:none;stroke:#000;stroke-width:1px;stroke-linejoin:round;}</style></defs><g fill_rule="evenodd" transform="scale(1,-1)"><g class="id" id="14091"><polygon class="_14091" id="None" points="53547.5105507,-3577444.59168 53686.769391,-3578068.69594 53606.6723796,-3578533.78912 53375.1763483,-3578780.78352 53160.689658,-3579423.02677 52963.0686665,-3579628.7315 52849.8710833,-3580053.13039 52462.2623486,-3580563.94839 52563.1784887,-3580978.94564 52551.3960305,-3581396.44456 52545.3738428,-3581730.9132 52608.6645258,-3582186.73393 52575.6386259,-3582688.40002 52566.8963427,-3583166.35582 52549.1302571,-3583500.9285 52558.4092677,-3583644.80906 52528.5320726,-3583966.49281 52669.6957969,-3584101.20085 52810.0238853,-3584282.40423 53045.9278338,-3584418.76754 53280.5274216,-3585026.02004 53283.3432789,-3585033.493 53304.3661976,-3585092.79027 53316.6827267,-3585128.67119 53482.4372333,-3585442.61232 53477.4961301,-3585729.58147 53387.5967011,-3586074.79269 53296.4424401,-3586503.49344 53532.4085345,-3586674.8447 53536.894675,-3587262.15064 53529.5847614,-3587255.21766 53479.5877996,-3587310.14915 53481.377312,-3587314.63201 52724.4911387,-3588370.10835 52604.5328957,-3588903.53999 52658.8123563,-3589132.49585 52689.2864933,-3589690.57813 52723.9481656,-3589961.69777 52778.5898479,-3590259.13196 52872.3971664,-3590800.1522 52884.8974214,-3590856.52573 53018.651006,-3591056.77826 53174.9326854,-3591288.82093 53492.5119998,-3591670.88237 53653.3286355,-3592046.84536 53692.6414048,-3592138.96949 53705.1517949,-3592364.29757 53715.3102253,-3592550.15716 53732.5833695,-3592860.91973 53476.9219933,-3594121.36887 53475.2530464,-3594130.38138 53474.8023813,-3594135.88395 53477.3015138,-3594135.8616 53889.8387368,-3596164.12566 53882.4733627,-3596290.65744 53835.1012904,-3597085.3669 53808.4455788,-3597458.00488 53896.8899872,-3599128.7598 53903.2263846,-3599250.17003 53912.1575494,-3599967.89488 53912.8365659,-3599987.88335 53762.710583,-3600610.56014 53714.2304222,-3600806.44168 53698.8410499,-3600874.06133 53671.8637514,-3600987.27253 53664.2285222,-3600999.8376 53589.0393202,-3601310.92756 53496.3734893,-3601707.6512 53415.2646087,-3602055.28467 53354.1096397,-3602314.7631 53352.8735317,-3602316.27379 52912.8270731,-3602827.08517 52842.3185118,-3603269.59883 52817.4639533,-3603424.28028 52813.1431608,-3603499.79872 52786.9745735,-3603702.97893 52794.6631198,-3603779.88916 52707.8484981,-3603937.12638 52702.6771076,-3604224.09553 52660.8286706,-3604545.88472 52569.2045653,-3604974.59237 52590.2061947,-3605142.35851 52728.2867273,-3605378.05428 52599.6621119,-3605861.07986 52696.4748376,-3606455.04936 52568.2981419,-3606709.63293 52540.8212552,-3606711.37949 52495.5022621,-3606785.76688 52486.8766268,-3606799.34078 52489.5060379,-3606813.81324 52531.1414917,-3607080.367 52547.6193827,-3607467.61433 52552.6201272,-3607579.03928 52699.6338853,-3608252.03496 52695.7533517,-3608487.50612 52694.737567,-3608513.50822 52690.9543025,-3608731.9831 52679.064945,-3608855.05675 52694.132779,-3608946.39643 52717.0416591,-3609103.64767 52775.4002504,-3609423.03585 52785.4211574,-3609453.43741 52970.3143737,-3610002.62387 53163.6675824,-3610214.32546 53316.6022267,-3610489.37335 53405.7044738,-3610670.02159 53407.2399379,-3610674.00667 53491.0706744,-3611018.65727 53515.7212895,-3611119.40762 53621.2193696,-3611816.26593 53621.0433122,-3612018.71186 53619.8747401,-3612970.96048 53607.3078853,-3613295.98434 53596.6347311,-3613581.502 53593.8344816,-3613714.49066 53583.7967584,-3614014.99848 53578.1444019,-3614192.00075 53577.3433748,-3614269.48665 53571.1648671,-3614803.89532 53585.8324328,-3614989.21201 53611.9996673,-3615313.38669 53619.126523,-3615410.79557 53719.2938046,-3616014.2254 53831.4219988,-3616613.54792 53875.7227477,-3616842.08485 53947.554533,-3617213.33365 54075.4070397,-3617810.01386 54050.5761247,-3618160.14105 54102.5370656,-3618572.55732 54192.0325185,-3619266.55609 54197.5334892,-3619294.49862 54207.4680668,-3619342.8954 54220.5325246,-3619405.75988 54220.1365616,-3619417.26026 54213.6747766,-3619587.27142 54176.6924186,-3620002.9902 54188.3374575,-3620185.3343 54191.0398237,-3620207.80363 54195.0384919,-3620290.74445 54259.6184622,-3620661.0577 54253.9561163,-3621030.00634 54335.6430771,-3621523.13046 54435.5982324,-3621991.09603 54422.3170815,-3622374.10951 54421.4608623,-3622417.60514 54427.4331627,-3622580.50573 54443.4668012,-3623026.73636 54460.7993365,-3623505.94601 54470.9302925,-3623658.81172 54489.2726345,-3624139.01189 54459.1398896,-3624565.16606 54464.8035985,-3625521.84846 54446.3302397,-3626158.83861 54511.2903846,-3626542.64313 54590.4501029,-3626783.35863 54573.9806114,-3627034.43799 54604.1516406,-3627357.57448 54563.8234439,-3627595.87378 54523.9952678,-3627834.16863 54471.6672604,-3628072.07702 54529.1069579,-3628205.01915 54538.3004967,-3628336.8991 54560.4506379,-3628574.63208 54537.7801082,-3628637.82015 54483.6553674,-3628787.76946 54467.8010429,-3628830.90131 54464.129452,-3628839.43225 54459.3193348,-3629411.31713 54257.4143622,-3629663.57936 54174.6064206,-3629985.24191 54086.5529975,-3630169.49022 54108.9570423,-3630545.18319 54088.9551319,-3630847.28144 54017.1041035,-3631136.854 53984.3095601,-3631268.61551 53981.8139383,-3631351.61532 53954.166793,-3631554.81048 54067.4406652,-3631891.18913 53975.176283,-3632079.47536 53943.0138977,-3632198.23487 53950.6274825,-3632403.60926 54102.9851071,-3632585.17515 54099.4757993,-3632776.65433 53906.6442352,-3632844.38781 53887.8720257,-3633088.99127 53890.3239996,-3633386.38741 53842.5359834,-3633490.79311 53833.2210281,-3633510.87226 53777.0494987,-3633655.34324 53684.5951233,-3633905.1153 53811.362898,-3634158.39363 53865.7157363,-3634446.32066 53706.404081,-3634682.20471 53771.2718953,-3634889.5582 53772.3761381,-3635038.50746 53772.7488017,-3635106.98536 53714.7198793,-3635376.93943 53453.8167949,-3636451.52049 53481.8723182,-3636733.18873 53481.1362258,-3636734.69502 53452.1427368,-3636844.4291 53430.6646106,-3636928.60174 53445.9826268,-3637018.93782 53452.9810548,-3637128.84432 53470.3163832,-3637193.66895 53509.6446883,-3637340.77107 53518.7054368,-3637375.17926 53520.8093452,-3637386.65699 53480.5463002,-3637384.02421 53616.8178032,-3637967.12543 53651.0012502,-3638345.21155 53657.6309083,-3638359.64726 53659.6529519,-3638362.12818 53727.2988703,-3638489.97744 53730.1218379,-3638580.42717 53731.6945028,-3638615.90321 53695.175838,-3638942.14728 53611.0286846,-3639252.82959 53613.7326411,-3639275.29888 53601.7150293,-3639327.89411 53681.1763564,-3639765.0518 53724.1885355,-3640014.59229 53736.7175809,-3640100.45487 53819.1757164,-3640592.07021 53810.5435157,-3640851.57862 53802.1927228,-3641087.09102 53750.1993506,-3641168.54299 53679.7359495,-3641280.15525 53856.0538972,-3641402.51462 53945.8860525,-3641414.19239 53988.9795071,-3641398.30378 54117.4964291,-3641349.14534 54146.3221318,-3641330.88748 54124.9833272,-3641101.14445 54053.1328517,-3640758.89243 54076.1033872,-3640399.78066 54300.8709083,-3640271.26714 54388.0552066,-3640568.39143 54528.5048308,-3640759.0591 54535.5086008,-3641033.92013 54591.892796,-3641214.85661 54589.7348504,-3641416.82109 54725.2201348,-3641666.0175 54679.0091429,-3641833.39314 54584.0245798,-3641996.71479 54479.2798591,-3642158.62597 54366.787928,-3642320.60793 54267.7767856,-3642453.47496 54247.2848348,-3642481.15437 54123.5332676,-3642641.73971 53997.0281307,-3642801.85044 53868.2601246,-3642960.48238 53738.9831856,-3643118.11938 53611.9463439,-3643274.73637 53487.6494259,-3643430.32879 53362.3346296,-3643583.93117 53234.7615081,-3643736.55457 53104.4211099,-3643887.2039 52970.7953595,-3644033.88441 52833.1527503,-3644178.60225 52692.7109102,-3644317.84724 52547.2251697,-3644452.13972 52395.9275275,-3644579.48722 52239.3406,-3644702.38431 52081.4903617,-3644823.79346 51924.3852433,-3644944.69607 51769.0613989,-3645069.08165 51617.7817498,-3645198.42914 51467.4971495,-3645327.26781 51436.7039634,-3645349.04332 51315.7175802,-3645456.62014 51165.1966631,-3645586.96086 51014.4166606,-3645716.30434 50865.1452287,-3645846.63392 50714.1289116,-3645977.47945 50566.3705749,-3646109.29511 50417.6125363,-3646241.12003 50270.6175571,-3646374.42862 50125.1357264,-3646509.22314 49980.6672168,-3646645.50816 49838.2071312,-3646782.77473 49704.580813,-3646929.45837 49580.7833894,-3647085.05012 49460.775807,-3647245.10626 49345.0122548,-3647404.62391 49247.3888289,-3647579.97199 49124.5728676,-3647733.55584 48978.5773343,-3647866.85669 48888.8060506,-3647944.1578 48848.1484432,-3647980.52031 48826.8154034,-3647998.21086 48687.631488,-3648138.44802 48639.7092555,-3648200.37064 48566.8467915,-3648295.513 48544.6647844,-3648329.70728 48458.3994065,-3648462.46293 48357.7360395,-3648633.34088 48256.5865843,-3648805.72305 48132.1582701,-3648974.31907 47966.8648771,-3649211.27213 48075.9619671,-3649416.2246 48051.1516292,-3649682.38637 48030.1679872,-3649957.01119 47482.2981413,-3650421.40881 47195.414955,-3650781.94583 47294.5318868,-3651261.92369 47295.8824522,-3651682.81018 47295.742274,-3651694.80859 47287.8828075,-3652037.79819 47194.7457898,-3652211.6089 46612.7174421,-3652411.88796 46603.6945145,-3652436.46471 46622.4004254,-3652787.21037 46701.0504444,-3653051.4278 46868.8500239,-3653252.34395 46667.6232234,-3653823.0513 46057.2056,-3654062.08492 45826.1319009,-3655139.95023 45535.3971899,-3656007.41346 45359.8207792,-3656458.41886 45004.713241,-3656956.06002 44828.5764677,-3657618.52437 44777.2678381,-3657774.45953 44624.5369295,-3658236.25586 44541.0359327,-3658533.95471 44289.4282085,-3658952.16885 43681.5826989,-3659581.10535 43338.1612609,-3659990.16627 42981.2209232,-3660560.31724 42664.4569381,-3661150.59669 42510.0599582,-3661702.89522 42471.3716388,-3662117.16168 42375.5899686,-3662410.97841 42449.7275619,-3662618.25339 42309.6239145,-3662821.49677 42265.9699329,-3662885.38411 42262.6683294,-3662906.90986 42227.4698289,-3663156.68015 42186.4808884,-3663293.02776 42170.8487726,-3663387.15143 42219.0346923,-3663680.64672 42226.6911545,-3663725.06699 42248.0318727,-3663789.85724 42257.8504528,-3663824.75965 42348.9893658,-3664086.86689 42286.3584317,-3664424.87104 42243.020768,-3664795.19135 42139.5627867,-3664960.60747 41999.5998728,-3665151.85386 42154.7930547,-3665856.28007 42227.6270523,-3666220.53438 42330.31825,-3666732.98319 42359.7705479,-3666837.1906 42254.9881481,-3667103.09908 42266.8596184,-3667551.3969 42479.8743767,-3667883.86812 42604.3449717,-3668155.16647 42772.8350519,-3668755.49122 42843.1616769,-3669254.24048 42892.543091,-3669812.67033 42890.7351717,-3670403.56517 42660.2867038,-3671082.54873 42591.3607621,-3671496.09947 42514.0675779,-3672005.20837 42553.5793907,-3672414.2615 42622.4072799,-3672614.08674 42629.8532783,-3672635.51377 42596.093355,-3672660.81985 42920.8573738,-3673184.72009 42861.7117083,-3673655.67037 42859.2517533,-3673714.18127 42774.279725,-3674094.88837 42822.4337967,-3674681.82667 42850.2959775,-3675344.9373 42789.2707743,-3676370.29713 42585.1279819,-3676567.14269 42576.8035269,-3676504.7318 42526.9392017,-3676464.20004 42463.1480119,-3676431.2953 42300.1510958,-3676319.82159 42221.8648268,-3676260.05583 42159.5031547,-3676246.634 42062.8846421,-3676313.01273 41987.5470488,-3676383.19436 41961.0149972,-3676460.4242 42011.3876259,-3676528.94594 42121.7141368,-3676647.90445 42236.5025237,-3676762.82248 42348.9916305,-3676845.26798 42337.5532311,-3676905.86174 42266.1823981,-3676972.50761 42180.3494864,-3676988.79681 42080.532708,-3677060.70431 42017.3826157,-3677097.2802 41896.7685738,-3677082.39654 41805.5963359,-3677034.7474 41723.1347498,-3676983.0186 41644.5982397,-3676923.25508 41590.4425605,-3676905.25843 41477.3561251,-3676974.7889 41420.8739369,-3677056.79451 41423.4722958,-3677148.75288 41453.4946699,-3677205.96477 41505.534828,-3677238.47813 41573.3621421,-3677275.34489 41612.1690269,-3677336.47489 41595.9950089,-3677425.60709 41525.9805446,-3677476.74367 41433.5007424,-3677504.09223 41350.0007448,-3677502.36345 41236.0444846,-3677558.90472 41063.093623,-3677668.9805 40918.7778677,-3677794.28913 40917.2721299,-3677847.79291 40892.5997015,-3677963.99875 40856.1305127,-3678047.81965 40768.4906976,-3678112.11674 40686.8353729,-3678174.8589 40551.7538544,-3678271.58803 40453.4368267,-3678316.48744 40330.1226787,-3678334.12277 40188.2588655,-3678318.93547 40097.159693,-3678279.28396 39915.8156968,-3678265.46083 39777.8621954,-3678267.73407 39565.3833302,-3678238.70107 39472.0407227,-3678308.05006 39420.5614564,-3678390.5102 39365.543145,-3678414.51375 39291.4068905,-3678371.20611 39092.8073829,-3678058.59662 39100.5833078,-3677899.05402 39125.746002,-3677808.83829 39101.7310566,-3677752.57025 39102.070321,-3677708.07528 39048.0735271,-3677626.08866 39017.4035438,-3677552.88513 38955.4293967,-3677554.45679 38904.9559016,-3677583.41731 38843.4429656,-3677634.97559 38769.7810145,-3677670.149 38755.4852643,-3677773.26215 38723.61835,-3677787.05375 38676.8652844,-3677839.97563 38609.1740123,-3677872.09455 38622.5252992,-3678072.93491 38610.8611258,-3678244.51151 38559.0754941,-3678347.97083 38448.0371369,-3678449.97743 38355.1008896,-3678536.31981 38282.7346114,-3678576.48064 38191.3141573,-3678583.32333 38123.9288627,-3678594.44338 38064.164532,-3678672.98105 38030.0104164,-3678709.78977 37921.1682908,-3678724.79185 37815.8175893,-3678684.77146 37806.5447791,-3678600.87196 37760.3056128,-3678492.81798 37727.4690109,-3678428.63247 37753.3086975,-3678303.41625 37851.3462483,-3678201.02966 37915.2967445,-3678061.46439 37944.6087922,-3677906.22167 37906.7374823,-3677675.6125 37848.2740345,-3677461.69036 37810.6115378,-3677226.58009 37748.7250709,-3676966.69776 37687.2857581,-3676890.7782 37612.0695069,-3676892.97166 37476.6125902,-3676949.21114 37340.8088514,-3676994.95572 37083.408587,-3677136.30502 36973.5645834,-3677205.30608 36869.2542874,-3677196.76984 36818.2426275,-3677248.73123 36757.4393512,-3677241.79335 36706.7608753,-3677167.27397 36693.2673684,-3677086.41269 36759.4144455,-3677022.31386 36827.9271678,-3676943.6958 36883.0392236,-3676902.69472 36904.6969359,-3676866.00146 36913.868156,-3676803.42796 36860.7678296,-3676764.42465 36828.0975963,-3676718.23416 36717.27011,-3676599.27738 36622.7518905,-3676514.16413 36545.2902108,-3676408.39718 36497.4187015,-3676285.86029 36454.2686535,-3676268.7612 36265.9572435,-3676258.49943 36036.9811564,-3676229.61581 35922.1539236,-3676246.17166 35814.7290266,-3676225.16581 35725.1993566,-3676274.48268 35666.4013816,-3676349.51174 35639.5848175,-3676450.24148 35633.4508478,-3676598.27233 35586.1038421,-3676668.1968 35480.6058844,-3676720.66053 35405.8198472,-3676715.35106 35218.9728827,-3676755.56705 34974.8560401,-3676846.80239 34881.5898022,-3676924.64909 34822.0741366,-3677003.18449 34720.8811625,-3677034.61226 34576.3027614,-3677023.44732 34501.4679515,-3676958.64834 34494.4740945,-3676850.73112 34472.954114,-3676793.93917 34467.7456275,-3676717.00024 34437.2832608,-3676666.2897 34380.7434625,-3676633.81648 34304.4299156,-3676625.52144 34209.4909114,-3676630.39588 34123.0278129,-3676605.69716 34065.1461515,-3676563.23792 34000.1291911,-3676478.85151 33997.833685,-3676365.3918 34005.0277625,-3676223.84938 34023.8341454,-3676094.69787 34115.32838,-3675905.88656 34223.6383279,-3675914.38684 34332.7556947,-3675874.88784 34377.430961,-3675840.48194 34425.2518237,-3675740.55826 34333.0762719,-3675638.42523 34257.4527737,-3675623.62471 34093.964682,-3675567.64092 34069.9594296,-3675512.37154 34059.2493333,-3675407.988 34086.6321396,-3675287.25624 33954.6143065,-3675201.48732 33804.0157575,-3675160.88186 33683.8423937,-3675166.98808 33591.6342461,-3675169.83718 33541.057024,-3675214.79559 33460.3479775,-3675272.02957 33363.253602,-3675341.4125 33286.4040797,-3675410.60897 33238.7130089,-3675497.53383 33162.2285308,-3675579.22491 33119.5973216,-3675645.60664 33118.6365279,-3675704.10573 33196.4243456,-3675763.87895 33292.1213529,-3675786.99323 33327.0673964,-3675863.15845 33305.0806691,-3675999.83823 33307.4646608,-3676095.80024 33351.9498585,-3676176.3768 33396.1194661,-3676276.95291 33432.0653986,-3676353.10888 33431.1047608,-3676411.60798 33372.0654172,-3676487.63949 33311.3179703,-3676568.18604 33211.822183,-3676621.09437 33166.8023377,-3676699.49636 33086.1312854,-3676733.73432 33085.3169746,-3676726.74298 33076.1476517,-3676626.84402 33049.6221214,-3676515.107 32961.6591422,-3676490.42184 32828.3364926,-3676480.15235 32740.0566548,-3676502.46233 32637.898852,-3676564.89362 32526.8722301,-3676641.40439 32389.2773942,-3676628.67464 32235.9167814,-3676641.08607 32099.1233154,-3676715.33475 31973.3697204,-3676766.98538 31581.4004586,-3676790.59404 31575.8603532,-3676786.14581 31501.0979278,-3676647.85699 31335.8841482,-3676540.39667 31211.2454623,-3676496.05227 31101.8069714,-3676446.56858 31016.110147,-3676450.85752 30911.3061451,-3676470.32009 30822.4785288,-3676514.63152 30678.6747182,-3676533.45354 30627.5514892,-3676464.9354 30565.8985914,-3676393.0148 30534.3778572,-3676308.8185 30568.5116103,-3676242.51451 30649.3563703,-3676172.78075 30747.3607216,-3676066.39475 30813.4800681,-3675944.80499 30822.6639993,-3675829.23881 30765.6082251,-3675740.7785 30707.4474376,-3675722.31719 30587.1452328,-3675687.43087 30496.6621057,-3675606.27721 30452.5249683,-3675509.19915 30433.6777472,-3675416.8874 30418.5013905,-3675316.0432 30371.5027334,-3675152.50204 30372.1766872,-3675008.51875 30344.5403407,-3674911.78865 30273.8918524,-3674894.44196 30211.5603763,-3674884.5175 30135.8472306,-3674887.21425 29998.0372598,-3674905.48031 29898.0583654,-3674878.9051 29798.5747263,-3674851.82538 29689.4386238,-3674862.32859 29634.7832639,-3674898.82608 29578.9734,-3674972.82833 29527.9736433,-3675026.28954 29423.1692375,-3675045.75149 29334.5312152,-3675083.56173 29299.2195437,-3675184.87108 29236.0293366,-3675217.44786 29169.396607,-3675229.05959 29140.0293692,-3675215.83205 29078.3568703,-3675168.90719 29046.5267678,-3675078.21432 29048.4109904,-3674984.21156 28972.0257392,-3674913.92572 28890.0451904,-3674833.19298 28727.6208972,-3674838.68743 28664.6175506,-3674837.26765 28665.7551871,-3674770.76744 28742.2168556,-3674713.5724 28797.5515998,-3674615.07826 28821.0841558,-3674510.37787 28784.7170365,-3674442.72313 28734.6002067,-3674429.18654 28671.6183895,-3674457.26193 28559.4381657,-3674435.79783 28407.8087171,-3674256.22117 28320.6132882,-3674233.52719 28170.0188282,-3674247.91098 28061.3821091,-3674258.4092 28005.8416104,-3674307.41285 27947.0718181,-3674331.45006 27888.04442,-3674327.49392 27849.2208128,-3674318.85254 27742.3581144,-3674304.83814 27737.3868968,-3674307.88343 27606.5834771,-3674327.0843 27391.7905259,-3674427.54582 27211.4602253,-3674470.19895 27079.6538745,-3674380.4254 26963.5538764,-3674340.49977 26817.3581075,-3674316.84859 26674.7042749,-3674352.156 26598.2173634,-3674433.84766 26606.6062961,-3674557.75207 26642.5471976,-3674633.41009 26610.9164519,-3674700.19127 26540.4680935,-3674731.8349 26451.3016712,-3674766.65032 26381.4804757,-3674757.79417 26330.2867948,-3674790.2605 26271.9812083,-3674864.7861 26195.4651584,-3674888.9867 26139.1745404,-3674856.50948 26007.488884,-3674752.7365 25902.8384052,-3674653.21403 25745.5650827,-3674566.6738 25671.7341187,-3674502.36249 25534.4299469,-3674467.13092 25421.2733233,-3674502.66686 25419.6200392,-3674594.66874 25453.0615326,-3674670.35008 25524.0802236,-3674782.18042 25524.5939059,-3674783.67547 25530.2780206,-3674858.11239 25490.9724703,-3674932.96323 25408.4729734,-3674931.72256 25320.4595053,-3674874.54068 25200.4733518,-3674792.6565 25114.2800806,-3674715.96059 25035.0257321,-3674551.21345 25014.6762286,-3674512.90617 24550.3834653,-3674147.72961 23511.1487334,-3671903.60529 22820.5488964,-3670412.6632 22063.2807516,-3668765.35163 21978.6477543,-3668531.6618 21688.4828055,-3667746.43676 21335.0250477,-3666791.81583 20714.7482847,-3665116.24327 20261.8291268,-3663890.56972 20232.6348535,-3663814.34813 19939.18245,-3663023.64981 19779.0076532,-3662592.67864 19779.3976688,-3662580.67679 19779.379357,-3662578.67724 19776.898199,-3662444.21921 19774.6642822,-3662336.75506 19682.2814056,-3657622.28655 19666.1063295,-3656892.04252 19078.6985764,-3656755.93307 18592.9952652,-3656643.88966 17362.3473822,-3656362.17895 17497.9735862,-3654271.23971 17676.4181257,-3651748.97824 17924.13773,-3648077.26494 17925.0007938,-3648062.25933 17975.9640484,-3647400.89447 18007.284667,-3647025.16583 18462.5655453,-3647091.00621 19582.3023845,-3647382.75435 19650.5139567,-3647215.15864 19998.0667062,-3644977.34313 19993.8628233,-3644405.97199 19994.0717931,-3644401.4708 20000.2470181,-3644365.9202 19961.2111234,-3643757.37237 19910.4336962,-3643149.43143 19906.0319803,-3642913.00915 19915.5391398,-3642529.48375 19948.562754,-3642038.26163 19964.9167714,-3641912.63289 20350.1101631,-3641446.20242 20912.7321602,-3640892.67284 21314.1172958,-3640502.58494 21331.3084661,-3640496.42955 22689.6580676,-3639982.65796 23598.3402326,-3639579.96071 23611.0083652,-3637536.69733 23686.6720822,-3637116.08229 23648.5013136,-3636793.98496 23699.1736316,-3636153.63547 23820.9047919,-3635686.11072 23971.609211,-3634913.37654 24518.7713358,-3633813.10112 24638.1191836,-3633055.15185 24963.2275794,-3632357.32523 25105.8549248,-3631795.63142 25464.1402455,-3631227.98274 26108.6228084,-3630467.27457 26480.71753,-3629961.49253 26815.6669371,-3629494.04136 27298.8901552,-3628535.83842 27362.7043865,-3628075.34599 27370.5079782,-3627584.86694 27584.1853443,-3627195.00381 27604.1319061,-3627134.33447 27670.8203402,-3626935.76757 27718.3138487,-3626880.84762 27676.4664576,-3626869.22893 27629.8622524,-3626691.1846 27648.5148947,-3626598.03313 27633.508162,-3626514.18484 27676.8498462,-3626414.81091 27778.9392556,-3626316.4047 27788.2575253,-3626241.33445 27799.4730946,-3626099.75955 27776.3147593,-3625998.98829 27795.1053503,-3625865.84321 27856.9794045,-3625742.80606 27907.7865649,-3625667.36019 28050.2263206,-3625636.07618 28184.5233634,-3625588.86895 28386.5122019,-3625509.05497 28438.5247579,-3625401.10454 28454.5151143,-3625179.50198 28511.3217206,-3625076.50728 28666.9975347,-3625071.59868 28713.5782348,-3624888.21204 28706.7486341,-3624879.27558 28700.595134,-3624779.35042 28626.4908264,-3624711.03438 28569.1409951,-3624643.56647 28551.1830578,-3624509.7546 28593.8217633,-3624387.89191 28595.2896858,-3624384.37929 28591.4728498,-3624376.91527 28517.8345202,-3624249.60616 28469.8521235,-3624140.06139 28421.00007,-3624072.51645 28448.2890758,-3623939.29486 28533.1098873,-3623866.04116 28569.6702243,-3623707.74053 28556.278311,-3623498.40174 28410.1329485,-3623368.749 28309.5496597,-3623302.17186 28293.7080788,-3623208.83298 28401.8101512,-3623111.8733 28524.4423717,-3622963.29208 28550.3144218,-3622922.06587 28528.651403,-3622737.79709 28504.1191565,-3622595.54621 28516.5072364,-3622583.43645 28331.9928086,-3622412.13833 28351.8801251,-3622179.00287 28347.8722732,-3621984.57618 28343.647576,-3621766.15602 28284.3494238,-3621593.72516 28232.6939356,-3621437.22209 28250.9955123,-3621305.08174 28261.8787735,-3621126.51732 28258.2313285,-3620916.59027 28229.0324781,-3620783.37962 28208.695684,-3620635.0917 28213.7358178,-3620363.09788 28146.7627665,-3620198.73455 27886.2653827,-3619944.63738 27781.9486523,-3619686.1291 27776.9304647,-3619545.70099 27818.1257133,-3619429.85059 27926.6234321,-3619431.86971 28026.9290177,-3619495.45118 28079.5953995,-3619597.95576 28147.397753,-3619715.82059 28240.7172642,-3619725.47534 28327.5114189,-3619649.20544 28298.9951363,-3619508.48997 28341.4852452,-3619314.64293 28305.8686946,-3619134.99901 28240.081338,-3618908.13666 28174.4040818,-3618665.77616 28122.2123796,-3618532.77296 28116.0472602,-3618431.34792 28209.1845401,-3618448.50326 28293.8541036,-3618496.72916 28370.4835924,-3618568.02328 28483.3091309,-3618772.4649 28543.7908329,-3618882.39742 28622.2996564,-3618829.69816 28608.636505,-3618728.34101 28603.6142296,-3618587.41337 28706.9885358,-3618465.00291 28756.58403,-3618310.58449 28798.7526342,-3618108.74231 28795.2848402,-3617890.81548 28868.9174965,-3617768.67388 28901.9382554,-3617577.91232 28990.0264143,-3617451.14118 29016.8774972,-3617241.43908 29021.3737275,-3616991.94654 29071.2198122,-3616837.52622 29236.5533031,-3616739.55235 29434.4564892,-3616760.76142 29526.6718382,-3616620.45606 29561.8090315,-3616387.18414 29550.2724355,-3616161.33215 29676.4253829,-3616070.21111 29779.7281543,-3615939.80404 29852.5682842,-3615785.17673 29971.5833381,-3615678.62336 29951.5793184,-3615483.84196 29838.7563458,-3615279.40003 29856.3827132,-3615155.26518 29943.7153921,-3615055.49659 30059.7065443,-3615112.4388 30174.4731773,-3615199.88604 30236.5093687,-3615149.83605 30263.3561467,-3615022.61876 30265.4823911,-3614898.12401 30267.9687612,-3614758.12906 30254.3024514,-3614656.27235 30271.8047486,-3614490.64694 30334.5200624,-3614349.60884 30411.6392588,-3614225.93745 30404.131225,-3614114.02718 30414.442419,-3613982.46003 30463.603089,-3613835.0456 30506.1008768,-3613641.70035 30596.5690222,-3613362.93935 30679.2514275,-3613107.74406 30730.7513096,-3612859.32872 30765.8956575,-3612626.55781 30785.6120745,-3612401.42452 30781.1102876,-3612207.00349 30869.0493237,-3612091.23365 30918.0374719,-3611952.31955 30919.6944066,-3611858.82311 30935.3698595,-3611712.21083 30854.5476686,-3611646.95217 30852.2733675,-3611560.98965 31004.8860151,-3611438.13855 31065.0537918,-3611347.11435 31080.8330594,-3611211.99893 30932.3496673,-3611016.37565 30930.5731356,-3611013.39225 30705.3070476,-3610923.4398 30598.1296543,-3610845.92077 30592.969058,-3610661.50352 30587.4660821,-3610661.05319 30586.9301989,-3610657.0588 30477.9965875,-3610551.06106 30472.3204811,-3610392.64327 30531.6805917,-3610184.14942 30563.4379166,-3610046.89029 30611.6635307,-3609961.97256 30698.4595001,-3609885.70574 30715.2614133,-3609808.56958 30701.2363605,-3609722.21289 30702.9659591,-3609636.71412 30697.7742934,-3609504.28692 30698.3128076,-3609425.2976 30655.3148001,-3609174.73404 30742.7371645,-3609056.96995 30887.0987127,-3608933.69431 30905.5963679,-3608850.54414 30856.9257343,-3608774.99725 30714.0779317,-3608788.78072 30639.5040944,-3608778.9541 30622.2797059,-3608698.12505 30684.4973061,-3608612.58166 30753.9698724,-3608499.9783 30788.9140281,-3608355.69206 30825.9346598,-3608164.3964 30669.9859172,-3608027.82703 30629.66012,-3607935.20818 30648.9783852,-3607776.56538 30809.574481,-3607679.63893 30853.0950676,-3607571.76843 30780.6459177,-3607436.94695 30773.6420446,-3607353.02645 30849.5875606,-3607320.8493 30966.760047,-3607314.79603 31040.5730829,-3607295.63554 31060.2572022,-3607260.96523 31061.6046647,-3606994.00571 31164.8420477,-3606967.08208 31273.0683097,-3606994.60281 31451.809653,-3606942.00489 31555.5051533,-3606827.09466 31548.6273797,-3606757.17042 31574.4372827,-3606625.46435 31654.0919789,-3606533.26603 31770.7688553,-3606527.71744 31910.9435983,-3606522.45741 31928.8952032,-3606406.31908 31954.200886,-3606274.11782 32048.2356285,-3606252.27628 32196.7010824,-3606223.94643 32283.3196518,-3606155.68095 32285.4808666,-3606034.68578 32272.0359047,-3605929.32783 32269.3712046,-3605855.36663 32312.8032438,-3605820.98288 32370.8381504,-3605853.95429 32441.9395169,-3605866.81221 32508.6752849,-3605727.73995 32600.6557459,-3605616.43512 32719.9576762,-3605485.88853 32842.7676255,-3605356.3103 32987.412004,-3605320.01694 33077.5223488,-3605278.71502 33199.0248718,-3605226.13313 33293.4631366,-3605165.79623 33497.4314257,-3605083.47901 33635.2701665,-3604985.25974 33730.5356528,-3604877.92518 33747.5841636,-3604800.2878 33682.923992,-3604725.38444 33594.7974738,-3604653.69135 33511.3190919,-3604542.9644 33551.4089132,-3604442.62448 33581.9757344,-3604283.88209 33559.2988102,-3604124.61841 33534.7662659,-3603981.3681 33550.9182972,-3603831.75342 33632.9586464,-3603615.56019 33613.1404337,-3603412.77962 33734.5784902,-3603158.24033 34089.0460436,-3602689.65152 34005.0842282,-3602107.5249 33745.2839329,-3601594.96268 33743.2530856,-3601591.48163 33655.8396796,-3601487.78767 33486.8644558,-3601291.84473 33174.579153,-3601141.67911 32985.2437537,-3601044.39869 32689.3106953,-3600989.56677 32466.4014051,-3601022.56165 32102.9672395,-3601300.26994 31964.3332585,-3601421.49091 31712.8126444,-3601664.20187 31485.5443364,-3601907.69523 31359.7690959,-3602041.29877 31244.802229,-3602237.29311 31034.0011443,-3602282.67795 30813.1488614,-3602155.18678 30648.3722647,-3602399.1197 30367.9701546,-3602459.62717 30064.6802334,-3602170.40764 29870.7318128,-3601810.21894 30252.3503266,-3600912.96363 30613.4069338,-3599757.44449 31350.9717327,-3598053.15594 31929.0823359,-3595875.39566 32486.6593743,-3594808.10755 32870.9434669,-3594066.81058 32920.5761966,-3593133.54935 33095.2239142,-3592511.60782 33690.0306408,-3591497.48408 33757.3386088,-3591281.9244 33752.6475841,-3591260.47061 33695.3511914,-3591002.53413 33668.2148693,-3590651.34606 33610.7397215,-3590345.4203 33739.3341462,-3590051.32797 33694.5084242,-3589790.28011 33759.5733864,-3589631.22951 33824.5177803,-3589458.68269 33926.7198504,-3589287.80248 33942.0619554,-3589102.7017 33872.2129395,-3588866.37253 34070.8217018,-3588687.13236 34180.6168278,-3588638.66048 34242.0227679,-3588489.64098 34229.0026042,-3588291.29641 34058.8519121,-3588102.85408 33937.3578934,-3587988.96215 33777.2856213,-3587949.40038 33617.9852135,-3587884.33664 33459.0013075,-3587770.77944 33399.8112169,-3587608.33985 33428.155193,-3587423.62234 33566.0143562,-3587326.90932 33736.7582687,-3587441.86142 33871.5563785,-3587506.14447 33960.4198958,-3587408.86947 33950.0606176,-3587284.4863 33878.2360341,-3587134.6572 33783.114114,-3586923.04815 33762.6236063,-3586699.77455 33815.6087175,-3586503.3394 33906.7843445,-3586245.0752 33955.8020978,-3586024.18033 33785.4960953,-3585762.2519 33598.5294863,-3585509.97005 33564.7309342,-3585335.80534 33703.0150157,-3585202.59636 33780.4944625,-3585005.94256 33722.3322631,-3584846.49247 33642.0154953,-3584669.24348 33593.20402,-3584409.22903 33608.7631284,-3584248.12102 33636.7208139,-3584075.90449 33626.367242,-3583952.02059 33578.7379325,-3583852.46466 33406.4098039,-3583812.01017 33211.3429157,-3583660.2797 33152.9673,-3583448.84066 33032.0053373,-3583310.44612 32923.7188304,-3583135.94518 32811.5582613,-3582975.47603 32628.4867421,-3582963.61155 32160.852478,-3582938.78833 31927.5574695,-3582900.87683 31771.9703967,-3582747.79324 31590.6355946,-3582594.43925 31391.489791,-3582293.77092 31236.9079003,-3582029.19809 31267.2647261,-3581733.48112 31359.3917107,-3581413.21771 31451.7534155,-3581259.42203 31301.9410932,-3581165.27506 31192.0603532,-3581064.27318 31232.6233696,-3580903.9405 31406.7084281,-3580832.90118 31595.5501346,-3580650.7506 32464.452626,-3579788.16326 32869.0384482,-3579301.14775 33478.0842821,-3578420.8852 33728.2579684,-3578277.18386 33929.7404852,-3578082.92583 34056.725106,-3577887.33163 34184.491552,-3577667.23519 34325.9846013,-3577360.53292 34443.146292,-3577016.05449 34468.3053561,-3576697.39018 34471.9582135,-3576630.3702 34472.8734395,-3576620.86383 34470.6933373,-3576544.39752 34475.4971797,-3576494.36412 34493.003124,-3576298.74486 34490.3178946,-3576249.77789 34676.838875,-3575469.26392 34742.1401625,-3575167.23931 34758.338955,-3575105.6067 34841.690231,-3574781.42573 35022.9834591,-3574255.91141 35079.9971472,-3574089.93538 35204.9996022,-3573867.86541 35372.1255138,-3573632.42363 35543.6381785,-3573412.44021 35795.0945874,-3573075.26849 35915.5819703,-3572935.72394 36163.1661802,-3572669.07409 36207.6860466,-3572559.69911 36262.5185322,-3572485.72586 36438.1835701,-3572057.74588 36467.3528576,-3571627.06775 36470.6668832,-3571578.04752 36407.586604,-3571286.16241 36349.3708321,-3571091.71571 36226.9396798,-3570730.87001 36101.1044198,-3570521.52605 36018.1469542,-3570383.78802 35735.0262274,-3569941.88265 35528.2375518,-3569595.28148 35256.0282693,-3569171.77426 35092.8745444,-3568925.76652 34928.6230026,-3568443.31055 34902.9509805,-3568367.05196 35100.1089614,-3567261.50017 35237.9881495,-3566489.41469 35315.1481819,-3566057.80713 35400.6447076,-3565579.63388 41855.4209167,-3565577.95452 43914.4993174,-3565577.22599 43956.806669,-3566234.21633 43975.9967481,-3566538.48361 46587.6698173,-3566563.857 46582.4523839,-3567725.15174 46561.000009,-3572383.81643 46545.5342985,-3575710.20616 46538.0883466,-3577263.41918 46543.0868113,-3577263.37476 46542.6180599,-3577266.87812 50336.6817404,-3577430.62035 50696.1017422,-3577431.42652 51156.1486074,-3577449.33458 53128.9983976,-3577431.31252 53293.9437659,-3577429.84773 53321.9566788,-3577432.09833 53551.3982563,-3577432.06033 53547.5105507,-3577444.59168" style="stroke-linejoin:round;stroke:#000;stroke-width:1px;fill:none" /></g></g></svg>