<svg xmlns="http://www.w3.org/2000/svg" baseProfile="full" height="112443.975373" version="1.1" viewBox="4191.469104,3545821.870372,109192.579832,112443.975373" width="109192.579832"><defs><style type="text/css">polyline,line,rect,path,polygon,.polygon{fill:none;stroke:#000;stroke-width:1px;stroke-linejoin:round;}</style></defs><g fill_rule="evenodd" transform="scale(1,-1)"><g class="hogares departamen mujeres departam_1 toponimo_i tot_pob varones viv_part viv_part_h" id="14105"><polygon class="_14105" id="None" points="40364.7596039,-3545897.43256 43157.9776542,-3546528.6603 45037.9917374,-3547024.11548 46922.3662157,-3547400.05234 47396.5757487,-3547525.58817 48889.1238832,-3547857.98001 51459.0399903,-3548430.65671 53144.5264138,-3548768.12006 53872.2062311,-3548915.64996 54730.7938342,-3549090.84491 57504.8102242,-3549709.85559 60065.2241412,-3550261.67754 61114.4739434,-3550468.96773 60584.7451525,-3553217.08714 60582.2366599,-3553230.62292 63413.8827146,-3553836.541 64084.044809,-3553983.56535 64383.9201605,-3554044.2098 64627.4320131,-3554096.35881 64762.7949936,-3554121.94243 66115.7080106,-3554478.72133 67657.4815398,-3554652.27384 71854.8520505,-3555572.72303 73797.3745645,-3555977.49354 75576.2788195,-3556370.1668 77173.9279476,-3556629.14778 76693.1759838,-3558891.97523 76644.5102752,-3559134.15709 76382.9780339,-3560473.29513 76387.9904391,-3560474.20544 82537.5612977,-3561716.54548 91582.7939235,-3563697.24338 91672.0532677,-3563716.14136 92803.5350886,-3563952.83451 92767.8996932,-3564027.90278 92806.6683098,-3564888.96925 92808.6925578,-3564890.432 92809.110773,-3564899.91636 92929.2461465,-3564983.70849 93394.5434713,-3565346.62248 93371.5458898,-3565514.38544 93170.1937214,-3565723.78334 93257.1754371,-3566162.85527 94397.9325353,-3566570.71198 94727.4825318,-3566196.18043 95761.8538981,-3566423.08619 96187.0919143,-3567230.80511 96870.7333848,-3567385.50573 97257.0382178,-3567000.4795 97678.6085416,-3567067.92062 98006.0102714,-3567303.88414 98026.5694182,-3567575.27316 98518.4124062,-3567703.90666 99052.8829628,-3567687.41326 98420.1995073,-3567209.10252 98647.9811177,-3567025.71749 99506.3226324,-3567608.91836 99393.3589914,-3568321.77643 99662.1270881,-3568884.47833 100430.87675,-3568713.45367 100894.009432,-3568801.13039 100986.930049,-3569644.19592 101362.846716,-3570417.28508 102393.990078,-3571644.27226 102779.69923,-3571844.71168 103424.046927,-3572178.91481 103749.049367,-3573584.79043 104849.191881,-3575067.25653 106098.770624,-3576273.79747 106876.973596,-3576635.5556 108038.161416,-3576443.51537 109567.256493,-3576729.43833 109728.462418,-3577240.05321 109581.158544,-3577564.86084 109195.884135,-3577710.09707 108326.213441,-3577344.48786 107657.544956,-3577452.32227 107472.165625,-3577672.91706 107006.546578,-3578228.69126 106752.609147,-3579015.96196 106656.89749,-3581040.70424 106900.569286,-3582069.84388 107380.048184,-3582178.65892 107600.105302,-3581844.54887 108154.51009,-3581911.56489 108380.987402,-3582202.22684 109168.814769,-3582697.14049 110433.802801,-3582710.98908 112999.202087,-3582612.68112 112442.100365,-3585395.82267 112357.390867,-3585797.9319 112255.601817,-3586278.26833 111773.049722,-3588562.60627 111609.936788,-3589369.21746 111276.845077,-3590919.13276 107169.402271,-3592184.65156 101822.564141,-3594287.23946 101478.334167,-3595924.39718 101048.908201,-3597697.97007 101051.423031,-3597698.9239 101119.634144,-3597714.18148 101389.250331,-3597776.2688 101095.976689,-3599522.4213 101011.232122,-3599504.46502 100958.305567,-3599491.93036 100626.14677,-3601130.3936 100557.130738,-3601500.29469 100721.217779,-3601541.29762 99983.732066,-3604995.40727 99583.9894837,-3606691.56575 94922.8863034,-3605747.12453 94786.8607462,-3606527.88997 94285.2129959,-3609109.17816 92696.3565361,-3608763.71246 92500.6276012,-3610068.6187 92000.0355343,-3612512.06411 84975.1337429,-3610962.51958 84622.9845599,-3612513.13084 84430.2452767,-3613374.92136 83829.1335154,-3616060.14331 83801.7967627,-3616054.14369 82149.9292153,-3615740.33627 80567.7753732,-3615373.29873 80081.3968072,-3617303.60725 79805.8607638,-3618475.19347 78871.0468055,-3622838.29742 78779.1289883,-3623224.17176 78391.3441274,-3625048.82626 78385.314376,-3625046.93734 77526.049148,-3628967.10231 75583.4565211,-3628525.30083 70784.4001631,-3627465.40769 70782.7881955,-3627472.93167 69965.0101973,-3631339.589 69409.0544038,-3634489.02283 69132.9721695,-3634446.58718 66254.6068919,-3633770.03148 63880.9944575,-3633224.15892 60302.0714142,-3632496.83818 60370.0653269,-3633102.7119 60542.8181081,-3635029.33189 60624.3871205,-3635557.0076 60814.156375,-3637017.61372 60865.0974983,-3637701.24802 58390.4418699,-3638210.08593 58385.82394,-3638217.1658 58369.7951768,-3638242.44258 58208.1592617,-3638421.28119 55730.4904188,-3639438.37891 55312.0360415,-3639358.56491 54422.1340782,-3639142.93568 53405.5654419,-3639133.49277 52771.3399731,-3639128.0694 52166.8877465,-3639659.28933 52171.5020788,-3639665.70138 51942.5912972,-3639868.76098 51938.4727465,-3639875.83204 51915.0778334,-3639908.2402 51821.2554447,-3640079.35328 51818.5899667,-3640083.8993 48837.9026021,-3640815.88723 47167.6731811,-3641190.66585 45061.4346222,-3641717.32546 45074.2264918,-3641692.60527 44744.1113429,-3642018.95596 44526.529901,-3642199.83117 44525.5127238,-3643403.70664 43681.3991226,-3643386.63133 43607.082402,-3643846.24587 43444.7226281,-3644164.04395 43289.0268764,-3644792.0582 42985.5126674,-3645179.40077 42704.422752,-3645316.96499 42463.1624814,-3645514.77053 42170.8894261,-3645751.48866 41919.406745,-3645909.50266 41698.2724695,-3646087.45222 41585.8724331,-3646253.92089 41533.6697758,-3646610.69211 41540.3395377,-3646797.9743 41481.5797477,-3647000.94453 41414.402811,-3647235.55266 41289.7032806,-3647535.67929 41060.6432241,-3647703.78164 40717.5384128,-3647879.96549 40448.1591769,-3647974.84286 40236.1752279,-3648147.63184 40149.3842036,-3648197.69364 39144.7504344,-3649092.61868 39055.0835468,-3649368.12228 38829.3580141,-3650060.40967 38452.3574738,-3650610.53685 38120.4056943,-3651150.84703 37052.9971675,-3651715.10732 36782.5829303,-3651862.98519 36513.9595375,-3651985.84258 36142.3276488,-3652228.52862 35577.8841324,-3651998.4671 34610.5138053,-3651529.88748 34208.3783558,-3651512.25291 33773.3291118,-3651512.21203 33503.9155005,-3651510.1417 33102.9283847,-3651596.4377 32506.8986457,-3651771.26166 31182.660732,-3652313.24373 30893.3073919,-3652300.54306 30404.7651165,-3652136.05336 29775.0594939,-3651713.25812 29715.5829993,-3654309.20969 29615.1543498,-3654338.03535 29600.9387232,-3654817.58706 29589.9508746,-3654927.24059 29320.9562903,-3654921.16761 29313.9525177,-3654920.79598 29282.1535984,-3655340.69663 28654.1543079,-3655175.76482 28080.3863499,-3654983.85013 27134.6849331,-3654554.84111 25934.8415611,-3654604.27803 25065.1684704,-3654616.18725 23780.2426325,-3654960.55912 23773.598135,-3654966.17844 23771.6270257,-3654967.71389 23279.9550805,-3655330.0654 23101.704805,-3655462.77431 22850.346362,-3655656.29717 22401.0349181,-3656080.3523 21771.9562171,-3656253.79761 21471.009924,-3656373.25896 20966.1249312,-3656505.44816 20123.9226301,-3656695.28914 19865.2051216,-3656514.09297 19852.7140551,-3656514.32148 18677.8159235,-3656550.30796 17736.4566143,-3656593.51697 17791.4968532,-3657143.30684 17248.2533265,-3657132.75202 17176.1458311,-3656688.23428 16865.5552703,-3656745.39625 15236.2214744,-3656790.68979 15234.8490982,-3657166.58102 14473.1265292,-3657208.00284 13750.4140004,-3657237.21466 12762.7046308,-3657302.76107 12585.2302809,-3657314.50363 11952.7060021,-3657356.06005 11904.0227803,-3657290.47281 11204.3581569,-3657364.24589 10633.0518517,-3657665.0955 9980.93066647,-3657674.0207 8652.42393735,-3657362.91918 7352.01487514,-3657194.752 5864.93353681,-3656946.01774 4835.89600227,-3656789.87631 4420.47351302,-3656732.48691 4191.8192887,-3656788.64915 4270.29759201,-3656747.72714 4273.75884418,-3656745.6645 4276.4256369,-3656289.75398 4291.8269015,-3653520.31906 4332.5618311,-3652014.04059 4356.17442075,-3650226.16638 4356.63602113,-3650196.66718 4368.56310131,-3648329.0361 4382.36777571,-3646083.49584 4391.68723822,-3644633.28896 4395.13654145,-3644095.39851 4356.6001638,-3638929.27284 4365.70583403,-3637519.56879 4379.61829944,-3636662.59748 4388.80736306,-3636095.61723 4417.18219327,-3635814.1943 4430.76504611,-3633452.73014 4434.76239777,-3633452.65754 4539.26322836,-3627711.68671 9806.4964582,-3627688.6415 10560.1968257,-3627645.98243 11490.5788357,-3627617.11235 12934.8315757,-3627633.40049 12950.1955614,-3626317.12197 12945.1462761,-3625666.46134 12968.8739955,-3625017.77846 12714.8133633,-3625022.88323 12754.8356837,-3624307.92985 12735.3506878,-3622528.96211 12779.6167522,-3621730.46571 12847.133466,-3620518.2079 13052.7292412,-3617406.68637 12962.4396793,-3616283.25489 12973.7191391,-3615690.78048 12973.2886605,-3615680.79213 12921.2749783,-3613120.72638 12897.8976461,-3611411.31381 12875.5557739,-3611004.37583 12806.3869456,-3609747.61444 15905.0058554,-3609753.16243 16168.1459208,-3608631.36723 16264.3736455,-3608216.79914 15586.7826389,-3606409.26017 15585.2206653,-3606405.78975 15473.384073,-3605954.98949 15288.0160309,-3605209.63379 15253.5222393,-3605098.30075 16796.9451368,-3605489.30697 16789.7254816,-3599386.45064 17098.0643042,-3599342.91726 17104.6033813,-3594565.27853 17104.7871283,-3594533.78827 17103.4254871,-3594485.83262 17082.5815946,-3593673.54385 17140.88434,-3593650.00561 17491.0744693,-3593501.77273 17495.0445845,-3593500.20202 17828.2483089,-3593366.269 17833.7173079,-3593364.67137 18154.1994052,-3593162.4961 18156.1709941,-3593160.96132 18407.3944692,-3592901.05569 18744.8228174,-3592904.99013 18732.9964075,-3593846.30474 18776.1946668,-3593830.53489 19691.698255,-3593824.5806 21036.330998,-3593836.40478 22540.2893278,-3593940.32403 22460.3794763,-3592204.52807 22476.3057351,-3591226.67435 22567.3238619,-3589364.36374 26027.7768437,-3590075.41414 27361.3665722,-3589502.2372 27740.7078977,-3588848.73436 28120.0777448,-3588196.73295 28120.1303993,-3588185.73719 28130.9812986,-3587049.07898 27823.1264784,-3586923.66057 27621.9041004,-3586836.31115 27686.6943605,-3586617.25178 27687.4079395,-3586615.23993 27774.9822412,-3586370.784 27950.3632462,-3586396.62632 28452.5064252,-3586473.58372 28461.535101,-3586475.42092 29065.8438223,-3584152.18958 29510.0857936,-3582782.38309 29915.7746424,-3581310.3223 30094.6299369,-3580594.96367 28487.7543599,-3580265.88795 28529.1295864,-3579938.80174 28133.3509346,-3579870.91824 30462.2116054,-3569138.88883 30464.7545152,-3569127.34898 30468.93022,-3569109.28311 30858.2486539,-3567245.23098 31449.9281252,-3564409.54546 31598.4372756,-3563698.24176 32064.5451671,-3561442.02807 33329.4421954,-3561681.40062 35175.7505065,-3562030.86852 35793.0950533,-3562137.8276 36893.871322,-3562339.13422 36913.4263361,-3562342.78432 38843.2378633,-3553004.25692 39395.4956123,-3550398.79598 40364.7596039,-3545897.43256" style="stroke-linejoin:round;stroke:#000;stroke-width:1px;fill:none" /></g></g></svg>