<svg xmlns="http://www.w3.org/2000/svg" baseProfile="full" height="94191.5350883" version="1.1" viewBox="6280.469176,3428713.331727,174515.794617,94191.535088" width="174515.794617"><defs><style type="text/css">polyline,line,rect,path,polygon,.polygon{fill:none;stroke:#000;stroke-width:1px;stroke-linejoin:round;}</style></defs><g fill_rule="evenodd" transform="scale(1,-1)"><g class="hogares departamen mujeres departam_1 toponimo_i tot_pob varones viv_part viv_part_h" id="14112"><polygon class="_14112" id="None" points="19480.6746728,-3428779.14279 20001.2075714,-3428953.0925 23810.5679814,-3430228.33733 25883.8557328,-3431008.72124 26675.3304272,-3431230.96479 26676.8379128,-3431231.43856 27066.8110659,-3431341.65968 27183.1111377,-3431376.637 27196.4200431,-3431380.40564 27548.6706472,-3431476.78355 27825.632867,-3431539.9756 28036.3521769,-3431630.79767 28113.0187171,-3431787.40201 28144.6597217,-3431999.25744 28323.0494777,-3432012.17308 28477.3634246,-3432135.95236 28576.0394885,-3432337.15536 28630.5764719,-3432471.1514 28662.4588066,-3432639.02246 28694.6942104,-3432783.89814 28805.2745341,-3432907.43147 28949.5698047,-3432986.40366 29092.7202509,-3433143.85849 29057.49977,-3433332.87733 29156.1852405,-3433534.57848 29277.6970542,-3433668.91717 29466.0621065,-3433782.11147 29701.0599558,-3433672.60632 29834.5772319,-3433662.80592 30013.3266167,-3433653.22457 30101.2771499,-3433754.15799 30223.6823787,-3433766.53883 30322.8741105,-3433867.2781 30433.7458939,-3433935.33128 30612.5461433,-3433914.25443 30735.3031964,-3433860.1611 30913.4919087,-3433861.5841 31057.3125414,-3433985.54126 31145.7357009,-3434041.48759 31346.4236245,-3434043.52172 31692.0401526,-3434002.07491 31771.1487616,-3433880.26849 31827.8695361,-3433735.35991 31851.3842889,-3433635.50265 32052.4152427,-3433570.56414 32230.258938,-3433638.96079 32442.1691038,-3433596.32375 32643.0189315,-3433564.37251 32776.0521989,-3433599.05912 32819.7172785,-3433711.25012 32919.0969564,-3433822.97951 33041.8617386,-3433812.8653 33076.126511,-3433713.32302 33221.5625138,-3433670.33385 33298.8212591,-3433759.95585 33409.1741494,-3433827.0177 33576.7992509,-3433795.63976 33799.475611,-3433797.79494 33933.6527413,-3433754.0007 34111.9586418,-3433733.43323 34279.0061145,-3433712.06056 34424.2692551,-3433702.558 34523.6387787,-3433770.3088 34701.5314593,-3433827.20959 34824.4153886,-3433795.10469 34925.480202,-3433729.39342 35058.8130702,-3433752.58035 35247.7651458,-3433798.79559 35336.6765046,-3433810.75489 35415.663667,-3433710.9422 35528.4937181,-3433545.07906 35651.9107813,-3433456.99385 35786.7232474,-3433290.75192 35855.3822455,-3433113.65731 35934.1801102,-3433002.85407 36145.0101301,-3433071.68099 36390.8194569,-3432995.47851 36636.2928549,-3432986.74742 36747.0737835,-3433020.81841 36767.8939638,-3433199.36728 36945.0006552,-3433312.25297 37212.4036664,-3433314.63741 37490.9954719,-3433328.32297 37711.0744063,-3433354.01198 37802.4566082,-3433364.42969 38104.1832718,-3433299.75699 38327.1982643,-3433234.9428 38544.2872746,-3433275.67565 38710.3494464,-3433400.2448 39033.1695749,-3433414.16716 39423.0197971,-3433417.43861 39702.2537498,-3433352.65499 39969.8246885,-3433321.5549 40159.2017984,-3433334.78038 40403.3953465,-3433426.0183 40603.4098702,-3433505.52458 40769.1513125,-3433640.59217 40991.8359835,-3433687.22463 41269.5691842,-3433767.389 41457.1281314,-3433936.06118 41690.3291678,-3434027.48736 41857.8776743,-3434006.60746 42003.2805741,-3433918.64636 42182.1984313,-3433876.08231 42393.1325419,-3433922.41726 42738.8485137,-3433902.46287 42928.0417437,-3433948.67293 43284.9452829,-3433896.54346 43493.9136674,-3433785.4994 43716.6895043,-3433852.11875 43918.0348509,-3433835.15425 44002.298859,-3433737.25494 44086.6145635,-3433627.86125 44193.2216158,-3433565.0571 44333.6014758,-3433577.12858 44443.111159,-3433639.20463 44510.6223143,-3433700.00589 44628.3144484,-3433685.98331 44723.6635905,-3433622.37405 44841.5364726,-3433604.35069 45023.5179281,-3433594.7167 45099.616244,-3433530.44013 45123.5870757,-3433413.59245 45135.947256,-3433318.93257 45196.7484565,-3433265.91368 45356.0422988,-3433244.67801 45477.4979019,-3433246.08225 45621.5631866,-3433254.5925 45764.7065197,-3433354.56679 45900.2270399,-3433461.66835 46008.9086513,-3433591.71967 46248.2270711,-3433574.60114 46416.5206063,-3433597.18518 46544.4868887,-3433700.91843 46706.7336236,-3433793.06679 46899.4019846,-3433881.6922 47126.7122998,-3433921.74775 47274.6692722,-3433866.22731 47287.5977724,-3433703.09833 47412.6694744,-3433696.94441 47605.8624147,-3433729.09329 47797.7717323,-3433788.24861 48158.1620773,-3433866.4864 48527.8364686,-3434062.99472 50444.1963313,-3434091.41995 50449.6914237,-3434091.32522 51689.4072401,-3434059.96 50199.2653787,-3440861.60479 52205.280991,-3440860.42132 52188.6808781,-3442776.53619 52185.1732933,-3444336.14126 62231.136821,-3444346.76029 62353.0525344,-3444346.6506 75180.9154357,-3445520.81552 96102.1578329,-3447435.62901 104133.059497,-3448080.01275 104144.562262,-3448080.81286 112941.754237,-3448526.08645 115189.386915,-3449159.51737 115261.16213,-3449179.75345 115245.015705,-3449256.95216 115314.399519,-3449312.1929 115391.902104,-3449374.7853 115453.639691,-3449406.68281 115530.41134,-3449484.77148 115545.472183,-3449546.94541 115513.623976,-3449640.39885 115457.845281,-3449779.71865 115347.370674,-3450019.88017 115291.796996,-3450127.72972 115149.513791,-3450391.41821 115070.313428,-3450577.09595 115130.198217,-3450833.78969 115229.47444,-3451028.86514 115173.484096,-3451199.15699 115156.893459,-3451308.33016 115241.91389,-3451386.7745 115264.417878,-3451503.76185 115419.546242,-3451520.55554 115504.761234,-3451552.54499 115504.223967,-3451622.48086 115433.608192,-3451683.64064 115339.746722,-3451729.21977 115277.368724,-3451775.75223 115214.87075,-3451829.77895 115065.89953,-3451952.23311 114991.523662,-3452041.42912 115029.026525,-3452173.64058 115062.955242,-3452286.93374 115100.4024,-3452473.589 115137.932775,-3452621.78299 115128.972819,-3452753.30058 115221.307111,-3452879.06752 115227.936568,-3452987.8385 115225.276668,-3453093.77357 115256.933181,-3453205.60723 115181.902095,-3453372.23399 115071.249751,-3453572.94318 114916.314769,-3453509.69714 114745.235694,-3453523.65035 114643.199963,-3453616.32365 114580.388795,-3453724.30062 114479.250031,-3453739.03992 114401.967372,-3453660.46263 114331.573151,-3453691.1519 114253.929962,-3453721.46737 114153.354314,-3453682.25308 114067.556007,-3453688.73485 113989.302134,-3453727.05265 113927.146679,-3453757.59928 113842.142637,-3453694.63942 113739.009439,-3453651.97295 113638.95393,-3453657.20337 113579.529921,-3453715.67373 113561.216934,-3453797.40678 113560.347339,-3453891.32456 113483.334244,-3453943.60666 113407.005544,-3453948.92554 113365.224026,-3454031.06552 113306.475801,-3454042.07352 113194.718932,-3454035.02001 113147.856759,-3454011.3576 113106.117139,-3454081.50941 113116.982112,-3454175.2241 113204.445702,-3454293.58403 113250.497899,-3454400.17466 113237.439748,-3454511.28642 113178.089431,-3454617.20702 113100.403767,-3454745.92243 112964.653998,-3454838.68297 112852.069847,-3454913.56002 112768.600106,-3455054.36386 112685.214132,-3455171.19112 112566.94969,-3455264.14863 112513.455897,-3455304.53581 112495.640143,-3455357.29087 112541.931463,-3455434.40783 112511.06715,-3455598.77467 112492.466827,-3455721.47146 112501.534915,-3455826.70577 112580.381712,-3455937.7223 112665.670352,-3455988.18917 112704.496361,-3456052.4487 112671.891468,-3456116.44905 112603.684921,-3456158.09078 112502.600161,-3456204.79839 112417.20978,-3456249.23581 112365.374996,-3456342.04075 112381.885491,-3456401.19318 112305.009222,-3456518.90761 112194.377942,-3456576.76998 112141.784729,-3456812.9413 112181.293346,-3457117.94189 112222.496872,-3457261.57849 112304.684167,-3457507.39783 112523.566664,-3457585.51364 112691.962268,-3457647.02375 112783.923163,-3457765.30359 112903.348948,-3457681.8141 112999.983917,-3457652.16525 113139.478297,-3457717.67322 113274.733401,-3457754.78412 113405.92095,-3457830.92522 113504.388549,-3458007.53075 113365.003997,-3458063.39567 113285.003719,-3458173.67214 113337.236653,-3458319.61308 113353.906228,-3458474.16327 113274.562278,-3458665.34485 113484.66457,-3458827.52373 113652.612858,-3458963.96184 113670.219988,-3459172.43928 113694.87205,-3459398.27612 113588.049083,-3459588.93624 113550.287875,-3460146.51478 113662.415383,-3460404.79587 113731.837743,-3460634.34951 113923.661544,-3460836.80088 114050.898571,-3460972.94481 114243.48501,-3461032.53086 114401.344508,-3460990.82688 114556.531482,-3460924.69505 114753.421122,-3460800.89794 114911.527689,-3460744.70529 115197.649784,-3460740.23075 115348.769873,-3460655.68974 115449.060455,-3460620.98101 115598.292429,-3460700.80012 115668.969804,-3460801.46415 115718.42149,-3460930.96709 115840.443356,-3460853.42523 115940.726903,-3460832.70184 115984.441931,-3460761.51622 116056.131796,-3460719.31322 116155.652569,-3460784.01295 116255.813962,-3460813.73843 116385.077619,-3460750.55577 116486.121393,-3460629.92518 116616.26921,-3460488.31061 116753.390168,-3460345.57618 116968.586388,-3460269.41291 117168.269466,-3460320.8839 117332.743772,-3460386.95178 117703.522066,-3460454.4283 117945.279725,-3460656.50536 118285.824445,-3460981.73028 118459.038072,-3461593.55811 118547.468396,-3461939.64644 118857.261168,-3462190.98163 119067.243589,-3462389.61073 119432.940406,-3462524.09665 119778.758879,-3462549.54634 120185.990682,-3462516.48998 120454.073972,-3462509.32894 120759.181385,-3462548.972 120961.675411,-3462661.8219 121144.96207,-3462876.39455 121281.622678,-3463080.78998 121362.182988,-3463405.03082 121393.339383,-3463731.62953 121489.223094,-3464046.61279 121603.730706,-3464326.80921 121710.165623,-3464516.24569 121807.270551,-3464714.83443 121922.490728,-3464878.14591 122079.559763,-3464906.37644 122181.105943,-3464901.11187 122273.496979,-3464872.03323 122347.877326,-3464884.22302 122414.8762,-3464874.06619 122527.237746,-3464887.59232 122621.446981,-3464919.91408 122717.647158,-3464966.18564 122839.004741,-3465080.44311 122995.63258,-3465298.47019 123151.440459,-3465455.07929 123309.90136,-3465620.63179 123387.198559,-3465771.61568 123551.474463,-3465912.59345 123684.22958,-3465978.70418 123775.898272,-3466008.57191 123887.755242,-3466093.52591 123911.470037,-3466179.01673 123904.078314,-3466242.07522 123920.74691,-3466396.11234 123897.408887,-3466991.35457 124144.354663,-3467233.27453 124218.251876,-3467289.42198 124255.953761,-3467317.73227 124363.229893,-3467483.674 124413.993888,-3467616.63888 124512.750592,-3467752.26289 124586.519712,-3467901.30785 124628.125719,-3467995.97522 124741.637939,-3468046.93621 124834.333815,-3468135.71802 124934.576947,-3468342.23547 124963.796838,-3468485.56397 124967.187502,-3468608.36656 125047.114039,-3468680.88913 125069.631575,-3468797.86416 125035.477513,-3468944.29579 125048.192514,-3469071.93001 125156.247493,-3469124.98284 125263.858663,-3469238.47518 125314.624121,-3469371.43842 125408.353917,-3469462.19858 125493.009081,-3469505.17112 125615.557472,-3469544.48571 125783.043852,-3469554.54821 125838.137863,-3469720.89736 125893.980489,-3469844.28194 125917.026404,-3469891.32597 125869.151186,-3469952.59315 125740.92069,-3470031.24487 125656.424081,-3470126.11416 125636.000747,-3470186.40291 125629.393719,-3470365.81558 125627.782926,-3470559.62467 125616.670986,-3470724.13297 125630.313351,-3470833.27115 125676.260146,-3470890.40337 125770.825998,-3470943.19051 125865.651615,-3470925.05332 125969.11723,-3470972.6906 126057.938852,-3471054.0456 126122.902812,-3471156.2939 126160.483869,-3471220.56394 126233.179315,-3471250.75867 126374.642385,-3471300.72852 126485.576246,-3471332.75247 126605.279047,-3471352.13741 126712.811684,-3471303.81222 126854.977579,-3471265.3703 126983.899224,-3471283.59538 127094.776993,-3471298.14011 127133.830523,-3471403.83656 127205.619575,-3471425.05704 127329.226506,-3471467.84674 127504.632687,-3471488.25619 127600.761757,-3471530.52681 127728.13799,-3471531.79796 127818.478467,-3471442.8203 127952.064826,-3471499.41939 128078.95448,-3471558.63247 128209.744469,-3471583.81637 128295.246601,-3471646.74873 128367.781745,-3471582.05476 128410.24066,-3471482.42705 128469.026182,-3471445.44173 128537.74909,-3471462.72011 128623.184436,-3471536.14144 128722.507798,-3471546.89217 128853.702649,-3471538.10811 128955.774008,-3471520.34373 128978.713158,-3471589.86219 128986.81162,-3471696.09769 129022.710165,-3471821.32501 129081.858549,-3471905.19348 129132.530198,-3471961.24234 129124.891186,-3472095.72027 129132.9511,-3472256.89269 129171.053919,-3472308.16679 129211.959795,-3472419.82189 129276.033362,-3472471.14151 129359.362254,-3472481.17208 129520.592375,-3472519.30716 129603.655443,-3472571.2936 129665.166129,-3472633.14559 129606.815844,-3472723.56147 129514.49155,-3472713.18886 129394.104936,-3472740.2638 129378.885182,-3472883.86358 129322.636733,-3472980.2361 129321.833341,-3473077.13784 129302.293448,-3473187.85147 129264.0991,-3473331.35363 129165.610298,-3473496.88567 129113.508267,-3473616.15956 129126.355009,-3473736.79507 129111.748923,-3473815.45971 128962.921428,-3473915.44937 128846.494035,-3474011.87615 128765.322761,-3474096.69927 128627.810455,-3474144.05212 128594.625158,-3474245.51613 128630.786276,-3474342.77084 128565.65444,-3474402.34258 128477.831411,-3474392.3918 128489.621977,-3474623.91861 128447.460341,-3474697.57209 128261.937657,-3474769.73795 128098.778001,-3474906.93765 128065.700816,-3474957.45892 127930.15564,-3475160.10031 127859.494142,-3475274.70654 127766.513855,-3475398.19368 127728.540125,-3475454.2946 127700.191121,-3475546.68537 127667.178968,-3475615.18524 127652.662501,-3475670.37635 127675.132363,-3475712.93395 127717.162579,-3475731.67612 127776.754774,-3475755.10521 127850.931995,-3475755.8048 127882.971687,-3475788.70573 127891.504337,-3475862.47162 127894.950739,-3475973.78356 127917.721549,-3476047.79966 127954.143785,-3476117.08195 127995.17427,-3476164.30877 128045.576211,-3476233.34628 128100.489112,-3476303.30364 128150.663855,-3476359.35994 128192.013926,-3476410.57641 128274.93201,-3476425.60595 128302.534591,-3476476.06416 128357.896489,-3476486.08236 128403.758545,-3476509.75133 128444.683092,-3476579.45383 128513.237546,-3476672.64496 128591.463796,-3476719.22016 128641.628788,-3476803.24401 128626.937133,-3476876.91663 128622.087188,-3476927.94284 128584.674861,-3476987.53001 128616.349511,-3477070.87869 128652.7857,-3477126.67562 128716.953764,-3477169.00186 128813.767666,-3477193.27653 128887.870444,-3477175.4979 128905.459764,-3477281.56705 128937.476417,-3477355.91985 128992.056439,-3477435.37109 129079.606617,-3477486.77657 129111.628139,-3477547.1453 129142.974701,-3477626.00445 129230.520083,-3477691.39364 129276.280305,-3477752.02102 129326.279566,-3477826.5579 129376.695412,-3477882.10942 129469.015547,-3477906.46212 129556.754751,-3477925.90083 129603.130161,-3477907.60871 129663.151944,-3477898.56655 129714.10818,-3477885.18842 129793.050333,-3477844.35139 129839.850979,-3477807.57336 129854.453696,-3477757.3756 129878.057542,-3477665.06894 129883.078058,-3477609.54544 129879.449712,-3477530.7007 129912.456282,-3477447.71841 129931.636028,-3477387.9516 129940.886872,-3477345.83837 129955.402325,-3477290.64804 129964.916397,-3477235.0459 130007.588878,-3477147.89913 130063.736737,-3477074.50018 130142.762445,-3477024.17336 130226.114449,-3476992.74873 130318.610528,-3476970.15355 130411.360064,-3476962.03706 130503.754036,-3476976.40057 130568.263016,-3477009.73075 130609.446473,-3477051.46001 130650.546411,-3477102.67962 130673.164877,-3477153.72342 130696.120423,-3477209.75546 130713.982367,-3477274.36676 130764.248778,-3477321.43039 130814.576395,-3477371.98883 130883.920559,-3477396.24456 130934.423043,-3477456.78816 131026.904137,-3477476.14385 131064.218447,-3477439.53245 131110.524265,-3477388.77999 131193.528857,-3477380.33447 131268.319625,-3477302.11486 131315.212114,-3477256.3464 131338.806378,-3477192.00825 131330.606286,-3477108.74977 131344.618505,-3477039.0859 131400.682282,-3476975.17808 131452.165305,-3476906.3564 131526.696852,-3476856.10891 131614.948282,-3476833.58834 131693.899287,-3476764.78532 131791.182995,-3476687.67082 131932.359503,-3476678.70673 131971.986311,-3476759.91635 132021.423482,-3476830.96593 132122.026798,-3476872.15373 132212.361276,-3476883.05726 132373.791185,-3476904.2023 132483.739281,-3476965.70206 132543.810302,-3477016.5887 132613.650848,-3477097.76813 132632.933692,-3477229.27429 132692.639719,-3477330.60737 132762.770641,-3477371.3294 132853.320214,-3477351.76486 132913.615467,-3477372.68279 132963.617885,-3477433.23414 133003.069988,-3477504.45777 133062.850802,-3477595.80097 133082.490239,-3477676.36087 133162.764317,-3477697.42805 133173.363888,-3477646.80234 133254.002792,-3477617.42312 133314.903683,-3477587.39084 133436.008173,-3477558.80114 133516.962543,-3477518.929 133587.682215,-3477479.23617 133568.467485,-3477408.65724 133488.018842,-3477377.60491 133499.058294,-3477266.54365 133559.568745,-3477256.99404 133630.397323,-3477237.77505 133690.907713,-3477228.22547 133771.936778,-3477178.36424 133822.61162,-3477149.01079 133883.811414,-3477079.02137 133964.66556,-3477019.17531 134045.470191,-3476999.28242 134176.55907,-3476970.5186 134268.006099,-3476930.96274 134378.317704,-3476942.01556 134478.769613,-3477003.18111 134629.49684,-3477054.97634 134719.888901,-3477126.30584 134749.49613,-3477177.22555 134839.489046,-3477268.53786 134919.537667,-3477319.57286 134999.73575,-3477350.62922 135080.539652,-3477330.73627 135171.745018,-3477291.68403 135262.177449,-3477322.5611 135231.441176,-3477392.51574 135210.382964,-3477473.28766 135148.968619,-3477573.74362 135118.232457,-3477643.69839 135157.675279,-3477714.42146 135207.835158,-3477755.49226 135278.114242,-3477776.23466 135267.681094,-3477836.34518 135276.910934,-3477907.098 135317.077194,-3477947.84435 135387.066223,-3478009.04291 135427.298425,-3478039.3007 135446.912244,-3478089.89559 135445.867373,-3478201.2795 135475.532062,-3478241.21091 135515.557782,-3478302.43484 135565.335658,-3478392.95226 135604.687217,-3478444.19998 135594.329077,-3478494.32116 135543.664025,-3478524.17401 135522.856229,-3478604.94157 135572.92413,-3478655.00264 135633.152418,-3478686.40794 135713.275774,-3478727.45246 135803.383945,-3478768.32194 135884.081089,-3478799.36838 135893.486446,-3478880.10563 135933.078982,-3478930.84944 136014.131661,-3478910.9512 136075.254741,-3478850.95131 136165.735797,-3478841.87458 136267.240213,-3478792.15373 136377.409743,-3478823.68228 136467.51189,-3478935.4654 136538.76876,-3478855.31237 136872.587182,-3478697.14721 137115.939114,-3478477.64503 137400.420751,-3478268.4096 137714.110023,-3478130.0759 137993.085767,-3478119.69472 138338.79053,-3478155.58605 138609.898338,-3478209.26388 138828.730435,-3478286.32969 139006.091155,-3478362.12439 139182.461392,-3478466.90038 139302.447971,-3478645.57391 139347.760496,-3478837.54106 139290.447343,-3479000.84467 139195.087976,-3479158.8228 139105.229006,-3479317.20414 139015.125434,-3479433.14245 138930.277103,-3479535.50544 138896.117874,-3479666.44345 138895.175347,-3479769.33299 138894.311695,-3479876.7156 138874.797045,-3479988.42037 138817.844688,-3480086.79897 138812.142312,-3480188.77331 138792.557883,-3480296.48436 138744.578689,-3480408.18918 138711.261259,-3480501.65907 138626.755261,-3480566.56322 138611.405836,-3480673.70084 138628.926897,-3480832.69725 138576.459412,-3480930.49841 138556.954418,-3481042.70289 138518.894661,-3481107.79136 138443.628978,-3481158.55111 138419.55209,-3481209.41153 138430.723817,-3481319.57976 138410.549148,-3481436.29068 138335.279351,-3481529.49859 138269.070155,-3481612.55987 138254.238343,-3481720.68766 138314.409313,-3481763.07825 138398.477602,-3481787.07147 138421.451251,-3481815.63264 138425.590233,-3481894.96236 138411.257432,-3481946.1513 138369.129382,-3481964.36926 138273.873382,-3482085.39462 138250.475578,-3482132.2483 138249.872055,-3482211.66138 138271.98822,-3482305.15783 138313.924764,-3482389.81671 138340.950298,-3482492.71524 138409.93354,-3482610.35802 138521.710135,-3482690.79412 138571.796969,-3482798.78072 138594.246668,-3482911.24763 138634.997815,-3483056.35255 138690.576479,-3483164.24246 138633.127304,-3483262.63155 138544.199709,-3483331.61047 138463.676602,-3483438.39522 138397.053728,-3483568.9065 138344.667208,-3483671.20219 138367.454402,-3483760.1921 138394.310409,-3483867.5878 138404.193321,-3484003.74669 138366.258591,-3484104.2905 138351.23677,-3484229.90051 138345.80098,-3484346.85254 138302.909271,-3484449.48118 138273.917195,-3484547.37114 138230.609306,-3484640.51888 138164.913172,-3484681.62445 138127.275444,-3484742.21245 138093.540831,-3484840.18599 138059.964231,-3484947.1458 138040.146884,-3485041.37911 138038.694032,-3485200.21012 138056.980516,-3485288.77977 138032.823396,-3485377.59618 137994.682861,-3485452.1762 137938.571657,-3485456.15901 137914.50519,-3485507.51979 137886.024622,-3485563.45269 137843.727338,-3485614.63466 137795.918183,-3485707.36289 137725.148077,-3485786.51202 137668.435582,-3485869.90856 137639.449426,-3485982.28165 137624.690392,-3486065.93935 137637.997763,-3486141.11324 137646.728036,-3486197.3908 137613.578982,-3486243.4183 137566.463876,-3486276.20791 137542.975924,-3486332.05335 137504.747982,-3486401.64163 137447.961785,-3486495.02774 137363.210723,-3486517.49288 137289.299751,-3486474.84644 137227.847185,-3486515.87868 137220.139246,-3486602.90846 137219.371729,-3486672.83684 137256.231489,-3486752.59056 137218.262082,-3486822.67398 137175.794483,-3486878.3542 137123.417481,-3486952.68632 137104.079459,-3487059.89654 137084.581985,-3487129.65515 137032.467161,-3487190.49922 136985.666833,-3487212.79655 136915.339329,-3487203.54669 136854.808436,-3487197.62019 136779.216843,-3487272.36111 136741.412994,-3487323.46508 136708.177722,-3487392.96628 136726.232401,-3487454.07408 136768.020686,-3487473.31452 136824.295684,-3487492.7994 136861.578372,-3487525.60272 136870.050917,-3487581.38572 136813.691133,-3487613.83934 136748.264406,-3487613.49253 136702.231023,-3487565.86137 136622.998181,-3487518.81438 136547.985515,-3487527.12592 136481.879486,-3487601.70029 136443.905121,-3487657.30205 136382.620972,-3487736.28627 136344.738102,-3487782.89738 136330.154224,-3487848.07552 136362.365663,-3487876.47357 136352.445547,-3487937.07507 136305.8244,-3487955.37448 136277.344508,-3488011.30872 136281.158806,-3488086.15102 136322.607934,-3488142.852 136378.705601,-3488194.80053 136368.441036,-3488278.38033 136372.343382,-3488358.21498 136320.128606,-3488427.55144 136235.885068,-3488450.50854 136170.537107,-3488454.65534 136118.496335,-3488505.51119 136071.191324,-3488584.24995 136010.171217,-3488607.29773 135912.113924,-3488611.52108 135789.54796,-3488727.04237 135699.960141,-3488801.03252 135698.780814,-3488918.41201 135623.263261,-3488983.16542 135555.526089,-3489021.81313 135461.536429,-3489086.89195 135423.058093,-3489198.93573 135440.943341,-3489264.54157 135468.479418,-3489311.00023 135495.599259,-3489418.89237 135489.240526,-3489610.77392 135460.162396,-3489746.1241 135407.782889,-3489834.44179 135351.251149,-3489913.8435 135224.279701,-3489963.52332 135185.722899,-3490071.07442 135203.683226,-3490197.60592 135183.595406,-3490318.81496 135201.894727,-3490407.88537 135275.722614,-3490474.00367 135359.623384,-3490544.93841 135438.437133,-3490638.93511 135517.001289,-3490732.93609 135567.595696,-3490840.91367 135655.660896,-3490907.28 135702.021574,-3490973.38246 135776.522419,-3491021.01052 135840.76467,-3491095.78689 135896.110047,-3491246.62861 135998.322111,-3491279.7848 136001.457577,-3491485.98107 135977.386775,-3491565.31039 135911.265132,-3491638.88892 135841.091796,-3491652.61107 135844.573146,-3491750.93132 135857.960231,-3491844.58233 135932.708465,-3491863.73973 135989.161989,-3491808.30989 136088.068776,-3491753.1304 136176.21968,-3491796.02259 136287.748788,-3491904.42298 136352.166847,-3492031.6322 136351.222654,-3492148.0084 136430.551869,-3492172.07871 136561.344842,-3492126.8241 136696.937936,-3492183.86109 136784.494632,-3492292.18403 139405.026731,-3494470.22887 141611.3067,-3496195.57391 143654.445898,-3499806.86417 144103.042333,-3503803.86562 154225.639655,-3503792.07249 178100.245938,-3503763.62811 179474.059483,-3511222.00193 160821.433111,-3507409.78665 160723.103541,-3515384.91965 160699.834247,-3517269.2206 160638.934205,-3522224.45904 160634.71133,-3522588.03347 160634.472275,-3522616.49852 151334.680387,-3520887.00733 140533.235011,-3518803.90656 140366.856077,-3518771.42043 140355.569797,-3518768.62559 140425.445833,-3518430.78626 140990.074677,-3516069.57333 141958.449623,-3511868.95573 142541.700328,-3508905.73754 142824.255723,-3507397.08774 142831.560383,-3507358.50592 135628.484073,-3506129.55459 134612.512275,-3505950.81755 127738.211427,-3504783.23838 127687.107807,-3504774.15569 110616.843611,-3501861.40661 106344.640887,-3501132.76759 77170.8896686,-3496153.12207 75603.6119159,-3495885.47467 72216.1882764,-3495307.14863 69914.9483996,-3494915.00791 69880.1197866,-3494909.12614 65824.7089609,-3507050.24908 63046.194614,-3506364.3918 61653.7774845,-3506020.25814 61006.0976444,-3501290.82131 60864.166862,-3500256.00911 60846.8366261,-3500250.81852 60285.7411321,-3498765.69861 55223.4653564,-3498750.52879 53299.114704,-3498733.98734 48799.4042067,-3498753.3456 48742.7113462,-3498457.01913 46226.0562899,-3498464.89422 46158.4139634,-3496880.49226 46135.8857397,-3492903.66905 46131.0603878,-3491322.16349 46144.1266129,-3490402.46332 44465.5678373,-3490245.07062 38928.1219159,-3489562.79702 38044.0513851,-3489460.89002 37729.1166268,-3489412.45082 31428.5475335,-3488072.83544 29217.5950271,-3487515.93663 22627.9767232,-3486423.62925 15828.2262162,-3485174.4765 15340.2482413,-3485121.55804 15080.794343,-3485061.1338 14882.9717418,-3484981.13631 14763.8918115,-3484831.28589 14609.3281273,-3484710.04602 14488.7867723,-3484719.15648 14424.0467988,-3484803.7577 14281.8269068,-3484887.7182 14111.8688458,-3484886.19979 14013.7071022,-3484803.4548 13872.3785694,-3484724.4653 13773.0230061,-3484773.18829 13575.4487203,-3484721.67411 13426.9889137,-3484649.30677 13294.0459141,-3484464.21217 13232.0875358,-3484308.36088 13070.2564891,-3484171.75314 12795.0974877,-3484028.13511 12739.6255178,-3483900.15853 12619.6716878,-3483828.79003 12513.3068154,-3483891.13033 12329.3483495,-3483889.3565 12138.5320851,-3483795.73904 11977.0910243,-3483638.63129 11857.6277463,-3483566.75393 11722.7179416,-3483554.6239 11667.2501256,-3483441.14074 11569.1012989,-3483344.899 11470.4481536,-3483262.66055 11358.4894632,-3483134.17328 11316.2566626,-3483091.43025 11310.0128647,-3483006.07296 11246.6640104,-3482927.71389 11098.8295148,-3482876.82496 11000.2429991,-3482755.60004 10838.0315738,-3482739.94925 10796.5543064,-3482626.22026 10818.4367582,-3482505.88334 10840.9502313,-3482393.03249 10835.3438838,-3482244.18842 10871.1023045,-3482145.59998 10872.3679803,-3482018.12722 10830.5092482,-3481925.39668 10753.5332187,-3481882.26225 10654.3090695,-3481853.01226 10548.2027043,-3481858.86928 10434.2235562,-3481900.35051 10307.0186088,-3481871.59058 10172.4134511,-3481905.43623 10066.0562144,-3481939.78673 9987.82441437,-3481967.6469 9902.46535145,-3482016.62391 9731.61585827,-3482107.0832 9653.00131392,-3482184.4313 9553.64377507,-3482204.66474 9440.29180535,-3482210.64886 9312.1943971,-3482259.37514 9199.09137577,-3482293.84412 9063.86806699,-3482306.70896 8994.00978198,-3482241.95769 8902.9263199,-3482121.09952 8812.2072889,-3481978.24315 8741.87165386,-3481900.50494 8671.76438362,-3481807.26852 8616.04138902,-3481736.27163 8630.54668598,-3481665.54412 8638.30266465,-3481580.44028 8547.08253502,-3481494.57084 8441.22968478,-3481486.42847 8369.87384749,-3481521.66541 8249.14402729,-3481548.77048 8121.86125381,-3481586.98622 8114.83101341,-3481585.1101 7774.67791922,-3481540.58634 7370.88965767,-3481572.64891 6896.49149539,-3481568.462 6736.02968407,-3481567.27374 6719.53204893,-3481567.06285 6592.69017298,-3481487.81418 6466.75400426,-3481317.58285 6411.52819383,-3481175.10246 6384.81145441,-3480976.64308 6329.84541799,-3480806.16824 6366.4793947,-3480657.58091 6357.310823,-3480390.83908 6304.02412195,-3480216.33616 6426.48379959,-3480145.21753 6428.68854978,-3480142.67985 6458.51198915,-3480104.67148 6480.23968296,-3480075.30174 6586.9057638,-3479929.98708 6613.37262073,-3479871.54506 6556.09220371,-3478883.41092 6612.47320626,-3474019.21443 6944.17069763,-3474008.91922 6948.99894695,-3473841.89664 6978.21870467,-3472753.78893 7014.50039621,-3471397.15787 7042.51412542,-3470368.0503 7271.42369205,-3470024.18041 7645.03760255,-3469881.20938 8033.07832586,-3469605.53686 8573.55424728,-3468613.47521 8636.68795374,-3468550.89685 8928.44057809,-3467812.58494 9385.9015076,-3465986.30023 9626.29468796,-3465928.12935 10283.7781894,-3465769.72231 10409.8114772,-3465588.09448 10582.8942445,-3465338.67268 10886.1707807,-3464902.55376 11352.4905572,-3462579.33396 10970.9414838,-3460874.64805 11017.9551215,-3460790.3621 10972.6275304,-3460655.7041 11945.7085532,-3460064.9901 12282.1377948,-3457785.03554 12302.4973678,-3457748.69565 14241.6941053,-3454297.35162 14450.0918377,-3453922.38132 14453.5633189,-3453920.82161 15054.3681398,-3453635.99558 17203.1251053,-3453558.18502 17203.4858776,-3453550.18211 17331.625949,-3453546.95663 17341.1270834,-3453475.32166 17401.0697046,-3453027.46856 17632.5317448,-3446405.73326 19561.9512705,-3446361.79547 20293.003554,-3440769.53312 20442.8022802,-3439620.43461 21048.0115105,-3434991.95938 21050.6641603,-3434971.92215 18956.8615469,-3434251.90247 18975.2415444,-3432146.46335 18553.1480978,-3430117.58922 18547.9533461,-3430091.68953 19255.9814693,-3428704.54901 19480.6746728,-3428779.14279" style="stroke-linejoin:round;stroke:#000;stroke-width:1px;fill:none" /></g></g></svg>