<svg xmlns="http://www.w3.org/2000/svg" baseProfile="full" height="73277.8278178" version="1.1" viewBox="6645.578656,3647163.321490,96115.775116,73277.827818" width="96115.7751158"><defs><style type="text/css">polyline,line,rect,path,polygon,.polygon{fill:none;stroke:#000;stroke-width:1px;stroke-linejoin:round;}</style></defs><g fill_rule="evenodd" transform="scale(1,-1)"><g class="hogares departamen mujeres departam_1 toponimo_i tot_pob varones viv_part viv_part_h" id="14147"><polygon class="_14147" id="None" points="54302.7436073,-3648272.88165 54526.0586675,-3648175.38584 54672.031008,-3648065.59241 54651.568698,-3647820.33624 54744.8998773,-3647610.54288 55213.9985881,-3647523.32381 55476.1125235,-3647542.94998 55713.7507179,-3647592.29015 55725.5827129,-3647601.68093 55884.6770119,-3647588.74615 56156.2721049,-3647634.28032 56186.8088174,-3647611.50991 56377.1064271,-3647760.25342 56520.4223664,-3647854.43486 56750.6749662,-3647833.35894 57050.3427819,-3647694.18509 58389.184751,-3648654.34206 58677.48056,-3648446.28902 58706.1425975,-3648465.02516 59356.6804228,-3648902.5321 61406.0784467,-3649863.25058 63463.0228284,-3649144.34997 63651.9091556,-3647532.58518 63912.1643372,-3647347.28562 65565.947423,-3648426.0483 65564.1315737,-3648474.05116 65622.6358927,-3652236.95484 65551.3385082,-3654383.48692 65410.2536124,-3658644.04165 65334.421671,-3662789.03157 65302.8853523,-3664790.73704 65287.1980706,-3665786.09022 67424.2268691,-3665831.12545 71521.5042846,-3665917.8085 73105.6308034,-3665932.38765 76533.0529287,-3665965.68852 78325.8025079,-3665977.8726 80777.5960469,-3665994.56025 80863.5674615,-3665994.77803 84275.9596081,-3666009.23018 87305.3431294,-3666094.64239 89345.8492025,-3666127.57026 89370.8906197,-3664758.38106 89422.1869211,-3660635.53284 89480.3596947,-3657457.24777 89498.8322387,-3654830.60331 89563.2567272,-3654825.02284 89633.9765562,-3654852.37264 89670.3995995,-3654956.00288 89668.7728077,-3655052.48002 89686.910706,-3655123.78819 89763.8820875,-3655151.58115 89935.0006566,-3655254.99298 90170.6162097,-3655443.78777 90322.1927584,-3655569.36728 90636.1435699,-3655660.49121 90771.7487893,-3655816.20293 90815.248741,-3655956.25401 90811.5594809,-3656156.20833 90770.9279164,-3656278.02786 90905.7090126,-3656480.72789 91035.6670592,-3656537.0294 91236.0903652,-3656509.72632 91315.280142,-3656396.05487 91417.0993038,-3656297.67262 91564.5083699,-3656238.86215 91680.3137264,-3656194.83184 91866.6405916,-3656128.67233 92051.3886522,-3656109.0086 92160.5568246,-3656049.54473 92340.3723461,-3655898.97841 92449.5146643,-3655809.02726 92557.3073556,-3655818.54829 92602.1685879,-3655888.11439 92598.4112689,-3656080.57072 92590.434037,-3656359.03049 92720.520398,-3656567.76896 92852.2034871,-3656732.01074 93133.6256416,-3656929.38354 93432.8366516,-3656966.16037 93679.274595,-3656970.4281 93958.8796176,-3656828.95548 94135.8376734,-3656832.35259 94311.4882825,-3656912.23003 94363.6307763,-3657013.21648 94400.7547777,-3657083.85134 94404.3804172,-3657291.23294 94447.8711883,-3657430.28184 94530.0691032,-3657593.97005 94612.8154314,-3657680.18524 94633.6728025,-3657803.44536 94762.9774987,-3657898.23529 94832.9042349,-3657838.12707 95326.7916876,-3657793.17404 95456.7889774,-3657826.48314 95652.0476498,-3657891.68797 95797.8852451,-3657963.33746 95888.6429027,-3657996.00198 95958.9921376,-3657927.39385 96023.4744097,-3657790.36765 96187.2518339,-3657662.93859 96349.3625378,-3657627.486 96494.3402519,-3657714.63674 96515.0198057,-3657845.89402 96496.6682523,-3657999.49521 96517.2756071,-3658122.75648 96653.2466913,-3658263.96545 96843.9184847,-3658374.69181 97020.514485,-3658393.58456 97204.8146141,-3658435.39775 97303.2387173,-3658514.47266 97449.0185648,-3658524.6481 97526.6531004,-3658487.96073 97613.3314938,-3658373.72472 97693.5290169,-3658206.07039 97687.9820024,-3658090.1703 97796.1054961,-3658053.707 97835.9697394,-3657985.37541 97868.6250318,-3657893.61917 97862.7864718,-3657800.71192 97825.6720462,-3657731.07778 97803.3001035,-3657661.31022 97844.3529284,-3657530.99454 97961.1237444,-3657455.96985 98170.0870468,-3657406.59983 98279.5810534,-3657300.65452 98526.4871788,-3657274.43139 98633.6672471,-3657299.45063 98724.5895942,-3657378.09374 98823.26245,-3657457.16646 98997.9831789,-3657517.55894 99154.4647865,-3657440.17639 99319.132512,-3657273.25892 99442.0570694,-3657132.70791 99407.6509809,-3659378.03815 99378.5897258,-3661245.48372 99377.8575041,-3661274.97743 99337.8431338,-3663062.55634 99283.2909136,-3664568.39044 99242.4827534,-3667337.54378 99235.633454,-3667793.40545 99232.1534652,-3667795.43622 99153.3039679,-3667835.63605 99113.1568076,-3667844.99726 99065.1692863,-3668036.34986 99681.0153776,-3668708.44777 100186.205125,-3669275.59615 101087.370036,-3670380.89275 100005.966498,-3671353.31372 99873.8341828,-3671469.46672 99286.0371358,-3671984.09857 97399.6815869,-3673553.62285 97142.8714794,-3673781.3686 97139.4052009,-3673784.89872 95521.187937,-3675163.58643 93241.2331099,-3677170.08511 95498.3327845,-3679852.30572 95981.8157355,-3680446.12485 95779.2075139,-3680479.4666 95502.9781088,-3680523.47829 95256.5171271,-3680598.20439 94922.9241519,-3680763.69063 94714.3088507,-3680796.08828 94500.2308865,-3680805.04588 94303.7537586,-3680825.83728 93950.3359701,-3680900.54413 93684.5844796,-3680997.43874 93506.4684108,-3681058.54542 93285.1969863,-3681128.04417 93136.9073929,-3681198.87372 93031.4105858,-3681276.30849 92974.4923261,-3681391.78245 92972.1706867,-3681520.25071 93035.6482371,-3681711.58991 93038.9110618,-3681849.50306 92981.9650517,-3682016.45617 92937.967447,-3682123.81523 92863.8493921,-3682243.94524 92782.0493448,-3682371.14286 92687.7417881,-3682496.95583 92524.9469018,-3682702.86409 92341.4306558,-3682910.9618 92267.6888735,-3683017.59449 92181.3637779,-3683141.83547 92059.3567253,-3683271.90149 91954.4214109,-3683437.79643 91897.4213373,-3683598.75374 91816.1488324,-3683783.4242 91639.1207459,-3683935.98655 91469.3483033,-3684035.00427 91325.1023587,-3684056.31935 91133.4254127,-3684028.58954 90905.8276831,-3684035.17548 90765.8934212,-3684117.92631 90639.0719875,-3684213.55174 90515.3086692,-3684315.64662 90433.2796782,-3684417.85851 90389.0007567,-3684521.72332 90728.1542336,-3691730.71551 90871.0526883,-3694166.9221 90728.9409906,-3694771.99084 93023.0954666,-3691744.06852 93080.0989033,-3691665.57568 93823.0561272,-3691504.29824 93842.0098198,-3691500.12537 93844.4993672,-3691499.10287 94087.2949596,-3691487.87098 94248.0591909,-3691442.40902 94520.3440929,-3691431.40546 94745.0987671,-3691387.85338 94973.7237544,-3691303.28297 95086.8935197,-3691299.74205 95301.4856274,-3691265.27996 95554.0766333,-3691232.46722 95787.3029085,-3691186.33857 95983.0986661,-3691146.05227 96121.9449368,-3691135.77778 96367.189226,-3691146.51434 96598.770286,-3691220.34969 96774.2662542,-3691255.21822 96964.0019736,-3691343.93235 97062.5097167,-3691376.5109 97243.4748887,-3691408.33012 97425.0823121,-3691455.63668 97639.3517481,-3691440.66921 98073.3673291,-3691435.67301 98508.6364806,-3691512.6294 99580.6115725,-3691968.05171 99558.2305493,-3693877.91425 99553.6777275,-3697175.50252 99523.0295681,-3698456.22247 99507.7444568,-3701855.37285 99584.4961249,-3704367.56295 99584.7789864,-3705664.49443 101708.452275,-3705703.26559 102249.806714,-3705686.7477 102239.891674,-3706180.11842 102242.805892,-3707274.60095 102166.266948,-3709633.2588 102103.239277,-3713064.32129 102104.744632,-3715370.7882 102039.459763,-3717506.45848 102053.326937,-3717974.62367 102026.388743,-3720440.29794 101371.064153,-3720294.99072 100568.801969,-3720123.06769 99664.631402,-3719849.63868 98458.2818441,-3719517.0558 97254.0703103,-3719199.94141 96814.1510322,-3719082.10037 96813.2919168,-3719043.62426 96821.3281731,-3718967.58053 96817.2845356,-3718561.28589 96834.0411606,-3718027.34989 96850.0886569,-3716667.26304 96954.9881427,-3714033.88021 93975.4094181,-3713894.19971 90702.0861619,-3713827.71513 88830.1856987,-3713761.17181 86479.2119242,-3713723.07368 86384.4069559,-3719693.76831 83057.9592622,-3719706.31269 77671.3508059,-3719607.10069 70547.136634,-3719561.0354 70556.4110323,-3719483.47196 70636.4037244,-3719324.27372 70666.0462231,-3719179.54049 70707.8394787,-3718997.70512 70890.9523383,-3718452.16179 71047.2575435,-3718006.83913 71168.1616134,-3717678.31175 71442.1324299,-3716985.96944 71737.0151176,-3716338.4208 72223.3345503,-3715179.7495 72539.6982887,-3714423.03987 73270.9901575,-3712677.28439 73255.74057,-3711869.6795 73254.4330932,-3711782.71896 73274.4312708,-3711325.67687 73309.7898578,-3710261.68372 73352.7471182,-3709450.54121 73353.5797874,-3709432.53918 72631.6001718,-3709410.24626 72623.9293864,-3709526.2811 71917.1126896,-3709495.35 71887.3128636,-3709919.99487 70627.2338594,-3709896.6967 70616.3549191,-3709424.44164 70094.1045553,-3709407.29242 69851.8049212,-3709394.04446 68863.3529834,-3709394.21472 67960.3734917,-3709367.59929 67948.257276,-3710459.39079 67950.9847815,-3711830.46373 67888.0642923,-3713209.6457 67752.0019107,-3713279.38967 67643.6549958,-3713319.38481 67522.3446093,-3713336.00719 67334.1909159,-3713421.23087 67155.2899115,-3713560.85301 67040.1466797,-3713676.38976 66925.1908702,-3713865.90366 66708.0585913,-3714006.38141 66497.0551294,-3714053.32906 66391.1005504,-3714243.25976 66124.356891,-3714531.65734 66067.7745252,-3709270.68223 66156.5987004,-3704856.63281 66261.1056491,-3701563.62515 62832.2971898,-3701451.35001 62932.7216275,-3700878.08211 62950.0658989,-3700726.46426 63016.3704198,-3700139.01625 63096.1489532,-3698872.13522 63109.2840168,-3698535.10878 63114.3348282,-3698188.65968 63114.456929,-3696223.71265 63114.4637049,-3696170.22769 63006.6375904,-3696402.65649 62862.1396028,-3696642.42167 62710.895774,-3696963.72648 62596.2228595,-3697266.69945 62517.2366396,-3697428.38293 62416.8053663,-3697568.27048 62272.3292448,-3697729.05874 62159.7990971,-3697912.04621 62079.3616912,-3698160.21958 61992.229391,-3698359.96834 61914.739299,-3698494.1464 61847.7169338,-3698652.22131 61802.7898228,-3698767.10428 61728.0898817,-3698770.29296 61667.5894834,-3698741.35943 61612.4348815,-3698695.88109 61439.0028382,-3698670.98883 61327.178983,-3698767.99441 61235.8930513,-3698896.80176 61195.8610139,-3699054.62809 61094.9385837,-3699222.51391 61013.126297,-3699348.73479 60941.6034289,-3699425.37426 60847.9469268,-3699432.73701 60732.2851748,-3699411.81063 60612.6917329,-3699316.94059 60521.3797387,-3699226.30822 60402.023165,-3699102.94354 60310.2365969,-3699096.29269 60211.7401112,-3699066.70997 60114.7346572,-3699009.12101 60041.2669823,-3698956.31343 59995.2526586,-3698899.25356 59899.4468379,-3698809.16215 59779.4733893,-3698727.29153 59686.3540518,-3698711.65522 59578.502009,-3698751.63998 59488.7026915,-3698824.94923 59472.5334597,-3698941.56731 59494.3802206,-3699006.8482 59473.8749217,-3699114.00885 59451.5841844,-3699190.19428 59406.2554298,-3699261.59368 59306.6303769,-3699353.48893 59165.1684705,-3699434.77332 59041.8339887,-3699530.38663 58928.3252678,-3699607.41422 58820.0046989,-3699677.89571 58687.8770313,-3699768.59173 58612.211922,-3699829.77426 58521.7458206,-3699912.08793 58459.8205473,-3699999.63672 58443.6055672,-3700111.25712 58441.6402895,-3700223.24584 58467.6514735,-3700333.47665 58503.465387,-3700422.62246 58532.3113502,-3700623.30327 58532.2592265,-3700861.24121 58514.6632517,-3701066.84975 58512.9596925,-3701288.30734 58591.433414,-3701450.03981 58649.6100157,-3701551.97547 58718.2737573,-3701652.81447 58740.5876426,-3701768.57781 58731.766807,-3701760.66141 58555.3382378,-3701952.7414 58358.6560076,-3701981.55153 58075.9346465,-3701976.66561 57793.8062694,-3701927.78558 57538.6816296,-3701907.14856 57321.3492203,-3701892.16078 57136.6163386,-3701888.8687 57021.6325847,-3701887.4316 56951.9254556,-3701863.08198 56901.6198817,-3701801.56259 56856.4794134,-3701730.99777 56695.833957,-3701575.52184 56521.0073807,-3701454.16805 56430.2260934,-3701340.03582 56408.0409484,-3701265.25981 56400.017892,-3701181.35529 56314.1941168,-3701035.68515 56166.043916,-3700907.08628 56156.94081,-3700895.67325 56063.5660681,-3701041.99862 55940.783777,-3701224.58658 55841.496139,-3701298.98497 55644.2190685,-3701344.79585 55490.2354292,-3701477.68496 55334.1231528,-3701596.59739 55083.0097073,-3701739.88159 54818.3780858,-3701853.79823 54508.9355044,-3702257.55747 54374.7881696,-3702589.7152 54268.1299366,-3702786.15261 54224.1383585,-3702867.03932 54023.5055353,-3702874.39192 53850.0967196,-3703041.95375 53604.2685769,-3703135.2033 53407.4615982,-3703205.00553 53054.2583793,-3703173.7779 52871.7953149,-3703145.97114 52715.9553782,-3702996.94735 52657.467775,-3702861.52042 52451.8283241,-3702759.94522 52097.5770755,-3702777.71475 51670.9975743,-3702758.16149 51427.9711144,-3702667.92855 51296.2148488,-3702555.67245 51141.6027087,-3702539.60484 50985.430357,-3702544.04682 50840.1262977,-3702480.40428 50694.2986637,-3702441.26079 50502.5213217,-3702460.5282 50489.6547308,-3702474.6438 50248.8801159,-3702438.87667 50072.8868481,-3702354.02228 49882.4620983,-3702303.29324 49617.1756317,-3702292.74647 49459.2357801,-3702241.21735 49227.7529876,-3702237.35665 49067.9593817,-3702282.82245 48898.2682892,-3702230.90182 48717.0127514,-3702117.60182 48487.2392598,-3702028.24442 48293.737379,-3701915.05718 48040.1247611,-3701788.42796 47723.0241493,-3701769.86071 47493.4129939,-3701644.00922 47373.5411387,-3701519.6438 47278.5601157,-3701384.05093 47293.2054739,-3701156.46615 47188.7337018,-3700967.47259 47121.4446837,-3700636.66704 47185.8845307,-3700442.11531 47201.4217061,-3700284.00697 47155.5986227,-3700112.46795 47036.390416,-3699951.60378 47028.1085556,-3699731.22901 47033.2738517,-3699451.24339 47026.0446879,-3699182.3697 47041.8805349,-3698975.26954 47021.0551875,-3698803.99966 46884.752541,-3698605.30102 46764.1178836,-3698614.91162 46668.9431137,-3698620.78821 46484.8477736,-3698714.46567 46380.4708228,-3698752.42011 46125.3455719,-3698732.77774 45918.2424339,-3698716.69157 45698.1190227,-3698725.22011 45418.5384528,-3698682.80809 45296.2115956,-3698752.92123 45213.5354312,-3699057.11824 45206.7588164,-3699081.17557 45319.0502923,-3699305.09136 45369.2260307,-3699406.60654 45298.3976446,-3699477.74466 45144.1099605,-3699632.63485 45048.6109316,-3699630.51645 44935.4935054,-3699723.54021 45004.246986,-3699969.35311 44916.7603586,-3700077.13735 44913.9781998,-3700236.12901 44812.6454214,-3700441.52031 44686.1524485,-3700683.1363 44707.4741621,-3700853.90312 44766.4902102,-3700965.33461 44652.3608953,-3701165.34562 44656.7310429,-3701286.77947 44532.0880804,-3701430.89963 44362.4000726,-3701677.41417 44390.4242293,-3701843.12038 44511.2455231,-3701988.97384 44364.6352417,-3702027.81951 44530.211829,-3702175.25925 44551.3998952,-3702358.52478 44466.8859908,-3702436.2889 44522.4070485,-3702602.24102 44342.450571,-3702440.43732 44173.6648471,-3702351.51492 44061.8204794,-3702447.02781 44022.0128564,-3702629.35723 43969.0462974,-3702848.3006 43862.5571361,-3703334.18276 43599.9741173,-3703671.03871 43389.1709488,-3703849.94945 43374.0005727,-3704020.55436 43370.6923235,-3704203.54712 43306.0037375,-3704398.10479 43027.2564063,-3704635.63223 42764.2536631,-3704656.55881 42884.2584936,-3704767.92685 43016.5472073,-3704856.18598 43123.2352099,-3705041.16183 43031.9232115,-3705356.94125 42931.3897363,-3705513.33873 42816.4356432,-3705596.88452 42670.7950398,-3705740.70184 42498.6997982,-3705834.77401 42339.1898511,-3705857.24436 42158.0351043,-3705755.43991 41977.2738879,-3705642.134 41850.426593,-3705601.81485 41670.3305968,-3705560.48815 41625.5244968,-3705526.4092 41510.8644232,-3705425.48936 41357.666842,-3705454.89973 41221.5734708,-3705604.12822 41047.9306458,-3705747.20521 40743.6007584,-3705705.02711 40474.5601741,-3705749.00575 40297.2205018,-3705789.6373 40293.735345,-3705791.16922 40082.2244577,-3705839.6152 39809.4867856,-3706078.59038 39731.8424677,-3706034.31681 39655.482732,-3705831.56194 39660.1199718,-3705576.06844 39660.9672412,-3705559.5638 39569.9949462,-3705425.43063 39414.3621874,-3705434.86738 39170.8894892,-3705622.08195 38984.1089516,-3705831.26853 38709.3304116,-3705984.77949 38790.685662,-3706106.00433 38708.8640604,-3706204.74203 38610.1773422,-3706263.64327 38450.2200218,-3706346.10657 38254.5883336,-3706354.91365 38082.3089883,-3706213.0331 37941.5969659,-3706241.32868 37927.9662244,-3706253.95234 37829.8063951,-3706342.84321 37706.8474125,-3706452.95947 37656.3426495,-3706451.4267 37656.0229915,-3706470.92603 37488.8876776,-3706479.96961 37467.5514427,-3706443.1737 37468.8397682,-3706339.1811 37343.5884743,-3706228.35958 37337.2477623,-3706218.42004 37165.2804112,-3706218.50978 37053.9620878,-3706290.02567 36975.9699951,-3706532.70202 36940.3388547,-3706653.00933 37031.1540324,-3706851.13322 37201.7605639,-3706866.05295 37260.2567309,-3707001.98696 37081.1040534,-3707144.11745 37009.7779404,-3707350.73909 36909.6317446,-3707495.1388 36789.3773791,-3707465.25642 36718.8510988,-3707379.92424 36686.3723057,-3707138.26872 36492.1723754,-3706950.59867 36340.4190194,-3707109.47299 36176.3961778,-3706914.52498 36053.6011231,-3706853.17144 35942.77228,-3706977.67368 35890.3250804,-3707171.62368 35786.860638,-3707254.56549 35688.3340301,-3707384.95318 35570.6809913,-3707312.05419 35524.5795281,-3707165.00678 35403.241791,-3707126.13567 35329.5801679,-3707161.31049 35266.1332161,-3707544.32899 35191.43773,-3707710.99016 35095.9677927,-3707685.3776 35049.9674301,-3707576.32232 35064.641449,-3707433.21197 35007.8393193,-3707264.26715 34913.2863441,-3707202.65232 34829.6742239,-3707188.92784 34767.8140469,-3707283.98304 34729.8132002,-3707391.3155 34620.1970408,-3707484.81264 34476.5584963,-3707494.13922 34337.7607631,-3707215.97133 34483.9049536,-3707099.1406 34665.0164223,-3707006.48242 34799.9605043,-3706840.76409 34886.7966255,-3706689.48807 34791.3054398,-3706553.39492 34597.4916176,-3706488.69794 34424.2384103,-3706620.27632 34220.4186499,-3706500.68137 34160.2282861,-3706370.76047 34102.2647848,-3706211.32412 33938.623028,-3706165.84451 34017.0936024,-3706407.57705 33967.5897671,-3706568.50656 33964.1114747,-3706706.01475 33901.3011417,-3706860.56849 33815.2985697,-3706966.84509 33625.8068769,-3706910.1067 33284.5852458,-3706879.76629 33056.2770135,-3706679.91103 32936.4412945,-3706722.51143 32913.162592,-3706854.2041 32813.1771276,-3706962.10996 32665.3291009,-3707056.96056 32421.081289,-3707052.71916 32216.0894873,-3706914.6374 31961.9381756,-3706812.50379 31794.4445489,-3706756.06138 31650.343303,-3706688.40457 31498.0038371,-3706594.82815 31377.8344067,-3706628.43319 31338.7437357,-3706807.26479 31258.0546139,-3706866.50076 30970.0966244,-3707001.14011 30701.1909937,-3707033.62028 30431.8868867,-3707077.10235 30311.8724113,-3706965.22982 30368.8756217,-3706777.23359 30574.6647841,-3706649.85251 30683.3327775,-3706615.8538 30732.8035101,-3706532.4103 30614.5291487,-3706446.5174 30455.6616374,-3706430.98805 30281.170209,-3706320.61849 30331.8410887,-3706177.67359 30417.8496577,-3706071.89615 30562.0181195,-3706038.56951 30575.1793549,-3705920.96719 30453.9745789,-3705869.59547 30233.5611544,-3705902.12661 29985.3958033,-3706123.38355 29739.5980371,-3706222.1387 29480.6387204,-3706222.03146 29264.0799029,-3706266.02536 29133.9143195,-3706191.7399 28963.7683095,-3706308.29341 28795.7394534,-3706329.3426 28711.5977134,-3706339.61842 28590.5099894,-3706409.22624 28485.6820829,-3706263.71773 28355.6836372,-3706153.43614 28205.0526749,-3706190.82193 28103.0480015,-3706053.28585 28045.5273899,-3705941.83467 27961.2269611,-3705799.63564 27815.1282891,-3705786.48727 27719.1495302,-3705868.36113 27695.9626689,-3705983.05751 27506.4423246,-3706031.80073 27349.1324418,-3706049.75118 27263.5390353,-3706173.52283 27137.077888,-3706202.68663 27093.2429749,-3706328.07236 27017.0959296,-3706473.25364 26902.3969213,-3706449.81691 26862.2743076,-3706354.70211 26778.7347287,-3706321.97887 26611.4828664,-3706319.02445 26560.6491479,-3706255.00377 26573.7975129,-3706108.90448 26587.2519156,-3705941.80558 26504.9725541,-3705856.07862 26410.971738,-3705854.44713 26232.5086852,-3705882.59129 26032.1839538,-3705952.43112 25832.4104086,-3706000.76914 25667.8045432,-3705851.31188 25671.4659947,-3705652.30779 25537.3062618,-3705524.56589 25411.9563443,-3705511.72543 25313.4648383,-3705538.13109 25241.955719,-3705644.27575 25312.6574658,-3705802.59931 25371.958917,-3705971.52653 25373.1407579,-3706099.49664 25273.8328778,-3706199.89907 25095.828167,-3706196.5438 24971.0339411,-3706162.70149 24792.574713,-3706191.34567 24634.9166337,-3706198.80083 24466.8018061,-3706237.84796 24371.470275,-3706308.71821 24296.3418764,-3706401.89865 24204.9974477,-3706390.24409 24007.8666072,-3706400.06356 23357.677391,-3706396.56965 23056.8663968,-3706385.34964 23052.3627998,-3706384.89131 22876.1849975,-3706390.0178 22726.8974798,-3706464.88613 22229.3319932,-3706720.94616 21398.6229343,-3707146.06106 21337.663509,-3707176.62002 20444.4143332,-3707434.33677 20390.7684138,-3707444.83093 20168.4409544,-3707487.37906 19901.0255301,-3707546.84148 19610.3649163,-3707606.51866 19559.7182169,-3707616.98514 19253.964617,-3707422.83472 19082.6702402,-3707334.42837 18755.5464007,-3707126.97647 18004.3399603,-3706796.45605 17633.3566497,-3706684.8958 17411.7563521,-3706643.94711 17221.8800793,-3706627.70234 16924.4470099,-3706630.94821 16493.6860197,-3706596.92961 16190.5312388,-3706603.22777 15662.8055535,-3706653.09397 15581.6414685,-3706661.34232 15423.5570019,-3706704.29667 15119.1077706,-3706787.0976 14994.9331081,-3706820.74004 14455.6366103,-3707106.68554 13954.4318279,-3707457.27257 13531.7875458,-3707707.14649 12967.1002622,-3708004.8272 12885.7448923,-3708046.57378 12319.6744301,-3708275.77566 11733.4045612,-3708456.16989 11594.3179625,-3708553.44376 11590.0872494,-3708555.48261 10687.9543205,-3709153.25018 10375.4485332,-3709176.134 10076.3634629,-3709109.40315 9729.71170474,-3708737.14299 9681.05930063,-3708720.09401 9630.04725224,-3708664.07083 9203.96401593,-3708542.01762 9081.15926935,-3708507.65501 9051.85474298,-3708501.42621 8556.37623554,-3708390.01211 8487.43058461,-3708395.14813 7748.20946095,-3708444.46787 6656.98539221,-3708517.03474 6745.18255101,-3708349.73661 6653.20635376,-3708107.60889 6993.98719483,-3707789.49414 7284.06125627,-3707719.32362 7398.24121591,-3707658.77569 7631.02927054,-3707286.16393 7973.96808588,-3706633.06426 8004.44113012,-3706576.28877 8334.75742976,-3706072.29184 8743.15515304,-3705605.07174 8787.14731597,-3705198.20784 8854.98748538,-3704910.6118 8846.97587596,-3704638.21392 8952.1126538,-3704410.26794 9119.80680903,-3704189.24448 9375.11255917,-3703764.43479 9526.69709772,-3703585.55596 9654.90350474,-3703365.39721 9756.19021937,-3703234.97724 9918.01688939,-3702974.01319 10036.3291149,-3702819.43907 10202.1668027,-3702722.42069 10206.6000701,-3702525.40115 10267.7574958,-3702353.35604 10336.9134283,-3702181.23729 10514.9031072,-3702046.61137 10593.5389167,-3701763.91755 10645.0880275,-3701471.47458 10581.0364456,-3701248.08942 10574.068162,-3701088.67116 10558.8644848,-3700849.33759 10441.0826104,-3700437.4681 10438.7916023,-3700432.9897 10427.0878874,-3700383.60295 10323.0735679,-3699946.6092 10328.5724972,-3699946.55855 10333.0808301,-3699947.51691 13079.8493079,-3700553.14171 13463.7772098,-3700631.59468 13465.2815119,-3700632.08076 13724.2430442,-3700522.70736 14035.7317633,-3700389.85288 14596.1386467,-3700414.1859 14637.9030833,-3700416.30079 15244.7002674,-3700483.70079 15854.900237,-3700513.57371 16463.4913622,-3700477.46949 16484.4777212,-3700476.27623 17041.0293536,-3700408.15565 17069.7363927,-3700403.89162 17112.6996124,-3700400.4961 17678.6641114,-3700350.28652 18284.7123915,-3700282.7098 18830.4788996,-3700265.18209 18909.7346888,-3700266.95138 19050.2801505,-3700219.66233 19209.8524637,-3700202.69389 19418.8620008,-3700206.76699 19518.2054036,-3700218.34981 19687.3018754,-3700231.28954 19995.2466569,-3700256.94775 20304.2347578,-3700233.10302 20543.7150082,-3700207.39922 20702.628943,-3700200.43543 20972.1114245,-3700175.455 21171.4331607,-3700159.12006 21421.5509894,-3700094.32369 21954.3134542,-3699805.45392 22279.238243,-3699314.02931 22410.7088755,-3699095.849 22596.8194931,-3698785.17872 22730.345583,-3698464.49472 22825.2926479,-3698243.15201 22825.9595938,-3698234.14717 22835.4974635,-3698075.58229 22862.6703488,-3697633.39615 22849.9832599,-3697178.57908 22816.4471145,-3696685.45961 22792.9530108,-3696414.2154 22732.3150948,-3695800.86291 22732.0053394,-3695794.36671 22871.791701,-3695393.1385 22926.8019579,-3695232.15571 23089.3687479,-3694943.20189 23230.5402777,-3694692.43962 23665.6438103,-3694275.99751 23855.5922714,-3694083.27851 24096.0735097,-3693840.6023 24358.5247525,-3693323.26581 24358.4925693,-3693319.76664 24417.8687454,-3692491.84579 24003.2023624,-3691651.2856 23865.7849428,-3691250.10922 23861.4394554,-3691239.65073 23850.1342066,-3691206.25967 23780.5807527,-3691008.92864 23751.9248031,-3690420.28034 23752.1372177,-3690361.78716 23749.7872114,-3689697.90844 23624.9388077,-3689168.13496 23605.4310297,-3689085.32658 23569.9804737,-3688845.18822 23351.8666747,-3687386.40956 23350.8072536,-3687379.92026 23599.4213758,-3686279.803 23601.1067442,-3686272.78859 23878.2043408,-3686206.25545 24166.5125969,-3686244.60357 24563.6432623,-3686210.96387 25009.4224435,-3686194.3751 25349.3432584,-3686109.76849 25605.2726365,-3686106.42016 25845.3982276,-3686069.72212 25986.8685665,-3686014.43245 26161.1840882,-3685942.84398 26341.3493095,-3686045.67425 26606.1495495,-3686001.25109 26928.5914908,-3685973.29634 27177.6863303,-3685879.02545 27541.2874226,-3685923.68136 27712.9126185,-3685967.59914 27925.9174881,-3686053.63023 28104.7083922,-3686197.46576 28234.8667299,-3686298.7545 28416.3518459,-3686436.56602 28423.1460426,-3686441.50285 28605.5016885,-3686347.34455 28778.5731824,-3686358.25415 28968.4041527,-3686370.50967 29117.1741152,-3686348.14785 29377.8720177,-3686238.27335 29606.6399609,-3686217.17714 29806.1077368,-3686162.85549 29912.4111763,-3686197.87387 30044.856857,-3686167.16342 30153.2260167,-3686127.67548 30228.6975145,-3686071.49234 30426.9680571,-3686050.17622 30462.1583833,-3685935.37287 30464.1714456,-3685827.87278 30515.5137055,-3685729.91835 30630.5898171,-3685740.36049 30803.9651131,-3685702.77586 30806.4140202,-3685697.25433 30929.5842291,-3685663.62979 30949.241885,-3685490.47927 31033.0551869,-3685417.22282 31116.0819974,-3685394.46489 31166.5506514,-3685337.51164 31152.1667511,-3685213.66508 31091.3796754,-3685126.73788 31196.375624,-3685073.78369 31344.3443478,-3685100.42141 31475.6544619,-3685136.71028 31550.4287231,-3685113.52824 31552.7905928,-3684989.52821 31570.2702591,-3684796.90145 31575.4271977,-3684786.8559 31580.9670418,-3684791.3043 31972.9319381,-3684767.71242 32098.6860073,-3684716.06781 32235.4807781,-3684641.82595 32388.8398544,-3684629.42124 32526.4322905,-3684642.15672 32637.4607151,-3684565.65176 32739.6198517,-3684503.22571 32827.8994835,-3684480.91985 32961.219917,-3684491.195 33049.18065,-3684515.88367 33075.700944,-3684627.62035 33084.8657763,-3684727.51836 33085.6797703,-3684734.50964 33166.3512258,-3684700.27568 33211.3739014,-3684621.87672 33310.870679,-3684568.97347 33371.6208647,-3684488.43068 33430.662783,-3684412.40277 33431.6259922,-3684353.90449 33395.6838909,-3684277.74792 33351.5192893,-3684177.17116 33307.0382098,-3684096.59367 33304.6584712,-3684000.63278 33326.6509392,-3683863.95568 33291.7086809,-3683787.78987 33196.0138692,-3683764.67167 33118.2296253,-3683704.89578 33119.1929669,-3683646.39744 33161.826566,-3683580.01838 33238.3137079,-3683498.33164 33286.0080306,-3683411.40991 33362.8596921,-3683342.21764 33459.9559928,-3683272.83981 33540.6666337,-3683215.61006 33591.2452647,-3683170.65442 33683.4524757,-3683167.80945 33803.6247268,-3683161.70865 33954.2197194,-3683202.3204 34086.2321623,-3683288.09425 34058.8442434,-3683408.82336 34069.5495143,-3683513.20614 34093.5519895,-3683568.47593 34257.0355764,-3683624.46642 34332.6574859,-3683639.27019 34424.8272727,-3683741.40615 34377.0024589,-3683841.32644 34332.3261866,-3683875.72988 34223.2083936,-3683915.22344 34114.9001842,-3683906.71838 34023.3986059,-3684095.52318 34004.5866602,-3684224.67219 33997.3863176,-3684366.21245 33999.6766967,-3684479.67076 34064.6889966,-3684564.05897 34122.5679697,-3684606.52025 34209.0287909,-3684631.22254 34303.9667381,-3684626.35247 34380.2788816,-3684634.65085 34436.816441,-3684667.12621 34467.2760867,-3684717.83745 34472.480998,-3684794.77557 34493.9980957,-3684851.56772 34500.9869369,-3684959.48376 34575.8177466,-3685024.28526 34720.3936146,-3685035.45666 34821.586619,-3685004.03398 34881.1050741,-3684925.50241 34974.3736182,-3684847.66109 35218.4913518,-3684756.43833 35405.3376527,-3684716.2316 35480.1224264,-3684721.5445 35585.6214189,-3684669.08643 35632.9710774,-3684599.16513 35639.1119357,-3684451.13654 35665.9328922,-3684350.40939 35724.7336396,-3684275.38408 35814.2644809,-3684226.07208 35921.6869933,-3684247.08275 36036.5135279,-3684230.53257 36265.4852722,-3684259.42675 36453.7937476,-3684269.69744 36496.9424113,-3684286.79838 36544.8073817,-3684409.33598 36622.2629243,-3684515.10527 36716.7757579,-3684600.22197 36827.5959698,-3684719.18253 36860.2635102,-3684765.37398 36913.3612106,-3684804.37935 36904.1870647,-3684866.95154 36882.5278622,-3684903.64324 36827.4145722,-3684944.64107 36758.898981,-3685023.2547 36692.74972,-3685087.34943 36706.2391153,-3685168.21022 36756.9132543,-3685242.731 36817.7153261,-3685249.67174 36868.7287898,-3685197.71357 36973.037188,-3685206.25478 37082.883012,-3685137.26007 37340.2866175,-3684995.92541 37476.09073,-3684950.18818 37611.5485635,-3684893.9562 37686.7638865,-3684891.76651 37748.1985654,-3684967.68808 37810.0711887,-3685227.56984 37847.721391,-3685462.67861 37906.1732732,-3685676.60054 37944.0324585,-3685907.20815 37914.7130759,-3686062.44704 37850.7565794,-3686202.00696 37752.7154418,-3686304.38705 37726.8699168,-3686429.60001 37759.7027963,-3686493.78614 37805.9358284,-3686601.84071 37815.204297,-3686685.73932 37920.5512905,-3686725.76433 38029.3924057,-3686710.76795 38063.54782,-3686673.96155 38123.3151429,-3686595.42815 38190.6999181,-3686584.31168 38282.1192536,-3686577.47371 38354.4864086,-3686537.3172 38447.4255598,-3686450.98091 38558.4673554,-3686348.98157 38610.2574526,-3686245.5265 38621.9302014,-3686073.95315 38608.5893665,-3685873.11517 38676.2812593,-3685841.00019 38723.03633,-3685788.08149 38754.9034735,-3685774.29173 38769.2042927,-3685671.18084 38842.8669581,-3685636.01173 38904.3816364,-3685584.45737 38954.8558804,-3685555.49988 39016.8292,-3685553.93143 39047.4949566,-3685627.13546 39101.4867175,-3685709.12365 39101.1451591,-3685753.61795 39125.156837,-3685809.88639 39099.9898587,-3685900.09946 39092.2058093,-3686059.63923 39290.7860417,-3686372.25415 39364.9188766,-3686415.56496 39419.9375695,-3686391.56465 39471.4203258,-3686309.1085 39564.7650981,-3686239.76546 39777.239131,-3686268.80914 39915.1906005,-3686266.54321 40096.5310365,-3686280.37571 40187.6266809,-3686320.03143 40329.4874625,-3686335.22604 40452.8006194,-3686317.59757 40551.1185138,-3686272.70412 40686.203126,-3686175.98374 40767.8605677,-3686113.24695 40855.5025057,-3686048.95558 40891.975666,-3685965.13792 40916.6540029,-3685848.93517 40918.1626112,-3685795.43228 41062.4830061,-3685670.13333 41235.4373061,-3685560.06857 41349.3949858,-3685503.53435 41432.8936715,-3685505.26767 41525.373626,-3685477.92458 41595.3898828,-3685426.79258 41611.5685676,-3685337.66256 41572.7655981,-3685276.5313 41504.9412744,-3685239.66134 41452.9036377,-3685207.14559 41422.8848211,-3685149.93287 41420.2915319,-3685057.97565 41476.7774243,-3684975.97427 41589.8661111,-3684906.45097 41644.0200532,-3684924.45035 41722.5521838,-3684984.21736 41805.009767,-3685035.94999 41896.1780945,-3685083.60351 42016.789619,-3685098.49365 42079.9408584,-3685061.92178 42179.760248,-3684990.02085 42265.5928767,-3684973.73666 42336.9664479,-3684907.0957 42348.4080802,-3684846.50341 42235.9251163,-3684764.05275 42121.144686,-3684649.12988 42010.8262619,-3684530.16682 41960.4581016,-3684461.64319 41986.9940874,-3684384.41584 42062.3345946,-3684314.23932 42158.9555484,-3684247.86682 42221.3156662,-3684261.29195 42299.5975826,-3684321.06131 42462.5861237,-3684432.54269 42526.3746253,-3684465.45057 42576.236012,-3684505.9846 42584.5568451,-3684568.39514 42788.7080439,-3684371.56368 42849.7904989,-3683346.22002 42821.9661586,-3682683.11529 42773.8457744,-3682096.18041 42858.8385011,-3681715.48185 42861.3017452,-3681656.97165 42920.4735496,-3681186.02904 42595.7418866,-3680662.11492 42629.5029588,-3680636.81096 42622.0582272,-3680615.38367 42553.2421275,-3680415.55616 42513.7535935,-3680006.50391 42591.0748501,-3679497.40291 42660.0236332,-3679083.85867 42890.5091552,-3678404.89197 42892.3505329,-3677814.00007 42843.0009276,-3677255.56968 42772.7027281,-3676756.81812 42604.2469246,-3676156.48544 42479.7918221,-3675885.18066 42266.796014,-3675552.69807 42254.9495679,-3675104.40009 42359.7467492,-3674838.49764 42330.3002886,-3674734.28863 42227.6376919,-3674221.8341 42154.8239391,-3673857.57552 41999.6696827,-3673153.1398 42139.6434764,-3672961.90083 42243.110886,-3672796.49012 42286.4693129,-3672426.17132 42349.1193071,-3672088.16968 42257.9947251,-3671826.05649 42248.1780567,-3671791.1534 42226.8408737,-3671726.36173 42219.1868587,-3671681.94087 42171.0170954,-3671388.44176 42186.6545147,-3671294.31857 42227.6512249,-3671157.97267 42262.8638089,-3670908.20321 42266.1666285,-3670886.67754 42309.8243834,-3670822.79233 42449.9400898,-3670619.55578 42375.81371,-3670412.27557 42471.612359,-3670118.46257 42510.3241371,-3669704.19579 42664.7531781,-3669151.90226 42981.5528597,-3668561.63633 43338.5285798,-3667991.50102 43681.9765276,-3667582.4562 44289.8643114,-3666953.54899 44541.4991051,-3666535.34533 44625.0185,-3666237.64821 44777.7783435,-3665775.85572 44829.0967822,-3665619.92178 45005.2749363,-3664957.45984 45360.4167063,-3664459.83342 45536.0225218,-3664008.83244 45826.8136716,-3663141.37424 46057.9562869,-3662063.50603 46668.3986218,-3661824.50577 46869.6640499,-3661253.80109 46701.8739114,-3661052.87105 46623.2387386,-3660788.64405 46604.554039,-3660437.89083 46613.5786441,-3660413.31418 47195.6302588,-3660213.06736 47288.7798655,-3660039.25915 47296.6608661,-3659696.26342 47296.8017951,-3659684.2648 47295.4774425,-3659263.36988 47196.388379,-3658783.37606 47483.3000732,-3658422.84939 48031.2109301,-3657958.47626 48052.2124219,-3657683.84674 48077.0401741,-3657417.68059 47967.9535834,-3657212.71657 48133.2657743,-3656975.76854 48257.7076855,-3656807.1765 48358.8704858,-3656634.79674 48459.5471362,-3656463.92116 48545.8230583,-3656331.16786 48568.0077853,-3656296.97418 48640.8780964,-3656201.83419 48688.8054581,-3656139.91315 48828.0017663,-3655999.68152 48849.3364652,-3655981.99191 48889.997408,-3655945.63113 48979.7758773,-3655868.33392 49125.7836267,-3655735.03921 49248.6125938,-3655581.45951 49346.2498568,-3655406.11337 49462.0267202,-3655246.59923 49582.0478063,-3655086.54684 49705.8585896,-3654930.95919 49839.497989,-3654784.28051 49981.9708186,-3654647.01973 50126.4521119,-3654510.74065 50271.9467064,-3654375.95218 50418.9544428,-3654242.6498 50567.7252389,-3654110.83124 50715.496357,-3653979.02188 50866.5255307,-3653848.18291 51015.8097888,-3653717.85978 51166.6026439,-3653588.52289 51317.1365252,-3653458.18873 51438.1335568,-3653350.6171 51468.9290787,-3653328.84307 51619.2266378,-3653200.01099 51770.5193597,-3653070.67016 51925.8561042,-3652946.29167 52082.9739856,-3652825.39637 52240.8370933,-3652703.99458 52397.4370069,-3652581.10474 52548.7478402,-3652453.764 52694.2471346,-3652319.47769 52834.7027762,-3652180.23837 52972.3595374,-3652035.52585 53105.9995097,-3651888.85031 53236.354361,-3651738.2056 53363.9420425,-3651585.58656 53489.2714501,-3651431.98833 53613.5831394,-3651276.39993 53740.6349604,-3651119.7871 53869.9270731,-3650962.15438 53998.7103613,-3650803.52665 54125.2308682,-3650643.4199 54248.9978053,-3650482.83832 54269.492384,-3650455.15949 54368.5161824,-3650322.29532 54481.0233256,-3650160.31624 54585.7830507,-3649998.40736 54680.7824466,-3649835.08725 54727.0070059,-3649667.70947 54591.5351962,-3649418.49509 54593.7077331,-3649216.52406 54537.3346509,-3649035.57747 54530.3503825,-3648760.70665 54389.9096432,-3648570.02241 54302.7436073,-3648272.88165" style="stroke-linejoin:round;stroke:#000;stroke-width:1px;fill:none" /></g></g></svg>