<svg xmlns="http://www.w3.org/2000/svg" baseProfile="full" height="66552.1468197" version="1.1" viewBox="50229.433905,3412590.476068,67746.953356,66552.146820" width="67746.9533555"><defs><style type="text/css">polyline,line,rect,path,polygon,.polygon{fill:none;stroke:#000;stroke-width:1px;stroke-linejoin:round;}</style></defs><g fill_rule="evenodd" transform="scale(1,-1)"><g class="id" id="14154"><polygon class="_14154" id="None" points="50930.3327515,-3414646.89641 56127.6598476,-3413667.63421 57982.6199637,-3413427.32168 64066.2057312,-3412697.98705 64638.9645859,-3412630.60972 66705.4459299,-3412933.35465 66899.3845662,-3412962.18812 66964.9456453,-3412971.62484 71547.5313427,-3413644.24338 71982.9330971,-3413707.50132 73565.9074646,-3413939.89483 74816.6128468,-3414129.14153 76340.5706814,-3414359.53767 79786.5080879,-3414842.91556 81675.5166588,-3415274.11413 88064.3714508,-3416533.52183 88517.903431,-3416616.61164 88783.7105885,-3416664.82004 90182.3237313,-3416918.76084 100048.96005,-3418712.62576 100399.202864,-3421184.01195 100387.344264,-3422046.22259 100370.908207,-3423277.8045 100370.769699,-3423290.79978 100370.803963,-3423294.79767 100345.435727,-3425144.67455 100340.3718,-3425515.54931 100340.15624,-3425519.54934 100763.517815,-3425525.91173 104776.219678,-3425592.93303 104865.183556,-3425593.66902 105380.02416,-3425283.3986 105770.764156,-3424517.41408 106301.177909,-3423516.84823 107045.297008,-3422114.15214 107588.87698,-3421453.81922 108497.771397,-3420558.97908 110976.842167,-3420741.1755 112111.981168,-3420824.92021 112437.958992,-3421192.44234 112638.795644,-3421419.10691 112532.924477,-3422128.64807 110354.227251,-3422880.92619 110170.424028,-3423418.23074 110507.110358,-3423955.57385 111990.832699,-3424273.69103 113558.458519,-3424353.70886 114082.639993,-3424814.97306 114405.190017,-3424607.31602 115194.941137,-3424568.56472 116172.435845,-3425065.91765 116328.779933,-3425902.62836 116104.743168,-3425826.09172 115384.731461,-3427207.03604 115389.701623,-3427232.97957 115794.201511,-3429265.42003 115757.584487,-3431370.60936 117845.062421,-3432108.73436 117842.236342,-3432128.74777 117196.963799,-3436751.79434 117037.218078,-3437899.55112 116257.754056,-3443485.27805 114328.020568,-3443512.50066 114039.200306,-3450132.01619 113975.37958,-3450579.33649 113965.258129,-3450650.88699 113837.09395,-3450653.00225 113836.663856,-3450661.00179 111687.296999,-3450720.19285 111084.042052,-3450999.8044 111080.557159,-3451001.33398 110868.91636,-3451374.48736 108899.865242,-3454808.9284 108879.191279,-3454845.09085 108523.011111,-3457122.06924 107544.83514,-3457704.33425 107588.994434,-3457839.38172 107541.251436,-3457923.25804 107908.015897,-3459631.20889 107421.570676,-3461950.33253 107114.520824,-3462383.81293 106939.279966,-3462631.72891 106811.67513,-3462812.26027 106152.83302,-3462964.96462 105911.94087,-3463021.05038 105438.658175,-3464843.33046 105140.511146,-3465579.098 105076.836224,-3465641.12778 104527.770628,-3466628.48411 104137.347524,-3466900.7871 103762.501332,-3467040.51618 103530.614814,-3467382.3948 103493.679137,-3468411.24013 103445.635925,-3469767.53214 103406.9826,-3470855.36773 103400.706317,-3471022.34563 103068.925134,-3471029.76476 102970.370343,-3475893.39835 103019.082439,-3476882.01596 102992.109209,-3476940.22775 102884.18456,-3477084.61568 102862.202495,-3477113.79666 102832.049886,-3477151.54595 102829.823161,-3477154.06448 102706.748413,-3477224.1204 102758.521389,-3477399.08313 102765.377037,-3477665.90109 102727.455175,-3477814.16893 102780.942414,-3477985.11825 102805.938071,-3478183.80686 102859.927829,-3478326.76435 102984.386495,-3478498.08557 103110.539738,-3478578.43306 103127.035348,-3478578.78698 103021.604048,-3478694.16706 102871.984876,-3478673.00025 102723.533415,-3478614.34008 102669.052042,-3478528.86079 102577.002265,-3478433.71811 102466.205567,-3478366.22863 102298.427744,-3478326.23056 102139.808484,-3478304.6431 102151.478326,-3478183.09477 102144.324245,-3478052.21713 102024.78279,-3477928.33004 101895.162037,-3477851.5107 101756.541581,-3477774.27102 101730.893143,-3477643.0568 101426.46414,-3477409.35274 101388.975049,-3477408.68439 101320.776834,-3477382.79877 101208.504601,-3477346.3074 101100.035978,-3477287.79222 101016.397045,-3477239.55295 100970.247263,-3477191.98204 100930.873109,-3477119.36241 100910.688614,-3477012.58845 100916.037653,-3476882.59923 100927.372071,-3476779.54512 100951.00748,-3476682.8795 100949.319587,-3476604.92926 100875.03903,-3476541.11398 100790.561264,-3476539.36102 100692.89059,-3476571.7094 100611.7493,-3476579.92254 100555.602083,-3476560.42721 100489.784962,-3476549.51347 100430.608397,-3476526.54642 100343.499382,-3476509.82332 100230.892027,-3476520.31336 100179.846871,-3476569.24256 100134.550365,-3476646.6084 100111.238007,-3476723.28038 100097.5691,-3476788.37231 100093.570115,-3476844.88263 100080.754047,-3476949.94935 100080.776114,-3476952.44805 100059.098194,-3477016.11142 100039.297375,-3477094.25181 100009.807311,-3477150.48753 99980.8346505,-3477208.7178 99924.0452299,-3477229.71035 99839.2129417,-3477244.45345 99774.2272785,-3477214.54088 99737.5237968,-3477161.38862 99691.0329479,-3477131.81244 99653.7404576,-3477125.14488 99606.8955043,-3477112.06454 99535.1385108,-3477107.70047 99403.841639,-3477095.86574 99356.6866701,-3477104.27867 99315.8358377,-3477119.13309 99236.6637534,-3477152.31806 99176.8756594,-3477173.3371 99107.4176039,-3477202.93785 99066.1216513,-3477252.28114 99021.4714415,-3477289.65932 98885.1174464,-3477384.32282 98841.5179392,-3477399.20158 98759.6483419,-3477409.92034 98687.8645505,-3477402.55784 98663.0389719,-3477392.78146 98616.1937779,-3477379.70108 98550.8740014,-3477340.29538 98476.5764806,-3477302.96807 98417.7621827,-3477264.50442 98340.2869132,-3477235.20165 98286.9670564,-3477224.6773 98230.4562212,-3477220.6783 98180.4597037,-3477218.62091 98133.7071015,-3477216.03508 98065.2288291,-3477215.14046 98002.0728812,-3477222.69516 97908.0783476,-3477247.01507 97816.4606102,-3477285.80776 97790.7562964,-3477318.02096 97755.9638802,-3477339.81896 97717.7747483,-3477373.14201 97700.9456782,-3477448.25835 97705.9818631,-3477509.18761 97711.1681404,-3477587.10824 97729.6886761,-3477646.91883 97730.6889672,-3477731.87341 97723.1874453,-3477787.91558 97718.4892767,-3477878.41815 97701.6868708,-3477956.53304 97685.5060742,-3478020.14869 97682.0166817,-3478021.17908 97619.5325343,-3478048.21971 97532.0813382,-3478049.49209 97378.1284687,-3478047.35368 97346.9207795,-3478050.62809 97234.8202837,-3478062.11393 97230.8311361,-3478063.14874 97159.0220516,-3478081.27565 97135.6619578,-3478095.97583 97071.5433143,-3478136.02541 97025.2054353,-3478180.41602 96930.2207834,-3478290.70852 96863.9919172,-3478374.75812 96820.4247196,-3478421.62327 96795.680163,-3478449.33021 96754.9524864,-3478478.17796 96717.2056324,-3478505.00023 96667.661689,-3478525.9293 96662.1821163,-3478527.97686 96566.2277491,-3478556.81285 96550.5165669,-3478560.45019 96531.5614304,-3478564.61598 96432.7329112,-3478550.99538 96289.8185953,-3478497.28141 96285.3208488,-3478497.32115 96180.6586029,-3478502.24421 96105.1753119,-3478585.37633 96030.3585052,-3478602.53045 95880.2294745,-3478637.34287 95727.0893571,-3478614.20628 95692.8255022,-3478611.01049 95688.8274936,-3478611.04582 95582.3620397,-3478666.46365 95527.3871121,-3478836.37838 95494.0689951,-3478883.65312 95440.3872788,-3478917.11369 95349.0519186,-3478931.41516 95312.0702662,-3478931.74196 95249.2453796,-3478920.30214 95180.8216294,-3478897.41658 95074.6797892,-3478876.36367 95003.502937,-3478853.0026 94940.9966741,-3478821.06844 94875.7082534,-3478813.64865 94809.8626562,-3478799.73648 94762.8505211,-3478796.15353 94672.5964505,-3478791.45327 94528.2956744,-3478807.22224 94468.9776856,-3478796.7509 94399.6134198,-3478808.859 94305.4980406,-3478819.68642 94243.0640508,-3478824.2364 94215.0468835,-3478820.98538 94187.0252972,-3478817.23462 94102.5490716,-3478815.98181 94025.7863099,-3478782.67403 93997.0485964,-3478754.43966 93957.0866817,-3478700.31515 93920.7360779,-3478630.66509 93869.2868808,-3478549.15332 93841.9054313,-3478476.42522 93812.3015932,-3478406.71551 93768.819393,-3478350.12301 93738.4853414,-3478310.90718 93591.4980505,-3478277.2198 93490.3178116,-3478252.1241 93439.4910403,-3478241.07771 93371.6769553,-3478230.68114 93336.8467804,-3478219.99326 93309.066157,-3478215.24066 93231.2039365,-3478198.93526 93123.5929133,-3478181.39318 93111.5766782,-3478179.00032 91552.8113894,-3477964.35705 91184.7606783,-3477913.62811 91084.4305485,-3477900.01966 90983.8416703,-3477885.41387 90969.8351026,-3477884.03812 90882.0121674,-3477871.81861 90780.682382,-3477858.21892 90731.3896133,-3477851.15706 90727.8868647,-3477850.68818 90679.3437286,-3477843.61969 90576.7644479,-3477830.03099 90474.4305915,-3477815.94029 90372.0966901,-3477801.84958 90275.0190828,-3477788.71205 90271.0165638,-3477788.24757 90168.1783978,-3477773.66146 90065.8487732,-3477760.07045 89964.7641026,-3477745.96862 89862.4299773,-3477731.87779 89760.5955717,-3477717.78254 89659.2652976,-3477704.18261 89557.1809209,-3477690.08952 89454.846617,-3477675.99861 89393.5459662,-3477667.54317 89353.0120338,-3477661.90326 89251.9270548,-3477647.80128 89149.5926175,-3477633.71031 89047.7623122,-3477620.11466 88946.672791,-3477605.51285 88844.3426309,-3477591.92158 88742.4989616,-3477576.82657 88641.4225405,-3477563.724 88538.5880695,-3477549.6373 88436.7530886,-3477535.54177 88335.4178313,-3477521.4418 88233.3372886,-3477507.84819 88131.5021755,-3477493.75259 88029.16725,-3477479.66138 87928.0817018,-3477465.55912 87825.746688,-3477451.46786 87723.9158087,-3477437.87194 87622.3171315,-3477422.27472 87519.9908045,-3477409.18294 87418.1597933,-3477395.58696 87316.5698042,-3477380.98921 87214.238935,-3477367.3976 87112.407792,-3477353.80155 87011.0719665,-3477339.70131 86908.4866704,-3477325.61206 86806.6553957,-3477312.01596 86704.8196683,-3477297.92006 86603.233783,-3477283.82193 86500.8937876,-3477269.23062 86398.5625659,-3477255.63884 86353.2758747,-3477249.5408 86297.4763221,-3477241.53624 86195.140604,-3477227.44464 86092.804842,-3477213.35302 85991.722877,-3477199.75014 85854.8497735,-3477179.96538 85169.5320223,-3477086.54732 83889.998239,-3476972.37801 83729.8886606,-3476953.2974 81891.3629989,-3476733.09308 81371.7485135,-3476670.69755 81225.3176185,-3476389.08898 80993.6627312,-3475936.79202 80404.0507646,-3474793.8927 80378.8757321,-3474744.63189 80224.4143313,-3474430.60337 79770.1062375,-3473440.45264 79690.5961199,-3473265.71399 79544.277548,-3472939.61639 79392.1942911,-3472611.56985 79232.2109546,-3472266.09855 79093.1763625,-3471972.42444 78819.1992829,-3471424.02572 78728.3926743,-3471243.38724 78122.1898293,-3470030.13791 77982.3777208,-3469761.45957 77818.6940204,-3469449.50561 77374.4329938,-3468633.68918 77156.619639,-3468247.73445 76987.7907612,-3467947.31974 76946.1677809,-3467874.71002 76405.8865697,-3466795.82043 76328.5642304,-3466642.05123 76313.7986038,-3466611.19128 76309.4758861,-3466602.73209 76190.978003,-3466427.33127 76037.3285045,-3466204.75461 76027.468664,-3466191.84547 76012.0191159,-3466168.4889 75659.8451664,-3465650.25289 75631.6818661,-3465602.01615 74351.066879,-3463399.47877 73355.9091484,-3461658.26939 72681.0560909,-3460477.56196 69192.4633315,-3459537.35711 67971.0959609,-3459222.62662 56870.9426624,-3456345.3429 56550.6924423,-3456278.15361 56535.1890421,-3456277.28903 56525.3908399,-3455468.59045 56509.8244072,-3454169.5734 56504.9835354,-3453757.2259 56484.4581475,-3451887.40537 56450.9916345,-3448843.51291 56446.1045722,-3448453.66004 56420.9675986,-3445558.6559 56415.9649806,-3445558.19944 50383.6919544,-3444512.31446 50386.0203271,-3444377.32752 50390.5545434,-3444150.84399 50462.3742451,-3440440.13626 50472.8941983,-3439663.23674 50691.6168834,-3427681.79397 50703.309037,-3427036.85096 50761.0292885,-3423839.63386 50930.3327515,-3414646.89641" style="stroke-linejoin:round;stroke:#000;stroke-width:1px;fill:none" /></g></g></svg>