<svg xmlns="http://www.w3.org/2000/svg" baseProfile="full" height="131286.060174" version="1.1" viewBox="-95899.976745,3418998.814033,257857.221715,131286.060174" width="257857.221715"><defs><style type="text/css">polyline,line,rect,path,polygon,.polygon{fill:none;stroke:#000;stroke-width:1px;stroke-linejoin:round;}</style></defs><g fill_rule="evenodd" transform="scale(1,-1)"><g class="hogares departamen mujeres departam_1 toponimo_i tot_pob varones viv_part viv_part_h" id="14175"><polygon class="_14175" id="None" points="-46013.1853237,-3419092.05134 -46102.3846748,-3428285.89466 -46132.2445266,-3431483.46963 -46138.316651,-3432128.48421 -46252.6315733,-3444111.20626 -46256.3816441,-3444888.15265 -46295.8649196,-3448599.26523 -46298.4254592,-3448825.77441 -46299.5775189,-3448960.77336 -40258.5669707,-3449954.04855 -40253.560689,-3449954.46141 -40203.21533,-3452849.06303 -40194.9337198,-3453238.84808 -40134.9631162,-3456282.24743 -40098.1567724,-3458151.76148 -40089.7255325,-3458564.03825 -40062.8484313,-3459862.82881 -40046.0088461,-3460671.38474 -40030.4990216,-3460672.11426 -39709.6865537,-3460736.5101 -28585.2964229,-3463516.98154 -27361.2816245,-3463821.06572 -23864.7719333,-3464730.86493 -23179.7044994,-3465905.61659 -22169.4859205,-3467638.04199 -20869.8256983,-3469829.27629 -20841.24536,-3469877.26444 -20484.595004,-3470392.39853 -20468.9436809,-3470415.61897 -20458.9724247,-3470428.44139 -20303.4006538,-3470649.66495 -20183.387765,-3470824.02192 -20178.9918719,-3470832.44287 -20163.9592149,-3470863.17203 -20085.3066248,-3471016.25695 -19535.6923757,-3472090.36443 -19493.4417389,-3472162.60656 -19322.0157821,-3472461.52976 -19100.8660577,-3472845.56027 -18649.5518855,-3473657.44941 -18483.1708386,-3473967.95535 -18341.0355448,-3474235.39663 -17724.3407747,-3475443.27773 -17631.9721959,-3475623.11208 -17353.2531732,-3476169.08423 -17211.6786703,-3476461.52556 -17048.7072291,-3476805.57763 -16893.7866823,-3477132.27499 -16744.6473471,-3477457.07358 -16663.6258579,-3477631.10652 -16200.7544009,-3478617.22528 -16043.5781685,-3478929.88478 -16017.9773569,-3478978.92262 -15418.4879739,-3480116.60035 -15182.9243158,-3480566.84529 -15034.0600309,-3480847.15706 -14513.9493371,-3480905.03346 -12673.6732971,-3481109.24983 -12513.41215,-3481126.93826 -11232.9999748,-3481229.98594 -10546.9316597,-3481317.44496 -10409.8988776,-3481336.03952 -10308.7077464,-3481348.76353 -10206.2586879,-3481361.96535 -10103.8096758,-3481375.16716 -10047.9455626,-3481382.68653 -10002.6099341,-3481388.39083 -9900.16976213,-3481401.09293 -9797.71214132,-3481414.79439 -9696.01284804,-3481428.00927 -9594.06375632,-3481441.21977 -9492.12345853,-3481453.93057 -9389.4249269,-3481467.12792 -9287.97566199,-3481480.34712 -9186.03550299,-3481493.05788 -9083.59570282,-3481505.75988 -8981.88798445,-3481519.47437 -8879.94796447,-3481532.18509 -8777.51705204,-3481544.38737 -8675.79197637,-3481559.10119 -8573.8520956,-3481571.81187 -8471.40382714,-3481585.01349 -8370.20482018,-3481598.23696 -8267.75664491,-3481611.43854 -8165.80820196,-3481624.64887 -8063.61871107,-3481637.35512 -7962.17004618,-3481650.57417 -7860.22174267,-3481663.78445 -7757.27411681,-3481676.97723 -7656.09292976,-3481689.20124 -7554.1272696,-3481703.41086 -7451.68821715,-3481716.11266 -7350.480924,-3481729.83569 -7248.54164859,-3481742.54622 -7146.09398849,-3481755.74767 -7044.89558263,-3481768.97098 -7004.31629664,-3481774.25855 -6942.94769896,-3481782.18115 -6840.50017971,-3481795.38257 -6738.30254879,-3481808.58834 -6636.8632363,-3481821.30754 -6534.91554004,-3481834.51767 -6432.46820924,-3481847.71903 -6331.27012877,-3481860.94225 -6228.83164081,-3481873.6439 -6125.87602226,-3481887.33616 -6121.86982795,-3481887.76585 -6024.68683064,-3481900.05966 -5922.23973605,-3481913.26096 -5819.79268896,-3481926.46225 -5717.10459829,-3481939.15947 -5668.50443457,-3481945.80603 -5664.99792823,-3481946.24447 -5615.64825667,-3481952.8779 -5514.2094593,-3481965.59697 -5426.28829034,-3481977.05321 -5412.27102957,-3481978.30728 -5311.56434634,-3481992.0388 -5211.12504619,-3482004.77532 -4842.6668638,-3482052.3057 -3282.17794978,-3482253.40372 -3270.14202427,-3482255.69211 -3162.38839378,-3482272.2989 -3084.39164452,-3482287.92726 -3056.57226373,-3482292.4384 -3021.65246272,-3482302.82312 -2953.75422403,-3482312.63037 -2902.83614557,-3482323.23477 -2801.4471984,-3482347.45035 -2654.18075036,-3482379.8594 -2623.50916173,-3482418.80855 -2579.53983818,-3482475.01873 -2549.3338323,-3482544.46536 -2521.32383159,-3482616.94939 -2469.17203455,-3482698.00747 -2432.22039739,-3482767.33591 -2391.79247802,-3482821.10886 -2362.81237976,-3482849.09136 -2285.7675272,-3482881.73017 -2201.28801256,-3482882.24995 -2173.23639956,-3482885.75727 -2145.19354111,-3482888.76492 -2082.80462864,-3482883.67368 -1988.7916301,-3482872.03072 -1919.53863338,-3482859.32191 -1860.13512092,-3482869.2777 -1715.98409451,-3482852.25825 -1625.69734331,-3482856.1751 -1578.6583421,-3482859.34988 -1512.69795943,-3482872.68958 -1447.35102782,-3482879.5423 -1384.57333813,-3482910.93134 -1313.2002137,-3482933.67284 -1206.88526666,-3482953.80307 -1138.26912805,-3482976.093 -1075.3506436,-3482986.98679 -1038.37514756,-3482986.3392 -947.172053109,-3482971.24669 -893.785420356,-3482937.32346 -860.880391007,-3482889.76393 -807.384357124,-3482719.38754 -701.409169491,-3482663.05112 -697.411825295,-3482662.98111 -663.123316137,-3482665.87939 -509.796213114,-3482687.68549 -359.982601787,-3482651.57391 -285.321292325,-3482633.77235 -210.565863052,-3482549.9929 -105.955680999,-3482544.16242 -101.458681476,-3482544.08367 41.9087681378,-3482596.55319 140.846588694,-3482609.31534 159.763895273,-3482604.9855 175.442121791,-3482601.21221 271.137785679,-3482571.54652 276.599108029,-3482569.4516 325.957086074,-3482548.09468 363.467915385,-3482520.9474 403.941734103,-3482491.74897 428.443758135,-3482463.82988 471.600571438,-3482416.59102 537.09451127,-3482331.97449 631.114064072,-3482220.86797 677.062791677,-3482176.07941 740.828354811,-3482135.47726 764.058867351,-3482120.57579 835.704335368,-3482101.82767 839.684152418,-3482100.75835 951.675046369,-3482088.30125 982.851557122,-3482084.75646 1136.80926602,-3482085.55943 1224.24164056,-3482083.5287 1286.48570277,-3482055.94855 1289.96584815,-3482054.88798 1305.59347028,-3481991.13766 1321.71689737,-3481912.88399 1325.62972707,-3481822.34872 1332.64453404,-3481766.24647 1330.90752793,-3481681.3081 1311.86990187,-3481621.66343 1306.00828368,-3481543.79469 1300.44410903,-3481482.9145 1316.62021069,-3481407.65885 1354.51695693,-3481374.00754 1389.11724524,-3481351.90972 1414.5399062,-3481319.47643 1505.81310574,-3481279.89259 1599.58841554,-3481254.75964 1662.67326563,-3481246.65788 1731.15324847,-3481246.95853 1777.92414694,-3481249.13867 1827.93409125,-3481250.76229 1884.47461614,-3481254.27084 1937.8810347,-3481264.33185 2015.60358389,-3481292.96014 2074.74625282,-3481330.91033 2149.36091718,-3481367.59001 2215.01665088,-3481406.42576 2261.971136,-3481419.09873 2286.87930019,-3481428.65896 2358.72058865,-3481435.39829 2440.48998943,-3481423.97051 2483.95661168,-3481408.71497 2619.47764005,-3481312.87739 2663.79976818,-3481275.11532 2704.6641795,-3481225.41827 2773.85941319,-3481195.21782 2833.45995974,-3481173.68217 2912.33729055,-3481139.81358 2953.05570814,-3481124.60623 3000.1335645,-3481115.78513 3131.52147929,-3481126.48029 3203.30998533,-3481130.22174 3250.26422974,-3481142.89472 3287.61124609,-3481149.23831 3334.35445491,-3481178.40875 3371.51559113,-3481231.23806 3436.75489231,-3481260.58449 3521.45184941,-3481245.10709 3578.05422826,-3481223.62398 3606.51941582,-3481165.14762 3635.51925978,-3481108.66116 3654.64078,-3481030.35596 3675.76476857,-3480966.51024 3675.72103766,-3480964.01195 3687.62495031,-3480858.84334 3691.13358674,-3480802.30333 3704.23688485,-3480737.09859 3726.88237834,-3480660.23121 3771.50407844,-3480582.4794 3822.1204985,-3480533.11188 3934.62702172,-3480521.64637 4021.87339728,-3480537.61272 4081.24391006,-3480560.06465 4147.14988526,-3480570.40676 4203.46121077,-3480589.41355 4284.5241695,-3480580.4976 4381.9058017,-3480547.30522 4466.39135645,-3480548.32557 4541.21868975,-3480611.49122 4543.58228061,-3480689.41999 4520.78706016,-3480786.28204 4510.34714212,-3480889.42535 4506.12561203,-3481019.4495 4527.23408275,-3481126.03905 4567.2343894,-3481198.31088 4613.7925452,-3481245.47747 4697.84233108,-3481292.98732 4806.80869775,-3481350.55691 4919.38738317,-3481386.07165 4987.80399253,-3481411.36372 5025.29556269,-3481411.70699 5331.72375029,-3481642.75105 5358.5074788,-3481773.73127 5497.78525513,-3481849.76234 5628.06046669,-3481925.45113 5748.66529887,-3482048.29087 5756.95334452,-3482179.09484 5746.3382671,-3482300.7335 5905.13052396,-3482320.94394 6073.24012154,-3482359.48398 6184.61198723,-3482426.00696 6277.47831209,-3482520.34318 6332.69581008,-3482605.34255 6481.6424935,-3482662.7106 6631.43176056,-3482682.57854 6735.85347051,-3482566.29487 6896.3110826,-3482567.48331 7370.69682863,-3482571.67078 7774.47457618,-3482539.60966 8114.61870247,-3482584.13279 8121.64875592,-3482586.00887 8248.92826164,-3482547.79433 8369.65496895,-3482520.69017 8441.00899912,-3482485.45427 8546.85906824,-3482493.59661 8638.07666616,-3482579.46396 8630.32074506,-3482664.56555 8615.81570725,-3482735.29119 8671.53712049,-3482806.28632 8741.64239215,-3482899.52042 8811.97604707,-3482977.25671 8902.69244587,-3483120.10948 8993.77330019,-3483240.96464 9063.6296323,-3483305.71434 9198.84940737,-3483292.85008 9311.94951727,-3483258.38221 9440.04364808,-3483209.65744 9553.39264949,-3483203.67369 9652.74761534,-3483183.44098 9731.36024255,-3483106.09506 9902.20542547,-3483015.63847 9987.56234468,-3482966.66293 10065.7921475,-3482938.80364 10172.1466634,-3482904.45425 10306.7483599,-3482870.60977 10433.9499127,-3482899.3692 10547.9261583,-3482857.88929 10654.0297541,-3482852.03265 10753.2512398,-3482881.28208 10830.2251585,-3482924.41555 10872.0825932,-3483017.14375 10870.8166764,-3483144.61315 10835.0589837,-3483243.19892 10840.6648645,-3483392.03909 10818.1517424,-3483504.88692 10796.26961,-3483625.22062 10837.7455399,-3483738.9467 10999.9526502,-3483754.59743 11098.5362975,-3483875.81936 11246.3667743,-3483926.70727 11309.7137791,-3484005.06441 11315.9572207,-3484090.41946 11358.1888077,-3484133.16146 11470.144243,-3484261.64557 11568.7945862,-3484343.88207 11666.9405888,-3484440.12148 11722.40667,-3484553.60175 11857.3128641,-3484565.73178 11976.7727994,-3484637.60751 12138.2091935,-3484794.71147 12329.0201539,-3484888.32691 12512.9737187,-3484890.10114 12619.3359155,-3484827.76277 12739.286374,-3484899.12966 12794.7565433,-3485027.10298 13069.9078414,-3485170.71788 13231.7342137,-3485307.3224 13293.6905276,-3485463.16969 13426.6294814,-3485648.25969 13575.0851196,-3485720.62548 13772.6539734,-3485772.13882 13872.0070085,-3485723.41741 14013.331537,-3485802.40518 14111.4904188,-3485885.14822 14281.4439181,-3485886.66707 14423.6602362,-3485802.70923 14488.3987174,-3485718.11046 14608.9368703,-3485709.0006 14763.496061,-3485830.23766 14882.5723581,-3485980.08441 15080.3894122,-3486060.08035 15339.8361609,-3486120.50374 15827.8008623,-3486173.42228 22627.3630613,-3487422.56719 29216.796369,-3488514.87866 31427.6849867,-3489071.77549 37728.0712046,-3490411.39707 38042.9968743,-3490459.8373 38927.0421226,-3490561.74821 44464.3284995,-3491244.04857 46142.8390732,-3491401.45194 46129.7648105,-3492321.12625 46134.5755757,-3493902.58722 46157.066794,-3497879.29618 46224.6926338,-3499463.65229 48741.2735605,-3499455.80111 48797.9618837,-3499752.11939 53297.5396646,-3499732.80722 55221.833304,-3499749.36888 60283.9593955,-3499764.59619 60845.0204092,-3501249.67875 60862.3500656,-3501254.86941 61004.2641012,-3502289.65234 61651.8666779,-3507018.9528 63044.236383,-3507363.09301 65822.6555457,-3508048.96446 69878.1081498,-3495908.25985 69912.9356797,-3495914.14193 72214.1037684,-3496306.30375 75601.4210812,-3496884.6627 77168.6493805,-3497152.32606 106341.450437,-3502132.35535 110613.509321,-3502861.06439 127683.186793,-3505774.12833 127734.288619,-3505783.21204 134608.347921,-3506950.93415 135624.283593,-3507129.6929 142827.102868,-3508358.80504 142819.797342,-3508397.38546 142537.208081,-3509905.98013 141953.892238,-3512869.08796 140985.430738,-3517069.54227 140420.754606,-3519430.66138 140350.871482,-3519768.48751 140362.157309,-3519771.28257 140528.529787,-3519803.77226 151329.552358,-3521887.11609 160628.975351,-3523616.83671 160625.84421,-3523860.54842 160591.324291,-3526451.51111 160424.613204,-3536967.77519 160328.03795,-3536970.01265 160177.55591,-3537042.62382 159670.597611,-3537269.44643 159312.51456,-3537098.6367 159137.788769,-3537058.84061 158797.770329,-3537004.04377 158472.771713,-3536896.04895 158323.330931,-3536846.31011 158264.926291,-3536819.39945 158241.072844,-3536811.83963 157571.288943,-3536495.34059 157216.830215,-3536331.94895 157174.969227,-3536308.73466 157056.473181,-3536244.45672 156833.520169,-3536119.14312 156022.737661,-3535528.5457 155437.813867,-3535363.79888 154849.170808,-3535200.61476 154259.607679,-3535041.93901 153657.374953,-3534956.39135 153047.666993,-3534927.40144 152471.240135,-3534736.02736 151889.143766,-3534562.72903 151303.737607,-3534385.99258 150697.989303,-3534313.98222 150078.082435,-3534413.00153 149721.247102,-3534868.8246 149575.941885,-3535466.65986 149575.01527,-3535470.67131 149162.84576,-3535876.06122 148548.341288,-3535817.69494 147945.637741,-3535693.69964 147348.119248,-3535566.61322 146743.24021,-3535488.59471 146134.261556,-3535446.60272 145527.870104,-3535368.10949 144918.973688,-3535317.12521 144312.124681,-3535352.49439 143706.48012,-3535427.2923 143094.459477,-3535425.30088 142498.593737,-3535294.17886 141970.611818,-3534994.54334 141489.913846,-3534616.65174 140921.856485,-3534393.6361 140324.538505,-3534265.52729 139721.470307,-3534164.98634 139168.807343,-3533895.74373 138757.991929,-3533460.65208 138385.819807,-3532980.41842 138389.323397,-3532980.85498 138386.247416,-3532976.4156 138964.605941,-3533049.44174 139581.726098,-3533042.36853 139533.043342,-3532471.94009 139323.80828,-3532291.41694 139071.03977,-3532078.21442 138714.340825,-3531583.21925 138508.602351,-3530998.62212 137971.592332,-3530933.83416 137365.836743,-3531018.09834 136762.485672,-3531111.30893 136191.223896,-3531323.30209 135638.960214,-3531578.40456 135117.772756,-3531839.94377 134501.917864,-3531751.59734 133909.604958,-3531806.65821 133301.438285,-3531868.99496 132695.114917,-3531797.45514 132097.089129,-3531729.26138 131530.291253,-3531662.00531 131519.329143,-3531077.87935 131082.726765,-3530765.06944 130489.205359,-3530683.80291 130108.600755,-3530207.17339 129903.0221,-3529631.51896 129434.144909,-3529315.28172 128846.749985,-3529437.16448 128375.915431,-3529821.16184 127868.354661,-3530162.36847 127379.204201,-3530527.7205 126879.540157,-3530877.78079 126349.077538,-3531181.44761 125895.596775,-3531586.62358 125444.977518,-3531998.24392 124975.980744,-3532387.72114 124578.501544,-3532852.3357 124280.902562,-3533386.08563 124202.56982,-3533989.82747 124470.510165,-3534504.45391 125009.890084,-3534809.43701 125599.480326,-3534962.1844 126198.498791,-3535083.79524 126637.870848,-3535451.99598 126817.759642,-3536041.60761 126848.420892,-3536650.87736 126772.924757,-3537258.55703 126430.588705,-3537761.15142 126062.841985,-3538253.21722 125531.290621,-3538551.445 124941.858741,-3538713.86463 124331.277863,-3538727.82757 123718.514679,-3538703.8705 123107.602347,-3538671.88801 122497.012728,-3538685.8493 121902.516598,-3538817.39468 121311.176255,-3538971.85952 120719.815185,-3539125.32667 120116.925697,-3539221.06304 119512.053986,-3539317.83426 118909.212482,-3539416.56725 118311.878406,-3539335.38942 117707.263085,-3539224.37217 117126.66785,-3539408.11648 116619.085098,-3539749.88672 116073.92626,-3540001.92693 115469.196516,-3540107.68913 114867.210207,-3540213.40244 114294.24601,-3540419.49287 113708.086068,-3540572.37542 113235.574043,-3540962.47778 112723.64305,-3541299.34474 112149.768152,-3541496.9663 111549.186318,-3541626.13701 110945.692326,-3541732.38323 110385.945247,-3541952.23189 109881.263598,-3542303.96305 109284.192025,-3542420.58649 108678.090374,-3542507.40157 108367.794048,-3542515.97306 108066.771012,-3542526.37591 107461.545795,-3542606.68148 106884.507818,-3542796.3761 106352.208451,-3543099.16009 106527.249748,-3543625.01323 107020.871055,-3544005.27233 107234.330859,-3544528.43357 107593.671341,-3544997.01993 108012.451346,-3545437.5607 107636.507832,-3545754.02687 107049.028311,-3545585.26395 106489.258315,-3545318.5928 105908.975854,-3545258.5936 105311.472349,-3545421.69419 104699.786437,-3545504.6256 104213.055985,-3545355.52372 104437.297727,-3544797.00826 104302.309819,-3544290.40848 104303.09499,-3543736.41055 104038.36678,-3543265.10995 103587.252002,-3543596.91301 103456.298908,-3544162.74387 102941.354303,-3544514.6809 102531.247699,-3544988.12294 102863.053844,-3545466.71382 102848.070706,-3546036.46033 102247.407985,-3546149.66733 101649.87764,-3546159.41234 101087.715438,-3546413.79905 100594.52006,-3546086.47004 100048.630532,-3545843.01118 99434.3996171,-3545799.60061 98865.1858242,-3546009.6538 98282.3732671,-3545866.26557 97720.4521368,-3545634.57763 97140.0833043,-3545446.68069 96532.5627749,-3545388.15687 95932.5849139,-3545499.34878 95472.1042101,-3545895.28624 95881.4687041,-3546310.56389 95314.0348532,-3546467.63475 94703.6887804,-3546502.58306 94128.9324691,-3546697.25444 93595.305897,-3546984.60829 92923.622617,-3547637.6387 92947.3005068,-3548371.09408 93016.1758831,-3549006.31927 92952.5523096,-3549135.35599 92886.3275566,-3549286.42115 92774.3523995,-3549504.7537 92805.4939777,-3549430.75516 91673.9337803,-3549194.32313 91584.6682573,-3549175.44561 82538.8394008,-3547196.71928 76388.934672,-3545955.60716 76383.9220301,-3545954.69781 76645.1960026,-3544615.49519 76693.8148273,-3544373.30185 77174.125936,-3542110.369 75576.4236357,-3541851.6982 73797.4430044,-3541459.36278 71854.8454823,-3541054.9524 67657.3184577,-3540135.25001 66115.5199961,-3539961.9605 64762.5524849,-3539605.40824 64627.1858494,-3539579.84702 64383.6664614,-3539527.73821 64083.782501,-3539467.14305 63413.5996419,-3539320.22811 60581.8736732,-3538714.76019 60584.380063,-3538701.22411 61113.678127,-3535953.04969 60064.4106213,-3535745.92405 57503.9513562,-3535194.49306 54729.890904,-3534575.88831 53871.2936606,-3534400.81493 53143.6063936,-3534253.38665 51458.1053438,-3533916.1536 48888.1652097,-3533343.81584 47395.6065479,-3533011.6135 46921.3918148,-3532886.13716 45037.013721,-3532510.42873 43156.9863696,-3532015.19556 40363.7680593,-3531384.27959 40154.6187651,-3531341.52613 39171.5758248,-3531113.14801 38065.2582291,-3530865.97 37429.8023948,-3530709.361 36746.179236,-3530556.10576 36468.5033121,-3531535.54347 35981.3877715,-3531430.7673 35868.0367787,-3531407.79647 35868.5097042,-3531406.28883 35963.5777534,-3530836.88774 35294.7112547,-3530839.28874 35293.0870892,-3530846.31408 35176.7549866,-3531344.1319 35117.8217389,-3531599.05179 34933.9024411,-3532398.92204 34288.3782603,-3532393.41637 34143.4076217,-3532390.99825 33851.5031774,-3532388.19584 30406.0358555,-3532295.56402 30022.0206276,-3532284.40298 29906.7375081,-3532279.45678 29655.7316893,-3532272.42665 29410.3554791,-3532258.79937 27456.7715442,-3532174.59761 26163.1290751,-3532119.13663 24218.1883856,-3532087.24615 23819.2518402,-3532080.84429 18909.6546701,-3531998.68041 18956.9393569,-3531115.70944 18951.3191933,-3531010.35351 18904.4476762,-3529468.83422 18843.7732627,-3528641.26083 15554.0697898,-3528637.68235 15542.4226146,-3528263.04097 15509.938105,-3526840.69542 15442.1802516,-3525753.84069 15391.3273847,-3524943.57371 15384.1643535,-3524722.79103 15377.2121754,-3524598.46519 15285.6950869,-3521492.86293 15232.5566843,-3518223.15717 13315.05091,-3518206.60726 8375.64775006,-3518130.55503 6469.17900037,-3518148.28222 3381.7607218,-3518046.94077 2720.54818632,-3518021.64626 2384.23030481,-3518011.09908 2380.57848483,-3517974.17667 1860.59645125,-3517964.8775 1723.34891035,-3517962.30601 1715.16621072,-3517965.94948 1267.71673379,-3518200.28253 940.39716962,-3518458.4832 770.325464149,-3518592.44557 698.8361627,-3518648.19106 523.934668734,-3518848.21654 491.154694555,-3518888.28273 343.793022072,-3519062.83009 328.121614699,-3519081.10111 290.895206627,-3519138.24022 127.578623241,-3519371.55024 27.2729998704,-3519507.77868 -29.3470826671,-3519697.71609 -253.313776576,-3520373.45093 -252.869461806,-3520384.43936 -264.295910009,-3520416.63073 -237.661239698,-3520848.51385 -223.647230602,-3521089.68462 231.402431351,-3521651.93962 234.694531464,-3521654.38051 617.228119872,-3521946.00909 606.308282891,-3521992.68658 498.708740657,-3522394.45563 302.58538503,-3522750.80825 210.610265469,-3522863.39913 65.7604217073,-3523024.41026 -72.509773404,-3523161.81299 -288.3299473,-3523196.1238 -411.940130202,-3523215.80642 -632.503326051,-3523222.21053 -872.607269914,-3523225.96154 -1182.04966061,-3523223.44252 -1192.41021958,-3523231.12347 -1198.90604233,-3523231.23847 -1232.71826348,-3523255.32933 -1314.62109754,-3523315.75992 -1583.76161435,-3523500.46582 -1590.88311748,-3523507.58961 -1603.00141838,-3523514.80187 -1894.98988003,-3523792.38263 -1910.43786242,-3523809.15078 -1957.38765994,-3523853.46791 -2435.88859117,-3524352.78165 -2648.43725013,-3524811.89911 -2656.14649997,-3525237.39924 -2660.02192581,-3525441.90241 -2659.94226983,-3525446.39956 -2693.49941174,-3526119.77893 -2772.25674161,-3526273.12573 -2949.70055155,-3526611.66285 -3099.52697204,-3526816.25348 -3126.38103582,-3526852.21807 -3606.77951551,-3526891.7202 -3713.8294268,-3526901.11458 -4083.93113598,-3526931.1647 -4326.85013685,-3526931.46992 -4399.02848851,-3526934.24828 -4983.60528557,-3526778.65641 -5063.79263493,-3526752.58547 -5105.22948068,-3526741.32325 -5281.01895094,-3526721.94438 -5359.83521675,-3526716.84264 -5511.1223402,-3526698.02931 -5698.91355122,-3526678.36304 -5986.16807352,-3526644.96335 -6098.54359654,-3526635.95733 -6394.49294768,-3526563.22331 -6822.93695565,-3526460.34558 -7339.33466458,-3526161.08397 -7353.22670975,-3526152.83253 -7431.91627355,-3526070.25115 -7694.11058504,-3525814.97166 -7836.95833504,-3525680.04198 -8332.37432008,-3525295.43032 -9001.12554387,-3524931.38032 -9149.7636163,-3524907.01954 -9166.80642211,-3524904.32212 -9686.93317891,-3524818.05731 -9705.57242093,-3524809.88972 -9731.37769111,-3524806.34767 -10181.1099895,-3524602.36944 -10183.6261797,-3524601.41426 -10554.5654585,-3524387.04302 -10778.7454539,-3524288.53993 -10861.660105,-3524009.58712 -11074.8576154,-3523867.90132 -11255.2360479,-3523674.14906 -11544.7693463,-3523681.77165 -11824.0838425,-3523786.68601 -12147.6251833,-3524019.34774 -12426.2680159,-3524049.27156 -12607.4591489,-3523908.51767 -12788.1040874,-3523756.25706 -13119.1493661,-3523593.16093 -13370.8438035,-3523507.63873 -13534.7895359,-3523494.04379 -13751.0697342,-3523474.87645 -13753.5682716,-3523474.92065 -13763.0892357,-3523473.5895 -13864.5921864,-3523528.37084 -13878.9687823,-3523535.12342 -14028.6163581,-3523609.25157 -14237.0528261,-3523694.4172 -14305.7762352,-3523723.12564 -14314.7179484,-3523726.28303 -14721.6595751,-3523624.51181 -14725.6926146,-3523622.5837 -14728.226525,-3523620.62906 -15118.5129613,-3523330.11287 -15364.9104409,-3523148.52089 -15746.6359362,-3522889.84309 -15752.4621648,-3522885.44733 -16449.6886625,-3522862.2882 -17037.3174049,-3522931.16579 -17348.4299743,-3522962.66134 -17561.9988069,-3522983.93394 -17792.7285076,-3523010.00887 -18042.9562313,-3523035.92875 -18180.0513502,-3523056.84861 -18958.0492534,-3523173.08171 -18979.0551122,-3523172.45345 -19337.4042948,-3523161.79496 -19907.7680349,-3523147.3874 -22443.5478616,-3523068.75555 -29658.2531094,-3522853.86291 -29721.2734355,-3522851.97726 -29732.2765655,-3522851.67181 -29699.4293123,-3522475.66886 -29688.7091629,-3522318.5119 -29611.7719614,-3521537.81426 -29493.3639327,-3512810.58019 -29555.3929076,-3512808.17466 -34523.7325328,-3512744.79891 -34773.2381132,-3512741.69868 -35556.6153326,-3512740.01082 -36051.7660851,-3512740.24055 -36768.1189315,-3512740.86977 -36791.477423,-3512720.28545 -37157.975667,-3512390.30842 -37599.032695,-3512013.65334 -37589.4799748,-3510938.68544 -37583.1306209,-3509880.27186 -37532.0173857,-3509163.50627 -37417.3734934,-3508094.18924 -37337.6513436,-3506872.51794 -37271.0819687,-3505840.54351 -37196.0442693,-3505374.81219 -37147.595676,-3505031.52561 -37037.1819116,-3504260.73152 -36673.9127029,-3504265.83798 -35947.6168804,-3504276.55477 -35946.9903592,-3504269.54514 -35671.4363969,-3501803.18873 -35181.2528529,-3498378.26356 -34840.0481677,-3495619.3356 -34835.5417091,-3495619.75636 -30563.1642482,-3496035.11522 -28035.4278983,-3496280.64796 -28033.854416,-3496270.62266 -28021.8345837,-3496271.91116 -28011.6487969,-3496197.24964 -27676.0987347,-3493628.45905 -27427.9246082,-3491790.53749 -27282.2172795,-3490664.74848 -26758.1007669,-3486758.994 -26627.7742196,-3485823.93582 -27982.7813811,-3485548.25216 -29631.2853361,-3485212.2228 -30447.6855697,-3485036.07053 -30446.7561486,-3485032.05515 -30330.306168,-3484702.58945 -29280.4903486,-3481737.38164 -32136.4752407,-3481173.01848 -33293.2264366,-3480944.32148 -34039.7341186,-3480791.92387 -37142.743784,-3480183.37176 -37932.5778211,-3480026.72878 -40828.77695,-3479783.47002 -43965.0702509,-3479519.91153 -46740.5809093,-3479306.52437 -51674.6020766,-3478903.93621 -53797.2570747,-3478706.11049 -57868.8760268,-3478382.40227 -59234.8854085,-3478257.8204 -64026.2580368,-3477690.72053 -71107.276474,-3476879.18237 -77294.9908164,-3476196.97874 -95538.4474805,-3474111.66408 -95375.4725424,-3467546.43367 -88146.0494783,-3462471.29178 -90294.7977446,-3448879.6347 -92599.0202202,-3434302.39045 -93018.3989726,-3432210.17786 -94052.2512284,-3426637.5965 -94088.3108362,-3426432.72012 -89949.8700409,-3425577.83619 -82566.8730165,-3424052.69652 -82109.4783265,-3424003.76168 -81166.5188139,-3423901.40464 -81152.0407631,-3423900.1535 -80684.185681,-3423849.03853 -80353.5703785,-3423812.80425 -74157.0649977,-3423145.3707 -71549.5602581,-3422863.18565 -66245.6703593,-3421992.33606 -63854.1068424,-3421600.44259 -58332.9782181,-3420822.92549 -57808.54543,-3420749.35635 -57797.5756009,-3420747.66666 -56878.1354712,-3420618.76816 -56337.2545343,-3420542.41651 -53150.7010091,-3420158.32965 -53124.2548034,-3420155.37255 -50397.4733831,-3419826.75242 -48703.1692852,-3419623.98245 -46013.1853237,-3419092.05134" style="stroke-linejoin:round;stroke:#000;stroke-width:1px;fill:none" /></g></g></svg>