<svg xmlns="http://www.w3.org/2000/svg" baseProfile="full" height="65843.2492481" version="1.1" viewBox="-28741.609159,3152207.841849,105235.327601,65843.249248" width="105235.327601"><defs><style type="text/css">polyline,line,rect,path,polygon,.polygon{fill:none;stroke:#000;stroke-width:1px;stroke-linejoin:round;}</style></defs><g fill_rule="evenodd" transform="scale(1,-1)"><g class="hogares departamen mujeres departam_1 toponimo_i tot_pob varones viv_part viv_part_h" id="18063"><polygon class="_18063" id="None" points="60386.0610466,-3152561.80259 60877.6020696,-3152821.45917 61194.5332772,-3153083.97783 61651.2348849,-3153235.14692 62030.1665989,-3153251.32031 62438.3500142,-3153205.51509 62909.4409638,-3153096.04952 63207.4517553,-3153020.63715 63578.0902016,-3152901.29464 63944.1656204,-3152788.20775 64220.3629726,-3152636.75135 64475.2370298,-3152501.07697 64724.0774258,-3152417.9305 64926.2247213,-3152380.50998 65123.9075401,-3152419.84402 65348.9245333,-3152574.58744 65618.6232365,-3152752.2547 65864.40827,-3152852.02551 66109.3120891,-3152876.87813 66453.1526653,-3152903.76308 67041.2594787,-3152922.77047 67499.3603464,-3152966.08536 68033.6722007,-3152982.61677 68561.1736997,-3153269.67994 68895.688545,-3153620.37722 69136.4923971,-3153873.37571 69606.7344193,-3154058.38119 70139.2644603,-3154116.7167 70625.4886487,-3154226.70507 71166.8533561,-3154544.11537 71480.7562923,-3155059.45554 71777.8335184,-3155407.08346 72198.2362314,-3155750.18662 72598.326446,-3155864.24683 72997.0785267,-3156041.93687 73460.4885727,-3156198.55185 74024.2954613,-3156487.15888 74356.6767375,-3156697.93491 74576.6971869,-3156921.45631 75291.9167932,-3157761.18552 75512.6318656,-3158393.20899 75509.0121906,-3158521.0248 75476.7472493,-3158635.80696 75299.3427204,-3158816.60154 75156.0895656,-3158896.3917 74912.842425,-3159003.52251 74471.9889162,-3159102.6302 74172.1769414,-3158973.15861 73613.1733717,-3158980.64662 73912.3387218,-3159444.26725 74142.5231952,-3159801.15826 74468.6839951,-3160282.87349 75047.6062753,-3160643.42019 75363.1859987,-3160839.86517 75567.1450536,-3160945.76119 75838.5534079,-3161150.03497 76219.0248615,-3161436.08098 76417.4703386,-3161663.45627 76434.3238096,-3161907.59169 76362.5437212,-3162109.33337 76349.5515452,-3162153.86238 76263.1706192,-3162436.47728 76205.5478934,-3162626.87587 76153.0992847,-3162797.5783 76152.8505941,-3162946.521 76172.7934051,-3163100.6049 76185.6777849,-3163199.54825 76167.5504628,-3163241.43308 76132.5886677,-3163261.0803 76071.7311014,-3163317.65678 75954.4502692,-3163499.02852 75784.2730006,-3163645.61501 75720.0514474,-3163703.90037 75624.2072699,-3163795.0202 75550.2472722,-3163863.86765 75495.301838,-3163912.11838 75223.3598298,-3164142.76751 74854.9443814,-3164325.08398 74489.3597413,-3164528.06955 74187.9069854,-3164686.6757 73775.6279739,-3164866.39136 73244.3767543,-3165109.94655 72549.419637,-3165485.29111 71828.4695884,-3165850.42152 71312.1211163,-3166140.1919 71240.753277,-3166172.63752 70560.4550603,-3166476.06036 69976.9220583,-3166771.20884 69931.7997104,-3166794.99752 69518.0440056,-3167013.5676 69459.8297979,-3167042.18061 69145.6698395,-3167196.6792 68907.9219991,-3167380.96208 68627.6507834,-3167674.76329 68365.1756696,-3167990.24909 68013.6208252,-3168302.6002 67561.0329674,-3168603.65895 67187.090512,-3168984.01154 66860.8820277,-3169251.03266 66518.5482456,-3169651.68135 66431.7127116,-3169751.67773 66120.5539124,-3170112.56644 65926.2589009,-3170567.63758 65791.877243,-3170745.71203 65610.8316792,-3170984.92323 65292.4564078,-3171478.87485 64979.7555825,-3171816.05033 64721.661084,-3172114.9125 64428.6311403,-3172456.77279 64206.0288033,-3172827.81223 63907.0341892,-3173192.41508 63496.5703117,-3173599.0508 63231.2653556,-3173871.09118 62922.4038798,-3174107.24245 62539.3810875,-3174386.47015 62057.417072,-3174610.57944 61618.6085592,-3174803.57219 61224.4395632,-3174942.50702 60689.4234155,-3175122.41429 60296.5720262,-3175373.00343 59891.830639,-3175684.9584 59516.3715604,-3176011.89255 59163.0591368,-3176389.03458 58793.2284807,-3176863.10816 58365.5289233,-3177325.57156 58090.4690702,-3177684.21475 57839.8134006,-3178036.30244 57568.8687069,-3178473.15363 57256.4116205,-3178844.68172 56944.7972253,-3179251.91801 56622.5079342,-3179655.3873 56220.5630065,-3179941.89014 55769.7908921,-3180279.26683 55547.0298752,-3180381.73028 55298.7031284,-3180495.79834 54883.289512,-3180690.31889 54411.3443204,-3180901.4502 54032.8718961,-3180977.34079 53482.6188665,-3181213.95947 53311.6850382,-3181258.40861 52990.2644958,-3181341.00441 52417.7801408,-3181450.4407 51891.5635123,-3181545.92733 51431.2672712,-3181677.33966 50991.2620407,-3181921.67049 50597.8657728,-3182172.39609 50476.5797377,-3182239.43364 50107.3765958,-3182442.38773 49702.0740136,-3182769.40181 49200.7889113,-3183201.04955 48848.0553598,-3183542.02355 48418.533413,-3183984.88852 48050.7474731,-3184338.78012 47636.8171877,-3184678.30971 47284.0815432,-3185072.45775 46937.2776141,-3185496.52548 46673.8420035,-3185911.66618 46334.69926,-3186300.96763 46012.4217072,-3186705.06713 45803.077412,-3186891.64584 45621.3304179,-3187052.07771 45550.5654649,-3187109.36811 45360.0528019,-3187264.91098 45197.7940741,-3187396.74708 44815.2155497,-3187737.25005 44476.999006,-3188011.76178 44110.2327808,-3188335.83848 43581.8421198,-3188725.64985 43022.8235176,-3189049.91088 42459.8369179,-3189465.35409 41662.8022426,-3189887.69524 41462.6055556,-3190229.2076 41110.4381684,-3190465.41956 40649.4494656,-3190754.47422 40308.0707407,-3191041.65661 40029.5771445,-3191272.55359 39778.5664668,-3191551.33521 39443.2009241,-3191975.75843 39159.1241209,-3192485.26291 38830.2988253,-3193024.5381 38559.9011238,-3193454.65642 38255.931007,-3193978.9001 38048.7469551,-3194327.3725 37828.5311665,-3194681.67171 37796.2215321,-3194734.47134 37704.2401248,-3194892.54607 37661.3230987,-3194965.41964 37563.892289,-3195131.30584 37273.5730096,-3195636.29221 36945.6620703,-3195977.30082 36579.8865282,-3196256.20582 36111.0463735,-3196630.32532 35614.240467,-3197032.62275 35193.2878175,-3197470.19538 34706.0766107,-3197905.17034 34280.9103258,-3198467.7574 33960.5398563,-3198953.90336 33600.4538729,-3199584.28467 33179.6975585,-3200304.62937 32572.1955791,-3201343.86391 31843.1723775,-3202295.70639 31548.0809525,-3202750.42572 31362.2766782,-3203196.96865 31084.3643063,-3203701.2565 30772.8602432,-3204148.12727 30430.5174017,-3204632.31661 30007.0028149,-3205189.4408 29571.4503264,-3205707.11355 29184.2111297,-3206279.2629 28708.0611942,-3206950.2094 28357.4858878,-3207347.01784 27871.3726604,-3208025.10369 27545.8911328,-3208561.41731 27189.9969797,-3209141.48936 26820.4014797,-3209611.64373 26280.7808762,-3210261.9907 26066.2934469,-3210476.41904 25831.2773193,-3210703.6335 25238.1698639,-3211281.48918 25021.8379753,-3211490.58079 24802.3028158,-3211703.86153 24570.7544812,-3211878.1747 24381.7532723,-3212019.36551 24163.4728112,-3212183.86011 23669.3460345,-3212461.47953 23122.6607393,-3212786.3093 23043.3550603,-3212827.32633 22454.8757923,-3213136.5295 21734.0354489,-3213436.07923 21694.2648087,-3213458.58464 21379.8294564,-3213634.9037 20789.4742333,-3213961.1479 20728.6127451,-3213995.48376 20334.7927996,-3214219.2968 19895.8198582,-3214466.9691 19317.1377801,-3214782.02175 19247.3336068,-3214816.45241 18927.7181098,-3214974.73657 18718.831531,-3215078.49254 18461.426069,-3215207.81992 17960.4096031,-3215457.11722 17719.3287947,-3215592.82698 17449.7692032,-3215733.89719 16841.9272709,-3216051.89506 16296.6665984,-3216226.08116 16116.1755691,-3216285.71753 15244.2958962,-3216587.85129 15104.0385807,-3216624.45168 15029.1912793,-3216642.81487 14702.708454,-3216720.04502 14505.5886765,-3216768.85084 13856.6393526,-3216924.04303 13303.6332937,-3217086.82372 12493.1610822,-3217318.30835 11743.3559349,-3217505.02607 10931.9862268,-3217708.24139 10512.7898873,-3217721.99843 10441.7747093,-3217723.20704 10129.5530889,-3217745.81014 9131.36303144,-3217815.69255 8894.15883549,-3216948.85478 7039.21516179,-3210148.35948 5626.93295899,-3211050.33302 5262.19419422,-3211219.54779 4969.39068529,-3211356.1811 3920.48487826,-3211842.45979 2827.18717897,-3212349.58143 972.577510816,-3213211.21851 515.019554907,-3211323.46641 348.626564957,-3211424.43136 211.293096397,-3211506.07842 124.027068509,-3211547.6302 10.8136777312,-3211595.36693 -67.3659317208,-3211623.88885 -164.638279309,-3211672.06738 -305.258154741,-3211734.04179 -456.080046732,-3211799.67223 -609.35108184,-3211873.42061 -752.806473066,-3211930.11283 -893.2741906,-3211964.23139 -991.586085121,-3211989.10797 -1127.9361376,-3212032.90084 -1283.83998666,-3212051.62687 -1404.91098741,-3212055.62599 -1463.03622107,-3212056.47218 -1563.78643523,-3212074.54785 -1652.13184313,-3212099.76262 -1748.01748839,-3212101.10773 -1921.53103422,-3212139.39347 -2063.30489916,-3212108.45529 -2205.09067983,-3212092.4361 -2359.12466326,-3212079.21288 -2423.15417075,-3212073.48599 -2481.14372589,-3211729.20855 -3264.94888599,-3207309.24169 -3275.45778044,-3207247.77266 -4023.01402641,-3207359.11709 -4147.08074672,-3206334.90326 -4754.37086262,-3206378.82462 -7895.56933529,-3206595.37266 -8720.38055802,-3202770.93184 -7028.29666774,-3201502.0278 -6973.69300144,-3201462.63544 -3656.74305298,-3198591.83088 -3415.87021864,-3198382.58544 -2540.65421245,-3197807.00669 -3004.31850454,-3197576.36234 -3066.13851563,-3197543.62022 -3327.48489999,-3197448.38249 -3858.13496263,-3197288.26207 -3989.56034952,-3197248.15019 -4460.29343961,-3197167.63768 -4991.39893464,-3197084.12102 -5488.41657074,-3197004.83085 -6021.69036821,-3196994.55386 -6197.45802865,-3196991.1632 -6520.42125501,-3196995.43737 -6792.52971978,-3197009.30575 -7465.72452007,-3197042.02038 -8031.93582599,-3197068.21526 -8095.84705507,-3197071.90963 -8648.69673827,-3196945.5453 -9047.06809708,-3196641.94631 -9428.61994778,-3196352.15942 -9899.26108667,-3196175.13519 -10389.6592209,-3196220.21927 -10822.0338825,-3196391.80207 -11448.5847598,-3196499.52842 -11605.0409305,-3196510.28456 -12117.196259,-3196542.37434 -12416.4579222,-3196574.92801 -12673.5376306,-3196613.66836 -13214.9468249,-3196700.39689 -13258.0808979,-3196717.64876 -13960.5870953,-3197002.45039 -14359.273095,-3197164.87489 -14519.2045027,-3197236.54008 -14620.5105668,-3197284.46591 -14664.8391211,-3197306.2733 -15264.3251211,-3197592.28971 -16213.2928661,-3197858.45832 -16695.7344438,-3198063.69252 -17060.0707752,-3198226.86218 -17502.6936965,-3198455.35519 -17955.6476358,-3198678.06303 -18274.5643072,-3198813.38943 -18731.7884987,-3198978.68249 -19182.2437508,-3199171.38945 -19586.6165199,-3199338.69148 -19945.986162,-3199471.70476 -20211.8684163,-3199589.1341 -20522.581328,-3199698.06508 -20932.4314226,-3199789.62519 -21398.9894565,-3199797.85461 -21792.4593377,-3199722.19357 -22342.1761347,-3199676.18344 -22634.8878457,-3199673.00368 -22955.9781885,-3199525.43283 -23330.0051744,-3199382.32786 -23657.8128178,-3199276.48304 -23981.3440765,-3199122.10177 -24261.1323932,-3198974.7984 -24544.0008652,-3198742.62762 -24758.5114038,-3198566.66271 -24894.6277103,-3198387.54478 -25028.7382966,-3198155.562 -25212.7970141,-3197852.23195 -25396.164237,-3197551.8395 -25592.4749615,-3197311.99132 -25800.2034346,-3197125.62301 -25988.4518269,-3197001.15654 -26274.3577431,-3196828.86506 -26670.8513733,-3196654.36824 -26785.7502484,-3196639.5127 -26850.179011,-3196612.89149 -27162.7494333,-3196481.64433 -27371.0445192,-3196415.69779 -27533.1401513,-3196318.36532 -27696.1136778,-3196238.00468 -27967.0115462,-3196105.01658 -28121.1028679,-3196053.9225 -28251.3263661,-3195979.87128 -28304.0622103,-3195949.49704 -28476.4566788,-3195846.86601 -28638.9127608,-3195774.42839 -25507.8235291,-3193061.47693 -24844.918615,-3192488.26595 -24803.9966949,-3192452.25645 -24773.7777304,-3192419.93254 -24050.3826228,-3191790.54424 -23334.3148412,-3191155.68289 -23259.6474966,-3190685.18323 -23071.8733595,-3190339.10806 -22751.3138324,-3190007.72748 -22678.5806109,-3189933.32665 -22390.9945673,-3189698.62172 -22197.5797526,-3189545.19296 -22162.5788461,-3189517.53387 -21853.9638114,-3189231.7143 -21257.8749228,-3188930.07886 -20885.1447542,-3188909.67786 -20827.6569616,-3188906.41498 -20686.8055159,-3188907.6477 -20499.8034978,-3188914.81519 -20194.9674899,-3188951.58121 -19929.3780484,-3189110.79101 -19849.7229962,-3189043.40345 -19717.8441724,-3188930.31981 -19566.1382138,-3188671.69035 -19429.8878988,-3188442.92313 -19375.1509361,-3188420.44157 -19212.5233994,-3188351.60847 -19078.6385036,-3188139.91018 -18982.9685428,-3187914.29771 -18689.2601548,-3187606.10014 -18230.7789605,-3187124.98115 -17937.8286322,-3186789.98271 -17843.8600779,-3186682.86882 -17375.5575568,-3186215.05063 -17006.6073692,-3185855.69768 -16787.0640684,-3185683.67888 -16000.3183435,-3185050.33425 -15674.0463958,-3184806.69012 -15442.6197305,-3184633.90337 -15291.6555464,-3184516.11153 -15028.1606018,-3184308.90356 -14773.1551768,-3184154.47508 -14554.6146298,-3184012.87459 -14291.3011234,-3183840.99595 -14081.5868716,-3183731.80508 -13844.1991744,-3183566.59613 -13590.9969209,-3183399.85834 -13370.7921317,-3183245.72145 -13106.9692278,-3183036.01872 -12897.9415971,-3182870.6784 -12507.970258,-3182604.9973 -12328.8273517,-3182469.46264 -12176.0148072,-3182372.45085 -12047.2216724,-3182265.56927 -11164.0318536,-3182096.99876 -10737.1123831,-3181986.07188 -10505.0469566,-3181602.40806 -10518.0472797,-3181502.30138 -10614.3977394,-3181329.05949 -10716.5699977,-3181188.52274 -10779.7821143,-3181042.95584 -10724.8662852,-3180863.32064 -10589.9710871,-3180735.65744 -10542.9806401,-3180724.13616 -10369.2186177,-3180681.46453 -10323.3688676,-3180682.94794 -10205.6707295,-3180695.65612 -10119.5008227,-3180781.53763 -10066.8557922,-3180833.80054 -10036.1435265,-3181014.80674 -9914.65242361,-3181100.86845 -9785.99079425,-3181014.88985 -9724.9648361,-3180974.60296 -9586.69284488,-3180837.76963 -9442.25924261,-3180780.10382 -9319.43557856,-3180642.78805 -9112.89903112,-3180576.59413 -8922.76192169,-3180434.38933 -8430.96593004,-3180586.29297 -8107.95835464,-3180483.65549 -7884.49856203,-3180303.47372 -7780.82425547,-3180261.40025 -7660.13705213,-3180327.6201 -7615.93582007,-3180349.59984 -7534.56287923,-3180392.52611 -7415.0926226,-3180455.34371 -7276.7028588,-3180419.45835 -7202.29002112,-3180340.50653 -7120.85620535,-3180315.79789 -6996.55409431,-3180368.85133 -6854.49280126,-3180374.00104 -6671.84255586,-3180292.46154 -6464.88487007,-3180248.12381 -6381.94681601,-3180185.52438 -6228.47002377,-3180098.92811 -6114.7159457,-3179975.14267 -5997.25904027,-3179847.13798 -5855.41226903,-3179650.90816 -5754.05741443,-3179565.72612 -5720.09713296,-3179522.23691 -5660.20519413,-3179487.49842 -5461.90879528,-3179333.33638 -5216.23755156,-3179242.22069 -4970.27487628,-3179224.18413 -4758.54221936,-3179253.13422 -4658.64773633,-3179358.99706 -4594.14693606,-3179425.39921 -4549.07637039,-3179460.74728 -4402.00221586,-3179580.93473 -4184.14405928,-3179688.5465 -3998.05513674,-3179690.3266 -3872.20224421,-3179691.06474 -3699.6892729,-3179652.45885 -3392.19042305,-3179503.10941 -3205.76470011,-3179357.68343 -3111.18589733,-3179252.56087 -3039.87779211,-3179171.83015 -2750.47975067,-3178844.16261 -2549.18977524,-3178713.18544 -2485.26489436,-3178671.72245 -2356.42503206,-3178588.73219 -2164.50900618,-3178596.10204 -2103.0475407,-3178661.70524 -2006.9157623,-3178763.33337 -1808.18482369,-3178898.04597 -1604.06011242,-3179092.57025 -1393.65328281,-3179162.37636 -1338.52236826,-3179176.6794 -1043.79575661,-3179250.92742 -776.540768378,-3179262.32821 -653.72201538,-3179209.06739 -603.521916312,-3179208.77524 -477.376836192,-3179183.63907 -305.952401169,-3179113.28524 -195.555208049,-3179067.79662 -7.06255677806,-3178946.60854 96.0038609796,-3178880.21864 215.148549726,-3178740.18725 484.66219279,-3178481.45831 630.335977736,-3178206.94433 666.671168839,-3178138.94303 859.316664185,-3177974.72989 963.437037867,-3177886.39734 1349.82487977,-3177643.42256 1454.9026583,-3177577.40292 1709.52974812,-3177410.64368 1957.20356272,-3177190.6427 1992.55935647,-3177160.99155 2131.77610877,-3177039.05091 2174.69809136,-3177003.4375 2269.6151762,-3176911.23449 2313.93637276,-3176866.58065 2382.50604679,-3176804.93297 2572.93090267,-3176690.59339 2685.37934995,-3176638.51488 2770.31825801,-3176599.16826 3012.06904633,-3176456.12758 3080.11039231,-3176416.88878 3328.04880069,-3176262.01122 3514.28461744,-3176144.46836 3901.87477796,-3175950.65909 4154.26593319,-3175795.4957 4198.26289466,-3175768.7636 4469.79912111,-3175609.86814 5099.0703217,-3175089.09156 5350.67888017,-3174792.29713 5509.91287447,-3174588.52706 5545.28983142,-3174543.96365 5728.58085501,-3174274.49503 5832.26067908,-3174103.18253 5913.94120354,-3173968.10453 6020.80299841,-3173700.63639 6113.92682774,-3173527.52811 6194.67315638,-3173378.09552 6490.04469618,-3172928.82587 6555.26980562,-3172701.36076 6606.12966883,-3172352.53511 6766.6546205,-3171786.77698 6777.75495395,-3171354.04077 6756.13868761,-3171228.18056 6729.61896902,-3171072.81116 6932.69566208,-3170526.66166 6997.72764144,-3170448.85302 7231.90569295,-3170166.65153 7430.90213456,-3170054.27504 7757.86856192,-3169899.27003 8032.93159129,-3169741.18162 8074.15111321,-3169717.62023 8408.37854559,-3169559.66094 8708.20339564,-3169453.65367 8962.49678644,-3169343.15321 9227.61636294,-3169292.09993 9503.43518605,-3169214.50124 9730.70925277,-3169139.56447 9924.43027116,-3169060.84594 10263.1426134,-3168918.51108 10550.7702622,-3168716.86676 10756.5886246,-3168480.28146 10918.8351183,-3168253.98859 10951.1468329,-3168208.14263 11073.6127832,-3168035.1423 11177.6633806,-3167884.71543 11343.7622838,-3167664.14104 11373.4462082,-3167631.39109 11516.4531113,-3167468.49096 11641.946582,-3167280.88211 11832.5778139,-3166910.0886 12004.8775626,-3166631.95293 12038.2244151,-3166579.08264 12217.8658073,-3166291.52466 12430.9666882,-3165983.40211 12664.7341673,-3165649.08534 12694.3344529,-3165607.39558 12865.6054652,-3165374.56998 13191.0351979,-3165020.38483 13271.7900219,-3164932.12696 13308.4166796,-3164891.47278 13459.6550319,-3164740.47882 13642.5255314,-3164556.1155 13817.2191655,-3164368.30828 13953.3051013,-3164183.01052 14121.8975504,-3163954.84334 14244.6910243,-3163786.81421 14406.341932,-3163566.55646 14498.6736735,-3163442.26032 14538.726515,-3163385.48001 14661.9003599,-3163246.25808 14705.0388732,-3163198.72169 14809.5714831,-3163078.60514 14981.1808906,-3162919.83667 15128.9293118,-3162783.99177 15179.3315154,-3162733.49931 15417.7985839,-3162509.75243 15597.2754719,-3162342.02724 15636.5699791,-3162304.1859 16037.3625519,-3161985.40778 16212.6746975,-3161745.8867 16250.9286562,-3161661.39255 16309.2515013,-3161533.84489 16394.2102608,-3161211.71969 16427.4844791,-3161088.781 16497.9860985,-3160865.51108 16529.6594919,-3160771.50465 16579.259293,-3160540.14858 16628.4047342,-3160286.45622 16646.5682111,-3160183.38653 16652.6642944,-3160131.79694 16657.2814334,-3159965.48955 16702.2620022,-3159754.81309 16733.2010194,-3159611.15277 16746.4532258,-3159432.35703 17195.0124131,-3159619.9603 17400.6681044,-3159740.81397 17684.4721741,-3159848.14689 17965.2278465,-3159962.13746 18114.3137204,-3160038.4478 18408.564712,-3160168.95587 18715.6428774,-3160320.99531 19196.6529818,-3160526.35609 19333.8332846,-3160580.07607 19996.8226325,-3160855.62511 20217.723143,-3160951.12386 20514.2081703,-3161062.58936 20930.0398042,-3161198.11383 21482.5680658,-3161395.33379 21941.7047879,-3161570.284 22393.9421857,-3161707.90853 23230.4094293,-3161854.3777 23941.3851364,-3161882.26413 25166.6162667,-3161855.39061 25648.6145231,-3161801.23661 25968.1166069,-3161785.4619 26507.3420798,-3161747.9674 27471.0630041,-3161704.77716 27976.5288152,-3161514.93336 28505.9563112,-3161181.42048 29242.6327456,-3160840.92172 29737.7280237,-3160744.18844 30219.3530607,-3160746.21915 30525.9786927,-3160777.49644 30881.6764387,-3160868.19577 31022.9434262,-3160962.37838 31141.6359863,-3161045.60371 31389.2947595,-3161278.46543 31744.077559,-3161837.27951 31676.721664,-3162261.51773 31539.9000145,-3163115.60152 31269.5877077,-3164790.27986 31188.1821098,-3165387.86273 30576.3533402,-3169823.69374 31477.471772,-3169835.09845 35162.83589,-3169866.48524 35401.0899235,-3173257.40716 36830.7863582,-3173291.92411 41557.7404833,-3173402.16684 42605.9455065,-3173447.61003 41352.1001587,-3174545.78249 41891.2792599,-3178560.99079 42548.9047538,-3178285.06308 43008.6884061,-3178091.10921 43056.4460104,-3178084.51425 44527.4130709,-3177879.20509 45098.1038332,-3178113.68319 45576.0916817,-3177757.60022 45985.4203083,-3177453.19672 46593.1247295,-3176999.24648 46867.3370957,-3176687.27945 46976.3793099,-3176569.39062 48547.5416945,-3174696.04769 48860.6886807,-3174912.56233 49071.4812514,-3174976.30306 49148.436895,-3174998.60356 49349.7666636,-3175153.36293 49688.2412278,-3175088.07251 49892.3851306,-3175072.77093 50326.3461452,-3174864.65949 50531.1863764,-3174684.90442 50622.2144813,-3174595.52201 50672.6315252,-3174546.04088 50893.847571,-3174282.27179 50920.6316054,-3174228.37189 51037.2303359,-3173990.30129 51092.51931,-3173878.41649 51247.1379027,-3173659.72365 51296.3719744,-3173630.18907 51564.583584,-3173470.15292 51743.2642506,-3173277.70967 51934.0988442,-3172692.58965 51963.4646809,-3172632.56344 52110.9504029,-3172334.87422 52477.9972579,-3171694.57457 52498.0299167,-3171658.99846 52553.834918,-3171600.72787 53135.8098962,-3170981.20719 53235.6032546,-3170873.88239 53815.3484006,-3170677.68287 53905.3518626,-3170633.57742 54050.0663593,-3170491.5428 54205.96693,-3170063.69754 54145.617998,-3169861.51344 54290.7987624,-3169291.82868 54462.7047966,-3168880.82828 54806.1639009,-3168602.69404 55014.2432071,-3168251.42789 55501.5184858,-3167298.43913 55847.6898502,-3166542.87563 56018.4991657,-3166168.22625 56190.3917861,-3165878.93049 56444.4957223,-3165593.72674 56644.2762384,-3165366.68763 56862.5631831,-3165172.21777 57058.799617,-3165035.79856 57119.2060927,-3164987.17482 57247.9820128,-3164798.52804 57385.6031243,-3164623.7093 57590.5748339,-3164507.08727 57878.4259105,-3164366.70374 58065.02922,-3164173.80618 58193.8922344,-3163933.01551 58251.4850549,-3163772.34307 58315.1639472,-3163560.12469 58494.0385769,-3163416.40205 58903.5916072,-3163314.79964 60263.7212778,-3154038.6061 60310.9309478,-3153770.8707 60386.0610466,-3152561.80259" style="stroke-linejoin:round;stroke:#000;stroke-width:1px;fill:none" /></g></g></svg>