<svg xmlns="http://www.w3.org/2000/svg" baseProfile="full" height="111132.888955" version="1.1" viewBox="28547.115384,3374952.865792,84360.254345,111132.888955" width="84360.2543451"><defs><style type="text/css">polyline,line,rect,path,polygon,.polygon{fill:none;stroke:#000;stroke-width:1px;stroke-linejoin:round;}</style></defs><g fill_rule="evenodd" transform="scale(1,-1)"><g class="id" id="18119"><polygon class="_18119" id="None" points="112554.227073,-3410656.23113 112287.153159,-3410906.03565 111866.632136,-3411083.0998 111543.511612,-3411276.24413 111219.338528,-3411482.86514 110869.972722,-3411605.36886 110547.978386,-3411728.95397 110433.06007,-3411753.79971 110086.716371,-3411776.82716 109790.798046,-3411861.37988 109470.798043,-3412006.67031 109116.300017,-3412148.39902 108893.794528,-3412232.33047 108697.763654,-3412325.84268 108626.634754,-3412345.17113 108567.347271,-3412370.62741 108513.833504,-3412436.38551 108490.362463,-3412613.23196 108601.599747,-3412699.82538 108715.041091,-3412760.95073 108832.182283,-3412997.0363 108921.790649,-3413136.75076 108909.478646,-3413309.84388 108788.469646,-3413361.42415 108563.266694,-3413470.86419 108241.225899,-3413593.97413 107778.261669,-3413896.62629 107412.792401,-3414173.65516 107075.654098,-3414379.72407 106738.610566,-3414572.88306 106387.956925,-3414848.89461 106105.276526,-3415167.34921 105710.699437,-3415582.92938 105385.718267,-3415971.34559 105005.482266,-3416414.7352 104708.72491,-3416859.28375 104420.807534,-3417566.82306 104015.575616,-3418057.64391 103713.05295,-3418440.56082 103365.057853,-3418690.62065 102929.399133,-3419022.23548 102521.656755,-3419312.69687 102142.089483,-3419629.99849 101746.410942,-3420144.02735 101365.027832,-3420656.57478 101034.677965,-3420939.19549 100943.707132,-3421016.0195 100520.235533,-3421487.32529 100294.194832,-3421806.39051 100081.675596,-3422084.30403 99826.5345134,-3422570.23006 99613.7622344,-3422987.18187 99581.3018332,-3423448.18778 99633.3542572,-3423853.66433 99798.1522302,-3424259.73193 99893.6033323,-3424553.9528 99973.6553982,-3424876.55115 100027.341708,-3425184.10441 100024.839715,-3425518.90471 99993.5852069,-3425811.52134 99879.828145,-3426145.63187 99611.1757261,-3426451.31246 99274.5708117,-3426629.66499 98884.03169,-3426653.89288 98365.8030469,-3426705.3866 97918.5511502,-3426827.90093 97470.649047,-3426976.77727 97076.7677593,-3427309.57374 96766.3516601,-3427557.61356 96430.1370427,-3427805.96484 96147.4521923,-3428138.4736 95893.0333829,-3428513.2072 95694.3741619,-3428847.31504 95439.2507836,-3429347.2319 95295.6488105,-3429723.18942 95166.2716764,-3430224.77452 94995.3603134,-3430600.65633 94712.1443036,-3430961.03723 94430.5728375,-3431266.68784 94106.0910651,-3431654.78381 93823.2336591,-3432098.57435 93597.3408401,-3432348.21414 93273.4799029,-3432638.4592 92852.2459536,-3432928.05554 92458.9122541,-3433204.7849 92037.6842359,-3433466.08563 91684.8286363,-3433895.92399 91374.2424646,-3434312.38953 90980.2288606,-3434657.7152 90669.7957615,-3434934.14278 90126.9122864,-3435252.63056 89343.6778093,-3435649.49114 89290.3407764,-3435675.06715 89048.6570054,-3435862.28472 88775.9432397,-3436074.51586 88342.4003862,-3436501.10127 88015.8998548,-3436981.30013 87264.3501015,-3437668.50611 87032.0470847,-3437904.74943 86633.4751816,-3438313.03067 85901.5671863,-3439032.67647 84495.2034334,-3440121.84102 83091.5681335,-3440781.74456 81637.2466664,-3441172.0448 80107.4863026,-3441698.77211 78736.1034423,-3441877.16721 77559.0459615,-3441638.61871 76685.813786,-3441440.39998 75811.9594322,-3441318.71579 74974.5830249,-3441349.4645 74057.9651644,-3441760.32312 73215.462181,-3442399.9966 72522.6463912,-3443269.16921 71564.6133434,-3444096.81791 70759.7297988,-3444812.92355 69916.229318,-3445566.53436 69151.7130827,-3446093.05146 68344.7150828,-3446999.16679 67803.9891929,-3447869.26678 67301.2516419,-3448777.96463 66837.2980509,-3449686.94568 66335.2101448,-3450519.61779 65757.4247508,-3451427.67731 65234.2532244,-3452023.36374 65027.1499927,-3452258.50876 64867.5056995,-3453170.07056 64859.5195544,-3454082.92193 64850.3065666,-3455147.91196 65031.6610146,-3456138.40445 65210.8536515,-3457394.88274 65354.368455,-3458348.27506 65308.0789214,-3459336.87134 65108.8880362,-3460362.56065 65064.7992917,-3461085.17371 64982.0118697,-3461843.805 64744.6236569,-3462869.72413 64624.3869449,-3463667.77572 64383.3859445,-3464253.70566 64312.966415,-3464425.12979 63889.4714993,-3465030.3787 63502.9883239,-3465674.27712 62965.3171799,-3466316.41292 62313.6472751,-3466842.85638 61396.8031821,-3467329.85346 60633.3789091,-3467589.38175 59794.0402013,-3467886.07124 59068.4192086,-3468146.42748 58304.4259586,-3468595.8629 57308.9228388,-3469272.3542 56312.6647893,-3470100.51128 55622.1855672,-3470817.6757 55082.9974154,-3471572.89851 54698.6947401,-3472064.72283 54159.6838254,-3472744.91043 53905.348725,-3473352.83715 53535.570406,-3473761.65167 53268.8741791,-3474208.42847 52998.8519407,-3474579.8938 52928.218852,-3474769.28513 52862.5787018,-3474944.90426 52841.5210832,-3474991.62247 52687.9744809,-3475358.35228 52568.767749,-3475810.14209 52410.3839375,-3476354.66909 52362.0993821,-3476832.27417 52253.1232907,-3477182.44669 52024.2930979,-3477524.68482 51748.7081003,-3477845.37608 51563.0763353,-3478151.76235 51305.8835943,-3478444.31878 51037.0405586,-3478726.76586 50664.9509851,-3479081.6301 50215.2005044,-3479448.94761 49671.0294321,-3479844.8175 49226.4604675,-3480173.00859 48892.0779175,-3480407.4169 48471.5783266,-3480569.87046 47975.7695166,-3480806.25176 47505.5671602,-3481243.15351 47062.9079594,-3481549.36079 46550.0901744,-3481889.86499 46073.5137159,-3482236.76094 45455.1400038,-3482596.17774 44997.5442096,-3482972.56737 44350.9523345,-3483298.69755 43841.7560337,-3483634.50418 43375.9113975,-3483915.54479 42925.2799731,-3484109.50334 42521.5336489,-3484354.8365 42074.645281,-3484594.77381 41544.1387409,-3484854.55295 40917.9599664,-3485244.90771 40344.5754242,-3485404.81245 39808.6052285,-3485510.36253 39210.9110608,-3485593.92989 38708.148789,-3485585.75572 38168.7630892,-3485537.90841 37516.2395041,-3485409.06159 36995.2148881,-3485311.67803 36460.5841873,-3485260.99972 36352.4419388,-3485166.22074 36225.6528733,-3485053.86561 36034.8671637,-3484887.36339 35731.3545517,-3484715.90631 35469.684732,-3484489.2764 35209.535493,-3484312.26111 34985.1386218,-3484099.39951 34793.0342587,-3483998.61945 34585.2122045,-3483935.74673 34345.2882888,-3483840.83317 34070.388212,-3483680.26797 33892.3698754,-3483497.43494 33775.1052607,-3483308.81298 33697.818827,-3483108.91016 33709.1044163,-3482945.01161 33816.4236525,-3482760.89782 34009.3693417,-3482676.64662 34221.1698259,-3482711.39798 34405.5910975,-3482879.35876 34513.4620711,-3483103.94769 34841.7036486,-3483336.82071 35250.8566647,-3483539.60357 35861.1946682,-3483584.94949 36287.9385201,-3483537.36641 36763.6476341,-3483352.56595 37012.1968922,-3483175.87646 37067.7076609,-3482983.50265 37023.7841112,-3482784.23797 36757.0582227,-3482485.86666 36528.8598569,-3482127.5873 36498.1915042,-3482024.34289 36381.4767681,-3481632.32407 36372.4336834,-3481532.52304 36338.9260273,-3481163.9588 36231.7169306,-3480688.22919 36230.0537697,-3480552.10616 36227.8962219,-3480416.01814 36088.5137767,-3479878.91509 36043.3998743,-3479500.72821 35987.4668055,-3479222.75096 36030.1726601,-3478933.33165 36067.4787528,-3478813.84859 36141.841465,-3478578.38135 36227.2203701,-3478224.29507 36338.4588509,-3477968.82338 36387.9815888,-3477691.35776 36405.802906,-3477591.64982 36459.8322326,-3477251.21756 36513.1711625,-3476978.45687 36633.9897027,-3476724.80038 36821.245231,-3476468.44497 36850.1854519,-3476427.61967 37082.3828434,-3476096.49644 37270.4558898,-3475753.07678 37499.9707671,-3475461.42842 37653.7689031,-3475322.79464 37954.8844005,-3475306.02267 38385.0804764,-3475371.12944 38814.5339724,-3475432.80644 39212.2168595,-3475495.23208 39491.4564252,-3475471.54931 39726.1195178,-3475344.61491 40000.6802699,-3475170.11999 40332.4280974,-3475016.94767 40446.3697489,-3474990.01518 40720.2446518,-3474869.26717 40948.7977671,-3474733.32272 41073.5168571,-3474704.13904 41338.2200922,-3474643.70056 41689.2059399,-3474502.60043 41872.0805303,-3474353.476 41962.2117619,-3474115.93818 42102.6981022,-3473873.35779 42125.3452965,-3473595.34124 41825.2086383,-3473533.9834 41580.1092557,-3473484.65173 41533.7244977,-3473475.49434 41236.4194738,-3473404.98571 40858.2651705,-3473259.63685 40519.9388283,-3473065.73682 40382.6938433,-3472994.87367 40164.9591109,-3472882.45453 40118.5446761,-3472865.84056 39729.9540639,-3472727.68228 39472.4179819,-3472551.44432 39106.834051,-3472521.03938 38792.1353199,-3472408.49025 38710.9970742,-3472378.91052 38630.7544972,-3472220.99299 38593.121236,-3472145.58757 38730.720415,-3471875.85841 38753.4818964,-3471831.99306 38949.7299454,-3471533.76984 39298.7803744,-3471259.08477 39485.4267476,-3470951.60041 39565.027281,-3470663.09723 39591.0896329,-3470567.29443 39683.2343114,-3470280.39482 40086.3883658,-3470145.59269 40458.450084,-3470373.92553 40789.6886884,-3470502.7159 40912.990496,-3470665.05055 41102.4377612,-3470714.83875 41220.8772542,-3470638.87793 41354.9444082,-3470551.87294 41413.546363,-3470494.54724 41541.4310639,-3470369.20046 41597.9429355,-3470317.49118 41773.3168487,-3470153.50102 41891.0591146,-3469919.49734 41976.5491138,-3469679.31578 42022.6769241,-3469550.78407 42110.0832291,-3469267.21718 42031.3309767,-3469045.56831 42007.5842013,-3468976.64605 41943.8540538,-3468678.86893 41952.3237453,-3468439.14407 41952.6856614,-3468394.87241 42033.5488933,-3468053.60306 41872.7667591,-3467789.50615 41683.055614,-3467622.8973 41472.8594813,-3467483.08422 41263.3313567,-3467381.00645 41087.598392,-3467123.42482 41123.4606346,-3466813.65918 41040.4968763,-3466574.40279 41012.2457629,-3466490.88101 40789.2427903,-3466607.00376 40272.9874536,-3466773.60026 39770.7441677,-3467019.25677 39373.9819613,-3467322.62083 39086.8590664,-3467559.10609 38801.5761659,-3467687.57681 38521.3850695,-3467846.01825 38422.9196552,-3467902.17237 37981.3889294,-3467986.46061 37550.6761727,-3468026.73229 37093.0419492,-3468023.65481 36739.5242778,-3467931.70496 36349.6019695,-3467845.29974 35935.6784923,-3467728.76122 35547.9236646,-3467694.40638 35470.9788669,-3467674.96289 35365.5959901,-3467647.07995 35212.0264088,-3467605.68393 34814.4066603,-3467537.21591 34770.6306746,-3467529.85604 34409.8930409,-3467434.42608 34205.5756556,-3467392.62262 33902.4012568,-3467330.92716 33613.5100836,-3467295.5728 33544.6532054,-3467278.04429 33350.0744472,-3467247.48689 33166.5437271,-3467126.64969 33055.2437141,-3467007.68906 32891.9058762,-3466940.62206 32813.7418283,-3466833.25089 32782.8796813,-3466776.2519 32865.0681974,-3466651.13148 32956.7548583,-3466533.79605 33049.7078655,-3466455.65328 33131.5795201,-3466396.68814 33190.3449141,-3466299.07347 33225.6542104,-3466193.16498 33210.6849638,-3466079.3582 33142.9411474,-3465978.71209 33025.4037974,-3465912.39751 33020.0471968,-3465765.59396 33037.8562234,-3465601.7465 33112.8266324,-3465487.08148 33244.2020411,-3465368.44874 33365.9501124,-3465296.73596 33484.2323345,-3465161.62244 33592.5787662,-3465097.31709 33652.1633909,-3465060.80606 33759.8660995,-3464937.87415 33851.8921462,-3464867.75648 34063.7421642,-3464804.62441 34182.2538996,-3464750.54419 34381.0147004,-3464699.27223 34448.0093735,-3464541.91489 34464.4458451,-3464408.00253 34530.2614086,-3464198.52149 34519.2930936,-3464049.63166 34436.3488765,-3463959.00531 34350.2976011,-3463930.25178 34257.5866499,-3463948.2075 34144.3777435,-3463999.92385 34048.7868818,-3464033.49598 33940.513393,-3464063.48516 33762.3798778,-3464089.93463 33561.4317359,-3464103.07193 33360.3011616,-3464120.69705 33155.1266566,-3464151.53444 32915.293642,-3464205.69294 32712.0540061,-3464242.85857 32545.4540239,-3464221.26028 32363.3557211,-3464120.69689 32209.8775574,-3464024.08694 32046.5997132,-3463872.97212 31957.3243537,-3463784.27725 31895.9004528,-3463723.95529 31764.4982277,-3463573.58079 31666.8506394,-3463387.02 31634.222108,-3463269.4791 31586.5334859,-3463156.97478 31505.6433683,-3463060.22983 31407.5206976,-3462951.76771 31272.9334401,-3462869.23888 31106.1223479,-3462781.01878 30932.973123,-3462609.70623 30742.2959247,-3462344.65024 30677.4993744,-3462236.32915 30600.955916,-3462109.44069 30542.4023941,-3462012.11703 30501.3090994,-3461943.89833 30381.8409915,-3461743.94629 30166.0894505,-3461497.05578 30134.1838575,-3461460.51202 29962.0958014,-3461290.11185 29903.4947654,-3461234.5588 29807.2729766,-3461103.57989 29831.8550625,-3460965.10803 29955.0992563,-3460864.95515 30099.4278286,-3460746.41501 30187.8858776,-3460625.3361 30216.8261401,-3460478.10634 30211.8993888,-3460280.54735 30179.8832868,-3460129.14629 30149.3437982,-3459984.60289 30149.9693455,-3459844.83206 30173.7153439,-3459758.13486 30221.4471618,-3459680.19546 30305.9102773,-3459650.89305 30378.7608246,-3459668.65013 30470.1670163,-3459773.61363 30617.9130683,-3459901.9682 30692.7011976,-3459954.3957 30752.11394,-3459979.06287 30820.1367813,-3459984.72726 30911.4746733,-3459968.36714 30994.892185,-3459895.87793 31043.8722997,-3459807.40977 31047.6157243,-3459690.79278 31040.6558958,-3459570.45239 30966.6621081,-3459416.03487 30907.887944,-3459301.3219 30875.8930761,-3459164.34138 30802.2059129,-3459049.68068 30750.1619432,-3458981.23513 30647.1892574,-3458945.20547 30593.3168267,-3458956.94404 30539.2202416,-3459007.9806 30492.3552077,-3459069.94608 30434.7338625,-3459113.27445 30338.0036224,-3459116.586 30110.8478013,-3459018.66684 29836.6348836,-3458994.16297 29679.7975875,-3459019.5956 29620.8022628,-3459029.20775 29530.3472623,-3459044.01238 29464.32013,-3459052.62653 29395.1850454,-3459059.4699 29277.1673144,-3459071.23735 29161.5769231,-3459004.26779 29047.2792449,-3458920.30037 28953.8493112,-3458793.59496 28889.5783478,-3458636.00096 28884.6623791,-3458551.8121 28920.1056272,-3458497.11171 29007.1135319,-3458411.93955 29107.8125423,-3458373.0459 29332.4769834,-3458371.69455 29485.9205407,-3458319.15335 29693.6349774,-3458189.70678 29748.5206596,-3458015.2973 29808.5457426,-3457829.09084 29802.9002054,-3457621.14008 29849.0807991,-3457457.28782 29864.2024381,-3457403.51831 29908.2219964,-3457215.9504 29969.1264323,-3456978.46796 29980.3160829,-3456932.43341 30049.5899879,-3456700.82876 30003.1919299,-3456556.90015 29870.6706192,-3456496.58436 29736.4644574,-3456483.12763 29630.6358227,-3456470.16591 29354.0171376,-3456560.18425 29160.9868548,-3456587.15414 28948.4248512,-3456491.67817 28844.3575183,-3456425.88332 28778.687001,-3456319.10554 28761.0230553,-3456201.99792 28831.2114203,-3456089.6666 28989.1822131,-3455981.12247 29152.1450863,-3455837.42117 29264.4711753,-3455716.16836 29321.4144258,-3455542.61182 29393.1678786,-3455367.5197 29430.9402505,-3455317.63173 29532.0774955,-3455185.72894 29643.2599438,-3455019.80673 29672.5075614,-3454975.98686 29761.0229373,-3454848.45136 29909.8152791,-3454594.86481 29962.1555578,-3454348.54062 29975.2667474,-3454131.32155 29950.3736404,-3453925.22046 29900.9911092,-3453745.69831 29812.7438163,-3453586.30403 29674.7037147,-3453425.92474 29544.6685977,-3453252.05513 29488.062757,-3453111.3253 29463.0236626,-3453044.95808 29440.5974554,-3452873.98649 29375.785125,-3452580.68018 29286.1004887,-3452230.44166 29182.4283286,-3451928.91789 29096.1835122,-3451599.32085 29074.707731,-3451512.81321 28994.4978873,-3451191.24557 28955.7246791,-3450935.8916 28914.1559867,-3450761.287 28882.1458674,-3450652.14629 28813.3610284,-3450429.72309 28767.4812662,-3450307.13337 28697.7986211,-3450121.56853 28638.3498688,-3449947.22049 28687.9755149,-3449789.59882 28847.3250153,-3449714.79239 28987.6146274,-3449673.14461 29145.0796005,-3449656.64804 29244.4582469,-3449655.65567 29477.3334113,-3449693.54685 29737.9820808,-3449758.82942 30018.637799,-3449769.00882 30410.7902144,-3449752.48478 30452.7347532,-3449755.01683 30695.0000759,-3449770.86739 30983.6342632,-3449859.54542 31174.6232206,-3449924.23326 31320.5720659,-3449899.59207 31439.5709911,-3449788.33345 31486.4439443,-3449676.65712 31485.6133197,-3449536.99699 31484.7941422,-3449440.09685 31474.6495335,-3449188.71783 31465.6254838,-3448995.9321 31460.7948209,-3448912.73783 31387.1307148,-3448599.179 31403.9906047,-3448222.10256 31470.5348696,-3448071.75997 31390.3886965,-3447921.24425 31247.3794666,-3447767.66989 31120.5938763,-3447710.91123 30972.9374478,-3447668.54075 30850.8365005,-3447671.61733 30735.4693637,-3447685.65868 30633.6546201,-3447687.31537 30579.9244782,-3447672.67872 30512.8199652,-3447644.5586 30513.8053704,-3447573.38653 30566.9779854,-3447459.28136 30683.7374871,-3447337.24583 30878.517299,-3447171.9621 31140.0348604,-3446994.05393 31370.9424686,-3446869.00533 31513.4133741,-3446830.19738 31627.5110137,-3446861.9903 31730.5935343,-3446935.32519 31879.9973124,-3447038.23408 31975.1038299,-3447104.17102 32085.7902127,-3447222.21867 32155.6779902,-3447254.61819 32260.780672,-3447200.52511 32372.6870513,-3447108.66568 32414.9321062,-3447072.89372 32524.0773899,-3446984.21128 32657.0813888,-3446867.01067 32755.7869541,-3446764.14358 32836.090707,-3446703.83217 32979.3783012,-3446683.86156 33142.9399813,-3446719.15279 33307.0261068,-3446733.5248 33467.2183179,-3446727.78416 33601.4061559,-3446670.16638 33701.1197405,-3446553.30946 33770.50394,-3446443.54713 33790.3609817,-3446372.05386 33773.5014315,-3446301.63812 33686.2751339,-3446262.99407 33602.2293102,-3446248.48973 33484.9341157,-3446256.19943 33358.4414252,-3446246.15645 33161.0530594,-3446217.7055 33060.4424083,-3446172.53916 32967.1046444,-3446131.83575 32932.3031883,-3446103.44431 32835.3102939,-3446024.71203 32705.641644,-3445962.18705 32618.2204557,-3445934.99059 32485.0004047,-3445956.7407 32290.1031903,-3445914.1916 32059.3323403,-3445899.01201 31808.7547226,-3445870.79869 31646.8022502,-3445844.34039 31507.8071275,-3445826.22009 31410.4637766,-3445792.25835 31324.6695956,-3445738.59443 31244.9946306,-3445608.9257 31113.1588764,-3445479.92186 31069.3324209,-3445436.24916 30995.3223788,-3445323.5857 30996.6281698,-3445157.42423 31009.813229,-3445011.81231 31049.8942276,-3444888.18587 31103.2796153,-3444777.05402 31100.6531431,-3444689.72801 31024.4270281,-3444524.01681 30970.4255439,-3444384.59514 30955.1398443,-3444208.6555 30972.3342983,-3444077.68025 31063.2430475,-3443948.51223 31168.9160567,-3443824.279 31193.1453487,-3443715.68449 31154.531718,-3443661.2047 31102.2053065,-3443631.05248 31051.3978392,-3443601.29122 30878.3141353,-3443550.74252 30651.2488006,-3443489.05061 30473.1315557,-3443494.54126 30268.1830248,-3443528.75744 30129.9614953,-3443628.41732 29977.689566,-3443648.01256 29845.5643995,-3443571.72669 29826.5845543,-3443456.70293 29840.8800378,-3443398.02556 29861.3630677,-3443314.0545 29959.0620221,-3443161.04153 30055.2343494,-3443035.98031 30174.6546127,-3442937.63624 30261.2767889,-3442818.21569 30308.3123118,-3442680.18192 30356.3112855,-3442513.24247 30420.3518343,-3442348.16567 30484.0864599,-3442221.39639 30546.514562,-3442139.96538 30594.0033873,-3442029.74562 30664.5619746,-3441901.0088 30756.1096872,-3441773.78907 30798.2707889,-3441658.47312 30811.1937357,-3441551.66399 30754.7870246,-3441441.7434 30669.8009153,-3441371.11025 30546.7003395,-3441267.34025 30384.9184061,-3441221.96019 30290.6582269,-3441160.92389 30243.8842433,-3441060.77041 30209.2603288,-3440942.3654 30142.8546894,-3440831.64973 30054.6105185,-3440742.84518 30003.1621946,-3440604.23439 29982.5775576,-3440480.37309 29899.9494576,-3440393.66155 29862.0267332,-3440306.3135 29903.4003047,-3440222.37716 29996.6468198,-3440119.40445 30169.1640359,-3439991.00745 30271.1484493,-3439949.08015 30434.9731483,-3439931.1755 30602.9476556,-3439858.78502 30815.0871436,-3439813.64053 31069.8111815,-3439744.63976 31226.3565047,-3439658.1325 31525.7138575,-3439409.50932 31568.9887243,-3439374.16946 31802.7160735,-3439218.13616 31983.495479,-3439179.65918 32050.3259176,-3439175.49004 32305.7029273,-3439158.65311 32440.9508343,-3439151.69557 32553.9678698,-3439146.78746 32887.1553591,-3439240.36224 33407.0992414,-3439309.9565 33466.2187518,-3439309.30856 33702.2704254,-3439307.74082 33872.9893617,-3439125.28753 33980.6758831,-3438915.91439 34165.8123224,-3438733.45126 34473.9418959,-3438646.31157 34539.3527445,-3438621.85795 34719.5341571,-3438553.59539 34951.4275988,-3438585.13366 35077.9965305,-3438653.35774 35177.1688908,-3438706.59065 35390.8916667,-3438720.00696 35531.017429,-3438640.62084 35655.7488336,-3438575.73322 35790.9796904,-3438639.87122 36002.8233611,-3438633.53219 36098.9243166,-3438507.50521 36158.5545613,-3438428.76882 36252.0326109,-3438307.89731 36358.8220925,-3438171.18241 36444.1202639,-3438061.32309 36523.0559604,-3437952.9026 36590.1878664,-3437867.67814 36746.9679723,-3437692.17824 36947.8393416,-3437585.68806 37001.614686,-3437544.15155 37065.7103524,-3437500.9005 37104.4935647,-3437444.00483 37154.7473477,-3437373.38294 37222.5347403,-3437276.18319 37250.9266158,-3437134.50472 37376.7565087,-3436914.43825 37434.9206045,-3436415.72552 37505.8842702,-3436235.78128 37569.9682976,-3436071.23174 37627.1725729,-3435964.83048 37706.1335683,-3435821.11787 37780.1705241,-3435685.20627 37918.7063298,-3435518.94477 37999.8535497,-3435420.81744 38055.3784513,-3435347.34578 38171.778385,-3435191.57857 38252.9962169,-3435008.93547 38308.6848669,-3434816.63965 38389.8682093,-3434676.25602 38379.6648666,-3434608.36411 38345.5196956,-3434532.19935 38316.5171414,-3434465.6184 38291.6794412,-3434401.72971 38259.2146611,-3434314.01359 38215.0726614,-3434215.67773 38188.6358398,-3434157.36875 38140.0416007,-3434059.3431 38114.9393478,-3434005.9122 38056.623359,-3433911.04981 38043.6306448,-3433717.57825 38133.3394797,-3433407.0812 38174.8531007,-3433346.52023 38244.7061267,-3433243.21933 38252.8332293,-3433160.12981 38264.6566861,-3433023.09307 38337.039602,-3432948.94691 38349.8397951,-3432840.17856 38546.2374224,-3432562.51639 38755.0664864,-3432370.48897 38950.6309902,-3432166.46252 39064.2099904,-3432134.18812 39270.8860282,-3432103.87662 39353.2093708,-3432022.57803 39425.4420203,-3431953.41651 39523.1529412,-3431800.45624 39524.2392209,-3431602.03309 39527.7634834,-3431424.31885 39438.6257384,-3431279.40791 39369.0091308,-3431164.95158 39263.0659721,-3430992.87518 39031.561535,-3430795.24458 38837.4731472,-3430799.32066 38703.9032577,-3430887.17058 38541.4145975,-3430923.84382 38509.629812,-3430774.4365 38586.0465878,-3430658.25534 38903.9679337,-3430397.98969 39037.6582393,-3430161.99306 39194.0245241,-3430030.30338 39306.1865104,-3429920.58345 39382.8995993,-3429737.27507 39405.3356037,-3429538.35997 39422.9134523,-3429369.61001 39461.0889548,-3429261.06742 39551.3191868,-3429186.18335 39707.449825,-3429186.7448 39801.1550691,-3429104.65975 39915.3316262,-3429073.84255 40020.9535174,-3429005.84134 40100.1456796,-3428879.53138 40172.3972485,-3428860.58178 40248.2494089,-3428843.36993 40380.7634072,-3428811.7738 40493.9808063,-3428802.89656 40600.7763668,-3428808.88226 40704.2721904,-3428881.70848 40753.5235409,-3428960.79695 40824.6851482,-3428997.59784 40948.0844033,-3429063.56934 41097.9818006,-3429188.83762 41250.3622349,-3429328.34785 41277.6423866,-3429484.52293 41300.6685049,-3429529.64585 41371.999479,-3429590.294 41449.7912953,-3429593.82382 41533.657069,-3429598.91895 41675.019094,-3429715.83099 41811.8428283,-3429781.85859 41968.0354026,-3429783.40701 42090.6901519,-3429710.24338 42177.8607553,-3429584.37534 42299.8996173,-3429559.47219 42462.5266362,-3429517.82416 42567.3492008,-3429538.36019 42689.3721549,-3429541.7917 42775.8379834,-3429434.36627 42790.9547992,-3429337.37789 42800.3617257,-3429272.60006 42908.3759615,-3429067.73951 42920.8449934,-3428989.82477 42928.2707862,-3428946.55935 42935.3923495,-3428856.09315 42941.2176548,-3428739.86946 43055.2581113,-3428642.95298 43194.2517259,-3428618.86012 43347.7371649,-3428531.6247 43357.8554484,-3428405.65891 43322.927689,-3428260.95834 43266.0061011,-3428185.88724 43180.1119409,-3428073.06737 43292.5006215,-3427873.87187 43310.9611338,-3427746.33146 43393.2413029,-3427571.60111 43419.1801352,-3427372.95721 43503.6502093,-3427179.68417 43587.7909933,-3427031.66765 43692.3273133,-3426955.30057 43756.2192942,-3426887.72711 43805.1231484,-3426747.63172 43813.251919,-3426514.44123 43781.675675,-3426317.81385 43720.4777589,-3426245.52455 43696.1849035,-3426046.40177 43721.8156804,-3425864.6822 43881.0158576,-3425745.24726 43930.9850878,-3425527.53846 44017.5344972,-3425321.20327 43991.7230493,-3425085.90217 43935.8361112,-3424932.71912 43810.3393319,-3424786.3654 43732.8645303,-3424615.79466 43627.4029291,-3424543.10242 43622.2000176,-3424453.99335 43617.7362128,-3424404.10066 43568.6814852,-3424263.36439 43546.388428,-3424057.14318 43531.7976566,-3423925.93958 43597.2940775,-3423852.79116 43748.0371729,-3423761.78635 43895.5347088,-3423724.19279 44004.2446546,-3423722.10191 44094.1601823,-3423757.10572 44220.8262819,-3423805.95686 44340.5424994,-3423812.04739 44523.9075814,-3423768.48064 44576.8006717,-3423671.35755 44605.7673707,-3423523.21097 44547.322447,-3423268.80847 44566.8151554,-3423105.91228 44539.1861245,-3422958.71814 44522.9316487,-3422867.8939 44502.8286852,-3422757.45516 44447.6949659,-3422657.90112 44394.6753929,-3422524.40052 44403.7448118,-3422418.89258 44453.8235175,-3422316.99617 44488.3425887,-3422241.53086 44508.6751442,-3422176.49552 44562.4538255,-3422006.24692 44556.9251532,-3421905.23337 44487.6720792,-3421745.52294 44435.3260897,-3421557.29964 44421.1963617,-3421446.94256 44407.7751556,-3421353.93292 44399.0209308,-3421313.78318 44405.7964289,-3421153.75987 44457.7448231,-3421000.04222 44488.5210355,-3420906.44738 44470.915694,-3420767.50313 44451.0364291,-3420617.28471 44495.61448,-3420457.61834 44523.6914825,-3420353.77355 44688.7896172,-3420276.19874 44760.4583629,-3420155.90653 44794.4447709,-3420101.3564 44818.0641169,-3420054.98203 44841.6971639,-3420001.64817 44854.7433414,-3419960.48163 44877.5860379,-3419859.98376 44837.9990338,-3419726.54356 44835.9375684,-3419589.50311 44897.3711219,-3419429.16583 44963.0235336,-3419243.68403 45004.5133122,-3419146.8625 44994.5397331,-3418938.79835 45101.8334015,-3418794.66307 45200.5385953,-3418705.79881 45295.2244498,-3418630.63393 45420.9774753,-3418530.44887 45452.5050306,-3418504.89945 45553.0921165,-3418428.82859 45620.4207325,-3418360.53425 45780.9573712,-3418231.59319 45919.2745848,-3418154.89234 46026.9160911,-3418101.69349 46067.2644385,-3418081.49666 46157.5309578,-3418042.92392 46312.8089531,-3417981.44858 46438.3190426,-3417913.59048 46488.5878268,-3417878.78868 46596.6275221,-3417802.70027 46667.3265005,-3417797.29592 46788.409707,-3417787.4003 47008.9282693,-3417763.64449 47222.9469538,-3417739.3459 47307.169421,-3417807.05814 47584.5588224,-3417643.17338 47568.3112914,-3417466.37083 47521.9169159,-3417191.76107 47507.3761189,-3417132.63174 47419.3183812,-3416988.14795 47392.4763295,-3416880.66782 47359.4323487,-3416748.2703 47327.0509188,-3416568.1134 47281.4240274,-3416404.77979 47247.3778426,-3416279.40952 47302.6676025,-3416051.91764 47421.3761235,-3415699.7502 47439.8945011,-3415644.29139 47459.7252679,-3415586.25655 47494.1919452,-3415488.43973 47635.7790257,-3415315.59969 47719.9464411,-3415167.61751 47713.5230673,-3415010.51167 47657.8575538,-3414852.84485 47630.2148507,-3414690.74933 47609.2847006,-3414596.77529 47593.8353975,-3414517.33135 47579.3809089,-3414452.23164 47577.5377531,-3414404.14967 47532.5807501,-3414279.03897 47510.5211586,-3414218.93955 47436.1780115,-3414006.90149 47359.7542922,-3413793.51611 47270.7255583,-3413577.52495 47271.3204377,-3413428.38072 47069.9241902,-3413312.125 46946.4400073,-3413186.98848 46938.4998024,-3413015.07542 46921.6666528,-3412872.60548 46916.3625966,-3412824.76288 46898.5407235,-3412682.3614 46786.0134005,-3412521.67269 46696.063265,-3412392.71864 46554.17612,-3412267.36329 46441.6346913,-3412113.63179 46416.9422136,-3412080.05467 46260.2111608,-3411941.31274 46126.5236584,-3411747.79219 46148.2261188,-3411659.31013 46257.204413,-3411445.9941 46315.916027,-3411231.68827 46320.1310318,-3411127.51976 46326.8686644,-3411016.71532 46403.0981873,-3410854.37774 46491.8225661,-3410664.33646 46540.0725141,-3410535.74689 46569.7446726,-3410454.66656 46602.9352938,-3410331.09655 46586.7306893,-3410211.9417 46576.6307262,-3410145.04742 46612.9175095,-3410109.23452 46686.2748141,-3410034.57255 46708.3404593,-3409893.88122 46688.1677031,-3409731.76141 46699.5225847,-3409529.68559 46663.5259602,-3409318.46323 46636.399509,-3409106.12954 46573.4543411,-3408957.90488 46477.4065683,-3408826.88187 46479.8687632,-3408718.85973 46499.9444249,-3408585.26476 46487.046981,-3408442.02407 46519.6940525,-3408375.15273 46534.189022,-3408225.54302 46607.4711686,-3408042.044 46698.3304128,-3407961.70104 46736.5846429,-3407803.48968 46812.7845147,-3407690.86238 46843.1561257,-3407519.28098 46876.0612018,-3407384.30304 46891.9601634,-3407319.586 46942.3580924,-3407150.09858 46811.6628139,-3406970.77625 46596.1537181,-3406679.03287 46709.3711713,-3405578.28136 46717.6948074,-3405490.23256 46842.6741326,-3405335.46951 46997.1792888,-3405183.63546 47028.9041059,-3405088.99904 47111.3505421,-3405059.4416 47449.0519872,-3405048.51396 47799.7087559,-3405009.35563 47923.8211087,-3404971.45049 48010.5730001,-3404896.36957 48006.0768376,-3404745.09773 47971.4742027,-3404675.9234 47938.0661024,-3404609.64834 47688.6682858,-3404517.5535 47497.7070075,-3404436.82428 47350.1911942,-3404373.46761 47106.4945294,-3404320.73613 46868.4893799,-3404343.15506 46573.8227827,-3404379.92862 46364.3567276,-3404434.17127 46060.5733329,-3404439.76701 45926.2036008,-3404372.51707 45772.8133996,-3404296.14443 45601.4252815,-3404103.2227 45472.4069918,-3404012.7384 45402.4303659,-3403963.89788 45272.2356145,-3403877.96733 45224.538909,-3403849.45516 45188.0665468,-3403825.13725 45091.4945065,-3403758.25371 44951.6525535,-3403611.85513 44902.5836752,-3403534.72915 44848.2423893,-3403446.03888 44814.5444891,-3403382.76091 44727.3016712,-3403191.96927 44726.0605406,-3403102.09373 44724.9200864,-3402999.28863 44771.3256752,-3402822.12355 44832.8148109,-3402676.22303 44858.7913192,-3402534.26784 44904.7485622,-3402307.4327 44920.7555863,-3402229.78549 44969.8854063,-3401991.30041 44999.7185401,-3401847.58868 45043.5309212,-3401632.83177 45064.3976785,-3401531.98653 45075.9392402,-3401476.0202 45041.1785648,-3401339.75311 44970.1965947,-3401118.01531 44944.6424292,-3400927.93084 44966.3647447,-3400839.45225 45015.7225767,-3400776.89821 45149.8105107,-3400602.62811 45180.0311895,-3400550.83944 45247.2940709,-3400430.88672 45273.4690299,-3400342.1015 45310.0800561,-3400217.30768 45360.00935,-3400047.85722 45407.6554385,-3399902.91847 45459.7042186,-3399778.5506 45559.8206218,-3399659.31364 45559.7262917,-3399535.56423 45461.0127361,-3399480.74962 45338.3858134,-3399439.51398 45190.8042738,-3399403.97697 45089.1407372,-3399371.23399 44958.6306539,-3399302.21188 44859.2498513,-3399230.54348 44792.106903,-3399150.68519 44789.2439045,-3398914.79884 44826.8173678,-3398847.09595 44942.0026575,-3398794.91097 45081.2402552,-3398774.36615 45199.8034591,-3398742.32601 45292.2845684,-3398685.24747 45355.4435147,-3398613.7915 45395.4545893,-3398516.59765 45397.2588955,-3398441.92129 45399.4360945,-3398315.03295 45402.4328919,-3398200.01637 45423.1531542,-3398104.15425 45469.0159875,-3398012.52136 45474.3351248,-3397945.55484 45551.6329092,-3397812.48931 45620.4199008,-3397692.9337 45643.2061656,-3397634.20542 45672.5417518,-3397555.14497 45706.295196,-3397475.28281 45737.5738718,-3397337.93862 45743.6432043,-3397224.20216 45720.3413998,-3397145.79153 45678.7190942,-3397003.53669 45627.0175864,-3396924.10297 45542.2246104,-3396797.25093 45404.8454117,-3396722.23583 45265.4532029,-3396646.86212 45149.8899292,-3396592.7069 45015.34225,-3396587.57424 44878.389135,-3396583.60147 44790.2197124,-3396580.73684 44715.7296521,-3396531.20305 44741.775068,-3396397.20008 44751.9749953,-3396343.31578 44774.0979609,-3396267.73448 44800.4002307,-3396231.12928 44878.2495567,-3396120.39282 44941.6685283,-3396031.0295 44981.3785905,-3395756.4243 44957.6871613,-3395593.04947 44948.1698078,-3395527.1059 44943.0021713,-3395459.37134 44938.8929352,-3395334.90423 44966.2533312,-3395299.22078 45022.0149847,-3395206.90769 45002.5705742,-3395155.56499 44968.3894965,-3395063.4892 44904.2566248,-3394940.67539 44868.9322552,-3394882.47506 44845.8546287,-3394843.31092 44788.0156293,-3394746.90146 44647.3475233,-3394602.52409 44574.4805921,-3394526.03655 44514.4231721,-3394469.54051 44416.3800923,-3394373.91325 44288.4543953,-3394219.70907 44060.9429479,-3394163.82002 43967.9116729,-3394140.90809 43817.3622991,-3394105.55878 43747.6311576,-3394088.993 43620.893788,-3394052.99613 43458.4203316,-3394010.51562 43172.1103828,-3393873.18768 42885.2405059,-3393648.41885 42573.5857664,-3393402.9887 42297.2486721,-3393316.65924 42112.0872936,-3393219.07563 41821.0063165,-3392911.58189 41661.5254141,-3392688.95942 41532.0389789,-3392396.67105 41749.5438097,-3392263.88799 41850.3425597,-3392038.7429 41858.9750762,-3391824.91748 41784.3687695,-3391557.18019 41423.5463432,-3391406.07709 41134.6878656,-3391296.73821 41025.8262079,-3390899.63729 40852.1027807,-3390571.12019 40834.4183059,-3390523.62686 41028.9799302,-3390454.56158 41107.1284591,-3390427.31094 41264.7730511,-3390370.72892 41273.9901775,-3390179.72578 41336.370472,-3389923.42941 41542.438255,-3389776.03635 41679.803318,-3389309.30279 41693.2522361,-3389259.17011 41748.30106,-3388889.06283 41674.5814457,-3388503.9594 41927.4940303,-3388141.61226 42026.3150232,-3387815.21873 42248.8245105,-3387502.18758 42333.9764752,-3387417.79875 42453.6598271,-3387300.71598 42647.9600797,-3387061.69944 42833.7836185,-3386728.33564 42845.6413097,-3386626.12665 42859.5671976,-3386503.3974 42875.4168611,-3386401.41106 42878.6844242,-3386181.50077 43102.3071442,-3385877.35282 43226.5490475,-3385667.5162 43284.3958483,-3385569.10493 43340.5021084,-3385474.29271 43447.6819411,-3385211.45602 43503.3710414,-3385153.94966 43625.4808022,-3385028.75629 43672.8129823,-3384965.36357 43773.8589056,-3384830.18761 43826.5833017,-3384758.4724 43858.8833093,-3384715.0 43938.1417052,-3384602.69418 44080.5198494,-3384389.13308 44107.4465735,-3384347.02448 44260.3848188,-3384200.33261 44300.8752476,-3384145.8609 44368.6324776,-3384054.22779 44392.6405195,-3384020.27234 44502.6282166,-3383805.46168 44504.2981259,-3383540.44187 44507.1589949,-3383292.73563 44642.2947448,-3383067.75053 44783.5934903,-3382889.06174 44714.5818309,-3382441.52842 44538.9926786,-3382019.70303 44387.1680237,-3381654.39277 44440.2063236,-3381456.91797 44582.1778569,-3381331.36691 44653.6508481,-3381264.83066 44779.2270106,-3380705.03213 44832.5997544,-3380324.14361 45056.3832171,-3380239.20211 45085.6718622,-3379970.80024 45034.4137494,-3379767.06982 44781.9805612,-3379470.78728 44906.1581653,-3379216.25024 44803.5540229,-3379031.94581 44725.7707524,-3378890.66771 44464.1650745,-3378982.17465 44366.6176688,-3378922.26942 44173.6709228,-3378804.79586 44136.954569,-3378443.50576 44282.0265238,-3378210.89437 44463.6434127,-3378098.04041 44505.6478121,-3378072.79379 44750.6571162,-3377891.47923 44895.3604536,-3377552.04295 45056.3274823,-3377196.08652 45329.8720872,-3376930.81751 45516.1493812,-3376545.29945 45576.008099,-3376316.55508 45742.0244115,-3376186.39204 45844.6722325,-3376103.31526 46128.508846,-3375908.42002 46165.5324228,-3375883.02057 46389.6661856,-3375737.94284 46577.8330902,-3375619.18692 46677.4523282,-3375557.19342 46738.7676066,-3375523.66865 46920.9579119,-3375419.23935 47362.2352305,-3374990.91748 50188.2689999,-3375851.25456 51598.7357579,-3375788.3539 52638.2648469,-3376737.26714 52675.3961712,-3376771.49298 53028.6097568,-3377081.69638 53335.3140996,-3377351.35679 53453.1855572,-3377461.53756 53985.9099737,-3377954.7019 54326.1074484,-3378270.75022 54995.2332396,-3378890.68744 55128.1353306,-3378980.94724 55273.6198355,-3379030.09466 55272.3000757,-3379199.12937 55352.705511,-3379255.72338 55653.8507479,-3379466.1116 55779.760239,-3379505.17193 56328.2738114,-3379678.2064 56434.8116672,-3379710.14806 56993.4325453,-3379878.50859 57553.2350128,-3380013.49326 58469.5822072,-3380203.49778 59556.6553307,-3380448.84859 59542.139081,-3379824.80585 60574.5848411,-3379969.57088 62854.5864681,-3380230.89652 63626.7009416,-3380325.94308 65541.8487541,-3380911.83755 66246.7435023,-3381128.22413 67383.9628193,-3381476.86316 69377.648183,-3382087.06548 69744.4508326,-3382198.47658 69792.6428397,-3382213.0492 69996.7629684,-3382277.51399 71110.0032719,-3382299.8948 73060.3954084,-3382339.77024 73808.2886722,-3382337.56906 75038.7959198,-3382333.00949 76054.7959464,-3382329.77253 78021.9435155,-3382312.84882 79118.8796725,-3382303.05407 79195.2761213,-3382301.77926 79682.322283,-3382292.16098 79757.268844,-3382291.48237 79971.266987,-3382290.68788 80926.2265099,-3382289.65009 81378.0052147,-3382287.41975 82383.2813149,-3382296.33183 82467.1885655,-3382296.03057 83344.3496882,-3382276.49589 84375.6176065,-3382252.33339 84416.4376165,-3382246.54971 84820.0666966,-3382194.48972 86344.8005647,-3381995.40249 88819.7854468,-3381671.96664 90924.9966096,-3381395.79673 93255.6291796,-3381092.24781 94152.0931696,-3380973.58967 94202.6140213,-3380979.05719 94590.0794389,-3381025.43319 94678.83501,-3380409.16002 94701.7505331,-3380251.19457 95330.4948327,-3380051.63868 97106.7007646,-3379601.04902 97210.6611285,-3379575.04777 97948.5118955,-3379403.26846 98833.4751467,-3379176.22111 99475.3824675,-3378843.73967 99648.4300238,-3378753.92499 100029.861403,-3378568.39783 102155.090033,-3377535.00438 102357.887225,-3377553.35897 102505.071133,-3377585.95263 102623.070559,-3377620.05168 102732.829533,-3377685.98866 102849.02165,-3377722.69319 104280.466992,-3378588.95758 104945.170373,-3378531.92888 104996.977243,-3378527.38117 105794.252004,-3378384.32053 107358.727562,-3378101.76344 107406.76855,-3378093.00753 109140.2588,-3377844.03654 111710.279087,-3377860.2865 111523.540058,-3383755.76113 111504.938272,-3384221.58097 111425.236828,-3386144.29308 111363.940943,-3387597.73192 111232.056319,-3387808.8071 110973.114746,-3387933.33663 110902.952911,-3388067.70403 110894.463648,-3388117.42358 110752.699245,-3388206.59232 110757.085632,-3388270.31528 110762.712345,-3388359.26501 110800.775227,-3388414.71389 110910.557624,-3388538.68018 110924.44291,-3388653.86211 110822.344758,-3388792.91127 110796.997656,-3388950.99626 110893.223967,-3389065.47215 110986.212863,-3389190.5931 111004.939001,-3389289.55937 110920.520994,-3389454.68982 110886.345125,-3389520.5718 110735.999375,-3389600.40976 110781.817392,-3389797.27071 110901.249028,-3389873.9157 111081.19698,-3389986.09753 111210.871706,-3390182.64026 111291.317792,-3390413.84067 111383.863927,-3390575.71567 111682.290132,-3390750.70384 111731.22282,-3391043.13299 111777.229371,-3391307.4737 111717.706783,-3391452.03066 111673.499888,-3391552.35363 111542.603333,-3391799.10698 111256.648245,-3391797.96819 111159.353602,-3391797.72474 111018.040949,-3391864.53972 110964.140329,-3392004.24557 111030.646698,-3392213.07875 111024.697022,-3392335.58309 110922.799275,-3392426.98078 110820.188003,-3392464.82543 110783.971349,-3392558.64486 110853.769848,-3392707.1966 110885.602612,-3392801.78468 110921.913826,-3392954.13334 110887.944298,-3393152.52176 110812.909571,-3393251.99601 110735.251182,-3393385.40143 110734.687525,-3393485.20112 110756.931615,-3393620.65235 110751.258044,-3393761.50287 110718.944307,-3393919.08027 110627.814289,-3393979.46399 110616.162994,-3394127.17953 110648.782602,-3394290.70223 110611.360499,-3394446.15124 110554.162763,-3394595.51971 110530.844791,-3394696.39328 110615.741313,-3394761.51183 110687.761518,-3394898.98908 110761.570647,-3395040.80943 110811.753506,-3395135.12327 110856.945846,-3395236.2334 110987.579665,-3395381.57709 111047.336958,-3395513.9426 111062.617718,-3395569.96523 111104.832184,-3395735.80165 111149.108594,-3395909.93298 111149.402684,-3396022.08117 111319.061004,-3396150.33549 111336.940205,-3396387.83109 111336.01505,-3396611.73493 111305.314083,-3396792.52907 111262.363362,-3396918.08488 111130.636988,-3397080.5411 111108.155956,-3397128.74728 111050.079973,-3397250.88128 111007.901166,-3397437.92919 110980.707234,-3397554.45751 110947.088639,-3397628.24933 110767.968641,-3397693.72321 110616.033055,-3397750.37199 110493.791927,-3397870.48637 110485.949648,-3397994.11772 110481.067812,-3398074.36399 110520.822067,-3398240.37107 110493.831868,-3398331.07804 110431.481655,-3398441.59868 110493.613386,-3398543.52262 110453.578561,-3398660.94003 110411.496947,-3398748.71913 110349.023022,-3398807.13426 110262.329391,-3398888.56473 110227.835947,-3399050.27042 110327.769822,-3399174.89594 110474.964596,-3399229.2514 110541.928927,-3399271.77712 110655.040691,-3399342.87997 110782.237548,-3399546.0255 110764.27635,-3399623.701 110754.333886,-3399666.57586 110506.858706,-3399863.34546 110444.602095,-3400011.08705 110422.823389,-3400198.71681 110441.559621,-3400319.02379 110478.478982,-3400372.06189 110541.601012,-3400459.52147 110631.624607,-3400584.33192 110623.083207,-3400769.55759 110711.525319,-3400907.38119 110932.841179,-3401007.23328 111121.92067,-3401164.90107 111158.141687,-3401215.00806 111210.854793,-3401288.29496 111250.661428,-3401497.9708 111262.04853,-3401655.51156 111246.2437,-3401872.00974 111259.833705,-3402054.21458 111228.263573,-3402207.77703 111291.811079,-3402373.12672 111269.945455,-3402588.05919 111210.334513,-3402802.62435 111037.630912,-3402889.01747 110932.653138,-3402978.66854 110776.462008,-3403016.76911 110680.248694,-3403068.0934 110498.516832,-3403246.43861 110337.644109,-3403389.0951 110242.080802,-3403622.03578 110183.287178,-3403819.6754 109983.406293,-3403958.0848 109871.351002,-3404167.84888 109745.815735,-3404347.77332 109715.675398,-3404543.43365 109754.342617,-3404765.10642 109839.323639,-3404974.63962 109891.167791,-3405157.18112 109889.492002,-3405340.94477 109773.574524,-3405545.0245 109788.290447,-3405607.04193 109823.725984,-3405760.44191 109838.889924,-3405907.79979 109755.889195,-3406063.93871 109661.242294,-3406173.73138 109639.324825,-3406323.16072 109670.081195,-3406423.27921 109636.92073,-3406568.02733 109693.695497,-3406692.65069 109721.743321,-3406789.48201 109733.729439,-3406890.89987 109770.798051,-3406960.30355 109925.430776,-3407071.69698 109953.551817,-3407183.90933 109887.839137,-3407259.93412 109764.016293,-3407371.25357 109690.571847,-3407335.63938 109619.910124,-3407497.87623 109686.462235,-3407670.46389 109897.893927,-3407799.26413 110091.362161,-3407898.0376 110272.533991,-3408005.60346 110418.391159,-3408047.61582 110480.873842,-3408111.2864 110478.570293,-3408264.31939 110475.84173,-3408418.37458 110557.239359,-3408611.76841 110628.776098,-3408648.5047 110770.156224,-3408539.93757 110847.164141,-3408426.40041 110950.912071,-3408412.26398 111015.727526,-3408473.78632 111019.819466,-3408540.01196 110966.625193,-3408653.38801 110907.762533,-3408778.07655 111017.793133,-3408861.77875 111120.066492,-3408976.7909 111002.510973,-3409113.98446 111055.422382,-3409283.04328 111269.630939,-3409365.97673 111303.195354,-3409542.33121 111507.759,-3409715.27131 111841.543158,-3409804.80365 112065.544799,-3409842.88099 112284.250199,-3410033.69667 112431.158883,-3410362.99866 112554.227073,-3410656.23113" style="stroke-linejoin:round;stroke:#000;stroke-width:1px;fill:none" /></g></g></svg>