<svg xmlns="http://www.w3.org/2000/svg" baseProfile="full" height="113932.337756" version="1.1" viewBox="11565.316955,3200361.615852,124306.474555,113932.337756" width="124306.474555"><defs><style type="text/css">polyline,line,rect,path,polygon,.polygon{fill:none;stroke:#000;stroke-width:1px;stroke-linejoin:round;}</style></defs><g fill_rule="evenodd" transform="scale(1,-1)"><g class="id" id="18168"><polygon class="_18168" id="None" points="83206.9948785,-3202909.86447 84140.9549434,-3205922.67575 84781.5274184,-3206261.80301 88016.3517349,-3206101.19759 88222.3194516,-3206212.80511 88668.3461995,-3206454.80005 89038.8792667,-3206721.20642 89458.9163009,-3206839.75451 89800.0680256,-3206936.88745 90189.8013723,-3207047.76412 90230.7569063,-3207052.16451 90404.069486,-3207064.10856 90493.2623718,-3207070.8837 90623.0621873,-3207110.82274 90720.2059299,-3207265.15737 90898.6241489,-3207346.08901 91058.8130716,-3207321.34687 91220.7556818,-3207239.99107 91351.57701,-3207240.21531 91511.7795569,-3207289.29768 91689.9745738,-3207394.02631 91868.7011102,-3207418.94465 91998.8267423,-3207423.18333 92119.4435638,-3207426.14411 92312.5871379,-3207418.28497 92507.4616212,-3207467.27534 92677.4448169,-3207434.37607 92813.5143257,-3207532.31064 92959.6399272,-3207612.15909 93121.5154832,-3207670.52723 93372.8695661,-3207726.23283 93549.3619927,-3207774.59941 93833.4179609,-3207790.22834 93947.6026423,-3207920.49667 94059.1977479,-3207962.27227 94163.146125,-3208001.14582 94132.4653497,-3208195.64834 94084.13882,-3208332.50076 94074.2826034,-3208480.37654 94069.0626003,-3208570.43792 94025.3542932,-3208736.18007 93985.3147412,-3208891.24658 93986.2833552,-3209165.1544 94103.4280444,-3209255.0688 94185.149838,-3209301.53112 94340.9832616,-3209405.4232 94471.9251768,-3209561.19785 94678.0902444,-3209689.1032 94825.1632856,-3209795.12792 94977.2544524,-3209895.33026 95107.1523906,-3209923.35737 95185.1134038,-3209959.19636 95263.1108167,-3209995.52793 95369.084921,-3210068.42944 95522.1043574,-3210134.37619 95577.0706666,-3210154.08317 95688.0615606,-3210194.40936 95855.9715261,-3210274.11413 95993.2587042,-3210328.34422 96206.6252068,-3210413.10086 96358.7455484,-3210420.15693 96585.2047979,-3210307.26293 96776.8845983,-3210273.24074 97042.9278947,-3210313.46818 97225.7961788,-3210394.53769 97268.7895498,-3210413.14904 97387.6651651,-3210586.64691 97388.5857437,-3210759.47445 97318.0280811,-3210910.35334 97334.6106237,-3211147.41365 97347.9783981,-3211314.36479 97382.3127181,-3211463.41305 97402.573006,-3211536.22156 97418.6259914,-3211719.32169 97419.2642689,-3211955.08687 97440.6746834,-3212023.35123 97486.2693059,-3212157.19706 97553.2021687,-3212358.32123 97733.1590133,-3212506.97135 97823.1625666,-3212558.25792 97890.3913971,-3212596.37146 97988.1543503,-3212692.16337 98058.3972731,-3212764.23541 98227.4468354,-3212966.2029 98252.3495843,-3213088.20462 98294.2862174,-3213286.2243 98479.2351489,-3213522.18201 98732.0979687,-3213725.35667 98854.2363257,-3213789.11659 99052.1974845,-3213893.32101 99372.8699002,-3214129.1076 99692.113488,-3214332.30133 99916.9376122,-3214478.1003 100079.953163,-3214585.38737 100383.665356,-3214786.25891 100542.506103,-3214924.07092 100694.716533,-3215019.27693 100850.521493,-3215116.19682 101263.869611,-3215179.1362 101633.486976,-3215073.43116 101744.546689,-3215041.40979 101991.770522,-3214968.56901 102277.246033,-3214957.28505 102414.661373,-3214873.2778 102608.487367,-3214875.23681 103302.170358,-3214884.67233 103798.016339,-3215285.24375 103651.372402,-3215678.52827 103737.056845,-3215598.36165 104125.290937,-3215236.67596 104333.269622,-3215142.47918 104814.882883,-3214924.4485 106236.449647,-3213857.04976 106667.650273,-3214007.81591 106692.65345,-3214204.57375 106710.590133,-3214352.8217 106957.801645,-3215107.62581 107157.782116,-3215492.97483 107400.360818,-3215958.36565 107595.253251,-3216321.7969 107976.544257,-3216607.48821 108033.223887,-3216950.47118 108272.418779,-3217236.80456 108386.445008,-3217511.63284 108697.019458,-3217998.69142 108766.022452,-3218107.47702 109081.743249,-3218510.44352 109150.174549,-3218591.5346 109242.035363,-3218694.65692 109403.056538,-3218875.34782 109469.833916,-3219187.35546 109691.941178,-3219330.31926 109906.707272,-3219514.4388 110061.861148,-3219649.50055 110153.488949,-3219829.40094 110179.445621,-3219885.41633 110309.135617,-3220217.50143 110328.55505,-3220312.13752 110380.753674,-3220581.14307 110427.690769,-3220819.33819 110427.619287,-3221117.9846 110389.38791,-3221363.01062 110383.996357,-3221669.97776 110316.421062,-3221820.11716 110272.631852,-3222017.02286 110235.310691,-3222187.69409 110115.973554,-3222573.96636 110058.538578,-3222760.49879 109797.408811,-3223104.83143 109830.414919,-3223268.78497 109910.633103,-3223381.67774 109951.190854,-3223540.61108 109939.592662,-3223697.48414 109864.495351,-3223766.4699 109865.515525,-3223906.55528 109999.547873,-3224010.48713 110116.493412,-3224084.48882 110195.518671,-3224314.35107 110213.040453,-3224383.37404 110276.128129,-3224625.31816 110387.01391,-3224870.63527 110271.314021,-3225079.34057 110203.401845,-3225311.23175 110242.062268,-3225710.50903 110136.975958,-3226028.37695 109902.372683,-3226189.9819 109879.169863,-3226277.39309 109837.259097,-3226426.12662 109835.083623,-3226862.12997 109647.016055,-3227016.80561 109554.679153,-3227233.19068 109527.054458,-3227301.12192 109480.968456,-3227486.82014 109731.245511,-3227376.04137 109818.977698,-3227264.0078 109993.845729,-3226972.13423 110279.163418,-3226494.23034 110694.964114,-3226039.29845 110762.264548,-3225965.44234 110958.778391,-3225558.55475 111058.823064,-3225352.50311 111350.806971,-3224957.33048 111627.058206,-3224583.64067 112158.023782,-3224311.82719 112257.086328,-3224198.96354 112839.00842,-3223534.11093 112889.642778,-3223475.86552 112917.721225,-3223440.59452 113150.732587,-3223137.99499 113242.770019,-3223017.24115 113475.599189,-3222712.18407 113540.9259,-3222625.11458 113666.67527,-3222458.27456 113940.639297,-3222047.15762 114308.891612,-3221525.53147 114524.907525,-3221220.752 114700.830465,-3220969.46948 114912.884753,-3220824.44646 115614.159609,-3220625.70322 115723.760438,-3220494.74281 116036.227098,-3219422.6916 116037.960809,-3219426.02901 116057.575655,-3219516.67555 116056.646103,-3219584.09026 116099.855416,-3219645.74692 116158.103851,-3219676.57392 116246.324256,-3219657.63425 116348.508934,-3219613.39223 116501.596116,-3219554.47142 116605.188129,-3219522.50477 116704.81259,-3219457.16102 116807.435678,-3219418.82945 116899.056305,-3219432.3194 116965.027274,-3219493.76789 117040.964695,-3219582.70013 117119.311419,-3219677.39499 117191.529091,-3219769.57422 117265.032479,-3219892.35829 117380.919451,-3219999.11542 117461.167049,-3220106.04664 117505.494807,-3220189.40487 117501.23326,-3220271.92026 117515.188392,-3220339.71115 117566.838158,-3220448.27334 117638.609145,-3220507.80228 117713.139311,-3220524.54121 117785.378122,-3220563.73308 117792.601998,-3220567.65226 117829.686132,-3220640.15933 117828.758614,-3220707.57116 117782.432754,-3220770.43743 117675.800519,-3220808.07984 117613.541009,-3220836.47947 117532.495186,-3220865.28637 117492.807028,-3220924.19327 117461.242572,-3221005.76907 117439.743714,-3221136.11351 117455.186318,-3221230.53306 117495.667623,-3221368.64555 117554.242314,-3221450.4474 117613.8342,-3221519.29887 117660.997896,-3221620.76587 117713.212249,-3221716.90512 117774.277198,-3221772.27674 117860.683573,-3221795.55709 117988.800674,-3221813.75276 118078.878108,-3221853.10017 118143.902832,-3221915.10869 118192.663365,-3221938.21898 118359.691128,-3221980.25707 118434.655857,-3221989.53313 118550.54753,-3222049.73591 118594.983593,-3222121.19816 118652.928658,-3222227.80155 118714.96655,-3222302.90498 118785.80147,-3222343.18749 118838.743352,-3222329.34394 118913.198903,-3222345.09408 118971.706861,-3222392.73081 119090.279717,-3222455.70288 119206.147992,-3222555.51724 119270.834497,-3222692.81124 119364.492663,-3222953.22166 119366.081862,-3223107.59089 119373.847432,-3223291.70466 119418.965714,-3223378.95831 119470.323185,-3223470.2036 119489.945853,-3223560.84073 119524.624099,-3223674.12399 119560.973936,-3223723.40813 119598.984559,-3223728.50011 119725.698556,-3223761.15212 119833.129379,-3223780.88054 119949.318624,-3223811.84013 120095.649587,-3223875.21504 120163.723216,-3223944.91243 120214.515366,-3224035.20716 120234.118029,-3224118.91193 120239.786634,-3224201.67384 120268.04973,-3224368.41269 120279.286838,-3224419.56577 120344.579917,-3224511.75051 120409.705319,-3224595.0349 120460.91773,-3224684.3068 120472.115127,-3224814.68516 120454.234081,-3224926.92889 120388.363881,-3225026.40814 120298.577475,-3225196.98966 120249.733379,-3225318.96822 120263.873763,-3225502.10856 120338.183725,-3225688.6877 120447.055436,-3225834.06956 120577.162424,-3225952.12082 120763.100619,-3226081.855 121064.261022,-3226123.28376 121227.141364,-3226123.0282 121437.401224,-3226120.72694 121593.983,-3226109.05751 121782.089301,-3226121.77557 121856.49522,-3226156.83071 121929.708163,-3226215.74064 121966.294674,-3226261.53613 121979.191588,-3226268.49692 122018.674366,-3226306.64958 122076.256223,-3226361.77278 122086.021398,-3226379.85966 122126.632725,-3226453.08176 122139.67045,-3226528.35897 122111.139903,-3226630.50056 122008.368431,-3226659.94662 121901.743416,-3226717.40714 121825.432476,-3226783.00592 121752.459032,-3226926.58648 121777.399992,-3227141.59352 121785.11625,-3227145.47441 121852.486798,-3227225.61378 121919.19256,-3227250.3482 122012.64924,-3227268.63196 122082.468773,-3227321.8513 122125.705787,-3227390.42076 122130.078826,-3227495.5563 122134.944529,-3227600.65511 122207.252422,-3227707.16161 122289.131439,-3227769.38317 122437.2271,-3227790.02769 122566.710615,-3227753.63574 122658.016857,-3227703.25673 122753.758923,-3227699.08822 122821.49158,-3227737.60785 122860.707663,-3227825.28986 122800.4883,-3228007.03244 122779.109181,-3228178.45219 122725.308609,-3228320.10759 122674.221977,-3228418.48561 122689.156793,-3228558.97586 122738.882345,-3228687.95881 122726.335332,-3228758.70655 122688.881529,-3228873.89261 122663.332585,-3229015.91758 122599.862994,-3229180.57668 122490.088119,-3229341.7594 122368.392817,-3229548.88882 122144.692439,-3229915.14028 122081.651817,-3230058.97582 121995.770707,-3230221.84601 121939.881586,-3230368.61486 121959.783747,-3230476.0584 122042.726094,-3230539.18619 122122.573786,-3230547.5853 122242.297411,-3230572.81322 122340.355819,-3230599.65802 122382.289887,-3230644.06022 122388.361584,-3230738.67132 122316.880243,-3230882.14751 122233.09509,-3230940.39032 122163.082087,-3231004.04196 122094.840269,-3231071.52264 122025.562372,-3231145.02248 121972.342695,-3231234.65339 121953.700617,-3231323.18849 121992.433084,-3231410.90607 122084.578563,-3231491.16967 122229.09163,-3231523.45638 122420.599961,-3231522.03119 122615.539571,-3231526.78634 122757.662413,-3231560.24098 122914.210764,-3231594.59872 123018.066569,-3231619.52224 123143.769087,-3231612.11701 123221.548313,-3231579.5732 123365.722779,-3231507.90914 123458.140155,-3231465.85579 123562.492296,-3231437.76494 123665.147665,-3231440.00271 123771.677198,-3231487.50137 123866.803297,-3231587.8377 123979.986807,-3231724.45347 124137.013045,-3231864.72611 124367.942537,-3231960.36551 124554.643489,-3231987.51684 124771.698384,-3231970.3176 124964.296002,-3231950.48893 125202.303809,-3231875.77952 125362.473432,-3231759.84959 125468.220961,-3231664.32221 125586.032769,-3231524.82182 125663.114073,-3231429.95068 125731.12174,-3231379.32497 125814.423216,-3231381.02677 125886.18922,-3231427.15725 125922.120788,-3231563.59309 125964.114392,-3231681.75305 126021.803996,-3231791.31446 126063.142771,-3231880.80804 126137.791139,-3231958.90246 126220.766182,-3232055.68292 126260.033833,-3232157.21246 126287.70631,-3232262.57831 126289.939056,-3232365.38838 126266.873066,-3232487.41593 126206.866622,-3232704.78336 126189.156987,-3232905.12956 126199.723736,-3233092.96686 126230.349814,-3233251.08577 126304.395243,-3233380.71122 126397.594084,-3233548.01656 126484.260065,-3233707.39297 126580.261388,-3233892.31038 126672.571961,-3233981.45749 126785.003157,-3234081.47747 126858.076187,-3234171.56633 126912.311376,-3234287.81658 126959.188584,-3234444.71764 127005.431856,-3234579.88247 127016.832859,-3234613.19051 127149.660194,-3234807.23264 127256.971188,-3234911.59255 127375.91439,-3234959.63426 127478.514771,-3234948.00374 127565.57311,-3234874.16623 127643.374645,-3234755.96981 127739.658605,-3234653.22461 127833.718664,-3234633.32206 127921.387386,-3234627.26406 128014.402722,-3234600.01375 128099.283279,-3234569.90616 128182.464919,-3234589.92684 128237.717117,-3234673.42258 128317.492489,-3234780.333 128397.700589,-3234879.78478 128449.636053,-3234938.77474 128559.138884,-3235026.13469 128675.892808,-3235104.5361 128758.935508,-3235135.9519 128794.698555,-3235197.14021 128880.874307,-3235250.59887 129017.973125,-3235270.05178 129124.779041,-3235308.10605 129229.712291,-3235407.19118 129259.581872,-3235515.35381 129295.381924,-3235577.03331 129369.300357,-3235625.46638 129429.967511,-3235602.61323 129518.921065,-3235613.78341 129563.352129,-3235658.4805 129635.251115,-3235765.9744 129701.68377,-3235826.84751 129813.438807,-3235851.65826 129855.422093,-3235890.10224 129871.011035,-3235966.16307 129860.527748,-3236070.906 129873.26961,-3236168.46655 129908.149735,-3236217.83732 129976.090921,-3236245.92372 130156.893734,-3236240.81684 130389.543649,-3236300.14718 130447.283887,-3236317.61015 130514.778376,-3236359.59028 130581.10178,-3236471.95273 130644.11136,-3236540.00967 130747.028435,-3236625.37758 130836.553217,-3236723.62761 130847.652891,-3236792.59675 130844.034743,-3236856.7265 130874.567917,-3236920.77657 130939.740919,-3237004.51148 131052.561465,-3237043.59395 131147.518805,-3237115.19938 131229.717433,-3237168.45296 131241.922748,-3237252.18948 131286.608222,-3237320.13004 131351.708383,-3237330.10999 131413.383065,-3237294.30882 131484.996538,-3237285.48551 131539.89261,-3237304.6443 131606.277965,-3237351.65473 131670.64742,-3237384.9552 131755.303704,-3237385.05624 131830.620224,-3237379.42083 131918.068977,-3237383.76808 131994.680836,-3237428.52761 132055.925161,-3237525.91869 132080.799305,-3237580.48943 132101.313491,-3237656.1771 132113.807603,-3237710.68411 132165.840058,-3237777.57783 132281.873644,-3237945.61518 132360.847217,-3238074.844 132444.891019,-3238205.67292 132496.282597,-3238363.20096 132542.606543,-3238591.89492 132593.270988,-3238680.17485 132748.674435,-3238851.69597 132859.988746,-3238996.32093 133023.289804,-3239193.97888 133185.408602,-3239303.11756 133287.341252,-3239388.54652 133437.037027,-3239444.16341 133556.070663,-3239460.49557 133653.208736,-3239501.73217 133823.635707,-3239583.02054 133980.828566,-3239599.95951 134149.136431,-3239586.86123 134227.115273,-3239610.22665 134285.618997,-3239697.41953 134319.257406,-3239855.77337 134331.242421,-3239976.14922 134361.860963,-3240074.33976 134401.888074,-3240106.48642 134515.905081,-3239943.50972 134619.797997,-3239863.46046 134819.464725,-3239786.63401 135131.847482,-3239721.16662 135323.097081,-3241025.47625 135455.083842,-3241551.65301 135533.043158,-3242103.16063 135506.675771,-3242576.85556 135375.323329,-3243076.24235 135191.558227,-3243391.46766 135085.920446,-3243969.61746 134822.938141,-3244495.7194 134517.466747,-3244910.67165 133874.096452,-3245130.20878 133701.580142,-3245186.21729 133246.037286,-3245336.22757 132750.110558,-3245416.50231 132589.193627,-3245442.43627 132114.863359,-3245731.48023 131588.993179,-3246125.38595 131195.3795,-3246494.029 130827.441997,-3246940.94988 130406.530203,-3247308.68699 130038.6406,-3247729.87772 129617.687081,-3248202.58737 129301.748249,-3248623.35875 128854.593528,-3249096.56976 128354.997915,-3249590.06885 127655.245543,-3249870.87649 127041.322556,-3250173.95931 126515.479174,-3250278.8247 126041.18194,-3250331.79253 125515.416696,-3250385.16234 124865.999801,-3250420.59186 124324.676928,-3250590.00266 123737.87063,-3250799.97076 123173.164094,-3250928.56382 123012.084895,-3250939.67874 122694.355928,-3250961.5757 122185.422841,-3251173.62459 121784.450154,-3251517.69645 121122.70496,-3251811.55754 120653.812591,-3252095.38584 119968.785609,-3252593.54663 119810.736903,-3252750.52188 119599.794355,-3253119.45882 119521.007887,-3253369.0216 119442.678123,-3253618.056 119468.933613,-3254171.20181 119810.574027,-3254697.15232 120046.675042,-3255195.87774 120336.845724,-3255590.49936 121020.709578,-3255932.70264 121835.25287,-3256116.50228 122966.172733,-3256378.97262 124069.877976,-3256826.1832 124858.564932,-3257324.81856 125410.670332,-3257903.64139 125963.195853,-3258481.42655 126567.276934,-3258902.3175 127146.129334,-3259376.0936 127698.147076,-3259717.20831 128328.957132,-3260059.30424 128749.873575,-3260428.10646 129301.383285,-3260847.94919 129748.536636,-3261242.97495 130011.448059,-3261584.55803 130327.366313,-3262031.55124 130432.352641,-3262399.39796 130485.429112,-3262899.38688 130353.32216,-3263451.47443 130196.383923,-3263949.99144 130064.856577,-3264503.03499 129906.534728,-3265160.09622 129748.670969,-3265711.6739 129485.478434,-3266343.49937 129249.88709,-3266842.54079 128933.657094,-3267447.20037 128723.898106,-3267947.27485 128513.09159,-3268498.92688 128329.046807,-3268946.07198 128329.26069,-3269629.81934 128276.897525,-3270128.9035 128356.342751,-3270786.36025 128303.549432,-3271338.45905 127961.085538,-3271890.20411 127646.36,-3272180.40795 127251.281536,-3272468.77673 126751.755722,-3272574.42607 126226.825779,-3272390.35417 125542.861314,-3271943.49885 125147.840291,-3270917.70221 124963.850446,-3269892.76457 124805.684246,-3269209.01861 124621.869112,-3268657.43675 124333.003297,-3268026.14626 124069.954959,-3267605.32536 123676.140138,-3267131.49287 123202.247216,-3266895.44516 122571.370779,-3266606.87606 122098.381044,-3266396.00076 121493.704946,-3266185.65727 121020.785549,-3266080.73834 120415.571312,-3265974.91266 119915.906373,-3265975.01177 119336.997422,-3265870.16386 118758.576444,-3265844.01677 118312.371033,-3265844.03591 117786.392978,-3265791.14411 117207.457553,-3265765.03018 116471.476265,-3265712.14215 116050.46996,-3265632.99175 115551.276321,-3265476.04151 114972.305844,-3265292.42092 114499.768587,-3265108.18875 113868.247215,-3264871.56435 113184.708916,-3264608.64401 112764.16459,-3264529.43585 112211.90405,-3264450.75476 111686.342888,-3264450.29669 111160.356417,-3264503.36441 110765.132381,-3264582.72314 110223.921145,-3264939.59004 109845.380864,-3265292.60765 109634.45956,-3266002.50409 109424.485798,-3266449.30869 109369.870003,-3266683.76956 109329.247904,-3266854.26509 108967.884431,-3267310.03648 108398.806039,-3267789.92843 108030.784075,-3268183.80554 107873.862161,-3268631.09099 107662.962668,-3269131.00636 107558.573317,-3269709.56791 107531.896362,-3270287.21235 107505.29452,-3270813.33379 107663.033239,-3271471.15707 107926.233522,-3271997.15498 108268.237265,-3272706.91289 108505.668098,-3273311.13454 108689.184135,-3273863.94994 108820.585822,-3274441.51245 108899.65615,-3275099.81764 109214.853637,-3275677.32613 109293.914603,-3276230.60847 109504.572975,-3276703.08189 109609.358588,-3277334.16533 109399.098721,-3277939.09383 108952.439463,-3278411.85172 107979.5949,-3278465.28693 107322.13876,-3278412.08201 106716.828907,-3278439.13966 106244.25675,-3278544.31806 105849.947005,-3278623.25342 105192.116263,-3278807.37827 104640.269342,-3279043.41987 104167.253897,-3279254.16814 103798.752705,-3279516.94481 103062.181106,-3279780.38505 102562.314761,-3279859.40993 102010.352202,-3279859.148 101458.893203,-3279911.36644 100984.69997,-3279884.89144 100327.741249,-3279963.93667 99775.7950105,-3279990.42611 99197.5989033,-3280069.44601 98670.9870528,-3280201.53845 98277.1344061,-3280385.5052 97488.8887873,-3280648.43847 97067.3803759,-3280990.60068 96489.7456824,-3281358.4861 96120.7423795,-3281857.23454 95681.6595856,-3282581.82656 95613.7827481,-3282693.02349 95526.5168006,-3282790.3301 95337.8286303,-3283373.04357 95338.0486218,-3283976.60842 95320.9330586,-3284567.11996 95397.0969694,-3285269.97872 95671.8179262,-3286094.52783 95976.8894314,-3286659.57195 96435.8460177,-3287208.45529 96801.8678757,-3287773.31008 97214.0379003,-3288567.05567 97488.9718801,-3289087.28043 97672.1273772,-3289606.0549 97707.9597586,-3289933.85269 97748.7957089,-3290307.85028 97688.0388847,-3290811.97478 97520.1282583,-3291347.0504 97199.42263,-3291788.704 96741.2492713,-3292201.6791 96283.3518927,-3292598.78417 95687.3379261,-3293010.8724 95199.7776537,-3293239.7765 94573.821109,-3293590.72813 94070.0492983,-3293743.56577 93488.9968081,-3293988.0286 93001.2328378,-3294156.00866 92497.2115427,-3294462.01773 92246.0149176,-3294638.75214 91978.396411,-3294827.6428 91596.4391348,-3295148.65405 91199.4520339,-3295545.65549 90756.288451,-3296110.73264 90283.6810467,-3296614.62404 89947.1929741,-3297057.59727 89427.3226999,-3297500.67709 88939.6377648,-3297988.89735 88465.8557132,-3298431.95472 87962.2705945,-3298828.71845 87381.9353713,-3299317.59222 86862.7814628,-3299744.31308 86466.484066,-3300111.60815 86002.4206985,-3300454.83303 85601.6475586,-3300880.48082 85224.4535387,-3301244.85247 84908.2942028,-3301668.52056 84542.7187306,-3302126.70128 84252.35568,-3302524.61985 83931.6961237,-3302934.77147 83728.9821635,-3303402.84925 83381.9756547,-3303883.43708 83213.7475872,-3304387.56136 83000.9953711,-3304860.38926 82787.2474175,-3305287.68996 82599.2143378,-3305772.52132 82325.3003936,-3306210.37837 82002.121723,-3306684.72655 81718.2123306,-3307257.71323 81443.8412108,-3307715.4567 81118.6004687,-3308156.27324 80750.7921371,-3308578.53734 80452.439899,-3308923.60897 79942.8418212,-3309151.47255 79412.6806898,-3309395.78705 78756.2827965,-3309746.44324 78129.8430084,-3310067.54749 77534.7840444,-3310403.61313 76908.911104,-3310602.71589 76222.2908207,-3310785.64461 75610.9860429,-3310831.91208 75061.430459,-3310907.66925 74359.4368526,-3310877.07318 73824.5851611,-3310847.07714 73335.4909714,-3310831.92623 72770.4018088,-3310893.00127 72312.2317064,-3310984.08127 71839.2664327,-3311076.29392 71335.3943115,-3311244.26426 70968.7094137,-3311442.40706 70556.6772966,-3311702.53877 70098.4889142,-3311962.23892 69732.8950585,-3312252.54909 69459.9991245,-3312607.18354 69012.9628149,-3313032.18081 68520.8814833,-3313723.97559 68464.7502261,-3313528.41016 68456.9209871,-3313374.27774 68399.0883317,-3313266.62258 68328.8618324,-3313139.5823 68283.8764945,-3313057.22805 68179.9165996,-3312975.41913 68093.0908649,-3312819.39585 68081.0024834,-3312700.30399 68063.8408951,-3312560.27502 67988.0882141,-3312503.58298 67940.7432744,-3312351.48085 68012.8122029,-3312327.61727 68064.0544134,-3312316.7537 68130.6347994,-3312266.5296 68140.6436833,-3312183.43857 68109.6730843,-3312148.11688 68060.7236818,-3312117.64213 68031.6849801,-3311997.36744 68041.8317116,-3311948.48542 68069.5883274,-3311870.48393 68115.8868818,-3311801.47881 68309.7686756,-3311697.37974 68381.6136293,-3311664.11184 68469.8798264,-3311631.57165 68569.9007196,-3311603.58762 68679.7794762,-3311581.29667 68740.6343431,-3311527.54495 68785.8360807,-3311450.69031 68873.886351,-3311389.40358 68860.6342658,-3311339.33695 68751.4794917,-3311267.3459 68702.82082,-3311182.29675 68670.4647425,-3311109.3906 68657.5024921,-3311004.74961 68610.9324536,-3310914.58106 68546.8134134,-3310886.75347 68459.5908777,-3310874.57862 68379.9437765,-3310883.64524 68304.5745152,-3310909.74228 68232.6216156,-3310928.63507 68166.5937708,-3310927.73343 68087.4998357,-3310885.67672 68020.5639646,-3310879.38914 67964.5709653,-3310912.43534 67923.8481593,-3310976.54959 67868.8817529,-3311003.56624 67816.5113906,-3311077.49836 67831.6252458,-3311119.48893 67885.0114873,-3311149.62554 67939.0010389,-3311187.6509 67929.6481487,-3311240.43943 67872.7153091,-3311254.71252 67795.8396728,-3311254.64091 67709.6741229,-3311249.82448 67679.8825608,-3311294.7537 67697.0094125,-3311330.63916 67736.7413403,-3311363.80377 67790.8360199,-3311422.6504 67816.6060439,-3311467.79338 67825.7254592,-3311515.69771 67804.6206362,-3311557.48294 67756.6352866,-3311578.51115 67731.6265328,-3311614.64383 67674.9630198,-3311619.47399 67603.664177,-3311614.51293 67583.9641898,-3311564.442 67584.9809684,-3311493.44479 67564.8690974,-3311431.50276 67537.978924,-3311345.77804 67485.6395453,-3311348.78926 67408.5870139,-3311404.77263 67350.7050764,-3311419.6145 67277.7841826,-3311393.45146 67292.87094,-3311324.84932 67329.6118213,-3311260.54242 67365.8454939,-3311228.51066 67352.8715721,-3311149.65626 67308.0409854,-3311153.58077 67258.7294121,-3311170.24656 67212.6892044,-3311164.84067 67155.859324,-3311115.62496 67144.9189149,-3311069.84291 67166.5611089,-3311015.61777 67206.5858656,-3310987.75972 67233.5444233,-3310918.74582 67210.9361202,-3310843.6036 67178.9975185,-3310769.67075 67134.5671186,-3310726.94556 67088.8951777,-3310745.81225 67085.5973478,-3310825.91142 67034.9019601,-3310882.85419 66984.7459833,-3310836.59919 66957.6943661,-3310774.69085 66921.8749671,-3310727.83532 66862.5942956,-3310730.8805 66828.7032838,-3310780.587 66823.6246052,-3310856.85527 66770.6346976,-3310870.82635 66713.0302346,-3310856.88127 66647.9601299,-3310829.62045 66584.8041144,-3310846.84866 66532.6346749,-3310891.00999 66481.7471836,-3310951.93574 66445.0224827,-3311061.86974 66405.0608936,-3311116.50481 66279.6159009,-3311246.61505 66192.7976937,-3311252.75871 65950.6722292,-3311160.6771 65655.0413585,-3311212.05096 65179.8280708,-3311327.74728 64381.7595391,-3311443.83315 63344.5443289,-3310774.21284 63278.9052572,-3310655.23452 62981.5543224,-3310612.99334 62217.9149909,-3310265.15151 61808.8287397,-3310033.04497 61768.8983943,-3310010.30487 61718.5370716,-3309987.37 61409.2038792,-3309840.38693 60624.0121248,-3309470.35262 60284.553273,-3309104.4388 59490.961983,-3308384.33025 58702.1113133,-3307667.80108 58436.894176,-3307299.66017 57209.8355247,-3307502.98478 57162.5116469,-3306668.77239 57098.6306185,-3305324.89804 57032.8107653,-3304897.86521 57023.0249034,-3304834.62207 56945.6443418,-3304340.51256 56960.8880412,-3302380.97533 56108.6289236,-3302237.11541 55441.4934332,-3302075.16621 54237.4104737,-3301891.13737 53583.6895394,-3301606.11313 55235.5430531,-3299691.4426 58251.2212859,-3296770.34311 60950.4212163,-3294208.49927 61254.6582394,-3293898.19077 62016.9441209,-3293265.39476 61780.2606734,-3292585.57219 61697.8739145,-3292252.10089 61435.6408825,-3291490.39432 60947.8807749,-3290057.90964 60926.8879181,-3289997.01253 60997.7129888,-3289630.07358 61078.7979365,-3288588.3439 61197.55923,-3287036.39809 61292.2502148,-3285846.35911 61359.2095031,-3285009.56763 61440.4302419,-3283909.34371 61566.0315128,-3282157.56703 61588.1206833,-3281977.84979 61135.0992782,-3281287.59991 60629.166414,-3280507.60968 60478.709435,-3280275.98891 58913.424886,-3279103.03168 58646.3926424,-3278916.92324 58384.1521468,-3278165.04191 58397.2549096,-3277663.12012 57881.374765,-3276062.46443 57806.1132833,-3275978.88117 57639.2295299,-3275792.12008 57363.8028568,-3275534.20889 56737.9040821,-3274944.19682 56460.5508908,-3274680.46857 56318.5018612,-3274474.45996 55676.9259088,-3273499.72031 55160.2497675,-3273324.49113 53900.9729744,-3272898.82752 53398.4350348,-3272746.81768 53151.689103,-3272704.44681 52876.3907553,-3272651.83147 52590.7705828,-3272600.49089 52318.4282061,-3272547.65035 52101.4558546,-3272505.50756 51825.5657277,-3272464.83814 51463.9169095,-3272411.79582 51222.577186,-3272375.45959 50777.5941743,-3272309.36308 50182.98582,-3272212.89625 49763.6414021,-3272144.85854 49598.0664487,-3272290.80279 49366.6090716,-3272424.85783 49228.7212306,-3272411.95687 48943.6110683,-3272413.6471 48742.4700123,-3272515.65038 48470.3841308,-3272479.6477 48216.0997297,-3272600.54807 48079.4702868,-3272689.74365 47792.7626877,-3272880.56206 47475.073967,-3272976.49028 47298.8035014,-3273059.75304 47017.1434835,-3273218.94166 46921.5154423,-3273121.98602 46837.9246117,-3273072.7378 46729.9232793,-3273061.54804 46594.8431048,-3272987.41508 46438.7914138,-3272878.65054 46259.2048537,-3272832.68283 46066.6223831,-3272746.0237 45859.6187366,-3272770.58769 45789.8358208,-3272667.70751 45670.2961892,-3272576.02626 45525.2104984,-3272546.79867 45419.2101772,-3272594.98855 45225.6059064,-3272613.08251 45059.0268724,-3272568.60988 44994.8625868,-3272408.74626 44811.6823848,-3272459.78783 44810.9045774,-3272337.80248 44817.0313033,-3272162.70776 44822.3293233,-3271956.91676 44823.9457399,-3271860.05266 44824.2329904,-3271817.86137 44805.8738243,-3271653.54578 44761.5473567,-3271500.12058 44775.6636268,-3271338.81048 44786.9235899,-3271211.94793 44765.0015982,-3271020.11899 44781.2234817,-3270899.82768 44930.3014799,-3270738.75002 45085.950883,-3270677.88736 45254.9652796,-3270610.06307 45504.8887926,-3270634.85716 45677.2802182,-3270592.07969 45596.1847122,-3270470.70225 45702.7821631,-3270377.82392 45772.1873291,-3270291.72168 45724.6366139,-3270167.81264 45685.9182431,-3270128.06995 45670.2176207,-3270018.62448 45791.8752994,-3269901.79057 45997.8467787,-3269856.97836 46110.4743685,-3269844.01473 46272.4294521,-3269879.91477 46407.7652221,-3269931.21763 46455.5201529,-3269965.81297 46527.194419,-3270014.97417 46641.4482925,-3270187.92074 46737.7213659,-3270227.78358 46826.7533416,-3270263.72791 46942.152309,-3270221.78097 47053.1859686,-3270181.15582 47155.4063923,-3269990.88273 47249.8097126,-3269775.90035 47292.4656342,-3269637.74752 47171.4208862,-3269493.0957 47155.144929,-3269389.15438 47198.6486806,-3269268.7968 47247.8107821,-3269170.83231 47285.4037547,-3269097.05664 47378.4229484,-3268922.86036 47449.0126188,-3268753.82946 47561.4275885,-3268599.99899 47631.6534262,-3268472.17112 47698.7614719,-3268349.04353 47718.4285053,-3268313.82709 47750.0743777,-3268259.84854 47851.4330056,-3268117.27196 47945.9811697,-3267937.01231 47955.7367872,-3267730.90359 47818.3418753,-3267540.35626 47680.0078679,-3267343.92575 47668.3741677,-3267209.37527 47662.3117846,-3267128.97264 47638.0241233,-3266958.17083 47504.3100682,-3266744.02714 47405.3071468,-3266582.32974 47297.7651327,-3266373.15612 47233.0147229,-3266192.00885 47223.7445973,-3266003.20694 47182.3401112,-3265888.26179 47155.4412206,-3265814.38962 47146.2742792,-3265633.51698 47120.7527964,-3265479.17669 46958.0362581,-3265255.30651 46737.0436266,-3265153.39646 46554.1103324,-3265023.31739 46484.7429962,-3264886.16877 46225.4689206,-3264783.17105 46090.1338948,-3264567.15261 46099.4731795,-3264467.23204 46106.4541114,-3264395.26994 46183.6524983,-3264162.24811 46265.7950199,-3264113.39741 46327.0132948,-3264076.54073 46547.0987175,-3264008.37033 46710.5997909,-3263854.17662 46742.7215865,-3263648.3659 46692.6072019,-3263503.31743 46614.6448826,-3263311.25432 46689.9583105,-3263191.48508 46768.6237937,-3263063.52667 46762.3954351,-3262855.64438 46124.6625672,-3262713.66561 45982.4361638,-3262682.70348 45769.7460731,-3262539.47426 45608.4062216,-3262432.56063 45375.4742077,-3262277.45829 45102.7492341,-3262140.7286 45030.0750737,-3262104.52766 44934.4699529,-3262007.54496 44802.8432387,-3261873.58572 44658.8310278,-3261726.66723 44505.1226347,-3261569.56341 44378.9118796,-3261441.64323 44317.0954807,-3261378.33 44261.1514665,-3261274.39055 44213.8694588,-3261186.66642 44115.6035817,-3261001.57419 44021.9158415,-3260824.57046 43998.7684907,-3260780.67084 43672.8474083,-3260167.69989 43598.8667788,-3260028.40277 42948.4874257,-3258781.98219 42817.2884639,-3258600.84505 42399.8738256,-3258030.93953 42035.289604,-3257978.96964 40132.0905,-3257707.76995 35547.0542799,-3257054.576 35747.8969167,-3253868.85704 29977.5750711,-3253084.25909 29659.5614774,-3254044.05319 27161.4650499,-3253780.9548 26356.5657877,-3253695.95523 25934.4133836,-3253652.20262 24236.5107928,-3253472.91235 23598.6983816,-3253406.12726 23389.5840901,-3253384.09929 22799.6219028,-3253320.17155 22593.9731822,-3253350.98936 22428.7093816,-3253404.08972 22282.6187018,-3253434.90566 21935.6487297,-3253441.08901 21660.6505051,-3253467.18463 21607.7654799,-3253470.16045 21325.8303791,-3253489.82788 20842.8011863,-3253515.15481 20763.6819134,-3253519.10652 19572.9598187,-3253460.04588 18874.7246651,-3253309.9202 18097.2068067,-3253141.91058 17994.8210271,-3253120.30592 17941.8078694,-3253108.39916 17893.2370705,-3253096.15908 17791.0111713,-3253070.07472 17688.8591275,-3253044.97744 17587.1634465,-3253019.3494 17485.0109833,-3252994.25186 17384.2650691,-3252968.05588 17281.6185806,-3252942.99511 17179.922068,-3252917.36654 17060.0109881,-3252887.14761 16977.1453411,-3252861.09882 16877.0523635,-3252830.38559 16776.922164,-3252799.1786 16676.2981575,-3252768.00848 16576.2046024,-3252737.2948 16475.9997693,-3252705.10011 16375.9058306,-3252674.38612 16276.2682915,-3252643.14134 16174.6560798,-3252612.0445 16075.0551847,-3252581.29303 15974.9234498,-3252550.08481 15874.223846,-3252517.92622 15774.1287537,-3252487.21131 15673.9964434,-3252456.00263 15573.9009671,-3252425.28742 15472.706966,-3252393.16523 15373.1047339,-3252362.41269 15272.9716566,-3252331.2034 15173.3320197,-3252299.95693 15073.2355845,-3252269.24096 14974.0398142,-3252224.06136 14878.9040344,-3252180.06627 14770.995262,-3252164.33165 14676.3527716,-3252120.29919 14581.2905434,-3252077.29083 14485.1668468,-3252033.36904 14390.0302821,-3251989.37301 14294.9676131,-3251946.36406 14199.3741347,-3251902.8983 14104.2001133,-3251858.40804 14008.0386585,-3251813.99162 13912.9754022,-3251770.98189 13818.368628,-3251727.44131 13722.2067315,-3251683.02429 13627.0690016,-3251639.02669 13530.9438269,-3251595.10292 13436.3734882,-3251552.0552 13340.2480174,-3251508.13104 13245.1097038,-3251464.13265 13149.9712453,-3251420.13406 13054.3389867,-3251376.17229 12959.2002374,-3251332.17331 12864.1353695,-3251289.16145 12768.0090127,-3251245.2361 12672.3761662,-3251201.27354 12576.8171963,-3251158.29811 12482.1713781,-3251114.26113 12376.2207092,-3251065.11425 12293.0028744,-3251021.21295 12200.9115149,-3250971.52301 12108.783027,-3250921.33919 12015.6670875,-3250871.22918 11923.5753695,-3250821.5386 11831.9401935,-3250771.31713 11739.8112316,-3250721.13246 11626.9361438,-3250659.09871 12101.531008,-3250182.18769 12180.3607014,-3250101.31711 12427.3436188,-3249793.38406 12556.729164,-3249625.32521 12651.7042006,-3249501.54624 12850.3171423,-3249270.2194 13287.8428011,-3248742.49957 13669.5486868,-3248238.33202 14155.6943136,-3247531.26061 14534.5649609,-3247042.21836 15215.4443495,-3246131.46698 15805.4558751,-3245213.64637 16449.419405,-3244207.42924 16803.5356302,-3243526.70682 17223.7423704,-3242833.6073 17546.6864838,-3242107.58918 18061.5781233,-3241153.79735 18342.6167671,-3240311.81437 18603.23373,-3239561.70568 18804.4141418,-3238879.58001 19170.6387259,-3238054.5958 19396.6382723,-3237418.77974 19775.2208794,-3236745.76957 20054.5731664,-3236192.84589 20206.3397096,-3235892.15696 20699.5789479,-3235086.04047 21131.2247085,-3234358.98561 21608.5821147,-3233566.00091 21983.283343,-3233173.2669 22080.3949907,-3233037.97758 22181.3967033,-3232894.95422 22489.1658021,-3232523.1036 22791.1537288,-3232140.27449 23146.1985236,-3231810.07227 23383.1117267,-3231546.25091 23473.3493784,-3231445.22948 23759.1725644,-3231205.06183 24078.3257072,-3230979.2864 24387.1869173,-3230755.27369 24821.0885114,-3230431.12774 25161.142444,-3230066.33968 25513.4145344,-3229719.00853 25803.1509059,-3229364.92796 26054.2835177,-3229012.23906 26341.2435224,-3228614.20815 26669.9582462,-3228090.50004 27168.1787966,-3227677.24594 27576.4012659,-3227328.265 27921.3757458,-3227016.25412 28167.7552587,-3226746.3237 28477.0280781,-3226321.35887 28742.9406654,-3225980.51117 28951.3069661,-3225613.18477 29106.4086892,-3225283.56818 29377.0258085,-3224672.4429 29775.9488563,-3223918.30249 30020.0482577,-3223577.61414 30192.7548117,-3223224.37571 30482.3421486,-3222861.45686 30710.1151761,-3222554.74292 30913.9475007,-3222319.77505 31380.2873345,-3221804.79706 31700.0418965,-3221400.45716 32155.9452928,-3220798.45085 32598.6683951,-3220085.7985 33064.9448876,-3219409.61625 33434.8937695,-3218725.71802 33859.6675752,-3217991.61911 34204.1407645,-3217331.9646 34570.0096508,-3216592.83874 34865.1226557,-3215822.75821 35158.7256796,-3215012.1182 35489.3959941,-3214125.81026 35772.0259736,-3213340.81577 36018.991951,-3212476.12005 36285.2504534,-3211530.13101 36546.4476207,-3210636.12612 36710.1324296,-3209691.31052 36809.2930099,-3208732.42912 36819.9260808,-3208333.26685 36913.3546943,-3208094.17231 37129.8905579,-3207969.99268 37386.9281807,-3208051.17887 37776.8428763,-3208318.98216 38439.0785939,-3208814.16792 39138.1481873,-3209351.25805 39842.0195364,-3209866.14759 40588.9912463,-3210407.09518 41333.7282951,-3210958.11044 41974.5445443,-3211425.53367 42725.5765,-3212001.34471 43461.7836692,-3212544.50379 44294.4254253,-3213157.37835 44968.7528932,-3213655.48381 45745.0049763,-3214130.14123 45926.5882503,-3214251.09247 46179.7042888,-3214420.30566 46412.9401243,-3214575.61532 46452.6258225,-3214602.4318 46596.3516359,-3214721.22727 47245.1633594,-3215263.33316 47912.4992288,-3215814.46366 47958.2326924,-3215849.26104 48265.1579741,-3216095.30882 48648.4754736,-3216401.64875 49315.3637287,-3216933.43331 49378.0160638,-3216982.34753 49454.313651,-3217021.32106 49510.9519764,-3217049.35459 49987.5346327,-3217289.23594 50485.7820029,-3217540.39799 50789.7599903,-3217693.39693 51189.050788,-3217894.36676 51631.6384537,-3218117.4106 51940.2328827,-3218272.53765 52224.6185066,-3218415.57394 52842.3677555,-3218279.43123 52971.2406605,-3217971.30667 53020.2881853,-3217870.46106 53081.9176917,-3217745.37249 53487.4399987,-3217048.73121 53864.3156406,-3216400.35101 53895.0326647,-3216346.49501 54400.6916702,-3215388.54163 55023.229838,-3214207.71016 55152.0577829,-3213965.5745 55758.6282777,-3212876.72021 56149.495647,-3212149.02716 57297.9837706,-3213078.95471 58254.2111442,-3213897.14149 59009.1137049,-3212957.03086 59150.2905387,-3213062.09741 59799.3476339,-3213549.98263 59667.0372093,-3213724.91435 60083.1237291,-3214126.92913 60863.0679956,-3214835.14653 61893.5294229,-3215772.16495 64721.4470245,-3218340.24028 64874.430937,-3217976.86001 64921.5033098,-3217842.96922 64948.3573384,-3217697.19382 64982.3908045,-3217561.2972 64999.6111239,-3217359.22123 64880.5700502,-3217118.17965 64880.4467645,-3216936.23159 64880.4203524,-3216889.13293 65076.6167855,-3216807.1379 65160.230239,-3216751.3507 65248.8102536,-3216582.15452 65310.398758,-3216410.00496 65328.4335968,-3216359.08709 65348.4752524,-3216295.12977 65306.5409134,-3216150.99301 65322.6412693,-3215987.1788 65394.6350879,-3215895.0719 65430.432469,-3215796.23192 65491.5423387,-3215704.43762 65524.5261128,-3215594.40379 65563.2824901,-3215495.34483 65568.3117899,-3215416.14156 65572.4648694,-3215338.49072 65577.5676407,-3215260.27364 65614.3368228,-3215181.19406 65668.5901345,-3215157.33667 65740.5416308,-3215151.50157 65829.6580196,-3215136.46021 65950.272955,-3215098.25867 65993.8805394,-3215084.61133 66011.7442265,-3214971.23934 66024.7175058,-3214885.49826 66064.7588284,-3214830.47028 66138.549726,-3214789.29895 66210.6626018,-3214765.60449 66298.3371578,-3214764.55274 66342.704537,-3214694.33095 66428.5908714,-3214555.5865 66554.5106378,-3214448.5767 66749.4157274,-3214282.41056 66962.2917096,-3214298.3471 67076.285009,-3214184.2918 67109.634209,-3214052.4227 67012.6227755,-3213987.7329 67010.9007392,-3213757.32876 67093.4304641,-3213446.31092 67404.7357756,-3213298.78588 67459.4194522,-3213200.53563 67568.6677167,-3213102.70099 67568.3097284,-3212970.85538 67372.5990625,-3212905.55094 67223.3561066,-3212985.52923 67098.5077505,-3212812.84173 66995.5785547,-3212708.431 66927.7631472,-3212562.74636 66973.3529498,-3212435.42447 66995.9549279,-3212352.44308 67044.5554598,-3212178.79232 67060.7132726,-3212122.56452 67097.5202367,-3211990.44132 67136.4295885,-3211893.36175 67224.5362679,-3211817.91935 67273.0290427,-3211642.79103 67404.4115384,-3211495.72677 67753.7486909,-3211526.84539 67907.8299155,-3211411.81191 67995.7901954,-3211347.78497 68339.5458051,-3211216.71194 68519.7684624,-3211380.83201 68749.7100521,-3211446.57816 68880.3196352,-3211643.622 68913.70253,-3211692.70469 69077.4196999,-3211560.59958 69273.6060175,-3211478.63707 69356.2669644,-3211396.66227 69503.6965779,-3211298.98107 69651.5187358,-3211413.9411 69716.6974715,-3211577.6592 69651.4274999,-3211773.85065 69517.5685643,-3211900.7672 69552.6536817,-3212019.62144 69732.2139869,-3212134.70467 69994.3173046,-3212086.02474 70240.5056213,-3212183.77331 70401.1704513,-3212385.02382 70492.3932759,-3212331.662 70590.6830972,-3212286.69946 70657.6606865,-3212294.12665 70748.2867619,-3212333.01382 70816.4160241,-3212362.66295 70893.2712813,-3212362.91321 70982.6681515,-3212325.05462 71027.4400935,-3212313.80358 71073.6544607,-3212301.94988 71149.6292459,-3212250.21519 71203.361638,-3212165.9253 71263.1750966,-3212090.10769 71330.6557352,-3211983.979 71382.2344451,-3211910.75521 71422.0907617,-3211839.88776 71398.2586548,-3211779.19457 71362.3558624,-3211696.09756 71323.4400076,-3211605.78805 71323.455173,-3211545.8055 71323.32425,-3211483.85093 71339.3324774,-3211372.12014 71376.4144047,-3211303.93743 71422.2968239,-3211220.7269 71445.2268486,-3211128.80774 71406.6241871,-3211076.14896 71361.3762947,-3211054.2211 71308.4610794,-3211075.98853 71235.4612406,-3211121.05603 71166.3682823,-3211151.95407 71097.4748025,-3211152.103 71073.1870557,-3211091.93852 71081.3458407,-3211008.05347 71097.594119,-3210932.98756 71157.538474,-3210878.97352 71203.5500646,-3210804.18071 71212.623177,-3210746.00543 71194.5629107,-3210696.28519 71158.7875742,-3210527.91463 71290.5991613,-3210360.01474 71341.3205324,-3210188.20991 71372.5434174,-3210141.28244 71447.6442187,-3210117.87249 71523.2388227,-3210147.96272 71612.7835053,-3210179.00208 71659.3071783,-3210111.11289 71552.704966,-3209823.07252 71798.6567951,-3209610.03874 71892.4365623,-3209631.3468 72015.3943899,-3209658.42448 72102.3628228,-3209648.01618 72177.371301,-3209630.06697 72241.3329994,-3209630.28569 72298.5020093,-3209592.34298 72410.6488446,-3209527.02983 72485.4376214,-3209479.3553 72559.203891,-3209471.41246 72623.749309,-3209479.51927 72719.5722717,-3209528.4346 72784.5924061,-3209583.10141 72842.5096063,-3209602.10856 72909.2819945,-3209573.3688 72943.4622703,-3209526.2244 72953.3035046,-3209438.25347 72943.3341364,-3209330.43527 72914.7228163,-3209218.54526 72924.4187158,-3209115.21871 72924.2366894,-3209032.45154 72943.6098425,-3208966.08097 72971.1999535,-3208863.41208 72953.2525172,-3208788.40476 72877.2969787,-3208713.23216 72797.2328937,-3208656.20852 72709.4078454,-3208648.33746 72635.4414983,-3208620.10791 72615.8142104,-3208562.57366 72635.3521281,-3208518.49699 72720.6047947,-3208431.38555 72803.4115865,-3208311.24415 72867.502301,-3208226.19616 72915.7256168,-3208161.15961 72915.7095255,-3208087.30277 72886.4603671,-3208040.395 72802.5984611,-3208012.40156 72746.7458531,-3207974.40305 72709.5367728,-3207900.32552 72644.4092738,-3207844.1771 72579.3902564,-3207816.27508 72522.7720828,-3207741.15561 72513.700371,-3207665.4901 72541.8408222,-3207583.59982 72588.460868,-3207470.10425 72616.8199849,-3207404.556 72569.5502634,-3207348.57189 72522.4444583,-3207301.49802 72484.8342851,-3207235.38042 72494.8070907,-3207169.21041 72519.7902118,-3207078.13602 72559.6526648,-3207020.65904 72531.6846803,-3206937.46969 72485.7306789,-3206872.46509 72428.8757014,-3206814.21552 72410.7849441,-3206750.61831 72429.4491573,-3206694.71042 72513.4992858,-3206631.48499 72653.6063811,-3206535.361 72674.9031379,-3206434.64641 72657.8729595,-3206358.57868 72617.8723998,-3206293.62888 72567.8306251,-3206213.55981 72541.8154286,-3206163.43707 72540.7261915,-3206081.72822 72529.7396791,-3206013.63976 72470.6200048,-3205978.35871 72417.6881844,-3205966.41307 72353.6528678,-3205978.58666 72296.811245,-3205994.19356 72234.9510638,-3205975.47304 72216.5133182,-3205927.26758 72213.8725966,-3205844.68154 72236.9397447,-3205774.56865 72324.8261551,-3205709.57401 72394.5598604,-3205680.6213 72527.7215727,-3205691.58833 72638.0546575,-3205755.79624 72732.4824611,-3205839.52118 72840.7858358,-3205936.59408 72961.4493248,-3206046.63116 73005.5963222,-3206080.54111 73071.8350255,-3206131.6524 73133.968168,-3206147.37789 73219.6967386,-3206093.44837 73286.6573898,-3206013.64514 73297.7803926,-3205969.69754 73311.6071024,-3205908.69665 73296.8817092,-3205796.77016 73253.8763816,-3205657.69056 73230.8286196,-3205513.66441 73247.5120342,-3205370.66435 73282.7646338,-3205230.75194 73329.8993056,-3205137.54645 73428.7029461,-3205072.73849 73543.6978403,-3205045.89192 73686.7896421,-3205043.73378 73844.5798646,-3205032.55751 74009.7900055,-3204947.4725 74152.7224511,-3204882.87152 74368.7183309,-3204867.88616 74538.5210825,-3204844.91725 74690.8912158,-3204780.61054 74772.4572033,-3204710.63658 74795.4927581,-3204599.88638 74789.8968869,-3204517.52414 74748.4397135,-3204459.62339 74697.594026,-3204435.62652 74657.5381737,-3204416.7796 74600.6673754,-3204391.74121 74564.7010568,-3204374.57443 74546.8003429,-3204286.67805 74570.7501782,-3204174.86866 74590.4806088,-3204079.72846 74586.6198298,-3204000.70721 74582.7591994,-3203921.68594 74608.5099806,-3203867.73679 74651.8949158,-3203837.76277 74711.5131498,-3203792.70985 74805.7814604,-3203773.84353 74889.0620157,-3203727.04125 74930.5030063,-3203623.85321 74843.783646,-3203449.84351 74754.8819962,-3203346.87449 74685.7145822,-3203262.76838 74660.9895004,-3203162.98488 74669.8920457,-3203088.96829 74698.6401004,-3203021.911 74777.0112114,-3202969.02947 74810.8155975,-3202910.02495 74728.6861696,-3202824.89381 74568.9050748,-3202742.03244 74490.7515203,-3202683.86827 74386.9610973,-3202640.98184 74337.8007409,-3202586.1266 74343.1271102,-3202503.94762 74379.1230162,-3202447.75499 74434.1219508,-3202413.95 74528.818186,-3202353.91485 74628.8276814,-3202292.00028 74664.9909504,-3202217.95194 74651.7717957,-3202112.85671 74643.0214333,-3202034.69274 74634.9292932,-3201952.01912 74676.9506206,-3201896.86914 74718.9719764,-3201841.71926 74778.0968391,-3201810.08878 74858.7495928,-3201767.94569 74941.9933613,-3201734.03753 75019.9236224,-3201702.00909 75081.8991201,-3201655.2986 75103.091966,-3201579.87953 75128.8164291,-3201485.29071 75170.1339001,-3201387.07165 75194.0808392,-3201328.79743 75234.11105,-3201280.23947 75300.831662,-3201244.0837 75358.9337845,-3201212.03437 75404.1173171,-3201139.30457 75442.7076862,-3201077.9664 75460.1255158,-3200984.98369 75563.8066361,-3200912.3938 75478.0250085,-3200858.26108 75519.9990495,-3200768.9168 75657.1375613,-3200739.95167 75625.2933461,-3200577.2521 75721.0035802,-3200645.0256 76510.7075506,-3201190.38382 77478.8974002,-3201857.34335 79551.4716426,-3202231.51474 81093.3608248,-3202507.58847 81829.2009224,-3202633.59102 83191.0103955,-3202867.93204 83206.9948785,-3202909.86447" style="stroke-linejoin:round;stroke:#000;stroke-width:1px;fill:none" /></g></g></svg>