<svg xmlns="http://www.w3.org/2000/svg" baseProfile="full" height="71145.3951517" version="1.1" viewBox="-11849.054558,3428514.070298,65225.971172,71145.395152" width="65225.9711725"><defs><style type="text/css">polyline,line,rect,path,polygon,.polygon{fill:none;stroke:#000;stroke-width:1px;stroke-linejoin:round;}</style></defs><g fill_rule="evenodd" transform="scale(1,-1)"><g class="id" id="18175"><polygon class="_18175" id="None" points="26849.4774509,-3430398.79485 26940.7883832,-3430369.35085 27115.7796205,-3430242.22242 27233.0598224,-3430181.33 27287.4468516,-3430101.35672 27417.8771852,-3429912.7133 27656.9935537,-3429808.57657 27756.2194641,-3429737.33153 27855.0095185,-3429667.10889 27975.8227054,-3429377.49129 28114.7100219,-3429262.51751 28250.0524358,-3429294.12629 28503.5466114,-3429279.23011 28680.5777575,-3429136.5513 28758.4203798,-3428991.93087 28897.5813554,-3428914.28091 29086.2650214,-3428807.73672 29310.7349953,-3428552.65644 28808.7018114,-3431524.38619 28240.1131914,-3434438.99169 27708.5092958,-3437361.87017 27330.0773589,-3439584.94987 28680.830315,-3441310.37395 28757.3692243,-3441406.27558 28839.4123684,-3441510.80282 29106.1740751,-3441852.49831 30768.2229802,-3443824.67946 30701.9664637,-3443897.42128 30628.4039604,-3444046.27991 30593.9046665,-3444231.58777 30597.0042229,-3444396.6805 30599.7889709,-3444523.95686 30577.4288245,-3444614.43356 30535.888314,-3444700.6041 30474.8281266,-3444760.58437 30290.3930067,-3444846.51077 30182.9263923,-3444888.413 30057.530275,-3444897.55588 29982.9978876,-3444908.07658 29908.4654042,-3444918.5973 29771.3214201,-3444906.55171 29630.2685998,-3444854.91684 29546.148457,-3444871.49868 29486.9870634,-3444946.29966 29427.5450192,-3445147.07333 29398.1558136,-3445212.0929 29349.4646848,-3445270.82238 29282.3846247,-3445313.74699 29168.7222747,-3445352.04589 29032.8052537,-3445368.30366 28955.3679114,-3445372.03235 28880.9986649,-3445417.89131 28823.8330905,-3445484.6063 28784.9238516,-3445573.10883 28773.4264172,-3445613.14075 28734.2465669,-3445738.00331 28723.0249735,-3445864.14725 28719.7960081,-3446162.06118 28720.0392073,-3446312.89627 28720.9439892,-3446499.03871 28711.4961872,-3446621.58974 28674.5749458,-3446750.79619 28556.5532315,-3446929.75991 28398.4780601,-3447047.94125 28349.1038375,-3447193.34249 28323.9453257,-3447270.55272 28170.1264432,-3447531.85945 28122.522863,-3447804.10825 28095.9971293,-3447948.61388 28088.1279028,-3448031.73934 28084.5755722,-3448087.71673 28057.6386775,-3448152.09199 27996.2420492,-3448231.01793 27908.5224349,-3448335.44876 27840.7685558,-3448416.25689 27723.1559082,-3448463.26772 27636.6823421,-3448498.41995 27407.0979409,-3448570.6896 27239.2425923,-3448634.70943 27121.8596534,-3448758.87699 27031.1823735,-3448871.9546 26834.8484452,-3448950.65954 26712.5085903,-3448985.51395 26609.1954906,-3449046.58964 26595.8523091,-3449121.58796 26713.4185703,-3449261.28079 26699.9473579,-3449383.0871 26619.6983653,-3449487.56361 26612.5962891,-3449599.52155 26575.1303783,-3449678.9808 26507.5428286,-3449729.90965 26400.7960348,-3449808.12451 26344.8302606,-3449927.05092 26309.5305225,-3450009.36573 26257.3099784,-3450132.54468 26201.1054955,-3450223.10719 26109.8808213,-3450351.6568 26089.6633966,-3450444.50205 26071.4413624,-3450529.25937 25986.0149247,-3450679.36235 25860.5484996,-3450777.14517 25736.9197275,-3450913.15322 25706.3965304,-3451016.58678 25726.7223726,-3451112.93015 25697.7538834,-3451168.4719 25626.9259854,-3451141.93116 25571.7339669,-3451151.27844 25524.5472825,-3451177.56257 25432.3398413,-3451232.98592 25349.7250456,-3451323.17329 25260.6206212,-3451510.84587 25222.7952181,-3451559.95912 25173.94409,-3451624.18509 25071.5015709,-3451683.22235 24979.7047086,-3451777.95527 24919.0816688,-3451926.54709 24843.8129619,-3452153.20789 24822.9441246,-3452202.77915 24798.035454,-3452259.5679 24698.3848091,-3452339.84548 24609.7465443,-3452437.37439 24580.355936,-3452575.59447 24558.0749015,-3452683.50631 24507.112404,-3452819.06234 24463.088174,-3452913.36687 24394.0948985,-3452949.4504 24273.8507261,-3452945.35023 24233.9485732,-3453017.49565 24243.7594797,-3453120.95675 24309.6451586,-3453205.05652 24365.2568206,-3453275.84314 24378.6568547,-3453315.85147 24363.2149621,-3453364.5939 24301.6820715,-3453408.68617 24200.1818123,-3453458.70769 24074.6803379,-3453490.77885 24036.0993013,-3453503.096 24037.2178735,-3453570.24429 24093.1764478,-3453614.1231 24084.0494723,-3453692.85169 24011.3001392,-3453732.65139 23918.3537601,-3453784.14223 23831.9648193,-3453869.58755 23797.2756183,-3453961.82952 23814.803665,-3454044.90332 23898.2184623,-3454073.65937 23983.7296654,-3454087.84794 24086.7237146,-3454102.95885 24231.1475656,-3454038.36137 24412.6997262,-3454027.25822 24600.657223,-3454047.62876 24677.3403121,-3454055.88434 24839.5923089,-3454103.71724 24998.7463228,-3454149.74772 25150.6945926,-3454159.37457 25346.6273033,-3454171.78803 25578.8458307,-3454101.822 25796.3268142,-3453994.42048 25902.0273616,-3453907.29862 26027.6813764,-3453804.51818 26093.4620627,-3453642.66621 26197.6067168,-3453513.81843 26306.818577,-3453443.41132 26431.8513354,-3453387.47137 26547.0113956,-3453365.49326 26693.8131479,-3453372.44888 26872.1495248,-3453349.59506 27151.5148919,-3453277.24865 27262.5399602,-3453171.38312 27403.2977304,-3453038.80646 27518.0045743,-3452846.58509 27611.2532461,-3452751.26739 27795.4805771,-3452702.66413 27914.825007,-3452724.74201 28025.1954051,-3452689.61592 28102.0447569,-3452594.80396 28168.3610852,-3452449.85396 28240.7030636,-3452387.18142 28278.9999624,-3452353.97273 28470.8606348,-3452275.53062 28542.2057364,-3452261.70996 28659.1639655,-3452236.63741 28815.9999101,-3452155.3585 28924.3822418,-3451941.12659 28988.2578792,-3451813.25581 29088.6122684,-3451712.03142 29215.830751,-3451618.62474 29344.0546814,-3451492.79652 29498.465012,-3451461.45399 29607.3783855,-3451492.13649 29754.8065258,-3451623.51994 29885.613273,-3451759.90144 29972.1467378,-3451880.56807 30089.8006352,-3451956.51719 30265.5704448,-3451989.58369 30544.3008396,-3451939.68835 30783.2986855,-3451907.65509 31028.8779835,-3451844.85149 31195.2817747,-3451879.48565 31283.8738817,-3451944.26554 31319.6079116,-3452015.76116 31386.1272262,-3452151.08927 31506.8518775,-3452269.164 31547.4008285,-3452378.69814 31701.5404372,-3452473.32235 31838.60199,-3452475.89534 31945.9023799,-3452390.67799 32059.812839,-3452299.58072 32196.8693689,-3452236.93863 32300.272638,-3452258.99364 32377.930419,-3452340.37052 32453.4527173,-3452419.3886 32589.6981348,-3452473.78534 32829.7203345,-3452320.21829 33189.8743142,-3452193.65831 33498.0445375,-3452250.98552 33816.0349353,-3452379.39705 33971.938068,-3452494.81725 34131.9860553,-3452547.75673 34227.4398648,-3452578.2611 34466.7668381,-3452657.71493 34738.7800497,-3452677.42376 35009.0360156,-3452757.97199 35290.2291091,-3452748.74379 35537.0831476,-3452690.83943 35782.2867627,-3452752.50812 35823.8962285,-3452741.00358 35934.6183026,-3452549.05296 36081.2935809,-3452448.49071 36335.483832,-3452372.21903 36799.4155209,-3452380.19408 36973.9522989,-3452393.41708 37086.9733127,-3452401.93857 37234.9669185,-3452355.5565 37386.4013612,-3452308.46649 37659.7343226,-3452236.00409 37993.6125183,-3452013.99157 38050.0398326,-3451976.19532 38154.6152288,-3451903.59803 38327.7390365,-3451722.77554 38450.8342952,-3451659.99805 38634.6366474,-3451670.16708 38784.1073048,-3451696.86996 39020.9818163,-3451809.81946 39184.9263242,-3451812.73956 39349.227871,-3451780.79409 39534.1186933,-3451808.81528 39737.6236711,-3451913.34942 40034.770268,-3452051.48119 40252.1205758,-3452252.22999 40433.9793699,-3452320.2549 40512.4473154,-3452390.61871 40551.9747157,-3452426.52923 40827.9698478,-3452528.11994 41053.4087548,-3452682.07836 41146.3356295,-3452923.77891 41336.7844854,-3453286.93893 41393.0629021,-3453613.00785 41526.624188,-3453713.34813 41675.4155676,-3453826.69329 41772.8477278,-3453922.27408 41888.7584577,-3454035.1408 42063.8665606,-3454261.35587 42148.7454723,-3454452.77246 42184.7788625,-3454553.60107 42218.1917278,-3454644.13727 42214.2055007,-3454871.85037 42308.5273176,-3455095.53904 42531.1111724,-3455349.20646 42817.5125469,-3455596.47755 42972.5890918,-3455714.90567 43048.3158535,-3455772.986 43340.8005449,-3455916.35122 43495.4306282,-3456068.1528 43716.5071243,-3456289.05293 44056.4730438,-3456329.96095 44322.1984245,-3456361.47656 44396.1422957,-3456528.66583 44480.5301026,-3456720.10164 44607.8768846,-3457003.47461 44695.6962943,-3457128.99932 44836.5748842,-3457421.99405 44871.0745162,-3457562.72819 44873.7480847,-3457703.91804 44828.2411964,-3457789.82484 44782.4511073,-3457879.23321 44793.0782377,-3457955.232 44842.5855521,-3458040.2972 44853.2029555,-3458124.26009 44785.5246817,-3458221.97753 44748.3781776,-3458338.72961 44793.0390736,-3458434.04597 44824.0270734,-3458484.90673 44903.8854087,-3458610.41894 44989.9791841,-3458780.84171 45033.1629231,-3458868.2843 45117.349344,-3459153.79726 45163.2950441,-3459440.65714 45177.1619698,-3459504.51149 45217.1333824,-3459685.72207 45241.3237791,-3459771.839 45279.8872309,-3459913.81547 45367.7760174,-3460089.10273 45448.9744732,-3460236.42939 45532.5213399,-3460389.58437 45546.3269646,-3460582.35165 45451.6037932,-3460677.24963 45440.9674049,-3460812.28652 45465.3531677,-3460917.80199 45424.6105802,-3461040.74826 45349.3157836,-3461111.56101 45257.8608452,-3461194.81227 45198.9980041,-3461363.1676 45185.7866366,-3461423.70453 45160.41866,-3461570.09782 45135.8697847,-3461705.49111 45181.336167,-3461805.73265 45229.3920182,-3461891.38125 45259.0662682,-3461928.88204 45330.2358682,-3462018.09039 45359.9101574,-3462055.59105 45403.370234,-3462123.10522 45483.5496654,-3462245.60581 45552.998031,-3462322.97364 45624.6382831,-3462460.43126 45695.8133546,-3462598.41481 45832.6452715,-3462743.81884 45909.9324052,-3462875.95178 46034.6990249,-3463084.30955 46130.1988582,-3463278.03699 46169.8756012,-3463348.76779 46225.2188259,-3463431.47812 46306.3310267,-3463552.92261 46396.1374937,-3463686.2763 46460.2938404,-3463839.61875 46531.6122039,-3464125.90936 46562.5231358,-3464248.44173 46624.9951261,-3464358.08765 46730.2420164,-3464540.26347 46749.3828847,-3464576.4175 46851.5549562,-3464765.25155 46994.3814818,-3464983.94127 47142.6539376,-3465210.25908 47300.8704872,-3465412.07527 47453.6193245,-3465654.54047 47533.0374242,-3465853.72608 47638.0531082,-3466023.96575 47768.1051297,-3466139.91074 47937.1589592,-3466210.16021 48186.4110248,-3466362.58346 48388.1972714,-3466593.07278 48567.284136,-3466753.78314 48651.9366985,-3466843.64572 48851.2397952,-3467049.89669 49007.2756623,-3467264.77585 49043.6630691,-3467314.30162 49204.338997,-3467450.75608 49537.227475,-3467627.89455 49817.6527462,-3467777.39652 50017.3331424,-3467949.27604 50111.9105421,-3468030.56175 50196.190987,-3468033.34735 50392.6694413,-3468039.6919 50680.677948,-3468223.56111 50916.5803512,-3468482.79351 51009.5743463,-3468684.11542 51308.6286202,-3471606.0368 52289.2878672,-3476655.87233 53125.6282628,-3480963.99586 52604.666174,-3480965.76382 52487.7257073,-3480966.00764 52175.6968815,-3481079.31222 51976.8098161,-3481251.83293 51761.421544,-3481632.90956 51745.5778412,-3481682.66048 51703.1774068,-3481810.19626 51528.1263608,-3481973.7854 51386.2878604,-3482143.28992 51274.7984329,-3482296.48992 51308.7086635,-3482475.06163 51429.5351589,-3482578.09584 51544.571262,-3482676.0122 51559.3308939,-3482818.4375 51457.7798673,-3482906.82279 51238.0142406,-3482918.3916 51119.3573211,-3483124.79212 50954.6298891,-3483205.62982 50832.6014764,-3483365.45616 50653.4775855,-3483390.44515 50557.5106884,-3483351.5737 50339.756185,-3483323.20337 50014.4078744,-3483301.47178 49736.4398013,-3483394.27591 49463.4647312,-3483519.62178 49358.7089144,-3483620.65187 49303.756928,-3483673.81448 49192.2144988,-3483656.80745 49148.5282098,-3483569.91434 49056.6998123,-3483388.43924 48826.8400303,-3483260.77281 48650.5622335,-3483283.59489 48537.9628199,-3483386.60285 48399.2874828,-3483430.00033 48237.4021845,-3483355.37628 48065.2654732,-3483195.27773 47992.4343889,-3483128.09883 47682.7283588,-3482827.66543 47519.404343,-3482729.73396 47345.8220794,-3482747.90837 47127.8621368,-3482998.77342 46887.5022529,-3483088.26283 46830.0934141,-3483109.72325 46618.0482994,-3483287.05941 46548.000141,-3483458.62175 46667.3604302,-3483666.7777 46656.816367,-3483794.35174 46528.0472363,-3483845.10354 46358.9552104,-3483863.50196 46163.0412344,-3484019.93728 45840.2379212,-3484080.17551 45716.9945819,-3484155.97258 45634.4914719,-3484206.35924 45523.7648987,-3484444.64623 45550.3255034,-3484641.11132 45575.8950778,-3484837.6375 45450.2460744,-3484979.28828 45205.7244795,-3485074.02259 44926.2098925,-3485255.03849 44733.4101163,-3485429.70723 44624.944608,-3485591.70416 44601.3148536,-3485652.39638 44578.7993485,-3485715.0109 44610.3473135,-3485879.31487 44607.6322001,-3486069.12903 44561.555137,-3486185.4635 44419.2283459,-3486210.18026 44345.7074788,-3486349.6137 44378.4753396,-3486501.3989 44306.2331904,-3486588.98656 44190.9446777,-3486551.80513 44059.3592832,-3486508.66117 43804.4851443,-3486516.43607 43665.9131968,-3486448.83459 43518.3429288,-3486437.04087 43455.8068122,-3486431.94264 43199.7366255,-3486460.69716 42952.8837509,-3486429.14958 42760.6938406,-3486404.18174 42677.8927497,-3486393.36572 42395.9850986,-3486487.43118 42282.5190888,-3486536.25128 42192.8309698,-3486575.14093 41841.5357092,-3486537.09949 41610.8731015,-3486646.91792 41409.3106493,-3486841.05763 41207.4394942,-3486949.59769 40988.8001561,-3487100.98863 40818.3867275,-3487291.71477 40744.7695853,-3487389.34925 39900.4778757,-3487453.44223 39446.1860345,-3487698.54443 39079.6325144,-3487945.69771 38736.3538328,-3488021.66153 38414.8053956,-3488175.43656 38232.0211111,-3488407.75926 38027.7470729,-3488525.91665 37980.6224196,-3488544.75822 37794.0458922,-3488619.01037 37703.8982647,-3488771.43776 37472.163327,-3488670.757 37187.7427192,-3488821.24873 36911.7965805,-3488778.55753 36556.8720215,-3488738.75364 36255.1012646,-3488656.8339 36086.5003341,-3488941.55855 35816.9174274,-3489138.93028 35576.5884183,-3489431.07785 35350.2605573,-3489297.20257 35123.3784153,-3489114.07353 34933.9556688,-3489037.65756 34783.6590827,-3488861.24523 34485.3276987,-3488682.02846 34304.0100273,-3488454.75759 34115.632637,-3488217.9643 33913.1061419,-3488001.95763 33686.6652011,-3487850.15644 33410.2688528,-3487808.47892 33107.0970276,-3487841.14232 32923.9362109,-3488220.87376 32613.7307155,-3488373.46191 32255.9663422,-3488239.72618 31979.8533383,-3488097.95841 31717.9886988,-3487969.24967 31501.2837886,-3488096.14883 31184.2682506,-3488098.30182 30878.6777147,-3487906.57066 30680.8724183,-3488041.26563 30691.3336016,-3488315.45158 30715.4066239,-3488543.98728 30731.8310599,-3489019.44832 30426.827613,-3489208.06945 30095.286334,-3489442.64421 29756.0436154,-3489391.40829 29451.0764128,-3489653.22251 29117.7232821,-3490076.12136 28859.3614885,-3490141.37794 28632.296172,-3490004.04556 28446.422521,-3490049.88586 28264.5107475,-3490103.44807 28037.4767081,-3490313.15484 27687.558641,-3490347.22495 27334.332002,-3490190.7978 27105.6534647,-3490309.49037 27003.6359429,-3490479.60941 26917.1209609,-3490602.46456 26800.1310997,-3490772.01625 26661.7506953,-3490853.26459 26529.16911,-3490931.66529 26176.8808736,-3491330.3676 25648.4420798,-3491328.17348 25376.4002944,-3491518.7663 25158.3095431,-3492058.56519 25124.7133948,-3492457.49824 24903.1379988,-3492747.5537 24900.0776482,-3493060.44947 24546.0842116,-3493133.6267 24311.0949809,-3493174.54844 24210.827345,-3493139.41898 24067.3757308,-3493195.09637 23868.538496,-3493321.42204 23785.1489993,-3493406.25071 23677.9331528,-3493516.45472 23431.7647611,-3493674.59061 23075.4832695,-3493630.39568 22618.371659,-3493550.1085 22399.3625473,-3493511.36572 22164.7775742,-3493349.59255 21792.0318114,-3493296.95009 21581.2946061,-3493496.71913 21280.6658937,-3493668.1863 21061.516101,-3493788.3047 20789.1496536,-3493740.41094 20509.562859,-3493873.7294 20270.5351467,-3493479.17076 20118.0986318,-3493510.50765 19941.6718658,-3493484.06802 19738.9849213,-3493363.14077 19448.1684416,-3493403.53154 19163.0447256,-3493366.88004 18880.9496078,-3493250.36196 18605.801531,-3493129.42913 18350.8361223,-3493101.36856 18149.5892556,-3493321.97359 17987.912073,-3493578.47955 17852.2703693,-3493849.31316 17688.3189027,-3494077.07856 17423.1076135,-3494157.2237 17206.045259,-3494287.1806 16969.8773419,-3494377.98114 16873.7053973,-3494650.8625 16627.7776177,-3494777.12943 16339.4925143,-3494858.70563 16118.9720137,-3495057.60745 15864.1523239,-3495168.98869 15744.2800749,-3495412.96351 15402.3273107,-3495383.81567 14946.7513375,-3495421.95687 14566.8807862,-3495476.33248 14275.785548,-3495573.02823 14072.5868006,-3495536.79027 13897.1432076,-3495590.97201 13669.4788983,-3495602.06663 13456.9565003,-3495692.90723 13254.5150651,-3495825.95646 12878.1702305,-3495828.81754 12432.0237961,-3495588.96339 11985.6482008,-3496041.91198 11910.9976868,-3496111.27715 11870.4436138,-3496152.13621 11538.9147604,-3496718.51787 11472.6110663,-3496729.5931 10980.9435152,-3496812.80867 10905.9023693,-3496811.47495 10423.7145103,-3496802.46007 10283.6918768,-3496777.25485 10142.1804224,-3496752.14158 9963.24977181,-3496810.52901 9744.5250693,-3496881.8384 9474.4992328,-3496969.27234 9148.30188871,-3497074.62675 8670.75951073,-3497201.30059 8314.32427784,-3496906.57235 8121.46041807,-3496675.43814 7853.81089115,-3496523.64223 7291.31752982,-3496553.45852 6861.94242994,-3496303.57644 6644.26427373,-3496174.58506 6478.44122444,-3496086.71623 6246.07582809,-3495937.71121 6032.66049215,-3495785.04243 5847.92969853,-3495681.40521 5711.50908182,-3495444.77408 5368.37566798,-3495284.68216 5138.88129405,-3495246.57188 4882.91420078,-3495142.85297 4601.81386011,-3495011.29832 4438.54725466,-3494852.03404 4178.01338366,-3494803.38711 3886.63700014,-3494638.59206 3437.17679939,-3494535.37285 3460.33421892,-3494229.09013 3282.61878424,-3493928.74841 3221.74431781,-3493923.04675 3107.0805354,-3494026.2723 2868.15464086,-3494254.73738 2807.39476955,-3494125.99126 2717.50866011,-3494049.85433 2597.8020248,-3494043.30597 2525.54301846,-3493950.13893 2441.94348688,-3493887.0623 2363.92610392,-3493914.30034 2312.05354416,-3493985.75055 2341.05653167,-3494068.1421 2500.51285915,-3494089.16996 2568.70409494,-3494144.73049 2557.95608738,-3494260.961 2449.93930305,-3494302.50721 2382.73174943,-3494395.82723 2318.04062608,-3494437.18615 2248.64874509,-3494458.91043 2158.56106014,-3494403.70714 2074.74035074,-3494345.12748 1978.45303082,-3494330.65599 1812.59379182,-3494282.62663 1753.31965381,-3494202.10551 1638.20418456,-3494100.62711 1566.57502042,-3494082.1402 1518.35353546,-3494119.99047 1511.36512257,-3494180.19905 1492.86025082,-3494255.56554 1420.90024326,-3494312.31824 1259.68794495,-3494133.98618 1179.16206348,-3494108.57691 1003.01499188,-3494180.23794 877.837972945,-3494185.98265 831.933958346,-3494100.15035 890.685298941,-3493994.89771 841.837895881,-3493950.09504 683.69425144,-3494043.0596 562.247639228,-3494125.28789 380.107517653,-3494204.79205 240.856669468,-3494289.11782 165.648490192,-3494240.96265 146.31324658,-3494169.92604 109.733369205,-3494234.95393 12.453763396,-3494260.89283 39.3617537394,-3494369.81913 74.2515844601,-3494462.8093 17.879640549,-3494489.70697 -57.9315785677,-3494415.68518 -151.319750864,-3494419.96331 -177.126430971,-3494514.21492 -251.916033858,-3494533.28444 -293.846392957,-3494394.89881 -200.667260695,-3494379.17615 -227.854131369,-3494269.76848 -406.165062274,-3494189.62762 -495.336003119,-3494149.30887 -576.476743777,-3494202.64509 -652.61103372,-3494191.90797 -746.204247423,-3494132.43419 -817.563913679,-3493989.39007 -845.343796635,-3493930.82991 -902.455934094,-3493905.46646 -969.774724794,-3493928.55697 -1076.33373594,-3494094.55372 -1211.94802794,-3494072.54763 -1256.34965616,-3494099.70177 -1295.34152928,-3494242.59327 -1535.63540925,-3494223.57013 -1830.20095575,-3494329.95171 -2041.48610448,-3494429.6921 -2305.00764668,-3494627.31425 -2481.82952552,-3494627.78239 -2598.64399551,-3494639.98466 -2612.0087487,-3494725.99837 -2704.75720984,-3494877.69648 -2761.18104648,-3494795.00015 -2784.51636305,-3494675.38616 -2891.12767718,-3494824.45425 -3068.9384507,-3494817.01298 -3193.81656825,-3494690.7223 -3213.85854377,-3494608.26722 -3269.55389457,-3494593.77534 -3291.45659166,-3494646.44155 -3248.67420347,-3494766.34902 -3323.55425308,-3494775.95937 -3426.34479489,-3494688.65532 -3481.73782402,-3494775.77354 -3457.83562555,-3494928.73199 -3587.64395192,-3494980.5961 -3825.11766238,-3494950.93738 -3819.84286458,-3495084.6227 -3916.70015874,-3495210.17442 -3973.21116845,-3495162.35482 -3996.7955797,-3495042.75378 -4045.36780931,-3495042.76722 -4113.1862283,-3495065.89055 -4172.92507876,-3495066.59427 -4255.19471383,-3495085.62911 -4194.16280315,-3495190.46105 -4073.7701082,-3495211.91336 -4070.26445558,-3495256.53338 -4099.82607565,-3495306.18674 -4219.22800315,-3495332.9975 -4292.79097926,-3495319.61044 -4410.83178237,-3495259.65226 -4557.86436505,-3495186.04214 -4639.68964679,-3495280.77468 -4717.68177093,-3495348.86636 -4804.69857583,-3495323.35783 -4833.9257763,-3495382.45675 -4994.04116962,-3495572.70128 -5205.3413494,-3495587.75728 -5309.43925392,-3495455.19612 -5406.38734286,-3495482.61198 -5487.99602817,-3495576.83453 -5603.48895787,-3495598.42233 -5616.88414416,-3495454.27456 -5728.60008573,-3495440.25645 -5932.68029211,-3495370.66937 -6080.09908221,-3495266.69055 -6195.84679098,-3495296.26477 -6308.07631505,-3495306.19162 -6412.08457109,-3495404.78898 -6370.1780504,-3495494.36634 -6309.49733113,-3495617.65728 -6342.20737371,-3495688.92996 -6392.44918397,-3495678.08629 -6419.68555176,-3495866.09909 -6325.96476515,-3495935.53376 -6283.287652,-3496033.53259 -6390.58751795,-3496139.30977 -6458.02007979,-3496184.83028 -6555.17935724,-3496200.80184 -6646.09375388,-3496108.27612 -6721.1034423,-3496119.88881 -6766.1691087,-3496067.87218 -6831.76232788,-3496006.16401 -6946.94293379,-3496020.75843 -7016.76303961,-3496156.60295 -7012.05850791,-3496264.92213 -7100.90218105,-3496415.39517 -7187.46788211,-3496405.3032 -7278.38080829,-3496308.7908 -7375.67212812,-3496334.73501 -7343.98313657,-3496492.70242 -7272.10076457,-3496567.47364 -7268.10049955,-3496616.05125 -7357.7163279,-3496621.09454 -7429.84173824,-3496538.36683 -7508.75626977,-3496543.24648 -7505.94072195,-3496600.86542 -7532.38505106,-3496813.7443 -7636.11532233,-3496961.15439 -7837.24448926,-3497108.60985 -7850.86683408,-3497258.91816 -7944.55143716,-3497270.69079 -7962.13586672,-3497360.95981 -7935.7801394,-3497424.59666 -7875.822471,-3497427.36524 -7696.13882985,-3497392.33756 -7606.45586784,-3497380.31399 -7570.82419052,-3497537.53987 -7544.64486251,-3497586.24063 -7462.71342125,-3497473.05997 -7368.88640915,-3497479.71216 -7327.50040213,-3497516.51146 -7329.95423154,-3497617.80105 -7415.56921154,-3497719.75059 -7586.06232821,-3497742.25353 -7613.05039549,-3497841.57367 -7582.4422834,-3497901.45945 -7452.33004306,-3497870.49311 -7435.8567222,-3497963.63717 -7461.23766404,-3498072.82218 -7317.87822067,-3498135.19892 -7366.25084335,-3498206.94525 -7508.83471254,-3498241.67316 -7638.67027278,-3498325.43447 -7707.59015524,-3498270.40994 -7682.02796769,-3498119.86094 -7780.38666824,-3498068.15189 -7873.54138707,-3498124.73291 -7932.85949235,-3498140.35964 -7954.92251074,-3498202.50752 -7913.41537193,-3498245.278 -7818.81698733,-3498308.67865 -7912.0527521,-3498444.48237 -8009.80813817,-3498418.64378 -8047.89756338,-3498366.69388 -8130.94542038,-3498284.64242 -8160.46372178,-3498314.86723 -8189.98202584,-3498345.09208 -8219.68668877,-3498424.65268 -8186.80249892,-3498565.60864 -8259.02782091,-3498586.02018 -8431.68725422,-3498646.02647 -8484.36935242,-3498664.23259 -8579.08018542,-3498727.88653 -8614.96993782,-3498679.28774 -8660.49730677,-3498615.84006 -8761.16497885,-3498631.53438 -8848.16503299,-3498715.13886 -8961.91058691,-3498809.36644 -8950.36575826,-3498899.33019 -8855.55261942,-3498970.19147 -8776.60215433,-3499010.1473 -8753.12340869,-3499164.14223 -8842.06896761,-3499284.73702 -8954.43139295,-3499300.65787 -9055.66819538,-3499283.00698 -9131.27861917,-3499208.46649 -9187.19731225,-3499242.81695 -9161.5504557,-3499303.01094 -9099.33233385,-3499414.75107 -9162.33847304,-3499523.77708 -9304.99873696,-3499525.13146 -9379.83833122,-3499507.34197 -9489.56877967,-3499428.93371 -9649.22770236,-3499328.70271 -9696.29254004,-3499341.08143 -9852.53513678,-3499533.6029 -10006.3032392,-3499536.64085 -10393.2815992,-3498017.03162 -10481.094118,-3497672.69738 -10512.9024424,-3497549.10774 -10678.4584806,-3496890.20695 -10698.4916293,-3496787.81133 -11012.3309575,-3495196.89388 -11045.4674392,-3495027.5465 -11150.9332969,-3494489.9834 -11308.8165355,-3493688.59969 -11475.7141306,-3492841.93202 -11544.6333335,-3492492.43626 -11574.7334651,-3492380.19759 -11662.8356477,-3492050.81903 -11783.465439,-3490040.38448 -11722.8521558,-3490001.26831 -11660.4159906,-3489971.50628 -11654.6432112,-3489927.80307 -11680.2527177,-3489791.37103 -11675.0056929,-3489666.48714 -11670.0834932,-3489560.55647 -11629.6059772,-3489526.17117 -11569.2289085,-3489511.48393 -11515.2087146,-3489454.34047 -11504.3433195,-3489404.34435 -11490.2728325,-3489341.69451 -11442.7079415,-3489131.49242 -11395.555233,-3489011.4971 -11334.7823452,-3488966.89179 -11273.4370996,-3488943.67539 -11194.9954443,-3488914.92001 -11060.8566045,-3488904.65036 -11003.5772859,-3489001.26108 -10970.6069797,-3489123.78509 -10949.6208671,-3489181.28168 -10899.6598701,-3489235.99378 -10839.1311561,-3489264.14556 -10741.9642725,-3489248.18486 -10640.7718415,-3489240.94393 -10595.0872634,-3489250.58056 -10528.4464621,-3489276.86027 -10482.6189479,-3489341.29333 -10397.7542793,-3489348.01378 -10290.69198,-3489330.94406 -10206.2170565,-3489359.61053 -10147.4330048,-3489436.19749 -10117.0251613,-3489464.7128 -10009.2645083,-3489426.67426 -9924.33608641,-3489430.40114 -9853.34077495,-3489361.74877 -9778.4517299,-3489311.78879 -9724.83997399,-3489219.79649 -9640.305493,-3489132.37306 -9601.68575624,-3489092.12497 -9510.43908363,-3489028.70058 -9407.53502337,-3488972.52857 -9301.4765651,-3488967.47873 -9087.23978464,-3488943.29811 -8560.48275531,-3488832.57413 -8434.5381579,-3488782.45457 -8173.99469363,-3488681.18374 -7940.30732363,-3488532.24808 -7777.75139537,-3488429.55163 -7434.18542853,-3488341.59418 -7198.0518959,-3488272.72088 -7062.4381802,-3488229.97786 -6756.69771746,-3488078.09533 -6599.29312519,-3487936.36196 -6384.09173928,-3487742.24064 -6345.47519716,-3487588.9055 -6302.6300221,-3487423.35311 -6243.99682139,-3487105.87477 -6229.79407197,-3486920.16935 -6219.55237863,-3486799.47336 -6211.77776216,-3486699.35547 -6157.54001878,-3486225.71801 -6178.5980232,-3486110.4399 -6220.55702835,-3485878.37931 -6186.03699759,-3485622.17367 -6175.57817056,-3485541.32021 -6113.03800973,-3485456.7576 -5974.72752785,-3485267.88613 -5655.11470423,-3484997.59454 -5571.30842681,-3484890.30037 -5477.16143098,-3484768.9181 -5372.29168144,-3484368.88961 -5395.70474855,-3484219.38354 -5436.24518046,-3483969.80204 -5656.7468214,-3483722.3433 -5975.6178778,-3483491.40635 -6124.47349425,-3483319.23897 -6179.47295429,-3483255.37266 -6468.70133217,-3483105.30419 -6619.80777896,-3483058.31894 -6770.07834735,-3483012.77648 -6836.06497853,-3482956.5608 -6844.65976051,-3482889.83438 -6805.03467789,-3482732.45545 -6717.84546665,-3482489.94512 -6677.5980893,-3482193.03537 -6709.08358168,-3481989.22234 -6671.97387652,-3481871.85477 -6565.9222336,-3481696.93496 -6588.4857889,-3481609.6471 -6658.73083136,-3481565.15091 -6785.00112428,-3481529.08697 -6997.77376823,-3481350.38733 -7022.50331822,-3481223.87503 -6973.97546265,-3481138.18685 -6842.84409854,-3481014.53161 -6792.87607522,-3480948.18458 -6811.12461973,-3480858.13962 -6918.59973936,-3480823.90595 -7002.94887334,-3480736.4363 -6969.67376454,-3480609.34161 -6899.25219379,-3480462.52335 -6915.81019956,-3480323.05334 -6941.1391946,-3480109.89303 -6942.11557167,-3479992.87861 -6883.78289232,-3479872.21316 -6820.58546368,-3479790.10717 -6732.43487448,-3479724.89825 -6700.17616134,-3479658.14815 -6803.86785247,-3479296.86858 -6743.69959172,-3478942.93992 -6528.68750551,-3477684.74522 -5939.76071862,-3473963.50224 -5655.89739734,-3472304.08397 -5264.20408169,-3470014.86169 -5240.75995161,-3469877.4235 -5178.88553603,-3469542.34616 -4631.00238781,-3466212.40856 -4588.30397029,-3465954.23639 -4508.20146533,-3465485.54276 -3904.44318466,-3461584.398 -3835.71714144,-3461136.8402 -3274.61732959,-3457905.92631 -3172.42750653,-3457312.87012 -2835.32085737,-3455405.32486 -2696.26134593,-3454420.98769 -2492.19322463,-3452971.91775 -2440.69662604,-3453007.62409 -2402.12242951,-3453035.65206 -2354.59564262,-3453116.43203 -2329.74846628,-3453180.66565 -2332.74203452,-3453237.63469 -2339.85927367,-3453361.60434 -2344.23651695,-3453432.60546 -2278.65227426,-3453576.5392 -2177.57193142,-3453799.99487 -1771.98943084,-3453928.12364 -1301.58733159,-3453780.31652 -896.535111448,-3453883.56973 -568.831703246,-3453894.91683 -45.6183774743,-3453470.42391 195.870399727,-3453273.35672 368.880196602,-3453145.72784 627.651695161,-3452986.95673 1001.12891791,-3452834.62496 1391.68247718,-3452509.40953 1848.93434108,-3452256.82801 2229.00625089,-3451662.29947 2435.18523458,-3451254.22481 3156.43348862,-3451001.96641 3563.25259555,-3450771.90861 4089.21591422,-3450474.31007 4555.80763397,-3450493.12657 5186.11018835,-3450635.92043 5814.9527089,-3450710.06842 5929.23843497,-3450722.01321 6733.6679092,-3450804.85617 7487.88597505,-3450665.15131 8248.55986444,-3450207.30983 8707.25890096,-3449930.2788 9324.64944839,-3449548.43815 9748.62808091,-3449261.58442 10228.43226,-3448857.2806 10725.3989991,-3448505.72055 11150.4279266,-3448089.33483 11567.1268851,-3447707.82571 11886.7996934,-3447372.58162 11924.468756,-3447332.93263 12262.4980553,-3446976.15455 12298.3036453,-3446938.61177 12566.6236878,-3446565.67418 12643.8968924,-3446456.8786 12926.5768626,-3446102.98901 13145.2862194,-3445773.92096 13374.6834638,-3445513.92144 13666.9658581,-3445084.75789 13835.1368243,-3444612.87199 13889.9501794,-3444103.08336 13929.1091598,-3443634.58684 13942.7720473,-3443478.88235 13945.0837449,-3443426.95161 13947.2988589,-3443357.09952 13872.5793765,-3442748.14448 13853.1547482,-3442596.94692 13799.0201124,-3442194.89141 13565.7647254,-3441635.93128 13549.5449474,-3441598.57512 13234.216498,-3441102.37705 13034.0574959,-3440187.32502 12968.7079725,-3439887.03696 13175.4263222,-3439593.58449 13443.7271373,-3439452.74977 13676.6787655,-3439332.49408 14064.4827584,-3439224.22254 14328.5322404,-3439393.88705 14492.5675867,-3439499.42698 14616.218852,-3439575.55565 14724.073287,-3439641.69073 14808.4387374,-3439563.3513 14933.4531676,-3439445.18903 15061.5413148,-3439324.35026 15146.0085987,-3439182.26595 15168.0571212,-3438947.37767 15324.110899,-3438480.24697 15341.9642393,-3438425.87794 15407.6216617,-3438297.88793 15449.3989898,-3438231.60539 15580.16756,-3438122.06038 15610.7845928,-3438093.30664 15805.3092614,-3438053.57906 16100.1418753,-3437988.82312 16389.9727943,-3437833.74457 16507.5303451,-3437687.16184 16351.1064996,-3437064.28189 16676.4720271,-3436699.40077 16800.567522,-3436349.26006 16976.8399982,-3436095.53602 17016.5606483,-3436036.35335 17146.9974201,-3435790.39922 17371.6161155,-3435586.51952 17642.1134133,-3435498.36064 17854.0428469,-3435429.69928 18008.2618451,-3435312.76331 18133.5245653,-3435120.90696 18300.775122,-3434923.51005 18449.9290692,-3434813.35751 18572.9509764,-3434756.57987 18666.4047111,-3434713.05319 18803.6453589,-3434644.45671 18856.6763831,-3434468.4496 18960.0749746,-3434318.25982 19227.5164039,-3434310.95881 19417.4527484,-3434412.9354 19698.8830365,-3434381.87866 20012.7120349,-3434441.46506 20258.4681416,-3434347.84839 20462.4084856,-3434066.07332 20485.1681506,-3433990.00191 20532.2966503,-3433839.75312 20672.0726617,-3433608.18849 20789.5746261,-3433477.06392 20888.0644453,-3433369.00388 21309.6656697,-3433162.13337 21441.6560615,-3433097.34784 21564.4319307,-3433036.6081 21861.0315916,-3433066.87423 22180.5122338,-3433113.17548 22369.8076141,-3432983.66563 22547.4158259,-3432817.52472 22708.1860765,-3432726.59484 22876.3045856,-3432707.41351 23028.3269312,-3432710.1222 23143.3457239,-3432579.1555 23250.0601033,-3432409.85856 23358.1786124,-3432361.96216 23479.2581511,-3432420.82227 23578.9381869,-3432430.69607 23685.5326724,-3432439.65167 23840.4151435,-3432563.17339 24032.0568405,-3432636.16517 24343.2313275,-3432619.73998 24447.8378626,-3432358.46643 24627.0533131,-3432300.77307 24713.7730996,-3432130.20664 24647.7850488,-3432052.06709 24566.2195057,-3431946.9928 24433.3503197,-3431751.43442 24413.6161879,-3431582.35842 24460.0344889,-3431485.93624 24652.1799126,-3431534.5039 24901.4677863,-3431720.4979 25147.0813362,-3431592.05686 25456.1950848,-3431509.04759 25805.1582337,-3431344.45657 25952.1669665,-3431051.73963 26147.6226248,-3430958.2143 26314.7086337,-3430832.06055 26429.2566832,-3430685.20187 26463.8373818,-3430639.78702 26616.2461945,-3430468.72327 26849.4774509,-3430398.79485" style="stroke-linejoin:round;stroke:#000;stroke-width:1px;fill:none" /></g></g></svg>