<svg xmlns="http://www.w3.org/2000/svg" baseProfile="full" height="40676.813203" version="1.1" viewBox="28404.319430,3178244.994401,79103.676754,40676.813203" width="79103.6767535"><defs><style type="text/css">polyline,line,rect,path,polygon,.polygon{fill:none;stroke:#000;stroke-width:1px;stroke-linejoin:round;}</style></defs><g fill_rule="evenodd" transform="scale(1,-1)"><g class="hogares departamen mujeres departam_1 toponimo_i tot_pob varones viv_part viv_part_h" id="22043"><polygon class="_22043" id="None" points="96773.6963855,-3178613.06646 97205.5583435,-3178618.51274 97148.9582514,-3187792.22554 97127.8935944,-3191211.98898 97108.8715663,-3196241.23651 104301.996293,-3196329.09458 107386.768266,-3196350.06604 107260.244754,-3210286.29242 107254.398946,-3210548.81011 107159.944658,-3218908.48656 104496.105102,-3218889.97237 103348.691482,-3218888.35187 95763.9797569,-3218777.44336 90318.1484951,-3218699.30602 90027.8730189,-3218685.41462 88425.5559992,-3218637.88231 83957.0188744,-3218559.44815 82799.5848885,-3218565.1061 81164.2513816,-3218609.93392 80487.3616044,-3218612.74881 80227.8255158,-3218616.79811 79760.5792176,-3218623.19137 78600.4423688,-3218639.40998 77642.9949246,-3218637.48416 75767.1048876,-3218599.41758 73514.8159356,-3218563.74829 73516.8161489,-3218662.46943 71833.6466366,-3218623.54064 70136.2761867,-3218616.50731 66011.010574,-3218589.0332 58317.4854471,-3218570.09062 58153.5409534,-3218569.49332 57697.6449993,-3218568.01659 56936.7473644,-3218571.07917 56888.0637475,-3218570.18485 50873.4203223,-3218470.50817 46654.9741569,-3218443.98988 46169.7741864,-3218440.97376 33072.5011718,-3218407.73362 28404.8308025,-3218262.09857 28420.2635196,-3212968.90674 28570.3702718,-3197104.08545 28574.4564075,-3195791.16288 28580.3260584,-3193881.68873 28570.3833277,-3186915.76738 42474.0006922,-3187072.94704 42466.0861665,-3192417.39577 42479.8903506,-3193706.08194 42437.8470632,-3195990.26983 61288.0067717,-3196032.45622 61296.9951661,-3196032.6619 64242.3476395,-3196029.85865 68638.220169,-3195979.21612 69289.0175333,-3195992.40545 70059.6380484,-3196008.17016 70894.3115129,-3195999.39213 72653.1396825,-3196033.79594 74829.706437,-3196051.07068 74813.8377786,-3194876.66677 74857.4230746,-3189271.55639 74808.5456034,-3187210.18336 85787.1250059,-3187238.63552 85810.5137307,-3178498.73888 95014.87884,-3178562.86943 96773.6963855,-3178613.06646" style="stroke-linejoin:round;stroke:#000;stroke-width:1px;fill:none" /></g></g></svg>