<svg xmlns="http://www.w3.org/2000/svg" baseProfile="full" height="227552.142421" version="1.1" viewBox="-74258.208751,2752169.694683,267907.678637,227552.142421" width="267907.678637"><defs><style type="text/css">polyline,line,rect,path,polygon,.polygon{fill:none;stroke:#000;stroke-width:1px;stroke-linejoin:round;}</style></defs><g fill_rule="evenodd" transform="scale(1,-1)"><g class="hogares departamen mujeres departam_1 toponimo_i tot_pob varones viv_part viv_part_h" id="22063"><polygon class="_22063" id="None" points="1925.87986203,-2768467.45664 2122.12490462,-2768722.38318 2156.60801615,-2768767.31564 2280.39506179,-2768871.58004 2485.46233815,-2768973.01234 2726.91547643,-2768959.59394 2934.34101964,-2768899.73312 3243.37190542,-2768884.37588 3576.81470431,-2768780.46881 3825.54598032,-2768759.85463 4015.11387757,-2768808.3226 4300.42384718,-2768914.43932 4522.10683997,-2769116.71886 4672.62166973,-2769213.2258 4776.06981756,-2769304.59438 4820.84044851,-2769464.53129 4845.86259453,-2769632.02274 4852.29584234,-2769847.46571 4830.87375157,-2770022.77887 4815.58821612,-2770211.89175 4788.98033067,-2770441.2607 4739.50770906,-2770604.40171 4718.94869378,-2770827.10831 4731.99103645,-2771055.33882 4717.89118101,-2771250.90646 4688.28049151,-2771393.01271 4589.22206766,-2771463.24122 4490.84856133,-2771539.93901 4466.89939973,-2771661.91747 4463.64755679,-2771783.30147 4512.71114986,-2771849.2758 4582.02195631,-2771907.68055 4631.74723827,-2772014.06584 4695.48568388,-2772113.06054 4751.08152783,-2772171.85897 4880.68913976,-2772235.51906 5029.01067002,-2772238.24608 5170.28674532,-2772247.66426 5318.54472003,-2772256.88188 5460.31909172,-2772266.28576 5622.4145582,-2772288.08332 5783.99981077,-2772283.44157 5959.96126511,-2772318.81645 6102.7344207,-2772389.08542 6219.35919263,-2772452.61845 6377.64336,-2772576.34729 6514.87826774,-2772679.71714 6666.67881295,-2772803.63155 6878.50830439,-2772914.84017 7008.36248618,-2772978.49119 7150.92231135,-2773015.32348 7316.42541148,-2773068.96579 7476.46828333,-2773106.29383 7651.15414517,-2773114.75119 7745.0863498,-2773092.08763 7837.74606471,-2773042.50821 7924.29504757,-2773006.08156 8009.24787704,-2772922.78365 8043.90408728,-2772713.15629 8065.32168788,-2772537.84938 8061.64025063,-2772409.68149 8098.68114369,-2772274.35452 8182.56296871,-2772171.12333 8274.22366729,-2772060.68124 8392.40438484,-2771969.94161 8606.94736849,-2771862.95886 8835.11173941,-2771804.49887 9006.9912611,-2771732.68195 9121.77650385,-2771714.9117 9221.30231027,-2771704.56725 9299.69884592,-2771705.81003 9360.21859559,-2771744.99959 9390.63503098,-2771813.50293 9434.10866633,-2771919.56385 9380.96743532,-2771963.51441 9275.51641738,-2772036.9175 9177.54590942,-2772110.10594 9120.74958092,-2772200.5793 9086.40927332,-2772290.90694 9070.85894823,-2772401.15864 9047.0716824,-2772502.66289 9030.55549729,-2772631.4096 9059.4670624,-2772777.81777 9114.20482861,-2772971.89792 9170.82309872,-2773161.93087 9211.8331209,-2773312.48296 9261.99207819,-2773425.33862 9360.05202383,-2773563.76987 9456.53286853,-2773673.29777 9560.45985081,-2773746.67554 9612.85165353,-2773919.85866 9630.07400151,-2774067.59941 9598.91985204,-2774155.83892 9555.71118132,-2774284.85281 9445.93468212,-2774337.91877 9156.29342575,-2774323.7831 8978.24299107,-2774328.40126 8798.66154343,-2774297.12729 8625.89528571,-2774251.18306 8542.89516603,-2774159.23576 8440.56039962,-2774115.25997 8296.37457154,-2774099.93829 8178.11275814,-2774118.31064 8108.78722006,-2774172.2113 8048.80863299,-2774308.19782 7983.83184783,-2774461.29817 7936.48464364,-2774593.9272 7934.28534655,-2774769.18084 7959.2253291,-2774916.20275 8030.64545457,-2775065.38205 8062.68309545,-2775259.6157 8095.53207999,-2775447.33731 8162.256667,-2775667.52541 8187.67435883,-2775848.47266 8245.09437279,-2775988.07105 8303.85063853,-2776148.09454 8354.8363623,-2776280.88999 8426.99504365,-2776447.01603 8497.36963688,-2776559.78795 8567.20463547,-2776645.124 8686.24145293,-2776809.9008 8762.80891243,-2776895.0428 8834.34289954,-2776961.36324 8880.76633485,-2777004.94775 9011.51222016,-2777116.98007 9166.48143486,-2777125.49859 9280.88383569,-2777129.19487 9402.4296823,-2777086.26857 9491.95369521,-2776979.87863 9549.17943652,-2776852.45723 9614.00814306,-2776694.37168 9684.61628345,-2776581.03977 9818.362367,-2776406.99746 9909.05541308,-2776263.14195 9999.38780518,-2776132.77292 10056.6685606,-2775833.65848 10131.0299779,-2775590.45214 10275.0986875,-2775445.56228 10360.1727448,-2775305.86256 10453.4067807,-2775180.90164 10515.9396538,-2775038.35659 10548.1068328,-2774881.21229 10556.3454287,-2774690.31759 10590.7485083,-2774480.70315 10692.6131328,-2774282.62596 10776.3274295,-2774138.97391 10839.4580042,-2773982.43773 10901.6401946,-2773818.94152 11067.8723006,-2773524.68584 11316.689513,-2773281.9618 11502.8248554,-2773202.74811 11692.1027784,-2773224.26267 11822.2880265,-2773308.36469 11926.8762679,-2773439.61793 11944.1456025,-2773580.36668 11940.3072193,-2773681.29478 11929.6135174,-2773769.44328 11880.1968337,-2773925.58348 11796.7809176,-2774062.23765 11754.1600428,-2774211.69459 11724.8921815,-2774374.24359 11640.1297744,-2774464.02167 11643.7355018,-2774598.17568 11707.2839873,-2774690.67904 11719.6832228,-2774878.9819 11716.9442394,-2775026.79372 11749.2915531,-2775214.52301 11834.0723839,-2775359.81887 11926.5603943,-2775538.83147 12020.0721159,-2775744.76544 12079.8743786,-2775958.6555 12200.5649123,-2776163.80713 12264.0776122,-2776289.7491 12318.6566386,-2776530.24029 12361.7344208,-2776865.39056 12359.2620023,-2777013.6924 12357.4264368,-2777175.45141 12382.8928468,-2777349.40146 12432.8672973,-2777455.76793 12475.1341403,-2777528.41773 12606.6065597,-2777665.87859 12709.3392008,-2777723.81226 12884.5131106,-2777732.2482 13051.5917041,-2777693.50357 13173.4859227,-2777671.53069 13305.3644446,-2777632.30168 13445.246911,-2777576.37268 13538.1576848,-2777466.39638 13688.8066333,-2777385.70289 13889.8082229,-2777346.48276 14016.2580092,-2777309.40709 14196.4119018,-2777256.81261 14371.8954213,-2777258.75271 14541.5666918,-2777266.84899 14747.504788,-2777234.47487 14999.5173578,-2777190.29523 15242.9891058,-2777152.84955 15441.7405115,-2777096.22802 15719.249426,-2777062.29582 15963.7288202,-2777051.27299 16215.0279243,-2777017.09684 16417.323945,-2777031.74186 16561.3410283,-2777128.41315 16654.8172874,-2777159.66203 16710.4926008,-2777178.02389 17120.5851043,-2777381.33006 17376.8087367,-2777414.38634 17518.3779303,-2777417.30222 17680.4666086,-2777439.59066 17817.1621305,-2777516.00917 17941.6326865,-2777627.21445 18058.7205134,-2777724.65799 18202.3481398,-2777807.86334 18318.9735371,-2777871.88259 18482.7960729,-2777954.50672 18692.7167367,-2778008.85557 18842.8633935,-2778101.85372 19054.807649,-2778200.56004 19188.8416016,-2778262.58047 19396.3492123,-2778371.89393 19470.7025097,-2778510.48882 19528.6430114,-2778720.42134 19662.4505141,-2778974.0839 19674.8398737,-2779161.87062 19622.9986883,-2779250.69653 19593.3254407,-2779372.82034 19665.5524634,-2779558.8852 19796.1654793,-2779649.44772 19885.9384068,-2779734.19852 20003.0252022,-2779831.63753 20086.1955756,-2779921.06944 20182.6963658,-2779988.15935 20295.2952226,-2780085.72691 20408.2651958,-2780152.84158 20473.414475,-2780214.34574 20559.8758753,-2780270.74499 20620.8941866,-2780301.42692 20657.8542001,-2780319.82602 20796.3365679,-2780371.73355 20922.2090845,-2780349.64605 20988.0302948,-2780321.80127 21072.4013213,-2780296.91598 21175.7346414,-2780271.98406 21256.3334654,-2780228.74282 21321.8388096,-2780189.92837 21387.0481616,-2780132.15885 21421.9899286,-2780071.76712 21446.0300226,-2779996.71785 21485.0093488,-2779929.22341 21517.431233,-2779841.95599 21611.4486134,-2779684.04839 21761.1921317,-2779598.39601 21896.8329332,-2779412.84235 22072.3519523,-2779199.69285 22194.7467685,-2779065.42344 22280.0171454,-2778941.70396 22341.713119,-2778761.77224 22403.4469308,-2778591.82042 22435.9826933,-2778421.71038 22439.8787268,-2778227.47201 22447.549119,-2778025.63947 22483.9291471,-2777876.37869 22545.7275538,-2777699.93812 22669.3678184,-2777548.16896 22755.391609,-2777485.31228 22829.4636976,-2777510.13095 22927.6229002,-2777635.06268 23027.7548312,-2777837.28812 23143.100972,-2777874.39376 23264.7913134,-2777897.84297 23399.10722,-2777900.46873 23587.9733891,-2777908.51263 24026.5136939,-2777956.78641 24358.7953777,-2778041.0509 24589.9341553,-2778122.23457 24706.6258979,-2778206.20939 24889.0803066,-2778459.95825 24885.8815965,-2778574.32723 24835.4525338,-2778703.52809 24759.8964364,-2778887.34656 24672.2890007,-2779111.93306 24643.2790873,-2779274.45218 24674.1251205,-2779401.3158 24745.5864187,-2779560.94477 24784.2630601,-2779734.49127 24870.4605387,-2779920.64315 24915.4331932,-2780087.52072 24999.6800409,-2780205.86075 25062.9728013,-2780298.3552 25160.2463862,-2780409.83269 25251.43977,-2780535.45755 25308.7618338,-2780654.57151 25359.3043465,-2780780.86672 25430.6917206,-2780920.53448 25480.1205236,-2780999.45438 25552.4726644,-2781051.26634 25667.0789295,-2781071.42189 25736.5699222,-2781032.49445 25794.2897165,-2780940.01173 25862.006813,-2780830.77378 25947.761691,-2780767.42567 26042.8663201,-2780690.83417 26162.29136,-2780627.01649 26305.9738986,-2780582.46169 26449.1200298,-2780527.94217 26550.0891028,-2780499.08815 26712.5331464,-2780490.92112 26836.0356229,-2780516.80952 26980.7788411,-2780509.15184 27157.6815361,-2780500.56893 27332.1161126,-2780475.58972 27451.6150397,-2780431.73173 27615.9767583,-2780403.54952 27818.1276956,-2780353.32191 28016.2915237,-2780277.26085 28174.3161189,-2780228.30321 28310.3176409,-2780220.39884 28431.6138675,-2780230.38273 28564.5961101,-2780264.98072 28706.7590799,-2780297.81752 28797.0485373,-2780340.13055 28887.8863766,-2780418.85497 28959.5367759,-2780576.47469 29039.2291267,-2780770.78893 29040.2448732,-2781040.22088 28953.2191475,-2781284.74117 28840.6813749,-2781362.33111 28620.3582274,-2781422.56405 28410.7720283,-2781361.72907 28193.1109448,-2781245.73654 28041.376898,-2781157.78678 27898.0434207,-2781118.99683 27755.3410347,-2781102.14501 27613.6912256,-2781113.20743 27464.4438578,-2781103.03111 27300.4535223,-2781100.76422 27164.7162446,-2781083.21294 27023.1659863,-2781097.76575 26897.6766927,-2781176.22916 26828.8305894,-2781263.54188 26819.1605188,-2781413.02531 26765.0233474,-2781499.91489 26710.4843933,-2781572.84372 26631.0637786,-2781639.50265 26567.170015,-2781734.15859 26585.3612503,-2781863.37877 26686.2735784,-2781971.25492 26837.7612853,-2782059.21132 26954.14588,-2782141.19189 27062.649457,-2782209.42683 27171.2572452,-2782298.6171 27265.6668693,-2782345.30103 27384.0507047,-2782418.74017 27468.9696689,-2782517.09513 27530.518478,-2782678.99795 27576.2403685,-2782776.48515 27666.0566742,-2782923.60132 27790.6075568,-2783055.24569 27900.8519604,-2783201.2739 28031.1964408,-2783282.8501 28118.2937145,-2783344.21441 28233.8106299,-2783404.76009 28356.5569796,-2783465.09741 28577.9193626,-2783501.63617 28792.4055098,-2783559.33093 29013.332016,-2783563.44694 29212.6361384,-2783579.16374 29389.0647205,-2783545.63952 29623.3993166,-2783538.89063 29850.5521494,-2783525.36274 30043.0753453,-2783548.26092 30342.6963037,-2783582.04654 30620.6763913,-2783609.46942 30805.7192948,-2783632.58286 31103.7370885,-2783862.0181 31177.2832395,-2784042.0307 31198.5286372,-2784190.61626 31204.7638094,-2784233.84863 31103.3427274,-2784342.05666 30882.2952848,-2784376.86665 30761.0253152,-2784402.31566 30675.2033947,-2784393.81017 30560.3151377,-2784389.63495 30452.1246977,-2784366.80407 30342.5440537,-2784339.02328 30084.1976332,-2784239.68089 29876.2441954,-2784174.81406 29746.9216814,-2784128.63979 29595.7577751,-2784069.12266 29452.5227507,-2784016.36293 29295.3496573,-2783999.43345 29184.4144481,-2784002.62901 29088.1196786,-2784020.37285 28991.8001961,-2784054.58446 28858.7226993,-2784129.27612 28791.9687239,-2784280.4005 28811.0910954,-2784450.50792 28871.4545415,-2784562.54091 28968.3568183,-2784730.40692 29022.8794866,-2784899.49375 29054.6565312,-2784997.87892 29110.7371254,-2785186.38144 29155.2376665,-2785293.38167 29201.142819,-2785405.83029 29232.3485985,-2785553.63231 29294.0218383,-2785659.13921 29376.3470658,-2785805.96643 29387.6244335,-2785954.84142 29427.1051518,-2786121.36616 29466.8169703,-2786243.97241 29505.728474,-2786356.12269 29610.0298748,-2786538.24288 29675.1412789,-2786633.17057 29788.6152661,-2786700.75593 29929.477641,-2786749.08866 30049.6191794,-2786874.8636 30142.1040162,-2787001.93473 30220.0965464,-2787136.90839 30289.3396612,-2787340.4959 30299.6599557,-2787577.21893 30292.4587559,-2787837.89981 30305.8387776,-2787981.72213 30304.5589628,-2788118.98143 30303.6436198,-2788234.27462 30295.6286599,-2788380.21104 30328.6456834,-2788521.47064 30418.1074519,-2788682.05902 30500.7329554,-2788821.8868 30597.0693227,-2788961.31866 30706.5791519,-2789064.44294 30808.7204464,-2789154.30698 30908.1376237,-2789158.42376 31012.7743816,-2789084.04911 31031.5512836,-2788991.19486 31032.2875692,-2788774.61368 31078.246206,-2788638.06242 31186.5509467,-2788612.9822 31285.1435778,-2788675.00562 31373.4630258,-2788778.74103 31433.7812587,-2788897.75473 31515.5045339,-2789023.63534 31539.5566853,-2789122.23894 31579.227797,-2789243.34495 31666.2000018,-2789317.67837 31948.4294668,-2789501.14218 32112.7301293,-2789773.8331 32242.5943982,-2789925.26724 32362.3517442,-2790003.14393 32653.2163241,-2790079.57411 32792.9048061,-2790095.99992 33017.5496356,-2790116.95903 33123.5555791,-2790107.41246 33339.3782472,-2790090.70428 33538.639019,-2790139.83958 33757.7649735,-2790194.38894 34089.9413071,-2790198.27283 34323.5317718,-2790157.60055 34424.6992513,-2790144.70112 34499.7604557,-2790169.47877 34574.4010612,-2790266.11962 34573.7415763,-2790372.91736 34563.0772656,-2790461.54216 34559.4221004,-2790576.90879 34572.8571225,-2790705.2541 34600.2131182,-2790823.21813 34623.3021183,-2790914.36115 34683.9695298,-2791010.90567 34726.8612501,-2791088.00471 34806.9903587,-2791150.05748 34892.6216681,-2791178.02175 34964.4519155,-2791211.87306 35090.3077806,-2791259.13323 35227.4997332,-2791275.62928 35319.1791444,-2791262.50387 35399.1419324,-2791223.77085 35462.0586589,-2791199.50097 35533.0482656,-2791186.97309 35608.2708826,-2791182.80532 35687.7886387,-2791180.50939 35763.4285696,-2791190.79941 35855.870383,-2791204.09701 35982.6683281,-2791214.90574 36089.6160677,-2791246.74485 36165.2798858,-2791266.51429 36273.8420495,-2791267.87035 36402.4850545,-2791282.11843 36546.0173379,-2791310.90523 36628.4299998,-2791322.49643 36722.4044562,-2791319.78309 36794.9030878,-2791307.71078 36875.9003338,-2791278.92767 36973.2151173,-2791253.66512 37041.197298,-2791214.7799 37099.6451118,-2791182.65639 37178.0919054,-2791151.95134 37249.1953688,-2791143.41219 37321.0309614,-2791082.46213 37384.4058547,-2791022.25537 37475.6630701,-2790864.94649 37548.3750146,-2790756.57132 37597.4108728,-2790614.4522 37650.3357857,-2790546.56437 37705.6192404,-2790482.60014 37742.1404426,-2790408.20062 37766.4091435,-2790324.1758 37811.6742135,-2790267.48618 37854.5951957,-2790207.37162 37887.1905714,-2790126.59928 37935.7343588,-2790053.84888 37976.0817277,-2790034.22351 38008.5629566,-2790027.29883 38045.6269628,-2790032.21665 38074.7482011,-2790055.8247 38117.9815792,-2790067.05077 38189.4441954,-2790070.97592 38264.8950008,-2790074.78598 38334.0947468,-2790060.81439 38395.0305188,-2790063.04755 38439.6104933,-2790051.78222 38571.4231513,-2790003.0736 38619.9290305,-2789998.18132 38689.0518933,-2789990.19941 38752.5713411,-2790012.81475 38775.9017103,-2790034.59398 38841.3239359,-2790036.69771 38913.3182422,-2790059.06844 38985.274046,-2790071.46141 39048.280124,-2790067.64755 39094.853894,-2790056.3248 39154.351118,-2790060.59527 39200.0383975,-2790087.71656 39245.6105749,-2790110.84962 39304.0722021,-2790105.17114 39390.201911,-2790098.69429 39453.4763119,-2790112.83453 39499.5421709,-2790144.43525 39542.9092895,-2790177.61063 39574.4603948,-2790207.63437 39599.1616425,-2790242.34621 39620.4407563,-2790314.07821 39668.5638497,-2790416.96753 39700.8681161,-2790490.37699 39697.245364,-2790572.30733 39681.5815428,-2790660.57243 39678.8942033,-2790774.90672 39655.4078609,-2790877.3679 39614.7652945,-2790955.87638 39556.486919,-2791002.46301 39536.206783,-2791060.42631 39538.2646296,-2791131.71507 39529.6808601,-2791197.32377 39510.1831759,-2791299.67003 39532.8211941,-2791435.72555 39534.8217631,-2791505.02018 39542.0993927,-2791549.71448 39534.9907231,-2791735.52463 39555.8231611,-2791904.06302 39603.6934047,-2791989.49586 39627.7634286,-2792054.16158 39629.4189505,-2792111.49155 39633.2800163,-2792184.72381 39630.2922701,-2792288.589 39597.3582977,-2792348.91364 39570.5074011,-2792412.55519 39543.4639636,-2792452.25335 39528.4426516,-2792493.60006 39515.1472977,-2792542.87993 39516.9228102,-2792595.71602 39527.1111459,-2792654.79531 39548.3479282,-2792699.08627 39582.2394161,-2792741.01593 39628.7279915,-2792778.59021 39682.5458999,-2792819.44529 39722.4960825,-2792855.21261 39758.079236,-2792886.61562 39804.5499481,-2792958.11789 39855.5338603,-2793090.85876 39893.0069709,-2793265.40139 39887.9487732,-2793349.36861 39890.2388101,-2793428.63311 39931.2481509,-2793457.8833 39973.0240648,-2793479.12838 40008.6260986,-2793502.54755 40049.2897198,-2793519.83325 40093.0596571,-2793541.02065 40142.1060169,-2793537.60785 40176.3696765,-2793540.60936 40218.5740036,-2793498.9764 40283.3467958,-2793478.64449 40340.7990701,-2793438.06788 40424.7391294,-2793381.75812 40513.028418,-2793251.48095 40585.5570078,-2793119.66357 40642.9033566,-2792945.8758 40688.709647,-2792830.29752 40722.1063128,-2792725.55531 40744.8363086,-2792579.70998 40784.0471888,-2792460.331 40811.8651997,-2792369.72015 40838.221889,-2792297.61197 40895.3425774,-2792219.62616 40994.467282,-2792118.97358 41026.7722367,-2792028.23346 41082.8718303,-2791940.7978 41128.2685246,-2791880.1145 41159.4530416,-2791828.32338 41199.3190411,-2791800.72915 41257.687582,-2791774.59647 41291.4608546,-2791734.705 41320.8770531,-2791699.42969 41393.7024126,-2791672.87975 41462.2949723,-2791637.97029 41539.1233282,-2791637.74802 41607.4533459,-2791654.23566 41690.1209979,-2791700.74385 41765.6517589,-2791767.91395 41847.8122709,-2791857.34416 41903.0532858,-2791947.55143 41996.4453478,-2792063.10002 42123.0222747,-2792196.15034 42164.218821,-2792283.76911 42179.9862367,-2792354.65979 42220.9283067,-2792424.82348 42277.5005709,-2792466.09716 42330.5409033,-2792531.91997 42369.2928081,-2792612.62406 42390.5781535,-2792701.81524 42416.7379548,-2792778.39256 42418.2326161,-2792890.60669 42407.0155289,-2793003.18796 42403.6063521,-2793101.07499 42395.9689114,-2793182.12084 42372.3516126,-2793288.57435 42375.8409354,-2793400.73084 42366.2872867,-2793501.78892 42346.9408929,-2793600.63531 42314.3542557,-2793672.9225 42281.7676713,-2793745.20973 42236.6264834,-2793797.40395 42206.4517057,-2793884.09034 42179.904958,-2793958.1989 42120.3109981,-2794088.64276 42066.4199038,-2794191.98018 42021.8852867,-2794291.05594 41963.7182139,-2794384.53868 41903.4492145,-2794431.1835 41816.3385283,-2794584.87486 41683.6276882,-2794800.75326 41543.6125467,-2795022.83051 41483.4867051,-2795134.83103 41430.7216874,-2795216.68337 41384.0108931,-2795300.8554 41336.4633694,-2795416.48403 41275.3476679,-2795485.60601 41223.6206758,-2795603.35141 41181.4358018,-2795697.37148 41146.7412792,-2795765.72977 41102.6676202,-2795854.81533 41082.3495397,-2795937.22689 41052.8588409,-2795978.49278 41001.3327817,-2796016.90344 40888.3475983,-2796078.04646 40813.7496434,-2796164.02376 40769.9319059,-2796210.19455 40759.4917352,-2796271.86471 40753.0829544,-2796334.91507 40754.3187792,-2796386.26897 40766.5465848,-2796446.78458 40819.1868058,-2796498.64736 40867.9975436,-2796556.10904 40912.4329227,-2796626.17041 40970.3590138,-2796722.78355 41028.2171591,-2796808.42213 41081.0078162,-2796882.73188 41224.8075337,-2797041.72076 41392.4779075,-2797198.02283 41477.8631206,-2797269.39333 41611.8179146,-2797381.26802 41773.8475543,-2797497.81822 41894.9500494,-2797596.59322 41991.7527114,-2797614.24804 42092.0303668,-2797631.30336 42165.3004857,-2797680.57207 42243.6028932,-2797722.71022 42325.9261396,-2797757.24817 42394.5405296,-2797792.18275 42488.8035175,-2797877.26475 42558.5101228,-2797958.56692 42642.020054,-2798025.49984 42790.8581751,-2798100.0215 42997.9826491,-2798128.4527 43581.8611124,-2798219.81995 43971.3111181,-2798281.88938 44189.010143,-2798296.54347 44253.3579416,-2798235.81012 44315.1002716,-2798197.1042 44449.1709206,-2798149.32063 44562.667842,-2798140.54836 44643.9896379,-2798149.17108 44718.5841305,-2798183.93155 44833.5087787,-2798224.50957 44938.4659332,-2798291.31898 45031.525041,-2798343.50543 45134.2973902,-2798472.74068 45149.0189709,-2798593.54809 45178.3659381,-2798728.40033 45218.626005,-2798852.45963 45267.7670449,-2799016.17392 45343.0813842,-2799205.07323 45377.4849068,-2799376.69722 45429.6176473,-2799540.32424 45470.3654622,-2799689.81256 45495.4056698,-2799787.86987 45543.5975789,-2799849.83484 45679.5789964,-2799945.67742 45886.8651347,-2800022.99132 46228.1242605,-2800032.06784 46445.2296382,-2800017.79903 46556.7258255,-2800017.56397 46684.187537,-2800017.36552 46801.7267329,-2800010.46989 46954.2850189,-2800015.53152 47059.376452,-2800009.49526 47177.5396572,-2800015.55282 47252.2701108,-2800037.83467 47309.2431324,-2800067.11622 47375.7120904,-2800105.60169 47487.3697412,-2800102.36861 47549.7036357,-2800110.04261 47624.2605811,-2800126.34267 47690.4695064,-2800155.85552 47803.5806806,-2800211.44905 47890.7617758,-2800224.39013 48044.1370281,-2800266.3454 48157.529739,-2800314.44717 48244.634461,-2800333.37696 48323.2035779,-2800359.03937 48380.5618343,-2800410.26017 48439.1758966,-2800504.84741 48487.8572357,-2800583.75791 48524.2540353,-2800660.52966 48557.6707065,-2800746.36755 48585.827696,-2800857.30183 48589.8700775,-2800996.8719 48555.067526,-2801190.44868 48518.9080808,-2801337.1699 48491.4003658,-2801446.72323 48462.6578485,-2801530.86936 48439.7129887,-2801599.88108 48417.5410313,-2801678.34922 48346.3854309,-2801796.65062 48267.6078113,-2801979.0302 48178.0526327,-2802099.36184 48088.7467861,-2802219.68648 48023.226648,-2802325.85216 47982.2976911,-2802419.83095 47949.597314,-2802470.66718 47930.0557088,-2802536.58755 47919.6599205,-2802608.22949 47912.9520951,-2802695.23001 47930.3838935,-2802763.0721 47974.906325,-2802801.69246 48021.3106412,-2802896.63224 48048.1628619,-2802979.66656 48116.88634,-2803095.91009 48188.7596389,-2803217.54984 48282.8906935,-2803366.98047 48348.7255489,-2803590.06805 48470.5830362,-2803732.2086 48550.4353851,-2803810.71213 48753.850826,-2804090.17362 48855.185305,-2804264.3374 49017.6674505,-2804405.298 49135.4645423,-2804510.63712 49265.7340232,-2804624.59401 49386.3337791,-2804723.36586 49817.7647863,-2805029.63295 50045.2797887,-2805168.20525 50481.3350455,-2805453.38132 51016.2523343,-2805896.3214 51556.1770301,-2806614.98245 52066.2613165,-2807319.53502 52572.2949988,-2808159.3872 53028.9541568,-2809093.94943 53121.9735788,-2809368.11102 53223.5279919,-2809635.5389 53283.7647043,-2809717.09705 53396.4575787,-2809869.96322 53579.4952474,-2810083.14112 53751.7617664,-2810286.15532 53859.8735193,-2810418.70025 54032.3893591,-2810621.70589 54225.230628,-2810803.16832 54426.5884595,-2810942.97819 54689.5446813,-2811039.59264 54877.6006456,-2811065.05407 55125.8578592,-2811016.43329 55340.2394272,-2810875.01553 55482.7498682,-2810766.61556 55656.924263,-2810657.79448 55777.3391944,-2810518.61064 55899.5388305,-2810432.25209 56043.5004598,-2810365.21483 56167.7596572,-2810341.15143 56265.8044293,-2810453.53314 56269.3675661,-2810619.04292 56233.7908521,-2810828.09133 56279.3345506,-2810961.95187 56336.5621551,-2811137.37473 56392.3237151,-2811270.93788 56489.7028854,-2811403.29091 56564.835887,-2811473.93626 56734.6382371,-2811583.73098 56827.08201,-2811614.96379 56934.1244912,-2811650.76038 57153.6856303,-2811696.25496 57467.6943567,-2811739.00321 57789.9688583,-2811740.10829 58103.1319383,-2811762.42899 58569.4707269,-2811717.44443 58756.9242229,-2811722.46962 58974.0057288,-2811674.25735 59550.7084445,-2811616.58794 59627.8002513,-2811608.85974 60029.9659515,-2811492.91607 60411.6554891,-2811367.59256 60793.9925985,-2811273.17758 61147.5982491,-2811262.89942 61533.2496057,-2811282.61589 62001.0366284,-2811279.49403 62283.186325,-2811333.64324 62528.7126739,-2811535.0048 62556.9434555,-2811794.0584 62546.5561327,-2811951.48202 62507.4931924,-2812606.54317 62515.0657216,-2813115.59648 62552.2936842,-2813580.89014 62598.5467571,-2813927.70555 62711.7482813,-2814261.10001 62848.3913757,-2814491.55805 63136.7362427,-2814604.37375 63334.1098755,-2814539.27314 63450.7393382,-2814219.14548 63466.8924698,-2813754.29925 63503.2713975,-2813213.04822 63624.4151784,-2812730.68394 63811.3847817,-2812350.65439 64214.6923141,-2812266.10453 64464.1250463,-2812258.8523 64699.4708561,-2812470.47809 65057.2716648,-2813333.94401 65294.1810731,-2813607.86767 65615.2299334,-2813910.76514 65963.551625,-2814088.17223 66237.3025371,-2814196.92137 66636.9463029,-2814252.62814 66967.0344135,-2814232.051 67334.2697559,-2814142.56052 67740.1508456,-2814018.52912 68312.6873042,-2813828.30288 68745.9731786,-2813703.47747 69298.7748909,-2813426.54703 70099.2320679,-2813184.81268 70526.7155045,-2813032.23219 70910.4778087,-2812919.82705 71288.4325592,-2812813.57683 71686.9972234,-2812824.43233 72095.6055027,-2812992.09981 72689.0368129,-2813529.94219 72905.3774199,-2813843.3416 73119.6077015,-2814067.0282 73291.5230649,-2814207.65833 73605.4601447,-2814198.52619 73699.1182275,-2813954.91374 73923.417189,-2812758.41549 74067.2521421,-2812542.27321 74251.4215582,-2812323.96183 74416.9097961,-2812217.90971 74715.4478319,-2812271.07509 74936.4026809,-2812348.9378 75329.4826093,-2812746.4663 75460.296126,-2813017.45991 75547.9060827,-2813329.10789 75600.9805411,-2813619.31699 75670.8094927,-2814082.59344 75769.4416661,-2814584.43001 75877.2466521,-2815007.20062 75950.0502402,-2815212.54957 76124.3498694,-2815400.98039 76472.9614838,-2815452.67638 76721.7510339,-2815321.7551 77000.2123291,-2814882.26521 77198.2147516,-2814539.87391 77307.1529622,-2814435.96523 77445.5344738,-2814375.58565 77659.5383908,-2814403.27309 78071.6635977,-2814898.47038 78383.3451007,-2815198.10101 78861.0328242,-2815615.57935 79397.6608067,-2815942.07041 79785.4375397,-2816166.16912 79923.4667671,-2816282.33714 80101.3619407,-2816431.75422 80433.9129689,-2816668.9265 80687.5577441,-2816919.36545 80822.3251241,-2817111.92549 80820.3382584,-2817240.64531 80780.7176134,-2817421.32742 80387.0676374,-2817954.42311 80314.0450643,-2818152.53629 80257.2406807,-2818316.76491 80183.6550895,-2818486.96827 80165.7164078,-2818650.06495 80187.0711234,-2818801.0455 80226.3400916,-2818984.91636 80270.5921299,-2819168.64182 80285.7948934,-2819476.39075 80261.0624161,-2819791.28793 80229.1338877,-2820056.02709 80203.2602339,-2820314.60558 80139.1542422,-2820801.20438 80169.10405,-2820879.12446 80268.0266739,-2820987.94666 80463.1169659,-2821145.32901 80813.0058896,-2821420.87299 81268.5389863,-2821821.99384 81515.2569342,-2822039.70301 81665.8971689,-2822203.36435 81914.2188318,-2822646.92754 82585.0472266,-2823342.45526 82777.912421,-2823415.11763 82926.599218,-2823332.48512 82961.0452991,-2823162.92724 83000.2434677,-2822976.77451 83204.5057349,-2822483.10942 83430.4519078,-2822142.90407 83739.9396642,-2821999.73201 84129.4429086,-2821898.60838 84459.1245419,-2821866.55084 84712.1196443,-2821898.06647 84842.6340933,-2821936.14694 84962.8350843,-2822022.3999 85027.5489547,-2822138.19656 85075.1814328,-2822232.55022 85091.1348265,-2822377.69436 85060.5255633,-2822490.78667 84990.2250859,-2822576.61344 84898.1726611,-2822686.01365 84850.2184325,-2822777.17261 84800.2879759,-2822988.56753 84780.3283479,-2823252.94369 84677.0485611,-2823575.60272 84343.1858379,-2824045.1202 84048.843023,-2824322.4971 83867.6736652,-2824462.42848 83676.1265726,-2824614.13301 83668.3502766,-2824732.04652 83698.5367923,-2824809.45621 83813.2615747,-2824895.86601 83952.6134806,-2824869.35559 84126.5716351,-2824875.24528 84342.1188837,-2824947.73892 84557.3274624,-2825025.72742 84762.0511469,-2825137.43232 84933.8017071,-2825255.58519 85049.0911193,-2825369.90172 85176.2491926,-2825489.35648 85281.0689882,-2825637.88721 85448.7360428,-2825804.02901 85648.9485264,-2826128.29136 85901.4739693,-2826621.56406 86066.7439835,-2826918.91929 86129.847336,-2827141.46987 86145.0177126,-2827370.40808 86028.3354439,-2827592.23114 85825.9781233,-2827783.15014 85662.5796969,-2827746.041 85549.4122544,-2827721.42534 85444.1932096,-2827746.94186 85305.4117524,-2827801.36491 85178.7451921,-2827877.87364 85076.2171349,-2828020.99608 85002.1775254,-2828157.80036 84983.6914832,-2828292.98 84949.5772722,-2828473.49649 84943.3501299,-2828652.69867 84946.8787429,-2828764.79461 84947.9562808,-2828997.63869 84934.3845994,-2829300.72422 84965.8302626,-2829608.47635 84980.0757539,-2829899.27847 85141.9339413,-2830275.51864 85259.5522664,-2830443.61496 85591.8291909,-2830653.79616 85920.0970299,-2830701.5309 86375.4106351,-2830643.3215 86655.1132356,-2830582.27553 86861.3111623,-2830531.36028 87050.1052998,-2830550.26714 87101.6733114,-2830642.50362 87126.8759557,-2830762.43898 87144.2586944,-2830845.20452 87079.7760237,-2831010.15102 86871.9533557,-2831167.3276 86535.1982708,-2831400.08683 86346.3024509,-2831599.09672 86237.8110955,-2831802.23492 86195.1863595,-2832023.88903 86290.0924332,-2832327.2828 86417.1350748,-2832629.73423 86533.2733063,-2832823.79789 86625.1558304,-2833057.96538 86762.027685,-2833270.36903 86890.928269,-2833483.00563 87084.614279,-2833677.28701 87244.6711915,-2833864.07631 87421.6976629,-2834042.88766 87701.51305,-2834275.03148 87743.5655197,-2834306.21045 88143.6496896,-2834601.14531 89155.2542162,-2835268.07716 89605.692129,-2835630.83529 89873.3622384,-2835789.02757 90134.7615856,-2835928.95344 90342.6724557,-2835928.33834 90413.1236979,-2835729.31271 90429.8421467,-2835542.8335 90449.14781,-2835257.54989 90497.7521631,-2835070.13568 90664.3500558,-2834961.53492 90812.6943188,-2834978.6253 91049.9031555,-2835228.95928 91280.7557071,-2835441.08421 91419.8926903,-2835705.26219 91481.810223,-2835971.70486 91437.6693082,-2836498.05013 91445.8310595,-2836963.02598 91527.0014687,-2837316.1614 91654.6283898,-2837553.24912 92129.3863236,-2837895.32466 92589.9949436,-2838095.20752 92898.9238664,-2838189.84748 93171.5110281,-2838345.88611 93299.3215453,-2838402.46456 93366.2081571,-2838438.89325 93440.2423853,-2838540.42998 93402.416083,-2838754.94654 93293.5412031,-2838961.07957 93161.2775407,-2839287.56733 93117.3290294,-2839480.3259 93106.3639642,-2839658.65292 93143.1671298,-2839799.67613 93212.0599624,-2839912.83108 93319.5322945,-2840040.80761 93406.3151783,-2840185.84605 93453.6985293,-2840305.11726 93588.1758081,-2840410.36026 93706.534976,-2840543.99884 93819.5904714,-2840649.87085 93980.0172032,-2840721.94045 94140.4439074,-2840777.05714 94310.5411437,-2840804.96461 94437.2237577,-2840823.17897 94586.4553614,-2840879.12287 94730.705,-2840935.21304 94886.3680477,-2841023.37658 95079.5259193,-2841072.54368 95245.4303586,-2841144.45025 95386.030046,-2841271.44787 95506.5560339,-2841470.33488 95573.2655886,-2841687.2577 95691.6238867,-2841803.93885 95843.1980909,-2841931.11044 95987.5047931,-2842006.14278 96117.2327931,-2842127.97298 96259.9279857,-2842326.20478 96318.3456159,-2842456.11499 96393.3493096,-2842590.52299 96473.9354413,-2842719.78057 96514.9321867,-2842816.79705 96568.8078127,-2842902.46547 96601.4086359,-2842951.3654 96650.463197,-2842983.32763 96710.6087341,-2842985.54659 96778.856265,-2842958.11031 96849.4917325,-2842910.1616 96899.8931172,-2842860.81398 96968.0377481,-2842812.93872 97030.2190282,-2842757.26157 97090.1287446,-2842641.32211 97233.2305538,-2842489.03143 97428.3894102,-2842275.87815 97603.8421297,-2842147.06789 97763.0461667,-2842084.54924 97855.6440113,-2842045.92759 97955.2745379,-2842042.99717 98025.4114494,-2842062.8719 98076.6332419,-2842109.22923 98115.1081923,-2842145.9898 98148.7628357,-2842196.85242 98179.9853551,-2842249.78086 98207.413117,-2842292.35067 98227.8816015,-2842369.52731 98219.6478831,-2842445.55393 98182.1551807,-2842518.45268 98136.2671716,-2842585.61549 98090.6136134,-2842652.2729 98056.5494771,-2842723.07666 98045.8836008,-2842767.26574 98014.2957426,-2842845.97406 97927.7371797,-2843064.40752 97877.5305971,-2843340.60457 97904.3629708,-2843625.50339 98025.1250561,-2843815.39927 98273.1348125,-2843975.12395 98556.2177647,-2844064.51256 98724.9886857,-2844115.38513 98890.1991668,-2844172.34523 98969.0393435,-2844216.89051 99018.327829,-2844265.29716 99058.7956274,-2844293.5218 99102.2679438,-2844356.05972 99112.3646088,-2844419.58023 99110.7261233,-2844499.40069 99081.3676302,-2844586.02025 99047.2610474,-2844638.3779 98970.2154102,-2844807.1713 98939.2775484,-2844967.12853 98878.2366074,-2845256.10696 98862.6720623,-2845489.40129 98952.001161,-2845805.36105 99009.1023688,-2845907.38293 99123.1820491,-2845997.25586 99255.7059188,-2846053.18054 99435.5069268,-2846063.83755 99722.6123846,-2846061.36158 100008.866445,-2846046.94498 100239.047187,-2845982.32928 100427.798606,-2845704.55009 100575.573983,-2845482.82157 100745.48942,-2845310.29841 100881.563496,-2845199.09906 101078.147216,-2845119.52186 101258.572557,-2845092.27146 101422.297103,-2845107.39223 101509.415109,-2845204.53887 101510.107383,-2845295.75523 101450.78982,-2845389.23768 101345.555575,-2845464.13025 101254.724166,-2845562.5298 101175.774563,-2845658.08675 101115.314969,-2845763.56904 101031.28306,-2845889.68852 100978.99967,-2846010.38581 100932.605527,-2846119.44275 100912.217611,-2846239.69912 100976.851881,-2846402.8197 101061.499301,-2846559.86605 101177.958954,-2846798.23756 101264.795596,-2847046.45567 101368.581781,-2847260.76991 101505.178746,-2847361.93994 101680.085104,-2847426.58246 102163.643073,-2847754.83668 102515.76291,-2848013.17646 102704.810431,-2848143.20889 102874.736206,-2848241.89718 103021.126637,-2848261.01217 103199.944715,-2848170.98515 103345.229642,-2848110.3647 103513.180562,-2848074.50214 103651.365566,-2848094.35776 103826.326551,-2848160.98941 104205.208195,-2848439.4715 104457.81674,-2848704.72492 104748.63425,-2848980.81455 104753.976894,-2849094.32447 104717.975845,-2849361.1094 104727.141451,-2849460.54738 104809.522716,-2849490.0234 104985.190572,-2849453.9308 105119.932283,-2849492.33116 105162.367254,-2849730.87651 105162.918806,-2849977.63721 105178.332181,-2850280.29422 105237.465052,-2850603.09778 105305.914925,-2850777.06133 105449.876316,-2850857.56281 105652.18782,-2850795.25549 105805.258512,-2850719.94458 105871.91865,-2850605.30781 105969.478064,-2850372.10506 106044.41341,-2850233.7935 106118.823138,-2850111.45079 106206.902153,-2849996.18291 106280.564947,-2849873.86272 106355.152205,-2849765.97291 106445.303828,-2849720.93751 106629.235525,-2849736.94686 106850.929021,-2849850.05198 106952.342873,-2849924.82968 107025.484609,-2850021.3797 107097.625934,-2850075.58426 107164.411845,-2850193.25968 107231.255802,-2850304.45234 107251.230217,-2850508.25857 107284.562659,-2850683.25439 107303.963606,-2850859.15989 107308.493804,-2851021.04711 107285.600835,-2851191.22193 107186.610011,-2851426.45832 107080.086461,-2851634.49876 106931.373478,-2851857.2461 106858.040132,-2852007.47513 106786.043749,-2852186.08115 106777.880757,-2852390.71944 106879.872107,-2852493.39459 107289.17549,-2852502.24067 107805.151973,-2852367.35157 108135.16706,-2852265.87457 108366.728447,-2852223.63932 108506.467352,-2852195.08406 108689.80516,-2852182.68914 108796.22261,-2852207.46261 108895.88748,-2852239.91322 108976.089483,-2852322.29174 108923.002586,-2852457.46231 108891.640178,-2852585.51051 108844.508007,-2852660.68347 108797.699641,-2852746.81433 108687.797878,-2852848.76803 108578.394175,-2852950.7073 108427.346228,-2853085.7827 108162.11288,-2853177.87058 107789.223294,-2853203.34733 107464.170974,-2853177.558 107224.589057,-2853184.63806 107063.960147,-2853231.75982 106890.755694,-2853342.56661 106808.625142,-2853422.76451 106721.923371,-2853601.30815 106728.884816,-2853819.95718 106839.180415,-2853992.67782 107090.826846,-2854317.75691 107241.979975,-2854481.29157 107493.542574,-2854643.35205 107665.062237,-2854736.98805 107864.218718,-2854787.43185 108033.895157,-2854810.33141 108182.296764,-2854813.42063 108316.651332,-2854830.3853 108466.040675,-2854875.32089 108580.357718,-2854914.31427 108659.018891,-2854961.34128 108752.451246,-2855035.84834 108819.165325,-2855125.60245 108815.699781,-2855252.8269 108453.838619,-2855415.08011 108189.241583,-2855528.59349 107862.845473,-2855693.28964 107654.324613,-2855798.16638 107518.375706,-2855971.6872 107503.085703,-2856162.5765 107564.88215,-2856347.19656 107720.421626,-2856364.03043 107943.610221,-2856283.14586 108033.180043,-2856210.2037 108115.100181,-2856123.0309 108203.16824,-2856007.75918 108341.70651,-2855904.95308 108565.175254,-2855842.00879 108788.671419,-2855771.58626 108934.93649,-2855710.92665 109045.674112,-2855637.35982 109171.182993,-2855591.27308 109269.065947,-2855563.45173 109352.074359,-2855504.66407 109526.512277,-2855461.11845 109674.056573,-2855435.31794 109814.556734,-2855424.18272 109940.947066,-2855399.5066 110052.465806,-2855360.81368 110235.020154,-2855330.48836 110424.768078,-2855307.428 110559.161721,-2855317.41095 110707.0458,-2855320.01574 110834.188918,-2855337.69066 110927.085834,-2855377.31567 111007.246319,-2855466.6692 111075.623965,-2855612.70198 111093.312469,-2855738.7985 111139.362999,-2855871.5334 111164.245893,-2856004.89446 111203.807232,-2856137.32261 111223.176755,-2856320.19838 111221.200458,-2856489.24923 111253.615894,-2856632.85561 111320.671915,-2856751.01 111464.707004,-2856859.40817 111632.97426,-2856826.51164 111849.281578,-2856749.32246 112053.280497,-2856736.30562 112271.018181,-2856715.90326 112468.292218,-2856703.08557 112664.519157,-2856654.90588 112861.322072,-2856634.62493 113021.937145,-2856587.49958 113232.389876,-2856556.84508 113402.097965,-2856572.75904 113551.521361,-2856610.70824 113617.898908,-2856714.42304 113586.95814,-2856856.4108 113532.892846,-2856949.73288 113493.477535,-2857049.60027 113447.132213,-2857142.69407 113372.604401,-2857243.60114 113312.271157,-2857344.08818 113280.490885,-2857457.68772 113256.068586,-2857592.50458 113239.117313,-2857727.10031 113263.988002,-2857859.95918 113324.897424,-2858006.20694 113376.256539,-2858082.45033 113394.461354,-2858209.02594 113482.172384,-2858326.06553 113561.122299,-2858366.09869 113687.077926,-2858326.97546 113748.827441,-2858282.77516 113803.85326,-2858238.77407 113843.737175,-2858146.36983 113862.80979,-2858075.01993 113963.104674,-2857910.04191 114089.472823,-2857884.86496 114232.514579,-2857951.41383 114389.280184,-2858010.07879 114545.839029,-2858061.77088 114771.908623,-2858062.0546 115068.586684,-2858081.68179 115618.780221,-2858094.29926 117197.670137,-2858085.42324 117649.018453,-2858093.49014 117903.132326,-2858106.89968 118087.658486,-2858143.80377 118359.021295,-2858276.83039 118474.330512,-2858358.15276 118546.880218,-2858426.28622 118626.444665,-2858487.23338 118685.684183,-2858577.19444 118688.99061,-2858697.22425 118649.152377,-2858782.64344 118466.928817,-2858823.43225 118277.404335,-2858836.52387 118116.495226,-2858890.13991 117905.582582,-2858896.38846 117701.984706,-2858930.83264 117563.922661,-2859040.59707 117455.013509,-2859166.94433 117474.844419,-2859356.76978 117619.591014,-2859733.30606 117800.403605,-2860115.7504 117987.998071,-2860491.51198 118201.812441,-2860801.69464 118415.614789,-2861119.85131 118702.755209,-2861541.00538 119019.140755,-2861990.19915 119289.455747,-2862306.17409 119491.942337,-2862469.63967 119672.999478,-2862633.24186 119857.232697,-2862677.1212 119983.604604,-2862652.43619 120079.905064,-2862571.82059 120140.184088,-2862478.31753 120166.237986,-2862407.26338 120168.641962,-2862244.6983 120143.76574,-2862111.85253 120105.274843,-2862007.32365 120081.046906,-2861887.91657 120063.016855,-2861775.80228 120075.690527,-2861673.74304 120145.614288,-2861602.88322 120260.517068,-2861578.0418 120522.072449,-2861741.7486 121387.026087,-2862041.07313 121814.336176,-2862188.89226 122762.017101,-2862429.42859 123775.325035,-2862580.78664 124204.027829,-2862557.59777 124479.83938,-2862505.05362 124861.115016,-2862378.60505 125135.427499,-2862258.82035 125414.755035,-2862165.30356 125585.308967,-2862151.7701 125763.7574,-2862253.13533 125803.318774,-2862427.40198 125815.297361,-2862696.68663 125789.025141,-2862819.07856 125745.393415,-2862927.53192 125675.734201,-2863032.27225 125579.276475,-2863098.93209 125365.091104,-2863220.92174 125206.934595,-2863366.66792 125077.402338,-2863477.67263 124947.85288,-2863579.70673 124881.288155,-2863645.97877 124742.521235,-2863731.34087 124629.651474,-2863824.40745 124526.630121,-2863938.61391 124466.826831,-2864089.91564 124414.046913,-2864318.26419 124371.811625,-2864490.47679 124375.378676,-2864618.96337 124421.119002,-2864715.79359 124556.244435,-2864801.49537 124643.299785,-2864837.78608 124747.915129,-2864919.90797 124848.679742,-2865006.62979 124946.609439,-2865115.36596 125056.206983,-2865205.8122 125166.354468,-2865323.15629 125272.535532,-2865449.58937 125357.887938,-2865571.15848 125463.654814,-2865683.64762 125571.609685,-2865718.81737 125666.617127,-2865754.37178 125748.556204,-2865777.85417 125851.639013,-2865783.26373 125940.77071,-2865763.66892 126023.627381,-2865675.48 126089.819432,-2865596.75786 126137.046238,-2865475.23777 126133.238463,-2865330.31374 126162.008288,-2865149.53318 126196.801307,-2865028.88132 126254.013114,-2864941.45537 126281.728965,-2864859.39144 126343.691358,-2864789.26888 126422.949518,-2864714.14701 126538.327559,-2864646.92372 126632.433434,-2864610.23683 126697.314512,-2864604.82082 126753.38253,-2864613.12352 126787.029736,-2864630.06667 126848.523558,-2864661.63319 126906.871803,-2864704.7564 126950.337779,-2864741.84237 126999.254259,-2864786.24243 127055.862083,-2864837.89001 127110.879963,-2864911.51448 127162.979046,-2864970.77187 127203.422914,-2865040.3435 127229.23863,-2865120.81611 127272.305995,-2865245.13387 127308.694933,-2865320.80657 127369.544404,-2865498.42308 127400.782926,-2865685.89052 127410.722735,-2865861.0324 127410.98922,-2866012.5385 127410.444576,-2866145.12947 127389.003234,-2866287.31285 127328.069784,-2866408.74062 127255.955172,-2866556.41794 127213.084637,-2866690.26762 127155.74501,-2866781.68498 127120.955222,-2866902.33621 127119.775409,-2867013.51532 127104.330425,-2867214.83132 127117.256001,-2867372.93937 127172.100533,-2867490.92516 127281.958876,-2867573.38314 127374.255197,-2867651.8776 127504.01425,-2867724.77195 127689.918487,-2867775.06317 127895.329419,-2867777.42597 128021.391091,-2867700.9101 128208.907417,-2867537.34075 128351.647506,-2867451.85681 128440.83513,-2867434.25241 128531.216659,-2867440.03708 128595.843359,-2867468.01866 128665.955891,-2867521.25512 128706.460619,-2867592.81587 128730.808002,-2867699.24629 128737.840019,-2867793.23348 128729.064684,-2867917.09611 128715.4553,-2868037.61383 128709.792803,-2868140.4514 128708.730541,-2868247.13927 128743.049476,-2868387.16362 128813.435047,-2868466.30748 128909.263809,-2868512.79698 129053.776583,-2868478.59344 129267.575928,-2868352.61818 129447.997518,-2868227.13826 129682.34862,-2868071.64642 129954.139174,-2867976.84157 130124.184304,-2867963.31039 130348.041637,-2868007.98436 130585.869831,-2868095.10319 130892.41585,-2868188.6494 131193.708946,-2868256.43544 131482.75997,-2868331.56238 131670.869272,-2868347.39544 131945.351602,-2868351.68766 132226.294416,-2868321.89835 132408.133961,-2868252.69652 132685.377616,-2868073.50742 133046.749394,-2867874.37409 133469.387606,-2867699.33497 133799.697158,-2867595.31929 134543.921939,-2867308.05706 134877.313676,-2867148.6355 135203.003205,-2867040.27608 135400.580708,-2867064.79968 135539.151933,-2867124.46728 135623.364141,-2867233.09436 135637.290313,-2867408.09858 135608.648647,-2867592.84091 135583.736025,-2867760.52863 135524.470988,-2867937.71042 135420.545226,-2868171.53811 135265.086381,-2868406.89995 135030.376985,-2868700.43676 134519.577715,-2869504.53593 134355.501154,-2869877.20835 134134.366238,-2870358.72893 134014.837582,-2870796.36026 134022.788047,-2871063.24439 134097.037209,-2871255.39264 134230.892545,-2871298.74859 134649.783141,-2871240.91735 134928.980756,-2871194.7239 135184.440829,-2871154.71982 135453.56095,-2871146.70177 135662.426885,-2871123.53503 135872.55316,-2871142.69039 136035.760378,-2871167.72864 136222.290832,-2871256.35842 136320.032547,-2871384.01254 136298.526673,-2871515.21979 136198.128092,-2871599.44194 136098.479616,-2871692.11386 135980.629516,-2871750.9425 135750.87727,-2871800.64757 135511.495842,-2871794.82461 135238.785049,-2871832.85314 134911.888301,-2871908.87668 134758.864254,-2871941.34523 134593.591609,-2871997.60173 134393.166556,-2872153.58108 134385.563753,-2872333.21665 134513.821463,-2872514.78241 134698.352986,-2872644.8342 134892.310565,-2872689.88393 135228.499108,-2872633.01568 135475.452007,-2872600.23728 135804.824641,-2872607.36155 136281.365072,-2872669.89956 136539.581051,-2872722.50065 136782.500611,-2872830.37508 137050.444659,-2872933.51585 137280.298837,-2873037.79165 137515.160157,-2873176.30277 137724.628458,-2873315.5703 137852.36082,-2873437.83977 137949.388016,-2873533.1179 138055.922498,-2873671.46731 138150.38469,-2873831.10648 138193.816914,-2874000.73933 138259.349795,-2874176.19095 138340.113679,-2874319.29452 138446.608571,-2874431.23172 138557.435588,-2874571.44423 138661.534493,-2874628.13751 138789.350495,-2874602.89503 138836.933321,-2874477.39096 138867.721898,-2874356.87315 138886.456944,-2874266.61484 138942.756845,-2874149.3227 139079.205645,-2874004.22485 139254.74188,-2873866.43302 139392.308733,-2873733.76108 139486.708339,-2873607.3605 139530.698891,-2873503.39343 139569.314137,-2873361.21586 139603.203244,-2873227.6509 139674.758755,-2873028.67908 139687.129625,-2872733.30279 139741.126946,-2872530.37034 139831.667166,-2872416.5451 139962.96009,-2872374.26013 140126.793811,-2872412.23136 140265.631639,-2872489.3182 140434.590777,-2872565.50667 140590.969159,-2872637.58502 140725.206767,-2872710.82155 140891.076353,-2872825.47138 141024.111484,-2872967.01217 141126.895331,-2873113.44116 141093.032178,-2873272.91492 141036.717853,-2873389.70514 140968.613823,-2873537.24444 140921.275681,-2873687.65277 140900.618549,-2873838.76029 140920.862071,-2873957.7521 141013.2086,-2874038.21559 141171.92146,-2874054.90781 141367.577219,-2874032.12762 141550.395971,-2873988.30313 141703.461096,-2873949.35299 141826.405012,-2873911.30164 141940.517266,-2873869.52741 142092.656596,-2873824.6256 142240.099801,-2873755.94533 142400.73612,-2873686.87174 142481.713625,-2873653.56115 142601.401206,-2873640.02464 142682.4224,-2873641.59412 142776.160889,-2873660.22481 142896.683252,-2873683.03947 143008.715693,-2873713.58183 143105.870496,-2873813.33343 143177.638189,-2873922.31331 143257.119164,-2874022.59175 143321.949962,-2874174.63195 143344.240095,-2874353.85294 143306.085475,-2874569.75872 143238.706776,-2874724.74778 143162.708679,-2874891.45533 143136.537525,-2875116.47204 143164.778408,-2875336.37641 143203.544743,-2875416.44212 143269.009521,-2875472.7888 143447.825929,-2875562.12688 143673.626011,-2875639.59737 143881.17228,-2875731.5647 144147.805763,-2875766.45631 144404.45505,-2875775.73451 144643.923905,-2875777.05464 144839.81904,-2875754.26309 145001.867801,-2875749.42413 145199.779997,-2875785.86869 145330.037316,-2875842.76997 145412.858862,-2875946.43169 145455.243519,-2876030.87111 145530.880094,-2876144.21447 145590.659057,-2876193.75244 145670.65231,-2876227.73802 145722.320352,-2876247.62103 145749.296807,-2876258.27582 145846.517128,-2876276.79818 145931.517666,-2876278.24558 146035.904058,-2876278.11736 146140.19603,-2876199.76174 146200.306028,-2876076.88405 146213.862871,-2875813.38682 146203.873666,-2875545.61002 146164.04854,-2875254.80651 146068.080359,-2874952.72339 145967.818345,-2874707.07358 145898.151548,-2874509.84002 145846.455657,-2874322.03548 145803.082554,-2874112.5562 145780.845246,-2873951.77609 145764.403104,-2873851.61353 145769.769233,-2873764.25393 145792.91217,-2873713.23692 145832.234912,-2873661.73725 145900.773915,-2873620.82652 145975.134245,-2873599.67345 146103.327493,-2873595.84911 146337.437869,-2873543.02334 146606.195748,-2873465.74524 146912.602651,-2873364.42391 146984.955832,-2873342.83292 147047.459813,-2873333.49434 147088.675823,-2873328.77697 147144.183927,-2873327.12119 147197.354876,-2873338.98849 147425.789296,-2873446.77677 147883.082662,-2873735.08574 148032.855823,-2873836.74815 148108.639426,-2873896.77038 148194.769702,-2873944.52534 148437.32956,-2874150.0468 148589.111548,-2874327.38373 148728.901586,-2874470.19944 148816.175654,-2874556.28538 148884.714705,-2874623.99637 148981.573594,-2874764.10635 149146.592868,-2874975.92379 149270.962742,-2875244.75903 149400.349271,-2875564.76431 149505.646377,-2875970.69022 149620.19311,-2876235.83005 149910.584615,-2876683.06016 150344.575964,-2877083.64404 150686.28792,-2877405.76626 150798.159978,-2877581.29466 150931.93363,-2878206.08759 151072.052743,-2878742.99697 151150.227763,-2878957.89561 151274.152502,-2879103.16535 151432.200165,-2879264.85252 151606.390193,-2879383.20691 151917.017169,-2879373.91437 152396.714674,-2879295.29089 152532.106351,-2879274.30053 152630.180283,-2879288.30682 152680.289474,-2879389.44501 152706.14748,-2879537.64481 152606.362288,-2879757.86264 152474.404625,-2880051.78699 152361.548195,-2880276.38346 152257.026799,-2880479.80501 152231.435308,-2880623.56661 152230.650566,-2880747.15429 152242.665753,-2880848.93437 152263.033298,-2880963.41868 152308.645575,-2881055.72272 152394.920717,-2881099.97447 152498.250483,-2881139.72955 152634.899529,-2881144.10833 152831.679924,-2881176.58104 153104.837901,-2881172.3883 153321.118701,-2881148.97259 153461.241765,-2881136.30718 153576.931273,-2881156.26032 153666.790827,-2881170.50973 153778.825639,-2881201.53327 153852.654546,-2881246.15647 153913.798888,-2881308.09928 153924.944282,-2881397.44721 153914.923532,-2881495.40068 153918.750153,-2881614.86168 153939.228767,-2881716.38587 154005.739841,-2881874.32612 154114.677564,-2882026.5112 154324.37529,-2882207.56415 154618.562479,-2882356.6894 155214.651041,-2882762.81938 155383.472943,-2882868.36603 155489.326161,-2882975.79921 155663.647656,-2883098.61783 155828.486908,-2883204.28236 155993.570104,-2883301.46936 156150.473845,-2883433.27807 156264.280489,-2883573.35316 156265.320792,-2883574.81662 156356.552659,-2883767.88074 156370.387211,-2883946.82383 156392.669352,-2884125.01538 156411.303359,-2884297.83588 156440.162387,-2884429.49596 156491.112178,-2884608.32216 156652.386854,-2884927.32497 157020.280594,-2885465.81812 157184.225623,-2885715.98356 157281.535295,-2885928.78901 157297.705775,-2886185.38074 157356.312115,-2886478.06446 157427.498178,-2886774.85404 157463.452209,-2887009.92649 157527.539557,-2887211.27206 157582.672196,-2887396.44532 157784.890841,-2887784.45574 157967.146326,-2888179.54057 158131.595872,-2888404.77177 158366.231533,-2888768.88517 158405.841028,-2888826.98132 158561.979564,-2889057.4416 158736.392256,-2889473.18159 158943.73358,-2889890.42071 159117.582092,-2890154.72056 159307.237644,-2890389.64818 159413.748617,-2890485.58666 159573.292199,-2890547.54686 159688.823989,-2890537.59545 159775.184957,-2890493.64761 159796.080937,-2890368.46988 159803.350944,-2890204.34447 159762.517448,-2889799.0437 159752.306168,-2889608.54134 159770.719809,-2889400.73799 159778.484299,-2889228.12864 159807.3559,-2889094.74065 159845.55164,-2888981.49857 159883.259311,-2888860.30017 159941.99213,-2888742.45563 160030.45641,-2888644.14381 160111.346916,-2888583.92253 160181.278685,-2888556.91143 160264.586702,-2888568.85562 160357.603121,-2888630.32723 160385.347204,-2888724.64811 160401.530437,-2888848.70969 160401.168714,-2888969.28297 160383.12096,-2889064.98007 160308.337587,-2889195.76151 160233.864588,-2889353.43635 160166.309065,-2889567.19948 160112.678199,-2889738.69608 160091.841131,-2889865.86398 160120.844173,-2890001.99539 160203.224047,-2890115.59743 160298.307675,-2890245.75576 160405.445791,-2890362.59819 160516.829738,-2890479.81077 160640.268003,-2890583.70744 160743.18476,-2890692.70475 160912.980353,-2890830.57767 161075.749729,-2890991.57798 161226.710413,-2891182.32592 161376.662158,-2891331.25575 161536.807209,-2891421.59049 161787.543021,-2891492.75862 161954.223664,-2891378.14258 162175.81386,-2891151.27866 162366.489963,-2890865.56464 162507.780282,-2890743.24573 162673.832278,-2890740.24316 163131.760048,-2891083.16011 163446.895231,-2891208.68296 163879.677682,-2891411.36773 164265.542561,-2891553.19106 164559.953013,-2891668.87171 165020.361,-2891945.44268 165365.162819,-2892113.40446 165693.527411,-2892264.92203 166104.910019,-2892567.86819 166246.274549,-2892713.05754 166316.725848,-2892811.06477 166349.705676,-2892913.68743 166376.215523,-2893016.50487 166369.028727,-2893100.41107 166344.071664,-2893164.92641 166268.780744,-2893220.49671 166206.627922,-2893265.70828 166114.978685,-2893332.23279 166023.119482,-2893391.78962 165954.601319,-2893440.68033 165861.737433,-2893466.89115 165741.685373,-2893467.02054 165627.305735,-2893457.01586 165520.208677,-2893457.2531 165440.326526,-2893459.65946 165298.69265,-2893537.15568 165147.773029,-2893628.88048 165021.6012,-2893773.16352 164957.870837,-2893865.25119 164977.294515,-2893964.2987 165019.240956,-2894033.77403 165087.346792,-2894062.10984 165148.325757,-2894093.64931 165222.532899,-2894117.81585 165307.506828,-2894152.11929 165382.028789,-2894186.73759 165473.418907,-2894227.32358 165710.617324,-2894337.24297 165781.109612,-2894386.92704 165881.995363,-2894461.5992 165948.970962,-2894526.83189 165987.358542,-2894593.92242 166007.355797,-2894695.44187 166016.128405,-2894821.21117 165973.62883,-2894956.4966 165943.208343,-2895054.55439 165945.360218,-2895134.19475 166014.777412,-2895214.29792 166121.976403,-2895333.11433 166188.651363,-2895446.1781 166314.497996,-2895522.58651 166432.367289,-2895540.95109 166519.522703,-2895556.75468 166700.893511,-2895574.69868 166839.733357,-2895644.23843 166905.344979,-2895705.52506 166924.436794,-2895768.71269 166913.917189,-2895874.13991 166863.185181,-2895959.3595 166777.799027,-2896018.7242 166692.76674,-2896081.56544 166603.688685,-2896117.62854 166527.499382,-2896143.33987 166445.035032,-2896175.71654 166371.936874,-2896204.82182 166319.739903,-2896249.73584 166254.761395,-2896292.04654 166219.13237,-2896332.97382 166211.346634,-2896413.41193 166253.882746,-2896485.85596 166299.156282,-2896558.21732 166340.774369,-2896616.7405 166376.593822,-2896672.94778 166417.821548,-2896718.53057 166442.166021,-2896757.64852 166555.479046,-2896847.8828 166725.581427,-2896946.36628 166909.421833,-2897054.39776 167035.125506,-2897134.29397 167158.720164,-2897193.82936 167248.986033,-2897238.42954 167397.34912,-2897260.35397 167456.315108,-2897225.19842 167531.443171,-2897172.61812 167568.750511,-2897088.30153 167588.951708,-2896973.61607 167593.979761,-2896810.07192 167595.547935,-2896639.16002 167576.000764,-2896536.1351 167592.131197,-2896418.58383 167617.617406,-2896264.38569 167650.108034,-2896119.44119 167662.352275,-2895972.11865 167709.099568,-2895746.54297 167747.106932,-2895578.01981 167791.527452,-2895490.00299 167852.110482,-2895384.56201 167919.364945,-2895293.86438 167991.0124,-2895224.9528 168076.800261,-2895195.46643 168183.203386,-2895172.33255 168277.369225,-2895189.419 168368.01237,-2895213.58558 168428.976693,-2895228.18602 168513.503619,-2895256.02388 168641.824427,-2895298.97972 168787.117653,-2895351.38636 168979.598176,-2895415.81949 169132.014783,-2895481.46042 169254.960449,-2895560.94132 169440.208173,-2895839.78897 169661.125389,-2896384.55829 169792.43575,-2896799.02747 169929.807657,-2897117.17305 170036.829063,-2897444.70189 170064.560738,-2897530.04142 170087.327421,-2897912.91485 170140.501647,-2898205.70463 170107.131584,-2898379.06565 170054.577985,-2898486.2566 170008.340682,-2898621.15235 169933.972981,-2898723.52307 169764.713888,-2898834.23967 169643.857827,-2898865.28751 169498.357729,-2898830.82776 169399.27194,-2898700.32002 169372.437178,-2898529.27339 169366.751966,-2898167.79809 169394.039561,-2897776.43564 169393.272551,-2897561.26421 169321.522259,-2897131.5463 169025.46539,-2896804.23842 168729.235259,-2896479.42375 168575.102638,-2896431.27108 168468.842093,-2896409.56983 168377.183736,-2896417.81463 168300.294986,-2896445.04139 168229.226094,-2896483.54991 168215.400002,-2896570.14577 168224.298277,-2896683.4539 168246.900342,-2896780.40795 168291.806368,-2896890.13878 168321.522147,-2896966.95232 168356.969967,-2897035.62256 168376.65497,-2897126.68669 168376.756475,-2897220.83253 168361.734154,-2897292.52029 168165.326967,-2897684.01163 167937.69967,-2897965.36133 167823.14284,-2898213.41 167769.208482,-2898448.17154 167745.792967,-2898604.7989 167784.076816,-2898759.06486 168003.841832,-2898868.99387 168279.431234,-2898971.75639 168501.269415,-2899315.25035 168700.051155,-2899637.52067 168903.36784,-2899936.73777 169099.375728,-2900175.40109 169342.702861,-2900496.32004 169596.702039,-2900799.47943 169954.548782,-2901250.43141 170473.183517,-2901845.95516 171031.442028,-2902195.19243 171426.330545,-2902306.28224 171869.159148,-2902248.55095 172049.415781,-2902328.77385 172203.760557,-2902474.53594 172320.115941,-2902648.84358 172425.19168,-2902812.53344 172495.734366,-2902937.91672 172562.07555,-2903113.73685 172638.356859,-2903239.44403 172738.290836,-2903414.24662 172817.254111,-2903644.97459 172901.624737,-2903865.07796 172928.984812,-2904036.59763 172953.553895,-2904296.86642 172871.625134,-2904527.48528 172832.466179,-2904706.49928 172798.864899,-2904879.86587 172771.733518,-2905069.47456 172796.902103,-2905357.62052 172758.665618,-2905747.80984 172728.00989,-2906199.03877 172727.501847,-2906560.19093 172736.004585,-2906832.40472 172748.971495,-2907071.10916 172778.860619,-2907342.1763 172846.654408,-2907557.30037 173027.172154,-2907629.53122 173203.825391,-2907590.79868 173353.607572,-2907396.97099 173467.114607,-2906926.79424 173653.127258,-2906654.66268 173749.361226,-2906534.68827 173873.727788,-2906414.35938 174003.146038,-2906279.93066 174171.713212,-2906171.71166 174330.002827,-2906061.31417 174500.598328,-2906011.81125 174700.917221,-2906022.67448 174828.626159,-2906185.17005 174974.048077,-2906414.37201 175125.853642,-2906837.63968 175215.439979,-2907229.42018 175365.392748,-2907575.03749 175483.282722,-2907816.02883 175571.107341,-2907960.80206 175712.968927,-2908039.68028 175807.438101,-2908042.29279 175857.716225,-2907885.36026 175842.7216,-2907752.32471 175875.799827,-2907545.60642 175876.745447,-2907412.58546 175901.148588,-2907289.31306 175936.764397,-2907182.63599 175978.533596,-2907098.18678 176110.036553,-2907024.46467 176247.285434,-2906975.97141 176390.67948,-2906941.23856 176509.465325,-2906998.40325 176562.428766,-2907102.39259 176695.642131,-2907282.14801 176794.487733,-2907429.07517 176948.487475,-2907563.3706 177057.178489,-2907657.20057 177192.733068,-2907725.3107 177316.170381,-2907779.84172 177462.672471,-2907847.61911 177610.601017,-2907954.20364 177753.410816,-2908080.86646 177850.481996,-2908161.10076 177971.222939,-2908290.92294 178141.976083,-2908435.66339 178158.731367,-2908618.4494 178104.177537,-2908831.29292 178048.679502,-2909004.81685 177766.904839,-2909427.77991 177478.373742,-2909825.05115 177300.579171,-2910186.58599 177220.768947,-2910477.9035 177326.523249,-2910663.46703 177647.908758,-2910642.744 177872.890349,-2910736.02358 178089.920431,-2910870.88524 178111.244153,-2910884.18365 178201.274004,-2911109.57079 178269.992113,-2911362.9999 178232.789412,-2911589.26532 178225.050304,-2911711.53157 178228.938351,-2911839.42142 178260.611299,-2911971.94544 178304.810909,-2912131.4832 178342.124741,-2912269.31443 178397.538497,-2912445.44576 178412.542153,-2912578.47632 178427.961369,-2912716.97314 178433.364957,-2912894.62526 178439.450215,-2913094.67053 178439.298618,-2913277.97068 178437.700568,-2913405.52928 178431.15882,-2913550.67135 178411.975738,-2913656.84934 178376.271679,-2913752.07416 178340.584976,-2913864.23352 178319.987257,-2914103.94228 178254.253312,-2914317.13224 178150.468796,-2914548.41601 178005.244732,-2914719.19896 177832.999497,-2914902.26142 177647.70898,-2915024.95463 177523.945181,-2915156.235 177398.681199,-2915238.2501 177307.243488,-2915335.1745 177231.827364,-2915426.63029 177129.441651,-2915523.88858 177045.272594,-2915671.39838 176937.6819,-2915802.18847 176886.339503,-2915931.76379 176820.193529,-2916139.49391 176785.858684,-2916295.9472 176750.839229,-2916413.56967 176721.475917,-2916536.99718 176703.312423,-2916676.52092 176682.374369,-2916904.79148 176739.49969,-2917136.66045 176891.162043,-2917365.1496 177139.066816,-2917474.64686 177431.512292,-2917599.22268 177757.06482,-2917641.59849 177928.611276,-2917672.72972 178173.87943,-2917687.66662 178329.9074,-2917716.28197 178603.960687,-2917768.69371 178750.82122,-2917847.89499 178860.035176,-2917966.59653 178920.937492,-2918142.5567 178868.795543,-2918433.53584 178817.149675,-2918748.90681 178795.876571,-2918957.75694 178906.194122,-2919479.87519 178856.92792,-2919864.90743 178840.883232,-2920073.59872 178851.25958,-2920217.72814 178822.156623,-2920357.58373 178725.43942,-2920477.08948 178555.802785,-2920557.48004 178414.04624,-2920661.92448 178298.568697,-2920876.64214 178320.830951,-2921059.2613 178408.590872,-2921201.02889 178551.000869,-2921313.73201 178676.977786,-2921442.87551 178870.068075,-2921575.94576 179203.886187,-2921758.51021 179562.895345,-2921762.9842 179917.587983,-2921666.9767 180379.589817,-2921439.68529 180592.310907,-2921424.72047 180815.289935,-2921460.24622 180834.076792,-2921545.34169 180854.599812,-2921638.35333 180838.078865,-2921937.20658 180915.617806,-2922241.65332 181069.780672,-2922535.29053 181176.1021,-2922958.39457 181314.900758,-2923303.30295 181738.41741,-2924049.41852 182060.311614,-2924550.59513 182281.629276,-2924841.17265 182417.16111,-2925201.115 182502.868671,-2925495.34177 182567.073999,-2925713.52345 182545.382452,-2925932.34215 182385.722679,-2926045.31138 182158.753692,-2926147.89 181920.866897,-2926202.98825 181780.866658,-2926331.79354 181675.871511,-2926432.63134 181633.387269,-2926509.14186 181614.346528,-2926570.49036 181610.777046,-2926584.04776 181616.626925,-2926628.69563 181638.065152,-2926661.90843 181687.486774,-2926730.62393 181860.515104,-2926899.65188 182250.120279,-2927098.40482 182526.578066,-2927204.99153 182763.947072,-2927279.40396 183155.872894,-2927415.82197 183531.806074,-2927485.48932 183769.511168,-2927514.06706 184096.56216,-2927467.68811 184275.347412,-2927345.16634 184329.766068,-2927048.64821 184427.749847,-2926710.95179 184571.909748,-2926409.19671 184691.918533,-2926262.08159 184836.776465,-2926137.61465 184983.995829,-2926090.27411 185144.076971,-2926162.07232 185276.318897,-2926268.09208 185433.157809,-2926526.75756 185743.196208,-2926746.36386 185978.664355,-2926783.47724 186418.653641,-2926684.83375 186736.605932,-2926496.29755 186912.156202,-2926390.31652 187144.719134,-2926316.45639 187312.324485,-2926333.23658 187393.87192,-2926442.79696 187367.362946,-2926666.72917 187377.708403,-2927012.54762 187480.012007,-2927433.74004 188013.695853,-2927630.04514 188443.101995,-2927836.5154 189429.737618,-2928292.84023 190156.104171,-2928747.6701 190499.705455,-2929038.92986 190756.118467,-2929320.90912 191030.428774,-2929463.88947 191480.377968,-2929699.08914 191269.635169,-2935725.06904 190782.508711,-2949699.90803 190778.075361,-2949822.06576 190777.513989,-2949828.05966 190443.527172,-2959474.72283 190136.80169,-2968349.40469 190056.200489,-2970685.92347 190020.12595,-2972111.56916 189835.541931,-2979702.29721 186389.292449,-2979660.61076 181287.508836,-2979507.94377 180124.531448,-2979499.60645 178751.832411,-2979460.48083 175983.644392,-2979364.98377 174760.399758,-2979336.09139 173752.006365,-2979256.11443 170882.851824,-2979212.04504 168893.654747,-2979141.36217 159859.140355,-2978958.9608 156539.456097,-2978843.60985 152765.443357,-2978786.2759 149789.624083,-2978704.42275 146694.700568,-2978618.77801 140025.344216,-2978499.226 135958.16437,-2978426.36381 129911.092376,-2978317.51145 125928.808699,-2978186.49622 122647.256635,-2978158.20424 120232.54906,-2978136.75671 119922.164435,-2978127.98378 115067.920797,-2977992.05203 111370.829432,-2977908.24799 80878.1583426,-2977209.84692 79554.6151042,-2977179.5868 79939.6249015,-2957232.1585 80137.0473091,-2947004.20186 80331.6136707,-2936993.62527 80450.7908144,-2930462.86941 80575.8157338,-2923656.75171 80730.3879386,-2916861.32964 75784.1118686,-2916688.55157 60786.7625033,-2916411.05786 60869.040203,-2906372.9455 60869.863675,-2906317.55015 58897.174741,-2906291.74041 54569.4516226,-2906229.17623 49829.4967254,-2906077.72434 40871.5022123,-2905949.03443 37447.3769294,-2905897.51221 29013.0626862,-2905931.97888 27786.8922734,-2905936.96371 18875.7884583,-2905836.43497 2412.6942219,-2905938.47217 -8053.35590184,-2905882.3019 -19884.7503949,-2905881.45021 -19908.6187201,-2904671.48103 -19962.3656716,-2899237.26291 -19970.5467306,-2896007.38132 -19982.6824859,-2890781.15829 -19988.5965178,-2880901.87939 -19997.2444633,-2869883.02457 -20012.415223,-2865015.96246 -20011.3479149,-2860689.59679 -20049.0968229,-2856099.79606 -20055.1452789,-2846749.4163 -20163.9841754,-2837559.32351 -20178.3109133,-2836358.5992 -53873.587429,-2836696.56203 -60045.6239993,-2836764.20852 -73922.7626808,-2836916.67503 -71540.1640084,-2833830.86585 -70033.5587327,-2831927.12968 -68454.3436491,-2829961.3755 -66239.340508,-2827109.99734 -65118.4568694,-2825701.68487 -63584.7164758,-2823597.08561 -61400.0557274,-2820755.81714 -60397.0329379,-2819508.38485 -58746.2176818,-2817409.01354 -57532.8487614,-2815865.33555 -55258.0078099,-2812970.7815 -53760.0680696,-2811046.84461 -51879.5630943,-2808609.92128 -50407.6952375,-2806663.88394 -48949.5420789,-2804769.23068 -47347.1675867,-2802750.58 -46384.551959,-2801509.61991 -44888.7135146,-2799509.63633 -43217.4238296,-2797394.75064 -41838.6921657,-2795582.03316 -41036.3741812,-2794545.58014 -41011.357013,-2794512.89634 -40699.8390358,-2794088.90523 -39248.8053561,-2792211.25455 -37459.2295451,-2789893.42168 -36334.8621204,-2788424.29544 -35263.0083523,-2787262.30131 -34769.5626146,-2786705.76037 -34773.0221061,-2786543.08319 -34860.8644401,-2782495.65046 -34827.8988103,-2781338.27125 -34851.8905202,-2779453.02573 -34882.9021213,-2778249.05423 -34887.8005171,-2777897.67161 -34864.0966452,-2777568.43231 -34861.2212999,-2777226.81153 -34873.2753812,-2771777.00757 -34870.4446412,-2769221.8531 -34880.787792,-2763721.98626 -34903.3765449,-2762048.8555 -34893.3054724,-2761330.01783 -34886.7077377,-2757295.65098 -34873.8618504,-2756872.83812 -34857.9697316,-2756617.21789 -34853.0343358,-2756258.04805 -34869.5485384,-2755856.04965 -34904.5665546,-2755165.45992 -34792.4976161,-2754989.97499 -34731.1832472,-2754925.30093 -34682.8411781,-2754860.99857 -34646.9867556,-2754796.55464 -34617.8978076,-2754713.8288 -34576.4432382,-2754618.26515 -34535.7174397,-2754497.25586 -34507.4207687,-2754395.57773 -34465.1097099,-2754312.47334 -34435.6631214,-2754242.22105 -34324.1797443,-2754028.80421 -34302.2524937,-2753852.90642 -34251.0614363,-2753521.87324 -34223.4680485,-2753325.83946 -34196.4338999,-2753188.74437 -34229.5422495,-2753061.36067 -34258.5580062,-2752954.8322 -34272.5198876,-2752850.86875 -34239.775908,-2752712.61143 -34165.5847799,-2752565.67755 -34102.5110409,-2752449.02275 -34041.3740117,-2752369.37502 -33976.8938877,-2752293.1271 -33775.0351486,-2752218.9395 -33561.8405925,-2752209.34239 -33236.7175008,-2752280.93078 -32915.061009,-2752466.96691 -32591.999286,-2752693.40822 -32341.0516366,-2752982.33211 -32054.6756229,-2753357.62397 -31935.6807948,-2753502.51968 -31749.4445247,-2753658.97198 -31644.2977449,-2753817.24602 -31609.134439,-2754112.34298 -31615.798575,-2754341.72692 -31699.316222,-2754485.42929 -31844.1112114,-2754590.44083 -32064.2668926,-2754670.64696 -32239.5399225,-2754661.68532 -32498.8100672,-2754770.9751 -32704.6746237,-2754870.74648 -32883.5830176,-2754970.24552 -32973.249779,-2755134.59907 -33008.2109511,-2755317.35915 -33043.8071912,-2755486.65539 -33094.4673309,-2755609.44562 -33142.5233727,-2755762.12153 -33158.4741312,-2755858.95057 -33090.9324399,-2755959.37929 -32928.1901242,-2756123.49161 -32884.803423,-2756226.11011 -32815.1880934,-2756320.48686 -32744.0962284,-2756344.41504 -32628.9447669,-2756337.61991 -32554.2905567,-2756346.46597 -32473.7351011,-2756352.14693 -32394.9495827,-2756330.91464 -32362.3001788,-2756311.50376 -32273.2646354,-2756299.46514 -32196.1889957,-2756288.2686 -32144.0516332,-2756286.77464 -32084.050897,-2756307.02595 -32001.0904925,-2756353.08388 -31906.8043574,-2756402.31254 -31861.3424792,-2756437.96028 -31808.3825159,-2756473.89246 -31759.3932231,-2756501.94911 -31717.5589209,-2756541.69535 -31649.3962749,-2756576.69246 -31574.1344306,-2756615.48074 -31466.1535362,-2756619.87638 -31362.9075233,-2756598.44269 -31047.6962014,-2756533.48582 -30648.0459876,-2756400.69865 -30537.0042833,-2756276.6807 -30369.7785117,-2756231.44448 -30241.7836852,-2756254.74095 -30144.5524529,-2756345.82794 -30055.9484806,-2756397.2162 -29972.9455793,-2756462.24654 -29884.4145964,-2756493.66391 -29795.5120407,-2756538.05291 -29713.5306764,-2756576.149 -29618.4412227,-2756627.3511 -29522.4176589,-2756685.01751 -29400.0885092,-2756728.44853 -29310.6731567,-2756773.32184 -29215.2852799,-2756817.52464 -29106.2904855,-2756874.81906 -28996.3966334,-2756946.06847 -28853.7259029,-2757002.39776 -28695.7279732,-2757105.72266 -28538.1162378,-2757195.57687 -28353.241568,-2757304.62215 -28196.5152145,-2757381.0198 -28052.9113758,-2757443.81258 -27820.7405824,-2757565.48245 -27657.0940192,-2757648.17218 -27532.9735918,-2757745.47571 -27428.6726281,-2757856.82831 -27309.2207268,-2758035.15295 -27243.9228338,-2758188.06668 -27128.458769,-2758401.45627 -27045.6150424,-2758539.38664 -26954.398104,-2758664.59414 -26851.0552691,-2758742.51922 -26742.1119113,-2758806.80243 -26614.6477134,-2758846.58806 -26484.835484,-2758846.36214 -26337.9356258,-2758815.18904 -26226.6351666,-2758787.53298 -26139.9282388,-2758703.16232 -26023.1432751,-2758640.39824 -25865.1666546,-2758629.87881 -25703.5598581,-2758650.21195 -25633.0879262,-2758731.07572 -25524.9912201,-2758748.44873 -25392.8860346,-2758741.16735 -25230.0231597,-2758709.53754 -25056.2087631,-2758650.63203 -24951.6998051,-2758560.26019 -24899.7502581,-2758491.36655 -24772.3723502,-2758467.24514 -24644.9073098,-2758463.59239 -24408.5492521,-2758470.30013 -24260.592505,-2758493.52135 -24138.8952909,-2758471.56021 -23971.3282437,-2758464.76135 -23849.9636342,-2758474.76449 -23718.8774276,-2758492.97699 -23579.7964785,-2758493.98456 -23459.1313425,-2758497.01773 -23357.6588648,-2758501.10016 -23283.0529774,-2758525.92394 -23251.3526914,-2758612.89017 -23224.2201439,-2758705.97867 -23147.9082148,-2758764.20559 -23066.2452405,-2758808.79837 -22968.5645357,-2758898.36707 -22852.3111261,-2758991.39765 -22694.6354159,-2759101.21517 -22604.9685736,-2759155.06455 -22527.8453805,-2759285.16437 -22398.0908716,-2759335.3682 -22248.8312509,-2759378.02298 -22057.4825454,-2759486.87431 -21858.700386,-2759602.50216 -21720.6582609,-2759732.85179 -21595.4231728,-2759860.57249 -21485.0144062,-2759958.76121 -21311.8278029,-2760122.05332 -21187.7782398,-2760225.8418 -21083.4688799,-2760337.68505 -20932.3441176,-2760454.17731 -20821.9231724,-2760535.38916 -20725.5706,-2760613.50925 -20629.6185381,-2760677.66105 -20493.293634,-2760748.14438 -20384.381077,-2760785.46299 -20241.8098419,-2760821.31731 -20114.2698193,-2760846.61857 -20018.4584412,-2760862.34475 -19867.4975435,-2760920.92479 -19740.5775753,-2760950.73711 -19520.3411626,-2760996.34699 -19317.4553794,-2761072.41016 -19129.0591059,-2761139.40247 -18943.3016143,-2761262.38781 -18780.2411327,-2761325.11341 -18563.4925455,-2761362.33501 -18412.6036193,-2761435.89378 -18310.7166781,-2761506.86322 -18108.248097,-2761568.45834 -17875.6676223,-2761661.64175 -17745.4236352,-2761676.87928 -17634.8894948,-2761640.25989 -17549.6661816,-2761626.33358 -17452.5913225,-2761616.56082 -17334.4837828,-2761635.14194 -17175.505364,-2761738.42314 -17045.9429123,-2761860.52059 -16920.3873624,-2761964.7595 -16793.3935335,-2762127.86876 -16709.4870004,-2762207.34024 -16611.2811292,-2762393.74066 -16586.8162979,-2762463.43357 -16603.5431933,-2762585.23132 -16740.343868,-2762750.41282 -16871.2417318,-2762868.99498 -16995.4829078,-2762993.37754 -17133.6282083,-2763111.66894 -17317.6917303,-2763265.22712 -17455.632508,-2763364.54172 -17594.8285992,-2763454.90603 -17753.9499324,-2763546.84075 -17932.8574876,-2763671.29591 -18149.7877325,-2763827.79646 -18341.7595662,-2763940.64531 -18500.231048,-2764046.5422 -18616.9644804,-2764197.67281 -18667.1119178,-2764320.43202 -18675.026622,-2764453.46222 -18673.0078996,-2764523.79987 -18662.1175794,-2764642.31103 -18602.4267896,-2764695.51628 -18461.1157418,-2764704.94033 -18312.6349063,-2764720.64895 -18199.666555,-2764725.39468 -18097.2456723,-2764727.94686 -17942.4032207,-2764730.49226 -17786.2151694,-2764779.92905 -17689.814702,-2764851.0519 -17564.7299936,-2764982.26027 -17467.9430734,-2765066.85153 -17359.096717,-2765110.65703 -17278.3333769,-2765115.32838 -17211.7140614,-2765079.46706 -17089.2864645,-2765005.05936 -16953.0383389,-2764951.22373 -16757.9921474,-2764945.62573 -16621.7738179,-2764995.13586 -16519.3251643,-2765059.59407 -16390.5369715,-2765076.36688 -16137.0165053,-2764994.70288 -15942.3583951,-2764975.63666 -15708.3665413,-2764935.47197 -15454.2605181,-2764874.26135 -15172.8624229,-2764807.27557 -15034.8032599,-2764720.939 -14878.0547357,-2764555.18635 -14726.5088934,-2764443.00219 -14553.6749,-2764350.67646 -14434.9782462,-2764259.40498 -14295.4821317,-2764214.46546 -14180.7169913,-2764203.68451 -14078.6005548,-2764256.66962 -14062.0697565,-2764363.03217 -14064.8765288,-2764491.41666 -13954.1654568,-2764609.05559 -13931.8305117,-2764682.80099 -13886.1668125,-2764856.22342 -13855.4289933,-2764996.62515 -13830.2023525,-2765171.13292 -13852.6010656,-2765330.03331 -13868.5027255,-2765471.77325 -13924.1481231,-2765655.09195 -14131.0765353,-2766185.72827 -14207.0602688,-2766356.15212 -14296.4487676,-2766520.47097 -14325.7285727,-2766683.06421 -14354.0736706,-2766852.12073 -14362.915429,-2767013.62794 -14372.1925634,-2767168.65755 -14368.1385699,-2767309.82494 -14364.5454032,-2767417.5567 -14296.791962,-2767456.04895 -14187.9793234,-2767437.94686 -14063.8053711,-2767355.00243 -13912.4186954,-2767211.3687 -13815.1693643,-2767112.22401 -13632.0145586,-2766918.75401 -13526.9020119,-2766841.35032 -13379.8979958,-2766797.19104 -13271.1932811,-2766827.51849 -13202.4920479,-2766872.97292 -13108.0779247,-2766883.74137 -12982.5142303,-2766805.75105 -12835.9118985,-2766747.62532 -12690.3813374,-2766669.56143 -12575.9028335,-2766666.27494 -12458.2190581,-2766548.57341 -12258.4550569,-2766455.47424 -12160.360281,-2766446.66768 -12056.8848575,-2766442.69896 -11907.6894864,-2766492.33262 -11839.5764587,-2766517.33555 -11705.7333951,-2766493.02541 -11552.77075,-2766421.73881 -11392.3787488,-2766383.18789 -11242.9668085,-2766353.43906 -11093.3780186,-2766260.28422 -10961.7916325,-2766148.67598 -10884.5121232,-2766032.13669 -10830.547156,-2765981.66443 -10708.6192237,-2765959.69428 -10601.9193798,-2765937.66198 -10443.1410792,-2765938.59697 -10192.5783103,-2765971.84333 -10000.9003336,-2765918.91741 -9860.82062894,-2765807.56652 -9735.61706165,-2765717.11058 -9596.53899301,-2765631.74816 -9075.38683055,-2765465.53462 -8825.37523496,-2765383.97976 -8608.31960759,-2765310.85894 -8398.52153381,-2765271.89288 -8172.11649669,-2765272.3873 -7963.51343821,-2765322.31469 -7773.14963351,-2765397.72541 -7699.81907143,-2765587.3166 -7694.72287131,-2765782.35945 -7722.73274236,-2765971.86241 -7764.02362705,-2766168.23613 -7873.2299143,-2766355.07707 -7959.5022694,-2766453.8993 -8002.17902128,-2766558.4595 -8031.02366855,-2766727.51952 -8026.00348506,-2766867.65215 -8068.19822799,-2767058.56121 -8204.50727946,-2767257.66313 -8333.47129061,-2767443.07613 -8488.6599529,-2767662.68931 -8604.97810877,-2767827.7719 -8687.55321163,-2768011.85429 -8802.98535644,-2768190.39072 -8879.98630256,-2768333.87774 -8931.48928965,-2768539.53294 -8864.60122696,-2768678.3886 -8788.04581476,-2768754.06628 -8708.37980431,-2768807.6894 -8572.52064701,-2768766.84616 -8478.66838006,-2768671.29842 -8308.26228978,-2768399.32978 -8088.10114067,-2768199.81561 -7904.43481312,-2768120.1606 -7659.8388618,-2767928.43281 -7513.46292739,-2767784.45385 -7285.78285366,-2767594.71087 -7006.88405163,-2767458.90978 -6793.5401487,-2767274.07286 -6538.80670992,-2767122.49351 -6303.29382774,-2766892.59353 -6113.83643064,-2766692.96952 -5989.17553638,-2766575.07669 -5787.61764033,-2766562.30468 -5644.48084417,-2766618.60018 -5533.17801177,-2766757.17742 -5422.94821783,-2766919.24718 -5319.71894132,-2767167.8776 -5272.69844295,-2767388.66833 -5192.96905137,-2767575.07419 -5155.49939564,-2767715.26962 -5117.05602185,-2767889.38187 -5063.12651904,-2768133.43511 -5010.48167359,-2768306.64003 -4953.44670972,-2768432.79495 -4897.00956912,-2768512.04317 -4820.54731407,-2768610.68388 -4768.27426427,-2768770.91981 -4823.0635046,-2768957.69152 -4792.4748853,-2769101.57749 -4703.36002076,-2769232.30135 -4556.12943495,-2769370.34134 -4438.61566165,-2769481.77919 -4314.83277563,-2769585.54897 -4190.5740021,-2769679.82034 -4047.28714675,-2769750.08339 -3886.64314466,-2769772.92464 -3698.70377765,-2769738.07528 -3564.59138215,-2769688.7982 -3423.26973668,-2769629.82982 -3285.70584772,-2769552.9991 -3078.12329342,-2769367.83297 -2924.76398935,-2769232.64477 -2687.87464274,-2769051.13117 -2543.22100416,-2768925.67829 -2390.53700437,-2768853.9062 -2216.15577021,-2768842.41079 -1961.01465594,-2768801.14255 -1754.3135836,-2768741.79744 -1525.83220792,-2768728.25036 -1324.27001797,-2768715.97532 -1096.86100808,-2768682.49256 -934.155152297,-2768707.7724 -791.010983133,-2768764.56209 -675.562285237,-2768821.64745 -551.93319956,-2768885.48621 -448.155535097,-2768996.81623 -375.088361096,-2769203.36979 -322.807463133,-2769390.054 -216.285156924,-2769562.20237 -144.514394005,-2769714.88244 -67.1451388602,-2769853.92411 85.2373425677,-2769997.79982 251.022762589,-2770147.77932 396.422512455,-2770291.85466 582.518973085,-2770427.77262 795.186096645,-2770576.40428 941.603064345,-2770712.46249 1126.72471236,-2770814.46438 1281.50340071,-2770885.39149 1399.85730314,-2770895.96859 1521.52324191,-2770804.62315 1631.25130651,-2770688.66312 1715.45848637,-2770527.01497 1786.03894721,-2770386.22363 1799.95362543,-2770184.16625 1786.26121102,-2769941.9709 1712.18689298,-2769708.99614 1638.28353116,-2769525.43234 1566.34074863,-2769349.29926 1433.05396579,-2769131.5001 1270.45665724,-2768979.43194 1170.02928042,-2768863.01578 1091.27860171,-2768710.53704 1033.02569239,-2768550.48157 1059.13464899,-2768347.07398 1208.39029879,-2768242.95941 1378.28876288,-2768153.72675 1587.28795521,-2768174.68434 1697.0611822,-2768225.44341 1828.54036115,-2768362.93161 1925.87986203,-2768467.45664" style="stroke-linejoin:round;stroke:#000;stroke-width:1px;fill:none" /></g></g></svg>