<svg xmlns="http://www.w3.org/2000/svg" baseProfile="full" height="64678.7539634" version="1.1" viewBox="-4282.393674,3065676.521887,48852.759863,64678.753963" width="48852.7598628"><defs><style type="text/css">polyline,line,rect,path,polygon,.polygon{fill:none;stroke:#000;stroke-width:1px;stroke-linejoin:round;}</style></defs><g fill_rule="evenodd" transform="scale(1,-1)"><g class="id" id="22119"><polygon class="_22119" id="None" points="13898.4299063,-3065741.14277 29865.6456655,-3065712.02923 29809.2142447,-3071722.68682 29760.9790264,-3075835.59016 30035.9932497,-3075836.49996 30035.1293995,-3075949.61756 37365.4928355,-3075865.08269 38884.2947831,-3075847.86351 38914.8030915,-3078328.78118 38968.1697164,-3082012.44863 39023.6705174,-3083741.09914 39082.7004706,-3086082.20838 39103.6240733,-3088311.5738 39122.5852114,-3090278.55325 39248.5457914,-3095547.64761 40235.2658741,-3095491.0974 43324.4964983,-3095439.80044 43462.9460393,-3095439.66792 43454.5425325,-3096275.78426 43431.5065656,-3098875.1792 43742.1963878,-3108968.19083 43794.6775988,-3110576.87066 44037.6984364,-3118048.96738 44351.016086,-3127544.35285 42946.2791208,-3128635.15323 41874.6985645,-3129477.31486 41226.3381589,-3129960.37237 26476.1102785,-3130176.48082 23810.9607228,-3130187.9746 13261.6081913,-3130160.6632 9398.6487607,-3130150.60201 8706.69245042,-3130145.09628 5618.09285496,-3130128.06121 4331.14033472,-3130160.70335 2926.56941013,-3130199.01331 -346.87752158,-3130276.57554 -478.414347348,-3122617.48993 5607.03353649,-3122441.92762 -4266.76771739,-3117925.5931 -2682.35518307,-3114118.4297 -277.984441573,-3107901.36517 4325.07047759,-3096006.76236 4986.06331097,-3094406.97013 5181.97011277,-3093932.68462 5808.85190091,-3092416.28772 6726.7933297,-3089963.67 8104.89336274,-3086283.32941 10026.3948003,-3081571.78962 11503.757007,-3077308.12583 11697.4203219,-3076710.97661 12530.3623759,-3074405.3575 13943.2446791,-3070434.57466 13898.4299063,-3065741.14277" style="stroke-linejoin:round;stroke:#000;stroke-width:1px;fill:none" /></g></g></svg>