<svg xmlns="http://www.w3.org/2000/svg" baseProfile="full" height="88599.3065147" version="1.1" viewBox="58009.962038,3016687.439505,41667.213937,88599.306515" width="41667.2139366"><defs><style type="text/css">polyline,line,rect,path,polygon,.polygon{fill:none;stroke:#000;stroke-width:1px;stroke-linejoin:round;}</style></defs><g fill_rule="evenodd" transform="scale(1,-1)"><g class="hogares departamen mujeres departam_1 toponimo_i tot_pob varones viv_part viv_part_h" id="22133"><polygon class="_22133" id="None" points="76710.927002,-3052383.27156 78874.5243788,-3053312.95432 78940.7831523,-3053344.23921 78984.2028025,-3053364.95922 79037.1345202,-3053386.80077 79070.0584518,-3050822.15974 79148.0207358,-3044823.86488 79174.3589477,-3042815.62503 79201.5042682,-3040750.05191 79234.7269288,-3038730.09048 79271.2749042,-3036838.56787 79430.298656,-3026860.20287 79508.6144554,-3022128.22219 79520.0632885,-3021524.32818 79548.8995679,-3019923.14668 79577.9409394,-3016802.12453 82321.7581263,-3016839.36546 83677.5405119,-3016851.13513 87391.0721754,-3016940.50171 87566.5594338,-3016943.17209 89553.2986192,-3016975.3442 99634.1690003,-3017138.4446 99611.319954,-3022036.75025 99594.3303617,-3026448.6301 99585.9832207,-3028591.54967 99385.8798588,-3035317.57841 99329.4462318,-3037216.79478 99317.2759941,-3037619.78808 99225.4313704,-3040715.00027 99182.9536359,-3042120.00088 99056.6374574,-3046314.55303 99044.2286811,-3047008.99185 99011.10664,-3048865.48274 98971.3438422,-3051129.24695 98862.7616658,-3057452.87289 98827.5551938,-3061495.48774 94670.272391,-3059753.05449 92079.0868124,-3058735.00909 90966.5140233,-3058297.47849 89229.2559727,-3062926.78393 88075.6544901,-3066001.15669 84732.6901926,-3074911.8478 82159.9371181,-3081773.24997 81799.8481146,-3082732.84144 81098.2835891,-3084605.47304 78687.8590994,-3090562.20315 76829.2777589,-3095156.79251 76595.0413409,-3095750.71046 74752.6037236,-3100400.28756 72887.5953403,-3105109.35941 70838.7325359,-3104232.81764 67336.649063,-3102851.0367 62702.4798552,-3100958.49347 58037.3732932,-3099057.93205 59544.6415701,-3095363.36388 61823.4271635,-3089776.01698 63045.0675736,-3086788.06954 63202.7429928,-3086390.52338 63255.5916477,-3086265.30752 63299.7313057,-3086140.43764 63922.558789,-3084558.56505 64711.1276777,-3082693.51671 65500.7734836,-3080571.77908 66930.4274689,-3076731.12344 67306.8678147,-3075796.15122 67734.071969,-3074802.36328 71389.2061114,-3065491.05522 72880.6722783,-3061805.63625 73636.7287594,-3059938.91139 76710.927002,-3052383.27156" style="stroke-linejoin:round;stroke:#000;stroke-width:1px;fill:none" /></g></g></svg>