<svg xmlns="http://www.w3.org/2000/svg" baseProfile="full" height="80845.3248139" version="1.1" viewBox="47206.741398,3103351.671680,30916.919275,80845.324814" width="30916.9192748"><defs><style type="text/css">polyline,line,rect,path,polygon,.polygon{fill:none;stroke:#000;stroke-width:1px;stroke-linejoin:round;}</style></defs><g fill_rule="evenodd" transform="scale(1,-1)"><g class="id" id="22147"><polygon class="_22147" id="None" points="58037.5022371,-3107284.0017 62702.4004293,-3109185.08327 67336.3298902,-3111078.17645 70838.2171762,-3112460.39532 72886.9478259,-3113337.2016 76001.3150818,-3114586.62743 78099.3564128,-3115409.50932 77861.0915884,-3124056.13232 77843.5688462,-3124695.73594 77740.1307102,-3134034.77992 77727.4028338,-3135182.53606 77645.3210454,-3143990.56965 77556.4436059,-3154120.19544 77593.408172,-3159000.36173 77509.8851676,-3162652.43298 77305.53118,-3169423.40519 77259.9321843,-3179193.40401 77175.5650497,-3184117.62741 62853.9860175,-3184079.38714 57103.0693454,-3184063.87684 47290.1154227,-3184042.51819 47296.7504196,-3181992.44944 47329.3705707,-3180254.45784 47293.1421956,-3177541.00874 47245.9733145,-3173832.80098 47781.0361151,-3173840.46107 48508.365408,-3173855.75855 50549.5762454,-3173879.9465 52323.9569947,-3173897.02908 52346.6119956,-3173369.11898 52376.5949617,-3161952.7601 52410.345134,-3160804.20763 52436.4009141,-3155755.26323 52408.9550579,-3153644.99393 49414.6750144,-3153678.20297 47422.704021,-3153730.24828 47566.5459273,-3143660.03751 47707.2845731,-3133671.3677 47759.7110025,-3129999.26492 47853.6207638,-3123702.03938 47853.6208769,-3123689.57513 47945.4023909,-3117644.25052 47974.7615473,-3115712.12704 48006.086036,-3113684.20341 48006.3222577,-3113633.83876 48201.614657,-3103342.16088 48856.857291,-3103602.8088 58037.5022371,-3107284.0017" style="stroke-linejoin:round;stroke:#000;stroke-width:1px;fill:none" /></g></g></svg>