<svg xmlns="http://www.w3.org/2000/svg" baseProfile="full" height="79224.4627306" version="1.1" viewBox="-21577.904988,3137899.883197,80938.432394,79224.462731" width="80938.4323939"><defs><style type="text/css">polyline,line,rect,path,polygon,.polygon{fill:none;stroke:#000;stroke-width:1px;stroke-linejoin:round;}</style></defs><g fill_rule="evenodd" transform="scale(1,-1)"><g class="hogares departamen mujeres departam_1 toponimo_i tot_pob varones viv_part viv_part_h" id="22161"><polygon class="_22161" id="None" points="-21261.7091833,-3138416.78514 -13753.8357288,-3138344.96162 -4994.23802392,-3138303.00561 -346.877392298,-3138283.82377 2926.56872016,-3138206.269 4331.13960715,-3138167.96804 5618.09223618,-3138135.33719 8706.69123884,-3138152.41126 9398.64736431,-3138157.92804 13261.6060125,-3138168.06639 23810.9558784,-3138195.72254 26476.10551,-3138184.34691 41226.3473886,-3137969.11876 41212.7229575,-3142225.96413 41185.9006271,-3152397.83748 41222.8545737,-3157513.49571 42106.6630672,-3157486.5711 58882.3643366,-3157475.7493 58947.0192569,-3157474.1072 58940.8226271,-3158301.0184 58871.6671663,-3167438.4846 58804.0894456,-3173993.52922 58888.8342607,-3203943.51001 58892.9655962,-3205250.55007 58976.4317054,-3217124.34593 18440.4141531,-3216636.01064 2100.09986559,-3216438.00254 2009.58222189,-3216436.98718 -272.962177192,-3216409.07408 -3134.38761214,-3216425.16515 -5699.03023117,-3216472.45602 -7239.39968697,-3216548.46071 -13900.0355888,-3216468.26448 -18393.9721532,-3216553.32128 -19510.4468123,-3216495.20629 -20622.0013822,-3216527.09141 -21312.4459934,-3216534.71642 -21323.9284655,-3210088.30385 -21377.2024595,-3207389.50318 -21455.1663204,-3203440.44861 -21483.2283708,-3199416.67212 -21474.140231,-3197569.44204 -21428.1261007,-3188284.50291 -21420.0048863,-3187354.74881 -21375.2409813,-3182430.08576 -21408.2116617,-3172660.14017 -21258.315503,-3165887.7736 -21204.1640161,-3162235.15072 -21280.3723388,-3157355.42646 -21272.9571094,-3147225.32949 -21261.7091833,-3138416.78514" style="stroke-linejoin:round;stroke:#000;stroke-width:1px;fill:none" /></g></g></svg>