<svg xmlns="http://www.w3.org/2000/svg" baseProfile="full" height="104024.651911" version="1.1" viewBox="-12349.985289,5194854.069873,143284.344926,104024.651911" width="143284.344926"><defs><style type="text/css">polyline,line,rect,path,polygon,.polygon{fill:none;stroke:#000;stroke-width:1px;stroke-linejoin:round;}</style></defs><g fill_rule="evenodd" transform="scale(1,-1)"><g class="id" id="26042"><polygon class="_26042" id="None" points="87691.0469298,-5196874.29186 87883.8601648,-5196870.10181 87917.1196197,-5196869.50028 87919.6254206,-5196869.03027 97148.149885,-5196668.14465 105938.25413,-5196477.1035 107442.236133,-5196444.65731 117366.158421,-5196228.35712 126569.278829,-5196028.01418 126577.284052,-5196027.61047 126584.357773,-5196333.20947 126799.617528,-5205417.6588 126934.50394,-5211043.95727 127029.955739,-5215002.21054 127127.35538,-5219049.47543 127237.897658,-5223752.89774 127285.24852,-5225682.00087 127336.647541,-5227836.65396 127366.711919,-5229040.03385 127418.46893,-5231207.18745 127463.399498,-5233089.25302 127516.422068,-5235255.91778 127562.321593,-5237182.99241 127606.216914,-5239069.0413 127654.829142,-5241041.64668 127658.488879,-5241278.69321 127662.315758,-5241355.73993 127669.910305,-5241660.83436 127671.073053,-5241709.84884 127690.084296,-5242543.5859 127691.104937,-5242583.59857 127691.271051,-5242590.60064 127698.466326,-5242908.19034 127718.209073,-5243764.43621 127740.58098,-5244651.71378 127749.778121,-5245031.82801 127752.614374,-5245149.86325 127752.078513,-5245152.85686 127757.686726,-5245373.42639 127762.672358,-5245562.48811 127768.108548,-5245776.5555 127775.870771,-5246088.65177 127811.394931,-5247527.09234 127851.657908,-5249154.59145 127853.521658,-5249228.61454 127853.348073,-5249243.11261 127852.882622,-5249261.10723 127853.054776,-5249267.60936 127855.114631,-5249346.13484 127872.945649,-5250049.35565 127873.289967,-5250062.3599 127874.97565,-5250130.38079 127875.329475,-5250267.88646 127878.531162,-5250271.92483 127880.863611,-5250369.45377 127881.3382,-5250392.4597 128066.295852,-5258021.25493 128200.276931,-5263478.92242 128400.686453,-5271895.93915 128504.531892,-5275969.75123 128690.028711,-5283740.63337 128777.654091,-5287355.77334 128872.938242,-5291273.52583 128970.479842,-5295171.31972 129005.351072,-5296629.78864 129005.553387,-5296633.7912 128710.744784,-5296637.77844 112961.392543,-5296836.47148 112955.143094,-5296836.3969 112938.644549,-5296836.19998 108867.059344,-5296887.09978 91122.5242331,-5297110.56114 91101.2758528,-5297110.30697 89507.4364327,-5297129.74255 73574.4609951,-5297328.99076 73574.6810192,-5297331.49356 43883.6374476,-5297700.17116 38724.2350667,-5297753.13619 38528.9318575,-5290916.48232 38496.6041663,-5289716.54589 38441.2771879,-5287892.31127 38397.4096642,-5286549.73515 38372.3718195,-5285741.40573 38213.5532986,-5279274.29236 38202.4416889,-5279158.65559 37963.4622329,-5270514.06793 37921.0631193,-5268880.52375 37922.3236577,-5268004.52054 37758.5528726,-5262941.45845 37701.2784394,-5261254.74193 37649.0216807,-5259316.08272 37628.1069479,-5258328.8159 37624.7683762,-5257606.26432 37510.2535597,-5252600.81595 37431.0830006,-5249067.31711 34668.3938401,-5249080.22567 23975.7548613,-5249129.64174 19186.0549322,-5249148.76317 18001.9558206,-5249158.07769 14229.0993326,-5249192.37766 6181.92553049,-5249264.96318 -1857.41055988,-5249340.13272 -6856.74358626,-5249389.72335 -8665.55757857,-5249404.04666 -11601.6527851,-5249427.85952 -12108.8710112,-5216383.99337 -12126.9433808,-5214920.36559 -12136.7754013,-5214423.27791 -12147.6021815,-5213820.6844 -12177.2847739,-5211987.43715 -12218.1162711,-5209199.10777 -12253.1674262,-5206806.32011 -12310.5663658,-5203094.82824 -12327.9340773,-5199209.30656 -12332.5142245,-5198183.79823 -12341.0133959,-5198015.20483 -12344.4144384,-5197943.66764 12741.0123297,-5197576.6651 51688.7552597,-5197311.73985 54584.6509173,-5197292.31577 70647.1724404,-5197081.27011 85923.3335777,-5196882.11426 87381.7904632,-5196873.08645 87515.0303448,-5196874.68294 87686.7972526,-5196874.24094 87691.0469298,-5196874.29186" style="stroke-linejoin:round;stroke:#000;stroke-width:1px;fill:none" /></g></g></svg>