<svg xmlns="http://www.w3.org/2000/svg" baseProfile="full" height="152338.065372" version="1.1" viewBox="-62206.300826,5165024.390607,184494.924163,152338.065372" width="184494.924163"><defs><style type="text/css">polyline,line,rect,path,polygon,.polygon{fill:none;stroke:#000;stroke-width:1px;stroke-linejoin:round;}</style></defs><g fill_rule="evenodd" transform="scale(1,-1)"><g class="hogares departamen mujeres departam_1 toponimo_i tot_pob varones viv_part viv_part_h" id="26056"><polygon class="_26056" id="None" points="58229.2900167,-5171012.90531 58256.3617456,-5171016.01235 58349.4488162,-5171027.53842 58548.5419785,-5171068.86137 58673.1792554,-5171180.78259 58853.706286,-5171240.0084 59005.5124299,-5171227.01341 59017.8405705,-5171225.74465 59148.2164853,-5171101.95221 59277.4210243,-5171031.60248 59423.0573747,-5171017.24079 59623.4125387,-5171003.62612 59880.8503313,-5170900.37713 60101.8873463,-5170778.46333 60177.2872051,-5170670.91121 60236.0147558,-5170490.352 60385.8714496,-5170312.20004 60480.721413,-5170150.78813 60595.5240981,-5170125.09312 60680.4825908,-5170155.64129 60787.7184238,-5170249.0268 60932.722336,-5170270.6355 61078.0732019,-5170273.76024 61170.7507625,-5170203.74142 61317.9282483,-5170133.95609 61591.5142024,-5170104.18067 61772.0463428,-5170163.407 62029.8058704,-5170042.16897 62052.4105191,-5169842.45844 62055.7840327,-5169697.12096 62077.6563768,-5169551.88095 62099.2497908,-5169407.12445 62174.0542196,-5169318.03906 62246.4281959,-5169337.33765 62334.8498866,-5169448.61237 62459.8096423,-5169542.55038 62606.2656163,-5169510.23062 62681.0704948,-5169421.14497 62685.0690456,-5169256.8387 62761.4208679,-5169095.32536 62800.6298303,-5168986.62245 62894.5381627,-5168862.1601 63021.3542984,-5168882.68849 63109.7769501,-5168993.96375 63252.0453952,-5169124.9388 63431.3801965,-5169238.10832 63538.6574503,-5169313.99317 63645.3300331,-5169425.35197 63807.3280124,-5169501.98379 64006.7778823,-5169524.82294 64064.2763238,-5169398.69933 64089.0192587,-5169344.15215 64121.7451009,-5169273.07396 64215.3674293,-5169166.09844 64362.5190037,-5169096.80883 64489.5562282,-5169117.85113 64577.0664914,-5169265.58416 64810.2494316,-5169398.45557 64990.2204361,-5169475.65472 65152.7864877,-5169534.31621 65407.2476478,-5169540.41483 65589.0457777,-5169544.70196 65715.8349472,-5169565.73036 65841.364219,-5169641.70008 65946.2412343,-5169825.47617 66070.5399139,-5169955.88928 66195.1854238,-5170067.81781 66340.1663642,-5170089.92665 66466.0427251,-5170147.41248 66517.926592,-5170276.02919 66678.4474672,-5170407.09294 66858.4202581,-5170484.29516 67129.8747735,-5170545.42121 67349.3779083,-5170495.93123 67424.7831393,-5170388.37292 67446.0621364,-5170261.59694 67538.5256432,-5170191.06185 67721.2107791,-5170159.39194 67881.4158636,-5170308.44384 67969.839986,-5170419.72508 68293.9136758,-5170554.99727 68383.4175243,-5170593.32037 68490.2438019,-5170723.20015 68577.7541161,-5170870.9395 68648.3426467,-5170945.6519 68866.2999573,-5170968.59346 69085.2784784,-5170919.57285 69197.0597087,-5170831.17811 69327.1601962,-5170724.86457 69456.76236,-5170618.52121 69585.6705217,-5170549.14838 69823.0822917,-5170518.2265 69911.5073717,-5170629.5099 70000.2498856,-5170722.80643 70269.9130729,-5170856.35274 70434.0635106,-5170842.08933 70545.0005918,-5170772.14962 70673.3433702,-5170720.74883 70818.3885834,-5170741.86326 70926.8337265,-5170781.3119 70976.4214897,-5170982.32178 71101.3879195,-5171076.26942 71227.7667626,-5171133.78885 71337.5712022,-5171099.79392 71358.2558803,-5170991.48496 71362.5466085,-5170809.67825 71437.9551599,-5170702.11693 71471.2145997,-5170681.08353 71493.3143572,-5170666.89019 71637.9838536,-5170706.98894 71708.5056884,-5170799.70551 71742.803703,-5170891.77226 71904.2439421,-5170986.38529 71955.6595359,-5171114.48043 71934.3485622,-5171241.75922 71985.3186152,-5171406.84071 72031.4979775,-5171753.70024 72036.2984143,-5171794.9993 72040.7405775,-5171821.27195 72064.6910236,-5171881.21402 72188.6748105,-5172029.62389 72388.704374,-5172034.49831 72662.5357615,-5172005.24144 72845.0093875,-5171973.06094 72973.6043031,-5171921.67569 73119.5661167,-5171906.33379 73301.6931044,-5171892.63903 73447.0291714,-5171896.26667 73575.3069937,-5171862.86869 73682.302259,-5171956.25259 73807.5194949,-5172050.21846 73878.9556114,-5172106.47876 73947.8976391,-5172272.13025 74032.1278636,-5172546.72849 74044.5741236,-5172783.55223 74114.1806774,-5172912.73063 74201.0256771,-5173096.95232 74289.2311209,-5173207.72857 74450.3246276,-5173320.83297 74612.0150224,-5173415.46643 74731.7423946,-5173728.18815 74996.1998609,-5174080.01788 75212.6846907,-5174157.39986 75393.8306162,-5174198.17039 75519.6836761,-5174256.16438 75552.5266405,-5174402.16848 75638.7729243,-5174604.86464 75632.6744397,-5174859.09669 75637.7674618,-5174924.9235 75646.3495266,-5175041.47628 75770.3320341,-5175189.89376 75931.9926308,-5175285.0292 76077.0424564,-5175306.15081 76220.231853,-5175400.68952 76270.35056,-5175584.23472 76339.3180769,-5175749.39255 76647.0139823,-5175811.18957 76775.6438246,-5175759.30914 76834.5624039,-5175735.79933 76904.2441829,-5175707.92704 77103.7128836,-5175730.78195 77175.1191027,-5175787.5444 77299.4499531,-5175917.47817 77497.336951,-5176013.26769 77642.9264218,-5176016.91588 77770.3628473,-5176001.97875 77876.7207006,-5176131.34572 78018.0795596,-5176298.80658 78145.7952099,-5176283.38614 78239.4357323,-5176176.40601 78280.2105962,-5175995.25685 78355.5988481,-5175888.19232 78503.1196984,-5175800.41921 78722.6153928,-5175751.43579 78832.0795561,-5175735.93074 78890.5091015,-5175573.33637 78949.5061011,-5175392.76839 79078.7455515,-5175305.40877 79137.9021421,-5175277.91091 79262.9616427,-5175218.81412 79465.279873,-5175113.78683 79560.1249436,-5174952.85445 79564.105308,-5174789.02484 79658.9796933,-5174627.59359 79734.7453907,-5174501.5417 79829.9082489,-5174322.62003 79942.7855428,-5174161.25703 80110.5805585,-5174001.65527 80492.1927211,-5174010.81794 80640.3123781,-5173904.56906 80770.7174118,-5173780.76086 80938.6118589,-5173602.65578 80972.0199299,-5173558.12086 80986.1342786,-5173539.45113 81032.5709723,-5173477.68256 81165.75109,-5173243.99246 81204.4439927,-5173135.74454 81279.8321554,-5173028.67561 81444.3451887,-5172995.92894 81520.6484349,-5172852.39873 81451.6748651,-5172687.23459 81417.3470271,-5172595.65825 81421.5051107,-5172449.84392 81534.4507443,-5172270.4735 81591.6153527,-5172162.82166 81636.8704991,-5172011.4443 81650.9570188,-5171963.76039 81763.8039573,-5171802.8911 81914.0118707,-5171606.72423 82080.0074751,-5171519.54036 82281.8826306,-5171451.49417 82376.2571802,-5171290.02687 82505.7084738,-5171220.18062 82687.6004416,-5171206.47105 82847.8210452,-5171355.54547 83010.4085279,-5171414.22162 83157.933013,-5171326.44019 83233.3212188,-5171219.36842 83434.0344108,-5171187.76821 83576.6416162,-5171111.19928 83597.8481244,-5171099.45286 83692.1621291,-5171048.52856 83802.2275129,-5171014.54657 83840.5722775,-5170924.78299 83806.5215004,-5170832.72141 83719.5700148,-5170666.98769 83814.4434797,-5170505.54753 83978.0453695,-5170509.2591 84084.4530693,-5170621.12403 84245.5905691,-5170733.73786 84388.7928294,-5170828.27942 84552.0479224,-5170850.47917 84752.445413,-5170836.86753 84988.0580486,-5170878.87107 85094.1185782,-5171009.225 85200.5561604,-5171120.59296 85529.2157617,-5171074.08011 85621.3770299,-5171021.52662 85768.2096419,-5170970.71893 85930.9288789,-5171010.39547 86167.428682,-5171016.43608 86314.6095024,-5170947.14038 86371.5562501,-5170838.97069 86501.0509303,-5170751.61657 86720.2722466,-5170720.11385 86846.1678191,-5170777.6131 86934.6025807,-5170888.91398 87207.3326193,-5170895.60541 87372.1715227,-5170844.86592 87554.5691792,-5170831.18596 87698.6895041,-5170889.26782 87879.0384466,-5170948.00058 88025.3362176,-5170914.66867 88098.5801854,-5170898.50858 88243.6158516,-5170920.12781 88351.5378155,-5170977.06095 88459.4006239,-5171034.99116 88561.0783326,-5171037.0276 88622.7591881,-5171038.6897 88678.0581782,-5171021.46393 88805.1882553,-5171024.51169 88989.7356872,-5170919.91586 89100.1239182,-5170867.94323 89175.296501,-5170760.35331 89232.713664,-5170652.70934 89248.6870961,-5170640.65163 89325.1957179,-5170582.16455 89470.5508319,-5170585.79399 89650.8336515,-5170662.53226 89777.0499578,-5170702.04334 89925.4679604,-5170578.29244 89983.8297808,-5170433.68572 90096.6545386,-5170273.3037 90263.1460916,-5170131.61587 90446.6433094,-5170099.49112 90610.8210572,-5170085.22848 90775.3465424,-5170052.47729 90957.2803715,-5170038.2685 91193.4423553,-5170062.79766 91355.2540497,-5170138.93988 91572.6248848,-5170180.86279 91721.0744586,-5170056.6113 91798.6152997,-5169858.61366 91910.805597,-5169734.20946 92041.5680974,-5169591.89822 92205.1808434,-5169595.61056 92404.3582569,-5169636.45264 92492.2004723,-5169766.23241 92580.6689814,-5169877.03983 92906.6336067,-5169939.41884 93090.0228934,-5169871.26856 93237.7791433,-5169783.99332 93369.487594,-5169604.7178 93479.3123908,-5169570.71842 93607.263938,-5169555.80476 93619.7560919,-5169556.04631 93627.2336235,-5169556.49034 93734.3991903,-5169558.85198 93899.4663796,-5169508.62273 94153.7376034,-5169514.71721 94390.2827918,-5169520.2594 94642.5058229,-5169598.77068 94709.8094736,-5169855.40081 94802.2986641,-5169936.43329 94808.2339473,-5169941.78841 94836.6020179,-5169948.47574 94839.5634519,-5169949.15187 94962.1836775,-5169952.43177 95089.9170619,-5169937.00525 95216.1388075,-5169976.51821 95557.2328999,-5170184.37524 95719.5873001,-5170243.04365 95864.6316501,-5170264.66484 96081.442462,-5170324.56669 96187.8883957,-5170435.94527 96275.73167,-5170565.7297 96401.0686833,-5170641.21067 96563.0760124,-5170718.36955 96671.571945,-5170757.3313 96743.0202335,-5170813.60325 96793.5270428,-5170978.19094 96808.6883139,-5171106.16052 96875.8275328,-5171159.17513 97094.51064,-5171330.75115 97255.9506873,-5171425.88751 97307.9101696,-5171536.53279 97320.3539644,-5171773.4011 97389.6525949,-5171920.59601 97385.7015148,-5172083.95078 97364.062879,-5172229.24546 97378.9340773,-5172374.70797 97430.6434649,-5172485.3388 97520.3166075,-5172542.19448 97646.151761,-5172617.70771 97700.5391689,-5172636.9477 97751.651056,-5172766.05358 97766.8401087,-5172893.52552 97853.7951882,-5173059.28012 97960.7777878,-5173153.18467 98068.1085467,-5173228.59985 98175.787505,-5173285.52563 98301.6226868,-5173361.03999 98498.9453656,-5173475.32131 98624.2821732,-5173550.80645 98676.1707142,-5173679.45943 98728.447145,-5173772.11552 98724.8120967,-5173917.48047 98757.5881428,-5174081.51824 98844.1129727,-5174229.23924 98987.5065457,-5174341.81842 99096.3215407,-5174362.79296 99225.2939476,-5174292.91391 99352.33475,-5174314.47127 99459.4460723,-5174389.37495 99530.2266894,-5174482.13096 99619.650785,-5174538.97421 99819.1552366,-5174561.83661 99889.9358721,-5174654.59299 99996.3504999,-5174766.4768 100230.752697,-5174862.95423 100503.289719,-5174869.14583 100723.741135,-5174783.69141 100908.657799,-5174660.60456 100948.177687,-5174534.37962 101078.068589,-5174428.03357 101224.67133,-5174377.21181 101406.201623,-5174399.50659 101547.863645,-5174566.51701 101834.64441,-5174737.14961 102018.895476,-5174650.54343 102129.615498,-5174580.57921 102243.085138,-5174401.21445 102229.162615,-5174218.78123 102341.117853,-5174094.3581 102488.250165,-5174043.06678 102634.187333,-5174028.72603 102795.09265,-5174141.34881 103012.479686,-5174183.28499 103213.822305,-5174133.21408 103235.743601,-5174109.50208 103344.353018,-5173990.88269 103421.909274,-5173792.87178 103514.68295,-5173721.83966 103677.044346,-5173780.51739 103836.019004,-5173984.58066 104069.292227,-5174117.01465 104248.366021,-5174231.21901 104374.205774,-5174306.73859 104593.208772,-5174275.22767 104866.293471,-5174263.94112 104901.355525,-5174309.55119 104910.12185,-5174313.57431 105045.676602,-5174377.16425 105281.641996,-5174401.19457 105407.900644,-5174440.21773 105465.080652,-5174332.54875 105467.900121,-5174205.13884 105635.484177,-5174045.49558 105765.599601,-5173939.65931 105947.454994,-5173943.96319 106072.698658,-5174037.95956 106268.25711,-5174224.18913 106450.681266,-5174210.51623 106673.075425,-5174033.61678 106873.826019,-5174002.02107 107020.684703,-5173951.21243 107220.548837,-5173955.58623 107571.760551,-5174052.50723 107582.331239,-5174055.63705 107689.100127,-5174149.0371 107631.251553,-5174293.19092 107611.562478,-5174334.04689 107554.578303,-5174455.23758 107569.76531,-5174582.7191 107639.951334,-5174693.95756 107785.325943,-5174697.59535 107931.647204,-5174664.26627 108077.62002,-5174649.42802 108222.078235,-5174689.53428 108329.096314,-5174782.9501 108491.143538,-5174859.62448 108634.395723,-5174953.69351 108833.564629,-5174995.05119 108926.66206,-5174906.0253 109055.047102,-5174854.61936 109236.558038,-5174877.41633 109544.331332,-5174939.23885 109648.598932,-5175142.0623 109716.98066,-5175325.74191 109786.628079,-5175454.46177 109875.988008,-5175529.31843 110003.137827,-5175532.37433 110043.928466,-5175351.18159 110011.402735,-5175187.14419 109978.268289,-5175058.59342 110072.254072,-5174933.59661 110237.69239,-5174864.88038 110489.5208,-5174979.91442 110558.222104,-5175145.60254 110573.976725,-5175255.10911 110641.790132,-5175456.76791 110729.88451,-5175586.58541 110799.561667,-5175714.80785 110867.942903,-5175898.48928 110901.674748,-5176008.56459 110915.344556,-5176190.99476 110894.863698,-5176299.84826 110946.602691,-5176409.99364 111090.743728,-5176468.09572 111216.338413,-5176543.60725 111249.72079,-5176672.17419 111208.957477,-5176852.86925 111096.393047,-5176995.77316 111056.836809,-5177122.50468 111069.517235,-5177359.41149 111231.914616,-5177417.59955 111378.778998,-5177366.79394 111418.405708,-5177222.0547 111565.938687,-5177134.7648 111712.513652,-5177101.453 111787.606927,-5177012.3571 112114.279772,-5177038.28571 112206.463228,-5176985.72902 112422.377022,-5177082.12247 112529.645294,-5177175.55816 112543.911709,-5177339.51381 112503.785801,-5177484.22449 112554.506457,-5177649.34726 112624.122872,-5177778.56944 112732.059384,-5177835.52147 112821.419438,-5177910.38142 112891.953684,-5178003.13446 112869.734731,-5178166.42172 112848.08445,-5178311.73086 112899.751891,-5178439.88615 112990.100093,-5178460.26932 113064.02758,-5178407.6283 113121.813193,-5178281.47924 113214.566588,-5178210.94509 113358.139947,-5178287.02841 113391.520827,-5178415.59763 113368.412696,-5178614.85638 113292.648561,-5178740.43655 113254.287004,-5178830.21595 113286.180115,-5179013.23278 113391.361493,-5179179.59485 113499.048527,-5179236.53347 113609.680657,-5179185.07522 113739.019368,-5179096.70422 113885.317962,-5179063.87816 113974.079234,-5179157.2163 114002.65986,-5179337.03513 114005.931126,-5179357.74339 113892.792603,-5179518.62557 113780.792131,-5179643.55118 113739.425023,-5179842.72468 113771.915519,-5180007.26552 113823.901328,-5180117.42917 113913.580372,-5180174.29815 114040.413333,-5180195.35202 114223.516781,-5180145.20347 114351.558845,-5180112.29314 114552.919883,-5180062.22981 114623.103709,-5180173.47668 114712.243707,-5180247.82577 114837.489258,-5180341.83462 114819.148858,-5180511.35833 114813.998596,-5180560.08492 114792.466767,-5180610.83897 114769.931437,-5180649.0249 114754.612703,-5180662.62332 114737.342711,-5180721.63625 114826.352449,-5180814.99079 114970.524411,-5180872.60092 115114.417534,-5180930.69494 115257.291509,-5181043.76563 115236.016822,-5181170.08606 115141.99205,-5181295.58046 115013.599425,-5181346.9814 114921.442351,-5181399.03712 114891.825823,-5181434.29994 114846.344559,-5181488.13196 114843.487066,-5181616.04804 114839.840483,-5181761.42891 114801.476495,-5181851.20813 114780.740928,-5181960.04828 114831.556877,-5182106.66831 114829.078271,-5182215.59408 114754.229359,-5182304.70319 114696.688675,-5182430.86625 114766.900137,-5182541.6156 115003.228466,-5182547.17255 115095.385924,-5182495.11764 115241.366125,-5182480.28829 115404.725644,-5182484.50525 115495.353402,-5182504.40786 115491.355909,-5182668.28097 115379.060894,-5182810.6994 115267.127355,-5182917.61516 115155.722089,-5183024.06184 115132.577051,-5183223.81993 115257.221294,-5183336.30835 115383.135034,-5183393.83538 115525.745913,-5183523.90456 115578.049504,-5183616.07751 115648.230609,-5183727.32668 115810.030021,-5183804.00151 115953.530864,-5183898.10004 116005.234969,-5184008.75031 115983.927749,-5184135.56914 115962.549294,-5184280.39591 116032.160253,-5184409.62401 116028.409692,-5184573.51222 115987.984129,-5184735.71778 116039.367038,-5184864.36146 116110.467215,-5184939.14148 116142.95162,-5185103.68557 116102.145501,-5185284.88133 116078.955293,-5185502.14936 116130.337476,-5185630.79331 116201.437227,-5185705.57373 116383.303854,-5185709.89566 116495.489553,-5185602.99656 116587.15038,-5185550.91373 116659.491149,-5185571.23099 116692.924706,-5185698.80705 116653.358442,-5185825.53986 116487.558031,-5185912.73589 116376.250716,-5186000.67407 116318.136041,-5186144.81484 116351.188965,-5186291.38096 116511.775941,-5186422.0238 116692.093074,-5186481.7924 116964.267226,-5186524.01419 117162.842254,-5186583.86947 117289.676341,-5186604.93 117432.825857,-5186717.52425 117576.07657,-5186811.61202 117681.891867,-5186941.99769 117696.175878,-5187105.46033 117620.051233,-5187249.53025 117525.728443,-5187392.51645 117504.388098,-5187519.83429 117485.653595,-5187632.79727 117483.32662,-5187646.66836 117481.514816,-5187719.11039 117551.372216,-5187848.35615 117676.364691,-5187942.3586 117802.278038,-5187999.89084 117927.519886,-5188093.90846 117998.048701,-5188186.66954 118001.870437,-5188214.9165 118013.294153,-5188296.15248 117841.668126,-5188384.50031 117779.779014,-5188390.32138 117719.414804,-5188416.7474 117679.233438,-5188578.96803 117676.398703,-5188706.38712 117764.335097,-5188817.69706 117926.733276,-5188875.90189 118125.236425,-5188953.76918 118194.522486,-5189100.99456 118044.212496,-5189297.68499 117951.480572,-5189367.71437 117875.704389,-5189493.29114 117872.868794,-5189620.71029 117977.438917,-5189805.56174 118159.307066,-5189809.88937 118341.17545,-5189814.21703 118410.811523,-5189942.95103 118478.503036,-5190163.13289 118545.974618,-5190382.80149 118594.867065,-5190620.37681 118627.315104,-5190785.42298 118603.866226,-5191002.67808 118709.386236,-5191150.56232 118909.131877,-5191173.96931 119055.758615,-5191123.16244 119094.759829,-5191014.40822 119259.644326,-5190963.68804 119347.727127,-5191093.52231 119342.505428,-5191311.36393 119284.383921,-5191455.50474 119279.702691,-5191655.86618 119331.10944,-5191784.01623 119328.081699,-5191910.4244 119307.599383,-5192002.26923 119359.825877,-5192112.45565 119559.352533,-5192135.35077 119652.437977,-5192046.83063 119745.201966,-5191976.30387 119853.808995,-5191996.78424 119813.563286,-5192160.00292 119738.705593,-5192249.10872 119789.760663,-5192395.75145 119877.022185,-5192543.5508 120002.93503,-5192601.0881 119998.603323,-5192782.95824 119978.209427,-5192873.30755 120043.052296,-5192918.70039 120085.82191,-5192948.26782 120192.876425,-5193024.19567 120262.759388,-5193152.94758 120313.462246,-5193318.08324 120346.288311,-5193464.14103 120395.145998,-5193702.21854 120465.67183,-5193794.9838 120591.863547,-5193852.03873 120774.729262,-5193801.89266 120867.816522,-5193713.37306 120978.488451,-5193661.42646 121142.483131,-5193646.6815 121341.660364,-5193688.0716 121504.03014,-5193746.78237 121737.878587,-5193861.28973 121754.862488,-5193916.34054 121774.362496,-5193979.54704 121790.657896,-5194033.55613 121727.487643,-5194824.86069 121451.561792,-5198286.89672 120693.81269,-5207788.96453 120655.769086,-5208267.03287 120651.736208,-5208317.82817 120386.416223,-5211642.8431 120358.594187,-5211991.42829 119495.822551,-5222812.00606 119427.561006,-5223669.02746 119108.92118,-5227661.77738 119061.795789,-5228252.87359 118736.796498,-5232328.78991 118655.953734,-5233340.66197 117946.107449,-5242237.90626 117943.397683,-5242274.76984 117599.505632,-5246579.69283 117538.017729,-5247350.55049 117537.998273,-5247367.5613 117537.125636,-5247924.40106 117537.285519,-5247938.42052 117554.775766,-5252129.93074 117731.027476,-5258775.24387 117776.481249,-5260580.27018 117830.592627,-5262315.77136 117841.822037,-5263290.65139 117881.871567,-5266783.09664 117882.050023,-5266792.6143 117881.945166,-5266840.1427 117884.14649,-5266953.35759 117966.689229,-5270998.28393 118019.495868,-5273468.78364 118264.875486,-5284077.01122 118362.678948,-5289284.89317 118423.155381,-5291913.5735 118446.351013,-5293363.10115 118514.154954,-5297590.51049 118511.493868,-5297771.49328 118475.903484,-5300206.78129 117853.754713,-5300192.7581 110345.265577,-5299972.80635 109944.394186,-5299961.62109 100433.534201,-5299682.7152 92072.9376309,-5299438.57723 85685.0178233,-5299251.41773 83005.7777717,-5299173.1401 80543.3088488,-5299101.43946 80499.1065837,-5299100.27018 79879.6492894,-5299081.86105 79804.0156075,-5299079.2933 76137.649372,-5298972.36616 70616.3899842,-5298810.3648 69678.9015656,-5298782.73165 65290.6085278,-5298654.11496 64790.2715523,-5298639.88513 60709.7487985,-5298519.8245 60699.7515156,-5298519.72046 59782.0560331,-5298492.76536 44670.0448336,-5298049.33034 39602.2644615,-5297900.91161 30778.9813575,-5297641.79884 30726.5773011,-5297640.12909 29672.5911446,-5297609.37594 29566.2593322,-5297606.44407 24657.9057835,-5297462.51919 20841.1202401,-5297350.09431 18943.2557762,-5297294.25809 16270.8060539,-5297216.041 10898.685148,-5297058.41649 10650.9112035,-5297050.91967 10521.6243441,-5297047.59432 9704.93186631,-5297023.1619 9697.18077796,-5297023.19271 -428.546221354,-5296725.6954 -430.28948385,-5296725.58986 -464.073200774,-5297807.83014 -557.738606505,-5300633.61053 -595.606426444,-5301980.5624 -669.995651788,-5304342.11951 -691.877119442,-5305041.16705 -682.834346712,-5306170.01523 -677.694084993,-5306810.71501 -682.207022299,-5306810.94124 -5838.08927309,-5306665.2126 -10638.2589597,-5306527.00565 -10638.4402312,-5306529.99383 -10826.0266171,-5311441.29602 -11012.9319233,-5316296.20698 -11020.9307834,-5316296.22082 -11021.2264854,-5316305.20063 -16385.3115771,-5316178.675 -18465.1561376,-5316129.24311 -19127.0135906,-5316114.00683 -20913.9872857,-5316061.86942 -23337.45267,-5316014.01565 -25755.3786474,-5315966.48264 -28286.8622469,-5315897.0355 -30884.9801467,-5315835.51457 -30969.4840277,-5315823.879 -31000.4534004,-5315819.49695 -31000.0833211,-5315817.52036 -30819.6831883,-5311760.35341 -30763.7803577,-5310729.23164 -30760.4031944,-5310488.54934 -30811.1800565,-5310403.00322 -29963.1221333,-5309293.05745 -30050.8564941,-5309231.75477 -30425.4364602,-5309096.05719 -30915.4904293,-5309084.28505 -31445.5247909,-5309056.09072 -31891.3902209,-5309131.46049 -32266.7675607,-5309264.08467 -32629.9327344,-5309528.88479 -32967.2874884,-5309784.25607 -33391.9773649,-5310062.30571 -33840.5402662,-5310264.43938 -34161.0898775,-5310448.8614 -34464.0457362,-5310532.90234 -34779.6687303,-5310722.61859 -35132.2912214,-5310982.54797 -35556.8147531,-5311463.48961 -36077.9456196,-5311749.65354 -36527.2189443,-5311951.2279 -37140.1181662,-5312230.30774 -37363.5875146,-5312412.62001 -37833.5661153,-5312658.90377 -38302.8071991,-5312880.74263 -38785.2424266,-5312990.83698 -39160.3577744,-5313102.95695 -39764.412245,-5313417.53584 -40181.5920751,-5313584.56208 -40547.5968805,-5313727.71346 -41087.7127939,-5313927.73709 -41575.2466803,-5314052.00056 -42461.6224987,-5314177.49033 -43119.6297634,-5314389.32266 -43450.3089529,-5314366.71115 -43997.8837445,-5314414.35715 -44375.8265243,-5314425.34809 -44754.3165034,-5314461.78979 -44762.4033316,-5314463.29668 -45297.7236586,-5314560.15505 -45790.3339412,-5314669.60343 -46225.0317802,-5314710.11791 -46581.8366292,-5314685.9134 -46968.226797,-5314605.94271 -47382.2008667,-5314626.22969 -48038.0111287,-5314736.73609 -48369.7996354,-5314728.54256 -49120.7541038,-5314756.30627 -49697.7669509,-5314742.18552 -50017.1210343,-5314648.80374 -50247.3524181,-5314642.7904 -50676.6611714,-5314693.61811 -51110.876424,-5314673.19396 -51457.3365375,-5314684.59111 -51814.591873,-5314676.34386 -51935.2083092,-5314675.50015 -51944.4481963,-5314675.43758 -51915.2389438,-5314597.76909 -51808.944732,-5314402.87398 -51653.5552916,-5313984.12001 -51558.0392766,-5313650.16244 -51551.8901774,-5313343.74564 -51653.9141075,-5312905.83452 -51762.456485,-5312570.95743 -52024.1113465,-5312243.75728 -52274.5175687,-5311797.32657 -52553.1992292,-5311446.11146 -52843.7778737,-5311068.69312 -52975.0686889,-5310713.45428 -53150.2873956,-5310505.43962 -53324.6955994,-5310279.98752 -53559.2603584,-5310078.35919 -53876.7380447,-5309946.13734 -54289.2730359,-5309894.0746 -54751.096491,-5309999.39827 -55034.1530644,-5310057.13284 -55273.3937499,-5309994.12156 -55495.0735045,-5309884.71317 -55670.693901,-5309749.12714 -55821.0008418,-5309608.08586 -56053.2922645,-5309385.61729 -56269.3433005,-5309035.73321 -56553.1008125,-5308842.11447 -56676.883588,-5308511.33273 -56601.2414858,-5308175.18778 -56530.5843554,-5307871.71473 -56549.6785992,-5307421.39325 -56633.6656208,-5307044.07054 -56616.6589874,-5306731.34194 -56610.2183665,-5306407.47943 -56526.3504325,-5306083.82529 -56577.8509477,-5305804.9057 -56726.8311384,-5305498.08091 -56943.4105455,-5305280.07923 -57172.5503603,-5305030.33937 -57352.3055927,-5304843.55461 -57537.9712542,-5304692.38368 -57792.2017015,-5304645.96344 -58037.4598882,-5304624.56922 -58271.5175155,-5304603.85538 -58559.3039843,-5304739.75172 -58812.0504118,-5304829.31405 -58997.6523058,-5304730.6072 -59212.6795727,-5304454.25266 -59447.8036184,-5304266.10739 -59742.9774433,-5304141.26155 -59978.7773319,-5303886.13083 -60242.2864296,-5303634.8139 -60538.1354063,-5303389.52759 -60873.1546623,-5302962.51022 -60960.9245822,-5302597.97348 -60919.4943007,-5302207.81147 -60762.6130371,-5301792.18676 -60766.9652225,-5301267.3528 -60743.87794,-5300903.55455 -60443.29834,-5300676.00487 -60281.8912521,-5300481.97051 -60241.3033856,-5300200.16697 -60280.3703169,-5299889.04834 -60352.4570933,-5299586.91702 -60401.1229216,-5299232.25234 -60348.9486681,-5298874.71571 -60189.3853859,-5298575.15358 -60256.227517,-5298371.76135 -60255.6653187,-5298218.42181 -60130.9302847,-5297994.68123 -59987.5818805,-5297760.57896 -59672.720036,-5297556.86581 -59532.710026,-5297147.20273 -59390.8392297,-5296871.5421 -59329.6338387,-5296542.02758 -59253.1264524,-5296194.95618 -59269.0241755,-5295872.25536 -59157.1221357,-5295439.90203 -59061.9606267,-5295089.96454 -58786.6105168,-5294734.46654 -58579.8490932,-5294447.24857 -58513.4080723,-5293977.6634 -58386.0462693,-5293500.28074 -58401.9679309,-5293054.17903 -58365.8998732,-5292797.07731 -58421.3001922,-5292532.43304 -58446.9789618,-5292309.05835 -58343.1570793,-5291972.63171 -58136.910433,-5291648.40683 -57911.5306181,-5291375.29926 -57709.2734872,-5291228.1855 -57466.4406881,-5291087.52643 -57199.3478284,-5290764.98491 -57011.1422642,-5290557.06554 -56787.0902188,-5290338.82713 -56539.836197,-5290248.89123 -56222.206692,-5290180.70417 -55944.9256859,-5290127.0585 -55769.4174618,-5290029.77675 -55657.6655688,-5289809.72686 -55715.1114243,-5289393.07595 -55698.0976553,-5289149.30158 -55484.8941054,-5288887.4336 -55235.9905032,-5288716.65598 -54902.4829378,-5288637.93238 -54534.7765844,-5288596.75115 -54052.6340584,-5288501.54702 -53549.6902339,-5288207.25629 -53036.3577225,-5287943.5678 -52603.3754122,-5287872.35966 -52262.2617672,-5287973.45239 -52049.568176,-5287975.83884 -51784.1678934,-5287982.41574 -51441.2835676,-5288128.58252 -50979.7833523,-5288320.90332 -50532.4598978,-5288388.4591 -50088.5009608,-5288404.34923 -49699.7546575,-5288358.43873 -49429.8152609,-5288215.89923 -49263.0693391,-5288007.65423 -49200.2224073,-5287803.11098 -49266.2810357,-5287445.86941 -49399.2783945,-5287125.54657 -49500.4100978,-5287001.01146 -49634.4417715,-5286883.4785 -49734.0058184,-5286844.47593 -49949.9438841,-5286792.43349 -50211.0702225,-5286715.17255 -50561.048309,-5286603.55522 -50729.5264385,-5286464.95316 -50789.9380879,-5286212.48299 -50695.1489244,-5285975.40223 -50604.436892,-5285785.03916 -50346.0007138,-5285634.30436 -50048.6521167,-5285575.35699 -49779.708642,-5285420.25995 -49402.1258369,-5285393.64627 -49126.2345925,-5285400.34925 -48830.9534573,-5285458.18896 -48492.9903515,-5285405.19415 -48204.4665959,-5285285.75288 -47841.8482945,-5285035.89133 -47645.5848099,-5284843.41377 -47554.4555022,-5284534.65333 -47570.9626292,-5284353.28427 -47531.874759,-5284157.2917 -47586.7367957,-5283978.09926 -47557.2128009,-5283791.52099 -47442.39433,-5283694.04195 -47288.6551224,-5283535.46258 -47226.0155478,-5283449.81587 -47184.2783949,-5283350.41365 -47168.4880121,-5283188.48562 -47043.7817112,-5283088.60565 -47087.5516541,-5282965.54453 -47134.9290078,-5282765.82026 -47067.6833556,-5282665.96199 -47037.9072667,-5282466.90699 -47071.5575056,-5282271.51077 -47144.5740716,-5282070.23663 -47421.797295,-5281668.25032 -47646.8881916,-5281308.89021 -47841.9092709,-5280989.32246 -48129.1359245,-5280533.77717 -48277.1993946,-5280358.94748 -48495.3048865,-5280069.96521 -48716.3164412,-5279866.24531 -48939.9234112,-5279655.87432 -49055.6796516,-5279595.4167 -49320.3840217,-5279535.94784 -49742.6508553,-5279462.95758 -49937.3981347,-5279399.22446 -50136.6389673,-5279343.71346 -50395.7572781,-5279245.6128 -50723.0970913,-5279040.46759 -51052.1408034,-5278975.11297 -51394.9056542,-5278938.40638 -51603.68079,-5278904.3033 -51839.6855973,-5278758.63999 -52274.0131959,-5278699.41271 -52737.6534254,-5278649.90469 -53243.2041038,-5278686.29307 -53524.0473735,-5278745.25635 -53871.1639219,-5278888.14243 -54248.2961105,-5278986.24729 -54656.7347932,-5279077.46247 -55082.0904577,-5279155.1639 -55469.3785584,-5279243.65868 -55815.2543526,-5279167.79334 -56107.7978527,-5279007.22525 -56316.0858435,-5278977.64725 -56476.9482542,-5278911.4692 -56611.5648719,-5278795.42084 -56643.4051929,-5278557.69246 -56688.6975605,-5278054.87186 -56715.9309825,-5277546.64926 -56713.7586526,-5276969.26409 -56735.5314691,-5276668.19964 -56748.8151743,-5276230.76346 -56779.5946217,-5275892.68629 -56865.4849608,-5275664.6844 -57064.9256035,-5275310.92334 -57188.2820451,-5275016.71378 -57284.6949705,-5274710.64426 -57496.002674,-5274499.54853 -57681.0295303,-5274390.95502 -57904.8260581,-5274365.94641 -58174.5606862,-5274328.17151 -58427.9107933,-5274420.27516 -58671.2557733,-5274611.39738 -59009.7303432,-5274723.33537 -59556.6407908,-5274775.22161 -59884.2803026,-5274860.83551 -60101.1283538,-5275018.58442 -60374.5954689,-5275187.39889 -60605.9996753,-5275255.34526 -60543.8803554,-5275136.7068 -60425.3953467,-5274825.14724 -60302.1869141,-5274377.49294 -60321.7064044,-5274175.49144 -60330.1025745,-5274087.06207 -60478.7013456,-5273888.25426 -60619.3434797,-5273508.08949 -60609.1827101,-5273265.41968 -60559.1747928,-5273053.63112 -60410.0843149,-5272789.37811 -60233.9565279,-5272499.28141 -60173.9016857,-5272406.49347 -60066.9703218,-5272240.60334 -59986.8476965,-5272047.11707 -59823.4044389,-5271967.06553 -59571.2583912,-5271985.78715 -59291.2266808,-5272055.64906 -59268.8496885,-5272061.49625 -59021.7976671,-5272023.95932 -58899.6733945,-5271908.44054 -58834.0455895,-5271847.45975 -58724.1567273,-5271653.26971 -58619.7997477,-5271476.23004 -58443.8631963,-5271375.44875 -58265.0208027,-5271412.7228 -58202.6260582,-5271425.98147 -58026.5502847,-5271595.97371 -57683.4499784,-5271568.72918 -57528.9660599,-5271604.0335 -57527.0050844,-5271604.65146 -57460.7179117,-5271619.64399 -57248.2315456,-5271488.59558 -57079.5848805,-5271293.45239 -56910.8234196,-5271137.78176 -56721.325648,-5271093.76831 -56620.4983205,-5271070.37991 -56071.9566089,-5271194.41621 -55872.4368988,-5271327.85838 -55802.8979883,-5271437.96731 -55620.1464452,-5271526.43491 -55475.2889436,-5271597.12808 -55149.257154,-5271554.86214 -54898.8051903,-5271370.14746 -54723.5167033,-5271180.89449 -54566.0010366,-5270913.63162 -54437.7109062,-5270799.47599 -54414.0427621,-5270622.55187 -54423.8725771,-5270520.54235 -54432.9988497,-5270427.56791 -54484.782517,-5270213.61693 -54558.832759,-5269871.92727 -54591.3031767,-5269656.64471 -54588.3035119,-5269532.42899 -54409.8476418,-5269385.82832 -54369.6483584,-5269274.34841 -54428.9910957,-5269148.36902 -54526.448328,-5268946.15143 -54520.6434619,-5268796.12662 -54454.7412612,-5268660.21911 -54436.0363954,-5268635.86882 -54274.3267714,-5268427.3065 -53923.6825487,-5268171.69009 -53291.4172886,-5268063.45375 -52655.3752183,-5267987.91658 -52327.326978,-5268011.70292 -52190.6023874,-5268072.40853 -51979.8488933,-5268144.07495 -51754.4951568,-5268263.58479 -51638.4020513,-5268335.03681 -51370.6040032,-5268359.68569 -51097.695391,-5268316.1972 -50961.7670645,-5268381.85181 -50860.7009017,-5268466.38683 -50675.951206,-5268451.55294 -50397.1585676,-5268322.9861 -50133.0670969,-5268214.51508 -49868.8409964,-5268153.51438 -49780.0012294,-5268150.87972 -49763.4837694,-5268150.37728 -49718.9694239,-5268149.56525 -49514.6485073,-5268149.89982 -49361.968446,-5268207.07275 -49351.9436887,-5268210.67515 -49155.0830832,-5268285.00219 -48748.1353189,-5268392.48714 -48329.7090606,-5268570.61184 -48117.4112713,-5268575.42497 -47937.9979372,-5268392.39521 -47760.9863286,-5268278.16767 -47567.2864645,-5268284.85577 -47307.8190086,-5268493.36232 -46972.1866075,-5268648.50803 -46770.6741103,-5268670.6568 -46718.0061122,-5268584.40059 -46737.7147026,-5268132.54762 -46667.9365866,-5268060.81315 -46355.1065816,-5268043.20946 -46177.4445695,-5268083.90338 -46099.1186196,-5268123.10234 -45997.448887,-5268239.15377 -45836.5532888,-5268280.33568 -45687.3979299,-5268201.39717 -45690.5318949,-5268004.85235 -45650.8392138,-5267860.35432 -45486.9246773,-5267801.79087 -45338.5327935,-5267872.19598 -45197.2199233,-5268006.12767 -45174.9931992,-5268026.95408 -44944.961407,-5268114.77487 -44742.1871442,-5268128.50437 -44732.5576686,-5268250.49731 -44772.8297106,-5268429.43692 -44718.3614717,-5268570.12308 -44493.8323296,-5268587.66401 -44187.6557688,-5268726.04688 -44172.5833857,-5268732.95178 -43952.873018,-5268722.72192 -43732.2459635,-5268618.61408 -43583.6420047,-5268656.55731 -43272.7855875,-5268742.26096 -43047.7690509,-5268710.36618 -42706.7025644,-5268581.0444 -42570.5081042,-5268634.22799 -42280.6768077,-5268749.64209 -42061.1246971,-5268750.39405 -41760.1208022,-5268680.6111 -41618.0124033,-5268519.7995 -41540.6270309,-5268396.55514 -41440.1010326,-5268399.12075 -41393.2226847,-5268524.8638 -41349.1522361,-5268775.85163 -41291.3416372,-5268964.71175 -41154.346279,-5269041.92831 -40884.295127,-5269187.1305 -40626.4007427,-5269393.05852 -40369.5316869,-5269599.42545 -40234.9721078,-5269729.46105 -40124.1087682,-5269792.61132 -39901.2122817,-5269783.57327 -39870.4140249,-5269782.43326 -39713.022154,-5269852.88777 -39611.430949,-5270044.8931 -39389.2260391,-5270204.7019 -39347.9117625,-5270261.15879 -39277.4807603,-5270373.33682 -39188.304057,-5270377.71781 -39075.0373735,-5270343.07884 -38987.4486574,-5270332.37381 -38938.8379361,-5270396.26661 -39005.0044277,-5270544.67448 -39098.549205,-5270678.93848 -39098.904385,-5270817.32609 -39001.1431396,-5270907.16975 -38877.1672067,-5270947.62872 -38829.5572246,-5270937.01029 -38613.4557657,-5270891.58769 -38411.3408597,-5270895.7881 -38144.0607667,-5270950.39032 -38113.9183436,-5270976.69324 -38067.2642094,-5271114.42119 -37935.0074265,-5271257.81437 -37761.6296393,-5271324.24026 -37697.4176691,-5271336.60947 -36347.0243604,-5271626.46337 -35969.7634056,-5271705.19355 -35734.7310208,-5271735.36625 -35609.2400042,-5271725.94927 -35420.0888862,-5271746.35766 -35288.2063631,-5271858.75171 -35264.2179348,-5271945.64684 -35229.9071812,-5272072.64074 -35063.0615263,-5272239.11369 -34818.3485316,-5272386.30105 -34283.4745041,-5272370.60891 -33991.3049285,-5272302.79192 -33863.8287139,-5272405.42797 -33779.6395235,-5272678.84859 -33765.372475,-5272686.70544 -33547.0958545,-5272808.31423 -32843.9265291,-5272860.74564 -32491.0733629,-5272839.06573 -31897.8595626,-5273020.28267 -31344.2578312,-5272922.26813 -30944.1407555,-5272825.48341 -30521.1274175,-5272871.00019 -30381.996865,-5272892.38916 -30010.0508522,-5272889.8492 -29730.779084,-5272837.24089 -29684.8253314,-5272821.02453 -29463.5422716,-5272743.92786 -29328.9085403,-5272641.11321 -29008.9392396,-5272543.48514 -28876.0390855,-5272502.53129 -28849.048686,-5272494.16538 -27933.2933195,-5272357.52573 -27097.8237696,-5272272.00818 -26661.9886914,-5272295.80626 -26292.5605613,-5272331.08942 -26122.4527555,-5272414.81519 -25834.0989085,-5272514.17151 -25479.3689034,-5272615.03457 -25210.9735707,-5272693.19766 -25007.9232166,-5272727.93808 -24903.008779,-5272765.75265 -24606.3412776,-5272793.64819 -24425.8216128,-5272783.55092 -24358.1874726,-5272834.60854 -24326.1900854,-5272925.49512 -24198.8803091,-5273002.14285 -24102.2579805,-5273119.41811 -24042.2641844,-5273350.92608 -24055.1805736,-5273523.56137 -24032.8722353,-5273696.32337 -23950.1159588,-5273906.71686 -23923.8587808,-5274034.73959 -23847.6650759,-5274043.33599 -23674.0715996,-5273994.84117 -23507.4149405,-5273990.90567 -23369.5657776,-5273975.73618 -23208.2225115,-5273873.52709 -23100.6101243,-5273775.57152 -22991.0231072,-5273640.75266 -22868.4767018,-5273498.21959 -22734.3959026,-5273408.85709 -22586.591399,-5273319.82266 -22532.2465069,-5273268.12808 -22372.6582358,-5273232.27932 -22174.6156508,-5273250.72614 -21991.1160923,-5273307.27708 -21874.5004482,-5273416.26586 -21743.3713289,-5273458.66222 -21611.7398245,-5273488.59481 -21413.3822957,-5273493.56727 -21122.9754004,-5273513.58965 -20939.8815494,-5273597.60424 -20784.1191951,-5273720.45134 -20680.6638738,-5273815.65356 -20392.0446816,-5273915.03277 -20312.4053318,-5273903.84578 -20259.5356056,-5273918.03119 -20117.7453477,-5274040.53615 -20065.7856182,-5274094.64878 -19973.8343146,-5274136.18153 -19908.5797463,-5274164.60843 -19803.0845104,-5274180.47044 -19684.0496619,-5274183.15574 -19526.744392,-5274226.63344 -19421.7810578,-5274255.45765 -19330.1726006,-5274310.96385 -19292.8254453,-5274429.16657 -19202.8266999,-5274474.08047 -19073.4626277,-5274504.37754 -18980.6090008,-5274559.95929 -18899.4446444,-5274606.33939 -18895.2548817,-5274615.58832 -18866.1891603,-5274804.76083 -18774.8504607,-5274806.77476 -18767.848838,-5274806.69754 -18724.903258,-5274807.29022 -18627.847122,-5274921.60076 -18604.0312488,-5275027.99275 -18413.4851453,-5275116.95953 -18303.9575901,-5275169.55024 -18212.3903039,-5275118.1011 -18130.9925716,-5275040.54897 -18051.2866292,-5275015.87201 -17958.753749,-5275022.95595 -17844.6238543,-5275102.81301 -17737.8559681,-5275159.73542 -17565.6902165,-5275238.59739 -17257.3596885,-5275529.09285 -17102.6006034,-5275573.41903 -17027.0380833,-5275691.9325 -16932.3931898,-5275784.10933 -16734.0298954,-5275801.58001 -16574.7743864,-5275779.70534 -16257.6155592,-5275787.35309 -16165.2783069,-5275789.42777 -16045.0791233,-5275752.20068 -15913.7534046,-5275795.61282 -15795.8430535,-5275837.71552 -15689.6215087,-5275812.6394 -15530.295321,-5275764.77879 -15448.7105907,-5275700.73042 -15405.7965003,-5275569.37383 -15298.5053618,-5275505.87708 -15154.6687038,-5275549.04446 -15101.9251933,-5275590.21272 -15077.1980921,-5275656.67946 -15025.3214903,-5275670.80612 -14940.4223152,-5275613.95455 -14810.6182444,-5275570.80872 -14737.5632451,-5275490.75088 -14653.0250452,-5275497.85219 -14613.4100424,-5275628.19315 -14542.4030175,-5275594.49346 -14506.0232755,-5275521.71825 -14451.1064206,-5275473.05281 -14392.5364191,-5275459.0944 -14374.2570015,-5275508.17899 -14362.5294277,-5275636.8372 -14301.0148886,-5275690.03068 -14178.9594127,-5275704.8943 -14126.5801797,-5275735.54501 -14125.1772048,-5275824.09566 -14096.4105914,-5275931.29137 -14004.4541233,-5276001.81661 -13947.9488114,-5275997.23013 -13885.3257815,-5275986.51537 -13834.0015753,-5275931.1354 -13849.6701523,-5275822.2309 -13833.1715126,-5275780.74288 -13777.0439032,-5275774.13422 -13716.3363973,-5275857.26793 -13658.3248633,-5275931.24244 -13604.3188263,-5276009.47359 -13592.285942,-5276062.67998 -13526.4646308,-5276077.64857 -13432.7117202,-5276027.32828 -13340.1227501,-5276029.4179 -13302.4517994,-5276109.16246 -13277.7845138,-5276176.62655 -13212.530006,-5276217.55128 -13160.6524099,-5276231.67838 -13028.8247319,-5276275.12197 -12977.3942315,-5276342.20243 -12846.5753208,-5276394.08217 -12743.5716112,-5276463.77593 -12661.8320395,-5276558.67656 -12577.38708,-5276608.75716 -12514.9493257,-5276700.49372 -12473.513387,-5276779.9667 -12411.161359,-5276860.70232 -12358.1506195,-5276909.88546 -12319.2943994,-5276961.71295 -12186.3273516,-5276969.73936 -12120.8879575,-5277024.17127 -11972.7575543,-5277050.10693 -11842.7996103,-5277062.45013 -11693.4061829,-5277067.46957 -11459.989918,-5277026.07918 -11261.4092819,-5277052.56103 -11144.5159782,-5277140.58862 -11085.4916234,-5277280.60371 -11143.290082,-5277629.49108 -11119.5041107,-5277736.39009 -11040.923241,-5277970.55398 -10958.7322783,-5278057.98736 -10900.6779168,-5278151.96089 -10843.1940099,-5278226.40685 -10791.0764398,-5278294.53098 -10780.0495664,-5278372.66999 -10736.1445619,-5278427.80271 -10624.599104,-5278459.52884 -10506.5201332,-5278519.63992 -10436.7700147,-5278581.33161 -10384.3780369,-5278661.4687 -10324.7469849,-5278721.05009 -10252.0462609,-5278750.43121 -10179.1603462,-5278764.32877 -10172.1195413,-5278767.75288 -10015.3959009,-5278808.7051 -9888.56892933,-5278810.86466 -9744.51048138,-5278867.04692 -9611.12748358,-5278996.56016 -9517.09959339,-5279206.66998 -9412.06523199,-5279337.97106 -9202.18208783,-5279409.12543 -9071.66436608,-5279478.4866 -8901.52845262,-5279562.23639 -8771.57815409,-5279657.55527 -8715.64077136,-5279765.89936 -8647.29743805,-5279912.9806 -8577.67653154,-5280001.65789 -8469.76434072,-5280110.14216 -8320.63011566,-5280181.6286 -8212.98798765,-5280191.12822 -8120.80361529,-5280146.21115 -8015.06541615,-5280108.61046 -7824.93290685,-5279977.13699 -7774.44435047,-5279906.70876 -7758.02865955,-5279854.21671 -7742.19526773,-5279761.70195 -7702.19303935,-5279736.62605 -7649.5956717,-5279751.29857 -7569.91467769,-5279739.61523 -7502.29590961,-5279675.21956 -7434.36321833,-5279597.34693 -7352.95367394,-5279519.78811 -7220.29131284,-5279483.31221 -7113.71635983,-5279473.25244 -7015.31186658,-5279470.19698 -6910.00446095,-5279493.55041 -6790.26507507,-5279468.29026 -6703.01802115,-5279443.06752 -6635.76455749,-5279397.14338 -6555.74734461,-5279367.48517 -6377.9507751,-5279303.74269 -6252.62248648,-5279198.34347 -6098.66935649,-5279074.17831 -5972.27898955,-5279058.81602 -5905.79016274,-5279033.83886 -5780.74628558,-5278970.40924 -5684.48357949,-5278837.26173 -5600.39287743,-5278702.87929 -5518.5350089,-5278572.36068 -5423.96167329,-5278508.59028 -5329.32359087,-5278431.32758 -5236.72669647,-5278433.41849 -4985.73562906,-5278453.06901 -4813.70459132,-5278443.45984 -4654.11520537,-5278408.1066 -4573.23746353,-5278343.5086 -4440.07418036,-5278307.05967 -4334.56192329,-5278322.92631 -4280.41962684,-5278258.21369 -4159.38894156,-5278195.03935 -3999.76862973,-5278159.18729 -3840.99439186,-5278149.77667 -3735.41684105,-5278152.15075 -3615.2319172,-5278115.4175 -3520.8417194,-5278038.13778 -3426.44702656,-5277948.36158 -3250.99412335,-5277819.98962 -3169.83229324,-5277742.41074 -3115.44087942,-5277677.71204 -2995.78805984,-5277653.94228 -2889.48378695,-5277631.86609 -2861.71247643,-5277577.55725 -2795.81487769,-5277566.53855 -2700.64295196,-5277476.30826 -2565.78563834,-5277386.97334 -2341.92754759,-5277392.48602 -2224.6965375,-5277487.53826 -1854.92445314,-5277522.85204 -1711.69931728,-5277605.47724 -1620.9549107,-5277700.43121 -1543.34005614,-5277768.59951 -1203.789853,-5277948.55327 -1085.29446492,-5277964.70305 -913.321523144,-5277968.58441 -785.215108058,-5277850.34754 -695.536778223,-5277722.7928 -623.736453427,-5277473.18859 -620.455528571,-5277377.4102 -581.460094175,-5277273.78963 -507.158484535,-5277276.77405 -405.325591096,-5277200.43972 -417.347480455,-5277080.74331 -352.85223354,-5276894.18192 -300.053126525,-5276884.87113 -80.7972183467,-5276904.60054 -4.82077876409,-5276817.70738 41.7783683078,-5276762.03343 122.061412746,-5276723.88829 214.946510973,-5276712.99718 322.254025042,-5276649.48905 416.959512118,-5276558.72665 511.038237518,-5276494.91986 658.251480377,-5276432.81939 778.788096996,-5276369.60897 822.81936407,-5276277.78785 823.398972757,-5276272.32411 847.550470635,-5276199.29877 902.398265809,-5276201.60833 995.120874057,-5276201.70415 1048.20800378,-5276166.91605 1090.90855708,-5276122.00343 1142.43721128,-5276100.6181 1209.46203329,-5276091.66504 1247.27708423,-5276119.44074 1286.76249283,-5276156.81505 1346.70700189,-5276140.93629 1355.57680685,-5276039.49484 1357.76916335,-5275887.16211 1400.09106013,-5275782.24015 1442.88993172,-5275710.83923 1469.65985831,-5275610.97752 1500.57725183,-5275500.36851 1463.77395401,-5275393.6722 1450.33364347,-5275338.87379 1465.44125478,-5275229.31059 1527.07340666,-5275231.02906 1590.12754431,-5275271.32451 1626.49850788,-5275207.03381 1634.40469118,-5275063.54366 1691.08778989,-5274935.99291 1688.39784281,-5274843.85166 1734.98634379,-5274726.18946 1773.94867688,-5274594.07037 1802.13104872,-5274528.78558 1818.87270183,-5274383.82871 1835.08209719,-5274251.83676 1810.94429454,-5274158.90179 1799.22039585,-5274092.20977 1880.66538172,-5274001.64386 1935.93139107,-5273909.99878 1897.50414328,-5273830.19885 1868.76213109,-5273709.99251 1877.05485371,-5273630.51097 1905.6511813,-5273512.76297 1995.00094092,-5273436.17022 2148.69517465,-5273320.46748 2230.73539637,-5273203.44263 2278.46956152,-5273112.34248 2234.58899218,-5273044.21117 2249.88802899,-5272952.15484 2173.99040136,-5272818.10753 2228.97629915,-5272726.94473 2191.07614797,-5272646.67712 2194.02046674,-5272527.38193 2235.49429385,-5272448.90118 2251.32457422,-5272343.87987 2292.76455512,-5272278.39402 2255.14678006,-5272185.14661 2259.56419784,-5271999.95533 2247.77512043,-5271946.75655 2262.6563509,-5271849.17631 2361.38811716,-5271878.12374 2408.90516228,-5271844.49691 2463.5438555,-5271779.80657 2457.09934147,-5271708.43416 2472.27864476,-5271647.3634 2495.2965683,-5271555.77225 2617.30458034,-5271426.65875 2710.81597681,-5271388.80604 2803.9211446,-5271378.42258 2883.64190021,-5271353.73522 3002.10852345,-5271382.87214 3107.62878851,-5271398.7314 3228.16409971,-5271335.51349 3386.94743205,-5271326.08988 3545.66741341,-5271330.15944 3704.41767064,-5271333.7309 3809.97224618,-5271336.59493 3916.96290072,-5271299.05417 3957.2458067,-5271273.48855 3892.57268908,-5271206.10344 3946.96255493,-5271141.39674 4015.1432692,-5271063.5243 4173.95776176,-5271053.60195 4211.83002091,-5271134.36833 4330.33180446,-5271150.50991 4488.7706582,-5271167.55929 4594.60509941,-5271169.93998 4740.12763652,-5271173.21341 4911.23484907,-5271204.02378 4987.98122644,-5271311.62919 5053.22026108,-5271353.05435 5159.99665981,-5271302.5026 5265.83181565,-5271304.88335 5396.40741822,-5271361.24502 5461.01796209,-5271442.12459 5513.05787349,-5271482.75429 5579.77026997,-5271458.28155 5738.55727407,-5271448.85741 5829.97314122,-5271503.85855 6015.15596995,-5271508.52318 6122.49506711,-5271444.50743 6254.51122643,-5271447.96649 6400.3187623,-5271438.25954 6479.7596539,-5271426.55148 6534.39987639,-5271361.85807 6601.04932209,-5271350.87856 6669.01616789,-5271259.99341 6696.66558853,-5271207.6702 6791.55614594,-5271130.40555 6858.0501933,-5271105.41907 6925.32489773,-5271067.48201 6980.34109473,-5270975.81578 7037.04878237,-5270818.76349 7080.24413614,-5270674.39415 7123.19023908,-5270530.00971 7258.7102357,-5270400.7029 7352.50757164,-5270349.86639 7500.10091919,-5270260.77953 7582.67219152,-5270130.78033 7717.06592768,-5270040.89744 7758.75839722,-5269962.9245 7775.80562371,-5269804.48043 7766.67552866,-5269632.461 7756.98052686,-5269486.40294 7786.63208645,-5269355.21369 7868.38868511,-5269251.15984 7963.62399108,-5269147.41811 8046.25724034,-5269003.92379 8141.46239453,-5268900.67977 8262.59573921,-5268810.9957 8344.0398252,-5268720.41977 8399.27338896,-5268629.2643 8479.84081969,-5268578.1284 8556.57661066,-5268511.76416 8560.03644801,-5268499.97471 8601.81760343,-5268461.99906 8603.00629901,-5268409.07989 8671.22041967,-5268318.2062 8685.14073134,-5268265.55415 8740.87210932,-5268174.42817 8835.95397549,-5268044.17996 8876.73577512,-5268018.64168 8891.78131207,-5267926.56409 8814.36798352,-5267871.40912 8882.32962358,-5267793.01759 8923.08437656,-5267755.47965 8937.81459169,-5267689.37855 8899.09736202,-5267622.55728 8940.72223061,-5267570.57419 8993.39248516,-5267571.74742 9047.74908647,-5267520.0313 9102.45071136,-5267441.84044 9130.62962319,-5267376.54935 9080.08644692,-5267269.52252 9096.50541888,-5267138.03427 9086.18256537,-5267018.9328 9154.11363431,-5266941.03867 9208.75191522,-5266876.34137 9289.63083735,-5266811.72481 9224.07547632,-5266783.78034 9100.33778661,-5266767.32885 9094.956924,-5266686.51861 9195.07233707,-5266580.56794 9164.6450006,-5266504.748 9179.37440524,-5266438.64667 9285.74413258,-5266428.05614 9349.92576134,-5266495.41092 9403.68809924,-5266470.15383 9393.05251112,-5266364.53111 9420.69981658,-5266312.20542 9488.31860211,-5266247.78954 9529.50761556,-5266182.28172 9609.72972236,-5266157.61816 9611.79274983,-5266065.25799 9639.97084069,-5265999.96629 9680.9106782,-5265934.44329 9656.76276486,-5265841.50441 9578.81978663,-5265786.81893 9554.98358547,-5265680.40127 9570.58785829,-5265574.85904 9639.36060441,-5265470.51892 9706.97892198,-5265406.10239 9761.61638764,-5265341.40402 9763.39691696,-5265262.02463 9777.81380153,-5265209.40177 9870.17408803,-5265211.46397 9949.77265076,-5265213.75753 10095.3018973,-5265217.02168 10136.4604058,-5265152.01122 10086.1634901,-5265044.99979 10089.3796378,-5264912.71542 10051.7517065,-5264819.46486 9960.57803896,-5264764.48336 9976.71209644,-5264645.97482 10123.7396078,-5264582.83942 10177.5969273,-5264531.09129 10152.8543383,-5264464.61234 10115.1934111,-5264384.35781 10129.3282293,-5264344.71558 10208.9595054,-5264334.01257 10262.7841562,-5264295.26016 10290.9611955,-5264229.96768 10279.5108757,-5264150.29136 10319.731397,-5264138.21526 10359.765409,-5264112.63014 10361.2633547,-5264046.23128 10416.4933278,-5263955.07191 10445.8864047,-5263836.36127 10394.1527649,-5263782.25519 10381.7974588,-5263742.51782 10357.0543203,-5263676.039 10385.0118971,-5263610.23323 10449.3825024,-5263691.09568 10515.2833027,-5263692.56338 10582.8384104,-5263641.63924 10637.7865693,-5263563.46042 10666.9301591,-5263444.73447 10708.0876519,-5263379.72306 10698.0416062,-5263247.63973 10699.5389737,-5263181.24071 10662.688847,-5263075.03949 10651.8604517,-5262968.40504 10706.8404742,-5262877.22994 10695.7004571,-5262784.07454 10737.1065698,-5262719.07788 10818.2026498,-5262654.97039 10754.9542816,-5262534.68249 10769.0884187,-5262495.03984 10822.6011661,-5262469.76537 10903.7294504,-5262392.66169 10892.5266719,-5262313.00027 10855.1451857,-5262219.76523 10816.9818667,-5262151.97904 10806.06026,-5262059.3368 10821.6308251,-5261954.29128 10877.1703085,-5261849.65152 10970.6542433,-5261812.28462 11026.1936372,-5261707.64464 11027.6277926,-5261654.73956 11081.4838848,-5261602.98956 11135.8380883,-5261551.26949 11151.1268843,-5261459.20459 11192.8434756,-5261380.7281 11272.7862028,-5261356.54353 11300.742411,-5261290.73669 11309.5008738,-5261282.26519 11312.6993944,-5261278.95823 11355.0965426,-5261239.01634 11382.1812421,-5261200.15267 11409.5149901,-5261161.30397 11450.9502173,-5261095.80818 11439.4673175,-5261016.62973 11387.4506166,-5260975.50577 11362.6733329,-5260922.02318 11389.7579058,-5260883.15943 11365.0426652,-5260816.18277 11338.5825679,-5260815.59045 11273.928122,-5260747.7104 11221.0721978,-5260720.53387 11196.2306376,-5260693.04335 11211.5486304,-5260600.48024 11250.9596933,-5260601.85177 11278.2610844,-5260575.99895 11305.2834454,-5260550.62924 11319.4168428,-5260510.98619 11314.7695761,-5260480.2115 11335.2648566,-5260405.45696 11311.7337195,-5260285.56033 11346.944968,-5260140.70268 11441.4122984,-5260057.90061 11570.4295058,-5259974.17753 11645.9870394,-5259898.23618 11618.6979129,-5259849.10198 11573.920023,-5259828.91084 11615.6674176,-5259737.4375 11684.1239516,-5259646.57108 11659.5350542,-5259594.09996 11484.4741814,-5259475.08584 11403.0278258,-5259308.21247 11335.7012442,-5259056.20286 11183.97129,-5258944.09258 11196.1755107,-5258811.84872 11091.9124281,-5258725.09042 11056.3947694,-5258604.97369 10998.8569544,-5258439.53994 10962.1255399,-5258306.35265 10898.8405083,-5258199.0637 10876.4902647,-5258026.24851 10922.9065873,-5257736.58988 10954.5967196,-5257525.53198 11050.7253163,-5257369.34061 11094.4618859,-5257211.49801 11113.2016639,-5256987.1631 11136.9200734,-5256551.16353 11220.408448,-5256368.21554 11227.89122,-5256360.16691 11342.4341941,-5256238.57587 11372.9091164,-5256080.93507 11415.8036258,-5255949.53665 11537.8290041,-5255819.89626 11637.0978646,-5255544.91137 11694.4335724,-5255360.38966 11659.0674251,-5255187.7919 11636.9923643,-5255001.99566 11572.895138,-5254908.15755 11496.0659876,-5254814.05411 11367.6209282,-5254638.86133 11331.4126322,-5254505.20724 11362.2264622,-5254321.09126 11403.408003,-5254255.57825 11401.7815603,-5254186.99219 11397.1427927,-5253964.75132 11321.8042951,-5253804.2499 11273.5771803,-5253604.38528 11119.5699928,-5253401.16297 10990.9411529,-5253253.95689 10771.0249904,-5253032.77724 10625.1071087,-5252828.04331 10647.3263952,-5252578.92373 10597.7148342,-5252464.46262 10618.186506,-5252252.73136 10613.6912453,-5252052.99743 10584.3092389,-5251976.24557 10520.8269359,-5251892.94562 10522.8461001,-5251813.58147 10644.5549214,-5251697.41683 10679.3037571,-5251572.52774 10690.3023846,-5251447.71136 10626.5436477,-5251327.40187 10537.3811939,-5251205.5663 10418.3126178,-5251202.91188 10339.2435419,-5251187.66339 10302.4116076,-5251080.96996 10264.7716029,-5250987.72557 10213.9007707,-5250906.68395 10191.5088011,-5250734.37075 10126.5093892,-5250680.4753 10035.6691583,-5250611.5301 10010.917986,-5250545.05551 10038.5877757,-5250479.73042 10119.9537564,-5250415.13141 10253.9907974,-5250339.19905 10281.9394804,-5250273.3906 10243.1195443,-5250233.06579 9991.44292673,-5250253.44074 9954.17726759,-5250212.2096 9954.69028779,-5250141.25394 9954.39194349,-5250133.73745 10022.2787934,-5250068.82849 10063.4271045,-5250003.81303 10040.444168,-5249857.95995 10082.7107025,-5249753.51908 10123.5790406,-5249701.4842 10217.6762307,-5249637.14938 10206.1541886,-5249570.96969 10087.3958002,-5249554.83831 10035.7162165,-5249487.24653 9972.67223396,-5249379.97972 9975.86824784,-5249247.69706 9951.45654145,-5249154.74844 9900.5546027,-5249074.20619 9782.10616153,-5249044.59662 9718.50325588,-5248950.79419 9601.51326731,-5248855.2853 9563.56133235,-5248788.01876 9526.78784993,-5248667.83347 9595.26332733,-5248563.967 9544.45222462,-5248456.93603 9574.29505993,-5248338.7518 9628.67177452,-5248274.0306 9696.30810044,-5248209.10578 9802.89369096,-5248199.00956 9897.28866796,-5248129.6926 9906.72772866,-5248030.77871 9928.75057202,-5247897.12733 10008.1290756,-5247898.89442 10048.6265176,-5247873.8315 10050.7030016,-5247780.97412 9998.65250661,-5247740.35592 9919.83251817,-5247725.12512 9813.68518006,-5247736.24796 9705.58170678,-5247825.73791 9665.61301333,-5247837.83505 9574.71169677,-5247769.889 9510.88869163,-5247675.57457 9460.91474656,-5247542.09979 9358.5200793,-5247407.47723 9320.87727196,-5247314.23528 9319.02826837,-5247220.14312 9260.69541984,-5247092.6657 9182.29613412,-5247032.96969 9127.21200344,-5247126.14288 9068.96539303,-5247084.65342 9078.50442002,-5246950.7535 9133.12901704,-5246886.04692 9135.48407684,-5246780.20984 9063.61848524,-5246757.39898 8922.07564443,-5246804.38973 8843.46668194,-5246760.67825 8847.9345567,-5246627.97389 8864.32679573,-5246496.48531 8814.63069455,-5246362.52889 8687.20239452,-5246174.41647 8547.76416505,-5246165.54583 8390.7451079,-5246095.63245 8313.92016341,-5246030.53338 8299.64199895,-5245781.22902 8235.81848233,-5245674.41976 8317.51921054,-5245583.34444 8319.81285445,-5245491.00179 8360.95752801,-5245425.98585 8467.38220095,-5245401.88042 8491.01264767,-5245378.804 8500.59733125,-5245327.39029 8498.17909718,-5245217.76827 8447.89325811,-5245110.27212 8436.11957671,-5245044.07934 8503.41372389,-5245005.62739 8557.19940148,-5244967.3644 8571.60551871,-5244914.74034 8439.31010139,-5244911.79895 8481.01256045,-5244833.31909 8442.7796283,-5244766.53809 8378.36656349,-5244698.68577 8354.50940855,-5244592.27633 8409.44110985,-5244514.09051 8502.91514735,-5244476.70955 8608.7815958,-5244466.06676 8729.55211775,-5244402.82964 8772.73966718,-5244245.45509 8749.49989173,-5244112.08815 8763.90558182,-5244059.4639 8779.42740297,-5243967.41493 8741.16379321,-5243913.62957 8690.25861173,-5243833.09112 8776.52048444,-5243749.28634 8778.64295877,-5243676.42907 8741.35570321,-5243589.70939 8755.27324711,-5243491.06552 8783.90438336,-5243438.79493 8819.50885993,-5243399.44011 8834.19317447,-5243333.83523 8821.62140184,-5243247.59888 8830.21880404,-5243187.6275 8852.00585346,-5243149.44309 8931.97115352,-5243124.74737 9011.65754859,-5243113.03215 9170.66189928,-5243104.07652 9245.65631737,-5243108.07641 9289.68872414,-5243065.7277 9318.26997151,-5242968.46302 9288.10475341,-5242842.17882 9271.24876025,-5242735.6893 9331.08074343,-5242650.79736 9346.1032828,-5242571.21528 9303.05702312,-5242534.6397 9277.1454965,-5242491.59371 9313.88539116,-5242445.80786 9501.8295857,-5242371.10122 9504.22008936,-5242306.25797 9486.21814697,-5242239.69142 9462.46797896,-5242164.7817 9511.66039691,-5242119.74272 9588.79678278,-5242108.87343 9590.57003248,-5242108.47991 9660.68196729,-5241964.71623 9676.75970393,-5241859.20246 9652.92898778,-5241739.79699 9655.55764543,-5241633.47646 9670.48995293,-5241567.88579 9685.76054678,-5241475.82082 9661.3123533,-5241395.87036 9676.08468516,-5241303.77551 9675.08701026,-5241216.23358 9599.90123035,-5241111.2444 9602.7785301,-5241017.43632 9655.99498916,-5240963.63999 9700.79233654,-5240854.34991 9729.29196311,-5240762.57844 9718.07288649,-5240682.92173 9759.46394137,-5240617.91808 9799.18257398,-5240605.80325 9903.28849855,-5240687.03193 10008.5386887,-5240703.34255 10035.5852872,-5240677.4703 10011.4448946,-5240584.04103 10012.9276691,-5240517.64342 10055.1844423,-5240413.19942 10109.556112,-5240348.47405 10190.0790887,-5240310.31198 10243.5552313,-5240285.52475 10324.3864069,-5240221.38624 10403.1778904,-5240249.60691 10469.3861233,-5240237.58078 10515.6988563,-5240186.36897 10580.3408871,-5240096.26424 10591.3770363,-5240028.93951 10596.245004,-5239910.25494 10679.0302184,-5239892.72395 10739.3702579,-5239861.84926 10748.9914552,-5239788.94065 10710.9534288,-5239714.67372 10720.2451202,-5239622.2492 10776.6090382,-5239557.64248 10910.6383279,-5239494.19361 10978.2396421,-5239429.76065 11033.1685168,-5239351.57023 11126.3637804,-5239314.66678 11164.87971,-5239368.4664 11217.7991423,-5239369.64004 11272.7873632,-5239277.95555 11326.8211578,-5239239.70351 11379.740671,-5239240.87708 11445.8896333,-5239229.84639 11514.0484771,-5239151.94889 11528.979382,-5239086.35676 11569.5641326,-5239047.2981 11638.0306941,-5238943.42374 11643.9579597,-5238936.28055 11646.906659,-5238932.95802 11649.6063009,-5238929.62054 11692.4320404,-5238878.1985 11710.266737,-5238693.30281 11701.9196231,-5238494.83961 11664.5761817,-5238388.12041 11706.5529913,-5238296.65481 11722.9645855,-5238164.6638 11740.5489423,-5237979.75306 11760.4194921,-5237702.4968 11750.458713,-5237543.42961 11713.8614593,-5237436.75555 11717.5572831,-5237433.47775 11668.1672169,-5237131.57389 11619.8492299,-5236945.21262 11558.3599854,-5236745.06458 11523.8573517,-5236532.537 11527.9009157,-5236360.81242 11534.2591376,-5236096.24449 11563.8977756,-5235964.54647 11616.5920648,-5235877.72174 11710.8183459,-5235781.88809 11726.5289815,-5235644.85599 11688.9755139,-5235566.62006 11670.9519819,-5235542.04448 11646.1535294,-5235509.56435 11653.7120399,-5235471.0248 11709.2379282,-5235420.36257 11790.5734732,-5235335.2538 11785.5613229,-5235189.48124 11826.9569185,-5235090.98105 11922.0183512,-5234981.19925 12028.1619684,-5234799.0951 12203.6065006,-5234657.63607 12256.3545277,-5234628.30269 12364.4606095,-5234567.79258 12471.1053821,-5234544.18793 12569.2760945,-5234566.06702 12647.6528065,-5234601.25749 12722.4448872,-5234537.75121 12738.2960549,-5234431.7205 12819.9885878,-5234328.13486 12913.1546378,-5234304.22216 12981.4266395,-5234186.83453 13063.6183218,-5234095.77612 13131.8028677,-5234004.8782 13133.0690875,-5233904.47209 13193.8561913,-5233866.12134 13274.314496,-5233887.43862 13339.6729836,-5233943.84492 13425.001342,-5233946.4574 13473.48136,-5233867.37628 13462.2564439,-5233787.71773 13324.2096334,-5233705.46069 13267.1400778,-5233652.5506 13272.6514982,-5233568.89575 13328.8337362,-5233507.273 13437.5059893,-5233424.79886 13478.1246326,-5233339.24766 13440.659482,-5233272.01484 13404.1741406,-5233138.35257 13379.3361052,-5233018.8857 13370.8336544,-5232872.9023 13413.6986883,-5232741.49372 13482.7449255,-5232611.15332 13501.4311392,-5232386.81253 13518.1712434,-5232228.34345 13508.0864722,-5232108.76056 13496.611145,-5232029.08731 13514.9887453,-5231818.22562 13557.2960799,-5231700.28076 13587.7634001,-5231542.13375 13536.3197449,-5231474.56442 13471.2804104,-5231433.67607 13362.3692156,-5231328.17162 13344.2404642,-5231180.11242 13361.4782931,-5231034.17112 13343.1446893,-5231010.57732 13297.6096938,-5230952.86054 13232.3212568,-5230911.95769 13154.0518235,-5230870.7775 13116.394326,-5230790.03688 13131.6555815,-5230697.96768 13107.7827714,-5230591.55739 13068.9544632,-5230551.2394 13031.5458148,-5230470.51388 13020.6538032,-5230364.38109 13062.3748054,-5230272.8964 13011.4543628,-5230250.85105 12931.3760104,-5230244.05677 12917.4908776,-5230183.73641 12973.2145931,-5230138.08184 12988.4752485,-5230046.0127 12909.9566197,-5230004.81835 12872.51779,-5229924.59129 12861.3479724,-5229831.43972 12863.6273552,-5229739.09338 12944.176323,-5229687.92618 12984.45082,-5229662.34255 12973.2227528,-5229582.68495 12914.9132585,-5229508.70716 12928.4823883,-5229436.53305 12951.553938,-5229426.9163 12997.0724759,-5229430.64116 13075.898432,-5229458.35596 13148.8016335,-5229447.22329 13158.3017834,-5229342.81128 13124.9279769,-5229269.82638 13115.1187339,-5229149.76113 13130.5415376,-5229084.19663 13146.0801493,-5228991.644 13128.2671881,-5228917.59111 13050.3040583,-5228862.93336 13044.8265561,-5228804.11629 13072.4548817,-5228751.78011 13062.0872891,-5228632.68142 13091.4395879,-5228513.96067 13041.3815134,-5228393.986 13068.2097592,-5228321.60554 13136.6050247,-5228277.20834 13098.6386592,-5228209.94787 13102.140809,-5228109.67608 13180.6319242,-5228092.87803 13220.2643774,-5228107.24797 13272.9356844,-5228108.4009 13288.7504782,-5228002.86699 13277.2720368,-5227923.19447 13318.6561544,-5227858.18375 13359.2073392,-5227819.61828 13400.0373999,-5227780.56956 13414.4351756,-5227727.94103 13364.0692296,-5227621.44555 13366.9602185,-5227502.14044 13452.4099342,-5227385.77655 13507.3056656,-5227274.58268 13490.4857312,-5227188.09164 13413.6542186,-5227114.5063 13368.6622766,-5227039.3271 13383.7778276,-5226928.75209 13367.7114563,-5226821.31019 13275.7512461,-5226712.32627 13295.3535588,-5226627.01522 13257.3840653,-5226547.25748 13232.9234829,-5226467.30832 13275.196778,-5226362.35772 13277.5008207,-5226257.01509 13226.3328226,-5226188.96546 13227.4996715,-5226136.04511 13201.8997135,-5226096.0205 13178.2989697,-5225976.63031 13219.6818068,-5225911.6189 13260.9305758,-5225819.60443 13315.7350058,-5225768.39353 13395.6989578,-5225743.68328 13402.7302023,-5225730.60645 13403.3475394,-5225728.64376 13407.9988436,-5225721.92333 13478.5219572,-5225600.16587 13546.7289262,-5225508.76411 13561.9280593,-5225430.18797 13629.5517121,-5225365.2463 13709.7925077,-5225327.55458 13750.1512492,-5225275.47897 13817.9665585,-5225224.04611 13835.6924845,-5225182.61423 13874.0223328,-5225093.42379 13916.3794639,-5224961.98185 13920.5678639,-5224816.75856 13896.7164059,-5224697.35298 13859.3304847,-5224603.63305 13889.8145202,-5224432.48779 13944.4268301,-5224367.76681 13999.6793774,-5224263.09124 14067.5218322,-5224198.66157 14149.7900906,-5224081.10431 14191.5059067,-5223989.61623 14194.9457539,-5223844.34785 14263.6473889,-5223740.47618 14292.6880713,-5223635.23208 14346.0273385,-5223583.43202 14350.9228604,-5223551.73047 14362.6122494,-5223464.94505 14404.3002041,-5223386.45261 14419.8040786,-5223294.39624 14422.0776298,-5223202.0485 14503.5406736,-5223097.93959 14570.8000869,-5223059.96937 14676.9484455,-5223048.82057 14743.9588858,-5223010.83536 14720.0778147,-5222904.42539 14788.5024485,-5222813.53381 14869.0493452,-5222762.36032 14936.059801,-5222724.37485 14977.1648837,-5222672.34232 15044.7281083,-5222608.39424 15045.3106234,-5222581.9336 15072.9362825,-5222529.59481 15140.7783341,-5222465.16334 15233.1416528,-5222467.18714 15286.8946003,-5222441.90629 15321.5252853,-5222297.50177 15305.4163763,-5222153.06267 15294.9813692,-5222034.9585 15336.66295,-5221977.46093 15378.9484297,-5221901.50252 15407.4052206,-5221822.71753 15435.5559163,-5221757.41195 15400.7114352,-5221683.84053 15384.9635915,-5221650.40441 15401.215877,-5221570.88966 15456.2417915,-5221440.702 15591.7057396,-5221311.32407 15687.5055918,-5221168.07634 15875.5554702,-5221053.83965 16087.8517931,-5221019.03946 16311.908838,-5221050.93169 16384.3203788,-5221110.75199 16558.0063569,-5221094.64006 16642.8988253,-5221096.21592 16704.2597822,-5221006.39897 16700.8270818,-5220888.21213 16665.0447366,-5220675.60584 16615.0056562,-5220555.13288 16643.4887823,-5220463.35025 16698.4058855,-5220385.14588 16765.6656984,-5220347.1731 16847.0411103,-5220257.05228 16822.3555271,-5220176.5889 16798.1652356,-5220083.65711 16721.0526954,-5219989.56166 16723.0770844,-5219909.69516 16790.141573,-5219845.71445 16858.261901,-5219780.79693 16872.9320635,-5219715.1841 16793.6352215,-5219699.44609 16688.5650257,-5219684.16727 16685.2807652,-5219655.47543 16677.6048619,-5219591.52659 16693.441214,-5219485.48992 16683.3385378,-5219353.40673 16684.8076428,-5219287.00498 16700.3082005,-5219194.94601 16676.1170644,-5219102.01456 16703.7485733,-5218995.18303 16798.3491066,-5218972.34128 16787.0826243,-5218893.18021 16736.5164692,-5218785.67456 16699.4000679,-5218678.97281 16729.5694811,-5218521.30084 16732.3905128,-5218402.98804 16662.1065677,-5218290.80497 16675.1575313,-5218043.12409 16704.4955775,-5217911.89818 16748.781189,-5217714.57591 16825.2231241,-5217585.66445 16830.2421785,-5217576.96575 17007.0287239,-5217408.55676 17128.062208,-5217353.29811 17172.3469418,-5217155.9748 17123.1603331,-5216996.06024 17033.7304334,-5216861.23726 16932.7268467,-5216660.73323 16860.4813786,-5216367.96239 16894.4114456,-5216051.0394 16924.3014087,-5215906.34788 16994.5485857,-5215755.56831 16959.1173569,-5215628.97135 16852.7402403,-5215535.13095 16818.9102303,-5215436.12555 16818.6376534,-5215348.62309 16913.8497644,-5215231.82936 16913.9764447,-5215221.33858 16917.3071913,-5215086.05882 16973.3815769,-5214954.92907 17002.6894955,-5214836.6983 16926.0038379,-5214718.6361 16920.0912491,-5214629.29699 16903.9776924,-5214543.34804 16838.9857604,-5214488.97457 16828.3260559,-5214382.85466 16830.8968132,-5214277.02499 16874.0446209,-5214132.12507 16823.387786,-5214038.61429 16765.7084732,-5213949.68345 16782.1828892,-5213795.19199 16793.6291054,-5213791.87614 16789.5214152,-5213781.13252 16817.8943027,-5213707.83871 16874.4912192,-5213563.74171 16959.5783109,-5213478.33676 17079.9993918,-5213483.52765 17154.3757792,-5213464.47248 17184.2063508,-5213333.2744 17188.5462012,-5213147.56246 17176.0235279,-5212875.85696 17199.9241573,-5212672.31588 17285.6355243,-5212408.9748 17381.1198812,-5212279.19626 17478.317773,-5212083.02998 17536.6522546,-5211859.54714 17593.5220435,-5211702.46651 17655.0291897,-5211333.69474 17621.8807019,-5211068.25618 17556.8455905,-5210754.92168 17543.0118152,-5210484.13738 17601.0680909,-5210273.63507 17566.0367483,-5210048.07861 17624.0110198,-5209864.0671 17588.0950543,-5209678.45185 17649.4884123,-5209349.16637 17744.9437203,-5209232.38102 17839.5451822,-5209155.03854 17907.7108226,-5209064.1203 18001.5650857,-5208986.73296 18135.1947732,-5208950.71303 18294.2684077,-5208940.7076 18438.3701312,-5208997.29896 18515.1894741,-5209104.86782 18594.5446211,-5209107.10331 18728.5901933,-5209030.61388 18803.5653598,-5208892.60783 18885.7926691,-5208842.52194 18967.411255,-5208819.39587 19039.733818,-5208734.22367 19134.7028926,-5208621.40661 19175.0976163,-5208606.31921 19258.9652193,-5208574.82824 19331.1981223,-5208579.13803 19380.5455107,-5208581.58243 19458.4888961,-5208590.73233 19575.5032266,-5208468.73141 19698.0002241,-5208326.06014 19772.7006087,-5208201.03418 19885.8567122,-5208189.78765 20015.8543577,-5208101.55607 20086.2990878,-5207825.79524 20188.1163224,-5207635.89477 20246.6458852,-5207538.89936 20418.5486385,-5207452.16663 20526.5034471,-5207264.13115 20545.5416583,-5207116.78552 20629.0115673,-5206999.77989 20789.9007151,-5206871.39406 20876.3324406,-5206734.06715 20998.2021268,-5206622.85086 21134.5381582,-5206595.98711 21237.2399154,-5206487.62661 21312.8926266,-5206325.65875 21421.6178597,-5206233.65518 21584.9590677,-5206135.40997 21727.7283919,-5206126.4271 21960.3787038,-5206152.80155 22143.4668414,-5206079.73077 22401.6715199,-5206071.63322 22573.576699,-5205984.89638 22707.8698623,-5205895.91606 22833.4491539,-5205873.40882 22940.4104753,-5205915.78431 23095.0650217,-5205871.01354 23224.8841447,-5205806.76327 23442.8989423,-5205797.76783 23602.1448849,-5205801.76577 23789.0058739,-5205795.41183 23900.8342979,-5205710.08995 24088.806526,-5205689.30343 24316.4125146,-5205582.38854 24475.0106553,-5205609.84543 24521.6133333,-5205675.1192 24709.2367037,-5205706.30715 24856.6286407,-5205712.09777 25004.5766369,-5205628.92904 25209.4549597,-5205597.15134 25371.0369451,-5205578.7901 25489.8748899,-5205669.37077 25612.965803,-5205755.70564 25807.3398075,-5205740.80016 25926.3958323,-5205743.90096 26080.1853437,-5205831.06723 26198.4829852,-5205830.12319 26344.6868566,-5205767.848 26395.751965,-5205716.39741 26587.9453064,-5205645.86548 26877.027781,-5205719.60245 27128.1296383,-5205738.57796 27551.8509996,-5205721.85144 27739.0575473,-5205659.5208 27832.1910526,-5205665.57524 27966.9377638,-5205711.60939 27988.4722924,-5205719.39335 28212.5595186,-5205751.25704 28344.8799882,-5205754.149 28451.6144477,-5205704.01766 28623.0530869,-5205734.24135 28781.3653141,-5205724.68414 28914.7838392,-5205675.64402 29007.6073923,-5205703.679 29075.224431,-5205626.21546 29260.7489649,-5205617.28102 29378.7070199,-5205659.8145 29601.0916529,-5205770.57362 29797.5608752,-5205854.7885 30007.5667259,-5205925.81157 30258.3900791,-5205953.77099 30432.1453645,-5205878.13719 30593.7476638,-5205754.7798 30754.0174355,-5205666.3415 30942.6057598,-5205551.59266 31091.2732185,-5205422.96288 31173.5592959,-5205292.37389 31283.4025707,-5205152.42838 31369.4478159,-5205084.56159 31523.8790999,-5204968.2741 31635.9597401,-5204761.46272 31745.7868112,-5204605.01546 31802.0737527,-5204495.37427 31943.0968932,-5204469.78418 32105.9505221,-5204467.99536 32172.1222226,-5204439.94174 32201.770296,-5204290.71223 32259.1631669,-5204154.1368 32355.2045135,-5204010.86582 32437.4534482,-5203889.27188 32619.5754772,-5203799.13224 32654.5125421,-5203779.21561 32796.4617143,-5203696.18025 32949.1330985,-5203508.78504 33065.774953,-5203351.24093 33178.6268643,-5203315.96952 33262.8171063,-5203111.49049 33425.6472135,-5202938.1992 33527.77313,-5202734.78865 33638.5056382,-5202525.39081 33767.6910185,-5202442.59217 33843.3090616,-5202310.60022 33953.4648179,-5202182.16686 34067.7513248,-5202093.47947 34167.4763166,-5201791.92376 34264.671364,-5201595.71687 34442.1441027,-5201361.29426 34501.840722,-5201085.3513 34497.808057,-5200918.11035 34499.6112568,-5200917.21781 34456.3352456,-5200766.63817 34349.4005963,-5200576.76482 34292.4771123,-5200411.8722 34232.6406522,-5200165.80609 34118.8421658,-5199982.02472 34014.4747827,-5199883.30562 33945.4649867,-5199770.19362 33927.5662928,-5199642.62731 33891.8524658,-5199469.99963 33936.0578028,-5199286.13391 33992.6993656,-5199128.50898 34008.2343274,-5199010.43471 33957.5370625,-5198942.41426 33831.246343,-5198628.39075 33797.715723,-5198414.89376 33749.6459449,-5198223.03069 33733.1773768,-5197786.05123 33703.1469556,-5197375.26399 33700.0545568,-5196978.08141 33769.213744,-5196652.20176 33858.3807247,-5196439.51299 33836.4169317,-5196254.20542 33783.0104676,-5196080.52537 33781.1244816,-5196074.41307 33762.4543772,-5196014.30142 33725.3313119,-5195756.09163 33718.4687982,-5195518.68389 33537.1956105,-5195514.88943 33523.4646037,-5195514.57177 33498.6420894,-5195511.59365 33396.1795559,-5195468.9925 33342.9905103,-5195337.82618 33327.8740041,-5195226.42688 33200.2160131,-5195149.3261 33076.5889275,-5194886.96733 32968.3743631,-5194773.02522 32970.1256038,-5194680.63049 32843.4171485,-5194566.58759 32808.7085818,-5194473.52221 32773.8101545,-5194379.4456 32745.7970684,-5194350.27814 32683.4304345,-5194285.06588 32640.7863973,-5194119.52928 32640.1577031,-5194117.49188 32652.4007958,-5194025.22204 32655.4804619,-5193876.90742 32678.8215531,-5193673.79973 32812.703413,-5193528.77163 32852.9597586,-5193381.66982 32967.5291171,-5193254.49132 33010.0628789,-5193014.52573 33069.3818359,-5192849.5583 33146.1150402,-5192740.62672 33225.1551749,-5192538.33307 33263.4119636,-5192483.61057 33303.2165424,-5192373.48058 33269.2352421,-5192242.95908 33365.7604353,-5192078.7052 33313.6346647,-5191929.60398 33355.1164923,-5191745.07407 33489.5477523,-5191544.57567 33659.3601195,-5191400.68205 33736.4008137,-5191290.76713 33795.8260284,-5191224.80366 33850.4409936,-5191164.05386 33933.9467329,-5191050.5233 33984.4926384,-5190982.53121 34136.1195314,-5190837.55392 34230.3973899,-5190765.66383 34327.6205262,-5190564.44861 34406.6577334,-5190362.15094 34484.6872407,-5190197.79315 34504.8284326,-5190123.99126 34526.166764,-5190013.26041 34602.928043,-5189903.82699 34731.8892716,-5189925.49984 34804.4794116,-5189982.81908 34896.7609223,-5190003.30972 34934.6380366,-5189967.56303 35011.1504713,-5189858.11436 35088.4808916,-5189730.71403 35147.1568221,-5189601.70368 35298.0256901,-5189494.67823 35446.1809099,-5189479.49219 35561.4180491,-5189315.84571 35692.6552854,-5189244.6521 35752.8476434,-5189060.73012 35814.7565521,-5188784.90858 35928.8260128,-5188657.69196 35934.0430712,-5188435.49847 35975.769526,-5188250.97722 35923.9865523,-5188083.39422 35852.3420388,-5187989.13126 35744.8154408,-5187838.23334 35750.030793,-5187616.04005 35696.950598,-5187503.88137 35648.9602614,-5187407.02574 35617.6872803,-5187361.16516 35593.2417356,-5187204.70906 35727.3893853,-5187004.68392 35786.9800135,-5186839.22508 35937.9768553,-5186713.20238 36145.2449646,-5186570.02522 36407.3690889,-5186446.10995 36505.7827885,-5186207.95663 36510.6461707,-5186004.24112 36570.5550272,-5185820.799 36556.0061621,-5185653.42999 36412.2136331,-5185464.87623 36472.7193655,-5185262.96902 36587.4132077,-5185116.78451 36593.8886191,-5184839.6628 36727.0470102,-5184694.07538 36731.5294259,-5184509.33714 36827.8274778,-5184344.55742 36830.1694693,-5184254.69426 36832.6578402,-5184141.33917 36807.0277631,-5184067.81368 36780.7687328,-5183992.25079 36802.8281251,-5183844.05815 36785.6576652,-5183788.03605 36805.7655537,-5183714.72933 36828.7409236,-5183530.09005 36980.960551,-5183366.63309 36966.7266404,-5183181.28187 37008.1958095,-5182996.74133 37102.8200234,-5182906.36249 37381.7067023,-5182857.93586 37510.6037092,-5182897.5978 37640.1678799,-5182900.79823 37788.1973536,-5182904.59614 37897.6542148,-5182981.10426 38004.2439287,-5183168.94632 38169.4743978,-5183228.26914 38337.8911807,-5183158.27627 38433.8109796,-5183012.47121 38529.2831516,-5182903.64086 38643.5181761,-5182739.92304 38721.7494498,-5182593.06591 38871.203196,-5182522.44473 38968.3175136,-5182339.70764 39099.0782528,-5182305.97686 39212.4184637,-5182216.20799 39363.445263,-5182089.67665 39402.9932759,-5181979.52122 39313.8906338,-5181829.71882 39355.0107031,-5181663.65392 39411.3820763,-5181628.00179 39504.9631442,-5181593.0607 39585.447285,-5181500.83831 39591.0640016,-5181494.67173 39599.9367986,-5181484.1984 39696.354052,-5181338.4197 39709.4383768,-5181269.69345 39717.4359783,-5181227.66639 39757.3313835,-5181099.02989 39832.7655445,-5181045.50899 39905.265076,-5181121.32088 39998.5973278,-5181086.36443 40074.1601872,-5181013.84997 40167.3640406,-5180997.88685 40206.940976,-5180887.23187 40153.4049533,-5180812.04666 40080.9050421,-5180736.23477 40120.4520791,-5180626.07802 40233.4442516,-5180554.78697 40334.1641802,-5180542.77023 40363.3599507,-5180539.50461 40421.9992759,-5180410.98067 40443.3296368,-5180300.24117 40407.6616703,-5180244.11874 40376.8409989,-5180144.28167 40373.3161689,-5180132.07153 40412.5148645,-5180040.39468 40487.1325074,-5180004.82533 40600.1247447,-5179933.5334 40693.4573347,-5179898.57575 40713.2158017,-5179843.74603 40716.3982244,-5179714.42685 40792.9056256,-5179604.96467 40794.8248015,-5179530.57388 40752.1508903,-5179474.53533 40722.920485,-5179436.29653 40725.7546509,-5179325.4578 40764.0081814,-5179270.72657 40729.0004473,-5179136.13847 40748.4750707,-5179140.79555 40879.9624822,-5179069.60115 40919.5497591,-5178861.93889 40922.342001,-5178848.60386 40851.3814947,-5178717.38046 40829.0824029,-5178705.55523 40705.0166164,-5178639.18204 40633.6787158,-5178526.93782 40582.6037432,-5178321.89136 40696.9167078,-5178194.67244 40736.1140096,-5178102.99447 40796.3606314,-5177901.05933 40819.4264902,-5177878.92772 40929.1687935,-5177773.93809 41096.8627321,-5177741.39471 41337.9124735,-5177728.20894 41505.7350206,-5177676.67167 41656.9506333,-5177551.14261 41861.735129,-5177500.29997 41864.9445859,-5177370.4808 41793.8309127,-5177220.74663 41722.074743,-5177144.97997 41650.7642635,-5177032.23717 41690.3380666,-5176921.57891 41741.3715623,-5176891.60702 41840.6980663,-5176831.50043 41951.7134896,-5176835.5927 42024.9418474,-5176873.94387 42081.3133901,-5176838.28841 42121.8015153,-5176691.18109 42107.805639,-5176505.83562 42111.7677826,-5176338.05779 42112.0559208,-5176320.57353 42198.2153695,-5176271.68533 42299.8855189,-5176214.2173 42359.2158869,-5176048.72664 42314.840757,-5175937.08307 42306.9959181,-5175917.61576 42197.8765756,-5175822.62976 42164.1224302,-5175692.1155 42167.6770052,-5175543.81483 42244.1521776,-5175434.84627 42339.3721265,-5175325.99035 42367.4891506,-5175286.15631 42416.0963828,-5175217.03625 42492.8797676,-5175107.08542 42643.1805788,-5175018.00035 42686.1311093,-5175002.04867 42736.4842942,-5174983.5362 42816.1595,-5174892.25814 42831.7043261,-5174874.67941 42888.4228658,-5174820.54166 42910.1251383,-5174690.81875 42986.8492845,-5174581.86362 43118.6842344,-5174492.1813 43193.5220023,-5174457.12042 43195.0613555,-5174401.70686 43211.2330899,-5174335.66089 43235.9235014,-5174235.6175 43331.4903371,-5174108.27846 43278.2950168,-5174014.61265 43279.5850113,-5173959.18424 43371.9756077,-5173961.16811 43300.6903578,-5173847.92688 43173.6683254,-5173734.37771 43158.7246336,-5173585.97758 43254.2907147,-5173458.63797 43305.1799077,-5173452.1576 43345.1353719,-5173474.0309 43381.4378967,-5173502.68803 43474.2703311,-5173556.20249 43603.842966,-5173559.39291 43662.4767445,-5173430.86079 43591.7034199,-5173262.64481 43503.3624366,-5173112.38814 43469.3852153,-5172981.35966 43600.5942296,-5172910.63961 43731.3589744,-5172876.89653 43825.0395457,-5172823.45079 43939.3210701,-5172696.72041 43978.8622469,-5172586.55619 44128.6653176,-5172497.43694 44241.213307,-5172463.1122 44314.5425192,-5172482.96557 44349.9370188,-5172539.57159 44432.5941614,-5172574.98014 44442.1039164,-5172579.04488 44480.355882,-5172524.30925 44460.1674992,-5172481.10686 44427.5349915,-5172411.6634 44356.8137653,-5172280.4536 44395.3826741,-5172207.73489 44471.5691294,-5172116.24634 44602.085661,-5172082.48738 44730.3411235,-5172141.60386 44822.0397756,-5172180.54914 44968.9866817,-5172202.77107 45100.6275389,-5172150.07678 45139.8220847,-5172058.39262 45086.6538107,-5171964.22765 44956.8004544,-5171961.52233 44829.1108431,-5171884.43761 44831.688916,-5171773.57891 44907.4992197,-5171701.06939 45056.5124181,-5171667.40732 45151.7318249,-5171558.54526 45190.9259343,-5171466.86079 45174.4412731,-5171373.87262 45250.4711966,-5171301.87569 45360.0416146,-5171359.88296 45488.5771073,-5171418.51565 45558.801665,-5171549.69689 45651.9418965,-5171551.72341 45764.9353601,-5171480.41954 45858.9638331,-5171408.49022 45954.4033861,-5171300.1403 46048.7106581,-5171227.7272 46120.9424977,-5171304.02168 46173.1015319,-5171453.13388 46201.3318304,-5171449.3084 46284.3082723,-5171437.23017 46379.4312497,-5171346.86324 46407.333427,-5171268.50934 46418.9723292,-5171236.69607 46439.1041816,-5171162.88164 46605.5466329,-5171185.2594 46774.06871,-5171096.74697 46850.7927895,-5170987.78548 46866.6259038,-5170893.71316 46872.4624783,-5170858.55506 46874.9176058,-5170728.68457 46972.2713535,-5170545.93732 47121.5068309,-5170512.78649 47228.8595132,-5170439.6458 47253.3444306,-5170423.09623 47330.444311,-5170295.15363 47370.3312842,-5170166.50321 47336.9158817,-5170017.50174 47486.8741367,-5169946.88811 47560.8016125,-5169948.27365 47539.3523025,-5170078.01826 47537.4683363,-5170151.91616 47592.4008541,-5170153.17502 47704.6056414,-5170137.3291 47798.8843517,-5170065.4123 47839.396422,-5169917.7958 47933.2991968,-5169864.85898 48026.636066,-5169829.89093 48120.5685412,-5169776.45564 48214.4715186,-5169723.51858 48290.629616,-5169632.52361 48331.1118415,-5169485.40458 48464.4875951,-5169340.29567 48593.8175987,-5169343.46733 48723.6460672,-5169346.66858 48798.2670501,-5169311.08967 48800.1505992,-5169237.19085 48729.2037004,-5169105.46397 48768.9929824,-5168995.30829 48825.7124433,-5168941.1647 48857.6891569,-5168891.0541 48883.62272,-5168850.08637 48960.0973863,-5168741.10641 49054.0303101,-5168687.66981 49093.8489216,-5168577.0153 49077.9570104,-5168465.55654 49006.3545747,-5168353.29368 49046.8651352,-5168205.67474 49214.0048581,-5168191.08486 49264.9055984,-5168226.60878 49268.4952153,-5168229.32207 49324.1762087,-5168230.62446 49399.9584176,-5168158.60805 49439.1518626,-5168066.91874 49481.4664006,-5168006.9192 49515.9050158,-5167957.45412 49573.815001,-5167866.37467 49649.0019516,-5167812.82535 49687.2834823,-5167757.58715 49708.2295487,-5167724.82431 49744.9442667,-5167666.49266 49653.6827025,-5167590.56927 49619.1285403,-5167515.50885 49658.6676213,-5167405.33679 49675.3141983,-5167352.31586 49698.8313411,-5167276.1988 49774.8624794,-5167204.19625 49866.3181237,-5167243.12526 49920.087569,-5167318.8253 49955.7354498,-5167375.44789 50028.9431911,-5167414.29502 50159.8413345,-5167361.5489 50254.370033,-5167289.64302 50275.4416002,-5167178.87509 50186.1807406,-5167086.06767 50184.7744237,-5167084.48403 50224.2165756,-5166992.8084 50276.7298287,-5166937.91354 50299.0067454,-5166941.73505 50441.1398875,-5166965.16654 50570.9647721,-5166858.8475 50701.6716864,-5166716.57472 50831.678667,-5166628.26888 50960.6299953,-5166540.9004 51107.4460347,-5166489.59691 51200.4587047,-5166401.09706 51185.6069412,-5166255.19225 51152.4692222,-5166126.70622 51264.9574727,-5165983.85159 51539.4012082,-5165918.11143 51703.8711433,-5165885.35671 51796.9135223,-5165796.35757 51854.619725,-5165670.75705 51879.629539,-5165379.68941 51938.2464533,-5165217.63621 52047.0903659,-5165220.58908 52172.293492,-5165314.52775 52168.0164432,-5165496.30612 52216.0666557,-5165769.70278 52376.7957313,-5165901.25506 52685.3509382,-5165926.55301 52797.8407729,-5165783.69644 52963.1943278,-5165714.98715 53092.1102127,-5165645.11724 53237.8060317,-5165612.74891 53383.8285948,-5165633.90985 53435.5320226,-5165744.49576 53395.6977899,-5165889.16105 53248.562461,-5165958.45052 53101.7731982,-5166009.25695 52990.7597078,-5166097.69124 52822.6716113,-5166275.7576 52873.1462873,-5166440.78018 52926.3554084,-5166496.44518 53066.7257988,-5166718.30867 53174.0555323,-5166793.18653 53446.7104639,-5166799.85507 53577.3243156,-5166676.0768 53581.0675869,-5166511.768 53602.9705226,-5166349.03618 53714.4831812,-5166260.63134 53859.4798596,-5166282.23251 54002.9995748,-5166358.25658 54236.9820079,-5166473.1522 54363.1649533,-5166512.64173 54490.1923703,-5166533.67783 54688.9653076,-5166592.97566 54832.1692295,-5166686.9856 54936.9848237,-5166871.73753 54970.1516984,-5166999.72975 54966.7535122,-5167145.55727 54908.3809761,-5167307.62793 54885.8808283,-5167488.82953 54955.4853462,-5167617.98295 55136.9214777,-5167640.74748 55357.8786655,-5167536.83029 55502.8769031,-5167558.43366 55554.2623295,-5167687.00725 55660.9304658,-5167798.35604 55712.2860904,-5167927.42823 55780.661503,-5168111.02115 55869.42679,-5168203.80489 55885.1880463,-5168313.26227 55754.4725134,-5168455.53856 55679.7411598,-5168526.62059 55675.7748849,-5168690.41878 55763.2807227,-5168838.13939 55907.3499635,-5168841.6857 55945.3131876,-5168842.43767 56145.2865364,-5168847.8004 56309.7930967,-5168814.55132 56402.8416918,-5168725.55186 56514.6757298,-5168619.16282 56678.5281054,-5168605.37869 56785.5425369,-5168698.24605 56874.2783768,-5168791.52946 56926.2288025,-5168902.13473 57121.3832142,-5169106.75505 57171.2589189,-5169290.25343 57275.7163315,-5169510.49785 57418.8906849,-5169605.01202 57444.0306082,-5169716.52783 57468.3807142,-5169824.49604 57465.5150956,-5169952.85414 57442.5026397,-5170151.03221 57384.6610444,-5170295.63208 57416.9112388,-5170460.08135 57650.3284826,-5170592.95952 57925.7997796,-5170472.27708 58089.0492802,-5170493.96779 58103.8951893,-5170639.88132 57919.3695449,-5170744.95621 57861.5565006,-5170889.05789 57877.0659776,-5170998.50242 58022.6324774,-5171002.14059 58167.9795583,-5171005.26565 58229.2900167,-5171012.90531" style="stroke-linejoin:round;stroke:#000;stroke-width:1px;fill:none" /></g></g></svg>