<svg xmlns="http://www.w3.org/2000/svg" baseProfile="full" height="151607.676192" version="1.1" viewBox="-74414.406830,5268532.138990,175713.909332,151607.676192" width="175713.909332"><defs><style type="text/css">polyline,line,rect,path,polygon,.polygon{fill:none;stroke:#000;stroke-width:1px;stroke-linejoin:round;}</style></defs><g fill_rule="evenodd" transform="scale(1,-1)"><g class="id" id="26070"><polygon class="_26070" id="None" points="49524.7816632,-5419577.51123 7482.82493908,-5419307.13435 7387.09205426,-5419306.60759 -49862.9602575,-5418944.86473 -70240.5165232,-5418814.56278 -72746.9405612,-5418798.77962 -72743.475026,-5418792.91089 -70800.1355928,-5415204.13135 -70196.9668688,-5414096.49234 -69398.9147376,-5412617.23406 -41157.7589321,-5360459.04879 -41162.7189967,-5360355.40616 -41153.2544575,-5360335.75941 -41343.7275463,-5356477.74868 -41500.2743517,-5353296.74003 -41584.0071617,-5350392.29564 -41620.3254419,-5348989.51014 -41905.8294492,-5343519.72276 -42177.9695533,-5338391.32353 -42269.4929285,-5336641.18366 -42311.5831422,-5333688.82153 -42336.5026991,-5331699.70477 -42360.9719352,-5329745.59194 -42365.8579726,-5329130.15914 -42436.1252745,-5319985.75028 -42460.2446875,-5319355.12685 -42461.9305566,-5319174.13785 -42631.2309253,-5314949.68583 -42689.229077,-5313501.16275 -42812.8141887,-5310874.73571 -43035.65711,-5305670.74885 -43535.737319,-5295071.39771 -43647.8639351,-5292602.82902 -43827.5339342,-5288560.94418 -43832.4538538,-5288447.81134 -43833.4905483,-5288400.29266 -43833.8975513,-5288390.78173 -43957.8181557,-5284900.18553 -43992.4595755,-5283925.81854 -44088.241421,-5282192.04555 -44177.0382757,-5280388.55035 -44512.8632156,-5273749.03272 -44631.0286432,-5269558.88302 -44631.5252377,-5269544.87049 -44644.0280727,-5268988.13207 -41569.3160515,-5268999.54087 -25948.9255343,-5269059.15115 -25842.1961507,-5269058.98636 -11957.4958964,-5269058.54686 -10898.9118161,-5269058.60662 -10872.6637641,-5269058.55035 -10458.2402784,-5269058.95069 -8876.83823339,-5269062.31096 -8011.40625057,-5269060.93002 -5712.24027133,-5269069.10662 -5553.03521888,-5269069.8318 7723.9398832,-5269097.4166 13109.8052063,-5269104.72322 13220.8046461,-5269104.71789 13838.543411,-5269104.94956 14461.1880049,-5269107.85833 17007.2710166,-5269119.99701 17063.8066105,-5269119.03193 23862.0091616,-5269133.75979 24269.7567072,-5269134.4404 30788.218791,-5269148.66551 31184.2274705,-5269149.42751 41723.7260575,-5269170.58634 43029.1680513,-5269177.6238 44071.4701254,-5269180.68131 46382.9263476,-5269185.47607 47823.7077428,-5269205.40257 49454.9355509,-5269214.19439 49464.6926995,-5269214.04603 49828.2657731,-5269186.14473 49858.5361625,-5269185.73566 49863.7803274,-5269185.92471 50967.9245363,-5269187.72173 59542.5210457,-5269200.84129 67623.6121294,-5269219.77395 67629.1064545,-5269219.97218 67636.866479,-5269219.75202 67649.8710874,-5269219.72108 67654.1167027,-5269219.87426 69507.6787043,-5269225.23481 79544.4109026,-5269239.36194 79633.1818982,-5269239.56554 89814.1375936,-5269253.55819 91657.215667,-5269256.10354 96230.9404454,-5269269.76651 96693.0934594,-5269270.45703 99816.8745283,-5269275.7807 99816.9530429,-5269301.29367 99816.0206301,-5269991.53382 99518.0110012,-5324861.75005 99422.455997,-5342717.42732 99421.8490375,-5342823.44179 99193.6311823,-5386046.0299 99018.2360248,-5419894.20893 99014.9889824,-5419894.0899 99014.825644,-5419878.077 95026.3490793,-5419858.40953 88854.7072804,-5419827.66931 79844.3645867,-5419770.72044 79796.3566925,-5419770.45934 74781.7537492,-5419738.47759 69650.2428675,-5419705.65179 68891.4262906,-5419700.79861 64638.344571,-5419673.6621 58922.765494,-5419637.27489 54549.7962095,-5419611.14441 53409.0246898,-5419603.73404 49524.7816632,-5419577.51123" style="stroke-linejoin:round;stroke:#000;stroke-width:1px;fill:none" /></g></g></svg>