<svg xmlns="http://www.w3.org/2000/svg" baseProfile="full" height="97327.7896107" version="1.1" viewBox="20701.731855,3706898.477758,60394.972732,97327.789611" width="60394.9727324"><defs><style type="text/css">polyline,line,rect,path,polygon,.polygon{fill:none;stroke:#000;stroke-width:1px;stroke-linejoin:round;}</style></defs><g fill_rule="evenodd" transform="scale(1,-1)"><g class="hogares departamen mujeres departam_1 toponimo_i tot_pob varones viv_part viv_part_h" id="30021"><polygon class="_30021" id="None" points="26174.2982203,-3725023.379 26264.9421693,-3724782.65787 26453.6618206,-3724440.09154 26807.0228636,-3724021.54065 26873.7247588,-3723942.60547 27184.9030283,-3723663.73237 27475.5145791,-3723420.24361 27837.7978428,-3723140.5054 28162.8568911,-3722897.42159 28437.3542873,-3722683.12623 28528.1541776,-3722596.59147 28749.6099273,-3722395.23186 29264.2849778,-3721931.31352 29424.6540664,-3721784.67783 29678.2062204,-3721559.88257 29829.9259962,-3721436.60122 30184.4468397,-3721161.72987 30689.9239439,-3720827.98384 30968.0993704,-3720547.66895 31244.7829992,-3720213.53728 31283.514335,-3720166.34011 31347.87938,-3720080.0362 31718.9417729,-3719747.52964 31989.9975108,-3719307.88554 32197.6788369,-3718803.31739 32415.7772507,-3718216.44195 32497.5207654,-3717950.2134 32688.9432281,-3717277.25925 32690.9017902,-3716790.69134 32635.967641,-3716395.56603 32543.9504047,-3716072.50601 32515.688653,-3715989.98802 32385.9039262,-3715702.6009 32297.4742282,-3715543.52904 32294.4827838,-3715538.17877 31943.2271455,-3714955.16227 31870.1052497,-3714560.3733 31856.5364565,-3714018.13582 31941.8739796,-3713381.01999 32100.1139217,-3712869.27004 32294.4437666,-3712469.11848 32482.6016023,-3712108.17204 32604.8668316,-3711762.74242 32815.6279452,-3711291.48584 33073.1239578,-3710816.57839 33314.8447877,-3710470.13222 33381.3633162,-3710408.68637 33585.5531746,-3710216.65144 33641.4857416,-3710163.67751 34082.3700567,-3709921.80699 34406.2515333,-3709820.54909 34575.7041173,-3709767.82764 35169.9181482,-3709702.4977 35650.9270708,-3709638.39917 36034.7611959,-3709549.84583 36287.2169362,-3709490.30388 36383.0033723,-3709473.91143 36700.3874176,-3709415.86554 36905.7919686,-3709390.92476 37193.0909009,-3709356.7187 37384.6881875,-3709329.92045 37614.1647193,-3709296.88497 38042.1276161,-3709186.3435 38385.2581444,-3708956.48362 38628.8717652,-3708607.9833 38852.4487879,-3708452.49011 39124.8831674,-3708399.01729 39326.3572082,-3708359.29387 39502.7991169,-3708350.16042 39552.3351201,-3708347.87635 39776.2702805,-3708189.37576 39905.8573258,-3707921.47558 40034.3312115,-3707715.99067 40005.0167483,-3707350.64713 40007.5372485,-3707080.6235 40151.6433803,-3706970.70816 40242.7262283,-3706966.01112 40390.2455225,-3706957.21616 40472.5241384,-3707199.88132 40511.7716219,-3707493.92083 40651.3019248,-3707766.37424 40932.9031745,-3708074.18406 41265.8170481,-3708364.15993 41363.7168791,-3708577.66352 41406.3962772,-3708680.96254 41484.3215952,-3709007.63794 41416.019928,-3709408.90661 42042.4563747,-3709518.70644 42396.5348055,-3709580.7011 42324.6701415,-3710196.65269 43372.7307542,-3710313.43535 43154.4246745,-3711793.71981 43486.3196333,-3711818.31313 43696.1897269,-3711831.07703 45023.3001868,-3712254.73443 44254.7053056,-3714268.2611 43926.4680955,-3715186.89182 43640.2423638,-3716199.37456 43791.6795099,-3716205.34799 45857.597421,-3716590.29949 45455.0420375,-3720367.39495 45831.5361931,-3720428.79966 48511.0358906,-3720873.53812 48653.3407495,-3720930.30834 48840.1457666,-3721005.47228 48966.719427,-3721056.48482 49725.3188964,-3721360.60007 50919.5036155,-3721887.98448 50824.5612815,-3721997.63284 50768.9067275,-3722061.5655 50748.6367834,-3722367.29329 50745.6353042,-3722458.71948 50735.7659316,-3722617.30781 50726.4224481,-3722754.92067 50674.9073483,-3722816.667 50627.3468161,-3722872.2443 50595.9040488,-3722909.61619 50515.3337472,-3722995.65437 50497.8469221,-3723081.26655 50492.5002864,-3723181.28193 54444.2170971,-3723968.03732 54499.3693216,-3723850.2576 54518.6336864,-3723808.4629 54564.3706525,-3723740.50184 54601.3833215,-3723683.41987 54698.3973801,-3723624.0587 54774.7872567,-3723577.12524 54873.8677353,-3723901.75319 54945.5343728,-3723995.20403 55427.1527002,-3723553.90459 57262.2409885,-3721872.79824 57955.1053796,-3721237.69723 59687.2341208,-3722888.81915 60425.4998901,-3722912.00453 61452.2414153,-3722944.7791 61934.2496979,-3722959.87445 62410.6618257,-3724098.44 62707.4535603,-3724809.89413 62990.412405,-3725529.46505 63356.3559388,-3726452.16966 63257.3880908,-3726641.29549 63240.9387596,-3726689.9384 63192.7841744,-3726829.32811 63171.8450403,-3727044.7642 63151.3664862,-3727243.22132 63125.5082132,-3727395.54342 62531.123935,-3726677.44347 61795.4969493,-3725822.73013 61761.999849,-3727726.07973 61753.9188942,-3728148.91008 59691.1023241,-3728129.82111 59679.3882069,-3728958.3405 59981.6515314,-3729087.47438 60206.8906226,-3729179.77803 60720.8424643,-3729356.4523 61080.0350663,-3729497.90568 61437.9415406,-3729595.52557 61739.0808492,-3729689.79206 61875.6585793,-3729811.64082 61943.2052391,-3729950.65642 61922.8853893,-3730141.62899 61897.2276776,-3730260.5281 61868.7327115,-3730393.52439 61858.7093691,-3730440.87347 61834.8094847,-3730527.77014 61761.2221226,-3730704.75508 60766.744397,-3731990.84524 61261.8714025,-3732422.7466 60999.1134234,-3732817.00303 60854.1012629,-3733034.71617 60826.5852355,-3733075.89553 61488.8316013,-3733126.95018 61524.2212348,-3734039.55339 61558.9459856,-3734932.23638 61710.6046889,-3734922.19951 62225.4816126,-3734887.8105 62184.6313776,-3734964.02411 61872.7987334,-3735541.61818 62708.9599797,-3736217.5015 62753.1311535,-3736250.36251 62549.4687334,-3736600.98087 63544.3373274,-3737590.17173 64496.2732314,-3736668.61762 65525.498542,-3737828.74959 65608.8515469,-3737862.28064 66506.1628124,-3736420.60711 66670.1489259,-3736150.1523 66520.4000966,-3736002.50148 66543.0952793,-3735782.50095 66524.2251845,-3735553.45936 66359.0782273,-3735412.5073 66251.3275872,-3735320.75733 67055.0584345,-3734075.48669 67241.8730821,-3733823.92867 67368.6437952,-3733960.18081 67407.2037381,-3733995.79512 67546.0230561,-3734123.00874 67815.1930322,-3734415.23253 67963.8957201,-3734631.75673 68153.6864616,-3734809.46585 68315.9471377,-3734942.07131 68411.6160094,-3734967.05239 68502.4877357,-3734990.76005 68629.5327959,-3734993.33716 68693.5447239,-3734986.37403 68814.126798,-3734973.29221 68919.7533543,-3734912.03033 69106.7710139,-3734804.59691 69257.0128015,-3734726.80041 69482.5919273,-3734612.09103 69674.7276616,-3734534.34443 69922.4395666,-3734498.90146 70151.2413624,-3734534.15683 70321.8047603,-3734695.29879 70441.125006,-3734826.9026 70436.3091091,-3734943.32615 70556.6731293,-3735236.96203 70639.2346009,-3735436.10203 70883.3633449,-3736026.70284 71828.4356184,-3738285.80385 71855.0505823,-3738429.19049 71897.9764532,-3738660.58786 71947.8606166,-3738666.24753 72027.7817541,-3738669.01437 72651.9367608,-3738594.60995 72763.4469516,-3738912.08238 73077.3332911,-3739801.12288 73268.6195527,-3740343.2832 73739.8779042,-3741243.44101 73895.5982867,-3741540.89507 73953.0411902,-3741655.41416 73437.1584828,-3741853.96666 73195.6991855,-3742071.66516 73304.5453389,-3742256.60192 73412.9816843,-3742459.51025 73557.1739959,-3742718.10329 73664.753287,-3743250.6868 73781.7080615,-3743850.6547 74383.1946996,-3744821.02003 74471.3180712,-3744737.62339 76905.6605559,-3742452.01151 77598.2302133,-3743151.81447 80784.2836367,-3746371.32651 77640.3447842,-3749533.80948 76984.6554149,-3750187.24136 77430.6974116,-3751789.60966 77626.0299593,-3752357.95381 77763.6890559,-3752652.2257 77892.1302037,-3752935.95626 77696.9351417,-3752995.43671 76860.4638836,-3753162.15756 74304.7514318,-3753510.40328 74247.533099,-3753518.56105 74186.652359,-3753528.38595 67820.7186792,-3754568.3014 67664.6784168,-3754591.05109 67609.9853913,-3754722.7796 67620.5067791,-3754814.55508 67631.9153767,-3755000.0523 67683.2303184,-3755132.31488 67791.0157873,-3755197.6016 67867.9556338,-3755307.2208 67958.0156793,-3755452.13595 67976.8817571,-3755541.02739 67850.0309832,-3755676.12783 67782.1964157,-3755772.06305 67824.5572294,-3755888.78371 67849.177098,-3755983.39126 67716.613018,-3756054.92093 67604.3990969,-3756119.01621 67443.6473874,-3756190.36736 67344.7095538,-3756287.75715 67281.6147742,-3756410.40423 67274.1650878,-3756581.82149 67091.7378416,-3756738.97364 66874.5655623,-3756739.64791 66720.0124321,-3756794.2526 66634.8417581,-3756919.42925 66591.1153205,-3757114.98752 66521.751802,-3757252.8921 66400.078276,-3757402.71856 66361.1483267,-3757492.81725 66503.1159328,-3757659.74527 66336.1616823,-3757763.80944 66184.5093838,-3757875.13865 66152.9009168,-3758063.14973 66046.4753596,-3758160.39506 65947.3894037,-3758265.27753 65788.0482528,-3758361.50645 65704.1427882,-3758519.0465 65634.2707297,-3758699.37219 65564.3541993,-3758862.74261 65536.2756023,-3758928.89412 65412.7808966,-3759034.42115 65206.1870027,-3759032.11302 65071.9931713,-3759052.85308 64949.4296679,-3759023.67195 64859.0559758,-3759096.22885 64769.1100809,-3759167.26962 64684.5332664,-3759278.45922 64521.1432662,-3759410.7921 64430.4121878,-3759555.68741 64317.4487836,-3759705.1144 64260.3504845,-3759843.9483 64265.0314564,-3759928.02075 64292.1239915,-3760006.05711 64202.8666038,-3760033.17587 63984.8298824,-3760036.89184 63877.5987286,-3760175.57814 63764.5540975,-3760280.62051 63635.7407765,-3760368.4452 63517.4412022,-3760451.78811 63455.0421326,-3760567.92864 63465.1144003,-3760724.57041 63428.855355,-3760797.09256 63435.7011089,-3760858.12118 63361.7048914,-3761014.2079 63288.0180523,-3761096.96085 63184.0018732,-3761203.07927 63075.4108796,-3761339.33855 62904.5405875,-3761359.80421 62748.853032,-3761432.92851 62603.6828092,-3761453.68801 62474.1981904,-3761564.49119 62398.427077,-3761645.34804 62344.5015117,-3761702.73755 62276.8025252,-3761780.2242 62136.8952579,-3761812.21004 62029.9666234,-3761856.11957 61896.4919978,-3761860.3715 61807.5493594,-3761803.68275 61651.0957868,-3761796.54042 61522.7872843,-3761756.65732 61322.3518977,-3761715.6606 61183.2725382,-3761674.78486 60898.3195209,-3761655.69944 60620.5759236,-3761513.57384 60314.4747568,-3761415.67032 60046.9395508,-3761379.80688 59778.557375,-3761421.79493 59696.3697249,-3761376.2601 59645.1550376,-3761347.73129 59461.571155,-3761256.56243 59311.0267909,-3761205.24743 59013.2802244,-3761115.42918 58944.333319,-3761006.42499 58895.2310626,-3760916.44418 58828.7294562,-3760859.69946 58750.5607694,-3760825.44781 58656.0112461,-3760824.88349 58488.5857253,-3760823.23958 58399.8065093,-3760908.69847 58341.3906736,-3760960.81335 58282.7885217,-3761008.94657 58190.2165239,-3761066.65022 58089.6763539,-3761087.31631 57955.2825688,-3761120.04144 57810.451867,-3761062.97062 57660.1825561,-3761033.58857 57548.557577,-3760987.93275 57499.2275735,-3760914.4216 57410.3113517,-3760863.71254 57292.7804982,-3760851.75301 57225.2563114,-3760911.77684 57179.8154645,-3761006.68206 57128.9271241,-3761054.45504 57072.9683844,-3761100.47007 56971.8464309,-3761178.0284 56893.9465367,-3761160.22434 56820.858101,-3761170.62758 56721.1261077,-3761086.00604 56648.3315757,-3761113.35521 56542.0887946,-3761134.78721 56452.5590222,-3761150.9479 56368.7676473,-3761177.81411 56279.0180669,-3761215.93318 56166.869222,-3761271.06262 56071.2138938,-3761342.87916 55931.1353435,-3761424.7557 55823.7598495,-3761496.62225 55673.3355146,-3761506.65411 55527.6087337,-3761510.48028 55421.417093,-3761554.3577 55298.6775439,-3761575.06596 55178.3980949,-3761659.01007 55118.7542867,-3761674.27179 54960.3707005,-3761807.388 54837.358291,-3761928.87284 54692.388806,-3761975.56358 54624.3137446,-3761997.20615 54473.0669753,-3762053.66867 54293.1263561,-3762157.86566 54224.828122,-3762249.35549 54135.1406171,-3762368.78357 53966.1211091,-3762551.78525 53928.1335872,-3762603.44678 53855.4087451,-3762717.59225 53812.8939133,-3762784.43093 53772.9430906,-3762890.05888 53794.604762,-3762979.83303 53799.2732958,-3763068.90613 53748.0248738,-3763135.6551 53659.1930963,-3763134.82525 53536.3756092,-3763116.63055 53463.3604746,-3763149.9789 53421.5791924,-3763307.07362 53411.0453585,-3763364.43438 53333.4544948,-3763310.70038 53260.6573544,-3763338.05271 53209.6268823,-3763398.80602 53242.2322839,-3763482.58117 53313.636175,-3763611.92951 53312.446388,-3763751.6603 53277.7612022,-3763868.51631 53121.2923598,-3763962.64092 53022.6172719,-3764044.58171 52973.6773257,-3764144.64635 52889.2888764,-3764233.40117 52787.7189753,-3764349.39946 52747.3027091,-3764461.03771 52755.3443217,-3764829.80557 52730.8298117,-3765035.97867 52690.2647204,-3765202.99619 52666.6089035,-3765342.28425 52659.9007516,-3765465.31434 52681.3472436,-3765577.04869 52713.7834702,-3765683.77856 52718.6811228,-3765756.38048 52650.7894816,-3765861.82427 52521.4418534,-3765933.23279 52414.8271285,-3766016.04769 52401.9745561,-3766194.23942 52372.2140532,-3766384.19812 52434.4305676,-3766524.951 52525.9530432,-3766636.39504 52603.1181601,-3766771.45853 52657.9398086,-3766850.20152 52607.0120956,-3766950.36193 52622.6978511,-3767050.89269 52701.2497194,-3767029.25304 52756.4763798,-3767074.05528 52831.3717887,-3767139.38604 52882.2574932,-3767315.08894 52884.1310348,-3767424.24819 52825.5436337,-3767499.32668 52754.4581104,-3767552.543 52727.3769507,-3767618.6623 52779.0030456,-3767661.13868 52867.9604826,-3767717.82826 52967.8917265,-3767774.50218 53028.6639085,-3767836.50338 52977.4421647,-3767919.7172 52952.7101894,-3768014.65937 52901.5508541,-3768125.80582 52852.1959701,-3768232.87708 52802.3354817,-3768302.55872 52884.5736809,-3768343.59954 52961.8344999,-3768416.79971 52972.2021757,-3768483.65777 52966.1286019,-3768556.2751 52963.4791369,-3768824.27936 53000.5948003,-3768988.15582 53014.0738013,-3769046.88642 53027.367122,-3769165.48716 53194.2003534,-3769233.98737 53317.6183718,-3769195.77521 53456.9185333,-3769219.6726 53606.2694214,-3769388.76039 53699.9033709,-3769534.52074 53759.2171088,-3769714.31499 53607.9585845,-3769807.70853 53534.7604371,-3769884.97024 53533.9538001,-3769968.81367 53694.0708953,-3770165.33021 53758.7657955,-3770512.98143 53817.264581,-3770675.35384 53798.3519066,-3770926.16081 53790.8795115,-3771154.98103 53827.8159681,-3771378.72465 54011.0163991,-3771514.29383 54283.4747292,-3771617.24013 54506.8693308,-3771636.68783 54607.0031532,-3771676.38561 54660.9928579,-3771832.98115 54670.7098941,-3772040.0414 54713.5254261,-3772213.62269 54807.750297,-3772281.5318 54920.0713691,-3772192.95464 55058.3576826,-3772328.13367 55157.1001578,-3772513.55518 55358.402426,-3772482.15808 55497.0095412,-3772650.7425 55617.9238698,-3772819.65802 55791.0979185,-3772831.9811 55913.0245855,-3772905.57164 56091.3421335,-3772969.03232 56246.9109693,-3773026.07816 56312.782809,-3773138.215 56367.9056866,-3773233.89616 56311.208766,-3773311.88089 56210.2745465,-3773371.98951 56187.2925434,-3773466.84825 56191.9966582,-3773556.41654 56264.178314,-3773590.43964 56369.5770747,-3773641.35967 56396.5731302,-3773764.799 56451.2635055,-3773888.43433 56466.1327315,-3774072.30221 56381.9831706,-3774144.59314 56347.7001397,-3774216.53781 56380.5571593,-3774294.80732 56429.8613334,-3774356.84073 56547.4039168,-3774358.30428 56585.3594081,-3774486.71561 56639.6675407,-3774671.22508 56686.9852363,-3774945.85145 56697.4798733,-3775063.08159 56695.6463251,-3775241.74768 56640.8787342,-3775381.99663 56525.7159137,-3775457.74121 56529.3801447,-3775546.36048 56534.1601602,-3775669.34649 56539.5015829,-3775804.278 56538.102223,-3775954.98991 56463.5288556,-3776177.97835 56357.4298585,-3776351.06914 56203.298104,-3776510.4549 56153.2011003,-3776537.75051 56064.2315782,-3776475.58653 55793.8661851,-3776735.7123 55613.3305348,-3776895.84193 55450.3800262,-3777000.27387 55331.9189705,-3777138.53166 55352.6070768,-3777334.60008 55195.1719501,-3777450.24735 55060.9714952,-3777476.50844 54779.1084494,-3777720.22088 54567.6130257,-3777656.83208 54423.2677916,-3777605.252 54244.3096917,-3777586.72574 54160.537215,-3777624.58463 53830.7352678,-3777655.05131 53433.6291559,-3777707.63777 52896.8669183,-3777803.20494 52673.2815445,-3777811.71861 52505.4398411,-3777844.05152 52361.4739304,-3777747.55492 52329.6254085,-3777563.47705 52174.3391636,-3777433.09056 52036.0553022,-3777308.88852 52063.8098502,-3777214.79654 52188.7153491,-3777070.24435 52229.6310105,-3776852.8154 52319.9871566,-3776620.59229 52237.5597397,-3776607.50416 51996.0759811,-3776750.05033 51744.081669,-3776870.6425 51435.0263276,-3777024.34728 51166.2430838,-3777116.79585 50919.5216424,-3777254.10384 50769.7998485,-3777433.24876 50657.0874607,-3777826.66476 50766.5626894,-3778107.37031 50948.4639749,-3778326.30324 51159.4698573,-3778490.48838 51303.6473489,-3778575.5017 51419.8882646,-3778665.81895 51424.4729853,-3778805.78412 51329.2172931,-3778838.19886 51283.3044585,-3778938.63377 51315.5367245,-3779061.83453 51387.0292103,-3779229.58363 51525.7146959,-3779303.87863 51670.3006275,-3779360.4357 51714.2285264,-3779467.12217 51657.3191603,-3779567.07648 51536.6852255,-3779648.57646 51427.0622018,-3779767.97145 51430.9996471,-3779883.52289 51529.7328914,-3780062.96057 51543.176268,-3780136.65909 51561.9755542,-3780191.64772 51433.259358,-3780212.66743 51314.8868428,-3780379.36839 51272.1523496,-3780499.60967 51289.5764443,-3780657.92845 51293.9158664,-3780797.90579 51320.0567701,-3780987.74195 51291.0940195,-3781087.88001 51278.7530829,-3781239.11836 51193.1401183,-3781259.10978 51087.8206145,-3781337.39819 51081.1460895,-3781465.92136 51140.7823293,-3781673.13909 51267.6879954,-3781836.28419 51188.1443852,-3781958.75755 51136.5664747,-3782108.35074 51057.0143341,-3782225.33746 50938.993606,-3782341.1415 50844.124865,-3782318.16802 50862.8968927,-3782128.71159 50790.3751522,-3782071.76079 50678.2978094,-3782154.85857 50576.7408437,-3782265.39838 50475.3888471,-3782348.4908 50385.3244775,-3782401.11983 50345.4589026,-3782502.77066 50321.5983544,-3782637.09298 50281.8852197,-3782720.77739 50247.4340077,-3782826.16475 50246.0294042,-3782965.91588 50284.5955287,-3783027.45784 50407.6154623,-3783023.1643 50525.1685521,-3783024.61566 50552.3212273,-3783108.645 50534.3439741,-3783214.25459 50444.1895499,-3783280.85738 50398.747051,-3783375.28815 50380.7878186,-3783491.87246 50446.9021246,-3783587.53739 50641.3127996,-3783695.62086 50763.5402148,-3783775.1741 50772.9436657,-3783853.05441 50784.4207259,-3783953.78523 50950.9036918,-3784072.6607 51262.1228175,-3784198.19052 51260.1695615,-3784416.28865 51236.8138523,-3784566.55059 51213.5674964,-3784644.97014 51106.8769828,-3784699.38233 50967.3310451,-3784670.53354 50861.6353396,-3784613.65039 50760.5113867,-3784696.23638 50581.9000449,-3784717.11885 50480.4945138,-3784793.73197 50485.2204914,-3784888.79463 50620.6329287,-3785004.6422 50756.1226673,-3785153.91028 50843.9454962,-3785350.32143 50920.6069728,-3785473.92353 50930.919256,-3785608.1336 50839.6021778,-3785819.46743 50849.5469847,-3785908.79633 50977.1225329,-3786032.99287 51075.8712221,-3786212.42526 51136.9987341,-3786355.7153 51045.3184811,-3786469.2877 50854.3484446,-3786651.39423 50669.0992658,-3786721.98271 50523.5034524,-3786771.24698 50371.5416597,-3786870.69914 50202.9301663,-3787013.83977 50105.7114334,-3787253.39304 49992.7570009,-3787391.91677 49851.9076304,-3787547.22079 49700.2903415,-3787595.77294 49605.2238901,-3787605.74064 49618.8989565,-3787705.37183 49631.6449539,-3787790.57916 49663.8828455,-3787908.29306 49607.0094442,-3788024.719 49505.8593244,-3788090.84905 49388.414975,-3788128.81186 49337.2109901,-3788212.04469 49353.017791,-3788341.01005 49402.135113,-3788430.48995 49256.1787828,-3788535.6503 49149.1196478,-3788640.47418 49230.9050656,-3788819.71065 49201.9694899,-3788930.82993 49122.6919517,-3789058.79033 49071.0116858,-3789248.30993 48974.951281,-3789353.61437 48807.7200924,-3789335.55638 48690.1540275,-3789328.62684 48568.5057337,-3789182.19995 48524.2598203,-3788989.71794 48312.516792,-3788863.50183 48142.126753,-3788757.28705 48018.282208,-3788717.72532 47913.986151,-3788717.15364 47713.2828368,-3788724.61851 47638.1241272,-3788638.3597 47504.0001097,-3788703.55164 47350.3755729,-3788826.03857 47263.4871429,-3788977.80861 47100.3054889,-3789109.22828 46946.8883364,-3789193.79026 46906.0206353,-3789247.60267 46865.0235478,-3789399.20621 46804.5101414,-3789517.80462 46789.6058341,-3789656.70358 46768.705856,-3789742.50261 46696.67647,-3789701.49616 46657.586334,-3789655.44433 46611.2064954,-3789661.12332 46545.731187,-3789695.6413 46550.2510753,-3789812.67094 46615.3999194,-3789892.91639 46515.3310407,-3789997.91465 46429.418611,-3789990.49065 46378.9198016,-3790009.33563 46301.2815542,-3790023.97229 46251.2350416,-3789962.47188 46192.580745,-3789882.41876 46106.2258602,-3789907.94335 46026.9771161,-3789893.71915 45887.9635741,-3789892.29092 45762.2682179,-3789898.21729 45630.2475138,-3789870.5159 45445.1251143,-3789875.25275 45326.150025,-3789854.41976 45194.378145,-3789800.26387 45075.844957,-3789746.48145 44983.7986414,-3789698.93385 44905.2648838,-3789599.3608 44787.1510721,-3789485.68812 44695.4908664,-3789398.70741 44589.7303356,-3789377.74933 44504.3723262,-3789297.45602 44426.0884697,-3789171.42753 44453.8244809,-3789045.39067 44552.4214753,-3788977.87966 44626.7563234,-3788935.46038 44742.8868935,-3788932.98009 44782.672627,-3788840.30217 44859.5188521,-3788824.70616 44935.5701768,-3788712.85715 45005.6274675,-3788643.19963 45047.0618378,-3788548.44884 45180.3314769,-3788470.32437 45280.0419067,-3788378.81438 45412.6979864,-3788367.07447 45525.3151856,-3788348.2964 45611.5914959,-3788315.79247 45751.4112858,-3788244.34486 45672.9139573,-3788124.31475 45620.9502667,-3788011.5155 45562.4345185,-3787918.48235 45537.2560512,-3787760.01772 45445.3485388,-3787699.49017 45319.8781464,-3787704.90343 45234.8290289,-3787604.63844 45162.7698548,-3787504.75902 45070.919589,-3787424.27166 44991.2507869,-3787443.49163 44937.4780858,-3787535.82957 44883.6952017,-3787553.82999 44809.7651569,-3787663.08317 44793.325621,-3787806.54728 44798.3351079,-3787934.03332 44780.661885,-3788056.6013 44634.7320417,-3788088.42383 44522.2268536,-3788093.72551 44489.995299,-3788007.93398 44497.7737386,-3787881.84051 44492.7240183,-3787716.43826 44533.7259994,-3787564.83153 44494.9765972,-3787478.34916 44369.5855949,-3787464.3004 44284.0911915,-3787423.42596 44265.158222,-3787291.606 44259.9478391,-3787165.12651 44266.4831504,-3787039.09154 44300.0342671,-3786951.69727 44382.2047614,-3786816.11246 44310.2595748,-3786702.75517 44272.1493943,-3786550.38518 44273.4261847,-3786418.61112 44274.2684844,-3786325.27411 44275.2136914,-3786239.41601 44266.1864467,-3786185.45933 44348.861233,-3786108.22483 44323.9657565,-3785982.17388 44231.9487296,-3785882.23412 44126.8240227,-3785848.26949 44020.3135285,-3785880.22711 43881.5528208,-3785979.56084 43912.8534256,-3786050.92875 43952.0992167,-3786137.38888 43865.1818844,-3786166.92737 43746.3754142,-3786207.94624 43665.6695737,-3786326.99789 43611.7899604,-3786438.30028 43557.8797494,-3786517.17443 43485.4528288,-3786510.10856 43413.7004332,-3786390.25459 43434.9137925,-3786258.03908 43390.1180833,-3786085.52635 43239.527469,-3785912.50769 43015.9285969,-3785778.35005 42843.9606982,-3785776.46992 42871.7622069,-3785852.99291 42941.8351086,-3785942.49285 42941.0246046,-3786041.81695 42834.7055424,-3786067.28003 42702.9908435,-3785993.15617 42525.4983324,-3785879.27803 42380.8185658,-3785778.82199 42246.7060362,-3785733.24898 42095.0590775,-3785717.93832 41974.7162014,-3785789.963 41960.8012402,-3785902.37865 41998.910772,-3786054.7534 41958.1549902,-3786179.90861 41957.0144812,-3786298.70782 41976.3013509,-3786385.11232 42068.3250986,-3786432.16793 42128.1742665,-3786399.91222 42247.4052349,-3786367.85332 42353.3371528,-3786381.82333 42418.7359357,-3786435.62089 42411.2612677,-3786541.74569 42370.4289168,-3786633.47606 42256.8042976,-3786758.07212 42268.8463234,-3786897.2051 42301.2142788,-3786970.02084 42313.4496359,-3787102.65857 42385.8777309,-3787109.72412 42477.7880211,-3787170.25506 42550.0183018,-3787263.14543 42575.8822991,-3787330.28007 42668.2124899,-3787357.36268 42775.3108153,-3787337.8482 42801.8763587,-3787213.36184 42769.5440452,-3787093.64589 42777.6527201,-3786974.51944 42873.8190302,-3787008.90551 42974.7129224,-3787069.51181 43053.4377955,-3787162.59457 43072.5650863,-3787261.47841 43104.8196581,-3787347.76957 43203.5558386,-3787362.5759 43309.2046119,-3787301.7191 43460.0480137,-3787215.28391 43570.6015897,-3787041.44016 43650.2953704,-3787022.71823 43749.4273252,-3787003.57953 43848.3054565,-3787063.78104 43960.2295729,-3787130.85155 44072.2905546,-3787184.94354 44123.7234298,-3787291.78351 44056.5725177,-3787423.16927 43990.8361863,-3787452.2102 43912.994305,-3787536.70269 43864.8336754,-3787615.8055 43754.9701935,-3787645.42903 43713.5888362,-3787677.81298 43801.8766341,-3787751.48469 43927.7090744,-3787785.46924 43966.2661686,-3787878.44719 43894.2707095,-3787885.831 43820.3582037,-3787910.76736 43727.674584,-3787929.10445 43641.3960123,-3787961.60849 43588.1231418,-3788001.03899 43543.6128976,-3788057.02 43533.7701001,-3788139.30712 43612.7694398,-3788206.43138 43724.6389518,-3788267.01729 43830.1524248,-3788261.54605 43896.0819729,-3788321.3031 43948.4103147,-3788394.17405 43973.9443276,-3788507.22343 43946.4337269,-3788606.30837 43905.4914059,-3788711.51458 43829.8663479,-3788821.84803 43739.0986178,-3788849.07651 43633.4166375,-3788835.09848 43592.7813704,-3788893.89092 43559.1624907,-3788953.35057 43631.5073885,-3789032.76191 43656.6232899,-3789179.25925 43628.7831413,-3789324.2614 43659.9849517,-3789509.88679 43625.5941277,-3789648.21304 43651.2992864,-3789754.26979 43690.0281501,-3789840.25447 43788.8761811,-3789894.46719 43893.833812,-3789961.8626 43992.5452222,-3790029.0534 44044.8184402,-3790121.88283 44109.8891895,-3790221.59256 44094.7919247,-3790393.43441 44159.8856555,-3790546.52738 44230.9865742,-3790678.8811 44315.9608469,-3790798.60629 44354.6573011,-3790931.48991 44386.6900261,-3791044.7309 44386.0554761,-3791110.61831 44267.820005,-3791126.67186 44204.3483193,-3791182.55099 44155.1021084,-3791206.82613 44152.1940815,-3791372.60538 44116.8908521,-3791544.40298 44089.271215,-3791736.29421 44015.214151,-3791848.05381 43981.21254,-3791946.94781 43862.8359728,-3792092.23074 43840.5095343,-3792137.18934 43754.8660288,-3792103.8101 43694.6350719,-3792175.50316 43614.7729281,-3792201.22337 43591.1972751,-3792256.71853 43534.6294876,-3792326.74227 43572.5588332,-3792485.60733 43657.2880271,-3792631.78681 43715.6986577,-3792764.73891 43774.2777535,-3792837.81177 43820.0030421,-3792923.96417 43798.8807658,-3793063.16331 43729.0091291,-3793147.28636 43612.5110152,-3793200.18163 43534.2703554,-3793286.69563 43381.9574346,-3793357.74592 43378.3718529,-3793482.64739 43416.8002607,-3793588.60259 43455.3646969,-3793681.57913 43501.4193822,-3793748.25781 43600.1902257,-3793769.04174 43759.2807794,-3793757.04318 43851.1955804,-3793817.56573 43903.2254331,-3793936.84817 43928.5752364,-3794056.39188 43839.1679169,-3794149.42078 43796.3055848,-3794356.50301 43725.8451502,-3794491.54589 43626.8574392,-3794450.31705 43555.0608902,-3794377.36993 43423.3136075,-3794276.31878 43344.637982,-3794242.61256 43251.7516766,-3794235.52139 43138.8599735,-3794280.26545 43071.6014746,-3794409.17093 42912.7644315,-3794463.56803 42772.9436445,-3794535.0293 42673.2567625,-3794547.71777 42574.5175379,-3794532.92007 42461.5361675,-3794591.63924 42328.764287,-3794669.75341 42222.1421425,-3794741.64404 42082.1288671,-3794846.0453 41948.8586717,-3794924.18372 41862.1964003,-3794996.13062 41775.6109144,-3795111.98084 41661.7259654,-3795146.29581 41566.5212965,-3795238.10523 41350.7019088,-3795269.24966 41263.4078644,-3795407.08791 41163.1999389,-3795472.19124 40984.2578735,-3795523.54886 40798.4034631,-3795608.16355 40705.0538284,-3795712.85949 40709.9508733,-3795885.26441 40728.4808893,-3796024.09503 40767.2981647,-3796117.06231 40812.4173684,-3796190.27296 40654.01067,-3796195.75723 40547.7468056,-3796227.71836 40480.9642713,-3796292.74172 40420.645354,-3796378.41589 40328.5890436,-3796330.87207 40196.3083848,-3796329.6343 40036.7401463,-3796421.49243 39910.9130409,-3796525.22928 39778.2999646,-3796643.75661 39684.3750652,-3796794.38623 39551.3341382,-3797220.791 39560.429721,-3797487.30352 39534.3099904,-3797536.43721 39408.7508612,-3797777.87649 39254.5325607,-3798014.68299 39133.4333282,-3798218.49127 38946.5102536,-3798428.4039 38792.4001765,-3798598.84596 38632.6195415,-3798749.59803 38385.5970926,-3798965.34684 37795.6967157,-3799316.55313 37555.4817926,-3799354.34999 37263.7905427,-3799411.54458 36978.3807011,-3799501.37496 36619.958124,-3799603.63774 36435.1964248,-3799595.40366 36290.6547082,-3799487.96774 36067.3686223,-3799313.89598 35902.4495663,-3799239.85569 35677.7411444,-3799257.45911 35532.18021,-3799276.31259 35358.8779944,-3799399.76689 35256.2184815,-3799476.47178 35192.2869855,-3799517.41571 35012.8390208,-3799621.70086 34821.3265551,-3799586.83957 34696.5994255,-3799486.9475 34611.8043731,-3799366.20668 34479.9503465,-3799305.57204 34415.1078252,-3799179.39708 34390.8935025,-3798915.07787 34372.0878128,-3798802.19637 34174.2687099,-3798734.19812 34002.35658,-3798712.87893 33929.9519695,-3798711.80847 33843.6652784,-3798744.32741 33744.3023696,-3798716.58678 33699.5031255,-3798597.44735 33647.0237357,-3798537.55204 33508.1787116,-3798529.63997 33230.6015649,-3798526.78422 33132.4992438,-3798393.69482 33054.032065,-3798280.13661 32955.8197893,-3798186.97177 32876.1965907,-3798212.68858 32820.3738955,-3798245.76426 32821.7154563,-3798363.96388 32761.7174958,-3798403.72391 32669.7082595,-3798362.66089 32631.0226086,-3798283.15101 32585.3981622,-3798183.50974 32546.8797232,-3798070.55872 32421.1606159,-3798050.04941 32308.1423737,-3798108.2816 32205.6211001,-3798151.04804 32174.3090851,-3798285.76096 32100.0568142,-3798430.48637 31974.6190724,-3798415.95213 31849.7324579,-3798354.98423 31743.8964022,-3798353.99512 31696.923163,-3798400.12642 31662.5630588,-3798538.97636 31569.6990228,-3798590.76855 31524.07375,-3798491.12602 31472.2816451,-3798398.26178 31412.1787957,-3798430.54214 31344.4805997,-3798608.39299 31224.819722,-3798673.92644 31119.9464598,-3798540.15525 30981.381477,-3798348.09372 30856.6703001,-3798412.36844 30842.6886832,-3798517.8214 30842.0036991,-3798603.68388 30839.5317156,-3798868.27732 30857.131744,-3799066.55201 30902.0953472,-3799226.10802 30920.7684985,-3799378.42276 30944.8367784,-3799623.798 30936.2830556,-3799801.8508 30891.9432095,-3799940.67555 30840.7254034,-3800118.74859 30720.2227615,-3800282.63048 30666.4521893,-3800374.99419 30539.7212625,-3800486.27545 30525.4362894,-3800585.25678 30636.6492385,-3800705.25402 30754.1714264,-3800884.83462 30785.8997811,-3801070.46584 30796.2128855,-3801341.44291 30687.6084555,-3801625.02774 30646.432678,-3801809.61447 30558.7203022,-3801980.93196 30570.4879527,-3802166.50936 30389.0337942,-3802429.08904 30234.7529475,-3802685.89392 30139.1813296,-3803002.3014 30084.2952655,-3803213.48812 29957.1894249,-3803390.66393 29837.774941,-3803429.74591 29711.9449662,-3803401.76302 29638.6876226,-3803493.55497 29649.768905,-3803685.65472 29601.8211621,-3803890.52696 29448.8173266,-3803942.17708 29292.9232483,-3803948.5525 29141.1097489,-3803909.32325 29030.8618649,-3803899.56677 28841.6874498,-3803803.71765 28743.4634668,-3803710.55307 28672.3562774,-3803531.27051 28608.1060361,-3803338.68863 28490.6897447,-3803172.07506 28306.5590139,-3803024.58467 28076.5253388,-3802877.26787 27839.7223647,-3802729.27215 27597.0189197,-3802535.64308 27465.9466538,-3802402.10936 27255.7957294,-3802247.86068 27190.3682819,-3802141.16513 27092.3910744,-3802021.53593 26941.0902516,-3801966.80699 26782.5122455,-3801905.93425 26637.0464196,-3801911.31304 26503.7811563,-3801979.49352 26423.5569054,-3802114.03495 26118.7826677,-3802243.7211 25727.9008407,-3802409.91666 25699.7820005,-3802369.32588 25368.4189328,-3801603.9775 25139.7290866,-3801136.69574 25015.1379182,-3800881.57998 24859.0831753,-3800625.95399 24670.6041962,-3800402.30121 24398.2087056,-3800124.2227 24141.2280528,-3799871.36502 23749.3410818,-3799313.96594 23682.4421334,-3799154.93228 23418.2601521,-3798527.61736 23140.6034853,-3797635.93541 23083.4095653,-3796979.37981 23141.5232877,-3796645.76181 23206.4488333,-3796271.39947 23414.6276486,-3795511.49576 23602.5654094,-3794666.21588 23715.6593905,-3793916.29657 23861.6731405,-3793007.12863 23878.1739871,-3792351.59907 23894.4009539,-3791758.96354 23878.4293285,-3791197.78936 23766.8740764,-3790678.54859 23654.2923536,-3790275.13426 23406.1680405,-3789637.56411 23085.9344125,-3788809.25733 22679.071245,-3788223.57122 22197.5620337,-3787626.42296 21652.8935697,-3786996.80849 21151.1681339,-3786325.23994 20872.3931774,-3785613.72688 20740.6408671,-3784998.59753 20773.2773359,-3784398.19083 21158.5173849,-3783638.9683 21209.1415048,-3783516.3147 21784.6000185,-3783077.03072 22710.8582384,-3782462.06017 24437.9734893,-3781112.79565 24800.6958023,-3780819.28045 25110.2942497,-3780526.26867 25419.1794629,-3780005.73628 25701.2378781,-3779259.41255 25786.1287402,-3779000.42238 25816.4531558,-3778907.67624 26012.5952556,-3777994.73174 26333.8564393,-3776515.51911 26443.8104346,-3774855.61573 26612.0358223,-3773830.72759 26715.565446,-3772963.57432 26735.3104489,-3771969.6129 26675.2314161,-3771539.78688 26666.0341273,-3771471.3545 26587.5707405,-3770814.34147 26521.1115715,-3770541.00456 26331.9933085,-3769817.31945 25933.5896479,-3769275.60005 25066.6052556,-3768148.0272 25154.4838504,-3766801.55018 25557.9428892,-3765746.6983 26006.2020106,-3765073.00183 26518.8073946,-3764579.93616 26943.4860826,-3764393.88819 27346.3847858,-3764355.56823 28138.8291114,-3764468.17508 28782.7798743,-3764622.65973 29344.4231934,-3764553.95373 29907.6216778,-3764316.01877 30303.3843894,-3763864.37475 30406.7629303,-3762997.29271 30153.1257304,-3761778.16678 30036.4530298,-3760675.87929 30135.2202042,-3759629.38395 30154.0405749,-3759428.91107 30205.5964853,-3758476.93844 30231.4124479,-3757582.5557 30370.3229052,-3756678.89944 30418.2540645,-3756097.34575 30596.4881903,-3755426.3787 30659.0226206,-3755189.43822 30720.3379756,-3754311.86979 30528.3515039,-3753336.35159 30254.3958245,-3752619.63221 30082.0302391,-3752192.56608 29646.4367639,-3751454.93817 28884.2327691,-3750336.84076 28008.8726113,-3748889.17642 27525.9680362,-3747317.90682 27400.4387559,-3746015.89721 27514.7941315,-3745074.96193 27726.6036394,-3743954.84656 27784.9151158,-3743776.48775 28002.2552991,-3743085.75108 28321.2257975,-3742605.85035 28920.7321653,-3741849.4371 30095.0322521,-3740738.46958 30982.1971449,-3739783.59173 31539.2608288,-3739080.09245 31830.7098218,-3738437.35027 31960.0569747,-3737935.37012 31961.5449987,-3737929.81238 32039.9016707,-3737624.29932 32140.3740856,-3737032.35441 32246.5515908,-3736729.54199 32248.5607112,-3736724.45904 32315.4934838,-3736419.97825 32319.4518264,-3736215.22162 32266.2840339,-3736074.98986 32264.2869965,-3736069.5941 32006.0338523,-3735392.0303 31609.6735349,-3734727.36298 30934.1834287,-3733450.94565 30558.1575741,-3732573.75433 30378.2519083,-3732030.24558 30120.1960895,-3731340.17098 29966.3578738,-3730782.97323 29575.1684222,-3730196.86564 29036.483868,-3729808.70103 28496.5694418,-3729512.40042 27929.239691,-3729335.12707 27922.9003354,-3729332.92615 27270.2013299,-3729090.24985 26717.3548832,-3728795.03625 26533.9089511,-3728621.41068 26232.6554056,-3728274.60694 26065.2762343,-3727796.34695 25927.2551896,-3726987.88683 25917.1838117,-3726657.52016 25934.4066071,-3726194.65315 26115.8561974,-3725178.27908 26174.2982203,-3725023.379" style="stroke-linejoin:round;stroke:#000;stroke-width:1px;fill:none" /></g></g></svg>