<svg xmlns="http://www.w3.org/2000/svg" baseProfile="full" height="95041.8175031" version="1.1" viewBox="-32304.884897,3553091.049023,90962.024689,95041.817503" width="90962.0246892"><defs><style type="text/css">polyline,line,rect,path,polygon,.polygon{fill:none;stroke:#000;stroke-width:1px;stroke-linejoin:round;}</style></defs><g fill_rule="evenodd" transform="scale(1,-1)"><g class="hogares departamen mujeres departam_1 toponimo_i tot_pob varones viv_part viv_part_h" id="30035"><polygon class="_30035" id="None" points="40409.413629,-3563053.25561 40648.1429734,-3563263.82002 40853.3554797,-3563575.05929 40915.0890634,-3563852.97484 40916.6708408,-3564013.18501 40917.868562,-3564111.68523 41520.039701,-3564624.05121 42000.116519,-3564816.97923 42083.0934237,-3564846.12653 42370.9260526,-3564958.50937 42787.2374802,-3564984.17398 43231.8406674,-3565000.59599 43742.2834934,-3564939.7068 43894.8781284,-3565015.26507 44040.2795914,-3565079.32619 44423.0869071,-3565293.27632 44699.6663589,-3565440.70709 45317.7902228,-3565771.31401 46244.9091356,-3566155.20712 46977.5124331,-3566652.34641 48018.6061292,-3567202.78976 48522.5603102,-3567507.17004 48674.3882514,-3567990.94984 48811.4410907,-3568596.11988 48767.9215704,-3569100.12634 49039.6679413,-3569392.68591 48911.4295795,-3569696.9236 49220.9411101,-3570043.85534 49297.1511915,-3570456.71082 49223.9832033,-3570551.90435 49164.3196283,-3570624.34711 49161.0662046,-3570818.19081 49342.508607,-3570901.37095 49354.039947,-3571005.67929 49181.1357648,-3571066.32143 48987.8059204,-3571118.78927 49143.9572599,-3571282.70617 49305.6713986,-3571400.47623 49360.0802954,-3571648.43948 49302.0224894,-3571881.06986 49205.5721366,-3572033.48091 49354.415616,-3572207.80985 49420.3169649,-3572519.76229 49515.8967139,-3572971.21974 49769.2069611,-3572970.22917 49953.3917244,-3573176.18141 50052.4230467,-3573397.44168 50175.6345456,-3573639.08324 50139.2944769,-3573749.88445 50238.8345669,-3573836.71046 50345.2528657,-3574001.25503 50527.7641544,-3573958.91599 50549.2949373,-3574103.41097 50637.2870374,-3574299.47733 50533.4273122,-3574341.84891 50492.8759689,-3574456.89709 50587.7983221,-3574620.66956 50755.0070562,-3574754.50831 50911.1233709,-3574814.87545 50920.023574,-3574908.89292 50840.1045222,-3574991.57282 50479.1347095,-3574974.45579 50538.9020277,-3575101.61219 50570.9717666,-3575168.28834 50830.4336356,-3575217.6737 50853.2743383,-3575375.02747 50926.8970362,-3575508.77764 51297.1124034,-3575482.99857 51371.5048143,-3575605.25034 51381.7000021,-3575680.27023 51468.9312696,-3575824.61129 51677.9030046,-3575933.91488 51613.9057405,-3576143.02267 51826.47843,-3576119.69189 51887.4335211,-3576194.50379 51815.9244822,-3576371.23119 51972.167935,-3576441.53993 52157.4212182,-3576450.78861 52147.2305442,-3576534.05897 52140.2229713,-3576596.72067 52326.3874043,-3576636.27503 52367.6246466,-3576832.78546 52617.087776,-3576849.93793 52688.9228373,-3576931.52967 52710.6062186,-3577054.60525 52725.9518563,-3577140.24982 52766.2641844,-3577203.41696 52818.7733936,-3577167.75755 52907.5587909,-3577107.4158 53011.0206162,-3577161.63049 53169.4736423,-3577187.99361 53252.0521669,-3577036.95342 53307.0365984,-3577064.35364 53348.4161903,-3577089.12579 53340.0787852,-3577296.71687 53459.1556549,-3577345.96581 53517.9503288,-3577370.63701 53618.8004701,-3577407.09581 53777.8661291,-3577490.66072 53838.120244,-3577522.706 54076.7691902,-3577415.60001 54245.8081177,-3577491.56783 54215.8032913,-3577679.11661 54325.293068,-3577773.76461 54367.3588932,-3577809.44298 54441.5353096,-3577793.82293 54625.2407037,-3577754.8822 55039.9307337,-3577803.43772 55306.3914996,-3578019.60486 55295.8986637,-3578248.22993 55288.7926026,-3578427.86347 55553.7109993,-3578722.26865 55681.6597062,-3578865.02575 55962.0279367,-3579001.66765 56231.7929456,-3579128.02576 56352.7190374,-3579230.40853 56474.6678203,-3579333.22418 56546.9577002,-3579524.77646 56252.8948371,-3579708.04732 55871.2791698,-3579860.50042 55721.5217845,-3579924.68482 55658.4770362,-3579951.05431 55524.736089,-3580008.75509 55392.669992,-3580195.76299 55331.6981669,-3580278.74475 55065.3831742,-3580499.59673 54676.8654997,-3580495.20479 54630.5584036,-3580779.34932 54721.5481272,-3581046.38147 54683.0022678,-3581232.47898 54782.5390586,-3581485.03482 54713.3750274,-3581840.80307 54527.0957172,-3581988.92673 54406.5167741,-3581915.89107 54348.5583647,-3581951.8978 54301.1946331,-3581982.25933 54191.4505794,-3582183.79742 54111.2649835,-3582435.73723 54235.4778521,-3582637.46108 53998.7550956,-3582964.47618 53784.4198182,-3583259.71941 53792.3312109,-3583614.12137 53506.5468744,-3583920.8428 53365.6100481,-3584353.82337 53392.3324722,-3584698.58007 53285.8513957,-3584849.14992 53251.6114751,-3584906.06367 53104.0621101,-3585147.32936 52934.3574678,-3585124.18688 52886.3177,-3585270.07643 53106.4615667,-3585382.62075 53145.7570628,-3585650.42792 53160.003834,-3585742.11329 53177.3364458,-3585811.70229 53256.0224975,-3586135.75965 53290.688743,-3586274.93715 53320.8138576,-3586334.26109 53422.2364901,-3586537.41907 53200.0337048,-3586557.91302 53040.5934312,-3586547.56673 53013.8716373,-3586684.14795 52851.8963197,-3586633.64268 52824.1989238,-3586439.26987 52687.540148,-3586490.20439 52564.4817711,-3586535.80088 52520.209096,-3586552.03468 52441.906993,-3586612.72667 52385.472842,-3586657.10555 52495.8316264,-3586773.09036 52511.0219699,-3586934.90298 52337.3510605,-3586967.26853 52253.4505935,-3586994.46604 52129.1183692,-3587035.66435 52104.8740456,-3586967.00826 52071.9821447,-3586895.41347 52016.7118318,-3586816.271 51875.4980719,-3586921.25442 51792.5924138,-3587106.18487 51643.9384319,-3587156.38552 51533.9295607,-3586856.69641 51425.7715871,-3586846.59805 51401.2107931,-3586970.10461 51441.9138306,-3587094.46985 51618.0559751,-3587195.85045 51540.5750305,-3587332.65285 51340.9546833,-3587300.9506 51157.3676318,-3587239.36455 51080.7064414,-3587349.73374 51297.4406492,-3587542.13525 51477.5418142,-3587430.21449 51562.7644835,-3587534.34668 51427.5516844,-3587671.30976 51311.2298984,-3587689.60411 51168.817831,-3587712.53225 51108.0134503,-3587805.972 51060.8939914,-3587879.63216 50990.0773542,-3588066.7904 51025.8263996,-3588388.59213 50885.2957388,-3588543.81479 50878.298494,-3588842.9293 51094.6944043,-3589029.87212 50926.1294742,-3589056.44648 50874.3824763,-3589064.69229 50870.639603,-3589265.53736 50944.5728342,-3589537.63814 51125.6476721,-3589543.62388 51255.1945455,-3589561.32643 51304.8712993,-3589890.7092 51102.4458575,-3589885.57552 51020.2210421,-3590010.23848 51217.6645426,-3590165.02232 51257.1664849,-3590427.84687 50991.5971359,-3590211.16191 50842.0383938,-3590113.08739 50774.1075484,-3590156.70405 50753.4681444,-3590294.90024 50741.4655647,-3590372.81604 50733.5772943,-3590531.61187 50537.2694434,-3590410.60582 50451.1758782,-3590450.39259 50409.0423741,-3590468.98383 50429.7970146,-3590639.90921 50457.1242638,-3590859.70081 50529.7103469,-3591007.93703 50589.6657159,-3591129.59243 50650.3891169,-3591420.94628 50495.1589486,-3591461.61911 50221.2446938,-3591333.57248 50231.8942792,-3591407.56893 50372.5562211,-3591585.35319 50302.4067839,-3591735.64058 50166.8978443,-3591749.6804 50030.1977148,-3591610.97148 49962.095576,-3591541.6011 49698.4355504,-3591591.61589 49662.3163488,-3591792.02348 50006.8453728,-3591942.48772 49938.1335089,-3592021.0026 49612.1972055,-3592046.5811 49330.7327607,-3591854.29723 49234.3644337,-3591959.94886 49177.4472222,-3592154.20591 49353.7572231,-3592250.09014 49445.8020016,-3592430.45095 49344.4645838,-3592693.72405 49274.1741454,-3592818.13873 49191.4683226,-3592958.77067 49196.2474405,-3593097.35668 49200.1862414,-3593230.51995 49094.0603589,-3593339.28041 49003.8207205,-3593431.60474 48903.5984525,-3593476.27298 48782.061187,-3593530.25408 48719.0129779,-3593682.58851 48935.5425695,-3593721.66469 48973.9420966,-3593809.34011 48868.7967909,-3593902.11022 48826.5665748,-3594084.49056 48570.6721029,-3593911.00631 48492.0194255,-3593871.67456 48354.3393208,-3593804.21511 48222.3237202,-3593897.1918 48168.0598958,-3593983.75864 48123.3579889,-3594134.93507 48148.2008684,-3594370.32512 47951.3270149,-3594429.57125 47909.4353034,-3594231.59937 47713.7637958,-3594199.66782 47674.5926451,-3594328.0939 47764.6692634,-3594516.54739 47889.554044,-3594586.30881 47899.0370209,-3594751.98094 47711.4267244,-3594808.15356 47860.7140607,-3594893.79466 47854.7462834,-3595035.55324 47633.3605134,-3594974.88371 47514.438184,-3594881.34785 47381.1348061,-3594993.3272 47485.576784,-3595117.64853 47438.879351,-3595331.68013 47319.4240642,-3595190.38702 47259.1085267,-3595346.5373 47170.2646536,-3595358.62936 46975.1629291,-3595469.54177 47032.4307033,-3595666.5438 47037.1788996,-3595796.67454 46924.5438556,-3595944.1888 46944.09988,-3596025.09339 46996.9070466,-3596222.37747 47021.9614516,-3596319.36236 47195.7139251,-3596295.92203 47210.1080367,-3596153.62813 47310.1174054,-3596152.77615 47407.8344315,-3596233.71267 47393.7600876,-3596428.25766 47622.1040691,-3596386.42775 47567.384287,-3596560.14649 47759.4627831,-3596472.32218 47914.1096584,-3596272.86588 47991.4477294,-3596252.04184 48072.240947,-3596490.36361 48011.1329386,-3596618.18808 48004.491836,-3596725.63993 48005.2756037,-3596974.00324 48156.0344923,-3596956.99438 48279.861049,-3597017.85644 48424.7634808,-3597120.69443 48550.070576,-3596976.85933 48660.0758312,-3597000.26378 48732.743315,-3597149.48949 48662.6318664,-3597410.30245 48539.7230484,-3597489.76812 48430.9278141,-3597351.78971 48355.6361286,-3597255.49824 48230.2598973,-3597351.05032 48349.5759817,-3597623.77012 48487.0547307,-3597743.00668 48535.2653783,-3597883.32628 48613.4246474,-3597883.35643 48677.1939139,-3597986.34999 48884.1401591,-3598164.90725 49041.3736509,-3598147.98304 49117.281928,-3598277.58668 49193.5811565,-3598468.39621 49120.9351681,-3598539.70302 49086.2219766,-3598573.2633 48972.6842398,-3598588.41752 48675.2826553,-3598648.07 48476.1960994,-3598381.39976 48310.5587992,-3598470.04502 48360.0402676,-3598646.12727 48489.1170449,-3598758.42634 48494.5880696,-3598891.9933 48277.3221277,-3598982.91393 48237.1062053,-3599071.086 48435.5677181,-3599139.16475 48704.6714575,-3599112.16629 48680.8793944,-3599310.31117 48479.016934,-3599400.75554 48295.8532716,-3599393.43877 48122.6586209,-3599449.21188 48148.1017474,-3599560.10848 48276.4614941,-3599849.67632 48147.1364764,-3599851.39627 48005.2953168,-3599710.53547 47886.9040374,-3599594.07567 47768.9377452,-3599578.64723 47748.3855093,-3599647.15554 47923.7994854,-3599909.3514 48056.5505058,-3600001.00536 48065.06684,-3600104.01339 47976.8371948,-3600180.79139 47926.8227994,-3600224.28355 47764.9468933,-3600105.10296 47464.9802923,-3600069.34324 47286.4794242,-3600229.99971 47249.2019616,-3600529.56682 47132.8230265,-3600633.51935 47127.2557823,-3600828.52493 47064.5103845,-3600843.95052 46889.5359443,-3600887.39584 46814.2382852,-3601011.14948 46616.3586077,-3601125.24625 46595.9373065,-3600983.66056 46616.8094379,-3600928.07375 46706.8743618,-3600675.93794 46687.8972852,-3600627.85434 46649.6358712,-3600534.69355 46509.3399519,-3600504.75015 46552.9767895,-3600211.2483 46481.8887092,-3600220.72983 46263.9614795,-3600379.90411 46123.2702136,-3600579.49018 45998.334453,-3600792.0187 46076.8958107,-3600931.91363 46114.4000861,-3601044.53906 45953.164642,-3601029.86279 45801.3819547,-3600834.36748 45676.0053501,-3600929.93181 45707.7480725,-3601045.9102 45803.9863842,-3601197.62955 45777.5832158,-3601236.64096 45679.5832855,-3601379.26057 45643.0137562,-3601524.95783 45612.3810275,-3601654.34797 45251.2614901,-3601557.25026 44970.3017111,-3601475.98145 44719.0110167,-3601477.96494 44495.1175437,-3601480.20369 44272.3908696,-3601650.14699 44218.343563,-3601763.59896 44147.1886765,-3601913.48344 43960.1856369,-3602034.36635 43747.2098168,-3601871.12192 43818.8750551,-3601737.13582 43939.3666158,-3601580.14158 43878.327325,-3601457.55235 43647.6204019,-3601289.45481 43461.8519432,-3601154.85284 43353.8944348,-3601328.97624 43541.3171879,-3601583.95666 43516.2382057,-3601793.15598 43559.0107417,-3602043.85922 43574.0193076,-3602123.56235 43353.4070994,-3602161.9395 43163.5076507,-3602056.4775 43061.4609444,-3602182.43361 42975.9878302,-3602334.22483 42977.4301081,-3602459.09917 42877.9573739,-3602515.68905 42728.239558,-3602392.24624 42605.2225531,-3602250.1828 42562.8918475,-3602045.74967 42482.5480984,-3602074.24152 42422.6228482,-3602094.96703 42376.8888885,-3602323.90135 42323.1795709,-3602434.84685 42235.0412032,-3602340.35963 42125.1185134,-3602357.78185 41959.331644,-3602255.76829 42036.5508678,-3602162.25182 42226.4695072,-3602000.85234 42221.9280432,-3601803.48276 42126.0321865,-3601625.84256 42059.4420787,-3601502.10731 41798.5772259,-3601486.77231 41557.7154019,-3601629.99 41503.3764037,-3601660.31892 41221.9975413,-3601761.29572 41066.5486499,-3602073.86177 40822.3181639,-3602266.09027 40754.4882316,-3602287.81522 40617.1832972,-3602328.88004 40530.237815,-3602111.83235 40533.4199517,-3602028.48266 40541.6050791,-3601780.51155 40408.7418133,-3601797.39487 40363.3754259,-3601953.62086 40320.2771341,-3601972.78249 40272.3140596,-3601993.74612 40127.1499836,-3602052.2369 39985.3011269,-3601966.62559 39884.2606501,-3602116.4231 39821.2129784,-3602292.19363 39687.7929928,-3602276.74992 39759.0390085,-3602403.18229 39913.7058946,-3602471.05209 40099.9881748,-3602503.55864 40086.9899214,-3602667.69263 40080.0972181,-3602935.99818 39930.2775121,-3602881.76373 39842.236928,-3602938.12997 39832.5839165,-3602887.95609 39820.838986,-3602820.48832 39668.4485271,-3602804.25665 39652.0762258,-3602655.92414 39591.3308903,-3602663.75747 39525.6578253,-3602672.40103 39413.729233,-3602846.79059 39329.6025813,-3602878.5118 39220.655797,-3602919.27489 39197.8029808,-3603085.03209 38971.3374859,-3603007.77243 38969.9380592,-3603142.79396 39161.6128859,-3603205.32972 39034.1780379,-3603300.04363 38805.7640189,-3603333.44374 38865.0578566,-3603609.01163 38770.5563095,-3603720.55956 38690.5054441,-3603596.67595 38603.6356934,-3603577.28765 38564.5121468,-3603674.86898 38583.4156017,-3603980.88182 38386.0312066,-3603914.72634 38325.4072985,-3604230.76198 38309.0556992,-3604349.80445 38497.1779275,-3604489.73913 38625.0689852,-3604590.67198 38854.3084713,-3604782.26972 39043.2412521,-3605029.20051 39249.574436,-3605220.75421 39394.9153216,-3605220.00026 39537.6819289,-3605217.91582 39626.1987922,-3605443.82692 39702.9497432,-3605515.63574 39894.342374,-3605440.26188 40010.2222566,-3605257.65052 40130.6858321,-3605406.35033 40260.0612372,-3605405.11461 40313.7203588,-3605544.6078 40196.5372616,-3605557.51793 40079.9257181,-3605618.68818 40197.5126078,-3605706.32799 40471.5528636,-3605780.05931 40597.5646526,-3605961.26605 40631.594173,-3606089.55599 40674.8558328,-3606245.64015 40787.1094597,-3606429.70989 40872.6655658,-3606569.66667 40561.3389046,-3606692.98347 40453.0138667,-3606861.17618 40280.3054268,-3607121.08573 40094.9949111,-3607394.24428 40087.3816784,-3607792.05381 40240.8224314,-3608154.24729 40308.4736092,-3608584.6211 40602.1096239,-3608817.91646 40654.7066661,-3609034.64857 40735.9022328,-3609364.57914 40872.0230953,-3609414.68738 40963.7409931,-3609447.69916 41087.7617646,-3609362.15176 41340.2429387,-3609292.34645 41572.0135904,-3609217.882 41626.019182,-3609292.12376 41606.514847,-3609377.00808 41579.2262002,-3609488.2772 41539.233494,-3609603.34058 41512.779084,-3609680.7003 41798.1890766,-3609933.42721 42009.2530407,-3610105.23685 42056.3867058,-3610431.84558 42399.7574323,-3610562.3875 42455.8709401,-3610787.35259 42197.7571514,-3610768.3999 42018.750939,-3611030.70819 42085.3144899,-3611318.24271 42236.5644054,-3611402.73376 42376.2850697,-3611368.46388 42655.812155,-3611473.68093 42602.6559792,-3611593.06585 42572.6124643,-3611762.76251 42872.8951821,-3611857.69637 43014.1539487,-3612051.35801 43218.8223546,-3611973.62664 43328.1582333,-3612080.19502 43477.557991,-3612057.25768 43542.1072343,-3612164.18232 43352.2535157,-3612239.97683 43199.7098032,-3612338.79247 43329.7429985,-3612496.82014 43493.4791184,-3612636.77275 43610.6171313,-3612646.75299 43836.2039106,-3612569.18391 43934.4669117,-3612697.36459 44008.1125937,-3612759.39866 44074.3747826,-3612814.93167 44267.7994966,-3612748.36834 44306.8989551,-3612588.05746 44405.0010099,-3612564.89426 44514.3799212,-3612625.15444 44556.2786758,-3612649.87408 44482.6703354,-3612768.56531 44288.6521699,-3612888.43867 44312.5179864,-3613005.41527 44430.7821344,-3613142.77795 44573.5279014,-3613218.83918 44705.1590356,-3613190.55613 44829.2913928,-3613193.11986 44949.4636517,-3613376.16333 45035.8298355,-3613364.20017 45189.0399782,-3613315.12817 45369.3889059,-3613458.00009 45554.69104,-3613451.69525 45746.9025163,-3613616.71306 45749.0292932,-3613806.76077 45782.9027457,-3613947.99086 46212.9659986,-3613923.13314 46288.4046209,-3613982.06177 46363.22124,-3614039.03837 46569.4963447,-3614198.17881 47053.3973659,-3614409.36095 47133.0855903,-3614613.38991 47153.7830516,-3614805.7372 47375.2357439,-3614788.6645 47555.6593154,-3614917.0835 47701.3732095,-3614906.81923 47844.1432366,-3614897.24005 47950.7050191,-3614991.52407 48005.5748509,-3615227.99421 48134.7016817,-3615129.17263 48252.9880209,-3615204.28974 48348.9615851,-3615085.17473 48466.0627285,-3615126.01606 48595.9749713,-3615344.76614 48735.5725586,-3615410.56089 48900.1506259,-3615477.75305 48998.1226791,-3615734.37701 49123.9689028,-3615670.11481 49277.157312,-3615613.07428 49278.552953,-3615752.37866 49535.9043413,-3615697.17376 49610.5611244,-3615751.66549 49571.1501493,-3616008.56442 49690.1019096,-3616125.45287 49709.4896481,-3615921.6026 49859.629253,-3615855.79478 49935.8403285,-3615997.30684 49968.0142169,-3616056.99016 50247.8317502,-3616002.84361 50451.2472364,-3615968.49361 50562.3949615,-3616064.4703 50743.5784629,-3616212.74143 50947.2354539,-3616229.15284 51068.9885513,-3616304.04266 51138.9203459,-3616346.88498 51270.3140287,-3616260.3661 51368.4707259,-3616379.07128 51549.1472913,-3616409.88722 51674.5692088,-3616605.01292 51759.0366458,-3616649.41827 51875.6814614,-3616675.34774 51921.147171,-3616732.68915 51983.6237346,-3616814.83392 52155.942341,-3616855.14042 52279.0577133,-3617092.22578 52422.9676248,-3617194.57413 52503.2655824,-3617251.6885 52729.2552394,-3617290.56772 52721.1489664,-3617569.85447 52925.4727526,-3617471.72222 53098.5273827,-3617640.90947 53269.9041736,-3617619.54496 53266.8895329,-3617478.36162 53396.831237,-3617455.15526 53494.9257443,-3617627.61989 53764.7078198,-3617807.07353 53857.9378732,-3617793.67073 53858.8329682,-3618003.18563 53811.5552232,-3618065.93146 53754.6552114,-3618141.73501 54023.2717523,-3618646.81744 54146.4613699,-3618838.0898 54206.1316525,-3618930.8615 54440.3390175,-3619161.35625 54652.8834535,-3619286.20405 54843.6665638,-3619327.31514 54964.3359147,-3619275.82344 55138.7859391,-3619341.86829 55299.7549211,-3619407.27805 55543.1228864,-3619500.2921 55736.3808272,-3619720.94275 55894.2630298,-3619745.72922 56053.6636945,-3619770.91654 56375.0810682,-3619987.38104 56583.4195971,-3620046.28458 56635.9579943,-3620058.36816 56977.0039855,-3620364.17209 57150.95379,-3620430.24232 57687.2503728,-3620636.48922 57728.8305016,-3620734.38803 57755.7617336,-3620813.30968 58285.0448644,-3620862.70471 58202.8689216,-3621065.05533 58121.1892845,-3621267.37501 58039.0144569,-3621469.72694 57956.8401861,-3621672.07952 57874.666472,-3621874.43275 57792.4933143,-3622076.78663 57709.7933534,-3622278.67703 57627.652914,-3622481.52797 57545.4814233,-3622683.88382 57463.7746303,-3622885.71295 57313.2473697,-3623015.27452 57162.1925655,-3623144.37263 57011.6649592,-3623273.93557 56860.6098042,-3623403.03506 56710.0818519,-3623532.59938 56559.0263457,-3623661.70024 56408.4980471,-3623791.26593 50739.978923,-3626335.29804 49884.3183892,-3626649.27857 48963.4385183,-3626986.84546 48629.3522047,-3627111.22411 47606.1619889,-3627273.61329 46486.9483586,-3627234.52115 46357.2144732,-3627167.62232 46299.6217182,-3627138.9362 45881.3611705,-3627185.04777 45489.7791257,-3627227.96316 45319.160777,-3627160.18688 45205.39668,-3627195.32893 45155.0821384,-3627210.4893 44845.4507278,-3627211.3307 44310.6922646,-3627203.1386 43033.7381192,-3626901.24788 42455.3696643,-3626763.88713 41544.7287026,-3626514.78011 40940.2862687,-3626359.15629 40115.0651824,-3626192.71648 39323.1013982,-3626032.61341 39117.1094867,-3626237.95679 38926.1009692,-3626428.4035 38225.8091096,-3627127.87606 37992.6981688,-3627360.85097 37496.1172457,-3627936.30149 36851.8851633,-3628297.10545 36621.0411576,-3628417.40674 35817.2649307,-3628837.70324 35161.7830078,-3629513.96323 34932.1596802,-3629739.26726 34836.7600468,-3629914.17264 34284.9942034,-3630514.61337 33318.9374584,-3630523.01982 32326.6733853,-3630557.99729 32041.4729854,-3629991.05672 31947.9302958,-3629797.33013 31246.0563756,-3630239.05229 30332.0927822,-3630752.09725 29923.8558807,-3630777.66764 27829.4432578,-3629877.47956 27520.4025428,-3629740.8231 27305.2352424,-3629600.16513 26862.9211994,-3629310.64566 26630.6242152,-3629159.12445 26562.2943558,-3629114.67679 26360.0704407,-3628915.41425 26282.046733,-3628879.05544 26234.0219666,-3628856.22165 25942.9261215,-3628860.35471 25867.0279898,-3628861.21377 25806.538437,-3628861.58757 25752.5605653,-3628862.54192 25546.3957131,-3628827.88508 25303.707771,-3628817.97112 25207.0813749,-3628782.79839 25084.3616239,-3628662.62836 24914.1902038,-3628579.35373 24738.616556,-3628419.22373 24585.7945838,-3628373.68971 24426.7542068,-3628195.56912 24282.3114847,-3628156.47248 24061.0592049,-3628158.63488 23870.2453733,-3628130.46529 23679.462601,-3628102.79151 23489.3916719,-3628074.57396 23304.7775249,-3628022.59858 23212.5376204,-3627880.55531 23078.9644722,-3627808.88645 22933.6567112,-3627822.63867 22752.2107412,-3627824.25199 22649.6813958,-3627782.47898 22606.187272,-3627764.33423 22524.1004706,-3627754.13016 22387.1996988,-3627724.01287 22242.8167802,-3627662.49546 22167.031319,-3627633.95821 22108.3702092,-3627612.29787 21958.7250208,-3627558.08864 21877.4509058,-3627529.40307 21834.3421751,-3627497.78495 21775.3654604,-3627447.7536 21655.4357176,-3627402.60608 21612.7433298,-3627381.42099 21475.7633548,-3627314.94673 21397.6623987,-3627246.21109 21322.2304345,-3627203.70373 21141.5401938,-3627193.8101 20896.6368451,-3627137.70441 20854.8893625,-3627104.00621 20755.4453952,-3626954.44531 20656.2180942,-3626804.37203 20532.4237535,-3626671.3058 20423.7383059,-3626544.74701 20285.0834046,-3626405.15587 20161.289357,-3626272.08798 20057.9862245,-3626159.62936 19925.0879954,-3626110.32337 19768.1413513,-3625972.8924 19586.3186459,-3625878.88711 19525.5305889,-3625769.1954 19342.0624134,-3625723.6099 19209.827916,-3625809.74414 19107.7868718,-3625814.75511 18926.1522939,-3625723.72463 18723.8346653,-3625632.51771 18609.3883138,-3625536.70486 18553.017479,-3625488.4949 18336.7965252,-3625413.61414 18214.3084526,-3625359.65605 18068.0387938,-3625432.73809 18021.3612157,-3625399.84929 17890.9974078,-3625296.58135 17823.4745458,-3625132.02432 17738.0330295,-3625096.62469 17667.2634912,-3625115.58069 17460.3798853,-3625171.605 17411.2040466,-3625099.52349 17443.9266821,-3625030.69006 17420.9277907,-3624962.91749 17337.1006271,-3624929.40689 17211.0928562,-3624964.83438 17119.7120363,-3624941.76744 17026.563102,-3624918.31498 16988.8782395,-3624885.84823 16875.3907664,-3624789.47157 16900.152001,-3624701.22029 16930.1929641,-3624594.20214 16877.9824923,-3624525.30168 16815.2443831,-3624443.62266 16701.0401827,-3624292.99519 16593.9881843,-3624184.25197 16486.4085096,-3624075.04385 16312.3486058,-3624122.49771 16252.6273787,-3624201.52016 16094.7469829,-3624166.74866 16084.0229451,-3624068.80263 15984.9972343,-3624058.67398 15835.5857606,-3624129.46394 15670.4667335,-3624110.09699 15627.4222812,-3624005.24319 15493.8797428,-3623942.02073 15374.4002041,-3623943.15746 15342.4691354,-3623899.36358 15280.0033671,-3623786.78 15230.4497097,-3623786.94829 15131.6219398,-3623787.76517 15098.8995599,-3623653.36075 14974.418733,-3623544.72723 14804.6344128,-3623463.88615 14696.2703766,-3623244.63452 14705.1668827,-3623137.96437 14667.8559771,-3623029.25616 14619.1803183,-3623011.93296 14535.3238713,-3622981.90642 14352.6874572,-3623019.94105 14242.7206313,-3622912.3729 14155.1348519,-3622902.01105 14064.4094275,-3622885.37325 13979.7592669,-3622788.14729 13936.7508488,-3622738.58144 13735.3690701,-3622634.8415 13639.5525977,-3622561.73866 13490.7020877,-3622457.64092 13310.2203892,-3622353.56442 13162.1196531,-3622280.80121 12971.3857839,-3622187.83752 12791.0213076,-3622105.17223 12516.3272348,-3622054.91516 12277.164892,-3621999.40598 12103.0974064,-3621972.62979 11922.6649699,-3621939.78258 11730.5372681,-3621930.59517 11527.6608954,-3621932.55343 11257.6647993,-3621979.63485 11066.718845,-3622028.15924 10901.3865122,-3622048.64999 10728.7233957,-3621926.63287 10695.8356795,-3621887.37879 10646.2718433,-3621828.76148 10591.916543,-3621730.09733 10619.4276527,-3621626.22086 10665.6820626,-3621585.91328 10657.0963023,-3621509.74177 10575.7524389,-3621484.03395 10527.7359782,-3621422.3287 10443.1268517,-3621415.75906 10376.3062956,-3621371.69038 10388.3345189,-3621314.13308 10358.8919331,-3621223.34747 10334.2715535,-3621145.70547 10196.436773,-3621105.16065 10111.1726199,-3621068.74174 9942.88810037,-3621113.33003 9911.92409684,-3620939.94346 9835.23364347,-3620862.12796 9691.5849174,-3620890.70046 9691.78599041,-3621038.64619 9775.86592843,-3621150.3655 9662.48331146,-3621177.01204 9545.53656804,-3621178.97662 9472.66542275,-3621078.99784 9331.71167307,-3621024.70148 9247.53626073,-3620884.09272 9096.23532803,-3620866.82151 8910.93371523,-3620921.95816 8855.46804044,-3621044.5546 9082.24230189,-3621077.44678 9166.99670004,-3621262.35706 9022.06645212,-3621337.34319 8851.28472169,-3621182.31968 8770.17576793,-3621281.63971 8871.86424722,-3621466.46916 9061.23112321,-3621467.36659 9118.41618214,-3621598.73353 9050.306772,-3621808.32109 9127.9499121,-3621983.22175 9084.38715902,-3622018.87549 9041.10406853,-3622055.00967 8886.4404707,-3621867.57609 8777.0767392,-3621937.80862 8731.26524038,-3622172.88019 8636.1666944,-3622056.38134 8532.60992889,-3622053.5093 8483.40581119,-3622145.31967 8453.42065965,-3622202.52783 8480.78804551,-3622346.75454 8365.65586477,-3622443.75976 8410.86753657,-3622570.90829 8150.97990716,-3622628.30936 8075.00591375,-3622530.51971 7848.05907002,-3622592.79779 7406.79577683,-3622778.82544 7262.06456725,-3623025.185 7153.10271301,-3622859.24863 6948.58181412,-3622952.98159 6962.93232152,-3622787.16287 7105.0272917,-3622671.49931 6901.72090943,-3622584.80512 6606.51974348,-3622631.50198 6521.12759529,-3622808.32214 6616.66403306,-3623029.4198 6753.02061003,-3623175.67755 6955.36690376,-3623157.31062 7038.83653992,-3623271.06496 6789.36613048,-3623382.60847 6868.0134562,-3623561.43653 7052.94213562,-3623605.95471 6983.22603377,-3623739.42974 6817.54263582,-3623735.03699 6645.83810049,-3623597.01036 6490.92965139,-3623499.76251 6308.7234781,-3623529.30295 6299.63213774,-3623734.64564 6118.007053,-3623835.89205 6175.88418864,-3624021.02701 5886.46838598,-3624084.30173 5664.78220509,-3624065.04279 5632.13028076,-3623888.76195 5732.21741033,-3623629.79265 5581.80235314,-3623583.57291 5367.73364144,-3623633.07875 5157.89445943,-3623745.09088 5136.75993415,-3623890.42207 4922.35782959,-3623895.60878 4857.01699611,-3623589.37937 4717.41630388,-3623693.43084 4686.75076002,-3623935.52694 4717.44294442,-3624288.30608 4925.63734404,-3624330.34626 5049.77014587,-3624182.93721 5193.95243217,-3624150.83471 5274.36666781,-3624247.84693 5330.62800143,-3624325.47239 5157.2425342,-3624497.44227 5110.64637897,-3624720.12551 4864.0460837,-3624747.79356 4645.10406676,-3624744.30439 4356.48237597,-3624906.18124 4359.65016257,-3625268.68817 4197.67538862,-3625310.89533 4052.82121022,-3625481.05314 3966.31788543,-3625327.62979 4107.49402139,-3625244.39832 4089.97273323,-3625067.14887 3949.27598117,-3625110.98921 3839.39953091,-3625224.113 3627.345715,-3625379.62042 3470.22703611,-3625361.23234 3311.27777477,-3625470.50898 3461.41498285,-3625664.72024 3250.55261284,-3625831.1154 3407.48968946,-3625877.91344 3404.49547484,-3625991.20365 3173.36345737,-3625991.98249 3037.86819874,-3626105.74553 2937.46043993,-3625870.99664 2772.86225304,-3625876.00497 2554.44486052,-3625927.78993 2252.27854009,-3625799.06683 2211.43668839,-3626084.67257 2306.41933101,-3626320.26824 2466.54188348,-3626483.4522 2204.17345491,-3626560.96002 2394.35321608,-3626750.12969 2561.00934552,-3626652.31471 2699.17391109,-3626791.4864 2900.59291665,-3626789.60929 2780.35766253,-3626927.8124 2512.42977275,-3626972.79232 2445.8599532,-3627241.6036 2282.10824429,-3627205.20708 2321.94634497,-3627365.09576 2592.61036486,-3627374.74647 2492.97225413,-3627539.04193 2145.85287054,-3627580.60302 2021.00529406,-3627427.62792 1893.18320648,-3627501.54542 1814.23682619,-3627544.94354 1521.20054719,-3627754.95394 1605.14042491,-3627934.45419 1434.7831586,-3627950.7964 1304.2159747,-3628087.17255 1343.10908086,-3628134.51829 1352.97909978,-3628238.52256 1266.55376364,-3628254.49653 1170.07035733,-3628288.55083 1077.10190092,-3628256.61109 950.593800997,-3628241.75749 973.140096403,-3628411.72083 1023.30252651,-3628491.23316 1064.00985269,-3628574.8361 1091.56333609,-3628631.87354 943.082378872,-3628631.87485 844.778326102,-3628649.10513 791.516405435,-3628743.68316 628.389027586,-3628764.05081 638.196830655,-3628867.06385 805.300100284,-3628924.66929 675.260178204,-3628987.27268 726.871896205,-3629034.80394 708.309478434,-3629146.10356 519.62278655,-3629117.27949 385.113666575,-3629129.34557 432.912739403,-3629203.02988 537.707864369,-3629240.69192 533.825554978,-3629382.9446 359.245928371,-3629422.97844 264.580430265,-3629399.61844 243.923887659,-3629278.86076 123.341993475,-3629267.11865 59.2132944637,-3629304.59244 47.0264304055,-3629453.35512 98.36598909,-3629578.63368 166.13910585,-3629723.29282 362.051474073,-3629822.40823 415.213569702,-3630062.1707 561.502682553,-3629996.53508 667.651045771,-3630000.72577 755.618449774,-3630122.17137 551.544815727,-3630164.58711 581.588169455,-3630323.11171 466.958014203,-3630260.16905 355.491808501,-3630149.19076 334.92147805,-3630361.76791 148.050798502,-3630275.53045 236.899919471,-3630430.30457 422.534395491,-3630544.02493 263.354720817,-3630571.61959 112.165438591,-3630661.98468 -70.003094173,-3630590.89402 -38.8871647951,-3630762.30686 -136.863118527,-3630890.1359 -299.724739528,-3630949.85585 -342.483223079,-3630818.5486 -423.584429127,-3630851.62624 -377.332551285,-3631045.4932 -534.633417522,-3631016.6643 -511.498812908,-3631203.53597 -685.995203125,-3631190.25452 -701.446529076,-3631377.59574 -667.075682162,-3631521.89576 -486.08841519,-3631398.73305 -446.072760607,-3631471.41908 -330.15553815,-3631472.49286 -293.993647818,-3631539.44529 -343.129391075,-3631632.27007 -374.062958625,-3631791.69873 -338.144579033,-3631956.32837 -370.977980622,-3632132.81992 -442.983293652,-3632312.31019 -629.701803599,-3632322.23445 -774.761353663,-3632262.7305 -868.17424198,-3632344.92918 -825.982412794,-3632560.98073 -942.856418128,-3632587.87358 -901.804007733,-3632809.47921 -753.153661341,-3632839.35447 -766.393903304,-3632912.94839 -920.423826224,-3632919.79115 -1087.11394798,-3632946.87503 -1216.97016577,-3633008.48062 -1303.80409059,-3633185.9316 -1248.72886751,-3633268.12046 -1154.57646898,-3633275.56343 -1123.23703796,-3633376.20895 -1305.78727682,-3633373.41301 -1395.77624786,-3633185.32524 -1568.41852806,-3633076.25945 -1703.15378498,-3633155.11886 -1770.5387635,-3633332.82466 -1915.88591908,-3633409.37261 -1813.53198183,-3633541.36244 -1627.43194716,-3633576.32021 -1463.36842988,-3633625.14173 -1347.99274188,-3633613.78926 -1154.87980547,-3633512.7655 -1067.3259031,-3633572.94901 -1035.25189831,-3633688.99416 -1089.39519441,-3633793.10421 -1275.32918686,-3633811.45352 -1429.65643645,-3633805.86022 -1448.59553596,-3633977.4833 -1278.4071964,-3634059.79587 -1053.7691921,-3634081.82678 -1026.3034249,-3634184.21415 -1108.64491051,-3634217.37597 -1332.33734578,-3634229.66682 -1422.824516,-3634295.23928 -1475.02532419,-3634367.33622 -1387.8017522,-3634457.43734 -1207.84671765,-3634513.21405 -1107.10973059,-3634549.6334 -1122.15992035,-3634750.90491 -1159.97950311,-3634950.64116 -1322.00982058,-3634937.57016 -1313.01284106,-3635097.94214 -1308.90223664,-3635177.90377 -1411.81336851,-3635185.47338 -1426.73402736,-3635025.97773 -1534.10991524,-3635080.67134 -1584.41715622,-3635221.41219 -1723.09536414,-3635137.08946 -1831.77672677,-3635167.45056 -1827.38029045,-3635388.41106 -1994.15439165,-3635355.71202 -2025.6602099,-3635521.6628 -1908.57819094,-3635622.81186 -1657.47613496,-3635532.52689 -1639.31591501,-3635836.32054 -1853.03718093,-3635860.43743 -2033.21291208,-3635894.86877 -2153.72216289,-3635896.08924 -2273.73538162,-3635897.27798 -2393.09874436,-3635807.23688 -2573.80524677,-3635817.78367 -2435.06259451,-3635969.37255 -2531.09906659,-3636127.48845 -2784.90078539,-3636241.86752 -3005.95831728,-3636190.21403 -3116.07283829,-3636014.86977 -3205.41306188,-3635922.90947 -3370.15574214,-3635949.37891 -3455.3690989,-3636039.03593 -3481.07323725,-3636182.6951 -3474.06653967,-3636292.37311 -3391.24590789,-3636379.76691 -3341.61668721,-3636489.71153 -3148.66073345,-3636452.46863 -3031.72396969,-3636445.99433 -3044.0960922,-3636673.51261 -3190.62153766,-3636817.41664 -3336.86722753,-3636961.80178 -3397.23584882,-3637093.22559 -3438.33663139,-3637183.05559 -3558.04562191,-3637270.93258 -3683.45256707,-3637343.72641 -3814.45853433,-3637383.49151 -3880.92031742,-3637505.33998 -3812.72291285,-3637648.48184 -3659.32119971,-3637740.8319 -3452.34927702,-3637743.55045 -3443.49270495,-3637843.14435 -3530.59750558,-3637887.57937 -3735.48763388,-3637843.36842 -3946.33568673,-3637842.39267 -4049.82982484,-3637946.17799 -4055.75882291,-3638075.62007 -4062.49904101,-3638223.55168 -4211.35338087,-3638233.56411 -4272.8133975,-3638117.89669 -4412.76898569,-3637970.86875 -4511.60128542,-3638081.33346 -4352.45016892,-3638267.49819 -4188.3886774,-3638394.04864 -3980.25222414,-3638407.1555 -3783.17602305,-3638255.03135 -3674.2223256,-3638349.72276 -3683.99371719,-3638481.4031 -3823.39011684,-3638619.87459 -3782.24536242,-3638737.33773 -3572.35832526,-3638738.87006 -3450.73532489,-3638864.14396 -3449.3538862,-3639006.57225 -3493.38665854,-3639105.06284 -3634.23904753,-3639134.9968 -3808.96602178,-3639165.10324 -3966.21503761,-3639117.85027 -4112.35671838,-3639115.73192 -4258.28233014,-3639113.10137 -4388.32803326,-3639152.31086 -4576.35878219,-3639056.19644 -4740.65040458,-3639140.45075 -4926.60932941,-3639236.55541 -5091.2427169,-3639342.75863 -5075.3134254,-3639549.04291 -4928.87306497,-3639606.45542 -4793.74291548,-3639607.78208 -4734.78126909,-3639731.08419 -4710.17223127,-3639780.8378 -4578.31004958,-3639883.03364 -4626.94182002,-3639975.841 -4776.02648509,-3640064.10885 -4733.50500746,-3640187.46531 -4736.31908277,-3640322.69058 -4715.90524845,-3640474.37008 -4667.27153295,-3640704.97299 -4530.87737142,-3640850.7295 -4366.19230302,-3640889.53028 -4389.35841353,-3641022.07025 -4513.70759844,-3641095.80219 -4723.17428529,-3641151.55754 -4809.5164566,-3641293.62104 -4806.46725699,-3641469.83288 -4876.14352025,-3641553.02529 -4946.84411197,-3641635.78508 -5116.91157849,-3641672.57728 -5266.97209041,-3641496.30009 -5223.30931848,-3641251.81811 -5333.88339923,-3641178.65985 -5437.76543036,-3641206.23413 -5541.24348217,-3641255.70916 -5535.83744404,-3641410.34411 -5485.74334044,-3641597.50197 -5581.5900109,-3641774.06238 -5838.08280806,-3641939.97046 -5859.46219002,-3642042.00162 -5988.68322033,-3642031.83007 -5967.33523511,-3641781.29701 -6078.51126535,-3641722.13034 -6155.79272532,-3641569.59983 -6254.28975412,-3641525.56832 -6424.91705393,-3641627.67836 -6483.37325513,-3641726.60026 -6649.34043974,-3641854.82509 -6721.04655601,-3641972.53547 -6824.17433393,-3641860.02907 -6857.48434338,-3642056.01491 -6989.94687301,-3642100.36959 -6909.67704234,-3642237.26214 -7011.46104196,-3642258.72413 -7108.85454882,-3642228.07745 -7193.71080749,-3642031.1781 -7241.28513706,-3642167.77802 -7185.09876496,-3642255.3807 -7161.35180691,-3642455.19285 -7011.86498662,-3642384.83093 -6964.36752492,-3642554.71737 -6816.06560722,-3642648.88417 -6806.5388672,-3642797.77744 -6632.29538822,-3642728.82087 -6406.30537075,-3642787.11863 -6354.81661299,-3642949.27274 -6354.24467781,-3643125.64835 -6492.57409187,-3643187.32434 -6695.85957754,-3643106.14622 -6790.16508467,-3643170.487 -6771.37258765,-3643436.89482 -6662.35109418,-3643442.87484 -6526.4827652,-3643311.58783 -6493.44115906,-3643438.54375 -6653.17757912,-3643520.02923 -6815.27075317,-3643560.80169 -6827.46235117,-3643685.66964 -6744.01252163,-3643809.89829 -6930.61366802,-3643892.10775 -6953.72018356,-3643729.63093 -7004.65561387,-3643607.30765 -7082.28114273,-3643706.46297 -7086.55918707,-3643916.04236 -7162.73146601,-3643928.89113 -7217.72529107,-3643727.58996 -7294.82884408,-3643760.93037 -7313.93495874,-3643867.30469 -7239.71546514,-3644041.95986 -7122.67343069,-3644223.84069 -7220.60576244,-3644289.91091 -7363.70811782,-3644210.86277 -7490.94886289,-3644344.5914 -7401.61165071,-3644545.19001 -7584.6264076,-3644496.60459 -7513.58191023,-3644621.62829 -7367.85618108,-3644691.03926 -7589.86533187,-3644807.91161 -7630.32731954,-3645028.28199 -7476.74290987,-3645103.66773 -7289.60985495,-3644983.04689 -7318.1351067,-3645218.59948 -7146.88957903,-3645239.03177 -7141.98668789,-3645444.03787 -7296.65881005,-3645367.22805 -7408.97299444,-3645461.63061 -7390.92962914,-3645576.09297 -7405.71676117,-3645745.98116 -7551.61793533,-3645704.98975 -7659.10692174,-3645769.68145 -7660.00283247,-3645934.69415 -7770.92563645,-3645782.32327 -7859.86937848,-3645619.07583 -7964.84562735,-3645684.10504 -7906.68703791,-3645860.78617 -7821.76098228,-3646074.12642 -7832.55200682,-3646259.70765 -8001.49212601,-3646267.53628 -8126.91514729,-3646270.08627 -8254.12379279,-3646038.5215 -8319.63067417,-3646210.16524 -8429.42383703,-3646270.02239 -8323.75055225,-3646355.95034 -8274.1765733,-3646476.369 -8108.83286032,-3646610.80261 -8110.56571082,-3646432.00264 -8026.99645444,-3646386.78208 -7958.21648283,-3646468.59326 -8059.90319433,-3646655.01305 -8174.94091096,-3646753.58052 -8166.28217905,-3646896.55368 -8034.75129247,-3646911.55215 -7918.72868064,-3646948.97322 -7713.49563774,-3646978.68665 -7787.35794601,-3647101.52833 -7910.7480015,-3647174.71679 -8208.07756488,-3647193.2635 -8149.54694041,-3647406.79969 -8165.16072177,-3647520.92785 -8417.94981773,-3647694.1057 -8550.47748256,-3647597.44065 -8646.97697622,-3647646.98012 -8544.75992281,-3647822.83355 -8521.47023753,-3647976.33296 -8766.47128376,-3647652.64145 -8689.03624563,-3647472.75469 -8747.16545553,-3647238.2595 -8926.56631129,-3647183.96623 -9148.75395551,-3647387.57785 -9022.84005583,-3647699.96318 -9077.74695659,-3647823.08906 -9175.64623299,-3647850.79057 -9362.77183607,-3647598.14312 -9600.79283907,-3647535.1456 -9731.55780409,-3647396.00326 -9601.1228256,-3646899.74213 -9992.75974232,-3646624.80316 -10473.6536931,-3646411.39439 -10652.5747182,-3646084.45233 -10668.175319,-3645965.34193 -10714.2826697,-3645614.9435 -11004.8041254,-3645405.28497 -11282.3667808,-3645230.67834 -11464.7622656,-3645168.59354 -11658.099416,-3645134.12149 -11744.6261325,-3645238.34073 -12082.6044618,-3644976.39288 -12341.6557408,-3644837.97506 -12431.582586,-3644246.65905 -13185.777202,-3643894.21433 -13777.575874,-3643318.5527 -13974.3103372,-3643234.94813 -14196.5934261,-3643036.35127 -14186.9636044,-3641959.68675 -14184.9783001,-3641830.97248 -14186.0126386,-3641351.07951 -14563.6222651,-3641162.90666 -14700.7935461,-3641094.92358 -14880.1877459,-3640639.38933 -15232.5583198,-3640331.47389 -15160.8911025,-3639803.56678 -15429.5595683,-3639686.16991 -15715.8152431,-3639484.66801 -15781.169872,-3639210.73269 -15758.078632,-3639127.51793 -15619.0011009,-3638628.69564 -15654.554989,-3638563.68255 -15728.862897,-3638430.37181 -16096.5713727,-3638287.8962 -16108.0171497,-3637796.69702 -16177.0123036,-3637645.10248 -16298.8198702,-3637376.76438 -16399.7806632,-3636787.11432 -16488.6802446,-3636187.22337 -17024.7940348,-3635842.66381 -17139.495015,-3635384.96701 -17518.0737129,-3634767.67475 -17600.939645,-3634281.52571 -17952.1634707,-3633979.47212 -18160.0951001,-3633540.67552 -18500.3578206,-3633386.94394 -18661.3292614,-3632957.60639 -18830.4438436,-3632611.52489 -19068.4470769,-3632162.17647 -19119.289883,-3632123.05354 -19365.551341,-3631934.90546 -19502.0609334,-3631775.64252 -19825.8704122,-3631336.74329 -19891.7143401,-3631261.69206 -20016.7436511,-3631126.11745 -20106.5908581,-3630987.30194 -20172.6647483,-3630877.37448 -20321.7885588,-3630629.69229 -20404.4819443,-3630454.53223 -20495.7605106,-3630261.97554 -20795.0064276,-3629958.06796 -20900.7570042,-3629804.3132 -21454.0423598,-3629444.32084 -21500.3686768,-3629393.94064 -21635.3494217,-3629239.05567 -21880.9776466,-3629009.97599 -21955.7589822,-3628857.23406 -22026.748642,-3628709.23462 -22051.7989298,-3628625.09876 -22165.2344512,-3628249.02422 -22285.8572604,-3627752.2847 -22501.7763739,-3627531.77203 -22589.5115481,-3627441.65988 -22522.2841384,-3627198.12327 -22513.4133173,-3626961.79373 -22708.2329105,-3627154.64125 -23143.7100217,-3627689.30608 -23424.6044717,-3627986.33561 -23476.2394138,-3628036.48015 -23565.5018322,-3628121.92023 -23707.545485,-3628259.07385 -24012.1040378,-3628540.66891 -24417.7724417,-3628913.44856 -24894.8917377,-3629271.84491 -25199.0587087,-3629520.52594 -25418.5794316,-3629689.54176 -25557.8168224,-3629788.63997 -25674.348916,-3629880.30966 -25760.8849124,-3629938.16531 -26331.2201252,-3629498.9707 -26932.5248373,-3629035.32187 -27381.571322,-3628688.57773 -27459.0615582,-3628634.1955 -27525.2019116,-3628675.79629 -27595.7789223,-3628718.17834 -27669.6072856,-3628459.1828 -27659.2448761,-3628277.5718 -27636.716419,-3628122.60261 -27631.65118,-3628076.91765 -27614.493345,-3627919.79839 -27592.9426524,-3627776.85553 -27482.641424,-3627477.71694 -27388.7683441,-3627245.42577 -27325.6519834,-3627035.03368 -27246.8552245,-3626832.11762 -27185.889099,-3626560.55041 -27224.1962617,-3626416.93507 -27254.2059395,-3626309.67881 -27283.5608971,-3626204.8732 -27368.9967468,-3626147.00653 -27369.1933865,-3626085.20732 -27370.4285344,-3626011.01221 -27340.5192971,-3625874.01929 -27288.4434494,-3625772.00423 -27236.8862719,-3625677.49957 -27215.6748691,-3625638.76303 -27191.160175,-3625585.36028 -27195.6728367,-3625467.50794 -27199.5299488,-3625379.52266 -27231.45425,-3625171.6953 -27215.6952598,-3624925.9388 -27142.0510694,-3624716.37611 -27101.5064806,-3624542.81736 -27092.6728381,-3624317.4418 -27128.4252538,-3624123.81585 -27102.6735073,-3623984.09873 -27080.7030596,-3623929.86191 -27043.0761118,-3623835.74756 -26968.777954,-3623816.56325 -26892.5215043,-3623718.49531 -26815.8726328,-3623473.85129 -26869.0257746,-3623339.65491 -26820.6517092,-3623171.58185 -26790.4609486,-3622948.83712 -26759.3997538,-3622865.1112 -26743.0928413,-3622823.69736 -26646.4663202,-3622681.46655 -26514.8172377,-3622584.36266 -26346.1496956,-3622430.57085 -26314.8300782,-3622299.97336 -26329.9396545,-3622023.28771 -26202.8475763,-3621874.13656 -26205.7472414,-3621777.61841 -26208.9706227,-3621640.74505 -26278.2962174,-3621553.93526 -26353.9625855,-3621457.55925 -26437.9239624,-3621352.23971 -26423.3897692,-3621306.45315 -26383.623648,-3621179.30697 -26261.8327942,-3621032.9872 -26257.0959848,-3620852.73961 -26227.9674118,-3620530.87211 -26243.5025466,-3620255.21165 -26220.9670374,-3620147.10715 -26210.281764,-3620099.57202 -26168.9494037,-3619926.46908 -26091.5490611,-3619791.44882 -26044.8143306,-3619707.22794 -25938.2780118,-3619599.26669 -25904.0057961,-3619467.98617 -25869.2496666,-3619324.71199 -25834.677674,-3619241.26502 -25770.9215842,-3619201.32281 -25665.0113169,-3619146.23944 -25590.8850552,-3619053.79847 -25528.5346615,-3618976.06312 -25500.830382,-3618941.4038 -25416.7716981,-3618675.86584 -25349.2653245,-3618396.92557 -25246.9139383,-3618144.6819 -25148.6512266,-3617898.68045 -25134.4948079,-3617756.71841 -25171.2871699,-3617616.9972 -25187.862646,-3617552.25462 -25159.7012068,-3617509.09345 -25117.8176588,-3617442.62997 -25032.1698172,-3617088.27106 -24967.9855769,-3616831.4781 -25007.5320766,-3616424.76223 -25064.0002609,-3616218.50154 -25195.8283848,-3616053.91298 -25334.2038995,-3615919.6468 -25481.1393775,-3615697.69741 -25450.0187397,-3615603.00842 -25390.9974933,-3615543.43301 -25347.8190565,-3615497.32523 -25323.7499132,-3615456.41881 -25257.2079947,-3615346.52084 -25189.5079374,-3615215.61463 -25113.1949094,-3615071.20205 -25119.6742902,-3614922.07849 -25122.8468144,-3614852.49696 -25168.2531455,-3614749.70892 -25195.4091088,-3614620.34091 -25217.1388518,-3614580.34934 -25260.3815755,-3614499.8539 -25318.4824808,-3614330.58063 -25342.8519279,-3614131.2522 -25274.1130529,-3613981.34045 -25236.6460824,-3613805.99966 -25172.3821686,-3613616.99523 -25122.0027522,-3613444.82298 -25120.1443925,-3613250.31022 -25159.4007748,-3612894.91631 -25240.8203093,-3612640.89092 -25234.108617,-3612424.6369 -25282.3139374,-3612246.26102 -25358.4528805,-3612157.88295 -25412.0011361,-3612005.26655 -25506.4291971,-3611903.59355 -25628.9332165,-3611775.78854 -25728.4176153,-3611610.13551 -25892.1448176,-3611531.79954 -26023.7061736,-3611473.35423 -26094.2037172,-3611411.03434 -26248.4186445,-3611219.44305 -26307.7464621,-3611089.62107 -26495.0528133,-3610949.97329 -26803.3544955,-3610902.7381 -27021.2455681,-3610909.58214 -27092.4473086,-3610891.1698 -27174.6454663,-3610860.49498 -27231.4332743,-3610825.71583 -27318.8964277,-3610739.54703 -27436.8421736,-3610675.74859 -27520.0131811,-3610700.46448 -27544.2362498,-3610746.86282 -27625.912158,-3610877.65703 -27677.5169878,-3610877.44138 -27794.6558427,-3610814.58847 -27812.5491808,-3610760.39376 -27839.8383362,-3610679.87785 -28063.1476764,-3610569.9244 -28266.4244717,-3610445.73925 -28443.6404258,-3610315.91254 -28500.9679691,-3610268.70455 -28658.0498477,-3610031.92375 -28803.031742,-3609757.98598 -28862.9941579,-3609645.64432 -28804.1410587,-3609528.26035 -28721.3455316,-3609395.40118 -28621.0828713,-3609361.12901 -28529.2263773,-3609296.4848 -28360.6855269,-3609238.44307 -28319.1015465,-3609206.39662 -28213.7921015,-3609125.94585 -28207.4198977,-3609069.21496 -28186.6327159,-3608858.54067 -28105.6493793,-3608815.02412 -28016.208213,-3608790.91006 -27965.034722,-3608725.35736 -27915.9379415,-3608662.42877 -27794.5584978,-3608646.7578 -27693.8527873,-3608623.42526 -27622.4394607,-3608566.55907 -27628.8633724,-3608496.68314 -27688.8563628,-3608450.64032 -27708.1253523,-3608382.57558 -27671.3629718,-3608337.3772 -27623.9468117,-3608338.3589 -27555.7521647,-3608360.45411 -27512.2429337,-3608260.49584 -27408.1789997,-3608140.74823 -27340.5630844,-3608035.773 -27302.3546896,-3607836.45953 -27217.1848101,-3607544.44725 -27082.4614562,-3607070.84778 -27058.6975235,-3607028.96675 -26969.0496367,-3606780.03897 -26871.6191485,-3606594.91946 -26805.580312,-3606386.3686 -26786.0777395,-3606332.29674 -26704.7217514,-3606145.20639 -26612.0911443,-3606006.25049 -26524.3885072,-3605801.31328 -26452.0760358,-3605487.1943 -26377.139427,-3605155.4643 -26349.056135,-3604898.47963 -26300.8971509,-3604564.95816 -26278.1451171,-3604274.91606 -26262.5658575,-3604052.61891 -26241.9039866,-3603859.40846 -26405.6383281,-3603835.88271 -26506.159169,-3603818.82119 -27341.4893781,-3603678.31825 -27591.6041017,-3603365.17461 -27772.3099135,-3603195.67614 -27812.1918568,-3603148.35542 -27953.2872653,-3602958.90192 -27990.4546157,-3602891.47069 -28276.1104175,-3602485.36475 -28658.3323522,-3602002.62259 -28749.2220344,-3601688.85989 -28786.4038991,-3601562.11088 -28796.8076713,-3601511.92596 -28812.0692004,-3601440.11603 -28814.001369,-3601389.89342 -28822.7885336,-3601184.08537 -28860.8995221,-3601058.39176 -28891.2932778,-3600960.12371 -29436.3299842,-3600354.08051 -29523.2659461,-3600291.78899 -29797.0829736,-3600096.26541 -29935.7592715,-3599897.67432 -30030.7968982,-3599667.90907 -30070.7387603,-3599580.21216 -30135.0501905,-3599438.22767 -30151.3951629,-3599325.60976 -30171.550519,-3599263.08009 -30260.8609362,-3599179.00373 -30692.4496162,-3598766.6446 -31091.7842491,-3598284.94565 -31133.1171195,-3598202.81779 -31490.0714839,-3597488.63283 -31545.2512343,-3597396.41283 -31832.7507035,-3596941.0287 -31974.8315506,-3596834.36141 -32057.4953154,-3596756.83801 -32027.4700703,-3596648.26445 -32013.524358,-3596577.09668 -31704.1543546,-3596408.49677 -26772.1067569,-3593714.72485 -28345.4948725,-3592052.57662 -28696.3486691,-3591678.45735 -28652.1996783,-3591517.16196 -28500.7168825,-3591401.92726 -28295.7992165,-3591236.96414 -28022.8034504,-3591017.36162 -27714.9338536,-3590892.25823 -27115.8123442,-3590418.30681 -26903.7320985,-3590197.07312 -26590.7090649,-3589928.59916 -26527.9332521,-3589829.43657 -26431.7210441,-3589707.23007 -26348.006623,-3589544.94098 -26223.3218771,-3589348.66604 -26133.7308676,-3589153.11078 -25907.6280926,-3588660.35297 -25816.1630678,-3588375.96135 -25773.1512823,-3588330.88177 -25675.1677656,-3588264.39131 -25698.7279273,-3588195.10076 -25771.2082053,-3587986.34551 -25729.294411,-3587919.90313 -25642.3672854,-3587780.84203 -25634.4470901,-3587685.14304 -25641.2437155,-3587573.42575 -25639.8243203,-3587283.75057 -25710.0498794,-3587217.40261 -25691.5580545,-3587158.91744 -25671.0177613,-3587101.29998 -25512.2847346,-3586966.68405 -25568.1661278,-3586859.05898 -25727.0254922,-3586766.40021 -25851.8680626,-3586576.89491 -26000.3421652,-3586467.13206 -26138.6716677,-3586296.91756 -26216.6059174,-3586147.81627 -26378.3080532,-3585847.98667 -26598.3084346,-3585674.94325 -26656.2687285,-3585506.63757 -26756.5638053,-3585259.75541 -26685.6351914,-3585072.36 -26724.4008871,-3584876.42704 -26830.0967173,-3584741.53329 -26949.9126918,-3584663.35359 -26939.6217301,-3584522.14661 -26901.7983377,-3584457.95726 -26831.5879437,-3584377.77096 -26742.2079496,-3584344.72481 -26609.1503971,-3584348.30249 -26542.3528564,-3584269.32859 -26583.125751,-3584148.28696 -26658.6181837,-3584093.23213 -26773.5581697,-3584021.22391 -26851.5491919,-3583934.42647 -26731.2114974,-3583696.5686 -26705.7743752,-3583558.39568 -26795.4553881,-3583424.48484 -26850.8307583,-3583388.09892 -26935.7903686,-3583388.46706 -27040.3866122,-3583274.93404 -27174.634009,-3583125.88596 -27304.4364382,-3583055.31009 -27419.8063174,-3582992.29819 -27612.0154903,-3582912.19506 -27769.7399718,-3582790.04404 -27877.2291913,-3582662.23597 -27889.5874069,-3582517.46989 -27937.2745176,-3582338.04433 -27919.2725397,-3582152.98614 -27810.0180202,-3582016.01271 -27701.2911437,-3581878.57456 -27660.0582683,-3581733.92316 -27723.8632762,-3581587.41288 -27855.2560437,-3581432.19883 -27987.3308669,-3581278.02397 -28042.5056834,-3581137.94732 -28037.1952343,-3581012.50449 -28004.2311,-3580898.77852 -27970.1600388,-3580830.34097 -28065.7741177,-3580673.37082 -28040.7077962,-3580453.97458 -28075.2048917,-3580266.24069 -28155.6681535,-3580124.26593 -28265.0109406,-3580073.82806 -28356.0798283,-3580016.75687 -28447.3438382,-3579869.47971 -28507.9715037,-3579812.98423 -28519.4480266,-3579753.395 -28576.6123055,-3579740.04593 -28663.2166929,-3579603.44038 -28735.4802715,-3579405.62015 -28883.4565817,-3579283.84201 -29031.153502,-3579162.54415 -29184.8759012,-3579028.66526 -29207.2380277,-3578982.22152 -29255.7846319,-3578876.11637 -29304.3006677,-3578695.24191 -29367.3045923,-3578521.75864 -29427.9160643,-3578354.60437 -29497.1526327,-3578339.52112 -29629.3262049,-3578310.45349 -29682.8153112,-3578256.49706 -29714.8322243,-3578199.19578 -29702.4859316,-3577963.6486 -29753.2063441,-3577925.96654 -29835.0508986,-3577888.74712 -29980.0072462,-3577941.73037 -30069.7352338,-3577977.28256 -30177.9221274,-3577949.19705 -30213.2055747,-3577871.66402 -30236.155746,-3577827.74843 -30293.8780899,-3577742.15623 -30334.7002451,-3577703.35248 -30418.3391142,-3577681.19894 -30671.9035656,-3577667.74106 -30724.9540916,-3577624.72167 -30740.0981778,-3577546.41939 -30717.3004227,-3577366.03869 -30702.3539671,-3577183.65972 -30697.9389495,-3577127.05625 -30723.742814,-3577085.31341 -30770.6195994,-3577037.41909 -30845.0878022,-3576978.79863 -30888.2424477,-3576926.68235 -30881.0434468,-3576767.7195 -30855.9919057,-3576551.80655 -30870.2087696,-3576460.48573 -30879.8382945,-3576354.91954 -30959.1301206,-3576259.21709 -31045.2418722,-3576181.88782 -31137.7335085,-3576137.85795 -31288.5965649,-3576093.0123 -31439.4911634,-3576047.66993 -31650.7164882,-3576073.4137 -31787.7228962,-3576074.55191 -31905.4817415,-3576096.41233 -31999.5525407,-3576146.19283 -32069.4812167,-3576112.20809 -32118.2390262,-3576014.58345 -32144.9526081,-3575946.4776 -32162.751221,-3575901.23918 -32236.1779853,-3575807.65771 -32181.1701019,-3575691.54503 -32081.1049454,-3575653.84991 -32016.1727783,-3575687.65083 -31926.8704102,-3575665.08804 -31895.5877172,-3575587.8527 -31926.9030311,-3575494.11602 -31975.856164,-3575452.83026 -32019.2493828,-3575341.40947 -31970.0935566,-3575259.06282 -32006.2086363,-3575192.04641 -31997.008133,-3575148.10137 -31979.3859132,-3575051.78637 -31916.2695474,-3574957.59615 -31858.7423731,-3574853.78817 -31837.1914947,-3574808.07001 -31786.379804,-3574668.79496 -31680.9978188,-3574660.17686 -31596.1976309,-3574803.88696 -31474.1537421,-3574703.50105 -31418.5388582,-3574545.48187 -31306.9582702,-3574429.30521 -31153.8266482,-3574399.24316 -31018.0218127,-3574426.59613 -30861.0948666,-3574425.20613 -30738.724382,-3574460.88015 -30696.8413253,-3574346.09488 -30625.7658926,-3574295.27109 -30548.7493923,-3574196.22231 -30448.2928986,-3574129.09699 -30385.8256617,-3574131.65074 -30405.5041619,-3574207.15717 -30434.1706093,-3574314.13274 -30436.8688863,-3574406.0179 -30359.7196791,-3574420.10987 -30324.4516757,-3574378.51525 -30296.7997406,-3574299.01851 -30213.1381563,-3574301.73527 -30116.2035272,-3574368.91492 -30065.9801386,-3574497.8477 -30017.5284225,-3574531.18908 -29980.8123531,-3574461.09189 -29988.4752235,-3574378.83075 -29959.4216743,-3574226.47256 -29897.2735368,-3574116.89501 -29826.1266748,-3574094.97761 -29683.4052082,-3574121.39724 -29567.9721345,-3574114.1421 -29496.4572444,-3574169.46088 -29396.4046527,-3574282.30091 -29209.3989525,-3574232.16662 -29083.4498194,-3574217.77052 -29063.0526652,-3574157.6722 -29087.9353152,-3573991.75916 -29080.5345477,-3573946.93258 -29062.0322222,-3573880.47369 -29024.6621475,-3573816.81661 -28983.0260055,-3573706.03793 -28937.808154,-3573723.63232 -28916.0520437,-3573823.94718 -28879.9241076,-3573847.5956 -28779.6386726,-3573920.54501 -28678.0240553,-3573978.95588 -28618.9971627,-3573998.17428 -28523.8890158,-3573996.6827 -28441.825339,-3573962.11715 -28391.7038991,-3573803.95291 -28331.45267,-3573775.24445 -28219.5909758,-3573766.71903 -28142.4679907,-3573713.02544 -28116.9430859,-3573675.03553 -28083.4488473,-3573621.09333 -28105.6289217,-3573549.71566 -28150.1326187,-3573531.57811 -28191.8121283,-3573514.75836 -28258.551443,-3573535.40083 -28306.3730637,-3573615.16534 -28375.2557468,-3573629.46295 -28469.7275712,-3573585.55614 -28504.4932663,-3573551.85337 -28511.8184024,-3573455.11821 -28580.4476329,-3573394.13546 -28622.5031203,-3573367.37033 -28675.0836703,-3573323.82116 -28731.3918612,-3573268.5436 -28738.9037646,-3573168.82919 -28689.3101838,-3573188.64112 -28625.3053376,-3573247.42258 -28527.4584997,-3573269.68507 -28496.4772803,-3573215.40226 -28556.7204969,-3573176.82051 -28682.6384352,-3573096.50901 -28713.966468,-3573042.15384 -28648.6382883,-3572975.24563 -28562.732885,-3573013.71047 -28520.139962,-3572977.63881 -28497.8899442,-3572887.51881 -28448.3867216,-3572822.60216 -28375.7657368,-3572851.933 -28247.6682309,-3572863.82185 -28221.6243166,-3572798.38569 -28201.6562723,-3572751.27501 -28149.3302646,-3572683.68923 -28074.448429,-3572606.21305 -28013.470445,-3572616.83651 -27891.9253673,-3572615.67969 -27871.3399561,-3572558.56187 -27857.8766152,-3572451.54986 -27772.73931,-3572422.27633 -27673.3732664,-3572349.74232 -27641.7756005,-3572281.46593 -27538.5733099,-3572269.99817 -27515.1823198,-3572348.77587 -27507.2624538,-3572466.9046 -27478.2008066,-3572520.9029 -27380.0739926,-3572551.62164 -27282.9324341,-3572606.32673 -27147.2329772,-3572529.01805 -27010.7890248,-3572451.66291 -26877.5217429,-3572434.81706 -26849.6766839,-3572374.25358 -26837.2869427,-3572305.68948 -26743.3004687,-3572298.28964 -26699.6518067,-3572267.13735 -26658.4231002,-3572237.13398 -26679.1804939,-3572144.73447 -26684.6746644,-3572041.40762 -26601.4348657,-3572001.7874 -26546.6228684,-3572045.19584 -26459.0742987,-3572090.03663 -26405.0700311,-3572033.31304 -26395.7498184,-3571971.4218 -26370.2646223,-3571905.0262 -26320.4376798,-3571884.94992 -26210.1537403,-3571803.75776 -26174.003301,-3571708.78105 -26156.5174265,-3571661.82817 -26139.496798,-3571615.40296 -26121.7314509,-3571568.93101 -26045.9290988,-3571561.67762 -26035.1692782,-3571637.75809 -26080.4281013,-3571778.16432 -26058.6123618,-3571883.4554 -25981.219623,-3571901.52102 -25914.785276,-3571903.8272 -25854.8373914,-3571902.0551 -25813.0527652,-3571865.03959 -25909.3807191,-3571724.05767 -25858.3815524,-3571682.97454 -25805.239408,-3571648.23628 -25739.0060993,-3571702.88895 -25644.6457522,-3571705.43482 -25552.2289323,-3571744.48697 -25494.9344905,-3571791.72619 -25422.0392305,-3571817.5504 -25356.7917743,-3571797.0042 -25357.3082702,-3571733.23986 -25414.7572175,-3571687.50565 -25517.7253304,-3571643.13532 -25569.2493176,-3571592.54301 -25562.1279631,-3571543.25114 -25526.8271881,-3571510.1322 -25473.3023945,-3571509.26231 -25408.8707488,-3571559.04384 -25301.7204159,-3571582.71662 -25228.8727881,-3571556.21079 -25154.6593728,-3571531.61287 -25021.5928085,-3571479.8931 -24997.2253108,-3571411.57571 -25029.4244111,-3571339.33511 -25038.8728983,-3571288.09397 -25069.4233929,-3571127.0328 -25017.0216889,-3571005.12031 -24848.9072636,-3571007.52077 -24789.5503723,-3571004.29136 -24690.8624591,-3571059.89585 -24578.8916443,-3571124.63403 -24505.8215735,-3571117.55281 -24466.1599983,-3571038.80591 -24401.670021,-3570978.436 -24282.7904047,-3571010.34386 -24131.2716046,-3571034.22088 -24103.8433829,-3571133.67387 -24116.6379253,-3571199.76812 -24087.2371259,-3571255.23778 -23950.7752044,-3571253.64455 -23832.6458454,-3571269.64992 -23774.5444641,-3571222.63994 -23757.8517845,-3571119.41967 -23788.8484663,-3571018.69614 -23756.3136518,-3570973.2921 -23679.2430291,-3570962.47104 -23570.5862214,-3570950.66309 -23480.2401449,-3571028.22139 -23429.6245476,-3571159.60961 -23342.861649,-3571188.05128 -23286.8399555,-3571139.67715 -23298.4381629,-3571058.17031 -23227.4957458,-3570997.39616 -23142.7501263,-3571025.46624 -23073.8054752,-3571028.11374 -22918.598713,-3571047.27287 -22883.0543107,-3571105.34598 -22865.1320579,-3571168.51295 -22812.1537004,-3571214.52635 -22746.7229321,-3571192.97312 -22644.6044385,-3571112.79759 -22563.2426018,-3571035.42109 -22523.5077844,-3570997.53991 -22478.7402786,-3570980.27506 -22444.8462007,-3571020.01104 -22377.8111572,-3571071.62043 -22287.2390609,-3571081.38205 -22236.3372164,-3571034.82547 -22195.0378749,-3570938.53497 -22151.5848283,-3570884.47219 -22105.0129102,-3570884.0393 -22063.3681211,-3570904.34965 -22076.1588303,-3570982.40274 -22056.2560493,-3571029.49617 -22041.9398656,-3571070.95982 -22035.389907,-3571183.18359 -22028.3580214,-3571247.53206 -21962.763628,-3571256.37021 -21902.1983727,-3571256.55329 -21844.8923476,-3571252.45562 -21655.7225608,-3571141.89446 -21533.1945394,-3571148.65197 -21493.0344291,-3571185.00339 -21438.8075782,-3571258.84658 -21401.6284498,-3571287.41102 -21320.2036683,-3571219.00256 -21283.4794709,-3571180.81266 -21192.7377173,-3571141.72204 -21123.2015967,-3571157.78822 -21064.9058802,-3571145.65443 -21024.7674741,-3571213.4047 -20999.2586367,-3571329.91798 -20965.5062117,-3571415.01401 -20893.0155148,-3571454.31794 -20832.4337171,-3571411.14097 -20787.2856104,-3571324.57804 -20791.1781522,-3571278.47359 -20844.2533027,-3571215.02478 -20894.9564123,-3571197.27753 -20946.2916642,-3571141.6933 -20928.7145798,-3571092.24679 -20882.9853771,-3571078.41045 -20811.0035663,-3571077.87659 -20704.8601766,-3571081.67605 -20637.4362062,-3571091.89429 -20638.8650365,-3571188.1703 -20656.1313931,-3571238.59384 -20602.6608649,-3571276.60051 -20544.0780747,-3571392.03232 -20525.8218357,-3571432.74902 -20470.940507,-3571417.83926 -20520.8635042,-3571313.32628 -20540.9800257,-3571175.54353 -20515.8945025,-3571126.62249 -20414.4027543,-3571139.68468 -20383.0253611,-3571171.10491 -20330.6817729,-3571278.45594 -20275.9766089,-3571296.44994 -20237.9185147,-3571259.67191 -20222.6355016,-3571217.3472 -20157.7252668,-3571227.22468 -20106.4804262,-3571293.27955 -20062.6078869,-3571297.50112 -20012.7234569,-3571278.42008 -19945.6890682,-3571234.83856 -19920.1746717,-3571168.94647 -20006.497562,-3571143.46929 -20051.2142922,-3571117.87074 -20047.2624486,-3571053.83122 -20028.3739543,-3570930.04603 -20060.9705222,-3570867.30516 -20108.2183791,-3570781.56258 -20075.7224954,-3570715.73049 -20043.3236444,-3570636.44858 -20123.2455762,-3570538.30501 -20176.449975,-3570452.93618 -20150.865285,-3570411.95833 -20093.240164,-3570337.57127 -20023.1849118,-3570330.18201 -19915.7442289,-3570318.95008 -19863.4399225,-3570298.72119 -19918.4181782,-3570193.03085 -19941.3281502,-3570149.61627 -19917.7774435,-3570048.46389 -19859.5807598,-3570018.89465 -19795.2114598,-3570091.60149 -19703.3433457,-3570197.46713 -19551.8891411,-3570145.09765 -19400.4040957,-3570093.22482 -19264.0031577,-3570023.36156 -19190.3744942,-3569930.03002 -19230.2887545,-3569877.71628 -19336.147876,-3569882.3694 -19411.3557532,-3569879.11764 -19518.8818409,-3569805.63216 -19631.5602395,-3569725.49278 -19722.5713371,-3569684.85879 -19756.5144538,-3569572.86395 -19736.8896313,-3569520.30015 -19655.9092371,-3569528.17364 -19559.0995076,-3569557.97808 -19503.3047481,-3569593.34762 -19478.9549343,-3569683.5179 -19438.4184793,-3569741.77327 -19379.2758051,-3569766.96511 -19340.1513604,-3569659.85242 -19314.6333255,-3569601.93531 -19212.9068997,-3569575.11584 -19099.9258528,-3569521.17673 -19144.7547668,-3569422.32541 -19194.490992,-3569415.97895 -19317.1465878,-3569379.32492 -19369.686563,-3569332.28863 -19398.6647895,-3569219.98263 -19381.1801331,-3569169.04869 -19342.9978043,-3569130.2713 -19302.637434,-3569114.2819 -19259.1450205,-3569092.61392 -19216.6826874,-3569161.71249 -19174.5308328,-3569229.83372 -19046.9518411,-3569344.91983 -19013.6839212,-3569374.72639 -18914.0371137,-3569457.67704 -18835.428493,-3569419.8503 -18729.0927398,-3569458.52517 -18656.2864343,-3569530.70144 -18577.2262402,-3569555.63935 -18509.9384556,-3569531.979 -18492.2038853,-3569489.00368 -18532.5156818,-3569343.02425 -18533.7453774,-3569271.83648 -18486.777661,-3569253.9373 -18320.033003,-3569191.14234 -18221.4487991,-3569138.10837 -18221.9293083,-3569082.82126 -18171.6772227,-3569049.76552 -18096.5473376,-3569000.19759 -18062.0618437,-3568946.20418 -18108.4556424,-3568905.75972 -18119.4526835,-3568853.62462 -18098.6201029,-3568792.51463 -18009.6125544,-3568777.45898 -17951.4642321,-3568687.59425 -17873.7826104,-3568666.77112 -17748.7825276,-3568665.40371 -17667.4437004,-3568631.39402 -17499.5668553,-3568515.20718 -17449.0294004,-3568506.55337 -17455.4613844,-3568586.69264 -17424.8681578,-3568712.84763 -17391.5273221,-3568787.5003 -17343.3236961,-3568868.69515 -17206.4918725,-3568912.93071 -17069.1327681,-3568957.6313 -16961.8259516,-3568928.46992 -16897.5438435,-3568809.31756 -16919.6222584,-3568735.45361 -16957.4497216,-3568704.43899 -16938.7371277,-3568605.58916 -16920.5984101,-3568565.08155 -16900.0411015,-3568519.43873 -16814.056262,-3568460.22091 -16742.8496674,-3568479.17371 -16659.6479986,-3568455.01462 -16605.7131659,-3568508.44024 -16502.2956818,-3568556.26823 -16410.0527478,-3568465.76089 -16346.6725304,-3568455.30445 -16261.173258,-3568439.97138 -16358.4260237,-3568355.37779 -16501.1436184,-3568336.42816 -16500.1675015,-3568272.57944 -16434.6250743,-3568225.11041 -16357.4882358,-3568144.02349 -16218.3898789,-3568085.46004 -16201.9322155,-3568022.13507 -16206.6672313,-3567946.68501 -16292.5244535,-3567896.75763 -16386.0606955,-3567784.02303 -16366.4013115,-3567743.91896 -16294.4086573,-3567684.08575 -16202.2925596,-3567702.72378 -16162.8723561,-3567655.89813 -16075.4540306,-3567746.59128 -15964.5440013,-3567862.22171 -15877.1159691,-3567746.60331 -15852.4284625,-3567592.06559 -15811.6043176,-3567452.46214 -15767.9629932,-3567413.3454 -15722.8850061,-3567413.00852 -15631.4239245,-3567421.22284 -15512.4012402,-3567479.53411 -15470.231907,-3567385.19519 -15418.9807434,-3567256.89843 -15159.5459839,-3567309.38942 -14995.8586787,-3567205.93156 -14812.3353748,-3567152.55717 -14685.8036081,-3567096.28065 -14527.5178626,-3566982.19989 -14369.0340488,-3566918.93606 -14279.0761589,-3567006.47808 -14217.0710475,-3566962.22385 -14211.8453456,-3566759.57799 -13986.9348956,-3566591.48735 -14017.2958782,-3566504.69136 -14028.2747331,-3566385.28536 -14041.0583731,-3566241.07661 -13976.1442929,-3566163.75189 -13864.2267716,-3566100.92005 -13808.4187931,-3566088.94801 -13706.6251241,-3566118.93988 -13520.3810626,-3566037.49336 -13439.9403683,-3566028.95945 -13353.9464161,-3566021.57217 -13264.9885015,-3566089.2441 -13225.0857656,-3566121.62296 -13158.9847928,-3566083.09315 -13054.8005177,-3565988.35709 -12927.2011837,-3566000.78409 -12843.333071,-3565923.767 -12782.9974111,-3565908.52141 -12709.101008,-3565910.86265 -12692.8049099,-3565952.19662 -12706.0871036,-3566070.13201 -12730.9801991,-3566149.92778 -12706.4281808,-3566207.6863 -12582.0648971,-3566180.45119 -12547.3887698,-3566149.37424 -12501.1169347,-3566088.66822 -12494.7161332,-3565996.08014 -12474.221611,-3565945.46236 -12403.7804812,-3565896.69483 -12364.0349577,-3565922.60521 -12368.3575546,-3566151.59824 -12279.8002099,-3566236.73458 -12202.9858288,-3566249.855 -12159.7776827,-3566223.72432 -12101.6750599,-3566077.56502 -12018.5446313,-3566036.47278 -11913.4362599,-3565920.7518 -11849.1742913,-3565848.95215 -11745.7702958,-3566019.86103 -11700.8942997,-3566099.76385 -11451.1002163,-3565982.94062 -11331.2625124,-3565843.87353 -11292.1321883,-3565756.70885 -11248.8468612,-3565660.31436 -11290.8346861,-3565447.68406 -11303.8292677,-3565319.93872 -11310.9161857,-3565254.60813 -11297.8657693,-3565208.44479 -11250.0662322,-3565184.02046 -11096.8040379,-3565105.14617 -10991.1215446,-3564915.14688 -10952.6379871,-3564845.46415 -10782.1844263,-3564794.41396 -10563.9992376,-3564694.0301 -10376.7519443,-3564394.27854 -10229.869224,-3564376.5982 -10096.6360409,-3564359.77373 -9905.12459376,-3564290.96181 -9728.11853849,-3564129.88093 -9535.51694035,-3563927.46252 -9493.70687278,-3563894.94455 -9339.47360293,-3563716.35889 -9261.68127298,-3563506.68987 -9175.05857736,-3563406.08893 -9000.03762723,-3563416.0456 -8895.2298296,-3563355.16388 -8826.54806263,-3563194.89882 -8684.17601797,-3563125.1856 -8607.12151424,-3563122.349 -8499.8365667,-3563212.28921 -8433.99086493,-3563324.75745 -8391.88384273,-3563392.37429 -8266.39718848,-3563442.80595 -8056.47218992,-3563500.89935 -7949.38761428,-3563516.1105 -7771.94459537,-3563389.88798 -7492.34840241,-3563116.75275 -7330.03285991,-3563051.27189 -7179.11519864,-3563086.15792 -7110.00992715,-3563047.9448 -7107.83289457,-3562903.81113 -6925.80880545,-3562906.35393 -6929.39846176,-3562777.5299 -6867.76901904,-3562739.28756 -6673.94215587,-3562834.76332 -6606.02334844,-3562932.64906 -6513.24729934,-3562914.37784 -6467.71230715,-3562905.54484 -6408.54007417,-3562832.08056 -6376.87610159,-3562792.72697 -6384.31015105,-3562674.11013 -6444.62413799,-3562602.15541 -6512.25018099,-3562580.4843 -6517.86278481,-3562407.44324 -6565.77682413,-3562286.87853 -6678.51444845,-3562209.2397 -6627.09548702,-3562139.25129 -6554.24200747,-3562069.41463 -6488.60390097,-3562075.26672 -6428.85417438,-3562114.37256 -6409.87982624,-3562055.3861 -6464.05020472,-3561990.02139 -6502.80080073,-3561944.11881 -6569.4391123,-3561890.49674 -6564.49547816,-3561766.61969 -6521.05427573,-3561656.77302 -6591.25672556,-3561621.80939 -6677.40082603,-3561602.79216 -6697.32143761,-3561563.18327 -6651.72879096,-3561523.45581 -6609.70600238,-3561466.51312 -6599.70574554,-3561339.82801 -6271.92739503,-3561314.80853 -6090.75980218,-3561415.06673 -5992.81763727,-3561511.07187 -5904.95636926,-3561609.20305 -5899.01397023,-3561723.92641 -5895.4372376,-3561784.98702 -5879.20099049,-3561869.17038 -5870.567809,-3561931.40888 -5837.02877911,-3561977.63753 -5750.73471427,-3561971.23381 -5714.32775376,-3561912.15223 -5667.16580665,-3561798.08782 -5630.44278378,-3561775.85695 -5564.77958998,-3561750.31806 -5426.84293815,-3561721.24734 -5343.38530735,-3561629.82179 -5287.39952948,-3561608.87546 -5214.78849544,-3561582.90157 -5098.24992957,-3561590.04902 -5079.5230352,-3561535.06547 -5063.92752029,-3561489.74476 -5117.69188325,-3561430.83283 -5190.62580464,-3561372.1253 -5191.09993996,-3561312.864 -5138.46507615,-3561286.14902 -5152.37723263,-3561179.40005 -5159.73713576,-3561121.56665 -5120.72040193,-3561088.23133 -5073.94140274,-3561107.2235 -5007.95599785,-3561166.36652 -4956.593055,-3561139.23318 -4955.79802588,-3561060.4612 -5026.16294227,-3560959.24189 -5013.73074842,-3560915.11604 -4964.01201727,-3560885.59471 -4871.4435902,-3560947.55675 -4819.72439413,-3561025.53008 -4785.95741109,-3560940.20864 -4733.29164709,-3560913.99045 -4647.86953647,-3560893.69219 -4700.03092141,-3560756.95445 -4692.13848551,-3560632.39849 -4629.97986315,-3560614.55429 -4588.06718918,-3560663.24752 -4530.89106853,-3560728.92115 -4478.19656121,-3560687.25609 -4419.41949229,-3560667.13252 -4400.79921802,-3560733.72638 -4345.92147053,-3560778.61777 -4292.91126424,-3560777.78836 -4280.67005267,-3560698.79852 -4227.38509116,-3560666.56313 -4168.41234416,-3560717.17675 -4122.19154316,-3560743.1791 -4096.5833074,-3560650.89634 -4067.90396287,-3560559.916 -4023.62738587,-3560431.58776 -4000.52751946,-3560366.86525 -3982.57484775,-3560315.41924 -3923.63044954,-3560154.78407 -3902.94856371,-3560099.18141 -3722.70485952,-3560081.41585 -3732.20511223,-3560013.25496 -3868.50005504,-3560000.86511 -3904.45828764,-3559935.85572 -3950.55876059,-3559875.96552 -4008.97313882,-3559818.34109 -3998.96598994,-3559723.54834 -3900.67313753,-3559693.97601 -3841.77150046,-3559679.82455 -3789.54208227,-3559638.68823 -3724.03826931,-3559586.75611 -3658.1553216,-3559592.59505 -3585.13269454,-3559644.82047 -3461.28192318,-3559613.64794 -3376.03559307,-3559431.43881 -3462.67681061,-3559360.6352 -3528.4695484,-3559328.38425 -3541.56904326,-3559242.51264 -3517.38411937,-3559163.27459 -3471.63648019,-3559130.01821 -3402.18620228,-3559141.11475 -3286.16233088,-3559291.28979 -3186.86115524,-3559405.14444 -3071.19453319,-3559418.32886 -3044.8073819,-3559342.44101 -3068.82677386,-3559241.31065 -3095.44399049,-3559206.10862 -3177.83237586,-3559159.45184 -3221.63970261,-3559068.52824 -3207.09798196,-3559018.29335 -3163.27787345,-3558946.29632 -3053.26172272,-3558913.00224 -2960.83213899,-3558885.29337 -2901.68352174,-3558867.14162 -2828.99422883,-3558719.10239 -2777.1109968,-3558632.651 -2738.28375405,-3558568.44067 -2605.2604258,-3558464.95264 -2550.82745911,-3558439.12508 -2502.59837359,-3558409.70018 -2510.26758972,-3558330.96328 -2569.26661401,-3558291.80967 -2658.03553361,-3558322.27764 -2701.08414563,-3558358.85157 -2748.20099681,-3558346.35624 -2787.56543394,-3558314.44313 -2793.80786192,-3558234.6201 -2671.04334691,-3558206.00991 -2659.97652542,-3558140.05016 -2710.51465006,-3558029.12095 -2717.83907246,-3557983.74304 -2713.66475846,-3557843.48149 -2620.59085201,-3557738.50986 -2553.00660464,-3557707.87406 -2449.9987218,-3557697.93927 -2403.50844166,-3557644.70935 -2366.5785467,-3557510.37003 -2396.61135461,-3557416.59169 -2498.59828428,-3557395.07427 -2565.35375687,-3557323.5227 -2585.08684075,-3557251.02108 -2552.92660511,-3557191.71313 -2500.82116019,-3557144.60899 -2454.75877174,-3557164.14623 -2421.00491673,-3557249.72039 -2394.10927708,-3557293.37509 -2295.31628654,-3557327.54797 -2216.66413708,-3557234.93941 -2235.46753083,-3557149.42636 -2244.81212173,-3557043.89087 -2208.21459475,-3557007.72188 -2051.30809594,-3556883.81156 -2001.46410811,-3556876.20857 -1955.89693522,-3556915.70541 -1879.09544721,-3556956.73513 -1755.18771565,-3556886.70465 -1710.2801233,-3556820.12326 -1658.23692461,-3556776.01324 -1535.40657718,-3556820.14117 -1384.8500098,-3556829.65205 -1283.88572236,-3556890.59242 -1232.05941853,-3556854.96575 -1233.40039168,-3556757.89894 -1257.7868049,-3556658.78669 -1214.71111214,-3556566.912 -1135.64939154,-3556568.44173 -1036.55089464,-3556571.70697 -997.441723393,-3556531.89436 -1008.61210292,-3556468.82282 -1050.79565529,-3556455.5196 -1129.70173309,-3556460.45669 -1170.52268711,-3556417.17568 -1195.12666011,-3556302.63258 -1158.71822579,-3556223.63061 -1071.03688992,-3556179.78285 -1021.53744288,-3556130.85091 -1035.4358643,-3556083.8926 -1129.01605654,-3556037.43546 -1139.99966335,-3555977.34129 -1088.82754685,-3555887.45185 -1102.41673846,-3555821.54221 -1170.6555441,-3555785.95451 -1230.30196854,-3555764.27726 -1203.47641224,-3555695.34103 -1159.15753218,-3555623.31773 -1220.29246746,-3555605.7191 -1270.4173303,-3555572.98365 -1254.60231744,-3555507.22726 -1226.90621655,-3555472.11483 -1206.03857242,-3555343.76649 -1215.75058519,-3555268.14817 -1116.36805152,-3555367.55176 -1062.58393368,-3555391.09066 -1008.55172243,-3555414.61401 -952.35751778,-3555257.65157 -901.213424462,-3555211.10869 -780.405315793,-3555183.12595 -673.055144359,-3555226.72996 -515.49316283,-3555196.94658 -371.803531668,-3555001.13373 -336.63539686,-3554902.28324 -366.044059907,-3554778.57598 -306.280476752,-3554658.75766 -224.894800366,-3554633.73988 -165.901981217,-3554633.03973 -92.9519389947,-3554632.46311 -77.1988704534,-3554549.77343 -117.335864637,-3554493.49607 -152.60307132,-3554443.39069 -128.03998332,-3554394.02756 -69.1716642226,-3554383.37146 -9.83817681705,-3554372.1881 211.019091866,-3554119.74121 276.186351281,-3554205.8396 376.868849645,-3554349.99844 559.333324816,-3554292.25627 521.986562244,-3554177.01811 460.29040072,-3553987.07877 490.187960313,-3553923.43338 558.66937251,-3553863.35387 667.722707535,-3553930.26759 752.707311352,-3553982.74391 817.810007744,-3554008.06642 866.07095208,-3554026.96911 985.508635566,-3553897.4445 997.199664082,-3553825.47248 994.060251651,-3553524.26447 1238.33948523,-3553562.79628 1412.12758347,-3553924.07547 1432.38174604,-3553965.1548 1587.365433,-3553965.92593 1741.60823139,-3554102.2491 1807.48387686,-3554080.19535 1880.92896316,-3554119.44287 1853.10275262,-3553921.41187 1937.86509544,-3553842.87932 2010.624857,-3553775.55923 2046.01414496,-3553819.6773 2154.41840573,-3554067.46902 2318.20182561,-3553822.58591 2427.1532469,-3553656.85522 2381.68416828,-3553598.92041 2250.30171588,-3553437.75396 2258.7978482,-3553326.62721 2313.88053244,-3553335.13988 2692.88278854,-3553393.14654 3042.16583626,-3553147.13287 3432.94721281,-3553090.82097 3510.58046705,-3553380.38511 3524.1346075,-3553429.85269 3829.22305025,-3553508.91766 4017.04885951,-3553716.36695 4131.70584594,-3553633.97564 4267.94955076,-3553606.02914 4341.36703389,-3553923.74929 4674.2424567,-3554080.77838 4865.84406302,-3554053.853 5004.31898297,-3554029.75151 5175.45033513,-3553990.15802 6039.34024102,-3554509.50898 6112.38013452,-3554625.99102 6333.08200067,-3554968.86065 6466.22400411,-3555058.66782 6639.80740658,-3555169.85595 6852.26245751,-3554891.05837 7045.7001961,-3555172.36433 7293.08346442,-3555113.55325 7463.6274408,-3555267.76934 7642.35851161,-3555421.47243 7732.37012036,-3555689.81568 7760.93692978,-3555772.21325 8083.34353897,-3555869.6033 8191.76053752,-3555858.83581 8300.61144672,-3555847.04493 8476.08882637,-3555518.75999 8518.04361881,-3555440.91838 8751.53166482,-3555466.66146 8913.78500389,-3555484.40711 9224.52964453,-3556191.72856 10017.4536753,-3556652.18997 10087.6356262,-3556711.05911 10806.736775,-3557420.69788 10984.3185434,-3557603.84588 11344.7543616,-3557974.78965 11345.6384425,-3558140.10513 11348.2519806,-3558535.93501 11575.6292331,-3558925.66209 11795.5027699,-3559306.89033 13320.3504558,-3559918.19846 13561.3788836,-3559873.71633 13795.4914818,-3559830.16569 13839.3431768,-3559870.25474 14098.8594164,-3559894.34682 14829.8955999,-3559959.63544 14962.3797663,-3559844.25196 15060.452994,-3559795.77365 15048.3752345,-3559670.51714 15066.5068111,-3559343.64104 15279.5910215,-3559306.3907 15402.7075853,-3559427.18392 15494.9177672,-3559360.64516 15662.1252358,-3559199.25997 15797.7013374,-3559280.42307 15991.54326,-3559381.34641 16322.7925804,-3559059.77369 16700.7645955,-3559245.79118 16922.4424315,-3559027.70657 17131.6112856,-3559508.68233 17263.853198,-3559978.0369 17748.9123874,-3559615.45773 18059.1043271,-3559864.48125 18370.3721555,-3560281.77456 18642.5832884,-3560548.61035 18765.7575639,-3560670.38625 19194.2751224,-3561178.43892 19555.1264632,-3561405.34857 19827.5678642,-3561560.5994 19951.8147006,-3561604.11211 20337.4837164,-3561738.32123 20763.3081867,-3561714.62764 21128.8284933,-3561908.86324 21630.6449362,-3562291.27325 22075.1865318,-3562629.95472 22619.0868627,-3562567.47934 22913.9735787,-3562949.89556 23235.8497507,-3562730.01946 23743.3659567,-3562810.26076 24413.3092086,-3562915.6773 24906.5646614,-3563054.57571 25307.9077286,-3562934.8006 26031.4059133,-3562870.03026 26319.0049702,-3562635.88013 26736.0729187,-3562783.03627 27074.6441231,-3563115.87504 27526.1854064,-3563447.6035 28039.1054288,-3563924.37053 28636.3766022,-3563927.75576 29169.0595743,-3563893.85963 29880.4164395,-3563818.88436 30832.4927173,-3563810.97881 31392.5483601,-3563721.59012 31786.5813756,-3564026.0208 32140.6088702,-3563946.56102 32309.7926348,-3563897.1148 32456.3474987,-3563852.07518 32735.4709128,-3563737.47923 33154.7126455,-3563649.95017 33740.0705718,-3563392.67438 34521.2325008,-3563105.70254 35192.214314,-3562959.58019 35415.6339531,-3562901.76028 36002.2577885,-3562728.56605 36667.8008563,-3562051.04389 37362.7547839,-3561540.97548 37813.7453913,-3561507.73854 38230.0484392,-3561477.17317 38395.1792568,-3561379.20047 38924.5179371,-3562111.76038 39011.7597878,-3562232.75221 39168.6037628,-3562089.99164 39246.3555666,-3561996.00063 39387.1884472,-3562122.09718 39466.827331,-3562193.27991 39666.1326688,-3562410.30523 40031.7294077,-3562818.04257 40181.884027,-3562902.22856 40370.6023961,-3563021.83407 40409.413629,-3563053.25561" style="stroke-linejoin:round;stroke:#000;stroke-width:1px;fill:none" /></g></g></svg>