<svg xmlns="http://www.w3.org/2000/svg" baseProfile="full" height="113860.861725" version="1.1" viewBox="-29094.987252,3794101.685915,109137.889156,113860.861725" width="109137.889156"><defs><style type="text/css">polyline,line,rect,path,polygon,.polygon{fill:none;stroke:#000;stroke-width:1px;stroke-linejoin:round;}</style></defs><g fill_rule="evenodd" transform="scale(1,-1)"><g class="id" id="30056"><polygon class="_30056" id="None" points="1472.10075571,-3798792.34047 1722.55921526,-3798920.84308 1914.68141639,-3799018.80591 2321.7970615,-3799270.53568 3791.33846004,-3797934.52905 3929.79083647,-3797793.31944 4002.71540622,-3797720.22807 4671.85542319,-3797037.64557 4342.89316367,-3796674.60019 5124.9246889,-3795874.94396 5135.00575152,-3795721.77619 5149.80759688,-3795606.17362 4961.98352799,-3795346.44863 4946.90422689,-3795246.27275 4914.06031334,-3795031.64503 4912.78341419,-3794966.94027 4980.85505263,-3794699.30858 6414.1971981,-3794605.28918 6273.61735373,-3794850.28604 6905.17037133,-3794648.16635 7587.82854247,-3794416.26799 7494.27968357,-3794879.4283 7464.09309048,-3795067.80402 7723.12320267,-3794982.94531 7789.46049083,-3794961.1282 7797.64316708,-3795617.9164 7824.79089459,-3797868.6838 7893.65231136,-3797904.0076 7953.22699913,-3797926.98702 8002.96217106,-3797948.12399 9190.56259314,-3798450.816 9451.57460796,-3798501.86092 9527.31146472,-3798516.79555 9921.58877619,-3798518.17991 10173.0797177,-3798783.63797 10499.7016271,-3798749.12131 10785.7068175,-3798861.80169 11095.6390708,-3798800.97844 11166.0652192,-3798841.17908 11472.316444,-3799147.36607 11701.8575111,-3799310.61249 11891.54433,-3799598.57757 11927.1232025,-3799926.11719 12091.2094477,-3800086.705 12150.5933483,-3800144.57546 12436.4345571,-3800168.05794 12606.1042552,-3800284.92151 12796.3030053,-3800471.1894 12834.7359481,-3800577.78219 12729.5193527,-3800663.46433 13130.6473132,-3800783.97587 13341.0134199,-3800717.26203 13553.709817,-3800651.88966 13650.6828023,-3800735.67923 13664.7536302,-3800926.10001 13706.139736,-3800964.22787 13857.3426046,-3801095.76057 13880.0969882,-3801285.60712 13520.9558523,-3801363.14592 13680.14439,-3801445.81478 13873.9687561,-3801517.22584 13915.899999,-3801665.44273 13769.2007703,-3801877.44582 14119.3009436,-3801979.89088 14417.1069611,-3802029.97957 14792.8135166,-3802059.97236 14860.0415924,-3802134.76047 14996.9270538,-3802287.16548 15373.1262424,-3802317.12362 15500.9487468,-3802441.72296 15755.4640448,-3802504.13559 15830.2158656,-3802523.11465 16160.6446063,-3802678.67345 16451.2489668,-3802642.53063 16655.9901614,-3802724.6733 16871.7476967,-3802660.58919 17032.7320455,-3802770.53637 17439.2202214,-3802704.81227 17562.5267361,-3802685.7029 17714.7570451,-3802663.18769 18086.4616917,-3802855.37637 18179.6286941,-3803134.23132 18439.0848708,-3803297.95796 18815.2743726,-3803052.86463 19109.5285166,-3802974.12723 19241.6529823,-3803054.58566 19438.7067309,-3803175.09836 19820.679907,-3803266.44941 20266.4122726,-3803357.5717 20469.6328178,-3803503.58274 21071.4572019,-3803276.46937 21398.8377154,-3803167.6424 21719.1210255,-3803460.37009 21987.0685239,-3803669.85983 22059.8686553,-3803648.10838 22134.0201439,-3803605.34165 22252.4824697,-3803396.22476 22304.6874766,-3803304.08864 22242.6759961,-3803142.27353 22361.6214589,-3803042.23984 22701.9948118,-3803239.46935 22829.7952452,-3803179.20785 22955.7095457,-3803120.56593 23053.8289203,-3802920.27054 23090.2494466,-3802845.62063 23418.479189,-3802821.44159 23523.6876947,-3802852.85336 23609.8676771,-3802879.04541 23723.705544,-3802912.87611 24017.3051461,-3802866.07385 24107.1696698,-3802699.21044 24295.1925122,-3802796.3956 24611.1382635,-3802955.87432 24878.9518277,-3803001.45127 24888.8568707,-3802830.90544 25082.168547,-3802759.34318 25334.6003304,-3802613.62735 25590.5232401,-3802769.5967 25753.6822355,-3802712.98103 25938.4987589,-3802380.92137 26365.7529468,-3802215.68822 26504.2378819,-3801891.17803 26794.7111906,-3801770.85536 27351.2669345,-3801911.44805 27650.3288756,-3801853.3315 27990.8032014,-3801554.84403 28218.6963146,-3800943.46213 28813.6023078,-3800937.05293 29036.621931,-3800640.3548 29057.7170107,-3800431.71938 29396.2010793,-3800220.06115 29826.6692775,-3800118.9041 30120.3942776,-3800195.15841 30433.1301956,-3800219.8417 30612.0103904,-3800122.34574 30630.5874915,-3800079.27324 30695.7153385,-3799915.06214 30795.3090406,-3799888.06175 30838.302192,-3799875.25987 30995.8894575,-3799904.21007 31143.1633621,-3799927.8631 31314.8991442,-3800012.66895 31369.0935113,-3800037.48574 31758.3368696,-3799696.95089 31950.8734689,-3799542.26556 32118.2146852,-3799515.27706 32216.5425846,-3799499.32076 32366.3662503,-3799384.32004 32792.6371806,-3799046.33241 32830.4462927,-3798819.17279 33053.3376845,-3798584.77912 33218.7497835,-3798521.05848 33399.1113341,-3798449.87568 33729.7190732,-3798421.08178 34101.0722986,-3798571.91635 34491.6763144,-3798757.84188 35116.2263598,-3798877.0155 35557.6283987,-3798881.75242 35780.3985227,-3799422.95112 35907.413943,-3799747.31031 36330.5623166,-3799773.66817 36679.9706747,-3800124.18486 36886.9350592,-3800286.35299 37020.3727759,-3800391.11131 37064.2587836,-3800633.28388 37134.7966225,-3801030.10269 37384.0969697,-3801380.74389 37708.2528616,-3801725.93942 37817.3258993,-3802102.77353 37964.8683452,-3802285.2947 38093.5786956,-3802446.64453 38586.1809403,-3802627.28573 39219.9120213,-3802757.75502 39672.5760305,-3802982.36997 39812.3806306,-3802995.04799 40109.2848998,-3803010.7935 40424.3990095,-3803204.14742 40481.9364526,-3803238.19959 41094.9770348,-3803327.18935 41647.5076111,-3803141.25474 42084.0531805,-3803197.57782 42540.6126594,-3803112.12289 42894.2189593,-3803262.58061 43190.4698881,-3803351.58085 43622.7858642,-3803442.04742 43976.3139491,-3803546.18616 44480.1746738,-3803498.44435 44999.0514635,-3803429.29093 45083.94928,-3803417.70396 45243.3688876,-3803501.29876 45176.5343985,-3803718.37984 44995.5275428,-3803865.81066 44951.4942622,-3803983.27124 44969.5783206,-3804038.35505 44994.2114135,-3804087.02942 45028.7493901,-3804157.46106 45008.192118,-3804208.12626 45012.7640321,-3804307.43297 44904.670962,-3804299.63657 44860.4502269,-3804399.18046 44936.55879,-3804616.27779 44690.0661657,-3804586.75195 44592.3442161,-3804652.97766 44578.5195026,-3804843.15002 44658.6259959,-3805007.6886 44802.0005778,-3805119.73322 44904.6761247,-3805181.17722 45000.913336,-3805228.10531 45008.437792,-3805372.04093 45016.0650283,-3805509.9932 45019.6231682,-3805654.19106 45105.3660407,-3805790.9622 45180.0887194,-3805889.11621 45236.1401719,-3805976.0536 45303.6544287,-3806078.17017 45148.4305574,-3806178.58132 44988.8419315,-3806280.7758 45032.3226928,-3806448.72987 45077.7218208,-3806615.56075 45124.5762246,-3806781.7971 45170.47212,-3806948.59465 45378.8824956,-3807298.38061 45339.6336576,-3807382.65615 45212.2579206,-3807655.54429 45321.1849701,-3807713.58162 45430.607746,-3807771.58592 45563.0760788,-3807688.61354 45698.0563818,-3807605.97338 45683.9754526,-3807799.64673 45669.3992995,-3807993.35299 45496.2082813,-3808070.55369 45323.4799067,-3808147.22617 45150.8167364,-3808224.89085 44982.4080752,-3808321.69829 44813.4375781,-3808417.54735 44643.5077982,-3808513.95847 44505.7587904,-3808645.09639 44368.0097477,-3808776.23494 44230.2278524,-3808906.87824 43964.6836841,-3809161.52686 43951.8539859,-3809306.31437 43957.219794,-3809492.73051 44169.3487763,-3809499.608 44382.9318009,-3809505.89108 44564.1036358,-3809541.71222 44565.1866439,-3809768.7521 44236.5241151,-3809987.73762 44316.6163951,-3810144.30319 44406.3311295,-3810295.74883 44497.4681021,-3810446.10374 44653.464681,-3810522.93473 44625.1327504,-3810599.02025 44572.8065303,-3810809.17645 44559.7057419,-3810904.67387 44532.6715964,-3810962.74389 44610.6566324,-3811403.33685 44445.3682117,-3811404.32176 44238.6485589,-3811501.68481 44056.0623633,-3811594.95995 43873.4428938,-3811687.73979 43869.6638114,-3811863.80492 43866.8770321,-3812039.80439 43907.1149769,-3812256.28521 43946.3619415,-3812472.83143 44266.2896292,-3812565.69373 44448.1505136,-3812619.38985 44402.0998826,-3812939.20353 44421.4862816,-3812983.74025 44444.2093598,-3813033.53449 44491.9830447,-3813100.59509 44554.4267659,-3813186.10775 44587.0254803,-3813257.16187 44724.61749,-3813484.6207 44812.4256392,-3813629.71237 44862.3384708,-3813804.20954 44909.73956,-3813978.37485 44959.6862312,-3814153.36732 45008.1129111,-3814327.96221 44885.6455283,-3814471.54883 44762.1536173,-3814614.70593 44639.6864072,-3814758.29378 44517.7151618,-3814901.84936 44298.501425,-3814923.3526 44079.7827435,-3814944.82311 43951.0186654,-3815128.67555 43919.3380203,-3815334.48255 43887.6580861,-3815540.28979 43855.9788628,-3815746.09726 43865.5626368,-3815935.72152 43872.664934,-3816132.98123 44243.6151533,-3816296.65156 44317.0650597,-3816495.48712 44232.6384761,-3816769.53958 44170.3889211,-3816964.9228 44217.0415613,-3817037.53388 44323.1715019,-3817188.37989 44744.9696292,-3817142.4747 44884.567842,-3817249.76078 44856.5358884,-3817442.87292 44846.6691329,-3817489.34839 44938.2494129,-3817653.60839 45055.9100409,-3817625.38354 45133.3695558,-3817606.79812 45364.434366,-3817523.73645 45424.6576216,-3817643.25818 45486.9755906,-3817726.78118 45624.6029043,-3817894.45899 45597.680963,-3818036.69459 45417.9906954,-3818113.3616 45348.6252422,-3818148.84248 45191.9224542,-3818286.73966 45095.8641295,-3818370.31073 45004.0735931,-3818443.13978 45060.5977355,-3818559.42055 45243.171678,-3818773.92088 45046.9340989,-3818803.87542 45110.6013123,-3819020.28865 45178.8285371,-3819245.36382 45378.3843928,-3819280.43232 45402.3620263,-3819461.62598 45409.9465832,-3819523.37905 45423.8608854,-3819642.98404 45403.0384639,-3819741.98406 45354.9741645,-3819963.32083 45340.1294954,-3820197.39462 45487.2231026,-3820349.99578 45629.1914052,-3820507.9169 45727.7114737,-3820589.03363 45853.6006335,-3820677.29807 45805.7626937,-3820811.9587 45772.6507836,-3820890.8565 45695.8474196,-3821054.33528 45743.7388664,-3821205.55111 45787.2189288,-3821290.32098 45865.1201173,-3821465.94042 45921.5449051,-3821603.14161 45926.7182457,-3821666.05026 45942.0103755,-3821716.33382 45937.5590445,-3821799.30546 45947.9275698,-3821970.4437 45987.6875939,-3821999.18037 46106.5414181,-3822071.47313 46164.7761127,-3822115.91635 46207.3117371,-3822148.9509 46277.2127016,-3822204.07423 46409.7207107,-3822399.47255 46436.5786231,-3822601.38912 46455.4997861,-3822683.80392 46492.8281805,-3822788.40414 46573.334607,-3822868.22225 46690.1336936,-3822962.06482 46848.1419993,-3823106.46007 46962.4370754,-3823305.05662 46994.4888137,-3823360.20207 47077.162599,-3823502.62776 47174.9098119,-3823647.03987 47216.9429679,-3823709.98845 47272.6572347,-3823791.45149 47352.7586497,-3823910.14103 47414.3457735,-3824042.51136 47457.858534,-3824142.71391 47478.6397468,-3824193.12895 47546.8003705,-3824349.46574 47640.010919,-3824538.00402 47458.9810577,-3824609.30052 47224.962253,-3824677.64431 47059.7514049,-3824657.24686 46994.9297899,-3824648.60549 46763.2786444,-3824610.21109 46598.9011642,-3824707.29646 46467.7003649,-3824861.44504 46458.5640792,-3825083.68299 46454.3033227,-3825229.39586 46445.3854477,-3825357.48863 46439.5910583,-3825405.18824 46417.700785,-3825607.85442 46505.2363718,-3825770.87372 46568.5827727,-3825892.17054 46604.7001464,-3825963.48044 46530.6908658,-3826116.32033 46490.1171401,-3826187.74821 46480.0914955,-3826239.21558 46451.5696785,-3826387.0398 46456.4764178,-3826490.80559 46460.2347674,-3826547.33318 46466.9630144,-3826633.54618 46496.8122097,-3826827.79238 46714.1045755,-3826762.54341 46858.0286591,-3826784.84857 46923.3479739,-3826785.98386 47045.9002244,-3826906.33027 47080.3370389,-3826952.3506 47155.53523,-3827176.94787 47231.6282091,-3827392.52037 47299.4609532,-3827588.72007 47192.1243305,-3827816.98956 47089.1941925,-3827984.20554 46940.2457539,-3828178.38925 46982.1345364,-3828358.88353 47029.5090616,-3828554.45206 47047.4522311,-3828599.57658 47107.1630125,-3828755.97466 47167.7009244,-3828909.82721 47223.2147282,-3829063.01764 47305.3639157,-3829279.67929 47327.5004773,-3829365.36394 47328.6427903,-3829479.83783 47335.2220802,-3829735.89226 47331.1820121,-3829794.93021 47297.3188642,-3829907.25127 47285.7431423,-3829957.82598 47252.6757331,-3830052.1647 47210.9758724,-3830188.9138 47248.5393709,-3830379.15711 47307.320292,-3830618.78856 47304.7529805,-3830827.142 47306.7113371,-3831073.54372 47316.8762496,-3831241.20617 47321.1666703,-3831313.13705 47329.5834234,-3831447.04883 47344.4849561,-3831521.26154 47367.8773035,-3831648.19972 47391.2375639,-3831767.17125 47440.1085076,-3831992.5198 47428.0584759,-3832207.97934 47354.4850749,-3832509.21541 47442.4328074,-3832715.52595 47468.6088489,-3832779.52466 47354.721127,-3832909.13046 47338.5207888,-3832950.05307 47271.7362821,-3833113.87587 47208.9822547,-3833323.25101 47181.2334179,-3833572.13105 47160.1310084,-3833801.1448 47173.5417578,-3834002.45913 47180.9673296,-3834263.43998 47207.1115481,-3834341.88401 47235.7017566,-3834427.1377 47351.0971196,-3834536.98867 47396.5810749,-3834576.79026 47438.5283139,-3834608.36064 47505.9277226,-3834670.60812 47626.9760926,-3834768.12833 47838.3350663,-3834823.27325 47969.3310032,-3834980.39284 47974.7494886,-3835069.18141 47970.2837109,-3835181.53862 47965.2888844,-3835308.37438 47959.5997094,-3835454.68014 47945.9765505,-3835646.33866 47890.3408339,-3835775.55371 47866.7707624,-3835840.37627 47818.9366652,-3835967.07954 47792.7553625,-3836030.08414 47792.7535227,-3836186.96852 47792.9842948,-3836250.2049 47805.0483442,-3836438.65799 47791.4282308,-3836861.90876 47837.6739116,-3836935.52468 47899.4892453,-3837048.44411 47962.1310809,-3837151.34733 48114.949812,-3837254.71235 48128.770784,-3837574.0329 48049.5358659,-3837595.75181 47992.7127439,-3837609.99978 47924.1200055,-3837507.49383 47846.5028875,-3837389.15385 47719.4662838,-3837186.9504 47656.956578,-3837123.3837 47548.5976325,-3837014.563 47307.0877652,-3836985.34201 47160.6148415,-3837066.82676 47168.1190063,-3837134.55952 47184.846785,-3837303.27983 47028.8540216,-3837421.26015 46990.409485,-3837449.7223 47069.747081,-3837593.84812 47249.6106417,-3837789.04422 47413.0791809,-3838022.18818 47154.742598,-3838009.53295 46886.1296375,-3838238.62143 46882.9277072,-3838414.64848 47043.1252284,-3838583.76175 51739.5195272,-3838575.31216 52204.5863429,-3838574.17221 54334.6908957,-3838606.38819 68934.7257487,-3838827.40844 68925.462164,-3839710.73904 68879.9115988,-3844105.9619 68817.1446389,-3850470.98877 68773.2547429,-3854841.33242 68764.9423591,-3855645.97137 79429.8303758,-3855723.65756 79546.8521175,-3855724.27505 79520.697967,-3858117.90913 79296.0206541,-3858397.30932 78792.2383346,-3858923.92705 78523.3292619,-3859219.24513 77487.1053475,-3860609.47147 77059.7911798,-3860947.7967 76385.6562161,-3861339.5362 75488.3225798,-3861587.95965 74718.2104451,-3861751.67777 73872.7044657,-3862023.51533 73006.7936989,-3862421.69117 72242.6450602,-3862823.00103 71481.3696191,-3863104.14106 70036.5288394,-3863637.81975 69421.47243,-3863835.46858 68702.6096613,-3864022.16952 67984.6990473,-3864149.06168 67323.839898,-3864191.4622 66575.5296023,-3864162.56014 65795.2413318,-3864109.91183 64951.8491495,-3864111.29182 63727.798139,-3864309.52877 62827.6909997,-3864497.46329 62162.3433709,-3864607.38774 61486.2893497,-3864735.95933 60854.3365541,-3864905.8892 60322.0669758,-3865032.77345 59826.1079368,-3865211.00134 59435.3650018,-3865428.4751 59143.6022418,-3865636.81153 58906.3706263,-3865841.48605 58850.6156197,-3865908.47621 58654.2661868,-3866173.15213 58358.3546059,-3866786.63934 58230.443973,-3867513.83736 58077.3289691,-3868717.82148 57991.2532733,-3869333.65446 57871.4347873,-3869943.7919 57594.8736846,-3870800.03203 57249.9940605,-3871425.32247 56692.1890914,-3872357.28317 56311.2707687,-3872898.36564 56101.9913227,-3873377.60136 55996.7946706,-3874648.16126 55988.0338922,-3875716.01323 55846.5381387,-3876905.36613 55803.5047279,-3877279.29568 55968.8860622,-3877760.2011 56604.4477964,-3878729.34765 57150.7812147,-3879527.19641 57627.3992948,-3880561.31035 57783.5031712,-3880896.90225 57837.3585375,-3881208.01521 57893.8058484,-3881742.06405 57971.140025,-3882430.58239 57970.4492943,-3882840.99469 57880.0488463,-3883080.66599 57673.9751283,-3883532.33401 57546.4942743,-3883894.03643 57531.4260435,-3884253.62995 57536.5961633,-3884817.04337 57421.592318,-3885304.40687 57236.4106007,-3885932.47439 56960.3453842,-3886755.93846 56708.8174781,-3887323.25843 56471.4423625,-3887672.48336 56270.5133391,-3887860.87187 56223.5553403,-3887873.50769 55990.4544158,-3888123.83679 55755.9796917,-3888353.84094 55519.4880653,-3888583.48522 55283.9542146,-3888812.56858 55048.8488486,-3889040.62873 54813.8437343,-3889270.17811 54577.4515137,-3889501.31729 54346.0169528,-3889732.1232 54208.1102586,-3889872.93383 54116.3712072,-3889967.29258 53889.5729833,-3890207.75003 53666.8080786,-3890448.93281 53446.2274422,-3890692.9582 53224.6551539,-3890937.05253 53005.1330931,-3891182.00627 52792.4253387,-3891431.9799 52728.6381512,-3891512.4993 52585.1116699,-3891688.06562 51970.062218,-3892403.5692 51588.5784155,-3892868.18906 51408.202398,-3893220.58697 51131.6361498,-3894109.46757 51013.0542932,-3894565.28007 50905.1727968,-3894877.41679 50812.4023823,-3895192.01882 50739.4741601,-3895512.75047 50685.2393847,-3895815.2823 50627.9431242,-3896160.85905 50567.1546839,-3896484.25869 50505.8720693,-3896807.69282 50445.1205189,-3897131.59013 50387.2448786,-3897453.79937 50336.58122,-3897779.50598 50293.9197821,-3898105.66768 50251.6887435,-3898430.80485 50205.988598,-3898756.17789 50150.339882,-3899081.72775 50089.4993175,-3899404.14361 50031.2403783,-3899727.8799 49981.5467486,-3900053.02917 49953.8397155,-3900379.17977 49940.7826379,-3900708.32297 49941.7453256,-3901038.50881 49952.5594356,-3901367.03092 49977.7883537,-3901695.07411 50014.8520361,-3902021.3187 50056.9768437,-3902348.71441 50092.5903986,-3902675.55537 50118.2218234,-3903002.07709 50144.5191191,-3903331.04433 50167.7423865,-3903658.72584 50193.9425663,-3903986.20553 50225.6324873,-3904313.81098 50261.8204812,-3904641.60939 50288.0263268,-3904969.0889 50298.3336042,-3905297.1493 50296.1795064,-3905625.05949 50284.7073016,-3905955.09692 50267.1186077,-3906283.05946 50241.0688141,-3906611.09886 50210.4909432,-3906938.45012 50179.2573612,-3907160.74208 49033.4340315,-3906865.43344 46573.8941917,-3906231.36576 44545.3315625,-3905489.27009 44204.370098,-3905353.9857 43007.5371436,-3904609.20115 42767.5717571,-3904383.85949 42708.1530736,-3904293.73298 42648.1893898,-3904246.9853 42573.2281109,-3904096.63594 42468.3218292,-3904040.97959 42422.5508391,-3904016.18545 42156.650283,-3903922.62493 42145.6507114,-3903859.60287 42119.6799762,-3903715.39509 42089.0316568,-3903542.60957 42128.1264325,-3903395.48419 42186.0694787,-3903177.33494 41927.3594933,-3902906.92422 41894.8603654,-3902806.00274 41877.7345713,-3902674.64584 41819.1588701,-3902479.34178 41621.5973557,-3902603.83138 41466.3644025,-3902676.62925 41323.9365799,-3902802.36411 41285.4234639,-3902836.85956 41268.9284545,-3903001.38534 41248.3155783,-3903208.03883 41213.2534587,-3903297.10203 41186.3696435,-3903367.17761 40959.1005359,-3903273.98104 40869.1206436,-3903232.75332 40633.8612999,-3903135.61348 40538.4467774,-3903039.95173 40399.1726724,-3902899.93416 40308.4278443,-3902678.40836 40225.7821577,-3902499.17831 40173.7908422,-3902412.03004 40110.4692648,-3902304.72517 40002.1619107,-3902180.5413 39967.322266,-3902100.20115 39875.0968319,-3901867.81288 39690.8874551,-3901785.14104 39427.5493011,-3901637.58433 39269.1265824,-3901281.14199 39136.1827352,-3901183.03628 38969.4279783,-3901188.85598 38902.5114985,-3901300.50574 38663.3008232,-3901703.82738 38541.3348581,-3902072.8006 38362.6390504,-3902567.68435 38232.5504839,-3902706.53756 38181.2455063,-3902761.83021 37909.5607164,-3903479.75118 37734.6877174,-3903781.07605 37652.9509592,-3903957.01137 37583.1841011,-3904103.73665 37421.9247197,-3904322.93105 37272.1968838,-3904664.40751 37193.7973938,-3904779.3353 36998.4090457,-3904936.07775 36937.2184389,-3904963.14662 36775.0764412,-3904846.09729 36623.4924836,-3904737.79771 36407.1103186,-3904625.4219 36350.8312133,-3904596.35485 36273.1244766,-3904537.85007 36400.9188237,-3904357.7902 36470.0139514,-3904171.74677 36615.6793115,-3903917.2362 36559.2995443,-3903827.88912 36440.5594072,-3903638.14059 36222.7887544,-3903773.47873 35946.4482118,-3903945.17458 35756.5371584,-3903936.62682 35431.2527693,-3903959.67849 35355.5297153,-3903930.43381 35300.3303413,-3903906.27469 35371.3959211,-3903822.73369 35553.8892549,-3903659.39301 35679.8931257,-3903515.32852 35702.2409498,-3903437.0843 35723.832297,-3903362.37912 35332.449279,-3902957.93129 34988.7883203,-3902871.61222 34834.4379065,-3902832.74805 34476.0512178,-3902724.00732 34141.397867,-3902623.62135 34074.5401558,-3902523.02133 33970.1760746,-3902490.23427 33774.4848606,-3902462.64007 33694.9281685,-3902406.24812 33592.3383229,-3902333.47973 33406.5506584,-3902095.44681 33310.2868583,-3902016.76799 33231.4232865,-3901731.62718 33212.8852834,-3901667.6114 33208.205864,-3901591.19663 33205.0051917,-3901536.60506 33102.8029425,-3901454.8397 32936.4831076,-3901404.82253 32929.1829768,-3901289.7207 32762.8131623,-3901224.26011 32649.5760059,-3901167.15774 32413.6837873,-3901013.23088 32313.0285012,-3901002.11225 32200.8068403,-3900967.36207 32081.3227251,-3900913.67129 31867.0847986,-3900833.01503 31674.0169822,-3900928.80643 31558.8870875,-3900865.85105 31427.8180012,-3900802.97857 31381.274356,-3900803.64004 31329.45551,-3900803.66229 31249.2303692,-3900803.61565 31183.2754623,-3900804.59544 30994.0806218,-3900828.87158 30925.1909992,-3900838.02255 30731.5728776,-3900870.5708 30458.7053954,-3900935.89281 30260.0807542,-3901019.60522 29986.3698326,-3900947.45865 29870.5583426,-3900914.94241 29073.8870382,-3901655.55347 28698.8824968,-3902004.35361 28230.807566,-3901486.94012 27094.6458248,-3902369.17535 24550.0962493,-3904345.54506 23947.3509055,-3904786.56761 23541.9057875,-3905083.65619 21769.9700053,-3903421.15099 21967.6254706,-3903135.158 19846.6500362,-3901955.19072 19948.9617406,-3901839.61673 20032.9545744,-3901744.22179 19123.6325485,-3900926.67536 18803.3834564,-3901249.87774 18543.3204728,-3901593.42823 18398.9410487,-3901779.63262 18189.9930736,-3902337.02107 18199.4045041,-3903112.3678 16287.9151006,-3902477.31566 14753.5236459,-3901957.7272 14426.0332988,-3901846.82795 14302.4555653,-3902086.46047 14152.1883156,-3902377.24482 12929.1282835,-3904570.91844 12284.3948673,-3905736.58398 15155.4988834,-3907488.80143 14467.107857,-3907653.10933 13973.8938477,-3907630.73103 12583.918189,-3907412.4633 11600.1182058,-3907248.88526 10210.7865306,-3907015.09312 9450.59928837,-3906882.19511 7657.76388467,-3906553.59857 6584.94378834,-3906265.40713 6394.53682443,-3906221.48347 6233.76280132,-3906184.52406 5921.88884369,-3906139.3597 5283.52720165,-3906061.48423 4867.62828934,-3906011.40244 4761.73746562,-3905975.20834 4529.9685405,-3905883.73547 3993.5270937,-3905577.61125 2593.10761887,-3904943.16425 1888.14014523,-3904592.6003 1242.10907866,-3904162.75881 345.199023212,-3903745.9073 -164.347897385,-3903597.94695 -996.74443088,-3903173.21712 -1163.52227969,-3903088.2898 -2165.93944428,-3902571.35524 -4121.70291053,-3901599.91884 -4333.90547962,-3901492.13031 -5207.0866601,-3900896.09483 -5530.79503335,-3900742.99667 -5851.42594002,-3900591.1842 -6955.02771844,-3900053.08351 -8237.02776656,-3899413.34683 -8559.2182413,-3899231.21032 -8654.266897,-3899182.29373 -8729.27456419,-3899138.50354 -8852.60769267,-3899080.53009 -9050.17080736,-3898979.21174 -9277.52213759,-3898994.08542 -9976.85124938,-3899059.81818 -10281.097376,-3899087.86847 -10959.8936259,-3898830.60917 -11308.7344573,-3898700.6209 -11483.4574091,-3898631.15903 -11750.7304026,-3898535.04466 -12247.4487074,-3898349.23098 -13309.8952496,-3897956.32863 -13596.0632318,-3897831.56663 -13687.4214965,-3897789.37415 -14038.4681636,-3897575.2523 -14495.4589273,-3897036.69521 -14799.1566171,-3896648.83331 -15093.8311885,-3896283.79433 -15384.9499655,-3895952.91808 -15659.0971045,-3895614.90884 -16033.4291461,-3895207.37099 -16342.1165678,-3894782.43058 -16626.168686,-3894467.51973 -16724.2732673,-3894354.96767 -17713.5162464,-3892897.38068 -18476.2238877,-3891799.95557 -18951.7541387,-3891115.4703 -20621.9497689,-3888625.09596 -20908.5365228,-3888194.61891 -21712.3937612,-3884653.87657 -22538.5676805,-3880552.58042 -23282.3239326,-3877109.41668 -23308.2528168,-3876968.5399 -23335.1596838,-3876824.2381 -23596.8753951,-3875449.53915 -24017.8134128,-3874406.18022 -24237.7993455,-3873822.55231 -25236.9030843,-3873332.65275 -25524.3163189,-3873177.92036 -25717.8236805,-3873073.72853 -26282.361743,-3872694.74694 -26569.9887859,-3872481.17751 -27053.7928973,-3872123.69274 -27757.9591942,-3871748.58472 -27871.4663614,-3871688.38367 -28247.4960847,-3871695.68089 -28326.2163933,-3871774.7751 -28671.7493728,-3872121.13989 -28821.9950682,-3872271.36675 -28865.3689912,-3872208.45013 -28796.8729942,-3871999.37996 -28502.6757216,-3871720.29675 -28306.0066283,-3871574.4353 -27939.089277,-3871475.98983 -27629.7068434,-3871152.00739 -27623.9017871,-3870863.37051 -27669.5908689,-3870728.79748 -27675.6693268,-3870682.8267 -27438.7346081,-3870613.06091 -27425.9214472,-3870120.48734 -27376.3855506,-3869803.4835 -27337.9537471,-3869373.02492 -27229.9361534,-3869191.73169 -26996.0174002,-3869114.19515 -26875.6246592,-3868849.78915 -26839.36341,-3868817.9331 -26739.6439018,-3868695.0469 -26628.33813,-3868614.76936 -26567.2093019,-3868570.77243 -26539.2472176,-3868482.12469 -26496.7741377,-3868349.6164 -26470.6460855,-3868267.07618 -26459.7990572,-3868053.40989 -26480.9413969,-3867875.80061 -26462.5045687,-3867801.25699 -26335.1580864,-3867692.47764 -26207.2819581,-3867584.16186 -26120.5965328,-3867434.22723 -26025.1263054,-3867277.71955 -25885.0358068,-3867173.07384 -25736.1942016,-3867061.3587 -25604.1227013,-3866974.70549 -25472.2663076,-3866888.5657 -25383.801978,-3866999.32153 -25296.3637355,-3867109.64723 -25091.5365814,-3867126.3258 -24887.454719,-3867143.05416 -24695.1320619,-3867017.95154 -24661.7239022,-3866850.65079 -24625.5790039,-3866657.23591 -24554.0378173,-3866664.40517 -24453.3525273,-3866637.70475 -24277.6455287,-3866592.0095 -24085.1936457,-3866502.30609 -24156.7314075,-3866379.94493 -24230.9357904,-3866251.27972 -24299.7639523,-3866117.267 -24259.0501373,-3866047.71518 -24187.1152228,-3865923.21108 -24074.9958915,-3865728.69274 -23951.981023,-3865718.94693 -23828.7514689,-3865708.68807 -23706.9249781,-3865539.94921 -23637.3452307,-3865443.52968 -23584.3536932,-3865371.16108 -23586.9635165,-3865213.26108 -23693.164996,-3865179.99109 -23832.3217854,-3865339.41934 -23884.1186263,-3865463.0702 -24023.8039853,-3865540.25562 -24163.9527249,-3865617.97107 -24303.85349,-3865695.6702 -24492.4791596,-3865630.52793 -24686.9474538,-3865563.78234 -25067.8093064,-3865431.74294 -25208.9088377,-3865368.89729 -25218.1096411,-3865283.7427 -25225.2160577,-3865222.38391 -25240.624188,-3865089.27435 -25349.153425,-3864816.7962 -25227.0298484,-3864719.34595 -25112.3382496,-3864749.05658 -24997.8950502,-3864778.78374 -24839.9500779,-3864799.11136 -24681.012606,-3864819.37228 -24478.7477594,-3864764.42146 -24454.5778389,-3864570.8148 -24430.3740773,-3864377.70477 -24338.8212271,-3864266.84746 -24248.0129922,-3864156.04038 -24441.1891079,-3864175.47331 -24581.3388097,-3864212.2954 -24771.0353012,-3864157.19378 -24960.5173356,-3864101.57871 -25149.9998494,-3864045.96327 -25339.4495637,-3863990.8439 -25384.605568,-3863867.70703 -25351.1834578,-3863715.36666 -25317.0496347,-3863562.48013 -25299.9007538,-3863483.5381 -25283.6268674,-3863410.14014 -25355.6386891,-3863243.42412 -25520.0457699,-3863201.08532 -25684.9163931,-3863159.27598 -25767.6855069,-3863036.6642 -25844.0799513,-3862923.5984 -25832.0996263,-3862778.67882 -25834.8968249,-3862729.4976 -25924.5643666,-3862563.46405 -26027.993871,-3862415.30721 -26055.3263919,-3862334.8574 -26068.6458661,-3862292.3652 -25886.1021632,-3862184.88682 -25898.1362173,-3862027.61375 -25906.6619418,-3861918.97558 -25910.6663303,-3861870.37392 -25744.5870329,-3861766.49349 -25657.7238307,-3861667.42222 -25651.8920392,-3861486.51269 -25646.0597442,-3861305.60323 -25640.2602025,-3861124.19741 -25499.1984262,-3861082.33422 -25358.0213391,-3861142.69038 -25344.0133923,-3861269.90964 -25329.2272747,-3861397.57543 -25205.2161953,-3861491.99281 -25074.9751335,-3861307.23803 -24926.2985876,-3861226.46729 -24792.9356323,-3861177.6399 -24659.2914586,-3861129.2925 -24667.0579982,-3861009.6351 -24671.5653193,-3860938.62831 -24674.542842,-3860890.4575 -24622.2937902,-3860754.81206 -24554.4293642,-3860599.17177 -24609.1289747,-3860415.33899 -24790.7993601,-3860453.93641 -24957.3621759,-3860491.02339 -25096.3130351,-3860400.5974 -25062.6480442,-3860259.21507 -24925.4553286,-3859906.4472 -24929.4581927,-3859857.84628 -24938.4479467,-3859734.77986 -24944.1794421,-3859660.36422 -24948.2153644,-3859611.26685 -24971.8983149,-3859436.32607 -24995.6472737,-3859260.39233 -24979.6608987,-3859093.26714 -24963.6741013,-3858926.14207 -24829.147474,-3858775.51484 -24694.1576285,-3858624.35858 -24518.6943821,-3858578.70216 -24441.2216351,-3858734.08314 -24392.8960549,-3858867.4798 -24339.2778395,-3858990.54876 -24239.9163497,-3859014.81242 -24180.9892253,-3858956.51318 -24173.0938301,-3858791.42796 -24165.6612092,-3858626.87247 -24066.9034571,-3858508.06297 -23957.6634323,-3858415.47938 -23799.4399467,-3858387.93217 -23627.6635297,-3858421.31046 -23456.3839648,-3858454.72177 -23372.0452892,-3858317.93039 -23287.9546737,-3858181.156 -23276.105917,-3858004.33985 -23206.66872,-3857894.47676 -23145.1877418,-3857796.11675 -23207.0336449,-3857587.33431 -23629.4291328,-3857538.31764 -23657.7817272,-3857204.12496 -23662.7753902,-3857155.59145 -23521.8705812,-3857092.80516 -23333.391393,-3857092.65651 -23205.4118454,-3857090.07462 -23068.0806688,-3856970.18371 -23069.1120593,-3856757.33112 -23069.9609763,-3856543.46912 -22937.6886742,-3856374.05387 -22776.2235851,-3856413.61168 -22622.7001575,-3856524.50782 -22499.8105628,-3856423.53666 -22440.0586538,-3856221.07931 -22327.0779259,-3856132.24079 -22164.4510986,-3856125.84618 -21998.0859033,-3856115.71094 -21847.2262061,-3855903.66877 -21971.8266758,-3855636.26057 -21969.8282692,-3855412.73815 -21994.6109175,-3855224.91475 -22115.8946769,-3854977.22854 -22182.0572516,-3854878.93558 -22191.4567879,-3854730.97072 -21493.6777477,-3854487.83274 -21178.997786,-3854570.49808 -21187.8784742,-3854519.73341 -21230.6717547,-3854286.24601 -21465.8293519,-3853957.42193 -21517.5400061,-3853877.60924 -21635.6763642,-3853695.53197 -21642.392081,-3853628.66593 -21705.6130123,-3853499.75943 -21683.0240447,-3853349.15811 -21704.1194872,-3853279.76322 -21793.6034154,-3852970.61206 -21803.4410141,-3852927.88894 -21649.7653197,-3852597.4927 -21339.7905342,-3852318.97701 -21263.9812829,-3852002.26709 -21161.511125,-3851879.23698 -20622.7951133,-3851848.70824 -20606.015104,-3851674.56503 -20744.2145325,-3851401.08489 -20706.0576457,-3851304.29492 -20615.2215471,-3851074.3427 -20592.5605301,-3850730.77482 -20218.5034167,-3850314.36133 -19966.5065553,-3850141.95342 -19755.2974822,-3850183.68403 -19506.9510293,-3850374.51022 -19497.0129347,-3850836.55714 -19414.2327133,-3850918.77991 -19211.3957846,-3850969.54338 -19031.1363153,-3850880.21089 -18923.9895049,-3850633.21962 -19128.0000084,-3849856.06235 -19030.4083927,-3849529.4358 -19015.5819103,-3849195.37632 -18658.7367021,-3848875.86366 -18590.1313853,-3848663.86192 -18784.3114267,-3848604.53621 -19119.3260915,-3848493.28938 -19102.2973475,-3848128.66835 -18952.7981838,-3847877.3583 -18630.4057838,-3847758.59838 -18385.7436515,-3847823.52946 -18113.6795074,-3847772.4509 -18040.9624881,-3847323.34461 -18011.7294873,-3847141.39918 -17721.6355643,-3846748.08174 -17698.5816384,-3846316.75526 -17607.1364835,-3846095.75666 -17760.2821508,-3845612.87298 -17729.4648369,-3845327.61544 -17650.907693,-3845081.55209 -17295.7701016,-3844788.60999 -17147.8252662,-3844667.05225 -16722.1870954,-3844373.39832 -16235.7013137,-3844476.04675 -15959.7290873,-3844573.29857 -15432.6341375,-3844388.04929 -15419.2214222,-3843808.31123 -15405.3471531,-3843403.542 -15301.167238,-3843279.92519 -15047.7944439,-3843214.16016 -14770.3576301,-3843299.85 -14442.2720401,-3843173.26107 -13907.8086287,-3842964.10285 -13697.9405304,-3842847.89664 -13331.9145852,-3842527.83394 -13616.0197816,-3842241.17143 -13638.1210527,-3841861.24979 -13759.4145749,-3841795.55354 -14019.1360629,-3841878.18796 -14324.0426367,-3841982.28362 -14387.4308608,-3841872.83943 -14289.3390006,-3841732.68224 -14164.0975222,-3841554.81839 -14065.0168356,-3841242.59327 -14126.0207281,-3841146.45108 -14233.8970769,-3841038.97623 -14566.9170943,-3841099.07494 -14762.0210518,-3840969.49636 -14751.681156,-3840918.9504 -14694.2567038,-3840647.3923 -14472.8028735,-3840271.16849 -14611.2379279,-3839993.22644 -14660.2450397,-3839729.26408 -14422.3737387,-3839427.23255 -14453.1626529,-3839215.901 -14603.3591076,-3839146.64138 -14842.7495884,-3838947.2188 -15063.4453692,-3838826.31909 -15249.5443032,-3838652.25888 -15270.6494125,-3838335.58019 -15174.5842719,-3838220.98947 -14949.0211172,-3838183.02382 -14883.1872085,-3838172.1553 -14523.5358583,-3838541.5521 -14276.5161029,-3838500.16118 -13772.5152633,-3838237.73508 -13696.2161658,-3837860.23085 -13699.4289408,-3837456.61684 -13460.4193952,-3836999.47408 -13407.3720301,-3836897.72552 -13476.9989539,-3836353.95854 -13507.8939225,-3835878.90386 -13429.1385567,-3835590.48231 -13159.8502696,-3835516.71033 -12909.7943633,-3835794.19845 -12676.7195045,-3835902.81208 -12416.3557777,-3835885.96887 -12233.8246299,-3835699.82077 -12018.5017357,-3835504.51027 -12195.7121017,-3835063.14028 -12185.9511032,-3834846.62292 -12037.6072456,-3834562.54915 -12017.5025541,-3834523.82018 -11786.3921035,-3834311.01186 -11746.4339589,-3834270.96129 -11757.3829221,-3834042.86277 -11939.7437337,-3833950.80974 -12235.6444455,-3833980.48022 -12624.4990928,-3833883.22873 -13018.6487846,-3833597.87852 -13383.3166657,-3833152.52283 -13412.9358748,-3832879.79497 -13335.8018245,-3832563.06983 -13280.9756084,-3832446.74974 -13155.1503324,-3832284.82434 -12542.4923372,-3832347.74946 -12546.9917612,-3832201.47828 -12573.4955057,-3831923.0628 -12564.3746088,-3831621.83672 -12371.1115467,-3831446.95274 -12002.8454374,-3831302.30333 -11304.0854232,-3830864.9663 -11066.0241389,-3830936.3711 -10901.0106286,-3830921.40492 -10813.2853199,-3830861.22957 -10904.9167317,-3830581.67054 -10935.7240494,-3830482.02074 -11029.1207159,-3830179.64599 -11426.4512054,-3829992.20586 -11434.482024,-3829822.74169 -11437.7306526,-3829755.15785 -11133.8686191,-3829582.89791 -11197.8431894,-3829366.80386 -11410.7887223,-3829095.80726 -11560.6397154,-3829053.92506 -11645.8500258,-3828998.27217 -11773.028684,-3828914.99946 -11682.4457627,-3828612.84941 -11726.1229524,-3828334.58263 -12008.7818573,-3828143.4935 -12134.5766325,-3827916.05065 -12328.91158,-3827759.96675 -12410.3073914,-3827656.69707 -12370.5985259,-3827474.08654 -12295.5243509,-3827328.50974 -12229.3959091,-3827243.35186 -12095.997025,-3827071.46516 -11864.332871,-3827189.175 -11766.8727018,-3827455.39264 -11627.9963512,-3827609.67861 -11404.3704311,-3827625.22336 -11290.1205215,-3827476.54583 -11098.7726841,-3827317.75891 -10895.1881479,-3827271.8227 -10850.3525146,-3827098.8465 -11158.9387811,-3826877.5729 -11619.9254999,-3826707.30477 -11574.7705016,-3826362.81259 -11498.0642722,-3826174.25738 -11259.6889447,-3826145.45536 -11071.5435664,-3825968.44032 -10830.9217174,-3825722.13476 -10573.7896328,-3825405.44005 -10563.0398259,-3824918.17205 -10556.203842,-3824833.46838 -10598.0177812,-3824654.28696 -10787.5046898,-3824480.92634 -11170.8197853,-3824778.08286 -11486.3390461,-3824868.83619 -11899.9762148,-3824784.64404 -12085.9827144,-3824637.47073 -12384.6186901,-3824674.7568 -12769.1914429,-3824724.23264 -12844.9814606,-3824513.89972 -12651.8449185,-3824396.87708 -12449.0171921,-3824361.96784 -12521.2324298,-3824287.9963 -12641.3649463,-3824164.36266 -12676.6621049,-3824128.31993 -12816.5650705,-3824003.50608 -12867.4119169,-3823958.52519 -12863.8188796,-3823749.89873 -12600.2121887,-3823354.00537 -12838.9756248,-3822885.28495 -12822.0745339,-3822666.80176 -12392.9818692,-3822567.02229 -12212.200395,-3822384.02401 -12085.8821764,-3821902.53449 -12187.1794266,-3821713.33716 -12234.0264377,-3821345.54141 -12709.6647247,-3821236.02691 -13487.6082162,-3821172.49861 -13711.638858,-3821053.26044 -13718.8663025,-3820933.09339 -13674.8574782,-3820878.82306 -13584.9202551,-3820769.15814 -13528.6446679,-3820636.80051 -13601.687964,-3820467.65774 -13689.6797414,-3820381.26704 -13791.2591711,-3820255.39596 -13786.5349984,-3820119.97809 -13641.0717885,-3819956.77602 -13455.9732687,-3819812.38205 -13321.7348573,-3819829.39931 -13214.634864,-3819914.52233 -13146.7429361,-3820043.62501 -13005.5419222,-3820120.50226 -12843.0631329,-3820138.63598 -12754.8853739,-3820047.536 -12765.6169587,-3819975.96094 -12819.8893757,-3819837.97884 -12821.2322849,-3819690.00386 -12749.3226286,-3819564.08965 -12601.1080548,-3819382.26331 -12475.6184378,-3819229.86304 -12460.4665294,-3819086.27856 -12432.8398334,-3818942.86371 -12336.7828341,-3818842.76845 -12139.5778207,-3818805.75777 -12022.8797314,-3818723.73649 -11990.1927474,-3818588.96065 -12009.114887,-3818427.6966 -12072.1907592,-3818258.39344 -12047.4442234,-3818124.14445 -11968.98573,-3817916.53997 -11962.434184,-3817868.74567 -11929.1466661,-3817630.23776 -11856.2340521,-3817530.68316 -11716.3135676,-3817468.0627 -11399.642572,-3817473.48505 -11259.6802915,-3817430.30455 -11141.1541387,-3817372.0946 -11133.92993,-3817247.98326 -11205.8282704,-3817148.56055 -11545.0991395,-3817009.03765 -11680.719425,-3816937.26951 -11744.7558106,-3816873.71641 -11719.4509786,-3816804.23968 -11487.3084161,-3816775.38819 -11415.7221929,-3816685.89367 -11392.5959407,-3816647.47 -11320.2541555,-3816528.01457 -11298.7221464,-3816371.54794 -11320.6989373,-3816254.35757 -11439.7406538,-3816094.24832 -11548.7595191,-3815942.44744 -11647.6333005,-3815781.99725 -11666.0696782,-3815624.19127 -11759.8848189,-3815389.62393 -11839.901836,-3815284.25559 -11994.5762188,-3815203.27736 -12012.7473076,-3815132.19585 -11996.7850026,-3814970.61363 -11934.8834011,-3814862.81866 -11783.4576522,-3814789.47141 -11658.460738,-3814734.82557 -11601.5189661,-3814785.39073 -11521.5062827,-3814856.86022 -11243.3516164,-3815116.10053 -11150.9983296,-3815275.98568 -11114.7491538,-3815401.70176 -11015.5773283,-3815427.53219 -10908.5035799,-3815425.91901 -10532.9565408,-3815387.0695 -10396.4362421,-3815344.62084 -10351.3360304,-3815340.63464 -10319.1172734,-3815277.68105 -10274.586026,-3815204.93834 -10321.0390674,-3815071.924 -10437.9342609,-3815019.35142 -10658.8111206,-3814973.66977 -10850.5128039,-3814905.61519 -10932.4351745,-3814854.21371 -10950.7042497,-3814781.64431 -10875.9255222,-3814698.92062 -10754.739527,-3814654.49841 -10587.8374567,-3814555.20172 -10441.682861,-3814417.39956 -10423.0853451,-3814370.80282 -10382.7297022,-3814235.0267 -10407.9430097,-3814072.68771 -10493.7372958,-3813823.63364 -10485.4888038,-3813639.63549 -10469.5156792,-3813579.7531 -10443.582345,-3813478.33311 -10335.5578368,-3813257.81497 -10195.3303901,-3813135.86291 -10124.4742438,-3813099.26473 -10070.4307206,-3813072.25494 -9900.96454724,-3813053.05302 -9847.61381245,-3812981.72236 -9822.66076444,-3812891.8342 -9892.89905126,-3812644.24341 -9876.19533242,-3812388.4013 -9983.31449019,-3812118.32716 -9985.5398721,-3811986.86923 -9986.59980123,-3811876.76984 -10004.5849411,-3811620.23383 -9978.32666965,-3811538.73429 -9881.59508164,-3811501.42169 -9727.89135966,-3811473.79627 -9564.14479828,-3811443.51195 -9487.40290718,-3811379.10881 -9496.84030035,-3811285.51709 -9603.19699177,-3811169.92803 -9676.72245436,-3811072.10489 -9705.7030813,-3810954.3832 -9697.02291466,-3810893.48976 -9689.00674192,-3810837.62531 -9620.04980637,-3810723.38962 -9508.10088471,-3810656.15802 -9183.43600918,-3810628.18356 -8985.74604763,-3810640.02065 -8802.88308276,-3810695.21128 -8716.04633451,-3810659.05417 -8681.25570724,-3810552.06721 -8707.77412736,-3810479.0487 -8777.46449679,-3810427.8309 -9003.05133284,-3810356.02647 -9022.60996663,-3810294.0122 -8960.86827008,-3810149.84772 -8935.57243569,-3810042.4922 -8925.08671566,-3809873.30669 -8920.0840568,-3809824.62153 -8917.01203895,-3809765.59576 -8912.48068878,-3809664.59982 -8930.17757848,-3809585.51342 -9046.78807503,-3809540.88939 -9132.26182236,-3809492.21041 -9219.37808439,-3809418.71513 -9308.23824212,-3809428.08573 -9370.27433566,-3809526.40777 -9498.84643191,-3809688.95382 -9624.10217688,-3809766.03739 -9706.97408275,-3809775.51065 -9742.25810037,-3809698.08581 -9742.57342542,-3809561.51723 -9735.40756204,-3809349.67832 -9707.0773804,-3809231.65257 -9609.14452714,-3809073.12869 -9471.67325774,-3808950.87177 -9346.6138854,-3808870.81207 -9274.25618229,-3808777.78974 -9189.01914542,-3808600.66643 -9140.98053558,-3808441.45835 -9148.79992091,-3808296.91334 -9257.77713233,-3808107.7161 -9297.94727749,-3807914.96296 -9324.55698544,-3807799.07807 -9419.58994107,-3807681.23925 -9525.48161218,-3807640.38874 -9585.51431443,-3807599.49529 -9562.88563068,-3807508.26845 -9520.06254038,-3807492.4746 -9459.48855868,-3807477.50049 -9248.13187693,-3807518.8518 -9091.37751859,-3807510.97445 -8989.11722067,-3807372.60706 -8956.40368226,-3807230.36617 -9014.30152955,-3807093.62059 -9065.98557257,-3807001.8268 -9147.12345573,-3806890.54574 -9273.40020349,-3806858.02141 -9483.32769534,-3806868.41714 -9676.00904027,-3806894.62117 -9783.22270712,-3806882.76964 -9877.89699257,-3806872.08267 -9993.76396012,-3806861.30189 -10124.0063964,-3806847.98237 -10285.4145307,-3806796.8438 -10326.9728458,-3806733.78992 -10315.4628572,-3806647.78434 -10245.7898644,-3806540.48438 -10206.8802444,-3806480.58306 -10058.1694936,-3806358.58477 -9968.31831128,-3806168.19687 -9915.4785098,-3805953.338 -9853.4218655,-3805859.0057 -9750.99200562,-3805783.43938 -9628.50408555,-3805694.58302 -9520.92088272,-3805542.40632 -9436.90216127,-3805523.88994 -9351.08076917,-3805506.2514 -9189.74207302,-3805496.08201 -9043.31630064,-3805437.54781 -8954.64896111,-3805357.40965 -8893.01068292,-3805301.98947 -8682.45947874,-3805206.81429 -8575.75665354,-3805180.81688 -8483.8923043,-3805213.12686 -8431.50189587,-3805157.32167 -8401.09502456,-3805036.67102 -8418.95387625,-3804902.26282 -8453.69146134,-3804776.44773 -8573.69795312,-3804718.08215 -8725.65957561,-3804617.46312 -8853.49456577,-3804357.72526 -8874.43186097,-3804316.23896 -9017.38528719,-3804054.00977 -9077.29084561,-3804056.47392 -9139.64632318,-3804119.91626 -9111.38040759,-3804249.65028 -8939.54425985,-3804458.62545 -8884.25729218,-3804638.91435 -8958.94613826,-3804689.21467 -9293.11201571,-3804663.9487 -9591.78199065,-3804647.80127 -9724.83769182,-3804490.09862 -9900.60123504,-3804406.50392 -10219.884598,-3804267.09186 -10302.3769064,-3804157.88896 -10424.4436561,-3803992.97657 -10424.6866955,-3803838.45636 -10371.1767572,-3803652.46732 -10264.0836434,-3803500.32511 -10163.8111899,-3803471.26562 -10117.3483174,-3803457.72643 -9929.21262274,-3803487.16687 -9847.82145767,-3803523.16328 -9732.44031406,-3803571.86814 -9675.06292236,-3803651.82373 -9628.57764481,-3803714.05465 -9553.15695695,-3803746.4572 -9446.10403211,-3803661.61636 -9387.86248063,-3803618.88442 -9303.98161617,-3803553.02276 -9265.50903834,-3803509.10506 -9181.85914427,-3803413.34931 -9111.99312661,-3803237.25031 -9115.41337196,-3803087.42984 -9174.57254484,-3803029.52599 -9326.2158128,-3803009.13861 -9446.79624334,-3802998.66235 -9541.66729089,-3802958.57133 -9655.18910768,-3802900.27122 -9740.10644462,-3802841.07774 -9731.4870552,-3802699.93173 -9657.60330753,-3802588.37134 -9524.02590874,-3802554.122 -9381.73023445,-3802519.79524 -9291.39773752,-3802400.66846 -9275.43448735,-3802291.4405 -9293.88095368,-3802042.41511 -9225.01503487,-3801968.07634 -9169.51330765,-3801861.22157 -9179.35424184,-3801719.80112 -9223.02082268,-3801541.73262 -9285.49862626,-3801475.07361 -9477.45913155,-3801319.7609 -9548.090192,-3801167.40015 -9640.44121939,-3801120.16095 -9730.26772139,-3801137.5595 -9863.41861182,-3801283.93983 -9988.32072935,-3801332.56851 -10123.2822082,-3801300.60625 -10250.2656341,-3801234.71727 -10350.3898774,-3801235.84722 -10653.0584803,-3801204.49339 -10786.9264326,-3801113.63453 -10839.5401218,-3800985.0056 -10841.3070214,-3800818.62128 -10943.6950319,-3800653.39878 -11130.868746,-3800378.12118 -11127.2726562,-3800289.14926 -10972.2685147,-3800284.89524 -10707.6483249,-3800393.0436 -10620.7513199,-3800433.16736 -10487.2968481,-3800495.14148 -10367.9035681,-3800634.81328 -10215.9259053,-3800679.11282 -10146.2282988,-3800655.06822 -10129.62028,-3800551.77881 -10141.1578971,-3800509.17125 -10211.4177487,-3800426.57364 -10311.1206674,-3800309.52961 -10433.7156532,-3800079.83984 -10470.6972493,-3800010.4975 -10666.0940883,-3799769.16304 -10683.0762443,-3799651.64034 -10626.5253648,-3799568.14583 -10579.6257106,-3799546.1061 -10500.5388018,-3799509.47867 -10354.2117846,-3799438.00324 -10200.135052,-3799329.12745 -10056.3548306,-3799203.983 -10040.3997807,-3799090.76739 -10096.9520132,-3798996.795 -10200.2871995,-3798949.28035 -10422.8930004,-3798884.71414 -10550.55839,-3798827.33961 -10600.0266649,-3798753.83573 -10610.8821139,-3798630.92352 -10597.8447805,-3798579.21559 -10583.7631346,-3798524.44774 -10512.8644428,-3798461.94149 -10446.8169472,-3798405.23911 -10318.1276075,-3798338.42009 -10189.1697064,-3798215.25313 -10112.7193418,-3798063.14986 -10065.1326593,-3797953.33035 -9962.28084456,-3797880.24193 -9803.03666033,-3797864.74705 -9743.67308622,-3797857.83816 -9643.67573824,-3797847.25054 -9443.00253104,-3797825.03361 -9272.21259675,-3797686.14786 -9225.58692167,-3797603.31209 -9210.99717155,-3797507.13734 -9253.33032122,-3797405.74621 -9342.30208025,-3797356.78336 -9537.12118369,-3797259.97084 -9660.72052772,-3797139.51529 -9735.78748736,-3797029.31624 -9743.92255215,-3796974.02152 -9760.98361823,-3796858.99776 -9822.55601582,-3796756.88076 -9927.60582242,-3796679.56604 -10066.1170474,-3796616.42274 -10090.9568225,-3796530.82444 -10084.2016175,-3796402.76322 -10077.1047964,-3796355.43618 -10003.9829524,-3796334.1616 -9954.04242428,-3796365.76162 -9860.09852738,-3796425.86374 -9736.19673473,-3796562.25294 -9567.57212167,-3796594.49649 -9454.10320444,-3796576.54168 -9395.90709459,-3796438.6075 -9372.56947166,-3796206.76428 -9352.11813111,-3796154.07037 -9308.7939683,-3796040.04855 -9318.10646535,-3795895.10327 -9453.27829329,-3795720.07625 -9513.49700509,-3795577.98999 -9549.03701383,-3795466.17925 -9643.46420529,-3795436.51608 -9843.08730075,-3795421.76738 -10002.5499711,-3795347.04245 -10042.5252591,-3795307.80536 -10088.0859358,-3795259.46517 -10096.3018219,-3795180.24742 -9971.61526708,-3795139.62137 -9817.6534808,-3795085.59925 -9604.16898683,-3795079.99353 -9366.29498367,-3795020.93609 -9284.57603105,-3794937.28338 -9152.13976562,-3794768.53371 -9111.36863293,-3794642.21946 -9128.74960118,-3794541.17526 -9215.61351516,-3794509.01822 -9414.73874738,-3794494.2339 -9559.23586071,-3794385.61978 -9451.41690713,-3794357.57325 -9386.13785144,-3794383.67661 -9301.8539994,-3794369.14589 -9239.12798364,-3794356.53526 -9028.82797702,-3794336.68581 -8799.1043813,-3794199.40816 -8713.69770404,-3794186.79769 -8353.55810122,-3794133.63996 -8098.02464919,-3794104.32856 -7963.25351697,-3794182.67615 -7769.95136012,-3794373.80791 -7506.63936122,-3794451.15527 -7219.93694985,-3794690.45913 -6986.1128766,-3794846.01538 -6589.5699132,-3794997.31898 -6433.59227662,-3795261.18969 -6190.57121964,-3795321.92495 -5863.5920418,-3795329.26949 -5513.65053189,-3795473.17309 -5291.24190981,-3795576.63819 -5027.25807835,-3795626.51747 -4730.86490124,-3795718.12254 -4539.7788742,-3795853.06026 -4284.66997921,-3796029.13285 -3988.87769661,-3796100.33797 -3694.31652836,-3796013.11747 -3386.71414322,-3796010.27145 -3174.45310633,-3796043.12286 -3025.80462377,-3796063.72184 -2774.22192597,-3796235.53564 -2419.00748701,-3796410.47984 -2031.12627779,-3796683.95033 -1923.68432727,-3796775.05284 -1765.49839046,-3796898.694 -1608.3204253,-3797044.83039 -1574.52894337,-3797073.50338 -1342.90445974,-3797180.83332 -1257.01516093,-3797221.02122 -1002.43992692,-3797290.94888 -642.563708468,-3797434.67178 -229.069212974,-3797662.07797 -6.51743886086,-3797775.48448 172.492612187,-3797821.98547 272.187039695,-3797844.81261 617.00671005,-3798209.82115 886.273115348,-3798491.09559 1472.10075571,-3798792.34047" style="stroke-linejoin:round;stroke:#000;stroke-width:1px;fill:none" /></g></g></svg>