<svg xmlns="http://www.w3.org/2000/svg" baseProfile="full" height="83690.7649372" version="1.1" viewBox="-24042.800116,3713856.033580,88390.252444,83690.764937" width="88390.2524438"><defs><style type="text/css">polyline,line,rect,path,polygon,.polygon{fill:none;stroke:#000;stroke-width:1px;stroke-linejoin:round;}</style></defs><g fill_rule="evenodd" transform="scale(1,-1)"><g class="id" id="30077"><polygon class="_30077" id="None" points="36542.8418863,-3713921.44419 36658.9397787,-3713974.32522 36751.4855749,-3714033.99672 36846.2655424,-3714129.43719 36913.8511415,-3714197.4727 37031.7947023,-3714315.05735 37082.4563176,-3714365.58673 37158.4901118,-3714442.12613 37241.8397359,-3714533.71322 37379.7990271,-3714679.59797 37560.4654363,-3714934.77798 37718.2474213,-3715109.96995 37804.7170457,-3715203.8748 38052.2565572,-3715419.9454 38232.4237072,-3715095.88517 38572.3664443,-3715400.54376 38799.1708699,-3715570.90307 39085.7196373,-3715789.28971 39149.2191502,-3715837.60815 39426.8500736,-3716039.04023 39555.6986641,-3716133.08085 39723.1717211,-3716240.42978 40054.8041699,-3716449.32809 40148.7001908,-3716510.91201 40259.6576461,-3716601.45777 40726.2635316,-3716983.30932 40924.2138515,-3717145.7889 41228.7583465,-3717432.45135 41390.0445422,-3717585.4998 41615.7678433,-3717799.2722 41741.2461947,-3717949.32324 41864.5712189,-3718096.50248 42053.1893961,-3718324.29654 42083.5858667,-3718355.50733 42537.4618664,-3718759.4777 42887.4764651,-3719106.40659 43011.0224814,-3719235.12544 43042.1367978,-3719270.28325 43113.0895866,-3719349.58488 43265.0997889,-3719519.58933 43297.5117068,-3719555.67169 43409.6006414,-3719680.04099 43537.8955916,-3719822.45092 43587.590239,-3719878.00956 43665.4176982,-3719968.89098 43765.3869751,-3720085.95711 43889.0441409,-3720230.11868 43963.3956742,-3720397.45757 43917.0167058,-3720432.93439 43730.5068366,-3720574.89738 43362.4313957,-3720938.80441 43224.4253113,-3721029.72162 43083.0510349,-3721122.82035 42879.5885783,-3721251.2739 42845.5774738,-3721285.06725 42728.0017883,-3721402.76441 42342.998164,-3721699.82992 42017.4577081,-3721932.2789 41657.097394,-3722076.44129 41448.6100973,-3722244.56007 41465.4891832,-3722413.60439 41454.0118711,-3722534.37744 41471.4870622,-3722929.2019 41809.5136739,-3723199.01965 42180.4168549,-3723419.15154 42351.5646057,-3723498.35899 42580.0279718,-3723604.28576 42851.5339683,-3723744.70404 42961.0305485,-3723799.92401 43131.4877971,-3723893.62357 43384.9367119,-3724032.05334 43860.2590581,-3724408.86467 43894.7637372,-3724361.58404 43928.8268099,-3724315.32498 44077.9424418,-3724110.63173 44144.8712799,-3723898.0508 44304.9236156,-3723392.6758 44780.7371806,-3723823.29221 45140.900503,-3723882.00891 45591.3693282,-3724013.95733 45837.197183,-3724235.04961 46117.7574577,-3724198.00408 46394.3325145,-3724062.48789 46720.6688852,-3723791.11909 46995.8548101,-3723567.95705 47420.3066343,-3723366.89755 47839.2358291,-3723174.12272 48368.1790534,-3723099.83851 48848.0960139,-3723089.58923 49263.1146507,-3723140.26909 49307.807577,-3723146.25605 49554.5848334,-3723366.78686 49726.0731913,-3723456.93081 49789.7601377,-3723490.76923 50062.071245,-3723713.36535 50492.096652,-3723729.3126 50887.7060962,-3723856.82537 51330.480848,-3723891.49977 51626.5249073,-3724097.31742 51646.1296352,-3724163.01319 51700.1120726,-3724344.91854 51791.6465719,-3724632.88814 52187.1202188,-3724843.13521 52296.1089029,-3725198.41184 52710.0603209,-3725266.07949 52808.0973234,-3725164.92972 52996.0234506,-3724914.73998 53035.0209665,-3724854.25693 53137.9634249,-3724671.09818 53215.1015844,-3724534.73013 53267.3779142,-3724488.95882 53301.3824084,-3724459.65467 53394.0440208,-3724432.07023 53448.0345711,-3724417.10418 53519.0690901,-3724242.70042 53496.587839,-3724107.39149 53551.017146,-3724060.00574 53607.6029085,-3724051.37473 53717.5767617,-3724084.1299 53797.5946384,-3724044.29152 53874.8742655,-3723941.80833 53900.5696492,-3723906.488 54046.5452085,-3723708.47918 54073.0873142,-3723562.96789 54138.3916042,-3723509.49568 54234.4255694,-3723551.4996 54289.3824023,-3723544.95327 54339.3649425,-3723466.91594 54364.036935,-3723404.2417 54385.8954809,-3723367.14176 54473.8819304,-3723219.70832 54535.4567216,-3723126.07502 54622.3987729,-3723036.01461 54645.858212,-3722996.33397 54707.3492922,-3722887.75428 54749.5237615,-3722853.01332 54822.9759708,-3722874.34501 54904.9567515,-3722887.72649 54936.4162866,-3722781.31622 54956.9201894,-3722710.90057 54985.5579558,-3722504.47268 55051.5171901,-3722332.8495 55052.0903183,-3722226.66242 55103.4270178,-3722159.51614 55222.5610837,-3722186.7803 55340.5127586,-3722291.35884 55432.0728701,-3722338.09786 55557.4127271,-3722297.73541 55662.9020661,-3722187.2093 55685.9724165,-3722100.2055 55634.4056232,-3722001.9029 55712.5149131,-3721909.84483 55817.8711749,-3721882.05731 55898.3906258,-3721949.84385 56005.0133007,-3721868.6599 56031.3407831,-3721777.48858 56067.8816368,-3721695.21847 56148.3401183,-3721663.33383 56234.4009229,-3721615.68821 56231.0303917,-3721555.07427 56227.0523533,-3721488.01527 56241.4579549,-3721433.39009 56329.5076508,-3721417.03163 56377.4772583,-3721361.03867 56426.4681721,-3721305.48738 56536.9314475,-3721311.30625 56766.0553688,-3721326.97341 56917.8933469,-3721337.46876 56975.3586479,-3721304.37157 57018.5515211,-3721220.73635 57147.3950336,-3721194.13632 57242.5396955,-3721233.69898 57306.5527888,-3721340.77648 57352.3743877,-3721403.01588 57401.3701361,-3721464.08198 57518.4849901,-3721495.44536 57622.9546918,-3721456.24611 57647.294581,-3721360.70249 57694.8235778,-3721346.09908 57775.2821096,-3721354.58271 57861.4278816,-3721393.64836 57977.8514544,-3721417.0763 58028.3089237,-3721464.10647 58036.351391,-3721671.47456 58074.360363,-3721709.72794 58145.9016696,-3721687.80877 58232.8710292,-3721647.58926 58266.4015775,-3721551.53537 58266.3677507,-3721425.45314 58258.3312638,-3721330.2156 58304.4237726,-3721298.7481 58401.9665544,-3721305.28504 58487.7780827,-3721298.02196 58567.795103,-3721329.95267 58645.3264726,-3721330.62525 58725.282027,-3721231.49253 58759.8363786,-3721185.21791 58842.277065,-3721108.3732 58877.4393242,-3721077.51383 58995.9561983,-3721044.51187 59043.4265927,-3720970.60855 59122.77402,-3720847.09157 59192.2693674,-3720757.01363 59305.9569898,-3720758.16853 59451.9654595,-3720775.96541 59502.9424678,-3720738.24715 59607.9590036,-3720632.73981 59718.3047112,-3720591.72137 59837.7894941,-3720647.87038 59900.2242515,-3720713.17088 59996.7694512,-3720679.39811 60113.9318235,-3720639.99421 60209.6780801,-3720654.60513 60275.7280466,-3720717.71088 60306.8347716,-3720748.37367 60297.8686661,-3720851.53022 60298.1755544,-3720933.24096 60337.3975245,-3720979.89768 60424.8066734,-3720956.59942 60527.8900939,-3720870.13747 60528.380496,-3720704.16349 60566.3832827,-3720630.29012 60615.3446689,-3720592.18629 60716.6640282,-3720568.11536 60789.6689314,-3720639.80409 60869.159521,-3720702.66038 60917.7364743,-3720724.87662 60972.771964,-3720751.21878 61043.841714,-3720743.28108 61075.8283243,-3720695.65608 61099.7007945,-3720654.46222 61134.6956905,-3720602.68341 61185.1742017,-3720551.53891 61274.7644335,-3720576.4585 61338.1645233,-3720663.63047 61401.3412006,-3720679.55327 61440.8334089,-3720592.14314 61441.8772906,-3720449.56236 61496.7983581,-3720370.76307 61576.2292514,-3720329.47125 61679.729814,-3720376.04254 61768.2707644,-3720408.99372 61817.1498301,-3720409.76491 61892.2750075,-3720376.18749 61906.3212852,-3720315.10905 61927.7358515,-3720225.21639 62043.6512083,-3720123.0945 62147.2316699,-3720099.39737 62234.6404429,-3720138.88981 62313.7944421,-3720092.63086 62408.7077999,-3720051.97427 62481.1017185,-3720076.85315 62528.6289414,-3720116.07055 62575.2479295,-3720242.04646 62658.7939099,-3720333.08027 62790.0851262,-3720377.60753 62901.2818996,-3720360.96163 63015.6219566,-3720252.94866 63059.0868683,-3720124.95633 62982.1921131,-3719996.67754 63011.2247629,-3719931.77735 63091.0697111,-3719956.24196 63154.7434196,-3720052.86477 63239.0871377,-3720086.54714 63384.0367323,-3720067.52741 63464.7620704,-3720004.73755 63718.5584304,-3719877.5139 63772.7361269,-3719924.334 63846.1255956,-3720083.70144 63945.6213983,-3720161.3892 64041.7217448,-3720213.85159 64155.5403543,-3720266.82385 64238.0604883,-3720272.20307 64308.0783255,-3720276.78229 64192.6111953,-3720449.6362 64090.452642,-3720776.72558 64188.4663296,-3721042.85564 63796.480235,-3721014.81814 63601.0894426,-3721224.50908 63376.7177714,-3721392.45922 63285.4849004,-3721584.40115 63250.4931305,-3721658.60301 63091.6289113,-3721584.21784 63040.48651,-3721560.65078 62775.0635252,-3721532.55437 62621.0710732,-3721756.39266 62467.0782615,-3721966.77732 62159.1307449,-3722092.53829 62340.5076311,-3722428.28873 62145.0875621,-3722610.58238 61977.0817416,-3722904.97103 62040.6330942,-3723138.14154 61921.033956,-3723366.55127 61768.4853468,-3723643.13984 61795.0352298,-3723954.61391 61822.6825299,-3724178.32065 61641.0420127,-3724402.21263 61614.5797116,-3724746.03923 61682.4273716,-3725087.6068 61823.9792915,-3725280.55505 61738.3687986,-3725564.386 61710.3596639,-3725844.51261 61416.9689111,-3725802.04318 61164.4202497,-3725956.13556 61072.9564984,-3726206.40945 61147.495944,-3726363.72015 61304.9283963,-3726600.13506 61329.9705136,-3726879.80158 60899.0444927,-3726824.06535 60722.5071062,-3726978.41495 61025.0660845,-3727230.16931 60641.5491476,-3727332.2603 60871.0595336,-3727440.07555 60758.8798018,-3727734.36418 60675.0019407,-3728098.34005 60758.8667474,-3728378.22041 60534.9705799,-3728532.22334 60254.3588573,-3728535.89727 59987.4687467,-3728745.62041 60109.5642286,-3729192.81042 60163.8277119,-3729679.16188 60088.9049724,-3729904.1049 59844.8528128,-3729700.9259 59824.3412637,-3729985.62926 59499.4837934,-3730147.75929 59590.9462989,-3730264.25871 59722.9086482,-3730432.32196 59397.8587349,-3730595.46196 59154.0448217,-3730655.89897 59255.4028193,-3730981.15511 59133.3491213,-3731245.60908 58869.4486366,-3731205.00566 58808.563015,-3731489.47371 58463.0668617,-3731692.63337 58310.9819987,-3731945.80938 58279.9691095,-3731997.37502 57955.0390305,-3732220.82161 57678.0434558,-3732405.71449 57506.4973202,-3732519.93949 57406.0698577,-3732586.84021 57187.9424991,-3732625.42024 57047.6013455,-3732687.07216 56664.4709044,-3732858.95148 56482.9142012,-3733262.79571 56279.5570777,-3733445.58222 56544.0598756,-3733648.6159 56401.5584435,-3733912.73215 56279.4253949,-3734278.37891 56198.6218167,-3734562.97681 56015.6154552,-3734766.56136 55942.0712231,-3734828.47804 55898.9656098,-3734864.27534 55599.9817293,-3735097.26054 55740.1015696,-3735348.59884 55894.9527707,-3735462.05877 55721.4098982,-3735643.18981 55469.5477496,-3735782.84262 55077.5315175,-3735867.02557 55126.5140063,-3736025.76873 55189.5593818,-3736231.07336 54881.4811168,-3736510.92555 54461.4650393,-3736763.14026 54293.537372,-3736986.82711 54125.5744577,-3737183.1053 53901.4637646,-3737462.76243 53957.6254404,-3737799.03471 53873.4778183,-3737938.80087 53705.5802837,-3738162.98967 53481.5292106,-3738358.91731 53285.5986718,-3738442.62969 53033.6965753,-3738554.88813 52725.489609,-3738778.94597 52529.5364153,-3739058.53665 52417.6100231,-3739338.91629 52193.566591,-3739646.4957 52053.6422985,-3739898.53784 51970.2439234,-3740127.48526 51719.1252008,-3740195.84779 51419.1227756,-3740276.91138 51284.2308698,-3740306.87971 51280.0639765,-3740392.84085 51261.601555,-3740651.05762 51141.2142038,-3740878.08926 50992.5966451,-3741050.37823 50774.1961292,-3741146.82142 50533.6828948,-3741476.26968 50249.2860999,-3741671.6047 49997.2702505,-3741946.87338 49780.6379224,-3741976.93043 49676.2164168,-3741999.21773 49673.7072855,-3742083.59325 49664.1030109,-3742241.63528 49474.3194638,-3742395.29911 49370.2428976,-3742530.71279 49323.794371,-3742560.22602 51056.6235688,-3744204.80838 49875.2386768,-3750753.56446 49304.70443,-3753916.76751 48500.8640894,-3758434.97992 48761.1834626,-3758565.90683 48897.6360944,-3758652.44983 49199.1895968,-3758860.81074 49424.2787567,-3759340.63377 49889.2225059,-3759715.76104 50055.6754215,-3759923.73021 50128.5832842,-3760014.83625 50189.1696024,-3760090.68429 50036.5721032,-3760528.42058 49769.6924617,-3760755.25948 49485.3040625,-3760972.11839 49409.282559,-3761020.75339 49279.6925331,-3761344.55407 49188.7867594,-3761554.02962 49181.703161,-3761738.3569 49164.2604218,-3761911.30381 49034.6641382,-3762137.4112 49029.7042268,-3762563.37027 49141.7168695,-3762955.3366 49057.7652982,-3763235.20493 48981.3065149,-3763329.22707 48693.6764194,-3763683.3586 48544.9082767,-3764002.76518 48497.7445584,-3764103.61488 48413.7764496,-3764551.47026 48217.84457,-3764887.4912 47896.7881706,-3765435.92295 48972.7614178,-3766087.67164 49792.3030653,-3766558.43996 50378.7235431,-3766894.7796 50884.3068835,-3767185.32125 51177.1280235,-3767353.25857 51234.322641,-3767386.42452 51800.1056439,-3767710.45262 52417.6949091,-3768064.95226 52393.5856372,-3768123.63005 51086.7235081,-3771296.07173 50810.7471881,-3771966.59114 49311.4921987,-3775605.16045 49173.0514609,-3775925.51142 49217.4979837,-3775957.89584 49616.1430812,-3776507.63569 49841.500837,-3776769.07053 49894.5585468,-3776830.37728 50105.5474238,-3777075.67343 51646.0613162,-3778859.39377 51740.4231208,-3779254.81912 51962.4212303,-3780312.45262 52236.5400323,-3781326.26268 52514.1565832,-3782485.41614 52513.9949828,-3782742.62543 52513.989589,-3783073.09825 52290.1854932,-3785368.67091 51128.2053621,-3784948.91406 50932.3310131,-3785425.06315 50596.4358201,-3786082.60595 50429.8651462,-3786459.90306 50423.3064224,-3786577.4148 50590.3124205,-3786991.66173 50696.94557,-3787404.83845 50806.4185798,-3787916.55035 50707.9247998,-3788646.40446 50600.9062741,-3789067.19352 50564.5382551,-3789287.58427 50564.5838184,-3789508.4052 50558.8608219,-3789754.97516 50560.923796,-3789874.99041 50456.9498941,-3789891.84672 50325.5396777,-3789912.74964 48735.0418072,-3789884.7053 46190.1435792,-3789839.42503 44576.8195052,-3789806.17242 42569.7122429,-3789765.79922 39518.7910712,-3789729.18267 38269.2953433,-3789582.06393 37313.4359201,-3789703.49367 37278.4158843,-3791541.22289 37277.0608428,-3791640.51596 36984.597586,-3791666.0587 37294.9480385,-3792963.71828 37207.6116426,-3793186.54578 37053.5894211,-3793578.68159 36914.6301457,-3793933.07075 36807.0449341,-3794827.64135 36865.1176396,-3794880.1899 37077.0116881,-3795073.59084 37395.0119181,-3795406.06011 37572.1291489,-3795443.38107 37555.2053492,-3795637.29029 37527.5648056,-3795708.16014 37480.2712103,-3795832.49538 37396.6099345,-3796049.63489 37321.6975296,-3796262.78873 37200.2833731,-3796425.23267 37081.1266553,-3796605.49814 36952.2874306,-3796817.22573 36912.1332973,-3796882.82374 36907.6211371,-3796943.90697 36891.8076076,-3797210.05099 36879.0951509,-3797412.20049 36635.6234498,-3797281.92258 36508.130692,-3797205.39303 36408.2522416,-3797154.22033 36218.2939004,-3797048.82561 36121.6862829,-3796985.00211 35917.1121633,-3796872.45801 35692.2862368,-3796750.09289 35443.104008,-3796602.68291 35150.6847264,-3796435.78585 34573.6477635,-3796116.50254 34144.1755997,-3795871.61332 33929.1262395,-3795921.70233 33697.6566954,-3795932.83421 33555.8068307,-3795932.90057 33322.6972361,-3796055.81375 33164.8561333,-3796173.96051 33016.6294869,-3796272.61528 32749.7663868,-3796508.13692 32683.7404551,-3796530.82894 32528.3583696,-3796507.73008 32309.8235489,-3796461.28739 32104.6662404,-3796378.18507 31830.8278918,-3796363.29911 31602.7777406,-3796496.40006 31296.2303237,-3796423.53416 30944.2195275,-3796415.07532 30656.7312077,-3796396.97347 30334.7718124,-3796324.97935 30138.7893404,-3796324.62455 29791.8148621,-3796330.3388 29493.8736849,-3796303.85267 29224.357083,-3796189.48969 28986.6760648,-3796047.39121 28734.3419823,-3795963.46632 28417.6675909,-3795980.42434 28338.8574562,-3795984.39417 28087.4226618,-3796109.84863 27869.7482908,-3795982.07061 27611.2659537,-3796031.63165 27434.7635582,-3795974.81974 27336.3367971,-3795923.05526 27215.77569,-3795859.0819 27065.2967004,-3795737.96327 26810.2257977,-3795583.8784 26587.2525052,-3795485.81696 26425.7827904,-3795267.58232 26368.2884815,-3795220.97556 26220.4172163,-3795110.67662 26065.356557,-3794992.30746 25962.6708054,-3794812.62589 25839.7368789,-3794825.57745 25731.2137577,-3794784.85403 25648.304467,-3794756.14266 25330.6793794,-3794453.00415 25073.274612,-3794213.77033 24723.7146737,-3793901.46559 24301.7775137,-3793570.31945 23823.8354872,-3793368.50643 23731.87069,-3793166.76645 23327.290045,-3793001.18573 23014.7863847,-3792964.53194 22610.2300339,-3793129.57279 21985.2334665,-3793479.15011 21233.7751001,-3793885.26838 21233.2244476,-3793659.89018 21221.2841231,-3793449.12072 21270.7397478,-3793212.93098 21407.7028446,-3793064.54158 21531.7287178,-3792828.61742 21606.3509474,-3792468.82529 21494.8247957,-3792207.84403 21283.8582457,-3792009.34394 21109.8812409,-3791922.44981 20923.6580305,-3791773.41331 20886.2765801,-3791500.75012 20805.7238334,-3791249.48138 20662.762209,-3790979.30415 20737.2406693,-3790656.42279 20700.2764961,-3790197.22431 21022.7349139,-3789973.51223 21444.6247284,-3789836.93037 21367.1864598,-3789305.72325 21351.2474215,-3789248.77756 21306.119662,-3789248.83786 21173.1654283,-3789247.8839 20937.6916985,-3789246.24834 20706.2825645,-3789276.79756 20216.2631871,-3789262.63648 19908.3135411,-3789178.82698 19628.2540064,-3789010.65438 19348.3504594,-3788968.64276 18998.1573823,-3789332.56263 18956.1303127,-3789206.77387 18788.2524508,-3788954.45307 18410.3085812,-3788814.75479 18228.1780912,-3788940.75974 17990.3856389,-3788814.57498 17878.247048,-3788674.79716 17640.2357759,-3788632.90553 17486.2516199,-3788436.64578 17472.3675562,-3788226.47547 17332.2541885,-3788226.92067 17178.2276821,-3787932.9135 16968.2631208,-3787932.82056 16828.2334208,-3788044.97298 16716.2938314,-3788212.88954 16520.3903865,-3788408.49751 16226.3105538,-3788534.85218 15995.8835609,-3788322.96299 15736.3509681,-3788226.92683 15484.3462997,-3788338.93203 15386.2891116,-3788086.63639 15138.7853249,-3788198.88553 14902.7431154,-3788310.98576 14756.1984107,-3788100.83023 14592.8286805,-3788161.93897 14294.3408844,-3788170.84232 14135.9055034,-3788195.76329 14028.3947311,-3788212.81654 13910.3292215,-3787950.67465 13652.2417869,-3787897.94168 13462.7418348,-3787739.58598 13239.8915171,-3787652.93937 13062.3842068,-3787666.96784 12954.2627104,-3787404.2592 12755.8622833,-3787379.56882 12557.2186787,-3787416.73657 12408.3249435,-3787094.48643 12236.2275929,-3787274.78956 11998.4059037,-3787302.70113 11941.2205944,-3787266.03463 11794.9250737,-3787170.56649 11539.2464319,-3786820.93328 11060.2886173,-3786910.85599 10756.760884,-3786808.81364 10554.8220035,-3787012.75215 10322.8509129,-3787069.25995 10094.4125721,-3786813.34214 10010.39788,-3786910.86213 9739.30088528,-3787069.33506 9466.3816942,-3787032.39491 9311.93190756,-3787048.60872 9093.85495568,-3786883.37592 8862.23732599,-3786910.93486 8484.32886828,-3786882.92124 8022.23867193,-3786728.9862 7686.32903506,-3786574.89883 7391.80942303,-3786575.08778 7154.35968614,-3786490.74874 7014.36437393,-3786462.74969 6722.29301575,-3786312.16575 6561.4299298,-3786387.09826 6370.47272354,-3786392.90407 6006.42360545,-3786169.07368 5767.36397512,-3786051.90161 5742.27193952,-3785753.54522 5556.29567383,-3785741.60974 5320.48723345,-3785818.78195 5180.50884228,-3786042.67177 5105.31585392,-3786014.00083 4441.37430472,-3785995.65862 4174.41645274,-3785857.11423 4149.94341805,-3785772.70301 4120.9809104,-3785644.1519 3836.45754082,-3785539.02046 3742.78887751,-3785487.94837 3633.37954888,-3785326.03282 3328.00774209,-3785143.26536 2502.37451792,-3784015.70685 1662.35453259,-3783397.23184 1411.40858709,-3783250.78388 1213.33820158,-3783135.26877 527.913998261,-3783072.71314 -165.179937742,-3782998.11759 504.934903401,-3782100.30348 -73.6776813097,-3779373.95454 -203.589380186,-3778839.55805 1662.31461614,-3775833.21574 1423.33912578,-3775606.75808 -3450.4670327,-3770979.33617 -3205.47660838,-3770293.60897 -3737.01038922,-3770000.77604 -4406.10629496,-3769625.88768 -4545.97116713,-3768749.304 -4734.04793745,-3767574.12716 -7334.56245136,-3764428.90005 -7440.57178888,-3764300.1651 -8051.83595348,-3763582.72655 -8813.01219251,-3763571.1183 -8859.45674245,-3763570.23577 -8953.03882368,-3763565.01754 -9314.53399901,-3763435.16766 -9779.40080007,-3763156.97106 -9993.43296704,-3762996.88248 -10169.4324337,-3762861.09702 -10287.3783092,-3762777.42546 -10399.3816967,-3762697.41086 -10539.4132707,-3762598.01738 -10858.9683262,-3762384.48541 -11151.7745558,-3762132.03275 -11300.7525782,-3761722.33366 -11464.4365793,-3761574.87552 -11480.4516956,-3761360.75469 -11463.265389,-3761222.59583 -11436.2533574,-3760926.23735 -11387.3393741,-3760282.42319 -11499.2609989,-3759959.44177 -11829.2619449,-3759541.9384 -11954.9178242,-3759307.52936 -12194.3934326,-3758805.11814 -12392.8463267,-3758482.49714 -12603.9533768,-3758258.86617 -12752.8102699,-3758184.4024 -12926.7693693,-3758084.90537 -13212.4440845,-3757923.82597 -13485.4096138,-3757762.53111 -13528.2927197,-3757811.83335 -13621.763195,-3757564.136 -14262.4052433,-3757051.7825 -14430.3752177,-3757303.67135 -14917.8178187,-3757952.65284 -15124.7446844,-3757803.61379 -15606.155672,-3757457.43612 -15788.2494628,-3758311.31285 -17881.1964456,-3757982.70369 -17846.0868188,-3757861.49045 -17678.1065495,-3757667.46418 -17510.1297123,-3757415.5638 -17454.2904831,-3757303.66613 -17272.2187784,-3757107.35505 -17048.7725074,-3756981.56673 -16810.1467231,-3756561.56341 -17007.7148933,-3756294.74533 -17356.1585601,-3756015.43169 -16880.6634807,-3755441.953 -17046.7420114,-3755309.57166 -18014.3247809,-3754545.5827 -17097.1447969,-3753355.63706 -16582.3667432,-3752899.71788 -16460.3137801,-3752794.09382 -16370.2521853,-3752700.73981 -16501.3309313,-3752418.2155 -16641.7254608,-3752125.23607 -16842.3436334,-3751558.73128 -17303.2914765,-3749960.57406 -16653.710573,-3749301.05957 -13539.3344058,-3746109.41236 -16755.2550191,-3742919.68518 -17454.3167086,-3742226.35671 -19867.2876459,-3744534.55628 -19954.6312439,-3744618.77057 -20565.132753,-3743654.04123 -20687.6704633,-3743055.18392 -20800.2055179,-3742523.62129 -20946.8007835,-3742266.38027 -21057.1228063,-3742064.489 -21167.6872644,-3741880.57247 -20928.2638944,-3741660.63321 -20414.2486372,-3741457.28372 -20472.7559293,-3741343.30365 -20631.2407419,-3741047.31036 -21110.8648348,-3740151.57329 -21307.1930506,-3739611.21369 -21629.3472365,-3738725.12801 -21743.8098597,-3738408.70536 -22367.2496615,-3738488.91948 -22447.1937065,-3738486.89699 -22497.1287907,-3738481.70207 -22542.207985,-3738250.71272 -22570.157267,-3738107.57905 -23536.2333404,-3735857.3597 -23785.8532531,-3735269.05342 -23870.2662399,-3735070.68938 -23993.3604051,-3734778.18488 -23989.6288605,-3734661.72064 -23966.6546234,-3734586.09506 -23902.7862012,-3734492.22186 -23669.7838015,-3734340.0172 -23284.8991786,-3734097.51423 -23105.7488952,-3733977.2545 -22914.1916429,-3733855.80439 -22366.3513674,-3733502.43396 -21944.2468711,-3733269.83818 -21751.4480345,-3733148.32242 -21393.3703672,-3732921.79532 -21299.9556794,-3732861.20466 -21077.9543972,-3732717.60639 -20680.448339,-3732621.10134 -20471.918874,-3732549.10386 -20240.488059,-3732449.38674 -20117.3470366,-3732362.69279 -19950.276578,-3732245.11118 -19737.9554486,-3732071.1236 -19596.0029097,-3731954.94352 -19409.3958676,-3731843.25941 -19159.8226974,-3731693.14138 -19005.321255,-3731600.71037 -18307.3686894,-3731434.58073 -17392.8854601,-3731205.99479 -16988.3759638,-3730819.24766 -15982.0047982,-3729616.69329 -15634.9437601,-3729201.73259 -15427.0314227,-3728962.15532 -14592.4251402,-3727994.21638 -13565.6436597,-3726844.48324 -13506.0900021,-3726708.96439 -13438.16503,-3726566.99316 -12554.525804,-3727304.01861 -12152.0631488,-3727588.41193 -11737.1118293,-3727882.08385 -11121.6434188,-3728269.34513 -10594.1392897,-3728532.79395 -10189.0216716,-3728690.31489 -9680.08021368,-3728831.07537 -9310.72876589,-3728919.74807 -8871.66772875,-3729041.94983 -8466.65499872,-3729112.67041 -8110.13402888,-3729342.72837 -7354.20877083,-3729851.82812 -6796.63080475,-3730167.44862 -6457.22921801,-3730479.75948 -6239.2695182,-3730680.6131 -6101.26317446,-3730726.79512 -5635.04890323,-3730915.80528 -5043.12173244,-3731176.6196 -4915.17124842,-3731234.8332 -4664.07808409,-3731350.03129 -4579.14993723,-3731370.23809 -4434.07611989,-3731404.55073 -4000.09948665,-3731507.55712 -3764.07684166,-3731562.73742 -3547.22141622,-3731649.91221 -3498.23630752,-3731669.62796 -3426.62473973,-3731692.57159 -2666.13661211,-3731966.41918 -2624.63952643,-3731981.56384 -2595.75966236,-3731895.65547 -2361.84482231,-3731206.2357 -1964.69829873,-3730116.16476 -1608.70973501,-3729137.63656 -1550.74867854,-3728978.28374 -1428.77820542,-3728642.78171 -1443.87898654,-3726916.29148 -1443.65883716,-3726687.33193 -1443.82865971,-3725698.72855 -910.729495333,-3725566.80147 1271.21415025,-3725024.88117 1558.22395707,-3724670.23991 1958.14937833,-3724175.64766 2094.70753566,-3723998.96604 2711.23782482,-3723202.0493 3026.70106932,-3723201.95686 3991.58810473,-3723175.71226 5089.19318926,-3723190.96204 5067.10567535,-3722103.42261 5023.65894826,-3720416.07939 6725.18132859,-3720381.3406 6701.58941627,-3720306.84417 6610.23152386,-3719946.34859 6439.23366641,-3719274.57746 7368.25427864,-3719460.84309 7369.05128845,-3719255.32157 7385.25641996,-3715910.93217 7428.66170714,-3715560.90755 7731.15043627,-3715534.13851 7902.23674826,-3715633.36199 8082.54730107,-3715768.47972 8280.03649985,-3715965.98079 8381.73687085,-3716055.09105 8424.24549443,-3716093.12716 8595.24874639,-3716163.92574 8816.19257494,-3716182.07876 9235.07058248,-3716181.2609 9468.27596181,-3716209.20575 9667.69912617,-3716270.94401 9882.22999156,-3716353.28756 10089.1917903,-3716452.00967 10197.5750616,-3716508.82826 10314.1339108,-3716569.1823 10467.7306962,-3716703.78157 10654.5012783,-3716757.74212 10826.5776745,-3716785.08963 10920.7353028,-3716850.67642 10964.0158138,-3716911.60817 11079.1933402,-3716929.14903 11213.5677702,-3716892.76109 11404.1213239,-3716893.64799 11581.5820632,-3716910.22303 11682.1473989,-3716929.57265 11772.1336519,-3716973.94602 11843.7517061,-3717064.72104 11940.5612257,-3717020.94432 12054.5512149,-3716922.85292 12147.135245,-3716843.40506 12280.5959553,-3716822.02936 12389.6964867,-3716748.14764 12508.6850018,-3716668.23137 12636.4838641,-3716603.28555 12747.5157225,-3716613.57622 12855.1760849,-3716711.32505 12996.6717388,-3716749.34636 13130.6001558,-3716740.91098 13248.2348118,-3716623.17038 13337.9998743,-3716569.31385 13383.5999321,-3716568.77622 13419.5307254,-3716685.96705 13510.5350373,-3716811.5689 13642.4999408,-3716893.50457 13803.520689,-3716955.37482 13875.5797949,-3716959.85029 14115.509296,-3716974.45081 14409.6824071,-3716973.57147 14597.1890746,-3716978.11769 14742.0237448,-3716982.04181 14941.5704064,-3717055.23526 15004.4865574,-3717052.23949 15129.5729771,-3717046.28938 15208.1209053,-3717068.85517 15253.1947917,-3717081.31192 15462.5435524,-3717254.69194 15706.0288941,-3717423.18271 15843.1825307,-3717517.79168 15957.964547,-3717680.96335 16023.6136019,-3717758.59956 16235.1158647,-3717988.70404 16400.6058471,-3718180.47283 16588.0801231,-3718359.54997 16750.061895,-3718411.88594 16929.4702036,-3718423.3604 17081.5635784,-3718414.41131 17163.5899512,-3718495.12489 17316.6780103,-3718620.75855 17505.4478313,-3718684.07129 17632.0491604,-3718741.36358 17811.6769717,-3718828.62051 18072.5563438,-3718946.76646 18261.462093,-3718981.14809 18376.0753037,-3718970.78996 18481.6051398,-3719169.373 18595.0863905,-3719205.95065 18701.965817,-3719177.5719 18820.6361144,-3719038.33651 18927.4321501,-3718990.51544 19171.4041948,-3718997.40272 19449.9810821,-3719097.6081 19802.5176078,-3719317.36581 20017.9052357,-3719442.52216 20169.4136947,-3719530.83812 20211.9163753,-3719541.93923 20447.9314548,-3719603.11931 20743.1017462,-3719705.88837 21030.5378309,-3719790.63692 21185.9668382,-3719909.1494 21348.5232707,-3720115.52291 21546.4539418,-3720240.6469 21725.5209158,-3720322.44082 21860.5383132,-3720365.29687 21924.4982022,-3720385.67553 22073.5171286,-3720442.71177 22115.4942085,-3720457.83018 22300.5787039,-3720495.4093 22471.9367673,-3720510.31597 22670.3847962,-3720501.2786 22864.4665633,-3720422.67711 23104.0289333,-3720278.7219 23157.9890293,-3720244.80807 23404.8961812,-3720089.47625 23462.887909,-3720051.8483 23607.5067964,-3719908.68518 23639.9801858,-3719811.14625 23685.542575,-3719675.48387 23706.3878501,-3719467.40051 23796.3846977,-3719359.68456 23994.5514865,-3719269.3924 24098.8813793,-3719208.74732 24233.8361974,-3719124.96034 24432.5262587,-3718999.23911 24491.4842476,-3718961.06034 24585.5131914,-3718898.9941 24624.4778822,-3718873.39442 24761.5309817,-3718804.9489 24894.4416372,-3718738.22964 25026.8550682,-3718676.02569 25179.3999832,-3718666.55253 25318.3312543,-3718753.06878 25479.0229725,-3718854.33077 25586.4448963,-3718894.23293 25650.345685,-3718918.10515 25821.8876197,-3718869.18378 26024.5508357,-3718824.01792 26254.4142507,-3718828.69623 26479.884921,-3718696.00674 26620.3585629,-3718612.91403 26741.4466191,-3718499.48748 26849.9424682,-3718361.33282 26884.0182983,-3718315.06506 26984.4509572,-3718081.13116 27110.4547785,-3717899.12645 27278.9842959,-3717760.13159 27348.3511516,-3717702.92947 27612.3971279,-3717569.10019 27802.822592,-3717568.49427 27891.3525715,-3717569.06109 28232.9069061,-3717596.45672 28449.4534089,-3717559.00061 28575.3444337,-3717478.21825 28702.3136674,-3717277.71788 28729.3754425,-3717235.33153 28863.4972357,-3717019.97615 28972.5169873,-3716904.73348 29045.05782,-3716877.77036 29130.549327,-3716846.09947 29287.0081528,-3716750.16018 29455.9759148,-3716637.07382 29581.5621588,-3716568.77551 29734.9822702,-3716498.93179 29929.3508291,-3716484.14976 30148.3481565,-3716526.8309 30376.3739614,-3716579.4802 30528.8802584,-3716542.5931 30680.5332316,-3716387.09581 30855.4622444,-3716282.65563 31005.9780272,-3716299.72436 31102.8121797,-3716414.00144 31248.7979984,-3716470.7074 31356.4602882,-3716416.36884 31385.5379711,-3716347.44902 31420.5251776,-3716263.74298 31492.3210042,-3716138.10873 31592.8866025,-3716090.64615 31707.3405432,-3716059.86196 31761.9580137,-3716046.85829 32004.5338117,-3715966.58353 32160.3212854,-3715970.89608 32290.4016134,-3715974.64173 32436.9998277,-3715795.49995 32527.3752851,-3715753.09118 32572.3834561,-3715733.14317 32669.7981342,-3715736.70861 32768.9798156,-3715740.67449 32895.3354848,-3715632.4546 32981.374433,-3715615.21429 33130.447142,-3715696.17743 33201.9930496,-3715588.50835 33183.4985531,-3715452.93431 33228.3186519,-3715299.38768 33324.4921518,-3715249.18004 33397.8565168,-3715241.61764 33485.4953412,-3715248.71762 33565.5153416,-3715208.38065 33637.4725856,-3715170.98405 33786.9682857,-3715012.62534 33889.0293026,-3714821.50408 34002.8192539,-3714751.87393 34145.3742349,-3714796.30774 34228.8658392,-3714894.87029 34289.3595279,-3714947.34838 34346.015541,-3714993.55844 34473.8844018,-3714962.03256 34599.7926186,-3714931.11414 34713.5195842,-3714995.09444 34764.8742171,-3715035.61606 34848.8362301,-3715102.24532 34983.5204312,-3715148.61025 35115.7802795,-3715070.4774 35238.9302182,-3714953.96537 35269.3312682,-3714922.36624 35299.4293094,-3714876.32667 35352.3079887,-3714796.11992 35415.3760546,-3714697.40081 35469.9087513,-3714669.44776 35595.3703723,-3714697.87953 35667.8821954,-3714580.68984 35794.0085515,-3714562.7221 35906.3261106,-3714605.84205 36009.8713826,-3714499.8922 36135.9690431,-3714490.40112 36307.4303729,-3714480.88498 36339.9294549,-3714451.16419 36360.9998278,-3714386.18434 36383.4243511,-3714300.6901 36448.3128065,-3714230.28748 36478.8518308,-3714196.68751 36501.9090058,-3714154.03094 36527.8394466,-3714082.30091 36552.8055236,-3713979.71636 36542.8418863,-3713921.44419" style="stroke-linejoin:round;stroke:#000;stroke-width:1px;fill:none" /></g></g></svg>