<svg xmlns="http://www.w3.org/2000/svg" baseProfile="full" height="132400.349302" version="1.1" viewBox="1282.203548,3519360.945256,100143.969428,132400.349302" width="100143.969428"><defs><style type="text/css">polyline,line,rect,path,polygon,.polygon{fill:none;stroke:#000;stroke-width:1px;stroke-linejoin:round;}</style></defs><g fill_rule="evenodd" transform="scale(1,-1)"><g class="hogares departamen mujeres departam_1 toponimo_i tot_pob varones viv_part viv_part_h" id="30070"><polygon class="_30070" id="None" points="30913.7260813,-3523530.0091 31074.4251992,-3523332.07666 31280.0751743,-3523267.32902 31455.4396114,-3523190.73232 31682.0505787,-3523201.62892 31867.0343973,-3523254.60864 32256.5313359,-3523367.00654 32650.5629905,-3523475.67348 33139.4564943,-3523639.11124 33396.1698246,-3523733.63482 33684.3296616,-3523838.44957 33912.3316581,-3523875.6849 34176.5125177,-3523918.4749 34468.693377,-3523958.2826 34734.9811098,-3524064.25606 35054.1300889,-3524330.39571 35213.4581666,-3524688.75013 35266.5921977,-3525248.11221 35198.7703865,-3525847.78993 35299.2959059,-3526426.56229 35454.5625304,-3526698.905 35618.483618,-3526885.56223 35688.4415837,-3527114.09286 35700.9664367,-3527359.13199 35635.2106526,-3527645.71097 35549.8657923,-3527985.66261 35613.8183615,-3528326.15047 35869.052595,-3528646.00131 36092.2061524,-3528943.6331 36216.5938337,-3529249.00693 36372.5981316,-3529633.43609 36475.068243,-3530102.94385 36570.7157527,-3530528.45726 36751.8346638,-3530953.90754 36884.63447,-3531136.22597 37049.4370111,-3531362.69155 37283.3714016,-3531586.47406 37507.2390546,-3531794.34436 37709.665701,-3531903.67984 37900.3179065,-3532007.16243 38103.8475949,-3532081.05365 38450.8887922,-3532206.1139 38671.4409122,-3532295.54393 38873.0350893,-3532417.37927 39094.1271004,-3532559.10726 39212.0350698,-3532639.54625 39423.2875081,-3532774.32112 39436.4653576,-3532722.28865 39516.0935558,-3532406.5759 39554.6766101,-3532256.01154 39617.8528479,-3532071.24691 39697.7572959,-3531910.5103 39800.172968,-3531756.05152 39860.0154063,-3531616.31752 39920.0108737,-3531446.6743 39969.7918324,-3531206.80846 39978.1000112,-3531007.0244 39990.6162926,-3530708.34227 40002.1612642,-3530447.58691 40015.1717737,-3530139.41003 39979.5618622,-3529858.73688 39934.5797388,-3529584.54213 39892.7863344,-3529328.11826 39864.1435522,-3528986.27436 39830.2756348,-3528578.92503 39999.0827256,-3528126.41481 40069.7881414,-3527937.76691 40104.5748791,-3527785.91335 40146.9443154,-3527603.25737 40205.1068592,-3527051.97788 40264.1928029,-3526428.88763 40339.6468148,-3526127.86095 40501.7363366,-3525651.79679 40697.0263116,-3525350.38715 41016.3319031,-3524906.8425 41277.1365277,-3524534.68189 41459.8807327,-3524161.18726 41600.4260682,-3523818.83895 41723.356793,-3523388.72252 42227.2052986,-3522520.78288 42375.2065919,-3522436.18453 43011.2438894,-3522073.03354 43655.5648072,-3522129.04073 44103.3338706,-3522044.9833 44296.9089696,-3522180.71985 44560.677847,-3522216.55504 44752.608258,-3522180.45777 44943.2115825,-3522100.5793 45068.7732372,-3521968.8395 45173.1744667,-3521832.74149 45221.0696589,-3521664.75994 45317.4799216,-3521556.49394 45449.0112122,-3521532.57304 45520.8966707,-3521628.91993 45557.4888582,-3521820.82173 45615.2845828,-3521933.36338 45749.2518922,-3522072.75829 45965.2264095,-3522156.47523 46169.4264519,-3522168.56191 46325.4066396,-3522168.75635 46421.484037,-3522204.51921 46529.3878798,-3522312.90512 46625.1275094,-3522384.56343 46632.7123908,-3522475.84875 46703.3019928,-3522449.18081 46745.2973439,-3522432.99978 46925.2065171,-3522433.41864 47153.2108057,-3522372.98424 47332.9067728,-3522336.54053 47537.4634804,-3522336.64833 47669.8084714,-3522361.01811 47813.5425,-3522445.07704 47933.5555788,-3522589.19301 48053.2967468,-3522709.40484 48173.5266409,-3522721.46103 48269.6669041,-3522697.42382 48341.5582248,-3522601.42489 48389.7447689,-3522481.27132 48485.7881955,-3522384.98776 48593.6314106,-3522360.82844 48696.1498031,-3522391.26509 48749.7755575,-3522481.59913 48881.738534,-3522625.57707 48989.7874331,-3522685.11848 49133.4247661,-3522673.50954 49272.4637553,-3522612.81466 49397.6817841,-3522493.5579 49558.0944978,-3522450.66413 49673.6955226,-3522469.44378 49841.843752,-3522445.57263 49973.8988209,-3522384.75121 50082.0234285,-3522168.74096 50226.2146236,-3521989.18507 50310.3447326,-3521832.7475 50292.7050652,-3521645.83366 50252.7643975,-3521536.3389 50166.2182998,-3521388.956 50154.374026,-3521269.00149 50190.0237688,-3521184.8949 50273.9848304,-3521184.92568 50346.1530117,-3521220.95951 50406.0545039,-3521316.93859 50430.1479965,-3521461.15652 50478.0983861,-3521557.27098 50562.3536306,-3521605.11988 50694.1689439,-3521629.01981 50838.1606392,-3521628.85494 50995.9181388,-3521653.37153 51113.975834,-3521737.29504 51294.0054917,-3521773.08633 51426.1804273,-3521785.00817 51498.0929588,-3521712.93057 51510.0644747,-3521605.16834 51498.919448,-3521437.34577 51487.996931,-3521269.01307 51510.2941059,-3521149.24309 51534.3713033,-3520969.08866 51531.6302008,-3520884.52892 51510.2566638,-3520800.9574 51462.037055,-3520680.94143 51462.1719928,-3520561.35043 51510.1345556,-3520465.13284 51570.1426124,-3520441.02333 51678.3469508,-3520513.01425 51906.0285862,-3520597.10427 52530.6980642,-3520617.78745 52895.1815463,-3520561.58659 53110.9643451,-3520623.38622 53214.6572226,-3520765.36971 53430.1571114,-3520873.52066 53646.5782069,-3520933.29187 53790.1384414,-3520981.48147 53886.2712051,-3520957.4493 53946.5926232,-3520873.53398 53958.1549537,-3520753.34155 53994.5487925,-3520669.20075 54138.4426129,-3520573.38011 54258.5440878,-3520489.28476 54433.5471028,-3520303.62623 54506.1620586,-3520226.03575 54578.5549577,-3520148.95546 54743.1544927,-3519973.81521 54845.6227946,-3519768.58799 54910.9478776,-3519638.07352 55039.2208176,-3519553.04948 55206.072665,-3519556.65966 55443.1260432,-3519498.25456 55567.23283,-3519564.91552 55747.0914219,-3519564.84669 55891.2177599,-3519637.91931 56115.0603751,-3519945.91556 56230.1329115,-3520016.04333 56431.0216344,-3520069.66317 56550.8965446,-3520117.61377 56634.9166501,-3520189.38728 56718.9374882,-3520129.62915 56922.9426117,-3519997.74384 57078.9166754,-3519913.74415 57175.0673668,-3519913.62849 57306.8685265,-3519937.53012 57499.6922385,-3519937.76925 57583.5084533,-3519925.85206 57655.373204,-3520045.59983 57763.2733497,-3520069.77184 57919.5607873,-3520057.49952 57967.4134454,-3520057.9516 58051.6575665,-3520105.79741 58214.9209615,-3520281.47983 58315.0555747,-3520309.55049 58450.8596026,-3520244.55695 58531.302399,-3520201.92933 58663.2138067,-3520213.86697 58819.5701751,-3520249.91704 58915.4922393,-3520273.72696 59138.9142764,-3520198.10989 59287.3847817,-3520198.20889 59407.2808907,-3520213.77269 59467.3977737,-3520285.81388 59515.2036028,-3520369.96639 59561.8501282,-3520498.0221 59623.194069,-3520597.8971 59731.3619649,-3520645.96689 59815.3105648,-3520645.99897 59923.5874762,-3520573.99655 60019.9371995,-3520526.04219 60079.8244596,-3520513.89897 60230.844199,-3520618.48354 60320.0159869,-3520670.05115 60415.7778574,-3520657.99824 60535.9582473,-3520538.03672 60667.8621966,-3520441.86553 60775.983234,-3520442.11071 60863.9384582,-3520494.24082 60955.8528083,-3520574.0596 61039.6903805,-3520694.16175 61159.7791408,-3520610.07589 61255.7431629,-3520550.18631 61327.9624562,-3520549.8441 61462.8673137,-3520674.71037 61531.6877682,-3520741.80354 61615.8598251,-3520717.91067 61723.704815,-3520586.15076 61855.6512396,-3520537.80474 61975.580177,-3520549.38003 62106.7919436,-3520562.34972 62227.8269319,-3520561.9099 62347.5786824,-3520490.29826 62466.524429,-3520497.44206 62624.350495,-3520537.8949 62768.2737695,-3520598.01549 62948.2732599,-3520741.9091 63056.3940191,-3520850.2578 63272.203039,-3521162.12819 63415.6785003,-3521378.19849 63487.7489834,-3521436.14934 63560.2606489,-3521582.253 63548.0649048,-3521713.91898 63512.1741093,-3521798.02109 63562.7601563,-3521906.43 63632.065028,-3521977.97743 63691.9312226,-3522050.02542 63728.0584394,-3522158.20452 63702.3734804,-3522354.84988 63753.7501742,-3522445.28196 63814.6375043,-3522550.65254 63956.0119885,-3522614.38981 64063.902095,-3522638.55552 64206.6877752,-3522578.6722 64330.2766093,-3522537.24344 64423.8612457,-3522554.69565 64459.9392535,-3522638.46577 64423.7621278,-3522782.86032 64327.9875136,-3522902.52014 64303.9349809,-3522998.44788 64364.0500088,-3523070.48093 64507.8355006,-3523118.64545 64582.9699708,-3523187.39031 64682.4693045,-3523278.75385 64688.0025353,-3523406.48801 64710.294158,-3523530.84195 64795.8580424,-3523622.44619 64879.3765582,-3523670.81872 64927.4543823,-3523778.85876 64988.1374688,-3523922.59529 65024.4590819,-3523874.83671 65096.4347581,-3523658.80058 65132.5470406,-3523550.7761 65264.3244428,-3523466.56801 65360.4389673,-3523442.53725 65492.3548733,-3523346.86474 65612.1177627,-3523322.57561 65744.4253301,-3523346.93812 65864.1642898,-3523298.73899 66020.0653683,-3523166.92412 66098.3433315,-3523102.49401 66162.5157127,-3523128.97785 66233.2441959,-3523171.05456 66272.2273929,-3523262.63815 66316.3170203,-3523342.4932 66403.8666287,-3523466.86779 66536.3945759,-3523490.71984 66632.2823024,-3523490.61261 66704.0668614,-3523407.09959 66740.3381286,-3523334.93611 66773.5294323,-3523214.11783 66824.0372569,-3523142.69354 66943.7773806,-3523071.08274 67136.4243464,-3523063.8493 67398.2234051,-3523054.93913 67484.7042855,-3523131.04905 67538.7826427,-3523277.12335 67520.482512,-3523490.80031 67364.01838,-3523550.9104 67184.2013629,-3523659.08557 67063.9420668,-3523706.81388 67028.3041451,-3523790.89905 67118.2360167,-3523922.61732 67135.9319303,-3524030.77147 67160.0619456,-3524114.67318 67313.9379865,-3524231.04109 67472.312652,-3524235.08799 67568.6071367,-3524270.82409 67676.6514102,-3524330.84333 67846.1668968,-3524314.8712 68012.7865486,-3524342.88885 68144.5518402,-3524450.96376 68132.4509276,-3524546.74998 68203.2767492,-3524604.75891 68264.4646605,-3524654.81106 68461.7489075,-3524678.70906 68516.3398348,-3524595.11354 68528.5026526,-3524462.96095 68492.3363769,-3524415.06753 68433.9761982,-3524315.05192 68318.5528862,-3524237.99039 68216.0904473,-3524175.18466 68276.9204715,-3524068.34393 68420.3849654,-3524030.84123 68588.5806933,-3524079.19911 68740.8157465,-3524188.17956 68732.4374077,-3524307.17937 68804.3850636,-3524391.03121 68917.9014801,-3524357.11027 69245.9412964,-3524259.00095 69356.5547574,-3524283.01715 69392.4575394,-3524415.10716 69524.3942549,-3524474.85233 69680.3171331,-3524475.04356 69776.4245282,-3524451.01324 69777.918116,-3524371.23439 69656.6515001,-3524259.11805 69584.4566764,-3524175.28034 69548.7055399,-3523970.95457 69596.2951968,-3523839.91282 69637.6316164,-3523727.13559 69752.1334329,-3523707.11143 69896.4425366,-3523694.96977 70057.2705636,-3523853.30478 70169.5476422,-3524007.24217 70339.7843293,-3524187.98973 70400.9567253,-3524355.09895 70544.6882409,-3524486.94214 70796.6354758,-3524607.06275 70925.7657938,-3524595.22682 71085.3321807,-3524537.44331 71264.7922003,-3524535.38869 71348.8851603,-3524571.27168 71373.768841,-3524763.2173 71384.8928756,-3524907.07853 71528.6255126,-3525015.5072 71684.7197054,-3524943.96048 71738.8867071,-3524997.86896 71792.8053515,-3525051.79054 71852.6667795,-3525123.82642 71960.5816768,-3525087.7126 72080.7700662,-3524907.49334 72269.6264002,-3524763.47771 72368.6621675,-3524691.47468 72577.6794142,-3524819.34897 72745.460301,-3525099.33929 72861.11154,-3525147.99 73072.2561167,-3525128.31235 73361.3928217,-3524987.44212 73521.1703419,-3524919.68671 73677.0452879,-3524980.14827 73845.1027005,-3524955.78557 74000.7903607,-3524979.89618 74117.5193855,-3524903.46887 74097.231953,-3524727.72469 73949.4949497,-3524623.49719 73869.0082455,-3524547.57722 73837.1438611,-3524378.92189 73845.3120459,-3524199.67409 73977.2954068,-3524091.55695 74121.293603,-3524078.43543 74289.0603152,-3523959.45438 74433.0634539,-3523899.51296 74613.0925289,-3523875.51428 74673.0306237,-3523803.59789 74744.8451486,-3523659.82558 74900.721135,-3523551.43944 75033.2339293,-3523551.87889 75165.1343367,-3523587.71446 75297.2828182,-3523623.5367 75393.2227571,-3523563.65708 75417.2403601,-3523335.75751 75441.1530234,-3523227.90023 75545.0685745,-3523111.81368 75825.8803012,-3523142.73742 75977.9933199,-3523226.31204 76113.1330054,-3523323.23864 76256.5102009,-3523336.0519 76378.1664448,-3523263.35356 76457.9977437,-3523223.7549 76557.4948385,-3523263.79993 76580.9527079,-3523438.37318 76569.4697434,-3523573.95888 76593.1176387,-3523672.31755 76784.9715742,-3523683.55357 76953.0739879,-3523660.18925 77061.4355344,-3523707.73187 77205.0167885,-3523804.20773 77300.4589992,-3523899.25332 77348.9637595,-3524020.19851 77461.9737684,-3524206.95049 77567.8280529,-3524319.87067 77657.3701222,-3524402.27854 77803.239761,-3524443.34595 77944.340761,-3524460.26149 78001.7605434,-3524523.95335 78009.3486738,-3524657.52774 77935.7881069,-3524829.27758 77895.6781797,-3524950.94051 77911.2420268,-3525117.46151 78024.6961104,-3525270.31841 78166.1279068,-3525410.73211 78294.2139152,-3525492.08727 78481.5619048,-3525549.87539 78648.7160073,-3525550.96142 78754.6212207,-3525575.71949 78837.152894,-3525648.03714 78869.6504547,-3525772.31817 78896.0105771,-3525935.77283 78918.923357,-3526132.77972 78952.1250057,-3526251.54442 79009.4213294,-3526411.36351 79107.4332851,-3526493.81464 79239.3682126,-3526535.11814 79362.3747089,-3526436.44679 79508.8726741,-3526320.59083 79616.0660186,-3526280.53315 79706.4002232,-3526298.14779 79812.8493061,-3526370.68728 79882.44723,-3526372.96762 79938.4775378,-3526372.98024 80075.8352208,-3526305.42273 80222.2928706,-3526273.24105 80345.9516232,-3526313.48963 80410.9792999,-3526436.03967 80454.9611957,-3526523.35051 80574.8364435,-3526633.02636 80711.3589484,-3526681.05736 80771.36156,-3526680.85872 80874.8722288,-3526679.34535 81017.2311213,-3526607.53827 81125.2122677,-3526526.10256 81238.9071322,-3526477.23372 81378.6844294,-3526502.18231 81507.1850849,-3526614.88462 81640.7856658,-3526706.39846 81721.8065919,-3526740.94137 81804.2527852,-3526722.61774 81911.2493972,-3526580.47609 82043.1808725,-3526462.40994 82131.3398663,-3526420.37629 82238.5799375,-3526460.9972 82419.1833133,-3526485.76928 82583.0259646,-3526471.58978 82713.5967704,-3526435.77044 82829.2345421,-3526493.87357 82992.5543296,-3526591.77554 83135.1555153,-3526599.6406 83321.0910004,-3526574.82534 83370.5148996,-3526567.71839 83550.6665982,-3526584.04743 83722.5954116,-3526623.72155 83877.9981318,-3526732.00238 84031.8325607,-3526895.14681 84231.9431126,-3527029.43808 84435.381019,-3527099.80714 84632.2506691,-3527182.47669 84938.3361548,-3527239.92223 85237.3886521,-3527296.24676 85465.2483013,-3527338.92263 85707.3328928,-3527396.28034 85967.2315861,-3527512.45033 86185.5757607,-3527610.40927 86378.203861,-3527608.64193 86548.6851637,-3527616.5169 86730.6680952,-3527681.54717 86864.1778746,-3527794.96684 87026.436871,-3527985.54002 87197.901049,-3528133.79258 87344.3751678,-3528327.19448 87452.8505065,-3528527.09645 87526.3403259,-3528593.40645 87542.3639387,-3528674.72159 87468.7710398,-3528765.77889 87458.9717478,-3528871.87146 87468.78853,-3528953.51648 87509.3463402,-3529018.5883 87574.9344303,-3529067.39036 87681.7931248,-3529068.18484 87771.7847479,-3529051.45059 87812.321948,-3529102.08177 87814.4156666,-3529183.63878 87795.2261765,-3529248.89778 87763.7221111,-3529330.74665 87779.3194049,-3529394.65474 87820.3798466,-3529445.75585 87902.247026,-3529412.02372 87991.2987748,-3529372.93005 88075.6955817,-3529354.00291 88133.3126784,-3529379.32503 88216.6431633,-3529471.50283 88280.1215736,-3529560.25385 88394.0827256,-3529601.0057 88435.2641635,-3529659.07134 88443.2217563,-3529757.24686 88427.6353043,-3529838.74695 88484.7071412,-3529895.96766 88623.6063782,-3529970.25096 88730.5453441,-3530052.20866 88865.1492107,-3530134.68716 88936.5477303,-3530175.70848 88930.935368,-3530262.1554 88962.5233488,-3530341.14683 89076.4699134,-3530526.80599 89220.8557444,-3530671.50658 89269.3216672,-3530763.54301 89458.4199879,-3530850.09292 89535.9930076,-3530927.63397 89578.3677115,-3531064.31237 89580.2986859,-3531297.25651 89524.4401331,-3531426.71004 89392.2382158,-3531600.0615 89302.223067,-3531803.53754 89203.4288629,-3532010.469 89066.8384682,-3532232.35901 89051.86288,-3532301.87525 89018.9010045,-3532454.51317 88981.3650683,-3532628.80727 89015.2775525,-3532859.05617 89056.7759323,-3533054.0434 89068.2555403,-3533311.87791 89036.2502301,-3533576.01039 88940.6156757,-3533790.74513 88823.0896104,-3533823.39279 88717.115678,-3533834.51093 88640.0336302,-3533887.91282 88578.7280196,-3534013.17905 88587.082333,-3534216.90293 88587.1474655,-3534260.22304 88577.0281405,-3534556.55723 88587.6211108,-3534806.9713 88569.5387707,-3535112.69317 88547.5781433,-3535378.286 88524.5579718,-3535661.36453 88493.5774936,-3535855.73007 88459.5243339,-3536067.19058 88441.0036406,-3536289.77538 88417.4911149,-3536572.88112 88417.8208975,-3536924.93129 88374.7337808,-3537265.84955 88282.2971737,-3537596.45069 88220.8960473,-3537803.89276 88203.3582138,-3537862.59261 88150.8205693,-3538054.12559 88151.7576713,-3538225.87762 88235.7981691,-3538363.81964 88274.8165886,-3538516.61045 88363.7676342,-3538629.88926 88526.5733056,-3538774.08904 88685.1161262,-3538875.68963 88919.0265526,-3539120.67121 89121.1228963,-3539259.2878 89387.1270346,-3539312.33156 89537.3888227,-3539440.76298 89755.0333477,-3539520.7842 89994.4649858,-3539663.88025 90313.9261893,-3539813.66284 90443.927368,-3539973.04893 90570.7375649,-3540128.62084 90710.6577129,-3540828.75536 90714.5528427,-3541088.48096 90766.1203485,-3541331.72055 90808.1848413,-3541569.4913 90955.1158673,-3541770.79331 91115.0082264,-3542023.6879 91287.9364411,-3542142.93226 91473.9580749,-3542316.25182 91963.264959,-3542340.93106 92429.8433494,-3542364.33292 93084.1447215,-3542397.13599 93745.6650452,-3542430.05074 94406.9033918,-3542462.48158 95094.4396132,-3542497.98927 95783.4045278,-3542532.42373 96465.6058973,-3542566.2222 97113.6309894,-3542598.85606 97762.1456003,-3542631.46279 97749.2648427,-3546157.28147 97747.0288686,-3546744.42588 100429.198699,-3546819.67106 100530.691574,-3546999.95591 100620.250931,-3547189.83974 100776.063097,-3547361.74357 100927.035743,-3547526.93494 101068.942896,-3547662.23977 101218.40951,-3547743.36964 101275.395137,-3547817.49372 101285.053723,-3547932.98158 101252.415721,-3547979.03693 101137.436596,-3548035.46862 101057.107802,-3547967.07328 100949.417622,-3547927.02563 100830.939519,-3547876.10336 100747.491296,-3547795.92515 100688.585921,-3547834.92104 100648.467697,-3547936.64101 100628.495261,-3548005.42001 100628.143953,-3548054.72866 100688.577647,-3548142.11157 100688.011056,-3548215.32978 100621.056391,-3548252.76495 100590.582063,-3548292.73077 100529.079926,-3548492.68084 100592.611063,-3548814.89632 100644.490619,-3548905.22538 100647.374974,-3548963.82071 100621.962611,-3549009.98863 100538.459318,-3549021.92213 100497.458981,-3549004.69733 100479.093919,-3549056.96095 100513.425272,-3549098.44053 100559.014579,-3549150.27135 100546.546088,-3549191.76418 100454.393123,-3549172.29622 100395.059499,-3549152.06888 100360.896736,-3549202.19018 100389.054477,-3549281.8388 100478.932607,-3549361.17379 100477.959966,-3549431.4268 100428.492461,-3549521.20137 100339.423696,-3549610.60475 100276.582022,-3549659.77089 100188.015604,-3549679.44437 100196.040817,-3549759.67199 100192.6152,-3549802.67306 100138.403888,-3549799.10024 100086.61599,-3549757.06082 100040.005138,-3549718.72749 99994.4725556,-3549719.17134 99925.4895074,-3549737.29964 99855.4534534,-3549731.08796 99783.9763449,-3549781.71226 99722.1479516,-3549793.98126 99655.9656031,-3549817.93455 99594.0816727,-3549857.09246 99540.4841319,-3549930.16145 99531.0607602,-3550033.23032 99569.0214194,-3550161.1483 99571.0702966,-3550264.59924 99555.6214909,-3550334.13414 99522.0272134,-3550376.26024 99484.5909712,-3550341.91716 99437.6166508,-3550292.15186 99339.0780081,-3550279.0014 99261.0640536,-3550249.31832 99206.5455687,-3550193.48376 99153.7154494,-3550201.78668 99106.5475979,-3550246.13276 99037.5707888,-3550287.66247 98913.694073,-3550270.88843 98800.7179536,-3550304.31633 98698.0684781,-3550358.60137 98649.2383474,-3550460.29474 98619.7554452,-3550528.09211 98557.0822542,-3550561.81678 98516.1535984,-3550508.74002 98472.2277295,-3550464.78567 98363.8417977,-3550518.88025 98285.1951775,-3550514.62357 98189.7193491,-3550540.14537 98152.3444934,-3550502.313 98104.2963601,-3550451.11041 98050.7501891,-3550418.12627 97995.7993471,-3550437.99466 97919.8011857,-3550459.98488 97864.8430617,-3550456.45237 97815.8192781,-3550531.27086 97759.3565334,-3550615.94761 97687.7999121,-3550637.20261 97666.8733095,-3550688.11254 97646.4147796,-3550766.38216 97574.2800422,-3550814.05721 97506.8920999,-3550806.21098 97439.3822982,-3550763.51789 97384.8304054,-3550776.89265 97318.8400568,-3550813.78312 97259.7885547,-3550896.60773 97233.9933826,-3550968.1928 97223.3459038,-3551104.19324 97220.4084217,-3551151.6516 97231.803463,-3551257.59396 97229.2979012,-3551350.33876 97160.7174429,-3551413.25978 97055.7712722,-3551443.27347 96950.2601929,-3551425.51818 96868.8460718,-3551411.45238 96768.9254008,-3551302.778 96722.8813677,-3551214.62209 96667.4795878,-3551198.16816 96576.9639041,-3551265.25082 96498.0185576,-3551325.24164 96486.0107235,-3551384.63799 96524.3270099,-3551421.42474 96579.0108167,-3551438.41485 96583.4222183,-3551506.8907 96547.4334619,-3551546.16015 96504.4173286,-3551691.36335 96418.0151295,-3551770.17673 96340.5623474,-3551774.32206 96306.5414114,-3551822.44898 96373.527457,-3551920.43834 96418.9531548,-3551987.71499 96451.8499643,-3552086.03491 96437.9275659,-3552151.50894 96353.0093224,-3552165.01683 96313.8208371,-3552191.0144 96306.4495833,-3552276.55247 96201.3163081,-3552303.09263 96168.455513,-3552391.4891 96155.5337772,-3552494.25371 96094.0014836,-3552563.27275 95870.8982779,-3552813.71954 95811.4692071,-3552824.37005 95752.5099949,-3552834.49749 95727.5062629,-3552883.6365 95762.3214482,-3552934.05412 95801.9507008,-3552990.6869 95785.4574921,-3553073.22882 95712.5080338,-3553073.15134 95653.5135902,-3553073.32251 95571.9100257,-3553097.60862 95511.0768723,-3553216.88166 95539.3740667,-3553340.84285 95503.3224152,-3553439.37024 95357.8884449,-3553633.87936 95200.0718234,-3553662.24769 95093.1210554,-3553617.6846 94972.0715577,-3553644.58196 94920.5141793,-3553690.66262 94862.9170474,-3553847.10886 94809.0999985,-3553823.10291 94755.5311639,-3553799.08361 94657.0477195,-3553698.79676 94666.0809583,-3553774.49621 94644.0641561,-3553902.64736 94616.0554062,-3553937.5087 94599.6520493,-3554003.11812 94649.4794605,-3554036.30043 94710.4518002,-3554054.44583 94665.4906255,-3554126.06609 94638.0490785,-3554194.75639 94697.4964574,-3554216.96674 94765.4108205,-3554253.16349 94778.4079881,-3554319.1898 94726.4339211,-3554408.61337 94736.8778507,-3554468.80131 94830.0341622,-3554516.09386 94843.5104584,-3554563.17311 94793.5761597,-3554611.65739 94705.5085481,-3554654.71554 94668.3946185,-3554733.38488 94691.9696475,-3554848.13961 94732.3993396,-3554891.78324 94811.343507,-3554887.55402 94853.4044783,-3554901.23443 94864.0084747,-3554964.40119 94824.545398,-3555003.86002 94725.4839321,-3554999.7065 94646.442114,-3554997.46801 94602.5460222,-3555088.94928 94626.0418652,-3555188.27244 94626.5124108,-3555285.34368 94574.3707202,-3555320.50289 94473.9607307,-3555258.662 94323.5012093,-3555247.80193 94201.0761305,-3555202.57611 94148.6414936,-3555246.21605 94103.1404167,-3555312.38957 93978.6144447,-3555381.30357 93902.1868481,-3555339.58843 93856.9773832,-3555299.6861 93807.0691187,-3555306.84157 93649.0638352,-3555429.3353 93612.1448557,-3555465.17331 93620.5424276,-3555570.78435 93638.5775969,-3555656.45933 93559.1012041,-3555748.35542 93460.6223347,-3555713.29937 93434.1202281,-3555669.40692 93401.1363181,-3555583.53678 93355.2527086,-3555563.58804 93302.7289649,-3555610.22129 93270.039445,-3555669.23624 93289.1208918,-3555741.90915 93355.22958,-3555814.05371 93457.015618,-3555836.48393 93486.2052117,-3555930.52425 93448.0736277,-3556064.52196 93401.1096768,-3556117.33088 93298.0207351,-3556126.34126 93230.1670502,-3556156.36867 93136.1591421,-3556260.49756 93130.7274685,-3556400.71076 93137.6444307,-3556446.15082 93187.1839565,-3556557.52456 93175.5265545,-3556623.37995 93052.5150412,-3556650.88713 93058.0412323,-3556730.75993 93097.1164554,-3556763.02353 93144.1176046,-3556775.94037 93187.49082,-3556739.75529 93276.5260395,-3556710.08565 93335.1694035,-3556749.76524 93342.1320184,-3556828.56478 93293.6428352,-3556857.55495 93238.9825078,-3556882.89243 93105.0415595,-3556985.17964 93065.6415733,-3557049.03684 93012.9871788,-3557135.0163 92938.9760896,-3557282.39226 92879.6692941,-3557300.01223 92786.9984136,-3557326.89015 92676.6922454,-3557359.19515 92632.2299442,-3557430.79368 92617.2389,-3557480.89429 92660.2275347,-3557572.20366 92742.1911783,-3557619.59559 92768.4906843,-3557655.03357 92791.6013997,-3557756.37149 92764.5358163,-3557832.01686 92648.9963619,-3557817.79629 92550.7237889,-3557703.06002 92436.0555044,-3557551.85624 92366.7101056,-3557540.1378 92320.6677995,-3557572.98139 92295.774222,-3557651.99643 92308.1026944,-3557737.97886 92373.6011496,-3557770.81728 92459.6007745,-3557842.39232 92372.7271753,-3558023.82297 92248.60645,-3558053.88252 92176.0577709,-3558001.00634 92110.2322725,-3557994.57708 92044.267843,-3558045.91781 91991.6735876,-3558086.58261 91932.6496032,-3558100.20479 91834.0991644,-3558128.89344 91823.2427692,-3558223.58914 91881.1359127,-3558281.73293 91926.695786,-3558342.0319 91962.0682989,-3558407.35871 92098.241627,-3558420.96976 92107.1299454,-3558489.21058 91926.7408358,-3558505.35852 91905.5619498,-3558560.77144 91845.1816601,-3558720.86567 91826.7690484,-3558772.14673 91803.0905856,-3558836.65711 91757.666679,-3558964.57844 91728.1737061,-3559055.29461 91701.7399251,-3559147.34064 91655.7558467,-3559120.92582 91597.2414983,-3559069.78726 91543.6715741,-3559101.54236 91530.7229842,-3559180.41635 91477.7094165,-3559180.77035 91423.2384418,-3559135.3903 91405.2167647,-3559068.63459 91346.2637637,-3559088.22954 91293.1996865,-3559129.41888 91236.61688,-3559063.23758 91195.1440791,-3559014.17226 91132.8302245,-3559031.45768 91123.8214577,-3559155.93328 91174.752657,-3559293.12827 91089.1550898,-3559312.65896 91036.2582645,-3559338.40285 91001.7287649,-3559423.41493 90950.7127609,-3559344.98381 90858.7070883,-3559282.19643 90808.7274471,-3559311.26964 90795.9005116,-3559355.28062 90865.3523429,-3559457.12314 90863.8509915,-3559535.88195 90812.2486751,-3559562.55261 90746.7986999,-3559502.82241 90700.1936051,-3559483.41221 90660.8809328,-3559516.39509 90667.7216494,-3559574.29004 90680.675466,-3559681.15558 90627.8050739,-3559707.3965 90627.7477459,-3559766.65751 90700.1496133,-3559826.01457 90753.3815618,-3559885.40411 90737.3808297,-3559930.5815 90718.1623062,-3559985.39291 90601.6967661,-3559977.20094 90528.8583745,-3560002.5217 90472.689049,-3560022.96437 90388.4179453,-3560113.6345 90250.2311624,-3560141.46603 90184.3439732,-3560166.41411 90147.4244031,-3560188.31396 90099.2431725,-3560301.94671 90062.3091722,-3560360.69728 89975.9642831,-3560366.32665 89942.8423858,-3560319.80077 89934.7680041,-3560257.48961 89919.2879352,-3560173.16709 89916.2590528,-3560112.07909 89911.3459197,-3559997.31123 89824.3714036,-3559898.39964 89727.2977033,-3559801.52354 89547.0431075,-3559699.64835 89219.0655323,-3559721.72642 89207.9299329,-3559848.31213 89165.3997049,-3559904.87359 89119.4542771,-3559944.18914 89139.0181491,-3559983.97364 89224.9851019,-3560003.76195 89294.8686201,-3560039.35247 89250.4456447,-3560148.80115 89244.3914635,-3560272.62438 89310.5437946,-3560326.83996 89348.8797739,-3560373.08654 89402.4598225,-3560438.93204 89382.9579396,-3560497.74383 89323.5634808,-3560458.10516 89257.9828757,-3560451.66487 89184.5086738,-3560520.84284 89132.4659874,-3560590.36478 89244.4987317,-3560669.0087 89291.327891,-3560789.99389 89295.388242,-3560963.07208 89362.8147791,-3560985.34799 89422.4788799,-3561057.83812 89428.8486171,-3561176.51258 89396.834139,-3561215.57921 89337.0075937,-3561288.50724 89291.3968578,-3561296.93121 89198.4640231,-3561314.36902 89131.4282312,-3561215.88165 88938.4723777,-3561118.67492 88876.5046745,-3561156.36165 88878.9387518,-3561285.20805 88696.9513395,-3561281.03303 88693.4818607,-3561425.1362 88624.039151,-3561462.72666 88473.4458484,-3561426.48983 88310.5554188,-3561490.51001 88028.53094,-3561761.11695 87849.9694002,-3561885.73849 87743.0293855,-3561869.56812 87533.6413583,-3561809.59643 87408.616546,-3561758.04317 87367.1191535,-3561690.05383 87302.287144,-3561577.00361 87195.8170037,-3561486.10804 87118.742927,-3561488.25336 86975.7564862,-3561556.68438 86905.6425738,-3561716.32126 86800.2967156,-3561776.25835 86625.3783761,-3561764.73271 86537.8599943,-3561864.54909 86458.1930836,-3562073.50447 86302.3698077,-3562250.69327 86260.2712619,-3562282.83378 86065.8687894,-3562483.5094 85887.4314117,-3562642.9905 85695.3172935,-3562710.07952 85561.9433015,-3562725.70773 85414.9131283,-3562742.06931 85224.9914637,-3563040.11871 85005.9224019,-3563138.53802 84835.0238401,-3563188.05548 84795.9181785,-3563257.38777 84688.5394834,-3563446.4248 84534.5813996,-3563523.91845 84486.5663964,-3563547.9122 84473.1029021,-3563593.955 84479.6033015,-3563659.34423 84491.4510894,-3563787.19649 84531.5285611,-3564000.18737 84487.3818831,-3564096.18635 84447.4726797,-3564182.99349 84326.3966251,-3564320.97522 84075.5734703,-3564435.54911 84031.4175499,-3564355.24978 83929.5543327,-3564183.42626 83864.6531789,-3564254.6441 83758.5147288,-3564369.41357 83675.0219644,-3564409.75706 83615.6126918,-3564555.38421 83572.1734057,-3564581.12536 83495.4824848,-3564567.31691 83407.6954566,-3564481.39262 83414.0717645,-3564252.45559 83374.5616448,-3564226.19065 83303.6883766,-3564274.32266 83282.7413598,-3564324.7528 83275.5105334,-3564417.2765 83228.6976496,-3564477.5629 83193.7453711,-3564508.32647 83069.1471374,-3564534.444 83045.1150573,-3564476.4696 83070.7220473,-3564396.90311 83085.0611189,-3564279.09573 83069.1370116,-3564237.6187 82995.2671705,-3564234.61479 82934.7992982,-3564249.31802 82850.24665,-3564325.57701 82722.7683864,-3564312.00637 82617.7421555,-3564405.80077 82551.3005359,-3564443.73474 82511.6912436,-3564411.00039 82423.3470483,-3564342.53558 82337.2932994,-3564349.15092 82256.7821046,-3564356.96261 82069.8214526,-3564436.73235 81968.3044747,-3564405.82962 81912.3932998,-3564417.30014 81799.9205688,-3564479.12331 81734.3177344,-3564555.85992 81745.8068031,-3564700.1725 81755.7137138,-3564819.66803 81785.2938233,-3564906.72985 81558.8923997,-3565072.79034 81551.8492618,-3565275.37413 81489.4518139,-3565319.06883 81400.2859596,-3565230.7264 81241.2465094,-3565292.5638 81081.9492468,-3565405.21611 80954.9221171,-3565460.35334 80770.9337453,-3565512.07741 80606.3305942,-3565614.05912 80347.3861325,-3565559.24472 80294.9878699,-3565687.07211 80251.9753866,-3565781.02569 80133.4847062,-3565721.65103 80042.104154,-3565712.61684 79997.0265157,-3565712.5493 79953.0375391,-3565751.27161 79910.964064,-3565890.49839 79884.8920431,-3566044.8031 79796.4333225,-3566159.62854 79686.5688999,-3566043.01176 79599.9707194,-3565951.54115 79560.1333825,-3565998.00966 79468.1913691,-3565978.54664 79395.6673185,-3566037.72953 79375.6496221,-3566077.65423 79468.1675224,-3566191.21954 79553.5704333,-3566241.91344 79557.6282248,-3566317.40034 79540.6036929,-3566380.57296 79400.9903253,-3566437.88417 79323.1317907,-3566518.27304 79257.1683928,-3566565.15054 79255.6195484,-3566628.98574 79398.1565128,-3566649.21431 79494.6431352,-3566734.67406 79409.0126725,-3566749.23897 79345.5433668,-3566759.12603 79252.4953387,-3566848.79911 79149.5146267,-3566800.0469 79096.0631036,-3566746.14139 79012.6508904,-3566769.55226 78941.6196278,-3566749.96204 78855.109926,-3566808.40406 78834.1446696,-3566853.85906 78815.6438936,-3566894.20093 78796.0458743,-3566992.87553 78833.5922815,-3567024.22721 78855.0063961,-3567098.28374 78789.6601069,-3567216.85055 78682.0996441,-3567245.04707 78545.151772,-3567199.11749 78408.7269734,-3567153.65764 78361.2553694,-3567072.03636 78328.5867596,-3566997.09012 78299.1276103,-3566870.67005 78306.2780869,-3566790.59445 78255.6667556,-3566798.79422 78086.7600243,-3566913.4663 78005.1221261,-3566946.74372 77880.1190729,-3566946.98956 77802.2564105,-3566967.11422 77743.3061733,-3567056.45057 77654.1701668,-3567070.70656 77632.790872,-3567131.6251 77643.3193535,-3567183.85499 77689.3468486,-3567224.71267 77654.3795022,-3567278.39268 77578.8104858,-3567327.28288 77528.2655632,-3567359.88531 77528.2500133,-3567415.17263 77429.1973167,-3567467.31819 77261.9016456,-3567528.61248 77214.7768245,-3567546.08895 77215.3677411,-3567617.28247 77254.3668407,-3567763.61275 77236.2480159,-3567806.42578 77168.7529394,-3567829.48067 77089.922344,-3567803.83529 77017.7689947,-3567731.01116 76911.7881137,-3567691.38511 76832.8459394,-3567728.50378 76733.9507543,-3567644.66524 76700.9527271,-3567614.56241 76574.4157592,-3567498.3402 76532.8782226,-3567429.84582 76491.0390011,-3567360.37142 76447.3554091,-3567381.64756 76406.854576,-3567397.27366 76368.3271651,-3567435.70559 76350.3868193,-3567486.47887 76378.3552695,-3567599.03655 76430.4693323,-3567646.54074 76552.7869694,-3567684.29253 76602.4625662,-3567691.08476 76646.4012567,-3567790.33096 76532.9446357,-3567843.2524 76430.9851191,-3567869.15718 76404.9493343,-3567926.84105 76364.866756,-3568033.59478 76305.9544855,-3568007.87417 76265.9437096,-3567949.25941 76242.4047239,-3567858.87734 76186.9314409,-3567823.00982 76090.3962973,-3567792.33898 76009.4925473,-3567783.73951 75989.3975625,-3567836.12333 76022.3333172,-3567948.41442 76112.9730972,-3567989.86197 76224.9241267,-3568071.0064 76331.7829321,-3568145.45119 76406.9560694,-3568149.37747 76512.8491066,-3568145.67449 76552.2910499,-3568198.34247 76477.8304519,-3568291.0065 76340.8127757,-3568359.64079 76188.8735147,-3568410.15063 76036.960631,-3568461.15736 75946.049162,-3568354.47527 75882.3369686,-3568281.19627 75823.8792835,-3568310.24117 75799.4227452,-3568411.17476 75821.9414941,-3568454.79169 75875.967401,-3568560.96751 75823.4854574,-3568580.72561 75715.9519322,-3568590.99271 75645.8355541,-3568597.75287 75587.5472578,-3568671.6174 75561.5967863,-3568712.36267 75614.0312954,-3568798.20257 75693.0667501,-3568897.05599 75659.9589411,-3568976.04136 75626.8747817,-3569041.57704 75673.3498419,-3569127.73722 75705.3810741,-3569190.76594 75685.3833243,-3569314.37254 75680.857185,-3569378.37189 75725.3409451,-3569404.36977 75811.4288938,-3569430.61959 75785.3251683,-3569496.27791 75717.9046811,-3569539.25477 75667.8527173,-3569557.88683 75624.0212816,-3569553.27192 75573.3728806,-3569486.76213 75508.5560455,-3569476.30297 75492.8944008,-3569518.48744 75454.5091168,-3569554.92129 75399.9694261,-3569536.43778 75348.5928924,-3569428.62499 75317.4997257,-3569396.92553 75216.1326466,-3569382.95368 75190.6100239,-3569431.64603 75209.4888059,-3569569.59915 75258.4703884,-3569674.55238 75203.459315,-3569688.96862 75185.5697497,-3569648.09111 75128.0269837,-3569532.14215 75074.9014054,-3569493.65851 75092.6189205,-3569443.3936 75094.9114883,-3569347.1375 75027.5841645,-3569336.31504 74921.4826788,-3569331.56347 74849.5013763,-3569331.45143 74803.6513908,-3569344.87644 74785.6319333,-3569394.16159 74836.4646699,-3569450.20235 74887.0048097,-3569468.40324 74939.5067541,-3569532.3236 74942.9853322,-3569578.45959 74897.0638482,-3569664.61106 74836.0990915,-3569707.24127 74763.9663829,-3569667.2898 74730.9799782,-3569581.89718 74706.518454,-3569465.16358 74666.9909038,-3569397.05814 74608.5906039,-3569408.66798 74539.2037577,-3569391.97905 74448.1179304,-3569430.25259 74411.0537652,-3569468.11016 74329.0211574,-3569535.78298 74292.1010669,-3569506.88704 74238.5407877,-3569432.56271 74198.7098082,-3569395.85362 74076.2514379,-3569387.99717 73886.1035117,-3569496.85279 73828.7649333,-3569500.43596 73768.2057756,-3569499.70944 73702.6955119,-3569490.28336 73696.2415435,-3569425.87653 73690.6990529,-3569313.60225 73676.7559774,-3569272.01319 73657.2772327,-3569224.74463 73670.7673722,-3569146.81207 73629.3078967,-3569126.12953 73582.7355254,-3569126.1445 73538.8005713,-3569179.81339 73496.6402492,-3569275.72621 73445.3243956,-3569321.82263 73354.8465587,-3569311.24901 73288.2795489,-3569259.0419 73254.7445241,-3569219.00471 73209.8253946,-3569235.86659 73169.7535883,-3569273.38842 73087.7034262,-3569350.02915 72984.8730138,-3569429.28246 72919.2536568,-3569450.24697 72866.6920883,-3569403.76157 72849.3379702,-3569340.43842 72814.3172918,-3569282.05063 72659.2938785,-3569261.5002 72590.3780609,-3569258.23423 72505.8905657,-3569229.40576 72434.4080206,-3569289.53884 72445.2739787,-3569371.14375 72388.8223256,-3569419.01162 72302.3210317,-3569389.79348 72252.8881697,-3569257.96073 72163.2447163,-3569179.59742 72054.4899529,-3569190.42947 71977.3279032,-3569200.55813 71944.388048,-3569245.66688 71974.478597,-3569346.66114 71956.8608904,-3569449.72402 71898.3419348,-3569496.20917 71780.3648916,-3569479.14492 71643.8987113,-3569479.51347 71614.9978424,-3569423.78406 71628.3845526,-3569357.80949 71601.8508109,-3569258.11768 71450.557434,-3569232.88273 71331.9729065,-3569199.91043 71266.9459312,-3569259.69718 71226.580616,-3569338.08236 71153.452378,-3569344.50734 71042.0707576,-3569278.76911 70943.8891003,-3569222.28311 70884.5075999,-3569224.97962 70716.4270972,-3569221.07068 70662.9352094,-3569342.50394 70692.0380935,-3569503.82742 70701.0260482,-3569555.14959 70732.574495,-3569627.67382 70707.5957092,-3569695.76752 70574.0747896,-3569746.28934 70499.6460841,-3569770.21946 70426.5659428,-3569796.06961 70319.6359235,-3569771.43699 70255.6557577,-3569721.0809 70202.1270908,-3569721.47039 70166.531695,-3569754.2701 70158.9685103,-3569803.49444 70210.0346897,-3569854.54542 70312.597056,-3569899.83654 70369.6313618,-3569946.08295 70369.5755924,-3570009.84724 70304.1485407,-3570029.8064 70231.4903802,-3570003.32991 70174.6240758,-3569955.57998 70082.5645015,-3569915.70134 69988.2339298,-3569912.30884 69922.4959505,-3569857.06579 69869.0459587,-3569891.3246 69817.6818455,-3569931.94703 69912.7375209,-3570073.78307 69870.6237736,-3570110.42088 69810.6643833,-3570111.65487 69744.2556063,-3570108.75265 69667.0306716,-3570089.99381 69646.1614499,-3569984.51468 69692.6770012,-3569844.52492 69682.6007414,-3569768.35348 69606.738864,-3569774.92606 69588.5577665,-3569821.23517 69571.1217518,-3569867.50421 69553.2157893,-3569914.29672 69516.2156476,-3570008.94204 69405.2111503,-3570089.13851 69355.2076903,-3570108.76614 69329.1285006,-3570174.92816 69319.2535323,-3570236.73122 69264.7441608,-3570292.96599 69177.6044314,-3570247.34278 69123.1860219,-3570203.44562 69039.5967542,-3570242.31589 69044.1632121,-3570345.68448 69064.0898432,-3570438.2635 69022.5948905,-3570467.89467 68978.6698477,-3570498.65295 68884.6238462,-3570505.20876 68871.619678,-3570573.65665 68843.2331248,-3570633.9658 68709.8244114,-3570649.61439 68572.6962069,-3570725.73933 68436.3128534,-3570801.8245 68339.6693644,-3570746.25159 68241.825423,-3570714.65442 68213.2505258,-3570660.39926 68206.3914213,-3570542.2081 68183.7091587,-3570463.22623 68080.4115057,-3570473.76694 68048.2033837,-3570541.75474 67948.1936313,-3570613.39165 67862.7998306,-3570641.89893 67848.377051,-3570748.78228 67827.2805177,-3570805.71117 67705.7339468,-3570805.77704 67644.8557678,-3570794.60708 67569.2840595,-3570871.40554 67516.3552936,-3570938.51675 67495.9658889,-3570985.44477 67469.3365856,-3571050.6424 67341.3551414,-3571037.60474 67269.0027097,-3571007.62426 67218.9204694,-3571072.09187 67195.8632382,-3571162.0056 67152.9496771,-3571197.69234 67067.3957742,-3571158.45929 67001.4718507,-3571224.77629 67032.309749,-3571279.40867 67157.4976905,-3571360.84444 67217.3902363,-3571399.96406 67185.9240812,-3571453.96486 67088.2841883,-3571430.8258 67024.8115846,-3571371.47417 66975.3994377,-3571351.21858 66982.0158364,-3571450.99314 67037.8237949,-3571506.77205 67090.0096505,-3571550.78996 67131.8218513,-3571577.93059 67199.8987518,-3571639.52485 67206.3551439,-3571736.31871 67240.8158207,-3571770.33105 67334.8866981,-3571815.08256 67403.892688,-3571801.40422 67452.426717,-3571722.07471 67519.3464372,-3571702.03274 67560.8719533,-3571719.22534 67605.2096243,-3571737.76099 67626.7474694,-3571809.33252 67592.7715382,-3571862.97018 67566.9075316,-3571900.72825 67489.3082576,-3571953.72575 67377.3781864,-3571961.24659 67316.8736802,-3571989.4122 67265.3363456,-3572147.11509 67182.9684045,-3572180.94159 67087.8537836,-3572181.57946 67029.0036703,-3572161.83267 66927.9206902,-3572102.51404 66828.2972865,-3572028.66986 66792.384229,-3572004.69889 66771.5300541,-3571904.19607 66726.4734082,-3571886.19711 66683.8460252,-3571996.59404 66645.9073272,-3572059.91108 66626.8098579,-3572126.19907 66619.0072957,-3572170.95597 66642.3990161,-3572337.08028 66621.4639419,-3572396.99117 66495.394745,-3572410.25578 66307.9526481,-3572458.70799 66208.9201102,-3572344.97814 66137.906927,-3572289.0215 66022.4171215,-3572295.24004 65879.9431548,-3572267.54133 65808.6047411,-3572288.81855 65745.4775947,-3572397.83033 65715.0586476,-3572549.91668 65721.982618,-3572632.24063 65684.6400463,-3572702.00318 65636.4911041,-3572668.22934 65587.4286142,-3572538.85512 65491.1040033,-3572470.8103 65407.4728774,-3572467.34281 65379.1094093,-3572546.58559 65343.4706232,-3572587.86063 65266.4534999,-3572573.07722 65269.9763199,-3572481.22294 65299.6008718,-3572374.51245 65319.9556689,-3572299.18813 65257.5158922,-3572296.07387 65156.464194,-3572362.29265 65078.5642438,-3572460.64295 65007.0377848,-3572510.82509 64964.1274723,-3572625.2261 64842.0860715,-3572588.45628 64685.1580352,-3572588.43761 64549.6085736,-3572559.86765 64396.2182259,-3572588.55301 64283.6029236,-3572703.71968 64226.5736779,-3572861.22821 64103.6375562,-3572960.51136 64020.1334763,-3572816.05049 63914.6817721,-3572823.72204 63862.6236018,-3572962.5309 63840.6639083,-3573008.05231 63782.209095,-3573111.3364 63718.2518223,-3573204.95325 63699.7663285,-3573301.1031 63690.1720283,-3573344.96238 63725.6829397,-3573412.29812 63675.7915009,-3573494.19758 63718.1814419,-3573605.99984 63766.7604479,-3573647.72203 63797.2320979,-3573741.73303 63765.2583797,-3573818.682 63675.7599259,-3573840.44156 63611.1358509,-3573806.06022 63510.7395518,-3573842.85441 63454.6933696,-3573958.46495 63527.2748214,-3574052.69877 63544.6660769,-3574098.0937 63570.7663944,-3574166.43443 63618.6443836,-3574264.4897 63688.2629675,-3574299.0997 63782.7738349,-3574250.16718 63900.7204227,-3574229.36537 64037.7271795,-3574229.45703 64249.1683689,-3574205.6111 64399.6451031,-3574252.30465 64550.0947603,-3574298.50121 64642.1845265,-3574343.35812 64727.5959767,-3574421.45475 64806.0230804,-3574517.86203 64814.7043604,-3574623.50707 64828.1005155,-3574714.94894 64801.1127597,-3574930.62151 64792.4874389,-3575089.50834 64835.1711978,-3575142.00823 64909.1078891,-3575201.29291 64955.5514203,-3575249.60455 64980.9787572,-3575291.57601 64976.0559916,-3575348.1358 64959.4735992,-3575530.36755 64935.0584033,-3575710.5307 64949.4985755,-3575788.96331 65002.159172,-3575832.4558 65255.5846977,-3575848.18866 65339.0187423,-3575871.09134 65379.4896873,-3575910.25873 65436.439655,-3575996.36291 65458.9940133,-3576040.48136 65493.579028,-3576118.32554 65601.5061101,-3576147.3801 65691.546794,-3576112.63581 65836.9683449,-3576060.95741 65918.4729886,-3576098.90877 65968.8515623,-3576137.04338 65954.3919887,-3576372.46294 65985.892309,-3576430.0475 66038.8933145,-3576484.48018 66170.7965683,-3576514.73206 66239.8928225,-3576530.43566 66298.9996937,-3576698.12204 66360.4420484,-3576872.15844 66407.3312126,-3577053.45549 66454.9220313,-3577159.98882 66476.8657188,-3577206.62997 66629.3755893,-3577341.87906 66775.97334,-3577464.49393 66922.846162,-3577587.59156 66993.3291384,-3577786.04634 67078.7013299,-3577923.4195 67135.7417503,-3577937.28068 67146.6826381,-3577996.9687 67206.7989567,-3578054.00432 67296.7346793,-3578202.09017 67387.2849074,-3578259.97467 67496.1672806,-3578311.39033 67575.3506286,-3578454.07722 67608.1603749,-3578642.10746 67581.1267394,-3578861.26325 67675.3252717,-3579019.08047 67640.642385,-3579087.20741 67606.659882,-3579200.62952 67600.2239568,-3579326.01586 67654.1377046,-3579466.57785 67784.8195292,-3579621.92724 67914.8100325,-3579778.30963 67977.2956474,-3579925.38226 67934.7674341,-3580069.65346 67824.814684,-3580206.10616 67714.3384891,-3580342.08943 67694.6768794,-3580526.9731 67740.7503158,-3580706.8141 67751.808398,-3580851.68098 67858.1430396,-3580980.44483 68014.7602174,-3581104.00289 68206.2370659,-3581185.82548 68321.033379,-3581249.8684 68450.1933563,-3581321.60429 68583.0937335,-3581471.84682 68686.6637705,-3581586.31064 68771.6207687,-3581586.70502 68826.6657336,-3581623.58537 68915.1387095,-3581758.29174 68888.4633121,-3581896.22676 68765.9992988,-3582132.98812 68843.2059317,-3582220.47947 68957.4916953,-3582293.51423 69032.4847967,-3582349.24276 69072.1685707,-3582470.6419 69004.6669068,-3582549.01086 68871.650686,-3582544.23929 68781.9803111,-3582576.48099 68711.0551397,-3582656.03162 68672.6582904,-3582719.87707 68661.1007565,-3582860.98192 68780.2068041,-3582940.23152 68884.6847047,-3583076.06451 68921.6893041,-3583272.33184 68849.083791,-3583459.07775 68947.1562837,-3583706.84299 69003.6021135,-3583875.65723 69222.0343645,-3584050.66314 69381.0345705,-3584351.9233 69457.6253681,-3584501.71377 69594.4178032,-3584673.158 69741.8966701,-3584784.24578 69865.0300048,-3584974.85846 70023.0469422,-3585068.93653 70077.9586583,-3585177.05571 69918.0284212,-3585310.23793 69896.9724592,-3585367.66711 69877.9570375,-3585425.98233 69947.5823713,-3585492.95597 69943.5634562,-3585782.59862 69949.3570391,-3585894.36929 69940.5785576,-3585989.99067 69852.4093875,-3586128.26218 69809.9021765,-3586194.32389 69880.5040901,-3586403.71538 69903.4408167,-3586473.21265 69804.8672622,-3586538.81925 69761.4538443,-3586583.50977 69667.4428131,-3586867.06123 69436.9331817,-3587357.75647 69345.5932427,-3587552.49447 69219.1554705,-3587747.63714 69133.9902453,-3587909.16396 69036.6877912,-3588030.49876 68973.026277,-3588129.09126 68657.6149097,-3588394.73784 68443.5634479,-3588614.05328 67840.2286062,-3589082.59579 67531.2568899,-3589204.92765 67256.3084974,-3589422.06528 67049.924003,-3589585.17816 66897.4171024,-3589699.04555 66851.8234019,-3589859.93389 67199.2959365,-3590237.17712 68757.6617449,-3591913.33573 63801.7610991,-3594562.66294 63490.8979215,-3594728.47483 63476.3142933,-3594799.51277 63445.3164137,-3594907.80972 63527.2789034,-3594986.07007 63668.3929981,-3595094.00577 63951.7860883,-3595551.94088 64006.1344626,-3595644.65019 64356.655025,-3596361.99283 64397.248031,-3596444.48638 64792.2330879,-3596929.73857 65220.0926169,-3597345.94495 65308.6426229,-3597430.81753 65328.235428,-3597493.52407 65343.5685161,-3597606.28143 65406.6013878,-3597748.83402 65445.7535354,-3597836.88379 65538.7227444,-3598067.48729 65675.6076453,-3598267.31034 65947.6521576,-3598465.27904 66034.0234434,-3598528.34687 66573.5857469,-3599139.24321 66603.0955699,-3599237.77778 66640.0759812,-3599363.80541 66647.015389,-3599569.6792 66648.4966698,-3599619.91595 66663.112708,-3599691.85828 66673.0653912,-3599742.13338 66709.1072742,-3599869.20803 66797.1750586,-3600183.76653 67175.0400013,-3600669.90856 67457.032856,-3601078.55256 67493.5926546,-3601146.3131 67632.9787882,-3601337.02095 67672.4335071,-3601384.69663 67851.6066605,-3601555.80622 68098.8951717,-3601871.17486 68932.9117705,-3602019.16581 69033.2731603,-3602037.12838 69196.7860578,-3602062.12209 69174.3915186,-3602255.13495 69156.8182295,-3602477.2783 69131.464635,-3602767.098 69080.3154698,-3603100.16637 69049.9276143,-3603356.88291 68972.0185558,-3603687.91966 68896.8915067,-3604001.37006 68807.3551009,-3604205.5074 68713.4831799,-3604343.62333 68630.4531765,-3604529.9719 68610.4665378,-3604583.86537 68542.5601204,-3604791.81059 68443.4742793,-3604976.04421 68351.5978804,-3605224.15198 68327.4595462,-3605265.81715 68188.4940586,-3605738.1782 68100.70867,-3606029.40807 68060.713818,-3606228.36634 67992.1599266,-3606332.72826 67887.0276743,-3606451.53453 67842.6240006,-3606551.09616 67774.6318522,-3606528.39027 67727.22742,-3606526.98306 67690.0616456,-3606571.84872 67708.7185694,-3606640.08221 67768.2946381,-3606686.66064 67774.0910205,-3606756.58993 67702.1717081,-3606812.81169 67601.2627734,-3606835.23897 67479.7501368,-3606849.81958 67430.0915822,-3606912.30367 67378.3328909,-3606977.39305 67288.680787,-3607000.70289 67207.3118522,-3607043.48993 67184.6351094,-3607253.96474 67177.754127,-3607310.63495 67071.7290719,-3607390.13562 67029.8600143,-3607421.80689 66860.8085433,-3607478.33237 66768.3774708,-3607542.14818 66667.8133414,-3607575.51837 66583.8304207,-3607707.6263 66523.9273539,-3607824.47487 66582.8777993,-3607937.34785 66725.3921632,-3608212.57017 66880.3392943,-3608450.74639 66937.2396434,-3608498.46604 67113.2795897,-3608629.8754 67315.4294419,-3608755.87744 67537.7383686,-3608867.82843 67564.3032322,-3608948.58437 67581.7090842,-3609002.93638 67698.2767225,-3609066.8368 67749.8764848,-3609067.51559 67832.7213081,-3608937.46235 67857.3593282,-3608891.28424 67940.7471063,-3608867.3163 68058.1131027,-3608932.16942 68144.7975918,-3609019.11796 68201.2698153,-3609054.40465 68283.1876832,-3609085.81532 68354.219856,-3609104.86557 68572.1591305,-3609099.97746 68880.0181874,-3609149.97669 69066.0598995,-3609291.297 69124.2190289,-3609421.64355 69276.7051816,-3609614.60725 69346.6391719,-3609677.55604 69477.6680567,-3609737.17851 69640.6823425,-3609816.9791 69738.6741022,-3609983.51493 69860.0237635,-3610112.41161 69953.5336853,-3610214.9259 70005.7090938,-3610368.01366 70081.0503238,-3610457.06969 70127.6519582,-3610635.86743 70118.9999607,-3610852.04821 70198.1349303,-3611106.78902 70234.1995895,-3611462.51391 70230.5957496,-3611656.99835 70178.6742414,-3611828.70818 70112.7180037,-3612017.1246 70073.6797232,-3612192.11868 70003.5996044,-3612341.40462 70026.1787769,-3612540.93987 70082.7571255,-3612710.72447 70125.2748932,-3612791.60319 70146.6444513,-3612831.78739 70172.6378259,-3612961.39141 70217.1190206,-3613064.58083 70219.6669191,-3613134.18671 70224.8076538,-3613283.35956 70147.2031645,-3613427.07873 70078.3323379,-3613557.36963 70010.8081088,-3613666.66392 69986.3732854,-3613707.35193 69942.7836202,-3613753.06948 69883.2312187,-3613812.11169 69851.262654,-3613906.5158 69996.197616,-3614129.77072 70133.3600283,-3614265.27078 70263.7033297,-3614431.0327 70318.3171716,-3614637.78799 70354.211419,-3615044.83484 70287.7264481,-3615301.03672 70198.903547,-3615654.60624 70156.4259943,-3615720.68996 70127.8788656,-3615763.59588 70143.8723585,-3615828.48343 70179.4086833,-3615968.52666 70163.9790961,-3616110.35336 70063.5144481,-3616355.45861 69958.9053284,-3616606.76906 69888.8995949,-3616885.08728 69802.4627761,-3617149.85545 69774.4490609,-3617184.26412 69711.4046622,-3617261.43541 69636.4531015,-3617353.20578 69530.0546353,-3617407.33548 69465.943783,-3617446.7032 69430.6249044,-3617529.83507 69394.5849811,-3617672.78903 69359.1365769,-3617803.75439 69251.6375225,-3617910.75328 69204.1496521,-3617994.54987 69125.5420369,-3618128.86771 69082.6585413,-3618301.58972 69071.5472774,-3618349.02621 69048.0428768,-3618456.92223 69061.1031845,-3618732.70624 69029.0876643,-3619054.29381 69022.7334814,-3619234.48855 68899.6364521,-3619379.7069 68858.731521,-3619506.48891 68843.7872427,-3619552.14241 68926.7986095,-3619658.20944 69001.595712,-3619755.25901 69070.1382611,-3619842.68601 69072.13308,-3619979.58047 69074.1663717,-3620076.11913 68945.7429788,-3620224.12117 68958.3685509,-3620500.92665 68925.8786563,-3620631.23561 68755.8404854,-3620783.50495 68623.3274112,-3620879.42181 68525.4298981,-3621020.77734 68508.7522331,-3621062.04248 68476.9413824,-3621145.48488 68444.7532538,-3621367.94602 68394.8735113,-3621535.57541 68446.8192622,-3621670.24123 68367.9790988,-3621914.18352 68290.8468162,-3622011.56153 68216.3806782,-3622030.07794 68177.9111925,-3622123.84928 68155.4552168,-3622177.88586 68128.4509803,-3622317.36398 68162.4636152,-3622511.29989 68151.6077556,-3622736.58349 68109.5077786,-3622909.7686 68033.9869212,-3623118.65858 68016.0231736,-3623364.25986 68046.0804569,-3623572.3621 68049.1476944,-3623660.37708 68052.6023913,-3623778.26333 68027.609783,-3623831.44308 68006.0519083,-3623869.98709 67953.6494388,-3623964.02374 67900.6609191,-3624065.56573 67869.5238455,-3624202.28258 67870.0930268,-3624276.48464 67869.7350104,-3624338.28217 67954.6467511,-3624396.91239 67983.0594519,-3624501.97563 68012.1048442,-3624609.49526 68049.1209432,-3624753.44641 67985.7209126,-3625024.45138 67905.1073658,-3625226.64899 67840.1062415,-3625436.46296 67744.1535453,-3625667.89877 67631.1736352,-3625966.03089 67608.3412137,-3626108.77244 67589.7741718,-3626265.72905 67584.299187,-3626311.36603 67560.3811131,-3626466.1245 67548.3893038,-3626647.63251 67619.8891144,-3626907.27644 67690.8426318,-3626865.53015 67757.3527216,-3626824.52525 67834.3506246,-3626879.59997 68280.2604968,-3627230.35524 68877.3712005,-3627699.37526 69443.7337372,-3628143.66441 68987.3040683,-3628442.66036 68758.3160601,-3628591.70393 68315.8309186,-3628908.87448 67869.0435654,-3629220.30611 67678.947895,-3629351.78056 67497.0006647,-3629472.84519 66215.5962991,-3630401.45458 64399.8776772,-3631658.81277 64177.3866922,-3631813.00175 63831.0855063,-3632053.69485 62932.5792377,-3632714.7818 61769.699759,-3633570.7481 59911.56859,-3634851.524 57570.7938634,-3636559.47318 56230.1050098,-3637572.82658 55689.5760687,-3637975.22307 54275.2086572,-3639049.4849 54227.8301112,-3639071.51988 53769.7237711,-3639287.024 53595.310308,-3639368.85478 51730.985859,-3640290.46056 51444.8930732,-3640489.55976 50794.9399474,-3640941.86855 49989.0799133,-3641436.63445 48421.3348962,-3642514.98846 47737.7507045,-3642990.61264 46976.9522976,-3643553.22101 45956.8687126,-3644227.2744 44938.6352357,-3644835.45428 43895.5976823,-3645536.72367 43306.6697902,-3645916.98867 43045.7454837,-3646084.84453 42407.7805113,-3646561.51953 41755.3444259,-3646992.64341 41269.322942,-3647322.9125 40412.3302514,-3647904.86267 35412.1961334,-3651345.67697 35636.0169145,-3647452.10823 36612.3828643,-3645462.35165 36278.3052733,-3645342.62432 36006.4990266,-3645244.89767 35795.9434383,-3645168.72994 35748.4380929,-3645152.39685 35588.8361297,-3645096.3601 35382.356141,-3645035.42043 35186.3123903,-3644973.90709 34979.8313853,-3644912.9665 34761.9821748,-3644840.18749 34555.4728117,-3644778.74892 34348.8594725,-3644706.34872 34142.3763726,-3644645.40618 33935.3957519,-3644584.49047 33728.8843132,-3644523.05001 33511.0174391,-3644472.70107 33304.5321987,-3644411.75669 33108.9950036,-3644327.77809 32889.0379676,-3644262.08882 32717.814286,-3644194.2218 32511.051309,-3644132.79215 32304.3150967,-3644071.85903 32097.3298555,-3644010.9391 31891.0623229,-3643949.48076 31836.8451128,-3643933.51383 31683.8275285,-3643888.57354 31477.3104471,-3643827.12791 31270.8201296,-3643766.17884 31064.0534985,-3643704.74593 30857.5348563,-3643643.29891 30650.5186731,-3643581.8787 30444.0262719,-3643520.92777 30237.009045,-3643459.50664 30084.5464173,-3643447.43559 29866.9558085,-3643547.61747 29723.5846002,-3643564.9589 29657.9738422,-3643573.04692 29448.9639332,-3643597.9794 29233.4586974,-3643631.74343 29045.4379472,-3643648.54448 28820.3786017,-3643680.83888 28616.0576253,-3643709.50238 28463.0430438,-3643732.85713 28352.0308726,-3643749.41964 28195.5636829,-3643773.46249 27971.4286114,-3643781.77653 27786.0165491,-3643773.50739 27561.0796351,-3643739.98769 27376.0208229,-3643697.29929 27324.0066689,-3643685.19779 27114.4615658,-3643632.38634 26910.9653457,-3643576.25117 26703.934701,-3643519.31244 26505.0200286,-3643464.91913 26321.5104955,-3643414.16693 26141.5617608,-3643364.71461 25981.1281156,-3643325.65774 25749.9605189,-3643269.5429 25553.9379106,-3643222.4672 25323.5146445,-3643166.31053 25162.6095386,-3643127.77678 24967.0552488,-3643080.17569 24771.0034073,-3643032.60151 24610.4759212,-3643005.51309 24530.4605808,-3642991.95517 24656.1093321,-3642501.45638 24478.0607536,-3642454.88682 24315.4995646,-3642413.45006 23824.6134347,-3642285.32531 23661.562544,-3642748.46547 23617.1111051,-3642737.94141 23511.6621673,-3642724.28239 23366.1495836,-3642743.73264 23264.0545533,-3642791.21381 23191.9630696,-3642817.60468 23098.5815259,-3642883.05518 23011.5491749,-3642991.53342 22898.0621369,-3643140.35225 22784.1053538,-3643289.69595 22734.0271197,-3643349.28138 22645.5339614,-3643453.85237 22506.7140392,-3643618.02312 22368.1153907,-3643781.68384 22229.5440293,-3643945.84231 22161.2252423,-3644027.37016 22091.2212209,-3644109.98783 21952.1255138,-3644273.67787 21813.8027252,-3644437.82475 21654.61453,-3644626.05249 21536.6328072,-3644765.65076 21397.7856729,-3644929.32988 21259.2143768,-3645093.49313 21120.6430897,-3645257.65707 20981.795976,-3645421.33823 20843.2247048,-3645585.50353 20704.6534421,-3645749.66951 20566.3034446,-3645913.32542 20427.235099,-3646077.52006 20288.8851147,-3646241.17733 20150.3138816,-3646405.34603 20011.7426559,-3646569.51541 19960.6975876,-3646629.65748 19872.8955886,-3646733.20202 19734.3243756,-3646897.37277 19595.7531694,-3647061.54419 19464.7665284,-3647241.25515 19340.7451794,-3647411.60936 19218.7453236,-3647573.37686 19085.8825821,-3647750.69989 18937.8090538,-3647918.88693 18797.2797008,-3648079.18113 18680.9071654,-3648207.235 18517.9691823,-3648386.21289 18381.8920248,-3648536.79077 18244.4462067,-3648712.37529 18101.3627735,-3648894.25369 17983.0152484,-3649045.35529 17866.9621694,-3649192.84102 17736.9515197,-3649358.54593 17583.4205835,-3649554.46403 17437.4393444,-3649733.51357 17306.3553392,-3649893.2961 17159.9889954,-3650069.87515 17006.3816539,-3650255.32961 16861.0502634,-3650409.91367 16740.4792756,-3650538.70462 16601.8810363,-3650702.39381 16425.3553744,-3650833.76263 15007.4482644,-3650570.12435 15079.4737154,-3650297.39781 15141.4457346,-3650118.47041 15203.4181074,-3649939.54341 15263.9950425,-3649785.12684 15323.8538312,-3649631.24871 15384.4039457,-3649476.33564 15416.9397118,-3649337.92115 15361.9635839,-3649140.48888 15350.9925937,-3648972.55186 15325.7995731,-3648759.02279 15278.9572258,-3648541.69649 15164.2741251,-3648387.43416 15028.4383564,-3648229.34674 14891.8570727,-3648071.29967 14710.8653538,-3647958.07542 14574.284268,-3647800.02709 14393.9202636,-3647698.23585 14212.3275646,-3647574.0725 14042.7969356,-3647460.71497 13906.4646471,-3647302.65046 13736.9339024,-3647189.29172 13600.3532557,-3647031.23962 13486.8709106,-3646817.06755 13350.2635374,-3646658.51707 13292.4495555,-3646545.50561 13155.8698667,-3646387.45133 13036.2660195,-3646202.53485 12905.8610104,-3645938.92514 12827.7854284,-3645688.39956 12682.9223155,-3645529.30141 12605.314701,-3645405.40678 12527.2919528,-3645283.03064 12449.7392516,-3645160.1298 12401.8585546,-3645023.63293 12353.950844,-3644886.63875 12305.8220989,-3644750.15521 12307.2802663,-3644517.70287 12253.3407127,-3644397.99347 12206.3685584,-3644228.03638 12152.2363296,-3644068.44498 12137.3046348,-3644014.4122 12107.8263061,-3643908.81875 12031.6981827,-3643766.39045 11910.8209056,-3643594.50246 11789.2254643,-3643423.15197 11668.3487996,-3643251.26285 11646.2293366,-3643052.51509 11624.8834568,-3642854.22356 11602.7651521,-3642655.47572 11560.9051502,-3642487.72965 11519.2668795,-3642319.47265 11477.6835371,-3642152.20982 11435.8247652,-3641984.46333 11368.8390701,-3641808.61976 11302.3509679,-3641632.74867 11235.3933882,-3641457.40171 11207.715372,-3641275.41352 11189.7437354,-3641152.2333 11180.7563354,-3641092.88722 11153.3278745,-3640910.88526 11109.2147821,-3640770.18879 11088.3842683,-3640704.01189 11064.8261447,-3640629.00864 11020.7408649,-3640488.80905 10998.7828105,-3640306.50698 10977.3224063,-3640124.17762 10964.8897623,-3640020.14117 10955.3653264,-3639941.87546 10944.7889025,-3639794.35426 10934.7099588,-3639646.80582 10924.3827511,-3639499.27101 10876.2035419,-3639334.36239 10828.7432325,-3639168.91559 10780.8133882,-3639003.99301 10736.7754708,-3638878.25089 10692.2406118,-3638752.53587 10726.7697744,-3638568.13659 10760.8294478,-3638384.26196 10806.7090379,-3638202.23351 10785.6495681,-3638008.91176 10763.3300142,-3637838.09844 10746.3470844,-3637764.72903 10687.2095881,-3637631.83491 10574.3500923,-3637537.78548 10545.8345118,-3637449.58905 10617.8550784,-3637357.88221 10684.6160705,-3637315.83027 10750.6584907,-3637274.31641 10774.3002311,-3637205.20508 10692.7520394,-3637122.90449 10601.6668752,-3637016.69182 10555.8073215,-3636894.04049 10498.1740439,-3636815.9152 10429.6121788,-3636693.01051 10440.6567516,-3636525.85525 10396.1697549,-3636414.59738 10351.1206851,-3636247.52084 10284.132932,-3636126.02532 10172.1628486,-3635993.52804 10108.7799424,-3635787.56188 10007.8061329,-3635650.97138 9923.1846137,-3635512.48826 9879.71694825,-3635406.15997 9807.66970108,-3635292.41976 9798.69483534,-3635224.09622 9778.27065872,-3635074.12079 9736.75358588,-3634848.50633 9646.73697574,-3634656.96081 9512.2249583,-3634499.76346 9378.82456001,-3634367.43765 9293.27664656,-3634216.5363 9344.72630937,-3634026.72452 9427.6862737,-3633938.91023 9485.80350328,-3633866.41755 9569.10889123,-3633762.12907 9616.7469461,-3633703.17498 9631.30256268,-3633540.81419 9584.73432716,-3633414.20948 9502.75907412,-3633351.37466 9403.20790621,-3633268.05875 9365.75616777,-3633139.45894 9173.66145164,-3633078.15833 9156.2794615,-3632960.92688 9063.29656683,-3632915.64755 8963.18619514,-3632904.16807 8950.58979103,-3632778.69601 9009.61366366,-3632649.80604 9021.7596681,-3632561.8765 9035.5760349,-3632458.89592 8987.57988752,-3632388.2176 8907.72994477,-3632295.84398 8956.30960271,-3632235.84185 8937.64684856,-3632163.55943 8836.30967031,-3632102.27997 8697.19623288,-3631938.34707 8574.21795318,-3631768.54479 8526.8124318,-3631498.86752 8472.7874021,-3631313.32699 8393.18548333,-3631129.68302 8313.58401238,-3630946.03868 8234.70158028,-3630761.85604 8164.10348446,-3630610.63066 8093.69993024,-3630458.39708 8022.57808077,-3630306.70116 7952.20229669,-3630154.9642 7894.57416031,-3630017.4903 7863.59691709,-3629943.38619 7837.22203367,-3629880.4998 7779.59440155,-3629743.02551 7799.15492288,-3629585.3763 7796.13042095,-3629479.82488 7774.76563699,-3629435.61381 7614.7979489,-3629369.05557 7531.65931592,-3629312.26208 7417.28553359,-3629222.26833 7342.25999564,-3629113.16996 7255.62124903,-3628928.40981 7123.73728524,-3628778.03554 6981.33743442,-3628649.67788 6937.66229122,-3628480.02301 6938.76353998,-3628276.50628 6914.60463964,-3628149.16945 6913.80295121,-3628061.44769 6906.30810871,-3627983.56617 6866.25195554,-3627902.97492 6757.62539138,-3627694.47986 6707.77931819,-3627539.62264 6604.72448634,-3627369.21998 6485.75353725,-3627322.85739 6335.27111593,-3627302.15144 6292.84091367,-3627191.7686 6286.69264992,-3627006.10001 6326.7976892,-3626831.86898 6309.10329862,-3626763.51984 6291.67611628,-3626704.63083 6208.19905324,-3626541.13615 6185.2165736,-3626371.3467 6115.30006345,-3626209.60461 6072.23758439,-3626069.33529 5997.29763092,-3625961.72347 5882.31549766,-3625846.82226 5801.21417847,-3625713.11658 5773.78354028,-3625603.40971 5756.61464069,-3625535.52992 5741.70154257,-3625477.00177 5725.11136056,-3625410.58637 5856.32482683,-3625251.82909 5874.63810395,-3625025.43019 5833.16988773,-3624923.47077 5767.18670441,-3624865.73475 5665.65046428,-3624841.85368 5570.13466777,-3624818.64135 5477.80125446,-3624817.19692 5395.71445823,-3624816.1907 5320.75050441,-3624790.36072 5276.61202991,-3624735.42154 5262.61649986,-3624643.43162 5280.11696849,-3624598.59334 5308.7994281,-3624530.20592 5359.80989146,-3624423.19977 5396.23055712,-3624350.40094 5489.78245753,-3624209.65769 5531.73019079,-3624050.78592 5496.23773267,-3623829.8156 5436.6954734,-3623629.6053 5407.23397367,-3623427.75396 5276.62121356,-3623259.34541 5146.70911612,-3623135.77872 5007.72542551,-3623024.17585 4898.65465697,-3622939.8643 4814.10444863,-3622889.12252 4775.68127789,-3622756.07677 4757.66996792,-3622677.27084 4748.35024672,-3622634.39425 4776.73760122,-3622478.25664 4815.24441485,-3622393.37665 4886.13205294,-3622326.17936 5043.30059976,-3622291.17924 5096.28905297,-3622224.95828 5092.19113934,-3622126.9431 5015.15912705,-3622044.87292 4870.74840965,-3621948.02543 4725.84037886,-3621851.20463 4458.3152242,-3621709.7049 4318.34492865,-3621698.88505 4239.79329932,-3621643.82494 4241.24681795,-3621547.00206 4279.61488739,-3621464.12446 4385.68735721,-3621401.9912 4511.31996019,-3621415.08926 4648.31896851,-3621467.46161 4686.82158331,-3621414.49767 4655.14053038,-3621281.58249 4645.16358953,-3621180.89531 4686.81220898,-3621130.75212 4750.13196843,-3621144.25532 4810.72933909,-3621199.29683 4875.76971439,-3621258.08543 4976.7089171,-3621271.03364 5054.64316437,-3621227.8886 5061.742862,-3621120.28703 5036.70170007,-3621003.96545 5048.14937269,-3620912.08444 5115.28465361,-3620894.96075 5188.71513068,-3620906.41685 5290.31081725,-3620871.95596 5398.24470123,-3620798.25344 5442.32012926,-3620751.46938 5443.2608042,-3620617.77484 5405.81205639,-3620534.54363 5278.27972327,-3620491.12916 5139.29762771,-3620461.80266 5021.31172553,-3620401.41134 4949.75807372,-3620364.91878 4878.66624498,-3620309.45141 4843.80382389,-3620209.62224 4838.20771308,-3620120.66483 4830.81866386,-3620003.38082 4752.18444058,-3619923.88907 4710.69977363,-3619844.36741 4626.72575423,-3619799.57482 4481.85299659,-3619776.55162 4297.25489417,-3619733.75127 4208.34363578,-3619708.17696 4148.67631377,-3619688.48919 4022.31679034,-3619579.68144 3961.26444179,-3619356.1097 4019.1842302,-3619124.06102 4086.70319152,-3618853.09181 4138.66204001,-3618694.67427 4239.66885309,-3618516.63019 4257.26937779,-3618331.66049 4227.62745874,-3618208.60649 4167.18645927,-3618087.72868 4041.1081695,-3618002.34096 3925.8041059,-3617991.16755 3865.21485891,-3618032.36708 3830.21901415,-3618058.20971 3774.76001159,-3618156.97652 3781.68341432,-3618293.2371 3789.14391806,-3618443.9301 3754.22741999,-3618626.85231 3708.14141097,-3618691.6977 3647.83953426,-3618696.97744 3551.14585277,-3618588.04727 3472.84596548,-3618455.17556 3467.76523138,-3618274.93013 3528.32695911,-3618182.86639 3593.72810929,-3618110.98505 3647.87340579,-3618052.18388 3665.2126941,-3617931.05801 3647.72353011,-3617834.26963 3580.69618179,-3617725.21884 3501.8619401,-3617678.64707 3435.71155531,-3617677.26292 3351.64963179,-3617713.2579 3297.32144,-3617736.66261 3246.7588008,-3617701.01793 3243.80663319,-3617495.72224 3248.8374365,-3617290.49059 3199.18821289,-3617253.29982 3106.16135273,-3617252.8801 2989.80005711,-3617272.68095 2659.27182715,-3617260.75873 2470.38355567,-3617198.73505 1286.37577594,-3616811.88944 1412.85917642,-3616112.31938 1579.68883786,-3615058.98076 1661.23482767,-3613840.23706 1721.78073343,-3613073.95246 1751.89114681,-3612146.75428 1973.8785051,-3610886.97824 2265.75586658,-3610050.2844 2669.14192541,-3609012.55739 3465.08197323,-3608155.48027 4191.28269379,-3607722.08466 4771.64821567,-3607509.54558 5452.51246686,-3607256.14628 5950.09605961,-3607107.94767 6622.0496205,-3606837.58639 7477.47569717,-3606295.97885 8062.47490118,-3605737.65326 8742.96018281,-3604908.38423 8996.80571585,-3604619.86099 9257.9525221,-3604323.46423 9519.80884824,-3603860.99028 9816.37550459,-3603468.43761 10050.1978397,-3602967.10425 10331.1937935,-3602508.0906 10469.2455526,-3602323.09453 10905.7253049,-3601761.41521 10913.1403101,-3601751.04081 10915.2156678,-3601747.93658 10986.3092784,-3601574.05467 11308.6480952,-3600971.7059 11631.807136,-3600274.08561 12496.2084816,-3598362.46776 12644.195001,-3597882.27953 13264.1277243,-3596712.40332 13622.0704479,-3596145.56635 13913.0437209,-3595700.02783 14512.068873,-3594783.60762 15044.438137,-3594021.87986 16742.9064862,-3591817.53672 17406.2128912,-3591204.32378 18121.8652252,-3590540.43071 18530.2082416,-3589928.06835 18623.2592154,-3589689.71818 18759.6630802,-3589340.3425 18836.7380976,-3588778.80658 18989.7915727,-3588396.12921 19940.6420321,-3587268.89761 20117.6048618,-3587056.43265 20655.0235178,-3586410.71525 20958.9999399,-3586039.34326 21441.4237066,-3585496.81496 21814.5408673,-3585108.75565 22044.5911714,-3584868.50944 22117.9937612,-3584755.37071 22437.0088822,-3584302.4435 22600.5729375,-3583864.89317 22697.9957857,-3583347.16668 22726.4795011,-3583196.07667 22777.8916107,-3583003.37005 22926.9085175,-3582550.16033 23067.3298846,-3582260.92615 23327.3113378,-3581919.37885 23682.9255783,-3581465.4965 24355.6789166,-3580722.33091 24356.8679044,-3580721.26978 25066.6645471,-3580276.70935 25363.7548663,-3580073.25288 25981.8182177,-3579494.57653 26513.1557693,-3578712.72253 26892.0869846,-3578016.36067 26895.6344962,-3578008.19386 26990.7792304,-3577789.71848 27303.042217,-3577007.73455 27655.1721586,-3576280.93401 28077.6479359,-3575263.73584 28312.1258495,-3574615.06903 28546.6964286,-3573801.41262 28577.1787423,-3573589.92052 28703.1826261,-3572722.30166 28883.1204899,-3571439.56278 29024.0641717,-3570775.01751 29203.6124687,-3570188.64945 29354.5028287,-3569870.99518 29360.9530396,-3569861.17769 29845.0099945,-3569148.78081 30057.9879674,-3568928.97753 30353.3905079,-3568624.49437 30916.5319551,-3568108.23734 31573.447969,-3567458.851 31576.0478648,-3567456.21908 32167.5136352,-3566771.48588 32933.9780196,-3566106.26987 33770.8116533,-3565410.37402 33975.3237716,-3565200.02173 34271.222138,-3564895.54624 34317.744922,-3564847.6919 34630.1977444,-3564503.45462 34920.3036581,-3564151.44947 35117.7673443,-3563647.42548 35228.8333371,-3563154.0243 35218.6538583,-3562690.5588 35190.2272837,-3562597.38851 35178.2336454,-3562559.65542 35369.7904738,-3562237.87204 35466.6816075,-3561888.77557 35441.1759416,-3561520.33212 35146.8904981,-3560949.50692 34792.8881266,-3560556.82036 34576.306442,-3560124.36128 34242.3422433,-3559691.71647 33947.3225001,-3559278.90874 33790.3543457,-3558944.91929 33554.5386493,-3558669.48323 33397.0756785,-3558335.51704 33278.8800479,-3557883.31369 33219.9740403,-3557253.98427 33082.3922869,-3556723.5693 32630.5024977,-3556094.3619 32374.9827411,-3555720.78169 32021.1299861,-3555288.66866 31922.648247,-3554580.70183 32080.1515543,-3553971.16988 32493.6641372,-3553088.25805 32902.0591661,-3552337.71134 33395.5695125,-3550844.47383 33639.7327497,-3549431.88077 33776.1460519,-3548231.4002 33740.2914164,-3547672.61015 33643.274402,-3547135.03142 33365.6353304,-3546187.94239 33224.6452138,-3545536.08052 33167.319981,-3545139.41856 32984.245634,-3544329.31237 32889.4201987,-3542992.15518 32885.4454876,-3542011.99301 32924.8749098,-3540822.17666 33069.9039421,-3539280.33606 33061.4270485,-3538597.96817 33004.5778298,-3537994.43564 32859.5572663,-3537377.65924 32573.1610959,-3536712.59251 32030.03318,-3536088.61241 31159.0932792,-3535509.49931 30134.2913995,-3535059.68506 29348.368218,-3534313.02521 28954.82754,-3533722.89881 28915.8568108,-3533093.95063 28938.9185718,-3532553.41249 28846.3760284,-3532135.16396 28792.8307444,-3531676.95753 28797.0341399,-3530917.61088 28820.0155416,-3530642.24666 28892.4576301,-3530303.44192 29132.940582,-3529633.21098 29467.4655981,-3528800.47893 29628.8418239,-3528474.89457 29942.4402167,-3527820.22983 30242.9275368,-3527247.01349 30714.4234848,-3526205.66573 30850.9797633,-3525633.19775 30912.5993449,-3524747.71573 30868.6763431,-3524113.06389 30857.5999066,-3523810.61081 30913.7260813,-3523530.0091" style="stroke-linejoin:round;stroke:#000;stroke-width:1px;fill:none" /></g></g></svg>