<svg xmlns="http://www.w3.org/2000/svg" baseProfile="full" height="120403.25508" version="1.1" viewBox="-10873.233581,3729225.883844,97360.829965,120403.255080" width="97360.829965"><defs><style type="text/css">polyline,line,rect,path,polygon,.polygon{fill:none;stroke:#000;stroke-width:1px;stroke-linejoin:round;}</style></defs><g fill_rule="evenodd" transform="scale(1,-1)"><g class="hogares departamen mujeres departam_1 toponimo_i tot_pob varones viv_part viv_part_h" id="30098"><polygon class="_30098" id="None" points="-6253.49280167,-3740458.1981 -3392.79473327,-3741373.6254 -462.515617221,-3742138.89952 -389.781921782,-3742157.57856 819.399683164,-3739710.53126 2912.35468222,-3738963.64167 3113.70178248,-3739009.82111 4275.65572417,-3739278.93403 4356.96082234,-3738989.58986 7258.55517777,-3739779.6497 8048.58943188,-3739951.38696 8051.07518663,-3739790.77413 8019.89643665,-3739625.87787 8033.27661507,-3739490.96453 8108.05173989,-3739430.28173 8187.70142234,-3739394.6943 8331.65533881,-3739500.91521 8437.8554301,-3739628.03328 8559.99123601,-3739636.51566 8672.64890275,-3739545.45971 8797.94718568,-3739483.97574 8868.16725538,-3739483.38505 8948.59125037,-3739482.62755 9073.12262865,-3739436.14252 9111.44309139,-3739255.75692 9111.17850369,-3739133.19598 9153.23388036,-3738910.7114 9265.80845433,-3738753.39135 9425.08606843,-3738639.86701 9656.31510327,-3738605.86398 9989.11272713,-3738463.59376 10270.1002507,-3738363.5665 10359.5958711,-3738322.35731 10520.994005,-3738249.05801 10657.7182896,-3737911.78781 10819.9054552,-3737808.54231 11560.4040668,-3737939.67252 12041.1295106,-3738018.46678 12535.7933662,-3736785.43933 12910.5541092,-3735853.2131 14031.133027,-3735616.32044 14456.431703,-3735475.52677 14914.8509602,-3735323.11198 14971.6489428,-3735303.96857 15727.549448,-3735010.62034 15759.5341527,-3734859.06949 16152.3713946,-3734797.62283 16301.6407721,-3734775.44965 17093.6144681,-3734657.62919 18791.3658143,-3734406.61687 21913.8188742,-3733944.31918 23565.5851023,-3732096.7352 24956.5910192,-3730670.70742 25784.0844432,-3729798.44925 26124.0288171,-3729974.10958 26239.2158508,-3730033.37106 26527.7137309,-3730195.43704 27384.4063016,-3729263.02905 27565.1751674,-3729622.38291 27588.6403917,-3729669.17573 27753.7689872,-3729688.32812 27741.3032903,-3729849.03682 27671.6126556,-3729953.19291 27618.3847304,-3730019.41752 27692.0491306,-3730102.79641 27813.8496034,-3730129.74592 27893.2562943,-3730129.06613 27903.4333456,-3730304.74044 27917.5034144,-3730425.36789 28059.5482706,-3730426.59222 28247.7486856,-3730459.68382 28240.0584239,-3730582.72178 28091.556177,-3730689.01418 28000.2194036,-3730827.95267 28049.4316676,-3730952.77007 28271.4746786,-3731016.03702 28454.7752326,-3731012.08626 28461.7857414,-3731062.43857 28473.5244722,-3731143.3668 28412.8743076,-3731240.95786 28228.4203029,-3731242.49374 28181.3582469,-3731392.00252 28375.1259173,-3731468.5635 28321.3803177,-3731611.03503 28155.0656817,-3731722.9717 28222.5882589,-3731853.57077 28274.8089876,-3731990.14615 28393.0984836,-3732185.1866 28342.8904345,-3732267.156 28194.1140202,-3732288.78961 28098.1967191,-3732575.47311 28212.0053787,-3732824.10375 28201.1994453,-3733048.464 28475.3720318,-3733017.17483 28509.9661051,-3733146.92575 28378.2913313,-3733174.92058 28267.2557743,-3733271.30964 28349.0624706,-3733372.58437 28457.4058516,-3733399.40627 28441.1689255,-3733536.44993 28492.9910085,-3733697.45735 28681.9640603,-3733681.17417 28650.8969693,-3733850.56411 28466.5577175,-3733968.66108 28481.5978936,-3734065.81203 28626.7538237,-3734095.71593 28642.750965,-3734215.21969 28669.5609863,-3734355.43873 28812.3939341,-3734506.53576 28814.0341065,-3734673.29865 28840.0935208,-3734786.6676 28850.5044282,-3734831.81674 28957.1316986,-3734962.35583 28924.4590646,-3735252.39487 28650.6570436,-3735377.31687 28523.3825681,-3735511.13003 28669.247951,-3735670.49539 28896.2212052,-3735947.11565 28605.0689225,-3735981.51665 28522.0004811,-3736170.73278 28593.6308548,-3736291.59459 28710.9554101,-3736337.75095 28944.5258747,-3736195.51972 28988.2559618,-3736366.01688 29103.0403309,-3736472.6103 29218.0820894,-3736594.62813 29290.0335545,-3736743.36153 29211.8298688,-3736823.67057 29358.8543651,-3736939.6194 29501.6226441,-3737016.99202 29729.8301514,-3736995.15397 29906.8958101,-3737228.19285 30067.8434038,-3737439.36732 30151.1353265,-3737643.64506 30177.796742,-3737701.18304 30277.8663078,-3737918.31399 30103.6911648,-3737970.50668 29780.4402186,-3737928.80518 29947.1337251,-3738388.6592 30127.7273031,-3738885.95937 30328.3289058,-3738849.47556 30501.9476996,-3739125.07043 30535.3216948,-3739327.61693 30582.9046014,-3739614.41319 30750.2051845,-3739647.83978 30865.6922219,-3739772.80774 31005.9786709,-3739907.61501 31202.9236066,-3739803.62471 31458.0765147,-3739866.68874 31349.0781757,-3740196.56218 31162.4426067,-3740294.40241 31146.4368647,-3740488.21108 31143.026051,-3740661.27465 31306.9729654,-3740658.55522 31300.9104785,-3740813.85965 30928.8596784,-3740967.12655 30849.7574652,-3741113.74588 31087.0886357,-3741315.94119 31237.2870406,-3741469.0259 31343.6979415,-3741710.63868 31713.6736072,-3741674.55602 32030.7705234,-3741839.66568 32038.3398224,-3741921.35762 32057.1772217,-3742110.89922 32025.545177,-3742473.58303 32275.2404156,-3742445.3414 32326.6869943,-3742768.23617 32386.7434768,-3743257.42968 32375.1092273,-3743628.76956 32330.7873721,-3743747.21911 32262.3698065,-3743931.49526 32282.0456257,-3744164.31534 32503.8114288,-3744353.06479 32708.5118519,-3744604.68976 32707.4876159,-3745390.24542 32766.1181114,-3745681.78565 32647.6191063,-3745949.52558 32444.2439622,-3746221.81234 32415.40432,-3746531.51739 32300.3619273,-3746958.92367 32598.2490786,-3747157.63442 32903.058903,-3747591.98577 33017.6420697,-3747821.09404 32839.5740986,-3748114.64529 32699.5585551,-3748323.52709 32673.8124095,-3748527.93289 32806.6082369,-3748826.08153 32939.4121494,-3749006.18081 33012.0297383,-3749347.60875 32963.0120546,-3749576.94528 32761.7652509,-3750285.435 32827.357011,-3750953.5732 33129.7134686,-3751117.60216 33158.6180431,-3751304.48876 33037.0399429,-3751505.69725 33082.5115804,-3751782.15342 33072.5305105,-3751987.52177 33046.7317528,-3752126.18413 33214.6734131,-3752306.46842 33531.0120836,-3752330.1103 33609.6563831,-3752626.31002 33646.9891111,-3752884.86611 33848.6036591,-3753065.93234 34034.392498,-3752867.99421 34152.021165,-3753082.44548 34143.9548401,-3753240.86556 34418.9057474,-3753469.43001 34439.5134078,-3753594.09642 34665.4986819,-3753690.8821 34757.9969848,-3753749.58085 34785.7295018,-3753914.62277 34895.3939524,-3754235.68101 35017.8457841,-3754401.99564 35261.2401299,-3754536.4878 35477.754187,-3754617.94978 35598.6924133,-3754372.95351 35781.1419495,-3754436.22367 36037.5233884,-3754464.77143 36235.0231625,-3754331.81382 36437.0105787,-3754313.1183 36577.8933131,-3754517.56909 36769.2444966,-3754625.57863 36921.1454195,-3754633.0705 37044.0160256,-3754562.27443 37165.9361846,-3754484.56801 37272.4639162,-3754422.81085 37350.6394557,-3754620.40457 37488.032083,-3754649.76402 37532.2979054,-3754542.27562 37638.8248995,-3754480.51873 37853.8899078,-3754631.30102 38051.9690988,-3754613.85637 38265.012649,-3754551.10615 38447.690369,-3754610.37287 38631.8735936,-3754654.59926 38877.2412102,-3754758.57101 39046.0262398,-3754986.08784 39123.6987283,-3755107.50719 39308.3542619,-3755197.02214 39418.4271254,-3755562.35172 39726.3146746,-3755769.3037 40056.4782345,-3755814.42796 40490.7086066,-3755912.50289 40743.1797215,-3756208.73772 40795.7563381,-3756334.7831 40824.8282403,-3756406.08995 41044.1108597,-3756507.27546 41167.129282,-3756720.3445 41276.643921,-3756947.74359 41294.6260267,-3757313.61054 41342.8205317,-3757768.13931 41454.5628377,-3758044.69455 41755.3093093,-3758279.48487 41885.4677174,-3758411.40084 41929.6752381,-3758660.50339 41884.1836954,-3758923.94866 41809.4986892,-3759076.25618 41789.4492496,-3759119.90167 41863.3755738,-3759313.27074 41973.8799477,-3759434.02163 41891.6167501,-3759653.06317 41879.5331944,-3759727.06421 41921.4383241,-3759766.15201 42182.7161825,-3759565.7594 42314.0258861,-3759297.18975 42358.8694362,-3759251.92002 42446.8978864,-3759166.46963 42617.1990419,-3758998.93481 42667.7410637,-3758683.36838 42838.8112775,-3758451.54167 43106.2590074,-3758375.75465 43319.11738,-3758196.47231 43274.6066645,-3757699.38731 43276.5161712,-3757508.02707 43283.019142,-3757318.35811 43444.4709193,-3757144.93683 43333.3915213,-3756733.88473 43240.366832,-3756431.21092 43357.7738592,-3756216.35324 43197.6793527,-3756053.02968 43250.3557755,-3755982.8482 43342.6590913,-3755863.75813 43266.3531672,-3755626.2239 43278.4973475,-3755423.73623 43511.3545714,-3755169.45242 43706.7619508,-3755103.87462 43884.1382806,-3755105.21348 43948.5592366,-3755054.6831 43956.9953273,-3754940.08886 44092.8328971,-3754740.46505 44259.5691986,-3754602.0659 44380.004572,-3754509.5251 44303.2954096,-3754417.93345 44150.0452039,-3754313.42217 44202.4956953,-3754239.77233 44293.0777412,-3754178.06948 44331.1852887,-3754128.76428 44484.981325,-3754218.79808 44683.7341151,-3754280.49191 44842.3235266,-3754207.86552 45076.4142284,-3754132.2912 45247.8070896,-3754049.8641 45383.7825894,-3754194.84517 45643.0725785,-3754161.94326 45841.1152938,-3754098.6883 46100.4497876,-3754081.71941 46190.0134684,-3753958.83364 46281.5378791,-3753881.13612 46509.4921895,-3753818.41551 46798.129898,-3753785.08933 47058.9388394,-3753828.77801 47152.9778797,-3753667.75595 47351.2157845,-3753736.95126 47562.0903535,-3753824.24205 47866.0255036,-3753925.85981 48013.0443042,-3753821.12914 48217.5807332,-3753765.91782 48567.1565423,-3753788.85834 48819.3144039,-3753738.4991 48952.5176403,-3753711.85759 49028.0004252,-3753746.75546 49340.9596339,-3753895.08548 49531.2025495,-3754062.89632 49580.3318534,-3754105.99109 49668.1142308,-3753895.09167 49886.0837702,-3753931.12271 50197.4019311,-3753985.94275 50249.5930754,-3753984.51957 50700.5654775,-3753761.31262 50997.6782325,-3753994.82595 51934.6072115,-3754113.77184 52082.1648463,-3753857.64154 52473.297152,-3753503.91687 52944.9200296,-3753512.89523 53266.0628955,-3753573.54338 54087.5916131,-3753573.07132 54198.9128236,-3753645.95163 54349.4283514,-3753640.58505 54459.7199692,-3753636.85437 54583.754738,-3753690.97755 54622.0971415,-3753713.86213 54722.1967079,-3753934.8558 54791.144327,-3754037.39408 54940.8163014,-3754125.68757 55100.736334,-3754157.54484 55223.9043198,-3754244.08653 55207.1379807,-3754360.69695 55146.7716242,-3754701.22956 54978.1359653,-3755289.33745 55074.704518,-3756368.94572 55182.1547261,-3757515.55439 55237.1375915,-3758066.1208 55300.5391131,-3758456.30775 55317.5438601,-3758556.26828 55311.7584441,-3758673.15693 55298.4619113,-3758971.77504 55293.9712896,-3759055.21937 55263.2412214,-3759224.52905 55229.9268315,-3759399.98317 55130.7659963,-3759733.10789 54860.5230951,-3760646.5576 54989.562582,-3760693.3668 55100.9328992,-3760728.88633 55421.1060861,-3760736.77663 55825.4824517,-3760897.47959 56200.6173767,-3760870.39779 56290.2862675,-3760863.52368 56398.8354541,-3760818.06964 56652.384685,-3760698.38415 56774.7223551,-3760794.92213 56857.2777836,-3760854.23627 57085.5388175,-3760857.69441 57245.2702733,-3760879.08798 57324.5425777,-3760888.32994 57550.265695,-3760913.86113 57694.502296,-3761169.77829 57831.7765151,-3761235.95888 58007.4020115,-3761317.54843 58271.3445328,-3761295.76226 58368.6009391,-3761267.97689 58428.0746371,-3761248.64332 58595.8082719,-3761202.29681 58913.8886348,-3761292.46868 59078.9552558,-3761235.84183 59183.9948604,-3761311.60188 59265.4261424,-3761338.6245 59381.9734705,-3761377.285 59481.4056561,-3761382.71448 59581.2683976,-3761387.11996 59838.6371253,-3761356.30493 59994.4842965,-3761417.28139 60076.222453,-3761646.41635 60235.401273,-3761712.64975 60278.4080171,-3761730.73993 60399.2201616,-3761857.24069 60444.9493988,-3761924.4405 60487.5904653,-3761974.91542 60632.4656914,-3762065.98265 60678.7717207,-3762088.83465 60725.4840011,-3762102.6985 60810.3670364,-3762083.6897 60898.1592859,-3762063.49444 61811.5513705,-3762455.64293 61978.9170884,-3762464.57992 62059.6778567,-3762435.88421 62239.8912604,-3762481.31699 62259.2574745,-3762541.2819 62284.3937258,-3762613.31447 62297.778993,-3762673.17376 62310.1403802,-3762732.60233 62323.4453731,-3762836.77512 62335.2959351,-3762941.54113 62445.4098205,-3762965.68237 62555.523503,-3762989.82351 62601.7243158,-3763079.39182 62648.9166583,-3763168.89495 62732.6757524,-3763178.33564 62816.9304325,-3763187.74377 62905.207763,-3763205.35128 62992.9567357,-3763222.49555 63049.3793583,-3763270.56951 63106.2651545,-3763318.11515 63151.4746612,-3763407.74735 63194.7014582,-3763497.5095 63231.0939419,-3763581.74584 63265.9994182,-3763666.07964 63303.4810945,-3763751.73783 63323.5874067,-3763800.20243 63374.3815721,-3763921.82697 63410.8071193,-3764006.55848 63446.769598,-3764091.81812 63482.203957,-3764176.61447 63563.0400535,-3764262.91199 63643.4780593,-3764350.72889 63696.6695899,-3764455.76644 63750.8201427,-3764560.24304 63739.4697712,-3764895.53308 63747.725486,-3765157.84826 63802.2332886,-3765237.409 63858.9517121,-3765320.30934 63915.1745082,-3765403.24205 63972.3887716,-3765486.10952 63993.5625673,-3765558.39898 64014.2407527,-3765630.72094 64103.1657452,-3765627.87047 64191.5623608,-3765624.55685 64280.4870715,-3765621.70639 64368.8834069,-3765618.39278 64457.8078357,-3765615.54234 64546.6995835,-3765612.1962 64623.9841862,-3765682.2949 64701.2687765,-3765752.3934 64726.1554413,-3765812.98806 64752.0010019,-3765873.0219 64758.9400754,-3765971.13611 64765.4487176,-3766070.27423 64771.461845,-3766169.44487 64778.003384,-3766269.07865 64903.6609645,-3766408.68276 65136.1641435,-3766499.95115 65244.68274,-3766628.73147 65261.0458378,-3766688.39145 65279.3517469,-3766754.89335 65297.1620449,-3766821.42776 65315.9963396,-3766888.39271 65549.6039041,-3767064.71322 65580.7610034,-3767167.70728 65616.4046064,-3767278.37173 65641.3429625,-3767354.89171 65665.8508434,-3767432.43554 65690.8219494,-3767509.45107 65715.330028,-3767586.99478 65740.3013298,-3767664.01018 65765.3052873,-3767741.5212 65783.3372506,-3767818.99229 65802.8563599,-3767896.36566 65842.2856171,-3768057.06042 66093.5406855,-3768062.45956 66369.3502213,-3768335.56337 66837.4148514,-3768458.63752 66905.9700099,-3768570.12343 66705.6401474,-3768733.6243 66747.1373939,-3768910.60798 66769.5849354,-3769002.22389 66791.5043792,-3769093.37663 67084.822884,-3769337.44421 67110.5707606,-3769433.82066 67138.5946339,-3769534.52776 67138.6543727,-3769611.18646 67139.2424605,-3769688.30825 67140.8219919,-3769765.3649 67141.9059615,-3769842.45412 67208.2367898,-3769897.33395 67276.5828449,-3769952.57901 67364.769532,-3769991.58566 67452.4604463,-3770030.62476 67543.1787881,-3770047.56127 67651.9689405,-3770066.79455 67755.4718425,-3770051.03115 67860.4615405,-3770035.17006 67957.2738276,-3770000.93 68032.2373307,-3769975.09528 68077.0817965,-3769968.16544 68267.8594474,-3769939.69691 68400.0044305,-3770034.05595 68699.9207086,-3770249.80085 69452.0948766,-3770477.1307 69495.6190124,-3770503.14138 70045.2908633,-3770822.92395 70353.3122364,-3771093.87633 70824.7452798,-3771298.82758 71073.9205324,-3771605.99829 71226.5865296,-3771876.20663 71381.6781753,-3772205.98692 71866.0206953,-3772342.37869 72406.9399317,-3772385.44869 72602.4262402,-3772580.15837 72872.0456787,-3772857.59617 72998.0672522,-3773335.61812 73136.6121063,-3773625.65666 73175.7086423,-3773841.60063 73242.6164447,-3773837.19814 73307.0134927,-3773832.4631 73370.9474648,-3773828.25628 73431.9076949,-3773824.24514 73495.1628017,-3773764.33427 73556.8658445,-3773703.53014 73617.1472686,-3773643.81519 73677.3960769,-3773583.60477 73642.82699,-3773519.67783 73608.2253515,-3773455.25521 73574.1845941,-3773391.79113 73539.6156751,-3773327.86397 73601.5147592,-3773270.03405 73664.4050476,-3773212.13906 73726.7018961,-3773152.78997 73787.7075328,-3773096.51248 73874.3543365,-3773036.55729 73958.1252299,-3772978.28472 74043.8784743,-3772919.88192 74128.6404288,-3772861.5445 74212.411098,-3772803.27245 74297.7011064,-3772745.39838 74382.4628324,-3772687.06149 74464.3486682,-3772630.40718 74545.6538068,-3772595.1943 74618.7292243,-3772563.50931 74659.9302485,-3772486.13749 74697.7925355,-3772410.97638 74737.8002803,-3772338.16298 74776.8168884,-3772265.41489 74794.0857226,-3772202.55891 74812.3784153,-3772140.13338 74830.1429767,-3772077.24489 74847.5423807,-3772016.37143 74988.6048886,-3772027.00375 75111.5484856,-3772201.09098 75243.3251705,-3772622.96851 75455.8425248,-3772751.34237 75499.4021084,-3772808.20546 75607.8708039,-3772951.38658 75740.3692816,-3773119.36629 75603.8860122,-3773163.18689 75577.8544202,-3773123.08956 75496.414607,-3772974.64636 75445.955363,-3772986.92514 75359.767414,-3773091.64515 75297.1008185,-3773311.78689 75294.5644697,-3773416.97689 75351.408305,-3773509.30067 75422.2725146,-3773625.58872 75467.6068637,-3773694.28021 75518.9858267,-3773726.23896 75569.3735787,-3773758.26288 75621.248081,-3773790.1889 75693.5460567,-3773814.79813 75766.2743208,-3773838.3835 75838.0765441,-3773863.0252 75896.4127995,-3773872.12767 75975.6422783,-3773903.74654 76065.18759,-3773925.72728 76113.110422,-3773980.80858 76172.7642911,-3774032.62916 76234.3423072,-3774113.6892 76278.4961907,-3774172.00459 76318.217617,-3774314.2305 76303.194978,-3774380.91976 76262.3892707,-3774464.23789 76214.7233484,-3774534.07113 76152.0856905,-3774610.86269 76108.7822761,-3774678.91588 76021.7441152,-3774778.21862 76021.2570823,-3774846.44035 76016.2634603,-3774891.56518 76007.6991033,-3775018.55361 76017.3198557,-3775089.09647 76043.3256966,-3775280.00811 76128.2682215,-3775474.00804 76162.9360814,-3775539.41767 76211.775743,-3775646.20162 76235.3327654,-3775724.28816 76276.0414405,-3775836.08677 76412.5467887,-3776042.11992 76509.5773761,-3776283.60168 76598.7241505,-3776715.23756 76600.495817,-3776976.43005 76556.6898851,-3777263.52029 76436.0669538,-3777434.72174 76216.247252,-3777671.6887 76009.9423154,-3777947.58633 75885.3890869,-3778202.67024 75768.3563215,-3778602.10254 75695.7519845,-3779230.05937 75622.9473867,-3779869.97773 75588.2753369,-3780287.87947 75450.2665318,-3780837.03129 75271.5969647,-3781426.19871 75041.7277861,-3781963.49683 74902.9903491,-3782395.73619 74867.7363404,-3782774.36305 74949.9757076,-3783191.03298 75004.8256671,-3783516.92703 75060.1731274,-3783842.78785 75050.8108108,-3784251.56345 75003.0318532,-3784704.18862 74993.5204642,-3785148.31605 75032.9118428,-3785639.48908 75054.4165164,-3785746.5801 75173.4737074,-3786177.73977 75282.5331066,-3786698.65621 75339.3964549,-3787220.5297 75425.9411565,-3787837.50428 75507.2928916,-3788255.22141 75614.5149449,-3788619.9598 75727.2802514,-3789000.75664 75992.2847268,-3789613.89652 76110.1645339,-3789959.01119 76272.1011132,-3790571.49066 76315.391016,-3790910.08538 76318.6027227,-3791380.2472 76363.2397802,-3791927.3102 76474.7331684,-3792318.63491 76670.3779111,-3792642.67123 77094.7616873,-3793316.91962 77372.1252758,-3793679.84169 77597.0397694,-3794017.36184 78127.8437187,-3795043.41612 78341.137998,-3795445.90423 78487.6304654,-3795929.46367 78598.849585,-3796474.08969 78640.6394511,-3796774.44396 78684.7625199,-3797335.45757 78716.2774911,-3797803.73168 78751.2871022,-3798782.95115 78780.602641,-3799330.51185 78932.5428522,-3800083.47494 79023.91835,-3800530.8574 79079.4501064,-3800805.41153 79111.9325551,-3800965.02283 79174.9670582,-3801420.2555 79248.1554387,-3801758.34365 79342.4828221,-3802114.93875 79430.3955378,-3802494.85434 79499.6489913,-3802863.56343 79510.163868,-3803239.65296 79475.0738054,-3803566.00833 79421.7768856,-3803910.49562 79404.2528929,-3804388.99072 79527.9759155,-3805053.22592 79669.5970297,-3805537.08497 79810.8519043,-3805925.40067 80097.8099827,-3806776.3924 80164.0332752,-3807091.54163 80177.7207885,-3807447.51007 80161.8857798,-3807763.62979 80146.2777704,-3808105.6173 80108.0478975,-3808421.73263 80099.5891587,-3808721.43613 80055.6925112,-3808982.18231 80009.4509836,-3809245.07588 79965.3417603,-3809427.69189 79911.6030302,-3809690.08938 79871.1990493,-3810018.29893 79853.8918315,-3810334.52134 79854.7186727,-3810676.41695 79855.1536328,-3811004.89983 79846.2673193,-3811372.82698 79800.6920009,-3811668.03461 79740.3357227,-3812055.3138 79690.0190429,-3812698.26736 79678.8702522,-3813256.48881 79675.2830892,-3813636.51118 79665.8111871,-3814070.18502 79709.756057,-3814566.00806 79793.0813013,-3815100.02564 79933.1103741,-3815558.59152 80089.1618424,-3816063.37529 80171.1981737,-3816375.97604 80252.0749925,-3816753.36091 80268.1721137,-3817092.25267 80279.5157528,-3817404.58261 80289.7191082,-3817483.04548 80302.3659624,-3817583.24666 80398.5134345,-3817973.05233 80581.0394241,-3818710.50527 81080.2449216,-3820726.472 81406.3187454,-3821563.34808 81546.5626377,-3821860.11078 81678.253048,-3822215.1812 81756.0942626,-3822494.20263 81880.1882565,-3822795.02556 82056.2855767,-3823166.54218 82177.3815537,-3823564.12485 82222.2976239,-3823931.44958 82199.7588289,-3824332.14476 82141.3489555,-3824777.04552 81990.3450938,-3825258.98876 81952.5881848,-3825685.09354 81947.8438415,-3826173.20522 81990.7607974,-3826525.23579 82031.322747,-3827065.57335 82078.8786458,-3827747.80095 82141.6486926,-3828255.29698 82141.7150711,-3828725.66868 82179.646414,-3829203.96377 82251.0487337,-3829482.91176 82395.9714791,-3829841.56367 82540.3459283,-3830072.82627 82641.5404098,-3830477.20499 82701.9382202,-3830881.8214 82717.8113543,-3831312.8088 82704.6908403,-3831622.7904 82645.1849209,-3832072.75675 82580.9430714,-3832451.86249 82528.9048364,-3832879.43122 82530.768791,-3833234.70497 82494.5377695,-3833563.65782 82475.1274515,-3833905.92104 82509.9615847,-3834233.10672 82519.8918064,-3834574.9007 82571.7441778,-3834903.43629 82611.3446973,-3835242.24914 82686.4745507,-3835628.4596 82799.9812855,-3835963.31984 82894.6919991,-3836180.97081 83023.6920379,-3836501.85014 83187.2995856,-3836767.15078 83330.9629722,-3837061.66 83493.0597792,-3837348.96031 83661.7965692,-3837631.3346 83843.9114808,-3837905.34492 84018.2341243,-3838189.3329 84205.7330841,-3838454.51746 84378.2551414,-3838681.87929 84664.7276836,-3838938.4379 84933.7037902,-3839134.44572 85158.8470515,-3839441.39951 85222.7250637,-3839688.9773 85195.7030696,-3840154.68693 85127.6781439,-3841211.48437 85189.0983353,-3841659.81929 85288.4973681,-3842481.40727 85356.1249402,-3842895.97597 85471.1304701,-3843393.47642 85507.3779563,-3843800.19454 85452.6759803,-3844194.10133 85308.364075,-3844543.25249 85013.2327661,-3845159.3706 84706.2819559,-3845710.58546 84512.3028629,-3846016.7894 83957.5443068,-3846628.45773 83543.9092587,-3847014.12991 82830.6085008,-3847503.5594 82317.9737289,-3847793.84846 81843.2189652,-3847995.97795 81297.0441452,-3848157.60776 80988.7827355,-3848266.92041 80673.6075498,-3848362.26207 80352.7948688,-3848551.57045 80076.016814,-3848796.16636 79523.8328774,-3849579.97908 79549.7380315,-3847186.25236 79432.7120132,-3847185.64706 68767.4325214,-3847108.99559 68775.6725534,-3846304.32735 68819.1692367,-3841933.83956 68881.3629098,-3835568.6477 68926.5172464,-3831173.34172 68935.7011589,-3830289.99746 54335.4461765,-3830070.15356 52205.310076,-3830038.08585 51740.2369465,-3830039.25749 47043.7785389,-3830048.01121 46883.5684175,-3829878.90549 46886.7595746,-3829702.87588 47155.3619597,-3829473.76783 47413.7026961,-3829486.40721 47250.2175867,-3829253.27038 47070.3396929,-3829058.08294 46990.9922305,-3828913.96022 47029.4354859,-3828885.49535 47185.4228672,-3828767.50397 47168.6844571,-3828598.78267 47161.1760172,-3828531.04957 47307.6456176,-3828449.55479 47549.1601291,-3828478.76112 47657.5271415,-3828587.57634 47720.0415643,-3828651.13989 47847.0923647,-3828853.33783 47924.7178631,-3828971.67439 47993.3178971,-3829074.1773 48050.1408326,-3829059.92558 48129.3753702,-3829038.20141 48115.5340918,-3828718.87781 47962.7070241,-3828615.52118 47900.0579836,-3828512.62068 47838.2348437,-3828399.7038 47791.9840151,-3828326.08993 47805.5777721,-3827902.83355 47793.5017885,-3827714.37917 47793.2670539,-3827651.14213 47793.2590692,-3827494.2561 47819.4366974,-3827431.2492 47867.2633433,-3827304.54162 47890.8295874,-3827239.71693 47946.4577487,-3827110.4971 47960.0689995,-3826918.83584 47965.7490351,-3826772.52831 47970.7359374,-3826645.69105 47975.1946946,-3826533.33252 47969.7705794,-3826444.54348 47838.7636081,-3826287.43071 47627.3993217,-3826232.29852 47506.3438189,-3826134.785 47438.939958,-3826072.54117 47396.9903989,-3826040.97313 47351.5035863,-3826001.17403 47236.1004465,-3825891.32928 47207.5047271,-3825806.07666 47181.3554448,-3825727.6336 47173.9136844,-3825466.65113 47160.4903934,-3825265.33609 47181.5788072,-3825036.31935 47209.3124534,-3824787.43584 47272.0539486,-3824578.0554 47338.8287391,-3824414.2274 47355.0266426,-3824373.30351 47468.9070293,-3824243.68984 47442.726849,-3824179.69236 47354.7657836,-3823973.38604 47428.3209003,-3823672.14372 47440.3576099,-3823456.68228 47391.4724271,-3823231.33564 47368.1046726,-3823112.36499 47344.7043442,-3822985.42768 47329.7981438,-3822911.21556 47321.3730543,-3822777.30372 47317.0781578,-3822705.3728 47306.9028156,-3822537.7103 47304.9291866,-3822291.30777 47307.4835994,-3822082.95345 47248.6876543,-3821843.32487 47211.1122801,-3821653.08333 47252.8037956,-3821516.33128 47285.8654496,-3821421.99027 47297.4380681,-3821371.41472 47331.2943364,-3821259.0913 47335.3307544,-3821200.05296 47328.7355815,-3820943.99842 47327.5861724,-3820829.5244 47305.4442656,-3820743.84098 47223.2815501,-3820527.1841 47167.7582124,-3820373.99691 47107.2107437,-3820220.14795 47047.4902737,-3820063.75342 47029.544313,-3820018.62997 46982.1577271,-3819823.06425 46940.2578356,-3819642.5725 47089.1943263,-3819448.37962 47192.1141232,-3819281.15732 47299.4365768,-3819052.88129 47231.5917429,-3818856.68594 47155.4855225,-3818641.11836 47080.2735757,-3818416.52602 47045.8339768,-3818370.50788 46923.2745187,-3818250.16919 46857.955243,-3818249.03792 46714.030035,-3818226.74161 46496.7420085,-3818292.00373 46466.8810458,-3818097.75968 46460.1475681,-3818011.54726 46456.3857883,-3817955.02001 46451.4727496,-3817851.25473 46479.9855105,-3817703.42912 46490.0079992,-3817651.96127 46530.5772753,-3817580.53109 46604.5770444,-3817427.68709 46568.4554229,-3817356.37959 46505.1018179,-3817235.08699 46417.5565885,-3817072.07351 46439.4344729,-3816869.40668 46445.2259425,-3816821.70688 46454.1359978,-3816693.61403 46458.3878783,-3816547.90146 46467.5106126,-3816325.66385 46598.7014623,-3816171.50794 46763.0722802,-3816074.41296 46994.724742,-3816112.79298 47059.5465999,-3816121.43032 47224.7579732,-3816141.81748 47458.7714972,-3816073.4595 47639.7960954,-3816002.15206 47546.5742447,-3815813.62048 47478.4042381,-3815657.2887 47457.6199993,-3815606.87521 47414.1012442,-3815506.67589 47352.5062415,-3815374.31008 47272.397919,-3815255.62615 47216.6789297,-3815174.16702 47174.6421269,-3815111.22139 47076.8865818,-3814966.81616 46994.2045307,-3814824.39641 46962.1496005,-3814769.25328 46847.8430606,-3814570.665 46689.8269566,-3814426.28037 46573.0229298,-3814332.44556 46492.512194,-3814252.6329 46455.1776986,-3814148.03568 46436.251661,-3814065.62261 46409.3816787,-3813863.70915 46276.8628189,-3813668.32033 46206.9590568,-3813613.20165 46164.4217657,-3813580.16993 46106.1848426,-3813535.73057 45987.327599,-3813463.44554 45947.5661623,-3813434.71148 45937.1874334,-3813263.57525 45941.6337407,-3813180.60403 45926.3387162,-3813130.32181 45921.1616392,-3813067.414 45864.7290946,-3812930.21737 45786.8180572,-3812754.60413 45743.3333064,-3812669.83761 45695.4332486,-3812518.62602 45772.2261197,-3812355.14416 45805.3329915,-3812276.24512 45853.1624001,-3812141.58291 45727.2691751,-3812053.32687 45628.7452267,-3811972.21682 45486.7689282,-3811814.30574 45339.6677521,-3811661.71487 45354.4983809,-3811427.64264 45402.549026,-3811206.30539 45423.3653387,-3811107.30522 45409.4440851,-3810987.70238 45401.8559453,-3810925.95045 45377.8678262,-3810744.76027 45178.312188,-3810709.704 45110.0724686,-3810484.63548 45046.3932561,-3810268.2286 45242.6266886,-3810238.26282 45060.0423199,-3810023.77591 45003.5120349,-3809907.49992 45095.297122,-3809834.66638 45191.3492905,-3809751.09071 45348.0418978,-3809613.18602 45417.4043447,-3809577.70149 45597.0877038,-3809501.02478 45624.000805,-3809358.78945 45486.3653451,-3809191.12209 45424.0432562,-3809107.60393 45363.8137296,-3808988.08741 45132.7570045,-3809071.16161 45055.2996431,-3809089.75135 44937.6422785,-3809117.98274 44846.0536101,-3808953.73037 44855.9175029,-3808907.25496 44883.9377321,-3808714.14388 44744.3352136,-3808606.86751 44322.5457648,-3808652.79661 44216.4086092,-3808501.9589 44169.7524467,-3808429.35157 44231.9897977,-3808233.9676 44316.3992537,-3807959.91434 44242.9389535,-3807761.08607 43871.9850462,-3807597.43964 43864.8715451,-3807400.18344 43855.2770489,-3807210.56276 43886.9439523,-3807004.75681 43918.6115496,-3806798.95115 43950.2798412,-3806593.14578 44079.0311476,-3806409.28905 44297.7448372,-3806387.80627 44516.9535589,-3806366.29068 44638.9143284,-3806222.73047 44761.3710062,-3806079.13797 44884.852346,-3805935.97617 45007.3091046,-3805792.38491 44958.8730315,-3805617.79602 44908.916994,-3805442.80969 44861.5065627,-3805268.65039 44811.5844386,-3805094.15941 44723.7694625,-3804949.07563 44586.1668163,-3804721.6292 44553.5645941,-3804650.57836 44491.1171134,-3804565.071 44443.3404664,-3804498.01449 44420.6149431,-3804448.22255 44401.2263411,-3804403.68783 44447.2574805,-3804083.87787 44265.397159,-3804030.19338 43945.4706149,-3803937.35141 43906.2120218,-3803720.81188 43865.9624955,-3803504.33787 43868.7391247,-3803328.34194 43872.5080308,-3803152.28034 44055.1182508,-3803059.492 44237.6951245,-3802966.20834 44444.4046481,-3802868.83542 44609.6894134,-3802867.84092 44531.6804317,-3802427.26222 44558.7105914,-3802369.19192 44571.8055231,-3802273.69588 44624.1183071,-3802063.5414 44652.4451511,-3801987.45598 44496.4476799,-3801910.63584 44405.3040799,-3801760.28969 44315.5826575,-3801608.85279 44235.483202,-3801452.29553 44564.1252151,-3801233.29615 44563.0290115,-3801006.26179 44381.8594838,-3800970.45205 44168.2812756,-3800964.18148 43956.1570434,-3800957.31637 43950.7806592,-3800770.90508 43963.6017252,-3800626.12039 44229.1246182,-3800371.4628 44366.895491,-3800240.81482 44504.6334362,-3800109.67159 44642.3712992,-3799978.52898 44812.2910928,-3799882.11039 44981.2516185,-3799786.25389 45149.6502239,-3799689.43904 45322.3043184,-3799611.76617 45495.0236393,-3799535.08544 45668.2055253,-3799457.87645 45682.7697345,-3799264.17443 45696.8387277,-3799070.50539 45561.8669532,-3799153.15139 45429.4070728,-3799236.12944 45319.9837643,-3799178.13317 45211.0561836,-3799120.10383 45338.4123589,-3798847.21548 45377.6551398,-3798762.93989 45169.2297789,-3798413.17584 45123.3253174,-3798246.38561 45076.4624276,-3798080.15666 45031.0547579,-3797913.33315 44987.5653543,-3797745.38639 45147.1434102,-3797643.18544 45302.3568997,-3797542.76799 45234.8385487,-3797440.65836 45178.7835835,-3797353.7268 45104.057287,-3797255.58004 45018.3088673,-3797118.81794 45014.7423528,-3796974.62452 45007.1072311,-3796836.67679 44999.5745379,-3796692.74589 44903.337446,-3796645.82485 44800.6613737,-3796584.38871 44657.2845547,-3796472.35583 44577.1708945,-3796307.82689 44590.9841127,-3796117.65952 44688.6992074,-3796051.43014 44935.1860029,-3796080.94065 44859.0670519,-3795863.85447 44903.2805816,-3795764.31107 45011.3707535,-3795772.10088 45006.7931439,-3795672.79752 45027.3467956,-3795622.1327 44992.8057593,-3795551.70529 44968.1705795,-3795503.03389 44950.0838551,-3795447.95288 44994.1088477,-3795330.49341 45175.1012817,-3795183.05662 45241.9208183,-3794965.97852 45082.5014059,-3794882.39582 44997.6070045,-3794893.98741 44478.7509336,-3794963.16892 43974.9091223,-3795010.93831 43621.3864284,-3794906.82313 43189.0792547,-3794816.38397 42892.8329036,-3794727.40326 42539.2297002,-3794576.97016 42082.6897962,-3794662.44754 41646.1553402,-3794606.15016 41093.6527244,-3794792.10859 40480.6272385,-3794703.15437 40423.0898628,-3794669.10633 40107.9758534,-3794475.77529 39811.0804767,-3794460.04579 39671.2797953,-3794447.37544 39218.6191037,-3794222.79119 38584.9023828,-3794092.35841 38092.3075072,-3793911.74789 37963.5934615,-3793750.40986 37816.0469667,-3793567.90216 37706.9590708,-3793191.08629 37382.7974718,-3792845.91859 37133.4888055,-3792495.30181 37062.9342532,-3792098.50052 37019.0381119,-3791856.33878 36885.6001694,-3791751.59069 36678.6355217,-3791589.43839 36329.2232785,-3791238.95121 35906.0892899,-3791212.61428 35779.0634125,-3790888.27309 35556.2764939,-3790347.10517 35114.8910444,-3790342.3888 34490.3594159,-3790223.2481 34099.7620581,-3790037.34718 33728.4164792,-3789886.53487 33397.8227794,-3789915.34214 33217.4712826,-3789986.53003 33052.0683071,-3790050.25537 32829.1955304,-3790284.64965 32791.397584,-3790511.80226 32365.157067,-3790849.7953 32215.3438419,-3790964.79804 32117.0202747,-3790980.75787 31949.6864148,-3791007.75237 31757.1633903,-3791162.43996 31367.9483768,-3791502.97833 31313.7549759,-3791478.16467 31142.0220283,-3791393.36892 30994.7525701,-3791369.72273 30837.1699259,-3791340.77996 30794.1788696,-3791353.5831 30694.5899087,-3791380.5865 30629.4710186,-3791544.7942 30610.8963167,-3791587.86587 30432.0265128,-3791685.36541 30119.3009786,-3791660.69538 29825.5836825,-3791584.45534 29395.1350506,-3791685.62535 29056.671299,-3791897.28884 29035.5848882,-3792105.91757 28812.5843996,-3792402.61357 28217.6996803,-3792409.04469 27989.8369671,-3793020.41359 27649.3851822,-3793318.90316 27350.3355335,-3793377.02847 26793.7938414,-3793236.46026 26503.3346505,-3793356.78892 26364.865611,-3793681.29289 25937.6314115,-3793846.53509 25752.8322405,-3794178.58994 25589.6805268,-3794235.20922 25333.7608923,-3794079.25353 25081.3422527,-3794224.97285 24888.039276,-3794296.53906 24878.1400993,-3794467.07963 24610.3338156,-3794421.51282 24294.3933402,-3794262.04942 24106.3736282,-3794164.87341 24016.5173075,-3794331.73415 23722.9287937,-3794378.54403 23609.0936138,-3794344.71795 23522.9156544,-3794318.52941 23417.7096437,-3794287.1219 23089.4914239,-3794311.31011 23053.0743415,-3794385.95867 22954.9641851,-3794586.25047 22829.0557241,-3794644.89426 22701.2612201,-3794705.15761 22360.8931142,-3794507.94451 22241.9544338,-3794607.97841 22303.9686145,-3794769.78648 22251.7679688,-3794861.92116 22133.3154938,-3795071.03479 22059.1675995,-3795113.8023 21986.3704079,-3795135.55515 21718.4254809,-3794926.07974 21398.1442541,-3794633.3705 21070.777351,-3794742.20303 20468.9784667,-3794969.32543 20265.7605572,-3794823.32448 19820.0401745,-3794732.21679 19438.0770145,-3794640.87849 19241.0266246,-3794520.37468 19108.9044542,-3794439.92218 18814.661859,-3794518.6643 18438.4905111,-3794763.75884 18179.0388145,-3794600.0437 18085.8682504,-3794321.20006 17714.1713595,-3794129.0264 17561.9466019,-3794151.54437 17438.6445972,-3794170.65593 17032.1713056,-3794236.38701 16871.1898363,-3794126.44703 16655.4408315,-3794190.53374 16450.7046273,-3794108.3982 16160.1106485,-3794144.54602 15829.6896135,-3793988.99928 15754.9398881,-3793970.0224 15500.4317968,-3793907.61704 15372.6110554,-3793783.02444 14996.4238912,-3793753.07477 14859.5400667,-3793600.67756 14792.3128158,-3793525.89327 14416.618416,-3793495.90867 14118.8215694,-3793445.82722 13768.7314437,-3793343.39202 13915.4218188,-3793131.39353 13873.4893322,-3792983.18252 13679.6703899,-3792911.77742 13520.4859098,-3792829.11425 13879.6131549,-3792751.57173 13856.85613,-3792561.73223 13705.656217,-3792430.20689 13664.2708913,-3792392.08111 13650.197167,-3792201.66734 13553.2261497,-3792117.88247 13340.538483,-3792183.25625 13130.1810106,-3792249.97134 12729.0652953,-3792129.47086 12834.2767012,-3792043.79004 12795.8433531,-3791937.20171 12605.648371,-3791750.94369 12435.9829126,-3791634.08713 12150.1517139,-3791610.61009 12090.7690587,-3791552.74267 11926.6862904,-3791392.16331 11891.103637,-3791064.63631 11701.4194501,-3790776.68487 11471.8845325,-3790613.44806 11165.6403765,-3790307.27718 11095.2163258,-3790267.07909 10785.2967388,-3790327.90446 10499.3008796,-3790215.23234 10172.6918965,-3790249.75209 9921.20710571,-3789984.3075 9526.94494597,-3789982.92819 9451.2108189,-3789967.99508 9190.20823904,-3789916.9553 8002.64835915,-3789414.29617 7952.91491816,-3789393.16054 7893.3423315,-3789370.18264 7824.48325831,-3789334.86094 7797.31369414,-3787084.18561 7789.1246881,-3786427.42553 7722.79047976,-3786449.24237 7463.77235406,-3786534.1 7493.95580792,-3786345.7321 7587.49603836,-3785882.59103 6904.86987257,-3786114.48571 6273.34599449,-3786316.60206 6413.91770759,-3786071.61467 4980.638631,-3786165.64064 4912.57166593,-3786433.26119 4913.84892492,-3786497.96315 4946.69281096,-3786712.58146 4961.77211619,-3786812.75297 5149.58992766,-3787072.4657 5134.78948256,-3787188.06349 5124.70986884,-3787341.22489 4342.71565643,-3788140.85285 4671.66668343,-3788503.88154 4002.55726557,-3789186.44056 3929.63595189,-3789259.52942 3791.18973112,-3789400.73418 2321.71002998,-3790736.69542 1914.60901633,-3790484.97625 1722.4938597,-3790387.0176 1472.04465589,-3790258.52038 886.238992183,-3789957.28795 616.982727626,-3789676.02466 272.176330391,-3789311.03059 172.48582026,-3789288.20438 -6.51718184001,-3789241.70524 -229.060145525,-3789128.30317 -642.538082587,-3788900.90579 -1002.39976088,-3788757.18825 -1256.96467977,-3788687.26301 -1342.85045887,-3788647.07658 -1574.46540784,-3788539.75053 -1608.25546602,-3788511.07862 -1765.42674611,-3788364.9478 -1923.60595328,-3788241.31129 -2031.04328493,-3788150.21222 -2418.90778175,-3787876.75183 -2774.10694622,-3787701.81366 -3025.67853848,-3787530.00604 -3174.32074146,-3787509.40732 -3386.57278244,-3787476.55637 -3694.16234185,-3787479.40085 -3988.71167005,-3787566.61624 -4284.49124272,-3787495.41249 -4539.58845247,-3787319.3458 -4730.66563118,-3787184.41259 -5027.04572258,-3787092.8095 -5291.01805843,-3787042.93055 -5513.4165266,-3786939.46827 -5863.34208308,-3786795.56819 -6190.30726227,-3786788.2214 -6433.31744687,-3786727.48673 -6589.28615132,-3786463.62601 -6985.81065865,-3786312.32543 -7219.6231508,-3786156.77375 -7506.31075678,-3785917.47758 -7769.61044433,-3785840.13099 -7962.9021335,-3785649.00565 -8097.66649071,-3785570.66011 -8353.18895971,-3785599.96747 -8713.31325119,-3785653.11885 -8798.71630474,-3785665.72778 -9028.43138499,-3785802.99672 -9238.72239265,-3785822.84279 -9301.44580758,-3785835.45211 -9385.72613863,-3785849.98117 -9451.00200878,-3785823.87815 -9558.81657868,-3785851.92211 -9566.24986579,-3785746.73635 -9513.46175324,-3785522.93223 -9374.64834902,-3785386.67137 -9199.58700052,-3785180.23005 -9192.50711755,-3785136.39669 -9168.95729898,-3784990.78734 -9175.58245418,-3784912.96473 -9198.17312332,-3784793.32631 -9115.06527254,-3784643.79164 -9158.44964877,-3784458.23084 -9213.98653926,-3784330.29596 -9255.3669728,-3784186.47391 -9362.47358852,-3784066.42337 -9595.6887276,-3784252.76767 -9732.86214137,-3784077.37387 -9818.34365801,-3783865.67382 -9993.02851309,-3783745.09003 -10240.9950618,-3783790.83998 -10421.8799924,-3783901.45783 -10477.0926006,-3783933.50938 -10527.3273289,-3783859.55589 -10580.5534177,-3783781.81158 -10614.8690438,-3783745.19162 -10729.0889873,-3783623.11388 -10757.4833583,-3783566.66293 -10809.1721495,-3783447.94159 -10814.808571,-3783377.52903 -10735.159549,-3783194.32449 -10680.3455113,-3783016.24602 -10659.320152,-3782911.6761 -10583.890229,-3782857.3575 -10471.8850737,-3782847.48611 -10240.5632318,-3782658.77772 -10112.9613957,-3782526.252 -10028.2926123,-3782377.61309 -10030.4180995,-3782262.10779 -10130.9541177,-3782037.43939 -10180.6852592,-3781853.78809 -10236.222992,-3781650.08165 -10215.5904756,-3781501.67353 -10069.5980719,-3781440.21759 -9987.51556353,-3781445.2796 -9884.66056538,-3781436.51181 -9831.0842384,-3781341.76357 -9806.35595743,-3781202.55776 -9726.29912166,-3781093.60434 -9599.74007613,-3781066.32826 -9365.33616484,-3781056.8736 -9203.90771048,-3780991.41205 -9146.33427455,-3780904.37742 -9201.62050692,-3780802.84234 -9272.60247705,-3780758.16855 -9426.69568623,-3780632.23447 -9428.00306788,-3780491.25505 -9371.63481929,-3780442.68176 -9301.94074762,-3780464.01298 -9157.97553006,-3780614.04178 -9022.92995184,-3780666.4603 -8860.04866092,-3780664.70731 -8728.24124055,-3780630.10826 -8493.4253248,-3780456.63543 -8372.54135135,-3780346.99086 -8328.04940795,-3780235.39806 -8325.01526599,-3780186.84809 -8326.57946549,-3780117.66576 -8392.66933191,-3780060.20851 -8461.15941462,-3780064.71776 -8552.47964218,-3780070.7301 -8634.11308769,-3780125.45202 -8714.53850813,-3780179.59609 -8811.29385942,-3780156.05886 -8905.82938714,-3779988.32044 -8957.92589379,-3779912.49509 -9121.82731587,-3779887.39633 -9182.64031202,-3779849.52911 -9501.38669952,-3779649.19521 -9570.28483198,-3779605.87817 -9555.09113819,-3779537.58523 -9485.41742476,-3779543.46646 -9397.37172543,-3779597.48614 -9291.41527591,-3779597.988 -9208.26662865,-3779513.25888 -9141.70547521,-3779422.64344 -9098.62794353,-3779323.60481 -9126.26066134,-3779252.14997 -9250.55392603,-3779260.82996 -9350.3967849,-3779288.83596 -9490.93255574,-3779274.16043 -9716.49246553,-3779152.92665 -9824.30206611,-3779014.47072 -9808.28209965,-3778811.03903 -9660.6540558,-3778812.28886 -9557.13450231,-3778760.61376 -9451.66249811,-3778708.31186 -9388.89206342,-3778700.1929 -9255.27142089,-3778753.70632 -9122.41390702,-3778848.64194 -9012.1613917,-3778834.90538 -8886.41736572,-3778636.21798 -8935.83002992,-3778479.96321 -9070.65743975,-3778445.96894 -9248.85088535,-3778536.95147 -9374.1039407,-3778565.13322 -9510.55872794,-3778517.78736 -9608.26259678,-3778441.97089 -9645.65822355,-3778335.7667 -9711.78034989,-3778277.81004 -9765.94442712,-3778261.43587 -9807.04101682,-3778246.69406 -9897.74435073,-3778167.42531 -9991.40022321,-3778039.50087 -10010.8964004,-3777837.90778 -10029.5433055,-3777592.39369 -9966.31586453,-3777458.63232 -9932.03143085,-3777297.86447 -9888.18579459,-3777271.05343 -9858.05393005,-3777338.85611 -9796.44487504,-3777449.44954 -9709.04073187,-3777497.53291 -9544.31654685,-3777470.74397 -9348.40385289,-3777361.15236 -9083.132248,-3777218.58596 -8903.95143256,-3777153.96087 -8705.69588042,-3777106.52404 -8600.65509144,-3777017.36833 -8628.68982335,-3776954.91201 -8775.75356599,-3776954.61789 -8850.51975464,-3776928.13381 -8942.30418985,-3776896.78775 -9041.48091813,-3776806.11291 -9049.0487411,-3776645.60878 -9180.83011211,-3776404.05128 -9204.39618659,-3776227.65156 -9180.92430031,-3776118.44061 -9084.39057061,-3776036.32562 -9051.92476627,-3775859.23169 -8976.72041667,-3775839.33181 -8862.50541665,-3775908.58214 -8691.40365625,-3775925.74056 -8458.40732546,-3775913.90529 -8260.6928998,-3775786.25765 -8174.91021096,-3775756.69017 -8083.12637795,-3775731.21412 -8001.81772094,-3775728.35882 -7995.70437326,-3775681.10256 -7988.21297663,-3775628.27276 -8060.74949665,-3775294.59631 -8119.86365382,-3775138.48149 -8078.33195501,-3774962.78865 -7992.16995048,-3774734.3167 -8125.27805102,-3774597.52181 -8641.24057003,-3774653.37843 -8821.17586127,-3774600.41024 -8880.85437494,-3774538.03959 -8940.23156314,-3774453.71698 -8974.21706464,-3774334.82676 -8921.83409792,-3774271.06977 -8848.39318359,-3774262.25381 -8602.30668096,-3774335.79647 -8462.24866302,-3774290.20132 -8277.67978564,-3774231.71101 -8207.09034871,-3774156.78884 -8047.6267026,-3773875.64809 -8047.22933972,-3773767.9573 -8073.43742356,-3773683.94713 -8113.50717327,-3773563.4645 -8114.00400366,-3773457.32777 -8022.90725936,-3773246.97656 -7876.05405225,-3773027.97697 -8026.88038379,-3772879.384 -8252.32371141,-3772953.01764 -8457.65868247,-3772892.7424 -8546.62480146,-3772752.54342 -8362.33077484,-3772723.98277 -8248.79900662,-3772688.10993 -8234.56963134,-3772597.45414 -8342.03138695,-3772319.90206 -8368.97221545,-3772277.80894 -8404.00987876,-3772226.27885 -8538.02392206,-3772212.15646 -8628.28369366,-3772181.2022 -8717.85751082,-3772228.95811 -8725.12934767,-3772361.0272 -8785.408098,-3772498.07509 -8782.22998923,-3772618.49171 -8837.47991567,-3772756.20645 -8933.60926219,-3772791.43439 -9078.78457214,-3772770.56965 -9140.9372486,-3772719.82424 -9237.43771916,-3772639.43482 -9233.84901581,-3772500.62823 -9172.38005233,-3772347.55061 -9173.27049642,-3772292.28059 -9227.43231007,-3772275.90146 -9367.86340945,-3772293.10479 -9539.09013986,-3772198.18491 -9715.52974861,-3771879.79879 -9787.59336207,-3771727.51894 -9783.5193928,-3771516.40289 -9693.48185365,-3771418.77107 -9558.31540824,-3771423.84773 -9280.84448553,-3771493.34657 -9029.09270285,-3771505.21848 -8950.86442164,-3771421.32336 -8905.47422959,-3771304.19571 -8940.99688208,-3771207.33738 -9014.6973021,-3771124.94985 -9023.77755923,-3771020.87123 -8961.56657434,-3770992.85875 -8880.90531023,-3771010.48877 -8744.4163173,-3770895.35256 -8659.52507321,-3770730.77052 -8570.90299735,-3770676.10115 -8507.89190673,-3770675.4513 -8463.63777414,-3770757.28059 -8442.32268458,-3770952.76748 -8414.33766504,-3771060.08925 -8366.49299413,-3771158.62954 -8321.46137866,-3771172.61842 -8254.02728283,-3771148.25047 -8159.04655041,-3771034.84484 -8049.53156374,-3770877.12007 -7987.03159936,-3770823.16997 -8005.62999508,-3770760.09233 -8157.86101049,-3770734.20405 -8298.14458726,-3770670.14729 -8608.29599738,-3770429.33273 -8892.46418277,-3770193.28905 -8898.69751016,-3770105.97102 -8849.25879182,-3770012.50443 -8738.44707692,-3769969.33838 -8631.263108,-3769897.50069 -8631.61809196,-3769804.81251 -9035.84992014,-3769668.36571 -9090.10861806,-3769650.49544 -9152.75040528,-3769561.89689 -9099.94451933,-3769443.78517 -8955.93589777,-3769488.6598 -8810.22876138,-3769472.11331 -8525.65162272,-3769376.66501 -8401.86071164,-3769356.57346 -8350.33557707,-3769294.87183 -8320.22659488,-3769259.9973 -8270.94737169,-3769194.45574 -8262.88657699,-3769123.64565 -8298.11703577,-3769069.13615 -8398.32612322,-3768981.50961 -8449.91220409,-3768856.29749 -8420.84538686,-3768608.15656 -8270.03799727,-3768487.10232 -8227.26787606,-3768462.86128 -8037.78420078,-3768357.71105 -7947.27396318,-3768350.77221 -7848.35468193,-3768403.59273 -7741.42690961,-3768437.94344 -7606.44059645,-3768436.55804 -7442.89494726,-3768460.21333 -7406.93508133,-3768332.24615 -7395.90589714,-3768287.65956 -7383.96174739,-3768238.02855 -7328.34281774,-3768136.18516 -7268.22507301,-3768083.8903 -7218.02782734,-3767994.36562 -7243.12214348,-3767896.8241 -7335.39472615,-3767816.15309 -7396.17400341,-3767835.59428 -7405.16209416,-3767987.21084 -7421.240297,-3768083.96633 -7537.68821734,-3768139.95918 -7661.90345107,-3768123.19148 -7820.91921933,-3768020.48415 -8006.69232146,-3767715.17136 -7997.73021372,-3767654.2716 -7944.64013476,-3767616.39438 -7210.43929844,-3767593.62346 -7094.41597366,-3767580.52517 -7023.8863354,-3767553.96467 -7032.5906688,-3767508.68005 -7164.71951983,-3767451.06064 -7268.02667748,-3767323.76197 -7287.49482864,-3767209.40256 -7309.95600202,-3767110.19261 -7395.83010634,-3767001.6865 -7449.8246597,-3766858.68955 -7444.47083988,-3766784.56953 -7376.59098398,-3766713.82291 -7282.60124203,-3766668.777 -7229.03193198,-3766615.41812 -7230.06776704,-3766561.65511 -7335.31202745,-3766469.37261 -7365.34085505,-3766410.53389 -7351.52924082,-3766332.37003 -7316.65209879,-3766184.03988 -7314.35277612,-3766105.13621 -7369.15127671,-3766052.4085 -7527.21492652,-3766055.30295 -7564.85746224,-3766032.35247 -7610.62835639,-3765999.4681 -7628.97577518,-3765875.56402 -7649.24748944,-3765741.31896 -7765.12566062,-3765631.28993 -7821.26256943,-3765577.1539 -7543.96370601,-3765435.34945 -7373.7536348,-3765256.70896 -7270.35860363,-3765172.66893 -7241.68906681,-3765093.03254 -7279.61245964,-3765039.19713 -7377.4093222,-3764976.82823 -7461.88163869,-3764798.44648 -7497.91308469,-3764754.45534 -7574.6155759,-3764781.91603 -7727.88251022,-3765032.7146 -7861.87422598,-3765125.24169 -8012.34404814,-3765126.14023 -8095.54299832,-3765008.98143 -8117.05250143,-3764935.62622 -8141.88986253,-3764849.52978 -8137.88480639,-3764739.61006 -8134.25743813,-3764658.12628 -8117.55609335,-3764509.99085 -8032.02652467,-3764366.31334 -7892.92755754,-3764309.83883 -7770.01573488,-3764245.95272 -7696.45906106,-3763991.91016 -7376.17475689,-3763753.09042 -7317.73349401,-3763709.38341 -7491.11721003,-3763592.65527 -7566.0421694,-3763460.99701 -7669.37398573,-3763302.79019 -7662.07816572,-3763060.57038 -7659.28498162,-3762837.08802 -7686.44241452,-3762772.57651 -7784.18982842,-3762786.95979 -7927.62908186,-3762743.03081 -8027.12907657,-3762681.26787 -8097.74915327,-3762577.23787 -8091.3721427,-3762450.21634 -8012.02963146,-3762310.93523 -7978.555008,-3762198.0877 -8033.02838629,-3762108.45051 -8221.09978077,-3762109.8127 -8320.51864614,-3762064.49168 -8348.60978348,-3761947.70414 -8393.68860994,-3761815.08297 -8482.73800012,-3761772.07235 -8573.00409961,-3761737.11642 -8602.44515621,-3761614.93391 -8588.40985444,-3761372.76803 -8604.64858674,-3761235.26535 -8579.12468925,-3761118.95103 -8497.67301792,-3761019.40792 -8401.29858164,-3760991.65947 -8257.8088532,-3760990.72996 -8152.01208339,-3760939.43603 -8080.64451588,-3760819.12179 -8052.98923093,-3760720.11431 -8114.45481156,-3760656.85283 -8278.59752566,-3760650.66142 -8450.86875416,-3760562.26145 -8488.94834589,-3760445.13081 -8559.43321175,-3760384.95175 -8640.10446394,-3760321.45244 -8691.80132092,-3760308.39102 -8801.41104637,-3760278.68781 -8983.59574264,-3760164.51795 -9068.4877184,-3760131.69956 -9130.68624676,-3760144.74661 -9323.28761997,-3760198.73635 -9366.74091074,-3760296.28832 -9461.61569192,-3760472.47532 -9478.02435134,-3760587.19672 -9582.66843213,-3760640.90764 -9725.46975293,-3760644.78169 -9810.00676371,-3760647.82869 -9881.69405621,-3760683.42999 -9962.63337671,-3760737.5819 -10007.5730655,-3760702.14574 -9996.99219718,-3760547.92897 -10085.5895624,-3760469.99396 -10243.4310112,-3760373.66671 -10358.2189235,-3760356.26485 -10378.3579185,-3760231.47509 -10343.4320369,-3760155.91391 -10247.040646,-3760101.74706 -10152.8654289,-3759960.49619 -10285.1144738,-3759821.11927 -10290.838396,-3759691.89608 -10093.9059746,-3759528.96093 -10059.8238039,-3759368.22045 -10200.2877249,-3759324.08686 -10465.9657662,-3759251.76763 -10701.8271954,-3759159.05177 -10738.2062653,-3759060.24771 -10683.1307619,-3758957.44736 -10596.4748635,-3758925.85192 -10444.3086735,-3758950.77742 -10381.7121232,-3758966.61572 -10307.5376163,-3758984.18792 -10221.1280914,-3758922.20307 -10176.7951476,-3758796.18152 -10204.3719735,-3758725.2135 -10392.7667954,-3758672.2546 -10497.9423699,-3758569.48264 -10525.1270067,-3758432.19389 -10600.5191537,-3758057.30778 -10590.5786223,-3757904.62786 -10481.4399693,-3757858.60198 -10356.0524514,-3757893.25869 -10306.7090093,-3757980.7462 -10271.1678182,-3758101.0384 -10189.5542617,-3758178.93565 -10037.5698621,-3758174.46597 -9976.8888112,-3758130.61621 -9934.83502594,-3758030.66451 -9988.44734567,-3757916.04231 -9953.82920595,-3757809.10088 -9771.41927051,-3757717.40506 -9685.65616904,-3757531.35125 -9672.56540942,-3757415.35264 -9733.80746952,-3757332.63229 -9799.91176176,-3757179.45036 -9897.60570452,-3756992.94628 -9890.79467407,-3756872.37408 -9866.31226406,-3756652.45065 -9875.19895089,-3756490.03953 -9816.28398217,-3756320.19975 -9840.38356412,-3756249.00369 -9954.28962222,-3756256.45928 -10038.1836422,-3756288.36833 -10156.2591831,-3756323.5117 -10226.9602121,-3756252.37477 -10209.2338961,-3756108.15895 -10146.9418755,-3755978.47222 -10114.1002069,-3755920.49629 -10060.6063354,-3755911.51226 -9854.99177128,-3755976.31157 -9755.86105515,-3755998.23505 -9655.49916275,-3755932.35122 -9667.70086312,-3755844.92469 -9783.92077051,-3755782.74827 -9931.24672381,-3755629.89585 -9946.25959967,-3755514.73974 -9848.64089874,-3755433.58416 -9759.57136041,-3755336.04108 -9700.79910297,-3755190.63618 -9630.27897155,-3755083.84011 -9611.08424268,-3754729.68441 -9455.75827663,-3754509.67643 -9279.37074864,-3754341.12662 -9058.29846826,-3754249.90347 -8756.85147993,-3754335.85133 -8816.98450429,-3754056.67202 -8826.47701228,-3754014.42725 -8851.74075521,-3753658.69908 -8664.48991312,-3753534.30216 -8329.22508813,-3753653.42951 -8334.05402557,-3753453.87301 -8320.87157445,-3753270.5837 -8329.71255677,-3753131.60027 -8348.12761087,-3753029.13027 -8287.80592295,-3752956.89963 -8181.2613949,-3752947.43936 -8143.58892502,-3752982.35802 -8142.5897488,-3753134.81317 -8071.67171523,-3753186.49772 -7925.40496283,-3753212.81825 -7782.69986339,-3753177.06781 -7740.99252689,-3753094.59119 -7732.81620413,-3752907.1453 -7706.95789825,-3752826.20389 -7599.38190973,-3752798.23454 -7493.01440092,-3752770.84273 -7430.4537271,-3752732.85834 -7413.71408259,-3752642.04676 -7431.35455616,-3752581.89385 -7494.42783901,-3752528.20095 -7591.17152039,-3752493.15788 -7620.26139198,-3752421.79119 -7532.36825061,-3752313.86597 -7461.87982703,-3752259.91241 -7445.25025867,-3752152.16165 -7393.49362039,-3752025.16763 -7376.57350745,-3751975.21552 -7357.60514705,-3751914.66258 -7368.97042011,-3751824.69214 -7404.77490256,-3751791.64487 -7441.10814201,-3751758.13371 -7509.8655512,-3751777.582 -7573.08742816,-3751866.44829 -7656.17296026,-3751952.62611 -7712.0418035,-3752009.11255 -7857.54583592,-3752021.1186 -8019.28341239,-3751933.503 -8060.60877488,-3751857.95127 -8102.22611995,-3751777.93265 -8102.25251803,-3751682.23546 -8066.08276424,-3751637.00555 -8028.12244917,-3751588.66805 -7976.74623815,-3751501.57276 -7972.45261697,-3751430.01647 -8098.61863407,-3751261.32152 -8106.59660916,-3751162.15675 -8052.13139493,-3751091.80648 -7973.67059166,-3751091.16331 -7853.20776202,-3751153.56712 -7677.32444709,-3751186.92783 -7534.71613002,-3751149.69327 -7481.461478,-3751068.45738 -7530.57103559,-3750950.05155 -7583.84319477,-3750916.65026 -7706.44413544,-3750909.21318 -7774.97843945,-3750909.20728 -7922.2864982,-3750908.86792 -7938.3716166,-3750849.60933 -7885.04795088,-3750792.29333 -7615.56623686,-3750682.96776 -7512.90236395,-3750629.40512 -7484.73157197,-3750553.29827 -7490.19753451,-3750507.80032 -7560.4590505,-3750424.17118 -7959.7908571,-3750312.20655 -8142.311411,-3750268.80992 -8189.22558405,-3750180.16469 -8272.72353407,-3749794.85093 -8243.75932263,-3749669.84545 -8128.36143168,-3749620.43626 -8050.26905517,-3749522.62513 -8031.55059923,-3749427.69713 -8017.38480518,-3749335.55882 -8051.17490765,-3749268.48497 -8108.00678759,-3749237.80674 -8196.10349881,-3749319.82304 -8277.08271801,-3749373.4623 -8357.5375777,-3749393.17402 -8511.75830699,-3749515.89739 -8552.64524088,-3749473.71009 -8527.48575117,-3749374.37299 -8529.41756213,-3749283.78425 -8573.0707342,-3749206.88715 -8625.7702395,-3749090.70626 -8612.33974402,-3748979.67473 -8639.69162714,-3748885.26394 -8685.55396742,-3748827.94974 -8767.59842726,-3748823.34135 -8872.89115095,-3748848.16428 -8924.91717826,-3748860.53524 -8979.96885617,-3748834.22579 -8962.2390617,-3748762.28936 -8890.84065906,-3748699.30761 -8864.14588364,-3748615.82005 -8891.63184508,-3748572.75645 -8957.27594567,-3748376.67338 -9049.37798127,-3748260.0745 -9203.40667323,-3748198.85971 -9319.22083846,-3748013.03062 -9316.71737611,-3747910.18857 -9204.74359846,-3747789.23053 -9164.26452335,-3747642.03949 -9154.82990992,-3747576.62634 -9132.43579671,-3747408.18705 -9121.12253564,-3747115.86222 -9040.45111767,-3746962.0597 -8892.92768432,-3746927.50404 -8781.86987362,-3746933.70931 -8719.59632525,-3747013.37956 -8663.04961833,-3747119.84064 -8584.72983756,-3747101.76657 -8392.7795214,-3746778.20976 -8277.07915123,-3746569.2885 -8215.43516471,-3746479.03492 -8124.32084117,-3746443.17975 -8070.51171827,-3746469.57196 -7988.00553672,-3746595.76963 -7803.50355481,-3746761.16188 -7571.00443442,-3746871.58256 -7456.51966803,-3746983.72816 -7300.13649036,-3747012.39262 -7116.64005485,-3746918.1699 -7045.74304558,-3746797.9065 -7034.32736592,-3746675.04801 -7036.79225136,-3746614.40167 -7039.56888016,-3746430.66585 -7006.21787049,-3746307.87052 -6892.50210421,-3746267.05154 -6835.91504368,-3746232.95327 -6819.20097185,-3746107.25735 -6875.91490716,-3746028.72111 -6963.97803107,-3746012.0418 -7042.85018823,-3745975.82239 -7108.47552345,-3745905.84227 -7123.13697818,-3745765.24799 -7154.57958413,-3745726.4302 -7234.59003896,-3745772.02577 -7297.80277145,-3745800.07687 -7477.72039013,-3745720.11294 -7540.34292997,-3745703.76581 -7664.67486076,-3745776.67793 -7781.3938995,-3745786.79007 -7862.62920365,-3745760.19422 -7934.93851624,-3745618.37733 -7971.07869922,-3745519.05746 -8161.71560668,-3745377.98632 -8229.04752062,-3745285.68636 -8226.33551281,-3745166.88316 -8245.99915428,-3744877.08398 -8222.11485167,-3744807.73869 -8098.28739033,-3744742.33735 -7919.4839683,-3744755.5885 -7835.23875494,-3744782.48763 -7788.7652865,-3744849.23394 -7735.36297406,-3744953.40821 -7674.85337968,-3745002.29167 -7545.75781956,-3745013.80224 -7467.17301334,-3744923.44247 -7478.07643844,-3744806.02788 -7567.36467469,-3744682.76391 -7569.05133482,-3744611.10098 -7522.71448572,-3744538.2975 -7426.79007841,-3744457.77205 -7380.61764902,-3744325.16894 -7392.37346928,-3744179.40005 -7447.62207886,-3744001.08134 -7475.30152874,-3743874.79299 -7564.40292488,-3743796.3737 -7612.85793792,-3743798.53869 -7673.57695451,-3743899.19507 -7716.75075298,-3744039.57753 -7778.8635693,-3744084.50168 -7843.00776437,-3744056.28991 -7899.53248799,-3743797.30806 -7962.92403903,-3743692.78759 -8042.93859818,-3743692.52595 -8087.57290962,-3743741.79215 -8108.34758141,-3743904.63828 -8139.63379594,-3743990.41575 -8206.51498608,-3744061.56958 -8300.523862,-3744060.72633 -8370.64804894,-3743979.07409 -8345.0150776,-3743902.13852 -8230.36947665,-3743802.9465 -8221.11474578,-3743727.0799 -8258.15733836,-3743659.71697 -8373.9074374,-3743650.32315 -8454.54913666,-3743625.18083 -8500.69794955,-3743563.39606 -8627.20943001,-3743431.09313 -8690.93289074,-3743420.79637 -8780.2271171,-3743431.10845 -8904.03549891,-3743504.48143 -8991.41090012,-3743467.81559 -9026.67681013,-3743278.71766 -9142.12866169,-3743174.60071 -9452.78068257,-3742893.81206 -9421.90280076,-3742782.63979 -9331.28024136,-3742781.21381 -9224.10592269,-3742808.11578 -9090.3993179,-3742871.1678 -8967.09318266,-3742977.26495 -8845.87140917,-3743001.75463 -8775.14626983,-3742974.21262 -8729.74412699,-3742955.7992 -8704.08823384,-3742875.37317 -8749.88009938,-3742830.51105 -8849.23134526,-3742793.6288 -8919.94774305,-3742721.98177 -8958.14419901,-3742652.20063 -8967.07894352,-3742595.46358 -8990.2993436,-3742522.21322 -9039.60912593,-3742438.70223 -9147.3874115,-3742394.89233 -9164.75931066,-3742350.16945 -9135.78981048,-3742289.96287 -9057.47921575,-3742233.51603 -8872.36180762,-3742228.91774 -8736.08983128,-3742174.67175 -8632.5213536,-3742108.10459 -8471.00262619,-3742005.35994 -8354.18460989,-3741985.27989 -8282.53139777,-3742002.53724 -8204.43733115,-3741958.06787 -8185.5346577,-3741858.14637 -8206.62858338,-3741687.56469 -8196.00100545,-3741579.21128 -8126.12818562,-3741454.53356 -8038.12881184,-3741309.73386 -7995.21844798,-3741184.32289 -7961.26227405,-3740971.27476 -7899.22182605,-3740864.05539 -7821.4829515,-3740779.73699 -7721.17366822,-3740770.20588 -7648.30265387,-3740813.80138 -7558.4495392,-3740884.6995 -7414.87559699,-3740892.78238 -7255.87262196,-3740847.02669 -7164.2824383,-3740871.95649 -7039.85060845,-3740972.4979 -6912.450059,-3740896.90424 -6788.09237656,-3740831.97602 -6594.83611403,-3740856.75584 -6318.60051182,-3740843.22959 -6200.86901183,-3740818.10854 -6108.59978272,-3740773.21618 -6042.53660572,-3740674.21081 -6056.19449158,-3740602.33353 -6127.75858346,-3740594.04092 -6208.67665125,-3740568.41539 -6289.15289998,-3740568.67837 -6288.04059061,-3740509.29489 -6253.49280167,-3740458.1981" style="stroke-linejoin:round;stroke:#000;stroke-width:1px;fill:none" /></g></g></svg>