<svg xmlns="http://www.w3.org/2000/svg" baseProfile="full" height="97456.3792885" version="1.1" viewBox="36172.536435,3631015.409579,105220.713661,97456.379288" width="105220.713661"><defs><style type="text/css">polyline,line,rect,path,polygon,.polygon{fill:none;stroke:#000;stroke-width:1px;stroke-linejoin:round;}</style></defs><g fill_rule="evenodd" transform="scale(1,-1)"><g class="id" id="30113"><polygon class="_30113" id="None" points="105397.412113,-3631691.55872 105482.340413,-3631728.75925 105619.800424,-3631770.56801 105643.707875,-3631848.43438 105672.316824,-3631939.48832 105659.7607,-3631996.93409 105726.175522,-3632041.61502 105810.722641,-3632048.96091 105858.171898,-3632111.10551 105939.278189,-3632137.55924 105947.164789,-3632213.80797 105900.541457,-3632253.69027 105872.077713,-3632357.31213 105925.526495,-3632456.47299 105974.551385,-3632515.54389 106007.078188,-3632555.09892 106178.617907,-3632678.69792 106344.134741,-3632659.72486 106535.521938,-3632612.95388 106805.944384,-3632568.35139 107008.834418,-3632568.25519 107200.87371,-3632579.20583 107381.000808,-3632613.70848 107554.818798,-3632642.08187 107793.466478,-3632699.78521 108067.69329,-3632752.56284 108247.294983,-3632836.88213 108437.171244,-3632931.59482 108584.60071,-3633005.71611 108764.122892,-3633111.44733 108912.014333,-3633216.9094 109007.157461,-3633290.89035 109207.582179,-3633396.47699 109250.134508,-3633446.43662 109333.889998,-3633544.43764 109424.460572,-3633561.90811 109511.949196,-3633573.07398 109620.925736,-3633681.64943 109803.907197,-3633645.29279 109887.485973,-3633676.08869 109936.001424,-3633693.85849 109972.313171,-3633802.9068 109962.437295,-3633909.49276 110068.785303,-3634129.73434 110237.823148,-3634212.13271 110361.303303,-3634321.90682 110392.790525,-3634456.60849 110491.623382,-3634456.69927 110541.177374,-3634456.98609 110602.607612,-3634570.14061 110634.135675,-3634614.22668 110753.622703,-3634614.18733 110886.581257,-3634678.63477 110928.661572,-3634783.88132 111093.598585,-3634804.7644 111243.656555,-3634735.3486 111342.586762,-3634746.3866 111352.41084,-3634844.42868 111509.967869,-3634880.64955 111570.413491,-3634802.17768 111744.904964,-3634756.32394 111851.478722,-3634866.51758 111957.529049,-3634976.2415 112070.346574,-3635127.9143 112132.332701,-3635210.16759 112183.908843,-3635279.54594 112152.885485,-3635386.28533 112127.314138,-3635474.30682 112239.913222,-3635571.72356 112277.298816,-3635604.53567 112370.229829,-3635628.8433 112461.396309,-3635652.74918 112587.726243,-3635618.48033 112671.243304,-3635652.76023 112693.618903,-3635720.74231 112660.264708,-3635789.27326 112708.776958,-3635861.80466 112916.169783,-3635807.68271 112987.111606,-3635789.37747 113072.225573,-3635825.56123 113138.234578,-3635990.73427 113267.645952,-3636095.19729 113314.020048,-3636128.51411 113460.957283,-3636056.77814 113582.946192,-3636111.86033 113798.473125,-3636188.72602 113854.399377,-3636237.45269 113967.962067,-3636334.31466 114169.435887,-3636427.37839 114350.228793,-3636520.07565 114452.313044,-3636516.00266 114585.335516,-3636431.08618 114768.379605,-3636478.3567 114828.157742,-3636588.60407 115009.111275,-3636684.27797 115164.790224,-3636823.14769 115297.231442,-3636873.67389 115399.497861,-3636987.07889 115522.06511,-3637121.28093 115659.432756,-3637262.14265 115766.951572,-3637389.69687 115889.518962,-3637523.89724 115987.363636,-3637674.87829 116085.429631,-3637825.34895 116126.866046,-3637859.42994 116371.246166,-3637917.78554 116551.839971,-3637929.34018 116626.878816,-3637972.53981 116704.345401,-3638041.99147 116840.709978,-3638109.72319 116883.206264,-3638131.30019 117002.717196,-3638177.54908 117061.232048,-3638228.1212 117104.048713,-3638260.13475 117185.056544,-3638289.56677 117334.198617,-3638345.15041 117392.658724,-3638367.34951 117468.179407,-3638396.58279 117611.992114,-3638459.42603 117748.611646,-3638490.80136 117830.602041,-3638501.76002 117873.927936,-3638520.3042 117976.069896,-3638563.01884 118157.525015,-3638563.07432 118302.954704,-3638550.65896 118435.864487,-3638623.5541 118526.795014,-3638766.44128 118710.925238,-3638820.11307 118900.73057,-3638850.07803 119091.252706,-3638879.50585 119281.801321,-3638909.42981 119503.066428,-3638909.30282 119647.144863,-3638949.72701 119804.54146,-3639129.30501 119956.939575,-3639176.24352 120131.03427,-3639337.98364 120300.433945,-3639422.82123 120422.043994,-3639544.11643 120518.343573,-3639580.17705 120760.932267,-3639592.32374 120966.771391,-3639628.87649 121020.756256,-3639628.41887 121081.247244,-3639628.60171 121157.150765,-3639628.4411 121448.274997,-3639626.98697 121496.088038,-3639650.26196 121573.774551,-3639687.3376 121774.157886,-3639888.45456 121842.076384,-3639933.52958 122072.970989,-3640087.18363 122512.605154,-3640380.76432 122726.470316,-3640523.39797 123034.242351,-3640662.89443 125120.29215,-3641582.33393 125379.200092,-3641930.05814 125828.437499,-3642554.58205 126318.55589,-3643216.68209 126437.731547,-3643402.79608 126453.634233,-3643620.93344 126469.041474,-3643839.0978 126485.414926,-3644056.71154 126501.320056,-3644274.84855 126516.729743,-3644493.01257 126533.601892,-3644710.59883 126549.509467,-3644928.73549 126651.890947,-3645126.21631 126754.742043,-3645323.17305 126857.097374,-3645520.15622 126959.480335,-3645717.63496 127063.352552,-3645915.03159 127165.213108,-3646112.03983 127267.570411,-3646309.02024 127370.947853,-3646506.44191 127473.829538,-3646703.89003 127576.68457,-3646900.84121 127679.043847,-3647097.81884 127781.430769,-3647295.29203 127884.314435,-3647492.73737 127987.171443,-3647689.68577 128089.036456,-3647886.68779 128192.914096,-3648084.07673 128295.799745,-3648281.51929 128397.666248,-3648478.51924 128500.525729,-3648675.46417 128603.41287,-3648872.90464 128705.80427,-3649070.37159 128809.161477,-3649267.28726 128911.526705,-3649464.25659 129013.919601,-3649661.72145 129116.809233,-3649859.15845 129219.67219,-3650056.09852 129321.543178,-3650253.09225 129400.929173,-3650403.03793 129425.453948,-3650450.96905 129604.165443,-3650424.25888 129783.399802,-3650398.01793 129848.654372,-3650253.59039 129914.847331,-3650108.11637 129979.606241,-3649963.71666 129935.713131,-3649798.3902 129891.793293,-3649632.56726 129847.377672,-3649466.77125 129910.439433,-3649309.52453 129972.509094,-3649152.33248 130183.367233,-3649085.54275 130393.259392,-3649019.30404 130550.495113,-3648991.2857 130697.88749,-3648965.29947 130859.360085,-3649014.6917 131010.962236,-3649065.61939 131163.087421,-3649117.01586 131183.787489,-3649222.3913 131190.164563,-3649347.96132 131226.043213,-3649466.93903 131232.447985,-3649593.00515 131239.349248,-3649719.04408 131358.917598,-3649875.74356 131477.935573,-3650031.47715 131596.015654,-3650188.25686 131711.504353,-3650170.4851 131827.51621,-3650153.18244 131929.276369,-3650275.51814 132030.540404,-3650397.88058 131988.800824,-3650544.49898 132127.887504,-3650594.11626 132191.037221,-3650811.13693 132334.542792,-3650814.22566 132478.571392,-3650817.7834 132520.583151,-3650957.82256 132653.510908,-3650985.87722 132744.286756,-3651125.73296 132932.631984,-3651175.13807 133094.407624,-3651112.02763 133255.488954,-3651090.76129 133374.400009,-3651062.84678 133388.121609,-3651213.39174 133402.339797,-3651363.90944 133556.064729,-3651444.57319 133710.258378,-3651524.71313 133839.119341,-3651496.75042 133968.972411,-3651468.73345 134046.139798,-3651560.06038 134122.287662,-3651650.94524 134238.593155,-3651675.42893 134353.409858,-3651699.99407 134381.474824,-3651839.79692 134410.063496,-3651980.06863 134584.143951,-3652078.02779 134570.951656,-3652245.97006 134703.71276,-3652343.70417 134731.894616,-3652476.53209 134759.607778,-3652609.88326 134920.829136,-3652763.78652 135081.554286,-3652917.71612 135164.173917,-3653017.69863 135247.785969,-3653117.62645 135227.745123,-3653269.51951 135207.704671,-3653421.41268 135297.817734,-3653603.5969 135301.970403,-3653806.41911 135305.62761,-3654009.26851 135337.123073,-3654138.92675 135368.618815,-3654268.58485 135315.873232,-3654404.85322 135263.624099,-3654541.09463 135315.465935,-3654705.96693 135368.273348,-3654870.28834 135374.685345,-3655041.63331 135382.586389,-3655212.89661 135438.213007,-3655328.78871 135494.308769,-3655444.1572 135496.35334,-3655635.64829 135498.371328,-3655826.6432 135501.409531,-3656018.07984 135633.817756,-3656154.64159 135767.191138,-3656290.65208 135805.54706,-3656472.68482 135844.399714,-3656654.69009 135752.698333,-3656770.20512 135808.415493,-3656878.62517 135853.516079,-3656911.48442 135988.747575,-3656909.03919 136091.122942,-3656988.02385 136198.750885,-3657126.43981 136305.828333,-3657263.89015 136191.711183,-3657433.3884 136253.017358,-3657552.94655 136315.812231,-3657672.42274 136453.056115,-3657751.97974 136661.998867,-3657823.12115 136861.311447,-3657909.22285 136859.229477,-3658016.33418 136975.639908,-3658214.97873 137091.003996,-3658412.68464 137284.753524,-3658533.42742 137338.951183,-3658650.38663 137415.605483,-3658822.84522 137611.975281,-3659027.54567 137801.040028,-3659189.84776 137886.557431,-3659251.83627 137970.880461,-3659328.3221 138017.518181,-3659371.04675 138113.906795,-3659458.81311 138279.234773,-3659451.72248 138341.905792,-3659596.08175 138460.572069,-3659672.67048 138575.416396,-3659734.04178 138700.107316,-3659784.42134 138846.983275,-3659794.76563 139002.71282,-3659839.4585 139109.6721,-3659947.54273 139324.676423,-3660011.37229 139478.163759,-3660114.90872 139665.377477,-3660234.50653 139831.229635,-3660354.7796 140005.668524,-3660450.19602 140177.691744,-3660528.82502 140364.080601,-3660597.20912 140481.070586,-3660706.72858 140522.58785,-3660737.7884 140620.664499,-3660811.02439 140712.809413,-3660894.04106 140822.989802,-3661006.42161 140996.717919,-3661088.93499 140922.499125,-3661359.24469 140421.374108,-3662535.82161 140357.291401,-3662682.66357 140288.766005,-3662839.20524 140227.774886,-3662978.91104 140159.212817,-3663152.87274 139848.512919,-3663882.57806 139837.688336,-3664020.52187 139818.694178,-3664435.1051 139801.287573,-3664824.22188 139775.343924,-3665257.10366 139777.186521,-3665317.71441 139822.804036,-3666390.60545 139879.031769,-3667737.11283 140111.909082,-3669949.73576 140068.760694,-3670042.68467 140019.295475,-3670147.42767 140017.510155,-3670196.29504 140007.317521,-3670823.88687 139332.835241,-3671542.85023 139117.089269,-3671772.71817 138522.023243,-3672406.70313 138643.596287,-3673058.89505 138581.741807,-3673137.45369 138465.724964,-3673289.66818 138227.631778,-3673583.48485 138074.301652,-3673790.01469 138032.136001,-3673846.58664 137897.621903,-3674006.29448 137592.363625,-3674282.42421 137530.471163,-3674315.20233 137477.235653,-3674342.52606 137360.359529,-3674434.07778 137382.082024,-3674656.33238 137331.206596,-3674789.5299 137289.044512,-3674837.1451 137247.874751,-3674884.7056 137058.124528,-3674963.36061 136859.27743,-3675120.65308 136781.009489,-3675316.57851 136818.610126,-3675465.79591 136858.947436,-3675673.58766 136766.374899,-3675952.91805 136775.032385,-3676109.70557 136774.436035,-3676161.99447 136754.060493,-3676261.65949 136748.635316,-3676496.86231 136719.372058,-3676805.04735 136580.382785,-3677009.80453 136380.674738,-3677025.31451 136253.054762,-3677102.53666 136249.424625,-3677162.95662 136237.081948,-3677317.91968 136144.196001,-3677474.34618 135973.170937,-3677522.61342 135911.801582,-3677645.94568 135786.804729,-3677707.59662 135726.022202,-3677895.59633 135502.226368,-3677979.62812 134678.709048,-3677667.28505 134108.460884,-3677507.17361 133661.767139,-3678763.66857 133646.575949,-3678867.03539 133603.252915,-3679118.7803 133565.879988,-3679487.15789 133501.068614,-3680106.40464 133449.782728,-3680574.09983 133335.365246,-3681637.06537 133231.713133,-3682597.41055 133041.211563,-3684398.23234 133001.70466,-3684709.50144 132860.391309,-3685833.708 132693.708685,-3687155.43059 133795.379914,-3687401.97566 133842.185373,-3687411.32711 133773.997386,-3687537.04532 133751.205407,-3687700.5629 133547.51361,-3687958.71797 133283.776869,-3689189.75862 133152.538038,-3689668.37621 132566.614987,-3691963.53347 132474.688959,-3692271.25387 132431.868667,-3692432.40604 132360.690996,-3692441.33364 131628.846885,-3692420.23097 130992.266703,-3692393.83974 130930.721462,-3692657.07705 130905.574031,-3692768.97177 130856.875997,-3693048.42026 130943.277275,-3693573.72126 130897.03973,-3693762.94238 130832.082068,-3694027.36734 130634.774358,-3694265.79326 130540.435094,-3694377.5499 130262.849089,-3694676.18456 130150.783725,-3694791.41582 130369.27921,-3695275.04068 130040.557419,-3695925.44726 130200.534078,-3696018.59887 130383.116126,-3696124.43102 130258.427965,-3696290.14188 130082.657311,-3696521.90675 129753.997874,-3696958.2858 129383.216595,-3697451.76492 128803.256546,-3698220.69554 128295.635571,-3698894.02931 127272.516658,-3700251.12719 127042.168819,-3700557.63406 126727.48515,-3700502.46354 126024.141712,-3700377.81679 125246.956103,-3700241.34371 123521.668363,-3699943.53916 121492.155204,-3699591.93577 121402.186541,-3699576.52759 120818.806987,-3699475.04947 120791.710261,-3699614.45704 120712.434221,-3700024.10553 120424.903089,-3701527.1492 120403.543731,-3701639.8544 120158.792662,-3702922.48127 119871.370469,-3704520.149 119609.452084,-3705672.33099 119320.712882,-3707227.29513 119165.32696,-3708070.37017 119064.78841,-3708740.62164 118986.451141,-3709268.74269 118942.53491,-3709565.92789 118832.514687,-3710302.43437 118822.96159,-3710367.69003 119099.937115,-3711053.23276 119116.987984,-3711095.59565 119276.599022,-3711488.96398 119723.164257,-3712590.20604 120297.119031,-3714006.43516 119579.863135,-3715052.18513 120299.863307,-3715828.95087 119464.477014,-3716693.63432 118060.561818,-3718106.93137 116392.049674,-3719939.39153 113265.520007,-3720373.22247 111565.552524,-3720608.74733 110772.537735,-3720719.34084 110623.072391,-3720740.15174 110229.691135,-3720798.01287 110196.32543,-3720949.26568 109437.779982,-3721235.70643 109380.809663,-3721254.33088 108921.018377,-3721402.557 108494.452069,-3721539.46427 107371.755643,-3721766.12046 106988.499585,-3722694.88998 106482.596654,-3723923.35727 106002.607221,-3723840.17643 105263.331812,-3723702.28856 105100.20734,-3723804.0492 104960.407315,-3724140.05908 104798.345136,-3724211.88173 104708.47612,-3724252.27208 104426.584309,-3724349.72931 104092.498068,-3724488.95464 103860.966018,-3724520.84406 103700.656437,-3724632.90946 103586.648144,-3724789.19583 103542.561309,-3725011.28903 103541.706061,-3725133.8485 103501.738624,-3725313.87832 103376.786373,-3725359.22404 103296.357949,-3725359.24666 103226.134658,-3725359.19569 103100.278423,-3725419.53281 102986.792145,-3725509.55649 102864.737598,-3725499.95824 102759.702463,-3725371.87357 102616.723765,-3725264.34038 102536.751327,-3725299.19877 102461.423923,-3725359.19629 102446.811123,-3725493.98318 102476.481863,-3725659.15937 102472.528276,-3725819.74464 101684.087558,-3725640.79138 98789.8088347,-3724824.22213 98705.8593601,-3725112.81327 97546.4047688,-3724833.07748 97345.4867677,-3724785.05696 95245.7606808,-3725512.76424 94014.2029392,-3727948.6701 93941.6421451,-3727929.32532 91018.4509957,-3727137.22112 88166.2269892,-3726195.58762 88277.037344,-3726101.71054 88359.4855819,-3725941.67489 88408.4973712,-3725847.27337 88408.1415644,-3725725.24946 88375.5540198,-3725387.84187 88286.6256972,-3725231.92131 88309.4515576,-3725190.29442 88420.9888745,-3724984.79622 88485.4959973,-3724864.6217 88552.0581126,-3724843.46141 88682.4787428,-3724801.79038 88683.03278,-3724740.48884 88684.4301963,-3724583.00021 88658.3212869,-3724490.31406 88549.4501081,-3724471.99844 88472.8762888,-3724567.94084 88393.0487657,-3724668.05069 88290.9123652,-3724658.82289 88246.8240481,-3724654.31646 88216.3403716,-3724523.51786 88174.4433656,-3724344.5404 88137.8357693,-3724282.32921 88021.9318777,-3724271.87855 87825.4673677,-3724326.211 87735.0688368,-3724281.95379 87726.0340471,-3724111.59693 87774.4127627,-3723943.50712 87929.3843857,-3723819.76559 87961.3756354,-3723790.57795 88048.4403984,-3723708.49507 88317.3905218,-3723752.22694 88415.232311,-3723715.86806 88415.8187809,-3723664.02921 88324.8346656,-3723600.37717 88215.3450944,-3723553.20253 88041.8079809,-3723398.52633 87931.7451082,-3723296.58791 87954.8605935,-3723215.59264 88146.216962,-3723221.32605 88356.3716299,-3723255.89575 88371.7968773,-3723193.26409 88363.8863617,-3723140.90436 88283.3848488,-3723073.17823 88233.7094875,-3723031.12495 88170.7272245,-3722964.90919 88110.8911474,-3722901.50612 88092.7113093,-3722759.05981 88150.3313752,-3722653.71896 88263.7916716,-3722478.00687 88198.175964,-3722302.34832 88152.3166416,-3722208.27499 88049.8147023,-3722179.13812 87978.2151766,-3722159.23189 87874.7198239,-3722130.15038 87799.8728118,-3722132.34367 87699.3752368,-3722228.12709 87660.8753604,-3722265.64812 87499.1975655,-3722318.52664 87396.3878326,-3722355.16129 87362.9403508,-3722402.86097 87329.2445872,-3722450.57458 87278.7280676,-3722446.92409 87195.8220989,-3722443.09253 87161.7334797,-3722399.16991 87122.3162664,-3722344.5861 87090.2675707,-3722221.34446 87171.260411,-3722124.16036 87260.3146924,-3722041.9681 87268.2796279,-3721943.8869 87179.8410524,-3721899.01826 86991.79185,-3721890.10639 86928.8865041,-3721883.16301 86912.7997398,-3721800.37433 86964.8407141,-3721746.65362 87000.2917517,-3721667.9572 86947.8788778,-3721608.12181 86910.2479032,-3721532.01735 86894.2870488,-3721491.56383 86874.8833112,-3721389.53293 86928.6642922,-3721340.19861 86989.3237422,-3721315.88508 87054.1486239,-3721290.34243 87137.7819827,-3721244.81885 87171.8380677,-3721199.07834 87223.642985,-3721101.03708 87241.6733822,-3720906.75053 87215.1564012,-3720735.3782 87147.6742925,-3720655.46288 87106.1845047,-3720586.04985 87009.5827417,-3720466.41621 86945.1879753,-3720459.55468 86885.7172566,-3720491.77115 86821.6906103,-3720593.9824 86765.2641021,-3720653.92494 86698.1377075,-3720727.41748 86595.2427295,-3720682.35852 86566.6563971,-3720589.807 86538.6500671,-3720498.71743 86482.2113538,-3720442.59279 86425.7448952,-3720385.97146 86422.6316294,-3720316.90316 86420.2355775,-3720247.29663 86439.2659521,-3720146.60383 86528.2523643,-3720098.78987 86618.2596096,-3720051.41711 86673.5984511,-3719954.17512 86784.0484838,-3719737.78615 87040.1081541,-3719760.33874 87499.1493513,-3719738.17192 87407.0939175,-3719338.82915 87368.984317,-3719222.9002 87371.9423057,-3719155.48643 87421.9330413,-3719069.50435 87477.590462,-3719018.07532 87543.0394155,-3718959.1254 87563.9024601,-3718891.20961 87546.3606629,-3718817.96759 87495.3939337,-3718783.95313 87426.0398271,-3718795.30001 87371.9203929,-3718825.22305 87328.3651441,-3718848.08012 87095.5762534,-3719036.92927 86802.4744282,-3719042.34681 86743.4797059,-3719011.7694 86684.016103,-3718981.71626 86695.554871,-3718827.14571 86706.0758747,-3718681.10054 86721.6213795,-3718544.73762 86730.0136009,-3718472.03832 86740.5241128,-3718379.2951 86818.40603,-3718284.28291 86854.4533991,-3718247.39948 86933.0856493,-3718170.27874 86982.4177704,-3718090.3116 87031.9704972,-3718009.83413 87027.4268971,-3717946.32626 87024.0192402,-3717898.69535 86945.4258572,-3717829.36069 86893.5730839,-3717783.9374 86808.4949644,-3717709.98324 86752.4475811,-3717660.8089 86693.530272,-3717609.30405 86597.5230026,-3717616.16046 86522.4002096,-3717622.34862 86405.0946226,-3717631.39081 86308.3697443,-3717638.78543 86229.0255395,-3717645.20935 86130.0657022,-3717652.72879 86036.9539252,-3717657.92903 85949.6360792,-3717664.30012 85900.9498746,-3717599.76943 85823.0913781,-3717499.00866 85756.1342937,-3717410.59069 85692.1027026,-3717325.49621 85661.9359572,-3717284.83825 85612.3967235,-3717227.3287 85548.521774,-3717207.48259 85488.9233371,-3717188.39393 85434.1487249,-3717251.23055 85482.0021816,-3717394.51612 85552.5137091,-3717466.29711 85621.0098244,-3717533.20901 85743.1491161,-3717632.99155 85768.0581436,-3717713.29663 85705.0864454,-3717763.14137 85627.5548587,-3717744.05855 85545.0851239,-3717632.09752 85409.981913,-3717639.14461 85246.5984756,-3717643.78586 85075.6650532,-3717682.72313 84951.0926221,-3717664.27439 84909.7495884,-3717521.62036 84929.5461074,-3717381.0317 84764.6221416,-3717309.04222 84606.7654493,-3717350.23732 84564.5840546,-3717362.05778 84427.0878458,-3717402.11609 84212.641428,-3717339.86546 83894.2118044,-3717195.24599 83545.1470193,-3717117.59489 83379.78503,-3717069.0408 83243.7029212,-3717045.25442 83044.8610225,-3717052.86944 82775.2233389,-3717068.42256 82533.3387512,-3717076.94616 82391.3143767,-3717022.60417 82201.9389162,-3716949.9822 81987.9460584,-3716855.81797 81889.9099428,-3716835.386 81830.4481325,-3716823.26215 81648.3751091,-3716823.46336 81541.3859849,-3716856.83624 81394.3781364,-3716949.73425 81301.4823277,-3716963.38966 81232.5439313,-3716906.46016 81124.3616167,-3716815.85221 81054.4770138,-3716831.21188 80981.4702454,-3716830.80396 80909.9050277,-3716753.59504 80868.0066883,-3716699.14091 80782.9948287,-3716688.94106 80760.0927751,-3716787.36586 80694.577484,-3716840.84197 80609.0180952,-3716847.61119 80550.5495799,-3716839.91514 80456.459087,-3716827.73124 80301.9312675,-3716875.21668 80084.4993204,-3716942.65435 79950.0255212,-3716871.94532 79963.5785988,-3716686.35928 80013.1301446,-3716570.00542 79996.914828,-3716498.17455 79861.1655919,-3716507.24659 79719.574904,-3716442.91197 79676.9875474,-3716286.86335 79639.1452911,-3716126.56419 79456.089057,-3716082.47777 79264.6401703,-3716021.92071 79155.1637025,-3715948.319 79141.0940172,-3715847.97006 79251.0695527,-3715711.8032 79313.9599319,-3715633.56413 79287.6197383,-3715563.29376 79250.8843059,-3715521.00423 79155.4653948,-3715498.42981 78941.6180221,-3715576.62339 78839.4915984,-3715545.45555 78807.1007107,-3715442.64105 78814.4824946,-3715275.83044 78759.000891,-3715187.75559 78671.4544456,-3715203.60078 78545.4833054,-3715267.42452 78347.1277956,-3715292.9401 78114.510501,-3715240.15643 77791.0770671,-3715037.49678 77552.666523,-3714760.34234 77464.0130327,-3714528.63861 77438.6760099,-3714253.04764 77334.4971136,-3714055.58904 77257.4804555,-3714032.48314 77192.0145446,-3714086.95202 77155.5986286,-3714117.38119 77096.2213654,-3714254.21379 77013.1100816,-3714371.94386 76870.1186031,-3714474.58058 76802.2391977,-3714472.38843 76663.6653689,-3714466.66646 76536.6638249,-3714387.06109 76402.2061147,-3714280.96753 76254.110652,-3714144.74462 76216.6024206,-3713976.94415 76164.1763193,-3713854.31698 76093.603661,-3713777.04313 75976.7829661,-3713692.38387 75841.7809513,-3713621.19371 75743.691574,-3713515.06215 75639.157503,-3713467.58164 75536.226909,-3713435.45645 75489.1633639,-3713355.37578 75457.6807785,-3713228.58964 75361.6505921,-3713070.02852 75298.2568407,-3713014.27444 75219.1765347,-3713030.14279 75052.3477963,-3713044.92493 74981.2033839,-3713006.54235 74885.3470939,-3713029.82301 74854.2695817,-3713133.69246 74767.6911778,-3713189.33912 74689.2516998,-3713239.05158 74568.1847816,-3713315.05607 74408.774179,-3713315.47473 74366.7459585,-3713303.36944 74256.8044418,-3713270.63747 74164.2280315,-3713142.77099 74106.2395417,-3713076.74968 74044.7062546,-3713085.66102 73932.3505078,-3713125.80536 73671.3003934,-3713086.05234 73663.7580638,-3713040.13679 73766.2367628,-3713006.0238 73830.2493823,-3712974.5537 73849.9117979,-3712911.67626 73846.2799157,-3712824.18929 73782.4082534,-3712728.60119 73814.3412131,-3712617.70739 73886.1876808,-3712570.35575 74007.8449853,-3712540.65505 74066.8595473,-3712491.02953 74021.2805694,-3712379.47484 73941.279012,-3712347.56331 73886.734445,-3712396.93958 73782.383077,-3712451.08532 73703.3267665,-3712458.48166 73658.2485248,-3712369.319 73592.2406668,-3712208.58031 73483.4173363,-3712106.52858 73385.357634,-3712014.33957 73227.3345408,-3711919.01521 73015.8126639,-3711865.03652 72818.8312808,-3711803.76984 72663.3246852,-3711744.67545 72534.9170969,-3711532.60426 72448.2458822,-3711394.43799 72227.3198897,-3711220.90325 72075.9260985,-3711173.03726 71956.8798823,-3711164.72318 71816.2536328,-3711153.62548 71687.3798145,-3711125.43058 71559.9704015,-3711110.10847 71392.2799752,-3710975.45707 71283.7967972,-3710763.26655 71202.9149161,-3710585.91024 71023.9786083,-3710352.23232 70766.2878224,-3710135.89461 70591.407694,-3709894.51412 70472.9947619,-3709696.32547 70469.4776812,-3709606.33668 70458.3121062,-3709276.11543 70393.4328042,-3709260.79465 70321.9896011,-3709275.2366 70281.5015202,-3709442.91327 70227.3792683,-3709593.91046 70173.8495676,-3709836.0566 70115.9480046,-3709990.75285 70042.4095826,-3710021.25673 69955.8315644,-3709951.83798 69908.573755,-3709854.81765 69856.9153171,-3709862.1792 69821.3544729,-3709934.9132 69901.4823219,-3710054.01942 69917.421286,-3710165.739 69869.4941634,-3710213.25229 69747.0573074,-3710255.9473 69543.3754977,-3710284.73219 69321.4960381,-3710237.29934 69210.9883635,-3710149.78034 69146.4228738,-3710023.82677 69146.4511306,-3709831.99182 69131.0850728,-3709667.92079 69082.9131505,-3709545.53818 68987.9195881,-3709490.53781 68863.5136062,-3709475.54199 68758.4798829,-3709459.46727 68670.9199165,-3709484.27421 68587.0967031,-3709594.07768 68512.1214239,-3709625.65808 68464.5132583,-3709593.92854 68436.1580771,-3709491.86674 68441.5144982,-3709301.72631 68512.952343,-3709228.98665 68598.9048894,-3709148.46311 68575.5810347,-3709109.9001 68502.9175874,-3709093.51702 68425.0400643,-3709090.87758 68282.0067731,-3709085.88683 68215.9213699,-3709151.85092 68179.1231292,-3709273.98426 68130.4523464,-3709348.44616 68030.085805,-3709366.99032 67924.649862,-3709451.09114 67896.9838868,-3709553.78214 67836.5226015,-3709577.57854 67773.7358167,-3709546.19555 67683.1763717,-3709436.63438 67623.5762284,-3709292.46252 67512.0196536,-3709212.97019 67489.9880904,-3709139.45489 67458.1329909,-3709072.96418 67377.7035624,-3708975.29487 67250.0636888,-3708942.5391 67170.5074043,-3708990.31921 67146.5088433,-3709078.35665 67162.2249834,-3709186.10726 67163.6509809,-3709332.52308 67059.7071557,-3709443.449 66912.6478085,-3709487.0163 66847.1863408,-3709479.201 66750.5946128,-3709467.13974 66646.0421492,-3709356.86082 66567.6362047,-3709340.29863 66444.3060847,-3709358.12837 66345.7099937,-3709430.88759 66289.8360485,-3709514.72187 66309.7759576,-3709626.72337 66368.7385602,-3709737.04998 66400.2387887,-3709823.99133 66346.2158773,-3709918.68528 66247.3289084,-3709878.84797 66215.2717786,-3709960.85815 66170.3305725,-3710070.99204 65988.2231711,-3710133.95336 65876.7454316,-3710252.77654 65799.3681983,-3710299.44122 65757.8923871,-3710324.17458 65607.2278713,-3710262.80464 65537.2897263,-3710223.84636 65428.3359411,-3710240.37881 65197.2425757,-3710515.35524 65028.3914002,-3710467.45545 64948.261964,-3710379.73269 64916.772602,-3710181.16923 64797.3470285,-3710117.06149 64734.2683407,-3709991.01572 64631.2785277,-3710038.60874 64423.8911667,-3710135.3685 64307.3702592,-3710127.90519 64237.3527285,-3710123.33336 64154.832959,-3710117.96285 64041.0100934,-3710065.00308 63944.9053613,-3710012.55133 63845.4025999,-3709934.87484 63771.9973921,-3709775.5169 63717.8154665,-3709728.703 63464.0352985,-3709855.95148 63383.3173976,-3709918.74897 63238.3714426,-3709937.78345 63154.0252258,-3709904.11018 63090.3423065,-3709807.49505 63010.4957804,-3709783.03895 62981.4701436,-3709847.94136 63058.3772022,-3709976.21075 63014.9259521,-3710104.2061 62900.5982711,-3710212.22961 62789.4044359,-3710228.88674 62658.1101175,-3710184.37341 62574.5557698,-3710093.34916 62527.9244517,-3709967.37944 62480.3937754,-3709928.16734 62407.9981584,-3709903.29613 62313.0900346,-3709943.9619 62233.9416454,-3709990.22837 62146.5298666,-3709950.74526 62042.952996,-3709974.45261 61927.049289,-3710076.58507 61905.6440468,-3710166.47887 61891.6040953,-3710227.55806 61816.4831355,-3710261.1427 61767.6045294,-3710260.37644 61679.0612354,-3710227.43454 61575.5571358,-3710180.87418 61496.1312702,-3710222.17352 61441.2187115,-3710300.97745 61440.1891387,-3710443.55679 61400.7061121,-3710530.96996 61337.5285072,-3710515.05366 61274.1203701,-3710427.88895 61184.5286098,-3710402.97859 61134.0557445,-3710454.12758 61099.0663854,-3710505.90933 61075.1982742,-3710547.10513 61043.2167453,-3710594.73282 60972.1485272,-3710602.67752 60917.1109923,-3710576.3411 60868.5323405,-3710554.12993 60789.0363497,-3710491.28219 60716.0251168,-3710419.60146 60614.7092253,-3710443.68217 60565.7521287,-3710481.79043 60527.7570435,-3710555.66678 60527.2830429,-3710721.63908 60424.2092039,-3710808.11033 60336.8032309,-3710831.41697 60297.5770632,-3710784.76459 60297.2621365,-3710703.05471 60306.2179965,-3710599.89834 60275.1085792,-3710569.23893 60209.0531034,-3710506.14034 60113.3064259,-3710491.53898 59996.149154,-3710530.95395 59899.6082731,-3710564.7358 59837.1677925,-3710499.4421 59717.6788017,-3710443.30534 59607.3382626,-3710484.33409 59502.3330869,-3710589.85052 59451.3602705,-3710627.57334 59305.3515924,-3710609.7908 59191.6650407,-3710608.64691 59122.1791082,-3710698.73063 59042.8443974,-3710822.254 58995.3815962,-3710896.16116 58876.8690703,-3710929.17419 58841.7101221,-3710960.03663 58759.2776154,-3711036.88851 58724.7280343,-3711083.16599 58644.7827383,-3711182.30543 58567.2520377,-3711181.64027 58487.2327261,-3711149.7175 58401.4227062,-3711156.9887 58303.8802287,-3711150.46112 58257.7911504,-3711181.9327 58265.8366187,-3711277.16858 58265.8824362,-3711403.24965 58232.3613228,-3711499.30586 58145.3965578,-3711539.53328 58073.8579635,-3711561.45903 58035.8457036,-3711523.20959 58027.7836666,-3711315.84415 57977.3222127,-3711268.81919 57860.8975112,-3711245.40248 57774.7488606,-3711206.34532 57694.2902871,-3711197.86935 57646.7631123,-3711212.4771 57622.4324382,-3711308.02212 57517.9673822,-3711347.23082 57400.8506647,-3711315.87872 57351.849652,-3711254.81778 57306.0226588,-3711192.58324 57242.0001647,-3711085.51275 57146.8527263,-3711045.95935 57018.0129348,-3711072.57113 56974.828255,-3711156.20957 56917.3665739,-3711189.31179 56765.5290552,-3711178.83062 56536.4058525,-3711163.1848 56425.9430873,-3711157.37617 56376.9577498,-3711212.93145 56328.9937407,-3711268.92829 56240.946365,-3711285.29469 56226.5459102,-3711339.92068 56230.5300668,-3711406.97871 56233.9061312,-3711467.59179 56147.8504652,-3711515.24489 56067.3956172,-3711547.13661 56030.8626109,-3711629.40934 56004.5436922,-3711720.58228 55897.929337,-3711801.77528 55817.4043881,-3711733.99665 55712.0515522,-3711761.79353 55633.9512852,-3711853.85792 55685.5265841,-3711952.15502 55662.4643276,-3712039.16021 55556.9858595,-3712149.69503 55431.6506388,-3712190.06851 55340.0870178,-3712143.33814 55222.1268429,-3712038.77107 55102.9912812,-3712011.51786 55051.6610302,-3712078.66822 55051.097449,-3712184.85451 54985.154133,-3712356.48231 54956.5351008,-3712562.91125 54936.03766,-3712633.32823 54904.5878846,-3712739.74059 54822.6064704,-3712726.36654 54749.1528616,-3712705.04156 54706.9817876,-3712739.78606 54645.5008166,-3712848.3705 54622.0450731,-3712888.05297 54535.1116169,-3712978.12053 54473.5455521,-3713071.7587 54385.5727502,-3713219.19905 54363.7176303,-3713256.30071 54339.0513467,-3713318.97676 54289.0760194,-3713397.01806 54234.1200851,-3713403.56922 54138.0829637,-3713361.57405 54072.7837769,-3713415.05171 54046.2546637,-3713560.56452 53900.2973369,-3713758.58514 53874.6051938,-3713793.90755 53797.3349662,-3713896.39701 53717.3209823,-3713936.24222 53607.3448032,-3713903.49685 53550.7600765,-3713912.13276 53496.3351781,-3713959.52304 53518.8281427,-3714094.82935 53447.8091739,-3714269.23853 53393.8201644,-3714284.20923 53301.1613555,-3714311.80162 53267.1595561,-3714341.10859 53214.8874256,-3714386.88426 53137.7614199,-3714523.25845 53034.8352291,-3714706.42543 52995.8430895,-3714766.91164 52807.9392034,-3715017.11677 52709.911215,-3715118.27467 52295.9552517,-3715050.64272 52186.9366301,-3714695.37659 51791.4466532,-3714485.16389 51699.8882123,-3714197.20325 51645.8906778,-3714015.30329 51626.2805061,-3713949.60949 51330.2206423,-3713743.81776 50887.4453171,-3713709.18049 50491.827444,-3713581.70115 50061.8030853,-3713565.78928 49789.4753796,-3713343.21662 49725.7860589,-3713309.38357 49554.2914215,-3713219.25405 49307.4979071,-3712998.74454 49262.8047859,-3712992.76121 48847.7847722,-3712942.11491 48367.8717405,-3712952.40221 47838.9377446,-3713026.72748 47420.0261354,-3713219.53369 46995.5922993,-3713420.62472 46720.4249664,-3713643.80658 46394.1108927,-3713915.1988 46117.547393,-3714050.73524 45836.9912009,-3714087.80165 45591.1480215,-3713866.72878 45140.6717088,-3713734.81439 44780.5059585,-3713676.12443 44304.6637543,-3713245.54505 44144.6487971,-3713750.92879 44077.7356017,-3713963.51348 43928.6353662,-3714168.2165 43894.5757609,-3714214.4778 43860.074619,-3714261.7607 43384.7276295,-3713884.98496 43131.2702138,-3713746.57379 42960.8072703,-3713652.88669 42851.3074069,-3713597.67469 42579.7931114,-3713457.27612 42351.3237039,-3713351.36579 42180.1714887,-3713272.17062 41809.2554755,-3713052.06549 41471.2127158,-3712782.27247 41453.7109235,-3712387.45197 41465.1799763,-3712266.67904 41448.2895803,-3712097.63717 41656.7638132,-3711929.50558 42017.1113195,-3711785.31977 42342.6329939,-3711552.85036 42727.6125415,-3711255.76078 42845.1789132,-3711138.0565 42879.1873328,-3711104.26109 43082.6388321,-3710975.7945 43224.0051734,-3710882.68672 43362.0034677,-3710791.76065 43730.0492646,-3710427.83121 43916.5469873,-3710285.85639 43962.9229093,-3710250.37663 43888.560197,-3710083.04491 43764.8941106,-3709938.8938 43664.9176276,-3709821.83615 43587.0846029,-3709730.96132 43537.3865895,-3709675.40687 43409.0830637,-3709533.00774 43296.9866891,-3709408.64788 43264.57262,-3709372.56825 43112.5523244,-3709202.57662 43041.5948567,-3709123.28098 43010.4784675,-3709088.12581 42886.9250176,-3708959.41727 42536.8908724,-3708612.51737 42082.9932684,-3708208.58393 42052.595087,-3708177.37567 41863.9640327,-3707949.59781 41740.6307847,-3707802.42915 41615.1441062,-3707652.38889 41389.4097727,-3707438.63504 41228.1157701,-3707285.59984 40923.5569089,-3706998.96235 40725.5989885,-3706836.4986 40258.975677,-3706454.68426 40148.0141803,-3706364.14733 40054.1157476,-3706302.57061 39722.4754896,-3706093.69753 39554.9984549,-3705986.36133 39426.1461075,-3705892.33069 39148.5072998,-3705690.92005 39085.005866,-3705642.60655 38798.4485327,-3705424.24215 38571.6376287,-3705253.90037 38231.6823416,-3704949.26893 38051.5388145,-3705273.33415 37803.9906666,-3705057.28299 37717.5169327,-3704963.38529 37559.7272818,-3704788.20644 37379.048878,-3704533.04255 37241.0835039,-3704387.16915 37157.7300276,-3704295.589 37081.6931649,-3704219.05578 37031.0295439,-3704168.5305 36913.0813492,-3704050.95541 36845.4930757,-3703982.9254 36750.7093811,-3703887.49264 36658.1619785,-3703827.82794 36542.0634059,-3703774.95497 36539.1369663,-3703731.24878 36539.0543702,-3703684.89207 36548.1110089,-3703578.70518 36614.1812554,-3703543.13056 36645.1876576,-3703450.67984 36675.1176326,-3703334.36066 36732.5457417,-3703327.18275 36795.5785261,-3703322.18607 36897.0998396,-3703238.2817 36897.5426994,-3703147.52912 36829.1273397,-3703064.58909 36771.6724239,-3703021.91765 36728.9884769,-3702989.39289 36671.1750843,-3702917.82783 36706.5445655,-3702827.62781 36891.6948563,-3702799.89733 36980.1559941,-3702786.01135 37002.0512475,-3702735.94194 37006.5251145,-3702677.36851 36964.1462918,-3702591.9853 36866.4660833,-3702489.23435 36736.5085544,-3702460.55883 36531.1204377,-3702464.98536 36415.5193841,-3702434.5153 36380.2089768,-3702337.27299 36369.582783,-3702204.26285 36476.9868158,-3702123.02433 36480.1661078,-3701982.76728 36447.6712547,-3701927.24321 36424.563199,-3701888.14715 36366.0865223,-3701867.46558 36263.6856162,-3701760.48823 36265.4838527,-3701658.19418 36263.9701403,-3701527.66905 36298.0453081,-3701405.13838 36342.1685156,-3701333.39631 36373.5629626,-3701279.31021 36479.4519657,-3701139.33371 36549.9987022,-3701045.188 36575.983566,-3700952.02059 36608.0988098,-3700839.07129 36549.491384,-3700681.30726 36503.1109164,-3700609.1058 36450.4636236,-3700527.28196 36482.4405169,-3700434.28066 36524.162195,-3700368.65491 36578.0883468,-3700284.90424 36568.9288106,-3700164.77449 36555.5958689,-3700122.14455 36542.0972069,-3700081.0193 36591.9632663,-3700027.40449 36645.1134538,-3699997.03719 36724.1034831,-3700010.10124 36847.1024776,-3700030.19447 36915.5201236,-3700005.4605 36997.5219264,-3699973.9907 37056.9358468,-3699998.11104 37156.6029332,-3700042.42993 37271.4308662,-3700027.5829 37355.9157231,-3700018.4078 37449.982874,-3699975.30158 37636.0781921,-3699816.42216 37712.5391396,-3699635.71165 37729.060451,-3699466.30349 37657.9343669,-3699141.24319 37635.9095968,-3699040.77214 37611.0433949,-3698911.54597 37634.0536501,-3698755.73587 37664.0257185,-3698550.18875 37618.3441847,-3698409.6549 37566.9138317,-3698345.21103 37534.5049217,-3698295.66379 37495.5298201,-3698190.64924 37511.3885428,-3698063.15177 37538.3558954,-3697830.35433 37522.0019168,-3697634.35595 37469.9500645,-3697437.34632 37411.8453299,-3697310.95993 37344.9079029,-3697164.62483 37363.0320655,-3697041.98693 37394.0425091,-3696989.91936 37461.9933661,-3696943.28089 37560.3118409,-3696918.38783 37712.0206746,-3696943.87303 37850.9188306,-3696967.57597 37865.476521,-3696892.99201 37883.8741205,-3696797.75703 37893.3768007,-3696748.87649 37954.2856767,-3696714.59279 38095.2803243,-3696749.14657 38086.7870024,-3696654.40601 38072.8336624,-3696501.64493 38083.940116,-3696432.23761 38179.3025682,-3696416.9806 38220.806846,-3696342.89716 38255.932325,-3696279.63572 38328.4971975,-3696199.34407 38399.4547709,-3696170.9843 38559.8964748,-3696102.27115 38583.7847916,-3696043.12252 38587.7672924,-3695984.57899 38478.2828994,-3695888.95742 38437.4263818,-3695853.3374 38370.3995623,-3695795.24073 38270.9039592,-3695744.92565 38204.3239172,-3695645.42948 38209.4418166,-3695562.39687 38232.3919189,-3695504.29719 38248.7691325,-3695462.51346 38333.8432578,-3695369.56579 38400.7766559,-3695291.08294 38564.7534588,-3695218.68669 38670.3087825,-3695158.00299 38708.2480207,-3695118.51396 38768.8292543,-3695055.83681 38756.8638427,-3694929.88536 38745.7255164,-3694814.3562 38819.9108841,-3694803.76457 38864.3890155,-3694796.81325 38929.4032835,-3694823.11903 39042.7298296,-3694866.68647 39096.9145864,-3694944.93574 39102.3997281,-3695012.42505 39134.420388,-3695050.52875 39259.872298,-3695052.04982 39298.2812291,-3695007.55034 39328.1976109,-3694881.77113 39349.2193172,-3694793.37238 39412.4184163,-3694764.44749 39461.8454084,-3694702.88792 39484.3036784,-3694608.92658 39506.8171466,-3694515.95921 39528.8337814,-3694423.01945 39512.8401879,-3694287.32318 39439.3453903,-3694107.95627 39360.2074799,-3694006.66414 39278.861563,-3693901.50629 39203.7262992,-3693804.9767 39156.7872488,-3693655.04296 39167.6637334,-3693482.46537 39115.2194766,-3693408.60512 38999.2350718,-3693245.04916 38924.3504453,-3693139.532 38894.7178073,-3693023.0338 38891.8747043,-3692850.21884 38889.297826,-3692574.20395 38847.3210644,-3692482.31626 38797.19126,-3692441.22648 38495.7171885,-3692222.63994 38402.6884855,-3692154.01653 38292.7946091,-3692064.39363 38251.8437018,-3691950.51476 38232.6726043,-3691856.36604 38307.7127469,-3691703.66279 38368.1586616,-3691494.44256 38408.7967331,-3691355.10995 38490.3854236,-3691325.17004 38553.7559198,-3691276.79813 38587.6570084,-3691141.82691 38583.7948107,-3690982.02863 38531.196703,-3690860.32049 38526.8241342,-3690772.33155 38610.7671652,-3690703.87915 38675.2694101,-3690657.9377 38733.266856,-3690557.52378 38885.8099238,-3690521.66333 39008.7076643,-3690454.54459 39045.7983089,-3690390.68041 39022.7585497,-3690325.65842 38965.6939558,-3690181.76655 38931.2089265,-3690058.5577 38979.7135807,-3689939.72808 39176.14062,-3689832.15234 39389.7518187,-3689665.8033 39473.1760016,-3689569.96592 39536.63204,-3689509.62837 39621.1697953,-3689370.8613 39772.170038,-3689185.54837 39854.154738,-3688982.62105 39864.6404425,-3688636.10377 39819.6934931,-3688400.32269 39745.5534082,-3688217.99714 40059.0937466,-3688105.44437 40185.1211317,-3687878.64928 40286.2468348,-3687652.2356 40399.6768911,-3687463.52378 40525.7605325,-3687350.37748 40701.6601395,-3687299.77473 40853.0687405,-3687148.84101 41004.1121703,-3687022.85109 41218.5597424,-3686934.72713 41432.4788974,-3686859.59272 41646.6609276,-3686834.28951 41961.5089329,-3686871.70701 42125.6373184,-3686959.82774 42264.0756341,-3687110.67805 42316.1332458,-3687146.17939 42389.5478207,-3687112.7105 42418.1289191,-3687079.72753 42455.6130973,-3686991.42297 42440.5363694,-3686894.56112 42462.6273133,-3686762.24779 42509.9566255,-3686716.76392 42586.6034547,-3686674.14483 42698.0134441,-3686714.83752 42757.5209868,-3686763.38487 42812.9875851,-3686743.37028 42854.4337304,-3686708.67932 42855.4182458,-3686636.35049 42822.5295401,-3686564.39953 42744.5913447,-3686475.50037 42727.9673738,-3686386.6996 42776.5920416,-3686242.95104 42855.5597425,-3686192.72768 42905.111857,-3686092.79129 42901.5768476,-3685992.79969 42899.3823479,-3685939.58762 42950.9141645,-3685870.94395 43010.4672888,-3685848.21202 43079.0211108,-3685821.49339 43105.9552408,-3685754.20997 43067.460513,-3685693.53464 43051.0514154,-3685631.13976 43088.5859545,-3685566.26101 43202.832747,-3685523.06024 43217.9832199,-3685440.97689 43138.4402917,-3685372.60196 43098.9246298,-3685311.48448 43105.8938104,-3685266.23953 43199.4885606,-3685232.65444 43232.0504665,-3685181.50886 43226.3794015,-3685124.00333 43197.4592292,-3685083.2346 43145.0352214,-3685081.64654 43086.9401919,-3685022.55282 43090.5796963,-3684939.61048 43107.4326405,-3684892.82239 43152.9921951,-3684860.39766 43248.8730978,-3684845.62752 43320.5532476,-3684893.50306 43366.0676457,-3684923.38574 43435.5527983,-3684922.53551 43525.4865358,-3684849.77685 43559.8638792,-3684822.45635 43587.3717885,-3684779.06717 43554.338037,-3684740.51967 43470.4736095,-3684729.20514 43433.3284128,-3684683.90667 43416.063121,-3684529.34832 43460.0502107,-3684396.32653 43535.8771826,-3684325.34519 43631.9760095,-3684319.03721 43837.8556049,-3684342.05083 43903.4919281,-3684379.7933 43982.3373225,-3684467.14742 44012.0321758,-3684499.39966 44075.4699773,-3684501.87464 44195.941104,-3684408.98744 44277.8713061,-3684326.70396 44314.3746934,-3684297.2728 44391.3202391,-3684269.09556 44452.4511675,-3684324.53176 44491.2683061,-3684409.11318 44550.2870862,-3684417.31513 44607.9939493,-3684379.23568 44659.3975554,-3684276.70899 44710.4574897,-3684217.56469 44768.4899765,-3684198.90618 44820.3830916,-3684217.96903 44870.4678905,-3684285.47917 44909.8507127,-3684321.68141 44968.4284085,-3684326.41873 45049.7994119,-3684265.59941 45057.9679818,-3684178.92038 45061.9012681,-3684132.84789 45076.9665159,-3683968.03348 45077.8140725,-3683807.49386 45115.2316409,-3683672.84524 45142.8507247,-3683626.9593 45178.918572,-3683576.12073 45205.3637242,-3683486.43848 45237.3024067,-3683396.9512 45221.9554553,-3683299.60981 45262.2553375,-3683221.62284 45272.8108576,-3683096.93237 45349.3177709,-3682966.10617 45378.7999893,-3682877.25354 45408.3372128,-3682789.3948 45430.3827953,-3682647.1237 45481.2829446,-3682395.59994 45589.9174589,-3682196.71065 45699.2804608,-3682051.61102 45812.3804632,-3681960.633 45922.884648,-3681872.29073 46007.1888122,-3681792.37362 46091.2766299,-3681613.78245 46162.2489078,-3681445.88439 46214.7116628,-3681321.87248 46364.1833773,-3681099.79899 46437.1761505,-3680918.832 46462.2433032,-3680831.22261 46489.6426058,-3680704.60844 46497.1954521,-3680493.86187 46502.713792,-3680341.04342 46540.245511,-3680212.87343 46646.8459341,-3680080.89065 46719.3385522,-3679994.65117 46820.7897775,-3679904.81965 46860.6071918,-3679872.21873 46891.6815383,-3679739.92056 46874.6659138,-3679693.51111 46858.339209,-3679650.55246 46821.1640262,-3679627.18569 46745.1309506,-3679577.05608 46552.8016522,-3679519.39008 46307.63293,-3679470.62113 46215.2953589,-3679468.2416 46151.819737,-3679424.39596 46097.827158,-3679340.15376 46126.7378503,-3679240.86914 46258.8406771,-3679128.4132 46421.7866515,-3678992.32545 46515.1818804,-3678819.70545 46585.2906064,-3678690.23735 46765.8148199,-3678570.12721 46843.2787987,-3678555.88441 46963.7105892,-3678575.15582 46996.2961646,-3678542.4565 47047.6426997,-3678389.10469 47117.6116118,-3678338.39377 47187.7635525,-3678241.32128 47206.2403537,-3678070.34607 47203.0909402,-3678004.23214 47202.6299296,-3677910.05928 47232.6541386,-3677862.54964 47291.7995724,-3677818.91583 47342.7343757,-3677734.86608 47337.6441762,-3677620.01595 47251.1772735,-3677502.67746 47020.7109843,-3677422.18983 46917.7958461,-3677435.84165 46763.1743907,-3677456.33315 46630.8376138,-3677456.15746 46514.7319374,-3677456.58157 46387.7900084,-3677495.48257 46334.7029809,-3677432.12265 46355.345873,-3677304.88626 46408.2802649,-3677193.81147 46422.2578936,-3677099.33957 46414.8566551,-3677037.4467 46403.1734769,-3676983.76456 46341.6891852,-3676935.32133 46258.682741,-3676862.6462 46304.2206276,-3676680.70709 46244.6505695,-3676540.45054 46238.3585372,-3676399.24918 46213.2942931,-3676328.86043 46134.294659,-3676315.27432 46097.3067718,-3676376.62499 46097.2285182,-3676501.73041 46111.6572368,-3676591.64542 46126.7308054,-3676657.10272 46098.784466,-3676751.34848 45981.181826,-3676765.31094 45930.2108671,-3676726.75399 45882.6485927,-3676655.11375 45698.6690921,-3676703.63857 45680.2833176,-3676636.86829 45732.7188856,-3676534.79203 45711.8139615,-3676417.8209 45642.6841278,-3676366.30935 45486.199683,-3676344.0374 45442.3753105,-3676245.27584 45474.9228266,-3676107.91202 45407.677269,-3675905.27612 45372.7462374,-3675863.84007 45374.2156438,-3675782.01886 45374.740533,-3675714.7038 45374.3482584,-3675662.39179 45352.1837726,-3675590.34675 45256.3301726,-3675610.08581 45217.3771459,-3675681.01505 45217.2246046,-3675782.20209 45155.8654389,-3675830.94134 45072.3010119,-3675838.53955 44973.3360533,-3675838.01541 44881.8793759,-3675838.07408 44816.3491378,-3675892.52622 44758.882738,-3675939.55593 44718.7167112,-3676006.56543 44666.8367054,-3676096.15149 44615.2494402,-3676078.06246 44578.8327155,-3676023.25048 44552.8163431,-3675985.30973 44490.7516605,-3676003.18631 44410.9239916,-3676051.44938 44383.3743118,-3676116.76673 44395.9228783,-3676213.26733 44408.8753095,-3676335.16522 44366.8332296,-3676399.78667 44286.448432,-3676392.75593 44196.748237,-3676347.86016 44142.8038287,-3676354.82241 43996.9027061,-3676434.14337 43895.8060187,-3676512.48903 43738.7841215,-3676579.9632 43631.311276,-3676655.67043 43503.8938043,-3676695.0956 43460.9467382,-3676675.53323 43383.4195995,-3676562.17912 43350.8511058,-3676477.74659 43337.5182731,-3676407.70458 43277.8988542,-3676316.29033 43215.4385016,-3676286.33976 43135.9950428,-3676269.28805 43081.889019,-3676264.29677 42966.5407948,-3676287.60435 42878.8848228,-3676370.19397 42772.4242747,-3676396.5007 42675.0690394,-3676366.48049 42561.4962639,-3676232.18422 42484.9809429,-3676141.70037 42369.9872303,-3675972.591 42338.8656676,-3675927.95223 42193.9736537,-3675826.78311 42115.4694017,-3675871.98372 42148.9418453,-3675972.81678 42115.5189293,-3676085.31347 41947.5232077,-3676175.3245 41818.9731776,-3676207.83362 41758.4075431,-3676266.50057 41694.0856626,-3676329.36232 41584.5739111,-3676386.24263 41550.4133338,-3676413.04867 41521.9838931,-3676534.74173 41473.0213738,-3676641.11859 41430.6394579,-3676654.42172 41370.11757,-3676673.21129 41062.9267339,-3676557.56529 41003.9757407,-3676446.67143 41007.151362,-3676309.92128 41028.9154662,-3676085.41611 40987.5380707,-3675872.86621 40959.9474668,-3675833.51466 40897.9593209,-3675726.2767 40849.9451339,-3675673.59604 40644.0656096,-3675573.79236 40581.1005788,-3675557.3257 40532.5392154,-3675558.00917 40364.6096662,-3675545.3355 40280.1087413,-3675468.24775 40224.4758124,-3675412.99568 40172.9713642,-3675387.42319 40113.9891433,-3675352.79225 40010.1747936,-3675377.45669 39853.1520029,-3675422.50051 39719.0813839,-3675377.55365 39517.2050552,-3675400.14736 39394.0845257,-3675377.52568 39349.184848,-3675141.73679 39226.5347274,-3674924.19028 39272.0682707,-3674524.9057 39293.2129022,-3674343.29768 39618.1669235,-3670501.23147 39894.6850338,-3667786.39227 39990.07977,-3666856.5196 40040.7427461,-3666354.78561 40054.5117578,-3666219.9457 40121.1661976,-3665233.83958 40177.1204916,-3664392.87429 40200.6026054,-3664040.179 40297.7131536,-3662246.92024 40417.1617904,-3660056.18271 40411.5729424,-3659990.69516 41268.5982056,-3659408.82624 41754.6390788,-3659078.60358 42407.101166,-3658647.54224 43045.0974592,-3658170.92968 43306.0325584,-3658003.09907 43894.9855866,-3657622.89136 44938.0724067,-3656921.72478 45956.3497394,-3656313.64557 46976.4859223,-3655639.69501 47737.3311457,-3655077.16462 48420.9559563,-3654601.61073 49988.7978413,-3653523.41965 50794.7042219,-3653028.73825 51444.7014387,-3652576.49839 51730.8140098,-3652377.42967 53595.2323546,-3651456.02423 53769.6544818,-3651374.21246 54227.7839167,-3651158.75848 54275.1648464,-3651136.72871 55689.6522013,-3650062.62343 56230.2276783,-3649660.28722 57571.0375297,-3648647.08441 59912.0292669,-3646939.40229 61770.3348613,-3645658.8428 62933.3353115,-3644803.01311 63831.93777,-3644142.03255 64178.274844,-3643901.38084 64400.7890056,-3643747.21853 66216.7018282,-3642490.07993 67498.2544241,-3641561.62678 67680.2216184,-3641440.58466 67870.3389252,-3641309.13368 68317.1778631,-3640997.7573 68759.7158595,-3640680.64149 68988.7293423,-3640531.62664 69445.2104687,-3640232.68807 69532.270856,-3640175.62316 69649.6345561,-3640085.01877 69789.7705363,-3639987.19309 70010.8245459,-3639820.184 70317.2483647,-3639574.28401 70797.6193957,-3639220.24911 71206.6735302,-3638851.18008 71513.7900372,-3638572.37088 71657.0798675,-3638436.51675 71747.1186036,-3638351.89326 71799.2091995,-3638302.22112 72082.8036388,-3638007.76217 72523.143619,-3637477.08472 72719.7162851,-3637286.01965 72708.6903344,-3637522.26134 72639.243824,-3637765.17755 72726.1545162,-3637856.08716 72940.055897,-3638078.56242 73056.1443342,-3638576.38674 73166.1461062,-3638953.484 73190.4281824,-3639037.84564 73260.0656277,-3639186.48781 73333.451332,-3639339.90687 73576.9819291,-3639571.21952 73710.5453576,-3639727.33062 73756.4105611,-3639778.13173 74306.3932308,-3640143.15929 74410.737483,-3640297.87357 74707.2003946,-3640604.50078 74796.7189369,-3640797.88353 74877.8112696,-3640973.79189 75024.6699004,-3641222.82587 75089.7384123,-3641333.35225 75178.3157682,-3641472.98253 75302.1034733,-3641609.69305 75367.2601733,-3641685.34234 75687.0527027,-3642127.18009 75822.1038342,-3642287.68275 76066.6389906,-3642478.07103 76117.1228289,-3642517.65647 76351.0160666,-3642969.15968 76516.9655054,-3643316.77108 76674.0120582,-3643747.56071 77012.8579322,-3643904.39176 77216.7758815,-3644345.0684 77565.2279702,-3644650.31551 77643.6525935,-3645137.20054 78016.5798064,-3645757.92226 78127.0972922,-3646216.6461 78660.0413867,-3646566.08492 78743.4597023,-3647166.76031 78839.0319947,-3647757.30482 78958.3837021,-3648026.74245 79025.9913892,-3648178.95978 79032.951514,-3648670.23987 79399.341142,-3648816.06619 79472.4280797,-3648950.04897 79507.3865455,-3649015.38353 79363.7608456,-3649512.91115 79339.9108867,-3649595.91089 79402.7607901,-3649870.42922 79687.161885,-3650074.53494 79954.7445632,-3650194.37938 79878.2599674,-3650721.60481 80227.8000603,-3651032.72225 80403.0243406,-3651489.87085 80539.5673959,-3651559.10313 80915.4380787,-3651750.71492 80912.0889687,-3652230.59138 80908.9280841,-3652359.28049 80889.4644609,-3653435.79715 81109.9209107,-3653636.41313 81305.8804746,-3653721.81003 81892.3862872,-3654302.84478 82643.3168469,-3654662.15957 82727.8354628,-3655254.26228 82985.6064875,-3655395.03889 83321.1708573,-3655660.05941 83408.6447438,-3655556.63715 83601.6552388,-3655592.87393 83783.4723526,-3655656.62186 84059.4224636,-3655833.75463 84348.0100493,-3656046.05569 84390.9119519,-3656396.85407 84405.4229221,-3656516.09971 84581.3445445,-3656844.65685 85060.2577279,-3657062.448 85449.3566598,-3657340.9498 85314.3933244,-3657835.98698 85443.8779133,-3657976.31581 85681.3076912,-3658041.48525 85866.1114276,-3658295.82715 85964.2576267,-3658269.02249 86020.2866807,-3658146.40656 85897.2368984,-3657832.89012 86121.2719253,-3657631.3229 86300.1649455,-3657687.25298 86356.1463868,-3657922.26466 86277.0715796,-3658101.43185 86519.0971322,-3658427.34255 86497.21249,-3658273.64014 86396.6099488,-3658096.86346 86493.5561895,-3658048.20952 86625.1914416,-3658146.08012 86879.5477964,-3657975.22492 86896.2041881,-3657861.24686 86839.6299145,-3657647.18909 87137.1101444,-3657631.36246 87261.1616419,-3657559.30702 87336.1426404,-3657437.1486 87131.1943128,-3657405.56024 87015.5212366,-3657367.08056 86884.1358133,-3657350.88028 86876.7850023,-3657207.83696 86992.7168175,-3657110.32762 87096.1018729,-3656924.84937 87028.0743155,-3656842.41435 86944.0967566,-3656886.8679 86944.1944969,-3657065.67253 86780.0904156,-3656929.7354 86731.6206353,-3656808.87094 86626.7396355,-3656721.98208 86737.0733093,-3656663.13258 86804.1456502,-3656492.09845 86929.228949,-3656724.81211 87054.6674969,-3656723.40918 87223.6687121,-3656717.12594 87236.1561698,-3656531.65489 87153.1862863,-3656317.55116 87096.6469418,-3656140.34902 87202.2114485,-3656076.28376 87289.656882,-3656240.33459 87399.1794421,-3656393.71049 87401.5843524,-3656228.71611 87509.658374,-3656165.01139 87655.175735,-3656207.3346 87671.5156803,-3656037.59203 87654.5202316,-3655922.97163 87767.6909687,-3655829.60198 87921.6512164,-3655907.82174 87918.6236001,-3655702.78321 87747.5752813,-3655680.78598 87778.2531093,-3655445.50844 87590.028148,-3655564.4106 87437.1423909,-3655487.62482 87479.617284,-3655267.63766 87702.6820571,-3655152.80263 87557.5997804,-3655082.06306 87487.7028693,-3654956.39704 87670.2624645,-3655006.65333 87582.7650948,-3654805.24952 87711.2213782,-3654672.69244 87853.5923782,-3654753.04471 87952.1232321,-3654687.87406 87836.7515144,-3654504.93341 87764.133696,-3654329.60961 87784.2115722,-3654223.4162 87861.6155886,-3654190.78289 87914.7651415,-3654392.57536 87991.0505051,-3654380.424 87997.2451331,-3654170.89589 88075.7730721,-3654072.45627 88125.5867599,-3654195.23836 88147.2058692,-3654357.9171 88334.548113,-3654277.41916 88252.2393823,-3654152.43442 88265.5723867,-3654027.68518 88428.0291693,-3653988.39768 88588.5017612,-3653908.37798 88556.623321,-3653781.1271 88419.5618981,-3653911.16382 88310.6013551,-3653904.18694 88294.2466602,-3653637.62246 88389.1353111,-3653574.14792 88591.6667074,-3653657.18086 88730.5524171,-3653596.77371 88731.5938815,-3653420.40286 88681.5912989,-3653257.78692 88456.1472361,-3653197.42528 88281.2828244,-3653264.78422 88273.1184818,-3653115.81217 88125.6861497,-3653020.29421 88079.7451619,-3652849.98281 87929.6231186,-3652918.97359 87907.7049532,-3652718.95534 87852.3228913,-3652630.84363 87901.1439288,-3652494.68634 87984.1946673,-3652692.35093 88081.3024868,-3652723.88669 88183.2771528,-3652703.35684 88104.2638192,-3652565.73767 88237.1247425,-3652522.59698 88272.2255158,-3652326.92657 88374.3185886,-3652440.37007 88447.0974503,-3652323.32202 88614.2284514,-3652196.62229 88673.5863315,-3652098.24049 88845.1384223,-3651997.69678 88943.2273333,-3652042.62691 89019.109282,-3652195.85608 89129.7380004,-3652256.03656 89106.0993097,-3652506.3606 89235.2201837,-3652517.71372 89257.5317941,-3652415.88375 89515.5283648,-3652252.33125 89612.9851277,-3652076.65733 89564.6060021,-3651889.05129 89560.6149708,-3651734.3752 89664.5401113,-3651685.84953 89768.6688546,-3651659.22714 89878.5676687,-3651733.39314 89832.6704243,-3651977.46247 89981.1099792,-3652155.10305 90151.5048349,-3652119.8689 90222.9588263,-3652037.76049 90293.3925229,-3651955.21013 90291.9558229,-3651778.97988 90379.5932524,-3651637.71404 90589.5589182,-3651583.87835 90714.5761586,-3651511.28822 90738.9538728,-3651378.96728 90574.6325899,-3651338.66159 90439.5793637,-3651191.66474 90393.0582655,-3650960.62894 90374.0333858,-3650808.77057 90378.0846428,-3650673.57808 90336.6940898,-3650549.83894 90486.5787297,-3650462.93979 90536.0572183,-3650370.5822 90405.1369196,-3650267.18503 90380.9843937,-3650217.20879 90323.1539793,-3650093.37347 90188.0428463,-3650090.81044 90042.1352379,-3650032.06096 90028.0941606,-3649825.64138 90193.6909829,-3649720.94985 90380.5199299,-3649626.55153 90545.5742812,-3649543.80475 90732.7161171,-3649641.63496 90863.1141044,-3649603.61745 91009.0083368,-3649607.58325 91155.1233131,-3649611.03888 91311.9320078,-3649659.72856 91486.9257509,-3649631.2227 91628.0450434,-3649602.57935 91672.9770284,-3649504.49668 91672.8992079,-3649362.06283 91552.4287687,-3649235.68202 91342.5661331,-3649232.22889 91302.4983995,-3649114.39501 91443.1552163,-3648977.20605 91454.1312609,-3648845.62157 91346.0494726,-3648749.93765 91147.5907001,-3648900.25082 90939.5843622,-3648885.23988 90776.6889238,-3648757.19429 90619.249055,-3648569.58224 90719.0874091,-3648460.02724 90857.6908162,-3648608.32879 90918.0893813,-3648724.55303 91067.028116,-3648715.90327 91075.1217745,-3648568.04051 91082.235052,-3648438.65893 91186.6740032,-3648335.82571 91397.5030209,-3648338.73103 91601.9787011,-3648384.81501 91689.4860047,-3648341.17934 91681.5413739,-3648241.50914 91474.6042171,-3648236.89648 91322.0549923,-3648143.14691 91255.1708128,-3647999.38773 91322.7445726,-3647878.15325 91454.1082909,-3647839.58898 91580.1755522,-3647767.9463 91700.6832031,-3647681.16904 91742.6042251,-3647591.7194 91804.1728912,-3647460.85424 91951.7333158,-3647317.81432 92099.569151,-3647175.25806 92114.0231948,-3646947.86343 91997.0325021,-3646953.26712 91803.7444767,-3646988.74225 91755.1237852,-3646878.34841 91673.1067744,-3646790.20057 91667.1042016,-3646680.46339 91694.122,-3646537.04594 91780.1521184,-3646448.17284 91945.1296984,-3646423.21242 92033.624223,-3646515.98632 92142.1288592,-3646692.33057 92362.7036015,-3646746.00514 92617.5408559,-3646633.95445 92715.0204081,-3646476.72478 92577.6715907,-3646323.87262 92758.4665946,-3646314.98049 92877.0003763,-3646406.11025 92997.0191175,-3646406.02022 93117.5341593,-3646405.90303 93298.017065,-3646373.12272 93511.9495983,-3646350.96357 93496.5715417,-3646047.01712 93244.6539896,-3646134.99922 93128.5031436,-3646032.78275 93161.5268275,-3645867.12769 93327.9942687,-3645901.3521 93325.6209442,-3645680.361 93434.5755516,-3645650.99621 93572.4757232,-3645736.58494 93624.0693445,-3645596.31079 93731.941348,-3645542.60265 93745.4010473,-3645702.22799 93848.377013,-3645695.60096 93844.9987156,-3645615.60516 93837.4704891,-3645455.15773 93999.3741493,-3645469.71174 94039.0209528,-3645270.33035 94055.9134123,-3645069.20521 93955.5141586,-3645031.86503 93776.0774271,-3644974.443 93689.6824811,-3644883.54708 93742.5411994,-3644811.9311 93833.6249524,-3644747.18988 94057.4205643,-3644736.94772 94140.0622511,-3644704.54124 94113.5351364,-3644601.90665 93889.1081951,-3644577.81981 93719.6805657,-3644493.95242 93740.1902305,-3644322.50983 93894.459919,-3644329.51591 94080.5542741,-3644312.86981 94135.6486263,-3644209.25979 94104.6384948,-3644092.9257 94017.6392175,-3644031.94297 93823.6091599,-3644131.19445 93708.1342399,-3644141.49008 93544.5244058,-3644091.16845 93358.7519977,-3644054.5083 93257.6105917,-3643921.58676 93403.6526825,-3643846.37257 93472.6619051,-3643669.29085 93608.1137734,-3643591.66815 93779.750571,-3643702.31025 93868.0137958,-3643891.21439 94050.5310578,-3643895.68168 94020.1144331,-3643794.75327 93926.0339723,-3643786.44851 93871.7134895,-3643703.75868 93960.1687084,-3643527.10985 94090.5838454,-3643466.69571 94257.5153502,-3643441.13922 94411.6018254,-3643435.70715 94425.5154406,-3643362.23738 94277.144527,-3643331.00213 94238.1229042,-3643109.0293 94355.2385957,-3643083.20769 94315.0267527,-3642866.77818 94409.1887178,-3642785.43805 94553.6977883,-3642846.26803 94740.4999651,-3642838.054 94814.1462035,-3642659.23003 94848.5946026,-3642483.04589 94814.1852071,-3642318.09356 94846.5776055,-3642158.95418 94896.5615758,-3642066.58284 94861.0141664,-3641999.30175 94745.1110898,-3641997.16647 94705.7625428,-3641924.1167 94523.6541672,-3642045.61748 94490.6059699,-3641901.00808 94507.7722292,-3641713.81527 94682.1405875,-3641728.69413 94660.7180873,-3641541.61745 94817.7492178,-3641571.88578 94773.274377,-3641377.60231 94854.6755662,-3641345.26856 94896.2300236,-3641476.96262 95059.6326473,-3641418.73632 95158.7757384,-3641291.80916 95129.2307572,-3641120.11751 95310.7417007,-3641192.87398 95462.7531937,-3641103.89681 95622.1799265,-3641077.76104 95437.5935971,-3640962.34453 95350.1651314,-3640806.76213 95536.2393981,-3640894.70804 95558.7559735,-3640682.32677 95669.2018206,-3640794.32209 95783.2514353,-3640858.31245 95754.6611042,-3640699.51824 95959.1161039,-3640658.97318 95872.2641453,-3640536.72608 95766.1578523,-3640531.56328 95619.2726623,-3640595.85674 95568.3083815,-3640355.61567 95373.3105141,-3640254.70934 95306.8645753,-3640109.43443 95256.6741119,-3639983.68993 95270.2229933,-3639835.04388 95334.6927454,-3639798.15867 95455.1630593,-3639811.00474 95474.7129198,-3639931.94755 95569.1612745,-3639956.17379 95744.1016871,-3639917.74028 95749.2867889,-3639775.52794 95644.840117,-3639736.90732 95597.7175114,-3639662.78768 95732.3326738,-3639651.95398 95920.7490799,-3639682.50534 95940.3303333,-3639571.37943 95889.155684,-3639523.37701 96019.764739,-3639461.96679 95853.1946002,-3639402.83266 95844.3306544,-3639299.73316 96007.6392682,-3639280.86034 96061.7657629,-3639186.77325 96160.2244536,-3639170.44398 96308.7006086,-3639171.80276 96281.6704884,-3639114.51477 96241.7302852,-3639030.54165 96192.2977999,-3638950.57238 96171.3090797,-3638780.40794 96297.6771002,-3638796.41989 96390.3500235,-3638829.21022 96487.1423105,-3638796.04083 96573.7112306,-3638780.85907 96564.7942664,-3638676.76768 96526.3361009,-3638629.06715 96658.1484794,-3638493.89136 96828.6501289,-3638479.11029 96746.3572589,-3638298.84665 97041.308458,-3638091.52726 97120.6500162,-3638048.85373 97249.1454159,-3637976.10954 97372.5876442,-3638130.22381 97720.0771889,-3638091.84439 97821.2176443,-3637928.46688 97550.650253,-3637916.33651 97512.2782913,-3637756.08765 97675.6916003,-3637793.98342 97744.7224241,-3637525.79012 98013.0545249,-3637483.2665 98134.5526134,-3637346.1692 97933.1223167,-3637346.20063 97796.2369898,-3637205.76703 97628.68949,-3637302.05217 97440.2484805,-3637111.14553 97703.3194828,-3637036.04385 97544.6966763,-3636871.39746 97451.8752939,-3636634.93822 97495.3327643,-3636349.71465 97796.3112798,-3636481.20275 98015.1970918,-3636431.42056 98179.8365973,-3636427.92061 98278.0904459,-3636663.58301 98414.6243789,-3636551.06479 98645.7570633,-3636552.40405 98649.7893994,-3636439.14443 98493.2855364,-3636390.90953 98705.6669417,-3636226.45131 98557.3135987,-3636030.86947 98717.2599871,-3635923.05241 98874.2059169,-3635942.87989 99087.6792184,-3635789.32005 99198.5895194,-3635677.20629 99339.6843501,-3635634.65661 99355.5806278,-3635812.06194 99213.6454444,-3635893.99727 99298.7402851,-3636048.20929 99445.1501072,-3635879.38371 99607.5073908,-3635838.66228 99607.6623325,-3635476.13592 99897.7602685,-3635316.90878 100116.664629,-3635322.40478 100363.512167,-3635296.99798 100412.148476,-3635074.74761 100587.106038,-3634904.37156 100531.557739,-3634826.23228 100452.034847,-3634728.48531 100307.561871,-3634759.26528 100182.080911,-3634905.53273 99974.2771151,-3634861.58519 99946.8193853,-3634508.53347 99979.7033182,-3634266.72436 100120.25444,-3634163.95504 100182.786591,-3634470.776 100397.230995,-3634467.55481 100419.69727,-3634322.4209 100630.558236,-3634212.33513 100845.075663,-3634164.79299 100995.06337,-3634212.39061 100892.604438,-3634470.43604 100923.639427,-3634647.01188 101145.143543,-3634668.3028 101435.13232,-3634607.68318 101378.954068,-3634422.0221 101561.503054,-3634322.44345 101572.476974,-3634117.18906 101754.949664,-3634089.32001 101908.962695,-3634187.98596 102079.397417,-3634327.58376 102245.036517,-3634333.49573 102315.974937,-3634200.66324 102131.458931,-3634154.4503 102054.453318,-3633974.9053 102304.940718,-3633865.65208 102222.516185,-3633751.13496 102020.006175,-3633767.64595 101884.993896,-3633620.14125 101791.486998,-3633398.17261 101878.498577,-3633222.13944 102174.121355,-3633178.15056 102376.628183,-3633266.70718 102233.475746,-3633381.06508 102217.60498,-3633546.74843 102422.980771,-3633454.89313 102530.418396,-3633621.82494 102677.405616,-3633376.79831 103120.36511,-3633194.8218 103347.878107,-3633134.62663 103422.953468,-3633233.11094 103683.361799,-3633178.09495 103639.317412,-3633050.53453 103755.336855,-3632954.58751 103729.293018,-3632810.11291 103759.802276,-3632753.18104 103809.847494,-3632661.82397 103913.375697,-3632665.64588 104007.403542,-3632783.01457 104055.370421,-3632548.36827 104165.376105,-3632479.14045 104318.316979,-3632667.98887 104361.930629,-3632632.25253 104405.819534,-3632596.99918 104329.782537,-3632421.38995 104399.813238,-3632212.43157 104343.834486,-3632080.54273 104154.479711,-3632077.90815 104054.488796,-3631892.14962 104136.507219,-3631793.57561 104305.863407,-3631950.16269 104451.478643,-3631876.50763 104368.422274,-3631690.8235 104141.954229,-3631655.85164 104198.543448,-3631533.76642 104384.347259,-3631480.33073 104535.486806,-3631498.98963 104618.370608,-3631640.36787 104758.823444,-3631695.95632 104830.775886,-3631796.60168 104947.73832,-3631795.71008 105061.363156,-3631770.10434 104978.309895,-3631657.61582 104979.466201,-3631509.67114 105123.374285,-3631482.41716 105199.349277,-3631560.93479 105228.721813,-3631734.60205 105397.412113,-3631691.55872" style="stroke-linejoin:round;stroke:#000;stroke-width:1px;fill:none" /></g></g></svg>