<svg xmlns="http://www.w3.org/2000/svg" baseProfile="full" height="187577.412722" version="1.1" viewBox="14887.353157,2632401.409841,153226.817878,187577.412722" width="153226.817878"><defs><style type="text/css">polyline,line,rect,path,polygon,.polygon{fill:none;stroke:#000;stroke-width:1px;stroke-linejoin:round;}</style></defs><g fill_rule="evenodd" transform="scale(1,-1)"><g class="hogares departamen mujeres departam_1 toponimo_i tot_pob varones viv_part viv_part_h" id="34007"><polygon class="_34007" id="None" points="15082.0208343,-2632377.30448 15214.5035041,-2632995.51446 15414.1933987,-2633598.40418 15791.2159613,-2634107.09393 16351.4403532,-2634362.71959 16984.9466511,-2634879.33659 17096.2839991,-2635508.5889 17523.7267267,-2635981.44282 17995.7744099,-2636406.65616 18393.7307257,-2636905.26339 18895.2127312,-2637284.74583 19466.4039027,-2637549.5264 20106.4526296,-2637541.43457 20720.1352308,-2637972.72078 20626.4855319,-2638542.19835 21252.967009,-2638703.64594 21791.2705051,-2638807.13124 21886.1187237,-2638826.48342 22490.2700114,-2639010.99761 23030.8832439,-2639326.00322 23073.2023821,-2639358.77429 23539.4216672,-2639708.75534 24030.3990199,-2640124.42209 24510.5144899,-2640544.37514 25008.5795076,-2640963.83061 25440.0489216,-2641429.524 25690.2404932,-2641990.01801 25807.4612444,-2642623.52704 25908.5628025,-2643260.47132 25993.7284365,-2643889.36902 26120.1467479,-2644512.13972 26422.6537702,-2645123.57412 26640.2453698,-2646954.8991 27024.7729217,-2647445.79842 27487.9654835,-2647712.97296 27917.2209596,-2647681.18659 28237.5395755,-2647480.74965 28631.2452649,-2647299.74916 29020.5004404,-2647491.61494 29401.0004464,-2647746.09332 29610.4470309,-2648022.24788 29698.1127831,-2648415.02546 30071.4826879,-2648401.74307 30565.0069399,-2648475.46484 30977.4612227,-2649011.47377 31404.8150135,-2649110.46739 31569.2510813,-2649373.88235 31849.2665424,-2649359.17862 32125.2841397,-2649642.96749 32011.5794755,-2649771.84164 31748.6217262,-2649880.3814 31574.4902718,-2650079.7802 32034.4606252,-2650502.19756 32529.6680933,-2650899.68864 32567.71811,-2651365.6691 32953.8995193,-2651781.12966 33243.9180121,-2652382.35796 33729.5397175,-2652333.03311 34514.8408337,-2652213.5705 35114.8775973,-2652016.3962 35716.2938041,-2651688.46304 36278.2013492,-2651547.23088 37099.5789482,-2651605.90472 37723.534942,-2651670.52195 38418.9590776,-2651875.36303 38997.4283417,-2651864.89704 40076.9271465,-2652066.62562 40688.5763701,-2652355.0944 40630.0732164,-2652540.30997 40144.228635,-2652571.17424 40120.9089639,-2652711.51538 40264.6616938,-2653337.68549 40579.7121536,-2653472.68044 41030.0050781,-2653292.61918 41648.231555,-2653114.41258 42334.0067186,-2653440.7373 42383.8048595,-2653889.37803 42863.2859226,-2654288.24133 43423.2514871,-2654277.27622 43928.4904943,-2654172.53234 43921.4360521,-2654676.11578 44100.8118023,-2655200.99341 44469.8613727,-2655467.19222 44147.7752178,-2655835.79019 44030.1023613,-2656244.64328 44136.0642338,-2656694.21549 44369.9160715,-2657294.41117 44541.9729607,-2657770.59018 44782.4997366,-2658512.77931 45169.5512094,-2658816.37953 45760.1242792,-2659272.49637 46208.0663569,-2659297.52598 46603.3280901,-2659023.18699 46938.8930223,-2658863.24759 47237.1995457,-2659087.97636 47727.3821107,-2659107.3494 48593.1795176,-2659396.20362 48277.3289216,-2659754.64592 47996.846569,-2660327.62549 47908.4592275,-2660964.63683 47969.8325196,-2661587.02794 48222.6461795,-2662177.67811 48591.367181,-2662693.2783 49038.7160859,-2663147.83052 49539.199226,-2663539.54639 50019.4779674,-2663940.29816 50261.3885552,-2664335.17797 50067.0424619,-2664873.84237 50286.9064517,-2665157.08718 50732.0012237,-2665368.23915 51213.5502753,-2665598.83163 51350.2115271,-2665867.91531 51170.5603051,-2666027.53946 50848.7265114,-2666339.76464 50975.7667562,-2666621.58618 51047.1064043,-2666846.58584 51062.5489224,-2667070.6411 51184.4299058,-2667265.30485 52981.1777895,-2667288.80141 53179.1056159,-2667311.74585 53473.5591069,-2667523.56702 53727.4834558,-2667775.91914 53944.1524638,-2667917.06535 54189.6440922,-2667793.52809 54214.9824552,-2667780.85321 54395.777499,-2667527.91819 54993.1913894,-2667278.39522 55441.1284675,-2667242.02933 55422.244277,-2667523.39271 55306.719981,-2667764.53758 55321.731032,-2668062.91891 55640.9342901,-2667899.42801 55885.7731002,-2667716.55154 56205.0150788,-2667590.47369 56464.1278217,-2667724.45373 56534.5469482,-2668042.2446 56828.084701,-2668401.23271 57085.1413887,-2668721.82406 57359.6982574,-2669061.88046 57692.0473077,-2669327.50396 58036.2912482,-2669482.55801 58333.485827,-2669748.65488 58652.8048637,-2669994.18346 58779.8013901,-2670256.52212 58962.9677499,-2670520.79203 59221.8538403,-2670673.72011 59520.6705529,-2670603.07267 59802.0279185,-2670532.41173 59911.4971811,-2670720.41279 60211.5166983,-2670594.36588 60550.1355253,-2670412.38067 60849.029905,-2670416.55254 61215.964291,-2670832.33452 61561.6599975,-2671471.16319 62096.5436865,-2671926.66382 62326.8477336,-2671481.83374 62052.4940652,-2671067.97808 61869.8047077,-2670766.79492 62246.074235,-2670566.80893 62821.7831668,-2670507.93067 62951.1542472,-2670838.0246 63002.6103257,-2671155.31761 63129.1869793,-2671474.51416 63312.3187839,-2671719.81575 63536.1118659,-2671723.07675 63727.5937761,-2671371.10802 64008.424599,-2671299.96474 64417.4361442,-2671399.33464 64790.8675051,-2671367.0186 65170.3795791,-2670925.04451 65418.2076048,-2670536.60645 65735.3032398,-2670559.22656 65919.1194775,-2670748.64243 66044.0269485,-2671160.64549 66073.7863841,-2671702.47429 66067.513659,-2672150.03957 66210.4523742,-2672618.39748 66429.8095579,-2672920.03896 66597.4717658,-2672940.81711 66974.8641099,-2672647.53515 67231.1402602,-2672949.6444 67528.6688817,-2673085.01889 68216.2209182,-2672744.71888 68912.2563368,-2672880.49214 69299.94132,-2673146.52432 69614.0618709,-2673394.64866 69898.4593945,-2673560.30753 70192.951364,-2673954.60588 70862.2275413,-2674141.98149 71377.5522917,-2674388.99307 72059.348191,-2674614.41699 72369.8627052,-2674867.61555 73278.144396,-2675535.08512 73081.8400802,-2676241.24755 72931.2917417,-2676351.16469 73115.8073007,-2676503.12844 73452.1292532,-2676536.66116 73645.8290239,-2676848.45636 73633.3207614,-2677232.31815 73847.3579792,-2677558.00767 74036.4185504,-2677792.62726 74529.052918,-2677950.47103 75090.2840862,-2678494.39853 75378.8315093,-2678773.61926 75586.9739336,-2678520.46522 76034.4276126,-2678596.27681 76140.1698192,-2679026.70456 76022.1836528,-2679454.8851 75868.4113766,-2679806.76475 76009.9501062,-2680331.44629 76640.5915023,-2680601.12389 76710.1425025,-2680994.1546 76986.5178371,-2681203.38426 77509.1219457,-2681229.21094 78082.7335248,-2681573.27576 78563.0334106,-2681897.49676 79097.6366202,-2682389.75217 79748.9852676,-2682454.86722 80876.0618855,-2681929.74981 81569.4728236,-2681715.43769 83035.4456668,-2681676.06677 83817.5788782,-2681943.9828 84163.2073569,-2682312.82469 84430.5568498,-2682717.75474 84708.7393973,-2683198.17466 85188.0832131,-2683909.33742 85743.1099674,-2684196.52756 86335.0298195,-2684465.73053 86816.6314636,-2684677.17514 87272.0264029,-2684432.10189 87223.6595563,-2684887.70704 87234.0502782,-2685465.33339 87608.955039,-2685284.33439 87912.7429927,-2684859.99657 88337.5441539,-2685126.8722 88257.9188473,-2685498.57778 88104.6135565,-2685794.05685 88024.9772418,-2686165.26576 88094.0295946,-2686557.7522 88392.990884,-2686487.57187 88772.0370192,-2686008.7767 89297.207385,-2685736.32434 89346.1774426,-2686240.05966 88797.6995136,-2686847.24404 88944.5233547,-2686998.21418 89316.8996262,-2687003.76693 89871.4427528,-2687327.83304 90466.1059485,-2687410.44196 90797.8851502,-2687676.40514 91090.3644802,-2688052.65998 91428.8162677,-2688093.56 91496.6621369,-2688282.13165 91581.2091956,-2688916.48889 91803.0341911,-2689030.45065 92101.0935603,-2689035.57904 92473.4410873,-2689040.62469 92786.9105238,-2689097.67507 92840.9635615,-2689381.36211 92668.783354,-2689714.25561 92348.3567029,-2689970.02535 91900.5293061,-2690038.39574 91638.7747909,-2690127.98783 91632.1000537,-2690593.37393 91904.2963746,-2691081.86912 92157.8193247,-2691606.78309 92503.92412,-2692170.48539 92479.2615118,-2692598.47663 92362.7004344,-2692931.81492 91985.069977,-2693298.89346 91438.7315173,-2693757.45993 91434.8413323,-2694036.78882 91690.8476454,-2694338.25157 91986.0665436,-2694606.70265 91925.4831162,-2694900.08405 92090.5606287,-2695070.46601 92594.2693939,-2695021.44253 92887.0590666,-2695105.47499 93183.5610703,-2695419.75416 93346.557012,-2695835.99815 93079.506472,-2695949.68851 92839.3006037,-2696105.00754 92705.7260871,-2696364.53532 92739.6796995,-2696588.45095 93296.120599,-2696926.34491 93435.7988701,-2697417.5302 93244.6939211,-2697749.97211 93372.1427395,-2697956.30334 96561.9808471,-2699461.70824 97033.7631952,-2700256.14375 97442.6262369,-2701046.85419 97927.5192159,-2701828.43887 97935.7476999,-2702378.12656 98405.1909575,-2702840.5537 99221.2717791,-2703671.13007 99593.0697509,-2704384.07305 99700.4835416,-2705383.6453 100004.636507,-2706261.01043 100575.522373,-2707173.72688 101275.724921,-2708013.48627 101397.724934,-2708229.4066 101626.840527,-2708637.23641 101776.555485,-2709040.32399 101954.462715,-2709514.90336 102616.966454,-2710095.95338 103104.409522,-2710639.06125 103940.843605,-2710449.93893 104580.488159,-2710406.95863 104564.077114,-2710929.37861 104454.891625,-2711511.74924 104970.79274,-2711721.01807 105283.773399,-2711514.76454 105646.735737,-2711436.71636 106020.318666,-2711258.16706 106261.285038,-2710858.53316 106577.446238,-2710561.96566 107111.810941,-2710604.7096 107375.595638,-2710333.5529 107682.851141,-2709959.97451 108422.018073,-2709947.09221 109155.471886,-2710544.53135 109493.207556,-2710774.27585 109950.016552,-2710851.60757 110492.48326,-2711023.22686 110938.536806,-2711434.84504 111390.388732,-2712087.06197 111846.141599,-2712586.12781 112385.696697,-2713254.79415 112724.777284,-2713814.46945 113371.881108,-2714372.90751 113817.189432,-2714758.09356 114428.41739,-2715237.7764 114910.673965,-2715290.43025 115532.138924,-2715400.95404 116024.399328,-2715657.68896 116390.414476,-2716076.99882 116526.593594,-2716371.21882 116978.213496,-2716750.71579 117278.139737,-2717115.56203 117713.458622,-2717412.27243 118549.062015,-2717569.54507 119104.743965,-2717804.52208 119972.711106,-2717793.8967 120867.321436,-2717747.62698 121560.175299,-2717617.3563 122194.683947,-2717715.02002 122730.738386,-2718128.97077 122995.50594,-2718634.33429 123692.225569,-2718377.35398 124794.498361,-2718273.86012 125305.882072,-2718178.13548 126164.094148,-2718089.53311 127172.572721,-2718467.647 127768.040733,-2718640.16056 128352.422703,-2718685.40155 129004.690914,-2718655.45772 129697.206572,-2718551.11411 130269.082996,-2718621.62639 130719.991698,-2718916.8362 131023.744071,-2719347.77922 131474.434066,-2720013.26479 131852.765549,-2720191.91179 132197.869043,-2720534.45939 132763.172718,-2720795.50787 133298.27213,-2720430.99308 134292.869557,-2720463.08662 135077.347819,-2720273.40075 135515.797404,-2720516.60965 135923.15102,-2720568.34432 136303.715292,-2721028.46551 136800.650314,-2721453.88613 137278.981565,-2721276.36863 138046.495323,-2721596.4348 138497.511149,-2721457.56535 138955.23702,-2721116.19553 139440.059359,-2721132.83801 139953.246287,-2721034.06699 140671.997678,-2720918.50352 141078.98122,-2721327.0172 141511.6212,-2721366.56405 141705.835935,-2721704.87085 142049.331768,-2722150.05625 142470.842596,-2722113.67641 142818.133037,-2722455.60381 142941.00366,-2722957.36953 143292.316228,-2723002.20431 143586.749474,-2723500.58801 143923.371956,-2723589.6848 144640.393534,-2724046.15982 145181.94151,-2724113.98415 145370.151402,-2724442.47232 145750.22066,-2724684.28978 145957.813407,-2724958.41116 146275.110404,-2724902.55644 146636.492207,-2724907.73083 147407.160901,-2724798.13447 147651.597419,-2724545.55162 147846.303396,-2724638.1727 148131.89021,-2724702.79993 148143.8046,-2724929.16198 148491.920129,-2724985.03502 148912.749684,-2725066.24359 149120.628161,-2725280.55506 149252.797497,-2725416.80189 149512.318727,-2725300.80844 149692.291405,-2725348.50461 149930.959728,-2725533.04002 150201.400431,-2725582.1488 150514.723846,-2725842.78088 150845.777824,-2725877.21043 151117.123564,-2725835.61476 151417.58855,-2725915.75369 151856.425921,-2725816.08559 152262.683677,-2725867.30781 152551.813057,-2725645.35196 152944.583547,-2725590.34089 153381.873529,-2725611.7848 153445.157253,-2725620.94587 153786.834424,-2725722.82804 154161.838021,-2725849.16973 154461.895395,-2725959.20812 154839.883055,-2725919.06435 155227.351222,-2725748.12422 155598.648997,-2725507.89874 156005.346066,-2725312.50265 156312.332123,-2725140.86726 156780.008577,-2725162.94242 156928.222821,-2725285.76528 156970.926411,-2725482.32962 157133.341818,-2725710.36216 157312.373781,-2725848.24862 157506.059419,-2726002.15751 157653.600921,-2726215.16677 157877.035312,-2726399.11461 158117.47942,-2726463.01533 158099.240845,-2726688.70939 158110.45856,-2726960.39389 158182.988012,-2727172.047 158299.540966,-2727460.16189 158535.819068,-2727780.23794 158817.463636,-2727978.96108 159180.350202,-2728030.40242 159481.544244,-2728049.72434 159674.835054,-2728233.52367 159883.000302,-2728432.34149 159984.608896,-2728720.37508 160130.928722,-2729039.01666 160339.416225,-2729222.87692 160609.662076,-2729301.35948 160879.293008,-2729410.74463 161223.658988,-2729581.76327 161597.989244,-2729737.97803 161851.432868,-2729952.43271 162088.732082,-2730212.17941 162221.128866,-2730470.4315 162469.045154,-2730726.88358 162876.928062,-2730976.77992 163281.585636,-2731148.55715 163589.346119,-2731337.5418 163968.626549,-2731746.15547 164278.799071,-2732037.18432 164755.942639,-2732375.2518 165053.514078,-2732696.02385 165094.574931,-2732982.77052 165059.626135,-2733328.97175 165070.620247,-2733600.63655 165202.512539,-2733858.38819 165624.985699,-2733834.36878 166124.94632,-2733645.74891 166485.767363,-2733695.71846 167160.475409,-2733931.48695 159219.632172,-2742325.30862 153569.818322,-2748363.25559 150386.091357,-2751764.60517 150150.480867,-2752017.52215 148370.980457,-2753885.41293 143186.754774,-2759328.2124 143102.099548,-2759416.36535 133506.081646,-2769748.11662 133506.504018,-2769754.08481 131625.139105,-2771780.28534 119066.469284,-2785228.38304 114803.324073,-2789800.06378 114652.524435,-2789962.0052 113833.380172,-2790853.88987 109603.400884,-2795394.30972 107049.132328,-2798110.10288 87139.376331,-2819277.65688 87114.1369479,-2819157.71138 87062.5361191,-2819065.47601 86873.7099274,-2819046.61854 86667.4966885,-2819097.59778 86387.7710123,-2819158.7292 85932.4083888,-2819217.07133 85604.080747,-2819169.41908 85271.6996117,-2818959.29803 85154.0191988,-2818791.20969 84992.0367126,-2818414.96023 84977.7108514,-2818124.12133 84946.177901,-2817816.33497 84959.6697963,-2817513.20402 84958.5293757,-2817280.32835 84954.9700806,-2817168.21806 84961.1497886,-2816988.98985 84995.2199715,-2816808.43973 85013.6720675,-2816673.23688 85087.684733,-2816536.39424 85190.1878864,-2816393.22494 85316.8506893,-2816316.67175 85455.6359268,-2816262.20386 85560.8620774,-2816236.65541 85674.0512866,-2816261.24363 85837.4815983,-2816298.31328 86039.8138315,-2816107.31372 86156.4509968,-2815885.42941 86141.2160822,-2815656.46518 86078.0436948,-2815433.90267 85912.6710777,-2815136.55378 85659.9788939,-2814643.28615 85459.6528818,-2814319.03671 85291.9195762,-2814152.91921 85187.0463892,-2814004.39804 85059.8400566,-2813884.96255 84944.5053537,-2813770.66272 84772.7014931,-2813652.54126 84567.9222536,-2813540.87736 84352.6659771,-2813462.93678 84137.07256,-2813390.49169 83963.0912228,-2813384.64763 83823.7290493,-2813411.1984 83708.9670717,-2813324.80834 83678.7562753,-2813247.39706 83686.5022501,-2813129.46691 83878.0326447,-2812977.69282 84059.1869863,-2812837.69604 84353.4916821,-2812560.20671 84687.2689562,-2812090.54303 84790.474422,-2811767.81766 84810.3653507,-2811503.40475 84860.244847,-2811291.97148 84908.180179,-2811200.78891 85000.2139246,-2811091.3511 85070.4994794,-2811005.49536 85101.0818069,-2810892.38162 85085.0874122,-2810747.22493 85037.423983,-2810652.87319 84972.6714459,-2810537.08061 84852.4334105,-2810450.85008 84721.8937366,-2810412.80031 84468.8611515,-2810381.3489 84139.1502501,-2810413.49822 83749.6291278,-2810514.73711 83440.1436013,-2810658.00769 83214.2610437,-2810998.31224 83010.10484,-2811492.08913 82970.9509966,-2811678.27425 82936.5453998,-2811847.86138 82787.8625376,-2811930.54282 82594.9552416,-2811857.92233 81923.8661061,-2811162.48723 81675.4004954,-2810718.93673 81524.7005199,-2810555.29544 81277.8980339,-2810337.6249 80822.2099607,-2809936.57535 80472.21109,-2809661.08968 80277.0588061,-2809503.73936 80178.0974483,-2809394.93015 80148.1245026,-2809317.00899 80212.1139328,-2808830.34006 80237.9246738,-2808571.72669 80269.7893363,-2808306.95065 80294.4443595,-2807992.01325 80279.1616714,-2807684.23535 80234.8582166,-2807500.50168 80195.5383707,-2807316.62142 80174.1430521,-2807165.63047 80192.0421638,-2807002.51222 80265.5921223,-2806832.27248 80322.3605867,-2806668.01245 80395.3402118,-2806469.86033 80788.8940211,-2805936.60998 80828.4723802,-2805755.89959 80830.4264774,-2805627.1664 80695.5964243,-2805434.6217 80441.86268,-2805184.22278 80109.2187571,-2804947.11185 79931.2683858,-2804797.72534 79793.1963869,-2804681.58099 79405.3257625,-2804457.55847 78868.5646621,-2804131.17077 78390.72787,-2803713.77203 78078.9430468,-2803414.19073 77666.6577717,-2802919.04956 77452.6275461,-2802891.41218 77314.2482157,-2802951.83119 77205.3254735,-2803055.77605 77007.3884376,-2803398.24727 76729.0081568,-2803837.84603 76480.2269137,-2803968.84004 76131.5698731,-2803917.22344 75957.208449,-2803728.81689 75884.3486651,-2803523.46626 75776.4321473,-2803100.68245 75677.6706086,-2802598.82387 75607.7243977,-2802135.52271 75554.5757717,-2801845.30069 75466.8836202,-2801533.64645 75335.9940754,-2801262.66067 74942.7859813,-2800865.19179 74721.7939818,-2800787.37486 74423.2181897,-2800734.27551 74257.7409411,-2800840.37556 74073.6071539,-2801058.74877 73929.8105384,-2801274.94328 73705.7716318,-2802471.5992 73612.1619436,-2802715.25549 73298.1985364,-2802724.46151 73126.2350112,-2802583.85853 72911.9337388,-2802360.20139 72695.501598,-2802046.82398 72101.894918,-2801509.07055 71693.2130861,-2801341.48161 71294.6115751,-2801330.71543 70916.648086,-2801437.05997 70532.8776566,-2801549.56084 70105.3909226,-2801702.24986 69304.9167993,-2801944.18219 68752.1266165,-2802221.25807 68318.829137,-2802346.1887 67746.28224,-2802536.55542 67340.3910204,-2802660.68487 66973.141413,-2802750.26159 66643.0276629,-2802770.91046 66243.3358767,-2802715.28275 65969.5373989,-2802606.58109 65621.1473414,-2802429.23062 65300.0069817,-2802126.37265 65063.0200597,-2801852.47368 64705.010781,-2800989.00648 64469.6016832,-2800777.41085 64220.1493184,-2800784.71454 63816.8247361,-2800869.35334 63629.9158492,-2801249.45314 63508.8586722,-2801731.88373 63472.585382,-2802273.18998 63456.5242506,-2802738.08135 63339.9484284,-2803058.26167 63142.5696863,-2803123.40781 62854.1758059,-2803010.6393 62717.4743899,-2802780.18738 62604.1964455,-2802446.78523 62557.8704839,-2802099.94799 62520.547064,-2801634.62071 62512.8730727,-2801125.52483 62551.8095751,-2800470.40046 62562.1665723,-2800312.96165 62533.8821332,-2800053.8922 62288.2958373,-2799852.56265 62006.1124474,-2799798.46455 61538.2878802,-2799801.67819 61152.6012447,-2799782.03505 60798.9687475,-2799792.38234 60416.6185222,-2799886.87842 60034.9215685,-2800012.28502 59632.7446829,-2800128.31447 59555.6479634,-2800136.05785 58978.9083475,-2800193.84029 58761.8178289,-2800242.09704 58574.3478404,-2800237.10627 58107.9786261,-2800282.18073 57794.785422,-2800259.91567 57472.483945,-2800258.86932 57158.4413916,-2800216.17453 56938.8538356,-2800170.71585 56831.796047,-2800134.93558 56739.3390167,-2800103.71682 56569.5029691,-2799993.94352 56494.351147,-2799923.30582 56396.9403475,-2799790.95937 56341.1504032,-2799657.39531 56283.8868813,-2799481.96845 56238.3156679,-2799348.10526 56273.8579778,-2799139.03382 56270.2650619,-2798973.51155 56172.1925493,-2798861.13843 56047.9278479,-2798885.22582 55903.966751,-2798952.29388 55781.7727222,-2799038.68087 55661.3727854,-2799177.89702 55487.2036361,-2799286.75745 55344.7007913,-2799395.19112 55130.3266855,-2799536.65778 54882.0578584,-2799585.32575 54693.9822549,-2799559.89489 54430.9881039,-2799463.31808 54229.5900303,-2799323.53162 54036.702248,-2799142.08776 53864.1380475,-2798939.09551 53755.9951943,-2798806.55856 53583.6806964,-2798603.55777 53400.5927198,-2798390.39434 53287.8653467,-2798237.53545 53227.6102646,-2798155.98121 53126.0030929,-2797888.55009 53032.9305927,-2797614.38352 52576.0816995,-2796679.82916 52069.8732087,-2795840.00163 51559.6386285,-2795135.4848 51019.561708,-2794416.86415 50484.5390344,-2793973.98169 50048.4110048,-2793688.85709 49820.8599568,-2793550.31215 49389.3543437,-2793244.09399 49268.7318297,-2793145.33496 49138.4367205,-2793031.39147 49020.6161793,-2792926.06432 48858.1024888,-2792785.12048 48756.7350972,-2792610.96204 48553.2647084,-2792331.51552 48473.3956755,-2792253.0197 48351.5093846,-2792110.88964 48285.636653,-2791887.7994 48191.4774678,-2791738.37471 48119.581601,-2791616.73909 48050.8366058,-2791500.49956 48023.9702737,-2791417.46473 47977.5489782,-2791322.52677 47933.018243,-2791283.91105 47915.5752005,-2791216.0679 47922.2701951,-2791129.06163 47932.6556784,-2791057.41422 47952.1883347,-2790991.48734 47984.8827517,-2790940.64341 48025.7996204,-2790846.65336 48091.3070965,-2790740.47207 48180.5993319,-2790620.12746 48270.1408435,-2790499.77584 48348.8946734,-2790317.37473 48420.0358236,-2790199.05633 48442.1968885,-2790120.58078 48465.1323347,-2790051.56203 48493.8633993,-2789967.40722 48521.3556824,-2789857.84413 48557.4943967,-2789711.11002 48592.2689111,-2789517.51831 48588.2048686,-2789377.94203 48560.029458,-2789267.00669 48526.5979872,-2789181.16979 48490.187655,-2789104.39994 48441.4918879,-2789025.49315 48382.8605511,-2788930.91039 48325.4917466,-2788879.69596 48246.9150058,-2788854.04434 48159.8032974,-2788835.12695 48046.3979403,-2788787.04018 47893.0091396,-2788745.10623 47805.8220114,-2788732.17775 47692.6971638,-2788676.59872 47626.4807097,-2788647.09448 47551.9178492,-2788630.80489 47489.5799101,-2788623.13991 47377.9175675,-2788626.38991 47311.4397649,-2788587.91261 47254.4597293,-2788558.63823 47179.7224994,-2788536.36652 47061.5529458,-2788530.32631 46956.4575679,-2788536.37848 46803.8915003,-2788531.33925 46686.3479072,-2788538.25258 46558.8803487,-2788538.46984 46447.3790556,-2788538.72133 46230.2657555,-2788553.02263 45888.989561,-2788543.99544 45681.6826839,-2788466.70801 45545.6812125,-2788370.88068 45497.4781848,-2788308.91983 45472.4227303,-2788210.86168 45431.6515865,-2788061.37253 45379.4930232,-2787897.74574 45345.063357,-2787726.11917 45269.7186777,-2787537.22249 45220.5521006,-2787373.50824 45180.2725891,-2787249.44946 45150.9051216,-2787114.59578 45136.165674,-2786993.78547 45033.3706719,-2786864.55958 44940.3003441,-2786812.38424 44835.3294439,-2786745.58704 44720.3944053,-2786705.02366 44645.7919943,-2786670.27233 44564.4657124,-2786661.66075 44450.9654639,-2786670.44936 44316.8961238,-2786718.25368 44255.1567216,-2786756.96982 44190.81481,-2786817.71464 43973.1048892,-2786803.09032 43583.6304961,-2786741.07232 42999.7159838,-2786649.78137 42792.579341,-2786621.37714 42643.7251997,-2786546.87262 42560.2029276,-2786479.9483 42490.482629,-2786398.65229 42396.2045161,-2786313.57961 42327.5827641,-2786278.65287 42245.2516908,-2786244.12459 42166.9406162,-2786201.99526 42093.6610957,-2786152.73441 41993.3773034,-2786135.69177 41896.5685696,-2786118.04912 41775.4483568,-2786019.28637 41613.3971849,-2785902.75311 41479.422643,-2785790.89182 41394.0248838,-2785719.52985 41226.3278787,-2785563.24391 41082.5022117,-2785404.26795 41029.699995,-2785329.96237 40971.8286651,-2785244.32823 40913.8879978,-2785147.71916 40869.4419849,-2785077.66106 40820.6221074,-2785020.20367 40767.9733531,-2784968.34588 40755.7373181,-2784907.82974 40754.494829,-2784856.47422 40760.8957001,-2784793.42087 40771.328274,-2784731.74725 40815.1415445,-2784685.56922 40889.7309111,-2784599.57938 41002.7119701,-2784538.41967 41054.2347667,-2784500.00104 41083.7210862,-2784458.72994 41104.0291256,-2784376.313 41148.0926414,-2784287.21879 41182.7793925,-2784218.85375 41224.9533749,-2784124.82514 41276.6666567,-2784007.06922 41337.7752633,-2783937.93707 41385.3091508,-2783822.29858 41432.0103714,-2783738.11781 41484.766281,-2783656.25603 41544.879249,-2783544.24419 41684.8693552,-2783322.14185 41817.5555722,-2783106.23959 41904.6484081,-2782952.53228 41964.9129318,-2782905.87814 42023.0692254,-2782812.38504 42067.5919066,-2782713.30059 42121.4707259,-2782609.95316 42181.048913,-2782479.4978 42207.5864825,-2782405.38371 42237.7504853,-2782318.69098 42282.8858871,-2782266.48935 42315.4636529,-2782194.19586 42348.0414566,-2782121.90243 42367.3751036,-2782023.05091 42376.9154501,-2781921.98899 42373.4110069,-2781809.83016 42397.0146169,-2781703.37086 42404.6413743,-2781622.32201 42408.0375035,-2781524.43215 42419.2397541,-2781411.84671 42417.7300022,-2781299.63015 42391.5593251,-2781223.05457 42370.2615373,-2781133.8642 42331.4979464,-2781053.16348 42278.4476205,-2780987.3463 42221.8685854,-2780946.07926 42180.9162487,-2780875.91949 42165.1390334,-2780805.02936 42123.9299203,-2780717.41419 41997.3326109,-2780584.3779 41903.9232751,-2780468.83929 41848.6691814,-2780378.63749 41766.4951851,-2780289.21634 41690.9540526,-2780222.05487 41608.2786399,-2780175.55665 41539.9451103,-2780159.07767 41463.1152743,-2780159.31003 41394.5259372,-2780194.22917 41321.7026087,-2780220.78916 41292.2904332,-2780256.06901 41258.5216922,-2780295.96569 41200.1553844,-2780322.1065 41160.2921733,-2780349.70648 41129.1137618,-2780401.50271 41083.7240258,-2780462.19316 41027.6346218,-2780549.63792 40995.3407578,-2780640.38414 40896.2269736,-2780741.05171 40839.1151309,-2780819.04659 40812.7671767,-2780891.15974 40784.9602433,-2780981.77619 40745.7638755,-2781101.1629 40723.0521508,-2781247.01449 40689.668194,-2781351.76344 40643.8756889,-2781467.35034 40586.5502859,-2781641.14966 40514.0368228,-2781772.97958 40425.7620068,-2781903.2713 40341.82702,-2781959.59321 40284.3784596,-2782000.17818 40219.6066036,-2782020.51885 40177.4064894,-2782062.15825 40143.1415689,-2782059.16101 40094.0943829,-2782062.58012 40050.3206376,-2782041.39772 40009.6537873,-2782024.11673 39974.0478824,-2782000.70146 39932.2682204,-2781979.46113 39891.2541464,-2781950.21537 39888.9540505,-2781870.94916 39894.0017793,-2781786.97921 39856.5057347,-2781612.43703 39805.5038729,-2781479.69939 39759.0230611,-2781408.20126 39723.4351218,-2781376.80199 39683.4795104,-2781341.03885 39629.6552215,-2781300.18956 39583.16086,-2781262.62024 39549.2633423,-2781220.69385 39528.0205336,-2781176.40452 39517.8245803,-2781117.32517 39516.0424238,-2781064.4881 39529.3319158,-2781015.20546 39544.3483925,-2780973.85595 39571.3874628,-2780934.15353 39598.2309824,-2780870.50721 39631.158115,-2780810.17713 39634.132906,-2780706.30933 39630.2625784,-2780633.076 39628.5998359,-2780575.74503 39604.5212068,-2780511.08097 39556.6392803,-2780425.65236 39535.7853408,-2780257.11317 39542.8709146,-2780071.29847 39535.5875554,-2780026.60421 39533.5782839,-2779957.30851 39510.9228337,-2779821.25326 39530.4080852,-2779718.90268 39538.9838074,-2779653.29172 39536.9170098,-2779582.00193 39557.1902562,-2779524.03507 39615.463824,-2779477.44032 39656.0972558,-2779398.92539 39679.571146,-2779296.45951 39682.2441827,-2779182.12296 39697.8971823,-2779093.85444 39701.5097068,-2779011.92233 39669.1957131,-2778938.51575 39621.0589675,-2778835.63086 39599.7705414,-2778763.90042 39575.0645728,-2778729.19115 39543.5092352,-2778699.17089 39500.13732,-2778666.00044 39454.06683,-2778634.405 39390.7897284,-2778620.27244 39304.65955,-2778626.7601 39246.1977612,-2778632.44593 39200.6220399,-2778609.31818 39154.9307276,-2778582.20215 39095.4321022,-2778577.93898 39048.8590472,-2778589.26764 38985.852513,-2778593.08934 38913.8941252,-2778580.70505 38841.8960144,-2778558.34284 38776.4725752,-2778556.24711 38753.1391962,-2778534.47042 38689.6160583,-2778511.86254 38620.4931707,-2778519.85301 38571.9871855,-2778524.75128 38440.1785367,-2778573.47666 38395.5992766,-2778584.74757 38334.6623383,-2778582.52178 38265.4632666,-2778596.50195 38190.0108894,-2778592.70096 38118.5467479,-2778588.78437 38075.3113821,-2778577.56334 38046.1868761,-2778553.95845 38009.1217376,-2778549.04502 37976.6408665,-2778555.9737 37936.2952627,-2778575.60421 37887.7594797,-2778648.3615 37855.1732877,-2778729.13895 37812.2588432,-2778789.25956 37766.9998492,-2778845.95547 37742.7408005,-2778929.9845 37706.2278932,-2779004.38956 37650.9511685,-2779068.36142 37598.0334687,-2779136.25666 37549.0136804,-2779278.38396 37476.3133519,-2779386.76962 37385.0731621,-2779544.09205 37321.704251,-2779604.30737 37249.8745507,-2779665.267 37178.7708028,-2779673.81467 37100.3261881,-2779704.52949 37041.881071,-2779736.66045 36973.9021898,-2779775.55433 36876.5885548,-2779800.82872 36795.5931555,-2779829.6218 36723.0945742,-2779841.70276 36629.1186763,-2779844.42705 36546.703134,-2779832.84517 36403.1648582,-2779804.0744 36274.5178299,-2779789.84084 36165.9534999,-2779788.49718 36090.286024,-2779768.73602 35983.3326869,-2779736.90852 35856.5311881,-2779726.11399 35764.0861765,-2779712.82662 35688.443701,-2779702.54496 35608.9247521,-2779704.8499 35533.7012298,-2779709.0262 35462.7117308,-2779721.56229 35399.7965691,-2779745.83966 35319.836637,-2779784.58234 35228.1569906,-2779797.71822 35090.9606612,-2779781.23711 34965.0972407,-2779733.99002 34893.261939,-2779700.14602 34807.6259883,-2779672.19069 34727.488609,-2779610.1456 34684.5876609,-2779533.04989 34623.9086023,-2779436.51033 34600.8092266,-2779345.36826 34573.4398642,-2779227.40522 34559.9905895,-2779099.05925 34563.6332043,-2778983.69036 34574.2879954,-2778895.06299 34574.9358134,-2778788.26352 34500.2835168,-2778691.62935 34425.2184841,-2778666.85951 34324.0508884,-2778679.77013 34090.4612974,-2778720.46829 33758.279513,-2778716.61998 33539.1444527,-2778662.09311 33339.8755154,-2778612.97816 33124.0513975,-2778629.70926 33018.0448733,-2778639.26706 32793.3945202,-2778618.33101 32653.702268,-2778601.91942 32362.825562,-2778525.51802 32243.0585321,-2778447.65244 32113.1770263,-2778296.22938 31948.8465409,-2778023.55144 31666.595043,-2777840.11369 31579.6143372,-2777765.78806 31539.9306648,-2777644.68456 31515.8684036,-2777546.08222 31434.1316791,-2777420.20831 31373.8009717,-2777301.19931 31285.4703172,-2777197.47156 31186.8705478,-2777135.45724 31078.5671703,-2777160.54837 31032.6214616,-2777297.10559 31031.9064201,-2777513.68922 31013.1384106,-2777606.54639 30908.5077016,-2777680.93215 30809.0889405,-2777676.82502 30706.9377063,-2777586.96986 30597.4166292,-2777483.85502 30501.0657278,-2777344.43092 30418.4258798,-2777204.60962 30328.947781,-2777044.0282 30295.916899,-2776902.7704 30303.9179512,-2776756.83187 30304.8222549,-2776641.53758 30306.088928,-2776504.27701 30292.6950214,-2776360.45482 30299.871303,-2776099.77135 30289.5282669,-2775863.04776 30220.2652739,-2775659.46568 30142.259451,-2775524.49875 30049.7620714,-2775397.4358 29929.608069,-2775271.67168 29788.7405384,-2775223.35205 29675.2597411,-2775155.77708 29610.1391951,-2775060.85514 29505.8204279,-2774878.74409 29466.8983579,-2774766.59711 29427.175026,-2774643.99426 29387.6787455,-2774477.47284 29376.3875317,-2774328.59867 29294.0485991,-2774181.77893 29232.365557,-2774076.27766 29201.1461175,-2773928.47849 29155.2305989,-2773816.03412 29110.7202248,-2773709.03803 29054.6223535,-2773520.54085 29022.836322,-2773422.15873 28968.2982548,-2773253.07721 28871.3808601,-2773085.22045 28811.0073689,-2772973.19328 28791.8695724,-2772803.08815 28858.6095277,-2772651.95825 28991.6796488,-2772577.25473 29087.9955786,-2772543.03443 29184.2882938,-2772525.28179 29295.22272,-2772522.076 29452.3966975,-2772538.99081 29595.6360345,-2772591.73694 29746.8049046,-2772651.23966 29876.1312623,-2772697.40156 30084.0900675,-2772762.24844 30342.4450735,-2772861.56581 30452.0280261,-2772889.33598 30560.22032,-2772912.15635 30675.1086168,-2772916.32044 30760.9310926,-2772924.81757 30882.1981972,-2772899.35683 31103.2415053,-2772864.5253 31204.6515759,-2772756.30766 31198.4121631,-2772713.07606 31177.1522033,-2772564.4932 31103.588669,-2772384.48866 30805.5499794,-2772155.08378 30620.5058698,-2772131.98842 30342.5247208,-2772104.59249 30042.9022702,-2772070.83566 29850.3780367,-2772047.95583 29623.2278116,-2772061.50499 29388.8952154,-2772068.2757 29212.4707585,-2772101.81607 29013.1663366,-2772086.1177 28792.2407321,-2772082.02189 28577.750615,-2772024.34692 28356.3862784,-2771987.8283 28233.635291,-2771927.50233 28118.1137193,-2771866.96732 28031.0115717,-2771805.61115 27900.6607651,-2771724.04702 27790.404297,-2771578.02955 27665.8428215,-2771446.3971 27576.0143931,-2771299.28995 27530.2843973,-2771201.80755 27468.7220592,-2771039.91151 27383.7953531,-2770941.56482 27265.4063001,-2770868.1366 27170.9935749,-2770821.46124 27062.3792184,-2770732.28117 26953.8709184,-2770664.05618 26837.480564,-2770582.08636 26685.9870321,-2770494.1437 26585.0667294,-2770386.27723 26566.864847,-2770257.06005 26630.7499064,-2770162.39984 26710.1639535,-2770095.73502 26764.6960814,-2770022.80246 26818.8252233,-2769935.90938 26828.4824982,-2769786.42704 26897.3202823,-2769699.10963 27022.8012051,-2769620.63658 27164.3482949,-2769606.07185 27300.0852402,-2769623.6112 27464.0735503,-2769625.86387 27613.3197847,-2769636.02707 27754.9667094,-2769624.95241 27897.6686477,-2769641.79144 28041.0036279,-2769680.5682 28192.7434814,-2769768.50332 28410.4121284,-2769884.47488 28620.0011613,-2769945.2902 28840.3160554,-2769885.03803 28952.8452955,-2769807.43881 29039.8474509,-2769562.91381 29038.8069928,-2769293.48578 28959.098023,-2769099.18173 28887.4343252,-2768941.571 28796.5907495,-2768862.8561 28706.2988951,-2768820.55196 28564.1352495,-2768787.72855 28431.1520527,-2768753.1431 28309.8569108,-2768743.17024 28173.8583147,-2768751.08663 28015.8406315,-2768800.0575 27817.6866912,-2768876.13482 27615.5433543,-2768926.37935 27451.1866699,-2768954.57541 27331.6934028,-2768998.44306 27157.2636781,-2769023.4369 26980.3644472,-2769032.03481 26835.6241098,-2769039.70468 26712.1213489,-2769013.82713 26549.6805039,-2769022.00771 26448.7154022,-2769050.86974 26305.576001,-2769105.40036 26161.8993273,-2769149.96639 26042.4813356,-2769213.79297 25947.3843979,-2769290.39116 25861.6359487,-2769353.74537 25793.9287313,-2769462.98729 25736.2172698,-2769555.47343 25666.7303905,-2769594.40598 25552.1240601,-2769574.25998 25479.7687381,-2769522.45457 25430.3342776,-2769443.53975 25358.9367177,-2769303.87972 25308.3848393,-2769177.59042 25251.0541273,-2769058.48284 25159.8521527,-2768932.8672 25062.5712678,-2768821.3992 24999.2722175,-2768728.91125 24915.0174311,-2768610.57982 24870.0324144,-2768443.70863 24783.8218452,-2768257.56678 24745.1323241,-2768084.02645 24673.659895,-2767924.40604 24642.8045662,-2767797.54724 24671.8012498,-2767635.02905 24759.3893789,-2767410.44023 24834.9295007,-2767226.61967 24885.3473397,-2767097.41761 24888.536987,-2766983.05085 24706.0667621,-2766729.32194 24589.3711417,-2766645.35812 24358.2314194,-2766564.1942 24025.9510474,-2766479.95707 23587.4174343,-2766431.71742 23398.5551304,-2766423.68773 23264.2422057,-2766421.07193 23142.5530272,-2766397.6322 23027.2069226,-2766360.53585 22927.0627295,-2766158.32257 22828.8969183,-2766033.40101 22754.8248875,-2766008.5883 22668.8077447,-2766071.44958 22545.1813505,-2766223.22386 22483.3969772,-2766399.6646 22447.0283975,-2766548.92445 22439.3724933,-2766750.7529 22435.4903171,-2766944.98722 22402.9673113,-2767115.09587 22341.2468209,-2767285.04846 22279.5648042,-2767464.98082 22194.3048383,-2767588.70379 22071.9218283,-2767722.97911 21896.420984,-2767936.13672 21760.7954986,-2768121.69629 21611.0605644,-2768207.35738 21517.0556123,-2768365.26859 21484.64022,-2768452.5367 21445.6661389,-2768520.03262 21421.631534,-2768595.08226 21386.6944343,-2768655.47534 21321.4900556,-2768713.24831 21255.9883924,-2768752.06653 21175.3937733,-2768795.31248 21072.0637803,-2768820.25089 20987.6957588,-2768845.14139 20921.877441,-2768872.99008 20796.0083755,-2768895.08553 20657.5248094,-2768843.18789 20620.5641875,-2768824.7915 20559.5448613,-2768794.11404 20473.0812071,-2768737.7213 20407.9290242,-2768676.22236 20294.9566114,-2768609.11607 20182.3534143,-2768511.55736 20085.8500088,-2768444.47474 20002.675416,-2768355.04965 19885.584549,-2768257.61975 19795.8079203,-2768172.8761 19665.19164,-2768082.32337 19592.9544251,-2767896.26646 19622.6195377,-2767774.14315 19674.4541976,-2767685.31576 19662.0534144,-2767497.53354 19528.2329661,-2767243.88451 19470.2807675,-2767033.96004 19395.9205893,-2766895.37275 19188.4109427,-2766786.07437 19054.3762683,-2766724.06345 18842.4309406,-2766625.37207 18692.2822415,-2766532.38497 18482.3632892,-2766478.04972 18318.5398116,-2766395.43706 18201.913497,-2766331.42607 18058.2845567,-2766248.23094 17941.1940359,-2766150.79642 17816.7202663,-2766039.60092 17680.0238692,-2765963.19198 17517.9380202,-2765940.91311 17376.372225,-2765938.00512 17120.153247,-2765904.96363 16710.060364,-2765701.68457 16654.3855257,-2765683.32612 16778.9177684,-2749735.02225 16779.5497036,-2748205.92594 16781.0790789,-2746393.34912 16781.3709576,-2745705.65712 16793.3936641,-2732430.81677 16649.6267912,-2723876.4137 16590.7163101,-2721508.66088 16590.1034541,-2721478.23706 16598.4519205,-2720857.19985 15830.8885827,-2675759.37413 15737.8018392,-2670344.85555 15082.0208343,-2632377.30448" style="stroke-linejoin:round;stroke:#000;stroke-width:1px;fill:none" /></g></g></svg>