<svg xmlns="http://www.w3.org/2000/svg" baseProfile="full" height="78538.7555406" version="1.1" viewBox="1962.006635,2998939.044460,79827.473305,78538.755541" width="79827.4733052"><defs><style type="text/css">polyline,line,rect,path,polygon,.polygon{fill:none;stroke:#000;stroke-width:1px;stroke-linejoin:round;}</style></defs><g fill_rule="evenodd" transform="scale(1,-1)"><g class="hogares departamen mujeres departam_1 toponimo_i tot_pob varones viv_part viv_part_h" id="34021"><polygon class="_34021" id="None" points="7155.50819157,-3002168.86867 11280.6735287,-3002165.21835 11909.6393569,-3002164.96287 15294.3939538,-3002158.13789 21893.211167,-3002145.74654 21960.8906955,-3002146.0581 23367.1918143,-3002142.9633 24288.998286,-3002141.75154 24288.8759,-3002130.31571 24255.634364,-2999166.03495 26188.3367454,-2999128.53661 32618.0398548,-2999103.70278 32626.498165,-2999103.74217 37476.7885095,-2999042.04508 42724.6305083,-2999010.03275 42799.2429138,-3000929.16866 48781.2180701,-3000936.73313 49357.0282327,-3000945.31411 49923.5046882,-3000946.94132 53690.221753,-3001012.34241 53698.1541505,-3001011.91257 53553.3452961,-3017644.38459 53540.0174044,-3019205.95858 53536.1895794,-3019637.2782 54165.0383961,-3019634.30956 54185.4458383,-3019634.68834 67709.0527859,-3019496.72193 75934.0403714,-3019540.6963 78336.8655799,-3019553.76387 79306.8232315,-3022455.04304 78851.6905746,-3022730.38843 78483.6714924,-3023017.3821 78124.7459496,-3023470.8807 77844.236088,-3023940.47944 77638.902171,-3024539.67477 77507.6662399,-3025003.11408 77442.3494485,-3025454.00633 77420.3283163,-3025824.00301 77420.4942377,-3025854.31251 77506.0262191,-3026482.34961 77657.7084348,-3026992.94871 77932.4324497,-3027490.35341 78442.2999998,-3027997.75101 78852.8116536,-3028315.24894 79231.936612,-3028903.83942 79608.1305443,-3029547.75009 80053.8418734,-3029945.3073 80507.4422335,-3030287.25859 81088.6091658,-3030689.80896 81492.5190277,-3031068.26367 81582.6989017,-3031634.86402 81308.7362518,-3032049.95336 80763.7098777,-3032325.33462 80085.4041673,-3032472.34238 79352.8735492,-3032564.17413 78717.9313899,-3032532.3687 78135.8272918,-3032403.72853 77550.6624261,-3032273.76147 77078.8492719,-3032298.61962 76734.4428991,-3032498.90983 76483.9530829,-3032789.48776 76365.2272443,-3033108.13687 76318.2020867,-3033410.92834 76329.2606073,-3033721.47136 76442.5875887,-3034002.54941 76635.2792332,-3034289.7126 77153.3725678,-3034610.22451 77613.1966138,-3034874.28158 78052.8413801,-3035096.69606 78421.2375373,-3035361.28564 78634.1778628,-3035627.93822 78785.680702,-3036006.80731 78836.8714162,-3036387.20279 78706.9973648,-3036909.74329 78540.4929846,-3037299.10656 78312.5466309,-3037646.61602 77851.8998017,-3038291.20808 77475.4000594,-3038956.5394 77219.0051714,-3039374.21816 77080.6010914,-3039840.59088 77000.0928176,-3040356.47196 77122.5275706,-3040657.91109 77301.5497654,-3041030.29816 77502.4534787,-3041366.68728 77785.8637011,-3041703.01153 78125.8054508,-3041919.42074 78515.6093298,-3042120.65956 78925.8490382,-3042350.09604 79209.7547947,-3042586.97327 79418.2166094,-3042952.25314 79582.1678996,-3043366.69889 79649.6379755,-3043725.81376 79694.3236113,-3044176.63976 79747.8629233,-3044761.17435 79764.999351,-3045162.81976 79889.4182168,-3045725.55873 80084.1535634,-3046111.95728 80177.6878777,-3046519.83106 80188.3077067,-3046992.41014 80086.6171165,-3047465.21235 79885.4687129,-3047882.85976 79564.8003419,-3048287.21566 79081.658219,-3048692.57829 78767.022732,-3048962.91003 78626.9392438,-3049189.82487 78530.799706,-3049528.63779 78605.2372074,-3049986.28403 78741.868259,-3050372.90252 78991.415362,-3050716.01411 79339.690086,-3051037.77193 79680.3644243,-3051365.90905 80006.1700506,-3051631.73957 80340.2044849,-3051974.64866 80401.1433364,-3052439.48423 80276.3915164,-3052799.755 79976.10047,-3053140.39253 79611.0767375,-3053361.84007 79085.1418946,-3053513.64145 78555.6948983,-3053538.89274 78006.1684315,-3053578.67265 77504.6228577,-3053533.29283 77088.368022,-3053466.30342 76494.9332987,-3053224.18481 75963.5257315,-3052890.15856 75039.0581676,-3052189.1005 74371.1072661,-3052092.23803 73751.8135232,-3052237.7523 73415.765011,-3052444.69058 73353.8220954,-3052727.47442 73279.4405888,-3053073.0823 73233.6137244,-3053566.74098 73264.4793081,-3053792.70677 73344.4167769,-3054151.17313 73509.2351579,-3054516.38515 73704.7883802,-3054943.02863 73854.3767411,-3055338.40582 73992.6581866,-3055978.97435 73990.8110001,-3056620.32424 74059.2641906,-3057247.3509 73986.896044,-3057889.61801 73969.9997232,-3058474.14037 73842.0406146,-3059081.70736 73774.9096277,-3059674.48031 73794.7443995,-3060329.55253 73861.9376582,-3060879.1052 74107.0002854,-3061525.68838 74322.8366954,-3062003.3807 74586.9347665,-3062508.7201 74781.8150907,-3063056.66146 74871.4704952,-3063634.28849 74813.2609353,-3064207.67928 74484.4850101,-3064715.53544 74170.4370268,-3065049.59081 73749.2951749,-3065334.90411 73243.1195776,-3065494.19475 72630.1937585,-3065449.62146 71894.6284892,-3065201.5598 71349.1584777,-3064867.39317 70925.8820797,-3064701.93665 70468.1494759,-3064776.01682 70054.5521986,-3065216.03304 69890.3322199,-3065661.62386 69957.7139954,-3066267.38575 70151.6838109,-3066815.9171 70465.8516697,-3067299.61426 71242.9293144,-3068322.3743 71197.1279953,-3068858.83733 70782.7160787,-3069274.5707 70279.5396513,-3069577.91089 69625.8585203,-3069829.95159 69178.0179983,-3070136.19688 68742.5961089,-3070379.61267 68285.0932149,-3070502.94976 67798.7363291,-3070464.81875 67262.0977099,-3070362.85612 66703.9218749,-3070240.21016 66197.4935191,-3070413.99323 65883.642272,-3070796.84603 65788.8986471,-3071248.58061 65813.8044203,-3071741.9007 66134.7353818,-3072113.37637 66510.8500582,-3072511.6135 66817.2714584,-3072988.79123 67048.1650518,-3073529.32502 67220.3549602,-3073979.64767 67279.2623825,-3074323.90205 67436.2850476,-3074733.79847 67522.9591889,-3075210.74577 67581.7528473,-3075856.79178 67458.7547119,-3076398.59793 67025.5861747,-3076843.30988 66663.4548265,-3077206.51528 66116.3159208,-3077390.09116 65511.5203234,-3077377.50055 64931.1891077,-3077241.73207 64317.9970792,-3077069.50241 63786.1148685,-3076839.54295 63372.4001653,-3076687.03616 63106.0149738,-3076564.12167 62790.2573922,-3076527.98245 62542.3321673,-3076602.92951 62304.4597591,-3076715.60464 62112.9367249,-3076865.97848 61365.9693303,-3077310.78446 61172.7438664,-3077171.36621 60890.7053112,-3077062.24608 60699.8737485,-3076903.29985 60735.0871242,-3076740.7316 60792.1708416,-3076640.59452 60992.2979427,-3076600.12771 61098.7096743,-3076591.22649 61254.359966,-3076555.71954 61334.8266311,-3076500.52638 61443.0787496,-3076417.43467 61527.0132673,-3076326.24806 61600.2357349,-3076248.08828 61688.9605516,-3076126.8018 61716.0820064,-3076033.30549 61750.4697524,-3075846.91993 61749.0063696,-3075757.99659 61729.3403675,-3075681.52163 61681.4477745,-3075625.0135 61613.3420141,-3075580.56816 61528.9338227,-3075555.92391 61440.1203088,-3075559.36966 61317.1043989,-3075600.51786 61215.4862367,-3075641.96832 61094.1781348,-3075704.90037 61008.5886829,-3075775.2944 60927.4337341,-3075862.84551 60873.9014655,-3075964.27557 60859.9976729,-3076045.1045 60861.962306,-3076241.40574 60838.9721341,-3076346.60772 60778.001687,-3076385.79958 60586.4932819,-3076420.31663 60448.3530465,-3076395.18008 60321.3071211,-3076292.35315 60244.3016544,-3076204.14698 60216.5654162,-3076125.63232 60150.1363127,-3076057.72214 60090.3448584,-3076001.87397 59986.7377668,-3075953.93147 59895.5238582,-3075914.25024 59797.6450122,-3075870.96139 59776.4092845,-3075810.98011 59780.8948839,-3075721.72278 59805.3471718,-3075633.84177 59848.6647476,-3075554.35988 59898.2344247,-3075488.95084 59959.1496487,-3075395.0653 60095.9888024,-3075182.09554 60282.8366906,-3074804.24554 60343.363345,-3074506.51305 60346.0585842,-3074232.87917 60321.4909554,-3073951.80992 60279.5474553,-3073787.56371 60208.2198702,-3073506.10844 60037.0903967,-3073164.56001 59796.3958998,-3072904.44372 59576.1620594,-3072744.13028 59461.8991693,-3072719.14936 59373.4128779,-3072728.53881 59274.5155929,-3072774.30855 59215.7429583,-3072888.95705 59182.0034661,-3073078.29511 59138.1561804,-3073407.92318 59123.8343063,-3073588.72462 59147.6011793,-3073748.01732 59154.5138434,-3073872.44404 59182.8534868,-3074078.22448 59181.8900959,-3074159.33044 59189.6575337,-3074290.174 59139.5624903,-3074355.1144 59082.3618337,-3074399.56503 59006.5160764,-3074421.68078 58851.0229773,-3074406.45273 58741.328894,-3074356.35783 58654.5758316,-3074298.52362 58560.0012131,-3074243.11285 58460.1110776,-3074172.58211 58363.6085853,-3074145.12466 58231.4407045,-3074111.19518 58157.5761703,-3074025.79164 58167.8487091,-3073942.17794 58212.6298876,-3073880.0185 58273.6050235,-3073805.02524 58388.1466769,-3073736.50432 58623.4534414,-3073630.94212 58740.4729609,-3073598.08683 58848.2111555,-3073559.28289 58894.1489333,-3073473.19201 58856.4192895,-3073384.78724 58752.3465267,-3073158.34923 58633.0703967,-3073052.09668 58504.4303127,-3072956.30888 58367.8854814,-3072888.30891 58249.2690211,-3072838.70605 58067.8311637,-3072830.88095 57976.285368,-3072847.89933 57875.3206183,-3072856.49007 57812.664329,-3072901.24273 57739.1289933,-3072964.99852 57703.7653866,-3073026.63447 57683.2464081,-3073086.94878 57586.9067297,-3073178.82399 57474.1805385,-3073235.30907 57350.0802308,-3073248.1691 57256.5785539,-3073212.08891 57188.6624692,-3073180.05752 57122.3994735,-3073106.16341 57103.7552092,-3073039.07265 57085.4138771,-3072977.43503 57078.1722228,-3072891.80917 57055.8940441,-3072768.23113 57056.5573068,-3072672.71812 57073.9385938,-3072564.83957 57068.5172232,-3072413.47286 57062.2688043,-3072300.93925 57045.0867566,-3072188.51544 57001.3265269,-3072107.90075 56934.2372835,-3072072.83834 56851.2844934,-3072029.70565 56747.1780225,-3072035.48547 56647.8626813,-3072064.86846 56505.7467492,-3072120.49703 56371.3973112,-3072172.71097 56060.5301629,-3072305.83662 55821.7121117,-3072402.14246 55543.0652245,-3072569.28588 55357.9525251,-3072656.64395 55273.5348306,-3072694.64973 55165.1814401,-3072785.20552 55071.3153732,-3072867.9951 54958.942578,-3072877.21897 54875.2430669,-3072811.74868 54835.1159325,-3072733.91286 54807.4380457,-3072656.38025 54810.3605454,-3072556.75953 54819.1228815,-3072436.92292 54846.6700781,-3072297.14639 54880.4148183,-3072152.55036 54900.2774561,-3072035.57892 54931.7087617,-3071903.04669 54975.864646,-3071775.77579 55044.7792111,-3071691.38955 55138.6770583,-3071555.3907 55192.9945387,-3071467.83693 55212.0861242,-3071372.79004 55180.8020307,-3071301.9225 55134.7808311,-3071270.16392 55050.9152311,-3071264.37549 54955.9771613,-3071265.16902 54868.3908618,-3071299.86749 54772.9547607,-3071336.49361 54649.3979763,-3071368.21579 54481.4980761,-3071389.46959 54347.7235502,-3071398.38622 54254.2724863,-3071381.19463 54177.1285866,-3071326.29796 54087.5633918,-3071262.64187 53924.4849086,-3071227.43297 53797.9799927,-3071241.91322 53560.9690843,-3071317.22955 53198.9849802,-3071560.11202 52916.4360576,-3071764.77138 52676.1116134,-3071941.72605 52363.265754,-3072084.41482 52233.6994762,-3072106.52662 52098.5156747,-3072090.15962 51996.7145876,-3072074.92333 51872.6043946,-3072025.11839 51809.5038649,-3071972.424 51773.809903,-3071911.74308 51838.8307444,-3071577.91468 52073.9507868,-3071011.35328 52256.4179886,-3070365.16488 52322.1479465,-3070223.26559 52376.0314175,-3070118.82488 52464.8964421,-3069999.51381 52526.379653,-3069924.49063 52626.0695169,-3069803.08788 52735.8400593,-3069684.11028 52811.6184831,-3069606.80304 52888.7443062,-3069553.78925 52935.3541525,-3069479.59212 52961.9112294,-3069420.43182 52945.4755424,-3069339.28811 52892.431327,-3069297.47253 52829.0564767,-3069275.62472 52612.2632288,-3069276.20989 52390.947758,-3069320.80899 52106.0305896,-3069393.30398 52054.0545216,-3069406.63017 51812.6018586,-3069455.82796 51674.2420122,-3069534.61782 51601.1890071,-3069607.29929 51554.6338026,-3069673.53809 51553.3041846,-3069757.16126 51561.0364671,-3069842.76839 51569.1256376,-3069943.77259 51578.5039097,-3070112.83788 51514.1832166,-3070181.55471 51426.3430512,-3070211.79086 51302.9756085,-3070184.31945 51243.5945769,-3070135.89211 51133.8996673,-3069978.35815 51019.7492874,-3069749.45621 50938.1909062,-3069453.5965 50883.8958278,-3069227.83884 50855.1055062,-3069022.54883 50863.2486622,-3068855.49402 50875.8525479,-3068706.09563 50919.6126865,-3068526.62262 50946.9041711,-3068328.17012 50978.5475138,-3068136.43919 51014.4909877,-3067923.58275 51026.1148749,-3067702.62562 51020.5457509,-3067530.36429 50882.9266048,-3067389.29273 50708.9359353,-3067345.72197 50605.4761688,-3067372.34329 50536.7748529,-3067415.93666 50498.9195167,-3067486.66541 50478.2261287,-3067544.00998 50454.915211,-3067607.9649 50460.1925213,-3067694.20696 50499.9837303,-3067775.05474 50539.1440914,-3067835.54707 50588.3545761,-3067924.82437 50600.873732,-3068034.03908 50587.4444005,-3068159.61196 50555.868404,-3068244.91296 50468.8504276,-3068290.02032 50394.5635704,-3068286.67866 50301.6845081,-3068279.89173 50207.8168802,-3068246.30382 50120.0636959,-3068215.3608 50027.549065,-3068152.35518 49963.5998813,-3068075.33262 49885.1405161,-3067951.86777 49755.4988863,-3067649.71344 49660.8470548,-3067503.27308 49524.0889601,-3067288.04705 49396.551949,-3067122.53978 49265.0487155,-3066957.25155 49181.273287,-3066845.51701 49135.8706418,-3066717.23332 49114.2646418,-3066605.53515 49069.2004604,-3066429.48816 49002.487206,-3066248.67222 48970.9701756,-3066110.66656 48958.5112618,-3065993.48795 49001.9639406,-3065907.03123 49069.2387997,-3065846.60862 49167.4203229,-3065778.50628 49232.9559942,-3065740.56034 49400.7476626,-3065645.22829 49743.8949988,-3065510.34502 49916.8189801,-3065355.05092 49909.4327797,-3065221.67906 49819.961069,-3065105.78335 49766.2862011,-3065052.55765 49697.2671368,-3065009.63077 49619.212032,-3064974.16674 49529.8016465,-3064976.13378 49457.2712649,-3065004.51928 49125.7850339,-3065224.2953 48836.779097,-3065402.92893 48370.1618301,-3065571.50741 48188.9399153,-3065577.06794 48080.8567608,-3065547.24513 48049.047897,-3065511.70596 47989.5113268,-3065415.53426 47987.406524,-3065323.64209 47992.295126,-3065250.26175 48010.5209893,-3065148.29162 48026.0740979,-3065051.94037 48024.136279,-3064954.07097 47986.5060015,-3064822.3691 47892.3178593,-3064729.10994 47706.7673601,-3064602.61307 47554.2602664,-3064533.96763 47385.6872538,-3064498.53886 47134.1588528,-3064536.83406 46733.4534107,-3064647.54698 46594.9470832,-3064670.13582 46472.3140704,-3064656.03619 46410.699813,-3064621.15078 46368.4027102,-3064548.88872 46340.018367,-3064467.40126 46334.9128821,-3064375.17526 46384.2286533,-3064196.87801 46421.3063776,-3064058.0524 46467.0391129,-3063761.08603 46532.1895126,-3063482.44265 46586.685622,-3063182.00876 46613.7082538,-3062933.32854 46533.8590757,-3062658.73095 46379.1867183,-3062541.95481 46059.7498867,-3062467.61598 45843.7400598,-3062428.83532 45638.7899961,-3062446.14167 45513.1282949,-3062539.13721 45455.1676207,-3062669.17151 45438.6642108,-3062802.38342 45463.5137552,-3063035.76446 45516.4335012,-3063273.06315 45567.8220658,-3063590.52188 45576.2343298,-3063670.62931 45562.1321777,-3063793.26404 45528.0448152,-3063851.35285 45469.8824218,-3063905.80057 45376.7967085,-3063931.34465 45295.587458,-3063937.82886 45178.9862711,-3063915.93249 45075.3648884,-3063867.95178 44995.1306891,-3063820.16862 44696.4571078,-3063474.11443 44421.2804037,-3063013.3552 44318.0451634,-3062720.64242 44251.3972331,-3062531.84559 44190.1516259,-3062332.80204 44148.0719567,-3062165.52478 44111.9430906,-3061997.91819 44080.1603693,-3061747.00941 44049.8321487,-3061522.38095 44009.7154832,-3061444.522 43947.9113105,-3061397.2074 43884.4481227,-3061373.85851 43785.9683897,-3061364.88033 43682.3036022,-3061379.06821 43614.7269225,-3061389.27099 43297.074473,-3061500.34436 43208.8034786,-3061532.08438 43093.0996726,-3061544.45142 43026.4957094,-3061518.29156 42964.8526604,-3061482.90437 42916.4701406,-3061408.48513 42872.6945706,-3061309.43914 42856.0502242,-3061224.31177 42836.442558,-3061094.58352 42821.4720496,-3060931.77138 42794.2745917,-3060754.71363 42791.0415063,-3060588.26823 42791.2627801,-3060484.30247 42813.9329052,-3060192.5765 42750.8044692,-3059860.33103 42667.1894497,-3059598.35375 42591.1896465,-3059393.15436 42545.3572814,-3059274.82226 42520.2341503,-3059180.21499 42519.6060886,-3059069.83001 42539.9692565,-3058961.26956 42588.6192426,-3058869.54963 42670.2132249,-3058788.94175 42757.5412069,-3058695.08536 42776.7652034,-3058619.91321 42753.1472033,-3058561.53203 42711.5107934,-3058510.11481 42601.1596899,-3058403.30477 42466.0065455,-3058324.72318 42373.9583158,-3058270.12158 42284.060679,-3058209.43235 42219.4771273,-3058156.79501 42173.435521,-3058097.6621 42138.7312659,-3057991.6458 42134.6200924,-3057926.21766 42143.7722866,-3057821.75811 42161.1931524,-3057704.90467 42188.9914254,-3057613.83974 42224.1672763,-3057539.27863 42368.2424139,-3057293.07453 42502.2213541,-3057089.20951 42553.2533295,-3056887.43846 42444.2410086,-3056741.75541 42146.7415817,-3056686.55701 41797.6384161,-3056723.73684 41463.3909595,-3056813.81506 41163.7316306,-3056935.80733 41093.8089075,-3056948.62108 40904.2103224,-3056974.01128 40749.9925593,-3056973.57292 40519.0849828,-3056953.49346 40348.0150535,-3056927.12557 40217.9729711,-3056878.09871 40132.5274868,-3056844.0186 39823.5103889,-3056679.52556 39624.6731765,-3056483.58043 39545.7169715,-3056404.8716 39462.5924368,-3056349.7709 39361.9681068,-3056311.05573 39171.2200639,-3056297.70893 39024.1140551,-3056272.99957 38927.4224654,-3056251.47629 38794.2076081,-3056208.0929 38709.122746,-3056162.55014 38616.7360559,-3056119.89734 38481.1152381,-3056023.91971 38400.7865043,-3055929.36679 38306.4629001,-3055833.59628 38221.3120202,-3055741.79601 38103.6517252,-3055502.56306 38013.9860662,-3055328.93648 37909.4091309,-3055101.41563 37636.0792433,-3054682.24457 37566.272026,-3054598.05134 37396.2841146,-3054393.03786 37282.5875575,-3054243.6147 37178.4766008,-3054168.77389 37065.4972875,-3054086.46305 36954.713208,-3054025.9177 36840.5633399,-3053976.5012 36721.1222429,-3053930.36087 36622.7796556,-3053896.98485 36478.7607064,-3053856.17905 36391.4520633,-3053788.36862 36315.5551976,-3053774.1491 36267.8130708,-3053765.34096 36127.7151933,-3053768.5901 35990.185945,-3053755.2821 35885.1453247,-3053726.75149 35836.4329262,-3053664.27323 35805.7145179,-3053594.33588 35764.4375117,-3053540.40134 35730.4154811,-3053464.67673 35664.0211842,-3053388.24985 35575.1036206,-3053345.39838 35453.927881,-3053358.04922 35337.3645185,-3053409.24635 35227.0566959,-3053456.61663 35122.7272795,-3053504.15486 35054.429747,-3053564.62976 34982.6406253,-3053606.89181 34892.8571853,-3053656.61306 34778.9476331,-3053683.78732 34667.2750954,-3053697.40716 34577.5058614,-3053711.31153 34530.3912807,-3053713.90964 34471.7205619,-3053678.34376 34398.1751656,-3053634.64389 34354.0818933,-3053592.80202 34305.0166355,-3053514.92017 34222.7889453,-3053412.99914 34065.2867881,-3053317.218 33973.9691028,-3053275.98956 33916.2192757,-3053212.01704 33857.6840692,-3053115.75301 33839.6064982,-3053058.54724 33854.5350543,-3053004.49636 33877.0472055,-3052934.60629 33906.1981491,-3052867.83249 33937.5593206,-3052787.00818 33890.353558,-3052679.67273 33610.2696593,-3052462.7993 33365.5737266,-3052283.27249 33117.7883972,-3052110.87878 33022.2407868,-3052101.22084 32913.2863661,-3052128.11913 32774.2501604,-3052141.75147 32671.438416,-3052108.61542 32590.9526514,-3052056.34 32534.6362255,-3051991.29069 32500.6107506,-3051924.51535 32439.8347481,-3051850.75715 32352.8894083,-3051825.7004 32189.7135307,-3051843.64701 32072.6539298,-3051876.96128 31942.7069652,-3051893.07686 31819.5512424,-3051878.96982 31741.8603327,-3051859.37241 31699.8951003,-3051801.98806 31691.8591488,-3051719.35266 31716.2059882,-3051619.51118 31779.9176192,-3051538.89214 31845.2497523,-3051469.62586 31936.0715264,-3051393.48311 32024.3819967,-3051325.93597 32140.3461697,-3051218.56024 32163.0814885,-3051089.45797 32096.6801573,-3050967.75383 31938.0609294,-3050842.67262 31718.2904046,-3050682.15638 31627.1015797,-3050598.13179 31561.5476999,-3050491.80097 31471.3721165,-3050362.9473 31436.5328683,-3050272.33588 31409.5312841,-3050098.21436 31414.4103514,-3049979.04915 31438.813733,-3049825.97548 31476.0778935,-3049743.83003 31554.1525552,-3049652.97024 31623.6855101,-3049506.36669 31688.4361448,-3049336.14821 31705.0340158,-3049258.12624 31721.1131518,-3049170.68094 31713.7409549,-3049090.99398 31695.2843157,-3048972.61705 31669.9344944,-3048864.56899 31306.4200436,-3048225.42816 31126.9946429,-3047902.99041 31031.7197646,-3047473.44011 31035.8676933,-3047340.88344 31043.1104653,-3047192.23734 31057.6007871,-3047093.93499 31081.5018781,-3046967.75386 31096.429162,-3046877.38724 31080.0236008,-3046796.20656 31061.7082166,-3046680.3077 31023.552238,-3046619.72496 30993.9866951,-3046570.60897 30934.868342,-3046499.73728 30863.7403408,-3046472.80647 30754.8439914,-3046482.7765 30627.4500967,-3046509.18588 30515.2129724,-3046530.78176 30413.5968039,-3046528.4119 30349.6895667,-3046497.10373 30273.7199491,-3046454.51947 30235.0082956,-3046401.92595 30212.6640401,-3046348.43206 30145.6588262,-3046188.44613 30024.8820947,-3046054.79897 29953.7482464,-3046036.82205 29880.0649416,-3046044.85447 29803.8644134,-3046070.43731 29707.3160597,-3046169.27478 29673.5892905,-3046270.62703 29674.3885347,-3046420.82392 29675.5652756,-3046586.91967 29642.6256234,-3046711.61091 29524.7505961,-3046811.62312 29375.8931164,-3046881.99839 29315.8190812,-3046893.26314 29252.2730554,-3046904.71893 29137.7459897,-3046875.69764 29063.4679713,-3046809.63754 28978.4964031,-3046748.14546 28821.5552269,-3046581.16351 28707.0023342,-3046497.41821 28622.1894056,-3046447.85641 28520.1332811,-3046437.55015 28451.480073,-3046464.70879 28390.2324248,-3046554.14487 28352.2694439,-3046641.80281 28309.9293118,-3046722.23918 28255.564606,-3046873.4846 28211.8217049,-3047000.76349 28139.7942272,-3047102.23621 28063.5211346,-3047207.92279 27990.5884557,-3047301.98333 27911.06792,-3047348.6463 27817.0718253,-3047412.52349 27698.8676188,-3047452.36012 27460.0746122,-3047506.79214 27288.456413,-3047516.23507 27128.5235557,-3047521.05495 26956.9636738,-3047522.53446 26875.1635241,-3047500.66716 26813.4588835,-3047464.26124 26763.7724281,-3047420.2288 26740.7710334,-3047354.82754 26682.9075992,-3047297.81195 26600.3382577,-3047271.01135 26520.9038249,-3047255.97855 26432.9632318,-3047276.23979 26340.4396041,-3047312.67378 26254.1586431,-3047372.14775 26139.193874,-3047479.96685 25969.8580409,-3047594.26067 25852.314465,-3047628.09192 25747.3907464,-3047610.97911 25644.8520727,-3047564.87862 25559.8473526,-3047502.8875 25495.6707714,-3047448.70566 25303.4828735,-3047265.24451 25119.8942394,-3047129.56919 24971.285624,-3047023.81053 24831.6102531,-3046908.60434 24757.8893009,-3046771.36099 24693.9725139,-3046595.26817 24624.8678227,-3046333.88499 24596.8007101,-3046113.03217 24580.8574317,-3045895.49279 24592.5107014,-3045754.54827 24613.5736416,-3045639.95311 24647.6324865,-3045544.54469 24712.0089564,-3045439.50899 24715.0363717,-3045349.78726 24678.2230521,-3045250.31526 24630.6284124,-3045162.87907 24578.3787118,-3045072.21594 24552.2837639,-3045022.90244 24525.6214016,-3044954.21639 24509.2173802,-3044873.02563 24487.0455959,-3044759.31486 24433.547466,-3044636.87784 24374.935302,-3044448.55003 24363.3173612,-3044336.74651 24329.2418466,-3044223.6896 24295.3579918,-3044159.38015 24209.9577771,-3044117.30562 24103.2990693,-3044095.80306 23984.7898263,-3044075.94673 23913.7908575,-3044051.48915 23852.6960069,-3044008.07839 23821.4121133,-3043927.70423 23836.1507941,-3043842.81078 23871.4344038,-3043778.67996 23906.7779758,-3043706.58537 23957.8476712,-3043649.0503 24001.4495764,-3043591.42815 24046.0381451,-3043542.70748 24105.0444251,-3043484.73662 24180.7959615,-3043441.76682 24248.1748049,-3043391.29667 24337.5862147,-3043316.23213 24411.6805454,-3043234.04892 24388.5910221,-3043094.51658 24340.0731063,-3042990.21318 24290.0506728,-3042912.85891 24217.4670744,-3042823.31059 24167.346382,-3042771.33552 24101.0039052,-3042704.82798 24034.7215065,-3042630.35646 23938.4694758,-3042580.91507 23793.3220026,-3042547.09519 23620.5699408,-3042545.14107 23498.2891934,-3042474.73964 23423.5953879,-3042410.18224 23400.9634357,-3042378.58784 23343.8603131,-3042299.13296 23233.1083169,-3041994.75165 23176.6602599,-3041709.77653 23153.8859875,-3041385.6366 23108.6186227,-3041159.25412 23070.3472481,-3041024.03451 23011.2812697,-3040872.54247 22966.114493,-3040747.65184 22916.9192426,-3040630.94282 22885.9299118,-3040528.658 22855.2674972,-3040432.32563 22811.027346,-3040324.29993 22768.5298803,-3040248.02105 22703.3564283,-3040166.51862 22609.2064304,-3040064.71451 22517.3645468,-3040014.03032 22407.5166256,-3039979.75803 22291.4500101,-3040013.49302 22207.717437,-3040074.31118 22163.0580347,-3040139.95065 22075.9771942,-3040221.35234 21971.4195678,-3040310.67922 21781.8884023,-3040420.09461 21644.0461805,-3040501.29829 21529.9778114,-3040553.33441 21437.396102,-3040534.53382 21401.4432057,-3040477.796 21399.7575557,-3040401.76285 21473.9443647,-3040275.79042 21534.1540549,-3040158.04874 21574.8331166,-3040028.94044 21509.1686813,-3039938.50693 21387.7461816,-3039901.88355 20776.5955113,-3040062.30081 20488.6415808,-3040100.99212 20371.360722,-3040049.21401 20326.4724566,-3040001.92129 20303.7530685,-3039977.79245 20251.8774844,-3039911.97568 20224.1853317,-3039824.43157 20211.8986816,-3039736.53957 20201.793081,-3039643.05467 20200.3568884,-3039526.20613 20213.7030003,-3039433.92222 20247.6181109,-3039326.57803 20295.3416692,-3039216.98368 20354.4662567,-3039079.39815 20429.7225908,-3038927.49379 20500.8497343,-3038809.1529 20556.5927328,-3038700.61232 20615.925654,-3038621.23099 20700.5579382,-3038540.46205 20755.0663217,-3038463.83353 20794.9293508,-3038365.12089 20794.2868413,-3038298.98109 20748.2659669,-3038258.21791 20675.3968453,-3038226.88817 20584.3699822,-3038191.08114 20454.3650517,-3038170.34838 20300.5966421,-3038160.87008 20121.0195303,-3038170.71947 19975.0260317,-3038194.15135 19762.2590749,-3038215.7725 19586.4122247,-3038248.30547 19421.0305474,-3038290.21595 19192.8578625,-3038348.50753 19005.9342826,-3038414.98597 18782.4445073,-3038513.32499 18655.5583331,-3038558.59834 18535.1335282,-3038585.60466 18397.362343,-3038668.29619 18273.6674148,-3038681.0524 18174.2364212,-3038637.24625 18053.7121354,-3038608.03166 17985.3816859,-3038623.2242 17914.5456539,-3038674.38013 17815.6523408,-3038767.37953 17707.8185814,-3038797.1789 17561.4754316,-3038759.92648 17462.7779016,-3038729.51437 17336.6526926,-3038707.0753 17248.5423601,-3038670.11114 17141.7225956,-3038627.70445 17055.3305778,-3038576.71324 16977.060238,-3038537.71614 16850.6619439,-3038510.31541 16737.1912163,-3038519.02729 16624.8066901,-3038511.25902 16498.8158009,-3038491.29955 16401.923176,-3038439.39062 16338.3782277,-3038387.64283 16285.3330752,-3038336.81183 16238.8778207,-3038242.826 16185.6966753,-3038189.51426 16113.5546992,-3038135.25189 16037.7639623,-3038096.11744 15953.6498866,-3038095.75447 15882.9786355,-3038104.60623 15794.4219397,-3038150.26612 15725.8183269,-3038196.82225 15633.1628733,-3038231.26234 15560.180284,-3038234.26981 15460.9354883,-3038193.93331 15385.1438587,-3038154.79844 15327.348248,-3038117.16454 15271.0695725,-3037962.01261 15217.4830696,-3037819.65052 15137.1032168,-3037760.36473 15003.1078219,-3037676.15276 14902.6992303,-3037605.52456 14676.0966483,-3037447.76727 14505.0407535,-3037350.15982 14397.7872089,-3037254.52746 14337.4889032,-3037171.24883 14282.1790796,-3037088.19416 14251.4109789,-3037026.1865 14207.2580752,-3036838.0212 14189.825958,-3036520.00682 14156.0913347,-3036185.9671 14137.0458186,-3035929.24742 14122.7863347,-3035759.84527 14113.6856688,-3035584.68667 14102.1388483,-3035473.85413 14083.8028041,-3035375.33628 14056.8220596,-3035300.67983 14026.9530486,-3035218.71738 13965.6113843,-3035061.84669 13922.9253291,-3034945.75322 13909.6472006,-3034794.21083 13852.8438046,-3034402.21707 13828.7750516,-3034235.3419 13775.6677274,-3034019.79801 13720.7506322,-3033898.40206 13650.5152259,-3033769.88295 13591.1192393,-3033666.64596 13533.0157553,-3033532.48581 13477.0658341,-3033428.56208 13342.2586272,-3033329.45366 13233.4731178,-3033260.26991 13016.3036039,-3033101.97481 12939.5819124,-3033054.92049 12877.2951781,-3033017.02816 12732.8833971,-3032933.37215 12616.4090558,-3032896.45567 12519.0448944,-3032881.3835 12369.4358076,-3032884.5979 12133.4979495,-3032892.5385 11906.7757454,-3032887.03616 11766.3817083,-3032876.80755 11625.4984153,-3032857.64826 11515.2418234,-3032797.99682 11398.8358069,-3032707.82847 11295.4236564,-3032636.85383 11235.0114311,-3032596.86664 11156.35562,-3032587.23853 10998.0547614,-3032631.7339 10897.1857986,-3032652.68238 10722.5945989,-3032663.23506 10589.1511504,-3032643.66737 10507.1173927,-3032617.80187 10395.3287679,-3032575.64994 10295.5364919,-3032525.37651 10245.0537667,-3032475.8873 10086.0796204,-3032362.66621 9969.05723177,-3032315.82342 9859.31411576,-3032265.59611 9752.84653029,-3032220.66344 9625.3300795,-3032163.94377 9481.81746596,-3032051.36722 9399.12335703,-3032022.55047 9316.23168122,-3031999.21861 9228.64978288,-3031981.11987 9112.73933703,-3031954.61837 8991.68677029,-3031879.62806 8913.96366344,-3031805.25215 8876.62775096,-3031723.19169 8837.38127153,-3031651.68644 8808.52248539,-3031551.74398 8795.18834879,-3031444.48243 8762.39052486,-3031308.92417 8723.09771712,-3031227.46796 8692.56567016,-3031151.50419 8671.94959522,-3031083.95563 8643.36320153,-3030988.97435 8622.16214206,-3030928.92254 8576.71504103,-3030889.60576 8505.82743242,-3030849.19244 8429.14415089,-3030784.71083 8381.87079812,-3030721.10846 8332.61278671,-3030657.61455 8312.34243308,-3030605.47395 8328.09854625,-3030520.50774 8375.23414929,-3030454.22909 8431.61473171,-3030375.00342 8483.52980919,-3030296.02216 8517.49366083,-3030225.48778 8542.10404704,-3030165.91587 8547.39453406,-3030071.56947 8532.39639764,-3029979.32805 8506.03698517,-3029925.03219 8460.86960406,-3029881.71805 8392.17272582,-3029826.75158 8310.28846988,-3029785.44529 8226.64425773,-3029739.25853 8144.88001021,-3029718.34945 8039.5085194,-3029711.67048 7946.49862981,-3029721.73359 7797.49810542,-3029836.38187 7669.54212919,-3029871.74657 7583.13313644,-3029866.02134 7510.57054402,-3029849.58553 7430.17358231,-3029808.19717 7328.15383231,-3029717.22921 7294.98328152,-3029665.79287 7271.03094102,-3029600.91304 7259.91738019,-3029543.29375 7250.34294085,-3029459.21393 7254.37482077,-3029387.32943 7285.6425976,-3029312.96035 7301.56374569,-3029230.97016 7316.34555188,-3029128.14036 7318.61445451,-3029024.0041 7315.20063264,-3028925.15522 7307.51912095,-3028821.06534 7273.70285509,-3028721.39023 7234.99379796,-3028668.76314 7175.81352831,-3028605.80876 7128.50994959,-3028578.03703 7045.89583908,-3028550.70256 6943.06568165,-3028535.91952 6841.7973356,-3028531.50209 6734.2139931,-3028529.91819 6618.10592013,-3028536.26536 6524.7330224,-3028548.83478 6421.50959738,-3028572.39385 6370.4323843,-3028603.0558 6273.25563921,-3028646.19144 6196.70641853,-3028647.88783 6117.49418137,-3028637.2879 6044.85673103,-3028610.40285 5971.40545132,-3028568.6319 5901.69545716,-3028504.26081 5853.25169177,-3028455.64813 5793.93468565,-3028390.21098 5740.37903172,-3028293.60268 5697.13389303,-3028103.36461 5598.0212779,-3027783.29918 5544.33047804,-3027593.13357 5497.07460036,-3027420.53252 5422.21370005,-3027261.88166 5324.31922942,-3027091.54926 5254.35863224,-3026940.59274 5060.16260145,-3026638.16004 4912.40888918,-3026402.36658 4785.87789679,-3026081.30385 4635.87904212,-3025713.24599 4472.83005064,-3025242.87772 4438.00595972,-3025106.42217 4403.35481091,-3024991.35761 4360.025996,-3024899.6604 4323.04966321,-3024824.03994 3559.30717062,-3024335.69507 3237.85724742,-3024136.2472 2864.60861703,-3023908.76693 2543.13810401,-3023699.85884 2256.09671891,-3023519.92708 2100.04298678,-3023405.5103 2072.47883656,-3023374.66364 2068.98963389,-3022635.75992 2064.67099187,-3021607.73524 2038.66223853,-3015723.3113 2023.51305081,-3012591.11054 2015.47645798,-3007854.95344 1982.37997124,-3003475.53357 1973.5703988,-3002064.54982 3104.84490715,-3002101.77409 3790.55328451,-3002118.35604 7155.50819157,-3002168.86867" style="stroke-linejoin:round;stroke:#000;stroke-width:1px;fill:none" /></g></g></svg>