<svg xmlns="http://www.w3.org/2000/svg" baseProfile="full" height="85952.4526921" version="1.1" viewBox="-6968.011802,2821220.882055,70288.323005,85952.452692" width="70288.3230048"><defs><style type="text/css">polyline,line,rect,path,polygon,.polygon{fill:none;stroke:#000;stroke-width:1px;stroke-linejoin:round;}</style></defs><g fill_rule="evenodd" transform="scale(1,-1)"><g class="hogares departamen mujeres departam_1 toponimo_i tot_pob varones viv_part viv_part_h" id="34042"><polygon class="_34042" id="None" points="8917.87681848,-2821223.7904 9116.64667548,-2821403.62729 9338.63656648,-2821318.60739 9618.6095187,-2821442.53734 9732.19299669,-2821707.33445 9842.34009674,-2821924.54939 10120.4290708,-2822050.56177 10403.8404859,-2822280.27076 10773.6811024,-2822652.79006 10966.8659713,-2822665.75446 11101.499175,-2822807.58339 11326.3626165,-2823040.29099 11574.3725984,-2823345.92952 11644.7059939,-2823601.49363 11646.4172415,-2823838.19633 11789.3775868,-2824190.51528 11860.1880031,-2824339.09963 11995.6644581,-2824497.29513 12170.9464248,-2824645.98282 12383.2725737,-2824653.97673 12682.3385835,-2824578.4192 12826.2873542,-2824349.65845 12933.6023454,-2824163.07409 13078.6598039,-2824091.45167 13219.3621795,-2824119.04496 13314.6069005,-2824249.45713 13397.0132912,-2824352.67156 13649.6033666,-2824418.29063 13874.8742466,-2824426.61475 14186.0308065,-2824489.72127 14525.3920678,-2824588.68546 14647.5439096,-2824749.04948 14745.1310265,-2824905.70074 14956.529972,-2825021.68285 15115.6451696,-2825020.47047 15274.3443395,-2825059.57108 15444.8402913,-2825144.32585 15487.0502547,-2825278.45138 15544.5635815,-2825410.29795 15749.8010079,-2825503.21416 15935.8281954,-2825696.60139 16028.6679008,-2825828.62037 16222.553998,-2825894.26218 16408.5898683,-2825952.34834 16901.1409893,-2826399.57255 17067.3452048,-2826662.11744 17253.6191474,-2826802.26058 17355.8959524,-2827011.38529 17483.0208925,-2827162.0294 17557.9935323,-2827410.8573 17754.0478251,-2827538.05852 17856.2665585,-2827687.9918 17831.4797234,-2827805.65971 17908.9730999,-2827890.70926 18060.0035126,-2827896.86784 18287.261813,-2827953.81953 18584.2258361,-2828166.85024 18895.8132008,-2828354.75386 18982.0392021,-2828406.52356 19146.8926855,-2828710.40608 19221.2684519,-2828937.86747 19303.1131892,-2829030.15029 19487.5669466,-2829028.61678 19655.8779095,-2829167.68063 19808.0745819,-2829177.257 20067.8242156,-2829150.46045 20346.7517383,-2829109.7452 20604.3359144,-2829079.57885 20954.0152682,-2829079.98745 21218.4630366,-2829250.90564 21423.3941568,-2829347.79219 21663.7062314,-2829281.70837 21849.1182904,-2829347.26939 22009.5777492,-2829362.88511 22133.7745906,-2829244.0881 22343.6817973,-2829234.77776 22559.4672601,-2829310.71161 22846.1978833,-2829373.54371 23117.9879061,-2829329.7144 23413.6782813,-2829228.45413 23595.2256919,-2829267.35464 23780.2487846,-2829257.83271 23942.2995087,-2829381.78866 24183.7383613,-2829347.47949 24276.8977282,-2829447.12833 24527.7155791,-2829517.7738 24883.5084214,-2829560.13776 25215.6866967,-2829704.17929 25567.5660206,-2829921.80554 26187.8799789,-2829934.1372 26321.9173139,-2829852.14056 26430.0813555,-2829750.58825 26622.8085483,-2829707.34712 26810.77197,-2829561.90225 26990.3649841,-2829408.43465 27064.4794626,-2829225.08637 27299.5657092,-2829231.88635 27537.4448007,-2829215.6658 27572.7984052,-2829477.42556 27754.514612,-2829539.18948 27866.9870724,-2829772.60997 28085.5275053,-2829931.44269 28258.4764833,-2830170.69932 28366.2322631,-2830467.0207 28475.6010816,-2830746.34934 28646.2817528,-2830893.21893 28893.3221245,-2830987.41916 28933.0797864,-2831633.86131 29072.9307536,-2831713.18936 29191.746576,-2831905.49433 29260.2394828,-2832047.67656 29253.2899158,-2832240.98907 29239.437835,-2832445.10073 29221.8590227,-2832644.4315 29241.6630332,-2832912.95088 29325.6412417,-2833075.71799 29417.3098526,-2833271.90499 29597.924154,-2833457.0421 29837.9900748,-2833628.17298 30178.412378,-2833662.3453 30484.2063778,-2833613.26452 30756.6001444,-2833456.50138 30947.6690896,-2833265.63969 31302.36062,-2833229.45747 31403.0260043,-2833359.03415 31612.4417884,-2833408.41247 31737.7574258,-2833456.65487 31872.5979213,-2833699.34083 32024.4399566,-2833934.18727 32167.3406961,-2834256.02014 32168.8778484,-2834526.95862 32240.4391526,-2834805.72374 32406.2997297,-2835042.32921 32690.9973034,-2835307.61361 32871.7885485,-2835544.44008 33081.5886485,-2835572.40592 33346.4112956,-2835548.8009 33554.9842551,-2835475.8842 33760.1929126,-2835424.52399 33991.9703259,-2835473.73294 34113.4453671,-2835447.57689 34271.8647536,-2835559.24597 34408.9080415,-2835545.71284 34590.8481312,-2835428.92045 34744.7923342,-2835203.18163 35053.2856089,-2834994.83402 35303.9192379,-2834879.47492 35519.4797091,-2834807.19715 35775.7797397,-2834859.61727 36064.7508555,-2835015.27071 36472.2179296,-2835241.38632 36802.2425335,-2835296.46488 37118.8015156,-2835273.67395 37431.311795,-2835326.67135 37646.6742222,-2835260.37103 38095.8916826,-2835409.24279 38609.8737761,-2835367.81575 38933.4075186,-2835403.33657 39119.1070831,-2835494.69355 39245.8241569,-2835560.751 39346.0785571,-2835451.1645 39512.7886011,-2835357.54213 39722.2900455,-2835322.3731 39987.5407307,-2835307.69777 40074.6028184,-2835135.15092 40276.5179322,-2834991.48603 40415.4118179,-2834965.9265 40736.1602929,-2834860.88325 40854.8331818,-2835002.43211 41038.9941685,-2834986.96823 41174.1460587,-2835043.14241 41342.6805772,-2835119.96848 41492.0780337,-2834931.78159 41691.4799821,-2834864.81829 41725.3342058,-2834711.42861 41842.2407747,-2834597.01234 41951.0297448,-2834508.37185 42036.4615437,-2834419.94166 42253.04535,-2834464.45939 42446.3891869,-2834521.11313 42666.6534001,-2834637.03476 42866.7827788,-2834593.90099 42978.27757,-2834413.14402 43143.2826237,-2834440.93027 43514.423593,-2834590.33635 43817.3134857,-2834746.73999 43994.6179712,-2834887.74276 44040.5994397,-2835085.23449 44139.7328858,-2835214.3579 44340.2158081,-2835226.39031 44517.509591,-2835203.32539 44633.7305466,-2835461.32649 44884.2846153,-2835403.16067 45135.4200529,-2835337.01076 45378.5415832,-2835346.84297 45651.9835128,-2835607.16974 45864.5398118,-2835747.34038 46038.3187225,-2836012.80452 46213.3203263,-2836282.67828 46508.7803604,-2836574.67195 46706.3905495,-2836733.50508 47053.6210597,-2836949.74132 47352.723569,-2837148.57304 47513.4274568,-2837314.775 47629.8696063,-2837538.44328 47759.8844218,-2837707.2218 48017.238695,-2837694.43325 48245.7563288,-2837527.53035 48428.6264606,-2837266.04425 48682.9130132,-2836981.98315 48878.7220797,-2836980.82559 49066.0472564,-2837084.9995 49200.4040106,-2837058.67708 49310.6037613,-2836949.5876 49418.2153098,-2836973.36398 49507.9905552,-2837113.89028 49603.64197,-2837223.78841 49607.9833791,-2837394.57411 49899.9940912,-2837523.66532 50104.1796879,-2837569.29919 50194.3857705,-2838035.90881 50366.3441701,-2838083.20438 50429.1808014,-2838183.35978 50727.1098647,-2838446.35907 51153.349948,-2838431.30798 51599.3546076,-2838558.40213 51979.2781063,-2838830.5802 52455.9423744,-2838896.93065 52949.3207496,-2838863.49516 53280.5479588,-2839030.3107 53338.3845205,-2839226.15852 53533.9382276,-2839335.85501 53745.5734557,-2839516.30004 53956.6068341,-2839752.44794 54175.2476507,-2839837.5855 54449.5675526,-2839893.99741 54638.831991,-2840084.0432 54863.8792374,-2840206.62474 55043.0185398,-2840316.16829 55069.830902,-2840517.58832 55246.3516701,-2840499.51849 55312.3757168,-2840594.02925 55248.4841524,-2840810.07765 55441.0396539,-2840775.27188 55658.7815299,-2840785.39183 55945.6154399,-2840872.46504 56136.9729971,-2840804.91509 56365.1616195,-2840911.42145 56358.2596409,-2841037.53458 56493.7356995,-2841187.10558 56569.451513,-2841296.02399 56590.3452655,-2841440.58214 56717.4268945,-2841668.12652 56783.6541683,-2841881.91649 56951.5958314,-2841880.68867 57145.3542824,-2842090.36804 57399.3852366,-2842437.09757 57503.3156167,-2842649.43099 57570.3409897,-2842936.24196 57656.5398049,-2843343.83773 57552.5176202,-2843581.34225 57581.2630762,-2843704.61484 57412.5576145,-2843892.78 57336.8603042,-2844053.26887 57406.2232984,-2844212.21589 57332.1515219,-2844394.49157 57232.850467,-2844607.89692 57179.9652034,-2844940.18217 57414.8627841,-2845320.1983 57478.063862,-2845580.86167 57600.129258,-2845528.81268 57701.136486,-2845511.6537 57768.5048693,-2845536.0005 57731.8692322,-2845788.4112 57854.0991155,-2845787.54957 57958.8325952,-2845621.57948 58297.3762003,-2845641.8259 58607.4309492,-2845659.07363 58986.0558295,-2845541.55208 59322.5200157,-2845636.95823 59616.6213508,-2845816.56716 59535.9655788,-2846082.68092 59801.1391061,-2846164.37841 59741.8914248,-2846383.15906 59790.94843,-2846495.43273 59942.2936437,-2846519.40372 60015.6309031,-2846735.78966 60268.8609646,-2846999.51706 60354.6305947,-2847263.96572 60480.6991516,-2847346.89884 60267.9654776,-2847423.52884 60289.8816455,-2847549.13558 60537.2470003,-2847488.60361 60654.950158,-2847496.42154 60747.858314,-2847582.06592 60696.3863657,-2847710.97735 60451.0151809,-2847790.791 60480.8813763,-2847925.92576 60590.2502346,-2847916.77874 60772.6732423,-2847897.88156 60843.0865156,-2848057.75336 60738.2426685,-2848182.96999 60902.895713,-2848233.5821 61055.6051686,-2848408.57138 61107.3419146,-2848534.12131 61175.112471,-2848738.86028 61228.1450161,-2848975.67516 61430.942654,-2849119.73432 61738.3000268,-2849229.04702 61909.9129369,-2849183.86702 62061.7489708,-2849341.99706 62230.0856002,-2849281.57939 62446.1351093,-2849422.46217 62541.5623689,-2849556.67649 62747.209141,-2849621.55764 62764.7505897,-2853062.92783 62773.1598573,-2855530.64673 62767.6654689,-2857509.04318 62740.0242988,-2863746.05422 62639.0788354,-2867632.56689 62632.0621992,-2867936.11838 62631.6580362,-2867966.45802 62636.3261878,-2869768.92779 62643.0588555,-2871885.41862 62639.3394065,-2875690.38807 62642.0363199,-2877355.31215 62642.7656944,-2877359.74726 62694.0246769,-2884221.66697 62699.7722071,-2885135.42838 62973.4896791,-2897489.63358 63001.3845082,-2898743.23487 63001.4383827,-2898753.67027 56646.8003402,-2898756.57164 44884.5033284,-2898810.02254 44213.4043787,-2898813.11072 44195.5013159,-2898813.06083 43884.9638171,-2898817.51133 40242.7804191,-2898868.44371 40401.0114116,-2907087.50985 40383.9385703,-2907074.98653 30086.2588022,-2899682.72519 30018.5639537,-2899634.57026 28181.9416232,-2898326.84964 25748.8468006,-2896583.41184 11767.0758054,-2886511.44716 8980.09323522,-2884503.3977 3773.90910366,-2880757.01072 -6945.98393132,-2872996.49596 6985.64682581,-2861352.14985 8914.18615467,-2859729.43441 8978.37246975,-2852814.28636 8977.12499375,-2851332.29945 8975.33883186,-2849723.97928 8975.70530311,-2849625.45571 8930.18576241,-2832492.67956 8910.70595691,-2825046.32181 8914.23445272,-2823236.29523 8917.87681848,-2821223.7904" style="stroke-linejoin:round;stroke:#000;stroke-width:1px;fill:none" /></g></g></svg>