<svg xmlns="http://www.w3.org/2000/svg" baseProfile="full" height="135184.573063" version="1.1" viewBox="33693.824585,2880394.555134,107784.722470,135184.573063" width="107784.72247"><defs><style type="text/css">polyline,line,rect,path,polygon,.polygon{fill:none;stroke:#000;stroke-width:1px;stroke-linejoin:round;}</style></defs><g fill_rule="evenodd" transform="scale(1,-1)"><g class="hogares departamen mujeres departam_1 toponimo_i tot_pob varones viv_part viv_part_h" id="34056"><polygon class="_34056" id="None" points="93862.5683148,-2880650.69183 104523.424495,-2888492.43339 109700.995653,-2892278.30553 112472.61167,-2894307.50203 126376.989161,-2904485.66143 128796.63277,-2906247.59738 130623.15444,-2907569.28533 130690.47717,-2907617.95512 140930.894125,-2915088.58268 140932.110569,-2915093.4984 140934.229399,-2915096.38502 140932.309712,-2915504.56894 140932.031768,-2915740.19428 140936.523256,-2917014.98501 140938.378068,-2917099.90071 140940.501799,-2918299.74171 141062.869322,-2926006.8209 141079.57544,-2927206.0072 141110.704853,-2929016.93931 141110.614878,-2929025.89082 139070.851047,-2929032.16288 139058.662962,-2932489.04276 139059.731537,-2932588.91111 139058.472207,-2933106.94643 139111.35994,-2949589.04931 126087.731693,-2949551.29763 118914.838158,-2949444.99965 116803.674307,-2949464.18614 113297.613685,-2949412.02168 109791.900408,-2949361.30647 107287.372486,-2949389.53369 107268.276656,-2955261.69179 107136.649903,-2968423.67379 107121.525006,-2970078.27797 107120.196416,-2970081.82125 107092.032573,-2973250.18396 107093.009988,-2974862.77727 107104.113547,-2990055.2943 107104.046033,-2991742.12202 107103.578375,-2994059.73704 103739.192996,-2993983.72368 103053.648473,-2993961.94276 101922.719263,-2993916.13974 101920.824302,-2995327.11375 101920.695868,-2999706.57271 101892.802407,-3004442.60522 101884.189308,-3007574.82313 101865.556329,-3013459.31442 101862.075954,-3014487.35635 101859.959526,-3015226.27672 101626.628783,-3014961.60673 101362.713236,-3014691.90299 101192.116668,-3014576.52668 100992.869002,-3014497.32192 100810.875017,-3014457.1089 100608.512612,-3014438.74819 100486.197629,-3014482.80101 100381.490894,-3014531.00258 100210.181496,-3014559.44476 100116.966901,-3014566.309 100047.84479,-3014567.06668 99944.7755343,-3014533.59544 99884.1673032,-3014493.15513 99827.0341644,-3014452.55158 99793.03818,-3014385.48719 99763.950835,-3014295.80301 99747.901813,-3014187.09772 99734.4143303,-3014101.15899 99712.2472957,-3014021.1006 99667.7170034,-3013941.59435 99599.8092237,-3013894.03278 99472.2527182,-3013890.06924 99380.6843729,-3013942.62887 99261.6501187,-3014024.83785 99065.7816105,-3014219.1187 98963.456164,-3014307.50992 98854.3878082,-3014368.85288 98752.3536038,-3014410.46143 98476.4453558,-3014489.58821 98200.9903885,-3014525.4071 98041.4100005,-3014538.86939 97942.3812026,-3014538.5428 97869.9303645,-3014563.83651 97795.8361772,-3014607.11946 97720.6743531,-3014691.25236 97653.4675993,-3014722.27081 97576.401405,-3014755.24489 97507.5862269,-3014752.00737 97440.2510568,-3014727.30525 97380.0202197,-3014684.35737 97338.9488264,-3014625.5831 97331.4670419,-3014572.19777 97340.7627308,-3014494.63949 97355.1559547,-3014430.27609 97373.257552,-3014370.71427 97389.620535,-3014295.31218 97398.4738031,-3014208.32123 97421.6386006,-3014108.2196 97431.6805282,-3014046.54849 97440.6739559,-3013962.53648 97420.4997097,-3013871.93249 97395.588577,-3013828.81888 97342.3860931,-3013776.58423 97283.1112781,-3013753.99049 97205.9331215,-3013742.18811 97114.3501147,-3013741.51047 97036.3741196,-3013755.1211 96989.5214071,-3013785.18337 96930.7462208,-3013826.25405 96900.2393093,-3013875.94939 96859.5323895,-3013941.54798 96805.1268876,-3014022.71653 96737.9187569,-3014053.7345 96596.6967198,-3014076.7823 96475.1664422,-3014031.73436 96277.5839414,-3013882.28306 96102.7066518,-3013718.33082 95943.9874959,-3013538.19469 95932.3660944,-3013523.81287 95795.9974938,-3013364.02263 95679.9601774,-3013170.93557 95642.4003434,-3013027.90406 95610.4283063,-3012940.33845 95586.6352885,-3012921.05414 95542.3701111,-3012900.24233 95504.7148164,-3012893.05246 95474.2431421,-3012890.50133 95443.3374598,-3012899.91233 95411.0354779,-3012911.37914 95378.6096471,-3012930.81297 95325.2934984,-3012971.6274 95254.3061818,-3013028.19817 95153.4917712,-3013106.56903 95010.5544938,-3013209.80495 94681.629109,-3013347.14392 94411.2678755,-3013375.25347 94146.3361714,-3013413.06004 93933.3129748,-3013512.62017 93695.4642153,-3013613.34571 93653.3325314,-3013632.73816 93375.4802945,-3013835.35769 93310.8901602,-3013869.2392 93243.4519607,-3013884.84343 93182.5839342,-3013886.70433 93096.5317634,-3013844.96331 92956.9759616,-3013686.3094 92768.3803235,-3013468.75096 92603.9650925,-3013209.75135 92433.9895266,-3012991.31681 92201.9816144,-3012765.83842 91974.9376822,-3012476.43229 91772.3181024,-3012267.48585 91597.3646854,-3012117.94865 91361.8596392,-3011971.74713 91111.8932428,-3011846.12668 90957.3205195,-3011807.59326 90837.2942803,-3011747.03795 90806.9828062,-3011636.49638 90793.4912247,-3011560.99429 90781.4039696,-3011409.29183 90782.7772437,-3011343.04517 90763.8476508,-3011252.372 90710.8287677,-3011204.1007 90648.3293589,-3011171.20201 90557.9079883,-3011200.8183 90508.9538556,-3011233.9648 90432.318444,-3011292.29428 90401.3321772,-3011326.5892 90357.4750527,-3011372.93257 90300.4832562,-3011452.23668 90207.4701436,-3011532.73184 90098.6068911,-3011593.56793 89909.4998955,-3011572.07769 89768.423842,-3011487.12854 89695.0307106,-3011444.78762 89651.9569347,-3011391.07306 89636.5417573,-3011279.83091 89652.8579316,-3011197.95404 89685.497453,-3011135.21702 89749.8758965,-3011091.395 89814.952256,-3011078.39273 89936.8886478,-3011068.19944 90025.7827906,-3011027.20963 90120.7747369,-3010988.91983 90188.90028,-3010913.57284 90212.2619042,-3010769.66247 90217.2131134,-3010662.94086 90205.9029453,-3010580.86679 90162.9390255,-3010524.16144 90106.3595695,-3010463.61545 90059.3377938,-3010426.50707 89895.2829819,-3010403.3417 89790.2511662,-3010445.08669 89675.9091023,-3010495.22995 89458.4190101,-3010627.33779 89390.0364906,-3010681.29946 89319.5210329,-3010695.05378 89242.3337571,-3010683.24434 89138.9784891,-3010617.42479 89057.5484173,-3010541.62042 88786.9967868,-3010290.05749 88558.328549,-3010194.27823 88276.8930734,-3010151.23069 88085.4445779,-3010186.07629 87847.5816328,-3010313.66579 87615.6447498,-3010466.85565 87394.1503315,-3010614.58098 87145.6661712,-3010621.74431 86995.6939381,-3010554.12455 86925.0713178,-3010395.69954 87053.598709,-3010186.14319 87412.9237424,-3009878.69041 87712.0021941,-3009798.99368 87963.423883,-3009796.17455 88182.553095,-3009815.76832 88277.020793,-3009787.45713 88309.4306687,-3009703.83017 88319.3707481,-3009661.06609 88336.907232,-3009594.55768 88356.2759272,-3009498.10578 88367.7404164,-3009365.69728 88375.2965178,-3009197.64271 88385.8938343,-3009041.38891 88380.7276363,-3008861.98727 88379.6878973,-3008712.25012 88365.716165,-3008546.69681 88331.2120722,-3008452.76783 88229.8054843,-3008391.33095 88095.7702946,-3008403.57757 87968.1963544,-3008436.91981 87833.8007407,-3008499.94177 87682.2099856,-3008599.59859 87530.2710849,-3008675.88337 87407.861463,-3008739.83792 87291.77387,-3008821.90924 87178.3324402,-3008891.41602 87088.9344871,-3008964.27599 86942.0071074,-3009025.39841 86813.9972628,-3009038.85702 86648.0497284,-3009007.31366 86487.4667698,-3008904.35585 86288.0395742,-3008737.02931 86036.0685429,-3008473.12976 85897.0380312,-3008384.08983 85747.0122767,-3008309.99595 85603.9751228,-3008262.94526 85373.5564434,-3008129.90943 85134.6209061,-3007958.45411 84971.0264142,-3007849.6595 84831.5532201,-3007751.18149 84708.0545037,-3007664.39687 84573.4551553,-3007547.7742 84479.998848,-3007459.58298 84404.4875005,-3007387.96987 84380.9754402,-3007326.86268 84361.3836332,-3007243.17739 84360.8780453,-3007168.55224 84366.5259593,-3007087.16966 84380.3601463,-3006999.92988 84441.0057179,-3006892.08687 84548.9924179,-3006822.83727 84738.9170249,-3006787.07889 84914.91968,-3006772.87337 85107.3519576,-3006790.74424 85316.4359375,-3006786.93456 85573.6856155,-3006780.87143 85831.2129363,-3006780.76692 86012.7528302,-3006757.34443 86076.2075967,-3006709.58785 86114.8519568,-3006642.09105 86156.2826127,-3006565.00878 86169.8075753,-3006465.84287 86177.6904437,-3006384.35843 86180.2738999,-3006306.60541 86167.5803679,-3006232.05521 86142.7926012,-3006143.63907 86105.5678424,-3006055.30694 86065.2477485,-3005964.63128 85986.7533167,-3005818.51194 85902.029222,-3005741.3584 85807.231148,-3005693.5391 85634.2337919,-3005638.926 85450.7421607,-3005620.63383 85235.1734436,-3005618.77092 85024.1462592,-3005655.51224 84905.2402856,-3005677.49513 84792.1928407,-3005691.73931 84632.2016438,-3005729.08021 84463.3807131,-3005763.84821 84286.7105862,-3005769.12396 84106.8907972,-3005765.58907 83956.416572,-3005745.75201 83804.2308104,-3005694.64217 83659.4667124,-3005605.36264 83581.3580315,-3005531.37954 83510.832119,-3005438.62817 83374.9450523,-3005406.16386 83278.7963648,-3005398.71533 83182.7934089,-3005468.8958 83092.016462,-3005634.88182 83046.852149,-3005759.91746 83008.8706157,-3005905.51951 82963.932011,-3006099.22333 82922.082409,-3006289.79707 82877.671926,-3006489.44902 82838.9462956,-3006565.91085 82791.1051928,-3006628.36671 82730.2079019,-3006667.04749 82646.5332697,-3006670.96136 82574.2191284,-3006662.39968 82484.7238224,-3006600.3952 82354.2096094,-3006501.98813 82196.1823601,-3006320.76021 82063.6941414,-3006180.14185 81875.7092628,-3006066.00655 81787.6606233,-3006040.26324 81691.0679386,-3006092.55733 81482.1885601,-3006452.19503 81387.787675,-3006540.71833 81137.2232239,-3006855.02948 81018.685443,-3007076.56982 80945.7065198,-3007181.51177 80901.4013603,-3007255.74904 80869.4096181,-3007337.87108 80853.8058071,-3007419.22655 80881.9741535,-3007484.10125 80941.3441754,-3007535.07392 81045.7959053,-3007586.92338 81127.7625435,-3007620.91259 81238.3823589,-3007676.95228 81373.9148628,-3007760.19408 81461.270074,-3007840.21525 81505.8509286,-3007888.89295 81529.3961838,-3007940.04796 81534.8695226,-3007998.51848 81513.294342,-3008053.27792 81476.8995984,-3008099.7726 81411.4906021,-3008174.99777 81330.4240913,-3008240.00678 81232.8829395,-3008325.19673 81106.5756934,-3008439.10605 80922.5196862,-3008600.51069 80805.440283,-3008794.61513 80645.6479231,-3008953.39286 80555.1232591,-3009002.42258 80489.2142253,-3009008.4939 80416.1687653,-3008979.06527 80310.1570543,-3008893.94472 80194.9784099,-3008740.57088 80048.5504494,-3008616.03232 79945.018256,-3008578.5735 79797.6508763,-3008561.58085 79689.7161343,-3008557.67361 79579.2504545,-3008568.81579 79466.6109845,-3008592.00454 79373.2365812,-3008638.67915 79226.7927163,-3008705.25722 79097.7301223,-3008771.02209 78933.7979667,-3008910.58662 78758.8141439,-3009074.55918 78535.7359849,-3009231.82513 78370.2761055,-3009344.08951 78185.4569465,-3009430.88188 77995.0116342,-3009514.45407 77821.9170854,-3009591.24186 77689.3923448,-3009636.26771 77571.4714222,-3009679.61461 77498.960408,-3009730.79021 77436.0164549,-3009794.95648 77376.912552,-3009877.35878 77302.8864406,-3009959.96216 77223.6412791,-3010122.4457 77193.4445004,-3010179.10676 77157.62947,-3010238.02183 77109.0962929,-3010291.06208 77053.0296786,-3010316.08487 76981.5531669,-3010314.95211 76931.4568577,-3010281.46156 76893.4824753,-3010230.48071 76790.016927,-3010130.8026 76680.5378056,-3010024.93525 76583.4811959,-3009939.88822 76472.0023842,-3009924.20259 76414.0795935,-3009962.75075 76366.5220559,-3010036.65023 76274.5997882,-3010125.07017 76161.1367011,-3010194.58965 76047.1544217,-3010247.70851 75931.6131209,-3010283.47985 75836.606044,-3010295.3941 75749.2007883,-3010219.84883 75692.5244054,-3010162.7741 75627.0478975,-3010109.09767 75571.7052126,-3010069.87878 75559.0955789,-3010061.01212 75456.6355338,-3009988.16186 75358.7679597,-3009938.98776 75267.704479,-3009912.88867 75205.1265437,-3009915.81808 75136.231574,-3009922.02964 75050.2327039,-3009935.01476 74992.3178213,-3009947.18295 74940.0911398,-3009958.58714 74825.7965714,-3009999.77496 74689.2304793,-3010033.04612 74559.22943,-3010063.02358 74460.2552957,-3010064.6704 74320.3680649,-3010080.17836 74187.8354222,-3010125.2069 74075.9138926,-3010169.2707 73994.7609323,-3010227.32445 73940.7140693,-3010295.55761 73922.2259638,-3010347.19365 73959.2924019,-3010426.59156 74019.3690003,-3010492.46833 74113.2558447,-3010584.13816 74239.7329003,-3010734.0115 74380.9680622,-3010927.99042 74420.9137944,-3011015.71433 74443.8097624,-3011116.68026 74450.8367947,-3011202.95917 74435.8878359,-3011266.37542 74412.9088691,-3011285.86825 74344.2920203,-3011298.04126 74289.8462744,-3011288.64517 74219.8104226,-3011270.52195 74155.5257731,-3011231.72159 74085.4049773,-3011201.15846 73932.3197794,-3011142.12666 73855.9214738,-3011094.43592 73763.3740645,-3011042.02601 73666.420429,-3010953.98401 73527.8632194,-3010870.37855 73427.0425334,-3010827.31492 73333.3287122,-3010813.78369 73223.8276996,-3010845.78969 73129.9715501,-3010877.06323 72994.3784265,-3010931.19698 72889.5927762,-3011010.76739 72842.9656302,-3011056.7536 72763.4958668,-3011108.25986 72693.5025812,-3011138.91427 72592.1340428,-3011158.5939 72420.5789325,-3011183.55123 72301.5246953,-3011181.65968 72222.562253,-3011158.97565 72142.5531584,-3011113.94108 72088.5580982,-3011055.74191 72039.5065823,-3010996.81339 72008.5697568,-3010910.15722 71979.0300695,-3010821.44449 71952.5803025,-3010713.6719 71898.5864619,-3010639.54361 71813.1326549,-3010541.99962 71714.4852469,-3010455.02836 71607.4936776,-3010391.84257 71509.5025832,-3010356.11033 71434.6124516,-3010356.62938 71305.0786545,-3010370.15952 71174.6293882,-3010374.77261 71004.5612339,-3010383.72911 71001.084433,-3010383.89186 70892.9864457,-3010371.52981 70802.458335,-3010362.32746 70718.456789,-3010354.31288 70662.9365346,-3010353.92507 70632.4451254,-3010345.89457 70609.6217375,-3010331.53181 70586.9769432,-3010315.66734 70578.5881829,-3010306.60223 70532.9815736,-3010257.46586 70505.5750023,-3010193.04198 70468.5992773,-3010131.55483 70430.5774948,-3010047.71655 70412.4308008,-3009968.42354 70404.0700127,-3009896.1392 70392.4122926,-3009806.58691 70363.0928437,-3009695.95889 70354.4731748,-3009564.94879 70300.3781599,-3009499.2845 70211.9537623,-3009476.54213 70076.1389837,-3009488.87071 69950.1058279,-3009555.99531 69838.6014095,-3009614.47577 69744.9998415,-3009688.5455 69617.6607231,-3009775.64329 69500.1770728,-3009871.24035 69369.064665,-3009973.44902 69250.5738062,-3010042.21341 69120.6536241,-3010074.17875 69025.5511635,-3010073.65171 68950.1380467,-3010073.69654 68879.0948301,-3010066.06998 68829.0464106,-3010039.04254 68788.2579376,-3009997.14575 68754.2459418,-3009940.4958 68736.0282172,-3009875.63981 68728.6218386,-3009807.7889 68740.6020858,-3009648.93053 68769.7157863,-3009436.00698 68805.4934786,-3009173.98853 68841.4783829,-3008948.29955 68849.0487843,-3008748.33183 68871.9319754,-3008396.81806 68871.8467218,-3008245.99214 68846.4587441,-3008118.25233 68831.8949325,-3008014.39788 68767.9969502,-3007893.43673 68698.8444852,-3007777.20116 68674.8848956,-3007722.56916 68631.350192,-3007685.77729 68578.3226964,-3007658.88725 68470.9791523,-3007673.36459 68401.3742347,-3007712.46025 68314.4202198,-3007779.74581 68236.3836246,-3007846.11677 68055.9287391,-3008016.33836 67828.5597865,-3008242.51701 67542.198521,-3008543.13959 67371.6900857,-3008739.7812 67183.2606285,-3008941.74245 66969.093186,-3009162.83 66724.2988489,-3009394.31248 66624.3665018,-3009466.19184 66536.3422489,-3009510.63259 66391.2862737,-3009575.66291 66293.7948488,-3009598.64317 66106.8068526,-3009544.16937 65990.1183192,-3009428.16208 65956.1811841,-3009394.40496 65824.3284407,-3009183.02824 65760.3141766,-3009011.78746 65720.7032812,-3008904.61876 65692.8154471,-3008766.03711 65677.1911806,-3008698.06939 65643.6830727,-3008646.86814 65554.7111189,-3008607.22146 65466.675486,-3008592.91951 65378.3469698,-3008630.90202 65305.6636915,-3008684.08308 65142.85822,-3008853.98647 65015.3240248,-3008990.38045 64929.9225161,-3009090.95236 64799.9030288,-3009243.39392 64706.2558406,-3009375.21737 64682.3656407,-3009460.46722 64673.8206757,-3009538.52758 64676.4015445,-3009662.86299 64645.9146838,-3009745.43474 64614.3515771,-3009799.68091 64571.9952381,-3009820.08213 64475.9300243,-3009831.04837 64385.9112238,-3009838.24694 64295.0323973,-3009827.0661 64221.4565676,-3009786.69945 64128.9434919,-3009735.27075 64019.3493956,-3009659.25164 63882.0160434,-3009575.56893 63799.8516921,-3009495.27905 63672.8063019,-3009370.78996 63610.8667712,-3009233.29843 63603.9371697,-3009218.18974 63607.4578246,-3009096.55391 63632.7802035,-3008983.35729 63646.8706612,-3008880.1449 63619.786778,-3008769.39938 63578.9622372,-3008684.18796 63487.3856984,-3008588.90398 63272.4193305,-3008452.59316 63103.2945217,-3008370.39326 62856.9482906,-3008223.10192 62624.3745449,-3008109.51628 62417.3579263,-3008010.16788 62197.3110829,-3007893.00771 62055.2597935,-3007793.60783 61974.7479669,-3007663.45156 61938.7778738,-3007559.59009 61930.8995502,-3007385.71307 61963.2565145,-3007172.61741 61983.7599422,-3007084.03884 62001.4129959,-3007009.0353 62021.3292847,-3006902.56201 62006.779206,-3006825.5786 61965.2232773,-3006767.28162 61916.7359896,-3006709.80631 61846.3774503,-3006642.40035 61756.7171909,-3006614.72795 61639.8116105,-3006595.29834 61487.8121551,-3006591.94593 61370.3466334,-3006576.52504 61340.3066049,-3006535.61167 61315.7357952,-3006462.58051 61298.2822179,-3006392.7017 61312.2106858,-3006317.87174 61335.7451218,-3006214.21578 61370.7955719,-3006127.94439 61398.7195854,-3006048.97588 61367.619341,-3005990.68726 61279.1387647,-3005913.6717 61154.131487,-3005880.67921 60926.2034122,-3005834.57167 60651.6738653,-3005776.7006 60372.1839683,-3005761.8759 60110.2190614,-3005749.21941 59808.2775459,-3005696.11189 59708.2166932,-3005605.69443 59638.1971269,-3005502.92072 59599.5482482,-3005421.58325 59567.7819706,-3005354.36219 59549.8250612,-3005151.07839 59563.3823337,-3004993.61965 59634.1929169,-3004878.79283 59754.7564494,-3004859.22325 59892.1907243,-3004859.7759 60047.3346488,-3004919.74201 60128.1153984,-3004997.1202 60341.0942083,-3005096.20451 60563.6066864,-3005180.90297 60886.6317125,-3005285.79892 60968.7644312,-3005306.85546 61056.7776821,-3005299.25998 61129.797828,-3005274.44224 61180.071892,-3005226.2924 61195.1713508,-3005165.84567 61199.242478,-3005098.44632 61180.219799,-3005000.26332 61156.7230707,-3004790.27387 61124.126992,-3004470.68535 61117.6829249,-3004188.7078 61119.0485127,-3004068.66335 61136.9759695,-3003919.46865 61226.1066007,-3003791.8426 61321.9302222,-3003652.95199 61432.530353,-3003446.66134 61354.5181724,-3003284.52104 61140.9436662,-3003172.51712 60849.896766,-3003064.62556 60615.1390336,-3002952.11467 60428.063987,-3002794.56283 60403.0411564,-3002642.39294 60457.3685913,-3002526.34866 60559.4351495,-3002430.48046 60757.3610699,-3002297.78034 60966.5190804,-3002229.77453 61241.36164,-3002139.78674 61500.7530528,-3002102.79349 61696.4058861,-3002092.17228 61817.9398606,-3002018.79661 61870.8068753,-3001871.46 61900.902394,-3001753.56254 61886.8052541,-3001558.07297 61861.9302825,-3001451.70079 61818.1815715,-3001367.61577 61772.1846121,-3001272.68311 61699.2757037,-3001219.82802 61642.8707211,-3001221.96081 61604.8586204,-3001234.18821 61563.7064913,-3001264.48422 61471.2881515,-3001327.04157 61321.3040271,-3001441.57012 61193.8638545,-3001505.76144 61108.4247542,-3001493.81556 61050.4140196,-3001456.19607 60960.8738545,-3001356.32319 60884.3331164,-3001230.95162 60832.2808812,-3001171.6466 60740.7462491,-3001103.728 60617.9425784,-3001117.91823 60494.7448301,-3001123.66347 60354.9077659,-3001151.59208 60224.94896,-3001092.43451 60090.9592701,-3000946.83889 60025.4164872,-3000667.61463 60029.2276632,-3000450.37481 60075.8803488,-3000313.78072 60144.3933425,-3000197.57524 60195.903237,-3000159.82679 60263.9031407,-3000107.36998 60349.3760962,-3000050.61383 60414.7090316,-3000015.70616 60496.790759,-2999955.62343 60537.6366086,-2999854.64846 60562.8261569,-2999786.26541 60565.68241,-2999698.01399 60530.774181,-2999621.97749 60453.7294108,-2999565.82723 60331.855683,-2999525.208 60174.7344543,-2999486.7292 60010.8201797,-2999452.05166 59837.3345881,-2999361.56301 59719.3124549,-2999254.05144 59659.8486572,-2999110.45468 59637.1665937,-2998864.08027 59674.6642532,-2998616.39553 59701.1322017,-2998399.09602 59725.590662,-2998101.23905 59690.6194194,-2998007.77913 59626.0687905,-2997936.60657 59486.2653185,-2997815.66916 59417.7651074,-2997766.58551 59343.5921319,-2997713.28532 59064.6668906,-2997475.35882 58864.7010264,-2997350.74883 58619.6790011,-2997242.17605 58482.3115452,-2997098.71796 58412.5536419,-2996974.51478 58379.731681,-2996863.02947 58387.2135895,-2996644.12194 58435.139346,-2996465.15171 58502.6840246,-2996322.60771 58658.1530947,-2996026.11723 58786.6558327,-2995829.45826 58862.1445356,-2995702.47746 58941.9318718,-2995603.67445 58991.4166009,-2995527.68953 59009.9460475,-2995476.54431 59038.5663563,-2995401.53057 59048.4475134,-2995308.96854 59020.9847028,-2995243.03684 58957.45369,-2995172.31143 58870.0489519,-2995118.13016 58713.090049,-2995083.11646 58489.1292345,-2995047.23735 58169.1730877,-2994991.9274 57870.0571741,-2994935.1491 57584.5599473,-2994796.58508 57414.9692105,-2994650.63593 57297.5300603,-2994555.53119 57162.1428242,-2994443.83577 57121.0188177,-2994399.94532 57085.6307959,-2994313.46954 57060.4790785,-2994232.98977 57057.1226611,-2994155.47908 57110.0883585,-2994079.33164 57193.1386651,-2994050.57562 57266.4264169,-2994036.71174 57375.4654005,-2994026.16363 57475.1519186,-2994033.97351 57630.9692043,-2994055.10404 58037.5514259,-2994067.55749 58148.9284506,-2994027.02917 58211.9154361,-2993946.93196 58223.5781881,-2993892.62123 58198.5601955,-2993809.64744 58168.3664596,-2993765.24913 58116.0660901,-2993700.47116 58028.4307493,-2993641.31925 57860.8888929,-2993528.62975 57676.0401888,-2993429.19088 57526.9249259,-2993338.04688 57460.9629822,-2993273.90312 57443.8591753,-2993221.92532 57453.9058104,-2993132.83915 57525.4899973,-2993066.28256 57595.0515472,-2993052.59315 57675.9292429,-2993041.36474 57770.9765336,-2993040.43035 57856.3361155,-2993061.35421 58029.4644571,-2993053.3042 58130.8668183,-2992953.49914 58152.3751199,-2992811.10867 58051.873303,-2992625.10322 57912.8714111,-2992440.88699 57863.9862114,-2992379.93191 57840.3152648,-2992331.24674 57830.9992167,-2992275.42214 57827.31007,-2992201.41318 57847.9751852,-2992115.81723 57884.8481512,-2992068.30067 57991.4208563,-2992010.07669 58133.7357683,-2992035.32439 58251.4598483,-2992061.71495 58480.8856757,-2992209.86495 58661.8247893,-2992310.98076 58873.7257266,-2992392.73405 58964.8953967,-2992378.04095 59070.8007831,-2992353.70161 59143.3720536,-2992260.218 59160.310653,-2992174.797 59103.6772398,-2992022.10201 59002.2878538,-2991891.89872 58787.8448725,-2991530.47227 58740.739958,-2991197.11264 58677.1920579,-2990970.55814 58548.8390987,-2990860.02562 58372.7319872,-2990868.20801 58228.2062706,-2990956.07264 58127.3958531,-2991063.31403 58008.7881479,-2991167.89779 57886.3077383,-2991194.49889 57754.3719856,-2991071.18735 57680.2157256,-2990894.90736 57703.2193382,-2990752.44789 57818.8042184,-2990491.67913 57893.2007112,-2990276.63573 57859.1613993,-2990154.7495 57724.6490057,-2990072.37967 57533.3770066,-2989979.20366 57312.6342455,-2989862.50293 57219.6651538,-2989795.62723 57063.3533503,-2989683.40079 56935.6582393,-2989576.31701 56855.7777146,-2989523.27055 56737.3975903,-2989450.60374 56669.7467921,-2989387.52968 56607.6743816,-2989348.0938 56559.4144611,-2989300.54854 56521.1896691,-2989238.59711 56450.375337,-2989150.27849 56416.9091579,-2989035.33249 56375.6684055,-2988913.77727 56327.2827574,-2988852.79505 56261.7204233,-2988823.97557 56183.2414109,-2988795.75568 56094.4147305,-2988785.93921 55984.819825,-2988854.25604 55930.8604692,-2988984.21491 55890.2172183,-2989106.08778 55831.3896226,-2989222.33288 55752.47198,-2989324.07715 55691.3270856,-2989379.69036 55600.3368044,-2989398.35356 55471.2824105,-2989358.5419 55236.4798738,-2989164.32095 55125.9220255,-2989056.43685 55029.4467521,-2988962.33692 54951.4277223,-2988874.35012 54837.2928994,-2988780.57156 54741.4759295,-2988689.92532 54657.3833261,-2988626.61564 54578.889948,-2988608.85054 54501.3011315,-2988615.93726 54460.7968509,-2988649.6816 54413.9829786,-2988697.65946 54385.3751254,-2988773.17134 54355.8818485,-2988867.14592 54336.8129504,-2988928.27453 54320.4656973,-2989048.0266 54330.0094866,-2989178.52582 54395.4570261,-2989365.67707 54431.5025229,-2989461.08986 54452.4149001,-2989530.81766 54467.5077976,-2989630.68839 54477.5458684,-2989734.27898 54485.4739178,-2989781.70721 54488.5100811,-2989814.92411 54489.8858601,-2989882.0739 54467.098841,-2989927.44338 54446.3736819,-2989979.68746 54413.5582529,-2990023.53122 54377.5327412,-2990041.13647 54326.9205614,-2990060.91281 54276.482132,-2990073.71077 54175.0651716,-2990055.51821 54097.4611342,-2990024.76837 54041.601369,-2989990.51921 53998.9709237,-2989951.67256 53898.4934188,-2989878.6688 53812.411114,-2989815.45189 53722.9750364,-2989717.53858 53673.087246,-2989624.26113 53647.5347529,-2989567.19502 53643.9075631,-2989414.01472 53664.0887802,-2989312.50491 53708.3709341,-2989215.35299 53720.5642472,-2989166.98998 53724.968199,-2989143.88284 53720.0143481,-2989112.24823 53716.3895026,-2989077.06672 53696.3822927,-2989032.19019 53652.5280428,-2988988.42068 53599.5572139,-2988952.04473 53557.9881341,-2988936.0506 53511.0588086,-2988911.84122 53462.0355315,-2988917.60217 53437.9327708,-2988934.65343 53411.40792,-2988969.24317 53380.5020967,-2989027.43701 53356.5411379,-2989074.35498 53341.0295417,-2989147.76665 53304.5770964,-2989284.88445 53252.1468997,-2989410.29709 53217.451368,-2989472.65042 53189.1045057,-2989537.69638 53146.5859887,-2989613.85611 53084.5247527,-2989681.96138 53029.5199239,-2989714.38888 52915.9718498,-2989740.57281 52850.524589,-2989741.12234 52791.5981367,-2989758.79531 52727.0965959,-2989779.71455 52662.1426685,-2989823.06004 52617.9914072,-2989869.42278 52591.2305619,-2989893.56858 52575.7335485,-2989935.11555 52546.1200747,-2990021.13282 52535.6290274,-2990100.78532 52509.1881814,-2990174.70593 52470.2482961,-2990215.35018 52399.6392796,-2990249.49891 52326.1376321,-2990258.8872 52257.2119094,-2990259.59873 52147.2724691,-2990213.42093 51990.1742873,-2990095.24596 51778.1211011,-2989946.26289 51611.6413721,-2989819.06195 51527.7227549,-2989754.24798 51478.2275488,-2989717.70969 51425.1622321,-2989679.3455 51356.7784506,-2989611.32033 51315.6317885,-2989566.92566 51273.1046526,-2989519.60759 51214.7480462,-2989474.51808 51162.1031973,-2989450.57324 51116.1637585,-2989447.72698 51058.1902224,-2989448.42685 50993.6867448,-2989469.34613 50966.1424249,-2989524.89676 50962.2315619,-2989590.80205 50943.7688676,-2989718.62558 50944.3190553,-2989773.36984 50935.237807,-2989840.5111 50931.6378789,-2989923.82882 50904.7806646,-2989988.80811 50866.1625363,-2990036.40889 50829.6878973,-2990081.91856 50798.689214,-2990138.128 50783.8517035,-2990161.72082 50747.1571203,-2990213.21576 50696.684131,-2990262.86107 50666.2885072,-2990289.16811 50617.2629581,-2990294.93018 50557.7168275,-2990304.6662 50478.3962539,-2990301.379 50422.2725306,-2990277.59598 50366.2179873,-2990255.30343 50335.3461902,-2990233.83306 50324.8695583,-2990190.50323 50326.2125244,-2990155.08906 50337.8153344,-2990126.16925 50346.3625343,-2990090.42056 50360.2081543,-2990045.46344 50389.7273603,-2990000.27646 50428.7414012,-2989918.3011 50458.840799,-2989842.71471 50491.3304567,-2989786.43596 50516.7029099,-2989727.00234 50541.8216604,-2989662.10355 50567.85251,-2989606.12485 50578.7475562,-2989545.86981 50576.2972015,-2989487.7281 50565.6615159,-2989419.5103 50540.7665533,-2989365.89593 50494.2413391,-2989318.26477 50432.670638,-2989289.75468 50343.8303588,-2989274.46032 50253.6483945,-2989273.16971 50140.859972,-2989272.92851 50049.7690768,-2989289.60494 49980.3652357,-2989312.24546 49928.6737747,-2989341.03457 49869.3662584,-2989388.10223 49809.2211819,-2989433.21721 49723.7297693,-2989495.44228 49652.7213387,-2989563.96598 49581.7128851,-2989632.48984 49522.2259762,-2989681.06011 49479.9193246,-2989745.76208 49431.4198388,-2989805.77247 49390.3784258,-2989870.9138 49342.8886783,-2989947.30887 49285.809727,-2990010.20753 49236.77069,-2990026.4263 49183.284728,-2990021.93887 49147.3801068,-2990004.68496 49099.9626746,-2989970.04037 49066.2902571,-2989925.79494 49035.8420658,-2989875.92262 48997.2952211,-2989812.48442 48952.7933208,-2989733.38908 48917.3626331,-2989645.90573 48879.4141336,-2989547.08694 48823.4181054,-2989375.91106 48762.964663,-2989242.78408 48679.7650747,-2989059.42644 48638.3488893,-2988923.42364 48595.4341291,-2988755.12515 48502.3315009,-2988535.37967 48353.2796586,-2988333.16764 48230.2369382,-2988192.48667 48144.3286545,-2988127.75888 48082.8895832,-2988096.75052 48011.2290782,-2988076.17493 47943.2901168,-2988098.24851 47891.7577894,-2988130.51533 47827.7836469,-2988189.74979 47763.935103,-2988262.42267 47633.8251991,-2988387.96357 47494.92041,-2988527.85524 47376.5171752,-2988637.418 47281.3125431,-2988726.48508 47180.3269232,-2988792.91566 47093.427491,-2988851.7216 47017.3794315,-2988897.57563 46955.43024,-2988925.34759 46874.8379774,-2988943.03019 46813.4746925,-2988945.8781 46735.3918146,-2988942.5308 46674.8733279,-2988931.39715 46638.9446526,-2988913.64492 46605.9919694,-2988890.27721 46585.0690443,-2988857.88618 46567.3653693,-2988814.39104 46551.423829,-2988771.31204 46538.5275142,-2988724.10818 46539.5614835,-2988671.27845 46603.0518771,-2988553.3079 46695.5476371,-2988416.56383 46777.4816847,-2988336.57731 46820.480699,-2988259.89138 46828.8090962,-2988181.8266 46827.5077776,-2988143.04781 46816.2870163,-2988099.74987 46802.3847602,-2988063.04953 46784.8661281,-2988023.52933 46755.3380913,-2987966.6405 46718.9897253,-2987934.46704 46669.4230819,-2987896.43358 46615.5331628,-2987872.54293 46565.5182991,-2987862.41477 46521.5452546,-2987864.4548 46479.5417393,-2987871.38285 46399.5429053,-2987896.50568 46321.9336008,-2987940.93743 46254.5537124,-2988007.3021 46252.3666993,-2988083.58876 46253.4759192,-2988134.32744 46256.3396965,-2988201.41682 46263.9905933,-2988291.18946 46258.9610187,-2988370.59573 46250.486377,-2988413.31411 46221.9933183,-2988448.49635 46173.5688458,-2988472.65283 46164.8966092,-2988473.55318 46098.0030446,-2988480.64072 46033.004684,-2988485.64853 45979.5110845,-2988475.6821 45934.5462052,-2988456.35688 45892.5752725,-2988426.43584 45854.0132996,-2988394.86275 45815.5383782,-2988359.79995 45770.5885782,-2988308.6053 45736.1038653,-2988241.48867 45707.0593485,-2988195.03334 45678.598803,-2988145.06525 45651.5187993,-2988098.02075 45597.8788979,-2988052.70639 45531.0947591,-2988008.49969 45466.6182861,-2987992.56891 45391.5075292,-2988005.0166 45344.457627,-2988026.61941 45308.4952977,-2988045.71607 45269.0650524,-2988075.92854 45228.6461666,-2988111.66437 45202.0246873,-2988144.27036 45178.4126954,-2988182.71217 45164.9740301,-2988231.13899 45152.0143759,-2988284.52312 45166.544646,-2988340.11747 45185.1601309,-2988392.53454 45212.1125331,-2988447.55247 45263.9960883,-2988497.92787 45317.4803967,-2988545.24122 45380.5362537,-2988611.03244 45438.1264535,-2988677.07716 45489.4388025,-2988720.50741 45533.4898937,-2988752.32377 45555.0765358,-2988793.6477 45551.4837876,-2988839.62573 45503.6018819,-2988864.75344 45428.0813777,-2988873.73556 45365.9713503,-2988876.61789 45246.1486627,-2988875.20715 45107.085682,-2988877.67695 44864.6169371,-2988899.88402 44411.0110745,-2988927.40754 44244.7527348,-2988907.23717 43645.5640323,-2988834.45377 43343.1231725,-2988787.73601 43076.3066,-2988746.83412 42515.2727949,-2988401.87667 42260.2687864,-2988363.41193 42014.7998206,-2988353.38699 41615.884809,-2988384.84107 41427.1534938,-2988325.87133 41366.6380601,-2988202.19145 41440.1866276,-2988059.34505 41593.8244629,-2988005.90619 41829.6308687,-2987995.46595 41971.1728667,-2987955.03792 42121.0978935,-2987918.20497 42235.6094442,-2987837.2012 42382.215802,-2987632.20778 42308.739555,-2987314.92117 42206.1743296,-2987197.17631 42051.6875048,-2986963.81888 41892.6911345,-2986713.73832 41775.2514612,-2986457.74613 41710.7598148,-2986253.57796 41676.2215262,-2986051.00883 41517.6384507,-2985729.19705 41409.1333501,-2985660.52553 41279.0446056,-2985679.50242 41200.6171643,-2985803.15049 41092.7580035,-2986027.75926 40987.1552698,-2986198.98024 40877.7716259,-2986385.31659 40757.1169652,-2986521.87981 40725.2980075,-2986555.22597 40612.1924296,-2986672.01842 40497.1645982,-2986736.61185 40401.2331496,-2986761.97509 40310.3511356,-2986751.24915 40284.8239193,-2986748.44879 40108.3539976,-2986637.11321 40020.2470733,-2986498.27495 39979.7280781,-2986403.04535 39960.2165487,-2986282.9383 39959.88282,-2986162.93821 39981.6755637,-2986031.45477 40001.8131237,-2985917.97579 40014.7273686,-2985809.81159 40029.3181698,-2985732.44505 40039.732637,-2985683.15948 40039.7503459,-2985576.09113 40041.6335962,-2985509.27341 40026.7209382,-2985402.39903 39998.7782146,-2985299.11637 39967.2710831,-2985226.37612 39887.2149878,-2985094.63282 39700.1787074,-2984986.27177 39693.8059879,-2984983.08111 39564.6401056,-2984925.32311 39481.2382077,-2984893.33202 39402.3421671,-2984899.47749 39336.7162814,-2984917.95593 39286.8452338,-2984948.65226 39253.7786031,-2985003.46971 39243.7088034,-2985060.20962 39238.7282738,-2985124.68164 39246.2352429,-2985184.59108 39264.1970698,-2985265.9278 39277.6903262,-2985326.05782 39312.2933444,-2985374.25371 39382.7587179,-2985438.7154 39449.8328738,-2985499.84816 39481.8835141,-2985573.55975 39481.201374,-2985644.80434 39388.3520037,-2985785.05974 39246.7745461,-2985894.70642 39049.8143869,-2985959.11288 39044.9141925,-2985960.83399 38990.2436032,-2985979.30385 38917.9270555,-2985993.11365 38854.7428987,-2985989.07024 38791.7101247,-2985977.54982 38742.7246822,-2985962.88829 38686.7954182,-2985938.09058 38636.8607221,-2985897.57698 38576.7703264,-2985842.09601 38479.8228307,-2985668.30489 38399.7484516,-2985493.23337 38351.8259851,-2985377.92579 38232.7413507,-2985279.85957 38055.4337157,-2985220.34702 37875.946175,-2985199.77946 37666.2476023,-2985220.45206 37471.9267203,-2985261.3285 37268.5049788,-2985331.51138 37032.790864,-2985414.14721 36758.5395097,-2985498.07127 36485.3525408,-2985535.13304 36158.4683522,-2985520.39915 35872.9410988,-2985527.65352 35726.9564304,-2985542.38639 35638.0801374,-2985558.95524 35542.1092707,-2985599.75799 35478.8962244,-2985643.52513 35407.9802926,-2985687.64929 35358.4395114,-2985763.15466 35341.05804,-2985828.70343 35319.5397494,-2985890.95777 35339.4448515,-2985971.2135 35403.0350082,-2986021.55522 35494.5601813,-2986062.13575 35599.4450737,-2986138.45273 35687.547206,-2986191.14415 35799.5114901,-2986226.79273 36017.5256613,-2986277.9447 36323.0192507,-2986293.16832 36672.556545,-2986404.4592 37064.5298101,-2986657.70722 37136.5720029,-2986713.13303 37207.0048977,-2986787.55777 37294.4310063,-2986868.6647 37338.8878753,-2986919.89084 37378.5086082,-2986968.85107 37410.3987436,-2987012.19353 37439.0357318,-2987055.18876 37451.38885,-2987101.42901 37439.3918282,-2987148.79826 37378.3538143,-2987196.44932 37249.0140388,-2987253.24355 37062.3982364,-2987272.35461 36784.0509169,-2987321.61581 36390.0343363,-2987335.90099 36022.0163123,-2987325.57347 35696.9941488,-2987275.90017 35503.9457928,-2987231.56196 35390.6506586,-2987199.46271 35289.6690963,-2987169.78059 35184.6245157,-2987143.77292 35099.1473153,-2987147.73577 35041.0524721,-2987205.21237 34987.6295004,-2987282.8917 34975.9812322,-2987391.50429 34980.6537878,-2987486.90945 35024.4793134,-2987562.07206 35067.6727358,-2987612.86043 35121.07692,-2987663.67328 35154.6357459,-2987726.86097 35141.0064114,-2987792.73482 35118.6091421,-2987830.62761 35071.2205286,-2987861.21283 34991.0324047,-2987893.31912 34889.6520711,-2987898.02042 34763.7359885,-2987899.87525 34625.6440175,-2987902.29467 34541.2311156,-2987934.59706 34478.5664361,-2987984.8163 34415.0821072,-2988028.10115 34370.270033,-2988060.55945 34308.1922978,-2988085.84991 34232.660342,-2988121.72509 34146.5645382,-2988117.7492 34063.1097638,-2988111.65865 33978.0696908,-2988076.75534 33928.3014452,-2988050.67506 33873.1155519,-2988004.42635 33830.1976299,-2987959.60083 33780.0946697,-2987888.71231 33763.2588598,-2987783.41044 33768.1916543,-2987717.93846 33776.547252,-2987640.35485 33827.1884596,-2987583.22243 33903.2523953,-2987510.46826 33975.6039498,-2987454.32163 34076.6644565,-2987394.35388 34147.0280119,-2987338.29969 34200.5375067,-2987305.43864 34246.2287691,-2987270.44992 34271.5706081,-2987215.48719 34273.0316049,-2987107.34577 34252.7052144,-2987012.66529 34220.2246915,-2986892.1523 34203.5156135,-2986800.29226 34188.0177523,-2986723.81514 34177.2049195,-2986657.08154 34188.0612262,-2986595.81801 34242.1209237,-2986521.09721 34322.0689833,-2986446.17272 34401.5793765,-2986361.80606 34503.6883959,-2986286.85092 34600.1282897,-2986213.15481 34683.0362337,-2986164.48957 34770.5319173,-2986118.10198 34845.1609901,-2986057.36991 34910.420444,-2985977.15103 35000.0722181,-2985891.31968 35058.4808839,-2985829.84566 35093.9142342,-2985766.94629 35115.4048797,-2985698.71676 35111.075597,-2985605.28829 35093.0388153,-2985516.97721 35068.6107528,-2985430.45632 35024.4108984,-2985363.27848 34953.0672413,-2985306.82071 34822.9890428,-2985224.19839 34702.6197427,-2985136.1456 34625.1012918,-2985096.90636 34647.8953116,-2982416.45746 34724.128515,-2972393.74904 34831.8364882,-2959889.76753 35165.333367,-2932347.58458 35167.6875878,-2931895.80923 35183.8897996,-2929371.80993 35192.7651955,-2928010.92932 35200.2128865,-2926897.61052 35202.7162847,-2926497.62093 37479.1679374,-2924692.73468 51524.5021864,-2913556.9206 71207.7574521,-2897958.03254 71951.6565162,-2897368.20882 73497.665994,-2896188.47965 77380.7024654,-2893226.42413 89268.9239858,-2884155.78203 93862.5683148,-2880650.69183" style="stroke-linejoin:round;stroke:#000;stroke-width:1px;fill:none" /></g></g></svg>