<svg xmlns="http://www.w3.org/2000/svg" baseProfile="full" height="97343.4170472" version="1.1" viewBox="26442.807542,2563633.609320,72666.215858,97343.417047" width="72666.2158579"><defs><style type="text/css">polyline,line,rect,path,polygon,.polygon{fill:none;stroke:#000;stroke-width:1px;stroke-linejoin:round;}</style></defs><g fill_rule="evenodd" transform="scale(1,-1)"><g class="id" id="38028"><polygon class="_38028" id="None" points="94647.8991116,-2614590.53443 94917.860475,-2614679.02004 95083.8376783,-2614899.98687 95084.8397514,-2615227.43914 95085.0905019,-2615335.42341 95142.5822497,-2615352.4205 95473.0346737,-2615448.90389 96055.2009726,-2615700.86211 96145.9408508,-2616076.80565 96515.6371394,-2616204.78315 96599.6286591,-2616605.72253 96553.8887399,-2616904.67845 96186.4445144,-2617009.16711 96027.970552,-2617230.6362 96213.4462078,-2617482.09672 96425.4179679,-2617730.55711 96555.149979,-2617828.54081 96634.3892459,-2617907.52796 96889.359828,-2618508.43454 97072.3476982,-2619446.2911 96813.1468608,-2620021.70974 96583.4400059,-2620486.14503 96525.2069183,-2620893.58574 96408.7399225,-2621621.98039 96754.4460097,-2621941.92503 96744.2071266,-2622344.86541 96607.7338804,-2622609.82947 96440.2668744,-2622935.7855 96498.2627683,-2623108.25853 96412.7857307,-2623498.70318 96262.8484869,-2624920.49842 96330.6051738,-2625457.41758 97495.2565304,-2627591.06251 98457.8896138,-2628302.91919 98683.8686567,-2628634.3602 98487.1632967,-2629003.81244 98314.9701866,-2629746.20816 98071.0265512,-2630207.64975 97781.3377121,-2630618.60148 97714.8517707,-2630713.09046 97399.1699097,-2631190.53436 97434.9242739,-2631399.50201 97461.9276495,-2631557.47755 97263.2251593,-2631947.92967 96995.5452751,-2632592.84857 96619.3789475,-2633183.28178 96352.1746845,-2633329.27423 95972.2394121,-2633536.26385 95682.8012376,-2633942.72095 95705.3025422,-2634029.70748 95768.3063944,-2634275.16948 95742.5757468,-2634573.62864 95626.3533669,-2634784.60506 95515.8796603,-2634985.08278 95490.3857463,-2635031.57763 95114.6826425,-2634925.61264 94796.4795206,-2634974.1229 94794.4798515,-2634975.12287 94690.4968871,-2635024.12163 94427.5398322,-2635147.61864 93790.3771772,-2635147.65269 93431.937841,-2635371.6414 93417.6902518,-2635380.64095 93394.1958709,-2635426.13605 93248.7307007,-2635707.60589 93169.4997995,-2635862.58933 92178.6899234,-2636913.50444 92159.1936446,-2636934.00284 91519.7979157,-2637299.49128 91506.8000299,-2637306.99104 91378.0799278,-2637538.46838 91090.1470127,-2638056.91818 90996.1689447,-2638225.90199 90807.7130333,-2638565.36971 90582.840959,-2640195.17694 89802.4873252,-2640969.12984 89782.491075,-2640989.12864 87949.3784829,-2643506.44618 87873.9185266,-2643960.898 87534.469368,-2644123.40251 87514.4730757,-2644143.40156 87099.8001877,-2644563.38183 87079.8038817,-2644583.38093 85650.3893803,-2647017.70999 84738.3061276,-2647929.17896 83953.9024238,-2648102.71919 83342.4993039,-2648543.71884 83318.7525524,-2648554.21953 81799.4579481,-2649231.76454 80772.0936384,-2649689.7964 80735.8497166,-2649723.7958 80633.1169407,-2649820.29414 79249.5968032,-2651119.27549 79181.1090904,-2651196.77353 78412.9965078,-2652067.75278 77216.8997861,-2652672.29154 76399.2525828,-2653085.81899 75117.1890702,-2654102.33328 74127.7661894,-2654059.91332 72314.8835605,-2653720.57718 70779.7294902,-2653433.21167 70704.7341001,-2653419.21814 68317.4379414,-2653846.8574 66903.4596615,-2652730.03263 65111.2729871,-2651834.71109 63899.3472672,-2651741.79393 62729.4303187,-2651868.85845 62471.9271713,-2651551.89428 62302.1752108,-2651342.91778 61536.6675013,-2650400.52259 60325.9332602,-2649349.15712 59797.4151825,-2648417.74378 58647.7079405,-2647889.33694 56659.0605763,-2647578.45644 54123.6910751,-2647307.59448 52557.2639453,-2647050.68084 51283.0318897,-2645931.79625 50682.3024337,-2645676.83509 50424.0612339,-2645567.35158 48408.4070743,-2645419.44129 48187.4173028,-2645402.95089 48188.6676183,-2645412.45037 48308.9506883,-2646378.39837 48256.2549076,-2647619.34109 48168.0556936,-2648704.79406 48638.5855976,-2649863.21979 48978.8527081,-2650572.67175 49429.3645562,-2651257.11935 49335.1890954,-2652701.55944 49789.7237111,-2653780.98944 49509.0630519,-2655267.94102 49200.9156285,-2656946.38986 49122.1921677,-2657374.87748 48935.7664796,-2658583.84207 48885.0369123,-2658912.83281 46995.6746483,-2660194.89456 45628.4973077,-2660722.95351 44929.2542417,-2660458.99953 43111.1930706,-2658190.66232 41890.9004729,-2656495.77322 41153.6276488,-2655471.83888 40034.8599924,-2654228.92659 37579.860762,-2652271.58591 35684.165775,-2652178.15771 34614.1887785,-2651926.70234 32980.4947695,-2652209.24886 32537.5178581,-2652545.75411 31162.0670202,-2652954.28743 29407.3857977,-2653794.32117 28412.6965376,-2655068.32284 28333.2004266,-2655141.32369 27294.0000042,-2656093.83548 26949.7591655,-2656179.844 26450.5222135,-2656304.8562 27446.4005357,-2652734.90251 28100.3072467,-2649868.9556 28109.5468676,-2649480.96562 27649.5338108,-2648481.00425 27651.2379477,-2646590.55726 27580.7187042,-2645674.08571 27756.9474019,-2644969.10282 27792.1705135,-2643805.63786 28144.6417928,-2642994.65594 28285.6045822,-2641443.70379 27580.5977052,-2639892.76996 27580.5838555,-2639152.29532 27263.0721631,-2637883.34517 28176.7562267,-2635939.89965 28070.2490528,-2635259.42663 27971.4927472,-2634627.9518 27765.4918224,-2634062.47623 27742.741739,-2633999.97893 27851.4696914,-2632776.02396 27837.220004,-2632759.52479 27239.7332568,-2632059.55995 27161.4763008,-2631302.59015 27319.2165869,-2631022.599 27731.1912044,-2630292.12246 29426.3734308,-2630309.59995 29726.6064036,-2629949.61073 29806.8518377,-2629853.11365 29454.3561843,-2629051.65121 29307.6067739,-2628601.17162 29389.3509536,-2628396.67912 29394.3504206,-2628369.18021 29496.5897736,-2627820.70188 29516.8312501,-2627136.73036 29378.083779,-2626831.24473 29082.3435598,-2626580.25841 29120.3393805,-2626330.26853 29182.3352022,-2626176.77437 29281.32748,-2625824.78827 29498.3121821,-2625202.81264 29570.8057034,-2624845.32728 29859.5406227,-2624559.33693 29944.033741,-2624204.35154 30370.2601336,-2623635.37262 30416.2550324,-2623274.38809 30377.7522988,-2622733.91224 30328.0018978,-2622403.42722 30395.9967919,-2622128.43887 30495.2394433,-2621730.45581 30722.2234789,-2620893.99159 30227.739563,-2619931.03779 30357.4792167,-2619115.07361 30374.9742223,-2618265.11177 30801.7006249,-2617267.15515 30757.1976372,-2615778.72317 31008.18228,-2613952.30633 31494.6587155,-2612851.35668 31720.3983165,-2611200.43342 32475.1161486,-2609141.53096 32616.8601679,-2608863.04443 33444.3263246,-2607238.12419 34837.0143761,-2606121.68433 39195.3053861,-2604375.29986 39821.2766419,-2603839.33295 40124.7627192,-2603579.34924 40410.5039791,-2602849.39058 40412.0039316,-2602845.89078 40413.0039014,-2602843.39093 40414.5038585,-2602839.39115 40416.7537896,-2602833.89147 40418.0037555,-2602830.39167 40480.2519263,-2602671.40071 40789.2432311,-2601882.44584 41308.4858748,-2600076.04817 41335.7355836,-2599981.55355 41495.4801584,-2599733.06884 42246.2054977,-2598565.14162 43181.9274175,-2597068.23676 44947.0973881,-2596049.82275 46590.5236436,-2595022.41167 48420.4451669,-2593687.52733 48792.4461617,-2592679.59512 49067.2159726,-2591204.68833 49454.7570902,-2588836.33623 49443.7874539,-2587811.89463 49470.3105212,-2586996.94171 49723.5672457,-2586321.98773 50141.0561272,-2585932.02315 51133.2567843,-2585706.06868 51397.7434914,-2585645.58103 53005.8775151,-2586258.09889 53121.6177606,-2586339.09789 53243.3574676,-2586424.5968 53271.3551027,-2586444.09656 53286.6038182,-2586454.59643 53290.1035203,-2586457.09639 53299.3527366,-2586463.59631 53301.3525639,-2586465.09629 53316.6012787,-2586475.59616 53355.5979685,-2586503.09579 53368.3468855,-2586512.09567 53394.8446406,-2586530.59543 53399.3442641,-2586533.5954 53412.5931327,-2586543.09527 53435.0912322,-2586558.59507 53665.5716259,-2586720.0929 54745.7733263,-2586169.16429 55775.7156049,-2585955.71442 55783.4651625,-2585954.2148 56991.6466012,-2585688.27625 57354.373458,-2585668.79106 57705.1035032,-2585581.31005 58047.0859378,-2585443.33226 58368.3211203,-2585268.35634 58662.30968,-2585053.38228 58717.3079268,-2585003.38782 58934.3010276,-2584806.40972 59194.7936313,-2584549.43758 59443.5375327,-2584282.46584 59682.7825607,-2584006.49451 59915.7783042,-2583726.52338 60143.5247477,-2583441.55254 60363.2722,-2583149.08204 60572.2708457,-2582849.61171 60773.2703791,-2582546.14146 60966.5209281,-2582235.6715 61144.0230372,-2581918.70139 61304.527084,-2581589.23149 61480.7798284,-2581268.76179 61679.5306219,-2580960.79242 61865.7827939,-2580645.82308 62002.7894823,-2580311.85277 61934.3004903,-2580182.85833 62005.3091924,-2579905.88087 62157.0641111,-2579596.40967 62377.0600599,-2579375.4359 62323.8344209,-2578966.96126 62235.1140164,-2578507.98802 62399.6194852,-2578187.51834 62601.6220032,-2577878.54996 62509.6519279,-2577433.07524 62568.4115859,-2577179.59548 62822.9077187,-2576934.62581 62979.6729862,-2576464.66612 63165.4269684,-2576168.69641 63211.4442661,-2575806.72335 63148.9670107,-2575480.24165 63143.4901015,-2575084.26769 63204.5126343,-2574626.80152 63290.2898755,-2574068.84332 63407.298014,-2573803.86769 63860.7836265,-2573547.91191 64155.7705293,-2573442.43689 64543.0109522,-2573179.47826 64896.7364597,-2573191.99941 65023.7399777,-2572999.02035 65173.7319974,-2572965.03208 65289.7454313,-2572629.0621 65340.7658469,-2572256.09047 65365.2878038,-2571890.61653 65402.058949,-2571528.64307 65471.0782602,-2571165.67172 65590.0932554,-2570821.7024 65807.847897,-2570538.23578 66074.0978343,-2570279.27101 66285.6040938,-2569983.30515 66454.1154249,-2569658.33838 66646.8742657,-2569349.37236 66883.6280661,-2569073.40741 67135.6301997,-2568808.94297 67261.6500663,-2568417.47807 67459.6642576,-2568043.01734 67610.1880026,-2567586.55863 67709.5324958,-2566248.15358 68430.932884,-2563765.36915 68695.6347391,-2564150.36629 69309.0957708,-2564143.9168 70020.5375357,-2564284.46614 70536.3924494,-2565632.91724 71240.7932275,-2566253.43084 72296.6783732,-2566735.48148 72916.5684913,-2567528.97262 73469.4969088,-2567898.98891 74336.1779384,-2567923.55688 74912.3706002,-2568071.09208 74896.5944818,-2568408.56397 74932.0678924,-2568703.54326 74738.8038279,-2569073.4982 74618.2896916,-2569374.46455 74576.5164391,-2569713.934 74407.502641,-2570066.89246 74317.701553,-2570829.82391 73865.4460535,-2571391.74445 73708.1801447,-2571779.70143 73569.9164562,-2572120.6637 73291.1645657,-2572459.61612 73163.6637895,-2572614.59446 72910.6623745,-2572922.55164 72908.6623595,-2572925.05129 71885.8882925,-2574474.85627 71335.7971942,-2576570.15134 72239.026366,-2579821.93423 72502.9688128,-2580431.39685 72805.6531631,-2581130.35299 73192.0932684,-2581596.33332 73216.5669946,-2582036.29556 73115.0460826,-2582592.74046 72893.5480847,-2582928.19881 72848.7985309,-2582995.69044 72738.7776706,-2583587.63192 72687.7548088,-2584128.08097 72668.7452062,-2584354.05975 72645.4835899,-2584630.53377 72787.9511238,-2585031.00464 72775.4237513,-2585622.9504 72771.665385,-2585806.43355 73307.0938787,-2586284.91493 73938.7834171,-2586324.94087 74065.0038475,-2586704.41127 74323.221823,-2586870.90758 74663.6695969,-2587303.8822 75061.8693628,-2587569.37496 75629.0473376,-2587946.86412 75995.0003304,-2588195.35628 76646.1812521,-2588298.87535 76826.9036165,-2588512.36216 76865.1303807,-2588949.32006 76717.6308173,-2589278.28061 76632.8811473,-2589467.75796 76684.353505,-2589997.70691 76750.8306771,-2590385.67057 76754.7968942,-2591211.08719 76232.0821808,-2591659.02149 76428.0311479,-2592484.94544 76725.7095887,-2593626.8397 76629.4398259,-2594492.74751 76614.4296849,-2594846.21067 76660.4153785,-2595141.18179 76802.3883296,-2595530.14612 76939.1154147,-2595809.62141 76864.8619961,-2596172.58142 76761.6152486,-2596421.05251 76655.619973,-2596633.02739 76718.1049223,-2596927.49863 76973.5803177,-2596858.51321 77225.3059313,-2596792.02751 77726.2508531,-2596871.53381 77927.4653444,-2597361.98758 77761.7212376,-2597780.43845 77790.7166156,-2597836.4333 78058.6740431,-2598354.3853 78251.1362287,-2599015.31939 78403.1062085,-2599563.76403 78452.0842704,-2600266.18918 78214.3472417,-2600834.62232 78048.6080977,-2601161.58346 77785.6276333,-2601584.53248 77479.4052713,-2601843.49859 77618.6287553,-2602449.43634 77764.3572887,-2602766.40492 77838.846367,-2602928.38879 78136.3110266,-2603108.37454 78379.0320897,-2603255.36276 78464.7709237,-2603361.35267 78587.7549141,-2603513.33813 78884.2203713,-2603633.82985 79172.1854587,-2603824.8135 79652.6281861,-2604065.79444 79674.375583,-2604076.79356 79821.6026554,-2604493.74918 79884.8428935,-2604672.73005 80090.567506,-2604827.21568 80563.2589909,-2605182.18221 80646.2405074,-2605867.6053 80920.2039123,-2606305.55857 81376.8971673,-2606677.02101 82001.8217481,-2606939.49726 82461.2649951,-2607217.46938 82699.2367846,-2607229.9703 83023.9481049,-2607246.97155 83354.1585504,-2607263.97285 83361.6576484,-2607264.47286 83399.6530816,-2607266.473 83450.3969797,-2607268.97322 83814.3525955,-2607332.96917 84008.5764279,-2607611.93736 84050.3187705,-2607896.90323 83987.5703953,-2608636.81311 84009.3146537,-2609091.75815 84159.2946395,-2609392.22259 84355.769674,-2609582.20056 84400.0140494,-2609625.19555 84684.7286926,-2609728.68437 85028.4368793,-2609642.19679 85096.9285186,-2609625.19925 85523.625704,-2609614.70283 85852.084238,-2609710.19266 85863.8327349,-2609716.69191 86187.0412866,-2609898.17075 86690.2258271,-2610331.11825 86961.9411308,-2610367.61466 87117.1712399,-2610388.11264 87548.3649482,-2610666.57844 87935.3141229,-2610954.54237 87961.3106856,-2610980.53907 88321.0131275,-2611336.99349 88435.4982424,-2611302.99814 88935.6824599,-2611379.98894 89149.1538305,-2611704.44638 89601.0936187,-2612013.40566 89999.5403307,-2612280.36998 90004.5396613,-2612285.36931 90356.9924779,-2612647.8203 90804.6820834,-2612837.29405 91315.8628536,-2613139.25188 91615.0717293,-2613137.2515 92142.4989077,-2613205.74083 92502.699666,-2613554.19127 93297.5884167,-2613726.16439 93695.2824187,-2613858.64408 94647.8991116,-2614590.53443" style="stroke-linejoin:round;stroke:#000;stroke-width:1px;fill:none" /></g></g></svg>