<svg xmlns="http://www.w3.org/2000/svg" baseProfile="full" height="86536.8061208" version="1.1" viewBox="-17187.802978,2523088.694556,139341.960320,86536.806121" width="139341.96032"><defs><style type="text/css">polyline,line,rect,path,polygon,.polygon{fill:none;stroke:#000;stroke-width:1px;stroke-linejoin:round;}</style></defs><g fill_rule="evenodd" transform="scale(1,-1)"><g class="id" id="38049"><polygon class="_38049" id="None" points="105909.598533,-2541658.8946 106071.474085,-2541677.4813 107279.052571,-2541815.0885 110572.29204,-2542189.70224 112130.014298,-2542380.16428 115573.936706,-2542912.79902 117460.184344,-2543284.97231 119586.213605,-2543689.25846 122055.139908,-2544219.85076 121974.608752,-2545042.8062 122037.608924,-2546828.22128 121813.130683,-2547941.20679 121153.593946,-2548951.76935 120301.289853,-2550895.53159 119843.102714,-2552151.94578 119747.468765,-2552990.79789 119739.526887,-2554173.2364 119739.009762,-2554250.23238 119650.669401,-2554822.13497 119518.684317,-2555676.24231 119463.883159,-2555758.37368 118802.722746,-2556750.92641 118670.668716,-2556908.0385 117739.484137,-2558016.27779 117344.652678,-2558550.12293 116687.191666,-2559438.70241 116603.648569,-2559668.63988 116258.778923,-2560617.81777 114440.822217,-2559123.62368 113350.114213,-2558485.30545 112394.846889,-2560052.88324 111848.28145,-2561068.70819 111136.624085,-2562098.42509 110135.503393,-2563830.69516 109355.942499,-2563765.96342 108834.962395,-2563241.96986 107492.632948,-2562509.96478 107011.746228,-2562232.73878 106389.762531,-2562119.0649 105926.398282,-2562732.4517 105069.495284,-2563836.19467 104261.449,-2564812.26629 103717.974875,-2565293.11628 102945.844689,-2566393.42833 101995.359348,-2567211.54495 101032.00884,-2567935.07572 100104.88965,-2568363.3512 99273.6968298,-2568988.7693 98147.7671893,-2569798.70812 97288.223414,-2570178.43703 96837.3871623,-2570377.91 96015.7241352,-2570551.89413 95921.3413427,-2570571.76053 95611.4040642,-2570637.17987 95186.8920945,-2570713.8301 94609.193325,-2570818.45193 94426.7210838,-2570851.72696 94012.7170143,-2570964.44741 93134.6209038,-2571203.0519 93008.8957197,-2571311.2073 92425.7792093,-2571813.28993 92112.2019535,-2572681.67941 92079.4675569,-2573461.45473 92124.532718,-2574233.75249 91965.6028755,-2575117.1802 91319.9234952,-2576224.33871 90273.1416548,-2577793.80113 89610.0023447,-2578336.34508 87871.3515107,-2579812.16034 86814.4803779,-2581506.05185 83923.5870172,-2583130.12093 81602.9771886,-2584860.01542 76400.9436856,-2587734.02114 75361.0637729,-2588163.52372 74725.5522016,-2588426.24679 72639.5230539,-2589288.20505 71792.0527305,-2589508.00047 71246.3773462,-2589757.82585 70428.6610931,-2590051.31952 68914.0624987,-2590737.1169 67098.2552634,-2591417.38337 64665.6571771,-2592364.98763 64043.1955397,-2592731.78915 62374.8357198,-2593308.53968 59583.3924793,-2593233.22893 58123.6607385,-2593049.39326 56991.4936287,-2592632.77025 56013.4947056,-2592302.18482 54497.7400856,-2591010.49904 53251.9470043,-2590465.61593 52215.0721141,-2590080.63729 51188.8294944,-2589676.23136 49850.9682906,-2589995.70135 48314.7540464,-2589886.84636 47377.3086303,-2589809.52734 46367.9278184,-2589463.73293 42309.6040919,-2589387.86214 40610.0441331,-2589667.38273 39658.4991599,-2590828.90707 38146.2023195,-2592475.61833 37354.6409903,-2594266.68511 36557.5057462,-2596252.70218 35891.6293001,-2597496.13992 35010.1439829,-2599200.09482 33284.0527455,-2602659.74239 32032.6177002,-2605831.11041 31682.9803858,-2608765.10452 30940.2980636,-2608760.06431 29343.0887979,-2609170.2025 26697.8342723,-2609153.73916 26441.1097792,-2609151.99541 25781.4224988,-2609148.01426 24407.0561228,-2609139.67694 -163.348915075,-2608986.40792 -218.840105698,-2608986.02943 -17128.0975372,-2585038.08305 -11550.7212752,-2574697.0272 -199.499941748,-2567570.95859 -1156.93311162,-2554408.35322 5466.9636884,-2554482.6156 10612.3929193,-2549464.55825 21758.4769593,-2545584.7975 23844.4615902,-2544475.30006 23448.0746873,-2543525.73022 23505.1172425,-2542506.18927 23457.1348209,-2541791.42435 23563.9944039,-2540723.21778 23514.8410928,-2539733.46512 23775.0976992,-2538978.75476 23698.4523854,-2538475.78174 24217.6914551,-2537495.31021 24232.5324968,-2537443.91272 25069.3050378,-2536793.02861 25782.4825571,-2535857.33956 25956.1708688,-2534963.0558 26083.1833307,-2534959.90099 26508.4343234,-2535068.22297 26660.4743013,-2535323.71765 26902.0921828,-2535416.31927 26979.8668738,-2535674.81981 27275.3386503,-2535751.28114 27305.9144756,-2535964.97065 27541.6574011,-2536151.52753 27725.0337937,-2536130.74945 27842.4619043,-2536215.5256 28104.5565621,-2536198.77131 28438.8836284,-2536521.97625 28640.3769715,-2536708.80583 28962.9068749,-2536851.44425 29458.3342703,-2536895.24035 29591.1448278,-2536659.63928 29803.856299,-2536738.55078 30329.6998748,-2536607.06028 30886.140116,-2536385.77878 31153.2096825,-2536448.05352 31457.5743061,-2536353.0859 31873.8120534,-2536388.85573 32176.312122,-2536498.86402 32380.3734009,-2536788.20666 32705.0540116,-2536795.86885 33018.7030409,-2536883.45318 33332.1486324,-2536926.53877 33604.1166052,-2536628.86681 33955.1950019,-2536576.70828 34347.1033151,-2536587.31842 34769.7764673,-2536783.12388 35196.8487476,-2536843.96606 35596.4248958,-2537167.11174 36125.0547643,-2537293.62795 36404.9920078,-2537488.48369 36509.4459311,-2537719.66819 36793.2493013,-2537859.55278 37180.6562498,-2537945.63083 37504.6227329,-2538173.27922 37964.5098648,-2538111.84809 38392.8836059,-2538127.70323 38775.6950406,-2538340.74544 39143.5578523,-2538583.6869 39619.927493,-2538824.8524 39955.4233234,-2539048.07962 40327.3895369,-2539163.05528 40714.5510441,-2539323.63047 41080.4079996,-2539455.06511 41141.2591813,-2539476.97007 41349.4864477,-2539703.84916 41849.6219386,-2539792.68199 42089.5763779,-2540022.77304 42548.9028345,-2540045.8369 42877.2366634,-2540218.52054 43019.529879,-2540398.46254 43254.4618666,-2540557.02376 43259.211457,-2540557.05546 43646.7515586,-2540548.64224 44029.4263253,-2540445.20048 44365.3399764,-2540605.93602 44912.2398903,-2540692.58304 45188.1071,-2541047.9106 45577.1036429,-2541158.5032 46119.0005318,-2541320.61491 46718.3837818,-2541072.62612 47489.0898407,-2540550.79077 47788.3020634,-2540255.29886 48141.2735053,-2539958.16567 48894.6631914,-2539371.71498 49610.4148147,-2538993.50539 50006.6076085,-2538663.1606 50307.1342576,-2538358.17613 50514.8338876,-2538140.06918 50846.5076995,-2537925.28954 51153.4338155,-2537672.84566 51591.2325076,-2537588.77041 51808.0435091,-2537578.71796 52008.9091277,-2537560.55932 52317.3023815,-2537313.12476 52945.8602915,-2537002.3289 53577.4130009,-2536954.54611 54022.5622798,-2536556.02774 54445.4867435,-2536153.86068 54689.3683741,-2535571.50225 54789.3459945,-2535012.68228 54908.0877282,-2534601.48394 55046.7343576,-2534241.91707 55177.2908915,-2533970.79414 55318.1894427,-2533798.23804 55384.4789663,-2533717.1821 55583.4986274,-2533301.51869 55748.707047,-2532895.12919 55838.813647,-2532466.73875 56001.2848681,-2532170.82839 56008.7480802,-2532101.37949 56046.3207252,-2531753.13664 56059.3837955,-2531631.22602 56146.3631419,-2531296.81233 56011.3391125,-2531075.91557 56232.4605708,-2530569.89942 56478.0434579,-2530182.04403 56736.3457377,-2529761.2737 56717.4644125,-2529443.65279 56885.1378574,-2529379.77205 57082.7426622,-2529401.08965 57425.6390197,-2529378.37702 57747.7902053,-2529317.52666 57880.9502283,-2528955.91994 57923.7250786,-2528727.20838 57960.8372037,-2528372.96066 58144.4940027,-2528086.68923 58425.1454288,-2527763.56494 58845.6727163,-2527346.37431 58946.2175343,-2527152.04701 59332.0133348,-2526957.12192 59469.5731367,-2526648.04244 59459.3010877,-2526238.97794 59680.3829493,-2525963.95474 59665.0441861,-2525639.85536 59964.3751873,-2525477.35265 60299.0912502,-2525257.08631 60614.4749485,-2525199.18978 60601.0759896,-2524959.10217 60978.3571434,-2524616.6202 61234.7444674,-2524408.33109 61251.9440098,-2524078.44766 61374.0382413,-2523764.26341 61629.5958266,-2523567.96831 61645.4250617,-2523556.07391 61572.1288416,-2523300.58636 61720.324974,-2523271.07456 62007.7077647,-2523213.49093 62289.9469675,-2523589.87143 62412.9082718,-2524757.68621 62678.0777352,-2524994.45367 63255.4768514,-2524784.30609 63466.4671992,-2524635.71411 63974.341698,-2524879.10122 64151.8848674,-2525209.7845 64537.8628242,-2525812.35754 64895.9972816,-2526054.24646 65317.5255238,-2525787.56046 65888.8501707,-2525551.37399 66307.9301149,-2525614.17084 66758.0597021,-2525557.17536 67355.6330982,-2525845.66384 68357.5340411,-2526197.35239 68674.3178805,-2526678.96718 69122.6451071,-2526891.96087 69514.9785999,-2526505.08118 70174.0518954,-2526568.98289 70802.923054,-2526663.18338 71281.8505234,-2526786.38269 71911.5236558,-2526760.5892 72394.2561141,-2526314.31341 72964.9843294,-2526168.12615 73324.9198209,-2526140.53099 73714.6537391,-2526143.13517 74284.9323198,-2526026.94552 74762.2570703,-2526390.13691 75928.2548883,-2526877.43251 77513.3344545,-2527427.53243 78503.5945072,-2527314.65378 79251.2629418,-2527589.15572 79789.5982664,-2527763.7575 79866.1814167,-2527788.76992 80477.8566699,-2527987.36289 80897.3405355,-2527990.16924 82126.5437976,-2527998.39358 82517.483602,-2527821.00826 84416.9996461,-2526214.70612 85016.6796191,-2526188.71946 85825.5493329,-2526284.13472 86514.8249395,-2526318.74937 87714.637,-2526236.78158 89445.0531708,-2525916.36584 90056.0703652,-2525802.95688 90076.8866754,-2525793.09618 90407.2044946,-2525634.30669 91732.4870124,-2524997.6761 94703.0946456,-2523570.5601 94973.2390449,-2523512.36975 96095.0470511,-2523879.39526 97022.7618273,-2524110.61857 98227.420522,-2524201.69768 98326.3707277,-2524209.36137 99108.2546602,-2524303.10658 99254.8897658,-2524320.59034 100823.767633,-2525050.62576 101984.636165,-2526302.43312 102010.21007,-2526962.11395 102020.583111,-2527651.69275 102030.150927,-2528461.26718 105909.598533,-2541658.8946" style="stroke-linejoin:round;stroke:#000;stroke-width:1px;fill:none" /></g></g></svg>