<svg xmlns="http://www.w3.org/2000/svg" baseProfile="full" height="38817.5641705" version="1.1" viewBox="75602.306017,2735724.418001,23468.656771,38817.564171" width="23468.6567711"><defs><style type="text/css">polyline,line,rect,path,polygon,.polygon{fill:none;stroke:#000;stroke-width:1px;stroke-linejoin:round;}</style></defs><g fill_rule="evenodd" transform="scale(1,-1)"><g class="id" id="38042"><polygon class="_38042" id="None" points="94596.4105142,-2735847.21286 94730.1460493,-2735825.22136 95638.5295591,-2736059.7344 96133.974629,-2735975.76647 96347.950753,-2735939.28044 96352.1941623,-2736074.76444 96772.7527415,-2749719.10453 96800.2392237,-2750612.49335 96865.7147242,-2752732.22875 96689.7350554,-2753083.68398 95827.0916621,-2753121.67561 95308.9049316,-2753126.1729 94933.4493847,-2753390.1395 94931.6995923,-2753391.13937 94735.4730229,-2753449.13171 94575.7420347,-2753496.62548 94535.9967564,-2753508.62392 94371.7662802,-2753542.61933 94316.2711058,-2754373.02013 94391.5119686,-2754530.00147 94407.0100923,-2754561.99766 94667.9787723,-2755105.43259 94579.9902663,-2755808.84831 94134.7957705,-2756587.25676 93774.0908622,-2757112.6962 93889.8323579,-2757953.09626 94081.8113254,-2758182.06774 94301.7934042,-2759119.45442 94228.3039143,-2759295.43423 93788.856209,-2759324.93525 93569.1349841,-2759603.40485 93081.4465511,-2760014.36243 93393.4185094,-2760672.2819 93994.1038988,-2761097.22366 94306.5707915,-2761360.68785 94793.5244767,-2762096.09236 94917.0175399,-2762547.53609 95151.4972099,-2762972.48066 96259.8765588,-2763684.37191 96191.6626763,-2764924.22128 96191.9277445,-2765538.64606 96191.930657,-2765653.13206 96426.1646227,-2766136.56669 96558.1592143,-2766532.51445 96585.906665,-2766563.50987 96909.8770437,-2766927.95574 97525.0764905,-2767792.32989 98287.000866,-2768422.22635 98375.0089095,-2768993.65109 98052.5768318,-2769770.06458 98131.6046883,-2770782.93462 98556.6014667,-2772032.26068 98668.1391077,-2773227.60559 98831.4093139,-2774115.98654 98523.4440834,-2774035.01108 98446.2028816,-2774017.01692 98391.7090672,-2774004.02108 98345.9669001,-2774050.01748 98305.4792937,-2774207.49979 98157.5015707,-2774290.99638 98065.2646761,-2774326.99627 97713.0645775,-2774465.49583 97606.0794363,-2774502.49635 97312.86659,-2774531.50667 96946.6469596,-2774231.06026 96631.6755172,-2774026.09948 96331.2058986,-2773901.62808 96016.2414758,-2773857.64754 95664.7844401,-2773887.15984 95488.0554677,-2773891.66724 95100.6013136,-2773901.68341 94697.6484863,-2773909.20051 94492.6669636,-2773791.72318 94345.9396998,-2773923.71447 94287.4454436,-2773901.71959 94133.7050112,-2773718.74735 94016.4639509,-2773616.2642 93935.7030396,-2773147.32129 93847.9596611,-2773066.8342 93554.7467228,-2773154.33661 93247.0389667,-2773330.32975 93130.0533835,-2773359.8314 92968.8189932,-2773301.34481 92602.3512818,-2773095.88314 92324.1321538,-2773095.89472 92198.1437141,-2773038.90624 92162.896942,-2773022.90947 92126.3997492,-2772993.41423 91928.414936,-2772832.44006 91664.6908473,-2772758.95883 91518.2044717,-2772700.47114 91283.738861,-2772920.45672 91122.7515191,-2772802.97596 90888.2750233,-2772758.99014 90683.0394556,-2772568.51878 90521.8067048,-2772568.52517 90346.0714029,-2772466.04303 90184.8368155,-2772422.05402 89935.8574782,-2772275.57921 89628.1342537,-2772129.10647 89408.4067191,-2772114.61637 89276.4166091,-2772012.13208 89115.4300547,-2771924.14731 89042.1887511,-2771953.14705 88866.2058938,-2771924.15665 88792.9590819,-2771806.67153 88690.4669542,-2771733.68286 88573.2279386,-2771704.19022 88455.9899818,-2771704.19454 88133.7740087,-2771733.70336 87606.3200067,-2771528.74333 87518.3225643,-2771352.76422 87394.0721268,-2770985.30559 87416.817945,-2770930.81028 87643.0265425,-2770387.35746 85774.6465865,-2768246.62884 85320.4165704,-2767353.22861 85144.6719388,-2766898.77738 84924.6823756,-2766459.32549 84338.7269935,-2765961.38735 84170.7400573,-2765830.90369 83943.0077356,-2765653.42574 83708.7747712,-2765419.4531 83495.790025,-2765194.47894 83445.043667,-2765140.98506 83317.807762,-2765241.47832 83122.8293136,-2765394.96813 82770.8619501,-2765389.97619 82769.1121015,-2765389.47628 82140.9168159,-2765243.5031 81930.6891662,-2765393.49387 81584.2264738,-2765668.47642 80939.539644,-2765917.46828 80821.7987569,-2765856.97624 80665.3108519,-2765776.98674 80368.0837321,-2765624.50658 79811.3810472,-2765566.02351 79379.6678029,-2765543.03458 79346.4206138,-2765541.03545 79342.6709354,-2765541.03552 79254.4284019,-2765536.53776 78873.4569398,-2765346.06188 78380.2385171,-2764838.61457 78298.2451238,-2764824.11737 78253.998671,-2764815.61893 77950.2729049,-2764756.12973 77940.02372,-2764754.13009 77889.7777095,-2764744.13188 78509.9361773,-2762402.31821 78497.4369817,-2762384.81988 78481.9379827,-2762363.32193 78258.2024423,-2762049.35168 77979.7220963,-2761771.37888 76514.5786566,-2760570.49579 76055.6103309,-2760039.04352 76048.8607964,-2760031.04423 75940.6182945,-2759905.55537 75681.1363119,-2759604.58186 75847.3731522,-2759620.5791 76007.8599709,-2759588.08028 76171.8458967,-2759491.58662 76252.3384027,-2759377.59515 76396.0759387,-2759282.10168 76605.8090888,-2759309.59768 76823.5419386,-2759388.0894 77144.7649931,-2759330.59138 77312.7513208,-2759358.58762 77536.732029,-2759281.59212 77830.7077239,-2759316.58668 77861.7049872,-2759301.08772 77892.2022911,-2759285.58876 77969.4454624,-2759247.09134 77984.6941141,-2759239.59185 78121.1818229,-2759147.59847 78144.4297285,-2759132.09959 78257.6686833,-2758952.61389 78259.9184766,-2758950.61404 78355.6597016,-2758868.62025 78488.64757,-2758763.62818 78574.889299,-2758642.13791 78594.6375849,-2758638.63806 78691.8791316,-2758621.13885 79503.5618859,-2759002.59958 80872.9489205,-2759914.00636 80843.9508389,-2759845.5128 80616.9661429,-2759310.06294 80558.4692267,-2759061.0857 80646.45945,-2758826.60597 80411.9788152,-2758621.62608 80323.9847479,-2758358.15017 80148.2501426,-2758328.65401 80031.0097258,-2758211.66515 79972.2643381,-2758123.67331 80075.0022857,-2757625.21676 79987.0092102,-2757464.23147 79606.0423494,-2757391.23982 79518.0480482,-2756951.27873 79768.5245645,-2756542.81363 79869.7647568,-2756248.33926 79738.0254809,-2755881.87184 79694.0287979,-2755559.40026 79694.0284139,-2755178.93369 79635.2834708,-2754797.96715 79972.2541559,-2754255.51514 79884.5124406,-2753904.04604 80235.9841879,-2752907.63528 80287.2302011,-2752765.64811 80426.4695471,-2752380.18308 80382.7256294,-2751970.2194 80426.4738428,-2751622.75064 79811.2866581,-2750504.84496 79869.7858973,-2750021.38797 80031.0234111,-2749845.90498 80051.2760769,-2749414.94319 79899.0419773,-2749186.46163 79269.1005848,-2748863.98254 78844.141399,-2748512.50769 78345.9360156,-2748336.51646 77730.7410887,-2748073.03073 77721.4921795,-2748048.53265 77682.4967976,-2747944.54081 77658.7496135,-2747881.54574 77673.7483981,-2747879.04615 78876.6498143,-2747662.5809 78831.1618623,-2747101.62819 79474.3631993,-2746676.17479 80473.2829152,-2746247.72884 81015.9987305,-2745464.80818 81396.987429,-2744322.41814 81250.5111129,-2743834.4587 81221.0159351,-2743735.96685 81878.9599856,-2743592.99454 81894.9586159,-2743589.49522 82129.691379,-2743412.01674 82165.9387172,-2743384.52009 82186.6862337,-2743410.01825 82569.1404137,-2743882.98363 82914.0951041,-2744497.93426 84148.48108,-2744393.97057 85177.1295193,-2744497.98292 85997.5461478,-2744615.48922 86466.2538745,-2744410.02007 87155.4447769,-2743951.08223 87999.8614524,-2743812.6165 88312.8302081,-2743761.12939 88526.308779,-2743726.13823 88546.8217728,-2743121.20199 88693.5602134,-2742974.72112 88488.3464752,-2742417.77383 88697.5852597,-2742034.31961 89052.2972662,-2742062.82661 89279.5248654,-2742007.33888 89367.5256657,-2741655.87859 89015.8161551,-2741538.88065 88829.8513083,-2741013.43012 89045.085154,-2740805.95843 89384.0510412,-2740756.47416 89115.8469196,-2740199.02427 89631.2996188,-2739985.56356 90102.5020757,-2739908.58735 89836.3036657,-2739224.15113 89641.5862458,-2738881.68051 89983.0514962,-2738843.1967 90217.2755406,-2738872.20196 90346.2631205,-2738834.21062 90188.0542488,-2738169.27577 90715.5145347,-2737729.34271 90762.0092358,-2737737.34363 90783.2567993,-2737741.34402 91213.707407,-2737817.35234 91535.9383313,-2737407.40948 91552.4393207,-2737336.91782 91653.1955141,-2736908.96854 92151.4029708,-2736616.02111 92499.863857,-2736631.03395 92836.8325221,-2736484.56436 93059.8008181,-2736645.55572 93305.2728846,-2736653.56511 93328.2702499,-2736654.56597 93496.2510435,-2736660.0724 93938.9366189,-2736997.05255 94126.1786703,-2736675.09726 94489.1378282,-2736653.61513 94682.868897,-2736572.13282 94551.1397794,-2736440.64238 94316.6775795,-2736191.16097 94378.4339812,-2735883.699 94410.6805203,-2735878.20105 94596.4105142,-2735847.21286" style="stroke-linejoin:round;stroke:#000;stroke-width:1px;fill:none" /></g></g></svg>