<svg xmlns="http://www.w3.org/2000/svg" baseProfile="full" height="108798.479725" version="1.1" viewBox="26079.800037,2678699.685016,61874.192799,108798.479725" width="61874.1927985"><defs><style type="text/css">polyline,line,rect,path,polygon,.polygon{fill:none;stroke:#000;stroke-width:1px;stroke-linejoin:round;}</style></defs><g fill_rule="evenodd" transform="scale(1,-1)"><g class="id" id="38070"><polygon class="_38070" id="None" points="58330.6027843,-2691218.2858 58283.6570544,-2690863.72254 58142.8284782,-2690557.79516 58237.8829975,-2690353.69942 58442.9238621,-2690332.78369 58622.4965774,-2690459.49839 58903.3265,-2690699.97468 59342.1881036,-2691024.32744 59705.9226087,-2691074.78776 60066.399339,-2690907.84022 60258.407489,-2690665.58592 60409.3854682,-2690453.10695 60735.3142738,-2689881.03082 61001.4743004,-2689339.36036 61147.0569157,-2688708.55483 61532.7599864,-2688106.07783 61911.9450354,-2687825.54331 62181.3405257,-2687570.26139 62277.9606982,-2687303.1795 62253.1255768,-2686820.00827 62051.039891,-2686617.4719 61997.2330193,-2686281.45266 62174.9401013,-2685560.45659 62369.5296029,-2685003.79129 62497.3753124,-2684698.00664 62731.4672792,-2684288.022 63074.1428798,-2683750.32963 63406.6403274,-2683113.74096 63759.9731402,-2682309.06466 64125.3807636,-2681370.3505 64330.343444,-2680649.17282 64735.0476166,-2680081.07008 65130.3775391,-2679748.45639 65446.7282067,-2679451.37585 65785.0880293,-2679047.67979 65935.431857,-2678814.22222 65958.6765218,-2678814.56216 72036.577686,-2678885.2385 73368.8862501,-2678890.58001 77256.2618057,-2678972.84496 86362.6969521,-2679165.78024 86316.0870718,-2683661.1976 86227.4486698,-2688099.90789 86135.4996637,-2701234.81479 86010.5912496,-2711764.00633 86010.6888855,-2711884.95156 86011.1559738,-2712843.01961 86011.2673379,-2713108.40002 86011.4228666,-2713201.85708 86029.6357248,-2739693.29093 86034.0653442,-2745486.65379 86034.2255342,-2745648.57997 86339.9685122,-2745806.31808 87533.2518057,-2747733.88843 87429.9767598,-2748664.20699 87294.9920321,-2749284.39514 87262.0525157,-2749777.90828 87242.3459637,-2749991.45324 87133.173495,-2751177.70198 87105.1483355,-2751485.26477 86985.4207056,-2752245.28373 87339.9921555,-2754464.23075 87123.5034423,-2756047.08027 86737.7922773,-2757725.614 85232.5558436,-2760471.78228 83231.5985103,-2764121.70003 82956.1681328,-2764253.14095 82622.2472147,-2764589.41984 82176.9259989,-2765001.97564 81643.1023706,-2765409.17727 81469.0619191,-2765669.33158 81283.9542031,-2765919.57073 81064.6448654,-2766140.0708 80809.112889,-2766327.84766 80540.5142007,-2766505.72381 80280.9691086,-2766691.53141 80042.5881803,-2766901.17606 79814.2605434,-2767118.74494 79587.9536449,-2767339.29838 79353.6067708,-2767553.91304 79112.168633,-2767755.58486 78853.5856688,-2767936.38998 78683.7113297,-2768047.5791 78586.9625503,-2768111.25627 78323.3450708,-2768287.10071 78076.8503259,-2768480.81404 77841.4883672,-2768693.4394 77616.1943892,-2768915.98812 77399.9761578,-2769149.46703 77341.4889437,-2769216.86549 77193.7969803,-2769388.87111 77144.0268177,-2769452.20794 76999.6778032,-2769637.1845 76731.2315955,-2769630.13833 76314.8265929,-2769896.06128 76009.1948612,-2770343.10978 75522.2427432,-2771045.87992 75166.0952181,-2771831.66995 75150.4526176,-2772567.00354 75117.4113709,-2773109.03792 75150.6182676,-2773551.12816 75120.9320895,-2773970.18542 74983.0672703,-2774256.08162 74825.0947402,-2774526.13074 74628.9420082,-2774769.46861 74401.6350157,-2774990.04252 74166.2948964,-2775205.67727 74000.7578928,-2775672.21011 73727.1252217,-2776120.03912 73290.1179987,-2776611.04519 72961.6385077,-2776734.39604 72243.4364813,-2777082.00858 71395.9395455,-2777314.60748 70710.1515656,-2777686.97775 70626.4994059,-2777730.5726 69763.5853177,-2778180.21022 69169.100772,-2778564.91402 68490.8828374,-2778639.83764 67918.2860939,-2778976.40069 67262.4533618,-2779037.16634 66419.0569314,-2779080.80627 65734.0703979,-2779188.26856 64969.0379196,-2779251.82943 64467.831616,-2779269.48031 63808.9529336,-2779462.22422 63340.0435828,-2779865.01494 63029.4154404,-2779902.26943 62718.9545795,-2779962.51531 62408.5807903,-2780034.75678 62099.2062082,-2780106.99103 61788.7513756,-2780168.2367 61472.1379342,-2780207.53425 61153.4008607,-2780229.85259 60840.8215568,-2780274.1191 60546.6289548,-2780372.23473 60255.6244376,-2780496.3192 59975.7395234,-2780637.31753 59692.9720156,-2780794.33223 59665.8521239,-2780811.02497 59468.4296363,-2780950.42267 58246.0461515,-2780709.91288 57613.9901131,-2780950.45082 57295.3948265,-2781644.06868 56902.525663,-2782194.27299 56675.1410236,-2782200.93042 55924.2316812,-2782320.37521 55238.8038362,-2782714.26338 54920.2932973,-2783453.8767 54821.4250247,-2783810.49709 54754.5771271,-2783862.97029 54296.5796772,-2784222.21305 54207.1169739,-2784292.34662 52248.0344661,-2784343.63616 51661.5498713,-2785145.7002 51430.4032124,-2785801.7117 51060.3726738,-2786365.7641 50570.6720918,-2786594.28135 50270.7211685,-2787171.82118 50112.7511006,-2787204.46707 49858.6670488,-2787252.31138 49510.5975059,-2787298.84284 49204.8024667,-2787316.0729 48899.7803785,-2787302.30519 48600.4494227,-2787246.50649 48396.1582747,-2787199.51099 48157.5507444,-2786012.55687 48121.8379381,-2785536.9394 48076.4160725,-2784929.42685 48171.4039301,-2783902.99867 48150.5911905,-2783482.25942 48077.4521812,-2783083.39611 47854.0725197,-2782543.16442 47997.1852402,-2782117.73215 48041.4627794,-2781471.07831 48042.3605497,-2781457.07544 48050.259744,-2781340.54838 46071.1330412,-2781150.00923 45702.9692584,-2780874.25936 45814.5354783,-2780097.14505 45824.9111061,-2779496.22302 46009.8135512,-2778733.07406 46119.7906646,-2777736.53178 46278.6122821,-2777442.45382 46768.9364205,-2776369.17192 46981.388202,-2775371.89216 47167.4673806,-2774769.70118 47308.8182962,-2774065.36324 47358.0451309,-2773478.16332 47452.6853033,-2772604.71173 47687.1343685,-2771675.26345 47729.7986407,-2771320.0507 47797.4958379,-2770763.21175 47878.4974682,-2770248.76544 48101.2902408,-2769779.78055 48238.1424017,-2769522.86034 48329.4132543,-2769114.81211 48354.8371888,-2769001.65933 48086.9540357,-2769007.59665 47664.1030057,-2768701.24105 47112.2683948,-2768979.65853 46604.7034573,-2768744.39515 46094.8926638,-2768751.58189 46091.1438654,-2768751.609 45420.2788426,-2768469.03774 44483.104188,-2768272.36805 43848.9250359,-2768362.9306 43557.3876958,-2768243.56983 43176.2515378,-2768522.25383 42736.8597472,-2768452.44914 42397.9804381,-2768353.42478 41822.1778783,-2768602.52478 40881.6483781,-2768600.32553 40332.9018093,-2769135.16028 39767.8736195,-2769423.17529 38845.5999982,-2769596.30251 38328.0161658,-2769394.59358 37900.1619698,-2769435.17724 37292.7871526,-2769640.01986 36736.6235303,-2769703.02598 36100.8290241,-2769780.10445 35408.7575806,-2769748.11476 34857.8618314,-2769745.09745 34351.7907303,-2769511.808 33710.2627372,-2769833.87175 33327.808867,-2769897.62154 32926.4154295,-2769727.0601 32697.1159563,-2769886.1819 32488.4870635,-2769931.17961 32356.9892101,-2769650.69143 31765.8206917,-2769609.47159 31503.0540202,-2769633.86464 31261.6674616,-2769573.12161 31113.975425,-2769715.1579 30769.0978564,-2769514.19245 30542.1825512,-2769415.35264 30367.4879061,-2769210.15821 30122.186559,-2769230.42542 29936.728461,-2769092.29406 29749.7922699,-2769095.64322 29577.6353876,-2769207.36277 29402.1358817,-2768890.69676 29204.0533769,-2768908.12323 29167.0607457,-2768734.9267 29166.2820789,-2768730.93316 29009.7302591,-2768684.57305 29036.3932911,-2768569.40474 28786.4911278,-2768575.70734 28539.6926313,-2768354.03499 28238.3881617,-2768199.24174 28060.5987876,-2768154.03414 27813.1214537,-2767976.85657 27688.6822175,-2767877.77489 27424.6084968,-2767894.67672 27431.070428,-2768236.06005 27165.1956517,-2767934.0403 26953.7111579,-2767791.59515 26832.727806,-2767894.44701 26562.2366492,-2767853.40673 26733.8922949,-2767741.19119 26654.6420052,-2767600.29151 26495.7294302,-2767711.91517 26399.221499,-2767604.13314 26482.1571549,-2767389.5784 26375.5677696,-2767304.86433 26369.0297749,-2767299.41259 26137.7819965,-2767362.56761 26116.6783697,-2767070.2788 26121.3171855,-2766812.29748 26314.5330181,-2766604.94637 26215.9408205,-2766173.24478 26283.4656164,-2765935.80632 26539.0859178,-2765820.9873 26667.2839873,-2766025.52143 27043.6662747,-2765638.38799 27220.2182916,-2765199.70624 27157.0907263,-2764833.23701 27000.1992703,-2764357.96572 27101.771191,-2764266.75298 27295.4894383,-2764337.34289 27363.0189069,-2764586.30462 27637.7003917,-2764515.3405 27810.9079768,-2763959.20927 27679.0326931,-2763729.70725 27726.2923105,-2763489.41734 28187.848319,-2763337.12572 28435.4579447,-2763081.89689 28467.8155891,-2762924.19746 28480.3767628,-2762863.61993 28522.1509116,-2762659.8626 28732.4482434,-2762255.9351 28929.9113487,-2762013.56584 29153.1408999,-2761739.51832 29069.6074158,-2761350.20353 28978.2868581,-2761024.93083 29275.6267764,-2760698.86243 29290.1107548,-2760523.29639 29176.0735528,-2760375.64869 29176.9515968,-2760219.67624 29399.1243634,-2760076.60959 29361.8717266,-2759727.45362 29177.9573384,-2759420.84276 29154.9368174,-2759382.51661 29361.2963536,-2759160.58154 29409.7003479,-2758731.32754 29670.4007845,-2758384.5301 29680.3448942,-2757959.55225 29781.6279436,-2757688.88431 30008.0498554,-2757545.78939 30354.1973316,-2757437.82678 30522.8389578,-2757219.1642 30525.3403151,-2756801.73964 30632.1618475,-2756536.53198 30638.5067982,-2756445.50685 30660.0542391,-2756139.4209 30545.0499943,-2755926.29441 30643.1401619,-2755698.14155 30901.8950967,-2755637.2979 31001.6511683,-2755362.64398 31020.3595871,-2755009.0898 31050.6466112,-2754631.958 31121.0601963,-2754308.5263 31090.6163744,-2754106.29067 31054.9231751,-2753869.10063 31056.3462432,-2753684.13249 31058.0650098,-2753470.66875 31120.9236504,-2753104.30149 31201.9226729,-2752827.78388 31246.3244147,-2752676.00027 31303.2699588,-2752251.68921 31259.0512025,-2751975.56937 31155.7468545,-2751755.36007 31212.7215381,-2751474.51616 31263.1904481,-2751157.72726 31301.0086315,-2750784.54208 31278.9795364,-2750395.78922 31170.1416208,-2750135.62836 30704.9860356,-2749889.5151 30408.6170331,-2749514.2222 30440.3116515,-2749228.06049 30422.2148239,-2749074.22504 30375.1726502,-2748927.09518 30308.8215434,-2748771.10547 30221.7906484,-2748624.26158 30162.3343927,-2748488.71777 30143.3483971,-2748280.40092 30117.8280185,-2747997.14784 29964.0660306,-2747850.78085 29972.1983144,-2747694.75808 29907.7219356,-2747486.26646 29815.681862,-2747267.97408 29758.0466095,-2747037.43839 29512.1562376,-2746730.2657 29413.3862554,-2746479.52829 29345.8580824,-2746333.54386 29262.723609,-2746207.16648 29223.3806084,-2746052.98235 29130.3096962,-2745935.17393 29112.7893855,-2745791.83135 29091.9236324,-2745635.01569 28983.6571182,-2745349.35336 28950.0134461,-2744908.19277 28961.2076455,-2744585.68529 29040.9579313,-2744343.17035 28918.8426209,-2744113.09403 28817.3607585,-2743937.35803 28736.4446829,-2743771.47291 28684.3601831,-2743582.88699 28757.851357,-2743478.88576 28770.1063569,-2743304.83737 28825.6670254,-2743174.97001 28862.1726351,-2743001.74845 28761.3805901,-2742817.5091 28697.2475291,-2742516.5343 28665.3281309,-2742141.34626 28680.5019011,-2741885.79543 28765.0631674,-2741686.73708 28889.908057,-2741353.42184 28996.7465069,-2741088.71978 28969.4496156,-2740905.95568 28932.1816373,-2740656.77764 28991.3806587,-2740160.46782 29439.6530703,-2739932.32488 29556.4147241,-2739481.59557 29163.2121361,-2739019.50193 29210.5930188,-2738477.78744 29220.0908672,-2738302.25968 29226.7169179,-2738179.74034 29300.3804807,-2738099.73401 29478.214205,-2737906.51183 29795.3159416,-2737579.82898 29869.2306503,-2737183.89366 30441.4993967,-2737275.29933 30829.228797,-2736512.21705 31182.6568641,-2735143.02259 31892.3451324,-2734771.06387 32372.6208163,-2734474.21981 32355.2917784,-2734427.35416 32125.4557848,-2733809.63457 31703.4455588,-2733512.70372 30896.6595015,-2733938.33723 30585.3475721,-2733567.63582 31220.8130535,-2733126.22373 31666.8506947,-2732583.18294 31663.8167213,-2732226.28866 31661.4538111,-2731963.86732 31839.5599216,-2731562.19762 32287.5148899,-2731289.08243 32666.7463169,-2731404.8628 32768.4404171,-2731435.63353 33160.2429531,-2731702.78783 33284.5764979,-2731190.52866 33305.9422524,-2731101.89839 33604.1521785,-2730859.84041 33807.9040882,-2731219.30705 33940.2758919,-2731452.31073 33982.0388243,-2731525.99631 33997.110507,-2731501.39531 34265.4480086,-2731065.09703 33568.3231149,-2730495.183 33418.6731059,-2730081.34489 33667.1999073,-2729600.19841 34403.5232529,-2729177.57938 33175.992324,-2728425.9652 32954.346137,-2728045.12783 33253.196416,-2727893.04636 33794.5262861,-2728099.15987 34237.8949483,-2727990.04406 34423.2785341,-2727944.74129 34737.083277,-2727434.14289 34408.6955769,-2726309.24501 34046.1817838,-2725518.00484 34072.5650437,-2725007.94225 34520.0986333,-2724674.85649 34763.4228576,-2725153.0172 35064.8195637,-2725360.83272 35380.1513313,-2724924.20891 35478.9654287,-2724548.10294 35746.9756197,-2724276.2743 35583.8534523,-2723617.09203 35561.7272429,-2723527.77068 35524.4979517,-2723494.04234 35100.3916198,-2723110.63617 34837.2765716,-2722873.05496 34869.0224167,-2722802.84777 35157.2102009,-2722167.46705 35975.1732209,-2720952.48889 36122.1971131,-2720005.18671 36143.8827194,-2719430.17695 37189.5997497,-2718541.52096 37175.1806261,-2717666.34353 37542.9973476,-2717440.807 38359.4163943,-2717742.47343 38758.1901768,-2717476.72996 38321.9752658,-2716827.47172 38001.0223557,-2716432.33457 37489.6979895,-2716225.99015 37577.5581301,-2715925.44708 38026.5767179,-2715802.31489 38567.045746,-2715888.48528 39167.7065108,-2716004.22376 39222.4114078,-2715928.85785 39476.871538,-2715577.65635 39398.9638841,-2714806.90474 39312.4803735,-2713953.73412 39311.1357991,-2713940.24707 39417.1023311,-2713548.60252 39507.9644039,-2713212.55009 39647.895971,-2712568.23246 40131.4432073,-2712308.39938 40691.284652,-2712484.41654 41183.6461804,-2712660.90756 41418.2262006,-2712467.80903 41660.7544927,-2712267.65682 41848.162913,-2711586.02063 41651.4819999,-2710948.07222 41768.4952393,-2710527.3617 42214.5628239,-2709984.37304 42780.5929409,-2709440.5441 43209.6314744,-2708643.24712 43284.4761778,-2708053.88077 43306.4306106,-2708048.22827 44264.4653243,-2707805.07414 44507.4135324,-2707628.91838 44323.8974824,-2707120.34408 43689.6768498,-2706743.39269 43418.3003149,-2706286.91789 43419.9354437,-2706234.92041 43442.8282754,-2705506.95553 43704.9728588,-2704395.41801 44009.612441,-2703427.04594 44394.3033581,-2702611.57426 44798.0458085,-2702018.41106 45175.9407317,-2701910.79802 45336.8244874,-2701864.68575 45916.736303,-2702053.57949 46507.7033751,-2702036.45247 46918.7263735,-2701662.6831 46935.3957533,-2700685.83833 46938.7828291,-2700490.86882 47293.1817357,-2700239.96327 47397.3879045,-2700166.25607 47416.2909436,-2700153.12772 47420.5186121,-2700150.09904 47421.7612229,-2700149.09065 47490.6500176,-2700100.12324 47659.869713,-2700030.96089 48327.0359095,-2699759.37891 48528.4178243,-2699678.99572 48689.424712,-2699614.88991 49267.4051032,-2699384.92101 50378.2294391,-2699154.73528 51645.2086881,-2699061.42282 52238.0747368,-2698063.58236 52503.7383852,-2696771.11292 53094.0149583,-2696082.20568 54104.6630816,-2695823.74603 55073.1144186,-2696038.43875 55638.5304815,-2695404.69696 55784.9310893,-2694893.83495 55266.6070336,-2694069.69171 55355.4888753,-2693517.24156 55413.1753839,-2693186.94089 55861.1415418,-2692913.91074 56218.8975189,-2693182.34243 56494.2516823,-2693389.36507 57094.0372577,-2693385.19785 57750.2586292,-2692870.79839 57855.4012185,-2692752.1051 58179.5135761,-2692386.96833 58308.2391379,-2691921.22064 58378.450942,-2691666.81306 58344.7738937,-2691351.64567 58333.0184198,-2691242.26153 58331.9459596,-2691231.77226 58330.6027843,-2691218.2858" style="stroke-linejoin:round;stroke:#000;stroke-width:1px;fill:none" /></g></g></svg>