<svg xmlns="http://www.w3.org/2000/svg" baseProfile="full" height="50544.5842123" version="1.1" viewBox="-15655.108561,4356651.382001,70347.354228,50544.584212" width="70347.3542285"><defs><style type="text/css">polyline,line,rect,path,polygon,.polygon{fill:none;stroke:#000;stroke-width:1px;stroke-linejoin:round;}</style></defs><g fill_rule="evenodd" transform="scale(1,-1)"><g class="hogares departamen mujeres departam_1 toponimo_i tot_pob varones viv_part viv_part_h" id="42007"><polygon class="_42007" id="None" points="-15375.9269735,-4376785.71027 -15388.3458767,-4373885.80542 -15377.1290261,-4370514.45819 -15347.7669158,-4366730.7767 -15335.7860533,-4363617.88115 -15334.6477696,-4359639.30793 -15331.687164,-4356748.06979 -15331.6744007,-4356665.07876 -10280.8598529,-4356733.34857 -5300.39230106,-4356789.60091 -3412.08587741,-4356782.58298 -263.24883315,-4356776.18781 1253.42563101,-4356797.44579 4658.73609273,-4356819.18474 4714.20088512,-4356818.02439 4711.33136818,-4356860.07614 6184.65566212,-4356877.74409 10560.1788641,-4356899.68896 12100.5619691,-4356886.96381 14688.5681605,-4356868.82401 14927.7084273,-4356878.31874 18198.5562405,-4356946.37534 19700.3591126,-4356943.95945 20726.5615604,-4356942.9929 24546.0789744,-4356935.59954 24995.8870188,-4357207.61101 27014.8836072,-4357224.37318 28876.5813733,-4357237.42795 29661.3144603,-4357236.51433 31525.7671476,-4357263.00871 34023.1087775,-4357307.26094 34447.8824795,-4357303.37813 34659.4019925,-4357259.96916 34693.5494816,-4357219.7688 34720.6197599,-4357187.71368 34803.966588,-4357121.99319 35117.4712576,-4357115.4389 35138.8491019,-4357097.99785 35928.3865575,-4357100.9849 36459.7704177,-4357104.3708 37838.2298074,-4357102.0442 39769.6407119,-4357107.65217 42049.0912619,-4357122.48006 42188.5453811,-4357206.53166 42283.3057451,-4357125.08141 44025.9187924,-4357103.15096 44711.368723,-4357089.82348 46222.6554169,-4357096.72038 46756.2577617,-4357100.06182 48555.1358234,-4357105.94704 54713.6090289,-4357113.68644 54712.8024004,-4357194.66652 54613.9197226,-4366751.88549 54613.7237036,-4366766.38299 54658.188027,-4367147.27715 54614.5292849,-4369666.04342 54577.5323826,-4371595.43954 54561.8453018,-4373360.46387 54534.7211283,-4377137.8119 54518.5207947,-4380955.41467 54492.6297614,-4387132.65584 54425.2576538,-4397973.69734 54425.1239931,-4397979.19771 54413.5634391,-4399808.6255 54420.7918852,-4400765.04655 54422.596699,-4402220.86108 54407.9824804,-4403809.46598 54384.6408151,-4406129.93517 54371.8558682,-4406658.973 54368.1555611,-4407180.32201 44288.0069179,-4407130.92359 43008.2733947,-4407120.53648 42182.5400608,-4407118.52819 41897.5408377,-4407113.56684 41301.4329223,-4407121.69029 40586.6019418,-4407117.33267 39919.8270964,-4407092.96395 39342.9367753,-4407100.17972 34356.5672345,-4407060.79084 29470.9670932,-4407006.25022 29403.1055341,-4406988.19241 27051.3475175,-4406989.97747 24100.8349778,-4406984.9333 17464.4550255,-4406931.89413 14387.8824735,-4406905.49758 13074.2700716,-4406897.79157 9901.56070966,-4406902.41005 8090.68130258,-4406902.21605 4381.26028298,-4406883.67744 4380.03462936,-4406825.71415 3501.28281889,-4406829.79794 2844.80074425,-4406848.67797 -653.993491914,-4406853.66476 -2370.98308609,-4406852.9698 -4114.71255578,-4406841.33945 -5539.62861675,-4406835.46561 -15571.9147231,-4406787.52544 -15535.9799042,-4404607.49058 -15527.8574116,-4403962.38615 -15470.2368065,-4400748.00871 -15476.3213389,-4399772.74151 -15467.1768212,-4398144.72406 -15458.9132812,-4393498.55884 -15449.9721206,-4392546.97596 -15448.2897307,-4389648.76449 -15439.2495483,-4388238.23294 -15464.8818699,-4386676.44924 -15393.2484195,-4379636.74613 -15378.7217891,-4378484.5733 -15375.9269735,-4376785.71027" style="stroke-linejoin:round;stroke:#000;stroke-width:1px;fill:none" /></g></g></svg>