<svg xmlns="http://www.w3.org/2000/svg" baseProfile="full" height="50556.5309937" version="1.1" viewBox="4711.121997,4296831.531391,50361.657675,50556.530994" width="50361.6576747"><defs><style type="text/css">polyline,line,rect,path,polygon,.polygon{fill:none;stroke:#000;stroke-width:1px;stroke-linejoin:round;}</style></defs><g fill_rule="evenodd" transform="scale(1,-1)"><g class="hogares departamen mujeres departam_1 toponimo_i tot_pob varones viv_part viv_part_h" id="42028"><polygon class="_42028" id="None" points="4976.58939395,-4296831.66527 6996.36824335,-4296865.8408 8003.19213937,-4296867.99576 15018.2129785,-4296889.26818 20009.3408291,-4296911.44971 22409.4345271,-4296912.77275 25011.3484768,-4296933.91518 25559.5481206,-4296939.5678 27036.3263546,-4296951.00106 32546.4906443,-4296985.95916 37548.1763816,-4297008.45322 39169.1838909,-4297013.9103 55018.5786456,-4297065.99374 54992.0036986,-4301482.48058 54991.8645094,-4301511.96967 54970.1874134,-4304724.41512 54917.4736805,-4312362.92886 54912.098025,-4314786.90433 54894.6362947,-4315954.72015 54894.0000176,-4315984.21956 54894.312091,-4315987.21167 54809.4243223,-4327106.28427 54809.4972279,-4327109.78112 54788.6242222,-4329918.91075 54789.2805022,-4329938.38801 54848.7988072,-4332095.64439 54709.4796746,-4340398.23114 54727.8012599,-4347083.30248 54713.6163289,-4347086.09872 48555.1425921,-4347078.74925 46756.2641372,-4347072.96915 46222.661586,-4347069.65813 44711.3744618,-4347062.84549 44025.9252279,-4347076.21026 42283.3132176,-4347098.23293 42188.5570588,-4347179.6881 42049.0985791,-4347095.64369 39769.6470897,-4347080.93015 37838.2357533,-4347075.41408 36459.7763418,-4347077.80347 35928.3922797,-4347074.44116 35138.8546177,-4347071.48851 35117.4775224,-4347088.93048 34803.9730951,-4347095.49821 34720.6290544,-4347161.22226 34693.5601342,-4347193.27855 34659.4143452,-4347233.48036 34447.8966027,-4347276.89832 34023.1229127,-4347280.79896 31525.77866,-4347236.64708 29661.3244105,-4347210.22264 28876.5911249,-4347211.16443 27014.892366,-4347198.17345 24995.8946731,-4347181.47566 24546.0783169,-4346909.47782 20726.5612803,-4346916.97721 19700.3588896,-4346917.96918 18198.5561136,-4346920.41997 14927.7071168,-4346852.42981 14688.5667025,-4346842.93942 12100.5610575,-4346861.12173 10560.1782423,-4346873.86828 6184.65514258,-4346851.96833 4711.33087218,-4346834.31023 4714.20014572,-4346792.25846 4747.23643306,-4343699.68102 4774.57475083,-4341313.08811 4758.23983862,-4338222.55515 4770.82525899,-4334312.09192 4805.30663958,-4332490.74757 4794.53635352,-4331866.60127 4798.00489103,-4326817.57797 4821.17772043,-4323994.1856 4779.98682618,-4323864.57064 4770.62034779,-4323642.81215 4785.83167605,-4323449.03595 4816.25167704,-4323289.43591 4823.52236345,-4321777.60179 4871.13962455,-4320354.40989 4870.01956727,-4319147.18738 4885.09537147,-4316855.35686 4859.60392981,-4316795.39959 4862.82384562,-4316481.39883 4909.19536174,-4311976.88538 4927.12132116,-4306795.60547 4935.84873936,-4306517.48293 4933.88040416,-4305952.64261 4953.28496882,-4303392.778 4977.00312995,-4296851.65256 4976.58939395,-4296831.66527" style="stroke-linejoin:round;stroke:#000;stroke-width:1px;fill:none" /></g></g></svg>