<svg xmlns="http://www.w3.org/2000/svg" baseProfile="full" height="60852.9850919" version="1.1" viewBox="44091.610971,4285355.491201,50804.423896,60852.985092" width="50804.4238957"><defs><style type="text/css">polyline,line,rect,path,polygon,.polygon{fill:none;stroke:#000;stroke-width:1px;stroke-linejoin:round;}</style></defs><g fill_rule="evenodd" transform="scale(1,-1)"><g class="id" id="42021"><polygon class="_42021" id="None" points="44815.2554027,-4285330.22337 44884.5066546,-4285331.51021 52813.5009341,-4285474.87439 53846.9292929,-4285488.23796 54869.9342761,-4285509.20781 56968.6557347,-4285549.60719 58444.176588,-4285582.92103 59380.2189122,-4285607.28705 59812.485293,-4285618.33824 59815.1232472,-4285631.80806 60624.0799648,-4285645.48423 61268.839639,-4285660.84914 62090.2330971,-4285693.39359 62225.4884678,-4285697.00168 64746.6985472,-4285727.56657 68120.3731162,-4285899.83412 71211.9236122,-4285984.02859 74695.3161856,-4286091.69314 74728.2930661,-4286090.35459 76103.484687,-4286098.71852 83573.733958,-4286101.4626 84848.5500033,-4286099.36842 86821.6071364,-4286144.08835 87287.5503847,-4286153.79969 88297.200627,-4286177.42263 91722.938389,-4286195.23882 93355.1543153,-4286200.47888 94890.7517347,-4286216.20851 94728.0363443,-4296249.13795 94728.2423959,-4296269.12832 94636.5660808,-4302809.61489 94590.5667154,-4305369.12589 94586.666471,-4305933.95323 94575.0499873,-4306211.96866 94503.2936386,-4311392.7579 94410.1246609,-4315896.52785 94403.6425823,-4316210.47702 94428.5096187,-4316270.69566 94389.6234343,-4318562.23756 94378.2008402,-4319769.40246 94315.7998673,-4321192.01825 94292.8221922,-4322703.69068 94260.7457347,-4322862.96559 94243.5220061,-4323056.57273 94250.583961,-4323278.41594 94290.4258632,-4323408.4515 94237.9203178,-4326231.44331 94181.9944099,-4331280.14749 94186.279435,-4331904.37093 94132.876834,-4333725.25591 94079.6637261,-4337635.37278 94063.8881467,-4340725.90652 94011.7554047,-4343112.08581 93946.5900213,-4346204.15326 93891.1161646,-4346204.7376 90486.2148655,-4346147.63127 88969.8430328,-4346110.61674 85821.1094252,-4346084.28628 83932.8319805,-4346071.67254 78953.2187981,-4345963.6218 73903.3887107,-4345842.78812 73954.3724566,-4342275.23949 74000.9336811,-4335896.54024 71338.7936762,-4335860.44522 70440.8625453,-4335843.85757 69847.184519,-4335835.57962 69051.4338935,-4335815.4215 63936.1931858,-4335812.00232 63933.9701471,-4335814.52498 63955.9731664,-4334072.21966 63937.4654739,-4333879.96037 63952.2200388,-4332566.6276 63491.4168371,-4332120.5566 62915.3622638,-4331528.22461 62147.5616892,-4330764.43558 60013.654809,-4328595.74364 59039.1498892,-4327592.15123 58945.3147748,-4327486.15514 58225.5222539,-4326771.83122 57562.9039738,-4326075.40298 57063.0273808,-4325645.21449 56628.5041791,-4325633.75015 55829.0216609,-4325618.59378 55836.3579144,-4325627.01541 54152.8923666,-4325595.58355 53896.3755264,-4325588.7608 53036.3783869,-4325571.73507 50642.1841129,-4325530.21609 46519.109119,-4325446.7326 44196.2634902,-4325420.95995 44223.3886488,-4324378.36329 44353.006556,-4315385.63187 44402.2523131,-4311896.75137 44462.7276052,-4307654.89151 44478.1736598,-4305358.64642 44541.0774584,-4302260.55373 44577.3726022,-4300936.91634 44592.8066071,-4300350.86204 44593.5478206,-4300325.85886 44599.5593877,-4299867.87896 44606.0286798,-4299357.4037 44628.1074218,-4297575.99466 44635.7323167,-4297176.98722 44662.4271812,-4295623.48874 44692.2328377,-4293910.48575 44713.0565474,-4292924.94564 44727.5636551,-4292029.45444 44735.7543135,-4290521.13604 44769.2391594,-4288483.14853 44815.2554027,-4285330.22337" style="stroke-linejoin:round;stroke:#000;stroke-width:1px;fill:none" /></g></g></svg>