<svg xmlns="http://www.w3.org/2000/svg" baseProfile="full" height="128808.196199" version="1.1" viewBox="-9913.801822,4482027.450468,128269.225934,128808.196199" width="128269.225934"><defs><style type="text/css">polyline,line,rect,path,polygon,.polygon{fill:none;stroke:#000;stroke-width:1px;stroke-linejoin:round;}</style></defs><g fill_rule="evenodd" transform="scale(1,-1)"><g class="id" id="42042"><polygon class="_42042" id="None" points="90019.1542191,-4482921.8089 91422.2069848,-4482900.9761 91680.0167798,-4482896.76338 91716.7428889,-4482899.16061 97506.6669216,-4483097.30128 110250.992918,-4482967.33528 117183.507549,-4482904.52984 118541.251343,-4482887.76558 118518.546667,-4483643.55276 118503.97293,-4484087.91393 117973.708084,-4498237.13127 117889.105941,-4500782.77136 117768.598472,-4504012.02741 117729.461805,-4505431.62715 117626.557177,-4508352.55489 117546.714695,-4510460.71575 117479.819096,-4512251.00999 117317.183466,-4516741.28444 117194.404991,-4520183.97244 117084.576229,-4523308.79266 116894.038116,-4528625.23378 116778.48383,-4531402.98005 116687.329964,-4533681.98898 116563.747061,-4536324.64453 116526.669945,-4537117.74087 116207.849218,-4544639.26306 115921.214513,-4552702.63019 115879.377739,-4553937.17336 115820.133198,-4555603.02729 115771.826972,-4556997.0009 115727.646927,-4558240.52003 115714.735806,-4558556.37973 115669.016837,-4559919.38259 115631.7102,-4560966.47753 115610.795172,-4561583.75058 115527.763705,-4563994.85115 115370.140561,-4568036.15056 115288.811731,-4570058.77644 115220.361484,-4571768.54269 115202.517012,-4572333.35216 115034.873523,-4575312.55761 114808.100541,-4579393.64148 114523.777175,-4585265.64316 114303.045107,-4588997.32366 114224.543976,-4590992.01563 113695.051303,-4602940.13795 113596.684357,-4603925.6139 113294.290832,-4610787.14387 113201.130995,-4610755.13947 113081.33492,-4610596.34235 113046.663948,-4610495.96439 112999.665678,-4610216.94544 112987.957438,-4609980.80851 112977.858799,-4609595.18219 112896.114625,-4609222.78528 112713.532568,-4608927.80622 112428.247486,-4608860.23135 112239.09406,-4608873.69514 112134.035429,-4608971.56823 112089.904771,-4609099.59879 112087.907319,-4609285.08568 112036.290272,-4609435.0367 111992.141126,-4609541.56617 111888.627662,-4609658.4569 111717.580413,-4609824.62271 111596.551882,-4609780.31736 111511.733924,-4609693.39994 111393.8553,-4609356.61494 111274.999147,-4609133.82472 111032.942383,-4609045.21379 110790.190985,-4609021.09822 110611.453508,-4609019.17305 110325.87428,-4609002.09635 109948.22784,-4608898.02379 109841.60469,-4608839.37256 109727.131072,-4608859.64039 109648.480352,-4608873.29379 109611.962651,-4608944.40372 109511.199403,-4609014.82156 109424.071134,-4609142.38895 109338.095458,-4609162.96376 109223.834968,-4609140.23182 109110.594701,-4609046.00748 108961.913966,-4608922.89997 108814.216835,-4608685.29769 108737.796175,-4608491.96538 108583.406806,-4608225.78972 108476.953003,-4608174.64041 108384.266584,-4608145.14041 108290.658963,-4608201.13441 108268.489245,-4608286.39948 108231.201011,-4608429.00433 108227.786511,-4608583.47475 108156.699947,-4608707.21462 108016.726904,-4608773.7096 107620.510643,-4608722.43796 107410.794503,-4608579.17139 107109.047076,-4608438.41313 106695.497032,-4608348.45224 106438.038427,-4608366.67845 106036.388463,-4608262.8447 105875.501034,-4608182.10681 105599.100414,-4607986.11836 105405.693387,-4607721.52117 105241.09303,-4607382.23103 105208.579354,-4607081.86664 105224.833348,-4606896.03332 105320.597127,-4606640.05397 105329.601632,-4606454.14263 105187.476229,-4606395.60788 105008.431703,-4606422.17893 104885.786839,-4606527.86155 104762.214825,-4606719.53811 104611.017344,-4606945.91851 104380.472877,-4607180.94395 104234.821961,-4607263.87756 104111.788704,-4607405.55776 104066.786405,-4607591.08134 103994.770462,-4607661.80827 103852.451386,-4607690.77525 103615.739182,-4607686.22288 103511.089391,-4607630.09187 103364.593444,-4607559.50897 103183.235547,-4607360.044 103171.763019,-4607102.40812 103323.369985,-4606954.0359 103481.148159,-4606905.73489 103654.253501,-4606757.59448 103727.597595,-4606586.87741 103735.982583,-4606458.46192 103677.553607,-4606289.32418 103479.296887,-4606173.18117 102791.654733,-4605905.25393 102635.957956,-4605760.56833 102458.530912,-4605637.14932 102297.367861,-4605628.41085 102244.301953,-4605703.84197 102320.40183,-4605857.16965 102440.50748,-4605986.97085 102588.972935,-4606153.07954 102626.958962,-4606339.99778 102554.150316,-4606484.21929 102439.895492,-4606715.99797 102267.02166,-4606842.63962 101919.910013,-4606712.39006 101745.347736,-4606601.50221 101577.487295,-4606309.67816 101548.69935,-4605895.84853 101540.736944,-4605753.25611 101456.332323,-4605651.34108 101310.47332,-4605521.76194 101073.662375,-4605433.70361 100869.685722,-4605407.50218 100581.727686,-4605402.39573 100395.45146,-4605450.38849 100186.905405,-4605569.64424 99833.6936273,-4605865.84751 99695.4809531,-4606139.86925 99527.9140068,-4606377.07268 99383.6885958,-4606490.02206 99239.713117,-4606602.97415 99131.3915971,-4606701.81022 99021.1600467,-4606769.12417 98728.1549824,-4606860.96729 98562.0187873,-4606849.67421 98491.8256185,-4606751.41209 98560.5276262,-4606617.1469 98690.5042113,-4606504.04388 98798.8257852,-4606405.2079 98822.1566545,-4606212.45047 98761.1821921,-4606001.2826 98646.3572638,-4605845.53634 98420.1642452,-4605677.0878 98309.157572,-4605630.88784 98138.0220157,-4605619.54066 98005.9394879,-4605696.11896 97897.0963079,-4605866.45246 97771.133779,-4605955.09738 97570.5468552,-4606054.93752 97335.5666554,-4606028.90048 97070.4860917,-4605942.53563 96932.9526123,-4605806.04485 96898.8239198,-4605655.66941 96929.6368829,-4605441.49189 97017.5393475,-4605242.43128 97181.490294,-4605108.69449 97441.5998388,-4605006.99691 97602.4519474,-4604859.22601 97682.5687211,-4604686.58272 97632.6264081,-4604472.53404 97486.4876465,-4604368.95224 96999.9324571,-4604325.69919 96591.9526242,-4604275.79359 96356.1887611,-4604299.24994 96119.5093463,-4604361.19808 95982.997217,-4604431.22775 95817.9870727,-4604500.94978 95659.625581,-4604603.24504 95444.0467603,-4604725.42357 95263.5335758,-4604887.98247 94942.4096665,-4605037.02279 94579.8040724,-4604952.60424 94349.5439185,-4604813.61182 94345.5511439,-4604535.05579 94485.3077167,-4604164.54765 94555.0754858,-4603954.79134 94535.4501332,-4603781.07161 94530.0916401,-4603629.00692 94500.3466057,-4603443.17747 94466.9149742,-4603228.30697 94369.679023,-4602948.7448 94234.0954298,-4602932.78022 94139.732648,-4603081.76795 93975.7793236,-4603262.00571 93806.8387213,-4603464.19062 93684.2677106,-4603562.87159 93547.0589738,-4603697.39611 93265.9371495,-4603915.87048 93193.3624362,-4604015.09133 93035.8336599,-4604063.3925 92907.8648577,-4603990.50729 92909.5601989,-4603833.51844 93089.6094544,-4603713.95728 93312.0978506,-4603623.35568 93428.1159005,-4603460.1011 93507.8400443,-4603254.45276 93443.0114471,-4603076.24483 93348.0031285,-4602937.71279 93077.5270325,-4602841.78785 92796.5738465,-4602905.75673 92541.5591788,-4603207.01618 92271.3899951,-4603383.60642 92013.1594576,-4603473.32162 91656.3940051,-4603426.96639 91457.7174243,-4603257.31292 91284.5452076,-4603017.93179 91113.8459264,-4602781.07751 91036.7009261,-4602562.7346 91044.9509732,-4602331.31357 91263.5906579,-4602064.66358 91452.1205583,-4601831.18985 91574.9870933,-4601682.01053 91589.1633852,-4601573.159 91590.7982803,-4601560.67613 91577.7628249,-4601425.02958 91507.9059982,-4601295.76959 91387.8083471,-4601165.46692 91139.5050228,-4600984.27731 90825.4521265,-4600895.38128 90699.4777683,-4600892.52038 90326.6083263,-4600878.99194 89997.0435414,-4600837.42997 89640.1813337,-4600869.57602 89204.6947346,-4600820.36903 88784.306734,-4600715.82262 88485.5609782,-4600598.58981 88277.942976,-4600631.84783 88076.238496,-4600765.6739 87903.7316775,-4600881.31468 87641.8474536,-4600938.98717 87369.050109,-4600896.0374 87046.3159702,-4600847.04762 86732.548777,-4600801.15474 86540.1846476,-4600741.57325 86309.7031102,-4600669.57923 86034.2021684,-4600668.60152 85684.6025761,-4600560.81833 85414.8199834,-4600400.89561 85237.7804908,-4600241.97537 85123.539133,-4600240.74042 85064.1316025,-4600440.10648 85047.5694783,-4600653.93635 85073.8419865,-4600883.22995 84870.8288979,-4601138.04618 84757.2779181,-4601234.82279 84497.3458821,-4601320.01648 84232.9776449,-4601376.16089 83968.1702769,-4601357.29725 83845.9037435,-4601288.97248 83806.1582178,-4601126.53588 83923.9686219,-4600820.79669 84122.0337949,-4600329.91756 84132.5318137,-4600029.51871 84040.2740043,-4599960.5185 83997.1002341,-4599999.55334 83952.7143202,-4600127.57872 83857.187549,-4600384.05652 83732.9182766,-4600639.72361 83583.4833341,-4600818.11544 83400.1711032,-4601008.14149 82864.6004185,-4600966.34898 82633.2036759,-4600655.33392 82618.1710759,-4600635.17053 82334.8376718,-4600410.5975 81992.0961128,-4600385.39021 81833.5454337,-4600528.18156 81792.9306999,-4600954.76013 81750.4086747,-4601187.8101 81653.7898941,-4601267.76863 81487.0535861,-4601288.96637 81446.2471465,-4601294.02528 81296.1015234,-4601306.90204 81196.4171969,-4601277.32272 81082.3150729,-4601240.08713 80997.8097777,-4601124.66832 80849.2864441,-4600987.55624 80680.0434799,-4600778.21706 80303.7177166,-4600552.63745 80150.9544164,-4600183.47001 80155.1671644,-4599793.99981 80201.0654284,-4599479.98369 80153.6217876,-4599243.46116 80063.3906683,-4599056.47785 79979.1303225,-4598941.56197 79893.3929641,-4598847.63095 79815.9049814,-4598753.78916 79724.4589581,-4598609.79446 79654.1218949,-4598502.02951 79505.0584762,-4598414.91379 79312.0964959,-4598433.82726 79181.7287027,-4598582.92278 79094.1303335,-4598753.48178 78882.4797472,-4598882.19723 78698.7650575,-4598970.71329 78384.446495,-4598952.81225 78227.9996807,-4598901.11774 78117.7938568,-4598850.42351 77938.9253679,-4598698.98254 77794.6627706,-4598653.42002 77658.923459,-4598651.95138 77565.7739101,-4598665.44409 77421.7206347,-4598785.39011 77255.8432882,-4598912.10025 77224.5649327,-4599168.77176 77290.8663818,-4599325.99526 77298.6669922,-4599483.08582 77178.952463,-4599571.79401 77020.0957781,-4599581.07552 76927.1787445,-4599573.06981 76788.8659869,-4599624.57523 76726.2984473,-4599699.90118 76701.05709,-4599837.6335 76728.0670927,-4599975.43125 76692.8037357,-4600092.05432 76655.8932939,-4600199.15921 76526.5537661,-4600276.26273 76426.4099664,-4600289.17958 76333.6497699,-4600266.67489 76263.0804684,-4600180.40778 76221.5727717,-4600065.45402 76209.0227702,-4599908.31197 76282.5299119,-4599723.1001 76357.9415641,-4599477.4065 76340.1766037,-4599363.20981 76255.8140565,-4599257.79282 76032.7871468,-4599236.37854 75872.6990762,-4599290.14822 75706.6644995,-4599431.3569 75647.7373015,-4599609.22612 75562.2320602,-4599701.8044 75444.4890195,-4599885.53737 75293.8784037,-4599941.40959 75108.912296,-4599891.40578 74902.3050845,-4599808.16641 74732.2849621,-4599670.82089 74548.1729563,-4599518.82227 74339.0996432,-4599455.5569 74206.9813906,-4599373.62372 74050.7493418,-4599255.92817 73881.5791845,-4599040.08884 73683.5325476,-4598858.93828 73327.0849518,-4598783.57704 73141.1928257,-4598796.06523 72930.9081344,-4598983.29584 72869.7079234,-4599140.13921 72796.0441433,-4599362.85017 72730.3658636,-4599517.64504 72619.6197434,-4599655.45136 72485.4610532,-4599762.00302 72379.0717947,-4599866.85524 72177.8479346,-4599979.18099 71991.1868766,-4600062.66325 71913.70128,-4600130.32692 71805.4537657,-4600245.15934 71632.9243103,-4600385.79674 71436.8740287,-4600505.1786 71280.4448862,-4600474.9836 71284.3089791,-4600349.02055 71392.8750336,-4600181.68964 71537.1286651,-4600020.24537 71643.9797594,-4599780.39313 71610.3221945,-4599587.02136 71491.2472341,-4599385.7245 71385.0127072,-4599291.57072 71293.259852,-4599176.07295 71186.9441744,-4599089.41858 71073.7102904,-4598995.18902 70902.3810792,-4598978.83326 70778.4903896,-4599014.49306 70563.4744656,-4599130.66905 70390.7881618,-4599285.80481 70256.4127765,-4599412.35435 70102.6165405,-4599577.695 69830.2881756,-4599653.24861 69580.5410287,-4599629.04297 69374.0765705,-4599555.8042 69290.7377049,-4599332.89341 69199.9870086,-4599124.90296 69036.8333243,-4599023.13225 68879.7531342,-4599006.93038 68736.5490301,-4599048.38085 68570.82229,-4599161.08991 68440.5564537,-4599323.68484 68353.9577476,-4599401.74967 68244.4743524,-4599607.57127 68164.2322586,-4599791.20883 67945.7358253,-4599997.84963 67675.6058979,-4600008.92383 67434.4832663,-4599834.80539 67215.1677468,-4599632.42217 67005.8864972,-4599496.15005 66790.1416311,-4599448.81107 66559.5033865,-4599460.8128 66359.5955897,-4599451.64664 66066.5437685,-4599455.47171 65895.214945,-4599439.11482 65659.6360127,-4599422.56174 65474.058415,-4599406.05037 65316.5125806,-4599432.84421 65208.8055109,-4599474.67859 65043.1766957,-4599601.38827 64904.7235092,-4599850.39671 64745.4004706,-4600041.17694 64513.8788135,-4600296.17702 64276.9072665,-4600408.11287 64040.7918272,-4600441.05509 63869.4630155,-4600424.69765 63676.3216945,-4600437.10478 63433.4988032,-4600419.97233 63255.7884328,-4600346.54358 63112.4100353,-4600380.99071 62989.6790168,-4600494.16437 62831.0491573,-4600620.94936 62668.1289307,-4600843.6912 62511.7900224,-4601082.00493 62172.0234331,-4601428.33403 61877.0309549,-4601611.14252 61647.4654682,-4601708.65715 61421.0217209,-4601495.19442 61468.9560529,-4601224.70455 61624.0230353,-4600965.37663 61676.7067822,-4600694.93839 61624.03925,-4600571.86316 61510.8828303,-4600470.63293 61431.0731531,-4600429.76628 61397.0103058,-4600412.3964 61268.8300059,-4600382.50572 61155.1906126,-4600302.77098 60934.099473,-4600264.37265 60741.598763,-4600240.78475 60548.766795,-4600224.69347 60355.864385,-4600215.10159 60191.7041526,-4600206.32134 59898.4199255,-4600231.64205 59740.7929012,-4600265.93395 59588.9459979,-4600435.79295 59492.4744773,-4600594.25205 59477.058583,-4600863.09383 59680.6477114,-4601201.31303 59870.2213006,-4601517.87968 59829.5945181,-4601967.45481 59626.2595244,-4602251.25972 59393.8545492,-4602241.73891 59106.6623896,-4602074.11829 59060.6195467,-4601709.10629 59179.5882907,-4601274.38171 59167.4324555,-4601081.24337 59004.7470325,-4600936.47421 58841.1122213,-4600856.19692 58684.3418548,-4600811.49522 58512.6232282,-4600831.1335 58369.0285678,-4600908.57864 58238.5867463,-4601064.16898 58146.2441608,-4601187.67149 58035.1926434,-4601376.47322 57934.2737349,-4601460.88138 57782.9685468,-4601580.74417 57466.4016186,-4601770.31655 57056.1714363,-4601836.36857 56851.7962657,-4601778.14949 56632.1755268,-4601604.26121 56512.0039443,-4601481.45352 56428.0458146,-4601316.03736 56344.3209443,-4601129.12309 56274.3729706,-4600985.85972 56190.957313,-4600770.44803 56092.3599742,-4600640.87436 55958.0971411,-4600503.41355 55801.7124558,-4600423.21451 55551.9675713,-4600399.00425 55259.0692157,-4600388.82614 55005.2163219,-4600374.57144 54795.9255276,-4600400.80136 54615.0291604,-4600436.83961 54351.0307964,-4600435.97499 54024.0134987,-4600275.42182 53697.0777893,-4600107.3693 53540.9269811,-4600005.67194 53377.7768569,-4599903.89863 53214.3768129,-4599802.12261 53086.4309952,-4599750.73272 52857.468396,-4599769.74847 52664.5839509,-4599781.65549 52484.9168903,-4599865.70785 52305.3312056,-4599942.26083 52053.4166761,-4600118.03139 51981.1363116,-4600189.7488 51823.7819059,-4600245.04234 51591.9322424,-4600161.52352 51440.6767296,-4599954.37624 51457.7962235,-4599690.05519 51528.6281274,-4599429.3173 51654.2819175,-4599231.17607 51615.8462501,-4598948.75178 51338.9241001,-4598802.74257 51173.8967853,-4598850.95258 51065.1047593,-4598992.77522 50998.2233105,-4599235.05526 51006.0295679,-4599414.14447 51004.4340325,-4599561.13085 50906.9680496,-4599788.07863 50733.0910605,-4600052.69792 50666.7507189,-4600152.98034 50464.9834342,-4600315.29415 50178.6243985,-4600347.68617 49749.6806036,-4600364.52961 49499.3943585,-4600390.31281 49198.7053956,-4600430.049 48941.4793513,-4600427.25593 48548.2066142,-4600451.48613 48333.7432307,-4600470.65772 48063.4306095,-4600360.71968 47986.7837586,-4600166.88277 48031.1197864,-4599951.85922 48048.5291289,-4599753.04369 48064.7973672,-4599567.21611 48023.0557983,-4599474.26075 47909.1910623,-4599415.523 47816.6833801,-4599393.01798 47702.520327,-4599384.7781 47487.8074436,-4599403.94692 47230.2726939,-4599429.65078 47008.946059,-4599413.24685 46880.0564553,-4599425.84737 46773.2188267,-4599410.68676 46702.969157,-4599295.4214 46690.2734325,-4599152.28052 46641.2882087,-4599058.7466 46556.2415549,-4598993.82165 46449.5449859,-4598942.66185 46327.8233741,-4598962.84032 46219.9648538,-4599018.67005 46183.3658477,-4599096.77413 46117.802627,-4599217.56451 46008.6245243,-4599394.88233 45878.8935101,-4599507.97558 45692.5425539,-4599562.95261 45556.8058105,-4599561.47821 45478.7586329,-4599496.62914 45394.1031635,-4599395.70759 45359.089306,-4599258.82456 45383.5049298,-4599197.58856 45407.8879634,-4599139.35227 45480.8306709,-4598983.64152 45520.951085,-4598903.57574 45551.403346,-4598746.90348 45559.4126666,-4598653.9887 45517.3619563,-4598589.53076 45453.6448599,-4598517.33735 45340.1827184,-4598444.60366 45219.1618053,-4598400.2884 45061.6939736,-4598420.07843 44910.4653652,-4598532.93788 44694.841074,-4598659.09804 44473.8302578,-4598613.69651 44253.8077912,-4598454.30367 44170.2387715,-4598253.39242 43946.264041,-4597836.45253 43769.7045546,-4597634.53141 43628.4463214,-4597496.99483 43493.6443394,-4597409.52919 43356.3643795,-4597320.03661 43173.6820881,-4597313.55207 43021.2578614,-4597352.39686 42780.7775692,-4597396.28509 42460.96812,-4597355.3102 42150.8045964,-4597323.94013 41869.360697,-4597226.38111 41606.0457402,-4597186.01976 41371.9449059,-4597079.97493 41192.9637965,-4597078.03026 41022.867879,-4597132.68279 40871.0528827,-4597253.5347 40709.7442869,-4597373.7834 40576.1175935,-4597523.33321 40396.4683656,-4597605.88204 40010.0964037,-4597639.68371 39850.8903313,-4597543.45244 39740.0974497,-4597363.24637 39694.8628175,-4597200.753 39619.8536506,-4596810.43374 39532.4710227,-4596523.48129 39474.1400866,-4596415.84638 39375.9383253,-4596250.2777 39264.3630091,-4596073.06365 39153.62449,-4595864.85849 39014.7423164,-4595646.84754 38894.0432019,-4595504.03485 38819.7792987,-4595390.227 38721.8223629,-4595271.16169 38622.9199616,-4595170.08626 38522.1427556,-4595057.49041 38410.3996177,-4595010.77587 38259.2860053,-4594998.13372 38174.3390268,-4595016.21076 38060.7377494,-4595071.47663 37899.3213451,-4595201.72334 37803.9572372,-4595304.18763 37576.8361498,-4595430.22014 37246.270058,-4595505.12796 36991.8421561,-4595521.3628 36747.6359601,-4595471.2083 36570.1288031,-4595356.7784 36373.6293121,-4595241.6421 36242.8724122,-4595127.22039 36197.2090907,-4595004.22358 36224.9993416,-4594908.52526 36412.1300352,-4594781.55863 36577.6001432,-4594669.35657 36608.0963494,-4594462.6872 36524.486179,-4594357.77815 36421.0523375,-4594328.65394 36157.6858409,-4594316.29161 35819.029201,-4594284.61085 35632.132241,-4594160.07923 35501.5223118,-4594055.15945 35452.3703722,-4594000.12513 35408.4080561,-4593950.64723 35315.6035421,-4593817.63837 35175.5980648,-4593703.11655 34989.2447827,-4593551.591 34745.0017271,-4593481.93634 34548.6063564,-4593357.30172 34299.8042348,-4593201.09754 34072.2007935,-4593003.62387 34024.4292632,-4592890.60478 34037.7753767,-4592720.75008 34152.190909,-4592590.49382 34387.7225073,-4592564.55369 34660.6899719,-4592567.5203 34952.2423631,-4592608.68878 35132.5087231,-4592469.14786 35226.4914815,-4592217.6693 35241.5815105,-4592025.33341 35234.1142541,-4591792.25249 35235.9504024,-4591623.27264 35181.8147636,-4591405.68473 35108.5130696,-4591226.38857 34902.7867902,-4590971.15378 34870.381792,-4590663.30251 34851.9263315,-4590406.10276 34884.692134,-4590013.46006 34908.5082181,-4589708.21993 35043.1043799,-4589446.18317 35223.2663591,-4589316.14083 35366.1338108,-4589167.19337 35499.6545918,-4589027.14429 35689.4130507,-4588888.20602 35936.554201,-4588552.89167 36096.5054184,-4588304.12988 36164.484223,-4588075.86908 36252.2433174,-4587867.82303 36339.5184529,-4587635.27182 36450.2516663,-4587314.47575 36585.6662661,-4586976.94777 36560.6877438,-4586675.678 36480.2015202,-4586536.30477 36337.1692533,-4586447.25216 36150.1693552,-4586332.22231 35748.0264293,-4586092.35716 35628.3122994,-4586020.05773 35524.0957498,-4585901.92692 35483.2220823,-4585567.98554 35457.4232317,-4585296.20749 35364.1273788,-4585024.19669 35290.9278016,-4584835.4035 35171.3812233,-4584678.60689 35058.4481147,-4584534.38203 34945.7649953,-4584390.15993 34819.045107,-4584203.2859 34763.8381063,-4584038.18813 34801.0544285,-4583903.09353 34846.748226,-4583793.09071 34869.5924027,-4583738.33926 34993.5041394,-4583608.18579 35089.9889553,-4583402.23529 35157.5208195,-4583191.97052 35127.39011,-4582904.64643 35049.8000247,-4582751.80581 34937.6285737,-4582675.58902 34779.34912,-4582609.37163 34487.7816843,-4582477.70815 34364.897719,-4582259.87683 34351.7599822,-4582019.23716 34391.6047697,-4581803.17233 34440.5456217,-4581555.20666 34471.6909624,-4581380.54692 34451.2077058,-4581240.8264 34395.5170234,-4581097.22382 34353.3997692,-4580900.76931 34196.3793598,-4580718.56759 34057.0903723,-4580538.05838 33996.485977,-4580317.40377 33974.5675279,-4580148.66833 33986.0903601,-4579985.29575 34026.7023509,-4579859.73832 34022.2109572,-4579697.69197 33940.5945336,-4579570.30817 33805.4810373,-4579511.84282 33690.4537504,-4579560.5938 33611.4216738,-4579609.73537 33325.5524406,-4579621.13285 33033.4488537,-4579538.96409 32783.384342,-4579522.25049 32547.975312,-4579491.19614 32334.0688904,-4579459.87514 31969.6181856,-4579455.91973 31848.6772485,-4579404.60802 31749.6946162,-4579311.03541 31718.4679204,-4579147.69948 31729.1490511,-4579015.81782 31758.9252273,-4578875.14358 31810.1864001,-4578666.70377 31851.9771338,-4578524.65994 31874.0910556,-4578375.90271 31850.7165836,-4578226.15187 31814.8546475,-4578075.26557 31750.0246266,-4577967.56413 31644.2649102,-4577830.41913 31495.6797127,-4577700.30932 31353.8603201,-4577591.77255 31254.5739163,-4577526.19648 31130.2909859,-4577460.34918 30988.124498,-4577383.80805 30696.8305799,-4577227.15039 30441.2058813,-4577077.87972 30235.114039,-4577017.64464 30075.3371517,-4576997.41126 29942.7480542,-4577051.97122 29864.7714922,-4577142.123 29728.0806918,-4577252.13714 29544.7971596,-4577278.64748 29362.3061705,-4577255.16754 29230.7049544,-4577241.73964 29041.5196583,-4577236.1866 28889.8934296,-4577179.0424 28682.3732397,-4577135.29126 28434.5096404,-4577008.10433 28185.9512945,-4576921.90888 27951.3856295,-4576836.36529 27633.8858661,-4576721.92239 27454.9643548,-4576622.98312 27289.2371173,-4576552.18634 27178.9534535,-4576509.49055 26985.7357127,-4576437.89546 26833.8600923,-4576380.74868 26682.2344782,-4576323.60462 26516.0086895,-4576321.80056 26344.3116237,-4576363.43587 26184.0257223,-4576390.19542 25995.6025095,-4576406.64983 25807.2770149,-4576414.10552 25637.2918509,-4576459.25915 25467.1005161,-4576523.40994 25238.2875931,-4576598.92402 25030.1663603,-4576610.66452 24975.2229889,-4576582.56896 24878.9916335,-4576512.0265 24894.6931199,-4576332.20239 24924.9632994,-4576169.03593 24964.910357,-4575943.47642 24976.2429314,-4575774.60461 24952.4124617,-4575620.85069 24856.6259908,-4575509.31453 24735.3111583,-4575423.50053 24585.4029472,-4575346.37594 24323.7568443,-4575314.53717 24032.8005147,-4575311.37932 23741.8443179,-4575308.22142 23474.7706775,-4575315.82231 23243.6200755,-4575261.31517 22676.1568119,-4575213.65728 22328.0841348,-4575152.38119 22082.3534544,-4575013.21877 21973.2755118,-4574859.54029 21890.8613438,-4574667.65268 21808.1700589,-4574478.26204 21724.4532452,-4574383.35686 21594.3130718,-4574212.45065 21463.8097534,-4574098.03846 21333.3064624,-4573983.62631 21183.399227,-4573906.50219 21028.6009549,-4573796.32628 20821.4856967,-4573738.58055 20642.116166,-4573681.13597 20408.4599467,-4573512.1066 20238.2131779,-4573397.26338 20024.0474682,-4573159.9485 19801.9086414,-4572828.05115 19709.6158839,-4572648.05694 19579.7260094,-4572477.1544 19424.6974516,-4572226.98247 19316.2219385,-4572017.81413 19191.9492595,-4571766.97626 19118.9625584,-4571558.6932 19018.6375495,-4571335.61421 18909.5598247,-4571181.93731 18772.2809555,-4571069.95265 18569.8824689,-4570969.26094 18372.0004948,-4570913.1163 18067.7503002,-4570868.31698 17721.2585043,-4570892.05614 17428.9500491,-4571013.87862 17150.5467274,-4571121.35249 16747.0564178,-4571283.46615 16482.6455382,-4571391.59149 16247.336452,-4571375.03852 16067.2682833,-4571359.08503 15874.2011586,-4571273.99383 15649.3669166,-4571144.56008 15378.0455894,-4570991.12309 15087.1145551,-4570893.97056 14769.1106953,-4570711.52862 14572.9294361,-4570567.90693 14404.1742715,-4570500.07902 14165.262487,-4570423.99019 13846.6648623,-4570434.53201 13434.0742408,-4570537.04871 13114.2915576,-4570495.58027 12889.394254,-4570418.1436 12644.1327332,-4570443.48028 12457.2445682,-4570318.95878 11834.1617399,-4569615.73611 11509.3652649,-4569299.22953 11171.1931758,-4569109.57073 11077.3666661,-4569071.05479 10927.6093313,-4569003.43362 10891.7892924,-4568987.04588 10843.2866102,-4568964.52087 10768.5598631,-4568916.71278 10618.243461,-4568877.5839 10458.6787512,-4568838.35468 10270.7714856,-4568807.81736 10044.5026162,-4568833.86029 9888.46204842,-4568953.65957 9712.8156675,-4569037.24822 9506.31896505,-4568969.01138 9329.25574529,-4568814.59937 9269.01414459,-4568675.95426 9214.395041,-4568456.87526 9128.35750107,-4568230.45585 9093.0661355,-4568004.0872 9076.77124065,-4567777.92472 9081.14204934,-4567605.48309 9062.81804886,-4567543.28823 9044.64590772,-4567467.0959 9017.43649179,-4567348.30825 8950.96791229,-4567230.5946 8867.4590275,-4567116.69587 8783.84709752,-4567012.29544 8652.83699211,-4566944.87841 8502.31517552,-4566924.74665 8360.47815563,-4566979.70421 8153.61911466,-4566967.96064 7983.84650402,-4566994.11692 7756.6623167,-4567104.64466 7633.06215207,-4567206.79677 7301.5781119,-4567391.68757 6999.87399966,-4567435.4108 6717.42645078,-4567432.34608 6444.16809834,-4567457.87907 6208.60900477,-4567464.82238 6010.53299024,-4567519.16911 5782.83946114,-4567676.68715 5509.2777607,-4567730.21454 5057.67226677,-4567696.81574 4784.31709537,-4567731.34654 4577.00337202,-4567738.59601 4277.07173402,-4567757.33938 4120.97013693,-4567698.64944 3993.30888608,-4567645.2678 3732.56813651,-4567484.94975 3322.58598661,-4567094.52944 3079.06550087,-4566959.89679 2826.03153342,-4566872.65739 2572.95931992,-4566765.91913 2308.95154484,-4566791.55201 2157.76487546,-4566855.90623 1995.49517811,-4567020.13231 1767.96150665,-4567209.14798 1512.94221275,-4567281.8743 1268.13733557,-4567288.71661 1032.89001678,-4567267.16489 862.271474287,-4567256.31381 854.028534439,-4567255.72439 741.604725524,-4567226.50645 600.692033045,-4567196.47936 393.993275982,-4567147.23976 225.547092215,-4567051.41921 152.15137766,-4566881.13652 88.1068557476,-4566701.45616 68.0034578021,-4566457.75805 2.49870053574,-4566366.55466 -109.883521468,-4566218.34727 -184.989445166,-4566136.53897 -373.150231193,-4565968.51099 -437.678579565,-4565787.32591 -502.413099589,-4565625.13706 -519.277568038,-4565428.47062 -545.889242788,-4565277.69458 -591.090338599,-4565089.22005 -626.744142907,-4564919.34758 -672.60158905,-4564791.36089 -746.664889828,-4564682.56657 -868.071160566,-4564605.75591 -980.641448531,-4564567.03788 -1205.67347523,-4564479.60391 -1365.02799814,-4564421.38003 -1618.41250709,-4564343.6377 -1861.47451758,-4564190.0141 -2067.25563544,-4564056.29334 -2366.81118335,-4563902.55713 -2544.8522652,-4563815.63336 -2713.40067419,-4563729.31259 -2891.7014067,-4563689.38187 -3098.60457871,-4563659.14 -3333.80547313,-4563656.5886 -3606.34162362,-4563616.13563 -3785.30406394,-4563614.19428 -3926.21527429,-4563584.16833 -4104.82460234,-4563572.73168 -4264.6340852,-4563533.50157 -4395.84650279,-4563485.0826 -4546.0055522,-4563454.95637 -4734.16190718,-4563424.91792 -4958.74141779,-4563318.99155 -5090.10054039,-4563261.07199 -5220.69452983,-4563155.66531 -5294.90902047,-4563060.8693 -5444.40130561,-4562946.2586 -5612.63953285,-4562831.44465 -5724.69891491,-4562745.73735 -5864.89375633,-4562649.72591 -5990.35853926,-4562532.37639 -6002.22040246,-4562519.74895 -6066.94177955,-4562448.55388 -6184.47929144,-4562314.79207 -6249.82580152,-4562232.09141 -6363.00956691,-4562157.87106 -6616.96534121,-4562156.11662 -6758.35978746,-4562101.58837 -7042.53868171,-4562028.51327 -7284.94343738,-4561975.88927 -7491.78967732,-4561963.64689 -7702.88216191,-4562066.34672 -7898.48991,-4562124.21899 -8068.84498079,-4562066.37703 -8179.82481806,-4561881.19231 -8298.18264871,-4561730.92406 -8436.84416198,-4561424.45192 -8492.99043887,-4561161.87034 -8550.88706733,-4560876.27228 -8614.41151033,-4560648.60723 -8705.24441008,-4560449.64312 -8869.09071386,-4560160.39694 -8961.27644584,-4559970.91741 -9082.1373095,-4559705.63514 -9320.90544974,-4559479.07059 -9338.27146432,-4559466.88361 -9283.55001103,-4555593.39352 -9252.57768547,-4554256.87375 -9270.75706284,-4552657.35075 -9288.37920394,-4549018.55756 -9297.24075211,-4547850.08981 -9317.7049455,-4544262.26267 -9335.82234673,-4541310.8914 -9350.7793376,-4538736.51258 -9359.95421722,-4536945.60979 -9425.13217634,-4530214.13914 -9431.87332359,-4527311.37816 -9471.75816704,-4525280.16505 -9475.33034104,-4524287.7316 -9481.25261816,-4523955.20296 -9495.37408329,-4523060.14523 -9529.8210795,-4519637.13125 -9592.6359885,-4513544.57368 -9631.22443483,-4510057.50117 -9679.07031051,-4505658.40499 -9746.20356884,-4499950.20025 -9758.08490899,-4498396.70728 -9822.44007845,-4493752.90427 -9881.5312592,-4487275.26638 -9904.52501435,-4484954.18417 -9921.74214023,-4484341.54238 -9926.65444299,-4484262.99533 12738.406236,-4484050.99895 20013.6401424,-4483974.33627 25492.9313842,-4483830.00925 30256.8254658,-4483726.55631 36083.6712386,-4483586.03738 38016.4627781,-4483539.27343 40152.2484206,-4483470.69318 45162.7579984,-4483342.98917 49984.4190718,-4483249.79326 56409.6661024,-4483203.38327 61172.9045351,-4483177.14267 79859.3866472,-4482987.56714 80264.5391877,-4483044.94361 90019.7690504,-4482934.31624 90019.1542191,-4482921.8089" style="stroke-linejoin:round;stroke:#000;stroke-width:1px;fill:none" /></g></g></svg>