<svg xmlns="http://www.w3.org/2000/svg" baseProfile="full" height="89519.3806176" version="1.1" viewBox="-12162.089286,4252987.213234,101661.147606,89519.380618" width="101661.147606"><defs><style type="text/css">polyline,line,rect,path,polygon,.polygon{fill:none;stroke:#000;stroke-width:1px;stroke-linejoin:round;}</style></defs><g fill_rule="evenodd" transform="scale(1,-1)"><g class="id" id="42049"><polygon class="_42049" id="None" points="88305.5019065,-4253553.39399 88031.9767482,-4259903.86256 88015.0955196,-4266675.96738 88019.5354802,-4268106.06765 88036.0991104,-4270224.31687 88276.8929578,-4288952.39135 88393.156446,-4297302.81993 88495.0226857,-4301467.48566 88595.5412192,-4311361.79899 88517.3323694,-4317053.65861 88484.9180122,-4320182.92238 88564.5885113,-4330207.10631 88582.1307199,-4331313.33205 88644.7266843,-4338327.78446 88697.4852758,-4340233.92168 63808.7578742,-4340650.81512 53798.14557,-4340817.3117 49962.176055,-4340874.42898 48768.6443801,-4340898.01662 21795.1424531,-4341414.06555 8978.01250629,-4341661.76592 2852.22175341,-4341781.2482 -6532.17079561,-4341959.58771 -11025.0806309,-4342051.05312 -11341.6278339,-4342057.73834 -11385.8980182,-4338214.0618 -11480.3150788,-4328804.34191 -11542.0227102,-4322664.74038 -11579.6427511,-4319317.15546 -11606.1654583,-4317230.57425 -11610.133021,-4315762.17162 -11506.2932255,-4309958.30855 -11491.1337251,-4306621.29165 -11541.5056429,-4301863.23858 -11542.3055219,-4301795.73699 -11584.2101786,-4299761.50481 -11598.3465004,-4298809.95315 -11617.0775297,-4296877.95197 -11674.6866513,-4292663.27694 -11700.6218534,-4291884.08651 -11826.7743968,-4286798.28984 -11878.9072693,-4279231.99753 -11972.8676241,-4271926.72927 -12023.0587309,-4268836.50066 -12120.7846324,-4261416.66209 -12174.2261247,-4253223.2969 -12173.5857729,-4253160.80843 -9790.55005097,-4253212.72951 -9781.0016334,-4253232.32595 -7453.25809192,-4253265.688 -3000.70110576,-4253354.84707 -2996.45179682,-4253354.89066 335.644256715,-4253425.57435 1296.64859953,-4253444.9356 9924.88128641,-4253511.52299 14559.7851161,-4253485.14448 14581.5375043,-4253484.86803 17518.6726336,-4253466.55718 20423.9896182,-4253456.42789 21820.0504705,-4253449.28447 22605.1006474,-4253443.85853 26810.0512543,-4253423.11626 30510.2681829,-4253403.19676 32307.3895023,-4253392.69682 32308.6248135,-4253272.70849 32309.0520206,-4253231.21252 32846.780875,-4253233.74863 42529.674528,-4253283.49073 47422.7512771,-4253287.93142 53562.5847463,-4253249.75918 56862.049009,-4253240.30758 59465.5198517,-4253252.68275 65836.6005122,-4253294.48181 75004.3660734,-4253357.74204 77612.4890101,-4253382.21727 78553.2567863,-4253384.94895 82394.5861336,-4253395.69516 88306.7290152,-4253434.90068 88305.5019065,-4253553.39399" style="stroke-linejoin:round;stroke:#000;stroke-width:1px;fill:none" /></g></g></svg>