<svg xmlns="http://www.w3.org/2000/svg" baseProfile="full" height="60700.9488058" version="1.1" viewBox="-46647.113815,4478430.977099,100693.388293,60700.948806" width="100693.388293"><defs><style type="text/css">polyline,line,rect,path,polygon,.polygon{fill:none;stroke:#000;stroke-width:1px;stroke-linejoin:round;}</style></defs><g fill_rule="evenodd" transform="scale(1,-1)"><g class="id" id="42077"><polygon class="_42077" id="None" points="-16031.8187768,-4478674.38996 -14355.1162568,-4478679.55563 -12263.747643,-4478683.36152 -10751.6307255,-4478696.54677 -9833.88088451,-4478701.43488 -7380.10574651,-4478716.50071 -6307.75646312,-4478727.58629 -4790.82292233,-4478745.67239 -230.672379939,-4478795.73784 2020.32531184,-4478812.64663 3846.57968958,-4478839.12936 3969.65152947,-4478843.49957 3966.24923685,-4478906.56121 8547.63955328,-4478941.19258 11986.275717,-4478945.2468 13975.1734436,-4478913.77624 16481.7003149,-4478918.24588 21392.8799564,-4478924.3708 23885.0686982,-4478952.1498 23943.3191796,-4478952.90585 28623.2330846,-4478986.97796 33921.399425,-4479023.86101 35992.8176121,-4479028.14249 39991.1923814,-4479039.29413 46751.8261757,-4479068.99618 48451.8182366,-4479088.21037 53950.7945805,-4479076.37532 53921.8204757,-4488882.77339 53915.7498555,-4489066.32397 53891.674149,-4491375.34135 53844.6235033,-4495923.88179 53814.9518028,-4499378.02361 53724.9994115,-4501976.33072 53735.5673495,-4502946.1849 53744.0469459,-4503667.19138 53741.9489302,-4504116.54237 53742.2737845,-4504120.03388 53718.3865897,-4509172.86774 53661.6509907,-4518518.07988 53682.7577286,-4519068.38984 53710.2912759,-4519580.57748 53747.4142826,-4520282.47732 53765.0859892,-4521322.15281 53761.9386041,-4521500.64467 53736.2833894,-4523091.52146 53703.2527641,-4529037.72015 53694.4647187,-4530816.1631 53666.2635921,-4532920.89254 53624.9167335,-4535941.03108 53642.2597684,-4537607.46565 53635.5028713,-4539060.5128 48627.9960563,-4539049.04748 46145.7325937,-4539039.84094 43663.8476833,-4539038.11722 39482.0574092,-4539027.21513 36806.8786609,-4539024.66187 35165.2899928,-4539031.21411 34661.8294206,-4538979.63376 33696.0159912,-4538974.55142 33575.2403021,-4538971.6678 32751.9094374,-4538967.9985 28825.2690037,-4538932.03264 26615.4177505,-4538910.88159 25809.0996556,-4538909.33752 19849.0002603,-4538858.85689 15453.7052897,-4538822.47891 13547.9946695,-4538805.71593 8598.99156466,-4538737.79283 7149.52463868,-4538715.64903 6828.25465529,-4538712.0985 4354.84408673,-4538673.59968 3528.71669714,-4538661.46768 -101.827757121,-4538610.48247 -1343.14262234,-4538610.82169 -6360.73151322,-4538622.79431 -8420.72183962,-4538623.82203 -10753.2704222,-4538633.23571 -14327.0173804,-4538652.46586 -16340.8398626,-4538664.48041 -18031.2537982,-4538662.50495 -26162.4964005,-4538560.16304 -29887.1110461,-4538537.10281 -46306.7145875,-4538473.56141 -46313.1411921,-4536159.64259 -46256.6147054,-4528473.26302 -46270.0236218,-4528141.04594 -46286.9076593,-4527972.40671 -46298.5483639,-4527826.65491 -46293.7147721,-4527157.53891 -46287.4234994,-4526486.39175 -46283.0805072,-4525457.78091 -46279.4061505,-4525013.19448 -46274.4808502,-4524510.5803 -46268.1835167,-4523572.42994 -46261.3561619,-4522763.27057 -46246.8287823,-4520801.92923 -46193.0379507,-4514319.68898 -46157.7552124,-4508598.86792 -46147.6286569,-4504577.60952 -46150.7865973,-4501950.15103 -46151.1177498,-4501259.1512 -46141.8921391,-4494486.88295 -46121.2977266,-4492520.41962 -46103.1759989,-4488640.98532 -46087.6846876,-4484286.09569 -46062.7685775,-4480029.99767 -46055.7286255,-4478559.32245 -46032.1534489,-4478562.81826 -36935.2762056,-4478591.26721 -33867.9889941,-4478595.67929 -31044.7965824,-4478596.81578 -28464.5662417,-4478635.64955 -25261.6678564,-4478661.67606 -23097.5453889,-4478673.41352 -22298.0030807,-4478677.82231 -22049.4523437,-4478564.01705 -21856.6134198,-4478545.39638 -21648.5132145,-4478562.4471 -21390.4261947,-4478660.92366 -18385.6990224,-4478682.19821 -16032.0557626,-4478698.39284 -16031.8187768,-4478674.38996" style="stroke-linejoin:round;stroke:#000;stroke-width:1px;fill:none" /></g></g></svg>