<svg xmlns="http://www.w3.org/2000/svg" baseProfile="full" height="50456.4383095" version="1.1" viewBox="-16128.345593,4417096.643626,70497.996454,50456.438310" width="70497.9964544"><defs><style type="text/css">polyline,line,rect,path,polygon,.polygon{fill:none;stroke:#000;stroke-width:1px;stroke-linejoin:round;}</style></defs><g fill_rule="evenodd" transform="scale(1,-1)"><g class="id" id="42070"><polygon class="_42070" id="None" points="54368.1404467,-4417505.3836 54298.8636834,-4417526.33788 54289.9439286,-4418902.41925 54280.620719,-4420424.44418 54272.0289974,-4421744.04262 54262.8589863,-4422681.32209 54267.7055275,-4423135.01884 54256.2029508,-4425107.38922 54194.0816409,-4436055.35479 54194.283072,-4436064.84631 54188.243545,-4436510.27725 54175.972612,-4437486.10574 54117.8274849,-4446342.43047 54117.5937036,-4446354.92994 54117.4031272,-4447250.04 54048.3651026,-4454858.17783 54042.1837541,-4455529.0173 54039.8832706,-4455819.43988 54031.5087021,-4456797.1931 54034.7434798,-4457019.02756 54041.5566615,-4457502.17207 54018.4229501,-4459122.46299 53998.2244843,-4464059.76377 53996.8679654,-4464148.25476 53981.7483478,-4465322.57428 53950.8200054,-4467497.80603 48451.8426015,-4467510.02149 46751.8486819,-4467490.91663 39991.2106786,-4467461.61073 35992.8338409,-4467450.66433 33921.4146598,-4467446.48068 28623.2447766,-4467409.82147 23943.3280211,-4467375.91554 23885.0774956,-4467375.16137 21392.8870999,-4467347.45859 16481.7057671,-4467341.45933 13975.1780118,-4467337.04126 11986.2801619,-4467368.54671 8547.64269295,-4467364.54019 3966.25051444,-4467329.94753 3969.65246993,-4467266.88586 3846.58057827,-4467262.5163 2020.32570691,-4467236.0408 -230.672419803,-4467219.13473 -4790.82342317,-4467169.0538 -6307.75696547,-4467150.95633 -7380.10622072,-4467139.86083 -9833.8813047,-4467124.76647 -10751.6311083,-4467119.8656 -12263.7478493,-4467106.65683 -14355.1164023,-4467102.81334 -16031.8188047,-4467097.61325 -16009.8546128,-4464249.90765 -15887.7127959,-4452869.41114 -15884.6135734,-4452110.92152 -15904.6056426,-4451852.8732 -15920.1178812,-4447035.69336 -15910.6412348,-4445671.13194 -15878.8292271,-4443757.65299 -15828.8095192,-4439523.53011 -15815.2393489,-4439020.79434 -15807.6134547,-4437107.83231 -15812.0782162,-4436214.52053 -15804.7770953,-4434968.4959 -15798.8958804,-4434562.41358 -15787.4162685,-4433277.30447 -15696.6137255,-4432090.00256 -15687.5436532,-4431150.40875 -15704.6210218,-4430580.83061 -15722.3362329,-4429745.2937 -15735.6131086,-4429567.09383 -15724.4978075,-4428499.46968 -15698.4124694,-4427678.00249 -15667.5806227,-4427080.41141 -15653.7779479,-4423861.45373 -15643.5237762,-4422515.87576 -15636.1212883,-4420586.41767 -15622.726403,-4419400.25568 -15612.8620662,-4417574.233 -15612.4467199,-4417144.76777 -15571.9169188,-4417110.9139 -5539.62904208,-4417158.72348 -4114.71284054,-4417164.58884 -2370.98321552,-4417176.21222 -653.993526972,-4417176.90397 2844.80091477,-4417171.92191 3501.28311064,-4417153.04445 4380.03501712,-4417148.96493 4381.26035767,-4417206.92823 8090.68126455,-4417225.49537 9901.56066852,-4417225.70946 13074.2701148,-4417221.13593 14387.8823968,-4417228.86418 17464.454405,-4417255.32115 24100.8327054,-4417308.53041 27051.344897,-4417313.66764 29403.1028447,-4417311.96445 29470.9637441,-4417330.02473 34356.5612775,-4417384.75762 39342.9283911,-4417424.3731 39919.8189886,-4417417.18553 40586.5925313,-4417441.58734 41301.4231823,-4417445.98106 41897.531427,-4417437.88819 42182.5303524,-4417442.86432 43008.2634626,-4417444.91598 44287.9962422,-4417455.37198 54368.1404467,-4417505.3836" style="stroke-linejoin:round;stroke:#000;stroke-width:1px;fill:none" /></g></g></svg>