<svg xmlns="http://www.w3.org/2000/svg" baseProfile="full" height="131190.614107" version="1.1" viewBox="26457.825985,4483813.803814,103892.078160,131190.614107" width="103892.07816"><defs><style type="text/css">polyline,line,rect,path,polygon,.polygon{fill:none;stroke:#000;stroke-width:1px;stroke-linejoin:round;}</style></defs><g fill_rule="evenodd" transform="scale(1,-1)"><g class="hogares departamen mujeres departam_1 toponimo_i tot_pob varones viv_part viv_part_h" id="42084"><polygon class="_42084" id="None" points="130322.965943,-4486455.93403 130299.47178,-4486451.93017 130260.688519,-4487922.10598 130143.909506,-4492176.65079 130034.421146,-4496530.1518 129932.566232,-4500408.2428 129869.530949,-4502373.77428 129714.129456,-4509144.14099 129699.545476,-4509834.97216 129645.989706,-4512461.82678 129549.068422,-4516481.82714 129390.313906,-4522200.38511 129196.622689,-4528679.73063 129139.765257,-4530640.22707 129115.474733,-4531449.01895 129088.929951,-4532386.77751 129073.157514,-4532889.148 129059.888164,-4533333.53342 129033.344742,-4534361.76835 129012.569119,-4535032.59513 128993.294633,-4535701.42241 129001.786214,-4535847.38524 129015.025675,-4536016.34235 129021.260297,-4536348.75708 128798.847245,-4544031.76804 128755.328844,-4546345.16929 128468.202131,-4555504.30563 128443.975354,-4556308.09925 128431.979418,-4556351.58833 128371.557239,-4558721.48099 128296.911551,-4561227.84141 128229.294761,-4563970.64422 128166.678868,-4566320.05026 127980.600635,-4572239.57056 127876.356428,-4575212.33793 127843.209335,-4576343.06064 127812.293721,-4582408.57697 127398.254891,-4591740.90525 127182.923375,-4600981.83568 127163.799864,-4603222.34567 127086.917142,-4605250.91844 127072.595477,-4606238.20875 127063.107091,-4606291.69899 127058.197668,-4606789.09353 126976.836815,-4610133.40331 126909.654689,-4612965.83272 126855.324815,-4614979.93664 126729.100095,-4614979.96266 126577.863146,-4614896.51046 126464.09546,-4614699.57313 126403.578208,-4614556.11415 126259.576077,-4614404.67373 126077.84381,-4614313.72879 125926.614666,-4614268.26849 125765.893023,-4614250.80448 125585.942885,-4614321.32692 125464.73368,-4614404.83495 125343.272547,-4614478.84496 125134.309714,-4614459.8909 125010.58504,-4614465.41479 124843.866086,-4614457.94985 124722.882016,-4614419.98159 124631.890582,-4614374.50873 124503.142853,-4614261.0566 124374.392066,-4614132.10738 124207.894273,-4613981.16983 124094.387672,-4613837.22026 123980.643155,-4613753.75894 123836.916486,-4613731.2917 123614.226177,-4613816.31931 123362.533831,-4613863.85986 123110.103617,-4613973.38873 122814.947021,-4614162.91096 122519.510282,-4614200.96201 122262.314506,-4614231.00697 122035.104081,-4614216.05439 121724.626473,-4614034.64896 121580.894334,-4613989.18543 121429.403302,-4613890.73317 121270.400506,-4613724.29485 121240.11075,-4613489.34426 121262.567231,-4613284.87791 121300.522371,-4613087.90729 121255.01353,-4612997.43286 121171.773206,-4612966.95445 120997.551304,-4612944.49188 120808.342095,-4612974.52238 120672.133172,-4613058.0329 120566.158423,-4613088.04756 120403.193816,-4613116.57334 120270.977101,-4613164.08978 120187.505311,-4613232.09322 120037.550471,-4613325.6047 119710.623081,-4613395.15425 119369.944662,-4613448.20935 119120.233756,-4613417.76212 118983.739613,-4613319.30555 118960.949547,-4613084.85186 118915.665104,-4612857.90108 118839.904598,-4612728.93841 118726.406607,-4612630.47724 118642.915995,-4612600.49816 118491.684615,-4612555.0344 118340.217233,-4612585.05715 118213.499911,-4612639.57095 118105.530129,-4612699.0804 117931.312394,-4612706.61135 117787.580772,-4612668.64466 117673.836905,-4612593.17899 117560.331779,-4612456.72395 117431.57528,-4612297.7756 117310.320289,-4612153.82312 117196.825113,-4612070.85842 117136.323276,-4612002.38147 116983.078301,-4611881.93046 116750.095693,-4611752.4953 116515.36904,-4611654.55473 116326.137011,-4611571.10328 115992.928576,-4611480.17873 115674.963307,-4611366.75502 115500.733908,-4611313.79509 115440.233589,-4611253.31622 115356.997894,-4611253.33096 115304.010973,-4611275.83648 115190.30126,-4611393.3365 115039.09994,-4611522.34128 114849.657606,-4611665.85048 114675.70055,-4611741.86848 114486.233858,-4611749.40079 114327.271313,-4611809.91877 114259.29609,-4611885.41814 114092.591436,-4611983.9312 113948.884182,-4612089.93899 113774.680583,-4612188.45351 113570.234524,-4612301.97098 113494.748393,-4612309.98304 113419.006799,-4612287.00024 113320.502952,-4612173.53633 113244.744087,-4612052.56959 113146.229629,-4611878.1156 112994.97937,-4611734.66567 112684.510398,-4611620.7385 112374.059758,-4611613.29366 112040.879586,-4611704.33666 111813.685892,-4611817.85771 111639.725605,-4611885.87692 111526.004372,-4611946.88684 111359.546605,-4612037.40122 111193.077061,-4612060.42636 111018.853391,-4612052.95765 110814.383038,-4612037.49536 110617.654316,-4611981.03811 110458.680581,-4611988.56422 110329.94947,-4611981.08747 110152.978672,-4611990.11637 109943.762286,-4611996.1512 109671.046835,-4611950.70477 109557.557924,-4611912.72995 109368.316609,-4611791.78074 109194.064058,-4611617.837 108967.081125,-4611511.8915 108754.849664,-4611428.4399 108497.625104,-4611345.49557 108224.901476,-4611254.55483 107990.16951,-4611148.60984 107641.947132,-4610997.19021 107308.714957,-4610800.27452 106998.244187,-4610694.34107 106840.517739,-4610694.36673 106748.531444,-4610694.38168 106483.572011,-4610701.92355 106195.854755,-4610641.47904 105930.876686,-4610535.53733 105711.14192,-4610429.58814 105446.146844,-4610217.66148 105294.644899,-4610066.20768 105082.648288,-4609892.26659 104938.906051,-4609808.8014 104810.164071,-4609740.83152 104681.431566,-4609733.35281 104522.454567,-4609733.37772 104370.972827,-4609710.40474 104113.494581,-4609612.45899 103886.25008,-4609438.0193 103795.486187,-4609264.05825 103560.749914,-4609135.11284 103417.02165,-4609143.13377 103265.550102,-4609188.1506 103158.325048,-4609251.65803 103045.851004,-4609317.16601 102901.885338,-4609408.67519 102803.671087,-4609551.67016 102644.706173,-4609635.18288 102526.486418,-4609724.68854 102372.278989,-4609862.19312 102167.824735,-4609975.70884 101933.125721,-4610097.22818 101645.424392,-4610157.76407 101395.460725,-4610172.80032 101175.992842,-4610188.33178 100986.772965,-4610218.35661 100820.051182,-4610256.37692 100668.57035,-4610248.90099 100441.601814,-4610256.43448 100274.877418,-4610278.95678 100062.904391,-4610271.48988 99835.9252412,-4610211.03215 99646.4331202,-4610097.57562 99389.2078235,-4610037.12214 99184.7232205,-4609961.16264 98942.480049,-4609794.72041 98692.4879285,-4609628.27907 98518.2438184,-4609514.81948 98366.9878098,-4609340.3643 98124.501495,-4609219.41538 97874.7627552,-4609075.47027 97685.2717735,-4608969.51135 97609.7738124,-4608916.52906 97511.2842794,-4608901.54518 97435.5472181,-4608924.05322 97329.5695447,-4608985.0607 97238.5843809,-4609007.57093 97125.1053599,-4609053.08149 97003.8849061,-4609151.58645 96950.906875,-4609257.58069 96852.6921939,-4609416.57483 96685.9816745,-4609545.08279 96557.2762367,-4609742.0768 96459.071347,-4609969.06282 96345.3640398,-4610166.05497 96186.3968582,-4610257.06689 96050.1691034,-4610295.08203 95875.9392595,-4610287.1083 95671.7098161,-4610257.14153 95520.2194936,-4610196.67077 95368.7367825,-4610189.19352 95187.0130632,-4610219.21605 95005.2947106,-4610287.234 94884.0690891,-4610355.74321 94751.1060318,-4610502.24483 94679.8902787,-4610681.2338 94542.1814724,-4610853.73324 94339.2143387,-4610915.75521 94090.998917,-4610953.78651 93953.0150302,-4610953.80635 93733.290597,-4610953.83789 93566.8098936,-4610953.86173 93339.5807046,-4610915.89859 93142.8457904,-4610862.93271 92892.8594094,-4610756.98035 92741.6106607,-4610643.51471 92677.6110617,-4610594.52933 92622.1106389,-4610546.54263 92572.6126301,-4610520.55256 92529.1166061,-4610513.55947 92489.1211633,-4610513.56509 92457.1266316,-4610526.5681 92433.631411,-4610541.56969 92332.6444274,-4610552.58262 92052.4219411,-4610522.62526 91870.6786851,-4610424.16173 91681.4341908,-4610310.70081 91484.6946967,-4610227.23743 91280.2102488,-4610174.27159 91083.2196899,-4610083.30884 90810.7292916,-4609932.36295 90636.4830612,-4609818.39934 90477.4945264,-4609773.42593 90303.2616348,-4609757.95126 90099.022859,-4609674.988 89909.5283412,-4609561.52596 89765.7858725,-4609500.55193 89606.7992001,-4609470.5765 89356.8283655,-4609485.60827 89107.1043608,-4609478.14236 88872.3786146,-4609470.67435 88660.4023073,-4609478.20165 88501.4182747,-4609470.72347 88334.6829691,-4609447.74793 88145.4450662,-4609387.27925 88016.6987733,-4609311.80413 87865.2068452,-4609251.33035 87706.2186242,-4609213.3551 87585.2273595,-4609182.87407 87471.4883052,-4609175.38965 87327.7563156,-4609198.40592 87229.2694999,-4609220.91635 87070.2879652,-4609235.9354 86881.067383,-4609311.95203 86722.0866715,-4609334.47027 86472.1064522,-4609289.00718 86328.3595226,-4609198.53491 86191.8618012,-4609107.56169 86002.6243096,-4609054.59126 85737.6425451,-4608986.63188 85480.1570301,-4608895.6737 85290.9088743,-4608759.21133 85169.6634599,-4608698.73265 85048.6746595,-4608691.24858 84866.9522884,-4608766.76381 84715.4796967,-4608865.27298 84586.7529067,-4608948.78083 84458.0307615,-4609069.78502 84314.2977639,-4609092.80076 84102.0732157,-4609130.32362 83973.5866728,-4609137.83893 83776.5973452,-4609069.87006 83685.8467718,-4608994.38864 83526.6065507,-4608948.91277 83428.360419,-4608903.4293 83254.1225268,-4608865.45444 83004.1428345,-4608835.48803 82822.6517987,-4608767.01681 82693.9011466,-4608661.04263 82572.6488983,-4608547.5682 82413.6566927,-4608487.09324 82300.1628735,-4608449.11058 82201.6767951,-4608487.11887 82095.6987016,-4608585.62237 81974.4656048,-4608631.13274 81891.2197403,-4608600.64564 81815.4486558,-4608366.17677 81694.1991469,-4608275.19984 81550.4562975,-4608222.22198 81414.221721,-4608244.73612 81270.2387721,-4608275.25042 81134.0059433,-4608313.26309 80876.5395867,-4608396.286 80740.2985588,-4608366.30491 80634.3010733,-4608305.32304 80551.0546906,-4608271.33598 80316.315504,-4608180.87188 80081.581547,-4608135.40353 79914.8439851,-4608112.42509 79718.1074003,-4608074.9514 79437.8764667,-4608021.9887 79339.3857018,-4608025.49978 79218.3987171,-4608044.51207 79051.6653067,-4608059.52998 78998.6652365,-4608018.03978 78968.4079169,-4607931.051 78900.3957254,-4607772.07295 78862.3783049,-4607590.09352 78741.364975,-4607378.12623 78597.360668,-4607226.65607 78370.119806,-4607128.19047 78105.137367,-4607075.22493 77862.9164057,-4607143.746 77658.4351852,-4607151.26818 77408.7027627,-4607113.2993 77294.958444,-4607075.31523 77105.7215462,-4607045.33879 77090.9726579,-4607043.84055 76939.2342881,-4607030.35847 76795.2558426,-4607113.3672 76707.2778936,-4607244.86563 76674.3004935,-4607423.85398 76628.8270262,-4607628.34163 76553.0901613,-4607688.84491 76394.1069751,-4607719.35996 76174.6212362,-4607681.38744 76060.8774102,-4607650.90255 75886.8894843,-4607628.42358 75765.647946,-4607613.43814 75636.9119377,-4607643.44976 75515.6794841,-4607711.95737 75419.9523393,-4607848.45661 75462.9772217,-4608106.93065 75409.7556344,-4608324.9187 75349.2874012,-4608567.40567 75250.8096266,-4608695.9062 75091.8291981,-4608756.91892 74985.8527774,-4608892.91977 74811.6301438,-4609014.42942 74637.6489209,-4609059.44514 74433.1642203,-4609051.96835 74251.4185282,-4608961.4955 74122.6628237,-4608817.52093 73963.6562281,-4608643.052 73797.161055,-4608567.57603 73615.4170682,-4608492.10163 73471.4216981,-4608431.12194 73335.1733545,-4608348.14307 73251.9176376,-4608234.66083 73198.9071479,-4608098.17712 73160.8939403,-4607946.69298 73160.8786155,-4607802.70423 73130.6165468,-4607666.71808 73062.6090149,-4607545.2348 72911.1096994,-4607439.25908 72706.616172,-4607348.78764 72502.1257687,-4607288.31374 72350.6351292,-4607265.33133 72168.8968476,-4607242.85197 72017.6632216,-4607288.36416 71919.1778319,-4607356.36916 71888.9466518,-4607515.36014 71835.9632742,-4607636.35644 71744.9828295,-4607757.85669 71555.7604894,-4607886.36671 71359.0347035,-4607977.38036 71154.5577774,-4608052.89598 71033.3167651,-4608052.90856 70836.5844477,-4608083.42668 70639.6012393,-4608105.94538 70367.1164603,-4608060.47675 70170.1307758,-4608060.49696 70033.899178,-4608144.00487 69980.9123136,-4608235.00374 69973.4314721,-4608416.49148 70033.9536716,-4608673.96683 70147.4593862,-4608807.44556 70215.7118843,-4608878.43341 70261.2188842,-4608976.92165 70298.9803777,-4609112.90802 70306.4870024,-4609181.40236 70268.7515576,-4609294.89826 70268.7713781,-4609483.88489 70344.5319771,-4609635.36623 70367.2939904,-4609764.35475 70496.0541646,-4609945.82835 70526.3270495,-4610180.80865 70526.344829,-4610347.29702 70480.8617457,-4610475.79294 70427.8800467,-4610612.28916 70314.4041257,-4610763.79089 70223.4225506,-4610877.29288 70109.9416773,-4610983.29784 69935.7067745,-4611013.81447 69852.4591386,-4610983.32545 69761.4475113,-4610816.84643 69632.940892,-4610672.86984 69488.9426279,-4610597.39021 69303.7018413,-4610566.41186 69222.7033886,-4610529.42289 69122.2066122,-4610495.93571 68986.4642333,-4610481.95089 68769.7285279,-4610480.47368 68633.2450494,-4610551.98319 68519.7651725,-4610672.98706 68459.2762489,-4610740.98892 68413.7879542,-4610824.48821 68338.0539797,-4610930.48921 68277.5674316,-4611021.48963 68179.0841129,-4611119.99357 68101.8416017,-4611144.00011 68006.6013803,-4611179.00782 67872.6119933,-4611198.52057 67761.6168857,-4611177.53348 67661.1119041,-4611068.05091 67620.3493184,-4610921.56448 67488.5912129,-4610761.58831 67354.5888699,-4610655.60886 67210.0968476,-4610643.62444 67079.6067193,-4610659.13681 66989.6131308,-4610666.14556 66905.1203022,-4610684.15305 66801.127359,-4610689.16334 66633.6378654,-4610689.18038 66485.645336,-4610671.69649 66309.6531543,-4610640.71623 66101.9090292,-4610571.24149 65949.4128799,-4610515.76024 65727.6668395,-4610418.7884 65519.92824,-4610405.30992 65325.9414193,-4610418.82837 65173.4479604,-4610391.34514 64882.4627849,-4610363.37555 64757.9730214,-4610391.38611 64591.4897538,-4610460.39834 64439.2515528,-4610488.4116 64314.498099,-4610377.43038 64203.7317577,-4610141.95514 64134.2251366,-4610030.96848 64037.2202368,-4609920.48443 63967.9636724,-4609809.49771 63843.4631193,-4609726.51461 63718.7125507,-4609643.03152 63637.2053824,-4609517.04678 63399.9551523,-4609366.07828 63233.7149994,-4609366.09399 63039.7251184,-4609352.11309 62845.7352337,-4609338.6321 62679.4962059,-4609352.14687 62513.253305,-4609324.664 62347.0167925,-4609366.17708 62083.7883766,-4609435.69754 61889.8122683,-4609574.20764 61626.592484,-4609740.22266 61460.3594937,-4609823.73337 61307.8756236,-4609906.74285 61155.3904459,-4609976.25309 61044.6528794,-4610045.25951 60892.1650204,-4610086.77128 60767.421797,-4610086.78274 60628.9330947,-4610128.2932 60518.1928584,-4610169.80111 60310.2065559,-4610197.81862 59977.7330305,-4610294.84375 59783.7457246,-4610322.35992 59603.7588847,-4610363.87405 59492.7696678,-4610419.3812 59409.7902738,-4610599.87938 59298.8047415,-4610696.88445 59146.5662529,-4610738.3961 58952.573567,-4610710.415 58786.3356811,-4610751.92785 58689.3467836,-4610821.43307 58564.6117053,-4610918.43942 58398.3749136,-4610973.95156 58273.6421922,-4611098.4566 58107.4089821,-4611195.46673 57913.423333,-4611250.98136 57747.188719,-4611333.99218 57553.2115287,-4611486.50217 57469.9876698,-4611735.99783 57303.7664195,-4611971.50169 57137.5339782,-4612082.5114 57069.0385411,-4612098.51677 56902.0496685,-4612138.02982 56541.8159477,-4612138.06173 56358.3258861,-4612157.57704 56115.5879544,-4612172.09772 55808.1058683,-4612222.12241 55458.122972,-4612243.65193 55215.1526089,-4612465.16349 55057.928465,-4612686.66775 54822.2044198,-4612872.68042 54572.2282819,-4613029.69559 54314.9942895,-4613094.21517 54079.0062237,-4613122.7343 53850.5092271,-4613051.25671 53714.7542898,-4612929.7731 53571.7460539,-4612765.29177 53450.2334688,-4612558.31029 53307.2224491,-4612358.3303 53214.4500078,-4612043.85072 53157.1845774,-4611829.36419 53057.151681,-4611379.3909 52935.6113691,-4610821.92406 52792.830006,-4610357.45522 52478.3308475,-4610200.48698 52192.587821,-4610136.01234 51878.0965408,-4610079.03946 51515.1165032,-4610141.56523 51220.6281729,-4610136.08833 50934.8733143,-4609921.61913 50820.6088684,-4609671.63812 50649.1007198,-4609471.65938 50334.6012376,-4609307.18986 50077.356411,-4609235.71204 49813.1155552,-4609214.23257 49612.8726082,-4609200.24797 49434.377682,-4609171.76227 49319.874932,-4609071.77469 49277.1161882,-4608928.78357 49162.6056966,-4608721.30028 48898.3601695,-4608635.82286 48662.6160364,-4608585.84182 48391.128395,-4608607.36039 48126.6383153,-4608599.8795 48012.8947329,-4608627.38648 47783.6522777,-4608607.40346 47661.4052743,-4608582.41303 47519.1595274,-4608564.4237 47376.41703,-4608592.93258 47097.6777141,-4608592.95199 46897.6813854,-4608535.96801 46768.9239602,-4608356.9837 46697.4149421,-4608185.49515 46690.4059588,-4608050.00083 46701.8963178,-4607915.00526 46720.8879981,-4607803.50829 46635.3814947,-4607658.51974 46468.8816047,-4607564.03466 46304.3841729,-4607507.04792 46140.1386327,-4607478.56001 45997.1441528,-4607478.56954 45879.9006861,-4607509.07616 45704.1643587,-4607614.08381 45439.9267308,-4607650.09992 45225.4291402,-4607564.11725 45046.9283557,-4607449.6332 44768.1809387,-4607328.65581 44687.6808806,-4607281.16278 44568.1805823,-4607207.17322 44475.1812945,-4607164.18079 44289.4372737,-4607149.69319 44043.694675,-4607123.20977 43856.1954856,-4607026.72517 43727.945866,-4606957.73576 43460.4475965,-4606828.25721 43296.1983087,-4606742.77053 43167.4490047,-4606677.78085 43031.6995988,-4606606.79179 42895.948436,-4606506.80374 42824.6927582,-4606370.81305 42703.1829561,-4606135.32906 42552.9298862,-4605992.34337 42495.9208603,-4605806.35366 42402.6615847,-4605592.36716 42283.9098517,-4605488.37807 42174.4103644,-4605427.88679 42002.9167377,-4605427.89686 41852.6639528,-4605284.91095 41727.910915,-4605152.9231 41625.6535704,-4604959.9362 41480.8928119,-4604677.95507 41359.6428629,-4604598.96495 41266.8947246,-4604570.47129 41172.1470848,-4604549.47745 40982.1523205,-4604516.4894 40773.6630971,-4604570.4991 40595.1772835,-4604706.50409 40459.4354264,-4604763.50959 40323.693143,-4604813.51534 40173.4485724,-4604813.52369 40093.698402,-4604758.53009 39989.2002071,-4604723.03714 39787.7041799,-4604663.55036 39637.7083783,-4604642.05933 39514.2135768,-4604656.56554 39267.2271079,-4604744.57582 39130.2368173,-4604835.08006 39001.2425911,-4604858.5862 38891.9991884,-4604910.59027 38773.2524141,-4604894.09722 38580.0093454,-4604899.10738 38415.7668936,-4604935.11489 38264.772653,-4604946.62251 38122.2749863,-4604899.13166 37944.2761651,-4604806.64415 37756.5353578,-4604861.15213 37609.2989447,-4605027.15425 37376.5618538,-4605127.16304 37091.570457,-4605112.67825 36915.3123766,-4604842.19616 36911.0465752,-4604528.70676 36793.7935866,-4604392.21725 36592.5399824,-4604186.23424 36319.7930468,-4604064.25189 36286.293425,-4604049.25404 36022.0494065,-4603991.76897 35850.5550984,-4603991.77735 35707.5612335,-4604020.78336 35650.5646148,-4604051.7851 35550.320544,-4604106.28818 35471.5761883,-4604169.78992 35357.5809776,-4604192.29471 35257.8359874,-4604229.29832 35043.0928247,-4604227.80868 34863.5981883,-4604219.81751 34635.8527674,-4604163.33012 34364.3674315,-4604292.33884 34228.6303878,-4604477.83942 34261.3901149,-4604705.83083 34192.1494389,-4604858.32943 33942.9154685,-4605038.33574 33771.1748305,-4605128.34112 33592.6814587,-4605156.84862 33277.6903848,-4605149.36348 33096.4430197,-4605091.37353 32863.7011511,-4605120.88332 32692.2087272,-4605178.38947 32570.7180445,-4605306.8913 32513.7274493,-4605478.38902 32507.2380339,-4605706.8829 32620.744697,-4605921.37174 33020.9842187,-4605935.85283 33352.9808488,-4606062.83373 33521.2326008,-4606199.82193 33764.2339682,-4606371.30553 33832.7420072,-4606578.29647 33778.5014642,-4606743.29452 33642.7630825,-4606907.29659 33421.282106,-4607178.79996 33414.0426355,-4607393.29464 33349.8022584,-4607557.79345 33314.060436,-4607707.7913 33206.8156022,-4607757.7952 33078.3199133,-4607779.30085 32885.3227476,-4607736.3112 32663.8195439,-4607550.82644 32540.5625755,-4607336.33772 32435.0592643,-4607207.84597 32292.3096043,-4607136.35445 32141.5615066,-4607093.86253 31884.8186849,-4607107.374 31727.8275758,-4607214.87847 31749.0855387,-4607400.37285 31906.3415221,-4607614.86028 32079.8470348,-4607825.34703 32217.6099678,-4608172.33212 32146.3772629,-4608502.3276 31942.1400749,-4608672.33327 31777.8975598,-4608750.83919 31527.6512973,-4608708.35187 31386.3957609,-4608519.36276 31272.3900745,-4608338.87218 31206.133006,-4608150.87959 31106.1259319,-4607943.88901 30963.1228495,-4607800.89886 30698.8790871,-4607800.91071 30420.1400395,-4607900.92078 30255.6529819,-4608107.92332 30234.4136115,-4608336.9191 30274.6717727,-4608540.41278 30370.1794316,-4608758.40371 30434.435756,-4608929.89709 30455.9498513,-4609251.38923 30412.962122,-4609501.38593 30112.9793002,-4609744.39457 29962.9861741,-4609829.89964 29805.7406035,-4609858.90613 29669.9939087,-4609872.91194 29377.0009014,-4609901.42442 29184.0033807,-4609872.93349 29034.0006548,-4609744.44254 28919.7531706,-4609751.44739 28776.7593225,-4609829.95209 28669.5150797,-4609915.95509 28555.2712387,-4610008.95828 28460.0262591,-4610084.46098 28348.0318191,-4610165.96429 28255.0362758,-4610230.46711 28105.0414134,-4610287.47249 27983.5451141,-4610323.47701 27790.2992755,-4610340.98488 27690.5511768,-4610344.48902 27571.8017281,-4610307.99464 27504.8020451,-4610287.4978 27383.304167,-4610287.50286 27276.0563213,-4610294.50719 27165.0608188,-4610357.01069 26961.8181874,-4610452.01743 26754.576337,-4610566.52399 26547.3294549,-4610559.03253 26469.3296878,-4610533.03611 26697.5624053,-4603668.67533 26785.2746599,-4602682.19897 27185.6299159,-4590729.10843 27242.5727354,-4588733.69316 27422.9688225,-4584999.86066 27643.8253962,-4579125.1519 27826.486779,-4575041.87027 27961.9285701,-4572061.03716 27973.6689813,-4571496.06966 28023.6404008,-4569785.66896 28083.1090676,-4567762.28851 28197.0549384,-4563719.53341 28254.028576,-4561307.68285 28268.2724853,-4560690.22144 28294.262634,-4559642.78717 28325.2511159,-4558279.37323 28334.7484816,-4557963.39323 28365.4892002,-4556719.47225 28398.730142,-4555325.06126 28439.9709845,-4553658.6681 28468.4655752,-4552423.74756 28667.9556632,-4544357.76892 28905.4848379,-4536833.25141 28933.9900853,-4536039.80167 29029.0109065,-4533395.96785 29095.5339559,-4531116.10912 29181.066986,-4528337.27855 29314.1480725,-4523019.09185 29390.2057447,-4519893.26826 29475.7777389,-4516449.45495 29589.885114,-4511957.68477 29637.4321578,-4510166.77168 29694.4906999,-4508057.87029 29765.8278798,-4505135.99954 29789.6230913,-4503716.05882 29875.2305529,-4500485.68653 29932.3214474,-4497939.27839 30309.6697212,-4483785.13671 58983.295465,-4484618.64423 62605.8590991,-4484705.98731 64726.4898368,-4484761.69706 70271.1452895,-4484878.27911 76125.2204622,-4485013.9429 80290.8798368,-4485096.94746 81179.552316,-4485117.55821 84005.0456557,-4485177.91859 85355.1670314,-4485207.09495 86804.0242431,-4485241.28693 89600.4866247,-4485299.667 91580.7716161,-4485345.94261 93633.2896668,-4485390.7347 95772.7873801,-4485437.04581 96663.9287081,-4485458.6771 98573.9400283,-4485499.96301 100631.422681,-4485545.27687 103611.266085,-4485613.24207 105946.432064,-4485662.11626 107909.63944,-4485706.93646 110254.526689,-4485757.82662 118742.333538,-4485946.80459 120263.554501,-4485971.08219 120248.956723,-4486511.98043 121857.233078,-4486111.35512 123914.577667,-4486179.23327 126464.559351,-4486250.21262 130322.986326,-4486354.45577 130322.965943,-4486455.93403" style="stroke-linejoin:round;stroke:#000;stroke-width:1px;fill:none" /></g></g></svg>