<svg xmlns="http://www.w3.org/2000/svg" baseProfile="full" height="102451.5318" version="1.1" viewBox="-11014.702496,4358534.777965,102113.956375,102451.531800" width="102113.956375"><defs><style type="text/css">polyline,line,rect,path,polygon,.polygon{fill:none;stroke:#000;stroke-width:1px;stroke-linejoin:round;}</style></defs><g fill_rule="evenodd" transform="scale(1,-1)"><g class="id" id="42091"><polygon class="_42091" id="None" points="89123.4235339,-4379046.5546 89079.9005463,-4379048.59495 89124.4984095,-4381453.64321 89186.950648,-4384913.90691 89214.9316299,-4387519.27586 89230.6279966,-4389015.48209 89268.8461678,-4393160.492 89575.664458,-4420822.84421 89787.4197374,-4439190.56693 90019.0884311,-4459154.822 90019.706385,-4459167.32916 80264.5156731,-4459280.26072 79859.3508391,-4459222.97431 61172.9186214,-4459416.20556 56409.6850293,-4459443.22312 49984.4442591,-4459490.58145 45162.7936346,-4459584.41383 40152.2953248,-4459712.71097 38016.5147891,-4459781.52291 36083.7255868,-4459828.48561 30256.8835126,-4459969.54105 25492.9880018,-4460073.36266 20013.6928951,-4460218.03595 12738.442698,-4460295.02943 -9926.68873293,-4460507.1149 -10006.6967151,-4452618.80423 -10127.4328639,-4440839.95803 -10676.9954658,-4391659.88353 -10675.8745038,-4390626.49581 -10719.1869401,-4388326.76248 -11025.049967,-4360808.44989 -6532.15397724,-4360716.89416 2852.21557347,-4360538.51542 8977.99554491,-4360419.11659 21795.1140473,-4360171.86942 48768.6426417,-4359658.00575 49962.177236,-4359634.55338 53798.1548284,-4359577.89298 63808.7965154,-4359412.74773 88697.6385302,-4359000.21046 88880.2161462,-4367325.54029 89123.4235339,-4379046.5546" style="stroke-linejoin:round;stroke:#000;stroke-width:1px;fill:none" /></g></g></svg>