<svg xmlns="http://www.w3.org/2000/svg" baseProfile="full" height="85520.6921157" version="1.1" viewBox="28.329692,4379529.774070,162711.888934,85520.692116" width="162711.888934"><defs><style type="text/css">polyline,line,rect,path,polygon,.polygon{fill:none;stroke:#000;stroke-width:1px;stroke-linejoin:round;}</style></defs><g fill_rule="evenodd" transform="scale(1,-1)"><g class="hogares departamen mujeres departam_1 toponimo_i tot_pob varones viv_part viv_part_h" id="42154"><polygon class="_42154" id="None" points="82552.0758135,-4382854.3849 82605.3210091,-4382854.88904 82604.0683292,-4382890.38576 89362.4001308,-4383070.92025 92518.5541926,-4383147.1839 94665.5554927,-4383201.86773 103313.440113,-4383428.64612 114430.721061,-4383714.23745 118116.57383,-4383819.11947 122220.30336,-4383959.55277 124131.92723,-4384022.7593 128646.492528,-4384181.25584 132583.874891,-4384311.20271 138656.187233,-4384499.4168 138663.437571,-4384482.92173 138808.151452,-4384489.93847 138822.39403,-4384520.93273 138881.879524,-4384520.94031 142610.188774,-4384577.40764 144239.012073,-4384605.11464 149077.440247,-4384673.24625 152455.467175,-4384715.70031 152456.717785,-4384708.70253 152576.432726,-4384708.71923 152575.430019,-4384730.2128 152641.910526,-4384730.22207 155124.408862,-4384814.04624 156271.303306,-4384854.69683 157451.432984,-4384890.35461 158282.66801,-4384921.46445 161580.841612,-4385031.40905 162202.884336,-4385047.99509 162663.480625,-4385055.06072 162624.748344,-4386753.48939 162585.851688,-4387905.0991 162365.316137,-4394941.70051 162357.904695,-4396503.66905 162319.028304,-4397913.68489 162256.037865,-4400811.18901 162226.969152,-4401762.3607 162120.423566,-4406407.2564 162076.842597,-4408034.69267 162062.295167,-4409009.85528 161936.692672,-4412222.23941 161914.925885,-4412867.01559 161832.884389,-4415045.75916 161791.647743,-4415078.74661 161782.139556,-4415508.09784 161733.615759,-4417333.46519 161695.109839,-4418519.05431 161646.857195,-4420447.88639 161608.115882,-4421792.92091 161526.162168,-4425010.80875 161482.685046,-4425607.60315 161439.213175,-4426428.3205 161405.495873,-4427495.453 161414.996561,-4427673.89125 161415.016808,-4428509.60305 161420.030483,-4429079.40646 161391.06867,-4430018.58369 161275.149147,-4431203.67983 161236.462722,-4432488.24 161221.98494,-4432894.1013 161188.303512,-4434139.67564 161173.853143,-4435032.87037 161125.725917,-4436945.21895 161101.514517,-4437447.54887 160961.85727,-4441679.61866 160889.538421,-4443591.97731 160851.171959,-4444956.02044 160764.685749,-4449772.41366 160779.209512,-4450030.82583 160760.051377,-4450789.07523 160396.975248,-4462164.39506 160314.720519,-4465010.99594 160313.974844,-4465034.98841 157961.203293,-4464968.90697 154957.602223,-4464883.93139 154701.661402,-4464780.0043 154493.969571,-4464758.54462 154300.779166,-4464773.07186 154049.870971,-4464881.58077 153250.601873,-4464860.21721 151087.214952,-4464802.58249 147885.589346,-4464708.61481 145306.764055,-4464615.03896 142484.231936,-4464553.98288 139417.729987,-4464484.45522 130323.510937,-4464262.79364 130323.497097,-4464161.31515 126465.02765,-4464058.35379 123915.018035,-4463988.2004 121857.648058,-4463920.97636 120249.493423,-4464322.10643 120263.922905,-4463781.20246 118742.692153,-4463757.39525 110254.817326,-4463570.93185 107909.912665,-4463520.70351 105946.690433,-4463476.42647 103611.508393,-4463428.18535 100631.643629,-4463361.00752 98574.1470822,-4463316.2239 96664.1233695,-4463275.42042 95772.975773,-4463254.01098 93633.4646792,-4463208.22413 91580.9340573,-4463163.92384 89600.6365601,-4463118.1124 86804.1586981,-4463060.37052 85355.2928399,-4463026.50123 84005.1641693,-4462997.62069 81179.65621,-4462937.86412 80290.9789334,-4462917.439 76125.3007455,-4462835.2774 70271.197983,-4462700.72233 64726.5214633,-4462585.10866 62605.8815775,-4462529.74824 58983.3047154,-4462442.97501 30309.6132995,-4461612.78063 30319.3498786,-4461168.28745 30333.8274086,-4460412.29957 28976.3506168,-4460443.83772 22044.948089,-4460582.00609 9302.81025286,-4460850.19707 3511.09274378,-4460714.73385 3474.34293658,-4460712.73398 3216.59435513,-4460719.73478 1813.85192867,-4460755.738 1371.33448458,-4440795.00424 965.588044583,-4422430.42072 366.605783286,-4394772.51363 284.607886948,-4390628.07185 253.108576147,-4389132.08976 197.609633432,-4386527.11664 98.6108539667,-4383067.64326 28.6113481005,-4380663.15517 72.1111846591,-4380660.65518 3139.34980924,-4380571.66046 6061.58871706,-4380503.67426 10057.5720133,-4380411.70713 11099.5671739,-4380389.71836 17021.534405,-4380248.30343 17947.7783378,-4380220.82004 20026.0134767,-4380160.86054 23127.2392962,-4380006.43 26537.2080921,-4379816.01854 28628.9364153,-4379683.07934 29903.9230732,-4379567.11926 31609.1466567,-4379632.67232 32517.1317163,-4379663.70178 32565.3809577,-4379663.7034 32551.0717947,-4381477.6727 50223.3407759,-4381958.87515 52290.7602652,-4382027.97554 52761.7412667,-4382040.99905 54044.18683,-4382099.06315 54693.6583999,-4382128.09616 55026.8933337,-4382147.61304 61105.6011607,-4382299.94703 63189.7379111,-4382355.56897 65005.8837141,-4382401.6785 71051.9981956,-4382537.5653 72947.6141483,-4382580.19325 78837.9019585,-4382751.60785 82552.0758135,-4382854.3849" style="stroke-linejoin:round;stroke:#000;stroke-width:1px;fill:none" /></g></g></svg>