<svg xmlns="http://www.w3.org/2000/svg" baseProfile="full" height="165042.326017" version="1.1" viewBox="-10070.157581,3321474.929734,147240.545487,165042.326017" width="147240.545487"><defs><style type="text/css">polyline,line,rect,path,polygon,.polygon{fill:none;stroke:#000;stroke-width:1px;stroke-linejoin:round;}</style></defs><g fill_rule="evenodd" transform="scale(1,-1)"><g class="id" id="46014"><polygon class="_46014" id="None" points="19965.6529753,-3336964.4548 32596.1160995,-3332516.14452 64511.5761677,-3321656.8803 64870.0886095,-3321890.93934 65014.7127588,-3323842.20447 64777.4296607,-3324109.68608 64339.1898588,-3324254.45334 63762.3125129,-3324444.54008 63176.6975718,-3324574.55205 62616.581604,-3325086.28585 62256.8334374,-3325261.72296 61698.5909606,-3325700.47166 61467.1595294,-3325927.00219 61367.0195508,-3326178.1511 61296.5471642,-3326233.55123 61183.123639,-3326400.58626 61166.1435187,-3326750.44382 61153.3091299,-3327053.8362 60979.5052008,-3327294.85693 60919.5738425,-3327756.3484 60861.0734342,-3328049.8511 60650.8495164,-3328076.06041 60754.1015995,-3328251.94045 60521.996387,-3328410.96368 60270.5068529,-3328380.32141 60129.5470587,-3328463.62092 60211.1562709,-3328744.31649 60377.713328,-3328913.73548 60389.8042907,-3329137.8387 60175.737625,-3329556.51525 60103.0270741,-3329933.39563 60241.5856613,-3330102.57587 60142.0424899,-3330283.72758 59944.7451847,-3330436.04649 59830.9646724,-3330645.07671 59913.8850177,-3330771.78281 59891.9290599,-3331148.09465 59783.4817693,-3331288.67022 59659.1536878,-3331444.61039 59471.2118627,-3331790.00766 59288.1526111,-3331914.44746 59385.6679342,-3331971.27795 59294.3279006,-3332245.99825 59046.5933827,-3332332.38713 58822.8495556,-3332302.4812 58824.399864,-3332120.49554 58599.3668411,-3332212.57798 58443.5677259,-3332453.2492 58399.4245847,-3332704.87134 58245.9139036,-3332647.56409 58064.1669728,-3332618.01617 58000.9642025,-3332817.97623 58257.289315,-3332955.65859 58255.5005353,-3333165.64163 58157.0314676,-3333220.80232 58182.6441104,-3333501.01804 58065.2375819,-3333519.51769 57904.4557154,-3333288.65014 57489.9951083,-3333255.12007 57357.7849578,-3333367.99289 57427.4624204,-3333640.5837 57372.4754808,-3333639.11534 57445.0325166,-3333749.73225 57688.9345488,-3334171.80551 57482.5876602,-3334066.04884 57381.4601895,-3334169.18628 57432.2309592,-3334372.11651 57598.775002,-3334689.53165 57642.8099342,-3334773.40582 57697.608327,-3334914.371 57734.0078054,-3335102.17885 57754.983639,-3335222.35609 57668.7454819,-3335309.12025 57760.0549763,-3335507.3957 57787.7038771,-3335812.62728 58108.7208331,-3336132.85841 58303.1488624,-3336317.01278 58297.040223,-3336652.45605 58322.0395321,-3337327.15916 57845.0759775,-3337529.09092 57883.0229119,-3337593.91328 57793.235474,-3337745.14558 57874.9169564,-3338398.33067 58055.9018604,-3338634.3692 58359.503055,-3339032.45013 58580.3798808,-3339398.32651 59087.4248407,-3339773.14275 59332.4917014,-3339852.73096 59560.9899469,-3339735.18156 60229.3656338,-3339748.3812 60734.3981647,-3339567.69156 61434.6908629,-3339590.66444 62086.5833204,-3339953.71988 63886.8423727,-3340359.57545 64153.5739579,-3340419.85109 64589.3335971,-3340681.56668 64948.4704488,-3340840.63005 65414.6638733,-3340758.61117 65705.8893357,-3341083.09289 66538.6768557,-3341809.19335 66790.3822536,-3341960.34069 67937.3251439,-3342082.13534 68804.0276258,-3342115.53905 69028.9910469,-3342119.46103 69594.75252,-3342351.292 79282.8580167,-3346620.10022 84077.3801234,-3348740.13618 89577.6887771,-3351172.75232 97502.2868608,-3359298.09406 102340.196714,-3364269.51147 103877.028017,-3364632.70611 105331.232528,-3366465.14457 106407.713778,-3367742.85358 109862.247045,-3371184.92468 114790.076742,-3376094.59478 115144.770778,-3376448.12938 115043.482697,-3379447.62211 114880.518432,-3384271.49077 120024.621364,-3384316.71469 122814.209641,-3390220.88156 123673.031338,-3392039.16159 123828.566564,-3397386.68985 123958.809508,-3398754.22888 123970.497011,-3398877.82204 124171.349865,-3400988.9232 123973.421904,-3402553.63077 127406.386183,-3415901.80023 135823.325258,-3444897.7599 135884.819744,-3445102.7755 135885.78971,-3445106.28362 127753.241285,-3445125.73323 115665.053098,-3445930.20648 113967.846285,-3446515.14504 86698.726568,-3455865.86254 86693.4598522,-3455867.81721 84878.9129677,-3456400.20069 56626.7311701,-3464687.40132 55149.4112666,-3465133.1139 53794.8631578,-3465864.87741 53021.0165445,-3466282.67059 52949.364731,-3466647.04165 49700.5450774,-3483188.19431 48981.5335813,-3485723.46305 48958.0601513,-3485806.75975 45552.3990816,-3482025.18103 44082.6891237,-3480496.42661 42531.1500435,-3479927.45389 37604.0435042,-3445534.26395 14599.9016066,-3443539.7453 13161.0121177,-3443401.78594 12585.8101448,-3443346.30494 10500.7894411,-3443146.74769 10451.8381003,-3443141.82375 2134.60331281,-3442343.76735 2099.13167305,-3442283.46798 1856.68136956,-3441878.42114 997.456161647,-3441169.56634 316.886272364,-3440785.71658 -4050.34679224,-3437604.81609 -4363.14057116,-3436693.25013 -4365.13107754,-3435798.37807 -4788.26425831,-3434898.85718 -4846.87105552,-3433931.50878 -4629.58357968,-3433028.54077 -4730.66245841,-3432375.77351 -5009.50655796,-3431641.48112 -4987.73466959,-3430656.8349 -5179.90083505,-3430333.22588 -5509.5708682,-3429839.45591 -5735.14176205,-3429216.60986 -5945.53029827,-3428687.87993 -6089.0050548,-3428167.72816 -6098.72405255,-3427470.76458 -6206.06701476,-3426789.95425 -6334.84731518,-3426188.94528 -6384.88691472,-3425847.57225 -6579.69975572,-3425453.95694 -6542.9541155,-3424846.38133 -6737.044388,-3424050.84413 -6714.17494269,-3423342.16712 -6778.29853463,-3422402.77984 -6759.77538791,-3421328.63099 -6482.65269881,-3420700.63542 -6229.12616697,-3420286.89743 -5840.19616909,-3420084.29031 -5705.09656475,-3419577.54568 -5768.48251446,-3419102.08264 -5763.38683614,-3418743.19005 -5627.85849374,-3418331.43206 -5481.34177052,-3417862.77867 -5459.87183982,-3417402.04519 -4982.3614477,-3416811.26699 -4930.92617725,-3416324.79592 -4915.55972701,-3416020.98178 -4662.36534427,-3415587.24042 -4301.80892337,-3415486.36575 -4128.30199452,-3415046.93768 -3930.37911035,-3414616.71806 -3725.74275762,-3414190.55521 -3800.71216443,-3413492.03062 -4010.87274161,-3412847.33276 -4040.51853928,-3412226.18592 -4129.92364613,-3411810.48882 -4022.12947392,-3411309.50449 -3882.81537231,-3410979.76134 -3251.85045748,-3411029.18385 -3386.68599719,-3410577.10165 -3582.68748767,-3410145.48986 -3794.25426733,-3409721.74322 -3925.32474884,-3409267.6949 -4067.6772701,-3408817.54918 -4272.72094861,-3408390.86046 -4467.97441241,-3407959.25726 -4663.49535338,-3407529.65185 -4899.66974441,-3407118.69403 -5171.29174658,-3406731.42773 -5494.00766439,-3406385.21538 -5849.2704171,-3406074.21749 -6230.2757151,-3405791.99369 -6630.79220577,-3405540.59711 -7037.88407168,-3405298.1429 -7438.15867912,-3405047.74923 -7832.04722533,-3404781.4139 -8189.58421958,-3404473.39921 -8499.18699589,-3404113.80654 -8743.68760433,-3403711.78166 -8959.26573261,-3403289.00962 -9194.17498167,-3402876.07019 -9432.86787461,-3402467.09802 -9593.79832645,-3402025.80015 -9696.29726796,-3401562.00853 -9843.13799829,-3401109.83436 -9975.98292352,-3400657.78062 -10011.9410297,-3400187.56202 -10015.3654499,-3399712.62351 -10003.8030117,-3399238.81334 -9816.37211626,-3398805.50379 -9688.50441234,-3398351.6869 -9578.61531197,-3397895.71594 -9338.40529219,-3397486.85307 -9178.10745985,-3397040.31174 -8974.43991023,-3396637.13358 -8965.79648865,-3396620.21085 -8902.96454763,-3396521.76792 -8737.59584175,-3396825.12835 -8379.3632528,-3397315.10752 -8043.00669547,-3397761.90804 -7490.09489985,-3398197.56847 -7349.92762737,-3398495.71553 -7100.09284294,-3398742.8128 -6968.09618378,-3398944.40797 -6653.69269094,-3399269.5454 -6221.97806733,-3399410.22326 -5766.70896744,-3399544.10474 -5300.55729462,-3399808.0566 -4830.97839584,-3399789.08886 -4364.63608349,-3399448.15023 -3909.60896273,-3399319.07654 -3555.78734826,-3399128.64512 -3165.36564843,-3398867.5396 -2750.96940392,-3398550.64884 -2582.11423883,-3398272.64497 -1958.28868164,-3397814.07328 -1447.08156507,-3397721.47262 -1096.18045588,-3397434.52993 -755.863865428,-3397215.98454 -398.275501085,-3396907.10195 -109.222095283,-3396516.14496 442.791375857,-3396153.93657 774.293842103,-3396059.79343 1191.00380062,-3396114.85616 1616.93437803,-3395881.54475 1568.38927802,-3395537.68437 1567.21667186,-3395528.67578 1833.37056868,-3395301.49338 1921.6032196,-3395039.29172 2060.87165783,-3394626.05149 2155.51521928,-3394344.90749 2152.53304822,-3394342.88226 2172.58245324,-3394307.55969 2180.76898944,-3394285.63334 2183.7725706,-3394285.15915 2211.03761594,-3394282.8931 2248.19328037,-3394293.20977 2249.93002606,-3394294.72441 2453.08024935,-3394127.49154 3039.12388578,-3393644.58855 3305.1589957,-3393372.91017 3392.63387266,-3393286.67298 3503.28183999,-3393004.66497 3561.76534806,-3392655.22063 3493.82731488,-3392269.69929 3511.82287572,-3391831.92198 3591.0949461,-3391360.6744 3523.33674242,-3390837.17622 3678.80761045,-3389990.63893 3708.71832798,-3389386.98882 3697.9388356,-3388776.9914 3709.95771148,-3387956.22157 3947.41206634,-3386612.45977 4113.19122898,-3386108.95446 4490.92626707,-3385431.28695 4734.5204723,-3385006.43348 4735.53733441,-3385004.44247 4834.8567413,-3384906.80608 4993.63280841,-3384754.68599 5690.74066014,-3384144.73458 6290.47058488,-3383434.46409 6693.59298942,-3383325.42423 7280.38154273,-3382930.49484 7565.32684471,-3382697.96267 7865.20498468,-3382473.05669 8050.86877172,-3382275.17096 8358.5191511,-3382076.8271 8487.57216783,-3382009.9389 8540.5254396,-3381838.91543 8591.49189808,-3381666.37514 8604.52527905,-3381369.52839 8615.46221294,-3381259.6373 8667.15886347,-3381060.10691 8779.26944115,-3380811.0993 8842.8999243,-3380677.66137 8912.3145815,-3380452.28566 8973.49674311,-3380312.82756 9064.16041522,-3380233.61272 9175.07590065,-3380124.5749 9296.2453197,-3379985.62874 9363.79014653,-3379920.71441 9377.67923385,-3379816.34747 9388.78655013,-3379686.4603 9440.22672804,-3379516.92291 9582.33054071,-3379268.17032 9681.30961406,-3378917.56347 9738.10106986,-3378589.59325 9759.88850196,-3378379.80796 9859.99305883,-3377897.22824 9926.16765109,-3377641.32782 9967.7799352,-3377451.70869 9928.98239104,-3377311.39675 9840.19524093,-3377170.65838 9783.8287674,-3377038.69545 9782.25461698,-3376930.19679 9803.18853655,-3376820.39032 9920.00931855,-3376399.94394 9998.77703585,-3376162.148 10080.6362584,-3375942.87582 10119.0621005,-3375833.71827 10112.2500009,-3375753.17101 10052.8592517,-3375682.67398 10019.9672591,-3375611.90299 10064.6475392,-3375472.80278 10075.4979876,-3375372.90875 9996.79329778,-3375222.25783 9930.41121596,-3375092.20926 9949.44621009,-3374911.89584 10050.7893399,-3374752.78134 10172.8954377,-3374503.8558 10321.9719805,-3374140.67526 10398.4751241,-3373845.86665 10449.9519327,-3373671.82857 10570.6559415,-3373587.36869 10842.6459042,-3373349.71856 10933.9057353,-3373200.51605 10984.6624434,-3373110.96044 11034.0997992,-3372970.90015 11037.1232603,-3372821.44546 11030.6184581,-3372411.44353 11037.875365,-3372322.51697 11038.430639,-3372316.02255 11149.8410964,-3372207.48611 11154.8571221,-3372205.52912 11403.1845459,-3372104.65843 11553.8358159,-3372025.95243 11674.4931742,-3371946.99083 11744.0301276,-3371853.59541 11756.6067842,-3371697.72259 11757.9697236,-3371537.75472 12493.0148329,-3371140.06855 12988.6281703,-3371148.79053 13279.6554083,-3370965.29331 13388.2304117,-3370896.22706 13792.2895398,-3370648.7006 14190.4098302,-3370394.12407 14583.8750888,-3370128.50887 14957.5404411,-3369839.7274 15279.4515691,-3369493.51145 15590.9585325,-3369136.20772 15900.9744202,-3368777.89093 16164.2718095,-3368387.17949 16383.0830747,-3367966.09218 16593.9212822,-3367541.93683 16797.0363629,-3367114.7156 16992.928202,-3366684.43273 17181.3553376,-3366250.0863 17363.3005395,-3365813.68445 17543.0130104,-3365375.26336 17713.5025337,-3364933.76365 17836.8610989,-3364478.86379 17852.7816062,-3364370.51119 17870.5623904,-3364249.17583 17920.8201577,-3364012.62944 18001.9189433,-3363676.85623 18032.2313658,-3363551.6278 18190.9976129,-3363107.02694 18407.8160769,-3362684.91719 18427.8697395,-3362619.5948 18545.8867276,-3362234.14 18653.556123,-3361772.10495 18767.1986517,-3361313.11999 18894.3130112,-3360857.24889 19027.40906,-3360403.42803 19160.2634168,-3359948.60479 19335.7325715,-3359509.14193 19564.4627901,-3359097.12869 19894.8388505,-3358754.97221 20215.0178977,-3358406.72919 19768.4533445,-3337639.738 19768.2625995,-3337632.73689 19840.9461249,-3337255.87895 19895.012452,-3337099.84753 19965.6529753,-3336964.4548" style="stroke-linejoin:round;stroke:#000;stroke-width:1px;fill:none" /></g></g></svg>