<svg xmlns="http://www.w3.org/2000/svg" baseProfile="full" height="63404.1338597" version="1.1" viewBox="-14061.084889,3299574.776009,34785.632266,63404.133860" width="34785.6322657"><defs><style type="text/css">polyline,line,rect,path,polygon,.polygon{fill:none;stroke:#000;stroke-width:1px;stroke-linejoin:round;}</style></defs><g fill_rule="evenodd" transform="scale(1,-1)"><g class="id" id="46021"><polygon class="_46021" id="None" points="-14035.8093743,-3326760.37226 -14030.2810343,-3326756.91928 -12479.7878299,-3325813.1008 -11408.1830215,-3325012.22533 -10705.5127527,-3323585.31865 -10492.3689303,-3323297.64782 -10491.3565093,-3323296.15652 -10477.1994374,-3323277.27797 -10330.1560545,-3323210.52336 -10278.1511913,-3323179.46472 -10214.5896848,-3323141.50416 -10155.0376563,-3323075.01337 -10077.3031475,-3322867.69286 -10051.5511401,-3322777.92054 -9980.21923043,-3322618.54016 -9959.34017553,-3322513.72865 -9938.92361336,-3322463.9065 -9893.76414155,-3322444.28875 -9833.67252776,-3322402.79926 -9747.53088357,-3322295.53691 -9676.7035726,-3322196.14474 -9545.50946919,-3322052.26565 -9459.92273222,-3322010.99046 -9380.12077581,-3322003.66249 -9315.25934835,-3322019.2061 -9214.97424277,-3322073.04301 -9091.18520309,-3322126.07773 -8805.94527063,-3322093.48063 -8690.42063303,-3322029.45988 -8673.32717418,-3322018.105 -8583.3312996,-3321957.86905 -8530.13082817,-3321873.82647 -8503.90649538,-3321817.05375 -8478.10641091,-3321751.27853 -8389.12628348,-3321514.55486 -8233.82249601,-3321238.39339 -8109.47756961,-3321046.96144 -8053.5929679,-3321000.43677 -8028.82020658,-3320967.6489 -7890.9844291,-3320866.31963 -7706.3631658,-3320730.38765 -7652.42571255,-3320707.34378 -7493.74924775,-3320624.68736 -7314.17328396,-3320553.70523 -7282.02350053,-3320416.49133 -7139.67124061,-3320075.2272 -7133.0422002,-3320059.7847 -7006.03188742,-3319759.38667 -6930.65924458,-3319654.53213 -6879.45022375,-3319509.97901 -6842.60839432,-3319290.31366 -6863.39906164,-3318968.17564 -6891.28706934,-3318806.45973 -6905.10822164,-3318725.85278 -6925.4518576,-3318439.71446 -6904.78364775,-3318359.89718 -6820.36459601,-3318279.11558 -6682.72454731,-3318111.79083 -6566.62255523,-3317949.28449 -6484.94709216,-3317778.48981 -6464.15302434,-3317683.67514 -6457.72812427,-3317603.23815 -6487.76297644,-3317518.49542 -6557.07844363,-3317437.92231 -6616.22782934,-3317337.43686 -6610.09529759,-3317202.50358 -6567.15237737,-3317059.88028 -6471.13229596,-3316728.72383 -6434.9634714,-3316589.0432 -6440.82899691,-3316454.00908 -6442.97366304,-3316441.49248 -6462.7755853,-3316328.83885 -6635.86880786,-3315984.92424 -6920.35142563,-3315450.5964 -7014.02921391,-3315294.3278 -7023.35613282,-3315214.25858 -7040.11667941,-3314947.64807 -7020.16794123,-3314834.32829 -6967.52976415,-3314727.78206 -6946.93112722,-3314685.95963 -6883.05342177,-3314580.50754 -6801.89362215,-3314441.20423 -6690.06826484,-3314222.16709 -6655.97714253,-3314121.46439 -6587.15080349,-3313873.06958 -6586.44552755,-3313699.59484 -6507.80085362,-3313383.28978 -6441.72506175,-3313224.36168 -6310.57462951,-3313085.47713 -6140.10221069,-3313026.91346 -6083.035418,-3312988.39635 -5999.3182646,-3312931.60476 -5973.42615904,-3312914.32383 -5731.13725347,-3312697.87959 -5608.51190523,-3312591.91955 -5542.79146761,-3312534.9769 -5509.30426205,-3312506.26086 -5394.49144326,-3312348.2408 -5346.16681155,-3312189.66314 -5341.98795887,-3312019.21652 -5341.6080668,-3312003.72138 -5329.598001,-3311763.84787 -5298.72319303,-3311659.11799 -5275.84311791,-3311643.31153 -5228.31651089,-3311609.71361 -5162.86702367,-3311555.26819 -5147.49249618,-3311510.40189 -5185.5761763,-3311401.59423 -5240.75744897,-3311304.64197 -5246.53009254,-3311277.59647 -5260.22860481,-3311211.98865 -5216.44093544,-3310878.89132 -5214.43001393,-3310817.91469 -5212.76542634,-3310768.43392 -5219.47233268,-3310763.37824 -5284.5333696,-3310711.83839 -5383.60094902,-3310661.51339 -5447.09797582,-3310572.49071 -5431.27523912,-3310384.64345 -5415.46515619,-3310198.2959 -5415.79471824,-3310118.30169 -5387.6657897,-3309834.06777 -5380.52228216,-3309488.66445 -5294.5027953,-3309365.89825 -5021.19239787,-3309176.20826 -4906.81895993,-3309040.68077 -4845.90815309,-3308931.20257 -4813.81961239,-3308681.49756 -4787.34004014,-3308564.23164 -4610.36782912,-3308296.74196 -4584.12406161,-3308237.46794 -4525.27458561,-3308105.47456 -4451.30311266,-3307779.62782 -4317.57964027,-3307452.78139 -4292.73702784,-3307322.00285 -4232.73532818,-3306694.06955 -4302.03857286,-3305984.56176 -4278.45959111,-3305646.29355 -4267.03886445,-3305476.40639 -4170.63694838,-3305307.73029 -4128.17874279,-3305222.59423 -3996.38750527,-3305066.71286 -3906.63401221,-3305005.47011 -3579.79849323,-3304782.22744 -3489.54081983,-3304720.48884 -3103.68245947,-3304523.73703 -2738.56808326,-3304386.30558 -2403.03430106,-3304199.13121 -2081.28561807,-3304016.34083 -2044.58571762,-3303962.15305 -1963.62023966,-3303845.84151 -1939.37967263,-3303757.05273 -1934.08774456,-3303722.10032 -1920.8415557,-3303513.23088 -1946.1737186,-3303344.03494 -1857.33882968,-3303093.80164 -1830.79951443,-3303029.02972 -1817.03229036,-3302937.15351 -1747.6254586,-3302469.27781 -1644.79562041,-3302010.1805 -1644.53312066,-3302008.68283 -1716.9920327,-3301855.09117 -1795.19088794,-3301670.45445 -1851.49452857,-3301527.99692 -1883.56213022,-3301446.73636 -1965.41706406,-3301191.07578 -1967.92377482,-3300982.5742 -1848.77797201,-3300545.11066 -1793.79704211,-3300277.59485 -1718.55281605,-3300008.24843 -1635.00156866,-3299731.97192 -1587.44316637,-3299574.88365 13463.2846052,-3304849.92958 19654.1932198,-3315752.75974 20056.5028135,-3316040.6255 20033.446334,-3316582.90322 20031.5977615,-3316624.3855 20024.4977785,-3316636.32519 20021.3468788,-3316654.29776 19951.3048951,-3316778.70245 19915.3427362,-3316893.39409 19849.4262923,-3317002.8342 19763.6383876,-3317097.10804 19713.1403077,-3317156.68036 19671.5170616,-3317260.82489 19682.7865182,-3317317.91657 19696.2090294,-3317386.52573 19725.6589629,-3317451.76981 19759.8561038,-3317547.05221 19828.5865678,-3317697.62199 19887.2761999,-3317853.10712 19966.1314371,-3317988.76289 20028.2347718,-3318065.28098 20029.967742,-3318067.29544 20034.4209487,-3318072.83259 20064.6058651,-3318169.58126 20048.8511024,-3318259.44401 19971.3382256,-3318558.77628 19886.9816213,-3318839.55188 19877.7220905,-3318870.47235 19876.241023,-3318897.95842 19873.0289147,-3318952.92846 19902.3104765,-3319038.17014 19916.8881884,-3319088.29005 20069.4055522,-3319323.06019 20188.364339,-3319505.55099 20202.9485277,-3319525.17261 20336.7058952,-3319701.78828 20374.5577775,-3319778.60259 20374.7759808,-3319812.10266 20395.4743608,-3319907.27173 20346.9691363,-3319997.35894 20345.4314752,-3320001.84576 20276.752098,-3320112.76214 20228.0137069,-3320200.84746 20180.2097431,-3320326.43861 20165.8763601,-3320455.31114 20184.6542315,-3320600.46135 20218.9769593,-3320680.74581 20311.7780719,-3320941.51266 20388.9187592,-3321043.15629 20465.0763834,-3321142.79178 20498.2164933,-3321215.06679 20513.7710504,-3321238.19645 20517.8985389,-3321252.73041 20528.9746836,-3321273.32251 20529.2979516,-3321294.32412 20531.0909529,-3321378.33476 20517.5877761,-3321438.21796 20501.5747111,-3321469.58155 20496.5080246,-3321477.53849 20495.4955286,-3321479.02989 20442.0502094,-3321502.57891 20355.4281048,-3321547.34762 20346.1413932,-3321551.76924 20220.5259261,-3321625.70824 20199.3897174,-3321642.0295 20185.8198834,-3321650.41486 20181.2741694,-3321655.87632 20124.9067431,-3321699.89962 20042.911412,-3321818.7032 20038.6900144,-3321934.16144 20017.6011348,-3322033.97856 20046.3773117,-3322179.21288 20115.4825715,-3322314.78715 20272.0569881,-3322691.0847 20364.2679417,-3323021.84311 20396.906992,-3323302.10283 20405.727394,-3323442.16957 20410.8056035,-3323789.19371 20549.0596677,-3324559.81648 20653.4042604,-3324904.17675 20678.8310946,-3325179.87618 20632.6197512,-3325561.46659 20632.1803091,-3325583.96169 20629.3170417,-3325923.91938 20499.4773226,-3327092.7628 20438.4969494,-3327595.22189 20421.6143296,-3327700.07396 20350.6486871,-3328141.45204 20287.9809617,-3328280.41636 20238.5559422,-3328390.49383 20077.5126839,-3328752.61675 19965.9730708,-3328965.66492 19895.3356835,-3329101.06206 19841.2733834,-3329257.09774 19768.6004629,-3329633.96428 19768.7914303,-3329640.9655 20216.0293156,-3350408.63914 19895.8452517,-3350756.90986 19565.4631105,-3351099.09408 19336.7338469,-3351511.13558 19161.2689751,-3351950.62671 19028.4213864,-3352405.478 18895.3318713,-3352859.32717 18768.224242,-3353315.22681 18654.589098,-3353774.24038 18546.927347,-3354236.30436 18428.9150171,-3354621.78437 18408.8621266,-3354687.11105 18192.0435376,-3355109.25122 18033.280895,-3355553.88235 18002.9702885,-3355679.11895 17921.8763234,-3356014.91418 17871.6223079,-3356251.47597 17853.8439094,-3356372.81904 17837.9255242,-3356481.17855 17714.5723963,-3356936.1092 17544.0848791,-3357377.6405 17364.3735208,-3357816.0935 17182.4289872,-3358252.52745 16994.001803,-3358686.90628 16798.1090705,-3359117.22173 16594.9922822,-3359544.47578 16384.1515084,-3359968.66416 16165.336789,-3360389.78472 15902.0319256,-3360780.52873 15592.0042991,-3361138.8772 15280.4851186,-3361496.21264 14958.5604468,-3361842.45982 14584.8763084,-3362131.26982 14191.3900302,-3362396.91231 13793.2478226,-3362651.51533 13389.1658898,-3362899.06776 13280.5847583,-3362968.14113 13241.5231569,-3362916.81195 12943.4131163,-3362549.29867 12687.8195981,-3362150.14898 12384.6678233,-3361787.59356 12030.3479931,-3361474.60095 11637.8586017,-3361211.28151 11246.9118219,-3360942.97584 10856.7067765,-3360675.6768 10456.8759229,-3360423.29542 10047.4108076,-3360186.83153 9668.33269037,-3359904.62909 9258.12689539,-3359667.15968 8854.24705603,-3359420.74495 8460.25210726,-3359158.41563 8071.57469613,-3358888.13242 7693.00658481,-3358604.93639 7329.61494755,-3358300.87118 6994.96569682,-3357968.05262 6695.10877802,-3357600.53256 6402.03488203,-3357229.07093 6110.46928264,-3356856.62269 5828.4617233,-3356477.25666 5580.6613103,-3356073.18347 5355.20932002,-3355657.30143 5211.29201206,-3355207.11466 5100.95418511,-3354747.21406 4997.88184043,-3354285.37563 4876.27795738,-3353827.37998 4834.02193017,-3353357.05891 4815.78721826,-3352883.94206 3485.11165742,-3344598.35989 -4495.37075715,-3340374.24673 -13667.5352236,-3327285.90395 -14035.8093743,-3326760.37226" style="stroke-linejoin:round;stroke:#000;stroke-width:1px;fill:none" /></g></g></svg>