<svg xmlns="http://www.w3.org/2000/svg" baseProfile="full" height="78798.4800484" version="1.1" viewBox="11327.604054,3263576.687517,69440.990193,78798.480048" width="69440.990193"><defs><style type="text/css">polyline,line,rect,path,polygon,.polygon{fill:none;stroke:#000;stroke-width:1px;stroke-linejoin:round;}</style></defs><g fill_rule="evenodd" transform="scale(1,-1)"><g class="hogares departamen mujeres departam_1 toponimo_i tot_pob varones viv_part viv_part_h" id="46049"><polygon class="_46049" id="None" points="54212.8752534,-3269463.71055 54206.5318662,-3269574.59183 54153.337875,-3270082.64634 54085.2658696,-3270598.45204 54011.8952009,-3271117.16882 53940.5394963,-3271634.91879 53877.7460593,-3272148.81129 53832.6111023,-3272652.99846 53812.4482914,-3273143.60263 53826.0374388,-3273618.77031 53880.7421646,-3274071.62513 53983.3431448,-3274500.28042 54143.6698166,-3274899.90066 54370.0522874,-3275265.62538 54654.9438707,-3275600.32878 56051.8949556,-3276658.96941 59030.4120142,-3278528.38626 62014.7738726,-3280047.97549 66047.3518634,-3281655.0731 70564.2240872,-3283169.80572 70553.6982963,-3284250.05147 70411.5114454,-3284786.13909 70328.0063331,-3285191.21538 70365.2039478,-3285763.29395 70448.8978169,-3286140.66324 70657.5960108,-3286562.11654 70681.0961997,-3286846.48804 70794.0122851,-3287210.34681 70927.4560429,-3287512.5531 71183.9049808,-3287858.81067 71424.9587854,-3288213.81102 71647.6184482,-3288577.50403 71852.8835596,-3288949.90635 72037.2385857,-3289331.95912 72199.9337258,-3289723.64978 72342.9849253,-3290124.01199 72465.8756056,-3290534.03699 72571.4048688,-3290950.77169 72659.2726519,-3291377.21081 72729.529027,-3291810.35534 72785.17292,-3292250.25531 72825.6877663,-3292697.90199 72853.3561719,-3293151.3336 72866.9118364,-3293611.52885 72869.1372034,-3294076.53435 72858.7659757,-3294547.3288 72840.3132826,-3295022.98771 72811.0300631,-3295503.4651 72773.6820618,-3295987.80722 72729.5188298,-3296476.03495 72678.7902658,-3296968.15244 72621.2631661,-3297463.15583 72559.9531981,-3297960.09561 72494.8436284,-3298459.97141 72426.2010855,-3298961.78775 72355.7916784,-3299464.57425 72284.098497,-3299969.33891 72213.1375628,-3300475.11554 72141.4428631,-3300979.87975 72071.729966,-3301485.67686 72005.2651621,-3301991.52815 71941.8152741,-3302496.42981 71883.3963405,-3302999.41569 71828.9919771,-3303501.46872 71781.8677849,-3304001.64369 71741.5239453,-3304499.93226 71709.2267704,-3304995.35576 71686.2425788,-3305486.9355 71672.7878012,-3305976.67503 71669.6624332,-3306461.58799 71678.5991302,-3306942.70341 71699.6146659,-3307419.02169 71734.6916081,-3307891.57604 71782.6139336,-3308358.34629 71837.7830629,-3308825.2382 71900.4656733,-3309291.25635 71969.1790624,-3309755.376 72045.3891957,-3310219.62159 72128.0964315,-3310683.97641 72214.8351815,-3311146.39927 72308.071054,-3311608.93141 72406.5712617,-3312070.55224 72508.8195706,-3312532.23628 72616.082322,-3312993.00487 72727.3598759,-3313452.84125 72840.6361653,-3313912.71155 72957.6605878,-3314372.64513 73057.5161184,-3314753.29611 73078.4499262,-3314831.64235 73160.0364345,-3315138.99177 73200.7381932,-3315290.66514 73324.5253928,-3315749.7135 73451.3277918,-3316207.81297 73578.1296525,-3316665.91285 73705.4140229,-3317125.0212 73835.2137826,-3317583.17229 73963.5135271,-3318041.29863 74091.5628282,-3318499.42121 74219.111773,-3318957.53583 74344.8939997,-3319416.62116 74470.1926585,-3319874.69887 74524.3317859,-3320074.59663 74594.4743412,-3320333.75988 74716.0064304,-3320792.77514 74834.2722986,-3321252.73591 74950.5551066,-3321711.66385 75144.0311212,-3322515.87035 75408.2463964,-3324049.22809 75653.0122433,-3324538.31671 75884.6058051,-3324978.18721 76180.5024501,-3325593.13074 76527.1484669,-3326207.92884 77000.2231417,-3326796.85557 77320.3681564,-3327248.21841 77716.4109323,-3327660.86029 78125.2310933,-3328086.71747 78483.3010709,-3328512.72204 79159.8180534,-3329164.07519 79772.4107165,-3329677.36052 80311.0566029,-3330217.40261 77967.7311839,-3334816.79649 77803.274188,-3335260.01053 77640.2992636,-3335704.24923 77475.3243646,-3336148.45398 77305.9008066,-3336589.58365 77108.903955,-3337020.24896 76915.65532,-3337450.97707 76800.9427749,-3337909.02697 76713.8358857,-3338375.54157 76643.9559188,-3338843.34638 76585.0548874,-3339312.33619 76510.6749972,-3339780.06523 76426.5812458,-3340245.63063 76355.6988568,-3340713.41863 76308.0246257,-3341183.59782 76270.8126443,-3341655.95342 76226.8689931,-3342127.19568 76208.7306042,-3342268.88482 48180.4614264,-3342164.88167 48161.210912,-3342165.05648 47535.8341514,-3342162.49318 19432.7828711,-3342114.85371 15578.6053195,-3342108.12341 15600.7017417,-3342043.01418 15772.3884823,-3341601.0337 15861.0477884,-3341309.60902 15909.7452366,-3341149.47424 16010.5738723,-3340685.29961 16065.4940966,-3340216.34932 16067.855965,-3340061.92899 16072.9898239,-3339743.59778 16067.7583922,-3339269.63149 16081.7486006,-3338796.99019 16103.9833199,-3338324.48845 16145.4396563,-3337853.31149 16212.3304145,-3337385.56368 16292.4460604,-3336919.03904 16372.0609793,-3336452.50583 16452.1746278,-3335985.98092 16503.4530942,-3335702.42111 16536.2682161,-3335520.52286 16629.8556364,-3335055.22502 16664.7578423,-3334586.9364 16620.0031953,-3334114.30349 16601.4832734,-3333642.11394 16599.7201059,-3333169.20782 16599.7218698,-3332695.33196 16593.7090597,-3332222.35453 16585.4465017,-3331749.33935 16580.9309108,-3331276.38762 16587.6581708,-3330803.62579 16620.3533216,-3330332.30194 16672.2869167,-3329861.30264 16734.6800386,-3329392.47919 16803.0688766,-3328923.75676 16851.4845468,-3328453.69771 16884.1747165,-3327982.37377 16931.2695919,-3327264.35814 16393.8428305,-3325859.67313 13199.1159068,-3317507.20676 12136.8676328,-3314730.15432 11831.3504217,-3313933.25476 12845.3635631,-3304067.68339 13266.7807799,-3302065.83147 13234.0622776,-3301139.05476 13395.1078398,-3300969.30125 13457.9518509,-3300902.87299 13500.9404289,-3300723.64511 13451.119093,-3300489.87912 13445.324343,-3300462.79001 13513.5545056,-3299955.08048 13536.987596,-3299764.52833 13577.1883096,-3299662.2311 13599.6293532,-3299605.62324 13721.9022907,-3299467.71011 13785.212826,-3299268.82762 13809.214898,-3299029.29892 13780.7839215,-3298726.91094 13758.2784847,-3298488.60358 13703.6628291,-3298167.78296 13646.3719525,-3298006.87118 13670.7069844,-3297747.3539 13835.6305098,-3297450.1995 14101.4997123,-3297094.75017 14183.6737728,-3296873.68863 14265.9811034,-3296495.17456 14215.1465848,-3296276.88735 14281.7961675,-3295878.11701 14369.7702235,-3295399.72592 14482.4117691,-3294761.29285 14647.6630019,-3294324.68061 14833.2394811,-3293987.8789 14994.81915,-3293890.6073 15084.3553414,-3293812.12612 15218.0349997,-3293694.3938 15327.9829126,-3293456.29886 15348.3198267,-3293076.74631 15295.6993574,-3292635.99205 15122.4778771,-3292233.21239 15074.6582538,-3292133.44189 15006.5514555,-3291991.34459 14947.497402,-3291606.4678 14959.2691734,-3291230.77151 15065.2201249,-3290872.64296 15128.8571938,-3290653.76791 15231.1368383,-3290515.51512 15359.2417424,-3290447.17365 15412.7041745,-3290418.57447 15533.6379019,-3290360.61022 15555.9623998,-3290221.02238 15525.6247719,-3290077.05646 15380.7345124,-3289938.17656 15207.1549618,-3289676.35272 15166.1960868,-3289614.68642 14951.1806415,-3288990.27459 14960.996914,-3288731.51207 15004.9766502,-3288492.31414 15042.0986661,-3288424.45297 15211.2006441,-3288115.8626 15211.5048303,-3287842.94499 15137.247861,-3287754.7309 14585.5650798,-3287265.66522 14262.3104121,-3286881.88232 14141.979954,-3286738.91608 13782.6961722,-3286252.5634 13649.7744784,-3285830.46869 13648.6334975,-3285823.95155 13595.1404721,-3285509.65057 13497.5298234,-3285368.06393 13381.596485,-3285126.20105 13304.6406483,-3284944.97064 13156.6833944,-3284810.04307 13097.9169373,-3284737.08458 13068.7752332,-3284701.10923 13031.4631957,-3284540.53408 13094.7603368,-3284341.64738 13104.937844,-3284315.82458 13220.0218013,-3284023.8281 13283.6516367,-3283804.95242 13209.3591236,-3283463.8134 13175.7093756,-3283083.36334 13162.0476043,-3282703.2463 13139.8306546,-3282221.51629 13106.9139345,-3279965.62355 13378.5521103,-3275009.57318 13198.88416,-3274571.7114 13020.7311575,-3274132.87572 12871.710442,-3273685.52734 12771.9268797,-3273223.00218 12714.3352895,-3272763.17767 12639.4194448,-3272308.06407 12514.2809943,-3271852.11651 12567.5168946,-3271415.62683 12289.7698938,-3270938.65101 12018.1561957,-3270528.7587 11710.7501137,-3270061.78963 11676.0713284,-3269591.35081 11420.833753,-3269007.78362 11403.594603,-3268450.16015 11399.8226558,-3267909.25518 11505.6165155,-3267422.65221 11743.1499909,-3266813.76959 11830.4120431,-3266344.35262 11989.1336116,-3265785.64597 12330.2762908,-3265318.93722 12520.7141661,-3264882.21945 12810.6857224,-3264517.13088 13054.3293743,-3264112.2844 13313.0983378,-3263714.68566 13408.8240359,-3263578.81042 14064.0178317,-3263737.12792 14162.6611036,-3263802.24529 14190.8403718,-3263836.2031 14326.8760849,-3263952.42644 14537.5765419,-3264132.87025 14825.5289745,-3264251.61218 15058.0491397,-3264412.42387 15190.3144379,-3264650.55242 15245.2774734,-3264953.38166 14996.6059065,-3265344.65084 14942.2931674,-3265530.19929 14875.2796197,-3265923.97991 14940.8082081,-3266102.01819 14942.2174451,-3266122.53595 14967.2316525,-3266467.85634 14962.2665361,-3266767.1919 14898.3276184,-3266990.56966 14905.6529077,-3267046.17594 14961.4736664,-3267282.03745 14974.7872924,-3267338.24295 15077.0512711,-3267606.86634 15257.8193746,-3267843.80158 15447.3988493,-3268076.88449 15635.5287527,-3268306.94455 15822.3926071,-3268537.9837 15980.5230554,-3268783.54225 16083.4686683,-3269056.17754 16152.6170154,-3269347.24686 16229.8601642,-3269632.45231 16306.6032187,-3269917.6496 16388.3597727,-3270201.93055 16485.2073592,-3270480.46388 16589.5505146,-3270759.12187 16711.8162484,-3271027.08071 17026.0022064,-3270589.4174 17281.996156,-3270043.81503 17702.0217525,-3269568.91658 17775.3093869,-3269219.22583 18054.165936,-3269072.89471 18457.0538949,-3268892.63156 18861.5193294,-3269129.28628 19209.4400964,-3268978.10262 19544.9806937,-3268518.79167 20370.2451317,-3268926.89135 21177.7258586,-3268765.34052 21939.1918397,-3268861.46177 22571.2235568,-3268007.16456 25959.4270854,-3267043.64278 26223.7851942,-3266913.06104 26488.9097951,-3266781.49199 26754.0014976,-3266651.92169 27020.7762569,-3266526.3782 27288.7509186,-3266403.85372 27559.8581491,-3266288.37946 27834.8475949,-3266179.96788 28112.4864776,-3266077.59878 28388.843123,-3265977.20778 28666.7159422,-3265875.84197 28942.1732413,-3265769.43696 29214.2320822,-3265656.97664 29480.7596467,-3265531.42706 29742.2390749,-3265393.79599 30000.7865617,-3265252.11684 30261.5666322,-3265111.47427 30526.6457756,-3264982.9003 30797.8063482,-3264864.42496 31070.6666271,-3264748.97699 31346.1598047,-3264640.57108 31626.1854351,-3264545.23756 31909.4277964,-3264466.95386 32196.1036161,-3264407.72324 32488.7283085,-3264366.58768 32588.3720218,-3264356.74328 32784.4028126,-3264337.50035 33079.1787695,-3264317.39636 33374.8716904,-3264302.30663 33669.6826374,-3264295.20076 34496.1669453,-3264467.38505 36559.3852278,-3264898.05334 36856.8033097,-3264959.97967 54212.8752534,-3269463.71055" style="stroke-linejoin:round;stroke:#000;stroke-width:1px;fill:none" /></g></g></svg>