<svg xmlns="http://www.w3.org/2000/svg" baseProfile="full" height="101759.651194" version="1.1" viewBox="-31932.665403,3455702.678486,92711.771460,101759.651194" width="92711.7714605"><defs><style type="text/css">polyline,line,rect,path,polygon,.polygon{fill:none;stroke:#000;stroke-width:1px;stroke-linejoin:round;}</style></defs><g fill_rule="evenodd" transform="scale(1,-1)"><g class="id" id="46056"><polygon class="_46056" id="None" points="-31726.1787299,-3536840.00228 -26642.0598083,-3534307.68167 -25229.9759941,-3533624.34895 -23208.3722118,-3532646.47201 -23187.0296767,-3532635.66334 -18428.966931,-3530291.77001 -15279.7322821,-3528944.90023 -12061.4987523,-3527740.09458 -8032.40252273,-3526541.44387 -4534.7390373,-3525656.51994 -1108.09218398,-3524805.44269 4187.37098386,-3523900.37971 7364.49917517,-3523400.0201 11174.936462,-3522832.75206 11182.6940578,-3522831.8207 11230.9633363,-3522687.75912 11316.8893092,-3522469.03642 11362.4468355,-3522348.94885 11644.0020847,-3521604.49756 11663.071628,-3521002.2152 11663.454243,-3520336.27309 11647.4161322,-3519916.16592 11653.7753188,-3519309.27201 11672.0398311,-3518854.47078 11671.7313313,-3518804.47219 11649.8481265,-3518508.30343 11595.3590767,-3517997.86464 11588.0966101,-3517687.82626 11622.8835771,-3517145.17841 11655.5643689,-3516614.51099 11669.8240192,-3516216.66996 11675.840525,-3515789.75864 11673.3516946,-3515136.79122 11702.0485302,-3514604.08892 11738.7434782,-3514071.45716 11753.7618995,-3513814.11116 11753.7839423,-3513811.61156 11732.3776813,-3513375.9593 11631.4606212,-3512375.15363 11629.2377848,-3512060.16059 11643.1651673,-3511756.309 11611.1174761,-3510145.16273 11664.5312614,-3506350.95492 11677.599317,-3504866.19596 11701.2905933,-3502741.5846 11727.433483,-3500337.018 11739.2160045,-3498825.74909 11759.3897262,-3498122.98553 11819.1676049,-3497265.58271 11898.0152704,-3496428.34536 11942.1816738,-3495725.79182 11944.0807945,-3495167.85491 11945.229005,-3494666.90659 11947.3547557,-3494139.96895 11952.4363304,-3493447.07089 11947.5400162,-3492894.07358 11950.926606,-3492451.13981 11953.8084077,-3492065.69681 11950.0813584,-3491550.20646 11937.9865132,-3490877.15553 11944.6600047,-3490344.25763 11943.5533539,-3489786.29343 11942.5254548,-3489333.32128 11934.0843721,-3488585.30797 11941.3975396,-3487722.44182 11934.4490604,-3486946.44337 11927.7514197,-3486369.93091 11930.902617,-3485810.50324 11926.2992608,-3485194.51198 11849.2167884,-3484690.87683 11865.4830306,-3483889.58275 11881.8541126,-3482647.82374 11362.8634929,-3481480.37268 11303.0453812,-3481345.85978 11160.6088245,-3481025.63857 11250.036067,-3480747.44298 11246.3260141,-3480742.91087 11225.5698369,-3480715.23143 11051.9679723,-3480642.71816 10518.7723839,-3479812.61918 10299.0348443,-3479470.22438 10322.8612377,-3479346.9426 10365.0411917,-3479268.81774 10858.445078,-3478389.20202 11292.9902307,-3477551.06633 11638.5700974,-3476995.62979 11636.3816211,-3476988.61119 11927.0282636,-3476626.17916 12046.07148,-3476477.23086 12175.9589641,-3476031.39911 12188.7325615,-3475599.54242 12236.6627125,-3475035.00244 12267.0819266,-3474729.29042 12269.4422981,-3474258.84499 12299.4946638,-3473766.14291 12560.9724629,-3471047.11737 12842.4403418,-3468012.27791 12876.6029952,-3467219.62761 12944.6695348,-3466380.27529 13011.6209796,-3464091.50248 13088.6754319,-3460124.90918 13161.8503225,-3455709.78685 14600.8269741,-3455847.79957 37606.2609072,-3457843.78102 42530.3873001,-3492238.12232 44081.8425718,-3492807.23504 45551.3685172,-3494336.10523 48956.5382615,-3498117.94351 48197.0196571,-3500794.19894 48155.8719982,-3501265.82523 48116.4826991,-3501736.46695 48075.3345253,-3502208.09311 48032.1862983,-3502679.7016 47983.7971495,-3503150.26394 47892.1445942,-3503622.44547 47814.5167435,-3504091.75038 47851.4736383,-3504551.06387 47987.4640966,-3505006.24913 48180.0717368,-3505447.9332 48406.4221901,-3505861.91518 48683.0402477,-3506245.34062 48977.7356109,-3506619.92567 49255.8533644,-3507003.36482 49531.4624912,-3507387.78211 49792.4761651,-3507783.07089 50045.9376766,-3508184.29327 50273.0284568,-3508599.28338 50446.421947,-3509036.80036 50582.9104361,-3509491.99213 50720.1662603,-3509945.19086 50850.9137265,-3510399.3324 50969.8769322,-3510857.37022 51011.4933713,-3511042.73277 51073.3062381,-3511319.27128 51151.9349313,-3511786.95388 51159.3230447,-3511828.01808 51234.8305957,-3512252.67422 51400.6881055,-3512694.12608 51619.466458,-3513116.04477 51862.6244703,-3513523.17878 52120.3514681,-3513922.44156 52333.1565445,-3514341.30837 52475.4363771,-3514791.55333 52595.1301033,-3515251.59925 52721.0994747,-3515708.7007 52848.0773826,-3516164.81122 53011.6749889,-3516607.24492 53206.8663837,-3517038.95748 53413.6094516,-3517464.77219 53621.3611415,-3517889.59602 53832.6212215,-3518313.45103 54046.8985607,-3518735.3329 54266.9517238,-3519154.26596 54500.0653059,-3519566.31451 54716.3598683,-3519986.21489 54894.4903836,-3520424.77871 55055.8106255,-3520870.19443 55228.1738151,-3521310.7078 55405.2952766,-3521750.26336 55578.4170018,-3522189.78387 55742.4953551,-3522634.22477 55905.0737343,-3523078.65266 56062.6348196,-3523525.03649 56211.1701474,-3523974.34089 56341.4128996,-3524428.4841 56448.3370425,-3524890.42172 56560.2782286,-3525350.40381 56704.3046322,-3525800.66925 56872.1582093,-3526242.1452 57055.7955965,-3526679.76066 57249.9849225,-3527111.46952 57452.7087389,-3527539.25394 57678.5275586,-3527956.24247 57933.5114851,-3528354.48875 58219.1869132,-3528731.00624 58521.4580463,-3529096.67049 58826.2643446,-3529458.35737 59142.9079736,-3529810.14899 59450.7318589,-3530169.86294 59746.174514,-3530544.46777 59998.9001914,-3530943.69575 60136.9617967,-3531389.91186 60162.5124133,-3531554.13656 60209.781586,-3531863.5523 60289.8859314,-3532333.25724 60353.2238535,-3532804.81441 60345.6609461,-3532925.24721 60324.3632485,-3533270.55801 60230.8054678,-3533503.73144 60230.2922697,-3533505.2269 60146.7086935,-3533712.98845 59905.8679673,-3534119.8612 59646.5991282,-3534518.5712 59398.5350132,-3534922.37998 59197.0314896,-3535347.59968 59054.7757078,-3535801.34237 58905.3143937,-3536250.02147 58686.3733165,-3536668.08711 58427.1118462,-3537065.79666 58155.6894282,-3537453.39872 57863.892064,-3537826.82071 57584.5139872,-3538209.35222 57315.3318594,-3538597.97364 57055.5868959,-3538993.67828 56801.0559256,-3539393.42885 56563.443828,-3539802.32877 56364.1605235,-3540230.56722 56187.7779133,-3540670.00797 56012.1449538,-3541109.45533 55837.2528064,-3541549.90923 55665.1013094,-3541991.38735 55495.4316422,-3542434.88739 55424.3359908,-3542898.25875 55405.1387837,-3543373.089 55402.6988757,-3543847.06757 55418.5073342,-3544321.20768 55470.8481467,-3544791.67099 55566.4708593,-3545258.51723 55752.413769,-3545689.16224 56003.3582293,-3546091.38219 56262.3287215,-3546490.67338 56506.7473484,-3546895.83623 56755.4334462,-3547299.0371 57021.7421685,-3547688.394 57321.7519852,-3548055.04902 57620.2620935,-3548421.69104 57880.7597884,-3548817.99742 58157.3802891,-3549200.44654 58491.6537269,-3549537.40529 58796.2260574,-3549897.10185 58867.3015908,-3550001.73137 44289.5098027,-3555418.69906 38584.2649306,-3557364.09034 35682.2245556,-3550947.41055 30087.7916954,-3549713.30679 30008.9463933,-3549696.10761 29318.3150333,-3549543.98324 29316.5696561,-3549543.46776 29260.1821501,-3549530.96773 28799.1395615,-3549396.38015 28343.5717277,-3549292.84024 12011.5484563,-3545832.96728 11997.0816148,-3545829.33896 11967.3935985,-3545822.5756 5040.51199052,-3544233.62932 1763.80362258,-3544063.01287 322.17903839,-3544260.17551 -134.227350499,-3544198.12206 -440.053385581,-3544097.4114 -903.407264571,-3543945.30459 -2179.24102911,-3543715.47894 -3465.05529571,-3543484.06457 -3786.9502701,-3543419.70769 -4268.494541,-3543486.41717 -8143.41753685,-3543636.92141 -13783.2871263,-3543585.71665 -20412.8577399,-3543526.66438 -20925.8717231,-3543761.05796 -21402.2983244,-3543816.80324 -22340.8058411,-3543861.43067 -26233.2631284,-3544121.18153 -26294.6482398,-3543885.17235 -26300.3076995,-3543875.12351 -28906.3783489,-3540118.02515 -30945.1208647,-3537491.3357 -31699.8770421,-3536861.73238 -31726.1787299,-3536840.00228" style="stroke-linejoin:round;stroke:#000;stroke-width:1px;fill:none" /></g></g></svg>