<svg xmlns="http://www.w3.org/2000/svg" baseProfile="full" height="53989.1502601" version="1.1" viewBox="-26235.271576,3552443.574960,89739.236238,53989.150260" width="89739.2362384"><defs><style type="text/css">polyline,line,rect,path,polygon,.polygon{fill:none;stroke:#000;stroke-width:1px;stroke-linejoin:round;}</style></defs><g fill_rule="evenodd" transform="scale(1,-1)"><g class="id" id="46070"><polygon class="_46070" id="None" points="-26233.628787,-3553146.23693 -22341.1262786,-3552886.33357 -21402.6067834,-3552841.67319 -20926.1751419,-3552785.91123 -20413.1612413,-3552551.49752 -13783.4907031,-3552610.37223 -8143.53713354,-3552661.48041 -4268.55823577,-3552510.9361 -3787.00717654,-3552444.22257 -3465.10701382,-3552508.57857 -2179.27276145,-3552739.99064 -903.420092342,-3552969.8165 -440.059528669,-3553121.92496 -134.229203015,-3553222.63688 322.183453419,-3553284.69125 1763.82834068,-3553087.52825 5040.58127759,-3553258.16462 11967.5282003,-3554847.2235 11997.2164229,-3554853.98749 12011.6833585,-3554857.61612 28343.7360801,-3558318.03753 28799.3018773,-3558421.59854 29260.3408808,-3558556.20794 29316.7281178,-3558568.71065 29318.4734808,-3558569.2262 30009.1014125,-3558721.38366 30087.9463103,-3558738.58665 35682.3388728,-3559972.98539 38583.9986562,-3566389.82352 44289.3404325,-3564444.81508 58867.5809285,-3559029.02871 59061.0219577,-3559315.76167 59312.6815294,-3559718.01677 59475.5382911,-3560153.97896 59756.927697,-3560558.50002 60141.2661576,-3560912.94054 60442.1277083,-3561264.63517 60713.3072391,-3561692.5659 60880.8588023,-3562162.57115 61074.6447476,-3562662.31147 61191.5965722,-3563115.36423 61370.0401179,-3563541.46633 61535.2597815,-3564076.45201 61690.4041605,-3564591.84736 61734.7971739,-3565051.25157 61760.8469056,-3565548.99232 61795.7766852,-3565948.3109 61720.6719873,-3566435.14678 61763.5298141,-3566814.53586 61872.7290706,-3567351.52063 61883.2878514,-3568127.62677 61933.9232296,-3568392.08363 61930.6139052,-3568762.05954 61995.7425909,-3569362.65101 62133.7413113,-3569698.39043 62449.7695965,-3570729.73291 62451.2292416,-3570734.24604 62451.9568277,-3570736.75258 62458.7550856,-3570759.31374 63378.6685071,-3573760.08983 62688.1103025,-3574212.41657 62530.5640129,-3574357.00871 58132.3907986,-3578392.19024 56083.731778,-3587980.93219 48560.0275979,-3593268.50912 51585.8111056,-3606078.76763 44772.7253461,-3606053.5529 39790.1347148,-3606034.76521 24744.3310695,-3605978.41943 24271.1088037,-3605976.66003 24228.6133342,-3605976.27754 23861.8845618,-3605974.97656 23741.3930023,-3605974.39198 23266.9217093,-3605972.62103 23215.1728181,-3605972.65519 19278.1793153,-3605957.71032 -7221.5384511,-3606247.82238 -6768.46915002,-3602548.7538 -11116.5087623,-3595718.28554 -11121.1903897,-3595710.74423 -11123.6539307,-3595706.7225 -11003.1019674,-3595004.88359 -8672.35752901,-3581445.7752 -8716.9244846,-3581425.87795 -8671.57234213,-3579460.49361 -9364.5027971,-3577506.49944 -9931.01926999,-3576062.58717 -10317.4162688,-3575077.73912 -11125.3378727,-3572926.25534 -12001.411003,-3571267.11495 -13213.963787,-3569609.47711 -14650.1004359,-3568075.83931 -16546.3850853,-3567153.5314 -18612.6548435,-3566148.72861 -20719.8192347,-3564236.1986 -22237.6667081,-3561464.56195 -24830.0816688,-3558069.48078 -25546.2118755,-3555789.95066 -26206.562541,-3553250.96167 -26233.628787,-3553146.23693" style="stroke-linejoin:round;stroke:#000;stroke-width:1px;fill:none" /></g></g></svg>