<svg xmlns="http://www.w3.org/2000/svg" baseProfile="full" height="63068.4806947" version="1.1" viewBox="48379.749783,3573317.742881,79075.656679,63068.480695" width="79075.6566791"><defs><style type="text/css">polyline,line,rect,path,polygon,.polygon{fill:none;stroke:#000;stroke-width:1px;stroke-linejoin:round;}</style></defs><g fill_rule="evenodd" transform="scale(1,-1)"><g class="id" id="46084"><polygon class="_46084" id="None" points="62450.2400358,-3573871.69015 77182.3653094,-3573486.55463 92890.0235507,-3573974.89292 92895.5233063,-3573974.94243 94196.4544041,-3574015.6568 95502.8897546,-3574055.92201 95745.8294353,-3574063.60997 127442.462348,-3575049.94992 125859.19643,-3578952.74869 122146.823066,-3588131.45482 121636.273742,-3589355.87613 121551.04559,-3589575.11211 121274.301341,-3590322.63202 115530.636055,-3605090.67146 115412.009718,-3614990.30592 115268.613311,-3627621.31187 115173.491687,-3635780.69179 115167.985145,-3636254.15736 108255.784254,-3634277.43294 108245.561727,-3634274.34088 64992.9994805,-3621903.81563 64774.5029489,-3621819.84371 64670.8317335,-3621810.90861 64667.8319257,-3621810.88156 64662.086803,-3621810.32974 55451.3473772,-3621047.23852 55213.8708132,-3617663.06878 54423.0812265,-3612980.90916 53228.9309194,-3611027.63732 51597.7119897,-3609220.43284 51585.2129832,-3609220.32021 48559.8012135,-3596410.08325 56083.6311005,-3591122.73609 58132.5878718,-3581534.0492 62530.9125815,-3577498.99268 62688.4646553,-3577354.40505 63379.0422929,-3576902.09918 62459.2245956,-3573901.2715 62452.4270469,-3573878.70995 62451.6995398,-3573876.20336 62450.2400358,-3573871.69015" style="stroke-linejoin:round;stroke:#000;stroke-width:1px;fill:none" /></g></g></svg>