<svg xmlns="http://www.w3.org/2000/svg" baseProfile="full" height="89939.6223553" version="1.1" viewBox="13156.856641,3630785.739526,102163.747530,89939.622355" width="102163.74753"><defs><style type="text/css">polyline,line,rect,path,polygon,.polygon{fill:none;stroke:#000;stroke-width:1px;stroke-linejoin:round;}</style></defs><g fill_rule="evenodd" transform="scale(1,-1)"><g class="id" id="46091"><polygon class="_46091" id="None" points="115166.422026,-3645337.3223 115110.441895,-3650163.40067 115109.160493,-3650221.38993 114939.073291,-3663167.01077 114901.712496,-3664544.18361 114911.037163,-3664781.77152 114803.906931,-3670994.85211 114741.96956,-3678363.85216 114735.206967,-3679130.29724 114661.288235,-3687211.19907 114621.024612,-3690055.86188 114559.111152,-3694421.34901 114523.474031,-3696925.05751 114369.698581,-3706201.81038 114360.301053,-3706765.23599 113361.734735,-3707290.12422 113368.273771,-3707723.69333 112869.431501,-3707924.14027 112158.220683,-3708109.64648 111084.118138,-3708282.33628 109427.644766,-3708548.70562 109251.126502,-3708577.59316 109137.200472,-3708596.55247 103102.485227,-3703436.26283 95023.212896,-3708773.49121 94304.1135286,-3709355.92709 92516.3325036,-3713232.68001 86126.9994756,-3710326.59873 85294.3476128,-3711569.00818 83550.4777398,-3711658.53767 82438.2124853,-3711711.34987 82368.4098975,-3711416.70214 73359.3223238,-3714017.69712 72484.9834682,-3714270.18514 70043.0932129,-3717548.3738 68003.1305202,-3720316.23237 67654.0583099,-3720214.02484 64993.1296814,-3719435.57175 63111.8492239,-3718916.28164 62758.4232693,-3718880.03473 59159.6023589,-3718279.96109 54846.6992934,-3717090.80438 51111.5187395,-3716288.9558 47618.5239729,-3715550.82778 45392.7763469,-3714652.35102 43426.9830455,-3714140.2665 41377.4661404,-3713924.90991 41028.1388084,-3713498.69678 40548.5919297,-3713313.78496 40106.2401669,-3713352.21441 39774.5335875,-3713266.16245 39352.5899463,-3713178.78007 39018.2659344,-3713132.70371 38685.6628643,-3712736.64551 38350.3777249,-3712713.56018 38014.3520261,-3712689.46796 37678.3541056,-3712662.37594 37343.6522551,-3712630.29581 37185.0827842,-3712610.83657 37011.273992,-3712590.23707 36680.487797,-3712540.19301 36351.0529026,-3712479.16146 36020.9326919,-3712411.12363 35690.8678955,-3712337.08635 35361.6360565,-3712254.05681 35034.996213,-3712161.05125 34714.4664317,-3712056.10209 34400.3242961,-3711936.21195 34096.319429,-3711801.41537 33804.0068936,-3711645.72679 33523.386672,-3711469.14624 33251.190662,-3711273.64366 32986.3545176,-3711066.20915 32725.3417632,-3710850.81011 32465.6158296,-3710631.42315 32204.3625692,-3710415.02222 31940.3045033,-3710204.59551 31670.4051363,-3710004.11499 31395.2012427,-3709809.58566 31115.9703118,-3709618.01933 30837.2486877,-3709425.45785 30562.3044289,-3709229.93132 30229.6319668,-3708977.87486 30033.089011,-3708820.06941 29784.1224719,-3708599.78301 29559.6058647,-3708357.72235 29372.9165192,-3708080.01091 29206.399832,-3707783.48581 29040.383073,-3707486.96552 28857.9892795,-3707204.29435 28673.3549455,-3706920.6028 28482.9252594,-3706641.85799 28275.6002663,-3706378.95747 28041.7982774,-3706140.8128 27795.6465628,-3705913.55436 27542.9312919,-3705693.23549 26763.3272789,-3705218.07663 26743.9353422,-3705206.39857 26595.7023339,-3705042.03986 26235.8678777,-3704617.74279 26074.2853305,-3704464.2612 25503.2887832,-3703922.52622 25022.2667431,-3703437.61795 24585.2656399,-3702923.11653 24237.9360435,-3702362.44251 24018.4292275,-3701738.94738 23875.5349423,-3701075.65907 23729.1726628,-3700408.83963 23523.3511615,-3699764.97319 23302.432757,-3699104.46934 23030.1710721,-3698481.4927 22440.5728207,-3697760.60436 21631.7076039,-3697722.67131 21023.6959321,-3697672.58483 20436.0940731,-3697550.68927 19708.7055957,-3697216.01928 19146.7829452,-3696829.87346 18889.6356823,-3696602.52145 18532.82737,-3696257.25978 18278.7290093,-3695670.95519 18147.9126693,-3694998.78872 17985.747677,-3694065.3489 17823.1186056,-3693699.37476 17654.9307963,-3693094.86298 17440.8702951,-3692503.92968 17179.3605174,-3692071.05232 17001.2269816,-3691569.445 16750.2164868,-3690973.17445 16455.1634878,-3690408.99837 16305.6397661,-3689840.65919 15829.7384213,-3689233.82706 15487.3220139,-3688682.2178 15048.7535179,-3688474.70557 14379.0471949,-3688365.56619 13542.4042848,-3687869.42012 13198.497805,-3687425.79344 25655.5606539,-3684809.6882 34548.0035951,-3687207.62895 54810.1364768,-3695313.32222 58210.3015266,-3696877.00445 58847.6184462,-3697169.8497 66147.6092239,-3700585.31208 66157.3172637,-3700589.90114 66215.4492936,-3699293.9194 66223.8137419,-3698081.48322 66294.6918079,-3697822.13027 66472.9278644,-3697169.25744 66561.0495071,-3696610.55965 66561.76845,-3696477.56495 66575.2405063,-3694189.16774 66646.9252028,-3693323.31743 66712.1176607,-3692538.40851 66623.2100412,-3690563.57936 66526.7046524,-3689772.68991 66380.8507739,-3688746.8473 66284.5411462,-3687606.95839 66117.4566355,-3685623.41749 66245.7469096,-3684527.0869 66535.6479114,-3682217.23043 66625.1859622,-3680875.04411 66627.4155229,-3679757.55965 66747.1692268,-3678746.65147 66543.3320641,-3677991.28266 66407.8065206,-3677174.53904 66359.7198851,-3676419.09603 66199.8330481,-3675505.12943 65950.1142824,-3674627.34121 65903.8039988,-3673240.41257 65972.7280649,-3672101.03902 65866.4914127,-3670979.06305 65855.0343594,-3669908.45424 65988.4186096,-3668855.17009 65993.1788635,-3668744.71318 66021.453649,-3668085.96905 66065.928246,-3667569.37358 66084.3134066,-3667144.53986 66140.71652,-3666581.05311 66204.1777181,-3665765.12958 66250.6393148,-3665304.55217 66254.3695355,-3664896.58424 66261.9480977,-3664860.65336 66264.3165172,-3664765.67453 66251.5918112,-3664735.55803 66289.9891276,-3664555.40818 66296.702029,-3664559.46958 66321.8752062,-3664513.1995 66360.5304728,-3664441.55255 66389.632196,-3664102.31682 66362.3091697,-3663973.56633 66316.9449793,-3663876.65107 66190.4722023,-3663627.49347 66001.9310953,-3663385.76851 65904.3223552,-3663260.87551 65856.0662708,-3663097.4335 65759.3086248,-3662770.04725 65585.3439067,-3662519.95565 65431.8948531,-3662377.5522 65215.2354984,-3662176.07067 64954.9616283,-3661877.69006 64656.4359943,-3661305.9586 64448.6755212,-3660924.0578 64230.8245034,-3660360.56398 64140.4265301,-3659993.736 63863.263733,-3659573.70099 63664.5006274,-3659219.38288 63374.0455618,-3658940.72735 63207.9846969,-3658673.70865 62856.7756739,-3658285.99771 62441.0645216,-3657953.19789 62066.1723307,-3657530.77086 61638.2367334,-3656948.85882 61182.9036967,-3656246.19635 60893.4121909,-3655424.04856 60612.0876018,-3652393.4643 60626.7009121,-3650765.58777 60634.5288053,-3649908.15334 60677.3004781,-3642728.47496 60759.5775302,-3638970.67354 61411.7640498,-3637608.09881 61529.0308071,-3637387.16433 64900.7904293,-3631033.26833 64993.5275466,-3630980.11242 108244.416003,-3643356.34717 108254.637917,-3643359.44089 115166.422026,-3645337.3223" style="stroke-linejoin:round;stroke:#000;stroke-width:1px;fill:none" /></g></g></svg>