<svg xmlns="http://www.w3.org/2000/svg" baseProfile="full" height="65343.3957001" version="1.1" viewBox="75209.949325,3330541.261324,35690.491013,65343.395700" width="35690.4910128"><defs><style type="text/css">polyline,line,rect,path,polygon,.polygon{fill:none;stroke:#000;stroke-width:1px;stroke-linejoin:round;}</style></defs><g fill_rule="evenodd" transform="scale(1,-1)"><g class="id" id="46126"><polygon class="_46126" id="None" points="110550.667872,-3367034.67862 110258.076913,-3367215.70941 109762.527095,-3367202.78018 109024.090248,-3367594.23496 109021.369236,-3367754.19472 109007.469026,-3367909.96417 108937.137668,-3368002.77129 108815.807306,-3368080.7103 108664.484524,-3368158.13904 108415.295225,-3368256.90368 108410.262473,-3368258.81814 108297.928059,-3368366.4111 108297.317634,-3368372.90095 108289.305567,-3368461.76789 108292.329547,-3368871.83428 108288.037127,-3369021.26671 108237.409506,-3369160.91047 108185.891284,-3369250.03721 108093.362575,-3369398.46835 107819.348525,-3369633.81471 107697.924572,-3369717.25171 107644.968849,-3369890.85682 107565.960744,-3370185.02286 107413.796905,-3370546.94635 107289.574218,-3370794.84115 107186.877551,-3370953.09904 107166.311024,-3371133.25528 107231.590496,-3371263.87073 107309.017964,-3371415.19369 107297.319043,-3371514.99809 107251.456534,-3371653.72242 107283.748437,-3371724.77448 107342.542099,-3371795.77758 107348.670447,-3371876.38472 107309.316771,-3371985.21878 107225.593602,-3372203.8015 107144.804699,-3372440.93476 107024.41077,-3372860.40016 107002.543902,-3372970.03177 107003.196802,-3373078.54667 107058.444241,-3373210.99172 107146.038723,-3373352.48775 107183.645899,-3373493.13289 107140.422411,-3373682.40379 107072.073124,-3373937.74926 106967.868105,-3374419.49222 106944.298713,-3374629.09833 106884.720753,-3374956.59552 106782.761722,-3375306.37183 106638.541553,-3375553.92484 106585.660245,-3375723.0303 106573.44965,-3375852.82691 106558.67391,-3375957.07894 106490.575885,-3376021.42158 106368.223026,-3376159.34286 106256.378353,-3376267.44199 106165.039325,-3376345.88925 106102.671073,-3376484.8319 106031.340441,-3376709.62481 105966.574883,-3376842.52635 105852.346307,-3377090.58936 105798.953618,-3377289.68675 105787.083117,-3377399.48828 105771.528405,-3377696.2334 105719.095099,-3377868.34616 105664.687784,-3378038.92521 105535.06272,-3378104.71949 105225.718295,-3378300.45673 105038.368069,-3378496.77181 104736.570332,-3378719.13795 104449.641012,-3378949.25731 103859.479256,-3379339.21523 103455.417674,-3379444.83437 102849.634688,-3380150.03341 102147.322025,-3380754.08286 101987.24828,-3380904.85912 101887.096038,-3381001.65499 101886.062227,-3381003.63742 101638.850244,-3381426.43568 101255.344614,-3382100.91709 101085.281642,-3382603.03138 100836.401285,-3383944.8235 100817.408037,-3384765.52126 100823.004891,-3385375.633 100787.963926,-3385979.05178 100625.294116,-3386824.3006 100688.606818,-3387348.39496 100605.327435,-3387818.9876 100583.611351,-3388256.62947 100648.276344,-3388642.74361 100586.82123,-3388991.70521 100473.772491,-3389272.78458 100385.561249,-3389358.28202 100117.20663,-3389627.71101 99527.0350604,-3390105.65404 99322.4551769,-3390271.16752 99320.73123,-3390269.63806 99283.6616809,-3390259.0052 99256.3762353,-3390261.03964 99253.3684984,-3390261.48833 99244.9952837,-3390283.34603 99224.6448576,-3390318.49969 99227.609943,-3390320.55035 99130.573152,-3390600.90188 98987.7869249,-3391012.97607 98897.3221822,-3391274.43908 98629.2261108,-3391499.36929 98630.3222053,-3391508.38823 98675.9470122,-3391852.67604 98248.0150271,-3392082.37763 97831.7549252,-3392023.77075 97499.4378396,-3392115.10033 96944.3214288,-3392472.63241 96651.9319762,-3392861.14956 96291.70201,-3393167.00611 95949.5123679,-3393382.6682 95596.1561177,-3393666.64062 95084.1387195,-3393754.8993 94456.3860312,-3394208.18782 94285.1594072,-3394484.76865 93868.0496755,-3394798.15038 93475.3897279,-3395055.94809 93119.9323778,-3395243.37958 92663.786484,-3395368.58974 92194.522946,-3395705.57833 91724.7607457,-3395720.55329 91260.8322665,-3395452.62438 90806.6807314,-3395314.86433 90376.1426866,-3395170.50777 90064.4904063,-3394842.6809 89934.2025616,-3394639.95364 89686.4583362,-3394390.71979 89548.8209913,-3394091.36678 88999.5904753,-3393650.98294 88667.0200602,-3393201.30083 88312.9402834,-3392708.25213 88150.1453364,-3392403.47138 88032.81649,-3391763.96728 87673.2626909,-3391474.32742 87586.4778758,-3391212.84578 87540.8220749,-3391075.56639 87712.3090717,-3390680.99512 87652.2829396,-3390008.97148 87092.1806213,-3389795.40975 86966.7530015,-3389747.26859 86821.5295029,-3389291.79139 86777.2313233,-3389133.53596 86693.3346875,-3388834.60538 86548.5249027,-3388384.13617 86309.4235888,-3387980.05773 86066.3745038,-3387572.91252 85811.675165,-3387174.569 85527.8931576,-3386795.72958 85219.2602709,-3386437.46647 84899.744223,-3386087.01816 84576.110068,-3385743.50011 84233.4758791,-3385414.65826 83913.6249151,-3385069.20599 83646.8266422,-3384676.66027 83434.2903869,-3384254.0414 83262.5824253,-3383812.11995 83125.8009121,-3383359.79499 83011.3984662,-3382899.85233 82922.0730171,-3382435.33786 82867.605575,-3381964.41835 82767.2313304,-3381502.71606 82691.45121,-3381035.43364 82599.7550094,-3380577.87993 82356.770251,-3380166.74612 82038.1838496,-3379820.32249 81662.1098165,-3379531.91799 81259.9135693,-3379280.06778 80860.7337748,-3379027.26954 80460.5716961,-3378773.4551 80063.511255,-3378513.69422 79711.3912266,-3378198.70163 79430.1234203,-3377818.91937 79512.703741,-3377359.3415 79358.1606919,-3376804.72559 79229.8932382,-3376380.5537 78870.092913,-3376017.43492 78751.6679265,-3375558.43293 78635.4746551,-3375100.46932 78542.3925731,-3374635.90004 78469.1215991,-3374167.66869 78349.8936259,-3373711.65438 78213.6196161,-3373258.35002 78144.1127413,-3372789.18376 78011.3195072,-3372336.93939 77816.1716557,-3371905.63284 77578.6627976,-3371495.60468 77389.5462961,-3371062.40198 77230.9076534,-3370615.71923 77008.7448561,-3370199.95425 76758.6027319,-3369797.71299 76549.8380614,-3369373.1776 76364.269526,-3368937.03806 76184.7155771,-3368500.00144 76011.7270641,-3368059.07722 75844.7701064,-3367616.2562 75691.8930254,-3367168.67544 75546.5809554,-3366717.22401 75441.9077958,-3366257.46476 75413.946374,-3365785.01137 75409.5103987,-3365310.95834 75420.0687152,-3364837.16037 75480.5245478,-3364369.21073 75561.4558525,-3363902.60908 75637.1552931,-3363434.91832 75736.7780632,-3362971.63394 75863.0222948,-3362515.80156 76053.8873326,-3362082.06641 76338.5186977,-3361705.92211 76692.6239096,-3361389.95545 76798.1390274,-3361138.75999 76599.4647586,-3360472.91256 76313.8958124,-3359874.58623 75956.9894924,-3359281.5485 75636.9922335,-3358517.14719 75809.2882754,-3357807.60756 75637.7979561,-3357145.22558 75493.1243409,-3355948.82507 76058.6912812,-3355486.95077 76450.5774701,-3354933.13004 76316.2791823,-3354479.87013 76355.9193053,-3353985.56528 76195.8058607,-3353550.86677 76087.802532,-3353080.0548 76050.0590727,-3352608.43562 76029.3262561,-3352136.10522 76025.1042475,-3351663.05505 76027.3963787,-3351189.11543 76026.921807,-3350716.12878 76047.1896747,-3350243.49397 76099.4123397,-3349773.40102 76164.8630221,-3349304.53221 76207.9120916,-3348977.27694 76226.0645005,-3348835.5911 76270.054987,-3348364.35797 76307.3140294,-3347892.01055 76355.0350585,-3347421.84028 76425.9638799,-3346954.06322 76510.1038297,-3346488.5098 76584.5303019,-3346020.7915 76643.4782252,-3345551.81059 76713.404976,-3345084.0155 76800.5585206,-3344617.51206 76915.3168548,-3344159.47581 77108.6083638,-3343728.76896 77305.6482891,-3343298.12508 77475.1162773,-3342857.01387 77640.1361238,-3342412.82691 77803.1561932,-3341968.60557 77967.6584168,-3341525.40882 80311.4678182,-3336926.24804 83257.7260683,-3331145.22822 83543.0100589,-3330596.06169 83906.8135387,-3331124.7074 92967.550245,-3344290.57516 100911.853037,-3348582.36874 102172.029358,-3356878.94004 102186.240476,-3357352.19196 102224.495645,-3357822.85232 102342.200031,-3358281.86231 102441.34093,-3358744.55721 102547.763407,-3359205.376 102687.846417,-3359656.76679 102909.752113,-3360074.54755 103154.105523,-3360480.70994 103432.87451,-3360862.4571 103721.259786,-3361237.368 104011.16153,-3361611.30514 104307.879358,-3361981.35852 104639.68289,-3362317.00786 105000.471871,-3362624.14962 105376.613964,-3362910.55227 105762.974566,-3363184.12872 106154.719964,-3363449.79693 106556.485014,-3363699.63544 106964.651674,-3363940.58292 107341.311472,-3364225.99661 107748.745762,-3364465.93246 108146.410705,-3364721.70316 108534.323251,-3364992.30899 108922.968786,-3365263.92776 109313.199135,-3365530.57373 109664.839002,-3365846.56578 109964.891449,-3366211.6829 110217.07645,-3366612.98783 110512.044927,-3366983.01959 110550.667872,-3367034.67862" style="stroke-linejoin:round;stroke:#000;stroke-width:1px;fill:none" /></g></g></svg>