<svg xmlns="http://www.w3.org/2000/svg" baseProfile="full" height="168454.786362" version="1.1" viewBox="23750.971164,4061244.258541,116090.279596,168454.786362" width="116090.279596"><defs><style type="text/css">polyline,line,rect,path,polygon,.polygon{fill:none;stroke:#000;stroke-width:1px;stroke-linejoin:round;}</style></defs><g fill_rule="evenodd" transform="scale(1,-1)"><g class="hogares departamen mujeres departam_1 toponimo_i tot_pob varones viv_part viv_part_h" id="50014"><polygon class="_50014" id="None" points="119575.875123,-4080962.47155 119876.108928,-4081589.08245 119997.29022,-4082154.59501 120039.165192,-4082834.53412 119879.185064,-4083243.88637 119975.623571,-4083758.89448 120282.973679,-4083968.0871 121001.195089,-4083687.94715 121204.451226,-4083726.52832 121202.306437,-4084008.02652 121139.339637,-4084242.79817 121607.464114,-4084352.2012 121854.334967,-4084285.64196 122644.319126,-4085239.62462 123103.070712,-4085604.37903 123384.191359,-4085899.56092 124281.704405,-4086366.63271 124619.808353,-4086999.50849 124745.934646,-4087642.13314 124629.184117,-4087952.83624 124741.720653,-4088176.1266 124544.857699,-4088529.2282 124545.032504,-4089056.30791 124356.722483,-4089332.06929 124044.817615,-4089412.32267 123734.377447,-4089868.15888 123484.347367,-4090092.17391 123413.879535,-4090775.35615 123576.718181,-4091195.68252 123893.699122,-4091572.59601 124120.367215,-4091752.66985 124326.644761,-4092014.34608 125016.656307,-4092130.71016 125421.425364,-4092207.34456 125700.511974,-4092491.48612 126220.435625,-4092374.40489 126475.363826,-4092317.51353 126772.332186,-4092782.04058 127179.911168,-4092855.73237 127405.934191,-4092968.28553 127739.278924,-4093476.54994 128080.068124,-4094149.48764 128456.118164,-4094685.11393 128613.59117,-4094886.80437 128344.082943,-4095482.97792 127930.103806,-4095939.73033 127947.872868,-4096262.63241 128780.380984,-4096317.85642 128815.01806,-4096485.57561 128637.954079,-4096487.52043 128567.784196,-4096707.14229 129089.680211,-4097276.20238 129823.243623,-4097688.99211 130299.095343,-4098085.60486 130696.249684,-4098454.13358 131321.16661,-4099022.76591 131564.193005,-4099583.22681 131510.860382,-4100097.22792 131712.138027,-4100532.83249 131616.963342,-4100963.98094 131833.491664,-4101449.39875 132053.779551,-4101710.36086 132191.433222,-4102562.24515 132404.87619,-4103201.12238 132513.593435,-4103452.34165 132472.25194,-4103892.07171 132855.230863,-4104405.83833 133058.293999,-4105150.52153 132989.934517,-4105429.18603 132785.504409,-4105573.5975 132669.680196,-4105825.30421 132343.757745,-4106018.28055 132180.390938,-4106122.51158 132201.233814,-4106640.50049 132188.928211,-4107327.34568 132401.849151,-4107743.18089 132520.669904,-4107914.59207 132500.722716,-4108135.72081 132313.488072,-4108183.46392 132194.064518,-4108042.0447 132060.324249,-4108102.86479 132073.645709,-4108348.16526 132335.32195,-4108577.4554 132418.495118,-4108718.64601 132359.353478,-4108986.49295 132553.0177,-4109215.91625 132751.613369,-4109224.90939 132857.746075,-4109020.01538 132739.179478,-4108811.10419 132848.810919,-4108705.79373 133045.128226,-4108803.25287 133026.105208,-4108978.39397 133645.769302,-4109073.86278 133684.685957,-4109389.1875 133516.319267,-4109406.30531 133633.054797,-4109818.20718 133772.334896,-4109842.51032 133680.308042,-4110141.70041 133847.507788,-4110381.59373 134151.384357,-4110775.25545 134300.632235,-4111261.32099 134488.318456,-4111663.64819 134729.671653,-4111958.54014 134733.648124,-4112531.69654 134697.625956,-4113005.03517 134133.185296,-4113669.77358 133613.562057,-4114070.3777 133145.305069,-4114291.49095 132813.577511,-4114636.36535 132871.147752,-4114944.0627 133120.181624,-4115466.1378 133459.61812,-4115919.02213 133724.545897,-4116272.39551 133815.181751,-4117670.8984 133667.863256,-4118095.98994 134002.56726,-4118908.32579 133475.626444,-4119386.78783 133221.390366,-4119782.2241 133351.188281,-4120091.374 134193.779378,-4119893.29764 134382.207398,-4120233.63134 134895.739585,-4120458.99033 134836.903479,-4120897.86284 134628.9335,-4121292.72942 134662.539779,-4122244.5263 134851.393972,-4122687.88194 135043.628963,-4122950.78285 134664.19528,-4123429.70936 134431.670767,-4123665.5607 134641.026868,-4124121.33026 135160.924389,-4124191.79984 135498.135327,-4123997.06017 135581.355254,-4124135.75222 135428.829618,-4124682.75243 135143.963994,-4124798.53509 134949.297684,-4125041.64866 134917.944703,-4125456.56984 135429.551026,-4125951.42686 135752.434128,-4126170.4519 135527.397566,-4126319.94219 135408.413236,-4126852.61463 135538.599863,-4127067.76151 135666.72765,-4127434.88607 136445.297199,-4127473.55972 136479.234905,-4127886.79489 136268.613442,-4128040.57534 136260.116673,-4128189.42306 136131.412717,-4128186.33238 136568.570643,-4128814.70982 136824.647402,-4128601.33693 137093.783706,-4128596.25313 137258.450071,-4128427.54595 137496.306585,-4128411.33116 137554.607025,-4128670.03745 137906.430956,-4128817.63746 137865.374774,-4129105.8478 137500.592187,-4129130.00866 137299.341259,-4129563.51282 137267.091495,-4129935.91074 137051.544722,-4130061.08792 136953.05914,-4130159.11789 137165.12976,-4130392.91604 137211.370734,-4130592.37195 137478.664112,-4130840.28363 137675.933552,-4131188.29854 137743.162038,-4131587.20223 137990.82644,-4131866.22311 137855.567378,-4132064.52528 137808.575701,-4132548.14028 137610.394559,-4132742.17501 137640.659573,-4132940.30922 137748.129514,-4132942.47306 137761.905881,-4132792.23149 138169.647677,-4132832.44514 138461.061005,-4133397.38337 138644.080277,-4133546.58693 138740.490669,-4134011.0868 138619.406207,-4134436.70279 138228.274734,-4134800.87373 137976.723162,-4135248.86524 137485.346571,-4135562.51083 137230.906018,-4135644.89801 137170.385068,-4136427.77688 137034.517267,-4136830.09106 137019.373301,-4136961.30241 136972.401448,-4137356.90564 137091.617305,-4137793.86046 137223.059331,-4137946.52629 137181.542595,-4138220.22422 137315.313066,-4138592.46428 137383.497352,-4138782.36097 137123.887943,-4139220.6872 136839.457191,-4139575.50297 136924.213041,-4140072.27127 137160.212759,-4140384.06284 137270.563616,-4140652.81861 137264.513468,-4141015.24165 137439.379063,-4141333.30303 138138.235614,-4141394.38642 138191.837818,-4141414.46854 138194.715053,-4141706.06289 138233.675264,-4141906.87268 138199.039126,-4142223.7146 137937.840879,-4142368.47153 137642.246865,-4142619.54877 137716.994772,-4143178.62385 137510.226376,-4143563.00655 137695.302431,-4144329.82988 137860.266636,-4144804.21199 138007.421854,-4145033.20494 137529.724664,-4145238.60712 137252.679673,-4145524.56131 136664.076696,-4145575.70976 136485.280821,-4145750.62927 136407.830626,-4146368.14479 136092.73635,-4146519.81525 135985.27983,-4146765.18036 135662.831758,-4147356.25606 135514.136198,-4147737.30661 135235.673249,-4147944.72127 135089.418839,-4148378.32711 134679.984281,-4148707.61722 134834.270724,-4148905.24998 135124.964923,-4148996.61849 135291.425489,-4149210.49868 135292.558308,-4149452.05094 135175.496231,-4149615.71202 135076.239527,-4149776.73153 134878.573201,-4149920.26584 134874.068262,-4150156.20371 135050.819734,-4150343.28822 135186.540193,-4150482.04008 135276.535658,-4150606.86885 135477.870846,-4150789.94846 135553.101605,-4151101.50261 135548.503755,-4151354.44091 135635.655767,-4151570.72374 135864.305986,-4151800.35986 135994.48886,-4151804.48392 136232.280432,-4151816.27755 136520.312117,-4151866.08836 136680.381479,-4152161.35076 136793.282702,-4152464.66368 136871.457317,-4152679.76587 136764.069486,-4152921.63162 136740.660675,-4153338.7116 136690.349967,-4153750.74877 136520.356373,-4153947.84701 136291.548529,-4154085.75242 136214.048512,-4154159.69953 136328.994301,-4154299.53364 136533.23484,-4154251.64428 136623.60677,-4154332.97587 136548.727296,-4154524.99048 136468.613299,-4154691.39638 136466.8443,-4154940.39165 136547.628738,-4155274.06146 136625.579246,-4155636.67784 136582.64833,-4155967.85375 136529.929843,-4156424.84805 136304.019894,-4156629.81969 136306.368138,-4156885.39887 136040.810009,-4157147.07816 135839.709461,-4157374.05239 135811.302049,-4157592.50687 135809.338681,-4157863.50098 135895.93902,-4158082.27406 136003.502898,-4158488.99327 135966.716146,-4158899.80292 135815.552754,-4159055.7748 135670.926998,-4159519.91688 135737.247712,-4159950.80786 135516.714111,-4160223.89553 135289.452241,-4160557.85501 135260.849833,-4160922.3238 135170.872539,-4161057.02637 135039.164683,-4161264.8966 135034.661152,-4161413.82438 135173.157962,-4161501.62801 135178.848683,-4161727.77105 135309.651207,-4161973.93944 135568.113227,-4162250.18594 135435.667385,-4162445.03969 135231.27488,-4162500.42506 134974.211956,-4162824.28192 134775.074206,-4163139.80569 134552.859834,-4163235.8365 134337.941259,-4163404.02338 134348.834245,-4163545.76077 134501.797109,-4163808.87849 134366.373498,-4164052.17787 134168.812336,-4164264.72017 134131.864528,-4164547.01037 134120.74097,-4164937.33496 134236.35865,-4165638.755 134151.22219,-4165930.07455 134024.000891,-4166200.54261 134052.728465,-4166400.14721 133978.564122,-4166717.69136 133794.376525,-4166998.51159 133571.384849,-4167306.55243 133535.02517,-4167534.84779 133628.268076,-4167771.25854 133842.312981,-4167919.09498 134053.996296,-4168022.87825 134229.327218,-4168255.44464 134179.508389,-4168555.97799 134132.857853,-4168860.57579 134035.67398,-4169092.14485 133920.469207,-4169299.84729 134046.997284,-4169509.92669 134208.586807,-4169543.69088 134395.705195,-4169600.9731 134440.731463,-4169835.41158 134318.234675,-4170007.96252 134401.109054,-4170250.16563 134372.806896,-4170475.62371 134394.100847,-4170758.58983 134342.219055,-4171186.09837 134380.648296,-4171635.932 134203.412873,-4171881.88797 134154.363752,-4172230.94363 134015.026776,-4172482.16486 133983.544378,-4172654.55203 133984.031331,-4173225.13614 133927.710941,-4173699.06155 133894.83713,-4173989.93623 133973.342894,-4174225.55127 134118.711649,-4174344.50031 134109.146623,-4174496.32725 134018.980091,-4174776.54457 133936.414926,-4174927.89833 133927.728034,-4175197.2585 133889.629889,-4175462.02457 133833.79481,-4175626.91954 133805.063236,-4175786.86083 133896.713161,-4175978.23574 133920.314861,-4176097.22781 133834.500274,-4176248.51599 133600.186984,-4176448.31357 133561.61478,-4176625.05851 133640.722963,-4176843.18403 133838.529015,-4176953.19087 133847.116841,-4177060.37846 133731.21712,-4177228.06162 133647.149454,-4177391.88671 133578.433113,-4177526.01766 133570.452412,-4177648.87296 133651.315348,-4177730.51594 133797.568762,-4177768.47292 133809.397836,-4177863.72441 133843.747906,-4178081.94694 133672.509008,-4178216.5087 133581.44214,-4178491.70745 133472.983368,-4178588.03117 133306.634523,-4178554.66901 133248.86321,-4178431.48644 133112.614864,-4178405.73287 133020.747829,-4178522.39411 132979.868191,-4178739.09788 132875.254946,-4179066.02991 132687.556251,-4179433.79022 132528.935474,-4179822.64028 132496.453339,-4180143.52759 132509.049027,-4180411.31785 132404.563869,-4180533.72499 132287.542283,-4180707.38591 132084.563253,-4180779.29778 131928.265148,-4180780.64254 131643.948411,-4180955.42596 131583.528521,-4181248.24538 131444.404096,-4181414.45881 131195.813499,-4181454.44515 130980.484029,-4181494.10292 130836.79166,-4181552.20948 130693.776441,-4181675.83841 130358.096004,-4181682.56161 130222.040508,-4181746.32297 130137.570527,-4181967.14677 130124.265096,-4182167.90484 130038.37055,-4182310.68948 129887.958175,-4182429.16809 129684.168428,-4182454.55643 129590.223077,-4182612.18038 129603.129581,-4182765.4614 129688.834307,-4182929.21388 129810.277076,-4183155.69647 130003.255373,-4183306.61358 130075.781974,-4183479.10132 129970.598968,-4183536.98507 129849.223073,-4183530.03309 129730.562019,-4183698.15942 129745.177974,-4183952.48875 129802.507049,-4184233.68435 129747.260226,-4184394.09029 129699.122504,-4184549.13907 129632.646188,-4184671.31306 129690.545012,-4184800.49982 129881.750501,-4184816.36345 130073.640311,-4184860.24468 130130.57224,-4184975.41009 130093.764604,-4185114.18562 129894.182828,-4185191.1654 129837.00683,-4185298.52527 129857.84004,-4185455.46737 130104.419865,-4185576.9639 130185.852703,-4185704.62598 130195.312956,-4185941.84953 130130.080903,-4186039.54546 130085.123755,-4186185.6575 130116.01484,-4186389.30937 130051.19419,-4186479.01251 130014.860981,-4186693.30814 130146.694435,-4186950.00625 130262.269542,-4187120.36416 130275.241018,-4187295.15036 130275.342209,-4187488.17918 130447.442549,-4187707.18576 130534.631347,-4187846.96631 130656.780506,-4188038.46028 130695.517688,-4188200.26536 130854.230277,-4188326.98891 131036.446636,-4188305.16635 131168.986958,-4188328.84678 131328.742427,-4188540.10336 131468.28112,-4188761.95319 131511.850454,-4189006.36788 131462.043066,-4189305.90438 131481.429307,-4189497.32321 131292.057863,-4189650.51981 131121.23697,-4189826.09424 131000.46592,-4189937.67052 130909.701979,-4190073.85643 130862.562735,-4190228.92627 130755.704415,-4190406.79298 130563.373848,-4190557.92917 130413.680876,-4190714.92748 130401.289726,-4190882.70108 130492.568262,-4190968.55738 130615.706882,-4191111.06545 130667.59147,-4191315.1429 130568.852032,-4191437.6657 130389.29046,-4191575.55783 130281.772963,-4191699.40341 130305.94756,-4191888.91905 130387.856864,-4192079.60136 130374.725468,-4192296.36732 130438.626289,-4192598.7021 130446.683201,-4192892.90754 130284.641876,-4193005.14982 130225.48449,-4193210.48435 130155.447881,-4193521.1144 130187.409761,-4193807.80201 130017.313775,-4194046.39984 129837.800966,-4194280.80671 129783.189379,-4194545.74191 129750.670737,-4194769.11751 129600.314687,-4194934.10332 129408.535342,-4195070.24774 129180.740376,-4195182.16069 128971.510244,-4195389.96274 128789.041079,-4195560.30004 128680.011603,-4195783.62926 128578.292836,-4196041.11124 128452.964613,-4196650.1678 128495.146558,-4196963.06658 128459.655928,-4197333.40408 128463.466129,-4197837.55605 128540.794877,-4198168.16848 128537.835889,-4198351.63613 128502.384225,-4198769.48221 128501.49687,-4199172.02489 128447.592335,-4199896.54483 128278.933716,-4200039.15687 128120.04649,-4200254.97751 128170.487782,-4200555.04291 128234.668129,-4200843.38446 128313.693896,-4201090.0199 128278.383967,-4201265.83299 128197.96589,-4201619.76149 128128.946342,-4201966.41944 128133.950983,-4202300.0722 128124.997997,-4202458.4157 128157.724754,-4202571.0949 128260.716806,-4202671.1929 128269.976034,-4202843.90699 128294.120938,-4203108.93653 128352.811457,-4203310.15472 128333.693066,-4203637.31943 128251.502683,-4203819.18605 128065.302464,-4204025.45328 127978.643894,-4204292.24288 127994.841445,-4204418.59034 127900.017968,-4204582.19862 127763.512745,-4204754.46532 127682.285633,-4204962.8556 127538.640435,-4205141.97894 127433.566379,-4205317.88178 127457.899757,-4205672.43016 127479.664132,-4205980.91945 127499.034303,-4206222.34976 127442.752634,-4206421.24327 127299.248331,-4206593.36836 127204.847354,-4206785.48979 127193.486319,-4206976.29062 127231.794963,-4207159.09487 127135.154492,-4207437.18494 127001.842292,-4207674.02659 126967.801611,-4207799.35827 126934.308424,-4208021.21667 126847.497463,-4208159.48302 126660.640379,-4208299.22577 126531.927667,-4208531.15961 126373.282907,-4208759.48732 126249.507984,-4208994.5215 126245.967906,-4209169.47836 126262.997798,-4209365.85492 126251.693562,-4209566.15895 126185.453352,-4209762.85101 125854.525589,-4210176.72344 125604.698834,-4210586.23589 125475.602731,-4210911.17723 125399.179802,-4211252.68719 125290.447981,-4211411.51324 125174.542815,-4211591.19757 125044.290995,-4211812.59846 124874.146617,-4211917.17266 124599.12109,-4212089.13545 124481.793829,-4212277.2922 124407.986216,-4212464.82959 124383.024924,-4212660.35689 124384.181692,-4212837.90985 124388.456145,-4213145.54769 124438.275104,-4213389.59683 124576.372282,-4213595.92647 124611.589483,-4213820.177 124625.512161,-4214083.50324 124566.681026,-4214309.3507 124506.869295,-4214497.17192 124489.047404,-4214685.84321 124511.373562,-4214966.34286 124552.288426,-4215193.20975 124579.287556,-4215415.79435 124560.846831,-4215721.47352 124559.25408,-4216059.49947 124427.336478,-4216214.85587 124151.360491,-4216458.31115 124036.47293,-4216637.01621 123981.952574,-4216810.44246 124002.102914,-4216951.37481 124071.036112,-4217115.79888 124015.304069,-4217336.70899 123948.949035,-4217538.90081 124035.928529,-4217701.1901 124210.178818,-4217739.72465 124479.430308,-4217927.20864 124577.122421,-4218029.70447 124722.16256,-4218177.16683 124695.158793,-4218337.64848 124684.192515,-4218533.46111 124662.002922,-4218752.5507 124551.702974,-4218852.83535 124395.187853,-4218975.68826 124182.118803,-4219125.4008 124098.528981,-4219240.22871 123941.848555,-4219383.58171 123816.839807,-4219531.0767 123819.302696,-4219755.16647 123768.813843,-4219914.67257 123803.360106,-4220727.51784 123698.729776,-4221214.48688 123728.73006,-4221461.63919 123817.015937,-4221596.45158 123842.032714,-4221743.98504 123834.094853,-4221938.35971 123854.522551,-4222164.31469 123902.260105,-4222288.80426 123982.672554,-4222404.95409 124134.936559,-4222492.05375 124260.974709,-4222664.13796 124365.511378,-4222860.79135 124543.671695,-4222940.91427 124692.027478,-4222986.42716 124769.082729,-4223095.50791 124786.303332,-4223195.87533 124741.635876,-4223302.49059 124620.677908,-4223398.05875 124496.62034,-4223572.57881 124383.06674,-4223722.30696 124245.985196,-4223922.56799 124266.560766,-4224116.52101 124366.028036,-4224353.58008 124455.190984,-4224654.94272 124526.948493,-4224914.44514 124557.383641,-4225140.10435 124497.000829,-4225355.92229 124542.327631,-4225562.37968 124493.8545,-4225807.44458 124310.554742,-4225919.25304 124132.631461,-4225963.15734 123970.800129,-4226101.40554 124020.327548,-4226223.93223 124056.12632,-4226505.71138 124014.167827,-4226725.40359 123925.895137,-4226960.16053 123773.859072,-4227182.62336 123629.067963,-4227417.73538 123541.300801,-4227553.48348 123358.976369,-4227678.81379 123213.654356,-4227878.40807 123127.613367,-4228101.70803 122988.759103,-4228265.92646 122912.580795,-4228545.43722 123036.520717,-4228672.97339 123005.947928,-4229157.4486 122468.252864,-4229149.55136 122467.411913,-4229191.04242 122464.980232,-4229311.01659 120667.781721,-4229303.59241 116967.422669,-4229286.57468 112762.3293,-4229265.28893 111977.236913,-4229262.86218 110581.126046,-4229256.03636 107675.752378,-4229237.07488 104738.479052,-4229225.94922 104716.724227,-4229226.00756 100081.627364,-4229205.87867 91454.1997806,-4229052.53569 90493.4057769,-4229023.49736 87162.0759852,-4228919.23784 87157.8271852,-4228919.15141 86665.4689025,-4228171.54008 86298.1329546,-4227521.98616 86141.1123687,-4227300.76479 85917.7843908,-4227303.22303 85575.0746697,-4227409.76602 85023.9839228,-4227312.54489 84915.8348795,-4226815.28424 84295.6872438,-4226683.65459 83895.4417309,-4226189.4546 83892.5265144,-4225914.86293 84028.6145277,-4225776.11452 83907.174481,-4225674.13259 83719.1088848,-4225762.31782 83597.2167268,-4225608.82071 83629.4279835,-4225401.95183 83319.1623051,-4225302.62987 83141.6954004,-4224771.45971 82641.3752032,-4224587.76317 82071.8338275,-4224353.15308 81603.5827064,-4223945.08452 81270.1000672,-4223278.73041 81228.1137264,-4222540.29878 81328.5351248,-4222298.81581 81776.2883869,-4222362.4279 81842.7480403,-4222155.75761 81955.1709079,-4221151.93888 81542.1030332,-4221251.55034 81428.2988028,-4221069.21769 80957.1648961,-4220286.55952 80188.3838736,-4219743.37534 79843.9835771,-4219466.34636 79643.8520176,-4219029.23603 79318.237865,-4218898.10349 78933.6210549,-4218951.28824 78640.2107946,-4218810.30948 78258.6959902,-4218379.01338 78260.4134959,-4218085.52223 78104.5525804,-4217967.34285 77745.0059966,-4218091.04322 77502.9785978,-4217956.11036 77498.3093762,-4217509.47701 77321.6739375,-4217306.36838 77032.4000471,-4217207.97859 76774.1083958,-4217073.71576 75443.4785765,-4216755.13415 75058.3788972,-4216266.76554 74648.1111574,-4215798.88786 74238.874126,-4215329.5321 73861.1453642,-4214835.31628 73538.1911321,-4214303.2126 73249.6317803,-4213751.80809 72976.9896853,-4213192.22784 72725.8034623,-4212622.58433 72490.7435218,-4212046.76944 72306.0619561,-4211452.47861 72094.1761071,-4210868.13658 71177.0796343,-4209996.94679 70910.1111667,-4208985.96599 70171.48221,-4208399.9254 70218.771379,-4207696.85122 70031.5681414,-4207103.51858 69787.6780175,-4206531.53633 69389.5829969,-4206055.4267 68915.7528189,-4205652.28267 68396.7009161,-4205309.2233 67832.2306796,-4205048.24511 67293.7270386,-4204739.79314 66845.9289413,-4204310.68035 66528.8063963,-4203774.71974 66187.3680834,-4203254.26691 65853.0185601,-4202729.45918 65524.248196,-4202200.76589 65238.2089681,-4201648.44112 64949.9001355,-4201097.07151 64526.2817102,-4200646.95745 62769.7992358,-4201001.28906 62372.3251756,-4200421.20553 61725.1420391,-4199703.54999 61128.9437441,-4199134.43433 60308.8785818,-4198878.7765 59899.371243,-4198300.45557 58656.4123059,-4198618.21199 58152.6979854,-4197840.98 57160.0834363,-4196935.82236 56845.1745779,-4196020.43213 56348.1505447,-4195430.84404 55270.8818327,-4195161.47217 54271.692009,-4194605.1907 53364.2221883,-4193570.28374 53176.4498094,-4192684.99032 53272.9979243,-4192386.95692 53071.2705375,-4192065.86921 53038.6067028,-4191790.71263 53005.2375145,-4191365.54552 52831.0795762,-4191139.51623 52898.7069708,-4190948.39364 52907.7934036,-4190710.0841 52780.78984,-4190501.01195 52691.2627368,-4190859.68561 52373.8383625,-4190696.2475 52204.4349073,-4190346.81903 52041.9539153,-4190420.01935 51551.0819982,-4190168.06433 51287.5679176,-4189553.23564 51147.2245727,-4189262.39703 51315.506218,-4188866.32483 51637.4306687,-4188536.86763 51341.3336726,-4188110.87395 51066.4837085,-4188079.29854 51017.0458113,-4188285.78835 50674.2859109,-4188323.83232 50537.8548757,-4188086.5726 50760.348377,-4187803.09706 50720.1877908,-4187379.79756 50469.532901,-4187400.21161 50003.0721946,-4186869.26871 49511.9944105,-4186578.31817 49416.2906975,-4186144.8948 49284.6266558,-4185697.2431 48728.0249845,-4185173.47655 48144.6997353,-4184315.6859 47749.2674155,-4184251.6694 47106.9288506,-4183505.68089 47286.7804006,-4182513.88007 47092.1538916,-4181583.48418 46575.0745958,-4181243.52061 46492.8732424,-4180834.37756 46015.887537,-4180785.71138 45689.0445492,-4180470.60478 45116.6121013,-4180321.01044 44757.2723396,-4180425.21973 44013.3322199,-4180609.62668 43399.8350728,-4180451.20002 43178.8972648,-4179869.26116 42960.9876528,-4179285.88492 42765.7284679,-4178694.96945 42763.472883,-4178078.46823 42422.6106394,-4177567.09826 41883.7344665,-4177205.20592 41689.8789561,-4177124.78397 41423.5337463,-4177253.8769 40985.5990562,-4177203.00663 40766.3717896,-4176758.59988 40618.1746975,-4176793.59416 40429.9789364,-4177050.75977 40314.9865447,-4177272.9114 40024.5766945,-4177430.01327 39629.4168218,-4177365.51041 39317.6911508,-4177094.21607 39314.443878,-4176785.67661 39807.7056349,-4176351.20852 39598.3869323,-4176009.99629 40192.5712953,-4175369.08851 40545.7237596,-4174644.30282 40250.6642688,-4173907.88842 39267.1599639,-4172134.62659 39098.0239845,-4172376.68008 38974.3654153,-4172051.70559 38754.5877255,-4172362.72708 38410.2791509,-4172280.76265 38459.1028464,-4172005.27678 38684.2079441,-4171813.85233 38936.6173234,-4171508.49078 39214.6937958,-4171244.14463 38937.3064862,-4171141.03837 39025.7974644,-4170955.84678 39054.2807439,-4170635.45272 39163.596798,-4170384.6885 39195.3903533,-4169801.88543 38796.0721613,-4169325.3477 38638.1615515,-4168728.70809 38195.263778,-4168725.74557 37333.8318991,-4168788.30642 37240.4691785,-4169041.39184 36974.7387735,-4167089.71064 36788.1579977,-4166501.49598 36638.3910897,-4165897.52861 36476.3187147,-4165296.31293 36227.3120145,-4164729.33639 35782.3956322,-4164294.88502 35285.192348,-4163924.3707 34810.0213553,-4163539.80471 34624.7860011,-4162946.62581 34351.5976395,-4162388.66577 33883.4559716,-4161990.24751 33337.22344,-4161695.73974 33038.2043973,-4161154.25966 31922.181697,-4160914.73074 31353.3364237,-4160131.33137 31161.9916464,-4159630.02789 31065.5096375,-4159011.1571 31216.6789185,-4158519.27426 31576.4989865,-4158464.05109 31776.5501523,-4157878.66636 31358.9531058,-4157316.80173 31822.3944494,-4156512.26438 31559.5761017,-4156603.94469 31351.8255059,-4156506.26122 31488.1807477,-4155844.09956 31168.2651423,-4155718.15531 31018.6930786,-4155413.17435 30941.8638168,-4155256.64327 31002.2205313,-4154891.90932 31355.8529859,-4154833.55696 31448.6319839,-4154521.97017 31601.0486223,-4154104.10076 31681.6906832,-4153588.79453 31898.59536,-4152985.24962 31653.0611728,-4152455.86172 31275.6884715,-4152476.74299 30601.7056603,-4152046.69755 30518.9686132,-4151489.10187 30465.0696253,-4151249.0462 30662.1131994,-4151196.02907 30670.3568174,-4151035.21668 30464.3780325,-4150973.56891 30371.7133264,-4151056.68816 30256.5713912,-4151250.33904 30087.0197698,-4151266.41572 29982.9265419,-4151147.83135 30005.9677427,-4150724.35337 30229.3606281,-4150182.93312 29638.3059211,-4150202.00674 29635.7446637,-4149511.04942 30165.4849101,-4149594.72366 30242.3861871,-4149400.80093 30179.3606155,-4149278.54612 29835.8351286,-4149282.11662 29556.5157152,-4148804.04815 29519.5798357,-4148354.86488 29822.7948527,-4147995.02884 29807.8695491,-4147954.23342 29764.2623231,-4147835.87023 29593.4459586,-4147765.93531 29486.876834,-4147869.27215 29471.8927635,-4148066.94279 29333.43562,-4148202.132 29144.1716045,-4148303.30117 28663.4877048,-4147720.6892 28476.0419219,-4147272.97274 28319.9576719,-4146955.87067 28200.3815534,-4146712.4945 28220.8877971,-4146091.99645 27878.4202904,-4145671.15336 27534.4721658,-4145323.77084 27527.9251213,-4145065.67643 27375.647832,-4144807.645 27097.7265333,-4144967.02031 27106.3737864,-4145282.14823 26679.6217673,-4145198.55911 26182.3526536,-4143689.76381 25804.9870565,-4143450.19642 25482.2121072,-4143205.73038 25718.264038,-4142767.05336 25629.3132709,-4142628.78249 25324.3707029,-4142715.12585 25226.4700915,-4142400.70215 25029.2054477,-4141794.82244 24950.8844968,-4141178.3409 25254.4330225,-4140900.49742 25251.3965194,-4140591.984 25112.333588,-4140447.20602 24922.4267205,-4140319.90164 24776.7987644,-4140240.48157 24355.9283692,-4140361.4875 24020.9227585,-4140240.26077 23986.2105828,-4140027.59573 24269.9510972,-4139876.83299 24304.6703788,-4139505.59088 24312.7074577,-4139416.76676 24575.136281,-4139294.06967 24103.211588,-4139058.10598 24273.0106491,-4138868.05451 24530.989729,-4138916.74031 24665.930286,-4138868.96437 24300.5423968,-4138655.14249 24281.9876731,-4138459.30002 24704.9637892,-4138196.35567 24880.0986381,-4138014.40932 25170.4529209,-4137559.82406 25389.5496858,-4137242.78254 25420.6677901,-4136950.95375 24536.0570778,-4135894.81821 24308.5805141,-4135584.79051 24516.0471171,-4135559.96835 24757.9829155,-4135722.81024 24816.5909655,-4135456.03108 24473.9916238,-4135202.67857 24777.8466155,-4135070.81187 24953.42794,-4135251.81578 25263.8517722,-4135191.07007 25206.8962964,-4134990.45533 24976.3713453,-4134844.34076 24882.2292168,-4134528.99621 24587.0747607,-4134253.10266 24752.4590945,-4134008.96729 25372.4854053,-4133990.44042 25244.537073,-4133056.51129 25670.2772858,-4132991.58236 25538.9545506,-4132759.97712 25203.1825797,-4132651.74223 25182.1874938,-4132427.85468 25606.5674139,-4132467.88132 25820.1575318,-4132287.70329 25479.2107706,-4132150.86922 25359.8517822,-4131908.50673 25513.3918669,-4131756.1169 25524.5866036,-4131547.37391 25168.1935555,-4131358.23854 25125.0651041,-4131078.91473 25501.4818135,-4131017.99047 25540.9333584,-4130982.78887 25791.0962077,-4130761.35099 25422.8432083,-4130316.51727 25552.2693735,-4130020.66368 26026.6794187,-4129884.71848 26141.0577749,-4129653.55186 26095.7999643,-4129467.67032 25997.8926788,-4129264.73346 26036.3984224,-4129077.53539 25681.2953004,-4129072.90081 25528.1049371,-4128909.34763 25545.2583717,-4128764.71433 25764.8639368,-4128571.15603 25814.4632323,-4128267.19853 26036.2257323,-4127978.6972 26237.8827723,-4127882.26278 26402.2250752,-4127615.10402 26729.4863845,-4127599.68035 27003.0577932,-4127345.21314 27119.0731362,-4127119.57648 27041.7015137,-4126927.05051 26909.0388571,-4126749.41194 26660.1188529,-4126585.43661 26490.5416876,-4126217.08534 26484.8850031,-4125577.56634 26282.1374015,-4125305.03561 26058.3469725,-4125221.55458 26073.2343017,-4125015.38427 25881.9900128,-4124742.58538 26065.0292655,-4124191.34241 25876.6616367,-4124211.05803 25958.0373178,-4123780.75588 25788.3653734,-4123715.85976 25640.607174,-4123567.9161 25762.7589527,-4123434.88789 25955.1426366,-4123439.24872 26165.1967411,-4123297.98584 26203.3063572,-4123142.77373 26028.7135967,-4122675.339 26175.2782215,-4122596.29209 26281.2392938,-4122908.87245 26485.2907728,-4123153.93174 26344.0111017,-4123405.55901 26405.0077392,-4123691.74113 26609.9329766,-4123581.87071 26722.576468,-4123362.16387 26558.933539,-4122959.43834 26556.0772579,-4122927.38571 26505.1307243,-4122389.44213 26616.1581133,-4122262.68874 27361.9609997,-4121631.74556 27327.4529056,-4121420.58335 26904.0770101,-4121367.5962 26758.6128591,-4120930.74096 26988.7532051,-4120660.39709 27022.98616,-4120287.13752 27084.2197488,-4119626.96048 27000.8883897,-4119382.32413 26747.8050505,-4118640.35511 26221.6762134,-4118363.84474 26232.5366717,-4118233.5815 26205.4020495,-4118016.06912 26124.0170983,-4117362.53262 26102.0670798,-4117185.61834 26069.8018819,-4117024.49499 25962.7706589,-4116789.88361 25846.0124988,-4116604.07028 25673.1352313,-4116412.13313 25379.4580788,-4116123.78924 25171.4787553,-4115962.14472 25016.5498944,-4115810.06227 24763.406345,-4115357.55675 24872.1355519,-4115108.27291 24836.9564653,-4114780.6169 24903.238187,-4114541.48064 24895.5708323,-4114287.86476 24862.3840239,-4114135.22256 24801.883989,-4113923.54197 24718.9407028,-4113559.43455 24678.9010362,-4113274.6749 24608.8533629,-4113140.29178 24606.2622266,-4112870.28013 24625.0679413,-4112642.69069 24639.3146234,-4112468.00201 24668.6242342,-4112240.12286 24645.352114,-4112029.18807 24919.1853301,-4111885.6932 25271.6991722,-4111595.29512 25342.938989,-4111195.77972 25478.6799543,-4110433.60773 25619.2693277,-4109466.56086 25913.6185781,-4107835.68296 26063.4153238,-4106595.35341 26581.4127214,-4103692.11071 26896.9270705,-4101963.64864 27191.6441163,-4100324.75259 27409.852868,-4099111.76792 28618.1016513,-4091766.77884 28772.8432862,-4090826.47285 29147.988628,-4088686.19217 30522.5965918,-4080468.41114 31126.7595054,-4076639.27601 31351.1660416,-4075273.35417 31509.43003,-4074455.0683 32048.759219,-4071582.51236 32747.5582833,-4067866.65493 32781.1681399,-4067609.33907 32783.8340811,-4067588.39336 33131.9026829,-4067357.32257 33299.0289434,-4067010.6638 33504.6218466,-4066841.75798 33997.7212398,-4066873.05162 34297.6783545,-4066383.538 34346.2642631,-4066077.02006 34836.4555219,-4065587.78285 35031.6415023,-4065326.17315 35153.1687084,-4065123.09715 35527.3530405,-4065062.53197 35792.3405753,-4065465.27572 36075.3436982,-4065313.40444 36481.925113,-4065547.46999 37551.4837358,-4065554.71765 38079.6954295,-4065580.71089 38876.0527201,-4066466.9997 39046.1029052,-4066816.36556 39673.505357,-4066782.33638 40120.3617842,-4066864.21511 40529.7681962,-4066729.85733 40882.5718738,-4066613.37376 41466.1377178,-4066256.98414 41501.231638,-4066491.17479 41852.152253,-4066658.14557 42270.2222401,-4066641.45691 42613.0695829,-4066334.28056 42819.7357159,-4066363.38819 42975.8045243,-4066485.48781 43326.6291145,-4066506.46189 43498.5045194,-4066487.37939 43483.057623,-4066711.06716 43519.1526711,-4066882.28084 43915.5655803,-4067049.65899 44088.7706233,-4067202.59967 44275.0744839,-4066960.80938 44363.8168966,-4066785.07753 44634.6818544,-4066854.46206 44765.8761763,-4066932.56932 44843.4281085,-4067143.60744 45340.3729805,-4067070.49109 45390.1677546,-4067206.47899 45667.0748793,-4067135.48707 46204.5813546,-4067662.669 47161.1014999,-4068163.68874 47231.3473723,-4068302.08439 47653.5748054,-4068403.48317 47799.5665505,-4068227.88965 47960.629062,-4068212.09414 48253.463589,-4068345.91889 48440.7474696,-4068155.64679 48592.451281,-4068208.16462 48752.2607622,-4068443.84237 49180.6037168,-4068313.36619 49350.201037,-4067981.74262 49509.0171702,-4067789.90343 49980.442624,-4067642.78365 50546.4774761,-4067653.54612 50836.2546769,-4067777.8121 51241.6616129,-4067857.87939 51373.6281847,-4068249.00601 51705.2729675,-4068518.1067 52234.2955252,-4068228.13482 52352.3964338,-4067996.98431 52642.6252954,-4067822.25951 52782.9974956,-4067590.05168 53467.505212,-4067640.17524 53867.9097401,-4067745.64563 54237.1061334,-4067635.49294 54472.9536056,-4067203.6819 55106.8899407,-4066993.79643 55716.0446863,-4066860.91884 56179.0206285,-4066774.63261 56941.1091721,-4067059.8085 57170.0487815,-4067452.37453 57533.6782041,-4067634.6181 57780.4409856,-4067923.0377 58055.0550298,-4068005.50761 58477.3914023,-4067373.90169 58735.0447793,-4067253.52869 59147.1270454,-4067199.73231 59475.9186437,-4067122.77693 59743.0792078,-4067228.0998 60103.6913723,-4067285.78245 60395.2540357,-4067283.08848 60551.2098366,-4067436.19909 61339.3796391,-4067290.89091 61833.7325481,-4066960.22456 62228.5795272,-4066956.08818 62533.3053345,-4067146.16459 62791.3234857,-4067158.3042 63214.4736689,-4066812.7186 63750.826948,-4066745.89892 64115.8801215,-4066907.17737 64443.8568243,-4067072.21795 64635.713856,-4066753.52555 65037.5300145,-4066726.02862 65719.6215557,-4066999.13 66032.0786027,-4066951.85278 66118.8140773,-4066764.57155 66294.3508667,-4066738.06743 66384.6107981,-4066888.37326 66918.7104787,-4066960.01844 67316.2772074,-4067020.44321 67298.8412977,-4067268.10879 67262.6444772,-4067553.90235 67514.4650062,-4067663.92623 67645.4047369,-4067454.02453 68016.1778318,-4067328.40646 67980.6403609,-4067192.19088 68289.6350748,-4067205.84919 68463.7044915,-4067478.83322 68421.7112939,-4068093.02986 68553.6529942,-4068347.17336 68865.5343136,-4068178.3805 69073.3154079,-4068365.53241 69169.2542372,-4068544.45468 69332.2981677,-4068542.70463 69312.0337478,-4068217.28243 69466.481921,-4068232.86191 69612.6729948,-4068248.77688 69786.1875754,-4068461.74788 69992.8812822,-4068527.87203 70172.062461,-4068406.43692 70283.1213077,-4068353.64776 70361.1096514,-4068429.70694 71145.9897668,-4068851.87993 71538.3118555,-4068598.68645 71718.6815682,-4068605.7831 71869.9741583,-4068829.81366 72068.1887953,-4069020.27789 72416.9669238,-4069283.2493 72630.2303953,-4069371.00767 73000.933636,-4069863.43198 73903.1891554,-4069991.43565 74779.6480071,-4069219.36454 75822.9372812,-4068857.64771 76262.3038897,-4069041.4252 76582.0116753,-4069270.31976 77003.0084949,-4069334.72307 77499.676281,-4069503.64453 77730.2307434,-4069476.74223 77943.6769823,-4069580.50884 78017.8825357,-4069783.50517 78312.4273142,-4069769.88107 78641.6242845,-4069823.95388 78791.2334383,-4069981.9517 79366.8191091,-4069967.43623 79759.7349854,-4069985.77861 79871.9337271,-4070089.02614 80023.0003851,-4070199.04997 80533.0093631,-4069962.70867 80742.4146217,-4069993.39047 80814.9582061,-4070404.87293 80961.7762041,-4070514.81253 81081.506108,-4070453.69713 81199.2593195,-4070203.52618 81569.2177502,-4070319.92035 81687.7633575,-4070130.27015 81727.760174,-4069855.04455 82002.5653941,-4069878.53155 82349.1056031,-4070090.96729 82795.9716556,-4070500.42376 83230.7098387,-4070878.6363 83788.2867947,-4070864.76697 83944.1733633,-4071008.89241 84919.6846309,-4070724.84365 84983.6392644,-4070226.57364 85003.46366,-4069634.41302 85189.4176249,-4069349.598 85266.2209326,-4068959.0933 85877.6675028,-4068977.30182 86002.933664,-4069089.81386 86168.1317357,-4069018.10487 87165.8729445,-4068986.02224 87520.4594659,-4068720.57479 87748.682856,-4068748.13454 88521.9759462,-4068775.07829 88705.1773558,-4068953.75555 89629.6159111,-4068911.71208 89961.4473418,-4068834.33067 90246.1565904,-4068524.98264 90294.811321,-4068479.94934 90688.6373531,-4068465.81298 90798.8491309,-4068217.98632 90864.6282233,-4068141.79144 91067.3594926,-4068118.83767 91434.819876,-4068335.7012 91605.3576813,-4068197.0915 91471.5123797,-4067675.35859 91545.5525608,-4067348.29954 91905.20845,-4067267.47278 92412.3077681,-4067365.61186 93074.9549396,-4067512.36425 93343.130145,-4067530.22291 93487.7281119,-4067463.60318 94047.2644535,-4067577.79369 94166.0677563,-4067413.14689 94460.9689138,-4067557.5554 94729.5540811,-4067542.41897 95021.4795634,-4067360.22831 95413.2216122,-4067363.05462 96346.0058173,-4066829.12248 96474.0483152,-4066690.16279 96675.6867496,-4066859.71294 96818.7256004,-4066733.5545 97133.8100423,-4066718.84772 97232.6554858,-4066289.26675 97862.9673773,-4065802.29551 97652.3340127,-4065307.02163 97801.3531264,-4064756.42487 98399.5103303,-4064527.34307 98878.6009303,-4064350.88984 99615.7775594,-4064309.6116 99689.3571823,-4064806.65072 100219.405547,-4064595.21184 100847.526077,-4064168.20193 101143.917417,-4063412.51575 101496.47454,-4063237.03446 101871.012977,-4063463.05094 102703.324981,-4063666.2123 106778.001372,-4062237.43083 107829.536927,-4062068.9236 108235.579793,-4062070.04086 108736.859083,-4061822.52205 108814.551444,-4061988.60225 108767.643539,-4062196.19812 108872.489364,-4062392.326 109274.173542,-4062311.34385 109453.090826,-4062216.90569 109707.880247,-4062104.48155 109935.776566,-4062149.0455 110219.779932,-4062351.25738 110716.962707,-4062971.30115 111186.810818,-4063470.27929 111617.778351,-4063687.93442 112021.69145,-4064033.07 112354.541569,-4064268.26658 112692.920848,-4064414.55952 112983.813091,-4064334.86547 113179.225843,-4064503.30258 114172.2334,-4065410.81998 114359.104672,-4065793.62247 114273.887187,-4066353.50941 113667.587429,-4066613.41958 113430.972273,-4066729.7038 113423.790906,-4066963.59789 113642.051841,-4067452.04415 113565.532707,-4067952.09302 113362.208411,-4068166.55825 113685.051993,-4068689.10229 113971.789614,-4068866.86931 114126.546286,-4069192.51843 114174.537304,-4069580.5404 114014.68097,-4069846.88262 114283.233434,-4069958.77575 114289.02697,-4070206.43065 114637.607392,-4070429.94364 114867.822167,-4070396.0469 115363.589052,-4070948.55912 115644.272461,-4071291.23271 115944.959917,-4071271.75001 115998.682883,-4071810.41056 116554.405265,-4071903.55295 116685.238433,-4072437.25697 116657.5489,-4072995.78998 116647.260918,-4073347.13871 116330.397363,-4073724.85139 116473.366646,-4074226.79207 116755.45347,-4074649.00683 117063.695608,-4075001.23499 117277.216431,-4075189.04084 117785.766013,-4075327.74933 118099.509589,-4075580.0734 118668.265266,-4075696.48576 118952.690432,-4075827.20443 119001.075326,-4076170.22701 118926.604515,-4076405.27124 118745.954488,-4076523.66998 118503.092957,-4076564.81039 118333.982286,-4076631.43238 118165.048636,-4076776.56988 118190.120951,-4077072.61727 118303.775591,-4077252.92186 118585.892059,-4077336.58726 118853.881824,-4077426.47073 118986.18085,-4077624.65193 119001.27645,-4077881.99358 118731.759534,-4077980.60785 118665.765709,-4078229.32302 118769.43227,-4078408.92747 118897.192898,-4078584.01409 119084.02609,-4078818.2935 119131.300167,-4079141.78955 119026.138673,-4079548.24289 119153.422246,-4079647.30865 119353.365714,-4079564.30344 119500.994963,-4079646.27452 119470.670529,-4079911.70651 119683.857784,-4080540.07325 119641.547174,-4080779.76081 119575.875123,-4080962.47155" style="stroke-linejoin:round;stroke:#000;stroke-width:1px;fill:none" /></g></g></svg>