<svg xmlns="http://www.w3.org/2000/svg" baseProfile="full" height="87831.6889365" version="1.1" viewBox="-9015.900907,3809712.747691,136502.502641,87831.688936" width="136502.502641"><defs><style type="text/css">polyline,line,rect,path,polygon,.polygon{fill:none;stroke:#000;stroke-width:1px;stroke-linejoin:round;}</style></defs><g fill_rule="evenodd" transform="scale(1,-1)"><g class="id" id="50063"><polygon class="_50063" id="None" points="108701.735982,-3848430.59786 109240.225038,-3848481.57181 109087.955053,-3849166.1893 109009.012893,-3849592.12967 109632.429274,-3849743.32556 109289.983526,-3850630.18189 108799.757902,-3851675.88969 108514.562286,-3852338.94676 108203.621543,-3853061.01348 108190.712184,-3853091.51791 107979.776706,-3853753.89715 107615.485295,-3854898.8684 107354.817587,-3855718.32717 106143.119469,-3855531.21077 106122.497642,-3855527.92595 105706.729835,-3856744.40819 105591.260397,-3856993.47209 105431.723927,-3857336.34265 105394.679162,-3857416.41921 105186.437235,-3857876.41535 105204.25866,-3857887.59258 105714.417475,-3858209.47981 105852.073312,-3858296.71135 106575.164909,-3858685.20464 107194.580419,-3859288.72076 107650.1851,-3859579.54188 107955.081195,-3859686.14617 108103.343246,-3859737.78916 108479.679521,-3859832.61802 108485.61297,-3859834.34391 108314.195965,-3863446.33739 108309.301211,-3863450.15025 108317.730668,-3863451.97144 108351.391402,-3863460.75385 121623.591737,-3866644.14379 123235.769897,-3867031.12178 126857.558133,-3867899.75398 126853.891852,-3867904.11408 126749.414394,-3868034.62732 126694.473194,-3868085.53095 126425.986943,-3868334.28591 126185.547546,-3868496.61124 126040.363005,-3868757.06871 125841.319594,-3869092.46972 125684.782771,-3869217.99523 125555.931828,-3869456.57496 125695.249365,-3869598.88851 125692.708596,-3869894.78694 125446.076085,-3870153.87137 125552.751142,-3870430.93769 125349.766456,-3870954.68251 125285.70678,-3871146.23439 125298.893642,-3871259.23579 125127.598568,-3871483.19396 124998.616888,-3871679.2673 124898.112097,-3871875.92734 124853.762654,-3872101.23024 124880.966285,-3872213.7666 124714.587331,-3872308.91348 124807.376527,-3872523.95162 124707.986492,-3872593.15603 124624.695981,-3872757.97312 124623.064774,-3872761.41078 124647.919165,-3872987.85529 124591.997426,-3873038.21931 124477.312698,-3873141.33873 124560.030045,-3873325.49325 124485.751018,-3873719.14953 124424.705758,-3874198.30927 124436.792369,-3874438.26622 124461.510949,-3874668.20585 124390.365517,-3874874.98497 124276.35399,-3874986.62867 124149.00086,-3875041.76382 124117.208625,-3875422.54195 124029.756553,-3875689.69638 124016.879533,-3875935.19957 123996.097086,-3876204.40034 123885.646359,-3876497.67527 123708.928626,-3876791.41831 123701.467153,-3877045.62793 123663.326928,-3877101.66964 122997.819452,-3877776.22739 122741.313726,-3878293.41317 122579.247067,-3878674.71017 122450.955759,-3878976.79944 122342.87835,-3879574.15301 121769.952878,-3880808.7189 121777.569884,-3881446.4921 121397.564667,-3882303.43783 121338.807942,-3882395.18833 121056.656434,-3882837.38532 120640.761298,-3882658.48632 120308.684803,-3882660.78695 120216.949552,-3882974.26755 119896.34937,-3883565.48432 119638.232144,-3883804.10256 119646.921742,-3884034.42618 119467.478209,-3884203.05561 119520.099947,-3884337.06339 119798.507236,-3884339.21334 119866.834985,-3884467.82245 119671.212909,-3884588.83461 118998.023845,-3884895.06895 118829.733908,-3885053.12395 118849.850698,-3885494.37536 118014.467779,-3886295.87522 117388.592479,-3889415.27739 116948.022177,-3891062.83198 116599.318588,-3892367.41603 116177.069552,-3892824.71865 115741.799368,-3893269.52063 115284.366984,-3893692.47213 114828.163285,-3894115.96821 114357.999813,-3894401.43466 114137.705448,-3894559.483 114007.748212,-3894819.48716 113997.190364,-3894840.58128 113992.634009,-3894939.90085 113978.574705,-3895052.35543 113982.834106,-3895313.00355 113967.002867,-3895386.89246 113944.680639,-3895454.03295 113867.558796,-3895529.07244 113829.89067,-3895566.12641 113761.795909,-3895660.0107 113725.646317,-3895709.62209 113716.711066,-3895805.77391 113716.903276,-3895807.28119 113714.160859,-3895833.17454 113732.414983,-3896080.8598 113721.034871,-3896279.91196 113688.427063,-3896400.15491 113642.448859,-3896471.38809 113636.056107,-3896481.64241 113602.553081,-3896507.85645 113566.726935,-3896535.9813 113532.436778,-3896563.16508 113411.56735,-3896586.02978 113394.094888,-3896591.85957 113375.047351,-3896593.12923 113204.905981,-3896603.60557 113183.861523,-3896604.79868 113160.627115,-3896597.90831 113090.424675,-3896577.21808 112974.502356,-3896542.77587 112780.763907,-3896405.85682 112586.513817,-3896321.41504 112563.951795,-3896316.55037 112449.048293,-3896288.14705 112391.827053,-3896274.45419 112372.779646,-3896275.72387 112338.716979,-3896277.41785 112218.135601,-3896292.79391 112053.070928,-3896353.46139 112004.328162,-3896425.0877 111927.920306,-3896527.15119 111877.504327,-3896577.21474 111870.746362,-3896583.95517 111792.067979,-3896647.43413 111705.514362,-3896688.11267 111635.169006,-3896749.41117 111634.113123,-3896750.87058 111580.225597,-3896832.7986 111573.374283,-3896861.53386 111554.35002,-3896894.80205 111553.913695,-3896938.78221 111553.798848,-3896941.77759 111551.855797,-3897070.69398 111528.150865,-3897141.28004 111520.837773,-3897162.49812 111478.817478,-3897254.38033 111418.510136,-3897282.06583 111344.493885,-3897315.22521 111256.421884,-3897343.34593 111220.229244,-3897354.95722 111138.3931,-3897344.31983 111134.612117,-3897358.17383 110692.800635,-3896904.26599 110415.056057,-3896722.1301 110351.598725,-3896577.70827 110258.794516,-3896527.15387 110147.310135,-3896181.40708 109892.133878,-3895899.64662 109727.365795,-3895854.83321 109569.040926,-3895896.25955 109484.235691,-3895780.51802 109313.523378,-3895642.98493 109171.684589,-3895469.56225 109108.91088,-3895268.17351 109044.999665,-3895181.23113 108836.410039,-3895236.22954 108665.282188,-3895148.67704 108530.664061,-3894982.53166 108438.619438,-3894860.01453 108366.998065,-3894837.27105 108336.191483,-3895067.06839 108250.757588,-3894987.30069 108239.313334,-3894685.89066 108196.869542,-3894606.27122 107873.899705,-3894632.38789 107738.524237,-3894544.70697 107704.761459,-3894336.43337 107605.136552,-3894242.1239 107684.903424,-3894156.69007 107585.582843,-3894041.39452 107420.68762,-3894032.57476 107421.972976,-3893881.6394 107394.329867,-3893781.0901 107196.60326,-3893781.01126 107017.313953,-3893815.13549 106935.395795,-3893748.00257 106903.829388,-3893599.80827 106841.954526,-3893518.44528 106715.215268,-3893538.08539 106608.167031,-3893493.98705 106615.95068,-3893408.29463 106537.830551,-3893313.81064 106408.483417,-3893355.84841 106378.243213,-3893499.17367 106314.129205,-3893469.71944 106244.439806,-3893246.57291 106092.452221,-3893403.23006 105826.003537,-3893500.50624 105828.729348,-3893214.14309 105635.324711,-3893212.23038 105536.513638,-3893024.96466 105386.856803,-3892951.23723 105328.724441,-3892994.00417 105154.966738,-3893164.32434 105018.853466,-3893141.60992 104956.310996,-3892947.23588 104770.820384,-3892823.64128 104584.350466,-3892836.49277 104449.125175,-3892705.82593 104254.853172,-3892804.86771 104176.37342,-3892739.36789 104141.991327,-3892638.56271 104135.714026,-3892508.83836 103925.185764,-3892373.28674 103749.942693,-3892341.07453 103636.434151,-3892217.74011 103472.337761,-3892122.96342 103289.596153,-3892012.47439 103165.451095,-3892160.19707 103103.04184,-3892092.81414 103022.254141,-3891996.23081 102628.193474,-3891979.63075 102537.083261,-3891930.64563 102476.504113,-3891769.846 102320.013519,-3891685.36035 102069.841933,-3891697.27118 101913.871509,-3891488.32327 101689.125546,-3891397.72329 101270.315569,-3891348.68044 100850.765889,-3891221.12096 100598.115708,-3891069.46155 100181.546939,-3890831.53426 99894.8150957,-3890786.55337 99679.4993428,-3890697.81616 99430.1415965,-3890597.27653 99863.939969,-3889126.13125 100939.731428,-3885236.44256 100761.260258,-3885275.604 100602.408094,-3885403.00242 100316.357439,-3885307.56643 99992.0118047,-3885461.62407 99719.3076709,-3885481.18021 99512.2268549,-3885392.76654 99318.6552524,-3885369.35942 99132.32208,-3885346.22939 98961.6718138,-3885200.72057 98725.1138935,-3885177.16794 98546.0387378,-3885153.81602 98289.433137,-3885001.0184 97988.0473341,-3885012.47789 97666.8324023,-3884830.21267 97509.5647789,-3884785.69979 97367.0110933,-3884676.76195 97273.7460479,-3884697.18772 97010.1049748,-3884486.63313 90762.6998512,-3880592.33114 90313.9865526,-3880326.22388 85938.4727871,-3877584.52519 83980.2065435,-3876585.90446 83955.9195022,-3876573.97901 83100.8605359,-3876137.40452 80298.3738697,-3874707.67324 78681.1631917,-3873883.10573 78094.2645802,-3872296.19072 76982.653203,-3870018.97756 75927.7116778,-3868521.69633 73891.5112517,-3866202.27144 72545.9174632,-3864947.37051 72371.2093767,-3864784.26355 70018.3690047,-3862589.82595 67483.8247133,-3860226.10541 47623.0070771,-3850719.95669 38937.238055,-3867811.68234 29399.189377,-3880035.8777 19885.8075126,-3893027.54551 19992.372424,-3892321.68348 19908.6275809,-3892056.66593 19964.0090207,-3891714.05782 20026.8748973,-3891423.6973 20057.6510661,-3890980.22022 20068.8240295,-3890702.36269 19981.7900981,-3890353.78457 19974.1038223,-3890144.15015 19953.3855117,-3889877.05911 19910.8357902,-3889690.56723 19752.1787252,-3889457.14957 19670.6915498,-3889185.22791 19456.7841976,-3889115.56163 19314.25865,-3888806.8241 19188.1267054,-3888617.62441 19194.104807,-3888214.66751 19048.2628278,-3887972.75266 18892.7696401,-3887734.96448 18797.5795669,-3887462.02107 18592.932241,-3887281.30126 18351.3711251,-3887131.63967 18224.7152271,-3886884.46927 18126.5116234,-3886611.91236 17990.7024802,-3886362.39348 17896.9117829,-3886098.50035 17728.6399831,-3885666.38114 17657.3712527,-3885375.37581 17480.9371783,-3885084.33302 17373.0809168,-3884828.89575 17268.0308679,-3884435.17743 17027.0584274,-3884413.44363 16735.5831725,-3884360.29626 16549.8827064,-3884271.73842 16430.3600131,-3884014.35785 16299.613236,-3883763.04213 15820.3744467,-3883681.71181 15278.32107,-3883427.61214 14648.9698307,-3883163.67186 14094.9612949,-3883195.38041 13568.3227987,-3883119.22886 12898.5533069,-3883010.61084 12416.4672683,-3883257.89694 11784.1968964,-3883539.38592 9711.47976817,-3882790.4596 8729.64351111,-3882176.8079 7918.56590313,-3881415.8504 7719.69642428,-3880830.73871 7439.94094935,-3880563.74201 7064.81978465,-3880790.64494 6639.79687027,-3881491.70491 6463.39138377,-3882020.95812 6453.45402516,-3882026.07208 6227.6759662,-3882136.30612 5731.57534047,-3882378.54295 4434.35468958,-3883020.65349 3127.71555621,-3883166.34597 2143.16330532,-3884428.35685 1926.50854004,-3885589.4473 1763.20302948,-3886024.26518 1619.5059352,-3886514.2839 1610.3808359,-3886927.54614 1370.45106166,-3887425.85654 1007.00005435,-3888103.24773 341.07290841,-3888072.173 -150.438506573,-3888221.13306 -807.79753836,-3888298.7822 -1158.53199422,-3888456.64388 -1582.22570485,-3888095.19881 -2156.99035014,-3887368.80176 -2132.77905505,-3886699.38218 -2412.99144292,-3885846.94103 -2776.79303607,-3885525.77318 -4684.22153922,-3884239.24985 -4783.32856378,-3883919.26177 -4953.64011977,-3883424.21439 -5115.1904376,-3882472.96362 -4950.00247291,-3881897.38543 -4851.57961491,-3881278.28618 -4627.76675552,-3880769.38933 -4632.1103394,-3880524.4682 -4556.39664194,-3880334.56498 -4225.5457247,-3879984.61452 -4170.86438611,-3879424.77303 -4214.0092354,-3878804.2385 -4501.8286915,-3877979.52327 -5486.20761075,-3877709.03313 -6048.71675835,-3877515.65122 -6531.58613149,-3877251.39858 -6586.0539044,-3876535.04428 -6707.89477175,-3876077.84136 -6915.6416421,-3875594.3728 -7102.86780695,-3874972.83578 -7081.83390104,-3874449.68286 -6882.03239403,-3873966.84038 -7051.75952467,-3873422.8976 -7173.79272498,-3872924.737 -7234.6592985,-3872505.33969 -7664.11595991,-3871804.61486 -7748.86909324,-3871284.91034 -7982.86382425,-3870671.0895 -8404.9399981,-3869986.14411 -8303.97416833,-3869213.82216 -8484.53877368,-3867992.69588 -8531.34021842,-3867257.18077 -8387.41475244,-3866373.12103 -8322.1729295,-3865835.68413 -8384.06185085,-3865043.65318 -8222.58893791,-3864360.05055 -7875.25950373,-3863831.88856 -7763.2480055,-3863495.02577 -8035.17553684,-3862866.29289 -8155.38505643,-3862266.83132 -8018.85127001,-3861974.3586 -8070.52178118,-3861594.28555 -8193.80172551,-3861277.90933 -8172.54366638,-3860963.05489 -8260.68096448,-3860655.01368 -8400.73466984,-3859999.35868 -8512.79361976,-3859506.60181 -8571.69715962,-3859335.53395 -8709.27796996,-3859190.93327 -8861.91116755,-3858452.39186 -8979.80698867,-3857902.97707 -8628.43442301,-3857411.9159 -8360.332492,-3856864.73279 -7952.31082433,-3856394.3057 -7507.65887839,-3855958.73605 -6918.44256585,-3855818.86793 -6301.20262534,-3855775.96594 -5688.25891763,-3855668.96588 -5095.27012417,-3855482.78482 -4525.83790419,-3855233.26791 -4034.8309721,-3854852.89042 -3700.60064349,-3854326.67837 -3510.72903528,-3853735.02448 -3308.25586934,-3853146.8457 -3129.94029952,-3852550.25246 -2967.22506237,-3851950.06644 -2904.94400376,-3851331.06996 -2860.8146012,-3850709.88352 -2893.93846416,-3850090.75117 -2980.91128985,-3849475.56393 -3050.94839277,-3848861.52185 -3045.27374239,-3848246.36547 -2634.46613913,-3847787.4778 -2248.80106782,-3847300.15811 -1913.45106083,-3846776.45617 -1618.37907491,-3846228.24253 -1500.18596009,-3845622.35191 -1496.2595475,-3845000.1282 -1546.37512965,-3844380.34594 -1557.93687358,-3843758.0337 -1402.86410812,-3843160.53514 -1164.73891223,-3842585.6709 -769.707357182,-3842107.67382 -320.786487138,-3841677.17489 -70.5320501291,-3841124.74067 -164.228808316,-3840520.78072 -447.351869403,-3839985.55365 -1018.08373526,-3839743.60453 -1609.83389169,-3839548.81142 -2212.81885134,-3839400.04658 -2794.50592139,-3839177.16841 -3342.44238162,-3838887.64351 -3847.65477702,-3838525.31999 -4310.1312457,-3838116.17202 -4682.81996158,-3837618.03103 -5108.10540352,-3837163.35039 -5373.72902132,-3836607.84277 -5591.91089957,-3836026.16694 -5862.10720553,-3835465.99611 -5982.1324957,-3834857.57985 -6174.34961187,-3834275.89672 -6625.1342189,-3833861.22588 -7050.34891107,-3833411.06665 -7541.23843865,-3833039.83471 -8161.72906895,-3832964.8706 -8585.24311857,-3832601.69216 -8811.72292096,-3832027.71947 -8727.18106459,-3831971.48736 -8475.84525156,-3831823.68111 -8211.50424896,-3831708.33257 -7933.08107029,-3831629.97794 -7227.12766071,-3830906.02765 -6968.63881262,-3831050.67699 -6707.92777284,-3831189.41758 -6398.85126026,-3831238.08859 -6034.09802633,-3831267.39201 -5902.79790621,-3831427.20364 -5736.20192997,-3831485.96076 -5554.26421142,-3831469.37909 -5336.36615715,-3831439.67508 -5068.24022176,-3831422.3631 -4920.69003434,-3831449.93081 -4761.81597506,-3831521.38235 -4464.43238085,-3831575.60581 -4216.39496693,-3831581.00845 -4075.46169871,-3831743.68559 -3917.05542228,-3831834.10075 -3689.25729559,-3832004.56583 -3534.26843819,-3831987.4629 -3199.34154642,-3832243.90456 -3111.86405348,-3832248.71823 -2999.71864314,-3832182.54057 -2850.07751146,-3832069.33337 -2705.06543295,-3831979.42642 -2555.6505147,-3832076.49516 -2384.10833473,-3832189.38744 -2119.69441804,-3832243.86282 -1829.48551107,-3832217.39921 -1579.19757476,-3832222.88863 -1447.34456038,-3832130.98361 -1008.39012835,-3832232.53319 -664.10063172,-3832136.69049 441.445985205,-3832060.20565 717.706065997,-3832085.66016 1020.96977411,-3832097.15297 1303.59486621,-3832112.85875 1600.59115147,-3832131.60678 1803.98091479,-3832168.78584 1882.03811682,-3832369.55005 2142.80565876,-3832368.94337 2307.54696334,-3832417.64557 2653.1181968,-3832604.57361 2902.80497477,-3832580.07027 3037.19633077,-3832454.29093 3235.76425022,-3832440.83713 3411.7120004,-3832457.49602 3609.10048619,-3832494.94831 3806.05217899,-3832642.77785 3920.17255934,-3832630.11966 3927.20755255,-3832516.99538 4039.13138324,-3832555.70434 4158.04659136,-3832574.69755 4254.90262222,-3832529.91506 4340.29845354,-3832609.57848 4441.79723088,-3832633.4064 4664.06746805,-3832666.80718 4783.34050583,-3832603.89233 4845.30828538,-3832504.33823 4955.84643515,-3832533.50401 5104.52745582,-3832604.07753 5275.5133962,-3832593.57445 5424.85809804,-3832580.75251 5601.13640366,-3832667.85774 5806.8995223,-3832682.15069 5898.04969415,-3832689.10228 6064.4369277,-3832720.88492 6161.79189053,-3832742.05857 6276.01650199,-3832739.89424 6439.35829579,-3832779.55411 6440.83583122,-3832780.10965 6603.72853712,-3832805.26619 6612.15166944,-3832807.08406 6765.93358584,-3832835.39207 6949.02434492,-3832887.78963 6950.50188657,-3832888.34517 7143.25953389,-3832936.11399 7304.01568601,-3832912.2355 7306.02986637,-3832911.81231 7494.99924302,-3832907.98554 7765.74569616,-3832888.27615 8102.86580189,-3832890.06504 8479.48402425,-3832917.32904 8663.42028579,-3832828.88897 8842.50738121,-3832921.09895 9136.24358551,-3832802.3521 9332.51936745,-3832856.24952 9442.84479933,-3833082.22923 9627.28145903,-3833132.18168 9873.19146547,-3833187.96147 9952.89820369,-3833068.59406 10067.1668765,-3833243.27134 10243.8664485,-3833246.97257 10365.2930902,-3833285.54506 10552.1721826,-3833343.58361 10822.5166453,-3833486.21335 11056.1876325,-3833575.00043 11381.9438961,-3833652.79207 11617.6455309,-3833734.1636 11888.9470425,-3834009.71367 12172.9917335,-3834186.33647 12329.1858637,-3834368.60284 12711.092239,-3834428.04489 12857.8437101,-3834497.05383 13054.2715762,-3834573.44192 13245.2650188,-3834569.19474 13663.4583637,-3834705.94762 14078.669352,-3834717.19746 14378.1425897,-3834605.66091 14583.5403977,-3834695.87864 14773.466561,-3834700.08374 14886.1830874,-3834731.33499 14973.5623615,-3834884.01993 15153.3638863,-3835148.61703 15283.2626136,-3835451.28789 15536.1554625,-3835375.95275 15851.605741,-3835534.79198 16007.7957501,-3835776.51528 16188.8960808,-3835848.82916 16449.5056771,-3836031.06863 16662.252723,-3836191.01055 16942.5705894,-3836196.14937 17150.2908126,-3836244.99498 17450.4193405,-3836340.31039 17581.8570453,-3836431.22476 17792.0260405,-3836501.14639 18042.0396269,-3836521.62248 18193.6432884,-3836502.395 18312.0564163,-3836561.34217 18463.8396322,-3836701.98871 18646.9211095,-3836814.34757 18890.8302342,-3836936.50856 19069.866554,-3837017.2407 19221.0825994,-3836876.59898 19371.4310437,-3836949.74807 19548.2500387,-3837082.35375 19706.1843778,-3837205.75021 20000.7987893,-3837499.19883 20268.4993307,-3837428.92302 20454.5418763,-3837325.073 20624.770873,-3837177.15786 20657.4147024,-3837041.00799 20683.223432,-3836933.57521 20535.8923983,-3836688.67947 20706.4842909,-3836465.33825 20745.9984769,-3836260.00506 20934.69866,-3836138.76769 21198.6458447,-3835897.48357 21239.7194697,-3835703.69921 21426.0287104,-3835559.88779 21711.7943632,-3835467.80978 22342.500693,-3835534.69846 22340.5993553,-3835242.3593 22399.6734554,-3835054.75112 22569.5089894,-3834996.24407 22722.5948734,-3834760.24201 22910.1551645,-3834728.38597 23154.4047008,-3834677.19665 23298.7090188,-3834488.32251 23404.2995909,-3834312.46844 23526.6485113,-3834221.68307 23669.437437,-3834211.11014 23787.3933327,-3834157.12885 23981.3770016,-3834114.02406 24188.8240267,-3834058.43978 24495.9933263,-3834008.13538 24940.7229723,-3833749.21234 25210.5230068,-3833571.08755 25287.2253325,-3833445.59478 25564.3935327,-3833336.69501 25720.7847672,-3833178.25045 25860.4638732,-3832986.1972 26051.5762515,-3832880.52857 26310.7400495,-3832897.34775 26655.1708368,-3832938.38341 26997.3902086,-3832899.396 27317.6364457,-3832715.18433 27544.8037597,-3832501.96259 27575.2060035,-3832240.31274 27754.706836,-3832091.73309 28019.2513332,-3831841.45476 28281.9316711,-3831824.9301 28583.988098,-3831843.87243 28867.2000626,-3831859.10286 29123.5889029,-3831672.46523 29282.0400467,-3831453.13661 29412.0407337,-3831279.19503 29617.3692664,-3831161.0686 29907.0395307,-3830920.23001 30046.4887849,-3830793.61058 30107.6167266,-3830545.11015 30221.3826575,-3830437.00273 30387.5580712,-3830303.90043 30546.7864981,-3830169.53529 30671.7705601,-3830081.8376 30815.5550194,-3829985.85848 30959.4986097,-3829832.92639 31120.3597425,-3829800.54817 31333.3661222,-3829783.13591 31470.1700999,-3829660.41051 31546.4983298,-3829551.38244 31658.72269,-3829431.22296 31812.5922438,-3829220.70662 32109.8126405,-3829156.51878 32373.1179433,-3829077.5556 32633.2259032,-3828911.53265 32961.0453778,-3828798.03822 33173.9337336,-3828704.67295 33433.4953454,-3828619.07082 33704.1139331,-3828637.31461 33941.0810444,-3828567.84435 34208.9902761,-3828512.53664 34526.1093609,-3828404.63017 34906.6187953,-3828568.9375 35161.179469,-3828457.1623 35466.5910145,-3828341.81622 35681.6256356,-3828106.12685 36015.4581586,-3827893.42272 36133.5589666,-3827453.19755 36415.4857768,-3827212.54308 36746.8985571,-3826931.78942 36901.5008833,-3826754.76601 37039.8221364,-3826532.6557 37231.9982548,-3826260.61847 37334.201797,-3826035.6408 37409.3321318,-3825912.06939 37611.053107,-3825684.86189 37790.5448025,-3825477.29863 37811.3457236,-3825350.17114 37814.5769716,-3825330.80642 37828.6280405,-3825243.39679 37863.6629801,-3825202.25104 37935.9142177,-3825016.11115 38112.3057422,-3824916.85703 38383.898801,-3824909.64691 38608.7394049,-3824830.71358 38772.0207782,-3824569.56874 38661.2140908,-3823886.32316 38822.9400541,-3823626.61707 38980.8295,-3823217.3632 39420.8096526,-3823012.15281 39565.4429337,-3822702.32956 39753.9712112,-3822645.50253 40058.9271966,-3822648.04373 40477.9376645,-3822779.31915 40787.6236599,-3822551.1877 40998.2734511,-3822332.30082 41160.8999401,-3822220.5273 41274.31186,-3822002.95829 41435.1977535,-3821990.05535 41561.3149022,-3821654.54131 41640.0436873,-3821429.16354 41909.4561087,-3821420.36396 41862.3140457,-3821048.31526 41876.650977,-3820636.11826 42147.8483473,-3820302.58893 42363.4724308,-3820150.34199 42615.5240432,-3819622.70744 42871.6680301,-3819191.66522 42975.7542094,-3818691.91319 43146.3793464,-3818229.65313 43297.903079,-3817988.53244 43387.509532,-3817680.11164 43514.237937,-3817552.98186 43701.8142256,-3817415.65868 43955.9673941,-3817367.79723 44242.8151834,-3817195.248 44444.2996684,-3817020.47212 44460.3654465,-3816826.69768 44329.2465676,-3816593.88311 44420.8675855,-3816344.49871 44531.6818426,-3815930.93938 44563.6759494,-3815599.85019 44610.9686161,-3815108.43644 44576.4599353,-3814745.35324 45010.3798371,-3814204.57674 45353.0958801,-3813955.17554 45490.1183821,-3813813.43746 45584.3408798,-3813667.08492 45741.1461628,-3813411.66161 45800.3265307,-3813240.49955 46025.2180506,-3812789.76341 46026.8468788,-3812786.32698 46342.7562061,-3812353.51603 46773.8435597,-3811881.07583 46775.9337038,-3811878.65619 46992.1604305,-3811525.02959 47298.6106816,-3811336.21207 47299.8958365,-3811335.26115 47304.9987941,-3811332.45548 47512.0736661,-3811115.4012 48513.6420581,-3810780.4116 48901.0135461,-3810466.71656 49235.1671913,-3810338.40512 50029.1616963,-3810180.96936 50315.5352762,-3809981.39228 50729.4118306,-3809846.09165 50732.6365787,-3809846.71303 51368.3416033,-3809924.66776 51832.4908706,-3809847.73182 51834.2185988,-3809848.29673 52007.2551099,-3809897.80185 52009.4630289,-3809898.88461 52576.0655734,-3810113.15821 52578.8478346,-3810112.26373 52587.3264219,-3810106.08717 52757.9016399,-3810148.00418 52967.1370245,-3810198.37631 53395.7068662,-3810303.00034 53654.3935789,-3810420.20445 53657.0628812,-3810422.30411 53860.165279,-3810588.8838 54070.0938894,-3810799.69833 54074.1472704,-3810804.84865 54411.923901,-3811236.37508 54414.1318465,-3811237.45789 54989.7898036,-3811516.5502 55001.060243,-3811522.47273 55301.5865935,-3811689.735 55369.1151562,-3811727.76553 55675.4043272,-3811901.24324 56358.2003786,-3812830.5549 56792.8230189,-3813536.11365 57314.7246594,-3814590.29878 57469.1030007,-3814796.52865 57900.2907563,-3815374.53412 57901.943124,-3815377.09529 58192.2964154,-3815542.48704 58261.2656638,-3815582.07418 58500.0495164,-3815835.97359 58558.1895721,-3815897.64067 58705.8601502,-3816063.14072 58719.5246539,-3816118.13003 58817.0063553,-3816514.11916 58818.1408121,-3816517.16055 58886.5010951,-3816678.66512 58889.6926506,-3816686.78177 58988.574063,-3816939.89526 58956.0492795,-3817152.56049 59067.6887132,-3817398.6603 59347.2178551,-3817566.14783 59715.3247405,-3817704.00017 59929.6342176,-3817812.05178 60149.4033168,-3817874.83217 60152.3598585,-3817875.94344 60311.4791743,-3818115.34504 60313.3055781,-3818119.9119 60419.699827,-3818359.32 60532.5143488,-3818613.96397 60519.0722106,-3818896.81916 60520.4561443,-3818899.87003 60577.509637,-3819003.47815 60667.0580566,-3819166.28705 60738.6282663,-3819368.39719 60751.6665513,-3819406.87192 60925.9103697,-3819768.29015 60986.5153551,-3819903.51818 60998.9705734,-3819930.97625 61007.9660057,-3819950.80708 61060.9171307,-3820242.17102 61068.6963069,-3820280.94681 61218.0277955,-3820587.45061 61389.3802756,-3820813.82653 61397.4865958,-3820824.12837 61433.9461569,-3820870.98571 61574.8882086,-3821055.73134 61620.3200008,-3821116.42178 61770.6199184,-3821318.01411 61899.8520953,-3821561.28991 61912.9382228,-3821585.27384 62010.7684695,-3821766.89073 62012.1712258,-3821769.44262 62121.0728393,-3822067.92383 62122.9976055,-3822076.49265 62170.9088906,-3822296.20279 62188.8858034,-3822375.84581 62239.3943715,-3822606.1495 62247.0744116,-3822640.92388 62250.3492891,-3822660.03887 62282.4585882,-3822841.6691 62283.5173844,-3822846.70681 62266.3296618,-3823016.97621 62255.8952584,-3823121.03232 62250.2976946,-3823163.30056 62213.5449399,-3823447.77546 62243.913835,-3823516.89277 62401.5237965,-3823875.19213 62584.3857076,-3824160.48267 62739.1958012,-3824493.6894 62761.5864146,-3824542.51455 62868.4652705,-3824775.4536 62930.1432821,-3825073.65082 62940.3515749,-3825259.45111 62940.3160226,-3825550.81437 62956.54615,-3825729.34617 62861.7874719,-3825988.13647 62859.5456244,-3825994.54856 62830.5832336,-3826350.28584 62823.6271423,-3826692.36302 62824.3571753,-3826725.87507 62829.3841807,-3826982.44605 62848.7245388,-3827263.54795 62845.4365648,-3827482.32152 62845.3989156,-3827516.30427 62866.7491537,-3827691.53172 62873.6604561,-3827759.76186 62772.9356802,-3827964.84941 62773.0717882,-3827967.85317 62791.7066881,-3828326.89203 62826.3820946,-3828678.04261 62903.9373628,-3828998.8328 62919.6380943,-3829065.89672 62967.1067846,-3829270.60084 62978.4408381,-3829321.00704 63008.265785,-3829417.59273 63059.7419426,-3829582.46751 63223.0909532,-3829868.02758 63383.680529,-3830094.51102 63387.2910452,-3830098.14622 63574.5766486,-3830286.16007 63757.504335,-3830404.54116 64076.6698666,-3830554.57361 64194.1708924,-3830750.9393 64120.5166619,-3831013.0271 64243.3230956,-3831293.55617 64391.9051111,-3831467.61157 64395.9768373,-3831472.26387 64556.4667735,-3831556.31199 64574.8408931,-3831566.00441 64631.4666122,-3831779.55533 64668.1455976,-3832090.80581 64703.6861638,-3832392.5176 64704.3023068,-3832396.03938 64598.458799,-3832557.9516 64617.4963662,-3832728.09682 64622.2172927,-3832761.76068 64767.2346306,-3832878.20901 64941.8089191,-3832920.31223 64947.0111816,-3832921.50903 65023.164735,-3832975.87339 65115.4844703,-3833038.84721 65126.8290821,-3833075.76102 65236.7153165,-3833393.7873 65369.3662959,-3833500.27217 65548.3513411,-3833676.4841 65767.8345203,-3833885.21861 65991.2196805,-3833925.17636 66173.2776459,-3834283.92599 66333.5120551,-3834644.84754 66516.1760909,-3834882.17521 66857.5444199,-3834947.60108 67139.671003,-3835033.27034 67381.8313085,-3835184.39506 67388.6478559,-3835189.1517 67787.6956178,-3835506.16019 67946.5775931,-3835632.63628 67951.1862108,-3835636.30963 67968.302432,-3835883.35398 67894.129912,-3836132.43246 67901.1425989,-3836441.56679 67789.8853987,-3836653.75281 67759.9591878,-3836948.49076 67724.8040188,-3837341.48804 67624.2970471,-3837672.03051 67686.4340935,-3837983.75642 67770.8089008,-3838203.36644 67753.8922668,-3838458.11521 67994.0052667,-3838781.59591 68159.0760103,-3838968.78549 68160.7280206,-3838971.34714 68339.0155577,-3839257.99714 68383.3753683,-3839570.54998 68358.4992229,-3839804.50627 68481.0660152,-3840018.57177 68475.406325,-3840220.27177 68127.8904377,-3840500.95122 68049.217488,-3840789.33997 68083.0802927,-3841154.47163 68074.2528234,-3841518.48183 68045.150898,-3841995.17378 67829.1502822,-3842188.3831 67724.593743,-3842342.34394 67735.8009543,-3842540.68529 67826.8988564,-3842787.0427 68055.6727996,-3842856.20857 68237.3988946,-3842920.58846 68393.8737149,-3843044.48367 68456.3831886,-3843234.27977 68589.7564167,-3843459.7548 68814.1603868,-3843499.26846 69264.6658263,-3843428.4228 69545.0520371,-3843487.55649 69743.932434,-3843370.16468 69830.2490386,-3843117.54937 69981.3449794,-3842981.84802 69985.988345,-3842978.02607 70161.9093485,-3842978.2125 70416.522388,-3843044.86289 70507.5189202,-3843195.26061 70502.4869858,-3843354.005 70481.5701796,-3843490.15473 70552.4015034,-3843618.79511 70593.0214823,-3843667.81937 70650.1389823,-3843736.46287 70768.529276,-3843935.38317 70793.2663885,-3844132.74405 70905.3407511,-3844372.90824 71200.8239348,-3844488.59587 71478.1967218,-3844456.15433 71774.4983757,-3844385.94721 72036.1027625,-3844498.84858 72339.180987,-3844848.73453 72679.7018807,-3845140.56834 72959.9049882,-3845290.16492 73145.8700769,-3845335.21886 73355.3713622,-3845471.13306 73450.4416194,-3845632.68639 73451.2571559,-3845782.16023 73651.1229886,-3846178.10995 73675.2862778,-3846213.01562 73854.6852196,-3846470.24085 74441.6606042,-3846813.43671 74797.2179885,-3846854.44525 75030.846655,-3846940.79948 75347.5036753,-3847130.77399 75396.3759466,-3847219.10051 75467.4938726,-3847346.75885 75476.6189215,-3847363.09996 75955.962938,-3847914.63341 76226.6921379,-3848254.31009 76466.3941018,-3848443.86155 76468.6020804,-3848444.94516 76755.5876943,-3848554.32495 77019.4751941,-3848784.78334 77146.0163703,-3849242.4361 77513.9774414,-3849594.8141 77951.9839361,-3850083.31239 78188.4039308,-3850411.6965 78253.4824499,-3850514.13804 78294.7100044,-3850547.1958 78313.3938283,-3850561.90186 78320.9020766,-3850568.18547 78650.7387293,-3850871.63563 78655.5778629,-3850875.8184 78763.190507,-3851108.33516 78793.5269711,-3851171.46839 78794.1996622,-3851173.49331 78862.8330094,-3851379.53574 79042.0273914,-3851517.31042 79257.5170459,-3851548.50312 79264.4855713,-3851549.26814 79480.9025251,-3851641.47574 79674.2087497,-3851736.80276 79682.5416649,-3851741.11854 79958.5386734,-3851771.61538 79978.4651268,-3851773.37338 80033.4839524,-3851778.96605 80188.6290471,-3851780.37184 80325.7872758,-3851781.59295 80330.1463253,-3851785.25768 80464.7725252,-3851885.84975 80470.3603638,-3851890.06109 80531.880302,-3851974.3755 80601.3506553,-3852066.4901 80603.1001662,-3852073.05456 80603.9844193,-3852076.08723 80661.4175425,-3852261.21326 80610.4062347,-3852340.74511 80562.8101052,-3852415.90836 80465.7024865,-3852577.15821 80463.8226097,-3852580.58551 80500.4078865,-3852814.40185 80626.1753671,-3852990.13321 80629.5171698,-3852994.25911 80828.4946261,-3853157.2827 81125.0996068,-3853257.04482 81282.6179872,-3853432.48656 81242.0329201,-3853618.88104 81037.3133616,-3853646.07612 80971.8749327,-3853750.05041 80957.581765,-3853770.99929 80956.5265306,-3853772.45863 80987.5134434,-3853831.61957 81016.5988903,-3853888.20894 81017.7706688,-3853890.25291 81094.0604734,-3853947.6398 81219.490441,-3853948.41647 81333.1342893,-3853950.24393 81345.6311915,-3853950.21987 81476.4047029,-3853968.19453 81499.2880534,-3853971.0651 81513.3709598,-3854001.59168 81555.2345494,-3854090.15774 81566.4655719,-3854241.53714 81567.1002266,-3854244.56035 81620.7795901,-3854508.52065 81622.4529836,-3854517.08166 81677.8229669,-3854585.66877 81756.8159729,-3854683.64638 81781.5622985,-3854939.50774 81792.4709951,-3855053.38715 81798.2501796,-3855308.5264 81799.1871675,-3855349.54909 81799.2276449,-3855355.04889 81675.1933885,-3855442.29618 81664.6763696,-3855449.39328 81672.4016869,-3855522.16445 81680.5236888,-3855577.95614 81776.6828708,-3855638.60017 81891.5994844,-3855705.45692 81892.5406944,-3855706.99229 82016.3928292,-3855900.14976 82062.9249101,-3855898.92292 82129.4787878,-3855896.9591 82190.9254986,-3855943.78539 82218.8454572,-3855965.34232 82255.8284883,-3856044.2266 82340.7940937,-3856201.91439 82380.8049279,-3856266.9185 82418.6837708,-3856328.84238 82437.1038469,-3856357.03541 82500.2525111,-3856437.91625 82537.5869389,-3856481.32525 82541.6987929,-3856491.47876 82543.0820852,-3856494.53052 82598.5540313,-3856632.60123 82602.993889,-3856647.26585 82675.2197976,-3856876.94671 82757.5251172,-3857006.04301 82803.7961312,-3857077.28419 82805.9090822,-3857080.8636 82743.8303685,-3857194.96277 82723.9558482,-3857231.19422 82720.4643777,-3857237.5592 82705.4360674,-3857297.46799 82674.5308805,-3857406.75645 82753.0305445,-3857524.21167 82903.9625635,-3857491.97346 83116.3366467,-3857493.56627 83336.0075358,-3857605.40354 83361.7171075,-3857619.37906 83411.6579068,-3857646.77394 83460.2558318,-3857676.61693 83556.3560337,-3857732.26242 83557.4897485,-3857735.3047 83621.5291716,-3857891.19811 83664.3179096,-3857994.79755 83716.2099102,-3858056.25672 83757.5015041,-3858107.31505 83761.879524,-3858110.48096 84075.0032379,-3858334.34798 84260.1736265,-3858433.37609 84454.5482738,-3858395.79571 84582.4638249,-3858252.71334 84583.7496797,-3858251.76263 84680.804366,-3858183.98164 84904.6421383,-3858186.5119 84971.0356457,-3858215.03398 85088.5589196,-3858265.99822 85197.5617148,-3858271.65098 85312.3045935,-3858277.52244 85517.3718817,-3858182.36557 85741.9315799,-3858106.94562 86013.9537466,-3858156.79849 86275.0335222,-3858205.23488 86817.8568587,-3858212.42065 87009.2401028,-3858174.72499 87268.6179976,-3858130.12243 87482.9431461,-3858093.80042 87639.6445507,-3857969.30639 87744.6542926,-3857810.85149 87787.364086,-3857745.99676 87835.9185108,-3857704.85826 87964.4042609,-3857592.78493 87970.757598,-3857590.02778 87995.1346389,-3857579.95943 88149.9964278,-3857516.87766 88539.2574903,-3857500.71496 88871.5697855,-3857509.87532 88909.274092,-3857510.8118 89443.3961365,-3857530.15939 89783.851378,-3857542.12925 90203.9356019,-3857438.66289 90300.6132889,-3857380.86143 90445.1972911,-3857292.39307 90660.0947529,-3857182.10911 90662.5904985,-3857182.20418 90702.367927,-3857181.22002 90730.5888765,-3857181.79514 90905.9805441,-3857183.47741 91065.0193365,-3857194.53425 91226.5730744,-3857205.18703 91560.1730329,-3857305.37291 91742.2141305,-3857375.29185 91846.1663995,-3857415.24289 92109.2585297,-3857476.75241 92377.4187354,-3857536.45565 92624.7718038,-3857656.85173 92845.3347536,-3857804.72084 92948.7220306,-3857820.15671 93393.8139427,-3857880.60259 93478.8468236,-3857892.34001 93606.0016665,-3857907.18177 93801.9764813,-3857959.13734 93802.6087543,-3857955.66224 93811.0843187,-3857352.62453 93812.1316422,-3857121.71785 93813.3327742,-3856840.82862 93818.3433869,-3856840.51959 94424.6121975,-3856810.12363 94808.9934558,-3856791.27151 94965.4161468,-3856674.25682 95096.9823259,-3856264.86017 95705.4920979,-3855801.64127 96026.9904052,-3855451.96274 96375.9881645,-3855371.27215 96624.9446045,-3855344.75949 96789.5846743,-3855327.03364 96956.12561,-3855259.39065 97150.1161204,-3855179.7954 97377.875197,-3854896.02846 97882.7447939,-3854752.28428 98261.9655681,-3854672.24145 98436.7149526,-3854283.97406 98629.4004669,-3854153.33714 98865.1866609,-3854118.32194 99061.7522959,-3854089.31207 99334.7864111,-3854106.7046 99383.3270168,-3854072.55948 99691.3072052,-3853854.82795 100074.066627,-3853537.46149 100101.18569,-3853514.49833 100332.055745,-3853326.3234 100642.739965,-3853195.1756 100914.644726,-3853117.54105 101054.27229,-3852811.41287 101138.783992,-3852613.66627 101303.649359,-3852524.45813 101468.358193,-3852380.25382 101605.454019,-3852271.99169 101827.728837,-3852191.46639 102026.982134,-3852059.07386 102045.26736,-3851795.31683 102094.702707,-3851507.74949 102329.012901,-3851373.69025 102816.156075,-3850953.80165 103040.979593,-3850766.88896 103063.058018,-3850718.73736 103134.778901,-3850561.4934 103267.718406,-3850339.08973 103433.665982,-3849899.47843 103677.772065,-3849547.32483 104003.008689,-3849316.23622 104660.971419,-3848676.86958 104668.513529,-3848669.1577 105150.615879,-3848270.05877 105393.302463,-3848277.28796 105591.311036,-3848282.81813 106224.403322,-3848284.39678 106891.183993,-3848307.25344 107569.566055,-3848334.05081 108383.942663,-3848400.01519 108556.289424,-3848416.5679 108701.735982,-3848430.59786" style="stroke-linejoin:round;stroke:#000;stroke-width:1px;fill:none" /></g></g></svg>