<svg xmlns="http://www.w3.org/2000/svg" baseProfile="full" height="216460.173358" version="1.1" viewBox="-107114.186289,4009772.899224,314069.567310,216460.173358" width="314069.56731"><defs><style type="text/css">polyline,line,rect,path,polygon,.polygon{fill:none;stroke:#000;stroke-width:1px;stroke-linejoin:round;}</style></defs><g fill_rule="evenodd" transform="scale(1,-1)"><g class="id" id="50105"><polygon class="_50105" id="None" points="135853.603631,-4014224.70523 174515.428948,-4011417.03716 177503.544372,-4031607.7513 202623.33776,-4032843.67059 202878.219199,-4033109.88911 203493.639038,-4033512.93978 204004.271079,-4034124.93365 203991.950915,-4034854.32928 204005.240683,-4034878.23541 204319.216477,-4035442.83057 204503.795753,-4035877.00832 204541.771896,-4036028.69894 204602.527615,-4036271.60379 204656.460131,-4036692.36837 204771.882934,-4037097.4666 204454.1076,-4037412.07273 204040.613108,-4037707.80829 203626.917445,-4037508.86187 203068.48708,-4037399.61839 202692.537894,-4037485.40312 202342.491045,-4037909.08193 202129.040292,-4038205.80146 202135.257596,-4038608.12866 202178.212668,-4039053.06947 202357.243089,-4039639.13004 202241.551735,-4040187.36006 202213.537764,-4040471.62078 202442.605462,-4040873.1134 202478.84977,-4041358.36601 202343.256141,-4041309.79233 202253.752528,-4041551.19792 201861.745632,-4041571.97661 201750.619429,-4041675.1874 201724.105947,-4041842.45171 201328.819965,-4042123.22156 201300.321706,-4042348.44604 201528.931952,-4042522.84567 201773.297575,-4042613.68827 201933.178012,-4042820.04275 201994.20449,-4043045.44595 202378.491513,-4043424.57458 202777.588364,-4043476.03463 203111.972923,-4044252.30713 203146.849714,-4044507.43816 203129.655369,-4044923.06556 203261.636526,-4045159.09597 203336.966693,-4045767.05758 203562.284547,-4046076.4065 203912.878504,-4046152.42587 204109.501572,-4045941.73916 204680.126882,-4045902.30528 205024.095586,-4045723.53964 205339.280192,-4045888.03041 205650.382404,-4046238.96339 205522.987799,-4047328.02297 205071.876287,-4047552.09504 204577.072308,-4047548.28173 204484.685626,-4047760.58817 204641.594479,-4048625.57808 204773.794196,-4048887.62427 204712.15744,-4049342.43237 204412.963001,-4049679.58837 204081.189575,-4049868.71906 203873.423547,-4049808.47881 203622.257991,-4049577.38229 202761.105333,-4049506.07891 202695.423675,-4049803.71168 203090.862694,-4050611.81823 203407.231386,-4050861.87281 203827.140801,-4050902.95827 204192.110002,-4051216.99005 204715.822814,-4051190.66188 204938.745016,-4051462.92753 205064.828765,-4051887.34445 205525.502226,-4052295.77516 205922.397413,-4052278.65454 206101.218168,-4052428.5596 206355.523255,-4053448.01571 206244.621048,-4053810.81517 206200.64063,-4054168.6169 206480.573303,-4054574.63563 206470.741655,-4055027.99147 206329.233386,-4055452.39346 206041.514028,-4055765.37897 205905.769307,-4056506.5567 205952.20146,-4057435.75176 205881.23645,-4058134.85405 205484.278755,-4058855.19664 205344.25512,-4059330.1556 205379.467131,-4059707.33224 205688.877537,-4059980.68994 205694.251046,-4060519.0245 206093.786471,-4061056.16787 205951.449438,-4061433.02444 205910.049152,-4061637.84978 205837.737626,-4062239.87609 205949.719114,-4062475.30679 204965.888339,-4061558.0357 204772.180537,-4061387.6777 204480.537015,-4061464.4645 204143.662974,-4061314.82421 203813.202396,-4061076.34812 203412.783703,-4060727.24148 202984.04552,-4060505.32742 202519.233323,-4060001.74407 202028.296059,-4059376.84057 201746.347358,-4059171.83056 201518.927968,-4059125.00409 201263.056345,-4059234.87502 201083.224851,-4059327.51801 200680.792876,-4059404.48886 200577.915166,-4059207.34562 200626.883254,-4059000.24709 200550.85589,-4058833.41755 200047.185173,-4059075.90893 199641.212657,-4059070.7487 198588.152465,-4059228.76036 194499.838693,-4060616.75329 193669.671001,-4060405.33098 193297.438276,-4060175.61651 192943.18431,-4060347.56042 192639.308192,-4061100.18465 192007.024701,-4061520.87569 191474.946487,-4061727.0037 191406.329095,-4061229.30335 190668.847799,-4061263.23155 190188.068461,-4061434.8862 189587.715256,-4061657.97544 189433.231862,-4062207.00811 189638.90037,-4062704.30934 189003.827084,-4063184.93061 188900.715627,-4063613.46515 188585.529766,-4063625.03041 188441.254364,-4063749.74557 188241.334187,-4063578.21058 188111.925418,-4063715.87455 187173.954283,-4064240.43575 186782.296346,-4064233.70624 186488.597023,-4064412.96187 186219.89935,-4064425.41966 185926.479357,-4064278.093 185806.052245,-4064441.53238 185247.733739,-4064321.78207 185102.492495,-4064386.95125 184834.533543,-4064366.42254 184173.443538,-4064213.08706 183667.394759,-4064109.90799 183306.984667,-4064187.13861 183229.6953,-4064513.41303 183358.321497,-4065036.40561 183186.426456,-4065173.29586 182821.179852,-4064952.80071 182618.248663,-4064973.73056 182551.719481,-4065049.25896 182439.053218,-4065295.95185 182045.142277,-4065306.16075 181996.045591,-4065350.70268 181708.293309,-4065657.16887 181375.737657,-4065731.23166 180451.011198,-4065764.05416 180269.616944,-4065583.57602 179496.702272,-4065548.92729 179268.786042,-4065519.09627 178911.603546,-4065780.97108 177913.684044,-4065803.10203 177747.794469,-4065873.15383 177623.66783,-4065759.40884 177012.489567,-4065735.10662 176931.803635,-4066124.79019 176743.036241,-4066407.71081 176717.31045,-4066999.59007 176648.396772,-4067497.15214 175670.190638,-4067771.43415 175515.763125,-4067625.77462 174958.126383,-4067634.08215 174527.220896,-4067251.5878 174084.50101,-4066837.73298 173740.128228,-4066621.87149 173465.596083,-4066595.64734 173422.860236,-4066870.43518 173302.440072,-4067058.87641 172933.694625,-4066938.80919 172813.463123,-4067187.77051 172693.140609,-4067247.68324 172547.439742,-4067136.29494 172479.010122,-4066724.14709 172269.94045,-4066691.38121 171757.646414,-4066922.60264 171607.698413,-4066811.08769 171496.54527,-4066706.73573 171103.867864,-4066684.47711 170528.218761,-4066693.24965 170380.206659,-4066533.78193 170051.595586,-4066476.43324 169756.956574,-4066487.11748 169684.786332,-4066283.4097 169472.405355,-4066177.52871 169241.615194,-4066202.12746 168746.702757,-4066028.27565 168326.408041,-4065959.68189 168009.02893,-4065727.63054 167571.55799,-4065539.49613 166524.808178,-4065890.75363 165640.770653,-4066653.97127 164739.919795,-4066516.9837 164374.182227,-4066020.93037 164161.824607,-4065931.05653 163815.719842,-4065664.64234 163619.433803,-4065472.22735 163470.398119,-4065246.71898 163290.124853,-4065237.82357 162895.33202,-4065487.06632 162114.7762,-4065057.12119 162037.557945,-4064980.29458 161925.98811,-4065031.96797 161745.620592,-4065151.59774 161539.616143,-4065083.42034 161368.251564,-4064868.74807 161222.24012,-4064851.37646 161067.969407,-4064834.25787 161084.983366,-4065159.83601 160921.945148,-4065159.95869 160827.805552,-4064980.10443 160621.921764,-4064790.90555 160308.400289,-4064956.56182 160179.013738,-4064701.13772 160227.130684,-4064087.44775 160055.810548,-4063812.76548 159746.996311,-4063796.02528 159781.169226,-4063932.57606 159409.195361,-4064054.47572 159276.179377,-4064263.0406 159025.492896,-4064150.51908 159064.536983,-4063865.12761 159084.442285,-4063617.67146 158687.535518,-4063553.28727 158154.22736,-4063476.32144 158065.480596,-4063325.13621 157889.704394,-4063349.88444 157801.111996,-4063536.27312 157488.227749,-4063580.42477 156808.959888,-4063300.55395 156406.92679,-4063324.03595 156211.915922,-4063640.76756 155885.63365,-4063472.47658 155522.242724,-4063307.57701 154985.299181,-4063369.03274 154558.759482,-4063710.3445 154300.899412,-4063695.63074 153998.114828,-4063502.53926 153603.283045,-4063502.733 153105.699441,-4063828.41643 152316.191413,-4063965.83447 152161.786647,-4063811.18857 151870.238747,-4063810.97096 151510.254077,-4063749.69585 151244.18337,-4063641.7204 150914.670353,-4063715.38169 150502.1098,-4063765.05552 150243.291224,-4063882.83846 149814.707937,-4064510.13685 149540.956582,-4064424.93637 149297.109229,-4064134.09367 148935.35168,-4063948.24474 148710.365195,-4063553.44849 147951.233737,-4063260.7025 147487.462317,-4063342.35253 146877.067623,-4063469.12713 146241.12563,-4063672.65089 146000.998845,-4064102.04457 145630.754884,-4064208.49388 145231.46098,-4064099.03908 144547.551633,-4064042.08522 144404.879911,-4064272.85773 144112.947056,-4064444.65846 143992.553927,-4064674.59629 143460.709958,-4064959.24223 143131.800619,-4064686.86676 143003.760169,-4064294.47753 142599.210925,-4064210.37163 142310.716515,-4064083.22842 141744.869963,-4064066.81251 141272.041922,-4064209.20138 141111.331768,-4064399.42649 140938.445325,-4064729.30837 140508.859699,-4064855.4863 140351.427718,-4064618.24537 140200.270243,-4064564.21926 140011.111901,-4064752.59301 139719.656202,-4064615.86138 139558.458796,-4064630.04533 139410.733306,-4064804.1551 138989.57915,-4064698.55181 138920.726166,-4064559.47394 137969.348857,-4064048.96755 137437.187294,-4063516.48964 137159.610327,-4063584.70421 137111.181644,-4063448.23814 136613.577164,-4063516.37783 136538.145366,-4063304.59488 136407.750405,-4063225.18769 136137.61765,-4063153.10612 136047.131694,-4063327.92592 135858.438033,-4063567.81971 135686.786266,-4063413.16987 135292.102911,-4063241.85382 135257.724207,-4063070.30392 135275.404512,-4062846.80259 135103.363032,-4062864.16456 134752.798373,-4062839.68714 134597.972302,-4062716.04517 134391.626746,-4062684.87612 134045.758341,-4062988.58167 133627.581458,-4063001.08924 133278.38009,-4062830.63479 133245.632066,-4062596.12696 132658.587553,-4062946.6323 132304.670062,-4063059.57256 131893.979219,-4063189.81859 131448.005282,-4063103.48461 130820.352509,-4063131.23693 130653.8193,-4062780.22115 129866.436882,-4061886.09828 129338.561088,-4061854.82792 128269.228889,-4061836.88775 127865.046339,-4061598.7907 127580.565464,-4061747.81044 127319.643101,-4061342.47515 126944.907138,-4061399.2901 126821.366852,-4061601.12166 126623.59307,-4061860.74197 126128.580178,-4062345.00716 126076.936175,-4062650.99526 125772.127046,-4063137.43921 125279.411206,-4063101.21908 125072.158651,-4063268.04475 124901.58961,-4063612.98263 124551.259926,-4063840.53958 124548.384898,-4063861.45563 124512.20654,-4064118.39866 123776.34502,-4067826.7415 123208.362379,-4070693.50228 123041.936382,-4071510.09187 122803.899622,-4072873.58082 122161.521353,-4076696.15057 120704.899716,-4084899.08893 120308.394363,-4087035.33868 120144.266874,-4087973.9753 118862.696662,-4095305.9463 118632.380593,-4096516.59719 118321.304519,-4098152.34242 117988.537076,-4099877.43617 117441.557327,-4102775.14461 117279.369582,-4104013.82659 116968.738952,-4105641.56516 116818.491077,-4106607.09088 116675.140648,-4107367.81486 116599.912063,-4107766.5705 116244.534158,-4108053.40753 115969.297362,-4108194.14578 115990.456273,-4108405.28868 115958.870078,-4108632.8479 115942.877234,-4108807.3736 115921.796594,-4109034.74828 115921.685852,-4109304.75434 115990.380802,-4109439.82264 116027.566683,-4109724.94973 116106.857312,-4110089.84467 116165.232396,-4110302.106 116196.88813,-4110455.06253 116202.017107,-4110708.72573 116133.350439,-4110947.17113 116165.247171,-4111275.14124 116054.036359,-4111523.30843 116302.623303,-4111978.29458 116456.012731,-4112131.90961 116662.350883,-4112295.61638 116953.109459,-4112586.86537 117124.046612,-4112780.51009 117238.932391,-4112967.47026 117343.604166,-4113203.12558 117374.253704,-4113364.55331 117394.431266,-4113541.66697 117469.268614,-4114195.94317 117494.224047,-4114413.70228 117482.061605,-4114543.84205 118005.364393,-4114825.5846 118250.996318,-4115570.00147 118331.870914,-4115815.44382 118264.0398,-4116474.93388 118226.076585,-4116847.80902 117993.257512,-4117115.82019 118134.334999,-4117554.08173 118557.133442,-4117611.29841 118589.52524,-4117822.78222 117837.49356,-4118446.19395 117725.210453,-4118571.82247 117770.769555,-4119110.21595 117773.304854,-4119142.29359 117932.900663,-4119546.6116 117818.071635,-4119765.1672 117612.069879,-4119872.97533 117553.943079,-4119586.21464 117697.724478,-4119336.02867 117496.147314,-4119088.95515 117393.325228,-4118775.34943 117245.986066,-4118852.92124 117415.882957,-4119322.0508 117376.224739,-4119476.86443 117164.780618,-4119616.01016 116972.461862,-4119609.72507 116848.992679,-4119741.51645 116995.254389,-4119890.92204 117164.258312,-4119957.5085 117078.586572,-4120386.94902 117267.130678,-4120369.12012 117078.596579,-4120918.47115 117267.090593,-4121193.1534 117250.142243,-4121399.15214 117473.072941,-4121484.86294 117673.071816,-4121759.39219 117672.329895,-4122398.89789 117838.20347,-4122768.90551 118085.455938,-4122935.35324 118216.327055,-4123114.29966 118291.764235,-4123307.57876 118173.504201,-4123532.0303 117897.41671,-4123783.73308 117570.036541,-4123795.88104 117403.039239,-4124061.36674 117200.439215,-4124155.77324 116975.814295,-4124442.02474 116923.179318,-4124745.45323 116701.660878,-4124936.79356 116683.062243,-4125081.23967 116834.599804,-4125246.30793 117189.6184,-4125254.49473 117149.243939,-4125441.28746 117245.110409,-4125645.18208 117288.503698,-4125831.49647 117171.824852,-4126061.49404 116696.105442,-4126192.67832 116563.733097,-4126487.2054 116927.496317,-4126935.67603 116675.144634,-4127154.58749 116635.345094,-4127189.39064 116258.358854,-4127246.54234 116298.688042,-4127526.268 116653.150971,-4127718.94903 116639.868956,-4127927.5579 116484.820465,-4128078.39543 116601.74199,-4128321.92648 116941.283723,-4128462.15722 116725.913497,-4128640.1793 116301.978822,-4128595.91094 116320.731665,-4128819.98495 116655.385363,-4128931.56784 116784.377084,-4129164.46257 116358.032037,-4129225.12515 116476.622906,-4130160.23645 115856.476096,-4130172.55787 115688.666366,-4130415.01298 115981.029578,-4130693.83086 116072.006775,-4131010.08447 116301.045823,-4131158.49029 116355.988199,-4131359.65401 116044.98885,-4131417.28756 115871.236784,-4131234.54571 115566.093992,-4131363.35848 115906.122841,-4131620.11255 115844.851637,-4131886.27765 115604.570233,-4131721.03195 115396.876786,-4131743.77571 115621.227764,-4132056.04733 116495.180225,-4133120.92464 116461.145561,-4133412.41209 116238.899248,-4133727.22897 115944.026459,-4134178.8626 115767.089071,-4134359.03804 115341.52524,-4134617.72342 115358.118531,-4134813.73158 115721.329785,-4135031.18759 115585.924941,-4135077.60851 115328.459254,-4135026.34643 115156.775862,-4135214.67959 115626.291618,-4135455.34122 115362.661779,-4135575.4001 115353.736769,-4135664.13478 115315.306468,-4136034.99189 115030.086162,-4136182.90032 115062.666931,-4136395.89119 115396.425746,-4136520.45766 115818.464372,-4136403.67499 115963.282993,-4136484.5441 116151.896977,-4136613.73571 116289.497352,-4136759.89043 116289.446827,-4137068.40317 115983.148933,-4137343.18163 116055.293944,-4137960.38497 116246.476909,-4138568.1778 116341.221909,-4138883.54967 116646.99797,-4138800.26588 116734.55649,-4138939.41292 116494.139084,-4139375.68463 116814.436139,-4139623.35576 117189.367537,-4139866.67485 117671.492914,-4141380.29634 118097.366818,-4141468.14658 118091.872984,-4141152.96309 118371.361352,-4140996.38377 118521.042354,-4141255.91322 118525.006819,-4141514.04779 118865.446121,-4141864.83705 119203.670228,-4142289.06489 119176.958854,-4142909.29735 119294.088753,-4143153.84604 119446.985774,-4143472.47871 119629.934788,-4143922.0269 120104.744392,-4144509.39096 120295.002152,-4144410.12472 120434.798211,-4144276.3335 120451.758082,-4144078.83183 120559.350558,-4143976.57095 120729.450885,-4144048.20772 120771.869965,-4144166.99567 120786.385771,-4144207.93644 120479.600681,-4144564.70484 120512.039962,-4145014.21437 120786.550653,-4145495.03091 121130.078955,-4145494.89685 121191.875661,-4145617.77036 121113.042062,-4145810.90535 120584.189415,-4145721.94038 120579.839023,-4146412.85738 121171.028222,-4146399.69759 120942.24109,-4146938.8319 120914.966257,-4147362.03926 121017.863501,-4147481.65359 121187.559884,-4147467.27434 121304.627864,-4147274.79349 121398.115165,-4147192.60896 121603.457821,-4147256.31111 121593.606529,-4147417.02582 121396.051319,-4147468.06708 121447.544135,-4147708.63915 121524.696237,-4148267.00979 122194.314393,-4148703.75589 122571.860498,-4148686.65092 122812.077028,-4149218.44487 122589.156315,-4149819.76404 122503.367925,-4150334.21574 122346.786086,-4150750.52194 122250.899301,-4151061.15192 121896.715942,-4151115.96193 121832.716773,-4151480.05849 121907.973339,-4151637.34356 122054.481256,-4151943.79242 122373.107773,-4152072.92478 122230.14234,-4152733.6619 122436.896922,-4152833.41427 122700.608149,-4152744.37093 122229.162519,-4153544.19966 122641.102061,-4154110.18982 122435.214297,-4154693.52068 122074.874444,-4154745.14006 121918.799088,-4155235.46653 122009.082577,-4155855.24665 122195.396291,-4156358.41898 122756.355598,-4157147.43775 123869.883483,-4157398.10676 124163.460848,-4157942.52918 124706.699853,-4158242.47343 125170.81597,-4158645.53799 125438.400751,-4159206.18078 125617.68822,-4159801.15999 126088.972197,-4160190.44388 126582.427263,-4160565.89759 127022.960883,-4161004.75992 127266.276915,-4161574.17711 127422.323927,-4162176.96142 127566.039127,-4162782.37434 127746.722656,-4163372.40418 127992.916837,-4165326.57662 128088.802102,-4165074.44603 128950.786708,-4165020.50307 129393.617449,-4165027.89327 129545.549865,-4165626.06129 129940.070427,-4166106.5511 129902.453135,-4166688.98755 129790.639252,-4166938.63798 129758.955275,-4167258.72061 129668.620235,-4167443.01213 129944.953728,-4167548.88295 129664.257582,-4167810.42717 129408.816269,-4168113.24 129181.815995,-4168302.39813 129130.24212,-4168577.37315 129473.702883,-4168662.77307 129696.571853,-4168353.97443 129816.971362,-4168680.15838 129988.513258,-4168439.81573 130954.209864,-4170222.76414 131241.883811,-4170962.06828 130881.514555,-4171683.26508 130280.970957,-4172318.18137 130486.861814,-4172661.45879 129989.296105,-4173090.96102 129989.458607,-4173399.50835 130298.447339,-4173673.89745 130692.930994,-4173742.34554 130984.888258,-4173588.15928 131102.092244,-4173367.17485 131292.843743,-4173111.91102 131441.378823,-4173078.40096 131656.146227,-4173524.96375 132093.537584,-4173580.20759 132361.151996,-4173453.78727 132554.188206,-4173536.14056 133089.404276,-4173903.39048 133425.128261,-4174418.12696 133421.22165,-4175034.6021 133610.559253,-4175627.42282 133822.621003,-4176212.93145 134037.725227,-4176797.03326 134649.591347,-4176961.57928 135395.316725,-4176784.62174 135755.670022,-4176684.01174 136326.563011,-4176839.31514 136650.231679,-4177157.66356 137126.694118,-4177211.09255 137204.800564,-4177621.0254 137718.442813,-4177966.12983 137903.757329,-4178898.39916 137714.008823,-4179888.32726 138348.844535,-4180640.67786 138743.607368,-4180708.64076 139318.317846,-4181572.19546 139869.644677,-4182101.48416 139996.826272,-4182550.41802 140088.19243,-4182984.76543 140576.326957,-4183280.60085 141037.448696,-4183816.16492 141288.289084,-4183798.25657 141324.217729,-4184221.92618 141098.908445,-4184503.15811 141232.959131,-4184741.76351 141576.07406,-4184707.14665 141627.57125,-4184501.16585 141902.085648,-4184535.48477 142193.905287,-4184964.40537 141868.712973,-4185290.62251 141696.486688,-4185684.98477 141833.914312,-4185977.20437 142091.267143,-4186594.62124 142579.586742,-4186851.46191 142742.78731,-4186779.88999 142908.687937,-4187130.98566 143224.456906,-4187297.58297 143317.56052,-4186939.82935 143442.466484,-4187150.15518 143431.000158,-4187388.35689 143361.468415,-4187578.79027 143533.356054,-4187806.54314 143562.475779,-4188232.01332 143592.3887,-4188507.47666 143790.894417,-4188830.55672 143691.376032,-4189127.60465 143870.291947,-4190014.71153 144767.361064,-4191058.61085 145760.925439,-4191624.83392 146835.429434,-4191904.94655 147326.530988,-4192499.45796 147632.276405,-4193417.93061 148615.784277,-4194332.93969 149111.703178,-4195115.14952 150357.75163,-4194809.82614 150761.456895,-4195392.19725 151578.914564,-4195656.02615 152169.390904,-4196231.05657 152809.366117,-4196955.12606 153201.022633,-4197539.13965 154960.926892,-4197202.36642 155380.024235,-4197656.67962 155662.810303,-4198210.89111 155943.317564,-4198766.03517 156266.789266,-4199297.97593 156595.878755,-4199826.08719 156932.100251,-4200349.91466 157243.85295,-4200889.00631 157687.339552,-4201322.56132 158222.730458,-4201636.36843 158784.560316,-4201902.96379 159300.155703,-4202251.18175 159769.932782,-4202659.0292 160163.251499,-4203139.08188 160401.418379,-4203713.46239 160582.688975,-4204308.62644 160528.386555,-4205011.18542 161261.122183,-4205604.56098 161517.986095,-4206618.14442 162426.334283,-4207498.43297 162632.37685,-4208084.8543 162811.11762,-4208680.95259 163040.418276,-4209259.07886 163285.906003,-4209831.19519 163552.948925,-4210393.46306 163835.989932,-4210947.71462 164153.616591,-4211483.00976 164526.392845,-4211980.96579 164930.92381,-4212454.37759 165336.500395,-4212926.32171 165716.706143,-4213418.50454 167044.082814,-4213750.34232 167301.020614,-4213887.17415 167589.296792,-4213988.44398 167763.896299,-4214193.30317 167764.110084,-4214639.95812 168004.778044,-4214777.29767 168365.53847,-4214657.19059 168520.211904,-4214776.91804 168515.567044,-4215070.37573 168892.758762,-4215505.45333 169184.746654,-4215649.35086 169569.872696,-4215600.00525 169894.160979,-4215734.37818 170089.921914,-4216173.46051 170431.540368,-4216453.9092 171194.862132,-4217004.73096 171658.165162,-4217792.04527 171770.144909,-4217975.50303 172184.183905,-4217880.01627 172061.756528,-4218882.66004 171993.239393,-4219088.65656 171546.144346,-4219020.58256 171443.320022,-4219261.0512 171477.939885,-4219999.8625 171804.759656,-4220669.50737 172268.916889,-4221082.22428 172836.089084,-4221322.50175 173334.551537,-4221511.1779 173506.712616,-4222044.09026 173815.971934,-4222146.50094 173781.699548,-4222353.03799 173902.054871,-4222507.74268 174090.990154,-4222421.43724 174211.40709,-4222524.62484 174073.942545,-4222662.00918 174074.119578,-4222936.61591 174469.416991,-4223434.78169 175088.220754,-4223572.58809 175191.406319,-4224070.90197 175741.50001,-4224173.61284 176085.254751,-4224070.4921 176308.595998,-4224070.26057 176463.403129,-4224293.03631 176824.244795,-4224946.22 177309.12532,-4225698.70284 172859.09859,-4225520.24421 170532.413637,-4225440.16579 170523.260238,-4225420.38093 168141.666316,-4225320.61575 168139.770987,-4225383.0809 166204.728512,-4225287.34914 159092.801118,-4225228.00759 158063.356756,-4225198.24604 150211.021588,-4224968.6976 142317.875637,-4224911.29499 134662.521512,-4224786.93538 127848.8584,-4224636.53344 119815.495033,-4224489.35012 111851.947891,-4224446.63832 104128.009467,-4224368.55151 95956.5400932,-4224256.62838 87819.5795412,-4224006.56145 79838.737126,-4224081.60988 71856.1635921,-4223969.4107 63366.2736381,-4223796.49723 55406.9713999,-4201435.88331 55392.8964717,-4201397.45854 54937.9628094,-4200136.23602 54908.2169713,-4200054.33902 46328.4763184,-4176290.26162 32040.1525101,-4164351.30917 25796.576096,-4157649.64847 24148.3901445,-4155880.32684 22744.9992867,-4154007.50645 2837.72905659,-4148948.26302 -3071.76430762,-4147481.42876 -3306.42120485,-4147400.3622 -28372.8262935,-4142078.17375 -28788.4691745,-4142019.12316 -29119.8510686,-4141974.11542 -29243.4208756,-4141732.05692 -29439.0278721,-4141823.05938 -29677.0443169,-4142077.1504 -29967.3497963,-4142408.09628 -30288.7575671,-4142545.24842 -30418.0653528,-4142303.01743 -30486.4426028,-4142259.47892 -30728.4757685,-4142423.5155 -30994.4314533,-4142511.38586 -31280.4598644,-4142519.70971 -31572.1051879,-4142185.63233 -31977.4404083,-4141968.01896 -32435.185984,-4141699.35893 -32827.3905254,-4141460.6629 -33075.4002929,-4141310.76678 -33408.5808622,-4141185.27073 -33701.7930539,-4141002.03273 -33697.6764614,-4140808.31314 -34312.3450741,-4140491.94407 -35026.8126161,-4139800.3597 -35379.8659365,-4140067.44594 -35604.256831,-4140061.65241 -35705.5876493,-4139621.44333 -35843.2612763,-4139960.99397 -36336.7162159,-4139626.32008 -36692.3647122,-4139517.13635 -37200.8221786,-4139818.48267 -37482.0355423,-4139552.68443 -37877.2941378,-4139415.32506 -38186.5406248,-4139365.99809 -38405.8380276,-4139332.38295 -38459.5538362,-4139126.42899 -38691.5161811,-4139139.89091 -38907.1152491,-4139091.40078 -39046.2241526,-4138933.82014 -39206.9340887,-4139110.30243 -39908.9302271,-4139039.09732 -40409.7457486,-4139071.89779 -40919.6329132,-4139140.39222 -41448.6902447,-4139157.34963 -41744.4639298,-4138985.03831 -42121.2418213,-4139087.53474 -42553.3853257,-4139079.94913 -43289.3968061,-4139118.11698 -43541.4582103,-4138904.66822 -43721.1485258,-4138313.74598 -43822.7932081,-4137884.0469 -43923.7968691,-4137614.72608 -44054.9319892,-4137268.06182 -44211.0251783,-4137028.04789 -44524.0715698,-4136749.81604 -44756.0617392,-4136582.94034 -45110.3211381,-4136296.4703 -45339.2104419,-4136126.19306 -46118.0457185,-4135557.62696 -46417.424336,-4135298.29929 -46615.2500415,-4135091.99848 -46863.6044034,-4134888.16669 -47104.4388664,-4134733.01883 -47340.540847,-4134553.53703 -47580.42181,-4134399.91778 -47770.6016071,-4134196.84865 -48021.6254954,-4133973.95714 -48225.8468347,-4133780.95517 -48470.8534534,-4133631.67927 -48682.1720755,-4133376.02183 -48927.8669691,-4133117.32801 -49096.3955905,-4132933.4002 -49295.4830737,-4132727.56881 -49631.0702969,-4132211.89851 -49822.7252931,-4131999.79986 -50183.1723407,-4131620.75354 -50395.9859415,-4131398.02684 -50554.9681238,-4131005.58897 -50575.9935956,-4130717.72487 -50722.8879514,-4130388.09471 -50815.0158434,-4130114.06851 -50930.5788152,-4129830.34348 -51023.51661,-4129558.29189 -51086.1138829,-4129249.19302 -51280.0320502,-4129037.53282 -51413.6803539,-4128790.22877 -51571.8502286,-4128552.67492 -51653.892611,-4128291.94435 -51779.6095426,-4128112.81645 -51911.626225,-4127861.06806 -51973.1346388,-4127581.97675 -52064.0800325,-4127309.98963 -51986.5172772,-4126966.16233 -52015.5266666,-4126818.42759 -52041.4795134,-4126685.27128 -52086.3857208,-4126402.18637 -52144.4339027,-4126124.19991 -52241.2871528,-4125857.53097 -52372.4537103,-4125602.31528 -52510.5386572,-4125352.88567 -52511.2420878,-4125351.36589 -52660.4271928,-4125105.59817 -53535.1736169,-4124777.50442 -54281.227339,-4124074.6668 -54563.6460974,-4123923.78936 -54768.380381,-4123606.92062 -54954.3303951,-4123354.5564 -55061.0689889,-4123092.593 -55252.0112262,-4122881.53876 -55427.8703768,-4122658.95173 -55768.8326379,-4122478.34177 -56054.0317441,-4122378.33522 -56217.9754288,-4122241.02497 -56243.2941776,-4122219.28267 -56277.8888019,-4121510.94448 -56453.6435184,-4121284.86798 -56629.7230872,-4121061.27984 -56801.6600353,-4120832.82219 -56959.6177539,-4120596.2949 -57096.6487351,-4120344.91427 -57221.5676661,-4120089.40363 -57336.5451467,-4119827.20006 -57448.4987325,-4119564.0891 -57565.5183553,-4119303.32355 -57523.5813366,-4118947.44666 -57556.3556118,-4118443.46683 -57794.500478,-4117908.82866 -57864.2435256,-4117645.493 -57986.678486,-4117357.0952 -58046.4825253,-4117004.15062 -58192.7817474,-4116753.49665 -58289.796976,-4116358.97423 -58382.6744107,-4116050.98919 -58461.5897453,-4115801.86533 -58635.4083328,-4115610.82415 -58720.6467213,-4115356.01649 -58789.8505644,-4115091.20232 -59048.3999492,-4114761.25306 -59178.9754842,-4114544.04326 -59284.8733027,-4114320.08392 -59450.2054634,-4114079.3527 -59644.6019774,-4113708.88047 -59727.1569205,-4113497.61242 -59829.1971603,-4113253.29215 -59918.0039657,-4113017.36199 -59997.9207974,-4112743.23915 -60092.8117531,-4112585.0464 -60206.8042264,-4112322.88643 -60327.7021691,-4112115.96206 -60486.5947748,-4111876.92807 -60570.5389009,-4111653.63351 -60787.5296291,-4111419.84717 -60941.1422749,-4111162.9924 -61165.0527223,-4110984.94146 -61370.9488555,-4110822.41688 -61562.1547759,-4110686.30715 -61793.2472752,-4110539.50924 -62006.0381336,-4110348.80841 -62206.870747,-4110233.88832 -62432.9262074,-4110060.77122 -62641.529681,-4109980.08221 -62889.5030998,-4109838.27396 -63229.5327539,-4109626.77161 -63459.4347276,-4109457.03782 -63791.652746,-4109218.30139 -64025.7561923,-4109055.43551 -64268.5851501,-4108975.21964 -64519.4957961,-4108839.82013 -64758.2502044,-4108557.44423 -65013.0977086,-4108428.42092 -65195.477858,-4108289.58726 -65448.3983569,-4108154.62931 -65712.4134613,-4108089.76269 -65991.2986344,-4108029.44441 -66207.4266492,-4107925.06067 -66492.5841907,-4107899.0172 -66710.5296082,-4107863.5045 -66998.4663322,-4107871.8402 -67364.427416,-4107908.79914 -67636.4719475,-4107828.7093 -67971.114522,-4107704.28693 -68236.2109366,-4107592.44176 -68413.1690078,-4107497.72732 -68758.9326357,-4107153.21582 -69004.7283804,-4106872.63962 -69278.6960722,-4106798.48879 -69497.9620994,-4106649.06584 -69693.9801427,-4106523.81507 -69907.6676761,-4106421.50818 -70196.9107332,-4106199.06579 -70477.7523313,-4106137.69635 -70855.5373698,-4106111.37509 -71117.5584846,-4105847.29996 -71282.5223378,-4105677.53534 -71501.0278385,-4105561.10254 -71820.996499,-4105405.66636 -72234.7384266,-4105237.92818 -72851.8534031,-4104757.43939 -73185.731165,-4104499.70647 -73929.9789507,-4103937.00248 -74788.5259115,-4103255.51164 -75437.0522657,-4102998.34093 -75866.3338587,-4102766.225 -76279.5832401,-4102499.13296 -76497.6199587,-4102317.30178 -76848.5233793,-4102019.61988 -77097.5193989,-4101879.31247 -77311.0534233,-4101755.55031 -77560.0637376,-4101615.743 -77773.6012492,-4101525.44208 -78016.6036549,-4101376.82654 -78213.1657181,-4101295.02566 -78502.0598041,-4101044.6554 -78670.3054386,-4100817.87786 -78918.211443,-4100674.61147 -79430.819542,-4100456.99404 -79822.4686437,-4100152.61122 -80150.2182051,-4099815.68625 -80333.0646255,-4099667.88057 -80536.4633217,-4099397.60703 -80699.4707684,-4099062.62398 -80913.993359,-4098955.32131 -81196.3840104,-4098813.02657 -81512.0149086,-4098838.53161 -81898.3818545,-4098733.07538 -82085.6394741,-4099124.48229 -82458.8412613,-4099238.1518 -82668.0485471,-4098995.17637 -82906.5361986,-4098704.3827 -82989.5855514,-4098409.25573 -83201.2897607,-4098057.84174 -83370.2939395,-4097656.27087 -83601.4513664,-4097487.55066 -83821.2885203,-4097307.68422 -84029.3768437,-4097110.69181 -84238.5227455,-4096915.666 -84460.1357542,-4096736.74729 -84693.1581308,-4096571.96979 -84930.1163626,-4096413.56709 -85168.0572663,-4096254.63628 -85405.0299141,-4096096.73386 -85643.0001585,-4095938.80225 -85880.9999971,-4095781.86917 -86116.884455,-4095621.00506 -86348.0246066,-4095451.79427 -86574.7595336,-4095277.22289 -86805.9291539,-4095109.01135 -87046.8807936,-4094958.9845 -87302.6226724,-4094835.98106 -87568.6750224,-4094732.14504 -87839.7351703,-4094637.14829 -88108.5197905,-4094541.22134 -88380.5360941,-4094453.18798 -88652.3918873,-4094368.15601 -88924.2321776,-4094282.62557 -89198.4214277,-4094200.5208 -89471.2732855,-4094115.4603 -89740.3934866,-4094022.52211 -90010.1827422,-4093918.57857 -90273.2726694,-4093799.35591 -90501.1685656,-4093638.74118 -90823.8203184,-4093582.65451 -91194.8796893,-4093525.62022 -91508.8038541,-4093419.86041 -91904.6512633,-4093315.14745 -92321.4344504,-4093083.9747 -92626.8868137,-4092728.29986 -92828.531997,-4092574.96681 -92915.147048,-4092783.09999 -93377.9107755,-4092327.85181 -93877.6776091,-4092083.22057 -94108.6476971,-4091917.03009 -94765.047147,-4091633.76752 -94818.9520897,-4090864.18317 -95358.6961821,-4090545.46548 -96196.3935883,-4090614.81669 -96809.1266272,-4090190.56437 -96964.9632418,-4089949.73043 -97244.487836,-4089202.3867 -97221.9406377,-4089015.81418 -97149.1780911,-4088652.48264 -97485.7378785,-4088293.41066 -98054.554826,-4087761.13633 -98325.2508817,-4087579.29568 -98717.0855228,-4087499.69606 -99379.9235016,-4087416.00499 -99709.0026403,-4086998.74811 -99696.9962139,-4086395.43969 -99965.9021659,-4085827.19305 -100428.856308,-4085294.60542 -100844.68577,-4084914.71691 -101323.174996,-4084149.49829 -101625.665056,-4083292.16734 -101965.956277,-4082547.05613 -102133.041186,-4081912.4609 -101978.042818,-4081284.96296 -101805.732419,-4080813.76071 -101763.765976,-4080360.14622 -101626.748169,-4079975.7681 -101523.163778,-4079490.03381 -101529.280426,-4079318.09141 -101374.184857,-4079089.53255 -101361.844765,-4078750.37297 -101501.058567,-4078453.63835 -101580.079862,-4078181.16398 -101795.247424,-4077819.25895 -101985.130068,-4077043.68708 -102205.818306,-4076321.62551 -102530.121584,-4075532.5761 -102929.303719,-4074457.20535 -103547.893362,-4072682.80159 -102671.451333,-4070465.47786 -103585.274947,-4064499.71849 -106757.350613,-4062420.10673 -106431.170098,-4061917.49501 -106261.108489,-4061038.29164 -105963.764236,-4060371.05319 -105397.133128,-4059554.49846 -105217.546202,-4059019.57539 -104929.104588,-4058467.39759 -104748.857608,-4057707.30722 -104171.271647,-4057060.31353 -102820.875397,-4056712.76306 -102349.032827,-4056307.28899 -101808.519249,-4056002.70368 -101391.924733,-4055540.66631 -100848.747871,-4055205.19585 -100268.847428,-4054911.25163 -100009.712477,-4054370.65389 -99662.5583816,-4053859.11643 -99211.0293287,-4053431.54757 -99033.9266642,-4052802.63497 -98443.1800074,-4052674.2707 -98255.4739242,-4052633.37427 -97778.5602204,-4052234.00728 -97745.2083241,-4051814.55525 -97560.4050637,-4051313.68689 -97362.3354401,-4050777.75534 -96900.7564965,-4049865.6058 -96229.0838949,-4049685.68232 -95924.2648252,-4049838.9825 -95435.0500527,-4049242.71706 -95114.0430182,-4048847.21608 -94785.3137839,-4048596.25147 -94237.6743529,-4048304.80136 -94149.0651548,-4047789.08935 -93999.7580828,-4047145.33421 -93902.1286782,-4046365.72836 -93953.689249,-4046022.65259 -94262.5026783,-4045690.97318 -94396.7502452,-4045273.05703 -94551.1729745,-4044777.14829 -94935.9727136,-4044482.18534 -95268.8091244,-4044109.8579 -95268.8250392,-4043160.5988 -95202.4848898,-4042552.34866 -94495.4977576,-4041096.07456 -94354.079683,-4040167.44334 -94659.6175124,-4039010.44588 -94905.1114846,-4037644.99037 -95392.1106282,-4036408.76737 -95854.4165807,-4035393.99135 -96340.8913143,-4034530.3152 -95567.273946,-4033513.8742 -94325.2335125,-4032564.59347 -93761.3508011,-4031616.3717 -92519.8023445,-4032131.18769 -91646.9803848,-4032593.24883 -91642.9742101,-4032592.86703 -89729.3422736,-4033127.93545 -89152.5756172,-4033307.16615 -88906.0248378,-4033788.3189 -88821.9675674,-4034743.60948 -89013.0096965,-4035458.60559 -88627.1944126,-4036247.47863 -87706.152886,-4037124.99902 -87075.8049329,-4037511.57762 -86222.5071777,-4038119.95443 -85667.7050391,-4038681.10815 -85348.3255558,-4038994.63348 -84923.3449322,-4039648.35994 -84692.4045443,-4040192.50615 -84451.3045619,-4040382.8802 -84137.9682955,-4040392.60095 -84012.5064317,-4040346.35329 -83572.1304519,-4040748.34759 -83100.8263839,-4040880.07941 -82618.7558658,-4041273.81811 -81547.6299495,-4041701.38549 -80904.8455452,-4041801.71734 -80472.0549946,-4042249.45217 -80051.3146373,-4042707.8226 -79634.6699566,-4043169.57163 -79424.2212386,-4043832.5067 -79179.998339,-4044357.60079 -79327.3878771,-4044563.0124 -79101.8352397,-4044848.83554 -78617.7813443,-4044963.48781 -78138.4273952,-4045567.93639 -76840.2737597,-4046011.74919 -75688.0912087,-4046401.32502 -74894.0171606,-4047054.03655 -74258.8085515,-4047462.83847 -73856.8151908,-4048488.56266 -73406.3870403,-4049159.12229 -73033.8480987,-4049676.55533 -72538.8422846,-4050148.16337 -72375.8266699,-4050970.06888 -72149.4919525,-4051939.18529 -72225.3892562,-4052597.70735 -72380.8280817,-4053387.22816 -71865.4904502,-4053922.38427 -71559.8089476,-4054343.96451 -70857.3794174,-4054742.31892 -70618.9170661,-4055325.73615 -70329.6857221,-4055627.96848 -69470.4441222,-4055765.26513 -69191.8582893,-4055507.29729 -67869.7806739,-4055498.46101 -67631.2234381,-4055369.66491 -67476.504559,-4055593.00676 -67194.1591061,-4055773.67522 -66883.9201926,-4055501.15611 -66312.1755408,-4055582.00362 -65666.9319815,-4056284.86947 -64881.3190763,-4056624.28571 -64432.7857714,-4056784.407 -64035.0282803,-4056980.98686 -63567.3680979,-4057220.59477 -63227.8557915,-4057520.34408 -62994.2656012,-4057854.91929 -63223.5058659,-4058014.45815 -63013.0076151,-4058504.68761 -62700.998802,-4058636.80041 -62599.9316075,-4059153.76033 -62412.0298374,-4059243.2393 -62350.9092528,-4059717.56019 -62160.7656213,-4059824.08908 -61794.5955119,-4059822.45079 -61563.5571008,-4059855.26927 -61512.210612,-4060044.09772 -61340.4162303,-4060095.64026 -61271.3390863,-4060284.49505 -61030.9293015,-4060422.48474 -61048.0200993,-4060645.24911 -60412.14996,-4061023.72652 -60016.8364419,-4061075.40284 -59759.0539279,-4061436.18476 -59690.3189048,-4061762.89245 -59900.5884482,-4062158.24988 -59888.4566376,-4062616.64314 -59548.9476587,-4062722.61335 -59612.962544,-4062977.95355 -59026.733565,-4063581.74588 -58349.2642107,-4063601.8414 -57902.405381,-4063515.69643 -57283.5504219,-4063979.60902 -56707.9719671,-4064008.17369 -56240.2938436,-4064154.91749 -56069.4316513,-4064591.56034 -55925.8218478,-4064667.25124 -55917.9269271,-4065284.87568 -55522.674879,-4065658.74995 -55305.0242541,-4066580.31034 -55032.3148621,-4067119.38589 -54808.2908238,-4067279.38803 -54584.9411976,-4066764.03157 -54200.2430229,-4067081.15631 -53794.1779577,-4067519.8001 -54017.7127461,-4067898.28596 -53562.73128,-4068354.87003 -53227.0093118,-4068344.86265 -53106.712853,-4068482.30679 -53014.7441207,-4068808.22654 -52761.5493344,-4069104.47061 -52391.3081118,-4069361.73492 -51926.1835637,-4069720.72579 -51550.6862614,-4069691.92359 -51267.556525,-4069737.30285 -50940.0494403,-4070155.14834 -50809.7877113,-4070948.76969 -50627.1970743,-4071460.71734 -50517.478554,-4071937.03097 -50021.846033,-4072319.92253 -49686.3103173,-4072366.86723 -49525.1837664,-4072609.43576 -49497.2654554,-4073140.26731 -49376.5893771,-4073793.74598 -48758.041359,-4073982.4912 -48345.6185786,-4074257.51837 -48431.1826201,-4074463.77715 -48139.1453887,-4074738.72034 -47228.1579501,-4075323.319 -46596.8245516,-4076022.48711 -46386.855894,-4076805.52536 -46478.1278568,-4077345.80793 -46213.3294643,-4077478.58035 -45832.0896445,-4077525.90316 -45175.3658827,-4077833.70287 -44894.4451254,-4077844.56917 -44633.269042,-4078090.63389 -44361.660784,-4078196.1377 -44153.2763848,-4078336.22542 -43808.820487,-4078503.34728 -43480.2107732,-4078917.2762 -43231.4100927,-4079503.17266 -42843.9451447,-4079492.7404 -42450.2397166,-4079331.62824 -41900.8384044,-4079511.35788 -41591.6952575,-4079706.90759 -41451.2377418,-4079821.49692 -41198.7547022,-4080116.27035 -40457.6407754,-4080073.91975 -40161.8835287,-4079863.9271 -39935.2092991,-4079834.71535 -39819.959977,-4080032.48204 -39596.4882519,-4079825.82879 -39321.5459872,-4079911.95725 -38960.5655869,-4079860.27196 -38737.0550836,-4079928.88152 -38489.9763143,-4079835.33371 -38084.2653797,-4079791.47588 -38032.3771947,-4079550.72971 -37740.3759844,-4079533.95548 -37568.5492918,-4079258.31622 -37156.0106236,-4079069.28314 -36793.3103623,-4079027.13823 -36398.4781561,-4079407.09634 -35744.69533,-4079312.18033 -35615.2592157,-4079469.90995 -35553.2212356,-4079735.0393 -35368.5668438,-4079808.48743 -35213.7514343,-4079533.83538 -34990.2276846,-4079585.46127 -34577.978363,-4079481.84666 -34509.0679602,-4079189.64432 -34113.5683953,-4079086.52808 -33735.4230246,-4079138.26641 -33546.5536649,-4079103.92901 -33349.6767034,-4078867.99536 -33004.7365686,-4078768.36641 -32580.2579078,-4078380.34381 -32490.6072069,-4078096.24835 -32279.1470466,-4078075.07234 -31986.1052005,-4077755.57032 -31429.9463452,-4077777.13929 -30951.2461128,-4077539.60564 -30744.9432938,-4077230.50452 -30401.1751909,-4077178.79664 -30341.4252,-4077110.1329 -30160.648016,-4076903.18759 -30108.901057,-4076491.05717 -29679.3261098,-4076342.98152 -28991.8491159,-4075906.31991 -28709.5378035,-4075905.23661 -28501.4680552,-4075780.03696 -28191.8333393,-4075582.9204 -27969.3199661,-4075467.64263 -27592.443597,-4075352.96514 -27301.3522615,-4075359.137 -27199.1533077,-4075517.5613 -27117.2740202,-4075636.91017 -26709.8232465,-4075628.06291 -26528.605926,-4075666.43559 -26381.0274798,-4075634.85904 -26353.8375066,-4075401.34791 -26221.4403904,-4075292.37754 -25915.8516895,-4075407.39893 -25404.4431908,-4075145.84119 -24944.2036745,-4074815.80803 -24657.043618,-4074828.35734 -24128.3519884,-4074531.83645 -23840.109573,-4074440.99461 -23312.422777,-4074488.6858 -22560.2306283,-4074740.41869 -22067.7276176,-4074577.21746 -21833.1050649,-4074617.68079 -21703.5158919,-4074569.57827 -21521.5767409,-4074382.63691 -21133.7338191,-4074319.74162 -21086.9905137,-4073815.49975 -20796.7499049,-4073456.40795 -20419.4808011,-4073203.33141 -20023.3121701,-4072902.85054 -19321.0307688,-4073145.10216 -18671.1763608,-4072815.69771 -18646.2109661,-4073126.72213 -18634.8381766,-4073466.32139 -18256.7407558,-4073294.70886 -17986.355337,-4073325.74398 -17678.8945664,-4073554.74575 -17462.5596716,-4073236.41444 -17268.5313564,-4073088.29908 -17058.2538741,-4072872.71429 -16639.9295612,-4072885.66953 -16168.7046092,-4072623.89004 -15956.3612883,-4072464.82572 -15797.8499855,-4072318.14867 -15624.8697453,-4072113.44198 -15403.6316781,-4071882.19043 -15124.4201046,-4071843.53424 -14896.7959566,-4071657.94076 -14576.7801359,-4071457.10904 -14302.8298199,-4071477.75529 -13983.232646,-4071467.28226 -13711.0456589,-4071370.95445 -13279.3524802,-4071186.93578 -13141.8540063,-4071049.62255 -13008.7054835,-4070546.42217 -12654.4989272,-4068222.50427 -11631.8523473,-4065304.84172 -6364.34005923,-4047744.63196 -6150.04338172,-4047029.90359 -6085.75803702,-4046816.43388 -4142.64483329,-4040338.69934 -4001.82149967,-4039868.63084 -3988.64087122,-4039811.55295 -3811.76798321,-4039034.72203 -3388.85653344,-4037177.76553 14679.6152588,-4038556.97796 15316.6304795,-4037448.81072 22320.2078055,-4038185.28993 22733.2536579,-4038229.00114 25963.1704768,-4030805.80335 26254.9931929,-4030681.47463 26602.3400011,-4030327.36726 26701.5077048,-4029838.46889 26917.3805837,-4029493.46925 27286.7029632,-4029232.97497 27679.8301117,-4029122.63216 28013.0830194,-4029059.50343 28537.0514562,-4029079.98371 29369.458729,-4029217.54326 29437.5960174,-4029229.05364 29946.0401735,-4029166.10426 30439.5571674,-4028931.76899 30945.8825867,-4028813.77414 31555.5029566,-4028667.84129 32483.6910562,-4028626.293 33123.3124294,-4028784.65362 33613.5731291,-4029100.55231 34109.1320238,-4029051.21966 34759.9119117,-4029077.45442 35495.7104711,-4028527.37231 36127.8558036,-4028457.08364 36637.5284908,-4028378.67612 37241.9865172,-4028230.59081 37708.2364982,-4028090.91611 38295.0159218,-4027923.8124 38924.7171842,-4027573.02669 39351.2408777,-4027314.707 39678.5288424,-4027031.45877 40260.8580135,-4026812.2332 40888.5663268,-4026782.79979 41421.9452335,-4026630.10894 41953.6847436,-4026549.85111 42569.6775221,-4026519.57222 43063.6673608,-4026448.19627 43759.7306649,-4026364.29857 44450.9058618,-4026082.30291 45050.093848,-4025919.05848 45544.3336341,-4026186.11244 45775.4010337,-4026393.39867 46353.2630601,-4026613.4393 46859.845501,-4026218.00949 47318.562079,-4025776.17209 47733.3891933,-4025694.45749 48519.1375473,-4025722.68944 49163.6735864,-4025750.74626 49733.4035014,-4026001.04632 50162.3444292,-4026338.16626 50282.3596887,-4026801.62318 50700.0336746,-4027215.39733 51639.0322534,-4026862.7496 52570.9739589,-4026140.46032 53190.975746,-4026170.29805 53882.4597434,-4026048.27913 54364.594406,-4025914.06817 54841.4691445,-4025619.72919 55352.810238,-4025579.86513 55787.889173,-4025135.31302 56098.146067,-4024930.52631 56480.8268594,-4024736.37991 56736.6522785,-4024377.50655 57169.1759377,-4023765.89909 57395.7674536,-4023939.07481 57595.5909383,-4023943.98534 57765.6776344,-4023965.51367 58025.0474514,-4023858.7031 58174.3898723,-4023711.1436 58033.40939,-4023575.99369 58162.2080146,-4023463.8208 58264.7914024,-4023392.86607 58316.8011641,-4023189.43519 58494.9135476,-4023100.21711 58531.8055722,-4022900.83803 58664.371573,-4022568.30824 58896.2508872,-4022402.19088 59160.6023771,-4022389.01156 59265.3701487,-4022075.15527 59373.8984012,-4021946.88334 59584.7055872,-4022003.11017 59870.3362626,-4022048.05184 60145.0632853,-4022022.18108 60319.9046515,-4021730.8923 60454.1533833,-4021721.86411 60739.9116299,-4021804.80475 60922.9501781,-4021794.22001 60969.1197363,-4021458.63014 61080.960253,-4021387.44733 61323.9713007,-4021360.63815 61390.1383856,-4021464.58161 61405.238061,-4021664.00223 61616.0207241,-4021704.2316 61984.1998305,-4021417.65842 62509.1384129,-4021654.15587 62685.8892851,-4021653.38432 62800.8575084,-4021510.30273 62980.9862562,-4021429.14085 63019.2602788,-4021140.80789 63261.0303175,-4021172.9553 63356.4766392,-4021013.79745 63467.0044417,-4021164.54889 63588.2088005,-4021250.12398 63892.1655339,-4021030.64067 63981.9822254,-4021070.29285 64016.3340643,-4021404.77031 64140.9182561,-4021485.9464 64337.1551599,-4021375.76424 64518.8722107,-4021207.15897 64600.1130668,-4021224.06033 64680.0599786,-4021335.41285 64685.6565086,-4021602.54835 64787.8665152,-4021679.56353 65063.4120552,-4021550.22994 65248.9293418,-4021675.70469 65423.8072979,-4021645.38195 65532.4944669,-4021562.60656 65715.5203583,-4021654.01176 65938.2632783,-4021797.08681 66346.0776337,-4021675.16608 66313.9297879,-4021435.23987 66653.5680448,-4021699.76172 66974.8768455,-4021595.27952 67223.5851213,-4021798.61835 67364.6195397,-4021577.31354 67887.1472679,-4021887.24542 67985.8746013,-4021642.69043 68102.4805059,-4021985.10834 68358.7271653,-4022263.1653 68524.960855,-4022035.10645 68672.1696982,-4022128.95432 68995.3032305,-4022191.01196 69209.3113581,-4022468.82068 69561.4095443,-4022574.23284 69714.80967,-4022636.26792 69683.2028005,-4022977.80194 69963.6580043,-4022801.11947 70235.6580436,-4022901.66243 70448.2466384,-4022990.94798 70505.7129288,-4023034.1455 70644.0680273,-4022945.74879 70676.3484198,-4023088.19239 70590.5056548,-4023311.1321 70693.477387,-4023328.67912 70835.2306958,-4023218.38509 71089.1793644,-4023219.40328 71222.1900523,-4023269.33708 71266.4011297,-4023481.6286 71454.9292746,-4023319.7236 71627.6356816,-4023379.83213 71593.0683933,-4023517.29761 71425.3966824,-4023633.3237 71527.997087,-4023823.84605 72002.0893564,-4023827.8837 72134.1926839,-4024009.78108 72315.5177709,-4024023.64941 72341.3094396,-4023912.4218 72410.0779189,-4023860.96214 72493.052945,-4023886.91718 72572.9958323,-4024015.27464 72710.5132011,-4023938.35276 72813.4489769,-4024066.89129 72856.1413289,-4024153.14906 72984.9587322,-4024015.47416 73098.7582421,-4024038.84246 73153.90575,-4024143.46788 73201.0156204,-4023886.38189 73259.787645,-4023792.62916 73345.5036149,-4023852.66313 73362.6719896,-4024032.65851 73276.8577643,-4024170.10711 73457.0959809,-4024186.94368 73731.8239094,-4024178.58053 73714.7767429,-4024273.06893 73465.7390498,-4024384.68529 73542.9446186,-4024461.96625 73740.4417361,-4024427.818 73877.7416914,-4024341.39057 73903.3900686,-4024505.13863 73886.3357608,-4024633.62439 74049.3092908,-4024659.44964 74130.2829336,-4024845.83492 74375.4776416,-4024779.60225 74426.946257,-4024839.62263 74469.8608858,-4024985.88374 74598.0428752,-4024945.68344 74744.4003135,-4024899.5219 74813.1209794,-4024942.55464 74820.196705,-4025041.25761 74890.5070637,-4025140.33374 75122.172677,-4025277.68737 75130.5880306,-4025432.42641 75250.4998633,-4025595.46806 75353.7340838,-4025629.52426 75396.6700276,-4025741.28897 75499.5607372,-4025938.82442 75534.0063184,-4026041.83824 75636.9925578,-4026067.38795 75800.0146612,-4026007.22206 75902.9567548,-4026101.76614 76040.1923719,-4026118.83135 76226.1208786,-4025918.35294 76218.8255032,-4025751.14711 76292.8300533,-4025750.8398 76465.0777661,-4025834.93826 76615.0480029,-4025734.38785 76704.5304226,-4025566.04909 76854.1571024,-4025628.97872 76959.0589231,-4025632.08673 77097.9920682,-4025752.19642 77177.965277,-4025601.07464 77276.5769265,-4025681.49199 77370.5558331,-4025715.77473 77533.9717607,-4025878.60793 77602.3006591,-4025698.64251 77774.0942095,-4025578.73941 78005.8525148,-4025569.60716 78107.2840831,-4025588.61174 78158.0164147,-4025724.10802 78280.535933,-4025655.74208 78649.5174446,-4025664.17558 78761.3585561,-4025450.00019 78907.0549273,-4025552.81261 78993.0716644,-4025518.36319 79044.6241786,-4025398.39648 79207.6012217,-4025424.22474 79250.6653695,-4025287.00714 79353.4334938,-4025244.05435 79357.0486806,-4025240.16165 79473.5025117,-4025098.11876 79696.7968465,-4024969.74095 79928.5353902,-4024995.10676 79945.7044794,-4025158.10871 80203.7945749,-4025281.25178 80419.8452073,-4025490.14596 80473.0926462,-4025481.72433 80578.7984187,-4025643.35061 80786.5833778,-4025692.50682 80959.7353164,-4025754.63626 81004.5225321,-4025930.45698 81109.3515387,-4025809.56856 81411.4706777,-4025889.52017 81516.2297961,-4025754.13 81655.2516766,-4025879.74614 81751.4479498,-4025797.10025 81985.9305316,-4025780.55088 82064.8965205,-4025874.38837 82229.6535815,-4025899.27113 82326.8529365,-4025993.64925 82483.1244873,-4025925.28358 82639.2601884,-4025937.4114 82813.5771978,-4025985.57715 82962.4070777,-4025822.49358 83135.829779,-4025799.6349 83221.4071157,-4025704.17422 83413.0320075,-4025691.35478 83782.1856484,-4025373.80518 83936.7003341,-4025347.88589 83988.0261176,-4025201.91056 83859.3187393,-4025133.09709 83985.2086333,-4024993.33165 84002.0221299,-4024906.83189 84138.9485254,-4024757.39351 84220.043109,-4024669.79889 84374.5299714,-4024703.87712 84451.751225,-4024721.66561 84529.3046975,-4024635.4659 84632.0289161,-4024670.01 84752.2748537,-4024670.07411 84816.9160794,-4024572.49177 84992.3202592,-4024567.19086 85078.3361027,-4024549.74068 85078.266466,-4024661.73684 85249.7554682,-4024687.31957 85361.4847879,-4024730.13076 85404.2792413,-4024627.40075 85481.5363109,-4024618.69089 85507.2606071,-4024695.45233 85584.4989951,-4024704.24171 85662.0304745,-4024652.5406 85799.254042,-4024687.10777 85910.6885183,-4024798.90961 86104.1930991,-4024866.14499 86480.3742792,-4024935.79594 86625.8072809,-4024988.60684 87122.5880736,-4024936.83478 87242.2457971,-4025007.38176 87464.243232,-4024939.96369 87771.4593517,-4024814.57227 88060.6666435,-4024858.14639 88342.5673704,-4024920.50415 88720.9381847,-4024941.7225 88787.4767797,-4024906.6953 88892.7926896,-4024862.31779 89028.3846207,-4024968.83829 89326.7367816,-4025117.1851 89811.3531388,-4025147.05512 90126.60751,-4025155.40341 90394.4230067,-4025203.84549 90518.5706571,-4025123.02628 90913.1602047,-4025229.7287 91055.0559062,-4025216.43652 91140.8280568,-4025063.97835 91316.3592894,-4024919.68189 91571.6702368,-4024976.7539 91884.3612817,-4024903.02582 92330.5927421,-4024920.75961 92888.5407173,-4025049.30936 93102.8774459,-4024911.66337 93267.3902681,-4024650.03671 94304.5438421,-4024637.29656 94467.5701211,-4024569.12991 94665.1095656,-4024508.98707 95077.1323515,-4024500.20733 95257.4518624,-4024380.05182 95471.9459854,-4024388.91406 95575.1488108,-4024466.47772 95866.8573448,-4024594.63463 96029.5820527,-4024620.96236 96064.3004079,-4024689.49463 96561.7765776,-4024766.75443 97231.285274,-4024792.6165 97471.4811815,-4024912.74714 97814.9641241,-4024955.93917 98269.7407076,-4024930.43045 98527.360103,-4024724.56423 98801.8708462,-4024716.20814 99062.433059,-4024781.94195 99207.1318738,-4024859.73893 99229.3018884,-4024870.89727 99609.3082203,-4024888.17317 100381.088717,-4024374.54524 100776.261173,-4024167.25845 101033.878542,-4024096.39794 101299.714011,-4023841.27014 101454.248948,-4023789.85205 123472.43995,-4023762.12531 129749.404915,-4014668.49779 135853.603631,-4014224.70523" style="stroke-linejoin:round;stroke:#000;stroke-width:1px;fill:none" /></g></g></svg>