<svg xmlns="http://www.w3.org/2000/svg" baseProfile="full" height="63208.3673667" version="1.1" viewBox="19844.322477,3855398.774039,91745.088510,63208.367367" width="91745.0885102"><defs><style type="text/css">polyline,line,rect,path,polygon,.polygon{fill:none;stroke:#000;stroke-width:1px;stroke-linejoin:round;}</style></defs><g fill_rule="evenodd" transform="scale(1,-1)"><g class="id" id="50126"><polygon class="_50126" id="None" points="19885.6732164,-3897778.7105 29399.2615202,-3884787.23645 38937.6705983,-3872563.18836 47624.1114503,-3855471.43432 67484.9385556,-3864978.57954 70019.4080482,-3867342.4605 72372.1714016,-3869537.0476 72546.87347,-3869700.16568 73892.4196286,-3870955.15238 75928.5208732,-3873274.71203 76983.3922945,-3874772.06566 78094.8887452,-3877049.36013 78681.7038203,-3878636.3197 80298.8790199,-3879460.9837 83101.2997155,-3880890.88547 83956.3374108,-3881327.5128 83980.6238685,-3881339.43975 85938.8394603,-3882338.18299 90314.1974871,-3885080.16414 90762.8948262,-3885346.3008 97010.0472699,-3889241.0219 97273.6737426,-3889451.59452 97366.9401481,-3889431.1752 97509.4862402,-3889540.12282 97666.7506942,-3889584.64653 97987.9527838,-3889766.93388 98289.3391631,-3889755.49534 98545.9339151,-3889908.31073 98725.0072893,-3889931.67514 98961.563359,-3889955.24431 99132.2032633,-3890100.76497 99318.5346295,-3890123.90807 99512.1043932,-3890147.3288 99719.1787599,-3890235.75698 99991.8839912,-3890216.22014 100316.240233,-3890062.18566 100602.283824,-3890157.64191 100761.144921,-3890030.25494 100939.618729,-3889991.10628 99863.5530819,-3893880.70969 99429.6526516,-3895351.81823 99679.0021301,-3895452.37498 99894.3105794,-3895541.12698 100181.03785,-3895586.12798 100597.587644,-3895824.08373 100850.225722,-3895975.76041 101269.764104,-3896103.34928 101688.568371,-3896152.42198 101913.306615,-3896243.0377 102069.261101,-3896451.99576 102319.432189,-3896440.10312 102475.915799,-3896524.59966 102536.48293,-3896685.4028 102627.58907,-3896734.39426 103021.646305,-3896751.02295 103102.426491,-3896847.61163 103164.830463,-3896914.99873 103288.985619,-3896767.28598 103471.718091,-3896877.78776 103635.806581,-3896972.57596 103749.305396,-3897095.91799 103924.545064,-3897128.14291 104135.062079,-3897263.70924 104141.329768,-3897393.43327 104175.704209,-3897494.24037 104254.178638,-3897559.74558 104448.456767,-3897460.71878 104583.671542,-3897591.39483 104770.141253,-3897578.55726 104955.621518,-3897702.16487 105018.149127,-3897896.54232 105154.25983,-3897919.26673 105328.029125,-3897748.96061 105386.164313,-3897706.19828 105535.81469,-3897779.93643 105634.611115,-3897967.20834 105828.014354,-3897969.13553 105825.267082,-3898255.49659 106091.721298,-3898158.24107 106243.719674,-3898001.59638 106313.391805,-3898224.7467 106377.503165,-3898254.20556 106407.753976,-3898110.88353 106537.103432,-3898068.85579 106615.21591,-3898163.34506 106607.425838,-3898249.03633 106714.470024,-3898293.14246 106841.209919,-3898273.51208 106903.078202,-3898354.87921 106934.633164,-3898503.07489 107016.545668,-3898570.21356 107195.83633,-3898536.10317 107393.561571,-3898536.19705 107421.196835,-3898636.74776 107419.899995,-3898787.68197 107584.793382,-3898796.51423 107684.104463,-3898911.81654 107604.331644,-3898997.24366 107703.948634,-3899091.56006 107737.695261,-3899299.83471 107873.06302,-3899387.52531 108196.032446,-3899361.43358 108238.469813,-3899441.05567 108249.890853,-3899742.46429 108335.317962,-3899822.23792 108366.141957,-3899592.44473 108437.761036,-3899615.19353 108529.795531,-3899737.7168 108664.39982,-3899903.87125 108835.519575,-3899991.43626 109044.111806,-3899936.45439 109108.015795,-3900023.40102 109170.77342,-3900224.79301 109312.597628,-3900398.22526 109483.29787,-3900535.77046 109568.093413,-3900651.51762 109726.42018,-3900610.10393 109891.1834,-3900654.92979 110146.335522,-3900936.70777 110257.791923,-3901282.46027 110350.591359,-3901333.02148 110414.036825,-3901477.44699 110691.764627,-3901659.60301 111133.536338,-3902113.54141 111040.794416,-3902067.98132 110987.16556,-3902045.42239 110835.150258,-3901987.58574 110830.081056,-3901982.89134 110825.146376,-3901981.20186 110727.353318,-3901897.95091 110723.95467,-3901895.32053 110680.597027,-3901839.65908 110558.49768,-3901803.47044 110442.100845,-3901762.00139 110354.812863,-3901730.65003 110208.715701,-3901766.03331 110156.048488,-3901777.00864 110034.012505,-3901875.81087 110020.879596,-3901885.80537 109944.385934,-3901937.86152 109919.273015,-3901979.89287 109840.977011,-3902098.37387 109840.461283,-3902170.34776 109839.581055,-3902251.80682 109826.909701,-3902282.31721 109747.905557,-3902471.26462 109738.997034,-3902488.42076 109734.446742,-3902496.24521 109640.654545,-3902588.63262 109574.683403,-3902659.59102 109567.598866,-3902674.8174 109564.066188,-3902682.18098 109562.726544,-3902814.61775 109414.501324,-3902937.91011 109349.819141,-3903092.4103 109346.824035,-3903098.79461 109329.601424,-3903111.13157 109151.883959,-3903234.28993 109130.821298,-3903248.97904 109032.97555,-3903271.21628 109000.181117,-3903278.9551 108847.303661,-3903204.58606 108721.173724,-3903162.74214 108591.703059,-3903123.26965 108583.293141,-3903120.94664 108322.627993,-3903171.4231 108193.025111,-3903193.93956 108178.336861,-3903198.87452 108002.23144,-3903254.10033 107992.515965,-3903253.22699 107737.916786,-3903223.94404 107734.191878,-3903223.30093 107605.836375,-3903206.86906 107459.757065,-3903124.76266 107289.06573,-3903136.70074 107169.465783,-3903113.60616 107139.12905,-3903109.44057 107040.247017,-3903106.64022 106985.026928,-3903112.51715 106982.761297,-3903112.93002 106968.591558,-3903117.38492 106921.16737,-3903141.55956 106828.027698,-3903184.47504 106695.048177,-3903255.85609 106679.995341,-3903263.77665 106675.195296,-3903265.092 106463.129319,-3903319.4348 106459.327696,-3903320.78853 106405.784526,-3903562.70418 106382.785559,-3903679.8074 106309.173012,-3903734.97169 106298.901033,-3903742.07605 106185.736435,-3903818.21753 106138.96506,-3903838.41735 106125.832779,-3903867.90928 106125.276007,-3903869.38771 106063.723172,-3904007.50626 106061.515266,-3904012.92079 105889.406473,-3904113.79317 105826.756898,-3904150.38059 105758.616346,-3904199.75546 105676.498443,-3904268.09078 105647.525577,-3904280.47552 105588.581446,-3904305.20661 105477.336293,-3904344.42529 105436.056167,-3904358.33666 105429.220945,-3904360.57362 105197.094218,-3904533.6293 105093.760599,-3904620.64631 104975.163001,-3904714.57552 104942.868964,-3904748.32991 104925.819495,-3904762.6727 104827.036621,-3904867.86224 104775.427602,-3904922.8714 104677.374305,-3905028.58872 104627.301546,-3905102.15465 104502.561123,-3905284.33645 104421.212427,-3905443.18935 104382.832383,-3905518.2045 104225.834098,-3905570.66087 104161.687007,-3905594.19125 104154.602216,-3905596.41853 103902.201147,-3905841.68227 103901.970862,-3905854.17189 103900.454065,-3905854.6135 103894.157276,-3905946.86003 103773.448171,-3906115.19707 103658.901869,-3906240.27624 103579.088254,-3906359.19183 103590.763226,-3906660.10354 103692.19731,-3906830.48398 103706.002171,-3906855.01195 103821.624844,-3906955.44697 103844.741787,-3907030.32702 103851.07784,-3907067.06627 103592.242589,-3907284.58327 103408.690517,-3907474.99891 103321.752954,-3907525.64825 103197.989872,-3907591.37899 103147.761934,-3907831.41658 103035.115046,-3907998.0619 102938.999301,-3908144.34558 102905.283887,-3908195.54195 102869.78286,-3908247.66948 102669.833808,-3908402.95672 102657.52672,-3908397.98385 102581.956227,-3908367.58018 102495.614691,-3908331.26288 102363.423656,-3908330.17699 102214.028041,-3908509.90541 102200.127195,-3908526.86834 102163.935331,-3908544.97342 101986.508869,-3908634.63476 101971.475339,-3908642.05533 101932.883704,-3908644.57009 101891.354456,-3908651.97116 101640.124949,-3908684.80001 101499.793597,-3908713.39644 101477.96361,-3908702.55793 101383.923792,-3908658.44545 101255.074182,-3908680.98446 101244.149566,-3908679.06436 101232.975354,-3908677.13466 101060.888763,-3908647.51713 101004.672383,-3908620.85771 100996.33977,-3908616.53769 100921.999028,-3908580.18226 100789.847764,-3908578.09761 100718.789539,-3908605.8595 100710.437512,-3908621.53592 100709.880705,-3908623.01429 100628.568382,-3908774.3641 100605.048234,-3908820.45253 100534.679694,-3908960.22492 100504.727366,-3909024.06326 100493.303524,-3909028.62301 100466.078277,-3909041.07357 100436.664302,-3909051.94013 100352.819937,-3909028.71696 100348.403964,-3909033.04641 100223.451123,-3909155.72038 100197.76179,-3909173.72919 100182.113962,-3909184.12553 100179.29149,-3909192.5157 100133.99753,-3909323.75374 100125.069646,-3909328.40949 99996.4314342,-3909390.94992 99958.2047716,-3909409.97603 99893.6743525,-3909449.98677 99706.6893044,-3909489.28487 99630.7356409,-3909507.85903 99543.7038552,-3909528.5065 99519.4931712,-3909534.07391 99442.6370179,-3909563.11171 99413.7607887,-3909572.99891 99333.9287691,-3909601.42223 99104.6300931,-3909571.10185 98952.6656096,-3909616.24639 98741.8163201,-3909678.12192 98642.2285663,-3909700.28561 98596.2266811,-3909707.01405 98514.1683357,-3909715.35449 98495.3529075,-3909717.13005 98433.2623482,-3909706.7419 98381.5586101,-3909699.25307 98311.2507923,-3909688.04879 98297.8304865,-3909686.03258 98286.4067782,-3909690.59219 98157.0209592,-3909759.60152 98039.73012,-3909858.57153 97956.5737977,-3910038.34248 98004.3186274,-3910200.65467 97596.8787947,-3910642.40079 96656.386299,-3910633.19717 96278.1180793,-3910869.09541 95879.2778659,-3911412.14796 95470.961097,-3911714.37438 94828.794472,-3912189.06358 94466.4191292,-3912544.54524 93880.6227616,-3912983.40495 93332.5684444,-3913487.20275 93328.4213156,-3913491.0423 93285.6157854,-3914414.22269 93334.906578,-3916398.25884 92964.3925087,-3917626.25416 92307.5320234,-3918027.85804 91775.204894,-3918090.82371 91605.8653284,-3918405.23507 90949.0314113,-3918319.92703 89408.796323,-3918120.08205 89046.9879542,-3918305.09338 88877.6980509,-3918080.11312 88749.2340163,-3917956.68602 86995.1628697,-3916269.4328 86771.2733538,-3916053.85159 85285.4456067,-3915422.72888 84821.9305119,-3915503.84402 84363.9515887,-3914967.82306 84006.1666851,-3914964.53454 83523.9638512,-3914959.95094 82669.3143828,-3914677.58367 82371.8377012,-3914601.13854 81625.9026959,-3914409.94024 81285.8443747,-3914115.41328 80602.5394771,-3913868.64699 77153.8322292,-3912310.20161 76692.2023434,-3912167.95787 76285.4560369,-3911684.43425 75977.0861143,-3911664.05995 75360.7167447,-3911555.34692 75012.5238278,-3911400.98087 73831.0657055,-3910877.63322 72116.8661335,-3910118.85104 71215.8998537,-3910002.68527 70678.2522329,-3909933.49887 69552.4746397,-3909470.79854 68150.1917429,-3908686.57377 67719.917835,-3908542.05601 67203.0265768,-3908154.79483 66531.2653534,-3907947.50362 65901.785325,-3907401.47386 65429.86388,-3906605.61387 64970.0603468,-3906313.02664 64374.7130479,-3905633.37862 64041.6145345,-3905366.66373 63649.0523099,-3905067.17464 63351.8312476,-3904634.41167 63019.561835,-3904047.36573 62270.5635951,-3902860.0393 61637.0184471,-3902465.33056 60856.2194818,-3902234.88927 60671.3999375,-3902238.77699 60412.7796971,-3902244.82434 59613.3861336,-3901614.34712 59073.6335653,-3901341.20491 38123.2553711,-3899436.74377 19885.6732164,-3897778.7105" style="stroke-linejoin:round;stroke:#000;stroke-width:1px;fill:none" /></g></g></svg>