<svg xmlns="http://www.w3.org/2000/svg" baseProfile="full" height="50390.5643593" version="1.1" viewBox="-10051.731156,3091505.728896,61135.039653,50390.564359" width="61135.039653"><defs><style type="text/css">polyline,line,rect,path,polygon,.polygon{fill:none;stroke:#000;stroke-width:1px;stroke-linejoin:round;}</style></defs><g fill_rule="evenodd" transform="scale(1,-1)"><g class="hogares departamen mujeres departam_1 toponimo_i tot_pob varones viv_part viv_part_h" id="54014"><polygon class="_54014" id="None" points="38230.0590143,-3091564.15728 41597.0624608,-3100571.86535 41961.3250328,-3101417.55868 42056.4790881,-3101638.86935 42067.8702217,-3101644.77856 42086.0735228,-3101688.6197 43290.3690222,-3104484.9703 43738.4643111,-3105579.0746 44039.0290773,-3106312.25449 45119.4847288,-3108950.37436 45124.5355105,-3108962.7708 49795.3060546,-3109099.52309 49854.7248315,-3109101.17079 49861.7354789,-3109113.39171 49973.000857,-3109315.42727 49949.8089923,-3109388.11655 49798.7752783,-3109400.51903 49846.7415628,-3109623.97282 49762.4918189,-3109771.2283 49834.8204399,-3110057.72217 50000.6214429,-3109994.61341 49996.31653,-3109907.07399 50052.0774571,-3109850.75994 50260.7667982,-3110031.80503 50248.3778266,-3110114.89701 50322.1175489,-3110166.64213 50344.5081342,-3110274.31006 50106.5231747,-3110409.02146 50070.4251336,-3110497.6744 50133.5424265,-3110802.76407 50309.6396882,-3110816.78065 50314.9627492,-3110887.92934 50390.1857398,-3110934.10808 50539.4895781,-3110957.90939 50587.6235449,-3111027.23577 50782.1201346,-3111120.6232 50683.7099252,-3111147.13469 50702.7888709,-3111467.98016 50771.6372731,-3111536.94966 50846.5000211,-3111790.6096 50764.3489295,-3111961.39062 50916.3503592,-3111932.09721 50969.374898,-3112006.42106 50594.1319241,-3112175.05682 50650.1826102,-3112417.05078 50781.7473425,-3112591.58817 50725.0898361,-3112966.08063 50791.6114905,-3113209.11961 50864.7540648,-3113187.31482 50941.5942576,-3113207.16624 50994.0982974,-3113381.30937 50911.0166414,-3113469.19629 50908.8273221,-3113472.35426 50869.5870302,-3113492.13777 50645.7323066,-3113607.83516 50453.2442686,-3113592.81807 50292.6474022,-3113536.44178 50224.0039794,-3113536.60842 50150.6147979,-3113611.28822 50033.7040845,-3113919.02406 50190.83762,-3114225.64379 50463.1533568,-3114516.59893 50683.8687839,-3114688.15327 50817.5556218,-3114897.5653 50594.0100527,-3115166.86137 50336.0575396,-3115315.73046 49919.6133884,-3115420.88799 49702.0740455,-3115540.9792 49965.2170117,-3115750.74945 50336.4294213,-3115914.85664 50038.9135916,-3116307.80309 49787.8595141,-3116306.4007 49661.6118531,-3116047.42286 49549.345366,-3115879.07786 49353.3639954,-3115869.32134 49168.9463572,-3115889.65698 48980.3266765,-3116090.6643 49200.391075,-3116371.44331 49448.0243966,-3116545.54293 49652.3860901,-3116794.12173 49910.7223565,-3117138.66812 49832.3285492,-3117534.8758 49522.0151007,-3117694.8421 49527.385535,-3117860.83085 49566.9751188,-3117956.10432 49725.3755979,-3118159.85988 49848.782115,-3118264.47508 50237.8067891,-3118484.2741 50039.9487846,-3118658.94649 49575.6521126,-3118748.14776 49473.0428735,-3118577.46789 49421.4045363,-3118424.48367 49299.5207503,-3118314.79234 49024.9020685,-3118287.34177 48810.2381634,-3118306.42742 48838.0252182,-3118468.94485 48821.331883,-3118575.64612 48894.2423394,-3118740.07876 48880.2495796,-3118810.47971 48762.1062338,-3118926.20285 48590.9597532,-3118879.18082 48570.36552,-3118569.80446 48299.4529514,-3118467.43317 48169.8544283,-3118359.90568 47869.0662514,-3118360.46711 47767.4132128,-3118695.04508 47819.1340367,-3118943.36963 47812.9436861,-3119123.7331 47843.4227361,-3119233.15871 47828.9327135,-3119375.72913 47858.3239151,-3119495.13121 47977.2307995,-3119582.3657 48252.1988698,-3119641.39286 48453.2012314,-3119685.26256 48659.9887536,-3119777.52118 48787.819304,-3119948.42928 48861.5753542,-3120116.73706 49013.3682848,-3120151.64322 49104.6308668,-3120227.9943 49204.5250732,-3120379.15534 49220.2608185,-3120489.39387 49235.8907836,-3120631.75022 49318.5895813,-3120783.94592 49334.2643485,-3120926.79195 49291.2836482,-3120993.35158 49232.3827953,-3120975.37609 49149.7826319,-3120840.9547 49108.0206077,-3120782.42952 49061.4012692,-3120724.83039 48850.5444068,-3120686.78433 48814.8125593,-3120712.68683 48620.8580943,-3120803.54827 48520.4945478,-3120802.59889 48318.9608234,-3120802.7477 48297.6477528,-3121162.78686 47894.3015422,-3121354.28924 47909.0565779,-3121725.4497 47655.4407434,-3121867.57086 47653.5238955,-3121868.23547 47611.2018446,-3121892.25654 47529.2853448,-3122242.88014 47339.3148757,-3122511.73443 47209.1733504,-3122853.31858 47344.3493675,-3123134.23016 47900.3754501,-3123031.86185 48437.9667995,-3123016.59742 48573.8571597,-3123005.97936 48801.2422481,-3123118.61525 48262.2715239,-3123595.39773 48128.0414211,-3123768.88983 48143.1631058,-3124099.51084 47923.9127583,-3124261.313 47783.4367188,-3124342.49291 47972.3950883,-3124622.55686 47701.9498194,-3124814.11867 47363.6413355,-3124815.11237 47068.0150723,-3125084.50641 46831.7034485,-3125343.18538 47044.9283491,-3125512.90127 47275.749917,-3125808.00913 47137.6368187,-3126165.14282 47053.5238425,-3126368.76595 47249.152249,-3126540.53791 48149.1423921,-3126384.23618 48714.2802399,-3126334.35512 48904.8221812,-3126582.15233 48913.9349862,-3126822.90414 48749.1654024,-3126764.48189 48533.6425271,-3127045.51686 48234.7401969,-3126984.23307 47829.8899769,-3127081.09092 47817.857883,-3127494.66447 48146.831846,-3127920.80715 48139.1211814,-3127922.97682 48062.067468,-3127939.7288 40960.7056998,-3129527.16183 40892.784802,-3129535.69137 40894.9411379,-3129498.93456 40927.1339234,-3129433.31038 40969.0182613,-3129354.469 40998.6036927,-3129276.23077 41004.7810623,-3129206.9982 40989.4674661,-3129146.10603 40959.7974053,-3129090.44723 40923.3956106,-3129036.87111 40882.1354621,-3128984.22232 40839.7544886,-3128935.62628 40793.4425463,-3128892.81598 40743.5493634,-3128859.71315 40689.2256245,-3128837.87589 40631.0926614,-3128828.73117 40569.7811127,-3128828.26988 40506.7178916,-3128835.87067 40441.1504475,-3128848.63599 40374.8647665,-3128864.43011 40308.307347,-3128882.71911 40241.5749212,-3128899.04727 40175.6479323,-3128913.32715 40112.5840093,-3128920.9281 40050.6501644,-3128919.03992 39991.7198694,-3128906.50721 39936.9577879,-3128879.76717 39885.6458447,-3128841.84858 39837.2408352,-3128797.74109 39792.451619,-3128749.85214 39751.8558901,-3128699.11846 39716.8806441,-3128644.91867 39687.6133453,-3128588.23327 39667.1702607,-3128530.76089 39654.4397994,-3128471.11832 39647.5484852,-3128410.46091 39643.5112292,-3128348.56075 39636.5764127,-3128287.41309 39621.1766499,-3128225.53783 39593.5212243,-3128164.75529 39548.6640838,-3128105.01229 39488.6098049,-3128046.62414 39426.4540422,-3127992.37619 39373.2004497,-3127943.75806 39342.303902,-3127902.0409 39348.7336921,-3127868.85499 39396.6738729,-3127846.7922 39467.7671234,-3127835.0185 39538.7101863,-3127832.64665 39603.48918,-3127838.73038 39662.6817896,-3127854.20639 39719.0108988,-3127876.36128 39772.0737226,-3127906.21917 39824.1903121,-3127942.09082 39876.384854,-3127984.37903 39928.9727635,-3128031.07914 39983.5121541,-3128083.04047 40039.4348059,-3128133.89006 40095.1045924,-3128176.36197 40149.2881616,-3128202.16615 40198.4321796,-3128204.70183 40242.9488506,-3128177.5088 40279.8000944,-3128125.30514 40306.3849728,-3128057.71107 40322.8690042,-3127982.12359 40329.3302334,-3127904.95925 40328.8848316,-3127827.91663 40327.2748715,-3127754.43667 40327.126252,-3127686.26175 40332.394928,-3127628.96858 40345.5319443,-3127582.33867 40371.4299555,-3127551.37114 40412.6710972,-3127537.31811 40466.944807,-3127536.43261 40530.4261841,-3127544.60852 40600.6298925,-3127556.13799 40673.1534417,-3127565.97825 40744.1719864,-3127570.02327 40810.1761112,-3127562.16254 40870.3165268,-3127543.95415 40926.5978256,-3127515.71358 40979.8161684,-3127480.82863 41030.1026895,-3127440.76997 41073.982246,-3127395.35329 41108.8727347,-3127343.32648 41132.9007734,-3127285.84474 41146.6003218,-3127223.35452 41152.8157428,-3127160.0492 41153.0613721,-3127096.28785 41141.6294871,-3127034.55562 41111.7008325,-3126975.95438 41067.0126834,-3126923.60967 41010.3655621,-3126881.22465 40947.0984237,-3126853.26452 40881.0359171,-3126843.83539 40816.7646972,-3126854.50498 40755.318492,-3126880.24017 40697.1193384,-3126909.14479 40639.6138444,-3126923.65845 40585.2285652,-3126912.20023 40533.2452753,-3126877.79871 40483.916614,-3126828.8312 40439.499764,-3126773.99054 40399.4512409,-3126718.2663 40361.8538722,-3126662.32349 40326.8387338,-3126607.63279 40292.9351633,-3126554.32527 40258.2259592,-3126503.06591 40221.3278189,-3126454.96623 40182.8183187,-3126410.96298 40140.2463224,-3126371.27459 40091.7819632,-3126337.54648 40039.7452657,-3126308.08956 39983.1557525,-3126282.9912 39922.9064744,-3126261.18358 39861.8513986,-3126241.42415 39799.4566049,-3126223.26639 39736.9743501,-3126204.1281 39675.0695992,-3126185.9265 39614.9946279,-3126166.07941 39555.7253036,-3126144.18395 39498.3731465,-3126121.62344 39440.355957,-3126097.14561 39382.6978858,-3126071.15331 39324.3747885,-3126043.24366 39265.3866674,-3126013.41665 39208.7623016,-3125982.39067 39151.9194819,-3125948.91339 39098.3335568,-3125913.16929 39045.9125581,-3125873.86238 38997.2387334,-3125832.24496 38951.7345105,-3125787.38024 38910.9579881,-3125740.11768 38873.7540039,-3125688.58367 38842.6611433,-3125633.54033 38816.6116043,-3125574.09454 38797.207165,-3125511.58603 38785.515679,-3125446.90796 38781.6681782,-3125381.53111 38785.8830218,-3125317.90672 38800.2084999,-3125256.84064 38824.7319221,-3125199.31339 38858.5164339,-3125145.9026 38896.5285824,-3125095.57424 38936.5453766,-3125045.56157 38977.6736638,-3124996.9324 39019.423196,-3124949.73038 39063.7112512,-3124903.29063 39108.838858,-3124860.72923 39155.9273938,-3124817.99327 39204.7922625,-3124778.55809 39254.8558846,-3124741.48686 39308.0355227,-3124706.11469 39362.501211,-3124674.08693 39418.524858,-3124642.90875 39473.6116325,-3124612.30822 39527.4995703,-3124579.34393 39577.562887,-3124542.2733 39623.1804008,-3124499.66928 39662.8814598,-3124451.66287 39700.8062308,-3124400.35594 39737.2603398,-3124349.1801 39772.6903617,-3124297.60146 39807.0963017,-3124245.62001 39840.434509,-3124192.74552 39874.2629803,-3124139.82747 39907.4702991,-3124085.48251 39940.1437809,-3124030.69108 39972.7300013,-3123974.91931 40002.7778421,-3123918.38546 40029.1759118,-3123859.70614 40049.5604116,-3123800.08005 40063.4411356,-3123739.55082 40067.7894594,-3123677.39985 40063.629495,-3123614.03002 40053.5869581,-3123551.18395 40042.248445,-3123490.4297 40031.1282622,-3123432.12653 40020.0081747,-3123373.82334 40006.7090658,-3123313.24358 39990.119568,-3123249.00383 39968.5508143,-3123178.78389 39938.758936,-3123121.64869 39895.1055539,-3123114.17027 39839.0277786,-3123150.29149 39777.7654814,-3123194.78017 39716.4899584,-3123222.4703 39657.3265065,-3123240.58429 39604.3948651,-3123262.09646 39559.5920402,-3123297.21438 39523.2773989,-3123344.42375 39493.2282188,-3123400.95775 39469.6729179,-3123463.83136 39450.4323823,-3123530.76797 39434.7981727,-3123599.36007 39421.4842998,-3123666.2633 39405.9040649,-3123729.90956 39385.3443796,-3123787.5757 39352.8109821,-3123838.40215 39306.6584986,-3123880.55895 39249.6972987,-3123912.31349 39188.2130677,-3123932.1178 39125.6374253,-3123939.66624 39063.1254484,-3123936.83239 39001.3856441,-3123926.02375 38938.3160457,-3123911.38046 38876.0085691,-3123894.19859 38812.7641671,-3123877.5942 38749.1167269,-3123862.01387 38687.211902,-3123843.80766 38625.928181,-3123827.02846 38565.9405,-3123808.15727 38508.2293603,-3123787.10676 38452.7947775,-3123763.87695 38400.5299617,-3123737.40003 38350.4980887,-3123708.25354 38299.6267402,-3123675.22863 38245.6392732,-3123640.50451 38187.3805902,-3123602.20747 38123.5108741,-3123561.93916 38075.55752,-3123517.28886 38064.6887126,-3123467.36035 38100.7430012,-3123417.20756 38158.7946063,-3123375.47342 38219.5389308,-3123347.33546 38279.6416502,-3123328.64325 38337.2930343,-3123310.16931 38390.4986356,-3123286.1616 38436.9047138,-3123252.38249 38480.6951394,-3123211.42436 38521.4669831,-3123164.31134 38560.5062534,-3123114.38789 38600.928992,-3123063.35314 38644.4241252,-3123013.52741 38691.5691562,-3122965.84754 38744.3584459,-3122926.06553 38803.1076342,-3122892.17675 38862.5215371,-3122860.20541 38916.3245403,-3122826.26297 38959.9838553,-3122783.83518 38985.1757421,-3122728.22758 38988.5995409,-3122661.21629 38970.7583996,-3122599.55657 38930.0634574,-3122558.70755 38872.4410807,-3122538.63585 38804.1872946,-3122532.35753 38734.3651079,-3122530.66589 38667.5715089,-3122529.69292 38604.5688383,-3122526.90014 38543.5706693,-3122524.42306 38482.8778257,-3122525.37767 38421.9127958,-3122528.82714 38360.2289634,-3122535.30537 38298.2293072,-3122543.78823 38235.8265596,-3122553.29525 38173.020719,-3122563.82642 38110.7050184,-3122574.31398 38046.297302,-3122583.50535 37983.806845,-3122592.03196 37920.0303358,-3122597.21407 37857.2778539,-3122602.79919 37794.2634584,-3122605.44278 37731.2925849,-3122608.57662 37668.7682227,-3122611.17658 37606.4182858,-3122615.73756 37544.6021318,-3122620.74517 37483.4942993,-3122628.16046 37421.4058411,-3122635.66303 37360.2977963,-3122643.07835 37298.6121157,-3122649.55679 37235.2373676,-3122653.71483 37171.066802,-3122654.48467 37105.4792485,-3122650.43911 37037.9844382,-3122641.62178 36970.3688964,-3122625.89704 36906.195408,-3122604.43021 36848.2310801,-3122574.9984 36797.4565024,-3122537.51434 36757.8375194,-3122492.11921 36732.1849213,-3122437.08046 36718.265581,-3122375.06762 36718.34603,-3122309.33814 36728.8095235,-3122243.67301 36749.4711716,-3122181.5478 36778.9910075,-3122124.56424 36812.2481649,-3122070.70728 36841.9426093,-3122015.685 36861.3082517,-3121955.6521 36869.2773551,-3121889.71524 36871.5482706,-3121820.8264 36875.0179626,-3121754.30168 36887.0299947,-3121694.92333 36914.3939967,-3121647.02699 36960.8470894,-3121613.73921 37021.9872165,-3121590.01603 37089.0435919,-3121571.69628 37155.6968189,-3121554.40073 37220.6505861,-3121540.2213 37285.4629244,-3121530.00762 37348.8375248,-3121525.85157 37409.4344716,-3121529.35477 37468.8118011,-3121541.36684 37524.7363349,-3121564.55713 37578.9946679,-3121596.79008 37632.6650247,-3121633.52249 37687.141379,-3121668.20651 37743.0116411,-3121696.34262 37801.7569705,-3121712.36353 37864.0088683,-3121712.26004 37926.8257894,-3121696.29394 37987.1685649,-3121669.18294 38040.5377233,-3121630.33918 38084.6565549,-3121581.9418 38115.7776042,-3121526.30074 38129.4782376,-3121469.24492 38129.5060238,-3121408.46432 38117.5062053,-3121345.78901 38101.0070094,-3121282.52571 38082.9499414,-3121218.4127 38069.3488596,-3121154.39737 38054.9854533,-3121092.92048 38032.6367706,-3121036.10696 37998.5552055,-3120986.2667 37951.8910248,-3120944.95762 37895.6292823,-3120912.40831 37832.3956195,-3120890.36175 37762.7238412,-3120879.2646 37689.6426524,-3120879.83579 37616.9432551,-3120890.25573 37546.8694417,-3120902.41869 37484.3449136,-3120905.01563 37432.1909924,-3120890.8776 37395.4622943,-3120850.16628 37375.5319587,-3120787.20678 37374.4602572,-3120719.60496 37392.1388208,-3120657.25335 37423.7521977,-3120601.56861 37462.175051,-3120550.2197 37500.641531,-3120499.36116 37533.4971691,-3120446.53109 37554.6408777,-3120389.80141 37565.9901307,-3120328.5074 37577.8297394,-3120267.16985 37596.5766537,-3120205.71219 37630.3801735,-3120146.86867 37678.8807773,-3120092.15373 37735.0840076,-3120040.70701 37790.1216268,-3119992.82303 37833.9705576,-3119946.92243 37858.7867753,-3119903.70271 37856.1052119,-3119862.43417 37823.3002099,-3119821.37366 37773.5649925,-3119778.85377 37718.6656443,-3119733.82816 37672.0677804,-3119682.13465 37645.5812217,-3119623.21729 37641.2978438,-3119558.37258 37655.7315283,-3119492.85192 37685.711991,-3119429.9021 37727.6222493,-3119373.30369 37777.1263262,-3119329.86591 37832.0451876,-3119297.31181 37888.4239555,-3119270.06343 37946.0882637,-3119246.15972 38001.2684368,-3119216.5474 38052.275813,-3119178.906 38100.4396208,-3119137.07038 38148.2003228,-3119096.25895 38199.0224297,-3119062.0932 38253.7884194,-3119038.94175 38312.9013352,-3119025.78049 38375.2063185,-3119020.73554 38440.5290158,-3119021.84587 38506.7776817,-3119027.81506 38573.6908093,-3119035.7016 38639.7540833,-3119045.14601 38706.0895598,-3119052.09557 38770.4747612,-3119053.78319 38832.1579466,-3119047.31104 38890.3002162,-3119028.80083 38943.7032039,-3118995.88859 38989.6870358,-3118951.77731 39028.5568582,-3118899.89867 39057.098976,-3118843.00893 39075.8036785,-3118781.06449 39081.5879925,-3118718.29225 39075.5631465,-3118656.0757 39061.1607985,-3118594.10973 39041.0935939,-3118535.11785 39016.7450706,-3118477.98881 38989.0521133,-3118422.1452 38958.504948,-3118367.54345 38925.5938017,-3118314.13996 38890.634608,-3118259.93019 38854.1611788,-3118205.36079 38816.6201802,-3118149.89795 38806.4886853,-3118135.97502 38777.8699438,-3118097.50716 38734.7837547,-3118051.92512 38687.9825235,-3118014.57898 38635.8102246,-3117989.07474 38579.6503978,-3117974.30124 38518.6206355,-3117965.8899 38454.4640404,-3117961.21522 38386.7013283,-3117954.88452 38318.0561196,-3117944.18512 38248.8008186,-3117926.62218 38184.2410421,-3117900.73592 38127.8521566,-3117866.71157 38085.9203506,-3117823.00224 38060.4938471,-3117770.41419 38054.1111038,-3117709.71016 38062.6648602,-3117644.71409 38080.707754,-3117580.85134 38103.598636,-3117521.4991 38132.6339726,-3117464.5657 38165.406049,-3117410.75921 38201.8712787,-3117359.58939 38242.0296384,-3117311.05625 38284.7699287,-3117263.77616 38329.1116401,-3117217.83625 38374.520956,-3117172.78984 38398.1843235,-3117149.93443 38420.9543109,-3117128.14667 38440.2601277,-3117100.73732 36073.5238637,-3117080.25092 32232.7115323,-3117045.88299 32222.3274557,-3117045.81702 32077.7888561,-3117048.77251 28070.0510087,-3117131.95293 27989.4964998,-3117137.62526 27953.2609992,-3117158.14289 27930.1901499,-3117171.06584 27945.345854,-3117213.70876 28017.8996835,-3117240.37949 28090.3030047,-3117231.97115 28149.4446337,-3117213.3729 28196.8042498,-3117223.49958 28234.3645795,-3117273.54288 28259.8494444,-3117343.44044 28270.7971076,-3117416.60632 28257.0849616,-3117473.67532 28209.0582339,-3117506.11432 28142.4303086,-3117523.89533 28083.9422349,-3117549.84994 28056.9573169,-3117602.16731 28054.4148178,-3117668.12965 28062.0399066,-3117731.70596 28077.3370591,-3117792.62362 28097.7671784,-3117850.11967 28121.6736683,-3117907.80107 28146.3867398,-3117963.43371 28173.5518237,-3118018.84842 28200.1830222,-3118073.81625 28226.9450069,-3118130.25515 28252.8134399,-3118187.7619 28275.3363988,-3118246.55436 28295.7996839,-3118309.97809 28312.0674818,-3118376.24586 28317.4161964,-3118442.0011 28286.9564412,-3118494.13358 28241.2622126,-3118541.68883 28254.2830978,-3118604.7854 28304.4111364,-3118612.68724 28358.8339318,-3118568.80461 28426.5941206,-3118563.77168 28492.0539837,-3118594.0353 28533.7134492,-3118645.68981 28546.6037226,-3118707.31469 28551.5498287,-3118774.09384 28546.9173113,-3118838.75874 28521.5800593,-3118892.90739 28471.6694668,-3118931.94109 28411.7877963,-3118964.44721 28359.6104857,-3119000.22277 28333.3470813,-3119049.51155 28338.4355232,-3119112.32445 28369.0567326,-3119178.79907 28418.3235744,-3119238.17948 28480.3731892,-3119280.11305 28548.8959029,-3119294.78123 28615.6423257,-3119283.90593 28668.8867381,-3119293.50671 28708.7272538,-3119341.36794 28752.3491655,-3119392.84699 28815.1067654,-3119414.94677 28885.4378774,-3119416.60315 28941.8966424,-3119423.44662 28965.6309084,-3119456.92298 28959.4958892,-3119515.79 28937.243972,-3119587.9518 28910.1319976,-3119661.04001 28888.2507693,-3119726.24955 28856.0606311,-3119775.57101 28795.188667,-3119813.60327 28726.5358148,-3119841.94801 28677.2800908,-3119866.09713 28672.1041606,-3119891.27009 28709.7112983,-3119919.55913 28774.8560415,-3119951.82523 28848.4135188,-3119989.76856 28913.176906,-3120034.42462 28954.3041833,-3120085.63022 28973.8441566,-3120144.19181 28988.2952827,-3120206.66558 29011.0721417,-3120273.83583 29034.5246575,-3120337.48617 29045.7722427,-3120397.27915 29031.1930519,-3120444.541 28990.0242629,-3120481.8109 28932.5965413,-3120514.10132 28871.866917,-3120548.1682 28820.5201748,-3120593.26299 28786.8821275,-3120654.08219 28777.7853101,-3120724.08708 28790.1780876,-3120791.19251 28822.5670501,-3120844.16325 28873.273582,-3120875.24042 28935.0184363,-3120891.49669 28999.5310155,-3120905.52973 29058.0068242,-3120929.49038 29107.7217197,-3120966.09215 29151.8903418,-3121012.57787 29192.4412755,-3121062.84498 29232.9922444,-3121113.11199 29276.5833361,-3121158.66023 29321.3402618,-3121200.64493 29367.0343186,-3121242.05192 29410.6254417,-3121287.59984 29449.9234993,-3121340.44899 29482.60754,-3121402.28856 29504.939721,-3121469.9913 29514.2171011,-3121535.39546 29504.7944541,-3121590.60102 29474.2740357,-3121630.87885 29426.6223217,-3121656.37036 29364.3677617,-3121673.27589 29295.2584354,-3121685.35444 29224.3183456,-3121699.07862 29155.3726878,-3121718.55647 29096.7473109,-3121748.48421 29051.9516255,-3121794.97502 29024.952376,-3121858.17031 29017.2854765,-3121927.55403 29028.7974965,-3121990.28904 29060.4028878,-3122034.43174 29109.9219054,-3122057.70472 29173.0178248,-3122066.91913 29245.1253438,-3122071.872 29323.9129345,-3122079.6903 29402.3740058,-3122094.95137 29478.4598428,-3122116.84892 29543.256587,-3122145.18746 29594.007085,-3122176.75255 29623.8026287,-3122211.66463 29627.6523433,-3122249.37932 29608.2803019,-3122287.18308 29568.3128193,-3122326.81932 29514.6586242,-3122368.16764 29453.8233575,-3122412.13202 29391.691439,-3122458.18892 29333.2974801,-3122507.37315 29285.0163525,-3122559.1175 29252.4167441,-3122614.90347 29241.4268316,-3122674.69776 29248.9735234,-3122737.29097 29265.4779396,-3122800.56984 26203.334718,-3123654.84267 21194.595044,-3125052.77584 17140.384431,-3126184.021 17040.5765231,-3126195.87509 16912.8074795,-3126210.21902 16782.2640266,-3126398.85057 16684.6401645,-3126507.41996 16606.2139211,-3126553.95902 16389.1735994,-3126570.81533 16153.3390185,-3126526.55112 16065.5365219,-3126506.68136 16015.5673988,-3126522.99787 15979.6331426,-3126569.2146 15957.8412825,-3126635.43312 15951.4988611,-3126714.12033 15959.1542693,-3126794.52762 15966.7348115,-3126818.57478 15981.5364564,-3126868.18442 16019.4179747,-3126927.1107 16068.8842343,-3126966.21618 16123.581736,-3126997.43896 16176.0448927,-3127031.33286 16219.1676772,-3127076.93633 16250.3663339,-3127132.99618 16271.5256666,-3127192.91681 16281.5335221,-3127255.31403 16281.6430885,-3127317.60403 16273.3260118,-3127379.65579 16258.9913363,-3127440.7603 16239.3480897,-3127503.32666 16217.1210797,-3127564.63994 16192.353994,-3127625.19069 16166.60588,-3127685.82894 16143.1794965,-3127744.77711 16121.7590983,-3127804.04112 16106.4002232,-3127864.74297 16098.749364,-3127928.71375 16101.2593109,-3127995.73489 16112.3273083,-3128064.4658 16133.2064862,-3128132.32254 16161.6723735,-3128196.53657 16197.5938108,-3128255.63621 16239.2368448,-3128306.80926 16286.786004,-3128346.57813 16340.1538051,-3128373.96177 16397.0720227,-3128385.70119 16456.7343628,-3128383.84608 16518.912521,-3128371.38349 16582.3096898,-3128350.40681 16644.6916929,-3128323.58736 16705.1648743,-3128291.99367 16764.0352146,-3128259.05956 16819.0248421,-3128226.96577 16874.1455286,-3128196.3437 16929.0815588,-3128169.19921 16986.416753,-3128146.78538 17045.7042601,-3128129.63643 17107.9688505,-3128118.15547 17172.6325546,-3128111.4051 17238.8454045,-3128110.94431 17301.876857,-3128119.1723 17360.9644027,-3128138.6291 17409.8622504,-3128171.35448 17452.3636314,-3128215.52716 17490.1247851,-3128267.53854 17527.6577091,-3128322.53673 17567.0654001,-3128376.37891 17608.7072466,-3128427.54975 17651.7333013,-3128477.60828 17692.3067293,-3128527.88525 17729.3590507,-3128577.48705 17760.6561891,-3128629.0849 17783.7892298,-3128683.38794 17795.9024484,-3128741.63955 17801.3232069,-3128802.46528 17800.5420477,-3128865.82144 17798.3523935,-3128918.92021 17797.4395025,-3128930.8678 17795.4492886,-3128997.29833 17795.4650349,-3129064.04453 17793.8344307,-3129128.95979 17787.1237543,-3129192.35016 17770.1216324,-3129251.21917 17739.2631395,-3129304.40134 17693.3922535,-3129350.02203 17636.617608,-3129384.254 17573.3101959,-3129406.21319 17506.8695451,-3129409.66331 17442.332165,-3129395.63865 17380.7570404,-3129370.47234 17320.6534474,-3129345.17476 17262.0459528,-3129331.11573 17204.0217527,-3129340.24312 17150.811234,-3129375.64101 17114.2407228,-3129431.31101 17095.2668334,-3129495.79579 17076.6619525,-3129553.32564 17042.2668554,-3129589.02451 16990.434904,-3129601.0614 16925.474339,-3129598.94096 16853.3932467,-3129589.04972 16779.2623899,-3129578.35224 16709.8428255,-3129576.13471 16648.5151145,-3129587.04026 16591.4082089,-3129606.46959 16533.0919396,-3129628.97344 16468.9860071,-3129647.54343 16394.1069753,-3129656.19593 16313.6663719,-3129657.92748 16236.0814432,-3129658.41555 16167.054376,-3129660.613 16114.4245177,-3129669.26001 16140.8054277,-3129754.4262 16184.840772,-3129815.76824 16238.4590406,-3129879.22256 16295.4522693,-3129925.07011 16303.7726143,-3129935.20626 16332.6922897,-3129971.19514 16365.2017741,-3130019.71961 16409.2753007,-3130059.30187 16453.2081473,-3130102.85216 16499.224927,-3130153.13881 16541.7984389,-3130209.17123 16574.7360093,-3130268.04044 16611.4325232,-3130319.15772 16625.4138853,-3130381.69467 16647.7689487,-3130449.41832 16653.67369,-3130515.64203 16598.2480652,-3130542.83413 16517.8985623,-3130517.8594 16462.3165905,-3130532.20984 16438.0012423,-3130592.22843 16437.4416247,-3130658.04006 16459.1317812,-3130723.8455 16500.1908919,-3130779.5181 16558.5785451,-3130818.8119 16630.6514272,-3130834.14064 16709.4886739,-3130831.06603 16786.7322521,-3130821.21129 16854.7865774,-3130813.65932 16905.6968065,-3130819.00835 16931.4206532,-3130846.87548 16930.477243,-3130902.83168 16918.5827269,-3130974.5978 16951.8088895,-3131047.77901 16986.9815593,-3131103.97545 17023.9759005,-3131163.96488 17046.5947922,-3131234.63068 17055.0597671,-3131290.73661 17086.2646814,-3131346.79215 17124.5719104,-3131421.49739 17183.1277515,-3131440.50236 17245.7483389,-3131455.18918 17313.0116862,-3131466.49519 17362.2285623,-3131497.21057 17377.3679228,-3131561.6206 17375.1451437,-3131636.47915 17367.7546207,-3131708.83207 17368.3625175,-3131771.07723 17387.9540254,-3131813.33474 17434.3868206,-3131829.46481 17501.9401691,-3131827.39435 17579.2695095,-3131818.51857 17655.4333862,-3131813.20781 17721.4525638,-3131821.6573 17766.9200566,-3131854.68401 17779.7477792,-3131915.34401 17757.2228022,-3131973.22452 17715.270018,-3132023.93841 17670.1114868,-3132071.9718 17623.6655561,-3132116.6591 17574.8198572,-3132156.61622 17523.5743662,-3132191.84315 17467.2138097,-3132219.61548 17407.2972828,-3132240.78296 17342.2656228,-3132254.49578 17275.9901926,-3132265.35293 17210.7394815,-3132276.61313 17150.0694202,-3132294.88134 17098.5699558,-3132321.72588 17056.8538459,-3132364.01434 17027.6893616,-3132419.522 17012.1980912,-3132484.19321 17009.3205946,-3132551.69465 17018.5316829,-3132616.13974 17040.1468035,-3132675.5225 17071.0475943,-3132728.14332 17108.5971549,-3132777.69858 17149.0024506,-3132826.01003 17189.9858585,-3132875.25868 17228.779239,-3132927.66931 17261.5896276,-3132985.06373 17288.4608362,-3133047.93249 17310.5580937,-3133112.71052 17331.674387,-3133177.57604 17354.5340566,-3133239.8137 17382.1768466,-3133294.70223 17417.2832629,-3133339.03574 17463.0681017,-3133370.05509 17520.1531562,-3133389.18814 17583.8081281,-3133398.83483 17650.6778312,-3133405.72235 17716.2947139,-3133415.19384 17777.8469373,-3133428.98353 17834.9753362,-3133448.6068 17887.0053418,-3133477.5849 17938.886071,-3133515.97051 17993.3766661,-3133566.97841 18031.2768931,-3133620.45579 18018.7233823,-3133662.61441 17958.7994647,-3133689.22372 17886.6300541,-3133706.04847 17821.9587268,-3133718.2485 17762.6920469,-3133724.52731 17703.8371535,-3133724.34164 17641.8727554,-3133717.01689 17579.4704281,-3133704.78676 17516.6301771,-3133687.65122 17455.4454985,-3133666.90674 17396.4945084,-3133643.49059 17338.3056126,-3133617.5341 17282.4817783,-3133590.37754 17227.0170837,-3133561.7055 17173.383153,-3133531.38662 17119.9770388,-3133498.08062 17069.5230993,-3133459.07212 17019.9716439,-3133413.55513 16968.8868213,-3133378.55829 16912.4486271,-3133372.22274 16851.2003113,-3133389.55562 16787.8841999,-3133416.96211 16725.3739639,-3133442.31895 16667.7690913,-3133467.23807 16616.7073951,-3133498.9901 16573.5202568,-3133541.4119 16538.6982883,-3133594.45969 16511.803742,-3133653.22799 16490.5242099,-3133713.96752 16471.1631713,-3133774.04144 16452.2489795,-3133833.5811 16430.750766,-3133891.86812 16402.1659989,-3133948.31546 16364.0945832,-3133998.19279 16317.9205395,-3134040.38768 16269.0747784,-3134080.34884 16222.4977107,-3134123.56883 16188.7010353,-3134177.02071 16181.8232941,-3134238.45347 16218.8326572,-3134293.00179 16276.2705527,-3134316.05872 16340.5588515,-3134321.69238 16399.2581286,-3134336.7252 16450.5287606,-3134368.24379 16497.4981229,-3134412.50771 16542.408885,-3134461.40542 16589.1504798,-3134508.65619 16640.2282341,-3134549.0918 16695.1077653,-3134582.26548 16753.3422833,-3134608.71162 16813.4601217,-3134628.5616 16876.4861397,-3134642.21841 16940.0113939,-3134650.39161 17003.6767199,-3134654.59663 17067.8850631,-3134653.80863 17131.0684171,-3134652.61766 17193.7611221,-3134651.47049 17256.2697492,-3134653.80087 17318.322743,-3134662.10527 17379.517168,-3134677.40855 17440.5275394,-3134696.18931 17501.9057456,-3134708.01491 17564.8255762,-3134703.88057 17627.6226833,-3134692.83498 17688.5275933,-3134693.82498 17746.0949835,-3134718.35172 17798.6869082,-3134759.14473 17842.1251723,-3134808.17154 17871.8636741,-3134864.35476 17881.7971186,-3134925.76738 17874.2029876,-3134990.22837 17866.3459581,-3135024.05752 17857.0534992,-3135174.70313 18091.417358,-3135473.67734 18106.5822639,-3135582.58306 18106.2165418,-3135672.60378 18052.9702983,-3135762.89753 17917.2072685,-3135759.6953 17811.504763,-3135694.47486 17768.8697243,-3135588.02153 17694.665667,-3135482.4095 17627.9772546,-3135361.29254 17517.5781748,-3135165.95589 17427.9938158,-3135142.80517 17337.4281887,-3135119.74192 17270.9074725,-3135089.09253 17195.3555807,-3135073.58848 17082.7151198,-3135052.4959 17015.4411344,-3135102.01474 16956.2437063,-3135175.53527 17021.2852955,-3135267.13474 17118.6585441,-3135327.66292 17208.1392348,-3135388.40111 17307.6679316,-3135495.21443 17356.180887,-3135606.58326 17400.5680601,-3135704.97019 17421.9088764,-3135799.97632 17391.4635285,-3135907.51889 17368.147966,-3135989.70234 17348.3720517,-3136089.37001 17406.758529,-3136189.47288 17478.501853,-3136245.36519 17560.8519748,-3136276.0818 17676.7784707,-3136333.96025 17762.5352133,-3136352.99984 17890.1974448,-3136376.20701 18017.903081,-3136399.9045 18150.749688,-3136414.73698 18226.662195,-3136484.09939 18272.9764141,-3136548.6891 18240.3953457,-3136626.75474 18179.021757,-3136697.99849 18067.0884679,-3136767.82624 17916.7167368,-3136811.42185 17683.5082835,-3136907.41344 17585.6339882,-3136996.25891 17333.127535,-3137114.24907 17319.531561,-3137487.78841 17230.837061,-3137900.67449 17396.1156953,-3138112.36422 17574.8395576,-3138308.5112 17851.1853761,-3138551.30853 17982.6376369,-3138694.3207 17960.8441263,-3138776.8643 17826.0909119,-3138812.6445 17697.7335353,-3138864.66453 17519.4685068,-3138806.43266 17234.3932593,-3138643.0336 17039.8234897,-3138573.89545 16808.2564751,-3138467.02284 16540.6406049,-3138255.57669 16382.6072886,-3138202.45347 16216.2619836,-3138454.66755 16291.0793924,-3138871.24853 16579.8075617,-3139551.0465 16708.3118089,-3139793.71375 16714.5157744,-3140062.15074 17092.3293786,-3140543.59702 17389.0747408,-3141124.7509 17403.3412141,-3141157.09819 17425.9078198,-3141215.89843 17446.241254,-3141277.37073 17463.7193363,-3141340.08737 17476.2921522,-3141403.24283 17481.0164827,-3141467.10047 17475.2640871,-3141529.91763 17456.9850189,-3141590.88884 17425.0664952,-3141648.63032 17381.4783477,-3141697.52675 17329.8375703,-3141733.79322 17272.0700914,-3141751.32374 17210.4452719,-3141753.37645 17146.4708838,-3141745.75 17081.1641691,-3141734.28694 17015.5862597,-3141725.32044 16951.2965671,-3141719.69993 16887.8484407,-3141717.95986 16824.2607895,-3141720.18803 16761.9174695,-3141725.27169 16699.7057163,-3141731.82701 16637.7133137,-3141740.83508 16575.8963715,-3141751.80537 16514.6137661,-3141763.22234 16452.8843978,-3141775.17379 16087.8762213,-3141801.89902 16081.4989891,-3141802.46962 13095.5351556,-3140529.19734 7260.57834681,-3138042.87883 7212.75365746,-3138022.42209 7213.59825941,-3138081.69766 7178.76361177,-3138140.20434 7127.56976124,-3138192.75389 7077.23414842,-3138238.30259 7044.0806388,-3138276.87565 7039.78943058,-3138311.88071 7062.52935277,-3138344.9651 7106.00924891,-3138377.68007 7167.86335921,-3138411.22611 7239.47867476,-3138448.84574 7317.55197534,-3138492.31784 7397.26421137,-3138543.06214 7471.25533252,-3138601.73629 7530.12332157,-3138662.75081 7562.64336549,-3138716.72249 7557.54673736,-3138753.77755 7507.56932209,-3138770.11391 7438.95463476,-3138782.67533 7389.66198523,-3138817.74505 7380.64226577,-3138882.84805 7404.43727343,-3138955.4049 7451.63418099,-3139007.57034 7476.28273539,-3139017.73225 7472.57662103,-3139020.53642 6685.40611024,-3139554.32935 5944.05839748,-3140069.70284 5062.32805164,-3138820.95355 5055.15962023,-3138812.6909 2985.43091392,-3135847.72915 2456.07973487,-3135093.16007 2453.81019586,-3135089.90009 2452.11899121,-3135087.5778 2444.73204171,-3135076.86018 -869.718190273,-3130348.64259 -876.438513825,-3130339.84254 -999.153391922,-3130161.80976 -1008.76491756,-3130148.32047 -3165.69298745,-3127036.87159 -3362.74182643,-3126751.65341 -3452.92573468,-3126622.15265 -3458.08569809,-3126614.20194 -3463.73647605,-3126606.2949 -3473.25979779,-3126593.78549 -3489.23048829,-3126569.977 -5246.37613123,-3124035.06412 -5253.67367045,-3124025.32393 -5310.79964986,-3123944.81714 -7393.77851615,-3121031.94814 -7663.24438404,-3120655.14423 -8466.02153556,-3119532.11907 -9395.12347311,-3119203.96653 -9624.9175821,-3119123.43666 -10029.4692918,-3119119.7724 -10032.7590219,-3111701.58539 -10030.7519271,-3111701.90235 -10029.9088816,-3111549.44334 -10008.8128223,-3106091.49763 -9578.57447886,-3106095.00918 -4001.36437929,-3106049.97396 -3947.51746417,-3106049.16889 -3893.58380824,-3106049.34547 -3839.73704982,-3106048.54039 -3785.31273077,-3106048.67354 -3731.46612977,-3106047.86845 -3681.0987457,-3106046.87641 -3677.57619758,-3106047.55418 -3623.77316279,-3106046.25827 -3569.39257036,-3106045.90058 -3515.58969295,-3106044.60466 -2434.84081808,-3106027.17293 -2380.99618316,-3106026.36775 -2326.70423535,-3106025.02836 -2272.36895832,-3106024.17976 -2262.01875747,-3106023.75897 -2218.07717021,-3106022.84036 -2213.61657086,-3106022.94047 -2163.87227996,-3106020.51936 -2109.66746943,-3106018.19836 -2055.41932972,-3106016.36815 -2001.2146787,-3106014.04715 -1947.4574939,-3106012.26036 -1893.70038748,-3106010.47356 -1840.43415334,-3106008.73018 -1786.76402048,-3106005.96179 -1733.41112343,-3106005.19999 -1679.6977378,-3106002.9224 -1624.64228333,-3105999.04221 -1568.11454038,-3105995.0318 -1511.5868843,-3105991.02139 -1455.24624444,-3105990.48992 -1402.39790948,-3105995.21359 -1351.84324239,-3106007.55951 -1333.79751224,-3106015.85595 -1328.05158314,-3106019.30475 -1305.86252162,-3106029.70784 -1264.0083335,-3106061.12436 -1224.57795568,-3106098.6907 -1187.21080703,-3106140.89107 -1147.34630685,-3106183.36509 -1117.91849602,-3106225.27831 -1090.28014249,-3106269.32825 -1043.73150721,-3106314.67314 -1023.64172308,-3106362.85303 -1019.60797011,-3106391.67899 -1018.63963477,-3106397.03419 -1016.09516463,-3106414.61555 -1020.77468969,-3106467.9542 -1034.73560166,-3106522.60856 -1055.75807932,-3106564.53281 -1085.10682976,-3106618.57005 -1099.68307236,-3106632.71977 -1099.91335389,-3106635.7079 -1122.75928717,-3106657.01934 -1240.0771626,-3106767.80719 -1241.41926343,-3106769.40981 -1256.25888203,-3106892.401 -1102.35764725,-3106926.76382 -1083.21707785,-3106925.0704 -997.233990085,-3106896.1944 -919.768056012,-3106866.09354 -893.022441839,-3106855.31873 -781.870491559,-3106803.44218 -769.0536348,-3106797.36206 -720.644080925,-3106774.2837 -671.209605832,-3106751.60934 -659.330919399,-3106746.10687 -622.30938363,-3106728.48768 -616.593726351,-3106726.00355 -463.152805108,-3106654.55874 -453.958324569,-3106652.26149 -424.772320062,-3106646.7118 -370.670051214,-3106648.85017 -316.724479689,-3106660.40007 -263.686871001,-3106678.46022 -212.538753734,-3106703.11744 -166.081308459,-3106730.66263 -122.308008773,-3106761.41289 -100.536495236,-3106778.28201 -79.7899449328,-3106794.74718 -40.4467646358,-3106831.32995 -2.48905133903,-3106869.02444 34.1700437879,-3106908.81219 69.5739527179,-3106951.18397 103.014811538,-3106993.72935 135.11366006,-3107037.87723 165.783661602,-3107082.64607 194.981398156,-3107127.5451 223.371336058,-3107174.49399 249.798254253,-3107221.6165 273.727966111,-3107268.46531 298.278770085,-3107316.74294 323.320390867,-3107364.97707 332.288654672,-3107382.48397 349.387019286,-3107413.61506 375.94446304,-3107462.20955 401.563858327,-3107511.3816 423.747962515,-3107560.85758 441.111352132,-3107611.74934 451.690985985,-3107664.23062 452.416284514,-3107678.01542 454.14915908,-3107680.8297 455.486874431,-3107718.30143 453.841016991,-3107772.35923 456.655538545,-3107826.51691 460.859671923,-3107840.48844 460.616508569,-3107848.91828 463.951984879,-3107853.07455 565.263018216,-3107997.43616 573.319403608,-3108004.63682 617.714127335,-3108036.81381 752.631083307,-3108136.15857 764.201286156,-3108166.29452 822.065563265,-3108311.53225 686.026625433,-3108383.91552 559.902308526,-3108450.97019 579.668731246,-3108674.2667 576.148133627,-3108729.47978 584.188660734,-3108781.19637 589.574174841,-3108786.16029 590.529981301,-3108796.95704 612.141198961,-3108806.41981 773.538765214,-3108875.2253 781.521244108,-3108876.00243 830.683964061,-3108872.63926 868.975906352,-3108863.80863 930.581212662,-3108861.32234 973.003488906,-3108860.0397 1022.88678363,-3108853.64513 1071.17232572,-3108862.72464 1116.51821646,-3108888.88079 1159.34119667,-3108925.64683 1199.38062059,-3108970.07822 1220.59267675,-3108997.38161 1235.71128618,-3109017.31087 1389.72464025,-3109209.42787 1393.01675308,-3109213.09317 1708.42746251,-3109339.97432 1753.52503404,-3109357.74326 1760.20889828,-3109360.61359 1808.3684945,-3109385.03564 1855.80728464,-3109412.489 1900.96613972,-3109442.12253 1944.6961952,-3109472.3771 1988.51313996,-3109503.61307 2030.45400924,-3109536.00428 2071.67411921,-3109571.42677 2110.21051874,-3109610.05436 2146.32396945,-3109654.83151 2172.97031226,-3109704.40364 2181.90662223,-3109755.04947 2169.20699132,-3109807.11675 2145.49384296,-3109857.68649 2120.66888035,-3109906.87099 2100.73870285,-3109961.06257 2056.9124948,-3109991.15724 2017.17337948,-3110028.30887 1978.18577087,-3110068.36158 1961.40645653,-3110091.11511 1925.83985234,-3110175.3783 1925.55379361,-3110183.31712 1925.96873462,-3110215.9235 1942.93153793,-3110267.83714 1968.68431212,-3110318.4776 1997.12079665,-3110365.91274 2024.9361825,-3110411.91905 2056.46020237,-3110455.12385 2091.37597033,-3110497.53355 2133.39205294,-3110536.34669 2179.35920614,-3110563.92878 2207.57960173,-3110569.83706 2222.20226599,-3110572.9931 2230.76217858,-3110574.70782 2284.38310619,-3110571.44186 2479.75824001,-3110566.00565 2502.10215745,-3110566.99395 2560.12672897,-3110568.77832 2617.38708923,-3110573.10328 2672.45451378,-3110580.58998 2722.24164603,-3110595.46853 2763.4872752,-3110620.00615 2797.88099769,-3110656.52606 2828.2803134,-3110703.78597 2861.42508764,-3110759.70508 2897.01104591,-3110820.84823 2933.99484371,-3110875.43788 2968.07186122,-3110913.96379 2997.79488971,-3110925.67343 3021.53034281,-3110903.2929 3040.99878963,-3110855.0777 3062.36831278,-3110794.82424 3089.80053354,-3110736.01211 3127.05319291,-3110693.1458 3176.56729009,-3110671.44939 3231.75850552,-3110663.59284 3288.89998887,-3110661.00387 3343.948075,-3110657.11661 3396.29418734,-3110645.06094 3441.3170394,-3110617.33309 3477.54452294,-3110574.0635 3497.24300422,-3110522.86128 3495.57968839,-3110470.58391 3478.61712276,-3110418.67259 3450.94566144,-3110368.69894 3422.42320521,-3110320.28432 3391.6645062,-3110274.54057 3360.6324448,-3110231.29384 3325.40121597,-3110190.89183 3285.56700142,-3110154.35946 3244.34753678,-3110118.93886 3204.19644455,-3110084.4127 3184.08375266,-3110063.93813 3167.26312124,-3110047.12859 3129.62176852,-3110007.43423 3088.90567746,-3109966.52838 3047.56848398,-3109924.19372 3017.51805945,-3109880.85937 3012.04756721,-3109835.84271 3033.74103557,-3109790.39871 3069.70911223,-3109744.1852 3109.51610781,-3109696.64267 3145.48421253,-3109650.42935 3182.89910209,-3109614.96865 3229.63039978,-3109600.93885 3284.04475512,-3109601.0659 3327.08545714,-3109601.21099 3328.51417404,-3109600.5899 3344.3042647,-3109600.18074 3401.06710788,-3109587.7355 3443.6804827,-3109560.717 3446.19026188,-3109555.54904 3463.81490021,-3109514.42262 3468.14132442,-3109457.16387 3473.9834571,-3109400.2655 3477.89124888,-3109388.54435 3487.91247214,-3109356.49904 3491.14300179,-3109348.29986 3522.9118685,-3109304.93205 3569.50724637,-3109272.6157 3623.4558377,-3109261.90388 3627.02123637,-3109263.07188 3629.11447357,-3109264.37024 3674.71319623,-3109276.65333 3718.87564139,-3109311.81364 3750.42772973,-3109360.94924 3771.40132741,-3109413.49434 3793.55568528,-3109457.03263 3796.27000273,-3109459.75967 3812.81663628,-3109479.0662 3818.25798779,-3109479.07891 3833.83590139,-3109493.03098 3888.08085013,-3109508.00999 3947.67482395,-3109505.2055 4002.35622683,-3109486.02088 4022.32716068,-3109471.39373 4043.50950649,-3109453.69194 4074.29629763,-3109410.41154 4100.63595774,-3109361.59028 4130.85791508,-3109311.93075 4168.06750513,-3109268.57643 4213.8544288,-3109238.31037 4235.7192305,-3109233.9015 4238.9369594,-3109231.14377 4246.51489887,-3109232.94557 4354.56874608,-3109257.99674 4468.68462375,-3109284.48915 4470.60400821,-3109283.82464 4523.12782603,-3109290.54847 4581.29733689,-3109305.17979 4604.95619002,-3109315.44867 4644.92598881,-3109331.19694 4703.3433262,-3109354.21359 4742.02217254,-3109349.7994 4742.20870783,-3109346.321 4744.60077931,-3109334.2399 4748.95040993,-3109305.17065 4743.42452129,-3109265.1066 4538.10898588,-3108817.41598 4386.78827591,-3108605.29559 4386.48417551,-3108601.86061 4358.93826328,-3108575.61498 4334.25768702,-3108525.87146 4322.79578802,-3108469.02299 4331.03643751,-3108416.85956 4333.14246965,-3108412.71667 4335.06187336,-3108412.0522 4363.1530474,-3108377.41926 4412.80972129,-3108351.75754 4470.78264262,-3108336.2399 4476.13700399,-3108335.27136 4526.46281197,-3108328.34357 4580.25406715,-3108327.04365 4632.92063597,-3108329.79971 4686.78573922,-3108334.9224 4739.87367926,-3108348.02668 4788.69322929,-3108374.36709 4834.00864532,-3108411.40318 4862.80901135,-3108435.06471 4878.78990582,-3108447.99191 4951.59262421,-3108460.33971 4981.17795093,-3108453.76419 5339.30875208,-3108493.76841 5602.39969195,-3108588.67209 5607.48040176,-3108590.20044 5651.99534006,-3108607.03005 5707.82180517,-3108611.97831 5764.48143942,-3108603.99478 5793.14096604,-3108592.55576 5800.24068062,-3108588.95998 5816.48975581,-3108582.57601 5860.13847998,-3108550.52305 5896.98662126,-3108508.68698 5920.35610303,-3108471.01147 5925.505883,-3108462.14845 5931.60644418,-3108447.26684 5946.67768286,-3108410.82058 5960.14168461,-3108356.21885 5965.75473437,-3108302.31219 5963.18220354,-3108239.73402 5949.94972396,-3108196.3973 5931.11541091,-3108145.64387 5909.78427727,-3108094.61689 5888.85702657,-3108042.56504 5876.31501372,-3107990.26544 5877.59927329,-3107937.73104 5894.84629299,-3107886.75093 5931.43450162,-3107841.97148 5979.55622394,-3107804.57833 6015.3238401,-3107767.28969 6013.01738706,-3107724.46948 5979.59339491,-3107676.49094 5942.20049673,-3107628.36905 5927.11034156,-3107597.55996 5918.05625887,-3107579.07449 5918.31629054,-3107526.13638 5943.37144651,-3107473.97104 5987.68526748,-3107443.8389 6041.6610057,-3107439.06191 6093.68690462,-3107429.01765 6141.37895396,-3107403.53198 6190.36930719,-3107375.95336 6246.11635438,-3107357.66741 6300.04828538,-3107352.39986 6349.78554213,-3107366.79012 6389.80037318,-3107399.84375 6424.75211471,-3107442.74141 6460.36827309,-3107487.5583 6663.01692942,-3107620.45264 6687.74214995,-3107631.61637 6736.38491717,-3107655.99336 6780.68545407,-3107687.18341 6818.37706802,-3107721.92548 6822.02896602,-3107724.07485 6911.8848241,-3107783.87087 6915.046041,-3107786.06366 6916.96531479,-3107785.39926 6966.64096136,-3107787.92555 7025.01374565,-3107771.38479 7075.08377341,-3107739.25986 7108.27957145,-3107695.27659 7111.68379656,-3107689.04106 7111.56644566,-3107682.1282 7110.71834671,-3107588.73939 7110.87454389,-3107579.32973 7108.04900598,-3107156.27301 7264.63899138,-3106947.57655 7271.37813433,-3106945.49665 7323.07230496,-3106942.9002 7377.93180894,-3106959.30964 7420.51146185,-3106982.24532 7422.56098213,-3106983.05298 7429.37389555,-3106987.3952 7475.44896717,-3107021.88977 7515.44928495,-3107060.38342 7550.67319484,-3107100.78321 7583.66089936,-3107143.85337 7616.0711169,-3107185.98555 7643.99151434,-3107222.08638 7648.92860265,-3107227.58356 7685.98498369,-3107266.33735 7707.11849401,-3107287.21442 7722.86767401,-3107303.1284 7767.2536056,-3107335.29924 7813.61515434,-3107361.85557 7863.64142119,-3107385.12043 7916.62458913,-3107402.68394 7971.26635536,-3107416.63905 8025.92101585,-3107425.15342 8032.92055595,-3107426.01743 8080.76227191,-3107430.18969 8135.52955924,-3107428.80394 8189.15470471,-3107420.10172 8228.11640598,-3107407.7523 8240.07888742,-3107403.23203 8287.72461733,-3107377.25701 8330.25957161,-3107343.82236 8366.08154164,-3107301.58641 8391.43902249,-3107252.85918 8401.10853822,-3107200.08094 8400.25722635,-3107145.76133 8402.3065116,-3107090.69054 8410.01362781,-3107038.08606 8417.67739527,-3106984.99095 8423.78242767,-3106931.04482 8424.40348103,-3106876.59501 8421.50318469,-3106821.46783 8422.70189274,-3106767.95593 8432.99299148,-3106716.60646 8453.27093986,-3106666.35133 8478.90273595,-3106615.12802 8492.26342723,-3106604.05586 8502.89726318,-3106595.69747 8516.79202074,-3106585.07256 8569.78271577,-3106580.3837 8590.69409456,-3106581.99484 8628.95199712,-3106584.04905 8687.64361544,-3106582.31719 8739.89600359,-3106569.28725 8766.73436286,-3106554.05565 8770.03867899,-3106552.27979 8774.72811957,-3106549.39238 8785.08830212,-3106543.53074 8824.46234864,-3106507.90476 8863.12866208,-3106469.86902 8906.55812169,-3106435.36783 8955.94906311,-3106406.76763 8999.72575894,-3106376.19179 9028.31856648,-3106336.08072 9041.10667303,-3106285.00585 9044.90267277,-3106227.30929 9045.22081737,-3106169.42596 9049.23404188,-3106114.18267 9054.9363327,-3106061.26241 9060.63869771,-3106008.34217 9065.85048932,-3105955.46536 9068.47889913,-3105901.33366 9065.66685923,-3105847.18879 9056.38967022,-3105792.62688 9045.10656678,-3105737.74792 9043.85352067,-3105684.4541 9044.04034655,-3105680.97616 9045.13487708,-3105670.98959 9049.79415403,-3105662.17114 9086.89481072,-3105589.66104 9088.27994904,-3105588.54954 9125.70513702,-3105547.65802 9168.15375395,-3105513.24502 9214.601073,-3105484.9067 9263.93557556,-3105461.25789 9276.21494235,-3105454.73239 9280.18350085,-3105454.87584 9314.10786495,-3105441.4909 9365.16133227,-3105426.09635 9417.6300121,-3105415.52148 9450.50307369,-3105412.61371 9454.42821339,-3105412.26651 9475.0785893,-3105410.93438 9532.51382788,-3105411.78774 9585.6803175,-3105425.87516 9614.4883325,-3105444.09507 9620.01557471,-3105445.0896 9622.90277469,-3105449.779 9658.96079176,-3105494.05943 9730.13902509,-3105583.19747 9736.31728237,-3105591.55154 9802.96288942,-3105674.16751 9805.8067046,-3105678.36623 9801.89859855,-3105690.08493 9683.49801715,-3106022.95954 9640.49931406,-3106045.55396 9588.36518351,-3106065.4953 9548.01034309,-3106101.20691 9533.20310721,-3106157.40446 9547.97778433,-3106207.02891 9589.6034908,-3106235.98179 9647.2294802,-3106250.16794 9685.5165286,-3106258.15343 9920.37049562,-3106285.83275 9973.60650485,-3106289.52856 9983.80991132,-3106293.07605 9991.79030736,-3106293.85338 9998.15545232,-3106298.72943 10022.1703405,-3106307.48306 10065.4411764,-3106338.26772 10082.4872344,-3106352.08819 10191.6585776,-3106423.52223 10196.3781598,-3106426.56594 10204.4453412,-3106428.32449 10262.7175246,-3106433.0578 10320.4948337,-3106421.02281 10367.3872274,-3106392.15 10376.071102,-3106378.52537 10381.7112806,-3106369.6203 10394.289882,-3106349.71742 10402.401207,-3106296.09133 10397.2787236,-3106238.19703 10395.0516798,-3106218.61525 10388.8087437,-3106181.58784 10378.7236038,-3106129.07731 10368.7253555,-3106077.54802 10359.1309941,-3106024.99403 10351.3690083,-3105970.79451 10348.1964007,-3105918.16684 10352.1662968,-3105862.43492 10362.7748967,-3105809.08255 10381.4072639,-3105756.99827 10405.8706502,-3105709.34291 10432.3833995,-3105662.49527 10449.1439998,-3105628.37764 10455.2881738,-3105613.98899 10473.1131011,-3105563.95428 10490.851283,-3105512.93836 10516.6131738,-3105463.19061 10553.68971,-3105418.37569 10600.1352506,-3105390.03842 10651.3340166,-3105387.48743 10704.9895292,-3105401.53091 10757.6335553,-3105409.73025 10810.4606376,-3105397.64037 10850.9786582,-3105386.14487 10861.1081566,-3105383.271 10863.0706504,-3105383.0974 10900.1976531,-3105372.39634 10915.1899672,-3105368.59787 11006.211766,-3105346.70152 11082.547219,-3103391.78768 11083.2248568,-3103388.26659 11088.6565866,-3103248.35016 11329.6345643,-3103211.22567 11381.9950977,-3099729.64765 11113.3794678,-3099728.15018 11082.0006589,-3099361.56942 9771.4651516,-3099398.16431 9791.53493541,-3099037.41213 9831.45382464,-3098302.08524 9660.45698567,-3097787.60817 9924.79648743,-3097807.79386 10173.6822163,-3098039.48618 10407.1232174,-3098073.76854 10415.6078569,-3098052.25274 10585.245054,-3097626.88857 10867.4123224,-3097445.74485 11229.7814376,-3097641.21262 11171.0665111,-3096930.9386 11712.1587121,-3096955.38825 11724.9564368,-3097257.34632 12147.2131956,-3097279.91445 12519.0237119,-3097778.6119 13476.6690546,-3097828.5791 13484.3885947,-3097826.41459 13687.5785743,-3097809.47115 13901.3597094,-3097867.73135 14380.4006864,-3097990.58244 14956.664814,-3098391.59512 15235.6225152,-3098672.99731 15792.6019791,-3098721.21997 16250.5674125,-3098437.55703 16297.5581753,-3098404.24081 16673.3947315,-3098086.30759 18310.048842,-3097905.26359 18331.7073924,-3098010.62482 18529.4762275,-3098968.50838 18167.3880377,-3099688.12084 18258.643639,-3099725.04749 18487.4813108,-3099814.08821 18833.466221,-3099908.59994 18872.4056889,-3099918.50796 19658.7915841,-3099810.98893 19497.5399768,-3100246.40355 20797.8988485,-3099869.05727 20805.5733902,-3099866.40215 21310.5905999,-3101934.48365 21342.0408984,-3101943.56748 21590.5261521,-3102014.53566 21827.635881,-3102230.84583 22041.0647956,-3102486.8137 22370.8409413,-3102923.78729 22541.0173063,-3103221.63311 22643.4552541,-3103457.74758 22743.1653932,-3103607.10568 22923.2814133,-3103743.42056 22996.7583359,-3103992.96742 23174.0038562,-3103990.63692 23207.1478932,-3104236.82919 23470.2863342,-3104456.74477 23635.5692823,-3104827.66904 23868.5952861,-3104891.57627 23921.3807393,-3104907.17194 24050.0799531,-3104959.54822 24220.691402,-3105044.29839 24682.5970142,-3105058.29512 24878.4035012,-3104952.99007 24880.8122751,-3104952.28268 25186.8751542,-3104763.57806 25233.3015447,-3104735.25159 25438.1844148,-3104654.35403 25836.9276445,-3104496.50182 26244.6000101,-3104294.36836 26592.6025661,-3104121.73508 26683.5510359,-3104077.11595 26668.2795447,-3103960.34205 26659.8715843,-3103898.8108 26635.6900859,-3103798.64076 25536.0622228,-3099281.03455 25387.8209285,-3098671.36966 24050.2792668,-3093180.08029 24065.2669589,-3093176.28791 27744.7765294,-3092071.11568 27749.1036685,-3092069.74596 27765.474642,-3092064.84389 27976.6421011,-3092358.07693 28248.5055044,-3093110.01046 28121.7138711,-3093448.84336 28077.9943598,-3093692.88054 28540.145498,-3094663.26373 28840.7972507,-3094934.25338 29038.4858306,-3095141.67455 28945.6495643,-3095792.31796 29116.4154743,-3096103.41991 29141.8585367,-3096341.35348 29202.5961343,-3096598.41095 29302.1511357,-3097009.68976 29304.0260676,-3097008.53588 33386.8365309,-3095496.8426 33452.4094269,-3095472.77425 33450.5491394,-3095468.49118 32755.5370476,-3093656.02564 32735.134023,-3093603.96344 38230.0590143,-3091564.15728" style="stroke-linejoin:round;stroke:#000;stroke-width:1px;fill:none" /></g></g></svg>