<svg xmlns="http://www.w3.org/2000/svg" baseProfile="full" height="48078.8864675" version="1.1" viewBox="-5514.741905,3139708.509997,43852.201783,48078.886468" width="43852.2017833"><defs><style type="text/css">polyline,line,rect,path,polygon,.polygon{fill:none;stroke:#000;stroke-width:1px;stroke-linejoin:round;}</style></defs><g fill_rule="evenodd" transform="scale(1,-1)"><g class="id" id="54028"><polygon class="_54028" id="None" points="20104.5190806,-3152167.77005 19495.6801735,-3153294.71824 19355.2620892,-3153633.09071 19320.2994514,-3153873.22389 19291.095776,-3154001.42726 19234.6110927,-3154074.38491 19151.1251912,-3154095.54166 18996.7953796,-3154110.57137 18939.677047,-3154151.38078 18901.8979592,-3154241.14723 18861.1127673,-3154482.74857 18812.9672456,-3154652.1265 18790.6424394,-3154682.18009 18735.2108082,-3154761.98955 18605.3444765,-3154888.9728 18516.8077748,-3154975.93488 18494.7065392,-3154996.55813 18451.932397,-3155104.07196 18436.1280784,-3155238.62025 18424.5573541,-3155431.28144 18399.7913832,-3155620.06263 18343.5583864,-3155775.24061 18275.3087157,-3155910.59012 18256.7954245,-3155963.12327 18235.8900628,-3156022.7868 18211.8082458,-3156134.72634 18180.0470712,-3156231.43813 18157.6368442,-3156327.38901 18123.152091,-3156433.24013 18109.6982923,-3156584.4432 18142.4093335,-3156718.51261 18207.979798,-3156824.14587 18210.6808933,-3156826.89842 18280.0279886,-3156887.6375 18419.0302116,-3156933.78867 18567.3589002,-3156905.86082 18650.0770985,-3156771.80921 18731.0557326,-3156604.21269 18804.8475276,-3156549.16172 18926.9316594,-3156563.9941 19109.3246932,-3156583.32969 19181.3534998,-3156591.83297 19217.7998983,-3156595.30634 19304.8616884,-3156654.60196 19362.1273447,-3156792.11765 19444.0853977,-3156904.33948 19553.2415482,-3156967.28467 19675.0205139,-3156990.5616 19784.0840257,-3157015.8643 19883.6086873,-3157076.12498 20023.9235957,-3157205.39041 20158.4080895,-3157360.39415 20225.4249928,-3157459.4631 20289.2814367,-3157495.3803 20359.3675455,-3157467.87682 20438.5182335,-3157460.44127 20546.8137532,-3157500.66581 20608.9831314,-3157582.79004 20622.1366952,-3157695.65575 20630.0600639,-3157799.0398 20671.9524808,-3157936.31548 20796.6424003,-3158110.93635 20928.480596,-3158300.33063 21078.9504252,-3158481.27094 21236.6486994,-3158677.96841 21091.3968838,-3165438.36612 20625.1267896,-3165449.17936 20175.662625,-3165896.5528 19830.1150211,-3166239.34337 19256.1028661,-3166817.78487 19243.0465431,-3166827.76844 19399.4476334,-3166971.54701 19547.7502844,-3167004.02329 19650.728322,-3167094.20009 19680.2304282,-3167231.00046 19627.9894123,-3167604.34676 19625.745117,-3167722.43759 19670.452935,-3167814.89526 19830.7169377,-3168030.1874 20033.4343652,-3168237.55106 20157.1942926,-3168333.45715 20354.2491396,-3168416.93421 20545.5135469,-3168429.5458 20770.2021593,-3168463.2054 20954.0524001,-3168469.98192 21162.225533,-3168319.71317 21358.732038,-3168232.81808 21553.301334,-3168176.79597 21674.2586638,-3168177.81271 21823.2603432,-3168255.30429 21971.1601787,-3168379.94658 22133.5335103,-3168530.15592 22361.0737706,-3168671.57157 22506.181472,-3168671.10843 22685.9875953,-3168689.11105 22818.5756093,-3168747.62926 22955.3142798,-3168723.57625 23075.926749,-3168605.23474 23183.9268355,-3168502.29014 23315.8719271,-3168449.89843 23454.5755018,-3168401.41308 23647.8948717,-3168427.22813 23783.8644905,-3168496.86218 23939.9934815,-3168625.28221 24063.6531985,-3168726.13768 24152.5694503,-3168862.52521 24337.2595635,-3169000.99237 27234.9963473,-3169013.32522 27233.2695007,-3169016.43826 27521.5665322,-3171161.37613 29239.9755471,-3171157.53854 29167.6048763,-3170793.46918 28917.5664817,-3170479.58859 31391.0924075,-3170504.65524 31117.5893883,-3169685.55246 31973.0062534,-3169753.30011 31977.1029307,-3169754.94621 32050.8214206,-3169772.19631 32085.5411469,-3169930.3173 32075.5105762,-3170080.211 32004.2095085,-3170195.49406 32011.4725984,-3170296.42893 32136.4115736,-3170485.8025 32265.6856471,-3170655.50529 32588.59028,-3171103.55295 32700.9107296,-3171289.99175 32813.2457473,-3171440.27478 32944.0791785,-3171556.35696 33040.1491571,-3171647.05298 33128.7682535,-3171731.42461 33210.763771,-3171831.69053 33238.3802776,-3171921.05245 33266.5694386,-3172011.35792 33311.04692,-3172064.67254 33347.4607934,-3172110.22759 33429.4968653,-3172156.50684 33480.9020105,-3172209.74947 33491.3228658,-3172258.42161 33494.4225033,-3172296.30209 33450.917377,-3172442.49371 33393.1499996,-3172559.64262 33350.7091064,-3172652.26085 33393.1253271,-3172686.4287 33374.311154,-3172934.60335 33407.0207879,-3173213.22889 33402.1223477,-3173310.69913 33436.3812728,-3173456.9656 33489.6974518,-3173606.12914 33602.8280394,-3173778.12969 33737.2713998,-3173895.88808 33863.2537741,-3174025.23383 33916.9718102,-3174209.52493 33899.7120421,-3174410.02766 33756.4115543,-3174692.16788 33754.6451759,-3174694.78877 38241.217587,-3175346.00064 37548.3133852,-3180581.67122 37548.8784255,-3180588.55789 37246.7821212,-3183001.80411 33174.0120075,-3182569.52535 32999.6522246,-3182551.14986 32588.6189722,-3186621.97586 32587.0419391,-3186638.94539 31367.1042717,-3186488.09068 29924.2482525,-3186325.3235 29076.7525436,-3186229.02888 29162.8713048,-3185468.55191 28321.3768623,-3184830.33394 28213.9849107,-3184367.09411 28137.2209718,-3184210.43067 27518.4358208,-3183805.027 27067.1557943,-3183177.31553 26522.5094908,-3182957.00725 26504.6013921,-3182950.05606 26379.0483208,-3183092.12732 24381.470201,-3183445.33197 23792.3699242,-3181965.40708 23761.1628983,-3181808.45203 23663.3721037,-3181649.03317 23581.4689153,-3181538.34475 23433.3982264,-3181388.00317 23197.6256751,-3181140.82158 23016.806201,-3181044.18914 22889.769803,-3180799.97432 22729.4314286,-3180500.03212 22481.3464063,-3180356.39913 22176.1193132,-3180168.40472 22028.929397,-3180034.82448 21818.8205995,-3179792.45798 21548.7177408,-3180292.67685 21370.4596617,-3181302.58646 21201.8296271,-3181952.53865 21198.2519666,-3182216.89198 21338.0588453,-3182489.79252 22054.0285809,-3184880.86965 21960.1821487,-3184938.61338 21722.553633,-3185013.11893 21575.4021821,-3185103.47997 21312.1321607,-3185119.15502 21228.4423716,-3185288.52831 21192.214056,-3185305.87103 21012.629219,-3185393.44801 20806.5716621,-3185466.35508 20662.0708829,-3185601.09094 20475.102272,-3185689.27652 20332.697661,-3185819.38306 20172.903659,-3185882.54771 20076.4596523,-3185914.74616 19955.0735811,-3185920.75302 19829.549969,-3185888.45481 19703.4479938,-3185824.99057 19621.8608222,-3185742.51081 19563.1066805,-3185666.57808 19475.4475424,-3185552.3921 19392.3509714,-3185566.15294 19352.2220876,-3185620.48022 19337.7507835,-3185685.58214 19321.4372631,-3185782.54443 19342.3573329,-3185880.41227 19356.228044,-3185940.70917 19362.1490255,-3186030.89078 19385.2262851,-3186142.94945 19425.8853059,-3186263.96831 19556.7828104,-3186470.22353 19560.6320136,-3186474.86184 19551.4028188,-3186477.10638 19534.4612446,-3186481.96631 14822.9446724,-3187736.65633 14384.6985711,-3186781.13756 13023.190938,-3184218.60515 11267.8719463,-3180912.69771 11044.6164933,-3180492.44738 9903.88764072,-3178346.06109 8124.69315931,-3175197.27234 8058.91441501,-3175077.77296 7103.34688231,-3173319.86455 6892.08537212,-3172930.27582 4588.46316223,-3168695.93897 4277.71403537,-3168113.21948 3635.0381884,-3166700.19753 3240.46543556,-3165830.89483 3218.94488647,-3165797.95847 3085.43118152,-3165601.19349 2962.47742326,-3165418.434 2859.62280866,-3165166.13534 2756.7086631,-3164925.2395 2730.64441698,-3164769.76182 2547.73251563,-3164696.46329 2439.32459093,-3164455.02163 2451.55671461,-3164124.93765 2166.02170598,-3163765.60982 1972.8192519,-3163596.49961 1840.73118423,-3163386.72029 1603.18830455,-3163214.779 1419.35165862,-3163130.14724 1323.62364639,-3162959.03184 1105.75250429,-3162888.57215 946.799769946,-3162835.61179 706.838015917,-3162706.98007 552.513134804,-3162680.40514 526.842511749,-3162493.16637 348.787917584,-3162430.85647 335.711482291,-3162221.77371 7.61383858524,-3162033.40829 -152.508620762,-3161990.4508 -201.276684614,-3161872.49799 -215.811854632,-3161767.1201 -488.823648773,-3161628.28442 -671.246902472,-3161463.72641 -816.818436199,-3161270.88638 -918.877748597,-3161064.58707 -1081.04435807,-3160972.22616 -1260.73955125,-3160841.14482 -1433.61201743,-3160769.48033 -1477.7705651,-3160622.89507 -1570.45205018,-3160470.84469 -1717.47339973,-3160418.38545 -1851.47031051,-3160355.44742 -1992.34313344,-3160305.46042 -2193.40419276,-3160234.60104 -2369.27368003,-3160162.68036 -2414.35902152,-3159876.88577 -2534.00100023,-3159728.51292 -2614.2581645,-3159363.79675 -2570.9259588,-3159208.09991 -2674.7010524,-3159023.24089 -2846.03879349,-3158769.53185 -2991.35191879,-3158573.67788 -2947.97678424,-3158333.21873 -3013.65023789,-3158177.96888 -3036.32372446,-3158021.20136 -3024.2937505,-3157888.87085 -3022.22048497,-3157792.54305 -3072.02075902,-3157661.77515 -3098.71279039,-3157589.59762 -3102.58890027,-3157578.51275 -3202.73410511,-3157450.35447 -3326.4994025,-3157147.65998 -3447.67180209,-3157157.0243 -3517.30495606,-3157056.61713 -3500.05933988,-3156860.41584 -3481.68796029,-3156592.74702 -3435.65676408,-3156384.78697 -3403.97076117,-3156128.42782 -3459.01067467,-3155890.52396 -3550.26876295,-3155731.40258 -3675.00037979,-3155508.08777 -3901.75539613,-3155176.09046 -3984.44227351,-3155122.34279 -4104.38946564,-3155030.97968 -4158.78215896,-3154861.9171 -4205.51832662,-3154823.58513 -4385.15573212,-3154790.6071 -4514.46642716,-3154785.25991 -4589.7472633,-3154761.64041 -4663.31071334,-3154740.85524 -4705.00339829,-3154642.63098 -4735.08577042,-3154565.27247 -4792.06736204,-3154419.21863 -4798.51294337,-3154400.90682 -4808.00915229,-3154369.45967 -4866.1426115,-3154123.86725 -5105.51290999,-3153965.87222 -5133.30529736,-3153691.04465 -5103.66957437,-3153403.12284 -5040.69649828,-3153165.53026 -5003.88976879,-3152843.81674 -5205.52981663,-3152576.67259 -5443.57814519,-3152416.57775 -5511.27529082,-3152217.85613 -5327.99931421,-3151941.74107 -5178.37661345,-3151867.62568 -5013.18429196,-3151783.81941 -5120.10512431,-3151547.63995 -5002.06720313,-3151273.85578 -4998.9083275,-3151117.46107 -5171.16802335,-3150815.2094 -5175.20311605,-3150588.51667 -5087.70356037,-3150420.81191 -4970.17533943,-3150390.94555 -4818.68263678,-3150364.2694 -4643.46377339,-3150312.37022 -4423.35312579,-3150276.1572 -4289.71811386,-3150176.08597 -4130.18510867,-3150071.43422 -3945.77509803,-3150114.45323 -3757.49604014,-3150131.87893 -3501.98290791,-3150037.27881 -3388.59395666,-3149925.96708 -3412.31220314,-3149658.25656 -3533.80733189,-3149510.99747 -3654.79498586,-3149241.76472 -3892.56157397,-3148846.69461 -3939.40901666,-3148672.55532 -3957.68706008,-3148606.13346 -3910.59922978,-3148459.56208 -3852.85055449,-3148316.09119 -3680.00053052,-3148296.11589 -3494.70804625,-3148081.33055 -3408.33320041,-3147924.13889 -3353.25829324,-3147784.35718 -3268.49681467,-3147558.40245 -3133.60621963,-3147241.64355 -3032.26948438,-3147110.00647 -2834.48379736,-3147073.63964 -2740.33214586,-3146981.74247 -2676.52414687,-3146864.05569 -2671.24979977,-3146611.34677 -2542.46415538,-3146237.59747 -2730.98034639,-3145905.44331 -2573.04334485,-3145542.71505 -2455.30747819,-3145381.00795 -2445.6459728,-3145298.44471 -2503.07028283,-3145238.17247 -2656.79201385,-3145163.89968 -2931.00517931,-3144905.59976 -3066.61131103,-3144565.67912 -3083.06915016,-3144350.41788 -3114.30991833,-3144087.28633 -3064.81436159,-3143646.11991 -3236.62859687,-3143446.42216 -3461.12657227,-3143446.7712 -3542.7791308,-3143289.32933 -3603.01707635,-3143114.78674 -3613.39544252,-3142845.99657 -3647.59730543,-3142625.72718 -3916.72252359,-3142460.67078 -3900.71657641,-3142333.97524 -3788.11428238,-3142341.21002 -3510.61034087,-3142377.21612 -3284.12774548,-3142352.42581 -3081.32601882,-3142206.63577 -2935.25766267,-3141898.90907 -2763.06180274,-3141717.93327 -2480.46344867,-3141694.54909 -2302.87616034,-3141629.11612 -2182.04853374,-3141572.74126 -1980.48959992,-3141307.61412 -1994.92520526,-3141006.94891 -2189.86023668,-3140894.86297 -2460.58138207,-3140875.15159 -2532.05705078,-3140739.1894 -2520.93282983,-3140631.72859 -2520.56003402,-3140630.21152 -2514.99606123,-3140619.35283 -2460.23542391,-3140518.27171 -2316.68209056,-3140289.56512 -1966.71740702,-3139708.61564 -1912.45361182,-3139748.33338 -1686.44663374,-3139938.19807 -1476.61124124,-3140148.69879 -1289.99971492,-3140378.42406 -1117.81428466,-3140619.7232 -943.245871312,-3140859.83623 -758.442437816,-3141091.68435 -684.423132302,-3141191.75008 -582.142292287,-3141328.67956 -413.69334888,-3141572.75156 -231.642717746,-3141807.2947 -22.8686649121,-3142016.87347 212.841178805,-3142198.00135 466.583529009,-3142350.90403 727.032265793,-3142494.83628 982.383162095,-3142643.14428 1241.31290385,-3142786.70003 1508.97157674,-3142915.67016 1782.03211437,-3143031.81118 2059.17684258,-3143137.21235 2115.70216899,-3143155.92388 2340.49893949,-3143226.91054 2629.33840532,-3143293.20179 2924.84350768,-3143331.69545 3219.88197126,-3143339.99669 3516.30335412,-3143316.4696 3798.91188918,-3143269.28415 3807.73380039,-3143268.07365 4097.88544373,-3143203.92406 4376.06144281,-3143102.09277 4655.4597021,-3143003.13686 4943.11765043,-3142932.74972 5229.27039913,-3142856.04327 5512.24164121,-3142770.6758 5800.62537433,-3142703.20535 6094.00890083,-3142654.656 6387.21714743,-3142610.08546 6678.56114503,-3142554.76488 6967.33561277,-3142492.22026 7257.45161368,-3142434.02716 7550.13298029,-3142383.05939 7840.44429483,-3142327.32904 8037.24834564,-3142285.61701 8423.62809742,-3142223.09484 8720.31683837,-3142209.46179 9016.84279773,-3142212.19303 9304.70540185,-3142218.1033 9600.24154417,-3142239.24694 9904.14378037,-3142259.71209 10199.5296839,-3142272.93904 10493.6215473,-3142313.02589 10782.6946481,-3142376.80561 11069.729824,-3142452.145 11350.948903,-3142541.33186 11618.9144733,-3142668.75076 11865.6319379,-3142833.5627 12089.5592172,-3143028.95597 12291.4157746,-3143245.45861 12486.8204741,-3143467.93206 12683.6623284,-3143689.79145 12875.861791,-3143915.49321 13123.9604962,-3144213.45457 13194.2131647,-3144285.54316 13252.134065,-3144352.19065 13325.4331969,-3144437.4087 13400.1957459,-3144528.45308 13450.041962,-3144593.27746 13509.5995096,-3144680.10444 13545.3715372,-3144748.547 13585.8261935,-3144813.63707 13634.0502004,-3144907.32787 13665.0067397,-3144965.26093 13774.9199109,-3145239.24214 13835.1762411,-3145530.1313 13884.114067,-3145821.93804 13942.4057597,-3146112.98552 14014.7336395,-3146399.921 14094.8987026,-3146685.72436 14187.0510524,-3146966.59061 14304.8121566,-3147239.43228 14441.9557725,-3147500.79073 14601.5145365,-3147751.41037 14779.7630109,-3147988.12522 14982.5796795,-3148204.01727 15202.2887223,-3148402.18665 15421.2530959,-3148603.38685 15643.6353143,-3148797.86683 15873.8248177,-3148984.77479 16108.5360423,-3149166.35917 16338.1927466,-3149352.81059 16576.8130501,-3149527.63275 16822.5079365,-3149691.96996 17058.573933,-3149871.94936 17297.2326186,-3150047.25731 17536.3429657,-3150222.03101 17771.091056,-3150404.09251 18019.9880408,-3150565.18642 18272.341572,-3150720.05264 18514.6146694,-3150891.09296 18744.6392253,-3151076.00652 18971.7384338,-3151267.59564 19196.4967493,-3151460.85894 19418.08997,-3151657.84494 19650.9062345,-3151840.54129 20104.5190806,-3152167.77005" style="stroke-linejoin:round;stroke:#000;stroke-width:1px;fill:none" /></g></g></svg>