<svg xmlns="http://www.w3.org/2000/svg" baseProfile="full" height="50451.12222" version="1.1" viewBox="-20710.825740,3057122.231876,54255.900267,50451.122220" width="54255.9002669"><defs><style type="text/css">polyline,line,rect,path,polygon,.polygon{fill:none;stroke:#000;stroke-width:1px;stroke-linejoin:round;}</style></defs><g fill_rule="evenodd" transform="scale(1,-1)"><g class="hogares departamen mujeres departam_1 toponimo_i tot_pob varones viv_part viv_part_h" id="54077"><polygon class="_54077" id="None" points="32734.942937,-3090207.16807 32755.3471428,-3090259.22946 33450.4014389,-3092071.66815 33452.2618275,-3092075.95116 33386.6898354,-3092100.02107 29303.931186,-3093611.80619 29302.056286,-3093612.96011 29202.4924449,-3093201.68492 29141.7493486,-3092944.62974 29116.3010965,-3092706.69767 28945.52899,-3092395.60076 29038.350454,-3091744.95817 28840.6582355,-3091537.54236 28540.002037,-3091266.56063 28077.8324453,-3090296.19267 28121.546469,-3090052.15598 28248.3300447,-3089713.32243 27976.4522892,-3088961.39963 27765.2800565,-3088668.17311 27748.9093017,-3088673.07548 27744.582222,-3088674.44528 24065.1187533,-3089779.68293 24050.1312233,-3089783.47556 25387.7709955,-3095274.71734 25536.0238767,-3095884.37828 26635.7419174,-3100401.96353 26659.9255013,-3100502.13327 26668.3347312,-3100563.66449 26683.6086326,-3100680.43832 26592.6608737,-3100725.0594 26244.6610186,-3100897.70008 25836.9916981,-3101099.84212 25438.2505508,-3101257.70255 25233.3687092,-3101338.60428 25186.9427405,-3101366.93171 24880.8826286,-3101555.64271 24878.4738614,-3101556.35014 24682.6688076,-3101661.65919 24220.7615987,-3101647.67105 24050.1481011,-3101562.92378 23921.4475676,-3101510.54971 23868.6616834,-3101494.95496 23635.6338808,-3101431.05178 23470.3438363,-3101060.12953 23207.2008572,-3100840.21811 23174.0523894,-3100594.0259 22996.8065408,-3100596.35952 22923.3250978,-3100346.81345 22743.2063697,-3100210.50147 22643.4934702,-3100061.14484 22541.0512876,-3099825.03175 22370.8695814,-3099527.18844 22041.0856649,-3099090.21996 21827.6522854,-3098834.25545 21590.5388158,-3098617.94907 21342.0522625,-3098546.98492 21310.6017998,-3098537.90159 20805.5514891,-3096469.82878 20797.8769977,-3096472.48402 19497.5251177,-3096849.84994 19658.7700682,-3096414.43332 18872.3865881,-3096521.9638 18833.4470175,-3096512.05635 18487.4611291,-3096417.54965 18258.6224679,-3096328.51224 18167.3664611,-3096291.5869 18529.4440426,-3095571.97042 18331.6621529,-3094614.09166 18310.002184,-3094508.731 16673.3545573,-3094689.7964 16297.5228626,-3095007.73362 16250.532615,-3095041.05035 15792.5715831,-3095324.71831 15235.5926333,-3095276.50234 14956.6322688,-3094995.10395 14380.3649972,-3094594.09865 13901.3239079,-3094471.25304 13687.5427157,-3094412.99524 13484.3534436,-3094429.94075 13476.6339458,-3094432.10533 12518.9906239,-3094382.14776 12147.1764691,-3093883.45522 11724.9207864,-3093860.89101 11712.1204022,-3093558.93401 11171.0297641,-3093534.48916 11229.7505833,-3094244.76053 10867.3808437,-3094049.29637 10585.2158564,-3094230.44189 10415.5825082,-3094655.80631 10407.0980602,-3094677.32213 10173.6573578,-3094643.04168 9924.77048295,-3094411.35186 9660.43152552,-3094391.16819 9831.43177309,-3094905.64274 9791.51846777,-3095640.96848 9771.45140785,-3096001.72026 11081.9847593,-3095965.11498 11113.3666321,-3096331.695 11381.9819641,-3096333.19017 11329.6515985,-3099814.76924 11088.6735733,-3099851.89585 11083.243019,-3099991.81255 11082.5654099,-3099995.33365 11006.2462583,-3101950.25279 10915.224357,-3101972.14997 10900.2320273,-3101975.94858 10863.1049964,-3101986.64999 10861.1424978,-3101986.8236 10851.0129912,-3101989.69756 10810.4949374,-3102001.19344 10757.6677869,-3102013.28379 10705.0235264,-3102005.08486 10651.3677293,-3101991.04176 10600.1688221,-3101993.59318 10553.7233628,-3102021.93091 10516.6470683,-3102066.74628 10490.885493,-3102116.4944 10473.1476613,-3102167.51062 10455.3230745,-3102217.54564 10449.1789949,-3102231.93439 10432.4186103,-3102266.05226 10405.9061438,-3102312.90028 10381.4430518,-3102360.556 10362.8110325,-3102412.6406 10352.2028173,-3102465.99325 10348.2333476,-3102521.72539 10351.4063825,-3102574.35323 10359.168825,-3102628.55289 10368.7636375,-3102681.10699 10378.7623311,-3102732.63639 10388.8479251,-3102785.14704 10395.0911786,-3102822.17454 10397.3183863,-3102841.75637 10402.4413492,-3102899.65086 10394.3304184,-3102953.27721 10381.7519258,-3102973.18028 10376.1117957,-3102982.08543 10367.4279949,-3102995.71018 10320.5356445,-3103024.58347 10262.7582013,-3103036.61896 10204.4857502,-3103031.88609 10196.4185232,-3103030.1276 10191.6988986,-3103027.08391 10082.5265737,-3102955.65044 10065.4803431,-3102941.83004 10022.2091033,-3102911.0456 9998.19405548,-3102902.29211 9991.82884876,-3102897.41609 9983.84841602,-3102896.63883 9973.64494321,-3102893.0914 9920.40870092,-3102889.39598 9685.55362518,-3102861.71831 9647.26637139,-3102853.73308 9589.64005786,-3102839.54729 9548.01398166,-3102810.5946 9533.23888734,-3102760.97007 9548.04576905,-3102704.77221 9588.40049767,-3102669.06017 9640.53467334,-3102649.11838 9683.533367,-3102626.52355 9801.9318891,-3102293.6469 9805.83992067,-3102281.92813 9802.99606444,-3102277.72941 9736.34961782,-3102195.11366 9730.17127797,-3102186.7596 9658.99215146,-3102097.6218 9622.93369205,-3102053.34149 9620.04644835,-3102048.6521 9614.51918112,-3102047.65761 9585.71094039,-3102029.43785 9532.54417849,-3102015.35078 9475.10875097,-3102014.49783 9454.45831898,-3102015.83012 9450.5331693,-3102016.17734 9417.66002399,-3102019.08535 9365.19125266,-3102029.66064 9314.13773181,-3102045.0556 9280.21335383,-3102058.44082 9276.24478154,-3102058.29741 9263.96542143,-3102064.82301 9214.6309264,-3102088.47224 9168.18365532,-3102116.81099 9125.7351398,-3102151.22439 9088.31011259,-3102192.11631 9086.92497739,-3102193.22783 9049.82469863,-3102265.73842 9045.16546685,-3102274.55693 9044.07100159,-3102284.54355 9043.88419909,-3102288.0215 9045.13761751,-3102341.31549 9056.42113915,-3102396.19456 9065.69873806,-3102450.7566 9068.51116275,-3102504.90164 9065.8831183,-3102559.03355 9060.67167376,-3102611.91059 9054.96965389,-3102664.83106 9049.26770776,-3102717.75155 9045.25484987,-3102772.99508 9044.93710383,-3102830.87863 9041.14148796,-3102888.57544 9028.35368428,-3102939.65059 8999.76104121,-3102979.76202 8955.98438293,-3103010.33828 8906.59344131,-3103038.93893 8863.16404305,-3103073.44055 8824.49783161,-3103111.4767 8785.12386581,-3103147.10309 8774.76368061,-3103152.96483 8770.07424037,-3103155.85228 8766.76992273,-3103157.62816 8739.9315563,-3103172.86001 8687.67904211,-3103185.89035 8628.98719596,-3103187.6226 8590.72912392,-3103185.56863 8569.81764935,-3103183.95763 8516.82676889,-3103188.64685 8502.93202363,-3103199.2719 8492.29819843,-3103207.63039 8478.93752415,-3103218.70269 8453.30595358,-3103269.92637 8433.02824484,-3103320.18184 8422.73743336,-3103371.53159 8421.53906436,-3103425.04372 8424.43972769,-3103480.17112 8423.8190219,-3103534.62117 8417.71430975,-3103588.56757 8410.05084966,-3103641.66297 8402.34403688,-3103694.26773 8400.29509574,-3103749.33878 8401.14675992,-3103803.65863 8391.47753841,-3103856.43718 8366.12025251,-3103905.16479 8330.29838545,-3103947.40117 8287.76344465,-3103980.83624 8240.11765503,-3104006.81169 8228.15514573,-3104011.33206 8189.1933383,-3104023.68178 8135.56799398,-3104032.38437 8080.80045654,-3104033.77047 8032.95848898,-3104029.59848 8025.95891054,-3104028.73451 7971.30394024,-3104020.22044 7916.66183208,-3104006.26559 7863.67830949,-3103988.70231 7813.65166921,-3103965.43764 7767.28974635,-3103938.88147 7722.90341856,-3103906.71074 7707.15407203,-3103890.79678 7686.02034164,-3103869.91974 7648.96356382,-3103831.16599 7644.02642086,-3103825.66881 7616.105686,-3103789.56798 7583.6950774,-3103747.4358 7550.70697591,-3103704.36563 7515.48267663,-3103663.96586 7475.48196143,-3103625.47228 7429.40649081,-3103590.97782 7422.5935229,-3103586.63561 7420.54398906,-3103585.82797 7377.96402034,-3103562.89242 7323.10418514,-3103546.48322 7271.40980394,-3103549.07997 7264.67064318,-3103551.15992 7108.08110846,-3103759.85816 7110.90895637,-3104182.91684 7110.75280953,-3104192.32655 7111.60141977,-3104285.71581 7111.71880879,-3104292.62871 7108.31460077,-3104298.86429 7075.11887682,-3104342.84795 7025.04877302,-3104374.97331 6966.67578574,-3104391.51447 6916.99987756,-3104388.98842 6915.08059769,-3104389.65284 6911.91935343,-3104387.46005 6822.06273502,-3104327.66421 6818.41080776,-3104325.51484 6780.71882743,-3104290.7728 6736.41791208,-3104259.58283 6687.77478216,-3104235.20597 6663.04938421,-3104224.04231 6460.39908535,-3104091.14834 6424.78253724,-3104046.33142 6389.83042093,-3104003.43373 6349.81524147,-3103970.38014 6300.07768289,-3103955.99005 6246.14552541,-3103961.25788 6190.39830435,-3103979.54418 6141.40785101,-3104007.12317 6093.71569589,-3104032.60917 6041.68959755,-3104042.65372 5987.71362577,-3104047.43098 5943.39973171,-3104077.56347 5918.34469228,-3104129.72917 5918.08489861,-3104182.66754 5927.13910878,-3104201.15306 5942.22947698,-3104231.96223 5979.62277724,-3104280.08418 6013.04715392,-3104328.06281 6015.35381507,-3104370.88321 5979.58619098,-3104408.17221 5931.46439691,-3104445.56577 5894.87620548,-3104490.34561 5877.62932709,-3104541.32606 5876.34529672,-3104593.86073 5888.88760939,-3104646.16055 5909.81520368,-3104698.21257 5931.14668006,-3104749.23973 5949.98132301,-3104799.99333 5963.21407021,-3104843.33023 5965.78689989,-3104905.90872 5960.17406524,-3104959.8157 5946.71023833,-3105014.41779 5931.63908224,-3105050.86431 5925.53855485,-3105065.74603 5920.38878656,-3105074.60912 5897.01934547,-3105112.28495 5860.17118696,-3105154.12142 5816.5223616,-3105186.17476 5800.27322361,-3105192.55883 5793.1734851,-3105196.15467 5764.51384799,-3105207.59387 5707.85393003,-3105215.57769 5652.02712939,-3105210.62965 5607.51186868,-3105193.80013 5602.43112382,-3105192.2718 5339.33832107,-3105097.36869 4981.20538461,-3105057.36566 4951.61991983,-3105063.94133 4878.81675415,-3105051.59373 4862.83572372,-3105038.66653 4834.03511216,-3105015.00497 4788.7193126,-3104977.96884 4739.89940133,-3104951.62847 4686.81112631,-3104938.52431 4632.94571319,-3104933.40178 4580.27884967,-3104930.64589 4526.48730796,-3104931.94601 4476.16125133,-3104938.87401 4470.80686426,-3104939.84257 4412.83368117,-3104955.36049 4363.17682319,-3104981.02251 4335.08561075,-3105015.65574 4333.16619872,-3105016.32022 4331.06016876,-3105020.46314 4322.81964633,-3105072.62688 4334.28179676,-3105129.47563 4358.96267589,-3105179.21935 4386.5088303,-3105205.46504 4386.81294392,-3105208.90003 4538.13523992,-3105421.02111 4743.45358491,-3105868.71367 4748.97965271,-3105908.77794 4744.63010065,-3105937.8474 4742.23805815,-3105949.92858 4742.0515343,-3105953.407 4703.37246434,-3105957.82136 4644.95468342,-3105934.80478 4604.98458233,-3105919.05654 4581.32554741,-3105908.78768 4523.15562785,-3105894.15648 4470.63146425,-3105887.43278 4468.71207026,-3105888.09731 4354.59540363,-3105861.60512 4246.54081374,-3105836.55415 4238.9628222,-3105834.75237 4235.74508258,-3105837.51012 4213.88016164,-3105841.91909 4168.09305472,-3105872.18548 4130.88337337,-3105915.54019 4100.66138532,-3105965.20012 4074.32171381,-3106014.02177 4043.53486429,-3106057.30253 4022.35244003,-3106075.0045 4002.38142539,-3106089.6318 3947.6997361,-3106108.81671 3888.10539455,-3106111.62139 3833.86005954,-3106096.64245 3818.28200709,-3106082.69034 3812.84062131,-3106082.67764 3796.2938277,-3106063.37104 3793.57948532,-3106060.64399 3771.42486305,-3106017.10549 3750.45098398,-3105964.56013 3718.89856045,-3105915.42431 3674.73574445,-3105880.26391 3629.13670796,-3105867.98087 3627.04345435,-3105866.68251 3623.4780306,-3105865.51451 3569.52913806,-3105876.22654 3522.93356139,-3105908.54322 3491.16461471,-3105951.91138 3487.93408689,-3105960.11063 3477.91288666,-3105992.15615 3474.00510166,-3106003.87739 3468.1630833,-3106060.77614 3463.83678343,-3106118.03526 3446.21214201,-3106159.16198 3443.70236048,-3106164.32999 3401.08878514,-3106191.34876 3344.32561197,-3106203.79423 3328.53542156,-3106204.20343 3327.10669712,-3106204.82453 3284.06571997,-3106204.67955 3229.65101696,-3106204.55263 3182.91945506,-3106218.58264 3145.50441146,-3106254.04366 3109.53618553,-3106300.25736 3069.7290444,-3106347.80029 3033.76084128,-3106394.01418 3012.06733585,-3106439.45853 3017.53796774,-3106484.47548 3047.58869139,-3106527.81004 3088.92625884,-3106570.14489 3129.64271896,-3106611.05092 3167.28441968,-3106650.74545 3184.10520509,-3106667.55507 3204.2180826,-3106688.02972 3244.36953152,-3106722.55601 3285.58936448,-3106757.97676 3325.42394294,-3106794.50927 3360.65551626,-3106834.91147 3391.68790272,-3106878.15842 3422.44693349,-3106923.9024 3450.96971507,-3106972.31729 3478.64150204,-3107022.29121 3495.60432515,-3107074.20285 3497.26779235,-3107126.48059 3477.56930747,-3107177.68322 3441.34167948,-3107220.95321 3396.31857699,-3107248.68139 3343.97211955,-3107260.73728 3288.92364738,-3107264.6247 3231.78175939,-3107267.21383 3176.59016591,-3107275.07057 3127.07576399,-3107296.76726 3089.82293691,-3107339.63397 3062.39065482,-3107398.44659 3041.02111573,-3107458.70054 3021.55263726,-3107506.91615 2997.81706028,-3107529.29689 2968.09378543,-3107517.58723 2934.01642986,-3107479.06112 2897.03223917,-3107424.47114 2861.44588694,-3107363.32763 2828.30075098,-3107307.40819 2797.9011146,-3107260.148 2763.50706773,-3107223.6279 2722.26109214,-3107199.0902 2672.47357388,-3107184.21164 2617.40574162,-3107176.725 2560.14496486,-3107172.40012 2502.11997662,-3107170.61584 2479.77589819,-3107169.62759 2284.39938263,-3107175.06419 2230.77807852,-3107178.33026 2222.21810202,-3107176.61555 2207.59532823,-3107173.45951 2179.37472177,-3107167.55123 2133.40719637,-3107139.96903 2091.39075352,-3107101.15568 2056.47467214,-3107058.74573 2024.95036364,-3107015.54068 1997.13471281,-3106969.53409 1968.69795881,-3106922.09867 1942.94493095,-3106871.45789 1925.98193434,-3106819.54393 1925.56694253,-3106786.93732 1925.85299154,-3106778.99845 1961.41971214,-3106694.73462 1978.1991055,-3106671.98092 2017.1869152,-3106631.92788 2056.92623882,-3106594.77594 2100.75269141,-3106564.681 2120.68291385,-3106510.48903 2145.50796013,-3106461.30416 2169.22118074,-3106410.73405 2181.92080795,-3106358.66641 2172.98435583,-3106308.02027 2146.33775954,-3106258.44786 2110.22400464,-3106213.67049 2071.68729771,-3106175.04271 2030.4668706,-3106139.62006 1988.52568646,-3106107.22871 1944.70841886,-3106075.99261 1900.97804457,-3106045.73792 1855.81886469,-3106016.10426 1808.37974062,-3105988.6508 1760.21981207,-3105964.22866 1753.53590254,-3105961.35833 1708.43802831,-3105943.58933 1393.02523324,-3105816.70777 1389.73309648,-3105813.04246 1235.71862395,-3105620.92445 1220.59990617,-3105600.99509 1199.38769936,-3105573.69156 1159.34799979,-3105529.25995 1116.52473694,-3105492.49373 1071.17855999,-3105466.33747 1022.89272978,-3105457.25794 973.009149834,-3105463.65259 930.58662769,-3105464.93526 868.980964551,-3105467.42161 830.688804971,-3105476.25232 781.525800524,-3105479.61554 773.543274632,-3105478.83841 612.144735331,-3105410.03261 590.533388554,-3105400.56978 589.577571717,-3105389.77297 584.192024367,-3105384.80903 576.151428208,-3105333.09214 579.672021516,-3105277.87875 559.905391117,-3105054.581 686.03036728,-3104987.52591 822.070001675,-3104915.14216 764.205327389,-3104769.90369 752.635046034,-3104739.76758 617.717332838,-3104640.42238 573.322364646,-3104608.24524 565.265934536,-3104601.04455 463.954327365,-3104456.68224 460.618832753,-3104452.52595 460.861994367,-3104444.09607 456.65783493,-3104430.12447 453.843280453,-3104375.96652 455.489127298,-3104321.90845 454.151392335,-3104284.43654 452.418508275,-3104281.62224 451.693201426,-3104267.83737 441.113498004,-3104215.35585 423.750007451,-3104164.46385 401.565781035,-3104114.98763 375.946248964,-3104065.81535 349.388666083,-3104017.22064 332.290212978,-3103986.08941 323.321902794,-3103968.58243 298.280153925,-3103920.34808 273.729225958,-3103872.07024 249.799395026,-3103825.22122 223.372348107,-3103778.09849 194.982274585,-3103731.1494 165.784401105,-3103686.25017 135.114258136,-3103641.48113 103.015264057,-3103597.33306 69.5742560789,-3103554.7875 34.1701916728,-3103512.41554 -2.4890620358,-3103472.62762 -40.4469372927,-3103434.93296 -79.7902833069,-3103398.35004 -100.536920328,-3103381.8848 -122.308524345,-3103365.0156 -166.082004651,-3103334.26521 -212.5396402,-3103306.7199 -263.687965833,-3103282.06256 -316.725790366,-3103264.00232 -370.67158186,-3103252.45237 -424.774073425,-3103250.31397 -453.960200328,-3103255.86367 -463.154719671,-3103258.16093 -616.59630884,-3103329.60597 -622.311991238,-3103332.09011 -659.333691005,-3103349.70936 -671.212430193,-3103355.21185 -720.647125777,-3103377.88628 -769.056897743,-3103400.96471 -781.873812511,-3103407.04484 -893.026270276,-3103458.92154 -919.772006676,-3103469.69638 -997.238296408,-3103499.79731 -1083.22177935,-3103528.67337 -1102.36243325,-3103530.36678 -1256.26430325,-3103496.00367 -1241.42450402,-3103373.01197 -1240.082396,-3103371.40935 -1122.76393048,-3103260.62114 -1099.91788482,-3103239.30963 -1099.68759983,-3103236.32149 -1085.1112855,-3103222.17172 -1055.76237099,-3103168.13428 -1034.73977474,-3103126.20988 -1020.77876387,-3103071.55532 -1016.09917875,-3103018.21645 -1018.64364527,-3103000.63502 -1019.61198025,-3102995.2798 -1023.64572655,-3102966.45373 -1043.73555085,-3102918.27364 -1090.28432873,-3102872.92854 -1117.92275078,-3102828.8784 -1147.35063689,-3102786.965 -1187.21524901,-3102744.49078 -1224.58249801,-3102702.29022 -1264.01298583,-3102664.72371 -1305.86729667,-3102633.30703 -1328.05642878,-3102622.90388 -1333.80237534,-3102619.45506 -1351.84816271,-3102611.15857 -1402.40300058,-3102598.81256 -1455.25152215,-3102594.08881 -1511.59236695,-3102594.62021 -1568.12023286,-3102598.63057 -1624.64818598,-3102602.64093 -1679.70384545,-3102606.52106 -1733.4174294,-3102608.79859 -1786.77052159,-3102609.56033 -1840.44085361,-3102612.32865 -1893.70728419,-3102614.07196 -1947.46458904,-3102615.85869 -2001.22197242,-3102617.64541 -2055.42682463,-3102619.96633 -2109.6751651,-3102621.79645 -2163.88017719,-3102624.11737 -2213.62465372,-3102626.53842 -2218.08526919,-3102626.43829 -2262.02701847,-3102627.35683 -2272.37725785,-3102627.7776 -2326.71273483,-3102628.62611 -2381.0048834,-3102629.96541 -2434.84971657,-3102630.7705 -3515.60258776,-3102648.19983 -3569.40566602,-3102649.49561 -3623.78645895,-3102649.85315 -3677.58969477,-3102651.14892 -3681.11225391,-3102650.47114 -3731.47982562,-3102651.46304 -3785.32662657,-3102652.26798 -3839.751145,-3102652.13467 -3893.59810347,-3102652.93959 -3947.53195687,-3102652.76285 -4001.37907211,-3102653.56776 -9578.60997284,-3102698.57423 -10008.8498829,-3102695.05945 -10006.7000169,-3102204.5797 -10508.0558423,-3102196.95581 -10700.800213,-3102193.71118 -13196.924559,-3102131.86405 -13627.5687939,-3102113.03158 -13630.0235567,-3102113.24857 -13690.7172509,-3102098.32732 -13767.2815867,-3102077.38704 -13905.0310134,-3102041.56858 -14058.033012,-3101984.33745 -14275.5649723,-3101857.60044 -14385.0570569,-3101816.80882 -14450.8137848,-3101845.38159 -14450.9370528,-3101983.93626 -14472.5535424,-3102080.84852 -14481.3016886,-3102188.99343 -14537.8656855,-3102271.18246 -14599.4993254,-3102346.39788 -14688.6082852,-3102362.68679 -14799.2550425,-3102336.84205 -14868.6525377,-3102268.26109 -14904.1512644,-3102152.15087 -14929.1980751,-3102014.33479 -14993.2752504,-3101888.38009 -15062.0534931,-3101804.4043 -15187.1730468,-3101659.59827 -15278.7348741,-3101496.98135 -15355.2791304,-3101325.11967 -15335.4844085,-3101190.76157 -15336.1525192,-3101048.81051 -15387.3388086,-3100979.11213 -15445.0633222,-3100936.21619 -15512.1005925,-3100905.52362 -15578.6786092,-3100852.02902 -15629.6182962,-3100790.71994 -15693.0453559,-3100761.68719 -15760.5324411,-3100714.70496 -15815.3841965,-3100665.12175 -15859.1307048,-3100618.02094 -15939.6241447,-3100614.24661 -16064.4521861,-3100601.52393 -16170.534517,-3100604.95839 -16318.8854502,-3100611.63236 -16452.9706137,-3100606.15983 -16564.2418045,-3100578.87868 -16675.0278063,-3100501.08232 -16777.5088371,-3100298.84539 -16799.9712961,-3100235.01789 -16844.9637881,-3100151.40819 -16892.407845,-3100101.66306 -16957.4286812,-3100032.19283 -17048.6875969,-3099979.38998 -17148.4825674,-3099913.98042 -17192.0125765,-3099869.332 -17200.7698385,-3099803.7983 -17187.0041421,-3099673.92682 -17196.0939863,-3099599.02078 -17213.964302,-3099519.9419 -17225.8150053,-3099408.16747 -17168.2098574,-3099203.16963 -17136.2716693,-3099122.16651 -17134.8021986,-3099071.56439 -17167.065112,-3099053.63062 -17243.6035465,-3099055.44102 -17317.2828488,-3099056.00926 -17426.1995665,-3099049.79247 -17543.968733,-3099049.80043 -17633.3196629,-3099018.59857 -17727.5840834,-3098937.35728 -17870.085262,-3098819.7982 -17942.8320551,-3098735.66634 -17934.2286345,-3098670.57797 -17897.8817508,-3098628.2768 -17866.9359478,-3098586.45257 -17854.1724506,-3098534.8525 -17878.3069997,-3098480.07726 -17932.3788165,-3098422.50179 -18011.046811,-3098316.12943 -18167.2559734,-3098099.32529 -18240.5086507,-3097970.20592 -18278.7256706,-3097839.97292 -18265.0672042,-3097736.83058 -18227.9551258,-3097641.51502 -18162.5085023,-3097547.65755 -18050.8622769,-3097500.69088 -17957.6727105,-3097446.44641 -17887.8350136,-3097396.73733 -17871.2582211,-3097304.22516 -17899.9692705,-3097225.60656 -17931.2652023,-3097145.73149 -17990.6209954,-3097045.07541 -17972.6854988,-3096979.16439 -17901.8364519,-3096918.48072 -17847.695296,-3096948.83602 -17817.6712158,-3096986.26779 -17761.1617398,-3097015.42425 -17703.8582234,-3097031.15015 -17659.4070848,-3097080.6689 -17618.7972909,-3097131.51619 -17570.6780636,-3097177.74203 -17506.7036044,-3097151.31336 -17466.2253041,-3097116.56699 -17437.2715799,-3097052.15854 -17411.4664763,-3096946.46274 -17401.2856309,-3096927.25578 -17361.1398466,-3096849.48939 -17323.4778878,-3096766.00448 -17272.4864773,-3096704.60024 -17272.5444753,-3096659.08166 -17318.4242765,-3096610.18401 -17377.3444241,-3096581.73501 -17439.6583484,-3096520.43211 -17546.6390984,-3096491.27521 -17624.9397204,-3096484.32889 -17715.0535244,-3096489.31104 -17787.2313513,-3096478.8554 -17830.8586271,-3096438.66497 -17837.3859679,-3096392.72693 -17842.5990458,-3096339.25048 -17867.6835286,-3096307.32044 -17921.4776532,-3096297.71655 -17996.4569801,-3096233.07617 -18035.7223822,-3096146.97593 -18006.1167627,-3096089.9326 -17915.1928895,-3096032.42811 -17810.0447592,-3095995.93626 -17764.9580532,-3095940.49663 -17732.3921141,-3095894.57376 -17725.9354298,-3095816.31639 -17713.5435634,-3095754.85443 -17727.4788091,-3095725.89931 -17769.1411037,-3095685.53491 -17793.79142,-3095641.69047 -17800.3748009,-3095567.0575 -17842.4842152,-3095510.40301 -17908.7687664,-3095465.77734 -18009.8867904,-3095446.98613 -18128.7252631,-3095446.0872 -18184.6859059,-3095445.58006 -18220.9638532,-3095477.48021 -18241.501659,-3095547.57864 -18261.0436064,-3095645.7948 -18326.5373667,-3095705.50891 -18439.6584057,-3095718.95132 -18548.7071487,-3095728.07583 -18681.5553888,-3095708.61972 -18825.9295118,-3095726.79828 -18896.8971258,-3095763.73856 -18964.8899734,-3095806.35465 -19040.6515099,-3095800.17182 -19091.3993391,-3095769.01961 -19113.3925037,-3095699.20721 -19119.7156204,-3095610.693 -19106.8880846,-3095503.66495 -19105.1231925,-3095411.46837 -19126.639289,-3095347.05707 -19203.4104749,-3095301.37474 -19287.4318587,-3095263.25949 -19373.2022556,-3095261.42209 -19417.0348783,-3095297.45305 -19447.7994547,-3095386.26992 -19467.9204094,-3095483.55029 -19476.9786413,-3095582.82412 -19537.8832422,-3095677.764 -19631.0352975,-3095715.67176 -19725.2407657,-3095713.58955 -19973.9912713,-3095692.9737 -20076.1120799,-3095696.538 -20130.1270609,-3095734.95278 -20249.5972706,-3095884.05155 -20304.0604666,-3095939.82642 -20363.9381769,-3095934.22142 -20445.9407613,-3095890.97909 -20516.5478315,-3095825.45225 -20591.7192912,-3095781.11205 -20647.5225568,-3095703.88681 -20627.5755473,-3095638.28994 -20573.1412233,-3095610.23008 -20503.1803675,-3095550.61424 -20426.4157804,-3095450.31479 -20383.3749504,-3095377.23822 -20345.5775738,-3095328.87239 -20325.8613431,-3095266.26583 -20290.7907226,-3095153.31424 -20243.605464,-3095099.1723 -20168.272537,-3095049.97103 -20038.1013942,-3094971.68601 -19937.1630746,-3094926.66027 -19767.89705,-3094831.56752 -19736.5108295,-3094761.00529 -19740.6805375,-3094685.66093 -19799.0791569,-3094595.79922 -19877.0135074,-3094435.9064 -19950.3536732,-3094260.76241 -20011.115373,-3094104.79784 -20065.9296662,-3093993.83498 -20158.7402331,-3093872.86047 -20269.6999978,-3093697.56676 -20364.5145188,-3093542.62259 -20403.6961929,-3093378.8152 -20413.143292,-3093243.5627 -20376.7117116,-3093011.23405 -20338.567005,-3092708.48602 -20295.9840526,-3092512.23593 -20242.4608751,-3092507.51943 -20188.3601962,-3092503.74175 -20134.9669845,-3092497.55215 -20081.039543,-3092491.81034 -20027.646485,-3092485.62076 -19974.5563948,-3092475.99396 -19920.0948816,-3092470.69994 -19867.7555969,-3092458.17024 -19814.8820821,-3092446.08833 -19762.4996728,-3092434.04972 -19710.2904137,-3092420.04701 -19657.2440409,-3092409.9293 -19604.1544739,-3092400.30265 -19552.1185085,-3092384.33591 -19498.8992828,-3092376.18239 -19447.354488,-3092360.25898 -19396.646936,-3092340.45067 -19344.8426657,-3092327.4735 -19292.0564148,-3092314.40982 -19240.2955546,-3092300.94169 -19187.6392519,-3092286.405 -19135.9650681,-3092271.95488 -19083.8431983,-3092256.9705 -19032.2556881,-3092241.5384 -18981.2025349,-3092225.65859 -18928.6763866,-3092209.64901 -18877.7964354,-3092191.80519 -18826.4255301,-3092173.91814 -18776.7440776,-3092153.70585 -18726.0806493,-3092133.40707 -18677.0633977,-3092111.27406 -18628.667015,-3092087.71132 -18579.736405,-3092064.5964 -18530.719321,-3092042.46355 -18481.1680145,-3092020.77851 -18431.4869742,-3092000.56657 -18380.2464261,-3091981.2069 -18329.9447049,-3091962.42483 -18279.1952978,-3091943.10852 -18229.6010298,-3091921.91474 -18180.0500835,-3091900.23 -18131.7407909,-3091875.68578 -18083.4315507,-3091851.14161 -18037.1729217,-3091825.78854 -17989.0800904,-3091798.78945 -17942.4603307,-3091771.92021 -17895.883877,-3091744.56002 -17848.7299406,-3091718.13866 -17801.5327911,-3091692.20836 -17753.3104195,-3091666.6826 -17704.915061,-3091643.12093 -17655.9422339,-3091620.49806 -17606.305424,-3091599.796 -17556.7119323,-3091578.60298 -17506.6274978,-3091557.36676 -17457.0773829,-3091535.68285 -17407.036326,-3091513.95573 -17357.9773285,-3091492.31518 -17308.9183883,-3091470.67468 -17259.4117636,-3091448.49997 -17209.9051968,-3091426.32532 -17160.8896852,-3091404.19398 -17110.892237,-3091381.97618 -17061.2993324,-3091360.78368 -17011.6632311,-3091340.08223 -16961.4496843,-3091320.31956 -16911.3227095,-3091299.57495 -16860.9362668,-3091281.77635 -16810.1454046,-3091262.95255 -16758.6040886,-3091247.0315 -16706.6583581,-3091230.08524 -16655.117179,-3091214.16427 -16603.5328145,-3091198.73431 -16551.414276,-3091183.75214 -16499.2525547,-3091169.26098 -16410.8723834,-3091144.65205 -16358.1766135,-3091130.60872 -16306.4628881,-3091116.65192 -16254.2582473,-3091102.65191 -16201.967173,-3091089.6339 -16149.1419347,-3091077.06365 -16096.8077531,-3091064.53668 -16043.8096538,-3091053.93042 -15990.7251258,-3091044.30615 -15937.6839248,-3091034.19091 -15884.0653155,-3091025.0144 -15830.9810142,-3091015.39019 -15777.9832909,-3091004.78404 -15725.0288937,-3090993.68693 -15672.117822,-3090982.09887 -15619.6978015,-3090970.55408 -15566.2094001,-3090959.90478 -15513.1687999,-3090949.78972 -15460.0850244,-3090940.16565 -15406.9148235,-3090931.52356 -15353.7446985,-3090922.88148 -15300.1269269,-3090913.7052 -15246.9569541,-3090905.06316 -15193.8735571,-3090895.4392 -15140.8767351,-3090884.83331 -15087.9232376,-3090873.73648 -15035.0130643,-3090862.1487 -14982.0597159,-3090851.05191 -14929.6406591,-3090839.50744 -14876.6874592,-3090828.4107 -14823.7775828,-3090816.82302 -14771.4019952,-3090804.78766 -14718.6220125,-3090791.72714 -14666.4628128,-3090777.237 -14614.9243922,-3090761.31726 -14563.429288,-3090744.90659 -14512.5982051,-3090726.57536 -14462.2581486,-3090708.28743 -14410.5317677,-3090688.88787 -14359.9756045,-3090673.05482 -14307.4556693,-3090657.04882 -14256.3221881,-3090642.15452 -14204.2068587,-3090627.17376 -14152.8852812,-3090608.79958 -14103.7870727,-3090587.65268 -14056.1032909,-3090561.68277 -14009.531205,-3090534.32654 -13963.5366084,-3090506.03171 -13916.9213657,-3090479.16657 -13870.3494126,-3090451.81053 -13823.8207478,-3090423.96361 -13778.4470055,-3090394.23943 -13736.4081997,-3090360.35621 -13695.5242907,-3090324.59574 -13656.7339289,-3090287.53547 -13617.4526277,-3090250.43203 -13577.102957,-3090214.22408 -13536.666821,-3090178.99812 -13496.3171832,-3090142.79033 -13458.6385002,-3090104.34407 -13424.7856088,-3090061.78204 -13392.982973,-3090018.41114 -13362.2919285,-3089973.65396 -13332.6259929,-3089928.49238 -13303.985162,-3089882.9264 -13278.506159,-3089835.16518 -13255.6547873,-3089785.65643 -13234.8103852,-3089735.82973 -13213.9659336,-3089686.0031 -13192.5872544,-3089636.62424 -13171.2517605,-3089586.7545 -13151.3890497,-3089537.01451 -13134.1539331,-3089485.52697 -13121.4237117,-3089433.44667 -13111.277833,-3089380.10973 -13104.6117165,-3089326.58449 -13098.4796983,-3089272.61156 -13091.3657184,-3089218.5522 -13085.1903226,-3089165.07027 -13078.52391,-3089111.54513 -13073.3302525,-3089058.1497 -13069.6525746,-3089004.39302 -13068.9637021,-3088950.40477 -13070.2817469,-3088896.09847 -13075.0363128,-3088842.09474 -13083.1841788,-3088788.88451 -13092.804798,-3088735.80392 -13103.8981716,-3088682.85297 -13114.9914704,-3088629.902 -13127.5143059,-3088577.57161 -13141.0189564,-3088525.32762 -13158.898813,-3088473.96351 -13179.1745536,-3088417.86279 -13207.0183732,-3088371.33369 -13233.4325302,-3088324.18394 -13261.767206,-3088277.69794 -13290.5063548,-3088232.23697 -13320.7183021,-3088186.90558 -13352.7211433,-3088143.71076 -13386.1103698,-3088101.6274 -13420.0769441,-3088058.60528 -13454.8525401,-3088017.63331 -13488.7758542,-3087975.10199 -13520.2876104,-3087931.86359 -13550.4561198,-3087887.02265 -13577.360785,-3087839.91536 -13602.8789723,-3087791.69649 -13627.3720001,-3087743.88209 -13652.3127196,-3087696.60179 -13676.8056463,-3087648.78727 -13702.7713754,-3087601.10231 -13728.246104,-3087553.37408 -13753.720783,-3087505.6458 -13779.6863645,-3087457.96065 -13804.713196,-3087409.69809 -13830.1877253,-3087361.96962 -13855.1280493,-3087314.68884 -13881.0934331,-3087267.00345 -13906.0768604,-3087219.23159 -13931.5511915,-3087171.50288 -13957.4732273,-3087124.30826 -13981.9655505,-3087076.49303 -14007.9306881,-3087028.80733 -14031.9751533,-3086980.45783 -14052.7124681,-3086930.33301 -14073.4497222,-3086880.20815 -14094.1437191,-3086830.57419 -14113.898939,-3086780.36283 -14134.6360106,-3086730.23781 -14154.8820643,-3086680.06955 -14175.5758203,-3086630.4354 -14195.3739876,-3086579.73289 -14216.0676227,-3086530.09863 -14236.80439,-3086479.97337 -14257.050138,-3086429.80486 -14277.2526344,-3086380.12726 -14294.1479274,-3086328.67441 -14310.0612347,-3086277.13515 -14326.017662,-3086225.10488 -14342.378604,-3086174.09968 -14358.2917067,-3086122.5603 -14374.2047411,-3086071.02088 -14390.6086673,-3086019.52461 -14406.5647502,-3085967.49415 -14422.4775792,-3085915.95462 -14438.8813008,-3085864.45823 -14454.7939935,-3085812.91862 -14473.6523851,-3085761.63806 -14492.4243483,-3085711.33938 -14511.1962487,-3085661.04065 -14530.9931903,-3085610.33728 -14549.8081442,-3085559.5475 -14569.0708177,-3085509.29182 -14587.3515035,-3085458.94973 -14606.6572292,-3085408.203 -14626.006068,-3085356.96525 -14644.2433867,-3085307.11399 -14663.5489216,-3085256.36711 -14682.4066036,-3085205.08605 -14701.177872,-3085154.78687 -14720.440042,-3085104.53082 -14738.7633931,-3085053.69741 -14758.1117814,-3085002.45934 -14776.8827968,-3084952.15997 -14796.1447149,-3084901.90374 -14810.5832541,-3084850.23382 -14824.1693003,-3084797.00464 -14838.650867,-3084744.84369 -14852.5982287,-3084693.1305 -14866.5455207,-3084641.41729 -14880.5359094,-3084589.21307 -14894.121592,-3084535.98372 -14908.6028039,-3084483.82261 -14923.0407804,-3084432.15242 -14934.1282444,-3084379.19813 -14935.8440916,-3084325.91467 -14939.6100565,-3084271.82193 -14942.8849753,-3084217.68603 -14945.6688478,-3084163.50696 -14948.9004486,-3084109.86202 -14953.1139068,-3084056.3034 -14955.8975441,-3084002.12433 -14958.6811023,-3083947.94525 -14962.9374844,-3083893.89565 -14958.2700577,-3083840.05116 -14956.0573928,-3083786.42247 -14947.3326094,-3083733.70567 -14934.6800179,-3083680.64367 -14922.4320181,-3083628.6068 -14910.2702594,-3083575.58804 -14905.0682724,-3083522.19152 -14896.9635626,-3083468.04514 -14879.6761721,-3083417.04981 -14868.9870381,-3083364.16065 -14867.7556433,-3083310.61847 -14864.1556385,-3083255.87863 -14857.928131,-3083202.88693 -14851.2958801,-3083148.87017 -14837.5311495,-3083097.19518 -14827.375701,-3083043.85839 -14823.732172,-3082989.60964 -14810.9923162,-3082937.53009 -14796.2885338,-3082885.278 -14781.5846879,-3082833.02596 -14767.3286008,-3082781.30808 -14740.3486842,-3082682.95466 -14725.2399087,-3082629.67773 -14707.4605463,-3082578.63998 -14689.1470239,-3082528.0501 -14670.876585,-3082476.96931 -14652.5629518,-3082426.37954 -14634.8265014,-3082374.85104 -14617.0468561,-3082323.81356 -14598.2420926,-3082273.18082 -14580.4623347,-3082222.14344 -14562.1484231,-3082171.55395 -14544.4116863,-3082120.02572 -14526.0545298,-3082069.92729 -14507.8698498,-3082017.86508 -14490.0035445,-3081967.8099 -14471.198394,-3081917.17755 -14453.9523325,-3081865.69272 -14435.1470708,-3081815.06048 -14417.3668043,-3081764.02359 -14399.5433524,-3081713.47772 -14381.3151409,-3081661.90685 -14363.4484495,-3081611.85205 -14344.7291648,-3081560.23816 -14326.9054893,-3081509.69251 -14308.5907993,-3081459.10378 -14290.8101374,-3081408.06727 -14272.0475018,-3081356.94457 -14254.2667265,-3081305.90817 -14236.4427718,-3081255.36279 -14207.3267357,-3081203.82565 -14188.9685968,-3081153.72822 -14165.252997,-3081102.66557 -14149.2368154,-3081059.70037 -14116.8896728,-3081016.78515 -14084.1377969,-3080972.84497 -14051.7475059,-3080930.42085 -14018.8662461,-3080887.9537 -13986.5621622,-3080844.54782 -13954.1718296,-3080802.12394 -13921.8245991,-3080759.20917 -13888.5385625,-3080715.7173 -13856.639141,-3080673.33675 -13823.3530758,-3080629.84503 -13791.4536253,-3080587.46464 -13758.6584832,-3080544.01619 -13726.3111647,-3080501.10188 -13693.4297687,-3080458.63549 -13661.1686444,-3080414.73944 -13628.2441098,-3080372.76415 -13595.9398437,-3080329.3592 -13563.592452,-3080286.44527 -13530.7540969,-3080243.48831 -13498.4497845,-3080200.08359 -13465.5251845,-3080158.10868 -13433.2208423,-3080114.70412 -13400.3824304,-3080071.74747 -13368.034951,-3080028.834 -13335.2396164,-3079985.38656 -13302.8921072,-3079942.47325 -13259.157121,-3079910.92844 -13226.2755566,-3079868.46312 -13180.9216641,-3079832.8185 -13147.4797528,-3079796.73561 -13102.6336575,-3079766.57772 -13058.235438,-3079736.95396 -13013.389414,-3079706.79621 -12968.5434258,-3079676.63854 -12924.1453128,-3079647.01497 -12878.808456,-3079616.81434 -12833.9194751,-3079587.14781 -12789.0305307,-3079557.48135 -12744.6756608,-3079527.36713 -12699.3389501,-3079497.16677 -12654.9841505,-3079467.05268 -12610.586287,-3079437.4296 -12565.740621,-3079407.27255 -12520.8949909,-3079377.11557 -12475.5153646,-3079347.4065 -12431.160741,-3079317.29276 -12386.3152184,-3079287.13599 -12341.4266357,-3079257.47022 -12296.5811851,-3079227.31359 -12252.2267019,-3079197.20012 -12207.3813222,-3079167.04363 -12162.0019534,-3079137.33505 -12117.1566462,-3079107.1787 -12072.8023041,-3079077.06551 -12027.4230458,-3079047.35713 -11983.0687744,-3079017.24409 -11938.2236101,-3078987.08801 -11893.8694084,-3078956.9751 -11848.5333886,-3078926.77608 -11803.6883315,-3078896.62022 -11758.8433101,-3078866.46442 -11714.4461586,-3078836.84272 -11669.6012086,-3078806.68706 -11624.7562942,-3078776.53148 -11579.9114157,-3078746.37597 -11535.5144063,-3078716.75453 -11489.6446674,-3078687.0039 -11445.2908184,-3078656.89169 -11400.4029961,-3078627.22737 -11356.0831367,-3078608.00171 -11311.8925852,-3078587.30333 -11257.7636045,-3078555.83871 -11208.1730536,-3078534.66649 -11159.0303926,-3078514.02832 -11109.8877895,-3078493.39021 -11060.2543286,-3078472.70905 -11011.1118423,-3078452.07104 -10961.969414,-3078431.43307 -10913.3179576,-3078410.83824 -10864.2187291,-3078389.70946 -10815.0764739,-3078369.07164 -10765.9342767,-3078348.43387 -10715.8964821,-3078326.72816 -10666.7544017,-3078306.0905 -10617.6123793,-3078285.45288 -10568.4273322,-3078265.30623 -10519.3285087,-3078244.1778 -10470.6775685,-3078223.58342 -10421.5357775,-3078202.946 -10372.4371263,-3078181.81773 -10323.2954512,-3078161.18041 -10274.110753,-3078141.03405 -10224.9691942,-3078120.39683 -10175.3798699,-3078099.22568 -10125.7475241,-3078078.54549 -10105.7757853,-3078069.37256 -10023.1589086,-3078029.96798 -9788.75284131,-3077916.39767 -9739.07787039,-3077896.2088 -9688.50731909,-3077874.95202 -9638.96170062,-3077853.29055 -9588.88216701,-3077832.07696 -9539.42281934,-3077809.43381 -9490.4975002,-3077786.3429 -9441.61531225,-3077762.76114 -9394.33508743,-3077737.83599 -9347.6750307,-3077711.4813 -9301.63513702,-3077683.69707 -9256.21540123,-3077654.4833 -9211.90670939,-3077623.88307 -9168.21816348,-3077591.85331 -9125.10668458,-3077558.88492 -9083.1062309,-3077524.53009 -9041.10579945,-3077490.17532 -9000.17331131,-3077454.925 -8959.37005576,-3077418.2021 -8919.05770301,-3077381.52234 -8879.72713844,-3077344.9288 -8840.48272596,-3077307.35357 -8802.88325933,-3077267.94408 -8765.24072674,-3077229.02556 -8728.66610492,-3077189.21148 -8693.15938778,-3077148.50184 -8659.2545206,-3077106.44884 -8626.86536084,-3077064.03423 -8594.11450238,-3077020.10398 -8563.86110686,-3076975.89825 -8534.18470177,-3076930.7539 -8505.08528231,-3076884.67092 -8476.96759784,-3076838.67415 -8448.40206538,-3076792.1435 -8419.75037762,-3076746.59469 -8391.63260443,-3076700.59813 -8362.48997983,-3076655.00641 -8333.30426745,-3076609.90564 -8303.67070988,-3076564.271 -8273.50318755,-3076519.08426 -8243.78346059,-3076474.43153 -8212.63413346,-3076429.15882 -8182.82824386,-3076385.48799 -8151.63581478,-3076340.70632 -8120.89118464,-3076296.45865 -8089.20783616,-3076251.63407 -8057.88617717,-3076208.32525 -8026.60755492,-3076164.52564 -7994.79498405,-3076121.17392 -7962.53457472,-3076077.28834 -7930.76502232,-3076033.4459 -7899.52937799,-3075989.15572 -7867.18281066,-3075946.25212 -7834.83622813,-3075903.34861 -7801.59398628,-3075859.37732 -7769.29042316,-3075815.98309 -7736.90074467,-3075773.57068 -7704.10627856,-3075730.13355 -7671.22570022,-3075687.67824 -7639.36989763,-3075644.81824 -7606.04146852,-3075601.82916 -7573.65171869,-3075559.41713 -7540.81413158,-3075516.47126 -7507.44261576,-3075473.97329 -7475.1819592,-3075430.08889 -7442.79215204,-3075387.67716 -7410.44537458,-3075344.77465 -7378.67553542,-3075300.93352 -7345.92394443,-3075257.00638 -7315.13580186,-3075213.25148 -7283.89981478,-3075168.96276 -7253.19771358,-3075124.22629 -7222.53863017,-3075078.99903 -7192.90429208,-3075033.36706 -7163.84686983,-3074986.79647 -7135.32332017,-3074939.77814 -7106.67062555,-3074894.23247 -7077.65615118,-3074847.17125 -7049.0464356,-3074801.13487 -7019.36889418,-3074755.99421 -6988.21874153,-3074710.72453 -6956.93946188,-3074666.9275 -6923.56761596,-3074624.431 -6889.04190188,-3074583.81196 -6851.93278145,-3074544.4504 -6812.64506127,-3074507.37109 -6734.68159649,-3074443.15899 -6712.49740095,-3074425.38599 -6670.98811386,-3074391.07997 -6629.47884773,-3074356.77403 -6587.4787459,-3074322.42513 -6546.50340802,-3074287.67151 -6505.08026267,-3074252.38408 -6464.19102014,-3074216.6489 -6423.70659273,-3074181.93854 -6381.79264907,-3074146.60831 -6340.28352444,-3074112.3029 -6298.32659475,-3074077.46369 -6256.24060713,-3074044.09711 -6214.64549511,-3074010.77362 -6170.5531246,-3073977.72594 -6127.84728506,-3073945.78911 -6084.15977315,-3073913.7663 -6039.89539338,-3073882.68224 -5995.6310464,-3073851.59826 -5950.29898903,-3073821.40999 -5905.94866373,-3073791.30784 -5860.53063367,-3073762.10141 -5814.13094918,-3073732.80901 -5768.13610778,-3073704.54139 -5721.60744096,-3073676.72166 -5675.03579625,-3073649.39284 -5628.37815408,-3073623.04577 -5580.29104766,-3073596.07887 -5533.54745775,-3073570.71362 -5485.33138844,-3073545.21937 -5436.53848965,-3073520.66384 -5388.72732557,-3073496.19442 -5339.35765445,-3073472.57768 -5290.43586024,-3073449.49486 -5241.47110311,-3073426.90293 -5191.43868995,-3073405.2067 -5141.81113893,-3073384.53521 -5092.67448413,-3073363.9068 -5041.48850898,-3073344.08804 -4991.28426929,-3073324.35536 -4940.54624026,-3073305.07055 -4889.23140855,-3073286.72444 -4838.36446048,-3073268.91222 -4786.92071357,-3073252.0387 -4735.96786627,-3073235.20824 -4683.99040716,-3073218.78262 -4632.41781814,-3073203.38172 -4580.88831277,-3073187.49002 -4528.82503196,-3073172.04618 -4477.82950738,-3073155.70675 -4425.89540767,-3073138.7905 -4374.32316245,-3073123.38979 -4322.92304085,-3073106.02581 -4272.05682567,-3073088.21406 -4221.76752733,-3073069.46371 -4171.56431773,-3073049.73177 -4121.40418263,-3073029.50905 -4071.24410885,-3073009.28638 -4021.12710849,-3072988.57293 -3971.09619246,-3072966.8779 -3920.89329008,-3072947.1462 -3871.18127013,-3072927.45756 -3821.0215018,-3072907.23515 -3769.75112429,-3072888.39921 -3718.88561002,-3072870.58798 -3667.44332273,-3072853.71541 -3615.87207299,-3072838.31534 -3564.30089217,-3072822.9153 -3511.6621295,-3072808.41092 -3443.04159265,-3072790.03318 -3390.93682053,-3072775.08107 -3339.85675502,-3072759.72421 -3287.30431872,-3072744.23835 -3236.13837334,-3072729.86318 -3184.07689019,-3072714.42041 -3132.01547737,-3072698.97767 -3080.35892908,-3072684.5596 -3028.21164123,-3072670.09856 -2976.59824067,-3072655.18975 -2924.45109424,-3072640.72878 -2871.81321173,-3072626.22484 -2819.08938794,-3072612.70255 -2767.43326263,-3072598.28469 -2715.20038887,-3072584.80547 -2662.43377626,-3072571.77408 -2610.07202871,-3072559.76734 -2557.21955112,-3072547.71762 -2504.28113621,-3072536.64953 -2451.34279635,-3072525.58147 -2397.87072506,-3072514.96123 -2344.80351988,-3072505.36562 -2292.14117949,-3072496.79464 -2238.45431136,-3072488.62846 -2184.72451623,-3072480.9531 -2130.90878945,-3072474.25935 -2077.45492328,-3072469.08101 -2023.95813008,-3072464.39348 -1969.92761486,-3072460.15374 -1915.76816495,-3072457.38639 -1861.5657902,-3072455.10984 -1781.71325361,-3072452.06943 -1728.08787777,-3072448.85429 -1674.5485894,-3072444.65758 -1620.19981605,-3072438.41171 -1566.74669393,-3072433.23343 -1512.39808013,-3072426.98758 -1458.98811923,-3072421.31854 -1405.0874484,-3072415.6065 -1351.86740198,-3072413.41599 -1297.53684803,-3072412.61183 -1242.75859282,-3072411.27387 -1189.36676529,-3072411.0465 -1135.12245912,-3072409.26076 -1080.921237,-3072406.98424 -1026.72009489,-3072404.70771 -973.095822448,-3072401.49263 -918.937843415,-3072398.72533 -865.804508942,-3072395.55325 -811.327923634,-3072390.77983 -757.127179766,-3072388.50332 -703.012523252,-3072385.24525 -649.431727712,-3072381.5394 -595.765003376,-3072378.81512 -541.607581478,-3072376.04784 -487.450239539,-3072373.28055 -433.740748749,-3072371.04705 -379.49755925,-3072369.26132 -325.211446483,-3072367.96636 -271.373182968,-3072367.20517 -217.001223138,-3072366.89175 -163.034107835,-3072367.60287 -109.110074706,-3072367.8232 -54.9281001209,-3072370.98815 -1.727741812,-3072374.2391 52.5400839492,-3072378.38555 106.807831259,-3072382.53199 159.689207318,-3072387.78895 214.042807311,-3072392.91688 267.86256013,-3072397.59703 322.12999676,-3072401.74339 375.415827382,-3072405.97574 429.640104658,-3072409.6313 483.287533235,-3072412.34832 537.468650074,-3072415.51308 591.115923412,-3072418.23007 645.253879627,-3072420.90405 699.434761138,-3072424.06877 753.167809346,-3072427.76723 807.391538396,-3072431.42268 860.719682669,-3072436.14563 914.986260288,-3072440.2918 968.400260626,-3072445.99622 1022.75269153,-3072451.12386 1076.70029864,-3072457.27599 1130.15707555,-3072463.4711 1183.2090336,-3072470.69069 1237.19941804,-3072477.3335 1290.29423264,-3072485.0438 1344.37047561,-3072492.66806 1397.50814742,-3072500.86904 1451.17950068,-3072509.51775 1504.40303633,-3072518.70017 1557.54048879,-3072526.90107 1610.93590092,-3072538.04642 1663.26373741,-3072548.29625 1716.57299622,-3072558.46004 1769.47744966,-3072569.64829 1822.295821,-3072579.85501 1876.1386151,-3072590.46642 1928.87083135,-3072599.69158 1982.17973142,-3072609.85519 2035.3595399,-3072618.54654 2133.73807669,-3072635.14503 2337.1519872,-3072637.09882 2527.71197394,-3072627.81628 2689.65411984,-3072613.62414 2863.74477722,-3072580.07087 3016.13122912,-3072541.49689 3159.74466884,-3072498.747 3278.30528944,-3072452.25891 3325.97628716,-3072426.32363 3373.15651248,-3072400.43141 3419.75996113,-3072373.60082 3466.81108444,-3072346.23656 3512.83771669,-3072318.46766 3558.20157803,-3072288.77893 3602.49795762,-3072258.19484 3646.66530022,-3072226.13866 3688.8267338,-3072193.76384 3731.84057858,-3072159.83094 3773.33924387,-3072125.53639 3814.7518897,-3072090.26049 3855.63080062,-3072054.53694 3895.44226495,-3072017.91804 3934.18628885,-3071980.40378 3972.93030393,-3071942.8896 4010.6498835,-3071904.97077 4048.24046879,-3071865.57988 4085.34033747,-3071826.23207 4121.90649594,-3071786.43662 4157.89595272,-3071745.70281 4193.88541311,-3071704.96909 4228.40274083,-3071664.36443 4263.32480086,-3071622.73542 4297.75615744,-3071581.14949 4331.65382023,-3071539.11593 4365.50850255,-3071496.59172 4398.33878648,-3071453.66287 4431.1690852,-3071410.7341 4461.41688559,-3071366.54823 4491.04503353,-3071320.93329 4520.18250024,-3071275.36142 4547.18521317,-3071227.99875 4574.80763005,-3071182.06528 4601.3197051,-3071134.74573 4627.9177879,-3071088.40767 4654.42993465,-3071041.08827 4680.36544311,-3070992.83051 4705.40554721,-3070945.6402 4729.86901831,-3070897.51153 4753.26515615,-3070848.48748 4774.69852031,-3070799.63543 4796.00298935,-3070749.31132 4816.32610187,-3070699.07324 4836.15856353,-3070648.8782 4856.48178266,-3070598.64023 4874.79926256,-3070548.08354 4893.60750232,-3070497.48392 4911.79616428,-3070445.45523 4930.15679198,-3070395.38941 4948.47449932,-3070344.83294 4966.12966137,-3070292.35668 4983.01835273,-3070242.41995 4999.77818016,-3070191.01116 5016.53806833,-3070139.60242 5032.76434365,-3070087.746 5047.02787645,-3070036.06152 5061.73920378,-3069983.84341 5074.89255356,-3069930.77286 5094.22138744,-3069857.87752 5106.39349965,-3069804.89301 5119.09934956,-3069752.35627 5131.31456731,-3069699.86254 5144.46828732,-3069646.79222 5158.24167264,-3069595.15108 5172.46285742,-3069542.97632 5188.15620618,-3069490.67271 5204.46920866,-3069439.79829 5222.25436805,-3069388.79503 5240.03958592,-3069337.79182 5257.33416374,-3069286.83163 5273.07078429,-3069235.01897 5286.80171534,-3069182.88751 5299.95609599,-3069129.81765 5310.16635865,-3069077.00559 5321.35808775,-3069024.10765 5332.50693023,-3068970.71905 5341.73601101,-3068917.99301 5351.90360236,-3068864.69039 5361.08987165,-3068811.47372 5370.27621382,-3068758.25708 5377.37098055,-3068703.74019 5384.14693919,-3068651.22908 5389.32202369,-3068597.37475 5394.49718539,-3068543.52045 5398.20033398,-3068489.79501 5402.39425682,-3068436.02665 5406.58825708,-3068382.2583 5412.21147628,-3068327.87043 5418.41136581,-3068274.42102 5426.08342019,-3068220.84281 5431.7927641,-3068167.4364 5437.41629272,-3068113.04862 5441.12005958,-3068059.32334 5443.30887125,-3068005.23622 5443.0013376,-3067950.87312 5443.76116223,-3067897.40554 5445.37363168,-3067842.38 5447.64864381,-3067789.2743 5450.37148804,-3067735.63499 5453.0514703,-3067681.50499 5456.22222781,-3067627.33207 5458.45461034,-3067573.73574 5461.13482922,-3067519.60578 5461.36164684,-3067465.69052 5462.56993587,-3067411.6894 5463.28760804,-3067357.73122 5464.00535945,-3067303.77305 5465.17095235,-3067249.28126 5465.35523378,-3067194.87534 5466.07322434,-3067140.9172 5465.72403872,-3067086.06353 5463.5409434,-3067032.85368 5461.76276146,-3066978.61951 5458.46964198,-3066924.02343 5454.85762281,-3066871.43306 5451.60759179,-3066817.32766 5446.88555186,-3066763.35105 5442.65428828,-3066709.3315 5439.4044978,-3066655.22609 5434.72562292,-3066601.74016 5430.49459876,-3066547.72059 5426.75435137,-3066493.65809 5422.07571346,-3066440.17213 5416.32991584,-3066385.79061 5410.22226667,-3066332.9241 5403.53815542,-3066279.1191 5396.40634622,-3066225.8477 5381.60934445,-3066118.85708 5373.49637346,-3066065.67147 5366.81265528,-3066011.86639 5360.17193273,-3065958.552 5353.93615429,-3065904.21329 5348.27698457,-3065850.81304 5343.10859095,-3065797.36986 5336.87305235,-3065743.03111 5330.72342024,-3065689.67374 5325.02165221,-3065635.78275 5319.81066206,-3065581.84884 5313.12765636,-3065528.04365 5306.48763977,-3065474.72914 5298.86630364,-3065421.50044 5291.69283507,-3065367.73811 5284.07165438,-3065314.50938 5276.40764393,-3065260.78993 5268.29591948,-3065207.60407 5259.15996801,-3065154.0133 5250.5147939,-3065100.37961 5241.95550644,-3065047.72729 5233.80118701,-3064994.05066 5224.66554661,-3064940.45981 5217.49278365,-3064886.69733 5209.91520233,-3064833.95914 5203.19039518,-3064779.66303 5196.55146839,-3064726.3483 5189.3790199,-3064672.58577 5182.24954879,-3064619.31391 5175.48216252,-3064564.52704 5168.39574569,-3064511.74586 5162.20501374,-3064457.89747 5155.07585513,-3064404.62555 5147.45607314,-3064351.39652 5139.3027733,-3064297.71966 5131.64025307,-3064243.9999 5123.03930174,-3064190.8566 5114.92912859,-3064137.67039 5106.69035874,-3064083.01205 5099.11393397,-3064030.27362 5091.0039935,-3063977.08735 5083.34194282,-3063923.36748 5075.23215727,-3063870.18118 5068.10385292,-3063816.90909 5061.42344129,-3063763.10339 5054.78599503,-3063709.78838 5049.04426021,-3063655.40618 5044.36978079,-3063601.91961 5038.58532259,-3063547.04668 5033.50606601,-3063494.58438 5029.27964235,-3063440.56419 5025.99182229,-3063385.96753 5022.2991434,-3063332.39516 5019.54506846,-3063278.24631 5017.32465644,-3063224.54528 5015.01856545,-3063169.86285 5012.79831282,-3063116.16182 5011.47379015,-3063061.39363 5010.76868287,-3063008.05468 5011.98358938,-3062954.05352 5011.68359072,-3062899.69029 5013.92293707,-3062846.0941 5017.59159626,-3062791.8786 5022.32748663,-3062738.55877 5028.49268912,-3062684.61965 5035.63937419,-3062630.5948 5044.38685695,-3062577.91348 5053.4965033,-3062523.7172 5064.29268058,-3062471.84587 5075.45102168,-3062418.45959 5086.69517106,-3062366.05476 5099.36862821,-3062313.03065 5111.55145327,-3062260.04946 5124.26791601,-3062207.51614 5136.9415818,-3062154.49217 5150.63958457,-3062101.8732 5163.39911648,-3062049.83071 5177.05439106,-3061996.72114 5191.81972364,-3061944.99798 5206.54225861,-3061892.78417 5222.82268248,-3061841.42323 5240.61812886,-3061790.42445 5257.92293412,-3061739.46859 5277.23345664,-3061688.83205 5298.10185019,-3061639.04838 5319.99455152,-3061589.66977 5342.95441386,-3061541.18689 5366.36216402,-3061492.17053 5390.79421259,-3061443.55922 5414.24490894,-3061395.03369 5437.73850453,-3061346.99892 5461.67998744,-3061298.43067 5485.62151467,-3061249.86248 5509.56308622,-3061201.29436 5533.0140057,-3061152.76916 5557.44636234,-3061104.15832 5580.40667531,-3061055.6761 5604.79627063,-3061006.5747 5629.76230422,-3060958.41191 5654.72837958,-3060910.24919 5682.1908169,-3060862.36299 5710.31537374,-3060816.3968 5740.97912338,-3060771.19784 5771.81428143,-3060727.96173 5805.80784338,-3060686.92208 5842.38341081,-3060647.14037 5880.06889598,-3060608.74512 5920.37920896,-3060572.0985 5961.26588601,-3060536.3905 6002.72892257,-3060501.62112 6045.2590038,-3060467.74751 6086.72199964,-3060432.97828 6129.29487739,-3060399.59551 6171.86773076,-3060366.21282 6214.93124719,-3060332.78736 6257.09904437,-3060300.42904 6300.20534954,-3060267.49442 6343.35446737,-3060235.05057 6387.07992035,-3060203.54532 6431.87238865,-3060172.93584 6476.70766045,-3060142.81711 6522.69561346,-3060114.57552 6569.21704541,-3060086.78184 6616.4004633,-3060060.90812 6664.07451556,-3060034.99163 6712.32487222,-3060010.01372 6760.04166203,-3059984.58804 6808.29191758,-3059959.61026 6855.96577334,-3059933.69403 6901.99620782,-3059905.94365 6949.17929259,-3059880.07037 6995.25247485,-3059852.8108 7041.64495757,-3059823.54576 7087.71805598,-3059796.28632 7133.66261418,-3059767.55492 7179.15928996,-3059739.3571 7225.10376829,-3059710.62585 7271.00537518,-3059681.40398 7315.92559733,-3059652.26786 7362.31779911,-3059623.0033 7407.77144756,-3059594.31516 7453.67289832,-3059565.09358 7499.16929831,-3059536.89624 7545.64699808,-3059508.61331 7591.5911581,-3059479.88261 7638.64509962,-3059452.53833 7684.71766062,-3059425.27978 7731.238019,-3059397.48779 7778.42030943,-3059371.61571 7826.05039198,-3059345.21021 7873.2754143,-3059319.82892 7920.4575628,-3059293.95704 7968.7922949,-3059269.96222 8017.04132392,-3059244.98614 8065.33312684,-3059220.50078 8114.15836472,-3059196.46332 8161.46874018,-3059172.06374 8209.76038809,-3059147.57856 8258.54264441,-3059123.05063 8307.36767091,-3059099.01341 8355.65916187,-3059074.52842 8403.45994283,-3059050.08632 8451.79415312,-3059026.09211 8501.15244673,-3059002.50297 8549.57219364,-3058979.4902 8599.01601928,-3058956.88249 8648.01195387,-3058934.80832 8697.5841277,-3058913.67269 8747.24188336,-3058893.51843 8797.96652505,-3058874.25988 8849.26739478,-3058855.93986 8900.12036618,-3058838.15337 8951.10173013,-3058821.83887 9002.53085823,-3058804.99094 9054.6646624,-3058790.55349 9106.66993906,-3058774.64413 9158.31295277,-3058760.24957 9210.40372555,-3058745.32158 9261.96096252,-3058729.9458 9314.05159407,-3058715.01788 9366.54716469,-3058699.0659 9418.59483646,-3058683.64742 9469.57551549,-3058667.33333 9520.42767694,-3058649.54734 9572.92296702,-3058633.59553 9623.24153616,-3058615.36181 9674.58414015,-3058597.53314 9725.92667726,-3058579.70452 9776.24505228,-3058561.47094 9827.01118745,-3058542.70395 9878.35352674,-3058524.87547 9928.6717088,-3058506.64203 9979.48046431,-3058488.36582 10030.3319691,-3058470.58029 10082.1218658,-3058452.21855 10133.058866,-3058435.41438 10183.9529861,-3058418.11963 10234.9326669,-3058401.80618 10287.3841795,-3058385.36434 10338.8971693,-3058369.4988 10389.9194587,-3058353.67611 10442.499198,-3058338.70628 10493.6069743,-3058323.86493 10545.6103172,-3058307.95674 10597.1657729,-3058292.58202 10649.6596039,-3058276.6311 10700.5958585,-3058259.82739 10752.1511064,-3058244.4528 10803.982857,-3058226.5823 10854.8760992,-3058209.2881 10905.726465,-3058191.50332 10957.5152031,-3058173.14234 11007.8320036,-3058154.90983 11058.5537441,-3058135.65332 11110.4279013,-3058118.27372 11160.872935,-3058101.51322 11212.2991445,-3058084.66715 11264.3443315,-3058069.25017 11316.4750644,-3058054.81446 11368.2007235,-3058041.40284 11421.5693964,-3058029.8253 11474.5329912,-3058019.27183 11527.091509,-3058009.74243 11580.6739903,-3058000.61805 11634.342008,-3057992.47492 11714.3746767,-3057980.54837 12023.5158948,-3057925.89179 12077.0120379,-3057915.78639 12130.5509093,-3057906.17163 12184.0897026,-3057896.55689 12237.1806169,-3057887.47558 12289.8664597,-3057879.41832 12343.0428318,-3057871.31826 12397.2003354,-3057863.13262 12450.8671549,-3057854.98979 12504.1289028,-3057847.871 12557.75276,-3057839.23762 12610.3953352,-3057830.68986 12663.9762317,-3057821.56591 12717.5570498,-3057812.44198 12771.2662031,-3057804.78988 12824.122493,-3057798.6952 12878.088315,-3057793.98671 12931.6918722,-3057790.79283 12985.9143593,-3057789.02794 13040.2223738,-3057788.24425 13094.039712,-3057787.50335 13148.8809634,-3057787.16744 13202.1647428,-3057785.97874 13256.4724339,-3057785.19503 13310.7800438,-3057784.41132 13364.0635856,-3057783.22262 13418.8616252,-3057782.3961 13472.7212062,-3057782.14577 13527.0712966,-3057781.85264 13581.0591292,-3057783.07407 13635.0040779,-3057783.8049 13689.2485749,-3057787.96984 13743.0024059,-3057792.17756 13796.0318125,-3057799.41438 13850.170727,-3057808.03733 13903.4996139,-3057818.70819 13956.0184792,-3057831.42696 14007.6845243,-3057845.70305 14059.969501,-3057861.40803 14110.953889,-3057879.2037 14161.981023,-3057897.4899 14211.5791638,-3057916.39504 14261.7534413,-3057936.23848 14312.5038547,-3057957.02021 14362.6780223,-3057976.86353 14413.3427123,-3057996.66398 14463.111807,-3058017.53114 14512.9236566,-3058038.88882 14562.3733017,-3058061.76096 14609.9890238,-3058086.276 14655.9420664,-3058114.39622 14700.6374007,-3058145.09766 14743.4560388,-3058176.9514 14784.654847,-3058212.90088 14825.363078,-3058248.89309 14864.7280231,-3058286.48536 14904.0501589,-3058323.58698 14942.9673486,-3058361.71247 14982.2038634,-3058397.83279 15021.4831894,-3058434.44359 15063.0869173,-3058469.36855 15105.1383907,-3058503.76005 15146.7421001,-3058538.68485 15188.7507387,-3058572.58562 15230.3116144,-3058607.01969 15271.4675456,-3058642.47763 15311.2374074,-3058679.04506 15349.0878271,-3058716.27424 15387.5144479,-3058754.44165 15424.0644553,-3058793.76138 15459.8474372,-3058835.61948 15494.5636766,-3058876.58201 15529.3227532,-3058918.03503 15563.2291851,-3058961.04528 15596.4738008,-3059002.13604 15631.3614008,-3059045.0605 15665.0966194,-3059086.10829 15700.3891797,-3059128.00865 15736.0866738,-3059168.88499 15773.127391,-3059208.16111 15811.1064106,-3059246.86094 15849.9380804,-3059284.00337 15890.1985979,-3059320.5267 15931.7594825,-3059354.95924 15973.7252628,-3059388.36777 16017.0770442,-3059420.66663 16061.3242644,-3059451.89865 16105.5714628,-3059483.13059 16149.2852593,-3059513.91473 16192.7226179,-3059547.19438 16234.7311324,-3059581.09299 16277.6779098,-3059614.41531 16321.4772881,-3059646.18024 16367.8344868,-3059673.27316 16416.2161059,-3059695.24637 16466.9219333,-3059715.53373 16517.5420455,-3059734.83993 16569.633743,-3059754.01758 16622.1302658,-3059772.17124 16674.1555909,-3059784.92885 16749.6607594,-3059789.21063 16803.8582282,-3059792.88137 16857.6079043,-3059797.08547 16911.271841,-3059800.30846 16964.9785297,-3059804.02198 17019.5377307,-3059806.17821 17073.5634792,-3059807.8867 17127.8227039,-3059806.60912 17181.2058339,-3059800.95952 17234.8652716,-3059792.8144 17287.7342813,-3059781.27837 17340.5603853,-3059769.25183 17392.8958777,-3059757.26815 17446.1695374,-3059744.70831 17498.4620512,-3059732.23416 17551.2450254,-3059719.7172 17603.4089041,-3059705.77151 17655.5298815,-3059691.33532 17706.4555801,-3059674.53217 17757.16707,-3059655.2764 17806.7689503,-3059634.63475 17856.7756451,-3059612.96926 17905.0537279,-3059588.48913 17952.7555758,-3059563.07084 18000.9479021,-3059537.60978 18046.9639371,-3059509.86745 18092.3181,-3059480.20591 18136.562697,-3059449.15852 18178.9930853,-3059414.31547 18219.9947014,-3059380.0915 18259.2677812,-3059343.05293 18296.3218148,-3059303.24258 18331.9042783,-3059263.56079 18366.2915877,-3059221.51211 18399.5693978,-3059178.07758 18431.3328366,-3059134.28108 18463.1391157,-3059090.97517 18493.7502717,-3059045.30238 18525.5565921,-3059001.99663 18555.7629139,-3058957.34785 18585.9692605,-3058912.69915 18615.642295,-3058867.60283 18645.8486923,-3058822.95428 18675.0312605,-3058777.90092 18704.618744,-3058731.82379 18733.8013684,-3058686.77058 18763.5173525,-3058642.16515 18794.6621006,-3058596.94084 18825.8924993,-3058552.69765 18857.6990612,-3058509.39275 18888.9723141,-3058465.64022 18919.1361228,-3058420.50185 18948.7238212,-3058374.42533 18975.2828396,-3058327.62473 19001.3941892,-3058281.35751 19025.8199887,-3058232.76622 19049.7125107,-3058183.7273 19073.1573726,-3058135.22176 19096.6022802,-3058086.71629 19120.5377465,-3058038.16808 19145.0065758,-3057990.06764 19168.9421311,-3057941.51956 19192.9205354,-3057893.46207 19217.346692,-3057844.87132 19240.79187,-3057796.36625 19264.7276048,-3057747.81845 19288.1300726,-3057698.823 19312.023098,-3057649.78482 19336.0017696,-3057601.72772 19360.513794,-3057554.11841 19385.5163698,-3057506.46636 19412.0333125,-3057459.1765 19438.5502929,-3057411.88671 19466.5816334,-3057364.95911 19493.1842797,-3057318.65048 19519.744166,-3057271.85142 19546.1757046,-3057223.5809 19593.518183,-3057137.40654 22748.1624825,-3064645.42556 23867.8545678,-3067450.43758 24776.072543,-3069723.29935 24855.6696792,-3069943.65662 26721.5775782,-3075048.10872 32734.942937,-3090207.16807" style="stroke-linejoin:round;stroke:#000;stroke-width:1px;fill:none" /></g></g></svg>