<svg xmlns="http://www.w3.org/2000/svg" baseProfile="full" height="109627.926876" version="1.1" viewBox="-48717.757348,4573167.399097,136129.428387,109627.926876" width="136129.428387"><defs><style type="text/css">polyline,line,rect,path,polygon,.polygon{fill:none;stroke:#000;stroke-width:1px;stroke-linejoin:round;}</style></defs><g fill_rule="evenodd" transform="scale(1,-1)"><g class="hogares departamen mujeres departam_1 toponimo_i tot_pob varones viv_part viv_part_h" id="58035"><polygon class="_58035" id="None" points="7824.56483521,-4578209.51827 7832.11418653,-4578200.26677 7876.95975198,-4578143.24346 7913.10521296,-4578092.43498 7938.71102833,-4578058.27854 7954.4879628,-4578034.2991 7980.84848947,-4578007.66518 8007.59450677,-4577984.54286 8025.68921196,-4577966.13739 8055.88178192,-4577944.62689 8075.4257022,-4577927.76821 8111.57776446,-4577907.45153 8142.60638221,-4577890.96689 8176.6415582,-4577866.58234 8198.26414353,-4577847.29201 8220.04936202,-4577823.00833 8227.45144922,-4577795.257 8237.03548721,-4577769.57619 8251.56408246,-4577745.55601 8275.99233726,-4577716.85961 8292.83779983,-4577675.41961 8304.84199507,-4577636.82112 8316.92749545,-4577595.72595 8325.50617623,-4577539.52061 8347.24164924,-4577493.74104 8377.32519424,-4577460.23011 8407.94538676,-4577410.24108 8441.68116002,-4577364.35242 8461.1753384,-4577325.99779 8474.44407442,-4577286.94054 8485.11378112,-4577266.29366 8504.58116741,-4577236.43585 8525.46622868,-4577232.11734 8552.16922064,-4577217.99098 8561.7044155,-4577193.80809 8573.88838908,-4577172.71064 8594.49603375,-4577153.88698 8621.09571684,-4577135.25845 8652.28699949,-4577113.78024 8705.74656144,-4577068.53376 8745.58344055,-4577034.84042 8812.27070033,-4577005.52051 8859.31071546,-4576988.5573 8907.68614696,-4576976.63625 8944.17030514,-4576976.82463 8976.79561215,-4576980.38641 8995.0759733,-4576986.98012 9019.09872014,-4576993.76083 9047.12092895,-4576985.17591 9076.22787813,-4576958.63107 9108.80242518,-4576917.70299 9130.7502787,-4576888.42566 9142.5104795,-4576857.31696 9149.89621531,-4576830.06474 9149.92771789,-4576806.07212 9152.34208475,-4576785.65616 9160.96565736,-4576766.44213 9174.0717475,-4576732.37803 9183.91010692,-4576691.20937 9198.43185777,-4576636.69677 9211.70052648,-4576597.63926 9246.85090542,-4576508.30772 9271.46057579,-4576412.63449 9288.97502505,-4576289.23743 9300.01534254,-4576188.12361 9310.94290748,-4576113.49913 9324.23707008,-4576042.95064 9343.78920538,-4575972.10603 9381.29082276,-4575910.34357 9432.20491852,-4575866.5132 9500.34044814,-4575815.74546 9559.79327955,-4575793.68742 9619.46909219,-4575780.13441 9674.44531635,-4575780.42474 9727.42884627,-4575765.15422 9760.49217971,-4575732.23954 9793.34416695,-4575705.81628 9830.87486858,-4575681.54482 9865.94719423,-4575663.69163 9907.94527575,-4575648.0634 9938.89863436,-4575641.57311 9969.74864565,-4575630.58062 10020.4515483,-4575593.24146 10073.2168593,-4575553.96994 10115.1476015,-4575494.35079 10150.4580226,-4575461.50914 10185.6546482,-4575432.16287 10209.8936352,-4575416.95612 10242.914073,-4575393.03757 10286.8329521,-4575364.4751 10344.1203007,-4575339.84696 10416.9952828,-4575304.72908 10458.8251107,-4575286.59588 10500.66077,-4575275.96094 10538.1869935,-4575267.1852 10566.7517323,-4575249.61986 10577.5735172,-4575231.97675 10584.2971888,-4575209.70137 10591.0046015,-4575187.92532 10599.8290072,-4575170.21718 10617.4732111,-4575150.2968 10617.470763,-4575104.3084 10617.4799611,-4575073.31656 10628.3017331,-4575055.67343 10647.969986,-4575027.32108 10674.3327138,-4574939.20186 10696.4730706,-4574857.94338 10705.2298976,-4574796.24414 10716.2070863,-4574743.11501 10722.8423009,-4574692.84377 10727.217459,-4574604.50856 10740.288191,-4574525.45412 10755.8673252,-4574461.47753 10784.4456577,-4574397.42418 10817.5447248,-4574325.02011 10868.0973888,-4574223.19166 10907.8386926,-4574131.00873 10951.9824272,-4574049.4664 11053.2718546,-4573932.29342 11121.7579829,-4573840.04613 11176.5798889,-4573791.34305 11234.0403296,-4573753.72309 11275.8540303,-4573736.08875 11357.3644212,-4573696.75213 11443.2950118,-4573690.55117 11513.8655275,-4573687.8493 11571.1442341,-4573694.21247 11652.5763244,-4573703.36129 11681.3213409,-4573703.29712 11743.008487,-4573727.79938 11784.9330017,-4573745.16002 11842.0402789,-4573787.50883 11901.6339258,-4573837.93665 11932.3791181,-4573883.92637 11976.9642956,-4573919.36928 12005.1788653,-4573943.28203 12042.7230442,-4573957.00103 12124.183317,-4573980.64744 12183.7151432,-4573994.58228 12216.759343,-4574000.65666 12249.710548,-4573994.23105 12273.7813765,-4573976.51905 12293.8840498,-4573950.17994 12318.2695722,-4573930.47865 12342.1720007,-4573910.26176 12379.6602744,-4573894.98598 12417.2682021,-4573883.71313 12456.8572863,-4573873.00464 12542.7618179,-4573875.30093 12615.4290793,-4573892.66263 12692.6939174,-4573914.67293 12743.4606637,-4573936.82049 12783.0024077,-4573950.6046 12807.0466776,-4573941.38965 12824.648145,-4573930.46533 12848.9687405,-4573912.7614 12873.0663055,-4573886.55223 12884.1423536,-4573853.42075 12886.5018643,-4573827.00388 12890.8750314,-4573800.15266 12906.0492717,-4573771.65349 12932.648097,-4573730.0294 12961.0759178,-4573685.96541 12961.149939,-4573652.97568 12957.0223437,-4573610.85132 12954.6307097,-4573553.78704 12956.9251638,-4573529.36755 12976.6409015,-4573476.52198 13005.4867604,-4573434.97094 13040.7533004,-4573388.13017 13115.4731701,-4573327.07714 13188.2458274,-4573287.4556 13250.0327443,-4573247.47648 13315.8145075,-4573207.62735 13366.7367744,-4573194.28822 13419.4555524,-4573179.50791 13474.7804174,-4573176.8096 13536.5156429,-4573176.81934 13575.7858437,-4573183.59617 13611.0996146,-4573196.74272 13628.9152634,-4573225.31602 13655.2583255,-4573260.66537 13697.1581522,-4573309.51802 13732.4097135,-4573370.6514 13765.3166396,-4573434.7078 13769.8402206,-4573472.3463 13772.0087978,-4573520.9056 13767.5778484,-4573580.24752 13758.8906256,-4573624.45439 13759.2080256,-4573668.45446 13765.4260077,-4573723.14416 13771.7785324,-4573758.34278 13783.2708821,-4573789.20975 13800.6904616,-4573822.2692 13829.4267839,-4573853.19761 13877.6925542,-4573890.76035 13919.5200231,-4573911.11748 13972.3820701,-4573930.33417 14003.4779697,-4573934.84558 14031.8228731,-4573954.76386 14056.2334046,-4573988.05095 14089.1537804,-4574005.61876 14139.838341,-4574007.26866 14168.6917239,-4573996.21068 14201.6433371,-4573989.78506 14243.3882967,-4573989.64431 14276.7697029,-4574000.72865 14327.2059309,-4574025.36519 14408.5814242,-4574067.00524 14459.3648876,-4574088.65382 14510.2621518,-4574106.80692 14562.7842314,-4574159.50504 14604.9115156,-4574201.3672 14631.1510838,-4574232.21456 14655.2781822,-4574243.4976 14684.0620575,-4574249.93339 14719.2992312,-4574250.08075 14818.3507567,-4574247.80658 14887.1587005,-4574245.54762 14977.4169663,-4574236.98856 15032.7085611,-4574212.29455 15177.9113369,-4574182.02945 15290.2645264,-4574139.69739 15369.757632,-4574093.29621 15470.9078766,-4574049.59957 15534.8304696,-4574036.18396 15600.7726198,-4574029.83254 15655.8751847,-4574018.62925 15728.6354432,-4574025.4969 15788.1626835,-4574031.93378 15838.7885714,-4574043.07978 15865.4672547,-4574060.44465 15907.0350497,-4574088.79193 15929.1602931,-4574115.5065 15935.9470625,-4574152.71929 15949.2359429,-4574182.14553 15966.7147884,-4574205.70951 15986.3048743,-4574225.84299 16015.0889741,-4574232.27887 16076.7600527,-4574234.28663 16116.3454606,-4574239.0746 16451.3045354,-4574276.47386 16504.193976,-4574287.19381 16532.8155814,-4574298.62336 16545.9952856,-4574316.04877 16559.2783495,-4574337.97657 16576.9360549,-4574356.04767 16601.1992779,-4574370.83458 16629.7558585,-4574384.26161 16682.6674092,-4574401.98082 16755.2550345,-4574421.84034 16803.9266727,-4574423.92488 16856.5769728,-4574426.63885 16894.1976123,-4574430.36316 16940.3875676,-4574408.87195 16988.5691813,-4574379.94717 17028.2836895,-4574357.74521 17059.1617884,-4574338.25491 17083.36351,-4574316.54767 17116.7279907,-4574305.1366 17167.0011939,-4574311.77231 17211.35869,-4574331.21266 17272.905946,-4574344.71406 17319.184274,-4574351.21973 17394.192353,-4574358.1609 17451.2500315,-4574356.01944 17499.8405844,-4574360.60083 17563.9393455,-4574380.1841 17625.3833647,-4574389.18315 17660.6803919,-4574379.83458 17704.927691,-4574364.27878 17740.1318346,-4574342.42979 17784.0145055,-4574307.36617 17806.1201702,-4574265.59478 17830.2349116,-4574238.88565 17867.7942211,-4574206.11559 17905.4081203,-4574179.34605 17964.7224095,-4574146.28446 17982.4592001,-4574115.86836 18002.209714,-4574085.01793 18017.6772756,-4574047.52939 18046.3606078,-4573987.97577 18081.6820198,-4573924.13917 18129.7489339,-4573875.71438 18163.1449283,-4573840.30916 18215.9512362,-4573807.53542 18275.4119137,-4573769.97934 18334.8413158,-4573756.41728 18398.9601415,-4573737.00912 18451.6272514,-4573739.22362 18515.7043947,-4573751.80755 18554.997774,-4573765.58423 18597.0318665,-4573771.95167 18640.7208282,-4573765.87554 18645.7307761,-4573765.53874 18707.1798729,-4573759.04101 18755.9217657,-4573743.6313 18825.9193949,-4573727.91378 18874.580036,-4573715.00091 18958.0165454,-4573685.72372 19017.8084716,-4573645.67874 19088.3368798,-4573605.98327 19133.6216313,-4573596.95964 19193.2626945,-4573576.90569 19254.7595513,-4573545.91434 19403.1470414,-4573517.75172 19509.9788305,-4573499.23403 19614.8027715,-4573488.64938 19712.3371079,-4573479.32712 19810.1049317,-4573470.51236 19895.0470842,-4573471.778 19947.5787968,-4573470.48879 19981.9054848,-4573475.60554 20023.5439461,-4573486.45926 20057.74641,-4573503.06974 20092.3565263,-4573530.19145 20137.7194334,-4573557.16335 20204.2360747,-4573602.32056 20249.6419523,-4573620.29564 20287.6977369,-4573626.03375 20332.7830978,-4573638.49948 20385.3370112,-4573644.20971 20426.855928,-4573651.0604 20461.2430975,-4573669.67659 20479.4005973,-4573687.76438 20486.5230806,-4573706.99262 20502.8026983,-4573729.01852 20522.914724,-4573756.16823 20542.8641588,-4573788.3117 20564.2954536,-4573821.00333 20580.4833085,-4573853.52424 20596.7571096,-4573868.05141 20629.2547915,-4573875.60826 20667.3698759,-4573871.8502 20716.1506965,-4573862.94046 20765.1974786,-4573853.53947 20830.0454391,-4573850.1519 20893.2164469,-4573852.20868 20960.2419502,-4573866.3887 21016.2486859,-4573881.20978 21057.9744391,-4573897.0656 21094.3104138,-4573917.2451 21126.8360316,-4573939.30016 21162.9118574,-4573967.4697 21182.8287801,-4574000.61207 21200.7214604,-4574042.18695 21207.9855707,-4574072.41782 21213.6760309,-4574112.59558 21210.1442782,-4574151.97314 21200.8801669,-4574183.16556 21191.8982601,-4574213.36734 21190.0702219,-4574238.80301 21195.6189996,-4574267.97822 21208.1973384,-4574303.88111 21229.7051746,-4574349.57297 21266.1187568,-4574405.74833 21318.6004898,-4574490.44169 21347.4583387,-4574548.37069 21361.94129,-4574571.83799 21374.6601588,-4574595.74775 21410.9110523,-4574656.91697 21445.3050215,-4574706.02799 21487.0920582,-4574758.37923 21523.2070514,-4574816.04475 21559.4196039,-4574870.71404 21586.4587189,-4574923.08497 21608.3796881,-4574986.78709 21629.6979364,-4575045.97044 21637.0068176,-4575113.19596 21647.963417,-4575183.53972 21655.2014552,-4575245.26397 21673.2305957,-4575313.33855 21696.8284509,-4575371.59638 21720.3497827,-4575416.85415 21763.8251008,-4575478.75884 21792.7419682,-4575527.19182 21848.7065222,-4575574.00622 21910.2780839,-4575617.50393 21951.8086175,-4575639.35281 22015.1882264,-4575696.40697 22082.6555936,-4575766.09202 22115.193318,-4575826.14094 22130.3121579,-4575876.12427 22152.6996236,-4575940.84169 22160.1374406,-4575981.07659 22157.7617379,-4576030.98998 22147.7920623,-4576076.15684 22137.7516206,-4576115.82241 22122.8637941,-4576150.8309 22112.7200512,-4576185.99392 22102.7276016,-4576201.16555 22102.6633216,-4576226.15884 22097.6922798,-4576255.99136 22087.7868436,-4576276.1649 22082.6417601,-4576295.9936 22075.320225,-4576321.25038 22075.3372645,-4576343.74677 22077.7974748,-4576383.3196 22085.5605335,-4576413.56693 22100.1571137,-4576433.53881 22125.1698767,-4576448.35103 22150.2477121,-4576461.16575 22170.342367,-4576465.81961 22190.3337447,-4576465.97094 22205.2443348,-4576460.95768 22220.2305914,-4576445.94873 22252.63568,-4576441.00546 22275.1296314,-4576448.73694 22325.1552017,-4576478.36142 22359.9221329,-4576492.99152 22369.9373064,-4576507.81512 22375.0294369,-4576527.97733 22397.3947191,-4576585.69546 22420.1016177,-4576632.92665 22477.5768526,-4576740.77963 22527.4623452,-4576805.39328 22612.5985439,-4576908.14864 22752.2433829,-4577025.67762 22849.7225608,-4577117.83736 22922.2540224,-4577193.18728 22937.2034992,-4577217.67001 22947.154172,-4577257.48708 22952.2518453,-4577285.14819 22969.7632896,-4577307.71477 22997.1972406,-4577332.60429 23022.1987641,-4577332.41907 23047.1026664,-4577335.23012 23067.2192788,-4577346.88358 23082.2281976,-4577361.86999 23122.3149871,-4577389.67135 23152.0775099,-4577412.13722 23197.0004196,-4577429.59805 23239.4208149,-4577439.4787 23279.5664939,-4577434.78784 23326.8987646,-4577424.33221 23407.0268683,-4577396.94836 23461.9907072,-4577374.7435 23526.649305,-4577361.85292 23601.6215755,-4577362.29607 23641.7948578,-4577372.10353 23751.7895737,-4577394.68413 23851.7910931,-4577409.44048 23936.5289632,-4577424.69934 23977.4839318,-4577433.53248 24006.5350876,-4577439.4782 24071.5142937,-4577432.09712 24141.335293,-4577421.87432 24206.320167,-4577421.99211 24271.2349346,-4577439.6046 24331.0689162,-4577452.05241 24401.1402801,-4577464.83382 24456.2189345,-4577462.12929 24496.2072346,-4577446.93511 24536.2606321,-4577429.74339 24563.5359735,-4577398.13771 24586.0071203,-4577352.87778 24600.8954822,-4577317.86897 24620.9516344,-4577293.02683 24655.9298514,-4577278.16928 24675.910267,-4577263.32295 24698.4796178,-4577238.06277 24731.0366632,-4577213.128 24775.8449132,-4577188.0925 24806.0032655,-4577183.07617 24893.1397522,-4577155.4205 24953.2775192,-4577150.88106 25055.684101,-4577153.21795 25153.1025027,-4577162.89105 25183.261507,-4577180.87088 25202.9665262,-4577220.50641 25235.4760143,-4577243.06209 25257.9815074,-4577265.79173 25292.9985882,-4577280.43047 25327.9124294,-4577290.5666 25367.8958908,-4577290.8696 25385.4013525,-4577282.94141 25417.8940273,-4577283.00033 25462.9690108,-4577280.46973 25495.4448657,-4577258.03182 25547.9826136,-4577218.25059 25607.6262689,-4577198.19765 25667.6066128,-4577183.15484 25707.6877899,-4577180.4615 25777.7485126,-4577178.2451 25832.5723182,-4577168.03344 25882.7871755,-4577138.17479 25927.5087746,-4577108.13713 25962.400294,-4577088.27745 26032.3735754,-4577058.06272 26102.3362297,-4577035.84632 26159.8198052,-4577020.72209 26239.7978026,-4577013.32966 26324.7046451,-4577008.09751 26359.7701978,-4576998.24184 26394.6674223,-4576985.88108 26429.5809258,-4576973.02093 26469.5702735,-4576980.82288 26529.6715951,-4577015.77593 26649.450627,-4577075.66991 26691.9700689,-4577105.55085 26719.4045545,-4577130.44099 26749.591839,-4577185.916 26786.8788833,-4577230.62412 26826.8093309,-4577270.91911 26846.8399087,-4577300.56724 26857.0128515,-4577325.89479 26866.865405,-4577345.71276 26871.7947377,-4577370.86945 26876.9900354,-4577395.53488 26886.9132687,-4577420.85429 26901.9666907,-4577472.83671 26899.3684874,-4577560.23824 26881.9238166,-4577627.65902 26869.3804936,-4577682.74149 26861.9231261,-4577727.49135 26856.8538956,-4577760.32093 26851.8767276,-4577782.65517 26861.8105964,-4577799.97621 26881.8192242,-4577822.62479 26892.0083606,-4577847.45297 26896.856244,-4577875.10661 26906.7794027,-4577900.42605 26921.962434,-4577925.41698 26941.9115189,-4577957.56214 26964.4282213,-4577995.29011 26981.7938233,-4578045.34825 27026.2622796,-4578099.78914 27086.2340839,-4578184.73061 27121.1168185,-4578264.85507 27146.0005924,-4578329.65603 27156.2007617,-4578369.48227 27168.6208063,-4578394.88315 27181.0571238,-4578419.78463 27201.0005809,-4578444.43088 27221.1068021,-4578464.08322 27251.113918,-4578479.05905 27288.536067,-4578504.275 27336.2009339,-4578514.32723 27376.2010848,-4578514.1312 27411.1910514,-4578514.2718 27435.9434942,-4578514.07872 27460.7721322,-4578526.88611 27500.9627848,-4578559.19126 27540.8112793,-4578578.9872 27585.9033962,-4578598.95407 27635.9025201,-4578614.08167 27690.7217344,-4578619.36792 27735.7158883,-4578619.3347 27755.8813835,-4578606.49406 27780.8506836,-4578584.31145 27793.0854707,-4578561.71376 27817.9896636,-4578541.52871 27845.5483954,-4578531.92857 27890.5425936,-4578531.89534 27935.5368034,-4578531.86211 27970.5486969,-4578539.00238 28005.7070926,-4578541.64811 28040.6971852,-4578541.78873 28075.605898,-4578544.42633 28125.7083629,-4578564.05666 28175.382088,-4578589.17219 28210.307423,-4578614.30695 28247.9198461,-4578649.02786 28265.2797822,-4578691.58737 28280.2296545,-4578739.06758 28300.4121023,-4578771.72062 28325.3550672,-4578804.02891 28355.2050563,-4578831.49792 28392.8122145,-4578881.71641 28470.2679943,-4578951.73109 28512.6246322,-4578986.60678 28527.6447999,-4579016.59198 28547.6533975,-4579039.24092 28605.0026416,-4579066.60657 28634.0326561,-4579065.55318 28660.3540711,-4579070.91054 28694.9861325,-4579082.03798 28734.5578045,-4579087.32735 28777.3429952,-4579093.72132 28823.385038,-4579092.22265 28886.0862185,-4579085.76785 28964.9363866,-4579082.33911 29002.7003825,-4579074.07155 29048.7207003,-4579065.5732 29100.0445407,-4579070.74576 29149.3600358,-4579083.85169 29222.1038405,-4579106.72004 29251.2752009,-4579116.66968 29279.2739699,-4579116.58255 29310.5676613,-4579115.10305 29345.3461314,-4579098.73932 29371.4991195,-4579078.59492 29394.4603725,-4579064.34559 29427.4801923,-4579055.92337 29461.9874344,-4579055.54847 29496.6141444,-4579059.1769 29531.2789232,-4579069.30563 29554.4087265,-4579080.55812 29603.5237054,-4579115.15448 29647.94325,-4579148.09801 29695.6849954,-4579194.148 29725.5188277,-4579222.11671 29748.5076116,-4579245.36293 29755.0270508,-4579260.0734 29758.2733333,-4579283.17594 29774.6830446,-4579301.20841 29789.507668,-4579314.18992 29821.0621253,-4579327.71683 29849.0882381,-4579342.12857 29886.8255443,-4579365.35571 29916.1707679,-4579385.30969 29936.163157,-4579408.45827 29965.633484,-4579462.91146 30047.8939611,-4579592.57534 30075.8768502,-4579638.98122 30097.5466466,-4579679.68207 30110.460676,-4579720.59739 30108.9355127,-4579752.04323 30110.5587421,-4579786.59128 30117.1867667,-4579813.30364 30133.7593774,-4579849.33896 30148.3832338,-4579883.81096 30159.8857905,-4579906.68282 30176.4421005,-4579943.21756 30194.485775,-4579987.79967 30197.7048485,-4580019.40019 30200.9130886,-4580058.99923 30204.3004331,-4580093.10489 30214.2613695,-4580124.92524 30222.420104,-4580150.68767 30232.1855636,-4580165.50404 30253.8497908,-4580198.70585 30286.3814124,-4580251.25934 30326.0565541,-4580284.04858 30363.9675158,-4580317.28024 30416.6650436,-4580356.99323 30488.958541,-4580378.34786 30564.8129958,-4580397.8189 30653.7767088,-4580406.21902 30730.9285552,-4580401.23579 30772.129034,-4580379.58241 30816.6624819,-4580363.03701 30852.787555,-4580343.71777 30869.3111824,-4580335.2578 30893.8903556,-4580325.06077 30923.5992496,-4580318.53052 30974.6737971,-4580300.69859 31050.365562,-4580279.16996 31098.145187,-4580262.73036 31129.5151604,-4580251.25495 31191.8805914,-4580239.79033 31257.5790157,-4580233.43372 31308.6808593,-4580253.09758 31356.3628838,-4580262.65129 31391.1038841,-4580262.78424 31424.0589781,-4580256.35982 31445.3921179,-4580246.05691 31481.7181719,-4580228.24395 31511.1883125,-4580213.70696 31542.3357901,-4580193.7254 31587.1517398,-4580199.18619 31623.4507251,-4580212.86814 31652.9752107,-4580227.32907 31692.4986272,-4580257.11405 31740.2676271,-4580294.66693 31773.1088121,-4580314.73531 31825.7089914,-4580334.44813 31861.8125904,-4580354.12298 31893.0958668,-4580383.63933 31931.1807966,-4580426.87572 31968.9617477,-4580441.10601 32001.9766605,-4580448.18181 32028.1247731,-4580466.53219 32056.1130722,-4580497.44095 32097.4061071,-4580557.27987 32136.9837843,-4580616.06301 32178.0325007,-4580683.39304 32209.386265,-4580741.4081 32229.1180214,-4580795.54463 32238.8725607,-4580841.35684 32244.0130417,-4580883.01909 32251.7967834,-4581012.25619 32255.0262455,-4581104.8495 32262.006579,-4581205.06416 32256.8712289,-4581239.89213 32258.7058495,-4581267.94833 32263.2817988,-4581288.5949 32264.6497093,-4581292.63899 32280.0006697,-4581343.13316 32289.7985427,-4581379.94797 32312.7654582,-4581419.19203 32340.8024658,-4581448.60276 32375.3805881,-4581476.72703 32414.8766876,-4581515.01043 32433.1264438,-4581545.60178 32446.1976057,-4581574.02449 32452.6787775,-4581605.23187 32457.4988441,-4581641.38443 32457.7102442,-4581680.88623 32451.0656575,-4581723.66395 32437.9395407,-4581781.22831 32418.1687863,-4581881.57037 32415.1286488,-4581913.46706 32406.926213,-4581942.69569 32388.779208,-4581962.60111 32355.8076303,-4581969.52461 32316.4089706,-4581974.23872 32286.699819,-4581980.76869 32255.2916293,-4581985.74343 32235.5000381,-4581987.09761 32219.0413766,-4581993.55984 32196.1826382,-4582012.31168 32187.9694896,-4582026.54189 32174.9412744,-4582058.11273 32158.3574289,-4582099.06635 32158.3299732,-4582130.56132 32164.9087813,-4582158.77224 32181.3941955,-4582189.80598 32197.852373,-4582229.33772 32201.1578114,-4582265.94076 32201.0977438,-4582298.43454 32197.9210873,-4582395.81813 32212.6796281,-4582479.78861 32220.7723091,-4582553.54296 32229.0604547,-4582621.30448 32230.6448506,-4582672.34947 32222.3173041,-4582713.07243 32212.4862146,-4582746.24732 32204.3055949,-4582759.47867 32199.3112511,-4582782.31272 32206.0907775,-4582812.03001 32222.2884621,-4582836.55527 32263.4832224,-4582876.39411 32298.0012085,-4582914.01541 32336.1889108,-4582938.75815 32433.2676051,-4583004.91699 32497.4186287,-4583046.00479 32548.2217785,-4583067.15968 32596.1376187,-4583054.22478 32627.3616976,-4583024.24746 32652.049962,-4583003.05573 32688.2514393,-4582996.73774 32732.7635757,-4582996.19017 32775.4842419,-4583004.583 32869.3071016,-4583009.64366 32930.2234839,-4583019.63 32989.4950348,-4583034.06212 33025.8318666,-4583054.24518 33078.654376,-4583082.46515 33114.7847106,-4583116.63973 33150.8877596,-4583159.31236 33165.6846101,-4583203.78955 33178.7062421,-4583256.70777 33193.8558294,-4583305.69592 33206.8179609,-4583345.11391 33218.3144558,-4583383.48421 33223.2099047,-4583432.63775 33211.7443141,-4583485.25697 33205.251181,-4583531.03931 33201.7002998,-4583570.9184 33193.6710583,-4583610.15143 33188.7087,-4583654.98382 33183.6758719,-4583694.31461 33180.5376079,-4583729.20779 33172.1934516,-4583770.43027 33159.1049399,-4583811.49795 33144.2790492,-4583867.50702 33140.9562329,-4583900.39441 33139.2835544,-4583936.33526 33137.7627974,-4583975.28069 33132.7299031,-4584014.61144 33132.7888227,-4584051.10873 33137.7713348,-4584082.26737 33150.6465407,-4584116.68318 33162.170191,-4584146.55546 33186.9333223,-4584184.35882 33208.6132793,-4584217.0622 33238.0718561,-4584256.51861 33269.3272341,-4584294.53385 33293.9005741,-4584322.83225 33315.5810559,-4584332.5386 33344.8992875,-4584337.99475 33384.4774224,-4584327.78772 33404.1608352,-4584314.4318 33448.6300055,-4584299.88494 33496.36162,-4584284.94459 33542.5676895,-4584278.4534 33588.8121556,-4584255.46551 33649.4573877,-4584258.44437 33710.4990137,-4584256.93672 33760.0054238,-4584256.55247 33809.3325832,-4584261.6617 33845.4959185,-4584271.84068 33894.9750222,-4584279.95451 33929.4934797,-4584294.57927 33962.4758784,-4584302.65472 34024.9395944,-4584311.19228 34049.503077,-4584301.49514 34074.3331135,-4584268.30956 34087.4975152,-4584240.24262 34097.1660628,-4584212.0616 34130.3335563,-4584199.14563 34148.2906758,-4584192.73246 34196.2826907,-4584192.79873 34234.0095178,-4584201.029 34246.9830729,-4584209.45139 34284.948566,-4584225.68848 34311.286808,-4584230.54748 34337.6849921,-4584225.90959 34381.8447615,-4584220.85142 34431.5358759,-4584222.47297 34466.0817825,-4584228.59969 34500.7470227,-4584238.72984 34536.8127113,-4584251.90533 34558.1673949,-4584271.59993 34584.5377067,-4584298.45738 34602.6188817,-4584326.54415 34609.2136532,-4584354.25609 34625.5847259,-4584388.7863 34647.3136679,-4584419.99177 34673.4010797,-4584470.83717 34683.079007,-4584503.64915 34686.6714682,-4584546.76128 34684.9223378,-4584592.69874 34681.6755766,-4584615.59005 34691.337178,-4584648.90144 34706.5085679,-4584681.89271 34729.4370872,-4584714.6372 34760.7466871,-4584758.65392 34805.2527968,-4584796.60211 34861.2726934,-4584826.42708 34913.7862956,-4584841.13941 34948.375289,-4584861.26604 34987.915346,-4584867.55591 35043.5069319,-4584879.86902 35091.9490205,-4584904.44733 35133.4156785,-4584928.29806 35173.4388811,-4584935.10367 35222.0172606,-4584940.18873 35266.9361248,-4584973.15112 35298.1322983,-4584997.66657 35339.6257022,-4585036.01656 35412.5108784,-4585092.88912 35449.010175,-4585131.07615 35476.6393803,-4585172.97323 35490.2850788,-4585214.41391 35492.1783166,-4585255.97095 35497.4355886,-4585347.63206 35493.9545774,-4585393.01322 35495.6143691,-4585434.06269 35490.4617151,-4585469.39043 35481.9384012,-4585493.10947 35478.463281,-4585522.99259 35478.4136377,-4585547.48816 35487.2007363,-4585592.26986 35506.0256893,-4585612.88204 35528.5473158,-4585635.11471 35556.3453561,-4585656.51973 35592.7037661,-4585683.70356 35627.2386746,-4585697.82935 35686.255846,-4585704.75522 35717.6157497,-4585701.27938 35753.8341773,-4585694.46253 35783.3105606,-4585687.42561 35811.1368198,-4585677.33516 35835.3908739,-4585677.12697 35866.5603612,-4585687.14339 35911.7133766,-4585697.61627 35956.6656019,-4585706.58277 36022.5116252,-4585718.73101 36071.1176042,-4585715.31818 36119.5168453,-4585725.89705 36154.4319672,-4585736.03577 36178.5934278,-4585746.3234 36199.3293861,-4585761.99862 36223.4848925,-4585787.78435 36284.1885681,-4585850.2592 36332.5862491,-4585906.833 36360.2316622,-4585948.23098 36377.493195,-4585970.79204 36384.5219268,-4586000.51824 36412.3955653,-4586034.92447 36453.7842941,-4586114.76696 36498.9194309,-4586171.73432 36517.9503452,-4586201.35241 36531.8300891,-4586220.3035 36559.508906,-4586237.70528 36601.0082561,-4586260.55772 36654.8187495,-4586296.81065 36706.7079684,-4586323.00198 36776.4027547,-4586339.77569 36824.8947967,-4586339.85895 36859.300293,-4586334.98281 36893.9718072,-4586329.61542 36928.7789063,-4586327.75207 36972.1627186,-4586331.16819 37062.0624377,-4586341.60231 37195.6386632,-4586369.46066 37256.2840776,-4586395.43802 37308.3253175,-4586424.63412 37370.5118852,-4586464.66036 37479.6803505,-4586535.71742 37570.1319271,-4586598.16432 37611.582516,-4586622.51523 37684.3281325,-4586645.38817 37734.763101,-4586662.53322 37771.1766899,-4586672.72117 37809.1649366,-4586672.96155 37857.7499499,-4586662.54904 37883.7582727,-4586646.89988 37902.7155966,-4586617.52188 37916.7062346,-4586579.48259 37923.7977338,-4586530.71912 37926.9642395,-4586487.32693 37928.7242771,-4586456.38755 37935.7822349,-4586431.62052 37947.9811019,-4586402.52179 37963.3987022,-4586382.02728 37986.0415429,-4586362.2686 38024.3344983,-4586345.52059 38070.9218968,-4586335.04277 38126.4499054,-4586326.35668 38150.8183915,-4586322.6527 38192.1670764,-4586319.50309 38237.1361021,-4586327.97052 38296.1969371,-4586348.89682 38355.3504819,-4586359.32721 38403.8583478,-4586381.90881 38459.2602461,-4586407.7152 38525.0735454,-4586443.86054 38594.1382061,-4586487.61133 38630.7681485,-4586521.80402 38658.4625946,-4586561.7044 38686.1407286,-4586602.10421 38696.4319128,-4586631.43738 38698.3033173,-4586665.99511 38689.8439135,-4586710.71451 38686.2757327,-4586751.09404 38689.7105956,-4586783.70301 38694.8281924,-4586818.36673 38698.1111725,-4586847.97103 38712.3202672,-4586910.42891 38734.6943064,-4586960.15466 38753.7894974,-4587010.77326 38767.7274165,-4587066.22299 38764.2243825,-4587104.60485 38751.862263,-4587138.69783 38741.6445794,-4587168.36126 38731.3066272,-4587217.0189 38703.5216317,-4587264.10693 38672.1703774,-4587305.57904 38658.4241306,-4587336.12713 38637.6095771,-4587376.44342 38621.8696992,-4587437.42339 38611.2442767,-4587479.57223 38603.8599778,-4587514.32764 38590.6569634,-4587535.89433 38579.8317955,-4587553.53906 38573.8438639,-4587560.84278 38556.1787029,-4587581.26385 38540.4735139,-4587595.24956 38528.6872076,-4587619.36225 38528.6535257,-4587643.35877 38535.72585,-4587664.08768 38544.1119512,-4587682.85969 38558.5450689,-4587707.82858 38617.2988174,-4587791.73911 38644.5913913,-4587828.62682 38692.3224134,-4587859.68263 38741.5303165,-4587883.78737 38804.9553427,-4587908.85637 38854.0226556,-4587921.95763 38887.5213872,-4587929.55096 38907.5847478,-4587935.20568 38921.4379953,-4587939.6577 38954.3231517,-4587950.73066 39002.0553382,-4587958.78883 39029.5560009,-4587958.68702 39059.7005501,-4587954.17199 39089.725872,-4587945.65345 39114.5837795,-4587926.96712 39142.0906381,-4587911.367 39189.8616731,-4587902.92802 39217.5580803,-4587896.83317 39270.1276174,-4587894.55032 39312.019816,-4587882.41969 39343.1581863,-4587870.43781 39369.4705241,-4587860.79809 39399.3654206,-4587856.27489 39444.997124,-4587859.76489 39474.652455,-4587870.23245 39497.5003766,-4587882.47752 39533.5177013,-4587897.15248 39581.3906451,-4587916.21424 39635.9782191,-4587943.9945 39680.2787465,-4587972.93869 39704.086713,-4588001.71361 39707.5275354,-4588018.8244 39717.8725007,-4588054.15899 39714.3793237,-4588107.53993 39702.4713252,-4588173.64484 39692.1493319,-4588221.80321 39690.6425273,-4588283.24826 39676.7542734,-4588325.79066 39652.7746906,-4588363.50389 39623.7632348,-4588394.55338 39509.5733354,-4588530.81071 39502.8086183,-4588546.58826 39499.2575072,-4588563.47067 39502.8124554,-4588577.0855 39506.0198229,-4588593.6887 39521.657512,-4588627.69628 39547.0489833,-4588684.52032 39569.3522982,-4588728.74468 39579.5541057,-4588799.0713 39586.3226426,-4588813.79101 39593.4437879,-4588833.02181 39623.9109622,-4588887.51192 39642.773497,-4588914.62553 39654.6767707,-4588940.51193 39670.1136278,-4588973.01315 39701.5306686,-4589029.03418 39737.822693,-4589081.21484 39766.1955202,-4589115.63848 39792.3811931,-4589140.49158 39806.4778813,-4589160.45022 39830.8327271,-4589210.74115 39871.4224406,-4589292.05957 39897.5139151,-4589350.40652 39921.7921437,-4589410.69407 39929.7099863,-4589451.44896 39947.9701513,-4589474.04341 39960.6011753,-4589492.95431 39970.1164771,-4589507.7638 39994.5315005,-4589548.55766 40000.4905876,-4589572.7501 39996.5917706,-4589592.62089 39986.3523037,-4589615.28427 39984.2014555,-4589635.21216 39986.1112305,-4589653.27288 39998.6393589,-4589667.68085 40018.8595657,-4589683.83996 40026.7134417,-4589703.59473 40043.0411561,-4589724.12627 40055.1237912,-4589744.51914 40091.6340924,-4589774.70918 40131.8624046,-4589813.51992 40188.5276497,-4589861.86682 40204.687223,-4589879.89313 40281.6102805,-4589950.89988 40321.7782967,-4589999.20786 40426.9598361,-4590108.13456 40499.8449341,-4590165.01082 40556.1526345,-4590201.34733 40629.0654162,-4590249.72533 40750.1561638,-4590300.17738 40800.7858085,-4590334.32864 40837.3450791,-4590363.02067 40865.4141625,-4590391.43531 40871.562543,-4590425.13324 40877.4285713,-4590459.82186 40889.6996109,-4590589.21142 40895.6699413,-4590605.40508 40912.0252985,-4590617.43845 40940.2362637,-4590633.85884 40972.4475582,-4590657.90927 41041.2230377,-4590718.15134 41085.7893712,-4590746.60515 41148.4624805,-4590817.64695 41190.7195547,-4590878.52252 41221.1942552,-4590894.51699 41265.561365,-4590898.46646 41309.8320967,-4590882.41452 41386.6910143,-4590855.92836 41402.9925032,-4590861.96054 41419.5046127,-4590884.4982 41459.6645681,-4590971.30314 41487.9491593,-4591023.72298 41501.9265691,-4591039.67839 41538.4516458,-4591092.36751 41582.8141464,-4591165.31106 41631.4266483,-4591245.89289 41657.7624373,-4591296.74926 41667.6449311,-4591338.5687 41671.6975221,-4591375.19805 41676.0112294,-4591403.83661 41683.9841073,-4591427.59517 41695.8969103,-4591468.48105 41712.1135836,-4591523.00645 41740.398036,-4591575.42642 41790.7697864,-4591648.06658 41855.2837298,-4591708.66998 41903.8993165,-4591743.25599 41940.2626701,-4591777.94156 41962.3777313,-4591789.66338 41988.8407281,-4591806.02692 42132.484195,-4591900.71388 42244.8777362,-4591964.8821 42370.7770211,-4592036.49123 42443.4940095,-4592090.86359 42504.0469192,-4592127.33983 42530.2797329,-4592173.69355 42556.6007306,-4592202.0516 42589.0079128,-4592220.10941 42663.7062996,-4592275.04662 42744.4957579,-4592327.1832 42825.5300811,-4592371.82841 42924.6302908,-4592422.06375 42997.4192433,-4592458.94014 43045.7900799,-4592501.018 43067.996539,-4592525.242 43094.2147437,-4592549.09717 43138.8725175,-4592590.05378 43175.3060516,-4592630.24163 43195.5262665,-4592646.40136 43211.5503154,-4592660.92405 43240.0927177,-4592674.85599 43264.3246849,-4592690.64689 43316.6552372,-4592703.35654 43369.1605245,-4592703.07289 43401.471615,-4592701.12925 43425.8946459,-4592703.42743 43458.2480889,-4592715.48412 43476.2372177,-4592731.07099 43514.7144104,-4592739.32815 43559.1847585,-4592747.78121 43599.8344103,-4592743.11036 43650.0288359,-4592721.75276 43664.2414011,-4592715.21784 43716.6735828,-4592678.93447 43765.2409333,-4592638.52505 43771.4269115,-4592602.22993 43789.6040466,-4592573.8262 43813.8819854,-4592557.62099 43852.6107446,-4592542.88804 43878.4244802,-4592533.23255 43911.0930249,-4592543.29969 44003.6962743,-4592585.82365 44110.9983198,-4592652.82638 44262.5308739,-4592743.2734 44325.3122538,-4592749.82522 44381.8132734,-4592749.67222 44438.2441697,-4592744.01732 44500.8853274,-4592739.56534 44551.4585204,-4592737.21872 44628.1751133,-4592745.72596 44709.2723489,-4592757.87617 44761.761701,-4592758.09202 44818.2090386,-4592751.93768 44874.8686211,-4592739.29073 44923.4931607,-4592735.38052 44984.0013113,-4592727.35905 45034.3624077,-4592731.50506 45097.121067,-4592754.05513 45145.5854282,-4592785.63733 45186.2710931,-4592810.46571 45212.5270026,-4592840.82202 45222.4860208,-4592872.64549 45214.3511511,-4592907.37727 45200.0664857,-4592931.4087 45196.127812,-4592967.77754 45204.1102261,-4593006.53593 45208.320907,-4593030.67199 45204.144,-4593059.03357 45196.2866446,-4593085.27497 45196.0677213,-4593107.26635 45208.4652373,-4593125.67043 45226.4381503,-4593141.75694 45291.052418,-4593176.36704 45315.4689888,-4593194.16411 45343.7455989,-4593208.5876 45426.7208823,-4593293.29476 45503.3686815,-4593349.79695 45535.5754666,-4593366.34883 45600.3367276,-4593396.46417 45658.8781146,-4593410.37721 45705.2160283,-4593422.89137 45733.7049275,-4593430.82228 45749.7454268,-4593444.84582 45767.9795943,-4593452.94145 45810.3499023,-4593456.82646 45859.1360389,-4593470.92059 45907.6609442,-4593493.00569 45921.5452365,-4593519.45797 45984.4221509,-4593622.50729 46000.4117293,-4593661.02768 46016.5713214,-4593679.0549 46032.7309128,-4593697.08213 46044.8440872,-4593739.47555 46046.963757,-4593774.04271 46067.2165419,-4593919.19591 46065.0256636,-4593955.62202 46059.038044,-4594016.42248 46048.8283071,-4594061.08588 46034.8891274,-4594105.12736 46030.7379096,-4594147.98896 46026.7336482,-4594186.35565 46036.953729,-4594210.18834 46067.0743324,-4594244.67109 46079.2642588,-4594277.06767 46103.4800725,-4594293.35848 46135.822259,-4594313.41479 46165.8237775,-4594343.89393 46171.7054289,-4594378.08415 46190.1920326,-4594416.68627 46218.2890163,-4594436.6038 46246.5003137,-4594453.02529 46282.9801977,-4594461.21766 46311.1935452,-4594454.64063 46339.6123863,-4594457.06977 46359.7136518,-4594469.22633 46400.1005819,-4594495.54538 46448.6138946,-4594525.62995 46509.2096044,-4594576.10841 46594.6090655,-4594624.89811 46687.0169895,-4594673.41704 46743.7336278,-4594697.27033 46792.2538152,-4594711.85614 46848.7555043,-4594711.70382 46893.2659711,-4594703.65984 46939.7626158,-4594703.68033 46986.259272,-4594703.70083 47049.0039874,-4594703.75265 47113.4967554,-4594703.86164 47150.0162819,-4594695.55635 47194.5268209,-4594687.51235 47226.7194841,-4594681.56542 47275.1765518,-4594675.15039 47327.7318748,-4594673.36911 47364.1582041,-4594675.56018 47376.3760249,-4594699.45839 47392.6383443,-4594721.98895 47412.8750914,-4594737.64986 47433.2261601,-4594749.8147 47481.7580987,-4594756.40141 47538.2225838,-4594749.74826 47586.6634009,-4594743.83268 47614.3448508,-4594738.23822 47647.5527971,-4594731.82452 47683.6988979,-4594712.00762 47720.3117806,-4594693.20593 47827.3382219,-4594638.70874 47887.9779747,-4594626.69237 47952.6670085,-4594620.80809 48033.4735461,-4594618.95066 48102.3051354,-4594608.70207 48162.765331,-4594602.17953 48215.5052967,-4594602.40418 48241.716432,-4594588.26204 48273.9208588,-4594574.31586 48298.2907184,-4594570.61297 48346.8133894,-4594562.20014 48407.4580586,-4594557.68352 48451.7286728,-4594564.63087 48524.390542,-4594582.50612 48578.4424459,-4594603.77265 48640.4806826,-4594617.80071 48758.0223139,-4594631.64384 48868.4227305,-4594672.75217 49144.4384348,-4594824.77145 49247.9357941,-4594901.15263 49351.5500745,-4595004.53651 49399.7823862,-4595142.60771 49448.1735587,-4595321.68233 49558.6240301,-4595521.78585 49837.2565042,-4595784.88776 50041.679221,-4595978.06599 50428.3832677,-4596391.69833 50724.8788508,-4596681.88602 50897.6515522,-4596979.02677 51139.0661071,-4597523.90464 51294.6470159,-4597750.48675 51380.793715,-4597875.80092 51553.6859482,-4598207.44636 51767.310839,-4598531.92551 51934.3325192,-4598683.88599 52009.6812703,-4598711.35082 52127.5250377,-4598754.2058 52245.6257975,-4598781.56974 52420.8900593,-4598826.80385 52619.0292034,-4598845.28743 52642.339928,-4598851.05011 52764.3875456,-4598880.04333 52898.8534599,-4598934.44226 52948.6932698,-4598954.57274 52996.4508834,-4599000.13439 53048.7035577,-4599045.84317 53089.5505742,-4599088.67878 53103.1212001,-4599147.62129 53112.4646557,-4599236.42465 53139.7810609,-4599341.3158 53173.7328555,-4599434.42446 53214.6587921,-4599497.76221 53291.8694145,-4599575.28717 53405.7542964,-4599678.01189 53483.0048989,-4599739.03873 53660.1522685,-4599841.33428 53826.1138741,-4599918.76449 54183.0399422,-4600096.44323 54253.7262004,-4600121.25641 54326.3657576,-4600155.13336 54399.0098371,-4600196.51032 54485.4424793,-4600244.33853 54603.6052229,-4600262.20601 54680.808214,-4600271.23294 54762.8006057,-4600271.41682 54835.6184996,-4600269.30044 54894.3699199,-4600269.22357 54917.3612281,-4600269.47615 55008.397469,-4600275.95597 55076.6075499,-4600307.68816 55142.1912053,-4600373.83381 55162.7093458,-4600442.00428 55194.752145,-4600517.0519 55237.8438707,-4600582.96139 55308.380372,-4600635.26955 55348.8988538,-4600657.59557 55401.1070982,-4600712.30376 55453.13101,-4600765.00597 55514.8244533,-4600812.52484 55575.9812696,-4600853.52627 55662.4171445,-4600878.35552 55760.2097723,-4600907.55652 55830.7195283,-4600914.86469 55919.258847,-4600921.26312 55998.9224114,-4600923.87104 56182.8955525,-4600939.8936 56267.1524558,-4600939.65194 56322.9446983,-4600945.97836 56351.0987302,-4600948.90001 56455.7398981,-4600959.82557 56462.7159778,-4600960.55394 56526.3688182,-4600971.13766 56583.0827612,-4600987.49417 56623.3234754,-4601018.31125 56639.912681,-4601030.85422 56676.4535375,-4601083.04998 56692.2578804,-4601119.56703 56703.7276162,-4601173.94201 56701.4874538,-4601242.36801 56685.4333566,-4601289.84195 56617.233225,-4601387.60815 56592.1724796,-4601435.28718 56569.5034515,-4601501.54431 56578.636282,-4601573.84257 56601.0435233,-4601599.57593 56688.6435632,-4601649.94352 56741.8626596,-4601696.68552 56782.2756816,-4601737.50831 56847.9216813,-4601824.65687 56901.018806,-4601890.39479 56935.2478342,-4601975.01479 56982.3973814,-4602062.05786 57051.136398,-4602199.80747 57144.6017482,-4602315.36699 57235.3810411,-4602421.33874 57332.1852861,-4602496.00809 57413.3294847,-4602552.66483 57475.8049145,-4602599.21035 57556.6994039,-4602655.859 57595.0522544,-4602675.61481 57659.9659205,-4602678.24049 57740.1427443,-4602703.36587 57802.4905548,-4602730.90743 57839.961444,-4602808.13414 57840.0009639,-4602875.63514 57810.0619551,-4602980.65423 57812.5943442,-4603040.73688 57817.6108798,-4603078.40099 57802.4441447,-4603220.90364 57789.9108176,-4603282.99288 57735.031235,-4603386.19507 57714.9492449,-4603465.03698 57724.8959914,-4603535.36237 57732.5253411,-4603600.11191 57760.0633454,-4603660.01351 57807.5100156,-4603715.06719 57877.3583224,-4603757.85465 57959.9451544,-4603747.55958 58037.3487414,-4603727.59477 58099.5928969,-4603720.13341 58162.2470988,-4603730.68542 58209.7876302,-4603775.24234 58244.813224,-4603827.88936 58292.1170698,-4603894.93851 58339.5855202,-4603987.49303 58367.2149689,-4604090.39777 58384.6250732,-4604169.46786 58392.1387144,-4604207.21388 58424.576429,-4604247.27629 58474.5487697,-4604293.91303 58584.5539191,-4604309.01622 58664.5499103,-4604309.13648 58744.7181988,-4604319.26239 58852.5423081,-4604362.79418 58961.8484952,-4604406.87457 59059.4707145,-4604456.5723 59129.4010575,-4604496.86299 59269.4321785,-4604526.44992 59376.6656638,-4604526.96248 59572.1203761,-4604528.36485 59741.2118937,-4604456.90332 59860.5435753,-4604332.31149 60030.8786575,-4604222.89021 60184.4648815,-4604227.92095 60265.8213353,-4604247.58592 60348.2845297,-4604309.78748 60365.7721294,-4604378.86084 60372.630411,-4604406.0857 60380.0193373,-4604516.32859 60334.0178044,-4604745.32347 60358.118047,-4604849.11373 60404.8122742,-4604927.14395 60444.3089771,-4604995.93836 60528.9868665,-4605059.21284 60622.6380076,-4605092.78107 60707.8706058,-4605078.07309 60938.9602581,-4605060.14324 61146.1032181,-4605002.42843 61273.9675082,-4605006.61719 61359.9890975,-4605089.93622 61392.470788,-4605235.50215 61368.2733828,-4605485.71256 61331.2345355,-4605639.501 61268.17761,-4605770.93669 61205.8242997,-4605880.89509 61122.7508101,-4605974.67437 61060.397445,-4606084.63263 61014.1907065,-4606190.11981 60988.8676835,-4606306.79132 60941.1061029,-4606459.72795 60953.5867866,-4606567.13799 60993.1490575,-4606664.43532 61118.9879289,-4606738.05952 61195.9939731,-4606837.08394 61230.061986,-4606934.2014 61347.5139134,-4607103.55217 61470.8279535,-4607246.59491 61657.3576805,-4607390.70946 61836.214889,-4607509.57248 62037.2486543,-4607569.66159 62267.3408881,-4607551.70184 62510.158202,-4607572.65978 62763.8668432,-4607657.97592 63019.6798403,-4607724.86088 63157.8745674,-4607741.89026 63410.6777897,-4607725.17499 63520.4190822,-4607740.77188 63595.483849,-4607761.73245 63663.4170415,-4607801.95977 63744.3575443,-4607880.1143 63797.7324904,-4607937.36496 63893.2354499,-4608005.99664 63961.6496471,-4608222.2442 64031.1319391,-4608413.52628 64077.437005,-4608541.5472 64277.3220923,-4608598.60032 64343.9725227,-4608487.28199 64409.8043486,-4608400.93743 64512.1024576,-4608353.7891 64599.850889,-4608369.16558 64711.1694432,-4608435.81606 64809.166125,-4608527.53068 64936.6881015,-4608481.20911 65012.3590373,-4608483.68944 65098.4541025,-4608549.51334 65237.4687061,-4608541.5696 65448.7009384,-4608763.50024 65677.1255858,-4609216.00244 65700.2455028,-4609326.76397 65734.3951632,-4609512.88957 65720.8692069,-4609803.45573 65799.3288572,-4610003.03454 66019.296716,-4610126.25025 66225.1932808,-4610244.0047 66436.9936841,-4610318.9514 66581.8719379,-4610345.70235 66756.5022408,-4610280.92533 66985.7400295,-4610212.93841 67212.9146368,-4610207.88623 67435.5531674,-4610341.191 67556.0514077,-4610509.14866 67589.6353439,-4610636.25508 67669.130383,-4610903.37278 67801.9556629,-4611084.23569 67936.8446134,-4611202.16377 68124.4050671,-4611246.31588 68260.1130857,-4611339.26998 68332.1082069,-4611408.13388 68442.3270331,-4611348.24536 68470.3228914,-4611333.16268 68638.5929264,-4611233.67576 68860.6686134,-4611094.45108 69021.0778451,-4611051.7088 69212.5164773,-4611091.988 69444.6262763,-4611218.60525 69617.8085484,-4611396.29309 69766.1150527,-4611509.16213 69854.6424418,-4611638.07187 69877.3599525,-4611776.32409 69878.7641697,-4611786.87069 69917.280201,-4612015.14578 69940.2580353,-4612297.91424 69977.9514327,-4612452.15858 70052.3047471,-4612540.60181 70137.7818821,-4612632.91013 70316.1237203,-4612683.76202 70571.8466978,-4612662.14788 70842.7393021,-4612612.52962 70918.9528575,-4612598.52841 71041.4585829,-4612659.54978 71151.6936509,-4612751.67058 71233.5011886,-4612955.86569 71278.9133672,-4613004.35802 71379.6332439,-4613112.16794 71530.3201157,-4613129.61145 71618.0709821,-4613144.99058 71670.5093197,-4613162.21159 71849.5891087,-4613221.08899 71954.2608502,-4613277.02571 72000.1725918,-4613325.53465 72169.7294429,-4613385.09997 72422.9145051,-4613471.41021 72595.0674252,-4613528.06073 72760.2761615,-4613613.48546 73058.3265942,-4613688.76716 73272.7145612,-4613829.8092 73456.5592907,-4613987.35073 73666.7141465,-4614120.2539 73786.3932176,-4614313.19351 73972.1428982,-4614420.29471 74222.2349134,-4614479.00343 74432.3901705,-4614611.90755 74514.7667054,-4614791.12329 74687.7795015,-4614897.80737 74747.8320181,-4614987.78432 74807.048661,-4615103.2358 74892.3094833,-4615194.54002 74865.0196481,-4615256.64935 74901.7563025,-4615462.87026 74959.4328451,-4615594.77268 75039.3479103,-4615780.40894 75138.7528534,-4615920.68138 75280.9371342,-4615976.35113 75426.0874629,-4615972.1136 75565.0286333,-4615905.66743 75674.3198192,-4615813.24624 75831.8362979,-4615767.41103 75943.5678104,-4615821.58152 75991.9738158,-4615992.18358 76022.6327562,-4616101.69844 76158.2782323,-4616585.18879 76165.3888852,-4616749.4355 76201.0000113,-4616906.11692 76220.0639028,-4617003.25047 76229.0798015,-4617117.05566 76234.2810016,-4617194.7327 76219.7054089,-4617311.26387 76176.5810332,-4617406.35632 75991.3498475,-4617565.28997 75864.5833396,-4617771.14596 75831.1701492,-4617875.05761 75841.7283143,-4618010.41498 75926.2278983,-4618178.20192 76011.7111914,-4618316.01887 76096.7895141,-4618443.32178 76132.2454945,-4618558.995 76165.2329143,-4618666.08653 76251.2079244,-4618788.91873 76247.86277,-4618791.80916 76244.8694227,-4618997.22772 76249.4479649,-4619162.39155 76306.167683,-4619315.76612 76425.4389118,-4619399.18846 76646.7714887,-4619511.46387 76767.4514346,-4619681.43999 76826.5990885,-4619829.39431 76887.6911642,-4620070.42044 76877.901838,-4620239.11336 76826.1316879,-4620361.42399 76676.698854,-4620427.52325 76552.8816458,-4620543.46762 76503.0057597,-4620691.84236 76543.0403258,-4620843.1695 76589.8403333,-4621039.72262 76648.2356639,-4621149.6493 76692.0485393,-4621231.59485 76747.7526675,-4621286.42862 76812.0102764,-4621332.04251 76871.9273844,-4621388.01477 76910.8124253,-4621437.29585 76969.0222364,-4621644.22501 76978.0521684,-4621757.53123 76978.0287245,-4621811.53507 76994.6241046,-4621938.09089 77039.309906,-4622001.06377 77104.6996575,-4622080.71804 77217.0503479,-4622245.42196 77306.5002253,-4622361.3697 77328.5643702,-4622504.10677 77294.1643327,-4622637.98865 77215.3010205,-4622755.40873 77212.8399712,-4622830.3344 77246.2648272,-4622916.43968 77326.3222219,-4623029.07894 77420.0339342,-4623144.66701 77456.4885459,-4623229.87187 77504.3915162,-4623369.95761 77534.6051876,-4623667.97634 77562.7337845,-4623785.91073 77507.436095,-4623848.09979 77395.1012736,-4624025.42534 77336.6528323,-4624183.51919 77316.1164314,-4624481.37063 77415.5198271,-4624697.65519 77578.515065,-4624926.53026 77763.0674248,-4625146.11309 77874.2601771,-4625330.78289 78013.9251972,-4625622.89812 78167.4386452,-4625835.96152 78187.0484739,-4625863.10834 78263.4655554,-4626132.14398 78284.2390006,-4626473.8581 78301.6268223,-4626591.44033 78403.3796446,-4626743.79813 78400.1949347,-4626840.70249 78395.6804543,-4626978.0669 78505.9163564,-4627184.20877 78489.3722838,-4627375.68297 78456.8093099,-4627385.1137 78401.165613,-4627457.79179 78388.6695326,-4627510.88606 78396.2731422,-4627606.64486 78468.253417,-4627683.51768 78561.6960857,-4627761.59604 78675.0837253,-4627871.83302 78779.2822556,-4627949.76502 78897.2179033,-4627921.63846 78963.2565128,-4627859.80299 79071.7533387,-4627799.36303 79241.3798008,-4627826.44055 79322.3429386,-4627957.11418 79340.0748769,-4628064.20741 79326.7939614,-4628148.77914 79270.8343719,-4628223.44717 79247.6160141,-4628458.20684 79298.1718184,-4628616.38395 79311.8296675,-4628626.83389 79417.8785047,-4628709.32773 79506.6796734,-4628723.24797 79584.2297599,-4628782.8029 79581.8177618,-4628787.7241 79591.4760968,-4628790.54185 79609.791922,-4628864.65122 79610.4132658,-4628876.17278 79615.535225,-4628971.35056 79598.7081228,-4629057.30594 79572.8993654,-4629127.46451 79513.7371868,-4629299.53673 79511.6434852,-4629454.48319 79527.9028894,-4629583.53043 79566.2330033,-4629733.3053 79652.2032899,-4629856.14371 79711.6263889,-4629927.1043 79769.1726044,-4629971.50057 79821.5526792,-4630005.726 79873.7911565,-4630021.44494 79917.232738,-4630061.37711 79919.2676312,-4630105.9485 79898.5521538,-4630173.27424 79740.3484614,-4630369.0927 79647.9475385,-4630495.06739 79599.075364,-4630559.46699 79592.0498939,-4630598.23986 79596.1189485,-4630649.37873 79611.0786564,-4630703.876 79649.193093,-4630746.13336 79714.0047399,-4630767.26639 79808.4184159,-4630747.36859 79933.2491089,-4630684.4665 80072.0014596,-4630700.03001 80194.9927203,-4630693.07304 80328.8617078,-4630697.47486 80445.2053651,-4630717.80213 80572.4716582,-4630923.00772 80588.6473738,-4631275.07618 80484.6388685,-4631434.67285 80484.3596206,-4631443.16455 80478.6860969,-4631638.49825 80416.7677549,-4631795.47848 80341.9472096,-4631919.0309 80324.4980222,-4632031.46871 80350.2534291,-4632175.83057 80387.6289389,-4632316.57423 80511.9498855,-4632641.69643 80636.3950087,-4632871.81315 80737.7373789,-4633044.16422 80829.1976467,-4633121.6804 80982.8735248,-4633185.24137 81216.382865,-4633238.927 81427.2467102,-4633289.36758 81490.1329443,-4633323.43956 81548.3494263,-4633377.8602 81615.6492584,-4633490.58599 81671.8217102,-4633591.94463 81709.6731208,-4633680.19928 81710.5735624,-4633683.22923 81742.368331,-4633780.78572 81759.3452513,-4633804.34671 81816.2406023,-4633883.72684 81886.3105587,-4634049.04988 81941.8420502,-4634131.88565 82035.5238216,-4634301.48602 82114.5159535,-4634423.59801 82291.7183039,-4634676.45541 82341.9356182,-4634791.62034 82355.8624896,-4634885.08906 82363.7983796,-4634985.86154 82383.1145431,-4635105.51055 82470.0822237,-4635228.38549 82640.3112685,-4635374.00225 82801.147578,-4635592.31862 82914.0172604,-4635779.05356 82971.5311538,-4636097.98288 83002.7774761,-4636394.54553 83004.4335701,-4636412.60213 83005.5015559,-4636418.13792 83073.3369093,-4636734.90698 83074.8715299,-4636741.45824 83081.0801508,-4636932.68498 83084.5290808,-4637055.81293 83085.4130469,-4637059.34243 83137.1331993,-4637265.56857 83232.2239085,-4637384.71169 83233.9557829,-4637385.26874 83367.2671683,-4637444.66258 83377.8588616,-4637449.51169 83508.7776984,-4637520.82828 83628.1747769,-4637592.76588 83735.063691,-4637695.29563 83832.0545475,-4637779.49753 83994.9232398,-4637844.86511 84128.314031,-4637894.26075 84379.1237809,-4638022.53022 84524.5410891,-4638162.33303 84699.6862352,-4638318.11635 84855.8935436,-4638578.2898 85057.8007243,-4638824.96595 85247.1885543,-4638996.22086 85601.9124208,-4639157.91646 85719.8249582,-4639221.80557 85732.3294956,-4639221.71712 85775.310374,-4639275.63876 85806.263556,-4639315.16268 85808.1794366,-4639317.72607 85877.8182035,-4639412.5305 85907.2399201,-4639453.00417 85945.2908105,-4639664.28427 85894.4137956,-4639842.63305 85791.9922027,-4640075.29222 85773.9395645,-4640228.71806 85801.3579086,-4640337.63486 85902.7181168,-4640478.98996 86022.0365738,-4640560.92851 86079.3933995,-4640671.83128 86043.336852,-4640855.66866 86030.4227618,-4641035.26729 86044.3937785,-4641119.73842 86188.5173344,-4641314.00893 86367.5728879,-4641464.92391 86509.1579764,-4641599.60331 86620.3000459,-4641679.27315 86664.9606457,-4641811.26139 86643.199368,-4641978.56761 86616.8314257,-4642118.71846 86585.3140456,-4642248.1983 86533.7645267,-4642333.0125 86480.2410256,-4642477.76977 86427.3559773,-4642595.54436 86423.2434489,-4642720.42581 86406.2882312,-4642832.88271 86379.3902303,-4642898.00581 86291.7683869,-4642924.12411 86074.4060553,-4642911.46505 85972.254632,-4642870.09585 85970.0396713,-4642869.02278 85881.7957318,-4642838.11295 85781.0293775,-4642845.79592 85724.4111679,-4642871.93504 85704.8310146,-4642874.29061 85663.1506379,-4642864.41684 85485.5668429,-4642851.06753 85419.3096929,-4642881.38975 85293.721416,-4642898.75656 85091.9813764,-4642935.61828 84886.9975384,-4642896.36329 84732.7601907,-4642804.27261 84582.6821635,-4642745.32323 84450.2863201,-4642642.95065 84272.1650359,-4642615.58198 84154.8031729,-4642717.2302 84082.0347268,-4642785.84262 83997.8356427,-4642875.08115 83843.8427773,-4642935.01768 83684.881712,-4642978.78851 83563.60755,-4643039.80244 83441.2970601,-4642965.26556 83373.8918547,-4642871.03438 83280.1676466,-4642748.43313 83215.0983999,-4642583.2704 83174.8480938,-4642484.43304 83064.708488,-4642366.79215 82930.5892151,-4642324.37079 82795.1510108,-4642314.40992 82615.599865,-4642330.49958 82504.8851144,-4642397.36185 82436.4902972,-4642492.62094 82339.871281,-4642624.95492 82275.358886,-4642769.34749 82216.6865726,-4642903.4311 82184.1849355,-4643070.38034 82125.6934267,-4643198.96915 81992.3837933,-4643223.08178 81972.7710404,-4643226.43628 81835.0136196,-4643286.90659 81774.7650598,-4643309.42504 81703.9026003,-4643312.5917 81563.1379296,-4643304.95504 81504.7784894,-4643262.52824 81427.358377,-4643145.9653 81359.6084391,-4643062.22463 81185.2540751,-4642912.96595 81085.8418323,-4642803.6799 80896.3884271,-4642786.43907 80689.0887559,-4642817.61588 80499.8854414,-4642800.38325 80284.5611744,-4642581.76857 80091.7524429,-4642499.41039 79928.4375047,-4642516.03413 79810.8832729,-4642631.17525 79687.0252997,-4642763.11043 79493.8220964,-4642859.75805 78765.0836423,-4642743.24692 78489.3129535,-4642712.66205 78112.8617241,-4642770.77032 77535.2538224,-4642681.2393 77327.9904183,-4642544.40046 77091.4506837,-4642476.60423 76821.9004978,-4642424.22245 76727.9982255,-4642307.11921 76633.704112,-4642209.50495 76418.8934879,-4642142.42484 76143.9318219,-4642087.36506 75981.0938779,-4642082.00215 75808.6548413,-4642049.32064 75602.347023,-4642050.52678 75497.8374951,-4642096.0891 75327.4356909,-4642160.98308 75141.8112258,-4642171.87102 75093.4613427,-4642174.779 74937.9806239,-4642120.65411 74866.0062638,-4642043.7774 74838.4724488,-4642014.3682 74647.2641945,-4641883.56055 74440.0885304,-4641751.72722 74240.7899278,-4641707.16057 74076.8841574,-4641734.26522 73779.1145713,-4641718.95819 73586.8379116,-4641620.61867 73463.8255022,-4641567.56369 73340.6322073,-4641520.00323 73196.780121,-4641439.26 72931.7881847,-4641241.01899 72760.8487951,-4641329.89663 72592.0449399,-4641346.33914 72400.2794795,-4641399.52814 72178.8928712,-4641365.23534 72061.9020625,-4641296.37793 71934.2843366,-4641216.16985 71806.1238417,-4641152.44512 71656.2519308,-4641087.50544 71473.0084226,-4641048.96872 71315.0299346,-4641070.76805 71178.529691,-4641093.27465 70933.9854003,-4641101.72241 70658.5865412,-4641060.15087 70520.5924703,-4640968.60094 70375.1302078,-4640936.80894 70251.0504005,-4640916.22177 70174.5852212,-4640930.20467 70000.8318746,-4640929.98303 69847.7372229,-4640962.94364 69710.7638938,-4641007.43576 69508.5060084,-4641212.28737 69311.9921811,-4641417.32777 69146.5467928,-4641498.88391 68939.1564381,-4641692.56484 68725.6364625,-4641753.53615 68535.1245123,-4641768.76259 68297.8706441,-4641722.94627 68171.1437917,-4641615.76693 68047.9536606,-4641568.2073 67934.7786679,-4641542.97869 67707.6257573,-4641524.49672 67534.4172525,-4641507.79145 67328.824778,-4641487.51947 67171.5566225,-4641487.84001 67030.3542558,-4641486.18955 66914.9112866,-4641408.38389 66905.8518354,-4641402.58526 66805.2946474,-4641328.27009 66802.6133023,-4641326.18169 66712.207281,-4641239.70035 66710.7417385,-4641238.65204 66680.7639432,-4641131.65991 66617.1922824,-4641035.06197 66532.869768,-4641006.78377 66468.0793643,-4640985.14912 66318.0977113,-4640969.20919 66188.9911428,-4640987.45821 66026.7380621,-4641010.11578 65975.0763533,-4641052.91623 65894.1607096,-4641133.75481 65866.8013876,-4641288.86023 65811.9587026,-4641413.05918 65746.365055,-4641590.40618 65670.5918329,-4641750.4171 65556.8416918,-4641909.67703 65439.9334516,-4641997.82993 65300.7550101,-4642101.74981 65116.5784303,-4642258.68941 64790.3494628,-4642280.44449 64588.7742153,-4642138.29957 64327.5282242,-4641993.68937 64135.4298181,-4641859.85743 64015.6414719,-4641777.40912 63831.0257776,-4641788.32868 63499.6848086,-4641760.41417 63201.5330391,-4641582.58851 62931.5564088,-4641543.69515 62705.0476332,-4641498.23338 62393.4931697,-4641400.96923 62252.8234603,-4641390.83576 62133.7593987,-4641453.41566 62126.3361165,-4641458.67128 62024.0731021,-4641527.30461 62019.9950853,-4641529.67035 61867.0089497,-4641612.63321 61753.2523009,-4641665.88745 61750.2061298,-4641667.28714 61556.6703352,-4641766.91446 61361.0027208,-4641779.46959 61144.5955952,-4641761.34093 60864.6041338,-4641692.61694 60600.8457065,-4641624.4278 60363.7820273,-4641573.11835 60192.441748,-4641507.47363 60061.11445,-4641373.14603 59954.0144705,-4641163.61561 59819.9597317,-4640952.69763 59605.1996468,-4640717.62162 59398.0226621,-4640586.29688 59085.2229238,-4640526.99438 58832.6983881,-4640611.17815 58713.4748183,-4640769.75254 58691.8794201,-4640932.04234 58697.5209924,-4641094.72924 58724.0963787,-4641274.60582 58744.6346143,-4641470.78373 58773.236284,-4641596.72679 58785.3856073,-4641713.62787 58747.4611455,-4641885.8799 58633.2834467,-4642050.61986 58499.8530312,-4642154.725 58377.6352969,-4642237.19926 58260.8952051,-4642320.35387 58111.8712158,-4642396.94477 57947.1578555,-4642456.5186 57810.8305334,-4642474.02736 57615.0841173,-4642489.07849 57451.8849725,-4642502.70186 57283.2906462,-4642513.14744 57129.6617968,-4642562.58602 56964.4061216,-4642638.64144 56803.9369771,-4642736.35438 56719.0668871,-4642831.05797 56581.0317889,-4642908.00984 56449.8537492,-4642936.18768 56296.2940866,-4642991.12792 56115.6429686,-4643033.67548 55967.8708658,-4643072.30631 55789.0660409,-4643066.41483 55639.8624203,-4643148.49807 55506.6278019,-4643239.10729 55409.4755447,-4643387.90487 55314.824798,-4643460.78538 55236.5873305,-4643528.70671 55115.3282152,-4643589.71039 54967.7377219,-4643622.84656 54513.4882758,-4643569.87834 54415.5160745,-4643751.14754 54297.888615,-4643861.26979 53796.000846,-4644267.72387 53615.1859108,-4644489.76113 53458.5989751,-4644636.5978 53361.5588522,-4644774.39705 53292.0843119,-4644902.60492 53256.0479133,-4645009.91524 53076.5001115,-4645193.49374 52385.2744708,-4645420.70431 52234.2940121,-4645556.72434 52039.8617779,-4645691.31179 51768.7895286,-4645845.37194 51496.2437661,-4645884.88602 51181.1194138,-4645896.49699 51021.0149661,-4645983.21633 50877.8504885,-4646048.9946 50764.7431313,-4646181.26175 50653.3344542,-4646269.58606 50487.9010109,-4646351.12928 50316.2657476,-4646453.9672 50204.8571599,-4646542.29114 50054.4042653,-4646662.32657 49888.5264792,-4646757.35405 49744.1109236,-4646861.08873 49605.3018108,-4646954.0085 49461.9567535,-4647025.27932 49357.3898422,-4647065.32985 49260.5427129,-4647045.63706 49156.0153625,-4646917.69505 49062.0337199,-4646811.10011 48919.7987977,-4646681.91508 48772.975791,-4646525.08005 48548.0977291,-4646430.66911 48369.6452586,-4646414.28584 48206.0084742,-4646441.38924 48003.5255108,-4646494.21059 47909.0578419,-4646561.59276 47731.7496451,-4646669.74149 47559.2271824,-4646799.54682 47304.459864,-4646959.63843 47125.373281,-4647121.72519 46919.4820171,-4647277.92797 46747.4867698,-4647391.75033 46573.7813551,-4647565.0131 46420.9393831,-4647749.96305 46362.1062743,-4647889.01562 46291.46465,-4648060.177 46291.7697826,-4648217.67904 46129.4827427,-4648529.81016 45810.9316222,-4648812.28774 45140.939489,-4649055.673 44553.2831682,-4649432.76461 43931.1808044,-4649702.22387 43599.6126982,-4649886.77263 43476.3121898,-4650002.197 43345.9881091,-4650171.38598 43135.1477277,-4650310.91988 42785.7937267,-4650375.38786 42560.8647886,-4650449.46063 42444.4918063,-4650521.61552 42367.230957,-4650567.56282 42288.2702183,-4650657.4509 42187.7659207,-4650741.12841 42119.8088913,-4650830.87947 41997.9423536,-4650902.85266 41905.2554309,-4650916.29292 41795.1193061,-4650920.65796 41580.7294621,-4651046.57353 41468.432995,-4651161.85897 41304.740183,-4651357.44201 41054.5110809,-4651539.1696 40843.8531191,-4651673.20644 40681.4128862,-4651830.83266 40440.6171375,-4651893.37969 40281.3394188,-4651947.61795 40068.6523867,-4651984.09454 39962.240776,-4651921.08713 39871.5327339,-4651874.59679 39691.8520964,-4651895.66407 39597.2045898,-4651968.53383 39485.5489344,-4652056.84078 39396.3949993,-4652129.8917 39328.4215729,-4652220.14027 39266.0546276,-4652299.57477 39160.1422157,-4652388.07094 39007.2490867,-4652415.5213 38807.0810971,-4652398.4148 38623.7047123,-4652364.86408 38332.8299958,-4652301.26733 38110.246023,-4652304.41905 38003.5239809,-4652409.88627 37873.2006096,-4652579.06835 37786.6036418,-4652733.69517 37665.7361722,-4652957.18401 37532.952636,-4653034.29278 37394.6756511,-4653111.22008 37229.9747707,-4653170.77642 36922.6937386,-4653437.60491 36643.9495683,-4653718.37345 36424.9126456,-4653932.11946 36350.7363788,-4654149.64848 36258.3645182,-4654365.57661 36065.4649528,-4654749.16777 35748.6508275,-4655145.66402 35502.8452689,-4655360.02311 35397.3272453,-4655595.51356 35227.4308094,-4655812.379 35017.9704068,-4656212.91796 34733.9710935,-4656463.50914 34176.1143429,-4656922.52873 33748.3513663,-4657385.84384 33329.4293418,-4657914.44171 32960.0438331,-4658260.1951 32532.2792526,-4658723.50398 32135.4253735,-4659242.32604 31687.0087783,-4659672.45176 31160.07758,-4660186.46929 30369.7263149,-4660789.76223 29122.1865746,-4661763.38109 27913.4011572,-4662547.7933 27744.3758288,-4663063.13146 27870.0393435,-4663533.72515 28163.735445,-4663836.40199 28458.755321,-4664106.62789 28776.6866178,-4664334.11832 29005.9914698,-4664618.66956 29040.466188,-4664891.27576 29034.0218125,-4665086.03785 29005.4736803,-4665291.5671 28976.941826,-4665496.59694 28960.8175464,-4665659.04279 28933.3594754,-4665831.61225 28904.8269721,-4666036.64204 28832.0061533,-4666273.2019 28704.7680478,-4666507.46063 28559.2790861,-4666643.62738 28336.1952144,-4666820.71998 28157.1549695,-4666988.77135 27964.9956662,-4667220.87975 27773.1833275,-4667442.50052 27527.1873294,-4667662.32705 27206.359221,-4667847.17982 26982.1030514,-4668067.22486 26737.7108403,-4668238.60912 26603.3220954,-4668364.14189 26491.731332,-4668457.93376 26246.8100629,-4668645.29721 25946.9946929,-4668852.33936 25557.0456036,-4669154.38211 25124.6278275,-4669433.02008 24748.1959214,-4669659.01866 24544.20694,-4669923.72298 24277.2156112,-4670120.84944 23893.9844212,-4670227.63767 23477.6973574,-4670343.82866 23158.6585433,-4670474.73863 22815.051841,-4670690.82084 22330.2414478,-4670913.72218 21866.0791035,-4671169.80095 21553.0147181,-4671452.38123 21399.383078,-4671826.7296 21273.958086,-4672337.99036 21249.3558524,-4672424.16105 21202.2048772,-4672542.07921 21064.5718373,-4672765.48104 20788.398757,-4672907.80317 20480.7117526,-4673028.08367 20193.438621,-4673181.03495 19840.1554301,-4673364.79203 19608.0256145,-4673498.07356 19374.5536732,-4673664.30459 19056.2628761,-4673772.73265 18792.1370265,-4673883.45579 18486.2567932,-4673949.30179 18190.4014333,-4674036.97599 17936.6485893,-4674159.03982 17651.8944603,-4674236.0832 17369.5262731,-4674248.71696 17043.8288252,-4674248.91589 16683.7708881,-4674312.96335 16375.8559966,-4674432.72928 16088.2904328,-4674602.16024 15841.9322327,-4674832.94572 15682.2287486,-4675066.10441 15716.86235,-4675333.20273 15874.5046654,-4675810.34251 15882.624624,-4676198.53941 15767.012628,-4676436.1594 15758.3822818,-4676696.32453 15749.0391795,-4676977.9621 15762.8424146,-4677217.37566 15795.9639026,-4677522.41828 15851.0732024,-4677827.69081 15864.1627956,-4678088.57729 15810.6440746,-4678390.74568 15758.5664812,-4678649.4698 15660.4103943,-4678993.64875 15543.4317988,-4679249.7188 15471.1982867,-4679528.26986 15268.1508553,-4679696.49827 14869.2675273,-4679943.70985 14509.5184505,-4680322.19477 14144.7123827,-4680852.98137 13706.1168846,-4681641.26625 13021.7421594,-4682333.90189 9217.18787419,-4678580.33403 9207.99879428,-4678571.03101 7367.24012966,-4676701.35241 6006.23272284,-4675318.0158 3833.98804945,-4673112.00197 3154.63821255,-4672419.64961 -4482.45450073,-4664641.77828 -6711.15669784,-4662399.20209 -14985.3417568,-4653972.51895 -17213.6878831,-4651720.77253 -25592.1094069,-4643201.89275 -27668.9478785,-4641107.89633 -31373.5895554,-4637344.16538 -31382.544833,-4637335.37482 -36096.0704587,-4632546.69157 -38059.7250599,-4630552.18035 -42158.8965891,-4626387.78574 -46538.9840582,-4621922.60962 -48432.8298963,-4619986.16375 -46623.7744384,-4618166.80753 -44881.1020514,-4616413.67924 -43157.0537288,-4614679.88148 -42160.9322852,-4613620.73642 -41349.1197582,-4612818.37025 -39571.6412606,-4611062.74571 -37741.2144413,-4609254.34186 -35958.5608559,-4607493.29647 -35482.4203111,-4607022.66895 -34263.491364,-4605789.80392 -32483.9945871,-4604056.54984 -30649.5181002,-4602269.57959 -28744.2528953,-4600403.91959 -28670.3021677,-4600488.29385 -28571.0908299,-4600549.00708 -28421.7307487,-4600604.36373 -28217.6031327,-4600643.02094 -28090.2852637,-4600654.18004 -27935.9131105,-4600609.75339 -27808.9289678,-4600592.91625 -27565.5682514,-4600493.92902 -27394.4164354,-4600433.05951 -27278.7559714,-4600349.88628 -27140.2864639,-4600233.97602 -27018.9857936,-4600123.50112 -26908.7310318,-4599991.67579 -26792.6720129,-4599881.02915 -26637.8858025,-4599831.61739 -26527.7805335,-4599803.73305 -26422.7392473,-4599793.17412 -26284.3794959,-4599764.71413 -26162.8333283,-4599776.68344 -26074.4230705,-4599831.54703 -26013.9167322,-4599914.48364 -25942.2856953,-4599985.79014 -25826.3093204,-4600030.56076 -25721.1196815,-4600068.98186 -25616.2717008,-4600041.42542 -25522.1730361,-4600014.01725 -25334.363382,-4599925.20537 -25190.869312,-4599831.44628 -25085.8780369,-4599715.43891 -24959.1152909,-4599583.15164 -24875.9963966,-4599455.93419 -24809.8835153,-4599329.16019 -24732.3715789,-4599151.78428 -24571.980239,-4598992.10963 -24489.3630062,-4598964.32531 -24362.0477344,-4598914.51367 -24240.607415,-4598914.48499 -24075.0466239,-4598925.3937 -23865.1156037,-4598947.248 -23522.4739513,-4599052.4012 -23445.382494,-4599124.88656 -23373.6096101,-4599207.19323 -23240.7734606,-4599279.0022 -22898.6547135,-4599423.12052 -22760.3327136,-4599434.13906 -22660.5534751,-4599439.39985 -22395.8279294,-4599428.56319 -22202.2643854,-4599431.39248 -21937.5810683,-4599483.02427 -21625.4294343,-4599626.66459 -21526.2523157,-4599703.87136 -21412.6552263,-4599821.53052 -21307.7437113,-4599914.41761 -21293.6051934,-4600009.33467 -21292.6799393,-4600103.31998 -21326.5469735,-4600176.17729 -21384.4115835,-4600272.23845 -21476.4045288,-4600449.14432 -21634.811005,-4600624.37809 -21856.6327706,-4600828.52285 -21985.1331248,-4600929.76993 -22043.1285288,-4601029.82412 -22041.550894,-4601103.83993 -22036.3760472,-4601182.4712 -22023.2020491,-4601253.36793 -21943.0387619,-4601315.96053 -21876.7042902,-4601404.0884 -21777.4442303,-4601509.28545 -21706.2224469,-4601616.06445 -21565.1417742,-4601726.12789 -21486.9868332,-4601850.12576 -21334.1859718,-4601968.56912 -21131.1194362,-4602078.16188 -20987.5238625,-4602111.34518 -20860.6686292,-4602144.48073 -20755.5460646,-4602177.40524 -20567.9830091,-4602188.03827 -20396.6936675,-4602199.63831 -20291.5754585,-4602171.5916 -20181.1919362,-4602127.7246 -20081.9313984,-4602072.49889 -19998.8328798,-4601984.25972 -19855.4020219,-4601884.9999 -19761.3577126,-4601790.62153 -19673.1409014,-4601691.05478 -19590.2127868,-4601569.82496 -19545.9633842,-4601492.80879 -19435.7731678,-4601431.94265 -19352.7233123,-4601398.67555 -19253.2778375,-4601398.92931 -19076.3043072,-4601343.74549 -18948.9388473,-4601338.41534 -18816.6741788,-4601343.74057 -18716.939147,-4601327.51137 -18562.4701708,-4601288.08369 -18424.4366236,-4601178.15052 -18148.2808384,-4600940.29468 -18070.6644099,-4600813.39197 -18026.8187856,-4600702.87682 -17999.1052711,-4600581.33887 -17932.6539579,-4600482.55777 -17833.3671702,-4600388.34867 -17723.0665049,-4600316.4896 -17584.651913,-4600256.04493 -17496.4829646,-4600211.44934 -17424.6025535,-4600145.33058 -17352.6357479,-4600084.21232 -17272.323971,-4600035.36146 -17253.4602856,-4600023.98364 -17098.8717195,-4599935.08036 -16938.4485849,-4599835.87236 -16877.8404045,-4599785.87723 -16794.6711625,-4599703.13467 -16684.3392971,-4599653.26578 -16529.8310358,-4599620.33422 -16286.7883278,-4599592.79603 -16071.3151398,-4599598.34137 -15966.3680328,-4599636.75708 -15889.0215171,-4599686.26516 -15817.222423,-4599752.58444 -15767.4928827,-4599813.68419 -15717.7470304,-4599874.28472 -15646.1275096,-4599946.09588 -15529.9954252,-4600039.85356 -15380.9020844,-4600073.21606 -15286.9850216,-4600089.78103 -15198.590233,-4600084.17506 -15077.0722265,-4600089.64778 -14988.8337483,-4600073.54125 -14916.8350967,-4600034.41347 -14795.36924,-4599957.42022 -14607.6152949,-4599863.10267 -14452.9701737,-4599780.19697 -14309.3498722,-4599736.41365 -14215.3838844,-4599698.00376 -14116.3476964,-4599703.24096 -14033.2194494,-4599736.44584 -13911.6336753,-4599846.8757 -13834.3202026,-4599973.85047 -13795.5125242,-4600078.57524 -13757.1952688,-4600144.80044 -13712.8475189,-4600194.72989 -13618.8682946,-4600255.27848 -13513.9054576,-4600316.18631 -13409.2064213,-4600354.59515 -13293.1950954,-4600360.38793 -13232.3913592,-4600327.39104 -13050.0031962,-4600244.39273 -12878.835671,-4600023.08532 -12773.7898014,-4599951.55164 -12668.8840034,-4599869.01788 -12552.8074454,-4599819.33566 -12442.4722701,-4599769.46565 -12282.1371201,-4599680.74726 -12160.778662,-4599614.74433 -12050.0841248,-4599553.89035 -11917.5853449,-4599498.74711 -11746.479406,-4599493.34602 -11586.7304517,-4599476.07835 -11415.3657451,-4599432.2015 -11222.205312,-4599432.51938 -11106.3466802,-4599404.82027 -10978.8791149,-4599366.00536 -10857.4890016,-4599321.99372 -10802.3308394,-4599255.32492 -10735.9555779,-4599189.5226 -10653.1871294,-4599073.27683 -10553.7471339,-4598951.5784 -10487.4957389,-4598874.27643 -10465.3937159,-4598825.01918 -10459.8885758,-4598664.26415 -10498.4542796,-4598498.56988 -10531.8728052,-4598366.53039 -10570.2061166,-4598277.81272 -10597.939463,-4598239.42135 -10636.8174741,-4598106.20396 -10653.2966473,-4597868.76126 -10653.3254236,-4597747.3095 -10647.6828969,-4597620.54532 -10680.6876947,-4597460.53099 -10680.817918,-4597311.58706 -10691.7298294,-4597217.2685 -10642.1345328,-4597068.45019 -10548.3837601,-4596952.56199 -10460.062864,-4596880.47847 -10365.9546377,-4596853.06607 -10255.4472493,-4596836.18551 -10172.7127218,-4596797.40579 -10067.8456898,-4596731.36049 -9951.73685457,-4596703.66726 -9835.73722317,-4596686.96603 -9708.77641755,-4596686.6166 -9592.81730617,-4596709.39832 -9521.137952,-4596764.21981 -9427.00620827,-4596797.28399 -9322.15483943,-4596808.20741 -9222.57835899,-4596819.95808 -9084.50748453,-4596808.47638 -8985.06956648,-4596786.23592 -8902.38977586,-4596764.44741 -8813.8427087,-4596731.35512 -8725.48978103,-4596681.26311 -8631.44255115,-4596609.86553 -8532.26065158,-4596526.64032 -8454.82968918,-4596443.70387 -8305.74328438,-4596378.10292 -8200.75746565,-4596339.04997 -8112.49877983,-4596322.44148 -8051.40488629,-4596272.95771 -7996.27796188,-4596184.29401 -7924.28501342,-4596107.17709 -7836.18286579,-4596080.06737 -7675.96166098,-4596040.81965 -7438.37384132,-4595997.10244 -7272.71451094,-4595875.56372 -7151.149606,-4595765.07928 -7084.79584877,-4595615.80487 -7013.07425331,-4595455.21006 -6941.41729688,-4595373.08321 -6869.40786898,-4595295.4661 -6792.01558894,-4595229.0206 -6648.55185064,-4595190.22392 -6493.76052157,-4595217.7724 -6427.67409502,-4595267.91339 -6311.726379,-4595344.67403 -6195.73321426,-4595389.44826 -6079.59812894,-4595422.23168 -5930.49412737,-4595455.59248 -5742.55238547,-4595455.23526 -5588.14241614,-4595433.2901 -5483.10094685,-4595400.23547 -5367.23048201,-4595334.04696 -5168.11581763,-4595190.60739 -5002.74245527,-4594986.08713 -4914.13031273,-4594897.51547 -4820.27524218,-4594709.6513 -4742.90569709,-4594582.72595 -4682.10679135,-4594488.74699 -4615.94106512,-4594306.97525 -4577.50970053,-4594063.81941 -4544.26725182,-4593826.49177 -4599.51144611,-4593666.24496 -4660.08487826,-4593500.82603 -4765.16630796,-4593351.4473 -4881.27261495,-4593141.73061 -5008.23913617,-4592943.15537 -5074.53873049,-4592777.05033 -5091.12706694,-4592611.56903 -5085.53512041,-4592440.31438 -5008.29184045,-4592301.88805 -4903.20469299,-4592213.85265 -4743.28557138,-4592191.58416 -4615.82086982,-4592191.24763 -4483.43448527,-4592208.56547 -4323.17865342,-4592191.30613 -4190.58933048,-4592164.14666 -3942.19052851,-4592103.28188 -3737.73902379,-4592025.98738 -3599.81300556,-4591965.51386 -3483.60600214,-4591904.33112 -3373.2273973,-4591837.95977 -3340.23462092,-4591799.55095 -3301.35144586,-4591710.8523 -3257.21035731,-4591644.81731 -3224.30333314,-4591578.41551 -3196.61656037,-4591495.8489 -3185.62602293,-4591335.26453 -3174.81578688,-4591203.16418 -3163.42839476,-4591015.1024 -3185.62654007,-4590898.91849 -3202.20813349,-4590794.4139 -3213.29682627,-4590667.09673 -3202.17382207,-4590578.99101 -3180.276842,-4590451.75087 -3130.3714308,-4590346.91731 -3025.41494568,-4590285.86574 -2948.14765713,-4590230.90788 -2876.35626971,-4590175.27142 -2804.55897365,-4590104.14052 -2782.59844324,-4590020.88664 -2754.64643064,-4589937.82829 -2688.41179702,-4589861.01759 -2550.40141579,-4589706.07735 -2473.21366553,-4589584.63953 -2357.12520604,-4589496.46001 -2307.44415074,-4589452.09728 -2235.77779887,-4589407.95216 -2136.1409808,-4589402.70669 -2047.73825832,-4589397.09459 -1976.09390755,-4589368.94316 -1904.31858892,-4589313.80526 -1821.39520968,-4589231.04071 -1727.49666344,-4589087.6551 -1611.63486571,-4588960.48072 -1550.69058183,-4588839.01156 -1169.6010634,-4588342.11943 -1081.07578813,-4588202.55597 -987.312398197,-4588009.68127 -882.32058484,-4587832.66744 -760.819720377,-4587678.18457 -628.215254153,-4587551.05466 -501.195813468,-4587457.23118 -407.293465495,-4587390.31786 -335.463761933,-4587341.17825 -252.443574841,-4587324.39304 -97.9960524917,-4587324.43316 28.8868637208,-4587319.07554 222.437962225,-4587307.89545 327.335447632,-4587302.32044 404.581731559,-4587263.35401 481.990933732,-4587219.3945 608.972989254,-4587142.06353 691.874638328,-4587098.28308 840.830756127,-4587098.14391 979.067902288,-4587120.1478 1122.67287222,-4587130.83057 1211.2786358,-4587103.73075 1282.94619136,-4587059.58366 1371.12943832,-4586976.48798 1465.05474998,-4586893.57952 1547.95683047,-4586849.79874 1746.80283351,-4586722.32795 1879.35455095,-4586612.18817 1967.68478603,-4586501.60544 2094.84701308,-4586418.78083 2288.18477268,-4586291.62925 2398.67446669,-4586214.25862 2475.8729708,-4586153.79639 2547.77449251,-4586087.1632 2614.02627574,-4586009.84896 2691.49077248,-4585948.89537 2801.86141859,-4585844.52883 2873.7791333,-4585800.3889 2923.48293486,-4585740.02924 2967.74865085,-4585662.49745 3067.06952398,-4585513.78376 3183.13375808,-4585342.12316 3287.85468798,-4585204.08191 3348.76609355,-4585060.61304 3387.32768735,-4584828.44222 3420.73300306,-4584624.09453 3453.75262941,-4584370.24931 3514.43532892,-4584187.78435 3647.18196052,-4583933.69137 3735.29389702,-4583707.13391 3763.03766266,-4583569.08063 3779.63372759,-4583458.65538 3779.51904644,-4583370.17848 3785.11370964,-4583259.89438 3790.69684139,-4583088.62838 3840.12080308,-4582806.82534 3862.40238575,-4582552.62875 3895.46356055,-4582381.75833 3912.05398743,-4582309.82096 3939.75888233,-4582188.2609 3950.57414443,-4582094.14189 3961.70966064,-4582005.53164 3978.28365912,-4581934.09349 4000.39936435,-4581884.32947 4039.25852917,-4581834.61127 4094.45350637,-4581751.43565 4205.01815469,-4581641.07314 4265.76002233,-4581564.07633 4293.2431396,-4581502.99051 4353.89758482,-4581397.99911 4387.1065786,-4581337.59967 4436.61828954,-4581221.74814 4480.81180814,-4581138.71341 4519.76242863,-4581055.50779 4563.79370888,-4581000.45938 4619.25497332,-4580939.78516 4718.31435456,-4580868.03526 4780.04464478,-4580822.06094 4842.72984377,-4580762.12182 4883.46167874,-4580723.9607 4918.68469732,-4580686.1199 4937.72348516,-4580661.74762 4962.09099202,-4580596.56101 4978.35038347,-4580550.10461 5024.56411717,-4580520.11967 5076.3141916,-4580504.31099 5155.20730219,-4580506.8816 5217.54645485,-4580495.91663 5274.73473235,-4580474.28689 5307.40113426,-4580422.86658 5339.80721878,-4580379.43543 5358.7797501,-4580311.0737 5375.49966948,-4580235.14074 5375.28632147,-4580172.65197 5380.56551867,-4580110.34215 5380.53107409,-4580042.3608 5391.72641485,-4579990.24082 5421.53818233,-4579949.72415 5462.33011065,-4579925.06071 5516.74525267,-4579911.83791 5576.32763024,-4579908.78056 5633.59864653,-4579930.64068 5668.78547471,-4579955.28029 5717.93651133,-4579957.88137 5799.41359899,-4579965.5345 5872.62994019,-4579965.92052 5905.39524522,-4579957.49077 5932.42329773,-4579933.37855 6000.30784847,-4579859.61206 6062.98765085,-4579792.17408 6103.60510534,-4579734.51427 6117.49295935,-4579699.47688 6122.83214496,-4579650.66483 6117.18611852,-4579601.49489 6087.47972862,-4579539.04468 6052.23120834,-4579454.92009 6022.12941897,-4579419.94917 6019.27913937,-4579392.36419 6016.71032498,-4579340.79524 6024.9640241,-4579294.57743 6030.3136765,-4579237.76801 6038.52196156,-4579131.56586 6038.46596425,-4579079.5789 6043.93585246,-4579049.76566 6054.57792988,-4579014.62247 6076.46054835,-4578987.34329 6111.91201801,-4578965.50468 6169.0029207,-4578946.87024 6242.03412347,-4578922.25689 6350.9291957,-4578870.81971 6443.2984879,-4578843.33722 6514.22432842,-4578829.6521 6693.4875933,-4578797.00233 6804.96253286,-4578789.13678 6867.49183481,-4578764.68106 6902.5254713,-4578740.32939 6948.91847774,-4578704.85096 6978.81732402,-4578669.33508 7017.01529991,-4578647.58576 7052.69467421,-4578618.75634 7104.67874835,-4578603.45438 7148.24496433,-4578593.37669 7174.88842217,-4578588.74609 7219.67614772,-4578587.20581 7270.40706728,-4578587.35871 7318.80968617,-4578589.93507 7366.05100569,-4578597.47223 7402.38347779,-4578617.65045 7416.95680177,-4578630.6217 7436.04037738,-4578643.24001 7456.88219391,-4578647.9178 7474.78739534,-4578643.00257 7504.22603142,-4578636.96344 7531.86252744,-4578624.86726 7547.63948794,-4578600.88794 7566.92234854,-4578569.02502 7611.73540943,-4578513.00059 7632.48373191,-4578482.1851 7644.3367783,-4578463.57643 7669.90438588,-4578422.92066 7684.25896378,-4578388.89771 7694.21226122,-4578367.22796 7706.06530132,-4578348.61927 7736.28467243,-4578318.6121 7765.29880396,-4578279.56813 7798.21001386,-4578243.65026 7824.56483521,-4578209.51827" style="stroke-linejoin:round;stroke:#000;stroke-width:1px;fill:none" /></g></g></svg>