<svg xmlns="http://www.w3.org/2000/svg" baseProfile="full" height="89988.3444449" version="1.1" viewBox="-23027.972656,4414895.713653,108917.105964,89988.344445" width="108917.105964"><defs><style type="text/css">polyline,line,rect,path,polygon,.polygon{fill:none;stroke:#000;stroke-width:1px;stroke-linejoin:round;}</style></defs><g fill_rule="evenodd" transform="scale(1,-1)"><g class="hogares departamen mujeres departam_1 toponimo_i tot_pob varones viv_part viv_part_h" id="58084"><polygon class="_58084" id="None" points="27389.1151792,-4429288.38007 27644.4401739,-4429518.77221 27759.632404,-4429621.81525 27885.1229716,-4429770.87191 27998.4741166,-4429856.83018 28106.8208068,-4429933.52956 28250.768995,-4430003.12546 28328.6135647,-4430089.6977 28442.055357,-4430178.65935 28567.3908377,-4430264.75513 28670.7111735,-4430323.20157 28767.7089182,-4430387.80781 28930.2068781,-4430437.4047 29082.462334,-4430463.47451 29260.3305277,-4430449.43386 29465.0128912,-4430377.35913 29702.2127806,-4430248.05232 29835.4845269,-4430184.67717 29962.1956543,-4430131.94576 30063.2678883,-4430119.82347 30182.7588034,-4430203.11202 30296.2290527,-4430291.57728 30391.985261,-4430379.60202 30464.1278061,-4430465.37405 30594.9419423,-4430561.25605 30697.920341,-4430626.18123 30830.3900256,-4430686.17678 30952.6434309,-4430722.14654 31062.62163,-4430763.4605 31192.5515466,-4430758.3669 31305.2656323,-4430752.85894 31362.0852192,-4430684.92487 31451.5184061,-4430666.18917 31615.1955727,-4430698.36243 31670.2328034,-4430772.23522 31798.270646,-4430920.43509 31902.9325089,-4431061.89803 31995.9537037,-4431196.74734 32090.3989849,-4431314.18456 32167.2510697,-4431424.19232 32263.3255135,-4431506.24081 32353.103466,-4431593.95101 32409.4103613,-4431643.9087 32526.2948171,-4431668.10292 32632.4228936,-4431673.73831 32865.6261162,-4431615.16964 33135.4076503,-4431540.55514 33351.8077867,-4431582.02546 33565.498705,-4431669.82082 33848.9744847,-4431897.23111 33917.3080147,-4432054.75677 33959.3927271,-4432151.42847 33972.3975043,-4432240.55995 34000.6450576,-4432371.97323 34059.3967243,-4432493.51429 34086.0826729,-4432654.32516 34090.2343466,-4432801.9473 34024.0169549,-4433046.76453 33971.4379496,-4433368.75481 34024.3282193,-4433595.91441 34175.147822,-4433757.32371 34315.8199027,-4433888.71403 34445.6592314,-4433890.11507 34576.3594087,-4433767.14419 34681.8304719,-4433672.31333 34807.1119614,-4433312.70997 34911.0213602,-4433247.27605 35074.9700653,-4433161.54644 35292.937137,-4433060.69747 35487.2103899,-4432959.08926 35649.2388628,-4432914.22997 35798.3299287,-4432887.17136 35945.8862777,-4432889.01235 36115.9773033,-4432904.04246 36278.0999312,-4432965.61908 36410.1895261,-4433037.59299 36481.740853,-4433129.8365 36525.318618,-4433203.10554 36553.1795113,-4433346.49425 36545.6892747,-4433487.50555 36556.1786864,-4433623.97546 36546.4646536,-4433806.84168 36542.8245379,-4433983.53472 36545.5042868,-4434266.99518 36702.9147155,-4434417.26698 36821.0741652,-4434417.5484 36923.1068657,-4434387.49184 37043.4372923,-4434346.91464 37119.8994362,-4434238.5484 37196.9018419,-4434124.7142 37253.7271291,-4434056.7781 37268.1645769,-4433949.61361 37227.32433,-4433829.51896 37170.3568111,-4433679.08646 37167.2096409,-4433625.45328 37148.7931632,-4433530.03508 37144.0337455,-4433393.86875 37310.1145489,-4433272.77308 37463.4033089,-4433274.91906 37598.9349532,-4433282.11806 37675.1031189,-4433292.16008 37743.3443547,-4433343.25492 37777.5829258,-4433423.02447 37889.8026487,-4433586.88608 37994.4669711,-4433728.36052 38133.1464293,-4433789.19386 38367.6580009,-4433819.14067 38499.0907841,-4433790.64476 38671.300291,-4433718.84314 38836.4071927,-4433503.2528 38892.8912362,-4433328.86296 38938.2539375,-4433156.88038 38963.2304643,-4433001.80373 38974.0887061,-4432891.44904 38961.8650437,-4432759.38108 38995.9392824,-4432498.853 39035.0753639,-4432429.97532 39071.4063384,-4432413.91591 39113.1235954,-4432404.63854 39194.6637903,-4432426.45821 39252.2178547,-4432453.00036 39323.5832782,-4432445.29755 39424.0566287,-4432444.63724 39518.2330595,-4432449.63882 39642.3753214,-4432450.23553 39739.1595683,-4432514.3396 39808.0377322,-4432553.47603 39882.0111187,-4432604.87582 40015.349528,-4432653.43224 40097.8680055,-4432769.7469 40149.0625072,-4432878.40168 40226.920079,-4432978.97851 40354.3428969,-4433167.1368 40429.2934638,-4433313.0322 40543.7913728,-4433490.51077 40638.6279933,-4433595.988 40661.1186901,-4433727.6043 40682.4180325,-4433881.64386 40728.2861261,-4434019.99891 40783.0346134,-4434099.36153 40867.0874338,-4434186.77717 40995.0821582,-4434223.05942 41138.5461028,-4434189.20589 41242.4626647,-4434123.76882 41288.165701,-4433931.31275 41317.4229649,-4433714.49686 41117.8502243,-4433337.11415 41028.1585335,-4433139.46524 40954.8892382,-4433013.64646 40958.0834822,-4432915.87475 41063.5605336,-4432821.03703 41120.0695774,-4432759.07716 41211.9576612,-4432698.99624 41296.6643423,-4432656.5231 41395.484828,-4432578.82086 41523.4293229,-4432503.16493 41645.6699544,-4432426.70618 41840.6153179,-4432425.56628 41921.8401321,-4432453.3662 41963.6101302,-4432556.02543 42108.4553035,-4432679.65008 42163.0651314,-4432860.44611 42218.4240328,-4432928.34832 42286.0597621,-4432990.90619 42331.9053288,-4433016.82752 42412.812758,-4433050.60767 42518.0668312,-4433068.19126 42618.8609636,-4433061.55194 42666.5593879,-4433052.59214 42759.5898672,-4432801.68206 42807.908852,-4432729.29191 42850.5804533,-4432702.07538 42887.2304384,-4432680.03582 42929.9020604,-4432652.81925 42998.4398169,-4432585.50043 43064.7809769,-4432559.54088 43148.176876,-4432546.48015 43241.6796361,-4432568.93603 43310.3109897,-4432608.06065 43389.022676,-4432683.20031 43467.3592856,-4432774.81071 43478.1851669,-4432787.37882 43523.6115248,-4432868.24655 43585.5349372,-4432948.99116 43727.1703745,-4433015.48034 43885.4008358,-4433042.37421 44020.008372,-4433053.02192 44094.0713379,-4433060.45382 44241.2519609,-4433050.78128 44374.4637296,-4432965.40908 44522.7746567,-4432896.82962 44639.1827483,-4432822.05802 44737.8716091,-4432779.82635 44837.2486801,-4432724.63842 44895.0029064,-4432695.72378 44955.473291,-4432690.93995 45027.2680807,-4432698.75087 45106.0147297,-4432730.91765 45246.8629586,-4432802.86256 45407.4587338,-4432879.35458 45606.8723557,-4432982.3951 45801.7275872,-4433020.72939 46025.5213588,-4433041.1116 46185.794445,-4432973.16641 46363.9571345,-4432874.18864 46445.9064133,-4432766.10252 46506.4406044,-4432684.86361 46558.3664077,-4432615.16088 46608.2111717,-4432509.3671 46645.2117592,-4432414.88456 46675.5713806,-4432276.07313 46741.0291564,-4432182.10228 46806.5617879,-4432096.13095 46875.8223652,-4432085.81669 46956.8620272,-4432070.1312 47000.9637813,-4432072.47327 47067.5845556,-4432125.98431 47114.3097666,-4432182.43668 47149.2474601,-4432206.78002 47195.4498244,-4432287.19181 47257.1267207,-4432367.92578 47319.0527522,-4432448.67307 47436.8469319,-4432498.40584 47555.8832506,-4432501.22977 47699.2409893,-4432488.35447 47828.4418212,-4432379.77769 47926.7907835,-4432231.08257 47977.1212002,-4432097.3278 48010.8827798,-4432002.67184 48029.9394681,-4431860.2598 48031.6290072,-4431781.39133 48017.197685,-4431709.66257 48035.6099816,-4431598.19985 48069.5188849,-4431496.05548 48118.9773609,-4431402.23276 48152.5906071,-4431315.06463 48202.8207254,-4431197.29539 48236.7557509,-4431094.65238 48239.3156255,-4430975.85107 48241.3793017,-4430880.51102 48300.0562283,-4430730.70708 48325.219423,-4430652.08521 48382.6529177,-4430582.17291 48423.8155723,-4430503.40091 48497.5194623,-4430385.87773 48562.8776292,-4430307.89034 48659.5095843,-4430238.55947 48795.2170821,-4430209.78279 48866.5847418,-4430211.57262 48985.327486,-4430229.37048 49111.3207633,-4430280.03644 49268.6896342,-4430346.86072 49346.6157816,-4430403.97039 49398.9723606,-4430453.22601 49424.6919994,-4430477.07987 49501.9215777,-4430566.13626 49596.74039,-4430592.15957 49707.3098627,-4430618.01967 49825.1562232,-4430676.24979 49988.6363608,-4430830.35516 50033.3240593,-4430958.16381 50078.5099571,-4431085.99903 50108.1170887,-4431182.5227 50153.1528235,-4431294.35829 50198.8610165,-4431398.23375 50260.1919209,-4431494.94296 50314.2197852,-4431559.78045 50323.7207215,-4431686.72082 50320.6107084,-4431829.98291 50325.553349,-4431972.17339 50330.7165188,-4432091.38727 50345.7191344,-4432147.65589 50343.8284962,-4432235.01115 50348.843535,-4432361.71341 50386.1273291,-4432473.63785 50390.9166896,-4432632.81174 50428.5488524,-4432728.76293 50472.5370304,-4432888.51971 50501.572961,-4433023.99428 50494.1744272,-4433055.0854 50484.2795853,-4433095.53912 50481.368448,-4433230.31631 50487.3024562,-4433325.58355 50572.6050555,-4433422.5681 50673.6318849,-4433519.88835 50735.5590173,-4433600.63903 50813.3100199,-4433665.73868 50937.4382474,-4433803.2671 51030.9151508,-4433892.19097 51123.7410927,-4433998.07194 51182.3790719,-4434046.66445 51236.580223,-4434103.51708 51298.5072271,-4434184.26854 51352.8095672,-4434248.62296 51406.8362459,-4434313.46256 51452.964098,-4434385.8786 51544.9970142,-4434530.19929 51638.2728771,-4434627.60947 51852.1337345,-4434656.46364 52002.8995944,-4434659.47656 52114.9396495,-4434605.95854 52179.3562358,-4434559.90524 52301.0631461,-4434451.42765 52430.7951798,-4434318.88806 52485.832006,-4434251.84606 52542.3903482,-4434184.38507 52602.7081002,-4434126.11937 52672.9384075,-4434045.8911 52764.3922654,-4433984.78154 52857.9267772,-4433879.80361 52923.4445323,-4433808.32029 53032.340847,-4433748.13698 53140.2997434,-4433700.8975 53257.4518178,-4433654.64605 53329.3502996,-4433622.98241 53409.9918721,-4433600.77889 53490.1460635,-4433583.0473 53591.0631521,-4433588.40819 53692.2186003,-4433589.28388 53884.6281293,-4433617.49653 54055.3640565,-4433635.06239 54191.4159968,-4433642.28978 54321.0765286,-4433605.19825 54435.3347104,-4433552.29542 54523.4773636,-4433506.50123 54636.1658462,-4433445.51852 54764.5044931,-4433376.87095 54901.0927095,-4433308.16166 55053.6925614,-4433243.80108 55179.8217562,-4433188.5294 55270.0625008,-4433117.35771 55358.6292238,-4433063.58896 55430.5243931,-4433041.41971 55526.1184437,-4433020.00946 55622.537779,-4432973.6544 55694.9297066,-4432928.0221 55783.7705626,-4432850.27842 55880.5588458,-4432773.4565 55962.0720985,-4432687.82675 55970.8245682,-4432678.29615 56043.1134483,-4432601.67203 56123.5058785,-4432555.96444 56282.2519134,-4432559.39806 56511.9739728,-4432572.09892 56646.4720309,-4432599.23352 56844.9188308,-4432603.27648 57011.7658664,-4432590.64772 57132.3575,-4432545.57541 57171.8814167,-4432530.68211 57267.8520836,-4432492.79825 57363.8712198,-4432463.41316 57458.7961009,-4432473.45258 57585.1735251,-4432507.65268 57694.9522624,-4432557.96385 57814.0267783,-4432560.28994 57964.8761792,-4432571.30064 58154.4532603,-4432615.35492 58272.259533,-4432665.09326 58330.7277535,-4432721.67571 58381.1205969,-4432770.33253 58482.4777187,-4432852.18329 58591.7358886,-4432949.94726 58660.8963169,-4433054.5777 58729.3856311,-4433190.65921 58775.5174221,-4433263.07988 58900.3265966,-4433369.16744 59026.6789564,-4433403.86748 59153.4798695,-4433406.60493 59280.6562096,-4433392.86928 59360.7291443,-4433362.6373 59456.7504217,-4433333.25245 59575.9264893,-4433319.59147 59576.2752782,-4433303.61669 59649.0188671,-4433242.00816 59737.4149812,-4433196.22474 59833.8848971,-4433134.87676 59898.3056325,-4433088.81923 60065.7554904,-4433060.22933 60280.7797834,-4433025.17007 60383.8558082,-4433027.64643 60502.9333295,-4433029.97316 60621.2870004,-4433064.74817 60715.2697274,-4433130.21568 60808.6809944,-4433211.14665 60886.3400186,-4433292.24059 60932.298252,-4433372.65028 60962.979082,-4433420.76124 61025.335857,-4433493.54561 61101.6508025,-4433614.05258 61163.9327542,-4433678.83641 61216.5957586,-4433807.08355 61294.5038111,-4433888.19148 61437.2077166,-4433883.27773 61604.8081628,-4433847.19956 61755.0647066,-4433874.17444 61832.5494482,-4433963.25715 61877.8362186,-4434075.1197 61938.4998896,-4434203.29317 62030.0668501,-4434380.09013 62063.5709801,-4434473.83395 62089.1862726,-4434579.65375 62085.3003461,-4434770.37204 62113.0669973,-4434953.27595 62272.556783,-4435112.19156 62414.3196949,-4435233.18012 62532.2377887,-4435327.91164 62652.8284965,-4435428.78305 62753.9768589,-4435538.11782 62869.7522067,-4435616.74228 63033.6064148,-4435679.42907 63170.8448063,-4435645.73801 63378.3340066,-4435559.8015 63631.8462221,-4435581.27053 63781.7824713,-4435623.72539 63867.7654045,-4435689.27172 64015.2841449,-4435843.05648 64124.470539,-4435932.82767 64249.7589389,-4436006.46114 64336.4885597,-4436048.5565 64414.2479652,-4436113.66645 64443.4579908,-4436241.17208 64473.6146153,-4436313.2487 64566.6509194,-4436410.65923 64764.413702,-4436446.66087 64875.4949564,-4436449.06613 65034.3539438,-4436436.51718 65161.9350044,-4436415.30832 65329.3674648,-4436387.22075 65536.0432173,-4436387.20945 65621.8328222,-4436371.77633 65674.2327801,-4436321.58043 65760.6258557,-4436280.68847 65889.284045,-4436258.03702 65992.0729571,-4436242.50758 66102.97596,-4436262.3969 66204.3523174,-4436315.76786 66296.4246692,-4436403.1322 66405.565778,-4436507.89808 66514.1819861,-4436613.13609 66607.1550867,-4436683.55478 66690.5051855,-4436770.45615 66757.1053203,-4436857.46697 66841.080461,-4436927.90756 66942.0548127,-4436998.25221 67044.0831647,-4437034.66481 67215.0829986,-4437038.25633 67325.9175491,-4437040.64902 67488.8205596,-4437027.3158 67623.9902656,-4437098.47898 67876.5738864,-4437283.34725 67917.1273411,-4437314.99301 67977.3212582,-4437362.67777 68111.9836707,-4437476.30039 68255.8762674,-4437547.92823 68351.0186748,-4437610.46681 68390.6441118,-4437636.06549 68414.2096636,-4437695.79873 68455.6560945,-4437799.96809 68472.0940433,-4437819.83564 68582.4283691,-4437902.17593 68714.8537179,-4438029.67628 68871.2086031,-4438148.95231 68977.2483843,-4438241.56145 69110.060608,-4438357.08717 69179.6881787,-4438424.76823 69316.3706583,-4438514.50862 69442.5857281,-4438580.20029 69554.3571488,-4438649.62268 69631.5049718,-4438782.68311 69687.6395447,-4438939.61836 69754.5265631,-4439054.13934 69862.9054576,-4439187.36154 70021.6261909,-4439346.75355 70060.9408274,-4439509.79299 70126.7352428,-4439630.75457 70166.9821992,-4439743.35988 70259.0551243,-4439830.73032 70351.1758561,-4439926.60077 70442.8937296,-4440039.44462 70548.8804086,-4440133.05381 70551.9876825,-4440135.71829 70673.2086629,-4440267.12635 70749.2945551,-4440349.6486 70839.9783226,-4440458.43946 70907.1401803,-4440572.4774 70935.0262864,-4440668.43138 70967.6474509,-4440764.63727 70955.4199661,-4440862.95629 70873.5281547,-4440936.57621 70723.0006898,-4441140.0036 70710.465076,-4441319.28078 70699.2125948,-4441455.63957 70704.7691826,-4441534.41074 70708.9206844,-4441592.61356 70706.8998048,-4441686.97666 70747.2455428,-4441807.08636 70796.8708367,-4441893.70037 70794.6746344,-4441996.05176 70741.5906771,-4442063.70573 70739.4154226,-4442175.05539 70761.5036038,-4442337.68046 70861.4911094,-4442459.46425 70962.6883092,-4442530.32833 71012.4936875,-4442599.45784 71011.9098742,-4442633.91616 71083.5285755,-4442772.18552 71208.8679308,-4442854.33156 71476.2509097,-4442963.03018 71523.1296436,-4443012.01053 71750.1337511,-4443151.55127 71827.4428082,-4443248.63715 72037.9181001,-4443435.78472 72225.2911917,-4443582.71515 72363.7092452,-4443799.51945 72437.6417463,-4444039.88447 72465.9950416,-4444206.84485 72509.3745768,-4444406.09585 72522.223367,-4444549.73784 72550.8524741,-4444692.72023 72588.5289777,-4444797.19566 72665.6144995,-4444893.77174 72759.2499379,-4444975.23354 72948.6252279,-4445018.80405 73091.6681537,-4445021.91937 73179.8310382,-4444976.12665 73276.0430365,-4444938.76002 73387.1915248,-4444930.68024 73442.9169534,-4444926.14852 73625.4173857,-4444929.86436 73776.3624016,-4444925.40239 74006.7200564,-4444922.16819 74109.9415151,-4444922.16399 74218.4128763,-4444917.4406 74371.584784,-4444941.58921 74448.6740562,-4444967.68647 74506.265088,-4445003.24302 74597.7146995,-4445013.10939 74678.7130023,-4445017.42082 74809.7518261,-4445048.88919 74921.0005731,-4445095.29989 74979.7413491,-4445160.90974 75006.6929434,-4445213.33061 75008.5114546,-4445221.42525 75086.3469399,-4445294.5499 75137.2981702,-4445356.24625 75270.9974349,-4445436.34378 75324.7963078,-4445496.19241 75365.6390893,-4445592.84142 75414.0876005,-4445649.90603 75481.9284816,-4445699.50529 75602.1612712,-4445727.40018 75743.0639782,-4445761.39417 75806.7014255,-4445777.27865 75908.9901082,-4445804.21842 76010.6295191,-4445885.60947 76070.3892023,-4445936.77839 76115.582814,-4445975.17502 76193.9920093,-4446032.83547 76336.2164855,-4446051.40434 76430.8798848,-4446085.43658 76510.2675759,-4446087.16368 76579.7725741,-4446053.87344 76590.2829034,-4446048.93439 76685.8233289,-4446043.02355 76836.023807,-4446062.0171 76910.6950139,-4446119.47895 76988.6962473,-4446180.1174 77059.8367022,-4446219.39594 77206.0304193,-4446313.65762 77269.1955651,-4446352.5117 77382.3385781,-4446415.02149 77503.7224818,-4446472.97139 77613.089084,-4446554.77557 77819.565189,-4446662.2453 77898.0017914,-4446719.40863 77967.2363048,-4446808.57422 78044.8223745,-4446905.1829 78056.4496267,-4446940.29367 78082.0740858,-4447017.63974 78096.1010636,-4447096.86771 78126.1734076,-4447193.94599 78139.5069872,-4447248.64299 78204.7827377,-4447290.10971 78318.6590565,-4447334.1644 78509.5874121,-4447447.30676 78620.1105162,-4447526.1749 78768.2046701,-4447603.54473 78925.2817619,-4447685.89206 79017.1197978,-4447730.77334 79129.4158527,-4447785.74206 79230.6055533,-4447875.61126 79354.7751009,-4448012.69386 79446.1443491,-4448094.54216 79463.7914241,-4448110.47854 79613.1915121,-4448177.4216 79730.9121505,-4448243.17756 79793.6489473,-4448276.0121 79930.8027258,-4448375.79584 80041.5452033,-4448671.12934 80122.412416,-4448785.91188 80261.5918772,-4448960.28802 80342.4812261,-4449060.57537 80419.7193466,-4449126.17593 80564.266176,-4449359.32615 80595.0885547,-4449409.45742 80671.5077514,-4449504.50837 80807.1739746,-4449571.22225 80953.6167617,-4449628.01259 80980.109755,-4449637.42214 81099.800219,-4449680.2902 81215.7177563,-4449756.45028 81336.6467228,-4449832.37758 81379.1060539,-4449922.12107 81421.6571342,-4449991.3738 81459.4521391,-4450051.37511 81477.7676559,-4450129.83464 81485.8437915,-4450198.75059 81523.3180827,-4450288.22878 81584.7664325,-4450387.48249 81701.2478267,-4450443.6778 81778.5024512,-4450504.282 81846.0101317,-4450564.86689 81883.8315428,-4450624.37013 81916.6027399,-4450703.60026 81949.6619573,-4450763.34976 81997.1710263,-4450833.36725 82079.1816653,-4450903.22345 82121.9449057,-4450968.48913 82168.0685754,-4451111.41825 82175.8560378,-4451199.81542 82223.1033497,-4451288.81547 82232.3395144,-4451307.80388 82425.3771832,-4451691.01528 82499.5412409,-4451903.42588 82532.1523583,-4451985.64774 82671.8058062,-4452334.02274 82696.8046833,-4452540.31476 82705.128705,-4452609.24495 82734.7805324,-4452840.78023 82775.9235848,-4452973.94746 82823.1596659,-4453058.4491 82899.006805,-4453182.96831 82930.86818,-4453227.6582 82965.7040152,-4453277.50569 83057.4015117,-4453357.87873 83157.5377989,-4453472.19529 83243.3810675,-4453596.74809 83271.4378368,-4453661.23163 83288.6388905,-4453774.62713 83276.6516818,-4453886.96667 83274.9621145,-4453960.86254 83292.1958499,-4454064.26176 83330.2652097,-4454123.78026 83426.1372681,-4454238.37041 83520.9133058,-4454382.89669 83630.6640785,-4454537.21987 83702.3354818,-4454627.52475 83807.6887581,-4454747.12035 83889.4060819,-4454822.46395 84024.7349456,-4454923.66175 84237.6397492,-4455055.99095 84320.779433,-4455123.41231 84348.8249951,-4455145.90384 84424.9432661,-4455255.94328 84441.588313,-4455393.80628 84390.1221514,-4455510.54075 84339.824957,-4455567.84813 84277.2196696,-4455743.47778 84235.2180156,-4455870.21492 84174.037403,-4455976.9327 84103.4085177,-4456068.64916 84056.139224,-4456205.1033 84014.1205311,-4456336.83825 83992.9716139,-4456414.69607 83956.552277,-4456511.73587 83929.2819315,-4456638.75816 83907.2788185,-4456756.06314 83905.2019179,-4456855.93416 83937.0422184,-4457079.09203 83990.8292423,-4457209.43763 84065.8285086,-4457377.90809 84201.4538715,-4457614.10094 84273.7013099,-4457740.43272 84349.2718513,-4457879.43971 84376.2094031,-4458002.35508 84414.9078641,-4458134.39639 84431.1747986,-4458190.25443 84444.7338049,-4458474.92772 84458.5314506,-4458755.11467 84504.6365994,-4458893.55051 84541.7216676,-4459060.50019 84562.6965687,-4459154.60302 84584.3386034,-4459287.7347 84659.8908079,-4459431.74142 84687.4157821,-4459520.19496 84763.5233349,-4459639.73584 84852.7366192,-4459813.46701 84923.5930468,-4459937.72723 84960.2827333,-4460051.16599 84987.4910565,-4460159.59968 84999.068474,-4460312.69162 85000.7023732,-4460464.75307 85001.2077531,-4460670.7452 85022.8747454,-4460803.37928 85030.3385817,-4460911.75939 85046.1312637,-4461093.57174 85072.7925457,-4461230.97179 85089.437544,-4461359.33877 85096.6277849,-4461482.202 85093.814334,-4461614.52967 85091.8396263,-4461712.40788 85109.016242,-4461830.80505 85123.9750013,-4461897.09255 85126.7992798,-4461909.74122 85163.7434277,-4462013.69619 85190.6768114,-4462136.61365 85173.6864594,-4462244.18872 85186.9020155,-4462553.84295 85172.527058,-4462654.55877 85163.547771,-4462715.06933 85121.2478277,-4462861.28658 85059.7724813,-4463001.48088 84937.6796364,-4463204.92773 84817.5458138,-4463315.49439 84716.9065154,-4463426.10179 84662.9368272,-4463528.70251 84655.7111789,-4463542.31436 84603.7040732,-4463669.01569 84601.7009665,-4463767.39204 84604.7431678,-4463855.53957 84632.7946175,-4463920.02669 84671.0990213,-4463975.06298 84737.590209,-4464054.60049 84834.8234797,-4464110.78377 84982.1122587,-4464329.61342 85036.7338649,-4464439.51243 85038.7641456,-4464443.62018 85172.1165373,-4464633.21115 85393.9134545,-4464809.52857 85470.5730858,-4464853.11597 75001.8447254,-4473030.38371 61648.5271974,-4483460.19602 60837.3349997,-4484093.98167 55082.6718954,-4488588.58219 51500.9828059,-4491386.13388 35551.193319,-4503900.20297 35619.1791681,-4503983.31764 35649.2084536,-4504093.87293 35644.944096,-4504173.09892 35646.7245856,-4504274.63799 35633.6794512,-4504382.37515 35571.4472174,-4504521.94531 35448.31824,-4504451.35325 35371.6201988,-4504339.78506 35328.3178643,-4504220.51998 35245.3531512,-4504118.60919 35150.1461328,-4504012.0419 35040.3819151,-4503906.69015 34958.6593826,-4503818.83884 34922.8696834,-4503722.46614 34919.4901678,-4503608.84867 34889.9555238,-4503512.31306 34852.9856464,-4503437.86456 34807.9966521,-4503335.99992 34730.9728908,-4503244.4045 34672.7693148,-4503183.80494 34593.6452129,-4503094.09559 34497.7408121,-4503000.48506 34379.5639881,-4502912.17238 34288.1607438,-4502860.28055 34187.0681454,-4502807.36766 34035.2629399,-4502735.73507 33942.7103681,-4502691.27733 33837.9391485,-4502655.65662 33722.9647654,-4502609.99242 33605.5941703,-4502539.21393 33487.9052946,-4502460.42314 33378.9897759,-4502381.1052 33311.5218442,-4502293.0242 33260.7333994,-4502182.85435 33223.5477116,-4502079.91276 33133.0040545,-4501933.12433 33071.7328845,-4501827.38794 32993.0525576,-4501706.22355 32895.2505748,-4501587.52847 32790.7109679,-4501477.96548 32684.4825031,-4501399.79313 32583.4904884,-4501340.39165 32485.0402555,-4501294.11926 32413.972197,-4501268.30881 32326.7990711,-4501244.6301 32194.7638634,-4501223.53477 32109.6075572,-4501213.45652 32042.1505272,-4501194.83623 31939.2100944,-4501176.30569 31829.9154006,-4501164.42908 31727.8612622,-4501161.93658 31582.6860229,-4501176.11254 31497.117059,-4501183.00177 31437.9667109,-4501181.81812 31295.4886926,-4501076.21211 31220.6895542,-4500989.73811 31162.2806218,-4500937.62558 31078.6248714,-4500867.16522 30994.9423542,-4500797.20323 30927.6232807,-4500762.10083 30783.1384058,-4500758.8249 30570.4235334,-4500737.38715 30486.1642889,-4500701.37352 30401.6717423,-4500674.34181 30325.6762904,-4500647.26758 30199.7268975,-4500559.54194 30174.9359505,-4500532.72408 30108.2212991,-4500463.17602 30067.1931639,-4500394.51022 30068.1832966,-4500343.59525 30044.5621626,-4500257.87718 29978.8642844,-4500136.91625 29929.116709,-4500067.78166 29821.0032684,-4499955.03282 29758.8610646,-4499888.72951 29704.1705743,-4499841.8152 29628.7950527,-4499789.2911 29544.9068009,-4499727.81451 29486.1280906,-4499701.16756 29392.7105525,-4499682.15141 29299.3357345,-4499671.6322 29143.8336694,-4499650.27588 29020.0377803,-4499606.14062 28899.9282941,-4499549.21201 28851.0386081,-4499464.13476 28843.2378273,-4499372.27344 28858.8870601,-4499253.19163 28833.6039642,-4499198.36583 28779.9211897,-4499142.01256 28687.5415041,-4499099.06811 28597.8912873,-4499065.76445 28497.5955162,-4499053.87416 28399.7533144,-4499052.10941 28295.7983745,-4499052.51426 28205.874562,-4499052.17473 28100.8995496,-4499039.03339 28036.2579306,-4499014.57013 28003.1768984,-4498979.31249 27962.9587937,-4498867.72016 27965.1868626,-4498765.90599 27933.0952018,-4498679.7347 27897.7113663,-4498594.38578 27800.4928177,-4498506.71075 27669.1583113,-4498440.18615 27538.905861,-4498390.70881 27404.7502438,-4498372.00139 27275.3410176,-4498376.53419 27171.8203182,-4498433.92548 27119.4755037,-4498492.07028 27084.5260479,-4498542.65616 27024.7165955,-4498558.42698 26954.5029314,-4498591.12669 26887.2627861,-4498614.9922 26784.1819448,-4498654.91815 26664.0810183,-4498695.42759 26578.3529869,-4498719.29789 26475.6207586,-4498752.7466 26352.0385287,-4498765.08706 26226.1479588,-4498755.31791 26122.3561421,-4498752.73337 26043.9580617,-4498742.52064 25981.9508712,-4498720.19819 25910.7265609,-4498697.38001 25846.8575523,-4498686.44977 25770.2461488,-4498684.82749 25704.8656444,-4498711.29084 25590.9838674,-4498715.15884 25514.9920068,-4498688.08696 25422.4040728,-4498635.13929 25354.8930331,-4498599.03003 25284.591206,-4498549.77949 25204.3388861,-4498476.5097 25154.8154977,-4498407.89072 25088.3099139,-4498329.8642 24987.4857488,-4498267.48019 24920.1892983,-4498227.38557 24881.122654,-4498187.31028 24845.4016176,-4498145.41631 24776.0805401,-4498087.22519 24718.2503397,-4498047.63987 24643.8797514,-4498013.6606 24584.6751392,-4497994.98711 24494.8381619,-4497979.16314 24416.2082258,-4497977.93231 24346.5274108,-4497982.17934 24283.219996,-4497928.30925 24229.9334129,-4497859.98844 24145.6792512,-4497823.97892 24035.1370714,-4497821.53159 23915.8494761,-4497819.11358 23797.9096827,-4497796.28219 23695.3422157,-4497780.27339 23559.3381366,-4497777.45599 23448.7966282,-4497775.00864 23363.1925985,-4497773.40275 23295.9906041,-4497754.79905 23252.7404291,-4497727.49047 23172.5343617,-4497695.19653 23104.1405591,-4497675.5295 22991.8080704,-4497646.00474 22906.8931219,-4497626.94821 22787.236887,-4497649.99246 22658.4493717,-4497689.5336 22547.4693197,-4497704.55026 22420.6995893,-4497711.22296 22316.21531,-4497721.59239 22201.6946044,-4497737.41775 22112.3492696,-4497763.59065 21995.0112192,-4497766.77323 21905.9448954,-4497778.47132 21805.5033041,-4497774.06861 21745.9303465,-4497780.8575 21677.7916983,-4497779.69104 21592.4651232,-4497777.60015 21503.4774973,-4497755.32663 21423.5220605,-4497723.04643 21322.6908349,-4497670.15749 21221.2086889,-4497624.72826 21119.9221534,-4497580.3089 21010.4154326,-4497535.44753 20917.2124859,-4497507.95117 20799.1939127,-4497454.1383 20648.8998299,-4497396.59119 20518.7264256,-4497355.11543 20384.8674032,-4497326.43209 20305.7694564,-4497324.67637 20231.6535232,-4497323.18858 20134.843781,-4497274.51385 20072.2248592,-4497217.18564 20005.7652266,-4497147.65972 19938.8928699,-4497095.09926 19863.0690104,-4497051.05089 19773.4001019,-4497018.24921 19686.2113854,-4496995.07398 19611.4319235,-4496978.06207 19535.9559404,-4496974.00315 19478.9746295,-4496974.43625 19377.9694509,-4497040.95129 19292.4813386,-4497055.83945 19190.6203877,-4497045.36518 19073.0615276,-4497015.56039 18938.4007737,-4497001.82331 18826.0275764,-4496977.79339 18758.5796797,-4496959.17728 18656.70337,-4496939.70894 18580.5105434,-4496921.12221 18427.5059751,-4496909.39645 18368.897508,-4496865.77487 18318.9913556,-4496813.62808 18268.4234037,-4496778.433 18192.4799734,-4496759.85983 18115.6257077,-4496758.22492 18012.7769652,-4496798.65936 17910.488733,-4496796.15623 17834.9583171,-4496760.61809 17759.1361308,-4496716.57072 17683.7694378,-4496664.05433 17560.7056496,-4496634.45371 17429.3308361,-4496615.39785 17274.2521865,-4496619.04904 17168.4341201,-4496654.32721 17078.8525504,-4496684.98264 16993.2970075,-4496691.87283 16857.3293363,-4496688.55763 16806.1590379,-4496687.80422 16652.3745976,-4496718.50399 16549.098684,-4496766.90843 16428.4185508,-4496832.36292 16342.1661172,-4496898.66957 16255.1823363,-4496973.92983 16185.7150142,-4497048.63321 16072.5632421,-4497145.96765 15957.5408855,-4497171.25687 15809.9936014,-4497160.32334 15622.204864,-4497131.23782 15475.2664336,-4497104.34948 15357.232969,-4497069.52324 15265.6244232,-4497017.13313 15172.2128375,-4496993.62348 15086.6053257,-4497001.50936 15030.0245765,-4497054.92197 14996.4161028,-4497094.58184 14932.3767571,-4497124.11159 14847.3053201,-4497122.03397 14754.3149449,-4497086.0567 14652.50153,-4497084.07781 14583.3626394,-4497124.82408 14498.4711456,-4497114.76238 14431.1901847,-4497079.16879 14347.3577325,-4497026.19804 14262.4237915,-4497007.64085 14203.0351647,-4497006.445 14006.9783236,-4497010.38837 13938.1972301,-4497002.69206 13854.1448758,-4496981.68431 13761.0343877,-4496971.18062 13675.6881383,-4496969.58777 13596.4806519,-4496965.32749 13539.9315679,-4496957.7895 13455.6602837,-4496922.28162 13387.305305,-4496920.60346 13318.8024732,-4496944.89653 13317.6065703,-4497004.28459 13265.4327853,-4497045.44306 13202.0278102,-4497026.04547 13170.1120908,-4496973.86929 13172.0989418,-4496876.55436 13131.2272461,-4496814.40418 13034.0250485,-4496805.67892 12932.8227335,-4496866.68217 12825.459128,-4496870.39981 12776.5873301,-4496822.30785 12675.7496177,-4496760.42979 12577.9406024,-4496721.19656 12474.3969457,-4496709.63228 12364.6532786,-4496697.23493 12260.0192619,-4496710.59171 12211.8600906,-4496783.93969 12193.6496398,-4496829.92203 12120.9729726,-4496825.01378 12070.2448486,-4496806.79786 11985.1492119,-4496805.21837 11865.0668636,-4496845.72114 11793.3965572,-4496877.83675 11694.5325989,-4496867.52312 11644.0111511,-4496840.82529 11576.7164302,-4496796.23921 11509.4108058,-4496761.14482 11457.8504938,-4496725.89818 11374.2826699,-4496695.92425 11279.5353056,-4496697.32273 11167.1672268,-4496733.74378 11026.2026287,-4496716.66946 10956.0700533,-4496757.36045 10954.4076243,-4496834.70707 10978.8770987,-4496885.982 10977.4746067,-4496953.85047 10937.3774384,-4497016.64 10874.013636,-4497019.72623 10831.754708,-4497001.96588 10763.6506877,-4497000.30084 10687.6282045,-4496964.73759 10629.0676249,-4496929.61408 10577.1564951,-4496914.8317 10527.2002059,-4496910.14619 10467.3882538,-4496902.9322 10425.7616231,-4496882.70804 10395.3949995,-4496829.61741 10376.8339803,-4496770.66724 10348.3636633,-4496710.18492 10288.747311,-4496703.98074 10240.4360796,-4496784.81259 10180.816751,-4496792.59652 10086.7562683,-4496790.53453 9986.24014109,-4496736.66831 9918.25792957,-4496709.53124 9834.23905772,-4496674.03788 9749.79154702,-4496646.51481 9630.52190104,-4496644.09608 9536.17700433,-4496684.48311 9456.73978234,-4496689.20265 9374.89841075,-4496664.31769 9306.71021199,-4496645.66252 9220.01853414,-4496632.00701 9116.15707116,-4496626.42036 9018.52242004,-4496621.16863 8917.29070057,-4496631.70985 8840.644284,-4496649.56839 8734.74682854,-4496681.83988 8616.01308657,-4496715.91868 8538.79627018,-4496739.74126 8453.77322877,-4496746.15836 8375.60419374,-4496731.96203 8325.80195319,-4496719.79119 8258.69119634,-4496699.69527 8225.17756334,-4496681.90619 8158.48462258,-4496663.3315 8091.78559256,-4496672.73254 8020.47428829,-4496702.86747 7916.94708098,-4496760.74409 7865.85099208,-4496767.98691 7797.33001529,-4496811.26061 7731.16712975,-4496810.6989 7665.237557,-4496801.15747 7588.94042495,-4496812.53983 7439.86188898,-4496946.3979 7356.80237147,-4496967.40767 7232.32591521,-4496992.18413 7172.41210333,-4497051.90652 7092.52911559,-4497069.59001 7013.9860819,-4497062.3672 6928.70739627,-4497064.2738 6878.93749201,-4497070.08893 6855.80938364,-4497072.84122 6742.34739403,-4497129.68247 6692.38047337,-4497180.94738 6629.04627957,-4497183.53483 6535.48273159,-4497163.01469 6443.81714428,-4497167.57487 6382.54176693,-4497192.25386 6356.55095685,-4497266.78923 6366.17900328,-4497329.25312 6335.51416859,-4497421.02171 6305.80620665,-4497490.36138 6262.9751383,-4497571.48403 6203.10258982,-4497607.22858 6142.65938302,-4497648.93712 6080.27272618,-4497671.0581 5994.58623917,-4497708.41094 5913.5312828,-4497720.03569 5838.86369435,-4497729.00671 5776.79882764,-4497745.15011 5702.72882761,-4497747.65895 5605.7454537,-4497748.93488 5521.96229456,-4497750.92105 5450.80862897,-4497759.58147 5350.48838313,-4497767.17205 5281.59203769,-4497784.94593 5195.46949863,-4497825.77165 5095.21336019,-4497901.80492 5022.47858504,-4497939.85392 4962.23133653,-4497982.57128 4823.15476524,-4498106.97038 4763.56538212,-4498114.25444 4686.97094182,-4498112.63052 4618.59542708,-4498111.44886 4551.20055703,-4498101.32798 4534.19549225,-4498092.42002 4483.72086384,-4498074.21768 4416.44112688,-4498066.60079 4345.54845331,-4498065.78323 4245.23712344,-4498077.86963 4170.3027223,-4498091.82113 4109.09657612,-4498092.02433 4016.64694657,-4498074.061 3942.44990314,-4498018.61443 3855.48969933,-4497958.98428 3701.32517867,-4497950.68841 3608.2538418,-4498004.62694 3523.07077984,-4498028.01778 3397.53672754,-4498030.75384 3308.93420164,-4497997.01205 3268.98862766,-4497954.89862 3167.12946006,-4497935.42998 3047.45476179,-4497949.97094 2938.39677457,-4497943.60267 2841.4162346,-4497944.87795 2745.28235691,-4497939.70468 2638.8648815,-4497939.97254 2537.4241094,-4497922.02506 2428.79897295,-4497893.70012 2353.74550774,-4497854.1937 2267.26259656,-4497813.57274 2162.24621834,-4497759.96551 2076.97074173,-4497729.40049 2008.39281285,-4497690.24276 1943.12515561,-4497645.26873 1864.93379026,-4497599.09978 1770.63138867,-4497564.55244 1693.7636198,-4497563.41337 1624.9615097,-4497570.20139 1573.92674852,-4497594.92978 1470.47466583,-4497660.79682 1383.73562526,-4497727.06355 1314.89678375,-4497776.31008 1244.67972253,-4497860.44996 1175.63424908,-4497918.17731 1122.60478805,-4497989.25491 1000.69998478,-4498040.64062 870.985721639,-4498056.13886 713.649048962,-4498018.69841 588.153957684,-4497914.03601 496.91074346,-4497887.64572 406.180325054,-4497837.80502 378.591345174,-4497756.39512 329.109786003,-4497687.29452 235.885638434,-4497651.30678 125.620401552,-4497648.86968 39.1315386243,-4497715.14868 -18.5184293995,-4497769.99175 -99.345058973,-4497814.59593 -117.917619067,-4497890.52401 -113.777100382,-4497980.66222 -183.592256518,-4498024.85974 -289.877590367,-4497971.68435 -382.231994471,-4497910.26728 -442.024722642,-4497926.03144 -510.603095948,-4497933.3303 -597.618341313,-4497935.14115 -665.369057691,-4497940.98593 -733.108492595,-4497937.3403 -774.667344251,-4497953.08661 -809.994941417,-4498020.11994 -862.83591787,-4498087.70922 -948.057426715,-4498102.60406 -1020.01828968,-4498121.70924 -1093.38596373,-4498111.26669 -1198.87983668,-4498099.09509 -1296.87556619,-4498086.82752 -1416.77894754,-4498077.87658 -1509.63976858,-4498090.86151 -1621.80552954,-4498156.25623 -1715.88029478,-4498187.15846 -1827.56409745,-4498211.11858 -2159.66936038,-4498242.19643 -2326.60025252,-4498285.66095 -2673.01101993,-4498267.01541 -3010.45517664,-4498248.85238 -3224.99042091,-4498202.33897 -3344.62740226,-4498169.9248 -3456.73535233,-4498155.39887 -3622.25855122,-4498163.47293 -3794.19208131,-4498128.24399 -3886.74150696,-4498079.80513 -4049.25361102,-4498036.59181 -4204.66553772,-4498019.23565 -4367.6328077,-4497984.48959 -4507.9710919,-4498011.90136 -4648.76492681,-4498047.78008 -4883.06074578,-4498043.66048 -4951.35293388,-4498022.50194 -5328.13457675,-4498034.68885 -5364.70796864,-4498004.24864 -5553.13318781,-4497885.71475 -5880.49246321,-4497773.18972 -6357.28847892,-4497704.07008 -6792.47718462,-4497743.58231 -7042.51376163,-4497721.13302 -7268.17480272,-4497570.62761 -7480.83466417,-4497498.74303 -7687.53933731,-4497478.62652 -7895.20858163,-4497476.43964 -8163.81850098,-4497478.96434 -8471.70600903,-4497566.28498 -8612.45136078,-4497610.65544 -8795.86352022,-4497635.74666 -8899.45568001,-4497630.17054 -9036.92981108,-4497613.77994 -9140.31496918,-4497599.72378 -9285.59289364,-4497565.93083 -9387.79046235,-4497534.45686 -9474.1996998,-4497529.80567 -9592.64098899,-4497479.97567 -9676.7445633,-4497432.49355 -9741.99609307,-4497359.55395 -9815.7565114,-4497277.66537 -9900.17744136,-4497078.32575 -9892.72556047,-4496939.87254 -9851.14306291,-4496812.24683 -9810.29222242,-4496693.57222 -9779.27505474,-4496599.84159 -9697.6071754,-4496534.80953 -9632.25259674,-4496443.42612 -9555.11931166,-4496300.23137 -9528.18164693,-4496119.87136 -9501.69993534,-4495947.97788 -9457.3317623,-4495768.55568 -9402.62154946,-4495554.72645 -9372.19408002,-4495314.11723 -9351.42855114,-4495085.97456 -9377.19998883,-4494919.76077 -9429.55824584,-4494769.59852 -9530.26401911,-4494547.90801 -9634.66724955,-4494394.94667 -9694.34863928,-4494218.4187 -9731.40085847,-4494104.04402 -9724.8911806,-4493983.02206 -9728.9723907,-4493896.39361 -9739.64511824,-4493774.44751 -9703.54165844,-4493586.08999 -9672.52783234,-4493492.35861 -9658.0345581,-4493380.75657 -9600.6678883,-4493279.95133 -9562.33155958,-4493212.58622 -9548.98236513,-4493126.89518 -9558.96778589,-4492987.50451 -9536.21486085,-4492884.83759 -9521.47333212,-4492773.24877 -9515.90280549,-4492669.65783 -9519.70950425,-4492582.54476 -9479.52587788,-4492480.81505 -9414.63090488,-4492397.89559 -9375.38473037,-4492313.59689 -9372.59972326,-4492261.80135 -9366.54779191,-4492149.24568 -9334.62501018,-4492038.58047 -9344.84512354,-4491908.1678 -9355.31443698,-4491777.74181 -9383.86842328,-4491667.82095 -9480.74685088,-4491532.74966 -9583.51354316,-4491353.90807 -9586.20507097,-4491241.38224 -9631.74363429,-4491117.56265 -9609.19900737,-4491023.37554 -9560.3016827,-4490922.11396 -9518.03999332,-4490777.04158 -9558.33567442,-4490722.93056 -9625.46598217,-4490684.85866 -9690.51629053,-4490603.44469 -9771.8117619,-4490503.67621 -10024.3094816,-4490369.23307 -10080.8502465,-4490296.768 -10128.2634429,-4490207.81172 -10202.6902949,-4490142.87648 -10277.1438863,-4490078.43937 -10334.1397123,-4490014.44118 -10400.1267975,-4489950.4593 -10459.7002831,-4489929.77624 -10508.2563837,-4489866.73131 -10625.556364,-4489791.00157 -10779.7813216,-4489765.73125 -10891.1491438,-4489742.26478 -11011.3053749,-4489677.86958 -11020.1020677,-4489632.44522 -11029.1023952,-4489581.51585 -11067.9177788,-4489504.51058 -11087.1090223,-4489448.03898 -11090.8348088,-4489391.89906 -11097.1496559,-4489342.11301 -11111.2560329,-4489297.90181 -11117.704742,-4489250.6059 -11129.1872302,-4489204.03842 -11133.2075465,-4489153.37681 -11142.5025012,-4489107.92583 -11154.164232,-4489069.34014 -11155.9993281,-4489033.77981 -11167.5436004,-4488983.71285 -11189.2624383,-4488937.09487 -11193.1304974,-4488878.9496 -11219.8377705,-4488827.56848 -11226.3669884,-4488781.76676 -11258.0626955,-4488725.62251 -11291.7936197,-4488660.87814 -11325.960897,-4488599.60659 -11350.2235006,-4488553.85106 -11379.6989781,-4488516.80572 -11414.5107153,-4488481.47154 -11449.1537142,-4488447.64482 -11486.3381325,-4488400.69566 -11508.5573702,-4488368.03597 -11557.8362664,-4488318.43923 -11602.3757729,-4488273.5923 -11647.1806746,-4488219.74093 -11701.2502923,-4488152.40596 -11723.0600012,-4488116.77168 -11767.7043811,-4488059.93234 -11802.3473678,-4488026.10592 -11858.8000795,-4487956.64534 -11926.1496036,-4487904.08038 -11978.2128672,-4487859.82855 -12065.7484738,-4487797.18907 -12123.0511959,-4487762.14552 -12216.2481589,-4487735.16277 -12309.43681,-4487712.67558 -12370.4683928,-4487695.91159 -12437.821824,-4487671.31621 -12488.2797725,-4487657.61755 -12559.3271339,-4487655.2991 -12617.6051333,-4487661.65787 -12650.4905,-4487650.90107 -12708.4185326,-4487636.80114 -12806.7020384,-4487611.54313 -12884.6554013,-4487584.38063 -12949.9793359,-4487549.90545 -12977.3596975,-4487538.945 -13035.2504592,-4487514.85818 -13088.0190801,-4487493.04434 -13163.1076085,-4487459.04361 -13200.9646675,-4487452.51488 -13251.2698975,-4487431.33288 -13314.2928905,-4487414.46218 -13372.6403276,-4487412.82608 -13415.5494284,-4487412.01933 -13476.3868458,-4487410.24945 -13550.1292517,-4487416.2769 -13598.2673584,-4487415.18923 -13674.3206566,-4487413.10137 -13788.4735618,-4487422.95122 -13844.3306532,-4487421.44886 -13930.7019847,-4487434.78888 -14037.8927995,-4487454.50206 -14096.3406598,-4487473.33764 -14147.6826408,-4487490.05772 -14165.4214613,-4487471.62425 -14240.5585318,-4487471.08383 -14336.1836692,-4487461.45166 -14432.5247561,-4487423.31289 -14510.719413,-4487354.18483 -14605.9078738,-4487280.64789 -14642.5439275,-4487200.26772 -14636.6851951,-4487091.20513 -14607.109723,-4486986.91262 -14579.5406816,-4486919.97028 -14540.371395,-4486888.11238 -14449.0784765,-4486843.57164 -14345.1418898,-4486814.69319 -14185.1304097,-4486755.36407 -14050.8875516,-4486673.67399 -13882.9056216,-4486600.78805 -13730.3310705,-4486498.60592 -13589.488882,-4486349.84436 -13454.5234662,-4486254.70682 -13384.1210846,-4486087.67747 -13271.5246608,-4485878.9626 -13263.2853901,-4485846.44162 -13248.5730276,-4485753.83526 -13242.5296715,-4485715.70244 -13233.7288463,-4485672.72323 -13232.3060598,-4485604.37551 -13228.0105567,-4485533.68482 -13224.2499567,-4485472.95433 -13220.4192609,-4485420.21875 -13219.148789,-4485359.35455 -13217.6376862,-4485294.00827 -13223.9711561,-4485235.23301 -13227.1092939,-4485154.15428 -13235.789147,-4485083.26637 -13244.1749162,-4485006.90037 -13249.7331256,-4484933.68289 -13253.6135473,-4484885.02834 -13263.0523178,-4484837.57369 -13271.4934278,-4484776.18816 -13287.491644,-4484697.41577 -13315.8850436,-4484602.99459 -13332.1875016,-4484539.1893 -13353.567047,-4484467.6198 -13387.1745946,-4484395.8933 -13402.9508376,-4484317.63249 -13414.4070624,-4484256.58474 -13430.6027936,-4484190.78757 -13439.5606654,-4484134.36898 -13442.9671116,-4484058.27067 -13451.2383718,-4483984.40845 -13411.5550393,-4483798.74793 -13361.9500356,-4483637.59317 -13315.6065449,-4483537.19536 -13283.832106,-4483456.9921 -13252.6809678,-4483383.74756 -13187.0420073,-4483305.36185 -13133.0049994,-4483191.89165 -13076.1826051,-4483147.49421 -13004.2932893,-4483082.92868 -12924.2107582,-4482991.33327 -12884.5192761,-4482884.58436 -12894.3038947,-4482815.63519 -12881.7275062,-4482706.93157 -12841.7606305,-4482599.69787 -12830.8031235,-4482395.51321 -12798.331939,-4482172.00577 -12797.3854787,-4482028.71572 -12811.7281841,-4481905.08256 -12774.0785725,-4481845.67099 -12786.3287668,-4481687.68843 -12932.3986069,-4481482.57049 -13119.5373288,-4481284.23982 -13232.936577,-4481107.84599 -13291.8031534,-4480804.02391 -13485.7542126,-4480602.33348 -13630.3647019,-4480495.68694 -13675.6087079,-4480445.31375 -13720.6037113,-4480394.95396 -13777.8513247,-4480316.9673 -13876.232057,-4480153.86767 -13873.1408031,-4479802.92882 -13938.7953004,-4479625.6033 -13961.7784516,-4479541.96356 -13969.749199,-4479439.15154 -13999.8561894,-4479362.62138 -14039.0025543,-4479203.19955 -14061.2916727,-4479106.61195 -14080.7680775,-4478962.22942 -14106.0845595,-4478414.48962 -13919.9119379,-4478253.66514 -13781.3311993,-4478216.64575 -13646.221516,-4478244.36696 -13539.2496446,-4478284.5638 -13506.2309984,-4478306.81117 -13414.1471095,-4478373.17955 -13337.2003399,-4478465.70612 -13272.2845055,-4478531.11744 -13166.2555706,-4478584.24963 -13026.1136018,-4478653.19548 -12901.2596218,-4478741.79887 -12792.284138,-4478744.64577 -12723.4958585,-4478737.84608 -12651.6098192,-4478673.27705 -12559.2071494,-4478603.31527 -12527.7842471,-4478529.58416 -12516.3346274,-4478441.79651 -12517.2099226,-4478332.37138 -12547.3184313,-4478255.8405 -12596.7240092,-4478157.29842 -12659.6026623,-4478058.53355 -12732.1769589,-4478010.19212 -12790.3350222,-4477949.13874 -12853.809836,-4477856.83502 -12899.1804193,-4477813.4484 -12957.1515916,-4477748.9092 -13028.4442326,-4477676.66374 -13087.8838187,-4477639.5152 -13173.5925045,-4477579.98195 -13267.4926313,-4477547.47882 -13361.7664361,-4477521.94785 -13481.7398226,-4477468.06954 -13636.5205912,-4477425.31073 -13779.1010188,-4477411.1745 -13885.2273057,-4477350.5473 -13928.0613503,-4477259.85103 -13963.3982224,-4477155.07315 -13970.5261848,-4477031.83011 -13997.2269829,-4476887.06114 -14023.5547072,-4476749.30436 -14013.678203,-4476565.04314 -13994.0394724,-4476450.22706 -13960.80378,-4476342.63235 -13919.2791905,-4476201.52029 -13871.2543864,-4476074.24124 -13852.3368938,-4475972.87103 -13825.7268602,-4475858.42832 -13805.8133417,-4475743.12726 -13795.4340406,-4475675.26095 -13825.2952053,-4475598.74556 -13920.2893308,-4475586.6629 -13994.8919124,-4475576.17243 -14106.8634692,-4475624.61021 -14264.5793366,-4475636.63507 -14420.10655,-4475607.82379 -14478.956694,-4475433.8648 -14509.6004998,-4475367.29674 -14585.0814056,-4475247.38425 -14583.7722039,-4475097.12606 -14638.3372539,-4474964.35064 -14657.446498,-4474812.99857 -14731.4604379,-4474665.69687 -14817.9162668,-4474620.11156 -14884.0786562,-4474582.6056 -14979.0716849,-4474570.52407 -15093.7620804,-4474543.9027 -15160.6446816,-4474519.8428 -15240.0036542,-4474467.64608 -15386.3695657,-4474398.37497 -15530.7964771,-4474288.25519 -15636.3265272,-4474221.17233 -15733.5683751,-4474120.57291 -15849.6716523,-4473994.49159 -15967.0821531,-4473892.81221 -16070.6733443,-4473784.8815 -16179.5201703,-4473649.20142 -16275.7660371,-4473534.67287 -16363.8485937,-4473393.61325 -16394.0938221,-4473193.72413 -16376.0613322,-4472982.93674 -16351.0841652,-4472773.02071 -16321.544973,-4472603.80182 -16362.1686245,-4472471.77751 -16460.2292218,-4472391.11381 -16565.2882739,-4472310.57491 -16668.8804751,-4472202.64688 -16736.4581375,-4472065.68399 -16762.9166659,-4471920.93497 -16733.0325328,-4471745.24288 -16733.5422213,-4471628.85189 -16695.4692966,-4471426.13036 -16612.8696141,-4471287.22086 -16624.8882298,-4471129.26154 -16624.5812529,-4470992.93763 -16659.5773443,-4470881.69211 -16724.273291,-4470816.80043 -16803.0371122,-4470758.1475 -16883.1163008,-4470719.40079 -16983.7370909,-4470686.5462 -17085.1042559,-4470667.63526 -17234.6243811,-4470652.63878 -17265.4571244,-4470589.56054 -17330.526023,-4470531.64127 -17413.0797342,-4470417.85092 -17508.8572431,-4470289.86884 -17600.9799187,-4470163.58091 -17671.0212813,-4470067.94036 -17775.1477319,-4469969.97602 -17865.2125663,-4469931.19526 -17947.4350453,-4469871.85927 -18062.4538697,-4469790.79164 -18171.2829877,-4469720.04363 -18289.8498841,-4469635.29063 -18401.2584236,-4469547.42517 -18492.2498418,-4469460.65272 -18572.0374493,-4469360.49682 -18608.5004659,-4469276.64318 -18609.1022721,-4469157.25373 -18607.9682602,-4469075.41239 -18559.8318374,-4468941.15225 -18520.8595362,-4468721.50307 -18563.3694109,-4468493.99762 -18647.3899412,-4468407.59955 -18678.3645547,-4468221.16344 -18627.3251243,-4468032.62365 -18535.1056421,-4467839.79482 -18437.2295553,-4467667.24438 -18422.9843451,-4467531.66964 -18285.7132504,-4467388.19409 -18115.0407508,-4467264.48355 -18066.214288,-4467117.2744 -17983.6683351,-4466848.51601 -17947.51548,-4466686.14582 -17938.7784445,-4466522.80847 -17915.1312853,-4466332.80139 -17876.1028246,-4466116.64908 -17762.1803277,-4466026.85644 -17601.3682804,-4465830.70084 -17470.8483371,-4465687.35987 -17509.3720152,-4465385.15645 -17576.4746491,-4465108.39311 -17668.5346194,-4464789.3446 -17721.4479396,-4464499.35775 -17667.5141414,-4464256.53434 -17662.749457,-4463915.19644 -17634.0233423,-4463630.07401 -17623.3581693,-4463425.88837 -17503.1374995,-4463227.55872 -17342.331548,-4463031.39783 -17321.5930292,-4462895.66916 -17314.3268759,-4462759.7198 -17152.0579044,-4462536.16858 -17019.609681,-4462351.97427 -16962.6902535,-4462202.69695 -16909.4395278,-4462084.68609 -16875.7529198,-4461963.632 -16843.2544412,-4461869.48237 -16796.8409602,-4461762.59222 -16679.7991173,-4461619.02383 -16510.6141332,-4461265.99227 -16364.9424722,-4461095.98549 -16188.5122344,-4460859.70159 -16015.4780379,-4460691.65474 -15887.1461515,-4460589.13927 -15834.6588971,-4460373.20057 -15718.3364607,-4460243.07463 -15633.7396076,-4460192.65809 -15516.2031841,-4460035.12871 -15283.5320255,-4459774.37669 -14975.9817764,-4459640.47902 -14812.6388978,-4459649.20316 -14230.6364267,-4459748.70857 -14120.1113748,-4459727.14361 -13969.0256576,-4459708.24435 -13766.032015,-4459746.05514 -13623.2849472,-4459630.82095 -13535.8140197,-4459526.6181 -13329.4244938,-4459496.18857 -13104.0369484,-4459371.88234 -12878.4023684,-4459233.60465 -12797.8085614,-4459005.67441 -12579.8227588,-4458758.11121 -12441.0547985,-4458464.86422 -12052.9051404,-4458103.0245 -11913.6697868,-4457796.31518 -11488.2234231,-4457245.67741 -11292.2776792,-4456901.03839 -11205.149738,-4456550.59 -11212.5261629,-4456174.12115 -11328.5000581,-4456045.07073 -11269.5105923,-4455707.10461 -11322.2091124,-4455417.11744 -11505.6945816,-4455270.98118 -11618.0288649,-4455073.70434 -11709.6631367,-4454741.18748 -11857.016751,-4454432.66809 -11884.782295,-4454185.46678 -11957.9914932,-4454017.74811 -11861.5367482,-4453749.70483 -11837.9161346,-4453559.68279 -11826.9985368,-4453354.99907 -11831.0152497,-4453177.48693 -12022.5708862,-4452985.97726 -12139.8662984,-4452773.95681 -12160.4454495,-4452438.74162 -12291.1317035,-4452238.99336 -12237.7541747,-4451959.16359 -12109.4792317,-4451721.783 -11736.7365687,-4451484.45084 -11580.059851,-4451032.82832 -11770.6065173,-4450503.76244 -11754.6404908,-4449951.24553 -11606.0108205,-4449467.72813 -11400.8970555,-4448945.76652 -11282.0576968,-4448515.09668 -11210.1177089,-4448191.30265 -11119.7131027,-4448031.80621 -11030.7945219,-4447900.19851 -11009.7550067,-4447505.26939 -10978.6295675,-4447178.8003 -10872.4412337,-4446844.84231 -10651.5085097,-4446677.31333 -10661.4564069,-4445584.02229 -10649.7737988,-4445106.68649 -10692.6270913,-4444626.44728 -10718.961834,-4444351.85549 -10626.4162066,-4444152.01468 -10574.4597535,-4443950.01284 -10619.5555217,-4443769.81411 -10694.7097828,-4443642.95322 -10688.8424732,-4443274.6843 -10751.6722567,-4442916.24402 -10957.23189,-4442673.0687 -11174.5630612,-4442388.31488 -11282.3305614,-4442109.39252 -11339.6676796,-4441901.07646 -11371.8135915,-4441735.55358 -11487.3410837,-4441593.06297 -11645.6032571,-4441488.75262 -11830.3182271,-4441370.05018 -11949.4490817,-4441295.29082 -12104.1074655,-4441123.25159 -12258.0240826,-4440937.26858 -12446.1653718,-4440620.11537 -12779.244537,-4440206.35736 -13038.5454965,-4439687.1539 -13194.584833,-4439282.81725 -13242.2769512,-4438897.7278 -13539.5821413,-4438581.27061 -13694.9106832,-4438163.49204 -13943.4114286,-4437699.31051 -14146.0920793,-4437401.87357 -14402.2192003,-4437081.12124 -14500.4285934,-4436871.14323 -14609.8874829,-4436619.1169 -14774.6191131,-4436378.13702 -15000.4192357,-4436257.26584 -15187.5268544,-4436178.90334 -15441.8961692,-4436083.48268 -15646.074645,-4436072.63179 -15939.3571661,-4435934.19306 -16190.8135548,-4435783.99472 -16391.3648496,-4435704.91976 -16601.323573,-4435544.44298 -16867.1614346,-4435406.46689 -17047.7830146,-4435206.10077 -17272.8116077,-4435070.79405 -17457.7723051,-4434952.09922 -17630.4669248,-4434861.02366 -17855.2455697,-4434725.73194 -18069.0232097,-4434632.47456 -18251.5644577,-4434472.96046 -18454.5899444,-4434182.01913 -18577.0318188,-4433915.83449 -18684.1353614,-4433610.01523 -18817.6062625,-4433302.29693 -18996.9650324,-4432814.86182 -19286.8044224,-4432362.51135 -19553.8419014,-4431993.27276 -19817.5069913,-4431555.80082 -20118.3854805,-4431047.94157 -20344.5924095,-4430680.87801 -20768.159601,-4430170.00866 -20925.5906975,-4429941.92969 -21243.9196614,-4429649.88258 -21586.6169692,-4429313.59889 -21836.9329004,-4428807.94143 -21893.8928404,-4428394.4413 -21885.4558072,-4427995.39721 -22027.9230116,-4427635.78766 -22185.1095701,-4427407.72969 -22215.8294597,-4427191.37426 -22223.2724885,-4426804.47291 -22273.5341111,-4426297.45143 -22292.3925797,-4425970.36801 -22364.5634829,-4425815.2344 -22618.2529258,-4425580.06636 -22779.7210966,-4425432.68294 -22943.7669763,-4425173.80656 -22968.8794758,-4424912.80906 -22951.7635491,-4424702.98746 -22954.9096281,-4424498.58333 -22944.2218064,-4424339.35539 -23027.7059444,-4423978.38884 -22943.5318639,-4423577.37202 -22783.4424812,-4423204.3469 -22685.1149156,-4422974.35976 -22623.2275582,-4422696.99941 -22484.3232604,-4422596.49823 -22243.031929,-4422566.33905 -21953.1396672,-4422622.64801 -21665.0915257,-4422671.36913 -21331.2489668,-4422704.04067 -20935.6840809,-4422815.88728 -20642.9432823,-4422870.35127 -20368.8745756,-4422848.42087 -20033.3326505,-4422797.28863 -19703.0629258,-4422760.85786 -19624.0234065,-4422494.38425 -19527.0425023,-4422223.86705 -19412.9510336,-4421851.88343 -19427.7832099,-4421580.43498 -19490.4370963,-4421311.44703 -19544.5160709,-4420988.98103 -19454.8774797,-4420715.57623 -19324.6626629,-4420548.19066 -19185.4559267,-4420295.88709 -18957.2868354,-4420065.77259 -18712.3506746,-4419858.51764 -18504.5252329,-4419602.3543 -18455.291058,-4419323.30968 -18408.8610721,-4419040.62061 -18317.7988142,-4418933.58046 -18047.2373616,-4418709.20038 -17783.7353159,-4418471.96051 -17546.1696729,-4418238.83936 -17397.739073,-4417939.57347 -17273.7493063,-4417592.5696 -16968.1257629,-4417394.50879 -16701.0507914,-4417349.21791 -16464.5176471,-4417239.3865 -16227.9093186,-4417010.20303 -16098.8573878,-4416779.82043 -16068.1410852,-4416520.26195 -15925.077037,-4416232.68971 -15737.102082,-4416087.32447 -15471.6361518,-4415996.99786 -15045.8505369,-4415868.70981 -14729.0125204,-4415746.6413 -14377.1572782,-4415632.91705 -14031.4309578,-4415460.43692 -13562.2102572,-4415205.09505 -13292.6971046,-4414906.22358 -13311.4103171,-4415090.01582 -13342.0934386,-4415287.65759 -13386.8374811,-4415524.50813 -13442.207329,-4415655.42048 -13450.2187063,-4416038.04465 -13465.9533668,-4416156.07176 -13535.4112504,-4416326.6903 -13591.6546777,-4416483.52503 -13594.4061245,-4416615.72307 -13620.7108327,-4416754.16568 -13680.9003736,-4416957.23623 -13687.0741291,-4417092.74886 -13689.3982239,-4417282.90088 -13725.016604,-4417446.32003 -13740.1168009,-4417670.25489 -13837.8729346,-4418181.96811 -13885.0762719,-4418880.13927 -13702.2766766,-4419412.70044 -13647.3923511,-4419743.71927 -13593.6751424,-4420073.1785 -13598.7563387,-4420376.55087 -13596.9115127,-4420619.86144 -13680.1136571,-4420870.65273 -13746.5426877,-4421049.91773 -13765.8589186,-4421197.71849 -13822.917018,-4421374.48308 -13855.5168122,-4421542.05567 -13865.835024,-4421703.81694 -13914.2531686,-4421906.00925 -13934.0063956,-4422099.73203 -13935.8262952,-4422242.46648 -13968.2727237,-4422416.53901 -14057.9424943,-4422563.10806 -14134.0422718,-4422693.91548 -14186.1264162,-4422880.43078 -14229.6714415,-4423117.83854 -14229.8096805,-4423280.63795 -14261.8391888,-4423456.2299 -14287.1424043,-4423622.68951 -14272.2022759,-4423764.81358 -14239.431806,-4423923.86386 -14217.1654438,-4424064.37879 -14265.5857803,-4424224.11942 -14397.4645747,-4424351.96823 -14480.9689343,-4424476.38826 -14572.4218164,-4424651.82544 -14759.8692632,-4424815.18126 -14792.0457473,-4424922.84491 -14790.8062268,-4425106.69142 -14731.5382115,-4425298.10938 -14655.8252632,-4425461.93351 -14540.1549041,-4425696.29531 -14508.5084868,-4425871.76672 -14445.2126876,-4426114.33891 -14371.0441723,-4426302.55334 -14290.1754981,-4426482.13411 -14217.5655335,-4426633.80975 -14126.2730773,-4426800.46 -14017.7351167,-4426938.56018 -13899.5882585,-4427102.64029 -13802.8378363,-4427317.02512 -13760.7991916,-4427423.63189 -13651.031351,-4427533.83163 -13557.1245396,-4427651.18083 -13452.3414797,-4427803.56672 -13202.8293311,-4427953.14355 -13197.9290876,-4428143.18079 -13218.0579393,-4428324.89831 -13216.2920528,-4428456.33784 -13190.7111442,-4428675.43963 -13157.0416178,-4428887.97897 -13037.672323,-4428977.21597 -12900.1824315,-4429077.90251 -12796.0882142,-4429243.23954 -12620.1189793,-4429343.47171 -12481.5815669,-4429386.78177 -12344.6743014,-4429441.99151 -12169.6574054,-4429503.71867 -12001.7446189,-4429567.56615 -11864.4138462,-4429614.80816 -11450.9625697,-4429809.05199 -11227.9477553,-4429926.26698 -11096.3198311,-4430038.63205 -10987.7653406,-4430195.22059 -10672.1358274,-4430388.27191 -10400.0795797,-4430513.08682 -10252.1373891,-4430633.31181 -10157.2708663,-4430713.76178 -10020.1548106,-4430863.87808 -9862.03606179,-4430971.15971 -9779.44277069,-4431179.31327 -9730.44049467,-4431385.1844 -9615.50687216,-4431605.04446 -9575.16607345,-4431720.05861 -9525.0256666,-4431815.11636 -9488.68036709,-4431868.98745 -9399.97565678,-4431952.6083 -9289.79164439,-4432040.86589 -9070.68809796,-4432118.92531 -8847.69247061,-4432227.15811 -8616.89281779,-4432268.38138 -8475.56724381,-4432273.38878 -8342.27184242,-4432297.94746 -8169.6686584,-4432320.59798 -8027.98341054,-4432370.5745 -7890.57321256,-4432425.81803 -7735.21139254,-4432491.00505 -7608.34721633,-4432453.29136 -7490.99352795,-4432293.70697 -7349.13256842,-4432222.82681 -7241.53319091,-4432237.53053 -7120.73973899,-4432205.98672 -7041.74643634,-4432096.30694 -6865.7534606,-4432078.68183 -6697.73332055,-4432070.12285 -6469.80173683,-4432090.21716 -6253.10657031,-4432119.70396 -6007.52610371,-4432127.25032 -5906.84724423,-4432173.55173 -5804.49112919,-4432192.97168 -5713.53276523,-4432201.29785 -5611.88840838,-4432257.6399 -5493.06796756,-4432357.34806 -5431.63563805,-4432385.58319 -5349.44610906,-4432450.88166 -5251.49296548,-4432525.0087 -5127.96843757,-4432489.11435 -5051.04775743,-4432526.663 -5034.4231808,-4432627.43791 -5105.2958074,-4432744.04402 -5035.8253283,-4432903.06557 -4864.71042609,-4433118.43084 -4668.61009973,-4433107.86856 -4595.72776567,-4433066.28831 -4393.47377751,-4433207.88973 -4312.67621623,-4433087.81443 -4227.55230878,-4432938.0008 -4072.85548866,-4432898.26793 -3930.61253887,-4432890.83831 -3693.62326284,-4432923.90272 -3513.78110287,-4432984.39981 -3335.51269289,-4432909.95671 -3202.97572239,-4432836.08141 -3087.06055213,-4432821.25968 -2987.07496495,-4432843.05229 -2718.31474031,-4433049.12341 -2841.04328127,-4432754.90909 -2856.88107749,-4432625.20413 -2800.80360651,-4432533.28238 -2704.64102838,-4432518.90964 -2628.86786767,-4432437.02411 -2508.93082554,-4432539.29228 -2437.27266428,-4432539.60137 -2396.75575149,-4432646.64274 -2242.87442226,-4432702.26499 -2101.85044288,-4432783.67685 -1966.04194047,-4432779.90084 -1791.01012094,-4432681.80858 -1625.46751567,-4432776.5104 -1520.2176177,-4432812.06877 -1380.77735032,-4432697.60096 -1341.05853218,-4432636.27626 -1427.73824504,-4432523.78533 -1477.85382351,-4432451.69625 -1564.50718715,-4432338.70759 -1461.03297879,-4432304.24398 -1359.97444545,-4432334.08499 -1214.1548821,-4432339.33103 -1149.7112881,-4432353.24229 -1107.075554,-4432443.91466 -995.380095964,-4432376.92171 -867.714237627,-4432075.02066 -767.644400692,-4432062.35297 -617.07683853,-4432119.29758 -580.075363934,-4432010.37679 -748.216828394,-4431748.21038 -574.168751889,-4431767.44143 -321.348534488,-4431798.84687 -79.366455005,-4431855.65032 40.0544544945,-4431948.90221 240.837440575,-4431982.04056 368.518932327,-4432070.23718 552.522199624,-4431996.09334 760.069698425,-4432169.94835 1123.56585212,-4432280.65789 1442.35840769,-4432405.47768 1714.80976079,-4432485.87956 1895.66595035,-4432503.97537 2058.21989116,-4432335.28564 2143.29444761,-4432412.2308 2305.32313962,-4432413.34268 2452.78704271,-4432251.34322 2592.37753358,-4432275.23937 2708.71870141,-4432261.93679 2861.96189844,-4432075.76758 2998.99421341,-4432105.52175 3085.49132559,-4432198.02761 3302.98268997,-4432227.05951 3428.76753379,-4431923.04598 3820.15311355,-4431927.34437 3962.14164271,-4431844.97215 3982.24430792,-4431659.22308 4105.81407247,-4431636.81258 4318.21459157,-4431710.02955 4391.68315537,-4431690.45344 4448.75814648,-4431575.09962 4477.35295404,-4431535.15838 4515.23121327,-4431546.16073 4531.98840087,-4431564.53338 4562.94391953,-4431607.13698 5162.4740935,-4431605.00242 5291.14121671,-4431618.32779 5439.05846195,-4431560.74483 5794.05693822,-4431493.17677 6172.86323382,-4431621.6854 6385.00796324,-4431464.61044 6501.14868044,-4431412.8322 6624.87582542,-4431340.47663 6817.27769258,-4431301.23889 7020.47962591,-4431209.12514 7176.23436804,-4431074.52987 7221.79390519,-4430945.57314 7201.56974833,-4430766.66806 7261.43295563,-4430603.50361 7510.68875546,-4430448.39444 7876.59601817,-4430391.88954 8160.09176257,-4430386.95708 8414.89812542,-4430428.45679 8631.69889754,-4430418.98488 8880.73803048,-4430286.83994 9108.54653329,-4430229.99642 9249.53103402,-4430209.00645 9447.62722857,-4430199.04055 9633.75156263,-4430226.40411 9721.91479598,-4430217.09683 9806.56282509,-4430095.20638 10079.4014402,-4430131.16896 10519.6265989,-4429799.36059 10650.8683129,-4429877.26185 10707.4447812,-4430119.54685 11100.4690592,-4430192.36168 11392.2536698,-4430200.85631 11602.0163178,-4430465.26256 11781.712663,-4430307.95165 11914.424609,-4430297.01249 12018.8232329,-4430395.97045 12125.4377919,-4430551.99527 12246.4554786,-4430601.3811 12361.0703664,-4430489.07126 12577.2677542,-4430500.54802 12808.6242563,-4430532.31222 12958.6844138,-4430486.32603 13237.6673577,-4430609.0404 13423.1323169,-4430545.45075 13621.7576348,-4430544.50497 13778.7429036,-4430523.36447 13810.8224419,-4430290.77307 14014.7483417,-4430194.69163 14166.2783015,-4430149.28183 14282.1191859,-4430084.49273 14409.1963652,-4429840.95621 14646.2244735,-4429747.12969 14858.0690349,-4429741.88809 15110.347418,-4429996.07021 15257.4411433,-4430170.73399 15385.810113,-4430236.99683 15670.4586411,-4430342.52908 15904.7460153,-4430403.92401 16110.2222107,-4430339.89552 16316.2660273,-4430326.35392 16515.4348499,-4430296.46087 16722.0383139,-4430206.51353 16859.8616977,-4430301.75516 17037.3225571,-4430356.13744 17212.6434169,-4430417.9 17371.6158105,-4430538.24497 17491.9150336,-4430596.58758 17679.9646701,-4430691.49941 17803.0570592,-4430748.9915 18048.6353595,-4430786.00884 18337.0419835,-4430773.84277 18512.0711193,-4430761.15301 18654.4722009,-4430567.87888 18946.9232039,-4430197.22218 19167.2369945,-4430009.08118 19433.6173298,-4429917.80714 19677.7738239,-4429948.75223 19850.9986396,-4429988.9218 20004.9069463,-4430040.05642 20144.8533385,-4430118.92696 20247.304136,-4430108.8778 20257.1319881,-4429886.08041 20426.8600327,-4429832.14039 20750.7052759,-4429834.84147 20774.3651217,-4429610.27907 20991.663179,-4429577.84784 21230.827976,-4429580.54987 21462.2697716,-4429615.81567 21650.560788,-4429659.28295 21842.6188154,-4429782.38728 21995.6921272,-4429684.59613 22172.1092908,-4429749.41613 22344.9906598,-4429805.55537 22463.3339064,-4429707.91874 22552.1371765,-4429583.23401 22715.4438384,-4429560.92612 22849.5176262,-4429646.98047 22998.4691611,-4429504.50402 23130.2256612,-4429347.12544 23343.4765897,-4429108.63808 23451.4261926,-4429004.45262 23620.6205305,-4428833.57144 23849.7384896,-4428799.76611 24032.4621489,-4428783.48311 24189.1274847,-4428782.80408 24401.6601222,-4428901.5005 24599.4846831,-4429193.78337 24719.5916829,-4429383.0181 24902.795798,-4429706.00293 24938.0373131,-4429856.26046 25184.4685703,-4429962.27052 25288.6966789,-4430064.7296 25350.624889,-4430173.43705 25511.8777976,-4430180.49804 25633.1890238,-4430139.9731 25982.1434364,-4429858.22219 26131.0287215,-4429787.68385 26197.51443,-4429645.82175 26283.9499435,-4429457.55384 26297.2490059,-4429418.78922 26335.7683398,-4429304.92031 26447.4596319,-4429167.95494 26559.7673549,-4429000.54469 26716.2850799,-4429016.84539 26898.3183447,-4429032.50177 27109.5650148,-4429166.12252 27286.399544,-4429227.96902 27339.0753172,-4429242.7559 27389.1151792,-4429288.38007" style="stroke-linejoin:round;stroke:#000;stroke-width:1px;fill:none" /></g></g></svg>