<svg xmlns="http://www.w3.org/2000/svg" baseProfile="full" height="116180.594582" version="1.1" viewBox="-9416.092685,4344222.261218,165880.184211,116180.594582" width="165880.184211"><defs><style type="text/css">polyline,line,rect,path,polygon,.polygon{fill:none;stroke:#000;stroke-width:1px;stroke-linejoin:round;}</style></defs><g fill_rule="evenodd" transform="scale(1,-1)"><g class="id" id="58091"><polygon class="_58091" id="None" points="-3626.46791351,-4344220.01155 -3622.85215423,-4344223.16031 -3533.43486864,-4344301.3389 -3452.97234943,-4344354.66176 -3368.05993439,-4344379.19184 -3267.80917461,-4344389.37346 -3161.9266821,-4344402.28843 -3073.52165175,-4344414.97327 -2991.72598513,-4344436.37556 -2902.9459497,-4344440.08271 -2821.00438207,-4344457.99371 -2735.59115044,-4344464.5581 -2664.51709321,-4344467.52594 -2587.83214733,-4344473.72589 -2547.55924407,-4344502.3879 -2521.09008499,-4344580.43709 -2455.46562646,-4344636.13887 -2383.00201388,-4344671.64123 -2324.77294328,-4344695.05756 -2251.33034137,-4344707.11795 -2196.3234909,-4344741.89143 -2113.61756705,-4344813.29593 -2048.74344384,-4344892.94933 -1996.69380178,-4344992.5524 -2004.39398696,-4345105.14899 -2077.5167549,-4345223.00742 -2114.39445332,-4345328.38963 -2158.6251812,-4345394.49297 -2193.50315194,-4345451.99342 -2170.46409321,-4345534.39651 -2133.78810175,-4345577.39824 -2083.02406656,-4345641.97319 -2017.64996662,-4345703.66099 -1960.27514578,-4345747.5274 -1837.43608722,-4345785.13479 -1714.97130275,-4345825.72446 -1648.99356416,-4345878.94392 -1397.74312456,-4346131.76437 -1335.9228668,-4346194.8033 -1212.80992293,-4346201.94476 -1176.25895492,-4346247.9397 -1207.41057241,-4346431.50554 -1188.7816724,-4346547.70086 -1158.30809225,-4346673.3846 -1179.31422722,-4346817.4029 -1195.99218757,-4346911.63788 -1221.99756266,-4346972.00718 -1251.22618413,-4347049.72921 -1293.29644241,-4347111.92543 -1345.13439788,-4347174.71276 -1357.32229249,-4347257.14378 -1358.28793619,-4347340.04368 -1301.64366711,-4347407.36373 -1297.48010482,-4347522.95461 -1277.2281234,-4347612.23719 -1258.60046017,-4347728.4325 -1258.36704333,-4347860.34731 -1234.00526224,-4347988.77366 -1225.07647956,-4348050.10292 -1155.52416331,-4348095.47899 -1047.77348937,-4348135.4565 -941.910607208,-4348148.87419 -816.966275881,-4348136.10868 -694.284884176,-4348105.76107 -621.604148973,-4348064.33026 -548.193837661,-4348005.44236 -493.344525572,-4347966.26412 -418.297106646,-4347945.9171 -339.972579006,-4347978.66931 -263.411594075,-4347987.86456 -196.841692129,-4347955.17177 -100.844071935,-4347923.70872 -15.48739465,-4347895.79811 89.2835732069,-4347839.7193 182.038645313,-4347814.11634 262.343029571,-4347805.4807 362.847181748,-4347803.68495 475.134476281,-4347806.87845 630.999432303,-4347837.37515 756.458474283,-4347878.09321 828.922780648,-4347913.59876 898.14430903,-4347954.96463 966.227624239,-4347957.80993 1040.79735254,-4347942.9389 1103.49989506,-4347931.06946 1167.23574206,-4347966.21039 1235.95715688,-4348019.54716 1316.42001169,-4348078.87088 1428.55318745,-4348157.50577 1575.09925619,-4348261.56242 1669.77515654,-4348339.46804 1829.60703148,-4348400.61058 1992.12896415,-4348552.80286 2082.08262304,-4348665.98713 2177.38485615,-4348722.93411 2367.6862993,-4348772.36006 2539.15526494,-4348847.98046 2673.62681638,-4348954.03262 2784.02992564,-4349074.06863 2801.14319083,-4349160.72517 2860.15609152,-4349237.14154 3002.09268433,-4349314.02667 3072.41501881,-4349364.93378 3175.56975437,-4349449.19176 3258.11074093,-4349512.6017 3268.37591704,-4349524.02337 3330.2780726,-4349597.06341 3381.49626195,-4349680.64937 3442.81187768,-4349785.64331 3504.63223745,-4349848.68696 3590.18850846,-4349899.73192 3691.10127807,-4349965.90921 3719.3306619,-4350067.52152 3715.86859501,-4350150.32059 3677.11755948,-4350228.64611 3695.21025995,-4350291.86032 3744.23319703,-4350320.39226 3790.76308457,-4350342.82403 3903.90853674,-4350325.57007 3976.9995227,-4350346.11456 4043.47845223,-4350387.36844 4094.36794509,-4350442.96037 4140.02281294,-4350480.34558 4185.58253809,-4350597.67301 4229.03631781,-4350759.38253 4303.26368136,-4350824.44498 4439.1952471,-4350895.58565 4521.38892765,-4350919.50929 4584.62575938,-4350960.62812 4621.42657853,-4351000.6414 4638.53849098,-4351087.29949 4631.47787131,-4351184.43894 4559.80360518,-4351273.37966 4491.87404293,-4351338.49299 4517.68133716,-4351503.96207 4556.56706396,-4351631.50405 4536.24049289,-4351765.06368 4577.40009578,-4351838.23739 4587.01250957,-4351901.09759 4585.97551473,-4352015.47748 4594.93511355,-4352129.77587 4656.60559077,-4352214.30071 4676.8553899,-4352297.59257 4675.86472154,-4352380.99522 4685.49770409,-4352443.35669 4747.18884378,-4352527.38296 4778.10894747,-4352558.65644 4797.79204144,-4352673.40366 4755.08931221,-4352756.56028 4733.41724602,-4352850.59001 4799.4573053,-4352902.3202 4859.57446658,-4352952.30365 4894.39204556,-4353039.70293 4885.97322502,-4353169.26384 4883.89456806,-4353290.59569 4897.38586755,-4353392.09271 4920.00250094,-4353484.47793 4955.23922742,-4353549.90962 5029.77621399,-4353619.48419 5075.30396908,-4353665.85961 5153.37853211,-4353710.599 5242.56947907,-4353770.29399 5315.26388121,-4353800.31802 5406.68721837,-4353812.63812 5511.92861846,-4353841.0262 5607.37556437,-4353900.48361 5679.69008186,-4353963.4701 5814.66613722,-4354027.57997 5939.10713249,-4354080.75602 6063.25707882,-4354134.91936 6149.35677173,-4354167.00389 6268.91553093,-4354211.48152 6391.634182,-4354252.09412 6484.67439824,-4354291.46472 6551.02890782,-4354329.71854 6610.29030568,-4354400.1543 6657.07945933,-4354482.06029 6703.36640122,-4354581.93356 6765.03987123,-4354755.90297 6836.5775037,-4354861.33041 6919.19878931,-4354934.74309 6960.35698383,-4355007.91933 6969.64993549,-4355102.24714 6937.14334296,-4355216.31124 6936.99253903,-4355351.21701 6966.15837206,-4355424.39105 6996.95852431,-4355536.10848 7016.10058398,-4355639.84281 7045.89937553,-4355769.50671 7055.29373405,-4355873.33268 7069.57278527,-4355973.86545 7061.67120224,-4356096.95431 7062.980039,-4356202.94015 7034.39889056,-4356324.66346 6992.18904696,-4356419.83299 6982.75618292,-4356507.88039 6934.81124987,-4356596.81357 6901.70494004,-4356689.36606 6828.11724128,-4356758.23776 6712.95845979,-4356847.35425 6658.52529592,-4356954.00361 6682.92180404,-4357069.45031 6718.07154804,-4357244.30879 6705.67949591,-4357367.20908 6627.94733146,-4357475.38078 6537.53885328,-4357576.02605 6516.05433425,-4357647.57873 6556.7902348,-4357742.7235 6555.79550102,-4357826.1271 6502.99235692,-4357887.87361 6450.05997176,-4357970.60087 6428.72277701,-4358032.66582 6427.72784336,-4358116.06932 6427.83621262,-4358191.0246 6482.71294976,-4358246.78802 6481.71785845,-4358330.19154 6517.94574525,-4358413.65521 6572.92819635,-4358460.92877 6590.90812636,-4358544.62751 6608.1358044,-4358646.28296 6662.69228059,-4358739.50871 6717.24870046,-4358832.73453 6790.42909081,-4358916.74718 6845.25976423,-4358991.49676 6918.71582233,-4359051.03714 6969.47656064,-4359109.6268 7010.62064094,-4359141.33092 7111.40344038,-4359216.50687 7194.23359676,-4359272.94254 7212.16126408,-4359310.16988 7304.78895534,-4359329.5405 7443.64344137,-4359330.86083 7533.92359022,-4359346.63542 7626.60734557,-4359394.49005 7677.03656503,-4359449.06892 7692.11357497,-4359500.66765 7709.74172778,-4359574.85873 7724.70585511,-4359664.92788 7763.74474754,-4359723.02709 7818.60037215,-4359779.29067 7947.31209309,-4359873.62636 8058.16742798,-4359893.26164 8150.82076095,-4359894.14585 8243.79468714,-4359857.56755 8317.9757332,-4359840.18894 8456.51085418,-4359878.97256 8520.61548411,-4359935.12443 8640.37444234,-4360010.59755 8705.02818644,-4360029.79618 8806.35659247,-4360086.009 8972.09377001,-4360143.42184 9138.62542483,-4360181.8802 9258.81140739,-4360211.401 9313.3928373,-4360286.14236 9386.57359375,-4360370.15783 9478.65351977,-4360426.4834 9548.86663467,-4360491.88639 9587.61799162,-4360622.42905 9605.39339353,-4360687.13366 9641.79338301,-4360742.62513 9734.35557023,-4360781.48234 9808.28390353,-4360782.08223 9864.05625867,-4360744.94445 9911.08290342,-4360689.95108 9958.10954456,-4360634.95767 9995.36322812,-4360598.54274 10069.4186089,-4360590.15349 10171.5509039,-4360591.43556 10263.9564592,-4360592.31001 10310.1592642,-4360592.74724 10385.3343397,-4360509.95133 10441.3397342,-4360455.33391 10552.4719011,-4360456.49335 10663.3042995,-4360494.61727 10745.4390615,-4360597.49764 10837.3930003,-4360662.81323 10901.600052,-4360728.46511 10984.1825357,-4360784.89338 11020.5366531,-4360859.37189 11112.4697284,-4360925.18665 11185.9719787,-4360971.74045 11218.4951053,-4360988.59401 11278.1589361,-4361019.57712 11370.3921813,-4361048.4275 11367.1963536,-4361112.75387 11384.9507679,-4361177.95836 11385.7184178,-4361183.48715 11393.7055482,-4361243.28533 11392.8558482,-4361317.20421 11373.4020564,-4361399.83742 11335.3068407,-4361474.19384 11334.7064066,-4361548.12312 11333.5562605,-4361659.00658 11351.1579522,-4361751.68779 11387.786392,-4361807.68969 11424.165406,-4361863.68117 11497.4986219,-4361920.22244 11571.1021705,-4361976.27543 11644.5578281,-4362041.81646 11680.6409736,-4362116.78409 11698.2678489,-4362190.97802 11744.145195,-4362246.86828 11751.9684354,-4362376.11728 11751.2241178,-4362441.54597 11741.1455312,-4362515.07811 11758.4715851,-4362626.23687 11767.2511595,-4362673.0765 11775.7463237,-4362774.37086 11821.3321662,-4362831.24854 11848.4570413,-4362905.3412 11902.4363387,-4363054.01499 11901.5854752,-4363127.93409 11947.0393369,-4363211.78994 12001.6955858,-4363314.52044 12056.1232723,-4363416.74176 12110.5508888,-4363518.96317 12215.8032004,-4363594.83337 12313.0937516,-4363675.86649 12390.1853729,-4363744.05994 12491.7271056,-4363860.75006 12562.330811,-4363940.66438 12690.4322027,-4364067.4633 12773.8874871,-4364198.38638 12815.313379,-4364265.08458 12877.4403129,-4364332.65106 12936.9283287,-4364397.60844 12987.8350691,-4364452.71169 13032.1266155,-4364528.52487 13085.2521195,-4364602.21015 13126.8017443,-4364671.91205 13174.338873,-4364735.86876 13235.9400704,-4364750.44545 13324.1044357,-4364763.13817 13383.5915583,-4364756.6388 13434.4748471,-4364746.78032 13507.5474426,-4364767.83465 13589.7453714,-4364785.77387 13660.2017374,-4364797.72387 13728.2929136,-4364794.58362 13791.8336098,-4364786.75518 13875.5641903,-4364750.29116 13949.7493569,-4364732.91511 14033.0565535,-4364724.41663 14153.5681991,-4364716.47931 14227.7225849,-4364735.58031 14301.3313149,-4364773.64722 14359.9719105,-4364823.07923 14402.116084,-4364848.83288 14466.8941368,-4364877.0351 14521.8772553,-4364924.31498 14557.954203,-4365017.27444 14631.2825436,-4365091.8084 14723.3638767,-4365148.1403 14806.2220111,-4365186.09594 14907.8332269,-4365205.84947 15065.1737584,-4365207.45291 15139.3546315,-4365208.0663 15213.5666699,-4365172.20229 15288.0490881,-4365135.84988 15325.6774406,-4365108.44529 15399.7623245,-4365081.5706 15473.7952365,-4365091.67219 15538.2983585,-4365138.35253 15630.3803422,-4365194.68494 15704.2544735,-4365178.79502 15750.8987156,-4365168.75873 15806.9037351,-4365132.13073 15844.1606783,-4365095.71564 15908.5118572,-4365092.41864 15992.0246177,-4365096.92143 16053.126667,-4365117.4743 16125.1108894,-4365170.46527 16148.9332756,-4365233.92866 16167.2910876,-4365290.66656 16234.0217297,-4365325.94735 16350.3847629,-4365369.30694 16444.033374,-4365400.22027 16558.5319448,-4365422.51381 16652.0568486,-4365450.42376 16704.073741,-4365479.09092 16749.6023307,-4365519.47904 16801.3663826,-4365560.1288 16857.511881,-4365615.45415 16922.0206766,-4365644.14582 16977.1737005,-4365681.43987 17004.0744246,-4365737.03752 17022.2506712,-4365774.27937 17076.880523,-4365895.50385 17113.1108304,-4365960.98765 17167.8609129,-4366025.7494 17259.7744462,-4366092.07056 17389.2370364,-4366120.98941 17434.8912274,-4366158.38498 17518.1013889,-4366205.85163 17665.2153354,-4366290.48037 17738.5236873,-4366365.51596 17885.7651358,-4366441.15546 17996.5756663,-4366497.7762 18143.5679075,-4366573.40556 18263.6071841,-4366630.41383 18346.3397846,-4366677.36138 18438.2484282,-4366761.67348 18511.2811777,-4366855.18799 18547.6806026,-4366910.68552 18621.116459,-4366976.7324 18694.8436121,-4367041.79214 18795.2062319,-4367144.94931 18877.7642292,-4367219.87462 18960.7254696,-4367267.33214 19071.4145411,-4367314.95403 19191.4270033,-4367324.98824 19265.9662679,-4367317.12273 19356.2875113,-4367290.4303 19534.627158,-4367291.91855 19635.6847803,-4367366.62142 19690.5416451,-4367422.89431 19726.867339,-4367515.86899 19809.4311936,-4367572.8052 19901.689922,-4367601.16421 19919.9188439,-4367601.42961 19966.6240402,-4367601.89078 20059.4401158,-4367575.30314 20115.1984707,-4367538.66465 20189.6582267,-4367520.80131 20273.1182721,-4367502.81599 20374.9829937,-4367522.58312 20429.819159,-4367579.35529 20484.9730719,-4367616.65138 20586.3390941,-4367636.39771 20669.7729782,-4367636.90136 20827.3228728,-4367657.50681 20901.2577773,-4367658.11149 20938.5171154,-4367621.69578 20994.5253311,-4367585.06755 21069.0120863,-4367548.71515 21161.4256796,-4367549.59565 21253.7919582,-4367569.46403 21321.7724217,-4367670.26518 21376.3274771,-4367763.50664 21431.0364613,-4367829.26927 21486.1907288,-4367866.5658 21568.7234826,-4367959.98242 21660.2356187,-4368053.7761 21724.1677983,-4368137.91666 21778.7170314,-4368249.14886 21805.6709247,-4368333.23646 21804.5403295,-4368425.64007 21813.434329,-4368499.47457 21793.8306469,-4368573.61189 21848.7830996,-4368657.37582 21903.1147884,-4368732.11852 21967.0199497,-4368834.7487 22012.4940044,-4368918.11492 22048.4211658,-4369020.57008 22065.2906421,-4369178.19563 22064.260274,-4369280.09862 22025.8745335,-4369390.92756 21969.8327904,-4369464.03459 21894.8193521,-4369518.85417 21820.4324145,-4369564.70476 21767.4392752,-4369594.96236 21735.2544952,-4369748.5288 21669.2945299,-4369831.71343 21576.0251749,-4369904.75594 21511.0366567,-4369941.00615 21446.1017932,-4369940.27827 21362.5130131,-4369967.25187 21297.8276568,-4369966.53445 21214.8928307,-4369900.58512 21084.9488945,-4369936.60622 20917.7928448,-4369990.0544 20805.3712652,-4370090.77675 20712.1024568,-4370163.81857 20600.3074562,-4370255.57175 20450.4773834,-4370402.19691 20385.0853677,-4370465.9147 20282.1689635,-4370548.54538 20207.2031249,-4370649.8403 20205.3425531,-4370807.17672 20204.7628893,-4370862.62227 20230.3338004,-4370973.63661 20245.3320526,-4371062.71857 20268.8106717,-4371152.15675 20259.7572633,-4371248.72391 20218.2157502,-4371345.4256 20160.3467004,-4371473.92373 20102.4775475,-4371602.42174 20028.6891124,-4371723.25471 19962.7605225,-4371835.42261 19929.8140886,-4371900.00263 19880.72002,-4371956.40835 19798.7295955,-4372052.40969 19733.2220422,-4372148.60362 19723.8116256,-4372253.65062 19746.8890007,-4372358.56332 19810.0292143,-4372497.14177 19898.040302,-4372602.78384 20001.7357284,-4372733.57172 20097.1917198,-4372888.00059 20112.4379606,-4372977.09311 20208.237526,-4373099.55411 20288.0257972,-4373180.86445 20367.9271292,-4373295.1618 20382.4938051,-4373424.20437 20381.9360259,-4373473.15442 20404.6180269,-4373635.02048 20354.9000574,-4373747.86891 20256.6448526,-4373868.17232 20191.0791881,-4373947.87215 20093.2835801,-4374003.7296 19979.4093283,-4374091.39353 19946.2983061,-4374147.97039 19921.0950982,-4374236.36239 19879.878145,-4374349.06769 19845.6275386,-4374510.03953 19867.6073982,-4374712.35347 19891.3414101,-4374777.8159 19938.3524288,-4374907.72217 19937.8150263,-4374956.17317 19932.2527514,-4375046.88979 19928.3105545,-4375140.67287 19895.1857914,-4375233.22921 19868.8008245,-4375367.54619 19850.0166091,-4375463.70365 19831.3768887,-4375562.36578 19848.1176537,-4375651.52128 19892.6664551,-4375804.3118 19936.436105,-4375928.08547 19979.3637739,-4376024.33881 19999.8523287,-4376095.66185 20017.0960837,-4376172.84522 20035.71163,-4376360.02647 20024.4188902,-4376485.98286 19994.7895615,-4376566.69242 19956.8941302,-4376630.06362 19926.7635917,-4376716.74876 19904.5027713,-4376824.2536 19891.7179081,-4376991.62444 19890.6789673,-4377152.99274 19895.8425364,-4377238.16357 19921.1883059,-4377324.68286 19920.2840158,-4377405.60071 19911.4191246,-4377485.68405 19862.4297625,-4377533.59654 19805.188482,-4377581.66168 19731.5972189,-4377662.02112 19682.2418577,-4377742.40031 19649.0336168,-4377830.95445 19647.9564561,-4377927.8561 19646.9445126,-4378017.26459 19645.6946371,-4378130.15022 19659.7433282,-4378241.68042 19659.5261159,-4378318.12946 19690.7499055,-4378413.39143 19722.7147643,-4378526.67478 19810.7089013,-4378608.83332 19866.5065639,-4378690.13737 19895.9259755,-4378774.82941 19905.1654902,-4378852.17614 19891.3057947,-4378997.51358 19858.3766047,-4379061.59263 19792.786843,-4379141.78811 19735.5910598,-4379230.33227 19693.9570852,-4379335.02256 19644.6773279,-4379431.39549 19610.9383336,-4379544.41342 19601.4351257,-4379657.45151 19633.072726,-4379754.73011 19672.559484,-4379819.85678 19687.8005373,-4379908.94969 19686.5279021,-4380022.33414 19717.5701405,-4380151.57039 19741.1591336,-4380208.53238 19748.3319767,-4380305.28154 19731.6800051,-4380362.54919 19754.6638423,-4380475.45522 19802.2082842,-4380556.91253 19842.2799499,-4380614.06853 19865.4674113,-4380686.50534 19848.5558703,-4380767.749 19831.6962294,-4380824.00845 19814.8920615,-4380896.76122 19846.2238035,-4380977.53646 19894.4707349,-4381018.54565 19962.6924468,-4381059.89579 20059.4768112,-4381093.45292 20115.9302831,-4381093.82985 20188.0773667,-4381142.84124 20236.0439187,-4381208.32555 20267.5275462,-4381273.61593 20283.1245062,-4381354.22907 20282.2175103,-4381435.14707 20313.6044142,-4381532.41616 20377.5758695,-4381597.57487 20465.8800157,-4381630.77562 20547.0475845,-4381631.69327 20611.3963143,-4381640.39845 20683.6089866,-4381681.91716 20739.6855144,-4381738.74814 20787.6519531,-4381804.23299 20827.3008499,-4381877.36349 20875.0076309,-4381966.82464 20882.4699551,-4382015.11302 20932.9239532,-4382193.64225 20948.759055,-4382250.77856 20979.809475,-4382356.02997 20978.9017968,-4382436.94842 20945.603193,-4382533.4942 20896.4382876,-4382597.38914 20830.8456425,-4382677.58334 20791.4188885,-4382765.37552 20785.4620525,-4382841.58369 20784.5094543,-4382929.49636 20781.4221886,-4383002.82695 20784.8251022,-4383064.43721 20772.6298789,-4383146.3795 20745.4875736,-4383233.18951 20710.7706445,-4383339.66982 20676.9830712,-4383459.68194 20659.6809771,-4383526.41716 20645.2485324,-4383590.27481 20643.9173081,-4383687.16661 20631.7216797,-4383769.10874 20615.1807737,-4383853.36653 20555.1640836,-4383919.80221 20505.5442427,-4384024.15543 20496.5462337,-4384113.22832 20495.2906423,-4384226.11457 20502.3632595,-4384307.36878 20517.590415,-4384420.44945 20540.4418653,-4384542.34666 20595.8889585,-4384655.62205 20675.356583,-4384785.9006 20779.2336852,-4384900.21648 20883.6311998,-4384966.58017 20963.8556561,-4385031.42613 21044.2326105,-4385080.78686 21172.443507,-4385163.14585 21260.7912891,-4385236.82971 21298.2984907,-4385307.3728 21321.0394325,-4385396.28388 21321.3219737,-4385460.7615 21338.9354037,-4385534.96434 21343.3366495,-4385638.09501 21320.8154932,-4385751.58551 21279.5645539,-4385823.30878 21229.9409701,-4385886.18384 21165.6223577,-4385947.94007 21143.5112235,-4386027.96548 21183.1028865,-4386084.60403 21222.6414827,-4386166.22708 21229.6149701,-4386279.46074 21228.3573495,-4386392.34764 21243.2253656,-4386513.90967 21254.8773206,-4386622.84287 21275.9693007,-4386679.70174 21288.9550894,-4386780.69544 21303.1094285,-4386871.74372 21369.6218284,-4386965.4978 21382.638221,-4387089.48071 21397.4004606,-4387213.53722 21402.6620933,-4387296.21518 21375.5348835,-4387388.52253 21342.2322381,-4387485.06725 21292.8697392,-4387565.4434 21243.1708687,-4387653.80106 21210.3992545,-4387725.881 21169.0182198,-4387806.59332 21127.9945211,-4387878.82516 21110.9365115,-4387951.56718 21093.7045819,-4388040.29334 21092.9010781,-4388112.72087 21092.0650808,-4388209.63398 21123.5336946,-4388298.91336 21154.9057276,-4388372.69697 21218.5050262,-4388470.3269 21274.1227044,-4388567.62054 21338.0583146,-4388657.2691 21385.7058505,-4388730.23971 21417.0117254,-4388811.51683 21448.7294067,-4388900.80712 21496.2898386,-4388981.77 21543.7755541,-4389088.21632 21586.6939323,-4389225.95357 21601.9609588,-4389290.56332 21617.5317199,-4389371.67719 21641.0296949,-4389436.63396 21664.461632,-4389509.08401 21696.028184,-4389566.38518 21750.0102363,-4389649.11841 21812.1298679,-4389710.70609 21886.2248529,-4389766.80182 21978.6629131,-4389802.68193 22047.6369207,-4389832.07578 22107.6438433,-4389878.58248 22155.9096697,-4389919.09712 22219.0485221,-4390021.70668 22318.1105991,-4390113.83712 22362.8995881,-4390165.69934 22494.9043727,-4390306.19445 22568.9304796,-4390375.78094 22633.1596451,-4390416.96897 22729.4327847,-4390474.50033 22794.0287158,-4390530.69617 22865.7739147,-4390589.19247 22994.869406,-4390644.6098 23115.1778916,-4390689.16214 23195.9234787,-4390706.05978 23284.6718529,-4390722.79513 23373.1378993,-4390764.00604 23457.9857903,-4390808.0629 23524.8539453,-4390893.34022 23701.9727277,-4391018.74842 23798.4087247,-4391084.28352 23983.4313046,-4391158.55171 24095.7438083,-4391232.7525 24207.8700203,-4391346.92534 24267.826328,-4391412.42185 24299.5880424,-4391453.2413 24339.6560458,-4391510.40298 24346.5496836,-4391607.64476 24346.1589054,-4391640.61163 24345.7440535,-4391680.07422 24377.1359299,-4391753.36179 24376.5796442,-4391825.80178 24397.2216255,-4391946.61185 24431.4290741,-4392042.0072 24538.0884182,-4392155.4508 24688.539334,-4392279.23733 24802.678946,-4392357.51464 24904.8608231,-4392446.78198 25039.4508593,-4392531.91917 25118.7995083,-4392599.73393 25203.3770187,-4392685.76038 25287.8790801,-4392797.27112 25343.5614295,-4392887.07649 25409.9538804,-4393007.31888 25480.0673219,-4393086.73864 25536.3480852,-4393144.58535 25646.2241095,-4393187.70139 25776.5209457,-4393214.68731 25865.7945428,-4393183.47048 25939.0295692,-4393135.58488 26053.0516604,-4393080.42418 26101.7667427,-4393056.99164 26150.4156162,-4393041.05261 26215.3649822,-4393017.80509 26264.2094671,-4392985.38234 26337.1407777,-4392962.47145 26377.5583972,-4392946.18514 26434.243136,-4392947.07697 26515.186187,-4392947.4928 26579.8739443,-4392948.22245 26659.8064187,-4393014.06388 26748.2407476,-4393079.76427 26848.2240154,-4393161.9442 26929.1549478,-4393186.34806 27009.8278448,-4393187.25239 27114.717111,-4393188.67851 27244.430001,-4393182.15612 27317.2084201,-4393174.73125 27438.1788533,-4393191.82854 27508.1832443,-4393202.77779 27556.1975962,-4393249.28199 27583.5266389,-4393300.41099 27601.013086,-4393371.61501 27592.5900879,-4393500.19811 27581.9118641,-4393688.15766 27624.2388205,-4393798.39162 27684.6366548,-4393894.89498 27793.6567683,-4393987.95245 27888.9851863,-4394067.93835 28026.3633347,-4394152.19734 28130.4463511,-4394226.05596 28219.1642055,-4394267.28149 28323.792461,-4394292.68616 28421.0249967,-4394309.78258 28509.6146054,-4394318.5181 28558.0688458,-4394319.06325 28643.1579656,-4394304.16209 28675.4650263,-4394296.52944 28756.7589383,-4394264.97583 28878.154779,-4394266.09972 29006.1930868,-4394364.45871 29053.9813212,-4394445.93809 29109.2400666,-4394551.7216 29173.0007552,-4394657.36419 29260.8907467,-4394771.5216 29396.8984433,-4394894.20661 29508.4935466,-4395032.85387 29637.3804025,-4395099.26468 29773.5304876,-4395188.97157 29918.5648734,-4395263.56066 30087.076211,-4395362.13018 30137.0524543,-4395433.20779 30174.0737338,-4395473.75239 30269.8452175,-4395543.26437 30396.1475434,-4395623.56065 30505.7583544,-4395702.65286 30593.7387783,-4395725.85717 30657.7777068,-4395777.53775 30746.8937214,-4395815.28352 30878.8394692,-4395838.84417 30937.7259247,-4395846.827 31010.9894614,-4395869.41034 31121.0297652,-4395885.04969 31253.1540185,-4395886.62782 31344.7599435,-4395894.99206 31432.6745351,-4395925.69051 31505.7602196,-4395970.25668 31583.8607833,-4396044.02168 31606.7012533,-4396130.44775 31672.0849609,-4396233.1631 31748.1737484,-4396259.86425 31811.6672203,-4396283.03513 31898.6053303,-4396313.19295 31945.9043128,-4396376.66225 32002.0391633,-4396438.00566 31989.3105701,-4396603.39528 32002.4576414,-4396777.37384 31996.0105445,-4396859.06559 32028.823667,-4396916.42609 32070.7431743,-4396971.17235 32126.1406868,-4397049.9773 32242.029071,-4397092.8528 32366.5040232,-4397133.59196 32499.4602665,-4397174.68922 32601.8189426,-4397212.49574 32687.461467,-4397255.59403 32783.5064334,-4397283.13846 32823.5344598,-4397299.82178 32832.7607121,-4397306.20868 32880.5538632,-4397340.21247 32909.8859277,-4397414.91897 32987.360021,-4397456.17328 33088.0249064,-4397474.91684 33175.6000769,-4397519.5964 33293.1255575,-4397535.55335 33388.362704,-4397558.56592 33490.3395728,-4397611.35044 33570.9304216,-4397655.73534 33636.5122602,-4397700.48621 33753.736652,-4397735.42256 33826.9660281,-4397747.01065 33907.7144278,-4397769.91153 33994.953061,-4397822.57394 34082.1718364,-4397911.22036 34184.153598,-4397993.49317 34278.9678622,-4398067.96665 34425.3751119,-4398110.13312 34550.1923061,-4398136.89417 34652.7974259,-4398145.22473 34755.5855569,-4398161.0599 34843.5231088,-4398191.2618 34945.8834267,-4398229.06979 35055.6153688,-4398281.68308 35143.5531051,-4398311.88513 35253.3473368,-4398327.5165 35363.2580482,-4398358.14661 35494.9631762,-4398411.18817 35593.7650916,-4398456.34317 35670.425636,-4398505.06147 35720.9889618,-4398568.17151 35816.1823046,-4398598.18046 35919.1398718,-4398610.02486 35992.1042443,-4398651.59015 36123.8309872,-4398704.13335 36262.8374978,-4398749.98689 36358.045569,-4398791.49205 36464.0055769,-4398862.43958 36525.0259665,-4398961.97721 36575.9863585,-4399021.60602 36627.0798928,-4399066.24654 36677.7099208,-4399121.8631 36732.4643812,-4399162.6599 36823.7833769,-4399207.49987 36922.4529088,-4399267.64431 37013.7054209,-4399319.97861 37101.2161473,-4399372.15495 37159.5650621,-4399416.6024 37251.3166013,-4399468.95796 37323.8784985,-4399561.48691 37417.9853702,-4399676.41737 37490.5927624,-4399761.95125 37570.9503019,-4399817.82439 37665.3025561,-4399903.27724 37775.4644929,-4399933.91977 37885.5103101,-4399949.56332 37973.2315065,-4399961.26517 38097.8519997,-4400010.51145 38192.8116259,-4400052.00757 38317.5302471,-4400075.26826 38405.6942563,-4400076.49298 38523.4242422,-4400069.96995 38659.1962247,-4400068.20738 38780.5976756,-4400039.84785 38883.9504901,-4400018.72289 39002.0840589,-4399961.23634 39090.9888164,-4399903.51482 39165.3542682,-4399823.18756 39268.4327327,-4399773.06181 39371.2557057,-4399770.4071 39451.9407185,-4399800.80449 39569.2576869,-4399827.75094 39642.6377728,-4399835.8482 39727.0607795,-4399836.9147 39796.9342315,-4399833.36822 39851.6687728,-4399874.6652 39986.7127537,-4399949.34281 40077.8339842,-4400016.66752 40158.0244995,-4400076.53327 40198.1428479,-4400120.71182 40296.5651687,-4400180.84793 40361.7920286,-4400269.57087 40434.319903,-4400351.10507 40477.5519139,-4400439.89877 40553.888337,-4400514.0968 40593.6238971,-4400573.25389 40666.2183818,-4400647.294 40713.356931,-4400702.76537 40775.3367792,-4400761.8626 40881.2956327,-4400803.32481 40999.122992,-4400812.30055 41105.4398823,-4400809.79411 41197.4355084,-4400803.18399 41333.2000234,-4400819.41505 41461.4140929,-4400842.82446 41553.1329633,-4400884.18521 41655.350464,-4400925.48967 41772.1074873,-4400989.40044 41933.3639815,-4401035.19831 42069.4453975,-4401043.94572 42175.8965359,-4401026.45042 42348.6212964,-4401013.75395 42481.217135,-4400974.871 42599.9514011,-4400891.41803 42710.8959102,-4400797.13957 42822.437405,-4400676.89536 42940.8032155,-4400619.91699 43043.6502231,-4400616.76383 43168.4896393,-4400655.02541 43277.5146854,-4400718.60995 43350.2581807,-4400789.15907 43408.2972831,-4400870.58312 43422.0012202,-4400936.63916 43472.7179481,-4401025.75123 43526.3155969,-4401093.99238 43611.5106383,-4401094.59231 43727.4114077,-4401095.98951 43813.3649495,-4401043.13997 43891.7321182,-4400950.98334 43939.3651382,-4400835.03612 43978.846942,-4400758.2309 44072.3933745,-4400697.20467 44219.9834978,-4400652.45632 44351.4607068,-4400646.01394 44482.8787544,-4400670.55847 44622.0305013,-4400695.42971 44745.7818943,-4400712.15302 44846.4375344,-4400689.91364 44932.3460427,-4400644.05906 45025.180492,-4400629.48653 45180.101412,-4400600.54214 45296.369205,-4400616.94929 45388.6530565,-4400656.83523 45528.0268065,-4400658.72358 45613.0613975,-4400651.31901 45714.0411804,-4400645.08777 45822.2978862,-4400638.16421 45915.3824335,-4400623.60209 46016.2006965,-4400609.36661 46116.8857397,-4400610.12054 46224.8129569,-4400634.67268 46340.5901029,-4400674.55152 46471.0554167,-4400769.03326 46610.7292961,-4400793.42703 46795.783099,-4400826.23558 46981.6238206,-4400828.58724 47113.0371486,-4400829.63957 47213.7019609,-4400830.8926 47322.1883128,-4400824.47855 47430.8502181,-4400802.077 47570.7770219,-4400749.506 47765.1455474,-4400674.24232 47882.1134393,-4400597.20869 47990.9756817,-4400552.32234 48038.1255761,-4400483.33612 48070.3449827,-4400383.2288 48117.8034676,-4400283.26522 48242.5432838,-4400176.06881 48367.223998,-4400099.86003 48483.9956155,-4400039.31211 48592.7249204,-4400009.41482 48740.1655076,-4399980.15267 48864.2294316,-4399965.89826 49003.136467,-4399990.75887 49127.0463503,-4399991.99317 49211.9744474,-4399993.0807 49297.6645947,-4399970.20772 49405.9907812,-4399955.7884 49522.1461092,-4399957.195 49615.2997593,-4399935.13698 49669.8751901,-4399897.4539 49717.0674431,-4399827.46864 49764.0632714,-4399773.97006 49849.945942,-4399705.11878 49935.6533132,-4399652.2552 50028.79961,-4399606.7036 50161.1775996,-4399561.30911 50300.2402962,-4399570.68061 50416.3963974,-4399572.08685 50524.4436255,-4399611.63928 50578.0938818,-4399666.88926 50592.4954695,-4399751.97251 50606.9045505,-4399860.54917 50637.1986951,-4399930.30835 50698.2211776,-4400000.3656 50813.6728026,-4400071.72192 50890.3385439,-4400126.44468 50943.7678253,-4400204.67898 50973.9741813,-4400282.43238 50988.624913,-4400367.5265 51018.7645562,-4400452.77497 51064.4312528,-4400507.68832 51164.5693882,-4400562.90297 51257.5033104,-4400563.82906 51334.6988122,-4400564.59026 51428.0366821,-4400550.03787 51489.2591431,-4400597.61074 51543.2676823,-4400644.3791 51596.6018248,-4400707.11442 51681.0017644,-4400762.16452 51750.183245,-4400816.57189 51858.364539,-4400841.13559 51981.8732377,-4400857.84915 52051.7179441,-4400843.30426 52122.025803,-4400782.29207 52207.8438458,-4400720.93521 52285.5981044,-4400690.7288 52386.171705,-4400676.48195 52471.4675756,-4400692.5811 52556.0890931,-4400724.64731 52664.2710572,-4400749.21106 52764.2485594,-4400796.42191 52864.454532,-4400844.14233 52972.4823505,-4400884.19542 53088.6618771,-4400885.10377 53243.7010101,-4400847.66447 53399.1897327,-4400787.75022 53523.5457298,-4400743.01636 53640.5852221,-4400658.48412 53703.7559812,-4400535.6863 53719.9502895,-4400465.8894 53744.1947753,-4400388.93453 53768.4983505,-4400280.99052 53807.9084177,-4400188.18055 53894.3308164,-4400088.85827 54003.6740571,-4399973.50843 54074.136754,-4399897.00556 54167.7183509,-4399858.96887 54268.3598312,-4399837.22597 54346.0484563,-4399814.51373 54408.3809431,-4399776.65685 54455.3117441,-4399730.65151 54517.7908893,-4399653.81111 54588.1070457,-4399616.29124 54712.2639666,-4399594.04149 54867.1292435,-4399572.58859 54991.0445439,-4399573.82236 55176.2055447,-4399622.13081 55231.0486912,-4399666.93568 55253.0147788,-4399685.35873 55314.2890582,-4399755.42873 55398.3756741,-4399817.96436 55498.5173662,-4399873.18015 55559.6087715,-4399935.74458 55659.8837347,-4399975.97 55752.5998863,-4399999.88037 55861.0930835,-4399993.46498 55946.5834673,-4399963.58388 56047.643535,-4399902.3684 56156.9368708,-4399841.50052 56250.2417151,-4399780.45722 56359.5351526,-4399719.58914 56530.2669605,-4399659.81579 56623.2635252,-4399629.75141 56724.8018404,-4399569.05542 56818.040367,-4399515.50699 56904.2433339,-4399439.16699 56982.1330694,-4399393.96804 57059.7278493,-4399355.75485 57160.5753706,-4399341.01793 57222.1169672,-4399381.10736 57252.4718702,-4399419.87991 57306.2336851,-4399466.63916 57368.1335176,-4399498.24588 57460.8221992,-4399499.16059 57530.9113826,-4399461.13024 57578.1304345,-4399384.64327 57610.0637467,-4399315.00897 57641.9682642,-4399222.37901 57673.447996,-4399145.72719 57774.6918795,-4399092.01621 57883.0247361,-4399077.59504 57946.6536515,-4399103.77603 58016.1473953,-4399127.20541 58063.0524747,-4399129.18594 58118.9393989,-4399131.54572 58196.0257344,-4399111.30624 58290.5680099,-4399032.81788 58382.8592597,-4399001.72305 58455.06781,-4398966.78095 58585.4267077,-4398939.79276 58663.2684166,-4398907.58782 58738.6007804,-4398863.77959 58908.9635717,-4398724.00709 59095.7245769,-4398633.91515 59235.3253441,-4398589.32084 59406.089055,-4398552.54063 59530.0671496,-4398522.78298 59646.3398079,-4398515.69469 59715.7923794,-4398540.12202 59769.3724953,-4398579.37571 59839.087867,-4398579.81964 59931.9401239,-4398588.73871 60040.590625,-4398566.8319 60118.4152959,-4398529.12687 60226.5958344,-4398530.19496 60350.5527041,-4398577.91882 60628.6249462,-4398580.66092 60782.8138109,-4398628.66155 60882.9888466,-4398706.87466 60959.73526,-4398777.60012 61059.8526416,-4398809.82105 61176.0179498,-4398811.22645 61299.8435729,-4398796.95873 61424.0729202,-4398767.21137 61524.9024877,-4398752.97245 61579.4079284,-4398699.28573 61642.1391021,-4398622.4513 61713.1624885,-4398514.97353 61806.778562,-4398422.94637 61939.4545433,-4398347.06501 62066.7073221,-4398340.43986 62186.735812,-4398351.006 62379.844398,-4398371.15606 62513.3036462,-4398270.81248 62619.424854,-4398125.32373 62687.7571305,-4398034.22791 62750.6002973,-4397942.90028 62834.47618,-4397868.45714 62889.1437367,-4397822.77476 62936.2096079,-4397761.77452 63029.7010317,-4397708.23287 63138.3537924,-4397686.32481 63238.7145123,-4397695.06038 63292.6332874,-4397726.33054 63384.9594521,-4397789.21595 63508.7948826,-4397798.44264 63609.4718387,-4397799.69315 63694.8044911,-4397761.80362 63827.1949528,-4397716.40238 63951.0227918,-4397702.13334 64074.3677056,-4397734.83461 64243.7721986,-4397836.967 64467.1999481,-4397932.38192 64620.777234,-4398042.34503 64782.6469136,-4398121.66439 64867.2181159,-4398184.7232 64943.5845605,-4398270.43131 65004.3728885,-4398363.98025 65018.8060401,-4398472.06911 65017.5734105,-4398595.99348 65055.5187993,-4398674.08096 65100.8163568,-4398767.47604 65154.5604591,-4398814.7366 65239.35223,-4398854.80965 65355.1595467,-4398870.69703 65440.1931375,-4398887.28476 65493.9584038,-4398934.04646 65577.9719258,-4399028.07676 65670.0118619,-4399121.44625 65823.9644479,-4399192.93451 65939.201076,-4399263.78802 66085.2726539,-4399373.93669 66285.4769109,-4399468.87448 66400.6472363,-4399547.22428 66516.2079322,-4399634.08917 66747.8567386,-4399682.8638 66979.1898364,-4399739.12391 67157.2643171,-4399772.1389 67288.3675862,-4399804.67026 67373.1149025,-4399851.74135 67449.835726,-4399899.47338 67541.9429506,-4399985.34876 67618.3764206,-4400063.56357 67671.9002617,-4400133.8122 67694.2215463,-4400226.73914 67731.9173049,-4400304.81801 67792.9475273,-4400374.88388 67869.9390047,-4400422.12785 67969.9353957,-4400492.83961 68108.1114843,-4400594.65893 68215.3724461,-4400688.6739 68269.1171551,-4400735.93622 68291.8800406,-4400782.88994 68352.6091145,-4400907.43457 68436.5775787,-4401008.46486 68490.3222726,-4401055.72738 68567.4682759,-4401087.481 68644.2104476,-4401134.71506 68767.1242457,-4401236.89069 68805.2447309,-4401298.99098 68850.5418741,-4401392.38941 68950.155692,-4401478.08375 69073.3709496,-4401525.78134 69174.0519524,-4401527.03443 69298.3766246,-4401489.29252 69376.582629,-4401413.10834 69439.5607666,-4401312.78459 69520.1320289,-4401245.69873 69597.8538635,-4401216.4865 69675.3228085,-4401193.26262 69749.5446738,-4401175.90063 69854.3299728,-4401127.33451 69951.7535418,-4401116.95147 70053.4149025,-4401077.25192 70180.4291213,-4401064.61911 70324.9443287,-4401028.22913 70410.685771,-4400974.85898 70503.9413294,-4400944.80266 70597.0426156,-4400930.23746 70705.4597348,-4400931.81678 70766.7119518,-4400978.89709 70835.9909093,-4401025.3166 70943.5488025,-4401112.34712 71105.129166,-4401198.65987 71181.8727047,-4401245.89479 71235.6183962,-4401293.15827 71281.6290121,-4401340.09508 71388.8919783,-4401434.11263 71543.0993295,-4401505.61664 71658.8238756,-4401529.50188 71798.2910568,-4401523.89427 71914.4863703,-4401524.80265 71991.6056865,-4401533.55922 72029.9480141,-4401572.67349 72122.0573417,-4401658.55265 72206.5364286,-4401706.11485 72291.5283033,-4401729.70206 72399.784944,-4401723.27621 72500.7388966,-4401724.04087 72592.3022884,-4401710.41077 72683.9887845,-4401699.78544 72792.9099665,-4401695.38732 72934.1989532,-4401705.85457 73120.0961151,-4401707.7074 73215.6032441,-4401707.24207 73315.1591804,-4401717.44639 73398.7531248,-4401750.47345 73475.1952736,-4401781.19873 73559.3280714,-4401890.23887 73665.5114082,-4402092.69876 73718.8228357,-4402209.43614 73803.0604838,-4402280.48596 73949.4608921,-4402335.66411 74088.0840372,-4402391.5137 74157.2553523,-4402446.42926 74233.8740343,-4402532.15572 74248.5264384,-4402617.26429 74285.7520518,-4402718.32464 74346.94579,-4402796.40054 74446.3943606,-4402921.5871 74607.2506967,-4403078.36466 74707.0011767,-4403149.07092 74776.414902,-4403180.50012 74899.4801893,-4403243.69255 75062.0723267,-4403276.55881 75232.3189207,-4403270.25309 75387.1407616,-4403256.29648 75434.648961,-4403232.30661 75511.583646,-4403204.06057 75586.4730241,-4403188.72661 75642.1173826,-4403191.07748 75720.9607569,-4403206.40711 75781.9860328,-4403252.98037 75843.0045112,-4403347.04808 75949.8938527,-4403479.54985 75995.7507725,-4403541.98061 76049.4976126,-4403589.24648 76126.7350899,-4403613.00757 76203.9444288,-4403613.76999 76250.7957058,-4403575.75385 76328.6516491,-4403537.5478 76405.7065073,-4403553.80198 76467.0553539,-4403616.38755 76497.1113778,-4403709.64759 76519.4109011,-4403803.07989 76549.0908008,-4403934.82001 76578.6757024,-4404051.05783 76608.2148248,-4404174.29304 76668.9905608,-4404291.84895 76730.0087896,-4404385.91768 76829.9359533,-4404440.63492 76953.6493085,-4404464.86062 77069.8945614,-4404458.77385 77193.116021,-4404506.4764 77308.6759181,-4404569.85366 77462.438374,-4404663.84246 77631.7385949,-4404750.98878 77839.7794004,-4404838.27255 78001.344534,-4404925.09239 78117.2143837,-4404957.48633 78225.475614,-4404951.06242 78334.7212461,-4404897.68449 78426.1447783,-4404846.05311 78518.7245603,-4404808.46923 78631.4882639,-4404784.23708 78726.6829273,-4404755.76277 78813.5025487,-4404718.43529 78907.8326607,-4404710.42252 78986.9307638,-4404719.76446 79050.3153178,-4404751.9403 79128.1938554,-4404784.22869 79184.4719374,-4404842.60195 79276.9460516,-4404949.50073 79363.0692823,-4405070.63002 79635.5150609,-4405367.11933 79787.2615791,-4405532.51909 79870.2637138,-4405656.51699 79962.8642789,-4405760.42239 80033.1265778,-4405836.88596 80105.2056483,-4405935.4246 80178.4623425,-4406012.01489 80230.5225417,-4406099.20844 80319.2400372,-4406158.95375 80435.6563723,-4406184.37267 80525.9982161,-4406205.68976 80601.7467495,-4406288.38525 80659.9012663,-4406373.33694 80736.4055974,-4406444.06545 80848.9629097,-4406489.81997 80929.306607,-4406469.71776 81053.1924969,-4406454.45576 81162.3522728,-4406444.57083 81270.9003762,-4406449.15897 81374.088936,-4406444.52122 81476.7573995,-4406440.36143 81648.076779,-4406426.60426 81827.9824807,-4406416.70971 81983.9503238,-4406411.30295 82110.3252537,-4406408.1451 82239.4591006,-4406416.60308 82359.1811057,-4406411.16414 82467.4733485,-4406427.74061 82611.0277334,-4406455.8069 82700.6361669,-4406488.59262 82815.5529955,-4406555.44604 82890.3954806,-4406659.60325 82929.3989955,-4406777.74472 82968.9895102,-4406887.91156 83015.060092,-4407045.84949 83029.6958748,-4407190.45944 83037.4578865,-4407284.78187 83058.3813894,-4407416.65848 83063.9068267,-4407563.88322 83072.3015717,-4407643.23336 83083.905384,-4407711.71985 83107.8879277,-4407771.23024 83161.1683772,-4407835.47907 83211.2259102,-4407899.09172 83269.8870549,-4407972.06763 83311.4427924,-4408029.82125 83351.1591265,-4408136.99428 83408.0495811,-4408180.89716 83471.0767045,-4408221.55972 83576.3788318,-4408232.01147 83710.3882366,-4408261.17599 83778.775081,-4408311.06477 83854.1481299,-4408396.74704 83895.8442442,-4408463.00648 83927.3155635,-4408552.33239 83945.794311,-4408600.11118 83954.6528382,-4408668.4821 83975.6707959,-4408780.36488 83993.1924717,-4408862.60142 83982.6800647,-4408981.15061 83999.6814483,-4409063.86517 84078.044997,-4409155.67412 84172.1632561,-4409294.64698 84440.8735966,-4409614.49439 84543.0378758,-4409722.80966 84597.2293636,-4409759.59968 84651.0086647,-4409823.87099 84709.5180589,-4409906.34152 84735.5124565,-4410006.93612 84761.6470605,-4410116.03629 84764.749172,-4410243.66151 84745.1217502,-4410370.82542 84689.7515884,-4410456.47949 84625.1868071,-4410546.74439 84565.1944155,-4410641.20242 84527.4978936,-4410764.10207 84535.3829463,-4410890.92951 84534.4163807,-4410972.88471 84501.8250971,-4411046.00262 84478.4706007,-4411113.51149 84468.3802124,-4411186.58115 84504.1918962,-4411250.09297 84612.2115127,-4411338.15816 84710.9369209,-4411456.8289 84760.3104006,-4411548.4133 84781.6219677,-4411653.31005 84776.0922896,-4411748.57178 84757.3271381,-4411825.77441 84711.2217054,-4411893.32084 84650.5451419,-4412015.74825 84599.535278,-4412110.58582 84580.4590589,-4412218.77374 84627.3903406,-4412291.25593 84626.2886646,-4412388.20485 84606.4732207,-4412513.8607 84582.044972,-4412665.82014 84549.005552,-4412755.41808 84475.0449642,-4412902.28188 84364.7799327,-4413009.11129 84272.2150704,-4413111.18973 84169.8240918,-4413197.35303 84078.2383462,-4413264.47436 84004.1377261,-4413337.83519 83927.7951087,-4413405.10138 83908.8485784,-4413504.29469 83920.0869404,-4413587.26613 83932.8897449,-4413662.80416 83946.2588404,-4413730.86654 83954.6504284,-4413810.21774 83948.9104136,-4413874.97163 83939.2066292,-4413927.05841 83915.5090505,-4414008.55152 83878.4629508,-4414086.47987 83863.376397,-4414165.33749 83853.8274232,-4414266.92833 83834.7731572,-4414339.11833 83820.9380896,-4414412.02918 83842.6011259,-4414484.94241 83873.3664871,-4414567.24044 83877.0085053,-4414658.3901 83853.441189,-4414730.88907 83825.5127735,-4414794.20389 83802.1566241,-4414861.712 83806.0333072,-4414911.8736 83823.7535756,-4414971.62069 83859.515947,-4415012.63237 83909.3120341,-4415058.73783 83936.0698098,-4415099.86841 84002.7662172,-4415219.18576 84043.0678895,-4415282.88862 84106.5504356,-4415324.57375 84201.4461793,-4415380.08796 84300.8337165,-4415435.79235 84372.4535038,-4415468.32247 84398.6673122,-4415545.92859 84404.0634968,-4415625.15346 84407.1834075,-4415687.28275 84372.3940782,-4415747.30741 84315.3928327,-4415841.89022 84262.7381241,-4415904.65841 84226.4104731,-4415995.11646 84198.4431744,-4416053.42986 84101.7276509,-4416170.83016 84004.5409237,-4416246.21232 83957.3931689,-4416314.71312 83882.6702771,-4416414.54497 83832.523985,-4416488.91844 83746.7064671,-4416573.28117 83695.4403001,-4416674.10582 83665.8982854,-4416816.84814 83681.7754975,-4416926.01508 83691.7652879,-4417038.43262 83729.2245981,-4417122.01465 83772.2713713,-4417215.33284 83809.7265809,-4417304.91452 83850.2859329,-4417386.12807 83869.1572617,-4417495.42203 83868.0521872,-4417592.37073 83895.5093828,-4417705.52813 83957.2876544,-4417775.64088 84147.2977791,-4417899.18131 84255.4062983,-4417973.25597 84314.0633193,-4418046.2367 84376.4301433,-4418137.87379 84380.0107096,-4418224.52173 84374.7979251,-4418306.29751 84360.5544701,-4418365.19183 84328.0139709,-4418419.31149 84281.9648363,-4418491.35828 84258.6573474,-4418545.86888 84207.2171975,-4418686.18435 84156.2030442,-4418781.01975 84114.6455166,-4418853.25659 84095.6987457,-4418916.95137 84085.8158916,-4418985.02984 84112.5269646,-4419062.65775 84184.3757009,-4419154.69681 84292.4332372,-4419241.76977 84341.3029697,-4419333.33579 84345.1658666,-4419401.49657 84342.3257007,-4419509.87177 84361.3013051,-4419616.67109 84391.2685466,-4419676.43795 84500.4850112,-4419771.56019 84572.4980543,-4419836.10791 84646.5750007,-4419893.24341 84689.007405,-4420001.03659 84730.3901254,-4420062.78714 84776.5780088,-4420152.7402 84817.766292,-4420224.9822 84844.1088249,-4420293.5955 84870.8065817,-4420359.72398 84908.137648,-4420446.30217 84963.0382499,-4420537.12453 85017.8289567,-4420636.44201 85047.0390227,-4420708.17687 85081.9843963,-4420786.1545 85111.3212655,-4420854.89491 85169.9773891,-4420927.87728 85222.2808553,-4421015.09011 85278.3018685,-4421079.46126 85358.9217459,-4421117.87546 85452.1292594,-4421207.32133 85510.5316529,-4421286.29307 85583.6613308,-4421359.88899 85667.7753623,-4421457.44963 85684.0090905,-4421558.13433 85700.8729115,-4421649.84603 85731.8338482,-4421745.15494 85755.5536077,-4421816.65779 85771.0340392,-4421864.31228 85807.2266675,-4421912.84433 85884.2177632,-4421966.10492 85959.204007,-4422001.78111 86029.1316347,-4422015.24361 86092.6007837,-4422045.43201 86163.2390263,-4422053.92477 86245.0053253,-4422059.38912 86294.4535091,-4422095.98332 86371.3390862,-4422151.73961 86472.7479058,-4422230.53447 86522.5430411,-4422306.14253 86552.3659949,-4422363.40482 86602.9012591,-4422421.54474 86666.8105263,-4422506.25079 86730.1952927,-4422538.43587 86808.1891157,-4422556.24033 86872.0391748,-4422547.94605 86935.3055923,-4422571.12635 87016.704366,-4422626.57434 87076.3418309,-4422694.10002 87150.0850517,-4422753.22365 87243.6736175,-4422833.68786 87363.4815955,-4422920.7631 87446.4114935,-4423046.27507 87478.1080599,-4423130.1168 87555.9793199,-4423233.41499 87634.2312646,-4423327.72957 87696.7491673,-4423380.37811 87766.3938315,-4423471.32813 87835.7635228,-4423568.7665 87941.0898155,-4423578.72997 87986.6178054,-4423542.65987 88018.5603038,-4423485.0143 88058.7293774,-4423439.71718 88121.2350598,-4423421.86625 88192.0942687,-4423413.36919 88289.8075523,-4423396.51022 88374.9037802,-4423400.11632 88465.7396891,-4423403.96565 88538.8533922,-4423413.0639 88600.4921055,-4423415.67594 88676.8542709,-4423418.91191 88769.9447034,-4423440.35662 88862.4006855,-4423476.77434 88926.0400686,-4423502.971 88988.304697,-4423561.6092 89069.5519054,-4423656.05167 89138.9433343,-4423752.99179 89216.6882885,-4423859.28597 89241.6388961,-4423895.84318 89271.6100089,-4423949.6131 89322.8860745,-4423990.28599 89437.8271151,-4424050.65698 89558.9901306,-4424105.79175 89671.655886,-4424149.06649 89843.8504637,-4424179.86417 89967.9962623,-4424164.62553 90056.3419113,-4424162.36965 90136.4440587,-4424142.26437 90201.9453017,-4424124.54029 90252.7107633,-4424035.69155 90293.8957932,-4423966.43679 90384.0102762,-4423845.75541 90523.4511205,-4423817.66451 90628.5254738,-4423833.61736 90703.873422,-4423860.81054 90754.1770778,-4423924.44261 90814.8225926,-4423950.51278 90873.8483245,-4423944.01414 90965.1722227,-4423936.38421 91024.5575796,-4423921.40073 91107.6593429,-4423836.42177 91188.1215177,-4423807.83129 91239.2167173,-4423781.99633 91276.518868,-4423733.57667 91432.2281285,-4423669.67444 91590.8095014,-4423602.89373 91797.6862372,-4423499.65894 91910.2270244,-4423486.9276 92006.4241093,-4423500.00401 92070.9488957,-4423511.23832 92163.0262497,-4423556.64061 92255.6323955,-4423589.56518 92318.2791948,-4423639.22051 92378.67159,-4423671.28009 92441.3015172,-4423715.4347 92506.9430358,-4423765.21704 92549.870818,-4423790.53652 92638.4884294,-4423846.79266 92772.1913668,-4423847.95839 92836.4668179,-4423888.68283 92885.8831517,-4423914.27734 92920.99017,-4423941.26553 92958.7746113,-4423975.86734 93004.5448714,-4424010.80758 93071.7473658,-4424059.15632 93136.1455564,-4424102.88617 93194.4317469,-4424143.35698 93243.0740884,-4424175.41897 93275.2076223,-4424201.78125 93352.9253827,-4424261.57601 93437.6225753,-4424274.66554 93515.92034,-4424249.98302 93598.1646418,-4424202.96717 93782.3855203,-4424056.27021 93871.1943927,-4424049.03335 93958.5990678,-4424027.7366 94102.222045,-4424030.82272 94232.686148,-4424055.3518 94346.5441671,-4424064.6768 94379.7482515,-4424048.08335 94421.1920353,-4424025.83888 94455.7539237,-4424000.80271 94471.3281722,-4423975.46193 94486.8263048,-4423940.11763 94502.6120468,-4423909.78565 94541.9155543,-4423884.95037 94594.1241584,-4423903.66319 94629.8661048,-4423915.67806 94662.9136911,-4423914.57838 94677.2274193,-4423907.18468 94754.1341409,-4423850.44176 94786.1496908,-4423838.29799 94842.4063938,-4423808.68083 94939.1002342,-4423798.27769 95035.4726793,-4423771.86039 95044.2072783,-4423772.2305 95131.8197701,-4423781.44315 95215.3251536,-4423775.48127 95274.3567488,-4423762.98214 95405.3590684,-4423763.03297 95504.4642402,-4423784.23299 95584.4378662,-4423832.12333 95628.3309628,-4423846.4837 95729.2593299,-4423877.7614 95856.3113313,-4423906.14594 95965.3654185,-4423916.76722 96083.2346033,-4423931.76218 96165.1246763,-4423946.23262 96237.4975795,-4423978.80052 96364.1946418,-4424039.17143 96412.2797317,-4424066.71006 96517.7218144,-4424127.18046 96608.2621395,-4424173.5189 96667.0446015,-4424220.0117 96730.0315867,-4424261.68248 96797.8406406,-4424307.55781 96884.4135745,-4424317.72668 96961.5751036,-4424313.99614 97034.3968326,-4424300.58126 97071.6706763,-4424264.65904 97139.9791562,-4424251.55289 97230.7695291,-4424238.89937 97326.2677857,-4424244.94619 97439.489251,-4424304.74657 97521.0711156,-4424373.70679 97570.4888774,-4424428.80349 97633.2985952,-4424456.96636 97710.5197042,-4424457.73855 97797.1650945,-4424454.40988 97865.401959,-4424454.80134 97942.682387,-4424460.07626 97982.976381,-4424506.28604 98022.9572537,-4424583.48419 98044.834014,-4424674.91596 98085.1152127,-4424739.12624 98148.2210956,-4424789.80304 98216.1999032,-4424831.6859 98279.2085803,-4424872.85815 98310.7677794,-4424918.69797 98318.9311161,-4424991.54785 98327.4159798,-4425050.91063 98322.0435392,-4425118.68665 98339.7030893,-4425173.93802 98384.9714452,-4425214.85863 98448.0309712,-4425243.03251 98552.0231243,-4425325.94412 98615.0106903,-4425367.61578 98701.263056,-4425391.27237 98755.4695148,-4425410.07064 98814.3457285,-4425442.56761 98863.9540108,-4425493.17288 98944.6434917,-4425589.09806 99025.3709899,-4425690.02524 99092.731943,-4425781.8855 99151.0493064,-4425868.86226 99250.0292025,-4425952.06221 99304.2229236,-4425988.86128 99381.2796562,-4426017.12882 99440.1180131,-4426044.6242 99493.8969267,-4426108.90748 99547.603763,-4426186.6886 99633.5008728,-4426242.33269 99737.1847227,-4426320.73215 99906.1116462,-4426399.39697 99927.1936825,-4426409.29115 100022.642728,-4426428.33787 100100.068454,-4426406.618 100205.403953,-4426357.57915 100337.58283,-4426318.17857 100438.0583,-4426259.93296 100534.494427,-4426179.0145 100640.06743,-4426088.98253 100731.799767,-4426012.86485 100855.6974,-4425891.60702 100924.718906,-4425814.5266 100994.434441,-4425697.47266 101086.391103,-4425598.36244 101128.001952,-4425548.62219 101164.39705,-4425521.66254 101241.99235,-4425495.94889 101328.635664,-4425469.11855 101383.685273,-4425414.94734 101483.961869,-4425402.69572 101611.543216,-4425395.10147 101720.300925,-4425418.71191 101765.358769,-4425464.62474 101823.796213,-4425501.6039 101868.85407,-4425547.51679 101896.02762,-4425561.16935 101955.074278,-4425589.67372 102118.454572,-4425604.59831 102214.036175,-4425614.64948 102310.261336,-4425538.72107 102356.221077,-4425457.16212 102394.067713,-4425348.7572 102449.841263,-4425212.60965 102500.661134,-4425140.25724 102551.197517,-4425086.39427 102656.462053,-4425050.85169 102742.873324,-4425029.51137 102833.582261,-4425048.35642 102942.628466,-4425076.97929 103056.040064,-4425138.28989 103141.372648,-4425201.41093 103209.163292,-4425247.78732 103298.912032,-4425330.59729 103366.702719,-4425376.97377 103494.023201,-4425387.36966 103603.306885,-4425374.99928 103703.881066,-4425326.25662 103804.772653,-4425240.52407 103951.069827,-4425151.215 104179.735106,-4425053.39496 104334.754875,-4424982.45672 104408.235655,-4424924.06473 104481.657219,-4424861.16975 104554.875748,-4424820.7682 104637.138226,-4424785.25025 104719.675653,-4424713.74053 104775.271599,-4424623.08751 104835.042688,-4424569.61481 104881.180149,-4424501.56309 105045.772825,-4424393.52599 105311.714203,-4424200.77407 105476.704647,-4424089.25285 105605.117323,-4423967.68089 105857.501375,-4423770.3528 106067.690766,-4423654.2449 106466.005588,-4423417.59308 106694.397615,-4423296.75473 106918.301932,-4423199.22838 107215.294543,-4423070.29405 107480.349669,-4422928.00506 107745.464331,-4422790.21857 107924.081654,-4422705.27412 108088.135235,-4422657.21678 108242.929694,-4422644.7712 108397.03947,-4422660.29974 108546.991572,-4422703.15534 108718.996129,-4422768.44755 108854.164855,-4422865.18346 108939.641645,-4422966.31543 109115.023838,-4423140.76399 109281.011463,-4423365.82105 109380.189589,-4423444.53119 109511.470626,-4423509.09944 109610.910906,-4423569.81867 109791.009784,-4423721.46552 109835.677447,-4423794.36647 109961.92542,-4423918.72938 110512.007254,-4424361.08581 110728.140139,-4424559.26672 110859.100581,-4424637.32443 110931.032209,-4424715.88179 111039.749997,-4424775.9951 111166.044707,-4424863.85675 111343.288488,-4424905.87072 111474.409967,-4424962.43286 111637.470124,-4425032.34988 111800.70816,-4425115.77639 111936.436679,-4425158.032 112104.429495,-4425164.64954 112263.627698,-4425166.39382 112358.70348,-4425194.42537 112476.145067,-4425272.91152 112556.487224,-4425400.8331 112605.055648,-4425546.91131 112744.613388,-4425675.84195 112839.063464,-4425795.36044 112888.151968,-4425881.95254 112941.436918,-4426005.22777 113013.16595,-4426106.28131 113075.529053,-4426215.93937 113115.539179,-4426316.14908 113118.216646,-4426471.28511 113131.038422,-4426575.84361 113175.350575,-4426680.73645 113237.285947,-4426835.88343 113295.405712,-4426945.36215 113380.514967,-4427037.482 113434.074527,-4427124.76438 113501.534966,-4427202.63444 113551.016655,-4427262.24002 113627.44948,-4427358.49314 113726.294469,-4427468.69814 113816.095054,-4427574.01929 113941.904033,-4427702.86999 114049.268543,-4427853.94267 114116.301238,-4427977.30216 114191.832174,-4428142.02826 114272.067209,-4428301.95314 114306.432383,-4428470.43558 114300.228181,-4428652.20082 114334.821459,-4428821.19317 114396.696416,-4428971.83902 114454.590825,-4429104.31345 114494.443511,-4429190.51605 114548.086617,-4429305.30768 114568.879683,-4429487.21764 114603.658946,-4429628.21403 114560.772378,-4429796.42279 114504.873954,-4429923.57347 114421.044791,-4430131.55286 114332.676761,-4430316.83611 114304.41612,-4430393.6502 114303.427956,-4430493.62403 114352.124301,-4430630.70995 114405.122712,-4430772.47908 114481.125736,-4430914.22357 114593.205619,-4431042.49551 114706.095067,-4431116.29321 114846.554284,-4431176.75766 115046.540761,-4431183.73716 115183.377936,-4431135.03036 115329.522398,-4431073.21588 115466.003514,-4431056.49904 115647.888637,-4431071.71227 115801.563934,-4431150.74022 115987.09823,-4431239.12049 116176.993999,-4431336.68737 116294.758194,-4431401.69092 116457.796846,-4431448.61084 116644.036408,-4431455.50753 116867.314041,-4431443.97119 117089.829976,-4431450.4056 117271.055494,-4431516.60003 117384.078149,-4431581.40292 117469.946094,-4431632.05218 117559.984892,-4431696.38072 117713.747386,-4431743.90789 117908.778051,-4431791.18461 118108.920789,-4431788.66911 118268.218963,-4431776.42022 118432.179357,-4431760.36823 118737.040599,-4431717.78456 119024.007172,-4431684.44374 119260.648015,-4431664.47181 119442.478152,-4431675.182 119605.914061,-4431695.11415 119723.846459,-4431732.62067 119973.597208,-4431763.21395 120114.312098,-4431764.67941 120233.088688,-4431729.20771 120415.835931,-4431653.43991 120553.966254,-4431491.76389 120972.551942,-4431072.92515 121059.317784,-4430978.58431 121119.248725,-4430915.61214 121237.835229,-4430884.63239 121338.196573,-4430858.88114 121465.506184,-4430846.27467 121706.854465,-4430821.49921 121884.613154,-4430828.03473 122070.866608,-4430852.43389 122297.623091,-4430900.55457 122437.970685,-4430952.01362 122600.909018,-4431030.93588 122726.875747,-4431150.29956 122839.474118,-4431260.5949 122952.763489,-4431307.40647 123065.578602,-4431377.20279 123200.933377,-4431487.46303 123281.553402,-4431579.39953 123416.348543,-4431744.14783 123596.436647,-4431896.31361 123704.639463,-4432015.92561 123822.049235,-4432089.41818 124025.156731,-4432223.55654 124241.954763,-4432353.27457 124422.852925,-4432450.9641 124558.755094,-4432524.74115 124689.636084,-4432581.30167 124816.44759,-4432627.68752 124970.704328,-4432634.22804 125098.100726,-4432649.13177 125220.267047,-4432704.82286 125374.044479,-4432769.85613 125610.26558,-4432795.37549 125833.318509,-4432765.82421 126052.069253,-4432731.58937 126257.392505,-4432683.7821 126462.123307,-4432649.95276 126627.028616,-4432546.91924 126777.993835,-4432448.29564 126901.675081,-4432368.01961 127112.072948,-4432265.41388 127281.318963,-4432172.06579 127436.895649,-4432082.63905 127673.081494,-4432103.15453 127882.076917,-4432128.01856 128063.420567,-4432162.21282 128404.283342,-4432179.16409 128617.437742,-4432235.71203 128957.067785,-4432376.14096 129105.940483,-4432468.47332 129272.46219,-4432634.0718 129515.896873,-4432872.94867 129746.29561,-4432988.74312 129977.825908,-4433036.56886 130200.825088,-4433002.51256 130296.69871,-4432976.5698 130492.804092,-4432910.36528 130548.389829,-4432820.19861 130599.088405,-4432756.8315 130695.068645,-4432698.88496 130822.672747,-4432691.29142 130949.895972,-4432692.684 131033.619694,-4432640.71932 131159.286858,-4432608.0372 131321.536752,-4432614.91561 131482.770905,-4432645.7571 131613.771195,-4432717.32769 131757.57228,-4432864.46044 131891.840621,-4433047.69874 132049.081684,-4433249.41584 132174.757882,-4433405.28341 132282.512755,-4433547.38795 132326.865664,-4433657.29677 132380.391626,-4433739.58722 132443.225687,-4433808.76883 132501.290678,-4433913.75777 132545.236065,-4434068.66145 132589.253653,-4434210.06472 132660.55973,-4434356.62623 132736.486747,-4434470.87517 132762.761875,-4434553.01084 132775.786065,-4434635.08479 132829.412328,-4434750.38885 132890.994427,-4434937.54944 132935.070604,-4435083.457 132979.135366,-4435188.35319 133046.771048,-4435262.24041 133105.00149,-4435339.72992 133203.876373,-4435449.45132 133266.603355,-4435550.63799 133301.944666,-4435637.1597 133341.578584,-4435769.87595 133353.542636,-4435906.42016 133375.047819,-4436024.3639 133401.419392,-4436116.00688 133450.306769,-4436225.10931 133508.481288,-4436321.60215 133570.800048,-4436467.78432 133668.961325,-4436641.49393 133794.089175,-4436833.85231 133884.146867,-4436939.19995 134037.872327,-4436999.73506 134192.220963,-4437033.78935 134319.229583,-4437075.68654 134404.966212,-4437117.83376 134527.006978,-4437182.52672 134585.393264,-4437274.02804 134611.179319,-4437397.15587 134610.130118,-4437492.63806 134617.981195,-4437620.00661 134652.868282,-4437729.01655 134683.667664,-4437851.85707 134750.811643,-4437943.2301 134836.30954,-4438026.37923 134917.12367,-4438113.83102 135074.924329,-4438261.06468 135264.036778,-4438430.63283 135363.226163,-4438509.3618 135417.073593,-4438578.16506 135479.536865,-4438697.34817 135532.355648,-4438861.1351 135580.936782,-4438989.2322 135593.360413,-4439120.79685 135619.277206,-4439234.92882 135645.516199,-4439335.57062 135672.396696,-4439385.72515 135712.51472,-4439453.94635 135784.380162,-4439546.02101 135837.797643,-4439660.31971 135877.332984,-4439783.53224 135889.544307,-4439920.08973 135897.546831,-4440037.96332 135864.883575,-4440124.1028 135809.28529,-4440196.7655 135708.258486,-4440291.0074 135688.575508,-4440377.69754 135696.483807,-4440509.57116 135726.87927,-4440641.89885 135789.078118,-4440779.07715 135869.899117,-4440884.03617 135942.062445,-4440939.61362 136041.345416,-4441004.34425 136136.135206,-4441068.88428 136217.292452,-4441142.34865 136279.921368,-4441234.03241 136302.0025,-4441302.9894 136328.428543,-4441375.63183 136346.110368,-4441430.39806 136390.758934,-4441503.81382 136435.334702,-4441590.73052 136480.122318,-4441672.65478 136506.454284,-4441759.2975 136532.727279,-4441841.43642 136568.330349,-4441909.96718 136622.069304,-4442010.77697 136721.088935,-4442093.50257 136820.073522,-4442194.73227 136864.780916,-4442272.65229 136900.158148,-4442364.18055 136940.143819,-4442441.40012 137079.627229,-4442601.86619 137169.566397,-4442698.21111 137277.572672,-4442781.31872 137436.365673,-4442828.57046 137572.685221,-4442857.36312 137708.696324,-4442881.64134 137821.744507,-4442928.45211 137966.808527,-4442975.1213 138066.546542,-4443017.36602 138184.168338,-4443068.37226 138315.623586,-4443146.97396 138451.035227,-4443220.74214 138618.61118,-4443290.87402 138818.19598,-4443343.35866 138980.956458,-4443426.79051 139211.745684,-4443533.61627 139410.578063,-4443645.08773 139569.095345,-4443728.33989 139727.245303,-4443802.57373 139813.365257,-4443835.73837 139922.302818,-4443873.37262 139999.280659,-4443892.14483 140185.318301,-4443898.54065 140299.048206,-4443899.86674 140457.975652,-4443938.12236 140593.29475,-4444025.89213 140778.575639,-4444150.29371 140964.433116,-4444202.19661 141137.351935,-4444199.53292 141264.8236,-4444159.92886 141361.063,-4444101.99359 141457.052785,-4444044.04766 141517.015537,-4443980.57125 141558.237305,-4443940.30719 141626.697348,-4443918.2047 141676.950834,-4443900.83125 141749.494968,-4443923.91673 141826.801267,-4443976.21381 141911.265249,-4444107.34039 142028.282219,-4444190.33255 142214.331698,-4444237.74215 142400.943717,-4444230.6577 142528.534006,-4444200.06117 142597.462665,-4444137.46506 142666.937047,-4444014.87222 142708.780181,-4443924.61768 142816.909182,-4443745.64604 142904.523765,-4443596.31371 142994.847199,-4443495.11216 143095.271121,-4443379.83435 143184.59866,-4443302.09815 143298.886832,-4443201.91331 143501.567423,-4443157.99693 143781.059998,-4443107.33665 144030.404253,-4443089.40819 144267.726735,-4443095.47773 144417.539046,-4443142.34876 144553.052255,-4443225.62559 144684.144889,-4443295.21034 144765.583166,-4443332.67782 144865.381225,-4443355.91932 144985.5758,-4443340.51287 145111.271647,-4443313.33573 145240.740667,-4443303.32448 145326.212987,-4443316.45478 145443.907798,-4443359.96241 145499.099577,-4443414.82256 145590.625921,-4443509.23773 145567.335953,-4443604.28251 145538.365968,-4443727.09589 145527.906774,-4443855.69654 145533.383791,-4443956.46366 145571.257287,-4444077.61224 145666.193591,-4444174.17324 145856.667409,-4444235.27517 146160.660261,-4444279.18715 146306.53538,-4444253.86693 146438.965205,-4444209.46956 146548.313204,-4444178.59765 146635.092491,-4444143.2667 146758.132923,-4444107.97401 146903.578141,-4444128.15126 147030.265528,-4444166.039 147133.88842,-4444275.9738 147274.292245,-4444332.45013 147410.258908,-4444369.73145 147505.463559,-4444389.27725 147673.703993,-4444390.91506 147774.439703,-4444333.16791 147942.906081,-4444311.80695 148074.600823,-4444331.90087 148182.839543,-4444392.01412 148322.141292,-4444556.98292 148488.71014,-4444704.10226 148623.927585,-4444823.88191 148777.855506,-4444879.93237 149000.509682,-4444895.88389 149196.437822,-4444875.68839 149369.530843,-4444845.52043 149502.143415,-4444755.61323 149702.805112,-4444694.60323 149970.681487,-4444746.98611 150137.706097,-4444871.61748 150313.811961,-4444982.62923 150459.294975,-4444984.30147 150577.903247,-4444953.32148 150696.431437,-4444918.33655 150805.687842,-4444901.465 150910.246188,-4444906.90245 150973.345258,-4444934.58948 151023.039102,-4444971.7114 151140.034499,-4445090.71898 151216.704629,-4445163.99889 151289.137339,-4445201.58569 151389.20237,-4445206.83255 151470.883122,-4445203.29621 151566.433451,-4445208.85165 151633.991301,-4445255.23502 151724.617828,-4445306.09871 151805.868443,-4445348.06133 151887.199226,-4445394.02889 151954.538758,-4445480.91847 152003.552857,-4445563.52909 152107.025471,-4445682.96401 152297.374066,-4445753.06578 152550.311918,-4445892.3493 152820.958915,-4445891.33047 153215.420188,-4446125.65486 153665.654917,-4446365.84839 153909.837607,-4446475.75031 154061.834193,-4446559.73138 154292.568081,-4446762.59956 154591.73292,-4447067.91175 154140.805414,-4460398.65264 142380.562645,-4459927.16156 132528.38479,-4459837.23192 129380.326453,-4459787.32934 122566.53868,-4459709.95467 117573.287001,-4459652.97775 116742.253643,-4459643.61067 103420.091827,-4459491.97819 102662.341075,-4459483.71077 92763.9118469,-4459370.1084 82857.0641033,-4459257.46939 72953.4084544,-4459143.78672 63079.8947213,-4459030.70871 53248.2881698,-4458918.23761 49180.314565,-4458990.59518 49169.8147428,-4458990.64697 46196.4875423,-4459044.20531 43484.4601423,-4459078.90529 33659.1428678,-4459045.7921 23867.595577,-4459011.92569 14044.8142747,-4458978.52628 9602.25863107,-4458934.56795 9583.80292666,-4458875.31061 9561.04327519,-4458817.36852 9521.30047908,-4458741.70972 9481.80706775,-4458666.06163 9482.50269196,-4458579.63815 9495.22097676,-4458504.22288 9501.41395506,-4458447.0187 9478.92486456,-4458388.58861 9433.43903061,-4458318.68135 9387.70581859,-4458266.25408 9284.50640969,-4458190.38216 9186.83874732,-4458131.23781 9124.09057913,-4458032.60832 9038.88509156,-4457904.035 8998.89470622,-4457845.85679 8930.66159927,-4457764.48365 8827.50505419,-4457687.61482 8712.56037097,-4457594.25113 8672.84072241,-4457535.58504 8673.29690026,-4457478.13616 8691.48650451,-4457397.45832 8727.40948603,-4457293.55148 8694.36159702,-4457137.22457 8654.37323309,-4457096.53729 8614.42113161,-4457060.84882 8539.24953321,-4457054.13857 8463.80945546,-4457065.40689 8405.62327071,-4457093.90335 8341.72425387,-4457139.14623 8295.27932589,-4457150.15433 8220.10154683,-4457149.44039 8145.38841237,-4457102.77185 8019.70678056,-4456962.47628 7928.25567107,-4456863.12169 7830.83602486,-4456786.49936 7779.3390323,-4456740.32347 7681.4400602,-4456704.15816 7583.51126895,-4456656.99779 7526.29078892,-4456598.58422 7504.03363933,-4456517.17843 7470.7555237,-4456401.32089 7362.29563986,-4456249.76949 7265.08707128,-4456150.66974 7133.66939004,-4456010.1312 7041.96273293,-4455916.76379 6962.00799949,-4455834.89235 6818.123339,-4455769.77864 6529.16017243,-4455766.92765 6258.56183541,-4455772.85654 6066.72407391,-4455830.12266 5904.74380462,-4455837.69363 5776.69310111,-4455875.69744 5697.68272193,-4455923.79184 5618.39121979,-4456001.85678 5548.90518766,-4456084.33827 5390.84822617,-4456175.52784 5253.40372827,-4456193.64095 5125.53037784,-4456221.65743 4958.95746285,-4456190.55374 4817.87624193,-4456071.59146 4715.74419388,-4456011.75996 4588.39126359,-4455980.83326 4431.55647313,-4455979.1289 4244.8604192,-4455992.13908 3852.3849795,-4456002.85227 3773.67186586,-4456026.47276 3699.98296682,-4456055.30492 3635.70938413,-4456103.52805 3575.6543642,-4456210.89623 3457.35359549,-4456248.81523 3368.99734053,-4456252.53499 3124.5199156,-4456191.11816 2948.22359477,-4456159.59884 2870.00970142,-4456124.77545 2742.35203556,-4456147.80303 2609.73217875,-4456146.63296 2438.50763865,-4456095.84221 2233.47459509,-4456000.13322 2165.06638137,-4455969.72665 2086.98308606,-4455949.40026 1999.00725123,-4455909.16304 1930.57786063,-4455879.25534 1725.35822346,-4455823.01481 1529.65207001,-4455772.17785 1421.83414741,-4455746.08375 1245.69610131,-4455705.07758 1079.4614339,-4455654.50085 1011.26705138,-4455619.10687 952.7050863,-4455574.63042 884.926278907,-4455500.27846 807.587381002,-4455386.54231 720.309151991,-4455277.37851 642.923463979,-4455188.12543 525.951169358,-4455113.17102 458.151110671,-4455039.31839 390.419077763,-4454940.48441 327.591820167,-4454861.34789 235.377118725,-4454762.46747 162.964277353,-4454667.93104 -22.1762918606,-4454533.60055 -168.145589638,-4454423.92946 -382.906777088,-4454333.80537 -510.637483446,-4454311.85876 -614.562194613,-4454399.36027 -693.567929267,-4454447.45205 -816.706244179,-4454505.15084 -940.036274999,-4454567.33842 -1117.14178598,-4454619.2333 -1401.89178904,-4454641.04492 -1745.09747138,-4454598.39853 -2077.85793557,-4454545.20559 -2269.15153694,-4454514.04693 -2347.38726476,-4454503.20895 -2489.69051731,-4454506.62241 -2597.38528405,-4454466.04428 -2764.08987288,-4454373.97689 -2841.21073437,-4454331.20756 -3064.87674226,-4454157.25897 -3200.24293417,-4453969.09548 -3202.31687953,-4453965.00951 -3258.10667263,-4453855.69647 -3407.71997004,-4453638.44389 -3505.54768924,-4453583.29824 -3572.88321977,-4453504.47192 -3611.77216794,-4453449.8457 -3640.50920187,-4453385.65984 -3644.48992791,-4453297.54822 -3643.53446883,-4453199.15446 -3592.87863621,-4453071.90439 -3585.79822533,-4453058.21615 -3532.92326617,-4452955.04485 -3433.46585465,-4452843.37022 -3314.51430089,-4452731.52874 -3194.59292638,-4452526.78998 -3134.61303723,-4452385.94675 -3093.87192337,-4452239.28503 -3085.53739574,-4452178.68134 -3072.23557663,-4452077.81658 -3088.74816252,-4451768.31593 -3072.90411004,-4451660.56441 -3101.14534104,-4451537.93891 -3139.19497267,-4451434.38173 -3142.15382993,-4451421.76367 -3157.81786436,-4451355.63825 -3176.25458037,-4451237.42899 -3175.32227139,-4451139.5339 -3173.91811097,-4451007.18189 -3182.41642807,-4450884.40046 -3200.42770477,-4450756.21623 -3228.55102272,-4450619.10599 -3246.27914771,-4450437.46966 -3254.89680125,-4450329.17372 -3277.97527092,-4450196.77613 -3280.67423233,-4449990.79837 -3283.92735647,-4449838.76098 -3297.13453281,-4449685.79907 -3325.49635618,-4449577.65991 -3363.3924134,-4449464.61687 -3435.56891625,-4449341.11672 -3526.62823436,-4449168.3433 -3604.00532331,-4449049.61822 -3632.47096361,-4448961.46175 -3709.55321858,-4448818.26604 -3732.61191784,-4448685.37083 -3754.58791233,-4448591.49562 -3793.44903379,-4448424.94843 -3841.02618419,-4448287.00985 -3857.80670193,-4448006.98269 -3874.39635187,-4447722.46695 -3891.25731934,-4447666.78472 -3931.3599788,-4447535.16163 -3959.60509286,-4447412.53883 -4036.65224952,-4447274.34304 -4110.24146966,-4447148.7865 -4248.37537434,-4446914.04892 -4325.16490812,-4446746.38504 -4380.3372436,-4446616.61835 -4414.55211541,-4446393.81019 -4413.538699,-4446293.92185 -4392.7856613,-4446176.38825 -4366.86911822,-4446049.08173 -4331.4847922,-4445951.65886 -4311.16590742,-4445873.57963 -4270.55193701,-4445741.40369 -4224.73788435,-4445604.4529 -4155.08904075,-4445511.98889 -4095.04775388,-4445404.62491 -4054.39766132,-4445277.44677 -3993.66557729,-4445101.15919 -3943.98109018,-4445043.31908 -3893.76049085,-4444926.04239 -3911.87269641,-4444788.36349 -3989.1588755,-4444679.14007 -4017.44252484,-4444656.9483 -4101.2959445,-4444590.41558 -4315.59907208,-4444460.35999 -4451.99863497,-4444360.60821 -4534.51405393,-4444286.1385 -4641.13537909,-4444167.67067 -4713.76464717,-4444078.13348 -4825.15294026,-4443924.98667 -4921.46291588,-4443781.47684 -5018.55009836,-4443667.9133 -5057.25118894,-4443608.80316 -5075.58490708,-4443505.59273 -5074.6821783,-4443431.68268 -5063.89164041,-4443319.22131 -5082.29909945,-4443206.0148 -5111.04095414,-4443141.83332 -5198.2058376,-4443018.20093 -5299.55398897,-4442904.95642 -5392.10238788,-4442825.56383 -5427.46709726,-4442776.08981 -5459.80258863,-4442731.74147 -5536.97141598,-4442608.03627 -5585.10463537,-4442524.04196 -5627.66323579,-4442391.31975 -5659.77843689,-4442160.11239 -5668.835851,-4442091.27447 -5696.02958746,-4441885.25957 -5839.38433173,-4441538.38995 -5872.86901361,-4441456.51968 -5949.29033871,-4441244.91008 -6146.39703181,-4440863.77448 -6155.83483307,-4440844.88543 -6204.02700795,-4440756.39321 -6212.75506619,-4440668.08377 -6260.39773675,-4440525.65349 -6303.85339897,-4440460.84663 -6386.60315834,-4440391.86729 -6434.85495437,-4440322.35941 -6468.54838577,-4440262.96512 -6502.16117992,-4440184.08823 -6540.61390949,-4440124.99089 -6608.76277051,-4440065.12797 -6686.65823011,-4440005.3495 -6803.73133573,-4439950.39723 -6866.23278465,-4439851.80313 -6904.65744283,-4439762.72884 -6913.46670611,-4439693.9027 -6932.61636267,-4439615.64252 -6971.0479331,-4439556.04689 -7014.33378271,-4439487.25097 -7057.74599215,-4439397.96448 -7179.47634292,-4439323.32866 -7296.19800342,-4439248.40671 -7416.33799871,-4439206.81506 -7442.92965014,-4439197.68803 -7589.9686265,-4439142.45961 -7726.3372517,-4439077.19349 -7803.76379371,-4438982.9613 -7835.11799279,-4438933.16092 -7982.13809204,-4438701.56245 -8060.07000261,-4438636.78769 -8142.0220946,-4438537.36699 -8283.04945486,-4438364.48214 -8365.13362875,-4438250.56686 -8479.01286403,-4437956.42903 -8536.8758087,-4437807.57235 -8546.14773927,-4437743.72418 -8564.38413265,-4437620.53767 -8548.14396614,-4437473.83788 -8599.51079726,-4437242.81909 -8608.19792375,-4437130.03209 -8626.49318807,-4437002.34669 -8723.34896554,-4436883.30728 -8810.73507764,-4436794.14948 -8976.70258076,-4436714.13656 -9046.4378754,-4436662.20357 -9056.08106562,-4436571.85975 -9027.10958943,-4436454.68126 -8984.19084453,-4436379.56577 -8957.84658315,-4436294.75123 -8956.97492015,-4436227.33841 -8956.0869863,-4436141.93965 -8921.75837179,-4436074.95201 -8819.69398439,-4436042.32475 -8717.94306415,-4436034.66558 -8582.28359939,-4436010.96291 -8404.0830739,-4435962.09117 -8360.53296742,-4435878.00861 -8292.45035172,-4435827.94606 -8199.31018319,-4435828.91338 -8004.77935197,-4435830.69958 -7952.77707792,-4435729.98895 -7867.04694526,-4435629.2151 -7748.47623818,-4435613.77756 -7688.84557657,-4435580.34231 -7637.15682978,-4435504.59967 -7619.20119802,-4435411.43274 -7584.40032754,-4435327.47661 -7566.58268856,-4435225.80998 -7598.99883589,-4435107.01613 -7631.88746299,-4435005.18982 -7613.5074991,-4434878.56547 -7544.87272672,-4434768.56939 -7508.75587102,-4434583.24336 -7507.91177991,-4434498.84111 -7523.77523132,-4434413.72784 -7640.684393,-4434243.37378 -7716.0931899,-4434166.21896 -7774.30108093,-4434072.3091 -7858.32092536,-4434003.78143 -7916.83661588,-4433952.32739 -7975.37880992,-4433883.8848 -8042.4206066,-4433815.58023 -8092.57461699,-4433755.48882 -8091.95391132,-4433688.06506 -8159.17076965,-4433653.22848 -8218.04718911,-4433610.25313 -8217.31516291,-4433534.34048 -8216.44521754,-4433466.92742 -8258.34908827,-4433406.68769 -8291.72143175,-4433380.78585 -8290.87817369,-4433296.3843 -8323.94300247,-4433228.02708 -8357.50118461,-4433177.13593 -8407.64993122,-4433134.53225 -8482.75135579,-4433014.92339 -8490.49261843,-4432956.13748 -8557.87405545,-4432895.81342 -8607.92273854,-4432762.78155 -8623.18239609,-4432675.1971 -8587.80603753,-4432548.29778 -8552.89631123,-4432455.85288 -8535.0546337,-4432371.17551 -8534.21765002,-4432269.28703 -8566.38703752,-4432150.50605 -8599.70178112,-4432082.1388 -8657.64609598,-4431946.77314 -8690.48900727,-4431861.43878 -8698.12517446,-4431776.67704 -8672.02824373,-4431709.33822 -8628.84224298,-4431633.73296 -8661.92910953,-4431565.87527 -8746.26204365,-4431522.31816 -8779.01519646,-4431428.99384 -8778.4858695,-4431369.56085 -8828.21694759,-4431276.01415 -8844.13059108,-4431174.41293 -8868.61262571,-4431080.44136 -8935.29473745,-4431003.66087 -8985.60899701,-4430935.57057 -8984.60815301,-4430859.17054 -8983.87793198,-4430783.25863 -9016.29801467,-4430664.46813 -9066.34184969,-4430595.88993 -9150.16127031,-4430510.88678 -9217.29403687,-4430450.57526 -9275.72618855,-4430373.64662 -9300.45226471,-4430297.1521 -9333.20617575,-4430203.82871 -9331.80948931,-4430076.98393 -9330.50287755,-4429958.12931 -9329.55098256,-4429865.23999 -9328.91132948,-4429797.31853 -9328.18180379,-4429721.40693 -9318.70351083,-4429645.3677 -9326.34123667,-4429560.60679 -9325.47956862,-4429475.70764 -9281.98928188,-4429357.64729 -9238.91625067,-4429290.53062 -9161.80391979,-4429198.38102 -9110.09319592,-4429139.6254 -9058.54800789,-4429055.38191 -9015.69722322,-4429005.24275 -8990.02511752,-4428971.36047 -8980.01934881,-4428835.88827 -9013.88911758,-4428733.5246 -9029.25167275,-4428665.92207 -9045.11298622,-4428598.29837 -9103.43537544,-4428512.88187 -9110.87927764,-4428394.15493 -9109.79035167,-4428309.76503 -9058.80085375,-4428267.96556 -9024.42872667,-4428217.46577 -9006.27858424,-4428107.82061 -8988.21833854,-4428006.16557 -8970.17938248,-4427905.00923 -8977.59652776,-4427803.27059 -8985.01376353,-4427701.53198 -8966.53127683,-4427566.42015 -8949.02625773,-4427507.20938 -8947.96549557,-4427405.8311 -8989.00576065,-4427278.18221 -9030.48351279,-4427201.97591 -9046.49046038,-4427108.36603 -9045.0973249,-4426981.5213 -9010.94762908,-4426947.9989 -8976.35433181,-4426880.52103 -8941.89953621,-4426804.54367 -8838.86213187,-4426696.0072 -8804.2477632,-4426628.03044 -8786.32093923,-4426535.36272 -8734.24460134,-4426409.17234 -8682.36891066,-4426299.46089 -8647.57544183,-4426215.50362 -8578.05713566,-4426055.08038 -8568.4982461,-4425953.56336 -8524.7899984,-4425818.52345 -8473.10871305,-4425742.77773 -8421.80881434,-4425676.00897 -8404.14502715,-4425624.79849 -8403.75078675,-4425574.35325 -8385.8588695,-4425523.65206 -8384.93853512,-4425413.77395 -8333.58982552,-4425363.49467 -8298.91441557,-4425270.5387 -8264.54354915,-4425220.03778 -8230.52617759,-4425195.50226 -8178.7962059,-4425136.24577 -8161.51395177,-4425094.01215 -8118.65814447,-4425061.35838 -8062.69387755,-4425008.27712 -8013.56534499,-4424927.92572 -8012.69094094,-4424848.5225 -7964.30388466,-4424785.62639 -7931.80770178,-4424714.56094 -7898.95340176,-4424611.53464 -7818.94646961,-4424533.49364 -7754.82847678,-4424470.76576 -7682.70968542,-4424407.87797 -7642.12336755,-4424328.66218 -7593.80683053,-4424249.77462 -7529.79756066,-4424219.01794 -7441.94770077,-4424156.29828 -7354.20644836,-4424125.55004 -7211.02157047,-4424095.15769 -7115.34970213,-4424048.25836 -7011.36133782,-4423970.2355 -6954.88621024,-4423875.70566 -6954.19157078,-4423812.28229 -6937.15856513,-4423717.07681 -6872.50385722,-4423606.40636 -6792.65477451,-4423543.84574 -6680.07968755,-4423434.21047 -6600.12219298,-4423339.67789 -6532.97181669,-4423252.59551 -6503.34887564,-4423213.88279 -6438.78390871,-4423111.20195 -6398.21936934,-4423032.48359 -6341.63424197,-4422929.46379 -6245.28939095,-4422819.6381 -6196.54532835,-4422724.77892 -6243.20747792,-4422629.36695 -6274.40419285,-4422581.57691 -6313.55945942,-4422532.94941 -6328.59684253,-4422469.35758 -6312.10359846,-4422398.61052 -6279.69799236,-4422335.53374 -6239.44907975,-4422287.77879 -6183.84753703,-4422272.65191 -6112.08663005,-4422241.7231 -6071.68017056,-4422178.48615 -6054.31230371,-4422051.81727 -6053.28255492,-4421956.93096 -6052.05305786,-4421845.5653 -5985.58776338,-4421568.59258 -5825.46301806,-4421427.4974 -5697.99010487,-4421372.95148 -5617.80299935,-4421302.40891 -5585.21931096,-4421223.35078 -5504.42847731,-4421097.37433 -5486.51059114,-4420875.29815 -5460.69981725,-4420685.0338 -5450.35300993,-4420470.63046 -5448.38267757,-4420312.33029 -5446.44704359,-4420090.07563 -5428.79279184,-4419938.93617 -5387.00591617,-4419725.36712 -5338.26428595,-4419630.5061 -5265.54412376,-4419512.18022 -5217.40861944,-4419449.26988 -5168.95269862,-4419402.36137 -5128.79700983,-4419339.11242 -5088.4131348,-4419276.37274 -5071.65130704,-4419205.13645 -5023.22736486,-4419117.75603 -4967.04423973,-4419047.69225 -4878.9464287,-4418984.97779 -4783.18611267,-4418930.08278 -4687.28664748,-4418883.68739 -4575.81595841,-4418829.45857 -4496.32155564,-4418822.33807 -4440.29222633,-4418791.23896 -4380.25503194,-4418736.32724 -4331.94146988,-4418657.43525 -4267.64710711,-4418578.72137 -4172.331951,-4418563.77783 -3973.80735703,-4418565.70271 -3877.7325392,-4418479.84255 -3860.08041007,-4418328.70092 -3890.14294826,-4418177.53424 -3897.00742642,-4418074.31752 -3904.29945412,-4417987.07112 -3870.75955755,-4417820.61485 -3860.8845746,-4417646.65969 -3850.36567645,-4417416.27267 -3849.14083655,-4417304.9052 -3815.80106525,-4417154.92837 -3774.33280442,-4416972.31996 -3701.70367835,-4416861.98134 -3589.98383269,-4416807.76063 -3510.22577552,-4416753.18399 -3438.28717106,-4416706.26998 -3350.7233883,-4416691.49572 -3255.31891197,-4416668.55994 -3128.13029436,-4416661.96088 -3016.65570249,-4416631.21241 -2936.98630066,-4416584.62585 -2888.75901137,-4416537.20587 -2856.62282178,-4416498.09724 -2740.04429439,-4416364.63844 -2723.35189258,-4416300.89214 -2675.21733616,-4416237.97909 -2611.27956905,-4416191.22485 -2539.25178228,-4416136.31956 -2467.0673218,-4416065.93188 -2418.57722718,-4415971.05644 -2369.83782368,-4415876.19149 -2367.76812078,-4415685.91478 -2374.45732982,-4415566.71594 -2389.14776924,-4415447.67765 -2380.01270965,-4415344.1389 -2347.27605473,-4415249.59475 -2306.60606118,-4415162.38181 -2274.20373048,-4415099.30099 -2233.73262457,-4415028.56779 -2216.77852547,-4414917.36597 -2231.64321957,-4414837.7922 -2230.79738779,-4414758.88425 -2198.28943806,-4414663.83053 -2149.57222574,-4414569.46367 -2100.54644826,-4414450.12757 -2067.54416143,-4414331.61133 -2066.77052158,-4414236.71161 -2030.11659691,-4414126.34435 -2029.22900179,-4414046.43879 -2060.07543782,-4413966.68755 -2090.92191801,-4413886.93635 -2089.7217961,-4413776.06615 -2009.02627717,-4413658.07156 -1936.31083072,-4413539.73872 -1895.80273377,-4413444.52382 -1878.53322505,-4413325.8403 -1822.06529366,-4413231.30143 -1757.50759368,-4413128.61123 -1740.32709048,-4413017.91811 -1738.92935968,-4412890.56773 -1800.97869301,-4412763.02791 -1879.25862059,-4412635.30035 -1988.66406295,-4412499.25953 -1992.30403657,-4412443.64485 -1991.19396398,-4412340.76519 -1950.26028407,-4412229.57944 -1878.39496141,-4412166.67032 -1798.13950288,-4412112.11081 -1749.58510411,-4412009.74154 -1755.91912898,-4411882.06382 -1810.33222629,-4411739.35912 -1887.76015831,-4411579.69127 -1950.14876381,-4411460.13242 -2012.62122621,-4411372.0477 -2059.45057158,-4411292.12018 -2090.5482469,-4411212.35929 -2105.59262427,-4411148.76718 -2088.73089553,-4411045.55548 -2040.52688401,-4410998.63169 -2016.46102549,-4410967.17396 -1960.43298848,-4410936.07037 -1921.33640957,-4410927.2334 -1916.53493204,-4410925.93779 -1859.79202859,-4410913.35124 -1755.87666819,-4410842.80485 -1683.26885139,-4410756.44297 -1619.0674844,-4410685.71367 -1602.64870364,-4410622.45433 -1475.19853582,-4410568.39302 -1411.33009092,-4410529.12706 -1315.25487759,-4410466.74206 -995.283767671,-4410231.965 -922.394511243,-4410097.6479 -865.840484411,-4409995.11618 -832.48882506,-4409844.63519 -831.381160603,-4409741.75462 -893.839606478,-4409629.6877 -1003.603199,-4409525.61133 -1137.73313155,-4409436.49238 -1295.26332872,-4409315.90471 -1460.5966075,-4409178.99842 -1554.45143445,-4409059.10811 -1569.85069131,-4409027.47834 -1743.78263747,-4408946.16891 -1957.51133257,-4408896.15165 -2131.10498674,-4408806.86269 -2280.57135728,-4408655.14078 -2366.15980525,-4408511.11923 -2451.92507733,-4408383.07891 -2585.65449142,-4408255.00743 -2726.49604128,-4408070.6757 -2835.71349643,-4407894.67767 -2977.52676626,-4407798.24192 -3214.88210666,-4407716.24987 -3317.31378998,-4407651.45928 -3411.15295954,-4407507.59035 -3489.11517091,-4407395.8705 -3567.57617152,-4407284.12971 -3693.3198622,-4407179.88147 -3791.76144892,-4407115.26045 -3885.85997692,-4407018.84677 -4059.34821454,-4406897.59003 -4248.58876867,-4406776.66644 -4374.31673457,-4406648.43773 -4484.67590157,-4406599.80113 -4595.68909075,-4406566.62547 -4627.40109838,-4406566.28306 -4682.00511687,-4406551.98177 -4639.25341246,-4404100.11164 -4560.81130597,-4399596.28325 -4551.45664103,-4399049.58661 -4545.79218027,-4398738.05856 -4376.68750502,-4389034.9629 -4218.23918602,-4379933.47866 -4202.98493859,-4379048.28649 -4029.64490061,-4369055.08834 -4003.01845866,-4367515.8626 -3861.03160269,-4359332.45369 -3735.95060249,-4352094.59369 -3725.6127456,-4351494.97244 -3696.43910362,-4349482.68845 -3626.46791351,-4344220.01155" style="stroke-linejoin:round;stroke:#000;stroke-width:1px;fill:none" /></g></g></svg>