<svg xmlns="http://www.w3.org/2000/svg" baseProfile="full" height="104815.221228" version="1.1" viewBox="-1713.634958,4547901.578736,128835.444889,104815.221228" width="128835.444889"><defs><style type="text/css">polyline,line,rect,path,polygon,.polygon{fill:none;stroke:#000;stroke-width:1px;stroke-linejoin:round;}</style></defs><g fill_rule="evenodd" transform="scale(1,-1)"><g class="hogares departamen mujeres departam_1 toponimo_i tot_pob varones viv_part viv_part_h" id="58105"><polygon class="_58105" id="None" points="33828.4787337,-4557957.86634 33842.7692489,-4557984.62674 33918.2978499,-4558103.15838 33955.1331528,-4558202.60173 33952.7408918,-4558297.41971 33982.1260907,-4558414.44933 33980.3430002,-4558488.81165 34020.8548674,-4558584.95648 34082.0023945,-4558692.21478 34164.7672738,-4558778.65744 34352.9383268,-4558888.80587 34394.0295612,-4558942.00612 34477.5000817,-4558997.00469 34592.3731176,-4559062.70127 34685.5324542,-4559160.20261 34726.113066,-4559245.85782 34724.6054752,-4559319.73589 34701.1348339,-4559425.405 34646.1627432,-4559508.37716 34559.6228199,-4559602.13047 34495.1151043,-4559653.60219 34450.9247728,-4559726.6645 34416.1881821,-4559874.19904 34381.6168614,-4560000.25419 34379.3757563,-4560106.07474 34398.7523061,-4560191.07977 34502.7884885,-4560267.68363 34586.9221215,-4560301.23104 34702.4311464,-4560345.97508 34774.455351,-4560432.3368 34836.3344081,-4560507.65406 34855.6414007,-4560603.1501 34853.1504999,-4560708.95758 34851.2270603,-4560804.30153 34892.2904133,-4560858.00106 34974.9846669,-4560954.9367 35057.1806243,-4561051.84547 35140.4847374,-4561128.32555 35202.0449859,-4561214.12057 35263.9236882,-4561289.43862 35314.8968659,-4561386.15333 35302.3988192,-4561459.93532 35385.4383463,-4561545.89648 35436.5077589,-4561631.62256 35433.6277918,-4561758.39829 35420.3959013,-4561864.12337 35417.9868762,-4561991.42436 35447.5069858,-4562087.47536 35529.8124073,-4562205.38023 35624.9213437,-4562207.04243 35710.1498783,-4562188.1792 35805.8691288,-4562169.3854 35848.0538239,-4562170.17501 35953.8063662,-4562182.90909 36016.3914178,-4562226.78331 36100.3729378,-4562249.33041 36183.8429109,-4562304.33263 36267.2434425,-4562369.82563 36372.4286378,-4562393.02366 36478.2511695,-4562395.26735 36582.6333239,-4562460.8996 36665.3968034,-4562547.34743 36749.2127345,-4562591.37471 36875.6019736,-4562615.2239 36937.7992223,-4562680.06681 37000.1084639,-4562724.42653 37104.8366151,-4562779.08393 37188.6257559,-4562823.60988 37283.0023106,-4562857.21637 37388.8257625,-4562859.4606 37483.909369,-4562861.62179 37567.7258162,-4562905.64971 37651.1270441,-4562971.14412 37755.121734,-4563057.74593 37890.8536411,-4563135.07582 37985.2307253,-4563168.68285 38089.4476687,-4563255.79694 38151.007759,-4563341.59575 38278.0630146,-4563343.99323 38331.1008814,-4563324.38296 38426.4344816,-4563326.55815 38489.0204956,-4563370.43418 38571.4233645,-4563477.35445 38600.9854247,-4563563.41621 38599.4048975,-4563647.78783 38608.3848571,-4563721.73815 38606.1821942,-4563817.57022 38573.0458711,-4563880.23925 38570.8274962,-4563985.56564 38631.9717178,-4564092.8319 38630.0448906,-4564188.17921 38649.099834,-4564283.66589 38710.5626162,-4564380.45499 38782.904833,-4564456.34554 38834.3192356,-4564531.10022 38959.5874487,-4564607.8649 39076.1256043,-4564610.69258 39150.0066315,-4564612.20424 39223.8179898,-4564624.20689 39318.1687046,-4564658.31405 39422.4126921,-4564744.93252 39423.6968594,-4564753.49802 40182.9246641,-4564756.23064 48685.3815684,-4564884.94276 49986.0238103,-4564909.57075 59894.7913424,-4565099.15054 59902.5162447,-4565099.56995 69849.6579054,-4565289.7537 72000.7627976,-4565330.5732 79763.7425993,-4565479.1637 86155.3322323,-4565627.78579 89264.2450483,-4565700.13295 89696.4651138,-4565709.60737 89772.4633717,-4565626.73773 89837.743586,-4565543.2859 89902.9967082,-4565460.33249 89989.1015075,-4565398.51077 90064.4612072,-4565336.6054 90181.8595552,-4565296.98234 90277.0162081,-4565298.65011 90392.9434977,-4565322.94527 90477.2851299,-4565335.02543 90561.2104469,-4565368.58243 90634.3205998,-4565412.55185 90727.6169269,-4565499.11657 90810.6394997,-4565586.12344 90925.1069368,-4565683.33802 91018.1269415,-4565770.38815 91122.23858,-4565846.54108 91228.087054,-4565849.28998 91313.803663,-4565808.44633 91441.2829554,-4565790.37043 91546.520144,-4565813.58572 91630.375989,-4565857.63941 91682.5917035,-4565890.47487 91745.2763785,-4565923.87895 91807.5015691,-4565988.75762 91881.0287381,-4566011.25086 91975.4237924,-4566045.37739 92059.3069188,-4566088.9329 92164.8368641,-4566102.1646 92270.4640749,-4566104.40174 92408.6897863,-4566086.40969 92494.1580864,-4566045.55231 92559.023679,-4565983.57604 92634.6346435,-4565921.68332 92719.0478753,-4565923.2681 92802.8774144,-4565967.82087 92823.7724897,-4565978.95569 92840.8147441,-4565987.38126 92907.1306295,-4566022.98294 93013.1869436,-4566035.74326 93119.1342745,-4566027.49779 93225.8175788,-4565987.29238 93291.4624205,-4565883.35814 93336.9048446,-4565746.32662 93381.6272612,-4565631.75585 93426.0414493,-4565536.66822 93512.5112311,-4565454.36451 93566.5186541,-4565412.79767 93631.4545803,-4565340.3243 93726.8362096,-4565342.50435 93820.55136,-4565407.59399 93882.3614532,-4565493.95102 93922.707615,-4565579.64241 93984.2954389,-4565665.48753 94067.0978792,-4565751.98495 94160.6458135,-4565838.56612 94277.0904201,-4565830.39051 94383.2881479,-4565822.15835 94448.154711,-4565760.18101 94534.0838948,-4565687.84746 94631.3702328,-4565595.13046 94729.7658205,-4565458.97315 94764.1164467,-4565332.83753 94841.2429114,-4565197.02479 94885.603213,-4565102.93289 94950.8860734,-4565019.47726 95057.9600421,-4564958.29128 95175.9318747,-4564908.19714 95230.1499001,-4564835.14047 95273.8015735,-4564772.51008 95296.8339386,-4564698.25979 95319.9949798,-4564594.01604 95344.2219254,-4564456.32965 95356.940557,-4564351.01877 95370.2546509,-4564234.74004 95372.4338697,-4564139.35698 95417.5988853,-4564002.80734 95440.6465883,-4563919.0575 95505.928974,-4563835.6008 95571.8496847,-4563731.17833 95616.1392605,-4563647.58165 95659.6381693,-4563573.94214 95746.3576359,-4563491.649 95853.5015016,-4563419.96483 95939.1509186,-4563389.61435 96024.9130649,-4563338.76954 96068.2180899,-4563287.11959 96133.1114302,-4563224.64142 96219.1229274,-4563173.80994 96241.9480359,-4563089.54728 96243.4881667,-4563015.12927 96202.7233987,-4562950.91481 96194.1559339,-4562855.44765 96195.6688515,-4562781.5282 96250.5242881,-4562687.50407 96315.4174363,-4562625.02547 96390.613308,-4562584.60659 96465.5599451,-4562544.17413 96594.6113683,-4562451.17737 96660.2552261,-4562347.23816 96726.1753707,-4562242.81382 96738.1844195,-4562168.96377 96750.7617319,-4562084.64429 96783.5970906,-4562032.42525 96891.4062286,-4561939.27465 96976.7797547,-4561909.40788 97082.730542,-4561901.15861 97209.1888959,-4561925.02343 97271.8078863,-4561968.92372 97430.7131521,-4561961.54888 97474.2674269,-4561909.91135 97540.3542384,-4561783.99439 97573.5087175,-4561721.29189 97701.7292093,-4561671.24975 97774.4563795,-4561736.19946 97846.8645351,-4561811.63232 97940.169052,-4561898.19991 98044.9002141,-4561953.88673 98171.4563845,-4561966.75669 98254.9024864,-4562032.2887 98337.6834439,-4562119.28555 98398.8871321,-4562226.11204 98460.4525481,-4562312.45745 98512.3802245,-4562355.278 98668.6931924,-4562464.76782 98668.3043009,-4562485.7476 98825.255524,-4562574.27147 98908.89548,-4562617.81381 98992.7306203,-4562662.36686 99118.7747703,-4562707.71138 99223.2144667,-4562773.38411 99328.459198,-4562796.59863 99455.3086254,-4562799.48506 99604.0391665,-4562781.55832 99688.6797016,-4562783.65331 99815.8058545,-4562786.05473 99899.8082956,-4562809.11619 100046.777007,-4562865.09772 100173.627185,-4562867.98428 100258.517394,-4562870.0929 100342.936172,-4562871.67589 100448.820112,-4562873.92423 100554.385012,-4562886.65585 100596.567429,-4562887.94592 100670.738896,-4562889.47262 100775.984849,-4562912.68759 100912.527566,-4562958.10301 101018.342136,-4562970.84831 101113.410651,-4562983.51024 101218.310744,-4563017.7073 101323.487266,-4563051.4194 101428.539852,-4563096.62558 101511.905003,-4563140.65435 101617.400901,-4563163.88327 101701.723658,-4563176.46202 101775.090603,-4563220.44813 101890.834356,-4563243.73355 102081.75088,-4563227.0974 102166.393125,-4563229.19284 102283.094777,-4563221.02807 102420.055174,-4563244.96551 102493.589379,-4563267.45941 102619.247759,-4563333.78652 102702.44672,-4563399.30849 102725.772035,-4563315.06848 102747.933297,-4563252.26686 102791.447329,-4563210.6261 102856.706447,-4563127.66267 102900.041079,-4563075.51127 102985.668474,-4563045.6576 103049.095079,-4563047.1011 103143.845996,-4563070.2469 103278.628521,-4563189.57378 103330.780056,-4563232.90862 103455.773842,-4563320.70183 103541.179471,-4563290.33612 103636.708906,-4563271.52097 103732.16851,-4563263.20288 103827.336069,-4563264.86977 103933.472312,-4563267.13222 104038.374705,-4563301.33046 104100.996557,-4563345.23412 104217.31096,-4563358.05016 104300.580873,-4563413.07593 104394.208106,-4563489.166 104445.721543,-4563553.46861 104551.289793,-4563566.20144 104657.177357,-4563568.45066 104762.788652,-4563571.18493 104888.476194,-4563637.01514 104971.260202,-4563724.01804 104991.449131,-4563766.61823 105053.016491,-4563852.96926 105115.249405,-4563917.85445 105155.946417,-4563992.57133 105261.515211,-4564005.30464 105305.489635,-4563932.18522 105370.777739,-4563848.72199 105456.893305,-4563786.89163 105573.571058,-4563779.22593 105668.296664,-4563802.87146 105710.118685,-4563824.6444 105794.790488,-4563826.24188 105899.277966,-4563881.92078 105960.80276,-4563978.27123 106022.716765,-4564053.64074 106115.998473,-4564140.71475 106209.653624,-4564216.30797 106282.107826,-4564281.74904 106365.584999,-4564346.78869 106480.49999,-4564413.03565 106584.944795,-4564478.71413 106690.514738,-4564491.44807 106817.691023,-4564483.85306 106902.752898,-4564464.46988 106987.744808,-4564455.58404 107093.385123,-4564457.82065 107188.111727,-4564481.46705 107261.648486,-4564503.96273 107346.570617,-4564505.57429 107408.944335,-4564549.46628 107450.35034,-4564592.71966 107480.203806,-4564678.35061 107500.003366,-4564741.93309 107509.278412,-4564805.94413 107507.444386,-4564890.35426 107505.263858,-4564985.74683 107502.720881,-4565101.62207 107499.636984,-4565250.47173 107539.874274,-4565356.66917 107643.680594,-4565443.31679 107728.229372,-4565456.41007 107770.511386,-4565446.70523 107814.168219,-4565384.06882 107879.361512,-4565311.6008 107923.754273,-4565217.00046 107946.583423,-4565132.73023 107990.781759,-4565060.12184 108035.174377,-4564965.52131 108100.075276,-4564903.03826 108196.733768,-4564831.27859 108303.430303,-4564791.06774 108441.035684,-4564794.04058 108515.211825,-4564795.5688 108631.156644,-4564819.86805 108704.374815,-4564852.8482 108787.826158,-4564918.38818 108881.136288,-4565004.96629 108921.167894,-4565101.1524 108919.972376,-4565164.59551 108918.52753,-4565228.02508 108875.259857,-4565269.6806 108832.019269,-4565310.83749 108788.362086,-4565373.47443 108786.917137,-4565436.90392 108785.055533,-4565521.81348 108794.357315,-4565585.32664 108845.844245,-4565650.13106 108907.82868,-4565715.00569 108970.062404,-4565779.89391 109086.381014,-4565792.71301 109149.810661,-4565794.15817 109224.057332,-4565785.18948 109330.505741,-4565744.96564 109416.527842,-4565694.13097 109502.327771,-4565642.7841 109629.826405,-4565624.70622 109714.002214,-4565626.27805 109808.590249,-4565670.92114 109901.900554,-4565757.50054 109974.242725,-4565843.44117 110024.993802,-4565940.21069 110064.857556,-4566057.8918 110084.65674,-4566121.47582 110156.262497,-4566239.38116 110218.149945,-4566315.253 110269.83161,-4566358.06603 110344.258076,-4566359.60881 110408.078047,-4566340.07256 110492.476563,-4566342.15705 110577.427905,-4566343.27144 110661.339538,-4566377.33399 110712.924061,-4566431.14347 110764.341061,-4566506.44694 110784.43254,-4566560.04586 110845.610791,-4566667.3842 110907.20584,-4566753.24222 110988.989555,-4566881.70309 111050.974329,-4566946.57947 111154.977413,-4567034.24171 111248.564071,-4567120.33802 111321.019464,-4567185.78353 111436.283942,-4567241.05315 111529.88676,-4567317.64929 111634.751003,-4567361.8525 111718.619816,-4567405.91519 111791.741611,-4567449.8941 111853.726455,-4567514.77118 111936.539106,-4567601.28309 112008.853974,-4567687.72479 112016.388887,-4567825.15499 112014.915478,-4567889.08464 112013.079137,-4567973.49768 112011.242739,-4568057.91072 112030.596941,-4568143.47522 112070.973727,-4568228.68188 112132.56823,-4568314.5415 112236.847563,-4568401.72058 112340.975098,-4568477.88985 112444.436173,-4568575.52638 112495.852502,-4568650.83175 112546.239244,-4568768.08779 112544.55407,-4568863.51111 112541.730749,-4568979.87586 112577.348736,-4569115.83249 112627.198521,-4569247.56189 112644.920683,-4569312.5351 112647.045167,-4569328.65307 112669.932208,-4569381.40504 112707.083696,-4569433.93213 112755.318357,-4569466.55839 112834.298613,-4569499.35546 112893.112491,-4569507.55279 112955.665947,-4569515.95337 113052.867224,-4569521.73635 113136.020855,-4569523.75537 113216.220866,-4569511.11151 113282.449079,-4569488.70681 113377.439477,-4569452.36279 113489.5832,-4569399.44812 113599.136438,-4569311.38681 113677.66209,-4569219.13864 113801.013879,-4569134.82744 113903.462031,-4569057.88146 113980.66538,-4569017.56976 114047.360012,-4568991.18934 114141.332015,-4568982.79409 114207.067492,-4568987.86682 114258.728074,-4569012.67812 114289.425279,-4569041.351 114353.567491,-4569126.35082 114421.389655,-4569208.05013 114447.490906,-4569284.48153 114521.068668,-4569407.50085 114573.943082,-4569520.39352 114636.632392,-4569664.32501 114685.550089,-4569804.00751 114732.939721,-4569870.59439 114797.211687,-4569948.60078 114855.245725,-4569998.76338 114951.906389,-4570014.51917 115035.500276,-4570013.06184 115098.504707,-4570003.98423 115192.580552,-4569989.09415 115248.035296,-4569990.10802 115338.198084,-4569992.00825 115417.879055,-4570007.34126 115472.883935,-4570025.83382 115549.107156,-4570044.97964 115583.55499,-4570059.8544 115634.679228,-4570099.13987 115713.519995,-4570152.9343 115726.228974,-4570195.13264 115732.033018,-4570253.95875 115743.961119,-4570338.1223 115731.722332,-4570434.47465 115719.017329,-4570534.80236 115702.924982,-4570628.44474 115701.129837,-4570725.86484 115692.305434,-4570805.39965 115676.92332,-4570867.57488 115650.381192,-4570978.65237 115606.588188,-4571071.28884 115530.704248,-4571197.68704 115484.282907,-4571269.67677 115447.513915,-4571352.69309 115425.590007,-4571411.01185 115419.474275,-4571532.70124 115431.938338,-4571602.39125 115456.980587,-4571721.27384 115495.691095,-4571850.90141 115580.014231,-4571974.00743 115654.490428,-4572062.07196 116033.835235,-4572512.2766 116140.212916,-4572570.0705 116243.420384,-4572617.19017 116329.572358,-4572646.87942 116460.491681,-4572681.00337 116599.150981,-4572701.54561 116682.393451,-4572706.57214 116762.498102,-4572704.92682 116849.111992,-4572703.13535 116956.873707,-4572712.49574 117018.696833,-4572734.36104 117080.742181,-4572756.73853 117149.507704,-4572793.48418 117349.486745,-4573019.9005 117467.937726,-4573168.36958 117569.300623,-4573295.40562 117700.589841,-4573479.08021 117746.556314,-4573608.60515 117783.186089,-4573689.11279 117913.573905,-4573907.74606 117981.600037,-4574141.99185 118019.743499,-4574309.59955 118016.137841,-4574472.43609 118023.948131,-4574590.88455 118021.145329,-4574729.75996 118008.350077,-4574827.08362 118064.172994,-4574977.64965 118106.816715,-4575085.49047 118243.690181,-4575189.45532 118325.336231,-4575274.41292 118417.144669,-4575356.42272 118505.972904,-4575424.26767 118653.258237,-4575525.29888 118821.883724,-4575587.98306 119040.064709,-4575626.8577 119234.155472,-4575648.91868 119401.197646,-4575635.00098 119526.582437,-4575623.81812 119638.180003,-4575594.88158 119739.659031,-4575558.89316 119890.607186,-4575496.08942 120052.299193,-4575405.86392 120196.310644,-4575332.68031 120273.812922,-4575282.3844 120375.917369,-4575211.922 120499.018756,-4575141.60143 120628.547126,-4575095.63563 120722.627547,-4575080.74882 120840.771863,-4575083.17453 120981.671861,-4575145.35116 121132.928524,-4575228.5959 121232.153878,-4575303.00907 121389.952459,-4575390.11082 121467.89285,-4575478.8699 121590.56349,-4575586.5662 121743.430164,-4575672.4 121851.760447,-4575763.31287 121942.717226,-4575897.79103 122045.713616,-4575999.41661 122153.500047,-4576123.30807 122458.930506,-4576295.96163 122661.244688,-4576382.98675 122864.525488,-4576443.05828 123105.093605,-4576553.17025 123802.450729,-4577004.71394 124013.68042,-4577208.25486 124159.49865,-4577354.72377 124211.67953,-4577494.09718 124246.138189,-4577688.02018 124222.332375,-4577776.24706 124185.670433,-4577935.29212 124188.649019,-4578045.98174 124180.630122,-4578156.57302 124156.057388,-4578277.26613 124198.306754,-4578355.58436 124225.415199,-4578395.06915 124355.641978,-4578497.18023 124666.238847,-4578680.62608 124943.25002,-4578902.25507 125214.874667,-4579112.58897 125366.448624,-4579254.37339 125440.997837,-4579382.46319 125482.228768,-4579516.24153 125523.111758,-4579661.00388 125554.144114,-4579766.21998 125579.365489,-4579877.12138 125615.904979,-4579977.63605 125702.267478,-4580067.85953 125794.985814,-4580119.41889 125865.807671,-4580159.78374 125997.921796,-4580190.48173 126184.996656,-4580222.17114 126283.874091,-4580257.06155 126380.760827,-4580369.86445 126428.842728,-4580437.49929 126519.203411,-4580610.46338 126549.186497,-4580744.13104 126574.607255,-4580860.54583 126594.016891,-4580977.13354 126613.682314,-4581024.71667 126552.003081,-4581110.38255 126503.310457,-4581141.24053 126443.726658,-4581193.01128 126410.228639,-4581261.70635 126398.646513,-4581309.08859 126387.086539,-4581351.47069 126368.738158,-4581417.4896 126296.776141,-4581398.06743 126170.292922,-4581374.17645 126086.669166,-4581330.11305 126024.364018,-4581275.70735 126046.886566,-4581201.91375 125985.22297,-4581126.53752 125901.670707,-4581071.97547 125796.08693,-4581059.22531 125690.431777,-4581056.97404 125573.806357,-4581054.12551 125479.390396,-4581019.97767 125406.978798,-4580944.51683 125376.392482,-4580890.83816 125315.192658,-4580783.97956 125253.627738,-4580697.60647 125127.956893,-4580631.24961 125032.773928,-4580629.56877 124854.164937,-4580561.83055 124771.896102,-4580465.32849 124687.63146,-4580442.23656 124549.296505,-4580470.71495 124369.849524,-4580445.94236 124264.614794,-4580422.20906 124137.741219,-4580419.3033 123988.560256,-4580458.69399 123797.929613,-4580464.82045 123659.176309,-4580514.78109 123572.648017,-4580597.59206 123443.118484,-4580721.57256 123324.595557,-4580804.1418 123165.656865,-4580811.49291 123039.105132,-4580798.10174 122869.37455,-4580815.36782 122656.36669,-4580874.28826 122592.289156,-4580893.80526 122485.504273,-4580944.50511 122294.875824,-4580950.63081 122167.629131,-4580959.20688 122049.482295,-4581030.29283 121953.169217,-4581081.56245 121866.989644,-4581153.38835 121718.479799,-4581171.30896 121592.000983,-4581147.41907 121487.045103,-4581123.20066 121421.995792,-4581165.16958 121354.584641,-4581250.51979 121290.473347,-4581289.03887 121140.594013,-4581295.38204 120993.590316,-4581271.87498 120876.988509,-4581236.52015 120746.449993,-4581222.91164 120636.212641,-4581231.4131 120619.474079,-4581249.50602 120550.878219,-4581315.28681 120444.193493,-4581354.98845 120307.21754,-4581331.02716 120212.136753,-4581318.34885 120072.994716,-4581389.29045 119975.720578,-4581472.01349 119845.453576,-4581627.95631 119737.636727,-4581720.60726 119651.083164,-4581803.91355 119574.662761,-4581907.77576 119519.434044,-4582012.79174 119474.980082,-4582117.39412 119472.366452,-4582234.27685 119448.588153,-4582349.507 119403.785909,-4582465.0926 119338.478085,-4582548.55489 119251.558934,-4582652.34483 119175.03934,-4582767.20317 119077.693402,-4582860.4229 118991.978899,-4582900.76464 118874.769529,-4582940.89151 118812.364633,-4582994.00493 118777.771773,-4583023.12755 118636.828139,-4583168.48385 118561.049127,-4583251.37503 118423.041086,-4583269.3644 118285.425769,-4583266.37079 118148.059912,-4583263.39078 117989.226274,-4583259.74173 117883.970122,-4583236.50595 117799.290757,-4583234.89494 117724.966397,-4583254.35198 117670.576859,-4583316.40296 117635.95161,-4583442.54288 117591.8626,-4583526.65903 117537.053202,-4583610.19125 117450.107257,-4583714.47762 117384.826773,-4583797.43938 117256.898273,-4583836.98105 117150.929179,-4583845.21225 117055.779312,-4583843.03055 116970.458527,-4583862.38828 116884.994431,-4583902.74226 116808.894981,-4583996.11642 116754.406617,-4584069.16338 116595.404183,-4584087.00821 116531.302037,-4584107.0213 116466.414488,-4584168.99963 116465.254306,-4584171.93702 116433.171679,-4584242.20333 116377.621374,-4584357.70023 116311.279016,-4584483.1112 116224.333189,-4584587.39597 116159.445561,-4584649.37391 116105.226668,-4584689.92877 116042.583625,-4584701.51935 115971.708609,-4584708.16067 115861.403396,-4584727.15686 115776.725394,-4584725.54488 115690.869005,-4584786.8804 115625.882627,-4584859.85462 115539.776969,-4584921.17639 115411.501731,-4584971.6994 115283.824152,-4585011.25284 115135.464966,-4585008.17206 115008.60053,-4585005.262 114924.172405,-4585003.66343 114796.666021,-4585021.72214 114658.412503,-4585039.69546 114584.134317,-4585049.15162 114478.488453,-4585046.89727 114342.82425,-4584948.49116 114249.524315,-4584861.89461 114134.149029,-4584827.10487 114007.009131,-4584824.68004 113868.514059,-4584874.64572 113741.40159,-4584871.72224 113712.65515,-4584876.15736 113624.865731,-4584890.37844 113529.165603,-4584889.16605 113500.488982,-4584855.59857 113472.152862,-4584829.55091 113447.741535,-4584795.71571 113419.309347,-4584757.66083 113399.444633,-4584727.57391 113349.406666,-4584714.34651 113283.168957,-4584704.73744 113191.07768,-4584710.72292 113165.519997,-4584743.83647 113155.499646,-4584826.80446 113137.581083,-4584880.3374 113123.688198,-4584942.59103 113110.09694,-4584976.35637 113068.053292,-4585004.57112 113043.249245,-4584991.71806 113001.959298,-4584973.96629 112927.393947,-4584947.40077 112860.685037,-4584937.26584 112830.676813,-4584978.6382 112796.467336,-4585028.28307 112774.310622,-4585081.58496 112706.460065,-4585142.89937 112688.907148,-4585175.94869 112679.921625,-4585216.96592 112678.520816,-4585279.39972 112640.18073,-4585377.32727 112517.544275,-4585388.64932 112406.144999,-4585340.57392 112390.205377,-4585302.69967 112357.784782,-4585264.4277 112308.177026,-4585238.72162 112262.617251,-4585216.73662 112225.199967,-4585219.69909 112195.621542,-4585248.5926 112161.546036,-4585268.2397 112115.662285,-4585279.74234 112049.237037,-4585301.12768 111962.740683,-4585383.42927 111898.497058,-4585424.43641 111791.890126,-4585453.63418 111706.457292,-4585442.97909 111644.918466,-4585397.62015 111590.158306,-4585319.62548 111525.643479,-4585237.09888 111480.012197,-4585225.61171 111373.398913,-4585222.80433 111288.751093,-4585220.69346 111214.358454,-4585250.64598 111171.503473,-4585270.81479 111108.859014,-4585227.39619 111046.982852,-4585151.51465 110941.804617,-4585117.78091 110814.695117,-4585114.85722 110709.052424,-4585112.60286 110643.774486,-4585195.55946 110599.758525,-4585269.17271 110581.173726,-4585321.16797 110577.308154,-4585332.45906 110515.337958,-4585400.59348 110453.49873,-4585461.73396 110340.860426,-4585496.10349 110213.232472,-4585525.65578 110083.882561,-4585628.12451 110028.333745,-4585743.61497 109994.743393,-4585827.79707 109877.568582,-4585867.41974 109759.751576,-4585928.01027 109715.762651,-4586001.12415 109713.815088,-4586096.53128 109711.96649,-4586180.94228 109689.095591,-4586265.7081 109645.277429,-4586317.32817 109601.930684,-4586369.47395 109538.180072,-4586378.50221 109494.833337,-4586430.64793 109419.942879,-4586460.57212 109346.436287,-4586437.56448 109263.611458,-4586351.5407 109200.9955,-4586307.62362 109137.566277,-4586306.16798 109073.467563,-4586326.17873 109051.266215,-4586389.4777 109028.593417,-4586452.2509 108942.785498,-4586503.58302 108836.823213,-4586511.81138 108730.93292,-4586509.54228 108666.297469,-4586571.52908 108600.770316,-4586654.46996 108608.998491,-4586760.43202 108617.5478,-4586855.91022 108551.921374,-4586949.84695 108403.03313,-4586988.7401 108296.080392,-4587028.91811 108231.123658,-4587101.38825 108208.25239,-4587186.1529 108206.724319,-4587260.07904 108247.086723,-4587345.28907 108224.386412,-4587408.56027 108179.904724,-4587513.64996 108156.489774,-4587608.38616 108133.645341,-4587692.65209 108089.334633,-4587776.24821 108035.124254,-4587848.80345 107990.143673,-4587953.86566 107924.865227,-4588036.81895 107816.311903,-4588161.41918 107699.111191,-4588201.53752 107634.646684,-4588242.02962 107600.805965,-4588326.19585 107630.892188,-4588411.84592 107672.145623,-4588476.10196 107670.367493,-4588550.01419 107668.490063,-4588634.92237 107571.175738,-4588727.63043 107537.977476,-4588790.82895 107493.915516,-4588874.43788 107461.065771,-4588926.65398 107490.259445,-4589033.25805 107446.912283,-4589085.40199 107381.561219,-4589178.85167 107369.35746,-4589242.19425 107369.090389,-4589251.68084 107346.932793,-4589304.97968 107377.117602,-4589379.63391 107418.586904,-4589412.39811 107437.138483,-4589539.92481 107435.287552,-4589624.33425 107348.737099,-4589707.62695 107263.028301,-4589747.96021 107197.72183,-4589831.41066 107173.81222,-4589958.12267 107214.421723,-4590043.3465 107255.497097,-4590097.09196 107296.079353,-4590182.81447 107336.760966,-4590257.54111 107313.665572,-4590341.79243 107289.755417,-4590468.50448 107266.266104,-4590573.73682 107242.776705,-4590678.96912 107272.218112,-4590785.58705 107333.794588,-4590871.45435 107385.589103,-4590925.78459 107426.591877,-4590990.02779 107466.806895,-4591096.23326 107464.900533,-4591181.63987 107421.008758,-4591243.75465 107398.234274,-4591317.52211 107396.309812,-4591412.42887 107394.181128,-4591497.32327 107392.732042,-4591569.75319 107394.486296,-4591578.84995 107367.554772,-4591623.3871 107339.00217,-4591761.84739 107300.604576,-4591888.26936 107318.98127,-4592009.78625 107316.553477,-4592127.66836 107294.671821,-4592235.4885 107218.236346,-4592325.83182 107168.42926,-4592400.12505 107136.652232,-4592446.39795 107064.948604,-4592532.49853 107032.192432,-4592569.21682 106988.128057,-4592652.82412 106986.175376,-4592748.22915 106983.25743,-4592875.08535 106874.378192,-4593010.1642 106819.494511,-4593104.18249 106806.867359,-4593189.00403 106826.185353,-4593284.0689 106717.994637,-4593388.18111 106653.35669,-4593450.16337 106609.115047,-4593523.25923 106585.478212,-4593649.48505 106647.052385,-4593735.35337 106666.560308,-4593799.42492 106664.679269,-4593884.33242 106568.748693,-4593924.10508 106524.756081,-4593997.21432 106513.048487,-4594060.58324 106573.557068,-4594188.89865 106624.28453,-4594285.67695 106643.601653,-4594380.74188 106620.548922,-4594454.99333 106545.512967,-4594505.90656 106469.778885,-4594578.78423 106405.63471,-4594608.78896 106299.746477,-4594606.51292 106193.463862,-4594625.21779 106087.08154,-4594654.91845 105990.407559,-4594726.65339 105914.773479,-4594788.53479 105828.147855,-4594882.32014 105823.646714,-4594923.57926 105814.830305,-4594998.10675 105920.296386,-4595021.86257 105951.221079,-4595064.55436 105948.944596,-4595170.44226 105884.4514,-4595211.42876 105857.763994,-4595223.97435 105798.990977,-4595251.77134 105693.003406,-4595260.49053 105608.781256,-4595236.89343 105473.034807,-4595149.4786 105357.466508,-4595104.66934 105251.828454,-4595102.40646 105207.486439,-4595186.49665 105163.026277,-4595291.08255 105098.138839,-4595353.04944 104992.573663,-4595340.28919 104887.081233,-4595317.03181 104761.043615,-4595271.65135 104633.545865,-4595289.69789 104568.23689,-4595373.1437 104502.92789,-4595456.58942 104437.646066,-4595539.53649 104393.158648,-4595644.62017 104370.087229,-4595728.37001 104325.599669,-4595833.45357 104260.041185,-4595916.88529 104142.868286,-4595956.49651 104026.484907,-4595954.14656 103900.026488,-4595930.24482 103804.859525,-4595928.55248 103698.651519,-4595936.75871 103623.61665,-4595987.66977 103600.195906,-4596082.40102 103547.093921,-4596102.50569 103472.77193,-4596089.94947 103389.812268,-4596024.91707 103284.321335,-4596001.65934 103199.533615,-4596020.5351 103144.694645,-4596104.55082 103131.947426,-4596209.86501 103077.55753,-4596271.9031 103003.634452,-4596270.36957 102918.715879,-4596268.73609 102834.468615,-4596245.63732 102707.194749,-4596264.19464 102621.341344,-4596325.51568 102566.924397,-4596388.05201 102491.935556,-4596428.96393 102406.154974,-4596479.7878 102404.328401,-4596481.18826 102378.362228,-4596494.27256 102367.452781,-4596497.17754 102327.05563,-4596508.97431 102286.790094,-4596513.77765 102249.316627,-4596513.23288 102198.309345,-4596522.45046 102165.948004,-4596538.186 102125.48699,-4596569.48088 102092.209493,-4596611.16858 102067.593486,-4596645.32826 102016.323042,-4596668.53257 101938.588646,-4596677.29164 101876.250016,-4596710.89281 101830.005655,-4596747.3724 101805.625691,-4596768.04375 101786.34453,-4596791.49354 101761.502045,-4596820.64033 101742.28412,-4596852.0942 101717.582076,-4596883.24879 101668.654489,-4596923.08212 101633.306305,-4596943.15483 101568.711028,-4596963.13155 101509.486645,-4596980.90116 101442.425861,-4597000.24324 101399.182481,-4597018.3849 101358.409081,-4597041.66174 101307.27929,-4597066.87357 101256.38118,-4597074.09662 101208.189122,-4597072.96669 101144.016165,-4597071.46465 101096.581575,-4597051.87466 101038.38769,-4597018.69651 100982.749817,-4596993.65849 100963.704796,-4597003.61996 100930.626708,-4597050.81842 100905.661489,-4597095.95943 100877.356441,-4597124.41692 100854.313399,-4597152.66154 100805.48609,-4597181.49911 100763.915003,-4597210.23263 100693.00661,-4597231.36459 100644.624312,-4597233.72446 100592.942637,-4597232.404 100541.433859,-4597209.59144 100486.171954,-4597200.57506 100444.859865,-4597210.82131 100422.229408,-4597236.08811 100402.871129,-4597265.53377 100369.086493,-4597298.19236 100338.542432,-4597331.02779 100319.460626,-4597359.98846 100252.259983,-4597377.32232 100195.923012,-4597401.7495 100139.708064,-4597437.68411 100097.433168,-4597511.38203 100063.651099,-4597603.54465 100040.551798,-4597687.78972 99953.6328881,-4597791.553 99868.1483869,-4597832.39023 99782.0468073,-4597893.69507 99769.6933327,-4597978.02639 99736.0971038,-4598062.19828 99681.3582644,-4598135.21543 99575.0077721,-4598164.4127 99500.6644721,-4598184.35629 99435.7783829,-4598246.31869 99397.8736477,-4598285.75229 99327.3108882,-4598291.40122 99220.0332325,-4598278.04501 99123.564738,-4598272.77928 99033.7025822,-4598311.37677 98904.365145,-4598340.31897 98831.7387982,-4598388.35766 98753.094041,-4598427.56728 98636.7994921,-4598483.22271 98556.9562497,-4598571.86956 98511.6823856,-4598608.90038 98451.4652777,-4598658.61619 98379.7860499,-4598712.2065 98281.7713175,-4598739.85777 98197.1324886,-4598737.73754 98101.9699331,-4598736.04288 98016.2643046,-4598776.36662 97931.2032204,-4598795.72441 97867.7797909,-4598794.26224 97784.676378,-4598718.22205 97764.1786925,-4598686.10155 97691.04923,-4598642.60755 97638.8671077,-4598609.25751 97575.5167985,-4598597.29891 97491.1005236,-4598595.69091 97332.2933312,-4598592.02213 97247.6279586,-4598590.40053 97185.3447193,-4598535.99829 97122.316872,-4598513.55688 97037.3566369,-4598521.91966 96951.4786875,-4598583.73464 96918.3051407,-4598646.42651 96863.4211756,-4598740.43457 96820.1463408,-4598782.07406 96724.6898391,-4598790.36364 96640.3471409,-4598778.25905 96546.0307038,-4598733.60872 96483.0032296,-4598711.16731 96419.5805662,-4598709.70517 96312.4880568,-4598770.86156 96246.8585684,-4598864.78248 96244.6787938,-4598959.66705 96305.8212941,-4599067.0089 96346.7887101,-4599131.74783 96355.4274348,-4599216.2227 96365.0057676,-4599269.74767 96300.8655415,-4599299.74726 96216.2280984,-4599297.6266 96132.7766747,-4599232.56836 96070.8896169,-4599157.18707 96030.2173775,-4599082.46403 96009.3978343,-4599060.82669 95926.0769122,-4599016.27657 95841.1632577,-4599014.64103 95756.921421,-4598991.54144 95683.0027775,-4598990.00613 95605.0959368,-4598988.25309 95587.8422088,-4598988.3112 95545.0174339,-4599007.97399 95501.3476664,-4599070.59199 95458.3224436,-4599112.24448 95372.7645552,-4599131.57431 95288.3770366,-4599129.46736 95214.2094159,-4599127.91835 95139.6465382,-4599147.34836 95097.0167216,-4599168.02168 95011.9848224,-4599186.88008 94957.9648986,-4599228.43211 94799.4103067,-4599224.776 94744.5997974,-4599308.28583 94699.8629557,-4599413.3461 94676.2217318,-4599539.55855 94611.3101676,-4599602.01617 94514.7149921,-4599663.24385 94428.9112279,-4599714.56038 94300.4563947,-4599764.04813 94172.3726758,-4599825.05625 94086.6693821,-4599865.37777 94032.5034227,-4599927.92159 93925.8077673,-4599968.09679 93871.2735705,-4600051.12075 93826.6094604,-4600145.68379 93824.4286108,-4600240.56646 93843.3617789,-4600347.10226 93841.5031697,-4600431.50236 93839.1945,-4600537.8783 93784.7330833,-4600610.40577 93657.2185407,-4600628.94305 93594.1929218,-4600606.50109 93532.234945,-4600541.61675 93469.3097497,-4600508.18016 93353.2130255,-4600505.34062 93266.6916939,-4600588.11726 93201.3846935,-4600671.55224 93157.3192138,-4600755.14708 93165.9019968,-4600840.61692 93186.103053,-4600882.72064 93279.2751162,-4600980.31006 93277.3888191,-4601065.2083 93233.073769,-4601148.78945 93178.8342555,-4601221.8284 93039.1384899,-4601303.20045 92953.9067245,-4601344.04624 92889.8409277,-4601363.54766 92805.1786376,-4601361.92398 92741.7578875,-4601360.46037 92656.4779577,-4601379.30315 92644.8407016,-4601432.16811 92601.0973529,-4601505.27981 92619.4573756,-4601622.28366 92658.8117458,-4601771.43452 92656.6295655,-4601866.31631 92612.2136333,-4601960.89136 92589.3616428,-4602045.14406 92502.9129931,-4602117.42298 92458.8739246,-4602200.51832 92371.9288473,-4602304.7702 92274.9841035,-4602376.97548 92198.8576409,-4602470.81795 92165.287251,-4602554.4848 92153.0043042,-4602628.31436 92152.6628261,-4602648.29584 92151.4666345,-4602702.23086 92139.1563638,-4602776.55892 92114.9400054,-4602913.23699 92059.5579463,-4603039.21245 91993.9543471,-4603132.62921 91928.9960063,-4603205.08101 91853.4391496,-4603256.45364 91821.7017722,-4603256.21983 91748.2087632,-4603233.20482 91663.9432816,-4603210.60134 91579.6589317,-4603197.49688 91535.3156593,-4603281.5746 91565.0915582,-4603377.20151 91594.9135732,-4603462.83096 91614.2667495,-4603547.88853 91612.6550593,-4603632.30074 91578.3841016,-4603737.92872 91565.5573897,-4603853.72829 91500.3223072,-4603926.66434 91414.545856,-4603977.47796 91329.1656323,-4604007.31313 91265.4963623,-4604005.83445 91182.1260395,-4603962.27936 91087.4930317,-4603928.10897 91013.4013839,-4603916.0609 90960.0078653,-4603946.14361 90958.4421024,-4604020.55792 91010.3243268,-4604063.89256 91061.3596575,-4604150.18092 91059.8210068,-4604224.09678 90994.216933,-4604317.51213 90929.9773493,-4604358.50202 90843.8510896,-4604420.29592 90759.1901693,-4604418.66999 90675.3028131,-4604384.58645 90527.6921528,-4604350.02109 90475.3404962,-4604338.16064 90369.216741,-4604335.862 90282.9438676,-4604418.64741 90238.9501324,-4604491.74299 90100.150028,-4604552.15815 89993.8523163,-4604571.34958 89920.5077135,-4604527.34227 89847.3661183,-4604493.34599 89762.7794294,-4604481.22411 89698.291172,-4604522.19983 89580.7053713,-4604583.27382 89485.3275025,-4604581.06208 89378.6340185,-4604621.23138 89292.7579388,-4604683.03783 89280.1510328,-4604767.34763 89277.4691742,-4604894.19914 89338.9525894,-4604990.55757 89357.8805624,-4605097.0904 89366.5878453,-4605171.06518 89354.4518433,-4605255.90076 89289.9907439,-4605296.37741 89131.1669472,-4605293.19777 89076.7044653,-4605365.72021 89075.2385989,-4605429.13906 89062.1338257,-4605545.42096 89037.0614476,-4605565.05038 88954.6200905,-4605628.04369 88900.1302208,-4605701.06437 88845.317437,-4605784.56716 88792.7619086,-4605822.19408 88759.4683021,-4605845.87399 88652.2027974,-4605896.51041 88608.1349885,-4605980.1002 88535.7484448,-4606014.64312 88501.3680514,-4606030.76368 88414.9195982,-4606103.03714 88243.6646282,-4606194.67468 88137.792059,-4606192.3879 88042.7382314,-4606179.6927 87958.7523665,-4606156.60273 87852.8800567,-4606154.31597 87745.0439658,-4606247.41931 87689.8346165,-4606351.89875 87667.4040551,-4606414.67098 87645.019922,-4606467.44599 87569.7133689,-4606518.82819 87473.8394256,-4606548.58667 87388.9588575,-4606546.44696 87283.6865047,-4606533.19292 87198.6041467,-4606553.0415 87133.3967695,-4606625.4748 87068.0883976,-4606708.90215 87003.849938,-4606749.88928 86897.9047291,-4606758.09755 86833.7400804,-4606788.58897 86767.8129948,-4606892.48148 86765.9222294,-4606977.37521 86721.9279963,-4607050.46765 86677.5369385,-4607144.53762 86569.6272242,-4607248.13468 86534.8834673,-4607385.23034 86533.0195864,-4607469.62542 86531.4514486,-4607544.03703 86524.4963955,-4607570.65583 86496.7345986,-4607680.63409 86431.1026738,-4607774.54238 86386.0376763,-4607890.07427 86329.2457186,-4607959.46661 86233.7736526,-4608004.7449 86170.2437424,-4608032.77026 86104.6069244,-4608058.18049 86069.8145225,-4608109.27616 86043.6678677,-4608166.84428 85977.8686296,-4608291.2416 85903.5900473,-4608314.67919 85851.6732508,-4608322.34011 85799.5151137,-4608338.98746 85796.4115393,-4608368.31656 85799.9715452,-4608417.5092 85809.9885701,-4608472.05471 85822.6039115,-4608616.23867 85764.9122444,-4608702.08047 85668.2448678,-4608773.79145 85559.7499005,-4608810.35702 85476.5998564,-4608822.30955 85404.4711112,-4608833.86476 85343.0677239,-4608855.00603 85304.2755051,-4608892.38303 85276.0022654,-4608956.83402 85238.4954973,-4609071.2778 85215.0396643,-4609166.49079 85202.6049827,-4609261.30649 85190.2442053,-4609345.6267 85125.359231,-4609407.57539 85040.0285251,-4609427.40779 84934.4079466,-4609425.13154 84838.239216,-4609464.87019 84812.8398225,-4609522.47832 84782.6035295,-4609590.82137 84779.9901834,-4609707.17283 84788.2694627,-4609802.62106 84765.4128608,-4609886.8669 84667.7483401,-4609990.52018 84581.8723979,-4610052.32014 84421.8626037,-4610112.06528 84367.0483617,-4610195.56287 84363.7727876,-4610250.88088 84375.5491621,-4610291.52294 84362.206647,-4610329.79118 84342.6215068,-4610354.21866 84367.6153622,-4610404.58322 84386.9779958,-4610443.64035 84406.6752149,-4610517.71404 84415.4955692,-4610566.69404 84417.5828503,-4610578.80761 84412.7567728,-4610667.03919 84399.0711972,-4610725.28765 84364.3986001,-4610787.88784 84326.5173331,-4610822.31391 84305.2108247,-4610841.64741 84259.0074373,-4610859.11907 84203.9016646,-4610861.10452 84117.5896674,-4610898.88102 84032.6363954,-4610971.22995 83947.1578348,-4611012.05172 83818.8563572,-4611072.52973 83604.8273525,-4611173.81548 83592.2160021,-4611258.12079 83527.4785381,-4611331.07504 83515.6153606,-4611383.42304 83514.8398058,-4611415.87876 83513.7211734,-4611468.31458 83510.782426,-4611595.14659 83509.8000648,-4611645.09001 83507.74206,-4611732.97243 83463.1996477,-4611848.0289 83355.7600612,-4611920.14647 83270.0596164,-4611960.45518 83206.2187688,-4611980.46104 83154.4702079,-4611989.62914 83056.7791364,-4612029.78166 82991.7921793,-4612102.72151 82947.7215458,-4612186.30509 82882.114809,-4612279.70963 82774.6754252,-4612351.8264 82709.6883916,-4612424.7659 82623.5903924,-4612486.05089 82537.7886696,-4612537.35263 82451.5891523,-4612609.63117 82385.9079915,-4612713.53032 82339.7668869,-4612871.4951 82320.5265337,-4612944.43745 82297.7480786,-4612958.69001 82261.650944,-4612974.21363 82239.9352424,-4613001.0235 82168.7925042,-4613031.1283 82105.430697,-4613060.6589 82069.5459304,-4613131.69035 82079.2939025,-4613232.21706 82044.6316736,-4613308.31501 81925.8936529,-4613413.30971 81839.3232281,-4613506.06552 81731.9111644,-4613577.68201 81667.3218486,-4613629.64343 81602.5105838,-4613681.09268 81496.643657,-4613678.7987 81411.1657561,-4613719.6175 81367.5197351,-4613781.7242 81323.8464122,-4613844.32933 81238.1466092,-4613884.63583 81170.7614799,-4613836.95119 81142.8484627,-4613803.42594 81112.1901469,-4613765.2508 81048.6328445,-4613725.27521 80977.3678782,-4613707.37613 80883.9346864,-4613738.26002 80810.9189033,-4613779.76052 80705.7371189,-4613801.50197 80604.6684337,-4613807.46974 80511.6237523,-4613771.87999 80415.9702616,-4613729.14807 80288.3925734,-4613758.16306 80170.9119927,-4613808.22887 80096.7534777,-4613806.67005 79948.5841184,-4613814.55955 79873.3803382,-4613854.93992 79778.2592488,-4613852.73373 79714.52157,-4613861.74432 79566.3526917,-4613869.63367 79502.9387929,-4613868.16286 79386.3295748,-4613865.78049 79259.5020126,-4613862.83886 79174.2017833,-4613882.16818 79087.6055319,-4613975.41972 79001.8328173,-4614026.22014 78864.2129082,-4614065.1836 78778.8597825,-4614053.5127 78695.779894,-4613977.47238 78600.2343628,-4613996.74067 78462.2653932,-4614014.6869 78378.7876016,-4613959.62295 78251.6846419,-4613957.16595 78154.9922272,-4614029.36605 78079.2895708,-4614101.71496 78038.4257527,-4614144.97377 77986.6209677,-4614150.63745 77916.3512163,-4614128.29322 77880.6954163,-4614140.34022 77848.7020849,-4614195.08331 77848.5936442,-4614265.57015 77862.6019335,-4614329.33045 77795.7193207,-4614487.15303 77709.9472579,-4614537.95241 77666.7002418,-4614579.08068 77581.946691,-4614588.44001 77465.7176942,-4614574.57868 77371.793329,-4614509.44384 77266.5777372,-4614486.1865 77160.7147723,-4614483.89148 77075.6924389,-4614502.73503 76989.5698515,-4614564.51361 76935.5045578,-4614616.04819 76924.2185394,-4614630.42876 76859.3766544,-4614709.87022 76794.4655399,-4614772.30969 76667.2424856,-4614790.34269 76611.3069163,-4614789.28053 76582.342242,-4614788.69488 76477.4511936,-4614754.95628 76414.5391073,-4614721.51589 76372.6893455,-4614709.72613 76320.9667812,-4614645.40193 76248.531311,-4614580.44393 76206.9324578,-4614536.67169 76123.3275524,-4614493.09985 76017.4656539,-4614490.80474 75922.0985259,-4614488.58416 75784.4563739,-4614496.04805 75657.3090336,-4614503.58644 75594.2682744,-4614481.63792 75510.4691711,-4614437.05579 75447.3812532,-4614425.10351 75340.7979869,-4614454.265 75276.1370378,-4614516.71733 75190.0429986,-4614577.99634 75084.1074324,-4614586.19569 75059.1306985,-4614585.82834 75009.6756905,-4614585.12092 74977.7207727,-4614584.37159 74893.9205145,-4614571.78539 74852.2460043,-4614570.504 74809.0488984,-4614569.6392 74766.4231113,-4614590.3029 74670.2604256,-4614630.03309 74563.4741346,-4614681.18009 74525.203321,-4614677.08536 74436.726446,-4614667.74263 74288.4168665,-4614664.62332 74202.7217676,-4614704.92624 74149.3051682,-4614735.49763 74116.4519655,-4614787.69192 74096.4634794,-4614792.09696 74031.4045093,-4614807.03296 73948.3288473,-4614730.99489 73864.4019798,-4614697.90445 73756.9961015,-4614769.51418 73692.1138513,-4614831.4533 73653.6632651,-4614844.34631 73606.9921242,-4614861.28867 73501.9565726,-4614816.5441 73418.3811403,-4614772.47446 73354.6941411,-4614771.48769 73238.367682,-4614768.61913 73154.8942897,-4614713.55676 73135.053203,-4614660.47806 73115.0647179,-4614596.39288 73116.6107193,-4614522.48814 73118.480428,-4614438.10263 73120.4046413,-4614352.72025 73089.8197733,-4614299.55348 73058.9384364,-4614256.36906 73038.7734284,-4614213.77126 72986.5050343,-4614191.413 72934.0619594,-4614158.54674 72849.7647901,-4614145.93366 72732.9860869,-4614165.03768 72699.8097773,-4614227.71214 72676.3039702,-4614332.90972 72655.0716666,-4614373.74126 72632.2076314,-4614416.98309 72567.3261838,-4614478.92172 72502.4447328,-4614540.86027 72439.0347641,-4614539.38881 72366.3527259,-4614474.41924 72271.4142852,-4614450.72499 72230.9997215,-4614499.50492 72312.2277936,-4614586.43904 72421.3353286,-4614702.89529 73178.4649372,-4615511.23375 71440.6246695,-4617151.81593 69553.3159277,-4618933.63353 68027.8841726,-4620374.28714 60427.9706125,-4627548.95868 47104.6549987,-4640125.65654 44099.1998305,-4643050.70613 43770.8868754,-4642690.75994 43769.4468006,-4642689.68104 42325.3451777,-4643999.67741 33705.6323883,-4651795.88323 33643.9627238,-4651736.00747 33516.6061423,-4651607.5384 33446.9312551,-4651534.22721 33394.201052,-4651470.84646 33345.4569522,-4651407.68557 33275.7820863,-4651334.37464 33177.3909996,-4651233.49204 33042.0311899,-4651096.08672 32976.3718242,-4651026.99582 32915.883619,-4650945.69576 32866.4756324,-4650817.5281 32846.0603663,-4650716.44758 32832.4416137,-4650650.72604 32819.5351569,-4650567.5517 32831.3588345,-4650511.72907 32829.0190536,-4650477.11565 32832.5901165,-4650412.34188 32840.1765913,-4650351.78768 32845.5929747,-4650330.596 32870.8382431,-4650267.01713 32900.3186818,-4650203.67171 32928.1509896,-4650170.22187 32943.2482716,-4650132.07175 32967.2848359,-4650090.41624 32982.8765068,-4650043.29742 32990.2155459,-4649987.22748 33011.225391,-4649923.41499 33046.4789673,-4649832.4003 33062.2902475,-4649781.29534 33081.8717291,-4649743.39234 33118.8903841,-4649701.95255 33142.7051177,-4649659.78489 33163.3577102,-4649602.44966 33186.5681722,-4649571.24371 33201.4180495,-4649537.57779 33220.3128284,-4649512.13123 33259.3363262,-4649434.31824 33301.166857,-4649382.64823 33351.6345578,-4649332.95358 33394.0398357,-4649266.3219 33452.0677361,-4649161.06898 33476.378572,-4649114.43045 33513.6167445,-4649069.0042 33532.5369269,-4649038.56112 33551.1550177,-4649013.59893 33556.5711208,-4648992.40707 33571.7523407,-4648957.25991 33611.8348211,-4648896.49727 33615.1576549,-4648836.20749 33616.7345508,-4648771.3235 33621.0554694,-4648652.11517 33587.0399132,-4648598.26382 33533.9785542,-4648540.86399 33468.0427805,-4648476.75739 33417.8986088,-4648443.50765 33360.5356587,-4648423.35401 33297.9035587,-4648380.91994 33235.1596538,-4648335.98089 33185.1254121,-4648300.73824 33133.5240358,-4648289.39836 33084.7984085,-4648271.22015 33043.7034427,-4648232.47203 32989.8279159,-4648149.03964 32977.0292602,-4648063.87282 32957.2884079,-4647991.31755 32896.5784601,-4647914.00581 32835.2830253,-4647765.69439 32753.3655602,-4647678.71817 32708.9943079,-4647617.79999 32696.5817015,-4647530.15599 32679.4376154,-4647446.74924 32627.6757596,-4647324.95187 32608.9868311,-4647192.48273 32594.1944732,-4647107.20667 32566.765775,-4647051.72032 32499.6404982,-4647050.0209 32455.9738423,-4647017.12906 32413.9543658,-4646954.34191 32410.4783138,-4646858.69468 32411.3492133,-4646765.78582 32370.8483037,-4646634.61433 32366.5396188,-4646594.89531 32367.0151022,-4646545.44452 32381.9145833,-4646501.78608 32382.7489486,-4646450.356 32376.2021979,-4646419.50951 32341.2528272,-4646382.60036 32316.0805645,-4646358.72405 32290.1293125,-4646326.3088 32274.2296611,-4646301.94382 32229.0344677,-4646255.97427 32222.3483478,-4646223.12111 32224.7152269,-4646193.76528 32232.9746269,-4646157.23758 32258.8438731,-4646132.17509 32281.6328835,-4646090.45061 32292.1048504,-4646050.04664 32305.6951881,-4645989.32403 32287.8468555,-4645941.36275 32253.9235786,-4645849.53607 32308.885883,-4645709.13084 32348.9594819,-4645575.90162 32344.1310394,-4645550.14757 32329.9222491,-4645472.40091 32377.7776082,-4645347.59653 32411.8063704,-4645251.5167 32490.0126155,-4645097.39836 32550.3766472,-4644967.78522 32626.9230779,-4644816.57371 32695.583849,-4644672.42422 32730.5680911,-4644549.90896 32761.6585455,-4644389.1969 32760.7745405,-4644278.19996 32756.4387796,-4644184.50479 32754.1321244,-4644108.41322 32754.1268099,-4644040.44467 32764.0909381,-4643982.02091 32789.876319,-4643899.48005 32827.3289397,-4643845.56857 32884.4648518,-4643797.23883 32933.449797,-4643778.946 33010.828792,-4643748.72294 33130.4247131,-4643727.82123 33227.2216604,-4643726.15455 33267.7451683,-4643725.38734 33334.8574147,-4643700.09623 33425.7565054,-4643637.63261 33473.6407303,-4643575.79899 33487.241509,-4643483.09096 33485.3961741,-4643389.53246 33457.759925,-4643310.54655 33424.2698376,-4643260.72476 33381.0844588,-4643196.37566 33323.6808722,-4643095.26047 33305.1955782,-4643049.76334 33203.2118878,-4642918.70667 33140.5832077,-4642830.79789 33062.0718962,-4642754.50898 32977.6710287,-4642635.41581 32899.3179566,-4642488.16916 32832.9571018,-4642354.57685 32723.6025269,-4642153.14878 32669.0485875,-4642050.19278 32640.0426785,-4641946.14445 32609.1739571,-4641826.00122 32600.2305594,-4641711.56286 32616.7275969,-4641548.04881 32630.7035532,-4641434.87208 32647.9088093,-4641303.88161 32640.5649478,-4641233.0108 32611.7227945,-4641125.97335 32568.2029271,-4641058.6089 32534.7099018,-4641004.29042 32479.2570412,-4640931.2717 32407.8670671,-4640870.86947 32314.2705169,-4640796.25136 32245.0107245,-4640733.46776 32181.2014069,-4640612.51227 32141.6236956,-4640514.38019 32118.5517123,-4640379.67461 32103.2024464,-4640245.39412 32077.2471022,-4640049.55943 32042.7724385,-4639813.27544 31996.9767703,-4639682.81727 32000.1024315,-4639521.56736 32037.154087,-4639343.19341 32079.8722141,-4639202.61303 32127.0411695,-4639103.75739 32177.4044166,-4638974.09239 32212.5184542,-4638849.08567 32236.2717275,-4638753.43937 32284.9035345,-4638596.19217 32308.3300627,-4638511.02274 32370.9618256,-4638394.52627 32424.6968318,-4638308.02553 32519.6672436,-4638207.80083 32597.8037359,-4638150.129 32771.7446741,-4638049.75025 33026.8160315,-4638000.81151 33354.324013,-4637997.83705 33526.3618161,-4638009.29951 33693.305253,-4638017.98289 33802.859709,-4638011.51506 33867.0928136,-4637988.56076 33921.520303,-4637953.07267 33956.4535137,-4637904.01809 33980.7887095,-4637861.37725 33969.802345,-4637815.794 33900.7317969,-4637699.54751 33854.5559545,-4637639.53465 33820.923719,-4637587.70825 33726.3097645,-4637531.52821 33629.0451302,-4637487.1968 33390.5625754,-4637352.63733 33315.9937503,-4637304.55686 33189.0459708,-4637241.10154 33126.6695364,-4637216.68083 33024.0118269,-4637179.54968 32940.0860379,-4637178.93183 32705.4165802,-4637079.56658 32623.1950891,-4637107.02898 32453.8195397,-4636951.78403 32397.3278445,-4636906.69743 32356.5708451,-4636834.48986 32316.9474645,-4636809.8216 32234.4569539,-4636701.33548 32078.364898,-4636540.82524 31939.8958185,-4636364.293 31838.9852399,-4636281.78142 31742.5311461,-4636150.03947 31668.3560289,-4636013.02614 31616.836293,-4635900.24745 31584.7008891,-4635803.02764 31572.0263112,-4635660.9008 31594.0713073,-4635487.19974 31611.9372717,-4635412.21979 31632.5957596,-4635331.89609 31685.0340574,-4635209.84128 31712.7191247,-4635074.43134 31735.1940415,-4635024.6923 31757.7433755,-4634959.96476 31826.835813,-4634871.30923 31850.1220722,-4634788.63103 31857.2855837,-4634731.05356 31843.037425,-4634694.7878 31801.1576202,-4634597.53243 31783.4608915,-4634533.09102 31770.0070268,-4634482.37618 31754.9358157,-4634411.08263 31754.9241081,-4634343.11574 31756.3353646,-4634294.71741 31758.0686869,-4634181.36907 31795.3690703,-4634066.47765 31842.4125152,-4633951.622 31882.7884603,-4633889.87321 31941.1781551,-4633818.61977 31944.0080313,-4633735.31672 31912.7917498,-4633698.6182 31878.5833508,-4633657.25747 31840.1266514,-4633593.17444 31767.9544694,-4633478.76242 31748.5449826,-4633468.2003 31741.8725823,-4633371.38165 31664.9616169,-4633247.71397 31630.3203075,-4633223.32121 31596.4705099,-4633179.98149 31588.5514907,-4633128.57176 31568.558954,-4633114.97919 31525.9057886,-4633022.67999 31479.1791259,-4632922.66077 31468.5690772,-4632861.10827 31436.8143169,-4632756.91455 31403.5067111,-4632694.61444 31341.0330749,-4632599.22736 31268.1735733,-4632447.29791 31192.2997866,-4632300.20053 31162.7647069,-4632205.62454 31122.3912659,-4632130.94262 31063.0470003,-4631946.77338 31021.9756294,-4631816.58153 31000.787174,-4631701.97498 30954.5469405,-4631583.99299 30925.5121985,-4631539.41952 30873.3394461,-4631452.09592 30809.7700906,-4631376.63982 30743.9860285,-4631300.56239 30672.7049159,-4631242.67354 30609.9705709,-4631220.23638 30527.3067174,-4631196.70423 30452.8747867,-4631146.13857 30371.6783321,-4631077.71035 30315.6730227,-4631014.66424 30272.969496,-4630932.35939 30242.6479954,-4630865.72712 30223.6655805,-4630829.2026 30181.4084095,-4630797.89598 30142.0965247,-4630694.78859 30108.4597993,-4630638.46891 29959.7244506,-4630475.87801 29940.1179574,-4630459.8087 29866.1241493,-4630401.27211 29821.7618347,-4630367.35144 29759.1921503,-4630341.92556 29611.5748542,-4630286.34086 29542.6599504,-4630294.5486 29483.9917885,-4630311.81477 29409.8482958,-4630324.23286 29361.4130215,-4630328.06853 29300.7107938,-4630323.2345 29228.4477476,-4630287.78123 29183.1304897,-4630275.79666 29122.9757987,-4630260.99804 29042.366306,-4630245.57544 28969.4465303,-4630222.07982 28900.46862,-4630172.31489 28865.9288979,-4630132.43765 28845.8211559,-4630066.36767 28813.4956147,-4629981.63614 28774.0194362,-4629881.51988 28738.5887713,-4629744.14601 28734.5414026,-4629644.97664 28718.0571682,-4629531.13164 28704.7783134,-4629408.96732 28674.192514,-4629274.35859 28646.2373469,-4629141.89339 28617.5978908,-4629021.884 28589.2564876,-4628891.89645 28559.4976744,-4628796.8123 28532.7857212,-4628705.39369 28512.3676447,-4628631.31163 28495.2643953,-4628546.91733 28477.4496546,-4628475.47699 28482.6901372,-4628402.8042 28497.3507328,-4628345.14092 28543.0382122,-4628286.68291 28626.8257964,-4628207.82933 28675.6651977,-4628187.52383 28715.029678,-4628153.20524 28764.7662743,-4628107.46266 28815.1566468,-4628045.26481 28852.8479044,-4627991.36469 28893.9274045,-4627912.16429 28926.8983839,-4627835.01722 28949.5548222,-4627772.79541 28988.3042833,-4627685.97094 29022.9239311,-4627633.40116 29055.3346688,-4627589.20549 29082.997729,-4627522.26116 29118.8210322,-4627447.76914 29131.5860041,-4627370.01207 29137.339613,-4627278.87696 29173.4607441,-4627194.40656 29207.7140013,-4627089.34451 29224.9609138,-4626966.35779 29233.2658623,-4626883.35844 29274.4987062,-4626573.78917 29286.9482451,-4626438.04571 29287.1123579,-4626435.05632 29301.457031,-4626319.40619 29325.7173962,-4626214.29503 29366.7711632,-4626140.08966 29397.4108037,-4626055.31791 29444.3951194,-4625950.45456 29477.6987789,-4625876.32333 29490.1890336,-4625803.54823 29510.0925819,-4625682.20624 29567.0655243,-4625572.8936 29603.3219951,-4625485.93122 29608.3628394,-4625407.74982 29598.2195348,-4625346.72539 29568.4053876,-4625257.13601 29563.7548774,-4625173.42541 29554.4804794,-4625087.46213 29570.0325449,-4624999.86304 29643.3219165,-4624870.95653 29769.8979293,-4624668.01537 29808.7906929,-4624510.23516 29831.3144597,-4624377.54272 29967.5557991,-4623980.23496 30005.5721049,-4623756.44143 30033.1168473,-4623641.5149 30082.5017308,-4623529.28586 30106.3491409,-4623431.64704 30156.0711111,-4623326.93236 30192.1616845,-4623242.95826 30227.7601542,-4623167.95233 30286.8514054,-4623083.74084 30335.558575,-4622992.96274 30371.7004628,-4622903.49414 30397.8806871,-4622817.9766 30448.1410055,-4622612.3445 30417.3558423,-4622563.18086 30375.6704165,-4622521.41504 30311.4004412,-4622481.40872 30235.2329575,-4622407.76735 30178.8980534,-4622355.20338 30134.609032,-4622310.79625 30046.5838969,-4622221.01297 29965.3552877,-4622153.09115 29899.8631155,-4622067.04285 29838.8707521,-4622003.7294 29696.4249187,-4621867.48497 29617.3932572,-4621814.17634 29541.0682647,-4621752.52085 29383.3992591,-4621615.94189 29283.7835529,-4621496.04019 29148.7147874,-4621380.19091 29052.7792247,-4621297.97108 28945.3285342,-4621175.14174 28815.5255104,-4620990.61996 28770.97016,-4620882.73433 28742.560258,-4620826.70621 28718.1105644,-4620734.91514 28688.7299812,-4620637.35673 28680.7986819,-4620576.95484 28654.3606449,-4620530.52978 28621.4087108,-4620470.75469 28580.3935441,-4620398.5441 28541.72162,-4620351.94798 28463.4729331,-4620270.69957 28391.3444373,-4620232.76305 28313.8480259,-4620197.03083 28233.8123505,-4620171.15385 28136.4353181,-4620124.3371 28064.2556094,-4620091.8949 28005.47805,-4620029.20499 27974.1702723,-4619985.01196 27941.5396748,-4619910.26349 27891.3152605,-4619810.06407 27883.0441961,-4619701.17134 27865.502624,-4619556.29024 27863.6333368,-4619535.69925 27794.7571775,-4619401.99572 27793.297621,-4619373.93142 27789.046462,-4619351.21098 27756.8219789,-4619264.49194 27686.0794642,-4619114.69547 27621.8638804,-4618996.23959 27571.5426326,-4618916.02445 27514.4549588,-4618817.94833 27460.1795316,-4618705.035 27422.2043845,-4618627.49586 27367.4710734,-4618532.04773 27285.4044476,-4618415.61237 27214.7412519,-4618337.28099 27120.3829876,-4618217.17387 27078.5849076,-4618172.90654 26989.8029897,-4618033.11687 26946.5449815,-4617960.78568 26871.6336153,-4617864.23235 26798.0183311,-4617798.73242 26703.547351,-4617676.12161 26644.905852,-4617610.94297 26557.1500807,-4617511.68734 26510.4071469,-4617480.14201 26425.3302719,-4617373.03809 26381.8603247,-4617313.68848 26336.8450058,-4617223.27219 26312.3656019,-4617131.98269 26283.5799316,-4617018.96972 26261.2091532,-4616934.79185 26234.8597399,-4616822.91196 26248.4626205,-4616729.71212 26259.7553596,-4616619.39555 26283.0014207,-4616541.71544 26304.7871085,-4616435.97154 26330.4081167,-4616351.42559 26363.9424767,-4616263.81528 26395.2587128,-4616171.08628 26409.2671001,-4616065.91548 26416.5596095,-4616010.34762 26423.6031061,-4615881.80851 26426.6914282,-4615793.52916 26431.0354305,-4615682.33198 26426.2408918,-4615601.11635 26416.5733458,-4615517.6349 26409.4002259,-4615438.78753 26383.8034397,-4615372.42288 26380.2881823,-4615263.29374 26369.1805173,-4615215.21282 26257.7739502,-4614991.2362 26249.8942126,-4614929.84012 26219.7244507,-4614855.7296 26208.5689363,-4614817.64036 26191.6124492,-4614794.22455 26189.5819414,-4614781.12091 26085.5471841,-4614714.45711 26018.5408225,-4614678.80498 25952.9030405,-4614659.21847 25908.3539141,-4614637.78906 25799.2492748,-4614636.30924 25751.0320704,-4614631.66889 25675.4952394,-4614624.03275 25586.7559229,-4614615.67333 25511.1338761,-4614605.03431 25432.7444474,-4614594.74339 25362.3775357,-4614579.39524 25274.2731769,-4614568.57212 25228.4107976,-4614566.55931 25132.9630012,-4614543.84075 25060.1802255,-4614517.86657 24974.8639307,-4614497.20221 24894.1476585,-4614483.7857 24821.8324999,-4614453.83961 24732.0425296,-4614409.94405 24636.8611935,-4614373.2487 24569.4156043,-4614341.07102 24502.5466659,-4614302.92859 24442.4139197,-4614278.64708 24375.2721294,-4614245.48676 24337.8622603,-4614221.45069 24061.9474687,-4613999.46147 23991.9804104,-4613963.1485 23892.0360033,-4613922.19529 23847.1910016,-4613910.74424 23750.7074294,-4613906.95811 23697.6218789,-4613904.54986 23644.2326762,-4613903.12436 23520.6212824,-4613892.85526 23487.3000477,-4613894.52783 23407.6945868,-4613920.14874 23240.6346461,-4613913.99553 23000.6072066,-4613962.80875 22933.893652,-4613981.14059 22869.8621517,-4613996.12149 22792.6662408,-4614023.37315 22705.4519055,-4614051.07533 22623.6835336,-4614070.58107 22536.6603688,-4614094.79578 22439.6426458,-4614114.46542 22335.0394848,-4614131.22103 22244.2701476,-4614178.21598 22141.093729,-4614214.5374 22040.9442224,-4614264.01641 21927.6984453,-4614306.28191 21752.3528059,-4614319.16157 21657.8778521,-4614333.47351 21558.5064321,-4614350.51525 21525.1892902,-4614356.68492 21437.5692921,-4614323.4027 21347.5948927,-4614287.49314 21277.554974,-4614261.67 21184.7553438,-4614222.60767 21107.4610759,-4614192.38974 21025.9660936,-4614133.95957 20942.2392806,-4614052.42193 20898.4019866,-4614018.04087 20826.1672086,-4613909.15089 20763.5482438,-4613816.27791 20724.2481102,-4613708.19303 20679.7512089,-4613608.31811 20649.9303499,-4613518.74111 20629.4797328,-4613449.66459 20599.8602606,-4613370.0923 20548.4473136,-4613309.81313 20502.5759544,-4613257.83241 20469.1213691,-4613193.54024 20435.6191951,-4613139.23906 20413.9802102,-4613037.11901 20408.9985982,-4612895.43752 20399.031434,-4612748.98592 20452.7136025,-4612667.48063 20489.3291009,-4612633.00957 20570.3400393,-4612567.99121 20676.0777795,-4612448.36299 20734.1520506,-4612391.5821 20823.6891685,-4612294.0515 20855.841174,-4612249.84183 20878.9701452,-4612169.6608 20909.5006499,-4612104.87543 20908.335865,-4612066.83604 20907.2185105,-4612018.80566 20900.0398525,-4611935.46584 20900.7455951,-4611918.01573 20829.6745383,-4611778.71096 20793.8442411,-4611721.28463 20759.6936043,-4611687.93487 20674.4791195,-4611651.78897 20624.4317918,-4611639.5546 20556.2862161,-4611629.32728 20453.0080767,-4611603.68491 20390.6901026,-4611578.28676 20316.6434143,-4611525.26392 20227.3405026,-4611463.41097 20140.4266023,-4611412.68179 20065.9981395,-4611366.63373 19979.6808737,-4611300.44748 19901.5692479,-4611216.7224 19845.8556115,-4611143.71761 19744.2899661,-4611009.24102 19679.205576,-4610915.73653 19621.1610234,-4610835.1094 19560.7346577,-4610752.35327 19515.5572366,-4610669.43278 19426.7730795,-4610529.66089 19372.446592,-4610426.75261 19280.8986412,-4610291.82657 19260.2352635,-4610235.73171 19228.128329,-4610128.54382 19197.7358713,-4610053.92835 19181.3251022,-4610020.5515 19150.4017461,-4609973.88849 19093.2966862,-4609857.83739 19060.3150843,-4609798.57011 19032.226088,-4609732.07567 19001.6970619,-4609659.95137 18970.6608663,-4609610.78406 18948.3133916,-4609526.11634 18937.4023515,-4609483.54705 18860.8067411,-4609426.88938 18798.9655028,-4609374.53707 18764.2113115,-4609347.65144 18695.3448126,-4609300.41101 18599.4391377,-4609286.16757 18501.8806402,-4609247.35009 18414.8582844,-4609198.61642 18294.4695496,-4609161.54747 18181.2064075,-4609140.35815 18059.9144587,-4609115.23178 17922.6834252,-4609125.70835 17804.0845576,-4609110.72265 17683.2639818,-4609086.12182 17507.7085276,-4609034.54149 17364.9505605,-4608986.25541 17239.3323511,-4608948.90072 17160.8130432,-4608941.1055 17113.3672124,-4608927.01651 17025.691629,-4608890.23969 16925.7292942,-4608854.28942 16802.7143402,-4608751.12291 16660.8224121,-4608677.90212 16547.9118796,-4608645.74038 16477.4381157,-4608627.89299 16447.1593039,-4608624.23719 16343.2916628,-4608550.09995 16282.9448402,-4608529.80897 16187.4184601,-4608435.64269 16044.0179445,-4608344.35271 15907.272073,-4608268.4167 15822.2827547,-4608232.78713 15710.2616227,-4608170.69576 15606.1256024,-4608106.03815 15497.1692357,-4608102.07401 15402.6781181,-4608121.38566 15272.9741686,-4608126.77865 15146.5554887,-4608122.35845 15069.3402529,-4608150.11011 15033.2389146,-4608166.12167 14934.9562742,-4608218.20224 14890.8064348,-4608239.76902 14690.1323066,-4608327.71621 14618.1715111,-4608350.75867 14506.4538723,-4608420.09067 14418.2473689,-4608475.22034 14329.8190959,-4608529.83812 14255.4569324,-4608560.24353 14164.3780992,-4608622.21069 14053.0697206,-4608684.06978 13990.7524501,-4608722.62884 13914.8672711,-4608785.42728 13848.0320782,-4608815.24503 13780.297136,-4608861.50162 13742.4106303,-4608859.92754 13668.4194789,-4608869.86754 13588.6908059,-4608902.47688 13511.4529166,-4608935.2225 13435.1075305,-4608942.53534 13368.8850475,-4608942.90767 13305.7060165,-4608942.44732 13267.5433572,-4608941.35771 13161.3293922,-4608937.54249 13079.6174315,-4608947.0597 12950.7344615,-4608937.5069 12890.9970819,-4608915.25092 12827.7255481,-4608902.79422 12745.420792,-4608863.81434 12680.4257695,-4608841.77029 12617.3179672,-4608826.32481 12569.7852508,-4608804.73698 12493.2019581,-4608757.07702 12436.7241626,-4608693.53006 12398.4631338,-4608639.47402 12336.8513899,-4608592.13408 12281.1915303,-4608513.64313 12231.7407805,-4608481.45826 12162.7041291,-4608423.71948 12090.0155388,-4608400.75511 12029.6815946,-4608325.50606 11907.4795366,-4608193.91025 11870.712889,-4608139.9365 11830.5100808,-4608080.2788 11798.9304553,-4608041.07827 11713.2620938,-4607949.45433 11654.7607721,-4607881.8006 11564.4926962,-4607782.93043 11447.3339157,-4607659.60598 11366.4672775,-4607585.23281 11320.7154422,-4607508.28471 11258.4829194,-4607412.9479 11186.8451218,-4607288.61787 11080.303105,-4607153.88447 11014.2658693,-4607009.37673 10997.1507721,-4606993.45149 10946.5338931,-4606923.23254 10912.9193084,-4606866.43458 10893.1500084,-4606853.36189 10839.7191263,-4606793.48123 10789.4724698,-4606702.7982 10760.9284494,-4606653.7722 10715.2927897,-4606583.82616 10681.3313484,-4606542.4978 10637.6177524,-4606487.64571 10593.2848684,-4606453.24431 10546.6445536,-4606406.22614 10509.9471695,-4606369.24482 10468.2646969,-4606327.4942 10416.4598894,-4606292.68413 10356.0892421,-4606272.89371 10326.657177,-4606253.79673 10291.7691562,-4606229.40506 10236.9870121,-4606207.92196 10202.3480795,-4606183.54395 10165.4872422,-4606149.55162 10120.2627385,-4606140.58235 10047.8054039,-4606095.14985 10343.4121152,-4605582.224 10347.779149,-4605543.4925 10350.4686804,-4605517.15974 10338.0704169,-4605483.50657 10317.565825,-4605451.90809 10292.8347811,-4605429.07158 10253.5609292,-4605388.95212 10134.3774016,-4605261.52475 10045.8986068,-4605152.76425 10004.2204008,-4605051.56005 9909.72872788,-4604965.95305 9820.45971403,-4604871.63878 9729.93741617,-4604800.2385 9662.28218622,-4604740.08139 9532.07700752,-4604699.98516 9368.99962443,-4604662.58763 9285.87141559,-4604629.56295 9167.96446938,-4604538.17979 9060.80624962,-4604428.39942 8932.13129867,-4604364.9057 8863.8851404,-4604228.77604 8767.98533379,-4604082.14124 8737.07854934,-4603957.54666 8667.52834283,-4603849.82411 8621.28834962,-4603658.44271 8592.94151963,-4603487.02516 8667.46414762,-4603330.22574 8758.30041197,-4603222.28074 8821.53747969,-4603102.83423 8789.07696237,-4603006.6329 8772.73576055,-4602958.2764 8659.70704256,-4602782.22893 8737.03757361,-4602578.61914 8733.55012491,-4602295.14955 8795.54552668,-4602024.75244 8868.7627578,-4601896.35824 8938.10924343,-4601834.20049 8869.07393074,-4601717.01511 8750.64761294,-4601635.1004 8721.77979612,-4601473.14775 8787.08385512,-4601315.84303 9077.28915018,-4601015.45174 9120.29210206,-4600923.37561 9106.50892639,-4600828.19579 9044.10126285,-4600758.83632 9060.53087824,-4600627.33741 9074.62318661,-4600543.17376 9099.21422053,-4600440.59864 9155.79146685,-4600273.82285 9258.18490656,-4600128.03622 9409.17531633,-4599956.92662 9489.01955516,-4599876.35558 9612.90003493,-4599684.77853 9762.33872124,-4599542.06082 9877.63668853,-4599406.96991 9959.58883535,-4599301.53247 10066.9726744,-4599196.98475 10208.3537549,-4599018.85227 10310.6432469,-4598911.52755 10395.152662,-4598818.71936 10502.5429042,-4598691.18859 10607.823406,-4598556.54763 10711.293816,-4598349.86251 10839.6682836,-4598172.01639 10945.3231062,-4597993.92802 11038.2857568,-4597856.11481 11117.9807518,-4597705.08616 11305.3475969,-4597462.51217 11500.5126515,-4597214.3677 11577.5910445,-4597106.66205 11690.1477272,-4596971.41609 11861.8315195,-4596796.43122 12030.7500357,-4596594.31503 12202.6946035,-4596373.37765 12356.6125488,-4596198.91958 12525.8297738,-4595991.32177 12643.3486536,-4595865.83706 13367.5051247,-4595088.98055 13588.1331623,-4594818.23388 13775.5470263,-4594570.15491 13998.8924683,-4594277.07081 14162.9634975,-4594072.18312 14256.5057469,-4593850.45489 14324.278813,-4593652.30159 14398.4942722,-4593505.46236 14622.4402263,-4593205.91158 14679.2749176,-4593029.64389 14763.7428859,-4592868.87372 14808.6901674,-4592649.48788 14648.9648551,-4592376.46515 14568.0268538,-4592216.16281 14516.7834369,-4592029.00173 14508.7556935,-4591915.14672 14500.4605129,-4591810.7702 14458.7890733,-4591704.57282 14444.212151,-4591628.33283 14407.7007084,-4591258.1109 14404.1562346,-4590952.14184 14437.3200024,-4590687.6462 14446.0784141,-4590618.67488 14446.3768996,-4590365.87664 14443.38282,-4590196.33764 14416.2285955,-4590107.92046 14380.3114316,-4590029.01808 14371.2891818,-4589864.64645 14408.5901433,-4589698.30445 14395.8760394,-4589496.25907 14371.4767466,-4589233.62067 14362.2095504,-4589128.69215 14343.3728568,-4589002.25729 14312.837138,-4588801.73867 14287.3414701,-4588604.99244 14261.9222582,-4588402.25494 14241.2854298,-4588221.76209 14197.0969431,-4588120.42596 14148.5181826,-4587948.40263 14094.6449309,-4587768.09678 13960.9529134,-4587686.36366 13851.9075495,-4587381.64088 13571.0949004,-4587052.06764 13451.7845432,-4586935.64635 13373.5755345,-4586931.38341 13349.0075137,-4586804.6381 13259.1478726,-4586720.79937 13188.6227472,-4586575.56146 13069.3123129,-4586459.14122 13059.5936891,-4586348.69414 12969.7067878,-4586265.35424 12759.9168792,-4586081.05115 12614.3542228,-4585868.77282 12423.4271125,-4585622.54695 12152.5816261,-4585403.44325 11899.1106789,-4585154.31119 11775.2098604,-4584833.30072 11552.8991941,-4584585.36927 11293.2885597,-4584288.44309 11052.5528867,-4584199.88625 10931.8077364,-4584164.83026 10792.6221304,-4584119.77673 10585.9144655,-4584099.02306 10388.1561333,-4584088.24958 10190.9138148,-4584068.01166 9983.42530651,-4584066.20069 9831.19453562,-4584086.38508 9572.80262032,-4584147.74881 9357.39788503,-4584117.02888 9166.53444215,-4584108.12974 9045.87605224,-4584048.59859 8448.34431522,-4583727.77756 8260.10110783,-4583606.61226 8102.13973136,-4583493.59171 7767.55950769,-4583133.14343 7720.00783773,-4582790.82859 7651.71502938,-4582664.20871 7508.19667481,-4582524.49939 7316.60268252,-4582400.65721 7134.98851329,-4582267.86676 7000.96166702,-4582128.17609 6472.98430052,-4581589.84358 6289.60924532,-4581315.0772 6227.98305396,-4580887.07298 6231.61739049,-4580471.6148 6236.23184272,-4580217.07689 6151.3354157,-4580042.09651 6009.36104723,-4579874.00117 5832.35515158,-4579656.53901 5692.4410906,-4579450.58865 5618.49606544,-4579418.58721 5558.38508048,-4579311.40223 5498.54005785,-4579194.73981 5384.98433623,-4579027.69405 5336.63624467,-4578874.18915 5187.25722737,-4578667.72599 4900.2435061,-4578387.82914 4441.86487445,-4577961.22565 4339.28992136,-4577766.80456 4238.24918395,-4577534.99926 3983.47995599,-4577190.41973 3778.59498789,-4576961.95884 3571.11895082,-4576790.30912 3395.89578192,-4576705.34163 3182.81125872,-4576636.79887 2967.1426905,-4576606.58256 2804.45640937,-4576474.83902 2620.7835292,-4576379.92136 2282.61022319,-4576172.69051 2218.67235781,-4576131.24577 2122.73694309,-4575984.65102 2052.13110887,-4575895.88488 2010.96244047,-4575780.24493 1950.8496344,-4575673.0664 1913.50565338,-4575491.69251 1805.32093618,-4575400.38361 1784.59606724,-4575257.88062 1757.7443415,-4575058.09453 1665.41021158,-4574845.25596 1599.40818131,-4574671.81628 1661.5755298,-4573376.83971 1628.83468653,-4573184.22788 1567.56112383,-4573034.02638 1450.26966608,-4572802.34925 1253.40820267,-4572600.8171 1220.58620793,-4572087.98571 1096.44415821,-4571821.46899 1083.19000402,-4571431.09453 1185.78858361,-4571133.43901 1273.77894008,-4570792.02716 1237.88899385,-4570335.48 1107.84195287,-4569860.32998 1161.67053859,-4569508.56917 1043.91082017,-4569285.36486 1036.32615588,-4569103.11455 1135.86573721,-4568866.23663 1230.72462843,-4568715.52731 1301.32744513,-4568528.53127 1326.2539503,-4568391.50776 1348.78799186,-4568132.96183 1417.28547914,-4567989.31233 1295.30219992,-4567843.81099 1168.79472017,-4567620.63314 962.259363985,-4567436.0721 723.954733245,-4567358.19 340.547038436,-4567077.6042 105.797687272,-4566943.46734 94.8791189187,-4566666.12367 135.507405859,-4566235.21927 169.103894514,-4565933.81598 115.022226204,-4565333.41819 99.4160968106,-4564985.88342 71.5453545926,-4564698.62828 -80.1328465048,-4564465.09997 -111.762168041,-4564247.07889 -107.580282201,-4564013.51702 -208.167967266,-4563791.25487 -314.404430927,-4563673.09216 -345.759488383,-4563454.58728 -331.707026318,-4563195.58508 -278.126517945,-4562843.3137 -254.203311191,-4562558.87025 -206.519971477,-4562163.31725 -225.196663515,-4561867.57096 -325.108153013,-4561637.35546 -248.901835832,-4561346.75564 -10.083815154,-4560825.69019 153.936880752,-4560467.91544 287.030868724,-4559929.62354 412.641977911,-4559529.30008 573.160482419,-4559286.7281 746.358389199,-4558966.91242 1001.76226494,-4558729.48207 1074.18099982,-4558508.60817 977.597729698,-4558373.48889 916.117572833,-4558231.28057 856.250941161,-4558054.69072 834.975638756,-4557811.25434 864.793142766,-4557579.07943 832.478645227,-4557378.00648 601.641867135,-4557162.17931 355.753294337,-4556906.07311 106.781761795,-4556702.25387 -198.410308226,-4556581.81127 -750.892614961,-4556231.16853 -912.042527245,-4556006.13518 -1098.85009697,-4555775.21674 -1272.03086641,-4555454.12086 -1384.90544268,-4555144.78499 -1460.39821622,-4554777.03022 -1502.19308028,-4554428.08548 -1527.04200767,-4554089.05051 -1551.89217983,-4553750.01565 -1528.1092373,-4553149.35764 -1427.97156012,-4552739.16179 -1491.9487045,-4552264.63145 -1712.82429981,-4551703.18109 -1630.79621513,-4551345.95459 -1490.27044311,-4551070.82084 -1109.12325973,-4550997.03624 -903.708586397,-4550976.68256 -440.154058522,-4550829.42796 -223.577299656,-4550487.46991 13.6757534567,-4550266.52078 121.176262545,-4550038.54923 91.1903080455,-4549794.14582 102.402014576,-4549586.9401 116.166957772,-4549327.91936 128.71904542,-4548938.95015 181.861625271,-4548759.98921 211.198306316,-4548536.27941 187.082749572,-4548335.65458 182.299102469,-4548110.09899 193.5879101,-4547901.39836 6772.1013932,-4556386.99854 7134.18414901,-4556854.74721 7140.01159309,-4556968.46919 7196.04144988,-4557086.91011 7232.99173201,-4557174.84154 7230.63283762,-4557292.1167 7276.42116792,-4557428.98721 7342.24756736,-4557527.97602 7418.36911147,-4557607.53941 7533.11970079,-4557707.18178 7620.16281539,-4557718.89369 7725.75486543,-4557798.556 7733.7471688,-4557876.92521 7751.47987569,-4557955.3228 7798.14300261,-4558043.78155 7826.46187458,-4558092.77761 7921.78820087,-4558172.88325 8027.65901848,-4558233.57696 8133.83576627,-4558274.8033 8230.27209437,-4558316.00133 8346.23145856,-4558347.26667 8424.0328061,-4558358.97789 8496.29796626,-4558389.8732 8579.1496498,-4558391.36675 8695.65226982,-4558394.18482 8851.09034223,-4558397.61467 8957.55890178,-4558428.86543 9073.18619475,-4558480.09702 9238.03258009,-4558503.52135 9374.26633144,-4558506.40996 9521.10182312,-4558470.40492 9639.38135355,-4558394.38262 9679.6788083,-4558337.6142 9748.11536951,-4558319.34149 9855.15481662,-4558321.64652 9952.45369025,-4558323.92315 10145.6209961,-4558396.34486 10222.9107452,-4558417.52105 10358.6179359,-4558439.36595 10425.8192529,-4558489.9716 10530.9155016,-4558569.61023 10686.0086668,-4558602.49844 10850.2458693,-4558664.85962 10946.183682,-4558724.51763 11032.3267361,-4558785.14359 11196.3003561,-4558856.98358 11369.7659563,-4558928.8388 11464.7739444,-4559037.90835 11542.3136606,-4559059.0989 11657.6525929,-4559120.30919 11860.8816055,-4559182.28783 11975.91473,-4559262.96678 12151.9741715,-4559328.46897 12251.5349091,-4559385.82682 12349.9072944,-4559465.10338 12431.9638252,-4559532.00432 12536.3621113,-4559606.11214 12646.1650582,-4559686.50858 12768.4189919,-4559744.59796 12891.2462554,-4559796.72317 13019.5533281,-4559849.14565 13165.3439822,-4559897.02051 13287.8475055,-4559955.124 13438.1246953,-4560026.22496 13554.8996832,-4560084.01814 13643.3549445,-4560134.28031 13735.9722473,-4560213.74632 13812.9219047,-4560268.88061 13887.9805508,-4560358.88601 13962.7690115,-4560453.87313 14025.4514098,-4560560.19482 14093.8625475,-4560666.82734 14154.7076098,-4560807.0241 14198.6150984,-4560946.30242 14243.1919603,-4561068.62994 14278.5872488,-4561258.90815 14265.1576837,-4561400.57274 14304.8757226,-4561511.14564 14373.285967,-4561617.77912 14413.3010377,-4561722.87248 14477.2793684,-4561805.28379 14542.0953832,-4561872.25224 14593.0215832,-4561983.43368 14637.5490851,-4562111.25542 14676.9421355,-4562227.80695 14739.6499918,-4562333.63238 14821.9766731,-4562395.55582 14940.3675068,-4562418.96604 15052.0354807,-4562464.99451 15110.8040418,-4562542.12793 15158.7576391,-4562602.18693 15216.9527374,-4562685.28496 15256.993974,-4562789.88149 15292.5225179,-4562871.74992 15334.4015529,-4562942.47147 15387.5374822,-4563008.30793 15441.1233131,-4563079.6648 15511.3976304,-4563151.92727 15593.7996888,-4563207.86042 15705.1706649,-4563259.36995 15783.3364219,-4563292.09033 15862.1239455,-4563313.35294 15985.5476961,-4563354.5248 16075.8414802,-4563370.91588 16161.601604,-4563369.57377 16257.0027557,-4563397.73364 16324.9274572,-4563407.41501 16427.3011706,-4563412.97005 16495.7994575,-4563416.68693 16496.4211909,-4563405.22904 16558.0224024,-4563425.55931 16610.0039131,-4563411.39231 16668.9096098,-4563380.11371 16664.5609649,-4563248.47316 16721.4138727,-4563149.13236 16817.7617209,-4563159.85619 16928.8097428,-4563217.34443 17018.110079,-4563256.66501 17140.069807,-4563320.2416 17222.4248573,-4563381.6693 17328.0685858,-4563432.86908 17417.7418537,-4563460.71851 17494.9897894,-4563510.37761 17579.18326,-4563537.9298 17658.2695396,-4563553.71313 17777.5826333,-4563560.18757 17891.4159298,-4563566.36467 18005.5467263,-4563567.06184 18176.4216654,-4563576.33431 18289.5467676,-4563590.96699 18390.9551103,-4563618.95398 18490.8438592,-4563670.34197 18543.6352772,-4563747.15449 18621.8031201,-4563779.87629 18701.6494081,-4563675.78574 18808.8838102,-4563693.09682 18967.0100752,-4563730.15773 19031.232851,-4563808.09066 19089.4291125,-4563891.19278 19156.4635559,-4563917.31488 19261.935636,-4563898.05617 19418.3966567,-4563823.10527 19523.3936366,-4563886.26319 19626.019772,-4563891.83255 19722.3703902,-4563902.55753 19823.5039861,-4563931.02998 19946.6350428,-4563977.68451 20042.6615281,-4563994.38787 20122.6959931,-4563992.73545 20154.1748494,-4563937.48309 20205.9885728,-4563898.82357 20275.5885528,-4563831.64953 20355.1407698,-4563756.02167 20405.8444259,-4563650.34774 20437.3251956,-4563553.62372 20511.7197421,-4563448.73551 20567.6194098,-4563380.81752 20667.5181506,-4563266.32049 20786.6513081,-4563151.86759 20875.3737404,-4563105.21692 21050.2721634,-4563118.70433 21176.2243529,-4563141.02809 21302.1766979,-4563163.35192 21419.2774716,-4563146.22189 21507.9850631,-4563109.06367 21616.1802327,-4563053.47594 21724.1534284,-4562997.37638 21802.5633254,-4562979.6457 21968.626991,-4562944.18615 22125.1981248,-4562908.71108 22329.8960369,-4562893.33552 22486.1607982,-4562877.33063 22642.4566131,-4562842.33998 22788.7424284,-4562835.2872 22906.0824148,-4562809.17541 23034.0969362,-4562733.67575 23142.8766618,-4562658.13161 23222.7372975,-4562563.03011 23263.3886811,-4562495.28174 23303.7792679,-4562418.52509 23383.0955432,-4562351.87499 23520.7830041,-4562286.89259 23609.5499501,-4562230.24874 23659.9316475,-4562153.53407 23768.7540199,-4562067.99764 23828.8507278,-4561991.80981 23985.7160171,-4561946.35496 24103.7401434,-4561870.81103 24203.0427498,-4561785.75682 24320.4112327,-4561759.14524 24446.3679697,-4561781.46816 24553.116694,-4561803.24881 24699.1138985,-4561806.1722 24834.7862524,-4561829.02232 24951.891088,-4561811.89022 25058.9471069,-4561814.20015 25136.8036456,-4561815.92539 25254.7714517,-4561759.86491 25353.8107574,-4561684.28923 25491.5159108,-4561609.81155 25590.0265609,-4561553.19481 25630.3868856,-4561495.42226 25748.6347874,-4561420.38832 25799.308429,-4561333.69372 25878.3346795,-4561277.01898 25958.487727,-4561171.93586 26008.8546452,-4561104.71202 26078.4452554,-4561028.53713 26129.160996,-4560931.85062 26179.5160476,-4560855.63156 26269.1469155,-4560760.05619 26339.028801,-4560673.90293 26467.2836397,-4560589.41647 26545.1134171,-4560485.70522 26640.8606418,-4560410.9481 26723.9539319,-4560352.99365 26813.7976954,-4560271.91982 26931.0194026,-4560215.81605 27117.6974139,-4560233.43564 27225.368814,-4560196.80135 27353.0807503,-4560140.76648 27539.1664515,-4560086.39814 27695.7186411,-4560051.41505 27833.7021217,-4559976.44869 27922.7782131,-4559900.32892 28030.6995074,-4559863.70751 28138.9002877,-4559808.11274 28246.8342047,-4559739.01158 28356.5092741,-4559647.01864 28436.6897788,-4559541.43335 28477.6207416,-4559454.70682 28527.7268415,-4559378.47169 28578.0939598,-4559311.24521 28618.7335789,-4559234.49662 28688.0875517,-4559167.30013 28796.8440903,-4559092.24611 28885.6141834,-4559035.59648 29012.7302692,-4559009.00915 29111.5072969,-4558942.90791 29191.3965477,-4558847.29947 29290.4107994,-4558772.21619 29369.7717484,-4558695.56747 29390.4156731,-4558651.2139 29411.5368603,-4558570.40795 29511.2174716,-4558455.38416 29590.7584648,-4558389.23853 29651.1472829,-4558303.06573 29701.3071826,-4558225.83264 29751.6891595,-4558149.11121 29870.4949446,-4558054.61189 29950.3840188,-4557959.00201 30039.1545732,-4557902.35073 30131.4390853,-4557720.96347 30194.7208552,-4557604.46456 30337.9704242,-4557492.30037 30534.3676726,-4557445.97997 30707.7501125,-4557409.4054 30852.45674,-4557371.77599 30965.5854525,-4557377.40862 31121.6291738,-4557351.88696 31219.2673814,-4557343.6874 31433.1445441,-4557348.28501 31559.6665622,-4557351.14567 31714.5292896,-4557393.52081 31879.7470688,-4557396.97999 32015.9855378,-4557400.36742 32113.0275922,-4557421.61873 32209.5025385,-4557453.33338 32286.7948541,-4557484.00822 32363.7961489,-4557524.66167 32557.0916177,-4557577.11633 32634.6482218,-4557598.31106 32829.0004508,-4557612.84463 32925.8211109,-4557633.5846 33081.5469801,-4557637.02936 33285.6850439,-4557641.59943 33421.9524058,-4557644.48908 33547.6306382,-4557676.78804 33673.2371276,-4557738.06715 33749.4200494,-4557807.66096 33828.4787337,-4557957.86634" style="stroke-linejoin:round;stroke:#000;stroke-width:1px;fill:none" /></g></g></svg>