<svg xmlns="http://www.w3.org/2000/svg" baseProfile="full" height="95083.0913933" version="1.1" viewBox="-42814.061898,4585504.004097,104298.661981,95083.091393" width="104298.661981"><defs><style type="text/css">polyline,line,rect,path,polygon,.polygon{fill:none;stroke:#000;stroke-width:1px;stroke-linejoin:round;}</style></defs><g fill_rule="evenodd" transform="scale(1,-1)"><g class="id" id="58112"><polygon class="_58112" id="None" points="39361.0977546,-4586167.79593 39394.8577699,-4586247.74734 39459.9848082,-4586342.0615 39508.6559013,-4586464.15251 39524.2487835,-4586530.81595 39539.0211825,-4586702.41896 39554.2407075,-4586835.05065 39553.1915371,-4586950.97767 39529.6571493,-4587072.42397 39506.5805642,-4587160.39805 39478.2546452,-4587242.64479 39488.3580059,-4587320.5665 39476.071081,-4587442.0026 39484.2528054,-4587690.30036 39516.6124245,-4587773.69037 39625.9271946,-4587863.4314 39796.428644,-4587931.34331 40022.7939222,-4587944.7018 40343.079977,-4587953.65307 40491.5429001,-4588011.10777 40761.7255583,-4588074.36418 41697.9630614,-4588316.59973 41819.3793333,-4588329.38688 41930.235595,-4588286.22616 42019.0844994,-4588237.60774 42091.8839496,-4588144.29969 42176.1174807,-4588029.49433 42287.8790368,-4587925.3858 42387.6953831,-4587860.24835 42504.0821208,-4587839.32327 42609.220916,-4587818.40813 42747.5937004,-4587803.43955 42841.069031,-4587826.50697 42923.338015,-4587871.58159 42994.6500803,-4587938.6743 43049.0073795,-4588022.02501 43103.3542357,-4588099.87649 43213.0976089,-4588151.14709 43306.6043783,-4588190.7128 43406.0475293,-4588191.54521 43527.4871069,-4588203.83363 43659.9037122,-4588216.60023 43797.6019648,-4588240.0948 43852.5934234,-4588262.98607 43952.0256372,-4588269.81687 44040.4705774,-4588270.67019 44178.1899879,-4588305.16362 44310.1923431,-4588350.40588 44403.6988177,-4588401.4698 44469.2421784,-4588451.81555 44501.3527202,-4588535.19809 44505.8004438,-4588656.86774 44487.7837718,-4588783.55753 44425.5443893,-4588909.8204 44363.7624312,-4589014.10746 44313.1560897,-4589079.88912 44240.3556826,-4589161.70038 44212.2446323,-4589238.95988 44160.7738612,-4589387.687 44153.9944014,-4589508.86715 44152.9114257,-4589608.29991 44168.0763909,-4589713.43961 44194.7285795,-4589813.08106 44243.3460045,-4589907.68085 44325.8747742,-4589958.26746 44419.3713062,-4589992.33545 44523.84486,-4590026.8818 44606.5406649,-4590033.4846 44689.7056157,-4590012.1134 44739.8652013,-4589973.80705 44845.901731,-4589886.44556 44890.7282927,-4589809.91419 44913.8606265,-4589737.93643 44975.4352747,-4589655.63599 45020.2514254,-4589573.60509 45243.3015814,-4589399.35922 45337.662365,-4589361.97851 45415.7564225,-4589284.8965 45477.7368663,-4589153.12269 45518.2185741,-4589021.41192 45519.4988915,-4588894.49195 45504.5629689,-4588766.86551 45440.2266569,-4588551.10345 45398.6577707,-4588334.83367 45422.5681893,-4588158.90914 45474.4757561,-4587965.7076 45542.3904579,-4587806.69676 45615.6292074,-4587668.91367 45710.6767558,-4587587.06994 45810.2974137,-4587560.91484 45970.4643447,-4587556.39334 46147.3040808,-4587542.1 46301.981039,-4587560.33512 46450.6697212,-4587589.80735 46532.9513088,-4587640.38273 46609.5043449,-4587707.70555 46692.0571869,-4587757.79298 46823.8108328,-4587826.02072 46998.925256,-4587966.12485 47196.0583908,-4588117.18674 47430.833877,-4588362.37258 47539.965915,-4588496.60406 47632.3929068,-4588635.60702 47758.2421855,-4588747.57124 47840.3252882,-4588837.13243 47960.6548712,-4588932.35938 48026.4387416,-4588977.21826 48114.428743,-4589000.04863 48241.5794791,-4588996.09011 48285.8033284,-4588996.51716 48406.5907424,-4589069.76826 48532.6391206,-4589142.74881 48636.7204625,-4589232.26943 48729.5945935,-4589343.79811 48804.8161355,-4589499.05034 48891.533352,-4589677.29992 48984.3659867,-4589766.83094 49121.8918687,-4589828.8145 49254.137425,-4589868.57169 49452.3331487,-4589920.70132 49617.7731951,-4589944.40806 49739.6139448,-4589901.72523 49856.4238412,-4589836.8266 49972.7760807,-4589793.90444 50088.9304728,-4589778.46927 50238.3297352,-4589785.9794 50392.5220849,-4589809.69595 50507.8242941,-4589859.71352 50623.0911,-4589939.22512 50760.1904133,-4590051.18348 50880.5419995,-4590157.41296 50956.658617,-4590257.71546 51043.7858969,-4590351.9989 51148.2951353,-4590403.04659 51208.3507289,-4590464.65511 51268.4165894,-4590531.76331 51322.3593875,-4590647.59743 51364.8949986,-4590824.42534 51373.6931379,-4591018.28011 51421.0287709,-4591239.81081 51440.8460503,-4591444.64443 51467.0295614,-4591560.76875 51477.2149989,-4591659.69818 51465.3289633,-4591731.66933 51447.3180945,-4591863.86451 51417.6499659,-4592057.04234 51323.3551978,-4592597.35041 51283.8046646,-4592696.11105 51199.9465417,-4592761.94451 51133.1188978,-4592827.02063 51093.276673,-4592915.26993 51015.2192582,-4593002.85281 50970.1289646,-4593073.87574 50941.3265278,-4593184.10294 50929.2614349,-4593294.55996 50961.1510187,-4593394.43544 51004.4777873,-4593461.31477 51070.291792,-4593522.67568 51135.8258537,-4593567.52692 51212.6289449,-4593623.36803 51256.3937582,-4593657.27161 51300.178867,-4593702.17445 51371.2741814,-4593774.26434 51420.3188174,-4593830.39496 51523.4818901,-4593963.87449 51615.6542577,-4594114.37233 51707.8988702,-4594291.86955 51756.0870626,-4594424.95186 51793.036484,-4594563.54322 51807.7882521,-4594729.66235 51800.7838096,-4594867.33664 51771.5513909,-4595016.03965 51748.0469746,-4595159.49325 51746.9592703,-4595258.93117 51789.4284162,-4595402.76275 51832.7728987,-4595492.14057 51898.1175035,-4595569.97992 52038.4633567,-4595859.56072 52289.3073087,-4596177.45917 52409.2161316,-4596316.67109 52573.5893546,-4596450.82409 52737.2725717,-4596629.44108 52917.9027676,-4596786.30101 53126.4611755,-4596898.88614 53219.9714325,-4596938.4612 53285.9741677,-4596966.83749 53362.4855727,-4597012.17007 53455.8064763,-4597084.73256 53510.6004061,-4597135.11688 53619.7392625,-4597263.36235 53728.6385682,-4597397.09685 53810.4810566,-4597480.65741 53887.2520242,-4597531.50106 54025.0079612,-4597582.50624 54057.7549516,-4597593.93388 54118.0377335,-4597644.55814 54155.894307,-4597722.20018 54209.5685786,-4597855.52538 54295.6221182,-4598060.25465 54366.2715542,-4598199.82021 54431.1645159,-4598316.63757 54518.7271136,-4598377.95161 54722.0053387,-4598479.81139 55116.9156469,-4598727.01815 55265.2205058,-4598816.98071 55330.5546616,-4598889.3238 55418.5947285,-4598951.1594 55587.9881583,-4599102.03566 55718.0328174,-4599341.18404 55777.6463252,-4599435.77524 55837.719182,-4599508.38917 55897.8237006,-4599586.00395 55946.1979283,-4599686.10404 55972.8640027,-4599796.75523 55988.2413873,-4599885.41618 56026.1049531,-4599980.05819 56086.1598796,-4600030.17432 56152.1849803,-4600058.05374 56240.3658354,-4600059.40358 56373.2541312,-4600038.70788 56500.6120998,-4600007.27191 56728.1036101,-4599926.71319 56955.3360838,-4599840.6435 57066.8457152,-4599748.52196 57178.2523545,-4599687.39241 57265.018255,-4599595.19037 57341.1191086,-4599512.5216 57385.7535026,-4599474.9742 57505.8214304,-4599450.21854 57574.4630972,-4599469.7131 57657.5796092,-4599529.83533 57714.2374176,-4599594.80202 57812.8761535,-4599723.09495 57938.2646366,-4599857.05535 58036.6656726,-4599979.33891 58145.3532866,-4600146.56718 58177.0092698,-4600257.43806 58203.4355468,-4600373.5801 58247.911222,-4600854.97335 58266.0033341,-4601219.22654 58280.9791699,-4601362.86601 58313.3434278,-4601451.77039 58345.2086357,-4601540.65302 58348.7768051,-4601544.80843 56423.1619034,-4603389.50344 54569.1951765,-4605156.28811 52770.7946863,-4606869.96161 51538.4176192,-4608089.41203 51057.144068,-4608554.80005 49255.283696,-4610296.22896 47405.1342402,-4612084.49064 45608.5093977,-4613820.5557 44787.9466792,-4614613.98862 43780.2712185,-4615662.16859 42037.3143224,-4617376.9933 40275.5231418,-4619110.94357 38446.6273325,-4620910.39126 40319.165024,-4622867.48677 44650.1153114,-4627380.42195 48703.455264,-4631589.51321 50645.1578467,-4633605.43576 55305.9749534,-4638445.51426 55314.8334543,-4638454.40248 58978.0448755,-4642258.52794 61031.8310616,-4644375.17049 61019.0350254,-4644387.60699 59244.1885223,-4646080.92818 57451.0413066,-4647792.39997 55630.4874752,-4649530.11915 53648.1745506,-4651421.65376 52011.3178197,-4652983.8901 50169.6245547,-4654741.53902 48333.9298307,-4656493.40592 46546.2466841,-4658199.34947 44716.275021,-4659945.87624 44275.0317596,-4660366.84489 42943.5454998,-4661714.87704 41168.1686315,-4663424.72562 39321.2623172,-4665203.35709 37534.9132104,-4666923.62581 35734.1993433,-4668657.71024 33923.3100003,-4670401.29515 32159.4261038,-4672093.42237 28689.0298071,-4668468.95897 25282.9549286,-4664961.9969 23050.0556397,-4667171.15765 21535.5243777,-4668636.74432 19750.4977957,-4670364.24551 18070.9071675,-4672007.39111 17850.7157766,-4672222.57463 16336.6454988,-4673688.55929 14551.5995614,-4675415.91487 12727.1403851,-4677180.96028 10963.8635422,-4678884.68806 10123.0801221,-4679767.58135 9524.14411462,-4680358.30024 9452.3332098,-4680332.12831 9403.89414258,-4680302.99342 9358.07233383,-4680282.47103 9305.5007467,-4680267.64719 9214.81389511,-4680250.13525 9137.40584035,-4680265.69826 9077.48792711,-4680270.041 9030.47917065,-4680242.46894 8994.09700766,-4680189.37833 8938.4347226,-4680148.42831 8901.68957884,-4680114.81368 8812.6826001,-4680098.87564 8712.07361735,-4680107.91311 8654.66885722,-4680089.3767 8641.70894665,-4680037.82368 8603.2018936,-4679931.16134 8559.49836355,-4679840.26225 8521.05138421,-4679766.08924 8477.3729129,-4679657.69868 8414.97345978,-4679593.96 8316.86472469,-4679529.63921 8245.42375501,-4679489.49015 8182.39968698,-4679473.70391 8105.08954624,-4679396.81024 8074.71149822,-4679281.51251 7987.23901213,-4679219.66239 7911.88035582,-4679183.33839 7854.23290344,-4679170.28941 7763.20003856,-4679166.25725 7671.91783858,-4679162.21403 7606.08135298,-4679164.79556 7557.17296142,-4679180.1218 7511.89180635,-4679175.61718 7488.41893112,-4679130.09638 7479.47989402,-4678987.76082 7413.02354669,-4678885.85948 7341.59873397,-4678839.7143 7258.85013708,-4678823.55458 7203.20461405,-4678816.0921 7153.15646201,-4678806.3786 7099.7021049,-4678811.50781 7035.00595002,-4678839.12922 6984.48753617,-4678834.39274 6955.43648838,-4678807.61697 6922.14215749,-4678758.16297 6874.58177442,-4678743.06205 6824.3948245,-4678730.84351 6768.88844826,-4678725.88614 6695.7849723,-4678717.65044 6630.16361733,-4678709.74614 6572.95864893,-4678686.72133 6520.96267928,-4678658.92942 6497.89393752,-4678609.92852 6488.31153335,-4678538.53495 6455.48120019,-4678478.60631 6423.75543412,-4678393.73752 6380.57633042,-4678324.85434 6323.78416973,-4678247.37181 6283.6164239,-4678155.63216 6252.08932485,-4678066.27438 6243.33394766,-4678004.41353 6237.05615898,-4677909.17707 6193.57689637,-4677835.7829 6133.50459826,-4677764.65266 6069.36355404,-4677723.32913 5999.74214111,-4677687.26053 5932.85774889,-4677645.81559 5867.01878135,-4677625.9075 5813.01291242,-4677643.5071 5722.25403066,-4677678.47069 5650.48660423,-4677668.29563 5596.57482587,-4677649.91528 5552.74793023,-4677550.51772 5478.46008949,-4677478.75846 5468.19248887,-4677422.82847 5448.52316038,-4677353.48796 5457.14550052,-4677243.41897 5457.04888216,-4677160.95143 5455.74938221,-4677077.43109 5422.01322091,-4677037.95422 5371.47523839,-4676977.24255 5301.39849515,-4676900.6725 5290.09636462,-4676890.67631 5282.73671545,-4676859.36431 5209.7188425,-4676826.64444 5155.80721187,-4676808.26453 5102.01894784,-4676798.38627 5048.69992798,-4676744.0488 4995.10672849,-4676707.19136 4941.68646502,-4676643.85355 4942.17772168,-4676598.89559 4934.18184306,-4676508.58214 4845.54460103,-4676399.70512 4828.40006928,-4676318.48245 4829.42914009,-4676210.57686 4830.85560397,-4676093.69295 4831.73377785,-4676011.76895 4760.43587473,-4675957.13583 4688.69375812,-4675929.47085 4580.84620068,-4675910.20291 4509.25227306,-4675873.54864 4430.21803934,-4675852.55771 4329.76430094,-4675835.61625 4239.74764179,-4675825.63389 4131.8537391,-4675824.35573 4059.47291807,-4675850.6378 4004.64856106,-4675903.68513 3950.34769434,-4675939.26364 3846.50274036,-4675987.64176 3791.9525102,-4676023.20914 3706.54347458,-4676055.91094 3613.02014518,-4676051.77033 3522.10125926,-4676045.24618 3414.40817941,-4675983.00491 3334.22660585,-4675891.99572 3281.07834552,-4675828.17136 3200.04069659,-4675818.58644 3110.12621152,-4675817.60432 3038.48643969,-4675798.9399 2976.38480721,-4675717.22754 2940.96570804,-4675653.68856 2878.32629155,-4675634.92295 2770.18425979,-4675633.63372 2716.22693672,-4675633.24402 2662.78273257,-4675587.39848 2627.4429288,-4675533.35873 2592.32001756,-4675451.8416 2557.34513269,-4675361.33534 2503.7775128,-4675306.98855 2467.96883872,-4675297.40713 2423.15995644,-4675287.92704 2342.09827635,-4675295.83307 2269.61732048,-4675313.11465 2197.72865845,-4675294.43957 2180.43603227,-4675222.20809 2109.13964275,-4675167.57645 2019.86498894,-4675112.64877 1956.68055303,-4675111.85077 1911.6771028,-4675129.34921 1875.08161447,-4675182.70285 1765.78857673,-4675280.81516 1711.16804269,-4675351.86184 1620.31952587,-4675422.80388 1529.96204558,-4675448.78921 1449.02693885,-4675448.20464 1377.38819496,-4675429.54055 1314.84317153,-4675374.79671 1279.5726275,-4675302.26958 1253.52949493,-4675230.15099 1236.08900242,-4675166.90916 1197.36179403,-4675008.77059 1162.72997146,-4674882.29816 1163.85962335,-4674783.39623 1128.6680867,-4674720.36832 1048.73691945,-4674629.37268 950.531599953,-4674556.05924 860.517608151,-4674546.07772 770.432453407,-4674571.57568 652.779604049,-4674615.84348 589.595941456,-4674615.04563 536.029077652,-4674560.69999 501.054426292,-4674470.19558 484.353787461,-4674362.00922 476.061096586,-4674289.67759 431.891610264,-4674226.25281 414.45079915,-4674163.01164 409.86121435,-4674097.34079 370.919834094,-4674045.64185 299.374861468,-4673991.00063 191.484812909,-4673989.72359 127.912292797,-4674042.88204 72.9751210187,-4674132.4048 -22.5181497973,-4674127.67828 -108.602496043,-4674085.38713 -200.371194367,-4673990.87034 -293.890442815,-4673930.25923 -400.946847811,-4673848.05956 -508.345714069,-4673801.82682 -571.301375874,-4673801.53912 -670.440020931,-4673800.14968 -724.053101567,-4673763.79384 -795.83854302,-4673754.11986 -849.281518923,-4673708.2764 -929.655674166,-4673644.24959 -1019.56675257,-4673643.26864 -1100.74929414,-4673642.674 -1154.4880902,-4673614.80845 -1189.97523487,-4673569.75988 -1226.03217641,-4673560.16809 -1265.61504902,-4673483.4543 -1300.48828692,-4673401.95155 -1372.11170727,-4673337.81271 -1406.81261432,-4673229.83123 -1441.93534244,-4673148.31764 -1494.73995166,-4673048.53054 -1575.33037261,-4673011.98087 -1656.49038854,-4673010.88783 -1728.4231663,-4673010.20315 -1781.71796548,-4672955.37153 -1817.15863625,-4672892.33472 -1879.45329333,-4672837.60466 -1969.16917059,-4672809.64674 -2041.42196809,-4672844.42965 -2114.09412001,-4672888.68905 -2187.00715257,-4672977.91446 -2286.70320152,-4673039.9679 -2331.36231216,-4673021.5 -2377.60599133,-4673004.96095 -2372.19192752,-4672944.73193 -2347.3322902,-4672823.39564 -2372.66904508,-4672678.84885 -2443.9632588,-4672624.22061 -2543.12224141,-4672623.3307 -2624.32798941,-4672640.2264 -2723.43180524,-4672666.32479 -2867.32887667,-4672637.46857 -2903.11155173,-4672610.39841 -2938.72423546,-4672573.84077 -3028.73511276,-4672563.86064 -3055.71233602,-4672563.66629 -3136.91772404,-4672580.5619 -3217.82722971,-4672579.48004 -3280.48550015,-4672561.21535 -3334.66713144,-4672560.31683 -3424.57623341,-4672559.33643 -3603.98342059,-4672502.92267 -3675.4247663,-4672457.28368 -3764.99133038,-4672420.3376 -3872.3408154,-4672356.11874 -3907.65741822,-4672301.58412 -3906.9729866,-4672229.65278 -3910.57877656,-4672153.034 -3945.89545041,-4672098.49948 -3990.16543437,-4672026.07815 -4053.2734466,-4671972.81262 -4129.10417936,-4671952.96597 -4232.22961434,-4671951.40111 -4325.39084251,-4671922.29218 -4386.40877811,-4671872.61744 -4446.36737118,-4671799.00253 -4533.24323182,-4671718.19991 -4575.05909953,-4671669.375 -4597.56704162,-4671596.41795 -4614.86017778,-4671524.1914 -4668.17610325,-4671469.86048 -4740.0384981,-4671450.68951 -4811.62722972,-4671414.04015 -4810.98956473,-4671360.09764 -4783.18103094,-4671279.37248 -4754.48561529,-4671144.71581 -4753.31213309,-4671027.83116 -4752.33280363,-4670937.9233 -4805.43279972,-4670856.11724 -4841.06734059,-4670820.05948 -4929.82603918,-4670719.68524 -5001.41480601,-4670683.03641 -5019.49350713,-4670673.74125 -5091.4239943,-4670673.0577 -5154.05928436,-4670654.29547 -5228.35358106,-4670611.0306 -5224.96441053,-4670545.71636 -5224.47489826,-4670500.76264 -5205.64455615,-4670419.64053 -5151.12224334,-4670384.57297 -5048.80606375,-4670336.62783 -5013.32918281,-4670280.22886 -5026.52268518,-4670205.68563 -5040.47303926,-4670142.60267 -5057.76693883,-4670070.37674 -5111.03711055,-4669998.05865 -5146.50197558,-4669952.51398 -5217.79530993,-4669897.88865 -5325.33816702,-4669860.64952 -5418.85842304,-4669834.02521 -5535.24620545,-4669793.39659 -5664.72503675,-4669743.69368 -5704.54809696,-4669711.94878 -5696.50283903,-4669654.3367 -5668.82132254,-4669582.10171 -5586.83384966,-4669502.27418 -5469.31339266,-4669449.5041 -5393.26005109,-4669373.9114 -5344.29658278,-4669261.14027 -5321.88210861,-4669127.2059 -5320.29148972,-4669000.84588 -5351.62338811,-4668850.54229 -5362.04894689,-4668741.64104 -5377.94910388,-4668660.48228 -5394.30717765,-4668538.82565 -5439.03638948,-4668425.90897 -5497.76450247,-4668284.88857 -5558.19089134,-4668182.27192 -5616.49512765,-4668127.72261 -5702.11848076,-4668052.47618 -5781.39549842,-4668031.48045 -5868.45901516,-4667983.15547 -5966.75455899,-4667815.90002 -6017.16019086,-4667769.19613 -6065.07208658,-4667722.60254 -6157.69627369,-4667687.02475 -6250.9225945,-4667659.41589 -6363.03661467,-4667646.46324 -6467.30973723,-4667631.35869 -6572.15611697,-4667629.22147 -6642.26516411,-4667615.6275 -6733.28919658,-4667572.12517 -6777.23129146,-4667509.21676 -6824.0267352,-4667448.68083 -6880.19645789,-4667396.72538 -6922.40302945,-4667362.3777 -6957.85972578,-4667305.34152 -7023.54441011,-4667276.45217 -7087.36801244,-4667267.63376 -7150.94902101,-4667253.32921 -7236.99374207,-4667221.54089 -7315.41979545,-4667209.57832 -7363.08152311,-4667236.45451 -7420.51438098,-4667280.88838 -7483.26376212,-4667315.59258 -7594.64532262,-4667325.65939 -7659.78514882,-4667278.80453 -7758.04368203,-4667195.50554 -7914.28638901,-4667095.65113 -7994.15405978,-4667054.14191 -8110.60903305,-4667048.99319 -8139.78509975,-4667047.70325 -8197.40916711,-4667102.12259 -8230.98886262,-4667132.61942 -8267.708519,-4667171.9722 -8374.47844142,-4667207.72805 -8428.16896775,-4667161.87942 -8498.1701794,-4667106.31492 -8606.89945679,-4667079.02075 -8746.56340213,-4667112.82245 -8846.03155738,-4667186.87877 -8916.75826677,-4667204.23966 -8986.32302392,-4667189.67061 -9021.79426198,-4667138.63125 -9069.60994112,-4667095.54115 -9154.24193634,-4667031.83445 -9278.38714212,-4667002.85939 -9377.38522604,-4666998.48237 -9449.00040797,-4667030.2954 -9511.71628702,-4667109.47413 -9590.81237818,-4667140.95627 -9709.99348923,-4667129.69025 -9804.70461709,-4667090.52334 -9867.16818548,-4666988.82024 -9921.90312463,-4666904.44888 -10015.842362,-4666847.82674 -10102.3631804,-4666832.50826 -10193.6847705,-4666784.49692 -10283.1978123,-4666769.04619 -10372.173168,-4666730.1333 -10440.6938825,-4666697.62151 -10520.9791674,-4666592.13307 -10639.4064362,-4666529.93148 -10711.4348935,-4666520.25096 -10798.0822313,-4666530.41179 -10854.9472702,-4666482.92484 -10926.6585062,-4666454.76952 -11034.6846226,-4666462.48609 -11149.1294681,-4666485.40947 -11260.2800094,-4666495.986 -11350.7571332,-4666524.96587 -11410.9785728,-4666530.79823 -11474.1397973,-4666524.00819 -11557.0634258,-4666483.86421 -11610.4795285,-4666420.53976 -11673.0741911,-4666395.28611 -11735.4530736,-4666416.01395 -11794.7582342,-4666429.38223 -11866.324505,-4666426.2182 -11939.7974107,-4666420.97109 -12030.8509013,-4666423.4415 -12088.429265,-4666403.40661 -12117.7927388,-4666378.12314 -12129.0396057,-4666338.64984 -12134.9381267,-4666279.92497 -12138.5551771,-4666214.80498 -12170.2479821,-4666157.43825 -12205.438662,-4666094.42031 -12257.4292145,-4666083.6271 -12353.5493897,-4666076.37959 -12439.2436233,-4666104.5714 -12493.416811,-4666143.15114 -12552.5004944,-4666224.98687 -12571.4680157,-4666320.5887 -12596.3340433,-4666357.46586 -12641.6815268,-4666365.95448 -12689.3970957,-4666365.84365 -12728.5835629,-4666370.60713 -12782.4075606,-4666361.73149 -12812.4916431,-4666358.40266 -12848.7744174,-4666291.83884 -12856.2572131,-4666235.04306 -12872.6234595,-4666198.34184 -12882.4486718,-4666171.9236 -12889.6616801,-4666131.62954 -12889.5703631,-4666095.65593 -12863.8635676,-4666005.8489 -12851.4404645,-4665933.94311 -12904.7086417,-4665861.63171 -13011.9041143,-4665788.43549 -13101.3731309,-4665715.52333 -13164.9203635,-4665689.22879 -13226.8847409,-4665677.99488 -13317.4262077,-4665708.47079 -13372.0055793,-4665784.5089 -13453.5428009,-4665837.36896 -13553.0320846,-4665872.44597 -13651.9313105,-4665871.57158 -13751.0577578,-4665870.18745 -13840.9579734,-4665869.21119 -13931.4481166,-4665904.18615 -14048.9582819,-4665956.9545 -14138.8582689,-4665955.97814 -14238.0063453,-4665955.09259 -14309.9542465,-4665971.8991 -14382.5142104,-4666025.15537 -14427.9607247,-4666081.10935 -14464.7087329,-4666132.45103 -14492.31886,-4666186.19542 -14515.6627505,-4666262.11444 -14570.2015155,-4666297.67897 -14660.1011211,-4666296.70228 -14749.6598525,-4666259.76359 -14858.7750713,-4666190.48038 -14952.967931,-4666145.34204 -15040.653899,-4666083.00264 -15099.5472253,-4666024.93438 -15116.0185959,-4665939.76028 -15206.8951753,-4665881.77718 -15268.1187433,-4665882.06853 -15355.8838228,-4665883.68484 -15462.4195218,-4665919.94842 -15554.8675809,-4665965.32927 -15638.3557857,-4666034.09133 -15702.2571099,-4666123.2067 -15766.4535706,-4666230.2973 -15791.2341014,-4666299.15641 -15827.8258501,-4666330.0175 -16003.0108295,-4666336.76224 -16104.8628553,-4666329.26074 -16182.466671,-4666372.29924 -16210.057922,-4666459.52177 -16273.6184082,-4666512.67492 -16372.5153159,-4666511.79967 -16426.1000652,-4666474.95275 -16470.3672954,-4666402.54133 -16478.5823365,-4666339.71884 -16481.5678688,-4666271.63118 -16422.8606624,-4666198.27648 -16387.8569478,-4666129.86977 -16385.5385014,-4666043.52865 -16438.5095777,-4665953.24402 -16600.1255989,-4665879.14234 -16653.8238414,-4665878.76691 -16707.8054824,-4665850.89696 -16743.3352917,-4665823.84282 -16742.5520066,-4665760.91873 -16773.0885289,-4665666.12998 -16835.0818653,-4665593.43517 -16880.1325796,-4665583.9484 -16970.1777691,-4665591.95962 -17051.4174864,-4665626.84266 -17105.9548877,-4665662.4065 -17196.6813489,-4665742.34 -17258.7075767,-4665789.06505 -17323.9857248,-4665790.67599 -17395.0413154,-4665776.04206 -17412.1873757,-4665694.83723 -17465.4310889,-4665622.02991 -17582.3018676,-4665620.86028 -17672.4483381,-4665619.87281 -17744.7111126,-4665655.15241 -17781.6139693,-4665726.97202 -17791.2719619,-4665798.49716 -17846.0023563,-4665861.03414 -17927.3891242,-4665904.90412 -18004.550582,-4665937.96818 -18081.1624111,-4665975.55349 -18181.7198425,-4666023.57229 -18272.680055,-4666024.04744 -18378.7927244,-4665960.39511 -18418.674549,-4665896.1736 -18481.0635803,-4665832.456 -18611.2419528,-4665810.21137 -18738.1988533,-4665845.07083 -18787.6706063,-4665907.34003 -18775.6187195,-4666030.29045 -18766.0519305,-4666141.63878 -18804.2168618,-4666219.39773 -18867.8217242,-4666290.53542 -18976.3050705,-4666325.71145 -19093.2540662,-4666315.04378 -19174.8232846,-4666283.95545 -19228.633917,-4666246.59968 -19271.7278486,-4666187.23306 -19270.6032517,-4666088.34983 -19269.6263024,-4665998.45399 -19268.2865147,-4665872.09894 -19285.5795791,-4665799.88278 -19338.5948784,-4665727.58621 -19455.2247029,-4665681.45738 -19536.2694805,-4665689.36625 -19599.8278648,-4665742.51794 -19610.0981159,-4665850.48998 -19619.9257967,-4665931.49997 -19647.7282353,-4666012.21482 -19733.970093,-4666069.85954 -19826.2012081,-4666104.75467 -19919.9842697,-4666112.59956 -20028.339316,-4666122.29836 -20151.2934225,-4666111.86492 -20198.7411712,-4666105.76959 -20257.0869688,-4666103.18962 -20296.2708139,-4666107.9525 -20319.9446362,-4666117.89812 -20358.0072868,-4666131.20473 -20385.8351327,-4666172.94466 -20394.7877628,-4666228.5103 -20438.4496402,-4666278.04417 -20475.2284768,-4666358.3614 -20534.5785513,-4666423.69007 -20659.0555187,-4666464.65341 -20750.2783939,-4666471.11207 -20853.3421607,-4666451.56468 -20962.1676727,-4666409.77774 -21056.0580119,-4666329.67834 -21121.9409022,-4666243.32279 -21165.2086347,-4666170.95838 -21225.9589291,-4666092.82443 -21317.5101839,-4666016.32649 -21409.2751275,-4665950.3119 -21514.3974374,-4665915.1848 -21604.4389849,-4665923.19492 -21694.8773772,-4665940.18116 -21811.1518146,-4665959.52247 -21904.63975,-4665966.38079 -21969.7167378,-4665963.50312 -22077.1724491,-4665947.25956 -22180.3079035,-4665923.71232 -22249.7879078,-4665879.16919 -22303.0949211,-4665807.86063 -22350.0226741,-4665744.82859 -22388.6714612,-4665686.65949 -22469.3426751,-4665646.61821 -22554.2304932,-4665605.89087 -22619.315617,-4665541.05691 -22693.4532128,-4665432.3536 -22818.0989131,-4665352.89487 -22903.5224899,-4665318.63956 -22975.2834995,-4665280.49157 -23036.4842285,-4665240.81197 -23096.7368657,-4665179.68965 -23156.7401608,-4665118.57843 -23220.1731834,-4665033.33278 -23352.9242136,-4664978.99822 -23426.2744065,-4664920.295 -23498.7206582,-4664841.14653 -23559.7280245,-4664774.49526 -23640.768647,-4664691.96918 -23666.9864587,-4664623.85827 -23745.2130063,-4664562.44167 -23808.7388175,-4664530.15452 -23915.5108655,-4664515.44148 -23996.0861848,-4664478.90318 -24052.7255807,-4664443.4231 -24102.7553667,-4664382.75369 -24108.6602701,-4664318.53895 -24114.5431656,-4664253.82556 -24126.4252562,-4664194.84264 -24121.5884444,-4664147.59085 -24107.0316077,-4664061.29732 -24111.0233556,-4664004.66177 -24150.0690123,-4663955.4702 -24223.8227057,-4663900.24771 -24276.9617235,-4663836.44342 -24316.7897157,-4663759.73738 -24342.978947,-4663696.62481 -24351.2741959,-4663624.31047 -24350.3442382,-4663552.40391 -24331.2475717,-4663453.82032 -24330.0573888,-4663336.45835 -24354.746792,-4663222.44931 -24432.6635638,-4663137.06531 -24543.4518987,-4663100.19217 -24633.0483758,-4663081.24327 -24744.7552462,-4663070.81024 -24816.5237965,-4663044.15553 -24790.8503373,-4662858.92669 -24828.9126831,-4662798.78739 -24916.4274488,-4662794.91975 -24973.1890576,-4662824.38774 -25053.8421987,-4662851.80055 -25143.3928834,-4662814.86713 -25232.7507746,-4662750.96217 -25312.6687098,-4662659.99475 -25356.7437853,-4662594.59376 -25400.5475103,-4662528.70518 -25440.4337787,-4662442.00529 -25481.3778247,-4662379.24098 -25517.7503071,-4662275.20944 -25550.0883362,-4662153.36958 -25548.672104,-4662036.51875 -25547.9854783,-4661970.09832 -25580.1371425,-4661906.22391 -25588.9575398,-4661777.92899 -25602.29029,-4661683.90917 -25606.1255018,-4661572.82199 -25604.9974039,-4661479.44116 -25634.3406148,-4661414.19217 -25644.7279607,-4661355.27664 -25670.8729537,-4661274.1809 -25741.6465722,-4661174.12613 -25842.1653558,-4661102.73505 -25956.0456261,-4661039.74708 -26089.5376112,-4661024.85622 -26252.9055809,-4661024.6335 -26369.8685943,-4661014.46988 -26486.5150174,-4660985.83413 -26584.9154497,-4660940.01804 -26673.2036124,-4660897.14688 -26734.4383891,-4660829.99016 -26793.2099639,-4660774.93329 -26853.0348841,-4660675.86312 -26877.976407,-4660578.8337 -26912.9190677,-4660459.37915 -26983.8166126,-4660350.82698 -27036.9109496,-4660269.04171 -27073.8142293,-4660193.96719 -27140.6584699,-4660118.0698 -27182.7817118,-4660019.78228 -27213.0696213,-4659925.01533 -27265.5703261,-4659846.75404 -27319.0040208,-4659800.92694 -27362.2797763,-4659723.07324 -27405.9519996,-4659654.19526 -27438.2928879,-4659549.34559 -27446.1490637,-4659450.07397 -27453.6883245,-4659315.34341 -27470.5423682,-4659216.17408 -27559.5389584,-4659115.81723 -27640.3046454,-4659106.25494 -27739.4178931,-4659104.87547 -27802.6742252,-4659140.05279 -27857.396169,-4659202.5863 -27885.2943651,-4659274.2983 -27895.4113373,-4659373.27531 -27932.3750075,-4659480.5593 -28004.584109,-4659497.85432 -28091.221389,-4659451.56039 -28135.7963812,-4659403.12735 -28168.256839,-4659346.23631 -28154.1349893,-4659224.4541 -28164.7338699,-4659125.06206 -28242.8572475,-4659072.6495 -28327.2308875,-4659076.91709 -28405.8142435,-4659142.39339 -28460.4989528,-4659198.43316 -28505.9533607,-4659294.35008 -28556.3901195,-4659305.11246 -28599.2363004,-4659296.72513 -28637.7920819,-4659276.03695 -28683.350033,-4659238.55228 -28693.6499559,-4659177.64415 -28705.312907,-4659096.69131 -28705.543364,-4659005.75151 -28727.6786577,-4658941.32307 -28744.5327054,-4658842.15499 -28779.9928979,-4658796.62307 -28825.8819788,-4658783.60506 -28875.4746344,-4658780.91535 -28918.7902302,-4658777.50363 -28953.9301365,-4658786.94326 -28996.2570119,-4658812.05307 -29013.7486095,-4658868.73595 -29047.3933445,-4658895.22836 -29078.7195173,-4658891.84647 -29101.9338069,-4658851.85157 -29082.6074123,-4658759.27775 -29055.4868637,-4658682.53605 -29047.4524359,-4658568.47984 -29140.3434379,-4658505.4237 -29224.7305192,-4658498.69956 -29262.7889604,-4658512.00724 -29312.7791889,-4658552.26655 -29367.3530546,-4658605.81288 -29412.7823868,-4658650.27041 -29494.4069488,-4658694.12868 -29557.323269,-4658693.34864 -29601.633643,-4658638.93289 -29637.1958669,-4658584.40391 -29672.3837661,-4658521.39815 -29743.8918352,-4658466.2811 -29833.6313119,-4658456.32295 -29923.8118177,-4658473.32412 -30036.5374404,-4658582.25652 -30170.8170593,-4658585.31951 -30268.9064512,-4658532.52601 -30312.0338862,-4658428.70195 -30416.1515425,-4658393.62823 -30562.5079227,-4658398.65608 -30665.7119168,-4658439.06295 -30733.3780119,-4658410.09542 -30742.3164326,-4658403.20585 -30795.80773,-4658364.37264 -30871.9490575,-4658301.05792 -30915.01312,-4658263.68446 -31016.6299519,-4658234.21706 -31129.2378592,-4658187.77751 -31194.092455,-4658089.48981 -31256.8645028,-4657989.29578 -31330.5772744,-4657893.61479 -31432.8018335,-4657849.63258 -31503.907415,-4657841.99647 -31607.4878323,-4657783.46612 -31732.3199737,-4657764.96457 -31762.4260442,-4657705.68184 -31786.5343584,-4657657.65512 -31804.2343459,-4657622.90093 -31849.0368705,-4657607.93318 -31890.6578385,-4657617.0866 -31911.3371453,-4657644.15099 -31942.9350486,-4657675.22964 -31959.948483,-4657715.4454 -31972.2101019,-4657749.8758 -31986.8049039,-4657820.17418 -32024.0373624,-4657927.94192 -32045.8714972,-4658043.38392 -32084.3117119,-4658093.64457 -32139.17813,-4658165.16207 -32167.119581,-4658254.8548 -32186.0190745,-4658326.46172 -32222.6638153,-4658398.28416 -32268.2610543,-4658452.22531 -32331.7639588,-4658487.3902 -32439.9596905,-4658522.08006 -32540.1986159,-4658540.6346 -32672.6135271,-4658563.76322 -32747.0497533,-4658608.9365 -32819.5944999,-4658662.18675 -32874.4389864,-4658733.20486 -32902.0866293,-4658804.92447 -32966.1423787,-4658903.51286 -33007.3895452,-4658921.17524 -33750.8986533,-4658148.94369 -35355.9421663,-4656482.89996 -35656.8073362,-4656174.36642 -39952.2510442,-4651773.97376 -41474.5311899,-4650151.73735 -42472.7763993,-4649090.15396 -39499.508129,-4646132.47144 -26314.476548,-4633411.087 -18793.3500175,-4626153.88704 -17283.7296627,-4624696.66894 -15415.9726291,-4622894.35739 -13696.1303471,-4621234.90445 -14462.0381976,-4620434.87153 -14572.410468,-4620319.61215 -14654.582683,-4620233.5691 -14614.7025841,-4620184.35084 -14519.5107832,-4620207.00789 -14446.1238043,-4620271.18085 -14382.7012413,-4620271.96035 -14318.499159,-4620209.31724 -14254.2970755,-4620146.67405 -14231.9061065,-4620103.1851 -14211.1204798,-4620062.12412 -14188.7637808,-4619956.67579 -14156.2731253,-4619893.64274 -14039.7092122,-4619873.26557 -13955.2790002,-4619884.9582 -13902.4801711,-4619917.25047 -13849.970668,-4619939.03721 -13829.3419746,-4619981.41267 -13797.9911362,-4620024.2578 -13766.8278359,-4620077.08797 -13767.820347,-4620162.48669 -13768.7692331,-4620246.888 -13769.5087838,-4620320.80558 -13748.8221653,-4620384.66916 -13728.4030288,-4620437.52848 -13644.3334272,-4620491.67707 -13527.9820362,-4620493.27626 -13464.287756,-4620493.56811 -13380.2360702,-4620536.72347 -13274.7180818,-4620580.31959 -13228.2343477,-4620562.86896 -13189.9265367,-4620549.55714 -13125.7236237,-4620486.91351 -13019.1049124,-4620414.13586 -12934.8216057,-4620446.30881 -12850.9208911,-4620521.43634 -12786.0284377,-4620505.79134 -12766.0891055,-4620501.16847 -12733.8071507,-4620448.6186 -12680.7270115,-4620417.4661 -12595.4763067,-4620376.23044 -12447.1407997,-4620377.73151 -12358.5668305,-4620386.10845 -12320.2534353,-4620389.78542 -12214.0309863,-4620337.47619 -12118.3070004,-4620296.69905 -12075.9089761,-4620275.57144 -12032.7047929,-4620275.96493 -11991.0185774,-4620276.79159 -11907.0855815,-4620288.46287 -11875.1242329,-4620288.86355 -11825.6642065,-4620289.03139 -11800.6848283,-4620289.12623 -11694.8444949,-4620279.77162 -11609.4236743,-4620217.55671 -11545.4475691,-4620154.40237 -11439.1882427,-4620124.07972 -11375.9733703,-4620135.3431 -11291.6924749,-4620179.00862 -11228.4157111,-4620200.26821 -11101.3575396,-4620191.34316 -10963.8043143,-4620182.37813 -10868.4181599,-4620183.55824 -10762.5369943,-4620184.69838 -10678.461328,-4620227.35581 -10636.3872408,-4620270.67187 -10563.2471121,-4620334.83614 -10510.8256777,-4620398.5926 -10468.849592,-4620409.92519 -10405.5761546,-4620442.67747 -10300.322801,-4620475.27 -10271.3533224,-4620475.53966 -10215.4092259,-4620475.99158 -10088.3898418,-4620456.57176 -10024.1633908,-4620393.42763 -9960.19162372,-4620313.28318 -9949.06308955,-4620298.78029 -9895.56290132,-4620246.65876 -9810.11890718,-4620183.9441 -9725.30675643,-4620164.17413 -9619.42452496,-4620165.31426 -9513.96097343,-4620187.42263 -9419.33123692,-4620251.52939 -9302.9573811,-4620264.12214 -9218.31054357,-4620253.83884 -9175.51450622,-4620212.24108 -9090.30122698,-4620160.50888 -9025.1437432,-4620001.96536 -9039.84675143,-4619938.36133 -9040.50716858,-4619867.87713 -9009.11269609,-4619812.78803 -8973.59023528,-4619800.35276 -8903.08057209,-4619821.9293 -8851.3403747,-4619815.70086 -8810.95062242,-4619771.99868 -8736.04121876,-4619698.82796 -8640.14156224,-4619625.57709 -8513.01868168,-4619626.64759 -8428.94480689,-4619680.79804 -8291.17905256,-4619661.34791 -8195.84885684,-4619641.03853 -8111.94408413,-4619716.16857 -8026.46828719,-4619726.90788 -7889.28080791,-4619686.4455 -7804.06681407,-4619634.71232 -7718.49233056,-4619540.52133 -7633.40753334,-4619520.2627 -7506.55474148,-4619521.82089 -7389.92584138,-4619522.93132 -7326.49932809,-4619523.71041 -7178.42450225,-4619514.20547 -7114.78854104,-4619504.50022 -7019.64852926,-4619505.66886 -6944.88921441,-4619464.47047 -6796.81390098,-4619454.96542 -6722.64238912,-4619455.71536 -6605.71417515,-4619404.37099 -6478.45980914,-4619373.9662 -6382.34544457,-4619415.65261 -6288.91764555,-4619450.22571 -6187.91950014,-4619443.15602 -6082.98050082,-4619420.26864 -6010.42125087,-4619377.97409 -5917.32990769,-4619346.07291 -5845.87358318,-4619363.19384 -5781.88375143,-4619402.47415 -5750.81076869,-4619440.31288 -5722.53364749,-4619473.53191 -5654.63213279,-4619520.4791 -5569.37651955,-4619479.24019 -5526.38828906,-4619416.16216 -5483.42191972,-4619353.58283 -5398.39376933,-4619311.83407 -5292.50753101,-4619312.97342 -5228.26082327,-4619260.82016 -5164.24163333,-4619208.15718 -5057.61633447,-4619135.37319 -4972.06206951,-4619041.67831 -4854.4753881,-4618935.39441 -4820.6448614,-4618858.92255 -4831.48854905,-4618758.50752 -4796.38029489,-4618687.08856 -4733.34390306,-4618656.86858 -4662.53325492,-4618625.98959 -4641.11107027,-4618598.94435 -4605.18514546,-4618583.02792 -4582.56332759,-4618568.52773 -4564.11942078,-4618495.37946 -4519.70334147,-4618336.91994 -4455.15866555,-4618232.31008 -4369.75190206,-4618159.09541 -4284.51416045,-4618106.86075 -4199.08901479,-4618044.64016 -4134.9007953,-4617970.99587 -4028.25349532,-4617897.71135 -3963.66874914,-4617803.59635 -3920.51186966,-4617719.53663 -3856.32370308,-4617645.89199 -3759.07561896,-4617604.67634 -3707.42975805,-4617594.94445 -3643.81042401,-4617574.2435 -3558.55402752,-4617533.00243 -3451.9064742,-4617459.71714 -3408.62098286,-4617344.18102 -3407.5213564,-4617256.28078 -3407.08362999,-4617206.32927 -3405.52801344,-4617079.47186 -3404.98119997,-4617027.0266 -3404.55958313,-4616994.56412 -3393.26782883,-4616942.08949 -3329.32924007,-4616868.43317 -3317.63780919,-4616783.99475 -3104.72437454,-4616680.38053 -2977.08901915,-4616618.50671 -2892.06001702,-4616576.75502 -2807.90003114,-4616503.48356 -2722.00442013,-4616464.76792 -2666.92315995,-4616462.18172 -2620.91267576,-4616444.20719 -2599.81807667,-4616424.64238 -2562.31414023,-4616389.80506 -2528.32589987,-4616326.83007 -2515.27614156,-4616268.43541 -2511.4123397,-4616180.15578 -2513.63159198,-4616168.0656 -2522.98553931,-4616119.1843 -2543.48939691,-4616045.32922 -2563.27688709,-4616006.48522 -2588.81859949,-4615956.39578 -2569.50081439,-4615931.75602 -2556.57624378,-4615893.34427 -2568.79514965,-4615852.83271 -2566.12290175,-4615797.48184 -2512.2218934,-4615713.39088 -2352.87175487,-4615651.90418 -2267.67404998,-4615589.17106 -2171.14469962,-4615484.45825 -2149.20781814,-4615399.96751 -2158.52736272,-4615304.61444 -2157.18275191,-4615188.24044 -2127.69316025,-4615119.57121 -2102.92317402,-4615061.68909 -2007.19262529,-4615020.90393 -1901.55261615,-4615022.02848 -1816.44249452,-4615001.26673 -1752.23625037,-4614938.61375 -1740.79543843,-4614854.16307 -1729.39515619,-4614759.21662 -1706.97861209,-4614663.75273 -1670.7215132,-4614548.90583 -1643.15240608,-4614484.14984 -1604.76966683,-4614446.35179 -1543.5998866,-4614424.54212 -1471.60077492,-4614412.20109 -1388.58525251,-4614399.34261 -1280.49443387,-4614361.596 -1184.61377724,-4614288.83472 -1127.86091515,-4614202.36827 -1142.04758807,-4614058.32912 -1152.65879231,-4614003.89557 -1156.75494327,-4613954.74421 -1153.97128618,-4613925.38276 -1101.99726869,-4613908.16759 -1050.16660444,-4613899.94103 -976.147281101,-4613875.6948 -911.707573677,-4613750.58636 -886.189858009,-4613692.73606 -851.956261468,-4613641.26363 -786.599760038,-4613615.13908 -723.378569645,-4613586.42251 -628.404913396,-4613540.10562 -572.372321038,-4613470.0976 -528.569117052,-4613354.08017 -463.964261311,-4613259.46104 -437.402836615,-4613149.18559 -430.738329083,-4613122.49229 -429.981508476,-4613048.06728 -429.037799608,-4612963.65607 -395.790387803,-4612826.18843 -289.015429555,-4612721.42007 -245.652111851,-4612626.8708 -202.456898903,-4612553.30235 -201.491729932,-4612468.3922 -136.70051586,-4612363.78607 -72.8714375822,-4612332.59664 32.9790739751,-4612323.23378 96.7675436649,-4612281.54836 161.16320759,-4612197.41314 225.577741889,-4612124.27252 310.439545082,-4612103.49739 415.851223329,-4612115.60315 500.750953497,-4612116.81743 596.295785279,-4612086.01524 671.038511737,-4612033.81462 692.846231092,-4611980.79817 714.591395561,-4611917.7845 768.659086065,-4611812.70831 875.474971871,-4611718.43397 981.367044685,-4611719.56649 1065.6005174,-4611741.7398 1160.7880966,-4611753.39819 1266.6804264,-4611754.53075 1436.92811351,-4611661.03085 1522.58451692,-4611587.81855 1556.78751019,-4611571.32401 1628.79398809,-4611535.99371 1671.94846833,-4611451.9276 1778.65679246,-4611400.12438 1811.69065738,-4611376.08271 1863.8334804,-4611337.88473 1917.73338211,-4611253.78851 1971.42465105,-4611180.17739 2053.17536324,-4611116.28849 2078.03255987,-4611096.38672 2089.8691814,-4610979.96759 2090.64368683,-4610916.53582 2144.31302096,-4610843.42322 2303.16382187,-4610844.87148 2367.18061072,-4610803.69414 2378.39130349,-4610718.73036 2368.87809911,-4610644.85404 2348.78980459,-4610538.53265 2286.25900793,-4610442.84903 2287.55802328,-4610315.97436 2299.24532773,-4610231.53116 2384.44360102,-4610168.7916 2490.69414035,-4610127.46124 2586.09156613,-4610128.63325 2703.00605023,-4610066.28048 2767.04460017,-4610024.6038 2851.75938596,-4610035.80311 2925.26804969,-4610069.00053 2999.08882637,-4610112.20631 3105.1722861,-4610091.85717 3243.3072685,-4610029.93201 3286.50219503,-4609956.3604 3371.86863886,-4609872.63859 3478.0124027,-4609873.78042 3530.49084281,-4609885.0697 3678.47122422,-4609918.02455 3762.72607619,-4609951.19216 3847.40068887,-4609951.89527 3932.84934756,-4609889.1656 3996.63912275,-4609847.4775 4061.22193716,-4609753.35157 4061.95489937,-4609679.42244 4009.98152074,-4609593.69441 3957.62944202,-4609550.92729 3958.38407762,-4609476.49944 4011.44719697,-4609445.8362 4085.66665662,-4609457.07618 4180.6676156,-4609490.21354 4264.50870154,-4609532.85792 4328.19107553,-4609533.6426 4413.24209089,-4609502.8783 4498.46067854,-4609451.13222 4562.89776639,-4609377.48863 4574.46180241,-4609261.55472 4607.57993453,-4609155.55821 4608.27156311,-4609071.1324 4587.99227592,-4608986.28975 4557.23840569,-4608900.98934 4526.42168588,-4608805.69143 4569.84653934,-4608721.13435 4654.2697693,-4608733.31961 4738.77765684,-4608755.00365 4812.51805857,-4608777.21661 4844.25649886,-4608777.10452 4919.24993368,-4608724.91084 4983.41562203,-4608651.75447 5047.99805955,-4608557.62709 5102.00460348,-4608431.05393 5124.73026314,-4608294.1183 5136.22990602,-4608219.65953 5136.83823752,-4608165.71397 5136.96193398,-4608145.7297 5148.43968875,-4608071.7697 5181.0966923,-4607987.74086 5256.19690843,-4607893.07308 5352.35026174,-4607819.8146 5438.15516922,-4607714.61998 5481.2866219,-4607631.04853 5566.94358893,-4607557.8308 5588.87633538,-4607473.33294 5632.25954309,-4607378.27817 5633.40759589,-4607283.37696 5592.42956903,-4607134.66181 5572.7952656,-4607017.86339 5615.73984176,-4606944.27831 5626.80044161,-4606891.28893 5711.87113883,-4606871.51762 5775.30495206,-4606872.29001 5859.98108245,-4606872.99097 5923.8314386,-4606852.79225 6008.61419504,-4606811.01948 6147.41683682,-4606728.12876 6200.85793063,-4606654.50203 6244.2601309,-4606570.44174 6245.22115048,-4606485.5268 6150.98980256,-4606388.95715 6130.33082423,-4606347.07548 6120.81700053,-4606261.70303 6163.96949932,-4606177.63174 6228.36430972,-4606093.48883 6313.97967932,-4606009.77303 6430.10212909,-4606011.34727 6493.38887118,-4606044.09662 6556.05113598,-4606108.30286 6619.31847724,-4606130.05699 6746.62527152,-4606110.13097 6800.29388369,-4606037.01329 6801.4432397,-4605930.61696 6802.38203281,-4605846.2004 6782.28876031,-4605739.87569 6783.43554661,-4605644.9735 6827.06718031,-4605549.92797 6880.69421024,-4605466.31343 6986.94731281,-4605424.97735 7040.42931013,-4605361.84605 7125.68940202,-4605320.59241 7253.10261777,-4605258.19126 7381.01247858,-4605207.30595 7466.25324356,-4605155.0567 7562.1769476,-4605092.77916 7626.40504915,-4605029.61698 7648.669922,-4604903.1525 7692.25997495,-4604797.60939 7746.15808598,-4604713.50599 7904.74552858,-4604715.43423 7958.31029835,-4604673.2954 8043.13296193,-4604653.51127 8085.53563551,-4604632.37435 8159.88351393,-4604612.13273 8234.0647494,-4604612.87351 8318.47151253,-4604614.06086 8403.8150135,-4604593.79962 8446.38448931,-4604551.68015 8489.37003976,-4604488.58906 8531.97868498,-4604468.46051 8549.23102219,-4604468.2144 8627.15354354,-4604469.11848 8701.08567035,-4604469.8483 8785.57550114,-4604492.02898 8870.50324707,-4604492.73923 8954.30592224,-4604536.37954 8975.36030777,-4604557.78907 9016.84492882,-4604632.06568 9079.55060159,-4604706.76934 9163.70720557,-4604770.91544 9248.36402199,-4604772.11382 9312.17455474,-4604741.41671 9302.01345529,-4604687.99845 9292.4547027,-4604603.62143 9250.78371454,-4604539.33171 9188.47433493,-4604432.66077 9189.62017833,-4604337.75661 9254.22345927,-4604243.12472 9360.64494732,-4604180.80416 9424.08076952,-4604181.57521 9487.3499997,-4604203.32892 9582.14879885,-4604246.94967 9666.61969141,-4604258.13478 9761.98169844,-4604248.80554 9804.80096471,-4604206.69637 9858.6582865,-4604112.09444 9891.14734107,-4604049.04387 9976.34805846,-4603986.29593 10061.2134777,-4603977.00786 10124.4830805,-4603998.76159 10187.3563209,-4604052.48288 10272.035668,-4604053.18198 10430.8759049,-4604055.1204 10515.3060167,-4604055.80862 10578.7838494,-4604067.07651 10631.3270361,-4604099.85658 10704.9271616,-4604142.55197 10725.7738951,-4604174.44775 10809.7021076,-4604249.57922 10873.1386925,-4604250.35035 10957.9851616,-4604230.06671 11043.2477359,-4604188.81101 11138.4245952,-4604189.46886 11223.082824,-4604190.6669 11320.7920317,-4604161.94903 11391.884302,-4604107.58017 11451.5571669,-4604057.2105 11496.425636,-4604019.68808 11575.2996678,-4603930.17527 11690.9828416,-4603873.25533 11769.1970291,-4603833.19066 11841.2968881,-4603784.36287 11970.3134161,-4603754.01293 12059.7511976,-4603714.43817 12156.2728712,-4603718.65276 12263.6913718,-4603730.83974 12334.1895324,-4603724.42237 12371.6630491,-4603684.57756 12435.8713337,-4603621.911 12509.9941579,-4603601.15842 12616.0219866,-4603570.80389 12669.9630512,-4603497.1936 12702.6409107,-4603412.65937 12714.0751984,-4603328.19711 12799.5052522,-4603265.95698 12884.5412204,-4603224.1903 12970.3260731,-4603119.48465 12992.506683,-4603034.99158 13025.2833585,-4602942.46492 13066.7536396,-4602868.30965 13122.5747414,-4602831.76422 13178.643215,-4602806.72439 13245.6521667,-4602788.65926 13264.4176872,-4602759.49197 13294.6027666,-4602726.32522 13328.0302103,-4602693.30001 13347.0669119,-4602663.64474 13369.421174,-4602638.13251 13410.6198885,-4602627.43668 13465.9776521,-4602635.85071 13517.7327274,-4602658.10122 13569.426581,-4602658.85866 13617.7811095,-4602655.97188 13688.4562922,-4602634.06843 13729.7126206,-4602604.88331 13778.2237294,-4602575.51511 13800.9581309,-4602547.02069 13828.9519961,-4602518.25609 13853.4244476,-4602472.84507 13885.9870134,-4602425.28831 13904.922719,-4602415.11981 13960.8309562,-4602439.55073 14019.3837607,-4602472.09359 14067.0297172,-4602491.16607 14131.216304,-4602491.96904 14179.4186199,-4602492.57399 14230.235888,-4602484.79684 14281.0888871,-4602459.02916 14321.6070145,-4602435.3092 14364.6509519,-4602416.69729 14431.4982082,-4602396.62558 14490.5265245,-4602378.21165 14554.9014689,-4602357.53219 14590.0295166,-4602337.07531 14638.521159,-4602296.71075 14662.8828161,-4602265.28842 14681.757328,-4602233.62656 14706.281292,-4602204.21042 14725.3062194,-4602180.55161 14749.4599985,-4602159.61559 14795.3050663,-4602122.63385 14857.2750763,-4602088.3551 14934.9107832,-4602078.74973 14985.9263219,-4602054.98796 15010.1692263,-4602020.56162 15042.9912624,-4601978.51322 15083.1097102,-4601946.77897 15115.2982981,-4601930.69162 15166.2030334,-4601920.91886 15203.6808545,-4601921.05545 15243.8923756,-4601915.81376 15284.1593374,-4601903.57749 15295.0366846,-4601900.55381 15320.8592537,-4601887.18725 15322.6704958,-4601885.76695 15407.8939106,-4601834.01093 15482.4339999,-4601792.28399 15536.1675416,-4601729.1576 15621.3494627,-4601666.90407 15748.4158703,-4601646.96133 15832.9111743,-4601669.14157 15917.8439728,-4601669.85011 15991.7806488,-4601670.57846 16045.4925938,-4601607.9506 16057.0922822,-4601502.50199 16111.0139294,-4601417.89253 16195.5925263,-4601398.09412 16301.3323499,-4601420.20197 16384.9968077,-4601484.32814 16459.4524366,-4601496.0744 16512.3332413,-4601475.39224 16534.7212998,-4601380.40988 16609.1985704,-4601328.68375 16715.3127705,-4601319.32118 16810.4941909,-4601319.97701 16937.2076359,-4601342.50055 17053.6117465,-4601343.58292 17170.3483694,-4601302.69728 17234.995513,-4601218.55508 17278.3368203,-4601112.99141 17300.4952141,-4601028.9938 17343.8363878,-4600923.42999 17408.2121869,-4600839.77542 17472.6097382,-4600755.62193 17537.0072702,-4600671.46834 17664.3032244,-4600652.03407 17790.8298328,-4600696.04009 17896.5711752,-4600718.1477 18002.2709458,-4600729.75782 18066.480891,-4600667.08689 18109.8002955,-4600562.02114 18153.2247574,-4600477.45153 18258.883104,-4600478.56394 18374.9346012,-4600522.11286 18511.6273665,-4600608.04586 18596.1030023,-4600630.72484 18701.9912519,-4600620.85187 18760.4591513,-4600592.41602 18787.0088435,-4600579.58034 18851.0530647,-4600537.89324 18852.176406,-4600431.98492 18820.7880983,-4600389.63163 18715.0676662,-4600367.02524 18723.0721528,-4600292.40481 18727.1238212,-4600251.09837 18812.7246296,-4600156.37356 18887.6817669,-4600093.67109 18983.5706527,-4600020.88637 19089.6252122,-4599990.02851 19195.6998072,-4599970.16708 19301.6085011,-4599971.29 19365.4233363,-4599940.58802 19440.3607666,-4599866.88866 19514.8392754,-4599815.16045 19537.0825522,-4599740.661 19516.7310633,-4599645.81027 19464.951849,-4599549.58827 19403.0484989,-4599421.93693 19414.0655966,-4599358.44309 19457.2603491,-4599284.85777 19552.7539731,-4599244.04214 19553.710389,-4599159.11757 19533.5055839,-4599095.26102 19470.9988748,-4599010.06663 19493.2602981,-4598883.5885 19536.7042339,-4598810.01383 19600.6646769,-4598747.33022 19707.7174093,-4598642.0441 19687.3650458,-4598547.19337 19699.0680906,-4598462.23772 19752.9258444,-4598367.62556 19860.3299243,-4598231.36652 19861.8664581,-4598104.48357 19862.7802265,-4598009.06105 19905.9324896,-4597924.97725 19938.287557,-4597887.90374 20009.0508439,-4597801.0258 20040.3227755,-4597754.40871 20089.3189576,-4597679.57607 20164.7677275,-4597588.40404 20185.4745286,-4597480.34987 20186.6186706,-4597362.44593 20166.9195607,-4597241.13389 20203.9391165,-4597114.29874 20230.9829902,-4596975.53295 20257.4285286,-4596930.70428 20255.5752932,-4596921.62697 20256.2356753,-4596849.18408 20257.4399107,-4596764.2698 20258.3309127,-4596669.34575 20280.3013066,-4596595.33316 20323.5150583,-4596532.74286 20324.4914068,-4596447.31878 20283.1215275,-4596341.55527 20241.4208199,-4596277.761 20189.0367185,-4596223.9968 20126.5276351,-4596138.80326 20095.9264412,-4596032.50998 20118.2691181,-4595927.02593 20140.6117118,-4595821.54184 20163.1412525,-4595694.57427 20185.3184003,-4595610.07467 20143.8246675,-4595535.79382 20102.310555,-4595450.51644 20060.6515236,-4595397.22026 20019.1155863,-4595312.44183 20041.6445799,-4595185.47425 20106.0399395,-4595101.31584 20191.3063478,-4595060.05086 20276.9466235,-4594975.81888 20277.8783987,-4594891.39246 20257.9389467,-4594764.07252 20216.1144425,-4594731.76108 20185.1178885,-4594657.4383 20206.6943151,-4594603.90019 20206.8580811,-4594594.41104 20218.3716817,-4594530.93794 20282.7027934,-4594436.78016 20325.4805818,-4594384.16618 20295.1272408,-4594277.88393 20327.4072188,-4594225.31208 20370.5571828,-4594141.22648 20403.0660905,-4594077.66882 20499.3673919,-4593983.90459 20500.3202481,-4593898.97909 20501.2935347,-4593825.05022 20459.3419748,-4593761.24572 20428.3242682,-4593675.92637 20461.247319,-4593591.39475 20525.2685786,-4593550.20223 20642.0281899,-4593508.80924 20749.2208862,-4593383.03161 20813.5937507,-4593299.37058 20857.428771,-4593193.82244 20910.8471988,-4593120.67959 20954.2461053,-4593036.60404 20976.172225,-4592952.09243 20998.5548433,-4592857.10471 21041.8907157,-4592751.5345 21063.9013171,-4592688.01841 21022.6126018,-4592603.25091 21023.3357134,-4592529.31079 21045.283249,-4592444.30015 21109.4486085,-4592371.12536 21215.9600704,-4592329.7843 21364.419536,-4592289.27148 21429.0208642,-4592194.62358 21419.4323224,-4592099.24186 21410.050757,-4591993.37315 21474.6725504,-4591909.72178 21538.6308213,-4591847.03344 21644.5420694,-4591848.14958 21750.4110156,-4591838.76784 21835.6570228,-4591786.50331 21857.645581,-4591723.48548 21879.1569843,-4591659.94703 21943.0355717,-4591639.23912 22006.478406,-4591640.00413 22069.5702923,-4591683.23795 22153.3287576,-4591768.35695 22227.0832387,-4591790.5635 22301.6452604,-4591759.82502 22344.4227478,-4591707.20923 22408.0728172,-4591697.48723 22450.8503202,-4591644.87137 22494.10495,-4591592.77607 22516.0521994,-4591507.76424 22516.9817518,-4591423.33608 22517.8905519,-4591327.91109 22561.0819474,-4591254.32087 22678.2351877,-4591192.4498 22794.9745374,-4591151.55285 22827.6472448,-4591067.00799 22881.9368088,-4590950.91681 23010.1666768,-4590847.04346 23137.468474,-4590816.10276 23249.728705,-4590780.50817 23310.9001851,-4590718.6966 23372.126494,-4590649.88991 23375.8690124,-4590638.55713 23393.8871272,-4590586.36134 23437.1001864,-4590512.27146 23501.4727792,-4590428.60709 23607.1363734,-4590429.71131 23734.2733224,-4590431.25115 23839.8151635,-4590463.83874 23902.515243,-4590539.04408 23965.6301952,-4590581.77923 24008.2641388,-4590561.1446 24082.3281468,-4590530.38328 24166.9960236,-4590531.57261 24273.6361886,-4590533.21931 24319.390943,-4590544.20935 24384.8019064,-4590626.03081 24440.4092,-4590703.42668 24502.4396576,-4590748.11415 24587.985518,-4590757.83888 24694.270922,-4590727.48165 24758.0659382,-4590685.7766 24843.6634094,-4590602.5363 24909.8535745,-4590580.42864 24955.6105305,-4590568.42693 24989.4709945,-4590548.40959 25018.733883,-4590519.1951 25056.1176287,-4590515.82544 25101.9151449,-4590537.31374 25151.8010059,-4590562.47895 25184.6370797,-4590600.39669 25200.9884194,-4590638.09612 25312.9071508,-4590684.95726 25435.4161212,-4590672.30069 25472.6889371,-4590573.9592 25473.4101046,-4590511.5123 25481.9488448,-4590470.39867 25499.1414148,-4590437.15944 25566.3222302,-4590375.10858 25587.8979931,-4590321.56735 25621.5659148,-4590271.55182 25651.1227736,-4590229.85424 25717.9397136,-4590239.2627 25792.7916668,-4590265.01568 25834.2734208,-4590282.31741 25859.2165187,-4590294.90004 25900.9516128,-4590266.22862 25914.1748774,-4590232.3165 25927.3896722,-4590169.91379 25944.7249306,-4590116.18764 25953.8418567,-4590033.11342 25979.0382358,-4589999.72281 26071.0612189,-4589992.73516 26137.4012571,-4590001.62292 26187.5814905,-4590014.30523 26207.7730079,-4590044.17491 26236.6184337,-4590081.91902 26261.3972047,-4590115.48735 26290.0158703,-4590141.2257 26319.0568741,-4590174.4799 26414.76692,-4590174.65061 26502.3985443,-4590159.47448 26531.0957269,-4590154.72662 26658.2356633,-4590156.26648 26796.1821588,-4590104.79509 26923.3440999,-4590105.83604 27039.0940902,-4590139.36884 27133.3333426,-4590224.94696 27270.0639305,-4590321.87314 27375.7307013,-4590322.97758 27449.9034184,-4590312.71332 27587.9565741,-4590293.23591 27715.2620394,-4590273.79009 27799.7046653,-4590274.46974 27926.5964206,-4590275.99898 28074.9840449,-4590277.46501 28202.2267757,-4590236.52337 28329.9477673,-4590184.60606 28415.3831082,-4590122.34929 28479.5730824,-4590048.67031 28564.759026,-4589986.40251 28649.4516828,-4589987.09289 28759.5464008,-4589966.8969 28830.3467243,-4589959.48449 28892.8614939,-4589947.21257 28946.6371919,-4589906.06905 29010.8481245,-4589843.38707 29096.6561024,-4589738.15964 29161.6314131,-4589612.03095 29215.9229373,-4589495.93342 29247.2398049,-4589425.32034 29248.3679817,-4589422.37043 29312.578864,-4589359.68805 29376.4610597,-4589338.97804 29535.2639459,-4589319.40349 29588.9555565,-4589245.76602 29664.0363278,-4589151.56686 29749.0584171,-4589110.28419 29834.1656885,-4589089.99864 29929.3361086,-4589091.14484 30035.2120812,-4589081.76075 30162.7060067,-4589040.82829 30227.0815256,-4588957.15893 30312.889739,-4588851.92991 30366.7883294,-4588767.80404 30409.9605407,-4588683.21092 30443.2120167,-4588556.6984 30496.9245311,-4588494.05762 30571.0347065,-4588473.79246 30655.7287997,-4588474.48196 30761.2343097,-4588496.57162 30920.1023977,-4588498.49221 31057.4961347,-4588499.97739 31195.1394707,-4588501.47346 31332.9471985,-4588481.983 31407.821756,-4588398.27 31547.1791111,-4588251.38488 31581.4539489,-4588221.88681 31643.2788664,-4588168.09611 31760.047768,-4588126.69522 31845.3205045,-4588085.42215 31941.6489466,-4587991.14628 32016.9162947,-4587875.45911 32102.7033046,-4587770.72682 32167.1008787,-4587686.55666 32210.6440261,-4587570.48734 32233.1677832,-4587455.00221 32234.509579,-4587338.09482 32277.8239739,-4587233.01214 32331.9082832,-4587127.39862 32407.1961595,-4587022.70825 32492.8405376,-4586938.4629 32599.645858,-4586844.64182 32728.2119981,-4586687.28664 32824.5829929,-4586603.50788 32962.948751,-4586531.05465 33058.1644567,-4586542.69807 33195.3967544,-4586565.16831 33301.6461394,-4586524.3072 33369.5241367,-4586457.78219 33386.0653202,-4586439.50774 33496.2066831,-4586429.80719 33626.889117,-4586441.99505 33743.8718722,-4586476.08018 33891.1266485,-4586497.98715 34040.9322155,-4586490.01358 34104.6224133,-4586450.79824 34171.1028769,-4586364.71734 34235.6935383,-4586322.04207 34340.9095752,-4586345.11787 34467.6442905,-4586367.63102 34615.9544764,-4586348.09534 34701.3499334,-4586275.33417 34797.1022138,-4586223.01838 34914.4719921,-4586150.64937 35041.6213795,-4586140.68928 35232.1771856,-4586132.48999 35338.4071676,-4586080.63007 35402.2703709,-4586060.41662 35614.630578,-4585999.18084 35784.1680072,-4585980.06893 35910.8614398,-4585992.08303 36069.7151771,-4585983.0032 36187.3362005,-4585899.14726 36315.5130316,-4585773.76163 36401.1378186,-4585690.012 36539.3433376,-4585638.54359 36729.9014013,-4585630.3437 36878.6492469,-4585589.33152 37005.5504821,-4585590.85712 37111.0400934,-4585613.44501 37290.7509472,-4585636.26493 37428.7718311,-4585606.28273 37513.2850239,-4585628.45739 37596.6009532,-4585724.0616 37775.9411559,-4585789.85498 37871.1394297,-4585790.50047 37997.528097,-4585855.48836 38060.0305477,-4585941.18912 38122.3907203,-4586047.37872 38153.5599198,-4586100.72302 38226.7899993,-4586175.3939 38321.5743978,-4586208.51373 38438.2271254,-4586210.0937 38543.903435,-4586211.19575 38649.6225608,-4586222.79714 38733.7656213,-4586276.44873 38796.2470809,-4586351.15192 38774.5278421,-4586425.18815 38837.4227445,-4586478.91447 38921.5230912,-4586522.06697 39048.2621399,-4586544.58155 39120.4331098,-4586563.22044 39138.0628867,-4586497.00407 39149.1615474,-4586454.49758 39160.2279778,-4586406.99088 39192.9778128,-4586337.93365 39251.9966757,-4586285.51651 39300.3521553,-4586254.12993 39361.0977546,-4586167.79593" style="stroke-linejoin:round;stroke:#000;stroke-width:1px;fill:none" /></g></g></svg>