<svg xmlns="http://www.w3.org/2000/svg" baseProfile="full" height="84715.6131111" version="1.1" viewBox="-50708.866013,4849668.540100,153650.659790,84715.613111" width="153650.65979"><defs><style type="text/css">polyline,line,rect,path,polygon,.polygon{fill:none;stroke:#000;stroke-width:1px;stroke-linejoin:round;}</style></defs><g fill_rule="evenodd" transform="scale(1,-1)"><g class="id" id="62007"><polygon class="_62007" id="None" points="-50741.9733299,-4853385.50849 -50536.040755,-4853381.83476 -44859.9385424,-4853281.02836 -30806.8376025,-4853030.75168 -23962.1826856,-4852904.555 -20583.3938966,-4852842.45978 -7251.99452425,-4852534.85192 -7248.66718305,-4852538.27628 -5278.71543795,-4854418.49134 -4693.4772377,-4854971.68124 -3602.45010845,-4856002.86099 -3477.74889555,-4856122.52336 814.177988908,-4860228.78535 934.926659425,-4860097.0612 1276.21732189,-4859758.85834 1899.15180382,-4859141.80134 2693.43101084,-4858353.38273 2701.12008921,-4858339.71001 2863.82121345,-4858184.03952 4928.8359682,-4856133.48177 10851.5735586,-4850252.15231 13406.8843565,-4850183.83267 13981.9408548,-4850168.32169 14133.8836222,-4850166.88353 19876.8108857,-4850119.94625 38089.7393088,-4849984.05657 42144.0130344,-4849937.41249 52049.7885592,-4849849.05314 51971.97123,-4856720.37532 51899.0943957,-4865484.87975 51816.0870451,-4873015.03868 51663.7708828,-4883107.84014 51737.2412167,-4883129.65862 51917.8262877,-4883256.99864 52185.1558691,-4883451.33781 52462.2111859,-4883556.98741 52572.0000141,-4883549.489 52578.7440348,-4883549.33541 52653.711206,-4883538.13167 52797.6621576,-4883516.36028 52907.6426806,-4883484.36659 52965.9186032,-4883442.55446 53012.4203302,-4883388.51511 53055.2862125,-4883273.58117 53099.4371031,-4883204.10116 53146.7436395,-4883119.55489 53183.9353911,-4883062.72878 53227.7460262,-4883000.25402 53283.7170885,-4882955.99553 53339.8241754,-4882906.73583 53425.7011991,-4882880.78938 53470.9782271,-4882860.76552 53516.1305884,-4882846.24246 53574.9401462,-4882805.91796 53639.9263342,-4882773.44987 53693.4687134,-4882754.2375 53742.5947125,-4882738.62438 53796.9423603,-4882699.901 53835.3838993,-4882665.03848 53849.0861564,-4882630.23943 53846.4151037,-4882556.82778 53819.5935828,-4882443.48114 53786.0639966,-4882375.77015 53703.4289968,-4882269.69186 53642.9230983,-4882191.59904 53584.6652074,-4882113.45499 53564.4872033,-4882039.44215 53549.9854639,-4881951.30529 53522.4608264,-4881850.96953 53464.7006161,-4881717.83449 53451.0491449,-4881590.19292 53451.0009735,-4881511.22345 53472.3215021,-4881470.75305 53508.2079689,-4881411.45802 53567.3009996,-4881350.63518 53570.7182891,-4881347.05871 53645.1042163,-4881277.39101 53697.5787011,-4881233.21273 53784.7721925,-4881188.24426 53897.7168546,-4881187.67287 54014.8742648,-4881207.4979 54138.1634073,-4881255.17281 54211.9967495,-4881303.97331 54266.1325967,-4881376.71324 54334.8017165,-4881473.11327 54402.9975302,-4881669.48623 54450.9243602,-4881776.85428 54490.2678813,-4881880.41917 54528.931175,-4882008.99003 54586.589727,-4882159.61989 54594.8912978,-4882216.90913 54598.7537851,-4882276.79847 54616.5468734,-4882333.8716 54658.670586,-4882394.88909 54689.6663914,-4882417.1747 54737.5095902,-4882411.08736 54785.136687,-4882395.50855 54824.6685983,-4882375.61576 54873.3398388,-4882351.01662 54957.1143863,-4882287.63279 55029.264055,-4882251.50338 55142.7525434,-4882241.92239 55257.5589192,-4882257.30184 55350.362721,-4882283.17836 55461.5251302,-4882314.13479 55559.5176642,-4882348.38986 55656.3076353,-4882406.66304 55734.3076368,-4882462.8649 55823.1275232,-4882522.31903 55943.9184561,-4882581.0452 56065.3339839,-4882645.25494 56167.015984,-4882676.92668 56260.0809706,-4882714.29245 56368.9726311,-4882755.29627 56461.925614,-4882831.64932 56532.8980827,-4882897.50707 56629.2236747,-4882990.27675 56709.8353751,-4883062.41235 56758.3628761,-4883141.27611 56811.023264,-4883226.04338 56849.1963743,-4883300.14479 56901.1866297,-4883377.43017 56905.5123932,-4883380.83029 56963.9616347,-4883434.47774 57055.6296099,-4883465.37731 57152.7119077,-4883470.66356 57234.2167786,-4883461.31045 57340.6627131,-4883405.9073 57420.8830454,-4883362.09709 57494.8481701,-4883328.9252 57598.2853584,-4883273.09093 57694.9213195,-4883203.91693 57702.2893394,-4883198.25133 57827.9565764,-4883152.90664 57966.6914606,-4883110.76307 58136.6708343,-4883079.90334 58309.1036718,-4883079.97542 58442.471197,-4883109.42562 58583.2307883,-4883167.19603 58732.8350936,-4883240.25872 58875.2978679,-4883306.98652 59103.4463345,-4883449.23172 59308.9209952,-4883561.50524 59527.9631489,-4883687.96364 59654.3285341,-4883794.04152 59756.8190197,-4883916.15667 59792.1456189,-4884062.792 59779.7075046,-4884164.03412 59764.7365436,-4884241.84352 59733.2234524,-4884306.53522 59681.014265,-4884384.19325 59636.9911288,-4884470.16141 59600.7899454,-4884548.45449 59609.9528622,-4884566.73825 59613.1082407,-4884771.08323 59710.2428116,-4884932.30399 59790.2674426,-4885077.42109 59882.8728239,-4885248.24083 60059.7052545,-4885386.65391 60256.8244757,-4885505.1125 60361.1065506,-4885574.20721 60414.1274524,-4885608.98438 60557.4067067,-4885667.69434 60656.951941,-4885693.4147 60748.377481,-4885680.83593 60918.7862346,-4885668.95655 61055.5762486,-4885618.35954 61156.071604,-4885587.08187 61322.5470293,-4885490.32758 61445.2006986,-4885411.56477 61540.9383237,-4885368.90048 61638.3182085,-4885255.72828 61714.6153681,-4885138.53839 61812.8703706,-4885041.83958 61818.7281882,-4885035.70865 61942.9844863,-4884994.39413 62104.833015,-4885001.70248 62316.909269,-4885052.84761 62450.0362902,-4885093.79625 62600.851577,-4885143.33804 62714.359625,-4885167.74071 62835.8127418,-4885156.9772 62995.9552412,-4885122.3421 63158.2550291,-4885094.65492 63311.0211033,-4885120.16233 63372.7126781,-4885118.75691 63490.623731,-4885117.07031 63645.7499937,-4885125.53117 63810.2293583,-4885105.79099 63976.673124,-4885095.50199 64238.1509715,-4885077.55041 64397.9549516,-4885104.89646 64517.729821,-4885152.14612 64690.0431982,-4885158.21621 64883.9604562,-4885158.29651 65093.0554214,-4885144.53695 65261.8464414,-4885105.707 65454.5016953,-4885083.326 65632.5802023,-4885068.27403 65794.6852716,-4885054.08576 65923.0157289,-4885038.16803 65938.7164547,-4885036.31102 66080.1480972,-4885025.09264 66174.7739721,-4885043.42789 66185.3207637,-4885045.68652 66277.2327803,-4885054.5878 66452.3833806,-4885075.58657 66579.7154929,-4885081.68181 66722.3840213,-4885069.93547 66839.895699,-4885072.75598 66842.3932833,-4885072.69908 66869.8894673,-4885073.07225 67014.2395576,-4885091.27416 67161.6884481,-4885102.90837 67301.5306847,-4885109.71811 67432.267148,-4885100.74249 67518.7923292,-4885015.80884 67579.9116974,-4884956.44273 67654.6982857,-4884871.77663 67772.5438041,-4884757.64267 67886.3055671,-4884705.57375 67892.4925986,-4884702.93396 68000.656124,-4884624.50467 68134.2828571,-4884534.00073 68267.4788371,-4884457.50035 68494.6388503,-4884359.3688 68574.230831,-4884343.0626 68692.4466227,-4884376.8533 68787.2210875,-4884445.66203 68896.1882968,-4884556.1281 68973.538421,-4884660.81721 69123.8324658,-4884841.30889 69209.2970896,-4884896.33573 69383.0748058,-4884988.83246 69493.7747656,-4885021.79423 69616.2352871,-4885044.49267 69742.6553046,-4885021.62203 69883.6172752,-4884989.92411 69967.2778943,-4884856.07981 70057.7109581,-4884844.02445 70171.7039161,-4884900.89994 70250.2187086,-4884925.09923 70403.8073802,-4884954.08525 70545.6023826,-4885013.82557 70701.3936471,-4885051.75705 70894.3775098,-4885131.8209 70965.3562911,-4885198.17183 71044.487059,-4885282.32848 71127.0011694,-4885372.40513 71203.7633052,-4885528.08175 71292.2266147,-4885627.01839 71410.2162858,-4885705.79143 71574.6938356,-4885785.00442 71723.3332235,-4885838.09076 71934.6277774,-4885921.23432 72046.3727183,-4885989.1544 72154.5092435,-4886085.14321 72221.5393664,-4886186.56645 72444.4793498,-4886429.86681 72568.7412693,-4886608.44768 72749.3484822,-4886847.21446 72873.3587273,-4886992.81638 72970.5518621,-4887091.05254 73154.6022303,-4887206.79936 73258.887107,-4887254.39809 73397.5384655,-4887351.68885 73541.2805468,-4887354.40943 73699.4395909,-4887353.80283 73863.0587854,-4887351.5725 73996.856835,-4887367.51336 74139.1803557,-4887384.75912 74262.5274097,-4887468.40499 74367.26862,-4887557.97216 74520.4273425,-4887655.93081 74887.9247743,-4887740.50725 75096.8964205,-4887765.7285 75219.0951756,-4887831.90847 75268.9708298,-4887915.22943 75308.9948907,-4888026.76101 75362.3521924,-4888218.94825 75460.2766979,-4888393.12767 75585.4317061,-4888523.20769 75640.6027461,-4888674.37357 75820.0486648,-4888873.18022 75940.9572744,-4888992.36195 76098.7737045,-4889141.18652 76229.4941523,-4889307.12046 76325.3933048,-4889414.37826 76481.5035843,-4889521.26216 76614.6469715,-4889607.18055 76788.4406517,-4889678.67846 76971.5061741,-4889718.4807 77124.8074084,-4889767.95717 77278.934792,-4889787.92971 77465.6074197,-4889799.6637 77674.0125104,-4889734.44107 77863.7769626,-4889662.64734 78019.0252482,-4889655.10842 78133.3385633,-4889649.50265 78198.6814814,-4889666.00302 78263.774634,-4889682.50908 78374.8000501,-4889729.95096 78514.6202998,-4889856.69468 78704.7172547,-4889974.79522 78944.1259426,-4890085.77375 79137.4322255,-4890169.31844 79347.7082991,-4890240.9818 79606.1496455,-4890310.04699 79871.5833053,-4890378.95242 80108.6460908,-4890420.01984 80281.425167,-4890480.04445 80489.7039266,-4890573.74081 80680.1713375,-4890664.34514 80851.9899864,-4890780.8612 80946.2740986,-4890872.1604 81028.8700897,-4891009.70173 81109.0103987,-4891105.3213 81116.7076509,-4891114.14088 81224.8721181,-4891299.07295 81301.012427,-4891471.24277 81385.6366548,-4891686.69561 81592.7288806,-4892199.1928 81713.2475309,-4892410.8272 81804.1960231,-4892629.63282 81950.6873573,-4892950.11496 82023.6213909,-4893058.39087 82141.0814047,-4893103.18374 82295.7518911,-4893147.12701 82464.1759312,-4893147.7794 82620.2134248,-4893131.22403 82638.1601103,-4893129.31511 82725.6458976,-4893119.82184 82918.5753882,-4893099.42588 83102.0318227,-4893134.71606 83319.3081373,-4893206.71358 83540.9071988,-4893260.12231 83679.5136634,-4893300.93367 83735.6146479,-4893317.64294 83858.7922522,-4893339.31715 83918.7395032,-4893338.44817 84116.011123,-4893387.9144 84190.3880357,-4893406.20521 84570.0913102,-4893478.99066 84867.1622871,-4893511.18606 85049.7466388,-4893584.97375 85234.5237213,-4893678.20035 85359.0586081,-4893770.30373 85437.9852509,-4893878.44008 85581.7721302,-4893971.10298 85670.4256648,-4894067.52338 85764.5834642,-4894153.32386 85824.3673882,-4894221.91934 85891.7405652,-4894349.30836 85917.3849448,-4894465.65707 85936.7001329,-4894523.68311 85953.3241156,-4894573.27538 85972.7077861,-4894634.29815 86012.3625296,-4894773.31385 86044.9971077,-4894867.5151 86088.008809,-4894978.46973 86112.5025687,-4895055.36669 86155.7882139,-4895178.30822 86224.3359747,-4895346.14701 86302.5571587,-4895434.3094 86437.88768,-4895528.66276 86574.3930844,-4895576.01564 86583.8827684,-4895575.79884 86713.4461738,-4895570.83991 86753.1415603,-4895569.4333 86757.6366688,-4895569.3306 86876.3018758,-4895557.62463 87029.3851022,-4895554.12724 87103.5327341,-4895562.42756 87201.8086945,-4895533.19766 87328.7804244,-4895502.31277 87441.5785762,-4895507.2315 87643.2276114,-4895551.5966 87755.3829948,-4895594.00851 87866.9602985,-4895643.92927 87971.2766202,-4895725.99751 88112.5154989,-4895783.73551 88224.7141886,-4895904.60101 88342.4699657,-4895984.36295 88468.6136575,-4896059.4357 88591.4007931,-4896162.56887 88719.56773,-4896260.58183 88822.8776345,-4896375.1534 88908.6784862,-4896445.15101 88985.7984567,-4896627.28203 89051.7995639,-4896760.19571 89116.266761,-4896880.65158 89166.5953048,-4897038.40904 89198.1247394,-4897182.60424 89194.9810955,-4897274.6227 89192.5837995,-4897344.63687 89220.5845693,-4897498.40715 89218.6244067,-4897696.83676 89225.1179167,-4897871.58676 89241.9828852,-4898019.11531 89325.2563142,-4898197.10692 89453.8898495,-4898381.05714 89574.1935426,-4898495.738 89685.1379517,-4898649.11025 89825.4408647,-4898753.33924 90005.1200533,-4898853.16963 90221.482427,-4898929.17437 90317.156875,-4898982.95357 90454.4664182,-4899032.7823 90567.5886293,-4899095.65674 90691.2515218,-4899127.80798 90786.045824,-4899219.58461 90855.1758914,-4899314.44663 90898.9730358,-4899426.87794 90899.8473514,-4899585.2644 90943.9613409,-4899689.69309 91008.4465174,-4899767.17141 91110.7359204,-4899880.76302 91250.1995461,-4899992.00498 91344.6823436,-4900124.7636 91378.0651844,-4900273.41127 91381.3999887,-4900408.25494 91416.851397,-4900647.30155 91433.0691705,-4900777.35311 91512.6891671,-4901024.88328 91572.1746849,-4901211.41049 91656.5181865,-4901392.37168 91757.1754568,-4901587.45071 91874.2537946,-4901757.66824 92016.7183765,-4901890.82624 92155.7176185,-4902003.57555 92259.5142098,-4902095.64328 92454.1015502,-4902224.60932 92622.2161328,-4902408.64834 92882.5035526,-4902613.56302 93181.277707,-4902862.56872 93398.1961614,-4903017.50568 93611.9482145,-4903176.01258 93762.7867501,-4903292.98572 93909.5877901,-4903430.03893 94044.6483414,-4903545.37412 94234.7857072,-4903676.43746 94387.5932386,-4903824.8453 94521.414764,-4903995.17454 94677.638521,-4904205.46561 94808.8411793,-4904392.3441 94935.2954353,-4904557.34454 95075.7756455,-4904702.0357 95228.3914772,-4904918.4043 95340.1531896,-4905118.21925 95430.6812354,-4905274.54754 95554.6310879,-4905581.01674 95703.076398,-4905887.92355 95793.5614278,-4906173.17233 95908.8921889,-4906332.42901 95967.1966681,-4906488.99496 96062.7273237,-4906623.72057 96120.3366761,-4906706.34807 96335.2999538,-4906961.25938 96439.5757843,-4907063.30411 96660.3399371,-4907320.57986 96844.5273073,-4907551.71034 96988.2795133,-4907817.24646 97099.1390529,-4908032.06858 97188.7483781,-4908180.91932 97283.9313175,-4908442.07163 97396.4272254,-4908771.78335 97447.4097972,-4909022.95575 97549.5959508,-4909491.31645 97595.5319733,-4909598.6946 97699.6761442,-4909716.72977 97791.1861979,-4909883.02447 97906.4825304,-4909975.31947 98181.7619273,-4910158.38403 98402.1754079,-4910302.23247 98499.8091075,-4910441.40264 98790.7212772,-4910793.99901 98891.9371283,-4911013.03554 99048.5801298,-4911393.69601 99129.7028487,-4911597.20326 99208.6687608,-4911848.22962 99377.689595,-4912147.65606 99493.498616,-4912392.83907 99569.3264783,-4912615.95446 99641.977985,-4912700.73102 99834.2366542,-4912913.17748 99964.021511,-4913168.53158 100064.725887,-4913419.5564 100179.52719,-4913620.78887 100397.41745,-4913839.64022 100832.201322,-4914146.94809 100927.453048,-4914236.70048 101017.485989,-4914382.03679 101041.143543,-4914487.42477 101097.649895,-4914641.52599 101153.578933,-4914846.60741 101249.255273,-4915313.6052 101339.789717,-4915774.22497 101408.133761,-4916008.50137 101456.478839,-4916155.29429 101546.303929,-4916454.53416 101598.822787,-4916674.18361 101614.796081,-4916945.14047 101668.674133,-4917321.65677 101716.441326,-4917551.90837 101839.763411,-4917764.93233 102000.582015,-4918000.57832 102094.617672,-4918243.75601 102116.630929,-4918386.15675 101970.241976,-4918701.82129 101850.808001,-4918885.9512 101812.652726,-4918943.2924 101642.661823,-4919199.54001 101522.260659,-4919374.19915 101357.532855,-4919576.86113 101038.079433,-4919830.55342 100559.747504,-4920063.41851 100425.089859,-4920117.98443 100217.748023,-4920227.68907 100088.716404,-4920309.60831 100025.851376,-4920368.01889 99832.1042825,-4920547.36696 99812.94245,-4920539.81302 99759.8953718,-4920558.02312 99558.656789,-4920737.54415 99428.6322864,-4920841.47313 99287.6855294,-4921013.61093 99220.1742014,-4921098.11272 99173.6334863,-4921203.61839 99144.9321714,-4921335.19687 99111.2726027,-4921511.86134 99048.8044697,-4921685.19164 99013.5456146,-4921748.9639 98972.7733713,-4921822.85688 98856.3613289,-4921975.44321 98644.4590371,-4922212.67695 98592.1064501,-4922315.31914 98588.3607706,-4922315.40538 98321.9111399,-4922527.41251 98168.0422403,-4922680.86259 98095.5583053,-4922798.95958 98015.725916,-4922901.73549 97815.3559119,-4922988.79879 97625.4603748,-4923031.64814 97489.414119,-4923080.25317 97216.2027899,-4923269.93252 96984.4252656,-4923360.21842 96814.1923537,-4923454.08406 96695.0192031,-4923486.81046 96584.200114,-4923556.82167 96444.7082039,-4923661.97242 96050.4194313,-4923899.41547 95927.6859697,-4923983.69321 95734.8644923,-4924116.55719 95733.1049693,-4924116.09802 95114.7881393,-4924520.10717 94768.7857117,-4924727.95867 94404.9179248,-4924941.21965 94150.378776,-4924998.05364 93860.90357,-4925100.16643 93572.0722139,-4925230.24824 93386.6802035,-4925316.97123 93162.6215317,-4925352.11595 92940.6338308,-4925477.16056 92628.0553967,-4925574.3102 92126.1954959,-4925741.28356 91510.3424252,-4925862.41213 90782.0230738,-4926069.08549 90646.9964302,-4926129.66416 90552.1928656,-4926244.28491 90146.6380778,-4926470.50769 90041.6472094,-4926533.39303 89920.6852744,-4926597.14622 89520.5005966,-4926687.82264 89067.1242018,-4926855.68286 88578.7639442,-4927066.82656 88429.3848625,-4927155.22225 88206.5275872,-4927242.81291 87870.1863623,-4927285.04559 87266.6903711,-4927444.37491 86850.4220469,-4927596.39149 86509.4266874,-4927718.68888 85919.7954379,-4927872.70343 85676.8868744,-4927957.75966 85148.2232131,-4928220.31176 84872.3298581,-4928283.64094 84428.2285209,-4928529.25364 84111.1808857,-4928758.44572 83957.5428698,-4928922.40361 83730.8793358,-4929191.9912 83401.0964992,-4929497.43974 83188.3487005,-4929590.29939 82967.1411131,-4929641.37593 82769.2734309,-4929729.39514 82592.5708597,-4929868.40013 82447.3698752,-4930008.17827 82277.5519158,-4930164.01638 82113.007369,-4930201.79329 81762.5687296,-4930391.78176 81457.7016593,-4930564.22835 81249.9766799,-4930679.96271 81135.3470071,-4930823.53534 81083.7928265,-4931080.09602 81032.4636257,-4931194.72293 80960.0532845,-4931240.37096 80882.337028,-4931272.64816 80621.4572728,-4931510.54946 80422.6219986,-4931665.0611 80210.866321,-4931714.42342 80087.5425939,-4931762.74551 80021.3216085,-4931816.74703 79963.4570418,-4931908.03731 79919.5401434,-4931954.02813 79762.1283481,-4931976.15009 79630.8666688,-4931983.67572 79516.1646121,-4932015.80709 79280.9386078,-4932152.66872 79160.6802715,-4932203.91911 79025.4722855,-4932192.0454 78854.5583878,-4932170.50042 78747.3907976,-4932160.97833 78688.4888303,-4932207.31518 78614.0836079,-4932231.5206 78497.798257,-4932216.7115 78389.1394256,-4932229.21313 78269.9525621,-4932261.94795 78159.2949943,-4932339.46434 78063.2764993,-4932401.65035 77968.813504,-4932531.26808 77880.3875592,-4932554.29785 77797.2451134,-4932524.73096 77652.254041,-4932457.10969 77532.3522513,-4932458.87604 77465.9574226,-4932505.38611 77334.7232614,-4932665.83825 77230.5089825,-4932697.72829 77106.5267465,-4932652.61124 76905.9059615,-4932643.24587 76649.667285,-4932692.63622 76437.7026698,-4932776.48857 76223.0133218,-4932893.8882 76108.8504105,-4932949.49693 75936.1387198,-4932958.47887 75767.0080285,-4932949.3866 75677.7892771,-4932981.43075 75523.8186901,-4933152.90442 75368.4616958,-4933220.95847 75208.3404605,-4933234.14803 75082.7082899,-4933182.57155 74956.1346643,-4933133.51554 74819.7777761,-4933158.65098 74620.0714258,-4933275.70619 74411.316638,-4933325.50136 74170.5090566,-4933329.05752 73819.0567048,-4933324.17108 73602.1168904,-4933344.16876 73497.7388692,-4933369.06641 73135.3074294,-4933364.93276 72793.7774087,-4933400.29881 72471.4205238,-4933400.23823 72165.0853871,-4933444.78789 71851.6026621,-4933504.49582 71724.3997575,-4933514.92674 71596.5054121,-4933495.38686 71393.5110829,-4933470.08256 71277.1514222,-4933452.27561 70126.7202168,-4933476.81222 69572.0819507,-4933482.1082 69138.7093791,-4933544.58126 68936.7490751,-4933564.23297 68449.5424513,-4933567.97318 68307.5240868,-4933586.24232 68187.1200892,-4933566.52879 67991.6146378,-4933541.05045 67834.2645396,-4933544.67943 67676.0502642,-4933510.84404 67564.1755644,-4933535.91475 67369.5334559,-4933547.90057 67221.5512172,-4933524.32464 66941.7472385,-4933527.77875 66154.8177092,-4933538.4296 65229.9332048,-4933548.76244 64476.2185513,-4933569.64144 64108.3694897,-4933548.13566 63785.8234785,-4933540.57907 63485.7560416,-4933532.504 63312.7246344,-4933506.50555 63087.7598958,-4933504.19561 62795.0116023,-4933488.45436 62519.6091787,-4933433.82801 61582.1291546,-4933418.95636 61001.5643482,-4933417.34688 60610.6564437,-4933382.37562 60440.5159846,-4933351.81103 60263.2602031,-4933261.93281 60072.9744394,-4933148.86359 58964.2365407,-4932849.54174 58617.30196,-4932760.07407 58239.3361114,-4932701.3101 57632.5744145,-4932647.81861 57329.7309302,-4932617.31153 56379.8188021,-4932649.69874 54634.6271567,-4932744.89576 53478.0009309,-4932874.01276 52624.8428389,-4932995.63727 51832.7742721,-4933111.35585 51130.4523355,-4933217.50916 50495.569984,-4933322.10874 50256.1466327,-4933354.61674 50006.1432683,-4933394.36629 49523.6448138,-4933441.97209 49307.0199493,-4933476.95386 49143.3683693,-4933533.20798 48904.9527209,-4933598.68248 48703.3144428,-4933633.31908 48494.2893119,-4933683.62106 48232.2487013,-4933689.15896 48000.316027,-4933721.49455 47791.84721,-4933774.28305 47545.7633807,-4933832.43691 47304.5081533,-4933828.99842 47065.5859408,-4933807.51158 46801.2941423,-4933737.12415 46522.7443149,-4933677.06192 46319.7946871,-4933665.74249 46095.3269255,-4933685.90943 45877.2648443,-4933712.92668 45581.5445483,-4933721.23915 45338.6269676,-4933710.84025 45149.3964038,-4933676.71106 45044.9873098,-4933657.62271 44864.2725028,-4933624.29688 44676.8659331,-4933615.11807 44661.766587,-4933621.46416 44316.5322379,-4933606.92368 44039.6051094,-4933628.29864 43762.6775694,-4933649.67357 43516.6958596,-4933614.85152 43086.6749498,-4933597.76476 42629.5470547,-4933608.29446 42277.6782409,-4933631.39522 41972.5866473,-4933645.42069 41631.4843158,-4933680.26999 41391.5857609,-4933681.79675 41141.2231586,-4933663.07009 40881.6440428,-4933656.5523 40566.678112,-4933654.30927 40294.3617847,-4933659.08165 39983.7138951,-4933670.73517 39730.4899862,-4933658.07221 39423.1312964,-4933660.65218 39145.128798,-4933679.05159 38907.283126,-4933683.02968 38702.4619105,-4933666.75225 38556.7779168,-4933657.11074 38406.3690494,-4933681.06928 38225.2934028,-4933675.74185 38065.4820334,-4933660.42713 37886.1168698,-4933642.56342 37732.3284098,-4933606.61515 37516.508049,-4933568.59617 37503.2191351,-4933555.90552 37477.3661199,-4933561.99945 37248.0084856,-4933554.78427 36983.6007714,-4933555.87422 36578.0777228,-4933528.72148 36366.6557179,-4933508.09622 36247.4707766,-4933455.35449 36076.2983441,-4933424.30463 35949.5286923,-4933411.22756 35741.0807366,-4933389.53372 35535.1536426,-4933368.7815 35297.0030466,-4933316.27907 35091.7641733,-4933282.01406 34889.5688041,-4933249.67838 34638.0084793,-4933200.98334 34397.2273474,-4933164.53694 34158.0138124,-4933131.05356 33895.451064,-4933125.60102 33630.9930272,-4933124.69094 33321.8271662,-4933114.31247 32996.2194465,-4933106.31188 32597.9773609,-4933113.48006 32316.9381666,-4933108.95215 32033.5269948,-4933109.97747 31630.3608845,-4933098.76277 31401.9532012,-4933100.52127 31223.3823287,-4933139.12397 30914.4952377,-4933162.73044 30623.3181211,-4933173.93188 30347.979071,-4933178.27012 30044.4306185,-4933173.25979 29791.2289627,-4933162.09157 29517.4170463,-4933189.38939 29297.0700157,-4933193.96122 29005.1673141,-4933217.17633 28768.8431114,-4933222.6157 28474.2690023,-4933238.39379 28188.0438384,-4933225.98556 27862.4687838,-4933241.4772 27503.8881921,-4933234.73315 27320.2473027,-4933226.96211 27019.9158617,-4933209.87906 26689.2966315,-4933223.48678 26448.6570453,-4933237.02323 26193.2810957,-4933261.89656 26013.5274491,-4933271.03234 25678.1914022,-4933275.25024 25539.2120305,-4933274.94928 25327.1131149,-4933268.83246 25032.2518537,-4933250.62287 24772.2101652,-4933246.60894 24463.1742978,-4933220.72679 24095.1982422,-4933218.69642 23751.2043019,-4933216.11403 23360.059551,-4933206.61794 22933.2900116,-4933191.44255 22559.4190659,-4933194.04622 22042.7923933,-4933184.43718 21615.2225683,-4933199.77389 21325.2209434,-4933197.44787 21108.4839341,-4933228.9298 20945.8350629,-4933264.66633 20752.8056828,-4933327.0973 20503.9986041,-4933355.31786 20198.6212668,-4933358.34452 19883.7677955,-4933384.08524 19682.7766736,-4933404.70671 19385.375726,-4933428.54609 19113.5370595,-4933455.29673 18869.551347,-4933432.41472 18575.4215519,-4933381.19106 18206.1540657,-4933345.1935 17950.3704075,-4933287.5881 17684.8111221,-4933196.21286 17460.3037994,-4933107.39244 17227.5725769,-4933052.25561 17049.3436102,-4932975.86811 16879.9184614,-4932869.2827 16649.3512555,-4932756.10468 16339.6656581,-4932637.24724 16086.5795008,-4932566.57998 15897.5298575,-4932497.93919 15803.3518691,-4932402.62016 15671.3087941,-4932291.17446 15518.4357102,-4932252.19663 15404.1860665,-4932262.32288 15281.3153906,-4932223.65483 15105.6008415,-4932126.211 14832.452416,-4932031.00752 14584.9644328,-4931921.21577 14327.1960557,-4931842.65551 14096.1105053,-4931750.48338 13799.0749715,-4931638.3305 13579.5905286,-4931572.38725 13269.7932512,-4931557.51318 13076.8767981,-4931516.45509 12884.5459798,-4931457.38598 12677.0125991,-4931411.16448 12522.8628695,-4931360.21606 12399.2156541,-4931309.56617 12242.94077,-4931253.1672 12041.5407564,-4931212.8034 11829.2914886,-4931200.68503 11501.2512769,-4931131.7365 11191.5433658,-4931033.8701 11001.9795892,-4930964.73744 10828.6866836,-4930842.23773 10572.1268884,-4930751.14777 10336.8058797,-4930627.07367 10130.4082254,-4930499.83483 9914.57163858,-4930320.81946 9644.18461979,-4930161.05504 9439.14244735,-4930005.78776 9274.42998051,-4929865.09144 9094.1422082,-4929655.76162 8919.36197051,-4929490.29934 8828.00418276,-4929321.92015 8677.55335398,-4929127.40205 8637.36307564,-4928988.34315 8539.38904555,-4928836.61355 8492.99082384,-4928666.70108 8404.08744637,-4928409.2762 8318.57803316,-4928190.76831 8032.14936858,-4927767.90162 7916.27964883,-4927620.58178 7758.09571697,-4927470.23417 7685.00302803,-4927313.43261 7676.64385381,-4927167.1428 7611.52747397,-4927074.64995 7402.86883035,-4926892.46503 7265.3257861,-4926672.15117 7090.38760432,-4926456.19534 6906.77150578,-4926232.43945 6757.22921493,-4926077.39242 6553.12027062,-4925875.60384 6314.2239762,-4925661.1152 6112.38784896,-4925514.76707 5935.62090915,-4925393.34013 5788.50194114,-4925256.73408 5618.52686397,-4925039.16214 5450.31328651,-4924876.54301 5224.67762971,-4924695.24402 5049.08207063,-4924581.28819 4859.58720384,-4924471.65073 4628.31575837,-4924327.9759 4375.31060249,-4924195.79831 4149.67306695,-4924057.99288 3915.55893566,-4923899.38402 3758.4168543,-4923783.50352 3496.46467842,-4923610.03461 3258.96062359,-4923477.99968 2906.79552422,-4923371.09301 2736.47851412,-4923302.00888 2619.39636585,-4923265.19959 2434.89125497,-4923231.43709 2257.73177047,-4923136.5124 2100.47740483,-4923081.12665 1904.50647445,-4923016.13019 1766.76733415,-4922983.29412 1671.96193996,-4922925.97539 1591.26946774,-4922906.32891 1524.15583583,-4922922.86714 1433.00867371,-4922872.46366 1372.9495809,-4922793.34978 1302.83743357,-4922755.46231 1190.92390683,-4922780.52752 1107.95978661,-4922759.93314 1001.30607604,-4922687.3875 907.382904933,-4922614.04978 735.368646198,-4922525.50515 504.074908001,-4922446.31944 278.98358699,-4922375.99037 130.383473294,-4922327.40421 40.592886668,-4922248.97173 -140.053990156,-4922154.625 -394.281335483,-4922056.46639 -635.063085811,-4921955.99931 -869.640113967,-4921875.3878 -1005.93183244,-4921818.51942 -1071.76492119,-4921771.03391 -1181.86191418,-4921744.56175 -1423.73068662,-4921662.11717 -1592.1105762,-4921579.48682 -1810.66837834,-4921532.504 -1986.14035288,-4921424.03835 -2125.93938381,-4921323.25369 -2415.27269875,-4921220.39857 -2643.89369616,-4921170.64616 -2813.7686988,-4921110.04729 -2997.45189033,-4921057.76427 -3240.06926931,-4920986.33429 -3458.56396936,-4920920.35047 -3610.90422222,-4920861.34888 -3775.97497814,-4920748.64359 -4026.86747384,-4920643.40546 -4246.93754601,-4920595.95562 -4494.37392324,-4920510.6362 -4689.68419973,-4920474.61743 -4959.72189843,-4920384.81622 -5212.12143809,-4920301.10987 -5452.53985124,-4920216.62867 -5688.07164383,-4920149.03394 -5883.54743774,-4920084.0205 -6111.1301696,-4920014.24337 -6271.02437856,-4919952.91365 -6447.84407641,-4919872.97321 -6840.49621416,-4919646.99101 -7145.85119678,-4919521.49981 -7375.54090273,-4919425.27175 -7512.81074507,-4919314.926 -7598.93484715,-4919232.90581 -7663.42617494,-4919080.39458 -7824.60600775,-4918832.106 -7981.47044516,-4918641.21431 -7951.45396596,-4918522.0345 -7887.21296814,-4918434.56818 -7782.02650713,-4918366.66216 -7713.28299854,-4918366.58669 -7620.49754982,-4918422.95627 -7572.56355393,-4918463.85483 -7484.40141563,-4918514.83067 -7419.77627816,-4918596.84375 -7265.976229,-4918621.31699 -7200.19670252,-4918622.80924 -7133.11277561,-4918615.7722 -7049.9040409,-4918657.86205 -6978.34037528,-4918737.21609 -6939.71539756,-4918797.32646 -6832.91040992,-4918821.87663 -6753.46937303,-4918819.55594 -6603.21249059,-4918787.61426 -6508.95652071,-4918755.4562 -6422.81453603,-4918696.48612 -6346.4302871,-4918626.24058 -6278.92728303,-4918495.70315 -6255.74865949,-4918372.68114 -6236.31672108,-4918195.24913 -6265.32636029,-4917932.93377 -6290.83274465,-4917758.03152 -6300.54667345,-4917737.75566 -6351.53670166,-4917628.9324 -6441.75313714,-4917521.00795 -6632.96587564,-4917292.90675 -6733.38436373,-4917165.21731 -6822.67532065,-4917086.76915 -6998.60380499,-4916969.30897 -7034.42204554,-4916791.64271 -7130.07168605,-4916719.33957 -7318.18899656,-4916648.15491 -7490.29104529,-4916588.60234 -7653.10690618,-4916508.83836 -7721.05551597,-4916445.39963 -7866.91043978,-4916331.2493 -7966.79470781,-4916205.04651 -8006.78878435,-4916106.96963 -7983.10704438,-4915994.93497 -7901.5300235,-4915933.0705 -7830.17362343,-4915937.93548 -7756.87566772,-4915940.25616 -7696.6402219,-4915994.37238 -7621.5744103,-4915975.65403 -7584.5759749,-4915899.31193 -7574.56142142,-4915823.58796 -7492.3513998,-4915745.71029 -7392.42845438,-4915709.92384 -7299.64979497,-4915733.29674 -7177.07777382,-4915780.48535 -7096.87577677,-4915778.64818 -6995.65203801,-4915777.82934 -6941.96814923,-4915840.59483 -6933.23593672,-4915959.8859 -6919.42851915,-4916071.56127 -6891.18200197,-4916082.41334 -6874.98005564,-4916058.54393 -6809.23757457,-4915982.0435 -6800.613694,-4915878.35371 -6756.15621076,-4915789.34192 -6769.17961439,-4915679.14856 -6704.39818822,-4915626.16852 -6649.63169308,-4915583.41716 -6572.51804031,-4915523.15521 -6488.0119253,-4915458.22432 -6400.32645986,-4915390.22087 -6318.21225995,-4915286.34786 -6274.91433694,-4915190.36347 -6321.85393964,-4915116.44444 -6431.50357914,-4915120.45582 -6576.97504022,-4915175.78382 -6706.83193857,-4915225.25464 -6821.32242146,-4915214.37806 -6925.76562104,-4915183.77279 -7015.96739149,-4915152.84129 -7178.0403652,-4915094.55807 -7332.40800642,-4915067.096 -7497.35714316,-4915057.87492 -7676.8702821,-4915023.98919 -7829.82872089,-4915003.49419 -7962.62167683,-4915023.03441 -8090.32418376,-4915057.45699 -8246.1645359,-4915118.52224 -8387.01951048,-4915211.74206 -8552.29890673,-4915330.01973 -8700.45305077,-4915442.90563 -8812.10958887,-4915599.45268 -8947.73459019,-4915790.04666 -8999.6609814,-4915967.72435 -9043.21465671,-4916096.21358 -9102.77381471,-4916268.06668 -9125.72102211,-4916423.08222 -9142.38002486,-4916557.95506 -9129.01830923,-4916715.63865 -9050.95070337,-4916838.84199 -8915.27821699,-4916912.22873 -8752.80087079,-4916999.00033 -8618.86800089,-4917061.92743 -8392.75662978,-4917154.74036 -8189.36306269,-4917227.07503 -7963.42700533,-4917355.88911 -7871.99123398,-4917484.28501 -7791.87887598,-4917609.44052 -7804.39554584,-4917663.2236 -7880.45138641,-4917671.46588 -8004.02485249,-4917678.79711 -8133.15236835,-4917683.75576 -8290.33650807,-4917784.35086 -8525.7420555,-4917853.24069 -8811.45360051,-4917952.28142 -9074.11120217,-4917988.29807 -9396.53914928,-4918034.18378 -9747.50481214,-4918034.72628 -10082.5522698,-4918075.40149 -10418.0904851,-4918105.58858 -10735.027472,-4918129.34978 -11094.11015,-4918157.57645 -11411.318259,-4918071.34989 -11539.9600452,-4918010.30093 -11656.2747509,-4917974.46808 -11758.1928055,-4917977.8032 -11887.5168848,-4917974.26663 -12307.1040615,-4917860.38661 -12451.9524717,-4917801.20849 -12617.6797603,-4917780.00673 -12717.2888467,-4917742.29087 -12821.9523291,-4917702.1909 -12988.1909879,-4917680.50074 -13122.6979565,-4917658.08355 -13266.6025254,-4917607.38302 -13475.2295309,-4917568.66465 -13607.3984227,-4917539.19409 -13726.2448077,-4917512.91812 -13874.7764668,-4917500.32156 -14135.7878676,-4917499.30131 -14237.3276023,-4917464.62911 -14351.3089796,-4917399.74325 -14492.0973598,-4917375.96963 -14575.5961383,-4917310.38536 -14686.7430886,-4917281.93282 -14848.946781,-4917283.64856 -14996.7353804,-4917238.03606 -15214.2535058,-4917215.0199 -15360.7183907,-4917205.37546 -15466.660063,-4917262.30001 -15560.3567151,-4917329.94366 -15624.2309876,-4917324.4071 -15689.1583896,-4917272.89649 -15739.9602655,-4917205.06292 -15826.8294741,-4917156.05478 -15924.7896257,-4917135.79954 -16033.8711556,-4917164.79713 -16082.2009455,-4917139.40518 -16121.5685002,-4917057.81009 -16177.9245121,-4916987.60368 -16281.2119344,-4916963.97048 -16479.0758638,-4916980.5021 -16566.0518843,-4916970.49473 -16612.2284663,-4916919.05431 -16657.5466058,-4916905.09286 -16725.7201079,-4916930.15349 -16769.4684826,-4916930.15556 -16831.1517394,-4916856.57108 -16891.6331945,-4916835.45716 -16963.1484546,-4916845.59485 -17026.5576408,-4916838.54748 -17087.3825014,-4916802.44193 -17162.0148366,-4916654.65648 -17259.6972511,-4916471.9001 -17358.8346931,-4916411.17275 -17550.4968838,-4916305.56593 -17684.5881449,-4916268.63817 -17838.6950377,-4916209.16949 -17979.6718952,-4916155.39985 -18148.9460523,-4916132.27721 -18350.0251216,-4916019.38567 -18572.7373214,-4915922.48885 -18739.942253,-4915847.82009 -18888.4419498,-4915771.22293 -18988.9530137,-4915716.02617 -19034.4676774,-4915617.07125 -19082.1890413,-4915498.16741 -19139.5216242,-4915428.98219 -19227.8714051,-4915359.0072 -19347.5324287,-4915362.74705 -19476.7795472,-4915297.20829 -19628.4991467,-4915254.68339 -19748.3471265,-4915228.42824 -19863.438178,-4915191.56442 -19937.9751399,-4915135.27251 -20100.8944944,-4915018.50571 -20272.9425443,-4914917.94736 -20342.5454021,-4914891.54158 -20573.8078303,-4914879.83664 -20785.7522869,-4914794.69104 -20845.6828828,-4914743.06429 -20828.0368126,-4914585.6639 -20870.0151709,-4914510.12666 -21075.9130109,-4914383.34316 -21365.3412596,-4914211.4726 -21437.1472915,-4914187.11689 -21484.0102778,-4914105.69137 -21606.8619336,-4913981.00619 -21659.1617807,-4913989.70321 -21693.2908608,-4914060.48302 -21769.71315,-4914074.73214 -21864.9836162,-4914051.91344 -21960.0282343,-4913951.59104 -21992.4140908,-4913847.33438 -22100.5359809,-4913787.31044 -22317.920867,-4913704.78786 -22568.4288263,-4913595.02374 -22675.1123861,-4913510.46705 -22779.4266438,-4913398.35652 -22857.7601884,-4913394.64949 -23029.8239556,-4913413.58737 -23120.8048034,-4913370.6704 -23210.394686,-4913290.22214 -23303.2812321,-4913262.34849 -23355.6896031,-4913233.5484 -23390.0257274,-4913076.83656 -23530.7701468,-4912924.0599 -23642.5391082,-4912857.61876 -23746.4963977,-4912848.498 -23889.7346351,-4912870.77578 -23955.0823646,-4912822.77191 -23991.2993793,-4912693.10242 -24075.3738781,-4912657.0269 -24187.5671754,-4912637.59462 -24285.7011156,-4912609.84069 -24301.3695211,-4912569.69973 -24280.6066426,-4912504.72537 -24293.802675,-4912441.52811 -24343.147525,-4912393.65787 -24373.5888863,-4912374.3547 -24344.5197742,-4912333.68998 -24338.0529676,-4912288.54254 -24377.2481755,-4912214.44033 -24449.8140024,-4912200.601 -24504.679962,-4912217.35629 -24535.5215504,-4912180.56244 -24538.2659336,-4912060.62661 -24599.6060264,-4912002.03086 -24702.5365946,-4911950.38667 -24817.8855438,-4911869.52689 -24919.5833158,-4911784.35474 -24985.8618898,-4911739.37171 -25036.3110848,-4911599.52741 -25089.8121413,-4911555.75195 -25176.8327068,-4911565.74289 -25270.23077,-4911537.38009 -25346.9058944,-4911464.13506 -25386.9584691,-4911352.55244 -25467.1495767,-4911311.38749 -25595.5569446,-4911249.82581 -25713.2314894,-4911187.51853 -25906.4869525,-4911077.94067 -26012.631713,-4911027.86937 -26107.4834302,-4911001.53952 -26213.6282418,-4910951.46815 -26268.158281,-4910862.71619 -26355.0142866,-4910836.20333 -26476.7505634,-4910803.98843 -26600.8990173,-4910742.82881 -26654.7431288,-4910684.06085 -26726.3246046,-4910647.69851 -26806.5502196,-4910605.03392 -26867.5474278,-4910561.42946 -26935.3547931,-4910547.98063 -27062.6161507,-4910558.39173 -27168.6223845,-4910525.31676 -27303.3896386,-4910469.89972 -27365.8877462,-4910415.32949 -27457.0407313,-4910364.9147 -27522.2254007,-4910345.90579 -27622.6399685,-4910338.70271 -27733.78091,-4910299.74502 -27888.8922289,-4910229.29309 -28085.1453846,-4910130.78213 -28206.0100965,-4910082.04668 -28364.3813122,-4910011.16904 -28448.1136341,-4909990.0842 -28486.1589258,-4909933.45433 -28578.1188851,-4909880.5576 -28757.6132632,-4909826.16288 -28940.8459352,-4909761.35356 -29137.4688114,-4909701.35041 -29257.4616566,-4909636.09454 -29425.2254658,-4909569.93116 -29571.5399167,-4909545.27732 -29658.9764297,-4909515.27688 -29704.9817414,-4909471.32881 -29787.781894,-4909458.22238 -29892.9431402,-4909462.12741 -29953.9635747,-4909417.52269 -30014.7227127,-4909373.41197 -30105.3619313,-4909345.48466 -30233.1389501,-4909333.40674 -30324.2925171,-4909282.991 -30398.2652495,-4909207.68215 -30511.9155608,-4909179.28096 -30632.1259108,-4909104.52941 -30765.2397148,-4909023.0728 -30826.9230537,-4908949.48275 -30977.6847995,-4908883.42971 -31106.5904116,-4908843.87705 -31258.1460494,-4908786.84212 -31364.1206859,-4908744.26498 -31498.907552,-4908720.84683 -31581.431626,-4908654.23315 -31741.6712516,-4908632.89695 -31839.1176078,-4908580.62455 -31954.6492474,-4908502.76533 -32045.1175075,-4908482.33367 -32149.5497183,-4908507.22185 -32202.8799618,-4908470.9408 -32249.9138413,-4908382.0151 -32387.9302263,-4908250.16907 -32471.5879865,-4908199.58117 -32568.8669678,-4908209.30549 -32628.6650509,-4908218.17284 -32681.3097499,-4908211.87642 -32697.501885,-4908159.7459 -32721.0918695,-4908079.28412 -32794.6892017,-4908009.4658 -32817.416217,-4908010.48543 -32813.8867135,-4907989.90444 -32984.2450402,-4907897.79799 -33113.6396092,-4907858.7557 -33236.7585792,-4907864.57061 -33312.2506322,-4907810.29568 -33373.5743989,-4907708.69604 -33394.566095,-4907523.17296 -33455.9067215,-4907464.57433 -33495.272847,-4907382.97295 -33528.856436,-4907226.23812 -33546.0766138,-4907129.13019 -33578.460534,-4907024.86877 -33609.3021702,-4906988.07319 -33580.3455134,-4906942.4105 -33523.8784681,-4906908.11915 -33534.1563003,-4906830.35284 -33598.5380755,-4906791.8239 -33670.6630409,-4906775.47232 -33702.3057532,-4906692.69425 -33796.1441345,-4906612.33788 -34027.9043068,-4906513.63372 -34313.8972953,-4906339.16759 -34628.9700929,-4906226.86697 -35037.616145,-4906067.70379 -35303.6539738,-4905891.28044 -35533.7772084,-4905809.53807 -35632.4277725,-4905759.29155 -35744.7359341,-4905756.85822 -35931.1084045,-4905675.11571 -36128.381314,-4905619.62282 -36211.7425291,-4905582.02702 -36298.6020185,-4905544.51113 -36410.0251208,-4905537.05733 -36538.6609898,-4905487.49582 -36749.1690034,-4905410.80457 -37011.3357339,-4905316.29323 -37230.2785573,-4905275.29543 -37435.5710535,-4905218.98518 -37570.8840336,-4905183.5763 -37682.8571169,-4905141.13384 -37770.4281858,-4905138.13486 -37895.7434782,-4905124.49808 -38048.0268,-4905079.47658 -38167.1578338,-4905019.19701 -38283.4260466,-4904963.85212 -38343.1238611,-4904966.21632 -38470.5612791,-4904969.12841 -38493.5641384,-4904947.15335 -38524.4059152,-4904910.35694 -38569.8977398,-4904888.89576 -38645.3822091,-4904900.62096 -38727.8344412,-4904870.00402 -38766.1725546,-4904833.37887 -38781.8503898,-4904803.73615 -38841.8210141,-4904805.10651 -38962.27618,-4904785.35823 -39067.9100136,-4904757.77101 -39181.0402146,-4904730.35506 -39309.3344216,-4904695.78532 -39382.9853123,-4904656.46685 -39483.8057569,-4904609.76889 -39537.0633861,-4904521.98274 -39543.0799244,-4904455.61792 -39598.6838418,-4904407.3867 -39631.2936168,-4904402.63161 -39699.184578,-4904374.68181 -39760.0117788,-4904338.57032 -39868.9768291,-4904285.55806 -39956.9722884,-4904253.06739 -40025.6384296,-4904202.13441 -40109.6398413,-4904136.55124 -40147.8067322,-4904107.42219 -40245.4306795,-4904102.1524 -40320.7368429,-4904088.87243 -40381.9369503,-4904069.26993 -40442.2201216,-4904024.14553 -40496.3322925,-4904008.38121 -40590.4694538,-4904002.53169 -40693.6365418,-4903995.38842 -40788.7658113,-4903957.06031 -40849.9356868,-4903905.95585 -40941.7761358,-4903825.55093 -41016.3837151,-4903766.25309 -41123.7444032,-4903739.70476 -41230.4063786,-4903667.13863 -41337.7534072,-4903564.58691 -41391.2556613,-4903520.8074 -41444.2441441,-4903499.51705 -41542.2109689,-4903479.25423 -41602.8671195,-4903450.63872 -41639.2190302,-4903402.4672 -41693.5661554,-4903321.70542 -41789.3590662,-4903243.39049 -41813.026744,-4903170.42815 -41857.4928004,-4903084.44036 -41942.6410395,-4903023.38288 -42034.3102762,-4902950.47382 -42148.6399668,-4902870.58205 -42315.1020336,-4902806.8817 -42473.5540417,-4902765.49927 -42571.1786256,-4902760.22896 -42669.6594255,-4902717.47657 -42727.7547188,-4902636.80003 -42785.9147076,-4902586.12626 -42812.6428501,-4902368.22721 -42860.874666,-4902226.82264 -42949.5555363,-4902164.34535 -43019.3037989,-4902087.93499 -43142.5228169,-4902045.74736 -43257.9968056,-4901992.3823 -43423.1693573,-4901985.15435 -43593.7619523,-4901959.54932 -43659.5985574,-4901923.05126 -43743.1119565,-4901856.95553 -43800.7049577,-4901798.26813 -43884.9883744,-4901753.1909 -43989.6568976,-4901735.08048 -44098.4882617,-4901666.06269 -44179.1225561,-4901649.4034 -44376.5983637,-4901541.40806 -44537.1055739,-4901410.0672 -44605.7720952,-4901359.13283 -44652.4628484,-4901285.19547 -44774.2893817,-4901205.47361 -44863.5273404,-4901140.50823 -44969.4161067,-4901079.92326 -45102.5000068,-4900988.95774 -45285.368778,-4900885.62835 -45513.6681926,-4900807.33751 -45710.4915476,-4900749.8289 -46031.0298564,-4900694.14522 -46219.6403941,-4900645.94938 -46430.7405165,-4900598.26702 -46544.7286144,-4900533.36625 -46777.8048923,-4900508.6868 -47020.4307872,-4900405.22095 -47181.1142324,-4900331.88569 -47272.9825252,-4900315.98237 -47330.2661951,-4900391.29457 -47494.477705,-4900360.5422 -47737.5318366,-4900293.08783 -47971.3049994,-4900237.92217 -48309.5267849,-4900108.63674 -48536.6481671,-4900016.3167 -48696.0553356,-4899987.95443 -48777.051125,-4899999.30434 -48861.2248029,-4899926.22165 -48960.3915867,-4899853.48124 -49111.9098957,-4899776.43572 -49267.5256709,-4899727.98546 -49438.6001706,-4899681.38818 -49639.6792677,-4899568.97168 -49852.6822158,-4899481.82886 -50010.8803954,-4899396.93493 -50011.6471249,-4899341.44887 -50014.7105782,-4899152.50667 -50741.9733299,-4853385.50849" style="stroke-linejoin:round;stroke:#000;stroke-width:1px;fill:none" /></g></g></svg>