<svg xmlns="http://www.w3.org/2000/svg" baseProfile="full" height="156128.79971" version="1.1" viewBox="-76100.194447,4601621.276886,233472.912700,156128.799710" width="233472.9127"><defs><style type="text/css">polyline,line,rect,path,polygon,.polygon{fill:none;stroke:#000;stroke-width:1px;stroke-linejoin:round;}</style></defs><g fill_rule="evenodd" transform="scale(1,-1)"><g class="hogares departamen mujeres departam_1 toponimo_i tot_pob varones viv_part viv_part_h" id="62014"><polygon class="_62014" id="None" points="31355.054984,-4601681.12309 31496.8706594,-4601789.67591 31645.4504876,-4601919.80316 31751.2025402,-4602056.96225 31816.0258154,-4602164.67319 31851.8762308,-4602315.56808 31875.2387987,-4602465.32635 31853.1114138,-4602614.08704 31811.3071101,-4602756.13236 31760.0264314,-4602964.57512 31730.2372886,-4603105.25171 31719.5446088,-4603237.13697 31750.7585058,-4603400.48108 31849.7364993,-4603494.06524 31970.677087,-4603545.38898 32335.1395623,-4603549.37584 32549.0503662,-4603580.71643 32784.4644775,-4603611.79236 33034.5357817,-4603628.52851 33326.6416949,-4603710.72588 33612.5213307,-4603699.35361 33691.5604284,-4603650.21753 33806.5959135,-4603601.47532 33941.7085779,-4603659.95483 34023.3161052,-4603787.35022 34027.7929053,-4603949.40223 33987.1682002,-4604074.95999 33975.6301627,-4604238.33668 33997.5339643,-4604407.07938 34058.1201446,-4604627.74626 34197.3968582,-4604808.27362 34354.405225,-4604990.49512 34396.5056509,-4605186.95923 34452.1847136,-4605330.57105 34472.6556758,-4605470.29742 34441.4933755,-4605644.95916 34392.5283679,-4605892.9271 34352.6626586,-4606108.99403 34365.7786293,-4606349.64118 34488.6456711,-4606567.48936 34780.2082038,-4606699.18314 34938.4854013,-4606765.41692 35050.6524742,-4606841.64608 35128.2300992,-4606994.49769 35158.3345183,-4607281.83142 35090.7813499,-4607492.09468 34994.2750676,-4607698.04075 34870.3484467,-4607828.18551 34847.4986689,-4607882.93602 34801.7936425,-4607992.93695 34764.5639638,-4608128.03096 34819.7567489,-4608293.13729 34946.4617767,-4608480.02694 35059.1336336,-4608624.26246 35172.0553973,-4608768.50074 35291.5894817,-4608925.3116 35364.7725821,-4609114.11523 35458.04435,-4609386.13977 35483.8178585,-4609657.92496 35524.6604821,-4609991.87573 35628.8674431,-4610110.01834 35748.5765405,-4610182.33033 36150.7025129,-4610422.2378 36337.6940128,-4610537.28748 36480.7196743,-4610626.35531 36561.1934197,-4610765.73838 36586.1428007,-4611067.01468 36450.6934991,-4611404.53372 36339.9277348,-4611725.32281 36252.6290452,-4611957.86812 36164.8488712,-4612165.90785 36096.847323,-4612394.16434 35936.8706451,-4612642.91302 35689.6952582,-4612978.20654 35499.9220729,-4613117.12782 35366.387012,-4613257.16528 35223.5044771,-4613406.10031 35043.3290595,-4613536.12658 34908.7075346,-4613798.15237 34884.8628111,-4614103.39193 34852.0602157,-4614496.03334 34870.4917427,-4614753.23574 34902.868085,-4615061.09093 35108.5708832,-4615316.34553 35181.8558213,-4615495.64886 35235.9710056,-4615713.2421 35234.1189168,-4615882.22186 35241.5641842,-4616115.30348 35226.4560213,-4616307.63782 35132.4496904,-4616559.10723 34952.1705508,-4616698.63099 34660.6225411,-4616657.43542 34387.6558455,-4616654.44358 34152.1223019,-4616680.36206 34037.6951143,-4616810.6076 34024.3335568,-4616980.46067 34072.094648,-4617093.48379 34299.679273,-4617290.97765 34548.46607,-4617447.20418 34744.8490733,-4617571.85651 34989.0845621,-4617641.53368 35175.4227434,-4617793.07603 35315.4167116,-4617907.61048 35408.2081356,-4618040.62743 35452.1655122,-4618090.10922 35501.3119424,-4618145.1479 35631.9111042,-4618250.0795 35818.7949849,-4618374.62822 36157.4463906,-4618406.34141 36420.8099751,-4618418.72925 36524.2402945,-4618447.86338 36607.8396293,-4618552.77991 36577.3233878,-4618759.44481 36411.8435664,-4618871.62985 36224.7020005,-4618998.57727 36196.9026964,-4619094.27212 36242.5536991,-4619217.27232 36373.2983211,-4619331.70573 36569.7847753,-4619446.86018 36747.2790259,-4619561.30643 36991.4779168,-4619611.48456 37245.9049712,-4619595.27518 37576.4754123,-4619520.40119 37803.6071154,-4619394.39278 37898.9807556,-4619291.93907 38060.4090115,-4619161.70992 38174.014976,-4619106.4561 38258.9630991,-4619088.38791 38410.0741598,-4619101.04547 38521.8115492,-4619147.77113 38622.5762581,-4619260.37643 38721.467313,-4619361.4612 38819.4109872,-4619480.53559 38893.6623424,-4619594.35009 39014.3453715,-4619737.17397 39153.2032921,-4619955.19722 39263.9187414,-4620163.41174 39375.4741229,-4620340.63553 39473.6572364,-4620506.21262 39531.9760708,-4620613.85239 39619.3271649,-4620900.81045 39694.2938425,-4621291.13235 39739.5105348,-4621453.62819 39850.2825604,-4621633.8434 40009.4759173,-4621730.09024 40395.8456136,-4621696.3307 40575.5010776,-4621613.80261 40709.1420747,-4621464.26957 40870.4614797,-4621344.04023 41022.2875882,-4621223.20667 41192.3871618,-4621168.57364 41371.3655834,-4621170.53807 41605.451364,-4621276.60744 41868.7580819,-4621316.99766 42150.1869684,-4621414.58696 42460.3424394,-4621445.99173 42780.1425433,-4621487.00254 43020.6243723,-4621443.14259 43173.0508781,-4621404.31596 43355.7297827,-4621410.82157 43492.9973339,-4621500.32882 43627.7871154,-4621587.8089 43769.027116,-4621725.35994 43945.5601333,-4621927.29867 44169.4819828,-4622344.25818 44253.0257667,-4622545.17588 44473.0253989,-4622704.59205 44694.0268262,-4622750.01917 44909.6624174,-4622623.88714 45060.9019813,-4622511.04789 45218.369478,-4622491.27725 45339.3829142,-4622535.60643 45452.8342217,-4622608.35265 45516.5413915,-4622680.55254 45558.5834848,-4622745.01446 45550.562968,-4622837.92658 45520.0921525,-4622994.59224 45479.9627291,-4623074.65163 45407.0024517,-4623230.35052 45382.6128062,-4623288.58272 45358.1902142,-4623349.81456 45393.1867352,-4623486.69913 45477.8282155,-4623587.62896 45555.8658975,-4623652.48623 45691.5996906,-4623653.97719 45877.9536029,-4623599.02415 46007.695932,-4623485.94914 46116.8937688,-4623308.6483 46182.4706604,-4623187.86836 46219.0786386,-4623109.77029 46326.9420465,-4623053.95499 46448.6638826,-4623033.79204 46555.3520707,-4623084.96416 46640.3890056,-4623149.8985 46689.3615948,-4623243.43676 46702.0391612,-4623386.57643 46772.273002,-4623501.84831 46879.1065912,-4623517.02202 47007.9952015,-4623504.43796 47229.3153371,-4623520.86951 47486.8482002,-4623495.19885 47701.5592497,-4623476.0578 47815.7189752,-4623484.31212 47908.2219256,-4623506.82856 48022.0768281,-4623565.57976 48063.8055841,-4623658.53861 48047.513751,-4623844.36026 48030.079182,-4624043.16935 47985.7164523,-4624258.18253 48062.3366503,-4624452.02499 48332.6289469,-4624561.99546 48547.0899354,-4624542.85214 48940.3569066,-4624518.67387 49197.5767508,-4624521.5007 49498.2641668,-4624481.80518 49748.548202,-4624456.05584 50177.4846151,-4624439.27022 50463.8416062,-4624406.91755 50665.626421,-4624244.63466 50731.9789432,-4624144.36345 50905.888269,-4623879.77347 51003.3832307,-4623652.84368 51004.9988235,-4623505.86047 50997.217195,-4623326.77372 51064.1304945,-4623084.50746 51172.9399223,-4622942.70235 51337.9708304,-4622894.5159 51614.867725,-4623040.56061 51653.2635848,-4623322.98483 51527.5848771,-4623521.10479 51456.7184337,-4623781.82761 51439.5628571,-4624046.14075 51590.7864986,-4624253.30443 51822.6194816,-4624336.85354 51979.9781065,-4624281.5831 52052.2668861,-4624209.87734 52304.2005634,-4624034.1458 52483.7931869,-4623957.61965 52663.468317,-4623873.59437 52856.3504211,-4623861.71487 53085.3109526,-4623842.73202 53213.2467819,-4623894.13906 53376.6288486,-4623995.93627 53539.7609123,-4624097.73078 53695.8937343,-4624199.44838 54022.7980077,-4624367.5444 54349.7846667,-4624528.14147 54613.7769368,-4624529.04461 54794.6745075,-4624493.0337 55003.9644588,-4624466.83516 55257.8095483,-4624481.12704 55550.6998097,-4624491.34842 55800.4354585,-4624515.59539 55956.804591,-4624595.81604 56091.0437046,-4624733.29386 56189.6192505,-4624862.87935 56273.0004619,-4625078.29849 56342.9251193,-4625221.56894 56426.6196757,-4625408.49125 56510.5506574,-4625573.91596 56630.7005502,-4625696.73874 56850.2891485,-4625870.65591 57054.6500698,-4625928.90466 57464.8796345,-4625862.91734 57781.4676537,-4625673.39875 57932.7875794,-4625553.56248 58033.7170656,-4625469.17213 58144.795224,-4625280.39237 58237.1548199,-4625156.90728 58367.6178225,-4625001.34106 58511.2212105,-4624923.92024 58682.9388754,-4624904.3094 58839.6985035,-4624949.03472 59003.31675,-4625029.33595 59165.9753343,-4625174.12739 59178.1002406,-4625367.26292 59059.0656261,-4625801.95763 59105.049446,-4626166.96728 59392.2071922,-4626334.62897 59624.6042893,-4626344.18659 59827.9792319,-4626060.4219 59868.6770788,-4625610.86498 59679.1589434,-4625294.27586 59475.6287297,-4624956.0323 59491.0871241,-4624687.19924 59587.5817376,-4624528.75914 59739.4524177,-4624358.92821 59897.0814711,-4624324.66232 60190.3633441,-4624299.38936 60354.5185645,-4624308.19594 60547.4151935,-4624317.81886 60740.2403148,-4624333.94113 60932.7329453,-4624357.5599 61153.8129233,-4624395.99354 61267.4367108,-4624475.74515 61395.60923,-4624505.65624 61429.6684544,-4624523.03133 61509.4696027,-4624563.9102 61622.6067511,-4624665.15681 61675.252737,-4624788.23791 61622.5255458,-4625058.66109 61467.4195444,-4625317.95714 61419.441862,-4625588.43237 61645.8446066,-4625801.92698 61875.4203257,-4625704.45286 62170.4357122,-4625521.69805 62510.2517942,-4625175.43426 62666.6269487,-4624937.15245 62829.5808477,-4624714.44318 62988.2284713,-4624587.68782 63110.9758584,-4624474.53744 63254.3568996,-4624440.11536 63432.0508431,-4624513.57263 63674.8653748,-4624530.74606 63868.0044877,-4624518.37222 64039.3266558,-4624534.75866 64275.4424735,-4624501.85777 64512.4280799,-4624389.9653 64743.9888805,-4624135.01085 64903.3417008,-4623944.26232 65041.8354046,-4623695.28309 65207.4830214,-4623568.60484 65315.1952787,-4623526.79013 65472.7427097,-4623500.02442 65658.31376,-4623516.56807 65893.8851363,-4623533.16236 66065.2076878,-4623549.54921 66358.2544026,-4623545.77621 66558.1566202,-4623554.97779 66788.7924577,-4623543.0175 67004.524571,-4623590.39422 67213.777125,-4623726.70125 67433.0516437,-4623929.11989 67674.1376989,-4624103.27834 67944.2639175,-4624092.25346 68162.7934733,-4623885.65681 68243.0674966,-4623702.03767 68352.5863893,-4623496.24018 68439.1977185,-4623418.19274 68569.4909101,-4623255.62483 68735.235276,-4623142.94837 68878.4443669,-4623101.52507 69035.5186565,-4623117.75566 69198.6504483,-4623219.5547 69289.3608221,-4623427.55802 69372.6566372,-4623650.47991 69579.1033225,-4623723.75565 69828.8409116,-4623748.00746 70101.1779704,-4623672.50642 70255.0022598,-4623507.19795 70389.398889,-4623380.67619 70562.1112105,-4623225.57599 70777.14513,-4623109.44288 70901.0403071,-4623073.80725 71072.3632576,-4623090.1953 71185.5770841,-4623184.44469 71291.874225,-4623271.11773 71383.6032554,-4623386.63084 71489.8177071,-4623480.80314 71608.8517263,-4623682.11887 71642.4714947,-4623875.49318 71535.5766104,-4624115.31993 71391.2951411,-4624276.73312 71282.6994635,-4624444.03963 71278.8113934,-4624569.99915 71435.2312571,-4624600.22338 71631.3000573,-4624480.88177 71803.8527602,-4624340.28061 71912.1200519,-4624225.47151 71989.6170422,-4624157.82423 72176.2902827,-4624074.37979 72377.5317012,-4623962.09536 72483.9391231,-4623857.26595 72618.115808,-4623750.74253 72728.8865556,-4623612.96052 72794.5937321,-4623458.18149 72868.2995729,-4623235.48914 72929.5292862,-4623078.66064 73139.8468165,-4622891.47456 73325.7380837,-4622879.02307 73682.1644636,-4622954.45317 73880.1716798,-4623135.63958 74049.2958883,-4623351.50839 74205.5015612,-4623469.23272 74337.6009374,-4623551.1906 74546.6575237,-4623614.49643 74730.7354597,-4623766.52884 74900.7245931,-4623903.90566 75107.3108178,-4623987.18485 75292.2630062,-4624037.22489 75442.8817796,-4623981.38425 75560.6595881,-4623797.67886 75646.1818697,-4623705.11976 75705.1439762,-4623527.266 75871.2040304,-4623386.09375 76031.3000016,-4623332.35768 76254.3183141,-4623353.81705 76338.6576962,-4623459.24928 76356.3989488,-4623573.44739 76280.9385502,-4623819.12067 76207.3950719,-4624004.31373 76219.912716,-4624161.45506 76261.3960418,-4624276.41485 76331.9461822,-4624362.69453 76424.6997581,-4624385.21771 76524.8440295,-4624372.32166 76654.1965893,-4624295.24636 76691.1282502,-4624188.15134 76726.4148388,-4624071.53797 76699.4337233,-4623933.73753 76724.7028807,-4623796.0132 76787.284659,-4623720.70163 76925.6052743,-4623669.22572 77018.5188149,-4623677.25043 77177.3742695,-4623668.00192 77297.1048025,-4623579.32026 77289.3368792,-4623422.23112 77223.0692328,-4623264.99687 77254.4001347,-4623008.33655 77420.3007757,-4622881.66305 77564.3764312,-4622761.74904 77657.5271704,-4622748.27594 77793.2638244,-4622749.77282 77937.514408,-4622795.36464 78116.3480796,-4622946.84034 78226.5413114,-4622997.55674 78382.9744562,-4623049.28315 78697.2835522,-4623067.25001 78881.0136161,-4622978.77433 79092.6876902,-4622850.10596 79180.320706,-4622679.56849 79310.7179527,-4622530.50317 79503.6807403,-4622511.63106 79652.7230867,-4622598.7771 79723.035944,-4622706.55525 79814.4496045,-4622850.56699 79891.9161399,-4622944.4237 79977.6318439,-4623038.37141 80061.8660172,-4623153.30326 80152.0553227,-4623340.30246 80199.4472399,-4623576.83065 80153.4824231,-4623890.83066 80149.1861082,-4624280.29184 80301.8666985,-4624649.48405 80678.1352779,-4624875.13973 80847.3289996,-4625084.51069 80995.8190784,-4625221.65173 81080.297275,-4625337.08612 81194.388538,-4625374.34562 81294.0640005,-4625403.94593 81444.2087795,-4625391.10223 81485.0153322,-4625386.05235 81651.7522293,-4625364.89158 81748.3861882,-4625284.95614 81790.9582802,-4625051.92101 81831.6656189,-4624625.36108 81990.2441473,-4624482.60768 82332.9726548,-4624507.88989 82616.2501277,-4624732.52056 82631.2779241,-4624752.68682 82862.6003765,-4625063.74605 83398.1491966,-4625105.6569 83581.4996898,-4624915.67628 83730.9712314,-4624737.32201 83855.2951654,-4624481.68849 83950.8775564,-4624225.23767 83995.2913509,-4624097.22497 84038.4730153,-4624058.20066 84130.7133621,-4624127.22023 84120.1478428,-4624427.61032 83921.9765541,-4624918.4339 83804.1001853,-4625224.13947 83843.8082626,-4625386.58109 83966.0564574,-4625454.9317 84230.8531044,-4625473.85456 84495.2275934,-4625417.7713 84755.1726687,-4625332.63863 84868.7429302,-4625235.89014 85071.8092881,-4624981.12613 85045.5896494,-4624751.83176 85062.200147,-4624538.01042 85121.6518547,-4624338.66222 85235.8904877,-4624339.92322 85412.8898181,-4624498.88051 85682.6298067,-4624658.86157 86032.1967793,-4624766.72278 86307.6912958,-4624767.76409 86538.1509508,-4624839.80987 86730.4968674,-4624899.43467 87044.2461893,-4624945.39957 87366.9614503,-4624994.46365 87639.7424125,-4625037.4764 87901.6341527,-4624979.86684 88074.1642967,-4624864.26939 88275.895858,-4624730.494 88483.5171089,-4624697.2859 88782.2283254,-4624814.58704 89202.5818537,-4624919.23135 89638.046696,-4624968.54158 89994.9084725,-4624936.48216 90324.4556694,-4624978.12282 90697.3132693,-4624991.7414 90823.2840377,-4624994.63288 91137.3080067,-4625083.60344 91385.5611921,-4625264.84953 91505.6240419,-4625395.17853 91575.4474641,-4625524.45252 91588.4493026,-4625660.09895 91586.8113837,-4625672.58111 91572.6087258,-4625781.42644 91449.7087032,-4625930.57185 91261.1264915,-4626163.9934 91042.4274391,-4626430.58292 91034.1211402,-4626661.99566 91111.2106957,-4626880.35135 91281.8472349,-4627117.24065 91454.9558001,-4627356.65726 91653.5848766,-4627526.35449 92010.3282879,-4627572.79617 92268.5733111,-4627483.14742 92538.7783085,-4627306.6293 92793.8604935,-4627005.44185 93074.8216897,-4626941.54477 93345.2661762,-4627037.53458 93440.2370978,-4627176.08645 93505.01916,-4627354.30547 93425.2458379,-4627559.92776 93309.1904024,-4627723.1484 93086.6861175,-4627813.69167 92906.6125658,-4627933.20427 92904.8781729,-4628090.18784 93032.8248017,-4628163.10266 93190.3607003,-4628114.84233 93262.9579547,-4628015.64271 93544.1258591,-4627797.24545 93681.3642118,-4627662.75943 93803.9563577,-4627564.11222 93972.9428682,-4627361.97579 94136.9368879,-4627181.7846 94231.3345949,-4627032.82494 94366.9103083,-4627048.82334 94464.0727043,-4627328.40208 94497.4489274,-4627543.27473 94527.145985,-4627729.10616 94532.4657765,-4627881.16759 94552.0464903,-4628054.88694 94482.2277529,-4628264.61899 94342.3818786,-4628635.07985 94346.3040551,-4628913.6277 94576.5212776,-4629052.67378 94939.0931499,-4629137.18161 95260.2442283,-4628988.2282 95440.7929596,-4628825.72087 95656.3959826,-4628703.6016 95814.7785663,-4628601.35032 95979.8012932,-4628531.67298 96116.3270616,-4628461.68072 96353.0148832,-4628399.79564 96588.7772941,-4628376.40102 96996.7311529,-4628426.4109 97483.2594808,-4628469.78942 97629.36644,-4628573.40611 97679.2510761,-4628787.46088 97599.0917597,-4628960.07747 97438.206414,-4629107.80135 97178.0791596,-4629209.4276 97014.099009,-4629343.11713 96926.1478331,-4629542.14797 96895.2802963,-4629756.30993 96929.3686877,-4629906.68886 97066.8616932,-4630043.21049 97331.9100891,-4630129.64129 97566.8748919,-4630155.73879 97767.4806525,-4630055.95483 97893.4618777,-4629967.34616 98002.3458966,-4629797.04737 98134.4438722,-4629720.50651 98305.5703773,-4629731.89837 98416.5609238,-4629778.12597 98642.7013405,-4629946.62825 98757.4808868,-4630102.39926 98818.3971666,-4630313.57553 98795.0160877,-4630506.31961 98686.6724169,-4630605.12318 98556.6708448,-4630718.18753 98487.9359874,-4630852.42943 98558.1004839,-4630950.70631 98724.2272601,-4630962.04291 99017.2453707,-4630870.28103 99127.4905773,-4630802.99895 99235.8342557,-4630704.19547 99379.8343672,-4630591.28601 99524.0844882,-4630478.37933 99691.7085868,-4630241.22947 99829.9895425,-4629967.25467 100183.268178,-4629671.15668 100391.838995,-4629551.96119 100578.121667,-4629504.0203 100866.068317,-4629509.20434 101070.03078,-4629535.46008 101306.809559,-4629623.5796 101452.628197,-4629753.19383 101537.00208,-4629855.12821 101544.925372,-4629997.71768 101573.599553,-4630411.54001 101741.374129,-4630703.39888 101915.899477,-4630814.33018 102262.962135,-4630944.66978 102435.864096,-4630818.08044 102550.178301,-4630586.34196 102623.023903,-4630442.14587 102585.090715,-4630255.22408 102436.676341,-4630089.08064 102316.610661,-4629959.25115 102240.555556,-4629805.90807 102293.640273,-4629730.49417 102454.795234,-4629739.27658 102632.182044,-4629862.74 102787.83339,-4630007.4633 103475.376429,-4630275.57098 103673.593577,-4630391.76478 103731.973337,-4630560.91246 103723.55294,-4630689.32079 103650.164163,-4630860.01097 103477.024335,-4631008.09759 103319.23888,-4631056.35297 103167.596745,-4631204.67743 103178.997523,-4631462.30628 103360.292882,-4631661.81347 103506.763309,-4631732.43416 103611.393249,-4631788.59195 103848.094534,-4631793.21 103990.415886,-4631764.28388 104062.44864,-4631693.57991 104107.500923,-4631508.07636 104230.568868,-4631366.43617 104376.237231,-4631283.54659 104606.838558,-4631048.59494 104758.093784,-4630822.2657 104881.715002,-4630630.63114 105004.385014,-4630524.987 105183.430351,-4630498.4674 105325.533924,-4630557.04009 105316.477244,-4630742.94189 105220.644857,-4630998.88441 105204.339055,-4631184.70592 105236.766677,-4631485.06762 105401.264544,-4631824.39057 105594.588734,-4632089.03159 105870.922223,-4632285.09025 106031.779926,-4632365.87046 106433.383282,-4632469.81427 106690.836162,-4632451.66244 107104.342809,-4632541.73809 107406.036806,-4632682.57714 107615.70256,-4632825.89799 108011.886765,-4632877.28201 108151.873007,-4632810.8305 108222.992414,-4632687.1166 108226.451614,-4632532.65379 108263.779674,-4632390.06582 108285.973225,-4632304.81078 108379.593194,-4632248.84633 108472.267151,-4632278.37205 108578.701594,-4632329.5502 108733.006833,-4632595.75958 108809.367793,-4632789.10586 108956.989082,-4633026.74093 109105.627256,-4633149.88651 109218.834906,-4633244.13983 109333.083647,-4633266.90425 109419.061534,-4633246.35559 109506.223404,-4633118.81944 109607.002912,-4633048.43431 109643.539925,-4632977.33824 109722.191222,-4632963.70858 109836.665809,-4632943.47535 109943.267006,-4633002.15544 110320.866106,-4633106.33501 110606.427683,-4633123.49559 110785.156705,-4633125.47376 111027.890215,-4633149.66049 111269.909839,-4633238.33967 111388.694139,-4633461.15544 111506.466707,-4633797.96039 111591.254751,-4633884.89919 111712.264422,-4633929.23876 111883.353645,-4633763.13189 111986.897492,-4633646.27758 112031.07665,-4633539.7662 112082.736456,-4633389.83744 112084.789595,-4633204.35941 112128.956813,-4633076.34777 112234.040299,-4632978.51058 112423.189528,-4632965.10438 112708.441738,-4633032.76244 112890.926464,-4633327.78373 112972.554125,-4633700.18862 112982.535408,-4634085.80023 112994.171511,-4634321.92964 113041.082932,-4634600.94956 113075.721785,-4634701.3332 113195.463848,-4634860.15899 113288.609423,-4634892.19014 113366.312205,-4634919.05034 113573.454093,-4634928.84341 113781.946371,-4634816.65132 113986.223313,-4634723.91266 114097.901698,-4634662.64894 114205.21618,-4634656.837 114326.701439,-4634658.18197 114393.466374,-4634679.42116 114511.797895,-4634717.23128 114611.574511,-4634714.83593 114804.994724,-4634699.47737 114926.878463,-4634664.82681 115077.491213,-4634609.49433 115171.193945,-4634546.03177 115284.082579,-4634465.78163 115380.156841,-4634391.34535 115495.422552,-4634299.62156 115603.611635,-4634214.81945 115747.463345,-4634137.91225 115861.776931,-4634132.17805 116010.335897,-4634262.32316 116202.996763,-4634292.95658 116496.276472,-4634267.70425 116632.164859,-4634255.20906 116789.716693,-4634227.95381 116940.645035,-4634144.12523 117243.299066,-4633904.47703 117289.062224,-4633654.98381 117271.125116,-4633333.285 117208.782147,-4633161.09439 117115.707913,-4632942.06332 117077.716394,-4632738.14226 117101.499849,-4632509.4053 117268.272419,-4632304.25209 117548.096239,-4632207.35133 117812.314272,-4632210.27799 117953.713138,-4632354.84446 118051.408351,-4632562.92686 118115.568092,-4632751.63771 118227.555058,-4632933.37827 118366.694512,-4633123.91954 118616.4431,-4633169.18599 118781.542378,-4633092.51484 118987.650233,-4632924.79802 119062.546736,-4632595.6277 118928.657196,-4632247.1443 118757.509984,-4632034.74812 118602.655036,-4631818.53234 118583.462354,-4631632.81943 118741.634136,-4631527.07152 118998.502593,-4631516.41725 119148.763519,-4631560.58203 119290.704132,-4631633.65468 119394.767813,-4631763.30774 119515.626616,-4631979.1469 119735.044601,-4632167.07793 119927.544585,-4632212.21069 120056.266987,-4632192.13686 120164.057724,-4632143.33114 120201.465094,-4631993.74561 120267.529642,-4631829.97758 120277.155153,-4631615.58417 120501.636055,-4631346.57139 120639.186515,-4631184.09546 120695.258055,-4631019.71667 120629.05994,-4630811.98291 120387.989649,-4630637.81133 120221.277949,-4630498.96375 119890.725132,-4630368.30066 119490.683943,-4630349.36796 119379.574,-4630133.63624 119388.604794,-4629905.2356 119447.498082,-4629734.38761 119570.4073,-4629607.24911 119742.523918,-4629551.65615 119975.572976,-4629524.73856 120156.158632,-4629584.73992 120471.037761,-4629595.7294 120649.832131,-4629569.21076 120822.558797,-4629481.12477 121073.773518,-4629303.90847 121144.705184,-4629152.19421 121114.485817,-4628923.8586 121252.275335,-4628739.88522 121525.172515,-4628613.90961 121752.269036,-4628672.92699 121931.658824,-4628682.91547 122146.366383,-4628686.79547 122246.514477,-4628650.90552 122360.75014,-4628629.67179 122440.194492,-4628567.05231 122541.036508,-4628513.67006 122598.373256,-4628483.3056 122741.677476,-4628455.89417 122913.156791,-4628457.79519 123176.737476,-4628518.21743 123210.067145,-4628533.58697 123481.43168,-4628658.59567 123680.373612,-4628866.80153 123796.096148,-4629004.58463 123796.870398,-4629318.09338 123970.100232,-4629590.51391 124254.904387,-4629608.17143 124488.734233,-4629510.76394 124637.806336,-4629346.41684 124826.137368,-4629294.00501 125003.089865,-4629388.46697 125145.045603,-4629437.54094 125296.154376,-4629427.71647 125460.78312,-4629393.54198 125654.06454,-4629390.68521 125772.616821,-4629408.49979 125882.429772,-4629357.71758 126011.674263,-4629335.65083 126149.66065,-4629246.68117 126397.605615,-4629161.43096 126521.250981,-4629148.30221 126670.993826,-4629171.46283 126871.808806,-4629233.1898 126975.902038,-4629269.84416 127055.032121,-4629325.72161 127205.263233,-4629327.38778 127341.550626,-4629278.89946 127477.915648,-4629223.41206 127657.901406,-4629089.40875 127866.974009,-4629037.72789 128056.584043,-4629072.83093 128151.089164,-4629094.87912 128243.511342,-4629124.40419 128363.869802,-4629204.73895 128505.47379,-4629488.30852 128605.570238,-4629682.41795 128728.840321,-4629815.78465 128877.485096,-4629960.43272 129048.963085,-4629962.33481 129157.778005,-4630024.0415 129275.359244,-4630129.34518 129366.223727,-4630344.3518 129421.153442,-4630530.95992 129569.797963,-4630675.60778 129688.670271,-4630912.42468 129758.402639,-4631049.19717 129893.025832,-4631150.68968 130027.970618,-4631223.18596 130155.982831,-4631289.60539 130319.262979,-4631376.91586 130585.291447,-4631509.36569 130712.759218,-4631579.77903 130899.164096,-4631678.34589 131144.587582,-4631707.56813 131330.152071,-4631724.1265 131422.662745,-4631768.15232 131541.326017,-4631843.46795 131621.288405,-4631891.85452 131898.658982,-4632015.93028 132075.864978,-4632132.39489 132289.382193,-4632220.76264 132553.995921,-4632187.69873 132730.886973,-4632084.66248 132848.459488,-4632055.46728 132991.440164,-4632057.05364 133155.351771,-4632087.3719 133319.19713,-4632146.18908 133484.626148,-4632242.52336 133568.505906,-4632388.45215 133548.271548,-4632499.72617 133535.275489,-4632634.58017 133540.771379,-4632770.13932 133610.359104,-4632942.40902 133737.105772,-4633122.81272 133936.445968,-4633182.02352 134215.157567,-4633185.11582 134358.204038,-4633158.20338 134500.234696,-4633177.779 134622.190434,-4633204.13179 134851.186783,-4633226.67235 134965.226093,-4633200.43816 135229.606122,-4633210.87164 135501.306844,-4633192.3869 135736.469169,-4633244.99561 135999.733519,-4633333.4156 136111.915142,-4633542.15689 136153.072498,-4633685.6111 136266.446838,-4633786.86741 136444.605422,-4633817.34391 136644.671763,-4633833.5638 136908.645751,-4633857.99281 137165.06583,-4633932.33709 137477.695663,-4634100.30338 137646.951878,-4634302.17776 137758.411457,-4634553.4096 138041.740201,-4634771.04939 138336.136607,-4634779.81642 138699.777538,-4634721.35354 139013.599298,-4634781.83526 139298.591863,-4634849.49688 139611.303553,-4635009.96405 139748.8779,-4635475.97992 139864.173529,-4636034.74583 139959.165407,-4636485.78868 140014.026831,-4636700.89199 140103.273436,-4637016.37418 140244.03297,-4637217.93089 140363.218033,-4637426.24791 140504.371383,-4637592.30977 140638.752873,-4637715.29761 140866.425056,-4637789.32205 141102.705547,-4637763.44486 141360.632201,-4637701.809 141612.336309,-4637547.60687 141850.114422,-4637364.25116 142009.798496,-4637144.52986 142255.21963,-4636925.76026 142605.40489,-4636908.14785 142913.412813,-4636861.56825 143156.286559,-4636849.76469 143339.974829,-4636832.30435 143700.169411,-4636836.30287 143867.582097,-4636798.66259 143936.249122,-4636783.4254 144103.705547,-4636674.28791 144272.54401,-4636440.66973 144358.550824,-4636192.1324 144554.213824,-4636041.80959 144721.359576,-4635960.66807 144915.945726,-4635907.33043 145083.246899,-4635812.19121 145209.35984,-4635689.09554 145376.200269,-4635635.45 145502.007913,-4635539.85017 145599.764536,-4635471.43799 145766.449501,-4635431.79041 145960.108399,-4635461.94019 146112.795481,-4635422.13724 146224.855275,-4635326.38495 146309.846698,-4635146.83479 146421.445698,-4635092.57608 146601.878447,-4635053.08147 146796.153498,-4635027.74021 147129.678636,-4634934.44805 147337.956936,-4634908.76252 147449.150431,-4634868.49907 147588.08955,-4634828.54385 147712.819891,-4634829.92941 147865.756767,-4634790.12976 147977.255668,-4634722.37077 148130.50353,-4634654.57562 148283.901342,-4634573.28267 148451.052533,-4634491.64258 148716.104793,-4634328.59317 148911.612583,-4634192.27027 149175.592839,-4634125.70583 149342.277421,-4634086.05941 149508.195395,-4634115.40203 149674.568828,-4634103.75121 149868.387803,-4634119.40443 150062.201159,-4634135.55759 150228.42446,-4634137.40472 150463.958555,-4634291.01641 150544.045462,-4634417.90159 150667.847561,-4634502.77414 150791.405218,-4634587.14396 150859.410715,-4634698.89535 150955.16725,-4634810.45511 151023.422689,-4634922.20922 151131.53818,-4635158.90127 151255.034576,-4635271.2691 151407.570735,-4635244.96521 151574.81006,-4635177.82639 151699.600728,-4635151.21426 151990.241778,-4635182.44291 152142.411091,-4635211.63281 152336.529065,-4635200.29062 152544.094694,-4635216.09679 152764.730098,-4635315.5447 152916.588053,-4635372.73 153123.53118,-4635444.52689 153299.157329,-4635477.47741 153446.938118,-4635496.61906 153614.41006,-4635498.48035 153718.448179,-4635494.63687 153803.134018,-4635477.57889 153893.196686,-4635471.5802 153654.990879,-4642129.61429 153361.814263,-4649625.95257 153003.360789,-4657449.5098 151215.573217,-4695889.2083 150813.811794,-4703885.2859 150457.574734,-4712979.84941 150407.518905,-4720268.93085 150239.016615,-4726056.82549 150103.973634,-4730165.18564 149760.548516,-4737872.18334 149552.62511,-4748787.71702 154450.69862,-4748866.74314 154468.940671,-4748867.44241 153541.190985,-4749852.79256 152586.625079,-4750866.85282 152577.267056,-4750876.75049 152514.548759,-4750942.5647 148271.964419,-4755391.20767 146598.104748,-4757024.93452 146186.713912,-4757426.44474 146099.562334,-4757485.99335 146094.56287,-4757485.93873 104537.019679,-4756918.27768 104534.019881,-4756918.24467 104434.032104,-4756916.64434 92965.146916,-4756734.30708 84567.7084735,-4756503.13863 56614.2125086,-4755732.19875 14424.9612205,-4754626.91465 14420.7117722,-4754626.86717 12748.7875572,-4754598.68258 -8345.76353369,-4751758.63095 -21757.503134,-4749952.26792 -32955.4197759,-4748518.56649 -40536.2006654,-4747547.89628 -55040.3623082,-4745702.29198 -74886.1049093,-4743176.84717 -69934.0711108,-4737538.28152 -66878.7026683,-4734059.61655 -66707.8083554,-4733865.09066 -53739.5500262,-4719382.15659 -47062.641646,-4711913.41601 -46881.0292151,-4711854.95427 -44637.4446753,-4711131.62679 -44625.3149893,-4711119.76452 -44623.3045174,-4711118.78714 -29551.8468379,-4705521.15201 35907.3632132,-4681206.06146 36349.9780966,-4663111.26256 36350.8912359,-4663073.77424 36264.9714919,-4663066.82757 36062.4558132,-4663137.09252 35649.9342792,-4663186.04381 35018.4960118,-4663319.07861 34651.7797765,-4663567.02572 34413.2024156,-4663620.39382 34147.5554212,-4663589.46742 33810.5318668,-4663683.74861 33501.5037598,-4663778.33829 33416.9008331,-4663833.40326 33023.5785496,-4663955.06254 32562.4280628,-4663879.98364 32296.3189426,-4663891.05027 32113.1778295,-4663950.02899 32110.2493585,-4663875.50034 32066.9865529,-4662742.57857 31804.7781529,-4655885.51318 31786.3072501,-4653657.41006 31782.0477013,-4653135.88623 31737.441159,-4648647.08677 31688.4357462,-4641781.31233 31535.6326067,-4623340.61885 31434.0408084,-4611119.08768 31355.054984,-4601681.12309" style="stroke-linejoin:round;stroke:#000;stroke-width:1px;fill:none" /></g></g></svg>