<svg xmlns="http://www.w3.org/2000/svg" baseProfile="full" height="73290.1491989" version="1.1" viewBox="-24874.384630,4771906.020847,162971.914508,73290.149199" width="162971.914508"><defs><style type="text/css">polyline,line,rect,path,polygon,.polygon{fill:none;stroke:#000;stroke-width:1px;stroke-linejoin:round;}</style></defs><g fill_rule="evenodd" transform="scale(1,-1)"><g class="hogares departamen mujeres departam_1 toponimo_i tot_pob varones viv_part viv_part_h" id="62028"><polygon class="_62028" id="None" points="-16669.0285739,-4771920.37911 -1562.84074635,-4773070.25042 11290.2104145,-4773211.9838 23186.1326211,-4773415.02672 30611.8632254,-4773500.08621 39516.1201044,-4773619.18131 48061.9785266,-4773741.82783 48067.4769562,-4773741.76651 48039.7949076,-4774262.99113 55103.9419371,-4774184.22843 61990.7571906,-4774199.96351 66265.6370985,-4774227.82641 68785.4901989,-4774266.74717 74874.0793282,-4774319.92783 78460.0328691,-4774356.49508 82618.3316416,-4774398.69945 90042.6947407,-4774500.56142 99602.1552146,-4774814.14202 101794.047183,-4774832.2668 105766.332747,-4774905.08472 115909.875661,-4774952.36281 122292.213698,-4775065.93379 132411.723913,-4775297.9894 134964.106253,-4775320.15548 138053.08195,-4775380.8513 138053.11519,-4775383.84926 137920.115717,-4782822.66079 137803.659948,-4788941.01443 137604.860311,-4799977.0048 137421.047597,-4809291.80897 137295.635589,-4817278.72718 137117.89474,-4824741.56423 137095.5041,-4825915.66421 136952.683088,-4833408.13676 136925.670614,-4834610.28262 136925.206235,-4834635.27416 127019.139983,-4834612.86107 122964.629334,-4834614.1201 104751.457966,-4834545.79631 99008.4073662,-4834528.22629 98856.4591241,-4834527.95701 98281.2687602,-4834537.00475 95725.3696218,-4834576.59793 89736.8716845,-4840390.92924 87648.9020411,-4842418.12702 87484.4580333,-4842571.95732 87476.6154956,-4842585.54271 86673.5061951,-4843364.97618 86043.659447,-4843974.98639 85698.5796908,-4844309.32846 85576.3544743,-4844439.68601 81330.9201776,-4840285.32162 81207.5746809,-4840164.26164 80128.2333975,-4839120.85294 79549.2657591,-4838561.10323 77600.6335333,-4836658.80828 77597.3450143,-4836655.34664 64263.3636106,-4836812.51249 60884.0981849,-4836836.43301 54038.4718368,-4836885.23835 39983.4712789,-4836976.37592 34306.6032628,-4837012.81251 34100.6427001,-4837014.14986 24131.5245069,-4837089.24598 13864.6432803,-4837207.14077 10066.9573668,-4837215.1775 580.819172659,-4837210.63043 -16308.2039917,-4837338.26671 -16339.8417086,-4804645.43101 -16642.7911729,-4787169.0319 -16643.0605642,-4787145.03511 -16643.1054626,-4787141.03565 -17204.9616716,-4786730.34611 -24845.649042,-4780722.09155 -24759.837947,-4780660.62818 -24357.4405407,-4780250.10988 -22720.1659287,-4778579.73098 -18577.0575282,-4774038.26042 -18515.8101621,-4773971.07389 -18506.6733305,-4773960.97147 -17574.7659518,-4772926.02716 -16669.0285739,-4771920.37911" style="stroke-linejoin:round;stroke:#000;stroke-width:1px;fill:none" /></g></g></svg>