<svg xmlns="http://www.w3.org/2000/svg" baseProfile="full" height="244776.310132" version="1.1" viewBox="-19014.552536,4786416.235087,118754.294708,244776.310132" width="118754.294708"><defs><style type="text/css">polyline,line,rect,path,polygon,.polygon{fill:none;stroke:#000;stroke-width:1px;stroke-linejoin:round;}</style></defs><g fill_rule="evenodd" transform="scale(1,-1)"><g class="id" id="62049"><polygon class="_62049" id="None" points="99908.2361264,-4798880.18059 99515.4055809,-4811578.58215 99237.1695623,-4821190.38057 99177.4925538,-4823157.22834 98764.8159748,-4837354.0884 98391.0263499,-4849860.38335 97957.8065773,-4861978.57694 97927.6649679,-4862928.42633 97667.745021,-4873048.32886 97661.2405466,-4873300.68746 97659.1698282,-4873347.64153 97361.8207409,-4880509.0337 97134.0481435,-4885888.9427 97005.15065,-4890221.0741 96408.512194,-4909767.69998 96037.301935,-4922059.3657 95740.522222,-4931592.22589 95590.6469926,-4935558.87117 94878.4396533,-4957000.18584 94258.5607012,-4975639.45046 93897.9141112,-4986527.99987 93591.0294448,-4995354.28719 92693.9860375,-5021812.23483 92611.0446195,-5024258.24831 92482.2786653,-5028049.97291 92377.6078754,-5031132.65412 87678.0277289,-5031064.12407 82434.9133404,-5031005.46544 67710.8047077,-5030862.27015 31858.7659635,-5030449.89806 24892.6978115,-5030388.2071 -6142.46317874,-5030223.26378 -6050.12908662,-5024359.51883 -5914.88126995,-5017304.03063 -5637.39754108,-5000222.62627 -5333.17175215,-4984542.72473 -4744.04405011,-4951434.74453 -4372.77478861,-4938001.91214 -4315.32310213,-4936296.70415 -576.304472585,-4824414.58287 -19002.8926017,-4815428.37988 -10917.0206298,-4807368.74581 10736.7720592,-4786422.42236 30553.5061366,-4789168.72465 45036.1580804,-4791176.85503 52605.5249136,-4792232.84556 63786.4524443,-4793793.04799 77176.6242993,-4795751.65271 98236.7972191,-4798832.78409 99908.2361264,-4798880.18059" style="stroke-linejoin:round;stroke:#000;stroke-width:1px;fill:none" /></g></g></svg>