<svg xmlns="http://www.w3.org/2000/svg" baseProfile="full" height="68467.7698345" version="1.1" viewBox="-25981.843998,4987406.193928,161921.664650,68467.769834" width="161921.66465"><defs><style type="text/css">polyline,line,rect,path,polygon,.polygon{fill:none;stroke:#000;stroke-width:1px;stroke-linejoin:round;}</style></defs><g fill_rule="evenodd" transform="scale(1,-1)"><g class="id" id="62056"><polygon class="_62056" id="None" points="61039.4602198,-4988308.68754 61650.3401482,-4988450.06926 66062.8362552,-4989509.18608 70847.9390561,-4990652.47396 80565.170286,-4992974.84008 94120.6144037,-4996236.82271 103707.061853,-4998537.4182 104471.926041,-4999912.89485 109226.806583,-5008487.88391 114686.063851,-5018365.16171 119967.812971,-5027932.77587 124599.12239,-5036292.52612 128166.120089,-5042719.04155 129584.190089,-5045273.92834 130708.142625,-5047312.36227 134695.872422,-5054546.13007 131581.69084,-5054471.87777 121055.542075,-5054484.61986 114379.512273,-5054491.44153 108464.511458,-5054497.62187 102762.884325,-5054503.70282 89262.4293711,-5054517.18449 89236.9184936,-5054517.19417 83819.0552243,-5054522.16384 67243.4628605,-5054538.93409 63796.5351838,-5054542.42195 60092.6690469,-5054545.86433 47501.091825,-5054557.9686 47482.3173235,-5054558.3704 47475.5899868,-5054557.97687 30665.0200555,-5054574.36996 30266.7995108,-5054574.56299 26865.288189,-5054577.46724 23787.0584809,-5054580.774 20693.9737369,-5054583.1925 15246.6032659,-5054588.73536 6624.10189787,-5054597.24493 3638.76327892,-5054599.36915 2639.0752067,-5054600.3051 2627.06232606,-5054600.60124 -12905.2147146,-5054613.92108 -20474.7769137,-5047371.14674 -19196.4871686,-5036907.4893 -25842.0367266,-5032867.93023 -22031.5739674,-5023020.61378 -20506.5193792,-5019033.67555 -20468.1683237,-5019022.91675 -20319.1109078,-5018625.3649 -18771.7476028,-5014496.69111 -18937.3131963,-4998152.43237 -18956.2869214,-4998126.34894 -18950.5202679,-4998121.68669 -18958.9264836,-4997719.46945 -2503.20645336,-5002598.23708 6287.09820165,-4989263.05832 16263.6170134,-4999055.32279 25508.3309891,-4990858.42119 31971.5591311,-4987474.36316 35034.7142941,-4987563.18686 47212.4069849,-4987915.17 47219.8817825,-4987915.60273 47233.6144284,-4987915.89776 47251.084476,-4987916.40915 47494.5166591,-4987917.5023 47548.7864557,-4987917.14418 60750.6276408,-4988300.96506 61039.4602198,-4988308.68754" style="stroke-linejoin:round;stroke:#000;stroke-width:1px;fill:none" /></g></g></svg>