<svg xmlns="http://www.w3.org/2000/svg" baseProfile="full" height="120583.010047" version="1.1" viewBox="-21882.156383,4632888.357446,162039.084079,120583.010047" width="162039.084079"><defs><style type="text/css">polyline,line,rect,path,polygon,.polygon{fill:none;stroke:#000;stroke-width:1px;stroke-linejoin:round;}</style></defs><g fill_rule="evenodd" transform="scale(1,-1)"><g class="hogares departamen mujeres departam_1 toponimo_i tot_pob varones viv_part viv_part_h" id="62063"><polygon class="_62063" id="None" points="40069.6928106,-4640304.17771 40231.1491825,-4640302.41737 40320.9692148,-4640195.45418 40349.2274053,-4640013.17371 40279.6771144,-4639892.95023 40254.8680462,-4639703.74931 40291.5391767,-4639582.36782 40343.8655928,-4639521.30658 40548.3920952,-4639526.5761 40715.669749,-4639600.24131 40866.8883688,-4639737.07189 41006.8503085,-4639735.54629 41383.8081352,-4639759.93314 41528.5049577,-4639848.84199 41599.4605134,-4640098.02973 41669.338027,-4640271.2409 41731.477164,-4640399.54337 41891.5885697,-4640503.78134 42058.8654131,-4640577.44592 42453.1656358,-4640633.638 42740.4269163,-4640593.01261 43028.0966084,-4640589.87691 43398.164545,-4640509.8555 43594.5317111,-4640454.72384 43828.6381529,-4640399.18099 44017.3826063,-4640355.63076 44198.2150962,-4640274.17309 44460.7375054,-4640234.31834 44659.4249883,-4640208.65712 44962.6661357,-4640258.34395 45174.109937,-4640210.54756 45308.9157827,-4640080.10031 45420.6562879,-4639897.41328 45532.1469839,-4639714.72907 45683.685233,-4639720.57694 45820.4297574,-4639768.07898 45927.515589,-4639869.39505 46102.8698175,-4639973.46671 46385.0972255,-4640159.35976 46599.3447152,-4640368.98919 46745.2802962,-4640571.86392 46882.8085228,-4640691.34452 47080.497046,-4640757.67866 47239.0365417,-4640717.95792 47305.6164056,-4640565.75898 47561.7997533,-4640471.98393 47910.7742835,-4640521.17287 48214.6762583,-4640631.84201 48405.2744326,-4640735.74676 48565.1310687,-4640816.99044 48742.1341391,-4641095.51172 48924.8971507,-4641191.50287 49061.7707017,-4641251.00061 49183.8883064,-4641332.65507 49284.667785,-4641543.51844 49324.3071646,-4641717.55467 49484.4955279,-4641829.28845 49719.1745153,-4641826.73135 49869.0601028,-4641681.1248 49896.2513035,-4641400.8802 49962.5801965,-4641225.68977 50036.9895381,-4641103.90151 50240.7686798,-4641041.19293 50468.1134544,-4641076.70949 50575.2354275,-4641181.52292 50698.1798697,-4641339.15402 50813.1261958,-4641473.87641 50914.1552739,-4641707.73168 50938.8750256,-4641888.9282 50918.2776841,-4642086.11548 50927.4255661,-4642237.48722 51004.3885845,-4642350.12718 51246.4822145,-4642339.99074 51420.2644749,-4642300.10449 51532.656511,-4642200.39872 51779.3662328,-4641902.76732 51920.0170793,-4641620.78886 51970.6922114,-4641408.27747 52052.7671929,-4641278.90814 52159.4875461,-4641186.26338 52453.2338268,-4641214.05831 52673.7323396,-4641309.63801 52887.5659023,-4641481.77531 52911.8766172,-4641625.4825 52883.3673418,-4641784.76203 52733.7278339,-4641952.85953 52510.2619303,-4642273.23202 52406.4406414,-4642471.32486 52438.4946607,-4642637.44328 52568.6856553,-4642771.99829 52751.0430154,-4642830.99945 53009.2843098,-4642903.67091 53167.8202317,-4642863.95105 53318.2001056,-4642786.82754 53498.5360668,-4642637.39204 53732.9181477,-4642630.83946 53893.1036897,-4642742.57179 53970.8933973,-4642931.18646 53973.2024068,-4643143.11887 54032.1006345,-4643295.44647 54285.2533172,-4643291.1885 54565.0812531,-4643257.64584 54782.697328,-4643088.80875 54924.7560666,-4642913.29653 54968.4233845,-4642768.85013 55004.1843471,-4642564.00217 55024.6187145,-4642351.82266 55167.9087184,-4642312.26978 55358.5017055,-4642416.17239 55503.1960406,-4642505.57787 55679.4528919,-4642693.11925 55757.1545778,-4642873.73554 55789.5399062,-4643070.34212 55912.1503076,-4643220.47517 56176.4050532,-4643157.10917 56326.2058759,-4643004.009 56430.4399845,-4642843.90685 56420.6342838,-4642632.05782 56471.4722706,-4642434.5452 56591.936928,-4642364.74764 56751.4618302,-4642415.99942 56881.2854243,-4642517.06422 56966.8160085,-4642728.08826 57014.4458015,-4642924.52807 57046.9123883,-4643128.63134 57079.6241018,-4643355.2271 57134.1746324,-4643498.60243 57256.0433503,-4643557.76209 57529.8523282,-4643683.25213 57736.1029151,-4643847.96967 57858.7069881,-4643997.60166 57914.1669053,-4644224.44853 57976.9550463,-4644412.72371 58061.1683271,-4644502.78653 58145.6266646,-4644615.34175 58222.6746567,-4644735.9759 58359.9463408,-4644832.45887 58588.0293456,-4644913.45541 58879.4042773,-4644930.77606 59118.5091008,-4644968.16199 59435.6604371,-4644896.72148 59714.5788273,-4644780.2079 59963.0886062,-4644648.52934 60263.6768808,-4644456.29722 60512.6002511,-4644362.60628 60700.8760461,-4644277.07441 60964.1353426,-4644122.74143 61121.8448541,-4644007.54961 61295.13111,-4643922.68139 61454.9415108,-4644000.42302 61623.522895,-4644195.04232 61619.4930104,-4644513.51331 61599.3477152,-4644752.17808 61746.0578896,-4645004.0218 61930.9623168,-4645297.43943 62136.4585151,-4645416.17275 62418.1783146,-4645557.07016 62654.7405845,-4645728.45229 63232.2869841,-4645974.60063 63415.8796587,-4645987.09699 63679.7643656,-4646005.21707 63800.0617232,-4645920.42642 63981.414593,-4645887.95807 64193.7524503,-4645923.63582 64384.6659812,-4646080.51779 64575.8298834,-4646260.39127 64797.5589066,-4646446.9298 65093.5297047,-4646519.68672 65260.8732056,-4646600.84324 65458.6292515,-4646674.67005 65648.7142068,-4646755.57864 65907.6884092,-4646896.72149 66074.786316,-4646955.3859 66325.4350921,-4647020.63806 66521.9111564,-4647000.00202 66657.7787312,-4646968.02938 66839.1294323,-4646935.56127 66953.0061562,-4646949.81674 67059.707449,-4647016.63717 67099.0117274,-4647160.17265 67274.7653571,-4647302.22138 67488.0043177,-4647420.86734 67677.9243422,-4647486.78074 67959.6379157,-4647627.67446 68264.2560062,-4647783.3145 68515.3116064,-4647909.04578 68713.9691298,-4648065.83993 68821.9932442,-4648254.11357 68908.0985348,-4648518.10624 69123.4007979,-4648826.17863 69375.0385927,-4649005.38817 69659.5619986,-4649060.27168 69815.106632,-4649091.06772 69884.5098485,-4649106.80689 70004.7797478,-4649134.48831 70126.6423116,-4649193.64398 70233.2606907,-4649252.96577 70347.6267359,-4649335.19693 70424.3390335,-4649425.33645 70478.3101164,-4649515.72381 70546.9859358,-4649556.46409 70743.1090665,-4649664.29669 70934.8188079,-4649711.19371 71109.3286953,-4649762.2771 71246.4347958,-4649821.26615 71452.0053569,-4649947.49035 71734.1290006,-4650126.36522 71978.261845,-4650305.15406 72199.4129435,-4650439.20552 72374.8319287,-4650573.75539 72595.9772637,-4650707.30667 72862.1092332,-4650817.8735 73091.1707913,-4650989.82731 73365.622164,-4651175.78184 73548.7056014,-4651302.74922 73736.2691567,-4651382.18098 73950.950109,-4651404.33307 74079.484842,-4651387.93573 74200.2282465,-4651344.63105 74370.527943,-4651307.78408 74586.1589026,-4651325.42723 74745.5468847,-4651365.17749 74883.0223295,-4651481.14485 74953.1847823,-4651658.32871 74970.0753539,-4651832.09453 75024.2910641,-4651944.97064 75169.6387251,-4652072.34836 75290.7529308,-4652086.02318 75411.5392093,-4652046.7169 75556.2330601,-4651976.65881 75994.4258803,-4652051.85701 76162.2628232,-4652155.99576 76376.0722875,-4652327.61308 76657.8589472,-4652498.9886 76909.6523108,-4652670.19104 77216.4636033,-4652775.81241 77259.1257985,-4652791.8422 77406.6859751,-4652847.21581 77517.6250227,-4652890.49253 77639.3204281,-4652934.65161 77829.4015949,-4653016.05336 77974.001707,-4653097.9511 78074.1939387,-4653255.81039 78136.0696165,-4653383.59672 78327.8832964,-4653600.93799 78518.3783614,-4653720.32303 78694.2013448,-4653869.35899 79032.4827248,-4654156.57949 79357.2137739,-4654278.49795 79744.6239093,-4654395.7335 80023.2127273,-4654434.68083 80047.7403838,-4654437.91213 80358.0196593,-4654426.52924 80592.9193172,-4654446.95919 80890.4934575,-4654485.19954 81100.8550697,-4654524.39139 81284.0148128,-4654658.85001 81398.7896052,-4654756.06661 81392.695322,-4654907.58521 81228.7437302,-4655136.30256 81103.2731906,-4655433.07862 81089.9281004,-4655607.16938 81054.5511749,-4655823.48736 81057.7700853,-4656118.3591 81120.8082225,-4656352.59662 81197.9275828,-4656480.21396 81259.6442406,-4656570.51127 81343.6873728,-4656645.56952 81495.1168567,-4656666.40894 81683.9555,-4656611.36396 81787.7591676,-4656413.29347 81831.0076682,-4656208.38657 81927.5615131,-4656055.88093 82017.2832203,-4655941.43783 82152.2350973,-4655826.50112 82256.6993625,-4655688.90467 82354.1687864,-4655597.36992 82466.6261646,-4655505.17183 82549.5940696,-4655481.77363 82662.7976219,-4655435.05289 82844.4674133,-4655433.0704 83004.1487734,-4655477.31301 83064.9765029,-4655509.13871 83095.3449959,-4655543.79598 83186.6319181,-4655572.79006 83323.3177991,-4655616.78367 83486.5671806,-4655644.49256 83602.7401923,-4655686.7106 83854.4072696,-4655732.44835 84127.2763873,-4655774.45581 84316.1134343,-4655719.41253 84497.2038406,-4655664.45388 84775.9219081,-4655555.44761 85018.0673042,-4655530.31297 85260.704182,-4655573.15044 85549.229163,-4655652.97464 85823.426847,-4655816.92686 86046.376234,-4656116.89235 86011.2842315,-4656382.18608 85899.9032529,-4656572.83793 85620.6099172,-4656651.86087 85212.4544607,-4656693.80356 85001.0478734,-4656764.58845 84866.0978818,-4656879.52389 84785.029737,-4657076.84365 84718.3820246,-4657221.5235 84689.7172579,-4657365.78868 84743.8502564,-4657471.16238 84895.8602815,-4657522.48488 85077.9427887,-4657558.48396 85304.8387232,-4657533.01408 85486.3424535,-4657516.03725 85675.5881974,-4657521.46836 85872.084808,-4657504.32791 86028.9441788,-4657313.17922 86300.1672334,-4657181.76164 86503.7442543,-4657103.56503 86668.9294466,-4656988.30041 86818.5432747,-4656820.22398 86893.4347628,-4656743.93228 86953.5741946,-4656712.78629 87112.5009828,-4656711.05172 87271.6731186,-4656731.80678 87423.5995191,-4656775.63303 87591.0970703,-4656872.27106 87631.0650611,-4657053.77219 87566.316352,-4657372.36953 87388.3661985,-4657714.69518 87178.6961117,-4657921.41432 86976.4407647,-4658120.55542 86698.2235603,-4658275.04201 86586.2616504,-4658435.2106 86527.8528727,-4658624.78416 86545.0010835,-4658799.03737 86600.0403638,-4658987.37165 86662.1668088,-4659138.14121 86746.70521,-4659258.67607 86801.1659491,-4659394.0345 86870.7113345,-4659514.733 87045.1223114,-4659557.81187 87181.7283603,-4659571.81393 87347.9818451,-4659554.50273 87499.826466,-4659590.83053 87591.1130807,-4659642.81478 87667.7397562,-4659725.44861 87759.5219424,-4659799.91955 87836.1444635,-4659905.0455 87950.09257,-4659926.79236 88145.6352459,-4659799.69919 88274.1133184,-4659801.79414 88426.2904261,-4659868.60743 88891.0494263,-4660135.93335 89229.9561357,-4660252.6874 89510.50622,-4660312.09948 89840.3234477,-4660420.45546 90000.0779033,-4660494.68254 90220.4672274,-4660583.24152 90312.9912793,-4660725.67894 90360.7035191,-4660929.58411 90309.9630422,-4661134.56533 90282.2091493,-4661384.77901 90358.917241,-4661474.90776 90458.1950592,-4661549.29528 90572.3836963,-4661616.02243 90693.9087805,-4661645.18284 90823.2580185,-4661704.24684 90930.3653593,-4661809.03749 90984.6676121,-4661929.89978 91151.9124366,-4662003.54377 91553.4642257,-4662021.64508 91788.5976488,-4662064.55757 91993.0817316,-4662092.81063 92251.9426381,-4662225.93029 92412.1109596,-4662338.13696 92519.9608974,-4662510.89341 92636.1801409,-4662740.53707 92714.8718176,-4663012.07552 92792.8203266,-4663215.64711 92908.828434,-4663448.79105 92972.2837426,-4663720.99533 92989.5109821,-4663902.23928 92961.5943155,-4664114.46579 92949.5017333,-4664402.49085 92883.9324126,-4664645.11829 92727.1656788,-4664843.76078 92546.998301,-4664982.18213 92396.9822359,-4665089.78495 92255.2028449,-4665287.76427 92226.7129992,-4665447.51717 92213.2104495,-4665606.60618 92252.8443685,-4665757.11633 92261.2545539,-4665840.49332 92368.1164575,-4665922.79223 92505.2079963,-4666004.26021 92702.9429532,-4666078.06661 92922.3347971,-4666075.66412 93095.3386315,-4665967.80929 93305.4061576,-4665798.57167 93484.9979052,-4665607.6763 93642.3433852,-4665462.00784 93822.7612907,-4665346.57552 93988.4345322,-4665276.78761 94177.840198,-4665274.71431 94307.1058804,-4665326.27924 94437.0297446,-4665460.80541 94536.8099364,-4665581.16693 94606.3498018,-4665701.35959 94675.3936099,-4665799.06619 94745.2673022,-4665949.74341 94776.7442463,-4666062.85547 94869.0228392,-4666182.79885 94884.9291823,-4666266.09276 94984.4577844,-4666363.46521 94955.7115657,-4666499.72797 94964.701933,-4666636.07727 94989.0989185,-4666787.25207 95013.6602144,-4666953.41928 95030.1416,-4667089.18663 95099.7696111,-4667217.37445 95184.302508,-4667337.40197 95253.7608691,-4667450.09743 95360.5395657,-4667524.89838 95512.7897477,-4667598.70127 95755.086842,-4667611.54073 95928.6681202,-4667556.65957 96063.5185671,-4667433.72939 96266.9237056,-4667341.03635 96485.7316295,-4667285.66016 96601.7687358,-4667201.92131 96795.405283,-4667221.29193 96970.896315,-4667340.82208 97108.4833767,-4667467.7645 97245.8240498,-4667572.21833 97481.4497661,-4667660.60122 97730.9889951,-4667650.37051 97934.3871034,-4667557.17844 98023.517212,-4667389.76819 97952.647762,-4667148.14061 97800.3173684,-4667066.84185 97610.6668048,-4667023.4369 97422.1764112,-4667085.97743 97294.0727331,-4667140.35962 97180.2149836,-4667103.62161 97126.5798698,-4667043.73282 97110.2594485,-4666945.45023 97131.5091293,-4666809.2709 97137.8450648,-4666703.24313 97189.5701769,-4666588.72147 97286.6954012,-4666466.70549 97331.176169,-4666375.25423 97406.0610641,-4666298.96401 97572.1417662,-4666266.65765 97738.638182,-4666272.33179 97983.0048553,-4666451.58425 98258.3462973,-4666720.96116 98605.1368304,-4667284.93692 98692.0712469,-4667624.34856 98777.4348546,-4667820.33457 98869.6302301,-4667932.77906 99006.8877583,-4668029.73578 99211.6149496,-4668057.98056 99484.0544817,-4668062.49277 99725.7648503,-4667999.36919 99853.4528065,-4667929.99793 99943.7370848,-4667868.03364 100031.460506,-4667777.60905 100101.16444,-4667730.36441 100191.614838,-4667706.383 100366.93344,-4667810.41941 100437.386405,-4668014.06418 100470.275713,-4668256.10482 100525.815633,-4668489.90045 100603.934926,-4668708.95443 100772.334593,-4668888.53466 100962.727324,-4668999.90154 101163.188088,-4669323.0705 101075.890175,-4669657.38994 100958.022489,-4669938.56678 100810.005596,-4670250.56194 100721.298441,-4670433.45986 100700.549845,-4670615.11284 100747.600862,-4670781.02842 100869.537289,-4670848.16289 100975.891956,-4670884.48097 101150.301243,-4670905.55859 101299.807633,-4670729.49102 101486.134234,-4670470.0543 101771.576768,-4670270.50592 101958.895283,-4670101.5216 102123.481501,-4669933.28658 102296.394263,-4669817.93839 102560.34222,-4669732.07973 102891.916935,-4669592.00255 103201.914768,-4669558.1176 103822.163158,-4669536.32584 104200.542171,-4669517.18521 104456.570443,-4669392.93118 104626.992267,-4669073.19975 104607.93781,-4668702.56737 104485.182966,-4668560.47358 104310.117533,-4668456.43667 104179.943373,-4668321.42084 104132.563273,-4668148.0139 104160.804418,-4667965.78202 104219.946913,-4667844.18578 104302.323185,-4667744.82558 104438.416664,-4667735.83836 104567.09625,-4667734.42916 104658.04284,-4667755.92356 104847.358766,-4667769.34367 104984.774401,-4667858.29995 105101.11275,-4668121.91192 105265.827617,-4668649.87943 105368.171474,-4669004.60457 105470.181791,-4669328.84615 105594.022865,-4669592.8741 105825.873789,-4670021.64576 105948.384254,-4670164.24024 106228.907888,-4670223.13812 106532.56108,-4670180.82656 106864.121506,-4670131.21234 107006.629822,-4670023.69691 107316.539426,-4669982.31688 107551.409421,-4670002.73246 107696.902409,-4670167.564 107737.702025,-4670424.50256 107741.432843,-4670764.81055 107706.27604,-4671022.58174 107472.409008,-4671093.61581 107307.4932,-4671231.36411 107248.939827,-4671406.42914 107243.348114,-4671602.90364 107252.754547,-4671754.23352 107307.966701,-4671958.03747 107325.364885,-4672177.2495 107282.547203,-4672397.12215 107201.090016,-4672579.93544 107066.325856,-4672709.85746 107068.568768,-4672914.24256 107130.948792,-4673087.98086 107268.781548,-4673214.91125 107428.980917,-4673330.60084 107634.610633,-4673441.79336 107858.817484,-4673560.77818 108150.895841,-4673602.5519 108379.349771,-4673721.48967 108601.544652,-4673975.93503 108741.708742,-4674315.24274 108859.133346,-4674677.28954 108846.383695,-4674904.32723 108881.188706,-4675320.2571 109049.259614,-4675447.35252 109294.609875,-4675739.52349 109223.065387,-4676119.13789 109035.670179,-4676280.12527 108856.264955,-4676486.00482 108729.42306,-4676654.32363 108761.111368,-4676786.41557 108852.723977,-4676845.88123 109004.052167,-4676859.21098 109275.81628,-4676780.75785 109395.661895,-4676657.99567 109508.014626,-4676558.30553 109598.130229,-4676504.33919 109665.758771,-4676450.62004 109689.890455,-4676440.85916 109703.322266,-4676435.21404 109763.954878,-4676427.05109 109877.389423,-4676425.80443 109968.419277,-4676432.30058 110120.246411,-4676491.10431 110287.734727,-4676565.22873 110409.576339,-4676646.85152 110532.173074,-4676774.44479 110669.837991,-4676908.86905 110747.208364,-4677059.44879 110817.165579,-4677217.60646 110902.284464,-4677391.09016 110994.646336,-4677541.50471 111162.793586,-4677675.59297 111346.684821,-4677877.97611 111529.82868,-4678012.39871 111745.052598,-4678155.46408 111932.920635,-4678196.87763 112099.822846,-4678240.52077 112274.635236,-4678299.06981 112442.202209,-4678403.1771 112579.207181,-4678477.63449 112800.322255,-4678611.13835 112922.250988,-4678700.75423 113104.015158,-4678800.7066 113302.276831,-4678833.00926 113491.243817,-4678815.43786 113665.307527,-4678806.02663 113854.527038,-4678811.44156 114012.937296,-4678764.72045 114163.84644,-4678717.58217 114322.086096,-4678655.37052 114488.068485,-4678615.56301 114660.966179,-4678500.21578 114797.381551,-4678521.20457 114919.141132,-4678572.83986 115033.820378,-4678685.02379 115164.323061,-4678850.00795 115151.833286,-4679077.53551 115116.18722,-4679289.82534 115012.912312,-4679532.84493 114847.595917,-4679633.1166 114667.209092,-4679749.04683 114555.44126,-4679924.1933 114496.809041,-4680091.2587 114528.954926,-4680264.82137 114575.846714,-4680393.24327 114660.630885,-4680536.24074 114730.171086,-4680656.41699 114919.890177,-4680707.30277 115154.415932,-4680697.22439 115372.94698,-4680618.85531 115522.941467,-4680488.76635 115718.903367,-4680403.14974 115891.549087,-4680287.80454 116058.197663,-4680285.97022 116165.134171,-4680375.74874 116181.538678,-4680504.00543 116137.983025,-4680655.91096 116078.689353,-4680785.5008 116049.706631,-4680899.26454 116051.373712,-4681050.6723 116067.863436,-4681163.93536 116136.652886,-4681238.64104 116653.176309,-4681399.87125 116888.19523,-4681434.76466 117122.883699,-4681439.67644 117342.584413,-4681467.7419 117553.787986,-4681404.94595 117734.506921,-4681319.49725 117891.912067,-4681181.83152 118051.228636,-4681195.0698 118188.725819,-4681314.49549 118160.497535,-4681496.71564 118117.606723,-4681731.57116 118097.204412,-4681943.69028 118008.765226,-4682172.0512 117957.46048,-4682323.54127 117921.236751,-4682460.37246 117886.09776,-4682695.64277 117866.109458,-4682945.23899 117905.92319,-4683134.20601 118006.278748,-4683307.01337 118151.278026,-4683426.85465 118273.532353,-4683523.45819 118440.931414,-4683612.56748 118744.078863,-4683639.71053 118947.030273,-4683508.53818 119234.424636,-4682809.22141 119253.741389,-4682498.66507 119311.533642,-4682255.65064 119447.032312,-4682193.68851 119568.789825,-4682245.32046 119660.734614,-4682335.26153 119722.446272,-4682448.02421 119724.367624,-4682622.41467 119658.660099,-4682850.02375 119578.799262,-4683153.7505 119536.164011,-4683411.59019 119539.667066,-4683729.39079 119579.560214,-4683902.863 119701.98821,-4684037.94416 119778.687794,-4684127.55266 119938.425245,-4684201.75288 120157.700777,-4684168.85068 120330.759124,-4684091.48108 120609.994661,-4684012.44127 120843.929453,-4683949.39317 121001.660799,-4683841.70866 121151.814225,-4683726.6117 121263.490566,-4683566.46245 121352.929128,-4683429.0469 121457.776736,-4683329.44206 121624.423974,-4683350.59354 121776.912245,-4683447.362 121877.265972,-4683620.16587 121879.684015,-4683839.52561 121920.164221,-4684088.94992 122059.500447,-4684375.26439 122159.518709,-4684517.58706 122342.237695,-4684614.02096 122464.495414,-4684711.12146 122578.58927,-4684770.33169 122723.24611,-4684836.70086 122897.304886,-4684850.27311 123078.436191,-4684802.79929 123213.84877,-4684733.34157 123296.04759,-4684641.98258 123455.189063,-4684639.72789 123576.441318,-4684668.37498 123721.185538,-4684742.73872 123861.518883,-4685119.4913 123865.024409,-4685437.28475 123965.047976,-4685580.10522 124079.979138,-4685715.26504 124230.796129,-4685660.62915 124350.54858,-4685553.36418 124447.060544,-4685377.8921 124475.455368,-4685211.1673 124542.327044,-4685089.49399 124655.752893,-4685088.24293 124793.414714,-4685200.16409 124862.53868,-4685305.34513 124984.960466,-4685417.43413 125176.004617,-4685589.2336 125359.64186,-4685769.11017 125605.575281,-4686114.70959 125844.173865,-4686474.88127 125975.679103,-4686730.79108 126190.798721,-4687023.75695 126344.454586,-4687226.45002 126369.776968,-4687460.54356 126328.572379,-4687847.28947 126210.829825,-4688158.92205 126086.008108,-4688485.62512 125997.574501,-4688713.47967 126007.327568,-4688917.76164 126115.598512,-4689128.45086 126283.16021,-4689210.05405 126450.135118,-4689261.1801 126618.110745,-4689380.25812 126763.189961,-4689507.58464 127029.267145,-4689618.082 127136.698721,-4689752.8204 127266.368019,-4689842.33738 127441.341132,-4689916.36162 127623.803564,-4689989.80321 127867.564922,-4690138.52524 128193.934485,-4690233.3627 128407.461378,-4690359.43096 128425.296704,-4690616.59164 128473.280246,-4690843.43541 128610.69276,-4690955.35293 128777.494761,-4690990.98731 128929.063608,-4691004.80231 129080.461013,-4691003.12779 129297.659914,-4690964.2458 129352.273271,-4690954.64677 129547.80207,-4690831.5517 129743.495346,-4690745.93409 129878.730899,-4690638.49784 130013.716587,-4690531.0645 130429.009177,-4690443.01922 130861.301654,-4690536.68355 131097.398639,-4690670.49554 131389.050636,-4691038.05967 131749.911713,-4691495.8052 132118.682685,-4691990.94001 132431.394344,-4692206.85382 132667.73939,-4692363.14689 132791.171324,-4692589.14995 132905.848542,-4692678.82821 133035.176929,-4692760.34878 133231.707298,-4692728.19053 133344.287135,-4692650.98824 133463.776402,-4692498.25325 133499.658398,-4692331.45248 133512.890436,-4692149.91112 133518.040825,-4691937.97688 133577.824909,-4691853.86372 133698.739962,-4691852.52579 133934.497025,-4691955.85553 134102.135894,-4692044.94753 134284.846011,-4692163.85509 134536.848152,-4692357.95111 134749.616151,-4692438.54764 134932.830111,-4692580.43531 135070.32188,-4692699.84235 135230.967834,-4692856.97052 135474.46799,-4692960.21236 135633.443211,-4692966.44762 135723.453647,-4692904.48715 135752.597929,-4692806.22243 135925.296515,-4692675.38699 136046.039505,-4692636.07295 136219.583145,-4692604.16975 136559.585534,-4692554.93332 137302.722476,-4692675.13058 137621.416242,-4692755.05257 137841.343526,-4692805.58604 138197.505437,-4692839.62025 138613.619199,-4692827.51821 138810.723416,-4692870.30882 139022.656952,-4692875.9577 139314.877269,-4692844.24001 139318.019005,-4692992.61454 139195.736811,-4697446.25204 139162.248224,-4700910.01408 139160.677524,-4700993.48075 139141.809904,-4701993.08251 139134.575639,-4702420.90286 139017.037977,-4709138.14025 138862.127274,-4717203.02021 138758.644582,-4723143.6398 138507.43593,-4730878.41107 138359.422561,-4736443.34803 138193.607189,-4745839.35845 138174.838854,-4746848.00293 138085.9585,-4751551.88284 138053.600294,-4753425.71339 134964.599988,-4753365.98835 132412.206197,-4753344.60788 122292.609983,-4753115.51911 115910.230012,-4753003.69811 105766.656798,-4752959.00853 101794.34631,-4752887.13963 99602.4460044,-4752869.523 90042.9010015,-4752558.02888 82618.5069624,-4752457.64245 78460.1944427,-4752416.20907 74874.2293292,-4752380.27475 68785.6226721,-4752328.1009 66265.7599397,-4752289.57184 61990.8698772,-4752262.34006 55104.0423921,-4752247.53326 48039.8929949,-4752327.13486 48067.5174124,-4751805.90655 48062.0189862,-4751805.96847 39516.1437321,-4751684.1834 30611.8741182,-4751565.80703 23186.1368072,-4751481.20737 11290.2074134,-4751278.63654 -1562.83983106,-4751137.04713 -16668.9744559,-4749986.86105 -16687.2277329,-4749986.5648 -21585.9141437,-4750015.72638 -21619.1056378,-4739098.10817 -21445.9661027,-4731385.27687 -21401.6859348,-4727274.86107 -21361.046062,-4721484.54294 -21471.9797671,-4714195.97758 -21316.6737328,-4705095.54965 -21091.5924232,-4697092.34181 -20153.1187188,-4658621.29664 -19967.5208353,-4650791.43025 -19839.959207,-4643290.1418 -19748.8430013,-4636628.18841 -19618.5291362,-4636611.25865 -19473.915339,-4636621.67194 -19338.7690753,-4636726.18879 -19205.280182,-4636884.72356 -19162.9280793,-4637030.75826 -19061.2393461,-4637139.14204 -18950.0228542,-4637158.92168 -18816.2535728,-4637137.95409 -18721.3994831,-4637101.91357 -18644.4224662,-4637077.06914 -18547.0153704,-4636977.50099 -18487.5212018,-4636885.84877 -18412.9434637,-4636779.03117 -18368.3650946,-4636695.04256 -18308.6185746,-4636626.38749 -18196.4600275,-4636504.15775 -18060.7614107,-4636431.16957 -17844.0222505,-4636430.29208 -17708.1358368,-4636442.80145 -17607.281131,-4636475.19497 -17525.8855917,-4636511.30191 -17340.319115,-4636540.26627 -17195.5094153,-4636614.17738 -17065.4465363,-4636756.7497 -16972.6321255,-4636922.23035 -16889.0583042,-4636951.8134 -16715.1652058,-4636919.40629 -16602.8423059,-4636812.17519 -16513.0987267,-4636697.69184 -16401.2747168,-4636544.96668 -16349.7783738,-4636407.90305 -16305.6932965,-4636278.92064 -16307.5190134,-4636112.44202 -16340.341901,-4635877.80381 -16471.0655587,-4635697.73869 -16495.2270886,-4635569.00455 -16572.6285694,-4635418.35435 -16574.7007916,-4635229.3783 -16538.1999658,-4635115.47878 -16546.4500296,-4635047.06967 -16585.6863048,-4634911.50071 -16632.2604661,-4634813.51196 -16701.2802778,-4634743.26914 -16816.2296344,-4634611.03023 -16879.5450629,-4634354.2257 -16874.0357376,-4634172.66611 -16822.039924,-4634081.09643 -16686.7222413,-4633996.11324 -16489.7468278,-4633993.95375 -16216.7822034,-4634036.46102 -16020.0535858,-4634011.80448 -15823.6626755,-4633979.15176 -15702.4279779,-4633977.82278 -15498.7813404,-4633900.09093 -15303.0536133,-4633806.9461 -15115.2359056,-4633676.38832 -15025.5789749,-4633553.90646 -14973.9117017,-4633432.341 -14945.4079215,-4633273.02966 -14847.6655484,-4633203.9589 -14696.9333059,-4633156.80729 -14514.9598534,-4633177.3129 -14363.2271327,-4633198.64993 -14158.0903502,-4633256.90145 -13952.6249641,-4633345.14914 -13799.9830274,-4633449.47553 -13730.6605327,-4633570.21477 -13698.9242778,-4633705.86573 -13697.3464214,-4633849.84707 -13657.6912821,-4634000.91102 -13603.2024431,-4634136.8125 -13518.7195792,-4634249.38545 -13381.5778865,-4634330.88159 -13236.9283362,-4634390.29566 -13054.3749255,-4634463.79417 -12887.0695886,-4634537.45978 -12726.1785377,-4634710.19442 -12595.8677403,-4634852.76449 -12413.1503016,-4634941.26087 -12208.5954674,-4634946.51907 -12035.1118623,-4634899.61856 -11862.2164985,-4634776.22565 -11757.7207941,-4634639.08255 -11599.4104773,-4634576.34875 -11502.331519,-4634446.78691 -11444.4962693,-4634203.65672 -11393.6415226,-4633985.10263 -11439.4674267,-4633727.10825 -11345.2254084,-4633589.57766 -11224.7419206,-4633519.75871 -11096.3377393,-4633488.3525 -10974.9396914,-4633502.02244 -10800.7166206,-4633522.61363 -10686.6478759,-4633551.86367 -10466.7613054,-4633587.45448 -10308.1168611,-4633555.21721 -10233.0397133,-4633493.8958 -10189.7854719,-4633288.92519 -10158.7501917,-4633109.588 -10072.2021054,-4632977.14209 -9929.13044585,-4632892.57644 -9777.25315575,-4632904.41293 -9762.48872932,-4632905.75121 -9572.93591591,-4632933.67487 -9458.78530102,-4632970.42417 -9208.65329531,-4633005.68434 -9004.26340945,-4632995.94624 -8762.79665566,-4632924.80329 -8497.25288598,-4632974.89465 -8268.95591635,-4633070.89305 -8123.31725994,-4633220.79547 -8000.01307585,-4633431.44117 -7960.02574405,-4633612.99968 -7890.29440865,-4633771.23287 -7859.09609309,-4633857.88945 -7805.64915887,-4633898.80331 -7639.08687752,-4633881.97969 -7518.3119744,-4633861.65758 -7419.86421058,-4633857.07964 -7139.07365867,-4633907.00388 -6941.94108789,-4633942.34452 -6774.96306788,-4633963.51569 -6539.74853286,-4634006.43924 -6304.04150592,-4634094.35634 -6220.43128712,-4634127.44009 -6113.77879785,-4634187.27088 -5977.22008019,-4634215.775 -5720.6659783,-4634129.96823 -5584.85172571,-4634090.4823 -5441.20652483,-4634058.41049 -5305.22265451,-4634034.4224 -5160.91351618,-4634085.84122 -5038.68520636,-4634175.50074 -4960.37952942,-4634409.13717 -4876.8079251,-4634438.72144 -4756.07382076,-4634391.90096 -4651.16758012,-4634292.25526 -4553.0980307,-4634253.18276 -4439.19888808,-4634289.93488 -4279.56026492,-4634348.68568 -4157.086021,-4634460.84175 -4027.19502637,-4634565.4168 -3844.97240585,-4634631.92006 -3594.68152776,-4634659.17939 -3420.04183283,-4634695.2666 -3321.3086674,-4634739.68446 -3161.58474877,-4634783.43472 -3070.02219449,-4634857.93011 -2872.30788292,-4634923.76379 -2743.90950795,-4634914.85863 -2532.10224684,-4634875.04155 -2388.62590043,-4634850.47195 -2261.21969385,-4634728.08154 -2133.40310595,-4634643.18546 -1983.00412429,-4634543.0428 -1802.10811282,-4634465.56571 -1681.0446451,-4634471.74063 -1559.1513574,-4634530.90467 -1368.43708175,-4634665.31293 -1109.98134925,-4634753.48143 -844.278618654,-4634818.57144 -654.478325953,-4634869.49259 -517.004103508,-4634958.98491 -372.286549622,-4635047.89795 -121.828162737,-4635090.6556 36.9005401717,-4635066.41964 225.289119824,-4634988.36127 384.099791026,-4634971.62424 482.337996677,-4634948.05028 625.813513236,-4634923.48142 739.627420842,-4634929.73591 860.941733418,-4634958.90743 1020.33195898,-4634995.16208 1172.46943992,-4635053.99516 1302.02459615,-4635128.07467 1491.90585364,-4635186.49479 1658.88046749,-4635207.66709 1817.93672936,-4635213.42671 2029.8202445,-4635203.60909 2264.61401589,-4635208.54027 2514.40520655,-4635213.30746 2764.20013937,-4635195.5757 2923.5020808,-4635223.83184 3067.89550228,-4635283.24966 3258.60544776,-4635394.65843 3463.72926982,-4635475.41089 3638.11977764,-4635489.00268 3797.58536977,-4635532.25633 3973.05291445,-4635644.33166 4247.15846073,-4635792.32624 4445.12039237,-4635881.15651 4650.16537602,-4635931.91117 4847.79509497,-4636013.24541 5038.25404314,-4636124.65651 5221.05013037,-4636221.15213 5501.58011933,-4636248.08234 5602.44246332,-4636235.97979 5625.77439371,-4636220.72539 5657.62673089,-4636207.37771 5697.61984246,-4636206.94032 5741.18889085,-4636213.46345 5790.96466021,-4636238.91769 5846.97995173,-4636286.30252 5911.50469917,-4636334.59422 6063.96961598,-4636446.42067 6315.08526593,-4636549.66854 6512.38049443,-4636600.50789 6740.00625248,-4636636.01638 6906.47704729,-4636634.19582 7126.1884051,-4636631.79307 7264.16408205,-4636630.28421 7511.95475293,-4636589.57669 7714.24095127,-4636525.36827 7850.08066411,-4636351.39291 7919.36120793,-4636171.64575 8050.73616516,-4636023.71785 8171.21587083,-4635953.90463 8352.19028361,-4635883.93007 8533.58000825,-4635851.94884 8685.13494725,-4635857.7916 8837.26910814,-4635916.6249 9041.81037131,-4635944.38713 9216.1164772,-4635950.48122 9351.92662148,-4635910.99896 9509.90340968,-4635818.27768 9621.47998965,-4635620.07014 9717.23166884,-4635392.03746 9843.80581011,-4635193.66614 10009.1216561,-4635063.36736 10105.6166851,-4634903.3226 10157.4490077,-4634796.7627 10277.6009731,-4634696.95582 10390.5833673,-4634650.22409 10481.321089,-4634626.73402 10586.6354952,-4634564.5871 10662.1259637,-4634541.26368 10760.7719382,-4634555.18495 10836.8371781,-4634607.35055 11027.4605758,-4634711.26115 11278.7379231,-4634852.50656 11522.5151538,-4634970.83528 11675.6434863,-4635143.65086 11851.1011259,-4635255.22634 12102.8735529,-4635418.9644 12346.8972265,-4635582.78697 12552.189162,-4635656.53875 12810.0517174,-4635714.2172 13000.755835,-4635825.62573 13228.3737701,-4635883.63459 13440.41546,-4635888.81739 13606.887964,-4635864.50022 13833.7627524,-4635854.52215 13985.3157105,-4635860.36593 14151.6187217,-4635820.55191 14340.5047389,-4635788.49067 14559.7932224,-4635770.59634 14809.5811652,-4635752.8689 15096.6147569,-4635689.23813 15329.9923865,-4635565.19819 15533.2132403,-4635449.48719 15685.9318309,-4635310.3297 15803.1815692,-4635219.55601 15961.2388764,-4635134.33632 16057.9084561,-4634990.29158 16200.881388,-4634897.23737 16312.6443256,-4634830.52204 16419.1801248,-4634765.86367 16570.1591934,-4634719.21868 16713.7936362,-4634709.65109 16949.9055459,-4634836.06319 17042.5369962,-4635009.03819 17271.6468245,-4635181.02289 17530.1653597,-4635276.19247 17681.8861837,-4635297.53409 17840.8543761,-4635295.79847 17969.6604396,-4635301.89158 18099.1268449,-4635368.47255 18243.7593639,-4635450.38663 18457.6158833,-4635622.03738 18610.7389337,-4635771.85295 18877.9992219,-4635980.9171 19098.8614413,-4636084.49665 19364.9642069,-4636187.58219 19653.3153829,-4636244.92872 19918.1787713,-4636234.53767 20010.1597232,-4636233.53347 20167.8770108,-4636231.81163 20479.4693828,-4636334.40052 20814.7999093,-4636527.72197 21164.6302779,-4636675.38906 21400.4876583,-4636778.80445 21674.1730652,-4636866.8082 21932.2742185,-4636946.9828 22145.3902404,-4637028.1484 22373.4985173,-4637131.64814 22549.6101572,-4637303.7089 22740.1399972,-4637422.61723 22854.0302116,-4637459.37022 23127.2176937,-4637501.88346 23336.3567116,-4637493.601 23513.2199123,-4637482.67122 23642.023652,-4637488.76445 23800.9070229,-4637479.53087 23998.2304824,-4637533.87131 24202.8546778,-4637547.13618 24377.1481256,-4637552.73298 24543.3603719,-4637527.92112 24708.8359946,-4637435.62426 24821.8951864,-4637373.39656 24995.114626,-4637303.51306 25221.0757532,-4637187.55879 25553.2586771,-4637092.94324 25863.7710644,-4637097.05412 26175.4450064,-4637207.64117 26328.2264173,-4637349.45878 26428.6078984,-4637522.84475 26505.6608537,-4637642.99093 26605.3768177,-4637755.39054 26681.3605488,-4637777.55887 26756.7561041,-4637768.73697 26959.9712933,-4637653.03176 27133.1070038,-4637552.65329 27275.6678599,-4637445.10936 27441.305281,-4637344.81294 27508.4661822,-4637268.58848 27666.7698648,-4637206.36805 27856.1445775,-4637196.80287 28029.2756584,-4637118.92257 28217.1669823,-4636973.38889 28366.9752904,-4636842.76916 28479.4176983,-4636724.05582 28532.1601045,-4636700.98307 28615.3908683,-4636700.07526 28676.5366022,-4636759.90154 28851.3241686,-4636810.98913 29170.4878836,-4636920.99511 29504.652333,-4637008.33999 29694.7684641,-4637089.75679 29930.5318643,-4637185.17399 30164.8889652,-4637312.10276 30319.4166493,-4637430.90316 30380.6492505,-4637498.7272 30495.0273636,-4637580.46983 30617.8187719,-4637723.11337 30748.2719331,-4637880.67144 30863.2333451,-4638015.90106 30977.7794415,-4638090.1425 31121.9093374,-4638126.56574 31296.0356405,-4638117.16733 31403.3607907,-4638056.50395 31529.4859334,-4638000.63494 31680.6222256,-4637968.99021 31832.3317672,-4638012.82997 31916.1386527,-4638041.91222 32030.6851512,-4638139.15072 32107.8233757,-4638267.29336 32155.5377044,-4638493.74465 32180.8394333,-4638727.93935 32318.3802764,-4638824.92666 32568.4016965,-4638852.69552 32908.4899412,-4638795.99264 33234.6513855,-4638722.94403 33383.5947657,-4638627.83157 33466.3326525,-4638558.93796 33598.0319751,-4638510.00778 33760.6807848,-4638479.73769 33866.3273585,-4638448.58947 34001.6331124,-4638363.62481 34190.5088864,-4638331.5691 34364.9606509,-4638352.16387 34448.5223202,-4638381.74868 34494.9975227,-4638471.72999 34459.1547537,-4638669.09489 34438.8899983,-4638873.7889 34471.6946846,-4639108.40005 34632.4701461,-4639273.12443 34785.0059587,-4639369.94762 34929.2157398,-4639413.86867 35241.6160478,-4639591.93692 35468.9717428,-4639604.45517 35725.8289482,-4639571.65788 36020.8389457,-4639530.44573 36313.9471039,-4639337.77546 36565.188368,-4639225.551 36816.3555878,-4639175.31893 37038.1214095,-4639087.91284 37182.0793955,-4639108.84011 37296.7100158,-4639191.07853 37411.7501315,-4639333.80387 37579.8526941,-4639482.94953 37709.9752373,-4639610.51232 37839.9287689,-4639722.57907 37931.4008864,-4639767.07513 38052.7833256,-4639803.74611 38219.5711778,-4639809.42639 38343.2285853,-4639802.57887 38552.3804666,-4639819.29563 38673.0416812,-4639743.99083 38793.3494106,-4639659.19135 38972.5332367,-4639586.74816 39133.4312387,-4639602.49147 39285.1368584,-4639646.33087 39467.8301494,-4639735.32568 39613.4428369,-4639885.21565 39675.4906918,-4640028.01776 39791.3574159,-4640223.72497 39943.47686,-4640305.55384 40069.6928106,-4640304.17771" style="stroke-linejoin:round;stroke:#000;stroke-width:1px;fill:none" /></g></g></svg>