<svg xmlns="http://www.w3.org/2000/svg" baseProfile="full" height="185889.495466" version="1.1" viewBox="-19806.705610,4789262.381363,124706.930313,185889.495466" width="124706.930313"><defs><style type="text/css">polyline,line,rect,path,polygon,.polygon{fill:none;stroke:#000;stroke-width:1px;stroke-linejoin:round;}</style></defs><g fill_rule="evenodd" transform="scale(1,-1)"><g class="hogares departamen mujeres departam_1 toponimo_i tot_pob varones viv_part viv_part_h" id="62070"><polygon class="_62070" id="None" points="104899.080928,-4790074.92798 100337.960614,-4870344.40944 100337.778007,-4870356.40181 100337.579351,-4870359.89131 100336.932788,-4870366.85611 100016.598576,-4875973.911 100016.399765,-4875977.40048 100009.895726,-4876091.55644 100009.753716,-4876094.04892 100007.052042,-4876163.41109 100003.57708,-4876250.73337 100003.293052,-4876255.71835 99692.4535545,-4877173.22237 96878.2451459,-4886269.81354 92519.8271153,-4900393.339 68958.3299925,-4916853.32432 73506.2544144,-4919971.29385 75085.0241514,-4921058.43866 86754.6570854,-4929071.24747 86795.0678903,-4929099.07283 85271.5835077,-4930935.46495 67994.8546676,-4951733.08813 61044.0908881,-4960135.83737 61037.6500807,-4960143.46604 60748.8249218,-4960135.79191 47547.3299603,-4959753.93814 47493.0618884,-4959754.3033 47249.6370908,-4959753.24173 47232.1675173,-4959752.73261 47218.4352579,-4959752.43936 47210.9606356,-4959752.00761 35033.6095447,-4959401.40523 31970.5436287,-4959312.86504 25507.7575411,-4962697.3391 16263.6168044,-4970894.67666 6286.92966737,-4961102.85169 -2503.23076557,-4974437.9619 -18958.8567465,-4969558.69581 -19214.6564855,-4960407.16855 -19302.9839659,-4957252.29494 -19305.5338418,-4957218.67131 -19364.5825954,-4956426.31972 -19364.7450922,-4956424.8114 -19366.1105957,-4956405.24638 -18783.6874984,-4950605.18381 -18465.8339045,-4950655.54186 -18219.3106152,-4950608.84241 -17971.255602,-4950570.22534 -17719.5448691,-4950554.80271 -17468.2366213,-4950546.35153 -17222.7644637,-4950500.58909 -16981.7701344,-4950428.58586 -16744.0680922,-4950344.40026 -16503.4929024,-4950262.3788 -16255.8879191,-4950179.76395 -16057.2190455,-4950018.87227 -15919.0738897,-4949850.48351 -15845.4560121,-4949596.92108 -15796.2026966,-4949349.9443 -15783.6281577,-4949097.84926 -15857.4371937,-4948857.74903 -15996.2463415,-4948644.3706 -15999.0039595,-4948640.21403 -16171.690257,-4948468.34732 -16175.5014048,-4948465.12916 -16397.1609182,-4948280.43959 -16638.6067341,-4948109.5965 -16852.3005493,-4947951.35027 -17113.4194957,-4947818.34352 -17386.8893888,-4947665.6373 -17685.4551936,-4947575.4348 -17977.4365684,-4947535.57659 -18386.7843783,-4947581.36708 -18717.0319942,-4947555.28507 -18720.0385312,-4947551.11426 -18943.0604621,-4947260.43066 -18946.3159836,-4947256.24548 -19102.6496161,-4946974.41367 -19105.1294171,-4946969.77371 -19085.2981942,-4946687.13152 -19158.8632991,-4946486.02748 -19137.2010079,-4946374.86332 -18931.2171012,-4946078.49608 -18908.825841,-4945725.55444 -18906.9430128,-4945424.88813 -18785.516945,-4945078.66741 -18714.0663931,-4944672.10218 -18508.2821947,-4944413.69116 -18333.050487,-4944208.47341 -18207.7505266,-4944011.36282 -18077.5665748,-4943807.53904 -17886.036037,-4943588.27179 -17734.4114059,-4943385.18542 -17569.1693872,-4943179.88703 -17450.5004212,-4943028.35688 -17350.7388365,-4942754.3243 -17080.3280783,-4942510.12966 -17031.9774649,-4942313.06859 -16716.8495427,-4942168.38244 -16478.4101326,-4942045.2487 -16334.4615121,-4941923.15445 -16271.2785797,-4941737.44032 -16204.4798113,-4941657.85742 -16121.8303152,-4941528.72623 -15932.6934113,-4941493.67781 -15736.3261801,-4941467.54036 -15641.0847108,-4941375.60874 -15607.6412196,-4941302.59351 -15316.2835669,-4941275.44314 -15057.2942361,-4941259.4147 -14796.5861163,-4941101.08721 -14642.287118,-4941081.01388 -14480.5823837,-4940949.94735 -14386.5916594,-4940706.54956 -14348.0803274,-4940528.40082 -14206.6503069,-4940419.64624 -14076.0496992,-4940199.84488 -13878.2869962,-4939872.49771 -13896.8641416,-4939722.53153 -13977.9565711,-4939383.09067 -13854.7132273,-4939134.88332 -13734.745703,-4938839.51986 -13641.5077399,-4938505.14049 -13516.5131567,-4938434.4066 -13528.9732372,-4938282.29537 -13358.6045264,-4938187.19765 -13302.5824644,-4937995.56739 -13226.9183618,-4937857.53276 -13277.7046175,-4937772.16183 -13285.0622911,-4937561.88637 -13287.8204388,-4937557.73012 -13379.6822048,-4937413.5305 -13370.146795,-4937235.20774 -13209.9713241,-4937013.60975 -13215.5562063,-4936932.84484 -13219.3677971,-4936929.62715 -13328.6686845,-4936827.89161 -13321.3309086,-4936510.0416 -13323.3133969,-4936505.43049 -13382.0600474,-4936376.13264 -13386.9508624,-4936136.02195 -13332.9362439,-4935896.80973 -13255.6779178,-4935709.40149 -13198.3116988,-4935494.36504 -13202.8157626,-4935412.16391 -13205.5259829,-4935411.50801 -13358.8203748,-4935388.1802 -13358.8683886,-4935384.67994 -13364.716021,-4935230.45308 -13313.6013277,-4935093.50023 -13207.3190296,-4934879.2853 -13059.2149986,-4934684.96835 -12977.4618034,-4934623.22862 -13027.7471927,-4934455.44776 -13008.9802996,-4934385.5803 -12896.0656176,-4934307.64939 -12883.6337886,-4934143.98341 -12931.3125664,-4934026.31736 -12934.8465507,-4934022.61616 -13014.2130014,-4933934.60128 -13017.0287069,-4933931.44114 -13036.7729774,-4933805.89228 -13033.2655618,-4933675.68795 -13018.1588786,-4933582.62601 -12943.8912632,-4933594.40105 -12853.9369578,-4933607.0802 -12813.0296153,-4933534.49149 -12763.9055097,-4933462.37629 -12675.5683511,-4933494.44818 -12534.580705,-4933328.19803 -12432.52176,-4933174.19366 -12286.3243277,-4933164.63172 -12218.7821937,-4932976.66037 -12129.8502862,-4932868.36573 -12099.1380333,-4932721.24121 -12042.9749088,-4932657.0254 -11968.440779,-4932633.83977 -11821.5207208,-4932407.97148 -11764.5045114,-4932224.88858 -11515.329062,-4932192.77833 -11185.6677502,-4931934.46709 -11011.0472366,-4931774.14701 -10957.5407804,-4931547.89026 -10665.4975605,-4931404.82623 -10543.0789231,-4931265.98012 -10431.6221487,-4931169.97195 -10415.6654757,-4931079.45477 -10324.9745421,-4930949.27304 -10356.9958407,-4930884.97202 -10359.2276712,-4930880.34659 -10271.4640482,-4930787.96962 -10188.0658593,-4930610.89972 -10236.4253253,-4930348.79473 -10215.4945422,-4930206.60005 -10097.5660094,-4930097.97223 -9963.33773139,-4930083.71802 -9751.38962943,-4930003.98813 -9632.89880257,-4930054.78175 -9602.40464684,-4929972.09623 -9487.34242233,-4929926.25885 -9452.45370481,-4929832.33417 -9520.5513388,-4929778.447 -9520.68562435,-4929776.44064 -9531.77686115,-4929582.93506 -9535.31114118,-4929579.23395 -9638.17805529,-4929478.37592 -9641.24300874,-4929475.2015 -9629.82615109,-4929220.53566 -9631.77328888,-4929020.06232 -9660.27059055,-4928881.51637 -9622.37368405,-4928639.86751 -9534.10063261,-4928417.10785 -9569.22245787,-4928228.71508 -9540.68844963,-4927950.05242 -9559.63059081,-4927957.9557 -9736.70798159,-4927952.75805 -9890.51492482,-4927933.91048 -9947.46117202,-4927838.19674 -9950.33587278,-4927671.14794 -10016.8737253,-4927611.85642 -10048.5270113,-4927597.54302 -10094.9204506,-4927496.44137 -10056.7187591,-4927418.69649 -10054.6980943,-4927418.31316 -9909.62045744,-4927402.18152 -9906.18278898,-4927398.88186 -9832.41175733,-4927328.18076 -9973.17440538,-4927165.18661 -10070.4823386,-4927037.17138 -10101.3827487,-4926922.97175 -10162.1631945,-4926807.05239 -10295.1912794,-4926761.42237 -10445.4536893,-4926672.33049 -10595.5101738,-4926688.17637 -10753.774659,-4926768.50358 -10813.5917512,-4926835.51055 -10816.7803713,-4926838.82453 -10895.0066647,-4926813.33681 -11005.3355598,-4926777.00774 -11038.895989,-4926678.64481 -11095.0362434,-4926525.52051 -11175.8936224,-4926376.46992 -11239.5506788,-4926232.4067 -11280.3863808,-4926021.70585 -11310.3563732,-4925787.14818 -11374.694886,-4925637.55046 -11509.1515936,-4925503.90357 -11635.031787,-4925538.12969 -11669.0275849,-4925547.1654 -11691.5109081,-4925499.40514 -11767.5178655,-4925387.60895 -11807.608522,-4925302.86164 -11798.2213358,-4925187.4858 -11837.8823094,-4925095.26879 -11856.2998152,-4925020.26266 -11909.3592448,-4924987.2313 -11925.7512409,-4924881.36432 -11874.7716732,-4924776.87571 -11828.5755293,-4924642.63318 -11853.7804009,-4924585.72325 -11886.5253404,-4924507.89442 -11981.0542792,-4924457.48832 -12000.0254835,-4924396.44048 -12016.8130796,-4924336.51757 -12013.844937,-4924332.69125 -11983.6368785,-4924293.95875 -11991.5931016,-4924245.53595 -11998.2580028,-4924187.69438 -11994.4657958,-4924186.91328 -11866.9189008,-4924162.77433 -11865.2530337,-4924159.87235 -11850.2602324,-4924133.75455 -11932.0531598,-4924079.08522 -11945.6499139,-4923972.38018 -11966.2716913,-4923892.25137 -12053.134281,-4923756.3498 -12035.4593793,-4923618.46808 -12060.0054638,-4923437.18753 -12094.743033,-4923302.78615 -12075.9120002,-4923097.02081 -12074.669247,-4923084.10181 -12102.6799287,-4923032.5272 -12135.4325262,-4922972.1861 -12267.242498,-4922870.67337 -12354.5331016,-4922868.15062 -12529.1140637,-4922863.10512 -12654.1500083,-4922778.47031 -12824.986723,-4922769.14356 -13062.5833389,-4922799.94411 -13282.8141848,-4922737.31369 -13400.8661987,-4922718.03271 -13523.1816246,-4922742.47361 -13742.950715,-4922741.32383 -13926.1247087,-4922703.30826 -14008.1012925,-4922686.60198 -14063.1760925,-4922679.9367 -14101.1566417,-4922675.75355 -14108.8267778,-4922678.80973 -14178.001202,-4922708.80512 -14243.3437928,-4922802.47291 -14268.3306604,-4922846.00162 -14354.3634846,-4922908.50176 -14358.7593165,-4922906.75003 -14485.8086833,-4922848.48038 -14590.3830372,-4922842.46497 -14596.8082111,-4922845.59272 -14713.7635175,-4922902.81646 -14724.4500949,-4922906.19868 -14797.6189666,-4922927.47033 -14808.3341815,-4922931.35052 -14874.2824147,-4922953.03748 -14884.7772828,-4922957.42996 -14989.1133641,-4922999.39145 -15099.2731649,-4923090.48001 -15200.6743017,-4923159.58941 -15208.9767421,-4923160.61064 -15321.4760662,-4923175.12277 -15325.0764376,-4923176.91412 -15460.6544094,-4923249.55286 -15467.6832611,-4923250.14773 -15641.641698,-4923269.11782 -15842.4588425,-4923242.57652 -15847.6015457,-4923240.78182 -15901.3839993,-4923224.6978 -18267.8207847,-4922509.01881 -18044.7132036,-4922438.91921 -17709.8671218,-4922176.40458 -17632.9247387,-4921950.51314 -17529.6221387,-4921713.64745 -17374.6383609,-4921477.25566 -17193.8104567,-4921182.39685 -17013.7055218,-4920917.47178 -16844.2712942,-4920690.40186 -16649.855992,-4920450.27899 -16460.6856925,-4920275.30221 -16267.723461,-4920099.54352 -16076.2152719,-4919931.69425 -15876.0872794,-4919770.33516 -15668.5643493,-4919619.39272 -15453.6463768,-4919478.86694 -15306.4344846,-4919325.45526 -15123.5639751,-4919203.57012 -14854.2924363,-4919056.17455 -14620.5749068,-4919010.15489 -14396.5677328,-4919007.04344 -14213.4028871,-4919049.54758 -13900.4576638,-4919055.04562 -13422.0898745,-4919194.45813 -13336.3604916,-4919202.38376 -13203.1486083,-4919223.03124 -13120.9507659,-4919240.24673 -13000.8577908,-4919263.1379 -12828.6711792,-4919275.03403 -12701.3048572,-4919227.89597 -12614.5266613,-4919165.43443 -12542.6247901,-4919083.63148 -12461.4044043,-4919004.86216 -12383.3722902,-4918929.40684 -12304.6732672,-4918838.00163 -12201.9049705,-4918719.00119 -12071.0750754,-4918611.60588 -11968.2582372,-4918496.10511 -11789.7420541,-4918280.53184 -11682.2776356,-4918136.31889 -11601.4984662,-4918013.05552 -11565.9642976,-4917951.14475 -11520.2529915,-4917877.32798 -11495.5861183,-4917782.81622 -11464.8661963,-4917691.65005 -11454.9652955,-4917519.34651 -11401.56211,-4917372.52565 -11349.7353295,-4917079.22206 -11371.0610453,-4916841.67121 -11406.2295599,-4916666.77839 -11394.6756546,-4916526.54633 -11430.9486565,-4916262.15654 -11387.2996451,-4916063.31306 -11335.8528957,-4915837.43775 -11304.0654777,-4915618.92677 -11258.8887058,-4915445.65188 -11199.3652079,-4915353.14177 -11126.150426,-4915248.42754 -11030.6120583,-4915146.49422 -10970.5975975,-4915101.97654 -10888.5454412,-4915065.21973 -10815.5832195,-4915021.44556 -10731.5289102,-4914949.82931 -10700.9833114,-4914861.64976 -10655.3164642,-4914736.3665 -10613.6302901,-4914623.845 -10543.2811864,-4914512.46983 -10489.1878702,-4914349.19842 -10448.1848238,-4914083.25001 -10364.6971245,-4913795.25895 -10296.9224011,-4913728.70223 -10229.813696,-4913678.09545 -10156.2657126,-4913676.32284 -10073.5215013,-4913684.07168 -9997.82300711,-4913701.40866 -9872.33822386,-4913743.58828 -9801.86955245,-4913686.67889 -9712.37696679,-4913576.90096 -9663.03140711,-4913496.29489 -9586.78108817,-4913395.24944 -9491.2353083,-4913288.81638 -9378.01177579,-4913213.87593 -9227.9842393,-4913107.07283 -9112.77325798,-4913049.73339 -8988.84355626,-4913005.88495 -8881.14389693,-4912970.5978 -8768.67720761,-4912961.06589 -8637.03738288,-4912952.63463 -8459.417112,-4912917.86371 -8320.45994618,-4912842.90019 -8228.24483904,-4912742.26956 -8187.89579446,-4912648.65426 -8184.22295772,-4912532.44817 -8236.42507766,-4912436.51797 -8349.0133401,-4912391.58265 -8468.44863716,-4912413.70603 -8620.84053631,-4912391.96767 -8795.91444875,-4912321.46153 -8925.72437049,-4912298.02171 -9045.62305367,-4912271.65338 -9264.84493887,-4912134.65991 -9347.75991086,-4912068.94483 -9376.43841491,-4912015.8361 -9300.02324889,-4911959.76621 -9131.31856498,-4911867.0239 -8975.7617445,-4911777.02404 -8858.35060835,-4911681.33701 -8797.76517312,-4911626.85616 -8690.43759071,-4911598.04139 -8594.15602375,-4911587.5789 -8558.7326192,-4911584.11594 -8445.95973789,-4911573.60061 -8319.87923598,-4911548.85975 -8163.28530718,-4911497.39042 -7988.61148846,-4911409.48525 -7927.68277051,-4911349.02764 -7840.73532577,-4911283.56779 -7751.12243319,-4911228.25367 -7679.61702131,-4911148.91662 -7591.63310224,-4911121.98856 -7448.03606198,-4911127.23138 -7247.88316848,-4911209.16787 -7093.8803206,-4911198.51954 -6950.15540836,-4911149.30801 -6849.96508858,-4911075.1138 -6773.5074758,-4910966.08101 -6728.06565029,-4910901.23601 -6678.00688175,-4910808.17586 -6556.27133845,-4910693.74642 -6423.3431277,-4910662.90097 -6329.01090312,-4910690.79818 -6235.96454265,-4910741.10598 -6146.12661012,-4910790.7301 -6090.01896847,-4910870.8962 -5979.87250922,-4910906.19663 -5878.02869878,-4910912.04076 -5827.10439475,-4910860.50066 -5789.20171476,-4910757.24856 -5727.77401158,-4910635.85976 -5671.95531355,-4910555.62031 -5594.19942913,-4910371.71197 -5533.09484522,-4910138.38148 -5426.42622867,-4909955.6318 -5310.5326984,-4909720.94715 -5214.02204685,-4909432.18653 -5119.99767536,-4909186.75293 -5103.56475627,-4909065.77948 -5025.90867342,-4908935.82644 -4898.31668293,-4908780.25709 -4747.0695105,-4908595.56503 -4672.20389554,-4908570.87896 -4561.19018529,-4908586.73989 -4405.50659867,-4908551.19975 -4272.32882351,-4908459.40602 -4240.23632711,-4908400.78783 -4217.94903936,-4908347.60316 -4118.12997389,-4908279.87808 -4020.85297113,-4908256.4769 -3942.87208477,-4908238.46456 -3868.74862425,-4908226.72656 -3789.80608831,-4908135.31896 -3743.34830138,-4907935.1205 -3806.13313577,-4907749.1433 -3850.04056187,-4907621.70998 -3897.0139208,-4907491.10302 -3953.44985586,-4907359.9536 -4026.04099184,-4907288.33685 -4077.08828675,-4907285.40966 -4179.13368916,-4907283.0557 -4257.40978123,-4907249.5869 -4271.22277403,-4907159.35591 -4223.86145482,-4907056.64366 -4169.53022728,-4907002.29824 -4103.99466411,-4906918.11599 -4050.50193344,-4906821.75095 -3966.12512729,-4906692.18041 -3863.69026474,-4906631.09916 -3847.21147049,-4906513.62447 -3794.58629296,-4906375.73743 -3829.52832282,-4906309.77759 -3839.73396422,-4906213.25773 -3838.89611855,-4906146.35131 -3778.14012013,-4906088.87593 -3701.89445116,-4905987.81868 -3610.66519502,-4905847.64738 -3517.86439114,-4905789.01072 -3422.98736143,-4905698.5146 -3392.72846383,-4905501.88344 -3410.03138829,-4905302.52592 -3477.42313872,-4905026.84734 -3637.57551179,-4904865.771 -3665.50452155,-4904681.7944 -3633.80498276,-4904577.68339 -3568.92792285,-4904504.95376 -3495.8925423,-4904403.21165 -3337.55047207,-4904207.92517 -3247.6201153,-4904033.70063 -3288.41819718,-4903960.91038 -3381.67018823,-4903914.09457 -3473.26679083,-4903838.39342 -3559.25743397,-4903721.54194 -3596.15362269,-4903585.01931 -3576.51924673,-4903464.72726 -3572.19480367,-4903110.21723 -3542.77664181,-4902932.52532 -3552.10612392,-4902759.60855 -3642.00419133,-4902597.56524 -3643.42034209,-4902456.58058 -3664.08840869,-4902311.49506 -3659.7285714,-4902126.37189 -3710.90889889,-4901960.05197 -3828.59784152,-4901947.3141 -3926.42809303,-4901923.72213 -3992.16219638,-4901837.01364 -3983.36962204,-4901744.58141 -3957.63421913,-4901631.13487 -3893.22975013,-4901509.91023 -3837.74581144,-4901378.681 -3827.29703433,-4901030.51975 -3967.15330771,-4900680.74533 -4087.51585282,-4900548.93826 -4173.55892723,-4900428.59045 -4309.1879265,-4900340.87842 -4416.7511494,-4900264.76697 -4509.06221954,-4900201.52079 -4641.0325289,-4900158.98744 -4787.86965864,-4900153.57617 -5002.26008342,-4900154.28917 -5055.88120305,-4900087.26333 -4993.09883736,-4899828.54319 -4975.75904421,-4899639.17003 -4822.32631559,-4899638.46279 -4733.47418906,-4899653.0441 -4655.57416013,-4899632.02276 -4598.55255404,-4899587.32154 -4566.93684938,-4899480.20811 -4554.07483486,-4899369.02288 -4515.8140446,-4899259.29195 -4512.95912578,-4898930.18573 -4562.98099519,-4898795.91373 -4736.65772124,-4898757.49 -4937.23652211,-4898739.51063 -5103.95365054,-4898692.99151 -5264.31790049,-4898587.87799 -5292.37771919,-4898458.36211 -5298.85383254,-4898410.02534 -5291.96726501,-4898346.46493 -5180.37045672,-4898295.39453 -5029.92636782,-4898294.51409 -4999.76629089,-4898212.79964 -5091.02304449,-4898131.12937 -5182.05168737,-4898045.47514 -5355.19369476,-4897936.63353 -5429.44348024,-4897893.91038 -5487.75682371,-4897852.09957 -5528.87937851,-4897789.28855 -5544.16288128,-4897663.50264 -5577.28772711,-4897517.70907 -5635.01829427,-4897408.97972 -6001.57171502,-4897052.239 -6190.7015202,-4896891.02206 -6311.26525838,-4896762.70914 -6332.81574332,-4896694.02442 -6362.99432441,-4896605.85966 -6398.42303842,-4896513.39737 -6434.82838512,-4896442.36372 -6485.47201307,-4896397.49572 -6582.33124723,-4896356.97775 -6686.29899696,-4896331.54178 -6776.97355418,-4896348.83609 -6826.93178923,-4896440.4082 -6874.52911353,-4896543.10735 -6981.47299321,-4896626.42143 -7120.87259342,-4896709.37662 -7279.76894311,-4896753.24345 -7438.46659762,-4896728.17205 -7651.56763165,-4896706.48214 -7823.25621759,-4896690.16029 -7919.57237974,-4896640.18047 -7960.29544822,-4896570.39957 -7935.97984063,-4896424.89987 -7918.60197477,-4896291.49384 -7980.07015781,-4896134.58951 -8064.41196528,-4895988.86714 -8119.69591389,-4895889.77455 -8236.61043853,-4895697.72173 -8403.82891421,-4895489.80056 -8437.09754101,-4895429.44045 -8467.33753768,-4895394.73467 -8506.07943335,-4895364.53868 -8547.68037801,-4895323.18733 -8579.32277072,-4895299.89278 -8618.49208099,-4895277.1668 -8666.81865938,-4895270.4045 -8729.95004567,-4895264.79355 -8864.12161139,-4895317.57071 -9029.95352159,-4895308.08153 -9135.32037575,-4895193.634 -9197.54166902,-4895106.63664 -9246.43336004,-4894956.95005 -9244.00001247,-4894857.66442 -9222.42256617,-4894759.97377 -9140.80246006,-4894678.209 -9029.38331589,-4894630.12491 -8764.21032281,-4894466.43101 -8445.05125969,-4894367.77835 -8399.56145692,-4894349.89619 -8372.13455222,-4894328.98211 -8352.33370557,-4894301.63621 -8343.79477222,-4894274.64526 -8342.21922186,-4894225.27235 -8389.46158188,-4894064.18808 -8419.69534665,-4893924.56167 -8441.85588909,-4893805.38224 -8461.21429697,-4893698.3542 -8514.12528139,-4893618.8848 -8674.69818532,-4893574.22615 -8842.64581706,-4893488.17665 -9053.10192352,-4893424.67698 -9174.99742577,-4893315.28191 -9196.25431993,-4893184.66405 -9162.8913289,-4893103.63522 -9118.08288903,-4893045.24434 -9062.60252133,-4892974.97326 -9051.78165376,-4892838.19615 -9037.57896087,-4892646.65405 -9045.8977352,-4892403.36213 -9135.80646189,-4892241.33916 -9348.25782924,-4892094.79149 -9579.74642273,-4891949.15424 -9734.54655925,-4891860.36295 -9847.10219509,-4891757.99992 -9919.32877686,-4891679.92642 -10002.5760391,-4891624.20519 -10066.4514114,-4891566.09447 -10129.1116595,-4891543.526 -10279.6015268,-4891492.95297 -10365.2120411,-4891478.56491 -10434.395572,-4891452.12623 -10522.9441933,-4891441.06749 -10629.9744225,-4891412.46473 -10684.0175846,-4891348.42177 -10699.0041329,-4891274.12185 -10699.9326553,-4891181.14092 -10691.7982107,-4891095.67278 -10669.8263183,-4890991.01135 -10604.8614714,-4890802.87474 -10566.3264084,-4890635.7094 -10554.7015797,-4890375.57644 -10582.3816911,-4890073.22758 -10640.9127707,-4889925.99342 -10628.2744795,-4889757.34764 -10620.8162771,-4889626.87581 -10590.0096125,-4889481.25144 -10520.432275,-4889382.80816 -10503.0281998,-4889191.95209 -10512.5515508,-4889022.03946 -10548.7247417,-4888872.58664 -10643.5252961,-4888739.26805 -10727.107305,-4888632.57062 -10984.7421464,-4888607.85408 -11030.7269347,-4888573.25102 -11044.1858753,-4888476.55703 -10957.508036,-4888411.0659 -10932.5300091,-4888310.57321 -10971.0661495,-4888202.45392 -10976.3444353,-4888128.70984 -10940.425266,-4888002.86273 -10890.8970897,-4887861.80575 -10809.8042133,-4887618.63366 -10709.9092683,-4887435.48945 -10562.8344073,-4887213.57299 -10541.8915636,-4887074.37919 -10534.4086512,-4886943.40932 -10589.1660148,-4886891.81869 -10805.2411746,-4886865.48454 -10777.777354,-4886555.29796 -10796.2617798,-4886397.86458 -10792.5727188,-4886197.73249 -10741.0904879,-4886079.26866 -10691.9694614,-4886002.13734 -10427.9675802,-4885972.25328 -10362.6040439,-4885947.5093 -10320.9878468,-4885892.43135 -10286.3859522,-4885846.44529 -10273.2048471,-4885786.24574 -10252.8887096,-4885710.46619 -10212.0278156,-4885607.38232 -10154.5615403,-4885554.70833 -10071.612612,-4885501.99096 -10018.5494338,-4885469.54941 -9929.49637382,-4885423.67549 -9836.88646184,-4885368.01238 -9755.21732247,-4885337.70413 -9654.51220446,-4885254.02522 -9568.66741854,-4885207.46803 -9506.22910944,-4885124.60093 -9448.55664515,-4885063.94418 -9397.30815817,-4885006.41776 -9306.80964499,-4884992.10136 -9236.33159412,-4884934.67382 -9188.88884302,-4884886.92217 -9185.24844241,-4884823.17927 -9181.60808509,-4884759.43637 -9198.05051356,-4884710.53426 -9241.50640254,-4884631.6114 -9287.43142067,-4884539.058 -9284.83843058,-4884436.78503 -9260.31940436,-4884344.25761 -9212.45041793,-4884289.03582 -9192.59237823,-4884168.76331 -9150.1709823,-4883985.82842 -9106.98461337,-4883898.86325 -8995.86314928,-4883860.24289 -8843.38123429,-4883788.5113 -8846.85424604,-4883599.95749 -8838.49477408,-4883453.5475 -8808.7735001,-4883269.88666 -8717.47017439,-4883127.71245 -8637.41588289,-4882959.41528 -8519.29366994,-4882793.79071 -8421.94235466,-4882676.94184 -8230.65604644,-4882669.37589 -8167.55854357,-4882570.5559 -8062.93902777,-4882532.06199 -7839.00395444,-4882416.44271 -7592.07277013,-4882462.51435 -7432.80563049,-4882587.019 -7313.98041316,-4882632.27325 -7231.43274377,-4882643.48067 -7130.79222072,-4882674.70671 -7039.18427182,-4882750.38347 -6883.89674839,-4882944.6098 -6708.26224268,-4883005.59858 -6574.66855126,-4883019.72054 -6415.13618169,-4883025.83038 -6112.65672381,-4882991.63681 -5796.14772963,-4882939.2578 -5511.53885391,-4882885.55686 -5200.76294217,-4882819.85914 -4917.91601275,-4882906.45468 -4635.06829075,-4882993.05069 -4357.27132428,-4882944.95565 -4117.57197891,-4882894.68538 -3913.22457861,-4882837.89992 -3557.69528415,-4882732.28536 -3086.84243331,-4882540.81836 -2828.61288559,-4882389.17606 -2710.14391529,-4882108.14109 -2729.28293743,-4881883.20649 -2833.53227352,-4881691.88738 -2895.36882156,-4881540.96241 -2870.30540405,-4881325.04652 -2805.78615212,-4881091.89597 -2652.61077376,-4880876.79512 -2446.81817281,-4880632.71855 -2131.19618416,-4880145.08282 -1893.02178706,-4879784.4337 -1696.66291345,-4879482.35486 -1824.74837425,-4879257.69952 -1940.62768038,-4878937.30863 -1889.4050011,-4878486.04853 -1673.4812479,-4877954.74425 -1314.01862235,-4877320.20104 -955.530187446,-4877009.37366 -374.432182827,-4876777.1918 -1.24408664062,-4876177.89492 366.148389438,-4875566.27138 984.728353952,-4874904.50483 1653.58066107,-4874285.56833 2119.35333995,-4873819.44124 2502.70643531,-4873536.98877 3100.28551432,-4873340.19308 3606.86697873,-4873192.67419 4127.18648394,-4873154.86622 4811.86213915,-4873209.86954 5371.10478161,-4873107.32069 5802.28807205,-4872902.03352 6342.814827,-4872496.60253 6922.187056,-4871979.45009 7416.77907521,-4871612.86719 7993.28454335,-4871365.37696 8421.26960708,-4871295.3123 8756.71965611,-4871182.99824 9149.06610605,-4871071.9252 9600.00249109,-4870958.69147 9985.09446382,-4870773.24646 10118.4922925,-4870229.66639 10101.0434262,-4869820.9114 10023.7640551,-4869510.69011 9956.07519168,-4869268.97552 9932.09339673,-4868737.92146 10230.0023633,-4868517.02176 10485.1657032,-4868450.09605 10878.533994,-4868343.06572 11281.070605,-4868312.01297 11661.4409495,-4868301.68539 11912.4689081,-4868246.01591 12167.5711079,-4868206.56899 12423.3619951,-4868190.14806 12680.8945133,-4868195.81382 12938.7433703,-4868213.49086 13195.7668181,-4868228.12262 13701.9815697,-4868258.93923 13705.1970849,-4868255.12448 13711.581302,-4868261.48462 13967.3515716,-4868263.05223 14225.0828468,-4868247.7407 14482.4423973,-4868221.41384 14735.7855566,-4868177.86732 14957.7380423,-4868119.54057 15228.7135488,-4868034.02023 15439.9253061,-4867958.09044 15471.5459486,-4867946.89735 15711.7303861,-4867853.62646 15952.9115485,-4867760.41181 16192.2708267,-4867664.09455 16428.8119493,-4867564.61794 16663.4227036,-4867582.46973 16961.9466157,-4867552.98595 17339.7211149,-4867452.55169 17349.9449842,-4867444.13825 17609.6402628,-4867232.03602 17917.267924,-4866981.18185 18254.8141044,-4866832.47799 18631.9183568,-4866739.49749 19077.4246488,-4866739.86446 19382.0768427,-4866747.70739 19690.4842517,-4866742.27066 19941.4705845,-4866731.56689 20066.3909366,-4866679.2053 20275.1878459,-4866676.59514 20448.9591341,-4866705.47539 20524.9707026,-4866779.26769 20589.190683,-4866915.3586 20617.8905705,-4866977.46282 20691.4214212,-4867064.10801 20734.5107733,-4867128.03083 20821.4451996,-4867167.96191 20897.7771482,-4867148.31788 20937.0032969,-4867122.06409 21035.9665789,-4867108.70567 21103.0426392,-4867036.55957 21228.6107342,-4866915.76712 21350.6977907,-4866851.74918 21536.3152791,-4866738.37178 21787.5511666,-4866587.24782 21967.1348163,-4866597.46784 22113.5916205,-4866605.80264 22258.4326962,-4866642.5322 22360.3922204,-4866686.31704 22507.4772807,-4866824.12765 22740.6156226,-4866999.82099 22834.639216,-4867099.62869 22983.5591328,-4867231.54772 23125.620081,-4867400.55959 23197.319905,-4867471.11019 23281.8501131,-4867570.8782 23345.1562928,-4867626.45787 23445.7899362,-4867689.16001 23702.3477129,-4867760.73758 23858.0168199,-4867774.09636 24037.3204997,-4867789.30023 24258.7070198,-4867815.89553 24518.2158271,-4867835.66486 24974.9117234,-4867890.1481 25254.16894,-4867901.04609 25443.2238385,-4867911.80744 25599.944791,-4867906.73434 25709.0845991,-4867903.45087 25832.1671781,-4867905.45909 25980.7562303,-4867876.43311 26130.451389,-4867827.97833 26305.709817,-4867747.49273 26459.3157139,-4867713.75402 26585.3137267,-4867668.94779 26707.1524303,-4867609.41082 26841.8281975,-4867574.59426 27016.971573,-4867579.56521 27148.9539802,-4867592.07533 27311.2481616,-4867642.79558 27479.9115923,-4867691.37954 27625.0435242,-4867723.13064 27800.4434399,-4867723.61823 28003.9564242,-4867730.70393 28157.8484047,-4867691.98277 28251.3998718,-4867633.33368 28354.8483067,-4867563.25267 28419.6064451,-4867509.96167 28475.6991466,-4867437.68489 28526.2590507,-4867383.58564 28526.3749128,-4867298.12683 28592.4656515,-4867221.42091 28678.599264,-4867121.86529 28787.029616,-4867052.06701 28893.0561214,-4867020.11652 29004.3258449,-4866979.46796 29087.4764703,-4866936.7192 29199.3134152,-4866886.10672 29326.1426671,-4866822.35291 29395.91732,-4866764.3484 29508.5483518,-4866699.78629 29577.5008684,-4866656.22908 29625.4827594,-4866563.99714 29808.7981531,-4865867.70705 30064.5507522,-4865395.94983 30404.9483313,-4864943.00056 30730.0382692,-4864385.71743 31106.3627781,-4863806.35478 31519.8634021,-4863329.06461 32045.8365793,-4862886.65651 32809.491108,-4862514.23956 33622.2481024,-4861977.1692 34329.1712112,-4861600.51407 35057.5651991,-4861255.06399 35553.6616313,-4861083.33835 36015.9738528,-4861009.15672 36353.3387281,-4860846.89771 36711.2078081,-4860605.32989 37126.7649664,-4860342.5478 37513.1027462,-4860092.59792 37855.7722397,-4859854.65931 38176.2791208,-4859500.99569 38570.7176231,-4859108.54538 39016.6989952,-4858411.61659 39279.1075456,-4858227.09029 39534.6647028,-4858163.13683 40029.1621919,-4858173.74277 40440.2506982,-4858275.58037 40696.4095195,-4858350.61953 40958.5473575,-4858469.98599 41219.479287,-4858623.77452 41514.5415976,-4858779.50349 41833.2150398,-4858915.58115 42162.597713,-4858946.79776 42656.3208717,-4858922.87244 43231.9415916,-4858891.60456 43689.9822063,-4858849.15491 44200.787426,-4858938.17006 44419.6020432,-4859019.58836 44750.9879186,-4859244.37005 45004.8659665,-4859465.2475 45258.6838826,-4859841.08376 45597.4947516,-4860234.25027 45929.1469398,-4860296.093 46353.0964466,-4860251.20978 46634.8735929,-4860284.72366 46892.4305253,-4860445.33065 47129.7394774,-4860957.70524 47397.178067,-4861247.84674 47647.6585261,-4861528.5274 48135.4250261,-4861719.72461 48503.1595319,-4861758.1302 48806.0707119,-4861723.36512 49169.0320164,-4861538.04706 49441.2748654,-4861286.58262 49694.8255193,-4861060.54867 49921.2361658,-4861012.93351 50157.0530044,-4860949.35627 50404.0382599,-4860834.42419 50783.7353328,-4860662.54916 51275.5382651,-4860484.04848 51730.043149,-4860354.91599 52247.7445266,-4860169.38596 52764.2242708,-4860009.77991 53088.7001904,-4859899.24751 53475.6583215,-4859749.27356 54024.351115,-4859625.48869 54420.2648929,-4859467.52279 54807.7086232,-4859309.07426 55182.8077944,-4859213.91274 55658.5722213,-4859163.96581 56096.8648089,-4859016.90296 56554.9880104,-4858973.95076 57088.1968189,-4858823.78145 57502.7569005,-4858641.37103 57800.196025,-4858399.81031 58192.0395362,-4858164.113 58708.804855,-4857995.50507 59130.1648328,-4857847.47084 59461.8776986,-4857697.84093 60069.4864632,-4857509.89344 60518.1910629,-4857483.39564 61047.9448949,-4857539.49452 61475.4955395,-4857735.77122 61899.4000223,-4857991.83618 62447.73387,-4858138.98519 62797.395111,-4858232.349 63094.9635268,-4858292.25565 63452.1021159,-4858364.04721 63801.4836043,-4858418.39974 64150.4600808,-4858334.7405 64469.644933,-4858163.89423 64908.2779272,-4857861.84489 65369.9159804,-4857454.10777 65656.9193465,-4857246.93081 66030.0767945,-4857182.13921 66651.6856615,-4857139.96347 67295.0559845,-4857168.01999 67705.7433607,-4857208.35438 68096.3504118,-4857144.55267 68483.5891583,-4856986.06305 68867.1363117,-4856703.36735 69239.6328902,-4856091.55358 69365.5271045,-4855389.23028 69414.3701451,-4854833.02402 69446.5260618,-4854266.86996 69476.6456277,-4853890.59351 69486.7351579,-4853409.18301 69246.1524126,-4852948.53733 69003.893246,-4852521.79712 68683.9041394,-4852099.14525 68402.155271,-4851606.16995 68257.9606999,-4851116.50583 68263.9731101,-4850653.86827 68274.9120936,-4850214.50928 68343.5152149,-4849899.91749 68528.3463992,-4849686.91753 68939.8837375,-4849439.28493 69513.5666966,-4849149.35414 70002.9706904,-4848877.63706 70430.9380139,-4848741.42761 71104.2713076,-4848554.64194 71710.3457008,-4848324.03812 72397.893432,-4848182.05391 73192.4535133,-4847912.1404 73514.8268025,-4847746.93209 73997.9886428,-4847567.84553 74262.9383871,-4847445.37735 74718.9932187,-4847290.25067 75096.2986424,-4847157.1553 75525.2182753,-4847026.4873 75848.9225902,-4846864.34868 76591.4052775,-4846296.4558 77035.2993301,-4845985.62697 77432.6974042,-4845582.15541 77762.5208187,-4845232.85045 78116.085195,-4844923.39151 78328.3076067,-4844593.41412 78454.8562651,-4844187.07392 78629.8013828,-4843835.4795 78716.7363005,-4843439.89175 78835.7127081,-4843162.62543 78952.9436788,-4842691.25066 79006.5888528,-4841978.759 79139.6752033,-4841342.27325 79129.6667147,-4841082.19357 79168.3234365,-4840836.87295 79240.6917004,-4840433.45517 79306.8157307,-4840140.18841 79228.1427498,-4839344.69119 79292.8518845,-4839076.34488 79370.8168576,-4838790.24848 79417.0154236,-4838632.35826 79496.3742901,-4838537.84997 79647.309461,-4838274.38818 79951.1626276,-4837933.08505 80146.6617209,-4837536.13856 80274.3070544,-4837246.85316 80365.096295,-4836954.97921 80317.945152,-4836692.79303 80298.510032,-4836382.67416 80265.9075425,-4836084.31028 80264.1700024,-4835898.70114 80276.7327638,-4835676.89981 80232.6226657,-4835365.38368 80219.2295641,-4834944.10094 80172.3231306,-4834681.92966 80195.6225999,-4834491.23808 80131.3715596,-4834314.58978 80134.2646929,-4834042.7381 80069.5566319,-4833878.56495 80047.7764439,-4833605.31635 79975.4892147,-4833354.20959 79864.2576364,-4833137.40024 79722.8344281,-4832795.87537 79687.4575552,-4832546.35929 79655.5506824,-4832235.5365 79576.2915843,-4832107.54321 79453.9796803,-4831865.60725 79341.3349945,-4831673.7215 79227.7355522,-4831494.28269 79113.6798435,-4831327.31902 79066.4976496,-4831109.63801 79076.5542862,-4830892.19656 79075.7721597,-4830685.14218 79055.9226009,-4830492.50946 79101.9207,-4830223.09927 79186.4332396,-4829931.36712 79238.6378306,-4829711.31005 79340.8736967,-4829526.08545 79567.9252328,-4829414.9267 79794.7376751,-4829321.25496 80079.9938264,-4829215.38894 80275.1077315,-4829032.41762 80389.7345037,-4828672.3812 80527.676891,-4828421.66985 80717.0181275,-4828141.86374 80901.0586388,-4827982.26473 81130.7864162,-4827828.25006 81407.5916921,-4827619.89406 81596.533486,-4827351.56277 81693.7603632,-4826914.53071 81789.0977869,-4826647.90353 81846.1685535,-4826403.61331 81921.6530631,-4826160.86433 82095.4907057,-4825929.67805 82282.5555297,-4825791.74637 82525.8461823,-4825756.00207 82835.6338572,-4825742.51999 83227.4479995,-4825591.66479 83523.6717585,-4825490.90751 83702.3937382,-4825390.00511 83874.5470172,-4825294.73149 84094.6042743,-4825121.65917 84325.5197124,-4824862.69196 84567.5153659,-4824628.85271 84793.2075224,-4824471.09828 85121.4679244,-4824294.64062 85168.9395728,-4824065.30101 85097.0384879,-4823736.202 84963.1749542,-4823587.6188 84896.8162592,-4823394.84773 84872.6332127,-4823344.97555 84844.8315032,-4823257.39501 84833.8513471,-4823186.26711 84808.7954346,-4823094.34141 84802.5256733,-4822935.47098 84828.1237305,-4822840.90846 84901.2962538,-4822749.53547 84973.4824979,-4822675.6084 85049.9488637,-4822614.42449 85147.1945953,-4822543.91411 85286.8176402,-4822524.30435 85467.9320497,-4822527.04225 85710.6931192,-4822558.26791 85916.9084842,-4822607.92996 86242.4527014,-4822775.8509 86381.0873892,-4822862.19754 86543.7955293,-4822969.40766 86689.4159358,-4823020.64557 86829.1737746,-4823091.55451 86908.0862774,-4823164.02411 87049.0887106,-4823208.50056 87187.7918136,-4823253.84725 87346.3695904,-4823252.81197 87526.9348569,-4823225.51646 87748.2516135,-4823185.02303 87922.5285491,-4823131.86859 88149.9009559,-4822988.70399 88280.7858832,-4822902.59186 88386.7517059,-4822810.5701 88453.9916317,-4822642.84908 88449.6504572,-4822096.03163 88276.0298792,-4821872.18875 88171.2917337,-4821584.23141 88085.1197312,-4821370.3334 87933.6107613,-4820932.21439 87864.9292438,-4820585.7887 87887.0589553,-4820149.98341 87991.9683191,-4819943.88491 88045.9131505,-4819657.39589 87975.7996492,-4819473.41047 87860.2685255,-4819287.85895 87734.6969466,-4819147.24625 87592.3446143,-4819033.68919 87481.4130123,-4818903.90554 87283.9094673,-4818744.22751 87098.9661409,-4818627.7649 86994.6665821,-4818513.35869 86878.6135456,-4818381.28658 86821.4107584,-4818190.03207 86785.9305377,-4818017.00698 86790.3233959,-4817850.73511 86896.3689251,-4817757.21396 87037.9933377,-4817702.20707 87124.9916247,-4817631.61255 87191.4592535,-4817481.84843 87372.5461331,-4817042.52175 87476.2277875,-4816720.83695 87518.4765017,-4816375.67909 87470.2246598,-4816114.42082 87294.5253127,-4815789.9577 87230.0681072,-4815682.80435 87131.3843874,-4815601.72165 87032.631284,-4815566.14081 86725.4759835,-4815563.79612 86409.8440617,-4815534.46964 86186.0403136,-4815481.8259 86003.7580998,-4815451.02949 85754.4275561,-4815451.95083 85531.2875612,-4815431.84876 85337.6401824,-4815292.39899 85249.3490632,-4815204.40407 85143.1894424,-4815122.90108 85066.97455,-4815002.5848 84965.010114,-4814753.80107 84916.3889981,-4814499.02873 84872.9011092,-4814202.04185 84909.6012914,-4813857.57684 84907.0661488,-4813596.90573 84937.4009306,-4813369.59362 84957.9348265,-4813138.72775 84967.477991,-4812965.24762 85069.5543256,-4812658.47571 85095.3084918,-4812379.39866 85136.7682102,-4812158.71427 84934.0982433,-4811820.23917 84867.3593179,-4811753.46553 84742.6417869,-4811703.92188 84647.8239673,-4811634.06352 84560.2264129,-4811321.08691 84495.3532013,-4811052.89772 84428.786451,-4810757.1103 84386.2837756,-4810367.17098 84391.4631158,-4810111.43618 84415.7545212,-4809787.2723 84387.7913857,-4809361.14944 84340.653822,-4809106.46323 84185.017618,-4808811.65265 83989.4393928,-4808622.10075 83788.9352289,-4808298.25792 83819.6033796,-4807763.4328 83907.0724301,-4807356.32373 84049.2909769,-4807179.82571 84186.1738334,-4806827.50757 84262.2369648,-4806511.76291 84280.8630704,-4806128.27176 84263.2965868,-4805805.74632 84283.9283066,-4805639.39152 84258.5626998,-4805268.92108 84224.8567527,-4805104.00286 84255.7904405,-4804936.72856 84389.6558797,-4804744.25407 84521.674565,-4804642.18511 84646.3582287,-4804501.69811 84807.5916601,-4804369.27208 85064.6077493,-4804285.25065 85281.955079,-4804248.49838 85447.0236403,-4804269.80599 85624.7303259,-4804279.82475 85748.0300476,-4804274.77471 85801.6265405,-4804197.78655 85826.3933338,-4804086.66898 85883.0810078,-4803954.84812 85935.8540377,-4803834.80794 85981.2280417,-4803686.34702 86031.238455,-4803455.63696 86209.1818027,-4803244.13978 86360.5921877,-4803068.65115 86526.2311667,-4802866.96058 86636.2077137,-4802694.63623 86731.9330603,-4802473.5019 86844.8511722,-4802155.82316 86871.1352619,-4801946.77632 86908.1371423,-4801702.8286 86961.0304351,-4801256.74869 87080.6242466,-4800829.42888 87148.1507804,-4800611.70353 87155.9271749,-4800549.13302 87162.1910266,-4800437.97055 87168.373393,-4800394.81289 87183.8310208,-4800284.6685 87222.7804218,-4800201.35128 87437.0327016,-4800090.90636 87579.7309424,-4800003.43322 87866.5215942,-4799817.06321 88091.3698877,-4799651.70595 88451.7667691,-4799370.46661 88547.144512,-4799128.80291 88665.087535,-4798859.40562 88761.0819268,-4798464.75214 88908.663863,-4798295.0384 89059.7322352,-4798201.03247 89268.9882514,-4798143.80945 89500.7475785,-4798139.8623 89733.9676128,-4798109.99324 90028.2122155,-4798066.55901 90248.8088618,-4797958.96584 90401.3391736,-4797839.03658 90487.5122827,-4797680.86324 90547.7631119,-4797521.22947 90546.0277526,-4797401.11129 90563.6562068,-4797239.07646 90549.3235958,-4797040.73545 90556.0623243,-4796921.09451 90565.6928893,-4796750.10759 90617.468056,-4796589.99572 90698.8108167,-4796517.56378 90865.6753964,-4796449.44829 91062.8133836,-4796452.04979 91250.9997632,-4796462.64868 91487.3915833,-4796527.47189 91812.4193835,-4796545.77834 92127.3142726,-4796668.53365 92205.9321554,-4796719.97047 92283.404838,-4796711.83181 92353.4102566,-4796689.77005 92374.9330119,-4796613.96796 92390.7641983,-4796483.83518 92386.136151,-4796415.06171 92424.1308539,-4796348.68886 92482.0173291,-4796310.94147 92513.3600269,-4796287.20197 92537.4634069,-4796241.05058 92585.9028121,-4796206.77178 92616.8736528,-4796198.51422 93008.4391784,-4796243.07226 93449.7608539,-4796163.40833 93728.3558483,-4796025.06904 94096.3464066,-4795609.20702 94619.4879079,-4795275.59515 94940.3102467,-4795044.61089 95057.640619,-4794817.16911 94975.6851198,-4794634.0163 94945.2205775,-4794300.23087 95100.8823457,-4794035.93824 95456.722601,-4793866.93426 95681.9358867,-4793819.60236 95826.4675104,-4793513.17172 95965.1499688,-4793212.91235 96173.2620383,-4793034.08728 96349.1320879,-4792970.47259 96543.1393539,-4792913.38013 96723.2802064,-4792880.51252 96948.9583949,-4792807.19881 97003.5933975,-4792711.75219 97169.8087129,-4792708.60729 97345.0072117,-4792767.9826 97629.708885,-4792845.5262 97912.2179943,-4792855.43082 98099.7116659,-4792696.44685 98212.975874,-4792536.78406 98256.319399,-4792317.67108 98343.6763821,-4792058.52547 98645.2053991,-4791970.47519 98933.9481079,-4791869.70179 99293.7850786,-4791816.44124 99501.3867693,-4791735.60536 99630.9334137,-4791619.86735 99704.8046407,-4791506.99635 99788.3610322,-4791444.18302 99975.2436449,-4791478.20959 100097.212549,-4791572.59836 100331.813543,-4791727.34219 100600.929441,-4791766.49924 100885.158074,-4791745.99148 101056.654292,-4791613.60908 101245.442071,-4791396.1769 101451.68111,-4791139.71574 101659.742667,-4790890.8583 101918.036331,-4790584.8113 102108.631861,-4790281.9542 102319.488329,-4790036.75217 102579.27543,-4789961.85017 102582.073636,-4789961.0074 102843.041973,-4789976.19697 103088.700898,-4790094.55438 103274.748839,-4790179.04809 103474.050145,-4790245.78285 103852.493108,-4790297.59505 104069.758699,-4790156.28097 104196.721349,-4790095.40814 104430.677883,-4790084.07086 104767.088919,-4790118.5129 104899.080928,-4790074.92798" style="stroke-linejoin:round;stroke:#000;stroke-width:1px;fill:none" /></g></g></svg>