<svg xmlns="http://www.w3.org/2000/svg" baseProfile="full" height="216709.762654" version="1.1" viewBox="-23017.364261,4819127.822993,193027.398662,216709.762654" width="193027.398662"><defs><style type="text/css">polyline,line,rect,path,polygon,.polygon{fill:none;stroke:#000;stroke-width:1px;stroke-linejoin:round;}</style></defs><g fill_rule="evenodd" transform="scale(1,-1)"><g class="hogares departamen mujeres departam_1 toponimo_i tot_pob varones viv_part viv_part_h" id="62091"><polygon class="_62091" id="None" points="159522.419707,-5035712.2369 133233.844917,-5034967.44251 133135.835627,-5034966.39596 80122.4224674,-5034329.36229 73648.4348228,-5034251.9275 51862.9078251,-5033989.61724 47790.7921917,-5026803.07104 46643.0799334,-5024777.95824 45195.2435638,-5022239.88424 41553.4325507,-5015855.69475 36824.9326937,-5007550.97666 31432.1268983,-4998046.23251 25858.4187951,-4988234.05397 21004.344069,-4979715.85761 20223.5831595,-4978349.5243 10612.0000003,-4976160.92337 -2978.9577818,-4973057.02941 -12721.3660226,-4970847.78793 -17518.8338615,-4969760.14561 -21942.77123,-4968752.30666 -22555.1731215,-4968618.02034 -22548.8203138,-4968610.31939 -15694.9112247,-4960129.58897 1342.53023377,-4939138.02969 2844.91689326,-4937284.52992 2804.19448867,-4937257.16805 -8955.24780304,-4929378.23505 -10546.2157537,-4928309.2077 -15129.1395647,-4925243.43398 8242.35255371,-4908516.91502 12439.6885995,-4894345.14549 15150.2034416,-4885217.31517 15450.5844365,-4884296.34962 50470.2494264,-4863903.11721 51617.5307462,-4863234.8248 82923.4943806,-4860824.96129 102006.49469,-4859015.38222 119371.891668,-4826475.06711 119797.184171,-4825678.01623 151500.063365,-4820756.80303 151587.019536,-4820670.69673 169804.207537,-4830077.50277 163501.689099,-4941850.56215 163405.169986,-4943554.06346 162726.130033,-4956975.27908 161378.379556,-4990061.82588 160714.885232,-5005730.86353 160046.013128,-5022801.5698 159749.109077,-5029852.13607 159522.419707,-5035712.2369" style="stroke-linejoin:round;stroke:#000;stroke-width:1px;fill:none" /></g></g></svg>