<svg xmlns="http://www.w3.org/2000/svg" baseProfile="full" height="33489.6544648" version="1.1" viewBox="13155.125626,2857208.180005,61267.522809,33489.654465" width="61267.5228091"><defs><style type="text/css">polyline,line,rect,path,polygon,.polygon{fill:none;stroke:#000;stroke-width:1px;stroke-linejoin:round;}</style></defs><g fill_rule="evenodd" transform="scale(1,-1)"><g class="id" id="66042"><polygon class="_66042" id="None" points="18156.4838577,-2859996.28011 19690.4697103,-2859798.79204 22118.939585,-2860253.30422 23452.9234331,-2860243.81448 23693.9200585,-2860286.31584 24902.1525398,-2860498.82275 25015.899645,-2860665.32142 25473.637966,-2861335.31576 25658.8761516,-2862561.79951 26752.8538603,-2863396.29457 27976.8296555,-2864075.79198 28642.5676988,-2864194.79447 29279.8097515,-2863766.8063 29442.5616281,-2863139.31841 30696.5423136,-2862776.83492 31255.7866471,-2862247.84943 31969.2845038,-2861076.8779 32543.5357543,-2859943.90516 32906.2863902,-2859293.92151 33416.5293385,-2859074.93176 34111.5179183,-2858908.94355 34761.2588874,-2858605.95787 35371.25386,-2858058.97711 35959.2455956,-2857783.49101 36654.4871285,-2857360.01002 37836.4624501,-2857289.52945 38964.9339482,-2857462.04305 40176.1546128,-2857475.56203 40948.1359471,-2857436.07564 41147.3802369,-2857474.07797 41321.3754741,-2857491.5804 43564.3178325,-2857331.12321 43694.0643402,-2857322.12577 44292.0480592,-2857278.63772 44456.0435225,-2857267.14102 44743.7840156,-2857328.14446 46319.2301491,-2857662.16319 46471.7237902,-2857747.66331 47283.6894446,-2858203.16357 47414.1838437,-2858276.66354 49041.6180246,-2858869.17296 50048.322899,-2859384.67264 50366.8067128,-2859640.66891 50574.2985137,-2859670.67145 50910.7851078,-2859718.67561 51342.5184177,-2859739.1825 51748.749715,-2859914.183 51981.9874745,-2860094.18012 52240.4726262,-2860363.67406 52479.2076833,-2860682.66549 52700.6884164,-2861307.14411 52896.4235975,-2861737.1298 53078.9112648,-2862049.61986 52974.6617745,-2862297.10811 53261.3962667,-2862544.1022 53652.6274484,-2862713.10091 53926.6158807,-2862713.60493 54174.3522781,-2862922.09968 54409.0891917,-2863130.09414 54526.3343124,-2863117.09638 54630.5797927,-2863117.09788 54891.5686013,-2863104.10222 55243.5532988,-2863091.10792 55621.5353318,-2863169.10997 55947.7700752,-2863208.11298 56352.0005185,-2863286.61533 56860.4724885,-2863599.10824 57029.9625256,-2863742.10397 57160.4541883,-2863898.59844 57329.9432951,-2864106.59096 57668.9209919,-2864562.57376 57838.4114712,-2864666.57097 58177.6424773,-2864862.06588 58607.8686914,-2865070.06114 59403.3259261,-2865304.55939 59964.0442144,-2865552.05367 60943.9839548,-2866314.02529 60954.9848965,-2866180.03254 60994.2334443,-2866125.03592 61052.7309759,-2866069.53956 61137.7264837,-2866066.04074 61235.4714449,-2866050.04274 61300.7186386,-2865991.54664 61365.7157682,-2865939.55021 61437.4627746,-2865867.55494 61476.7114854,-2865799.55908 61535.4591568,-2865731.06349 61528.7106075,-2865643.06816 61528.7114992,-2865571.57201 61313.7244002,-2865464.07508 61280.9775584,-2865353.58058 61280.9784003,-2865288.08408 61340.7262093,-2865210.58901 61380.7248391,-2865151.59269 61476.7201172,-2865119.0957 61450.474088,-2864927.10566 61574.4719053,-2864601.62484 61580.9742308,-2864412.6351 61548.4774265,-2864311.64005 61509.2304212,-2864250.14278 61411.4873643,-2864132.64764 61267.9955822,-2864093.64761 61059.5060631,-2864132.64249 61007.2616951,-2863937.65202 61072.5098158,-2863833.15851 61374.2496868,-2863452.18335 61942.9681709,-2863517.68878 62325.9447039,-2863686.68559 62706.9237616,-2863686.69154 62971.6590771,-2863686.69571 63298.6391278,-2863792.19494 63659.3657682,-2863983.18975 63989.0917021,-2864326.67515 64019.3370392,-2864523.66427 64189.0725418,-2864849.14794 64511.5448751,-2865497.11465 64593.2851509,-2865877.5934 64523.0335655,-2866342.06525 64710.5213983,-2866437.56185 65101.7471142,-2866528.56105 65347.2311938,-2866633.55763 65881.6936373,-2867094.53573 66170.9218139,-2867479.01524 66390.6546792,-2867831.99566 66664.884645,-2868141.97899 66844.8725706,-2868228.47525 66950.615454,-2868279.47301 67127.102552,-2868474.96226 68319.017466,-2869515.9049 68790.4845114,-2869788.89027 70071.6429802,-2870633.84129 70190.8842283,-2870738.83473 70337.123901,-2870787.83214 70477.8631305,-2870992.31872 70585.3531064,-2871570.77908 70657.0970632,-2871856.25949 70873.0808017,-2872236.7336 71306.5490952,-2872746.19876 71576.7797421,-2872836.19286 71824.511785,-2872991.18219 72208.9840524,-2873018.18081 72837.937794,-2873346.65758 73454.3919831,-2873576.141 74351.074279,-2873801.12427 72689.2023055,-2875899.97042 72779.6978139,-2876413.43241 72296.236468,-2877071.38696 72453.9795844,-2877781.8344 72347.7380521,-2877888.32744 72167.7507559,-2877845.8318 72072.5078461,-2877877.83018 72090.25753,-2878009.32058 72301.7467673,-2878574.77811 72185.0124452,-2879367.222 72720.2271242,-2879705.19205 72949.7147607,-2880108.66006 72550.494133,-2880133.16277 71873.2933059,-2880175.16738 70921.3615657,-2880280.67067 70662.8792817,-2880261.17494 70120.666155,-2880227.68328 69281.2217276,-2880127.19923 67025.1159144,-2879912.23669 65969.6809145,-2879850.75101 64968.4884188,-2879525.2802 64575.5085785,-2879162.80523 64303.5228509,-2878951.31997 63956.0428015,-2878905.82544 63547.3174145,-2879024.32188 63169.5853826,-2878552.35186 62822.8518313,-2878090.38052 62611.3593719,-2877365.4227 62477.3644336,-2876881.95056 62039.6380286,-2876703.96249 61469.4183314,-2876451.47878 57940.3467076,-2873700.62853 57322.8857393,-2877335.45193 57126.6468617,-2877652.43764 56612.9224781,-2877848.43112 56369.4344226,-2877927.42877 56131.6960093,-2878004.42653 56053.9497813,-2878029.42582 55011.2463523,-2877803.44206 54376.7738752,-2877637.45285 54044.2876387,-2877455.96252 53787.5496935,-2877622.45651 53633.5565218,-2877649.45612 53286.3218049,-2877710.45526 53205.5754669,-2877749.95399 52544.1051832,-2878070.94393 51792.8874837,-2878286.43924 51143.4121988,-2877999.45445 50554.1862467,-2878120.45279 49541.9761613,-2878256.453 48620.0110735,-2878316.95574 48287.7724041,-2878150.46363 47728.7915328,-2877924.47463 47215.0605735,-2878074.97179 46751.3269558,-2878101.47317 46414.0887109,-2878120.47419 45840.1077483,-2878014.98057 45401.6225671,-2878042.98172 45149.380995,-2878059.48238 44471.6529773,-2878037.98626 43407.1855476,-2877788.49892 42923.9457548,-2876459.04172 43147.9365897,-2875479.07143 42744.1977363,-2874450.6036 41427.988135,-2875386.07717 40763.2589799,-2876217.05456 40113.7796874,-2877079.03216 39977.5340619,-2877260.0276 37617.8496718,-2878136.51325 36169.8898788,-2879193.49372 35538.1511389,-2878371.01592 34137.1809143,-2877794.53424 33458.9449895,-2877547.54186 33166.7009618,-2877441.04505 31544.7323776,-2876522.56834 29875.7645808,-2876286.07629 29075.2793984,-2876216.57903 28807.5342532,-2876193.07992 28472.2907089,-2876417.57646 28342.7931889,-2876504.57514 28312.7943299,-2876806.56981 28705.5398602,-2877834.05042 29007.7874753,-2878785.53226 28705.5467984,-2879782.51555 28336.3062252,-2880442.50558 28136.8115826,-2880841.99962 28244.0637118,-2881607.98592 27906.8225239,-2882159.97845 27830.3285163,-2882941.96586 27662.831771,-2883020.46562 27278.3438155,-2883907.45378 26889.6027001,-2884306.95016 26879.8552367,-2884642.945 27125.1040293,-2884995.93771 27324.3544657,-2885455.42902 27105.8611932,-2885875.92427 26645.877232,-2886967.41177 26558.1303314,-2887175.90949 26218.642417,-2887981.40103 26202.9042208,-2889190.38447 25566.4182478,-2889747.88345 24988.6806861,-2890253.88289 23797.6969024,-2890449.39243 23325.9515723,-2890373.39787 22908.4575805,-2890513.90027 22249.7076819,-2889728.91494 21958.9633371,-2890013.4144 21437.2181272,-2889928.41983 20853.2232745,-2889822.42584 20225.7274305,-2889551.93364 19705.4812281,-2889376.9394 19543.482506,-2889336.44102 18617.9896702,-2889103.94999 17524.236365,-2886944.9776 17433.4814835,-2885886.9885 17282.4766264,-2884587.50242 16950.2276126,-2884043.5095 16557.2290326,-2883409.01764 16103.9800164,-2882411.52959 15741.2306621,-2881444.54076 15574.7299835,-2880583.5502 15317.9804382,-2879661.56049 15302.7283224,-2878529.07251 15665.4729351,-2877622.58167 15889.9694736,-2876879.08952 16640.2099259,-2875755.10138 17295.2019127,-2875090.60861 16226.2138359,-2874047.62096 14357.9844396,-2874951.61158 14278.4850888,-2874337.1181 14190.7359638,-2873984.62183 14162.4862544,-2873871.62302 14042.4875295,-2873435.12759 13347.4947047,-2873468.62717 13172.4967002,-2872590.63608 13201.9964817,-2872397.63806 13242.4962018,-2872132.14078 13301.2458364,-2871748.64472 13593.4935307,-2870925.15335 13958.2405148,-2870263.66053 14834.732456,-2869508.6696 16406.2159078,-2869266.67488 17856.6998835,-2869024.68048 18460.9437069,-2868601.68682 18702.9425074,-2867936.69537 18763.1942435,-2867090.7056 18340.2063715,-2865036.22783 17977.4659637,-2863706.24095 18098.2225985,-2862074.25882 18156.4838577,-2859996.28011" style="stroke-linejoin:round;stroke:#000;stroke-width:1px;fill:none" /></g></g></svg>