<svg xmlns="http://www.w3.org/2000/svg" baseProfile="full" height="70551.1152953" version="1.1" viewBox="-24159.399517,2869344.207450,129722.535499,70551.115295" width="129722.535499"><defs><style type="text/css">polyline,line,rect,path,polygon,.polygon{fill:none;stroke:#000;stroke-width:1px;stroke-linejoin:round;}</style></defs><g fill_rule="evenodd" transform="scale(1,-1)"><g class="hogares departamen mujeres departam_1 toponimo_i tot_pob varones viv_part viv_part_h" id="66112"><polygon class="_66112" id="None" points="-8022.40025945,-2869969.53342 -7768.33555906,-2869981.14851 -7412.63373781,-2869945.01409 -7292.64969304,-2870079.11294 -7185.77503335,-2870198.31021 -7229.05872849,-2870328.11999 -7277.03610359,-2870465.46393 -7264.63847726,-2870620.35863 -7115.50488238,-2870741.24216 -6964.17891868,-2870652.12765 -6885.13928795,-2870523.5527 -6757.98782653,-2870410.61967 -6629.59090133,-2870465.66276 -6477.98391912,-2870583.02822 -6364.48964421,-2870752.17165 -6207.68273663,-2870963.98997 -6097.37496049,-2871141.65604 -5988.18722589,-2871336.82873 -5820.09331487,-2871520.06546 -5633.95665245,-2871608.17687 -5420.12821096,-2871655.08659 -5212.3657437,-2871693.04212 -5029.96304465,-2871682.19024 -4911.12733506,-2871627.8139 -4788.58825517,-2871600.90757 -4680.35955517,-2871633.1019 -4614.31315845,-2871707.60511 -4639.21032197,-2871822.27905 -4580.144332,-2871899.33375 -4362.00252967,-2871921.21374 -4132.99440089,-2871891.51803 -4015.78050236,-2871888.14901 -3909.98491494,-2871929.36045 -3841.4909278,-2871996.84601 -3752.0186501,-2872061.67622 -3662.28315396,-2872162.00104 -3570.89122572,-2872182.32123 -3491.39799059,-2872148.73488 -3393.19097281,-2872110.51019 -3252.5714175,-2872128.46553 -3087.7992858,-2872234.73314 -3030.39370626,-2872391.29208 -3001.49331231,-2872513.06581 -2925.94862097,-2872587.49817 -2798.04980886,-2872575.55067 -2623.31707711,-2872609.25129 -2324.9026705,-2872736.52521 -2071.50591827,-2872827.1366 -1886.12376438,-2872813.76291 -1729.97815225,-2872768.10937 -1599.26771199,-2872697.1471 -1472.89132393,-2872682.21132 -1327.59367354,-2872690.63286 -1144.527645,-2872735.77052 -1027.16424744,-2872786.39489 -970.263227189,-2872874.96375 -955.035153727,-2872973.34066 -936.161465977,-2873057.69196 -836.946671203,-2873155.44594 -740.233660607,-2873219.22196 -620.509503886,-2873284.82708 -511.920816138,-2873332.0167 -399.21939295,-2873428.17065 -276.569977154,-2873483.75503 32.6532191397,-2873551.9541 369.554030095,-2873711.938 597.84900176,-2873957.21814 747.941576836,-2874174.08124 934.146205652,-2874339.18188 1101.70917868,-2874484.92279 1261.86311515,-2874710.20981 1373.64735636,-2874783.87228 1483.38143646,-2874817.05441 1615.44114125,-2874827.07344 1718.63914132,-2874855.3046 1783.14178012,-2874890.3221 1841.6216933,-2874955.88088 1820.40506322,-2875128.51902 1772.89011526,-2875226.86062 1762.20210174,-2875302.43149 1769.05940846,-2875384.37145 1787.37029705,-2875460.22708 1867.88370059,-2875530.62168 1939.08468866,-2875525.0939 2003.41808873,-2875503.61887 2072.78031936,-2875486.1061 2152.91299303,-2875471.51307 2213.37260537,-2875568.05349 2278.30038047,-2875694.05738 2311.23496557,-2875786.80244 2363.54987679,-2875897.40161 2409.10619931,-2875973.05489 2474.53628672,-2876133.05101 2516.56451632,-2876272.22316 2587.90697212,-2876454.17276 2682.10859098,-2876516.46633 2781.00979984,-2876605.72188 2891.94739035,-2876666.39133 3010.70680589,-2876669.50936 3100.56896757,-2876652.34426 3268.01936414,-2876614.60561 3394.5114977,-2876548.17439 3455.07940365,-2876457.23542 3511.93136478,-2876370.82353 3601.55229319,-2876321.16415 3708.09701752,-2876328.87244 3810.66327673,-2876373.10598 3903.26462819,-2876421.91292 3987.45276266,-2876482.28091 4069.95425803,-2876551.1604 4175.83155865,-2876637.36429 4277.93722843,-2876720.59648 4833.72990469,-2877038.43267 5391.1649324,-2877409.2494 5698.33964117,-2877740.92807 5833.21322653,-2878365.84919 6015.07035491,-2878618.96712 5934.31267747,-2878818.542 5940.31549338,-2879020.97215 6072.5741767,-2879259.95982 6185.83243438,-2879397.60119 6546.88111026,-2879544.90044 6602.26811149,-2879934.43949 6694.64831356,-2880222.71637 6888.50745411,-2880476.2434 7109.57875046,-2880590.58587 7214.78228293,-2880619.8003 7287.60585721,-2880698.24897 7403.75208669,-2880820.86992 7517.68004585,-2881014.99797 7631.71103826,-2881256.61892 7680.72485279,-2881360.24106 7708.15453199,-2881418.52954 7913.35323632,-2881852.44717 7951.95555777,-2881934.14942 8108.43433282,-2882169.45495 8165.09459127,-2882326.51286 8265.53109701,-2882723.21332 8362.29937768,-2883029.95278 8450.7396177,-2883998.16534 8576.51601812,-2884239.19715 8904.52484262,-2884380.73747 9118.64450037,-2884535.12326 9425.1436487,-2884607.83267 9406.71416063,-2884952.92248 9559.25202134,-2885296.73996 9990.96189792,-2885534.49381 9938.19752139,-2885833.84495 9987.09601079,-2886358.40788 9734.04368584,-2886615.25638 9709.97987999,-2887143.36225 9890.71506962,-2887513.96447 9923.39004801,-2887873.67083 10276.5574165,-2888037.01685 10243.914515,-2888621.17777 9917.10811626,-2889043.55386 9920.12576452,-2889448.47458 9787.72313483,-2889794.41308 9895.05025198,-2890108.56884 10181.335912,-2890286.40922 10790.1857203,-2890277.87077 10971.9006481,-2890645.46313 11072.4224755,-2891119.64529 10995.6819411,-2891555.155 11151.7695521,-2891703.96918 11571.573467,-2891685.84016 12178.5318727,-2891960.27206 12414.6101464,-2892142.98381 12550.6268864,-2892248.45337 12756.0318947,-2892574.8722 12720.1546553,-2892724.6176 12706.6683656,-2892927.18806 12975.3222708,-2892886.18928 13230.5234468,-2892918.27996 13454.2461391,-2892751.63557 13671.8425789,-2892969.9787 14028.0444196,-2893272.27427 14403.4136978,-2893329.4639 14449.8591932,-2893524.08727 14421.7682461,-2893779.25764 15154.7185776,-2894055.74312 15311.5070327,-2894432.51358 15492.4763867,-2894566.14134 15449.9492966,-2894896.40697 15676.9169855,-2895164.66965 15717.8962333,-2895698.27924 15922.9073397,-2896105.6831 16254.1871875,-2896150.20092 16297.8919952,-2896780.77353 16700.1424701,-2896956.73911 16967.6624507,-2897299.68423 17326.7125516,-2897447.97631 17824.1563582,-2897518.2464 18122.9693411,-2897366.03792 18393.5805475,-2897320.02286 18655.2431724,-2897381.0569 18995.0174155,-2897659.47047 19324.0140434,-2897933.96472 19613.9147185,-2898194.75309 20037.224347,-2898379.55644 20425.9731992,-2898488.63083 20765.9683943,-2898362.11039 21101.7154815,-2898603.55783 21238.1420404,-2898797.50375 21317.1128555,-2899062.86671 21497.903246,-2899306.47175 21633.5471163,-2899529.41788 21887.7027469,-2899422.53552 22082.3208444,-2899376.08795 22307.492599,-2899404.39858 22578.2144406,-2899507.35509 22878.592521,-2899565.09772 23194.7519632,-2899727.70323 23584.2107495,-2899664.80107 23872.1369277,-2899795.62318 24110.7680182,-2899885.82134 24289.715298,-2899749.50763 24573.3007762,-2899567.41977 24932.7652162,-2899504.74244 25308.4347372,-2899469.93881 25503.9726963,-2899680.43659 25819.5687423,-2899768.0591 26150.4973279,-2899900.55822 26388.373779,-2900023.75504 26524.4822448,-2900442.65662 26874.2459812,-2900420.04362 27397.7689552,-2900236.1617 27867.0603595,-2900153.66635 28115.364504,-2900601.72058 28557.4151865,-2900887.356 29082.1694222,-2900868.43224 29290.8814327,-2900701.90345 29589.1215073,-2900474.7171 29766.7192821,-2900158.45182 30034.8946118,-2900055.46614 30351.1194733,-2900094.09236 30664.3551033,-2899866.79522 30965.5107449,-2900029.50883 31013.5279025,-2900434.06645 31269.0221054,-2900507.13952 31609.780404,-2900350.62204 31820.5105678,-2900053.10714 32271.0644798,-2900139.7181 32510.8884959,-2900122.92729 32778.9096363,-2899865.97628 33200.4750962,-2899819.83237 33585.6641517,-2899455.02888 34398.339101,-2899434.95478 34829.3165601,-2899310.75839 35142.7725133,-2899113.45727 35534.018009,-2899291.49218 35863.0222096,-2899168.05894 36343.5614478,-2899254.44598 36734.7979414,-2899431.48031 37058.8226821,-2899177.11421 37394.580626,-2898753.69926 37791.0899097,-2898298.8383 37975.9133644,-2898213.97608 38089.9960243,-2898161.6353 38276.6425411,-2897986.28041 38565.4890703,-2897573.21675 38817.4296577,-2897305.39603 39087.4257424,-2897179.40795 39325.564449,-2896937.68508 39293.5572593,-2896667.98701 39382.7393304,-2896427.37698 39636.2179687,-2896365.49831 39830.0417707,-2896214.08629 40047.4217715,-2895937.02816 40095.3735944,-2895597.25015 40122.2312201,-2895177.14862 40285.997129,-2894882.99569 40660.506926,-2894963.18163 41063.9334761,-2894765.21798 41346.1645817,-2894403.19859 41372.4644599,-2893975.10499 41611.6669321,-2893808.86058 42151.2829167,-2893774.84377 42419.6928196,-2893570.39147 42355.2947841,-2892978.5156 42417.9231929,-2892796.59287 42616.8780037,-2892864.09312 42840.189952,-2892644.9818 43025.9014474,-2892411.1547 42953.9524463,-2891811.83775 42899.6808397,-2891572.30076 43086.956989,-2891548.41123 43223.7595518,-2891794.83139 43343.8909605,-2891816.43089 43432.7467027,-2891665.80589 43431.2945897,-2891470.86475 43204.4636662,-2891217.61694 43216.8614229,-2891070.06081 43299.3099851,-2890864.49717 43372.8916578,-2890676.49536 43560.0001459,-2890630.11328 43753.3781858,-2890418.72539 43916.9886253,-2890237.55194 44058.1059359,-2890056.54613 44192.2278269,-2889943.07578 44386.9452681,-2889911.63399 44483.8575223,-2889835.93142 44437.7552505,-2889686.31195 44287.354546,-2889627.44616 44085.4182538,-2889696.43219 43987.8362304,-2889682.16212 43948.8411009,-2889480.00247 44157.5500137,-2889313.49037 44193.978685,-2889170.75471 43973.9787517,-2888827.47696 44049.4516498,-2888691.94896 44420.5737421,-2888855.14704 44755.7123124,-2888616.21316 44932.7940985,-2888700.37459 45186.9351661,-2888593.51067 45382.7674996,-2888712.02383 45580.5057241,-2888683.55987 45942.9748041,-2888422.92953 46183.2906881,-2888473.62894 46454.4892108,-2888644.06785 46679.3632389,-2888634.89729 46986.0421034,-2888535.1416 47276.4430772,-2888263.05194 47478.8235716,-2888254.04904 47597.4023162,-2888235.17202 47696.1991782,-2888244.93467 47811.0512795,-2888094.61972 48046.9709551,-2888024.88349 48447.1049737,-2887384.57654 48669.2310852,-2887409.41869 48925.558743,-2887193.57034 49353.7456982,-2886964.94851 49677.1980193,-2886499.1692 49743.163787,-2886227.75171 49769.2565396,-2885702.69838 49961.8555545,-2885386.35272 50249.8510057,-2885800.10265 50398.6072483,-2885638.0415 50575.4316598,-2885216.84216 50767.9195316,-2884885.50269 50930.3062531,-2884539.39111 51179.2215218,-2884267.61753 51345.4963643,-2883906.48204 51508.3290272,-2883620.352 51857.0882806,-2883600.77003 52153.0054658,-2883600.57482 52318.8405822,-2883719.31179 52559.957528,-2884148.40405 52787.3566222,-2884210.69935 52951.8566601,-2884149.49576 53068.9248115,-2883758.73619 53527.6018253,-2883867.303 53849.7752473,-2883902.90283 54211.6556006,-2884170.14236 54601.968181,-2884227.23012 55124.0051831,-2884252.3496 55877.5324778,-2884352.72975 56452.6448716,-2884390.45167 56808.6558292,-2884540.7661 57156.2049486,-2884898.08183 57563.9981928,-2885155.97896 58017.7957692,-2885180.60354 58298.918136,-2885309.47842 58361.1222452,-2885608.92681 58665.9527931,-2886002.54519 58759.1905701,-2886711.63862 59029.3463155,-2886743.6223 59413.5525288,-2886517.8374 59763.0798167,-2886603.21546 59784.9529508,-2886788.99609 59802.5530012,-2886937.81975 60109.9589618,-2886870.557 60396.8002721,-2886827.43974 60544.0906877,-2886805.35258 60797.787852,-2886640.51946 61022.7884663,-2886616.35599 61471.9837271,-2886560.53759 61800.3037724,-2886348.16625 62102.9003419,-2886171.97506 62505.9565721,-2886062.01757 63282.0803226,-2885977.28316 63656.1605636,-2885869.54105 64104.3918294,-2885246.4156 64517.7125133,-2884768.50414 65052.0846112,-2884437.64858 65037.9550684,-2884149.84736 64899.9027202,-2883866.96318 64912.3336328,-2883386.0277 65090.709839,-2883174.77457 65388.9292404,-2882947.63893 65401.036085,-2882557.67689 65246.814186,-2882250.91956 65277.1959221,-2882033.76544 65533.5730008,-2881825.9348 65978.9293653,-2881623.70355 66116.4722757,-2881162.83711 66107.9969056,-2880828.01014 66323.583827,-2880511.51916 66403.223409,-2880196.03409 66807.708537,-2879874.1486 66998.6680911,-2879606.82508 67177.6008249,-2879470.54725 67529.2129503,-2879433.95954 67774.8187188,-2879121.24841 67862.9000137,-2878865.68302 67831.9135062,-2878595.50265 67962.9851175,-2878205.16501 67960.4381024,-2877860.29951 67913.241232,-2877560.74853 68032.640947,-2877484.89209 68242.5590037,-2877483.34223 68466.8256414,-2877529.67029 68586.7598066,-2877390.8314 68659.4060537,-2877075.40149 68956.9643747,-2876758.31194 68969.5244059,-2876428.33101 69411.7312768,-2876070.18921 69444.5793397,-2875780.04558 69290.3217273,-2875331.33597 69665.7312612,-2875268.58843 69965.50201,-2875251.38343 70281.4824238,-2875399.00237 70763.4157863,-2875039.57212 71110.046769,-2875310.92209 71206.0684933,-2875386.18782 71662.3665595,-2875583.75372 71900.3756845,-2875325.08898 72002.3640302,-2874921.47844 72270.0448322,-2874619.61117 72299.6241124,-2874326.49617 72307.3147961,-2874250.96604 72491.3119348,-2874123.65496 72972.7694963,-2874344.52913 73136.0490616,-2874118.90598 73148.8343716,-2873818.91821 72772.3311261,-2873596.77032 72766.4841347,-2873209.94985 73209.9928716,-2873436.10351 73311.3379444,-2873487.83871 73519.3923983,-2873063.95721 73547.707557,-2873006.26925 73875.3651209,-2872703.9647 74264.9838311,-2872671.10835 74744.1221865,-2872305.71323 75070.8977885,-2872155.36289 75402.7456278,-2872422.82392 75879.8979597,-2872059.44533 76131.5056414,-2872120.57181 76142.3104694,-2872366.40221 76394.9775029,-2872775.39253 76672.2973758,-2873376.12953 77236.8277371,-2873069.08755 77863.6906953,-2872674.6213 78369.9431205,-2872191.07818 78823.9391287,-2872757.52424 79244.6392798,-2872874.38423 79747.8385231,-2872519.81731 80199.5893695,-2872237.60264 80495.3941354,-2871818.58867 80932.2457965,-2871821.37559 81400.1623562,-2872378.71809 81655.8206267,-2872481.79752 81879.9487977,-2872375.1909 81923.1653179,-2872134.96731 81870.829448,-2871814.47771 82054.3587477,-2871624.20314 82341.3768892,-2871744.04619 82567.7665202,-2872115.23541 82852.5282134,-2872098.14848 82998.8168404,-2871737.21617 83418.6353724,-2871599.18536 83794.0161747,-2871671.39761 83648.2707721,-2872242.24054 83575.6190639,-2872557.64858 83771.6326511,-2872706.1476 84071.8345928,-2872478.03159 84296.1728229,-2872672.30368 84279.3051162,-2873233.20142 84366.0649644,-2874020.74474 84370.8090038,-2874665.44881 84512.0384362,-2875519.06239 84742.5980585,-2875879.21719 85310.5355678,-2876037.96747 85501.3381042,-2876157.51237 85641.9281997,-2876245.44015 86020.0667749,-2876692.46856 86485.7323986,-2876808.98764 87019.1285172,-2877299.85026 87192.0568275,-2877028.689 87371.1981608,-2876922.41306 87661.3436031,-2876687.3734 87864.9685918,-2876783.83192 88016.9958968,-2877067.59128 88468.9901684,-2877364.13315 88924.9873717,-2877559.68755 89267.3642766,-2877868.0306 89764.9978978,-2878254.19386 90181.3195718,-2878728.91679 90131.8990446,-2879211.07193 90240.2769374,-2879675.07009 90485.4630786,-2880121.06523 90561.6517315,-2880557.31185 90368.4081116,-2880783.64048 90144.5149321,-2880920.23507 90340.41587,-2881053.72938 90564.9731062,-2881007.09053 90716.2280623,-2881185.89456 91116.4882998,-2881244.91088 91258.840748,-2881571.71479 91094.9193663,-2881707.86639 90888.8857779,-2881826.33728 90782.2907462,-2882010.04462 90882.7540194,-2882349.15274 91086.2426081,-2882562.55389 91387.0913388,-2882695.27017 91420.4425574,-2882879.94177 91178.9691797,-2882936.70295 90981.0138318,-2883066.11034 91227.605802,-2883431.12471 91588.5357573,-2883578.38854 91686.3835732,-2883732.59593 91735.1788661,-2883809.20073 91302.1767418,-2884188.23789 91295.0083016,-2884435.18165 91538.8490552,-2884563.31923 91805.8637593,-2884581.33394 92077.1432297,-2884500.36125 92346.9248995,-2884757.2486 92318.8267962,-2885012.34246 92086.5131411,-2885225.96777 92157.5732132,-2885508.31509 92665.391518,-2885649.48903 92651.0950278,-2886013.43129 92523.0562988,-2886270.26488 92540.9373683,-2886659.95718 92414.8613578,-2886911.77895 92544.9382036,-2887199.68483 93261.510445,-2887455.25405 93434.2702229,-2887837.79874 93528.0055816,-2888346.87171 93485.6983387,-2888707.02198 93474.8569179,-2888795.06243 93479.1613311,-2888869.99639 93457.9389581,-2889007.09163 93699.3744955,-2889215.20394 93895.8329628,-2889423.64969 93897.6139796,-2889663.52684 93674.6216945,-2889920.0664 93829.8445363,-2890127.8182 93886.6299581,-2890203.36169 93839.9095945,-2890473.58541 93665.7547941,-2890744.75612 93401.9406717,-2890551.80509 93282.5587804,-2890627.658 93171.5096365,-2890782.41325 93135.5317723,-2891018.57357 92978.8371336,-2891083.70915 92872.7762066,-2890934.56528 92744.3927873,-2890841.56184 92609.5184983,-2890917.53031 92513.7385551,-2891042.18625 92552.7229803,-2891277.79011 92733.2985745,-2891433.3769 92772.5100258,-2891565.02574 92660.9021585,-2891711.78961 92467.6080086,-2891862.15971 92393.3800466,-2892028.63695 92619.8272629,-2892236.85807 92845.0476825,-2892280.16253 93108.5211361,-2892158.25724 93309.9225724,-2892291.69794 93281.6107033,-2892516.80624 93328.1492788,-2892726.36451 93554.8192048,-2892964.56862 93812.254819,-2893307.49522 94055.5912488,-2893770.4709 94401.4182234,-2893902.8341 94358.4508583,-2894173.02979 94409.1366269,-2894469.5156 94931.1709588,-2894573.57739 94858.3317901,-2894858.98809 94662.9859672,-2894800.47113 94498.4063085,-2894846.67647 94530.0663306,-2895071.33686 94472.2199917,-2895356.63653 94235.3266736,-2895423.3721 94096.2960353,-2895209.50699 93901.619724,-2895240.94395 93933.3920275,-2895480.59719 94159.2819997,-2895613.85157 94295.4417452,-2895777.76075 94281.5671432,-2895927.79517 94162.9703245,-2896108.59663 94151.9585648,-2896575.46416 94347.2379573,-2896691.95335 94616.6511507,-2896629.97152 94960.9132917,-2896552.43856 95193.2467202,-2896812.58407 94979.9315419,-2897092.04641 94922.9831391,-2897497.28364 94967.3858486,-2897888.77055 94688.1434385,-2898173.72418 94520.6528469,-2898432.35585 94317.591609,-2898746.22826 93676.6194266,-2899245.78917 93344.2563503,-2899645.09137 93397.2554459,-2899982.54111 93444.0255899,-2900222.08196 93235.8144328,-2900448.53609 93343.4514145,-2900807.56713 93623.5482128,-2900904.42706 93945.0497094,-2901057.95088 94245.7922367,-2901175.64609 94467.5391295,-2901355.90333 94772.875943,-2901486.55743 94851.8759203,-2902025.71621 95122.9699471,-2902188.61053 95334.7684714,-2902441.90641 95748.4401785,-2903024.53543 95805.5879908,-2903248.00263 95656.7895627,-2903399.04715 95087.0869707,-2903403.31495 94780.3906974,-2903491.57269 94580.6092245,-2903841.9082 94699.6961382,-2904060.9141 95188.7384532,-2904230.1686 95424.4422163,-2904405.31947 95623.1848408,-2904716.68354 95832.3775448,-2904822.06503 95995.8297331,-2904625.93082 96053.2133418,-2904280.66239 96196.3339506,-2904105.67134 96397.0205771,-2904143.1489 96562.6077996,-2904231.86542 96579.1731798,-2904441.64224 96445.1434897,-2904562.59047 96627.0718314,-2904831.0992 96898.5030321,-2905038.96461 96961.8644635,-2905324.35408 96991.6038384,-2905458.06757 96722.196515,-2905520.06016 96543.1912881,-2905641.34643 96454.9259637,-2905866.90269 96575.7626394,-2905985.93946 96785.8767338,-2906014.34862 97208.4342542,-2906315.03351 97239.3514785,-2906505.71083 97105.6610676,-2906671.63618 96820.58687,-2906643.79047 96550.0542006,-2906555.86379 96233.5321307,-2906333.34547 96023.8675185,-2906364.90505 95980.0164479,-2906515.16392 96146.0552304,-2906663.84719 96298.340096,-2906977.55595 96493.4625357,-2907006.07671 96702.6763063,-2906914.54823 96898.3612102,-2907018.0293 96975.9110083,-2907362.28375 97115.0047502,-2907583.13389 97382.6105175,-2907614.10803 97532.8686041,-2907657.9579 97529.5552704,-2907848.89192 97671.6264899,-2908166.67255 97545.0956933,-2908287.56628 97319.8773157,-2908244.2802 97193.2900044,-2908357.67817 97276.9856891,-2908521.97087 97226.7674654,-2908822.20608 97138.9568209,-2909107.73122 97304.4894466,-2909321.88432 97493.017059,-2909337.45847 97632.341152,-2908924.10707 97910.9331093,-2909086.93375 97875.595141,-2909372.06345 97683.0106811,-2909680.86535 97620.4862095,-2910205.08632 97433.2221311,-2910357.4237 97327.149764,-2910208.29308 96890.8010496,-2910001.67557 96666.483883,-2910078.32787 96581.8569729,-2910321.8502 96711.0267171,-2910485.30067 96890.105154,-2910506.9421 96987.8615402,-2910945.49869 96869.5051701,-2911156.29058 96661.7609046,-2911442.72051 96513.5335482,-2911668.73096 96595.4289848,-2911859.02431 96784.0686588,-2911756.65099 97378.9070682,-2911706.19245 97666.2117656,-2911897.43646 97958.0782931,-2912362.51487 98198.5149323,-2912435.66726 98770.7907939,-2912442.34948 98799.7749238,-2912641.03534 98681.308389,-2912836.83452 98441.6631651,-2912868.62652 98488.1082257,-2913063.18295 98699.8040229,-2913301.47173 99130.3514735,-2913997.88775 99456.184294,-2914195.33304 99744.9198168,-2914510.00084 99789.9651145,-2914717.55998 99685.6501994,-2915000.21059 99704.7670749,-2915347.89762 99901.8122819,-2915631.27146 100188.46305,-2915802.02248 100386.080934,-2916227.32163 100380.015302,-2917077.95259 100514.173369,-2917305.82672 100785.272889,-2917468.69638 101056.485578,-2917646.55737 101167.050164,-2917926.58328 101555.863159,-2918257.47781 101970.013812,-2918238.35246 102245.709383,-2918282.24384 102498.537129,-2918474.23448 102579.156728,-2918759.4821 102581.766665,-2919104.29068 102764.785126,-2919316.79856 103003.235713,-2919325.98769 103272.177164,-2919204.01152 103539.983437,-2918932.11961 103689.218569,-2918841.03524 103907.126125,-2918909.35055 103990.979473,-2919093.62245 103956.872651,-2919308.27247 104085.242541,-2919662.62101 104163.266341,-2920066.82552 104165.045743,-2920301.69337 104165.537967,-2920366.65682 104330.718168,-2920599.2869 104391.112526,-2920721.26723 104754.374423,-2920977.88231 104967.702923,-2921365.06734 105154.706833,-2921839.40694 105109.107758,-2922218.55994 104977.710601,-2922684.32062 104830.753838,-2923075.23817 104718.397412,-2923349.95236 104805.209935,-2923660.13569 105003.17416,-2924063.42684 105037.504589,-2924306.54252 105072.373011,-2924554.65151 104997.980452,-2925352.81244 104791.062588,-2925744.1885 104560.548449,-2926252.68598 104531.82167,-2927140.45756 104220.992559,-2927667.56024 104017.846405,-2928553.66465 104258.745811,-2929146.53153 104084.174325,-2929584.64383 103929.726978,-2930433.39889 103971.564054,-2930938.82786 104205.505441,-2931535.74411 104194.061986,-2932000.59982 103999.363729,-2932256.46005 100996.148847,-2931413.81033 98905.2057782,-2939848.81683 84584.0941228,-2937330.12969 84449.8665122,-2937260.68415 81369.3391177,-2936739.44368 81511.9593127,-2934438.74416 77851.0296453,-2933806.92033 74823.416996,-2918863.45185 72622.9381406,-2918429.74409 66886.4884847,-2917279.47962 66313.3105815,-2917164.34598 63301.4935512,-2917985.32156 61670.1191834,-2918430.00264 57496.0162704,-2919637.67064 53816.2762546,-2918438.81323 53370.767133,-2918619.6262 52385.2486107,-2919110.43166 51217.9125665,-2918030.04259 50205.6486347,-2922392.51181 49545.6054494,-2925237.25243 48756.2479922,-2928724.82579 48737.3622541,-2928969.90577 46694.0975059,-2928372.05724 43677.7934447,-2927475.64488 40317.1117188,-2926489.33691 38579.6542213,-2925914.62259 36891.5536107,-2925356.52272 36657.7383744,-2925440.2738 33265.0903452,-2926713.18173 33151.6615137,-2926752.53227 30953.5475488,-2927405.54068 30125.169188,-2927598.27413 27139.1282969,-2928607.6907 25922.5813408,-2928968.33662 24514.4418905,-2929312.93805 22304.4359931,-2929856.0796 20991.8536005,-2929519.07428 19787.1758478,-2930229.07943 17758.470625,-2930621.87842 15391.2960543,-2930980.74698 14941.4450204,-2930958.65602 14567.358344,-2930939.9908 14160.3545245,-2930799.59222 14009.0227302,-2930620.76352 13776.3803204,-2930597.52774 13542.7541997,-2930444.31791 13257.6976582,-2930431.47711 13099.7174897,-2930464.16807 12883.7752332,-2930500.79715 12533.5296226,-2930560.93935 12358.1029319,-2930468.2799 12235.7437156,-2930154.24964 12039.1936555,-2929945.76584 11769.2465564,-2929947.80792 11678.356588,-2929828.51205 11534.9546015,-2929673.61828 11288.4325742,-2929831.4615 10985.9953007,-2929503.79413 10715.820652,-2929475.84149 10511.8621682,-2929312.40628 10040.9502612,-2929480.94519 9772.47613728,-2929677.94948 9371.0198816,-2929841.96426 9039.65672548,-2929953.45599 8799.70178419,-2929955.27073 8574.29021801,-2929896.98323 8364.78305618,-2929958.55985 8124.97874011,-2929715.90478 7853.97041956,-2929842.43811 7852.72298375,-2929677.46864 7687.41328757,-2929633.72434 7568.70596248,-2929769.60474 7433.39061278,-2929725.63362 7372.3810897,-2929591.11202 7102.31723429,-2929578.1558 6951.77774011,-2929504.30339 6761.00333273,-2929663.226 6607.18077918,-2929551.90302 6339.04394082,-2929793.90044 6259.6674333,-2929841.99472 6189.99379356,-2929884.01638 6093.69213704,-2929941.73749 6008.76335135,-2929751.4031 5726.0823521,-2930053.50362 5457.60478267,-2930250.50991 5169.79306518,-2930469.16006 4989.39120177,-2930347.03901 4814.05688687,-2930465.35078 4723.27896871,-2930361.04971 4542.97048675,-2930317.41838 4362.21971795,-2930215.29726 4092.48244555,-2930245.83324 3853.54480546,-2930382.6239 3597.11512895,-2930189.58534 3335.55578178,-2930343.04516 3224.67444852,-2930522.36286 2864.39618641,-2930480.09187 2641.70245673,-2930781.74136 2431.05791569,-2930693.34417 2326.86949926,-2930799.12004 2291.57815709,-2930925.37267 2378.02335578,-2931349.17123 2181.77123005,-2931445.14471 2075.99509665,-2931340.95634 1926.0204059,-2931342.09042 1717.64347524,-2931553.64284 1386.90487708,-2931451.15544 1282.71625942,-2931556.93177 997.763686973,-2931559.08651 623.846427929,-2931696.89934 474.55160144,-2931788.01859 159.716730463,-2931805.39771 40.4168135335,-2931896.29024 -250.724273029,-2931840.49791 -587.439369728,-2932171.00961 -667.547611443,-2932453.08605 -1394.58733003,-2932537.07624 -1663.29676333,-2932704.09155 -1858.83295742,-2932630.57789 -2173.78322772,-2932632.9596 -2502.82409027,-2932755.43586 -2726.54134828,-2932922.11132 -3101.59645259,-2932909.94905 -3965.88014637,-2932927.48353 -4570.12370376,-2933086.03786 -5084.51538785,-2933060.93001 -5321.93847412,-2932836.74608 -5413.7391207,-2932597.46234 -5551.21308756,-2932268.5321 -5777.4264311,-2932105.25719 -6003.23885859,-2931763.49544 -6440.2753684,-2931720.30243 -6733.23649433,-2931556.53127 -6848.50206627,-2931288.4265 -7010.80517658,-2930981.68052 -7286.72407859,-2930856.77638 -7541.91336382,-2930828.70681 -7892.98846754,-2930715.36907 -8353.26852987,-2930639.85267 -8712.53705982,-2930732.55845 -9086.41636886,-2930777.37877 -9373.00926386,-2930662.5533 -9614.67423816,-2930439.39747 -9849.28971691,-2930322.17923 -10053.3577663,-2930410.21299 -10591.009514,-2930251.78637 -10937.2071556,-2930089.4139 -11329.3045237,-2929807.39737 -11451.5523231,-2929508.34457 -11409.5019238,-2929118.05887 -11561.7450749,-2928819.23233 -11564.0087643,-2928519.27384 -11744.8892902,-2928400.64855 -12061.203916,-2928223.04993 -12316.8478904,-2928134.98605 -12592.0338573,-2928140.56204 -13029.1726399,-2928183.85701 -13381.1374452,-2928218.01 -13650.8748629,-2928250.04272 -14003.7572862,-2928063.21949 -14119.0938519,-2927818.60832 -14420.7508764,-2927595.90085 -14665.9801519,-2927496.75812 -14771.794244,-2927454.05947 -14773.6964164,-2927036.10534 -14564.623636,-2926650.05791 -14831.4470648,-2926306.09609 -15100.9924903,-2925733.67168 -15386.8793737,-2925347.8559 -15713.5360357,-2925224.32739 -15752.6602205,-2925141.12849 -15841.0654753,-2924953.80876 -16138.4541653,-2924567.57867 -16477.4276866,-2924634.12822 -16693.3415292,-2924510.7643 -16902.7664982,-2924452.34664 -16994.958022,-2924426.04322 -17137.1995529,-2924027.64378 -17205.4615431,-2923892.66782 -17266.6189486,-2923771.6373 -17364.779568,-2923749.37841 -17674.922893,-2923694.2188 -18093.0616504,-2923937.35159 -18468.1635464,-2923455.711 -18259.974609,-2922785.69003 -18224.7042998,-2922655.93358 -18190.3705872,-2922468.18832 -18151.7143094,-2922256.91222 -17985.7934333,-2922115.17294 -17282.1214519,-2921513.91816 -16916.5944944,-2920823.71722 -16634.2804961,-2920536.11356 -16524.201815,-2920182.31159 -16189.4800663,-2919783.32263 -16191.8988185,-2919162.88819 -16167.5006236,-2918584.7489 -15599.9748294,-2918162.01206 -15783.1125439,-2917942.40683 -16027.4130346,-2917733.76063 -16070.2946301,-2917682.58713 -16267.9756243,-2917324.10158 -16510.1992869,-2917025.94609 -16724.1520567,-2917030.05471 -16813.2023503,-2916590.25781 -17142.3124188,-2916040.27393 -17500.9658075,-2915783.48944 -17649.2543609,-2915677.11209 -17818.8826309,-2915724.88362 -17917.6027352,-2915694.62794 -18097.7218774,-2915610.48808 -18431.676717,-2915081.03703 -18504.64646,-2915051.08763 -18929.0815445,-2914889.2891 -19224.6809721,-2914540.53553 -18569.7995452,-2914597.61041 -17572.2159632,-2914685.10739 -17296.3482947,-2914703.53286 -17003.6879204,-2914727.83164 -16192.7759651,-2914824.22989 -16117.9646325,-2914833.16694 -15943.7235787,-2914101.91485 -16023.4846348,-2913966.52482 -16098.0209747,-2913861.09314 -16628.8901276,-2913107.64017 -16666.3620774,-2913044.42656 -16843.8566334,-2912743.78303 -16926.3723818,-2912574.41586 -16942.3137471,-2912349.05295 -17025.4900896,-2912091.69741 -17255.5551203,-2911880.94125 -17378.0284576,-2911783.36837 -17135.3965143,-2911370.57814 -17121.8540286,-2911276.48369 -17200.6369675,-2910971.5986 -17029.2868198,-2910453.85217 -17404.087531,-2909843.71224 -17440.5770274,-2908978.55234 -17426.0441218,-2908916.44806 -17170.837242,-2907713.62615 -17970.1456272,-2906997.67572 -18324.6700378,-2906890.84237 -18925.7279303,-2906410.38512 -18957.4934152,-2906274.63332 -18954.3020676,-2905766.64692 -18952.6837153,-2905515.65334 -19124.5421897,-2905165.96733 -19210.2639431,-2905002.12187 -19499.1292516,-2904416.82956 -19371.7904857,-2903562.43779 -19375.0430941,-2903061.49879 -18951.4904648,-2902204.88928 -18938.0576133,-2902129.29427 -18919.7215797,-2901940.67091 -18523.1116313,-2901391.74183 -18233.144621,-2901290.07831 -17870.455538,-2901051.8808 -17307.8711487,-2900668.19838 -17295.2493926,-2900517.61553 -17271.1036749,-2900336.94875 -16850.0454612,-2900282.30119 -16664.6690441,-2900033.93309 -16807.2481918,-2899621.03258 -16887.2273045,-2899389.14924 -17021.8614292,-2898467.72838 -17373.6963832,-2897984.89781 -17610.7757339,-2897838.18254 -17570.0345298,-2897636.89316 -17437.0703571,-2896964.9501 -17556.4207604,-2896682.8642 -17654.9036854,-2896450.11837 -17734.2919425,-2895661.77179 -17799.1195767,-2895015.3053 -17809.6566979,-2894909.89202 -17903.3154892,-2894620.11387 -17896.7249288,-2894063.60645 -17894.7641033,-2893891.10475 -18306.6607126,-2892629.2761 -18470.1426489,-2892128.03416 -18476.8592772,-2891931.59874 -18745.0583411,-2891467.13561 -18875.7388404,-2891575.60363 -18939.0518218,-2891533.07952 -19099.3822747,-2891487.28015 -19164.5601669,-2891563.26142 -19506.0467266,-2891528.31414 -19717.3113426,-2891457.39689 -19854.9770542,-2891400.42898 -19925.3752923,-2891312.96086 -19971.2466027,-2891262.80693 -20080.1252088,-2891144.1283 -20138.0808719,-2891082.56537 -20214.9372329,-2891000.64499 -20379.8640439,-2891075.87131 -20440.6031268,-2890976.33176 -20516.0195653,-2890852.90343 -20615.3542502,-2890840.646 -20709.6709128,-2890830.85093 -20920.6332667,-2890900.92141 -20912.0564466,-2890777.36579 -20947.3882968,-2890665.63722 -21058.2107952,-2890554.47224 -21161.8845355,-2890563.7457 -21249.5714643,-2890571.3999 -21423.7254965,-2890549.20174 -21500.301957,-2890538.27424 -21634.1811407,-2890519.7751 -21730.6770331,-2890452.50008 -21898.5375343,-2890335.76114 -22105.5234475,-2890369.30437 -22455.4852424,-2890237.42595 -22703.1347991,-2890148.28075 -22847.1179141,-2890015.3643 -23070.3744858,-2890113.02493 -23185.4543784,-2890000.89128 -23332.4068076,-2890072.98389 -23457.209576,-2889930.92466 -23555.5224733,-2889955.15715 -23669.303693,-2889983.50488 -23713.9490349,-2889461.37081 -23744.531474,-2889349.60607 -23789.5525893,-2889178.95276 -23823.5937668,-2888871.72591 -23779.185024,-2888591.91176 -23885.1390673,-2888362.7167 -23933.3571167,-2887864.10719 -23951.8546188,-2887562.76368 -23898.7262095,-2887379.37849 -23958.2005511,-2887348.82411 -24127.2627919,-2887272.09021 -23961.5430906,-2887168.86004 -23644.7325775,-2886945.01012 -23181.819013,-2886468.08634 -22871.8778691,-2886429.27683 -22767.0369966,-2885872.52982 -22599.7796361,-2885673.79495 -22485.6946638,-2885417.96031 -22432.7786108,-2885306.57276 -22239.7366274,-2885079.14773 -21807.7984261,-2884940.43604 -21664.412539,-2884926.36789 -21595.4692791,-2884919.35433 -21620.2892993,-2884708.55298 -21801.6759416,-2884453.92159 -21687.1466337,-2884224.08254 -21423.1273805,-2883960.63148 -21306.7738903,-2883774.27628 -21274.1877078,-2883719.03698 -20780.2533862,-2883580.36477 -20873.8565004,-2883465.0699 -21095.6244551,-2883460.72291 -21166.2914278,-2883471.24888 -21214.9301834,-2883385.11694 -21232.706405,-2883247.25832 -21233.4142255,-2883152.26972 -21197.9549867,-2883080.01015 -21092.4802375,-2882876.23735 -20827.9591407,-2882512.28999 -20569.7418729,-2882342.37727 -20466.560355,-2882065.6267 -20670.2373454,-2882073.64347 -20765.9972495,-2882004.36134 -20831.5931908,-2881957.35305 -20746.7123199,-2881740.73477 -20525.0163844,-2881567.59465 -20609.6724763,-2881210.24838 -20590.5758887,-2881089.11399 -20567.4122067,-2880943.4509 -20381.0851137,-2880787.5734 -20234.1426775,-2880713.98395 -20116.5329045,-2880662.61151 -19972.7516416,-2880433.05591 -20083.3845134,-2879843.41812 -19773.4360087,-2879402.6395 -19780.8330929,-2879147.71121 -19786.1609578,-2878969.26249 -19754.9201174,-2878867.53659 -19719.7764703,-2878752.7825 -19436.0377035,-2878720.17295 -19321.9742686,-2878595.33229 -19272.8485684,-2878545.46999 -18991.3560035,-2878513.37735 -18899.6834552,-2878302.20922 -18825.9201016,-2878136.67136 -18676.5781618,-2878049.56599 -18425.7934226,-2878123.69508 -17915.0215587,-2878164.892 -17670.999544,-2878002.08767 -17482.7301543,-2877771.20297 -17420.5565481,-2877526.25739 -17142.435167,-2877108.21764 -16971.9374103,-2876806.97053 -16984.0282182,-2876492.08229 -17133.5329797,-2876254.71038 -17111.0441354,-2876018.05943 -16859.5669052,-2875849.20134 -16537.0828786,-2875782.80844 -16244.3998321,-2875541.14954 -16227.403408,-2875339.03737 -16294.4460368,-2875299.03851 -16372.1765319,-2875099.13022 -16494.8037449,-2874879.05693 -16588.8531627,-2874804.26111 -16695.2365342,-2874718.05771 -16685.096193,-2874367.00641 -16694.7271304,-2874181.09069 -16707.1804093,-2874052.69199 -16831.7109707,-2873744.63825 -16628.0357305,-2873332.65289 -16399.4321266,-2873079.47181 -16151.0562009,-2872762.14848 -16028.4640029,-2872472.75774 -15913.8396325,-2872355.91444 -15809.8859471,-2872249.64971 -15886.1017703,-2872085.22699 -15901.4154346,-2871941.85051 -15746.6139588,-2871849.20734 -15616.4579337,-2871736.7486 -15379.6874623,-2871506.00651 -15349.2325086,-2871129.80634 -15394.6351592,-2871075.14715 -15451.1366506,-2871007.07126 -15478.112825,-2870774.28743 -15385.8441821,-2870676.60921 -15321.3531413,-2870608.63516 -15144.4836116,-2870525.32808 -14940.7625928,-2870523.31617 -14554.7840255,-2870961.92068 -14529.2319144,-2871070.22338 -14405.8179411,-2871059.80803 -14331.8829173,-2871051.7598 -14146.9648331,-2870840.40227 -13908.2899746,-2870933.62414 -13729.1090541,-2871060.78507 -13578.9055479,-2871089.66813 -13368.9323945,-2871088.1098 -13340.6058006,-2870862.916 -13259.0206843,-2870807.81454 -13115.9457547,-2870718.2593 -12646.621791,-2870800.27043 -12365.7580875,-2870953.17474 -12186.359383,-2870941.34433 -12008.7068066,-2870930.02688 -11645.8665712,-2870844.84096 -11421.3005401,-2870788.679 -11140.6419359,-2870577.113 -11083.8000695,-2870522.69551 -10791.2327156,-2870231.54774 -10392.6667051,-2869907.61672 -10278.8622424,-2869612.79585 -10157.3620845,-2869580.39733 -10014.2255441,-2869600.33424 -9833.71377034,-2869704.98723 -9727.57235474,-2869725.19846 -9611.96456483,-2869639.84796 -9443.35122319,-2869522.10704 -9353.28445263,-2869430.94651 -9160.08663114,-2869426.01434 -9083.60815817,-2869423.94743 -8816.95058972,-2869346.97652 -8688.03615224,-2869438.01322 -8630.21438376,-2869718.06143 -8446.09836898,-2869803.18913 -8346.77310417,-2869814.45168 -8022.40025945,-2869969.53342" style="stroke-linejoin:round;stroke:#000;stroke-width:1px;fill:none" /></g></g></svg>