<svg xmlns="http://www.w3.org/2000/svg" baseProfile="full" height="191171.901281" version="1.1" viewBox="-7888.648538,2556608.258073,173834.523060,191171.901281" width="173834.52306"><defs><style type="text/css">polyline,line,rect,path,polygon,.polygon{fill:none;stroke:#000;stroke-width:1px;stroke-linejoin:round;}</style></defs><g fill_rule="evenodd" transform="scale(1,-1)"><g class="hogares departamen mujeres departam_1 toponimo_i tot_pob varones viv_part viv_part_h" id="66126"><polygon class="_66126" id="None" points="44232.592392,-2578540.08299 46627.2223349,-2577538.96498 48397.158571,-2576594.0011 49145.9959546,-2575699.80857 49419.4951734,-2575373.0959 49924.2053438,-2574749.44339 50905.3691053,-2573536.82106 52038.2976138,-2570630.73062 52145.5611083,-2567607.9508 52177.841959,-2565641.83241 52161.2015998,-2563113.19467 52204.0245275,-2560463.68738 53004.725726,-2559234.78713 54773.8939365,-2556706.92552 54832.4008053,-2556901.48577 54950.0634572,-2557160.63958 55124.5131475,-2557008.04194 55329.8328518,-2556989.703 55499.2888559,-2556990.59332 55591.7001424,-2557133.94606 55461.7921211,-2557371.22664 55577.797049,-2557529.92008 55742.7411181,-2557528.84027 56058.2476526,-2557467.79252 56256.8808544,-2557458.99467 56371.5203906,-2557523.7248 56491.6868342,-2557707.38306 56579.5869006,-2557925.24209 56571.7785892,-2558183.21556 56452.998022,-2558363.93907 56440.8817881,-2558536.46643 56557.2454034,-2558673.66272 56746.6316788,-2558855.86683 57011.6248822,-2558867.12743 57690.4081423,-2558751.21703 57961.4371154,-2558882.90162 58044.6975861,-2559079.2957 57995.8035989,-2559398.51718 57586.7400693,-2559751.08825 57338.2546618,-2560008.63727 57274.8965037,-2560217.98799 57319.6236561,-2560369.14808 57579.0068107,-2560592.37834 57841.0282063,-2560760.60805 58060.1778127,-2560870.13698 58373.9305698,-2560885.57516 58748.5015441,-2560838.13471 58958.3278914,-2560821.76459 59165.1115533,-2560836.90453 59433.672894,-2560821.14953 59693.4304607,-2560949.40636 59980.369889,-2561030.50006 60115.1690785,-2561159.07538 60164.9623526,-2561435.16003 60042.6524705,-2561534.42966 60135.6657465,-2561998.66983 60106.8561561,-2562178.80035 60155.3797323,-2562375.41835 60577.0234504,-2562380.15192 60707.2248372,-2562264.83591 61027.297293,-2562253.7412 61185.1580675,-2562316.68568 61264.1566054,-2562511.10377 61450.8237922,-2562774.79282 61398.4869357,-2563102.02764 61333.7691602,-2563484.82514 60927.470196,-2563837.8738 60922.7013516,-2564063.3304 60735.888102,-2564348.96192 60641.9196516,-2564577.50309 60752.2446936,-2564708.73516 60976.1310359,-2564702.76716 61317.4546248,-2564807.49128 61637.4063663,-2564778.4006 61744.3468771,-2564927.14855 61675.6822945,-2565127.03204 61567.0724788,-2565333.17577 61569.5383304,-2565594.57145 61390.045083,-2565776.68904 61135.4786732,-2565943.80517 61152.450514,-2566130.63078 61213.9051951,-2566355.15124 61124.2405131,-2566515.68636 60975.8683069,-2566641.61912 60568.9855533,-2566790.74384 60135.7823631,-2567193.9574 59593.4604104,-2567231.51223 59468.4805445,-2567532.23443 59484.4217618,-2567866.0183 59670.2596045,-2568078.72411 59814.8890802,-2567953.81408 59999.6743506,-2567968.59307 60115.4659048,-2568056.80142 59952.600279,-2568372.76702 59923.9111274,-2568684.35095 59512.2438154,-2569169.39854 59509.2855416,-2569365.35209 59599.5786791,-2569642.16393 59690.4691068,-2569744.03069 59870.7918403,-2569764.33579 59785.978461,-2570129.7707 59697.4607577,-2570577.702 59713.6938766,-2570803.51819 59564.0478477,-2570849.48917 59550.3576991,-2571009.52503 59610.9084361,-2571134.08336 59710.4051685,-2571290.37396 59511.5837494,-2571534.60195 59412.0212329,-2571823.16033 59296.5734592,-2571900.89551 59136.8544356,-2572048.89898 58913.6537456,-2572044.87325 58913.1995914,-2572203.32243 59050.297574,-2572338.87147 59151.5189015,-2572529.13848 59079.0364493,-2572831.01386 58936.1673112,-2572994.90118 59084.2711499,-2573131.87641 59277.5232485,-2573180.08381 59711.8505212,-2572797.84778 59922.2292843,-2572790.46172 60004.5917872,-2573114.80601 59986.6513177,-2573425.81678 59846.4174342,-2573761.62647 59705.6547657,-2573828.03316 59367.6094478,-2573727.80055 59180.6501067,-2573497.11473 58975.4050205,-2573411.49963 58873.8550587,-2573398.67472 58602.6128288,-2573347.98354 58291.8537533,-2573481.99069 58223.9067668,-2573637.88662 58251.5695412,-2573853.13065 58370.3902347,-2574021.2882 58681.5883917,-2574105.20311 58929.2477,-2574293.50196 59042.4071819,-2574512.67869 59052.1399796,-2574737.5368 58993.6296997,-2574959.84682 59253.2005421,-2575211.04387 59836.998353,-2575324.64486 60069.7241024,-2575598.01061 60114.2319633,-2575677.18856 60410.9539765,-2575802.18279 60765.3628168,-2575693.87805 60993.7323426,-2575913.2906 61004.8185589,-2576191.61839 60622.1806397,-2577057.34129 60597.0761118,-2577531.33864 60605.1768996,-2577849.17165 60727.4737851,-2578202.73561 60885.0403469,-2578410.11799 61361.805633,-2578589.39666 61664.986742,-2578708.84602 62261.408945,-2578729.88969 62470.9114262,-2578968.41541 62905.7869973,-2579011.52051 63103.0953192,-2579220.13727 63174.4755445,-2579432.58607 63199.3950039,-2579648.34112 63146.770812,-2579777.64169 62951.7686901,-2579841.90941 62597.9082689,-2579843.25281 62412.9678904,-2579917.4506 62258.3626716,-2580043.92836 62220.1335499,-2580233.61192 62265.7475013,-2580404.24687 62344.7154697,-2580630.14027 62502.4835357,-2580792.53461 62566.5310292,-2581104.99437 62596.7207015,-2581474.65707 62804.4827394,-2581601.23236 62691.6370246,-2582032.81994 63087.8744505,-2581864.75477 63244.2891372,-2581860.71903 63353.2549215,-2582087.91119 63259.2888138,-2582238.47789 62937.8166975,-2582149.14363 62358.0047993,-2582446.37927 61965.2455115,-2582724.38236 61982.0079445,-2582953.18619 62178.2285142,-2582884.40934 62312.6957574,-2582887.01589 62444.7896808,-2583021.58898 62581.2348183,-2583058.6695 62691.9632738,-2582910.98985 62748.7011376,-2582761.66919 62956.9282632,-2582732.2985 63101.6572978,-2583038.72304 63285.6612571,-2583200.441 63365.240197,-2583329.86401 63508.9416286,-2583368.3957 63634.52946,-2583238.11152 63768.3896039,-2583036.29968 63968.0430446,-2582807.06194 64035.3806444,-2582635.68025 64195.6536416,-2582610.62667 64290.5708832,-2582678.97113 64422.6532805,-2582812.04436 64565.6222815,-2583192.45071 64772.1601493,-2583210.0737 64916.6620399,-2583105.65512 65132.541765,-2583137.71077 65194.3037327,-2583369.21194 65136.4766746,-2583617.99976 65076.3411927,-2583857.80638 65249.7927916,-2583973.61055 65421.301418,-2583796.54086 65616.4140163,-2583598.82281 65915.046984,-2583447.90022 66141.7877757,-2583384.42091 66395.3361364,-2583519.68643 66651.3187857,-2583682.92463 67109.2763663,-2584118.21554 67332.2528314,-2584278.67283 67541.1763299,-2584505.69669 67711.8719878,-2584771.45839 67806.6022339,-2585113.19351 67840.9097618,-2585236.91641 67978.0167534,-2585411.93632 68177.7850871,-2585502.07407 68377.9911559,-2585545.2277 68465.2707121,-2585592.62925 68598.8911629,-2585694.2013 68652.5483942,-2585871.77342 68612.8791902,-2586107.44164 68452.8392873,-2586279.93479 68342.1814099,-2586550.56057 68396.1513119,-2586775.11137 68539.7092411,-2586943.08967 68633.4332736,-2587095.40523 68722.2000112,-2587366.70524 68736.7005717,-2587781.44019 68833.2624608,-2587834.2768 69037.6708683,-2587945.87249 69131.1584825,-2588100.18791 69089.6920808,-2588516.29325 69195.3325561,-2588769.48688 69200.4803731,-2588942.38165 69073.3383404,-2589326.56961 68968.9449558,-2589599.15226 69135.1543296,-2589941.40531 69106.997558,-2590441.8864 69009.2560797,-2590699.93076 68990.1657279,-2590947.95553 69087.4973024,-2591416.61346 69206.908644,-2592048.55575 69164.4757513,-2592806.02368 69117.5537793,-2593077.22368 69373.2292674,-2593531.82866 69534.7715978,-2593810.63426 69696.8502307,-2594019.96502 69718.5207249,-2594196.74611 69718.7622402,-2594570.08741 69537.0082588,-2594820.19543 69366.7403899,-2595218.66474 69194.9498354,-2595538.67759 68865.4357431,-2595815.26278 68873.5892604,-2596138.07295 68779.9035406,-2596665.47777 68798.0268813,-2596984.22272 68984.1877499,-2597767.64776 69094.8478802,-2598022.79967 69123.5315553,-2598201.53215 69020.5027547,-2598340.16288 68874.7556687,-2598406.11032 68706.5325639,-2598623.64432 68376.6545386,-2598957.21194 68153.841112,-2599195.10374 68052.9356309,-2599352.21344 67922.4680617,-2599535.51027 67919.6031963,-2599667.47405 68265.236812,-2599821.09411 68331.1959567,-2599931.10585 68541.6288634,-2600083.63162 68695.2134458,-2600404.46666 68978.6120519,-2600668.4554 68946.3866333,-2601154.96418 68744.995945,-2601382.21758 68860.4129075,-2601787.27107 68763.9218104,-2601968.84079 68683.0270012,-2602240.26771 68735.935302,-2602490.80588 68900.4023975,-2602608.15223 68722.0835644,-2602698.31024 68532.4544762,-2602816.03257 68459.372685,-2602985.45085 68513.9807172,-2603228.48065 68610.6781449,-2603450.23679 68684.6750121,-2603640.65853 68757.3990863,-2603827.59016 68762.5478677,-2603998.98213 68685.817718,-2604145.93449 68584.6547382,-2604338.5315 68458.8204408,-2604466.82192 68459.5285972,-2604572.27204 68492.4719112,-2604751.97375 68588.6704182,-2604899.26419 68727.5991258,-2605120.73547 68739.8347663,-2605342.55787 68677.8592428,-2605565.37865 68541.5247682,-2605767.20849 68479.405223,-2605968.53969 68448.8091343,-2606138.17256 68429.1697518,-2606339.21825 68451.2988903,-2606508.49662 68484.3847568,-2606709.1877 68675.9334432,-2606877.32651 68898.5748819,-2606949.79723 69088.8393337,-2606927.02697 69289.3544751,-2606830.71974 69478.6240127,-2606660.02068 69604.212416,-2606458.2637 69740.7225563,-2606319.90586 69888.4746987,-2606255.44039 70047.4338247,-2606296.85344 70238.6952107,-2606422.5124 70324.5754383,-2606633.34253 70327.9956779,-2606844.72688 70338.2367731,-2607067.06048 70297.1789291,-2607278.74384 70270.2468104,-2607361.38879 70234.9902652,-2607469.57856 70098.9069838,-2607596.93848 69898.0052024,-2607672.75736 69685.6478757,-2607568.73201 69484.1730273,-2607485.12438 69251.2142677,-2607476.19608 69072.1185981,-2607561.86427 69049.0984682,-2607705.95671 69074.5397001,-2607921.69181 69107.5558629,-2608111.88691 69014.0602974,-2608366.40589 69008.7020452,-2608609.8362 69000.8090162,-2608959.23746 68987.6848421,-2609051.28583 68956.6443271,-2609265.90161 68952.4276512,-2609381.87956 68947.5388214,-2609509.35702 68842.297873,-2609726.47183 68763.8468825,-2609839.95126 68654.9934076,-2610040.09805 68650.0079511,-2610116.09864 68635.7508468,-2610336.59892 68689.1884282,-2610516.16048 68757.7194095,-2610747.59753 68872.8466433,-2610959.22874 69022.1299347,-2611159.13442 69055.2193903,-2611359.82342 69035.9417791,-2611613.84234 68942.5211067,-2611878.85682 68827.6485595,-2612112.52996 68691.4288801,-2612293.3705 68649.8768353,-2612431.09088 68675.9770591,-2612706.79417 68769.6769999,-2612927.56481 68834.6443494,-2613149.02902 68809.5909912,-2613435.57267 68757.6597416,-2613516.38809 68620.208673,-2613736.7203 68574.8452633,-2613827.98689 68635.7918415,-2614008.99574 68640.7453589,-2614187.38409 68724.5459874,-2614459.1984 68805.7330921,-2614603.08635 68844.9371276,-2614672.79066 68982.6540951,-2614713.84148 69162.9955392,-2614776.09474 69359.90331,-2614960.18206 69524.9312466,-2615122.99409 69621.3508603,-2615302.26259 69791.051713,-2615343.09677 69982.1745804,-2615447.75763 70057.3545908,-2615627.16923 70249.0483635,-2615816.28819 70324.5123893,-2616037.67874 70377.7778552,-2616228.23312 70560.5476824,-2616501.87377 70714.8710449,-2616633.77017 70821.4944298,-2616696.02057 70900.5232143,-2616742.46481 71250.2455985,-2616835.55584 71336.4266065,-2616941.92446 71378.2542085,-2616993.11819 71589.8986887,-2616991.68627 71915.6236737,-2616899.02372 72255.1725248,-2616818.26253 72377.347128,-2616741.47079 72476.3814087,-2616679.32903 72623.9823109,-2616593.3696 72835.2674867,-2616538.96498 73057.2634854,-2616516.47337 73215.8691045,-2616505.90521 73353.6510288,-2616556.94958 73368.3340463,-2616769.75221 73375.9290072,-2616895.14303 73389.1773188,-2617117.45089 73449.6847405,-2617602.81735 73518.6491083,-2618156.09469 73562.7765576,-2618510.13198 73739.49553,-2618849.7774 73995.5150765,-2619165.39604 74082.6935828,-2619566.61837 74179.2844131,-2619844.83389 74276.895307,-2620126.0408 74479.4035229,-2620325.57434 74544.4493842,-2620558.02432 74620.4203298,-2620853.87027 74822.6076848,-2621042.90992 75096.8303252,-2621021.05997 75435.7140034,-2620953.793 75732.3861333,-2621036.74137 76008.6380658,-2621203.78808 76306.5260056,-2621466.14217 76515.3103222,-2621670.12811 76648.5422137,-2621971.57971 76735.4388587,-2622330.81771 76776.2134157,-2622521.44944 76790.4106011,-2622588.32095 76819.0526082,-2622758.54474 76834.1554832,-2622848.39902 76863.5709852,-2622911.66887 76995.1929763,-2623196.63792 77283.0177996,-2623522.52576 77686.6360195,-2623752.67242 78059.094115,-2624067.48885 78121.0424124,-2624395.40819 78119.8053024,-2624544.34404 78117.1324496,-2624849.71339 78100.5334916,-2625201.65469 78090.0730418,-2625537.56202 78228.8264822,-2625695.04138 78429.7189857,-2625693.67554 78650.270206,-2625459.79001 78885.7426213,-2625141.84476 79027.1090783,-2624875.01473 79180.399511,-2624818.50048 79290.8216698,-2624778.26968 79513.3830707,-2624840.22626 79747.1196562,-2624965.57541 80013.4901637,-2625260.11852 80187.4622712,-2625489.32173 80343.7541089,-2625617.19528 80468.3237427,-2625673.32015 80650.0129349,-2625530.65576 80679.3717746,-2625181.13062 80629.0415927,-2624834.64562 80622.7550823,-2624571.31964 80673.912989,-2624377.56861 80831.9995702,-2624291.5374 81086.2206876,-2624342.78452 81224.7960232,-2624511.25855 81303.4502841,-2624834.06216 81259.8580385,-2625074.7377 81677.4328578,-2626256.30378 81598.7609956,-2626592.66943 81457.2925982,-2626844.00546 81318.7921931,-2627090.82387 81265.3065727,-2627346.05956 81361.65364,-2627514.31891 81648.1102147,-2627639.30545 81839.4404594,-2627775.43383 81989.6256642,-2628070.76151 82064.8809109,-2628260.65266 81739.2228207,-2628580.20934 81476.0584022,-2628793.39478 81189.7819912,-2628951.76586 80928.9942117,-2629220.40824 80845.7309982,-2629432.36937 80871.4847566,-2629508.15572 80921.4556969,-2629654.24159 81060.2493601,-2629854.19458 81262.0039845,-2629979.75541 81424.3986374,-2629939.66815 81500.9121649,-2629910.66102 81716.5253889,-2629723.28555 81861.3894595,-2629457.43256 82165.7682464,-2629095.54146 82227.9968437,-2628840.24711 82300.2377225,-2628660.84607 82479.7805273,-2628607.15014 82732.0745745,-2628705.88087 82946.135737,-2628730.90961 83124.9280504,-2628860.62499 83244.1636463,-2629014.23375 83273.2671549,-2629288.39474 83255.239149,-2629392.96396 83216.5403809,-2629617.61248 83197.2467014,-2629903.09752 83175.0416692,-2630054.67116 83156.8936128,-2630178.23152 82989.4687685,-2630433.24267 82667.1169423,-2630687.31166 82357.9269173,-2630892.81635 81999.0640869,-2631032.69401 81630.4610123,-2631246.60115 81451.9310334,-2631448.71746 81379.3426497,-2631650.11115 81364.540979,-2631714.67956 81327.8895086,-2631872.84985 81360.9215103,-2632063.02812 81498.9902597,-2632156.53785 81688.8834531,-2632081.77888 81899.3633012,-2631911.42804 82046.0850975,-2631698.53449 82214.0885865,-2631528.47412 82332.2007538,-2631407.22965 82382.0784689,-2631356.41512 82666.8852443,-2631239.53092 83005.2313523,-2631205.73908 83312.0993644,-2631246.12406 83586.830188,-2631190.77765 83915.3284175,-2631252.00423 84022.3175519,-2631441.67591 84045.5772789,-2631737.86377 83973.2446371,-2632013.21503 83838.0629654,-2632342.46777 83666.185547,-2632567.02564 83429.4217475,-2632876.48337 83242.4465414,-2633122.13437 82988.2284449,-2633363.74744 82746.452171,-2633597.7799 82493.0309397,-2633882.86638 82242.0616911,-2634087.97758 82042.908768,-2634343.20932 81946.6279264,-2634514.28069 81899.2127728,-2634778.97022 81962.9792594,-2635041.89997 82186.4795174,-2635241.26883 82462.5159601,-2635376.8104 82749.4086068,-2635565.25018 83036.3728,-2635764.18359 83406.9406899,-2635911.57074 83778.2990848,-2635991.98672 84170.4053553,-2636073.75972 84467.6403659,-2636130.69499 84847.8518516,-2636154.07957 85271.1475107,-2636193.16087 85514.8706268,-2636244.46515 85822.6349642,-2636379.78649 85910.9397079,-2636504.11614 85895.7939006,-2636591.17387 85799.3861156,-2636816.21531 85646.1684314,-2637174.07609 85121.0581552,-2637373.06932 84428.1896102,-2637302.85377 84093.6707157,-2637238.17961 83818.2856447,-2637197.58762 83522.3466992,-2637220.60346 83172.4241835,-2637096.06542 82767.5733379,-2636831.97507 82588.1433577,-2636719.2621 82255.8401408,-2636504.14845 81903.9550781,-2636275.67509 81567.7153398,-2635996.6196 81481.7094259,-2635806.80487 81406.2288573,-2635584.93421 81183.0898439,-2635438.53579 81001.7432325,-2635228.38327 80926.6970946,-2635069.97687 80809.6119146,-2634975.82559 80672.4029417,-2635008.24814 80451.2150974,-2635147.19186 80187.8410298,-2635328.90314 79946.6799532,-2635616.40984 79759.177354,-2636040.48145 79644.7694903,-2636337.61646 79583.3670719,-2636748.83166 79531.0357931,-2637098.01584 79515.5717882,-2637357.49225 79495.3060775,-2637681.96913 79528.5696978,-2637978.09317 79583.5611655,-2638199.60538 79614.3495331,-2638280.35386 79704.9177713,-2638515.61499 79756.56239,-2638759.1388 79951.7248603,-2639052.15294 80109.1026997,-2639264.46642 80363.4241895,-2639512.09645 80534.5878858,-2639621.36656 80799.6991576,-2639693.5104 81074.4030467,-2639670.63642 81334.8721764,-2639721.82257 81730.2886542,-2639666.13681 81910.9117373,-2639770.34384 82017.9090501,-2639960.0124 82199.1904122,-2640160.16538 82300.3906917,-2640415.33971 82424.2175921,-2640581.40414 82611.9217512,-2640661.57381 82879.7614896,-2640694.71719 83207.1411697,-2640629.00267 83481.0730643,-2640457.71013 83712.6042771,-2640297.70331 83934.2928573,-2640232.71497 84166.8691509,-2640188.64112 84336.5304505,-2640261.4383 84387.7439471,-2640478.47331 84451.8141295,-2640748.39226 84458.7027609,-2641096.66288 84408.8557267,-2641551.76746 84316.203504,-2641922.7104 84243.8420945,-2642155.58622 84126.1098106,-2642403.76615 84004.3337089,-2642717.93977 83882.840349,-2642964.14716 83759.1259754,-2643214.36802 83633.4404566,-2643468.60063 83507.7586108,-2643723.33324 83473.618073,-2643990.92937 83475.9457691,-2644329.23783 83477.7408946,-2644590.09013 83617.7324558,-2644962.43271 83672.161112,-2645173.94787 83758.4630295,-2645405.73279 83927.9259064,-2645522.00467 84181.9852153,-2645477.27751 84519.0831402,-2645263.06713 84631.2595418,-2645188.33353 84855.8621117,-2645038.86486 85066.9816884,-2644963.45039 85288.8840034,-2644929.93971 85504.3561489,-2644833.50664 85572.7224166,-2644674.12006 85741.1458411,-2644567.01698 85962.8126258,-2644571.98804 86185.7250198,-2644576.4508 86459.8986462,-2644477.61561 86702.4561747,-2644359.50864 87029.1033213,-2644188.35147 87313.160411,-2643964.51624 87459.505621,-2643699.15158 87535.2469965,-2643376.80367 87601.288558,-2643169.96057 87642.0735639,-2642923.81245 87735.6776248,-2642837.2153 87764.2656621,-2642779.54975 87853.8532042,-2642617.52099 88043.4413881,-2642499.78092 88286.8705043,-2642508.60244 88497.5892307,-2642520.6471 89247.1109922,-2642619.43986 89789.8040409,-2642690.66933 89919.7687105,-2642732.25286 90267.0983663,-2642844.30284 90738.3173682,-2643168.38326 90921.7778189,-2643250.07614 91254.6122847,-2643398.20446 91616.6492558,-2643723.53272 91911.8001336,-2643987.35452 92280.6170903,-2644317.63129 92339.8230231,-2644388.68392 92607.1362992,-2644710.16314 93022.0385016,-2645056.61102 93479.8181872,-2645497.70855 94043.8972924,-2645991.04188 94339.9174336,-2646272.34142 94576.6499278,-2646579.53409 94688.163532,-2646917.07217 94625.0707765,-2647115.89357 94561.9312936,-2647489.11573 94634.2207614,-2647682.00671 94796.7251399,-2647804.81515 95075.767384,-2647870.35206 95283.8379408,-2647897.90042 95484.5180631,-2647832.05351 95675.1921681,-2647873.21404 95792.6826427,-2648062.7938 95847.1075437,-2648273.79626 95789.431894,-2648424.60726 95753.5959486,-2648517.80084 95796.9849512,-2648686.40391 95977.2379096,-2648738.12942 96177.4242828,-2648673.28475 96335.5644332,-2648598.23642 96515.96171,-2648670.94869 96707.8764221,-2648891.99495 96883.7763059,-2648964.73787 97152.5341858,-2648952.38907 97322.2129413,-2648920.2361 97384.8439342,-2648908.31058 97452.6920968,-2648855.87276 97563.7816612,-2648769.65619 97625.8553248,-2648568.34567 97791.4894321,-2648420.78882 98026.3882495,-2648353.70675 98072.9929661,-2648300.41642 98183.7997945,-2648173.22652 98426.164132,-2648065.61728 98690.162689,-2647979.34638 98932.8194397,-2647914.21043 99184.8061297,-2647933.95982 99356.7750073,-2648016.72385 99570.1105275,-2648301.08204 99661.273371,-2648622.26114 99849.4895002,-2648923.28176 100019.213105,-2649006.55986 100088.641913,-2649219.45289 100206.325369,-2649581.92275 100374.443569,-2649903.06845 100556.591034,-2650229.6134 100695.317041,-2650419.04048 100918.154542,-2650523.43702 101021.73347,-2650507.73038 101182.07279,-2650426.17114 101308.917495,-2650414.80112 101383.601116,-2650520.221 101416.279877,-2650657.412 101766.033604,-2650760.93081 102050.719308,-2650632.04068 102218.086177,-2650699.84213 102346.316281,-2650744.42826 102411.182538,-2650766.96596 102538.493595,-2651003.94078 102646.878362,-2651177.58495 102836.690879,-2651167.27832 103058.772183,-2651090.28943 103270.498364,-2651141.79333 103514.569253,-2651246.04089 103642.434936,-2651382.57218 103706.198056,-2651498.55948 103792.486677,-2651656.36503 103998.139156,-2651732.89467 104090.327705,-2651732.25712 104258.115472,-2651716.60574 104437.262752,-2651609.43259 104669.128081,-2651502.3948 104933.479584,-2651468.58687 105282.422486,-2651455.68071 105575.447656,-2651558.08921 105638.846112,-2651549.15615 105704.475755,-2651537.70923 106570.879224,-2651168.94747 106707.574291,-2651065.06762 106898.393782,-2650911.84484 107130.304899,-2650811.80446 107213.256391,-2650776.25339 107298.670613,-2650663.23456 107422.70952,-2650499.48106 107622.14074,-2650254.75818 107790.912397,-2650201.12576 108007.305077,-2650024.74275 108198.852892,-2649868.51892 108316.216958,-2649678.82943 108254.947227,-2649236.0364 108279.45292,-2648949.55067 108406.4837,-2648784.7791 108468.142641,-2648704.9046 108602.628206,-2648280.7485 108654.061528,-2648058.53629 108705.899911,-2647931.26037 108853.682343,-2647877.27535 109075.268792,-2647801.79505 109201.161147,-2647653.02245 109284.026848,-2647387.62217 109298.424076,-2647301.57844 109324.573858,-2647144.49957 109439.898105,-2646984.80753 109692.410026,-2646792.69083 109955.486788,-2646610.99505 110293.346644,-2646513.72936 110663.337825,-2646511.18071 110917.376686,-2646540.9102 111213.888783,-2646570.8467 111517.245894,-2646796.60716 111698.38784,-2646943.26173 112042.741604,-2647136.25993 112519.85967,-2647235.40395 113123.076172,-2647361.16004 113250.00781,-2647399.75883 113568.669367,-2647454.0246 113840.825448,-2647648.01738 114110.414129,-2647904.48536 114354.469451,-2648008.73122 114549.163766,-2647838.5024 114786.445979,-2647793.89532 115188.697921,-2647833.5931 115492.146592,-2647928.43502 115697.424899,-2647988.9774 115804.862177,-2648099.16104 115853.168379,-2648148.29423 115996.157451,-2648378.15075 116071.228775,-2648504.54636 116230.373111,-2648577.398 116449.404197,-2648494.94228 116693.854262,-2648330.86723 116854.016088,-2648297.78444 117021.791198,-2648318.11246 117149.64568,-2648454.63607 117194.940379,-2648646.69126 117341.829024,-2648717.62827 117574.190417,-2648684.54678 117817.362526,-2648661.38387 117997.200312,-2648692.12097 118210.034683,-2648870.52776 118422.181258,-2648985.48298 118644.953973,-2649047.40144 118856.658762,-2649098.40381 119057.541645,-2649065.53936 119206.08646,-2649159.44782 119418.264601,-2649242.92389 119672.729883,-2649336.10086 119956.419979,-2649501.02522 120309.371231,-2649638.48986 120716.666323,-2649686.64161 121633.609811,-2649700.29604 122149.331868,-2649604.8008 122508.952141,-2649623.3028 122793.752229,-2649515.41255 123109.332597,-2649270.40881 123858.077252,-2649384.15446 124159.779374,-2649517.47342 124595.049393,-2649349.08895 125245.427318,-2649291.63829 125888.062404,-2649234.74112 126204.374796,-2649277.5247 126685.956336,-2649304.67806 127485.609173,-2649629.91197 127514.56117,-2650096.36425 127627.030105,-2650501.78441 127929.765845,-2650785.47903 128427.823823,-2650992.37913 128854.597854,-2651186.78062 129172.430703,-2651269.51927 129433.823527,-2651427.09155 129501.556013,-2651468.09183 129722.077196,-2651928.7167 129789.645974,-2652126.5989 129824.067032,-2652227.28421 129846.61706,-2652417.48379 129826.556308,-2652586.99416 129891.028719,-2652734.43571 130002.07596,-2652825.59722 130135.340252,-2652806.18873 130208.71172,-2652795.68841 130367.551282,-2652826.06488 130443.280402,-2653047.87123 130453.986273,-2653259.13607 130393.253714,-2653471.39532 130394.558381,-2653659.74283 130483.386618,-2654041.33621 130653.390832,-2654312.95 130770.927932,-2654547.45562 130794.03775,-2654854.06111 130795.430543,-2655054.89807 130881.064692,-2655191.69915 131029.884783,-2655182.17339 131161.149674,-2655162.77705 131271.951945,-2655146.52038 131368.371971,-2655325.71365 131524.621905,-2655487.00504 131646.18451,-2655725.4777 131847.536963,-2655798.52312 132041.624652,-2655796.67655 132322.252501,-2655738.27261 132567.461074,-2655687.60884 132818.651115,-2655526.98891 132944.960772,-2655441.67804 133114.071302,-2655440.50475 133259.815224,-2655491.95277 133454.007969,-2655649.48163 133761.121447,-2655700.30913 134119.351386,-2655809.73553 134375.610184,-2655875.90373 134503.530926,-2656022.89976 134599.658793,-2656160.12415 134737.703187,-2656254.09114 134916.890325,-2656265.33721 135170.973044,-2656198.12473 135453.236504,-2656196.16506 135731.870521,-2656247.18862 135975.356601,-2656308.94771 136229.805319,-2656402.60508 136473.981152,-2656527.80842 136696.924701,-2656653.15886 136867.131553,-2656810.35016 137081.058753,-2657112.12147 137122.596933,-2657230.23809 137156.238995,-2657326.42712 137231.748905,-2657516.24991 137244.077125,-2657780.45255 137223.727401,-2657907.49241 137150.599552,-2658024.40772 137098.308032,-2658120.19501 137120.495486,-2658257.43079 137247.829069,-2658319.99435 137301.739725,-2658457.00931 137342.12673,-2658553.1511 137376.928081,-2658636.34212 137388.597534,-2658805.62518 137516.077149,-2658889.17039 137651.782854,-2659006.13133 137771.654587,-2659109.21354 137846.18271,-2659193.62651 138011.147601,-2659279.40822 138190.081477,-2659470.00794 138241.781596,-2659719.94615 138315.188199,-2659750.90955 138390.700399,-2659940.73002 138396.918393,-2660152.01613 138446.791767,-2660426.44682 138532.722587,-2660605.70273 138555.354172,-2660806.38274 138683.499173,-2660985.34406 138890.47451,-2661113.2963 139100.207791,-2661242.72777 139286.360098,-2661357.83513 139500.203794,-2661360.34052 139638.396311,-2661332.39871 139759.911342,-2661277.09564 139837.84994,-2661241.58063 139999.053668,-2661217.97483 140090.453035,-2661070.95705 140185.178266,-2661006.84845 140365.388121,-2661058.04904 140587.741472,-2661098.96385 140873.316393,-2661107.46395 141097.275773,-2661163.85458 141158.188845,-2661194.40431 141276.001009,-2661253.03374 141509.240158,-2661314.85477 141630.019464,-2661297.52602 141762.133206,-2661186.19592 141900.174801,-2661280.15469 142002.851986,-2661389.34754 142208.306414,-2661478.83906 142314.70238,-2661584.00895 142283.719121,-2661690.13719 142177.148805,-2661774.81111 142031.859085,-2661966.66675 141969.596618,-2662136.46101 142023.051363,-2662279.46917 142098.699679,-2662452.79705 142184.554278,-2662621.05766 142322.303376,-2662673.05188 142486.263264,-2662758.33516 142734.837014,-2662691.15375 142882.590147,-2662637.66569 143083.336138,-2662625.27309 143306.202664,-2662740.11957 143551.560378,-2662963.71745 143824.925649,-2663048.73508 144038.834415,-2663168.6388 144166.246623,-2663278.65539 144274.110731,-2663558.1659 144211.99749,-2663748.93991 144107.327777,-2663997.9629 144071.654823,-2664433.3468 144061.374866,-2664892.03358 144020.567607,-2665093.15053 144101.912127,-2665223.47135 144191.5938,-2665367.22236 144236.292557,-2665472.32088 144299.276154,-2665620.25521 144427.422424,-2665799.20665 144916.32769,-2666165.47088 145160.116275,-2666271.67188 145361.812691,-2666359.68312 145489.094451,-2666415.24349 146388.972674,-2666578.2937 147256.041905,-2666622.67382 147720.673381,-2666484.53354 147942.798056,-2666493.96741 148186.043302,-2666523.23594 148303.770938,-2666712.74622 148452.157464,-2666786.14164 148543.172302,-2666799.49149 148949.940841,-2666888.06049 149331.109291,-2666959.32369 149796.430333,-2666956.06104 150155.035498,-2666837.64815 150342.674646,-2666738.41852 150439.48087,-2666687.28416 150723.337619,-2666452.99867 151028.718435,-2666260.52615 151281.07126,-2666057.43561 151587.167559,-2666002.83734 151957.688601,-2666052.6947 152254.031983,-2666103.57112 152487.555351,-2666207.84033 152605.548208,-2666471.2777 152660.648648,-2666777.61779 152915.891314,-2666987.13924 153086.467333,-2667197.75345 153151.834867,-2667472.04902 153174.992726,-2667746.64062 153219.282036,-2668042.56462 153157.995315,-2668349.72043 153223.438534,-2668634.50563 153310.189409,-2668930.13109 153514.929789,-2669097.04174 153850.840086,-2669127.15219 154062.908936,-2669199.59542 154359.397277,-2669271.44512 154887.774845,-2669215.27898 155141.753604,-2669244.96544 155332.664884,-2669328.04699 155502.795815,-2669475.21627 155652.315635,-2669674.98243 155685.819677,-2669928.51595 155581.7061,-2670183.01748 155635.846655,-2670351.98263 155814.389327,-2670487.60185 156007.47812,-2670560.67529 156239.856829,-2670538.05914 156493.686184,-2670546.76328 156737.172906,-2670576.52093 156893.09206,-2670727.28434 157098.06612,-2670785.78652 157298.37597,-2670678.47389 157540.943713,-2670613.32499 157826.490119,-2670621.80553 158101.918923,-2670683.30823 158324.325117,-2670734.69365 158525.575613,-2670796.71809 158674.127439,-2670859.11338 158906.277062,-2670804.52818 159117.893538,-2670813.52858 159372.164908,-2670885.66942 159627.033878,-2671042.72642 159807.60257,-2671147.35574 159914.142064,-2671273.48659 159947.570927,-2671516.02378 159842.970328,-2671665.12191 159685.045263,-2671761.14598 159527.718539,-2671942.08676 159317.591706,-2672144.38054 159234.787664,-2672409.21812 159204.710161,-2672642.21347 159323.333213,-2672958.58141 159430.621745,-2673190.60757 159527.718406,-2673323.29807 159622.799472,-2673453.50497 159836.506313,-2673758.71007 160090.704241,-2673820.35609 160418.528989,-2673839.02182 160630.743522,-2673932.93381 160818.431317,-2674125.9257 161024.018649,-2674236.36829 161235.558726,-2674234.87405 161457.439887,-2674212.32655 161583.717387,-2674127.01437 161679.320726,-2674189.77908 161712.309436,-2674369.37591 161814.379758,-2674499.03135 162062.330275,-2674525.25285 162211.180656,-2674630.10052 162308.322991,-2674769.28118 162350.5592,-2674914.34456 162309.400137,-2675062.99462 162389.059317,-2675166.83225 162507.786546,-2675320.84556 162724.276935,-2675419.2195 162894.328945,-2675555.38589 163051.059307,-2675785.55662 163331.335531,-2676038.8297 163682.178673,-2676311.08367 163905.704089,-2676521.29821 164086.843176,-2676741.80271 164310.74022,-2677004.46301 164388.128909,-2677140.28363 164524.300278,-2677288.6751 164610.962474,-2677288.06103 161804.12896,-2692794.91516 160445.232582,-2692703.77125 157679.52812,-2705882.33853 156909.438078,-2709552.70704 155564.251155,-2715964.97756 154760.823155,-2719796.11031 155679.084612,-2720141.56056 152033.922943,-2740469.91806 150763.520972,-2740149.17013 144511.686487,-2739331.97099 144193.862546,-2739290.37167 136874.765575,-2738333.05053 136731.176023,-2739282.45449 136595.914535,-2740175.33931 135488.030972,-2747491.61073 118246.363726,-2745994.15089 102664.392654,-2744462.45746 102560.868737,-2744452.22747 102248.797519,-2744421.54836 101053.146496,-2744354.91243 91881.1695939,-2743841.77276 87244.5110516,-2743476.53077 87264.1836074,-2743262.97744 87297.0442074,-2742769.44732 87431.9317424,-2742149.22333 87535.0584067,-2741218.86838 86341.4430167,-2739291.45422 86035.6698152,-2739133.76224 86035.4838542,-2738971.83344 86030.1324711,-2733178.4087 86007.7106336,-2706687.48178 86007.5402777,-2706594.02882 86007.3867964,-2706328.66008 86006.7676684,-2705370.63524 86006.6508418,-2705249.6956 86129.8806231,-2694721.07229 86219.7362753,-2681587.17093 86307.6610635,-2677148.86316 86353.5515486,-2672653.8973 77248.0558118,-2672462.354 73361.0829944,-2672380.63678 72028.9157272,-2672375.47415 65951.6536507,-2672305.57734 65928.411424,-2672305.24026 65778.1119053,-2672538.69122 65439.8366663,-2672942.38541 65123.5549907,-2673239.47271 64728.3061935,-2673572.09887 64323.711525,-2674140.19072 64118.8551583,-2674861.31864 63753.5949909,-2675799.98094 63400.3915375,-2676604.61856 63068.0008565,-2677241.18348 62725.420801,-2677778.86337 62491.3986259,-2678188.83557 62363.6002882,-2678494.60571 62169.0930626,-2679051.24059 61991.4850518,-2679772.18954 62045.32533,-2680108.17153 62247.4155946,-2680310.66611 62272.3038606,-2680793.79031 62175.7230722,-2681060.85903 61906.3810782,-2681316.1487 61527.2619676,-2681596.70115 61141.6612878,-2682199.16813 60996.1624319,-2682829.93464 60730.0862344,-2683371.58797 60404.2492074,-2683943.65143 60253.307679,-2684156.12913 60061.34262,-2684398.38423 59700.9146586,-2684565.35748 59337.2052015,-2684514.9413 58898.3453144,-2684190.66373 58617.5132092,-2683950.23827 58437.9421417,-2683823.55374 58232.9210298,-2683844.48973 58137.8964869,-2684048.57828 58278.7459484,-2684354.46464 58325.7258219,-2684708.99305 58190.4697449,-2684877.87951 58017.979674,-2684905.08458 57840.4666983,-2684822.36839 57613.6444864,-2684728.50396 57387.1251624,-2684784.07853 57213.8852568,-2684953.23317 57042.0322126,-2685177.35679 56848.8076205,-2685241.19388 56663.5507945,-2685194.51789 56538.0385808,-2685079.44731 56517.1603547,-2685060.10198 55749.4775748,-2684353.28521 55517.1988594,-2684052.53746 55266.4207156,-2683999.32417 55028.0454691,-2683933.0284 54889.3420582,-2683754.57362 54783.3959878,-2683507.91418 54890.7816045,-2683035.83944 55184.8874282,-2682853.83945 55186.1102951,-2682636.9145 55033.5751967,-2682552.52043 54745.8033228,-2682427.09359 54199.6144379,-2682334.97173 53860.2044415,-2682329.36169 53668.9537445,-2682176.76515 53444.0815271,-2682218.33118 53367.3667715,-2682005.95133 53317.8817727,-2681649.93436 53274.6491463,-2681472.30573 53177.9746861,-2681300.05075 53036.1610055,-2681141.10794 52733.1954738,-2680916.32257 52479.6239293,-2680714.6808 52210.3658788,-2680485.65914 52127.7660015,-2680360.28664 52071.5812767,-2679868.36623 52053.5548144,-2679650.07491 52004.4750563,-2679422.50516 51913.9560627,-2679165.7373 51737.2388871,-2679018.53333 51624.1938501,-2678792.41176 51678.5564582,-2678312.71021 51690.1936117,-2677762.83517 51411.2797613,-2677546.37316 51397.1735487,-2677530.47807 51111.4400373,-2677268.08058 51053.3360341,-2677214.50813 50937.5670333,-2677027.38996 50920.631418,-2677000.01895 50727.6708293,-2676888.4137 50287.6856175,-2676831.51993 50181.0309087,-2676589.85739 50101.5774528,-2676413.97961 50053.2671554,-2676402.8224 49848.2633017,-2676355.7768 49772.7452468,-2676170.87451 49726.2125674,-2676056.74283 49542.9319822,-2676007.04562 49361.3397235,-2675984.32656 49214.2159623,-2675851.90627 49170.1276782,-2675694.27318 49139.0557395,-2675432.58714 49159.7236356,-2675243.51194 48921.3721512,-2675073.74387 48797.8304951,-2675025.62681 48481.1064613,-2674941.37585 48431.396039,-2674658.8273 48311.7308686,-2674414.75439 48133.8445782,-2674386.01029 47909.4303466,-2674386.58118 47754.7244096,-2674277.70381 47613.542463,-2674137.24311 47640.0885555,-2673966.61927 47701.6170431,-2673866.72493 47764.3234573,-2673792.31313 47906.0426995,-2673723.84625 47947.3382184,-2673589.60618 47865.3280517,-2673405.24725 47790.327317,-2673186.85158 47731.9020783,-2673015.82262 47723.4842252,-2672991.3904 47829.3758022,-2672874.19235 47945.8556173,-2672805.90248 47947.7901603,-2672760.90537 47959.8170005,-2672479.42405 47961.5436299,-2672440.42622 47905.2120903,-2672425.82551 47817.3306756,-2672402.44864 47752.3628659,-2672367.91558 47620.8120566,-2672496.78863 47534.5293162,-2672594.85639 47413.6612448,-2672643.18418 47276.1339809,-2672632.15006 47089.0325234,-2672679.44151 46893.9358303,-2672834.2501 46752.6126877,-2672780.75787 46634.1756895,-2672497.68823 46536.1849334,-2672279.45208 46401.6772572,-2672199.92119 46263.7408386,-2672130.41059 46138.6902534,-2671794.90529 45999.4069808,-2671639.93447 45878.1188915,-2671377.87608 45694.2969457,-2671358.16777 45560.6351766,-2671507.0487 45150.1742961,-2671706.34648 45013.5841709,-2671471.88438 45010.3145333,-2671468.90829 44821.996314,-2671592.68048 44663.144621,-2671534.31131 44460.796898,-2671402.77184 44566.3798282,-2671241.09119 44590.6672666,-2671032.99508 44593.1069192,-2671024.48105 44574.5096424,-2671009.61624 44419.4455389,-2670885.24352 44268.4105276,-2670836.81573 44173.1247477,-2670898.45965 44087.1222228,-2670929.54952 43965.1020013,-2671027.86739 43873.5005605,-2671223.43868 43776.5934219,-2671446.53754 43655.8800469,-2671588.83123 43472.4321977,-2671587.11378 43368.1968436,-2671440.89322 43379.6402675,-2671182.90336 43313.5568884,-2671131.88286 43291.9502498,-2671115.53952 43243.9609357,-2671078.88757 43092.8443087,-2671090.43926 42991.6212717,-2671196.60947 42914.044569,-2671289.11929 42825.9077486,-2671336.71855 42572.0730666,-2671312.00059 42456.2206621,-2671076.89134 42154.1107176,-2671082.0 42073.0948167,-2670646.21619 41770.7725124,-2670549.36087 41411.5416074,-2670641.83783 41220.4230273,-2670579.69377 41100.3891944,-2670461.57233 41054.3728152,-2670277.95634 41178.9301638,-2670328.06953 41273.873062,-2670252.93232 41227.9487798,-2670118.29903 40806.9615125,-2669956.29337 40610.2586699,-2669702.75275 40340.049635,-2669659.65338 39921.1537576,-2669797.53049 39960.5756436,-2669573.33109 39872.6389795,-2669184.07627 39671.9550952,-2669040.52498 39406.7478056,-2669141.34144 39136.1733972,-2668866.82136 38836.8436887,-2668984.37024 38304.6990027,-2668723.16953 38068.8250913,-2668407.4196 37827.2261815,-2668417.60116 37693.9436604,-2668299.06987 37541.2888949,-2668269.64414 37429.5074207,-2668367.3914 37408.6397453,-2668600.46011 37285.4746408,-2668606.81703 37153.3178626,-2668542.25996 37061.4702254,-2668272.98896 36821.3515483,-2668244.67263 36727.1781632,-2668358.79194 36532.0910993,-2668337.15941 36322.3374406,-2668111.69556 36070.6920567,-2668114.94904 35630.5244316,-2668177.99754 35290.2509126,-2668015.42242 35229.1237097,-2667850.90161 35108.8547172,-2667806.75421 35076.9851567,-2667537.06321 34941.7217183,-2667493.02013 34842.6814608,-2667159.81748 34653.1710387,-2666970.1989 34830.8299877,-2666750.0318 34591.3133289,-2666700.71633 34638.3132941,-2666523.44579 34753.9550888,-2666369.68962 34663.4662998,-2666295.34382 34364.725538,-2666462.37119 34392.9395116,-2666207.25636 34272.2529212,-2666103.13025 34300.7803761,-2665892.99883 33985.6874966,-2665865.20196 33984.6436927,-2665715.25708 33810.8641397,-2665738.95959 33371.4939154,-2665306.65609 33366.1120661,-2665179.73382 33110.9964801,-2665151.51864 33139.1074685,-2664881.40847 33003.3220819,-2664762.39117 32768.9193046,-2664873.48749 32587.8141972,-2664814.2666 32642.5142018,-2664629.94397 32806.8283288,-2664538.82925 32401.6624984,-2664496.66195 32282.5404599,-2664617.45295 32102.5012729,-2664603.71013 32058.6650076,-2664768.96344 31854.2392837,-2664806.37441 31877.4782186,-2664590.28021 31607.1582769,-2664532.17937 31613.9858749,-2664831.03873 31369.2264773,-2664818.74591 31640.7986369,-2665056.78179 31535.6779871,-2665393.90854 31342.5758211,-2665298.78229 31208.0415978,-2665359.69987 31178.590878,-2665149.96988 30997.8037415,-2665316.17678 30802.7690761,-2665302.53857 30489.1334786,-2665484.66562 30434.7454312,-2665641.99585 29934.5391891,-2665518.51579 29681.5076978,-2665790.19429 29753.1436042,-2665417.80922 29574.0403913,-2665431.05184 29455.2304967,-2665596.82839 29185.6385907,-2665643.69081 28991.6462457,-2665779.99995 28632.398492,-2665872.47295 28485.3319134,-2665641.06642 28326.9808315,-2665871.09955 28092.1694605,-2665816.25062 27915.0497665,-2666222.36214 27556.7401806,-2666449.78911 27225.2886286,-2666227.16306 27031.3995454,-2666378.46815 27048.0644318,-2666618.28112 27168.4406296,-2666677.42536 27214.2602389,-2666797.07081 27202.710787,-2667292.00456 26949.2604493,-2667503.70745 26698.4969822,-2667383.48971 25974.0120842,-2667570.48148 25917.124305,-2667153.49957 25626.0407903,-2667237.00252 25306.2539629,-2667074.77683 25087.7016863,-2667201.76207 24863.8048342,-2666991.88201 24533.9327673,-2667355.57441 24400.7530885,-2667611.42845 24218.1263407,-2667585.70789 23889.3116274,-2668065.36117 23620.9568489,-2668075.22786 23544.445687,-2668321.6908 23266.5639163,-2668399.10492 23162.8521306,-2668579.77638 22998.2201267,-2668625.91047 22828.7688343,-2668769.5507 22635.4697916,-2669005.83122 22237.2110893,-2669275.53114 21889.9564708,-2669260.9554 21630.8165918,-2669158.78982 21152.6623487,-2669117.63337 20864.6414355,-2669282.59498 20652.6822008,-2669280.0728 20461.8971324,-2669303.39594 20189.0663168,-2669209.32296 19992.055384,-2668984.75712 19651.2287252,-2668888.658 19330.6522652,-2668793.41732 19077.6855323,-2668501.25869 18683.6982093,-2668416.02604 18204.4769221,-2668509.33892 17636.6519701,-2668476.80263 17063.5077043,-2668218.86279 16675.4175449,-2667832.16738 16335.9852639,-2667398.14481 15615.6574735,-2666964.77219 15268.738872,-2666855.71498 15028.0273304,-2666780.40968 14643.5337275,-2666443.67232 14313.3550342,-2666262.01639 14000.6979078,-2666012.25569 13606.680897,-2665851.53766 13631.4397448,-2665745.89246 13649.7242939,-2665571.80983 13669.6437106,-2665381.22009 13824.9129058,-2664994.23957 13873.9699345,-2664860.43282 14030.7111088,-2664433.45289 14029.9385203,-2664034.56097 13966.5122214,-2663719.08304 13947.7228042,-2663712.71526 12830.4018635,-2663337.5755 12825.646356,-2663336.60879 11445.640704,-2662997.782 11242.6838613,-2662744.75517 10987.7287401,-2662454.09859 10866.2826337,-2662169.51297 10793.725017,-2661870.59128 10646.1859674,-2661715.65425 10178.6389246,-2661224.02209 10086.8157839,-2661138.18071 10133.3529653,-2660712.96293 10150.7550569,-2660555.38118 10354.0074442,-2660058.59402 10466.3611786,-2659464.96213 10169.8999177,-2659171.59134 9901.52399027,-2658891.52202 9838.83491416,-2658825.97297 9951.65333914,-2658443.28533 9762.64467336,-2658327.12457 9523.18247973,-2658179.82116 9175.16745048,-2658129.24634 9138.39012351,-2658124.00259 8761.34164632,-2658067.63033 8689.98578105,-2657941.65577 8389.62991586,-2657410.86709 7867.43645571,-2657292.51484 7785.82847811,-2657274.08486 7433.19366186,-2656701.16672 7456.59221643,-2656182.12975 7544.80079572,-2655926.58041 7620.83906571,-2655862.5692 7723.71029105,-2655775.37778 7675.29707943,-2655280.83269 7377.74490354,-2654937.97581 7100.93600941,-2654630.96616 6957.24719158,-2654237.55533 7054.58205686,-2653747.49937 7243.61613757,-2653542.2406 7262.71879695,-2653521.61338 7237.41307947,-2653151.37768 6625.06782868,-2652682.72656 6219.41088965,-2652646.04146 5709.86252339,-2652151.68333 5225.07103794,-2651767.62668 5104.84349709,-2651694.47527 4713.03125813,-2651455.24065 4231.5873117,-2651121.64718 4038.18563577,-2650840.0497 3999.80592064,-2650783.82806 3685.55463807,-2650447.57817 3522.04811641,-2650151.77662 2913.68045611,-2649825.05593 2705.35819756,-2649771.50769 2341.29557933,-2649678.04461 2229.08365012,-2649390.38546 2190.15365668,-2649290.67712 2054.23581948,-2649117.15556 1846.30121144,-2649083.59961 1569.80929567,-2649039.5196 1394.14944477,-2648938.2559 1029.73090239,-2648865.78948 685.049064419,-2648900.66258 326.829177153,-2648748.6709 289.659682983,-2648722.93338 33.9823110694,-2648544.23908 -737.04048026,-2648661.03865 -897.621661778,-2648463.19127 -957.569690977,-2648432.61203 -1164.4998083,-2648327.56421 -1267.56435828,-2648025.34213 -1392.16685316,-2647861.73833 -1717.06574076,-2647757.50448 -1693.08433196,-2647465.90239 -1689.86474153,-2647425.38898 -1829.29065226,-2647286.88169 -1971.48308984,-2647145.89394 -1787.1449794,-2646548.75123 -1751.5617887,-2646417.03428 -1557.41613764,-2646045.77529 -1490.30186716,-2645738.3792 -1469.60267892,-2645369.31687 -1575.34882718,-2644786.67329 -1606.81804655,-2644753.89748 -1779.53419488,-2644572.12825 -1901.51351087,-2644245.04048 -2378.68554727,-2643479.9961 -2381.6064234,-2642911.13881 -2333.74187958,-2642675.3597 -2418.20908634,-2642351.0117 -2694.87866005,-2642208.94887 -2896.48627679,-2641969.38948 -2901.86638815,-2641587.50824 -3102.17246275,-2641355.43783 -3088.3490102,-2641221.3712 -3070.54170483,-2641048.78535 -3049.80784762,-2640575.24355 -2972.28101079,-2640073.31672 -3065.25137079,-2639639.04945 -3102.0727338,-2639373.35953 -3194.26270156,-2639016.07015 -3355.33800539,-2638891.20541 -3775.53889196,-2638849.10669 -4104.112092,-2639046.3269 -4315.17433167,-2639248.73736 -4372.28795941,-2639303.11915 -4596.61085047,-2639394.64438 -4866.08117989,-2639245.53076 -4983.74406157,-2639109.36917 -5119.04353241,-2638952.83315 -5301.77568454,-2638913.59921 -5385.8815944,-2638895.6819 -5379.83960481,-2638865.64653 -5338.52816178,-2638657.9052 -5445.07239857,-2638357.7007 -6082.24353987,-2638241.1101 -6587.12316514,-2638243.58448 -6629.36254597,-2638243.87514 -6890.98364737,-2637528.32127 -6874.69411738,-2637498.2153 -6849.52032347,-2637451.55156 -6740.42695465,-2637250.34185 -6625.65715145,-2637038.59532 -6601.96620274,-2636739.99314 -6666.63839761,-2636494.98787 -6689.73091547,-2636408.16436 -6403.09807869,-2635999.77608 -6024.61650648,-2635790.21606 -5758.43738684,-2635642.41599 -5386.34056224,-2635049.47955 -5123.08995007,-2634402.80328 -4927.07281937,-2634011.03703 -4955.1512149,-2633853.26256 -4992.32760797,-2633644.56108 -4679.93684653,-2633165.01387 -4614.10262477,-2633070.08124 -4327.24816951,-2632657.19639 -4086.47836438,-2632194.13899 -3919.36812785,-2631450.64612 -3725.20369923,-2631079.89036 -3953.42045826,-2630750.0254 -4920.81096394,-2630044.81001 -6099.90297423,-2627919.3299 -6171.31693315,-2627382.92722 -6031.09738712,-2625960.25075 -5948.29327958,-2625569.26146 -6007.46043028,-2625397.20124 -5842.23429296,-2625070.13452 -5707.58257148,-2624804.26521 -5700.0943273,-2624401.29444 -6047.94998633,-2624083.74016 -5936.46501495,-2623354.6215 -5881.017981,-2622946.82279 -5654.50254116,-2622480.86468 -5399.25305974,-2621903.73242 -5588.62323294,-2620967.2137 -5847.6703126,-2620368.10376 -5927.44114224,-2620289.66477 -6057.8296199,-2620192.57561 -6271.47707349,-2619945.58511 -6458.65147135,-2619695.41392 -6301.70374351,-2619472.884 -5935.00684987,-2619365.89752 -5891.31130758,-2619066.65729 -5978.0311158,-2618666.32827 -6348.56656984,-2618540.88556 -6441.86373576,-2618165.59597 -7025.69606326,-2617917.63416 -7356.77666471,-2617823.41508 -7414.37914834,-2617806.81196 -7415.36692519,-2617698.83931 -7418.60394149,-2617371.42385 -7586.07422416,-2617151.6101 -7856.61496357,-2617064.97525 -7831.60696071,-2616664.38012 -6507.30618672,-2616562.35212 -5131.08443799,-2616340.9949 -2787.24288929,-2616166.02507 -1459.84721848,-2615750.54823 -1039.77301264,-2615957.13903 -573.734578208,-2615756.99958 196.413400258,-2615728.75006 698.524154363,-2615760.31744 1006.53297062,-2615807.70595 1202.53962488,-2615851.35943 2197.36961078,-2616040.5319 2637.96297738,-2616068.02011 3070.49419293,-2616049.57333 3407.86240768,-2616004.2817 3932.25820542,-2615895.7283 4362.55220382,-2615659.34515 4664.45855718,-2615435.33538 5187.14129228,-2615222.31835 5549.48554527,-2615137.86668 6109.1866215,-2615075.56503 6716.18292315,-2615094.92316 7428.3177858,-2615101.56783 8109.57296439,-2615198.40279 8444.73156043,-2615269.60232 9006.33892271,-2615487.72466 9357.84377955,-2615683.78363 9650.39928098,-2615775.26843 10071.4035781,-2615900.36984 10457.1821849,-2615991.21924 10796.2235606,-2616082.38702 11112.4047676,-2616266.68841 11440.1871597,-2616392.9243 12050.6720136,-2616925.63545 12321.7998035,-2617320.69183 12546.1911671,-2617716.06613 12630.224532,-2618053.91102 12754.471452,-2618314.50023 12948.4060896,-2618495.13344 13196.9848697,-2618588.91503 13979.0971206,-2619073.4608 14213.2452576,-2619140.34698 14423.0230322,-2619115.42224 14971.3718003,-2619076.6917 15414.6613428,-2619062.17193 15695.0661675,-2619095.25117 15997.369911,-2619297.63809 16198.824147,-2619371.74523 16443.671936,-2619358.57862 16794.5363542,-2619205.22496 17539.4862575,-2619152.6585 18497.397231,-2619286.09212 19488.9418706,-2619220.84885 20134.9376203,-2619061.98716 20619.526884,-2619020.69504 21121.2088791,-2618993.78286 21680.4882458,-2618873.50369 22040.8614432,-2618649.10881 22248.806324,-2618355.77174 22539.3652257,-2618155.84679 22946.8599067,-2618024.60697 23716.0777555,-2617867.4113 24130.2582119,-2617800.60928 24472.9150032,-2617617.327 24915.080057,-2617439.36625 25217.5285822,-2617297.34711 25461.5861681,-2617132.23221 25729.6002735,-2617071.92503 25940.2455089,-2617175.46213 26069.2201858,-2617250.56306 26288.2859288,-2617379.53544 26549.1998025,-2617451.23913 26782.3725187,-2617449.6525 26987.3877214,-2617423.76451 27353.8370451,-2617358.28928 27780.340721,-2617303.40258 27925.7648036,-2617371.89316 28148.6305544,-2617545.32625 28353.1196958,-2617699.38981 28535.4987696,-2617799.61936 28734.2769288,-2617885.74131 29178.5124326,-2617976.19127 29727.2726926,-2618001.44897 30228.6536279,-2617969.0464 30893.6082464,-2617918.03662 31406.7417826,-2617850.0655 31885.3133211,-2617881.7998 32296.8564572,-2617979.97001 32758.1467623,-2618116.7898 33196.2063257,-2618439.21036 33362.5047454,-2618857.94979 33459.452666,-2619405.62089 33556.8305474,-2620089.74622 33618.4304152,-2620290.76441 33624.4266675,-2620584.13254 33638.3400847,-2620828.96175 33692.0249465,-2621042.0298 33798.1557343,-2621286.2307 33811.4690658,-2621479.57975 33845.3215209,-2621716.27525 33870.986302,-2621925.03519 33912.1230979,-2622093.70213 33913.9044831,-2622355.10829 33954.8792201,-2622463.29512 34052.0020078,-2622559.10298 34150.2891638,-2622642.40677 34319.4519131,-2622710.73196 34930.3407297,-2622906.00519 35623.6864242,-2623355.63446 36472.6893716,-2623579.27294 37073.9499833,-2623682.63915 37820.7573699,-2623690.04396 38853.2846655,-2623780.47344 39234.1895497,-2623858.35032 39631.6150948,-2623830.14979 40028.5312973,-2623763.96562 40728.4386497,-2623454.79799 41420.1341985,-2623187.67386 41817.3288403,-2623125.98801 42365.943046,-2622986.79721 42839.3349095,-2622958.0816 43270.6661518,-2622955.14389 43523.3975804,-2622818.46941 43920.3580711,-2622722.79852 44359.7389927,-2622727.80389 44664.3682559,-2622725.72968 44960.5977713,-2622774.6948 45180.2209076,-2622730.71441 45303.1048923,-2622609.92008 45320.8343639,-2622277.41663 45267.1111503,-2621837.93726 45223.3270935,-2621610.31543 45255.5673815,-2621390.17344 45202.6512661,-2621069.14641 45294.3462111,-2620882.08822 45234.6795832,-2620781.02971 45174.0730565,-2620578.51314 45240.3974544,-2620409.1214 45350.3537515,-2620408.3737 45477.8776094,-2620491.97683 45561.5962754,-2620381.44627 45560.617551,-2620237.50361 45415.6028848,-2620044.05793 45355.9177132,-2619976.9874 45252.732011,-2619723.77793 45175.7293649,-2619572.35458 45233.3268212,-2619369.03418 45316.6064904,-2619157.04229 45349.1918063,-2618987.38024 45254.7344738,-2618768.09901 45363.7741256,-2618632.40546 45506.7779147,-2618529.96956 45658.6789178,-2618486.45263 45682.963633,-2618308.84998 45817.4708179,-2618206.47208 45824.7013908,-2618019.9885 45924.092372,-2617861.86892 45949.8148783,-2617748.73398 45915.0241518,-2617630.51183 45795.6742036,-2617462.38142 45794.639364,-2617309.94192 45750.7211449,-2617098.81414 45665.1080206,-2616930.45437 45765.6486033,-2616794.31945 45781.2648576,-2616591.28452 45796.4584217,-2616362.76138 45921.7432609,-2616116.49732 45836.5884438,-2616015.61049 45733.4673752,-2615771.39556 45731.1149386,-2615424.53259 45610.8281464,-2615154.94251 45524.1020329,-2614859.13364 45664.6642115,-2614359.35428 46147.5210946,-2613256.46559 46194.2436693,-2612664.35533 46266.6266913,-2612097.06259 46318.3577852,-2611616.87936 46592.3121852,-2610515.90821 46555.7347669,-2609541.49378 46596.0595157,-2608814.97272 46487.9569644,-2608424.33826 45894.9404983,-2607540.64831 45983.2727082,-2607224.15996 46477.8966535,-2606934.41927 46989.6970312,-2606930.96501 47728.7980816,-2606650.573 47989.7432716,-2606581.83578 48135.4148,-2606651.82821 48494.5032957,-2606905.81566 48593.6090435,-2606926.63942 48719.5451771,-2606960.77741 48861.0428816,-2606967.81989 48933.4098612,-2606914.85013 49058.5290535,-2606902.01023 49172.0036579,-2606941.23053 49276.9617494,-2606940.52242 49324.326336,-2606774.76145 49335.5903578,-2606629.23695 49419.8412893,-2606559.69308 49593.282943,-2606486.04896 49653.3508702,-2606425.1653 49745.9024229,-2606363.56278 49887.2648321,-2606350.61373 49931.0931384,-2606253.35266 49934.2456299,-2606127.87602 49957.6703934,-2606006.76109 50062.7130701,-2605981.56159 50160.1661103,-2606053.87856 50212.9179694,-2606094.00846 50285.6656801,-2606097.51655 50354.1959494,-2606068.56468 50406.1019932,-2605983.24508 50454.4785799,-2605930.4377 50555.6029933,-2605954.24722 50648.9192765,-2606006.09935 50746.6685752,-2606122.39844 50819.3891792,-2606121.90817 50883.4593389,-2606024.51105 51008.3049033,-2605971.18831 51101.2941977,-2605974.56003 51287.2457344,-2605977.30514 51477.6065218,-2606040.99852 51676.3142813,-2606156.61675 51773.1399761,-2606135.97131 51820.9127286,-2606030.68736 51815.6309258,-2605840.29199 51790.6834617,-2605735.49815 51797.6771865,-2605549.51835 51869.8283985,-2605464.56277 52156.3274176,-2605405.65306 52273.2870542,-2605368.87813 52377.8871848,-2605315.19271 52379.5456498,-2604967.80791 52349.5096506,-2604701.10721 52227.2864825,-2603956.20054 51988.8957034,-2603476.97885 51940.2835031,-2602752.06701 51927.582258,-2602647.19017 51982.9969855,-2602488.87414 52076.2664309,-2602385.28379 52306.301101,-2602291.2699 52540.2759063,-2602114.2597 52719.6879759,-2601850.64812 52690.4863502,-2601670.40962 52508.7357909,-2601474.70242 52029.5451704,-2600974.6039 51935.0408792,-2600745.82099 51934.0098165,-2600592.38269 51987.2756162,-2600411.58918 52189.2543032,-2600344.75559 52358.64046,-2600299.6334 52663.5918304,-2600122.64769 52978.2104332,-2599971.08837 53251.7445872,-2599730.33768 53387.5530012,-2599523.00038 53369.1489932,-2599275.71323 53302.1173363,-2599155.7066 53227.4378149,-2599087.73252 53022.3429231,-2599062.61867 52859.0699631,-2599087.706 52542.2027491,-2599127.81947 52159.9471097,-2599218.35436 51950.8075699,-2599149.28356 51841.6547546,-2599083.53999 51873.3933749,-2598897.39284 52013.7883295,-2598628.54545 52033.9497433,-2598392.99362 51857.6980801,-2598197.24611 51578.2959387,-2598122.64801 51308.760509,-2597917.02963 50823.9948252,-2597442.44934 50881.9811459,-2596250.97496 50739.4864066,-2596057.99753 50546.016294,-2595903.34844 50397.0776073,-2595718.41099 50176.8060314,-2595517.45709 50039.559725,-2595436.40512 49966.5391575,-2595280.44814 50004.5145662,-2595092.25803 50200.4837533,-2594948.49372 50386.0465631,-2594892.76914 50615.2652495,-2594825.25618 50712.1165004,-2594584.19021 50804.3471609,-2594474.11017 50782.1302868,-2594403.28343 50600.4229177,-2594251.05316 50408.7428038,-2594214.34991 50292.497539,-2593985.20712 50108.008986,-2593417.63652 49959.8329833,-2593309.16573 49860.2365962,-2593140.38999 49788.50219,-2592691.02252 49916.3700233,-2592565.70895 50090.4558706,-2592400.59965 50268.9104135,-2592104.00596 50491.9375645,-2591932.57186 50603.7113312,-2591455.98606 50497.4488148,-2591112.31335 50368.8936815,-2590686.31707 50378.1797777,-2590467.82873 50403.1810367,-2590095.28721 50586.6257572,-2589722.18697 50753.7171344,-2589332.70186 50734.4866892,-2588922.96831 50511.9529542,-2588382.63577 50557.7184508,-2587863.00403 50334.2691431,-2587147.73367 50090.145895,-2586630.03403 49852.2841512,-2586226.75371 49362.7129483,-2585254.83661 49194.2923452,-2584996.04357 48874.1875013,-2584739.76046 48560.1902106,-2584424.95489 48344.2473293,-2584010.52694 48188.392726,-2583612.19262 48065.1636749,-2583159.15764 48100.6674941,-2582748.55135 48229.3214276,-2582364.81617 48254.3760536,-2582036.25332 48220.4005436,-2581850.53817 48076.8181421,-2581643.55913 47988.8407119,-2581567.66856 47862.6635266,-2581497.53038 47742.0603031,-2581476.33973 47589.1211291,-2581515.84532 47387.5315282,-2581643.14742 47203.2922377,-2581786.32929 47065.7313703,-2581770.75001 46983.2149165,-2581689.32473 46839.3421076,-2581438.8603 46722.8893125,-2581215.20473 46595.4741791,-2580959.13187 46413.7639829,-2580768.89979 46083.8860122,-2580546.66331 45633.9429092,-2580309.23003 45347.9754209,-2580075.70381 45182.4721345,-2579879.86422 45060.40838,-2579601.76003 45012.9838551,-2579235.18545 44232.592392,-2578540.08299" style="stroke-linejoin:round;stroke:#000;stroke-width:1px;fill:none" /></g></g></svg>