<svg xmlns="http://www.w3.org/2000/svg" baseProfile="full" height="123862.477597" version="1.1" viewBox="-18135.652197,2733611.201519,67848.678051,123862.477597" width="67848.6780507"><defs><style type="text/css">polyline,line,rect,path,polygon,.polygon{fill:none;stroke:#000;stroke-width:1px;stroke-linejoin:round;}</style></defs><g fill_rule="evenodd" transform="scale(1,-1)"><g class="id" id="66147"><polygon class="_66147" id="None" points="25014.2638083,-2745586.79603 24836.5053365,-2746034.77749 24755.7475814,-2746371.76506 24784.7327882,-2746838.25186 24755.7199052,-2747304.2367 24698.7165887,-2747477.72964 24527.7090892,-2747921.21078 24494.4548499,-2748105.70399 24592.935877,-2748660.68898 24861.1640081,-2749121.18149 25017.649984,-2749431.17558 25055.3897599,-2749747.16598 25299.1240144,-2750009.16391 25623.6037888,-2750324.66219 26023.8306398,-2750640.16252 26172.5639375,-2751036.1526 26275.3023051,-2751312.14552 26379.7883788,-2751665.63553 26406.0284577,-2751980.62458 26268.7782961,-2752168.11371 26156.7783382,-2752316.60502 26038.2765417,-2752542.09327 25943.2721765,-2752832.07971 25914.0190957,-2752986.07306 25886.266198,-2753132.06675 25884.0158785,-2753147.06611 25875.2646743,-2753204.0637 25838.2598307,-2753437.05377 25794.0057976,-2753652.0443 25774.2539853,-2753749.04002 25775.2495798,-2753914.03364 25822.7421363,-2754126.02661 25923.2336634,-2754298.0225 26136.2190174,-2754534.01877 26416.2023158,-2754742.51785 26608.6879555,-2754991.01293 26719.17537,-2755296.00343 26879.4114705,-2755572.49631 26966.1525285,-2755774.99021 27186.1377491,-2755986.98718 27366.1235853,-2756235.98146 27416.6138785,-2756522.47064 27500.8521476,-2756831.95962 28134.5663271,-2757149.96258 28168.5558049,-2757490.94853 28604.7758342,-2757892.94224 28837.5027373,-2758370.42691 29258.7272512,-2758608.42723 29626.9538421,-2758850.42591 29812.4371996,-2759150.41691 30211.9110891,-2759424.91472 30449.3892037,-2759820.4023 30931.8610027,-2760007.4063 31067.0969672,-2760284.39653 31232.8256394,-2760776.87688 31143.070399,-2761140.85654 31032.5694915,-2761383.84161 30990.3158564,-2761604.32957 30936.0603579,-2761922.8123 30974.0540628,-2762094.80467 31018.0481251,-2762241.29844 31034.0470795,-2762250.79837 31203.0360978,-2762347.79778 31208.5357438,-2762350.79777 31457.5208926,-2762438.79968 31938.7368981,-2762805.29331 32182.716007,-2763127.78292 32453.945859,-2763362.27768 32739.6723893,-2763691.76771 32973.9041613,-2763918.7617 33311.123387,-2764416.7437 33522.3533854,-2764754.23084 33644.336091,-2765175.71098 33550.3274682,-2765729.17829 33346.8150131,-2766710.61914 33298.0569463,-2767170.09241 33409.5419254,-2767549.57374 33411.2804085,-2768050.04558 32739.2996562,-2768899.48275 32814.5373471,-2769276.46299 32559.291864,-2769753.93048 32379.2910647,-2770296.39586 32315.2869882,-2770684.37238 32302.0292271,-2771119.34713 32490.2626819,-2771412.83382 32571.2523302,-2771707.31829 32917.9741773,-2772122.80063 33081.9619547,-2772259.29571 33531.9223294,-2772949.26328 33801.8901711,-2773819.21605 33911.8753183,-2774277.19031 33981.8659154,-2774569.1738 34461.8224832,-2775379.13246 34799.5413526,-2775982.1008 34881.7837714,-2776129.09301 35121.7559527,-2776909.04803 35229.4964386,-2777078.53906 35012.5110907,-2777017.53944 34741.7670571,-2777728.49044 34910.9937494,-2778574.43941 33462.3180762,-2779823.84056 33151.3233343,-2780977.26414 32914.3208811,-2782533.66316 32203.6006134,-2784090.55767 32188.345501,-2784783.01369 35313.6176236,-2788042.82509 35423.359557,-2788157.31815 35050.3751094,-2789814.20529 35006.1271198,-2790010.19199 34978.6242056,-2791129.61703 35178.8579339,-2791967.06158 35198.1063983,-2792047.55623 34901.1239638,-2792959.49428 34841.627564,-2793142.4819 34757.881489,-2794229.90897 34432.1528002,-2796218.77602 35317.0945693,-2797221.20787 36394.5226531,-2797863.66231 37296.9622466,-2798506.11595 37653.9382723,-2798760.09732 37993.4154338,-2799002.07941 38768.8618602,-2799217.56164 39851.788512,-2800063.49729 40494.7427353,-2800131.48948 41520.6705736,-2800578.95197 42273.8671149,-2800907.92374 42437.1111078,-2801883.85074 42220.6328626,-2802703.29197 42271.3879051,-2803786.21214 42372.8850081,-2804293.67406 42271.4021334,-2805292.10207 42440.6436815,-2805664.57312 42406.9007456,-2806087.54264 42660.6466187,-2807305.95091 42508.9155362,-2807925.40786 42389.9445432,-2809403.80283 42528.198279,-2810309.73573 42498.2016211,-2810386.23072 42370.4659116,-2810713.20936 42295.234009,-2811493.65505 42295.2398489,-2811839.13055 42580.7269149,-2812259.59578 42625.7293366,-2812574.57264 42576.9885024,-2812889.55123 42055.2768714,-2812980.05437 41935.0377472,-2813115.04711 42025.0406471,-2813610.51082 42145.286817,-2813850.99175 42190.2885896,-2814105.97309 42115.2976228,-2814301.46093 41890.0656076,-2814421.45701 41709.8301301,-2814526.45328 41326.3651792,-2814966.43061 41261.8727108,-2815122.92119 41019.4011469,-2815712.38599 41022.4038957,-2815855.87621 41034.4148596,-2816418.33795 41132.1730971,-2817104.28967 40516.97746,-2817707.76302 40208.7545308,-2818009.74997 40194.5079114,-2818118.74313 40177.2619955,-2818249.73492 40163.5152742,-2818354.72835 40313.7689318,-2818940.18658 40171.0608233,-2820300.10181 40153.8160216,-2820465.59159 40178.5762354,-2820937.06073 40339.3272645,-2821379.52834 40268.849607,-2822062.9867 40487.5980539,-2822522.45176 40678.0924846,-2822760.43151 40709.8501265,-2823109.90855 40869.3481731,-2823399.38582 40479.1383611,-2823954.86207 40328.9015432,-2824089.85796 40178.6746111,-2824570.33258 40163.1781522,-2824659.82752 40033.2078357,-2825402.28594 40022.7103845,-2825466.78233 40143.2136238,-2825819.75732 40153.2189071,-2826014.74521 40366.2170579,-2826375.21692 40491.2184641,-2826663.69564 41004.6943098,-2826882.16624 41609.4127228,-2827044.63691 41770.1603406,-2827272.61773 42190.6380419,-2827377.5974 42445.8783773,-2827558.07775 43001.3470788,-2827648.05335 43589.3187978,-2827890.01795 43767.0602271,-2827963.00715 43962.3022306,-2828083.4927 44352.5340962,-2828263.46745 44599.0244576,-2828427.44819 44980.004369,-2828538.42724 45138.7472038,-2828617.91633 45329.2380133,-2828697.4042 45662.7172753,-2828713.39072 45900.7055599,-2828808.37565 46122.9448631,-2828903.86106 46281.6894693,-2829030.84679 46503.9269164,-2829078.33516 46662.6653734,-2829046.3311 46837.4108086,-2829221.31292 46884.9157929,-2829427.29766 47075.4711717,-2831102.18212 47081.7251729,-2831208.1751 47121.2504751,-2831870.63143 47321.739542,-2831911.62032 47805.7087591,-2831911.59959 48257.9298101,-2831913.07994 48431.6686422,-2831914.07231 48395.7164826,-2832944.00781 48183.3123269,-2834746.40453 48119.8536716,-2835539.85889 47925.1226277,-2835689.85907 47646.8898533,-2835699.37171 47464.401088,-2835705.37998 47290.1622594,-2835721.38723 47091.6737072,-2835713.39702 46980.430314,-2835713.40223 46869.43913,-2835761.40457 46797.9466669,-2835832.40371 46623.4558509,-2835808.91322 46512.2134765,-2835832.417 46393.2230421,-2835888.41924 46228.9794239,-2835818.93089 46077.2334934,-2835714.94393 45894.7415791,-2835659.45551 45704.0019427,-2835643.96508 45553.7608368,-2835648.47163 45386.7695196,-2835627.48037 45284.5236949,-2835589.48716 45208.5275244,-2835577.49126 45202.5458788,-2835977.46863 45193.5745407,-2836594.934 45196.9300083,-2838833.8101 45506.4158808,-2838888.29209 47671.3150926,-2839269.16227 47607.8508258,-2839888.63081 49336.51408,-2840097.0268 48857.5660642,-2840550.52701 48701.8331588,-2840703.52687 47465.9669526,-2841919.02772 47046.7570358,-2842248.53314 46993.0121327,-2842290.53386 46582.3032585,-2842655.53727 46671.5510928,-2842700.03012 47032.2923975,-2842880.50105 47450.531512,-2843074.4678 48274.7601267,-2843456.40126 47775.8886776,-2845232.83947 49053.8883973,-2846285.21011 48866.9390794,-2846954.68862 48806.7051542,-2847165.6821 48447.5362791,-2848185.65605 48072.7963895,-2848068.68505 47893.5821531,-2848507.67605 48156.8289757,-2848648.15302 48383.145981,-2849851.08418 48263.2140273,-2850809.05011 47283.2955663,-2851423.08872 46471.299319,-2850967.65979 46318.8000818,-2850882.17297 44743.342289,-2850548.28433 44455.5998661,-2850487.3042 44291.6069543,-2850498.81365 43693.6326019,-2850542.34779 43563.8880803,-2850551.35515 41320.9797478,-2850711.97912 41146.9849164,-2850694.48954 40947.7398038,-2850656.50204 40175.7687992,-2850696.04342 38964.5589174,-2850682.60933 37836.0868105,-2850510.17406 36654.1278636,-2850580.73179 35958.9201152,-2851004.25339 35370.9509673,-2851279.77414 34760.9948778,-2851826.78829 34111.2771562,-2852129.8113 33416.3033267,-2852295.83986 32906.0765992,-2852514.85808 32543.3657063,-2853164.85892 31969.1815502,-2854297.8596 31255.7507667,-2855468.86841 30696.5358255,-2855997.88417 29442.5743355,-2856360.43439 29279.8549003,-2856987.93133 28642.6335776,-2857415.95296 27976.8881359,-2857296.98356 26752.8776596,-2856617.54442 25658.8611288,-2855783.09998 25473.5677875,-2854556.62669 25015.8010928,-2853886.65505 24902.0471049,-2853720.16209 23693.810864,-2853507.70805 23452.8135921,-2853465.21694 22118.8363928,-2853474.7604 19690.3620624,-2853020.34033 18156.3909617,-2853217.87869 18097.3550086,-2851775.40313 17635.3552496,-2851468.91982 14269.4203606,-2851966.48652 12663.6938708,-2851952.01695 12765.4314599,-2851336.02441 12816.4163932,-2850524.03654 13822.6149973,-2848657.05225 13745.3595584,-2848272.06122 13473.5914195,-2846917.59409 13354.8087794,-2844803.14444 13619.5363352,-2843828.1643 14768.985619,-2842607.6772 15999.1164086,-2837781.30215 16141.8522832,-2837220.81849 16009.1048381,-2837104.8246 15663.3616272,-2836802.34046 11680.7396576,-2836439.908 10327.5327096,-2836316.42712 9003.32354676,-2836066.44819 7142.63142807,-2835715.47467 6342.15138951,-2834737.01233 5395.17902179,-2833969.5436 4381.70868101,-2832803.58855 3201.7472477,-2831881.1253 1510.30685903,-2831308.14948 1053.82279276,-2830689.17256 809.081627671,-2830481.68039 178.104808146,-2829946.20054 202.853720573,-2828985.23682 -125.883624796,-2827820.78182 -671.112101328,-2827417.79747 -1162.84258959,-2827273.30282 -1114.59397604,-2826673.32674 -992.098046473,-2825570.87142 -1881.81023673,-2824500.91464 -1865.30928037,-2823245.96751 -2219.54267993,-2822220.01104 -2348.7858834,-2821430.04522 -2849.26307182,-2820929.5664 -3158.49881851,-2820620.07951 -4671.43347616,-2821237.54847 -4996.66871673,-2821106.05328 -6231.3620915,-2820607.5711 -7335.56298405,-2820680.56317 -8931.48969926,-2820409.56735 -9279.72221174,-2820111.57895 -9551.70510327,-2819289.11515 -10235.673528,-2819294.61092 -10795.6473446,-2819260.10905 -11356.3743374,-2819718.0841 -11574.1098501,-2819076.61251 -12635.2887638,-2815988.25323 -12628.7854668,-2815415.78129 -12382.0406721,-2814252.34017 -12575.5248372,-2813150.39402 -12716.5111135,-2811908.45588 -12347.2695247,-2809712.0698 -11962.7755652,-2805964.76594 -12123.0154995,-2805421.79398 -11941.2696057,-2803349.40397 -12287.750605,-2803086.9171 -12934.7149938,-2802596.94175 -12908.9657934,-2802338.45564 -12875.9668476,-2802004.97356 -13069.4558425,-2801693.48986 -12673.4759221,-2801079.52355 -12446.2369107,-2800344.06337 -12745.720076,-2799821.09105 -12826.2151737,-2799384.11447 -12528.4801013,-2798343.17087 -12993.4546664,-2797917.69344 -13450.4295179,-2797317.7256 -13329.9355279,-2795978.79827 -13751.6625967,-2795408.32921 -13717.9144788,-2794934.35498 -13195.1929268,-2794542.37612 -13224.1923618,-2792821.46932 -12716.4706333,-2791941.51634 -12768.21838,-2791490.54069 -13934.9083455,-2789708.13872 -14611.6265947,-2787711.24813 -15002.1104957,-2786138.83401 -14809.62527,-2784916.89875 -15772.0737716,-2784913.40278 -16379.5416223,-2784785.9122 -17240.495213,-2784750.91792 -17938.9574397,-2784702.42382 -18085.6996323,-2784660.42681 -17992.7065775,-2784277.94723 -17693.2251242,-2783825.47031 -16740.2813424,-2782874.51665 -15799.3450737,-2780364.14429 -15748.3556078,-2779078.71088 -15421.3769798,-2778377.24495 -15144.643171,-2778067.25904 -14915.156482,-2777820.27015 -14579.9255984,-2777497.28438 -14470.4328713,-2777229.79721 -14183.7023264,-2776463.83384 -14054.7108946,-2776145.34889 -13753.7296429,-2775579.87496 -13278.2541403,-2775424.37947 -12838.7792152,-2774884.90305 -12813.7991818,-2772182.03294 -12784.3077674,-2771223.07787 -12782.3158799,-2770196.1256 -12764.8206574,-2769702.14819 -12653.5807758,-2769085.17543 -11922.8754227,-2767635.73441 -11160.9209186,-2766124.2941 -10704.1912584,-2766025.7947 -10395.7084719,-2765494.81489 -10716.6994294,-2764927.8413 -10579.9588043,-2764473.85915 -10790.7044796,-2763940.88294 -10773.2057622,-2763873.88555 -10642.7153104,-2763373.40495 -10222.9866984,-2762842.92291 -10175.4921956,-2762407.43994 -10050.2600798,-2760868.99916 -9729.52841714,-2760153.02375 -9692.53432708,-2759622.54337 -9717.2898301,-2758882.07099 -9752.54339572,-2758334.09128 -10186.0339136,-2757673.11903 -10358.7816991,-2757266.13515 -10186.0440104,-2756624.15595 -10371.2951304,-2755871.68365 -10381.8012566,-2755237.20515 -9927.07532302,-2754341.72998 -9671.83860792,-2753831.74379 -9470.6046684,-2752848.77253 -9446.11109117,-2752281.28956 -8730.13766639,-2751738.29875 -8113.40497931,-2751824.79061 -7817.41667509,-2751466.79849 -7115.69522923,-2750400.32288 -6361.47063016,-2749747.83493 -5963.23615297,-2749025.85114 -5693.74704643,-2748426.36462 -5271.75940571,-2748137.36914 -3916.29877259,-2746849.89257 -2624.83240154,-2745614.91496 -2352.84379412,-2743726.95241 -2223.34885526,-2742820.46881 -1718.86017985,-2741796.98515 -1466.11652043,-2740692.00208 -1339.8692644,-2740226.50871 -1330.87058964,-2739570.51787 -833.878772391,-2738301.53316 -611.881673405,-2737956.03691 -512.633046093,-2737602.04073 -153.386973218,-2737265.0441 5.36140865807,-2736253.05374 534.107074992,-2735858.55731 696.106278153,-2735340.06152 871.605103657,-2735238.06248 999.354281486,-2735164.0632 916.605494729,-2734711.56619 819.606780471,-2734180.56932 928.356796805,-2733727.57191 937.606805961,-2733688.57212 1121.35602534,-2733611.07279 1594.60353935,-2733687.57339 1743.35248185,-2733806.57316 1773.35103847,-2734286.57057 1794.60074544,-2734348.57026 1989.59786983,-2734920.56712 1991.09784617,-2734925.06709 2294.09535606,-2735044.06723 2421.59427512,-2735094.06732 2553.59315707,-2735140.06747 2620.34258353,-2735163.56756 2957.59021971,-2735143.5691 3989.33305927,-2735082.07488 4292.83117741,-2735031.57712 4407.33073267,-2734973.57828 4558.33032458,-2734875.07998 4593.83023379,-2734852.08039 4611.83018754,-2734840.58059 4627.83014885,-2734830.08078 4836.07968478,-2734694.08319 5414.57777981,-2734444.58929 5433.32772402,-2734436.5895 6048.32386734,-2734421.5949 6299.5704377,-2734610.59597 6326.32010775,-2734626.09611 6332.57002213,-2734630.59614 6495.06794518,-2734729.09701 6638.06558655,-2734865.09744 6927.06064015,-2735140.09829 7131.05717576,-2735318.09901 7355.80323352,-2735514.09981 7380.05280186,-2735535.0999 7934.0455617,-2735754.10426 8007.29482666,-2735761.60505 8389.54095538,-2735800.10932 9693.27754643,-2735906.62565 10469.7701452,-2735907.13713 10537.2694952,-2735907.13817 10789.0189152,-2735790.14324 11764.5173538,-2735337.16372 12296.266965,-2735090.17545 12516.5169025,-2734987.68044 14066.237413,-2735727.2038 14435.230385,-2735875.70995 14612.9769284,-2735947.21296 15378.9602431,-2736311.22561 16095.94291,-2736687.23741 16715.9249988,-2737102.74667 17232.9095525,-2737444.25454 21980.1470313,-2743845.754 22664.3701474,-2744179.26486 22845.1062449,-2744499.26167 23967.0730065,-2744607.79172 24516.7944028,-2745051.2961 25014.2638083,-2745586.79603" style="stroke-linejoin:round;stroke:#000;stroke-width:1px;fill:none" /></g></g></svg>