<svg xmlns="http://www.w3.org/2000/svg" baseProfile="full" height="84904.4798839" version="1.1" viewBox="-30217.587254,2922431.052000,108165.979956,84904.479884" width="108165.979956"><defs><style type="text/css">polyline,line,rect,path,polygon,.polygon{fill:none;stroke:#000;stroke-width:1px;stroke-linejoin:round;}</style></defs><g fill_rule="evenodd" transform="scale(1,-1)"><g class="hogares departamen mujeres departam_1 toponimo_i tot_pob varones viv_part viv_part_h" id="66140"><polygon class="_66140" id="None" points="77850.2940376,-2939241.49682 74215.9344586,-2938614.06965 71368.0825755,-2946455.20147 68975.6326037,-2952657.61844 66239.7666508,-2959428.07222 65177.5269049,-2962204.7277 60320.9760058,-2974902.25266 59595.0241168,-2976800.23415 58981.0445186,-2978404.95678 59921.7606187,-2978893.57332 58112.7823984,-2986450.70238 57148.0098738,-2986702.07407 57041.7599208,-2986892.33798 55367.3713607,-2989885.9004 50857.3037881,-2997949.60323 50558.2479363,-2998157.86823 50415.3254464,-2998291.94182 50377.1575272,-2998301.23548 50305.1806705,-2998301.7937 50273.8321675,-2998288.04048 50233.7809415,-2998247.86166 50223.5223969,-2998181.95844 50236.0995907,-2998127.875 50240.3868074,-2998068.3573 50218.428594,-2998008.54324 50163.5140082,-2997985.4752 50064.6349169,-2997997.73893 49911.3198972,-2998080.90644 49822.3581326,-2998115.08758 49708.1833893,-2998120.97164 49569.4078818,-2998113.05007 49523.0350987,-2998127.90591 49488.3814351,-2998139.17178 49406.2487694,-2998183.7973 49300.6700572,-2998234.60311 49203.1544978,-2998229.36083 49123.8501033,-2998187.48669 49091.995647,-2998076.26234 49044.4058794,-2997934.16793 48985.2850024,-2997852.14747 48889.8616991,-2997794.40226 48809.4646635,-2997805.02297 48781.3573002,-2997854.7282 48792.9835675,-2997968.10901 48818.465943,-2998063.387 48815.5445034,-2998137.89059 48794.7701696,-2998198.53619 48730.4320582,-2998249.52216 48639.3697402,-2998270.72302 48575.773607,-2998320.70353 48548.2301652,-2998410.89419 48513.3072381,-2998484.14642 48453.7118728,-2998566.58771 48348.0399583,-2998669.88118 48295.2214374,-2998723.77724 48231.9565963,-2998784.25269 48150.4513349,-2998845.36951 48122.0222768,-2998853.58797 48026.015579,-2998881.82563 47900.4307072,-2998866.80365 47739.5930852,-2998818.06358 47560.05977,-2998807.95877 47419.8667921,-2998778.55359 47195.6824048,-2998779.7922 47129.3251608,-2998828.29482 47032.4754801,-2998909.02596 46959.5600299,-2998917.58942 46886.7200527,-2998903.65789 46771.4258462,-2998797.57847 46713.9220212,-2998698.54902 46652.9503107,-2998603.54542 46560.8254723,-2998552.27256 46409.6935747,-2998530.44999 46318.6013468,-2998515.66005 46195.067509,-2998539.61213 46159.880642,-2998578.87534 46106.7011787,-2998586.28592 46071.184901,-2998583.06213 46035.6414921,-2998576.33941 45915.2596493,-2998587.77014 45860.9525607,-2998578.6935 45833.288477,-2998524.4213 45850.8179883,-2998464.30009 45850.0972597,-2998371.32845 45838.7751339,-2998329.4265 45806.0874331,-2998304.18613 45750.6120946,-2998305.61591 45684.93054,-2998344.61564 45665.6340839,-2998370.259 45636.6913375,-2998408.97396 45616.3622531,-2998462.61849 45625.7702584,-2998515.53263 45631.3751634,-2998561.47796 45626.2992211,-2998616.00402 45593.0496605,-2998647.25423 45559.4590805,-2998634.51782 45521.6023311,-2998587.32288 45483.0694396,-2998549.63085 45450.2693064,-2998509.89486 45404.7966652,-2998479.75478 45403.2932452,-2998479.26656 45339.4308266,-2998462.76575 45218.5527087,-2998474.7001 45166.318513,-2998475.10501 45114.0843075,-2998475.50991 45081.2298919,-2998493.26036 45063.706112,-2998521.8893 45067.5886593,-2998571.34723 45071.7366399,-2998622.80262 45068.8538215,-2998702.30574 45040.9979443,-2998784.50188 44991.7279769,-2998844.86937 44953.2086458,-2998905.65341 44922.1812928,-2998997.8718 44922.9254128,-2999093.8429 44902.011246,-2999136.49482 44855.8294185,-2999143.85123 44813.1484086,-2999119.18818 44788.0492861,-2999073.39385 44755.8651219,-2999048.6494 44716.768321,-2999034.9559 44666.8704863,-2999014.34782 44638.3538092,-2998979.07743 44628.0990674,-2998913.67266 44637.4198674,-2998858.6136 44644.5979381,-2998849.56011 44676.774294,-2998808.82039 44742.9210556,-2998765.31793 44774.5006826,-2998712.08587 44763.5117278,-2998648.68634 44702.7509343,-2998613.16602 44610.8056978,-2998617.37792 44532.910477,-2998628.47922 44397.0868554,-2998647.0279 44345.1876666,-2998658.42757 44274.4142654,-2998685.46985 44230.3751036,-2998711.30514 44181.6067276,-2998739.6765 44108.5277703,-2998791.73072 44034.3250991,-2998827.79749 43962.2438672,-2998847.35174 43889.1319144,-2998862.91495 43822.0762811,-2998885.92943 43768.9777241,-2998903.8369 43698.6090955,-2998950.87139 43660.0042873,-2999000.65896 43639.2294701,-2999061.30571 43607.455961,-2999089.54542 43565.1351818,-2999111.36844 43515.318532,-2999101.25712 43475.942565,-2999051.57417 43471.7034877,-2998956.12956 43467.7899195,-2998902.67252 43442.4408446,-2998856.87987 43417.368825,-2998814.58424 43385.0760772,-2998775.84374 43301.5019902,-2998731.50214 43238.2203079,-2998725.49417 43128.9560562,-2998720.34248 43040.4550224,-2998717.52926 43026.4552723,-2998717.13788 42897.7276699,-2998716.13608 42833.9266768,-2998707.63268 42788.6764594,-2998673.99134 42752.3074985,-2998560.79973 42705.58112,-2998465.68417 42595.7760906,-2998487.53021 42524.8821207,-2998499.07704 42461.1779053,-2998503.06991 42383.0612792,-2998485.67946 42290.4547703,-2998436.90859 42222.9765156,-2998405.43891 42155.0585357,-2998349.4783 42112.129393,-2998292.82415 42083.2000498,-2998236.56139 42054.7646385,-2998211.7875 42000.0946233,-2998188.21665 41941.2705963,-2998209.16768 41909.7175526,-2998265.8991 41906.7956547,-2998340.40453 41896.8758117,-2998414.96419 41837.4934281,-2998557.39159 41749.7628375,-2998654.04934 41645.0430477,-2998719.34603 41527.0519502,-2998749.25376 41438.3276073,-2998749.94133 41360.2416735,-2998736.54966 41300.4838236,-2998701.52086 41219.0230052,-2998639.66638 41139.5791467,-2998547.80307 41057.4460115,-2998495.95144 40996.8007528,-2998475.42611 40915.5488145,-2998505.04907 40834.6841569,-2998584.65769 40770.0336366,-2998724.62701 40749.359111,-2998798.27056 40744.4785944,-2998845.79762 40750.1338139,-2998898.24191 40748.0645049,-2998953.74538 40735.1630609,-2998998.3353 40706.8706516,-2999056.54144 40670.1252899,-2999088.3191 40617.6790375,-2999093.72442 40570.1190052,-2999084.59516 40543.624704,-2999052.30781 40535.3209626,-2999012.88107 40537.6634424,-2998960.37476 40555.6507201,-2998894.75016 40573.2215253,-2998807.63364 40570.1296249,-2998731.17488 40556.5774307,-2998691.78882 40519.6132946,-2998663.08178 40459.2545184,-2998679.54586 40406.9494952,-2998735.43863 40339.4528411,-2998862.93304 40279.2257207,-2998896.39232 40207.9165026,-2998918.93995 40181.2764938,-2999029.12171 40214.7784321,-2999094.84728 40218.7810274,-2999159.80168 40221.0864942,-2999199.27495 40244.0603652,-2999325.56852 40234.1018618,-2999395.13013 40140.5702262,-2999452.8423 40020.2864259,-2999541.75494 39959.0091877,-2999568.72399 39888.06809,-2999509.78711 39794.1257473,-2999450.0287 39694.6423354,-2999384.81441 39579.1053203,-2999312.22615 39497.829872,-2999274.36455 39407.7002692,-2999255.06745 39333.6319947,-2999244.14398 39258.9011554,-2999212.23028 39226.7358384,-2999189.9845 39180.3981168,-2999177.34645 39137.8925211,-2999207.66921 39112.8489998,-2999265.85048 39078.9434347,-2999406.08239 39046.2489576,-2999476.82025 39035.6801668,-2999499.8971 38999.7366115,-2999570.66017 38921.1925956,-2999627.25661 38830.4755898,-2999693.44534 38761.3068952,-2999701.97968 38712.9327655,-2999716.85143 38669.5766054,-2999734.18374 38643.7194412,-2999751.88033 38592.2937792,-2999792.27017 38560.7308248,-2999815.50979 38529.2628276,-2999818.75303 38494.4798681,-2999813.52382 38468.5588088,-2999790.72973 38404.2706377,-2999687.25062 38389.335043,-2999598.38574 38374.5911475,-2999566.50696 38360.1669126,-2999543.62375 38328.3598726,-2999535.37209 38293.9352971,-2999544.13702 38256.558033,-2999558.92352 38224.9950235,-2999582.16312 38173.2593598,-2999582.56405 38138.5674826,-2999556.83853 38120.8767973,-2999499.48809 38120.3422597,-2999430.5072 38167.0446488,-2999361.16028 38198.3365499,-2999302.9304 38213.7976165,-2999233.8256 38192.9296752,-2999153.50479 38181.3517925,-2999078.6108 38134.442557,-2999024.48608 38048.0615538,-2999005.15966 37967.512052,-2999028.77873 37907.3385996,-2999069.23626 37850.1973664,-2999081.67636 37815.4104926,-2999075.94717 37778.5350966,-2999058.73664 37755.5938736,-2999033.41988 37756.8748159,-2998972.92303 37758.8802311,-2998941.4143 37761.9765383,-2998889.40155 37750.3015877,-2998866.49697 37730.1483466,-2998846.15752 37698.4071097,-2998846.4034 37672.7648922,-2998859.59924 37634.3392316,-2998900.38817 37564.3096212,-2998991.41117 37530.3999894,-2999066.65772 37504.5480514,-2999181.83327 37471.4347196,-2999263.07241 37417.0095891,-2999303.4855 37285.0145629,-2999364.99522 37190.2807083,-2999396.72259 37143.6498838,-2999443.07406 37116.6260437,-2999503.77053 37089.8578429,-2999597.45799 37037.5267139,-2999746.83175 37014.3701215,-2999790.50193 36971.8525734,-2999819.32535 36926.5645513,-2999813.17768 36900.5814101,-2999782.38561 36860.4938337,-2999673.2195 36859.4747398,-2999670.72793 36846.7534967,-2999641.83266 36826.0576742,-2999615.99854 36809.2463918,-2999607.63061 36784.2105935,-2999602.32576 36760.2597296,-2999608.01018 36744.8917602,-2999624.62575 36744.5174515,-2999737.6047 36743.042936,-2999773.1086 36740.9619468,-2999827.11328 36696.2665381,-2999897.44481 36601.6177099,-2999940.16939 36476.5818711,-2999932.14023 36368.5550348,-2999893.48566 36328.4496519,-2999878.79959 36275.0552398,-2999858.71765 36181.6290169,-2999833.44704 36112.0703073,-2999823.98811 36047.2293175,-2999810.49347 35947.4132325,-2999799.26939 35881.3883894,-2999794.28211 35773.316723,-2999782.12218 35705.094861,-2999751.65723 35649.9818153,-2999735.58767 35539.9687034,-2999730.94117 35471.5528839,-2999739.96946 35446.9197462,-2999786.65066 35463.6709418,-2999819.51402 35547.0435298,-2999934.34406 35518.2581828,-3000058.04146 35560.876469,-3000106.70104 35596.2835917,-3000127.92221 35709.2745317,-3000162.03935 35745.0070347,-3000225.24923 35717.202343,-3000281.95295 35675.3432984,-3000331.26716 35647.4843789,-3000380.97278 35591.4121365,-3000402.40297 35527.7664113,-3000381.90058 35443.1805181,-3000368.559 35337.3502712,-3000355.38204 35238.8765227,-3000356.14517 35071.5258488,-3000306.45253 35012.9445562,-3000294.40906 34963.5119306,-3000301.79068 34918.1363376,-3000316.63932 34873.961896,-3000357.47332 34807.9793871,-3000357.98463 34768.906344,-3000379.78301 34715.0580588,-3000430.19006 34649.7572737,-3000518.67811 34611.7787814,-3000584.95896 34562.0417728,-3000649.83126 34524.7394849,-3000706.60884 34464.383271,-3000723.57324 34414.6406274,-3000690.96545 34381.2658031,-3000641.73416 34348.0614304,-3000614.49707 34308.7249133,-3000602.30444 34265.5831289,-3000615.13623 34178.3732538,-3000714.79201 34120.9638112,-3000757.22842 33967.149503,-3000744.92317 33958.6439803,-3000743.98928 33894.2324467,-3000785.98008 33819.4631029,-3000846.04755 33723.9529091,-3000971.26273 33652.4715452,-3000971.81672 33566.5966619,-3000953.48606 33516.979833,-3000904.88039 33502.437269,-3000834.5072 33487.5905569,-3000757.13777 33438.0241147,-3000715.03037 33374.540621,-3000715.5223 33318.4679178,-3000736.95261 33264.4605345,-3000766.86523 33260.9808101,-3000769.3917 33211.264924,-3000804.76998 33157.0269547,-3000837.1839 33100.7372891,-3000830.62149 33051.4458032,-3000824.00485 33024.185516,-3000789.72294 33023.1629528,-3000657.75709 33021.0707455,-3000581.28851 32983.6504102,-3000526.08947 32909.9912613,-3000503.66475 32818.4374421,-3000494.37607 32743.5497466,-3000506.95391 32667.6000555,-3000576.0288 32592.1714009,-3000680.09279 32538.7742421,-3000692.00425 32500.6639454,-3000676.80259 32457.8769122,-3000574.15438 32388.9089253,-3000415.22011 32299.3181575,-3000304.43611 32226.2886563,-3000266.5094 32152.3618366,-3000274.0807 32061.1059823,-3000303.28202 31955.683299,-3000310.59739 31875.6185444,-3000300.21975 31807.0332287,-3000319.74732 31745.1901872,-3000370.71653 31706.3236816,-3000451.50194 31669.7474405,-3000505.27487 31619.8724572,-3000520.15842 31570.3850391,-3000520.54179 31493.0212378,-3000471.6507 31421.0631053,-3000410.72003 31369.3554585,-3000382.62608 31332.7098306,-3000362.91381 31249.4422007,-3000358.55977 31244.7166351,-3000361.59579 31200.9562183,-3000391.42906 31153.700177,-3000486.27687 31097.7604284,-3000557.19662 30971.3134642,-3000593.16939 30830.403187,-3000601.25959 30704.1599479,-3000566.74429 30645.5937187,-3000492.21228 30641.9943353,-3000414.75498 30649.0278423,-3000354.71198 30657.0920815,-3000298.66023 30639.377959,-3000238.30901 30600.3395936,-3000200.11872 30552.6132007,-3000201.98806 30489.2917364,-3000223.47446 30405.1419921,-3000266.61808 30239.8632034,-3000323.38757 30132.2059327,-3000332.71975 30015.8842725,-3000320.62309 29902.3931848,-3000319.0025 29736.3045259,-3000335.78585 29568.3810417,-3000341.58547 29366.1965765,-3000345.15086 29254.1584282,-3000337.52008 29125.2001756,-3000307.52451 29016.5338901,-3000218.88265 28963.960563,-3000111.30985 28911.6582018,-3000038.7284 28855.4574666,-2999979.17471 28715.4476539,-2999942.26577 28605.5017215,-2999946.61635 28541.6838149,-2999968.60646 28507.0252171,-3000011.86685 28496.693595,-3000097.93096 28455.9407612,-3000225.72296 28398.212031,-3000291.65789 28327.8530911,-3000308.19974 28300.0479279,-3000300.41651 28272.3998089,-3000280.63426 28216.1773525,-3000250.57519 28130.3553364,-3000239.24189 28033.5973017,-3000300.47998 27960.2942559,-3000421.02562 27933.9803863,-3000476.71923 27899.637494,-3000528.47577 27856.8840272,-3000559.30126 27814.1266844,-3000589.62689 27762.4550068,-3000598.52546 27696.0833337,-3000613.53677 27665.7787079,-3000605.77289 27620.6966746,-3000594.12415 27538.0462671,-3000572.76813 27464.1669585,-3000554.34363 27411.4490153,-3000557.25137 27336.2768297,-3000597.82621 27293.6703604,-3000647.64718 27242.2656709,-3000691.03747 27208.1903335,-3000712.79746 27143.5216672,-3000721.79668 27053.1926549,-3000709.49845 26966.7310623,-3000680.17332 26900.7955177,-3000654.68851 26777.2592194,-3000647.14655 26721.2067831,-3000639.08207 26669.2368997,-3000609.48981 26599.6844125,-3000536.54142 26577.438092,-3000504.21945 26517.7819738,-3000482.68523 26440.0388593,-3000481.78738 26375.8212213,-3000516.77842 26302.9214381,-3000560.33518 26234.4199486,-3000590.8602 26165.3395439,-3000578.89724 26096.2381677,-3000531.94061 26057.1645227,-3000489.25071 26034.406695,-3000455.43289 26002.5503856,-3000408.6878 25955.1745286,-3000359.06338 25897.564287,-3000343.51216 25833.5639189,-3000342.00794 25712.886536,-3000380.93541 25634.0947455,-3000406.04103 25467.9612144,-3000417.3253 25375.5277801,-3000391.54544 25265.298182,-3000359.40444 25091.2839248,-3000256.76946 25026.1079861,-3000200.28382 24962.2204475,-3000148.78732 24921.7307077,-3000084.61188 24904.30138,-3000028.75649 24879.6856518,-2999980.95532 24816.523246,-2999893.9593 24747.2090244,-2999819.50868 24709.2342372,-2999757.31337 24676.6126762,-2999708.57428 24647.5289866,-2999664.80694 24595.2920744,-2999600.72229 24538.420849,-2999519.17651 24481.9156114,-2999452.62527 24431.4940739,-2999397.02505 24361.6462544,-2999253.59028 24326.8666759,-2999184.37134 24271.3264639,-2999113.31332 24228.5899055,-2999017.16055 24171.7265508,-2998936.61436 24121.3012246,-2998880.51413 24077.3216461,-2998849.85964 24033.1951432,-2998800.20955 24008.1042768,-2998787.90577 23932.9283294,-2998763.49151 23795.5863524,-2998748.55649 23680.2831335,-2998771.44451 23563.9735218,-2998728.85149 23495.1427022,-2998716.88595 23414.1046961,-2998742.50843 23339.071673,-2998736.58983 23228.7489869,-2998692.45067 23148.4246054,-2998681.07389 23085.8668074,-2998704.55379 22998.2696626,-2998754.72285 22895.8833369,-2998799.50724 22809.6272949,-2998829.16943 22724.0978623,-2998855.82651 22615.8713145,-2998921.15268 22497.2308193,-2998965.06302 22391.055172,-2998972.38307 22240.8958354,-2998948.5485 22115.4872517,-2998893.02772 22033.8226384,-2998837.66854 21958.4027475,-2998781.76112 21881.8954843,-2998746.8586 21814.298587,-2998732.88369 21726.7718854,-2998727.56148 21633.0429484,-2998728.28622 21552.2041401,-2998747.40824 21477.1243212,-2998735.49083 21377.1003296,-2998730.26521 21302.4533735,-2998774.33526 21153.0202621,-2998844.47943 21065.586145,-2998851.15451 20984.0643442,-2998814.29095 20908.501267,-2998739.88739 20852.2637693,-2998740.3222 20771.3216838,-2998778.44193 20709.4655465,-2998860.40699 20647.3156571,-2998904.38049 20560.2717809,-2998961.54439 20503.3642717,-2999036.97231 20458.4296205,-2999076.81339 20453.9615362,-2999080.8473 20399.2712996,-2999119.76399 20304.1698448,-2999136.9967 20224.3652564,-2999160.61009 20180.0850736,-2999220.44296 20161.1201719,-2999224.58896 19989.5508807,-2999244.41266 19883.5753989,-2999277.72693 19794.3230285,-2999307.91238 19713.4773128,-2999358.52958 19632.6315781,-2999409.14681 19570.3848538,-2999440.62323 19445.4997125,-2999517.57694 19352.69904,-2999573.78581 19247.1485593,-2999662.08827 19114.5561769,-2999712.10593 19016.4781639,-2999732.36132 18903.8091532,-2999708.23648 18815.8448187,-2999646.42641 18714.7106394,-2999594.71659 18582.2713175,-2999535.25002 18495.9122822,-2999519.4203 18492.4246285,-2999520.94704 18396.3653278,-2999543.68636 18284.5155605,-2999625.53868 18210.3046349,-2999726.09709 18167.5303171,-2999851.40863 18085.4538597,-3000001.52039 18050.9587742,-3000130.7674 18058.5346414,-3000237.69245 18059.6542745,-3000253.18142 18058.7281218,-3000359.67231 18017.23965,-3000424.98326 17946.0950548,-3000469.52679 17906.3407433,-3000532.82467 17884.5530625,-3000624.47927 17832.2782091,-3000684.87449 17788.0737457,-3000722.21078 17656.7832494,-3000746.72272 17538.4872129,-3000706.14397 17454.9750024,-3000638.30021 17385.4662304,-3000538.85286 17353.7859388,-3000482.60638 17322.3028201,-3000451.85453 17240.8263457,-3000420.98936 17147.0496397,-3000415.71547 16997.1274713,-3000422.87396 16840.5235855,-3000374.09245 16714.5833109,-3000250.08495 16550.0802283,-3000181.86727 16346.6998634,-3000193.43832 16318.7172738,-3000195.15446 16038.4493295,-3000219.81812 15826.0228231,-3000289.9505 15461.8335013,-3000420.24774 15304.7432483,-3000631.93186 15238.3445243,-3000805.4203 15110.4702366,-3001174.85614 15081.3873814,-3001260.5688 15062.3282184,-3001317.2081 15014.5828887,-3001381.5682 14960.1469216,-3001453.479 14844.9873449,-3001495.36383 14828.2871286,-3001501.49214 14730.9639886,-3001490.24656 14636.0102242,-3001494.48045 14581.4040725,-3001544.39576 14543.5072438,-3001621.67796 14521.8519164,-3001665.83923 14483.9705655,-3001745.12106 14396.2705003,-3001782.29424 14222.9276404,-3001767.1373 14128.7172024,-3001802.86105 14074.0170638,-3001905.26985 14057.3803445,-3002048.87847 14025.2854372,-3002197.606 14016.9692407,-3002318.15353 13985.6242793,-3002466.87534 13958.3825565,-3002532.07705 13907.6788804,-3002569.46418 13819.6591058,-3002597.64132 13727.3606434,-3002654.34764 13625.9532156,-3002729.12196 13502.0216857,-3002768.07554 13395.9125246,-3002784.39433 13332.1934227,-3002851.87812 13282.5440795,-3002993.24296 13257.7612885,-3003182.40891 13253.9096143,-3003298.4229 13250.4340929,-3003398.43618 13215.9825169,-3003468.69325 13144.9645861,-3003529.73459 13108.3842453,-3003551.01481 13068.320058,-3003574.32173 13039.5477247,-3003635.53612 13034.1431483,-3003680.07192 13030.8488672,-3003706.59383 13032.664967,-3003812.06552 12999.1745388,-3003877.31593 12906.0332001,-3003922.03084 12896.8469011,-3003930.10085 12771.6761121,-3004035.05561 12677.2802824,-3004143.77172 12631.5437608,-3004241.61268 12586.1268501,-3004348.44999 12503.0028181,-3004395.58718 12377.9549487,-3004419.55201 12279.2487177,-3004455.8113 12183.6718843,-3004476.54843 12095.7290098,-3004514.72416 12031.4015614,-3004568.21509 11952.8113498,-3004619.81668 11897.5386407,-3004648.24083 11817.7822049,-3004678.3543 11730.4374312,-3004761.51959 11705.5172743,-3004803.707 11681.5853195,-3004844.38697 11704.1770536,-3004921.20206 11754.221007,-3004992.30535 11853.9258272,-3005085.02132 11877.0284769,-3005227.8238 11833.7605807,-3005321.64659 11745.9901683,-3005349.82253 11624.7576923,-3005317.76539 11587.1935325,-3005276.56158 11569.0444111,-3005224.70882 11562.6514998,-3005109.27329 11538.9067045,-3005044.96547 11490.3562749,-3005005.34648 11454.8846458,-3004976.12488 11403.8323914,-3004968.52109 11343.8724027,-3005004.98057 11307.2740991,-3005056.25728 11270.4606698,-3005112.03508 11261.8238379,-3005191.09176 11243.5401689,-3005218.72975 11220.4377381,-3005237.40621 11169.4860492,-3005242.79999 11113.8881473,-3005229.23218 11020.7608872,-3005178.95961 10946.2384921,-3005142.54121 10858.7417482,-3005109.22283 10697.8446523,-3005022.97938 10592.3303577,-3004954.80484 10527.0933565,-3004890.81795 10405.824267,-3004821.76539 10280.4196694,-3004799.73882 10215.6120967,-3004791.2415 10169.1903914,-3004800.59962 10132.4139248,-3004828.8807 10114.222998,-3004868.5165 10072.9798349,-3004933.32756 10027.0804089,-3005010.17317 9963.17037924,-3005117.65436 9857.40741155,-3005243.45729 9770.49931193,-3005383.11261 9710.51348033,-3005448.56882 9650.77759651,-3005514.02312 9577.29423305,-3005579.58385 9539.72068818,-3005666.36398 9531.98686373,-3005732.91563 9513.77661457,-3005770.05202 9496.91130194,-3005787.18047 9425.75948855,-3005798.72989 9356.16385615,-3005785.27034 9300.52853,-3005799.19934 9268.12504435,-3005843.44476 9224.63456169,-3005876.27743 9180.9869934,-3005921.10985 9161.06803406,-3005931.26282 9153.35040443,-3005935.32207 9134.9969563,-3005953.96188 9107.32166575,-3005963.17501 9070.40350778,-3006005.45567 9023.5142543,-3006051.31309 9002.92281921,-3006071.47006 8948.18821811,-3006104.88975 8876.9078801,-3006164.43438 8826.1686649,-3006197.32323 8715.22516584,-3006235.17759 8636.63257686,-3006254.28377 8557.5771701,-3006245.89684 8511.19232187,-3006227.75813 8445.98732114,-3006200.26625 8404.13648329,-3006186.59189 8213.66914533,-3006155.57013 8157.71401724,-3006160.50272 8126.02388268,-3006167.74718 8113.04169049,-3006169.84743 8108.29641112,-3006170.3841 8064.61385586,-3006210.71746 8057.32185716,-3006269.76687 8061.37459794,-3006341.22699 8049.47893813,-3006386.81367 8016.52740444,-3006392.56809 7972.45012969,-3006381.91059 7922.78869908,-3006360.29763 7862.29949219,-3006360.76586 7835.05979375,-3006393.97281 7824.35972248,-3006432.55108 7819.15867454,-3006471.08679 7780.79323197,-3006487.88183 7730.42833914,-3006472.27359 7676.22897505,-3006445.69632 7645.54865116,-3006421.93663 7638.5405862,-3006388.49482 7642.29609224,-3006356.96947 7658.36751155,-3006301.85155 7644.31813905,-3006262.9649 7627.05804286,-3006229.10251 7593.18248518,-3006212.36671 7555.96618987,-3006216.15435 7508.42432444,-3006210.02309 7457.68333065,-3006210.41582 7386.52334796,-3006220.96542 7336.04544534,-3006255.35212 7317.47056065,-3006309.98951 7340.14768094,-3006397.80369 7302.25038967,-3006475.08802 7275.09576858,-3006519.29308 7250.47166401,-3006567.47808 7220.08152516,-3006581.21175 7166.14135084,-3006588.12852 7115.20450952,-3006595.52199 7064.67240048,-3006622.91 7024.10756901,-3006646.22133 6987.27659536,-3006667.50399 6939.96680902,-3006691.36748 6909.52633606,-3006698.60229 6875.78225559,-3006698.86349 6848.78698904,-3006699.07245 6818.18785531,-3006685.81086 6766.85627088,-3006642.21326 6722.41899045,-3006585.06384 6684.91239461,-3006551.35806 6654.62899409,-3006546.59303 6617.54414898,-3006567.3777 6600.83344984,-3006604.50279 6587.6647043,-3006647.09984 6584.5716052,-3006699.61776 6551.57431053,-3006796.36211 6531.67767474,-3006874.00725 6535.57177399,-3006924.97128 6552.98674774,-3006978.8303 6563.35264112,-3007026.24463 6560.443759,-3007070.26212 6543.70987539,-3007104.38778 6523.4904891,-3007108.0439 6497.69465919,-3007101.74433 6411.3148811,-3007051.41882 6344.09046036,-3007021.44267 6283.38812498,-3006994.41568 6221.13960994,-3006961.40133 6163.08231272,-3006920.85537 6115.55415363,-3006884.22745 6071.43020939,-3006867.5709 6034.99456516,-3006875.35207 5996.67147546,-3006897.64621 5956.14133366,-3006925.45682 5911.89897274,-3006925.79926 5843.14767229,-3006892.33523 5705.47174632,-3006738.41823 5539.54408194,-3006357.74524 5351.48913475,-3005960.24516 5362.30232663,-3005160.75163 5611.93665549,-3004535.39183 5803.56627066,-3004005.47071 5916.45491464,-3003831.11791 5893.34435722,-3003557.82833 5876.28182011,-3003355.48378 5538.64920711,-3002751.16415 5488.10581519,-3002583.07434 6003.23742719,-3000763.80782 6048.58209598,-3000485.49076 6261.9589661,-2999178.00034 6371.74398606,-2998795.69921 6571.80242901,-2998158.73286 6797.64854286,-2997494.57186 7315.94586756,-2996861.15161 7361.04667506,-2996583.3387 7832.70429075,-2995833.79555 7848.33241586,-2995461.7228 8043.24202203,-2995064.27089 8233.87622767,-2994695.84867 8371.31476944,-2994430.82352 8634.30875708,-2994077.84219 8677.38040215,-2994023.01735 8760.80119174,-2993916.88825 8861.87407263,-2993668.64196 9103.66523707,-2993094.35476 9146.96671602,-2992972.0374 9340.3200643,-2992567.10174 9500.25026781,-2992236.41405 9562.99420253,-2992106.94816 9432.24786338,-2991877.98658 9662.47262382,-2991164.81014 10219.1949668,-2989807.71002 10551.1757598,-2989194.24 11105.2267,-2988171.62041 10731.3592369,-2987207.13423 10646.1689628,-2986985.82097 10407.0364493,-2986866.67717 9972.42778182,-2986649.55033 9767.94191621,-2986550.13683 9444.95426667,-2985375.28437 9181.75501573,-2984173.47494 9223.61007975,-2983992.67863 9239.60374274,-2983927.06493 9497.98060068,-2982841.73279 9533.69361453,-2982772.4683 10075.610525,-2981794.94621 9868.58750681,-2980876.16688 9996.60742897,-2980490.23974 10155.7237833,-2979987.09122 10342.7858674,-2979444.73455 10720.1451119,-2978390.4939 10891.4490792,-2977911.75064 11112.8383324,-2976531.75735 10888.1619932,-2976145.53614 10790.7025107,-2975985.80646 10761.2911016,-2975572.59273 10710.3525101,-2974861.58782 10574.3713023,-2974796.1389 10400.9792891,-2974708.97961 9696.83879022,-2974709.87189 9452.05429397,-2974700.74777 9129.22798079,-2974684.72224 8974.14940672,-2974638.91635 8735.76978657,-2974552.2541 8639.28650623,-2974519.99748 7916.15218418,-2974260.57098 7251.02878775,-2974297.65819 7009.89353397,-2974145.02541 6837.55472904,-2974032.36028 5803.35441018,-2974183.75699 5552.18700564,-2973896.21835 4932.82271078,-2973184.55371 4315.891926,-2973052.2922 3736.20188729,-2972952.24104 3578.99043563,-2972921.94791 2373.32452053,-2972978.16605 866.67843119,-2971888.82741 534.769546295,-2971797.37714 280.682505752,-2972991.17593 -250.658577754,-2975485.94367 -1351.60315225,-2975182.40883 -1435.90469323,-2975207.05138 -1929.75400109,-2975023.3534 -2700.58548178,-2974805.27907 -5197.49273511,-2974095.4675 -5623.83708986,-2974371.20068 -6065.91386905,-2974649.05456 -7026.46673494,-2974596.41135 -7100.36932086,-2974575.47908 -8141.09366668,-2974270.97415 -9244.93151688,-2974016.4455 -10274.3948724,-2973942.82894 -10436.2499573,-2973927.06874 -10641.5263531,-2974117.12115 -10801.7880759,-2974342.32598 -10787.3354686,-2974597.69123 -10737.06329,-2975483.2228 -10779.9877722,-2975688.53197 -10910.4339118,-2976314.47167 -11471.4894343,-2976071.78938 -11968.0448958,-2975862.60963 -12124.6260348,-2975784.81527 -12259.568858,-2975725.35355 -12377.43899,-2975512.27508 -12864.2643098,-2975268.02291 -12960.3724891,-2975252.75978 -13107.5190475,-2975231.88772 -13581.9885648,-2975165.02456 -13876.3353094,-2974920.29849 -14475.9390001,-2974801.89674 -15474.8202626,-2974675.55009 -16011.3850377,-2974563.16459 -16217.4003553,-2974526.24376 -16663.8332079,-2974432.16681 -17801.9437149,-2973653.93536 -18367.8579876,-2973234.29661 -18699.4664372,-2972987.85175 -19164.2686032,-2972747.42448 -19813.4069167,-2972330.41951 -20223.2132199,-2972090.0706 -21061.7699871,-2971224.04486 -21322.8844391,-2970977.55857 -21478.2448738,-2970830.7566 -22625.411905,-2970569.04142 -22963.4395316,-2970169.65245 -23244.7486139,-2969864.82305 -23954.7062935,-2969340.28286 -24195.4206991,-2969179.13257 -24464.8494257,-2968924.2078 -24573.1261979,-2968821.54173 -24642.9771086,-2968513.09607 -24697.5948907,-2968268.02973 -24694.5992299,-2968202.01132 -24661.5987449,-2967449.31027 -24667.8327357,-2967385.86216 -24659.5132652,-2967165.81355 -24719.7441679,-2966774.79982 -24927.4213855,-2965308.48388 -25269.2574872,-2964606.13926 -25764.6127169,-2964030.95647 -25859.1507468,-2963730.1974 -25974.9808576,-2963292.6096 -26071.2411186,-2962929.86747 -26264.823454,-2962163.39359 -27617.3740353,-2960997.77968 -27695.54277,-2960089.4321 -28642.3160896,-2957355.31293 -28618.9092749,-2957179.14526 -28669.7920561,-2956833.05359 -28701.3596951,-2956364.32211 -28822.6372843,-2956064.26353 -28856.0063359,-2955818.53225 -28800.3422407,-2955315.13843 -28815.7980068,-2955025.27334 -28921.4286063,-2954843.08825 -29036.4298642,-2954644.97536 -29333.3788219,-2954255.25849 -29657.2591568,-2954005.73807 -30038.3049804,-2953602.66119 -30166.1014304,-2953365.64722 -29984.8146873,-2953273.2729 -29426.4237273,-2953066.03573 -28865.0378019,-2952726.78402 -28639.4031506,-2952549.0778 -28570.9022368,-2952352.56828 -28320.5567312,-2952104.17854 -28253.8166167,-2952037.6748 -28052.299329,-2951515.67316 -27951.1736726,-2951171.42465 -27959.5805271,-2950822.00953 -27987.7672054,-2950534.24108 -27706.3587249,-2950064.12945 -27416.9777689,-2949721.94989 -27269.4016117,-2949535.83922 -26869.1899001,-2949303.81095 -26528.128433,-2949446.20948 -25926.0412396,-2949462.63151 -25317.6471749,-2949388.01154 -24968.328343,-2949301.36188 -24752.9508473,-2949089.73858 -24521.8366593,-2948876.49596 -24266.2026824,-2948666.067 -24198.3387516,-2948385.56976 -24342.6822306,-2947812.7042 -24580.7198654,-2947345.04318 -24699.7642058,-2946877.47775 -24824.0158052,-2946415.45122 -24761.0184158,-2946283.98114 -24425.2207371,-2946161.43858 -24328.5084113,-2945992.71497 -24048.4364394,-2946004.58717 -23703.6675715,-2946042.96631 -23587.9815792,-2945805.10346 -23560.4635748,-2945511.41388 -23359.7471308,-2945442.89432 -23069.6318683,-2945427.69246 -22995.8167098,-2945568.62254 -22931.3388167,-2945632.12868 -22639.2136636,-2945782.90027 -22363.4151303,-2944836.87049 -21978.5829432,-2943896.01347 -21534.0577306,-2943112.69375 -21135.8427749,-2942419.72025 -20746.4006262,-2941921.30067 -20456.4064491,-2941560.62636 -20234.6076171,-2941239.46681 -19791.2855153,-2940659.64613 -19643.7997352,-2940098.56772 -19502.5125133,-2939742.02197 -19299.2822343,-2939378.50737 -18921.1763181,-2939099.16172 -18670.7999721,-2938887.27957 -18314.229005,-2938735.08865 -17926.8402017,-2938658.15899 -17604.0833085,-2938365.2352 -17167.0802539,-2938336.9266 -16496.0744302,-2938113.36037 -16218.0544954,-2937953.76664 -16162.2159742,-2937437.88315 -16185.4267647,-2936881.60126 -16105.7538379,-2936509.02626 -15848.5749188,-2936304.09474 -15653.6607581,-2936162.62995 -15569.413853,-2936063.99974 -15473.2744928,-2935951.28063 -15355.9856414,-2935726.41009 -15316.8516511,-2935348.14294 -15396.6484818,-2934977.77516 -15539.0659981,-2934656.87726 -15794.4929563,-2934135.34923 -15958.347572,-2933888.60734 -16016.2519076,-2933801.55188 -16168.6461978,-2933582.72098 -16240.9234674,-2933479.27537 -16314.8843141,-2933219.35391 -16350.06766,-2933095.62908 -16073.2739276,-2933071.03715 -15824.2077977,-2933049.15483 -15446.0987104,-2933067.29356 -14929.8141493,-2933010.89296 -14665.9656349,-2932927.40385 -14420.7346623,-2933026.54163 -14119.0737124,-2933249.24298 -14003.7326668,-2933493.85157 -13650.8474044,-2933680.66783 -13381.1111087,-2933648.63023 -13029.1475973,-2933614.47101 -12592.0103916,-2933571.16853 -12316.8250293,-2933565.5879 -12061.1800882,-2933653.64739 -11744.8632581,-2933831.24054 -11563.9812726,-2933949.86269 -11561.712887,-2934249.82037 -11409.4655368,-2934548.64365 -11451.5097428,-2934938.92866 -11329.2578038,-2935237.97841 -10937.1578691,-2935519.98779 -10590.9594546,-2935682.35447 -10053.3080869,-2935840.7728 -9849.24222087,-2935752.73672 -9614.6263447,-2935869.95128 -9372.95973747,-2936093.10285 -9086.36694132,-2936207.92412 -8712.4901946,-2936163.09954 -8353.22464633,-2936070.39009 -7892.9461929,-2936145.90102 -7541.87180985,-2936259.23448 -7286.68365286,-2936287.30132 -7010.76509379,-2936412.20208 -6848.46006267,-2936718.94473 -6733.1927497,-2936987.04674 -6440.23209647,-2937150.8142 -6003.19817094,-2937194.00323 -5777.3845962,-2937535.76078 -5551.17166136,-2937699.03275 -5413.69630546,-2938027.95944 -5321.89465788,-2938267.24059 -5084.47198034,-2938491.42096 -4570.08453174,-2938516.52523 -3965.84700591,-2938357.96874 -3101.57060787,-2938340.43027 -2726.51858372,-2938352.59095 -2502.80375924,-2938185.91608 -2173.76593056,-2938063.43976 -1858.81817234,-2938061.0572 -1663.2833677,-2938134.56981 -1394.57641433,-2937967.55527 -667.542462436,-2937883.56471 -587.435063323,-2937601.49033 -250.722547387,-2937270.98078 40.4165323018,-2937326.77269 159.715638794,-2937235.88079 474.548369049,-2937218.50193 623.842255705,-2937127.38341 997.757200491,-2936989.5719 1282.70792422,-2936987.41761 1386.89606378,-2936881.64215 1717.63232154,-2936984.12959 1926.0084516,-2936772.57903 2075.98221472,-2936771.44536 2181.75738354,-2936875.63338 2378.00857327,-2936779.66111 2291.56522878,-2936355.86479 2326.85677018,-2936229.61297 2431.04496534,-2936123.83801 2641.68806768,-2936212.23545 2864.38175598,-2935910.58837 3224.65801836,-2935952.86063 3335.53959768,-2935773.54432 3597.09842433,-2935620.08645 3853.52590153,-2935813.12539 4092.46312864,-2935676.33667 4362.19930863,-2935645.80238 4542.94860285,-2935747.92411 4723.25593696,-2935791.55636 4814.03273174,-2935895.8575 4989.36696739,-2935777.54748 5169.7670987,-2935899.66918 5457.57898882,-2935681.02216 5726.05681915,-2935484.01881 6008.73901939,-2935181.92183 6093.66588875,-2935372.25611 6189.967615,-2935314.53606 6259.6413168,-2935272.51515 6339.0179066,-2935224.42176 6607.15581192,-2934982.42764 6760.976764,-2935093.75159 6951.75191986,-2934934.83136 7102.29014401,-2935008.68493 7372.35284029,-2935021.64375 7433.36077399,-2935156.16543 7568.67512954,-2935200.13775 7687.38338751,-2935064.25912 7852.69197531,-2935108.00499 7853.93764954,-2935272.9738 8124.94623379,-2935146.44392 8364.74683903,-2935389.10067 8574.2538101,-2935327.52671 8799.66372429,-2935385.81662 9039.61765063,-2935384.00479 9370.98079189,-2935272.51766 9772.43754733,-2935108.50876 10040.9132939,-2934911.50883 10511.8258707,-2934742.97708 10715.7812767,-2934906.41465 10985.9545173,-2934934.37115 11288.3856544,-2935262.0418 11534.9091267,-2935104.20304 11678.308096,-2935259.09844 11769.1957838,-2935378.39525 12039.141753,-2935376.35753 12235.687508,-2935584.84364 12358.040901,-2935898.87443 12533.4651374,-2935991.53637 12883.7099985,-2935931.40052 13099.6518135,-2935894.77543 13257.6317784,-2935862.08745 13542.6866693,-2935874.93337 13776.3087647,-2936028.14674 14008.9495263,-2936051.38679 14160.2770973,-2936230.21741 14567.275921,-2936370.62315 14941.3601054,-2936389.29575 15391.2081251,-2936411.39583 17758.3778366,-2936052.58242 19787.0830227,-2935659.83701 20991.7753487,-2934949.86815 22304.3426781,-2935286.91066 24514.3574236,-2934743.84132 25922.5041633,-2934399.28914 27139.0607956,-2934038.68795 30125.1355683,-2933029.38907 30953.5211177,-2932836.6901 33151.662628,-2932183.77744 33265.0932418,-2932144.43201 36657.8049576,-2930871.68358 36891.6248167,-2930787.944 38579.6995836,-2931346.1311 40317.1278086,-2931920.9388 43677.7526841,-2932907.43789 46693.9973988,-2933804.03369 48737.2184222,-2934402.01291 48756.1203057,-2934156.93485 49545.7099854,-2930669.41469 50205.9481716,-2927824.70696 51218.520953,-2923462.26799 52385.7942974,-2924542.75112 53371.358664,-2924052.01094 53816.8859478,-2923871.22826 57496.5746601,-2925070.37586 61670.8195145,-2923863.03193 63302.2507536,-2923418.4837 66314.1779844,-2922597.76212 66887.3530381,-2922712.94898 72623.7646438,-2923863.76966 74824.2249819,-2924297.70207 77850.2940376,-2939241.49682" style="stroke-linejoin:round;stroke:#000;stroke-width:1px;fill:none" /></g></g></svg>