<svg xmlns="http://www.w3.org/2000/svg" baseProfile="full" height="263136.740294" version="1.1" viewBox="-51000.057897,3521407.932824,137557.377530,263136.740294" width="137557.37753"><defs><style type="text/css">polyline,line,rect,path,polygon,.polygon{fill:none;stroke:#000;stroke-width:1px;stroke-linejoin:round;}</style></defs><g fill_rule="evenodd" transform="scale(1,-1)"><g class="hogares departamen mujeres departam_1 toponimo_i tot_pob varones viv_part viv_part_h" id="70021"><polygon class="_70021" id="None" points="11434.6251842,-3521413.35344 12111.2831593,-3522456.60378 13291.6438447,-3523428.74265 14260.2813308,-3523953.9042 14455.8938488,-3524128.62908 15967.1826654,-3524619.02681 16140.4156351,-3525512.19702 15737.9474294,-3526258.66256 14926.0689926,-3526739.42688 14343.4054851,-3528316.59632 14780.0033102,-3529204.57748 14772.8772874,-3529554.4433 15030.9411228,-3529685.93487 15262.1711881,-3529855.93532 15340.0295742,-3530281.22884 15646.2161766,-3530527.80184 15923.4526415,-3530773.85171 16313.9092674,-3531137.28554 16581.1912967,-3531558.79648 16627.2755613,-3531978.47542 16675.8553253,-3532242.91055 16832.646396,-3532512.17441 16689.4385798,-3532875.20789 16500.3992376,-3533319.5279 16544.929339,-3533747.64132 17200.1940001,-3534855.6669 17594.5457995,-3535609.3341 17886.8284859,-3536804.90858 17961.5614342,-3537437.37626 18260.4016695,-3537785.10333 18672.6740138,-3538074.91967 19172.2182071,-3538748.92354 19455.0261366,-3539393.77047 19816.6644969,-3540259.18289 21031.7720687,-3540987.05778 21387.1248617,-3541529.60468 22019.5224896,-3542048.52239 22243.776763,-3542893.10057 22679.0220407,-3543337.60081 22647.2414927,-3543951.32595 23100.6849444,-3544727.13067 23372.8595465,-3546239.72141 23031.4058628,-3547049.72276 23031.5140954,-3548093.62432 23383.966719,-3548555.17966 24036.512123,-3549630.27495 23860.6490042,-3549722.91673 23829.2867013,-3550035.9705 23996.2839486,-3550227.71444 24131.4051821,-3550395.84873 24062.4746741,-3550634.64303 24045.7890903,-3550942.225 24182.1974662,-3551151.36271 24461.0207742,-3551463.9645 24791.9755409,-3551799.40083 25114.1848611,-3552015.65224 25440.1953295,-3552139.13718 26008.7210741,-3552149.88016 26611.3010504,-3552200.29615 26173.2839212,-3552557.3205 25990.9272145,-3552769.10306 25915.6843094,-3553171.00393 25834.5305275,-3553619.64461 25932.8836357,-3554027.72474 26157.9418186,-3554264.99969 26386.3531503,-3554541.35452 26633.7194558,-3555358.32519 26681.695551,-3555715.16541 27033.8695476,-3556176.74575 26866.6157276,-3556413.03562 26724.0772026,-3556705.64771 26553.8299919,-3556941.82935 26373.3119009,-3557291.02589 26252.7686093,-3557737.25932 26249.2870781,-3558122.2324 26260.5331179,-3558437.30391 26399.3455945,-3558578.60938 26657.4592262,-3559100.27542 27004.2857473,-3559487.25044 27016.3050058,-3560011.63287 27045.2147398,-3560608.54232 27161.6233688,-3560992.79783 27372.1687694,-3561356.43708 27772.0376256,-3561586.47788 28307.6817546,-3561790.89633 28715.1165423,-3561794.94422 29424.5613867,-3561489.09683 29916.156362,-3561269.37836 30690.7255132,-3560909.4061 31425.7291949,-3560545.52075 32122.4547821,-3560309.63678 32939.689455,-3560322.30753 33617.7556359,-3560644.70437 34155.8905189,-3560990.08493 34620.4382444,-3561199.97282 35090.6579162,-3561614.86557 35286.0701458,-3562220.75707 35294.1341006,-3562932.35191 35580.2998272,-3563661.36942 36662.0835366,-3564708.02753 37278.6599156,-3565381.42618 37796.7758726,-3566042.3221 39063.4489737,-3566835.37795 40367.6001063,-3567551.36598 41440.1826627,-3567786.5304 42227.053892,-3567818.66206 43543.3047185,-3567456.60175 44126.9650523,-3567262.6662 44726.3921041,-3567200.67459 45442.3648397,-3567316.19509 46159.2990182,-3567530.66415 49220.0948175,-3567887.41895 50870.7518351,-3568115.82166 52053.3968397,-3568439.89496 53529.0493218,-3568882.8717 55086.1376551,-3569507.63055 57248.9250747,-3571083.34809 59059.2141132,-3572513.60043 61011.2388898,-3573732.14434 62867.8177813,-3574484.66072 64130.3324882,-3574882.65394 65364.8641905,-3575622.39871 66988.065469,-3576349.61946 68929.5667566,-3577320.11465 70642.0334266,-3577809.25715 72677.3923475,-3578031.19796 73813.908289,-3578113.46084 75486.4124991,-3578151.50893 77411.8380507,-3578299.0755 79833.1708378,-3578573.38716 81685.6678674,-3578826.28949 82962.3387102,-3579140.47229 83646.9531999,-3579313.47022 84507.2929029,-3579658.18281 85436.5227136,-3580011.8716 85972.7123783,-3580095.09664 86079.457443,-3580100.43075 86028.8627404,-3580236.03169 85971.2990383,-3580370.88243 85853.9076815,-3580641.00185 85762.2326992,-3580842.0864 85665.6028239,-3581041.99318 85566.4774953,-3581241.80997 85479.9344835,-3581446.07619 85437.1623862,-3581586.45427 85412.3905131,-3581733.47553 85397.261073,-3581959.79597 85360.6913877,-3582177.85021 85248.8943683,-3582368.71512 85069.8193602,-3582533.67563 84953.3363477,-3582639.4226 84869.112482,-3582751.3259 84842.4200046,-3582875.29099 84879.6747553,-3583013.54743 84946.6214077,-3583159.86705 85005.0301758,-3583307.37897 85016.0124031,-3583446.68993 84953.4934307,-3583573.36451 84863.099206,-3583697.03802 84812.7872994,-3583831.64664 84817.7069359,-3583979.73395 84833.7653673,-3584130.72021 84816.9058187,-3584273.02744 84654.8309067,-3584521.0458 84473.0296407,-3584678.40897 84292.3001068,-3584826.81575 84162.8796081,-3584993.55712 84119.356874,-3585203.36266 84092.76328,-3585352.3145 84011.0790825,-3585567.24331 83971.3881888,-3585774.68764 84030.7399986,-3585986.19377 84057.5975512,-3586135.56868 83996.4647072,-3586341.74184 83852.8542512,-3586513.96703 83778.1067968,-3586640.19885 83743.1697265,-3586861.30496 83766.8702002,-3587084.52038 83796.0235049,-3587378.38852 83756.3165795,-3587704.25785 83791.0008784,-3587837.42431 83909.7513621,-3587925.64524 83968.2175617,-3588036.68177 83949.53204,-3588194.91143 83989.0068821,-3588340.74282 83966.0725264,-3588457.34509 83699.8328334,-3588642.14411 83481.0500157,-3588785.67698 83373.7611204,-3588892.747 83298.3738499,-3589071.42108 83338.5647464,-3589266.74683 83408.3760244,-3589402.67638 83536.2702864,-3589611.65253 83613.2455285,-3589749.83904 83668.4763357,-3589888.24237 83691.9458997,-3590027.50127 83667.6810177,-3590243.49316 83603.8477168,-3590462.05799 83539.319464,-3590679.09848 83515.1233011,-3590962.55032 83577.9069263,-3591356.06712 83612.9171225,-3591702.11298 83596.7787151,-3591851.93814 83543.8811203,-3591967.95976 83376.2123926,-3592051.86571 83134.6369021,-3592058.15697 82972.1436117,-3592060.80014 82837.6243344,-3592091.43371 82751.7109564,-3592173.78611 82693.2970739,-3592380.5509 82647.6137815,-3592629.24778 82595.3801191,-3592789.26438 82577.2288293,-3592932.51974 82661.2806074,-3593054.47193 82800.1989809,-3593151.4175 82841.2511075,-3593190.87221 82794.4461034,-3593255.64445 82636.4795152,-3593319.91043 82480.8580788,-3593409.24495 82412.8586521,-3593542.20981 82408.9428309,-3593699.46901 82420.0698056,-3593855.27134 82362.0197492,-3594031.06734 82186.5764139,-3594129.68039 81776.7989256,-3594227.84611 81551.2956423,-3594315.16119 81442.9392768,-3594410.19411 81357.5055997,-3594610.9853 81347.182847,-3594848.96021 81391.2900108,-3595087.89685 81466.6130689,-3595299.4767 81557.3316703,-3595576.07015 81605.7466472,-3595882.61921 81838.0882823,-3596035.39979 81990.9916796,-3596194.8119 82064.8879396,-3596404.343 82102.4937941,-3596622.55989 82141.4524837,-3596844.82308 82163.4308098,-3597212.38107 82104.1174862,-3597423.10687 82042.0333254,-3597710.68331 82012.640856,-3597929.98256 81899.0245331,-3598129.25591 81808.7807483,-3598255.41912 81744.6245312,-3598447.98068 81780.9722285,-3598583.20519 81883.3272322,-3598793.26338 81925.4829986,-3598933.69432 81844.2177262,-3599275.0426 81733.5914884,-3599481.4177 81634.7077916,-3599694.71174 81586.4727842,-3599916.82769 81531.4515274,-3600126.20673 81407.6436382,-3600310.11929 81304.699799,-3600511.2734 81289.7749683,-3600731.09225 81297.4968165,-3601015.68652 81226.9086141,-3601144.0551 81089.8730834,-3601334.48442 80989.8862714,-3601536.74318 80961.2752669,-3601748.07263 81015.0184865,-3601968.86923 81054.8554334,-3602249.62483 80906.0453797,-3602420.14046 80806.7183131,-3602617.92472 80653.2240768,-3602779.77612 80541.2623202,-3602877.6689 80475.0613473,-3602995.20118 80471.9138183,-3603213.94403 80498.1059258,-3603374.28478 80518.5951061,-3603533.4204 80507.5249283,-3603680.92381 80388.5985486,-3603861.01012 80335.4494661,-3603914.55521 80250.3843426,-3604097.86204 80281.3279256,-3604320.33334 80336.9492546,-3604558.18605 80348.8122369,-3604714.01208 80332.2515843,-3604861.31687 80283.4553484,-3604994.96601 80201.747153,-3605112.93631 80181.2791486,-3605133.18348 80040.909904,-3605270.52142 79826.6557774,-3605482.14038 79749.7935503,-3605604.2823 79703.5973364,-3605742.02177 79669.6241762,-3605887.19786 79624.0861469,-3606027.45923 79516.0613113,-3606216.92975 79376.6038811,-3606391.27412 79227.0968091,-3606560.25852 79087.1403044,-3606734.58412 78962.1513803,-3606916.44525 78844.7528921,-3607102.57749 78691.2556365,-3607354.36053 78576.7608148,-3607543.09518 78422.7641406,-3607794.85912 78265.8452746,-3608044.51824 78186.165274,-3608168.55399 76866.3233652,-3610297.87942 76822.6877367,-3610357.76013 76739.3214943,-3610556.10856 76497.5634988,-3610982.57036 76341.4892365,-3611291.71121 76210.0974762,-3611519.3007 76094.9616092,-3611822.42538 75914.5348222,-3612065.72894 75638.3004547,-3612264.09684 75423.4308708,-3612492.66305 75194.7636186,-3612729.72332 74952.2228232,-3613025.73929 74920.8753858,-3613263.9374 74861.1546034,-3613464.63497 74742.2590768,-3613878.54046 74566.3539264,-3614286.88562 74389.9456529,-3614702.20647 74242.1556197,-3615237.9767 74091.4134444,-3615641.23293 74028.8288321,-3615900.28279 73992.7281269,-3616345.65869 73918.7128183,-3616692.73129 73933.1366426,-3616943.07526 73892.9024865,-3617191.94078 73874.50295,-3617320.68261 73842.7687578,-3617755.72291 73799.6352646,-3618063.94055 73775.3573671,-3618589.68565 73669.3132604,-3618896.62447 73576.0237842,-3619285.9659 73520.394322,-3619449.33327 73455.6752912,-3619649.8445 73388.1775766,-3619954.67997 73334.9818111,-3620168.09904 73241.2290449,-3620301.10592 73216.3468119,-3620415.62185 73178.8703412,-3620519.18916 73177.8112782,-3620782.96103 73132.9749242,-3621062.13504 72976.2865836,-3621422.1961 72889.110351,-3621587.41683 72673.294947,-3621938.33967 72571.1600001,-3622185.45802 72461.9919695,-3622454.30523 72345.2483828,-3622690.90072 72198.5582074,-3623009.35038 72042.4375856,-3623298.4787 71845.8913714,-3623669.08079 71685.1085466,-3624010.99981 71656.2028808,-3624112.37727 71537.2290116,-3624417.33878 71508.3828273,-3624641.12847 71509.7132589,-3624886.99652 71429.4353881,-3625109.92091 71449.2304442,-3625184.08461 71426.0365977,-3625300.15805 71427.8427442,-3625388.15901 71428.0238164,-3625548.5479 71427.2021764,-3625750.37002 71458.140604,-3625978.82494 71453.317767,-3626098.06248 71473.6608041,-3626212.21689 71487.0856704,-3626365.59154 71532.1220636,-3626556.58574 71593.3102491,-3626736.17455 71658.1330716,-3626884.41839 71714.421082,-3626964.9022 71718.4160754,-3627088.95642 71729.9849206,-3627245.26193 71736.8831968,-3627468.3491 71782.283831,-3627545.94016 71881.6439111,-3627692.43945 72018.8939931,-3627834.31765 72062.6266209,-3628026.76473 72139.8605319,-3628190.94863 72064.6472642,-3628301.63767 72055.3079269,-3628462.68122 71998.361518,-3628572.53379 72044.6288788,-3628660.64918 72115.2257449,-3628773.62979 72156.6102042,-3628893.04525 72162.918435,-3629146.08997 72126.9860481,-3629406.59554 72024.4619106,-3629719.14496 71979.8683204,-3629853.42768 71992.3212598,-3630047.23846 71989.9573748,-3630160.56992 72017.0150065,-3630275.4687 72047.3883077,-3630450.44414 72092.5495032,-3630692.90754 72167.0713382,-3630979.90508 72137.6631089,-3631108.74306 72135.3049751,-3631118.65019 72002.2521547,-3631700.89256 72005.0286644,-3631706.98897 72097.0617616,-3631910.6838 72128.4061373,-3632127.66439 72088.1064186,-3632350.0382 72006.9848817,-3632561.43667 71912.5035286,-3632762.3571 71853.6135816,-3632898.11812 71795.0721112,-3633106.83835 71781.50235,-3633329.18267 71817.9023641,-3633551.34304 71903.9405063,-3633761.81606 72016.8590842,-3633961.27435 72089.2937618,-3634092.31143 72147.2036173,-3634224.32003 72180.0194754,-3634359.4144 72180.9326118,-3634499.34571 72141.7718294,-3634717.76319 72106.1643265,-3634865.86095 72068.3548858,-3635088.32438 72055.8159398,-3635309.70717 72037.6471512,-3635527.88759 71995.3320045,-3635743.69176 71934.8945157,-3635956.33919 71866.2236034,-3636168.68727 71799.1037084,-3636379.59259 71736.7056508,-3636591.16891 71675.2689712,-3636803.77924 71612.0130324,-3637018.32181 71553.4426363,-3637234.53335 71511.0704568,-3637451.83306 71496.1415369,-3637670.13009 71517.2109764,-3637887.737 71566.0094335,-3638105.35265 71632.6299889,-3638320.61852 71716.7913737,-3638527.52884 71828.3188558,-3638716.94781 71974.5247758,-3638880.14788 72137.9180434,-3639030.98265 72288.7235574,-3639191.35288 72415.6190217,-3639370.33999 72528.1075359,-3639560.79491 72636.458888,-3639755.09684 72750.9248006,-3639946.12397 72881.5257294,-3640126.24648 73022.6278188,-3640299.25664 73155.6372622,-3640474.97071 73262.3683707,-3640665.71793 73344.8350885,-3640871.07183 73432.8810779,-3641074.13072 73548.6839627,-3641262.71061 73674.7204304,-3641444.66809 73785.7100564,-3641635.07214 73871.5460427,-3641837.05257 73944.616751,-3642046.56318 74020.1820851,-3642256.16478 74100.8277395,-3642463.45325 74164.1129292,-3642674.10749 74193.6209147,-3642893.02619 74214.0742034,-3643113.61409 74240.5486196,-3643257.97552 74283.6346291,-3643398.94433 74358.7353504,-3643607.53112 74410.3969199,-3643821.76054 74426.0516309,-3643968.22681 74435.3577206,-3644042.01342 74480.7268232,-3644257.51307 74553.7758821,-3644467.52498 74595.1324241,-3644607.93197 74622.9453558,-3644825.2913 74625.6088577,-3645047.23136 74627.0063595,-3645269.625 74650.2365162,-3645489.31596 74691.8064543,-3645706.17719 74732.8225644,-3645924.51735 74757.7436035,-3646145.76916 74760.1554077,-3646367.70041 74744.4390431,-3646518.02165 74718.8385373,-3646658.48963 74652.1636391,-3646945.85702 74610.2370978,-3647164.17487 74560.7031505,-3647378.71801 74482.5185353,-3647584.22317 74386.5519509,-3647784.08396 74300.9183909,-3647988.31803 74242.1520104,-3648202.52412 74198.2275743,-3648420.76823 74132.0298845,-3648708.65083 74021.3280798,-3648976.92457 73901.4367609,-3649161.4224 73760.4344883,-3649335.6575 73609.8838008,-3649504.54789 73461.3653455,-3649672.51266 73326.6182757,-3649846.47494 73217.5766052,-3650034.86391 73137.9825562,-3650237.81604 73068.3263595,-3650449.12438 72954.318797,-3650725.76809 72854.5879404,-3650925.98697 72770.7695824,-3651128.28447 72726.2045214,-3651411.95504 72743.8807694,-3651632.941 72790.9599777,-3651855.99818 72853.6526832,-3652075.62762 72921.2854618,-3652289.94133 72984.7311905,-3652502.6037 73034.935476,-3652715.28314 73063.7690841,-3652931.68034 73065.7068189,-3653152.593 73057.5736241,-3653375.63667 73063.5206453,-3653596.19595 73105.4718629,-3653809.07473 73181.127353,-3654015.68823 73273.6439891,-3654218.91979 73365.6250095,-3654423.13141 73440.4766471,-3654631.21534 73495.3816531,-3654845.06733 73537.9520984,-3655061.46744 73577.6867998,-3655280.26251 73621.6442942,-3655499.71143 73667.1165944,-3655718.71614 73705.3533209,-3655937.45705 73727.3363843,-3656156.60436 73724.3335908,-3656375.83939 73698.1277867,-3656594.22777 73679.2970956,-3656815.88309 73684.9343375,-3657037.93165 73687.3278277,-3657259.86188 73632.1796213,-3657545.64536 73563.7588135,-3657756.99663 73522.3864521,-3657973.33215 73518.2916043,-3658195.02542 73529.3666413,-3658343.32487 73546.715208,-3658490.85408 73580.1888099,-3658709.92174 73617.9762718,-3658927.14846 73656.5118672,-3659144.40264 73700.8517347,-3659435.317 73724.7885262,-3659655.53602 73743.4492094,-3659876.56181 73762.626733,-3660097.10691 73788.3271077,-3660316.89102 73843.0029598,-3660605.18588 73923.9169041,-3660886.44493 73992.1628036,-3661097.29088 74058.1265408,-3661309.05301 74113.4290691,-3661525.42246 74159.6584364,-3661743.95894 74204.122798,-3661962.93079 74253.9355281,-3662179.10029 74316.70902,-3662389.24804 74399.769754,-3662591.14349 74507.9675556,-3662781.966 74682.8489193,-3663021.19327 74828.0615886,-3663190.38504 74927.735997,-3663299.95347 75078.7474511,-3663460.86365 75279.0088413,-3663675.53794 75425.0610895,-3663842.26361 75563.0325085,-3664018.1878 75686.6491923,-3664204.08053 75787.3552764,-3664401.62771 75873.7699418,-3664682.59527 75910.4412339,-3664902.78549 75932.5234685,-3665050.49191 75976.3259792,-3665266.9458 76051.0773746,-3665470.5408 76165.9237998,-3665657.11443 76313.398796,-3665825.89418 76484.2711727,-3665976.54262 76669.0602006,-3666108.71312 76858.9058814,-3666225.57934 77048.167458,-3666337.92755 77231.6118809,-3666459.05731 77402.2960289,-3666601.20637 77543.9782004,-3666771.27587 77652.3314329,-3666964.61063 77769.885426,-3667152.28618 77946.1439022,-3667299.13752 78174.7784959,-3667407.43156 78384.6826587,-3667515.54064 78477.9363368,-3667609.39077 78507.8417353,-3667734.40212 78489.5694795,-3667885.63302 78497.3240947,-3668028.82175 78581.1514969,-3668141.315 78776.3112323,-3668276.86776 78951.6327835,-3668415.19299 79094.8541578,-3668577.328 79218.273764,-3668761.72393 79339.5329655,-3668950.53823 79461.5588031,-3669138.88127 79577.8094506,-3669328.01274 79681.8830214,-3669522.19549 79768.2173732,-3669723.22468 79830.4288043,-3669934.8641 79866.8985033,-3670153.55672 79877.711896,-3670301.85599 79875.6114557,-3670523.13495 79864.0056739,-3670669.61461 79827.4969184,-3670964.08602 79803.8650671,-3671186.57577 79799.2263878,-3671333.81004 79809.3995491,-3671479.08802 79838.1453775,-3671622.04773 79879.4210261,-3671763.96709 79944.3374342,-3671976.70639 79989.1654118,-3672192.20837 80013.5823495,-3672412.45985 80022.7061453,-3672634.15033 80022.5614069,-3672856.50095 80018.174739,-3673078.69632 80012.8262284,-3673299.85717 80009.7411597,-3673520.60124 80010.1487844,-3673741.47323 80017.0431506,-3673962.5828 80027.9292218,-3674183.8386 80031.0803128,-3674404.81124 80014.0577685,-3674624.04582 79989.473313,-3674770.05059 79943.5442659,-3674987.22713 79901.1444766,-3675203.53347 79875.6740458,-3675421.45915 79864.5802079,-3675567.45821 79842.206507,-3675789.4947 79812.237648,-3676014.25101 79837.5065745,-3676231.53692 79912.2175018,-3676367.68774 79999.8907179,-3676497.81777 80054.2399887,-3676623.72907 80036.4458448,-3676747.99677 79958.6608718,-3676873.06461 79855.1220462,-3676998.68778 79761.1858278,-3677128.16033 79711.5697783,-3677261.75502 79724.377924,-3677403.1334 79773.5769285,-3677546.84464 79825.9096509,-3677693.6689 79870.6754125,-3677985.62244 79869.8099269,-3678206.94833 79862.6516086,-3678429.54268 79860.9088604,-3678654.33427 79857.7418721,-3678877.07499 79843.7426512,-3679095.42128 79809.8075967,-3679305.54164 79751.9080992,-3679508.28765 79668.8266786,-3679709.61072 79559.8631344,-3679914.98153 79426.7939891,-3680130.46121 79298.124164,-3680348.60018 79242.0660644,-3680487.45397 79229.1120267,-3680615.89585 79274.9508649,-3680728.50506 79373.466525,-3680828.55521 79496.0260691,-3680926.98874 79612.7306256,-3681035.20134 79700.5824827,-3681160.34458 79758.1394004,-3681300.86652 79788.1708195,-3681449.37345 79793.5859345,-3681601.47485 79777.0810713,-3681751.77305 79742.5635128,-3681895.91414 79666.7255713,-3682103.99784 79575.6193786,-3682306.02486 79485.5109265,-3682508.08825 79411.7230355,-3682714.7475 79340.3188271,-3682999.44403 79297.796166,-3683218.74251 79257.7132632,-3683439.62945 79225.328001,-3683661.79809 79213.5298526,-3683881.22428 79234.8855894,-3684095.8708 79284.5448311,-3684308.5579 79337.2276044,-3684527.35233 79372.4310368,-3684759.49663 79400.8059115,-3684993.88893 79447.4446349,-3685213.96123 79535.4803657,-3685402.07437 79685.1553643,-3685544.48056 79878.4002049,-3685657.00613 80073.7259904,-3685774.10553 80235.3707211,-3685923.94757 80357.5405697,-3686107.81871 80449.370994,-3686315.06115 80537.2287222,-3686610.10289 80577.7491637,-3686833.45119 80583.4481835,-3687052.5232 80541.2301386,-3687263.34017 80463.2109947,-3687469.34482 80386.2558607,-3687680.38522 80345.057472,-3687904.23115 80353.8150593,-3688128.41235 80421.4037639,-3688335.7659 80535.6712273,-3688523.84701 80654.727144,-3688717.60089 80762.7058985,-3688920.44242 80918.4009905,-3689171.00821 81066.7169004,-3689316.36865 81250.1095118,-3689425.04121 81450.9975454,-3689540.35293 81643.018774,-3689699.81191 81736.6770977,-3689823.17829 81778.7713672,-3689949.14806 81753.1454626,-3690068.63283 81673.7536306,-3690182.64471 81565.8626295,-3690297.10864 81455.718868,-3690418.48533 81369.1246423,-3690551.72019 81326.9653303,-3690699.57933 81330.91008,-3690850.6313 81376.5004042,-3690990.22136 81456.4894551,-3691111.58736 81557.3966431,-3691221.22974 81665.2056316,-3691326.62862 81811.9286002,-3691494.91989 81926.4431156,-3691683.01525 82007.2702732,-3691890.36061 82083.532656,-3692099.53731 82188.9909551,-3692289.29965 82282.0347558,-3692402.15246 82429.0179973,-3692576.9514 82538.9783545,-3692773.37619 82555.056276,-3692995.3334 82481.68392,-3693230.99274 82427.7209988,-3693380.41785 82411.4822114,-3693570.70567 82536.3382068,-3693701.71884 82675.5004697,-3693769.79631 82828.2943508,-3693840.87348 82968.5064153,-3693927.9784 83080.4099513,-3694037.52881 83162.4416857,-3694164.47023 83214.5171008,-3694304.30222 83236.6434356,-3694450.02916 83233.7081719,-3694597.83302 83226.8465322,-3694818.44907 83249.2768973,-3694962.68829 83293.2937619,-3695104.22335 83345.3316603,-3695245.05405 83431.1269422,-3695453.08696 83534.8284281,-3695649.78573 83665.4628447,-3695827.48705 83829.5067946,-3695979.93293 84057.8154337,-3696171.7207 84179.3462608,-3696345.59048 84240.5597029,-3696556.21949 84267.177945,-3696783.56586 84288.3982469,-3697008.21532 84336.7753395,-3697221.3711 84423.4457964,-3697425.94148 84452.9425847,-3697493.48771 84478.6782431,-3697561.39533 84500.1720906,-3697629.14696 84517.8680878,-3697698.25803 84533.512849,-3697768.79281 84548.3723131,-3697840.29814 84563.9252231,-3697913.32813 84581.382447,-3697988.92674 84602.0282842,-3698066.14181 84622.1383345,-3698144.33663 84633.1263602,-3698219.19763 84627.1546797,-3698286.43878 84596.82958,-3698343.2895 84545.3397306,-3698391.3662 84481.0585844,-3698433.97516 84412.3045021,-3698475.91982 84347.4141832,-3698521.50454 84295.5279375,-3698573.56417 84263.5036896,-3698635.84898 84252.1083265,-3698707.88752 84258.5128811,-3698785.07835 84279.3893687,-3698862.80167 84311.3914548,-3698936.9367 84351.8662778,-3699004.8873 84396.2858241,-3699067.48628 84441.314571,-3699127.10947 84482.8684348,-3699186.10512 84517.4174441,-3699245.34277 84541.0902917,-3699308.17794 84553.4246553,-3699373.59417 84556.8973371,-3699442.18231 84553.2733149,-3699513.50759 84545.3156391,-3699587.17195 84534.5581383,-3699662.23241 84523.7455024,-3699738.78998 84515.1417512,-3699816.42825 84510.5118705,-3699894.71247 84512.1198833,-3699973.22626 84522.5160636,-3700050.56435 84542.9112752,-3700127.77074 84569.8306437,-3700204.21785 84599.8176594,-3700278.77905 84629.5918628,-3700352.33303 84654.2179963,-3700423.19902 84670.4155916,-3700492.2557 84674.4786098,-3700558.36722 84662.6275456,-3700622.39389 84632.1728066,-3700682.73755 84587.8001425,-3700741.06978 84534.2136685,-3700798.56313 84476.9027845,-3700855.41964 84420.784374,-3700913.81913 84372.3826284,-3700973.00232 84335.6163446,-3701035.11232 84316.169307,-3701101.8575 84317.3219734,-3701172.35922 84331.6255566,-3701245.34388 84348.1380244,-3701319.40931 84355.935709,-3701392.65424 84348.3551124,-3701462.83452 84327.3556366,-3701531.02168 84296.6433091,-3701598.35155 84259.97927,-3701664.46287 84220.8200266,-3701730.4823 84182.6220811,-3701797.53652 84149.1281931,-3701865.7633 84123.5637126,-3701935.78112 84107.9064012,-3702008.16252 84099.4483094,-3702081.80839 84096.1749231,-3702157.14428 84095.1655257,-3702232.06382 84094.405605,-3702306.99255 84091.1872167,-3702380.83136 84083.5325962,-3702453.00769 84067.9485006,-3702523.39292 84044.0093977,-3702589.97252 84011.8913119,-3702654.75181 83973.5720131,-3702718.30332 83931.1027722,-3702779.20342 83886.3694784,-3702840.51984 83841.1738816,-3702900.81977 83797.1707215,-3702962.6627 83754.6646421,-3703024.56073 83714.3674394,-3703087.5395 83675.567314,-3703150.57335 83638.2275099,-3703214.66038 83602.1352634,-3703278.79332 83567.0226789,-3703343.46202 83533.1576501,-3703408.17664 83499.7548692,-3703473.90768 83467.1189873,-3703539.16722 83434.9637301,-3703604.94415 83385.547817,-3703725.55318 83366.8162479,-3703772.83546 83394.3009034,-3703867.79327 83491.8100781,-3704205.19147 83538.3793617,-3704399.2956 83288.0588808,-3704947.75214 83368.3881585,-3705439.42917 83043.2669913,-3705759.75833 83218.4280037,-3706254.43047 83325.1170468,-3706790.05591 83656.9621885,-3707284.00963 83793.4502315,-3707553.38921 83607.2861851,-3707987.77571 83318.9151106,-3708551.31756 83206.7427509,-3709147.33908 83193.9974382,-3709642.08646 83525.2207267,-3710233.97082 83141.6906699,-3710681.06464 83064.3655565,-3711327.84336 82707.622358,-3711834.38815 82621.1227449,-3711957.62507 82525.0379763,-3711941.08778 81989.3316665,-3711717.94154 81865.8048211,-3711666.4116 79000.433495,-3711688.12462 78071.8035272,-3711930.19491 77597.0078831,-3712061.08527 77531.3429278,-3712696.27567 77682.2074145,-3713821.16812 77097.2678392,-3714749.50042 75255.8910392,-3715135.23102 73672.176394,-3716047.13653 72372.6511234,-3715528.93374 70875.4996402,-3716330.07807 69686.5518327,-3717532.83492 68668.3188846,-3719456.41105 67349.5455551,-3722148.83029 66252.9314799,-3722515.98634 64532.332399,-3723123.86286 60669.1280727,-3721858.67545 58528.7060879,-3721094.96129 58185.3347633,-3721692.30732 57740.2056433,-3722426.78054 56911.1639067,-3722754.82549 56063.0898093,-3722294.74831 55707.4430604,-3721658.05085 55108.4152862,-3721414.545 54231.3660818,-3722304.37687 53040.7700093,-3722857.83512 51216.8587437,-3722934.17969 50090.9384809,-3723778.77816 49037.4670601,-3725411.91802 48294.1706629,-3726547.93982 48019.1373445,-3727356.58865 47840.2464347,-3728442.08233 47517.5646038,-3729214.98718 46935.6223195,-3729616.56086 46264.4054867,-3730121.73174 45457.2890365,-3730532.92581 44792.1776194,-3730456.28669 43594.7512531,-3729996.19412 42465.7388048,-3729833.39877 41838.6166927,-3729359.50687 41207.3771949,-3729016.85481 40551.8822352,-3729051.98118 40039.8634466,-3729252.79235 39557.2914146,-3729548.61303 39165.4680541,-3729754.87974 38739.288009,-3729836.97638 38381.1468618,-3730077.96122 37960.621569,-3730283.6574 37879.3034579,-3730509.43842 37805.8509009,-3730792.46147 37840.3408546,-3731262.83215 37863.8226509,-3731767.26483 37998.0235389,-3732384.21622 38121.73141,-3732785.96631 37843.3886573,-3733252.21364 37720.2761666,-3733580.85083 37505.4550048,-3734118.89534 37209.132056,-3734484.05759 36987.5989618,-3734953.90889 36977.2262139,-3735508.54059 36949.4092561,-3735853.70584 37006.2047347,-3736214.00631 36859.418185,-3736581.22612 36789.4326012,-3736931.81782 37087.5014715,-3737144.72596 37358.65106,-3737537.47841 37321.4071491,-3737806.8605 37019.4593538,-3738013.94346 36657.5720608,-3738220.79423 36417.3867568,-3738352.23944 36294.7423795,-3738547.00497 36262.6973262,-3738757.12989 36228.8623412,-3739176.50703 36132.1622542,-3739895.78417 35810.3500186,-3740623.16987 35401.8516807,-3741028.60249 35076.6705891,-3741504.07556 34882.4770135,-3742043.87127 34787.3578026,-3742612.83279 34927.6523767,-3743540.75815 34594.2920593,-3744020.91653 33693.9087032,-3744072.30528 32896.9155974,-3744479.73294 32889.578312,-3744488.95126 31640.7296927,-3746036.01091 31121.286366,-3746623.11186 30448.933174,-3747968.32723 29983.5480239,-3748572.41824 29314.1115925,-3748807.71627 27572.1259389,-3748755.72263 26337.7609996,-3749224.19867 25767.3386079,-3750133.05552 25576.8161172,-3751055.08811 25376.4222444,-3751752.95745 25264.483694,-3752309.26219 25512.8300811,-3752935.97029 25597.7897814,-3753476.65219 25564.3823738,-3753836.07524 25590.2807121,-3754286.13353 25646.6175972,-3754676.88483 25462.6434594,-3755095.1245 25352.0518515,-3755494.62513 25513.5482061,-3756085.6301 25389.8754653,-3756474.1518 25294.1649563,-3757103.50157 25471.2288616,-3757404.85508 25738.7810673,-3757677.62159 26058.3262445,-3758002.78819 26303.6246408,-3758222.77167 26661.5770466,-3758435.97811 26899.3025637,-3758678.16039 27060.4083134,-3758965.43616 26923.8279949,-3759278.04805 26711.7153976,-3759486.42412 26500.2418733,-3759664.3503 26254.9509248,-3760232.16428 25891.5439423,-3760558.7676 25731.0120859,-3760850.49724 25826.5414678,-3761127.82877 25974.0010863,-3761399.11123 26360.0460676,-3761822.69648 26635.1983203,-3762379.5143 26984.6785768,-3762398.58841 27312.905887,-3762551.74966 27578.4963808,-3763063.75472 28099.9757238,-3763312.57543 28498.5482918,-3764122.31412 28710.8652695,-3764756.22976 28756.2713181,-3765444.84736 28698.6225501,-3766230.52234 28350.5443736,-3767120.72184 28015.049032,-3768014.88696 27797.4473795,-3768555.76953 27702.5604669,-3769094.75582 27351.7664757,-3769310.41442 26792.9776968,-3769417.36021 26649.3148108,-3769444.94683 25692.8473802,-3769512.50215 24867.3729318,-3769997.10827 24223.847331,-3770685.35902 23036.7833102,-3770821.178 22278.7856763,-3771278.31625 21243.678377,-3772530.33471 20779.6883858,-3773678.88546 20029.3667737,-3774842.65496 19412.2301535,-3774947.36353 18612.8512825,-3774690.54354 18138.6215805,-3774501.88644 17609.5020891,-3774737.2809 16816.1393221,-3774626.55354 16397.6414813,-3775048.93004 16188.4560587,-3775537.61448 16180.3677597,-3776351.06425 16199.0165635,-3776745.40503 15880.2990807,-3777131.06165 14995.407413,-3777435.48636 14102.6852248,-3777330.48955 13395.9235454,-3776816.87302 12814.4479149,-3776485.30425 11616.0353043,-3776845.36204 11162.1892793,-3776739.88118 10653.2015475,-3776872.09611 9844.33106765,-3776517.4921 9316.25411791,-3776147.97496 8797.11717829,-3775753.32196 7727.97519425,-3775087.74079 6983.05756872,-3774520.77247 6505.10051482,-3774326.48062 5661.0768282,-3774768.26671 5271.80981858,-3775177.69741 4875.93628955,-3775331.13749 4427.95660896,-3775116.99048 4041.1676748,-3774783.27141 3217.98019288,-3774784.27845 2122.23139124,-3774675.13532 1615.23920557,-3774370.36565 901.472859616,-3774012.3692 -33.1896204919,-3774089.5933 -157.587933894,-3774203.28729 -516.024520821,-3774530.4384 -880.590395475,-3775007.19578 -1089.4600795,-3775640.14824 -1283.11431654,-3776353.08718 -1571.66768839,-3777138.87064 -1988.78813305,-3777996.22845 -2618.55404266,-3778730.69529 -3050.41574559,-3779276.32188 -3248.03091637,-3779742.36632 -3300.02692958,-3780293.81134 -3335.98699878,-3780923.27829 -3325.67126891,-3781292.27173 -3463.62099171,-3781732.09459 -3706.40301039,-3782249.87667 -4222.14104492,-3782654.97392 -4918.6954746,-3783338.43946 -5765.02843701,-3784020.24092 -6623.42727573,-3784201.12083 -7174.74162104,-3784007.00744 -7875.36546222,-3783362.25271 -8451.11519613,-3782584.87014 -8890.18160345,-3781441.06958 -9423.46491615,-3780716.25207 -9986.73488305,-3779905.90822 -10154.6394216,-3778729.415 -11225.8212836,-3777819.54227 -12399.0907107,-3777206.98637 -12029.0173563,-3773461.35401 -13716.4802116,-3772047.93866 -13697.3194411,-3770032.59461 -14097.7668301,-3768178.76901 -14592.8039302,-3767000.57697 -15424.6158221,-3766152.81551 -18439.6389594,-3765284.42611 -20269.2372593,-3763941.29201 -23194.2083916,-3763039.39668 -23946.783555,-3765836.852 -27677.1921281,-3765197.69376 -29600.7152444,-3764339.41327 -29413.6413906,-3762325.75461 -28958.892473,-3758635.01661 -30071.3347083,-3757259.11794 -31757.5396422,-3755453.30066 -33458.5744899,-3753258.05738 -41360.8632717,-3750827.80379 -39611.3608287,-3748372.80436 -38888.6015254,-3745998.08587 -41559.3704721,-3745169.67655 -41578.0872401,-3742916.51916 -40966.6896323,-3739604.65909 -39676.7437327,-3737455.34936 -40563.7511368,-3735936.55261 -41125.1743488,-3735129.83002 -42693.4749648,-3734356.40004 -43154.6370884,-3733331.30817 -42814.9013953,-3731859.39698 -42930.0873174,-3730718.94288 -44419.7038789,-3729455.84515 -45564.8668474,-3728279.50709 -45159.2579637,-3726424.23268 -44341.9256006,-3725856.68302 -44368.0561903,-3725010.60726 -44870.7804842,-3724335.46872 -46185.5336776,-3724012.45361 -46959.8158851,-3723599.26018 -46721.7404198,-3723465.86688 -46717.3330288,-3722992.32884 -46505.6912923,-3722080.75818 -45959.8797912,-3721578.45566 -43355.6481827,-3721670.39355 -42920.1852701,-3722148.33935 -39548.1936595,-3724367.96989 -37726.4314835,-3722412.0251 -37602.1709943,-3721158.6544 -37783.4741082,-3719865.96588 -37322.3381303,-3719171.25079 -36307.802129,-3719972.7585 -32398.756954,-3722445.0172 -31140.7549313,-3723164.79004 -29997.501134,-3723896.28419 -29441.2416684,-3724336.35217 -28840.9731354,-3725257.34497 -27544.9691286,-3724152.2984 -27608.4711018,-3723712.08703 -27632.0969302,-3722629.32019 -26724.9274096,-3722380.48031 -26764.3890817,-3721642.60584 -26428.174621,-3720508.80752 -25734.9848104,-3719293.90893 -26026.8379125,-3718112.30303 -26841.1910986,-3716628.72702 -28025.4411137,-3715264.74628 -28807.5407911,-3713624.66606 -28504.0397237,-3712744.28533 -27141.1399107,-3711493.31054 -26861.669416,-3709314.48428 -26063.2997585,-3708376.03067 -26229.7473881,-3707121.2513 -26318.4751529,-3705600.76419 -25391.3511646,-3704844.77951 -25305.7557702,-3703880.90723 -26327.7350156,-3701823.66507 -27636.2792819,-3701467.24258 -29335.0333219,-3701484.29247 -31107.0698778,-3701323.90045 -33363.6753073,-3700107.24359 -35485.7850307,-3699777.17797 -37786.7410345,-3698750.14081 -40097.7372312,-3698502.46993 -43086.440681,-3697165.55607 -45925.4785528,-3695380.52983 -48968.7712154,-3692999.10041 -47678.5067694,-3690002.60779 -48162.590379,-3689250.04867 -48117.0710388,-3688103.76095 -48141.1414994,-3686915.47904 -48620.5010074,-3684706.71175 -47960.2758565,-3684323.25767 -47176.7736239,-3683431.74493 -46521.5259416,-3682071.81451 -46390.3311979,-3680337.71238 -47747.293996,-3680117.09291 -48216.3919745,-3679633.66763 -47733.0657793,-3678827.91381 -47982.9056141,-3677328.88662 -48610.5857647,-3676529.20637 -48342.1436606,-3676055.93806 -48004.8856234,-3675794.82058 -47926.9744297,-3674985.13703 -46687.8747347,-3674344.8738 -45938.503307,-3673347.2108 -45150.7543727,-3673900.70932 -44282.0775729,-3673344.6388 -43827.2425225,-3671620.88336 -45673.498079,-3669532.71127 -46342.6236936,-3668540.89257 -45211.7804291,-3667319.59048 -45430.5264389,-3666758.05438 -45306.7689368,-3665471.3787 -44892.8850471,-3665161.61532 -44960.7582362,-3663819.00242 -46955.2091671,-3662837.60331 -46888.0879994,-3660867.09956 -46951.8760554,-3659759.25139 -47491.1946646,-3658982.39127 -48597.6351446,-3658052.54755 -49147.5021559,-3656983.85658 -48613.8166404,-3655907.35193 -48528.8034616,-3653955.51081 -47707.9941975,-3652655.38872 -48395.3904558,-3651448.94746 -49113.6581448,-3649692.90078 -50388.2095763,-3648307.3863 -49465.4538217,-3645158.35907 -47370.3731539,-3641966.58734 -46397.2464091,-3639348.78233 -47242.46821,-3638305.38849 -47988.0196498,-3636853.88548 -49952.2024466,-3634642.46961 -50230.4481487,-3632243.28084 -49050.3396481,-3629490.23089 -49828.5668467,-3626788.44865 -50399.9888388,-3624396.63769 -49259.4691327,-3623331.45852 -49070.6582988,-3621858.01029 -48353.350629,-3620681.6566 -48024.8120781,-3619110.92604 -48104.7955694,-3617933.68003 -48338.0612886,-3616391.55667 -45326.9277594,-3615628.87292 -45046.1317251,-3614334.85114 -44456.0869252,-3613225.66917 -43950.2668376,-3612195.78834 -41949.1816324,-3614363.78546 -40918.9492851,-3617624.33216 -40394.2533987,-3618498.29822 -37210.7724677,-3619175.39405 -33910.7007108,-3620213.15288 -32191.0704141,-3616877.97943 -31919.6855223,-3614463.80107 -31436.1227924,-3613146.96365 -31306.3006086,-3612793.2405 -31147.9316768,-3611392.27446 -31716.7574833,-3610430.81175 -31185.8157314,-3608635.94871 -30791.7997617,-3608001.2176 -30957.1346354,-3607720.21169 -30868.5439164,-3604955.95282 -31712.9182106,-3602654.29972 -32357.2858729,-3601549.40589 -33245.5248927,-3600701.81375 -33409.8359335,-3600308.55053 -33937.9869064,-3600004.03708 -33358.3626924,-3599487.77193 -33168.519002,-3598351.49827 -32544.7677042,-3597461.42632 -32032.7983093,-3596570.32249 -31298.2933912,-3595793.02691 -31233.6901006,-3594841.91196 -30670.459693,-3594455.29955 -30729.6071388,-3593864.13942 -30466.1626213,-3592747.9328 -29807.8121303,-3591887.49316 -29743.4931301,-3590936.34829 -29401.5296921,-3590267.71556 -29506.9421856,-3589539.10947 -29390.9045344,-3589149.90607 -29269.6302956,-3588029.57107 -28706.4101369,-3587642.91015 -28867.734403,-3586913.79452 -28693.9676203,-3586243.60784 -28282.0320544,-3586073.65943 -27679.8009826,-3585524.64191 -27563.9659808,-3585078.00967 -27108.9702706,-3584298.06915 -27049.0327746,-3583850.92906 -27267.032133,-3583177.18485 -27038.1039492,-3582750.56876 -27034.6134827,-3582227.52425 -27589.9873696,-3581718.43203 -28144.6254963,-3581098.04977 -28248.8379062,-3580257.1602 -28004.1241448,-3579674.85363 -27738.5065472,-3579534.08963 -27507.6241363,-3578752.09991 -26664.4550426,-3578367.89405 -26489.9892587,-3577641.78498 -26708.5328668,-3577023.93844 -26814.5442249,-3576351.20713 -26358.6102845,-3575459.4229 -25859.8924352,-3574522.73006 -24831.8541942,-3573854.53357 -24156.6654555,-3573351.45419 -24263.9624642,-3572846.89976 -24734.1646625,-3572341.37738 -25036.7460633,-3571552.2905 -25249.3423914,-3570318.61394 -25131.0740372,-3569591.96728 -24833.6399995,-3568313.56973 -24626.4804894,-3567291.54478 -23652.1413312,-3566973.80603 -23365.2102728,-3566192.7417 -24316.4364621,-3566127.90306 -24426.0114005,-3565847.42595 -24252.12001,-3565177.16072 -24529.6184893,-3564894.69822 -24469.0037416,-3564391.13529 -24072.780333,-3563891.03211 -24106.1221954,-3562646.75187 -23438.1082541,-3561768.90099 -23486.1161658,-3560873.0561 -23128.3010611,-3560217.30013 -21961.3042151,-3559374.63858 -21611.6187696,-3557809.94116 -21676.2905758,-3556827.11326 -20304.7808983,-3555638.18812 -20406.267308,-3554461.32327 -19048.4715766,-3552849.98032 -18258.7371305,-3552185.02659 -17738.9879032,-3550398.09345 -17805.4252522,-3549104.10666 -18643.7869639,-3548064.34363 -19051.8945034,-3546915.02782 -17897.1490808,-3546036.78084 -16370.4588089,-3545124.25992 -15108.449722,-3544150.41154 -13757.9611463,-3543378.39632 -13081.9791778,-3542936.48562 -12794.2098696,-3542043.42743 -12341.3664099,-3541487.25026 -12335.0769518,-3540759.47529 -11769.2130669,-3540092.44603 -11819.3192021,-3539420.09076 -12313.3250715,-3538296.12933 -12421.8175416,-3537749.53606 -13310.7504881,-3537111.43568 -13139.8932049,-3536776.94539 -13515.0706604,-3535779.53781 -12585.3205005,-3534931.10488 -11445.7769044,-3534264.33333 -10754.6560012,-3533513.79725 -10323.11208,-3532662.20478 -10287.6123993,-3532307.43506 -10393.8871018,-3531555.68233 -10094.169334,-3531106.87827 -9781.03081744,-3530292.03199 -9919.74848102,-3529638.4971 -9298.71704821,-3529204.01885 -9129.54503578,-3527961.63393 -8548.88801318,-3528147.90212 -7342.29279211,-3529062.8416 -6676.12708648,-3529224.67513 -5509.55849744,-3528946.76409 -3774.14953772,-3529183.80303 -2306.13776713,-3530029.14008 -936.175089634,-3530971.41563 1640.58308417,-3531086.4331 3026.93008566,-3531551.92405 3703.02933531,-3531893.44065 4611.5989599,-3532446.93848 4851.16251181,-3533030.22377 5473.02050024,-3533366.34308 6594.41301867,-3532986.00228 7450.95954009,-3532087.88224 8472.59109975,-3531739.95554 9134.99380664,-3531396.30207 9212.41177365,-3530788.73997 9015.64854842,-3530329.3029 8907.41609417,-3529908.45562 8832.9061511,-3529254.06987 8974.39070406,-3528649.26801 8680.49841983,-3528062.04458 8704.64975962,-3527498.54366 8755.35520477,-3527059.83812 8990.7228287,-3526801.4552 9346.12672965,-3526729.10388 9378.6512829,-3526225.32563 9615.67988042,-3525799.68711 9811.30855144,-3525422.02892 10182.347304,-3525020.09609 10548.790958,-3524705.89979 11100.085994,-3524100.05882 11097.2667159,-3523281.36951 11084.408463,-3522414.37751 11242.0730416,-3521803.12297 11434.6251842,-3521413.35344" style="stroke-linejoin:round;stroke:#000;stroke-width:1px;fill:none" /></g></g></svg>