<svg xmlns="http://www.w3.org/2000/svg" baseProfile="full" height="37560.1906373" version="1.1" viewBox="27128.531963,3672061.320922,26840.295051,37560.190637" width="26840.2950508"><defs><style type="text/css">polyline,line,rect,path,polygon,.polygon{fill:none;stroke:#000;stroke-width:1px;stroke-linejoin:round;}</style></defs><g fill_rule="evenodd" transform="scale(1,-1)"><g class="id" id="70070"><polygon class="_70070" id="None" points="37747.6946147,-3672304.27121 38877.8817307,-3672737.14673 38877.7171914,-3672743.13998 38944.7465214,-3672768.47147 38946.73056,-3672769.02576 39937.3487782,-3673124.60248 39946.9038262,-3673113.36904 39954.1565399,-3673104.07165 41328.3380831,-3673598.13915 41960.424486,-3673823.42269 42136.3730476,-3673886.73385 42174.7372943,-3673900.283 42393.5179306,-3673978.26586 42529.645357,-3674026.48867 42533.3500688,-3674028.08988 42802.1364982,-3674123.44083 42932.3119644,-3674170.00094 43016.4502145,-3674200.30196 43058.2833449,-3674214.94617 43184.7405381,-3674260.40465 43308.9914366,-3674304.30311 43439.9164105,-3674350.88409 43443.8845814,-3674351.99273 43802.0139124,-3674479.28847 43804.2340096,-3674480.34911 43838.6441175,-3674492.29044 43935.6587614,-3674526.94409 44060.3821455,-3674571.85559 44959.7874939,-3674909.95384 44982.5703588,-3674917.5773 45653.4420953,-3675132.44012 45828.5623095,-3675153.2454 45750.6772076,-3675886.86191 45748.9894475,-3675902.81023 45691.9098144,-3676352.09232 45669.7303248,-3676413.46231 45613.4911606,-3676568.36498 45470.5322653,-3676832.34738 45454.2256129,-3676861.88927 45003.907433,-3677779.20201 44293.9104384,-3678878.8066 44634.2360221,-3678999.12533 44882.6162976,-3679100.42219 45003.7446043,-3678848.83809 45471.1889199,-3679090.61278 46198.3739257,-3679465.98877 46256.0414706,-3679495.56518 46877.172135,-3679801.54991 46575.9909995,-3680266.11362 46442.7614014,-3680466.8828 46267.5937359,-3680929.41189 46115.7038599,-3681336.09894 45882.8239738,-3681970.4813 45438.9490449,-3683179.36328 45432.738019,-3683196.18671 45424.8911868,-3683217.96345 45380.8557067,-3683537.6447 45497.9765685,-3684076.68959 45620.3468713,-3684642.8708 45621.0273143,-3684645.3887 45685.309258,-3684943.06008 45891.3596348,-3685891.92092 46048.8075926,-3686618.01859 46188.5726726,-3687441.59857 46397.2192125,-3688395.53563 46492.4685441,-3688848.01302 46621.1653349,-3689419.87409 46831.2446933,-3690439.33481 46883.1053791,-3690697.68114 47047.7519354,-3691506.46027 47158.0893071,-3691964.35589 47816.1010615,-3695037.52992 47824.2663764,-3695076.74287 47965.4141066,-3695785.41487 47968.2471901,-3695800.48832 47975.0037152,-3695800.1749 48037.6140096,-3696085.31336 48135.6608423,-3696462.90126 48203.4934275,-3696785.17287 48223.6138751,-3696880.19859 48375.1028927,-3697032.83303 49622.9691462,-3698128.44909 49780.0199539,-3698269.74286 49931.898419,-3698426.38942 50059.214031,-3698549.36809 50429.0542373,-3698867.98587 50705.8739324,-3699052.57576 50888.5021786,-3699236.06513 51100.1396897,-3699409.85896 51647.0874108,-3699912.81855 51665.4127322,-3699982.30449 51714.5181638,-3700095.62793 52735.324382,-3702453.65462 53299.2195157,-3703690.8916 53461.3078656,-3704337.19204 53794.1362681,-3705633.0356 53677.9417125,-3706084.19787 53595.816615,-3706387.84273 53577.9094743,-3706863.71604 53555.1185714,-3706901.57519 53544.9930973,-3706924.28884 53541.7106491,-3706970.68523 53540.0763266,-3706993.63369 53540.2036111,-3707350.5387 53538.7764386,-3707365.99496 53525.0593741,-3707518.57341 52922.1167136,-3706700.12233 52692.832621,-3706396.36582 52622.0196477,-3706299.93444 52565.5833195,-3706225.89443 52526.6620774,-3706196.32633 52485.5070045,-3706166.19662 52435.7100798,-3706150.32387 52383.2627179,-3706130.87885 51273.0668033,-3706086.18686 50501.2141278,-3706052.84906 49803.1067826,-3706028.04825 49304.8041819,-3706017.26933 49254.6214968,-3706015.38193 49097.8716216,-3706008.0487 48550.2056857,-3705983.90839 48009.6743889,-3705972.9613 46176.8990842,-3705904.28938 45258.9646634,-3705867.41113 44623.4221017,-3705849.33764 44538.2031623,-3705794.9983 44532.3063915,-3705791.3364 44523.4681409,-3705785.59382 43355.4076534,-3705792.78202 42134.0386442,-3706128.38188 42112.6326079,-3706134.28768 41984.6533448,-3706162.23763 37176.8479714,-3707229.32743 36969.9087838,-3707275.08346 35823.8223215,-3707555.75876 35116.7920218,-3707711.13024 34355.2492964,-3707912.97304 33420.9158126,-3708164.01089 32629.4407425,-3708346.02779 32402.6000943,-3708397.7271 30737.1101471,-3709071.84028 29693.3297226,-3709494.76092 29621.3067698,-3709523.75423 29737.7841542,-3708854.75841 29805.5329144,-3708673.20991 29844.1700718,-3708559.3271 29880.7956919,-3708445.88836 29917.9906737,-3708338.96264 29941.5375295,-3708255.6492 29993.2759508,-3708065.66055 30030.4706886,-3707958.73469 30060.603568,-3707845.11607 30090.9870312,-3707740.50061 30136.2797815,-3707602.81156 30173.0834162,-3707473.88383 30203.465665,-3707360.27195 30242.3516309,-3707246.39552 30294.0276256,-3707004.42615 30346.084395,-3706820.94296 30406.6979801,-3706617.20488 30473.773959,-3706396.65248 30564.6302456,-3706084.29593 30616.5935498,-3705940.29335 30707.6434355,-3705629.94089 30759.2225305,-3705409.45901 30813.6972282,-3705274.02205 30865.25378,-3705099.52038 30902.06256,-3704916.1143 30925.4261688,-3704712.8444 30976.9188786,-3704477.36585 31015.6555579,-3704296.51185 31058.734862,-3704121.27558 31082.2725509,-3703983.98313 31081.5136673,-3703803.53644 31118.094096,-3703583.13888 31163.4061758,-3703408.46391 31208.4821692,-3703233.28254 31223.3735579,-3703074.25975 31275.1298685,-3702856.28058 31304.9443172,-3702672.68046 31335.4035393,-3702538.07799 31371.7815397,-3702370.15281 31417.3345989,-3702240.96533 31447.3993394,-3702066.36824 31453.1935927,-3701938.0811 31461.4986105,-3701809.36356 31467.4720592,-3701674.58405 31467.0220188,-3701537.12808 31466.5028646,-3701402.16918 31466.0663901,-3701264.2138 31465.2118387,-3701114.25183 31480.1011198,-3700955.22874 31494.5116482,-3700750.21132 31502.6446902,-3700591.50135 31517.1471915,-3700355.99899 31501.2031827,-3700236.60748 31469.7827134,-3700062.31092 31416.4678488,-3699866.41834 31376.522674,-3699738.36735 31353.9755146,-3699622.79202 31314.0453873,-3699503.23807 31307.3166212,-3699412.08979 31306.86753,-3699292.62674 31312.7437613,-3699170.33961 31327.4670517,-3699026.3059 31335.6840566,-3698882.59229 31387.575462,-3698677.61052 31395.8793346,-3698557.88936 31395.0207737,-3698398.9313 31394.2540884,-3698209.48838 31393.8025928,-3698081.02899 31399.6994205,-3697921.75769 31399.0041607,-3697747.81039 31398.6380828,-3697634.34719 31413.3676178,-3697453.82863 31412.2627353,-3697240.38638 31411.4455017,-3697007.46016 31430.7258468,-3696363.25911 31435.5904476,-3696259.4364 31488.8915656,-3696120.96534 31504.334478,-3696059.41716 31541.9055553,-3695929.50817 31588.4659704,-3695799.84719 31619.6028861,-3695685.75392 31613.1662798,-3695611.10706 31613.824492,-3695342.73611 31590.3070771,-3695099.18762 31590.7886859,-3694855.30177 31584.9414574,-3694451.30752 31508.546919,-3694167.81657 31503.8649667,-3692443.90244 31543.7575763,-3692284.06926 31612.4075961,-3692123.52956 31751.6527388,-3691885.96886 31789.4946954,-3691673.6005 31789.9917325,-3691528.67416 31713.3849025,-3691316.14932 31562.2556266,-3691042.09505 31538.4640466,-3690844.52102 31516.7406311,-3690653.50137 31456.0023418,-3690309.46965 31419.3018806,-3690081.55262 31351.8380552,-3689754.82876 31312.4628503,-3689542.33187 31275.6727782,-3689290.42283 31236.6645012,-3689046.44946 31208.401711,-3688902.23069 31162.7633776,-3688726.54621 31077.6336332,-3688505.79226 30948.5053078,-3688185.86757 30911.5192773,-3687995.42827 30889.7754624,-3687850.39001 30859.1742792,-3687736.59458 30797.9376192,-3687600.96417 30699.1826111,-3687493.78802 30545.4829559,-3687403.59082 30317.0212136,-3687296.84074 30218.3382346,-3687259.63736 29576.1082735,-3687159.98366 29227.3597576,-3686003.87276 29168.5060989,-3685745.36314 29160.15481,-3685631.18242 28954.525005,-3685176.21553 28819.3282156,-3684795.15742 28736.3684007,-3684558.97544 28644.8635016,-3684270.08136 28592.6461202,-3684097.21882 28478.9925473,-3683777.72883 28387.5988349,-3683548.31278 28273.8416488,-3683314.28334 28151.3677802,-3683115.49883 28015.6226838,-3682881.36484 27893.4616351,-3682607.62262 27749.2249693,-3682264.30393 27635.9254871,-3681931.83253 27522.6641619,-3681588.86731 27439.6114131,-3681383.17297 27310.8686629,-3681094.2586 27225.8240904,-3680861.02226 27204.5925144,-3680633.53932 27220.5609174,-3680489.04296 27258.7786595,-3680289.68309 27313.7299505,-3680154.25505 27382.161311,-3680055.68138 27475.0018625,-3679887.31005 27543.5216407,-3679758.2521 27627.391573,-3679607.12604 27673.9665623,-3679530.94086 27803.8799904,-3679386.57801 27903.0517893,-3679287.84928 28048.5487927,-3679112.92807 28187.6247272,-3678944.32718 28278.1315418,-3678815.37288 28408.3286457,-3678597.04906 28478.9329968,-3678483.04054 28538.6249166,-3678338.74507 28609.1245757,-3678246.72387 28677.7311508,-3678132.66014 28754.885101,-3678025.82819 28786.1876825,-3677859.76119 28799.4862387,-3677748.67518 28799.5548644,-3677746.17815 30535.6212339,-3677743.91211 34789.3057494,-3677746.36544 34721.9259286,-3676997.31111 34678.8519983,-3676445.84674 34661.820018,-3676228.96503 34661.8749855,-3676181.48546 34659.3230509,-3676137.93268 34659.4328199,-3676133.93729 34674.1548925,-3676098.3561 34696.8403002,-3676063.99329 34969.742507,-3675554.19606 35015.8677328,-3675458.00177 35777.5597727,-3674311.88246 37160.200481,-3672093.71836 37161.4901895,-3672092.25433 37187.2276143,-3672101.45757 37191.1819456,-3672103.06554 37747.6946147,-3672304.27121" style="stroke-linejoin:round;stroke:#000;stroke-width:1px;fill:none" /></g></g></svg>