<svg xmlns="http://www.w3.org/2000/svg" baseProfile="full" height="16369.2372365" version="1.1" viewBox="27612.920314,3658256.776018,15336.176572,16369.237237" width="15336.1765721"><defs><style type="text/css">polyline,line,rect,path,polygon,.polygon{fill:none;stroke:#000;stroke-width:1px;stroke-linejoin:round;}</style></defs><g fill_rule="evenodd" transform="scale(1,-1)"><g class="hogares departamen mujeres departam_1 toponimo_i tot_pob varones viv_part viv_part_h" id="70084"><polygon class="_70084" id="None" points="32984.4249871,-3658268.12391 33058.3613769,-3658324.12492 33089.1315334,-3658359.45274 33113.0874776,-3658388.09678 33153.7267323,-3658437.18915 33154.6845713,-3658438.71474 33184.0632274,-3658497.49486 33198.664269,-3658548.37367 33216.4742175,-3658609.83599 33238.4261656,-3658656.91764 33246.6266843,-3658695.12645 33251.0878378,-3658714.74053 33264.2762472,-3658771.57825 33282.6885749,-3658847.55115 33283.800442,-3658852.57953 33295.2071763,-3658928.86051 33295.1251642,-3658931.85704 33297.864015,-3659014.39812 33297.8093392,-3659016.3958 33284.7990643,-3659090.00933 33278.0852122,-3659125.31099 33272.3838631,-3659160.14057 33272.4968793,-3659165.14161 33273.5140182,-3659210.15097 33274.2084707,-3659212.16915 33289.667783,-3659259.0732 33300.7516728,-3659292.36303 33330.4991329,-3659337.659 33386.1627073,-3659422.14857 33391.7283341,-3659428.79825 33411.7571169,-3659454.83603 33412.9373175,-3659457.36731 33432.6790192,-3659493.89294 33452.4343857,-3659529.91916 33465.2251925,-3659564.75515 33466.8755857,-3659632.27269 33466.212114,-3659638.25208 33455.0862262,-3659706.91927 33444.2373629,-3659774.59444 33441.9662523,-3659784.52818 33425.5280261,-3659855.5489 33423.5886508,-3659862.49294 33401.9237625,-3659941.86709 33401.6193647,-3659943.85794 33392.1902488,-3660023.56702 33391.7217849,-3660031.55092 33389.1743755,-3660078.96172 33389.3557246,-3660081.46566 33395.4078336,-3660125.11351 33396.0886028,-3660127.63113 33413.2546157,-3660176.08141 33443.4156312,-3660215.39136 33497.4776153,-3660285.34339 33505.9440268,-3660295.57109 33530.8575119,-3660325.7411 33559.6469014,-3660369.51171 33579.7100832,-3660412.54364 33592.7230736,-3660448.38541 33592.931764,-3660449.89051 33597.4545828,-3660485.49984 33597.3451945,-3660489.49521 33596.5420379,-3660527.9575 33600.0969268,-3660571.53706 33600.2919423,-3660573.54158 33605.8545987,-3660607.68 33602.9716839,-3660649.08412 33611.592701,-3660699.29974 33626.0117474,-3660747.67494 33627.178255,-3660750.70566 33644.6312702,-3660788.66822 33645.5617409,-3660791.19268 33655.7285436,-3660821.45881 33662.098547,-3660862.6165 33646.630739,-3660898.17828 33626.8970417,-3660916.1304 33614.5964044,-3660927.2889 33591.7431049,-3660949.65375 33589.6496946,-3660953.09499 33565.1375897,-3660990.40829 33563.1029923,-3661037.33337 33563.5613879,-3661038.84531 33581.0178824,-3661085.80432 33582.434094,-3661088.84187 33614.6579594,-3661153.19832 33617.7811183,-3661157.782 33618.988645,-3661159.31446 33664.5155402,-3661221.53624 33732.7220354,-3661313.36728 33783.3904974,-3661397.72099 33807.0521907,-3661455.34576 33839.9602347,-3661531.21643 33878.0945532,-3661562.24855 33881.7581585,-3661565.34766 33948.9379382,-3661621.66528 33969.0039463,-3661637.20871 34062.6738592,-3661711.74476 34230.1290478,-3661847.77759 34511.0022332,-3662076.38096 34701.9238502,-3662231.54984 35039.0411369,-3662505.17774 35231.8922806,-3662662.89948 35237.51237,-3662631.06616 35237.8168042,-3662629.0753 35244.3024083,-3662611.26011 35251.5645107,-3662592.46659 35263.2085364,-3662568.79508 35326.0913308,-3662490.04953 35348.3601046,-3662461.67101 35370.379163,-3662433.28565 35390.3527552,-3662424.83631 35790.6266966,-3662427.30343 36118.9427812,-3662429.29897 36465.9471173,-3662433.30578 37586.1521081,-3662446.49566 37668.1002711,-3662447.24085 37953.3729805,-3662451.55598 38067.0491275,-3662452.6704 38406.7747306,-3662457.97722 38529.4273666,-3662459.83732 39327.3028661,-3662471.69539 39353.7731268,-3662472.42043 39821.1630591,-3662479.22477 40422.6818348,-3662488.70335 40430.9226305,-3662488.92907 41031.6225716,-3662491.88756 41038.3650654,-3662492.07224 41330.9265863,-3662495.0875 41820.6740508,-3662507.00254 41841.8601635,-3662618.54313 41842.5546111,-3662620.56144 41875.9739908,-3662796.41427 41929.477442,-3663069.2829 42004.8673067,-3663437.21761 42036.6267409,-3663591.533 42043.0477131,-3663621.69822 41686.9731919,-3663619.93986 41320.4247736,-3663617.3947 41259.3659478,-3663611.22347 41011.7715878,-3663544.96161 40953.470073,-3663529.3694 40996.6923062,-3663839.94134 41014.9113443,-3664032.37095 41017.4187522,-3664059.42987 41047.2780266,-3664401.62435 41047.4730052,-3664403.62897 40862.2785769,-3664404.05225 40863.0174325,-3664413.56905 40894.3460961,-3664866.26349 40895.2935854,-3664877.28546 40892.1591634,-3664991.65802 40876.0594972,-3665123.16889 40876.7265344,-3665126.18609 40892.8005169,-3665187.10467 41000.5664811,-3665595.41139 41001.6918858,-3665599.94061 41004.1650377,-3665610.00478 41042.9994338,-3665806.99831 41099.5841427,-3666021.9722 41113.6566237,-3666301.75702 41117.3327911,-3666377.33053 41257.9570315,-3666389.18273 41371.227991,-3666414.28004 41738.083122,-3666496.81117 41740.0672139,-3666497.36539 41841.919684,-3666519.65068 41866.9995291,-3666434.3689 42013.3615025,-3666428.38486 42019.3822485,-3666427.55026 42153.466821,-3666422.7291 42453.381896,-3666421.95418 42503.6175182,-3666421.83187 42553.2682856,-3666415.69565 42553.9216151,-3666419.21232 42693.175827,-3666399.03828 42791.6552878,-3666836.0855 42801.2295229,-3666878.83309 42860.0876706,-3667129.35954 42869.4805817,-3667169.60306 42869.689224,-3667171.10826 42882.8344518,-3667229.44837 42911.7622654,-3667350.19953 42899.70025,-3667644.26573 42879.8825554,-3667938.61905 42868.8835082,-3668102.75985 42864.3833191,-3668166.61404 42846.8035345,-3668160.63385 42526.0201448,-3668038.37651 42188.9198888,-3667909.67428 42123.8726025,-3667884.89864 42026.1768532,-3667847.73179 41952.6664213,-3667821.72447 41750.1870341,-3667750.69534 41748.2029458,-3667750.14111 41697.9474466,-3667732.76871 41579.8842159,-3667691.04495 41573.9319566,-3667689.38226 41433.6676849,-3667637.05336 41421.291122,-3667632.71541 41065.699716,-3667504.0075 40974.8460834,-3667472.52671 40917.4036423,-3667452.95811 39903.9883086,-3667098.78988 39718.7861546,-3667035.73332 39716.5660624,-3667034.67282 39627.2388019,-3667002.23471 38464.383734,-3666593.49358 38438.4098025,-3666583.78488 37100.0469295,-3666114.25956 37194.5931344,-3666348.26227 37305.4845849,-3666706.16597 37403.705045,-3667052.22718 37548.5955523,-3667637.4776 37625.6442621,-3668062.92884 37695.4173674,-3668553.15623 37747.6715266,-3669135.36838 37191.1553002,-3668934.17374 37187.2009406,-3668932.56585 37161.4633562,-3668923.36312 37160.173677,-3668924.82717 35777.5754762,-3671143.01726 35015.9040975,-3672289.15149 34969.7805834,-3672385.34672 34696.8873326,-3672895.14954 34674.2025175,-3672929.51281 34659.4810697,-3672965.09431 34659.371373,-3672969.08971 34661.9241003,-3673012.6425 34661.8699932,-3673060.12214 34678.9059301,-3673277.00386 34721.989938,-3673828.46838 34789.3835075,-3674577.52299 30535.6895173,-3674575.14231 28799.619325,-3674577.43529 28787.0730149,-3674424.65674 28763.2347438,-3674228.08695 28726.8199514,-3673961.70199 28711.8086857,-3673780.36829 28703.5391999,-3673599.21978 28673.3636595,-3673369.49062 28636.7915104,-3673136.08745 28569.4745739,-3672848.36354 28530.651474,-3672605.90283 28494.0724325,-3672354.50779 28404.9145083,-3672052.19112 28347.4908266,-3671777.23434 28273.4640466,-3671551.80017 28190.2601032,-3671178.17926 28176.1139816,-3670937.89633 28166.0432728,-3670731.2106 28246.6591381,-3670206.6542 28325.3155033,-3669880.95636 28265.2796063,-3669482.48333 28778.1838921,-3668493.99258 27748.7678748,-3668452.76195 27630.9636237,-3668447.53153 27629.2020165,-3668447.98299 27638.4558318,-3668411.25322 27662.7234034,-3668346.4479 27677.5391156,-3668307.37178 27670.251537,-3668254.19538 27677.5761862,-3668214.9138 27685.7352613,-3668181.65243 27708.1894974,-3668128.29223 27757.0298885,-3668078.65437 27770.7677074,-3668051.54334 27805.2065106,-3668034.99563 27865.8134284,-3667993.6769 27928.6539763,-3667952.91917 27935.77311,-3667921.12856 27974.7718864,-3667893.21094 28002.6025657,-3667862.48812 28037.356415,-3667834.45406 28075.7873144,-3667809.01973 28154.509783,-3667763.19986 28195.9782124,-3667736.34946 28254.7888442,-3667714.97245 28237.9712615,-3667663.03388 28235.3150312,-3667604.98656 28251.9438169,-3667554.46502 28274.4622504,-3667526.09531 28353.8411568,-3667492.78775 28408.0357787,-3667402.8141 28425.8011836,-3667310.84187 28501.1382794,-3667224.44657 28515.1498969,-3667187.34723 28543.1311634,-3667151.13072 28541.4662724,-3667111.60238 28559.9282224,-3667067.12833 28607.598958,-3667005.46307 28620.7043588,-3666955.84431 28671.9321241,-3666910.26953 28705.6532973,-3666865.21426 28718.5532634,-3666823.08655 28737.9591903,-3666780.63743 28768.3866585,-3666718.99902 28835.6429474,-3666690.35639 28861.0417285,-3666648.07153 28909.3342847,-3666618.40913 28944.8170374,-3666572.90225 28961.3641208,-3666488.89275 28999.9149952,-3666449.96711 29033.7528272,-3666382.42465 29064.2584121,-3666345.27753 29113.8034119,-3666288.16129 29169.7142196,-3666226.72149 29230.2604976,-3666132.92284 29287.7451119,-3666050.5352 29309.4306496,-3665906.69236 29329.657803,-3665834.27851 29357.2079338,-3665795.55085 29376.9011413,-3665742.61388 29405.3788581,-3665660.93025 29464.9595342,-3665620.58163 29541.401194,-3665521.22089 29573.3656706,-3665339.67594 29640.9774378,-3665033.66218 29696.7794734,-3664866.76431 29738.4470394,-3664741.46085 29808.1124398,-3664588.43689 29863.9104616,-3664449.02675 29916.1579718,-3664275.03408 29978.7903589,-3664086.8321 30013.4110199,-3663926.84998 30104.1571218,-3663724.92429 30153.0071927,-3663592.82004 30201.5048471,-3663446.21228 30288.6211715,-3663258.18066 30323.5285042,-3663160.67917 30344.1718417,-3663091.27467 30344.1511066,-3663000.81285 30365.1774432,-3662917.42482 30399.8178763,-3662847.90393 30427.9796183,-3662777.70574 30553.2727133,-3662555.23441 30650.6017405,-3662304.50852 30776.4964948,-3662096.54684 30816.2774138,-3661976.18808 30884.415,-3661824.11971 30976.986596,-3661719.70041 31020.9642129,-3661582.96335 31098.5590176,-3661386.67246 31166.5219176,-3661250.09223 31236.9990254,-3661122.07714 31326.8914018,-3660978.60032 31412.7033586,-3660865.49875 31526.9468186,-3660699.69807 31601.7578753,-3660586.79481 31709.4648526,-3660449.80259 31823.6814602,-3660321.48484 31855.2684135,-3660180.90896 31917.8608397,-3660076.16716 32126.7642204,-3659930.44943 32175.5313594,-3659874.30845 32231.1017329,-3659797.86222 32258.9572051,-3659693.16873 32328.6442831,-3659603.11465 32370.4997515,-3659470.81594 32391.4242349,-3659345.44113 32426.1573145,-3659199.45298 32474.8619605,-3658990.37356 32572.3264022,-3658844.10296 32679.1104853,-3658759.06196 32710.0386703,-3658706.43056 32747.3525455,-3658630.48364 32854.9740411,-3658523.97421 32984.4249871,-3658268.12391" style="stroke-linejoin:round;stroke:#000;stroke-width:1px;fill:none" /></g></g></svg>