<svg xmlns="http://www.w3.org/2000/svg" baseProfile="full" height="73103.9880276" version="1.1" viewBox="-23681.440993,3633716.519343,56744.545238,73103.988028" width="56744.545238"><defs><style type="text/css">polyline,line,rect,path,polygon,.polygon{fill:none;stroke:#000;stroke-width:1px;stroke-linejoin:round;}</style></defs><g fill_rule="evenodd" transform="scale(1,-1)"><g class="hogares departamen mujeres departam_1 toponimo_i tot_pob varones viv_part viv_part_h" id="70133"><polygon class="_70133" id="None" points="19852.4533932,-3662752.91353 19992.0988851,-3662690.2727 20171.2427593,-3662645.20529 20172.7545512,-3662644.74695 20578.3532087,-3662542.41455 20581.1134354,-3662541.99041 20707.7317474,-3662544.45916 20787.932123,-3662499.17992 20889.8622254,-3662472.48676 20941.4446781,-3662459.40695 21112.2399884,-3662345.14497 21194.7598452,-3662342.90745 21260.5474711,-3662367.69785 21323.4893308,-3662386.91307 21386.5508347,-3662392.63834 21467.7883305,-3662409.85597 21530.4771014,-3662420.06879 21596.4354667,-3662383.8944 21652.4918861,-3662353.44577 21695.8552639,-3662321.15021 21744.8418612,-3662302.50191 21853.090137,-3662291.47378 21975.2215262,-3662238.84675 22033.2208534,-3662210.45021 22060.009117,-3662181.19881 22128.3964582,-3662184.07138 22192.8644746,-3662238.81084 22246.1887532,-3662280.7513 22304.9410243,-3662297.85284 22389.342906,-3662318.15569 22420.632899,-3662343.50062 22523.2825472,-3662345.3127 22624.2048222,-3662328.08682 22703.9990101,-3662270.30191 22768.0252215,-3662222.57991 22859.5310098,-3662175.11074 22905.470465,-3662167.3734 22953.5922519,-3662171.19017 23008.4353208,-3662194.18173 23042.6775047,-3662248.59338 23077.6274387,-3662268.04158 23125.2772516,-3662270.84596 23171.452803,-3662263.61484 23234.4600722,-3662234.85549 23298.8424064,-3662210.63158 23380.1388393,-3662198.3653 23469.2612908,-3662192.31043 23534.8991601,-3662186.11209 23657.1214988,-3662221.4441 23721.784836,-3662241.7062 23784.6762087,-3662235.43264 23820.8983454,-3662208.43832 23984.8805288,-3662187.94176 24099.7556349,-3662163.10162 24187.0520836,-3662168.99089 24273.2639456,-3662132.37094 24379.6465311,-3662134.78487 24382.3794696,-3662135.35948 24469.2075443,-3662149.23207 24531.3364605,-3662143.43731 24592.0693523,-3662079.13239 24648.4245255,-3662065.18331 24698.9206876,-3662073.56296 24789.4564841,-3662061.54953 24866.7070561,-3662023.68442 24943.7763496,-3661983.3155 25087.8034455,-3661833.83329 25143.5425559,-3661769.39126 25201.7993148,-3661722.5098 25258.8764061,-3661709.57982 25342.9275013,-3661715.37998 25435.1161743,-3661743.39257 25492.1765572,-3661758.44884 25547.0748914,-3661742.96036 25618.2682373,-3661716.42358 25783.637486,-3661690.96657 25880.7100816,-3661650.14552 26060.3836921,-3661595.09425 26151.1249387,-3661539.10674 26252.8457462,-3661465.42828 26311.4588643,-3661442.0451 26359.1846616,-3661423.86118 26409.9412455,-3661422.75228 26472.4644332,-3661429.96186 26846.4500038,-3661643.10868 26985.3562277,-3661625.92248 27098.003386,-3661609.51644 27222.7900395,-3661596.9412 27309.6193053,-3661574.33062 27390.8418922,-3661510.08566 27483.280594,-3661465.13901 27563.5044369,-3661400.86658 27691.5233544,-3661352.39621 27807.7964295,-3661313.09975 27932.5385483,-3661256.54317 28077.1132814,-3661224.01881 28221.2986642,-3661223.96888 28317.5764707,-3661239.59933 28606.5596369,-3661208.03058 28799.2788361,-3661160.33184 29007.6924052,-3661160.04148 29104.0831169,-3661144.18927 29264.5297685,-3661079.61381 29360.4991603,-3661015.2718 29457.0161338,-3660967.4373 29601.2645959,-3660983.38166 29750.6326902,-3660930.99688 29968.969581,-3660869.50534 30139.8539436,-3660852.69388 30319.7241854,-3660827.13242 30477.5280823,-3660776.97734 30612.1602897,-3660678.7087 30676.4203931,-3660549.52598 30740.4652456,-3660437.32976 30805.0734908,-3660277.17003 30885.0047925,-3660068.45124 30981.3020842,-3659955.63827 31047.3414717,-3659870.98412 31127.7059908,-3659774.22752 31176.9742135,-3659690.61347 31224.8981995,-3659610.46104 31292.8248731,-3659493.37251 31381.1278472,-3659371.34402 31477.6780851,-3659130.59309 31604.8790115,-3658975.14391 31719.4254111,-3658880.3216 31789.3515312,-3658836.25538 31901.8157293,-3658771.86264 32040.4963639,-3658735.67538 32136.5285624,-3658687.32563 32239.0221083,-3658631.1561 32398.992593,-3658584.05623 32570.0359667,-3658543.25671 32717.6430216,-3658555.29278 32867.9345353,-3658651.86617 32966.7445831,-3658712.04575 32983.9369888,-3658723.01178 32854.4872473,-3658978.85794 32746.8670511,-3659085.36549 32709.553519,-3659161.31118 32678.6256473,-3659213.94171 32571.8429141,-3659298.98116 32474.3795172,-3659445.24932 32425.6750216,-3659654.3255 32390.9420588,-3659800.31138 32370.0175438,-3659925.68427 32328.1623373,-3660057.98089 32258.4760524,-3660148.03344 32230.6207104,-3660252.72529 32175.0509581,-3660329.17023 32126.2843946,-3660385.31024 31917.3837403,-3660531.02523 31854.7919674,-3660635.76529 31823.2051083,-3660776.33899 31708.9898661,-3660904.6545 31601.2841359,-3661041.64438 31526.4738996,-3661154.54575 31412.2317127,-3661320.34365 31326.4207445,-3661433.44329 31236.5293396,-3661576.91771 31166.0529541,-3661704.93069 31098.0907174,-3661841.50869 31020.4965661,-3662037.79641 30976.519254,-3662174.53129 30883.9487818,-3662278.94878 30815.8118277,-3662431.01468 30776.0311965,-3662551.37151 30650.1378063,-3662759.32972 30552.8096044,-3663010.05157 30427.5178358,-3663232.5192 30399.3563407,-3663302.71624 30364.7162549,-3663372.23599 30343.6900236,-3663455.62271 30343.7105263,-3663546.08315 30323.0673247,-3663615.48654 30288.1602731,-3663712.98645 30201.0447939,-3663901.01499 30152.5475043,-3664047.6204 30103.6978417,-3664179.72251 30012.9526115,-3664381.64489 29978.3320737,-3664541.62447 29915.7001678,-3664729.82342 29863.4530176,-3664903.81329 29807.6554989,-3665043.22115 29737.9907814,-3665196.24259 29696.3235399,-3665321.54403 29640.5219425,-3665488.43919 29572.9104488,-3665794.44808 29540.9460105,-3665975.99015 29464.5052808,-3666075.34917 29404.9254227,-3666115.69702 29376.4479421,-3666197.37932 29356.7549068,-3666250.31543 29329.205105,-3666289.04242 29308.9780843,-3666361.4551 29287.2925251,-3666505.29566 29229.8085953,-3666587.68189 29169.2630218,-3666681.47894 29113.3529275,-3666742.91765 29063.8085538,-3666800.03288 29033.3033497,-3666837.17935 28999.4658758,-3666904.72069 28960.9155031,-3666943.64563 28944.3684702,-3667027.65378 28908.8861561,-3667073.15987 28860.5942759,-3667102.8217 28835.1957855,-3667145.10583 28767.9404697,-3667173.74786 28737.5133234,-3667235.38524 28718.1075945,-3667277.83365 28705.2077263,-3667319.96068 28671.4869672,-3667365.01517 28620.2598868,-3667410.58912 28607.1545694,-3667460.20708 28559.4844252,-3667521.87126 28541.0226547,-3667566.34457 28542.6874243,-3667605.87231 28514.7065055,-3667642.08818 28500.6950163,-3667679.18691 28425.3588843,-3667765.58069 28407.5935348,-3667857.55145 28353.3995407,-3667947.52356 28274.0217907,-3667980.83041 28251.5036402,-3668009.19963 28234.8749929,-3668059.72034 28237.5310431,-3668117.76677 28254.3482395,-3668169.70456 28195.5384737,-3668191.0811 28154.070627,-3668217.93099 28075.3492773,-3668263.74996 28036.9189171,-3668289.1838 28002.1655437,-3668317.21734 27974.3352259,-3668347.93961 27935.3369921,-3668375.8567 27928.2178945,-3668407.6468 27865.3782316,-3668448.40374 27804.772163,-3668489.72169 27770.3338588,-3668506.26905 27756.5961908,-3668533.37963 27707.7564464,-3668583.01659 27685.3024362,-3668636.37591 27677.1434108,-3668669.63674 27669.8187842,-3668708.9177 27677.1061243,-3668762.09328 27662.2905524,-3668801.16875 27638.0232089,-3668865.973 27628.7694526,-3668902.70217 27630.5310333,-3668902.25072 27748.3334281,-3668907.48134 28777.7332302,-3668948.71379 28264.8346114,-3669937.18778 28324.8686084,-3670335.65468 28246.2127057,-3670661.34719 28165.5968641,-3671185.89509 28175.6669205,-3671392.57757 28189.8122444,-3671632.85672 28273.0139723,-3672006.47188 28347.0390332,-3672231.90264 28404.4611389,-3672506.85517 28493.6169113,-3672809.16723 28530.194761,-3673060.55833 28569.0166533,-3673303.01526 28636.3318136,-3673590.73471 28672.9028092,-3673824.13423 28703.0773066,-3674053.85977 28711.3462191,-3674235.00538 28726.3568021,-3674416.33619 28762.7703589,-3674682.71695 28786.6077663,-3674879.28362 28799.1535011,-3675032.05973 28799.0849078,-3675034.55672 28785.7879386,-3675145.64135 28754.4878849,-3675311.70645 28677.336344,-3675418.53789 28608.7321445,-3675532.60091 28538.2346042,-3675624.62173 28478.5453025,-3675768.91598 28407.9433329,-3675882.92383 28277.7507022,-3676101.24631 28187.2467007,-3676230.2 28048.1747057,-3676398.80035 27902.6817837,-3676573.72101 27803.5125042,-3676672.44965 27673.6025457,-3676816.81217 27627.0290921,-3676892.99691 27543.1620856,-3677044.12201 27474.644757,-3677173.1791 27381.8074341,-3677341.54936 27313.3781388,-3677440.12258 27258.4291745,-3677575.54953 27220.2143016,-3677774.90731 27204.2478253,-3677919.40203 27225.4818471,-3678146.88184 27310.5281421,-3678380.11424 27439.2727612,-3678669.02348 27522.326966,-3678874.71429 27635.5910577,-3679217.67395 27748.8932126,-3679550.13998 27893.132351,-3679893.45283 28015.2953188,-3680167.19033 28151.0417176,-3680401.31992 28273.5166307,-3680600.10062 28387.2754208,-3680834.12597 28478.6709559,-3681063.53828 28592.3272499,-3681383.02326 28644.5462198,-3681555.88322 28736.0537448,-3681844.77295 28819.0156353,-3682080.95131 28954.2157955,-3682462.00361 29159.8492206,-3682916.96305 29168.2018826,-3683031.14248 29227.0582405,-3683289.64866 29575.8181523,-3684445.74341 30218.0431262,-3684545.38771 30316.725635,-3684582.58942 30545.1865771,-3684689.3354 30698.8859536,-3684779.52967 30797.6414541,-3684886.70345 30858.8793604,-3685022.33173 30889.4817927,-3685136.12567 30911.2273673,-3685281.16225 30948.2156336,-3685471.59925 31077.3471103,-3685791.51921 31162.4790867,-3686012.26998 31208.1194086,-3686187.95223 31236.3839191,-3686332.16931 31275.3951929,-3686576.13996 31312.1883988,-3686828.04628 31351.566181,-3687040.54077 31419.0339246,-3687367.26089 31455.737218,-3687595.17547 31516.4797522,-3687939.20347 31538.2056312,-3688130.22125 31561.9997522,-3688327.79333 31713.1316146,-3688601.84329 31789.7407965,-3688814.36538 31789.2457851,-3688959.29058 31751.4070844,-3689171.65782 31612.1663168,-3689409.21862 31543.5190443,-3689569.75805 31503.6289469,-3689729.59058 31508.3347047,-3691453.49236 31584.732658,-3691736.98035 31590.58545,-3692140.97188 31590.1072264,-3692384.85618 31613.6278723,-3692628.40282 31612.9733887,-3692896.77211 31619.4109918,-3692971.41843 31588.2758477,-3693085.51144 31541.717509,-3693215.17228 31504.148453,-3693345.08103 31488.7064829,-3693406.62905 31435.40759,-3693545.10004 31430.5444503,-3693648.92222 31411.2731011,-3694293.11989 31412.0935428,-3694526.04483 31413.2013634,-3694739.48593 31398.4743952,-3694920.00374 31398.8420356,-3695033.46634 31399.5396901,-3695207.41274 31393.6450881,-3695366.68332 31394.0983524,-3695495.14206 31394.8676456,-3695684.58402 31395.7283938,-3695843.5413 31387.4262114,-3695963.26201 31335.5378742,-3696168.24352 31327.3228849,-3696311.95658 31312.6016431,-3696455.98983 31306.7271198,-3696578.27648 31307.1778516,-3696697.739 31313.9078412,-3696788.88678 31353.8394388,-3696908.43966 31376.3880927,-3697024.01418 31416.3348624,-3697152.06407 31469.6522081,-3697347.95509 31501.0749581,-3697522.25049 31517.0205544,-3697641.6413 31502.5213702,-3697877.14292 31494.3905556,-3698035.85239 31479.9829176,-3698240.86923 31465.0958904,-3698399.89192 31465.9525114,-3698549.85334 31466.3908911,-3698687.80821 31466.9119089,-3698822.76662 31467.3638476,-3698960.22211 31461.3922822,-3699095.00124 31453.089071,-3699223.71847 31447.2966093,-3699352.00525 31417.234377,-3699526.6022 31371.6832442,-3699655.7899 31335.3076699,-3699823.71506 31304.8503926,-3699958.31754 31275.0385563,-3700141.91752 31223.2853876,-3700359.89677 31208.3962215,-3700518.91932 31163.3227513,-3700694.10083 31118.0131815,-3700868.77596 31081.4358582,-3701089.17345 31082.1972041,-3701269.61969 31058.6614461,-3701406.91213 31015.5846325,-3701582.14857 30976.8505039,-3701763.00269 30925.3611082,-3701998.48143 30902.000309,-3702201.75123 30865.1940911,-3702385.15744 30813.6400024,-3702559.65948 30759.1672373,-3702695.09692 30707.5912109,-3702915.57912 30616.5456568,-3703225.93229 30564.5843688,-3703369.93534 30473.7324029,-3703682.29266 30406.6594635,-3703902.84567 30346.0486732,-3704106.5843 30293.9944086,-3704290.06797 30242.3216874,-3704532.03778 30203.4372722,-3704645.91461 30173.0565591,-3704759.52678 30136.2546653,-3704888.45489 30090.9637743,-3705026.14443 30060.5817172,-3705130.76021 30030.4503598,-3705244.37915 29993.2570574,-3705351.30543 29941.5211697,-3705541.29465 29917.9754227,-3705624.60835 29880.7818647,-3705731.53451 29844.1577502,-3705844.97367 29805.5221012,-3705958.85695 29737.7757397,-3706140.40627 29621.3071008,-3706809.40351 29618.0194853,-3706810.81192 29326.2119864,-3706672.7921 18431.9917673,-3706552.21662 16954.6751293,-3706535.81115 16625.689395,-3706532.2015 8717.22992248,-3706356.22821 7949.0117753,-3706352.44674 7149.07602645,-3706348.28599 -11170.6606321,-3706257.55653 -11189.8963803,-3706257.52316 -11141.5725328,-3706136.44701 -11110.0121297,-3706070.3679 -11077.9663188,-3706004.80186 -11045.1577964,-3705938.75727 -11011.8776985,-3705873.72504 -10977.3494505,-3705808.72735 -10941.8365202,-3705744.25658 -10905.0754378,-3705679.82035 -10866.8442317,-3705616.42414 -10827.1152352,-3705553.06939 -10785.1672036,-3705490.77539 -10741.7213779,-3705428.52285 -10697.0688873,-3705367.80267 -10652.8880243,-3705306.07008 -10610.9677361,-3705244.77448 -10573.2221281,-3705180.86492 -10541.6897874,-3705115.7839 -10518.353978,-3705048.97685 -10503.4090212,-3704978.43976 -10496.4109703,-3704906.18356 -10493.8649208,-3704832.30508 -10493.7876146,-3704757.35892 -10493.4607131,-3704682.41967 -10490.8732985,-3704607.04339 -10483.085052,-3704533.31012 -10468.0850538,-3704460.7759 -10443.1549592,-3704390.51532 -10410.2780233,-3704321.97378 -10372.6856839,-3704254.56211 -10334.1224813,-3704188.1766 -10298.055669,-3704121.72193 -10267.9525055,-3704054.10276 -10247.5713683,-3703985.71468 -10240.6291554,-3703915.45547 -10249.0953087,-3703842.27129 -10266.2849467,-3703768.34591 -10281.2555431,-3703695.48131 -10283.0507504,-3703624.98018 -10264.2091283,-3703558.04842 -10228.0035891,-3703495.59469 -10180.1342816,-3703435.96215 -10124.5400805,-3703377.04313 -10067.739177,-3703319.65643 -10014.6690079,-3703261.66674 -9970.82158715,-3703202.922 -9940.91237659,-3703142.29235 -9929.64301682,-3703078.14869 -9934.30897664,-3703012.06487 -9951.13805779,-3702943.14605 -9976.41335103,-3702872.49446 -10006.8619325,-3702799.20139 -10037.532535,-3702724.90291 -10065.1522428,-3702648.6903 -10086.2537934,-3702571.65886 -10097.3561036,-3702494.40458 -10099.6797194,-3702415.89437 -10095.7624701,-3702337.55692 -10087.8649035,-3702259.8293 -10077.7482934,-3702183.16241 -10067.6731847,-3702107.99333 -10060.3855754,-3702034.24606 -10057.4109188,-3701962.8777 -10061.5090291,-3701894.31151 -10074.4411728,-3701828.99842 -10098.6898858,-3701766.37007 -10133.78352,-3701707.43884 -10175.8807953,-3701648.81346 -10221.4591644,-3701589.59213 -10266.4553627,-3701527.38903 -10307.5550435,-3701459.79761 -10340.2371409,-3701385.94368 -10361.8247625,-3701308.39958 -10368.9335529,-3701231.25619 -10358.1929615,-3701159.10363 -10326.7316934,-3701096.51821 -10275.3124471,-3701043.97845 -10210.8282885,-3700997.79603 -10142.4466509,-3700955.21898 -10078.5446336,-3700912.01828 -10027.4855415,-3700863.46563 -9997.67413915,-3700806.33055 -9992.31427654,-3700739.02547 -10003.9859507,-3700664.25397 -10024.8113186,-3700586.23131 -10046.1636237,-3700509.19341 -10064.3121363,-3700433.74314 -10080.532662,-3700360.8445 -10096.0457524,-3700289.46443 -10112.3354088,-3700219.0622 -10130.6636211,-3700150.10255 -10152.7778369,-3700082.53716 -10179.1358879,-3700014.85438 -10209.2523112,-3699947.56733 -10297.7990239,-3699743.75761 -10348.1251705,-3699531.01233 -10371.3953988,-3699306.52429 -10400.0889118,-3699079.38812 -10463.2302314,-3698869.2869 -10586.3625972,-3698696.49971 -10816.4512645,-3698506.76491 -10981.9076392,-3698355.79204 -11114.1798591,-3698179.25571 -11219.6884258,-3697983.4738 -11307.3915236,-3697776.19297 -11360.7200884,-3697635.81633 -11406.0328975,-3697494.66214 -11429.7807678,-3697350.6067 -11424.928392,-3697129.8966 -11423.3394912,-3696982.04486 -11446.796849,-3696836.4987 -11500.1538604,-3696697.12121 -11583.3540254,-3696570.90909 -11696.2718087,-3696462.36267 -11837.2976577,-3696376.52291 -11990.7610866,-3696306.82783 -12130.5636183,-3696240.00868 -12256.6313255,-3696110.11446 -12242.1241615,-3695919.65139 -12189.5151002,-3695769.71313 -12118.2795979,-3695533.35139 -12136.3823485,-3695311.50884 -12248.1483673,-3695116.05781 -12396.7455453,-3694942.57311 -12490.8310713,-3694830.55192 -12598.0337173,-3694641.72327 -12676.2131719,-3694433.21142 -12758.9413821,-3694226.57274 -12875.1863992,-3694039.49381 -13023.4640608,-3693872.51531 -13132.2490389,-3693768.08365 -13234.1698987,-3693659.345 -13315.2764459,-3693538.69041 -13362.1453808,-3693399.49566 -13367.4671846,-3693248.45785 -13326.6491761,-3693100.19318 -13241.256567,-3692966.14998 -13132.2029535,-3692843.75206 -13025.3394237,-3692728.28843 -12946.9750541,-3692613.53661 -12922.4342509,-3692493.80105 -12965.6825081,-3692368.19666 -13060.4785599,-3692245.66589 -13253.9806573,-3692087.93365 -13455.9485645,-3691974.43587 -13640.3580315,-3691867.41878 -13790.0200602,-3691723.38886 -13948.021078,-3691474.20558 -14057.8639592,-3691272.31865 -14178.7028101,-3691079.62162 -14294.7008333,-3690892.55453 -14364.1889649,-3690685.7868 -14374.9907923,-3690461.65285 -14335.8263275,-3690237.39894 -14260.7832137,-3690025.62657 -14184.6300331,-3689818.88096 -14144.3270074,-3689607.64857 -14152.0232485,-3689388.59658 -14194.5849577,-3689165.585 -14285.1442058,-3688871.30089 -14378.8766311,-3688664.86506 -14502.7399397,-3688482.08043 -14665.7738008,-3688333.68959 -14862.1952644,-3688218.35312 -15056.4938126,-3688107.57219 -15207.4884772,-3687966.50922 -15297.2514193,-3687779.17088 -15345.9025649,-3687559.49142 -15376.4176991,-3687325.3234 -15413.7419094,-3687093.46593 -15468.4263657,-3686875.11956 -15520.0311968,-3686662.85384 -15543.3462351,-3686448.37046 -15533.5460841,-3686228.80456 -15503.1807874,-3686006.30815 -15465.1050333,-3685785.02346 -15424.5746798,-3685565.30523 -15355.7545216,-3685279.91608 -15283.8391341,-3685072.55396 -15195.5588875,-3684869.63963 -15106.2804093,-3684666.75257 -15032.3276163,-3684457.94707 -14999.1185644,-3684313.47016 -14983.9809732,-3684162.99938 -14990.7830265,-3684010.92488 -15022.1722615,-3683862.66972 -15081.0182941,-3683722.65156 -15170.0235964,-3683598.29045 -15287.7315745,-3683491.12543 -15411.2062939,-3683393.79429 -15510.6483161,-3683294.62717 -15557.5201907,-3683182.41906 -15545.7347871,-3683053.84013 -15490.933831,-3682914.45491 -15364.232953,-3682695.11103 -15233.1078484,-3682478.38673 -15125.9997719,-3682271.99248 -15044.7407528,-3682069.88242 -14988.6803484,-3681866.57868 -14956.6551398,-3681656.11789 -14944.6436853,-3681437.6116 -14943.5061185,-3681214.80893 -14943.8116934,-3680989.96806 -14938.6808688,-3680767.27537 -14939.8322526,-3680545.90867 -14987.2653265,-3680254.31963 -15040.9438936,-3680107.95042 -15091.4599114,-3679964.66614 -15105.5583909,-3679823.38341 -15057.1524329,-3679689.31664 -14964.3821246,-3679558.96871 -14861.9726874,-3679432.38323 -14785.3158765,-3679306.58785 -14768.6515524,-3679182.13944 -14824.1563938,-3679056.70463 -14913.0286097,-3678927.35415 -14988.9914771,-3678791.86386 -15016.2443674,-3678574.77575 -14988.3192935,-3678349.71271 -14967.9657235,-3678127.4391 -14958.200753,-3677981.31709 -14934.7125213,-3677763.12665 -14894.2776327,-3677546.4015 -14850.3208811,-3677328.77384 -14827.0633127,-3677182.52313 -14812.0361467,-3676963.10053 -14817.2014822,-3676742.12343 -14830.1055414,-3676520.9336 -14839.0159647,-3676299.85364 -14841.4365073,-3676078.95215 -14840.3626656,-3675858.14676 -14837.0288392,-3675636.90388 -14834.6664277,-3675414.63507 -14836.5479993,-3675192.24964 -14847.693487,-3674970.60888 -14874.1213115,-3674750.5467 -14920.9199776,-3674535.42073 -14987.7849377,-3674323.24091 -15030.3601732,-3674181.67628 -15060.4131803,-3674038.95694 -15071.911843,-3673893.74971 -15068.6142546,-3673746.4509 -15047.0064471,-3673523.71213 -15013.1757729,-3673228.86344 -15002.903146,-3673082.25583 -15002.8189677,-3672860.92421 -15014.9854944,-3672712.701 -15053.4537356,-3672494.30759 -15117.6033428,-3672283.20302 -15205.7828475,-3672082.93011 -15311.6418834,-3671889.66634 -15429.6338262,-3671701.56558 -15553.3946671,-3671514.306 -15676.3930668,-3671326.56808 -15801.5119489,-3671143.2689 -15946.2327515,-3670982.41448 -16122.8416395,-3670845.66601 -16319.2664823,-3670711.87125 -16404.131891,-3670600.12485 -16413.1926808,-3670456.98498 -16396.2959278,-3670305.5645 -16427.3452139,-3670180.80664 -16521.4684458,-3670087.7921 -16732.3899177,-3669981.57957 -16962.0463799,-3669875.35278 -17139.6701617,-3669730.08545 -17258.9525914,-3669543.45264 -17369.0844495,-3669351.0759 -17512.3383113,-3669182.27173 -17684.3441268,-3669041.6566 -17868.9206091,-3668922.18028 -18059.2351122,-3668811.53988 -18250.1750029,-3668696.38612 -18436.1969734,-3668565.87965 -18608.4685983,-3668416.76558 -18757.5045378,-3668249.30416 -18874.0691104,-3668063.74873 -18950.6876671,-3667860.80387 -18996.469809,-3667644.71604 -19019.9017343,-3667497.18823 -19058.5856297,-3667277.29847 -19147.5745156,-3666997.07542 -19250.0966733,-3666800.4158 -19375.4267382,-3666615.62124 -19515.0229001,-3666440.9276 -19662.6173076,-3666275.50755 -19864.8662709,-3666062.6256 -20017.3676794,-3665903.06712 -20118.0561653,-3665794.39037 -20264.8334125,-3665626.49616 -20441.9223347,-3665388.82611 -20551.8762162,-3665198.96043 -20636.7900996,-3664997.79095 -20701.4888436,-3664788.18297 -20753.2797241,-3664572.43414 -20799.7469618,-3664353.83378 -20847.9755167,-3664135.68492 -20905.2588901,-3663919.78611 -20973.1631333,-3663708.5925 -21043.3415508,-3663498.33601 -21126.8318355,-3663217.77097 -21184.1441119,-3662929.92983 -21211.8519165,-3662710.34591 -21233.0427989,-3662489.9414 -21253.7211456,-3662269.05141 -21279.6690694,-3662049.01638 -21326.6676717,-3661758.461 -21367.1896538,-3661541.52431 -21406.9631417,-3661324.60826 -21442.4388856,-3661105.81163 -21461.1349716,-3660958.4176 -21473.5635737,-3660810.19601 -21471.4889582,-3660588.43087 -21432.0821767,-3660371.68449 -21365.5772886,-3660159.67656 -21313.0255549,-3659873.34577 -21317.4424372,-3659651.4027 -21325.1046576,-3659429.37084 -21308.2915361,-3659207.50922 -21284.0723653,-3658988.84781 -21283.0675502,-3658769.5511 -21307.0517045,-3658550.56987 -21347.2883672,-3658332.14326 -21394.7641485,-3658113.51873 -21440.7289431,-3657894.43611 -21482.4643288,-3657675.96894 -21527.0140785,-3657459.92292 -21583.8771049,-3657246.53785 -21660.6373254,-3657039.10356 -21754.4943335,-3656835.69832 -21848.878121,-3656633.27817 -21926.4289524,-3656427.32183 -21970.3273305,-3656214.79197 -21978.2858628,-3655994.25218 -21972.1846092,-3655771.09923 -21976.1364459,-3655550.16942 -22006.9472362,-3655334.00094 -22059.0981902,-3655121.7456 -22124.4925299,-3654909.62803 -22194.0896439,-3654695.89701 -22258.7943724,-3654476.80438 -22307.9143923,-3654254.14111 -22327.6079279,-3654033.28134 -22285.6217356,-3653749.15963 -22203.6342332,-3653546.06603 -22105.7127511,-3653344.90631 -21994.2089615,-3653067.17948 -21926.4679665,-3652855.20267 -21848.711359,-3652651.49279 -21741.3696907,-3652462.07992 -21608.1870176,-3652286.86171 -21461.1760839,-3652117.51642 -21312.141015,-3651947.22684 -21172.7045808,-3651771.67873 -21054.4759903,-3651586.05869 -20946.2020157,-3651316.73317 -20882.6179651,-3651028.20132 -20840.6759202,-3650809.52207 -20783.8527506,-3650594.74616 -20700.0672098,-3650389.69895 -20605.9071201,-3650188.93151 -20529.5832745,-3649982.68088 -20481.9970444,-3649767.65197 -20442.0538359,-3649548.91708 -20377.9877128,-3649260.89601 -20353.6635149,-3649120.17221 -20339.3148516,-3648969.68368 -20343.7499992,-3648747.7389 -20370.6917934,-3648526.67883 -20413.7047006,-3648308.67758 -20457.2580503,-3648092.16052 -20482.4944783,-3647872.64609 -20485.9193885,-3647650.22951 -20490.6063678,-3647428.27812 -20520.4050616,-3647211.13742 -20563.0481005,-3647071.08485 -20638.0232263,-3646861.70507 -20685.3639792,-3646646.58433 -20695.3441578,-3646572.87068 -20712.3364821,-3646426.52356 -20765.9591488,-3646212.73059 -20842.9733144,-3646004.79479 -20887.3512545,-3645864.19602 -20915.1458547,-3645720.05267 -20937.6131994,-3645499.61566 -20969.121489,-3645280.93065 -21034.3371026,-3645070.8193 -21116.8853121,-3644864.23251 -21194.3734783,-3644655.28588 -21269.3657977,-3644446.40752 -21357.0568272,-3644245.1769 -21469.8000498,-3644055.7538 -21597.5155669,-3643874.91581 -21715.0562294,-3643687.36104 -21804.9675059,-3643485.07188 -21889.3195409,-3643280.43647 -21997.8067582,-3643090.63129 -22132.4395441,-3642916.10124 -22275.1416563,-3642744.34931 -22407.4057577,-3642565.38814 -22523.6316481,-3642375.37349 -22633.7718541,-3642182.02775 -22748.0148395,-3641992.56736 -22876.5625888,-3641814.70797 -23028.8545749,-3641655.68645 -23193.6494506,-3641506.3167 -23341.3669269,-3641344.42293 -23454.6393606,-3641155.98988 -23540.7007155,-3640949.81313 -23609.2945693,-3640735.11955 -23660.084853,-3640517.91331 -23683.1415269,-3640300.46302 -23670.2002651,-3640081.9943 -23629.8021718,-3639864.27285 -23573.1932912,-3639647.49207 -23511.8828788,-3639432.33781 -23452.3743986,-3639219.13266 -23391.894948,-3639006.95292 -23326.6867615,-3638795.40123 -23259.9404467,-3638582.39239 -23201.4316222,-3638369.15919 -23161.0768767,-3638152.93392 -23144.8941019,-3637934.55214 -23134.3712837,-3637713.01875 -23098.583676,-3637490.17416 -23064.3204269,-3637341.7275 -23027.1443615,-3637122.91718 -23029.3332927,-3636982.97123 -23063.3860907,-3636848.15383 -23122.5088812,-3636716.65147 -23196.1500295,-3636586.25319 -23310.9054891,-3636387.79152 -23398.8765224,-3636178.06824 -23437.307819,-3635956.20315 -23425.7627968,-3635733.69853 -23369.1144544,-3635524.41025 -23311.4524497,-3635388.09 -23218.7871802,-3635186.27514 -23139.5794373,-3634974.1023 -23101.300289,-3634751.32443 -23134.6278884,-3634534.59377 -23228.5331186,-3634331.70432 -23231.3656635,-3634325.63221 -23103.5987424,-3633742.0807 -22809.1744252,-3634149.75764 -22151.0501389,-3634079.7135 -21927.0339954,-3633925.42995 -21451.1010567,-3634051.77276 -21087.1615363,-3634429.37052 -20835.1215852,-3634429.72589 -20611.1401202,-3634653.64091 -20317.1227461,-3634653.63895 -19911.2089245,-3634442.84685 -19561.0942442,-3634051.67727 -19285.9933761,-3633791.86282 -18784.3506195,-3633808.99255 -18400.0665319,-3633897.87504 -18143.5286788,-3634036.2453 -17709.4327989,-3634213.41584 -17380.1614353,-3634368.75294 -16954.9276601,-3634495.22341 -16430.979257,-3634601.89529 -15882.3104296,-3634414.96288 -15591.7473556,-3634395.38185 -15237.5036349,-3634606.35968 -14821.9253499,-3634693.10042 -14215.1404654,-3634767.05335 -13783.0488414,-3634889.71808 -13271.9676682,-3635074.98669 -12842.8577577,-3635169.59292 -12616.6209017,-3635200.72601 -12479.412038,-3635170.98128 -12283.4050739,-3635229.77172 -12131.4547074,-3635245.89464 -12068.0417994,-3635210.64586 -11989.1357647,-3635202.79866 -11940.5077382,-3635141.66636 -11852.5303468,-3635112.58139 -11754.4385825,-3635161.71477 -11646.4082016,-3635249.59055 -11558.5211644,-3635278.96075 -11466.642977,-3635326.92613 -11362.4993954,-3635337.25259 -11254.3834717,-3635357.67986 -11127.2544786,-3635377.12527 -11001.2890277,-3635375.05458 -10882.0570573,-3635455.2414 -10813.479163,-3635524.05807 -10705.7199015,-3635621.92021 -10612.3768647,-3635707.89871 -10558.5629919,-3635906.22083 -10549.6818324,-3636130.80127 -10588.063699,-3636357.09399 -10624.1623602,-3636526.98926 -10617.3478056,-3636680.56436 -10607.2028849,-3636886.1927 -10578.4971492,-3637052.35474 -10536.8836097,-3637212.37268 -10460.6303375,-3637366.3382 -10299.759238,-3637458.65209 -10068.7876831,-3637591.34607 -9914.38477413,-3637746.93918 -9833.51951548,-3637915.0212 -9683.45389956,-3638028.02718 -9451.53068727,-3638052.32572 -9353.35517258,-3638052.49917 -9255.54319249,-3638121.11417 -9206.40713156,-3638169.91769 -9084.32586919,-3638237.19474 -8922.42660508,-3638356.01989 -8801.15393697,-3638489.72831 -8652.48697375,-3638580.71324 -8510.61049211,-3638581.57688 -8373.55553942,-3638640.26855 -8197.11273013,-3638601.10188 -8020.7004022,-3638581.42063 -7825.7470484,-3638633.19437 -7546.2240445,-3638606.82627 -7354.81436195,-3638669.49615 -7236.64518425,-3638807.11917 -7070.23228019,-3638934.56364 -6902.63767708,-3639092.01982 -6756.76378967,-3639120.47391 -6521.45476758,-3639139.87068 -6358.43307266,-3639153.3024 -6148.87471791,-3639228.45948 -6002.06814267,-3639286.91872 -5861.49991176,-3639400.17058 -5814.69763077,-3639516.36604 -5747.2813248,-3639591.15157 -5570.67791584,-3639610.44997 -5531.72846222,-3639620.50429 -5453.12012289,-3639669.61249 -5453.21279614,-3639728.07007 -5453.32774329,-3639796.52021 -5217.84248874,-3639855.39633 -5042.08511404,-3639924.13851 -4894.58836773,-3640076.55403 -4688.78070764,-3640188.58621 -4473.19856214,-3640345.35485 -4292.97793693,-3640433.70646 -4061.76959978,-3640658.85579 -3878.11369214,-3640969.65228 -3531.39022625,-3641374.8313 -3141.17724353,-3641825.16779 -2973.84534449,-3642139.02071 -2885.77297749,-3642354.27879 -2822.9581792,-3642487.90268 -2768.08668263,-3642628.80525 -2709.13456003,-3642775.81515 -2672.32913072,-3642901.23555 -2611.24763476,-3643089.27651 -2571.86751932,-3643285.22053 -2542.5566878,-3643401.44286 -2542.71211377,-3643608.80115 -2542.75042476,-3643775.18979 -2552.53705951,-3644079.22124 -2515.78196108,-3644270.59698 -2317.13404541,-3644755.19542 -2209.39744284,-3645000.4727 -2119.17762491,-3645219.28985 -1895.65425497,-3645451.23621 -1693.81416223,-3645754.54466 -1297.5467246,-3646101.63174 -1096.86833988,-3646136.08633 -925.934462019,-3646152.74081 -781.668118527,-3646286.0915 -687.073221459,-3646381.1116 -547.060089992,-3646523.84056 -506.835424467,-3646697.82558 -528.012191941,-3646924.60024 -659.503706708,-3647156.35993 -739.48014145,-3647313.07452 -768.855460174,-3647538.12596 -647.568270008,-3647735.30924 -566.024326683,-3647832.47262 -416.027874286,-3648057.92205 -376.729740677,-3648155.93159 -337.681318659,-3648253.93437 -435.700163211,-3648302.72598 -504.182154745,-3648312.84925 -562.987592549,-3648371.20542 -601.154233623,-3648460.605 -623.203691965,-3648609.40605 -690.497913776,-3648695.01248 -779.757116923,-3648789.01344 -842.99314542,-3648863.23794 -868.850291652,-3648968.46309 -957.214370799,-3649020.5156 -1059.21575082,-3649151.1442 -1084.50197848,-3649290.3625 -1121.66541905,-3649361.30097 -1129.63842324,-3649452.02384 -1071.72239833,-3649563.53302 -1005.72144254,-3649644.28325 -826.778573685,-3649733.61338 -658.435829108,-3649872.62183 -620.20402503,-3650064.54146 -655.040173011,-3650160.02755 -582.181226311,-3650254.95645 -492.17905521,-3650380.83375 -429.574206316,-3650613.39333 -360.999155266,-3650801.14533 -352.654379548,-3650998.74517 -384.955887091,-3651147.76573 -449.67133086,-3651294.4019 -434.872786874,-3651383.74832 -476.782265126,-3651600.9618 -541.682578465,-3651708.61796 -684.165727799,-3651821.15024 -680.686074425,-3651968.14963 -667.996765102,-3652116.39996 -526.680179148,-3652211.20131 -384.155922889,-3652398.9755 -343.840364421,-3652514.50268 -181.844905718,-3652638.85084 -181.803933613,-3652728.79371 -84.2814373153,-3652743.95016 80.8053204181,-3652956.32648 58.2026684577,-3653088.62302 130.320266186,-3653265.48074 113.248035968,-3653359.95293 62.711247616,-3653490.48671 -53.5877129389,-3653604.73259 -152.334751099,-3653734.94793 -310.99174237,-3653908.99625 -317.95305395,-3654035.72366 -331.767526119,-3654221.2255 -346.795223349,-3654423.68312 -386.795127813,-3654516.0291 -450.400502101,-3654640.20867 -405.7317935,-3654724.37586 -253.699826519,-3654747.01986 -200.468997151,-3654810.43486 -174.284230138,-3654903.5908 -189.248315714,-3655158.51632 -190.831556146,-3655280.39406 -189.163630916,-3655383.87267 -294.206164762,-3655488.43104 -433.69081229,-3655582.5537 -452.277961658,-3655768.92409 -362.731270767,-3655911.28182 -204.311971105,-3655983.56972 -71.3455108443,-3656146.10291 22.5211196221,-3656304.0694 113.269471035,-3656338.53048 165.461922052,-3656439.89335 171.878340481,-3656525.01402 93.4791892457,-3656632.7989 74.0388057338,-3656740.69718 122.990982114,-3656887.44219 217.114759329,-3656999.44606 345.743899378,-3657238.31283 417.009586225,-3657446.12978 465.914075759,-3657612.86123 474.49149863,-3657792.48054 489.862563683,-3657933.81048 534.377236114,-3658151.38934 502.817140456,-3658400.86494 475.621227375,-3658573.00966 367.950173257,-3658700.47947 258.884236716,-3658842.40158 244.919398015,-3659014.90801 338.527069742,-3659191.35778 446.233390127,-3659318.22578 495.173020455,-3659474.46564 508.044921657,-3659579.25084 401.644892715,-3659696.76116 384.98932275,-3659803.23647 426.629291361,-3659915.80459 475.67951608,-3660004.09135 524.611153503,-3660142.34284 475.712691347,-3660258.4288 320.526284226,-3660323.63582 250.26703098,-3660435.13935 142.782271434,-3660546.62299 122.94897593,-3660650.51264 152.560316237,-3660755.25632 221.024506385,-3660837.07926 288.113808093,-3660914.36754 389.272904551,-3661043.05627 475.777378972,-3661150.35741 510.96991597,-3661270.24465 554.264164431,-3661395.3506 593.235722912,-3661532.33056 597.618377885,-3661673.36017 593.262648864,-3661777.67388 593.136870699,-3661846.12651 575.436528919,-3661945.07795 534.377846082,-3662002.91562 455.95370067,-3662093.20838 367.946722832,-3662150.25979 289.409378822,-3662199.07597 211.121713186,-3662247.89892 124.469276193,-3662328.47209 83.7012474279,-3662384.8184 76.7082576136,-3662485.06206 107.792056573,-3662563.36353 162.229994655,-3662600.83148 242.149570199,-3662647.49198 275.730156002,-3662798.81501 119.886623075,-3662997.41518 93.5742812572,-3663100.62735 62.2791678906,-3663267.16203 114.319589854,-3663383.01398 221.002883909,-3663492.36828 283.884294274,-3663559.04931 309.314373717,-3663688.66313 309.283345784,-3663790.09704 377.711725202,-3663854.93151 426.934097309,-3663891.25777 525.143036384,-3663926.92761 628.53350617,-3663873.79648 642.791286291,-3663800.23455 681.368046355,-3663668.87638 779.324235698,-3663659.0683 848.200965157,-3663698.4315 913.746654263,-3663768.18399 985.137024104,-3663816.11073 1056.86254473,-3663870.04287 1122.52785366,-3663962.78417 1195.76144854,-3664043.74058 1292.29864228,-3664058.37824 1328.30027567,-3664011.89495 1398.03943481,-3663946.84846 1387.10638247,-3663826.12543 1429.40752467,-3663750.33338 1504.74836814,-3663717.91959 1592.42478028,-3663736.81142 1680.57988222,-3663811.18125 1788.85118571,-3663826.14032 1910.2587082,-3663772.00323 1984.91585045,-3663728.07786 2010.28509222,-3663622.83984 2043.74921429,-3663541.30875 2092.602978,-3663481.68572 2161.04609191,-3663473.06753 2232.75526648,-3663482.02779 2318.0860525,-3663531.83581 2386.93274241,-3663599.68061 2435.57107309,-3663629.99503 2504.68458457,-3663669.86482 2563.23062972,-3663639.489 2622.39226093,-3663623.12124 2669.52264818,-3663516.97989 2769.43984994,-3663444.76436 2867.01784036,-3663384.97682 2989.15799152,-3663395.31875 3085.46047374,-3663445.92724 3132.30010768,-3663560.14012 3092.11548104,-3663658.97679 3082.42995707,-3663757.15 3140.16208946,-3663811.19914 3199.24178504,-3663834.30455 3332.52449201,-3663820.9671 3415.55117854,-3663717.80757 3499.40196374,-3663666.63824 3572.34646652,-3663639.65484 3705.11996359,-3663599.31993 3807.52074137,-3663600.6265 3910.23624494,-3663590.44879 4105.42464994,-3663551.8238 4211.42699572,-3663503.75948 4278.03461026,-3663443.62254 4336.755746,-3663397.76055 4425.09398026,-3663365.20227 4489.87881542,-3663398.95754 4542.60478159,-3663453.36958 4601.4388402,-3663521.94042 4706.32990598,-3663614.75914 4847.01482525,-3663623.11097 4944.42330457,-3663551.32533 5011.64686666,-3663505.19643 5164.49366077,-3663434.4298 5297.17279848,-3663434.0673 5411.94145562,-3663458.19892 5532.4626663,-3663472.99393 5675.60396634,-3663482.91205 5826.40621571,-3663541.51075 5918.01142066,-3663599.48705 6141.6639032,-3663634.59734 6341.86915042,-3663540.64252 6471.26273686,-3663505.21107 6659.55291696,-3663481.3872 6812.66814705,-3663528.55651 6927.10619806,-3663592.15577 7294.99747781,-3663670.19503 7581.23537103,-3663855.93222 7836.55673881,-3663893.41009 8166.0159242,-3663787.50512 8364.49678904,-3663747.47017 8481.95609421,-3663728.20169 8609.90494363,-3663681.73668 8795.80715341,-3663717.81212 8972.06169015,-3663659.17839 9168.0777533,-3663590.59206 9377.39135027,-3663583.83418 9491.46212996,-3663551.4801 9599.30831694,-3663600.40827 9719.79873935,-3663634.69161 9844.41058861,-3663600.62745 10010.6214191,-3663571.20096 10079.4580643,-3663639.54869 10221.9025861,-3663702.4176 10383.2538855,-3663658.86601 10590.6540351,-3663576.09917 10667.3608132,-3663512.23852 10747.672426,-3663444.47885 10847.9542286,-3663368.27137 10973.9179071,-3663312.25627 11155.9481303,-3663298.25405 11309.8683896,-3663297.97347 11477.8559237,-3663340.55421 11661.9354573,-3663352.09371 11827.9191391,-3663340.15043 11968.0123176,-3663270.03016 12107.8559227,-3663199.90293 12257.0606918,-3663162.01406 12431.4894835,-3663179.28562 12527.6033126,-3663227.893 12744.6991192,-3663210.85336 12843.0156244,-3663179.06603 12941.014115,-3663149.76856 13058.6241491,-3663188.97053 13156.6023529,-3663215.14167 13254.768651,-3663188.84709 13368.5207416,-3663113.50684 13509.3609332,-3663070.89087 13646.7538158,-3663081.15114 13881.940947,-3663179.04375 14009.0530574,-3663218.00657 14185.6283928,-3663257.32509 14381.7025815,-3663287.18337 14537.4046956,-3663294.94712 14744.1538784,-3663345.5868 14910.7874235,-3663355.64902 15077.4792801,-3663336.22884 15252.9955385,-3663323.04712 15449.8337977,-3663315.94655 15654.0976478,-3663284.06284 15880.6823422,-3663258.28758 15920.1520833,-3663276.85951 16091.0178502,-3663360.4983 16174.9749509,-3663424.26557 16323.5237087,-3663510.79135 16468.789133,-3663571.2412 16589.500611,-3663588.54103 16775.5222631,-3663620.62337 16961.9955848,-3663672.70757 17038.7055649,-3663681.80563 17192.128976,-3663745.47784 17313.8840993,-3663806.78327 17505.854499,-3663831.53295 17658.2661136,-3663822.71583 17805.6945323,-3663804.26712 18004.9030191,-3663783.73895 18134.8095699,-3663757.31397 18312.258532,-3663710.20302 18448.5681761,-3663668.96116 18646.3888868,-3663607.91567 18833.7026349,-3663492.61007 18975.6869871,-3663381.05972 19124.587311,-3663290.68781 19310.0509802,-3663160.83821 19420.0760315,-3663084.89295 19718.6054702,-3662813.71409 19852.4533932,-3662752.91353" style="stroke-linejoin:round;stroke:#000;stroke-width:1px;fill:none" /></g></g></svg>