<svg xmlns="http://www.w3.org/2000/svg" baseProfile="full" height="66278.6439653" version="1.1" viewBox="38951.952553,3784699.910809,64422.584765,66278.643965" width="64422.5847649"><defs><style type="text/css">polyline,line,rect,path,polygon,.polygon{fill:none;stroke:#000;stroke-width:1px;stroke-linejoin:round;}</style></defs><g fill_rule="evenodd" transform="scale(1,-1)"><g class="id" id="74028"><polygon class="_74028" id="None" points="53996.6480306,-3795298.99476 74571.9214945,-3788989.70543 76467.8093007,-3788379.35394 76527.8056892,-3788359.85876 86426.3953043,-3785174.24733 86769.1137633,-3785155.27285 86782.6125335,-3785154.27388 87555.5375006,-3785154.32769 87660.0252994,-3785182.33225 88050.9839868,-3785221.85575 88302.9586485,-3785226.37302 88570.4371652,-3785152.39928 88730.1763275,-3785079.41792 88877.1677108,-3784992.93708 89009.4043833,-3784992.94652 89088.3901907,-3785079.94337 89148.6274639,-3785172.93824 89247.3641681,-3785218.9406 89380.3509179,-3785214.95048 89457.3377213,-3785289.94831 89561.8230496,-3785345.95001 89716.2961844,-3785500.94507 89888.5155389,-3785682.93848 89999.2491282,-3785752.93905 90048.9836111,-3785899.92729 90165.7205123,-3785913.4341 90298.7029036,-3785966.43792 90467.6823887,-3786006.44562 90571.4125942,-3786132.93961 90720.1413294,-3786212.44166 90780.6249575,-3786354.93082 90900.3626083,-3786349.93972 91040.0832258,-3786557.92733 91116.072817,-3786590.92909 91157.3060882,-3786768.41297 91350.2794944,-3786853.4172 91439.5091809,-3787008.40666 91559.9860145,-3787155.899 91688.9660911,-3787242.39847 91814.1994157,-3787286.90221 91885.9335831,-3787403.89436 92020.9132177,-3787485.89461 92141.1472611,-3787526.39837 92221.3746862,-3787728.3816 92361.107193,-3787758.88772 92452.3406186,-3787854.38334 92517.8205857,-3788043.36679 92713.7885001,-3788195.86298 92723.0182879,-3788482.83152 92956.2420282,-3788484.34688 93263.9595981,-3788450.37128 93584.928019,-3788378.401 94020.1315274,-3788330.4359 94279.1041095,-3788295.45752 94540.8211491,-3788334.97078 94712.0545709,-3788286.48811 94996.78405,-3788102.02919 95115.5295447,-3787966.55326 95259.0193787,-3787871.07444 95379.5091081,-3787815.58938 95605.4910961,-3787693.11967 95724.4884971,-3787531.14721 95884.2224023,-3787491.66323 96044.4549173,-3787470.17719 96270.4270691,-3787483.19177 96582.6380982,-3787505.21147 96762.6084837,-3787616.21099 96892.8308266,-3787783.20009 97137.0452995,-3787865.70746 97345.7673762,-3787900.21811 97461.4986842,-3787963.71858 97600.4779544,-3788015.22215 97733.4577718,-3788068.72502 97799.9419998,-3788175.2166 97946.420113,-3788228.22043 98133.6496351,-3788189.23857 98285.3783143,-3788223.24513 98390.6044062,-3788374.73367 98505.0812494,-3788499.22617 98498.3222297,-3788639.20812 98724.2692728,-3788989.17984 100056.541577,-3789810.6665 99903.3012964,-3789960.13658 99918.2643072,-3790479.56999 99734.7648906,-3790831.01204 99597.2479399,-3791365.93347 99484.9772245,-3791920.35413 99377.7185562,-3792282.30029 99356.7169534,-3792352.28988 99262.6901277,-3792992.20077 99128.6798927,-3793456.63224 99166.1416017,-3794029.0597 98967.1284789,-3794718.45829 99010.8341345,-3795420.3688 99202.756269,-3796412.24836 99885.8775134,-3797150.68494 100256.054642,-3797610.64142 100385.766647,-3798027.09128 100218.755879,-3798729.98783 100546.679338,-3799422.90837 101408.294409,-3799777.89801 102137.935373,-3799928.90939 102301.893465,-3800353.35658 102323.375763,-3800692.80935 102775.79841,-3800995.28542 103081.99879,-3801129.27906 103203.962698,-3801575.71968 102989.731864,-3801866.16909 102931.237435,-3801937.65645 102647.014625,-3802284.5954 102211.3073,-3802799.00523 101971.828126,-3803157.94532 101933.307923,-3803881.34113 101761.812544,-3804465.25235 100677.941493,-3805203.61378 99783.802297,-3805634.52711 99436.0849872,-3806153.94586 99406.5700584,-3806848.84998 99830.7455806,-3807477.2745 100311.918666,-3807891.22889 100469.143486,-3808026.21381 100956.570718,-3808209.19964 101180.779459,-3808625.14599 101079.035202,-3809019.08796 100891.558208,-3809183.0608 100850.794845,-3810146.42399 100645.055758,-3811191.27305 101142.974737,-3811885.18238 101582.907949,-3812167.64822 101767.876826,-3812510.1015 101797.371876,-3812565.09396 102072.330464,-3812702.57758 102071.829899,-3812754.07013 102070.826173,-3813079.02309 102057.072158,-3813634.94248 101664.124713,-3814068.3762 101430.155715,-3814368.33114 101129.196482,-3814653.28806 100788.49407,-3814765.76959 100259.816536,-3815075.7223 99657.3995955,-3815250.19425 99236.7047184,-3815857.10808 98916.4963143,-3816555.01095 98637.2837286,-3816913.46129 98442.3096578,-3817614.36559 98324.5761741,-3818292.27354 98213.5926126,-3818892.69237 98241.3411789,-3819507.60894 98312.8346204,-3820104.52761 98339.0824326,-3820324.4976 98547.8123959,-3821391.35093 98632.0631368,-3822551.19206 98070.4039953,-3823664.04872 97759.2012641,-3824028.50442 97672.9677089,-3824339.46417 97285.7760136,-3824745.41653 97103.8104597,-3825328.8425 96344.4277492,-3826239.23786 96275.4474745,-3826750.17287 96006.9928355,-3827227.61699 95876.7714051,-3827733.05486 95738.3137941,-3828715.93209 95556.8521865,-3829282.36454 95261.6659798,-3830204.2558 95202.944361,-3830894.6703 95107.7427834,-3832017.03203 95230.253974,-3832783.43148 95414.5082927,-3833535.83015 95598.7603479,-3834195.74002 95706.5144206,-3834641.17961 95646.0420541,-3835132.62021 95497.8288845,-3835569.07166 95500.3494565,-3836056.51059 95277.6398879,-3836346.48418 94756.1983853,-3836209.02399 94537.9679518,-3836041.05407 94239.252511,-3835994.57255 94310.0101076,-3836370.52362 94225.2996607,-3837029.44713 94225.8230009,-3837541.38496 94555.5580562,-3838075.8045 94694.8181509,-3838634.72968 94648.8481476,-3839126.17217 94485.1705806,-3840150.55662 94388.7512063,-3841429.40828 93786.6115037,-3842121.85986 93180.1984223,-3842402.86146 92396.3442895,-3843365.79606 92130.9087609,-3843945.74607 92040.4633798,-3844678.16916 91804.7939257,-3845547.58683 91306.603532,-3845620.11031 91145.1447076,-3845990.08003 91365.8912617,-3846312.03062 91109.4639434,-3846995.97284 91286.5015295,-3847841.86931 91383.0103588,-3848123.33223 91460.522729,-3848423.29441 91431.5689492,-3849036.73023 91900.7963753,-3849429.6542 92244.2921265,-3849883.57986 92269.3182791,-3850274.03556 92238.5957173,-3850596.50289 92113.630168,-3850874.48228 88106.7277391,-3849947.87077 78896.9337327,-3847955.64718 76079.1421895,-3847688.83143 76029.8957188,-3847684.33456 75754.6653184,-3847658.35207 75622.4246888,-3847645.86046 75094.9617584,-3847595.89372 75032.466115,-3847589.89765 74442.5044465,-3847488.43783 73636.5560122,-3847350.99188 72177.8967794,-3847101.0876 69438.3080067,-3846616.26085 67762.1528323,-3846349.36015 67341.42601,-3846282.38453 67159.1859736,-3846253.39502 66532.9698658,-3846153.93076 63891.356911,-3845733.57639 50108.2648915,-3845991.11361 49992.2693132,-3845993.11761 49748.7785504,-3845997.62598 48940.0587003,-3846012.65349 48816.8132139,-3846014.65766 44587.9573963,-3846093.29416 43767.7329763,-3846108.81926 42794.2623722,-3846127.34846 39593.6018641,-3846186.94008 39595.601056,-3846159.94072 39762.3066432,-3844696.9748 39766.0380739,-3843995.99379 39695.5338184,-3843756.5022 39512.0356107,-3843629.51039 39145.5406341,-3843432.02505 39004.5371144,-3843136.03662 38982.7767555,-3842688.04943 39030.2756536,-3842696.54804 39022.5200238,-3842454.55492 39055.5164337,-3842343.05722 39050.7639502,-3842233.56038 39078.510108,-3842104.56333 39081.5071602,-3841983.56665 39153.5004975,-3841786.5705 39258.2442977,-3841648.57195 39549.7361856,-3841657.56485 39720.2312556,-3841656.56085 39976.7216325,-3841564.55744 40051.4660471,-3841421.05987 39978.4647744,-3841276.06584 39816.7160609,-3841128.07396 39768.4629927,-3840934.08076 39740.9590522,-3840726.58749 39939.4482263,-3840508.58943 40453.4391022,-3840781.06947 40456.9359035,-3840647.57342 40288.4374771,-3840495.08189 40242.9340164,-3840282.58933 40394.9263178,-3840145.59005 40683.9164463,-3840099.58491 40834.4105732,-3840045.08318 40913.6552397,-3839918.08532 40927.1503475,-3839719.59119 41064.1446968,-3839658.59002 41179.6376492,-3839506.09223 41216.3817578,-3839293.59814 41185.8780308,-3839080.60557 41277.3716273,-3838921.10865 41368.365231,-3838761.1118 41480.3582665,-3838606.11438 41480.8551512,-3838462.11903 41505.349703,-3838244.12559 41672.5926293,-3838168.12452 41779.0836646,-3837909.63077 41839.8262487,-3837651.13805 42022.3189041,-3837590.13628 42341.8081801,-3837590.12961 42661.2986407,-3837651.1208 42889.2921443,-3837711.61388 43074.2879536,-3837812.10646 43298.7843457,-3838002.09502 43497.5315028,-3838185.08431 43691.5259752,-3838239.5781 43829.0204577,-3838207.57614 44078.7623121,-3838235.56954 44298.5042427,-3838222.56504 44592.2429794,-3838188.05961 44826.9830381,-3838122.55662 44922.4763147,-3837979.05965 45078.9688903,-3837903.05887 45321.4491828,-3837423.07108 45432.6874988,-3837081.58133 45368.6860477,-3836905.5893 45519.6788852,-3836836.08862 45631.6721895,-3836721.59051 45551.1710025,-3836525.09965 45395.9213265,-3836264.11279 45413.4186971,-3836170.11596 45429.4162989,-3836084.11888 45657.654155,-3835916.6205 45764.1469428,-3835764.62411 45926.8885372,-3835660.12478 45692.1426272,-3835417.63889 45688.1384579,-3835202.14726 45847.1245013,-3834806.65941 45720.8758339,-3834623.16899 45441.3817976,-3834369.68413 45242.8853534,-3834151.69624 45320.1242328,-3833707.71195 45484.6138473,-3833485.71761 45595.6053606,-3833252.72473 45558.3545729,-3833125.23039 45538.3537214,-3833031.7344 45608.0963719,-3832765.24367 45851.8324723,-3832515.74938 45507.0911044,-3832215.76704 45403.0914123,-3831983.77789 45745.575543,-3831842.27796 46089.3056413,-3831460.78777 46168.0517992,-3831419.2882 46555.0328343,-3831216.79035 46716.2736185,-3831051.79461 47148.2528018,-3830866.79557 47269.7446625,-3830669.30197 47360.9885023,-3830517.30698 47482.7319718,-3830425.809 47573.9767302,-3830334.81149 47665.2203421,-3830167.31725 47832.7129536,-3830151.81542 47999.9542684,-3830050.81727 48151.9467294,-3829984.81787 48265.6840236,-3829449.33947 48711.3966214,-3828129.89156 48952.378452,-3827533.9152 49879.070299,-3826135.46851 50491.5308471,-3825058.01286 50630.5235327,-3824980.51524 50846.7623712,-3824888.01764 51063.0005893,-3824733.52307 51186.4940787,-3824671.52494 51340.9852249,-3824517.03104 51495.4760986,-3824332.03868 51702.7162119,-3824359.03556 51891.4568466,-3824347.53448 52113.1954969,-3824301.03484 52483.9245382,-3824007.54628 52746.409445,-3823776.05574 52994.1466288,-3823740.55552 52955.3872964,-3822143.137 53037.8707972,-3815940.45409 53379.6657531,-3807647.37963 53399.1670103,-3807476.38851 53424.1686838,-3807256.89992 53452.9206902,-3807004.41305 53535.4269874,-3806275.95094 53774.553824,-3799188.305 53885.8688331,-3796494.9358 53996.6480306,-3795298.99476" style="stroke-linejoin:round;stroke:#000;stroke-width:1px;fill:none" /></g></g></svg>