<svg xmlns="http://www.w3.org/2000/svg" baseProfile="full" height="148828.55937" version="1.1" viewBox="-63626.663047,4082222.227225,144281.158205,148828.559370" width="144281.158205"><defs><style type="text/css">polyline,line,rect,path,polygon,.polygon{fill:none;stroke:#000;stroke-width:1px;stroke-linejoin:round;}</style></defs><g fill_rule="evenodd" transform="scale(1,-1)"><g class="hogares departamen mujeres departam_1 toponimo_i tot_pob varones viv_part viv_part_h" id="74042"><polygon class="_74042" id="None" points="-5508.86421239,-4082979.79461 -876.134583442,-4083104.26738 -856.884669812,-4083104.76734 18322.5016522,-4083164.06854 19863.4874758,-4083169.12145 21532.2191396,-4083217.18312 29470.118058,-4083217.54726 30310.3549145,-4083217.59244 45045.0264417,-4083218.09131 80639.3397891,-4083252.11598 80726.992217,-4089278.08801 80689.7316592,-4091287.38924 80125.5534088,-4121432.27321 80125.8014692,-4121459.76953 80160.0468652,-4121459.7719 80168.5457223,-4121459.77249 80066.5278127,-4130228.55707 80066.0260129,-4130264.55196 79961.1253662,-4140112.1321 79729.9164911,-4161667.43136 79554.1308081,-4178349.49268 79523.0170104,-4181246.58219 79479.235271,-4185303.01667 79347.1221944,-4197965.8373 79334.9549427,-4198956.2126 79327.0238558,-4199767.11112 79314.6216967,-4200891.47173 79302.2248355,-4202047.82983 79290.8275278,-4203172.19329 79279.4303393,-4204271.56125 79243.2672489,-4207711.65775 79240.8498611,-4208528.06358 79236.2572402,-4210048.89048 79222.1660571,-4213808.97615 79220.4624819,-4218493.98629 79218.1568808,-4220075.82855 79208.7825101,-4223022.04595 79202.290132,-4228606.54851 79191.1412943,-4231048.34941 76123.6232095,-4231018.29033 75326.6800109,-4231006.40229 71047.2159976,-4230945.48279 69308.5701231,-4230897.21022 60358.2707664,-4230550.79372 54301.2808127,-4230495.4315 54299.5308822,-4230495.43168 54161.2850719,-4230482.4459 52777.330043,-4230394.58456 50309.1551766,-4230237.82242 45203.8056896,-4230087.27128 44416.3262097,-4230060.83623 42815.1166861,-4230014.96447 41779.1431726,-4230006.54434 37965.7319603,-4229981.32126 35449.0354919,-4230000.98873 31577.107151,-4230038.22398 26851.1781089,-4230083.47449 19808.7566293,-4230180.27267 13616.3017889,-4230209.4611 3888.09736523,-4230238.61623 -1855.13207517,-4230287.1267 -1855.13167425,-4230168.62713 -7767.35826174,-4230190.5752 -11608.5903225,-4230219.50722 -12549.335394,-4230226.48646 -15157.5698811,-4230228.92055 -24325.4932904,-4230260.09016 -30696.662035,-4230283.77006 -33300.1207326,-4230298.1178 -36599.3121582,-4230341.4065 -42738.4291439,-4230442.45922 -47631.2933498,-4230488.0536 -57314.1864345,-4230537.12214 -57293.3866633,-4230052.14577 -57419.8679652,-4229927.13821 -57349.341951,-4229646.15826 -57213.830848,-4229479.17988 -57132.3114098,-4229254.19857 -56991.0471546,-4229051.72235 -56811.2922791,-4228922.74661 -56726.2822386,-4228785.26157 -56586.2646663,-4228547.28673 -56438.748866,-4228321.81203 -56355.2291323,-4228085.33143 -56317.7089547,-4227864.84553 -56359.1791205,-4227583.85476 -56411.1646063,-4227462.35544 -56252.1582829,-4227320.87793 -56075.1621085,-4227273.3976 -55894.1594744,-4227157.92084 -55850.6376073,-4226911.93689 -55900.1152608,-4226706.44204 -55844.0969923,-4226489.45805 -55879.0735699,-4226264.46574 -55956.0449235,-4226006.47115 -56051.2613929,-4225706.97706 -56155.4835858,-4225471.97903 -56179.9638335,-4225278.48661 -56046.9513621,-4225075.50974 -55936.4426699,-4224923.52807 -55815.9322146,-4224746.54861 -55696.9291807,-4224648.56488 -55654.4213184,-4224541.07444 -55673.660965,-4224441.07785 -55752.8967722,-4224333.57608 -55902.1349439,-4224291.06435 -56081.8682571,-4224214.55156 -56190.3442266,-4224020.05177 -56319.8213684,-4223850.54876 -56473.8051365,-4223766.53887 -56556.5398757,-4223652.03736 -56606.7755366,-4223528.53942 -56631.7530502,-4223303.04954 -56627.7351219,-4223108.56072 -56655.7198721,-4222961.56633 -56746.7023905,-4222828.56534 -56781.6775263,-4222582.07604 -56686.8878207,-4222093.11273 -56737.8107049,-4221281.15531 -56690.5489426,-4221120.66905 -56697.5282934,-4220896.68169 -56575.5220472,-4220746.70158 -56421.7680719,-4220600.22406 -56340.5125178,-4220483.73825 -56130.5113488,-4220329.76606 -55976.5093872,-4220203.78715 -55868.2568154,-4220101.30277 -55850.4886469,-4219881.81742 -55843.4719579,-4219685.82978 -55819.7093783,-4219524.84155 -55967.6878603,-4219380.33744 -56067.4230491,-4219279.83489 -56340.3904544,-4219097.82231 -56515.3765758,-4219062.80921 -56605.6069541,-4218902.31132 -56543.3431312,-4218698.82946 -56492.0771087,-4218476.84783 -56564.308469,-4218313.85187 -56587.2948917,-4218173.35879 -56536.283123,-4217998.87427 -56425.0247101,-4217817.89534 -56154.020816,-4217568.93428 -56025.2656848,-4217410.95524 -56030.4869432,-4217072.97646 -56018.212157,-4216766.99725 -56049.6916322,-4216545.00906 -56095.1699048,-4216319.02006 -56123.1449119,-4216039.03617 -56109.1302709,-4215850.04983 -56053.1184801,-4215661.06697 -55998.8535513,-4215434.08652 -56018.0808769,-4215171.10256 -56057.8100927,-4214947.61439 -56200.0340005,-4214744.11668 -56254.7606593,-4214501.12884 -56265.2352315,-4214193.64911 -56269.9707001,-4214016.16098 -56248.956524,-4213820.17623 -56178.9463773,-4213631.19493 -56065.4392241,-4213440.71716 -55793.9441873,-4213263.25083 -55625.9474393,-4213155.27143 -55500.188809,-4212931.29676 -55387.9325918,-4212749.3181 -55282.4275953,-4212588.33742 -55212.9063,-4212245.36672 -55090.3901283,-4211917.89901 -54848.8761125,-4211503.44635 -54526.3678194,-4211082.99995 -54464.1077208,-4210885.01855 -54456.8436052,-4210684.53334 -54477.8278542,-4210488.5458 -54477.8151705,-4210313.55834 -54358.8065897,-4210076.08399 -54204.8010898,-4209844.61168 -54080.7933474,-4209610.1374 -53896.7964752,-4209466.66076 -53812.7926901,-4209326.67676 -53783.7792124,-4209104.19488 -53752.2727099,-4208978.20621 -53623.765423,-4208738.73251 -53532.7527572,-4208458.75917 -53574.7372125,-4208276.76959 -53567.2247118,-4208085.7841 -53476.7181688,-4207891.80452 -53336.7166353,-4207716.82686 -53284.4570351,-4207516.84511 -53308.6891092,-4207275.86131 -53336.6665119,-4206967.88234 -53368.1407181,-4206613.90673 -53266.6366202,-4206435.92677 -53126.6352274,-4206253.9496 -53049.6273601,-4206043.97041 -52916.6260604,-4205868.99219 -52825.1223148,-4205703.51054 -52843.8628272,-4205577.51886 -52762.6018553,-4205309.04436 -52580.6023596,-4205099.07181 -52502.0967761,-4204915.59067 -52489.5772593,-4204588.11638 -52552.3100241,-4204388.12777 -52581.7913761,-4204123.64626 -52594.5297539,-4203951.15878 -52699.5156019,-4203853.15989 -52734.5059987,-4203741.16642 -52728.7467207,-4203582.67909 -52740.4754482,-4203249.20439 -52678.4592298,-4202901.23542 -52605.1936522,-4202545.76778 -52573.435634,-4202369.2836 -52657.4144363,-4202124.29802 -52727.3919,-4201837.31672 -52783.8697986,-4201538.33731 -52629.3693977,-4201319.36391 -52463.6242225,-4201173.38523 -52424.3357988,-4200447.94592 -52431.5624414,-4200045.47817 -52404.5411965,-4199627.01382 -52405.2809285,-4199443.5288 -52489.2558201,-4199114.5512 -52503.2270209,-4198610.59211 -52475.2092149,-4198239.62447 -52523.6883688,-4197927.64792 -52410.6653182,-4197316.20525 -52314.1598135,-4197056.73218 -52209.6568738,-4196831.25665 -52030.6629733,-4196657.28059 -51825.6693818,-4196445.30897 -51600.1824391,-4196328.83025 -51411.1912538,-4196188.85156 -51264.195176,-4196020.87304 -51236.1863745,-4195796.89327 -51186.9273695,-4195530.91811 -51012.1804407,-4195292.94676 -50846.9326294,-4195050.9752 -50884.6656627,-4194764.99756 -50820.9061613,-4194453.02707 -50765.9010467,-4194246.54722 -50606.159182,-4194131.06456 -50620.1442402,-4193837.08892 -50690.1242846,-4193536.11138 -50681.3650217,-4193319.13038 -50767.0989763,-4193130.14268 -50795.0879202,-4192941.15768 -50690.0912421,-4192815.17333 -50513.3500778,-4192673.69351 -50417.1027751,-4192549.20856 -50473.0888711,-4192346.22357 -50599.0717311,-4192206.23007 -50692.0599234,-4192122.23322 -50683.0532464,-4191954.24822 -50536.5589256,-4191794.2686 -50347.3185821,-4191639.29035 -50244.0697282,-4191459.31048 -50200.0668161,-4191303.32593 -50112.0685417,-4191165.34171 -49993.5739751,-4191051.35668 -49826.3309162,-4190872.37933 -49640.0904824,-4190715.40078 -49663.3304883,-4190524.4164 -49619.5718424,-4190223.94437 -49668.0575994,-4189980.46363 -49812.0360305,-4189761.47692 -49976.0131289,-4189553.48853 -50109.0005408,-4189532.48496 -50290.7355154,-4189557.97528 -50451.9661608,-4189434.47962 -50493.9558481,-4189273.49222 -50619.9369212,-4189084.50395 -50709.9232721,-4188946.51263 -50886.3987135,-4188731.02483 -50890.390577,-4188538.04204 -50906.8820974,-4188363.55711 -51025.8646387,-4188195.56755 -51162.842119,-4187941.58514 -51130.8365401,-4187726.60596 -51067.8387011,-4187635.61672 -51102.8275839,-4187432.63384 -51060.8257067,-4187285.64889 -50997.5776532,-4187186.66037 -51011.8172484,-4186949.68147 -51095.8047432,-4186823.6898 -51344.7774244,-4186707.19099 -51368.7692483,-4186550.7045 -51313.7702032,-4186442.21659 -51115.7853851,-4186361.23152 -51081.7832835,-4186221.74564 -51141.0235658,-4186107.75393 -51333.7542685,-4186067.75043 -51525.2360805,-4186055.74437 -51585.72567,-4185927.75399 -51521.7270122,-4185804.26785 -51476.7254121,-4185648.28402 -51424.7242997,-4185486.80096 -51487.7081932,-4185206.82475 -51507.4471411,-4184952.84777 -51392.2017888,-4184782.36785 -51270.7132993,-4184786.87178 -51166.7208626,-4184726.88108 -51242.7076995,-4184555.89435 -51438.6841467,-4184408.90118 -51564.6644103,-4184184.91779 -51653.6503404,-4184022.92994 -51669.6434877,-4183869.94382 -51578.8965268,-4183710.46204 -51375.664684,-4183680.97183 -51227.6744578,-4183559.48834 -51144.6773535,-4183415.00477 -51135.4214374,-4183214.02401 -51055.42153,-4182991.54766 -50920.682015,-4182925.0584 -50585.2130844,-4182911.57075 -50444.7221009,-4182785.0872 -50302.2334476,-4182724.09755 -50087.7520523,-4182680.10861 -49840.0236748,-4182635.12077 -49704.2808975,-4182466.14082 -49649.7766799,-4182172.16988 -49369.0471404,-4181991.69541 -49212.8114885,-4181987.20066 -49011.3277938,-4181911.2139 -48897.8329105,-4181735.23363 -48795.8385635,-4181610.74822 -48813.8288707,-4181343.27241 -48787.8217442,-4181021.80296 -48637.074287,-4180629.84372 -48456.830375,-4180258.38334 -48358.8302183,-4179929.41663 -48322.3275721,-4179711.93784 -48232.8326254,-4179593.45132 -48096.0959437,-4179616.45293 -48035.8548703,-4179738.44328 -47868.8711327,-4179768.44509 -47762.3782711,-4179669.95709 -47676.8786682,-4179392.98498 -47508.390525,-4179255.00222 -47547.131186,-4179037.52127 -47560.8774145,-4178942.52968 -47707.8628912,-4178907.52906 -47790.35314,-4178827.53431 -47784.850429,-4178704.54587 -47718.8530304,-4178569.06016 -47638.106256,-4178403.57761 -47525.6123526,-4178233.59627 -47536.3586409,-4178126.60593 -47736.3373601,-4178020.61073 -47819.8241226,-4177804.12882 -47784.8229608,-4177626.64627 -47554.5894049,-4177422.17103 -47471.8433906,-4177269.18732 -47497.8380978,-4177150.69774 -47593.3246189,-4176961.21315 -47567.8231743,-4176800.72877 -47515.3241612,-4176634.74555 -47482.571021,-4176369.27118 -47479.3151124,-4176099.79653 -47399.8190829,-4175946.81269 -47315.3206663,-4175664.84105 -47308.817899,-4175512.85546 -47456.5514472,-4175396.8631 -47539.7884687,-4175162.88333 -47512.7847061,-4174871.41142 -47466.0290622,-4174396.45731 -47478.0161948,-4173826.0111 -47450.0153695,-4173653.02807 -47315.773064,-4173399.05483 -47273.770241,-4173049.08886 -47101.5318275,-4172799.61582 -47149.0189549,-4172350.65756 -47105.7653053,-4171922.19911 -47132.7577336,-4171639.72553 -47109.0060641,-4171413.7475 -47196.7435647,-4171173.26895 -47077.751973,-4170998.28768 -47127.4933324,-4170764.80916 -47315.7244274,-4170711.31117 -47477.9583555,-4170680.81142 -47608.6923699,-4170473.32922 -47497.6996499,-4170263.35123 -47405.2048332,-4170029.87517 -47364.7039719,-4169724.4052 -47320.9535988,-4169422.93489 -47500.932827,-4169193.95429 -47714.6606854,-4169094.46075 -47931.6375269,-4168950.97148 -48029.6245896,-4168716.49286 -47997.8744129,-4168487.51561 -47781.1411504,-4168175.04903 -47602.6546463,-4167890.57908 -47534.907039,-4167571.61093 -47567.6513099,-4167372.62984 -47445.9097179,-4167099.65789 -47366.6638486,-4166806.6873 -47496.3931328,-4166107.75377 -47493.1391679,-4165717.29187 -47461.8892243,-4165434.31979 -47268.6558312,-4165217.84286 -47138.1660793,-4164971.8681 -47296.3981641,-4164711.89188 -47310.1454883,-4164570.40555 -47098.6644957,-4164397.92431 -46878.434991,-4164297.43606 -46685.7008867,-4163977.96874 -46435.2223865,-4163649.00267 -46231.9915309,-4163589.51006 -46103.5023559,-4163392.03012 -46367.4748059,-4163121.05425 -46503.2098702,-4162877.57682 -46513.457266,-4162651.59865 -46653.6930694,-4162566.60592 -46652.1921963,-4162417.6204 -46524.7031767,-4162207.14167 -46437.4607612,-4162070.65547 -46416.2105895,-4161705.69098 -46195.7300125,-4161367.22502 -45980.7493091,-4161089.75298 -46055.7399566,-4160660.29409 -45920.5009654,-4160193.3398 -45772.5145997,-4160034.35574 -45744.0158225,-4159622.89551 -45859.7533442,-4159218.43416 -45950.7439242,-4159001.45486 -45954.2428735,-4158730.48105 -45930.2446787,-4158511.50228 -45733.7631678,-4158280.52499 -45473.5377499,-4158013.55118 -45481.0366444,-4157758.07574 -45259.3076852,-4157548.59614 -45215.8114612,-4157090.64012 -45179.5647957,-4156758.67197 -45264.8066057,-4156397.70659 -45352.2983212,-4156065.7385 -45355.5481766,-4155816.76242 -45278.8056968,-4155648.77848 -45207.8127206,-4155455.29696 -45299.8039956,-4155375.80471 -45503.0343993,-4155427.79997 -45620.7732469,-4155290.31336 -45544.7806741,-4155214.82052 -45318.8026189,-4155072.33387 -45152.8188873,-4154871.85281 -45110.8237713,-4154458.89227 -45095.8262705,-4154041.4322 -44993.3367816,-4153797.45523 -45075.8295709,-4153583.9759 -45194.8192251,-4153283.00512 -45360.8044286,-4152991.03373 -45649.7768441,-4152947.03912 -45887.7539407,-4152940.04076 -46017.9913699,-4152938.54144 -46251.2197526,-4152713.56419 -46342.711848,-4152499.0854 -46343.2130046,-4152246.10993 -46424.7066795,-4151936.14041 -46629.687738,-4151757.1589 -46722.179428,-4151634.17137 -46860.6667228,-4151498.18541 -47041.1502088,-4151314.70439 -47041.4016471,-4151078.72743 -46846.6715747,-4150931.24056 -46750.6819839,-4150768.25579 -46636.9441521,-4150602.27115 -46642.945252,-4150360.79463 -46813.680194,-4150150.31631 -47106.1523541,-4150064.82681 -47264.3883968,-4149870.34701 -46861.6803053,-4149532.87669 -46724.197284,-4149096.4179 -46449.9756591,-4148883.43613 -46308.9927012,-4148499.47191 -45998.5282005,-4147902.02638 -45896.0404705,-4147654.54906 -45584.0718559,-4147496.561 -45519.084539,-4146877.61924 -45343.8531269,-4146699.13428 -44756.4093334,-4146636.1338 -44485.1880443,-4146344.6582 -44011.7347338,-4146129.67299 -44163.4731614,-4145903.69581 -44337.9624503,-4145432.74185 -44538.4533179,-4144669.81564 -44339.476999,-4144281.34924 -44425.476638,-4143723.90228 -44135.007218,-4143466.92203 -43876.7832217,-4143316.93222 -43848.5404143,-4142999.46108 -43891.5394004,-4142799.48014 -43900.2929696,-4142508.00711 -43954.2882884,-4142489.00968 -44654.2243092,-4142442.02477 -44835.4624198,-4142127.55682 -44836.7181439,-4141765.0905 -44952.4617965,-4141498.61713 -45194.694476,-4141191.64973 -45289.4442728,-4140696.69737 -45012.2263771,-4140336.22583 -44761.5075416,-4139892.76217 -44833.5044013,-4139704.28084 -44974.7483651,-4139334.81747 -44938.7569413,-4139060.34201 -45073.2475064,-4138910.3584 -45201.2443654,-4138475.90086 -45162.2559962,-4138079.43644 -45149.7598488,-4137947.94822 -45022.0299691,-4137542.98257 -44977.3008785,-4136759.05296 -44724.5756975,-4136671.55536 -44239.6264965,-4136348.07388 -43997.158249,-4135895.10906 -43613.4507469,-4135523.13354 -43500.9704434,-4135095.16887 -43606.7218549,-4134632.71215 -43792.7088789,-4134487.22939 -44095.445639,-4133928.28608 -44503.9102573,-4133896.29899 -44514.6555822,-4134046.78589 -44622.1460239,-4134046.78854 -44656.3978795,-4133849.30696 -44462.170065,-4133651.31968 -44424.9356153,-4133166.86158 -44293.7023326,-4132965.87594 -44546.9371335,-4132691.90663 -44622.1909954,-4132294.44362 -44826.4322714,-4131950.47937 -45098.664928,-4131708.00817 -45148.915996,-4131509.52705 -45365.6533237,-4131280.05335 -45269.1646457,-4131180.05944 -45056.1870136,-4131050.56479 -45031.449795,-4130677.59675 -44838.9791902,-4130240.12934 -44474.7616848,-4130208.62154 -44439.5230992,-4129919.64549 -44794.2465582,-4129779.16803 -44857.7487007,-4129521.69219 -45095.2275043,-4129542.69747 -45256.4583483,-4129714.68735 -45525.4345795,-4129725.19449 -45777.1559827,-4129943.68291 -46226.8853531,-4129324.25101 -46098.1466412,-4129324.74699 -46092.6517351,-4129175.75989 -45885.1747862,-4129017.76726 -45927.4340227,-4128605.30454 -46706.6165917,-4128582.33137 -46842.1164909,-4128217.86779 -46976.6116522,-4128005.39087 -46868.3889206,-4127470.43412 -46646.4134271,-4127316.4401 -46973.6421149,-4127103.96965 -47495.1133007,-4126619.52994 -47472.1299316,-4126204.06539 -47282.4051865,-4125957.08012 -46999.933932,-4125835.58059 -46858.4657674,-4125285.62282 -46944.4633506,-4125148.63766 -47277.6774038,-4125350.13243 -47798.8845109,-4125290.15665 -48017.3823105,-4124838.70392 -47789.6610186,-4124598.21617 -47419.9610846,-4124111.74399 -47617.4540718,-4123852.77363 -47815.2041666,-4123413.3188 -47867.9872914,-4122462.40167 -47668.0202186,-4122063.42726 -47618.0422976,-4121623.4621 -48136.0077664,-4121408.50148 -48331.2554647,-4121072.03791 -49169.6754743,-4121287.05529 -49305.6770475,-4120980.5872 -49059.4652284,-4120580.11047 -48542.279844,-4120091.129 -48893.2862224,-4119285.71149 -48754.5669554,-4118857.74066 -48873.3715766,-4117461.36046 -49145.3659377,-4117113.40161 -49493.859071,-4116667.45461 -49753.363333,-4116150.50927 -49817.1233863,-4115844.03724 -49492.4170495,-4115492.54931 -49028.7154868,-4115262.04456 -48517.276215,-4114851.05149 -47966.3526478,-4114175.07646 -47939.8784846,-4113701.11146 -47955.4064335,-4113128.15584 -48202.6526324,-4112838.19054 -48398.4085971,-4112439.73089 -48557.422135,-4111956.77571 -48869.1694747,-4111569.32157 -49041.1693856,-4111332.84867 -48955.1922694,-4111031.86652 -49094.9330051,-4111010.37579 -49219.9463046,-4110600.91327 -49051.9599381,-4110580.40547 -49097.2240802,-4110265.9313 -49718.6825759,-4110182.97243 -49703.193691,-4110007.48463 -49901.4342587,-4109914.0029 -50008.9200844,-4110021.50102 -49886.1675026,-4110227.97857 -49988.148105,-4110434.96881 -50186.8834115,-4110429.98047 -50385.1313337,-4110204.50882 -50331.400854,-4109935.52598 -50417.4024609,-4109796.04143 -50683.6455149,-4109572.07375 -50701.9085227,-4109327.09319 -50569.4221581,-4109263.59015 -50447.1731331,-4109402.57261 -50260.9400101,-4109351.06557 -50245.4541015,-4109129.5811 -50367.7049768,-4108960.60079 -50588.963024,-4108549.14433 -50590.5042035,-4107862.19484 -50621.7834311,-4107344.73437 -50460.5516545,-4107237.23227 -50138.5869401,-4107037.72692 -50027.860342,-4106783.73824 -49826.3836807,-4106635.23643 -49763.6552424,-4106355.25229 -49981.6859086,-4105614.8175 -50374.9405517,-4105108.87743 -50342.4709514,-4104668.40577 -50456.2291796,-4104419.43018 -50682.5050783,-4103784.98825 -50837.3009402,-4102936.05588 -51062.8030739,-4102679.58825 -51289.070672,-4102198.6358 -51202.6061545,-4101765.65858 -51412.6222452,-4101334.20155 -51369.6611182,-4100819.23216 -51623.9340308,-4100263.78611 -52260.1831361,-4099707.86789 -52664.683537,-4099347.42087 -53148.4311794,-4098960.48194 -53890.1633587,-4098562.56408 -54423.4220165,-4098004.14169 -54357.6935889,-4097783.15084 -54180.7054135,-4097777.63733 -54218.7160608,-4097610.65102 -55052.1652744,-4097572.21946 -55076.4394968,-4097249.74233 -54671.75274,-4096784.73965 -54414.3173223,-4096183.25674 -54575.8233443,-4095984.78216 -54962.5925664,-4095456.84655 -55316.8761431,-4094790.91706 -55660.3975022,-4094289.47678 -55888.6427706,-4094181.50287 -56297.62328,-4094116.04205 -56603.8942749,-4093657.59686 -56857.6232158,-4093719.61527 -57375.0797622,-4093847.15289 -57659.8366252,-4093568.69564 -58066.0671897,-4093500.23633 -58758.2824483,-4093397.80552 -58969.7924789,-4093140.34134 -59200.043928,-4092964.87378 -59524.5576346,-4092594.42764 -59695.8359052,-4092177.47027 -59639.1543843,-4091493.00793 -59393.6913978,-4091263.99873 -59092.5037994,-4090801.99818 -58782.2806751,-4090715.47384 -58599.5681112,-4090435.97308 -58610.3678212,-4089909.00502 -58420.663063,-4089552.00744 -58537.677659,-4089331.03137 -58427.2142214,-4089018.03847 -58566.2688012,-4088378.0879 -58917.0612208,-4087752.1572 -59823.8062103,-4087303.27329 -60110.8198339,-4087013.81871 -60576.8306467,-4086658.38661 -61385.8846235,-4085720.52384 -61631.363364,-4085792.04612 -62101.5977966,-4085692.10229 -62043.3765855,-4085456.10921 -62046.9069371,-4085174.62522 -62250.8993975,-4085140.14935 -62963.3270187,-4085434.71081 -63274.8316127,-4085231.7568 -63381.6326316,-4084718.79786 -63229.9373168,-4084306.30398 -63285.5108036,-4083627.34757 -63418.0677461,-4083064.39307 -63730.8725467,-4082443.96216 -37734.7849992,-4082580.06064 -35513.8285743,-4082591.9128 -34952.5889782,-4082593.87688 -34835.5911082,-4082594.36947 -34623.3449373,-4082595.35608 -29529.1731716,-4082675.05848 -26838.2097009,-4082668.42112 -22316.0085509,-4082705.21934 -17908.5459935,-4082741.0585 -11258.5875465,-4082824.88248 -5508.86421239,-4082979.79461" style="stroke-linejoin:round;stroke:#000;stroke-width:1px;fill:none" /></g></g></svg>