<svg xmlns="http://www.w3.org/2000/svg" baseProfile="full" height="174292.935942" version="1.1" viewBox="-17170.171395,3880323.588426,106091.705015,174292.935942" width="106091.705015"><defs><style type="text/css">polyline,line,rect,path,polygon,.polygon{fill:none;stroke:#000;stroke-width:1px;stroke-linejoin:round;}</style></defs><g fill_rule="evenodd" transform="scale(1,-1)"><g class="hogares departamen mujeres departam_1 toponimo_i tot_pob varones viv_part viv_part_h" id="74056"><polygon class="_74056" id="None" points="-17115.2728512,-3881758.2993 -429.614037293,-3881086.68929 -373.344353257,-3881084.22602 120.816014752,-3881063.93967 134.068698375,-3881063.56608 155.574852777,-3881062.77122 164.078284013,-3881062.35234 270.364038713,-3881057.86625 769.024489568,-3881037.62342 18107.4058645,-3880339.82388 21748.5531783,-3880524.18872 22192.5808929,-3880546.44246 24211.0677503,-3880648.28497 36815.0936146,-3881287.27297 36844.5813295,-3881288.55645 40113.7817814,-3881502.9965 43815.0188255,-3881819.12122 44210.4473414,-3881852.92911 44907.9436118,-3881828.14574 44933.9366811,-3881828.89609 59424.7755914,-3882185.18211 66248.0644791,-3882227.15347 66269.5631346,-3882227.36149 73731.3695101,-3882273.11809 76178.8103769,-3882288.34331 76245.0565813,-3882288.98568 81930.2365953,-3882344.1471 82489.9054693,-3883642.1297 82262.4128584,-3884515.95172 81554.0500467,-3885297.60043 80454.8664402,-3885724.9439 79662.4154421,-3886155.26592 80195.5868249,-3893221.60743 80651.6599438,-3899265.10655 81244.6008021,-3907121.36855 81247.2459444,-3907157.89404 81995.1654067,-3917070.53748 83133.2498552,-3932153.69133 83236.8899357,-3933527.15095 85004.6385096,-3956956.83943 85006.4241841,-3956978.85575 85017.2519852,-3957124.95408 85071.7187166,-3957847.44921 88058.0432211,-3991085.93546 87848.1603506,-3995440.21358 87018.3446098,-4012652.07397 86960.685096,-4013849.48426 86857.86845,-4019709.36933 86139.1800079,-4054604.27589 80391.2374777,-4054393.22381 73742.4146107,-4054244.30265 69335.5146158,-4054165.22107 64813.8932091,-4054083.97489 62122.9948018,-4054064.12346 57029.8574353,-4053934.20211 56817.6314243,-4053931.12082 56700.6441629,-4053929.47348 56139.4515352,-4053921.9693 53918.7215437,-4053888.18164 27925.2952731,-4053493.87995 27989.1044581,-4053310.51076 28028.9735621,-4053070.40573 27809.4038809,-4052444.24381 27837.0255686,-4052178.51863 27688.5708434,-4052098.05457 27489.4836341,-4052183.08933 27361.1995706,-4052085.32441 27462.2194476,-4051677.82533 27411.6568768,-4051354.82997 27222.4516911,-4051122.46589 27092.9178433,-4050948.68999 26987.4307426,-4050770.15151 27050.8902253,-4050520.78094 27319.3864813,-4050419.43117 27301.6737165,-4050162.25994 27167.3672387,-4049965.43784 26898.4809761,-4049878.28657 26615.5323773,-4049797.49641 26500.0515251,-4049618.35999 26471.9699082,-4049322.58788 26639.4156865,-4049175.74221 26807.8369427,-4049107.40475 27050.2630321,-4049063.79674 27229.695911,-4048943.56854 27301.770208,-4048707.78335 27249.8990099,-4048365.27771 26964.164726,-4048237.46202 26394.266568,-4048126.84322 26077.9800737,-4047877.72849 25568.0579525,-4047744.20137 25352.6437664,-4047558.58047 25040.8443753,-4047209.51267 24754.4877162,-4046790.19801 24606.4280947,-4046289.75025 24919.4269235,-4045908.8475 24926.1426986,-4045557.42312 24948.1525586,-4044998.65558 24811.905785,-4044466.32733 24255.2851363,-4044378.84099 24196.0930118,-4043840.77396 23895.6303236,-4043863.31031 23611.490434,-4043523.51933 23110.15597,-4042976.09405 22880.3067387,-4043012.32605 22529.4885195,-4042792.37408 22521.1804273,-4042544.8012 22251.5169472,-4042435.64581 22408.6534437,-4042167.70555 22356.7266353,-4041780.20826 22198.6781638,-4041456.1624 21910.1637015,-4041281.32436 21582.0470338,-4040762.11014 21783.1734706,-4040545.60236 21854.6078255,-4040044.8278 21631.4106024,-4039558.64838 21636.2166753,-4039324.70607 21871.6261423,-4039206.03195 22475.2219668,-4038939.9931 22554.7443249,-4038379.3015 22364.0061941,-4037998.43894 22247.3090005,-4037765.29962 22307.5017937,-4037161.92083 22344.7760526,-4036956.29779 22479.510164,-4036576.6433 22069.2418914,-4036047.62707 22053.0440347,-4035509.49433 21738.1911043,-4035242.4063 21695.4011433,-4034866.00424 21825.8495219,-4034388.31414 22208.2508872,-4033660.11874 22265.1445973,-4032959.7166 22200.0356857,-4032031.6267 22320.8505538,-4031287.85796 22602.2215631,-4030969.14558 22735.168075,-4030541.97845 22735.8805976,-4030088.51166 22447.8367589,-4029688.20065 22484.6133811,-4029329.58388 22588.1981266,-4028964.62496 22313.4423531,-4027950.48385 22131.64275,-4027804.2045 21735.1708186,-4027829.30243 21266.3771918,-4027430.21583 21131.7856421,-4027008.41921 20903.4345732,-4026740.69042 20380.3569857,-4026777.54184 20009.148979,-4026470.91048 19588.4990136,-4026438.274 19267.1686537,-4026194.62934 18855.5688741,-4025394.63655 18915.2550839,-4025095.74533 19777.6623767,-4025149.72513 20033.4213089,-4025375.72503 20242.3553893,-4025431.77631 20570.2581528,-4025236.01515 20862.6123436,-4024892.91423 20915.0925956,-4024436.96203 20777.652406,-4024177.62868 20603.3872919,-4023315.97649 20691.4861515,-4023101.8581 21186.261014,-4023095.72285 21632.7707328,-4022862.62881 21738.2403803,-4021771.24348 21420.1501849,-4021426.64237 21101.7275635,-4021268.52458 20761.4282237,-4021454.16624 20191.7205209,-4021505.06268 19999.3755482,-4021719.65579 19647.3300199,-4021650.70024 19415.843567,-4021345.94789 19328.3103473,-4020739.63429 19191.6144466,-4020506.30887 19200.4513756,-4020090.42841 19160.4545832,-4019836.05543 18810.5437467,-4019066.67826 18410.5030476,-4019023.25044 18018.6844418,-4018651.93039 17953.1424324,-4018427.80491 17789.151956,-4018224.71034 17543.0169181,-4018138.79879 17310.9548918,-4017969.03267 17334.9212275,-4017743.28741 17724.4743706,-4017454.6398 17747.6207102,-4017286.88149 17856.6472003,-4017181.46167 18248.1455239,-4017152.81045 18332.7771045,-4016909.66243 18469.3152821,-4016955.49989 18423.327735,-4016471.08912 18186.2456107,-4016074.29419 18208.5406593,-4015789.53768 18313.1876001,-4015239.11303 18122.4229315,-4014656.79039 18070.5371652,-4014212.81997 18056.2366985,-4013810.71517 18263.6729462,-4013509.77856 18605.120054,-4013079.16886 18979.2530324,-4012985.84974 19539.7420641,-4013083.84283 19957.3352604,-4013274.42523 20364.783766,-4012970.45042 20676.1565794,-4012649.53371 20552.6187586,-4012246.85598 20490.2412936,-4011827.28019 20424.617834,-4011585.65731 20383.6019151,-4011434.76804 20190.341331,-4011004.40968 19865.0960785,-4010446.26832 19851.3291622,-4010422.63538 19848.9852713,-4009693.17796 19326.1837113,-4009091.60459 18702.8225184,-4008701.02639 18442.6572249,-4008439.99901 18325.5721067,-4008322.36168 18365.0996594,-4008089.77136 18537.1064507,-4007959.97064 18876.2083711,-4008048.28805 19344.5120993,-4007885.39591 19634.4820977,-4007656.26072 19632.6101812,-4007235.28153 19750.3280562,-4006905.96646 19799.945584,-4006358.0042 19765.3187088,-4005784.71874 19865.3770441,-4005420.73394 20123.2099721,-4005333.26934 20741.1857939,-4005329.82642 21226.1617132,-4005098.10082 21597.0568902,-4004977.74652 22213.7947392,-4005075.28102 22551.7246082,-4005538.55053 22983.5579171,-4005832.25595 23376.3675596,-4005797.10824 23561.3268467,-4005518.94511 23543.0396598,-4005318.78361 23307.0083613,-4005119.98864 23130.0334962,-4004736.28899 23219.0729476,-4004374.19382 23550.3923979,-4004210.95417 24104.8206481,-4004366.37149 24628.7916387,-4004237.0154 24908.0746954,-4004333.24258 25394.9167177,-4004294.01446 25653.2762534,-4003821.08565 25234.8667776,-4003764.49283 25258.257386,-4003571.23875 25652.6648069,-4003500.60738 25873.1475326,-4003372.77757 25953.4818509,-4003057.09152 25772.1885642,-4002833.33575 24984.5143038,-4002807.1251 24955.3023662,-4002675.85066 25161.6194161,-4002462.88975 25229.7880635,-4002087.59043 25424.9366707,-4001968.51163 25360.5837729,-4001826.39416 25132.2901673,-4001654.17438 25267.4293538,-4001485.51245 25468.8040507,-4001496.48291 25669.1619883,-4001355.9568 25681.7584643,-4001090.60363 25949.8321408,-4000825.25123 25869.1012835,-4000491.99061 25299.6059211,-4000317.93201 24841.8773356,-4000013.47934 24908.3827761,-3999629.1653 25235.2071533,-3999260.89742 25511.5758718,-3998684.15441 25959.1525736,-3998365.56276 25878.041282,-3997943.30751 26060.818357,-3997376.64728 25734.5383315,-3997024.98766 25789.0936752,-3996891.03365 26248.5852767,-3996862.03099 26390.6218212,-3996626.94175 26594.726133,-3996639.93693 26595.3953076,-3996341.47064 26628.222831,-3996154.30876 26555.2565086,-3995972.61174 26280.4729611,-3995901.93083 26122.4177398,-3996036.87259 25321.2502098,-3996036.03669 25193.6624994,-3995867.30455 24919.1343564,-3995387.16472 24650.1818049,-3995231.54907 24566.5056357,-3994994.75327 24644.8352532,-3994858.03235 25002.9729581,-3994866.03397 25297.405468,-3994614.43703 25580.9195673,-3994405.72903 25728.2876776,-3994008.70735 25747.3836968,-3993538.43841 25336.1097645,-3993212.44855 25442.9613241,-3993022.0113 25488.4189013,-3992540.00168 25744.2620845,-3992374.51832 25928.7605827,-3992193.83889 26082.8032688,-3991829.8791 26128.6334252,-3991539.85459 26282.4656193,-3991197.39055 26390.7853232,-3991112.45716 26574.8633579,-3990974.76905 26584.1243856,-3990768.87908 26437.8703892,-3990693.95707 26395.5086699,-3990629.04931 26493.2903438,-3990522.51492 26451.7686784,-3990371.62358 26334.3813151,-3990284.48491 26411.6144909,-3990080.75901 26552.3878335,-3989974.64456 26734.9147188,-3989637.46001 26772.3594752,-3989386.84973 26649.0804914,-3988879.19399 26685.6165286,-3988849.55374 26594.9594409,-3988636.18865 26447.0321106,-3988374.26893 26241.5905357,-3987960.8023 26139.4414029,-3987644.33538 26216.4031302,-3987417.10916 26476.307014,-3987117.17657 26526.457352,-3986947.68279 26421.6206243,-3986599.19295 26278.2654631,-3986099.342 26319.9251485,-3986005.75793 26506.1886912,-3985900.08693 26551.8011412,-3985632.05846 26629.0992413,-3985498.32621 26860.3031135,-3985347.09817 26888.4381615,-3985307.37672 26975.3769689,-3985184.73739 27114.9178944,-3985281.59024 27332.1971911,-3985225.21687 27498.2916506,-3985085.85177 27696.4531655,-3984939.30031 27744.6724047,-3984557.80773 27539.6588441,-3984356.32606 27347.3718576,-3984233.96106 27409.6841074,-3983919.5998 27575.6017034,-3983670.24335 27551.687438,-3983405.53566 27395.5529966,-3983344.01789 27392.775848,-3983167.50799 27210.583045,-3983112.23537 27204.675897,-3982974.69119 27102.6760868,-3982975.6957 27105.1065854,-3982649.7514 26968.9208953,-3982516.43558 26986.737192,-3982227.63788 27246.9893146,-3982096.69017 27677.2769909,-3981960.40188 27784.8659744,-3981796.46759 27832.8213078,-3981672.44755 27906.6849809,-3981480.68686 27983.2662999,-3981240.95732 28159.913715,-3981044.69968 28281.4082017,-3980813.40733 28444.1176196,-3981020.97446 28566.4147869,-3980963.67302 28639.9333458,-3980832.9028 28721.0733631,-3980612.71552 28753.0169108,-3980490.03894 28863.4053942,-3980064.65666 29016.6620694,-3979908.66645 29285.950617,-3979850.79841 29479.3933522,-3979649.70427 29432.6916771,-3979465.7664 29546.0977715,-3979397.37891 29826.2895442,-3979400.61109 30147.4585216,-3979303.25238 30266.1193928,-3979157.42333 30404.9840924,-3978862.30533 30540.5101668,-3978550.65623 30772.2393532,-3978345.43502 30997.6849193,-3978220.64485 31162.1545707,-3978145.25547 30811.3304953,-3977643.38219 30707.3058556,-3977287.90157 30422.2354554,-3976990.15075 30322.4295784,-3976535.22109 30404.2024248,-3976096.05995 30494.8885538,-3975716.97991 30811.7373187,-3975421.59598 30849.9241516,-3975222.48699 30732.3033955,-3974876.87352 30423.6924104,-3974660.38675 30059.7349148,-3974454.35986 29805.2209787,-3974227.40163 29678.9958123,-3973995.19413 29729.5272375,-3973786.20671 29935.5690351,-3973754.21736 29946.6305723,-3973593.8406 29949.2746269,-3973553.37026 30012.9104442,-3973410.50404 29983.0770182,-3973316.72241 29919.5064948,-3973247.60973 29643.0675046,-3973295.41183 29374.7370944,-3973537.274 29142.0125368,-3973460.01405 29042.553404,-3973097.58048 28864.8964102,-3972858.87307 28596.0506654,-3972845.7552 28263.8066023,-3972848.5181 28155.1915313,-3972630.4816 27903.1691431,-3972584.03102 27704.3277449,-3972852.06709 27439.0824857,-3972802.98788 27506.2629244,-3972296.19327 27252.2022439,-3972176.73036 26891.5228565,-3972404.19375 26828.9195834,-3972749.04887 26580.435923,-3972775.62533 26359.6143678,-3972579.99398 26098.2797036,-3972437.46263 25658.0809203,-3972642.15302 25498.1762505,-3972326.12792 25523.2655472,-3972034.40259 25460.3462357,-3971872.80644 25213.2525273,-3971859.40085 24967.6196404,-3971696.02519 24991.1473285,-3971513.27349 25184.8846421,-3971461.16606 25412.4739123,-3971269.90279 25370.840794,-3971130.01183 25274.3193902,-3971107.57405 25135.0159137,-3971063.22188 25124.3751624,-3971052.1194 24926.5195817,-3970705.72863 24842.7408228,-3970683.91497 24556.8617318,-3970905.60732 24395.4525168,-3970898.03604 24389.7876925,-3970684.0035 24570.3141208,-3970371.2947 24515.3681066,-3970058.29265 24346.9452258,-3969898.16945 23937.2109103,-3969849.68461 23392.3709238,-3970301.33038 23120.8804078,-3970277.68893 23048.441689,-3970092.50348 22831.2949782,-3969801.92033 22746.5322016,-3969573.11977 22593.0465364,-3969393.64473 22492.9022075,-3969204.19027 22260.063099,-3969138.93026 21914.1053719,-3968933.08436 21548.9338123,-3968980.52357 21426.768366,-3968844.84915 21241.9993795,-3968797.55541 21257.6427508,-3968577.23225 21335.7497066,-3968231.53115 21658.5403891,-3968223.67451 21553.8847691,-3967932.68791 21417.4658647,-3967848.8692 21136.7250521,-3967851.13601 20998.9112681,-3967653.81649 21009.9109647,-3967473.94368 21096.7179477,-3967287.30951 20984.5622998,-3967047.74462 20904.2315791,-3967056.9617 20606.3169691,-3967180.04813 20388.0878474,-3967385.90073 20104.5658758,-3967417.1374 19903.3627378,-3967209.20254 19621.5040744,-3966581.53078 19286.6239939,-3966521.77841 19083.1664269,-3966314.32219 18988.9418773,-3966055.93503 18955.7451953,-3965819.63927 19012.6975783,-3965669.71079 18995.2628465,-3965509.05968 18711.2500406,-3965256.82532 18646.987631,-3964976.23261 18502.9248067,-3964650.36884 18173.750176,-3964338.20279 17925.789997,-3964234.30272 17601.4036417,-3964303.63883 17495.4583234,-3964530.58134 17388.1747351,-3964432.54921 17183.9302756,-3964254.58333 17018.2203209,-3963995.5021 16738.2665325,-3963942.78508 16459.5456565,-3963609.11385 15984.1770878,-3963601.49086 15794.4832089,-3963418.16795 15473.642104,-3963431.54563 15338.4730582,-3963090.77252 14995.6309536,-3963027.44583 14919.8852688,-3962873.72804 14714.2071861,-3962843.23148 14547.5429433,-3962785.11778 14375.6319297,-3962752.44994 14227.8246973,-3962734.51471 13933.8346253,-3962480.18734 13493.8466235,-3962458.91127 13254.6905883,-3962118.12856 13128.6955376,-3961836.43898 12999.5372707,-3961828.68411 12824.5620989,-3961956.96648 12550.673507,-3961794.82398 12464.9479872,-3961562.02016 12271.9367645,-3961617.13651 12156.1284682,-3961547.51945 12199.2949245,-3961246.97764 11897.3734299,-3961320.03293 11664.1266751,-3961142.78815 11559.6703254,-3960856.80963 11576.4809669,-3960516.01711 11446.1213544,-3960323.2749 11477.5670764,-3959942.62981 11174.9507312,-3959907.19316 11059.0602967,-3959794.58145 11147.6327829,-3959502.9802 11097.4156981,-3959525.98917 10936.4721512,-3959419.43893 10940.8121048,-3959281.49909 11063.1987765,-3959085.71391 11027.7889596,-3958793.90778 10988.698131,-3958443.57352 10897.7978173,-3958177.225 10717.5388805,-3957897.51017 10718.6492885,-3957603.05939 10816.5848963,-3957299.55033 10922.5012963,-3957075.10837 10921.3106827,-3956811.63104 10798.8191789,-3956657.96128 10766.6641859,-3956494.17029 10898.6132361,-3956265.98146 10936.2457028,-3956200.35546 10933.6978113,-3956153.83675 10925.0373813,-3955990.27386 10892.8868298,-3955980.46291 10896.0366301,-3955964.9955 10899.18643,-3955949.5281 10765.9131577,-3955696.26677 10640.7496123,-3955380.0925 10625.4325389,-3955000.9931 10629.5791404,-3954548.09223 10711.3227348,-3954418.9026 10853.2057959,-3954300.29537 10807.44615,-3954095.87761 10694.7403693,-3953938.30395 10506.903619,-3953872.48915 10156.824431,-3953859.59264 10035.9824785,-3953793.42831 10033.189433,-3953797.90061 9754.18868802,-3953647.21227 9483.89380904,-3953269.13861 9086.17639345,-3952936.32276 8533.23881118,-3952499.51515 8172.6021324,-3952080.57198 7779.09393706,-3951932.274 7609.96788798,-3951664.1694 7486.46668421,-3951614.47799 7252.77698553,-3951534.22181 7066.41470083,-3951548.41197 6881.8362999,-3951327.15162 6679.48052321,-3951366.68325 6415.77216865,-3951366.12522 6251.70149604,-3951169.56079 6193.04326001,-3950980.51791 6050.850439,-3950744.67133 5759.20683227,-3950505.87584 5531.61865802,-3950466.67408 5330.58130507,-3950318.74505 5244.7518235,-3950121.9402 5151.84494005,-3950010.55484 5033.3353011,-3949935.9161 4886.90838916,-3949930.49699 4686.19579348,-3949929.55086 4598.61802675,-3949835.71488 4430.40604823,-3949550.62412 4274.32141741,-3949381.13476 4071.99484528,-3949185.70088 3877.98816121,-3948931.35622 3606.57948062,-3948513.28482 3514.85173869,-3948125.45107 3481.70475295,-3947754.18278 3377.86592156,-3947532.70806 3150.33036409,-3947178.55374 3044.54985377,-3946951.06132 2915.38727434,-3946763.33674 2752.92475661,-3946710.27027 2566.07464541,-3946645.96919 2465.37246214,-3946513.51265 2408.56014681,-3946159.51334 2354.71353369,-3945731.55345 2283.52272086,-3945468.40184 2385.85902505,-3945328.91313 2373.17116282,-3945167.81342 2190.93238855,-3945143.55191 2154.98414444,-3944932.23424 1997.10844875,-3944999.19561 1842.24968974,-3945090.18267 1644.05320935,-3945139.25606 1486.90773778,-3945001.75419 1298.04716333,-3944886.94199 1136.35508856,-3944599.41826 984.667789643,-3944491.9652 682.480268881,-3944206.08124 636.916194563,-3943955.17702 278.493510343,-3943720.24171 148.394774428,-3943422.52632 253.219740371,-3943129.08437 81.8756849567,-3942908.95842 -382.650601588,-3942892.96476 -525.232200197,-3942748.60632 -390.671546481,-3942481.94829 -214.246642617,-3942383.67025 -62.6984060881,-3942014.69139 90.6058101258,-3941696.72169 -26.7263701654,-3941448.62293 -159.769545626,-3941170.87664 -404.438519096,-3941037.02934 -420.62582639,-3940849.90041 -348.322375809,-3940533.1466 -393.511618028,-3940243.25222 -528.919116049,-3940028.97413 -559.681304414,-3939772.21448 -541.724722416,-3939517.92561 -368.717867867,-3939333.62577 -223.837539113,-3939214.54426 -43.7825999281,-3939180.29043 80.1166348851,-3939162.9911 125.395208092,-3939055.94452 61.0901308975,-3938933.34053 -129.990572271,-3938867.00252 -352.436657397,-3938761.36705 -489.320503637,-3938544.57529 -577.878586314,-3938215.76727 -607.668903478,-3938013.50889 -625.800403348,-3937846.35808 -789.869262183,-3937700.79342 -853.619146067,-3937520.70361 -904.067889069,-3937309.247 -1088.58618672,-3937210.47809 -1279.96408882,-3937226.62606 -1456.8201668,-3937317.90327 -1604.09009113,-3937270.48694 -1674.20940603,-3937102.83412 -1588.83973256,-3936882.19182 -1644.49410366,-3936666.18594 -1710.6786323,-3936531.06637 -1763.85423946,-3936446.56505 -1968.11294221,-3936347.10613 -2170.50836565,-3936391.14396 -2257.43428325,-3936281.32043 -2377.98248452,-3936184.67013 -2474.52223675,-3935983.26749 -2684.87684647,-3936023.22925 -2730.51124555,-3936374.23568 -2895.48186508,-3936399.63794 -3045.47923209,-3936298.20401 -3330.6463732,-3936216.46129 -3540.78007104,-3936052.45611 -3578.91734888,-3935886.11296 -3475.29819768,-3935768.63175 -3369.15550677,-3935648.67522 -3370.47951327,-3935475.18866 -3521.2253525,-3935451.23619 -3685.987025,-3935429.1481 -3817.15330544,-3935344.894 -3793.26372437,-3935200.64666 -3710.95448283,-3935141.45061 -3601.98758325,-3935065.51453 -3606.9037816,-3934927.48793 -3768.79551653,-3934892.92966 -3867.22646512,-3934732.00348 -4093.99535041,-3934426.85999 -4140.98031323,-3934089.45758 -4322.71150461,-3933753.75399 -4621.36792006,-3933463.91491 -4724.6129994,-3933231.95366 -4724.85755978,-3932946.49483 -4783.3714895,-3932793.45337 -4892.52351607,-3932681.41697 -5066.46626781,-3932678.23867 -4992.73107227,-3932859.92253 -4902.22206167,-3933064.7648 -4964.80576659,-3933281.62752 -5228.535066,-3933309.57751 -5356.89830308,-3933193.85631 -5439.20659069,-3932968.09667 -5474.13503464,-3932676.30451 -5540.27222097,-3932380.71176 -5632.47669805,-3932273.83844 -5893.88338017,-3932423.79274 -6078.21760527,-3932280.03624 -6123.62243302,-3932063.63168 -6154.11790666,-3931856.36957 -6444.51923723,-3931617.60485 -6394.89345081,-3931344.626 -6289.71714196,-3931169.1678 -6367.2233099,-3930885.96397 -6297.7567948,-3930784.64968 -6189.08264295,-3930816.69298 -6085.9847681,-3931038.15333 -5939.19136053,-3931109.05847 -5772.3258613,-3931016.68236 -5807.59073066,-3930837.36967 -5878.48600378,-3930646.21512 -6010.4760969,-3930595.44979 -6136.62934502,-3930483.75018 -6203.72968757,-3930365.62117 -6228.86721458,-3930172.90837 -6098.29390999,-3930007.69299 -6106.70156686,-3929868.63321 -6188.85833122,-3929834.34619 -6271.10047235,-3929757.06496 -6480.3058062,-3929652.06375 -6535.7640193,-3929493.05347 -6663.07506537,-3929345.8486 -6784.60222621,-3929324.68013 -6899.74437114,-3929419.05538 -7038.72438881,-3929419.21536 -7087.45010618,-3929313.76192 -7056.7196538,-3929211.57404 -7074.21219175,-3929081.42555 -7158.08957232,-3929044.1227 -7318.7148095,-3929111.5637 -7479.51158759,-3929119.01237 -7576.85723163,-3929104.57617 -7726.25613891,-3929044.6453 -7848.29018021,-3928920.48834 -7852.67166267,-3928830.4602 -7833.94211888,-3928676.6648 -7900.61056655,-3928565.53957 -8017.76813553,-3928531.9156 -8190.41518414,-3928653.73239 -8303.84684276,-3928804.11537 -8480.0418877,-3928749.42569 -8587.90767759,-3928685.39614 -8715.3386217,-3928524.69339 -8743.16780091,-3928273.96489 -8909.25680547,-3928078.39528 -8971.92291515,-3927785.33786 -8947.06593032,-3927644.09973 -8821.30701448,-3927537.32834 -8645.14447665,-3927543.52476 -8525.55298337,-3927480.18704 -8570.84613899,-3927303.77832 -8704.67597734,-3927184.50764 -8790.57080668,-3927071.19791 -8810.43270559,-3926875.53732 -8849.73814916,-3926752.17806 -8986.24253977,-3926754.86266 -9145.13532524,-3926746.33337 -9157.63974969,-3926617.23329 -9098.24408181,-3926497.32433 -9074.6276073,-3926355.0742 -9171.05897443,-3926271.65851 -9208.93202642,-3926129.31614 -9117.10607849,-3925938.23058 -8903.71561618,-3925842.30078 -8825.61733544,-3925675.07905 -8812.5596615,-3925435.24219 -8864.057982,-3925176.2866 -8949.79891233,-3924994.98921 -8988.10407426,-3924767.65577 -9085.25150371,-3924628.74205 -9187.82284536,-3924689.74501 -9331.87280578,-3924619.36914 -9278.73520447,-3924448.4074 -9409.56130623,-3924250.67882 -9594.35096,-3924153.91511 -9791.44113809,-3924140.52004 -9789.55529833,-3923944.56893 -9662.23970154,-3923805.81608 -9632.89972398,-3923666.12029 -9772.32613921,-3923608.78732 -9968.27730723,-3923606.90171 -10036.3743201,-3923410.27719 -10034.0848854,-3923172.33651 -10154.9918935,-3923112.68237 -10410.7891089,-3923199.70721 -10537.6897062,-3923139.49559 -10745.4826441,-3922913.53189 -10799.448949,-3922703.04594 -10839.1496267,-3922464.70164 -10795.275345,-3922269.15456 -10682.8994547,-3922228.24205 -10699.1977665,-3922051.61303 -10879.8880759,-3921996.38359 -10994.9552064,-3921875.29585 -11148.3348696,-3921735.34265 -11226.7141271,-3921594.11111 -11353.5812723,-3921348.42979 -11535.7663693,-3921318.68245 -11711.9625421,-3921238.00085 -11791.3129683,-3921041.76898 -12112.2900448,-3920940.69874 -12251.7360568,-3920755.38758 -12461.2990427,-3920583.4003 -12589.8151754,-3920431.18919 -12558.982147,-3920292.00787 -12383.2192044,-3920183.71476 -12228.4076546,-3920070.72091 -12237.7189605,-3919817.17166 -12306.8897899,-3919680.02856 -12376.6759878,-3919528.8818 -12325.762074,-3919328.90282 -12354.895628,-3919109.15761 -12299.4586351,-3918958.71412 -12256.437498,-3918721.6649 -12364.7095194,-3918595.64437 -12479.7111399,-3918415.56776 -12718.8314435,-3918171.80885 -13062.0215657,-3917963.04496 -13338.939616,-3917776.91451 -13494.2964237,-3917634.44497 -13538.4171959,-3917465.54813 -13428.9902137,-3917289.12716 -13351.4304215,-3917099.40213 -13309.3285507,-3916879.84119 -13340.3720877,-3916650.57929 -13364.9949684,-3916377.38595 -13367.8442804,-3916127.39795 -13519.6561847,-3915901.97592 -13685.0617389,-3915634.43019 -13738.3611415,-3915353.96272 -13847.9202492,-3915101.45088 -14024.370168,-3914916.78648 -14135.8193618,-3914626.76263 -14226.3863803,-3914478.91684 -14148.6585401,-3914349.68302 -14133.9271603,-3914325.3282 -14114.6139746,-3914136.04322 -14225.5023433,-3914021.99717 -14282.833929,-3913822.97835 -14149.8166442,-3913714.77144 -14120.4870543,-3913523.58268 -14053.2334532,-3913365.75245 -13988.8346748,-3913218.89305 -14005.949989,-3913048.75529 -13956.8180077,-3912851.75708 -13859.1734061,-3912678.72038 -13781.4677243,-3912447.50128 -13723.7818727,-3912192.59366 -13735.5729253,-3911988.51184 -13829.5925177,-3911835.63365 -13960.2886838,-3911753.89293 -14019.2395547,-3911619.3483 -14018.0662185,-3911470.8823 -13918.6334305,-3911319.85873 -13895.3377261,-3911106.11467 -13927.1149604,-3910900.84127 -14096.1048609,-3910667.75678 -14266.6720507,-3910416.66009 -14436.9046683,-3910261.05223 -14580.3899644,-3910079.20485 -14607.5331662,-3909911.97026 -14588.6846758,-3909692.6843 -14561.2024641,-3909511.4752 -14601.2230489,-3909331.61905 -14625.9141783,-3909195.40314 -14597.0743412,-3909081.19676 -14486.4086059,-3908957.77568 -14502.9208084,-3908776.64482 -14434.5417779,-3908683.81387 -14441.2202841,-3908493.77846 -14472.1517706,-3908200.02624 -14502.8995761,-3907939.27077 -14425.4475819,-3907682.05098 -14399.8970456,-3907415.33536 -14390.1620312,-3907103.47484 -14448.1997858,-3906899.4493 -14484.7604752,-3906619.14067 -14407.6129141,-3906341.42021 -14301.9652138,-3906115.4648 -14263.7017115,-3905538.91524 -14195.5382052,-3905259.60822 -14131.6190462,-3905084.24537 -14165.0752882,-3904923.44839 -14223.5974659,-3904769.91048 -14350.7495295,-3904578.72128 -14499.6309888,-3904411.82075 -14688.9249,-3904367.016 -14814.5211366,-3904248.33152 -14864.2922778,-3904068.38143 -14847.534025,-3903832.07595 -14816.881749,-3903658.89417 -14853.9630579,-3903589.54945 -14952.5033228,-3903569.1098 -15106.2361596,-3903569.63919 -15235.6931553,-3903436.42023 -15240.219351,-3903282.39924 -15198.0913118,-3903163.81931 -15270.0320239,-3903054.14712 -15284.4590448,-3902916.02908 -15305.7821252,-3902714.85417 -15435.8938069,-3902571.63062 -15584.1771962,-3902551.21568 -15755.5970395,-3902571.57365 -15807.3214391,-3902465.09453 -15821.2933643,-3902305.48407 -15899.5555768,-3901680.32616 -15962.0132069,-3901493.75601 -16069.1133614,-3901322.75694 -16154.4112906,-3901067.47843 -16296.2916598,-3900743.16916 -16337.0432774,-3900403.82843 -16275.306517,-3900037.97055 -16263.5992222,-3899937.59669 -16429.8680195,-3899785.02997 -16467.1083004,-3899575.20409 -16487.9705232,-3899325.54028 -16413.680823,-3899241.76174 -16287.4410828,-3899240.96766 -16128.4954118,-3899270.48175 -16049.7636718,-3899271.23371 -16004.1663369,-3899155.68549 -16015.6362413,-3898838.62034 -16050.0598944,-3898490.84011 -16055.0661187,-3898308.31771 -16283.1862255,-3897957.68814 -16273.4330811,-3897616.82857 -16301.265257,-3897311.60507 -16441.3194106,-3897109.79595 -16502.5998735,-3896956.73213 -16791.7099036,-3896841.48854 -16793.6338882,-3896624.00029 -16840.8243768,-3896304.09409 -16712.3835319,-3895967.86594 -16743.3378414,-3895649.11415 -16694.8160728,-3895384.11318 -16582.4825654,-3895111.72179 -16579.5622586,-3894648.31207 -16640.1016835,-3894522.25153 -16683.6477598,-3894239.3741 -16627.9609611,-3893904.44991 -16674.2188082,-3893617.54692 -16688.7927955,-3893258.45551 -16539.2901843,-3892993.91581 -16565.696622,-3892774.69279 -16658.4979448,-3892545.3381 -16605.8415774,-3892370.86284 -16608.3578285,-3892057.87957 -16933.6574579,-3891647.83241 -17026.1969563,-3891181.01109 -17020.0998738,-3890934.601 -16971.0813579,-3890669.60211 -16817.7883161,-3890505.58355 -16662.2455786,-3890289.09293 -16677.4203192,-3889861.5024 -16463.0569993,-3889610.5758 -16440.9688719,-3889417.3103 -16531.3685769,-3889197.97657 -16541.9572632,-3888839.92014 -16493.7586761,-3888555.91416 -16325.5426529,-3888373.53834 -16151.9612674,-3888100.22447 -15926.5501269,-3887870.39853 -15645.9176949,-3887459.11966 -15627.5944523,-3887109.83543 -15648.8080623,-3886843.66481 -15723.170098,-3886619.98321 -16130.6866417,-3886416.62838 -16165.0492591,-3886034.84627 -16066.5682603,-3885667.82628 -16217.5497272,-3885352.42637 -16283.9791608,-3885109.32257 -16377.509273,-3884955.95056 -16442.8054773,-3884751.35309 -16535.109842,-3884600.49253 -16632.6476843,-3884369.09154 -16633.7408206,-3884168.60422 -16676.9280558,-3883952.21835 -16770.1186319,-3883789.35084 -16878.8735551,-3883580.84061 -17008.3944193,-3883453.12376 -17119.7869299,-3883259.08695 -17163.1811373,-3883090.69367 -17175.871761,-3882821.6037 -17155.4407903,-3882670.81502 -17197.5314826,-3882470.43764 -17195.1196594,-3882374.4714 -17187.5993221,-3882056.57864 -17115.2728512,-3881758.2993" style="stroke-linejoin:round;stroke:#000;stroke-width:1px;fill:none" /></g></g></svg>