<svg xmlns="http://www.w3.org/2000/svg" baseProfile="full" height="76534.2229256" version="1.1" viewBox="-9886.897027,3764144.018864,67467.475466,76534.222926" width="67467.4754655"><defs><style type="text/css">polyline,line,rect,path,polygon,.polygon{fill:none;stroke:#000;stroke-width:1px;stroke-linejoin:round;}</style></defs><g fill_rule="evenodd" transform="scale(1,-1)"><g class="hogares departamen mujeres departam_1 toponimo_i tot_pob varones viv_part viv_part_h" id="74063"><polygon class="_74063" id="None" points="26738.900748,-3765956.07293 29089.6201651,-3765819.13372 29478.1147922,-3765796.64428 31406.8367188,-3765684.69893 41513.3952157,-3765097.54613 41575.8937632,-3765094.04859 41776.6396768,-3765067.05695 41813.6389213,-3765062.05849 42538.6209757,-3765039.08713 43427.5982746,-3765010.62297 43490.596695,-3765007.12558 51041.8783094,-3764579.96872 51794.3501557,-3764599.50395 52584.3363869,-3764281.55417 52738.830498,-3764283.56171 52741.8303606,-3764284.06184 52979.5704959,-3764302.07293 53291.8074237,-3764325.58755 53570.2893693,-3764472.09579 53748.2807829,-3764505.1034 53945.2743847,-3764478.61432 54262.0126909,-3764462.13094 54602.7492731,-3764458.14839 54958.742011,-3764319.17221 55304.4751704,-3764372.18787 55369.2208022,-3764405.18986 55849.9380356,-3764651.70447 55823.1733825,-3764957.69017 55863.1540156,-3765303.17753 55876.3939757,-3765489.67022 55756.6410532,-3765649.15733 55676.8857902,-3765822.1459 55690.1252644,-3766021.63798 55732.3670277,-3766150.63451 55823.1049844,-3766314.13191 55996.0881953,-3766500.6323 55996.070553,-3766859.61646 56036.0571018,-3767099.10777 56009.297349,-3767325.09639 55902.7937868,-3767498.08354 55730.0470482,-3767591.07113 55543.8046777,-3767604.56167 55570.5385016,-3767921.54884 55679.5204794,-3768201.54141 55690.5078879,-3768461.03021 55650.2507071,-3768655.51954 55595.9949352,-3768834.50892 55415.4813512,-3769313.97891 55344.2265394,-3769493.46753 55330.9706269,-3769639.46027 55211.2237136,-3769692.95251 55064.7362727,-3769559.95204 54998.2322197,-3769719.44187 54887.225894,-3769977.92527 54833.2165115,-3770249.91056 54825.4593281,-3770424.40227 54804.4545078,-3770558.89522 54862.6897936,-3770840.88477 54891.9324173,-3770982.87947 54963.6746547,-3771087.87765 55137.9145884,-3771134.38286 55357.4011603,-3771208.88867 55131.1499967,-3771488.36602 55024.8969712,-3771680.35259 55058.1281404,-3772098.83426 55024.8644851,-3772472.81519 54931.6023607,-3772885.29182 54807.5894359,-3773362.76413 54736.5812132,-3773661.74705 54718.8225438,-3773909.23448 54678.814334,-3774175.22014 54551.563203,-3774367.70606 54610.5495269,-3774657.19427 54795.5283802,-3774984.68517 55154.262281,-3774943.20051 55588.9768627,-3775314.19815 55911.940439,-3775860.68233 56050.9240394,-3776116.17429 56105.9022388,-3776645.14895 55418.1811868,-3776827.11542 55697.9007318,-3777292.6012 55727.6453877,-3777403.59648 55764.1388362,-3777540.09065 55832.376641,-3777795.07969 55759.6169273,-3778199.05616 55536.6177334,-3778529.03159 55625.1053215,-3778769.0219 55940.5842236,-3778907.52478 55956.0743515,-3779189.51032 55687.0850016,-3779302.99576 55490.5843139,-3779656.47094 55718.3143222,-3779912.96438 55760.3035312,-3780192.45075 55519.0617345,-3780346.43525 55139.8243537,-3780597.41064 54746.8348387,-3780946.88077 54343.0867511,-3781626.83373 54266.5843598,-3781858.81949 54076.8287808,-3782434.28427 53704.8410414,-3782706.26032 53615.8371649,-3783036.74084 53871.0631203,-3783460.22515 54290.0289752,-3783942.21003 55170.2225064,-3784306.21198 55892.4294964,-3784434.22267 56834.8772226,-3784400.24804 57314.0941009,-3784624.2472 57505.5740899,-3784983.23112 57465.5618429,-3785586.69496 57330.8101962,-3785993.16806 57197.8103659,-3786325.64562 56844.5700159,-3786817.60916 56377.5834867,-3787455.56236 56206.8308484,-3788072.52335 55931.0870199,-3788572.48925 55632.3511125,-3788731.9745 55408.3612396,-3788873.4623 55323.1090016,-3789264.43855 55305.3527059,-3789680.91455 55396.0892577,-3790169.38822 55457.077319,-3790688.35947 55607.3147594,-3790936.34756 55616.3083616,-3791318.8256 55343.8199007,-3791599.30537 55091.0789852,-3791976.78007 54434.8622334,-3792271.75425 54042.8787802,-3792689.22559 53996.1251017,-3793192.69677 53885.3677284,-3794388.62834 53774.1003967,-3797081.97551 53535.0978288,-3804169.57369 53452.6045913,-3804898.03281 53423.8571035,-3805150.51868 53398.8593544,-3805370.00643 53379.3611521,-3805540.99689 53037.7099932,-3813834.04073 52955.3327417,-3820036.71226 52994.1193618,-3821634.12883 52746.3829176,-3821669.63326 52483.9020733,-3821901.12815 52113.1781398,-3822194.62285 51891.4403489,-3822241.12619 51702.6999718,-3822252.63042 51495.4594807,-3822225.637 51340.9717278,-3822410.63187 51186.48318,-3822565.12829 51062.9907426,-3822627.12845 50846.7551088,-3822781.62655 50630.5178194,-3822874.12767 50491.5264168,-3822951.62755 49879.0832935,-3824029.09319 48952.4133383,-3825427.55531 48711.4407189,-3826023.53594 48265.7483003,-3827342.99228 48152.0191872,-3827878.47319 48000.0275247,-3827944.47505 47832.7875196,-3828045.47594 47665.2948898,-3828060.98038 47574.0537118,-3828228.47628 47482.810204,-3828319.47534 47361.0679369,-3828410.97534 47269.8262675,-3828562.97198 47148.3372084,-3828760.46777 46716.3600545,-3828945.47369 46555.1214576,-3829110.47217 46168.1427155,-3829312.9762 46089.3970223,-3829354.47703 45745.6718892,-3829735.97309 45403.1891208,-3829877.47836 45507.1924457,-3830109.46648 45851.9390182,-3830409.44442 45608.2060341,-3830658.94289 45538.4671391,-3830925.43529 45558.4694164,-3831018.93122 45595.7221758,-3831146.42534 45484.7338056,-3831379.42044 45320.2470123,-3831601.41778 45243.0144174,-3832045.40443 45441.5146249,-3832263.39004 45721.0132177,-3832516.87152 45847.2649805,-3832700.36063 45688.284294,-3833095.85206 45692.2916587,-3833311.34432 45927.0419287,-3833553.82753 45764.3013405,-3833658.32962 45657.8104391,-3833810.3281 45429.5742667,-3833977.83041 45413.577872,-3834063.82803 45396.0818199,-3834157.82544 45551.3358844,-3834418.81095 45631.8402596,-3834615.30133 45519.8482302,-3834729.80152 45368.8558537,-3834799.30467 45432.8601279,-3834975.29642 45321.6263954,-3835316.78911 45079.1521557,-3835796.78235 44922.6600513,-3835872.78571 44827.1684659,-3836016.28465 44592.4283857,-3836081.79131 44298.6889283,-3836116.3011 44078.9462716,-3836129.3088 43829.2029834,-3836101.31883 43691.7083833,-3836133.32286 43497.7123386,-3836078.83159 43298.9617975,-3835895.84434 43074.461844,-3835705.85814 42889.4638981,-3835605.36773 42661.4686516,-3835544.87756 42341.9760891,-3835483.89052 42022.4855525,-3835483.90155 41839.993002,-3835544.90603 41779.2536687,-3835803.40061 41672.7656849,-3836061.89685 41505.5230872,-3836137.90049 41481.0313573,-3836355.89517 41480.5364018,-3836499.89114 41368.5449607,-3836654.89073 41277.5530989,-3836814.88949 41186.061226,-3836974.38833 41216.5679268,-3837187.38144 41179.8264826,-3837399.87699 41064.3350277,-3837552.37702 40927.3408533,-3837613.38028 40913.8483092,-3837811.87551 40834.6049472,-3837938.87502 40684.1108237,-3837993.379 40395.1199206,-3838039.38814 40243.1286765,-3838176.39006 40288.6351251,-3838388.88306 40457.1363703,-3838541.37314 40453.6412983,-3838674.8699 39939.6443428,-3838402.3952 39741.1569993,-3838620.39689 39768.663745,-3838827.89084 39816.9195542,-3839021.8844 39978.671005,-3839169.87496 40051.6745314,-3839314.86879 39976.9315844,-3839458.36807 39720.4410468,-3839550.37527 39549.9450921,-3839551.38146 39258.4515552,-3839542.39223 39153.7089515,-3839680.39283 39081.7177222,-3839877.39095 39078.7221834,-3839998.38832 39050.9775049,-3840127.38643 39055.7313976,-3840236.8838 39022.736214,-3840348.38253 39030.4949418,-3840590.3769 38982.9956705,-3840581.87884 38864.2474587,-3840559.88369 38443.7536495,-3840479.90076 37777.2612674,-3840296.92853 37264.264619,-3840086.95093 36799.2716701,-3840013.96848 36575.2723923,-3839901.47841 36245.7766973,-3839831.99094 36097.7775861,-3839769.99714 35887.2808298,-3839741.50472 35631.5329131,-3839651.51494 35436.7816121,-3839494.5244 35298.0330526,-3839455.02968 35212.5391403,-3839591.52979 34958.0395311,-3839451.04071 34858.7818094,-3839148.54974 34833.0259118,-3838946.05452 34769.5259154,-3838906.55729 34627.526973,-3838851.56282 34492.5214327,-3838588.07219 34361.0249819,-3838619.57563 34241.7804407,-3838721.57732 34163.7818542,-3838718.57977 34152.2816153,-3838703.58041 33728.5231332,-3838152.60391 33635.5191457,-3837957.61047 33414.0216093,-3837895.11822 33352.2680966,-3837734.12316 33318.266211,-3837646.62585 33233.7678862,-3837647.62829 32910.0257913,-3837705.13653 32516.0331806,-3837702.14785 32110.7881188,-3837608.66103 31850.548075,-3837793.6649 31541.5523507,-3837746.17433 31468.8021863,-3837692.6773 31274.0513952,-3837535.68545 30945.0599779,-3837636.19258 30520.5646585,-3837533.20575 30081.3086355,-3837009.72639 29418.070792,-3837037.24283 28715.5851946,-3837143.75859 27863.8503045,-3837201.27841 27133.8527897,-3836820.80159 26723.8526553,-3836535.31541 26237.6075595,-3836418.32809 25767.354277,-3835934.34578 24944.3538249,-3835302.87271 23907.3434975,-3833938.41436 23300.3494966,-3833742.42862 22517.3602237,-3833661.94377 21770.8690637,-3833515.95876 21760.3692803,-3833519.45889 21498.1247141,-3833610.46191 20787.1363743,-3833688.4724 20216.1429124,-3833586.48292 19823.1440189,-3833295.99309 19407.8938056,-3832884.50516 18478.3967654,-3832148.52889 17605.1546829,-3831798.54546 17027.6609951,-3831647.05489 16464.9184577,-3831610.06223 15986.9238642,-3831504.5693 14818.9354323,-3831096.08781 14340.4426346,-3831164.09185 14031.4480015,-3831286.09335 13637.7033323,-3831299.59707 13299.956526,-3831171.10201 12962.461685,-3831252.60411 12287.9716483,-3831401.10831 12212.4722935,-3831366.10942 11724.7265254,-3831140.61644 11246.732327,-3831114.62068 11224.2325967,-3831113.12088 10543.2407253,-3831068.6267 10529.4908392,-3831061.1269 9923.74612931,-3830753.63509 9416.74965999,-3830336.14374 9177.25113157,-3830092.64836 8993.75161046,-3829791.15336 8360.00779815,-3829448.6615 8306.75806066,-3829371.6628 8078.00924312,-3829038.16842 7697.76324478,-3828840.67301 7289.01685112,-3828462.68005 6979.77110223,-3828487.18115 6039.53405179,-3828608.18351 5447.04180155,-3828609.18571 4851.29973626,-3828670.6869 4392.05498387,-3828434.69134 4118.30778076,-3828146.19587 3772.3118674,-3827952.19931 3137.07016941,-3827899.2014 3055.07124049,-3827891.70166 2799.82469112,-3827933.20158 2773.32501446,-3827918.20183 2325.83055258,-3827669.70585 2278.08115201,-3827643.70626 1858.83657404,-3827498.70874 1464.3415203,-3827120.21427 1196.84504924,-3826961.21667 1012.59728117,-3826477.22351 674.85189766,-3826195.22765 238.608068857,-3826139.72856 -239.885115933,-3825973.73093 -718.628185797,-3825766.23377 -895.875629335,-3825765.23371 -1122.62236072,-3825768.73352 -1406.6182674,-3825774.73323 -1603.86536487,-3825715.23392 -1908.86102151,-3825781.23265 -3028.594609,-3825667.7327 -3374.83929225,-3825532.23405 -3512.5863093,-3825051.24092 -3898.82966002,-3824655.24611 -4237.07378251,-3824344.75012 -4349.82155653,-3824138.75305 -4601.06733185,-3824012.25442 -4881.81251995,-3823853.75621 -5265.3056289,-3823553.75995 -5560.80040259,-3823381.76187 -5898.54473302,-3823309.26204 -6404.78699404,-3823452.2581 -6727.78214099,-3823561.75521 -7753.51725746,-3824002.74414 -9004.49765691,-3824156.73601 -9141.74541081,-3824155.73535 -9159.49512065,-3824155.73526 -9525.73910973,-3824154.23344 -9567.23803337,-3824077.73449 -9778.73333358,-3823846.73723 -9806.73156295,-3823595.24129 -9835.97971249,-3823330.74561 -9822.97760039,-3822868.25357 -9655.97739875,-3822232.7654 -9431.47922228,-3821777.27444 -9043.23286256,-3821030.28941 -8699.23642474,-3820377.80255 -8531.73686031,-3819682.81587 -8194.73898341,-3818487.33928 -8001.74031404,-3817752.85381 -7841.74090044,-3816907.37052 -7512.744839,-3815987.88931 -7119.99967805,-3814750.41471 -6846.25396322,-3814185.42658 -6620.75704086,-3813420.44243 -6292.26106244,-3811787.47632 -6122.51315883,-3810757.99787 -6054.01358726,-3809930.01524 -6107.76247411,-3809941.01495 -6000.51418367,-3809451.52535 -5316.02624449,-3806322.0923 -2381.08810715,-3800286.72164 -1358.1100128,-3798184.26597 -1278.11171417,-3798035.26909 -1081.86587909,-3797669.77674 -527.877556131,-3796637.79826 1375.3338186,-3792752.3781 3059.80356131,-3788552.46151 6319.01110827,-3781177.09884 6659.75647884,-3780918.10419 7064.00100914,-3780634.11023 7225.74885029,-3780520.61267 8094.23612366,-3780234.62084 8890.47442797,-3780002.62826 8963.47336079,-3779981.12897 9027.47238923,-3779969.62947 9235.21923073,-3779933.1311 9389.96687889,-3779905.63234 9564.46469957,-3779785.13519 9613.71408798,-3779751.136 9630.96387462,-3779739.13629 9686.71318488,-3779700.63721 10069.9589793,-3779351.14493 10325.9563101,-3779107.6503 10600.2037338,-3778813.15662 13151.1796035,-3776663.70836 13269.9286257,-3776564.21087 13546.9264099,-3776330.71678 15463.9131564,-3774716.25932 15878.4107878,-3774366.76892 19933.4221701,-3769377.39212 22554.4450146,-3766342.47628 24156.4384197,-3765756.51655 26219.9070734,-3765986.56023 26738.900748,-3765956.07293" style="stroke-linejoin:round;stroke:#000;stroke-width:1px;fill:none" /></g></g></svg>