<svg xmlns="http://www.w3.org/2000/svg" baseProfile="full" height="259403.403179" version="1.1" viewBox="-78693.748754,5669793.627543,182514.051439,259403.403179" width="182514.051439"><defs><style type="text/css">polyline,line,rect,path,polygon,.polygon{fill:none;stroke:#000;stroke-width:1px;stroke-linejoin:round;}</style></defs><g fill_rule="evenodd" transform="scale(1,-1)"><g class="id" id="78035"><polygon class="_78035" id="None" points="-50027.641866,-5670390.00331 -42457.9798675,-5670270.74381 -34459.4543845,-5670150.02875 -34129.1644143,-5670144.29293 -26459.5068277,-5670088.99289 -23303.4551424,-5670066.44666 -18460.6210365,-5670031.49957 -10460.5356672,-5669973.19351 -2462.19024264,-5669916.89169 -1258.00330001,-5669908.16038 5537.62945016,-5669886.80308 13536.6460806,-5669863.28699 21536.0961017,-5669838.42177 22933.3261208,-5669834.40246 26254.0409526,-5669862.03052 29534.6204146,-5669889.15454 41270.8067731,-5670110.60365 41314.5314868,-5670111.35915 42144.8957214,-5670132.19226 46695.16838,-5670246.00043 54691.5861768,-5670445.14819 62687.9577125,-5670645.45519 70684.8318566,-5670845.95628 78681.6979132,-5671046.62002 86678.2628022,-5671247.92915 94675.3877959,-5671447.93711 102672.404652,-5671649.10473 103803.205247,-5671678.05075 103801.451716,-5671733.49557 102914.645927,-5698072.00851 101871.243484,-5727807.69206 100483.37138,-5768292.59516 100304.515,-5773319.07067 99545.9105316,-5795223.75287 99346.5524928,-5800196.36802 99322.6925149,-5800310.94079 98750.6337042,-5803051.20823 98300.9846664,-5805146.23871 97640.3950439,-5808223.60104 97402.4451503,-5815563.31414 97400.0790828,-5815635.22602 97349.0226748,-5817193.83169 97348.6956676,-5817202.81868 97205.5711869,-5821600.04479 96406.7549994,-5846108.98045 96076.8885332,-5856020.03419 95340.7068797,-5878251.66237 94666.6678084,-5898595.48152 94377.7450609,-5907017.78846 93662.2138584,-5929101.67554 93648.3961203,-5929094.77036 93623.6218947,-5929083.14832 92099.710758,-5928353.8602 90094.0248478,-5927393.53524 90078.3184451,-5927369.48817 85011.3440574,-5919677.09852 81880.7308446,-5914939.48637 81008.7750252,-5913584.02982 78527.9970253,-5909865.38606 78429.8146937,-5909716.37131 76735.7113167,-5907152.00732 65078.7215776,-5889472.33374 56430.2310655,-5876356.00817 56266.8892865,-5876108.26524 55196.3014007,-5874478.36658 47370.1124486,-5862563.18539 43543.4719125,-5856790.15924 37181.6434662,-5847159.5263 35001.9402939,-5843843.87108 26798.2941009,-5831378.04812 24257.5556753,-5827531.10856 17317.5207273,-5816958.99197 16930.1514789,-5817017.60482 16721.5340649,-5817049.70174 -45417.3796719,-5824287.907 -76951.2517198,-5804313.61493 -76793.4118883,-5804248.31042 -76469.5479534,-5804328.58131 -76022.3289416,-5804499.22327 -75166.2626276,-5804943.97396 -74203.1080319,-5805324.16245 -72914.5767263,-5805644.82347 -71377.4608088,-5805787.09196 -69549.4600849,-5805936.565 -69255.5271599,-5805841.52654 -69063.1843637,-5805674.99739 -68908.564124,-5805644.45942 -68758.103261,-5805803.03979 -68577.121232,-5806081.51155 -68256.7001265,-5806278.00157 -67960.6558575,-5806468.92832 -67729.9529894,-5806529.7304 -67497.138308,-5806557.68785 -67273.426307,-5806614.54299 -67066.8006158,-5806746.75544 -66856.8975872,-5806785.23366 -66634.1373756,-5806713.1029 -66421.3869601,-5806602.35019 -66239.8751132,-5806460.60562 -66070.7372936,-5806297.57687 -65921.2358397,-5806121.29228 -65813.3606185,-5805912.34889 -65788.2398925,-5805673.10083 -65914.889646,-5805521.04367 -66158.9307427,-5805488.86952 -66384.3878041,-5805431.90478 -66614.0564643,-5805382.16523 -66823.5562623,-5805290.74705 -67012.0060225,-5805151.71062 -67178.6696958,-5804988.58971 -67327.8984714,-5804799.10593 -67412.5187577,-5804591.78736 -67358.5948676,-5804351.39616 -67160.5488026,-5804321.64651 -67066.2157112,-5804097.84272 -67153.0091998,-5803904.8763 -67328.8422599,-5803736.67172 -67490.2433991,-5803569.39497 -67618.1255334,-5803374.29004 -67699.4361143,-5803158.19183 -67739.9442106,-5802929.22442 -67756.7437058,-5802696.78324 -67755.781371,-5802463.98404 -67736.8083939,-5802230.84267 -67700.731066,-5801999.79927 -67623.2171437,-5801784.90906 -67503.3281821,-5801583.23379 -67369.3980615,-5801392.45385 -67224.7184576,-5801209.35955 -67060.6647996,-5801047.49704 -66858.7368765,-5800930.04135 -66675.1809307,-5800787.41943 -66495.8161694,-5800640.03044 -66318.7798369,-5800489.99279 -66146.1196904,-5800334.17677 -65963.5906662,-5800191.98627 -65775.8429086,-5800054.12794 -65595.0486791,-5799907.82719 -65417.6673096,-5799756.30962 -65218.0847061,-5799628.70389 -65038.8034563,-5799494.29738 -64946.9941896,-5799266.82472 -64900.8611797,-5799026.92493 -65207.8712468,-5798757.36009 -65335.0723438,-5798574.7953 -65416.2938213,-5798353.20661 -65486.4327252,-5798126.33317 -65541.6742455,-5797900.916 -65591.8119097,-5797673.8279 -65663.51584,-5797451.85226 -65739.8588532,-5797232.07785 -65798.7456468,-5797008.92671 -65820.1674754,-5796778.1859 -65828.8929328,-5796544.2623 -65873.4835681,-5796328.02583 -66015.9355196,-5795904.12875 -66148.0998725,-5795635.30225 -66291.8472342,-5795410.70692 -66518.9763439,-5795025.35537 -66765.9746413,-5794501.81306 -66971.6063473,-5794151.32487 -67156.7843422,-5793809.14601 -67327.5462271,-5793534.35304 -67585.5066087,-5793282.95127 -67842.1162261,-5793100.09572 -68169.4377091,-5792979.66531 -68398.213563,-5792935.5121 -68627.0910796,-5792896.84912 -68856.0253682,-5792855.1845 -69084.1168879,-5792812.07501 -69311.4229894,-5792764.51886 -69536.814276,-5792706.59229 -69760.0803489,-5792642.80602 -69986.8168721,-5792590.29016 -70177.1561038,-5792574.08688 -70312.6127322,-5792473.45922 -70535.0796716,-5792416.72063 -70800.9272571,-5792257.26487 -71126.6267503,-5792236.37991 -71367.1304581,-5792312.89819 -71593.5521185,-5792337.3536 -71811.5950771,-5792297.38868 -71989.1812131,-5792168.0786 -72139.1798144,-5791982.57619 -72270.7980271,-5791779.26549 -72389.5739944,-5791578.27782 -72481.076468,-5791361.05128 -72531.2319606,-5791137.98172 -72521.1819351,-5790903.28249 -72487.6868505,-5790673.08428 -72432.7052462,-5790446.76167 -72392.7422089,-5790216.97779 -72386.8605909,-5789981.01183 -72334.1901454,-5789759.53727 -72223.846752,-5789554.25071 -72102.8111112,-5789353.64633 -72001.5150124,-5789145.28063 -71751.4226245,-5788942.45306 -71612.4602242,-5788754.48816 -71394.0168178,-5788620.58398 -71069.7053545,-5788495.46204 -70881.7110116,-5788419.56619 -70572.7385587,-5788436.36737 -70351.7974056,-5788357.08566 -70083.823817,-5788237.84486 -69937.8282976,-5788107.78921 -69753.813618,-5788012.14883 -69522.0269427,-5787861.10617 -69297.9066635,-5787779.02752 -69119.455735,-5787641.55541 -69037.4417451,-5787410.45917 -68930.9378058,-5787112.97434 -68810.7651206,-5786906.308 -68716.0153215,-5786745.48274 -68580.6252907,-5786574.26869 -68564.9722019,-5786349.4129 -68489.8934657,-5786175.83385 -68390.2866776,-5786071.78317 -68259.5812506,-5786012.69742 -68265.0609928,-5785774.49478 -68102.1628085,-5785575.55876 -68024.6187311,-5785355.66508 -67899.0447419,-5785154.33746 -67793.2972652,-5784899.7718 -67807.7548009,-5784692.47384 -67738.1431824,-5784471.57123 -67631.3615076,-5784251.54939 -67579.2642209,-5784031.02371 -67567.3482868,-5783825.41426 -67568.898139,-5783576.4689 -67607.1124594,-5783361.65364 -67681.4129825,-5783148.52585 -67848.3554235,-5782981.43526 -68052.2820451,-5782752.01509 -68134.2411587,-5782521.90898 -68176.7411181,-5782280.33796 -68199.5190922,-5782058.51803 -68329.3869343,-5781768.88206 -68501.8284241,-5781554.97266 -68767.5608624,-5781448.02173 -68924.523693,-5781367.02075 -69110.528706,-5781154.24415 -69305.0494255,-5780957.4129 -69593.8411954,-5780754.04989 -69868.3482829,-5780546.10582 -70151.9857224,-5780328.58456 -70486.2149936,-5780058.35969 -70643.8709288,-5779816.42369 -70888.4433809,-5779601.40601 -71168.5704148,-5779387.61237 -71343.3207844,-5779178.56317 -71587.4196521,-5779022.53981 -71731.5096545,-5778755.99355 -71903.7487812,-5778531.11828 -72017.4623327,-5778336.4699 -72153.5492161,-5778147.88581 -72269.4330893,-5777948.10304 -72368.9417888,-5777738.37564 -72466.55003,-5777526.27199 -72566.2446388,-5777315.53437 -72663.73214,-5777105.43806 -72755.2109233,-5776891.22958 -72842.5818363,-5776675.28563 -72915.9503198,-5776455.24099 -72970.2447479,-5776229.9209 -73012.3103827,-5776000.88615 -73051.8248294,-5775771.01547 -73092.6475345,-5775542.0607 -73131.7927556,-5775314.21274 -73267.0716142,-5774839.38493 -73489.4794089,-5774586.33164 -73556.1676139,-5774324.2471 -73518.6312363,-5774065.32762 -73509.2620009,-5773840.58265 -73602.6576024,-5773613.26652 -73764.8842072,-5773384.04989 -73889.8420682,-5773150.2209 -73891.4863786,-5772925.77236 -73916.1194315,-5772591.93011 -73973.6802556,-5772315.94208 -73994.4951972,-5772008.32625 -74070.162798,-5771734.1799 -74079.80547,-5771443.26728 -73998.3713548,-5771373.02313 -73735.1359711,-5771303.90158 -73511.4068364,-5771125.82949 -73298.9265543,-5770940.0427 -73096.2579064,-5770696.66754 -73093.1345702,-5770393.57657 -72992.541431,-5769984.28932 -72711.0422893,-5769844.37883 -72557.5336235,-5769701.78855 -72429.4091651,-5769424.66739 -72219.0855989,-5769268.7162 -72078.7499593,-5769023.35221 -72012.0254267,-5768721.82149 -71784.1124692,-5768462.56198 -71566.7243282,-5768211.62301 -71437.1969015,-5768022.0275 -71267.5998166,-5767850.47958 -71177.4015964,-5767646.87949 -71138.6822663,-5767420.00561 -71123.7175915,-5767185.61899 -71120.8185336,-5766948.46336 -71117.8301254,-5766713.81178 -71169.4023735,-5766480.67388 -71209.1006707,-5766229.80668 -71236.27402,-5765962.75065 -71338.6334477,-5765746.35843 -71394.3690979,-5765531.44357 -71306.0662142,-5765322.22447 -71138.5286041,-5765081.08675 -71091.3451123,-5764870.24178 -71153.8446191,-5764569.45283 -71328.7133447,-5764400.89972 -71345.8593179,-5764168.46178 -71373.1173811,-5763937.87704 -71420.1331108,-5763711.52809 -71587.7067122,-5763385.54976 -71904.1831084,-5763110.53165 -72084.5397613,-5762879.17545 -72228.5437742,-5762630.15299 -72352.9613551,-5762363.8935 -72511.6577357,-5762098.44613 -72738.7653699,-5761891.0929 -73025.7685457,-5761674.92388 -73228.4439961,-5761480.12353 -72654.231415,-5761239.43911 -72339.9058113,-5761007.65952 -71993.7068578,-5760832.37369 -71753.1704687,-5760731.29299 -71590.0151025,-5760550.82762 -71310.3153367,-5760497.71235 -71036.9607583,-5760469.67491 -70771.1405371,-5760324.7349 -70513.8704873,-5760251.20073 -70305.7223628,-5760109.577 -69928.7250597,-5759960.73113 -69739.0439199,-5759787.44837 -69601.3703356,-5759638.33074 -69387.5999894,-5759553.52556 -69121.4824473,-5759521.52529 -68807.9218613,-5759509.53872 -68508.3513147,-5759517.14679 -68189.481331,-5759465.02458 -67855.4451979,-5759523.79871 -67590.7594541,-5759545.67202 -67340.9461349,-5759620.56299 -67046.5016363,-5759775.25166 -66849.3043,-5759887.76292 -66582.6014332,-5759866.29321 -66364.6362512,-5759939.15498 -66119.0349851,-5760001.78677 -65900.2826097,-5760117.17318 -65732.3550377,-5759983.47036 -65466.2034841,-5759982.45284 -65297.3278834,-5759763.36173 -65115.29645,-5759694.51771 -64930.945047,-5759636.31496 -64562.3567595,-5759611.84602 -64320.0731312,-5759471.88784 -64124.7046185,-5759460.35905 -63999.6317772,-5759269.95214 -63808.3692953,-5759283.6459 -63529.8023397,-5758911.63761 -63242.7743802,-5758689.07882 -63014.5991397,-5758539.22194 -62860.2919675,-5758329.18768 -62712.5048728,-5758284.14068 -62596.7350429,-5758220.06237 -62574.16238,-5758054.09866 -62419.6006547,-5757914.53796 -62257.3555462,-5757724.99573 -62036.0344655,-5757710.11995 -61780.4961448,-5757671.93977 -61626.4404319,-5757489.36949 -61455.578111,-5757325.35986 -61152.425264,-5757273.22279 -61059.5831131,-5757059.26462 -60991.3822293,-5756847.73332 -60806.4479031,-5756725.59514 -60532.6060888,-5756655.09686 -60392.2443551,-5756503.13211 -60244.5413993,-5756275.17731 -60092.7424444,-5756131.93592 -59874.2049117,-5756031.42565 -59652.866152,-5755930.09395 -59344.9139739,-5755849.77251 -59073.4689784,-5755809.10135 -58997.0712499,-5755712.025 -58825.0170335,-5755439.14228 -58607.0853826,-5755250.13802 -58403.470581,-5755015.24482 -58176.6647271,-5754871.2803 -57981.9529113,-5754615.32888 -57843.183315,-5754339.32121 -57774.2157283,-5753978.40875 -57631.6717779,-5753666.65901 -57573.1967501,-5753337.06003 -57459.0926214,-5753028.49462 -57335.4148283,-5752883.4525 -57196.1934369,-5752800.36798 -56918.849864,-5752722.08229 -56750.3598339,-5752512.92775 -56729.5564819,-5752362.83136 -56799.7211404,-5752161.96505 -56758.2980666,-5751990.19374 -56595.8326416,-5751903.09042 -56391.1122129,-5751862.65491 -56160.4675181,-5751893.83416 -55973.5964156,-5751953.21012 -55863.8842062,-5751964.69454 -55827.8069408,-5751841.556 -55818.2162171,-5751569.3059 -55695.011532,-5751376.75329 -55499.4904422,-5751276.7603 -55252.8098811,-5751138.54533 -55083.831695,-5750937.41123 -54942.7015282,-5750659.54087 -54747.6151457,-5750452.5712 -54543.7659238,-5750147.20768 -54349.4982914,-5749921.69307 -54156.1132267,-5749894.52365 -53927.635358,-5749975.53624 -53776.958513,-5749889.17549 -53643.1254929,-5749706.28865 -53442.1563965,-5749524.67645 -53166.4047999,-5749404.79634 -53034.1719079,-5749125.3521 -52982.8775773,-5748861.24548 -52779.5181454,-5748575.33223 -52590.0209679,-5748495.43704 -52366.2323871,-5748328.26638 -52271.42365,-5748153.88573 -52103.5414161,-5748040.62867 -51861.9110552,-5748025.0211 -51596.6822037,-5748023.4095 -51378.79321,-5747984.30101 -51151.5549218,-5747931.79379 -51020.7214472,-5747678.24048 -50835.2258286,-5747480.64098 -50503.4528775,-5747458.27381 -50246.0213324,-5747394.69207 -50086.3582673,-5747288.90455 -49926.3105481,-5747118.17022 -49642.5052951,-5747036.77405 -49478.6787967,-5746853.78447 -49439.2575736,-5746603.40475 -49486.13242,-5746232.58506 -49615.4474502,-5745853.5222 -49665.4040246,-5745397.54533 -49663.8503977,-5745062.7931 -49724.3925314,-5744694.60418 -49701.5528272,-5744437.67199 -49659.2326821,-5744063.03159 -49710.2907924,-5743781.40818 -49819.9833229,-5743459.07271 -49961.9846912,-5743377.57464 -49961.1502156,-5743211.20225 -50073.5726879,-5742994.64713 -50174.7307723,-5742632.37472 -50060.274074,-5742262.82172 -49874.3722626,-5741881.81731 -49722.1034547,-5741703.58195 -49683.1021651,-5741542.13443 -49747.7587357,-5741372.09786 -49728.2000628,-5741178.42806 -49772.1372928,-5741067.68307 -49946.2535353,-5741019.63119 -49996.9055631,-5740786.51434 -50132.0792163,-5740601.50119 -50288.8591672,-5740312.16169 -50459.9925655,-5740209.32598 -50502.3744421,-5739920.76184 -50627.9019429,-5739733.36535 -50606.434919,-5739407.37848 -50690.1543926,-5739136.17911 -50714.6018273,-5738950.70932 -50734.4374677,-5738728.04976 -50726.7893779,-5738493.6428 -50815.559168,-5738199.63394 -50955.6681481,-5737848.38854 -51065.4817553,-5737594.52501 -51172.0259485,-5737367.85735 -51282.6433491,-5737016.48886 -51296.548326,-5736739.73287 -51433.9555867,-5736511.10631 -51415.9649299,-5736196.39522 -51460.7301378,-5735945.16695 -51457.0114775,-5735682.02509 -51396.8242919,-5735356.00012 -51402.615958,-5735081.25916 -51433.3281248,-5734805.43551 -51365.8001172,-5734509.36233 -51195.8405714,-5734264.77191 -51128.353658,-5734103.13323 -51116.0558047,-5733716.59183 -51141.1661374,-5733466.61163 -51171.9059543,-5733309.23146 -51193.5168008,-5733106.45205 -51117.6851621,-5732872.37568 -51174.778109,-5732555.3953 -51184.8721366,-5732281.38012 -51188.1916879,-5732014.79175 -51324.3007753,-5731911.19645 -51369.1947959,-5731716.93528 -51308.7988363,-5731580.33316 -51271.5576353,-5731418.77214 -51268.4647434,-5731405.47463 -51359.3476067,-5731215.29175 -51481.8637813,-5730984.11977 -51512.2569942,-5730687.32733 -51519.3105906,-5730416.50473 -51654.0832839,-5730280.01219 -51705.5919096,-5730036.35542 -51685.185553,-5729809.25615 -51772.2817994,-5729559.3437 -51792.5685486,-5729296.17835 -51778.4139032,-5729065.18408 -51792.1281854,-5729025.33217 -57767.9747841,-5711439.29375 -58486.5044913,-5709118.05122 -58274.1440635,-5708505.80278 -58166.4171536,-5708343.20039 -58032.1038884,-5708155.29204 -57914.7059231,-5707954.32023 -57800.6351549,-5707750.63889 -57688.5870986,-5707547.32892 -57365.9082818,-5707106.95783 -57207.7256011,-5706952.53799 -57103.2516183,-5706813.71401 -57030.2427701,-5706555.96072 -56988.4812468,-5706314.22343 -56929.7266468,-5706108.04213 -56814.756917,-5705905.9121 -56723.569365,-5705676.79178 -56656.3332724,-5705486.63743 -56527.2511084,-5705116.48205 -56454.8622929,-5704896.16753 -56364.2506031,-5704687.99829 -56307.595412,-5704546.64932 -56205.1291476,-5704289.25295 -56063.1981942,-5704008.36153 -56011.0993383,-5703792.76033 -55938.9225042,-5703559.93605 -55878.2629302,-5703335.37954 -55843.6109631,-5703107.18119 -55825.8810947,-5702873.91591 -55822.8988791,-5702640.71871 -55832.0523282,-5702409.75364 -55860.1851702,-5702131.11292 -55915.7353757,-5701716.80684 -55955.9415194,-5701486.87986 -56006.1376108,-5701260.82013 -56102.2523603,-5701128.81401 -56245.1726656,-5701017.84147 -56585.1350189,-5700924.91509 -56797.1928223,-5700876.04585 -56944.807928,-5700661.33005 -57007.8611617,-5700294.53159 -57112.0611286,-5699902.6477 -57182.8621327,-5699583.33708 -57220.5968157,-5699322.08555 -57301.7708229,-5698969.13754 -57464.6429392,-5698560.56013 -57576.8703284,-5698157.17854 -57676.5513546,-5697946.9921 -57768.1115544,-5697734.8197 -57851.5486096,-5697516.66346 -57924.0015973,-5697294.70282 -57981.3965623,-5697071.69343 -58024.9128177,-5696842.56332 -58068.9902221,-5696614.39747 -58115.0592689,-5696386.10615 -58164.7074435,-5696159.0885 -58221.7621595,-5695934.60236 -58296.3042719,-5695714.01099 -58373.710191,-5695495.2383 -58440.0693798,-5695271.66539 -58484.0835319,-5695034.50954 -58529.4077286,-5694802.26868 -58604.9547669,-5694593.60921 -58802.5455518,-5694485.69897 -59016.8447695,-5694381.23339 -59211.3747542,-5694252.52804 -59394.7903676,-5694110.03157 -59569.5156035,-5693948.59377 -59692.6426004,-5693757.42688 -59740.1829294,-5693532.54583 -59770.0468839,-5693296.78556 -59830.6242794,-5693072.58222 -59912.9531933,-5692856.50303 -60010.0000243,-5692643.99413 -60116.4148566,-5692437.39175 -60232.3837599,-5692235.68476 -60368.6126696,-5692046.19423 -60536.4348007,-5691886.19647 -60716.8305668,-5691735.40158 -60907.3152021,-5691601.96192 -61113.6189277,-5691497.5099 -61343.0612766,-5691439.07472 -61573.7428545,-5691432.03397 -61803.9841722,-5691477.49255 -62023.8826791,-5691557.08443 -62232.2193141,-5691659.39252 -62433.2543738,-5691780.65011 -62622.5354759,-5691913.64184 -62785.9814624,-5692080.74313 -62941.6830271,-5692251.82995 -63084.3260805,-5692437.73134 -63215.6152889,-5692685.31353 -63485.711897,-5692923.14661 -63702.5847134,-5692994.42931 -63958.0853765,-5692810.42099 -64240.3487131,-5692583.25078 -64438.2122707,-5692356.90355 -64659.548934,-5692162.05907 -64813.5006733,-5692023.93156 -65022.9995824,-5691918.78311 -65234.558003,-5691826.49784 -65459.6611741,-5691758.84468 -65687.9588058,-5691733.96539 -65920.4816739,-5691760.2897 -66145.4015578,-5691824.57082 -66366.7113359,-5691887.08033 -66583.4750366,-5691881.41695 -66783.586538,-5691797.85026 -66830.8135876,-5691560.01538 -66824.8093242,-5691250.57943 -66832.6882293,-5691018.72168 -66841.7806941,-5690786.28774 -66873.055881,-5690556.95367 -66911.2684729,-5690326.68298 -66950.5084746,-5690096.84741 -66975.9048675,-5689865.38545 -67006.9649534,-5689636.56504 -67086.4362162,-5689418.68725 -67184.5138462,-5689206.63376 -67264.6700334,-5688987.71415 -67381.7276246,-5688846.92254 -67435.0558257,-5688666.17112 -67396.0601458,-5688499.22886 -67223.5618755,-5688366.67754 -67043.7373433,-5688201.10708 -67083.9085439,-5688021.68334 -67240.2427243,-5687980.85801 -67411.8924663,-5688095.97408 -67535.540976,-5688210.6144 -67893.121757,-5688381.98044 -68299.5788162,-5688500.29806 -68658.9341246,-5688481.66709 -69024.0725818,-5688459.67414 -69325.0150217,-5688330.79299 -69527.7543112,-5688281.05046 -69773.2079613,-5688104.19693 -69944.8305807,-5687901.51206 -70112.8886094,-5687658.07827 -70177.2563094,-5687327.23248 -70230.7857194,-5687034.5456 -70335.73999,-5686677.66054 -70408.6915733,-5686475.19394 -70423.5938028,-5686195.93226 -70441.0481286,-5685917.50931 -70431.6720088,-5685673.25436 -70509.7834985,-5685600.38153 -70586.0559816,-5685446.67591 -70315.5022935,-5685427.22533 -70113.7873138,-5685401.94353 -69934.4763387,-5685319.7865 -69762.2184468,-5685218.69686 -69384.4969894,-5685060.58005 -68973.1447376,-5684900.08117 -68545.2642895,-5684794.58815 -68144.8336288,-5684648.89029 -67698.093687,-5684462.13179 -67364.798574,-5683961.91566 -67020.8495387,-5683574.29972 -66594.3388359,-5683343.78604 -66271.8524961,-5683329.0962 -65753.0348939,-5683470.17638 -65378.7673963,-5683502.22042 -65033.0813267,-5683591.433 -64714.7459213,-5683547.49972 -64448.2976774,-5683049.55471 -64289.074903,-5682822.20553 -64229.5771441,-5682710.51337 -64130.2494563,-5682652.79818 -64027.5725949,-5682545.8211 -63809.5488433,-5682464.09054 -63581.8347692,-5682422.94724 -63342.3535585,-5682441.01205 -63168.4372576,-5682571.88818 -63031.5694258,-5682767.39734 -62835.7172075,-5682891.15938 -62636.8799643,-5683019.10765 -62443.9793186,-5683134.18971 -62215.1096018,-5683090.62204 -61983.2264461,-5683058.7377 -61750.7136054,-5683084.36234 -61516.2226767,-5683142.09474 -61325.7801322,-5683042.13736 -61152.8870214,-5682875.60968 -60963.3929191,-5682739.11078 -60733.8582537,-5682677.09331 -60496.8301429,-5682627.04115 -60284.7409008,-5682548.4335 -60131.9813427,-5682396.12836 -60034.7595025,-5682177.36056 -59940.1191632,-5681955.9311 -59838.0487885,-5681747.4622 -59705.1230857,-5681556.92582 -59576.4895846,-5681363.12036 -59455.5388341,-5681164.33326 -59332.5971318,-5680965.67084 -59154.2069074,-5680826.96757 -58945.4629966,-5680718.15922 -58747.4458692,-5680593.18333 -58567.74606,-5680449.56334 -58412.7065378,-5680276.90514 -58259.1900417,-5680100.65225 -58092.0188207,-5679933.75346 -57884.6473307,-5679838.84887 -57657.4108695,-5679785.67384 -57426.9444966,-5679748.69412 -57192.4123181,-5679738.4574 -56967.951521,-5679785.06002 -56749.789618,-5679868.24931 -56534.0866188,-5679954.78276 -56330.2541018,-5680083.05015 -56119.020206,-5680065.85159 -55911.2287017,-5679944.48456 -55786.3263056,-5679754.43244 -55585.0634964,-5679621.6587 -55391.5772972,-5679485.39663 -55269.3251025,-5679309.66949 -55249.320019,-5679075.03484 -55249.4124105,-5678834.1383 -55245.8376063,-5678602.46822 -55234.8260677,-5678367.76729 -55178.0200503,-5678143.94236 -54994.2959304,-5677904.60851 -54688.8566454,-5677752.39172 -54472.3982676,-5677672.04459 -54214.0096045,-5677540.85726 -54193.0969672,-5677530.17753 -53932.3373101,-5677301.68113 -53742.8781601,-5677122.17714 -53522.3664043,-5676941.62614 -53273.1105911,-5676693.41131 -52997.4163071,-5676469.84756 -52742.0040094,-5676235.01161 -52480.9120652,-5675870.08602 -52316.0234021,-5675580.57678 -52145.4597992,-5675256.43761 -51879.093523,-5675105.75028 -51815.0513445,-5674997.322 -51824.3384733,-5674600.40049 -51775.0663571,-5674285.62721 -51830.2999405,-5673939.79554 -51790.4412476,-5673667.41251 -51605.6041647,-5673446.12273 -51389.4932406,-5673307.76472 -51219.5103687,-5673215.48784 -51105.0616839,-5673104.22708 -51044.5515783,-5672761.66726 -50960.22082,-5672644.51481 -50826.7632752,-5672540.9448 -50604.2744266,-5672408.48216 -50497.2693719,-5672224.78003 -50383.7089955,-5671976.51458 -50333.506454,-5671746.25935 -50387.7876175,-5671408.97867 -50387.4925764,-5671070.12855 -50310.4699528,-5670838.55838 -50268.833413,-5670629.25554 -50162.2861309,-5670508.49724 -50027.641866,-5670390.00331" style="stroke-linejoin:round;stroke:#000;stroke-width:1px;fill:none" /></g></g></svg>