<svg xmlns="http://www.w3.org/2000/svg" baseProfile="full" height="78225.7138515" version="1.1" viewBox="26666.876396,3781082.352001,84947.958865,78225.713852" width="84947.9588653"><defs><style type="text/css">polyline,line,rect,path,polygon,.polygon{fill:none;stroke:#000;stroke-width:1px;stroke-linejoin:round;}</style></defs><g fill_rule="evenodd" transform="scale(1,-1)"><g class="id" id="82056"><polygon class="_82056" id="None" points="110187.13238,-3788827.50457 110198.603196,-3788834.05889 110322.235103,-3788884.7995 110327.210781,-3788931.00964 110324.408486,-3788956.05921 110287.361934,-3788985.88521 110230.337938,-3788988.52257 110102.271991,-3788985.84186 109952.248073,-3788982.9868 109810.443994,-3788919.95636 109703.06499,-3789023.26291 109615.576282,-3789104.87023 109525.428366,-3789162.13164 109416.311646,-3789219.10679 109347.38044,-3789270.08486 109304.84128,-3789353.00029 109270.945994,-3789453.55185 109227.927639,-3789556.94017 109154.3324,-3789636.53069 109077.23091,-3789695.79809 108968.487534,-3789742.78228 108807.669872,-3789784.73539 108726.494834,-3789795.26386 108653.048182,-3789818.97274 108512.34458,-3789845.20461 108431.580665,-3789886.64961 108422.159431,-3789961.33927 108405.19109,-3790074.22856 108329.764622,-3790144.90879 108145.064217,-3790235.15473 107994.333678,-3790266.75266 107936.014132,-3790341.28173 107861.596477,-3790418.9094 107737.090674,-3790497.91763 107651.150478,-3790501.14212 107553.284165,-3790492.34143 107493.352083,-3790590.38016 107522.529241,-3790636.6815 107574.238239,-3790705.08705 107632.940815,-3790773.72899 107713.278858,-3790880.47359 107788.085165,-3790919.57452 107830.995875,-3791032.71234 107858.960629,-3791146.41095 107893.577647,-3791297.77655 107808.718525,-3791416.20829 107731.723926,-3791504.90968 107722.820977,-3791580.07962 107759.951144,-3791625.58309 107829.938004,-3791675.84013 107962.184687,-3791636.9509 107998.307741,-3791735.3758 108018.545266,-3791855.84976 107993.030711,-3792013.46325 107927.210638,-3792140.66005 107866.638904,-3792228.24657 107742.849076,-3792259.83463 107653.422392,-3792283.14805 107610.680535,-3792380.5426 107650.595518,-3792440.4095 107728.415829,-3792599.63211 107682.983527,-3792685.15403 107554.530305,-3792871.57892 107396.891054,-3793104.50091 107303.931782,-3793219.74705 107199.954834,-3793313.95413 107129.025701,-3793371.49779 107048.252756,-3793465.83163 106972.054833,-3793628.8434 107016.816245,-3793691.52162 107121.767103,-3793749.44457 107275.890514,-3793801.52919 107376.017023,-3793897.05109 107496.026334,-3794063.66852 107536.907923,-3794222.28194 107608.679723,-3794399.69103 107711.566685,-3794515.56327 107726.03573,-3794641.74172 107669.917253,-3794701.72317 107602.232158,-3794732.70379 107499.030585,-3794754.5418 107340.168201,-3794795.43399 107283.888313,-3794864.40222 107249.601531,-3794980.93833 107261.852406,-3795081.25752 107329.70366,-3795187.46997 107479.825179,-3795345.47054 107656.922043,-3795550.8507 107728.371687,-3795639.96425 107758.814276,-3795819.424 107832.751136,-3795934.8857 107955.658691,-3795946.23116 108024.009764,-3795919.71478 108127.040166,-3795873.43561 108192.039254,-3795976.76011 108192.654454,-3796105.95288 108166.990726,-3796246.11151 108139.877527,-3796400.79291 108101.352792,-3796590.32776 108091.459943,-3796619.13718 108058.151711,-3796715.18109 107998.152411,-3796811.23074 107920.751698,-3796888.97638 107782.259546,-3796974.0081 107699.406524,-3797019.53019 107618.340533,-3797125.85179 107628.947441,-3797202.28459 107685.890769,-3797250.53304 107785.44145,-3797284.20779 107868.731139,-3797310.0125 107944.199413,-3797340.1025 107990.05311,-3797405.23151 108173.467398,-3797599.39274 108259.746754,-3797691.43867 108249.435296,-3797762.17177 108148.813244,-3797839.29468 108048.81187,-3797840.06208 107908.080204,-3797878.78133 107891.487323,-3797968.21048 107919.745798,-3798062.93746 107966.317615,-3798140.51173 108020.748242,-3798214.79689 108060.122743,-3798306.61102 108087.328923,-3798399.88057 108096.797528,-3798532.23289 108111.40919,-3798655.41144 108121.695721,-3798749.81623 108087.532587,-3798862.85593 108062.189655,-3798991.52884 107999.427679,-3799186.46726 107968.411026,-3799456.0451 107948.916423,-3799534.60782 107906.472593,-3799606.55055 107887.288644,-3799726.51084 107920.555225,-3799815.06197 107924.055872,-3799868.3131 107929.677873,-3799951.41872 107967.782026,-3800075.70883 108007.541585,-3800144.55809 108084.063552,-3800268.89879 108094.290316,-3800368.29477 108060.035597,-3800478.84416 108045.352967,-3800625.57589 108075.285904,-3800738.19943 108107.651283,-3800875.67655 108158.163599,-3801011.47261 108197.206417,-3801114.27374 108271.235705,-3801218.75103 108347.791587,-3801184.93685 108430.612381,-3801151.88468 108519.907919,-3801191.42852 108571.284909,-3801277.301 108586.061085,-3801391.49208 108564.575658,-3801470.1297 108537.159952,-3801537.017 108476.202428,-3801640.58935 108413.969362,-3801710.2845 108428.580417,-3801839.94795 108486.418012,-3801898.63614 108519.520937,-3802002.65797 108481.150777,-3802182.70998 108462.666124,-3802367.50118 108498.245109,-3802490.88682 108493.849463,-3802572.87239 108498.215009,-3802649.04005 108529.089121,-3802713.73227 108557.69748,-3802784.49662 108505.92574,-3802880.24037 108529.345716,-3803018.55196 108654.469398,-3803062.23206 108733.762515,-3803054.75496 108838.362741,-3803076.75749 108921.289728,-3803126.01811 108935.027584,-3803199.3378 108868.834486,-3803263.19617 108737.074225,-3803301.58631 108639.586815,-3803322.72052 108548.724347,-3803374.03824 108537.725129,-3803472.73641 108588.763083,-3803529.684 108668.730752,-3803639.42295 108767.982008,-3803837.23952 108829.383896,-3803970.62696 108931.088954,-3803995.23192 109070.060185,-3804095.26308 109082.463176,-3804186.09429 109131.014004,-3804263.09078 109230.359247,-3804291.27651 109376.71464,-3804282.76774 109470.193708,-3804413.44832 109532.618719,-3804487.92585 109635.629857,-3804606.77211 109675.30347,-3804666.64107 109720.846495,-3804743.2512 109763.869092,-3804958.15032 109756.289078,-3805048.23724 109741.685979,-3805177.00388 109784.461757,-3805239.74894 109844.288608,-3805304.84453 109919.734236,-3805340.91424 109989.967637,-3805377.67926 110058.59673,-3805457.90847 110117.632836,-3805554.96269 110194.038393,-3805689.27781 110226.608757,-3805818.75981 110246.50256,-3805989.13002 110177.802134,-3806079.02673 110223.388644,-3806150.14622 110295.41239,-3806201.31081 110364.719759,-3806246.59104 110475.978176,-3806279.81253 110548.481884,-3806304.01862 110618.192663,-3806373.23017 110686.384594,-3806474.92675 110728.74207,-3806559.6374 110774.262638,-3806642.23312 110801.693594,-3806728.00543 110826.680427,-3806828.33768 110842.277605,-3806904.57842 110887.140805,-3806969.73752 110900.067994,-3807081.00115 110872.097754,-3807179.3396 110899.030657,-3807291.57159 110971.870763,-3807456.94958 110910.941139,-3807561.02146 110844.775933,-3807671.77659 110864.081922,-3807760.34952 110929.568418,-3807843.18902 110977.125216,-3807920.21929 111002.682224,-3808002.56952 111013.777648,-3808157.80424 111037.591023,-3808319.54349 111114.850933,-3808416.90479 111192.355281,-3808494.30116 111280.076966,-3808511.94421 111312.829898,-3808632.93564 111252.658559,-3808697.56731 111155.593925,-3808802.50466 111088.988443,-3808835.45051 111028.685484,-3808896.59524 110960.007341,-3808934.10944 110885.674901,-3808894.50916 110781.592516,-3808846.55264 110694.467418,-3808904.21985 110634.173691,-3808978.83462 110544.755122,-3809055.04763 110492.51686,-3809118.38298 110444.066747,-3809189.55771 110318.567455,-3809268.13076 110201.78602,-3809319.93359 110118.768206,-3809367.46875 110020.945133,-3809353.20093 109940.784372,-3809370.69463 109834.01364,-3809463.02945 109862.091812,-3809559.25435 109760.195184,-3809668.36801 109629.974898,-3809621.89728 109518.719266,-3809635.07722 109335.701897,-3809736.27793 109255.380883,-3809762.75836 109123.050305,-3809772.7429 109060.231814,-3809813.52972 109017.270736,-3809871.5274 108934.929125,-3809936.99868 108839.473059,-3809906.1781 108792.491656,-3809851.07683 108724.092958,-3809816.74014 108651.34333,-3809865.38564 108626.961113,-3809933.15921 108598.588805,-3810007.56921 108489.744432,-3810104.4747 108403.232894,-3810132.18724 108336.470658,-3810167.63559 108241.664029,-3810220.10783 108159.918187,-3810255.12422 108116.740897,-3810320.61451 108049.898704,-3810360.55631 107946.096973,-3810452.28339 107861.542629,-3810584.69333 107804.575454,-3810641.72439 107716.594145,-3810742.83286 107658.556746,-3810850.79334 107623.210109,-3810925.46792 107544.252217,-3811001.29062 107489.855871,-3811053.73489 107425.142525,-3811090.6037 107390.280702,-3811184.71783 107363.121422,-3811251.59989 107280.227192,-3811394.92496 107184.748973,-3811475.86262 107107.504316,-3811484.76714 106995.961635,-3811576.29011 106975.966531,-3811674.33362 106943.825461,-3811741.40437 106887.779554,-3811796.40638 106796.90588,-3811840.75011 106682.357464,-3811872.51752 106586.501548,-3811917.04963 106495.176983,-3811975.87927 106402.364351,-3812081.16458 106369.453942,-3812180.69468 106339.55845,-3812327.00927 106338.302077,-3812399.39987 106312.320473,-3812510.64244 106235.373128,-3812560.44808 106174.867872,-3812636.07528 106183.416556,-3812717.07611 106230.265144,-3812775.17621 106264.001007,-3812842.75227 106213.083403,-3812993.85308 106146.53638,-3813021.81267 106009.109106,-3812996.07279 105919.868819,-3813004.43423 105867.432047,-3813135.1374 105783.77185,-3813165.7396 105695.762385,-3813167.0698 105620.561484,-3813183.88149 105492.392204,-3813238.11848 105464.755993,-3813331.96268 105374.446402,-3813391.25518 105271.41181,-3813338.27171 105235.037816,-3813260.31728 105178.225559,-3813143.22112 105122.173654,-3813092.45319 105020.395997,-3813079.33579 104960.695806,-3813011.24315 104905.114806,-3812887.11496 104901.927584,-3812782.95969 104815.808959,-3812735.32313 104699.636631,-3812671.35954 104574.026927,-3812621.72235 104392.725162,-3812583.66887 104357.235008,-3812502.68635 104308.228587,-3812347.87383 104275.436769,-3812272.27744 104183.871689,-3812146.5136 104074.754858,-3812104.23515 103908.724389,-3812206.30234 103817.46795,-3812273.61328 103682.838445,-3812355.03634 103578.10984,-3812395.91414 103473.756401,-3812420.313 103311.771779,-3812517.23926 103251.093683,-3812561.94139 103146.987765,-3812559.88751 103037.400547,-3812643.85801 102953.45625,-3812693.43095 102830.628773,-3812691.0867 102693.161122,-3812717.23621 102504.910223,-3812719.85863 102398.839334,-3812731.84947 102334.823674,-3812780.66985 102190.666319,-3812893.88843 102110.779814,-3812892.41653 102030.560061,-3812901.93398 101939.707553,-3812993.18113 101808.541522,-3813106.90755 101715.303806,-3813069.01836 101640.654317,-3813001.48781 101515.61783,-3812947.33686 101387.946431,-3812935.69584 101323.629267,-3812890.72609 101306.050909,-3812815.05126 101235.127461,-3812819.72688 101167.950354,-3812923.55177 101046.616326,-3812947.59553 100985.837357,-3812884.03076 100906.1555,-3812861.59512 100714.145923,-3812976.12482 100629.685441,-3812992.28904 100458.239741,-3813017.22868 100420.743907,-3813094.48642 100269.201584,-3813071.7725 100123.181442,-3813129.18156 100052.207675,-3813178.76534 99924.6585287,-3813210.02995 99781.1292347,-3813181.52471 99637.1273258,-3813285.76002 99549.97035,-3813349.42764 99396.0206193,-3813342.27255 99329.1496611,-3813388.20914 99174.3044408,-3813429.98606 99081.1853825,-3813382.11217 99007.9948032,-3813392.86149 98979.7959242,-3813465.27869 98876.4597438,-3813536.54387 98666.1861674,-3813590.39532 98545.3642989,-3813588.47503 98454.4229596,-3813578.43994 98367.81819,-3813617.13954 98265.2936533,-3813591.07633 98191.8980822,-3813563.41322 98091.7068213,-3813572.68836 98011.1240606,-3813546.29473 97931.2829456,-3813585.73679 97788.1300736,-3813705.90978 97705.5193779,-3813731.48561 97610.1277011,-3813755.54867 97523.7088968,-3813772.78602 97443.8631072,-3813818.71529 97368.0453177,-3813859.00371 97276.3741358,-3813849.49524 97197.7404477,-3813887.8943 97156.2244442,-3813957.82269 97076.2977521,-3814067.62392 96977.9390139,-3814085.81195 96896.6205452,-3814039.9862 96822.7469063,-3813979.90768 96747.93644,-3813974.25274 96640.2943246,-3814004.26803 96454.8894375,-3814029.738 96408.7004514,-3814094.85391 96365.3692421,-3814156.36903 96309.9957695,-3814229.31692 96250.3100097,-3814273.98616 96148.9068916,-3814403.06287 96099.0623903,-3814490.27248 96036.4435177,-3814536.54984 95946.4241607,-3814577.37637 95872.0333437,-3814602.64274 95720.2886634,-3814700.19186 95590.3843854,-3814748.51436 95441.3949499,-3814793.56667 95386.2790066,-3814853.53245 95291.5335528,-3814940.94375 95149.3099633,-3815013.18487 95125.8011944,-3815005.09198 94870.1563385,-3814914.96032 94721.6503363,-3814834.25021 94666.5076373,-3814787.9332 94526.8300154,-3814716.36968 94449.0241992,-3814657.93554 94367.7255029,-3814665.49989 94284.3643437,-3814691.10584 94173.2563289,-3814741.71233 94091.2513224,-3814803.19446 94035.4600676,-3814898.11602 94045.5316551,-3814999.5294 94066.0084171,-3815131.98578 94006.0364236,-3815261.49608 93925.7485347,-3815276.00868 93855.3109183,-3815320.08837 93786.9814584,-3815393.52899 93632.1437569,-3815468.74392 93502.5988965,-3815520.04894 93447.4047006,-3815610.9571 93414.3736465,-3815687.5544 93392.2232818,-3815801.16491 93316.7191208,-3815915.79527 93301.6453125,-3815992.21267 93224.6317724,-3816099.91446 93152.8355696,-3816200.43317 93079.8778466,-3816349.3987 93022.2516907,-3816468.34371 92924.6391517,-3816572.3345 92814.9210835,-3816666.30446 92745.0380547,-3816711.86186 92688.4480693,-3816798.83243 92535.2863189,-3816859.01737 92467.0578865,-3816954.91155 92392.2207826,-3817106.94404 92446.6926425,-3817188.21643 92512.3652951,-3817255.59192 92481.0105636,-3817350.09136 92389.2270535,-3817449.87125 92391.7506734,-3817582.51016 92461.2308594,-3817598.84325 92521.5559791,-3817636.97974 92542.3830959,-3817706.05177 92506.639829,-3817770.27838 92410.9740896,-3817826.7925 92344.9119359,-3817861.22844 92250.2370923,-3817864.811 92177.9165392,-3817885.51177 92116.7267768,-3817943.2166 92044.4117403,-3818016.81164 91963.7817998,-3818055.29217 91936.867762,-3818128.6663 91987.0785539,-3818222.57492 92063.2958843,-3818285.05997 92065.379061,-3818419.21312 91997.8993617,-3818515.0808 91969.4074731,-3818599.49289 91921.3533135,-3818707.59969 91814.016287,-3818732.62065 91794.3617609,-3818813.20545 91756.6696904,-3818931.39948 91645.9025091,-3819050.3638 91522.5035595,-3819204.7371 91444.7811502,-3819379.33798 91423.4078394,-3819546.31674 91360.8213312,-3819633.01865 91304.9279866,-3819711.98214 91250.3936109,-3819793.88833 91149.7070112,-3819849.59758 91002.79302,-3819844.18198 90943.237385,-3819958.21535 90917.9249587,-3820047.49873 90855.9454193,-3820209.52925 90777.3531584,-3820301.82845 90686.1717028,-3820358.17664 90627.4700894,-3820422.27719 90585.4349494,-3820498.22199 90524.8978623,-3820685.14954 90470.7188041,-3820750.07718 90428.4007736,-3820818.54779 90381.1410807,-3820947.58638 90411.3257558,-3821013.31104 90411.9597625,-3821109.09778 90376.4747127,-3821193.27827 90300.0385256,-3821270.02777 90228.7362878,-3821284.70501 90108.6382676,-3821335.16372 90023.2740413,-3821406.76259 89999.770979,-3821484.50149 89944.9807076,-3821579.39423 89833.852198,-3821695.38406 89779.5377283,-3821796.24731 89748.6622384,-3821863.78648 89678.6438928,-3821978.21941 89633.0233447,-3822058.29385 89563.3780647,-3822090.37472 89497.1797284,-3822160.74958 89402.9937452,-3822276.09881 89313.2400243,-3822416.2314 89248.0042758,-3822479.08492 89207.3633177,-3822565.45862 89196.36117,-3822703.10658 89052.14134,-3822841.31188 88962.4965225,-3822925.05188 88881.7914071,-3823027.41616 88813.4635075,-3823067.93155 88754.7247203,-3823131.03871 88584.762741,-3823103.54647 88509.8876606,-3823096.40366 88431.0615231,-3823162.76748 88440.346335,-3823249.74524 88493.1498547,-3823313.11638 88579.011842,-3823379.72568 88651.6147567,-3823405.91733 88783.2933596,-3823417.39416 88844.5086071,-3823518.37196 88809.0376956,-3823648.96384 88754.2930931,-3823837.17531 88731.8363288,-3824001.70687 88692.2723329,-3824083.54984 88551.505501,-3824148.27053 88493.5407547,-3824198.87364 88442.3940958,-3824258.20081 88307.5240335,-3824333.67699 88217.9506458,-3824392.96418 88187.0777009,-3824493.44139 88216.998956,-3824591.61359 88229.65072,-3824727.86768 88223.5390876,-3824829.90125 88295.3645512,-3824842.14855 88387.0336387,-3824805.23769 88478.5729981,-3824830.71021 88493.9112761,-3824925.9418 88487.0972349,-3825016.02507 88582.5677637,-3825072.78694 88618.1634358,-3825169.24628 88561.6390079,-3825251.23415 88442.711964,-3825404.95357 88365.11052,-3825549.62062 88314.1880012,-3825621.41595 88239.4908339,-3825711.08009 88177.1622119,-3825751.86941 88125.3565171,-3825826.69269 88098.378883,-3825957.46371 88057.4004541,-3826034.87067 88016.0562813,-3826188.1442 88027.7377771,-3826279.02363 87989.7925732,-3826383.76244 87922.20606,-3826437.22761 87851.9369751,-3826452.86823 87737.3973108,-3826538.05676 87693.5771641,-3826626.05183 87663.0333359,-3826761.45043 87588.5972805,-3826792.22044 87512.1091375,-3826788.63503 87386.4199051,-3826790.40958 87333.4578735,-3826841.32439 87287.1529403,-3826916.4394 87253.894251,-3827039.46589 87224.3831432,-3827142.8879 87160.8997916,-3827192.70516 87073.7507696,-3827197.50916 86952.5546379,-3827219.07523 86930.1969516,-3827313.74259 86892.0955465,-3827388.04786 86811.9495106,-3827452.47085 86686.3972161,-3827484.1834 86621.4598185,-3827528.56694 86504.0765232,-3827663.7699 86406.4223577,-3827746.82331 86354.8951574,-3827802.67521 86290.2701531,-3827835.56935 86150.6374697,-3827890.77288 86100.6018775,-3827953.05596 85983.5259748,-3828010.89696 85894.4845101,-3828117.07938 85821.1705936,-3828124.85244 85722.4485276,-3828120.61473 85630.4915954,-3828117.11832 85553.4654811,-3828112.55615 85422.2327307,-3828231.31958 85312.7757754,-3828305.83973 85238.0785121,-3828395.50922 85087.7786042,-3828393.22949 84976.4349974,-3828483.79128 84798.8061327,-3828629.26968 84724.6643458,-3828680.99105 84596.5409954,-3828789.65733 84499.3244336,-3828838.2625 84323.2514609,-3828860.41726 84237.3828219,-3828905.59751 84162.4710448,-3828963.33728 84109.7130407,-3829026.22475 83971.6506167,-3829155.73083 83822.8588265,-3829199.80708 83746.8494954,-3829228.64376 83657.3564308,-3829276.95658 83522.7254871,-3829365.41067 83392.5701333,-3829433.73276 83332.5577557,-3829476.43508 83259.1154597,-3829507.1709 83153.6500135,-3829529.14147 83056.4323835,-3829538.32241 82958.4037927,-3829598.43835 82888.3360817,-3829626.05187 82812.3009341,-3829627.94081 82673.685731,-3829631.2078 82587.5760015,-3829696.36119 82457.0724959,-3829768.69011 82354.7886088,-3829789.0431 82215.8855471,-3829830.74922 82082.7826313,-3829887.20719 81927.2222974,-3829969.97049 81865.3892062,-3830010.74668 81791.4569277,-3830061.46466 81696.0072763,-3830136.95511 81564.8498929,-3830251.23193 81457.4775665,-3830328.17369 81363.8128499,-3830358.6806 81266.5870078,-3830380.83859 81175.0542632,-3830401.78228 81054.0336336,-3830480.74009 80869.5580214,-3830584.0673 80755.3118992,-3830604.87575 80659.1482838,-3830609.02709 80551.1157461,-3830662.03947 80439.2697142,-3830713.20051 80360.2109074,-3830740.65794 80280.2372579,-3830757.17048 80168.1194405,-3830774.90392 80088.8016285,-3830782.40821 80013.0163393,-3830777.80046 79863.2217216,-3830821.9189 79771.5709108,-3830846.36127 79700.6652773,-3830897.96421 79614.1214481,-3830984.59775 79530.9460097,-3831041.65774 79433.7402877,-3831057.82701 79331.1942603,-3831058.22854 79224.1724894,-3831078.76336 79146.4690732,-3831115.65248 79094.3935026,-3831150.57004 79078.8244502,-3831161.14309 78992.8226127,-3831235.77885 78906.6345143,-3831298.94288 78823.4519465,-3831329.55234 78753.0943106,-3831356.18108 78655.6764487,-3831373.35698 78553.6468059,-3831374.23825 78476.7155259,-3831398.62136 78414.4988307,-3831435.9209 78322.0934689,-3831512.79704 78261.4071715,-3831596.95286 78210.7261567,-3831681.72688 78171.5736354,-3831748.09582 78112.3061542,-3831790.77365 78032.7160308,-3831843.70633 77893.5644601,-3831911.87833 77802.6964129,-3832062.06336 77717.3551617,-3832075.28764 77655.3972154,-3832132.54178 77604.1701867,-3832196.37556 77459.9290412,-3832202.85423 77424.2651434,-3832269.09141 77386.3624795,-3832368.35388 77295.7737945,-3832453.6474 77236.430263,-3832494.3326 77141.3302587,-3832552.84669 77068.997981,-3832619.47945 76961.2959184,-3832655.01514 76880.7772026,-3832683.52877 76770.7994061,-3832790.52196 76700.6810429,-3832961.38243 76622.7978308,-3833052.68261 76573.0730286,-3833142.91278 76487.8224368,-3833165.11849 76400.3290589,-3833187.40948 76391.9946067,-3833263.58936 76364.348471,-3833402.89071 76210.7174044,-3833484.09409 76146.2366221,-3833566.90019 76063.9438124,-3833660.36548 75978.9521714,-3833787.87247 75822.7691943,-3833959.51148 75738.3632309,-3833977.69316 75724.2208377,-3834098.01565 75777.2133169,-3834244.73396 75660.1063712,-3834262.6618 75573.523048,-3834262.9588 75555.5454972,-3834387.42024 75539.5702423,-3834492.34052 75471.9300461,-3834524.85847 75333.5884593,-3834489.69058 75255.3700743,-3834559.04554 75187.2131059,-3834676.43147 75096.3871889,-3834821.13221 75006.6377022,-3834915.3824 74914.6435078,-3834970.28855 74835.1041661,-3834991.78001 74781.2510592,-3835144.05969 74761.5406302,-3835288.55279 74722.5616861,-3835398.84105 74720.4195682,-3835565.62528 74689.8895722,-3835642.15201 74584.5124694,-3835660.13476 74466.1586848,-3835632.19368 74411.6601477,-3835682.18106 74431.2637009,-3835830.17084 74487.4052653,-3835882.43875 74560.5327791,-3835928.57032 74669.3247573,-3835993.80885 74702.5159013,-3836059.42723 74696.8920354,-3836167.44903 74796.7696872,-3836280.44172 74896.3601263,-3836438.36496 74892.3483848,-3836542.83151 74829.7571246,-3836649.0275 74757.5990212,-3836713.66231 74677.2743497,-3836780.10524 74611.0779231,-3836844.01433 74574.5115988,-3837011.1106 74510.4334907,-3837097.89852 74432.1836165,-3837153.28255 74363.8256818,-3837206.29386 74302.8949865,-3837283.97832 74261.3636794,-3837359.92651 74214.7889339,-3837441.05782 74147.5366271,-3837555.9176 74112.2759491,-3837626.13718 74070.8991855,-3837699.58425 74031.7705037,-3837759.96884 73973.5143088,-3837907.92752 73916.1321752,-3837980.48662 73824.359539,-3838152.68061 73795.7058643,-3838239.12011 73725.5441,-3838297.19245 73661.2819892,-3838366.02092 73540.5795043,-3838453.46861 73350.0443896,-3838542.07715 73275.543453,-3838617.28524 73201.8840317,-3838649.03794 73128.1055779,-3838690.77763 73027.6283102,-3838771.966 72963.7013529,-3838816.82472 72858.6117463,-3838927.63717 72761.5954398,-3838981.74165 72700.4424195,-3839040.47049 72613.2156198,-3839109.17622 72500.4666062,-3839149.90445 72432.6685863,-3839191.41716 72382.9167185,-3839261.19219 72271.9814013,-3839467.56147 72190.8478411,-3839493.11106 72077.2332527,-3839589.77511 72065.2932536,-3839682.56825 72069.9410616,-3839758.75778 72088.3305196,-3839841.91099 72073.5602372,-3840017.66712 72005.0500896,-3840066.69472 71913.8954443,-3840130.56025 71886.591189,-3840199.98058 71891.6025092,-3840279.15121 71869.9368589,-3840391.78111 71815.797217,-3840457.73137 71745.3718234,-3840502.34021 71657.0245356,-3840594.05074 71605.3885778,-3840679.87115 71563.9719567,-3840811.22248 71509.8158444,-3840870.18602 71471.7606669,-3840932.52944 71456.6937183,-3841034.92613 71375.5452372,-3841099.41017 71289.023608,-3841127.6623 71215.7359856,-3841136.44336 71181.4354922,-3841205.63194 71213.174376,-3841272.30511 71188.1347437,-3841388.05953 71134.5744616,-3841443.00791 71066.5720864,-3841518.47184 70988.3379992,-3841633.25816 70921.4179212,-3841684.72266 70830.7734008,-3841716.12733 70730.1558259,-3841813.29881 70705.4749962,-3841892.60344 70694.1209572,-3842013.827 70655.5393345,-3842101.64753 70561.7855389,-3842143.1539 70475.7498114,-3842151.4232 70405.9790588,-3842187.02455 70334.5637092,-3842264.61624 70431.1715257,-3842389.71304 70486.3249811,-3842435.52881 70604.902959,-3842501.88815 70709.9523578,-3842553.78871 70820.1205681,-3842550.08997 70895.404921,-3842587.15217 70912.9355868,-3842667.34414 70910.7318673,-3842773.24489 70991.817736,-3842883.95783 71122.018662,-3842823.09303 71218.7839992,-3842827.89082 71312.399071,-3842959.58858 71320.6881712,-3843046.12195 71221.6604093,-3843152.21845 71085.7887542,-3843149.41053 70952.6558913,-3843152.98696 70885.6582961,-3843208.94787 70808.4979413,-3843273.28238 70717.8537121,-3843304.68871 70651.0740062,-3843340.17693 70558.397984,-3843370.66252 70495.0120972,-3843403.5258 70444.8441492,-3843462.33968 70405.5808796,-3843584.62781 70468.94877,-3843714.98345 70402.261764,-3843759.45303 70278.0624865,-3843814.10114 70198.8881071,-3843825.60446 70115.0245623,-3843871.22812 70010.2711003,-3843958.0786 69949.4866379,-3844006.81583 69856.9832533,-3844035.29912 69789.3034967,-3844066.82932 69719.414388,-3844112.4198 69645.8507239,-3844140.18125 69534.7614781,-3844198.32361 69471.220884,-3844233.68939 69395.0195429,-3844238.09172 69328.3933295,-3844271.07948 69276.7569375,-3844363.39332 69135.9220657,-3844459.60699 68987.5594769,-3844423.83385 68892.9628377,-3844403.9802 68736.2757218,-3844437.90586 68678.9729767,-3844505.97808 68620.2627849,-3844654.96628 68541.9904066,-3844716.35098 68430.586291,-3844681.16544 68364.3678632,-3844639.76474 68276.1806235,-3844598.20322 68166.5521877,-3844583.41494 68080.1465969,-3844601.68362 67986.1183699,-3844655.6828 67841.8387695,-3844785.97185 67792.9432538,-3844878.18293 67762.7475748,-3844943.72511 67689.9102511,-3845088.76135 67638.607396,-3845157.10512 67584.533181,-3845316.40097 67527.6167656,-3845374.97589 67459.0969763,-3845449.96636 67409.0424324,-3845511.77387 67345.1522061,-3845557.63688 67271.5868956,-3845585.40007 67160.9832887,-3845617.07151 67042.7804792,-3845730.89486 66972.7335662,-3845785.47868 66908.5897008,-3845844.3299 66738.6253803,-3845844.32262 66608.6856439,-3845735.46923 66485.9392691,-3845730.1669 66405.5366457,-3845794.63 66337.2675725,-3845863.12294 66362.1726736,-3845972.98729 66380.9360436,-3846046.14779 66336.1655646,-3846128.71964 66262.635476,-3846163.96961 66120.2466006,-3846134.4587 66035.773853,-3846157.64696 65973.7818257,-3846259.84427 65904.4733731,-3846281.45597 65843.1183587,-3846190.95121 65740.3486469,-3846179.39659 65695.1471726,-3846289.93882 65734.1589531,-3846350.84672 65804.1587968,-3846445.51427 65819.4463471,-3846538.7744 65761.3238863,-3846650.80797 65693.5234993,-3846692.32916 65638.7591713,-3846794.25155 65640.8193641,-3846887.51725 65635.2128782,-3846976.08374 65590.9472967,-3847039.16998 65409.8346053,-3847002.15219 65313.0713624,-3847030.30274 65235.4940618,-3847070.69984 65145.529617,-3847120.05544 64998.6893291,-3847157.10491 64916.8674148,-3847099.32738 64902.2236735,-3847029.50284 64907.7474278,-3846899.50757 64829.0365366,-3846825.13844 64759.7653145,-3846847.74765 64658.8385407,-3846884.54288 64585.2081185,-3846930.28041 64540.6505959,-3847005.35856 64519.2308832,-3847085.04506 64458.9553314,-3847153.73453 64342.2483428,-3847136.72215 64273.5465333,-3847115.38256 64196.6141446,-3847113.82474 64141.110399,-3847248.72277 64146.5289976,-3847331.8784 64037.7567247,-3847320.05436 63898.7260795,-3847267.45374 63785.7534613,-3847322.18041 63698.0727521,-3847359.46945 63588.1136974,-3847401.6019 63451.3731361,-3847441.76106 63304.0406473,-3847511.77604 63233.3830681,-3847550.41268 63146.0001211,-3847615.14571 63038.6558441,-3847693.11997 62924.9976983,-3847729.90313 62852.9706319,-3847732.65114 62745.1886686,-3847799.16122 62635.2396203,-3847867.75087 62462.1663642,-3847976.18801 62330.7602892,-3848058.07639 62163.7652257,-3848162.28877 62088.1052901,-3848194.12854 61932.4001082,-3848241.00314 61773.0453837,-3848309.98144 61699.2576914,-3848299.31887 61637.9859526,-3848361.55962 61568.9762297,-3848463.03257 61449.1597443,-3848508.53829 61324.1419526,-3848509.31533 61234.6541427,-3848492.76241 61117.5597684,-3848537.6652 60998.4601975,-3848556.18736 60887.5949985,-3848541.9477 60741.31151,-3848554.51844 60687.2880124,-3848610.493 60652.9291783,-3848684.68664 60577.1900581,-3848721.02298 60496.8163732,-3848740.56356 60338.8220879,-3848740.60235 60281.1018356,-3848784.73756 60153.6759191,-3848755.15557 60147.6670936,-3848591.14869 60041.1546472,-3848507.8533 59969.9071149,-3848524.54951 59895.6962799,-3848640.20028 59864.4230621,-3848716.77278 59769.0774535,-3848729.89593 59696.6766975,-3848755.62195 59633.0577288,-3848841.4162 59553.8035971,-3848896.85674 59470.8990582,-3848850.1003 59398.3981242,-3848762.01218 59321.8654882,-3848692.54826 59220.6746639,-3848696.40958 59171.6160221,-3848751.69635 59170.3673307,-3848823.62929 59186.6966161,-3848904.87552 59260.3528018,-3848977.44438 59310.5593073,-3849122.29405 59175.3975188,-3849184.36149 59122.7893771,-3849120.47431 59080.56194,-3849027.73626 59046.2912145,-3848934.19531 59017.8842791,-3848850.41462 58935.664663,-3848756.20722 58756.7059687,-3848651.71327 58660.2344882,-3848517.61356 58637.4212906,-3848449.59359 58547.6354889,-3848333.70908 58394.9670501,-3848211.73697 58267.2136019,-3848304.47167 58143.2156956,-3848404.05223 58088.172482,-3848466.05744 58042.9237952,-3848536.17556 57935.8100238,-3848594.17721 57840.4624201,-3848607.3003 57761.9451322,-3848629.76544 57665.2894,-3848719.81703 57627.3559376,-3848818.1115 57565.2815231,-3848990.21223 57472.8220696,-3848961.29167 57414.4104615,-3848876.15839 57357.033922,-3848791.98394 57267.605292,-3848757.4561 57203.3010044,-3848884.21402 57180.5372332,-3848967.95218 57039.7195258,-3849019.25345 56942.905771,-3849059.39055 56770.992576,-3849165.79403 56582.890276,-3849168.47923 56205.2329671,-3849155.43381 56081.7547815,-3849177.11924 55990.1796269,-3849262.98517 55871.4154884,-3849355.8795 55778.0252326,-3849420.34851 55702.1432261,-3849472.66736 55603.9165198,-3849488.89656 55522.895604,-3849478.50954 55392.2740945,-3849470.01538 55294.3611308,-3849461.77061 55197.9719209,-3849486.91572 55108.6986475,-3849502.30403 55015.5382215,-3849500.86702 54893.9880189,-3849481.5428 54804.2481835,-3849517.41722 54685.2085737,-3849629.29402 54622.4808814,-3849673.12386 54505.2967082,-3849670.10763 54362.9076503,-3849641.09489 54220.2082004,-3849623.57618 54109.1368305,-3849630.31113 54037.3995204,-3849666.99655 53973.5392663,-3849713.86527 53901.1131182,-3849745.58476 53826.4455696,-3849770.89982 53734.9255645,-3849858.26371 53658.7374373,-3849968.00735 53606.2570441,-3850044.89537 53516.495156,-3850086.76231 53421.7215894,-3850023.48208 53405.3908522,-3849942.23087 53367.0880014,-3849795.41997 53272.7256516,-3849703.66725 53147.7709835,-3849712.92898 53080.5137204,-3849768.91397 53026.1358196,-3849841.8808 52912.9201738,-3849962.52382 52811.6994817,-3849978.86785 52721.9331234,-3849968.31511 52607.8537139,-3849961.68568 52463.1745939,-3849951.23163 52344.7737022,-3849968.73057 52253.2450114,-3849951.25559 52120.0218386,-3849907.41428 51942.8755734,-3849916.17176 51803.7340064,-3849978.89482 51717.7089707,-3850086.02054 51614.618269,-3850197.29249 51442.6996318,-3850290.72259 51175.5976216,-3850401.76481 51048.1817858,-3850425.10012 50797.3758356,-3850472.61569 50622.1221863,-3850491.78599 50439.9136174,-3850557.65208 50333.6327701,-3850624.6143 50266.8438434,-3850712.53559 50208.6725071,-3850771.17146 50062.1421937,-3850849.65548 49880.7639217,-3850826.12438 49817.5021887,-3850784.1055 49697.2160456,-3850745.76093 49595.8549388,-3850771.59706 49517.2568478,-3850850.98323 49438.9688614,-3850918.87481 49280.4346014,-3850996.81922 49142.5205497,-3851046.0183 48944.3313431,-3851066.06504 48705.8746841,-3851090.64444 48643.5201779,-3851157.42923 48618.7046279,-3851305.15913 48500.9232638,-3851352.09253 48381.3180931,-3851272.78239 48292.9515407,-3851246.69916 48182.781002,-3851296.8369 48104.4312768,-3851376.21508 48038.3203078,-3851436.15415 47864.8635248,-3851456.75522 47766.5757894,-3851523.91402 47636.9463629,-3851561.31495 47475.0768814,-3851558.5076 47330.0795412,-3851559.54952 47232.5710945,-3851581.74484 47138.6038797,-3851624.77428 47041.6355534,-3851634.96661 46927.6823055,-3851631.8278 46838.363208,-3851646.22154 46744.4968574,-3851737.67658 46626.5972034,-3851788.11052 46521.2863146,-3851802.11638 46413.0540602,-3851772.29781 46320.2539048,-3851754.37185 46113.9850293,-3851778.7224 45966.8206594,-3851840.7586 45885.6204793,-3851891.28969 45819.7383521,-3851950.72229 45652.8145884,-3852044.4684 45437.7723862,-3852100.60898 45342.8851082,-3852204.58657 45206.8083416,-3852315.12979 45100.2902437,-3852389.09586 44954.4316603,-3852439.60014 44698.6705587,-3852527.75271 44490.4910621,-3852652.53365 44426.766652,-3852742.34144 44357.684929,-3852789.91479 44276.4147328,-3852812.49013 44173.53447,-3852903.29412 44095.20132,-3852983.17523 43933.7218278,-3853003.82079 43646.6292544,-3853010.29012 43537.7145149,-3853008.45766 43473.1418799,-3853043.37716 43399.6367399,-3853066.65487 43286.1638613,-3853043.52703 43075.5679878,-3853020.11347 42953.4245484,-3853077.20311 42808.9449444,-3853052.76264 42753.7137444,-3853005.44173 42707.0968118,-3852941.81448 42627.2138808,-3852935.37816 42545.140848,-3852943.50495 42472.689211,-3852968.24035 42386.2668632,-3853032.45417 42298.3695946,-3853090.73288 42198.4358511,-3853128.00162 42097.1467291,-3853142.85388 42032.9467308,-3853213.70893 41957.5337156,-3853337.41839 41883.9906398,-3853425.10726 41783.4105326,-3853510.833 41685.0633727,-3853635.41888 41639.307013,-3853718.55195 41534.0197511,-3853837.91102 41468.5368886,-3853973.22558 41474.0228221,-3854110.32343 41456.1505001,-3854256.80158 41336.8013039,-3854328.26649 41195.2620329,-3854413.56099 41118.710387,-3854494.37612 41064.8993102,-3854582.31154 40981.7400469,-3854705.82003 40865.2524607,-3854832.59914 40775.7966717,-3854908.9148 40694.196509,-3854935.99867 40534.8008626,-3854959.06426 40489.1972723,-3855046.18762 40538.7515828,-3855180.10551 40558.9985233,-3855265.71179 40549.1925825,-3855368.44401 40401.5497451,-3855398.55087 40332.7417714,-3855342.26161 40215.8051863,-3855274.32973 40149.1205684,-3855312.82753 40070.7490868,-3855385.22549 39973.0994243,-3855482.32692 39876.7366803,-3855495.49548 39804.1997232,-3855472.3028 39687.5895889,-3855399.86433 39515.5348106,-3855353.01151 39403.4562521,-3855405.72662 39336.0720587,-3855478.20465 39225.059321,-3855637.23276 39125.8981143,-3855642.51937 39063.9343722,-3855588.96376 39007.209091,-3855522.22581 38913.0013047,-3855428.45891 38835.202818,-3855430.93186 38662.1584402,-3855423.56213 38593.1348155,-3855381.26076 38532.0728742,-3855325.17364 38440.2200582,-3855319.19571 38401.8293905,-3855392.56388 38428.9774454,-3855488.89337 38416.4911298,-3855573.75485 38331.0825344,-3855638.43389 38246.0523678,-3855647.67437 38098.7174217,-3855659.79459 37942.5865236,-3855722.68207 37861.3145011,-3855732.27833 37714.8129828,-3855707.41711 37564.9627542,-3855653.72312 37399.4380848,-3855627.59113 37252.2542511,-3855643.70002 37140.8133277,-3855667.43119 37067.0319655,-3855703.20533 36969.7701534,-3855771.33399 36880.272966,-3855846.65598 36752.9030621,-3855917.43321 36641.5965862,-3855938.16363 36565.0112623,-3855913.62679 36433.9635239,-3855816.27174 36353.6816799,-3855773.40088 36202.8777138,-3855766.67914 36110.8652826,-3855776.18638 36026.4046429,-3855800.38497 35934.4525205,-3855798.40536 35772.2338806,-3855806.60018 35642.7065565,-3855834.01858 35538.6202276,-3855886.9296 35441.4537898,-3855951.06096 35360.0032575,-3855975.6441 35268.3014558,-3855967.16365 35158.0451942,-3855923.93941 35070.6435087,-3855897.31858 34764.8296708,-3855891.52531 34551.4496248,-3855880.70252 34421.9805183,-3855824.72965 34282.7054961,-3855793.09941 34117.2930364,-3855756.97484 34040.4324986,-3855751.4223 33960.2233866,-3855717.03602 33886.0445812,-3855722.86579 33837.9705334,-3855784.62301 33842.9107272,-3855887.79756 33877.4165097,-3856013.31155 33887.0051571,-3856087.84613 33870.6072429,-3856168.36695 33804.987637,-3856300.20306 33766.4646769,-3856435.49811 33745.7874224,-3856528.1668 33655.6724554,-3856685.40707 33646.0297645,-3856825.09173 33680.7989945,-3856898.6643 33649.5702197,-3857009.2134 33515.4890817,-3857061.27532 33427.2692661,-3857078.62817 33360.405589,-3857125.62484 33318.1026154,-3857194.65277 33338.3695038,-3857287.25544 33384.5057026,-3857383.86286 33393.8619866,-3857471.88901 33337.2502929,-3857551.95018 33232.7921494,-3857627.84799 33055.0848262,-3857668.59534 32899.6656452,-3857691.51317 32807.4976125,-3857697.0332 32730.0515232,-3857728.45592 32712.7067252,-3857842.9699 32774.3817593,-3857921.50675 32798.7176592,-3858002.96875 32777.7906507,-3858102.13993 32694.8742598,-3858153.74598 32595.2396253,-3858186.01725 32488.906429,-3858160.62022 32416.2789147,-3858089.49274 32385.5273145,-3857970.82451 32372.2419378,-3857871.46258 32312.5134504,-3857752.40371 32254.7669744,-3857685.20125 32155.7461619,-3857635.55532 32031.0177392,-3857625.34172 31923.5599642,-3857648.92321 31830.1080759,-3857725.40001 31758.8448731,-3857801.02892 31739.3035322,-3857877.67722 31690.2147335,-3857932.48471 31605.0328721,-3857990.16982 31482.2063593,-3858042.80227 31475.5566897,-3858182.37597 31477.0026436,-3858311.65321 31427.1948817,-3858406.43684 31356.322185,-3858453.0891 31282.979969,-3858480.86036 31189.1530528,-3858358.11016 31121.4263451,-3858238.85631 31038.1186476,-3858156.15144 30942.8711257,-3858120.34288 30744.5506304,-3858131.41846 30618.9405455,-3858111.25157 30543.2216983,-3858050.72718 30515.5093912,-3857972.38845 30528.5560859,-3857869.52149 30543.0034497,-3857685.70512 30441.4626581,-3857504.82325 30374.4272203,-3857462.44276 30292.8297883,-3857444.08852 30085.0421425,-3857423.06603 29934.2742203,-3857463.28323 29871.3972015,-3857510.12908 29943.6177019,-3857603.24642 30029.2919121,-3857578.00054 30091.9575907,-3857532.16149 30172.2276122,-3857568.04403 30191.6598067,-3857704.12583 30146.460652,-3857769.27182 30030.9306489,-3857856.08144 29922.9466827,-3857905.15079 29842.7543953,-3858021.57055 29782.2725327,-3858157.21164 29724.5441767,-3858247.30574 29646.3796341,-3858305.7225 29538.3953849,-3858354.79249 29435.0780332,-3858375.71984 29293.291401,-3858468.02859 29215.4171221,-3858514.44988 29079.6179952,-3858508.6545 29084.2227196,-3858420.09084 29085.7754087,-3858343.12924 29035.7923502,-3858283.11835 28925.0408296,-3858272.86972 28817.5069094,-3858359.87453 28721.5976266,-3858515.84724 28653.6245809,-3858618.81821 28568.5355274,-3858678.99856 28430.8857094,-3858709.72786 28306.1714845,-3858700.01322 28187.928109,-3858657.09278 28070.5835163,-3858624.62464 27926.7540436,-3858670.07188 27822.5634241,-3858726.98775 27701.4610487,-3858687.67192 27582.6417133,-3858564.37407 27510.2045029,-3858485.24553 27326.9236946,-3858452.3007 27260.1354595,-3858488.31142 27094.00844,-3858499.1552 27009.784624,-3858464.4217 26928.6004003,-3858470.02141 26785.9743269,-3858449.00556 26667.8976323,-3858345.15351 30807.9029165,-3844059.28589 33325.4758523,-3835366.94155 35573.3088506,-3833937.87286 37628.4163149,-3833436.9013 37942.0764724,-3833360.57848 40210.1431239,-3832808.59962 41086.0270685,-3832595.09522 41544.1028703,-3832482.83641 42300.5758993,-3832300.33266 42594.8533318,-3832226.74868 44137.88975,-3831846.12837 44822.9592396,-3831657.35655 44931.1885125,-3831641.26508 43600.2803323,-3831355.78336 45698.3894019,-3821134.66377 45256.2848455,-3821042.06289 46157.0740844,-3816961.50384 46327.7062,-3816192.69247 46349.5925975,-3816091.51526 46896.8074097,-3813641.97993 46914.0599674,-3813563.44533 47256.0678032,-3812030.81748 47482.5873069,-3811022.27526 47605.6374647,-3810466.46405 47880.6713092,-3809234.93485 48148.8958989,-3808001.17414 48415.9219563,-3806774.95483 48683.1182348,-3805546.24043 49504.331557,-3801769.04199 48235.6870135,-3801488.3155 48633.613266,-3799685.56561 49377.8060467,-3796423.03132 49892.0695254,-3794166.64779 50261.2827338,-3792479.86325 50267.4440794,-3792451.17588 50663.8895323,-3790664.5361 52768.6977501,-3781185.82393 53940.6941341,-3781448.46083 55347.591528,-3781772.18419 55486.964283,-3781801.41044 56252.4419076,-3781966.93583 57521.1394196,-3782246.89855 57798.0151374,-3782308.9126 58862.4604227,-3782547.09652 60024.8930275,-3782809.55916 60563.7188946,-3782928.64847 62605.5927491,-3783389.27436 63428.1420372,-3783574.10052 64919.299925,-3783905.58483 66735.7011314,-3784305.73414 68896.8085838,-3784788.28553 69832.7059618,-3784995.79208 72342.1715159,-3785559.58756 74216.9344671,-3785975.95083 75094.4916963,-3786179.63053 75773.8762651,-3786329.34652 75954.7278368,-3785508.55497 76804.166891,-3785614.96963 81088.7295415,-3786208.49353 81876.6475557,-3786339.1596 82509.6780337,-3786445.18669 83873.6988907,-3786721.43433 87176.2928623,-3787226.91392 88407.6975098,-3787421.77635 91016.5951986,-3787803.01297 92410.5962859,-3787917.41146 92483.9139884,-3787923.14534 92566.7365708,-3787929.52081 92657.5878106,-3787937.09222 92830.4144874,-3787895.18366 93480.8437358,-3788121.28872 94499.2755741,-3788367.52146 96180.6065539,-3788774.00757 96807.8726448,-3788389.72828 97557.913129,-3788545.22209 99760.7122605,-3789001.48677 101059.570603,-3789270.10264 101317.542557,-3789323.79252 101774.878672,-3789418.40141 101853.818547,-3789427.91394 101940.574487,-3789439.62798 102900.795103,-3789639.60675 103310.547871,-3789709.55368 103582.625396,-3789753.73085 104341.314273,-3789296.69398 104351.976218,-3789288.31128 104405.341997,-3789247.89249 104473.262061,-3789196.45047 106332.465107,-3788025.12052 107287.687838,-3788226.28966 107366.759463,-3788232.80425 110187.13238,-3788827.50457" style="stroke-linejoin:round;stroke:#000;stroke-width:1px;fill:none" /></g></g></svg>