<svg xmlns="http://www.w3.org/2000/svg" baseProfile="full" height="205107.825098" version="1.1" viewBox="687.601292,3232620.559500,132281.284056,205107.825098" width="132281.284056"><defs><style type="text/css">polyline,line,rect,path,polygon,.polygon{fill:none;stroke:#000;stroke-width:1px;stroke-linejoin:round;}</style></defs><g fill_rule="evenodd" transform="scale(1,-1)"><g class="hogares departamen mujeres departam_1 toponimo_i tot_pob varones viv_part viv_part_h" id="82077"><polygon class="_82077" id="None" points="28404.8319187,-3232646.82834 33072.488374,-3232792.89463 46169.7536233,-3232827.6945 46654.9530387,-3232830.77831 50873.3940765,-3232857.91488 56888.0188292,-3232958.56559 56936.7022673,-3232959.46824 57697.6000318,-3232956.53675 58153.4954952,-3232958.09285 58317.4398006,-3232958.71884 66010.9576715,-3232979.09894 70136.2157611,-3233007.41711 71833.5839222,-3233014.81258 73516.7440818,-3233054.10902 73514.7656835,-3232955.38748 75767.0459913,-3232991.56207 77642.9265797,-3233030.06112 78600.3731962,-3233032.21176 79760.5134981,-3233016.26926 80227.7611927,-3233009.98835 80487.298187,-3233006.00174 81164.1884727,-3233003.35129 82799.532756,-3232958.92644 83956.9680887,-3232953.55856 88425.4843873,-3233033.15035 90027.7882764,-3233081.11237 90318.0598973,-3233095.08244 95763.8672057,-3233174.74271 103348.541804,-3233287.92081 104495.95425,-3233289.89972 107159.786413,-3233309.26125 113771.828802,-3233318.61929 121188.048705,-3233517.25878 125555.805157,-3233605.33357 132776.12922,-3233740.14352 133198.189115,-3233748.8367 133053.899875,-3244971.89304 133053.269066,-3244998.33657 131612.684744,-3244944.24639 128773.975449,-3244795.29238 127896.751745,-3244803.54544 125340.158841,-3244777.99071 122917.341849,-3244759.53425 122714.849225,-3258246.51672 122674.066695,-3258340.59848 122631.039706,-3258404.33932 118363.286428,-3261317.62498 117033.680422,-3262248.49702 115826.261117,-3263059.18912 114917.969976,-3263664.07354 114741.144935,-3263843.93308 114657.778307,-3263984.80856 114618.033054,-3264208.51797 114465.275981,-3265080.21405 114251.084826,-3266235.67933 114040.864762,-3267382.54146 113933.176439,-3267964.53667 113865.49997,-3268293.39076 113517.192889,-3270232.70221 113328.674289,-3271280.13007 112993.803824,-3273088.37014 112959.057648,-3273274.02364 111589.110353,-3280770.92724 111134.340259,-3283144.21878 109376.173993,-3292776.22757 108030.733416,-3298148.03202 108353.524887,-3298204.57075 102496.51182,-3331232.46147 101925.054343,-3334883.019 101839.903941,-3335424.52909 99987.317508,-3345296.03107 98165.8250728,-3355089.20856 98055.21834,-3355663.06566 97451.4527199,-3358958.56432 97384.8139495,-3359351.37588 97340.9355875,-3359570.83661 97163.0772538,-3360277.68407 97009.9550906,-3360868.97231 95236.0046065,-3371264.95114 94877.7590449,-3373333.76457 94298.8854411,-3376754.44819 94042.9933158,-3378271.12374 93461.1554235,-3381680.03644 93260.4463455,-3382812.2658 93248.3803642,-3382910.94751 93228.7350781,-3383064.75975 92626.5192657,-3386608.15648 92196.5404825,-3389074.70343 90873.3402621,-3396438.80829 90258.9762566,-3399912.08427 89657.796628,-3403272.73866 89389.2829071,-3404823.02572 88860.9866797,-3407899.89706 88681.6221134,-3414416.42768 88565.2541535,-3414269.31594 88504.3037205,-3414195.10785 88420.7510894,-3414123.68145 88371.6770858,-3414061.03311 88311.1968528,-3413978.82628 88207.4119934,-3413849.23538 88162.9937867,-3413755.49423 88137.813567,-3413641.12866 88112.0549296,-3413574.67569 88072.2471113,-3413498.7337 88010.5259165,-3413431.03697 87862.9067051,-3413231.6294 87767.3574912,-3413087.78199 87670.7354214,-3413006.33186 87593.1925458,-3412978.59635 87497.0285834,-3412996.40774 87433.1984159,-3413033.05019 87349.5863043,-3413081.85488 87268.656124,-3413136.05413 87200.1333392,-3413166.87331 87086.0091949,-3413170.34285 86989.3098942,-3413151.25545 86854.7893194,-3413063.14002 86743.1947009,-3412931.32282 86691.2657509,-3412858.29518 86719.5550833,-3412732.09085 86767.5951503,-3412664.56755 86851.8474569,-3412598.27984 87030.6141277,-3412603.04038 87175.7760077,-3412652.87097 87274.2229807,-3412686.36569 87437.364746,-3412672.21262 87538.3474292,-3412620.80895 87678.8376723,-3412529.11906 87732.1437607,-3412462.41123 87655.1162988,-3412341.86542 87551.8975899,-3412293.07113 87474.7106334,-3412246.86394 87424.9836494,-3412179.74679 87395.8127211,-3412072.50329 87337.7190082,-3412008.67012 87260.9624131,-3411996.37165 87090.0078574,-3411936.46118 86890.0608272,-3411824.67627 86745.2617448,-3411749.38832 86645.2187929,-3411691.50229 86588.5986423,-3411612.65044 86573.3563334,-3411511.40728 86638.8747593,-3411422.82307 86706.3431531,-3411397.52972 86811.8658314,-3411419.30582 86974.5043025,-3411448.07686 87080.9578871,-3411482.2925 87162.5107107,-3411503.40469 87276.5254545,-3411446.56074 87340.3109591,-3411401.44015 87382.2961485,-3411339.11749 87360.0089501,-3411236.12461 87286.3028469,-3411160.86035 87217.1303486,-3411108.387 87150.1135361,-3411053.34425 87079.9444641,-3411000.90535 87012.4496223,-3410924.92593 86939.12367,-3410824.7037 86861.1755379,-3410756.57047 86761.2028555,-3410700.67665 86688.8885969,-3410658.28943 86621.9478257,-3410598.25446 86587.8962221,-3410479.70502 86675.7264448,-3410322.49848 86717.984927,-3410181.84183 86610.6417179,-3410093.27694 86512.8879512,-3410079.71037 86418.1306204,-3410059.05527 86347.4293311,-3410041.55561 86256.9660284,-3410015.26349 86198.6384557,-3409973.38739 86173.9274927,-3409893.92491 86266.6457504,-3409798.41065 86383.3335385,-3409703.56079 86471.3213087,-3409586.75922 86535.2047111,-3409479.77492 86584.3575813,-3409350.85258 86573.395066,-3409279.39402 86466.2951937,-3409233.72362 86384.6735092,-3409210.61593 86340.2188066,-3409122.85923 86397.7670458,-3409034.55395 86465.5716331,-3408975.82571 86570.5986278,-3408868.41125 86606.4890115,-3408745.4377 86614.2613618,-3408588.51872 86564.3092379,-3408464.53452 86462.9678659,-3408426.6454 86303.2955297,-3408476.09031 86219.7148379,-3408561.80673 86100.8079707,-3408614.32666 86042.8965561,-3408548.48871 86001.1102538,-3408480.09534 85930.8112454,-3408380.76299 85819.2230994,-3408356.69898 85681.4538006,-3408354.49698 85575.419031,-3408346.70333 85473.7932828,-3408271.9055 85417.9857739,-3408202.00266 85343.8944554,-3408086.83656 85309.6869397,-3407985.25267 85307.5051586,-3407872.08056 85305.087856,-3407780.86775 85226.1032351,-3407718.75333 85075.5441823,-3407693.04721 84964.9621518,-3407676.43031 84902.964074,-3407622.20716 84871.178621,-3407554.4632 84863.8691993,-3407444.4619 84858.6568282,-3407337.38119 84855.9520011,-3407144.40427 84793.6563414,-3407103.16222 84665.4184968,-3407124.07504 84538.0023219,-3407211.81098 84460.5678458,-3407287.83503 84322.4469394,-3407297.11756 84177.9890127,-3407202.84983 84061.6725941,-3407171.96289 83967.0787973,-3407199.19188 83904.2835716,-3407316.11678 83911.88747,-3407398.66977 83895.939431,-3407506.98482 83859.4544479,-3407598.55119 83789.5151978,-3407653.36234 83693.7650009,-3407697.59458 83574.3784793,-3407657.33539 83500.5280905,-3407585.06313 83450.4342652,-3407478.54018 83386.7543432,-3407397.43349 83325.1520041,-3407268.36023 83323.5055175,-3407120.24415 83327.4950809,-3407012.34344 83324.3184321,-3406899.20349 83307.5120016,-3406767.0793 83245.5780475,-3406649.99076 83143.5884643,-3406478.41467 83112.2197539,-3406386.70732 83077.7994012,-3406286.12557 83003.515107,-3406186.92632 82824.9159192,-3406100.82372 82734.5029443,-3406076.02079 82660.0183001,-3406050.16649 82591.7249999,-3406008.63145 82506.3571182,-3405906.32342 82458.6586446,-3405825.65849 82408.8934447,-3405764.52237 82335.1143308,-3405744.63005 82221.6864554,-3405775.50401 82103.3355731,-3405851.45017 82010.2905661,-3405858.66784 81904.8485418,-3405824.90616 81805.7852258,-3405766.47678 81740.6095568,-3405721.34054 81664.7775871,-3405707.00707 81591.0780191,-3405746.98056 81524.4003545,-3405845.58181 81483.5969569,-3406014.13106 81437.4900113,-3406080.08915 81249.7411731,-3406010.76539 81176.7999626,-3405885.57362 81129.9376202,-3405821.84126 80985.7972766,-3405830.33148 80878.6811093,-3405899.40302 80789.6223038,-3405956.87251 80678.0573683,-3405991.17467 80576.3994946,-3406030.6214 80437.821562,-3406062.86686 80360.0296687,-3406049.59899 80288.3937672,-3405969.26294 80273.8324409,-3405887.44676 80326.6693849,-3405785.33281 80413.8639569,-3405587.733 80404.6255872,-3405436.38333 80326.2777387,-3405342.31002 80225.8351651,-3405359.26269 80097.8647669,-3405424.06776 79925.112702,-3405528.34314 79732.6813433,-3405611.84764 79617.1548708,-3405603.87866 79550.2138111,-3405543.83445 79510.8431799,-3405480.33978 79472.8267184,-3405398.33809 79451.3507084,-3405275.35051 79394.3157931,-3405069.27804 79298.0626704,-3404976.82162 79218.1757716,-3404975.1002 79133.5058022,-3405036.9075 79050.484398,-3405189.4615 79006.4831052,-3405366.60722 78957.0438853,-3405451.64102 78879.3398952,-3405455.33244 78794.7278511,-3405410.86774 78769.1693916,-3405328.43347 78752.6054736,-3405239.20139 78712.176093,-3405116.37077 78628.288976,-3404992.05271 78546.1587598,-3404940.01755 78457.3259502,-3404932.11995 78345.4048891,-3404963.43975 78325.1070508,-3405039.97991 78241.5194361,-3405154.63639 78139.4518114,-3405275.92076 78065.798442,-3405353.31276 77962.6443179,-3405356.88824 77885.3363309,-3405321.64926 77794.8174246,-3405257.93024 77762.0431189,-3405183.22897 77711.0427357,-3405093.69253 77662.4279539,-3404986.6108 77561.6638227,-3404951.18639 77443.9270324,-3405045.07416 77375.0638158,-3405152.73519 77290.737886,-3405325.29454 77224.1636673,-3405355.04324 77104.2005069,-3405298.33131 77033.6364153,-3405212.96472 77024.4119888,-3405133.95404 76985.2232696,-3404982.13968 76950.9195009,-3404906.49274 76946.935283,-3404820.31535 77018.9545765,-3404724.51924 77115.1872981,-3404737.1504 77263.3008244,-3404763.94949 77370.9233994,-3404759.72109 77509.5336824,-3404785.85144 77641.7888361,-3404830.16334 77716.1856409,-3404824.59156 77833.1698231,-3404802.57608 77937.1479107,-3404743.59179 78024.5947053,-3404682.68586 78072.33559,-3404555.80089 78028.9048514,-3404411.12037 77877.3932558,-3404401.4025 77836.2414186,-3404473.67615 77740.3695225,-3404557.82458 77667.8132166,-3404522.91912 77647.3747256,-3404379.43693 77626.1693341,-3404221.01343 77574.7948867,-3404149.45089 77417.421526,-3404078.5671 77189.8544959,-3404026.57952 76990.4250606,-3404023.50997 76886.9045313,-3404052.54188 76798.9703783,-3404085.02533 76722.5869721,-3404083.6801 76573.4310285,-3404149.21852 76504.2234045,-3404210.98944 76415.9043494,-3404203.57161 76301.1634988,-3404189.58508 76163.6613099,-3404224.28496 76045.5270011,-3404321.18006 75968.0316858,-3404460.57398 75925.5685496,-3404559.83716 75890.3093634,-3404629.41345 75818.9475845,-3404708.22376 75712.3687807,-3404800.22905 75614.8366987,-3404836.53863 75506.0600121,-3404785.92317 75445.2846558,-3404716.68035 75413.4355804,-3404625.47965 75392.3578708,-3404513.94806 75381.9578206,-3404386.57932 75345.1970498,-3404312.01375 75280.4381452,-3404206.98471 75139.7163607,-3404105.58487 74949.6696833,-3404078.24008 74853.6143164,-3404113.99883 74773.1157439,-3404181.1512 74715.4495953,-3404266.47265 74661.5107634,-3404394.57442 74554.8656725,-3404513.52555 74403.9122397,-3404592.10048 74210.875455,-3404629.72302 74076.5428657,-3404626.39377 73997.0754329,-3404644.11539 73837.3979374,-3404658.12951 73783.9710809,-3404606.59271 73786.7279983,-3404491.73852 73810.9262923,-3404398.09543 73842.4843254,-3404279.24996 73867.329024,-3404197.06049 73893.7086211,-3404094.36099 73895.3464172,-3403961.58368 73867.7574066,-3403798.88384 73771.9000244,-3403732.35085 73635.9414584,-3403718.09948 73521.1940435,-3403740.03581 73353.5842179,-3403748.33545 73246.3030712,-3403712.1347 73132.7417037,-3403624.26018 73066.1120819,-3403537.25494 73002.9895156,-3403400.23275 72953.1412974,-3403315.14092 72771.8167641,-3403381.29429 72691.8429529,-3403470.88187 72615.9077725,-3403561.82662 72542.5518541,-3403604.78238 72423.3080307,-3403619.38987 72363.2105676,-3403548.12425 72368.6832992,-3403425.1912 72376.7342792,-3403304.66371 72353.3121382,-3403190.2156 72275.5943165,-3403136.02539 72166.6639803,-3403109.85949 72072.8838102,-3403096.14187 72001.5699289,-3403061.18905 71948.8390508,-3403008.1292 71957.151534,-3402909.54645 71975.0633814,-3402821.60852 72001.1080797,-3402701.9547 72008.707847,-3402604.39471 71993.1243359,-3402500.1529 71939.121144,-3402374.28887 71827.6262073,-3402317.2752 71711.8775729,-3402454.50395 71551.076923,-3402385.72489 71440.018355,-3402449.44441 71369.7872403,-3402546.67817 71264.3772707,-3402571.78236 71132.1033646,-3402505.50828 71100.8904735,-3402403.80224 71107.8180975,-3402286.80508 71091.6294573,-3402150.6495 71038.4235415,-3402076.64856 70981.5071747,-3401945.89411 70897.4972098,-3401803.60304 70825.7020438,-3401769.16423 70723.0561511,-3401917.41609 70692.7717958,-3402022.74783 70632.5953931,-3402071.73317 70541.8255616,-3402022.48314 70420.8739722,-3401937.35396 70308.7187752,-3401832.46042 70270.7121158,-3401678.59686 70286.3383176,-3401502.91878 70217.6770995,-3401450.90713 70092.5265279,-3401460.72604 69916.4211234,-3401468.8152 69771.2973293,-3401449.38698 69541.2989737,-3401392.47859 69428.3181367,-3401357.46777 69309.6420085,-3401338.12202 69213.7358537,-3401313.49765 69113.9838287,-3401321.93849 69056.1175578,-3401372.83988 69039.0964977,-3401457.75531 69097.2253044,-3401522.60659 69348.4281371,-3401766.89404 67268.6418689,-3412319.15624 65533.4490351,-3421171.50826 64794.4537431,-3424933.94298 64050.6290971,-3428718.60644 63661.6950137,-3430636.52393 62388.665064,-3437121.28943 62322.7966526,-3437150.04387 62245.1139092,-3437097.86446 62122.0944991,-3437040.783 61931.3693657,-3437138.28411 61789.2328708,-3437126.78691 61634.8532891,-3437036.36641 61344.6992653,-3437045.01817 60888.2478401,-3436779.50822 60370.2017283,-3436729.25272 60081.6621739,-3436548.69711 58714.0051215,-3436364.94594 54808.8116121,-3435613.56032 53683.265878,-3435397.34596 48595.3352687,-3434406.60187 45018.0936093,-3433694.39935 41455.622861,-3432936.66354 41324.1537591,-3432909.80107 37455.2932341,-3432144.17676 35697.6541163,-3431793.60187 33261.8154258,-3431349.81801 31949.047989,-3431124.9745 29300.3482899,-3430699.52398 28024.8549178,-3430478.34169 26887.2333158,-3430295.7835 25559.7952382,-3430081.88085 24892.3454576,-3429968.3154 24307.6240464,-3429879.32718 24136.4854461,-3430778.94276 18972.6873941,-3430781.89572 18348.6071688,-3430789.62809 18358.496695,-3430514.18023 18361.3016825,-3430350.81789 16989.9605573,-3430327.61973 16694.2015352,-3430322.42865 14403.9804466,-3430287.73833 13918.1642144,-3430280.6654 13636.4118991,-3430276.48212 12908.7686036,-3430264.83436 11180.5388921,-3430240.03753 10058.2500101,-3430223.62774 9954.36052308,-3430222.74521 9322.61912727,-3430212.74823 8920.73781582,-3430207.74289 7610.84951044,-3428665.89548 6969.83626356,-3427871.75446 6840.71915802,-3427712.45758 5504.55550141,-3426060.11107 5603.16255594,-3425102.95772 5764.83823639,-3424085.199 5787.24407008,-3423946.606 6029.63283427,-3422412.24526 6220.23413715,-3421212.74366 6382.02062878,-3420190.01094 6519.74786723,-3419322.90762 6650.20510005,-3418498.00336 6787.91056878,-3417629.91058 6809.43034025,-3417494.34938 6840.61512689,-3417299.03477 6044.10038477,-3417296.15662 5712.28345089,-3417295.66202 5462.32572038,-3417294.33014 5350.43821761,-3417293.21086 3196.40863342,-3417273.91143 1117.68767928,-3417245.99983 688.786904092,-3417239.87265 732.407730968,-3416949.24106 737.48558748,-3416915.6091 766.677472286,-3416691.39103 993.403123552,-3415234.44833 1211.30626599,-3413767.33635 1292.88499485,-3413216.7401 1691.45634477,-3410626.38868 1920.43163064,-3409123.97751 2109.98888182,-3407954.49318 2390.66497044,-3405966.97275 2523.48928862,-3405062.60841 2758.7029277,-3403471.1473 2948.81758475,-3402214.79772 2968.80237835,-3402084.7856 3066.67339654,-3401440.28956 3182.1432841,-3400697.82285 3360.74317582,-3399374.48078 3885.60573309,-3395874.72784 4510.95222513,-3391830.84096 4799.24668983,-3389649.99145 4838.08056336,-3389356.07068 4841.29930669,-3389333.49186 6878.24164719,-3375881.86392 7200.10990455,-3373731.97703 7545.63949869,-3371323.68129 7836.1667493,-3369298.72562 8375.58770798,-3365598.26939 8520.44279448,-3364649.2335 9434.64808733,-3358543.68285 10057.2009266,-3354377.76866 12022.1252681,-3341178.7304 12063.0818314,-3340906.76263 12446.1544766,-3338339.76074 13704.1551887,-3329806.03231 13746.8633782,-3329518.54105 13876.5632431,-3328636.04735 14293.5636573,-3325941.2146 14638.102649,-3323567.84316 15114.0519113,-3320373.86504 15169.0629284,-3319969.15507 15305.6723394,-3319074.47624 15509.8328871,-3317694.79866 15518.7892807,-3317634.59308 15556.753679,-3317375.72769 15650.5791788,-3316729.60007 16034.8930805,-3313832.80065 16129.1539966,-3313176.68131 16795.0222375,-3308752.90624 17145.8739545,-3306429.37003 17646.2803218,-3303129.91298 17810.2746289,-3301990.26007 18030.7700102,-3300577.16052 18374.753672,-3298303.82903 18735.064752,-3295897.68227 18974.9474243,-3294330.21105 19669.8827236,-3289720.5123 20111.3424028,-3286740.15448 20487.9928974,-3284254.16816 20688.1276097,-3282964.1145 21253.4173077,-3279280.8407 22013.0229918,-3274357.68523 22148.7350704,-3273303.41537 22214.2448651,-3272885.92779 22262.655816,-3272569.84128 22331.4484472,-3272115.8058 22367.1346122,-3271882.50576 22724.5272346,-3269542.00701 22730.873631,-3269462.42807 23007.5560705,-3267674.70418 23023.2665951,-3267568.85819 23040.385731,-3267400.06982 23309.000092,-3265669.02761 23484.1729943,-3264507.14562 23650.6193521,-3263337.56851 23910.4833966,-3261664.23531 24129.7395667,-3260294.24871 24229.2416958,-3259650.02446 24317.6354182,-3259394.52258 24493.9182506,-3258279.04227 25053.053821,-3254403.49625 25272.9272491,-3253041.49681 25353.8581736,-3252506.21411 25388.9594337,-3252276.43712 25480.1053326,-3251679.91976 26206.5620826,-3246677.2774 27346.8738532,-3238826.29933 27626.0327714,-3236906.31706 28341.1112271,-3232994.84046 28404.8319187,-3232646.82834" style="stroke-linejoin:round;stroke:#000;stroke-width:1px;fill:none" /></g></g></svg>