<svg xmlns="http://www.w3.org/2000/svg" baseProfile="full" height="78423.2646039" version="1.1" viewBox="20065.503020,3248583.951271,112177.333623,78423.264604" width="112177.333623"><defs><style type="text/css">polyline,line,rect,path,polygon,.polygon{fill:none;stroke:#000;stroke-width:1px;stroke-linejoin:round;}</style></defs><g fill_rule="evenodd" transform="scale(1,-1)"><g class="hogares departamen mujeres departam_1 toponimo_i tot_pob varones viv_part viv_part_h" id="86028"><polygon class="_86028" id="None" points="87158.712647,-3261335.94661 87038.9685509,-3261481.29917 86945.4327679,-3261595.24608 86966.8732943,-3261713.78892 86976.8141832,-3261861.99605 86868.0909847,-3262009.16547 86704.2797114,-3262163.23976 86706.537662,-3262315.07098 86764.0549273,-3262485.47252 86859.7222562,-3262530.85155 86990.8072248,-3262633.59516 87105.9489113,-3262814.53426 87129.3972503,-3263099.89855 87123.4357327,-3263343.78517 87284.8162109,-3263647.35198 87390.2406934,-3263799.47567 87458.9511063,-3263936.71946 87462.0384296,-3264063.05825 87371.3593209,-3264243.90084 87365.8310976,-3264498.77026 87503.4848695,-3264847.68822 87549.8997126,-3265026.26426 87554.7851115,-3265351.89918 87140.7916086,-3265692.95506 87058.0152242,-3265928.6205 86937.6599082,-3266142.42742 86949.4921868,-3266449.96427 86829.3229816,-3266644.78517 86805.8449724,-3266826.01669 86925.6781498,-3267078.81224 86935.2952829,-3267267.48896 86790.240392,-3267377.29661 86623.6817631,-3267515.93576 86546.6863798,-3267738.51854 86433.7025409,-3267929.72508 86373.445183,-3268092.08309 86374.1419538,-3268345.35236 86406.9382325,-3268576.10903 86507.0949048,-3268771.77937 86490.6219701,-3269013.84271 86409.6891617,-3269179.54097 86409.4762178,-3269392.85978 86460.9809186,-3269591.8334 86395.5730727,-3269925.62898 86665.4266569,-3270413.23036 87004.2138567,-3271051.05542 87109.8057227,-3271092.26749 87229.1910462,-3271121.76085 87417.237829,-3271164.6032 87625.1368466,-3271109.20196 87792.493752,-3271019.00407 87888.2629798,-3270874.5417 88017.3667715,-3270661.5866 88263.0351029,-3270639.53048 88644.0175469,-3270658.69335 88810.9790066,-3270604.97101 88925.5438463,-3270539.62825 89125.1466819,-3270526.32892 89251.9595941,-3270416.32278 89367.9770267,-3270302.99884 89370.1875845,-3270165.08449 89341.7725046,-3269972.72633 89171.330508,-3269786.21815 89166.2698418,-3269616.45238 89378.0841578,-3269511.03358 89478.8316161,-3269365.49224 89749.4528134,-3269417.4591 89968.4951589,-3269356.38171 90059.3056282,-3269440.30126 90216.557375,-3269584.56516 90335.7849082,-3269665.0163 90454.3345736,-3269614.09605 90771.2228282,-3269684.77815 90801.2187044,-3269791.68487 90863.309587,-3269906.0526 90950.9631422,-3270010.50519 91123.7423723,-3270021.62975 91213.1841322,-3270053.11808 91218.8755289,-3270245.85024 91222.0289653,-3270345.70806 91438.9420847,-3270502.96842 91582.3989426,-3270493.0977 91783.5526661,-3270588.67463 91847.0964182,-3270835.89693 91923.5465054,-3271032.95026 92003.1310808,-3271177.99847 92119.7283941,-3271250.49811 92342.3368524,-3271284.27371 92513.631413,-3271311.40672 92711.7030579,-3271236.18857 92852.648958,-3271180.40075 93095.2571057,-3271124.926 93304.8794381,-3271158.91687 93346.9877154,-3271438.96188 93504.9414119,-3271625.66966 93554.4237453,-3271823.1674 93636.0044877,-3271983.16662 93684.0810542,-3272276.59932 93726.4718583,-3272588.60914 93745.0113314,-3272757.6461 93744.0943059,-3272883.04616 93764.4849028,-3273013.08814 93824.2987633,-3273095.51916 93806.3360336,-3273217.20563 93848.4874643,-3273303.92592 93925.8291738,-3273404.04938 94008.2980523,-3273391.69111 94081.1390204,-3273461.41716 94141.1706438,-3273526.85983 94250.0093397,-3273493.08328 94327.2061491,-3273524.27237 94361.8604657,-3273580.64477 94465.4249591,-3273620.38793 94547.4344464,-3273625.52105 94624.9128851,-3273673.68961 94689.632803,-3273705.58511 94801.7852602,-3273766.16614 95525.7593906,-3274166.26791 96435.668264,-3274618.22738 96970.3742676,-3274901.57556 101177.708297,-3277088.52939 103076.596799,-3277809.73118 104795.274684,-3278343.59954 105071.767217,-3278449.89128 105252.448969,-3278546.78679 105399.36615,-3278625.76206 105563.128586,-3278696.46506 105709.378423,-3278810.41591 105820.906144,-3278923.94498 105923.727795,-3279054.60155 106087.24641,-3279185.74683 106211.301568,-3279241.6249 106304.5144,-3279515.29632 106417.021172,-3279732.70294 106587.269878,-3279968.12923 106787.736916,-3280248.50596 106993.176468,-3280377.45282 107074.069664,-3280466.01523 107169.350289,-3280653.737 107228.841719,-3280956.93736 107292.496279,-3281195.13423 107443.422603,-3281364.94602 107606.714486,-3281647.43638 107685.967867,-3281787.47241 107719.388537,-3281979.71904 107821.071245,-3282131.86845 107916.60397,-3282259.64508 108062.396762,-3282346.12577 108115.642679,-3282499.08136 108277.163874,-3282720.1614 108357.515832,-3282986.04871 108427.673604,-3283149.71064 108411.843748,-3283293.82682 108464.100147,-3283507.23611 108571.410028,-3283727.21997 108672.619683,-3283865.88884 108664.505853,-3284113.26997 108660.153621,-3284226.726 108708.282672,-3284282.36563 108873.366811,-3284252.64124 108999.693662,-3284339.94314 109109.316853,-3284339.11451 109244.215265,-3284356.34543 109341.262433,-3284215.37141 109507.028802,-3284316.50054 109621.795503,-3284444.45281 109716.006507,-3284657.65966 109710.70605,-3284774.12753 109650.245249,-3284937.46769 109648.541177,-3285134.79191 109769.341962,-3285235.17116 109823.36396,-3285344.65577 109838.470561,-3285456.78734 109820.164208,-3285661.88049 109772.212412,-3285781.55727 109770.983177,-3285932.42154 109651.757131,-3285971.37242 109620.433335,-3286069.79374 109609.650228,-3286216.82174 109418.635399,-3286278.94809 109283.486358,-3286216.76972 109200.289024,-3286319.55336 109271.373226,-3286433.74815 109325.039717,-3286596.68348 109283.788414,-3286728.73635 109374.932993,-3286967.46711 109227.290881,-3287204.18985 109158.991696,-3287316.71517 109115.716972,-3287387.36554 108971.673027,-3287704.94586 108941.729487,-3287990.65234 108968.273857,-3288114.58107 108886.86299,-3288339.21099 108938.41057,-3288524.65836 109063.859414,-3288648.93285 109201.646125,-3288659.61786 109279.9746,-3288818.64408 109260.773562,-3288999.77839 109196.437294,-3289110.2405 109171.187987,-3289332.93333 109122.03521,-3289515.06788 109112.821338,-3289681.05107 109061.03736,-3289825.26891 108964.041729,-3289879.33604 108721.873049,-3290018.74448 108683.43666,-3290124.77874 108819.343892,-3290321.80227 108960.67284,-3290589.16233 109158.294271,-3290683.25805 109333.551601,-3290903.59763 109471.927704,-3291039.14154 109692.944425,-3291158.31865 109941.070612,-3291196.12576 110226.117511,-3291141.91011 110437.862734,-3291274.22787 110667.22753,-3291429.72608 110520.917675,-3291521.58018 110585.186547,-3291720.79685 110782.443528,-3291867.84061 110953.227057,-3292014.82734 111031.219959,-3292213.31404 111095.52209,-3292399.54265 111293.786492,-3292427.69223 111479.841346,-3292323.18511 111640.365561,-3292125.70334 111773.595329,-3291968.63674 111971.826137,-3292009.7737 112129.955943,-3292117.01259 112353.208938,-3292250.63266 112404.769168,-3292436.57309 112442.363846,-3292728.13602 112586.664907,-3292874.56401 112783.090937,-3293061.57542 112940.246377,-3293274.7167 113244.657852,-3293303.58488 113461.001604,-3293307.95476 113658.86812,-3293402.03888 113869.306873,-3293575.82714 114144.466738,-3293856.41609 114275.117016,-3294082.48473 114446.26061,-3294176.51513 114789.850363,-3294218.70958 115008.959522,-3294283.96606 115144.033388,-3294565.39914 115247.568027,-3294857.34928 115324.607005,-3295162.72896 115350.404068,-3295241.71134 115388.871002,-3295361.43735 115385.504784,-3295771.5528 115317.89828,-3295969.47438 115382.477273,-3296142.20509 115641.771876,-3296101.89737 115832.773325,-3296039.7593 115984.423596,-3296192.54964 116042.490305,-3296319.43816 116213.938679,-3296386.98781 116410.550362,-3296599.9575 116652.530219,-3296614.38031 116859.157735,-3296709.80844 116987.529325,-3296844.5072 117188.396087,-3296924.0487 117385.760566,-3297018.13288 117442.176744,-3297195.49235 117568.418643,-3297337.21811 117765.977113,-3297457.76918 118109.904906,-3297460.99043 118267.262968,-3297611.6828 118347.677025,-3297686.25057 118464.120154,-3297794.67597 118663.016782,-3297756.87709 118952.683185,-3297904.84918 119256.448728,-3298000.14192 119612.689437,-3298082.56694 120101.513164,-3298178.74897 120523.463977,-3298367.45054 120852.228684,-3298568.70249 121140.811665,-3298875.51054 121480.727304,-3299354.26173 121715.446418,-3299739.88357 121884.233857,-3300125.11312 121973.959581,-3300456.73163 121891.711285,-3300852.67011 121980.081293,-3301356.11797 122030.67613,-3301647.43935 121894.740186,-3302043.28236 121508.391613,-3302397.88761 121162.149741,-3302672.40919 120803.673279,-3302828.27033 120447.268052,-3302706.40584 120129.458895,-3302756.20068 119883.615161,-3302912.66619 119770.575222,-3303155.3011 119966.899596,-3303350.77921 120173.089322,-3303464.68098 120282.353838,-3303888.37119 120129.872137,-3304191.10424 120022.198901,-3304515.05966 120086.095398,-3304780.18974 120335.971189,-3304967.27192 120506.003552,-3305128.72742 120451.521455,-3305378.36875 120581.829663,-3305657.36275 120739.453779,-3305764.08706 120591.087625,-3305969.85989 120652.057852,-3306046.24716 120810.690842,-3306020.10159 121071.884555,-3306063.64929 121437.281918,-3305963.10058 121511.667733,-3306094.69944 121344.348674,-3306361.2234 121171.362003,-3306484.00376 121142.100654,-3306703.75254 120960.647403,-3306990.99352 120807.01271,-3307180.37471 120633.919361,-3307311.64908 120709.437484,-3307436.23683 120825.856548,-3307513.18725 120956.379514,-3307493.50694 121094.809875,-3307439.23173 121228.628519,-3307422.49263 121376.769633,-3307455.45651 121652.069657,-3307372.90384 121877.809485,-3307268.71182 122088.749213,-3307323.59159 122153.467158,-3307503.79773 122186.732311,-3307655.06689 122385.736279,-3307698.1605 122515.680138,-3307836.81199 122630.205375,-3308112.5693 122915.581268,-3308124.23955 123101.456426,-3308099.63002 123232.661981,-3308179.82498 123258.149213,-3308299.25995 123147.262923,-3308550.34852 123099.545782,-3308756.42177 123007.076314,-3309092.60431 123075.259605,-3309196.83553 123253.547606,-3309225.79212 123282.401377,-3309115.42938 123496.168403,-3309041.9027 123826.321916,-3309058.30911 123885.414734,-3309230.616 123633.366659,-3309373.71067 123406.338022,-3309623.26312 123457.995167,-3309769.22577 123589.837047,-3309783.48262 123802.340432,-3309679.51071 123920.708909,-3309812.86024 123921.506656,-3310008.12558 123524.837938,-3310267.53382 123612.170016,-3310411.39573 123667.052255,-3310378.50556 123797.102297,-3310301.39539 124023.138553,-3310170.72432 124235.210986,-3310159.65383 124472.505535,-3310267.02256 124576.455909,-3310493.0091 124719.105229,-3310851.69022 124755.899682,-3311182.19209 124686.759531,-3311538.95498 124710.898214,-3311829.71613 124932.494646,-3312175.57521 125142.943279,-3312349.31796 125367.452352,-3312365.00279 125514.895115,-3312194.20425 125726.133642,-3312222.59914 125855.018933,-3312416.69685 125973.711666,-3312687.3788 125958.285898,-3312912.3818 126260.110767,-3313188.4582 126337.020587,-3313483.81744 126401.110102,-3313788.88224 126465.076098,-3314027.52524 126463.111825,-3314265.78468 126434.376146,-3314530.46711 126168.246609,-3314726.24872 125968.357537,-3314896.43865 126032.635544,-3315109.10663 126323.264309,-3315151.13625 126667.767104,-3315100.85925 126749.502449,-3314810.30927 126831.827938,-3314480.79463 126846.096742,-3314335.22074 126978.73677,-3314322.98914 127029.692227,-3314574.83593 127176.201678,-3314688.72363 127304.535083,-3314894.31292 127528.658133,-3314975.92281 127648.772381,-3314858.02501 127869.037812,-3314755.91307 128004.100855,-3314754.12784 128135.31673,-3315041.5717 127921.872683,-3315428.73786 127569.103543,-3315713.38463 127485.199226,-3315713.30626 127245.758731,-3316128.384 127157.792998,-3316478.47107 127158.01828,-3316639.28192 127240.583982,-3316737.2695 127126.679569,-3317015.37984 127219.81061,-3317132.66588 127325.899388,-3317130.36996 127483.865638,-3317198.11367 127642.322568,-3317265.34945 127840.591199,-3317279.9709 128026.010352,-3317228.88626 128210.14523,-3317323.15488 128371.267238,-3317370.86749 128475.443629,-3317285.20059 128660.840479,-3317247.60078 128752.888387,-3317300.97788 128686.276316,-3317393.00026 128513.555589,-3317471.33799 128419.914579,-3317589.28889 128392.080193,-3317774.04637 128403.164069,-3317986.11216 128468.619262,-3318105.86287 128627.529004,-3318067.21231 128628.833349,-3317908.37487 128590.707916,-3317736.22167 128723.507661,-3317645.07551 128869.12687,-3317632.62046 128936.538633,-3317514.11536 129004.08241,-3317329.68505 129136.199572,-3317330.9433 129188.135189,-3317463.40794 129199.666869,-3317701.93384 129263.982758,-3317887.12673 129409.258228,-3317928.11472 129542.547732,-3317836.46112 129661.725838,-3317810.96955 129740.169844,-3317930.99839 129725.046665,-3318129.02293 129843.902796,-3318143.4897 129977.221357,-3318038.85086 130188.403872,-3318093.704 130399.929037,-3318095.114 130651.120136,-3318123.81885 130809.273353,-3318217.52523 131020.454606,-3318272.37755 131072.449982,-3318378.8695 130806.996376,-3318495.7356 130594.913286,-3318520.30524 130435.64651,-3318611.40046 130368.135171,-3318782.8444 130336.287829,-3318892.75563 130361.805785,-3318998.69802 130537.975942,-3319035.66463 130762.490129,-3319037.35216 130962.34478,-3318880.64516 131196.762997,-3318833.22285 131332.660764,-3318910.32526 131476.974275,-3319056.70259 131528.310572,-3319242.11157 131298.806521,-3319476.23038 131169.53873,-3319451.45414 130993.982358,-3319347.55699 130878.110568,-3319435.42028 130741.0667,-3319570.58742 130699.48519,-3319769.0596 130684.564343,-3319993.54863 130562.694684,-3320228.34181 130588.304135,-3320442.65488 130679.051614,-3320654.86401 130770.128753,-3320827.61371 130848.516558,-3320973.61025 130846.916591,-3321158.91926 130779.07973,-3321369.82362 130763.97077,-3321568.34682 130788.491551,-3321806.64987 130909.91632,-3322001.85656 130880.878506,-3322306.49172 130761.722777,-3322318.50308 130657.354283,-3322171.94932 130482.43164,-3322002.62119 130310.006913,-3322053.99146 130176.949732,-3322159.1298 130188.960992,-3322278.28614 130400.316267,-3322372.58302 130584.07384,-3322532.77136 130768.38059,-3322666.48099 130858.782607,-3322931.63234 131107.87883,-3323145.64481 131318.30613,-3323332.34626 131421.428561,-3323611.26349 131489.510127,-3324091.0396 119800.064003,-3323991.9489 113904.845184,-3323904.23514 113796.188703,-3323903.08261 113710.251955,-3323901.54442 113492.223476,-3323901.24936 108338.139934,-3323896.31405 108315.869993,-3326571.02417 108217.754513,-3326573.1905 104034.383384,-3326663.23266 99501.5332467,-3326625.31809 91634.4202093,-3326627.48151 91811.6993499,-3318027.5433 87646.7387218,-3318052.00571 87689.7331491,-3312921.68299 82528.0352887,-3312326.31963 82293.7724533,-3312299.29548 82206.8237334,-3312283.27605 75833.8337906,-3311076.75291 75515.4904687,-3310997.18302 75528.6538558,-3310918.52237 77355.8066132,-3300062.8494 71556.6822601,-3300128.65683 67679.3287546,-3300173.20997 67143.3223251,-3300179.20261 67204.2887397,-3297288.79671 62421.5549657,-3297249.00896 62534.1586103,-3295887.57913 62605.1413381,-3295023.99818 58103.7471491,-3295934.27677 59426.6333693,-3290544.30611 53153.9848022,-3289133.59511 52469.4416877,-3292125.11074 48131.4039263,-3291017.85742 47473.4318678,-3293028.12818 47098.3742854,-3294176.20403 46908.8042622,-3293537.76544 43318.4966784,-3296168.8035 43241.2109999,-3296134.11828 43122.9647862,-3296040.65342 43072.5625056,-3295865.59989 43050.8521596,-3295568.63706 42988.5255664,-3295367.79809 43023.0342193,-3295070.89382 43026.4535158,-3294901.93535 42934.6451426,-3294835.51117 42823.3829189,-3294965.29808 42622.0792777,-3295059.61335 42397.3502039,-3295097.8536 42218.1938295,-3295067.37078 42005.5119494,-3294974.48528 41919.2349816,-3294701.08777 41824.9719429,-3294667.18531 41669.9544991,-3294795.2064 41518.3169867,-3294916.17521 41266.9232193,-3294913.8851 40963.758891,-3294819.01465 40706.9461379,-3294851.29531 40500.807176,-3294761.29743 40372.8246861,-3294638.50971 40083.4029441,-3294633.35724 39853.9123424,-3294611.21118 39857.5534896,-3294784.05236 39746.0801546,-3294901.35204 39640.3757549,-3294870.63891 39593.2666701,-3294757.99112 39467.015327,-3294499.75013 39324.1072366,-3294306.25109 39156.6491414,-3294183.62273 38972.0593037,-3294127.24364 38655.0312179,-3294085.07283 38323.6185066,-3294109.10565 38083.6625908,-3293999.18247 37899.5545654,-3293941.79527 37730.2042578,-3293945.12733 37650.2853846,-3294051.90556 37680.5142644,-3294260.78401 37598.5543672,-3294484.53188 37341.7254332,-3294471.3377 37290.0511406,-3294324.78339 37292.4644558,-3294020.91062 37335.1599953,-3293690.37858 37252.8329353,-3293623.29311 37028.5259516,-3293597.56036 36820.6607532,-3293524.07865 36636.3795898,-3293366.74813 36445.7648821,-3293263.99337 36247.1009717,-3293053.4319 36218.2620237,-3292808.04827 36331.3055062,-3292545.30102 36533.5041118,-3292354.52365 36711.5805894,-3292155.65458 36920.8777462,-3292060.70666 37129.6278104,-3292022.73668 37251.3942868,-3291863.28844 37205.3067739,-3291662.17011 37038.3860539,-3291452.07689 36742.1523194,-3291353.58385 36575.9321047,-3291170.46327 36504.7168938,-3290990.75232 36466.1669514,-3290821.98921 36395.3319206,-3290560.31654 36198.9350493,-3290320.73008 36134.5829162,-3290177.88359 36216.2690111,-3290042.0927 36413.5464749,-3290005.31612 36713.9627089,-3289950.32608 36778.6069431,-3289886.28105 36803.5904785,-3289766.4295 36789.0130711,-3289581.77466 36670.0664945,-3289476.32003 36510.779954,-3289424.01008 36259.0720365,-3289448.20229 35980.0547123,-3289527.82059 35770.4459547,-3289589.2893 35457.0651811,-3289690.97022 35304.6490691,-3289706.00878 35160.1835612,-3289688.43216 34960.7511595,-3289566.33032 34898.1964298,-3289381.47519 34884.0846421,-3289164.82779 34854.2926606,-3288891.97261 34743.9513273,-3288658.44156 34574.3680602,-3288468.37628 34403.7534313,-3288321.30478 34259.2085991,-3288149.31099 34123.732247,-3288011.6471 34085.1677107,-3287826.88995 33966.1524231,-3287657.46781 33773.9581332,-3287639.68636 33630.3802337,-3287510.65238 33551.8488249,-3287341.55353 33528.8401361,-3287220.50206 33465.9803413,-3287092.11973 33393.829683,-3287050.84613 33313.7446261,-3287058.17913 33257.1168964,-3287138.58179 33235.3280896,-3287240.39153 33303.4415742,-3287339.20197 33366.5344263,-3287451.58894 33337.4365538,-3287624.48296 33165.6762746,-3287663.33021 32967.6514326,-3287595.67238 32743.4055725,-3287513.9596 32638.770252,-3287367.78361 32631.1897626,-3287197.99964 32627.5414236,-3287129.09685 32642.2344126,-3286931.45574 32671.0237434,-3286680.1077 32659.804176,-3286441.92055 32639.1685733,-3286283.34855 32424.4304322,-3286082.53793 32095.1596344,-3285921.11736 31884.7602973,-3285800.69124 31674.2435585,-3285613.30175 31557.2850219,-3285387.37097 31483.0847797,-3285238.18661 31294.9674346,-3285120.38619 31016.8058842,-3285132.02052 30778.5291491,-3285182.96919 30540.7010755,-3285140.95843 30289.9659892,-3285059.18331 30119.6913362,-3284872.61955 29922.737683,-3284659.51402 29764.5708582,-3284644.65976 29604.6558122,-3284749.7734 29444.8575475,-3284906.8588 29201.033002,-3284954.90159 28967.9493452,-3284942.79581 28704.5302898,-3284834.7445 28374.5132281,-3284778.77748 28123.8667204,-3284657.51916 27926.7614855,-3284510.38047 27596.4184935,-3284494.89781 27186.1201692,-3284464.75588 26863.4361984,-3284309.21467 26595.1096855,-3283996.84387 26520.0842649,-3283738.22257 26495.7948074,-3283615.18827 26586.7168118,-3283388.28435 26760.350048,-3283191.48689 27133.7879036,-3282823.94389 27520.223975,-3282456.68562 27706.0141933,-3282299.66756 27707.6145545,-3282125.72788 27392.3359959,-3281979.55493 27097.2831864,-3281817.5523 26626.5262073,-3281488.05961 26550.3524232,-3281430.35729 26298.2055232,-3281399.07381 26020.3026783,-3281396.70518 25915.1022747,-3281246.53157 25665.8144665,-3280966.82156 25466.3601835,-3280888.68236 25059.3553104,-3280846.4829 24737.1004046,-3280881.83397 24537.9118412,-3280789.69661 24434.4093007,-3280666.48015 24289.0151454,-3280458.50214 24218.9620595,-3280348.222 24123.3528756,-3280263.85495 23955.6558559,-3280217.17033 23821.1996071,-3280200.91745 23684.2519764,-3280260.16993 23542.2830827,-3280318.00681 23393.8118281,-3280315.48084 23317.1879226,-3280230.79735 23305.5502158,-3280057.07389 23241.8420795,-3279952.68454 23189.5009171,-3279825.61661 22992.4866915,-3279638.98595 22742.1112598,-3279504.21886 22563.1245986,-3279334.77913 22441.9472006,-3279065.42371 22412.8268681,-3278772.04678 22343.9442654,-3278506.81836 22170.8849004,-3278408.24535 21945.2468304,-3278348.52908 21908.0037122,-3278212.71261 21940.9578942,-3278090.7213 22044.7395593,-3278065.50587 22205.5862115,-3278060.83107 22489.4146327,-3278088.59419 22690.952375,-3277916.32139 22790.3373662,-3277626.80441 22753.4154262,-3277375.03792 22626.1601902,-3277160.75658 22368.8814957,-3277061.58395 22084.9095469,-3277085.29746 21917.5504472,-3276878.67876 21827.4533372,-3276599.8082 21802.7140789,-3276374.32523 21685.3540552,-3276108.90141 21473.9024982,-3276120.91281 21327.0883987,-3276278.28152 21285.5003452,-3276542.35047 21397.8090879,-3276744.38813 21665.8459177,-3276889.36132 21994.4842094,-3277117.28695 22140.8658868,-3277369.73287 22081.5188511,-3277602.61105 21896.5177404,-3277777.60761 21618.3970141,-3277867.69392 21380.016425,-3277853.16784 21202.2618454,-3277697.69829 21121.1647901,-3277419.17715 21129.9012409,-3277148.15761 21084.7141217,-3276805.06865 20953.8374776,-3276553.36259 20865.2605059,-3276365.92282 20757.3168417,-3276125.82934 20622.6118695,-3276034.61196 20483.0172323,-3275979.95893 20151.709413,-3276027.44748 29517.5797391,-3269837.32962 29124.3498585,-3268967.79663 28467.8444166,-3269294.02549 28490.9714955,-3268549.01647 28599.6061804,-3267203.89125 36273.006376,-3267953.24617 36305.6562943,-3267752.31457 37569.968284,-3259963.15339 38123.8661913,-3256647.82789 36377.1218992,-3256317.86127 37651.5041509,-3249321.14197 37793.0912219,-3248602.70107 41058.4514569,-3249083.64638 40449.1458009,-3252578.21806 41245.1987479,-3252730.00245 41117.5754071,-3253597.11502 43566.406786,-3254035.95824 43404.7577006,-3254778.69306 47452.605175,-3255354.54127 47533.4967074,-3254941.95668 49131.8195286,-3255187.42905 49186.3338854,-3254826.75199 51115.7628708,-3255092.24823 51672.3734759,-3252042.98885 52009.3288026,-3250323.52162 52112.2771152,-3250445.74862 55357.2687738,-3254287.78854 57958.384472,-3257595.66478 62144.4416078,-3262628.51763 62320.4744666,-3262653.0882 64434.0442412,-3262944.41482 64326.8021612,-3263499.29183 75259.5188402,-3264507.60499 75366.3222245,-3263745.43855 75454.5643627,-3263114.47648 76665.8798513,-3263161.40267 76033.5393397,-3261159.94867 76302.3931157,-3261164.00188 87158.712647,-3261335.94661" style="stroke-linejoin:round;stroke:#000;stroke-width:1px;fill:none" /></g></g></svg>