<svg xmlns="http://www.w3.org/2000/svg" baseProfile="full" height="65401.7284642" version="1.1" viewBox="28959.088530,3176080.091679,59733.531641,65401.728464" width="59733.5316411"><defs><style type="text/css">polyline,line,rect,path,polygon,.polygon{fill:none;stroke:#000;stroke-width:1px;stroke-linejoin:round;}</style></defs><g fill_rule="evenodd" transform="scale(1,-1)"><g class="id" id="86049"><polygon class="_86049" id="None" points="58332.738607,-3176185.79332 58557.6807237,-3176248.46587 58710.4731782,-3176352.20753 58815.9714418,-3176448.83167 58903.5683564,-3176557.09656 58990.2575494,-3176707.85682 59027.7121036,-3176951.98718 59077.3684021,-3177190.52076 59227.9533626,-3177454.73441 59305.7765037,-3177777.01729 59319.1227225,-3178068.82776 59273.2401505,-3178330.12379 59298.5429341,-3178585.848 59395.0789925,-3178872.98935 59732.7934284,-3179159.68721 59966.2234688,-3179221.28881 60204.1844909,-3179224.87038 60441.9477178,-3179234.95172 60655.6061475,-3179262.22236 60898.8546309,-3179301.75103 61160.3061505,-3179336.13448 61474.8958734,-3179358.59322 61789.5291843,-3179417.54096 62078.9406756,-3179541.17288 62290.0448363,-3179716.92023 62482.4899498,-3179934.30537 62599.4376667,-3180211.28104 62658.4095244,-3180675.16839 62713.8594968,-3181074.10307 62946.451162,-3181652.05553 63063.1101274,-3181924.03344 63248.8489521,-3182177.45933 63436.7926311,-3182394.37799 63631.9634931,-3182608.73878 63797.2260755,-3182864.32812 63954.3224469,-3183129.97996 64134.9264217,-3183397.44114 64272.0383252,-3183633.26264 64488.3750301,-3183868.94429 64680.4581696,-3184041.34073 64927.1949234,-3184296.77008 65132.5030737,-3184497.55035 65332.4735112,-3184594.40553 65629.5319313,-3184643.99114 65862.0370592,-3184622.6201 66054.1371754,-3184518.60123 66132.0873231,-3184484.48242 66239.6231411,-3184462.12107 66375.3866093,-3184500.01292 66579.2984819,-3184651.81864 66803.7877514,-3184875.93513 66920.0595422,-3185037.94492 67017.8306749,-3185230.09445 67091.3820511,-3185486.91897 67139.8269237,-3185791.43104 67193.6013326,-3186136.88687 67313.2535042,-3186438.82388 67457.0057879,-3186754.0615 67558.7179544,-3187062.64072 67653.13309,-3187488.74103 67689.9721375,-3187810.34012 67629.7762574,-3188123.72662 67633.6145845,-3188351.12273 67659.0822784,-3188595.3384 67744.236699,-3188834.07277 67775.6992894,-3189108.72994 67755.8898805,-3189316.82341 67727.9340955,-3189506.48875 67742.0188483,-3189702.81165 67859.9893684,-3189981.76679 67990.1225569,-3190188.6464 68200.2580631,-3190429.86679 68458.3870026,-3190672.19768 68709.406301,-3190931.58009 68925.8530441,-3191149.7555 69233.1484606,-3191291.21966 69547.5821993,-3191326.66058 69892.6632196,-3191319.86712 70160.2068117,-3191336.19421 70290.9220589,-3191368.12461 70491.9685164,-3191412.98087 70674.7540111,-3191517.46509 70839.2775564,-3191650.58753 71038.6909466,-3191802.42079 71227.2724167,-3191912.85552 71397.3947578,-3192058.42782 71530.571919,-3192301.76628 71620.3299737,-3192614.93277 71706.4524016,-3192818.66557 71809.2558887,-3193076.24468 71953.0402084,-3193363.98097 72220.4730759,-3193767.67444 72435.0736617,-3194097.32094 72622.5892056,-3194261.24349 72741.0542919,-3194292.77155 72865.3156055,-3194330.25051 73048.8080051,-3194398.73817 73208.2574522,-3194460.92299 73325.5080876,-3194558.43789 73430.7002415,-3194679.04253 73601.7866305,-3194758.62659 73765.9598689,-3194910.24156 73954.3877311,-3195032.66965 74195.104592,-3195162.17068 74339.5774005,-3195257.46466 74506.8545788,-3195422.04905 74723.1387268,-3195651.2126 74892.2924855,-3195862.26478 74955.2863099,-3196018.19817 75090.2239992,-3196139.5595 75225.2127561,-3196236.42898 75395.8447482,-3196352.50205 75543.082288,-3196449.77166 75648.7358638,-3196534.88323 75750.3928093,-3196651.01609 75816.820465,-3196798.92366 75838.0191006,-3196978.18734 75833.5409314,-3197257.62375 75824.6470744,-3197424.13644 75827.037347,-3197564.56677 75820.5230625,-3197685.57641 75786.8206349,-3197905.27172 75830.6464995,-3198131.83442 75952.6184056,-3198318.27611 76133.9248741,-3198517.73053 76299.5716798,-3198573.86356 76507.0135955,-3198606.66512 76828.2399908,-3198618.04924 77148.1513379,-3198682.92459 77569.3335837,-3198754.97371 77954.2665025,-3198856.30659 78266.3421692,-3199064.19234 78507.4342959,-3199240.16665 78706.5405636,-3199415.98216 78841.3699757,-3199554.83394 78958.1097257,-3199681.83713 79132.9623974,-3199886.83835 79308.3737226,-3200068.34348 79438.1855394,-3200327.69027 79498.3223506,-3200470.14758 79518.2986713,-3200713.89375 79532.4441922,-3200916.70267 79540.8284369,-3201148.54759 79572.3085435,-3201393.19963 79619.4767263,-3201600.23794 79655.787605,-3201762.88125 79713.395478,-3201870.87156 79836.3832476,-3201997.82217 79954.3146045,-3202148.30498 80161.8113264,-3202403.01867 80382.412258,-3202671.12005 80641.8258875,-3202979.38938 80837.1465195,-3203181.22089 81018.041383,-3203422.15472 81172.6640842,-3203689.79214 81261.3302426,-3203928.97785 81375.959114,-3204195.44121 81457.8964062,-3204314.22752 81563.2457425,-3204423.32652 81699.5511979,-3204467.19802 81821.3644619,-3204480.69934 82005.2460967,-3204536.17824 82364.3701049,-3204537.74861 82488.5243743,-3204593.21449 82642.4245319,-3204618.94923 82706.4362775,-3204715.38963 82745.7446954,-3204847.01779 82720.4236083,-3204959.68053 82658.2974872,-3205125.12305 82529.7779177,-3205331.09167 82343.3943947,-3205459.06292 82240.5434739,-3205564.36147 82178.3687451,-3205723.80723 82138.5651684,-3205991.02884 82134.7100083,-3206222.97071 82196.5967851,-3206426.38686 82505.7794936,-3206800.21751 82750.8915141,-3207101.09883 82954.4786744,-3207366.33261 83093.3056712,-3207596.60864 83269.7281821,-3207901.54798 83381.2306057,-3208182.52678 83409.3614619,-3208475.18219 83347.5454506,-3208800.56002 83253.7541472,-3209066.22285 83154.4738047,-3209332.93038 83018.3429261,-3209738.38543 83002.2233401,-3209936.93984 83051.1554145,-3210175.4465 83102.6506319,-3210268.98869 83232.9824786,-3210376.88017 83344.118617,-3210459.93832 83548.9096137,-3210474.75678 83760.996668,-3210465.02516 84025.4279748,-3210469.3597 84170.3564393,-3210498.16241 84261.4850557,-3210579.38459 84338.2947034,-3210773.67911 84347.5008005,-3210952.03316 84267.3347442,-3211111.12638 84146.3439467,-3211228.57038 83997.72268,-3211328.74751 83767.9865163,-3211472.0719 83543.1902715,-3211638.84693 83334.2761366,-3211791.99758 83266.3096832,-3211945.49412 83268.4579812,-3212177.38588 83304.4346782,-3212481.47231 83420.281649,-3212681.94485 83615.8914553,-3212857.27351 83971.3051211,-3212955.32283 84435.959948,-3212844.05954 84623.7254871,-3212824.52884 84750.5683179,-3212811.49474 85084.6790389,-3212841.24537 85480.0063462,-3212900.48247 85902.721811,-3212947.49983 86429.8048216,-3213075.12909 86836.0049168,-3213333.19531 87096.241219,-3213588.45823 87171.5327606,-3213841.23782 87300.3728879,-3214041.5996 87482.986671,-3214217.0304 87795.526028,-3214359.40895 87945.8519668,-3214589.58135 87980.1842773,-3214753.73216 87974.6791913,-3214905.21494 88073.3209983,-3215049.34631 88199.9902721,-3215167.75821 88356.9482979,-3215292.41885 88405.4221344,-3215504.9332 88330.2550678,-3215754.94675 88062.5244663,-3215957.0609 87904.044793,-3216164.77637 87753.1553265,-3216322.95015 87594.1640162,-3216559.65851 87455.8794081,-3216731.22382 87304.0815108,-3216961.37641 87191.0924679,-3217139.73167 87103.3428593,-3217409.34264 87066.1886294,-3217693.03242 87133.1814389,-3217938.88191 87232.1182682,-3218179.47088 87344.4861472,-3218351.47722 87436.8952681,-3218466.67065 82269.40739,-3219283.32786 76148.8917804,-3220251.79698 75243.2324208,-3224626.70157 74887.0472748,-3226347.53522 74644.7873408,-3227517.62637 74086.5425062,-3230097.84476 59619.4225685,-3227078.21821 57300.7721578,-3226646.95332 58640.66926,-3232949.1362 55236.1683266,-3232170.98475 53943.6882551,-3238779.9456 53405.7746546,-3241276.76773 50632.497249,-3240677.91331 44622.6404446,-3239379.50848 44477.1968599,-3239352.21886 39742.7996808,-3238456.59591 36320.8864602,-3237809.52795 36021.4776647,-3237753.01454 37411.8649323,-3231263.82758 38089.1847261,-3228104.39587 40244.5653137,-3228479.05991 41918.7417497,-3220613.51718 43084.3077778,-3215138.1996 44144.0455415,-3210158.18185 44315.6637578,-3209351.9681 41933.834045,-3208969.02488 42639.5151211,-3204847.20318 40395.8725324,-3204430.60063 37522.1403501,-3203896.65577 37216.5008846,-3205618.28532 35006.9652587,-3205128.91789 33525.5841361,-3204800.57099 34301.5713906,-3201567.89015 34089.8371951,-3201564.61606 34317.5972936,-3200589.45623 29309.1296618,-3199553.94311 30022.5295035,-3196362.72982 30264.4432592,-3195281.4646 30403.6117344,-3194659.44972 29432.1160435,-3194699.33752 29106.9098197,-3181683.32733 29104.7595365,-3181602.85896 29105.2558602,-3180520.0462 36118.6710823,-3182064.56847 37209.6418834,-3182304.70152 37634.915059,-3180245.18534 38682.7137249,-3180432.68472 40374.6852673,-3180689.96636 45056.8924075,-3181401.49699 44891.3700462,-3182601.05762 45471.0760734,-3184900.83759 48299.9834848,-3182993.42509 58332.738607,-3176185.79332" style="stroke-linejoin:round;stroke:#000;stroke-width:1px;fill:none" /></g></g></svg>