<svg xmlns="http://www.w3.org/2000/svg" baseProfile="full" height="157937.08986" version="1.1" viewBox="-16466.096995,3247469.990314,70230.858833,157937.089860" width="70230.8588331"><defs><style type="text/css">polyline,line,rect,path,polygon,.polygon{fill:none;stroke:#000;stroke-width:1px;stroke-linejoin:round;}</style></defs><g fill_rule="evenodd" transform="scale(1,-1)"><g class="id" id="86063"><polygon class="_86063" id="None" points="36021.3789181,-3250291.63641 36320.7815973,-3250348.17775 39742.6186081,-3250995.58086 44476.8915236,-3251891.71586 44622.3309716,-3251919.0221 50631.9765908,-3253218.15837 46774.8355615,-3268068.38918 43926.518716,-3267544.93675 43693.4890522,-3268811.03215 49785.3290357,-3269930.63932 49684.1357555,-3270511.81017 49183.9529361,-3273389.12481 53715.0717217,-3274139.10266 53271.4110085,-3276471.06265 42774.5395842,-3274677.09857 42380.40698,-3276739.3169 41842.8569044,-3276595.29153 41497.8777462,-3278433.66663 40199.3147928,-3278052.99245 39079.2044115,-3283203.94765 39160.0689688,-3283220.27388 44503.9870037,-3284287.24491 43577.4006493,-3288590.23905 47875.8048813,-3289418.85104 46825.9527443,-3295570.27357 44061.3982791,-3295077.40835 42616.0400694,-3302487.8568 42791.6325939,-3302504.88686 42336.3784231,-3304735.05741 45691.3419582,-3305325.36623 44900.7988511,-3309568.72879 47718.3215661,-3310119.98688 47866.2756337,-3310149.73966 46796.1633706,-3314902.26569 49896.5234444,-3315386.61559 49592.229307,-3317038.65267 46995.4703962,-3316585.08553 46567.5311552,-3318631.56052 45615.1603235,-3323192.20019 46103.8226873,-3323258.56788 45203.7524439,-3327077.00943 46515.3964154,-3327377.86243 44043.4221064,-3342960.66771 44103.0021937,-3342942.66739 49149.202621,-3343025.32076 49174.5285112,-3345184.44505 46860.0505276,-3369382.1259 43783.6212092,-3401843.59788 40593.8927524,-3402200.23056 40052.3759643,-3402271.9183 39131.8620176,-3402392.88641 39120.8780635,-3402394.48145 38595.8320248,-3402463.52593 33068.2060132,-3403193.35162 30673.3427127,-3403564.55276 25362.0977382,-3404389.44321 22752.2323831,-3404649.00384 16550.1257717,-3405262.57946 16219.2054506,-3405295.93644 16326.2115062,-3402086.92113 16347.7291043,-3400844.3994 16313.6386977,-3399732.84292 16249.3527258,-3398858.51655 16533.0457425,-3397726.22566 16622.0079363,-3397172.53602 16668.4672695,-3396008.80059 16761.6297527,-3395217.11144 16929.5950102,-3394664.74422 17153.6914525,-3393954.41771 17326.645993,-3393110.55342 17576.2252796,-3392427.50682 17798.4872084,-3391823.18499 18092.2548802,-3390872.30271 18644.7649867,-3389954.19122 19143.3001732,-3389328.50072 19691.0859767,-3388703.88825 20312.2422198,-3388269.11499 20727.684769,-3388038.07878 21043.2454375,-3387586.43975 21363.801764,-3386843.80861 21644.0873064,-3386156.01639 21682.7474203,-3385884.73103 21872.4868752,-3385596.64958 21853.3506596,-3385173.38833 21757.8502655,-3384589.81201 21454.7391757,-3384163.49247 20877.6489063,-3383908.49662 20290.3201586,-3383771.06712 19847.6748009,-3383366.93969 19907.5402047,-3382944.9984 19834.8595728,-3382573.18708 19578.2537744,-3382118.96934 18874.0274699,-3381525.11758 18532.0585623,-3381230.60326 17965.8958644,-3380909.01665 17392.7680867,-3380416.51743 17057.3190966,-3379483.05296 16895.2036199,-3378591.59477 16724.1929228,-3377682.71601 16633.5462908,-3376817.6414 16726.0401509,-3376059.98015 16766.9664782,-3374796.85001 17345.1505238,-3373457.63769 18482.911103,-3373424.40544 19436.7232236,-3373335.25694 20274.2079451,-3373059.63869 20646.46342,-3372718.01623 20751.6049783,-3372561.64577 20783.8855111,-3372419.89632 20729.0887472,-3372296.38876 20581.7332125,-3372193.16953 20370.7727026,-3372105.49161 19902.7033654,-3371941.02818 19040.4418086,-3371599.46962 18263.9005637,-3371227.18109 17547.2385533,-3370812.88599 16862.8564724,-3370344.32267 16191.7040615,-3369815.15507 15538.6202558,-3369235.83984 14913.446945,-3368617.29096 14323.0437749,-3367972.44764 13762.4933334,-3367310.85038 13216.1179537,-3366640.63175 12900.6560659,-3365876.9573 12826.6570445,-3364791.27879 12857.359181,-3364024.152 12782.4943873,-3363481.38622 12807.2191926,-3362833.79015 12941.2981181,-3362347.23387 12904.9759872,-3361780.64456 13075.9171987,-3361043.82016 13179.7725935,-3360354.05982 13094.0717679,-3359888.37397 13064.4455978,-3359403.21413 12938.8168999,-3358974.36155 12972.4621304,-3358551.65185 13100.5923355,-3358011.65956 13191.736178,-3357325.50942 13157.1873222,-3356319.9881 13205.5511074,-3355276.26936 13238.4725515,-3354562.12178 13157.0105927,-3353888.43946 13087.6634845,-3353316.63523 13049.0563111,-3352597.09738 12936.088196,-3351862.69418 12880.7782416,-3351501.23149 12814.9109987,-3351073.87076 12761.7286528,-3350727.38716 12796.9388433,-3350370.15506 12799.4294706,-3350045.19482 12846.3596345,-3349507.89733 12811.3682836,-3349095.77184 12802.7762381,-3348996.36347 12916.6864708,-3348487.49275 13032.050043,-3347943.61679 12952.6686411,-3347395.89399 12958.377103,-3347066.90796 12823.0465783,-3346759.61399 12680.5900804,-3346142.43895 12676.4250029,-3345710.05625 12675.5734296,-3345639.07693 12737.5907623,-3345111.65142 12693.221441,-3344595.12574 12410.8388637,-3344101.11253 11969.7356833,-3343577.44888 11595.6580419,-3343028.72102 11514.84077,-3342340.03504 11490.3426869,-3341453.90937 11554.651749,-3340753.49721 11607.6608884,-3339987.69349 11657.5107225,-3339261.90935 11642.4439104,-3338692.14499 11505.6966966,-3338186.89748 11476.8314519,-3337551.76215 11486.0018406,-3337010.28751 11493.1707353,-3336586.80745 11381.0741109,-3336188.33067 11214.2610432,-3335881.29872 10996.3075749,-3335467.7188 10819.8208322,-3334962.30545 10732.9946173,-3334566.61364 10661.9029535,-3334139.79466 10264.9677091,-3333339.29735 9908.39582927,-3332552.95509 9626.6076052,-3331979.44064 9517.9802803,-3331369.47099 9581.48370614,-3330749.0508 9707.1323323,-3330354.56445 9914.10130156,-3329910.90171 9973.26070839,-3329486.48238 9861.44373998,-3329061.00511 9805.29367001,-3328478.58767 9856.24037469,-3327791.28704 9880.94510901,-3327104.20773 9762.26579398,-3326308.85686 9508.68243028,-3325670.11254 9280.03982561,-3325084.1475 9170.61574532,-3324526.67264 9087.30780061,-3323983.47495 9003.32899853,-3323479.27543 8893.65724531,-3322921.80177 8874.34893284,-3322498.54258 8654.41070652,-3322203.94766 8351.77880483,-3322092.51449 7732.80433606,-3321963.24595 6951.78962208,-3321558.38989 6528.87602021,-3321203.01122 5885.42290948,-3320927.47253 5369.1924249,-3320770.34217 5227.85724454,-3320727.5384 5133.75426391,-3320713.33234 4937.80013767,-3320684.98537 4397.47183085,-3320605.04364 3737.26630941,-3320507.61291 3343.72185449,-3320315.95538 2898.95125037,-3319947.7582 2104.30511339,-3319290.05046 1555.81451719,-3318715.25727 953.626443992,-3318294.38852 291.481280976,-3317818.03149 -229.092216712,-3317293.49113 -616.498967261,-3316731.8366 -878.265119829,-3316397.58925 -952.272796455,-3316276.23034 -1073.56578096,-3316149.7694 -1213.54373212,-3316060.45944 -1275.84996078,-3315874.01241 -1337.95622111,-3315622.07402 -1623.22929463,-3315286.52299 -1989.19243083,-3315016.13888 -2272.71595992,-3314680.57223 -2373.5428399,-3314282.48089 -2593.48212086,-3313987.87324 -2875.75565988,-3313652.29489 -12383.7584472,-3311523.90762 -13050.9479391,-3308540.89707 -13198.4526132,-3307882.21956 -13661.9718232,-3305248.44346 -13561.7207586,-3304414.70949 -13363.7362717,-3303998.10378 -13412.7526985,-3303876.02994 -13556.1416213,-3303767.74489 -13740.478089,-3303724.79454 -13892.0742857,-3303800.55494 -14018.0953162,-3303706.62249 -14081.0362333,-3303533.6715 -14200.2194057,-3303480.17659 -14264.7038932,-3303451.2204 -14397.7997185,-3303527.32582 -14595.5933106,-3303459.49121 -14779.4022681,-3303390.03962 -14911.5148312,-3303374.64824 -15097.3267732,-3303424.19869 -15231.4380595,-3303528.30935 -15336.2779871,-3303486.19283 -15360.1052215,-3303327.41196 -15344.4358411,-3303168.80018 -15474.4045813,-3303021.40697 -15685.2995437,-3302971.1797 -15856.4635145,-3302949.11617 -16039.4075233,-3302953.14816 -16173.0507504,-3302904.27358 -16077.7386286,-3302733.9958 -16035.4569306,-3302589.15917 -16085.5373437,-3302429.59795 -16175.9006717,-3302295.37101 -16411.0258432,-3302217.3497 -15962.1264724,-3299763.38522 -12554.5953558,-3300265.30315 -12530.3166652,-3300269.09947 -12373.5128288,-3299321.90746 -12160.057521,-3298034.78462 -11598.2099067,-3294646.01349 -11281.4891441,-3292732.10621 -10584.458109,-3288523.3069 -10492.13009,-3287964.60494 -10344.3428688,-3287071.981 -10292.241769,-3286755.085 -10245.5767575,-3286475.72976 -10159.2788037,-3285583.11813 -10230.3934969,-3283618.44541 -10242.5406574,-3283420.57002 -10253.5838216,-3283235.1839 -10303.583509,-3282424.19564 -10418.544623,-3280535.87169 -10427.2416934,-3280391.96059 -10545.5771701,-3278457.66467 -10601.9260289,-3277363.25539 -10685.3704123,-3275745.62677 -10828.7629732,-3272959.61602 -10956.5514892,-3270605.92032 -11071.4086456,-3268815.05324 -11125.3580846,-3267736.1067 -11185.0550122,-3266898.18289 -11222.5621649,-3266264.05451 -11244.0777323,-3265900.26738 -11255.7013855,-3265704.38223 -11440.0412741,-3262314.21987 -11446.214228,-3262202.78088 -11583.3710537,-3260070.10163 -11677.770558,-3258602.00575 -11680.944801,-3258520.53871 -7114.98250798,-3259561.1558 5023.81423598,-3262328.98809 5065.78609263,-3262144.66478 6087.62863812,-3257658.78991 14090.2321013,-3259439.57673 14155.9211127,-3259494.02745 14953.8066153,-3255273.56957 16063.4370453,-3249406.26596 16213.6493436,-3248612.14009 19873.1199407,-3249219.53532 19680.1962196,-3248432.73119 22227.3814069,-3248928.27806 22581.0570136,-3247491.5979 23181.4616379,-3247613.16202 31851.4070013,-3249372.40862 36021.3789181,-3250291.63641" style="stroke-linejoin:round;stroke:#000;stroke-width:1px;fill:none" /></g></g></svg>