<svg xmlns="http://www.w3.org/2000/svg" baseProfile="full" height="118441.504754" version="1.1" viewBox="324.637737,3077560.897485,79201.137288,118441.504754" width="79201.1372875"><defs><style type="text/css">polyline,line,rect,path,polygon,.polygon{fill:none;stroke:#000;stroke-width:1px;stroke-linejoin:round;}</style></defs><g fill_rule="evenodd" transform="scale(1,-1)"><g class="id" id="86070"><polygon class="_86070" id="None" points="79402.929037,-3081503.02829 79475.0268034,-3085736.81878 77359.1368254,-3085614.64226 76984.4052321,-3099422.46844 77777.9228984,-3099481.88397 77754.6933841,-3102392.27999 75267.3054512,-3102425.0942 74844.212865,-3109955.51858 74806.9926995,-3112994.07306 73166.2523329,-3113082.07096 73126.230087,-3117652.43755 73123.8121375,-3117877.29044 75616.1878069,-3117890.09555 75701.618053,-3117890.23521 75678.4252739,-3118002.50987 75324.0362972,-3119717.21149 72423.7540365,-3134641.16165 72287.5855352,-3135340.77099 71780.8698209,-3137576.07233 76253.1524268,-3137965.44129 76258.4474976,-3138030.80093 77384.5600327,-3151432.30073 75359.9295927,-3151535.41064 75589.3184018,-3152608.30901 73451.1970816,-3151995.85566 73171.7378722,-3153036.51621 72448.8324264,-3155727.50711 74766.8556334,-3156325.51487 73816.8956871,-3160262.65714 73743.3982591,-3160567.59886 78508.7005188,-3161632.94477 78710.4876929,-3161676.63463 75922.0615066,-3172948.04643 75474.8944367,-3174755.85627 74866.6643789,-3178832.47561 74074.4929158,-3178614.58787 73907.3972559,-3179671.97092 74752.6662666,-3179837.02868 74400.0459734,-3181020.8414 73993.6573942,-3182383.898 70308.9320873,-3181658.21297 70221.7689547,-3181995.87708 69672.1536924,-3184133.72309 69613.6670928,-3184361.00623 63456.7605394,-3183321.97336 63007.4897845,-3184906.17404 59122.5857792,-3184392.06469 59017.184105,-3184378.29735 58458.0053567,-3186438.01504 58411.1204111,-3186611.16274 58231.5563461,-3186569.12944 57314.7190947,-3186617.09578 49360.3094546,-3188152.70777 49385.5114406,-3188257.72928 49414.4635258,-3188378.1797 49599.7765331,-3188465.59299 49787.7484391,-3188516.98534 49941.4059308,-3188685.3648 50047.0740871,-3188852.52994 50093.2071643,-3189091.6235 50124.9880385,-3189568.30138 49992.4243425,-3189757.85114 49883.2138258,-3190030.96623 49872.9678475,-3190183.53768 50011.9416244,-3190294.19275 50094.6505885,-3190401.77072 50200.2216668,-3190593.42112 50174.6655295,-3190772.22656 49958.2184559,-3190996.12955 49766.5498264,-3191161.66406 49562.1162884,-3191386.87055 49548.1588971,-3191648.43518 49546.0647948,-3191886.82014 49664.2873619,-3192042.28619 49638.4569183,-3192280.56007 49529.2221028,-3192506.2085 49689.7803339,-3192668.47635 49860.9655797,-3192762.61244 50005.5550723,-3192895.6597 42291.9222654,-3195822.82043 38768.4162564,-3192907.1949 34027.8749292,-3191966.77805 33758.1252994,-3193394.43025 33739.9062535,-3193502.67092 33011.9218523,-3193373.15188 33275.1627409,-3191868.14154 32658.8388605,-3187942.80244 31730.5372482,-3183420.3644 26141.1320711,-3183018.17889 26109.8047841,-3181999.70288 25303.3565218,-3181993.34208 24271.6376439,-3182025.13046 23002.8427494,-3182014.79932 22651.7997584,-3182017.015 22077.3826011,-3182020.36746 21839.0001847,-3182051.2344 20411.2793554,-3182026.49377 19287.3482343,-3182044.28446 17952.0653069,-3182019.53395 17423.4644218,-3182029.13434 17422.7525731,-3177189.87704 15791.0028488,-3176251.3235 14119.8287324,-3175285.90412 12065.2684813,-3174024.81878 11956.7739045,-3173344.37863 11046.3859957,-3173342.15141 10420.299188,-3173366.29924 10702.4539078,-3174030.43375 10623.3967843,-3174040.2125 8598.47012014,-3174407.41686 7974.89683501,-3173431.44485 7052.55316887,-3172137.94444 7019.31395109,-3172091.50273 5260.46420885,-3169449.09982 18958.8936515,-3171947.40017 20690.733543,-3158463.95171 21215.6886284,-3154343.04479 19632.3296617,-3154085.71749 8224.74309645,-3152215.01869 3605.31216686,-3156113.34379 5994.01119834,-3146488.41728 1433.09065345,-3146219.38591 2359.19055232,-3142018.22346 2926.03087367,-3139547.1468 326.131116593,-3139191.01705 2545.50553473,-3131363.15067 8605.77207281,-3131449.093 8600.61019126,-3127469.94985 3878.30165426,-3127431.97305 3877.78711262,-3127368.50806 3777.4747774,-3116759.07477 5896.59139243,-3116775.79773 5897.96770329,-3113723.08684 5901.05017883,-3106921.4444 3074.71951522,-3106936.33899 3155.78784205,-3093096.68456 3156.3505474,-3092974.22483 11966.5011763,-3092919.4285 11836.5408216,-3096616.32946 17294.5979942,-3096684.91474 17344.7882616,-3094849.49643 30849.2659915,-3094590.64679 30956.953473,-3094590.44526 31170.8531112,-3094591.56469 40885.6057882,-3094648.06307 44838.2663764,-3094671.12864 42485.4899331,-3091106.98103 44917.3786657,-3091005.69418 61845.8995131,-3091216.2413 62117.8662635,-3077716.31778 62662.6671688,-3077744.76228 62941.935205,-3077758.87708 63334.4591874,-3077762.72525 64287.88584,-3077770.78434 77512.7105245,-3077892.13989 77430.9974856,-3081497.93662 79402.929037,-3081503.02829" style="stroke-linejoin:round;stroke:#000;stroke-width:1px;fill:none" /></g></g></svg>