<svg xmlns="http://www.w3.org/2000/svg" baseProfile="full" height="62558.9437916" version="1.1" viewBox="-11655.166157,3263801.638186,132065.983617,62558.943792" width="132065.983617"><defs><style type="text/css">polyline,line,rect,path,polygon,.polygon{fill:none;stroke:#000;stroke-width:1px;stroke-linejoin:round;}</style></defs><g fill_rule="evenodd" transform="scale(1,-1)"><g class="id" id="86077"><polygon class="_86077" id="None" points="-10782.2743202,-3264152.1057 569.328600282,-3264226.56861 20414.5912869,-3264164.89254 20965.0431342,-3264163.20169 32239.5276053,-3264248.68836 32243.018734,-3264188.16273 32260.9864105,-3263886.02139 32955.1006555,-3263888.75715 46859.7031593,-3263950.43866 58687.7306686,-3263950.87095 59026.8137317,-3263950.9413 59177.6210149,-3263950.69257 70195.7092699,-3264122.07603 75785.3260486,-3264141.10891 76312.14177,-3264143.01164 76439.7347683,-3264143.83903 85113.3762652,-3264186.69446 93653.103718,-3264293.29389 94617.8421149,-3264272.84985 102033.459217,-3264302.01694 111134.100327,-3264379.74097 110472.002373,-3268642.36444 120367.786951,-3268614.10312 120295.207072,-3269067.58459 120244.159491,-3269383.28119 120175.167121,-3269800.24083 120030.661691,-3270853.4259 119229.983847,-3275770.47926 118633.961616,-3279449.22655 118423.061937,-3280737.67972 118025.666089,-3283220.66105 117559.333916,-3286197.50751 116825.923046,-3290801.68925 116572.955678,-3292367.25883 116192.558129,-3294770.55667 115829.595049,-3297041.17141 115597.300914,-3298452.52882 115423.791566,-3299590.89333 114895.83402,-3302886.41298 114525.578589,-3305207.19493 113822.763732,-3309625.75679 113723.02292,-3310281.14188 113314.516273,-3313174.96975 113215.293664,-3313820.36797 113175.166899,-3314078.93811 113165.70758,-3314139.07397 112950.021766,-3315517.16382 112805.937939,-3316410.77876 112747.546358,-3316815.06431 112244.912521,-3320005.34914 111880.543867,-3322376.05805 111441.023764,-3325067.65841 111303.949432,-3325949.15215 111258.838764,-3326236.314 92615.2516342,-3326109.08771 72498.0656996,-3325971.34889 70929.1056092,-3325960.23898 55457.4618219,-3325855.41545 54950.9398544,-3325850.78357 33734.0711892,-3325677.96327 33694.673337,-3325532.60768 33747.5837199,-3325412.88506 33985.6859766,-3325386.87159 34184.1443782,-3325373.3512 34356.0540709,-3325347.01709 34409.2121151,-3325148.36812 34382.5298262,-3324923.27083 34342.4761094,-3324791.419 34221.1017528,-3324722.56617 34151.6419527,-3324652.398 34080.6080929,-3324539.81216 34020.5448616,-3324505.36976 33925.0456869,-3324225.57146 33852.968541,-3323746.37857 33747.5253814,-3323468.32986 33535.5493002,-3323283.38802 33284.6779821,-3323071.45828 33192.0694882,-3322807.06899 33006.6546307,-3322674.89956 32821.5682802,-3322516.24773 32609.4341941,-3322423.71515 32596.4304084,-3322304.66282 32728.6071061,-3322198.41919 32900.5981033,-3322145.61381 33076.925984,-3322313.47876 33182.5122543,-3322459.15801 33301.5639726,-3322446.15414 33328.0623651,-3322141.28703 33205.0149621,-3321947.09856 33178.5092471,-3321709.00767 33191.9634518,-3321510.36506 33258.0406618,-3321298.90234 33258.09643,-3321113.58605 33178.4946229,-3320968.24748 33085.9809618,-3320796.26236 32993.4681352,-3320584.81634 32966.073677,-3320370.72365 33085.9828693,-3320134.92259 33099.032598,-3319910.31652 33138.9589195,-3319711.5043 33274.8720146,-3319575.19958 33390.0078977,-3319486.37361 33566.4243286,-3319588.80451 33695.8943798,-3319612.50279 33923.4401386,-3319376.47917 33870.5605431,-3319191.50397 33725.0319793,-3319046.33391 33588.4961327,-3318970.3664 33354.480659,-3319019.74052 33155.9382885,-3319178.10781 32931.4173096,-3319178.29117 32754.9448173,-3319142.79378 32728.544879,-3319037.06745 32759.4753111,-3318926.8944 32825.5558421,-3318754.89343 32984.0583877,-3318662.47401 33195.929894,-3318636.1379 33460.4011072,-3318517.0636 33407.5200323,-3318411.00835 33195.888516,-3318357.91753 33036.9595561,-3318265.53204 32785.5373588,-3318238.92126 32574.0072612,-3318239.27393 32362.3744632,-3318186.18233 32229.932152,-3318291.92874 32110.9593013,-3318278.45286 32124.4318525,-3318080.30869 32044.9901699,-3317960.93738 31926.0283217,-3317987.42125 31793.5068629,-3318080.18261 31647.8945149,-3318040.40653 31582.0374664,-3317855.75555 31568.5184971,-3317617.33341 31515.4807065,-3317485.30581 31383.3573019,-3317485.14855 31317.3525775,-3317670.13579 31250.9305015,-3317789.19883 31105.4197658,-3317802.86695 30973.3838308,-3317895.11682 31012.9426222,-3318066.94677 31012.9619415,-3318225.78996 30854.3794046,-3318265.7635 30787.9284119,-3318146.56211 30775.0777002,-3317934.59551 30801.371565,-3317749.61202 30894.026655,-3317630.88459 31066.0890297,-3317551.11005 31131.9321225,-3317458.53553 31039.4423682,-3317405.9272 30854.3647966,-3317445.07076 30750.905632,-3317531.60303 30589.3911976,-3317485.23462 30404.4766641,-3317392.50347 30219.4891664,-3317445.13163 30021.1050552,-3317432.16289 29862.0929109,-3317366.24974 29703.5671949,-3317299.8246 29597.5009536,-3317303.00453 29503.3955047,-3317186.49836 29614.9786563,-3316907.44771 29531.5990251,-3316810.15132 29530.033644,-3316649.34749 29615.0791429,-3316298.53855 29851.0529937,-3315881.47869 29934.9552917,-3315880.85786 30285.3411454,-3315593.2804 30495.5520411,-3315204.34785 30361.9449757,-3314918.00656 30226.9010903,-3314920.91726 30007.4935763,-3315024.86151 29888.365624,-3315143.75652 29663.5695968,-3315064.01693 29533.526998,-3314859.50361 29386.0731112,-3314746.84045 29333.0205116,-3314495.42627 29200.4866109,-3314508.76283 29187.4313964,-3314654.45103 29107.8545253,-3314984.64129 29028.5430738,-3315275.86319 28684.4702064,-3315329.00952 28393.5004149,-3315289.40322 28327.4521526,-3315077.27766 28525.9165892,-3314905.42732 28790.4061342,-3314707.43411 28816.9351593,-3314442.52058 28816.9138226,-3314204.2523 28750.9611006,-3313966.1499 28684.331328,-3313661.62881 28604.9625284,-3313366.91979 28300.8464308,-3313093.36737 28314.396622,-3312868.24287 28193.4518428,-3312598.55856 28062.9530412,-3312405.541 27851.4844897,-3312378.90741 27705.4697302,-3312550.92935 27480.8369748,-3312537.116 27268.9469941,-3312365.13252 27044.4751609,-3312021.131 27017.9140734,-3311730.5801 27084.0788646,-3311373.25213 27044.5312067,-3311043.06717 26898.8971193,-3310685.586 26793.0666233,-3310460.47278 26554.884624,-3310355.08497 26342.9110182,-3310367.92251 26117.970774,-3310500.47331 25988.5673996,-3310578.66493 25933.9609694,-3310612.01147 25845.432649,-3310468.88185 26239.9271755,-3310206.1758 26237.5021163,-3310010.92315 26118.0259638,-3309878.56422 25906.3956474,-3309984.30392 25774.4390251,-3309971.14629 25721.5670158,-3309825.61866 25946.5088658,-3309574.18185 26197.3566196,-3309428.99102 26136.8296182,-3309257.18191 25806.5495384,-3309243.52752 25593.4018715,-3309318.83348 25565.468761,-3309429.43329 25386.9449271,-3309401.96346 25317.8950611,-3309298.3037 25407.5598991,-3308961.36085 25453.5581371,-3308754.89625 25562.3484283,-3308502.89126 25535.8665962,-3308383.67235 25403.9967079,-3308304.57334 25218.3323439,-3308330.73121 24932.8679334,-3308321.43969 24816.0479864,-3308046.6453 24684.9525495,-3307909.08103 24485.5955129,-3307867.64729 24451.0706588,-3307716.65999 24384.8528025,-3307536.99873 24173.4621254,-3307483.87867 23948.5975565,-3307589.9489 23673.9939618,-3307674.7935 23525.5826373,-3307643.0653 23391.9075894,-3307660.91918 23253.9338104,-3307716.34648 23123.5788565,-3307737.11403 23006.5220051,-3307661.13626 22929.9678103,-3307537.18171 23101.9617728,-3307404.4687 23254.0133903,-3307213.81282 23433.0671232,-3306925.06827 23460.4961023,-3306705.08229 23632.4542166,-3306580.86392 23797.5468852,-3306312.95355 23722.0665295,-3306181.97863 23357.5182546,-3306285.56966 23095.969511,-3306244.2002 22937.5592394,-3306271.6671 22875.954209,-3306195.79031 23022.6008545,-3305988.78715 22864.092012,-3305883.37979 22731.4624572,-3305605.48028 22783.8622621,-3305355.3924 22612.4893671,-3305195.35891 22361.0618498,-3305010.36498 22294.9575175,-3304745.77543 22399.9274763,-3304420.93233 22549.8814482,-3304116.93749 22437.0889186,-3303694.17063 22229.9560272,-3303581.99078 22032.0082749,-3303388.1548 22143.0225634,-3303144.58498 22387.5548902,-3302986.07511 22704.9395652,-3302933.63295 23062.3498607,-3303052.52334 23419.5166278,-3302893.67913 23763.4602247,-3302616.27999 24146.8419207,-3302258.46531 24279.4747563,-3301861.50108 24226.4534526,-3301570.61 24133.8901561,-3301067.9135 24212.8361519,-3300671.30119 24120.3492473,-3300340.44023 23948.3561198,-3299956.6287 23710.4299546,-3299572.97438 23366.5341198,-3299097.07017 23075.4024587,-3298792.67625 22744.9699742,-3298594.17025 22321.4586719,-3298408.99095 21831.8474931,-3298316.8859 21474.9301329,-3298237.43244 21170.3791573,-3298144.67429 20879.4878284,-3297999.12081 20680.9120139,-3298038.57637 20563.5685445,-3297931.12465 20482.5353,-3297857.2293 20323.9257817,-3297707.85286 19979.9810909,-3297707.49833 19781.4235385,-3297588.59739 19654.0039974,-3297447.92796 19596.1111469,-3297271.04386 19397.9681637,-3297178.60744 19196.4442069,-3297100.74248 19066.9535838,-3296967.1176 18859.5366112,-3296873.41449 18617.4435064,-3296861.00904 18419.0623283,-3296649.6843 18247.0558396,-3296583.56565 18187.9331476,-3296457.16479 18035.0136773,-3296305.64289 17844.5356548,-3296369.37124 17585.5844796,-3296411.83911 17519.5675617,-3296239.65165 17585.5223713,-3296041.17222 17585.470018,-3295631.04046 17546.0062202,-3295511.63851 17519.551544,-3295432.87342 17439.9692998,-3295128.14461 17334.0040817,-3294837.06579 17196.5881881,-3294556.76662 16976.941313,-3294493.33838 16633.0096119,-3294454.00912 16461.0870822,-3294361.40798 16328.556097,-3294136.4348 16051.0651466,-3293858.14743 15839.1837095,-3293686.11823 15640.5385339,-3293593.68613 15424.1644737,-3293591.11976 15119.5209668,-3293564.7899 14960.5932625,-3293352.96466 14762.61388,-3293167.5959 14617.0962834,-3293022.37491 14577.07223,-3292731.13359 14523.963471,-3292545.62819 14299.6029043,-3292413.87289 14140.5836015,-3292307.95516 13942.015441,-3292268.47181 13810.0987207,-3292426.6446 13651.2252306,-3292625.45895 13466.0467871,-3292731.5141 13267.5533066,-3292705.01805 13201.7005635,-3292519.33072 13122.0552449,-3292321.49974 12950.0512078,-3292175.94082 12751.573977,-3292030.54555 12685.6461976,-3291831.87022 12831.1862457,-3291738.79901 12600.5316026,-3291585.21719 12387.6892674,-3291454.66828 12103.1022887,-3291511.25864 11854.667863,-3291475.52104 11632.6638144,-3291358.18973 11493.1616292,-3291223.80316 11316.0723477,-3291004.93074 11117.6719996,-3290912.4851 10974.1181485,-3290646.31066 10836.5722113,-3290450.4256 10874.1235799,-3290344.07386 11115.1233662,-3290202.65045 11211.665579,-3290147.77622 11262.2458601,-3290003.13069 11270.0757713,-3289837.07529 11317.7088387,-3289654.53601 11341.1009879,-3289431.63885 11404.5146228,-3289320.64346 11422.2051234,-3289139.35408 11342.5530992,-3288980.98521 11204.6811079,-3288971.44914 11078.1997105,-3288848.22388 11025.1075738,-3288663.21132 11104.6435858,-3288437.9089 11077.0668187,-3288314.20485 11104.6277589,-3288028.25659 11246.0202725,-3287709.48414 11288.7048427,-3287638.47494 11356.0641044,-3287525.38333 11501.728772,-3287287.43624 11408.5965216,-3287049.47181 11448.7458558,-3286917.07864 11393.7225303,-3286754.59513 11321.6882848,-3286640.99603 11404.0265127,-3286537.52161 11539.6902273,-3286598.57164 11730.1819623,-3286534.85461 11739.7390992,-3286387.7407 11770.2415717,-3286289.06093 11889.1396789,-3286249.11719 11889.1112261,-3286098.24676 11936.0640602,-3285978.17348 11952.6601959,-3285772.93326 11936.6192381,-3285660.93066 11881.6859987,-3285551.89935 11760.0516774,-3285452.52984 11760.1107396,-3285255.19673 11819.208252,-3285091.35695 11823.5376504,-3284974.84803 11727.5518125,-3284762.43229 11611.721536,-3284635.44019 11445.1165626,-3284535.69567 11349.2472161,-3284677.47493 11214.2087813,-3284661.36904 11104.5954406,-3284663.11152 10977.5441901,-3284576.86508 10812.7122778,-3284607.96489 10764.1206778,-3284552.72799 10767.526966,-3284439.23872 10773.5782826,-3284191.79657 10671.21532,-3284053.97515 10562.0744033,-3283834.89176 10508.0403024,-3283621.92381 10522.6683037,-3283477.67951 10451.1480237,-3283314.6068 10368.5816151,-3283049.39643 10205.2216571,-3282829.6688 10150.7020215,-3282677.16116 10004.1921392,-3282591.89819 9907.59671699,-3282464.92136 9804.64828305,-3282313.62367 9769.62580038,-3282121.66075 9689.20707778,-3281982.28912 9523.56446558,-3281701.16754 9371.22644468,-3281532.61846 9305.58777318,-3281294.95853 9243.57019907,-3280992.26211 9146.72708061,-3280805.33959 9065.09767968,-3280717.45389 8858.58850529,-3280590.22312 8655.7892564,-3280311.52498 8483.58227963,-3280077.52419 8369.26594637,-3279861.0612 8273.77396819,-3279588.17402 8149.2561869,-3279533.33164 7984.64847388,-3279403.55302 7880.74021428,-3279273.75707 7768.26889856,-3279161.16075 7621.0728469,-3279048.43215 7456.72520499,-3278979.09627 7309.15341162,-3278901.34791 7127.6685151,-3278805.96127 6850.29697442,-3278701.97744 5127.21249943,-3278182.452 3222.35981889,-3277477.10092 -1003.10180517,-3275325.284 -1540.15695101,-3275046.40163 -2453.81152566,-3274602.04094 -3181.10373875,-3274207.98626 -3293.75854457,-3274148.34197 -3358.74280366,-3274116.98697 -3436.62096144,-3274069.46569 -3518.67118971,-3274065.01657 -3622.56448973,-3274026.13802 -3657.6880158,-3273970.05601 -3735.14296592,-3273939.51144 -3843.69726729,-3273974.19473 -3904.27310059,-3273909.2543 -3977.69367679,-3273840.13741 -4060.05742888,-3273853.18308 -4138.23211778,-3273753.70707 -4181.105645,-3273667.34046 -4164.15810136,-3273545.50725 -4224.65784957,-3273463.57708 -4246.13234855,-3273333.7084 -4246.26105031,-3273208.30383 -4266.20965027,-3273039.42569 -4311.20123146,-3272727.77716 -4361.72352395,-3272434.75269 -4444.6364656,-3272275.43774 -4495.76449961,-3272078.35755 -4655.27123157,-3271892.97157 -4699.71376546,-3271613.28465 -4909.61435854,-3271581.04267 -5151.75389026,-3271638.53918 -5292.23107825,-3271695.50097 -5489.67056004,-3271772.369 -5661.18714106,-3271746.66512 -5884.07174363,-3271714.74673 -6001.27075867,-3271643.22122 -6082.06295514,-3271498.84028 -6160.15442879,-3271302.42935 -6225.75826326,-3271055.74307 -6427.70406776,-3270961.84598 -6571.07507276,-3270972.91278 -6789.29429295,-3270817.46521 -6793.28040197,-3270717.63615 -6800.57892154,-3270524.95619 -6890.28107499,-3270494.21453 -7063.14882931,-3270484.53111 -7151.6713033,-3270380.81207 -7214.71442182,-3270266.96495 -7245.6011031,-3270160.311 -7563.0710356,-3270092.27331 -7681.19314434,-3270144.18096 -7801.08867685,-3270064.72609 -7959.53966381,-3269921.77713 -8051.04776109,-3269838.61695 -8269.57538301,-3269901.51957 -8540.62333699,-3269851.81086 -8640.15456353,-3269998.18883 -8851.08452785,-3270105.37151 -8844.60819167,-3270275.09091 -8672.61496464,-3270460.17308 -8642.59638211,-3270652.28953 -8643.65672702,-3270790.21892 -8758.72621647,-3270904.50761 -8884.6185843,-3271015.56862 -9084.10558239,-3271030.53225 -9198.12265302,-3271096.82884 -9364.63195891,-3271151.94228 -9745.76480955,-3271135.95719 -9991.24312923,-3271160.06161 -10118.5677093,-3271374.08816 -10213.1297655,-3271519.34566 -10379.7302832,-3271610.93707 -10587.1621064,-3271668.07079 -10775.5615346,-3271626.79781 -10895.1898757,-3271598.30086 -11001.1228365,-3271557.97045 -11345.2211663,-3270922.98666 -11619.1347576,-3270437.64789 -11556.512417,-3270103.31501 -11609.6753216,-3269904.77581 -11611.2414908,-3269691.46045 -11531.6926062,-3269525.09125 -11517.2389118,-3269282.89644 -11619.0250582,-3269088.06619 -11653.7450818,-3268857.58866 -11656.554138,-3268604.33136 -11597.6523314,-3268441.47473 -11486.2659188,-3268249.33053 -11411.1287651,-3268026.11099 -11245.7304275,-3267886.08608 -11101.5948449,-3267775.07131 -11112.7853206,-3267586.47935 -11234.7239419,-3267334.68932 -11212.7579826,-3267153.26635 -11094.2164852,-3266957.44792 -11108.613355,-3266650.01713 -10990.0440826,-3266435.21155 -10909.2351359,-3266198.8614 -10498.0959201,-3265854.36096 -10505.6969857,-3265528.77453 -10553.6000436,-3265350.58983 -10694.1605182,-3265002.82819 -10690.7580354,-3264747.9187 -10601.5892962,-3264566.32413 -10605.7302097,-3264440.01407 -10675.5836119,-3264303.34657 -10782.2743202,-3264152.1057" style="stroke-linejoin:round;stroke:#000;stroke-width:1px;fill:none" /></g></g></svg>