<svg xmlns="http://www.w3.org/2000/svg" baseProfile="full" height="86209.1004687" version="1.1" viewBox="38873.846604,3256576.574775,73400.491082,86209.100469" width="73400.4910819"><defs><style type="text/css">polyline,line,rect,path,polygon,.polygon{fill:none;stroke:#000;stroke-width:1px;stroke-linejoin:round;}</style></defs><g fill_rule="evenodd" transform="scale(1,-1)"><g class="hogares departamen mujeres departam_1 toponimo_i tot_pob varones viv_part viv_part_h" id="86105"><polygon class="_86105" id="None" points="112126.215638,-3272500.3715 102645.782896,-3278381.11976 96661.636732,-3282100.91279 96597.4976126,-3282140.9262 95886.959214,-3285652.72642 93666.6152564,-3296623.30339 90696.3307618,-3295895.44316 83264.1871465,-3294073.76065 82704.5081038,-3296779.36723 78415.8413584,-3295724.61166 78315.7113208,-3296392.6981 77200.2862388,-3296142.6125 76123.2455951,-3302243.88707 76509.7003549,-3302643.00149 76671.3529307,-3303115.47288 76704.9807047,-3303460.06446 76642.4892903,-3304054.37082 76534.5200309,-3304440.63537 76312.391306,-3304802.86729 76135.344711,-3305117.23887 75999.6881097,-3305420.26755 75885.0366077,-3305814.08728 75987.5429346,-3306027.64888 76354.2391631,-3306245.48964 76480.598033,-3306591.30196 76633.1769208,-3306964.38364 76734.2117603,-3307270.4226 76854.6902586,-3307481.33275 77108.5726508,-3307805.57963 77222.2163831,-3308125.00671 77375.7149092,-3308458.59313 77410.404529,-3308750.19391 77418.2114391,-3309054.51608 77334.4286022,-3309344.11425 77225.2614163,-3309527.46531 77037.357741,-3309708.97978 77032.6984034,-3309986.91708 77068.1936885,-3310225.53086 77262.9343563,-3310440.8126 77571.5248379,-3310702.61833 77709.0180512,-3310945.3711 77726.3623226,-3311165.14391 77843.6938842,-3311358.0845 77874.1995506,-3311627.22807 77891.5344858,-3311875.49028 77994.4376707,-3312046.56007 78085.8005616,-3312360.67398 76796.817667,-3318497.80543 71943.3743189,-3341602.63313 49178.0976223,-3342356.23427 49152.7062549,-3340196.95549 44106.1441005,-3340114.43733 44046.560246,-3340132.44051 46518.2762429,-3324548.5312 45206.5429692,-3324247.69563 46106.5633419,-3320428.99827 45617.870135,-3320362.64005 46570.1704004,-3315801.70958 46998.076335,-3313755.10795 49594.992588,-3314208.62525 49899.2543532,-3312556.48796 46798.7111551,-3312072.2013 47868.7455876,-3307319.39317 47720.7830423,-3307289.64308 44903.1002913,-3306738.43469 45693.5679865,-3302494.83875 42338.4261729,-3301904.58955 42793.6453189,-3299674.30111 42618.0441072,-3299657.27473 44063.2751949,-3292246.45703 46827.9611042,-3292739.26828 47877.6824027,-3286587.56377 43579.0881987,-3285759.03683 44505.5961341,-3281455.85737 39161.4601036,-3280388.98149 39080.5922953,-3280372.65657 40200.6189306,-3275221.50001 41499.2333935,-3275602.15495 41844.1779459,-3273763.71228 42381.7486154,-3273907.72871 42775.8410972,-3271845.43642 53273.088423,-3273639.15545 53716.6884119,-3271307.10962 49185.4114614,-3270557.24835 49685.5238957,-3267679.83623 58029.1671875,-3269056.11446 58317.147556,-3267305.73197 60465.8739212,-3267619.92562 60635.065577,-3266344.90087 58351.2776228,-3265957.82961 58747.8993292,-3264377.50655 65961.679434,-3265885.16398 66449.2230528,-3263144.00399 76196.046548,-3265035.73418 76590.2765573,-3262220.48765 86180.6019486,-3258364.30486 88342.6377864,-3257495.46028 89997.0263725,-3256829.7028 90012.2350382,-3257039.49299 89994.8538779,-3257206.06717 89914.8614584,-3257447.62272 89863.9720349,-3257794.89729 89847.6680069,-3258001.44642 89816.1680831,-3258336.06759 89834.8002751,-3258689.27097 89892.3572432,-3259035.1586 89925.4981473,-3259237.30465 89845.721654,-3259443.87311 89749.0206754,-3259842.00192 89630.8835674,-3260277.29131 89511.90051,-3260578.64269 89283.8755054,-3260869.39205 88980.6277643,-3261251.22137 88671.3501672,-3261781.5409 88398.0280413,-3262277.58081 88258.2095687,-3262780.52392 88235.1326112,-3263348.98306 88274.6419446,-3263869.94762 88413.7269123,-3264252.65048 88671.8050704,-3264640.37364 89131.3097078,-3264846.51613 89713.0066973,-3264869.23021 90284.2955077,-3264720.10134 90654.8924151,-3264446.17306 91053.4775201,-3263806.66913 91383.8273647,-3263348.1511 91580.5672294,-3263204.59767 91711.0894703,-3263122.56167 91918.7010473,-3263055.38731 92151.6197518,-3263026.98917 92363.5731293,-3263062.73587 92542.9603838,-3263149.72781 92676.4275545,-3263274.58011 92718.2515164,-3263468.65442 92734.5841165,-3263662.43786 92653.4077321,-3263880.51087 92489.2803529,-3264039.28989 92279.2979161,-3264091.4907 92176.8489799,-3264214.27928 92155.8684743,-3264367.88631 92152.6906356,-3264498.35705 92230.9356692,-3264593.17458 92363.883496,-3264715.53131 92465.8586083,-3264809.15438 92551.0189872,-3264985.38017 92599.1447265,-3265185.89949 92597.0078738,-3265321.35921 92639.6280558,-3265490.43701 92719.8897939,-3265678.69739 92818.204269,-3265874.30617 92998.7977753,-3266077.73552 93314.9045243,-3266198.58685 93583.4211234,-3266123.41358 93755.4617126,-3265772.15248 93858.4058022,-3265374.97909 93981.9439464,-3265112.07875 94281.7224155,-3264918.20216 94655.123438,-3264712.72702 95071.9890214,-3264322.47697 95365.9663489,-3264000.20661 95676.5339155,-3263750.76902 96100.7198088,-3263704.81057 96482.3283353,-3263830.1255 96675.512593,-3264137.40438 96671.1876243,-3264402.32182 96507.342553,-3264717.02592 96199.1408921,-3264949.95147 95783.2058088,-3264996.34445 95423.1235639,-3265149.73222 94943.7500661,-3265444.03815 94614.8782582,-3265746.60607 94436.8895467,-3266042.93842 94464.9793941,-3266451.02958 94779.0298412,-3266717.33296 95083.1128149,-3266926.24272 95475.0398367,-3267120.93633 95858.3857802,-3267153.27188 96069.9658918,-3267144.03736 96296.9173156,-3267028.72389 96471.697866,-3266859.36346 96581.2078065,-3266623.0694 96669.7246959,-3266386.44812 96802.1419749,-3266200.94362 97023.2642856,-3266075.68395 97254.0438262,-3266183.24058 97445.1235224,-3266386.08006 97640.5818663,-3266574.38976 97982.9870186,-3266673.03278 98264.3697255,-3266735.19337 98428.6594445,-3266931.75434 98635.2317438,-3267225.92299 98789.6421862,-3267467.04395 99036.8770487,-3267722.39516 99282.1703687,-3267984.75848 99597.9990131,-3268194.56568 99967.5621406,-3268253.50063 100280.294106,-3268086.50788 100476.243245,-3267878.49452 100703.864902,-3267723.69644 100969.344875,-3267675.53769 101206.363742,-3267843.51131 101290.890629,-3268003.74134 101243.49794,-3268227.02571 101095.712317,-3268427.14627 100916.049837,-3268792.45162 100830.547651,-3269030.5429 100814.031444,-3269362.02316 100977.673309,-3269540.5933 101267.228514,-3269624.67195 101630.293186,-3269562.21512 101880.198906,-3269565.15824 102100.168041,-3269665.30137 102399.709251,-3269961.19629 102607.967166,-3270217.36043 102747.693586,-3270496.07715 102756.888468,-3270884.81496 102712.022214,-3271232.51741 102717.978539,-3271500.83956 102890.429269,-3271747.8008 103316.961398,-3271989.17166 103635.01135,-3272104.99603 103936.899912,-3272169.97796 104242.637462,-3272095.49611 104397.41025,-3271925.3046 104426.805392,-3271732.15694 104398.489095,-3271479.51354 104450.320418,-3271067.28824 104583.334473,-3270712.36701 104705.793291,-3270501.96231 104844.206282,-3270438.85441 105048.158219,-3270445.17333 105232.906849,-3270577.58821 105336.533927,-3270751.15008 105331.005519,-3271081.53276 105259.362511,-3271393.96848 105304.962039,-3271590.99597 105446.950149,-3271658.79352 105557.27707,-3271644.39231 105649.376772,-3271510.20046 105812.519751,-3271415.90417 105955.102068,-3271373.75141 106304.381966,-3271428.84896 106581.464541,-3271486.03963 106971.767111,-3271607.26609 107233.19792,-3271797.01861 107302.002095,-3271898.90089 107379.670551,-3272015.20284 107412.575532,-3272187.84489 107416.456098,-3272355.7283 107407.29076,-3272517.22235 107378.092841,-3272703.86873 107382.402485,-3272832.76823 107416.395817,-3272955.42631 107493.034776,-3273128.70742 107602.151646,-3273210.26713 107764.91118,-3273221.42041 107938.211576,-3273177.51476 108084.840762,-3273080.85575 108332.808952,-3272758.47698 108401.62368,-3272345.62044 108459.771448,-3272002.81624 108547.915419,-3271813.1872 108663.439554,-3271701.79304 108782.374903,-3271701.31429 108900.648807,-3271772.30445 109064.567085,-3271802.93945 109146.526472,-3271894.218 109177.225453,-3272011.40517 109077.534107,-3272164.14761 109010.443278,-3272331.11447 109020.197937,-3272514.44021 109076.214925,-3272641.41378 109188.346459,-3272755.43174 109285.927721,-3272832.08862 109472.42724,-3272874.03088 109635.030841,-3272805.72677 109747.646965,-3272614.39801 109738.538062,-3272388.08983 109697.341169,-3272149.05235 109713.342508,-3271968.01398 109754.698515,-3271801.25955 109856.685235,-3271563.04306 109960.020306,-3271488.73102 110096.148724,-3271452.1297 110205.765515,-3271473.21672 110314.203714,-3271533.29321 110318.512285,-3271662.19091 110296.885507,-3271797.29884 110080.080731,-3272019.9681 110056.035744,-3272225.55964 110100.411863,-3272365.12201 110195.331489,-3272482.77946 110284.616566,-3272523.02336 110400.283233,-3272550.55659 110575.543402,-3272502.13859 110782.349684,-3272430.9728 110983.876979,-3272386.3368 111179.355155,-3272365.73812 111456.43488,-3272423.42659 111693.807378,-3272453.45643 111988.87466,-3272480.51276 112126.215638,-3272500.3715" style="stroke-linejoin:round;stroke:#000;stroke-width:1px;fill:none" /></g></g></svg>