<svg xmlns="http://www.w3.org/2000/svg" baseProfile="full" height="114526.439708" version="1.1" viewBox="-27306.430294,3079978.155834,155555.709769,114526.439708" width="155555.709769"><defs><style type="text/css">polyline,line,rect,path,polygon,.polygon{fill:none;stroke:#000;stroke-width:1px;stroke-linejoin:round;}</style></defs><g fill_rule="evenodd" transform="scale(1,-1)"><g class="id" id="86119"><polygon class="_86119" id="None" points="128036.840169,-3080638.07802 127959.048891,-3085933.94862 127912.122951,-3094203.68342 127790.751676,-3106106.94232 127775.311281,-3107630.28427 127744.022479,-3108433.93352 127501.047033,-3135122.78469 127485.943983,-3136485.4507 127473.590686,-3139628.03018 127473.495817,-3139706.87652 127473.201275,-3141091.14622 127422.716067,-3145561.03794 127386.568096,-3155223.38387 127386.481004,-3155240.35264 127327.077761,-3161623.777 127217.522438,-3172554.63035 127222.28588,-3179259.01725 127184.196054,-3181143.81262 127138.603443,-3188109.53282 127117.510889,-3190018.89483 108231.946939,-3189648.43333 97409.2868749,-3189436.43812 96482.5835621,-3189418.28895 94428.718943,-3189381.92086 85821.1876178,-3189154.63009 75701.6480709,-3188877.91663 75663.3289016,-3192226.63906 74643.5893978,-3192158.8335 71720.3261757,-3192146.29113 68858.9543739,-3192156.17982 68284.499608,-3192136.83804 67537.0412278,-3192118.25021 62690.793995,-3192022.56551 61943.8188377,-3191984.4816 50449.8056586,-3191966.49668 50461.8660518,-3193597.2716 50450.0678286,-3193920.1803 42308.663548,-3193920.76472 42634.1187878,-3191928.49307 31941.8344456,-3191713.63913 31941.865166,-3193579.21779 19462.0829256,-3193518.47828 16200.680126,-3193502.46708 11902.4908156,-3193481.85342 11374.1164365,-3193447.83347 10056.1671625,-3193362.70713 9923.9356744,-3185954.34233 2289.99659781,-3186144.29595 2254.61082201,-3183640.6987 -690.245896738,-3183641.60915 -1688.44742542,-3183641.98121 -2404.23398178,-3183637.96026 -17878.6578306,-3183446.20789 -17654.0591862,-3181395.6176 -20881.3359641,-3180310.99137 -21170.9407441,-3181519.75556 -24212.9458406,-3180854.31052 -23869.8192435,-3179667.7076 -24716.3858082,-3179509.42603 -24557.7656099,-3178450.73529 -23763.8718216,-3178662.27067 -23188.3168511,-3174580.89796 -22755.6449846,-3172769.55869 -20057.5939447,-3161476.13783 -20259.7252345,-3161434.06574 -25033.423057,-3160406.92512 -24962.3706246,-3160101.4035 -24043.9783425,-3156156.76582 -26366.7246743,-3155577.3449 -25665.3975098,-3152880.64116 -25394.2830491,-3151837.77215 -23251.3176067,-3152433.07944 -23489.2946093,-3151362.04987 -21465.549034,-3151242.72388 -22698.9866285,-3137850.63438 -22704.8051339,-3137785.31905 -27180.0772381,-3137431.78836 -26691.282997,-3135192.49257 -26560.7229439,-3134491.81268 -23780.0788025,-3119545.0606 -23439.436345,-3117827.56956 -23417.1436553,-3117715.11235 -23502.572552,-3117715.65706 -25994.9787923,-3117722.81848 -25994.3621863,-3117497.95271 -25990.9538393,-3112927.39749 -24350.9657756,-3112826.25834 -24338.0882092,-3109787.49337 -23975.3332133,-3102253.89674 -21488.279808,-3102201.1573 -21488.3657804,-3099290.65901 -22282.3365702,-3099237.60197 -22018.2285705,-3085427.17089 -19901.4206151,-3085532.39378 -20007.4326441,-3081299.3024 8240.79223252,-3081313.06157 8392.84595813,-3081310.46645 8334.43221267,-3083561.84854 23234.280281,-3083443.80397 23444.7916808,-3083463.80295 23468.5550384,-3084289.40886 49145.5846517,-3084420.8379 49147.0073012,-3084132.15668 49166.7507407,-3080503.61365 64864.9464416,-3080488.09556 85392.4503021,-3080467.46016 88097.170038,-3080464.70075 97752.1440531,-3080458.15231 128036.840169,-3080638.07802" style="stroke-linejoin:round;stroke:#000;stroke-width:1px;fill:none" /></g></g></svg>