<svg xmlns="http://www.w3.org/2000/svg" baseProfile="full" height="117001.855639" version="1.1" viewBox="46231.287195,2939547.040582,85172.256564,117001.855639" width="85172.2565641"><defs><style type="text/css">polyline,line,rect,path,polygon,.polygon{fill:none;stroke:#000;stroke-width:1px;stroke-linejoin:round;}</style></defs><g fill_rule="evenodd" transform="scale(1,-1)"><g class="id" id="86133"><polygon class="_86133" id="None" points="108359.680231,-2941922.67301 108460.987468,-2942105.82598 108469.813542,-2942217.70242 108523.532262,-2942318.25137 108603.576303,-2942397.11603 108747.284466,-2942401.54659 109075.048701,-2942359.13496 109316.452343,-2942396.82286 109513.008745,-2942519.29925 109601.445516,-2942719.0377 109605.939675,-2942987.86307 109565.899502,-2943181.55867 109591.915217,-2943353.77483 109647.369358,-2943418.8286 109736.193918,-2943435.16006 109917.093501,-2943400.83417 110012.884166,-2943413.11603 110079.899492,-2943453.59676 110110.890045,-2943521.83043 110098.483941,-2943600.88079 110019.870251,-2943680.92259 109933.73126,-2943757.02246 109851.589947,-2943833.0927 109794.753309,-2943951.95236 109820.197126,-2944181.64195 109854.832259,-2944336.80248 109877.288345,-2944601.49553 109988.882478,-2944756.58361 110111.313189,-2944924.08432 110223.115376,-2945107.15558 110338.018948,-2945337.67826 110434.490176,-2945542.35154 110531.738843,-2945683.55268 110682.506906,-2945730.40587 110804.125624,-2945721.50575 110878.633659,-2945727.94794 110969.212192,-2945812.22883 111041.03607,-2945928.13222 111079.812614,-2946035.28614 111109.937304,-2946154.99764 111102.118029,-2946279.48892 111108.130687,-2946382.38885 111032.128033,-2946510.88552 110945.124536,-2946638.46467 110881.003377,-2946751.88115 110848.117505,-2946865.56498 110818.758067,-2947050.18448 110795.054899,-2947289.73237 110662.618062,-2947523.59335 110613.896311,-2947792.31212 110644.418968,-2948065.93773 110693.976256,-2948278.45414 110863.283787,-2948466.09111 111017.009411,-2948473.94094 111207.138708,-2948471.52497 111236.962816,-2948584.2417 111219.960598,-2948683.31485 111267.523868,-2948829.3812 111422.298896,-2949011.62839 111438.422429,-2949129.94397 111478.065795,-2949219.09994 111587.850383,-2949265.25612 111655.187351,-2949214.78139 111718.329004,-2949171.33415 111792.4898,-2949164.78469 111825.003189,-2949236.00344 111827.929129,-2949393.89559 111995.052036,-2949456.1152 112114.628345,-2949575.65803 112166.59951,-2949743.17875 112164.435663,-2949888.61531 112129.92957,-2950019.30124 112136.227613,-2950093.21379 112182.866947,-2950182.317 112213.817703,-2950345.49663 112118.848328,-2950510.11523 112049.337549,-2950704.52762 112007.739366,-2950788.79202 111990.566795,-2950864.87857 112018.833236,-2951003.09185 112197.445528,-2951198.65095 112353.008291,-2951385.88639 112414.340789,-2951535.34611 112437.110899,-2951673.59993 112430.939718,-2951817.56675 112445.22325,-2952090.8095 112471.730657,-2952294.49914 112548.278584,-2952473.82813 112745.23415,-2952582.7959 112884.980924,-2952559.26448 112969.943815,-2952527.1473 113055.298354,-2952514.01669 113129.421139,-2952535.95058 113179.402244,-2952604.03923 113193.077364,-2952695.38627 113163.72735,-2952880.50278 113134.843928,-2953094.59972 113148.195091,-2953209.43607 113191.28489,-2953258.08683 113291.238627,-2953259.33877 113373.232549,-2953197.76002 113492.878343,-2953092.42423 113524.562914,-2952952.26554 113625.720408,-2952880.54941 113733.176558,-2952849.2637 113843.41481,-2952855.93601 113957.374808,-2952892.56374 114115.359886,-2952935.85863 114226.10133,-2952943.02688 114333.736068,-2952902.24531 114456.227356,-2952876.8441 114622.359615,-2952873.6043 114699.658835,-2952886.01961 114806.573882,-2952882.72244 114915.876013,-2952964.85917 114984.979224,-2953050.79411 115007.932625,-2953213.53049 115087.749624,-2953328.86854 115186.565416,-2953378.60166 115304.31676,-2953387.71622 115426.933962,-2953345.82339 115545.07285,-2953339.94362 115683.334687,-2953485.82701 115843.478176,-2953617.55466 115974.412321,-2953752.49866 116071.286338,-2953943.66497 116219.057835,-2954158.43688 116369.11864,-2954345.20739 116483.889559,-2954624.18854 116488.040458,-2954911.99191 116380.113371,-2954980.26024 116252.415067,-2955044.17911 116133.805063,-2955154.00373 116103.818226,-2955253.67098 116126.827991,-2955356.93949 116181.131048,-2955434.9882 116112.601967,-2955559.42976 116019.797094,-2955678.5562 115970.506043,-2955802.85397 115867.161471,-2956016.00565 115757.144819,-2956339.1445 115597.169647,-2956597.19522 115539.153207,-2956857.48099 115591.686581,-2956966.02516 115653.098302,-2957059.01164 115695.603474,-2957263.07607 115698.385612,-2957400.97613 115672.413482,-2957536.09334 115620.271627,-2957679.90181 115628.687052,-2957769.28745 115686.009077,-2957883.29218 115753.975896,-2957950.74374 115797.110933,-2958005.38885 115829.274981,-2958163.05698 115890.187137,-2958355.9891 116014.79556,-2958479.9829 116100.117864,-2958462.85269 116122.455204,-2958376.23508 116196.316188,-2958296.7269 116296.381721,-2958246.50533 116547.814788,-2958223.6327 116615.325487,-2958263.6032 116638.917689,-2958344.37945 116623.264684,-2958489.41281 116541.788806,-2958552.9872 116526.31599,-2958622.06327 116539.574942,-2958690.92391 116619.250447,-2958753.78969 117029.0606,-2958760.21121 117133.006543,-2958894.3532 117168.77608,-2959132.94573 117297.413915,-2959327.86657 117334.084494,-2959519.97911 117336.730684,-2959672.86991 117319.175092,-2959863.89008 117331.456572,-2960002.217 117408.770067,-2960116.56954 117397.475324,-2960209.59992 117332.315054,-2960283.04633 117257.187461,-2960360.06556 117182.670607,-2960418.59108 117112.859445,-2960471.58452 117146.497066,-2960525.80018 117244.008932,-2960601.52339 117336.898321,-2960627.31049 117519.693101,-2960580.96443 117687.597165,-2960514.74202 117885.594333,-2960463.28503 118087.638962,-2960451.77425 118248.620491,-2960528.51987 118488.949166,-2960591.1777 118572.129472,-2960821.41662 118546.561408,-2961009.99707 118487.252568,-2961163.85163 118332.133104,-2961169.01422 118173.360328,-2961120.23612 118037.803064,-2961135.24591 117908.94792,-2961177.68922 117893.006486,-2961250.766 117931.82319,-2961295.94767 118070.106203,-2961277.91904 118222.043383,-2961314.75543 118342.637081,-2961469.75748 118481.089845,-2961574.15504 118636.1357,-2961592.47877 118719.630283,-2961598.34769 118792.965725,-2961648.76653 118796.090986,-2961732.19348 118716.753196,-2961780.76105 118661.617555,-2961858.12963 118660.249599,-2961942.09009 118772.738288,-2961982.72022 118831.045998,-2962028.25476 118879.502889,-2962092.85201 118941.954422,-2962157.84376 119001.813957,-2962143.90196 119029.305855,-2962045.25399 118951.802373,-2961938.9 118917.208798,-2961857.20867 118918.858755,-2961744.26344 119068.60972,-2961623.20983 119182.47373,-2961580.87922 119314.740918,-2961560.39732 119378.854184,-2961680.34384 119322.320191,-2961904.13519 119357.679917,-2962021.2994 119489.597059,-2962087.26816 119581.371053,-2962197.51216 119687.466327,-2962351.62208 119738.317671,-2962568.60956 119775.725195,-2962692.25402 119878.422663,-2962759.94092 120089.969612,-2962749.85577 120273.074313,-2962911.38115 120363.822637,-2963018.13408 120543.222925,-2963019.28379 120734.8443,-2962984.36342 120786.516783,-2963077.91804 120780.810042,-2963249.35709 120663.166237,-2963353.67907 120646.818346,-2963538.69007 120690.470296,-2963695.26672 120722.956738,-2963828.94119 120833.902513,-2963963.52444 121009.971959,-2964020.16463 121181.054118,-2964111.32125 121322.46781,-2964177.71618 121454.81221,-2964234.18536 121587.252208,-2964270.16628 121645.384739,-2964325.69465 121643.698541,-2964433.64133 121558.040062,-2964505.24255 121489.276229,-2964564.22432 121476.576586,-2964636.27595 121526.232109,-2964727.34634 121602.636441,-2964787.23428 121707.260036,-2964778.95137 121805.106388,-2964799.70173 121848.080332,-2964899.317 121846.360605,-2965002.76652 121844.188623,-2965145.69524 121877.710479,-2965250.87818 121836.17351,-2965342.13515 121756.368532,-2965394.70422 121530.47903,-2965457.36795 121391.671152,-2965438.4255 121240.072747,-2965413.08332 121209.097974,-2965480.27573 121252.102558,-2965583.88843 121329.232723,-2965673.75227 121417.171123,-2965739.04959 121527.324016,-2965668.76239 121571.815165,-2965538.50681 121631.930812,-2965525.56172 121677.061059,-2965579.68847 121701.680427,-2965763.39036 121754.348024,-2965889.41613 121805.639525,-2966064.92182 121877.961213,-2966179.80607 121965.39604,-2966244.60706 122129.296706,-2966443.74876 122244.373475,-2966662.24635 122233.082026,-2966755.27415 122216.938363,-2966834.34716 122157.401813,-2966857.78177 122098.745295,-2966832.23992 122050.999767,-2966762.64289 121968.862821,-2966638.33883 121877.444456,-2966509.10767 121767.091566,-2966387.01477 121671.637843,-2966451.69486 121579.031365,-2966595.80487 121496.007758,-2966685.37615 121377.928464,-2966764.71818 121325.576607,-2966879.54282 121308.257945,-2967001.59881 121449.832166,-2967254.87566 121540.659685,-2967305.65921 121573.07307,-2967429.33878 121564.074628,-2967561.32572 121547.077365,-2967825.29208 121514.384539,-2968028.91396 121461.466819,-2968234.18758 121435.074009,-2968411.77796 121376.760294,-2968564.12494 121215.784308,-2968719.74544 121132.025972,-2969009.70068 121035.724398,-2969259.77531 120964.860087,-2969536.64154 120974.806874,-2969761.92859 121034.496679,-2969824.93882 121131.927003,-2969856.68285 121225.913151,-2969862.4688 121304.539362,-2969819.40083 121399.543392,-2969662.27912 121345.581015,-2969431.32868 121362.220225,-2969318.77199 121431.386867,-2969280.27296 121514.329628,-2969345.60608 121596.598344,-2969420.93809 121645.883969,-2969396.58062 121646.903729,-2969333.11195 121594.433822,-2969233.56963 121553.315812,-2969148.43263 121583.128399,-2969026.78214 121604.158355,-2968933.18078 121664.314822,-2968793.31233 121593.373598,-2968662.92829 121562.564002,-2968553.22836 121626.71056,-2968412.33047 121672.013246,-2968290.5632 121743.305101,-2968202.57899 121859.269663,-2968174.22088 122000.524738,-2968120.18771 122112.698507,-2968019.90269 122194.496272,-2967999.79761 122232.149883,-2968089.45801 122229.084764,-2968179.92529 122159.666162,-2968416.8032 122092.009851,-2968589.20772 122063.777166,-2968787.79843 122166.763449,-2968827.49604 122315.532744,-2968742.92462 122498.643901,-2968739.54371 122673.905556,-2968821.66908 122855.660678,-2968837.28658 123094.243893,-2968735.54792 123229.328507,-2968526.15823 123325.298324,-2968364.53436 123406.642416,-2968185.03222 123583.865962,-2968196.18739 123669.004733,-2968320.96663 123665.303108,-2968558.84577 123743.766459,-2968626.71081 123741.764022,-2968758.64332 123553.712379,-2968967.93265 123405.585413,-2969137.44564 123297.23889,-2969281.17444 123375.247445,-2969388.01835 123535.118244,-2969284.87492 123729.579817,-2969295.89886 123931.319333,-2969344.34433 124101.226043,-2969478.47635 124165.345777,-2969598.91612 124189.981332,-2969718.15493 124121.717733,-2969876.07149 124120.478633,-2970108.93437 124117.366448,-2970325.32175 124259.445778,-2970380.71267 124353.697204,-2970289.55755 124407.86667,-2970184.21447 124555.991843,-2970014.70178 124703.817441,-2969871.67488 124769.978042,-2969799.2207 124892.700014,-2969805.78912 124914.208553,-2969941.04091 124884.378733,-2970027.21179 124804.36003,-2970117.2596 124812.707918,-2970230.12506 124988.119389,-2970299.25521 125016.305655,-2970425.46208 124934.990872,-2970608.46086 124900.665876,-2970827.08184 124884.65141,-2970989.10026 124829.627852,-2971047.47945 124775.184981,-2971248.76377 124759.344222,-2971466.74554 124825.246837,-2971657.62589 124899.072684,-2971805.97311 125004.321303,-2971847.6501 125117.788504,-2971819.80904 125208.272853,-2971693.20478 125205.911937,-2971612.27412 125131.278389,-2971588.35408 125060.637813,-2971596.88319 124969.883944,-2971489.63799 124958.73808,-2971370.29806 125079.379629,-2971266.95096 125082.221539,-2971081.04753 125115.896415,-2971007.83931 125190.315773,-2970937.32125 125273.976996,-2970965.67047 125334.441502,-2971032.17084 125360.122904,-2971124.41787 125422.05995,-2971187.40925 125487.393632,-2971170.92554 125489.325342,-2971095.95871 125398.723622,-2970975.72058 125378.114363,-2970893.42884 125389.225577,-2970809.89799 125455.393092,-2970738.44312 125532.706551,-2970753.34898 125610.370549,-2970847.7015 125636.8498,-2970979.41722 125660.637159,-2971151.62739 125612.277271,-2971364.35745 125520.455872,-2971545.43664 125442.831898,-2971819.84906 125360.0266,-2972069.81648 125349.162026,-2972152.84582 125387.127399,-2972217.51721 125498.981577,-2972207.67672 125614.697184,-2972146.8396 125713.674034,-2972119.1081 125836.682886,-2972130.66959 125962.435592,-2972174.68952 126159.98261,-2972230.65825 126226.934761,-2972329.08822 126102.179884,-2972449.95514 126005.5605,-2972591.09618 126078.978113,-2972685.47972 126220.253673,-2972766.85765 126342.875959,-2972793.41198 126369.505938,-2972680.78276 126459.36031,-2972603.15232 126547.813428,-2972604.48172 126556.791422,-2972668.37258 126555.602247,-2972742.33394 126600.75924,-2972832.9336 126666.061295,-2972911.38847 126640.419663,-2972989.53228 126517.763534,-2972958.48126 126439.992845,-2972883.11879 126067.7937,-2973089.30534 125905.73158,-2973298.39893 125793.040286,-2973560.5848 125621.60983,-2973951.13405 125659.435673,-2974063.27558 125737.415365,-2974100.16085 125853.478281,-2974118.26943 125793.168178,-2973973.31947 125777.860798,-2973865.50455 125842.017101,-2973693.62843 125912.657459,-2973586.162 126021.127318,-2973525.37907 126110.458842,-2973510.71161 126192.586784,-2973567.5528 126229.223493,-2973753.65555 126345.263032,-2973966.63908 126510.699926,-2974038.33894 126766.11509,-2974081.87483 126910.089559,-2974024.82043 126980.876938,-2973936.84084 127088.017531,-2973832.59636 127159.277935,-2973807.07287 127217.585162,-2973852.60148 127240.917013,-2973931.37357 127293.213241,-2974040.90614 127356.024834,-2974120.37845 127388.373112,-2974268.03733 127382.188104,-2974342.03614 127284.730462,-2974306.29818 127182.613185,-2974216.1308 127108.930342,-2974185.70906 127078.60324,-2974238.90449 127081.922898,-2974347.30908 127056.459852,-2974415.95764 127002.176186,-2974439.85373 126866.851102,-2974451.37229 126760.728807,-2974426.19318 126642.437028,-2974443.57883 126660.636504,-2974537.38027 126792.029113,-2974633.32196 126864.697882,-2974727.70985 126902.539004,-2974841.84901 126891.039896,-2974939.87278 126904.303565,-2975008.72761 126973.266316,-2975009.70389 127047.895315,-2974967.1654 127141.69646,-2974948.96575 127234.831534,-2974974.74263 127218.025765,-2975097.79022 127215.997544,-2975225.72256 127279.021597,-2975300.19608 127370.075527,-2975446.90992 127442.222289,-2975571.28161 127514.36531,-2975695.15354 127517.322311,-2975788.57028 127452.728334,-2975836.52928 127300.623646,-2975809.70111 127226.638341,-2975838.24407 127214.303783,-2975990.73864 127211.088438,-2976192.6319 127246.899229,-2976434.20305 127323.373319,-2976569.0347 127331.502588,-2976751.35437 127389.992104,-2977051.21497 127427.656776,-2977174.84834 127569.594594,-2977211.74599 127664.370605,-2977124.58285 127728.476373,-2977111.10467 127777.01452,-2977153.20845 127775.634246,-2977234.66572 127739.302194,-2977352.36488 127550.431065,-2977484.71359 127453.248013,-2977781.25882 127265.010123,-2977964.07056 127116.195697,-2978173.06594 126956.093806,-2978376.15134 126875.820055,-2978497.68289 126869.598842,-2978566.68544 126863.313914,-2978660.17259 126906.451473,-2978714.80905 126961.585665,-2978671.41788 127055.851776,-2978648.71569 127109.004171,-2978673.29547 127181.504722,-2978778.17584 127249.268358,-2978818.63409 127338.118793,-2978839.44471 127450.496405,-2978800.11557 127561.351413,-2978724.82155 127642.770524,-2978556.81203 127707.96803,-2978456.88152 127787.084995,-2978413.3084 127868.691049,-2978467.15266 127888.017018,-2978577.43353 127879.195895,-2978665.94269 127863.329123,-2978846.44525 127802.895441,-2979014.29512 127706.408634,-2979204.90453 127759.712853,-2979249.46983 127912.830075,-2979212.32916 128065.074154,-2979224.66277 128183.828645,-2979301.20902 128350.42445,-2979262.46693 128410.088148,-2979190.56027 128523.377811,-2979172.71013 128641.679907,-2979189.79886 128764.259267,-2979210.85241 128858.045492,-2979256.60869 128860.894109,-2979335.53491 128805.934486,-2979368.93103 128707.951561,-2979362.68068 128566.669768,-2979346.26648 128430.95131,-2979437.23928 128252.29392,-2979532.53615 128192.036655,-2979624.93404 128273.153789,-2979778.71566 128403.361396,-2979948.61285 128461.212805,-2980032.61718 128548.482285,-2980108.40291 128651.609962,-2980134.10085 128716.062657,-2980100.63224 128717.388427,-2980012.1805 128678.785757,-2979962.50712 128610.976854,-2979916.05391 128563.638822,-2979769.0111 128663.972657,-2979657.32109 128787.432539,-2979629.8996 128899.531743,-2979685.50976 129016.631094,-2979741.5815 129130.593751,-2979713.73259 129214.925578,-2979666.12231 129323.150835,-2979672.29459 129366.364033,-2979736.92286 129342.290302,-2979856.52677 129363.190802,-2979943.80979 129444.79098,-2980062.60981 129530.27767,-2980035.47707 129574.221046,-2979966.18861 129566.227576,-2979867.81482 129666.87426,-2979731.63932 129915.428218,-2979563.35984 130057.67401,-2979575.26948 130091.004411,-2979654.46301 130056.376517,-2979733.17401 129868.936411,-2979856.01868 129831.305932,-2979901.27495 129885.078865,-2979941.83864 129933.389977,-2979986.94085 130069.847414,-2980091.83216 130156.315521,-2980226.58393 130247.738231,-2980355.80154 130438.114541,-2980454.78578 130554.933926,-2980539.83927 130548.963355,-2980608.83848 130435.814741,-2980612.19788 130326.887488,-2980645.00544 130330.558359,-2980733.41833 130349.209598,-2980787.73993 130509.737141,-2980903.93945 130561.092785,-2981086.42593 130697.032893,-2981221.79947 130902.091293,-2981313.17577 130968.507255,-2981472.06282 130984.021659,-2981737.76575 130912.838088,-2981904.19631 130833.431757,-2981942.27598 130744.8036,-2981950.44607 130753.614698,-2982024.82893 130909.3614,-2982038.1327 130938.697026,-2982150.33356 130892.511735,-2982253.11652 130772.416232,-2982393.93753 130615.143843,-2982377.14805 130540.344635,-2982429.68317 130542.368983,-2982498.62149 130512.371688,-2982660.24184 130472.178429,-2982762.47984 130372.439373,-2982820.70159 130311.301788,-2982895.61777 130310.736729,-2982952.58393 130369.544604,-2982998.10481 130463.656798,-2983053.84947 130468.532246,-2983136.25701 130410.359985,-2983239.63154 130477.83315,-2983307.57114 130441.150813,-2983444.2594 130314.390964,-2983595.62535 130221.076698,-2983677.2829 130090.35556,-2983931.6106 130059.007768,-2984014.29464 129959.400581,-2984057.02657 129850.123088,-2984043.86968 129772.154728,-2984073.94491 129714.314715,-2984155.33227 129715.32706,-2984255.25793 129790.634799,-2984367.60792 129889.057493,-2984464.29173 129917.252541,-2984590.49211 129901.870545,-2984735.51275 129741.963708,-2984799.19179 129633.456469,-2984756.04945 129535.220369,-2984749.30437 129475.376308,-2984797.22963 129463.222956,-2984874.27121 129507.351434,-2984960.37677 129590.146513,-2985006.21367 129732.482382,-2985062.58856 129949.025706,-2985119.89572 130277.34414,-2985124.8837 130504.97019,-2985128.6419 130630.342633,-2985221.12179 130646.060669,-2985381.89361 130568.211207,-2985427.45795 130367.119373,-2985430.49279 130305.470101,-2985536.39297 130368.150068,-2985630.85054 130435.753896,-2985715.77679 130449.284709,-2985819.10401 130452.24689,-2985912.51866 130451.273119,-2986013.95801 130370.626627,-2986118.50451 130271.203453,-2986185.22004 130343.592302,-2986275.1062 130445.425287,-2986360.27026 130470.055384,-2986477.50318 130412.600224,-2986576.37627 130313.958823,-2986614.60517 130164.838147,-2986585.76517 129998.74186,-2986624.01012 129831.475004,-2986705.23539 129658.281142,-2986795.50014 129481.350681,-2986985.22742 129350.390822,-2987175.10318 129348.895232,-2987273.54914 129401.021506,-2987392.57098 129485.111163,-2987378.93644 129554.937196,-2987296.95663 129635.386994,-2987199.40596 129720.024956,-2987126.80669 129794.371564,-2987113.24681 129893.790805,-2987046.03093 129970.785417,-2987117.39405 129959.583642,-2987253.38883 129901.449528,-2987328.78335 129774.156328,-2987442.68155 129654.102662,-2987588.50321 129647.607102,-2987686.48758 129682.711478,-2987801.14233 129732.705536,-2988000.6264 129715.38902,-2988251.59149 129631.933152,-2988380.64459 129553.086031,-2988393.73979 129502.467047,-2988341.16255 129491.802476,-2988220.82441 129468.811458,-2988122.06627 129331.370188,-2988085.14338 129188.961736,-2988084.73422 129054.993513,-2988175.2001 128972.509937,-2988398.68357 128965.329183,-2988537.6464 129012.979967,-2988626.72226 129041.668616,-2988686.46283 129095.824725,-2988711.53127 129145.810076,-2988648.69005 129205.222359,-2988609.76075 129258.747532,-2988650.32373 129296.520288,-2988754.46507 129314.688602,-2988843.26679 129353.015784,-2988921.92077 129356.521377,-2989020.82808 129296.331898,-2989088.74415 129202.922469,-2989092.45754 129139.966372,-2989027.48318 129022.652929,-2988976.41609 128918.688592,-2989004.69402 128848.089626,-2989116.16117 128891.171264,-2989195.77821 129027.169887,-2989174.74984 129126.418778,-2989248.44022 129183.698005,-2989322.45201 129265.555953,-2989506.70202 129415.988937,-2989641.45906 129443.422975,-2989765.66598 129431.928416,-2989863.18916 129327.656279,-2989916.45327 129213.388437,-2989936.81598 129139.085933,-2990021.32961 129029.650805,-2990118.10462 128987.495797,-2990289.81398 128980.473576,-2990449.26203 128929.31552,-2990554.58462 128833.888823,-2990686.22948 128551.301029,-2990813.31369 128190.677775,-2991059.4187 127841.651899,-2991384.38387 127781.66026,-2991575.71872 127749.183652,-2991771.33959 127677.197146,-2991962.26705 127648.9904,-2992193.33204 127597.03222,-2992389.6024 127517.93472,-2992402.70148 127430.590697,-2992317.92803 127311.845332,-2992275.86777 127165.579615,-2992326.45829 127064.322559,-2992479.63614 127014.805207,-2992668.39338 127152.074416,-2992845.22304 127301.97828,-2992910.52829 127425.93551,-2992948.05105 127485.945666,-2993019.54298 127531.723682,-2993092.14353 127522.602073,-2993205.63924 127460.138042,-2993302.5559 127334.669376,-2993360.98221 127202.00955,-2993426.45928 127081.129404,-2993529.32146 127078.453018,-2993701.22977 127117.086191,-2993819.35551 127167.234285,-2993940.39073 127206.678513,-2994066.5049 127151.701984,-2994129.88635 127067.623189,-2994177.50201 127036.783232,-2994260.68494 126903.024358,-2994313.17971 126720.730808,-2994324.57473 126593.152102,-2994336.04877 126497.335045,-2994449.21239 126544.854883,-2994553.27912 126613.628912,-2994659.68071 126780.9213,-2994906.73241 126858.362372,-2995100.51006 126854.169304,-2995237.45307 126789.423101,-2995297.41245 126605.97277,-2995385.76732 126501.485477,-2995443.53426 126392.912724,-2995554.79799 126372.258716,-2995727.84469 126328.893463,-2995774.14861 126251.091217,-2995858.1933 126100.217655,-2995959.28984 125994.874256,-2996197.94683 125971.91808,-2996299.05827 125990.363178,-2996358.37778 125846.64223,-2996447.42756 125752.532015,-2996490.12513 125646.919157,-2996628.84944 125629.21781,-2996795.87812 125671.039473,-2996905.98475 125652.035012,-2997033.54894 125581.250488,-2997055.58038 125458.817023,-2997021.54609 125333.6739,-2996992.5294 125151.941271,-2997109.3552 124989.511721,-2997331.96457 124979.021231,-2997494.44125 124953.337773,-2997663.0312 124935.033181,-2997784.09476 124923.335292,-2997887.11894 124878.045353,-2997975.4117 124767.730479,-2997990.25313 124553.483231,-2997940.4376 124374.592131,-2997907.33858 124229.289754,-2997920.95066 124192.862972,-2998024.66557 124117.344513,-2998145.67109 124096.226576,-2998258.26236 123970.098743,-2998458.10842 123827.971901,-2998721.53787 123690.224152,-2999034.40259 123483.179938,-2999400.2693 123426.345392,-2999676.03372 123495.786136,-2999835.89626 123489.300968,-2999934.38403 123601.288547,-3000200.85021 123685.767547,-3000302.13334 123853.21312,-3000308.83533 124013.60455,-3000405.03492 123963.664383,-3000473.37738 123796.172602,-3000460.67971 123679.546937,-3000370.1383 123488.025211,-3000351.62985 123358.575221,-3000444.57133 123193.45867,-3000318.9265 123125.810469,-3000229.50559 123037.390796,-3000232.6867 123015.873723,-3000325.79427 123083.970546,-3000376.23632 123186.758649,-3000421.91328 123249.625476,-3000506.87386 123332.423484,-3000552.20539 123335.720549,-3000655.61457 123314.741979,-3000753.71473 123161.78202,-3000746.40154 123111.803144,-3000809.74787 123159.017022,-3000938.30185 123212.136976,-3001022.83789 123318.76632,-3001112.95668 123534.672091,-3001150.76361 123653.592452,-3001117.86507 123716.576916,-3001153.35565 123710.380907,-3001256.83796 123663.622641,-3001413.60016 123695.767292,-3001564.25612 123742.942947,-3001687.81296 123758.703382,-3001949.02546 123788.897482,-3002235.11047 123819.398476,-3002496.20888 123850.887278,-3002658.86201 123844.247985,-3002801.82271 123821.590405,-3002973.38929 123681.460295,-3003138.86925 123518.046044,-3003298.03376 123504.58457,-3003431.05388 123366.302414,-3003577.0325 123273.845413,-3003704.1683 123090.694022,-3003766.54753 122939.489491,-3003824.6821 122921.812895,-3003897.27336 122979.448955,-3003951.79259 123127.067787,-3003979.13185 123303.513361,-3004018.73999 123464.943691,-3004087.446 123633.643743,-3004191.57313 123717.974115,-3004273.36795 123735.978262,-3004372.16587 123739.105074,-3004485.56981 123718.688474,-3004559.18142 123673.169244,-3004617.49727 123619.681345,-3004582.434 123591.397172,-3004511.19826 123543.421433,-3004413.63175 123450.801862,-3004358.38437 123361.787657,-3004381.55949 123310.35368,-3004450.4146 123280.79788,-3004537.58864 123180.07182,-3004693.7708 123079.247313,-3004804.98222 122895.659783,-3004972.30005 122817.530421,-3005207.25813 122811.216648,-3005295.25182 122701.268672,-3005422.02479 122620.959348,-3005504.59577 122619.818524,-3005583.05543 122714.453022,-3005640.2856 122795.703305,-3005679.13107 122898.872585,-3005709.31193 122935.816089,-3005833.94705 122890.215734,-3005946.23021 122761.798299,-3005978.70601 122655.958299,-3006022.99929 122435.886514,-3006028.20328 122326.107266,-3006144.48222 122323.442768,-3006316.39543 122385.907881,-3006381.37011 122388.764911,-3006524.25858 122326.651362,-3006730.11195 122330.511512,-3006809.03266 122370.112719,-3006889.67487 122565.67428,-3006881.16216 122683.483011,-3006898.23697 122773.437082,-3006963.99744 122875.554394,-3006890.75071 122929.877366,-3006872.34059 122999.70728,-3006888.28851 123007.198625,-3006952.19018 122956.869901,-3007098.98864 122909.211845,-3007235.77274 122860.416647,-3007322.5971 122763.679939,-3007445.27132 122637.909483,-3007625.63501 122585.561559,-3007801.93119 122588.862754,-3007905.34081 122666.387163,-3007914.73271 122722.87481,-3007853.33239 122794.114893,-3007696.87714 122825.431349,-3007579.20774 122924.575967,-3007541.46145 123036.55381,-3007612.04744 123059.384141,-3007720.80175 123096.859703,-3007849.42978 123119.823626,-3007943.19242 123162.988731,-3008032.30103 123116.85132,-3008139.59199 123037.430163,-3008207.66628 122966.728189,-3008304.65471 122906.104729,-3008412.55805 122850.681134,-3008514.42484 122779.888529,-3008631.90136 122768.889319,-3008695.44702 122821.685619,-3008769.98992 122965.483275,-3008723.40145 123063.527389,-3008672.67126 123262.162772,-3008609.66703 123400.787466,-3008572.61297 123538.715456,-3008574.53977 123537.537172,-3008648.00257 123378.944374,-3008719.69005 123327.948134,-3008812.52796 123331.460924,-3008910.93868 123206.560975,-3009042.32697 123031.624197,-3009197.08981 122774.515916,-3009291.03004 122670.631228,-3009361.79352 122672.924934,-3009496.19155 122800.723181,-3009512.68734 122852.701714,-3009449.82252 122960.4644,-3009427.99818 123051.781079,-3009508.23766 123159.257579,-3009417.45887 123238.025815,-3009458.32062 123248.504398,-3009617.13921 123245.698286,-3009802.54441 123055.333517,-3009900.9634 122924.715188,-3010035.89488 122864.8628,-3010114.31137 122863.512995,-3010197.76956 122936.725889,-3010263.1589 123053.794261,-3010249.2567 123173.7179,-3010184.86403 123243.36276,-3010144.8473 123312.021477,-3010170.79676 123315.668268,-3010254.21589 123280.049403,-3010332.44385 123249.431004,-3010411.13263 123277.044717,-3010524.34653 123311.85189,-3010662.98842 123312.210151,-3010805.39606 123276.763599,-3010873.62908 123176.614774,-3010846.42579 123033.996604,-3010659.1535 122849.237509,-3010643.1016 122758.303848,-3010644.3086 122708.461423,-3010692.66627 122705.472981,-3010758.14856 122745.454014,-3010855.27657 122798.255132,-3010930.31856 122910.406565,-3010990.90752 122983.034562,-3011045.30798 123134.520674,-3011152.06156 123235.985752,-3011284.18851 123243.088902,-3011458.52365 123244.306166,-3011614.9159 123294.074861,-3011813.9032 123507.657218,-3011841.7219 123715.581914,-3011913.05715 123796.876903,-3011925.41601 123844.884808,-3011994.49838 123806.417537,-3012059.75689 123607.969072,-3012050.30902 123631.184978,-3012144.06905 123631.30317,-3012255.49791 123603.86726,-3012325.6675 123549.221189,-3012334.58773 123485.601551,-3012314.0964 123496.384641,-3012255.04953 123448.558813,-3012081.0317 123352.270934,-3012036.31003 123271.960868,-3012118.38417 123158.366125,-3012161.24234 123089.228251,-3012234.23526 123061.94709,-3012356.37126 123074.056376,-3012499.68704 123008.931414,-3012574.64762 122930.114084,-3012591.7512 122854.472218,-3012695.77567 122724.570129,-3012826.20668 122609.145739,-3012987.00605 122494.374218,-3013103.32828 122463.233164,-3013211.00395 122480.511667,-3013344.28615 122581.663936,-3013403.96014 122623.152346,-3013341.67548 122669.454977,-3013223.88795 122813.018239,-3013147.31641 122997.167177,-3013052.93971 123237.559791,-3012898.16261 123423.812114,-3012817.26148 123568.011507,-3012726.19472 123661.971767,-3012824.9001 123682.990238,-3012925.17306 123671.866678,-3013036.68952 123635.065466,-3013155.40169 123668.236112,-3013244.08718 123747.295116,-3013225.9821 123801.437554,-3013216.56584 123810.339917,-3013300.94321 123747.14529,-3013302.93476 123718.396571,-3013461.05931 123741.983774,-3013570.30651 123887.651439,-3013635.62912 123978.430545,-3013742.85332 124027.257712,-3013884.88272 124109.562277,-3013994.67122 124279.28087,-3013972.36115 124307.985658,-3013840.72053 124168.83816,-3013714.38598 123954.55893,-3013597.13153 123921.065485,-3013434.99511 124010.039557,-3013406.819 124103.189367,-3013433.57561 124355.611672,-3013668.4581 124485.713589,-3013852.32662 124624.632087,-3013885.22194 124667.794078,-3013845.41048 124744.111798,-3013860.30561 124829.075015,-3013926.60057 124866.883476,-3014001.25808 124928.193718,-3014174.16964 125013.401648,-3014335.90171 125105.698735,-3014477.59106 125173.966984,-3014517.53273 125253.103184,-3014509.4202 125318.105306,-3014450.95014 125319.375106,-3014357.4999 125346.400337,-3014266.84687 125473.350478,-3014270.85354 125476.174488,-3014440.72289 125350.721775,-3014564.62296 125154.654191,-3014700.06712 125096.178399,-3014794.46348 125071.998928,-3014897.58657 125109.514466,-3015030.70885 125241.503953,-3015072.15178 125348.066597,-3015024.84984 125402.576472,-3014902.50234 125381.588524,-3014774.24812 125432.702348,-3014664.91893 125495.817758,-3014716.89298 125548.986303,-3014838.89986 125651.98258,-3015038.96763 125797.39051,-3015263.18849 125856.242119,-3015505.0738 125885.705273,-3015598.78357 125864.430514,-3015721.87088 125765.980067,-3015720.14115 125695.022167,-3015687.71627 125600.182816,-3015604.5104 125486.8724,-3015459.48822 125496.026871,-3015351.98541 125398.919667,-3015266.29857 125303.435221,-3015324.50716 125297.129991,-3015476.95916 125324.613912,-3015605.16269 125420.795832,-3015764.30973 125640.563363,-3015880.51841 125827.256661,-3015888.55452 125929.895458,-3015914.73575 125948.577348,-3016003.53284 125941.890339,-3016107.01874 125979.41057,-3016240.63984 126085.218844,-3016384.7204 126028.208031,-3016570.54684 126092.869872,-3016852.36052 126125.889833,-3016953.5374 126017.606807,-3017068.31057 125948.839272,-3017252.23054 125902.989078,-3017363.51789 125904.980471,-3017490.42107 126049.81664,-3017545.25293 126235.365913,-3017534.80807 126338.992959,-3017655.4199 126336.339733,-3017827.33022 126335.997352,-3017975.23789 126414.532557,-3018050.07521 126598.258456,-3018030.15018 126679.053437,-3018074.48932 126714.541307,-3018203.62837 126661.083859,-3018300.48442 126580.293347,-3018320.60386 126397.061927,-3018212.10782 126308.245344,-3018196.31312 126224.757399,-3018222.94947 126249.276614,-3018355.17273 126305.042501,-3018393.71148 126393.722643,-3018423.99784 126389.712324,-3018645.88673 126440.257392,-3018847.36156 126635.797513,-3018996.23459 126828.044107,-3018947.76025 127020.829685,-3018936.2579 127371.989987,-3019113.39312 127426.144854,-3019233.39123 127506.600558,-3019298.21899 127611.290899,-3019235.4396 127667.011092,-3019108.58545 127772.178526,-3019106.76289 127874.967526,-3019279.84523 127718.714375,-3019457.95365 127708.704718,-3019615.42986 127634.265986,-3019648.99136 127525.511516,-3019671.32905 127412.712281,-3019655.72302 127376.883704,-3019738.45023 127408.759045,-3019916.58516 127519.375096,-3020068.1201 127507.905471,-3020198.62549 127422.775915,-3020270.74614 127352.760991,-3020358.73809 127235.973605,-3020408.12175 127186.828572,-3020576.89809 127257.844055,-3020712.25386 127181.403578,-3020936.70843 127158.967464,-3021134.25697 127209.228471,-3021267.27691 127300.081075,-3021224.0921 127392.665394,-3021274.33337 127356.841447,-3021357.56063 127320.538368,-3021475.26943 127244.742743,-3021558.81021 127241.263517,-3021784.19212 127277.946383,-3021969.78453 127327.280167,-3022016.36727 127396.048217,-3022024.32238 127421.516444,-3021958.66489 127398.841307,-3021838.92019 127502.797182,-3021778.14364 127575.798399,-3021848.02555 127638.459894,-3021937.4759 127633.838768,-3022080.91935 127609.812835,-3022203.02896 127511.357174,-3022264.26227 127314.4316,-3022193.85361 127168.476878,-3022219.4828 127114.081148,-3022323.8426 127178.527085,-3022417.77616 127123.052023,-3022575.61007 127241.699778,-3022604.16007 127361.616797,-3022539.76001 127430.438272,-3022395.31289 127603.033675,-3022357.98197 127680.470279,-3022451.81331 127692.153612,-3022571.64405 127649.877519,-3022755.85688 127752.674278,-3022929.43727 127881.583696,-3023055.8429 127970.447816,-3023395.92447 128025.403387,-3023649.32843 127977.166737,-3023806.10594 127971.804177,-3023918.57525 128069.257391,-3023984.26669 128131.912054,-3024072.71685 128370.475385,-3024036.86479 128607.076798,-3024132.94232 128604.430086,-3024304.85122 128458.177127,-3024355.96791 128260.717909,-3024313.04833 128110.783375,-3024181.81222 128027.784489,-3024111.51025 127920.012722,-3024099.86499 127852.539756,-3024161.35561 127814.098698,-3024261.09333 128046.330209,-3024468.63314 128203.459818,-3024529.8579 128344.050547,-3024680.15478 128536.496603,-3024943.47009 128743.049912,-3024967.32976 128850.242316,-3025032.44409 128906.687133,-3025125.43941 128857.529743,-3025260.23831 128816.630634,-3025364.99189 128928.046567,-3025427.07471 129118.302719,-3025602.46303 129233.441293,-3025788.43534 129244.277015,-3025927.25935 129204.167174,-3026037.00344 129291.997391,-3026149.7383 129445.050629,-3026264.45817 129612.491212,-3026366.07312 129526.751015,-3026487.16907 129535.099015,-3026595.5324 129596.684596,-3026674.99531 129761.660617,-3026749.14722 129771.308961,-3026927.45433 129743.364378,-3027122.54665 129556.592718,-3027136.00948 129469.143628,-3027325.57463 129378.856126,-3027503.66985 129325.265157,-3027741.4371 129465.696788,-3027871.24536 129631.809168,-3028057.81383 129854.438048,-3028219.4526 129782.968705,-3028375.9138 129643.360775,-3028477.44846 129561.416712,-3028382.65665 129579.180309,-3028195.63874 129526.530271,-3028077.1313 129461.08746,-3028174.084 129309.685467,-3028427.61258 129271.700535,-3028648.26843 129298.413494,-3028835.9355 129367.186648,-3028971.30476 129482.844279,-3029317.66644 129593.308839,-3029480.68833 129764.944258,-3029638.73042 129860.220183,-3029744.90893 129898.784281,-3029819.55569 129884.124682,-3029893.12333 129816.846007,-3030010.57779 129735.372347,-3030102.16132 129632.058871,-3030243.88471 121543.580108,-3030235.23591 119727.715432,-3040567.44461 118412.577795,-3048051.58804 115229.064382,-3047637.72466 115054.480216,-3047928.45656 112577.68262,-3047658.85786 111021.83517,-3056143.30021 110892.914405,-3056144.83275 100477.637143,-3056281.66729 100411.676087,-3056282.6945 100185.072092,-3056256.51945 98003.5555095,-3056004.08151 92475.1441788,-3055365.53121 82595.5561608,-3054223.77084 83384.726216,-3048624.68205 73078.9588837,-3047663.7724 73106.7923652,-3044295.74559 71243.1656456,-3044291.48152 71320.2654604,-3040033.36857 66628.7001894,-3039978.8784 66628.5241836,-3039797.94032 61999.2085884,-3039788.91561 57926.069589,-3039739.00146 57891.1711106,-3038416.1737 55711.3730997,-3038391.32503 55656.3886633,-3038391.25743 48929.8425735,-3038432.11766 48932.3193695,-3038270.14153 48618.2245767,-3037101.42111 48041.6187569,-3036718.05 47468.4592883,-3036168.69393 47704.2105249,-3035284.5789 47988.5253172,-3034218.63407 48047.5119197,-3033836.2743 47948.8968429,-3033371.67215 48062.9850699,-3032684.96316 47689.8878509,-3032595.91015 48077.477589,-3031918.5568 48083.2231869,-3031535.11566 48140.6878751,-3031245.24434 48012.9292693,-3030952.32407 47912.9418521,-3030567.21121 47916.7227689,-3030315.74987 47735.2415463,-3030088.23177 47502.6904761,-3029754.14179 47345.0325838,-3029376.9771 47285.6879346,-3029234.97964 47107.6933397,-3028781.99399 47060.7032793,-3028397.96507 47158.2090221,-3028082.28812 47352.131897,-3027503.42934 47389.1003884,-3026828.82404 47318.3793629,-3026286.02443 47298.1090417,-3026218.70111 47266.2802659,-3026111.47893 47250.414826,-3026032.12447 47160.0998588,-3025572.45504 47077.1371027,-3025318.17208 47035.7158944,-3024590.19389 46686.0994901,-3023249.28724 46350.2273894,-3022741.04479 46460.0181071,-3021948.40456 46592.5746388,-3021607.46446 46702.9388209,-3021305.1871 46680.5462005,-3020868.98108 46480.0995145,-3020323.192 46603.030258,-3019227.03537 46869.4175304,-3018226.23782 47582.6921342,-3016583.64629 47735.1735006,-3016136.58601 47845.3302486,-3015967.77706 47897.9405666,-3015887.39069 48152.2566096,-3015679.97232 48498.6222797,-3015578.80875 48827.0537772,-3015260.34669 49262.8938799,-3014837.58068 49585.8129449,-3014485.17302 49764.0976717,-3014077.90557 50620.052429,-3012623.18215 51607.3948623,-3011222.93312 50356.4938977,-3006574.50036 50087.2409701,-3006014.74845 50032.9207173,-3005260.38984 50098.5616354,-3004440.62268 50055.2331148,-3003199.82192 50038.0469125,-3002722.09501 50767.3695824,-3001108.43886 50855.6187895,-3000949.8047 55365.8673819,-2992886.5217 57040.3367968,-2989893.10668 57146.5921428,-2989702.85198 58111.3515912,-2989451.52758 59920.6200177,-2981894.64188 58979.9430523,-2981405.99321 59593.9818667,-2979801.32638 60320.0056665,-2977903.40877 65177.0897141,-2965206.25253 66239.4581089,-2962429.66411 68975.6559514,-2955659.36078 71368.4332405,-2949457.05071 74216.7281259,-2941616.00965 77851.0909928,-2942243.64698 81511.916968,-2942876.08157 81368.9049766,-2945176.75081 84449.3248867,-2945698.52303 84583.5393893,-2945767.99189 98904.0422016,-2948289.40758 100996.744767,-2939854.85896 103999.79562,-2940698.15745 108359.680231,-2941922.67301" style="stroke-linejoin:round;stroke:#000;stroke-width:1px;fill:none" /></g></g></svg>