<svg xmlns="http://www.w3.org/2000/svg" baseProfile="full" height="97513.2320774" version="1.1" viewBox="14738.174380,3341702.953464,101719.492720,97513.232077" width="101719.49272"><defs><style type="text/css">polyline,line,rect,path,polygon,.polygon{fill:none;stroke:#000;stroke-width:1px;stroke-linejoin:round;}</style></defs><g fill_rule="evenodd" transform="scale(1,-1)"><g class="hogares departamen mujeres departam_1 toponimo_i tot_pob varones viv_part viv_part_h" id="86140"><polygon class="_86140" id="None" points="31809.133746,-3343250.91881 31956.5722749,-3343310.90128 32065.5160406,-3343414.51137 32160.5832652,-3343539.84462 32207.1657543,-3343635.01096 32222.4301138,-3343725.20821 32317.2717946,-3343763.08882 32391.5303364,-3343721.35669 32455.308525,-3343695.29357 32461.0247425,-3343589.75012 32446.1560286,-3343478.55683 32478.960685,-3343379.05328 32511.1760618,-3343289.05493 32627.8536452,-3343258.6017 32838.3513451,-3343324.01736 33044.9922258,-3343383.00122 33387.5990385,-3343518.15237 33615.4210347,-3343484.82549 33713.9630466,-3343416.19786 33759.8668468,-3343322.97089 33811.6052297,-3343131.19572 33763.3204537,-3342623.76845 33791.4350786,-3342423.89591 33834.5466651,-3342313.22511 33914.0929539,-3342229.42623 34035.9231798,-3342193.39002 34159.7377336,-3342171.31329 34284.2736309,-3342221.68741 34341.6578618,-3342290.68439 34425.6221603,-3342409.70746 34428.9878344,-3342550.0788 34445.739296,-3342758.18962 34489.295255,-3342925.86897 34555.6534944,-3343112.15401 34613.8099683,-3343212.12161 34708.3472697,-3343276.49373 34845.4228671,-3343240.69978 34936.2290227,-3343172.70303 35011.3114852,-3343046.50163 35022.9727614,-3342893.38395 35066.9620116,-3342671.75637 35141.5116562,-3342588.04227 35242.4419883,-3342557.35593 35446.5846713,-3342631.37475 35617.4282784,-3342790.4109 35774.6927111,-3342914.69386 35914.2971379,-3343043.77197 35965.7168429,-3343144.35222 35970.2083787,-3343292.19933 35974.3660047,-3343435.05464 35920.3485424,-3343550.90544 35759.0359969,-3343720.03868 35699.2366851,-3343818.99603 35666.4414063,-3343963.47413 35747.7111562,-3344056.05465 35922.0888191,-3344187.54373 36130.8790236,-3344270.47729 36291.3916263,-3344439.18034 36443.8348281,-3344603.52154 36539.1743483,-3344685.86931 36642.5031862,-3344664.13701 36713.7032644,-3344618.95929 36773.9022664,-3344440.03781 36876.0134092,-3344197.94258 36930.1056482,-3344042.11219 36968.4161246,-3343913.53373 36974.6405805,-3343808.48419 37032.7166011,-3343755.5324 37112.2586184,-3343745.69573 37237.1430734,-3343757.58266 37259.443009,-3343850.15743 37279.5709964,-3343991.74284 37267.3127339,-3344153.86374 37287.031086,-3344285.96101 37312.2762639,-3344449.44832 37352.1089605,-3344692.64708 37462.2761692,-3344809.72576 37610.3684774,-3344790.23699 37726.5542302,-3344775.28428 37854.3558407,-3344678.67919 38040.1793789,-3344511.13313 38152.9334389,-3344322.33167 38238.7969705,-3344153.97316 38355.8600846,-3344028.06569 38494.2037328,-3343934.28215 38605.0818198,-3343945.4057 38709.5837153,-3344052.58511 38829.2592811,-3344259.45467 38965.7546034,-3344382.08561 39096.8917342,-3344483.31835 39254.0970528,-3344574.61648 39444.3895233,-3344612.88498 39506.7569687,-3344666.30364 39621.7376179,-3344668.86219 39677.8417488,-3344839.82247 39636.4727604,-3344949.96056 39544.2958501,-3345143.91049 39417.3082729,-3345140.55533 39204.4139439,-3345125.15646 39055.1529244,-3345164.15427 39040.6329952,-3345295.82805 39080.0011726,-3345422.59497 39230.6307124,-3345686.90927 39312.5987865,-3345820.9529 39416.8743363,-3345959.11758 39658.3841516,-3346085.97159 39806.9991676,-3346067.97265 40007.4252426,-3346070.08816 40138.9376743,-3346134.33292 40227.1242003,-3346222.29596 40244.6986345,-3346330.93962 40239.2701114,-3346453.46396 40233.3917805,-3346534.51868 40242.2596229,-3346615.82429 40276.6736811,-3346700.6966 40333.847207,-3346801.67573 40402.0643261,-3346875.983 40653.1641781,-3347038.15367 40838.6815969,-3347222.91884 40842.7806226,-3347510.19058 40875.6004727,-3347693.03501 40996.182027,-3347805.43611 41217.6730812,-3347812.19141 41382.1958341,-3347744.95013 41538.6270514,-3347568.40664 41574.1476739,-3347333.93759 41562.1580333,-3347097.27204 41605.6934801,-3346923.13406 41713.0647535,-3346696.94745 41887.6604479,-3346619.54307 42063.0483535,-3346589.09921 42268.6046022,-3346569.63997 42500.7263446,-3346614.19635 42784.7378579,-3346742.8292 42912.7851988,-3346972.03792 43039.5216236,-3347182.77886 43173.4663231,-3347302.44941 43274.5707082,-3347534.11069 43293.7694625,-3347724.17849 43277.2194856,-3347972.31696 43306.826297,-3348083.25385 43374.1963251,-3348211.04328 43442.2354393,-3348274.85773 43558.000601,-3348338.86589 43806.1362155,-3348325.68222 43976.7047179,-3348157.89733 44178.5976423,-3347995.58062 44216.6766716,-3347853.51906 44223.6612356,-3347689.99494 44076.9803386,-3347541.05719 43961.8324084,-3347439.55961 43947.1502871,-3347265.40711 43971.9567247,-3347077.09595 44040.2238793,-3346917.53468 44210.1885089,-3346802.73111 44437.8259384,-3346714.93874 44632.3787871,-3346769.12342 44752.4273582,-3346938.99905 44959.1987321,-3347095.4181 45135.7198956,-3347206.37382 45141.6273059,-3347467.62285 45053.3751073,-3347612.5291 44911.6797152,-3347729.35418 44829.7661247,-3347805.69331 44697.3812791,-3347852.40192 44633.4416432,-3347957.42114 44621.3255758,-3348068.5617 44725.2428101,-3348333.65371 44814.1797271,-3348628.9809 45043.814306,-3348778.01568 45103.429607,-3348816.48633 45274.6469539,-3348924.03159 45285.0596139,-3349215.18647 45122.5363283,-3349533.74734 44971.8416153,-3349724.18318 44858.2228429,-3350023.92946 44808.9256773,-3350256.12808 44891.7628066,-3350441.62048 45096.658097,-3350575.57944 45232.9860058,-3350703.20082 45257.8567496,-3350888.6724 45265.633354,-3351215.85032 45199.586039,-3351521.28904 45044.1640518,-3351816.24538 44909.6110206,-3352089.36199 44960.7190462,-3352274.88973 45175.5955899,-3352467.14343 45391.9674895,-3352540.94058 45614.446731,-3352458.72567 45629.888524,-3352234.09608 45660.5807163,-3351995.21693 45740.4914389,-3351874.43637 45983.6996756,-3351850.83757 46273.7017144,-3351905.40158 46492.3299094,-3351950.17817 46676.9285298,-3351992.03185 46884.7923662,-3352079.96472 47034.3509256,-3352177.37775 47178.0385104,-3352341.35031 47266.8821494,-3352468.27221 47286.343471,-3352658.82954 47274.2229744,-3352843.42454 47299.0350185,-3353054.87879 47419.2197437,-3353188.26611 47555.9611798,-3353236.92381 47709.6224079,-3353222.33308 47836.9543226,-3353128.23546 48027.441551,-3353045.56283 48233.8744741,-3353004.59559 48497.9961042,-3352991.63581 48629.7423361,-3353010.89572 48755.9520897,-3353101.70597 48871.557768,-3353171.20837 49071.4528897,-3353231.29057 49277.0721629,-3353275.2856 49472.2645525,-3353308.46353 49667.6944572,-3353326.14685 49768.0017695,-3353347.93673 49840.7129053,-3353422.16134 49866.4902922,-3353528.16041 49881.8290724,-3353607.85214 49912.5731242,-3353697.27726 49933.3430861,-3353787.87038 50043.1103561,-3353851.97396 50143.7191148,-3353847.27466 50334.0790896,-3353801.58211 50403.7904493,-3353727.94803 50457.0770516,-3353628.6077 50484.7359313,-3353491.22439 50568.3639612,-3353294.93066 50662.5813913,-3353163.41806 50821.6397457,-3353098.76763 50966.7656744,-3353126.29598 51043.7356184,-3353186.45689 51102.0858351,-3353268.41919 51214.0298939,-3353387.45189 51290.0354679,-3353523.58176 51284.1443362,-3353677.58582 51212.5641373,-3353803.21881 51118.4633695,-3354000.68838 51090.6601925,-3354159.06062 51235.1308606,-3354266.04976 51432.8586139,-3354360.64525 51667.5716892,-3354396.65123 51947.734551,-3354431.38887 52239.3971697,-3354407.46864 52477.8543079,-3354369.45767 52663.4899616,-3354354.82587 52831.3737663,-3354472.4111 52786.8610516,-3354765.47949 52806.264353,-3354952.53314 52889.7728409,-3355059.55229 52991.1154232,-3355201.74725 53108.2219523,-3355256.73041 53226.0195807,-3355278.72271 53315.7414811,-3355295.19368 53389.719375,-3355311.43126 53505.3618164,-3355338.95646 53687.7075383,-3355425.31518 53852.4593839,-3355505.47548 53877.6548898,-3355680.4374 53866.0894282,-3355809.05113 53806.3824609,-3355927.48635 53747.4455625,-3356061.89843 53675.3263596,-3356185.04097 53591.8544143,-3356419.80477 53590.2664608,-3356591.72219 53630.3125326,-3356655.00377 53679.7691535,-3356728.11969 53768.4618043,-3356757.59896 53950.9414578,-3356748.51463 54154.8880159,-3356590.66208 54188.117591,-3356369.24119 54247.5443303,-3356263.80255 54353.6807183,-3356202.04518 54466.8886738,-3356218.61788 54510.9673941,-3356328.30117 54599.7292681,-3356435.72928 54751.278823,-3356592.06264 54902.5785852,-3356748.39994 54974.5153964,-3356924.5681 55012.144407,-3357140.29156 54972.7257133,-3357409.28546 54948.6973466,-3357598.57023 55053.6262957,-3357731.20714 55237.665442,-3357770.06447 55476.5599433,-3357802.49667 55743.8461578,-3357873.92249 56054.5663347,-3357913.63303 56525.6952684,-3357895.1643 56786.8857365,-3357872.25493 56990.2866994,-3357874.30813 57095.304651,-3357938.4869 57141.397407,-3358108.09425 57135.0658964,-3358250.6075 57034.101068,-3358307.78031 56774.6544598,-3358374.63188 56719.3525159,-3358516.97528 56753.9025956,-3358639.30945 56872.5101883,-3358679.77313 57124.484458,-3358629.03711 57331.7443247,-3358711.47086 57540.8324093,-3358813.36055 57729.7905567,-3358951.06732 57814.6444184,-3359078.54475 57830.9526953,-3359259.64803 57938.7690393,-3359297.2958 58111.6438079,-3359193.43521 58183.6538812,-3359019.83062 58302.5613966,-3359033.80634 58321.1693612,-3359129.42718 58314.5977886,-3359242.96275 58382.8709211,-3359291.27346 58583.6915082,-3359303.36203 58788.4476362,-3359400.32698 58945.3841679,-3359565.05663 58935.2510452,-3359837.04567 58806.9660263,-3359962.63588 58609.540597,-3359973.97489 58555.8286292,-3360047.83593 58544.4404305,-3360142.46562 58487.421545,-3360330.8062 58472.5240729,-3360439.48603 58602.6825638,-3360586.68066 58756.3271591,-3360704.49652 58852.065289,-3360840.28198 58930.3415445,-3360933.39208 58843.327279,-3361032.30115 58826.8386783,-3361106.03124 58852.6696751,-3361185.53976 58936.6991038,-3361249.57166 59058.9248154,-3361370.91711 59077.9319871,-3361607.9351 59089.997031,-3361848.06868 59011.2174603,-3362064.25943 59118.3524222,-3362223.8344 59259.4334992,-3362366.84439 59460.8536682,-3362325.95475 59518.3874358,-3362374.44584 59475.9924836,-3362482.09229 59405.679516,-3362578.71993 59319.6873569,-3362752.56154 59387.1446392,-3362885.32713 59481.2038061,-3363054.61644 59658.2730948,-3363330.92421 59715.5325729,-3363436.88052 59825.070186,-3363723.32683 59701.2856882,-3363907.80281 59581.8235014,-3364096.70269 59599.1016675,-3364246.30792 59665.4886629,-3364360.10361 59641.5743996,-3364540.88699 59703.3699003,-3364722.71429 60020.436275,-3364739.31901 60109.7039464,-3364861.71977 60195.6204254,-3365051.63125 60160.3668343,-3365256.0905 60132.5740816,-3365355.49475 60163.3681045,-3365432.91892 60267.661852,-3365469.12278 60484.7472161,-3365453.4463 60617.5988923,-3365361.75263 60780.1771328,-3365505.39282 60861.787222,-3365632.91911 60994.0386794,-3365594.19932 61023.5872355,-3365465.78572 61130.2851232,-3365334.56379 61272.2620166,-3365383.11901 61457.2366621,-3365506.89194 61547.3867514,-3365548.83177 61636.6600359,-3365391.92395 61658.6599368,-3365216.17184 61734.2484596,-3365091.97407 61645.603156,-3364932.58964 61725.7971293,-3364785.32973 61917.1367324,-3364651.17371 61959.4229457,-3364493.06531 62020.2429944,-3364396.59959 62136.3450702,-3364392.63121 62214.6294272,-3364456.75759 62219.2213359,-3364639.05298 62324.2090898,-3364745.69622 62444.0934733,-3364640.7337 62536.6908458,-3364517.74719 62652.6993097,-3364508.28418 62747.3739561,-3364566.63606 62778.4720992,-3364662.04144 62766.4521856,-3364778.16443 62648.6911053,-3364993.51375 62758.373843,-3365126.55829 62783.5688427,-3365301.00856 62848.0065462,-3365358.87376 63089.330764,-3365314.30649 63271.5369067,-3365348.68797 63430.0972177,-3365402.95698 63569.3234064,-3365392.59973 63613.2106861,-3365328.89922 63595.9334971,-3365238.25644 63623.5660588,-3365188.32233 63705.2135131,-3365170.94803 63782.1637964,-3365230.09958 63807.4636451,-3365366.57369 63986.4436968,-3365416.99845 64166.3782169,-3365376.47125 64403.6000468,-3365399.42625 64730.9390549,-3365418.35361 64898.6513011,-3365349.55436 65070.8555919,-3365324.64767 65222.559965,-3365343.05824 65401.6473071,-3365341.01838 65523.9938583,-3365292.97507 65639.50362,-3365430.91461 65671.7779265,-3365507.31171 66017.4671889,-3365650.83755 66174.8667025,-3365784.06829 66189.2507114,-3365969.19056 66138.5008242,-3366128.93751 66313.5725419,-3366228.89144 66365.3628831,-3366365.91272 66274.3985924,-3366481.8744 66006.4975013,-3366417.47221 66020.3009668,-3366553.63968 66046.2048033,-3366622.64989 66049.1493978,-3366854.93259 66245.073422,-3366814.63258 66299.3861922,-3367056.03549 66369.5624578,-3367231.21645 66446.2360549,-3367391.79737 66529.5077119,-3367514.29355 66528.5722065,-3367635.72159 66644.3477088,-3367715.69588 66659.7137831,-3367840.84404 66668.3028495,-3367964.10874 66774.3076891,-3368130.68599 66828.033051,-3368352.11199 66848.7570031,-3368542.62138 66883.4136878,-3368773.86422 66941.0944466,-3368919.27777 66893.6477764,-3369037.99837 66853.4340286,-3369126.61788 66827.9835122,-3369275.44265 66714.7611934,-3369316.33858 66732.2976788,-3369480.92094 66821.8228938,-3369603.80904 66892.8053896,-3369767.48277 66982.3017335,-3369903.36161 67111.0193383,-3369921.65867 67114.7674194,-3370127.44508 67145.3818281,-3370238.34349 67240.41958,-3370215.24343 67336.1440616,-3370129.67729 67431.4109837,-3370120.06358 67451.5000764,-3370273.11005 67429.1379947,-3370368.42091 67556.6644308,-3370360.75679 67616.7650221,-3370295.78176 67630.0993297,-3370139.66908 67737.2124769,-3370180.31707 67803.2585367,-3370244.64632 67763.2865641,-3370406.20805 67698.3047146,-3370536.71814 67665.7303546,-3370663.17985 67664.5271013,-3370798.10159 67759.0307894,-3370846.45803 67865.7124631,-3370891.1099 67853.2947111,-3370998.24268 67765.5221432,-3371037.20784 67615.3779995,-3370948.82769 67581.6112961,-3371093.29667 67478.5582729,-3371217.9594 67368.7519417,-3371312.75905 67388.0437634,-3371492.2996 67354.9165562,-3371703.70914 67441.4121414,-3371824.64839 67543.5209027,-3371908.84858 67655.0940852,-3371917.94251 67787.9793586,-3372049.08416 67745.8394896,-3372171.21211 67798.4497119,-3372282.73464 67911.7407594,-3372348.75727 67776.5830623,-3372553.9082 67807.4042981,-3372632.82551 67886.1052454,-3372721.42035 67935.0303782,-3372792.53499 67975.2197364,-3372878.78725 68075.5128725,-3372841.60657 68153.1407612,-3372837.78739 68278.8444663,-3372928.57983 68367.8633584,-3373050.97361 68421.7449714,-3373178.46196 68508.5343957,-3373257.92513 68470.3745588,-3373378.98579 68480.2399297,-3373474.24748 68569.6777951,-3373533.18049 68658.9774478,-3373554.64348 68820.8087282,-3373522.41064 68887.1605961,-3373531.27383 68932.9719568,-3373624.9241 68861.557376,-3373729.56318 68899.6066797,-3373836.83556 68939.276694,-3373936.58584 69025.8473198,-3374032.53982 69136.1380906,-3374113.10097 69314.5738853,-3374073.09053 69391.0956271,-3374004.33792 69479.4254607,-3373968.85943 69563.5874584,-3374011.39389 69596.5962805,-3374130.74259 69576.8981164,-3374264.9782 69597.440174,-3374371.04915 69764.8912507,-3374551.56116 69829.0625202,-3374769.80467 69843.6638632,-3374952.41945 69898.3048057,-3375036.42542 69979.1229818,-3375131.97652 70045.8955716,-3375268.23647 70073.9524431,-3375434.13407 70180.7878397,-3375399.83861 70307.7069606,-3375400.6745 70402.7322921,-3375465.0064 70497.7671145,-3375441.90374 70546.7372284,-3375339.64582 70530.3922249,-3375216.01733 70548.5733912,-3375124.776 70641.1891686,-3375179.65615 70773.6088702,-3375107.45347 70884.7003586,-3375103.06332 70910.96126,-3375207.53697 71032.9050481,-3375194.96795 71011.9883657,-3375066.92108 70959.743145,-3374976.87945 70979.7760569,-3374803.66867 71025.1697555,-3374755.43146 71170.708036,-3374749.45574 71290.1217552,-3374646.99821 71497.5531551,-3374593.50389 71592.4962163,-3374594.38533 71717.4688673,-3374671.69703 71806.919147,-3374746.11616 71885.7991722,-3374757.26345 71960.2449074,-3374684.05046 72139.2857884,-3374738.45794 72292.060838,-3374834.78094 72399.5708232,-3374942.86621 72477.890188,-3375038.45838 72637.3224663,-3374968.29479 72772.7938834,-3374914.02754 72941.0595246,-3374893.17585 73135.8860542,-3374979.78898 73224.0747199,-3375112.18417 73150.9939094,-3375250.82318 73157.6864221,-3375409.08746 73204.2892632,-3375505.21915 73275.3071698,-3375553.47142 73411.2237461,-3375466.72132 73657.0959911,-3375485.01603 73847.160451,-3375526.74388 73975.3416656,-3375572.52341 73956.7036836,-3375710.23453 74042.8474522,-3375737.24506 74139.2907831,-3375679.64557 74251.1044745,-3375585.81224 74355.4316296,-3375507.09493 74418.8894581,-3375507.51289 74504.4268032,-3375674.92461 74659.6998202,-3375800.67969 74748.5442819,-3375883.60044 74724.4984443,-3375938.46764 74628.6260946,-3375985.56551 74620.3304788,-3376041.16366 74738.8600328,-3376033.64861 74843.4214828,-3376027.37077 75064.6700333,-3376052.07925 75254.2248615,-3376093.31511 75369.8473932,-3376149.79948 75316.6734309,-3376269.11268 75272.7766069,-3376375.77768 75275.5826539,-3376467.15829 75366.6265368,-3376532.55452 75536.6765048,-3376572.62323 75854.2069623,-3376559.71847 76020.527441,-3376600.84979 76178.5439267,-3376697.07916 76347.5629461,-3376720.67807 76463.5680461,-3376755.67204 76493.7366381,-3376869.56743 76594.0510907,-3376951.29186 76667.8061865,-3377042.96129 76651.4458646,-3377123.6764 76573.2178124,-3377267.89655 76498.1427033,-3377406.56746 76524.9063844,-3377540.50492 76574.2480227,-3377680.05269 76627.3414295,-3377834.52455 76576.1813208,-3377969.29072 76575.2793685,-3378092.20879 76731.2272261,-3378154.99804 76848.551868,-3378179.47662 76911.5689861,-3378227.36329 76934.4681475,-3378354.37167 76901.4110786,-3378481.33499 76988.4707041,-3378576.77342 77075.7994758,-3378614.75283 77115.8501104,-3378663.5305 77105.9639092,-3378757.62439 76985.731708,-3378855.59864 76998.636406,-3378967.78923 77102.6985097,-3379137.37811 77096.0404515,-3379332.83632 77115.7616228,-3379419.93037 77323.0042575,-3379355.94328 77455.9539327,-3379403.13596 77507.7557445,-3379423.23556 77563.3091478,-3379648.60721 77482.7001325,-3379784.87477 77497.1078926,-3379970.48065 77613.0045944,-3379984.49043 77677.9616421,-3380116.77551 77858.9405839,-3380285.05028 78031.689569,-3380439.4763 78178.5146167,-3380567.86564 78394.8154002,-3380595.64892 78505.1025274,-3380676.20039 78668.5061057,-3380692.89591 78691.0465126,-3380813.41377 78655.8321278,-3380930.92059 78675.3124222,-3381120.93469 78700.2822256,-3381237.41422 78748.7362035,-3381295.53954 78794.6393105,-3381365.19911 78793.3466351,-3381523.59341 78809.7200793,-3381604.74817 78972.302366,-3381587.9837 79065.5266615,-3381693.30565 79163.8709708,-3381820.52225 79157.9107586,-3381983.49223 79168.3179499,-3382110.21183 79305.7144283,-3382183.80407 79418.6217298,-3382198.3626 79647.5635239,-3382322.84865 79597.8694891,-3382528.53096 79732.5684885,-3382561.20198 79796.7640164,-3382458.68806 80047.4463673,-3382437.42058 80428.3855817,-3382700.69409 80642.1350583,-3382886.38808 80792.4852085,-3383045.6871 80784.8328223,-3382919.42149 80698.1736842,-3382847.46197 80651.318906,-3382751.34171 80731.8676287,-3382641.05518 80835.4605631,-3382578.33583 81010.2815711,-3382532.3853 81106.3827061,-3382469.7941 81185.4800571,-3382493.92225 81264.1329361,-3382550.53123 81359.2441545,-3382590.87223 81454.2941094,-3382583.75335 81546.7855991,-3382529.21736 81652.7425605,-3382487.94032 81756.4478552,-3382578.09316 81825.4567078,-3382684.32568 81940.6661947,-3382775.28095 82037.9213903,-3382868.04151 82053.8672316,-3383041.12546 82159.0145066,-3383215.68299 82186.3244029,-3383352.10287 82244.3723672,-3383620.8872 82214.5257766,-3383906.16087 82258.3068126,-3384114.73895 82307.5845208,-3384191.83208 82320.6761785,-3384343.98179 82343.8914206,-3384401.53687 82490.5320422,-3384489.9549 82638.5129869,-3384539.88188 82700.9041994,-3384682.69557 82593.9497556,-3384782.44232 82561.6869657,-3384882.4111 82623.7669524,-3385036.2209 82612.2162119,-3385178.79985 82717.2029282,-3385226.96326 82721.058096,-3385364.78246 82671.7806841,-3385463.04389 82777.7127245,-3385464.23006 82953.25817,-3385387.78971 83010.443965,-3385445.2631 83141.9883812,-3385541.93114 83215.7270695,-3385398.78893 83306.3240264,-3385511.14449 83401.400244,-3385491.03424 83497.4214193,-3385365.49624 83609.5184817,-3385245.17893 83682.3916209,-3385372.82474 83697.9429673,-3385493.4573 83803.4520076,-3385557.59775 83971.1913767,-3385565.22063 84071.924922,-3385481.56714 84205.9095772,-3385487.26938 84176.1386467,-3385630.65797 84119.1764123,-3385761.52257 84108.0250049,-3385825.15981 84237.9523678,-3385841.92185 84371.6494285,-3385933.05652 84338.6004963,-3386060.01503 84330.8729352,-3386148.57256 84371.9944442,-3386303.73761 84322.7740913,-3386434.46988 84334.2243652,-3386578.15257 84267.6713002,-3386703.18656 84298.434595,-3386793.08397 84246.9710458,-3386894.8793 84191.1788316,-3386977.26519 84219.6284064,-3387048.71778 84321.3654545,-3387184.36112 84383.3218559,-3387374.63945 84467.3556729,-3387439.14573 84654.1935202,-3387511.8842 84702.9806487,-3387662.42117 84843.5569616,-3387630.04072 84977.2802377,-3387722.67167 85012.2525878,-3387897.92391 85100.968718,-3388046.2782 85173.7185231,-3388210.39246 85133.9447941,-3388352.95281 85170.9771959,-3388517.1788 85328.577521,-3388618.39228 85343.4455788,-3388713.55655 85300.4723096,-3388829.69418 85319.6643344,-3388914.79292 85435.1964999,-3388980.75685 85496.7972909,-3389135.56929 85463.867977,-3389371.43285 85368.6140108,-3389381.05737 85327.6402236,-3389336.79733 85282.8355752,-3389433.4831 85257.1530367,-3389552.82189 85287.8478199,-3389653.21039 85190.2888269,-3389790.76595 85250.1287078,-3389915.63398 85451.5181907,-3390152.4797 85702.2732659,-3390471.40827 85742.1706755,-3390598.61559 85717.1683235,-3390728.43364 85579.2532543,-3390770.26325 85546.4197584,-3390938.68293 85534.3998007,-3391097.25407 85601.4336515,-3391277.45076 85542.0554921,-3391427.3417 85445.016339,-3391551.40084 85446.9154205,-3391676.76161 85359.9563228,-3391747.69323 85221.4433166,-3391740.07615 85137.3850821,-3391819.95055 85029.6226574,-3392061.59462 84989.404601,-3392207.16136 84981.8671811,-3392510.53366 84875.5746594,-3392604.77808 84694.8326776,-3392698.30105 84606.0234036,-3392850.6966 84526.1967424,-3392987.95093 84521.8554647,-3393098.93179 84584.3866789,-3393205.76817 84498.7997386,-3393342.12238 84453.8833058,-3393563.20704 84488.610654,-3393767.43852 84522.6479067,-3393989.66659 84484.6964167,-3394238.10878 84391.920024,-3394377.58458 84488.738134,-3394517.30393 84590.1635099,-3394983.66832 84707.1853318,-3395208.96773 84777.8546935,-3395324.15625 84996.9546096,-3395253.45164 85056.5774772,-3395350.84478 85228.1786531,-3395408.84718 85347.6236223,-3395353.34197 85502.8922927,-3395376.65435 85691.973986,-3395303.46784 85918.9188398,-3395093.24784 86024.6976993,-3395041.9743 86183.8335003,-3395043.23927 86445.0962987,-3394998.78884 86533.2851333,-3395261.54855 86710.1863677,-3395351.93152 86785.8330706,-3395451.54618 86906.953064,-3395551.87873 86983.538949,-3395764.37993 87062.2125959,-3395923.89063 87192.9781065,-3396004.07416 87404.3800474,-3396125.33616 87518.2812219,-3396270.75285 87600.4596951,-3396430.70207 87653.9141316,-3396707.04432 87982.0931059,-3396981.16467 88030.7852921,-3397140.18961 88123.2859084,-3397203.04452 88190.4571554,-3397071.00405 88269.2656431,-3397151.07941 88297.7572233,-3397311.94975 88146.4462103,-3397533.35971 88265.2608269,-3397601.25738 88277.5594269,-3397706.45452 88211.7456825,-3397902.91599 88234.0850932,-3398156.31183 88382.583468,-3398338.09937 88430.4921059,-3398524.11351 88672.964988,-3398752.74269 88662.9881124,-3398869.81245 88760.356173,-3399070.4622 88847.5921357,-3399219.3312 88880.3151472,-3399350.15398 88990.4074895,-3399419.19893 89149.593078,-3399394.48069 89296.6321146,-3399491.36519 89370.8070889,-3399418.15255 89544.9806914,-3399451.62537 89618.2877126,-3399531.29375 89770.8555406,-3399601.10637 89875.6176162,-3399665.24672 90060.3728326,-3399704.03227 90282.5254388,-3399695.21588 90354.8144287,-3399817.36377 90432.212636,-3400076.80245 90411.0188523,-3400383.89647 90448.0076888,-3400675.50231 90380.4683478,-3400872.99131 90405.4421804,-3401032.42064 90496.8990096,-3401165.22826 90654.6323623,-3401259.42817 90719.5242046,-3401445.14628 90811.0336669,-3401551.97542 90917.5386688,-3401499.68688 91022.9657071,-3401500.86963 91146.5735241,-3401658.60038 91099.5726552,-3401830.25802 91137.220748,-3402043.91999 91189.2076163,-3402176.40675 91307.159553,-3402310.25543 91372.3809484,-3402442.51406 91384.1135218,-3402601.67058 91488.7706193,-3402761.22506 91607.0511497,-3402841.61486 91644.9856001,-3403013.80785 91630.447798,-3403199.39345 91611.4674113,-3403373.56584 91667.726838,-3403464.01546 91826.0034608,-3403531.72627 91834.6021784,-3403755.3789 91915.2549147,-3403869.88617 92041.7338455,-3403875.20038 92099.8534023,-3403957.62462 92192.7080008,-3403997.48775 92271.9415796,-3403971.64442 92349.8815075,-3404131.65733 92442.2885232,-3404145.55121 92443.8144325,-3403973.17905 92563.6295657,-3403881.69469 92684.2545349,-3403750.23235 92803.7764782,-3403685.22963 92895.8466451,-3403752.08199 93000.8751014,-3403846.18633 93146.847672,-3403794.2158 93359.3877425,-3403677.15611 93492.5318105,-3403532.99023 93625.2178046,-3403507.22561 93704.2769495,-3403587.29007 93809.5632111,-3403667.40214 94007.1184489,-3403695.47007 94138.5708632,-3403815.59436 94311.3206307,-3403737.68596 94523.2293623,-3403700.06584 94655.629876,-3403701.28153 94776.0553976,-3403543.84827 94882.2375567,-3403531.02899 94920.180831,-3403703.71719 95078.6951261,-3403770.92225 95209.3802067,-3403904.54637 95207.5269101,-3404115.88517 95285.9823214,-3404262.398 95458.4374503,-3404210.97038 95572.462466,-3404261.95686 95655.5505129,-3404358.43518 95867.1814601,-3404333.80716 96104.9004544,-3404388.15649 96235.9126836,-3404482.80928 96294.7032482,-3404459.31672 96392.4373323,-3404492.6 96465.8045852,-3404517.81105 96544.3646304,-3404395.06909 96548.4731044,-3404198.67957 96617.8891888,-3404096.07699 96754.1616616,-3404177.15147 96775.0838271,-3404246.22668 96809.5236726,-3404360.52683 96766.2308247,-3404515.13067 96797.0375867,-3404592.52761 96917.9666975,-3404725.31835 97067.421704,-3404730.73472 97198.3128522,-3404803.90849 97269.3977073,-3404972.02593 97222.1364029,-3405157.16967 97135.0533803,-3405292.54692 96995.5345267,-3405356.39555 96823.3485913,-3405423.30524 96757.0935846,-3405578.80498 96769.6216783,-3405696.97954 96868.0535658,-3405828.6588 96906.8001819,-3406018.81409 96955.8788146,-3406141.85302 96990.7852503,-3406268.63309 96991.096596,-3406445.96362 96936.5873353,-3406630.73389 96891.5403728,-3406770.38263 96871.8338536,-3406960.04764 96902.3591471,-3407136.85707 96991.9149882,-3407246.20926 97072.5848439,-3407332.7359 97094.1120494,-3407451.2544 97206.5274069,-3407524.74458 97231.3806617,-3407778.08064 97335.3943576,-3407943.63031 97426.5703538,-3408103.40692 97558.3160189,-3408197.0437 97583.5641157,-3408342.97198 97647.9549442,-3408528.18731 97690.3453025,-3408639.85104 97858.5452629,-3408689.39812 98227.680261,-3408789.42522 98221.2799038,-3408997.34196 98237.6105147,-3409205.36572 98249.4193428,-3409354.02298 98208.440116,-3409512.08409 98255.5876996,-3409740.05646 98050.9215182,-3409878.46639 98005.5254651,-3410026.61354 98097.303925,-3410119.93962 98083.1019934,-3410252.06227 98161.8625632,-3410358.10147 98199.83917,-3410517.79596 98398.156139,-3410532.35231 98330.7948715,-3410637.919 98408.9975862,-3410783.93019 98439.9154221,-3410968.72303 98578.4095976,-3410990.30702 98712.5936085,-3410892.57702 98884.6836777,-3410907.08644 99015.9979815,-3410961.26405 98940.615201,-3411122.91683 99123.7944066,-3411128.74221 99240.8407788,-3411354.50539 99424.4486131,-3411515.17755 99623.4543691,-3411743.01963 99573.1499079,-3411823.81423 99382.7416094,-3411876.55999 99305.5971503,-3411907.36619 99358.1430853,-3412057.31608 99456.6991499,-3412167.00728 99557.1360151,-3412183.25357 99614.4578266,-3412277.1731 99659.5339305,-3412327.34567 99817.538381,-3412365.07507 99816.7601557,-3412464.49495 99829.568133,-3412555.18785 99933.0890341,-3412605.34845 100028.496499,-3412605.19687 100248.260325,-3412646.85287 100458.310536,-3412820.05248 100482.357003,-3413098.37291 100325.209943,-3413283.41934 100318.620639,-3413523.30695 100336.030123,-3413663.37318 100466.731791,-3413696.578 100487.956849,-3413855.06058 100582.615873,-3413869.40734 100677.913423,-3413906.22175 100858.343123,-3414027.48135 100855.793464,-3414269.79593 100710.341227,-3414336.75254 100695.516737,-3414490.36405 100550.198718,-3414507.36585 100603.590377,-3414648.30752 100620.423825,-3414783.88767 100430.385394,-3414800.16541 100311.368518,-3414908.126 100324.317497,-3415021.29489 100441.879094,-3415031.24813 100536.599931,-3415063.57605 100584.587735,-3415123.18808 100615.582605,-3415340.94516 100682.552369,-3415472.65989 100772.402691,-3415541.03778 101088.145547,-3415629.98023 101082.397846,-3415788.42969 101236.275004,-3415789.76074 101266.701166,-3415989.04414 101333.426771,-3416077.80299 101291.723359,-3416222.38887 101358.368604,-3416378.58498 101288.55824,-3416573.11102 101269.847648,-3416660.85229 101273.763554,-3416742.70676 101390.691784,-3416802.62194 101450.386932,-3416730.65492 101518.062224,-3416744.46806 101593.139339,-3416925.99339 101736.189396,-3416979.96081 101836.5861,-3417037.1649 101999.717015,-3417024.84693 102170.158879,-3416929.98095 102362.505229,-3416946.12912 102384.555813,-3417051.14622 102458.123619,-3417203.22458 102515.357405,-3417436.00896 102532.677803,-3417685.96931 102676.085445,-3417702.96468 102789.219932,-3417803.40532 102866.027443,-3417882.99619 102978.195045,-3417956.47919 103234.521413,-3418162.33298 103175.389236,-3418252.27284 103212.033647,-3418349.04383 103200.490379,-3418461.13649 103322.141944,-3418663.82997 103328.970217,-3418755.12366 103518.068622,-3418929.67283 103499.755396,-3419011.4121 103327.855605,-3419050.85873 103199.362038,-3419130.51318 103243.807968,-3419230.64531 103247.334695,-3419361.95797 103254.357837,-3419579.62701 103363.114948,-3419557.25982 103491.637253,-3419508.07519 103620.716202,-3419591.75306 103784.861141,-3419580.41335 103935.532442,-3419497.87635 104037.862572,-3419522.57541 104127.815579,-3419582.45537 104272.170352,-3419610.92081 104365.969512,-3419806.10281 104492.735919,-3419770.93509 104654.733791,-3419895.00103 104725.442694,-3419867.79923 104835.231969,-3419847.41203 104980.614058,-3419906.32949 105053.211402,-3419829.64308 105105.397107,-3419771.29343 105383.977095,-3419805.92087 105643.320836,-3419825.89656 105864.311908,-3419881.00391 106125.303438,-3419938.41392 106375.295019,-3419952.05774 106575.242637,-3420003.5336 106662.341844,-3420114.91079 106783.770396,-3420175.2417 107010.657084,-3420152.82189 107299.211576,-3420258.70375 107445.65265,-3420263.65441 107647.488906,-3420280.1311 107894.875139,-3420345.26786 107985.334134,-3420477.56449 108074.513633,-3420636.85632 108176.614124,-3420849.86994 108366.276227,-3420941.98173 108399.779076,-3421246.09633 108402.762304,-3421417.87331 108467.661151,-3421487.67548 108626.274546,-3421488.91667 108598.603181,-3421621.26572 108563.12941,-3421735.7683 108675.327482,-3421926.1275 108727.313601,-3422072.07785 108658.676783,-3422189.65416 108685.244505,-3422310.072 108817.609094,-3422324.25578 108964.20121,-3422179.85059 109122.838232,-3422168.10347 109174.87945,-3422274.09229 109213.633087,-3422420.2719 109385.752233,-3422408.29021 109557.590672,-3422423.28631 109637.190733,-3422591.7326 109736.146755,-3422709.89252 109912.692669,-3422650.88072 110058.321534,-3422652.34593 110202.472123,-3422798.69074 110356.047503,-3422740.07815 110276.594346,-3423011.18687 110212.650441,-3423183.12608 110269.550876,-3423310.00808 110304.829929,-3423414.28902 110388.857416,-3423650.58839 110592.390411,-3423635.56134 110813.471152,-3423753.59425 110798.596741,-3423889.21593 110948.032803,-3423908.59523 110974.152534,-3424017.53025 110977.332936,-3424157.3333 111003.446362,-3424280.25422 111055.4649,-3424341.7863 111170.80436,-3424281.83907 111252.216706,-3424295.90747 111255.848969,-3424404.23433 111379.340577,-3424396.59207 111524.670704,-3424424.03392 111566.463851,-3424615.6115 111747.381564,-3424621.45537 111880.881143,-3424586.16677 111906.146126,-3424732.07815 111966.261142,-3424928.83078 112014.889357,-3425111.29789 111953.470133,-3425327.64716 111870.585942,-3425530.38444 111824.014806,-3425724.49818 111989.557749,-3425951.88271 111996.957094,-3426133.0693 112086.599099,-3426246.89141 111972.122673,-3426413.71637 112009.356493,-3426558.42025 111966.385163,-3426901.8198 111875.871528,-3427082.21411 111977.167065,-3427219.80851 111984.447136,-3427594.80039 111880.53504,-3427708.49664 111826.65278,-3427826.81603 111864.942616,-3427946.02737 111691.909192,-3428077.41145 111532.372673,-3428195.07438 111521.483713,-3428301.15691 111461.499168,-3428427.57515 111489.093845,-3428577.94178 111553.737774,-3428790.5991 111563.992677,-3429121.08591 111735.207957,-3429215.00376 111972.356383,-3429323.25641 112142.708308,-3429496.60806 112127.58925,-3429761.10342 112138.793961,-3429959.70634 112071.131954,-3430175.66826 111977.147581,-3430328.65373 111789.405573,-3430604.65172 111471.514933,-3430921.88127 111496.549258,-3431211.65196 111431.608817,-3431383.11316 111508.238345,-3431495.16203 111701.491165,-3431649.63115 111672.408334,-3431814.97228 111725.772082,-3431910.44385 111728.407035,-3432118.68771 111803.937357,-3432282.20325 111716.597666,-3432458.05175 111495.991911,-3432467.89609 111439.555668,-3432582.76652 111496.623367,-3432804.54625 111558.094565,-3432963.8118 111332.657492,-3432968.74632 111288.765966,-3433244.23665 111268.639878,-3433493.33835 111367.555724,-3433580.02238 111407.201751,-3433733.67506 111523.800864,-3433817.55253 111697.918104,-3434048.77604 111753.339828,-3434176.17886 111851.245205,-3434247.89483 111889.388517,-3434415.55903 112075.779049,-3434362.85287 112230.11464,-3434491.02472 112343.283275,-3434407.13045 112582.552535,-3434507.8444 112681.991042,-3434395.719 112868.914644,-3434345.00164 113105.785531,-3434465.73672 113178.462769,-3434565.86392 113281.611843,-3434680.44337 113248.652065,-3434852.34505 113333.521169,-3434992.71776 113459.014799,-3435156.85545 113590.229749,-3435376.83586 113689.147711,-3435363.61866 113883.333175,-3435228.35927 113973.557677,-3435260.74768 114004.767495,-3435374.58533 114076.168763,-3435501.70612 114179.323458,-3435602.29827 114205.004173,-3435742.70529 114172.309797,-3435901.11547 114074.989995,-3436148.5659 114014.467638,-3436329.44058 114008.570576,-3436506.36329 114210.930398,-3436638.68576 114286.18327,-3436843.1594 114279.732255,-3437074.03648 114428.622653,-3437147.85395 114597.246928,-3437022.03006 114827.35025,-3437069.95181 115061.883203,-3437171.24094 115324.030517,-3437223.59639 115459.434288,-3437283.16377 115485.019375,-3437446.54739 115316.281789,-3437594.35064 115304.211121,-3437960.6854 115299.804538,-3438065.6547 115184.081688,-3438274.46761 115132.55583,-3438441.19927 115135.104672,-3438672.41743 115247.051248,-3438804.32038 115345.123255,-3439013.88654 115280.370888,-3439166.86441 115191.527189,-3439213.37389 112943.721968,-3438580.40662 104146.296545,-3438136.89323 104134.793441,-3438136.09532 96103.6478271,-3437493.1898 75181.8222974,-3435581.66673 75165.7540522,-3431920.18604 74701.5900246,-3432048.67599 74685.6105608,-3431231.06561 74527.2488981,-3423051.47351 72241.0345058,-3422393.15088 72178.4047314,-3422166.90561 69609.8750617,-3422157.48114 69593.7054947,-3420792.25241 67646.1199427,-3420677.60663 67916.5496378,-3418189.20132 68490.3573013,-3414360.53053 68533.7518945,-3413951.57652 69160.528741,-3410653.14643 52765.2349443,-3406801.7133 51553.6012929,-3406517.77894 51780.0669122,-3405421.56171 45260.676284,-3403659.42261 44841.5786715,-3407426.93393 41727.6660375,-3405949.94777 40938.7071975,-3400290.72957 36079.3071983,-3399442.73817 32278.7027128,-3394923.89671 34328.0067139,-3392993.24958 34313.4397306,-3387459.43416 34316.3498562,-3387337.44909 34333.2871446,-3386604.04855 34411.2849253,-3383259.49154 29319.972605,-3387427.43631 28899.6860935,-3387106.29201 29203.6691246,-3385404.94345 31492.9623819,-3372589.37816 31929.3810667,-3370146.20434 25482.450532,-3369007.00262 23877.787826,-3378047.04117 19848.2566443,-3377262.1723 21562.6927099,-3369412.52788 20976.9538372,-3369250.57226 22051.8385871,-3364039.67629 22786.7787803,-3359565.75575 25083.4132693,-3359902.12691 26101.7611731,-3353565.37123 26111.229944,-3353504.7397 16379.6120911,-3352044.18393 16638.4699193,-3350801.82619 14853.8852333,-3349940.38977 18576.3427372,-3345447.33131 17816.7240674,-3344400.11018 20761.0736403,-3341741.54194 20920.0716214,-3341760.35067 21115.4811092,-3341760.05334 21350.6122247,-3341803.56652 21517.6346012,-3341809.2456 21724.0691851,-3341810.7615 21926.0152371,-3341812.85291 22147.9543985,-3341770.62667 22353.4276486,-3341715.18428 22524.8784407,-3341716.79068 22705.2243583,-3341727.24307 22827.5485902,-3341794.1492 22905.5689471,-3341930.77159 22886.1113455,-3342154.99949 22844.897039,-3342348.60827 22879.0487615,-3342521.45446 23116.3867994,-3342577.4238 23258.0849955,-3342504.06541 23436.953325,-3342293.64171 23575.2154493,-3342194.35339 23715.9281412,-3342107.01847 23946.1883833,-3342128.62333 24101.8851962,-3342351.89466 24258.9171966,-3342506.1745 24413.000663,-3342574.54307 24626.6397599,-3342558.94493 24831.7897673,-3342484.51713 25028.3869442,-3342406.73539 25223.2869128,-3342420.9401 25347.0319435,-3342438.84377 25431.062534,-3342487.4034 25419.9875985,-3342571.5514 25394.1351842,-3342712.92233 25331.8121047,-3342988.34683 25390.0443784,-3343196.26789 25475.3417421,-3343290.2847 25632.6442404,-3343386.58499 25740.0928844,-3343445.7439 25787.0615222,-3343504.42382 25813.1309985,-3343612.9333 25917.1796748,-3343781.59838 26005.8310452,-3343867.06201 26092.4178214,-3343874.59681 26211.0839001,-3343858.10132 26321.9228682,-3343762.7749 26376.8997978,-3343688.8815 26386.3849949,-3343406.85348 26417.7182198,-3343234.90516 26534.5054246,-3343151.47323 26629.6331184,-3343146.86995 26692.3594088,-3343221.2764 26839.0412715,-3343428.70325 27079.1716538,-3343606.06663 27355.5197332,-3343678.86778 27579.7459679,-3343698.57377 27756.5288099,-3343616.62892 27937.0037392,-3343427.67297 28139.3747165,-3343218.35761 28376.8790469,-3343225.34628 28533.6598528,-3343350.14067 28565.6362446,-3343601.48033 28567.2320649,-3343873.82252 28660.0091531,-3344026.18323 28898.3746971,-3344054.64603 29072.5791454,-3343953.25461 29280.4478818,-3343803.31874 29507.9599699,-3343736.51135 29759.836903,-3343795.73158 29944.2585641,-3343944.54641 30109.0741379,-3344071.70247 30381.7079971,-3344043.11493 30614.6513396,-3344076.16708 30815.5747692,-3344136.74604 31027.8359134,-3344099.18208 31244.9615576,-3343905.61349 31362.5090907,-3343600.78096 31443.900811,-3343374.51981 31632.8390958,-3343257.88983 31809.133746,-3343250.91881" style="stroke-linejoin:round;stroke:#000;stroke-width:1px;fill:none" /></g></g></svg>