<svg xmlns="http://www.w3.org/2000/svg" baseProfile="full" height="41334.0751105" version="1.1" viewBox="43683.923535,3221808.336612,48741.699057,41334.075111" width="48741.6990567"><defs><style type="text/css">polyline,line,rect,path,polygon,.polygon{fill:none;stroke:#000;stroke-width:1px;stroke-linejoin:round;}</style></defs><g fill_rule="evenodd" transform="scale(1,-1)"><g class="id" id="86189"><polygon class="_86189" id="None" points="50632.257213,-3244257.5276 53405.4978662,-3244856.48626 53943.5087731,-3242359.69606 55236.2557283,-3235750.79297 58640.7284009,-3236529.0894 57301.0979143,-3230226.82735 59619.7425901,-3230658.19524 74086.775599,-3233678.55278 74645.1652066,-3231098.35432 74887.4914224,-3229928.27004 75243.7748003,-3228207.44473 76149.6879346,-3223832.55185 82270.3274406,-3222864.4317 87437.9268449,-3222048.09016 87566.5736966,-3222286.94612 87761.7196433,-3222498.27033 87952.2998994,-3222762.61021 88057.7882505,-3223042.13782 88240.2001389,-3223316.03965 88282.1610884,-3223497.12456 88310.8556762,-3223736.79415 88351.5938375,-3223982.36295 88427.7655976,-3224252.13262 88529.2359499,-3224559.68026 88641.022208,-3224845.15224 88712.4564892,-3225207.92229 88867.6182038,-3225572.00743 89043.6765629,-3225924.42597 89141.3524502,-3226195.51763 89247.7727428,-3226374.57498 89354.3148702,-3226599.11262 89453.4342408,-3226832.70703 89483.1951223,-3226988.40016 89486.5783118,-3227188.2909 89520.8516925,-3227437.40888 89562.6720477,-3227631.48752 89603.8275734,-3227897.04228 89622.4794165,-3228069.31921 89603.3595521,-3228175.93204 89584.8478131,-3228417.98451 89649.3172897,-3228661.8571 89791.2750481,-3228877.60677 89887.3820662,-3229078.7375 89955.2277892,-3229307.58804 90060.1910225,-3229552.62782 90237.5832381,-3229762.08886 90459.224409,-3230004.17363 90576.9806102,-3230316.07998 90689.1581746,-3230587.54845 90854.9328479,-3230904.05871 91049.1981537,-3231220.83483 91100.9880942,-3231380.84367 91122.0267157,-3231508.61795 91239.3135984,-3231793.53754 91433.5798032,-3232110.31224 91715.0004366,-3232328.41297 92024.0181638,-3232590.26833 92190.8225785,-3232849.29079 92285.6176322,-3233164.37997 92337.2949834,-3233493.31684 92279.6446813,-3233746.18307 92083.4821008,-3234173.11305 91878.7289782,-3234497.15765 91713.472062,-3235035.78831 91637.0871573,-3235319.79649 91636.957536,-3235669.15086 91646.5997273,-3235869.4875 91667.2701604,-3236104.21903 91747.0576419,-3236447.41895 91928.5104419,-3236663.83612 92024.4770692,-3236907.94416 91990.1660881,-3237263.57633 91900.0368704,-3237547.1981 91752.9234903,-3237829.78935 91590.7980079,-3238140.49272 91426.9767175,-3238579.15688 91320.0256969,-3239004.85895 91329.3553261,-3239318.65078 91477.804253,-3239805.7242 91743.428836,-3240137.89673 91965.812417,-3240468.9252 92117.487946,-3240771.04789 92155.3102827,-3241085.10352 92094.3217557,-3241326.0045 91891.6624915,-3241508.5982 91648.0671686,-3241575.57833 91347.3414188,-3241684.51208 91131.7059332,-3241899.70014 90962.8256014,-3242269.43861 90931.4403077,-3242463.61656 90956.8050365,-3242630.33785 91046.9147592,-3242830.01119 91212.7188035,-3243057.04835 91326.520336,-3243220.5409 91389.0350354,-3243376.95952 91500.9457029,-3243644.42379 91670.9033507,-3243859.9304 91864.5640725,-3244101.23011 92007.1614933,-3244301.96814 92090.4749892,-3244404.73683 92136.6410462,-3244548.29499 92122.6486069,-3244699.84659 92059.8797049,-3244966.75246 92004.5204091,-3245283.57625 91889.0318404,-3245611.89226 91709.5936107,-3245912.74872 91531.6468824,-3246091.64446 91289.8882661,-3246229.58513 91034.6257081,-3246336.15081 90892.6944327,-3246397.79848 90813.0180687,-3246493.41742 90810.4118893,-3246661.86896 90851.7413078,-3246915.42183 90899.2209877,-3247187.41607 90978.8403463,-3247447.64925 91049.6281176,-3247818.40927 91052.6571426,-3248063.78203 91020.3783155,-3248451.3878 90917.8918245,-3248780.09941 90738.4074693,-3249074.96291 90441.6661165,-3249393.28821 90199.5814287,-3249642.69011 90057.2924748,-3249932.74922 89991.9974392,-3250195.68202 89987.8281502,-3250446.61345 89996.6570631,-3250697.93703 88342.3496462,-3251363.87724 86180.4155485,-3252232.95632 76590.4843079,-3256090.12031 76196.5230241,-3258905.41673 66449.4821961,-3257014.55139 65962.1641119,-3259755.76695 58748.2205807,-3258248.66571 58351.7127144,-3259829.02799 60635.5469149,-3260215.93131 60466.4509019,-3261490.97992 58317.6812574,-3261176.94388 58029.8260512,-3262927.36518 49686.0028223,-3261551.63789 49787.146257,-3260970.43626 43694.9939134,-3259851.31728 43927.9285033,-3258585.16097 46776.3818129,-3259108.39099 50632.257213,-3244257.5276" style="stroke-linejoin:round;stroke:#000;stroke-width:1px;fill:none" /></g></g></svg>