<svg xmlns="http://www.w3.org/2000/svg" baseProfile="full" height="46358.8919852" version="1.1" viewBox="2795.938702,3085993.082639,61150.186664,46358.891985" width="61150.1866641"><defs><style type="text/css">polyline,line,rect,path,polygon,.polygon{fill:none;stroke:#000;stroke-width:1px;stroke-linejoin:round;}</style></defs><g fill_rule="evenodd" transform="scale(1,-1)"><g class="id" id="90070"><polygon class="_90070" id="None" points="7873.04030773,-3096237.51721 8329.03569581,-3096328.5175 8712.0318586,-3096372.51809 8844.03038665,-3096438.5178 8928.02932568,-3096524.01719 9141.02693672,-3096625.51678 9306.02516969,-3096669.5168 9570.02230199,-3096746.51679 9777.26993724,-3096839.01645 10032.0171927,-3096889.5167 10186.0154814,-3096933.51671 10593.0110014,-3097021.51705 10924.2572935,-3097098.0173 11275.0031512,-3097230.51704 11747.9974847,-3097406.51672 12088.9932803,-3097549.51631 12400.4893007,-3097706.01565 12704.9850994,-3097934.51415 13048.7301474,-3098235.01192 13316.7258345,-3098587.50876 13528.2223464,-3098884.006 13668.7203483,-3098983.5053 13711.4695939,-3099056.50458 13700.469356,-3099166.50323 13717.7188018,-3099271.50203 13771.9679007,-3099348.00129 13873.7162584,-3099476.00009 13940.9648181,-3099669.49796 14013.9635517,-3099787.99675 14035.9630211,-3099870.49582 14096.462067,-3099938.49518 14200.9605664,-3100007.99465 14273.459515,-3100058.49426 14299.9589317,-3100139.99334 14355.4579702,-3100227.99242 14514.4555665,-3100365.4912 14656.2034913,-3100462.99042 14767.4518497,-3100541.48978 14921.4495803,-3100645.98893 14997.1984596,-3100697.48851 15031.4478606,-3100750.48794 15025.947479,-3100898.98602 15035.4470461,-3101002.98472 15075.4463201,-3101074.98391 15118.4456736,-3101106.98363 15185.444679,-3101151.98325 15262.4435886,-3101184.98305 15344.942473,-3101201.48308 15427.1913874,-3101207.98324 15471.4407173,-3101239.98295 15476.9402565,-3101371.98125 15487.939889,-3101448.98028 15553.9388993,-3101492.97989 15615.188058,-3101506.47989 15740.9363657,-3101520.48007 15823.4352625,-3101525.98024 16015.9326341,-3101553.48044 16108.681206,-3101619.47984 16142.430466,-3101718.47861 16179.1796491,-3101830.97721 16191.9292809,-3101899.97632 16214.4287157,-3101992.97514 16268.9277807,-3102064.97432 16341.4266106,-3102133.97359 16499.9244731,-3102130.97407 16595.1732324,-3102111.9746 16675.9220939,-3102125.47464 16736.4211428,-3102169.47421 16763.920534,-3102251.97316 16778.4201329,-3102324.47221 16868.4187466,-3102378.47171 16968.9173543,-3102380.97196 17011.4166517,-3102422.4715 17022.4162118,-3102526.97008 17039.4157603,-3102606.46902 17110.4146177,-3102664.46841 17247.1625685,-3102717.46804 17346.9110483,-3102763.46766 17368.9105779,-3102823.96687 17377.9103177,-3102874.46618 17352.4103628,-3102994.46442 17258.9113958,-3103104.46264 17216.4118731,-3103151.96186 17203.9118391,-3103236.46064 17264.4108944,-3103274.96025 17349.659604,-3103311.45994 17489.9075889,-3103324.4601 17630.905569,-3103331.46035 17715.4042729,-3103368.46003 17814.4025608,-3103488.95855 17922.1509208,-3103526.95827 17970.650001,-3103618.45706 18013.8992476,-3103672.45639 18073.1481365,-3103779.95497 18089.3976012,-3103909.45312 18110.8971176,-3103984.95207 18153.8963118,-3104065.451 18170.1458613,-3104162.44962 18148.6460114,-3104237.94847 18083.8967943,-3104313.44723 18024.6475435,-3104367.44632 17970.6481083,-3104474.94464 17986.897699,-3104561.44342 18062.3964085,-3104658.44215 18094.6457917,-3104733.94111 18132.3951271,-3104792.94032 18164.6444728,-3104889.93895 18175.6441827,-3104959.93795 18164.6442264,-3105024.93697 18137.8945137,-3105083.93606 18132.3944433,-3105170.43478 18116.1445713,-3105234.9338 18116.1444536,-3105304.93277 18110.8944152,-3105374.93173 18051.6451714,-3105444.93061 18020.6455348,-3105502.42972 18054.3949798,-3105540.9292 18132.3937589,-3105589.42861 18188.8928489,-3105640.42795 18259.1417148,-3105704.9271 18339.8904477,-3105753.4265 18415.3892951,-3105775.42629 18469.1384924,-3105777.92633 18512.3878366,-3105785.92627 18601.1365485,-3105761.92676 18708.8849979,-3105721.42753 18857.1328806,-3105651.42882 18964.8814392,-3105537.9307 19021.6306849,-3105475.93173 19053.88022,-3105462.43199 19102.3794676,-3105473.43191 19156.3785996,-3105502.93155 19231.6273932,-3105540.93109 19307.1262483,-3105537.93127 19423.1244848,-3105532.93154 19484.8735028,-3105554.43131 19584.6219173,-3105586.43098 19627.8711571,-3105643.43018 19662.8704779,-3105729.4289 19708.6196514,-3105804.92781 19722.119367,-3105853.42708 19765.1186266,-3105901.92639 19808.3678943,-3105942.42583 19843.3673228,-3105960.92559 19862.1169946,-3105985.42524 19872.8667835,-3106014.9248 19875.6166892,-3106049.92426 19894.6163187,-3106101.42348 19907.8660551,-3106141.42288 19937.6155375,-3106179.42232 20029.1139917,-3106262.92114 20066.863313,-3106327.42018 20072.3630992,-3106424.41867 20068.8630518,-3106504.9174 20014.8638457,-3106547.41666 19987.6142438,-3106570.91626 19960.6146476,-3106586.41599 19914.1153558,-3106601.91569 19890.8656915,-3106624.9153 19883.1157674,-3106663.41469 19852.1162193,-3106690.91422 19802.616982,-3106698.41405 19791.6171126,-3106734.41348 19802.616914,-3106758.91311 19824.616559,-3106769.91296 19857.6160383,-3106775.41291 19898.8653608,-3106805.91248 19964.8643105,-3106822.41229 20014.363511,-3106844.412 20058.3627968,-3106866.4117 20116.1118922,-3106863.41181 20138.1115545,-3106855.41196 20160.1112172,-3106846.91212 20168.3611201,-3106816.9126 20182.1109462,-3106778.41322 20209.6105625,-3106734.41395 20237.1101573,-3106709.41438 20259.1098064,-3106712.41436 20267.3596478,-3106736.91398 20308.8589426,-3106779.91334 20320.6086837,-3106845.41232 20339.858324,-3106895.91154 20336.1083138,-3106961.91049 20289.6090067,-3107004.40976 20266.3593474,-3107031.40931 20262.6093759,-3107062.40882 20266.3592752,-3107104.90815 20247.1095354,-3107151.40739 20192.8603391,-3107209.40643 20177.3605421,-3107255.90568 20165.610687,-3107302.40493 20154.1108387,-3107337.40437 20169.6105587,-3107379.90371 20206.8599629,-3107388.9036 20234.3595126,-3107407.90332 20259.1090964,-3107438.40286 20260.8590498,-3107462.40248 20274.1088139,-3107495.90196 20270.1088481,-3107534.40134 20258.6090072,-3107565.40084 20227.6094673,-3107607.90015 20216.1095524,-3107751.39787 20216.1095208,-3107801.89707 20196.6097925,-3107863.39608 20146.3605709,-3107890.89562 20123.1109121,-3107937.39487 20099.8612562,-3107979.89418 20084.3614693,-3108041.8932 20083.111457,-3108109.39213 20112.610938,-3108235.39015 20150.1103216,-3108298.88916 20188.8597004,-3108322.3888 20223.8591317,-3108364.88814 20274.1083263,-3108391.88773 20316.6076371,-3108438.387 20390.1064668,-3108442.38696 20428.8558517,-3108434.3871 20459.8553655,-3108407.38754 20479.3550578,-3108395.88773 20502.3546891,-3108399.88768 20523.1043502,-3108422.88731 20536.8541219,-3108450.38688 20580.8534043,-3108496.88614 20616.6028225,-3108529.88562 20633.1025528,-3108549.38531 20630.3525937,-3108562.8851 20619.3527669,-3108576.88487 20586.3532948,-3108582.38477 20534.1041278,-3108598.8845 20512.1044761,-3108615.38423 20514.8544244,-3108653.88361 20530.3541719,-3108678.38322 20523.1042797,-3108727.88243 20528.6041836,-3108785.8815 20558.8536962,-3108813.38106 20589.1032109,-3108818.88098 20597.3530746,-3108859.88032 20575.3534257,-3108879.38001 20536.8540416,-3108887.37987 20495.6047005,-3108898.3797 20429.6057522,-3108934.37912 20407.6061024,-3108945.37894 20382.3565038,-3108970.37854 20371.8566703,-3109002.87802 20364.3567895,-3109039.37744 20380.1065397,-3109096.37653 20413.1060157,-3109137.87587 20445.6054997,-3109175.37527 20451.6054055,-3109195.37495 20454.3553634,-3109214.87463 20476.3550182,-3109272.37371 20523.1042784,-3109327.37283 20564.3536248,-3109368.87215 20630.3525757,-3109418.37135 20675.6018521,-3109433.87109 20710.1012998,-3109445.87089 20743.1007645,-3109426.3712 20759.6004918,-3109390.87177 20792.5999572,-3109376.87199 20825.5994241,-3109374.37202 20879.348556,-3109378.37195 20927.3477786,-3109376.87196 20957.5972854,-3109360.37222 21004.0965314,-3109364.87214 21029.0961293,-3109387.87176 21042.8459121,-3109420.87122 21042.8459174,-3109445.87082 21037.3460104,-3109462.37055 21063.8455824,-3109475.87032 21071.59546,-3109491.37007 21079.3453394,-3109514.36969 21083.0952834,-3109533.86937 21102.344976,-3109556.86899 21098.5950504,-3109603.36824 21083.0953122,-3109634.36774 21059.8457019,-3109669.36717 21044.3459617,-3109692.3668 21044.3459812,-3109746.86592 21137.3444848,-3109793.36512 21214.5932236,-3109793.36509 21261.0924524,-3109766.36552 21315.3415546,-3109742.86588 21369.5906598,-3109731.36605 21396.5902146,-3109727.3661 21435.3395714,-3109711.86635 21470.0890004,-3109715.86627 21528.3380394,-3109715.86625 21594.0869525,-3109715.86622 21667.5857237,-3109684.86671 21714.0849362,-3109638.36747 21741.0844812,-3109618.86778 21737.3345273,-3109564.86868 21737.3345167,-3109526.36932 21752.834248,-3109483.37004 21776.0838496,-3109433.37087 21806.8333294,-3109394.37151 21868.8322853,-3109340.3724 21907.5816301,-3109289.87324 21934.5811735,-3109251.37388 21977.3304533,-3109212.37453 22023.829671,-3109185.37498 22081.8286935,-3109142.87569 22124.3279767,-3109111.87621 22174.5771288,-3109080.87673 22205.576605,-3109046.37731 22232.8261449,-3109007.37797 22236.5760823,-3108972.37857 22298.575034,-3108957.37882 22360.0739908,-3108972.87856 22433.8227373,-3108995.37818 22506.8214942,-3108992.37823 22574.5703375,-3109005.37801 22696.8182444,-3109000.3781 22738.5675303,-3108929.87931 22766.8170525,-3108838.38089 22748.3173739,-3108808.8814 22723.5678051,-3108764.88215 22707.0680955,-3108720.8829 22701.5681971,-3108682.38356 22685.0684869,-3108649.38413 22655.0690085,-3108615.8847 22599.819956,-3108607.88482 22536.5710339,-3108618.88462 22498.071688,-3108629.88442 22448.5725347,-3108613.38469 22407.3232441,-3108580.38524 22363.3239989,-3108550.38574 22314.0748355,-3108544.38583 22268.0756164,-3108536.38595 22237.326146,-3108501.88653 22229.5762959,-3108440.38757 22233.5762533,-3108367.88879 22218.0765462,-3108287.39015 22202.8268282,-3108229.39112 22206.5767966,-3108160.39229 22209.3267665,-3108126.89286 22199.0769554,-3108095.39339 22202.8269062,-3108068.39384 22210.576794,-3108033.89443 22222.0766234,-3107991.89515 22248.8262124,-3107922.89633 22271.8258524,-3107876.89712 22275.5758214,-3107826.89797 22271.8259238,-3107769.39894 22314.0752283,-3107742.39943 22360.0744771,-3107703.90011 22412.823585,-3107700.40021 22475.0725331,-3107692.40039 22525.5716652,-3107703.40024 22563.3210298,-3107692.40046 22602.570368,-3107681.40068 22610.8202461,-3107656.40111 22605.3203657,-3107623.40167 22584.3207401,-3107603.402 22536.5716052,-3107540.90303 22492.5724029,-3107483.40397 22465.0728848,-3107466.90423 22415.5737424,-3107447.40451 22388.0742332,-3107419.90496 22360.574754,-3107359.40596 22279.576162,-3107318.40658 22233.5769744,-3107280.40718 22175.8280072,-3107218.90816 22133.8287555,-3107176.90882 22110.8291973,-3107122.90971 22091.5796184,-3107030.91123 22072.3300524,-3106931.41288 22072.3301558,-3106842.91436 22103.0797241,-3106773.91556 22141.3291254,-3106739.41619 22168.3286815,-3106731.91635 22172.0786476,-3106708.91674 22182.5785122,-3106676.91729 22173.5786873,-3106658.41759 22179.0786236,-3106636.41797 22217.5780241,-3106600.41862 22218.078056,-3106570.41913 22241.0777422,-3106516.92006 22233.5779486,-3106459.42102 22210.5783842,-3106424.92157 22175.828995,-3106405.92184 22126.0799016,-3106355.9226 22076.3308362,-3106286.92369 22057.0812334,-3106236.92449 22049.3314395,-3106186.92532 22041.581647,-3106136.92614 22037.831801,-3106079.4271 22064.8314062,-3106044.92772 22102.0808289,-3106017.42824 22118.5806536,-3105956.92928 22110.3309034,-3105890.93037 22034.0824195,-3105751.43257 22014.8327874,-3105724.93297 22007.0829787,-3105690.43353 21999.5832876,-3105590.43519 21976.5838218,-3105509.93648 21953.5843512,-3105433.43771 21945.8345927,-3105375.93865 21953.584579,-3105318.43962 21968.8344356,-3105264.44055 21984.0843251,-3105195.44172 21999.5841402,-3105160.94233 22022.5837913,-3105145.44263 22022.5838474,-3105118.94307 22003.3342576,-3105076.44374 21984.084651,-3105041.94427 21984.0848016,-3104972.94541 22003.334671,-3104888.44686 22007.0847209,-3104838.94769 22037.8342905,-3104804.44833 22030.0844719,-3104781.44869 22014.834751,-3104769.94885 22003.3349959,-3104746.44921 21976.5855095,-3104715.94965 21926.5864067,-3104685.45004 21865.3375341,-3104635.45072 21807.5885931,-3104589.45134 21788.5889697,-3104562.45174 21780.8391523,-3104539.4521 21823.0886368,-3104466.4534 21826.8386976,-3104416.95422 21826.8388037,-3104374.45492 21834.5888217,-3104316.95589 21861.3385491,-3104251.95702 21869.088532,-3104209.45774 21876.8384845,-3104178.95826 21849.8390682,-3104125.45907 21815.339685,-3104105.9593 21784.5903199,-3104056.46003 21773.090653,-3104002.46088 21811.5902227,-3103929.46218 21830.840131,-3103848.96355 21849.8400683,-3103760.96505 21872.8400564,-3103634.46718 21838.3409134,-3103534.46872 21849.8411627,-3103388.97113 21926.5902293,-3103285.47305 21980.3395203,-3103231.4741 22034.0888599,-3103162.4754 22083.8383044,-3103081.97688 22152.8374119,-3103008.97831 22376.0837889,-3102992.97931 22551.8311364,-3102915.98118 22593.3305988,-3102871.48206 22618.8303178,-3102829.98284 22657.3298667,-3102775.48388 22701.8293048,-3102724.48489 22743.32876,-3102682.98573 22788.0781849,-3102634.98669 22836.0774983,-3102602.9874 22861.5772922,-3102542.48851 22884.0770922,-3102494.4894 22922.3267008,-3102427.49066 23030.8253278,-3102309.49305 23088.3245829,-3102251.99424 23184.0731949,-3102194.49558 23416.5695831,-3102113.49787 23647.5657805,-3102080.49936 23889.5617605,-3102047.50092 24076.5586183,-3102025.50208 24351.8040331,-3101975.50411 24644.0491084,-3101925.50624 24875.045287,-3101862.50836 25079.2917613,-3101835.00976 25211.2893683,-3101840.01026 25326.037173,-3101868.01027 25505.0339406,-3101865.01113 25532.5346638,-3101599.01609 25506.5365118,-3101310.5212 25510.2874787,-3101100.52502 25539.5378912,-3100914.52853 25605.5376124,-3100738.53205 25671.5373175,-3100569.53545 25914.2838259,-3100403.53978 26241.5289695,-3100205.04524 26545.5246668,-3099983.05111 26720.773479,-3099644.05845 26767.5236385,-3099480.06178 26890.2732079,-3099193.06789 27079.5207479,-3099033.5721 27196.0195657,-3098887.07562 27387.5175591,-3098659.5812 27507.7665885,-3098478.58545 27651.5160986,-3098175.59219 27692.7670139,-3097950.09673 27860.5175849,-3097471.60701 27994.017584,-3097162.11389 28168.5167745,-3096866.62088 28281.0156623,-3096749.12405 28409.014432,-3096612.62773 28531.5132694,-3096481.63128 28757.260768,-3096283.13706 29130.7557241,-3096056.14483 29136.5056464,-3096052.64495 29368.0023712,-3095927.14955 29708.4982702,-3095667.65787 29906.4961464,-3095491.66327 30238.9922576,-3095231.17177 30731.4862215,-3094875.68401 31077.4823803,-3094591.69348 31325.4796114,-3094391.7003 31574.4772525,-3094156.20794 31787.4766066,-3093841.71686 31873.2286072,-3093530.72424 31985.479948,-3093236.73162 32036.4827804,-3092929.7385 32128.4827603,-3092785.74259 32239.4814447,-3092713.2455 32491.4770771,-3092653.75001 32721.4728167,-3092617.75378 33041.4667091,-3092576.75891 33382.4596783,-3092565.76374 33428.7087381,-3092562.76443 33693.9533112,-3092545.76841 33843.7002841,-3092531.77077 33912.1987087,-3092538.77156 33976.4475531,-3092521.77282 34035.4466828,-3092492.27428 34306.4426753,-3092356.78103 34589.4404836,-3092075.79125 34479.9448864,-3091937.79269 34397.6971889,-3091902.79225 34326.9499264,-3091820.29302 34279.9524919,-3091714.29462 34221.2060057,-3091561.29706 34138.7093387,-3091455.29811 34079.9623342,-3091337.79974 34091.7147246,-3091161.30367 34056.4670673,-3091055.30538 34044.7199936,-3090878.80893 34079.9714127,-3090737.81243 34173.9707118,-3090655.31562 34197.4720452,-3090537.81845 34209.4734526,-3090431.82087 34162.2261083,-3090325.82234 34115.2287539,-3090220.3238 34056.4814706,-3090125.82483 33997.4845587,-3090008.32631 33938.7391621,-3089796.32972 33832.9954963,-3089537.83327 33738.7506601,-3089337.83576 33691.7547016,-3089149.33876 33632.7589911,-3088961.34152 33585.7626745,-3088796.34399 33550.516133,-3088631.84662 33585.7682439,-3088466.85044 33703.5143319,-3088561.3506 33785.7687893,-3088208.35893 33844.7701048,-3088066.86272 34083.7675257,-3087947.86926 34137.7670863,-3087912.87091 34193.7662782,-3087896.37223 34255.5156591,-3087862.87399 34277.7665288,-3087789.87583 34294.768013,-3087688.87813 34333.7683584,-3087627.38005 34389.7684739,-3087560.38238 34374.0204899,-3087466.88394 34433.0204037,-3087408.38617 34397.7730452,-3087302.3876 34503.5225013,-3087219.89117 34503.5242501,-3087125.89302 34480.0300068,-3086843.39808 34586.2812597,-3086668.90348 34644.7819637,-3086572.90646 34856.530575,-3086431.91329 35000.2802327,-3086305.91856 35091.2819282,-3086129.92379 35146.0313856,-3086103.42539 35203.0308186,-3086075.92707 35294.2793393,-3086060.42919 35442.7766544,-3086048.43241 35540.5248797,-3086040.43453 35670.7714591,-3086081.43634 35722.7682601,-3086188.43525 35767.0153091,-3086290.93407 35888.5112828,-3086368.93493 36075.5073842,-3086372.93861 36129.256281,-3086372.93969 36187.5050824,-3086372.94087 36266.0027839,-3086406.44176 36316.2506094,-3086462.44162 36316.2498114,-3086501.9408 36349.995397,-3086686.43762 36355.4932624,-3086787.43561 36377.9905599,-3086899.43371 36445.2386939,-3086921.93457 36562.7365434,-3086904.93727 36646.735207,-3086882.43943 36651.2350812,-3086883.93948 39411.8683185,-3089574.43063 41576.0811594,-3088604.49911 41773.3235758,-3088711.50034 41898.0679208,-3088819.00002 41906.3175485,-3088826.0 41900.0674377,-3088839.4995 41875.8169974,-3088892.49754 41908.8123288,-3089073.99323 41900.3121399,-3089094.49249 41710.8079358,-3089557.97586 41804.3010682,-3089772.47179 41342.2826463,-3091427.91682 41325.7709086,-3092120.89698 41716.2574818,-3092252.89995 41710.7561236,-3092340.89732 41754.7538161,-3092401.39633 41996.7469878,-3092390.40081 42002.2358463,-3093039.3819 43151.6994127,-3093154.89769 43303.6858625,-3093686.88381 43305.6856856,-3093693.88363 43646.6735069,-3093787.3863 43729.1723645,-3093699.39043 43993.1630131,-3093759.8929 43982.1590213,-3094023.88431 44268.1499538,-3094018.38916 44477.1380894,-3094331.88242 44493.6334136,-3094590.37426 44658.6275771,-3094617.87598 44372.6314262,-3094969.85997 45461.577427,-3096146.83687 46682.5301066,-3096465.8434 46704.5196222,-3097153.31906 46583.5207619,-3097389.80892 47155.4910654,-3098071.79163 47980.4582331,-3098236.79603 48216.9511254,-3098093.80451 48623.9296185,-3098555.79202 48579.9297332,-3098682.28659 48667.9239584,-3098874.78023 48871.4133801,-3099094.77414 49014.4065997,-3099193.77197 49162.9002358,-3099237.77201 49212.3946688,-3099545.76042 49558.876504,-3099930.74902 49500.8729376,-3100475.22655 50076.0935742,-3101069.7083 50191.338443,-3101110.70775 50233.3365389,-3101128.70743 50235.3364468,-3101129.70741 50266.3345877,-3101189.20526 50300.5827473,-3101233.20378 50349.0803573,-3101273.20259 50354.080112,-3101277.20248 50407.8275125,-3101316.20138 50451.5751383,-3101374.69938 50490.5731954,-3101408.69834 50510.0718773,-3101462.1963 50539.3203823,-3101491.69535 50602.8170052,-3101569.6927 50656.0641683,-3101635.69044 50672.5629197,-3101696.18806 50697.3113526,-3101754.18586 50722.0597432,-3101817.18344 50784.0563277,-3101907.68021 50810.3050507,-3101927.17962 50834.5537102,-3101963.17832 50887.301064,-3102011.17677 50930.5488787,-3102052.17542 50974.0466426,-3102097.67388 50988.2955345,-3102155.67156 50990.7951169,-3102191.67005 50986.0450076,-3102227.66849 50959.545734,-3102273.66632 50925.7969384,-3102299.66493 50909.0473364,-3102336.16325 50913.7968326,-3102372.16177 50954.7944568,-3102449.15885 50971.5434705,-3102482.65758 50966.7931161,-3102550.15468 50981.2920336,-3102607.65236 50993.290924,-3102682.1493 51005.2896863,-3102773.64552 51005.2891004,-3102848.14235 51041.2871987,-3102896.1406 51096.5345329,-3102937.13928 51154.2813531,-3103031.13572 51195.2792024,-3103084.13377 51274.5250432,-3103187.12996 51349.0211569,-3103281.12647 51417.7676103,-3103362.62347 51464.5152415,-3103412.12168 51514.0126756,-3103472.61942 51529.5116424,-3103524.1173 51560.5099877,-3103569.11558 51604.7576324,-3103632.61314 51642.5053903,-3103721.10956 51661.7539549,-3103810.10583 51663.0037237,-3103836.60469 51666.5030694,-3103912.60141 51669.0024076,-3103997.59773 51671.5017581,-3104082.09408 51661.7516528,-3104166.09037 51659.2512387,-3104250.58668 51628.0021878,-3104317.58358 51601.7530801,-3104358.58164 51604.0026256,-3104418.57905 51604.0022703,-3104479.07643 51616.0013758,-3104543.57369 51652.2494836,-3104599.07149 51690.9974283,-3104664.56886 51733.9947878,-3104803.56304 51736.2441738,-3104899.55886 51736.2436671,-3104996.05465 51743.4926267,-3105138.04849 51750.7417426,-3105253.0435 51749.2417329,-3105268.54282 51747.9917198,-3105282.5422 51738.741657,-3105380.53788 51738.741276,-3105462.53429 51724.2415591,-3105539.53087 51695.4925994,-3105587.52864 51664.2438231,-3105619.02713 51623.2453288,-3105683.52414 51541.4983856,-3105801.51866 51493.5001745,-3105873.51534 51439.2521793,-3105960.51135 51432.002246,-3106024.00857 51426.0023547,-3106063.50683 51429.7519514,-3106127.50407 51426.5018876,-3106183.00165 51424.7518599,-3106211.50041 51431.0013443,-3106279.99746 51398.5025826,-3106328.49525 51369.0037083,-3106372.49324 51275.2575821,-3106424.99066 51245.2587405,-3106465.98879 51151.7625465,-3106533.98556 51025.5173604,-3106731.97666 50982.2689176,-3106834.97213 51002.7678388,-3106907.96906 51006.7674848,-3106976.46613 51004.2674751,-3107021.46419 51003.01747,-3107044.46321 50980.5183023,-3107096.9609 50928.0203944,-3107160.45805 50890.5218295,-3107231.95491 50837.7739366,-3107295.95206 50811.5249178,-3107359.44929 50800.2751424,-3107483.44398 50762.7766232,-3107543.44135 50710.2787291,-3107611.93834 50691.5294194,-3107671.93576 50652.0308556,-3107818.42947 50654.030647,-3107900.92597 50618.2820748,-3107963.92324 50608.7824172,-3108008.92132 50614.532092,-3108072.91861 50642.2808392,-3108136.41595 50706.5280051,-3108232.41194 50719.5273287,-3108361.90645 50732.7766637,-3108489.40103 50766.5251849,-3108551.39841 50822.772734,-3108642.39456 50894.2696603,-3108681.89291 50961.7667511,-3108726.89101 51023.7640788,-3108760.88958 51074.2618989,-3108790.88831 51113.760192,-3108815.38727 51155.008407,-3108845.38599 51187.0070174,-3108886.38422 51213.2558771,-3108925.88252 51222.7554596,-3108980.38017 51219.0056175,-3109055.37693 51196.2565998,-3109089.37546 51128.7595122,-3109137.87338 51085.511377,-3109169.87201 51040.5133152,-3109198.37079 50991.7654122,-3109224.36968 50973.0162257,-3109265.8679 50971.0163237,-3109308.86606 50978.5160136,-3109342.8646 51010.514648,-3109361.36379 51051.7628837,-3109378.36305 51093.0111185,-3109397.36221 51134.5093414,-3109417.86131 51175.7575762,-3109443.86017 51203.7563789,-3109464.85925 51228.2553332,-3109487.35827 51277.0032478,-3109524.85662 51353.7499244,-3109523.35664 51403.2477595,-3109491.358 51435.4963375,-3109449.85979 51448.2457654,-3109411.36145 51467.4949162,-3109382.36271 51494.7437155,-3109342.36444 51533.2420318,-3109321.36534 51574.7402186,-3109308.86587 51629.2378378,-3109303.86607 51672.7359366,-3109305.36599 51702.9846127,-3109305.36598 51741.482926,-3109305.36597 51776.7313787,-3109300.86616 51805.7301033,-3109292.8665 51850.478134,-3109283.36691 51877.7269385,-3109294.36641 51890.726377,-3109327.86493 51906.7256859,-3109364.8633 51940.2242285,-3109409.8613 51953.2236797,-3109460.85904 51927.4748459,-3109517.35657 51900.226081,-3109573.35412 51877.7271044,-3109621.35202 51880.9769873,-3109656.35047 51884.7268525,-3109694.84878 51929.7249115,-3109743.3466 51951.2239992,-3109782.84484 51959.4736661,-3109815.3434 51954.4739273,-3109856.34159 51936.2247541,-3109877.84066 51911.4758782,-3109909.3393 51874.7275536,-3109960.83707 51834.9793424,-3109995.83558 51799.9809014,-3110013.83483 51779.9818187,-3110045.83345 51774.9820822,-3110080.33194 51786.731599,-3110104.83085 51829.9797242,-3110122.83 51889.7271084,-3110131.32955 51932.975199,-3110127.82964 51992.7225706,-3110132.82934 52059.2196391,-3110137.82903 52114.2172206,-3110149.32844 52163.9650179,-3110151.32828 52222.2124059,-3110132.82902 52268.7103291,-3110126.32925 52318.4581042,-3110119.32949 52373.4556404,-3110111.32978 52414.9538116,-3110129.32891 52446.4524481,-3110161.32744 52489.7005543,-3110190.32608 52547.9479903,-3110221.82458 52594.4459744,-3110268.32242 52620.9448522,-3110311.32044 52620.944929,-3110357.81835 52611.1954731,-3110419.31561 52596.1962004,-3110449.31428 52577.9471142,-3110500.812 52561.1979196,-3110529.31076 52527.9494615,-3110555.80963 52491.4511621,-3110589.3082 52459.9526246,-3110615.80708 52413.2047508,-3110633.80637 52331.958383,-3110637.30638 52283.7105348,-3110638.80641 52251.9619777,-3110653.8058 52251.9620294,-3110678.80469 52271.9612212,-3110717.30294 52301.9599683,-3110755.30118 52328.4588832,-3110798.29921 52361.7074508,-3110820.29815 52411.7052917,-3110851.79663 52469.7027109,-3110856.79627 52539.6995717,-3110854.7962 52599.4468726,-3110846.79642 52652.694437,-3110828.29713 52709.1918031,-3110788.2988 52760.6893729,-3110739.3009 52845.4354625,-3110701.30243 52896.9331176,-3110694.80261 52951.6806389,-3110696.30243 52998.4285878,-3110729.30083 53021.6776128,-3110766.2991 53034.9271189,-3110814.29688 53021.6778094,-3110852.29519 52979.9298281,-3110903.79294 52956.6810423,-3110968.79005 52981.6799997,-3111005.28833 53028.1779734,-3111038.78669 53089.6752223,-3111056.78571 53157.9221682,-3111078.28455 53244.1683247,-3111114.28267 53300.9158721,-3111167.28009 53340.66412,-3111192.27884 53398.9114847,-3111205.77805 53450.4090935,-3111197.2783 53530.1554026,-3111190.77837 53634.9005559,-3111187.27824 53688.1480873,-3111185.77816 53759.3948734,-3111217.2765 53787.6436729,-3111255.77463 53791.1436411,-3111300.27255 53762.8951529,-3111366.76955 53707.8978621,-3111418.26733 53651.4005041,-3111426.76711 53586.6536064,-3111461.76569 53498.6576322,-3111451.76643 53435.4104328,-3111416.76824 53365.6635634,-3111393.26954 53315.6658007,-3111375.27052 53245.918952,-3111361.77135 53196.1712902,-3111383.27051 53159.4230544,-3111411.76933 53162.9231026,-3111478.26628 53189.4219941,-3111509.76476 53220.9206479,-3111538.26335 53262.6687495,-3111541.26308 53314.1663827,-3111538.26305 53363.9140861,-3111533.26312 53412.1618601,-3111529.76312 53452.160043,-3111536.26269 53496.9080396,-3111553.26176 53535.1563486,-3111574.76065 53563.4051127,-3111594.75963 53586.154142,-3111618.25847 53611.9030362,-3111642.75725 53639.9018179,-3111664.75614 53673.4002997,-3111673.7556 53677.9000949,-3111674.75554 53717.6482545,-3111674.75541 53724.1479534,-3111674.75538 53774.3955905,-3111665.25565 53834.3927919,-3111661.75561 53884.1403577,-3111626.75706 53925.6382843,-3111585.25886 53957.3867054,-3111555.76013 54005.3843919,-3111533.761 54050.3822292,-3111515.76169 54111.8793547,-3111517.26142 54143.3778943,-3111522.26108 54186.6258925,-3111530.76054 54226.6240677,-3111547.25963 54271.3720294,-3111567.25854 54337.8690077,-3111600.25676 54391.116637,-3111641.75462 54459.1136593,-3111709.25119 54520.6109866,-3111775.74782 54577.1084724,-3111820.74547 54628.606157,-3111855.74362 54670.3543594,-3111905.2411 54698.6031845,-3111949.2389 54703.6031566,-3112002.73633 54673.6048331,-3112064.7335 54660.3556161,-3112102.23177 54676.8549713,-3112136.23008 54720.1029684,-3112149.72926 54781.6000363,-3112149.729 54826.5977899,-3112126.22994 54858.0961686,-3112098.23115 54891.3444083,-3112056.733 54919.5929203,-3112023.23449 54932.8421142,-3111980.2365 54944.5913103,-3111918.7394 54941.0912428,-3111857.24237 54954.5903947,-3111803.74488 54991.0885262,-3111772.24626 55032.5865209,-3111769.24625 55077.5844109,-3111784.24537 55114.0827195,-3111802.24436 55143.8314031,-3111833.74273 55148.8312946,-3111868.74102 55125.5825501,-3111903.73943 55102.3337985,-3111936.73792 55087.3346524,-3111970.23637 55092.3345707,-3112010.23442 55115.5835837,-3112043.23274 55130.5829892,-3112074.73116 55115.5839454,-3112131.2285 55082.335784,-3112187.72592 55052.5874073,-3112232.72388 55019.3392657,-3112292.72114 54996.0906094,-3112344.21877 55007.5902432,-3112385.71672 55034.3390717,-3112410.7154 55075.837061,-3112407.21538 55115.585148,-3112407.2152 55163.8327709,-3112395.71553 55365.073338,-3112460.71147 55574.3130762,-3112442.2114 55624.310652,-3112445.71099 55670.8084864,-3112468.70965 55677.5584702,-3112535.20637 55665.809372,-3112603.2031 55667.5595804,-3112663.20015 55717.3072633,-3112686.69876 55770.554595,-3112674.69908 55828.8014828,-3112623.20132 55863.5495731,-3112581.70319 55911.7970642,-3112553.70434 55948.2952015,-3112540.20483 55980.0435714,-3112526.70534 56026.541269,-3112525.20519 56059.7896979,-3112540.20429 56079.5389951,-3112596.7014 56084.5394682,-3112741.19423 56114.5383513,-3112812.69053 56172.7855104,-3112821.18981 56230.7824956,-3112794.69083 56287.2794898,-3112756.19245 56315.5277464,-3112689.69561 56335.5263374,-3112606.69965 56355.5249443,-3112525.20362 56322.2762467,-3112450.70749 56260.7789658,-3112377.21143 56237.5298959,-3112327.714 56237.5297003,-3112284.21616 56252.5287992,-3112249.21784 56275.7775634,-3112231.21863 56305.7760195,-3112219.71907 56347.27398,-3112226.21857 56378.7724969,-3112246.21743 56406.021364,-3112297.21476 56422.5207641,-3112346.71221 56469.2687692,-3112420.7083 56488.5182661,-3112517.70335 56516.7671924,-3112587.69971 56556.5154062,-3112629.19743 56576.5146362,-3112675.695 56604.763455,-3112722.19252 56616.5130862,-3112765.1903 56619.7632015,-3112818.6876 56619.7634653,-3112868.68509 56621.5135535,-3112901.68342 56639.7627798,-3112928.182 56707.7594626,-3112946.6807 56769.256231,-3112921.68162 56789.2550267,-3112885.18336 56821.0032201,-3112846.68513 56850.7514834,-3112802.18722 56865.7504834,-3112755.68949 56893.9988824,-3112722.19104 56947.2461791,-3112720.69085 56980.4945609,-3112733.69002 57001.9935997,-3112758.68864 57036.9921903,-3112828.6849 57050.2417303,-3112868.6828 57036.9927076,-3112925.18 57015.2442473,-3113004.67608 56998.7454555,-3113071.1728 56968.7472675,-3113122.67036 56930.4994703,-3113169.16822 56922.2502125,-3113225.16544 56940.4995211,-3113264.66333 56975.497838,-3113279.66236 57005.2463129,-3113276.66234 57068.4929858,-3113256.66298 57134.9895175,-3113241.66335 57199.7360649,-3113215.16432 57276.2320448,-3113195.16489 57327.7293541,-3113185.16511 57360.97767,-3113188.16476 57395.9759269,-3113196.66412 57402.4757492,-3113223.16272 57384.2268112,-3113244.66173 57384.2270787,-3113289.65942 57389.2270327,-3113324.6576 57414.2258816,-3113346.15634 57458.9736289,-3113353.15571 57550.4690155,-3113367.65441 57605.4662357,-3113376.15364 57665.2132773,-3113396.15224 57716.7108124,-3113427.65029 57758.2088316,-3113454.14866 57801.4567087,-3113472.64743 57817.9559483,-3113487.64655 57842.4548174,-3113509.64526 57929.4509528,-3113611.13943 57958.1996897,-3113646.63739 58000.9478147,-3113699.63435 58045.6957368,-3113737.63208 58105.6928762,-3113777.62959 58177.1893099,-3113802.6278 58276.6844276,-3113850.6246 58334.9316023,-3113884.12244 58374.9298631,-3113936.11943 58529.4232287,-3114145.60728 58545.9227894,-3114204.10407 58527.6742449,-3114270.10072 58472.9276707,-3114341.59737 58416.4308875,-3114373.59612 58304.9368166,-3114383.59644 58215.1916254,-3114398.09637 58148.6952904,-3114423.09557 58070.6994482,-3114435.09555 57985.9538288,-3114431.59638 57934.4567752,-3114467.09493 57902.4590637,-3114548.09098 57874.7115343,-3114678.58444 57881.211746,-3114746.58087 57901.2112533,-3114813.07726 57914.4607564,-3114836.07596 57939.4596968,-3114864.57428 57990.9572173,-3114887.57266 58032.4549794,-3114877.57283 58078.952342,-3114851.07382 58102.7007962,-3114813.57558 58147.4480996,-3114769.07753 58148.6976273,-3114719.08013 58153.6970193,-3114676.08233 58167.1960863,-3114647.58371 58228.6926907,-3114624.58442 58291.689419,-3114627.58376 58316.688322,-3114654.08217 58326.688056,-3114686.08041 58346.6872225,-3114712.57886 58371.4360466,-3114727.57787 58418.1836742,-3114737.57697 58497.9295216,-3114742.57605 58580.9252255,-3114752.07487 58663.9207882,-3114745.57453 58752.1660214,-3114734.07441 58833.6619023,-3114759.07242 58895.1589893,-3114802.06962 58939.9070129,-3114850.56666 58952.1572855,-3114959.56075 58965.4075049,-3115066.55493 58997.1566176,-3115158.04978 59092.4022127,-3115234.04487 59233.3952392,-3115297.54019 59311.6416661,-3115366.0358 59322.891186,-3115379.53497 59313.3922952,-3115444.03159 59324.6426501,-3115546.026 59364.6410814,-3115607.02234 59386.640292,-3115648.01992 59403.3900643,-3115717.51602 59443.3881647,-3115743.51423 59505.3849055,-3115752.01316 59562.1316108,-3115728.51387 59585.6301741,-3115711.51456 59599.3791575,-3115683.51595 59593.8783608,-3115570.02214 59560.629712,-3115523.025 59570.3784446,-3115444.52916 59603.6259738,-3115372.53275 59674.12163,-3115316.03516 59752.61725,-3115303.53512 59838.3626681,-3115313.03381 59897.8596807,-3115341.03173 59995.8543833,-3115347.53047 60120.0972312,-3115311.03132 60250.0900773,-3115311.03011 60313.5866854,-3115323.02886 60403.3321536,-3115369.02548 60540.0750434,-3115419.02142 60696.0669384,-3115479.51656 60785.8122598,-3115514.01377 60848.0595168,-3115590.00891 60857.8097489,-3115669.00439 60839.811069,-3115700.50281 60812.0628451,-3115723.00182 60751.3161586,-3115715.00288 60708.5680722,-3115667.50595 60653.320742,-3115626.00881 60566.325336,-3115601.01105 60484.8297126,-3115586.01268 60455.8307344,-3115525.51631 60392.5839811,-3115499.01839 60342.586898,-3115515.01798 60325.8380247,-3115536.01698 60308.0892259,-3115559.01588 60302.5897857,-3115585.51447 60302.5901746,-3115625.51227 60305.3404535,-3115669.50981 60321.8400906,-3115725.00659 60350.8388478,-3115761.00431 60377.0877278,-3115794.00223 60403.3366238,-3115828.50005 60443.3347299,-3115859.99791 60504.0816199,-3115884.99591 60598.0764757,-3115891.99456 60689.3213288,-3115884.99402 60733.3190354,-3115900.49271 60850.8130711,-3115958.48826 60987.5562018,-3116034.48258 61102.3003166,-3116087.97836 61216.0442877,-3116123.97512 61270.7913926,-3116142.47349 61326.0383424,-3116149.47251 61389.5347985,-3116154.47154 61435.0321956,-3116152.47117 61473.7798605,-3116139.97146 61522.2768935,-3116120.47205 61560.7746586,-3116116.47187 61603.7723845,-3116132.97047 61617.5220631,-3116175.96786 61618.7724848,-3116221.46525 61616.0230776,-3116261.463 61605.0240827,-3116295.96116 61574.5260954,-3116320.96007 61534.5285375,-3116335.95965 61449.033429,-3116338.96042 61386.7870639,-3116348.46057 61349.5393886,-3116367.95988 61341.2901154,-3116391.45864 61328.7912335,-3116428.45668 61338.5410669,-3116462.95462 61353.5404535,-3116483.95327 61391.0386116,-3116508.95143 61451.7854333,-3116532.44941 61516.5318192,-3116537.94836 61584.7782158,-3116562.4462 61610.7767808,-3116566.44567 61624.5261114,-3116576.44494 61652.7747411,-3116597.44342 61658.524809,-3116631.94139 61655.7753577,-3116665.93948 61641.2763866,-3116683.43865 61612.7782071,-3116700.43801 61601.2794609,-3116751.93521 61601.279929,-3116791.93294 61598.2804053,-3116817.93149 61612.7799873,-3116852.42936 61621.2797759,-3116875.42795 61652.7780831,-3116883.92709 61701.5253397,-3116886.92634 61741.5227835,-3116863.92718 61770.2706968,-3116826.42898 61801.7684591,-3116789.43072 61830.5163732,-3116751.93253 61844.0152199,-3116719.43424 61850.5142949,-3116671.93689 61830.514748,-3116611.94056 61830.5140892,-3116554.44385 61856.2616989,-3116473.94818 61899.2585895,-3116416.95096 61945.0054179,-3116368.45324 61983.5031747,-3116365.95296 62008.0019146,-3116379.4519 62040.2504766,-3116416.94938 62056.7499141,-3116451.4472 62088.2490403,-3116534.44206 62071.0010873,-3116625.93698 62033.7538022,-3116674.93458 61985.0071735,-3116723.43236 61939.2601367,-3116751.93126 61933.510908,-3116789.42917 61956.5098233,-3116809.42775 61996.5075893,-3116814.92696 62065.2532595,-3116783.42796 62179.9961306,-3116740.42909 62259.9910317,-3116700.43047 62325.9871052,-3116691.93019 62359.2352216,-3116695.92957 62390.9834059,-3116698.42905 62414.4821569,-3116708.42819 62429.731511,-3116728.92682 62432.4815162,-3116742.92597 62425.4822845,-3116773.42428 62411.9835989,-3116817.92185 62394.7352897,-3116875.41871 62388.9869055,-3116981.41262 62368.9890452,-3117061.40822 62314.4931621,-3117138.9044 62292.9958431,-3117253.89801 62278.747977,-3117357.3922 62281.4990086,-3117450.38678 62281.4998422,-3117514.88305 62287.2499713,-3117550.38092 62280.2510489,-3117601.87804 62281.501713,-3117657.87478 62273.0025079,-3117680.87357 62235.7547178,-3117685.3738 62211.5064078,-3117707.37285 62184.2585495,-3117750.37073 62187.0091525,-3117807.36741 62222.7575492,-3117841.36497 62293.0037048,-3117856.86313 62356.0006256,-3117898.35988 62398.998962,-3117958.85579 62473.4945626,-3117952.85512 62565.2389053,-3117928.85526 62658.2334696,-3117927.35407 62741.228742,-3117935.85244 62788.7262399,-3117955.85062 62828.7243126,-3117985.84831 62840.224207,-3118026.84575 62842.9745816,-3118065.34345 62830.225712,-3118092.84202 62785.7291351,-3118151.33922 62734.2332156,-3118227.33551 62701.2354665,-3118250.33464 62686.9867806,-3118284.33286 62691.2369825,-3118315.83096 62721.2355274,-3118336.32934 62739.9846348,-3118350.32825 62781.4822127,-3118350.32765 62811.4802374,-3118334.82813 62838.7284576,-3118321.8285 62907.4740026,-3118291.82927 62960.4703014,-3118250.33095 63020.7165553,-3118235.83094 63072.2134469,-3118230.33053 63116.7109467,-3118238.8294 63143.7101352,-3118293.32579 63142.4610736,-3118353.32227 63132.461909,-3118370.32142 63106.4636075,-3118381.82111 63070.716002,-3118401.82046 63069.2165483,-3118433.31862 63086.4657447,-3118447.81752 63150.9626193,-3118493.81386 63206.7096693,-3118516.81169 63246.957861,-3118555.30882 63289.9560617,-3118605.30523 63347.2035931,-3118666.80073 63440.198426,-3118689.79797 63600.6891603,-3118708.29445 63736.6815192,-3118739.7905 63778.9303589,-3118829.2845 63137.4674416,-3118764.29813 62982.7267115,-3118776.29976 62842.9850603,-3118787.80119 62713.2428718,-3118804.30218 62604.9997186,-3118841.30166 62509.7557351,-3118874.30119 62455.0092178,-3118895.3008 62393.7631089,-3118918.80038 62215.2741429,-3118969.30018 62078.5326969,-3119016.79954 61974.2897385,-3119088.29705 61838.0484998,-3119154.29539 61706.0565319,-3119190.29538 61565.8144858,-3119192.7974 61447.5709292,-3119179.29997 61323.8274467,-3119151.8034 61134.0869569,-3119080.31028 60958.0956199,-3119005.81707 60784.8537004,-3118904.32526 60641.8602487,-3118813.33237 60515.3656855,-3118708.83995 60416.3696162,-3118604.34709 60282.6250163,-3118468.85639 60223.8774677,-3118414.86015 60150.6305572,-3118349.86471 60112.3820397,-3118306.3676 60076.8834355,-3118267.3702 60029.1355038,-3118228.87294 59957.8886424,-3118175.37681 59841.8943914,-3118136.38048 59716.9008155,-3118112.88341 59603.9070469,-3118124.88427 59528.1614126,-3118147.88405 59451.1658635,-3118172.88374 59396.1691663,-3118200.38301 59349.4223954,-3118255.3807 59324.674678,-3118326.87723 59291.4273771,-3118395.37404 59258.9300406,-3118463.87085 59223.1825492,-3118508.36898 59172.686005,-3118564.86668 59127.9391148,-3118618.36448 59035.6951495,-3118701.86136 58970.1998505,-3118790.8576 58913.7042175,-3118889.35322 58857.2085409,-3118984.34905 58824.4612877,-3119055.84579 58724.2190556,-3119229.33819 58534.4939957,-3120209.29029 58179.7933265,-3122009.20451 58073.5482699,-3121986.70761 57859.3131256,-3122206.70056 57710.8200776,-3122182.20456 57675.0710834,-3122140.7073 57595.3244906,-3122110.71027 57397.3337877,-3122083.2153 57387.0856901,-3122158.71176 57307.0896983,-3122162.21307 57192.8590607,-3122885.67975 57191.3593292,-3122895.67929 56876.1204144,-3122675.69608 55783.4091915,-3121944.2512 55544.6675376,-3121780.26312 55473.4200153,-3121730.76668 55471.6700799,-3121729.76676 55469.6701475,-3121728.26686 55279.9334744,-3121984.25823 55268.9402209,-3122333.24223 54960.9542326,-3122322.24829 54944.4638535,-3122806.2264 54889.4663675,-3122806.22742 54804.2294717,-3123293.20685 54776.7316157,-3123339.70527 54688.4944618,-3123791.68656 54668.9986285,-3123956.17954 54581.2521782,-3123936.68218 54551.2567356,-3124096.17564 54518.261794,-3124272.16844 54444.5261605,-3124804.64626 54444.0262461,-3124807.64614 54443.5263318,-3124810.64602 54413.7777033,-3124813.14654 54383.5295085,-3124835.1462 54361.5305452,-3124838.14654 54339.5316872,-3124846.14665 54325.7826442,-3124862.64621 54303.7840818,-3124884.64571 54265.28596,-3124893.14615 54235.037176,-3124887.64703 54210.2879161,-3124871.14828 54152.5398746,-3124843.65071 54070.042454,-3124794.15462 54001.2945439,-3124750.15799 53984.7949211,-3124733.65906 53960.0457742,-3124722.66006 53929.7971485,-3124725.16058 53907.2982876,-3124732.66072 53850.0574562,-3125049.64811 53620.8407902,-3126119.60701 53647.3398611,-3126128.60602 53547.6060665,-3126650.0861 53517.3572205,-3126644.58703 53423.8726871,-3127134.06857 53346.885267,-3127522.55415 53300.6428933,-3127755.54557 53299.6430456,-3127760.04541 53567.6334176,-3127823.03615 53566.1336915,-3127831.53583 53518.8924528,-3128103.02566 53467.4024558,-3128413.01406 53722.3931571,-3128464.50538 53623.6619668,-3129027.9845 53467.417655,-3128998.98982 53420.6780106,-3129316.97799 53411.9299745,-3129376.97576 53342.4432043,-3129761.46194 53295.9524424,-3130029.45234 53087.7456602,-3131259.909 53052.7475813,-3131278.40929 53022.4997357,-3131311.40887 53006.0014208,-3131346.90795 53000.5030099,-3131393.90626 53055.501327,-3131410.404 53085.7504567,-3131421.40268 53074.7519318,-3131456.9016 53058.2540361,-3131506.40014 53033.5061427,-3131544.89935 53014.257547,-3131566.89905 52989.5092553,-3131591.8988 52940.2725641,-3131974.88529 52716.7860854,-3132136.88571 52665.7883355,-3132146.38688 52611.790127,-3132136.88886 52567.2910719,-3132111.39117 52522.5421156,-3132088.89338 52471.7929262,-3132050.89635 52408.7941614,-3132011.39973 52337.0450346,-3131948.40427 52258.2964581,-3131894.90864 52176.5480988,-3131844.91294 52084.8006594,-3131813.41683 51990.3041497,-3131810.41971 51914.557243,-3131818.42162 51819.0611144,-3131827.92404 51723.5649732,-3131837.42647 51603.3201058,-3131859.42914 51508.5746338,-3131893.93061 51428.3288585,-3131936.93135 51365.3329316,-3131996.93096 51335.0870348,-3132099.42806 51341.338399,-3132153.92587 51357.3399669,-3132227.4227 51331.8424035,-3132278.42158 51290.3443962,-3132294.42221 51242.3461532,-3132294.42362 51178.5982914,-3132287.92573 51153.0981952,-3132252.92776 51140.3466127,-3132182.93069 51140.3441782,-3132099.43374 51136.0913575,-3131996.93762 51144.58931,-3131936.93957 51146.5874761,-3131875.94175 51124.3364653,-3131812.44472 51073.0873263,-3131776.9475 51002.8393545,-3131757.9502 50948.5918798,-3131776.95106 50884.8453899,-3131818.45137 50820.8491893,-3131869.95133 50728.3543576,-3131933.45168 50654.8581126,-3131971.95239 50559.1130165,-3132022.95331 50479.1157961,-3132019.95571 50377.1193383,-3132016.45875 50284.372183,-3132000.46196 50223.624169,-3131994.46391 50163.1257586,-3131974.96632 50148.625832,-3131959.46728 50127.8759285,-3131936.96866 50115.1250216,-3131888.97072 50108.8729862,-3131808.97373 50118.3703164,-3131725.97641 50121.6185056,-3131665.47847 50111.8659903,-3131562.98239 50121.6132521,-3131476.98518 50131.1102545,-3131380.98834 50121.6077813,-3131278.99225 50073.607561,-3131208.49609 50019.3582803,-3131163.99916 49971.3593777,-3131141.50127 49910.6111044,-3131125.5035 49840.3632601,-3131113.00585 49779.1157701,-3131125.50707 49728.6178273,-3131135.50809 49668.1208163,-3131167.00861 49607.3739987,-3131205.50891 49556.3768341,-3131244.00894 49508.3802408,-3131307.50802 49486.1323253,-3131355.50695 49486.1339901,-3131416.50482 49505.1350656,-3131480.00208 49508.3873698,-3131567.99892 49495.6404059,-3131661.996 49463.6428029,-3131708.49527 49412.6458989,-3131756.49502 49355.1488557,-3131791.4954 49256.1527922,-3131810.49749 49179.4054274,-3131810.49961 49112.4074598,-3131801.00179 49048.4086832,-3131766.00475 48987.9098686,-3131734.0075 48930.4104311,-3131683.01082 48892.1601638,-3131625.51382 48856.9096226,-3131561.51696 48818.659027,-3131491.52038 48799.4077785,-3131421.0233 48783.4058356,-3131328.52688 48780.1538971,-3131252.02958 48777.1511053,-3131143.53337 48761.1490244,-3131044.53718 48741.8972261,-3130951.54087 48703.6465232,-3130875.0445 48674.8954122,-3130795.04799 48607.8962956,-3130741.05159 48531.1482532,-3130715.55445 48457.6503419,-3130699.5569 48390.6527741,-3130705.55844 48317.1554334,-3130712.06012 48256.4083141,-3130744.0606 48211.9113798,-3130804.55971 48157.4146249,-3130859.05929 48128.667251,-3130923.05789 48160.6688373,-3131025.05364 48205.4187645,-3131079.55064 48227.6696077,-3131140.04802 48269.4203969,-3131223.04414 48272.4215663,-3131271.04245 48269.4233642,-3131335.04039 48256.424809,-3131373.03946 48205.4273627,-3131405.03975 48127.4316623,-3131469.0397 48058.6847681,-3131500.0405 47983.4376823,-3131516.04197 47896.9407463,-3131524.04401 47807.4433155,-3131510.04685 47740.6950662,-3131493.54915 47666.1959456,-3131434.55305 47656.9455897,-3131409.55411 47631.9446209,-3131341.557 47635.1926168,-3131269.05928 47669.6896065,-3131197.06075 47707.4363873,-3131121.06226 47745.4331749,-3131045.56376 47776.4302734,-3130973.06536 47776.4291237,-3130928.56683 47776.427693,-3130873.06867 47766.1765287,-3130814.57087 47717.9261042,-3130735.57473 47673.1763614,-3130687.57746 47624.9269021,-3130646.08006 47559.4282796,-3130615.08275 47497.4303235,-3130615.08431 47473.1810964,-3130614.08496 47425.1826112,-3130611.58626 47352.9356751,-3130639.08718 47284.1890593,-3130684.08744 47211.9428036,-3130739.08747 47180.9459001,-3130821.58558 47173.9477909,-3130887.08363 47187.6986571,-3130938.58161 47211.9488418,-3130976.57976 47242.6996126,-3131045.57673 47259.9513555,-3131135.07339 47263.453101,-3131207.07097 47235.9549728,-3131245.07045 47180.9579892,-3131293.07033 47122.4609457,-3131334.57051 46995.2154612,-3131351.57326 46904.9677974,-3131330.57626 46891.7181419,-3131327.5767 46788.4702788,-3131283.08077 46733.2209671,-3131241.58351 46674.720446,-3131148.58795 46605.9697424,-3131035.09329 46547.4684683,-3130911.0987 46512.9671424,-3130814.60262 46478.7140339,-3130646.10882 46492.4591778,-3130467.11417 46519.9544167,-3130308.61856 46554.1994747,-3130150.62279 46557.6962788,-3130023.1268 46516.4432266,-3129840.63367 46475.1911179,-3129696.1393 46413.1901881,-3129572.14477 46354.6897273,-3129472.14936 46285.6895481,-3129369.15428 46213.4404338,-3129307.15795 46106.6934523,-3129289.66098 46010.4473214,-3129324.16209 45920.9519202,-3129400.16174 45869.2068224,-3129541.15847 45827.9612427,-3129675.1552 45817.7167384,-3129895.6485 45831.4693241,-3130023.14418 45820.9724372,-3130140.14076 45820.9742421,-3130215.6384 45824.4772802,-3130346.63423 45672.9840069,-3130430.63528 45483.7398036,-3130429.13988 45352.9931518,-3130401.64385 45204.9967607,-3130363.64854 45056.750372,-3130326.1532 44888.2551301,-3130312.15761 44714.259426,-3130272.66288 44526.7649034,-3130267.66742 44373.0194272,-3130266.17104 44175.524401,-3130229.6767 44037.7778837,-3130205.68058 43910.5309641,-3130178.1843 43817.5324789,-3130126.18794 43676.5353131,-3130071.19274 43518.0387986,-3130023.19771 43359.7924843,-3129985.20236 43211.7961714,-3129961.20635 43191.7965956,-3129954.70698 43084.2988698,-3129919.71037 42781.3060028,-3129855.71887 42753.0573777,-3129882.21875 42686.3100921,-3129920.71914 42608.062571,-3129934.22048 42534.564143,-3129912.7227 42460.8140494,-3129814.72703 42380.8145629,-3129736.23095 42302.3152456,-3129667.23455 42194.0673318,-3129625.23804 42092.3197249,-3129606.24074 42002.3222461,-3129608.74259 41910.0749692,-3129618.2443 41820.3279123,-3129641.74557 41713.8314581,-3129672.74699 41621.5842453,-3129686.74857 41529.3359753,-3129651.25148 41458.3367319,-3129596.75444 41370.8375865,-3129525.75818 41280.8385115,-3129454.76196 41200.3390003,-3129374.76577 41131.8394537,-3129308.26895 41048.0903066,-3129241.27246 40980.3406259,-3129168.77577 40905.8404012,-3129060.28016 40839.8408196,-3128994.28324 40774.0904756,-3128890.28732 40697.337619,-3128643.79538 40631.5863537,-3128490.30074 40576.8353575,-3128364.30515 40522.0852171,-3128281.8084 40434.3362839,-3128216.31182 40363.0879564,-3128205.31347 40282.3400271,-3128202.31509 40218.5920166,-3128218.81587 40183.0935759,-3128251.81568 40126.3458799,-3128294.81564 40081.3477692,-3128332.31552 40031.5995219,-3128356.31584 39971.1011211,-3128357.81696 39955.851526,-3128358.31723 39840.1043386,-3128348.81968 39745.3563816,-3128327.82202 39608.1097236,-3128318.32486 39472.1128196,-3128298.32792 39435.8634797,-3128284.32896 39409.8635048,-3128250.33031 39369.613437,-3128191.83255 39347.6128444,-3128129.83454 39318.3617026,-3128027.83768 39277.1110617,-3127935.84078 39231.111062,-3127871.84325 39139.1132251,-3127862.34517 39080.8651271,-3127885.84563 39039.6176163,-3127965.34437 38987.6204775,-3128050.34318 38904.6240868,-3128133.84261 38834.1267265,-3128181.8427 38785.1289186,-3128234.84228 38735.6306336,-3128261.34254 38691.6318788,-3128269.84313 38636.8829745,-3128255.84448 38601.1335543,-3128239.34555 38571.1336451,-3128203.84697 38532.6329472,-3128113.3499 38521.8820712,-3128050.35165 38524.6303708,-3127959.85384 38532.6288976,-3127888.85545 38513.6278032,-3127801.35796 38430.8786509,-3127733.86111 38321.631232,-3127727.3632 38214.8835651,-3127710.86549 38095.1362508,-3127696.86794 37971.1374328,-3127591.37268 37927.1379137,-3127557.37428 37897.1372689,-3127477.87673 37888.8862389,-3127406.37862 37831.1366598,-3127348.88101 37705.1383248,-3127266.88515 37625.6391857,-3127203.88802 37527.1411038,-3127176.39035 37437.6432015,-3127172.89193 37351.6446403,-3127135.39427 37230.6466644,-3127082.89754 37134.1481326,-3127032.40035 37058.1488078,-3126963.40324 36977.6497485,-3126903.90597 36915.6500169,-3126829.90874 36878.8991441,-3126721.9119 36768.6500993,-3126618.41612 36683.401098,-3126554.41899 36589.4022182,-3126484.92212 36586.9022456,-3126482.92221 36522.4035444,-3126468.92355 36412.1558116,-3126448.42577 36327.1568729,-3126388.92849 36177.658829,-3126289.93311 36085.6598715,-3126218.43619 36067.1587608,-3126117.43883 36053.4078977,-3126039.44085 36007.407852,-3125965.44327 35952.157833,-3125878.44612 35878.6583723,-3125799.94905 35814.4086435,-3125717.45191 35740.6594713,-3125657.45439 35657.9107134,-3125611.45667 35552.1626877,-3125579.45895 35423.4149816,-3125533.46187 35303.9172498,-3125500.96433 35207.4191932,-3125482.96612 34973.9238486,-3125437.97047 34957.4240868,-3125428.47092 34898.6748616,-3125389.47263 34848.1756053,-3125361.47397 34806.1761786,-3125334.97515 34756.927236,-3125331.47592 34689.6789946,-3125349.47646 34625.1807502,-3125371.97685 34462.6844414,-3125377.479 34318.4376103,-3125375.98103 34168.4408878,-3125374.48314 34078.6928521,-3125374.48437 33945.445626,-3125364.9864 33848.9474202,-3125342.9882 33746.4490873,-3125302.49047 33669.4498575,-3125236.49294 33590.9510042,-3125195.99486 33487.2029914,-3125177.99664 33344.2049414,-3125094.50033 33227.9562354,-3125004.50378 33128.457509,-3124940.00645 33005.2094858,-3124891.00908 32913.9608721,-3124849.01115 32797.7121569,-3124758.01455 32728.9628024,-3124695.01675 32620.9639846,-3124609.01992 32552.4644004,-3124527.52248 32506.2149513,-3124494.02376 32458.4656019,-3124466.02493 32399.7164939,-3124439.02622 32335.2174247,-3124405.52771 32276.2182588,-3124373.5291 32227.2187756,-3124332.53055 32152.9697556,-3124286.53241 32096.9704065,-3124244.53395 32025.4712401,-3124191.03592 31941.2224505,-3124147.03783 31876.723242,-3124102.03953 31824.9737075,-3124051.54118 31764.724267,-3123994.04307 31716.974672,-3123945.04463 31669.4753178,-3123917.04576 31617.4762816,-3123908.54653 31573.9771226,-3123904.54712 31537.7277163,-3123892.0478 31487.2285299,-3123873.54876 31436.7293943,-3123859.54962 31397.4799663,-3123840.05047 31349.7304813,-3123800.55182 31293.7312492,-3123768.5531 31246.2315734,-3123712.55478 31198.4818714,-3123653.55651 31147.9825135,-3123620.05775 31094.7330604,-3123573.05929 31038.7337194,-3123531.06076 30974.2345331,-3123487.56235 30912.4852589,-3123441.06397 30877.4855157,-3123400.56516 30849.4856938,-3123365.56617 30817.2356699,-3123304.06775 30772.9857818,-3123232.56967 30728.7360912,-3123179.07121 30672.9865047,-3123113.57312 30619.7369671,-3123057.07481 30570.4873522,-3123000.57646 30496.237934,-3122915.07895 30469.7377894,-3122850.58051 30483.7369711,-3122798.5814 30519.985813,-3122756.58186 30584.4840574,-3122711.5821 30637.7325553,-3122669.58239 30675.7313015,-3122622.08296 30699.4803193,-3122573.0837 30703.729359,-3122487.58539 30700.9785761,-3122405.08709 30684.7281122,-3122326.58884 30619.7280524,-3122189.09228 30562.228463,-3122113.09439 30427.4802368,-3122016.59766 30363.2309573,-3121957.59947 30305.7316548,-3121910.10098 30269.2317689,-3121845.60263 30231.4816598,-3121754.60482 30192.2310342,-3121604.60821 30162.7298807,-3121416.61227 30165.4789071,-3121316.61426 30148.7284798,-3121232.61611 30112.228633,-3121168.11775 30065.9790086,-3121106.11942 30032.2291888,-3121050.12085 29980.4798093,-3121002.62226 29915.9806476,-3120950.62388 29859.9815877,-3120929.6248 29795.4827578,-3120915.62564 29711.484463,-3120918.62631 29614.7363904,-3120918.62716 29508.2385388,-3120922.628 29440.9898648,-3120922.12859 29356.741514,-3120920.62935 29307.7424654,-3120919.1298 29259.9934035,-3120919.13021 29205.4944079,-3120911.63082 29166.2446688,-3120852.13232 29108.7452557,-3120788.63406 29006.4969701,-3120755.13557 28898.4988499,-3120728.63699 28779.2509412,-3120702.1385 28661.5030411,-3120681.13988 28573.254858,-3120695.64032 28541.005835,-3120739.13975 28480.7571161,-3120754.63995 28427.5081456,-3120756.14036 28384.0089956,-3120758.64067 28318.2602344,-3120757.14124 28266.2610297,-3120733.64211 28237.0114581,-3120718.14265 28182.2622313,-3120685.64371 28124.7632742,-3120680.14428 28082.7641237,-3120687.14448 28036.5151769,-3120709.64443 27995.7661493,-3120735.14428 27944.0172216,-3120747.64447 27897.7681202,-3120751.64476 27826.2695009,-3120757.14524 27766.0206041,-3120754.64577 27721.2711045,-3120713.1469 27683.2711985,-3120636.14864 27625.7716794,-3120561.65048 27548.7724872,-3120482.15256 27484.2736708,-3120480.65309 27365.2762367,-3120528.15313 27276.7782866,-3120582.65282 27205.2797825,-3120606.65293 27139.5311891,-3120633.15296 27007.7837829,-3120658.65352 26863.5364079,-3120660.6546 26765.2880583,-3120645.15563 26685.5393068,-3120621.15668 26591.5407164,-3120585.15804 26510.2920276,-3120566.65898 26440.0432902,-3120568.15948 26364.5447479,-3120583.65978 26290.2961679,-3120597.66009 26211.7976702,-3120613.1604 26116.2992351,-3120597.66139 26018.3004097,-3120524.16341 25934.3016411,-3120491.66459 25854.3030378,-3120491.66518 25787.0542707,-3120500.16552 25735.0553672,-3120526.66544 25693.0563435,-3120560.66516 25644.0572712,-3120571.66533 25578.3083439,-3120563.16595 25531.8089016,-3120529.66687 25498.3091855,-3120489.16781 25443.5600547,-3120479.16837 25365.0613975,-3120478.66895 25325.8118478,-3120447.66976 25260.0627405,-3120415.17078 25171.8140687,-3120390.17183 25101.5653128,-3120397.17221 25051.3164401,-3120436.1719 25017.5674282,-3120495.17114 24975.5682686,-3120513.67113 24916.5692631,-3120513.67154 24860.5701628,-3120507.67204 24812.8210736,-3120523.17211 24751.3223219,-3120554.17203 24702.3235457,-3120611.67141 24643.3249135,-3120666.17092 24557.8267785,-3120729.17048 24469.5785843,-3120778.17029 24402.3299825,-3120819.17009 24335.0814449,-3120869.66974 24276.0825098,-3120883.66993 24185.0839733,-3120880.67063 24116.3350918,-3120880.67111 24021.0865665,-3120870.67194 23917.338275,-3120875.1726 23834.5896253,-3120877.67314 23775.8407745,-3120907.17307 23728.0917556,-3120938.17291 23687.5925774,-3120963.17279 23651.0933762,-3120994.17255 23611.8440817,-3121005.67264 23554.0949128,-3120993.17324 23515.8453742,-3120972.17384 23468.8460295,-3120959.17437 23429.5965923,-3120950.67478 23394.8471212,-3120947.67506 23348.0978767,-3120950.17535 23289.3488198,-3120952.67571 23229.0997604,-3120951.67614 23170.3504916,-3120923.67698 23133.8508534,-3120892.67771 23103.1010043,-3120843.67869 23076.3509803,-3120777.67991 23030.1015544,-3120755.18057 22979.6023441,-3120755.1809 22929.3532979,-3120780.68084 22861.8543853,-3120786.1812 22811.6051658,-3120786.18153 22755.3559818,-3120777.68204 22695.1066382,-3120735.68309 22602.6075557,-3120657.1849 22437.8588023,-3120455.18908 22349.1096806,-3120377.69083 22303.1101847,-3120345.19162 22225.8610631,-3120295.69286 22168.361624,-3120243.69401 22092.6126025,-3120214.19493 22039.1134528,-3120219.69517 21985.8643766,-3120238.19521 21959.3648375,-3120247.69523 21927.1153638,-3120253.69533 21910.3655574,-3120243.69559 21893.3655009,-3120191.69648 21879.3653767,-3120135.69742 21812.1162983,-3120119.19807 21761.6172778,-3120155.19782 21700.8685089,-3120207.69739 21652.3694367,-3120240.69719 21610.3700977,-3120245.69736 21550.1211536,-3120271.19734 21509.3719008,-3120294.19724 21475.8725806,-3120324.19699 21443.6231932,-3120346.19686 21407.1237395,-3120346.69707 21379.1240932,-3120336.19739 21332.8745632,-3120299.69821 21289.3749281,-3120252.19917 21229.1255572,-3120207.2002 21208.1257427,-3120185.70064 21168.8762365,-3120170.70109 21128.126909,-3120182.70115 21098.8774747,-3120205.70098 21020.3787794,-3120231.20106 20951.6297719,-3120228.2015 20875.8805107,-3120163.70288 20804.3813742,-3120131.70376 20749.8821306,-3120124.70418 20706.3828275,-3120135.70426 20647.3840297,-3120196.20372 20575.8852572,-3120229.70364 20490.38655,-3120239.70398 20409.1377125,-3120238.20446 20364.3881732,-3120205.70518 20329.3886622,-3120203.20541 20302.6390938,-3120211.70544 20219.8904357,-3120239.7055 20159.6411847,-3120219.70612 20091.1418429,-3120162.20732 20039.1422704,-3120105.20842 20036.391979,-3120044.7093 20063.1413606,-3120001.20978 20144.3901902,-3119999.70936 20196.1394181,-3119994.20915 20215.8889979,-3119969.20941 20226.8885945,-3119924.20999 20218.3884591,-3119876.71072 20185.8886517,-3119825.71164 20137.889117,-3119783.7125 20080.3896612,-3119730.71357 20058.1395952,-3119657.71473 20092.888529,-3119549.71611 20177.3870841,-3119506.71629 20168.6360395,-3119279.71963 20198.6341648,-3118994.22365 20123.6342308,-3118784.22709 20078.6337402,-3118543.73083 20108.6317689,-3118213.73555 20168.6297978,-3117973.23885 20078.6300815,-3117733.24281 20168.627527,-3117447.74668 20288.6249792,-3117267.74889 20258.6249396,-3117147.75082 20228.6247867,-3116997.25321 20168.6244082,-3116667.25843 20048.3754912,-3116471.76183 19988.3752104,-3116141.76704 19958.374988,-3115946.2701 19868.375894,-3115811.27245 19740.1274456,-3115694.77463 19144.3863897,-3115712.77627 18148.1506252,-3115628.28054 17662.4071453,-3115492.28388 17207.4129318,-3115269.78826 17061.6645336,-3115103.79096 16936.6659882,-3114990.79285 16706.9188972,-3114878.29497 16470.9219345,-3114787.79678 16390.6728759,-3114718.79792 16324.673605,-3114641.79913 16302.423635,-3114518.80087 16341.1728787,-3114416.30219 16359.9223863,-3114307.30365 16354.9223017,-3114234.80466 16308.1728137,-3114171.80563 16220.6739256,-3114127.80641 16024.4265394,-3114091.8073 15925.9277038,-3114001.30873 15872.9282173,-3113893.31031 15854.4280963,-3113693.31307 15834.9281089,-3113552.31503 15785.6785571,-3113423.81687 15642.6802416,-3113266.81926 15529.9316047,-3113162.32086 15385.9333011,-3112997.82331 15213.6854515,-3112879.32517 15094.4369667,-3112816.82618 14251.6981216,-3112788.82771 13660.7055316,-3112552.33154 13057.9629426,-3112244.83617 12644.218006,-3112043.83914 12336.7216169,-3111736.84329 11993.9756724,-3111417.34757 11686.4793057,-3111110.35161 11036.4871999,-3110873.85489 10575.2427608,-3110731.85684 10090.7485385,-3110542.85933 9724.2528332,-3110247.363 9440.50617007,-3110081.86506 9214.50882629,-3109976.36636 8613.0158739,-3109803.86851 8270.26984004,-3109543.8716 7915.52394274,-3109378.37355 7525.52843612,-3109295.37454 7265.28142106,-3109271.87482 6816.03655267,-3109378.37362 6696.7879084,-3109393.37346 6594.78906419,-3109372.8737 6391.04136823,-3109332.37417 6064.54505118,-3109352.87395 5575.30053151,-3109026.37763 5474.8016808,-3108405.38458 5391.55264597,-3108062.38841 5227.80451458,-3107750.39187 4823.30903694,-3107532.39422 4276.06510028,-3107361.896 3189.32707664,-3106783.40214 2806.58138095,-3105956.91103 2801.83143428,-3105946.91114 2985.32952024,-3105671.91415 3124.82805613,-3105523.91578 3678.57228253,-3104937.42229 3862.32060608,-3104223.93004 4274.3166089,-3103457.43845 4349.3159473,-3103232.94088 4468.81484139,-3102981.94363 4495.06461687,-3102902.44449 5228.8080873,-3101464.46024 5939.80123736,-3100940.46649 6445.04639099,-3100603.97064 7062.54100331,-3099892.47897 7324.53868267,-3099649.48193 7811.03494613,-3098938.49018 8335.03068041,-3098395.49685 8615.77878242,-3097965.5019 8665.77851656,-3097862.50307 8908.52728997,-3097363.00875 8741.77986722,-3097012.01185 8355.78453376,-3096678.51416 7873.04030773,-3096237.51721" style="stroke-linejoin:round;stroke:#000;stroke-width:1px;fill:none" /></g></g></svg>