<?xml version="1.0" encoding="UTF-8" standalone="no"?>
<svg width="1280px" height="343px" viewBox="0 0 1280 343" version="1.1" xmlns="http://www.w3.org/2000/svg" xmlns:xlink="http://www.w3.org/1999/xlink">
    <!-- Generator: Sketch 41.2 (35397) - http://www.bohemiancoding.com/sketch -->
    <title>nodos</title>
    <desc>Created with Sketch.</desc>
    <defs></defs>
    <g id="Page-1" stroke="none" stroke-width="1" fill="none" fill-rule="evenodd" opacity="0.445255888">
        <g id="1---PIN-2" transform="translate(0.000000, -457.000000)">
            <g id="Group" transform="translate(-8.000000, 53.000000)">
                <g id="lines" stroke="#750ECC" stroke-linecap="square">
                    <path d="M117.5,413.5 L14.5,605.5" id="Line"></path>
                    <path d="M117.5,413.5 L0.5,479.5" id="Line"></path>
                    <path d="M116.5,412.5 L188.5,571.5" id="Line"></path>
                    <path d="M116.5,412.5 L370.5,473.5" id="Line"></path>
                    <path d="M370.5,473.5 L317.5,602.5" id="Line"></path>
                    <path d="M188.5,571.5 L370.5,473.5" id="Line"></path>
                    <path d="M188.5,571.5 L317.5,602.5" id="Line"></path>
                    <path d="M187.5,571.5 L14.5,605.5" id="Line"></path>
                    <path d="M317.5,603.5 L446.5,706.5" id="Line"></path>
                    <path d="M370.5,473.5 L589.5,513.5" id="Line"></path>
                    <path d="M590.5,513.5 L858.5,447.5" id="Line"></path>
                    <path d="M590.5,513.5 L738.5,646.5" id="Line"></path>
                    <path d="M447.5,706.5 L738.5,647.5" id="Line"></path>
                    <path d="M858.5,448.5 L995.5,404.5" id="Line"></path>
                    <path d="M995.5,404.5 L1169.5,481.5" id="Line"></path>
                    <path d="M995.5,404.5 L967.5,668.5" id="Line"></path>
                    <path d="M995.5,404.5 L1016.5,638.5" id="Line"></path>
                    <path d="M995.5,404.5 L1209.5,671.5" id="Line"></path>
                    <path d="M1169.5,481.5 L1209.5,671.5" id="Line"></path>
                    <path d="M1016.5,637.5 L1209.5,671.5" id="Line"></path>
                    <path d="M967.5,669.5 L1016.5,637.5" id="Line"></path>
                    <path d="M738.5,646.5 L967.5,669.5" id="Line"></path>
                    <path d="M858.5,447.5 L742.5,542.5" id="Line"></path>
                    <path d="M742.5,542.5 L589.5,513.5" id="Line"></path>
                    <path d="M742.5,542.5 L738.5,646.5" id="Line"></path>
                    <path d="M742.5,542.5 L967.5,669.5" id="Line"></path>
                    <path d="M742.5,542.5 L995.5,404.5" id="Line"></path>
                    <path d="M967.5,668.5 L1116.5,735.5" id="Line"></path>
                    <path d="M1016.5,638.5 L1117.5,735.5" id="Line"></path>
                    <path d="M1209.5,671.5 L1116.5,735.5" id="Line"></path>
                    <path d="M1116.5,735.5 L750.5,741.5" id="Line"></path>
                    <path d="M750.5,741.5 L966.5,669.5" id="Line"></path>
                    <path d="M750.5,741.5 L738.5,645.5" id="Line"></path>
                    <path d="M750.5,741.5 L446.5,706.5" id="Line"></path>
                    <path d="M446.5,706.5 L496.5,592.5" id="Line"></path>
                    <path d="M317.5,602.5 L496.5,592.5" id="Line"></path>
                    <path d="M496.5,592.5 L590.5,513.5" id="Line"></path>
                    <path d="M496.5,592.5 L370.5,473.5" id="Line"></path>
                    <path d="M496.5,592.5 L742.5,542.5" id="Line"></path>
                    <path d="M446.5,706.5 L248.5,671.5" id="Line"></path>
                    <path d="M248.5,671.5 L317.5,603.5" id="Line"></path>
                    <path d="M148.5,704.5 L248.5,671.5" id="Line"></path>
                    <path d="M148.5,704.5 L188.5,571.5" id="Line"></path>
                    <path d="M148.5,704.5 L317.5,602.5" id="Line"></path>
                    <path d="M248.5,671.5 L188.5,571.5" id="Line"></path>
                    <path d="M148.5,704.5 L14.5,605.5" id="Line"></path>
                    <path d="M14.5,605.5 L8.5,746.5" id="Line"></path>
                    <path d="M8.5,746.5 L148.5,704.5" id="Line"></path>
                    <path d="M248.5,671.5 L271.5,750.5" id="Line"></path>
                    <path d="M148.5,704.5 L274.5,750.5" id="Line"></path>
                    <path d="M446.5,706.5 L272.5,752.5" id="Line"></path>
                    <path d="M1209.5,671.5 L1288.5,747.5" id="Line"></path>
                    <path d="M1116.5,735.5 L1287.5,746.5" id="Line"></path>
                    <path d="M1169.5,481.5 L1293.5,567.5" id="Line"></path>
                    <path d="M1209.5,671.5 L1299.5,565.5" id="Line"></path>
                    <path d="M1016.5,637.5 L1169.5,481.5" id="Line"></path>
                    <path d="M1116.5,735.5 L1169.5,481.5" id="Line"></path>
                </g>
                <g id="nodos" transform="translate(10.000000, 400.000000)" fill="#750ECC">
                    <circle id="Oval-4" cx="107.5" cy="13.5" r="4.5"></circle>
                    <circle id="Oval-4" cx="4.5" cy="205.5" r="4.5"></circle>
                    <circle id="Oval-4" cx="360.5" cy="73.5" r="4.5"></circle>
                    <circle id="Oval-4" cx="580.5" cy="113.5" r="4.5"></circle>
                    <circle id="Oval-4" cx="178.5" cy="171.5" r="4.5"></circle>
                    <circle id="Oval-4" cx="139.5" cy="303.5" r="4.5"></circle>
                    <circle id="Oval-4" cx="238.5" cy="271.5" r="4.5"></circle>
                    <circle id="Oval-4" cx="486.5" cy="192.5" r="4.5"></circle>
                    <circle id="Oval-4" cx="732.5" cy="142.5" r="4.5"></circle>
                    <circle id="Oval-4" cx="740.5" cy="341.5" r="4.5"></circle>
                    <circle id="Oval-4" cx="307.5" cy="202.5" r="4.5"></circle>
                    <circle id="Oval-4" cx="436.5" cy="306.5" r="4.5"></circle>
                    <circle id="Oval-4" cx="847.5" cy="47.5" r="4.5"></circle>
                    <circle id="Oval-4" cx="985.5" cy="4.5" r="4.5"></circle>
                    <circle id="Oval-4" cx="1159.5" cy="81.5" r="4.5"></circle>
                    <circle id="Oval-4" cx="728.5" cy="246.5" r="4.5"></circle>
                    <circle id="Oval-4" cx="957.5" cy="268.5" r="4.5"></circle>
                    <circle id="Oval-4" cx="1006.5" cy="237.5" r="4.5"></circle>
                    <circle id="Oval-4" cx="1199.5" cy="271.5" r="4.5"></circle>
                    <circle id="Oval-4" cx="1106.5" cy="334.5" r="4.5"></circle>
                </g>
            </g>
        </g>
    </g>
</svg>